<svg width="164" height="44" viewBox="0 0 164 44" fill="none" xmlns="http://www.w3.org/2000/svg">
<path d="M82.3594 23.9387C83.4715 22.859 84.9698 22.2574 86.5144 22.2728C87.8428 22.242 89.1403 22.6739 90.1907 23.5068L90.3915 23.6764L92.0906 21.6559L91.8898 21.5016C91.1483 20.9001 90.3142 20.4373 89.4184 20.1288C88.4916 19.8049 87.503 19.6353 86.5144 19.6353C85.3714 19.6353 84.2284 19.8512 83.1781 20.2985C82.174 20.7304 81.2473 21.3319 80.4595 22.1032C78.8685 23.6764 77.9727 25.8359 77.9727 28.0878C77.9727 29.2138 78.1889 30.3244 78.6368 31.3578C79.0693 32.3604 79.6872 33.255 80.4595 34.0108C81.2473 34.7666 82.1586 35.3836 83.1626 35.8C84.213 36.2473 85.356 36.4787 86.499 36.4633C87.4876 36.4633 88.4607 36.309 89.3875 35.9697C90.2833 35.6612 91.102 35.1831 91.828 34.5969L92.0288 34.4273L90.3606 32.4221L90.1598 32.5763C89.1403 33.3938 87.9046 33.8103 86.4836 33.8103C85.6958 33.8103 84.908 33.6715 84.1821 33.363C82.7919 32.7923 81.6798 31.6817 81.0928 30.2935C80.7839 29.584 80.6449 28.8282 80.6449 28.057C80.6449 27.2703 80.7839 26.4837 81.0928 25.7587C81.4172 25.0801 81.8342 24.4631 82.3594 23.9387Z" fill="white"/>
<path d="M104.323 24.0776C105.219 23.1984 106.177 22.3038 107.15 21.4092L107.351 21.2241L105.683 19.512L105.497 19.6971C104.03 21.0853 102.624 22.3963 101.265 23.6611C100.045 24.7871 98.7935 25.9594 97.4806 27.1779V7.40381H94.793V36.1703H97.4806V30.4633L99.7203 28.3964L105.466 36.1703H108.633L101.651 26.5918C102.578 25.7434 103.474 24.8951 104.323 24.0776Z" fill="white"/>
<path d="M122.584 22.5659C122.46 22.3962 122.337 22.2266 122.182 22.0569C121.781 21.5787 121.302 21.1777 120.777 20.8384C120.19 20.4527 119.557 20.1597 118.892 19.9592C118.151 19.7432 117.394 19.6353 116.622 19.6353C115.494 19.6353 114.382 19.8512 113.347 20.2985C112.343 20.7304 111.432 21.3628 110.659 22.134C109.887 22.9207 109.269 23.8461 108.837 24.8487C108.389 25.8821 108.157 27.0081 108.173 28.1341C108.173 29.2447 108.389 30.3244 108.821 31.3424C109.238 32.3295 109.841 33.2242 110.582 33.98C111.339 34.7512 112.25 35.3527 113.254 35.7846C114.32 36.2319 115.463 36.4633 116.622 36.4479C117.394 36.4479 118.182 36.3553 118.923 36.1394C119.587 35.9543 120.221 35.6766 120.808 35.3064C121.333 34.9825 121.796 34.5969 122.213 34.1496C122.321 34.0262 122.43 33.8874 122.538 33.764C122.538 33.9337 122.538 34.1033 122.538 34.273V36.1394H125.225V19.99H122.692L122.584 22.5659ZM120.854 23.9541C121.379 24.4785 121.796 25.1109 122.09 25.7896C122.383 26.4991 122.538 27.2549 122.538 28.0261C122.553 28.8128 122.399 29.584 122.09 30.3089C121.503 31.6971 120.391 32.8077 119 33.3784C117.518 33.9645 115.865 33.9645 114.397 33.3784C111.447 32.1136 110.072 28.7048 111.308 25.7587C111.602 25.0801 112.019 24.4631 112.544 23.9541C114.274 22.3191 116.807 21.8409 119 22.7356C119.696 23.0132 120.313 23.4297 120.854 23.9541Z" fill="white"/>
<path d="M152.484 20.9926C151.542 20.098 150.229 19.6353 148.592 19.6353C147.001 19.6661 145.657 20.0671 144.576 20.8538C143.695 21.5016 142.954 22.3345 142.413 23.2908C142.166 22.3499 141.641 21.4862 140.9 20.8538C139.973 20.0517 138.722 19.6353 137.193 19.6353C135.571 19.6661 134.196 20.098 133.099 20.9155C132.265 21.5479 131.57 22.3345 131.045 23.2291C131.029 22.9515 131.014 22.643 130.999 22.3345C130.968 21.9335 130.952 21.5479 130.937 21.1777C130.921 20.8075 130.906 20.4836 130.875 20.2368L130.844 20.0054H128.512V36.1702H131.199V27.6097C131.199 26.8847 131.338 26.1598 131.616 25.4811C131.879 24.8487 132.265 24.278 132.775 23.8153C133.285 23.3371 133.872 22.9669 134.52 22.7201C135.215 22.4579 135.957 22.3191 136.698 22.3345C137.749 22.3808 138.536 22.7047 139.062 23.26C139.587 23.8307 139.896 24.5711 139.927 25.3423V36.1702H142.614V27.5017C142.63 26.7922 142.784 26.0827 143.062 25.4348C143.325 24.8179 143.711 24.2626 144.19 23.7998C144.684 23.3371 145.271 22.9669 145.904 22.7201C146.584 22.4579 147.31 22.3191 148.051 22.3345C149.117 22.3808 149.936 22.7047 150.445 23.26C150.971 23.8307 151.28 24.5711 151.31 25.3577V36.1856H153.998V24.6019C153.936 23.1057 153.427 21.9026 152.484 20.9926Z" fill="white"/>
<path d="M62.1871 10.0877C68.7363 10.0877 74.0499 15.3936 74.0499 21.9336C74.0499 28.4735 68.7363 33.7795 62.1871 33.7795C55.6379 33.7795 50.3244 28.4735 50.3244 21.9336C50.3398 15.3936 55.6379 10.1031 62.1871 10.0877ZM62.1871 7.40381C54.1551 7.40381 47.6367 13.9129 47.6367 21.9336C47.6367 29.9543 54.1551 36.4634 62.1871 36.4634C70.2192 36.4634 76.7375 29.9543 76.7375 21.9336C76.7375 13.9129 70.2192 7.40381 62.1871 7.40381Z" fill="white"/>
<path d="M156.449 18.4424V14.2492H158.574C158.744 14.2492 158.93 14.2985 159.13 14.397C159.331 14.4917 159.502 14.6394 159.642 14.8402C159.786 15.0371 159.858 15.2871 159.858 15.5902C159.858 15.897 159.784 16.1583 159.636 16.3742C159.488 16.5864 159.308 16.7474 159.096 16.8572C158.888 16.967 158.691 17.022 158.505 17.022H156.971V16.3402H158.221C158.346 16.3402 158.481 16.2777 158.625 16.1527C158.772 16.0277 158.846 15.8402 158.846 15.5902C158.846 15.3326 158.772 15.1583 158.625 15.0674C158.481 14.9765 158.354 14.9311 158.244 14.9311H157.369V18.4424H156.449ZM158.983 16.4652L160.028 18.4424H159.017L157.994 16.4652H158.983ZM158.039 20.9424C157.411 20.9424 156.822 20.825 156.272 20.5902C155.723 20.3553 155.24 20.0295 154.824 19.6129C154.407 19.1962 154.081 18.7133 153.846 18.164C153.611 17.6148 153.494 17.0258 153.494 16.397C153.494 15.7682 153.611 15.1792 153.846 14.6299C154.081 14.0807 154.407 13.5977 154.824 13.1811C155.24 12.7644 155.723 12.4386 156.272 12.2038C156.822 11.9689 157.411 11.8515 158.039 11.8515C158.668 11.8515 159.257 11.9689 159.806 12.2038C160.356 12.4386 160.839 12.7644 161.255 13.1811C161.672 13.5977 161.998 14.0807 162.233 14.6299C162.467 15.1792 162.585 15.7682 162.585 16.397C162.585 17.0258 162.467 17.6148 162.233 18.164C161.998 18.7133 161.672 19.1962 161.255 19.6129C160.839 20.0295 160.356 20.3553 159.806 20.5902C159.257 20.825 158.668 20.9424 158.039 20.9424ZM158.039 19.8515C158.676 19.8515 159.255 19.6962 159.778 19.3856C160.301 19.075 160.717 18.6583 161.028 18.1356C161.339 17.6129 161.494 17.0333 161.494 16.397C161.494 15.7606 161.339 15.1811 161.028 14.6583C160.717 14.1356 160.301 13.7189 159.778 13.4083C159.255 13.0977 158.676 12.9424 158.039 12.9424C157.403 12.9424 156.824 13.0977 156.301 13.4083C155.778 13.7189 155.361 14.1356 155.051 14.6583C154.74 15.1811 154.585 15.7606 154.585 16.397C154.585 17.0333 154.74 17.6129 155.051 18.1356C155.361 18.6583 155.778 19.075 156.301 19.3856C156.824 19.6962 157.403 19.8515 158.039 19.8515Z" fill="white"/>
<path d="M11.3877 6.97643C11.8996 6.97643 12.3145 6.56208 12.3145 6.05096C12.3145 5.53984 11.8996 5.12549 11.3877 5.12549C10.8759 5.12549 10.4609 5.53984 10.4609 6.05096C10.4609 6.56208 10.8759 6.97643 11.3877 6.97643Z" fill="white"/>
<path d="M11.4033 17.6039C11.9152 17.6039 12.3301 17.1895 12.3301 16.6784C12.3301 16.1673 11.9152 15.7529 11.4033 15.7529C10.8915 15.7529 10.4766 16.1673 10.4766 16.6784C10.4766 17.1895 10.8915 17.6039 11.4033 17.6039Z" fill="white"/>
<path d="M29.8291 38.8744C30.341 38.8744 30.7559 38.46 30.7559 37.9489C30.7559 37.4378 30.341 37.0234 29.8291 37.0234C29.3173 37.0234 28.9023 37.4378 28.9023 37.9489C28.9023 38.46 29.3173 38.8744 29.8291 38.8744Z" fill="white"/>
<path d="M2.18069 22.9257C2.69254 22.9257 3.10748 22.5113 3.10748 22.0002C3.10748 21.4891 2.69254 21.0747 2.18069 21.0747C1.66884 21.0747 1.25391 21.4891 1.25391 22.0002C1.25391 22.5113 1.66884 22.9257 2.18069 22.9257Z" fill="white"/>
<path d="M39.0518 22.9257C39.5636 22.9257 39.9786 22.5113 39.9786 22.0002C39.9786 21.4891 39.5636 21.0747 39.0518 21.0747C38.5399 21.0747 38.125 21.4891 38.125 22.0002C38.125 22.5113 38.5399 22.9257 39.0518 22.9257Z" fill="white"/>
<path d="M29.8291 6.97643C30.341 6.97643 30.7559 6.56208 30.7559 6.05096C30.7559 5.53984 30.341 5.12549 29.8291 5.12549C29.3173 5.12549 28.9023 5.53984 28.9023 6.05096C28.9023 6.56208 29.3173 6.97643 29.8291 6.97643Z" fill="white"/>
<path d="M29.8291 28.2469C30.341 28.2469 30.7559 27.8326 30.7559 27.3215C30.7559 26.8103 30.341 26.396 29.8291 26.396C29.3173 26.396 28.9023 26.8103 28.9023 27.3215C28.9023 27.8326 29.3173 28.2469 29.8291 28.2469Z" fill="white"/>
<path d="M11.4033 28.2313C11.9152 28.2313 12.3301 27.817 12.3301 27.3058C12.3301 26.7947 11.9152 26.3804 11.4033 26.3804C10.8915 26.3804 10.4766 26.7947 10.4766 27.3058C10.4766 27.817 10.8915 28.2313 11.4033 28.2313Z" fill="white"/>
<path d="M29.8291 17.6195C30.341 17.6195 30.7559 17.2052 30.7559 16.694C30.7559 16.1829 30.341 15.7686 29.8291 15.7686C29.3173 15.7686 28.9023 16.1829 28.9023 16.694C28.9023 17.2052 29.3173 17.6195 29.8291 17.6195Z" fill="white"/>
<path d="M20.6104 33.5531C21.1222 33.5531 21.5372 33.1387 21.5372 32.6276C21.5372 32.1165 21.1222 31.7021 20.6104 31.7021C20.0985 31.7021 19.6836 32.1165 19.6836 32.6276C19.6836 33.1387 20.0985 33.5531 20.6104 33.5531Z" fill="white"/>
<path d="M20.626 12.2982C21.1379 12.2982 21.5528 11.8839 21.5528 11.3727C21.5528 10.8616 21.1379 10.4473 20.626 10.4473C20.1142 10.4473 19.6992 10.8616 19.6992 11.3727C19.6992 11.8839 20.1142 12.2982 20.626 12.2982Z" fill="white"/>
<path d="M11.3877 38.8744C11.8996 38.8744 12.3145 38.46 12.3145 37.9489C12.3145 37.4378 11.8996 37.0234 11.3877 37.0234C10.8759 37.0234 10.4609 37.4378 10.4609 37.9489C10.4609 38.46 10.8759 38.8744 11.3877 38.8744Z" fill="white"/>
<path d="M12.9472 5.12555C16.3763 0.899229 22.5703 0.235974 26.8181 3.66022C27.3587 4.09211 27.853 4.58569 28.2855 5.12555C28.4399 4.86333 28.6562 4.63197 28.9342 4.47772C29.1196 4.36975 29.3049 4.30805 29.5212 4.2772C25.6132 -0.6278 18.4616 -1.42988 13.565 2.47253C12.9008 3.01239 12.283 3.61395 11.7578 4.2772C12.2367 4.38517 12.6846 4.69366 12.9472 5.12555Z" fill="white"/>
<path d="M22.1697 10.447C23.6834 8.56518 25.8459 7.31579 28.2401 6.93017C27.993 6.48286 27.9466 5.943 28.132 5.46484C25.3053 5.88131 22.7412 7.36206 20.9648 9.61404C21.4746 9.69117 21.9071 9.99966 22.1697 10.447Z" fill="white"/>
<path d="M16.3478 8.11786C17.3981 8.71942 18.3095 9.5215 19.0664 10.4624C19.2208 10.2002 19.4371 9.96881 19.7151 9.81456C19.885 9.72202 20.0704 9.64489 20.2712 9.61404C18.5103 7.36206 15.9307 5.86588 13.104 5.46484C13.1813 5.64994 13.2122 5.86588 13.2122 6.0664C13.2122 6.37489 13.1349 6.66796 12.9805 6.93017C14.1698 7.11527 15.3129 7.51631 16.3478 8.11786Z" fill="white"/>
<path d="M29.8477 14.8891C30.3728 14.8891 30.8671 15.1205 31.2069 15.5215C32.2727 12.8531 32.2727 9.89159 31.2224 7.22314C31.0834 7.37739 30.9289 7.51621 30.7435 7.62418C30.481 7.77843 30.1875 7.85555 29.8785 7.85555C30.759 10.123 30.7435 12.6217 29.8477 14.8891Z" fill="white"/>
<path d="M28.2853 15.7531C28.5479 15.3058 28.9958 15.0127 29.5056 14.9202C27.7292 12.6836 25.1651 11.2029 22.3384 10.771C22.5083 11.2646 22.462 11.8044 22.2148 12.2518C24.5936 12.6374 26.7561 13.8868 28.2853 15.7531Z" fill="white"/>
<path d="M32.3948 7.13078C37.6775 8.53441 40.7977 13.9484 39.392 19.2082C39.2994 19.5475 39.1912 19.8714 39.0677 20.1954C39.3766 20.1954 39.6855 20.2725 39.9481 20.4267C40.1335 20.5347 40.2879 20.6735 40.427 20.8278C40.5814 20.4267 40.7204 20.0257 40.8286 19.6247C42.4504 13.5628 38.8514 7.3313 32.781 5.6963C32.3639 5.58833 31.9623 5.49578 31.5298 5.43408C31.6997 5.92767 31.6534 6.46753 31.4062 6.91484C31.7461 6.97654 32.0704 7.03823 32.3948 7.13078Z" fill="white"/>
<path d="M35.5304 17.4654C34.2947 16.7558 32.9354 16.2777 31.5298 16.0771C31.6997 16.5707 31.6688 17.1106 31.4062 17.5579C33.8004 17.9281 35.9629 19.1621 37.4921 21.0438C37.7547 20.612 38.2027 20.3035 38.7124 20.2109C37.832 19.1158 36.7507 18.1749 35.5304 17.4654Z" fill="white"/>
<path d="M31.6378 27.3217C31.6378 27.5222 31.6069 27.7227 31.5296 27.9232C34.3718 27.5222 36.9359 26.026 38.7122 23.7895C38.2025 23.7123 37.7545 23.4039 37.492 22.9565C35.9628 24.8383 33.7848 26.0877 31.3906 26.4579C31.5605 26.7047 31.6378 27.0132 31.6378 27.3217Z" fill="white"/>
<path d="M29.8633 25.5168C30.3885 25.5322 30.8673 25.7636 31.2071 26.1646C32.2575 23.4962 32.2575 20.5347 31.2071 17.8662C30.8673 18.2518 30.3885 18.4832 29.8787 18.4986C30.7437 20.7506 30.7283 23.2494 29.8633 25.5168Z" fill="white"/>
<path d="M29.8789 36.1442C30.4041 36.1596 30.8829 36.391 31.2227 36.7921C32.2886 34.1236 32.2731 31.1621 31.2227 28.4937C30.8829 28.8947 30.4041 29.1261 29.8789 29.1415C30.7439 31.378 30.7439 33.8768 29.8789 36.1442Z" fill="white"/>
<path d="M40.8287 24.3755C40.7206 23.959 40.5816 23.558 40.4271 23.1724C40.0873 23.5734 39.593 23.8048 39.0833 23.8048C39.2069 24.1133 39.315 24.4372 39.4077 24.7611C40.8287 30.0363 37.6931 35.4657 32.4104 36.8848C32.0861 36.9619 31.7617 37.039 31.4219 37.0853C31.6845 37.5326 31.7308 38.0879 31.5454 38.566C31.9625 38.5044 32.3796 38.4118 32.7966 38.3038C38.8516 36.6688 42.4661 30.4373 40.8287 24.3755Z" fill="white"/>
<path d="M22.3073 33.2289C25.1495 32.8124 27.7136 31.3317 29.5054 29.0951C28.9956 29.0026 28.5477 28.6941 28.2851 28.2622C26.7559 30.1286 24.5934 31.378 22.1992 31.7636C22.4464 32.2109 22.4773 32.7507 22.3073 33.2289Z" fill="white"/>
<path d="M24.8882 35.8821C23.8379 35.2806 22.9265 34.4785 22.1697 33.5376C22.0152 33.7998 21.799 34.0312 21.5209 34.1854C21.351 34.278 21.1656 34.3551 20.9648 34.3859C22.7257 36.6379 25.2898 38.1341 28.132 38.5351C27.9466 38.057 27.993 37.5171 28.2556 37.0698C27.0662 36.8847 25.9231 36.4837 24.8882 35.8821Z" fill="white"/>
<path d="M16.3478 35.8823C15.3129 36.4839 14.1698 36.8849 12.9805 37.0854C13.2276 37.5328 13.2585 38.0726 13.0886 38.5508C15.9307 38.1343 18.4948 36.6381 20.2557 34.3861C19.746 34.2936 19.3135 33.9851 19.0509 33.5532C18.294 34.4941 17.3827 35.2808 16.3478 35.8823Z" fill="white"/>
<path d="M28.2851 38.8745C24.856 43.1008 18.6466 43.7641 14.4142 40.3398C13.8736 39.908 13.3793 39.4144 12.9468 38.8745C12.7924 39.1367 12.5761 39.3681 12.2981 39.5223C12.1127 39.6303 11.9274 39.692 11.7266 39.7229C15.6345 44.6279 22.7708 45.4299 27.6827 41.5275C28.3469 40.9877 28.9648 40.3861 29.4899 39.7229C28.9957 39.6303 28.5477 39.3218 28.2851 38.8745Z" fill="white"/>
<path d="M11.3717 29.1106C11.0628 29.1106 10.7538 29.0335 10.4912 28.8793C10.3213 28.7713 10.1514 28.6479 10.0279 28.4937C8.96205 31.1621 8.96205 34.1236 10.0124 36.7921C10.136 36.6378 10.3059 36.499 10.4758 36.391C10.7384 36.2368 11.0473 36.1596 11.3408 36.1596C10.4758 33.8768 10.4758 31.3626 11.3717 29.1106Z" fill="white"/>
<path d="M12.9468 28.2471C12.6842 28.6944 12.2363 28.9874 11.7266 29.08C13.5029 31.3166 16.067 32.8127 18.9091 33.2446C18.7392 32.751 18.7701 32.2112 19.0327 31.7639C16.6385 31.3628 14.476 30.1134 12.9468 28.2471Z" fill="white"/>
<path d="M0.790477 20.828C1.1303 20.4269 1.62458 20.211 2.13432 20.1956C2.01074 19.8871 1.90262 19.5632 1.80994 19.2392C0.38887 13.9641 3.52449 8.53461 8.80717 7.13098C9.13154 7.05386 9.45592 6.97674 9.79574 6.93046C9.53315 6.48315 9.48681 5.92787 9.67217 5.44971C9.25511 5.51141 8.83806 5.60395 8.43645 5.71192C2.36601 7.3315 -1.233 13.5784 0.38887 19.6403C0.512441 20.0413 0.636013 20.4269 0.790477 20.828Z" fill="white"/>
<path d="M5.7054 26.535C6.94111 27.2446 8.3004 27.7227 9.70602 27.9232C9.53611 27.4297 9.56701 26.8898 9.81415 26.4425C7.41995 26.0723 5.25745 24.8229 3.72826 22.9565C3.46567 23.3884 3.01772 23.6969 2.52344 23.7895C3.38844 24.8846 4.46969 25.8255 5.7054 26.535Z" fill="white"/>
<path d="M8.82371 36.8694C3.54103 35.4503 0.405407 30.0363 1.81103 24.7611C1.90371 24.4372 2.01184 24.1133 2.13541 23.8048C1.82648 23.8048 1.51755 23.7276 1.25496 23.5734C1.08505 23.4654 0.915139 23.3266 0.791568 23.1724C0.637104 23.558 0.498086 23.9744 0.389961 24.3755C-1.23191 30.4373 2.35166 36.6534 8.4221 38.2884C8.83915 38.3964 9.25621 38.4889 9.67326 38.5506C9.50335 38.057 9.54969 37.5326 9.79683 37.0853C9.4879 37.0236 9.14808 36.9619 8.82371 36.8694Z" fill="white"/>
<path d="M11.3717 14.8739C10.4912 12.6219 10.4912 10.1232 11.3562 7.87118C10.8465 7.85575 10.3522 7.62438 10.0124 7.23877C8.96205 9.90721 8.96205 12.8687 10.0279 15.5217C10.3522 15.1207 10.8465 14.8739 11.3717 14.8739Z" fill="white"/>
<path d="M9.5979 16.6784C9.5979 16.4779 9.64424 16.2774 9.70602 16.0923C6.86388 16.5087 4.29978 17.9895 2.52344 20.2261C2.72424 20.2569 2.92504 20.334 3.09496 20.4266C3.35754 20.5808 3.57379 20.7968 3.72826 21.059C5.25745 19.1772 7.4354 17.9278 9.84504 17.5576C9.67513 17.2954 9.5979 16.9869 9.5979 16.6784Z" fill="white"/>
<path d="M18.9248 10.7554C16.0981 11.1873 13.534 12.668 11.7422 14.9046C12.2519 14.9971 12.6844 15.3056 12.947 15.7529C14.4762 13.8866 16.6387 12.6372 19.0329 12.2516C18.7858 11.7888 18.7394 11.249 18.9248 10.7554Z" fill="white"/>
<path d="M11.3583 18.4833C10.8486 18.4679 10.3543 18.2365 10.0299 17.8354C8.97955 20.5039 8.96411 23.4654 10.0145 26.1339C10.3543 25.7482 10.8331 25.5014 11.3429 25.5014C10.4933 23.234 10.4933 20.7353 11.3583 18.4833Z" fill="white"/>
</svg>
