<svg width="24" height="24" viewBox="0 0 24 24" fill="none" xmlns="http://www.w3.org/2000/svg">
<g clip-path="url(#clip0_5777_25919)">
<path d="M19.0155 20.4917H4.98449C2.23163 20.4917 0 18.2601 0 15.5072V8.49319C0 5.74032 2.23163 3.50869 4.98449 3.50869H19.0155C21.7684 3.50869 24 5.74032 24 8.49319V15.5072C24 18.2601 21.7684 20.4917 19.0155 20.4917ZM15.6445 11.6589L9.08177 8.5289C8.9069 8.4455 8.7049 8.57299 8.7049 8.76671V15.2224C8.7049 15.4189 8.91221 15.5463 9.08744 15.4574L15.6502 12.1318C15.8453 12.0329 15.8419 11.7531 15.6445 11.6589Z" fill="white"/>
</g>
<defs>
<clipPath id="clip0_5777_25919">
<rect width="24" height="24" fill="white" transform="matrix(1 0 0 -1 0 24)"/>
</clipPath>
</defs>
</svg>
