<svg version="1.1" xmlns="http://www.w3.org/2000/svg" viewBox="0 0 384.55417088444347 239.12074583917854" width="769.1083417688869" height="478.2414916783571">
  <!-- svg-source:excalidraw -->
  
  <defs>
    <style class="style-fonts">
      @font-face {
        font-family: "Virgil";
        src: url("https://excalidraw.com/Virgil.woff2");
      }
      @font-face {
        font-family: "Cascadia";
        src: url("https://excalidraw.com/Cascadia.woff2");
      }
      @font-face {
        font-family: "Assistant";
        src: url("https://app.excalidraw.com//dist/excalidraw-assets/Assistant-Regular.woff2");
      }
    </style>
    
  </defs>
  <g transform="translate(95.15829686100597 10) rotate(0 139.69793701171875 22.5)"><text x="139.69793701171875" y="0" font-family="Virgil, Segoe UI Emoji" font-size="36px" fill="#36a7c9" text-anchor="middle" style="white-space: pre;" direction="ltr" dominant-baseline="text-before-edge">It's simple, with</text></g><g stroke-linecap="round"><g transform="translate(215.34060887272472 80.99609375) rotate(0 -102.857421875 73.64453125)"><path d="M0.58 -1.11 C-0.2 15.44, 28.91 73.92, -5.35 98.79 C-39.61 123.66, -171.63 139.98, -204.97 148.12 M-0.57 0.92 C-1.35 17.62, 28.41 75.55, -5.71 99.76 C-39.84 123.98, -172.14 138.03, -205.34 146.22" stroke="#36a7c9" stroke-width="4" fill="none"></path></g><g transform="translate(215.34060887272472 80.99609375) rotate(0 -102.857421875 73.64453125)"><path d="M-183.7 133.71 C-190.87 138.72, -196.07 141.15, -205.34 146.22 M-183.7 133.71 C-191.78 137.84, -198.69 143.38, -205.34 146.22" stroke="#36a7c9" stroke-width="4" fill="none"></path></g><g transform="translate(215.34060887272472 80.99609375) rotate(0 -102.857421875 73.64453125)"><path d="M-180.72 150.55 C-188.55 151.47, -194.47 149.81, -205.34 146.22 M-180.72 150.55 C-189.95 148.46, -197.96 147.78, -205.34 146.22" stroke="#36a7c9" stroke-width="4" fill="none"></path></g></g><mask></mask></svg>