<?xml version="1.0" encoding="utf-8"?>
<!-- Generator: Adobe Illustrator 24.3.0, SVG Export Plug-In . SVG Version: 6.00 Build 0)  -->
<svg version="1.1" id="Layer_1" xmlns="http://www.w3.org/2000/svg" xmlns:xlink="http://www.w3.org/1999/xlink" x="0px" y="0px"
	 viewBox="0 0 480 480" style="enable-background:new 0 0 480 480;" xml:space="preserve">
<style type="text/css">
	.st0{opacity:0.6;fill:#5CCFEA;enable-background:new    ;}
	.st1{opacity:0.5;fill:#52C7EA;enable-background:new    ;}
	.st2{fill:#52C7EA;}
	.st3{opacity:0.5;fill:#EC432D;enable-background:new    ;}
	.st4{fill:#EC432D;}
	.st5{fill:#05131C;}
	.st6{opacity:0.1;}
	.st7{fill:#0A1A2B;}
	.st8{fill:#4BC7EC;}
	.st9{opacity:0.4;}
	.st10{opacity:0.3;}
	.st11{opacity:0.51;}
	.st12{opacity:0.3;fill:url(#SVGID_1_);}
	.st13{fill:url(#SVGID_2_);}
	.st14{fill:url(#SVGID_3_);}
	.st15{fill:url(#SVGID_4_);}
	.st16{fill:url(#SVGID_5_);}
	.st17{fill:url(#SVGID_6_);}
	.st18{fill:url(#SVGID_7_);}
	.st19{fill:url(#SVGID_8_);}
	.st20{fill:url(#SVGID_9_);}
	.st21{fill:url(#SVGID_10_);}
	.st22{fill:url(#SVGID_11_);}
	.st23{fill:url(#SVGID_12_);}
	.st24{fill:url(#SVGID_13_);}
	.st25{fill:url(#SVGID_14_);}
	.st26{fill:url(#SVGID_15_);}
	.st27{fill:url(#SVGID_16_);}
	.st28{fill:url(#SVGID_17_);}
	.st29{fill:url(#SVGID_18_);}
	.st30{fill:url(#SVGID_19_);}
	.st31{fill:url(#SVGID_20_);}
	.st32{fill:url(#SVGID_21_);}
	.st33{fill:url(#SVGID_22_);}
	.st34{fill:url(#SVGID_23_);}
	.st35{opacity:0.1;fill:#52C7EA;}
	.st36{fill:#162535;}
	.st37{enable-background:new    ;}
	.st38{clip-path:url(#SVGID_25_);}
</style>
<g>
	<path id="Shape_2_" class="st0" d="M244,469c-28.5,0-57.1-6.2-78.8-18.6c-21.1-12.1-32.7-28.2-32.7-45.4s11.6-33.3,32.7-45.4
		c43.4-24.9,114.2-24.9,157.6,0c21.1,12.1,32.7,28.2,32.7,45.4s-11.6,33.3-32.7,45.4C301,462.8,272.5,469,244,469z M244,341.8
		c-28.4,0-56.7,6.2-78.3,18.5c-20.8,11.9-32.3,27.8-32.3,44.6s11.5,32.7,32.3,44.6c43.1,24.7,113.5,24.7,156.7,0
		c20.8-11.9,32.3-27.8,32.3-44.6c0-16.8-11.5-32.7-32.3-44.6C300.7,348,272.3,341.8,244,341.8z"/>
	<path id="Shape_4_" class="st0" d="M243,455.4c-22.3,0-44.7-4.9-61.7-14.7c-16.5-9.5-25.7-22.2-25.7-35.8
		c0-13.5,9.1-26.2,25.7-35.8c34-19.6,89.3-19.6,123.3,0c16.5,9.5,25.7,22.3,25.7,35.8c0,13.5-9.1,26.2-25.7,35.8
		C287.6,450.5,265.3,455.4,243,455.4z M243,355.4c-22.2,0-44.3,4.9-61.2,14.6c-16.3,9.4-25.2,21.8-25.2,35c0,13.2,9,25.6,25.2,35
		c33.7,19.4,88.6,19.4,122.4,0l0.2,0.4l-0.2-0.4c16.3-9.4,25.2-21.8,25.2-35s-9-25.6-25.2-35C287.3,360.3,265.1,355.4,243,355.4
		L243,355.4z"/>
	<path id="Path_435_" class="st1" d="M312.8,430.2c0,3.2,2.6,5.8,5.8,5.8c3.2,0,5.8-2.6,5.8-5.8s-2.6-5.8-5.8-5.8
		C315.4,424.4,312.8,427,312.8,430.2z"/>
	<circle id="Oval_13_" class="st2" cx="317.7" cy="429.2" r="2.9"/>
	<circle id="Oval_12_" class="st3" cx="207.1" cy="450.6" r="8.7"/>
	<path id="Path_436_" class="st4" d="M204.2,449.9c0.2,2,1.8,3.6,3.9,3.6s3.7-1.6,3.9-3.6c0.1-1.5-0.6-2.9-1.8-3.6s-2.8-0.8-4.1,0
		S204.1,448.5,204.2,449.9L204.2,449.9z"/>
	<path id="Path_437_" class="st1" d="M171.2,372c0,3.2,2.6,5.8,5.8,5.8s5.8-2.6,5.8-5.8c0-3.2-2.6-5.8-5.8-5.8
		S171.2,368.8,171.2,372L171.2,372z"/>
	<path id="Path_438_" class="st2" d="M175.1,371c0,1.6,1.3,2.9,2.9,2.9c1.6,0,2.9-1.3,2.9-2.9c0-1.6-1.3-2.9-2.9-2.9
		C176.4,368.1,175.1,369.4,175.1,371z"/>
</g>
<polygon class="st5" points="257.4,384.1 268.8,384.9 268.4,393.2 "/>
<g class="st6">
	<path class="st2" d="M292,395.3c-7.7-2.7-15.5-6.2-23.3-10.4l-3,5.5c8,4.4,16.2,8,24.2,10.8c13.7,4.9,27,7.3,39.4,7.3h0.3v-6.2
		h-0.3C317.7,402.3,305.1,399.9,292,395.3z"/>
	<path class="st2" d="M117.9,115.2c1.2-24.1,6.7-44.5,16.5-60.9l-5.3-3.2l-11.3-0.8l-15.1,61.4l3.9,2.7l5.1,0.5L117.9,115.2z"/>
	<path class="st2" d="M201.1,329l-5.5-6.5l-11.3-0.8v4.3l16.3,20.1l26.2,25.4l11.3,0.8l3.8-4.9C227.7,356.6,214,343.7,201.1,329z"/>
	<path class="st2" d="M414.7,261.4c-0.3-2.1-0.6-4.3-1-6.4l-11.3-0.8l1.7,65.9l11.3,0.8c1.2-8.3,1.8-17.1,1.8-26.1
		C417.2,284.2,416.4,272.9,414.7,261.4z"/>
	<path class="st2" d="M401.3,350.8L401.3,350.8L401.3,350.8L390,350l-1.8,10.2l-10.1,17.4L351.3,401l11.2,0.5l0.1,0.2
		c0.2-0.1,0.3-0.2,0.5-0.2l0,0l0,0c18-8,32.3-22.8,41.6-43.1l0,0l0,0c0.8-1.7,1.6-3.5,2.3-5.3L401.3,350.8z"/>
	<path class="st2" d="M366.5,132.9c-11.8-19.1-25.2-36.7-39.7-52.5l-11.3-0.8l1.8,6.9l24,28.6l8.5,20.2l11.3,0.8L366.5,132.9z"/>
	<path class="st2" d="M388.9,223.7h0.3l11.3,0.8l6-1.7c-5.8-20.6-13.9-41.2-23.9-61.3l-11.3-0.8l23.9,61.3L388.9,223.7z"/>
	<path class="st2" d="M133.2,239.5l1.3,7.5l25.1,52.4l11.3,0.8l5.1-3.5c-12.2-17.8-22.8-36.8-31.5-56.4L133.2,239.5z"/>
	<polygon class="st2" points="107.5,146.5 115.6,211.4 126.9,212.2 132.8,210.2 118.8,147.3 	"/>
	<path class="st2" d="M164.2,25.3c10.1-5.2,21.4-8,33.7-8.2l3.1,0c4.5,0.1,9.2,0.5,13.9,1.3l1-6.1c-5-0.8-10-1.2-14.8-1.3l-3.2,0
		c-12,0.2-23,2.6-33,7.2l-9.1,2l-12,10l11.3,0.8L164.2,25.3z"/>
	<path class="st2" d="M287.9,61.3l11.3,0.8l4.1-4.7c-18.1-15.7-36.8-27.7-55.5-35.7l-11.3-0.8l7.6,7.3L268.7,44L287.9,61.3z"/>
</g>
<path class="st2" d="M318.3,407.7H318c-12.4,0-25.7-2.5-39.4-7.3c-8-2.8-16.1-6.5-24.2-10.8l3-5.5c7.8,4.2,15.6,7.7,23.3,10.4
	c13.1,4.6,25.7,7,37.4,7h0.3V407.7z M351.3,401l-2.5-5.7c18.3-8,32.5-23.6,41.1-45.3l5.8,2.3C386.5,375.5,371.1,392.4,351.3,401z
	 M226.7,371.5c-16.5-12.6-32.5-28-47.3-45.8l4.8-4c14.5,17.5,30.1,32.6,46.2,44.9L226.7,371.5z M404.1,320.1l-6.1-0.9
	c1.1-8,1.7-16.5,1.7-25.2c0-10.4-0.8-21.3-2.4-32.6c-0.3-2.1-0.6-4.2-1-6.3l6.1-1c0.4,2.1,0.7,4.3,1,6.4c1.6,11.5,2.5,22.8,2.5,33.4
	C405.9,303.1,405.3,311.8,404.1,320.1z M159.7,299.4c-12.4-18.1-23.2-37.4-32.1-57.4l5.7-2.5c8.8,19.6,19.4,38.6,31.5,56.4
	L159.7,299.4z M389.2,223.7c-5.7-20.2-13.6-40.4-23.5-60.2l5.5-2.8c10.1,20.1,18.1,40.7,23.9,61.3L389.2,223.7z M115.6,211.4
	c-6.1-18.2-10.5-36.5-13-54.2c-0.5-3.4-0.9-6.8-1.2-10.1l6.2-0.6c0.3,3.2,0.7,6.5,1.2,9.8c2.5,17.4,6.8,35.2,12.8,53.1L115.6,211.4z
	 M349.9,135.3c-11.6-18.7-24.7-36.1-38.9-51.5l4.6-4.2c14.5,15.7,27.8,33.4,39.7,52.5L349.9,135.3z M106.5,114.4l-6.2-0.3
	c1.2-25.1,7.1-46.5,17.4-63.8l5.3,3.2C113.2,69.8,107.7,90.3,106.5,114.4z M287.9,61.3c-17.6-15.3-35.8-27-53.9-34.7l2.4-5.7
	c18.7,8,37.4,20,55.5,35.7L287.9,61.3z M143.8,30.2l-3.7-5c13.2-9.7,28.9-14.8,46.5-15.1l3.2,0c4.8,0.1,9.8,0.5,14.8,1.3l-1,6.1
	c-4.7-0.8-9.4-1.2-13.9-1.3l-3.1,0C170.4,16.6,155.9,21.2,143.8,30.2z"/>
<g>
	<g>
		<g>
			<g>
				<path class="st7" d="M247.9,412.6c-4.4,0-8.7-1-12.1-2.9l-63.9-36.9c-3.3-1.9-5.1-4.5-5.1-7.3c0-2.8,1.8-5.4,5.1-7.3l63.9-36.9
					c6.6-3.8,17.5-3.8,24.1,0l63.9,36.9c3.3,1.9,5.1,4.5,5.1,7.3c0,2.8-1.8,5.4-5.1,7.3L260,409.8
					C256.7,411.7,252.3,412.6,247.9,412.6z"/>
				<path class="st8" d="M247.9,412.8c-4.6,0-8.9-1-12.2-2.9L171.8,373c-3.4-2-5.3-4.6-5.3-7.5c0-2.9,1.9-5.5,5.3-7.5l63.9-36.9
					c6.7-3.9,17.6-3.9,24.3,0l63.9,36.9c3.4,2,5.3,4.6,5.3,7.5c0,2.9-1.9,5.5-5.3,7.5l-63.9,36.9
					C256.9,411.8,252.5,412.8,247.9,412.8z M247.9,318.7c-4.3,0-8.7,1-11.9,2.9l-63.9,36.9c-3.3,1.9-5,4.4-5,7.1
					c0,2.7,1.8,5.2,5,7.1l63.9,36.9c3.2,1.8,7.4,2.9,11.9,2.9c4.5,0,8.8-1,11.9-2.9l63.9-36.9c3.3-1.9,5-4.4,5-7.1s-1.8-5.2-5-7.1
					l-63.9-36.9C256.6,319.6,252.3,318.7,247.9,318.7z"/>
			</g>
			<g>
				<path class="st7" d="M328,365.6c0,2.4-1.6,4.6-4.6,6.3l-63.9,36.9c-6.3,3.7-16.6,3.7-23,0l-63.9-36.9c-3-1.7-4.6-4-4.6-6.3
					c0-2.4,1.6-4.6,4.6-6.3l63.9-36.9c6.3-3.7,16.7-3.7,23,0l63.9,36.9C326.3,361,328,363.2,328,365.6z"/>
				<path class="st8" d="M247.9,411.7c-4.2,0-8.4-0.9-11.6-2.8L172.4,372c-3-1.7-4.7-4-4.7-6.5c0-2.4,1.7-4.7,4.7-6.5l63.9-36.9
					c6.4-3.7,16.8-3.7,23.2,0l63.9,36.9c3,1.8,4.7,4.1,4.7,6.5c0,2.4-1.7,4.8-4.7,6.5L259.5,409
					C256.3,410.8,252.1,411.7,247.9,411.7z M247.9,319.8c-4.1,0-8.2,0.9-11.4,2.7l-63.9,36.9c-2.9,1.7-4.5,3.9-4.5,6.1
					c0,2.3,1.6,4.5,4.5,6.1l63.9,36.9c6.3,3.6,16.5,3.6,22.8,0l63.9-36.9c2.9-1.7,4.5-3.8,4.5-6.1c0-2.3-1.6-4.5-4.5-6.1l-63.9-36.9
					C256.2,320.7,252.1,319.8,247.9,319.8z"/>
			</g>
			<g>
				<g class="st9">
					<path class="st7" d="M331.1,351.4v-21.9l-4-2.2c-1.1,6.8-9.2,11.3-15.9,12.3l-45.8,26.8l-20,7.2l-63.8-32.9l1.5-0.9
						c-5.5-2.5-8.4-8.4-11.3-13.7l-4.3,2.6l-2.6,0.7v22.3l0,0c0,2.8,1.9,5.7,5.6,7.8l63.9,36.9c7.5,4.3,19.7,4.3,27.2,0l63.9-36.9
						c3.7-2.1,5.6-4.9,5.6-7.7C331.1,351.6,331.1,351.5,331.1,351.4L331.1,351.4z"/>
					<path class="st8" d="M247.9,399.8c-5,0-9.9-1.1-13.7-3.3l-63.9-36.9c-3.7-2.1-5.7-5-5.7-8l0-22.4l2.7-0.8l4.5-2.7l0.7,1.2
						c2.8,5,5.6,10.2,10.7,12.6l0.4,0.2l-1.5,0.9l63.4,32.7l19.9-7.2l45.9-26.8c6.8-0.9,14.6-5.5,15.7-12.1l0-0.3l4.4,2.4l0,22.3
						c0,0,0,0.1,0,0.1c-0.1,3-2.1,5.8-5.7,7.9l-63.9,36.9C257.8,398.7,252.9,399.8,247.9,399.8z M165,329.5v22.1
						c0,2.9,2,5.6,5.5,7.7l63.9,36.9c7.4,4.3,19.5,4.3,26.9,0l63.9-36.9c3.5-2,5.4-4.7,5.5-7.5c0-0.1,0-0.2,0-0.3l0-0.4l0,0v-21.5
						l-3.6-2c-1.3,6.6-9.1,11.2-16,12.2l-45.8,26.8l-20.1,7.3l-0.1,0l-64.2-33.1l1.5-0.8c-4.9-2.5-7.8-7.6-10.5-12.6l-0.5-0.8
						l-4.2,2.5L165,329.5z"/>
				</g>
				<g>
					<g>
						<g>
							<path class="st7" d="M331.1,331.9v-14.5l-4-2.2c-1.1,6.8-9.2,11.3-15.9,12.3l-45.8,26.8l-20,7.2l-63.8-32.9l1.5-0.9
								c-5.5-2.5-8.4-8.4-11.3-13.7l-4.3,2.6l-2.6,0.7v14.9h0c0,2.8,1.9,5.7,5.6,7.8l63.9,36.9c7.5,4.3,19.7,4.3,27.2,0l63.9-36.9
								c3.7-2.1,5.6-4.9,5.6-7.7C331.1,332.2,331.1,332.1,331.1,331.9L331.1,331.9z"/>
							<path class="st8" d="M247.9,380.4c-5,0-9.9-1.1-13.7-3.3l-63.9-36.9c-3.7-2.1-5.7-5-5.7-8l0-15l2.7-0.8l4.5-2.7l0.7,1.2
								c2.8,5,5.6,10.2,10.7,12.6l0.4,0.2l-1.5,0.9l63.4,32.7l19.9-7.2l45.9-26.8c6.8-0.9,14.6-5.5,15.7-12.1l0-0.3l4.4,2.4l0,14.9
								c0,0,0,0.1,0,0.1c-0.1,3-2.1,5.8-5.7,7.9l-63.9,36.9C257.8,379.3,252.9,380.4,247.9,380.4z M165,317.5v14.7
								c0,2.9,2,5.6,5.5,7.7l63.9,36.9c7.4,4.3,19.5,4.3,26.9,0l63.9-36.9c3.5-2,5.4-4.7,5.5-7.5c0-0.1,0-0.2,0-0.3l0-0.4l0,0v-14.1
								l-3.6-2c-1.3,6.6-9.1,11.2-16,12.2l-45.8,26.8l-20.1,7.3l-0.1,0l-64.2-33.1l1.5-0.8c-4.9-2.5-7.8-7.6-10.5-12.6l-0.5-0.8
								l-4.2,2.5L165,317.5z"/>
						</g>
						<g class="st10">
							<path class="st7" d="M311.2,327.5l-45.8,26.8l-17.4,6.3v19.6c4.9,0,9.8-1.1,13.6-3.2l63.9-36.9c3.7-2.1,5.6-4.9,5.6-7.7
								c0-0.1,0-0.2,0-0.4l0,0v-14.5l-3.7-2H327C325.8,322.1,317.8,326.6,311.2,327.5z"/>
							<path class="st8" d="M247.9,380.4h-0.2v-19.9l0.1,0l17.4-6.3l45.9-26.8c6.7-0.9,14.5-5.4,15.7-11.9l0-0.2h0.6l3.8,2.1l0,14.9
								c0,0,0,0.1,0,0.1c-0.1,3-2.1,5.8-5.7,7.9l-63.9,36.9C258,379.2,253.1,380.4,247.9,380.4z M248.1,360.7V380
								c5,0,9.7-1.2,13.3-3.2l63.9-36.9c3.5-2,5.4-4.7,5.5-7.5c0-0.1,0-0.2,0-0.3l0-0.4l0,0v-14.1l-3.5-2h-0.2
								c-1.3,6.6-9.2,11.1-16,12.1l-45.8,26.8L248.1,360.7z"/>
						</g>
						<g>
							<g>
								<path class="st7" d="M234.4,362.2l-63.9-36.9c-7.5-4.3-7.5-11.4,0-15.7l63.9-36.9c7.5-4.3,19.7-4.3,27.2,0l63.9,36.9
									c7.5,4.3,7.5,11.4,0,15.7l-63.9,36.9C254,366.5,241.8,366.5,234.4,362.2z"/>
								<path class="st8" d="M247.9,365.6c-5,0-9.9-1.1-13.7-3.3l-63.9-36.9c-3.7-2.1-5.7-5-5.7-8s2-5.9,5.7-8l63.9-36.9
									c7.5-4.4,19.8-4.4,27.4,0l63.9,36.9c3.7,2.1,5.7,5,5.7,8c0,3-2,5.9-5.7,8l-63.9,36.9C257.8,364.6,252.9,365.6,247.9,365.6z
									 M247.9,269.7c-4.9,0-9.8,1.1-13.5,3.2l-63.9,36.9c-3.6,2.1-5.5,4.8-5.5,7.7s2,5.6,5.5,7.7l63.9,36.9
									c7.4,4.3,19.5,4.3,26.9,0l63.9-36.9c3.6-2.1,5.5-4.8,5.5-7.7c0-2.9-2-5.6-5.5-7.7l-63.9-36.9
									C257.7,270.7,252.8,269.7,247.9,269.7z"/>
							</g>
						</g>
						<g>
							<g>
								<path class="st7" d="M234.4,362.2l-63.9-36.9c-7.5-4.3-7.5-11.4,0-15.7l63.9-36.9c7.5-4.3,19.7-4.3,27.2,0l63.9,36.9
									c7.5,4.3,7.5,11.4,0,15.7l-63.9,36.9C254,366.5,241.8,366.5,234.4,362.2z"/>
								<path class="st8" d="M247.9,365.6c-5,0-9.9-1.1-13.7-3.3l-63.9-36.9c-3.7-2.1-5.7-5-5.7-8s2-5.9,5.7-8l63.9-36.9
									c7.5-4.4,19.8-4.4,27.4,0l63.9,36.9c3.7,2.1,5.7,5,5.7,8c0,3-2,5.9-5.7,8l-63.9,36.9C257.8,364.6,252.9,365.6,247.9,365.6z
									 M247.9,269.7c-4.9,0-9.8,1.1-13.5,3.2l-63.9,36.9c-3.6,2.1-5.5,4.8-5.5,7.7s2,5.6,5.5,7.7l63.9,36.9
									c7.4,4.3,19.5,4.3,26.9,0l63.9-36.9c3.6-2.1,5.5-4.8,5.5-7.7c0-2.9-2-5.6-5.5-7.7l-63.9-36.9
									C257.7,270.7,252.8,269.7,247.9,269.7z"/>
							</g>
						</g>
						<g class="st11">
							<g>
								<path class="st7" d="M234.4,362.2l-63.9-36.9c-7.5-4.3-7.5-11.4,0-15.7l63.9-36.9c7.5-4.3,19.7-4.3,27.2,0l63.9,36.9
									c7.5,4.3,7.5,11.4,0,15.7l-63.9,36.9C254,366.5,241.8,366.5,234.4,362.2z"/>
								<path class="st8" d="M247.9,365.6c-5,0-9.9-1.1-13.7-3.3l-63.9-36.9c-3.7-2.1-5.7-5-5.7-8s2-5.9,5.7-8l63.9-36.9
									c7.5-4.4,19.8-4.4,27.4,0l63.9,36.9c3.7,2.1,5.7,5,5.7,8c0,3-2,5.9-5.7,8l-63.9,36.9C257.8,364.6,252.9,365.6,247.9,365.6z
									 M247.9,269.7c-4.9,0-9.8,1.1-13.5,3.2l-63.9,36.9c-3.6,2.1-5.5,4.8-5.5,7.7s2,5.6,5.5,7.7l63.9,36.9
									c7.4,4.3,19.5,4.3,26.9,0l63.9-36.9c3.6-2.1,5.5-4.8,5.5-7.7c0-2.9-2-5.6-5.5-7.7l-63.9-36.9
									C257.7,270.7,252.8,269.7,247.9,269.7z"/>
							</g>
						</g>
						<g>
							<g>
								<path class="st7" d="M325.5,325.3l-63.9,36.9c-7.5,4.3-19.7,4.3-27.2,0l-63.9-36.9c-3.3-1.9-5.2-4.4-5.5-6.9
									c-0.4,3.1,1.4,6.4,5.5,8.7l63.9,36.9c7.5,4.3,19.7,4.3,27.2,0l63.9-36.9c4.1-2.4,6-5.6,5.5-8.7
									C330.6,320.9,328.8,323.4,325.5,325.3z"/>
								<path class="st8" d="M247.9,367.5c-5,0-9.9-1.1-13.7-3.3l-63.9-36.9c-4.1-2.3-6.1-5.6-5.6-8.9h0.4c0.4,2.6,2.3,5,5.4,6.8
									l63.9,36.9c7.4,4.3,19.5,4.3,26.9,0l63.9-36.9c3.2-1.8,5.1-4.2,5.4-6.8h0.4c0.5,3.3-1.6,6.6-5.6,8.9l-63.9,36.9
									C257.9,366.4,252.9,367.5,247.9,367.5z M165,319.9c0.3,2.6,2.2,5.2,5.5,7.1l63.9,36.9c7.4,4.3,19.5,4.3,26.9,0l63.9-36.9
									c3.3-1.9,5.2-4.4,5.5-7.1c-0.8,2.1-2.6,4.1-5.3,5.6l-63.9,36.9c-7.5,4.4-19.8,4.4-27.4,0l-63.9-36.9
									C167.7,323.9,165.8,322,165,319.9z"/>
							</g>
						</g>
					</g>
				</g>
			</g>
		</g>
	</g>
</g>
<linearGradient id="SVGID_1_" gradientUnits="userSpaceOnUse" x1="-1211.0199" y1="1178.7827" x2="-1212.3932" y2="999.8685" gradientTransform="matrix(1 0.5774 0 1 1455.053 -149.5219)">
	<stop  offset="0" style="stop-color:#52C7EA;stop-opacity:0"/>
	<stop  offset="0.701" style="stop-color:#52C7EA"/>
</linearGradient>
<polygon class="st12" points="252.7,331 234,320.2 234,143.5 252.7,154.3 "/>
<g>
	
		<linearGradient id="SVGID_2_" gradientUnits="userSpaceOnUse" x1="-1211.7659" y1="1154.6996" x2="-1215.1003" y2="1005.0665" gradientTransform="matrix(1 0.5774 0 1 1455.053 -149.5219)">
		<stop  offset="0" style="stop-color:#52C7EA;stop-opacity:0"/>
		<stop  offset="0.701" style="stop-color:#52C7EA"/>
	</linearGradient>
	<path class="st13" d="M246,307.9c0.3,0.2,0.6,0.4,0.9,0.8c0.3,0.4,0.4,0.7,0.4,1l-7.1-4.1v0.3l-0.2-0.1c0-0.1-0.1-0.3-0.3-0.6
		c-0.2-0.2-0.3-0.4-0.5-0.5v-0.7L246,307.9z"/>
	
		<linearGradient id="SVGID_3_" gradientUnits="userSpaceOnUse" x1="-1211.5256" y1="1154.6942" x2="-1214.8601" y2="1005.0612" gradientTransform="matrix(1 0.5774 0 1 1455.053 -149.5219)">
		<stop  offset="0" style="stop-color:#52C7EA;stop-opacity:0"/>
		<stop  offset="0.701" style="stop-color:#52C7EA"/>
	</linearGradient>
	<path class="st14" d="M245.4,295.5c0.6,0.3,1,0.8,1.4,1.4c0.4,0.6,0.6,1.2,0.6,1.8c0,0.5-0.2,0.9-0.5,1.1c-0.4,0.3-0.9,0.3-1.5-0.1
		l-3.9-2.2c-0.7-0.4-1.2-0.9-1.6-1.5c-0.4-0.6-0.6-1.2-0.6-1.9c0-1.4,0.7-1.7,2.2-0.8L245.4,295.5z M244.8,295.9l-2.8-1.6
		c-1.1-0.6-1.7-0.5-1.7,0.4c0,0.9,0.6,1.7,1.7,2.4l2.8,1.6c0.4,0.3,0.8,0.3,1.1,0.3c0.3-0.1,0.5-0.3,0.5-0.8c0-0.4-0.2-0.9-0.5-1.3
		C245.6,296.5,245.2,296.1,244.8,295.9z"/>
	
		<linearGradient id="SVGID_4_" gradientUnits="userSpaceOnUse" x1="-1211.3472" y1="1154.6903" x2="-1214.6816" y2="1005.0572" gradientTransform="matrix(1 0.5774 0 1 1455.053 -149.5219)">
		<stop  offset="0" style="stop-color:#52C7EA;stop-opacity:0"/>
		<stop  offset="0.701" style="stop-color:#52C7EA"/>
	</linearGradient>
	<path class="st15" d="M246,289.1c0.3,0.2,0.6,0.4,0.9,0.8c0.3,0.4,0.4,0.7,0.4,1l-7.1-4.1v0.3l-0.2-0.1c0-0.1-0.1-0.3-0.3-0.6
		c-0.2-0.2-0.3-0.4-0.5-0.5v-0.7L246,289.1z"/>
	
		<linearGradient id="SVGID_5_" gradientUnits="userSpaceOnUse" x1="-1211.1779" y1="1154.6865" x2="-1214.5122" y2="1005.0534" gradientTransform="matrix(1 0.5774 0 1 1455.053 -149.5219)">
		<stop  offset="0" style="stop-color:#52C7EA;stop-opacity:0"/>
		<stop  offset="0.701" style="stop-color:#52C7EA"/>
	</linearGradient>
	<path class="st16" d="M245.4,279.9c0.6,0.3,1,0.8,1.4,1.4c0.4,0.6,0.6,1.2,0.6,1.8c0,0.5-0.2,0.9-0.5,1.1c-0.4,0.3-0.9,0.3-1.5-0.1
		l-3.9-2.2c-0.7-0.4-1.2-0.9-1.6-1.5c-0.4-0.6-0.6-1.2-0.6-1.9c0-1.4,0.7-1.7,2.2-0.8L245.4,279.9z M244.8,280.3l-2.8-1.6
		c-1.1-0.6-1.7-0.5-1.7,0.4c0,0.9,0.6,1.7,1.7,2.4l2.8,1.6c0.4,0.3,0.8,0.3,1.1,0.3c0.3-0.1,0.5-0.3,0.5-0.8c0-0.4-0.2-0.9-0.5-1.3
		C245.6,280.9,245.2,280.5,244.8,280.3z"/>
	
		<linearGradient id="SVGID_6_" gradientUnits="userSpaceOnUse" x1="-1210.9803" y1="1154.6821" x2="-1214.3148" y2="1005.049" gradientTransform="matrix(1 0.5774 0 1 1455.053 -149.5219)">
		<stop  offset="0" style="stop-color:#52C7EA;stop-opacity:0"/>
		<stop  offset="0.701" style="stop-color:#52C7EA"/>
	</linearGradient>
	<path class="st17" d="M245.4,271.1c0.6,0.3,1,0.8,1.4,1.4c0.4,0.6,0.6,1.2,0.6,1.8c0,0.5-0.2,0.9-0.5,1.1c-0.4,0.3-0.9,0.3-1.5-0.1
		l-3.9-2.2c-0.7-0.4-1.2-0.9-1.6-1.5c-0.4-0.6-0.6-1.2-0.6-1.9c0-1.4,0.7-1.7,2.2-0.8L245.4,271.1z M244.8,271.4l-2.8-1.6
		c-1.1-0.6-1.7-0.5-1.7,0.4c0,0.9,0.6,1.7,1.7,2.4l2.8,1.6c0.4,0.3,0.8,0.3,1.1,0.3c0.3-0.1,0.5-0.3,0.5-0.8c0-0.4-0.2-0.9-0.5-1.3
		C245.6,272,245.2,271.7,244.8,271.4z"/>
	
		<linearGradient id="SVGID_7_" gradientUnits="userSpaceOnUse" x1="-1210.8196" y1="1154.6785" x2="-1214.1541" y2="1005.0455" gradientTransform="matrix(1 0.5774 0 1 1455.053 -149.5219)">
		<stop  offset="0" style="stop-color:#52C7EA;stop-opacity:0"/>
		<stop  offset="0.701" style="stop-color:#52C7EA"/>
	</linearGradient>
	<path class="st18" d="M246,265.5c0.3,0.2,0.6,0.4,0.9,0.8c0.3,0.4,0.4,0.7,0.4,1l-7.1-4.1v0.3l-0.2-0.1c0-0.1-0.1-0.3-0.3-0.6
		c-0.2-0.2-0.3-0.4-0.5-0.5v-0.7L246,265.5z"/>
	
		<linearGradient id="SVGID_8_" gradientUnits="userSpaceOnUse" x1="-1210.7047" y1="1154.6759" x2="-1214.0391" y2="1005.0429" gradientTransform="matrix(1 0.5774 0 1 1455.053 -149.5219)">
		<stop  offset="0" style="stop-color:#52C7EA;stop-opacity:0"/>
		<stop  offset="0.701" style="stop-color:#52C7EA"/>
	</linearGradient>
	<path class="st19" d="M246,260.3c0.3,0.2,0.6,0.4,0.9,0.8c0.3,0.4,0.4,0.7,0.4,1l-7.1-4.1v0.3l-0.2-0.1c0-0.1-0.1-0.3-0.3-0.6
		c-0.2-0.2-0.3-0.4-0.5-0.5v-0.7L246,260.3z"/>
	
		<linearGradient id="SVGID_9_" gradientUnits="userSpaceOnUse" x1="-1210.5897" y1="1154.6733" x2="-1213.9242" y2="1005.0403" gradientTransform="matrix(1 0.5774 0 1 1455.053 -149.5219)">
		<stop  offset="0" style="stop-color:#52C7EA;stop-opacity:0"/>
		<stop  offset="0.701" style="stop-color:#52C7EA"/>
	</linearGradient>
	<path class="st20" d="M246,255.1c0.3,0.2,0.6,0.4,0.9,0.8c0.3,0.4,0.4,0.7,0.4,1l-7.1-4.1v0.3l-0.2-0.1c0-0.1-0.1-0.3-0.3-0.6
		c-0.2-0.2-0.3-0.4-0.5-0.5v-0.7L246,255.1z"/>
	
		<linearGradient id="SVGID_10_" gradientUnits="userSpaceOnUse" x1="-1210.4747" y1="1154.6708" x2="-1213.8092" y2="1005.0378" gradientTransform="matrix(1 0.5774 0 1 1455.053 -149.5219)">
		<stop  offset="0" style="stop-color:#52C7EA;stop-opacity:0"/>
		<stop  offset="0.701" style="stop-color:#52C7EA"/>
	</linearGradient>
	<path class="st21" d="M246,250c0.3,0.2,0.6,0.4,0.9,0.8c0.3,0.4,0.4,0.7,0.4,1l-7.1-4.1v0.3l-0.2-0.1c0-0.1-0.1-0.3-0.3-0.6
		c-0.2-0.2-0.3-0.4-0.5-0.5v-0.7L246,250z"/>
	
		<linearGradient id="SVGID_11_" gradientUnits="userSpaceOnUse" x1="-1210.3599" y1="1154.6682" x2="-1213.6943" y2="1005.0352" gradientTransform="matrix(1 0.5774 0 1 1455.053 -149.5219)">
		<stop  offset="0" style="stop-color:#52C7EA;stop-opacity:0"/>
		<stop  offset="0.701" style="stop-color:#52C7EA"/>
	</linearGradient>
	<path class="st22" d="M246,244.8c0.3,0.2,0.6,0.4,0.9,0.8c0.3,0.4,0.4,0.7,0.4,1l-7.1-4.1v0.3l-0.2-0.1c0-0.1-0.1-0.3-0.3-0.6
		c-0.2-0.2-0.3-0.4-0.5-0.5V241L246,244.8z"/>
	
		<linearGradient id="SVGID_12_" gradientUnits="userSpaceOnUse" x1="-1210.2083" y1="1154.6649" x2="-1213.5426" y2="1005.0318" gradientTransform="matrix(1 0.5774 0 1 1455.053 -149.5219)">
		<stop  offset="0" style="stop-color:#52C7EA;stop-opacity:0"/>
		<stop  offset="0.701" style="stop-color:#52C7EA"/>
	</linearGradient>
	<path class="st23" d="M245.4,236.4c0.6,0.3,1,0.8,1.4,1.4s0.6,1.2,0.6,1.8c0,0.5-0.2,0.9-0.5,1.1c-0.4,0.3-0.9,0.3-1.5-0.1
		l-3.9-2.2c-0.7-0.4-1.2-0.9-1.6-1.5c-0.4-0.6-0.6-1.2-0.6-1.9c0-1.4,0.7-1.7,2.2-0.8L245.4,236.4z M244.8,236.7l-2.8-1.6
		c-1.1-0.6-1.7-0.5-1.7,0.4c0,0.9,0.6,1.7,1.7,2.4l2.8,1.6c0.4,0.3,0.8,0.3,1.1,0.3c0.3-0.1,0.5-0.3,0.5-0.8c0-0.4-0.2-0.9-0.5-1.3
		C245.6,237.3,245.2,237,244.8,236.7z"/>
	
		<linearGradient id="SVGID_13_" gradientUnits="userSpaceOnUse" x1="-1210.0284" y1="1154.6609" x2="-1213.3629" y2="1005.0278" gradientTransform="matrix(1 0.5774 0 1 1455.053 -149.5219)">
		<stop  offset="0" style="stop-color:#52C7EA;stop-opacity:0"/>
		<stop  offset="0.701" style="stop-color:#52C7EA"/>
	</linearGradient>
	<path class="st24" d="M245.4,228.3c0.6,0.3,1,0.8,1.4,1.4s0.6,1.2,0.6,1.8c0,0.5-0.2,0.9-0.5,1.1c-0.4,0.3-0.9,0.3-1.5-0.1
		l-3.9-2.2c-0.7-0.4-1.2-0.9-1.6-1.5s-0.6-1.2-0.6-1.9c0-1.4,0.7-1.7,2.2-0.8L245.4,228.3z M244.8,228.7L242,227
		c-1.1-0.6-1.7-0.5-1.7,0.4c0,0.9,0.6,1.7,1.7,2.4l2.8,1.6c0.4,0.3,0.8,0.3,1.1,0.3c0.3-0.1,0.5-0.3,0.5-0.8c0-0.4-0.2-0.9-0.5-1.3
		C245.6,229.3,245.2,228.9,244.8,228.7z"/>
	
		<linearGradient id="SVGID_14_" gradientUnits="userSpaceOnUse" x1="-1209.8488" y1="1154.6569" x2="-1213.1832" y2="1005.0238" gradientTransform="matrix(1 0.5774 0 1 1455.053 -149.5219)">
		<stop  offset="0" style="stop-color:#52C7EA;stop-opacity:0"/>
		<stop  offset="0.701" style="stop-color:#52C7EA"/>
	</linearGradient>
	<path class="st25" d="M245.4,220.2c0.6,0.3,1,0.8,1.4,1.4s0.6,1.2,0.6,1.8c0,0.5-0.2,0.9-0.5,1.1c-0.4,0.3-0.9,0.3-1.5-0.1
		l-3.9-2.2c-0.7-0.4-1.2-0.9-1.6-1.5s-0.6-1.2-0.6-1.9c0-1.4,0.7-1.7,2.2-0.8L245.4,220.2z M244.8,220.6L242,219
		c-1.1-0.6-1.7-0.5-1.7,0.4s0.6,1.7,1.7,2.4l2.8,1.6c0.4,0.3,0.8,0.3,1.1,0.3c0.3-0.1,0.5-0.3,0.5-0.8c0-0.4-0.2-0.9-0.5-1.3
		C245.6,221.2,245.2,220.9,244.8,220.6z"/>
	
		<linearGradient id="SVGID_15_" gradientUnits="userSpaceOnUse" x1="-1209.6689" y1="1154.6528" x2="-1213.0034" y2="1005.0198" gradientTransform="matrix(1 0.5774 0 1 1455.053 -149.5219)">
		<stop  offset="0" style="stop-color:#52C7EA;stop-opacity:0"/>
		<stop  offset="0.701" style="stop-color:#52C7EA"/>
	</linearGradient>
	<path class="st26" d="M245.4,212.2c0.6,0.3,1,0.8,1.4,1.4s0.6,1.2,0.6,1.8c0,0.5-0.2,0.9-0.5,1.1c-0.4,0.3-0.9,0.3-1.5-0.1
		l-3.9-2.2c-0.7-0.4-1.2-0.9-1.6-1.5c-0.4-0.6-0.6-1.2-0.6-1.9c0-1.4,0.7-1.7,2.2-0.8L245.4,212.2z M244.8,212.5l-2.8-1.6
		c-1.1-0.6-1.7-0.5-1.7,0.4c0,0.9,0.6,1.7,1.7,2.4l2.8,1.6c0.4,0.3,0.8,0.3,1.1,0.3c0.3-0.1,0.5-0.3,0.5-0.8c0-0.4-0.2-0.9-0.5-1.3
		C245.6,213.1,245.2,212.8,244.8,212.5z"/>
	
		<linearGradient id="SVGID_16_" gradientUnits="userSpaceOnUse" x1="-1209.526" y1="1154.6497" x2="-1212.8604" y2="1005.0166" gradientTransform="matrix(1 0.5774 0 1 1455.053 -149.5219)">
		<stop  offset="0" style="stop-color:#52C7EA;stop-opacity:0"/>
		<stop  offset="0.701" style="stop-color:#52C7EA"/>
	</linearGradient>
	<path class="st27" d="M246,207.4c0.3,0.2,0.6,0.4,0.9,0.8c0.3,0.4,0.4,0.7,0.4,1l-7.1-4.1v0.3l-0.2-0.1c0-0.1-0.1-0.3-0.3-0.6
		c-0.2-0.2-0.3-0.4-0.5-0.5v-0.7L246,207.4z"/>
	
		<linearGradient id="SVGID_17_" gradientUnits="userSpaceOnUse" x1="-1209.3744" y1="1154.6464" x2="-1212.7087" y2="1005.0132" gradientTransform="matrix(1 0.5774 0 1 1455.053 -149.5219)">
		<stop  offset="0" style="stop-color:#52C7EA;stop-opacity:0"/>
		<stop  offset="0.701" style="stop-color:#52C7EA"/>
	</linearGradient>
	<path class="st28" d="M245.4,198.9c0.6,0.3,1,0.8,1.4,1.4s0.6,1.2,0.6,1.8c0,0.5-0.2,0.9-0.5,1.1c-0.4,0.3-0.9,0.3-1.5-0.1
		l-3.9-2.2c-0.7-0.4-1.2-0.9-1.6-1.5s-0.6-1.2-0.6-1.9c0-1.4,0.7-1.7,2.2-0.8L245.4,198.9z M244.8,199.3l-2.8-1.6
		c-1.1-0.6-1.7-0.5-1.7,0.4c0,0.9,0.6,1.7,1.7,2.4l2.8,1.6c0.4,0.3,0.8,0.3,1.1,0.3c0.3-0.1,0.5-0.3,0.5-0.8c0-0.4-0.2-0.9-0.5-1.3
		C245.6,199.9,245.2,199.6,244.8,199.3z"/>
	
		<linearGradient id="SVGID_18_" gradientUnits="userSpaceOnUse" x1="-1209.2313" y1="1154.6431" x2="-1212.5657" y2="1005.0101" gradientTransform="matrix(1 0.5774 0 1 1455.053 -149.5219)">
		<stop  offset="0" style="stop-color:#52C7EA;stop-opacity:0"/>
		<stop  offset="0.701" style="stop-color:#52C7EA"/>
	</linearGradient>
	<path class="st29" d="M246,194.1c0.3,0.2,0.6,0.4,0.9,0.8c0.3,0.4,0.4,0.7,0.4,1l-7.1-4.1v0.3l-0.2-0.1c0-0.1-0.1-0.3-0.3-0.6
		c-0.2-0.2-0.3-0.4-0.5-0.5v-0.7L246,194.1z"/>
	
		<linearGradient id="SVGID_19_" gradientUnits="userSpaceOnUse" x1="-1209.0797" y1="1154.6398" x2="-1212.4141" y2="1005.0067" gradientTransform="matrix(1 0.5774 0 1 1455.053 -149.5219)">
		<stop  offset="0" style="stop-color:#52C7EA;stop-opacity:0"/>
		<stop  offset="0.701" style="stop-color:#52C7EA"/>
	</linearGradient>
	<path class="st30" d="M245.4,185.7c0.6,0.3,1,0.8,1.4,1.4s0.6,1.2,0.6,1.8c0,0.5-0.2,0.9-0.5,1.1c-0.4,0.3-0.9,0.3-1.5-0.1
		l-3.9-2.2c-0.7-0.4-1.2-0.9-1.6-1.5c-0.4-0.6-0.6-1.2-0.6-1.9c0-1.4,0.7-1.7,2.2-0.8L245.4,185.7z M244.8,186.1l-2.8-1.6
		c-1.1-0.6-1.7-0.5-1.7,0.4c0,0.9,0.6,1.7,1.7,2.4l2.8,1.6c0.4,0.3,0.8,0.3,1.1,0.3c0.3-0.1,0.5-0.3,0.5-0.8c0-0.4-0.2-0.9-0.5-1.3
		C245.6,186.7,245.2,186.3,244.8,186.1z"/>
	
		<linearGradient id="SVGID_20_" gradientUnits="userSpaceOnUse" x1="-1208.9366" y1="1154.6366" x2="-1212.271" y2="1005.0035" gradientTransform="matrix(1 0.5774 0 1 1455.053 -149.5219)">
		<stop  offset="0" style="stop-color:#52C7EA;stop-opacity:0"/>
		<stop  offset="0.701" style="stop-color:#52C7EA"/>
	</linearGradient>
	<path class="st31" d="M246,180.9c0.3,0.2,0.6,0.4,0.9,0.8c0.3,0.4,0.4,0.7,0.4,1l-7.1-4.1v0.3l-0.2-0.1c0-0.1-0.1-0.3-0.3-0.6
		c-0.2-0.2-0.3-0.4-0.5-0.5v-0.7L246,180.9z"/>
	
		<linearGradient id="SVGID_21_" gradientUnits="userSpaceOnUse" x1="-1208.785" y1="1154.6332" x2="-1212.1194" y2="1005.0001" gradientTransform="matrix(1 0.5774 0 1 1455.053 -149.5219)">
		<stop  offset="0" style="stop-color:#52C7EA;stop-opacity:0"/>
		<stop  offset="0.701" style="stop-color:#52C7EA"/>
	</linearGradient>
	<path class="st32" d="M245.4,172.5c0.6,0.3,1,0.8,1.4,1.4s0.6,1.2,0.6,1.8c0,0.5-0.2,0.9-0.5,1.1c-0.4,0.3-0.9,0.3-1.5-0.1
		l-3.9-2.2c-0.7-0.4-1.2-0.9-1.6-1.5s-0.6-1.2-0.6-1.9c0-1.4,0.7-1.7,2.2-0.8L245.4,172.5z M244.8,172.8l-2.8-1.6
		c-1.1-0.6-1.7-0.5-1.7,0.4c0,0.9,0.6,1.7,1.7,2.4l2.8,1.6c0.4,0.3,0.8,0.3,1.1,0.3c0.3-0.1,0.5-0.3,0.5-0.8c0-0.4-0.2-0.9-0.5-1.3
		C245.6,173.4,245.2,173.1,244.8,172.8z"/>
	
		<linearGradient id="SVGID_22_" gradientUnits="userSpaceOnUse" x1="-1208.642" y1="1154.63" x2="-1211.9763" y2="1004.9969" gradientTransform="matrix(1 0.5774 0 1 1455.053 -149.5219)">
		<stop  offset="0" style="stop-color:#52C7EA;stop-opacity:0"/>
		<stop  offset="0.701" style="stop-color:#52C7EA"/>
	</linearGradient>
	<path class="st33" d="M246,167.7c0.3,0.2,0.6,0.4,0.9,0.8c0.3,0.4,0.4,0.7,0.4,1l-7.1-4.1v0.3l-0.2-0.1c0-0.1-0.1-0.3-0.3-0.6
		c-0.2-0.2-0.3-0.4-0.5-0.5v-0.7L246,167.7z"/>
	
		<linearGradient id="SVGID_23_" gradientUnits="userSpaceOnUse" x1="-1208.527" y1="1154.6274" x2="-1211.8615" y2="1004.9944" gradientTransform="matrix(1 0.5774 0 1 1455.053 -149.5219)">
		<stop  offset="0" style="stop-color:#52C7EA;stop-opacity:0"/>
		<stop  offset="0.701" style="stop-color:#52C7EA"/>
	</linearGradient>
	<path class="st34" d="M246,162.5c0.3,0.2,0.6,0.4,0.9,0.8c0.3,0.4,0.4,0.7,0.4,1l-7.1-4.1v0.3l-0.2-0.1c0-0.1-0.1-0.3-0.3-0.6
		c-0.2-0.2-0.3-0.4-0.5-0.5v-0.7L246,162.5z"/>
</g>
<g>
	<path class="st35" d="M162.7,129.3l33.6-19.5l0,0c5-3,12-2.6,19.7,1.8c2.5,1.5,4.9,3.3,7.3,5.3l13.5-7.8l0,0
		c7.4-5.2,18.2-5,30.1,1.9c15.1,8.7,28.3,25.9,35.3,44.1c2.3,0.1,4.9,0.8,7.6,2.4c9.9,5.7,17.9,19.6,17.9,31c0,0.2,0,0.5,0,0.7
		c2.8,0.2,5.9,1.2,9.2,3.1c12.6,7.3,22.9,25,22.9,39.6c0,7.2-2.5,12.3-6.6,14.7l0,0l-0.1,0.1c0,0,0,0,0,0l-33.1,19.2l-7.2-34.8
		l-96.7-55.8c-12.4-7.1-22.8-22.6-26.3-37.5L162.7,129.3z"/>
	<g>
		<g>
			<g>
				<g>
					<path class="st36" d="M182.7,131c4.3,2.5,8.4,6,12.1,10.2c5.1-16.3,20.5-21.3,38.8-10.8c15.1,8.7,28.3,25.9,35.3,44.1
						c2.3,0.1,4.9,0.8,7.6,2.4c9.9,5.7,17.9,19.6,17.9,31c0,0.2,0,0.5,0,0.7c2.8,0.2,5.9,1.2,9.2,3.1c12.6,7.3,22.9,25,22.9,39.6
						c0,14.6-10.2,20.5-22.9,13.2l-120.9-69.8c-15.3-8.8-27.6-30.2-27.6-47.8C155.1,129.3,167.5,122.2,182.7,131z"/>
					<path class="st2" d="M313.8,268.5c-3.3,0-6.9-1.1-10.6-3.2l-120.9-69.8c-15.5-8.9-28-30.7-28-48.5c0-8.8,3-15.4,8.5-18.6
						c5.5-3.2,12.7-2.5,20.4,1.9c4,2.3,7.8,5.4,11.3,9.3c2.5-6.9,6.9-11.7,12.8-14c7.5-2.9,17-1.5,26.8,4.2
						c14.6,8.4,28.2,25.3,35.5,44.1c2.4,0.2,4.9,1,7.5,2.5c10.1,5.8,18.3,20,18.3,31.7c2.8,0.3,5.7,1.4,8.8,3.1
						c12.8,7.4,23.3,25.5,23.3,40.3c0,7.4-2.5,12.9-7.1,15.5C318.3,268,316.2,268.5,313.8,268.5z M170.4,128c-2.5,0-4.8,0.6-6.8,1.7
						c-4.9,2.9-7.7,9-7.7,17.2c0,17.3,12.2,38.5,27.2,47.1L304,263.8c5.8,3.4,11.3,3.9,15.3,1.6c4.1-2.3,6.3-7.3,6.3-14.1
						c0-14.3-10.1-31.8-22.5-38.9c-3.1-1.8-6.1-2.8-8.9-3l-0.8-0.1l0-1.1c0-0.1,0-0.2,0-0.4c0-11.1-7.8-24.7-17.5-30.3
						c-2.5-1.5-4.9-2.2-7.2-2.3l-0.5,0l-0.2-0.5c-7.1-18.6-20.5-35.4-35-43.7c-9.3-5.4-18.3-6.8-25.3-4.1
						c-5.8,2.3-10.1,7.2-12.3,14.4l-0.4,1.4l-1-1.1c-3.7-4.3-7.7-7.6-11.9-10l0,0C178.1,129.2,174,128,170.4,128z"/>
				</g>
			</g>
		</g>
	</g>
</g>
<g id="Symbols">
	<g>
		<g class="st37">
			<defs>
				<polygon id="SVGID_24_" class="st37" points="202.6,192.2 202.7,135.2 249,161.9 248.9,219 				"/>
			</defs>
			<clipPath id="SVGID_25_">
				<use xlink:href="#SVGID_24_"  style="overflow:visible;"/>
			</clipPath>
			<g class="st38">
				<g>
					<g>
						<g>
							<path class="st4" d="M215.5,149.2c-0.6-0.3-1-0.1-1.1,0.6c0,0.7,0.5,1.5,1,1.8c0.6,0.3,1,0.1,1-0.6
								C216.6,150.4,216.1,149.6,215.5,149.2"/>
							<path class="st4" d="M215.5,163c-0.6-0.3-1-0.1-1,0.6c0,0.7,0.5,1.5,1,1.8c0.6,0.3,1,0.1,1.1-0.6
								C216.5,164.2,216.1,163.3,215.5,163"/>
							<path class="st4" d="M236.2,202.6c-0.6-0.3-1-0.1-1,0.6c0,0.7,0.5,1.5,1,1.8s1,0.1,1.1-0.6
								C237.2,203.7,236.7,202.9,236.2,202.6"/>
							<path class="st4" d="M205.1,163.9c-0.6-0.3-1-0.1-1.1,0.6c0,0.7,0.5,1.5,1,1.8c0.6,0.3,1,0.1,1-0.6
								C206.1,165.1,205.7,164.2,205.1,163.9"/>
							<path class="st4" d="M246.6,187.9c-0.6-0.3-1-0.1-1.1,0.6c0,0.7,0.5,1.5,1,1.8c0.6,0.3,1,0.1,1-0.6
								C247.7,189,247.2,188.2,246.6,187.9"/>
							<path class="st4" d="M236.3,161.2c-0.6-0.3-1-0.1-1,0.6c0,0.7,0.5,1.5,1,1.8c0.6,0.3,1,0.1,1.1-0.6
								C237.3,162.4,236.9,161.6,236.3,161.2"/>
							<path class="st4" d="M236.2,188.8c-0.6-0.3-1-0.1-1,0.6c0,0.7,0.5,1.5,1,1.8s1,0.1,1.1-0.6
								C237.3,189.9,236.8,189.1,236.2,188.8"/>
							<path class="st4" d="M215.5,176.8c-0.6-0.3-1-0.1-1,0.6c0,0.7,0.5,1.5,1,1.8c0.6,0.3,1,0.1,1.1-0.6
								C216.5,177.9,216,177.1,215.5,176.8"/>
							<path class="st4" d="M236.2,175c-0.6-0.3-1-0.1-1,0.6c0,0.7,0.5,1.5,1,1.8c0.6,0.3,1,0.1,1.1-0.6
								C237.3,176.2,236.8,175.4,236.2,175"/>
							<path class="st4" d="M225.8,189.7c-0.6-0.3-1-0.1-1,0.6s0.5,1.5,1,1.8c0.6,0.3,1,0.1,1.1-0.6
								C226.8,190.8,226.4,190,225.8,189.7"/>
							<path class="st4" d="M225.9,162.1c-0.6-0.3-1-0.1-1,0.6c0,0.7,0.5,1.5,1,1.8s1,0.1,1.1-0.6
								C226.9,163.3,226.5,162.5,225.9,162.1"/>
							<path class="st4" d="M215.4,190.6c-0.6-0.3-1-0.1-1.1,0.6c0,0.7,0.5,1.5,1,1.8c0.6,0.3,1,0.1,1-0.6
								C216.4,191.7,216,190.9,215.4,190.6"/>
							<path class="st2" d="M225.9,148.6c-2.8-1.6-5.6-2.2-8-1.4c-0.7,0.3-1.4,0.6-2,1.2c0.5,0.4,1,1.1,1.3,1.9
								c2.2-1.8,5.4-1.6,8.7,0.2c2.5,1.4,4.9,3.8,7,6.9c0.6,0.9,1.2,1.9,1.6,2.9c0.2-0.2,0.4-0.4,0.7-0.4c0.2,0,0.4,0,0.7,0.1
								C233.4,154.8,229.7,150.8,225.9,148.6"/>
							<path class="st2" d="M234.4,160.6c-3.2-1.3-6.1-1-8.1,0.7c0.6,0.4,1.1,1.1,1.4,1.9c1.7-1.5,4.1-1.7,6.8-0.6
								C234.2,161.8,234.2,161.1,234.4,160.6"/>
							<path class="st2" d="M217.4,150.8c0.1,0.3,0.1,0.6,0.1,0.8c0,0.4-0.1,0.7-0.3,1c1.3,1,2.6,2.3,3.8,3.7
								c1.2,1.5,2.2,3.1,3.1,4.8c0.2-0.2,0.4-0.4,0.7-0.4c0.2,0,0.4,0,0.6,0.1C223.5,156.8,220.6,153.1,217.4,150.8"/>
							<path class="st2" d="M237.8,164.8c-0.2,0.1-0.3,0.2-0.5,0.2c-0.3,0-0.6-0.1-1-0.3c1,3.5,1,6.7-0.1,9.1c0.6,0.3,1.1,1,1.5,1.7
								C239,172.8,239,169,237.8,164.8"/>
							<path class="st2" d="M227.8,163.7c0.2,0.7,0.1,1.4-0.1,1.8c2.7,2,5.1,5.1,6.8,8.5c0.3-0.4,0.8-0.5,1.4-0.3
								C233.9,169.7,231,166.1,227.8,163.7"/>
							<path class="st2" d="M238.2,162.7c0.2,0.7,0.1,1.4-0.1,1.8c0.4,0.3,0.7,0.6,1.1,0.9c5.9,5.3,9.4,14.3,7.8,20.2
								c-0.1,0.4-0.2,0.7-0.4,1.1c0.4,0.2,0.7,0.5,1,0.9c0.2,0.3,0.4,0.5,0.5,0.8c0.2-0.4,0.3-0.9,0.5-1.3c1.8-6.8-2.2-17.2-9-23.3
								C239.1,163.5,238.7,163.1,238.2,162.7"/>
							<path class="st2" d="M238.2,176.5c0.2,0.7,0.1,1.4-0.1,1.8c2.7,2,5.1,5,6.8,8.5c0.3-0.4,0.8-0.5,1.4-0.3
								c-1-2-2.2-3.9-3.6-5.6C241.3,179.2,239.7,177.7,238.2,176.5"/>
							<path class="st2" d="M244.9,189.3c-1.7,1.4-4.2,1.6-6.9,0.6c0.2,0.4,0.3,0.9,0.3,1.3c0,0.3,0,0.5-0.1,0.7
								c3.2,1.3,6.1,1,8.1-0.7C245.6,190.8,245.1,190.1,244.9,189.3"/>
							<path class="st2" d="M237.8,178.6c-0.4,0.3-0.9,0.3-1.5,0c1,3.5,0.9,6.7,0,9.1c0.6,0.4,1.1,1,1.5,1.7
								C239,186.6,239,182.8,237.8,178.6"/>
							<path class="st2" d="M237.8,192.4c-0.4,0.3-0.9,0.3-1.5,0c1,3.5,1,6.7,0,9.1c0.6,0.4,1.1,1,1.5,1.7
								C238.9,200.4,238.9,196.6,237.8,192.4"/>
							<path class="st2" d="M248.2,191.5c-0.4,0.3-0.9,0.3-1.5-0.1c0.1,0.5,0.3,1,0.4,1.4c1.6,7.8-2,12.8-7.9,11.2
								c-0.4-0.1-0.7-0.2-1.1-0.4c0.3,0.7,0.3,1.5,0.1,2c0.5,0.2,0.9,0.3,1.4,0.5c6.8,1.8,10.9-3.9,9.1-12.8
								C248.5,192.7,248.3,192.1,248.2,191.5"/>
							<path class="st2" d="M234.5,190.2c-1.7,1.4-4.2,1.6-6.9,0.6c0.3,0.7,0.3,1.5,0.1,2c3.2,1.3,6.1,1.1,8.1-0.7
								C235.3,191.6,234.8,190.9,234.5,190.2"/>
							<path class="st2" d="M227.6,193.1c-0.2,0.2-0.4,0.4-0.7,0.4c-0.2,0-0.4,0-0.6-0.1c2,4.1,4.9,7.7,8.1,10
								c-0.2-0.7-0.1-1.4,0.1-1.8c-1.3-1-2.6-2.3-3.8-3.7C229.4,196.4,228.4,194.8,227.6,193.1"/>
							<path class="st2" d="M224,191.1c-0.9,0.7-1.9,1.2-3.1,1.3c-1.2,0.1-2.5-0.1-3.8-0.6c0.3,0.7,0.3,1.5,0.1,2
								c3.2,1.3,6.1,1,8.1-0.7C224.8,192.5,224.3,191.8,224,191.1"/>
							<path class="st2" d="M234.4,204c-2.2,1.8-5.4,1.6-8.7-0.3c-2.5-1.4-4.9-3.8-7-6.9c-0.6-0.9-1.2-1.9-1.6-2.9
								c-0.2,0.2-0.4,0.4-0.7,0.4c-0.2,0-0.4,0-0.6-0.1c2.5,5.1,6.2,9.1,10,11.3c2.8,1.6,5.6,2.2,8,1.4c0.7-0.3,1.4-0.6,2-1.2
								C235.2,205.4,234.7,204.7,234.4,204"/>
							<path class="st2" d="M213.9,178.6c-1.2,2.8-1.2,6.6,0,10.8c0.1-0.1,0.3-0.2,0.5-0.2c0.3,0,0.6,0.1,1,0.3
								c-1-3.5-1-6.8,0.1-9.1c-0.4-0.2-0.7-0.5-1-0.9C214.2,179.2,214,178.9,213.9,178.6"/>
							<path class="st2" d="M217.2,180.2c-0.3,0.4-0.8,0.5-1.4,0.3c2,4.1,4.9,7.7,8.1,10.1c-0.2-0.7-0.2-1.4,0.1-1.8
								C221.3,186.7,218.9,183.6,217.2,180.2"/>
							<path class="st2" d="M213.6,148.5c-0.5-0.2-0.9-0.3-1.4-0.5c-6.8-1.8-10.9,3.9-9.1,12.8c0.1,0.6,0.3,1.2,0.4,1.8
								c0.4-0.3,0.9-0.3,1.5,0.1c-0.1-0.5-0.3-1-0.4-1.4c-1.6-7.8,2-12.8,7.9-11.1c0.4,0.1,0.7,0.2,1.1,0.4
								C213.4,149.8,213.4,149,213.6,148.5"/>
							<path class="st2" d="M206.8,167.4c-0.3,0.4-0.8,0.5-1.4,0.3c1,2,2.2,3.9,3.6,5.6c1.4,1.7,2.9,3.2,4.5,4.4
								c-0.2-0.8-0.2-1.4,0.1-1.9C211,173.8,208.5,170.8,206.8,167.4"/>
							<path class="st2" d="M203.5,165.7c-0.2,0.4-0.3,0.9-0.5,1.3c-1.9,6.8,2.2,17.2,9,23.3c0.5,0.4,0.9,0.8,1.4,1.2
								c-0.2-0.8-0.1-1.4,0.1-1.8c-0.4-0.3-0.7-0.6-1.1-0.9c-5.9-5.3-9.5-14.3-7.9-20.3c0.1-0.4,0.2-0.7,0.4-1
								c-0.3-0.2-0.7-0.5-1-0.9C203.8,166.3,203.7,166,203.5,165.7"/>
							<path class="st2" d="M214,151.1c-1.2,2.8-1.2,6.6,0,10.8c0.4-0.3,0.9-0.3,1.5,0c-1-3.5-1-6.7,0-9.1
								C214.9,152.4,214.3,151.8,214,151.1"/>
							<path class="st2" d="M213.6,162.4c-3.2-1.3-6.1-1.1-8.1,0.7c0.2,0.2,0.4,0.4,0.6,0.6c0.3,0.4,0.5,0.8,0.7,1.2
								c1.7-1.4,4.2-1.7,6.9-0.6c-0.2-0.4-0.3-0.9-0.3-1.3C213.5,162.8,213.5,162.6,213.6,162.4"/>
							<path class="st2" d="M224,161.4c-3.2-1.3-6.1-1-8.1,0.7c0.6,0.4,1.1,1.1,1.4,1.9c1.7-1.4,4.2-1.6,6.9-0.6
								C223.8,162.7,223.8,161.9,224,161.4"/>
							<path class="st2" d="M213.9,164.8c-1.2,2.8-1.2,6.6,0,10.7c0.4-0.3,0.9-0.3,1.5,0c-0.9-3.5-0.9-6.7,0-9.1
								C214.9,166.2,214.3,165.6,213.9,164.8"/>
						</g>
					</g>
				</g>
			</g>
		</g>
	</g>
</g>
<g>
	<path class="st35" d="M226.3,327.1L226.3,327.1L226.3,327.1l-15-2l-58.6,34.4c-14.9-4.6-33.8-3.2-46.3,4.2
		c-9.3,5.4-12.8,12.9-10.7,19.8c-1.6,6.8,2.1,13.9,11.2,19c15.3,8.7,40.1,8.5,55.3-0.4c7.6-4.5,11.4-10.3,11.3-16.1l0,0l-0.2-7.4
		l0,0c-0.1-1.4-0.3-2.8-0.8-4.2l6.2-3.6l-0.1-4.9l0,0l0-0.3l8.3-0.1l-0.1-4.8l8.4-0.1l0-4.8l8.4-0.1l-0.1-4.8l8.4-0.1l-0.1-4.8
		l8.9-0.1l2.8-1.6l3.1-12.6L226.3,327.1z"/>
	<g>
		<g>
			<polygon class="st35" points="140.6,365.9 159.3,376.6 178.5,365.3 178.4,360.5 178.3,360.6 178.2,360.2 186.8,360.1 
				186.7,355.3 195.1,355.3 195,350.5 203.4,350.4 203.3,345.6 211.7,345.5 211.6,340.7 220.5,340.7 223.3,339 226.4,326.4 
				226.3,321.5 224.8,326.2 211.3,324.4 			"/>
			<g>
				<g>
					<g>
						<g>
							<polygon class="st36" points="159.3,371.7 178.4,360.5 178.2,355.3 186.7,355.3 186.5,350.5 195,350.4 194.8,345.6 
								203.3,345.5 203.1,340.7 211.6,340.7 211.4,335.8 220.5,335.8 223.3,334.1 226.3,321.5 211.3,319.5 140.5,361 							"/>
							<path class="st2" d="M159.3,372.6L138.9,361l72.3-42.4l16.2,2.2l-3.4,13.9l-3.3,1.9l-8.5,0.1l0.2,4.8l-8.5,0.1l0.2,4.8
								l-8.5,0.1l0.2,4.8l-8.5,0.1l0.2,4.8l-8.5,0.1l0.2,4.8L159.3,372.6z M142.2,361l17.1,9.7l18.3-10.7l-0.2-5.5l8.5-0.1l-0.2-4.8
								l8.5-0.1l-0.2-4.8l8.5-0.1l-0.2-4.8l8.5-0.1l-0.2-4.8l9.7-0.1l2.3-1.3l2.8-11.4l-13.8-1.9L142.2,361z"/>
						</g>
					</g>
				</g>
				<g>
					<g>
						<g>
							<path class="st36" d="M172,364.2c-1.9-2.7-4.8-5.3-8.7-7.5c-2.7-1.6-5.8-2.8-9-3.8l-13.8,8.1l18.8,10.7L172,364.2z"/>
							<path class="st2" d="M159.3,372.6L138.9,361l15.4-9l0.3,0.1c3.4,1,6.5,2.3,9.2,3.9c3.9,2.2,6.9,4.8,9,7.7l0.5,0.7
								L159.3,372.6z M142.2,361l17.1,9.7l11.5-6.8c-1.9-2.4-4.5-4.6-7.9-6.5c-2.5-1.4-5.3-2.6-8.5-3.6L142.2,361z"/>
						</g>
					</g>
				</g>
				<path class="st35" d="M106.8,397c15.3,8.7,40.1,8.5,55.3-0.4c7.6-4.5,11.4-10.3,11.3-16.1l0,0l-0.2-7.4l-1.2,1.4
					c-1.8-3.6-5.1-7-10.1-9.9c-15.3-8.7-40.1-8.5-55.3,0.4C91.3,374,91.4,388.3,106.8,397z M128.9,384c4,2.3,4,6,0.1,8.3
					c-4,2.3-10.4,2.4-14.4,0.1c-4-2.3-4-6-0.1-8.3C118.5,381.7,124.9,381.7,128.9,384z"/>
				<polyline class="st35" points="178.2,360.2 186.8,360.1 186.7,355.3 				"/>
				<path class="st35" d="M106.8,397c15.3,8.7,40.1,8.5,55.3-0.4c7.6-4.5,11.4-10.3,11.3-16.1l0,0l-0.2-7.4l-1.2,1.4
					c-1.8-3.6-5.1-7-10.1-9.9c-15.3-8.7-40.1-8.5-55.3,0.4C91.3,374,91.4,388.3,106.8,397z M128.9,384c4,2.3,4,6,0.1,8.3
					c-4,2.3-10.4,2.4-14.4,0.1c-4-2.3-4-6-0.1-8.3C118.5,381.7,124.9,381.7,128.9,384z"/>
				<path class="st35" d="M106.8,397c15.3,8.7,40.1,8.5,55.3-0.4c7.6-4.5,11.4-10.3,11.3-16.1l0,0l-0.2-7.4l-1.2,1.4
					c-1.8-3.6-5.1-7-10.1-9.9c-15.3-8.7-40.1-8.5-55.3,0.4C91.3,374,91.4,388.3,106.8,397z M128.9,384c4,2.3,4,6,0.1,8.3
					c-4,2.3-10.4,2.4-14.4,0.1c-4-2.3-4-6-0.1-8.3C118.5,381.7,124.9,381.7,128.9,384z"/>
				<g>
					<g>
						<g>
							<path class="st36" d="M106.6,390c15.3,8.7,40.1,8.5,55.3-0.4c15.2-8.9,15.1-23.2-0.2-31.9c-15.3-8.7-40.1-8.5-55.3,0.4
								C91.1,367,91.2,381.3,106.6,390z M128.7,377c4,2.3,4,6,0.1,8.3c-4,2.3-10.4,2.4-14.4,0.1c-4-2.3-4-6-0.1-8.3
								C118.3,374.8,124.7,374.8,128.7,377z"/>
							<path class="st2" d="M133.8,397.2c-10,0-20-2.2-27.6-6.5l0,0c-7.7-4.4-11.9-10.3-12-16.6c0-6.3,4.1-12.3,11.7-16.8
								c15.4-9,40.6-9.2,56.1-0.4c7.7,4.4,11.9,10.3,12,16.6c0,6.3-4.1,12.3-11.7,16.8C154.4,394.9,144.1,397.2,133.8,397.2z
								 M134.4,352.1c-10,0-20.1,2.2-27.7,6.7c-7.1,4.2-11,9.6-10.9,15.3c0,5.7,4,11.1,11.1,15.2l0,0c15.1,8.6,39.5,8.4,54.5-0.4
								c7.1-4.2,11-9.6,10.9-15.3c0-5.7-4-11.1-11.1-15.2C153.8,354.2,144.1,352.1,134.4,352.1z M121.4,387.9
								c-2.7,0-5.4-0.6-7.5-1.8c-2.2-1.2-3.4-3-3.4-4.8c0-1.9,1.2-3.6,3.4-4.9c4.2-2.5,11-2.5,15.2-0.1h0c2.2,1.2,3.4,3,3.4,4.8
								c0,1.9-1.2,3.6-3.4,4.9C127.1,387.3,124.2,387.9,121.4,387.9z M121.6,376.2c-2.5,0-5,0.6-6.9,1.7c-1.6,1-2.6,2.2-2.5,3.5
								c0,1.3,0.9,2.5,2.6,3.4c3.8,2.1,9.8,2.1,13.6-0.1c1.6-1,2.6-2.2,2.5-3.5s-0.9-2.5-2.6-3.4l0,0
								C126.4,376.7,124,376.2,121.6,376.2z"/>
						</g>
					</g>
				</g>
				<g>
					<g>
						<path class="st36" d="M161.6,357.7c-15.3-8.7-40.1-8.5-55.3,0.4c-15.2,8.9-15.1,23.2,0.2,31.9c3.4,2,7.4,3.5,11.5,4.5
							c3,0.7,6,1.3,9.2,1.6c12.2,1.2,25.2-1,34.6-6.5C177.1,380.7,177,366.4,161.6,357.7z M128.8,385.3c-4,2.3-10.4,2.4-14.4,0.1
							c-4-2.3-4-6-0.1-8.3c4-2.3,10.4-2.4,14.4-0.1C132.7,379.3,132.7,383,128.8,385.3z"/>
						<path class="st2" d="M133.7,397.3c-2.2,0-4.4-0.1-6.6-0.3c-3.2-0.3-6.3-0.9-9.3-1.6c-4.4-1.1-8.3-2.7-11.7-4.6
							c-7.7-4.4-11.9-10.3-12-16.6c0-6.3,4.1-12.3,11.7-16.8c15.4-9,40.6-9.2,56.1-0.4l0,0c7.7,4.4,11.9,10.3,12,16.6
							c0,6.3-4.1,12.3-11.7,16.8C154.7,394.8,144.3,397.3,133.7,397.3z M134.4,352.1c-10,0-20.1,2.2-27.7,6.7
							c-7.1,4.2-11,9.6-10.9,15.3c0,5.7,4,11.1,11.1,15.2c3.3,1.9,7.1,3.4,11.3,4.4c2.9,0.7,5.9,1.3,9,1.6
							c12.5,1.2,25.2-1.2,34.1-6.4c7.1-4.2,11-9.6,10.9-15.3c0-5.7-4-11.1-11.1-15.2l0,0C153.8,354.2,144.1,352.1,134.4,352.1z
							 M121.4,387.9c-2.7,0-5.4-0.6-7.5-1.8c-2.2-1.2-3.4-3-3.4-4.8c0-1.9,1.2-3.6,3.4-4.9c4.2-2.5,11-2.5,15.2-0.1
							c2.2,1.2,3.4,3,3.4,4.8c0,1.9-1.2,3.6-3.4,4.9l0,0C127.1,387.3,124.2,387.9,121.4,387.9z M121.6,376.2c-2.5,0-5,0.6-6.9,1.7
							c-1.6,1-2.6,2.2-2.5,3.5c0,1.3,0.9,2.5,2.6,3.4c3.8,2.1,9.8,2.1,13.6-0.1l0,0c1.6-1,2.6-2.2,2.5-3.5s-0.9-2.5-2.6-3.4
							C126.4,376.7,124,376.2,121.6,376.2z"/>
					</g>
				</g>
			</g>
		</g>
	</g>
</g>
</svg>
