<svg id="Layer_1" data-name="Layer 1" xmlns="http://www.w3.org/2000/svg" xmlns:xlink="http://www.w3.org/1999/xlink" viewBox="0 0 540 540"><defs><style>.cls-1{fill:none;}.cls-2,.cls-3,.cls-4,.cls-8{fill:#52c7ea;}.cls-2{opacity:0.6;}.cls-2,.cls-34,.cls-4{isolation:isolate;}.cls-4{opacity:0.5;}.cls-5{fill:#05131c;}.cls-6,.cls-8{opacity:0.1;}.cls-7{fill:#0a1a2b;}.cls-9{opacity:0.4;}.cls-10{fill:#152935;}.cls-11{opacity:0.3;fill:url(#linear-gradient);}.cls-12{fill:url(#linear-gradient-2);}.cls-13{fill:url(#linear-gradient-3);}.cls-14{fill:url(#linear-gradient-4);}.cls-15{fill:url(#linear-gradient-5);}.cls-16{fill:url(#linear-gradient-6);}.cls-17{fill:url(#linear-gradient-7);}.cls-18{fill:url(#linear-gradient-8);}.cls-19{fill:url(#linear-gradient-9);}.cls-20{fill:url(#linear-gradient-10);}.cls-21{fill:url(#linear-gradient-11);}.cls-22{fill:url(#linear-gradient-12);}.cls-23{fill:url(#linear-gradient-13);}.cls-24{fill:url(#linear-gradient-14);}.cls-25{fill:url(#linear-gradient-15);}.cls-26{fill:url(#linear-gradient-16);}.cls-27{fill:url(#linear-gradient-17);}.cls-28{fill:url(#linear-gradient-18);}.cls-29{fill:url(#linear-gradient-19);}.cls-30{fill:url(#linear-gradient-20);}.cls-31{fill:url(#linear-gradient-21);}.cls-32{fill:url(#linear-gradient-22);}.cls-33{fill:url(#linear-gradient-23);}.cls-35{clip-path:url(#clip-path);}.cls-36,.cls-37{fill:#ec432d;}.cls-37{opacity:0.2;}</style><linearGradient id="linear-gradient" x1="-1195.62" y1="1549.4" x2="-1197.01" y2="1369.29" gradientTransform="matrix(1, 0.58, 0, 1, 1455.05, -501.71)" gradientUnits="userSpaceOnUse"><stop offset="0" stop-color="#52c7ea" stop-opacity="0"/><stop offset="0.7" stop-color="#52c7ea"/></linearGradient><linearGradient id="linear-gradient-2" x1="-1196.38" y1="1525.16" x2="-1199.73" y2="1374.52" xlink:href="#linear-gradient"/><linearGradient id="linear-gradient-3" x1="-1196.13" y1="1525.15" x2="-1199.49" y2="1374.51" xlink:href="#linear-gradient"/><linearGradient id="linear-gradient-4" x1="-1195.95" y1="1525.15" x2="-1199.31" y2="1374.51" xlink:href="#linear-gradient"/><linearGradient id="linear-gradient-5" x1="-1195.78" y1="1525.14" x2="-1199.14" y2="1374.51" xlink:href="#linear-gradient"/><linearGradient id="linear-gradient-6" x1="-1195.59" y1="1525.14" x2="-1198.94" y2="1374.5" xlink:href="#linear-gradient"/><linearGradient id="linear-gradient-7" x1="-1195.42" y1="1525.14" x2="-1198.78" y2="1374.5" xlink:href="#linear-gradient"/><linearGradient id="linear-gradient-8" x1="-1195.31" y1="1525.13" x2="-1198.66" y2="1374.5" xlink:href="#linear-gradient"/><linearGradient id="linear-gradient-9" x1="-1195.19" y1="1525.13" x2="-1198.55" y2="1374.49" xlink:href="#linear-gradient"/><linearGradient id="linear-gradient-10" x1="-1195.08" y1="1525.13" x2="-1198.43" y2="1374.49" xlink:href="#linear-gradient"/><linearGradient id="linear-gradient-11" x1="-1194.96" y1="1525.13" x2="-1198.32" y2="1374.49" xlink:href="#linear-gradient"/><linearGradient id="linear-gradient-12" x1="-1194.81" y1="1525.12" x2="-1198.16" y2="1374.48" xlink:href="#linear-gradient"/><linearGradient id="linear-gradient-13" x1="-1194.63" y1="1525.12" x2="-1197.98" y2="1374.48" xlink:href="#linear-gradient"/><linearGradient id="linear-gradient-14" x1="-1194.45" y1="1525.11" x2="-1197.8" y2="1374.48" xlink:href="#linear-gradient"/><linearGradient id="linear-gradient-15" x1="-1194.26" y1="1525.11" x2="-1197.62" y2="1374.47" xlink:href="#linear-gradient"/><linearGradient id="linear-gradient-16" x1="-1194.12" y1="1525.11" x2="-1197.48" y2="1374.47" xlink:href="#linear-gradient"/><linearGradient id="linear-gradient-17" x1="-1193.97" y1="1525.1" x2="-1197.33" y2="1374.47" xlink:href="#linear-gradient"/><linearGradient id="linear-gradient-18" x1="-1193.82" y1="1525.1" x2="-1197.18" y2="1374.46" xlink:href="#linear-gradient"/><linearGradient id="linear-gradient-19" x1="-1193.67" y1="1525.1" x2="-1197.03" y2="1374.46" xlink:href="#linear-gradient"/><linearGradient id="linear-gradient-20" x1="-1193.53" y1="1525.09" x2="-1196.88" y2="1374.46" xlink:href="#linear-gradient"/><linearGradient id="linear-gradient-21" x1="-1193.37" y1="1525.09" x2="-1196.73" y2="1374.45" xlink:href="#linear-gradient"/><linearGradient id="linear-gradient-22" x1="-1193.23" y1="1525.09" x2="-1196.59" y2="1374.45" xlink:href="#linear-gradient"/><linearGradient id="linear-gradient-23" x1="-1193.12" y1="1525.08" x2="-1196.47" y2="1374.45" xlink:href="#linear-gradient"/><clipPath id="clip-path"><polygon class="cls-1" points="217.69 218.63 217.85 161.21 264.44 188.11 264.28 245.53 217.69 218.63"/></clipPath></defs><path class="cls-2" d="M259.35,497.59c-30.06,0-58.29-6.68-79.48-18.81-21.37-12.25-33.14-28.58-33.14-46s11.77-33.72,33.14-46c43.83-25.09,115.15-25.09,159,0,21.37,12.23,33.14,28.55,33.14,46s-11.77,33.72-33.14,46C317.65,490.91,289.42,497.59,259.35,497.59Zm0-128.93c-28.67,0-57.34,6.25-79.16,18.75-21.15,12.11-32.8,28.22-32.8,45.37s11.65,33.29,32.8,45.41,49.21,18.73,79.15,18.73,58.07-6.65,79.17-18.73,32.8-28.28,32.8-45.41-11.65-33.27-32.8-45.37C316.69,374.91,288,368.66,259.36,368.66Z"/><path class="cls-3" d="M258.39,483.92c-23.54,0-45.65-5.27-62.24-14.83-16.77-9.66-26-22.54-26-36.29s9.23-26.63,26-36.29c34.31-19.76,90.13-19.76,124.44,0,16.77,9.66,26,22.54,26,36.29s-9.24,26.63-26,36.29C304,478.65,281.91,483.92,258.39,483.92Zm0-101.56c-22.41,0-44.82,4.91-61.88,14.73-16.56,9.53-25.67,22.21-25.67,35.71s9.11,26.18,25.67,35.7,38.47,14.75,61.9,14.75,45.38-5.24,61.87-14.75,25.67-22.21,25.67-35.7-9.12-26.18-25.67-35.71C303.19,387.27,280.78,382.36,258.37,382.36Z"/><path id="Path" class="cls-4" d="M328.69,458.19a5.86,5.86,0,1,0,5.85-5.86A5.85,5.85,0,0,0,328.69,458.19Z"/><circle id="Oval" class="cls-3" cx="334.54" cy="458.19" r="2.93"/><path id="Path-2" data-name="Path" class="cls-4" d="M186.11,399.6a5.86,5.86,0,1,0,5.86-5.86,5.85,5.85,0,0,0-5.86,5.86Z"/><path id="Path-3" data-name="Path" class="cls-3" d="M189,399.6a2.93,2.93,0,1,0,2.93-2.93A2.93,2.93,0,0,0,189,399.6Z"/><polygon class="cls-5" points="272.89 411.79 284.31 412.59 283.92 420.96 272.89 411.79"/><g class="cls-6"><path class="cls-3" d="M307.73,423.08a164.46,164.46,0,0,1-23.42-10.49l-3,5.5A169.78,169.78,0,0,0,305.65,429c13.84,4.9,27.2,7.38,39.71,7.38h.3V430.1h-.3C333.56,430.1,320.9,427.74,307.73,423.08Z"/><path class="cls-3" d="M132.41,141c1.17-24.22,6.76-44.85,16.6-61.31l-5.37-3.21-11.42-.8-15.15,61.81,3.92,2.71,5.18.5Z"/><path class="cls-3" d="M216.19,356.29l-5.54-6.5-11.42-.8v4.29l16.44,20.25L242,399.12l11.42.81,3.79-5A281.14,281.14,0,0,1,216.19,356.29Z"/><path class="cls-3" d="M431.29,288.25q-.46-3.21-1-6.44l-11.42-.8,1.69,66.37,11.42.81a189.81,189.81,0,0,0,1.77-26.27A241.54,241.54,0,0,0,431.29,288.25Z"/><path class="cls-3" d="M417.78,378.31h0l-11.42-.81-1.81,10.3-10.19,17.5-26.92,23.52,11.31.55.11.25.47-.22h0l0,0c18.11-8.08,32.48-23,41.87-43.36l0,0v0c.81-1.74,1.58-3.51,2.31-5.33Z"/><path class="cls-3" d="M382.76,158.87a350.49,350.49,0,0,0-39.91-52.81l-11.42-.8,1.85,6.94L357.48,141,366,161.36l11.42.8Z"/><path class="cls-3" d="M405.28,250.33h.32l11.42.8,6-1.69a348.49,348.49,0,0,0-24.09-61.67l-11.42-.8,24.09,61.66Z"/><path class="cls-3" d="M147.89,266.21l1.29,7.58,25.3,52.74,11.42.8,5.16-3.52A363.76,363.76,0,0,1,159.31,267Z"/><polygon class="cls-3" points="121.96 172.57 130.12 237.9 141.53 238.7 147.46 236.71 133.38 173.38 121.96 172.57"/><path class="cls-3" d="M179.1,50.6A74.76,74.76,0,0,1,213,42.35l3.08,0a99.59,99.59,0,0,1,14,1.26l1-6.17a107.65,107.65,0,0,0-14.89-1.34l-3.18,0a82,82,0,0,0-33.24,7.27l-9.2,2L158.49,55.51l11.41.8Z"/><path class="cls-3" d="M303.55,86.83l11.42.8,4.09-4.72C300.82,67.09,282,55,263.2,47l-11.42-.81,7.63,7.37,24.85,15.86Z"/></g><path class="cls-3" d="M334.24,435.54h-.3c-12.51,0-25.87-2.48-39.71-7.37a169.86,169.86,0,0,1-24.31-10.89l3-5.49a163.47,163.47,0,0,0,23.42,10.49c13.16,4.65,25.83,7,37.62,7h.3Zm33.2-6.72-2.5-5.73c18.39-8,32.72-23.8,41.42-45.59l5.8,2.32C402.83,403.16,387.37,420.11,367.44,428.82ZM242,399.12A293.89,293.89,0,0,1,194.42,353l4.81-4a287.19,287.19,0,0,0,46.56,45.16Zm178.57-51.74-6.19-.87a181.88,181.88,0,0,0,1.71-25.39,235.19,235.19,0,0,0-2.41-32.8q-.45-3.13-1-6.29l6.16-1c.35,2.15.68,4.29,1,6.44a241.54,241.54,0,0,1,2.47,33.67A188.13,188.13,0,0,1,420.57,347.38ZM174.48,326.53a369.54,369.54,0,0,1-32.29-57.78l5.7-2.54A364,364,0,0,0,179.64,323Zm231.12-76.2a343,343,0,0,0-23.66-60.56l5.58-2.8a348.7,348.7,0,0,1,24.09,61.66ZM130.11,237.9A306.64,306.64,0,0,1,117,183.34c-.47-3.39-.89-6.8-1.23-10.13l6.21-.64c.34,3.26.74,6.59,1.21,9.9A300.5,300.5,0,0,0,136,235.9ZM366,161.36a344.05,344.05,0,0,0-39.2-51.87l4.6-4.23a351.11,351.11,0,0,1,39.92,52.8ZM121,140.24l-6.24-.31c1.22-25.25,7.1-46.86,17.47-64.21l5.37,3.2C127.75,95.39,122.16,116,121,140.24ZM303.55,86.83c-17.75-15.4-36-27.14-54.21-34.89l2.44-5.75c18.82,8,37.62,20.09,55.87,35.92ZM158.49,55.51l-3.71-5c13.34-9.81,29.08-14.91,46.79-15.17l3.19,0a104.52,104.52,0,0,1,14.88,1.34l-1,6.17a99.62,99.62,0,0,0-14-1.27l-3.08,0C185.28,41.79,170.75,46.48,158.49,55.51Z"/><path class="cls-7" d="M335.58,436.89h-1.64c-12.66,0-26.17-2.51-40.15-7.45a172.66,172.66,0,0,1-24.51-11l-1.18-.64,4.25-7.85,1.19.64A163.39,163.39,0,0,0,296.76,421c13,4.61,25.54,6.94,37.18,6.94h1.64Zm-63.84-20.16a166.67,166.67,0,0,0,22.94,10.17c13.31,4.71,26.16,7.16,38.22,7.29v-3.56c-11.66-.13-24.11-2.51-37-7.08a165.3,165.3,0,0,1-22.43-9.94Zm95,13.86-3.58-8.19,1.23-.54c18.06-7.89,32.14-23.4,40.72-44.85l.49-1.25,8.3,3.31-.5,1.25C404,404,388.24,421.19,368,430.05Zm-.05-6.81,1.43,3.26c18.65-8.56,33.23-24.58,42.28-46.47l-3.3-1.32C398.42,400.24,384.49,415.6,366.7,423.78ZM242.26,401l-1.07-.82a294.92,294.92,0,0,1-47.8-46.35l-.86-1,6.87-5.71.86,1a286.56,286.56,0,0,0,46.34,44.95l1.07.82Zm-45.94-47.85a292.7,292.7,0,0,0,45.43,44.08l2.16-2.84a288,288,0,0,1-44.85-43.52Zm225.39-4.26-8.85-1.25.19-1.33a180.57,180.57,0,0,0,1.7-25.2,234,234,0,0,0-2.4-32.61c-.3-2.11-.62-4.21-1-6.26l-.22-1.33,8.81-1.45.22,1.32c.35,2.11.69,4.29,1,6.47a242.66,242.66,0,0,1,2.49,33.86,190.73,190.73,0,0,1-1.79,26.45Zm-5.82-3.54,3.53.5A187.87,187.87,0,0,0,421,321.12a240.36,240.36,0,0,0-2.46-33.48c-.25-1.71-.5-3.41-.77-5.08l-3.51.58c.26,1.64.51,3.32.75,5a236.28,236.28,0,0,1,2.43,33A183.6,183.6,0,0,1,415.89,345.36Zm-241.76-17-.76-1.11a371.69,371.69,0,0,1-32.41-58l-.55-1.23,8.16-3.64.55,1.23a362.14,362.14,0,0,0,31.63,56.58l.76,1.11Zm-30.17-59a369.38,369.38,0,0,0,30.88,55.23l2.93-2A366.4,366.4,0,0,1,147.21,268ZM404.67,252l-.36-1.3a341.9,341.9,0,0,0-23.57-60.32l-.61-1.2,8-4,.6,1.2a350.46,350.46,0,0,1,24.19,61.91l.36,1.29Zm-20.93-61.62a344.58,344.58,0,0,1,22.79,58.3l3.42-1a347.77,347.77,0,0,0-23-58.93ZM129.27,239.6l-.43-1.28a308,308,0,0,1-13.19-54.79c-.48-3.43-.9-6.86-1.24-10.18l-.14-1.34,8.89-.91.14,1.33c.33,3.24.74,6.55,1.2,9.85a298,298,0,0,0,12.81,53.19l.43,1.27Zm-12-65.19c.3,2.87.67,5.8,1.09,8.74a304.12,304.12,0,0,0,12.64,53l3.38-1.14a300.2,300.2,0,0,1-12.5-52.4c-.41-2.87-.77-5.76-1.07-8.61Zm248.37-11.2-.71-1.15a344,344,0,0,0-39.05-51.66l-.91-1,6.58-6,.91,1a352.59,352.59,0,0,1,40.07,53l.71,1.15Zm-36.87-53.64a346,346,0,0,1,37.74,49.94l3-1.88a349.54,349.54,0,0,0-38.14-50.47ZM122.27,141.64l-8.93-.43.07-1.34c1.23-25.48,7.17-47.29,17.66-64.84l.69-1.15,7.67,4.58-.69,1.15c-9.72,16.28-15.24,36.7-16.41,60.69Zm-6.11-3,3.56.17c1.29-23.3,6.68-43.29,16-59.44l-3.05-1.82C123,94.22,117.48,114.76,116.16,138.66ZM303.69,88.72l-1-.88c-17.65-15.3-35.77-27-53.86-34.66l-1.23-.53,3.49-8.22,1.24.52c18.95,8.07,37.86,20.23,56.22,36.14l1,.88ZM251.1,51.24c17.58,7.65,35.17,19,52.32,33.69l2.33-2.69C288.33,67.29,270.42,55.76,252.49,48Zm-92.9,6.15-5.3-7.2,1.09-.8c13.56-10,29.57-15.17,47.56-15.43l3.22,0a109,109,0,0,1,15.08,1.36l1.33.21-1.41,8.82-1.33-.21a99.89,99.89,0,0,0-13.79-1.24l-3.07,0c-16,.24-30.26,4.84-42.3,13.7Zm-1.53-6.62,2.11,2.87C171,45,185.43,40.44,201.57,40.2l3.11,0a102,102,0,0,1,12.86,1.07l.56-3.51a104.52,104.52,0,0,0-13.37-1.12l-3.17,0C184.65,36.89,169.54,41.64,156.67,50.77Z"/><path class="cls-8" d="M263.36,439.61a24,24,0,0,1-11.68-2.78l-64.37-37.18c-3-1.74-4.71-4.06-4.71-6.53s1.68-4.77,4.71-6.53l64.37-37.16c6.44-3.72,16.91-3.72,23.35,0l64.37,37.16c3.05,1.77,4.73,4.09,4.73,6.53s-1.68,4.78-4.73,6.53L275,436.83A23.92,23.92,0,0,1,263.36,439.61Z"/><g class="cls-9"><path class="cls-7" d="M347.05,378.86v-22l-4-2.24c-1.14,6.88-9.24,11.41-16,12.36l-46.12,27-20.13,7.27L196.5,368l1.49-.86c-5.5-2.56-8.45-8.43-11.42-13.78L182.24,356l-2.57.72V379.1h0c0,2.85,1.89,5.71,5.65,7.89l64.37,37.16c7.54,4.35,19.8,4.35,27.34,0L341.4,387c3.7-2.14,5.59-4.94,5.65-7.76,0-.12,0-.25,0-.37Z"/><path class="cls-2" d="M263.36,428a28.32,28.32,0,0,1-13.94-3.33l-64.37-37.16c-3.82-2.21-5.92-5.18-5.92-8.36V356.27l2.89-.82,4.75-2.83.84,1.52c2.77,5,5.63,10.2,10.61,12.53l.94.44-1.52.88,63.15,32.6,19.91-7.19,46.16-27h.07c6.74-.94,14.48-5.43,15.55-11.91l.12-.77,5,2.78v22.75c-.06,3.13-2.17,6-5.92,8.21L277.3,424.62A28.32,28.32,0,0,1,263.36,428ZM179.8,356.78V379.1c0,2.93,2,5.69,5.59,7.77L249.76,424A30.18,30.18,0,0,0,277,424l64.36-37.16c3.54-2.05,5.53-4.76,5.59-7.65V356.9l-3.81-2.12c-1.23,6.68-9.12,11.29-16,12.27L281,394l-20.24,7.32L196.23,368l1.48-.86c-5-2.46-7.91-7.66-10.69-12.7l-.5-.91-4.27,2.53Z"/></g><path class="cls-7" d="M347.05,359.27V344.69l-4-2.25c-1.14,6.88-9.24,11.42-16,12.36l-46.12,27L260.75,389,196.5,355.89,198,355c-5.5-2.57-8.45-8.43-11.42-13.79l-4.33,2.58-2.57.73V359.5h0c0,2.86,1.89,5.72,5.65,7.89l64.37,37.17c7.54,4.35,19.8,4.35,27.34,0l64.37-37.17c3.7-2.14,5.59-4.94,5.65-7.75,0-.12,0-.25,0-.37Z"/><path class="cls-7" d="M263.36,408a28.18,28.18,0,0,1-13.77-3.29l-64.37-37.17c-3.71-2.14-5.76-5-5.76-8.07V344.39l2.7-.76,4.48-2.68.68,1.22c2.79,5.06,5.67,10.3,10.75,12.67l.37.17-1.5.87,63.83,32.94,20-7.24,46.16-27c6.86-1,14.74-5.55,15.84-12.19l.05-.29,4.4,2.44v15.09c-.07,3-2.11,5.82-5.76,7.92l-64.37,37.17A28.15,28.15,0,0,1,263.36,408Z"/><path class="cls-3" d="M263.36,408.36A28.32,28.32,0,0,1,249.42,405l-64.37-37.17c-3.82-2.2-5.92-5.17-5.92-8.36V344.39a.35.35,0,0,1,.24-.33l2.65-.74,4.45-2.65a.34.34,0,0,1,.47.12l.67,1.22c2.77,5,5.63,10.2,10.61,12.53l.36.17a.33.33,0,0,1,0,.59l-1,.56,63.15,32.59,19.91-7.19,46.1-26.95a.35.35,0,0,1,.13-.05c6.74-.94,14.48-5.43,15.55-11.91l0-.29a.31.31,0,0,1,.18-.25.37.37,0,0,1,.31,0l4.4,2.45a.32.32,0,0,1,.17.29v15.09c-.06,3.13-2.17,6.05-5.92,8.22L277.3,405A28.32,28.32,0,0,1,263.36,408.36ZM179.8,344.64V359.5c0,2.94,2,5.7,5.59,7.78l64.37,37.17a30.18,30.18,0,0,0,27.21,0l64.36-37.17c3.54-2,5.53-4.75,5.59-7.64V344.76l-3.81-2.12c-1.23,6.68-9.12,11.3-16,12.28L281,381.87l-20.1,7.26a.32.32,0,0,1-.27,0l-63.83-32.94a.31.31,0,0,1-.18-.29.35.35,0,0,1,.17-.3l.94-.54c-5-2.46-7.91-7.67-10.69-12.7l-.5-.92-4.19,2.5s-.05,0-.08,0Z"/><path class="cls-7" d="M249.69,389.74l-64.37-37.16c-7.53-4.36-7.53-11.44,0-15.79l64.37-37.16c7.54-4.35,19.8-4.35,27.34,0l64.37,37.16c7.53,4.36,7.53,11.44,0,15.79L277,389.74C269.49,394.09,257.23,394.09,249.69,389.74Z"/><path class="cls-3" d="M263.36,393.21a28.18,28.18,0,0,1-13.77-3.29l-64.37-37.16c-3.71-2.15-5.76-5-5.76-8.08s2-5.92,5.76-8.07l64.37-37.16c7.59-4.38,20-4.38,27.54,0l64.37,37.17c3.71,2.14,5.76,5,5.76,8.07s-2.05,5.92-5.76,8.07l-64.37,37.16A28.15,28.15,0,0,1,263.36,393.21Zm0-96.64a27.72,27.72,0,0,0-13.56,3.24L185.43,337c-3.58,2.07-5.55,4.81-5.55,7.71s2,5.65,5.55,7.72l64.37,37.16c7.48,4.32,19.65,4.32,27.13,0l64.36-37.16c3.58-2.07,5.55-4.81,5.55-7.71s-2-5.65-5.55-7.71l-64.37-37.17A27.72,27.72,0,0,0,263.36,296.57Z"/><path class="cls-7" d="M249.69,389.74l-64.37-37.16c-7.53-4.36-7.53-11.44,0-15.79l64.37-37.16c7.54-4.35,19.8-4.35,27.34,0l64.37,37.16c7.53,4.36,7.53,11.44,0,15.79L277,389.74C269.49,394.09,257.23,394.09,249.69,389.74Z"/><path class="cls-10" d="M263.36,393.21a28.18,28.18,0,0,1-13.77-3.29l-64.37-37.16c-3.71-2.15-5.76-5-5.76-8.08s2-5.92,5.76-8.07l64.37-37.16c7.59-4.38,20-4.38,27.54,0l64.37,37.17c3.71,2.14,5.76,5,5.76,8.07s-2.05,5.92-5.76,8.07l-64.37,37.16A28.15,28.15,0,0,1,263.36,393.21Z"/><path class="cls-3" d="M263.36,393.54a28.32,28.32,0,0,1-13.94-3.33l-64.37-37.16c-3.82-2.21-5.92-5.18-5.92-8.37s2.1-6.15,5.92-8.36l64.37-37.16c7.69-4.44,20.19-4.44,27.88,0l64.37,37.16c3.82,2.21,5.92,5.18,5.92,8.37s-2.1,6.15-5.92,8.36L277.3,390.21A28.32,28.32,0,0,1,263.36,393.54Zm0-97.05a27.85,27.85,0,0,0-13.6,3.25L185.39,336.9c-3.61,2.08-5.59,4.85-5.59,7.78s2,5.71,5.59,7.78l64.37,37.17a30.18,30.18,0,0,0,27.21,0l64.36-37.16c3.61-2.08,5.59-4.85,5.59-7.78s-2-5.7-5.59-7.78L277,299.74A27.85,27.85,0,0,0,263.36,296.49Z"/><polygon class="cls-11" points="268.13 358.37 249.3 347.51 249.3 169.6 268.13 180.47 268.13 358.37"/><path class="cls-12" d="M261.4,335.12a3.08,3.08,0,0,1,.89.76,1.67,1.67,0,0,1,.44,1l-7.1-4.1v.29l-.18-.11a1.08,1.08,0,0,0-.26-.56,1.66,1.66,0,0,0-.49-.48v-.69Z"/><path class="cls-13" d="M260.78,322.63a3.93,3.93,0,0,1,1.39,1.44,3.64,3.64,0,0,1,.56,1.8,1.33,1.33,0,0,1-.46,1.1c-.37.29-.87.25-1.49-.11l-3.9-2.25a4.69,4.69,0,0,1-1.59-1.47,3.44,3.44,0,0,1-.59-1.91c0-1.4.73-1.69,2.18-.85Zm-.61.35-2.82-1.63c-1.12-.65-1.68-.5-1.68.44a2.79,2.79,0,0,0,1.68,2.38l2.82,1.63a1.49,1.49,0,0,0,1.1.27c.31-.08.46-.34.46-.78a2.24,2.24,0,0,0-.46-1.3A3.33,3.33,0,0,0,260.17,323Z"/><path class="cls-14" d="M261.4,316.19a3.11,3.11,0,0,1,.89.77,1.67,1.67,0,0,1,.44,1l-7.1-4.09v.28l-.18-.1a1.1,1.1,0,0,0-.26-.57,2,2,0,0,0-.49-.48v-.69Z"/><path class="cls-15" d="M260.78,306.91a3.93,3.93,0,0,1,1.39,1.44,3.57,3.57,0,0,1,.56,1.79,1.35,1.35,0,0,1-.46,1.11c-.37.29-.87.25-1.49-.11l-3.9-2.25a4.89,4.89,0,0,1-1.59-1.47,3.46,3.46,0,0,1-.59-1.91c0-1.41.73-1.69,2.18-.85Zm-.61.35-2.82-1.63c-1.12-.65-1.68-.5-1.68.44a2.79,2.79,0,0,0,1.68,2.38l2.82,1.63a1.49,1.49,0,0,0,1.1.27c.31-.08.46-.34.46-.78a2.22,2.22,0,0,0-.46-1.3A3.33,3.33,0,0,0,260.17,307.26Z"/><path class="cls-16" d="M260.78,298a3.93,3.93,0,0,1,1.39,1.44,3.64,3.64,0,0,1,.56,1.8,1.33,1.33,0,0,1-.46,1.1c-.37.29-.87.25-1.49-.11l-3.9-2.24a4.81,4.81,0,0,1-1.59-1.48,3.43,3.43,0,0,1-.59-1.9c0-1.41.73-1.7,2.18-.86Zm-.61.36-2.82-1.64c-1.12-.64-1.68-.5-1.68.44a2.78,2.78,0,0,0,1.68,2.38l2.82,1.64a1.59,1.59,0,0,0,1.1.27c.31-.09.46-.35.46-.78a2.19,2.19,0,0,0-.46-1.3A3.23,3.23,0,0,0,260.17,298.34Z"/><path class="cls-17" d="M261.4,292.35a3.08,3.08,0,0,1,.89.76,1.67,1.67,0,0,1,.44,1l-7.1-4.1v.29l-.18-.11a1.08,1.08,0,0,0-.26-.56,1.87,1.87,0,0,0-.49-.49v-.68Z"/><path class="cls-18" d="M261.4,287.15a3.11,3.11,0,0,1,.89.77,1.67,1.67,0,0,1,.44,1l-7.1-4.09v.28l-.18-.1a1.1,1.1,0,0,0-.26-.57,2,2,0,0,0-.49-.48v-.69Z"/><path class="cls-19" d="M261.4,282a3.08,3.08,0,0,1,.89.76,1.67,1.67,0,0,1,.44,1l-7.1-4.1v.29l-.18-.11a1.08,1.08,0,0,0-.26-.56,1.87,1.87,0,0,0-.49-.49v-.68Z"/><path class="cls-20" d="M261.4,276.76a3.11,3.11,0,0,1,.89.77,1.67,1.67,0,0,1,.44,1l-7.1-4.09v.28l-.18-.1a1.1,1.1,0,0,0-.26-.57,2,2,0,0,0-.49-.48v-.69Z"/><path class="cls-21" d="M261.4,271.57a3.08,3.08,0,0,1,.89.76,1.67,1.67,0,0,1,.44,1l-7.1-4.1v.29l-.18-.11a1.08,1.08,0,0,0-.26-.56,1.87,1.87,0,0,0-.49-.49v-.68Z"/><path class="cls-22" d="M260.78,263.08a3.93,3.93,0,0,1,1.39,1.44,3.64,3.64,0,0,1,.56,1.8,1.33,1.33,0,0,1-.46,1.1c-.37.29-.87.25-1.49-.11l-3.9-2.24a4.81,4.81,0,0,1-1.59-1.48,3.43,3.43,0,0,1-.59-1.9c0-1.41.73-1.7,2.18-.86Zm-.61.36-2.82-1.64c-1.12-.64-1.68-.5-1.68.44a2.78,2.78,0,0,0,1.68,2.38l2.82,1.64a1.59,1.59,0,0,0,1.1.27c.31-.09.46-.35.46-.78a2.19,2.19,0,0,0-.46-1.3A3.23,3.23,0,0,0,260.17,263.44Z"/><path class="cls-23" d="M260.78,255a3.93,3.93,0,0,1,1.39,1.44,3.64,3.64,0,0,1,.56,1.8,1.33,1.33,0,0,1-.46,1.1c-.37.29-.87.25-1.49-.11l-3.9-2.25a4.79,4.79,0,0,1-1.59-1.47,3.44,3.44,0,0,1-.59-1.91c0-1.41.73-1.69,2.18-.85Zm-.61.35-2.82-1.63c-1.12-.65-1.68-.5-1.68.44a2.79,2.79,0,0,0,1.68,2.38l2.82,1.63a1.49,1.49,0,0,0,1.1.27c.31-.08.46-.34.46-.78a2.24,2.24,0,0,0-.46-1.3A3.33,3.33,0,0,0,260.17,255.31Z"/><path class="cls-24" d="M260.78,246.83a3.93,3.93,0,0,1,1.39,1.44,3.64,3.64,0,0,1,.56,1.8,1.33,1.33,0,0,1-.46,1.1c-.37.29-.87.26-1.49-.1l-3.9-2.25a4.81,4.81,0,0,1-1.59-1.48,3.4,3.4,0,0,1-.59-1.9c0-1.41.73-1.69,2.18-.85Zm-.61.36-2.82-1.64c-1.12-.64-1.68-.5-1.68.45a2.79,2.79,0,0,0,1.68,2.38l2.82,1.63a1.59,1.59,0,0,0,1.1.27c.31-.09.46-.35.46-.78a2.22,2.22,0,0,0-.46-1.3A3.23,3.23,0,0,0,260.17,247.19Z"/><path class="cls-25" d="M260.78,238.71a3.93,3.93,0,0,1,1.39,1.44,3.64,3.64,0,0,1,.56,1.8,1.33,1.33,0,0,1-.46,1.1c-.37.29-.87.25-1.49-.11l-3.9-2.25a4.69,4.69,0,0,1-1.59-1.47,3.44,3.44,0,0,1-.59-1.91c0-1.4.73-1.69,2.18-.85Zm-.61.35-2.82-1.63c-1.12-.65-1.68-.5-1.68.44a2.78,2.78,0,0,0,1.68,2.38l2.82,1.64a1.52,1.52,0,0,0,1.1.26c.31-.08.46-.34.46-.78a2.24,2.24,0,0,0-.46-1.3A3.44,3.44,0,0,0,260.17,239.06Z"/><path class="cls-26" d="M261.4,233.88a3.08,3.08,0,0,1,.89.76,1.67,1.67,0,0,1,.44,1l-7.1-4.1v.28l-.18-.1a1.14,1.14,0,0,0-.26-.57,2,2,0,0,0-.49-.48V230Z"/><path class="cls-27" d="M260.78,225.39a3.93,3.93,0,0,1,1.39,1.44,3.64,3.64,0,0,1,.56,1.8,1.33,1.33,0,0,1-.46,1.1c-.37.29-.87.25-1.49-.11l-3.9-2.25a4.69,4.69,0,0,1-1.59-1.47,3.43,3.43,0,0,1-.59-1.9c0-1.41.73-1.7,2.18-.86Zm-.61.36-2.82-1.64c-1.12-.64-1.68-.5-1.68.44a2.78,2.78,0,0,0,1.68,2.38l2.82,1.64a1.59,1.59,0,0,0,1.1.27c.31-.09.46-.35.46-.79a2.24,2.24,0,0,0-.46-1.3A3.3,3.3,0,0,0,260.17,225.75Z"/><path class="cls-28" d="M261.4,220.56a3.08,3.08,0,0,1,.89.76,1.67,1.67,0,0,1,.44,1l-7.1-4.1v.29l-.18-.11a1.08,1.08,0,0,0-.26-.56,1.66,1.66,0,0,0-.49-.48v-.69Z"/><path class="cls-29" d="M260.78,212.07a3.93,3.93,0,0,1,1.39,1.44,3.64,3.64,0,0,1,.56,1.8,1.33,1.33,0,0,1-.46,1.1c-.37.29-.87.26-1.49-.11l-3.9-2.24a4.81,4.81,0,0,1-1.59-1.48,3.4,3.4,0,0,1-.59-1.9c0-1.41.73-1.7,2.18-.86Zm-.61.36-2.82-1.64c-1.12-.64-1.68-.5-1.68.44a2.78,2.78,0,0,0,1.68,2.38l2.82,1.64a1.59,1.59,0,0,0,1.1.27c.31-.09.46-.35.46-.78a2.19,2.19,0,0,0-.46-1.3A3.23,3.23,0,0,0,260.17,212.43Z"/><path class="cls-30" d="M261.4,207.24a3.08,3.08,0,0,1,.89.76,1.67,1.67,0,0,1,.44,1l-7.1-4.1v.29l-.18-.11a1.08,1.08,0,0,0-.26-.56,1.66,1.66,0,0,0-.49-.48v-.69Z"/><path class="cls-31" d="M260.78,198.75a3.93,3.93,0,0,1,1.39,1.44,3.64,3.64,0,0,1,.56,1.8,1.33,1.33,0,0,1-.46,1.1c-.37.29-.87.26-1.49-.11l-3.9-2.24a4.81,4.81,0,0,1-1.59-1.48,3.4,3.4,0,0,1-.59-1.9c0-1.41.73-1.69,2.18-.85Zm-.61.36-2.82-1.64c-1.12-.64-1.68-.5-1.68.44a2.78,2.78,0,0,0,1.68,2.38l2.82,1.64a1.59,1.59,0,0,0,1.1.27c.31-.09.46-.35.46-.78a2.19,2.19,0,0,0-.46-1.3A3.23,3.23,0,0,0,260.17,199.11Z"/><path class="cls-32" d="M261.4,193.92a3.08,3.08,0,0,1,.89.76,1.67,1.67,0,0,1,.44,1l-7.1-4.1v.29l-.18-.1a1.07,1.07,0,0,0-.26-.57,1.66,1.66,0,0,0-.49-.48v-.69Z"/><path class="cls-33" d="M261.4,188.72a3.11,3.11,0,0,1,.89.77,1.67,1.67,0,0,1,.44,1l-7.1-4.1v.28l-.18-.1a1.14,1.14,0,0,0-.26-.57,2,2,0,0,0-.49-.48v-.68Z"/><path class="cls-8" d="M177.55,155.31l33.78-19.63h0c5-3,12-2.63,19.81,1.85a44.4,44.4,0,0,1,7.31,5.36L252.06,135h0c7.48-5.26,18.31-5,30.35,1.92,15.24,8.8,28.52,26.11,35.55,44.44a16.58,16.58,0,0,1,7.67,2.43c9.94,5.74,18,19.7,18,31.18,0,.25,0,.48,0,.72a21.74,21.74,0,0,1,9.27,3.1c12.72,7.34,23,25.2,23,39.89,0,7.28-2.54,12.4-6.64,14.84h0l-.11.06h0L335.8,293l-7.28-35-97.38-56.23c-12.45-7.18-23-22.71-26.52-37.77Z"/><path class="cls-10" d="M197.69,157a49.44,49.44,0,0,1,12.18,10.27c5.1-16.39,20.67-21.48,39.09-10.84,15.24,8.8,28.52,26.1,35.55,44.44a16.56,16.56,0,0,1,7.67,2.42c9.94,5.74,18,19.71,18,31.19,0,.25,0,.47,0,.71a21.76,21.76,0,0,1,9.27,3.11c12.72,7.34,23,25.2,23,39.88s-10.31,20.64-23,13.3L197.69,221.15c-15.35-8.86-27.8-30.42-27.8-48.15S182.34,148.09,197.69,157Z"/><path class="cls-7" d="M329.71,295.42A21.79,21.79,0,0,1,319,292.15L197.27,221.87c-15.55-9-28.21-30.91-28.21-48.87,0-8.88,3-15.53,8.56-18.72s12.79-2.49,20.49,1.95a48.72,48.72,0,0,1,11.42,9.37c2.5-6.93,6.93-11.8,12.89-14.14,7.57-3,17.15-1.47,27,4.2,14.69,8.48,28.34,25.44,35.71,44.35a17.67,17.67,0,0,1,7.5,2.51c10.15,5.86,18.41,20.15,18.43,31.87a23.12,23.12,0,0,1,8.82,3.14c12.93,7.46,23.44,25.68,23.44,40.6,0,7.42-2.54,13-7.16,15.63A12.61,12.61,0,0,1,329.71,295.42Z"/><path class="cls-3" d="M329.71,295.75a21.9,21.9,0,0,1-10.87-3.31L197.11,222.16c-15.65-9-28.39-31.09-28.39-49.16,0-9,3.1-15.76,8.73-19s13-2.56,20.83,1.95a49.13,49.13,0,0,1,11.13,9c2.56-6.74,7-11.52,12.89-13.82,7.67-3,17.35-1.5,27.25,4.22,14.67,8.47,28.37,25.44,35.78,44.33a18.11,18.11,0,0,1,7.43,2.53c10.15,5.86,18.43,20.09,18.59,31.86a24,24,0,0,1,8.66,3.14c13,7.52,23.61,25.87,23.61,40.9,0,7.54-2.6,13.2-7.33,15.93A13,13,0,0,1,329.71,295.75ZM185.27,152.65a14.77,14.77,0,0,0-7.49,1.93c-5.41,3.12-8.39,9.66-8.39,18.42,0,17.86,12.59,39.65,28.05,48.58l121.73,70.28a21.28,21.28,0,0,0,10.54,3.22,12.26,12.26,0,0,0,6.24-1.61c4.51-2.6,7-8.05,7-15.34,0-14.82-10.44-32.9-23.28-40.31a23,23,0,0,0-8.69-3.1.33.33,0,0,1-.3-.33c0-11.61-8.21-25.78-18.25-31.58a17.38,17.38,0,0,0-7.36-2.46.34.34,0,0,1-.29-.21c-7.34-18.83-21-35.76-35.57-44.19-9.72-5.62-19.19-7.1-26.66-4.17-5.85,2.28-10.24,7.1-12.7,13.94a.32.32,0,0,1-.25.21.3.3,0,0,1-.31-.1,48.81,48.81,0,0,0-11.35-9.31A25.8,25.8,0,0,0,185.27,152.65Z"/><g id="Symbols"><g class="cls-34"><g class="cls-35"><path class="cls-36" d="M230.72,175.34c-.58-.34-1.06-.07-1.06.6a2.31,2.31,0,0,0,1.05,1.81c.58.34,1,.07,1.06-.6a2.31,2.31,0,0,0-1.05-1.81"/><path class="cls-36" d="M230.7,189.22c-.58-.34-1.06-.07-1.06.6a2.3,2.3,0,0,0,1.05,1.81c.58.34,1.05.07,1.05-.6a2.29,2.29,0,0,0-1-1.81"/><path class="cls-36" d="M251.51,229c-.58-.34-1-.06-1,.61a2.28,2.28,0,0,0,1,1.8c.58.34,1.06.08,1.06-.59a2.32,2.32,0,0,0-1.05-1.82"/><path class="cls-36" d="M220.22,190.13c-.58-.34-1.05-.06-1.05.6a2.32,2.32,0,0,0,1,1.81c.58.34,1.06.07,1.06-.59a2.32,2.32,0,0,0-1.05-1.82"/><path class="cls-36" d="M262,214.26c-.59-.33-1.06-.06-1.06.61a2.33,2.33,0,0,0,1,1.81c.58.33,1.05.06,1.06-.6a2.33,2.33,0,0,0-1.05-1.82"/><path class="cls-36" d="M251.63,187.41c-.58-.33-1-.07-1,.6a2.29,2.29,0,0,0,1,1.82c.58.33,1,.06,1.06-.61a2.33,2.33,0,0,0-1.05-1.81"/><path class="cls-36" d="M251.55,215.17c-.58-.33-1.05-.07-1.05.6a2.32,2.32,0,0,0,1,1.82c.58.33,1.06.06,1.06-.61a2.33,2.33,0,0,0-1-1.81"/><path class="cls-36" d="M230.66,203.09c-.58-.34-1.06-.07-1.06.6a2.31,2.31,0,0,0,1.05,1.81c.58.34,1,.07,1-.6a2.32,2.32,0,0,0-1-1.81"/><path class="cls-36" d="M251.59,201.3c-.58-.34-1.05-.06-1.05.61a2.26,2.26,0,0,0,1,1.8c.58.34,1.06.07,1.06-.59a2.33,2.33,0,0,0-1-1.82"/><path class="cls-36" d="M241.08,216.06c-.58-.34-1.06-.07-1.06.6a2.33,2.33,0,0,0,1,1.82c.58.33,1.05.06,1.05-.61a2.29,2.29,0,0,0-1-1.81"/><path class="cls-36" d="M241.17,188.33c-.58-.34-1-.07-1,.6a2.31,2.31,0,0,0,1,1.81c.58.33,1.06.07,1.06-.6a2.31,2.31,0,0,0-1.05-1.81"/><path class="cls-36" d="M230.6,217c-.58-.34-1.06-.07-1.06.6a2.3,2.3,0,0,0,1.05,1.81c.58.34,1.06.07,1.06-.59A2.32,2.32,0,0,0,230.6,217"/><path class="cls-3" d="M241.22,174.7c-2.82-1.63-5.65-2.2-8-1.4a6.21,6.21,0,0,0-2.06,1.18,5,5,0,0,1,1.35,1.88c2.22-1.86,5.45-1.63,8.71.25a21.89,21.89,0,0,1,7,6.92,25.48,25.48,0,0,1,1.66,2.87,1,1,0,0,1,.73-.42,1.39,1.39,0,0,1,.67.12,27,27,0,0,0-10.06-11.4"/><path class="cls-3" d="M249.7,186.74c-3.2-1.3-6.12-1.06-8.14.72a4.47,4.47,0,0,1,1.36,1.88c1.73-1.47,4.18-1.68,6.9-.61a2.85,2.85,0,0,1-.12-2"/><path class="cls-3" d="M232.66,176.9a3,3,0,0,1,.12.86,1.72,1.72,0,0,1-.26,1,22.07,22.07,0,0,1,3.81,3.75,26.09,26.09,0,0,1,3.07,4.84,1,1,0,0,1,.74-.42,1.46,1.46,0,0,1,.63.1,27.94,27.94,0,0,0-8.11-10.11"/><path class="cls-3" d="M253.2,191.06a1.15,1.15,0,0,1-.55.21,1.7,1.7,0,0,1-1-.27c1,3.54,1,6.79-.06,9.16a4.27,4.27,0,0,1,1.54,1.72c1.22-2.79,1.23-6.65,0-10.82"/><path class="cls-3" d="M243.11,189.88a2.36,2.36,0,0,1-.14,1.84,25.24,25.24,0,0,1,6.87,8.55,1.12,1.12,0,0,1,1.39-.29,28.59,28.59,0,0,0-8.12-10.1"/><path class="cls-3" d="M253.55,188.92a2.41,2.41,0,0,1-.14,1.86c.39.3.75.59,1.12.93,6,5.29,9.5,14.39,7.89,20.34a9.56,9.56,0,0,1-.37,1.07,3.72,3.72,0,0,1,1,.89,4.92,4.92,0,0,1,.54.83,9.67,9.67,0,0,0,.46-1.31c1.87-6.85-2.19-17.34-9.07-23.45-.47-.41-.93-.79-1.42-1.16"/><path class="cls-3" d="M253.51,202.82a2.3,2.3,0,0,1-.14,1.85,24.69,24.69,0,0,1,6.89,8.53,1.15,1.15,0,0,1,1.39-.29,32.15,32.15,0,0,0-3.6-5.66,24.9,24.9,0,0,0-4.54-4.43"/><path class="cls-3" d="M260.25,215.7c-1.74,1.45-4.21,1.66-6.93.58a3,3,0,0,1,.27,1.28,1.77,1.77,0,0,1-.12.71c3.23,1.35,6.14,1.07,8.16-.68a4.54,4.54,0,0,1-1.38-1.89"/><path class="cls-3" d="M253.14,204.94a1.4,1.4,0,0,1-1.51,0,14.5,14.5,0,0,1,0,9.14,4.51,4.51,0,0,1,1.52,1.72c1.2-2.78,1.21-6.65,0-10.82"/><path class="cls-3" d="M253.12,218.82a1.35,1.35,0,0,1-1.52,0,14.59,14.59,0,0,1,0,9.14,4.44,4.44,0,0,1,1.52,1.72c1.22-2.79,1.21-6.66,0-10.83"/><path class="cls-3" d="M263.58,217.9a1.36,1.36,0,0,1-1.53-.05c.14.48.26,1,.36,1.46,1.59,7.81-2,12.85-8,11.24a9.24,9.24,0,0,1-1.11-.39,2.89,2.89,0,0,1,.13,2,13.1,13.1,0,0,0,1.42.47c6.87,1.83,11-3.94,9.15-12.92-.12-.61-.27-1.22-.44-1.83"/><path class="cls-3" d="M249.79,216.6c-1.74,1.44-4.2,1.65-6.91.58a2.87,2.87,0,0,1,.11,2c3.23,1.32,6.15,1.07,8.18-.68a4.77,4.77,0,0,1-1.38-1.88"/><path class="cls-3" d="M242.84,219.48a1,1,0,0,1-.74.42,1.6,1.6,0,0,1-.63-.1,27.91,27.91,0,0,0,8.11,10.1,2.17,2.17,0,0,1,.15-1.83,21.44,21.44,0,0,1-3.82-3.75,26.42,26.42,0,0,1-3.07-4.84"/><path class="cls-3" d="M239.3,217.46a5.52,5.52,0,0,1-3.07,1.27,8.64,8.64,0,0,1-3.82-.64,3,3,0,0,1,.11,2c3.23,1.31,6.14,1,8.14-.75a4.54,4.54,0,0,1-1.36-1.87"/><path class="cls-3" d="M249.75,230.44c-2.22,1.87-5.46,1.63-8.72-.25a21.84,21.84,0,0,1-7-6.91,25.62,25.62,0,0,1-1.66-2.88,1,1,0,0,1-.74.43,1.29,1.29,0,0,1-.65-.12A27,27,0,0,0,241,232.11c2.81,1.63,5.65,2.21,8,1.4a6.47,6.47,0,0,0,2.06-1.17,4.57,4.57,0,0,1-1.37-1.9"/><path class="cls-3" d="M229.09,205c-1.22,2.78-1.23,6.64-.05,10.82a1.05,1.05,0,0,1,.53-.22,1.64,1.64,0,0,1,1,.27c-1-3.56-1-6.84.06-9.19a3.71,3.71,0,0,1-1-.88,5.22,5.22,0,0,1-.52-.8"/><path class="cls-3" d="M232.4,206.54a1.13,1.13,0,0,1-1.39.28A28.66,28.66,0,0,0,239.14,217a2.29,2.29,0,0,1,.15-1.85,25.42,25.42,0,0,1-6.89-8.57"/><path class="cls-3" d="M228.77,174.64a12.12,12.12,0,0,0-1.4-.47c-6.89-1.86-11,3.94-9.18,12.91.14.61.28,1.19.45,1.81a1.4,1.4,0,0,1,1.53.06c-.14-.48-.26-1-.37-1.47-1.59-7.81,2-12.84,8-11.22a11.68,11.68,0,0,1,1.12.4,2.85,2.85,0,0,1-.14-2"/><path class="cls-3" d="M222,193.59a1.15,1.15,0,0,1-1.36.31,29.77,29.77,0,0,0,3.6,5.66,25.14,25.14,0,0,0,4.52,4.43,2.41,2.41,0,0,1,.13-1.86,24.82,24.82,0,0,1-6.89-8.54"/><path class="cls-3" d="M218.63,192a10.62,10.62,0,0,0-.45,1.31c-1.86,6.85,2.17,17.31,9,23.42.47.41,1,.81,1.42,1.16a2.33,2.33,0,0,1,.15-1.83c-.35-.29-.74-.59-1.11-.92-6-5.31-9.52-14.43-7.91-20.39a9,9,0,0,1,.38-1,3.71,3.71,0,0,1-1-.88,4.86,4.86,0,0,1-.53-.83"/><path class="cls-3" d="M229.15,177.19c-1.2,2.8-1.21,6.66,0,10.83a1.3,1.3,0,0,1,1.52,0c-1-3.52-1-6.77,0-9.15a4.48,4.48,0,0,1-1.52-1.71"/><path class="cls-3" d="M228.77,188.55c-3.23-1.32-6.14-1.07-8.16.69a4.35,4.35,0,0,1,.65.64,4.58,4.58,0,0,1,.71,1.23c1.74-1.45,4.22-1.65,6.95-.56a3.4,3.4,0,0,1-.28-1.31,2.07,2.07,0,0,1,.13-.69"/><path class="cls-3" d="M239.25,187.62c-3.21-1.29-6.13-1-8.17.71a4.62,4.62,0,0,1,1.37,1.9c1.74-1.44,4.2-1.65,6.91-.59a2.87,2.87,0,0,1-.11-2"/><path class="cls-3" d="M229.13,191c-1.2,2.79-1.23,6.64,0,10.82a1.32,1.32,0,0,1,1.51,0c-1-3.52-1-6.78,0-9.15a4.16,4.16,0,0,1-1.51-1.71"/></g></g></g><path class="cls-8" d="M241.6,354.42h0l-15.15-2-59,34.64c-15-4.59-34-3.17-46.62,4.21-9.34,5.48-12.91,13-10.8,20-1.61,6.84,2.11,14,11.24,19.17,15.43,8.77,40.35,8.59,55.66-.39,7.68-4.5,11.48-10.37,11.42-16.2h0l-.21-7.4,0,0a13.38,13.38,0,0,0-.85-4.23l6.21-3.64-.06-4.92h0v-.26l8.41-.05-.05-4.85,8.4-.06-.05-4.84,8.41-.06,0-4.84,8.41-.06-.05-4.85,9-.06,2.8-1.64,3.08-12.71Z"/><polygon class="cls-8" points="155.26 393.48 174.15 404.21 193.43 392.9 193.38 387.98 193.21 388.08 193.19 387.73 201.77 387.67 201.72 382.83 210.12 382.77 210.07 377.93 218.48 377.87 218.43 373.02 226.84 372.96 226.79 368.12 235.77 368.06 238.57 366.42 241.65 353.7 241.6 348.78 240.11 353.5 226.5 351.68 155.26 393.48"/><path class="cls-10" d="M186.93,391.76a26.65,26.65,0,0,0-8.75-7.55,45.65,45.65,0,0,0-9.05-3.82l-13.92,8.17,18.89,10.73Z"/><path class="cls-8" d="M121.24,424.74c15.43,8.77,40.35,8.59,55.66-.39,7.68-4.51,11.48-10.37,11.42-16.2h0l-.21-7.41-1.26,1.41c-1.78-3.66-5.16-7.1-10.17-9.94-15.44-8.77-40.36-8.6-55.67.39S105.8,416,121.24,424.74Zm22.29-13.08c4,2.28,4.05,6,.06,8.36a16,16,0,0,1-14.49.1c-4-2.28-4-6-.06-8.36A16,16,0,0,1,143.53,411.66Z"/><polyline class="cls-8" points="193.19 387.73 201.77 387.67 201.72 382.83"/><path class="cls-8" d="M121.24,424.74c15.43,8.77,40.35,8.59,55.66-.39,7.68-4.51,11.48-10.37,11.42-16.2h0l-.21-7.41-1.26,1.41c-1.78-3.66-5.16-7.1-10.17-9.94-15.44-8.77-40.36-8.6-55.67.39S105.8,416,121.24,424.74Zm22.29-13.08c4,2.28,4.05,6,.06,8.36a16,16,0,0,1-14.49.1c-4-2.28-4-6-.06-8.36A16,16,0,0,1,143.53,411.66Z"/><path class="cls-8" d="M121.24,424.74c15.43,8.77,40.35,8.59,55.66-.39,7.68-4.51,11.48-10.37,11.42-16.2h0l-.21-7.41-1.26,1.41c-1.78-3.66-5.16-7.1-10.17-9.94-15.44-8.77-40.36-8.6-55.67.39S105.8,416,121.24,424.74Zm22.29-13.08c4,2.28,4.05,6,.06,8.36a16,16,0,0,1-14.49.1c-4-2.28-4-6-.06-8.36A16,16,0,0,1,143.53,411.66Z"/><path class="cls-10" d="M121,417.75c15.43,8.76,40.36,8.59,55.67-.39s15.2-23.37-.23-32.14-40.36-8.6-55.67.39S105.59,409,121,417.75Zm22.29-13.08c4,2.28,4.05,6,.06,8.36a16,16,0,0,1-14.49.1c-4-2.28-4-6-.06-8.36A16,16,0,0,1,143.32,404.67Z"/><path class="cls-7" d="M226.45,346.76l-59,34.63c-15-4.59-34-3.17-46.63,4.22-15.31,9-15.21,23.37.23,32.14a46.81,46.81,0,0,0,11.61,4.55,60.3,60.3,0,0,0,9.23,1.59c12.28,1.2,25.38-1,34.83-6.53,11.44-6.72,14.27-16.45,8.53-24.6l8.14-4.78-.23-5.17,8.58-.06-.22-4.84,8.57-.06-.21-4.84,8.57-.06-.22-4.84,8.58-.07-.22-4.84,9.15-.06,2.8-1.64,3.08-12.72ZM143.38,413a16,16,0,0,1-14.49.1c-4-2.28-4-6-.06-8.36a16,16,0,0,1,14.49-.1C147.34,407,147.37,410.69,143.38,413Z"/><path class="cls-3" d="M148.41,424.55c-2.19,0-4.39-.11-6.57-.32a62,62,0,0,1-9.28-1.6,47.49,47.49,0,0,1-11.7-4.59c-7.57-4.3-11.77-10.08-11.81-16.28s4.07-12,11.58-16.44c12.25-7.19,31.45-8.95,46.76-4.29l58.89-34.56a.34.34,0,0,1,.22,0l15.14,2a.33.33,0,0,1,.23.14.3.3,0,0,1,0,.27l-3.08,12.72a.36.36,0,0,1-.15.21l-2.8,1.64a.33.33,0,0,1-.17,0l-8.8.07.2,4.49a.34.34,0,0,1-.09.25.35.35,0,0,1-.24.1l-8.23.06.21,4.49a.35.35,0,0,1-.1.25.31.31,0,0,1-.24.1l-8.22.06.2,4.5a.34.34,0,0,1-.09.24.34.34,0,0,1-.24.11l-8.23.05.2,4.5a.3.3,0,0,1-.09.24.32.32,0,0,1-.24.11l-8.23.06.22,4.82a.32.32,0,0,1-.17.3l-7.83,4.6a14.41,14.41,0,0,1,2.42,11.34c-1.11,5.12-5,9.76-11.26,13.44C169.29,422.09,159,424.55,148.41,424.55Zm.74-45.44c-10.34,0-20.61,2.34-28.18,6.79-7.3,4.28-11.29,9.91-11.25,15.86s4.12,11.52,11.47,15.7A46.66,46.66,0,0,0,132.72,422a62.12,62.12,0,0,0,9.18,1.58c12.65,1.23,25.6-1.2,34.63-6.49,6.09-3.58,9.88-8.07,10.94-13A13.84,13.84,0,0,0,185,393a.36.36,0,0,1,0-.27.36.36,0,0,1,.16-.22l8-4.67-.22-5a.34.34,0,0,1,.09-.25.35.35,0,0,1,.24-.1l8.23-.06-.21-4.49a.33.33,0,0,1,.1-.25.36.36,0,0,1,.24-.11l8.22-.05-.2-4.5a.34.34,0,0,1,.09-.24.34.34,0,0,1,.24-.11l8.23-.06-.2-4.49a.34.34,0,0,1,.09-.25.35.35,0,0,1,.24-.1l8.22-.06-.2-4.49a.35.35,0,0,1,.1-.25.31.31,0,0,1,.24-.1l9.06-.07,2.59-1.52,3-12.21-14.66-2L167.6,381.68a.32.32,0,0,1-.27,0A62.53,62.53,0,0,0,149.15,379.11Zm-13.13,36a15.2,15.2,0,0,1-7.3-1.72c-2-1.17-3.19-2.75-3.2-4.46s1.1-3.3,3.14-4.49a16.42,16.42,0,0,1,14.83-.11c2,1.17,3.19,2.75,3.2,4.46s-1.1,3.3-3.14,4.49A15.16,15.16,0,0,1,136,415.15Zm.17-11.83a14.52,14.52,0,0,0-7.19,1.74c-1.82,1.06-2.82,2.45-2.81,3.91s1,2.83,2.86,3.87a15.67,15.67,0,0,0,14.16-.1h0c1.82-1.06,2.82-2.45,2.81-3.91s-1-2.83-2.86-3.87A14.38,14.38,0,0,0,136.19,403.32Zm7.19,9.71h0Z"/><circle class="cls-37" cx="220.1" cy="501.03" r="8.9"/><circle class="cls-36" cx="220.1" cy="501.03" r="5.13"/><rect class="cls-1" x="1.19" y="0.36" width="540" height="540"/></svg>