<?xml version="1.0" encoding="UTF-8"?>
<svg width="247px" height="256px" viewBox="0 0 247 256" version="1.1" xmlns="http://www.w3.org/2000/svg" xmlns:xlink="http://www.w3.org/1999/xlink">
  <!-- Generator: Sketch 63 (92445) - https://sketch.com -->
  <title>Group 35</title>
  <desc>Created with Sketch.</desc>
  <g id="Page-1" stroke="none" stroke-width="1" fill="none" fill-rule="evenodd">
    <g id="Desktop-HD-Copy-11" transform="translate(-317.000000, -1163.000000)" fill-rule="nonzero">
      <g id="Group-18" transform="translate(182.000000, 1163.000000)">
        <g id="Group-35" transform="translate(135.000000, 0.000000)">
          <polygon id="Path-5" fill="#40A6C8" points="112.6 181 112.6 246.5 116.6 246.5 112.1 255.5 107.6 246.5 111.6 246.5 111.6 181"></polygon>
          <polygon id="Path-5-Copy" fill="#40A6C8" transform="translate(124.900000, 218.250000) rotate(-180.000000) translate(-124.900000, -218.250000) " points="125.4 181 125.399 246.5 129.4 246.5 124.9 255.5 120.4 246.5 124.399 246.5 124.4 181"></polygon>
          <g id="Group-9" transform="translate(0.500000, 0.000000)">
            <path d="M7.8343949,28.629527 L48.3904974,5.0797722 L48.3904974,5.0797722 C54.4447101,1.47754248 62.8636271,1.93316047 72.179992,7.30090989 C75.3212021,9.16776999 78.2617263,11.3529723 80.9550391,13.8219423 L97.2942908,4.38210715 L97.2942908,4.38210715 C106.268771,-1.92535437 119.260399,-1.65483119 133.733529,6.70291128 C152.024374,17.2533153 167.922024,38.026648 176.397922,60.024454 C179.656996,60.2054927 182.821797,61.1833021 185.61457,62.8720664 C197.552053,69.7632885 207.224548,86.5214876 207.224548,100.303932 C207.224548,100.602931 207.224548,100.873454 207.224548,101.158215 C211.167036,101.537533 214.97153,102.808308 218.350054,104.87435 C233.620916,113.68771 246,135.115994 246,152.742715 C246,161.484885 242.951526,167.62149 238.022684,170.55453 L238.022684,170.55453 L237.894478,170.625721 L237.894478,170.625721 L197.865448,193.848 L189.133136,151.817241 L72.179992,84.3430641 C57.2367706,75.8002268 44.5870273,57.0914132 40.3277106,39.0233123 L7.8343949,28.629527 Z" id="Path" fill="#52C7EA" opacity="0.1"></path>
            <path d="M33.2914939,31.0633963 C38.7940193,34.3692056 43.724871,38.5555519 47.890283,43.4579261 C54.0027264,23.678203 72.6527861,17.5381877 94.7286572,30.3764016 C112.980697,40.9818826 128.84462,61.8636597 137.373611,83.9763024 C140.626809,84.1524516 143.786271,85.1357937 146.570706,86.8387804 C158.482863,93.7516648 168.134837,110.597348 168.134837,124.451741 C168.134837,124.752302 168.134837,125.024237 168.134837,125.310485 C172.0698,125.69762 175.865977,126.97984 179.23674,129.060331 C194.475204,137.919701 206.828025,159.459848 206.828025,177.164274 C206.828025,194.868701 194.475204,202.067833 179.23674,193.208463 L33.2914939,108.507739 C14.9115188,97.8163836 0,71.8107708 0,50.4280601 C0,29.0453493 14.9115188,20.3720409 33.2914939,31.0633963 Z" id="Path" stroke="#52C7EA" stroke-width="0.8" fill="#162535"></path>
          </g>
        </g>
      </g>
    </g>
  </g>
</svg>
