<?xml version="1.0" encoding="UTF-8"?>
<svg width="642px" height="278px" viewBox="0 0 642 278" version="1.1" xmlns="http://www.w3.org/2000/svg" xmlns:xlink="http://www.w3.org/1999/xlink">
  <!-- Generator: Sketch 63 (92445) - https://sketch.com -->
  <title>cloud-section</title>
  <desc>Created with Sketch.</desc>
  <g id="Page-1" stroke="none" stroke-width="1" fill="none" fill-rule="evenodd">
    <g id="/product-copy" transform="translate(-165.000000, -1305.000000)">
      <g id="cloud-section" transform="translate(165.000000, 1305.000000)">
        <g id="cloud">
          <g>
            <rect id="Rectangle" stroke="#4BC7EC" x="0.732" y="0.5" width="492" height="277" rx="10"></rect>
            <g id="Group-34" transform="translate(62.232000, 40.000000)">
              <g id="Group-32" fill="#25B8E4">
                <rect id="Rectangle-Copy-13" fill-opacity="0.06" x="0" y="0" width="316" height="59" rx="10"></rect>
                <path d="M80.636,35.192 C81.2333333,35.192 81.7693333,35.1173333 82.244,34.968 C82.7186667,34.8186667 83.1186667,34.6053333 83.444,34.328 C83.7693333,34.0506667 84.02,33.72 84.196,33.336 C84.372,32.952 84.46,32.52 84.46,32.04 C84.46,31.4533333 84.3133333,30.9626667 84.02,30.568 C83.7266667,30.1733333 83.3613333,29.8346667 82.924,29.552 C82.4866667,29.2693333 82.012,29.0213333 81.5,28.808 C80.988,28.5946667 80.5133333,28.3786667 80.076,28.16 C79.6386667,27.9413333 79.2733333,27.6933333 78.98,27.416 C78.6866667,27.1386667 78.54,26.792 78.54,26.376 C78.54,26.1626667 78.5933333,25.96 78.7,25.768 C78.8066667,25.576 78.9586667,25.408 79.156,25.264 C79.3533333,25.12 79.5933333,25.0053333 79.876,24.92 C80.1586667,24.8346667 80.476,24.792 80.828,24.792 C81.1906667,24.792 81.532,24.8133333 81.852,24.856 C82.172,24.8986667 82.4653333,24.952 82.732,25.016 L82.732,25.016 L82.732,26.728 L83.916,26.728 L83.916,24.168 L83.932,24.12 L83.916,24.12 L83.916,24.088 L83.884,24.104 C83.5746667,23.9546667 83.1586667,23.8346667 82.636,23.744 C82.1133333,23.6533333 81.532,23.608 80.892,23.608 C80.3373333,23.608 79.8333333,23.6746667 79.38,23.808 C78.9266667,23.9413333 78.54,24.1306667 78.22,24.376 C77.9,24.6213333 77.652,24.92 77.476,25.272 C77.3,25.624 77.212,26.0186667 77.212,26.456 C77.212,27.0746667 77.3586667,27.584 77.652,27.984 C77.9453333,28.384 78.3106667,28.7226667 78.748,29 C79.1853333,29.2773333 79.66,29.5173333 80.172,29.72 C80.684,29.9226667 81.1586667,30.1306667 81.596,30.344 C82.0333333,30.5573333 82.3986667,30.8026667 82.692,31.08 C82.9853333,31.3573333 83.132,31.7146667 83.132,32.152 C83.132,32.472 83.0653333,32.7493333 82.932,32.984 C82.7986667,33.2186667 82.6173333,33.4133333 82.388,33.568 C82.1586667,33.7226667 81.8893333,33.8346667 81.58,33.904 C81.2706667,33.9733333 80.94,34.008 80.588,34.008 C80.1826667,34.008 79.78,33.952 79.38,33.84 C78.98,33.728 78.62,33.5866667 78.3,33.416 L78.3,33.416 L78.3,31.64 L77.116,31.64 L77.116,34.232 L77.1,34.28 C77.2386667,34.3546667 77.428,34.4453333 77.668,34.552 C77.908,34.6586667 78.18,34.76 78.484,34.856 C78.788,34.952 79.1213333,35.032 79.484,35.096 C79.8466667,35.16 80.2306667,35.192 80.636,35.192 Z M90.444,35.192 C90.7853333,35.192 91.124,35.1626667 91.46,35.104 C91.796,35.0453333 92.1186667,34.9626667 92.428,34.856 C92.7373333,34.7493333 93.0226667,34.6213333 93.284,34.472 C93.5453333,34.3226667 93.772,34.1626667 93.964,33.992 L93.964,33.992 L93.468,33.08 C93.3613333,33.176 93.2093333,33.2826667 93.012,33.4 C92.8146667,33.5173333 92.588,33.624 92.332,33.72 C92.076,33.816 91.8066667,33.8986667 91.524,33.968 C91.2413333,34.0373333 90.956,34.072 90.668,34.072 C89.804,34.072 89.1133333,33.8346667 88.596,33.36 C88.0786667,32.8853333 87.82,32.168 87.82,31.208 L87.82,31.208 L94.012,31.208 C94.0653333,30.3013333 94.0013333,29.5626667 93.82,28.992 C93.6386667,28.4213333 93.38,27.9733333 93.044,27.648 C92.708,27.3226667 92.3213333,27.1013333 91.884,26.984 C91.4466667,26.8666667 91.004,26.808 90.556,26.808 C89.9373333,26.808 89.3773333,26.9013333 88.876,27.088 C88.3746667,27.2746667 87.948,27.544 87.596,27.896 C87.244,28.248 86.9746667,28.6853333 86.788,29.208 C86.6013333,29.7306667 86.508,30.328 86.508,31 C86.508,31.64 86.5933333,32.216 86.764,32.728 C86.9346667,33.24 87.1853333,33.68 87.516,34.048 C87.8466667,34.416 88.2573333,34.6986667 88.748,34.896 C89.2386667,35.0933333 89.804,35.192 90.444,35.192 Z M92.844,30.088 L87.868,30.088 C87.9106667,29.672 88.0093333,29.3226667 88.164,29.04 C88.3186667,28.7573333 88.516,28.528 88.756,28.352 C88.996,28.176 89.2733333,28.0506667 89.588,27.976 C89.9026667,27.9013333 90.236,27.864 90.588,27.864 C91.2386667,27.864 91.764,28.0586667 92.164,28.448 C92.564,28.8373333 92.7906667,29.384 92.844,30.088 L92.844,30.088 Z M102.62,35 L102.62,33.928 L99.548,33.928 L99.548,29.208 C99.612,29.112 99.7133333,28.9946667 99.852,28.856 C99.9906667,28.7173333 100.158667,28.5786667 100.356,28.44 C100.553333,28.3013333 100.785333,28.184 101.052,28.088 C101.318667,27.992 101.617333,27.944 101.948,27.944 C102.3,27.944 102.542667,28.104 102.676,28.424 C102.809333,28.744 102.876,29.2453333 102.876,29.928 L102.876,29.928 L103.996,29.912 C103.996,29.432 103.974667,29.0026667 103.932,28.624 C103.889333,28.2453333 103.806667,27.9226667 103.684,27.656 C103.561333,27.3893333 103.390667,27.1866667 103.172,27.048 C102.953333,26.9093333 102.662667,26.84 102.3,26.84 C101.681333,26.84 101.148,26.9573333 100.7,27.192 C100.252,27.4266667 99.8466667,27.7093333 99.484,28.04 L99.484,28.04 L99.404,28.04 L99.148,27 L96.156,27 L96.156,28.072 L98.316,28.072 L98.316,33.928 L96.156,33.928 L96.156,35 L102.62,35 Z M110.236,35 L113.612,27 L112.22,27 L109.708,33.448 L109.532,33.448 L106.86,27 L105.388,27 L108.828,35 L110.236,35 Z M119.356,25.72 C119.665333,25.72 119.924,25.624 120.132,25.432 C120.34,25.24 120.444,25.0053333 120.444,24.728 C120.444,24.44 120.34,24.192 120.132,23.984 C119.924,23.776 119.665333,23.672 119.356,23.672 C119.057333,23.672 118.812,23.776 118.62,23.984 C118.428,24.192 118.332,24.44 118.332,24.728 C118.332,25.0053333 118.428,25.24 118.62,25.432 C118.812,25.624 119.057333,25.72 119.356,25.72 Z M122.764,35 L122.764,33.928 L120.044,33.928 L120.044,27 L115.98,27 L115.98,28.072 L118.764,28.072 L118.764,33.928 L115.98,33.928 L115.98,35 L122.764,35 Z M129.084,35.192 C129.5,35.192 129.886667,35.1546667 130.244,35.08 C130.601333,35.0053333 130.926667,34.9066667 131.22,34.784 C131.513333,34.6613333 131.772,34.5306667 131.996,34.392 C132.22,34.2533333 132.406667,34.12 132.556,33.992 L132.556,33.992 L131.996,33.064 C131.676,33.3413333 131.278667,33.5653333 130.804,33.736 C130.329333,33.9066667 129.841333,33.992 129.34,33.992 C128.870667,33.992 128.441333,33.9226667 128.052,33.784 C127.662667,33.6453333 127.329333,33.448 127.052,33.192 C126.774667,32.936 126.561333,32.624 126.412,32.256 C126.262667,31.888 126.188,31.4693333 126.188,31 C126.188,29.9333333 126.444,29.1546667 126.956,28.664 C127.468,28.1733333 128.246667,27.928 129.292,27.928 C129.569333,27.928 129.849333,27.9573333 130.132,28.016 C130.414667,28.0746667 130.678667,28.1466667 130.924,28.232 L130.924,28.232 L130.924,29.752 L132.076,29.752 L132.076,27.528 L132.092,27.48 C131.750667,27.3093333 131.332,27.1546667 130.836,27.016 C130.34,26.8773333 129.697333,26.808 128.908,26.808 C128.289333,26.808 127.729333,26.9013333 127.228,27.088 C126.726667,27.2746667 126.3,27.544 125.948,27.896 C125.596,28.248 125.326667,28.6853333 125.14,29.208 C124.953333,29.7306667 124.86,30.328 124.86,31 C124.86,31.6293333 124.950667,32.2026667 125.132,32.72 C125.313333,33.2373333 125.58,33.68 125.932,34.048 C126.284,34.416 126.724,34.6986667 127.252,34.896 C127.78,35.0933333 128.390667,35.192 129.084,35.192 Z M138.444,35.192 C138.785333,35.192 139.124,35.1626667 139.46,35.104 C139.796,35.0453333 140.118667,34.9626667 140.428,34.856 C140.737333,34.7493333 141.022667,34.6213333 141.284,34.472 C141.545333,34.3226667 141.772,34.1626667 141.964,33.992 L141.964,33.992 L141.468,33.08 C141.361333,33.176 141.209333,33.2826667 141.012,33.4 C140.814667,33.5173333 140.588,33.624 140.332,33.72 C140.076,33.816 139.806667,33.8986667 139.524,33.968 C139.241333,34.0373333 138.956,34.072 138.668,34.072 C137.804,34.072 137.113333,33.8346667 136.596,33.36 C136.078667,32.8853333 135.82,32.168 135.82,31.208 L135.82,31.208 L142.012,31.208 C142.065333,30.3013333 142.001333,29.5626667 141.82,28.992 C141.638667,28.4213333 141.38,27.9733333 141.044,27.648 C140.708,27.3226667 140.321333,27.1013333 139.884,26.984 C139.446667,26.8666667 139.004,26.808 138.556,26.808 C137.937333,26.808 137.377333,26.9013333 136.876,27.088 C136.374667,27.2746667 135.948,27.544 135.596,27.896 C135.244,28.248 134.974667,28.6853333 134.788,29.208 C134.601333,29.7306667 134.508,30.328 134.508,31 C134.508,31.64 134.593333,32.216 134.764,32.728 C134.934667,33.24 135.185333,33.68 135.516,34.048 C135.846667,34.416 136.257333,34.6986667 136.748,34.896 C137.238667,35.0933333 137.804,35.192 138.444,35.192 Z M140.844,30.088 L135.868,30.088 C135.910667,29.672 136.009333,29.3226667 136.164,29.04 C136.318667,28.7573333 136.516,28.528 136.756,28.352 C136.996,28.176 137.273333,28.0506667 137.588,27.976 C137.902667,27.9013333 138.236,27.864 138.588,27.864 C139.238667,27.864 139.764,28.0586667 140.164,28.448 C140.564,28.8373333 140.790667,29.384 140.844,30.088 L140.844,30.088 Z M161.34,35 L161.34,33.816 L158.156,33.816 L158.156,24.984 L161.34,24.984 L161.34,23.8 L153.66,23.8 L153.66,24.984 L156.828,24.984 L156.828,33.816 L153.66,33.816 L153.66,35 L161.34,35 Z M165.02,35 L165.02,29.976 C165.094667,29.7093333 165.212,29.456 165.372,29.216 C165.532,28.976 165.718667,28.7653333 165.932,28.584 C166.145333,28.4026667 166.382667,28.256 166.644,28.144 C166.905333,28.032 167.174667,27.976 167.452,27.976 C168.209333,27.976 168.732,28.2 169.02,28.648 C169.308,29.096 169.452,29.7626667 169.452,30.648 L169.452,30.648 L169.452,35 L170.7,35 L170.7,30.408 C170.7,29.6933333 170.636,29.104 170.508,28.64 C170.38,28.176 170.190667,27.808 169.94,27.536 C169.689333,27.264 169.374667,27.0746667 168.996,26.968 C168.617333,26.8613333 168.182667,26.808 167.692,26.808 C167.372,26.808 167.068,26.8506667 166.78,26.936 C166.492,27.0213333 166.230667,27.136 165.996,27.28 C165.761333,27.424 165.556,27.584 165.38,27.76 C165.204,27.936 165.062667,28.1146667 164.956,28.296 L164.956,28.296 L164.876,28.296 L164.732,27 L162.588,27 L162.588,28.04 L163.66,28.04 C163.681333,28.1573333 163.7,28.296 163.716,28.456 C163.732,28.616 163.745333,28.7786667 163.756,28.944 C163.766667,29.1093333 163.774667,29.2693333 163.78,29.424 C163.785333,29.5786667 163.788,29.704 163.788,29.8 L163.788,29.8 L163.788,35 L165.02,35 Z M177.452,35.208 C177.996,35.208 178.526667,35.1173333 179.044,34.936 C179.561333,34.7546667 180.006667,34.5146667 180.38,34.216 L180.38,34.216 L179.964,33.272 C179.676,33.4853333 179.353333,33.6826667 178.996,33.864 C178.638667,34.0453333 178.22,34.136 177.74,34.136 C177.036,34.136 176.494667,33.9493333 176.116,33.576 C175.737333,33.2026667 175.548,32.6266667 175.548,31.848 L175.548,31.848 L175.548,28.072 L179.82,28.072 L179.82,27 L175.548,27 L175.548,25.064 L174.3,25.416 L174.3,27 L172.396,27 L172.396,28.072 L174.3,28.072 L174.3,32.04 C174.3,32.5946667 174.385333,33.072 174.556,33.472 C174.726667,33.872 174.956,34.2 175.244,34.456 C175.532,34.712 175.865333,34.9013333 176.244,35.024 C176.622667,35.1466667 177.025333,35.208 177.452,35.208 Z M186.444,35.192 C186.785333,35.192 187.124,35.1626667 187.46,35.104 C187.796,35.0453333 188.118667,34.9626667 188.428,34.856 C188.737333,34.7493333 189.022667,34.6213333 189.284,34.472 C189.545333,34.3226667 189.772,34.1626667 189.964,33.992 L189.964,33.992 L189.468,33.08 C189.361333,33.176 189.209333,33.2826667 189.012,33.4 C188.814667,33.5173333 188.588,33.624 188.332,33.72 C188.076,33.816 187.806667,33.8986667 187.524,33.968 C187.241333,34.0373333 186.956,34.072 186.668,34.072 C185.804,34.072 185.113333,33.8346667 184.596,33.36 C184.078667,32.8853333 183.82,32.168 183.82,31.208 L183.82,31.208 L190.012,31.208 C190.065333,30.3013333 190.001333,29.5626667 189.82,28.992 C189.638667,28.4213333 189.38,27.9733333 189.044,27.648 C188.708,27.3226667 188.321333,27.1013333 187.884,26.984 C187.446667,26.8666667 187.004,26.808 186.556,26.808 C185.937333,26.808 185.377333,26.9013333 184.876,27.088 C184.374667,27.2746667 183.948,27.544 183.596,27.896 C183.244,28.248 182.974667,28.6853333 182.788,29.208 C182.601333,29.7306667 182.508,30.328 182.508,31 C182.508,31.64 182.593333,32.216 182.764,32.728 C182.934667,33.24 183.185333,33.68 183.516,34.048 C183.846667,34.416 184.257333,34.6986667 184.748,34.896 C185.238667,35.0933333 185.804,35.192 186.444,35.192 Z M188.844,30.088 L183.868,30.088 C183.910667,29.672 184.009333,29.3226667 184.164,29.04 C184.318667,28.7573333 184.516,28.528 184.756,28.352 C184.996,28.176 185.273333,28.0506667 185.588,27.976 C185.902667,27.9013333 186.236,27.864 186.588,27.864 C187.238667,27.864 187.764,28.0586667 188.164,28.448 C188.564,28.8373333 188.790667,29.384 188.844,30.088 L188.844,30.088 Z M198.62,35 L198.62,33.928 L195.548,33.928 L195.548,29.208 C195.612,29.112 195.713333,28.9946667 195.852,28.856 C195.990667,28.7173333 196.158667,28.5786667 196.356,28.44 C196.553333,28.3013333 196.785333,28.184 197.052,28.088 C197.318667,27.992 197.617333,27.944 197.948,27.944 C198.3,27.944 198.542667,28.104 198.676,28.424 C198.809333,28.744 198.876,29.2453333 198.876,29.928 L198.876,29.928 L199.996,29.912 C199.996,29.432 199.974667,29.0026667 199.932,28.624 C199.889333,28.2453333 199.806667,27.9226667 199.684,27.656 C199.561333,27.3893333 199.390667,27.1866667 199.172,27.048 C198.953333,26.9093333 198.662667,26.84 198.3,26.84 C197.681333,26.84 197.148,26.9573333 196.7,27.192 C196.252,27.4266667 195.846667,27.7093333 195.484,28.04 L195.484,28.04 L195.404,28.04 L195.148,27 L192.156,27 L192.156,28.072 L194.316,28.072 L194.316,33.928 L192.156,33.928 L192.156,35 L198.62,35 Z M208.572,35 L208.572,33.928 L205.26,33.928 L205.26,28.072 L208.572,28.072 L208.572,27 L205.26,27 C205.26,26.2106667 205.388,25.6426667 205.644,25.296 C205.9,24.9493333 206.38,24.776 207.084,24.776 C207.297333,24.776 207.532,24.7946667 207.788,24.832 C208.044,24.8693333 208.310667,24.9466667 208.588,25.064 L208.588,25.064 L208.876,24.024 C208.556,23.896 208.257333,23.8106667 207.98,23.768 C207.702667,23.7253333 207.388,23.704 207.036,23.704 C206.065333,23.704 205.318667,23.928 204.796,24.376 C204.273333,24.824 204.012,25.5493333 204.012,26.552 L204.012,26.552 L204.012,27 L202.108,27 L202.108,28.072 L204.012,28.072 L204.012,33.928 L202.108,33.928 L202.108,35 L208.572,35 Z M214.06,35.144 C214.465333,35.144 214.817333,35.0906667 215.116,34.984 C215.414667,34.8773333 215.668,34.752 215.876,34.608 C216.084,34.464 216.252,34.3173333 216.38,34.168 C216.508,34.0186667 216.604,33.896 216.668,33.8 L216.668,33.8 L216.748,33.8 L216.892,35 L219.02,35 L219.02,33.96 L217.948,33.96 C217.884,33.48 217.852,32.9733333 217.852,32.44 C217.862667,31.9813333 217.878667,31.5226667 217.9,31.064 C217.921333,30.6053333 217.932,30.1733333 217.932,29.768 C217.932,29.416 217.897333,29.0666667 217.828,28.72 C217.758667,28.3733333 217.625333,28.064 217.428,27.792 C217.230667,27.52 216.958667,27.2986667 216.612,27.128 C216.265333,26.9573333 215.82,26.872 215.276,26.872 C214.721333,26.872 214.156,26.9306667 213.58,27.048 C213.004,27.1653333 212.486667,27.3573333 212.028,27.624 L212.028,27.624 L212.428,28.552 C212.769333,28.4133333 213.158667,28.2773333 213.596,28.144 C214.033333,28.0106667 214.492,27.944 214.972,27.944 C215.324,27.944 215.62,27.984 215.86,28.064 C216.1,28.144 216.286667,28.28 216.42,28.472 C216.553333,28.664 216.638667,28.9226667 216.676,29.248 C216.713333,29.5733333 216.705333,29.9813333 216.652,30.472 C215.862667,30.3546667 215.150667,30.312 214.516,30.344 C213.881333,30.376 213.34,30.488 212.892,30.68 C212.444,30.872 212.1,31.1493333 211.86,31.512 C211.62,31.8746667 211.5,32.328 211.5,32.872 C211.5,33.576 211.729333,34.1306667 212.188,34.536 C212.646667,34.9413333 213.270667,35.144 214.06,35.144 Z M214.38,34.072 C213.814667,34.072 213.412,33.9413333 213.172,33.68 C212.932,33.4186667 212.812,33.112 212.812,32.76 C212.812,32.4186667 212.908,32.1413333 213.1,31.928 C213.292,31.7146667 213.558667,31.5573333 213.9,31.456 C214.241333,31.3546667 214.646667,31.304 215.116,31.304 C215.585333,31.304 216.097333,31.352 216.652,31.448 L216.652,31.448 L216.652,32.568 C216.588,32.728 216.492,32.896 216.364,33.072 C216.236,33.248 216.076,33.4106667 215.884,33.56 C215.692,33.7093333 215.468,33.832 215.212,33.928 C214.956,34.024 214.678667,34.072 214.38,34.072 Z M225.084,35.192 C225.5,35.192 225.886667,35.1546667 226.244,35.08 C226.601333,35.0053333 226.926667,34.9066667 227.22,34.784 C227.513333,34.6613333 227.772,34.5306667 227.996,34.392 C228.22,34.2533333 228.406667,34.12 228.556,33.992 L228.556,33.992 L227.996,33.064 C227.676,33.3413333 227.278667,33.5653333 226.804,33.736 C226.329333,33.9066667 225.841333,33.992 225.34,33.992 C224.870667,33.992 224.441333,33.9226667 224.052,33.784 C223.662667,33.6453333 223.329333,33.448 223.052,33.192 C222.774667,32.936 222.561333,32.624 222.412,32.256 C222.262667,31.888 222.188,31.4693333 222.188,31 C222.188,29.9333333 222.444,29.1546667 222.956,28.664 C223.468,28.1733333 224.246667,27.928 225.292,27.928 C225.569333,27.928 225.849333,27.9573333 226.132,28.016 C226.414667,28.0746667 226.678667,28.1466667 226.924,28.232 L226.924,28.232 L226.924,29.752 L228.076,29.752 L228.076,27.528 L228.092,27.48 C227.750667,27.3093333 227.332,27.1546667 226.836,27.016 C226.34,26.8773333 225.697333,26.808 224.908,26.808 C224.289333,26.808 223.729333,26.9013333 223.228,27.088 C222.726667,27.2746667 222.3,27.544 221.948,27.896 C221.596,28.248 221.326667,28.6853333 221.14,29.208 C220.953333,29.7306667 220.86,30.328 220.86,31 C220.86,31.6293333 220.950667,32.2026667 221.132,32.72 C221.313333,33.2373333 221.58,33.68 221.932,34.048 C222.284,34.416 222.724,34.6986667 223.252,34.896 C223.78,35.0933333 224.390667,35.192 225.084,35.192 Z M234.444,35.192 C234.785333,35.192 235.124,35.1626667 235.46,35.104 C235.796,35.0453333 236.118667,34.9626667 236.428,34.856 C236.737333,34.7493333 237.022667,34.6213333 237.284,34.472 C237.545333,34.3226667 237.772,34.1626667 237.964,33.992 L237.964,33.992 L237.468,33.08 C237.361333,33.176 237.209333,33.2826667 237.012,33.4 C236.814667,33.5173333 236.588,33.624 236.332,33.72 C236.076,33.816 235.806667,33.8986667 235.524,33.968 C235.241333,34.0373333 234.956,34.072 234.668,34.072 C233.804,34.072 233.113333,33.8346667 232.596,33.36 C232.078667,32.8853333 231.82,32.168 231.82,31.208 L231.82,31.208 L238.012,31.208 C238.065333,30.3013333 238.001333,29.5626667 237.82,28.992 C237.638667,28.4213333 237.38,27.9733333 237.044,27.648 C236.708,27.3226667 236.321333,27.1013333 235.884,26.984 C235.446667,26.8666667 235.004,26.808 234.556,26.808 C233.937333,26.808 233.377333,26.9013333 232.876,27.088 C232.374667,27.2746667 231.948,27.544 231.596,27.896 C231.244,28.248 230.974667,28.6853333 230.788,29.208 C230.601333,29.7306667 230.508,30.328 230.508,31 C230.508,31.64 230.593333,32.216 230.764,32.728 C230.934667,33.24 231.185333,33.68 231.516,34.048 C231.846667,34.416 232.257333,34.6986667 232.748,34.896 C233.238667,35.0933333 233.804,35.192 234.444,35.192 Z M236.844,30.088 L231.868,30.088 C231.910667,29.672 232.009333,29.3226667 232.164,29.04 C232.318667,28.7573333 232.516,28.528 232.756,28.352 C232.996,28.176 233.273333,28.0506667 233.588,27.976 C233.902667,27.9013333 234.236,27.864 234.588,27.864 C235.238667,27.864 235.764,28.0586667 236.164,28.448 C236.564,28.8373333 236.790667,29.384 236.844,30.088 L236.844,30.088 Z" id="ServiceInterface" fill-rule="nonzero"></path>
              </g>
              <g id="Group-33" transform="translate(0.000000, 69.000000)" fill="#25B8E4">
                <rect id="Rectangle-Copy-14" fill-opacity="0.06" x="0" y="0" width="316" height="59" rx="10"></rect>
                <path d="M95.996,35.192 C96.7,35.192 97.2973333,35.1093333 97.788,34.944 C98.2786667,34.7786667 98.684,34.5733333 99.004,34.328 L99.004,34.328 L98.988,34.296 L98.988,32.136 L97.804,32.136 L97.804,33.736 C97.6013333,33.8213333 97.38,33.888 97.14,33.936 C96.9,33.984 96.6413333,34.008 96.364,34.008 C95.82,34.008 95.3266667,33.912 94.884,33.72 C94.4413333,33.528 94.0626667,33.24 93.748,32.856 C93.4333333,32.472 93.188,31.992 93.012,31.416 C92.836,30.84 92.748,30.168 92.748,29.4 C92.748,28.5466667 92.8466667,27.8266667 93.044,27.24 C93.2413333,26.6533333 93.5026667,26.1786667 93.828,25.816 C94.1533333,25.4533333 94.5266667,25.192 94.948,25.032 C95.3693333,24.872 95.7986667,24.792 96.236,24.792 C96.5453333,24.792 96.8093333,24.8106667 97.028,24.848 C97.2466667,24.8853333 97.4466667,24.9413333 97.628,25.016 L97.628,25.016 L97.628,26.728 L98.812,26.728 L98.812,24.2 L98.796,24.2 C98.6466667,24.104 98.4946667,24.0186667 98.34,23.944 C98.1853333,23.8693333 98.0066667,23.808 97.804,23.76 C97.6013333,23.712 97.3666667,23.6746667 97.1,23.648 C96.8333333,23.6213333 96.5186667,23.608 96.156,23.608 C95.4946667,23.608 94.8733333,23.7146667 94.292,23.928 C93.7106667,24.1413333 93.2013333,24.48 92.764,24.944 C92.3266667,25.408 91.98,26.0053333 91.724,26.736 C91.468,27.4666667 91.34,28.3546667 91.34,29.4 C91.34,30.4026667 91.4546667,31.2693333 91.684,32 C91.9133333,32.7306667 92.236,33.3306667 92.652,33.8 C93.068,34.2693333 93.5613333,34.6186667 94.132,34.848 C94.7026667,35.0773333 95.324,35.192 95.996,35.192 Z M105.676,35.208 C105.857333,35.208 106.054667,35.1866667 106.268,35.144 C106.481333,35.1013333 106.694667,35.04 106.908,34.96 C107.121333,34.88 107.329333,34.7813333 107.532,34.664 C107.734667,34.5466667 107.921333,34.4133333 108.092,34.264 L108.092,34.264 L107.516,33.384 C107.185333,33.64 106.884,33.8213333 106.612,33.928 C106.34,34.0346667 106.054667,34.088 105.756,34.088 C105.329333,34.088 105.006667,33.9546667 104.788,33.688 C104.569333,33.4213333 104.46,32.9626667 104.46,32.312 L104.46,32.312 L104.46,23.8 L101.804,23.8 L101.804,24.872 L103.212,24.872 L103.212,32.312 C103.212,32.856 103.265333,33.312 103.372,33.68 C103.478667,34.048 103.636,34.344 103.844,34.568 C104.052,34.792 104.310667,34.9546667 104.62,35.056 C104.929333,35.1573333 105.281333,35.208 105.676,35.208 Z M114.3,35.192 C114.918667,35.192 115.470667,35.0933333 115.956,34.896 C116.441333,34.6986667 116.849333,34.4186667 117.18,34.056 C117.510667,33.6933333 117.761333,33.2533333 117.932,32.736 C118.102667,32.2186667 118.188,31.64 118.188,31 C118.188,30.4133333 118.110667,29.864 117.956,29.352 C117.801333,28.84 117.564,28.3973333 117.244,28.024 C116.924,27.6506667 116.521333,27.3546667 116.036,27.136 C115.550667,26.9173333 114.972,26.808 114.3,26.808 C113.052,26.808 112.092,27.184 111.42,27.936 C110.748,28.688 110.412,29.7093333 110.412,31 C110.412,31.5866667 110.489333,32.136 110.644,32.648 C110.798667,33.16 111.036,33.6026667 111.356,33.976 C111.676,34.3493333 112.081333,34.6453333 112.572,34.864 C113.062667,35.0826667 113.638667,35.192 114.3,35.192 Z M114.3,34.12 C113.830667,34.12 113.433333,34.0293333 113.108,33.848 C112.782667,33.6666667 112.518667,33.4266667 112.316,33.128 C112.113333,32.8293333 111.966667,32.4933333 111.876,32.12 C111.785333,31.7466667 111.74,31.3733333 111.74,31 C111.74,29.9653333 111.953333,29.1866667 112.38,28.664 C112.806667,28.1413333 113.446667,27.88 114.3,27.88 C114.769333,27.88 115.166667,27.9706667 115.492,28.152 C115.817333,28.3333333 116.084,28.5733333 116.292,28.872 C116.5,29.1706667 116.649333,29.504 116.74,29.872 C116.830667,30.24 116.876,30.616 116.876,31 C116.876,32.024 116.66,32.8 116.228,33.328 C115.796,33.856 115.153333,34.12 114.3,34.12 Z M123.34,35.192 C123.990667,35.192 124.545333,35.048 125.004,34.76 C125.462667,34.472 125.830667,34.0986667 126.108,33.64 L126.108,33.64 L126.172,33.64 L126.22,35 L128.348,35 L128.348,33.96 L127.276,33.96 C127.212,33.48 127.18,32.9786667 127.18,32.456 L127.18,32.456 L127.18,27 L124.908,27 L124.908,28.072 L125.932,28.072 L125.932,32.216 C125.718667,32.76 125.406667,33.2133333 124.996,33.576 C124.585333,33.9386667 124.102667,34.12 123.548,34.12 C123.164,34.12 122.857333,34.0586667 122.628,33.936 C122.398667,33.8133333 122.225333,33.632 122.108,33.392 C121.990667,33.152 121.913333,32.8586667 121.876,32.512 C121.838667,32.1653333 121.82,31.7733333 121.82,31.336 L121.82,31.336 L121.82,27 L119.5,27 L119.5,28.072 L120.572,28.072 L120.572,31.592 C120.572,32.2853333 120.625333,32.864 120.732,33.328 C120.838667,33.792 121.004,34.1626667 121.228,34.44 C121.452,34.7173333 121.737333,34.912 122.084,35.024 C122.430667,35.136 122.849333,35.192 123.34,35.192 Z M133.116,35.192 C133.724,35.192 134.26,35.056 134.724,34.784 C135.188,34.512 135.537333,34.1733333 135.772,33.768 L135.772,33.768 L135.836,33.768 L135.996,35 L138.124,35 L138.124,33.96 L137.052,33.96 C137.030667,33.8426667 137.009333,33.7066667 136.988,33.552 C136.966667,33.3973333 136.948,33.24 136.932,33.08 C136.916,32.92 136.902667,32.768 136.892,32.624 C136.881333,32.48 136.876,32.36 136.876,32.264 L136.876,32.264 L136.876,23.8 L134.284,23.8 L134.284,24.872 L135.628,24.872 L135.628,27.144 C135.468,27.1013333 135.321333,27.0613333 135.188,27.024 C135.054667,26.9866667 134.913333,26.9573333 134.764,26.936 C134.614667,26.9146667 134.452,26.8986667 134.276,26.888 C134.1,26.8773333 133.9,26.872 133.676,26.872 C133.057333,26.872 132.497333,26.9626667 131.996,27.144 C131.494667,27.3253333 131.065333,27.5893333 130.708,27.936 C130.350667,28.2826667 130.076,28.7146667 129.884,29.232 C129.692,29.7493333 129.596,30.344 129.596,31.016 C129.596,32.4453333 129.881333,33.4986667 130.452,34.176 C131.022667,34.8533333 131.910667,35.192 133.116,35.192 Z M133.324,34.12 C132.876,34.12 132.497333,34.04 132.188,33.88 C131.878667,33.72 131.630667,33.5013333 131.444,33.224 C131.257333,32.9466667 131.124,32.6186667 131.044,32.24 C130.964,31.8613333 130.924,31.4533333 130.924,31.016 C130.924,29.9493333 131.169333,29.168 131.66,28.672 C132.150667,28.176 132.822667,27.928 133.676,27.928 C134.156,27.928 134.542667,27.9653333 134.836,28.04 C135.129333,28.1146667 135.393333,28.232 135.628,28.392 L135.628,28.392 L135.628,32.104 C135.489333,32.776 135.233333,33.28 134.86,33.616 C134.486667,33.952 133.974667,34.12 133.324,34.12 Z M152.636,35.192 C153.233333,35.192 153.769333,35.1173333 154.244,34.968 C154.718667,34.8186667 155.118667,34.6053333 155.444,34.328 C155.769333,34.0506667 156.02,33.72 156.196,33.336 C156.372,32.952 156.46,32.52 156.46,32.04 C156.46,31.4533333 156.313333,30.9626667 156.02,30.568 C155.726667,30.1733333 155.361333,29.8346667 154.924,29.552 C154.486667,29.2693333 154.012,29.0213333 153.5,28.808 C152.988,28.5946667 152.513333,28.3786667 152.076,28.16 C151.638667,27.9413333 151.273333,27.6933333 150.98,27.416 C150.686667,27.1386667 150.54,26.792 150.54,26.376 C150.54,26.1626667 150.593333,25.96 150.7,25.768 C150.806667,25.576 150.958667,25.408 151.156,25.264 C151.353333,25.12 151.593333,25.0053333 151.876,24.92 C152.158667,24.8346667 152.476,24.792 152.828,24.792 C153.190667,24.792 153.532,24.8133333 153.852,24.856 C154.172,24.8986667 154.465333,24.952 154.732,25.016 L154.732,25.016 L154.732,26.728 L155.916,26.728 L155.916,24.168 L155.932,24.12 L155.916,24.12 L155.916,24.088 L155.884,24.104 C155.574667,23.9546667 155.158667,23.8346667 154.636,23.744 C154.113333,23.6533333 153.532,23.608 152.892,23.608 C152.337333,23.608 151.833333,23.6746667 151.38,23.808 C150.926667,23.9413333 150.54,24.1306667 150.22,24.376 C149.9,24.6213333 149.652,24.92 149.476,25.272 C149.3,25.624 149.212,26.0186667 149.212,26.456 C149.212,27.0746667 149.358667,27.584 149.652,27.984 C149.945333,28.384 150.310667,28.7226667 150.748,29 C151.185333,29.2773333 151.66,29.5173333 152.172,29.72 C152.684,29.9226667 153.158667,30.1306667 153.596,30.344 C154.033333,30.5573333 154.398667,30.8026667 154.692,31.08 C154.985333,31.3573333 155.132,31.7146667 155.132,32.152 C155.132,32.472 155.065333,32.7493333 154.932,32.984 C154.798667,33.2186667 154.617333,33.4133333 154.388,33.568 C154.158667,33.7226667 153.889333,33.8346667 153.58,33.904 C153.270667,33.9733333 152.94,34.008 152.588,34.008 C152.182667,34.008 151.78,33.952 151.38,33.84 C150.98,33.728 150.62,33.5866667 150.3,33.416 L150.3,33.416 L150.3,31.64 L149.116,31.64 L149.116,34.232 L149.1,34.28 C149.238667,34.3546667 149.428,34.4453333 149.668,34.552 C149.908,34.6586667 150.18,34.76 150.484,34.856 C150.788,34.952 151.121333,35.032 151.484,35.096 C151.846667,35.16 152.230667,35.192 152.636,35.192 Z M161.164,35.144 C162.166667,35.144 163.001333,34.9813333 163.668,34.656 C164.334667,34.3306667 164.865333,33.8986667 165.26,33.36 C165.654667,32.8213333 165.932,32.2026667 166.092,31.504 C166.252,30.8053333 166.332,30.0773333 166.332,29.32 C166.332,28.488 166.244,27.7253333 166.068,27.032 C165.892,26.3386667 165.604,25.744 165.204,25.248 C164.804,24.752 164.276,24.3653333 163.62,24.088 C162.964,23.8106667 162.150667,23.672 161.18,23.672 C160.870667,23.672 160.494667,23.68 160.052,23.696 C159.609333,23.712 159.185333,23.7466667 158.78,23.8 L158.78,23.8 L158.78,35.016 C158.886667,35.0373333 159.046667,35.0533333 159.26,35.064 C159.473333,35.0746667 159.697333,35.088 159.932,35.104 C160.166667,35.12 160.396,35.1306667 160.62,35.136 C160.844,35.1413333 161.025333,35.144 161.164,35.144 Z M161.212,33.96 C161.148,33.96 161.065333,33.9573333 160.964,33.952 C160.862667,33.9466667 160.758667,33.9413333 160.652,33.936 L160.494,33.928 L160.494,33.928 L160.34,33.92 C160.238667,33.9146667 160.161333,33.9066667 160.108,33.896 L160.108,33.896 L160.108,24.936 C160.257333,24.904 160.446667,24.8826667 160.676,24.872 C160.905333,24.8613333 161.094667,24.856 161.244,24.856 C162.033333,24.856 162.670667,24.992 163.156,25.264 C163.641333,25.536 164.014667,25.8853333 164.276,26.312 C164.537333,26.7386667 164.710667,27.216 164.796,27.744 C164.881333,28.272 164.924,28.7973333 164.924,29.32 C164.924,29.9173333 164.876,30.496 164.78,31.056 C164.684,31.616 164.502667,32.112 164.236,32.544 C163.969333,32.976 163.593333,33.32 163.108,33.576 C162.622667,33.832 161.990667,33.96 161.212,33.96 Z M169.788,35 L169.788,29.816 L171.02,29.816 L174.94,35 L176.62,35 L172.172,29.128 L176.124,23.8 L174.588,23.8 L170.988,28.792 L169.788,28.792 L169.788,23.8 L168.46,23.8 L168.46,35 L169.788,35 Z M191.996,35.192 C192.7,35.192 193.297333,35.1093333 193.788,34.944 C194.278667,34.7786667 194.684,34.5733333 195.004,34.328 L195.004,34.328 L194.988,34.296 L194.988,32.136 L193.804,32.136 L193.804,33.736 C193.601333,33.8213333 193.38,33.888 193.14,33.936 C192.9,33.984 192.641333,34.008 192.364,34.008 C191.82,34.008 191.326667,33.912 190.884,33.72 C190.441333,33.528 190.062667,33.24 189.748,32.856 C189.433333,32.472 189.188,31.992 189.012,31.416 C188.836,30.84 188.748,30.168 188.748,29.4 C188.748,28.5466667 188.846667,27.8266667 189.044,27.24 C189.241333,26.6533333 189.502667,26.1786667 189.828,25.816 C190.153333,25.4533333 190.526667,25.192 190.948,25.032 C191.369333,24.872 191.798667,24.792 192.236,24.792 C192.545333,24.792 192.809333,24.8106667 193.028,24.848 C193.246667,24.8853333 193.446667,24.9413333 193.628,25.016 L193.628,25.016 L193.628,26.728 L194.812,26.728 L194.812,24.2 L194.796,24.2 C194.646667,24.104 194.494667,24.0186667 194.34,23.944 C194.185333,23.8693333 194.006667,23.808 193.804,23.76 C193.601333,23.712 193.366667,23.6746667 193.1,23.648 C192.833333,23.6213333 192.518667,23.608 192.156,23.608 C191.494667,23.608 190.873333,23.7146667 190.292,23.928 C189.710667,24.1413333 189.201333,24.48 188.764,24.944 C188.326667,25.408 187.98,26.0053333 187.724,26.736 C187.468,27.4666667 187.34,28.3546667 187.34,29.4 C187.34,30.4026667 187.454667,31.2693333 187.684,32 C187.913333,32.7306667 188.236,33.3306667 188.652,33.8 C189.068,34.2693333 189.561333,34.6186667 190.132,34.848 C190.702667,35.0773333 191.324,35.192 191.996,35.192 Z M200.7,35.192 C201.318667,35.192 201.870667,35.0933333 202.356,34.896 C202.841333,34.6986667 203.249333,34.4186667 203.58,34.056 C203.910667,33.6933333 204.161333,33.2533333 204.332,32.736 C204.502667,32.2186667 204.588,31.64 204.588,31 C204.588,30.4133333 204.510667,29.864 204.356,29.352 C204.201333,28.84 203.964,28.3973333 203.644,28.024 C203.324,27.6506667 202.921333,27.3546667 202.436,27.136 C201.950667,26.9173333 201.372,26.808 200.7,26.808 C199.452,26.808 198.492,27.184 197.82,27.936 C197.148,28.688 196.812,29.7093333 196.812,31 C196.812,31.5866667 196.889333,32.136 197.044,32.648 C197.198667,33.16 197.436,33.6026667 197.756,33.976 C198.076,34.3493333 198.481333,34.6453333 198.972,34.864 C199.462667,35.0826667 200.038667,35.192 200.7,35.192 Z M200.7,34.12 C200.230667,34.12 199.833333,34.0293333 199.508,33.848 C199.182667,33.6666667 198.918667,33.4266667 198.716,33.128 C198.513333,32.8293333 198.366667,32.4933333 198.276,32.12 C198.185333,31.7466667 198.14,31.3733333 198.14,31 C198.14,29.9653333 198.353333,29.1866667 198.78,28.664 C199.206667,28.1413333 199.846667,27.88 200.7,27.88 C201.169333,27.88 201.566667,27.9706667 201.892,28.152 C202.217333,28.3333333 202.484,28.5733333 202.692,28.872 C202.9,29.1706667 203.049333,29.504 203.14,29.872 C203.230667,30.24 203.276,30.616 203.276,31 C203.276,32.024 203.06,32.8 202.628,33.328 C202.196,33.856 201.553333,34.12 200.7,34.12 Z M213.02,35 L213.02,33.928 L209.948,33.928 L209.948,29.208 C210.012,29.112 210.113333,28.9946667 210.252,28.856 C210.390667,28.7173333 210.558667,28.5786667 210.756,28.44 C210.953333,28.3013333 211.185333,28.184 211.452,28.088 C211.718667,27.992 212.017333,27.944 212.348,27.944 C212.7,27.944 212.942667,28.104 213.076,28.424 C213.209333,28.744 213.276,29.2453333 213.276,29.928 L213.276,29.928 L214.396,29.912 C214.396,29.432 214.374667,29.0026667 214.332,28.624 C214.289333,28.2453333 214.206667,27.9226667 214.084,27.656 C213.961333,27.3893333 213.790667,27.1866667 213.572,27.048 C213.353333,26.9093333 213.062667,26.84 212.7,26.84 C212.081333,26.84 211.548,26.9573333 211.1,27.192 C210.652,27.4266667 210.246667,27.7093333 209.884,28.04 L209.884,28.04 L209.804,28.04 L209.548,27 L206.556,27 L206.556,28.072 L208.716,28.072 L208.716,33.928 L206.556,33.928 L206.556,35 L213.02,35 Z M220.044,35.192 C220.385333,35.192 220.724,35.1626667 221.06,35.104 C221.396,35.0453333 221.718667,34.9626667 222.028,34.856 C222.337333,34.7493333 222.622667,34.6213333 222.884,34.472 C223.145333,34.3226667 223.372,34.1626667 223.564,33.992 L223.564,33.992 L223.068,33.08 C222.961333,33.176 222.809333,33.2826667 222.612,33.4 C222.414667,33.5173333 222.188,33.624 221.932,33.72 C221.676,33.816 221.406667,33.8986667 221.124,33.968 C220.841333,34.0373333 220.556,34.072 220.268,34.072 C219.404,34.072 218.713333,33.8346667 218.196,33.36 C217.678667,32.8853333 217.42,32.168 217.42,31.208 L217.42,31.208 L223.612,31.208 C223.665333,30.3013333 223.601333,29.5626667 223.42,28.992 C223.238667,28.4213333 222.98,27.9733333 222.644,27.648 C222.308,27.3226667 221.921333,27.1013333 221.484,26.984 C221.046667,26.8666667 220.604,26.808 220.156,26.808 C219.537333,26.808 218.977333,26.9013333 218.476,27.088 C217.974667,27.2746667 217.548,27.544 217.196,27.896 C216.844,28.248 216.574667,28.6853333 216.388,29.208 C216.201333,29.7306667 216.108,30.328 216.108,31 C216.108,31.64 216.193333,32.216 216.364,32.728 C216.534667,33.24 216.785333,33.68 217.116,34.048 C217.446667,34.416 217.857333,34.6986667 218.348,34.896 C218.838667,35.0933333 219.404,35.192 220.044,35.192 Z M222.444,30.088 L217.468,30.088 C217.510667,29.672 217.609333,29.3226667 217.764,29.04 C217.918667,28.7573333 218.116,28.528 218.356,28.352 C218.596,28.176 218.873333,28.0506667 219.188,27.976 C219.502667,27.9013333 219.836,27.864 220.188,27.864 C220.838667,27.864 221.364,28.0586667 221.764,28.448 C222.164,28.8373333 222.390667,29.384 222.444,30.088 L222.444,30.088 Z" id="CloudSDKCore" fill-rule="nonzero"></path>
              </g>
              <g id="Group-29" transform="translate(0.000000, 138.000000)" fill="#25B8E4">
                <rect id="Rectangle-Copy-15" fill-opacity="0.06" x="0" y="0" width="316" height="59" rx="10"></rect>
                <path d="M73.516,35 L73.516,33.816 L71.756,33.816 L71.756,24.984 L74.076,24.984 L74.076,26.728 L75.26,26.728 L75.26,23.8 L66.94,23.8 L66.94,26.728 L68.124,26.728 L68.124,24.984 L70.428,24.984 L70.428,33.816 L68.668,33.816 L68.668,35 L73.516,35 Z M83.42,35 L83.42,33.928 L80.348,33.928 L80.348,29.208 C80.412,29.112 80.5133333,28.9946667 80.652,28.856 C80.7906667,28.7173333 80.9586667,28.5786667 81.156,28.44 C81.3533333,28.3013333 81.5853333,28.184 81.852,28.088 C82.1186667,27.992 82.4173333,27.944 82.748,27.944 C83.1,27.944 83.3426667,28.104 83.476,28.424 C83.6093333,28.744 83.676,29.2453333 83.676,29.928 L83.676,29.928 L84.796,29.912 C84.796,29.432 84.7746667,29.0026667 84.732,28.624 C84.6893333,28.2453333 84.6066667,27.9226667 84.484,27.656 C84.3613333,27.3893333 84.1906667,27.1866667 83.972,27.048 C83.7533333,26.9093333 83.4626667,26.84 83.1,26.84 C82.4813333,26.84 81.948,26.9573333 81.5,27.192 C81.052,27.4266667 80.6466667,27.7093333 80.284,28.04 L80.284,28.04 L80.204,28.04 L79.948,27 L76.956,27 L76.956,28.072 L79.116,28.072 L79.116,33.928 L76.956,33.928 L76.956,35 L83.42,35 Z M89.26,35.144 C89.6653333,35.144 90.0173333,35.0906667 90.316,34.984 C90.6146667,34.8773333 90.868,34.752 91.076,34.608 C91.284,34.464 91.452,34.3173333 91.58,34.168 C91.708,34.0186667 91.804,33.896 91.868,33.8 L91.868,33.8 L91.948,33.8 L92.092,35 L94.22,35 L94.22,33.96 L93.148,33.96 C93.084,33.48 93.052,32.9733333 93.052,32.44 C93.0626667,31.9813333 93.0786667,31.5226667 93.1,31.064 C93.1213333,30.6053333 93.132,30.1733333 93.132,29.768 C93.132,29.416 93.0973333,29.0666667 93.028,28.72 C92.9586667,28.3733333 92.8253333,28.064 92.628,27.792 C92.4306667,27.52 92.1586667,27.2986667 91.812,27.128 C91.4653333,26.9573333 91.02,26.872 90.476,26.872 C89.9213333,26.872 89.356,26.9306667 88.78,27.048 C88.204,27.1653333 87.6866667,27.3573333 87.228,27.624 L87.228,27.624 L87.628,28.552 C87.9693333,28.4133333 88.3586667,28.2773333 88.796,28.144 C89.2333333,28.0106667 89.692,27.944 90.172,27.944 C90.524,27.944 90.82,27.984 91.06,28.064 C91.3,28.144 91.4866667,28.28 91.62,28.472 C91.7533333,28.664 91.8386667,28.9226667 91.876,29.248 C91.9133333,29.5733333 91.9053333,29.9813333 91.852,30.472 C91.0626667,30.3546667 90.3506667,30.312 89.716,30.344 C89.0813333,30.376 88.54,30.488 88.092,30.68 C87.644,30.872 87.3,31.1493333 87.06,31.512 C86.82,31.8746667 86.7,32.328 86.7,32.872 C86.7,33.576 86.9293333,34.1306667 87.388,34.536 C87.8466667,34.9413333 88.4706667,35.144 89.26,35.144 Z M89.58,34.072 C89.0146667,34.072 88.612,33.9413333 88.372,33.68 C88.132,33.4186667 88.012,33.112 88.012,32.76 C88.012,32.4186667 88.108,32.1413333 88.3,31.928 C88.492,31.7146667 88.7586667,31.5573333 89.1,31.456 C89.4413333,31.3546667 89.8466667,31.304 90.316,31.304 C90.7853333,31.304 91.2973333,31.352 91.852,31.448 L91.852,31.448 L91.852,32.568 C91.788,32.728 91.692,32.896 91.564,33.072 C91.436,33.248 91.276,33.4106667 91.084,33.56 C90.892,33.7093333 90.668,33.832 90.412,33.928 C90.156,34.024 89.8786667,34.072 89.58,34.072 Z M97.82,35 L97.82,29.976 C97.8946667,29.7093333 98.012,29.456 98.172,29.216 C98.332,28.976 98.5186667,28.7653333 98.732,28.584 C98.9453333,28.4026667 99.1826667,28.256 99.444,28.144 C99.7053333,28.032 99.9746667,27.976 100.252,27.976 C101.009333,27.976 101.532,28.2 101.82,28.648 C102.108,29.096 102.252,29.7626667 102.252,30.648 L102.252,30.648 L102.252,35 L103.5,35 L103.5,30.408 C103.5,29.6933333 103.436,29.104 103.308,28.64 C103.18,28.176 102.990667,27.808 102.74,27.536 C102.489333,27.264 102.174667,27.0746667 101.796,26.968 C101.417333,26.8613333 100.982667,26.808 100.492,26.808 C100.172,26.808 99.868,26.8506667 99.58,26.936 C99.292,27.0213333 99.0306667,27.136 98.796,27.28 C98.5613333,27.424 98.356,27.584 98.18,27.76 C98.004,27.936 97.8626667,28.1146667 97.756,28.296 L97.756,28.296 L97.676,28.296 L97.532,27 L95.388,27 L95.388,28.04 L96.46,28.04 C96.4813333,28.1573333 96.5,28.296 96.516,28.456 C96.532,28.616 96.5453333,28.7786667 96.556,28.944 C96.5666667,29.1093333 96.5746667,29.2693333 96.58,29.424 C96.5853333,29.5786667 96.588,29.704 96.588,29.8 L96.588,29.8 L96.588,35 L97.82,35 Z M109.468,35.192 C110.630667,35.192 111.502667,34.952 112.084,34.472 C112.665333,33.992 112.956,33.384 112.956,32.648 C112.956,32.1573333 112.822667,31.768 112.556,31.48 C112.289333,31.192 111.958667,30.9626667 111.564,30.792 C111.169333,30.6213333 110.74,30.4906667 110.276,30.4 C109.812,30.3093333 109.382667,30.2133333 108.988,30.112 C108.593333,30.0106667 108.262667,29.8853333 107.996,29.736 C107.729333,29.5866667 107.596,29.3733333 107.596,29.096 C107.596,28.872 107.652,28.6826667 107.764,28.528 C107.876,28.3733333 108.025333,28.248 108.212,28.152 C108.398667,28.056 108.606667,27.984 108.836,27.936 C109.065333,27.888 109.297333,27.864 109.532,27.864 C110.150667,27.864 110.665333,27.952 111.076,28.128 C111.486667,28.304 111.868,28.488 112.22,28.68 L112.22,28.68 L112.732,27.672 C112.412,27.4693333 111.982667,27.2746667 111.444,27.088 C110.905333,26.9013333 110.262667,26.808 109.516,26.808 C109.1,26.808 108.7,26.8533333 108.316,26.944 C107.932,27.0346667 107.596,27.1733333 107.308,27.36 C107.02,27.5466667 106.788,27.784 106.612,28.072 C106.436,28.36 106.348,28.7066667 106.348,29.112 C106.348,29.6026667 106.481333,29.984 106.748,30.256 C107.014667,30.528 107.345333,30.744 107.74,30.904 C108.134667,31.064 108.564,31.192 109.028,31.288 C109.492,31.384 109.921333,31.488 110.316,31.6 C110.710667,31.712 111.041333,31.8613333 111.308,32.048 C111.574667,32.2346667 111.708,32.4986667 111.708,32.84 C111.708,33.0746667 111.652,33.2746667 111.54,33.44 C111.428,33.6053333 111.276,33.7386667 111.084,33.84 C110.892,33.9413333 110.670667,34.016 110.42,34.064 C110.169333,34.112 109.9,34.136 109.612,34.136 C109.313333,34.136 109.017333,34.104 108.724,34.04 C108.430667,33.976 108.156,33.8906667 107.9,33.784 C107.644,33.6773333 107.409333,33.5573333 107.196,33.424 C106.982667,33.2906667 106.812,33.16 106.684,33.032 L106.684,33.032 L106.044,34.072 C106.204,34.2106667 106.406667,34.3466667 106.652,34.48 C106.897333,34.6133333 107.169333,34.7333333 107.468,34.84 C107.766667,34.9466667 108.086667,35.032 108.428,35.096 C108.769333,35.16 109.116,35.192 109.468,35.192 Z M117.068,38.2 L117.068,34.84 C117.228,34.904 117.377333,34.9573333 117.516,35 C117.654667,35.0426667 117.796,35.0773333 117.94,35.104 C118.084,35.1306667 118.244,35.152 118.42,35.168 C118.596,35.184 118.796,35.192 119.02,35.192 C119.638667,35.192 120.204,35.0906667 120.716,34.888 C121.228,34.6853333 121.665333,34.3973333 122.028,34.024 C122.390667,33.6506667 122.670667,33.1946667 122.868,32.656 C123.065333,32.1173333 123.164,31.512 123.164,30.84 C123.164,29.4106667 122.876,28.3813333 122.3,27.752 C121.724,27.1226667 120.865333,26.808 119.724,26.808 C119.084,26.808 118.542667,26.9333333 118.1,27.184 C117.657333,27.4346667 117.292,27.7466667 117.004,28.12 L117.004,28.12 L116.924,28.12 L116.764,27 L114.636,27 L114.636,28.04 L115.708,28.04 C115.729333,28.1573333 115.748,28.296 115.764,28.456 C115.78,28.616 115.793333,28.7786667 115.804,28.944 C115.814667,29.1093333 115.822667,29.2693333 115.828,29.424 C115.833333,29.5786667 115.836,29.704 115.836,29.8 L115.836,29.8 L115.836,38.2 L117.068,38.2 Z M119.02,34.12 C118.54,34.12 118.153333,34.0746667 117.86,33.984 C117.566667,33.8933333 117.302667,33.768 117.068,33.608 L117.068,33.608 L117.068,29.96 C117.1,29.7253333 117.185333,29.4906667 117.324,29.256 C117.462667,29.0213333 117.641333,28.808 117.86,28.616 C118.078667,28.424 118.329333,28.2693333 118.612,28.152 C118.894667,28.0346667 119.196,27.976 119.516,27.976 C120.348,27.976 120.942667,28.224 121.3,28.72 C121.657333,29.216 121.836,29.9173333 121.836,30.824 C121.836,31.9013333 121.58,32.72 121.068,33.28 C120.556,33.84 119.873333,34.12 119.02,34.12 Z M128.7,35.192 C129.318667,35.192 129.870667,35.0933333 130.356,34.896 C130.841333,34.6986667 131.249333,34.4186667 131.58,34.056 C131.910667,33.6933333 132.161333,33.2533333 132.332,32.736 C132.502667,32.2186667 132.588,31.64 132.588,31 C132.588,30.4133333 132.510667,29.864 132.356,29.352 C132.201333,28.84 131.964,28.3973333 131.644,28.024 C131.324,27.6506667 130.921333,27.3546667 130.436,27.136 C129.950667,26.9173333 129.372,26.808 128.7,26.808 C127.452,26.808 126.492,27.184 125.82,27.936 C125.148,28.688 124.812,29.7093333 124.812,31 C124.812,31.5866667 124.889333,32.136 125.044,32.648 C125.198667,33.16 125.436,33.6026667 125.756,33.976 C126.076,34.3493333 126.481333,34.6453333 126.972,34.864 C127.462667,35.0826667 128.038667,35.192 128.7,35.192 Z M128.7,34.12 C128.230667,34.12 127.833333,34.0293333 127.508,33.848 C127.182667,33.6666667 126.918667,33.4266667 126.716,33.128 C126.513333,32.8293333 126.366667,32.4933333 126.276,32.12 C126.185333,31.7466667 126.14,31.3733333 126.14,31 C126.14,29.9653333 126.353333,29.1866667 126.78,28.664 C127.206667,28.1413333 127.846667,27.88 128.7,27.88 C129.169333,27.88 129.566667,27.9706667 129.892,28.152 C130.217333,28.3333333 130.484,28.5733333 130.692,28.872 C130.9,29.1706667 131.049333,29.504 131.14,29.872 C131.230667,30.24 131.276,30.616 131.276,31 C131.276,32.024 131.06,32.8 130.628,33.328 C130.196,33.856 129.553333,34.12 128.7,34.12 Z M141.02,35 L141.02,33.928 L137.948,33.928 L137.948,29.208 C138.012,29.112 138.113333,28.9946667 138.252,28.856 C138.390667,28.7173333 138.558667,28.5786667 138.756,28.44 C138.953333,28.3013333 139.185333,28.184 139.452,28.088 C139.718667,27.992 140.017333,27.944 140.348,27.944 C140.7,27.944 140.942667,28.104 141.076,28.424 C141.209333,28.744 141.276,29.2453333 141.276,29.928 L141.276,29.928 L142.396,29.912 C142.396,29.432 142.374667,29.0026667 142.332,28.624 C142.289333,28.2453333 142.206667,27.9226667 142.084,27.656 C141.961333,27.3893333 141.790667,27.1866667 141.572,27.048 C141.353333,26.9093333 141.062667,26.84 140.7,26.84 C140.081333,26.84 139.548,26.9573333 139.1,27.192 C138.652,27.4266667 138.246667,27.7093333 137.884,28.04 L137.884,28.04 L137.804,28.04 L137.548,27 L134.556,27 L134.556,28.072 L136.716,28.072 L136.716,33.928 L134.556,33.928 L134.556,35 L141.02,35 Z M148.652,35.208 C149.196,35.208 149.726667,35.1173333 150.244,34.936 C150.761333,34.7546667 151.206667,34.5146667 151.58,34.216 L151.58,34.216 L151.164,33.272 C150.876,33.4853333 150.553333,33.6826667 150.196,33.864 C149.838667,34.0453333 149.42,34.136 148.94,34.136 C148.236,34.136 147.694667,33.9493333 147.316,33.576 C146.937333,33.2026667 146.748,32.6266667 146.748,31.848 L146.748,31.848 L146.748,28.072 L151.02,28.072 L151.02,27 L146.748,27 L146.748,25.064 L145.5,25.416 L145.5,27 L143.596,27 L143.596,28.072 L145.5,28.072 L145.5,32.04 C145.5,32.5946667 145.585333,33.072 145.756,33.472 C145.926667,33.872 146.156,34.2 146.444,34.456 C146.732,34.712 147.065333,34.9013333 147.444,35.024 C147.822667,35.1466667 148.225333,35.208 148.652,35.208 Z M170.94,35 L170.94,33.816 L167.756,33.816 L167.756,24.984 L170.94,24.984 L170.94,23.8 L163.26,23.8 L163.26,24.984 L166.428,24.984 L166.428,33.816 L163.26,33.816 L163.26,35 L170.94,35 Z M174.62,35 L174.62,29.976 C174.694667,29.7093333 174.812,29.456 174.972,29.216 C175.132,28.976 175.318667,28.7653333 175.532,28.584 C175.745333,28.4026667 175.982667,28.256 176.244,28.144 C176.505333,28.032 176.774667,27.976 177.052,27.976 C177.809333,27.976 178.332,28.2 178.62,28.648 C178.908,29.096 179.052,29.7626667 179.052,30.648 L179.052,30.648 L179.052,35 L180.3,35 L180.3,30.408 C180.3,29.6933333 180.236,29.104 180.108,28.64 C179.98,28.176 179.790667,27.808 179.54,27.536 C179.289333,27.264 178.974667,27.0746667 178.596,26.968 C178.217333,26.8613333 177.782667,26.808 177.292,26.808 C176.972,26.808 176.668,26.8506667 176.38,26.936 C176.092,27.0213333 175.830667,27.136 175.596,27.28 C175.361333,27.424 175.156,27.584 174.98,27.76 C174.804,27.936 174.662667,28.1146667 174.556,28.296 L174.556,28.296 L174.476,28.296 L174.332,27 L172.188,27 L172.188,28.04 L173.26,28.04 C173.281333,28.1573333 173.3,28.296 173.316,28.456 C173.332,28.616 173.345333,28.7786667 173.356,28.944 C173.366667,29.1093333 173.374667,29.2693333 173.38,29.424 C173.385333,29.5786667 173.388,29.704 173.388,29.8 L173.388,35 L174.62,35 Z M187.052,35.208 C187.596,35.208 188.126667,35.1173333 188.644,34.936 C189.161333,34.7546667 189.606667,34.5146667 189.98,34.216 L189.98,34.216 L189.564,33.272 C189.276,33.4853333 188.953333,33.6826667 188.596,33.864 C188.238667,34.0453333 187.82,34.136 187.34,34.136 C186.636,34.136 186.094667,33.9493333 185.716,33.576 C185.337333,33.2026667 185.148,32.6266667 185.148,31.848 L185.148,31.848 L185.148,28.072 L189.42,28.072 L189.42,27 L185.148,27 L185.148,25.064 L183.9,25.416 L183.9,27 L181.996,27 L181.996,28.072 L183.9,28.072 L183.9,32.04 C183.9,32.5946667 183.985333,33.072 184.156,33.472 C184.326667,33.872 184.556,34.2 184.844,34.456 C185.132,34.712 185.465333,34.9013333 185.844,35.024 C186.222667,35.1466667 186.625333,35.208 187.052,35.208 Z M196.044,35.192 C196.385333,35.192 196.724,35.1626667 197.06,35.104 C197.396,35.0453333 197.718667,34.9626667 198.028,34.856 C198.337333,34.7493333 198.622667,34.6213333 198.884,34.472 C199.145333,34.3226667 199.372,34.1626667 199.564,33.992 L199.564,33.992 L199.068,33.08 C198.961333,33.176 198.809333,33.2826667 198.612,33.4 C198.414667,33.5173333 198.188,33.624 197.932,33.72 C197.676,33.816 197.406667,33.8986667 197.124,33.968 C196.841333,34.0373333 196.556,34.072 196.268,34.072 C195.404,34.072 194.713333,33.8346667 194.196,33.36 C193.678667,32.8853333 193.42,32.168 193.42,31.208 L193.42,31.208 L199.612,31.208 C199.665333,30.3013333 199.601333,29.5626667 199.42,28.992 C199.238667,28.4213333 198.98,27.9733333 198.644,27.648 C198.308,27.3226667 197.921333,27.1013333 197.484,26.984 C197.046667,26.8666667 196.604,26.808 196.156,26.808 C195.537333,26.808 194.977333,26.9013333 194.476,27.088 C193.974667,27.2746667 193.548,27.544 193.196,27.896 C192.844,28.248 192.574667,28.6853333 192.388,29.208 C192.201333,29.7306667 192.108,30.328 192.108,31 C192.108,31.64 192.193333,32.216 192.364,32.728 C192.534667,33.24 192.785333,33.68 193.116,34.048 C193.446667,34.416 193.857333,34.6986667 194.348,34.896 C194.838667,35.0933333 195.404,35.192 196.044,35.192 Z M198.444,30.088 L193.468,30.088 C193.510667,29.672 193.609333,29.3226667 193.764,29.04 C193.918667,28.7573333 194.116,28.528 194.356,28.352 C194.596,28.176 194.873333,28.0506667 195.188,27.976 C195.502667,27.9013333 195.836,27.864 196.188,27.864 C196.838667,27.864 197.364,28.0586667 197.764,28.448 C198.164,28.8373333 198.390667,29.384 198.444,30.088 L198.444,30.088 Z M208.22,35 L208.22,33.928 L205.148,33.928 L205.148,29.208 C205.212,29.112 205.313333,28.9946667 205.452,28.856 C205.590667,28.7173333 205.758667,28.5786667 205.956,28.44 C206.153333,28.3013333 206.385333,28.184 206.652,28.088 C206.918667,27.992 207.217333,27.944 207.548,27.944 C207.9,27.944 208.142667,28.104 208.276,28.424 C208.409333,28.744 208.476,29.2453333 208.476,29.928 L208.476,29.928 L209.596,29.912 C209.596,29.432 209.574667,29.0026667 209.532,28.624 C209.489333,28.2453333 209.406667,27.9226667 209.284,27.656 C209.161333,27.3893333 208.990667,27.1866667 208.772,27.048 C208.553333,26.9093333 208.262667,26.84 207.9,26.84 C207.281333,26.84 206.748,26.9573333 206.3,27.192 C205.852,27.4266667 205.446667,27.7093333 205.084,28.04 L205.084,28.04 L205.004,28.04 L204.748,27 L201.756,27 L201.756,28.072 L203.916,28.072 L203.916,33.928 L201.756,33.928 L201.756,35 L208.22,35 Z M218.172,35 L218.172,33.928 L214.86,33.928 L214.86,28.072 L218.172,28.072 L218.172,27 L214.86,27 C214.86,26.2106667 214.988,25.6426667 215.244,25.296 C215.5,24.9493333 215.98,24.776 216.684,24.776 C216.897333,24.776 217.132,24.7946667 217.388,24.832 C217.644,24.8693333 217.910667,24.9466667 218.188,25.064 L218.188,25.064 L218.476,24.024 C218.156,23.896 217.857333,23.8106667 217.58,23.768 C217.302667,23.7253333 216.988,23.704 216.636,23.704 C215.665333,23.704 214.918667,23.928 214.396,24.376 C213.873333,24.824 213.612,25.5493333 213.612,26.552 L213.612,26.552 L213.612,27 L211.708,27 L211.708,28.072 L213.612,28.072 L213.612,33.928 L211.708,33.928 L211.708,35 L218.172,35 Z M223.66,35.144 C224.065333,35.144 224.417333,35.0906667 224.716,34.984 C225.014667,34.8773333 225.268,34.752 225.476,34.608 C225.684,34.464 225.852,34.3173333 225.98,34.168 C226.108,34.0186667 226.204,33.896 226.268,33.8 L226.268,33.8 L226.348,33.8 L226.492,35 L228.62,35 L228.62,33.96 L227.548,33.96 C227.484,33.48 227.452,32.9733333 227.452,32.44 C227.462667,31.9813333 227.478667,31.5226667 227.5,31.064 C227.521333,30.6053333 227.532,30.1733333 227.532,29.768 C227.532,29.416 227.497333,29.0666667 227.428,28.72 C227.358667,28.3733333 227.225333,28.064 227.028,27.792 C226.830667,27.52 226.558667,27.2986667 226.212,27.128 C225.865333,26.9573333 225.42,26.872 224.876,26.872 C224.321333,26.872 223.756,26.9306667 223.18,27.048 C222.604,27.1653333 222.086667,27.3573333 221.628,27.624 L221.628,27.624 L222.028,28.552 C222.369333,28.4133333 222.758667,28.2773333 223.196,28.144 C223.633333,28.0106667 224.092,27.944 224.572,27.944 C224.924,27.944 225.22,27.984 225.46,28.064 C225.7,28.144 225.886667,28.28 226.02,28.472 C226.153333,28.664 226.238667,28.9226667 226.276,29.248 C226.313333,29.5733333 226.305333,29.9813333 226.252,30.472 C225.462667,30.3546667 224.750667,30.312 224.116,30.344 C223.481333,30.376 222.94,30.488 222.492,30.68 C222.044,30.872 221.7,31.1493333 221.46,31.512 C221.22,31.8746667 221.1,32.328 221.1,32.872 C221.1,33.576 221.329333,34.1306667 221.788,34.536 C222.246667,34.9413333 222.870667,35.144 223.66,35.144 Z M223.98,34.072 C223.414667,34.072 223.012,33.9413333 222.772,33.68 C222.532,33.4186667 222.412,33.112 222.412,32.76 C222.412,32.4186667 222.508,32.1413333 222.7,31.928 C222.892,31.7146667 223.158667,31.5573333 223.5,31.456 C223.841333,31.3546667 224.246667,31.304 224.716,31.304 C225.185333,31.304 225.697333,31.352 226.252,31.448 L226.252,31.448 L226.252,32.568 C226.188,32.728 226.092,32.896 225.964,33.072 C225.836,33.248 225.676,33.4106667 225.484,33.56 C225.292,33.7093333 225.068,33.832 224.812,33.928 C224.556,34.024 224.278667,34.072 223.98,34.072 Z M234.684,35.192 C235.1,35.192 235.486667,35.1546667 235.844,35.08 C236.201333,35.0053333 236.526667,34.9066667 236.82,34.784 C237.113333,34.6613333 237.372,34.5306667 237.596,34.392 C237.82,34.2533333 238.006667,34.12 238.156,33.992 L238.156,33.992 L237.596,33.064 C237.276,33.3413333 236.878667,33.5653333 236.404,33.736 C235.929333,33.9066667 235.441333,33.992 234.94,33.992 C234.470667,33.992 234.041333,33.9226667 233.652,33.784 C233.262667,33.6453333 232.929333,33.448 232.652,33.192 C232.374667,32.936 232.161333,32.624 232.012,32.256 C231.862667,31.888 231.788,31.4693333 231.788,31 C231.788,29.9333333 232.044,29.1546667 232.556,28.664 C233.068,28.1733333 233.846667,27.928 234.892,27.928 C235.169333,27.928 235.449333,27.9573333 235.732,28.016 C236.014667,28.0746667 236.278667,28.1466667 236.524,28.232 L236.524,28.232 L236.524,29.752 L237.676,29.752 L237.676,27.528 L237.692,27.48 C237.350667,27.3093333 236.932,27.1546667 236.436,27.016 C235.94,26.8773333 235.297333,26.808 234.508,26.808 C233.889333,26.808 233.329333,26.9013333 232.828,27.088 C232.326667,27.2746667 231.9,27.544 231.548,27.896 C231.196,28.248 230.926667,28.6853333 230.74,29.208 C230.553333,29.7306667 230.46,30.328 230.46,31 C230.46,31.6293333 230.550667,32.2026667 230.732,32.72 C230.913333,33.2373333 231.18,33.68 231.532,34.048 C231.884,34.416 232.324,34.6986667 232.852,34.896 C233.38,35.0933333 233.990667,35.192 234.684,35.192 Z M244.044,35.192 C244.385333,35.192 244.724,35.1626667 245.06,35.104 C245.396,35.0453333 245.718667,34.9626667 246.028,34.856 C246.337333,34.7493333 246.622667,34.6213333 246.884,34.472 C247.145333,34.3226667 247.372,34.1626667 247.564,33.992 L247.564,33.992 L247.068,33.08 C246.961333,33.176 246.809333,33.2826667 246.612,33.4 C246.414667,33.5173333 246.188,33.624 245.932,33.72 C245.676,33.816 245.406667,33.8986667 245.124,33.968 C244.841333,34.0373333 244.556,34.072 244.268,34.072 C243.404,34.072 242.713333,33.8346667 242.196,33.36 C241.678667,32.8853333 241.42,32.168 241.42,31.208 L241.42,31.208 L247.612,31.208 C247.665333,30.3013333 247.601333,29.5626667 247.42,28.992 C247.238667,28.4213333 246.98,27.9733333 246.644,27.648 C246.308,27.3226667 245.921333,27.1013333 245.484,26.984 C245.046667,26.8666667 244.604,26.808 244.156,26.808 C243.537333,26.808 242.977333,26.9013333 242.476,27.088 C241.974667,27.2746667 241.548,27.544 241.196,27.896 C240.844,28.248 240.574667,28.6853333 240.388,29.208 C240.201333,29.7306667 240.108,30.328 240.108,31 C240.108,31.64 240.193333,32.216 240.364,32.728 C240.534667,33.24 240.785333,33.68 241.116,34.048 C241.446667,34.416 241.857333,34.6986667 242.348,34.896 C242.838667,35.0933333 243.404,35.192 244.044,35.192 Z M246.444,30.088 L241.468,30.088 C241.510667,29.672 241.609333,29.3226667 241.764,29.04 C241.918667,28.7573333 242.116,28.528 242.356,28.352 C242.596,28.176 242.873333,28.0506667 243.188,27.976 C243.502667,27.9013333 243.836,27.864 244.188,27.864 C244.838667,27.864 245.364,28.0586667 245.764,28.448 C246.164,28.8373333 246.390667,29.384 246.444,30.088 L246.444,30.088 Z" id="TransportInterface" fill-rule="nonzero"></path>
              </g>
              <g id="Group-29-Copy" transform="translate(361.000000, 99.000000) rotate(-90.000000) translate(-361.000000, -99.000000) translate(262.500000, 69.500000)">
                <path d="M10.5,0 L187,0 C192.522847,-1.01453063e-15 197,4.4771525 197,10 L197,49 C197,54.5228475 192.522847,59 187,59 L10.5,59 C4.9771525,59 0.5,54.5228475 0.5,49 L0.5,10 C0.5,4.4771525 4.9771525,1.01453063e-15 10.5,0 Z" id="Rectangle-Copy-15" fill-opacity="0.06" fill="#25B8E4"></path>
                <path d="M32.116,35 L35.876,23.8 L34.548,23.8 L31.508,33.352 L31.332,33.352 L28.18,23.8 L26.724,23.8 L30.564,35 L32.116,35 Z M39.86,35.144 C40.2653333,35.144 40.6173333,35.0906667 40.916,34.984 C41.2146667,34.8773333 41.468,34.752 41.676,34.608 C41.884,34.464 42.052,34.3173333 42.18,34.168 C42.308,34.0186667 42.404,33.896 42.468,33.8 L42.468,33.8 L42.548,33.8 L42.692,35 L44.82,35 L44.82,33.96 L43.748,33.96 C43.684,33.48 43.652,32.9733333 43.652,32.44 C43.6626667,31.9813333 43.6786667,31.5226667 43.7,31.064 C43.7213333,30.6053333 43.732,30.1733333 43.732,29.768 C43.732,29.416 43.6973333,29.0666667 43.628,28.72 C43.5586667,28.3733333 43.4253333,28.064 43.228,27.792 C43.0306667,27.52 42.7586667,27.2986667 42.412,27.128 C42.0653333,26.9573333 41.62,26.872 41.076,26.872 C40.5213333,26.872 39.956,26.9306667 39.38,27.048 C38.804,27.1653333 38.2866667,27.3573333 37.828,27.624 L37.828,27.624 L38.228,28.552 C38.5693333,28.4133333 38.9586667,28.2773333 39.396,28.144 C39.8333333,28.0106667 40.292,27.944 40.772,27.944 C41.124,27.944 41.42,27.984 41.66,28.064 C41.9,28.144 42.0866667,28.28 42.22,28.472 C42.3533333,28.664 42.4386667,28.9226667 42.476,29.248 C42.5133333,29.5733333 42.5053333,29.9813333 42.452,30.472 C41.6626667,30.3546667 40.9506667,30.312 40.316,30.344 C39.6813333,30.376 39.14,30.488 38.692,30.68 C38.244,30.872 37.9,31.1493333 37.66,31.512 C37.42,31.8746667 37.3,32.328 37.3,32.872 C37.3,33.576 37.5293333,34.1306667 37.988,34.536 C38.4466667,34.9413333 39.0706667,35.144 39.86,35.144 Z M40.18,34.072 C39.6146667,34.072 39.212,33.9413333 38.972,33.68 C38.732,33.4186667 38.612,33.112 38.612,32.76 C38.612,32.4186667 38.708,32.1413333 38.9,31.928 C39.092,31.7146667 39.3586667,31.5573333 39.7,31.456 C40.0413333,31.3546667 40.4466667,31.304 40.916,31.304 C41.3853333,31.304 41.8973333,31.352 42.452,31.448 L42.452,31.448 L42.452,32.568 C42.388,32.728 42.292,32.896 42.164,33.072 C42.036,33.248 41.876,33.4106667 41.684,33.56 C41.492,33.7093333 41.268,33.832 41.012,33.928 C40.756,34.024 40.4786667,34.072 40.18,34.072 Z M49.94,35.192 C50.5906667,35.192 51.1453333,35.048 51.604,34.76 C52.0626667,34.472 52.4306667,34.0986667 52.708,33.64 L52.708,33.64 L52.772,33.64 L52.82,35 L54.948,35 L54.948,33.96 L53.876,33.96 C53.812,33.48 53.78,32.9786667 53.78,32.456 L53.78,32.456 L53.78,27 L51.508,27 L51.508,28.072 L52.532,28.072 L52.532,32.216 C52.3186667,32.76 52.0066667,33.2133333 51.596,33.576 C51.1853333,33.9386667 50.7026667,34.12 50.148,34.12 C49.764,34.12 49.4573333,34.0586667 49.228,33.936 C48.9986667,33.8133333 48.8253333,33.632 48.708,33.392 C48.5906667,33.152 48.5133333,32.8586667 48.476,32.512 C48.4386667,32.1653333 48.42,31.7733333 48.42,31.336 L48.42,31.336 L48.42,27 L46.1,27 L46.1,28.072 L47.172,28.072 L47.172,31.592 C47.172,32.2853333 47.2253333,32.864 47.332,33.328 C47.4386667,33.792 47.604,34.1626667 47.828,34.44 C48.052,34.7173333 48.3373333,34.912 48.684,35.024 C49.0306667,35.136 49.4493333,35.192 49.94,35.192 Z M61.076,35.208 C61.2573333,35.208 61.4546667,35.1866667 61.668,35.144 C61.8813333,35.1013333 62.0946667,35.04 62.308,34.96 C62.5213333,34.88 62.7293333,34.7813333 62.932,34.664 C63.1346667,34.5466667 63.3213333,34.4133333 63.492,34.264 L63.492,34.264 L62.916,33.384 C62.5853333,33.64 62.284,33.8213333 62.012,33.928 C61.74,34.0346667 61.4546667,34.088 61.156,34.088 C60.7293333,34.088 60.4066667,33.9546667 60.188,33.688 C59.9693333,33.4213333 59.86,32.9626667 59.86,32.312 L59.86,32.312 L59.86,23.8 L57.204,23.8 L57.204,24.872 L58.612,24.872 L58.612,32.312 C58.612,32.856 58.6653333,33.312 58.772,33.68 C58.8786667,34.048 59.036,34.344 59.244,34.568 C59.452,34.792 59.7106667,34.9546667 60.02,35.056 C60.3293333,35.1573333 60.6813333,35.208 61.076,35.208 Z M70.452,35.208 C70.996,35.208 71.5266667,35.1173333 72.044,34.936 C72.5613333,34.7546667 73.0066667,34.5146667 73.38,34.216 L73.38,34.216 L72.964,33.272 C72.676,33.4853333 72.3533333,33.6826667 71.996,33.864 C71.6386667,34.0453333 71.22,34.136 70.74,34.136 C70.036,34.136 69.4946667,33.9493333 69.116,33.576 C68.7373333,33.2026667 68.548,32.6266667 68.548,31.848 L68.548,31.848 L68.548,28.072 L72.82,28.072 L72.82,27 L68.548,27 L68.548,25.064 L67.3,25.416 L67.3,27 L65.396,27 L65.396,28.072 L67.3,28.072 L67.3,32.04 C67.3,32.5946667 67.3853333,33.072 67.556,33.472 C67.7266667,33.872 67.956,34.2 68.244,34.456 C68.532,34.712 68.8653333,34.9013333 69.244,35.024 C69.6226667,35.1466667 70.0253333,35.208 70.452,35.208 Z M92.74,35 L92.74,33.816 L89.556,33.816 L89.556,24.984 L92.74,24.984 L92.74,23.8 L85.06,23.8 L85.06,24.984 L88.228,24.984 L88.228,33.816 L85.06,33.816 L85.06,35 L92.74,35 Z M96.42,35 L96.42,29.976 C96.4946667,29.7093333 96.612,29.456 96.772,29.216 C96.932,28.976 97.1186667,28.7653333 97.332,28.584 C97.5453333,28.4026667 97.7826667,28.256 98.044,28.144 C98.3053333,28.032 98.5746667,27.976 98.852,27.976 C99.6093333,27.976 100.132,28.2 100.42,28.648 C100.708,29.096 100.852,29.7626667 100.852,30.648 L100.852,30.648 L100.852,35 L102.1,35 L102.1,30.408 C102.1,29.6933333 102.036,29.104 101.908,28.64 C101.78,28.176 101.590667,27.808 101.34,27.536 C101.089333,27.264 100.774667,27.0746667 100.396,26.968 C100.017333,26.8613333 99.5826667,26.808 99.092,26.808 C98.772,26.808 98.468,26.8506667 98.18,26.936 C97.892,27.0213333 97.6306667,27.136 97.396,27.28 C97.1613333,27.424 96.956,27.584 96.78,27.76 C96.604,27.936 96.4626667,28.1146667 96.356,28.296 L96.356,28.296 L96.276,28.296 L96.132,27 L93.988,27 L93.988,28.04 L95.06,28.04 C95.0813333,28.1573333 95.1,28.296 95.116,28.456 C95.132,28.616 95.1453333,28.7786667 95.156,28.944 C95.1666667,29.1093333 95.1746667,29.2693333 95.18,29.424 C95.1853333,29.5786667 95.188,29.704 95.188,29.8 L95.188,29.8 L95.188,35 L96.42,35 Z M108.852,35.208 C109.396,35.208 109.926667,35.1173333 110.444,34.936 C110.961333,34.7546667 111.406667,34.5146667 111.78,34.216 L111.78,34.216 L111.364,33.272 C111.076,33.4853333 110.753333,33.6826667 110.396,33.864 C110.038667,34.0453333 109.62,34.136 109.14,34.136 C108.436,34.136 107.894667,33.9493333 107.516,33.576 C107.137333,33.2026667 106.948,32.6266667 106.948,31.848 L106.948,31.848 L106.948,28.072 L111.22,28.072 L111.22,27 L106.948,27 L106.948,25.064 L105.7,25.416 L105.7,27 L103.796,27 L103.796,28.072 L105.7,28.072 L105.7,32.04 C105.7,32.5946667 105.785333,33.072 105.956,33.472 C106.126667,33.872 106.356,34.2 106.644,34.456 C106.932,34.712 107.265333,34.9013333 107.644,35.024 C108.022667,35.1466667 108.425333,35.208 108.852,35.208 Z M117.844,35.192 C118.185333,35.192 118.524,35.1626667 118.86,35.104 C119.196,35.0453333 119.518667,34.9626667 119.828,34.856 C120.137333,34.7493333 120.422667,34.6213333 120.684,34.472 C120.945333,34.3226667 121.172,34.1626667 121.364,33.992 L121.364,33.992 L120.868,33.08 C120.761333,33.176 120.609333,33.2826667 120.412,33.4 C120.214667,33.5173333 119.988,33.624 119.732,33.72 C119.476,33.816 119.206667,33.8986667 118.924,33.968 C118.641333,34.0373333 118.356,34.072 118.068,34.072 C117.204,34.072 116.513333,33.8346667 115.996,33.36 C115.478667,32.8853333 115.22,32.168 115.22,31.208 L115.22,31.208 L121.412,31.208 C121.465333,30.3013333 121.401333,29.5626667 121.22,28.992 C121.038667,28.4213333 120.78,27.9733333 120.444,27.648 C120.108,27.3226667 119.721333,27.1013333 119.284,26.984 C118.846667,26.8666667 118.404,26.808 117.956,26.808 C117.337333,26.808 116.777333,26.9013333 116.276,27.088 C115.774667,27.2746667 115.348,27.544 114.996,27.896 C114.644,28.248 114.374667,28.6853333 114.188,29.208 C114.001333,29.7306667 113.908,30.328 113.908,31 C113.908,31.64 113.993333,32.216 114.164,32.728 C114.334667,33.24 114.585333,33.68 114.916,34.048 C115.246667,34.416 115.657333,34.6986667 116.148,34.896 C116.638667,35.0933333 117.204,35.192 117.844,35.192 Z M120.244,30.088 L115.268,30.088 C115.310667,29.672 115.409333,29.3226667 115.564,29.04 C115.718667,28.7573333 115.916,28.528 116.156,28.352 C116.396,28.176 116.673333,28.0506667 116.988,27.976 C117.302667,27.9013333 117.636,27.864 117.988,27.864 C118.638667,27.864 119.164,28.0586667 119.564,28.448 C119.964,28.8373333 120.190667,29.384 120.244,30.088 L120.244,30.088 Z M130.02,35 L130.02,33.928 L126.948,33.928 L126.948,29.208 C127.012,29.112 127.113333,28.9946667 127.252,28.856 C127.390667,28.7173333 127.558667,28.5786667 127.756,28.44 C127.953333,28.3013333 128.185333,28.184 128.452,28.088 C128.718667,27.992 129.017333,27.944 129.348,27.944 C129.7,27.944 129.942667,28.104 130.076,28.424 C130.209333,28.744 130.276,29.2453333 130.276,29.928 L130.276,29.928 L131.396,29.912 C131.396,29.432 131.374667,29.0026667 131.332,28.624 C131.289333,28.2453333 131.206667,27.9226667 131.084,27.656 C130.961333,27.3893333 130.790667,27.1866667 130.572,27.048 C130.353333,26.9093333 130.062667,26.84 129.7,26.84 C129.081333,26.84 128.548,26.9573333 128.1,27.192 C127.652,27.4266667 127.246667,27.7093333 126.884,28.04 L126.884,28.04 L126.804,28.04 L126.548,27 L123.556,27 L123.556,28.072 L125.716,28.072 L125.716,33.928 L123.556,33.928 L123.556,35 L130.02,35 Z M139.972,35 L139.972,33.928 L136.66,33.928 L136.66,28.072 L139.972,28.072 L139.972,27 L136.66,27 C136.66,26.2106667 136.788,25.6426667 137.044,25.296 C137.3,24.9493333 137.78,24.776 138.484,24.776 C138.697333,24.776 138.932,24.7946667 139.188,24.832 C139.444,24.8693333 139.710667,24.9466667 139.988,25.064 L139.988,25.064 L140.276,24.024 C139.956,23.896 139.657333,23.8106667 139.38,23.768 C139.102667,23.7253333 138.788,23.704 138.436,23.704 C137.465333,23.704 136.718667,23.928 136.196,24.376 C135.673333,24.824 135.412,25.5493333 135.412,26.552 L135.412,26.552 L135.412,27 L133.508,27 L133.508,28.072 L135.412,28.072 L135.412,33.928 L133.508,33.928 L133.508,35 L139.972,35 Z M145.46,35.144 C145.865333,35.144 146.217333,35.0906667 146.516,34.984 C146.814667,34.8773333 147.068,34.752 147.276,34.608 C147.484,34.464 147.652,34.3173333 147.78,34.168 C147.908,34.0186667 148.004,33.896 148.068,33.8 L148.068,33.8 L148.148,33.8 L148.292,35 L150.42,35 L150.42,33.96 L149.348,33.96 C149.284,33.48 149.252,32.9733333 149.252,32.44 C149.262667,31.9813333 149.278667,31.5226667 149.3,31.064 C149.321333,30.6053333 149.332,30.1733333 149.332,29.768 C149.332,29.416 149.297333,29.0666667 149.228,28.72 C149.158667,28.3733333 149.025333,28.064 148.828,27.792 C148.630667,27.52 148.358667,27.2986667 148.012,27.128 C147.665333,26.9573333 147.22,26.872 146.676,26.872 C146.121333,26.872 145.556,26.9306667 144.98,27.048 C144.404,27.1653333 143.886667,27.3573333 143.428,27.624 L143.428,27.624 L143.828,28.552 C144.169333,28.4133333 144.558667,28.2773333 144.996,28.144 C145.433333,28.0106667 145.892,27.944 146.372,27.944 C146.724,27.944 147.02,27.984 147.26,28.064 C147.5,28.144 147.686667,28.28 147.82,28.472 C147.953333,28.664 148.038667,28.9226667 148.076,29.248 C148.113333,29.5733333 148.105333,29.9813333 148.052,30.472 C147.262667,30.3546667 146.550667,30.312 145.916,30.344 C145.281333,30.376 144.74,30.488 144.292,30.68 C143.844,30.872 143.5,31.1493333 143.26,31.512 C143.02,31.8746667 142.9,32.328 142.9,32.872 C142.9,33.576 143.129333,34.1306667 143.588,34.536 C144.046667,34.9413333 144.670667,35.144 145.46,35.144 Z M145.78,34.072 C145.214667,34.072 144.812,33.9413333 144.572,33.68 C144.332,33.4186667 144.212,33.112 144.212,32.76 C144.212,32.4186667 144.308,32.1413333 144.5,31.928 C144.692,31.7146667 144.958667,31.5573333 145.3,31.456 C145.641333,31.3546667 146.046667,31.304 146.516,31.304 C146.985333,31.304 147.497333,31.352 148.052,31.448 L148.052,31.448 L148.052,32.568 C147.988,32.728 147.892,32.896 147.764,33.072 C147.636,33.248 147.476,33.4106667 147.284,33.56 C147.092,33.7093333 146.868,33.832 146.612,33.928 C146.356,34.024 146.078667,34.072 145.78,34.072 Z M156.484,35.192 C156.9,35.192 157.286667,35.1546667 157.644,35.08 C158.001333,35.0053333 158.326667,34.9066667 158.62,34.784 C158.913333,34.6613333 159.172,34.5306667 159.396,34.392 C159.62,34.2533333 159.806667,34.12 159.956,33.992 L159.956,33.992 L159.396,33.064 C159.076,33.3413333 158.678667,33.5653333 158.204,33.736 C157.729333,33.9066667 157.241333,33.992 156.74,33.992 C156.270667,33.992 155.841333,33.9226667 155.452,33.784 C155.062667,33.6453333 154.729333,33.448 154.452,33.192 C154.174667,32.936 153.961333,32.624 153.812,32.256 C153.662667,31.888 153.588,31.4693333 153.588,31 C153.588,29.9333333 153.844,29.1546667 154.356,28.664 C154.868,28.1733333 155.646667,27.928 156.692,27.928 C156.969333,27.928 157.249333,27.9573333 157.532,28.016 C157.814667,28.0746667 158.078667,28.1466667 158.324,28.232 L158.324,28.232 L158.324,29.752 L159.476,29.752 L159.476,27.528 L159.492,27.48 C159.150667,27.3093333 158.732,27.1546667 158.236,27.016 C157.74,26.8773333 157.097333,26.808 156.308,26.808 C155.689333,26.808 155.129333,26.9013333 154.628,27.088 C154.126667,27.2746667 153.7,27.544 153.348,27.896 C152.996,28.248 152.726667,28.6853333 152.54,29.208 C152.353333,29.7306667 152.26,30.328 152.26,31 C152.26,31.6293333 152.350667,32.2026667 152.532,32.72 C152.713333,33.2373333 152.98,33.68 153.332,34.048 C153.684,34.416 154.124,34.6986667 154.652,34.896 C155.18,35.0933333 155.790667,35.192 156.484,35.192 Z M165.844,35.192 C166.185333,35.192 166.524,35.1626667 166.86,35.104 C167.196,35.0453333 167.518667,34.9626667 167.828,34.856 C168.137333,34.7493333 168.422667,34.6213333 168.684,34.472 C168.945333,34.3226667 169.172,34.1626667 169.364,33.992 L169.364,33.992 L168.868,33.08 C168.761333,33.176 168.609333,33.2826667 168.412,33.4 C168.214667,33.5173333 167.988,33.624 167.732,33.72 C167.476,33.816 167.206667,33.8986667 166.924,33.968 C166.641333,34.0373333 166.356,34.072 166.068,34.072 C165.204,34.072 164.513333,33.8346667 163.996,33.36 C163.478667,32.8853333 163.22,32.168 163.22,31.208 L163.22,31.208 L169.412,31.208 C169.465333,30.3013333 169.401333,29.5626667 169.22,28.992 C169.038667,28.4213333 168.78,27.9733333 168.444,27.648 C168.108,27.3226667 167.721333,27.1013333 167.284,26.984 C166.846667,26.8666667 166.404,26.808 165.956,26.808 C165.337333,26.808 164.777333,26.9013333 164.276,27.088 C163.774667,27.2746667 163.348,27.544 162.996,27.896 C162.644,28.248 162.374667,28.6853333 162.188,29.208 C162.001333,29.7306667 161.908,30.328 161.908,31 C161.908,31.64 161.993333,32.216 162.164,32.728 C162.334667,33.24 162.585333,33.68 162.916,34.048 C163.246667,34.416 163.657333,34.6986667 164.148,34.896 C164.638667,35.0933333 165.204,35.192 165.844,35.192 Z M168.244,30.088 L163.268,30.088 C163.310667,29.672 163.409333,29.3226667 163.564,29.04 C163.718667,28.7573333 163.916,28.528 164.156,28.352 C164.396,28.176 164.673333,28.0506667 164.988,27.976 C165.302667,27.9013333 165.636,27.864 165.988,27.864 C166.638667,27.864 167.164,28.0586667 167.564,28.448 C167.964,28.8373333 168.190667,29.384 168.244,30.088 L168.244,30.088 Z" id="VaultInterface" fill="#00BAE9" fill-rule="nonzero"></path>
              </g>
            </g>
            <path d="M-34.984,144.192 C-33.5973333,144.192 -32.576,143.690667 -31.92,142.688 C-31.264,141.685333 -30.936,140.256 -30.936,138.4 C-30.936,137.525333 -31.0053333,136.733333 -31.144,136.024 C-31.2826667,135.314667 -31.512,134.706667 -31.832,134.2 C-32.152,133.693333 -32.5706667,133.301333 -33.088,133.024 C-33.6053333,132.746667 -34.2373333,132.608 -34.984,132.608 C-36.3493333,132.608 -37.36,133.109333 -38.016,134.112 C-38.672,135.114667 -39,136.544 -39,138.4 C-39,139.274667 -38.9306667,140.066667 -38.792,140.776 C-38.6533333,141.485333 -38.424,142.093333 -38.104,142.6 C-37.784,143.106667 -37.368,143.498667 -36.856,143.776 C-36.344,144.053333 -35.72,144.192 -34.984,144.192 Z M-34.984,143.008 C-35.496,143.008 -35.9173333,142.882667 -36.248,142.632 C-36.5786667,142.381333 -36.8453333,142.045333 -37.048,141.624 C-37.2506667,141.202667 -37.392,140.714667 -37.472,140.16 C-37.552,139.605333 -37.592,139.018667 -37.592,138.4 C-37.592,136.832 -37.384,135.672 -36.968,134.92 C-36.552,134.168 -35.8906667,133.792 -34.984,133.792 C-34.472,133.792 -34.0453333,133.917333 -33.704,134.168 C-33.3626667,134.418667 -33.0906667,134.754667 -32.888,135.176 C-32.6853333,135.597333 -32.544,136.088 -32.464,136.648 C-32.384,137.208 -32.344,137.792 -32.344,138.4 C-32.344,139.978667 -32.5546667,141.141333 -32.976,141.888 C-33.3973333,142.634667 -34.0666667,143.008 -34.984,143.008 Z M-24.984,144.192 C-24.568,144.192 -24.1813333,144.154667 -23.824,144.08 C-23.4666667,144.005333 -23.1413333,143.906667 -22.848,143.784 C-22.5546667,143.661333 -22.296,143.530667 -22.072,143.392 C-21.848,143.253333 -21.6613333,143.12 -21.512,142.992 L-21.512,142.992 L-22.072,142.064 C-22.392,142.341333 -22.7893333,142.565333 -23.264,142.736 C-23.7386667,142.906667 -24.2266667,142.992 -24.728,142.992 C-25.1973333,142.992 -25.6266667,142.922667 -26.016,142.784 C-26.4053333,142.645333 -26.7386667,142.448 -27.016,142.192 C-27.2933333,141.936 -27.5066667,141.624 -27.656,141.256 C-27.8053333,140.888 -27.88,140.469333 -27.88,140 C-27.88,138.933333 -27.624,138.154667 -27.112,137.664 C-26.6,137.173333 -25.8213333,136.928 -24.776,136.928 C-24.4986667,136.928 -24.2186667,136.957333 -23.936,137.016 C-23.6533333,137.074667 -23.3893333,137.146667 -23.144,137.232 L-23.144,137.232 L-23.144,138.752 L-21.992,138.752 L-21.992,136.528 L-21.976,136.48 C-22.3173333,136.309333 -22.736,136.154667 -23.232,136.016 C-23.728,135.877333 -24.3706667,135.808 -25.16,135.808 C-25.7786667,135.808 -26.3386667,135.901333 -26.84,136.088 C-27.3413333,136.274667 -27.768,136.544 -28.12,136.896 C-28.472,137.248 -28.7413333,137.685333 -28.928,138.208 C-29.1146667,138.730667 -29.208,139.328 -29.208,140 C-29.208,140.629333 -29.1173333,141.202667 -28.936,141.72 C-28.7546667,142.237333 -28.488,142.68 -28.136,143.048 C-27.784,143.416 -27.344,143.698667 -26.816,143.896 C-26.288,144.093333 -25.6773333,144.192 -24.984,144.192 Z M-17.592,144 L-17.592,140.384 L-16.712,140.384 L-13.288,144 L-11.64,144 L-11.64,142.928 L-12.68,142.928 L-15.592,139.792 L-12.056,136 L-13.56,136 L-16.712,139.424 L-17.592,139.424 L-17.592,132.8 L-20.184,132.8 L-20.184,133.872 L-18.824,133.872 L-18.824,144 L-17.592,144 Z M-7.208,144.144 C-6.80266667,144.144 -6.45066667,144.090667 -6.152,143.984 C-5.85333333,143.877333 -5.6,143.752 -5.392,143.608 C-5.184,143.464 -5.016,143.317333 -4.888,143.168 C-4.76,143.018667 -4.664,142.896 -4.6,142.8 L-4.6,142.8 L-4.52,142.8 L-4.376,144 L-2.248,144 L-2.248,142.96 L-3.32,142.96 C-3.384,142.48 -3.416,141.973333 -3.416,141.44 C-3.40533333,140.981333 -3.38933333,140.522667 -3.368,140.064 C-3.34666667,139.605333 -3.336,139.173333 -3.336,138.768 C-3.336,138.416 -3.37066667,138.066667 -3.44,137.72 C-3.50933333,137.373333 -3.64266667,137.064 -3.84,136.792 C-4.03733333,136.52 -4.30933333,136.298667 -4.656,136.128 C-5.00266667,135.957333 -5.448,135.872 -5.992,135.872 C-6.54666667,135.872 -7.112,135.930667 -7.688,136.048 C-8.264,136.165333 -8.78133333,136.357333 -9.24,136.624 L-9.24,136.624 L-8.84,137.552 C-8.49866667,137.413333 -8.10933333,137.277333 -7.672,137.144 C-7.23466667,137.010667 -6.776,136.944 -6.296,136.944 C-5.944,136.944 -5.648,136.984 -5.408,137.064 C-5.168,137.144 -4.98133333,137.28 -4.848,137.472 C-4.71466667,137.664 -4.62933333,137.922667 -4.592,138.248 C-4.55466667,138.573333 -4.56266667,138.981333 -4.616,139.472 C-5.40533333,139.354667 -6.11733333,139.312 -6.752,139.344 C-7.38666667,139.376 -7.928,139.488 -8.376,139.68 C-8.824,139.872 -9.168,140.149333 -9.408,140.512 C-9.648,140.874667 -9.768,141.328 -9.768,141.872 C-9.768,142.576 -9.53866667,143.130667 -9.08,143.536 C-8.62133333,143.941333 -7.99733333,144.144 -7.208,144.144 Z M-6.888,143.072 C-7.45333333,143.072 -7.856,142.941333 -8.096,142.68 C-8.336,142.418667 -8.456,142.112 -8.456,141.76 C-8.456,141.418667 -8.36,141.141333 -8.168,140.928 C-7.976,140.714667 -7.70933333,140.557333 -7.368,140.456 C-7.02666667,140.354667 -6.62133333,140.304 -6.152,140.304 C-5.68266667,140.304 -5.17066667,140.352 -4.616,140.448 L-4.616,140.448 L-4.616,141.568 C-4.68,141.728 -4.776,141.896 -4.904,142.072 C-5.032,142.248 -5.192,142.410667 -5.384,142.56 C-5.576,142.709333 -5.8,142.832 -6.056,142.928 C-6.312,143.024 -6.58933333,143.072 -6.888,143.072 Z M0.504,144 L0.504,138.496 C0.632,138.048 0.821333333,137.674667 1.072,137.376 C1.32266667,137.077333 1.62933333,136.928 1.992,136.928 C2.17333333,136.928 2.32,136.976 2.432,137.072 C2.544,137.168 2.62933333,137.298667 2.688,137.464 C2.74666667,137.629333 2.784,137.816 2.8,138.024 C2.816,138.232 2.824,138.448 2.824,138.672 L2.824,138.672 L2.824,144 L4.04,144 L4.04,138.656 C4.168,138.101333 4.36,137.674667 4.616,137.376 C4.872,137.077333 5.18666667,136.928 5.56,136.928 C5.73066667,136.928 5.86666667,136.970667 5.968,137.056 C6.06933333,137.141333 6.14933333,137.258667 6.208,137.408 C6.26666667,137.557333 6.30666667,137.730667 6.328,137.928 C6.34933333,138.125333 6.36,138.336 6.36,138.56 L6.36,138.56 L6.36,144 L7.576,144 L7.576,138.288 C7.576,137.914667 7.552,137.576 7.504,137.272 C7.456,136.968 7.37066667,136.706667 7.248,136.488 C7.12533333,136.269333 6.95466667,136.101333 6.736,135.984 C6.51733333,135.866667 6.232,135.808 5.88,135.808 C5.34666667,135.808 4.928,135.925333 4.624,136.16 C4.32,136.394667 4.04533333,136.72 3.8,137.136 C3.768,136.890667 3.69866667,136.682667 3.592,136.512 C3.48533333,136.341333 3.36,136.205333 3.216,136.104 C3.072,136.002667 2.91466667,135.928 2.744,135.88 C2.57333333,135.832 2.408,135.808 2.248,135.808 C1.97066667,135.808 1.74133333,135.837333 1.56,135.896 C1.37866667,135.954667 1.22133333,136.037333 1.088,136.144 C0.954666667,136.250667 0.837333333,136.376 0.736,136.52 C0.634666667,136.664 0.530666667,136.816 0.424,136.976 L0.424,136.976 L0.36,136.976 L0.12,136 L-0.712,136 L-0.712,144 L0.504,144 Z M23.528,144.192 C24.232,144.192 24.8293333,144.109333 25.32,143.944 C25.8106667,143.778667 26.216,143.573333 26.536,143.328 L26.536,143.328 L26.52,143.296 L26.52,141.136 L25.336,141.136 L25.336,142.736 C25.1333333,142.821333 24.912,142.888 24.672,142.936 C24.432,142.984 24.1733333,143.008 23.896,143.008 C23.352,143.008 22.8586667,142.912 22.416,142.72 C21.9733333,142.528 21.5946667,142.24 21.28,141.856 C20.9653333,141.472 20.72,140.992 20.544,140.416 C20.368,139.84 20.28,139.168 20.28,138.4 C20.28,137.546667 20.3786667,136.826667 20.576,136.24 C20.7733333,135.653333 21.0346667,135.178667 21.36,134.816 C21.6853333,134.453333 22.0586667,134.192 22.48,134.032 C22.9013333,133.872 23.3306667,133.792 23.768,133.792 C24.0773333,133.792 24.3413333,133.810667 24.56,133.848 C24.7786667,133.885333 24.9786667,133.941333 25.16,134.016 L25.16,134.016 L25.16,135.728 L26.344,135.728 L26.344,133.2 L26.328,133.2 C26.1786667,133.104 26.0266667,133.018667 25.872,132.944 C25.7173333,132.869333 25.5386667,132.808 25.336,132.76 C25.1333333,132.712 24.8986667,132.674667 24.632,132.648 C24.3653333,132.621333 24.0506667,132.608 23.688,132.608 C23.0266667,132.608 22.4053333,132.714667 21.824,132.928 C21.2426667,133.141333 20.7333333,133.48 20.296,133.944 C19.8586667,134.408 19.512,135.005333 19.256,135.736 C19,136.466667 18.872,137.354667 18.872,138.4 C18.872,139.402667 18.9866667,140.269333 19.216,141 C19.4453333,141.730667 19.768,142.330667 20.184,142.8 C20.6,143.269333 21.0933333,143.618667 21.664,143.848 C22.2346667,144.077333 22.856,144.192 23.528,144.192 Z M33.208,144.208 C33.3893333,144.208 33.5866667,144.186667 33.8,144.144 C34.0133333,144.101333 34.2266667,144.04 34.44,143.96 C34.6533333,143.88 34.8613333,143.781333 35.064,143.664 C35.2666667,143.546667 35.4533333,143.413333 35.624,143.264 L35.624,143.264 L35.048,142.384 C34.7173333,142.64 34.416,142.821333 34.144,142.928 C33.872,143.034667 33.5866667,143.088 33.288,143.088 C32.8613333,143.088 32.5386667,142.954667 32.32,142.688 C32.1013333,142.421333 31.992,141.962667 31.992,141.312 L31.992,141.312 L31.992,132.8 L29.336,132.8 L29.336,133.872 L30.744,133.872 L30.744,141.312 C30.744,141.856 30.7973333,142.312 30.904,142.68 C31.0106667,143.048 31.168,143.344 31.376,143.568 C31.584,143.792 31.8426667,143.954667 32.152,144.056 C32.4613333,144.157333 32.8133333,144.208 33.208,144.208 Z M41.832,144.192 C42.4506667,144.192 43.0026667,144.093333 43.488,143.896 C43.9733333,143.698667 44.3813333,143.418667 44.712,143.056 C45.0426667,142.693333 45.2933333,142.253333 45.464,141.736 C45.6346667,141.218667 45.72,140.64 45.72,140 C45.72,139.413333 45.6426667,138.864 45.488,138.352 C45.3333333,137.84 45.096,137.397333 44.776,137.024 C44.456,136.650667 44.0533333,136.354667 43.568,136.136 C43.0826667,135.917333 42.504,135.808 41.832,135.808 C40.584,135.808 39.624,136.184 38.952,136.936 C38.28,137.688 37.944,138.709333 37.944,140 C37.944,140.586667 38.0213333,141.136 38.176,141.648 C38.3306667,142.16 38.568,142.602667 38.888,142.976 C39.208,143.349333 39.6133333,143.645333 40.104,143.864 C40.5946667,144.082667 41.1706667,144.192 41.832,144.192 Z M41.832,143.12 C41.3626667,143.12 40.9653333,143.029333 40.64,142.848 C40.3146667,142.666667 40.0506667,142.426667 39.848,142.128 C39.6453333,141.829333 39.4986667,141.493333 39.408,141.12 C39.3173333,140.746667 39.272,140.373333 39.272,140 C39.272,138.965333 39.4853333,138.186667 39.912,137.664 C40.3386667,137.141333 40.9786667,136.88 41.832,136.88 C42.3013333,136.88 42.6986667,136.970667 43.024,137.152 C43.3493333,137.333333 43.616,137.573333 43.824,137.872 C44.032,138.170667 44.1813333,138.504 44.272,138.872 C44.3626667,139.24 44.408,139.616 44.408,140 C44.408,141.024 44.192,141.8 43.76,142.328 C43.328,142.856 42.6853333,143.12 41.832,143.12 Z M50.872,144.192 C51.5226667,144.192 52.0773333,144.048 52.536,143.76 C52.9946667,143.472 53.3626667,143.098667 53.64,142.64 L53.64,142.64 L53.704,142.64 L53.752,144 L55.88,144 L55.88,142.96 L54.808,142.96 C54.744,142.48 54.712,141.978667 54.712,141.456 L54.712,141.456 L54.712,136 L52.44,136 L52.44,137.072 L53.464,137.072 L53.464,141.216 C53.2506667,141.76 52.9386667,142.213333 52.528,142.576 C52.1173333,142.938667 51.6346667,143.12 51.08,143.12 C50.696,143.12 50.3893333,143.058667 50.16,142.936 C49.9306667,142.813333 49.7573333,142.632 49.64,142.392 C49.5226667,142.152 49.4453333,141.858667 49.408,141.512 C49.3706667,141.165333 49.352,140.773333 49.352,140.336 L49.352,140.336 L49.352,136 L47.032,136 L47.032,137.072 L48.104,137.072 L48.104,140.592 C48.104,141.285333 48.1573333,141.864 48.264,142.328 C48.3706667,142.792 48.536,143.162667 48.76,143.44 C48.984,143.717333 49.2693333,143.912 49.616,144.024 C49.9626667,144.136 50.3813333,144.192 50.872,144.192 Z M60.648,144.192 C61.256,144.192 61.792,144.056 62.256,143.784 C62.72,143.512 63.0693333,143.173333 63.304,142.768 L63.304,142.768 L63.368,142.768 L63.528,144 L65.656,144 L65.656,142.96 L64.584,142.96 C64.5626667,142.842667 64.5413333,142.706667 64.52,142.552 C64.4986667,142.397333 64.48,142.24 64.464,142.08 C64.448,141.92 64.4346667,141.768 64.424,141.624 C64.4133333,141.48 64.408,141.36 64.408,141.264 L64.408,141.264 L64.408,132.8 L61.816,132.8 L61.816,133.872 L63.16,133.872 L63.16,136.144 C63,136.101333 62.8533333,136.061333 62.72,136.024 C62.5866667,135.986667 62.4453333,135.957333 62.296,135.936 C62.1466667,135.914667 61.984,135.898667 61.808,135.888 C61.632,135.877333 61.432,135.872 61.208,135.872 C60.5893333,135.872 60.0293333,135.962667 59.528,136.144 C59.0266667,136.325333 58.5973333,136.589333 58.24,136.936 C57.8826667,137.282667 57.608,137.714667 57.416,138.232 C57.224,138.749333 57.128,139.344 57.128,140.016 C57.128,141.445333 57.4133333,142.498667 57.984,143.176 C58.5546667,143.853333 59.4426667,144.192 60.648,144.192 Z M60.856,143.12 C60.408,143.12 60.0293333,143.04 59.72,142.88 C59.4106667,142.72 59.1626667,142.501333 58.976,142.224 C58.7893333,141.946667 58.656,141.618667 58.576,141.24 C58.496,140.861333 58.456,140.453333 58.456,140.016 C58.456,138.949333 58.7013333,138.168 59.192,137.672 C59.6826667,137.176 60.3546667,136.928 61.208,136.928 C61.688,136.928 62.0746667,136.965333 62.368,137.04 C62.6613333,137.114667 62.9253333,137.232 63.16,137.392 L63.16,137.392 L63.16,141.104 C63.0213333,141.776 62.7653333,142.28 62.392,142.616 C62.0186667,142.952 61.5066667,143.12 60.856,143.12 Z M80.168,144.192 C80.7653333,144.192 81.3013333,144.117333 81.776,143.968 C82.2506667,143.818667 82.6506667,143.605333 82.976,143.328 C83.3013333,143.050667 83.552,142.72 83.728,142.336 C83.904,141.952 83.992,141.52 83.992,141.04 C83.992,140.453333 83.8453333,139.962667 83.552,139.568 C83.2586667,139.173333 82.8933333,138.834667 82.456,138.552 C82.0186667,138.269333 81.544,138.021333 81.032,137.808 C80.52,137.594667 80.0453333,137.378667 79.608,137.16 C79.1706667,136.941333 78.8053333,136.693333 78.512,136.416 C78.2186667,136.138667 78.072,135.792 78.072,135.376 C78.072,135.162667 78.1253333,134.96 78.232,134.768 C78.3386667,134.576 78.4906667,134.408 78.688,134.264 C78.8853333,134.12 79.1253333,134.005333 79.408,133.92 C79.6906667,133.834667 80.008,133.792 80.36,133.792 C80.7226667,133.792 81.064,133.813333 81.384,133.856 C81.704,133.898667 81.9973333,133.952 82.264,134.016 L82.264,134.016 L82.264,135.728 L83.448,135.728 L83.448,133.168 L83.464,133.12 L83.448,133.12 L83.448,133.088 L83.416,133.104 C83.1066667,132.954667 82.6906667,132.834667 82.168,132.744 C81.6453333,132.653333 81.064,132.608 80.424,132.608 C79.8693333,132.608 79.3653333,132.674667 78.912,132.808 C78.4586667,132.941333 78.072,133.130667 77.752,133.376 C77.432,133.621333 77.184,133.92 77.008,134.272 C76.832,134.624 76.744,135.018667 76.744,135.456 C76.744,136.074667 76.8906667,136.584 77.184,136.984 C77.4773333,137.384 77.8426667,137.722667 78.28,138 C78.7173333,138.277333 79.192,138.517333 79.704,138.72 C80.216,138.922667 80.6906667,139.130667 81.128,139.344 C81.5653333,139.557333 81.9306667,139.802667 82.224,140.08 C82.5173333,140.357333 82.664,140.714667 82.664,141.152 C82.664,141.472 82.5973333,141.749333 82.464,141.984 C82.3306667,142.218667 82.1493333,142.413333 81.92,142.568 C81.6906667,142.722667 81.4213333,142.834667 81.112,142.904 C80.8026667,142.973333 80.472,143.008 80.12,143.008 C79.7146667,143.008 79.312,142.952 78.912,142.84 C78.512,142.728 78.152,142.586667 77.832,142.416 L77.832,142.416 L77.832,140.64 L76.648,140.64 L76.648,143.232 L76.632,143.28 C76.7706667,143.354667 76.96,143.445333 77.2,143.552 C77.44,143.658667 77.712,143.76 78.016,143.856 C78.32,143.952 78.6533333,144.032 79.016,144.096 C79.3786667,144.16 79.7626667,144.192 80.168,144.192 Z M88.696,144.144 C89.6986667,144.144 90.5333333,143.981333 91.2,143.656 C91.8666667,143.330667 92.3973333,142.898667 92.792,142.36 C93.1866667,141.821333 93.464,141.202667 93.624,140.504 C93.784,139.805333 93.864,139.077333 93.864,138.32 C93.864,137.488 93.776,136.725333 93.6,136.032 C93.424,135.338667 93.136,134.744 92.736,134.248 C92.336,133.752 91.808,133.365333 91.152,133.088 C90.496,132.810667 89.6826667,132.672 88.712,132.672 C88.4026667,132.672 88.0266667,132.68 87.584,132.696 C87.1413333,132.712 86.7173333,132.746667 86.312,132.8 L86.312,132.8 L86.312,144.016 C86.4186667,144.037333 86.5786667,144.053333 86.792,144.064 C87.0053333,144.074667 87.2293333,144.088 87.464,144.104 C87.6986667,144.12 87.928,144.130667 88.152,144.136 C88.376,144.141333 88.5573333,144.144 88.696,144.144 Z M88.744,142.96 C88.68,142.96 88.5973333,142.957333 88.496,142.952 C88.3946667,142.946667 88.2906667,142.941333 88.184,142.936 L88.026,142.928 L88.026,142.928 L87.872,142.92 C87.7706667,142.914667 87.6933333,142.906667 87.64,142.896 L87.64,142.896 L87.64,133.936 C87.7893333,133.904 87.9786667,133.882667 88.208,133.872 C88.4373333,133.861333 88.6266667,133.856 88.776,133.856 C89.5653333,133.856 90.2026667,133.992 90.688,134.264 C91.1733333,134.536 91.5466667,134.885333 91.808,135.312 C92.0693333,135.738667 92.2426667,136.216 92.328,136.744 C92.4133333,137.272 92.456,137.797333 92.456,138.32 C92.456,138.917333 92.408,139.496 92.312,140.056 C92.216,140.616 92.0346667,141.112 91.768,141.544 C91.5013333,141.976 91.1253333,142.32 90.64,142.576 C90.1546667,142.832 89.5226667,142.96 88.744,142.96 Z M97.32,144 L97.32,138.816 L98.552,138.816 L102.472,144 L104.152,144 L99.704,138.128 L103.656,132.8 L102.12,132.8 L98.52,137.792 L97.32,137.792 L97.32,132.8 L95.992,132.8 L95.992,144 L97.32,144 Z" id="OckamCloudSDK" fill="#FFFFFF" fill-rule="nonzero" transform="translate(32.576000, 138.408000) rotate(-90.000000) translate(-32.576000, -138.408000) "></path>
          </g>
        </g>
        <g id="icon/transfer" transform="translate(539.000000, 139.000000) rotate(-270.000000) translate(-539.000000, -139.000000) translate(523.000000, 123.000000)" fill="#00BAE9" fill-rule="nonzero">
          <path d="M12,4 L6.66666667,9.33333333 L10.6666667,9.33333333 L10.6666667,18.6666667 L13.3333333,18.6666667 L13.3333333,9.33333333 L17.3333333,9.33333333 M21.3333333,22.6666667 L21.3333333,13.3333333 L18.6666667,13.3333333 L18.6666667,22.6666667 L14.6666667,22.6666667 L20,28 L25.3333333,22.6666667 L21.3333333,22.6666667 Z" id="Shape"></path>
        </g>
        <g id="Group-9" transform="translate(578.000000, 87.000000)">
          <g id="Group-3" fill="#00BAE9" stroke="#00BAE9">
            <path d="M32,-1.84030569e-11 L0.5,14.0167464 L0.5,35.041866 C0.5,54.4901017 13.94,72.6768301 32,77.0921053 C50.06,72.6768301 63.5,54.4901017 63.5,35.041866 L63.5,14.0167464 L32,-1.84030569e-11" id="Path" fill-opacity="0" fill-rule="nonzero"></path>
            <path d="M32.1710526,21.5526316 C37.1032895,21.5526316 42.0355263,25.3823684 42.0355263,30.2565789 L42.0355263,35.4789474 C44.1493421,35.4789474 46.2631579,37.5678947 46.2631579,40.005 L46.2631579,52.1905263 C46.2631579,54.2794737 44.1493421,56.3684211 41.6832237,56.3684211 L22.3065789,56.3684211 C20.1927632,56.3684211 18.0789474,54.2794737 18.0789474,51.8423684 L18.0789474,39.6568421 C18.0789474,37.5678947 20.1927632,35.4789474 22.3065789,35.4789474 L22.3065789,30.2565789 C22.3065789,25.3823684 27.2388158,21.5526316 32.1710526,21.5526316 Z M32.3026316,26 C29.2078947,26 26.5,27.6282895 26.5,30.2335526 L26.5,35.1184211 L38.1052632,35.1184211 L38.1052632,30.2335526 C38.1052632,27.6282895 35.3973684,26 32.3026316,26 Z" id="Combined-Shape" fill-opacity="0.1"></path>
          </g>
          <g id="padlock-hsm" transform="translate(18.500000, 92.000000)" fill="#25B8E4" fill-rule="nonzero">
            <path d="M1.388,12 L1.388,6.864 L6.412,6.864 L6.412,12 L7.74,12 L7.74,0.8 L6.412,0.8 L6.412,5.68 L1.388,5.68 L1.388,0.8 L0.06,0.8 L0.06,12 L1.388,12 Z M13.436,12.192 C14.0333333,12.192 14.5693333,12.1173333 15.044,11.968 C15.5186667,11.8186667 15.9186667,11.6053333 16.244,11.328 C16.5693333,11.0506667 16.82,10.72 16.996,10.336 C17.172,9.952 17.26,9.52 17.26,9.04 C17.26,8.45333333 17.1133333,7.96266667 16.82,7.568 C16.5266667,7.17333333 16.1613333,6.83466667 15.724,6.552 C15.2866667,6.26933333 14.812,6.02133333 14.3,5.808 C13.788,5.59466667 13.3133333,5.37866667 12.876,5.16 C12.4386667,4.94133333 12.0733333,4.69333333 11.78,4.416 C11.4866667,4.13866667 11.34,3.792 11.34,3.376 C11.34,3.16266667 11.3933333,2.96 11.5,2.768 C11.6066667,2.576 11.7586667,2.408 11.956,2.264 C12.1533333,2.12 12.3933333,2.00533333 12.676,1.92 C12.9586667,1.83466667 13.276,1.792 13.628,1.792 C13.9906667,1.792 14.332,1.81333333 14.652,1.856 C14.972,1.89866667 15.2653333,1.952 15.532,2.016 L15.532,2.016 L15.532,3.728 L16.716,3.728 L16.716,1.168 L16.732,1.12 L16.716,1.12 L16.716,1.088 L16.684,1.104 C16.3746667,0.954666667 15.9586667,0.834666667 15.436,0.744 C14.9133333,0.653333333 14.332,0.608 13.692,0.608 C13.1373333,0.608 12.6333333,0.674666667 12.18,0.808 C11.7266667,0.941333333 11.34,1.13066667 11.02,1.376 C10.7,1.62133333 10.452,1.92 10.276,2.272 C10.1,2.624 10.012,3.01866667 10.012,3.456 C10.012,4.07466667 10.1586667,4.584 10.452,4.984 C10.7453333,5.384 11.1106667,5.72266667 11.548,6 C11.9853333,6.27733333 12.46,6.51733333 12.972,6.72 C13.484,6.92266667 13.9586667,7.13066667 14.396,7.344 C14.8333333,7.55733333 15.1986667,7.80266667 15.492,8.08 C15.7853333,8.35733333 15.932,8.71466667 15.932,9.152 C15.932,9.472 15.8653333,9.74933333 15.732,9.984 C15.5986667,10.2186667 15.4173333,10.4133333 15.188,10.568 C14.9586667,10.7226667 14.6893333,10.8346667 14.38,10.904 C14.0706667,10.9733333 13.74,11.008 13.388,11.008 C12.9826667,11.008 12.58,10.952 12.18,10.84 C11.78,10.728 11.42,10.5866667 11.1,10.416 L11.1,10.416 L11.1,8.64 L9.916,8.64 L9.916,11.232 L9.9,11.28 C10.0386667,11.3546667 10.228,11.4453333 10.468,11.552 C10.708,11.6586667 10.98,11.76 11.284,11.856 C11.588,11.952 11.9213333,12.032 12.284,12.096 C12.6466667,12.16 13.0306667,12.192 13.436,12.192 Z M20.556,12 L20.556,4.544 L20.364,3.04 L20.444,3.04 L21.18,4.4 L22.892,7.152 L23.292,7.152 L24.924,4.416 L25.692,3.04 L25.772,3.04 L25.612,4.56 L25.612,12 L26.94,12 L26.94,0.8 L25.74,0.8 L23.18,5.056 L23.148,5.056 L20.492,0.8 L19.26,0.8 L19.26,12 L20.556,12 Z" id="HSM"></path>
          </g>
        </g>
      </g>
    </g>
  </g>
</svg>
