<?xml version="1.0" encoding="UTF-8"?>
<svg width="389px" height="107px" viewBox="0 0 389 107" version="1.1" xmlns="http://www.w3.org/2000/svg" xmlns:xlink="http://www.w3.org/1999/xlink">

  <g id="Page-1" stroke="none" stroke-width="1" fill="none" fill-rule="evenodd">
    <g id="/product-copy" transform="translate(-205.000000, -1170.000000)">
      <g id="cloud-tab" transform="translate(205.000000, 1170.000000)">
        <g id="icon/transfer" transform="translate(185.000000, 79.000000)" fill="#00BAE9" fill-rule="nonzero">
          <path d="M12,4 L6.66666667,9.33333333 L10.6666667,9.33333333 L10.6666667,18.6666667 L13.3333333,18.6666667 L13.3333333,9.33333333 L17.3333333,9.33333333 M21.3333333,22.6666667 L21.3333333,13.3333333 L18.6666667,13.3333333 L18.6666667,22.6666667 L14.6666667,22.6666667 L20,28 L25.3333333,22.6666667 L21.3333333,22.6666667 Z" id="Shape"></path>
        </g>
        <g id="Group-36">
          <g>
            <g id="Group-48">
              <path d="M10,0 L379,0 C384.522847,-1.01453063e-15 389,4.4771525 389,10 L389,49 C389,54.5228475 384.522847,59 379,59 L10,59 C4.4771525,59 6.76353751e-16,54.5228475 0,49 L0,10 C-6.76353751e-16,4.4771525 4.4771525,1.01453063e-15 10,0 Z" id="Rectangle-Copy-20" fill-opacity="0.06" fill="#25B8E4"></path>
              <g id="Group-20" transform="translate(110.000000, 22.000000)" fill-rule="nonzero">
                <g id="Group-25">
                  <g id="Group-27">
                    <path d="M19.35,7.03 C18.67,3.59 15.64,1 12,1 C9.11,1 6.6,2.64 5.35,5.03 C2.34,5.36 0,7.9 0,11 C0,14.3137085 2.6862915,17 6,17 L19,17 C20.3260824,17 21.597852,16.4732158 22.5355339,15.5355339 C23.4732158,14.597852 24,13.3260824 24,12 C24,9.36 21.95,7.22 19.35,7.03 Z" id="Path" fill="#00BAE9"></path>
                    <path d="M49.796,14.192 C50.5,14.192 51.0973333,14.1093333 51.588,13.944 C52.0786667,13.7786667 52.484,13.5733333 52.804,13.328 L52.804,13.328 L52.788,13.296 L52.788,11.136 L51.604,11.136 L51.604,12.736 C51.4013333,12.8213333 51.18,12.888 50.94,12.936 C50.7,12.984 50.4413333,13.008 50.164,13.008 C49.62,13.008 49.1266667,12.912 48.684,12.72 C48.2413333,12.528 47.8626667,12.24 47.548,11.856 C47.2333333,11.472 46.988,10.992 46.812,10.416 C46.636,9.84 46.548,9.168 46.548,8.4 C46.548,7.54666667 46.6466667,6.82666667 46.844,6.24 C47.0413333,5.65333333 47.3026667,5.17866667 47.628,4.816 C47.9533333,4.45333333 48.3266667,4.192 48.748,4.032 C49.1693333,3.872 49.5986667,3.792 50.036,3.792 C50.3453333,3.792 50.6093333,3.81066667 50.828,3.848 C51.0466667,3.88533333 51.2466667,3.94133333 51.428,4.016 L51.428,4.016 L51.428,5.728 L52.612,5.728 L52.612,3.2 L52.596,3.2 C52.4466667,3.104 52.2946667,3.01866667 52.14,2.944 C51.9853333,2.86933333 51.8066667,2.808 51.604,2.76 C51.4013333,2.712 51.1666667,2.67466667 50.9,2.648 C50.6333333,2.62133333 50.3186667,2.608 49.956,2.608 C49.2946667,2.608 48.6733333,2.71466667 48.092,2.928 C47.5106667,3.14133333 47.0013333,3.48 46.564,3.944 C46.1266667,4.408 45.78,5.00533333 45.524,5.736 C45.268,6.46666667 45.14,7.35466667 45.14,8.4 C45.14,9.40266667 45.2546667,10.2693333 45.484,11 C45.7133333,11.7306667 46.036,12.3306667 46.452,12.8 C46.868,13.2693333 47.3613333,13.6186667 47.932,13.848 C48.5026667,14.0773333 49.124,14.192 49.796,14.192 Z M59.476,14.208 C59.6573333,14.208 59.8546667,14.1866667 60.068,14.144 C60.2813333,14.1013333 60.4946667,14.04 60.708,13.96 C60.9213333,13.88 61.1293333,13.7813333 61.332,13.664 C61.5346667,13.5466667 61.7213333,13.4133333 61.892,13.264 L61.892,13.264 L61.316,12.384 C60.9853333,12.64 60.684,12.8213333 60.412,12.928 C60.14,13.0346667 59.8546667,13.088 59.556,13.088 C59.1293333,13.088 58.8066667,12.9546667 58.588,12.688 C58.3693333,12.4213333 58.26,11.9626667 58.26,11.312 L58.26,11.312 L58.26,2.8 L55.604,2.8 L55.604,3.872 L57.012,3.872 L57.012,11.312 C57.012,11.856 57.0653333,12.312 57.172,12.68 C57.2786667,13.048 57.436,13.344 57.644,13.568 C57.852,13.792 58.1106667,13.9546667 58.42,14.056 C58.7293333,14.1573333 59.0813333,14.208 59.476,14.208 Z M68.1,14.192 C68.7186667,14.192 69.2706667,14.0933333 69.756,13.896 C70.2413333,13.6986667 70.6493333,13.4186667 70.98,13.056 C71.3106667,12.6933333 71.5613333,12.2533333 71.732,11.736 C71.9026667,11.2186667 71.988,10.64 71.988,10 C71.988,9.41333333 71.9106667,8.864 71.756,8.352 C71.6013333,7.84 71.364,7.39733333 71.044,7.024 C70.724,6.65066667 70.3213333,6.35466667 69.836,6.136 C69.3506667,5.91733333 68.772,5.808 68.1,5.808 C66.852,5.808 65.892,6.184 65.22,6.936 C64.548,7.688 64.212,8.70933333 64.212,10 C64.212,10.5866667 64.2893333,11.136 64.444,11.648 C64.5986667,12.16 64.836,12.6026667 65.156,12.976 C65.476,13.3493333 65.8813333,13.6453333 66.372,13.864 C66.8626667,14.0826667 67.4386667,14.192 68.1,14.192 Z M68.1,13.12 C67.6306667,13.12 67.2333333,13.0293333 66.908,12.848 C66.5826667,12.6666667 66.3186667,12.4266667 66.116,12.128 C65.9133333,11.8293333 65.7666667,11.4933333 65.676,11.12 C65.5853333,10.7466667 65.54,10.3733333 65.54,10 C65.54,8.96533333 65.7533333,8.18666667 66.18,7.664 C66.6066667,7.14133333 67.2466667,6.88 68.1,6.88 C68.5693333,6.88 68.9666667,6.97066667 69.292,7.152 C69.6173333,7.33333333 69.884,7.57333333 70.092,7.872 C70.3,8.17066667 70.4493333,8.504 70.54,8.872 C70.6306667,9.24 70.676,9.616 70.676,10 C70.676,11.024 70.46,11.8 70.028,12.328 C69.596,12.856 68.9533333,13.12 68.1,13.12 Z M77.14,14.192 C77.7906667,14.192 78.3453333,14.048 78.804,13.76 C79.2626667,13.472 79.6306667,13.0986667 79.908,12.64 L79.908,12.64 L79.972,12.64 L80.02,14 L82.148,14 L82.148,12.96 L81.076,12.96 C81.012,12.48 80.98,11.9786667 80.98,11.456 L80.98,11.456 L80.98,6 L78.708,6 L78.708,7.072 L79.732,7.072 L79.732,11.216 C79.5186667,11.76 79.2066667,12.2133333 78.796,12.576 C78.3853333,12.9386667 77.9026667,13.12 77.348,13.12 C76.964,13.12 76.6573333,13.0586667 76.428,12.936 C76.1986667,12.8133333 76.0253333,12.632 75.908,12.392 C75.7906667,12.152 75.7133333,11.8586667 75.676,11.512 C75.6386667,11.1653333 75.62,10.7733333 75.62,10.336 L75.62,10.336 L75.62,6 L73.3,6 L73.3,7.072 L74.372,7.072 L74.372,10.592 C74.372,11.2853333 74.4253333,11.864 74.532,12.328 C74.6386667,12.792 74.804,13.1626667 75.028,13.44 C75.252,13.7173333 75.5373333,13.912 75.884,14.024 C76.2306667,14.136 76.6493333,14.192 77.14,14.192 Z M86.916,14.192 C87.524,14.192 88.06,14.056 88.524,13.784 C88.988,13.512 89.3373333,13.1733333 89.572,12.768 L89.572,12.768 L89.636,12.768 L89.796,14 L91.924,14 L91.924,12.96 L90.852,12.96 C90.8306667,12.8426667 90.8093333,12.7066667 90.788,12.552 C90.7666667,12.3973333 90.748,12.24 90.732,12.08 C90.716,11.92 90.7026667,11.768 90.692,11.624 C90.6813333,11.48 90.676,11.36 90.676,11.264 L90.676,11.264 L90.676,2.8 L88.084,2.8 L88.084,3.872 L89.428,3.872 L89.428,6.144 C89.268,6.10133333 89.1213333,6.06133333 88.988,6.024 C88.8546667,5.98666667 88.7133333,5.95733333 88.564,5.936 C88.4146667,5.91466667 88.252,5.89866667 88.076,5.888 C87.9,5.87733333 87.7,5.872 87.476,5.872 C86.8573333,5.872 86.2973333,5.96266667 85.796,6.144 C85.2946667,6.32533333 84.8653333,6.58933333 84.508,6.936 C84.1506667,7.28266667 83.876,7.71466667 83.684,8.232 C83.492,8.74933333 83.396,9.344 83.396,10.016 C83.396,11.4453333 83.6813333,12.4986667 84.252,13.176 C84.8226667,13.8533333 85.7106667,14.192 86.916,14.192 Z M87.124,13.12 C86.676,13.12 86.2973333,13.04 85.988,12.88 C85.6786667,12.72 85.4306667,12.5013333 85.244,12.224 C85.0573333,11.9466667 84.924,11.6186667 84.844,11.24 C84.764,10.8613333 84.724,10.4533333 84.724,10.016 C84.724,8.94933333 84.9693333,8.168 85.46,7.672 C85.9506667,7.176 86.6226667,6.928 87.476,6.928 C87.956,6.928 88.3426667,6.96533333 88.636,7.04 C88.9293333,7.11466667 89.1933333,7.232 89.428,7.392 L89.428,7.392 L89.428,11.104 C89.2893333,11.776 89.0333333,12.28 88.66,12.616 C88.2866667,12.952 87.7746667,13.12 87.124,13.12 Z M106.436,14.192 C107.033333,14.192 107.569333,14.1173333 108.044,13.968 C108.518667,13.8186667 108.918667,13.6053333 109.244,13.328 C109.569333,13.0506667 109.82,12.72 109.996,12.336 C110.172,11.952 110.26,11.52 110.26,11.04 C110.26,10.4533333 110.113333,9.96266667 109.82,9.568 C109.526667,9.17333333 109.161333,8.83466667 108.724,8.552 C108.286667,8.26933333 107.812,8.02133333 107.3,7.808 C106.788,7.59466667 106.313333,7.37866667 105.876,7.16 C105.438667,6.94133333 105.073333,6.69333333 104.78,6.416 C104.486667,6.13866667 104.34,5.792 104.34,5.376 C104.34,5.16266667 104.393333,4.96 104.5,4.768 C104.606667,4.576 104.758667,4.408 104.956,4.264 C105.153333,4.12 105.393333,4.00533333 105.676,3.92 C105.958667,3.83466667 106.276,3.792 106.628,3.792 C106.990667,3.792 107.332,3.81333333 107.652,3.856 C107.972,3.89866667 108.265333,3.952 108.532,4.016 L108.532,4.016 L108.532,5.728 L109.716,5.728 L109.716,3.168 L109.732,3.12 L109.716,3.12 L109.716,3.088 L109.684,3.104 C109.374667,2.95466667 108.958667,2.83466667 108.436,2.744 C107.913333,2.65333333 107.332,2.608 106.692,2.608 C106.137333,2.608 105.633333,2.67466667 105.18,2.808 C104.726667,2.94133333 104.34,3.13066667 104.02,3.376 C103.7,3.62133333 103.452,3.92 103.276,4.272 C103.1,4.624 103.012,5.01866667 103.012,5.456 C103.012,6.07466667 103.158667,6.584 103.452,6.984 C103.745333,7.384 104.110667,7.72266667 104.548,8 C104.985333,8.27733333 105.46,8.51733333 105.972,8.72 C106.484,8.92266667 106.958667,9.13066667 107.396,9.344 C107.833333,9.55733333 108.198667,9.80266667 108.492,10.08 C108.785333,10.3573333 108.932,10.7146667 108.932,11.152 C108.932,11.472 108.865333,11.7493333 108.732,11.984 C108.598667,12.2186667 108.417333,12.4133333 108.188,12.568 C107.958667,12.7226667 107.689333,12.8346667 107.38,12.904 C107.070667,12.9733333 106.74,13.008 106.388,13.008 C105.982667,13.008 105.58,12.952 105.18,12.84 C104.78,12.728 104.42,12.5866667 104.1,12.416 L104.1,12.416 L104.1,10.64 L102.916,10.64 L102.916,13.232 L102.9,13.28 C103.038667,13.3546667 103.228,13.4453333 103.468,13.552 C103.708,13.6586667 103.98,13.76 104.284,13.856 C104.588,13.952 104.921333,14.032 105.284,14.096 C105.646667,14.16 106.030667,14.192 106.436,14.192 Z M116.244,14.192 C116.585333,14.192 116.924,14.1626667 117.26,14.104 C117.596,14.0453333 117.918667,13.9626667 118.228,13.856 C118.537333,13.7493333 118.822667,13.6213333 119.084,13.472 C119.345333,13.3226667 119.572,13.1626667 119.764,12.992 L119.764,12.992 L119.268,12.08 C119.161333,12.176 119.009333,12.2826667 118.812,12.4 C118.614667,12.5173333 118.388,12.624 118.132,12.72 C117.876,12.816 117.606667,12.8986667 117.324,12.968 C117.041333,13.0373333 116.756,13.072 116.468,13.072 C115.604,13.072 114.913333,12.8346667 114.396,12.36 C113.878667,11.8853333 113.62,11.168 113.62,10.208 L113.62,10.208 L119.812,10.208 C119.865333,9.30133333 119.801333,8.56266667 119.62,7.992 C119.438667,7.42133333 119.18,6.97333333 118.844,6.648 C118.508,6.32266667 118.121333,6.10133333 117.684,5.984 C117.246667,5.86666667 116.804,5.808 116.356,5.808 C115.737333,5.808 115.177333,5.90133333 114.676,6.088 C114.174667,6.27466667 113.748,6.544 113.396,6.896 C113.044,7.248 112.774667,7.68533333 112.588,8.208 C112.401333,8.73066667 112.308,9.328 112.308,10 C112.308,10.64 112.393333,11.216 112.564,11.728 C112.734667,12.24 112.985333,12.68 113.316,13.048 C113.646667,13.416 114.057333,13.6986667 114.548,13.896 C115.038667,14.0933333 115.604,14.192 116.244,14.192 Z M118.644,9.088 L113.668,9.088 C113.710667,8.672 113.809333,8.32266667 113.964,8.04 C114.118667,7.75733333 114.316,7.528 114.556,7.352 C114.796,7.176 115.073333,7.05066667 115.388,6.976 C115.702667,6.90133333 116.036,6.864 116.388,6.864 C117.038667,6.864 117.564,7.05866667 117.964,7.448 C118.364,7.83733333 118.590667,8.384 118.644,9.088 L118.644,9.088 Z M128.42,14 L128.42,12.928 L125.348,12.928 L125.348,8.208 C125.412,8.112 125.513333,7.99466667 125.652,7.856 C125.790667,7.71733333 125.958667,7.57866667 126.156,7.44 C126.353333,7.30133333 126.585333,7.184 126.852,7.088 C127.118667,6.992 127.417333,6.944 127.748,6.944 C128.1,6.944 128.342667,7.104 128.476,7.424 C128.609333,7.744 128.676,8.24533333 128.676,8.928 L128.676,8.928 L129.796,8.912 C129.796,8.432 129.774667,8.00266667 129.732,7.624 C129.689333,7.24533333 129.606667,6.92266667 129.484,6.656 C129.361333,6.38933333 129.190667,6.18666667 128.972,6.048 C128.753333,5.90933333 128.462667,5.84 128.1,5.84 C127.481333,5.84 126.948,5.95733333 126.5,6.192 C126.052,6.42666667 125.646667,6.70933333 125.284,7.04 L125.284,7.04 L125.204,7.04 L124.948,6 L121.956,6 L121.956,7.072 L124.116,7.072 L124.116,12.928 L121.956,12.928 L121.956,14 L128.42,14 Z M136.036,14 L139.412,6 L138.02,6 L135.508,12.448 L135.332,12.448 L132.66,6 L131.188,6 L134.628,14 L136.036,14 Z M145.156,4.72 C145.465333,4.72 145.724,4.624 145.932,4.432 C146.14,4.24 146.244,4.00533333 146.244,3.728 C146.244,3.44 146.14,3.192 145.932,2.984 C145.724,2.776 145.465333,2.672 145.156,2.672 C144.857333,2.672 144.612,2.776 144.42,2.984 C144.228,3.192 144.132,3.44 144.132,3.728 C144.132,4.00533333 144.228,4.24 144.42,4.432 C144.612,4.624 144.857333,4.72 145.156,4.72 Z M148.564,14 L148.564,12.928 L145.844,12.928 L145.844,6 L141.78,6 L141.78,7.072 L144.564,7.072 L144.564,12.928 L141.78,12.928 L141.78,14 L148.564,14 Z M154.884,14.192 C155.3,14.192 155.686667,14.1546667 156.044,14.08 C156.401333,14.0053333 156.726667,13.9066667 157.02,13.784 C157.313333,13.6613333 157.572,13.5306667 157.796,13.392 C158.02,13.2533333 158.206667,13.12 158.356,12.992 L158.356,12.992 L157.796,12.064 C157.476,12.3413333 157.078667,12.5653333 156.604,12.736 C156.129333,12.9066667 155.641333,12.992 155.14,12.992 C154.670667,12.992 154.241333,12.9226667 153.852,12.784 C153.462667,12.6453333 153.129333,12.448 152.852,12.192 C152.574667,11.936 152.361333,11.624 152.212,11.256 C152.062667,10.888 151.988,10.4693333 151.988,10 C151.988,8.93333333 152.244,8.15466667 152.756,7.664 C153.268,7.17333333 154.046667,6.928 155.092,6.928 C155.369333,6.928 155.649333,6.95733333 155.932,7.016 C156.214667,7.07466667 156.478667,7.14666667 156.724,7.232 L156.724,7.232 L156.724,8.752 L157.876,8.752 L157.876,6.528 L157.892,6.48 C157.550667,6.30933333 157.132,6.15466667 156.636,6.016 C156.14,5.87733333 155.497333,5.808 154.708,5.808 C154.089333,5.808 153.529333,5.90133333 153.028,6.088 C152.526667,6.27466667 152.1,6.544 151.748,6.896 C151.396,7.248 151.126667,7.68533333 150.94,8.208 C150.753333,8.73066667 150.66,9.328 150.66,10 C150.66,10.6293333 150.750667,11.2026667 150.932,11.72 C151.113333,12.2373333 151.38,12.68 151.732,13.048 C152.084,13.416 152.524,13.6986667 153.052,13.896 C153.58,14.0933333 154.190667,14.192 154.884,14.192 Z M164.244,14.192 C164.585333,14.192 164.924,14.1626667 165.26,14.104 C165.596,14.0453333 165.918667,13.9626667 166.228,13.856 C166.537333,13.7493333 166.822667,13.6213333 167.084,13.472 C167.345333,13.3226667 167.572,13.1626667 167.764,12.992 L167.764,12.992 L167.268,12.08 C167.161333,12.176 167.009333,12.2826667 166.812,12.4 C166.614667,12.5173333 166.388,12.624 166.132,12.72 C165.876,12.816 165.606667,12.8986667 165.324,12.968 C165.041333,13.0373333 164.756,13.072 164.468,13.072 C163.604,13.072 162.913333,12.8346667 162.396,12.36 C161.878667,11.8853333 161.62,11.168 161.62,10.208 L161.62,10.208 L167.812,10.208 C167.865333,9.30133333 167.801333,8.56266667 167.62,7.992 C167.438667,7.42133333 167.18,6.97333333 166.844,6.648 C166.508,6.32266667 166.121333,6.10133333 165.684,5.984 C165.246667,5.86666667 164.804,5.808 164.356,5.808 C163.737333,5.808 163.177333,5.90133333 162.676,6.088 C162.174667,6.27466667 161.748,6.544 161.396,6.896 C161.044,7.248 160.774667,7.68533333 160.588,8.208 C160.401333,8.73066667 160.308,9.328 160.308,10 C160.308,10.64 160.393333,11.216 160.564,11.728 C160.734667,12.24 160.985333,12.68 161.316,13.048 C161.646667,13.416 162.057333,13.6986667 162.548,13.896 C163.038667,14.0933333 163.604,14.192 164.244,14.192 Z M166.644,9.088 L161.668,9.088 C161.710667,8.672 161.809333,8.32266667 161.964,8.04 C162.118667,7.75733333 162.316,7.528 162.556,7.352 C162.796,7.176 163.073333,7.05066667 163.388,6.976 C163.702667,6.90133333 164.036,6.864 164.388,6.864 C165.038667,6.864 165.564,7.05866667 165.964,7.448 C166.364,7.83733333 166.590667,8.384 166.644,9.088 L166.644,9.088 Z" id="CloudService" fill="#25B8E4"></path>
                  </g>
                </g>
              </g>
            </g>
          </g>
        </g>
      </g>
    </g>
  </g>
</svg>
