<?xml version="1.0" encoding="UTF-8"?>
<svg width="641px" height="278px" viewBox="0 0 641 278" version="1.1" xmlns="http://www.w3.org/2000/svg" xmlns:xlink="http://www.w3.org/1999/xlink">
    <!-- Generator: Sketch 62 (91390) - https://sketch.com -->
    <title>edg-section</title>
    <desc>Created with Sketch.</desc>
    <g id="Page-1" stroke="none" stroke-width="1" fill="none" fill-rule="evenodd">
        <g id="edg-section">
            <g id="Group-41">
                <rect id="Rectangle-Copy-3" stroke="#4BC7EC" x="0.5" y="0.5" width="492" height="277" rx="10"></rect>
                <g id="Group-34-Copy" transform="translate(62.000000, 40.000000)">
                    <g id="Group-32" fill="#25B8E4">
                        <rect id="Rectangle-Copy-13" fill-opacity="0.06" x="0" y="0" width="316" height="59" rx="10"></rect>
                        <path d="M73.516,35 L73.516,33.816 L71.756,33.816 L71.756,24.984 L74.076,24.984 L74.076,26.728 L75.26,26.728 L75.26,23.8 L66.94,23.8 L66.94,26.728 L68.124,26.728 L68.124,24.984 L70.428,24.984 L70.428,33.816 L68.668,33.816 L68.668,35 L73.516,35 Z M83.42,35 L83.42,33.928 L80.348,33.928 L80.348,29.208 C80.412,29.112 80.5133333,28.9946667 80.652,28.856 C80.7906667,28.7173333 80.9586667,28.5786667 81.156,28.44 C81.3533333,28.3013333 81.5853333,28.184 81.852,28.088 C82.1186667,27.992 82.4173333,27.944 82.748,27.944 C83.1,27.944 83.3426667,28.104 83.476,28.424 C83.6093333,28.744 83.676,29.2453333 83.676,29.928 L83.676,29.928 L84.796,29.912 C84.796,29.432 84.7746667,29.0026667 84.732,28.624 C84.6893333,28.2453333 84.6066667,27.9226667 84.484,27.656 C84.3613333,27.3893333 84.1906667,27.1866667 83.972,27.048 C83.7533333,26.9093333 83.4626667,26.84 83.1,26.84 C82.4813333,26.84 81.948,26.9573333 81.5,27.192 C81.052,27.4266667 80.6466667,27.7093333 80.284,28.04 L80.284,28.04 L80.204,28.04 L79.948,27 L76.956,27 L76.956,28.072 L79.116,28.072 L79.116,33.928 L76.956,33.928 L76.956,35 L83.42,35 Z M89.26,35.144 C89.6653333,35.144 90.0173333,35.0906667 90.316,34.984 C90.6146667,34.8773333 90.868,34.752 91.076,34.608 C91.284,34.464 91.452,34.3173333 91.58,34.168 C91.708,34.0186667 91.804,33.896 91.868,33.8 L91.868,33.8 L91.948,33.8 L92.092,35 L94.22,35 L94.22,33.96 L93.148,33.96 C93.084,33.48 93.052,32.9733333 93.052,32.44 C93.0626667,31.9813333 93.0786667,31.5226667 93.1,31.064 C93.1213333,30.6053333 93.132,30.1733333 93.132,29.768 C93.132,29.416 93.0973333,29.0666667 93.028,28.72 C92.9586667,28.3733333 92.8253333,28.064 92.628,27.792 C92.4306667,27.52 92.1586667,27.2986667 91.812,27.128 C91.4653333,26.9573333 91.02,26.872 90.476,26.872 C89.9213333,26.872 89.356,26.9306667 88.78,27.048 C88.204,27.1653333 87.6866667,27.3573333 87.228,27.624 L87.228,27.624 L87.628,28.552 C87.9693333,28.4133333 88.3586667,28.2773333 88.796,28.144 C89.2333333,28.0106667 89.692,27.944 90.172,27.944 C90.524,27.944 90.82,27.984 91.06,28.064 C91.3,28.144 91.4866667,28.28 91.62,28.472 C91.7533333,28.664 91.8386667,28.9226667 91.876,29.248 C91.9133333,29.5733333 91.9053333,29.9813333 91.852,30.472 C91.0626667,30.3546667 90.3506667,30.312 89.716,30.344 C89.0813333,30.376 88.54,30.488 88.092,30.68 C87.644,30.872 87.3,31.1493333 87.06,31.512 C86.82,31.8746667 86.7,32.328 86.7,32.872 C86.7,33.576 86.9293333,34.1306667 87.388,34.536 C87.8466667,34.9413333 88.4706667,35.144 89.26,35.144 Z M89.58,34.072 C89.0146667,34.072 88.612,33.9413333 88.372,33.68 C88.132,33.4186667 88.012,33.112 88.012,32.76 C88.012,32.4186667 88.108,32.1413333 88.3,31.928 C88.492,31.7146667 88.7586667,31.5573333 89.1,31.456 C89.4413333,31.3546667 89.8466667,31.304 90.316,31.304 C90.7853333,31.304 91.2973333,31.352 91.852,31.448 L91.852,31.448 L91.852,32.568 C91.788,32.728 91.692,32.896 91.564,33.072 C91.436,33.248 91.276,33.4106667 91.084,33.56 C90.892,33.7093333 90.668,33.832 90.412,33.928 C90.156,34.024 89.8786667,34.072 89.58,34.072 Z M97.82,35 L97.82,29.976 C97.8946667,29.7093333 98.012,29.456 98.172,29.216 C98.332,28.976 98.5186667,28.7653333 98.732,28.584 C98.9453333,28.4026667 99.1826667,28.256 99.444,28.144 C99.7053333,28.032 99.9746667,27.976 100.252,27.976 C101.009333,27.976 101.532,28.2 101.82,28.648 C102.108,29.096 102.252,29.7626667 102.252,30.648 L102.252,30.648 L102.252,35 L103.5,35 L103.5,30.408 C103.5,29.6933333 103.436,29.104 103.308,28.64 C103.18,28.176 102.990667,27.808 102.74,27.536 C102.489333,27.264 102.174667,27.0746667 101.796,26.968 C101.417333,26.8613333 100.982667,26.808 100.492,26.808 C100.172,26.808 99.868,26.8506667 99.58,26.936 C99.292,27.0213333 99.0306667,27.136 98.796,27.28 C98.5613333,27.424 98.356,27.584 98.18,27.76 C98.004,27.936 97.8626667,28.1146667 97.756,28.296 L97.756,28.296 L97.676,28.296 L97.532,27 L95.388,27 L95.388,28.04 L96.46,28.04 C96.4813333,28.1573333 96.5,28.296 96.516,28.456 C96.532,28.616 96.5453333,28.7786667 96.556,28.944 C96.5666667,29.1093333 96.5746667,29.2693333 96.58,29.424 C96.5853333,29.5786667 96.588,29.704 96.588,29.8 L96.588,29.8 L96.588,35 L97.82,35 Z M109.468,35.192 C110.630667,35.192 111.502667,34.952 112.084,34.472 C112.665333,33.992 112.956,33.384 112.956,32.648 C112.956,32.1573333 112.822667,31.768 112.556,31.48 C112.289333,31.192 111.958667,30.9626667 111.564,30.792 C111.169333,30.6213333 110.74,30.4906667 110.276,30.4 C109.812,30.3093333 109.382667,30.2133333 108.988,30.112 C108.593333,30.0106667 108.262667,29.8853333 107.996,29.736 C107.729333,29.5866667 107.596,29.3733333 107.596,29.096 C107.596,28.872 107.652,28.6826667 107.764,28.528 C107.876,28.3733333 108.025333,28.248 108.212,28.152 C108.398667,28.056 108.606667,27.984 108.836,27.936 C109.065333,27.888 109.297333,27.864 109.532,27.864 C110.150667,27.864 110.665333,27.952 111.076,28.128 C111.486667,28.304 111.868,28.488 112.22,28.68 L112.22,28.68 L112.732,27.672 C112.412,27.4693333 111.982667,27.2746667 111.444,27.088 C110.905333,26.9013333 110.262667,26.808 109.516,26.808 C109.1,26.808 108.7,26.8533333 108.316,26.944 C107.932,27.0346667 107.596,27.1733333 107.308,27.36 C107.02,27.5466667 106.788,27.784 106.612,28.072 C106.436,28.36 106.348,28.7066667 106.348,29.112 C106.348,29.6026667 106.481333,29.984 106.748,30.256 C107.014667,30.528 107.345333,30.744 107.74,30.904 C108.134667,31.064 108.564,31.192 109.028,31.288 C109.492,31.384 109.921333,31.488 110.316,31.6 C110.710667,31.712 111.041333,31.8613333 111.308,32.048 C111.574667,32.2346667 111.708,32.4986667 111.708,32.84 C111.708,33.0746667 111.652,33.2746667 111.54,33.44 C111.428,33.6053333 111.276,33.7386667 111.084,33.84 C110.892,33.9413333 110.670667,34.016 110.42,34.064 C110.169333,34.112 109.9,34.136 109.612,34.136 C109.313333,34.136 109.017333,34.104 108.724,34.04 C108.430667,33.976 108.156,33.8906667 107.9,33.784 C107.644,33.6773333 107.409333,33.5573333 107.196,33.424 C106.982667,33.2906667 106.812,33.16 106.684,33.032 L106.684,33.032 L106.044,34.072 C106.204,34.2106667 106.406667,34.3466667 106.652,34.48 C106.897333,34.6133333 107.169333,34.7333333 107.468,34.84 C107.766667,34.9466667 108.086667,35.032 108.428,35.096 C108.769333,35.16 109.116,35.192 109.468,35.192 Z M117.068,38.2 L117.068,34.84 C117.228,34.904 117.377333,34.9573333 117.516,35 C117.654667,35.0426667 117.796,35.0773333 117.94,35.104 C118.084,35.1306667 118.244,35.152 118.42,35.168 C118.596,35.184 118.796,35.192 119.02,35.192 C119.638667,35.192 120.204,35.0906667 120.716,34.888 C121.228,34.6853333 121.665333,34.3973333 122.028,34.024 C122.390667,33.6506667 122.670667,33.1946667 122.868,32.656 C123.065333,32.1173333 123.164,31.512 123.164,30.84 C123.164,29.4106667 122.876,28.3813333 122.3,27.752 C121.724,27.1226667 120.865333,26.808 119.724,26.808 C119.084,26.808 118.542667,26.9333333 118.1,27.184 C117.657333,27.4346667 117.292,27.7466667 117.004,28.12 L117.004,28.12 L116.924,28.12 L116.764,27 L114.636,27 L114.636,28.04 L115.708,28.04 C115.729333,28.1573333 115.748,28.296 115.764,28.456 C115.78,28.616 115.793333,28.7786667 115.804,28.944 C115.814667,29.1093333 115.822667,29.2693333 115.828,29.424 C115.833333,29.5786667 115.836,29.704 115.836,29.8 L115.836,29.8 L115.836,38.2 L117.068,38.2 Z M119.02,34.12 C118.54,34.12 118.153333,34.0746667 117.86,33.984 C117.566667,33.8933333 117.302667,33.768 117.068,33.608 L117.068,33.608 L117.068,29.96 C117.1,29.7253333 117.185333,29.4906667 117.324,29.256 C117.462667,29.0213333 117.641333,28.808 117.86,28.616 C118.078667,28.424 118.329333,28.2693333 118.612,28.152 C118.894667,28.0346667 119.196,27.976 119.516,27.976 C120.348,27.976 120.942667,28.224 121.3,28.72 C121.657333,29.216 121.836,29.9173333 121.836,30.824 C121.836,31.9013333 121.58,32.72 121.068,33.28 C120.556,33.84 119.873333,34.12 119.02,34.12 Z M128.7,35.192 C129.318667,35.192 129.870667,35.0933333 130.356,34.896 C130.841333,34.6986667 131.249333,34.4186667 131.58,34.056 C131.910667,33.6933333 132.161333,33.2533333 132.332,32.736 C132.502667,32.2186667 132.588,31.64 132.588,31 C132.588,30.4133333 132.510667,29.864 132.356,29.352 C132.201333,28.84 131.964,28.3973333 131.644,28.024 C131.324,27.6506667 130.921333,27.3546667 130.436,27.136 C129.950667,26.9173333 129.372,26.808 128.7,26.808 C127.452,26.808 126.492,27.184 125.82,27.936 C125.148,28.688 124.812,29.7093333 124.812,31 C124.812,31.5866667 124.889333,32.136 125.044,32.648 C125.198667,33.16 125.436,33.6026667 125.756,33.976 C126.076,34.3493333 126.481333,34.6453333 126.972,34.864 C127.462667,35.0826667 128.038667,35.192 128.7,35.192 Z M128.7,34.12 C128.230667,34.12 127.833333,34.0293333 127.508,33.848 C127.182667,33.6666667 126.918667,33.4266667 126.716,33.128 C126.513333,32.8293333 126.366667,32.4933333 126.276,32.12 C126.185333,31.7466667 126.14,31.3733333 126.14,31 C126.14,29.9653333 126.353333,29.1866667 126.78,28.664 C127.206667,28.1413333 127.846667,27.88 128.7,27.88 C129.169333,27.88 129.566667,27.9706667 129.892,28.152 C130.217333,28.3333333 130.484,28.5733333 130.692,28.872 C130.9,29.1706667 131.049333,29.504 131.14,29.872 C131.230667,30.24 131.276,30.616 131.276,31 C131.276,32.024 131.06,32.8 130.628,33.328 C130.196,33.856 129.553333,34.12 128.7,34.12 Z M141.02,35 L141.02,33.928 L137.948,33.928 L137.948,29.208 C138.012,29.112 138.113333,28.9946667 138.252,28.856 C138.390667,28.7173333 138.558667,28.5786667 138.756,28.44 C138.953333,28.3013333 139.185333,28.184 139.452,28.088 C139.718667,27.992 140.017333,27.944 140.348,27.944 C140.7,27.944 140.942667,28.104 141.076,28.424 C141.209333,28.744 141.276,29.2453333 141.276,29.928 L141.276,29.928 L142.396,29.912 C142.396,29.432 142.374667,29.0026667 142.332,28.624 C142.289333,28.2453333 142.206667,27.9226667 142.084,27.656 C141.961333,27.3893333 141.790667,27.1866667 141.572,27.048 C141.353333,26.9093333 141.062667,26.84 140.7,26.84 C140.081333,26.84 139.548,26.9573333 139.1,27.192 C138.652,27.4266667 138.246667,27.7093333 137.884,28.04 L137.884,28.04 L137.804,28.04 L137.548,27 L134.556,27 L134.556,28.072 L136.716,28.072 L136.716,33.928 L134.556,33.928 L134.556,35 L141.02,35 Z M148.652,35.208 C149.196,35.208 149.726667,35.1173333 150.244,34.936 C150.761333,34.7546667 151.206667,34.5146667 151.58,34.216 L151.58,34.216 L151.164,33.272 C150.876,33.4853333 150.553333,33.6826667 150.196,33.864 C149.838667,34.0453333 149.42,34.136 148.94,34.136 C148.236,34.136 147.694667,33.9493333 147.316,33.576 C146.937333,33.2026667 146.748,32.6266667 146.748,31.848 L146.748,31.848 L146.748,28.072 L151.02,28.072 L151.02,27 L146.748,27 L146.748,25.064 L145.5,25.416 L145.5,27 L143.596,27 L143.596,28.072 L145.5,28.072 L145.5,32.04 C145.5,32.5946667 145.585333,33.072 145.756,33.472 C145.926667,33.872 146.156,34.2 146.444,34.456 C146.732,34.712 147.065333,34.9013333 147.444,35.024 C147.822667,35.1466667 148.225333,35.208 148.652,35.208 Z M170.94,35 L170.94,33.816 L167.756,33.816 L167.756,24.984 L170.94,24.984 L170.94,23.8 L163.26,23.8 L163.26,24.984 L166.428,24.984 L166.428,33.816 L163.26,33.816 L163.26,35 L170.94,35 Z M174.62,35 L174.62,29.976 C174.694667,29.7093333 174.812,29.456 174.972,29.216 C175.132,28.976 175.318667,28.7653333 175.532,28.584 C175.745333,28.4026667 175.982667,28.256 176.244,28.144 C176.505333,28.032 176.774667,27.976 177.052,27.976 C177.809333,27.976 178.332,28.2 178.62,28.648 C178.908,29.096 179.052,29.7626667 179.052,30.648 L179.052,30.648 L179.052,35 L180.3,35 L180.3,30.408 C180.3,29.6933333 180.236,29.104 180.108,28.64 C179.98,28.176 179.790667,27.808 179.54,27.536 C179.289333,27.264 178.974667,27.0746667 178.596,26.968 C178.217333,26.8613333 177.782667,26.808 177.292,26.808 C176.972,26.808 176.668,26.8506667 176.38,26.936 C176.092,27.0213333 175.830667,27.136 175.596,27.28 C175.361333,27.424 175.156,27.584 174.98,27.76 C174.804,27.936 174.662667,28.1146667 174.556,28.296 L174.556,28.296 L174.476,28.296 L174.332,27 L172.188,27 L172.188,28.04 L173.26,28.04 C173.281333,28.1573333 173.3,28.296 173.316,28.456 C173.332,28.616 173.345333,28.7786667 173.356,28.944 C173.366667,29.1093333 173.374667,29.2693333 173.38,29.424 C173.385333,29.5786667 173.388,29.704 173.388,29.8 L173.388,35 L174.62,35 Z M187.052,35.208 C187.596,35.208 188.126667,35.1173333 188.644,34.936 C189.161333,34.7546667 189.606667,34.5146667 189.98,34.216 L189.98,34.216 L189.564,33.272 C189.276,33.4853333 188.953333,33.6826667 188.596,33.864 C188.238667,34.0453333 187.82,34.136 187.34,34.136 C186.636,34.136 186.094667,33.9493333 185.716,33.576 C185.337333,33.2026667 185.148,32.6266667 185.148,31.848 L185.148,31.848 L185.148,28.072 L189.42,28.072 L189.42,27 L185.148,27 L185.148,25.064 L183.9,25.416 L183.9,27 L181.996,27 L181.996,28.072 L183.9,28.072 L183.9,32.04 C183.9,32.5946667 183.985333,33.072 184.156,33.472 C184.326667,33.872 184.556,34.2 184.844,34.456 C185.132,34.712 185.465333,34.9013333 185.844,35.024 C186.222667,35.1466667 186.625333,35.208 187.052,35.208 Z M196.044,35.192 C196.385333,35.192 196.724,35.1626667 197.06,35.104 C197.396,35.0453333 197.718667,34.9626667 198.028,34.856 C198.337333,34.7493333 198.622667,34.6213333 198.884,34.472 C199.145333,34.3226667 199.372,34.1626667 199.564,33.992 L199.564,33.992 L199.068,33.08 C198.961333,33.176 198.809333,33.2826667 198.612,33.4 C198.414667,33.5173333 198.188,33.624 197.932,33.72 C197.676,33.816 197.406667,33.8986667 197.124,33.968 C196.841333,34.0373333 196.556,34.072 196.268,34.072 C195.404,34.072 194.713333,33.8346667 194.196,33.36 C193.678667,32.8853333 193.42,32.168 193.42,31.208 L193.42,31.208 L199.612,31.208 C199.665333,30.3013333 199.601333,29.5626667 199.42,28.992 C199.238667,28.4213333 198.98,27.9733333 198.644,27.648 C198.308,27.3226667 197.921333,27.1013333 197.484,26.984 C197.046667,26.8666667 196.604,26.808 196.156,26.808 C195.537333,26.808 194.977333,26.9013333 194.476,27.088 C193.974667,27.2746667 193.548,27.544 193.196,27.896 C192.844,28.248 192.574667,28.6853333 192.388,29.208 C192.201333,29.7306667 192.108,30.328 192.108,31 C192.108,31.64 192.193333,32.216 192.364,32.728 C192.534667,33.24 192.785333,33.68 193.116,34.048 C193.446667,34.416 193.857333,34.6986667 194.348,34.896 C194.838667,35.0933333 195.404,35.192 196.044,35.192 Z M198.444,30.088 L193.468,30.088 C193.510667,29.672 193.609333,29.3226667 193.764,29.04 C193.918667,28.7573333 194.116,28.528 194.356,28.352 C194.596,28.176 194.873333,28.0506667 195.188,27.976 C195.502667,27.9013333 195.836,27.864 196.188,27.864 C196.838667,27.864 197.364,28.0586667 197.764,28.448 C198.164,28.8373333 198.390667,29.384 198.444,30.088 L198.444,30.088 Z M208.22,35 L208.22,33.928 L205.148,33.928 L205.148,29.208 C205.212,29.112 205.313333,28.9946667 205.452,28.856 C205.590667,28.7173333 205.758667,28.5786667 205.956,28.44 C206.153333,28.3013333 206.385333,28.184 206.652,28.088 C206.918667,27.992 207.217333,27.944 207.548,27.944 C207.9,27.944 208.142667,28.104 208.276,28.424 C208.409333,28.744 208.476,29.2453333 208.476,29.928 L208.476,29.928 L209.596,29.912 C209.596,29.432 209.574667,29.0026667 209.532,28.624 C209.489333,28.2453333 209.406667,27.9226667 209.284,27.656 C209.161333,27.3893333 208.990667,27.1866667 208.772,27.048 C208.553333,26.9093333 208.262667,26.84 207.9,26.84 C207.281333,26.84 206.748,26.9573333 206.3,27.192 C205.852,27.4266667 205.446667,27.7093333 205.084,28.04 L205.084,28.04 L205.004,28.04 L204.748,27 L201.756,27 L201.756,28.072 L203.916,28.072 L203.916,33.928 L201.756,33.928 L201.756,35 L208.22,35 Z M218.172,35 L218.172,33.928 L214.86,33.928 L214.86,28.072 L218.172,28.072 L218.172,27 L214.86,27 C214.86,26.2106667 214.988,25.6426667 215.244,25.296 C215.5,24.9493333 215.98,24.776 216.684,24.776 C216.897333,24.776 217.132,24.7946667 217.388,24.832 C217.644,24.8693333 217.910667,24.9466667 218.188,25.064 L218.188,25.064 L218.476,24.024 C218.156,23.896 217.857333,23.8106667 217.58,23.768 C217.302667,23.7253333 216.988,23.704 216.636,23.704 C215.665333,23.704 214.918667,23.928 214.396,24.376 C213.873333,24.824 213.612,25.5493333 213.612,26.552 L213.612,26.552 L213.612,27 L211.708,27 L211.708,28.072 L213.612,28.072 L213.612,33.928 L211.708,33.928 L211.708,35 L218.172,35 Z M223.66,35.144 C224.065333,35.144 224.417333,35.0906667 224.716,34.984 C225.014667,34.8773333 225.268,34.752 225.476,34.608 C225.684,34.464 225.852,34.3173333 225.98,34.168 C226.108,34.0186667 226.204,33.896 226.268,33.8 L226.268,33.8 L226.348,33.8 L226.492,35 L228.62,35 L228.62,33.96 L227.548,33.96 C227.484,33.48 227.452,32.9733333 227.452,32.44 C227.462667,31.9813333 227.478667,31.5226667 227.5,31.064 C227.521333,30.6053333 227.532,30.1733333 227.532,29.768 C227.532,29.416 227.497333,29.0666667 227.428,28.72 C227.358667,28.3733333 227.225333,28.064 227.028,27.792 C226.830667,27.52 226.558667,27.2986667 226.212,27.128 C225.865333,26.9573333 225.42,26.872 224.876,26.872 C224.321333,26.872 223.756,26.9306667 223.18,27.048 C222.604,27.1653333 222.086667,27.3573333 221.628,27.624 L221.628,27.624 L222.028,28.552 C222.369333,28.4133333 222.758667,28.2773333 223.196,28.144 C223.633333,28.0106667 224.092,27.944 224.572,27.944 C224.924,27.944 225.22,27.984 225.46,28.064 C225.7,28.144 225.886667,28.28 226.02,28.472 C226.153333,28.664 226.238667,28.9226667 226.276,29.248 C226.313333,29.5733333 226.305333,29.9813333 226.252,30.472 C225.462667,30.3546667 224.750667,30.312 224.116,30.344 C223.481333,30.376 222.94,30.488 222.492,30.68 C222.044,30.872 221.7,31.1493333 221.46,31.512 C221.22,31.8746667 221.1,32.328 221.1,32.872 C221.1,33.576 221.329333,34.1306667 221.788,34.536 C222.246667,34.9413333 222.870667,35.144 223.66,35.144 Z M223.98,34.072 C223.414667,34.072 223.012,33.9413333 222.772,33.68 C222.532,33.4186667 222.412,33.112 222.412,32.76 C222.412,32.4186667 222.508,32.1413333 222.7,31.928 C222.892,31.7146667 223.158667,31.5573333 223.5,31.456 C223.841333,31.3546667 224.246667,31.304 224.716,31.304 C225.185333,31.304 225.697333,31.352 226.252,31.448 L226.252,31.448 L226.252,32.568 C226.188,32.728 226.092,32.896 225.964,33.072 C225.836,33.248 225.676,33.4106667 225.484,33.56 C225.292,33.7093333 225.068,33.832 224.812,33.928 C224.556,34.024 224.278667,34.072 223.98,34.072 Z M234.684,35.192 C235.1,35.192 235.486667,35.1546667 235.844,35.08 C236.201333,35.0053333 236.526667,34.9066667 236.82,34.784 C237.113333,34.6613333 237.372,34.5306667 237.596,34.392 C237.82,34.2533333 238.006667,34.12 238.156,33.992 L238.156,33.992 L237.596,33.064 C237.276,33.3413333 236.878667,33.5653333 236.404,33.736 C235.929333,33.9066667 235.441333,33.992 234.94,33.992 C234.470667,33.992 234.041333,33.9226667 233.652,33.784 C233.262667,33.6453333 232.929333,33.448 232.652,33.192 C232.374667,32.936 232.161333,32.624 232.012,32.256 C231.862667,31.888 231.788,31.4693333 231.788,31 C231.788,29.9333333 232.044,29.1546667 232.556,28.664 C233.068,28.1733333 233.846667,27.928 234.892,27.928 C235.169333,27.928 235.449333,27.9573333 235.732,28.016 C236.014667,28.0746667 236.278667,28.1466667 236.524,28.232 L236.524,28.232 L236.524,29.752 L237.676,29.752 L237.676,27.528 L237.692,27.48 C237.350667,27.3093333 236.932,27.1546667 236.436,27.016 C235.94,26.8773333 235.297333,26.808 234.508,26.808 C233.889333,26.808 233.329333,26.9013333 232.828,27.088 C232.326667,27.2746667 231.9,27.544 231.548,27.896 C231.196,28.248 230.926667,28.6853333 230.74,29.208 C230.553333,29.7306667 230.46,30.328 230.46,31 C230.46,31.6293333 230.550667,32.2026667 230.732,32.72 C230.913333,33.2373333 231.18,33.68 231.532,34.048 C231.884,34.416 232.324,34.6986667 232.852,34.896 C233.38,35.0933333 233.990667,35.192 234.684,35.192 Z M244.044,35.192 C244.385333,35.192 244.724,35.1626667 245.06,35.104 C245.396,35.0453333 245.718667,34.9626667 246.028,34.856 C246.337333,34.7493333 246.622667,34.6213333 246.884,34.472 C247.145333,34.3226667 247.372,34.1626667 247.564,33.992 L247.564,33.992 L247.068,33.08 C246.961333,33.176 246.809333,33.2826667 246.612,33.4 C246.414667,33.5173333 246.188,33.624 245.932,33.72 C245.676,33.816 245.406667,33.8986667 245.124,33.968 C244.841333,34.0373333 244.556,34.072 244.268,34.072 C243.404,34.072 242.713333,33.8346667 242.196,33.36 C241.678667,32.8853333 241.42,32.168 241.42,31.208 L241.42,31.208 L247.612,31.208 C247.665333,30.3013333 247.601333,29.5626667 247.42,28.992 C247.238667,28.4213333 246.98,27.9733333 246.644,27.648 C246.308,27.3226667 245.921333,27.1013333 245.484,26.984 C245.046667,26.8666667 244.604,26.808 244.156,26.808 C243.537333,26.808 242.977333,26.9013333 242.476,27.088 C241.974667,27.2746667 241.548,27.544 241.196,27.896 C240.844,28.248 240.574667,28.6853333 240.388,29.208 C240.201333,29.7306667 240.108,30.328 240.108,31 C240.108,31.64 240.193333,32.216 240.364,32.728 C240.534667,33.24 240.785333,33.68 241.116,34.048 C241.446667,34.416 241.857333,34.6986667 242.348,34.896 C242.838667,35.0933333 243.404,35.192 244.044,35.192 Z M246.444,30.088 L241.468,30.088 C241.510667,29.672 241.609333,29.3226667 241.764,29.04 C241.918667,28.7573333 242.116,28.528 242.356,28.352 C242.596,28.176 242.873333,28.0506667 243.188,27.976 C243.502667,27.9013333 243.836,27.864 244.188,27.864 C244.838667,27.864 245.364,28.0586667 245.764,28.448 C246.164,28.8373333 246.390667,29.384 246.444,30.088 L246.444,30.088 Z" id="TransportInterface" fill-rule="nonzero"></path>
                    </g>
                    <g id="Group-33" transform="translate(0.000000, 69.000000)" fill="#25B8E4">
                        <rect id="Rectangle-Copy-14" fill-opacity="0.06" x="0" y="0" width="316" height="59" rx="10"></rect>
                        <path d="M90.284,35.192 C91.6706667,35.192 92.692,34.6906667 93.348,33.688 C94.004,32.6853333 94.332,31.256 94.332,29.4 C94.332,28.5253333 94.2626667,27.7333333 94.124,27.024 C93.9853333,26.3146667 93.756,25.7066667 93.436,25.2 C93.116,24.6933333 92.6973333,24.3013333 92.18,24.024 C91.6626667,23.7466667 91.0306667,23.608 90.284,23.608 C88.9186667,23.608 87.908,24.1093333 87.252,25.112 C86.596,26.1146667 86.268,27.544 86.268,29.4 C86.268,30.2746667 86.3373333,31.0666667 86.476,31.776 C86.6146667,32.4853333 86.844,33.0933333 87.164,33.6 C87.484,34.1066667 87.9,34.4986667 88.412,34.776 C88.924,35.0533333 89.548,35.192 90.284,35.192 Z M90.284,34.008 C89.772,34.008 89.3506667,33.8826667 89.02,33.632 C88.6893333,33.3813333 88.4226667,33.0453333 88.22,32.624 C88.0173333,32.2026667 87.876,31.7146667 87.796,31.16 C87.716,30.6053333 87.676,30.0186667 87.676,29.4 C87.676,27.832 87.884,26.672 88.3,25.92 C88.716,25.168 89.3773333,24.792 90.284,24.792 C90.796,24.792 91.2226667,24.9173333 91.564,25.168 C91.9053333,25.4186667 92.1773333,25.7546667 92.38,26.176 C92.5826667,26.5973333 92.724,27.088 92.804,27.648 C92.884,28.208 92.924,28.792 92.924,29.4 C92.924,30.9786667 92.7133333,32.1413333 92.292,32.888 C91.8706667,33.6346667 91.2013333,34.008 90.284,34.008 Z M100.284,35.192 C100.7,35.192 101.086667,35.1546667 101.444,35.08 C101.801333,35.0053333 102.126667,34.9066667 102.42,34.784 C102.713333,34.6613333 102.972,34.5306667 103.196,34.392 C103.42,34.2533333 103.606667,34.12 103.756,33.992 L103.756,33.992 L103.196,33.064 C102.876,33.3413333 102.478667,33.5653333 102.004,33.736 C101.529333,33.9066667 101.041333,33.992 100.54,33.992 C100.070667,33.992 99.6413333,33.9226667 99.252,33.784 C98.8626667,33.6453333 98.5293333,33.448 98.252,33.192 C97.9746667,32.936 97.7613333,32.624 97.612,32.256 C97.4626667,31.888 97.388,31.4693333 97.388,31 C97.388,29.9333333 97.644,29.1546667 98.156,28.664 C98.668,28.1733333 99.4466667,27.928 100.492,27.928 C100.769333,27.928 101.049333,27.9573333 101.332,28.016 C101.614667,28.0746667 101.878667,28.1466667 102.124,28.232 L102.124,28.232 L102.124,29.752 L103.276,29.752 L103.276,27.528 L103.292,27.48 C102.950667,27.3093333 102.532,27.1546667 102.036,27.016 C101.54,26.8773333 100.897333,26.808 100.108,26.808 C99.4893333,26.808 98.9293333,26.9013333 98.428,27.088 C97.9266667,27.2746667 97.5,27.544 97.148,27.896 C96.796,28.248 96.5266667,28.6853333 96.34,29.208 C96.1533333,29.7306667 96.06,30.328 96.06,31 C96.06,31.6293333 96.1506667,32.2026667 96.332,32.72 C96.5133333,33.2373333 96.78,33.68 97.132,34.048 C97.484,34.416 97.924,34.6986667 98.452,34.896 C98.98,35.0933333 99.5906667,35.192 100.284,35.192 Z M107.676,35 L107.676,31.384 L108.556,31.384 L111.98,35 L113.628,35 L113.628,33.928 L112.588,33.928 L109.676,30.792 L113.212,27 L111.708,27 L108.556,30.424 L107.676,30.424 L107.676,23.8 L105.084,23.8 L105.084,24.872 L106.444,24.872 L106.444,35 L107.676,35 Z M118.06,35.144 C118.465333,35.144 118.817333,35.0906667 119.116,34.984 C119.414667,34.8773333 119.668,34.752 119.876,34.608 C120.084,34.464 120.252,34.3173333 120.38,34.168 C120.508,34.0186667 120.604,33.896 120.668,33.8 L120.668,33.8 L120.748,33.8 L120.892,35 L123.02,35 L123.02,33.96 L121.948,33.96 C121.884,33.48 121.852,32.9733333 121.852,32.44 C121.862667,31.9813333 121.878667,31.5226667 121.9,31.064 C121.921333,30.6053333 121.932,30.1733333 121.932,29.768 C121.932,29.416 121.897333,29.0666667 121.828,28.72 C121.758667,28.3733333 121.625333,28.064 121.428,27.792 C121.230667,27.52 120.958667,27.2986667 120.612,27.128 C120.265333,26.9573333 119.82,26.872 119.276,26.872 C118.721333,26.872 118.156,26.9306667 117.58,27.048 C117.004,27.1653333 116.486667,27.3573333 116.028,27.624 L116.028,27.624 L116.428,28.552 C116.769333,28.4133333 117.158667,28.2773333 117.596,28.144 C118.033333,28.0106667 118.492,27.944 118.972,27.944 C119.324,27.944 119.62,27.984 119.86,28.064 C120.1,28.144 120.286667,28.28 120.42,28.472 C120.553333,28.664 120.638667,28.9226667 120.676,29.248 C120.713333,29.5733333 120.705333,29.9813333 120.652,30.472 C119.862667,30.3546667 119.150667,30.312 118.516,30.344 C117.881333,30.376 117.34,30.488 116.892,30.68 C116.444,30.872 116.1,31.1493333 115.86,31.512 C115.62,31.8746667 115.5,32.328 115.5,32.872 C115.5,33.576 115.729333,34.1306667 116.188,34.536 C116.646667,34.9413333 117.270667,35.144 118.06,35.144 Z M118.38,34.072 C117.814667,34.072 117.412,33.9413333 117.172,33.68 C116.932,33.4186667 116.812,33.112 116.812,32.76 C116.812,32.4186667 116.908,32.1413333 117.1,31.928 C117.292,31.7146667 117.558667,31.5573333 117.9,31.456 C118.241333,31.3546667 118.646667,31.304 119.116,31.304 C119.585333,31.304 120.097333,31.352 120.652,31.448 L120.652,31.448 L120.652,32.568 C120.588,32.728 120.492,32.896 120.364,33.072 C120.236,33.248 120.076,33.4106667 119.884,33.56 C119.692,33.7093333 119.468,33.832 119.212,33.928 C118.956,34.024 118.678667,34.072 118.38,34.072 Z M125.772,35 L125.772,29.496 C125.9,29.048 126.089333,28.6746667 126.34,28.376 C126.590667,28.0773333 126.897333,27.928 127.26,27.928 C127.441333,27.928 127.588,27.976 127.7,28.072 C127.812,28.168 127.897333,28.2986667 127.956,28.464 C128.014667,28.6293333 128.052,28.816 128.068,29.024 C128.084,29.232 128.092,29.448 128.092,29.672 L128.092,29.672 L128.092,35 L129.308,35 L129.308,29.656 C129.436,29.1013333 129.628,28.6746667 129.884,28.376 C130.14,28.0773333 130.454667,27.928 130.828,27.928 C130.998667,27.928 131.134667,27.9706667 131.236,28.056 C131.337333,28.1413333 131.417333,28.2586667 131.476,28.408 C131.534667,28.5573333 131.574667,28.7306667 131.596,28.928 C131.617333,29.1253333 131.628,29.336 131.628,29.56 L131.628,29.56 L131.628,35 L132.844,35 L132.844,29.288 C132.844,28.9146667 132.82,28.576 132.772,28.272 C132.724,27.968 132.638667,27.7066667 132.516,27.488 C132.393333,27.2693333 132.222667,27.1013333 132.004,26.984 C131.785333,26.8666667 131.5,26.808 131.148,26.808 C130.614667,26.808 130.196,26.9253333 129.892,27.16 C129.588,27.3946667 129.313333,27.72 129.068,28.136 C129.036,27.8906667 128.966667,27.6826667 128.86,27.512 C128.753333,27.3413333 128.628,27.2053333 128.484,27.104 C128.34,27.0026667 128.182667,26.928 128.012,26.88 C127.841333,26.832 127.676,26.808 127.516,26.808 C127.238667,26.808 127.009333,26.8373333 126.828,26.896 C126.646667,26.9546667 126.489333,27.0373333 126.356,27.144 C126.222667,27.2506667 126.105333,27.376 126.004,27.52 C125.902667,27.664 125.798667,27.816 125.692,27.976 L125.692,27.976 L125.628,27.976 L125.388,27 L124.556,27 L124.556,35 L125.772,35 Z M151.468,35 L151.468,33.816 L146.14,33.816 L146.14,29.832 L150.988,29.832 L150.988,28.648 L146.14,28.648 L146.14,24.984 L151.388,24.984 L151.388,23.8 L144.812,23.8 L144.812,35 L151.468,35 Z M157.116,35.192 C157.724,35.192 158.26,35.056 158.724,34.784 C159.188,34.512 159.537333,34.1733333 159.772,33.768 L159.772,33.768 L159.836,33.768 L159.996,35 L162.124,35 L162.124,33.96 L161.052,33.96 C161.030667,33.8426667 161.009333,33.7066667 160.988,33.552 C160.966667,33.3973333 160.948,33.24 160.932,33.08 C160.916,32.92 160.902667,32.768 160.892,32.624 C160.881333,32.48 160.876,32.36 160.876,32.264 L160.876,32.264 L160.876,23.8 L158.284,23.8 L158.284,24.872 L159.628,24.872 L159.628,27.144 C159.468,27.1013333 159.321333,27.0613333 159.188,27.024 C159.054667,26.9866667 158.913333,26.9573333 158.764,26.936 C158.614667,26.9146667 158.452,26.8986667 158.276,26.888 C158.1,26.8773333 157.9,26.872 157.676,26.872 C157.057333,26.872 156.497333,26.9626667 155.996,27.144 C155.494667,27.3253333 155.065333,27.5893333 154.708,27.936 C154.350667,28.2826667 154.076,28.7146667 153.884,29.232 C153.692,29.7493333 153.596,30.344 153.596,31.016 C153.596,32.4453333 153.881333,33.4986667 154.452,34.176 C155.022667,34.8533333 155.910667,35.192 157.116,35.192 Z M157.324,34.12 C156.876,34.12 156.497333,34.04 156.188,33.88 C155.878667,33.72 155.630667,33.5013333 155.444,33.224 C155.257333,32.9466667 155.124,32.6186667 155.044,32.24 C154.964,31.8613333 154.924,31.4533333 154.924,31.016 C154.924,29.9493333 155.169333,29.168 155.66,28.672 C156.150667,28.176 156.822667,27.928 157.676,27.928 C158.156,27.928 158.542667,27.9653333 158.836,28.04 C159.129333,28.1146667 159.393333,28.232 159.628,28.392 L159.628,28.392 L159.628,32.104 C159.489333,32.776 159.233333,33.28 158.86,33.616 C158.486667,33.952 157.974667,34.12 157.324,34.12 Z M166.972,38.392 C167.494667,38.392 167.98,38.3306667 168.428,38.208 C168.876,38.0853333 169.268,37.9013333 169.604,37.656 C169.94,37.4106667 170.204,37.0986667 170.396,36.72 C170.588,36.3413333 170.684,35.9013333 170.684,35.4 L170.684,35.4 L170.684,27.352 C170.3,27.2133333 169.876,27.0986667 169.412,27.008 C168.948,26.9173333 168.385333,26.872 167.724,26.872 C166.294667,26.872 165.217333,27.2213333 164.492,27.92 C163.766667,28.6186667 163.404,29.6506667 163.404,31.016 C163.404,32.4453333 163.689333,33.4986667 164.26,34.176 C164.830667,34.8533333 165.724,35.192 166.94,35.192 C167.548,35.192 168.044,35.096 168.428,34.904 C168.812,34.712 169.126667,34.44 169.372,34.088 L169.372,34.088 L169.436,34.088 L169.436,34.984 C169.436,35.4 169.393333,35.752 169.308,36.04 C169.222667,36.328 169.084,36.5626667 168.892,36.744 C168.7,36.9253333 168.446667,37.0586667 168.132,37.144 C167.817333,37.2293333 167.425333,37.272 166.956,37.272 C166.732,37.272 166.505333,37.2506667 166.276,37.208 C166.046667,37.1653333 165.830667,37.1093333 165.628,37.04 C165.425333,36.9706667 165.246667,36.896 165.092,36.816 C164.937333,36.736 164.812,36.6533333 164.716,36.568 L164.716,36.568 L164.108,37.704 C164.449333,37.9066667 164.854667,38.072 165.324,38.2 C165.793333,38.328 166.342667,38.392 166.972,38.392 Z M167.116,34.12 C166.668,34.12 166.292,34.0426667 165.988,33.888 C165.684,33.7333333 165.438667,33.5173333 165.252,33.24 C165.065333,32.9626667 164.929333,32.6346667 164.844,32.256 C164.758667,31.8773333 164.716,31.4586667 164.716,31 C164.716,29.9653333 164.961333,29.1973333 165.452,28.696 C165.942667,28.1946667 166.614667,27.944 167.468,27.944 C168.310667,27.944 168.966667,28.056 169.436,28.28 L169.436,28.28 L169.436,32.072 C169.286667,32.7653333 169.025333,33.28 168.652,33.616 C168.278667,33.952 167.766667,34.12 167.116,34.12 Z M176.844,35.192 C177.185333,35.192 177.524,35.1626667 177.86,35.104 C178.196,35.0453333 178.518667,34.9626667 178.828,34.856 C179.137333,34.7493333 179.422667,34.6213333 179.684,34.472 C179.945333,34.3226667 180.172,34.1626667 180.364,33.992 L180.364,33.992 L179.868,33.08 C179.761333,33.176 179.609333,33.2826667 179.412,33.4 C179.214667,33.5173333 178.988,33.624 178.732,33.72 C178.476,33.816 178.206667,33.8986667 177.924,33.968 C177.641333,34.0373333 177.356,34.072 177.068,34.072 C176.204,34.072 175.513333,33.8346667 174.996,33.36 C174.478667,32.8853333 174.22,32.168 174.22,31.208 L174.22,31.208 L180.412,31.208 C180.465333,30.3013333 180.401333,29.5626667 180.22,28.992 C180.038667,28.4213333 179.78,27.9733333 179.444,27.648 C179.108,27.3226667 178.721333,27.1013333 178.284,26.984 C177.846667,26.8666667 177.404,26.808 176.956,26.808 C176.337333,26.808 175.777333,26.9013333 175.276,27.088 C174.774667,27.2746667 174.348,27.544 173.996,27.896 C173.644,28.248 173.374667,28.6853333 173.188,29.208 C173.001333,29.7306667 172.908,30.328 172.908,31 C172.908,31.64 172.993333,32.216 173.164,32.728 C173.334667,33.24 173.585333,33.68 173.916,34.048 C174.246667,34.416 174.657333,34.6986667 175.148,34.896 C175.638667,35.0933333 176.204,35.192 176.844,35.192 Z M179.244,30.088 L174.268,30.088 C174.310667,29.672 174.409333,29.3226667 174.564,29.04 C174.718667,28.7573333 174.916,28.528 175.156,28.352 C175.396,28.176 175.673333,28.0506667 175.988,27.976 C176.302667,27.9013333 176.636,27.864 176.988,27.864 C177.638667,27.864 178.164,28.0586667 178.564,28.448 C178.964,28.8373333 179.190667,29.384 179.244,30.088 L179.244,30.088 Z M196.796,35.192 C197.5,35.192 198.097333,35.1093333 198.588,34.944 C199.078667,34.7786667 199.484,34.5733333 199.804,34.328 L199.804,34.328 L199.788,34.296 L199.788,32.136 L198.604,32.136 L198.604,33.736 C198.401333,33.8213333 198.18,33.888 197.94,33.936 C197.7,33.984 197.441333,34.008 197.164,34.008 C196.62,34.008 196.126667,33.912 195.684,33.72 C195.241333,33.528 194.862667,33.24 194.548,32.856 C194.233333,32.472 193.988,31.992 193.812,31.416 C193.636,30.84 193.548,30.168 193.548,29.4 C193.548,28.5466667 193.646667,27.8266667 193.844,27.24 C194.041333,26.6533333 194.302667,26.1786667 194.628,25.816 C194.953333,25.4533333 195.326667,25.192 195.748,25.032 C196.169333,24.872 196.598667,24.792 197.036,24.792 C197.345333,24.792 197.609333,24.8106667 197.828,24.848 C198.046667,24.8853333 198.246667,24.9413333 198.428,25.016 L198.428,25.016 L198.428,26.728 L199.612,26.728 L199.612,24.2 L199.596,24.2 C199.446667,24.104 199.294667,24.0186667 199.14,23.944 C198.985333,23.8693333 198.806667,23.808 198.604,23.76 C198.401333,23.712 198.166667,23.6746667 197.9,23.648 C197.633333,23.6213333 197.318667,23.608 196.956,23.608 C196.294667,23.608 195.673333,23.7146667 195.092,23.928 C194.510667,24.1413333 194.001333,24.48 193.564,24.944 C193.126667,25.408 192.78,26.0053333 192.524,26.736 C192.268,27.4666667 192.14,28.3546667 192.14,29.4 C192.14,30.4026667 192.254667,31.2693333 192.484,32 C192.713333,32.7306667 193.036,33.3306667 193.452,33.8 C193.868,34.2693333 194.361333,34.6186667 194.932,34.848 C195.502667,35.0773333 196.124,35.192 196.796,35.192 Z M205.5,35.192 C206.118667,35.192 206.670667,35.0933333 207.156,34.896 C207.641333,34.6986667 208.049333,34.4186667 208.38,34.056 C208.710667,33.6933333 208.961333,33.2533333 209.132,32.736 C209.302667,32.2186667 209.388,31.64 209.388,31 C209.388,30.4133333 209.310667,29.864 209.156,29.352 C209.001333,28.84 208.764,28.3973333 208.444,28.024 C208.124,27.6506667 207.721333,27.3546667 207.236,27.136 C206.750667,26.9173333 206.172,26.808 205.5,26.808 C204.252,26.808 203.292,27.184 202.62,27.936 C201.948,28.688 201.612,29.7093333 201.612,31 C201.612,31.5866667 201.689333,32.136 201.844,32.648 C201.998667,33.16 202.236,33.6026667 202.556,33.976 C202.876,34.3493333 203.281333,34.6453333 203.772,34.864 C204.262667,35.0826667 204.838667,35.192 205.5,35.192 Z M205.5,34.12 C205.030667,34.12 204.633333,34.0293333 204.308,33.848 C203.982667,33.6666667 203.718667,33.4266667 203.516,33.128 C203.313333,32.8293333 203.166667,32.4933333 203.076,32.12 C202.985333,31.7466667 202.94,31.3733333 202.94,31 C202.94,29.9653333 203.153333,29.1866667 203.58,28.664 C204.006667,28.1413333 204.646667,27.88 205.5,27.88 C205.969333,27.88 206.366667,27.9706667 206.692,28.152 C207.017333,28.3333333 207.284,28.5733333 207.492,28.872 C207.7,29.1706667 207.849333,29.504 207.94,29.872 C208.030667,30.24 208.076,30.616 208.076,31 C208.076,32.024 207.86,32.8 207.428,33.328 C206.996,33.856 206.353333,34.12 205.5,34.12 Z M217.82,35 L217.82,33.928 L214.748,33.928 L214.748,29.208 C214.812,29.112 214.913333,28.9946667 215.052,28.856 C215.190667,28.7173333 215.358667,28.5786667 215.556,28.44 C215.753333,28.3013333 215.985333,28.184 216.252,28.088 C216.518667,27.992 216.817333,27.944 217.148,27.944 C217.5,27.944 217.742667,28.104 217.876,28.424 C218.009333,28.744 218.076,29.2453333 218.076,29.928 L218.076,29.928 L219.196,29.912 C219.196,29.432 219.174667,29.0026667 219.132,28.624 C219.089333,28.2453333 219.006667,27.9226667 218.884,27.656 C218.761333,27.3893333 218.590667,27.1866667 218.372,27.048 C218.153333,26.9093333 217.862667,26.84 217.5,26.84 C216.881333,26.84 216.348,26.9573333 215.9,27.192 C215.452,27.4266667 215.046667,27.7093333 214.684,28.04 L214.684,28.04 L214.604,28.04 L214.348,27 L211.356,27 L211.356,28.072 L213.516,28.072 L213.516,33.928 L211.356,33.928 L211.356,35 L217.82,35 Z M224.844,35.192 C225.185333,35.192 225.524,35.1626667 225.86,35.104 C226.196,35.0453333 226.518667,34.9626667 226.828,34.856 C227.137333,34.7493333 227.422667,34.6213333 227.684,34.472 C227.945333,34.3226667 228.172,34.1626667 228.364,33.992 L228.364,33.992 L227.868,33.08 C227.761333,33.176 227.609333,33.2826667 227.412,33.4 C227.214667,33.5173333 226.988,33.624 226.732,33.72 C226.476,33.816 226.206667,33.8986667 225.924,33.968 C225.641333,34.0373333 225.356,34.072 225.068,34.072 C224.204,34.072 223.513333,33.8346667 222.996,33.36 C222.478667,32.8853333 222.22,32.168 222.22,31.208 L222.22,31.208 L228.412,31.208 C228.465333,30.3013333 228.401333,29.5626667 228.22,28.992 C228.038667,28.4213333 227.78,27.9733333 227.444,27.648 C227.108,27.3226667 226.721333,27.1013333 226.284,26.984 C225.846667,26.8666667 225.404,26.808 224.956,26.808 C224.337333,26.808 223.777333,26.9013333 223.276,27.088 C222.774667,27.2746667 222.348,27.544 221.996,27.896 C221.644,28.248 221.374667,28.6853333 221.188,29.208 C221.001333,29.7306667 220.908,30.328 220.908,31 C220.908,31.64 220.993333,32.216 221.164,32.728 C221.334667,33.24 221.585333,33.68 221.916,34.048 C222.246667,34.416 222.657333,34.6986667 223.148,34.896 C223.638667,35.0933333 224.204,35.192 224.844,35.192 Z M227.244,30.088 L222.268,30.088 C222.310667,29.672 222.409333,29.3226667 222.564,29.04 C222.718667,28.7573333 222.916,28.528 223.156,28.352 C223.396,28.176 223.673333,28.0506667 223.988,27.976 C224.302667,27.9013333 224.636,27.864 224.988,27.864 C225.638667,27.864 226.164,28.0586667 226.564,28.448 C226.964,28.8373333 227.190667,29.384 227.244,30.088 L227.244,30.088 Z" id="OckamEdgeCore" fill-rule="nonzero"></path>
                    </g>
                    <g id="Group-29" transform="translate(0.000000, 138.000000)" fill="#25B8E4">
                        <rect id="Rectangle-Copy-15" fill-opacity="0.06" x="0" y="0" width="316" height="59" rx="10"></rect>
                        <path d="M73.516,35 L73.516,33.816 L71.756,33.816 L71.756,24.984 L74.076,24.984 L74.076,26.728 L75.26,26.728 L75.26,23.8 L66.94,23.8 L66.94,26.728 L68.124,26.728 L68.124,24.984 L70.428,24.984 L70.428,33.816 L68.668,33.816 L68.668,35 L73.516,35 Z M83.42,35 L83.42,33.928 L80.348,33.928 L80.348,29.208 C80.412,29.112 80.5133333,28.9946667 80.652,28.856 C80.7906667,28.7173333 80.9586667,28.5786667 81.156,28.44 C81.3533333,28.3013333 81.5853333,28.184 81.852,28.088 C82.1186667,27.992 82.4173333,27.944 82.748,27.944 C83.1,27.944 83.3426667,28.104 83.476,28.424 C83.6093333,28.744 83.676,29.2453333 83.676,29.928 L83.676,29.928 L84.796,29.912 C84.796,29.432 84.7746667,29.0026667 84.732,28.624 C84.6893333,28.2453333 84.6066667,27.9226667 84.484,27.656 C84.3613333,27.3893333 84.1906667,27.1866667 83.972,27.048 C83.7533333,26.9093333 83.4626667,26.84 83.1,26.84 C82.4813333,26.84 81.948,26.9573333 81.5,27.192 C81.052,27.4266667 80.6466667,27.7093333 80.284,28.04 L80.284,28.04 L80.204,28.04 L79.948,27 L76.956,27 L76.956,28.072 L79.116,28.072 L79.116,33.928 L76.956,33.928 L76.956,35 L83.42,35 Z M89.26,35.144 C89.6653333,35.144 90.0173333,35.0906667 90.316,34.984 C90.6146667,34.8773333 90.868,34.752 91.076,34.608 C91.284,34.464 91.452,34.3173333 91.58,34.168 C91.708,34.0186667 91.804,33.896 91.868,33.8 L91.868,33.8 L91.948,33.8 L92.092,35 L94.22,35 L94.22,33.96 L93.148,33.96 C93.084,33.48 93.052,32.9733333 93.052,32.44 C93.0626667,31.9813333 93.0786667,31.5226667 93.1,31.064 C93.1213333,30.6053333 93.132,30.1733333 93.132,29.768 C93.132,29.416 93.0973333,29.0666667 93.028,28.72 C92.9586667,28.3733333 92.8253333,28.064 92.628,27.792 C92.4306667,27.52 92.1586667,27.2986667 91.812,27.128 C91.4653333,26.9573333 91.02,26.872 90.476,26.872 C89.9213333,26.872 89.356,26.9306667 88.78,27.048 C88.204,27.1653333 87.6866667,27.3573333 87.228,27.624 L87.228,27.624 L87.628,28.552 C87.9693333,28.4133333 88.3586667,28.2773333 88.796,28.144 C89.2333333,28.0106667 89.692,27.944 90.172,27.944 C90.524,27.944 90.82,27.984 91.06,28.064 C91.3,28.144 91.4866667,28.28 91.62,28.472 C91.7533333,28.664 91.8386667,28.9226667 91.876,29.248 C91.9133333,29.5733333 91.9053333,29.9813333 91.852,30.472 C91.0626667,30.3546667 90.3506667,30.312 89.716,30.344 C89.0813333,30.376 88.54,30.488 88.092,30.68 C87.644,30.872 87.3,31.1493333 87.06,31.512 C86.82,31.8746667 86.7,32.328 86.7,32.872 C86.7,33.576 86.9293333,34.1306667 87.388,34.536 C87.8466667,34.9413333 88.4706667,35.144 89.26,35.144 Z M89.58,34.072 C89.0146667,34.072 88.612,33.9413333 88.372,33.68 C88.132,33.4186667 88.012,33.112 88.012,32.76 C88.012,32.4186667 88.108,32.1413333 88.3,31.928 C88.492,31.7146667 88.7586667,31.5573333 89.1,31.456 C89.4413333,31.3546667 89.8466667,31.304 90.316,31.304 C90.7853333,31.304 91.2973333,31.352 91.852,31.448 L91.852,31.448 L91.852,32.568 C91.788,32.728 91.692,32.896 91.564,33.072 C91.436,33.248 91.276,33.4106667 91.084,33.56 C90.892,33.7093333 90.668,33.832 90.412,33.928 C90.156,34.024 89.8786667,34.072 89.58,34.072 Z M97.82,35 L97.82,29.976 C97.8946667,29.7093333 98.012,29.456 98.172,29.216 C98.332,28.976 98.5186667,28.7653333 98.732,28.584 C98.9453333,28.4026667 99.1826667,28.256 99.444,28.144 C99.7053333,28.032 99.9746667,27.976 100.252,27.976 C101.009333,27.976 101.532,28.2 101.82,28.648 C102.108,29.096 102.252,29.7626667 102.252,30.648 L102.252,30.648 L102.252,35 L103.5,35 L103.5,30.408 C103.5,29.6933333 103.436,29.104 103.308,28.64 C103.18,28.176 102.990667,27.808 102.74,27.536 C102.489333,27.264 102.174667,27.0746667 101.796,26.968 C101.417333,26.8613333 100.982667,26.808 100.492,26.808 C100.172,26.808 99.868,26.8506667 99.58,26.936 C99.292,27.0213333 99.0306667,27.136 98.796,27.28 C98.5613333,27.424 98.356,27.584 98.18,27.76 C98.004,27.936 97.8626667,28.1146667 97.756,28.296 L97.756,28.296 L97.676,28.296 L97.532,27 L95.388,27 L95.388,28.04 L96.46,28.04 C96.4813333,28.1573333 96.5,28.296 96.516,28.456 C96.532,28.616 96.5453333,28.7786667 96.556,28.944 C96.5666667,29.1093333 96.5746667,29.2693333 96.58,29.424 C96.5853333,29.5786667 96.588,29.704 96.588,29.8 L96.588,29.8 L96.588,35 L97.82,35 Z M109.468,35.192 C110.630667,35.192 111.502667,34.952 112.084,34.472 C112.665333,33.992 112.956,33.384 112.956,32.648 C112.956,32.1573333 112.822667,31.768 112.556,31.48 C112.289333,31.192 111.958667,30.9626667 111.564,30.792 C111.169333,30.6213333 110.74,30.4906667 110.276,30.4 C109.812,30.3093333 109.382667,30.2133333 108.988,30.112 C108.593333,30.0106667 108.262667,29.8853333 107.996,29.736 C107.729333,29.5866667 107.596,29.3733333 107.596,29.096 C107.596,28.872 107.652,28.6826667 107.764,28.528 C107.876,28.3733333 108.025333,28.248 108.212,28.152 C108.398667,28.056 108.606667,27.984 108.836,27.936 C109.065333,27.888 109.297333,27.864 109.532,27.864 C110.150667,27.864 110.665333,27.952 111.076,28.128 C111.486667,28.304 111.868,28.488 112.22,28.68 L112.22,28.68 L112.732,27.672 C112.412,27.4693333 111.982667,27.2746667 111.444,27.088 C110.905333,26.9013333 110.262667,26.808 109.516,26.808 C109.1,26.808 108.7,26.8533333 108.316,26.944 C107.932,27.0346667 107.596,27.1733333 107.308,27.36 C107.02,27.5466667 106.788,27.784 106.612,28.072 C106.436,28.36 106.348,28.7066667 106.348,29.112 C106.348,29.6026667 106.481333,29.984 106.748,30.256 C107.014667,30.528 107.345333,30.744 107.74,30.904 C108.134667,31.064 108.564,31.192 109.028,31.288 C109.492,31.384 109.921333,31.488 110.316,31.6 C110.710667,31.712 111.041333,31.8613333 111.308,32.048 C111.574667,32.2346667 111.708,32.4986667 111.708,32.84 C111.708,33.0746667 111.652,33.2746667 111.54,33.44 C111.428,33.6053333 111.276,33.7386667 111.084,33.84 C110.892,33.9413333 110.670667,34.016 110.42,34.064 C110.169333,34.112 109.9,34.136 109.612,34.136 C109.313333,34.136 109.017333,34.104 108.724,34.04 C108.430667,33.976 108.156,33.8906667 107.9,33.784 C107.644,33.6773333 107.409333,33.5573333 107.196,33.424 C106.982667,33.2906667 106.812,33.16 106.684,33.032 L106.684,33.032 L106.044,34.072 C106.204,34.2106667 106.406667,34.3466667 106.652,34.48 C106.897333,34.6133333 107.169333,34.7333333 107.468,34.84 C107.766667,34.9466667 108.086667,35.032 108.428,35.096 C108.769333,35.16 109.116,35.192 109.468,35.192 Z M117.068,38.2 L117.068,34.84 C117.228,34.904 117.377333,34.9573333 117.516,35 C117.654667,35.0426667 117.796,35.0773333 117.94,35.104 C118.084,35.1306667 118.244,35.152 118.42,35.168 C118.596,35.184 118.796,35.192 119.02,35.192 C119.638667,35.192 120.204,35.0906667 120.716,34.888 C121.228,34.6853333 121.665333,34.3973333 122.028,34.024 C122.390667,33.6506667 122.670667,33.1946667 122.868,32.656 C123.065333,32.1173333 123.164,31.512 123.164,30.84 C123.164,29.4106667 122.876,28.3813333 122.3,27.752 C121.724,27.1226667 120.865333,26.808 119.724,26.808 C119.084,26.808 118.542667,26.9333333 118.1,27.184 C117.657333,27.4346667 117.292,27.7466667 117.004,28.12 L117.004,28.12 L116.924,28.12 L116.764,27 L114.636,27 L114.636,28.04 L115.708,28.04 C115.729333,28.1573333 115.748,28.296 115.764,28.456 C115.78,28.616 115.793333,28.7786667 115.804,28.944 C115.814667,29.1093333 115.822667,29.2693333 115.828,29.424 C115.833333,29.5786667 115.836,29.704 115.836,29.8 L115.836,29.8 L115.836,38.2 L117.068,38.2 Z M119.02,34.12 C118.54,34.12 118.153333,34.0746667 117.86,33.984 C117.566667,33.8933333 117.302667,33.768 117.068,33.608 L117.068,33.608 L117.068,29.96 C117.1,29.7253333 117.185333,29.4906667 117.324,29.256 C117.462667,29.0213333 117.641333,28.808 117.86,28.616 C118.078667,28.424 118.329333,28.2693333 118.612,28.152 C118.894667,28.0346667 119.196,27.976 119.516,27.976 C120.348,27.976 120.942667,28.224 121.3,28.72 C121.657333,29.216 121.836,29.9173333 121.836,30.824 C121.836,31.9013333 121.58,32.72 121.068,33.28 C120.556,33.84 119.873333,34.12 119.02,34.12 Z M128.7,35.192 C129.318667,35.192 129.870667,35.0933333 130.356,34.896 C130.841333,34.6986667 131.249333,34.4186667 131.58,34.056 C131.910667,33.6933333 132.161333,33.2533333 132.332,32.736 C132.502667,32.2186667 132.588,31.64 132.588,31 C132.588,30.4133333 132.510667,29.864 132.356,29.352 C132.201333,28.84 131.964,28.3973333 131.644,28.024 C131.324,27.6506667 130.921333,27.3546667 130.436,27.136 C129.950667,26.9173333 129.372,26.808 128.7,26.808 C127.452,26.808 126.492,27.184 125.82,27.936 C125.148,28.688 124.812,29.7093333 124.812,31 C124.812,31.5866667 124.889333,32.136 125.044,32.648 C125.198667,33.16 125.436,33.6026667 125.756,33.976 C126.076,34.3493333 126.481333,34.6453333 126.972,34.864 C127.462667,35.0826667 128.038667,35.192 128.7,35.192 Z M128.7,34.12 C128.230667,34.12 127.833333,34.0293333 127.508,33.848 C127.182667,33.6666667 126.918667,33.4266667 126.716,33.128 C126.513333,32.8293333 126.366667,32.4933333 126.276,32.12 C126.185333,31.7466667 126.14,31.3733333 126.14,31 C126.14,29.9653333 126.353333,29.1866667 126.78,28.664 C127.206667,28.1413333 127.846667,27.88 128.7,27.88 C129.169333,27.88 129.566667,27.9706667 129.892,28.152 C130.217333,28.3333333 130.484,28.5733333 130.692,28.872 C130.9,29.1706667 131.049333,29.504 131.14,29.872 C131.230667,30.24 131.276,30.616 131.276,31 C131.276,32.024 131.06,32.8 130.628,33.328 C130.196,33.856 129.553333,34.12 128.7,34.12 Z M141.02,35 L141.02,33.928 L137.948,33.928 L137.948,29.208 C138.012,29.112 138.113333,28.9946667 138.252,28.856 C138.390667,28.7173333 138.558667,28.5786667 138.756,28.44 C138.953333,28.3013333 139.185333,28.184 139.452,28.088 C139.718667,27.992 140.017333,27.944 140.348,27.944 C140.7,27.944 140.942667,28.104 141.076,28.424 C141.209333,28.744 141.276,29.2453333 141.276,29.928 L141.276,29.928 L142.396,29.912 C142.396,29.432 142.374667,29.0026667 142.332,28.624 C142.289333,28.2453333 142.206667,27.9226667 142.084,27.656 C141.961333,27.3893333 141.790667,27.1866667 141.572,27.048 C141.353333,26.9093333 141.062667,26.84 140.7,26.84 C140.081333,26.84 139.548,26.9573333 139.1,27.192 C138.652,27.4266667 138.246667,27.7093333 137.884,28.04 L137.884,28.04 L137.804,28.04 L137.548,27 L134.556,27 L134.556,28.072 L136.716,28.072 L136.716,33.928 L134.556,33.928 L134.556,35 L141.02,35 Z M148.652,35.208 C149.196,35.208 149.726667,35.1173333 150.244,34.936 C150.761333,34.7546667 151.206667,34.5146667 151.58,34.216 L151.58,34.216 L151.164,33.272 C150.876,33.4853333 150.553333,33.6826667 150.196,33.864 C149.838667,34.0453333 149.42,34.136 148.94,34.136 C148.236,34.136 147.694667,33.9493333 147.316,33.576 C146.937333,33.2026667 146.748,32.6266667 146.748,31.848 L146.748,31.848 L146.748,28.072 L151.02,28.072 L151.02,27 L146.748,27 L146.748,25.064 L145.5,25.416 L145.5,27 L143.596,27 L143.596,28.072 L145.5,28.072 L145.5,32.04 C145.5,32.5946667 145.585333,33.072 145.756,33.472 C145.926667,33.872 146.156,34.2 146.444,34.456 C146.732,34.712 147.065333,34.9013333 147.444,35.024 C147.822667,35.1466667 148.225333,35.208 148.652,35.208 Z M170.94,35 L170.94,33.816 L167.756,33.816 L167.756,24.984 L170.94,24.984 L170.94,23.8 L163.26,23.8 L163.26,24.984 L166.428,24.984 L166.428,33.816 L163.26,33.816 L163.26,35 L170.94,35 Z M174.62,35 L174.62,29.976 C174.694667,29.7093333 174.812,29.456 174.972,29.216 C175.132,28.976 175.318667,28.7653333 175.532,28.584 C175.745333,28.4026667 175.982667,28.256 176.244,28.144 C176.505333,28.032 176.774667,27.976 177.052,27.976 C177.809333,27.976 178.332,28.2 178.62,28.648 C178.908,29.096 179.052,29.7626667 179.052,30.648 L179.052,30.648 L179.052,35 L180.3,35 L180.3,30.408 C180.3,29.6933333 180.236,29.104 180.108,28.64 C179.98,28.176 179.790667,27.808 179.54,27.536 C179.289333,27.264 178.974667,27.0746667 178.596,26.968 C178.217333,26.8613333 177.782667,26.808 177.292,26.808 C176.972,26.808 176.668,26.8506667 176.38,26.936 C176.092,27.0213333 175.830667,27.136 175.596,27.28 C175.361333,27.424 175.156,27.584 174.98,27.76 C174.804,27.936 174.662667,28.1146667 174.556,28.296 L174.556,28.296 L174.476,28.296 L174.332,27 L172.188,27 L172.188,28.04 L173.26,28.04 C173.281333,28.1573333 173.3,28.296 173.316,28.456 C173.332,28.616 173.345333,28.7786667 173.356,28.944 C173.366667,29.1093333 173.374667,29.2693333 173.38,29.424 C173.385333,29.5786667 173.388,29.704 173.388,29.8 L173.388,35 L174.62,35 Z M187.052,35.208 C187.596,35.208 188.126667,35.1173333 188.644,34.936 C189.161333,34.7546667 189.606667,34.5146667 189.98,34.216 L189.98,34.216 L189.564,33.272 C189.276,33.4853333 188.953333,33.6826667 188.596,33.864 C188.238667,34.0453333 187.82,34.136 187.34,34.136 C186.636,34.136 186.094667,33.9493333 185.716,33.576 C185.337333,33.2026667 185.148,32.6266667 185.148,31.848 L185.148,31.848 L185.148,28.072 L189.42,28.072 L189.42,27 L185.148,27 L185.148,25.064 L183.9,25.416 L183.9,27 L181.996,27 L181.996,28.072 L183.9,28.072 L183.9,32.04 C183.9,32.5946667 183.985333,33.072 184.156,33.472 C184.326667,33.872 184.556,34.2 184.844,34.456 C185.132,34.712 185.465333,34.9013333 185.844,35.024 C186.222667,35.1466667 186.625333,35.208 187.052,35.208 Z M196.044,35.192 C196.385333,35.192 196.724,35.1626667 197.06,35.104 C197.396,35.0453333 197.718667,34.9626667 198.028,34.856 C198.337333,34.7493333 198.622667,34.6213333 198.884,34.472 C199.145333,34.3226667 199.372,34.1626667 199.564,33.992 L199.564,33.992 L199.068,33.08 C198.961333,33.176 198.809333,33.2826667 198.612,33.4 C198.414667,33.5173333 198.188,33.624 197.932,33.72 C197.676,33.816 197.406667,33.8986667 197.124,33.968 C196.841333,34.0373333 196.556,34.072 196.268,34.072 C195.404,34.072 194.713333,33.8346667 194.196,33.36 C193.678667,32.8853333 193.42,32.168 193.42,31.208 L193.42,31.208 L199.612,31.208 C199.665333,30.3013333 199.601333,29.5626667 199.42,28.992 C199.238667,28.4213333 198.98,27.9733333 198.644,27.648 C198.308,27.3226667 197.921333,27.1013333 197.484,26.984 C197.046667,26.8666667 196.604,26.808 196.156,26.808 C195.537333,26.808 194.977333,26.9013333 194.476,27.088 C193.974667,27.2746667 193.548,27.544 193.196,27.896 C192.844,28.248 192.574667,28.6853333 192.388,29.208 C192.201333,29.7306667 192.108,30.328 192.108,31 C192.108,31.64 192.193333,32.216 192.364,32.728 C192.534667,33.24 192.785333,33.68 193.116,34.048 C193.446667,34.416 193.857333,34.6986667 194.348,34.896 C194.838667,35.0933333 195.404,35.192 196.044,35.192 Z M198.444,30.088 L193.468,30.088 C193.510667,29.672 193.609333,29.3226667 193.764,29.04 C193.918667,28.7573333 194.116,28.528 194.356,28.352 C194.596,28.176 194.873333,28.0506667 195.188,27.976 C195.502667,27.9013333 195.836,27.864 196.188,27.864 C196.838667,27.864 197.364,28.0586667 197.764,28.448 C198.164,28.8373333 198.390667,29.384 198.444,30.088 L198.444,30.088 Z M208.22,35 L208.22,33.928 L205.148,33.928 L205.148,29.208 C205.212,29.112 205.313333,28.9946667 205.452,28.856 C205.590667,28.7173333 205.758667,28.5786667 205.956,28.44 C206.153333,28.3013333 206.385333,28.184 206.652,28.088 C206.918667,27.992 207.217333,27.944 207.548,27.944 C207.9,27.944 208.142667,28.104 208.276,28.424 C208.409333,28.744 208.476,29.2453333 208.476,29.928 L208.476,29.928 L209.596,29.912 C209.596,29.432 209.574667,29.0026667 209.532,28.624 C209.489333,28.2453333 209.406667,27.9226667 209.284,27.656 C209.161333,27.3893333 208.990667,27.1866667 208.772,27.048 C208.553333,26.9093333 208.262667,26.84 207.9,26.84 C207.281333,26.84 206.748,26.9573333 206.3,27.192 C205.852,27.4266667 205.446667,27.7093333 205.084,28.04 L205.084,28.04 L205.004,28.04 L204.748,27 L201.756,27 L201.756,28.072 L203.916,28.072 L203.916,33.928 L201.756,33.928 L201.756,35 L208.22,35 Z M218.172,35 L218.172,33.928 L214.86,33.928 L214.86,28.072 L218.172,28.072 L218.172,27 L214.86,27 C214.86,26.2106667 214.988,25.6426667 215.244,25.296 C215.5,24.9493333 215.98,24.776 216.684,24.776 C216.897333,24.776 217.132,24.7946667 217.388,24.832 C217.644,24.8693333 217.910667,24.9466667 218.188,25.064 L218.188,25.064 L218.476,24.024 C218.156,23.896 217.857333,23.8106667 217.58,23.768 C217.302667,23.7253333 216.988,23.704 216.636,23.704 C215.665333,23.704 214.918667,23.928 214.396,24.376 C213.873333,24.824 213.612,25.5493333 213.612,26.552 L213.612,26.552 L213.612,27 L211.708,27 L211.708,28.072 L213.612,28.072 L213.612,33.928 L211.708,33.928 L211.708,35 L218.172,35 Z M223.66,35.144 C224.065333,35.144 224.417333,35.0906667 224.716,34.984 C225.014667,34.8773333 225.268,34.752 225.476,34.608 C225.684,34.464 225.852,34.3173333 225.98,34.168 C226.108,34.0186667 226.204,33.896 226.268,33.8 L226.268,33.8 L226.348,33.8 L226.492,35 L228.62,35 L228.62,33.96 L227.548,33.96 C227.484,33.48 227.452,32.9733333 227.452,32.44 C227.462667,31.9813333 227.478667,31.5226667 227.5,31.064 C227.521333,30.6053333 227.532,30.1733333 227.532,29.768 C227.532,29.416 227.497333,29.0666667 227.428,28.72 C227.358667,28.3733333 227.225333,28.064 227.028,27.792 C226.830667,27.52 226.558667,27.2986667 226.212,27.128 C225.865333,26.9573333 225.42,26.872 224.876,26.872 C224.321333,26.872 223.756,26.9306667 223.18,27.048 C222.604,27.1653333 222.086667,27.3573333 221.628,27.624 L221.628,27.624 L222.028,28.552 C222.369333,28.4133333 222.758667,28.2773333 223.196,28.144 C223.633333,28.0106667 224.092,27.944 224.572,27.944 C224.924,27.944 225.22,27.984 225.46,28.064 C225.7,28.144 225.886667,28.28 226.02,28.472 C226.153333,28.664 226.238667,28.9226667 226.276,29.248 C226.313333,29.5733333 226.305333,29.9813333 226.252,30.472 C225.462667,30.3546667 224.750667,30.312 224.116,30.344 C223.481333,30.376 222.94,30.488 222.492,30.68 C222.044,30.872 221.7,31.1493333 221.46,31.512 C221.22,31.8746667 221.1,32.328 221.1,32.872 C221.1,33.576 221.329333,34.1306667 221.788,34.536 C222.246667,34.9413333 222.870667,35.144 223.66,35.144 Z M223.98,34.072 C223.414667,34.072 223.012,33.9413333 222.772,33.68 C222.532,33.4186667 222.412,33.112 222.412,32.76 C222.412,32.4186667 222.508,32.1413333 222.7,31.928 C222.892,31.7146667 223.158667,31.5573333 223.5,31.456 C223.841333,31.3546667 224.246667,31.304 224.716,31.304 C225.185333,31.304 225.697333,31.352 226.252,31.448 L226.252,31.448 L226.252,32.568 C226.188,32.728 226.092,32.896 225.964,33.072 C225.836,33.248 225.676,33.4106667 225.484,33.56 C225.292,33.7093333 225.068,33.832 224.812,33.928 C224.556,34.024 224.278667,34.072 223.98,34.072 Z M234.684,35.192 C235.1,35.192 235.486667,35.1546667 235.844,35.08 C236.201333,35.0053333 236.526667,34.9066667 236.82,34.784 C237.113333,34.6613333 237.372,34.5306667 237.596,34.392 C237.82,34.2533333 238.006667,34.12 238.156,33.992 L238.156,33.992 L237.596,33.064 C237.276,33.3413333 236.878667,33.5653333 236.404,33.736 C235.929333,33.9066667 235.441333,33.992 234.94,33.992 C234.470667,33.992 234.041333,33.9226667 233.652,33.784 C233.262667,33.6453333 232.929333,33.448 232.652,33.192 C232.374667,32.936 232.161333,32.624 232.012,32.256 C231.862667,31.888 231.788,31.4693333 231.788,31 C231.788,29.9333333 232.044,29.1546667 232.556,28.664 C233.068,28.1733333 233.846667,27.928 234.892,27.928 C235.169333,27.928 235.449333,27.9573333 235.732,28.016 C236.014667,28.0746667 236.278667,28.1466667 236.524,28.232 L236.524,28.232 L236.524,29.752 L237.676,29.752 L237.676,27.528 L237.692,27.48 C237.350667,27.3093333 236.932,27.1546667 236.436,27.016 C235.94,26.8773333 235.297333,26.808 234.508,26.808 C233.889333,26.808 233.329333,26.9013333 232.828,27.088 C232.326667,27.2746667 231.9,27.544 231.548,27.896 C231.196,28.248 230.926667,28.6853333 230.74,29.208 C230.553333,29.7306667 230.46,30.328 230.46,31 C230.46,31.6293333 230.550667,32.2026667 230.732,32.72 C230.913333,33.2373333 231.18,33.68 231.532,34.048 C231.884,34.416 232.324,34.6986667 232.852,34.896 C233.38,35.0933333 233.990667,35.192 234.684,35.192 Z M244.044,35.192 C244.385333,35.192 244.724,35.1626667 245.06,35.104 C245.396,35.0453333 245.718667,34.9626667 246.028,34.856 C246.337333,34.7493333 246.622667,34.6213333 246.884,34.472 C247.145333,34.3226667 247.372,34.1626667 247.564,33.992 L247.564,33.992 L247.068,33.08 C246.961333,33.176 246.809333,33.2826667 246.612,33.4 C246.414667,33.5173333 246.188,33.624 245.932,33.72 C245.676,33.816 245.406667,33.8986667 245.124,33.968 C244.841333,34.0373333 244.556,34.072 244.268,34.072 C243.404,34.072 242.713333,33.8346667 242.196,33.36 C241.678667,32.8853333 241.42,32.168 241.42,31.208 L241.42,31.208 L247.612,31.208 C247.665333,30.3013333 247.601333,29.5626667 247.42,28.992 C247.238667,28.4213333 246.98,27.9733333 246.644,27.648 C246.308,27.3226667 245.921333,27.1013333 245.484,26.984 C245.046667,26.8666667 244.604,26.808 244.156,26.808 C243.537333,26.808 242.977333,26.9013333 242.476,27.088 C241.974667,27.2746667 241.548,27.544 241.196,27.896 C240.844,28.248 240.574667,28.6853333 240.388,29.208 C240.201333,29.7306667 240.108,30.328 240.108,31 C240.108,31.64 240.193333,32.216 240.364,32.728 C240.534667,33.24 240.785333,33.68 241.116,34.048 C241.446667,34.416 241.857333,34.6986667 242.348,34.896 C242.838667,35.0933333 243.404,35.192 244.044,35.192 Z M246.444,30.088 L241.468,30.088 C241.510667,29.672 241.609333,29.3226667 241.764,29.04 C241.918667,28.7573333 242.116,28.528 242.356,28.352 C242.596,28.176 242.873333,28.0506667 243.188,27.976 C243.502667,27.9013333 243.836,27.864 244.188,27.864 C244.838667,27.864 245.364,28.0586667 245.764,28.448 C246.164,28.8373333 246.390667,29.384 246.444,30.088 L246.444,30.088 Z" id="TransportInterface" fill-rule="nonzero"></path>
                    </g>
                    <g id="Group-29-Copy" transform="translate(361.000000, 99.000000) rotate(-90.000000) translate(-361.000000, -99.000000) translate(262.500000, 69.500000)">
                        <path d="M10.5,0 L187,0 C192.522847,-1.01453063e-15 197,4.4771525 197,10 L197,49 C197,54.5228475 192.522847,59 187,59 L10.5,59 C4.9771525,59 0.5,54.5228475 0.5,49 L0.5,10 C0.5,4.4771525 4.9771525,1.01453063e-15 10.5,0 Z" id="Rectangle-Copy-15" fill-opacity="0.06" fill="#25B8E4"></path>
                        <path d="M32.116,35 L35.876,23.8 L34.548,23.8 L31.508,33.352 L31.332,33.352 L28.18,23.8 L26.724,23.8 L30.564,35 L32.116,35 Z M39.86,35.144 C40.2653333,35.144 40.6173333,35.0906667 40.916,34.984 C41.2146667,34.8773333 41.468,34.752 41.676,34.608 C41.884,34.464 42.052,34.3173333 42.18,34.168 C42.308,34.0186667 42.404,33.896 42.468,33.8 L42.468,33.8 L42.548,33.8 L42.692,35 L44.82,35 L44.82,33.96 L43.748,33.96 C43.684,33.48 43.652,32.9733333 43.652,32.44 C43.6626667,31.9813333 43.6786667,31.5226667 43.7,31.064 C43.7213333,30.6053333 43.732,30.1733333 43.732,29.768 C43.732,29.416 43.6973333,29.0666667 43.628,28.72 C43.5586667,28.3733333 43.4253333,28.064 43.228,27.792 C43.0306667,27.52 42.7586667,27.2986667 42.412,27.128 C42.0653333,26.9573333 41.62,26.872 41.076,26.872 C40.5213333,26.872 39.956,26.9306667 39.38,27.048 C38.804,27.1653333 38.2866667,27.3573333 37.828,27.624 L37.828,27.624 L38.228,28.552 C38.5693333,28.4133333 38.9586667,28.2773333 39.396,28.144 C39.8333333,28.0106667 40.292,27.944 40.772,27.944 C41.124,27.944 41.42,27.984 41.66,28.064 C41.9,28.144 42.0866667,28.28 42.22,28.472 C42.3533333,28.664 42.4386667,28.9226667 42.476,29.248 C42.5133333,29.5733333 42.5053333,29.9813333 42.452,30.472 C41.6626667,30.3546667 40.9506667,30.312 40.316,30.344 C39.6813333,30.376 39.14,30.488 38.692,30.68 C38.244,30.872 37.9,31.1493333 37.66,31.512 C37.42,31.8746667 37.3,32.328 37.3,32.872 C37.3,33.576 37.5293333,34.1306667 37.988,34.536 C38.4466667,34.9413333 39.0706667,35.144 39.86,35.144 Z M40.18,34.072 C39.6146667,34.072 39.212,33.9413333 38.972,33.68 C38.732,33.4186667 38.612,33.112 38.612,32.76 C38.612,32.4186667 38.708,32.1413333 38.9,31.928 C39.092,31.7146667 39.3586667,31.5573333 39.7,31.456 C40.0413333,31.3546667 40.4466667,31.304 40.916,31.304 C41.3853333,31.304 41.8973333,31.352 42.452,31.448 L42.452,31.448 L42.452,32.568 C42.388,32.728 42.292,32.896 42.164,33.072 C42.036,33.248 41.876,33.4106667 41.684,33.56 C41.492,33.7093333 41.268,33.832 41.012,33.928 C40.756,34.024 40.4786667,34.072 40.18,34.072 Z M49.94,35.192 C50.5906667,35.192 51.1453333,35.048 51.604,34.76 C52.0626667,34.472 52.4306667,34.0986667 52.708,33.64 L52.708,33.64 L52.772,33.64 L52.82,35 L54.948,35 L54.948,33.96 L53.876,33.96 C53.812,33.48 53.78,32.9786667 53.78,32.456 L53.78,32.456 L53.78,27 L51.508,27 L51.508,28.072 L52.532,28.072 L52.532,32.216 C52.3186667,32.76 52.0066667,33.2133333 51.596,33.576 C51.1853333,33.9386667 50.7026667,34.12 50.148,34.12 C49.764,34.12 49.4573333,34.0586667 49.228,33.936 C48.9986667,33.8133333 48.8253333,33.632 48.708,33.392 C48.5906667,33.152 48.5133333,32.8586667 48.476,32.512 C48.4386667,32.1653333 48.42,31.7733333 48.42,31.336 L48.42,31.336 L48.42,27 L46.1,27 L46.1,28.072 L47.172,28.072 L47.172,31.592 C47.172,32.2853333 47.2253333,32.864 47.332,33.328 C47.4386667,33.792 47.604,34.1626667 47.828,34.44 C48.052,34.7173333 48.3373333,34.912 48.684,35.024 C49.0306667,35.136 49.4493333,35.192 49.94,35.192 Z M61.076,35.208 C61.2573333,35.208 61.4546667,35.1866667 61.668,35.144 C61.8813333,35.1013333 62.0946667,35.04 62.308,34.96 C62.5213333,34.88 62.7293333,34.7813333 62.932,34.664 C63.1346667,34.5466667 63.3213333,34.4133333 63.492,34.264 L63.492,34.264 L62.916,33.384 C62.5853333,33.64 62.284,33.8213333 62.012,33.928 C61.74,34.0346667 61.4546667,34.088 61.156,34.088 C60.7293333,34.088 60.4066667,33.9546667 60.188,33.688 C59.9693333,33.4213333 59.86,32.9626667 59.86,32.312 L59.86,32.312 L59.86,23.8 L57.204,23.8 L57.204,24.872 L58.612,24.872 L58.612,32.312 C58.612,32.856 58.6653333,33.312 58.772,33.68 C58.8786667,34.048 59.036,34.344 59.244,34.568 C59.452,34.792 59.7106667,34.9546667 60.02,35.056 C60.3293333,35.1573333 60.6813333,35.208 61.076,35.208 Z M70.452,35.208 C70.996,35.208 71.5266667,35.1173333 72.044,34.936 C72.5613333,34.7546667 73.0066667,34.5146667 73.38,34.216 L73.38,34.216 L72.964,33.272 C72.676,33.4853333 72.3533333,33.6826667 71.996,33.864 C71.6386667,34.0453333 71.22,34.136 70.74,34.136 C70.036,34.136 69.4946667,33.9493333 69.116,33.576 C68.7373333,33.2026667 68.548,32.6266667 68.548,31.848 L68.548,31.848 L68.548,28.072 L72.82,28.072 L72.82,27 L68.548,27 L68.548,25.064 L67.3,25.416 L67.3,27 L65.396,27 L65.396,28.072 L67.3,28.072 L67.3,32.04 C67.3,32.5946667 67.3853333,33.072 67.556,33.472 C67.7266667,33.872 67.956,34.2 68.244,34.456 C68.532,34.712 68.8653333,34.9013333 69.244,35.024 C69.6226667,35.1466667 70.0253333,35.208 70.452,35.208 Z M92.74,35 L92.74,33.816 L89.556,33.816 L89.556,24.984 L92.74,24.984 L92.74,23.8 L85.06,23.8 L85.06,24.984 L88.228,24.984 L88.228,33.816 L85.06,33.816 L85.06,35 L92.74,35 Z M96.42,35 L96.42,29.976 C96.4946667,29.7093333 96.612,29.456 96.772,29.216 C96.932,28.976 97.1186667,28.7653333 97.332,28.584 C97.5453333,28.4026667 97.7826667,28.256 98.044,28.144 C98.3053333,28.032 98.5746667,27.976 98.852,27.976 C99.6093333,27.976 100.132,28.2 100.42,28.648 C100.708,29.096 100.852,29.7626667 100.852,30.648 L100.852,30.648 L100.852,35 L102.1,35 L102.1,30.408 C102.1,29.6933333 102.036,29.104 101.908,28.64 C101.78,28.176 101.590667,27.808 101.34,27.536 C101.089333,27.264 100.774667,27.0746667 100.396,26.968 C100.017333,26.8613333 99.5826667,26.808 99.092,26.808 C98.772,26.808 98.468,26.8506667 98.18,26.936 C97.892,27.0213333 97.6306667,27.136 97.396,27.28 C97.1613333,27.424 96.956,27.584 96.78,27.76 C96.604,27.936 96.4626667,28.1146667 96.356,28.296 L96.356,28.296 L96.276,28.296 L96.132,27 L93.988,27 L93.988,28.04 L95.06,28.04 C95.0813333,28.1573333 95.1,28.296 95.116,28.456 C95.132,28.616 95.1453333,28.7786667 95.156,28.944 C95.1666667,29.1093333 95.1746667,29.2693333 95.18,29.424 C95.1853333,29.5786667 95.188,29.704 95.188,29.8 L95.188,29.8 L95.188,35 L96.42,35 Z M108.852,35.208 C109.396,35.208 109.926667,35.1173333 110.444,34.936 C110.961333,34.7546667 111.406667,34.5146667 111.78,34.216 L111.78,34.216 L111.364,33.272 C111.076,33.4853333 110.753333,33.6826667 110.396,33.864 C110.038667,34.0453333 109.62,34.136 109.14,34.136 C108.436,34.136 107.894667,33.9493333 107.516,33.576 C107.137333,33.2026667 106.948,32.6266667 106.948,31.848 L106.948,31.848 L106.948,28.072 L111.22,28.072 L111.22,27 L106.948,27 L106.948,25.064 L105.7,25.416 L105.7,27 L103.796,27 L103.796,28.072 L105.7,28.072 L105.7,32.04 C105.7,32.5946667 105.785333,33.072 105.956,33.472 C106.126667,33.872 106.356,34.2 106.644,34.456 C106.932,34.712 107.265333,34.9013333 107.644,35.024 C108.022667,35.1466667 108.425333,35.208 108.852,35.208 Z M117.844,35.192 C118.185333,35.192 118.524,35.1626667 118.86,35.104 C119.196,35.0453333 119.518667,34.9626667 119.828,34.856 C120.137333,34.7493333 120.422667,34.6213333 120.684,34.472 C120.945333,34.3226667 121.172,34.1626667 121.364,33.992 L121.364,33.992 L120.868,33.08 C120.761333,33.176 120.609333,33.2826667 120.412,33.4 C120.214667,33.5173333 119.988,33.624 119.732,33.72 C119.476,33.816 119.206667,33.8986667 118.924,33.968 C118.641333,34.0373333 118.356,34.072 118.068,34.072 C117.204,34.072 116.513333,33.8346667 115.996,33.36 C115.478667,32.8853333 115.22,32.168 115.22,31.208 L115.22,31.208 L121.412,31.208 C121.465333,30.3013333 121.401333,29.5626667 121.22,28.992 C121.038667,28.4213333 120.78,27.9733333 120.444,27.648 C120.108,27.3226667 119.721333,27.1013333 119.284,26.984 C118.846667,26.8666667 118.404,26.808 117.956,26.808 C117.337333,26.808 116.777333,26.9013333 116.276,27.088 C115.774667,27.2746667 115.348,27.544 114.996,27.896 C114.644,28.248 114.374667,28.6853333 114.188,29.208 C114.001333,29.7306667 113.908,30.328 113.908,31 C113.908,31.64 113.993333,32.216 114.164,32.728 C114.334667,33.24 114.585333,33.68 114.916,34.048 C115.246667,34.416 115.657333,34.6986667 116.148,34.896 C116.638667,35.0933333 117.204,35.192 117.844,35.192 Z M120.244,30.088 L115.268,30.088 C115.310667,29.672 115.409333,29.3226667 115.564,29.04 C115.718667,28.7573333 115.916,28.528 116.156,28.352 C116.396,28.176 116.673333,28.0506667 116.988,27.976 C117.302667,27.9013333 117.636,27.864 117.988,27.864 C118.638667,27.864 119.164,28.0586667 119.564,28.448 C119.964,28.8373333 120.190667,29.384 120.244,30.088 L120.244,30.088 Z M130.02,35 L130.02,33.928 L126.948,33.928 L126.948,29.208 C127.012,29.112 127.113333,28.9946667 127.252,28.856 C127.390667,28.7173333 127.558667,28.5786667 127.756,28.44 C127.953333,28.3013333 128.185333,28.184 128.452,28.088 C128.718667,27.992 129.017333,27.944 129.348,27.944 C129.7,27.944 129.942667,28.104 130.076,28.424 C130.209333,28.744 130.276,29.2453333 130.276,29.928 L130.276,29.928 L131.396,29.912 C131.396,29.432 131.374667,29.0026667 131.332,28.624 C131.289333,28.2453333 131.206667,27.9226667 131.084,27.656 C130.961333,27.3893333 130.790667,27.1866667 130.572,27.048 C130.353333,26.9093333 130.062667,26.84 129.7,26.84 C129.081333,26.84 128.548,26.9573333 128.1,27.192 C127.652,27.4266667 127.246667,27.7093333 126.884,28.04 L126.884,28.04 L126.804,28.04 L126.548,27 L123.556,27 L123.556,28.072 L125.716,28.072 L125.716,33.928 L123.556,33.928 L123.556,35 L130.02,35 Z M139.972,35 L139.972,33.928 L136.66,33.928 L136.66,28.072 L139.972,28.072 L139.972,27 L136.66,27 C136.66,26.2106667 136.788,25.6426667 137.044,25.296 C137.3,24.9493333 137.78,24.776 138.484,24.776 C138.697333,24.776 138.932,24.7946667 139.188,24.832 C139.444,24.8693333 139.710667,24.9466667 139.988,25.064 L139.988,25.064 L140.276,24.024 C139.956,23.896 139.657333,23.8106667 139.38,23.768 C139.102667,23.7253333 138.788,23.704 138.436,23.704 C137.465333,23.704 136.718667,23.928 136.196,24.376 C135.673333,24.824 135.412,25.5493333 135.412,26.552 L135.412,26.552 L135.412,27 L133.508,27 L133.508,28.072 L135.412,28.072 L135.412,33.928 L133.508,33.928 L133.508,35 L139.972,35 Z M145.46,35.144 C145.865333,35.144 146.217333,35.0906667 146.516,34.984 C146.814667,34.8773333 147.068,34.752 147.276,34.608 C147.484,34.464 147.652,34.3173333 147.78,34.168 C147.908,34.0186667 148.004,33.896 148.068,33.8 L148.068,33.8 L148.148,33.8 L148.292,35 L150.42,35 L150.42,33.96 L149.348,33.96 C149.284,33.48 149.252,32.9733333 149.252,32.44 C149.262667,31.9813333 149.278667,31.5226667 149.3,31.064 C149.321333,30.6053333 149.332,30.1733333 149.332,29.768 C149.332,29.416 149.297333,29.0666667 149.228,28.72 C149.158667,28.3733333 149.025333,28.064 148.828,27.792 C148.630667,27.52 148.358667,27.2986667 148.012,27.128 C147.665333,26.9573333 147.22,26.872 146.676,26.872 C146.121333,26.872 145.556,26.9306667 144.98,27.048 C144.404,27.1653333 143.886667,27.3573333 143.428,27.624 L143.428,27.624 L143.828,28.552 C144.169333,28.4133333 144.558667,28.2773333 144.996,28.144 C145.433333,28.0106667 145.892,27.944 146.372,27.944 C146.724,27.944 147.02,27.984 147.26,28.064 C147.5,28.144 147.686667,28.28 147.82,28.472 C147.953333,28.664 148.038667,28.9226667 148.076,29.248 C148.113333,29.5733333 148.105333,29.9813333 148.052,30.472 C147.262667,30.3546667 146.550667,30.312 145.916,30.344 C145.281333,30.376 144.74,30.488 144.292,30.68 C143.844,30.872 143.5,31.1493333 143.26,31.512 C143.02,31.8746667 142.9,32.328 142.9,32.872 C142.9,33.576 143.129333,34.1306667 143.588,34.536 C144.046667,34.9413333 144.670667,35.144 145.46,35.144 Z M145.78,34.072 C145.214667,34.072 144.812,33.9413333 144.572,33.68 C144.332,33.4186667 144.212,33.112 144.212,32.76 C144.212,32.4186667 144.308,32.1413333 144.5,31.928 C144.692,31.7146667 144.958667,31.5573333 145.3,31.456 C145.641333,31.3546667 146.046667,31.304 146.516,31.304 C146.985333,31.304 147.497333,31.352 148.052,31.448 L148.052,31.448 L148.052,32.568 C147.988,32.728 147.892,32.896 147.764,33.072 C147.636,33.248 147.476,33.4106667 147.284,33.56 C147.092,33.7093333 146.868,33.832 146.612,33.928 C146.356,34.024 146.078667,34.072 145.78,34.072 Z M156.484,35.192 C156.9,35.192 157.286667,35.1546667 157.644,35.08 C158.001333,35.0053333 158.326667,34.9066667 158.62,34.784 C158.913333,34.6613333 159.172,34.5306667 159.396,34.392 C159.62,34.2533333 159.806667,34.12 159.956,33.992 L159.956,33.992 L159.396,33.064 C159.076,33.3413333 158.678667,33.5653333 158.204,33.736 C157.729333,33.9066667 157.241333,33.992 156.74,33.992 C156.270667,33.992 155.841333,33.9226667 155.452,33.784 C155.062667,33.6453333 154.729333,33.448 154.452,33.192 C154.174667,32.936 153.961333,32.624 153.812,32.256 C153.662667,31.888 153.588,31.4693333 153.588,31 C153.588,29.9333333 153.844,29.1546667 154.356,28.664 C154.868,28.1733333 155.646667,27.928 156.692,27.928 C156.969333,27.928 157.249333,27.9573333 157.532,28.016 C157.814667,28.0746667 158.078667,28.1466667 158.324,28.232 L158.324,28.232 L158.324,29.752 L159.476,29.752 L159.476,27.528 L159.492,27.48 C159.150667,27.3093333 158.732,27.1546667 158.236,27.016 C157.74,26.8773333 157.097333,26.808 156.308,26.808 C155.689333,26.808 155.129333,26.9013333 154.628,27.088 C154.126667,27.2746667 153.7,27.544 153.348,27.896 C152.996,28.248 152.726667,28.6853333 152.54,29.208 C152.353333,29.7306667 152.26,30.328 152.26,31 C152.26,31.6293333 152.350667,32.2026667 152.532,32.72 C152.713333,33.2373333 152.98,33.68 153.332,34.048 C153.684,34.416 154.124,34.6986667 154.652,34.896 C155.18,35.0933333 155.790667,35.192 156.484,35.192 Z M165.844,35.192 C166.185333,35.192 166.524,35.1626667 166.86,35.104 C167.196,35.0453333 167.518667,34.9626667 167.828,34.856 C168.137333,34.7493333 168.422667,34.6213333 168.684,34.472 C168.945333,34.3226667 169.172,34.1626667 169.364,33.992 L169.364,33.992 L168.868,33.08 C168.761333,33.176 168.609333,33.2826667 168.412,33.4 C168.214667,33.5173333 167.988,33.624 167.732,33.72 C167.476,33.816 167.206667,33.8986667 166.924,33.968 C166.641333,34.0373333 166.356,34.072 166.068,34.072 C165.204,34.072 164.513333,33.8346667 163.996,33.36 C163.478667,32.8853333 163.22,32.168 163.22,31.208 L163.22,31.208 L169.412,31.208 C169.465333,30.3013333 169.401333,29.5626667 169.22,28.992 C169.038667,28.4213333 168.78,27.9733333 168.444,27.648 C168.108,27.3226667 167.721333,27.1013333 167.284,26.984 C166.846667,26.8666667 166.404,26.808 165.956,26.808 C165.337333,26.808 164.777333,26.9013333 164.276,27.088 C163.774667,27.2746667 163.348,27.544 162.996,27.896 C162.644,28.248 162.374667,28.6853333 162.188,29.208 C162.001333,29.7306667 161.908,30.328 161.908,31 C161.908,31.64 161.993333,32.216 162.164,32.728 C162.334667,33.24 162.585333,33.68 162.916,34.048 C163.246667,34.416 163.657333,34.6986667 164.148,34.896 C164.638667,35.0933333 165.204,35.192 165.844,35.192 Z M168.244,30.088 L163.268,30.088 C163.310667,29.672 163.409333,29.3226667 163.564,29.04 C163.718667,28.7573333 163.916,28.528 164.156,28.352 C164.396,28.176 164.673333,28.0506667 164.988,27.976 C165.302667,27.9013333 165.636,27.864 165.988,27.864 C166.638667,27.864 167.164,28.0586667 167.564,28.448 C167.964,28.8373333 168.190667,29.384 168.244,30.088 L168.244,30.088 Z" id="VaultInterface" fill="#00BAE9" fill-rule="nonzero"></path>
                    </g>
                </g>
            </g>
            <g id="padlock-tpm" transform="translate(529.000000, 90.000000)">
                <g id="Group-5-Copy-7" transform="translate(11.500000, 53.500000) rotate(-270.000000) translate(-11.500000, -53.500000) translate(7.000000, 42.000000)" fill="#40A6C8" fill-rule="nonzero">
                    <path id="Path-5" d="M1,0 L1,13.788 L5,13.7882722 L0.5,22.7882722 L-4,13.7882722 L0,13.788 L0,0 L1,0 Z"></path>
                    <path id="Path-5-Copy" d="M9,0 L9,13.788 L13,13.7882722 L8.5,22.7882722 L4,13.7882722 L8,13.788 L8,0 L9,0 Z"></path>
                </g>
                <g id="Group-36-Copy" transform="translate(59.000000, 0.000000)" fill="#162535" fill-rule="nonzero" stroke="#52C7EA" stroke-width="0.8">
                    <path d="M0,32 L0,74.9231595 C0.0796944683,76.0035621 0.753749832,76.9562746 1.75978596,77.4104479 L38.2515637,97.994503 C40.8793522,99.482227 45.4571738,99.2962615 48.4892374,97.5877035 C50.1895712,96.6230076 51.0456833,95.3909862 50.9981215,94.2287019 L50.9981215,51.3520337 L0,32 Z" id="Path"></path>
                    <path d="M42,98.8677733 C44.5718,99.2469432 47.2007495,98.8055022 49.4926559,97.6096414 C51.1906746,96.6516143 52.0456211,95.4281099 51.998124,94.2738604 L51.998124,94.2738604 L51.998124,51.6935982 L42.1781138,48 L42,48 L42,98.8677733 Z" id="Path"></path>
                    <path d="M39.004265,54.9530897 L1.80235216,33.5212407 C-0.864451625,31.972242 -0.537162069,29.2856974 2.55390596,27.4704646 L2.55390596,27.4704646 C5.64497398,25.6915364 10.3240024,25.4979116 13.0029281,27.0469103 L50.1927191,48.4787593 C52.8716447,50.027758 52.5322333,52.7264041 49.4411653,54.5295354 L49.4411653,54.5295354 C46.3500973,56.3084636 41.6831906,56.5020884 39.004265,54.9530897 Z" id="Path"></path>
                    <path d="M42.7712458,53 C40.9880541,53 39.5424916,51.6016256 39.5424916,49.8766433 L39.5424916,30.5354042 C39.5424916,23.9351033 34.5592446,15.5786508 28.6500152,12.2902866 L20.1212306,7.49328216 C17.8550107,6.23215323 15.8081023,5.91392443 14.5044167,6.64467204 C13.200731,7.37541964 12.4575084,9.23764741 12.4575084,11.7716915 L12.4575084,31.1129306 C12.4575083,32.8379128 11.0119458,34.2362871 9.22875419,34.2362871 C7.44556256,34.2362871 6,32.8379128 6,31.1129306 L6,11.7716915 C6,6.88039707 7.86414864,3.13236903 11.2756625,1.2347825 C14.6871764,-0.662804023 18.9637527,-0.368147731 23.3499848,2.08339262 L31.8787694,6.86861082 C39.7983552,11.3002415 46,21.6839292 46,30.5354042 L46,49.8766433 C46,51.6016256 44.5544375,53 42.7712458,53 L42.7712458,53 Z" id="Path"></path>
                </g>
                <text id="TPM" font-family="PTMono-Regular, PT Mono" font-size="16" font-weight="normal" fill="#25B8E4">
                    <tspan x="70.1" y="127">TPM</tspan>
                </text>
            </g>
            <path d="M-30.984,142.584 C-29.5973333,142.584 -28.576,142.082667 -27.92,141.08 C-27.264,140.077333 -26.936,138.648 -26.936,136.792 C-26.936,135.917333 -27.0053333,135.125333 -27.144,134.416 C-27.2826667,133.706667 -27.512,133.098667 -27.832,132.592 C-28.152,132.085333 -28.5706667,131.693333 -29.088,131.416 C-29.6053333,131.138667 -30.2373333,131 -30.984,131 C-32.3493333,131 -33.36,131.501333 -34.016,132.504 C-34.672,133.506667 -35,134.936 -35,136.792 C-35,137.666667 -34.9306667,138.458667 -34.792,139.168 C-34.6533333,139.877333 -34.424,140.485333 -34.104,140.992 C-33.784,141.498667 -33.368,141.890667 -32.856,142.168 C-32.344,142.445333 -31.72,142.584 -30.984,142.584 Z M-30.984,141.4 C-31.496,141.4 -31.9173333,141.274667 -32.248,141.024 C-32.5786667,140.773333 -32.8453333,140.437333 -33.048,140.016 C-33.2506667,139.594667 -33.392,139.106667 -33.472,138.552 C-33.552,137.997333 -33.592,137.410667 -33.592,136.792 C-33.592,135.224 -33.384,134.064 -32.968,133.312 C-32.552,132.56 -31.8906667,132.184 -30.984,132.184 C-30.472,132.184 -30.0453333,132.309333 -29.704,132.56 C-29.3626667,132.810667 -29.0906667,133.146667 -28.888,133.568 C-28.6853333,133.989333 -28.544,134.48 -28.464,135.04 C-28.384,135.6 -28.344,136.184 -28.344,136.792 C-28.344,138.370667 -28.5546667,139.533333 -28.976,140.28 C-29.3973333,141.026667 -30.0666667,141.4 -30.984,141.4 Z M-20.984,142.584 C-20.568,142.584 -20.1813333,142.546667 -19.824,142.472 C-19.4666667,142.397333 -19.1413333,142.298667 -18.848,142.176 C-18.5546667,142.053333 -18.296,141.922667 -18.072,141.784 C-17.848,141.645333 -17.6613333,141.512 -17.512,141.384 L-17.512,141.384 L-18.072,140.456 C-18.392,140.733333 -18.7893333,140.957333 -19.264,141.128 C-19.7386667,141.298667 -20.2266667,141.384 -20.728,141.384 C-21.1973333,141.384 -21.6266667,141.314667 -22.016,141.176 C-22.4053333,141.037333 -22.7386667,140.84 -23.016,140.584 C-23.2933333,140.328 -23.5066667,140.016 -23.656,139.648 C-23.8053333,139.28 -23.88,138.861333 -23.88,138.392 C-23.88,137.325333 -23.624,136.546667 -23.112,136.056 C-22.6,135.565333 -21.8213333,135.32 -20.776,135.32 C-20.4986667,135.32 -20.2186667,135.349333 -19.936,135.408 C-19.6533333,135.466667 -19.3893333,135.538667 -19.144,135.624 L-19.144,135.624 L-19.144,137.144 L-17.992,137.144 L-17.992,134.92 L-17.976,134.872 C-18.3173333,134.701333 -18.736,134.546667 -19.232,134.408 C-19.728,134.269333 -20.3706667,134.2 -21.16,134.2 C-21.7786667,134.2 -22.3386667,134.293333 -22.84,134.48 C-23.3413333,134.666667 -23.768,134.936 -24.12,135.288 C-24.472,135.64 -24.7413333,136.077333 -24.928,136.6 C-25.1146667,137.122667 -25.208,137.72 -25.208,138.392 C-25.208,139.021333 -25.1173333,139.594667 -24.936,140.112 C-24.7546667,140.629333 -24.488,141.072 -24.136,141.44 C-23.784,141.808 -23.344,142.090667 -22.816,142.288 C-22.288,142.485333 -21.6773333,142.584 -20.984,142.584 Z M-13.592,142.392 L-13.592,138.776 L-12.712,138.776 L-9.288,142.392 L-7.64,142.392 L-7.64,141.32 L-8.68,141.32 L-11.592,138.184 L-8.056,134.392 L-9.56,134.392 L-12.712,137.816 L-13.592,137.816 L-13.592,131.192 L-16.184,131.192 L-16.184,132.264 L-14.824,132.264 L-14.824,142.392 L-13.592,142.392 Z M-3.208,142.536 C-2.80266667,142.536 -2.45066667,142.482667 -2.152,142.376 C-1.85333333,142.269333 -1.6,142.144 -1.392,142 C-1.184,141.856 -1.016,141.709333 -0.888,141.56 C-0.76,141.410667 -0.664,141.288 -0.6,141.192 L-0.6,141.192 L-0.52,141.192 L-0.376,142.392 L1.752,142.392 L1.752,141.352 L0.68,141.352 C0.616,140.872 0.584,140.365333 0.584,139.832 C0.594666667,139.373333 0.610666667,138.914667 0.632,138.456 C0.653333333,137.997333 0.664,137.565333 0.664,137.16 C0.664,136.808 0.629333333,136.458667 0.56,136.112 C0.490666667,135.765333 0.357333333,135.456 0.16,135.184 C-0.0373333333,134.912 -0.309333333,134.690667 -0.656,134.52 C-1.00266667,134.349333 -1.448,134.264 -1.992,134.264 C-2.54666667,134.264 -3.112,134.322667 -3.688,134.44 C-4.264,134.557333 -4.78133333,134.749333 -5.24,135.016 L-5.24,135.016 L-4.84,135.944 C-4.49866667,135.805333 -4.10933333,135.669333 -3.672,135.536 C-3.23466667,135.402667 -2.776,135.336 -2.296,135.336 C-1.944,135.336 -1.648,135.376 -1.408,135.456 C-1.168,135.536 -0.981333333,135.672 -0.848,135.864 C-0.714666667,136.056 -0.629333333,136.314667 -0.592,136.64 C-0.554666667,136.965333 -0.562666667,137.373333 -0.616,137.864 C-1.40533333,137.746667 -2.11733333,137.704 -2.752,137.736 C-3.38666667,137.768 -3.928,137.88 -4.376,138.072 C-4.824,138.264 -5.168,138.541333 -5.408,138.904 C-5.648,139.266667 -5.768,139.72 -5.768,140.264 C-5.768,140.968 -5.53866667,141.522667 -5.08,141.928 C-4.62133333,142.333333 -3.99733333,142.536 -3.208,142.536 Z M-2.888,141.464 C-3.45333333,141.464 -3.856,141.333333 -4.096,141.072 C-4.336,140.810667 -4.456,140.504 -4.456,140.152 C-4.456,139.810667 -4.36,139.533333 -4.168,139.32 C-3.976,139.106667 -3.70933333,138.949333 -3.368,138.848 C-3.02666667,138.746667 -2.62133333,138.696 -2.152,138.696 C-1.68266667,138.696 -1.17066667,138.744 -0.616,138.84 L-0.616,138.84 L-0.616,139.96 C-0.68,140.12 -0.776,140.288 -0.904,140.464 C-1.032,140.64 -1.192,140.802667 -1.384,140.952 C-1.576,141.101333 -1.8,141.224 -2.056,141.32 C-2.312,141.416 -2.58933333,141.464 -2.888,141.464 Z M4.504,142.392 L4.504,136.888 C4.632,136.44 4.82133333,136.066667 5.072,135.768 C5.32266667,135.469333 5.62933333,135.32 5.992,135.32 C6.17333333,135.32 6.32,135.368 6.432,135.464 C6.544,135.56 6.62933333,135.690667 6.688,135.856 C6.74666667,136.021333 6.784,136.208 6.8,136.416 C6.816,136.624 6.824,136.84 6.824,137.064 L6.824,137.064 L6.824,142.392 L8.04,142.392 L8.04,137.048 C8.168,136.493333 8.36,136.066667 8.616,135.768 C8.872,135.469333 9.18666667,135.32 9.56,135.32 C9.73066667,135.32 9.86666667,135.362667 9.968,135.448 C10.0693333,135.533333 10.1493333,135.650667 10.208,135.8 C10.2666667,135.949333 10.3066667,136.122667 10.328,136.32 C10.3493333,136.517333 10.36,136.728 10.36,136.952 L10.36,136.952 L10.36,142.392 L11.576,142.392 L11.576,136.68 C11.576,136.306667 11.552,135.968 11.504,135.664 C11.456,135.36 11.3706667,135.098667 11.248,134.88 C11.1253333,134.661333 10.9546667,134.493333 10.736,134.376 C10.5173333,134.258667 10.232,134.2 9.88,134.2 C9.34666667,134.2 8.928,134.317333 8.624,134.552 C8.32,134.786667 8.04533333,135.112 7.8,135.528 C7.768,135.282667 7.69866667,135.074667 7.592,134.904 C7.48533333,134.733333 7.36,134.597333 7.216,134.496 C7.072,134.394667 6.91466667,134.32 6.744,134.272 C6.57333333,134.224 6.408,134.2 6.248,134.2 C5.97066667,134.2 5.74133333,134.229333 5.56,134.288 C5.37866667,134.346667 5.22133333,134.429333 5.088,134.536 C4.95466667,134.642667 4.83733333,134.768 4.736,134.912 C4.63466667,135.056 4.53066667,135.208 4.424,135.368 L4.424,135.368 L4.36,135.368 L4.12,134.392 L3.288,134.392 L3.288,142.392 L4.504,142.392 Z M30.2,142.392 L30.2,141.208 L24.872,141.208 L24.872,137.224 L29.72,137.224 L29.72,136.04 L24.872,136.04 L24.872,132.376 L30.12,132.376 L30.12,131.192 L23.544,131.192 L23.544,142.392 L30.2,142.392 Z M35.848,142.584 C36.456,142.584 36.992,142.448 37.456,142.176 C37.92,141.904 38.2693333,141.565333 38.504,141.16 L38.504,141.16 L38.568,141.16 L38.728,142.392 L40.856,142.392 L40.856,141.352 L39.784,141.352 C39.7626667,141.234667 39.7413333,141.098667 39.72,140.944 C39.6986667,140.789333 39.68,140.632 39.664,140.472 C39.648,140.312 39.6346667,140.16 39.624,140.016 C39.6133333,139.872 39.608,139.752 39.608,139.656 L39.608,139.656 L39.608,131.192 L37.016,131.192 L37.016,132.264 L38.36,132.264 L38.36,134.536 C38.2,134.493333 38.0533333,134.453333 37.92,134.416 C37.7866667,134.378667 37.6453333,134.349333 37.496,134.328 C37.3466667,134.306667 37.184,134.290667 37.008,134.28 C36.832,134.269333 36.632,134.264 36.408,134.264 C35.7893333,134.264 35.2293333,134.354667 34.728,134.536 C34.2266667,134.717333 33.7973333,134.981333 33.44,135.328 C33.0826667,135.674667 32.808,136.106667 32.616,136.624 C32.424,137.141333 32.328,137.736 32.328,138.408 C32.328,139.837333 32.6133333,140.890667 33.184,141.568 C33.7546667,142.245333 34.6426667,142.584 35.848,142.584 Z M36.056,141.512 C35.608,141.512 35.2293333,141.432 34.92,141.272 C34.6106667,141.112 34.3626667,140.893333 34.176,140.616 C33.9893333,140.338667 33.856,140.010667 33.776,139.632 C33.696,139.253333 33.656,138.845333 33.656,138.408 C33.656,137.341333 33.9013333,136.56 34.392,136.064 C34.8826667,135.568 35.5546667,135.32 36.408,135.32 C36.888,135.32 37.2746667,135.357333 37.568,135.432 C37.8613333,135.506667 38.1253333,135.624 38.36,135.784 L38.36,135.784 L38.36,139.496 C38.2213333,140.168 37.9653333,140.672 37.592,141.008 C37.2186667,141.344 36.7066667,141.512 36.056,141.512 Z M45.704,145.784 C46.2266667,145.784 46.712,145.722667 47.16,145.6 C47.608,145.477333 48,145.293333 48.336,145.048 C48.672,144.802667 48.936,144.490667 49.128,144.112 C49.32,143.733333 49.416,143.293333 49.416,142.792 L49.416,142.792 L49.416,134.744 C49.032,134.605333 48.608,134.490667 48.144,134.4 C47.68,134.309333 47.1173333,134.264 46.456,134.264 C45.0266667,134.264 43.9493333,134.613333 43.224,135.312 C42.4986667,136.010667 42.136,137.042667 42.136,138.408 C42.136,139.837333 42.4213333,140.890667 42.992,141.568 C43.5626667,142.245333 44.456,142.584 45.672,142.584 C46.28,142.584 46.776,142.488 47.16,142.296 C47.544,142.104 47.8586667,141.832 48.104,141.48 L48.104,141.48 L48.168,141.48 L48.168,142.376 C48.168,142.792 48.1253333,143.144 48.04,143.432 C47.9546667,143.72 47.816,143.954667 47.624,144.136 C47.432,144.317333 47.1786667,144.450667 46.864,144.536 C46.5493333,144.621333 46.1573333,144.664 45.688,144.664 C45.464,144.664 45.2373333,144.642667 45.008,144.6 C44.7786667,144.557333 44.5626667,144.501333 44.36,144.432 C44.1573333,144.362667 43.9786667,144.288 43.824,144.208 C43.6693333,144.128 43.544,144.045333 43.448,143.96 L43.448,143.96 L42.84,145.096 C43.1813333,145.298667 43.5866667,145.464 44.056,145.592 C44.5253333,145.72 45.0746667,145.784 45.704,145.784 Z M45.848,141.512 C45.4,141.512 45.024,141.434667 44.72,141.28 C44.416,141.125333 44.1706667,140.909333 43.984,140.632 C43.7973333,140.354667 43.6613333,140.026667 43.576,139.648 C43.4906667,139.269333 43.448,138.850667 43.448,138.392 C43.448,137.357333 43.6933333,136.589333 44.184,136.088 C44.6746667,135.586667 45.3466667,135.336 46.2,135.336 C47.0426667,135.336 47.6986667,135.448 48.168,135.672 L48.168,135.672 L48.168,139.464 C48.0186667,140.157333 47.7573333,140.672 47.384,141.008 C47.0106667,141.344 46.4986667,141.512 45.848,141.512 Z M55.576,142.584 C55.9173333,142.584 56.256,142.554667 56.592,142.496 C56.928,142.437333 57.2506667,142.354667 57.56,142.248 C57.8693333,142.141333 58.1546667,142.013333 58.416,141.864 C58.6773333,141.714667 58.904,141.554667 59.096,141.384 L59.096,141.384 L58.6,140.472 C58.4933333,140.568 58.3413333,140.674667 58.144,140.792 C57.9466667,140.909333 57.72,141.016 57.464,141.112 C57.208,141.208 56.9386667,141.290667 56.656,141.36 C56.3733333,141.429333 56.088,141.464 55.8,141.464 C54.936,141.464 54.2453333,141.226667 53.728,140.752 C53.2106667,140.277333 52.952,139.56 52.952,138.6 L52.952,138.6 L59.144,138.6 C59.1973333,137.693333 59.1333333,136.954667 58.952,136.384 C58.7706667,135.813333 58.512,135.365333 58.176,135.04 C57.84,134.714667 57.4533333,134.493333 57.016,134.376 C56.5786667,134.258667 56.136,134.2 55.688,134.2 C55.0693333,134.2 54.5093333,134.293333 54.008,134.48 C53.5066667,134.666667 53.08,134.936 52.728,135.288 C52.376,135.64 52.1066667,136.077333 51.92,136.6 C51.7333333,137.122667 51.64,137.72 51.64,138.392 C51.64,139.032 51.7253333,139.608 51.896,140.12 C52.0666667,140.632 52.3173333,141.072 52.648,141.44 C52.9786667,141.808 53.3893333,142.090667 53.88,142.288 C54.3706667,142.485333 54.936,142.584 55.576,142.584 Z M57.976,137.48 L53,137.48 C53.0426667,137.064 53.1413333,136.714667 53.296,136.432 C53.4506667,136.149333 53.648,135.92 53.888,135.744 C54.128,135.568 54.4053333,135.442667 54.72,135.368 C55.0346667,135.293333 55.368,135.256 55.72,135.256 C56.3706667,135.256 56.896,135.450667 57.296,135.84 C57.696,136.229333 57.9226667,136.776 57.976,137.48 L57.976,137.48 Z M74.568,142.584 C75.1653333,142.584 75.7013333,142.509333 76.176,142.36 C76.6506667,142.210667 77.0506667,141.997333 77.376,141.72 C77.7013333,141.442667 77.952,141.112 78.128,140.728 C78.304,140.344 78.392,139.912 78.392,139.432 C78.392,138.845333 78.2453333,138.354667 77.952,137.96 C77.6586667,137.565333 77.2933333,137.226667 76.856,136.944 C76.4186667,136.661333 75.944,136.413333 75.432,136.2 C74.92,135.986667 74.4453333,135.770667 74.008,135.552 C73.5706667,135.333333 73.2053333,135.085333 72.912,134.808 C72.6186667,134.530667 72.472,134.184 72.472,133.768 C72.472,133.554667 72.5253333,133.352 72.632,133.16 C72.7386667,132.968 72.8906667,132.8 73.088,132.656 C73.2853333,132.512 73.5253333,132.397333 73.808,132.312 C74.0906667,132.226667 74.408,132.184 74.76,132.184 C75.1226667,132.184 75.464,132.205333 75.784,132.248 C76.104,132.290667 76.3973333,132.344 76.664,132.408 L76.664,132.408 L76.664,134.12 L77.848,134.12 L77.848,131.56 L77.864,131.512 L77.848,131.512 L77.848,131.48 L77.816,131.496 C77.5066667,131.346667 77.0906667,131.226667 76.568,131.136 C76.0453333,131.045333 75.464,131 74.824,131 C74.2693333,131 73.7653333,131.066667 73.312,131.2 C72.8586667,131.333333 72.472,131.522667 72.152,131.768 C71.832,132.013333 71.584,132.312 71.408,132.664 C71.232,133.016 71.144,133.410667 71.144,133.848 C71.144,134.466667 71.2906667,134.976 71.584,135.376 C71.8773333,135.776 72.2426667,136.114667 72.68,136.392 C73.1173333,136.669333 73.592,136.909333 74.104,137.112 C74.616,137.314667 75.0906667,137.522667 75.528,137.736 C75.9653333,137.949333 76.3306667,138.194667 76.624,138.472 C76.9173333,138.749333 77.064,139.106667 77.064,139.544 C77.064,139.864 76.9973333,140.141333 76.864,140.376 C76.7306667,140.610667 76.5493333,140.805333 76.32,140.96 C76.0906667,141.114667 75.8213333,141.226667 75.512,141.296 C75.2026667,141.365333 74.872,141.4 74.52,141.4 C74.1146667,141.4 73.712,141.344 73.312,141.232 C72.912,141.12 72.552,140.978667 72.232,140.808 L72.232,140.808 L72.232,139.032 L71.048,139.032 L71.048,141.624 L71.032,141.672 C71.1706667,141.746667 71.36,141.837333 71.6,141.944 C71.84,142.050667 72.112,142.152 72.416,142.248 C72.72,142.344 73.0533333,142.424 73.416,142.488 C73.7786667,142.552 74.1626667,142.584 74.568,142.584 Z M83.096,142.536 C84.0986667,142.536 84.9333333,142.373333 85.6,142.048 C86.2666667,141.722667 86.7973333,141.290667 87.192,140.752 C87.5866667,140.213333 87.864,139.594667 88.024,138.896 C88.184,138.197333 88.264,137.469333 88.264,136.712 C88.264,135.88 88.176,135.117333 88,134.424 C87.824,133.730667 87.536,133.136 87.136,132.64 C86.736,132.144 86.208,131.757333 85.552,131.48 C84.896,131.202667 84.0826667,131.064 83.112,131.064 C82.8026667,131.064 82.4266667,131.072 81.984,131.088 C81.5413333,131.104 81.1173333,131.138667 80.712,131.192 L80.712,131.192 L80.712,142.408 C80.8186667,142.429333 80.9786667,142.445333 81.192,142.456 C81.4053333,142.466667 81.6293333,142.48 81.864,142.496 C82.0986667,142.512 82.328,142.522667 82.552,142.528 C82.776,142.533333 82.9573333,142.536 83.096,142.536 Z M83.144,141.352 C83.08,141.352 82.9973333,141.349333 82.896,141.344 C82.7946667,141.338667 82.6906667,141.333333 82.584,141.328 L82.426,141.32 L82.426,141.32 L82.272,141.312 C82.1706667,141.306667 82.0933333,141.298667 82.04,141.288 L82.04,141.288 L82.04,132.328 C82.1893333,132.296 82.3786667,132.274667 82.608,132.264 C82.8373333,132.253333 83.0266667,132.248 83.176,132.248 C83.9653333,132.248 84.6026667,132.384 85.088,132.656 C85.5733333,132.928 85.9466667,133.277333 86.208,133.704 C86.4693333,134.130667 86.6426667,134.608 86.728,135.136 C86.8133333,135.664 86.856,136.189333 86.856,136.712 C86.856,137.309333 86.808,137.888 86.712,138.448 C86.616,139.008 86.4346667,139.504 86.168,139.936 C85.9013333,140.368 85.5253333,140.712 85.04,140.968 C84.5546667,141.224 83.9226667,141.352 83.144,141.352 Z M91.72,142.392 L91.72,137.208 L92.952,137.208 L96.872,142.392 L98.552,142.392 L94.104,136.52 L98.056,131.192 L96.52,131.192 L92.92,136.184 L91.72,136.184 L91.72,131.192 L90.392,131.192 L90.392,142.392 L91.72,142.392 Z" id="OckamEdgeSDK-Copy" fill="#FFFFFF" fill-rule="nonzero" transform="translate(31.776000, 138.392000) rotate(-90.000000) translate(-31.776000, -138.392000) "></path>
        </g>
    </g>
</svg>