<svg id="Layer_1" data-name="Layer 1" xmlns="http://www.w3.org/2000/svg" xmlns:xlink="http://www.w3.org/1999/xlink" viewBox="0 0 540 540"><defs><style>.cls-1{fill:none;}.cls-13,.cls-14,.cls-18,.cls-2,.cls-20{opacity:0.3;}.cls-10,.cls-11,.cls-13,.cls-14,.cls-16,.cls-17,.cls-18,.cls-19,.cls-2,.cls-20,.cls-21,.cls-6{isolation:isolate;}.cls-2{fill:url(#linear-gradient);}.cls-16,.cls-19,.cls-3,.cls-6,.cls-7{fill:#52c7ea;}.cls-3{opacity:0.1;}.cls-4{opacity:0.4;}.cls-5{fill:#0a1a2b;}.cls-6{opacity:0.6;}.cls-8{fill:#152935;}.cls-9{fill:#05151c;}.cls-10,.cls-11,.cls-17{opacity:0.21;}.cls-10{fill:url(#linear-gradient-2);}.cls-11{fill:url(#linear-gradient-3);}.cls-12{fill:#05131c;}.cls-13{fill:url(#linear-gradient-4);}.cls-14{fill:url(#linear-gradient-5);}.cls-15{fill:#ec432d;}.cls-16{opacity:0.1;}.cls-17{fill:url(#linear-gradient-6);}.cls-18{fill:url(#linear-gradient-7);}.cls-19{opacity:0.15;}.cls-20{fill:url(#linear-gradient-8);}.cls-22{clip-path:url(#clip-path);}.cls-23{clip-path:url(#clip-path-2);}.cls-24{clip-path:url(#clip-path-3);}</style><linearGradient id="linear-gradient" x1="327.62" y1="333.57" x2="610.35" y2="333.57" gradientUnits="userSpaceOnUse"><stop offset="0" stop-color="#52c7ea" stop-opacity="0.7"/><stop offset="0.97"/></linearGradient><linearGradient id="linear-gradient-2" x1="164.72" y1="-1005.26" x2="200.62" y2="-1005.26" gradientTransform="matrix(1, 0, 0, -1, 0, -618)" gradientUnits="userSpaceOnUse"><stop offset="0" stop-color="#52c7ea" stop-opacity="0.7"/><stop offset="1"/></linearGradient><linearGradient id="linear-gradient-3" x1="24.09" y1="-922.91" x2="51.24" y2="-922.91" xlink:href="#linear-gradient-2"/><linearGradient id="linear-gradient-4" x1="-3794.91" y1="3058.18" x2="-3663.65" y2="3058.18" gradientTransform="matrix(-1, 0, 0.09, 1, -3794.12, -2736)" xlink:href="#linear-gradient-2"/><linearGradient id="linear-gradient-5" x1="-3728.16" y1="3016.7" x2="-3611.77" y2="3016.7" gradientTransform="matrix(-1, 0, 0.09, 1, -3794.12, -2736)" xlink:href="#linear-gradient-2"/><linearGradient id="linear-gradient-6" x1="-3759.22" y1="3142.22" x2="-3731.84" y2="3142.22" gradientTransform="matrix(-1, 0, 0.09, 1, -3794.12, -2736)" xlink:href="#linear-gradient-2"/><linearGradient id="linear-gradient-7" x1="143.31" y1="-1028.74" x2="166.21" y2="-1028.74" xlink:href="#linear-gradient-2"/><linearGradient id="linear-gradient-8" x1="101.3" y1="3047.2" x2="61.49" y2="3153.3" gradientTransform="translate(0 -2736)" xlink:href="#linear-gradient-2"/><clipPath id="clip-path"><polygon class="cls-1" points="405.3 285.39 458.82 254.29 511.89 284.93 458.37 316.04 405.3 285.39"/></clipPath><clipPath id="clip-path-2"><polygon class="cls-1" points="272.12 126.99 272.34 51.26 333.8 86.75 333.58 162.48 272.12 126.99"/></clipPath><clipPath id="clip-path-3"><polygon class="cls-1" points="258.81 177.38 304.52 150.82 347.41 175.58 301.7 202.14 258.81 177.38"/></clipPath></defs><path class="cls-2" d="M534.71,332.93V292.24L531,290.15c-1.06,6.41-8.6,10.62-14.9,11.5l-42.91,25.09-18.72,6.76-59.77-30.84,1.38-.8c-5.11-2.38-7.86-7.84-10.62-12.82l-4,2.4-2.4.67v41h0c0,2.65,1.75,5.31,5.25,7.34l59.88,34.57c7,4.05,18.42,4.05,25.43,0l59.88-34.57c3.45-2,5.2-4.6,5.26-7.21,0-.12,0-.24,0-.35Z"/><path class="cls-3" d="M303,266.61A22.25,22.25,0,0,1,292.14,264L232.36,229.5c-2.81-1.61-4.37-3.77-4.37-6.06s1.56-4.43,4.37-6.07l59.78-34.5c6-3.46,15.69-3.45,21.67,0l59.78,34.5c2.83,1.64,4.38,3.8,4.38,6.07s-1.55,4.44-4.38,6.06L313.81,264A22.15,22.15,0,0,1,303,266.61Z"/><g class="cls-4"><path class="cls-5" d="M380.69,210.2V189.73l-3.75-2.08c-1.06,6.39-8.58,10.6-14.87,11.48l-42.82,25-18.69,6.75L240.9,200.13l1.38-.79c-5.1-2.38-7.85-7.83-10.61-12.8l-4,2.39-2.39.67v20.82h0c0,2.65,1.75,5.3,5.25,7.32l59.77,34.51c7,4,18.38,4,25.38,0l59.77-34.51c3.44-2,5.19-4.58,5.25-7.19,0-.12,0-.24,0-.35Z"/><path class="cls-6" d="M303,255.85a26.42,26.42,0,0,1-13-3.1l-59.76-34.51c-3.57-2.07-5.54-4.84-5.54-7.82V189.17l2.73-.76,4.46-2.66.81,1.47c2.56,4.64,5.21,9.45,9.82,11.6l1,.47-1.42.82L300.6,230.3l18.45-6.66,42.87-25.07H362c6.23-.86,13.39-5,14.38-11l.13-.8,4.75,2.64v21.07c-.06,3-2,5.74-5.53,7.77L316,252.75A26.42,26.42,0,0,1,303,255.85Zm-77.53-66.11v20.68c0,2.7,1.83,5.25,5.16,7.16l59.77,34.51a27.88,27.88,0,0,0,25.2,0l59.77-34.5c3.27-1.89,5.1-4.39,5.15-7.05v-20.7l-3.43-1.91c-1.2,6.18-8.51,10.45-14.91,11.37l-42.8,25-18.83,6.81-60-31,1.37-.79c-4.64-2.31-7.29-7.12-9.85-11.77l-.44-.79-3.92,2.32Z"/></g><path class="cls-5" d="M380.69,192V178.47l-3.75-2.09c-1.06,6.39-8.58,10.6-14.87,11.48l-42.82,25-18.69,6.75L240.9,188.87l1.38-.8c-5.1-2.38-7.85-7.83-10.61-12.8l-4,2.4-2.39.67v13.88h0c0,2.66,1.75,5.31,5.25,7.33l59.77,34.51c7,4,18.38,4,25.38,0l59.77-34.51c3.44-2,5.19-4.59,5.25-7.2,0-.11,0-.23,0-.35Z"/><path class="cls-5" d="M303,237.28a26.23,26.23,0,0,1-12.79-3.05l-59.77-34.51c-3.44-2-5.34-4.65-5.34-7.5v-14l2.5-.7,4.17-2.49.62,1.13c2.59,4.7,5.27,9.56,10,11.76l.33.16-1.39.81,59.27,30.58,18.61-6.72,42.87-25.05c6.36-.89,13.68-5.16,14.7-11.32l.05-.27,4.08,2.27v14c-.06,2.79-2,5.4-5.35,7.36l-59.76,34.51A26.23,26.23,0,0,1,303,237.28Z"/><path class="cls-7" d="M303,237.65a26.42,26.42,0,0,1-13-3.1L230.24,200c-3.57-2.06-5.54-4.83-5.54-7.82v-14a.36.36,0,0,1,.28-.36l2.45-.69,4.12-2.46a.38.38,0,0,1,.29,0,.38.38,0,0,1,.23.18l.63,1.13c2.56,4.65,5.21,9.45,9.82,11.6l.33.16a.39.39,0,0,1,.22.33.38.38,0,0,1-.19.34l-.8.46L300.6,219l18.45-6.66,42.81-25a.33.33,0,0,1,.14,0c6.23-.87,13.39-5,14.38-11l.05-.27a.37.37,0,0,1,.2-.28.39.39,0,0,1,.35,0l4.08,2.27a.4.4,0,0,1,.2.33v13.93c-.06,3-2,5.74-5.53,7.76L316,234.55A26.42,26.42,0,0,1,303,237.65Zm-77.53-59.18v13.75c0,2.71,1.83,5.25,5.16,7.17l59.77,34.51a28,28,0,0,0,25.2,0l59.77-34.51c3.27-1.88,5.1-4.38,5.15-7V178.57l-3.43-1.9c-1.2,6.18-8.51,10.44-14.91,11.36l-42.8,25-18.67,6.74a.39.39,0,0,1-.3,0l-59.27-30.59a.37.37,0,0,1-.2-.32.38.38,0,0,1,.18-.34l.78-.45c-4.64-2.31-7.28-7.12-9.85-11.77l-.44-.79-3.83,2.29-.09,0Z"/><path class="cls-5" d="M290.29,220.3l-59.77-34.51c-7-4-7-10.61,0-14.65l59.77-34.51c7-4,18.38-4,25.38,0l59.77,34.51c7,4,7,10.61,0,14.65L315.67,220.3C308.67,224.34,297.29,224.34,290.29,220.3Z"/><path class="cls-7" d="M303,223.52a26.23,26.23,0,0,1-12.79-3.05L230.42,186c-3.44-2-5.34-4.65-5.34-7.5s1.9-5.5,5.34-7.49l59.77-34.51c7.05-4.07,18.52-4.07,25.58,0L375.53,171c3.45,2,5.35,4.65,5.35,7.5S379,184,375.53,186l-59.76,34.51A26.23,26.23,0,0,1,303,223.52Zm0-89.73a25.74,25.74,0,0,0-12.6,3l-59.76,34.5c-3.33,1.92-5.16,4.46-5.16,7.16s1.83,5.25,5.16,7.17l59.76,34.5c6.95,4,18.25,4,25.2,0l59.76-34.5c3.32-1.92,5.15-4.46,5.15-7.16s-1.83-5.25-5.15-7.16L315.57,136.8A25.68,25.68,0,0,0,303,133.79Z"/><path class="cls-5" d="M290.29,220.3l-59.77-34.51c-7-4-7-10.61,0-14.65l59.77-34.51c7-4,18.38-4,25.38,0l59.77,34.51c7,4,7,10.61,0,14.65L315.67,220.3C308.67,224.34,297.29,224.34,290.29,220.3Z"/><path class="cls-8" d="M303,223.52a26.23,26.23,0,0,1-12.79-3.05L230.42,186c-3.44-2-5.34-4.65-5.34-7.5s1.9-5.5,5.34-7.49l59.77-34.51c7.05-4.07,18.52-4.07,25.58,0L375.53,171c3.45,2,5.35,4.65,5.35,7.5S379,184,375.53,186l-59.76,34.51A26.23,26.23,0,0,1,303,223.52Z"/><path class="cls-7" d="M303,223.9a26.43,26.43,0,0,1-13-3.11l-59.76-34.5c-3.57-2.06-5.54-4.84-5.54-7.83s2-5.75,5.54-7.82L290,136.14c7.16-4.13,18.8-4.13,25.95,0l59.77,34.51c3.57,2.06,5.54,4.83,5.53,7.82s-2,5.76-5.53,7.82L316,220.79A26.43,26.43,0,0,1,303,223.9Zm0-90.12a25.72,25.72,0,0,0-12.6,3l-59.77,34.5c-3.33,1.92-5.16,4.47-5.16,7.17s1.83,5.25,5.16,7.17l59.77,34.51a27.88,27.88,0,0,0,25.2,0l59.77-34.5c3.32-1.92,5.15-4.47,5.15-7.17s-1.83-5.25-5.15-7.17l-59.77-34.51A25.74,25.74,0,0,0,303,133.78Z"/><polygon class="cls-8" points="369.63 234.79 369.63 238.5 366.45 240.53 365.42 237.23 369.63 234.79"/><polygon class="cls-5" points="382.38 247.02 375.97 250.83 358.92 240.85 354.36 243.52 354.36 234.4 369.62 234.73 365.41 237.18 382.38 247.02"/><path class="cls-7" d="M355.11,235.16l11.83.26L365,236.53l-1.11.65,1.11.64L380.9,247,376,250,359.3,240.2l-.38-.22-.38.22-3.43,2v-7.05m-.75-.77v9.13l4.56-2.67,17.05,10,6.42-3.81-17-9.84,4.21-2.45-15.26-.34Z"/><polygon class="cls-8" points="354.36 243.52 354.36 247.11 358.92 244.56 358.92 240.85 354.36 243.52"/><polygon class="cls-8" points="375.97 250.83 375.97 254.54 358.92 244.56 358.92 240.85 375.97 250.83"/><polygon class="cls-8" points="382.38 250.73 375.97 254.54 375.97 250.83 382.38 247.02 382.38 250.73"/><path class="cls-8" d="M369.6,242.58l-4.43.81v.92h0v.05l-.49,26.52c0,.71.54,1.47,1.67,2.06a8.35,8.35,0,0,0,2.86.79l.73.06h.27a6.84,6.84,0,0,0,.79-.05l.32,0v0a4.7,4.7,0,0,0,1.52-.52l22-12.74a1.82,1.82,0,0,0,1.05-1.54V232.34Z"/><path class="cls-7" d="M369.92,274.17a6.48,6.48,0,0,1-.77-.07,9.06,9.06,0,0,1-3-.82c-1.23-.65-1.91-1.53-1.87-2.42l.51-27.78,4.69-.86,26.72-10.43V258.9a2.23,2.23,0,0,1-1.28,1.88L373,273.5a4.4,4.4,0,0,1-1.34.5v0l-.33.07H371a7.26,7.26,0,0,1-.83.05Zm-4.38-30.46-.5,27.18c0,.58.52,1.22,1.46,1.72a8.39,8.39,0,0,0,2.73.75l.71.06h.25a6.28,6.28,0,0,0,.75,0l.17,0h0l.11,0a4.18,4.18,0,0,0,1.4-.48l22-12.73a1.49,1.49,0,0,0,.87-1.25v-26L369.66,243Z"/><path id="Path" class="cls-8" d="M372.82,245.83l21.95-12.44c1.57-.9,1.38-2.46-.44-3.52h0a7,7,0,0,0-6.17-.24l-21.94,12.44c-1.58.9-1.38,2.46.44,3.51h0A7,7,0,0,0,372.82,245.83Z"/><path class="cls-7" d="M370.13,246.82a7.6,7.6,0,0,1-3.65-.91,2.89,2.89,0,0,1-1.7-2.32,2.18,2.18,0,0,1,1.25-1.85l22-12.44a7.26,7.26,0,0,1,6.53.25,2.89,2.89,0,0,1,1.7,2.32,2.17,2.17,0,0,1-1.25,1.84L373,246.15A5.87,5.87,0,0,1,370.13,246.82Zm20.72-17.43a5.13,5.13,0,0,0-2.5.57l-22,12.44a1.47,1.47,0,0,0-.87,1.19c0,.58.48,1.18,1.32,1.67a6.55,6.55,0,0,0,5.79.24h0l21.95-12.44a1.5,1.5,0,0,0,.87-1.19c0-.58-.48-1.19-1.32-1.67A6.91,6.91,0,0,0,390.85,229.39Z"/><path id="Path-2" data-name="Path" class="cls-8" d="M369.58,244.78a1.93,1.93,0,0,0,1.94-1.91v-11.8a14.36,14.36,0,0,1,6.55-11.13L383.2,217c1.36-.77,2.59-1,3.38-.52s1.23,1.58,1.23,3.13v11.8a1.94,1.94,0,0,0,3.88,0v-11.8c0-3-1.12-5.27-3.17-6.43s-4.63-1-7.26.52l-5.13,2.92c-4.76,2.7-8.49,9-8.49,14.44v11.8a1.93,1.93,0,0,0,1.94,1.91Z"/><path class="cls-7" d="M369.58,245.15a2.29,2.29,0,0,1-2.31-2.28v-11.8c0-5.52,3.81-12,8.68-14.77l5.12-2.92c2.75-1.56,5.46-1.74,7.63-.52s3.36,3.63,3.36,6.76v11.8a2.32,2.32,0,0,1-4.63,0v-11.8c0-1.4-.38-2.43-1-2.8s-1.77-.18-3,.51l-5.12,2.93a14,14,0,0,0-6.36,10.81v11.8A2.3,2.3,0,0,1,369.58,245.15Zm16-32.34a8.5,8.5,0,0,0-4.15,1.22L376.32,217c-4.66,2.65-8.3,8.85-8.3,14.12v11.8a1.57,1.57,0,0,0,3.13,0v-11.8a14.77,14.77,0,0,1,6.74-11.46l5.12-2.93c1.51-.85,2.84-1,3.75-.51s1.42,1.77,1.42,3.45v11.8a1.57,1.57,0,0,0,3.13,0v-11.8c0-2.85-1.06-5-3-6.1A5.51,5.51,0,0,0,385.59,212.81Z"/><polygon class="cls-8" points="397.57 264.53 397.57 268.24 380.53 258.25 380.53 254.54 397.57 264.53"/><polygon class="cls-5" points="380.53 254.47 387.02 250.8 403.75 260.5 406.63 258.88 406.63 266.46 393.1 266.46 397.14 264.2 380.53 254.47"/><path class="cls-7" d="M387,251.66l16.36,9.49.37.21.37-.21,1.77-1v5.55H396l1.53-.85,1.14-.64-1.13-.66L382,254.48l5-2.82m0-.86-6.49,3.67,16.61,9.73-4,2.26h13.53v-7.58l-2.88,1.62L387,250.8Z"/><rect class="cls-8" x="393.1" y="266.46" width="13.53" height="3.74"/><g class="cls-4"><path class="cls-5" d="M534.23,319.91V299.44l-3.75-2.08c-1.05,6.39-8.58,10.6-14.87,11.47l-42.82,25.05-18.69,6.75-59.66-30.79,1.38-.79c-5.1-2.39-7.85-7.83-10.61-12.81l-4,2.4-2.39.67v20.81h0c0,2.66,1.75,5.31,5.25,7.33L443.83,362c7,4,18.38,4,25.38,0L529,327.45c3.44-2,5.19-4.59,5.25-7.2,0-.11,0-.23,0-.35Z"/></g><path class="cls-5" d="M534.23,301.71V288.17l-3.75-2.08c-1.05,6.39-8.58,10.6-14.87,11.48l-42.82,25-18.69,6.75-59.66-30.79,1.38-.79c-5.1-2.38-7.85-7.83-10.61-12.8l-4,2.39-2.39.67v13.89h0c0,2.65,1.75,5.31,5.25,7.33l59.77,34.51c7,4,18.38,4,25.38,0L529,309.26c3.44-2,5.19-4.59,5.25-7.2,0-.12,0-.23,0-.35Z"/><path class="cls-5" d="M456.52,347a26.13,26.13,0,0,1-12.79-3.06L384,309.43c-3.44-2-5.34-4.66-5.34-7.5v-14l2.5-.71,4.17-2.48.62,1.13c2.59,4.7,5.27,9.56,10,11.76l.34.16-1.4.8,59.27,30.59,18.61-6.72,42.87-25.05c6.36-.89,13.68-5.16,14.7-11.32l.05-.27,4.08,2.27v14c-.06,2.79-2,5.4-5.34,7.36l-59.77,34.5A26.13,26.13,0,0,1,456.52,347Z"/><path class="cls-7" d="M456.52,347.36a26.36,26.36,0,0,1-13-3.1l-59.77-34.51c-3.57-2.06-5.54-4.84-5.54-7.82v-14a.36.36,0,0,1,.28-.36l2.45-.69,4.12-2.46a.34.34,0,0,1,.29,0,.36.36,0,0,1,.24.18l.62,1.13c2.56,4.65,5.21,9.45,9.82,11.6l.34.16a.38.38,0,0,1,.21.32.37.37,0,0,1-.19.34l-.8.47,58.52,30.19,18.45-6.66,42.81-25,.14-.05c6.23-.86,13.39-5,14.38-11l.05-.27a.37.37,0,0,1,.2-.28.39.39,0,0,1,.35,0l4.08,2.27a.38.38,0,0,1,.2.33V302c-.07,3-2,5.75-5.54,7.77L469.5,344.26A26.42,26.42,0,0,1,456.52,347.36ZM379,288.18v13.75c0,2.7,1.84,5.25,5.16,7.17l59.77,34.51a28,28,0,0,0,25.2,0l59.77-34.51c3.27-1.89,5.1-4.39,5.15-7V288.28l-3.43-1.91c-1.2,6.18-8.51,10.45-14.91,11.37l-42.8,25-18.67,6.75a.35.35,0,0,1-.3,0L394.67,298.9a.38.38,0,0,1-.2-.33.38.38,0,0,1,.18-.33l.78-.45c-4.63-2.31-7.28-7.12-9.85-11.77l-.43-.79-3.84,2.29-.09,0Z"/><path class="cls-5" d="M443.83,330,384.06,295.5c-7-4-7-10.61,0-14.66l59.77-34.5c7-4,18.38-4,25.38,0L529,280.85c7,4,7,10.61,0,14.65L469.21,330C462.21,334.05,450.83,334.05,443.83,330Z"/><path class="cls-7" d="M456.52,333.23a26.23,26.23,0,0,1-12.79-3.05L384,295.67c-3.44-2-5.34-4.65-5.34-7.5s1.9-5.5,5.34-7.49l59.77-34.51c7-4.07,18.53-4.07,25.58,0l59.77,34.51c3.44,2,5.34,4.65,5.34,7.49s-1.9,5.51-5.34,7.5l-59.77,34.51A26.23,26.23,0,0,1,456.52,333.23Zm0-89.73a25.74,25.74,0,0,0-12.6,3L384.16,281c-3.33,1.92-5.16,4.46-5.16,7.16s1.83,5.24,5.16,7.16l59.77,34.51c6.94,4,18.24,4,25.19,0l59.76-34.51c3.33-1.91,5.16-4.46,5.16-7.16s-1.83-5.24-5.16-7.16l-59.77-34.5A25.68,25.68,0,0,0,456.52,243.5Z"/><path class="cls-5" d="M443.83,330,384.06,295.5c-7-4-7-10.61,0-14.66l59.77-34.5c7-4,18.38-4,25.38,0L529,280.85c7,4,7,10.61,0,14.65L469.21,330C462.21,334.05,450.83,334.05,443.83,330Z"/><path class="cls-8" d="M456.52,333.23a26.23,26.23,0,0,1-12.79-3.05L384,295.67c-3.44-2-5.34-4.65-5.34-7.5s1.9-5.5,5.34-7.49l59.77-34.51c7-4.07,18.53-4.07,25.58,0l59.77,34.51c3.44,2,5.34,4.65,5.34,7.49s-1.9,5.51-5.34,7.5l-59.77,34.51A26.23,26.23,0,0,1,456.52,333.23Z"/><path class="cls-7" d="M456.52,333.6a26.36,26.36,0,0,1-13-3.1L383.78,296c-3.57-2.06-5.54-4.83-5.54-7.82s2-5.76,5.54-7.82l59.76-34.5c7.16-4.13,18.8-4.13,25.95,0l59.77,34.5c3.57,2.06,5.54,4.84,5.54,7.82s-2,5.76-5.54,7.82L469.5,330.5A26.42,26.42,0,0,1,456.52,333.6Zm0-90.11a25.72,25.72,0,0,0-12.6,3L384.15,281c-3.32,1.92-5.16,4.47-5.16,7.17s1.84,5.25,5.16,7.17l59.77,34.51a28,28,0,0,0,25.2,0l59.77-34.51c3.32-1.92,5.16-4.46,5.16-7.17s-1.84-5.25-5.16-7.17l-59.77-34.5A25.72,25.72,0,0,0,456.52,243.49Z"/><polygon class="cls-8" points="236.03 239.12 236.03 242.82 239.2 244.86 240.23 241.56 236.03 239.12"/><polygon class="cls-5" points="223.27 251.35 229.69 255.16 246.73 245.18 251.3 247.85 251.3 238.72 236.03 239.06 240.24 241.5 223.27 251.35"/><path class="cls-7" d="M250.55,239.49v7l-3.44-2-.38-.22-.38.22-16.66,9.76-4.94-2.93,15.87-9.21,1.12-.64-1.12-.65-1.9-1.11,11.83-.26m.75-.77-15.26.34,4.2,2.45-17,9.84,6.42,3.81,17-10,4.57,2.67v-9.13Z"/><polygon class="cls-8" points="251.3 247.85 251.3 251.44 246.73 248.89 246.73 245.18 251.3 247.85"/><polygon class="cls-8" points="229.69 255.16 229.69 258.87 246.73 248.89 246.73 245.18 229.69 255.16"/><polygon class="cls-8" points="223.27 255.06 229.69 258.87 229.69 255.16 223.27 251.35 223.27 255.06"/><path class="cls-8" d="M240.5,248.69v-.05h0l0-.92-4.42-.81-26.24-10.24v26.56a1.84,1.84,0,0,0,1.06,1.54l22,12.74a4.53,4.53,0,0,0,1.53.51v0l.31,0c.26,0,.52,0,.8.05h.26c.24,0,.49,0,.73-.06a8.63,8.63,0,0,0,2.87-.79c1.13-.59,1.69-1.35,1.66-2.06Z"/><path class="cls-7" d="M235.74,278.5h-.19a8.28,8.28,0,0,1-.93-.05h-.31l-.33-.09a4.61,4.61,0,0,1-1.34-.5l-21.95-12.74a2.17,2.17,0,0,1-1.24-1.83V236.12l26.75,10.44,4.66.85.52,27.79c0,.88-.64,1.76-1.87,2.4a8.82,8.82,0,0,1-3,.83C236.25,278.46,236,278.49,235.74,278.5Zm-1.14-.81h.11a6.33,6.33,0,0,0,.76.05h.25q.34,0,.69-.06a8.33,8.33,0,0,0,2.76-.76c.93-.49,1.47-1.13,1.45-1.71L240.11,248l-4.12-.76-25.8-10.06v26a1.47,1.47,0,0,0,.85,1.2l22,12.75a4.18,4.18,0,0,0,1.4.48Z"/><path id="Path-3" data-name="Path" class="cls-8" d="M232.83,250.16l-22-12.44c-1.57-.9-1.38-2.46.45-3.52h0a7,7,0,0,1,6.16-.24l21.94,12.44c1.59.9,1.38,2.46-.44,3.51h0A7,7,0,0,1,232.83,250.16Z"/><path class="cls-7" d="M235.52,251.14a5.82,5.82,0,0,1-2.87-.66L210.7,238a2.18,2.18,0,0,1-1.26-1.84,2.89,2.89,0,0,1,1.7-2.32,7.28,7.28,0,0,1,6.54-.25l21.94,12.44a2.2,2.2,0,0,1,1.26,1.85,2.89,2.89,0,0,1-1.7,2.32A7.6,7.6,0,0,1,235.52,251.14Zm-20.71-17.42a7,7,0,0,0-3.3.81c-.84.48-1.32,1.09-1.32,1.67a1.51,1.51,0,0,0,.88,1.19l22,12.44a6.52,6.52,0,0,0,5.79-.25c.84-.48,1.32-1.09,1.32-1.66a1.51,1.51,0,0,0-.88-1.2l-21.94-12.44A5.27,5.27,0,0,0,214.81,233.72Z"/><path id="Path-4" data-name="Path" class="cls-8" d="M236.07,249.11a1.93,1.93,0,0,1-1.94-1.91V235.4a14.34,14.34,0,0,0-6.55-11.13l-5.12-2.93c-1.37-.77-2.6-1-3.38-.52s-1.23,1.58-1.23,3.13v11.8a1.94,1.94,0,0,1-3.88,0V224c0-3,1.12-5.27,3.17-6.43s4.62-1,7.26.52l5.12,2.92c4.76,2.7,8.49,9,8.49,14.44v11.8a1.93,1.93,0,0,1-1.94,1.91Z"/><path class="cls-7" d="M236.07,249.48a2.29,2.29,0,0,1-2.31-2.28V235.4a14,14,0,0,0-6.36-10.81l-5.13-2.93c-1.23-.69-2.35-.89-3-.51s-1,1.39-1,2.8v11.8a2.32,2.32,0,0,1-4.63,0V224c0-3.13,1.19-5.53,3.36-6.76s4.88-1,7.63.52l5.13,2.92c4.87,2.77,8.68,9.25,8.68,14.77v11.8A2.3,2.3,0,0,1,236.07,249.48Zm-16-29.27a5.41,5.41,0,0,1,2.58.8l5.13,2.93c3.65,2.06,6.74,7.31,6.74,11.46v11.8a1.57,1.57,0,0,0,3.13,0V235.4c0-5.27-3.65-11.47-8.3-14.12l-5.13-2.92c-2.51-1.42-5-1.61-6.89-.51s-3,3.25-3,6.1v11.8a1.57,1.57,0,0,0,3.13,0V224c0-1.68.52-2.94,1.42-3.46A2.44,2.44,0,0,1,220.06,220.21Z"/><polygon class="cls-8" points="208.08 268.86 208.08 272.56 225.13 262.58 225.13 258.87 208.08 268.86"/><polygon class="cls-5" points="225.13 258.8 218.64 255.13 201.91 264.83 199.02 263.21 199.02 270.79 212.55 270.79 208.51 268.53 225.13 258.8"/><path class="cls-7" d="M218.64,256l5,2.82-15.49,9.07-1.12.67,1.14.64,1.53.85h-9.91v-5.55l1.77,1,.37.21.37-.21L218.64,256m0-.86-16.73,9.7L199,263.21v7.58h13.53l-4-2.26,16.62-9.73-6.49-3.67Z"/><rect class="cls-8" x="199.02" y="270.79" width="13.53" height="3.74"/><polygon class="cls-9" points="296.41 365.87 297.61 365.31 299.24 384.38 236.81 422.31 218.41 422.31 216.72 416.66 205.88 397.02 180.6 382.23 173.37 394.2 176.19 400.52 79.23 345.21 75.73 345.21 56.88 314.05 31.25 298.81 26.4 307.17 25.84 314.05 9.69 301.41 9.36 296.78 11.16 294.86 26.17 304.91 33.17 293.4 62.41 310.67 76.18 337.08 78.89 341.71 172.24 394.76 182.29 377.49 209.04 393.52 219.99 414.29 237.26 414.29 295.28 379.75 296.41 365.87"/><polyline class="cls-10" points="176.19 400.52 200.58 393.97 172.69 373.99 164.68 387.76 176.19 400.52"/><polyline class="cls-11" points="25.84 314.05 31.25 310.67 38.37 312.92 51.23 315.3 50.56 307.17 29.9 294.52 24.14 294.52 25.84 314.05"/><path class="cls-12" d="M202.83,437.88l15.24-6.32s5-9.25,1.81-18.4-24.38-28.78-24.38-28.78l-8.58,6.88-6.44,3.84Z"/><ellipse class="cls-9" cx="192.91" cy="416.1" rx="13.77" ry="24.38" transform="translate(-191.5 165.94) rotate(-32.07)"/><ellipse class="cls-8" cx="192.91" cy="416.1" rx="5.64" ry="9.93" transform="translate(-191.5 165.94) rotate(-32.07)"/><path class="cls-8" d="M200.8,432a1.92,1.92,0,0,1-1.47-.79l-18.17-31a1.72,1.72,0,1,1,2.94-1.8l18.17,31a1.81,1.81,0,0,1-.56,2.37A2.22,2.22,0,0,1,200.8,432Z"/><path class="cls-8" d="M184.43,422.19a1.6,1.6,0,0,1-1.46-.9,1.68,1.68,0,0,1,.67-2.26l18-9.37a1.67,1.67,0,1,1,1.58,2.94L185.22,422A1.64,1.64,0,0,1,184.43,422.19Z"/><path class="cls-12" d="M54.17,355.82l15.24-6.32s5-9.26,1.8-18.4-24.38-28.79-24.38-28.79l-8.69,6.89L31.71,313Z"/><ellipse class="cls-9" cx="44.14" cy="334.05" rx="13.77" ry="24.38" transform="translate(-170.64 74.42) rotate(-32.07)"/><ellipse class="cls-8" cx="44.14" cy="334.05" rx="5.64" ry="9.93" transform="translate(-170.64 74.42) rotate(-32.07)"/><path class="cls-8" d="M52.14,350a1.93,1.93,0,0,1-1.47-.79l-18.17-31a1.72,1.72,0,0,1,2.93-1.81l18.17,31a1.79,1.79,0,0,1-.56,2.37A3.29,3.29,0,0,1,52.14,350Z"/><path class="cls-8" d="M35.77,340.13a1.63,1.63,0,0,1-1.47-.9A1.69,1.69,0,0,1,35,337l18-9.37a1.66,1.66,0,0,1,1.58,2.93L36.56,339.9A2.73,2.73,0,0,1,35.77,340.13Z"/><polygon class="cls-8" points="151.59 250.73 81.94 218.44 5.29 264.5 219.54 395.89 239.18 395.89 293.82 362.48 297.2 348.6 197.3 272.63 151.59 250.73"/><polygon class="cls-8" points="219.54 395.89 220.35 416.66 209.27 397.02 187.37 383.25 181.39 380.88 172.36 395.89 77.87 342.84 61.39 312.92 33.4 295.65 26.29 306.04 11.72 297.91 5.29 264.5 219.54 395.89"/><polygon class="cls-8" points="297.2 348.6 297.54 365.87 296.64 380.88 237.38 415.42 220.22 416.66 219.54 395.89 239.18 395.89 293.82 362.48 297.2 348.6"/><polygon class="cls-13" points="268.98 329.07 196.74 371.74 136.12 310.67 197.3 272.63 268.98 329.07"/><polygon class="cls-14" points="197.3 272.63 150.46 250.73 82.61 292.15 136.12 310.67 197.3 272.63"/><polyline class="cls-5" points="143.46 250.73 82.28 288.77 14.43 263.37 82.39 223.07 142.33 250.73"/><polygon class="cls-15" points="296.3 353.22 292.8 364.74 267.74 382.01 239.07 395.89 219.54 397.02 219.77 399.28 239.18 398.15 269.1 384.38 294.04 365.87 296.53 355.59 296.3 353.22"/><polygon class="cls-16" points="193.47 373.99 135.22 314.05 81.83 295.65 81.37 303.67 193.47 373.99"/><polygon class="cls-8" points="135.67 314.05 129.24 333.69 123.93 330.42 130.7 312.59 135.67 314.05"/><polygon class="cls-17" points="237.26 414.29 239.29 398.15 219.88 399.28 212.09 399.28 219.99 414.29 237.26 414.29"/><path class="cls-12" d="M200.24,464.52c-.12-.11-.12-.22-.23-.33h0l-34.2-59.49L144,417.23l34.32,59.49h0c0,.11.11.22.11.33,1.92,3.39,8.47,3.39,14.45-.11S202.27,467.91,200.24,464.52Z"/><ellipse class="cls-12" cx="154.76" cy="410.79" rx="12.53" ry="7.11" transform="translate(-184.67 132.42) rotate(-30)"/><path class="cls-18" d="M151.13,404.58c6-3.5,12.42-3.5,14.45-.11s-1.24,9-7.33,12.42-12.42,3.5-14.45.11S145.15,408.08,151.13,404.58Z"/><path class="cls-12" d="M155.76,412.26l-.22.11a5.67,5.67,0,0,1-7.57-2L136.69,390.7a5.65,5.65,0,0,1,2-7.56l.22-.12a5.68,5.68,0,0,1,7.57,2l11.28,19.64A5.46,5.46,0,0,1,155.76,412.26Z"/><path class="cls-12" d="M165.24,337.19c-2.14-15.24-7.9-30.7-15.91-44.47-12.64-22-31-39.85-50-46.62-9.48-3.39-17.83-3.5-24.95-.9h0a26.19,26.19,0,0,0-5.87,2.93l-13,6.55v1L58,260.32c-4.74,9.37,32.73-12.3,34.88,2.94,1.46,10.61,29.69,23.93,34.09,34.09,8.92-8.58,14.67,41.2,22.46,55.65,2.71.9-24.72,37.47-22.24,37.93l3,5.75,13.21-6.54a29.05,29.05,0,0,0,7.45-3.73h0C162.76,378.17,168.52,360.56,165.24,337.19Z"/><path class="cls-16" d="M50,335.73a118.23,118.23,0,0,1-9.25-31.5c-5.54-39.39,14.9-62.53,45.6-51.58,18.85,6.66,37.25,24.6,50,46.62,8,13.88,13.77,29.23,15.91,44.47,5.53,39.4-14.9,62.54-45.6,51.59C84.08,387.43,62.3,363.38,50,335.73Z"/><path class="cls-12" d="M138.15,380.31c-7.33,7.45-18.28,9.71-31.27,5.08-19.86-7-39.17-28.22-50-52.71a104,104,0,0,1-8.13-27.77c-3.61-25.06,4.74-42.67,19.87-47-8,8.13-11.74,22.35-9.15,40.53a107.26,107.26,0,0,0,8.13,27.76c10.84,24.5,30.14,45.72,50,52.72C125.4,381.67,132.28,382,138.15,380.31Z"/><path class="cls-5" d="M71.89,249.94v11.4a32.34,32.34,0,0,1,10.72,2c15.7,5.53,32.06,21.11,43.92,41.54A114.63,114.63,0,0,1,141,345.32c2.15,15.35-.11,28.22-6.32,35.45a17.13,17.13,0,0,1-13.54,6,32.65,32.65,0,0,1-10.73-2c-9.14-3.28-18.73-9.94-27.65-19.42a123,123,0,0,1-22.35-34A103.07,103.07,0,0,1,52,302.88c-2.14-15.35.12-28.22,6.33-35.45a17.13,17.13,0,0,1,13.54-6V249.94m0,0c-22.35,0-35.78,21.56-31.15,54.29A118.23,118.23,0,0,0,50,335.73c12.31,27.65,34.09,51.58,56.56,59.6A44.59,44.59,0,0,0,121.11,398c22.35,0,35.78-21.56,31.15-54.3-2.14-15.24-7.9-30.7-15.91-44.47-12.65-22-31-39.85-50-46.62a43.22,43.22,0,0,0-14.45-2.71Z"/><path class="cls-19" d="M61.17,331.78a117.49,117.49,0,0,1-8.36-26.64c-5.75-33.08,9.15-51.59,33.3-41.32,14.9,6.32,29.81,22,40.42,40.86,6.66,11.86,11.74,24.95,14,37.82,5.87,33.07-9.14,51.59-33.3,41.31C89.5,376.25,71.78,355.48,61.17,331.78Z"/><path class="cls-20" d="M71.89,249.94v11.4a32.34,32.34,0,0,1,10.72,2c15.7,5.53,32.06,21.11,43.92,41.54A114.63,114.63,0,0,1,141,345.32c2.15,15.35-.11,28.22-6.32,35.45a17.13,17.13,0,0,1-13.54,6,32.65,32.65,0,0,1-10.73-2c-9.14-3.28-18.73-9.94-27.65-19.42a123,123,0,0,1-22.35-34A103.07,103.07,0,0,1,52,302.88c-2.14-15.35.12-28.22,6.33-35.45a17.13,17.13,0,0,1,13.54-6V249.94m0,0c-22.35,0-35.78,21.56-31.15,54.29A118.23,118.23,0,0,0,50,335.73c12.31,27.65,34.09,51.58,56.56,59.6A44.59,44.59,0,0,0,121.11,398c22.35,0,35.78-21.56,31.15-54.3-2.14-15.24-7.9-30.7-15.91-44.47-12.65-22-31-39.85-50-46.62a43.22,43.22,0,0,0-14.45-2.71Z"/><path class="cls-7" d="M137.36,351.76a1.85,1.85,0,0,1-1-.34l-20.89-14.79a1.62,1.62,0,0,1-.67-1l-4-16.14L97,341a1.66,1.66,0,0,1-1.69.79,1.56,1.56,0,0,1-1.36-1.24L81.49,292.72,70,308.18a1.64,1.64,0,0,1-2.37.34l-11.29-8a1.71,1.71,0,0,1,1.92-2.82l9.94,7,12.75-16.93a1.62,1.62,0,0,1,1.69-.68A1.72,1.72,0,0,1,84,288.32L96.27,336l13.89-21.56a1.69,1.69,0,0,1,1.69-.79,1.58,1.58,0,0,1,1.36,1.24l4.62,19.42,20.44,14.45a1.77,1.77,0,0,1,.45,2.37A1.49,1.49,0,0,1,137.36,351.76Z"/><g id="PcmEKV.tif"><g class="cls-21"><g class="cls-22"><path class="cls-7" d="M445.09,300.74a.12.12,0,0,1-.06-.08c0-.07.12-.14.19-.21l.72-.23,10.14-3.1a5.29,5.29,0,0,1,3.49.06c3.37,1.25,6.76,2.47,10.14,3.7a3.53,3.53,0,0,1,.39.15c.07,0,.11.09.08.16s-.48.17-.76.16l-8.63-.18-14.58-.33a7.2,7.2,0,0,1-.81,0,.59.59,0,0,1-.31-.06m-5.14-1a1.71,1.71,0,0,1-.47-.37c-4.09-4.53-8.25-9-12.39-13.55-.58-.63-.32-1.17.76-1.5q6.3-1.94,12.64-3.84a2.62,2.62,0,0,1,2.1.12,2,2,0,0,1,.43.34l12.67,13.71c.5.55.39,1-.42,1.39l-.68.24c-4,1.22-8,2.41-12,3.65a3.28,3.28,0,0,1-2.6-.19m-11.49-17.14h0c-.19-.11,0-.25.12-.36l3.76-3.49,8.7-8,.1-.11c.16-.12.28-.33.58-.29a.54.54,0,0,1,.18.06c.16.09.09.26.08.39q-.2,3.5-.4,7c0,.48-.44.85-.94,1.18a5.66,5.66,0,0,1-1,.39l-10.32,3.15-.25.07c-.2.06-.44.15-.61.05m29,11.33-.06,0-.32-.32q-5.86-6.41-11.76-12.81-.93-1,1.05-1,12.49.25,25,.54a2.59,2.59,0,0,1,1.14.2c.31.17.25.46-.17.84l-13.15,12.26-.3.27a1.23,1.23,0,0,1-1.41,0m3,2.1c-.6-.35-.64-.78-.1-1.28q6.06-5.67,12.14-11.32l1.83-1.71a2.54,2.54,0,0,1,2.91-.41l7.42,2.7,4.47,1.62.46.17,0,0c.69.39.72.87.12,1.41-1,1-2.08,1.95-3.14,2.92l-10.88,10.14a2.33,2.33,0,0,1-2.6.36l-12.2-4.41a4.32,4.32,0,0,1-.47-.21m16.8-16.08c-.58-.41-1-.83-.95-1.35q.21-3.57.43-7.13c0-.14-.06-.33.23-.38a.49.49,0,0,1,.31,0,.92.92,0,0,1,.22.22l3.89,4.18c2.41,2.61,4.8,5.22,7.2,7.84.16.19.6.42.26.6s-.76-.06-1.1-.19l-10-3.65-.47-.18m-33.09-1.61a.91.91,0,0,1-.55-.91c.16-2.53.31-5,.47-7.57,0-.2,0-.4,0-.6,0-.75.69-1.1,2-1.08l7.6.16,19,.42a3.15,3.15,0,0,1,1.51.3.9.9,0,0,1,.47.92q-.22,4.1-.5,8.17c-.05.72-.71,1.07-2,1.05l-18.69-.41-8.07-.17a2.37,2.37,0,0,1-1.12-.22l-.05,0-.06,0m36.05-11.67-1.46-.84a2.3,2.3,0,0,1-.73-.19,8.64,8.64,0,0,0-2.48-.41l-31.83-.69a7.07,7.07,0,0,0-5.13,1.55q-9,8.38-18.06,16.79a2.08,2.08,0,0,0-.17,3.28l15,16.36a4.49,4.49,0,0,0,1.12.89,8.23,8.23,0,0,0,3.91.95c8.3.21,16.62.38,24.92.57,2.85.07,5.71.12,8.56.2a10.21,10.21,0,0,0,4.43-.75.37.37,0,0,1,.3-.05l.58-.34a26,26,0,0,1,2.06-2c5.05-4.71,10.13-9.42,15.18-14.14a2.14,2.14,0,0,0,.17-3.36l-16.34-17.73,0-.11"/></g></g></g><g id="Symbols"><g class="cls-21"><g class="cls-23"><path class="cls-15" d="M289.32,69.91c-.76-.44-1.38-.09-1.39.79a3.06,3.06,0,0,0,1.38,2.39c.77.44,1.39.09,1.39-.79a3,3,0,0,0-1.38-2.39"/><path class="cls-15" d="M289.3,88.21c-.77-.44-1.39-.09-1.39.79a3,3,0,0,0,1.38,2.4c.76.44,1.39.08,1.39-.8a3.06,3.06,0,0,0-1.38-2.39"/><path class="cls-15" d="M316.74,140.73c-.76-.44-1.38-.09-1.39.79a3.06,3.06,0,0,0,1.38,2.39c.77.44,1.39.09,1.39-.79a3,3,0,0,0-1.38-2.39"/><path class="cls-15" d="M275.49,89.41c-.77-.44-1.4-.09-1.4.79a3,3,0,0,0,1.39,2.39c.76.44,1.38.09,1.39-.79a3.06,3.06,0,0,0-1.38-2.39"/><path class="cls-15" d="M330.61,121.24c-.76-.45-1.39-.09-1.39.79a3.06,3.06,0,0,0,1.38,2.39c.77.44,1.39.09,1.39-.79a3,3,0,0,0-1.38-2.39"/><path class="cls-15" d="M316.9,85.83c-.76-.44-1.39-.09-1.39.79A3.06,3.06,0,0,0,316.89,89c.77.44,1.39.09,1.39-.79a3.06,3.06,0,0,0-1.38-2.39"/><path class="cls-15" d="M316.79,122.44c-.75-.44-1.38-.09-1.39.79a3.07,3.07,0,0,0,1.39,2.39c.76.44,1.38.09,1.39-.79a3,3,0,0,0-1.39-2.39"/><path class="cls-15" d="M289.25,106.5c-.77-.44-1.39-.09-1.39.79a3,3,0,0,0,1.38,2.4c.76.44,1.38.08,1.39-.8a3.06,3.06,0,0,0-1.38-2.39"/><path class="cls-15" d="M316.85,104.14c-.76-.44-1.39-.08-1.39.8a3,3,0,0,0,1.38,2.39c.76.44,1.39.08,1.39-.79a3.07,3.07,0,0,0-1.38-2.4"/><path class="cls-15" d="M303,123.61c-.76-.45-1.38-.09-1.39.8A3.07,3.07,0,0,0,303,126.8c.76.44,1.38.08,1.39-.8a3,3,0,0,0-1.39-2.39"/><path class="cls-15" d="M303.11,87c-.76-.44-1.38-.09-1.39.79a3.06,3.06,0,0,0,1.38,2.39c.76.44,1.39.09,1.39-.79A3,3,0,0,0,303.11,87"/><path class="cls-15" d="M289.17,124.81c-.76-.44-1.39-.09-1.39.79a3.06,3.06,0,0,0,1.38,2.39c.76.44,1.39.09,1.39-.79a3.06,3.06,0,0,0-1.38-2.39"/><path class="cls-7" d="M303.17,69.07c-3.71-2.15-7.45-2.91-10.58-1.85a8.49,8.49,0,0,0-2.71,1.55,6.39,6.39,0,0,1,1.78,2.49c2.93-2.46,7.19-2.16,11.49.32a29,29,0,0,1,9.25,9.13,32.42,32.42,0,0,1,2.19,3.79,1.29,1.29,0,0,1,1-.56,1.78,1.78,0,0,1,.87.16c-3.33-6.78-8.28-12.15-13.27-15"/><path class="cls-7" d="M314.36,84.94c-4.23-1.72-8.07-1.39-10.74,1a5.8,5.8,0,0,1,1.8,2.47c2.27-1.93,5.51-2.21,9.09-.81a3.78,3.78,0,0,1-.15-2.62"/><path class="cls-7" d="M291.89,72A3.83,3.83,0,0,1,292,73.1a2.19,2.19,0,0,1-.34,1.29,29,29,0,0,1,5,5,35.36,35.36,0,0,1,4,6.38,1.23,1.23,0,0,1,1-.55,1.8,1.8,0,0,1,.83.13A36.93,36.93,0,0,0,291.89,72"/><path class="cls-7" d="M319,90.64a1.58,1.58,0,0,1-.72.28,2.25,2.25,0,0,1-1.29-.36c1.3,4.67,1.27,9-.08,12.08a5.64,5.64,0,0,1,2,2.27c1.61-3.67,1.63-8.77.07-14.27"/><path class="cls-7" d="M305.67,89.08a3.1,3.1,0,0,1-.19,2.44,33,33,0,0,1,9.06,11.27,1.47,1.47,0,0,1,1.83-.39,37.74,37.74,0,0,0-10.7-13.32"/><path class="cls-7" d="M319.44,87.82a3.17,3.17,0,0,1-.19,2.45c.51.4,1,.78,1.48,1.22,7.89,7,12.53,19,10.4,26.82a11.42,11.42,0,0,1-.49,1.43A4.88,4.88,0,0,1,332,120.9a7.38,7.38,0,0,1,.71,1.1,14.57,14.57,0,0,0,.6-1.72c2.46-9-2.89-22.87-12-30.92-.62-.55-1.22-1-1.87-1.54"/><path class="cls-7" d="M319.39,106.14a3,3,0,0,1-.2,2.44,32.49,32.49,0,0,1,9.09,11.26,1.49,1.49,0,0,1,1.83-.38,41.3,41.3,0,0,0-4.75-7.47,33.21,33.21,0,0,0-6-5.85"/><path class="cls-7" d="M328.27,123.13c-2.3,1.92-5.56,2.19-9.14.76a4.15,4.15,0,0,1,.37,1.7,2.54,2.54,0,0,1-.17.94c4.25,1.77,8.09,1.4,10.76-.92a5.81,5.81,0,0,1-1.82-2.48"/><path class="cls-7" d="M318.89,108.94a1.82,1.82,0,0,1-2-.06c1.29,4.63,1.25,8.91,0,12.07a5.66,5.66,0,0,1,2,2.27c1.59-3.68,1.6-8.78,0-14.28"/><path class="cls-7" d="M318.87,127.25a1.81,1.81,0,0,1-2,0c1.29,4.6,1.27,8.9,0,12a5.79,5.79,0,0,1,2,2.28c1.6-3.68,1.59-8.78,0-14.28"/><path class="cls-7" d="M332.66,126a1.78,1.78,0,0,1-2-.07c.19.64.34,1.29.48,1.93,2.1,10.31-2.61,16.94-10.51,14.83a14.77,14.77,0,0,1-1.49-.52,3.75,3.75,0,0,1,.18,2.66,17.88,17.88,0,0,0,1.87.63c9.07,2.42,14.5-5.19,12.08-17-.16-.82-.36-1.63-.59-2.43"/><path class="cls-7" d="M314.48,124.31c-2.29,1.9-5.54,2.18-9.12.78a3.84,3.84,0,0,1,.16,2.62c4.25,1.73,8.09,1.39,10.78-.91a6.16,6.16,0,0,1-1.82-2.49"/><path class="cls-7" d="M305.31,128.11a1.31,1.31,0,0,1-1,.56,1.71,1.71,0,0,1-.83-.14,36.91,36.91,0,0,0,10.69,13.33,2.9,2.9,0,0,1,.2-2.41,29,29,0,0,1-5-4.95,34.37,34.37,0,0,1-4.05-6.39"/><path class="cls-7" d="M300.65,125.45a7.23,7.23,0,0,1-4.06,1.67,11.38,11.38,0,0,1-5-.84,3.84,3.84,0,0,1,.15,2.62c4.26,1.74,8.09,1.37,10.74-1a6,6,0,0,1-1.79-2.47"/><path class="cls-7" d="M314.43,142.58c-2.93,2.45-7.2,2.15-11.51-.34a28.87,28.87,0,0,1-9.24-9.11,34.75,34.75,0,0,1-2.18-3.79,1.3,1.3,0,0,1-1,.55,1.73,1.73,0,0,1-.85-.14c3.33,6.77,8.26,12.14,13.25,15,3.71,2.15,7.45,2.91,10.6,1.85a8.28,8.28,0,0,0,2.71-1.54,6.13,6.13,0,0,1-1.8-2.5"/><path class="cls-7" d="M287.18,109c-1.6,3.68-1.62,8.77-.06,14.27a1.34,1.34,0,0,1,.69-.29,2.25,2.25,0,0,1,1.29.35c-1.28-4.67-1.26-9,.09-12.11a4.71,4.71,0,0,1-1.32-1.15,6.3,6.3,0,0,1-.69-1.07"/><path class="cls-7" d="M291.55,111.05a1.5,1.5,0,0,1-1.83.38,37.7,37.7,0,0,0,10.72,13.36,3,3,0,0,1,.19-2.43,33.3,33.3,0,0,1-9.08-11.31"/><path class="cls-7" d="M286.76,69a13.86,13.86,0,0,0-1.85-.62c-9.08-2.45-14.49,5.19-12.1,17,.19.79.37,1.56.6,2.38a1.84,1.84,0,0,1,2,.08c-.18-.64-.35-1.29-.48-1.93-2.1-10.31,2.61-17,10.52-14.8.48.15,1,.3,1.48.51a3.72,3.72,0,0,1-.18-2.65"/><path class="cls-7" d="M277.78,94a1.49,1.49,0,0,1-1.8.39,40.22,40.22,0,0,0,4.74,7.48,33.52,33.52,0,0,0,6,5.84,3.21,3.21,0,0,1,.16-2.46A32.63,32.63,0,0,1,277.78,94"/><path class="cls-7" d="M273.39,91.82a12.11,12.11,0,0,0-.6,1.73c-2.46,9,2.87,22.82,11.94,30.87.63.55,1.24,1.07,1.87,1.53a3.07,3.07,0,0,1,.19-2.41c-.46-.37-1-.78-1.45-1.21-7.89-7-12.55-19-10.43-26.89a11.53,11.53,0,0,1,.49-1.37,4.88,4.88,0,0,1-1.32-1.16,7.18,7.18,0,0,1-.69-1.09"/><path class="cls-7" d="M287.26,72.36c-1.58,3.68-1.59,8.78,0,14.27a1.72,1.72,0,0,1,2,.05c-1.31-4.65-1.3-8.94,0-12.07a6.08,6.08,0,0,1-2-2.25"/><path class="cls-7" d="M286.75,87.33c-4.24-1.74-8.09-1.41-10.75.91a6.12,6.12,0,0,1,.85.84,6.35,6.35,0,0,1,.94,1.64c2.3-1.92,5.56-2.19,9.17-.75a4.34,4.34,0,0,1-.37-1.72,2.85,2.85,0,0,1,.16-.92"/><path class="cls-7" d="M300.57,86.1c-4.23-1.69-8.07-1.36-10.76,1a6.11,6.11,0,0,1,1.8,2.5c2.29-1.9,5.53-2.18,9.11-.78a3.92,3.92,0,0,1-.15-2.67"/><path class="cls-7" d="M287.23,90.61c-1.58,3.68-1.62,8.77-.06,14.27a1.77,1.77,0,0,1,2,.06c-1.25-4.64-1.24-8.94.06-12.07a5.59,5.59,0,0,1-2-2.26"/></g></g></g><g id="Symbols-2" data-name="Symbols"><g class="cls-21"><g class="cls-24"><path class="cls-5" d="M311.06,160.76a2.12,2.12,0,0,0-1.93,0c-.53.3-.53.81,0,1.12a2.16,2.16,0,0,0,1.92,0,.59.59,0,0,0,0-1.12"/><path class="cls-5" d="M300,167.18a2.13,2.13,0,0,0-1.92,0,.59.59,0,0,0,0,1.12,2.12,2.12,0,0,0,1.93,0c.54-.31.53-.81,0-1.12"/><path class="cls-5" d="M297.17,191.13a2.1,2.1,0,0,0-1.92,0,.59.59,0,0,0,0,1.12,2.15,2.15,0,0,0,1.93,0c.53-.3.52-.8,0-1.11"/><path class="cls-5" d="M284.88,164.84a2.12,2.12,0,0,0-1.93,0c-.53.31-.52.81,0,1.12a2.16,2.16,0,0,0,1.92,0,.59.59,0,0,0,0-1.12"/><path class="cls-5" d="M323.36,187.06a2.1,2.1,0,0,0-1.92,0,.59.59,0,0,0,0,1.11,2.15,2.15,0,0,0,1.93,0,.59.59,0,0,0,0-1.12"/><path class="cls-5" d="M330.31,171.87a2.12,2.12,0,0,0-1.93,0,.59.59,0,0,0,0,1.12,2.1,2.1,0,0,0,1.92,0,.59.59,0,0,0,0-1.12"/><path class="cls-5" d="M308.22,184.71a2.14,2.14,0,0,0-1.94,0,.59.59,0,0,0,0,1.12,2.12,2.12,0,0,0,1.93,0,.59.59,0,0,0,0-1.12"/><path class="cls-5" d="M289,173.6a2.1,2.1,0,0,0-1.92,0,.59.59,0,0,0,0,1.12,2.18,2.18,0,0,0,1.93,0,.59.59,0,0,0,0-1.12"/><path class="cls-5" d="M319.25,178.3a2.12,2.12,0,0,0-1.93,0,.59.59,0,0,0,0,1.11,2.1,2.1,0,0,0,1.92,0,.58.58,0,0,0,0-1.11"/><path class="cls-5" d="M293.08,182.36a2.12,2.12,0,0,0-1.93,0,.59.59,0,0,0,0,1.12,2.12,2.12,0,0,0,1.93,0,.59.59,0,0,0,0-1.12"/><path class="cls-5" d="M315.17,169.54a2.12,2.12,0,0,0-1.93,0,.59.59,0,0,0,0,1.12,2.15,2.15,0,0,0,1.93,0,.59.59,0,0,0,0-1.11"/><path class="cls-5" d="M277.92,180a2.13,2.13,0,0,0-1.92,0,.59.59,0,0,0,0,1.12,2.12,2.12,0,0,0,1.93,0,.59.59,0,0,0,0-1.11"/><path class="cls-5" d="M326,163.24a23,23,0,0,0-9.94-2.77,29.48,29.48,0,0,0-3.76,0,1.07,1.07,0,0,1,.36,1.23,21.53,21.53,0,0,1,11.81,2.42c2.27,1.31,3.81,3.06,4.19,5a5,5,0,0,1,0,1.77,4.3,4.3,0,0,1,1.34,0,3.07,3.07,0,0,1,.83.23c.58-3-1.35-5.92-4.84-7.93"/><path class="cls-5" d="M328.18,171.05a26,26,0,0,0-11.79-1.81,1,1,0,0,1,.39,1.23,22.52,22.52,0,0,1,10,1.54,2.1,2.1,0,0,1,1.41-1"/><path class="cls-5" d="M312.49,162a1.54,1.54,0,0,1-.5.43,3.54,3.54,0,0,1-1.15.38,7.6,7.6,0,0,1,2.28,2.74,5,5,0,0,1,.41,3.06,4.08,4.08,0,0,1,1.35,0,3.4,3.4,0,0,1,.79.21c.5-2.42-.64-4.88-3.18-6.82"/><path class="cls-5" d="M329.58,174a4.59,4.59,0,0,1-.91,0,3.32,3.32,0,0,1-1.15-.38c-1.44,1.9-4,3.4-7.34,4.22a1.24,1.24,0,0,1,.76,1.21c3.89-1,7-2.76,8.64-5"/><path class="cls-5" d="M316.62,170.77a2.81,2.81,0,0,1-1.66.82c2.08,1.66,3,3.72,2.69,5.77a4.16,4.16,0,0,1,2.15.23c.46-2.42-.67-4.86-3.18-6.82"/><path class="cls-5" d="M331.76,173.08a2.78,2.78,0,0,1-1.67.82,8.33,8.33,0,0,1,.81.73c4.06,4,1.69,9.18-5.24,11.5-.45.16-.9.28-1.36.41a1.62,1.62,0,0,1,.68.67,1.07,1.07,0,0,1,.07.53c.58-.15,1.15-.31,1.68-.48,8-2.69,10.7-8.62,6.06-13.26a10.34,10.34,0,0,0-1-.92"/><path class="cls-5" d="M320.7,179.51a2.73,2.73,0,0,1-1.66.82c2.11,1.67,3.09,3.71,2.73,5.77a4.27,4.27,0,0,1,2.14.23,5.89,5.89,0,0,0-.47-3.58,9,9,0,0,0-2.74-3.24"/><path class="cls-5" d="M319.78,187.25a22.64,22.64,0,0,1-10-1.56,1.4,1.4,0,0,1-.64.67,3.08,3.08,0,0,1-.75.3,26,26,0,0,0,11.8,1.83,1,1,0,0,1-.41-1.24"/><path class="cls-5" d="M318.5,180.39a4,4,0,0,1-2-.42c-1.43,1.89-4,3.38-7.3,4.23a1.24,1.24,0,0,1,.72,1.2c3.87-1,6.95-2.76,8.62-5"/><path class="cls-5" d="M307.49,186.82a4,4,0,0,1-2.08-.42,13.24,13.24,0,0,1-7.28,4.22,1.24,1.24,0,0,1,.73,1.21c3.89-1,6.95-2.77,8.63-5"/><path class="cls-5" d="M322.62,189.15a3.85,3.85,0,0,1-2.06-.43,7.8,7.8,0,0,1-.66.78c-4,4-12.9,5.43-19.89,3.1-.42-.15-.84-.3-1.24-.47a2.08,2.08,0,0,1-1.41,1c.5.21,1,.41,1.58.6,8,2.66,18.26,1.07,22.85-3.57a8.08,8.08,0,0,0,.83-1"/><path class="cls-5" d="M304.66,184.91a23.27,23.27,0,0,1-10-1.55,2.12,2.12,0,0,1-1.4.94,26.14,26.14,0,0,0,11.8,1.85,1.06,1.06,0,0,1-.41-1.24"/><path class="cls-5" d="M292.8,184.41a4.7,4.7,0,0,1-1.35,0,3.28,3.28,0,0,1-.79-.22c-.5,2.42.62,4.87,3.17,6.83a2.56,2.56,0,0,1,1.65-.81,7.73,7.73,0,0,1-2.28-2.75,4.92,4.92,0,0,1-.4-3.05"/><path class="cls-5" d="M289.52,182.54a24.7,24.7,0,0,1-5.24-.23,21.18,21.18,0,0,1-4.76-1.3,2.21,2.21,0,0,1-1.41,1,25.93,25.93,0,0,0,11.81,1.8,1,1,0,0,1-.4-1.22"/><path class="cls-5" d="M293.64,191.31a21.54,21.54,0,0,1-11.82-2.42c-2.27-1.31-3.81-3.06-4.18-5a4.58,4.58,0,0,1,0-1.77,4.08,4.08,0,0,1-1.35,0,3.53,3.53,0,0,1-.81-.22c-.58,3.05,1.35,5.92,4.83,7.93a23,23,0,0,0,10,2.77,27.61,27.61,0,0,0,3.75,0,1,1,0,0,1-.37-1.24"/><path class="cls-5" d="M285.37,174.05c-3.89,1-7,2.75-8.64,5a5.42,5.42,0,0,1,.9,0,3.47,3.47,0,0,1,1.14.38,13.37,13.37,0,0,1,7.36-4.23,1.62,1.62,0,0,1-.68-.67.93.93,0,0,1-.08-.51"/><path class="cls-5" d="M288.67,175.66a4.14,4.14,0,0,1-2.14-.24c-.47,2.42.66,4.87,3.17,6.84a2.75,2.75,0,0,1,1.67-.81c-2.09-1.69-3-3.75-2.7-5.79"/><path class="cls-5" d="M308.93,159.92c-.5-.22-1-.41-1.56-.59-8-2.68-18.26-1.07-22.87,3.56-.29.32-.56.63-.82,1a4,4,0,0,1,2.07.43,7.59,7.59,0,0,1,.65-.77c4-4,12.91-5.43,19.88-3.09a13.18,13.18,0,0,1,1.24.47,2.08,2.08,0,0,1,1.41-1"/><path class="cls-5" d="M284.54,166.9a4.32,4.32,0,0,1-2.13-.22,5.71,5.71,0,0,0,.47,3.57,9.18,9.18,0,0,0,2.73,3.26,2.82,2.82,0,0,1,1.66-.83c-2.11-1.67-3.08-3.73-2.73-5.78"/><path class="cls-5" d="M281.25,165.27c-.56.14-1.14.3-1.67.48-8,2.68-10.7,8.6-6.06,13.24a10,10,0,0,0,1,.91,2.81,2.81,0,0,1,1.66-.81,10.55,10.55,0,0,1-.79-.71c-4-4-1.7-9.2,5.25-11.54.44-.14.89-.27,1.34-.38a1.68,1.68,0,0,1-.68-.67.94.94,0,0,1-.07-.52"/><path class="cls-5" d="M307.43,161.21c-3.87,1-6.95,2.76-8.59,5a3.83,3.83,0,0,1,2.07.41c1.42-1.89,4-3.39,7.27-4.23a1.33,1.33,0,0,1-.75-1.19"/><path class="cls-5" d="M297.91,166.36a26.12,26.12,0,0,0-11.79-1.83,1.53,1.53,0,0,1,.39.47.92.92,0,0,1,0,.76,22.63,22.63,0,0,1,10,1.57,1.48,1.48,0,0,1,.66-.68,3.61,3.61,0,0,1,.72-.29"/><path class="cls-5" d="M313.08,168.7a26.58,26.58,0,0,0-11.81-1.82,1,1,0,0,1,.38,1.24,23,23,0,0,1,10,1.55,2.19,2.19,0,0,1,1.44-1"/><path class="cls-5" d="M296.44,167.62c-3.87,1-7,2.75-8.64,5a3.87,3.87,0,0,1,2,.42,13.47,13.47,0,0,1,7.31-4.22,1.21,1.21,0,0,1-.71-1.19"/></g></g></g><path class="cls-7" d="M333.49,186.49a.37.37,0,0,1-.37-.37v-4.38a.37.37,0,0,1,.37-.38.38.38,0,0,1,.38.38v4.38A.38.38,0,0,1,333.49,186.49Zm0-16.38a.37.37,0,0,1-.37-.37v-12a.37.37,0,0,1,.37-.38.38.38,0,0,1,.38.38v12A.38.38,0,0,1,333.49,170.11Zm0-24a.37.37,0,0,1-.37-.37v-12a.37.37,0,0,1,.37-.38.38.38,0,0,1,.38.38v12A.38.38,0,0,1,333.49,146.11Z"/><path class="cls-7" d="M272.29,156a.38.38,0,0,1-.37-.37v-12a.38.38,0,1,1,.75,0v12A.38.38,0,0,1,272.29,156Zm0-24a.38.38,0,0,1-.37-.37v-12a.38.38,0,1,1,.75,0v12A.38.38,0,0,1,272.29,132Zm0-24a.38.38,0,0,1-.37-.37v-12a.38.38,0,1,1,.75,0v12A.38.38,0,0,1,272.29,108Z"/><rect class="cls-1" x="1.66" y="-0.28" width="540" height="540"/></svg>