<?xml version="1.0" encoding="utf-8"?>
<!-- Generator: Adobe Illustrator 24.2.3, SVG Export Plug-In . SVG Version: 6.00 Build 0)  -->
<svg version="1.1" xmlns="http://www.w3.org/2000/svg" xmlns:xlink="http://www.w3.org/1999/xlink" x="0px" y="0px"
	 viewBox="0 0 320 320" style="enable-background:new 0 0 320 320;" xml:space="preserve">
<style type="text/css">
	.st0{fill:#162535;}
	.st1{fill:#05131C;}
	.st2{fill:#0A1A2B;}
	.st3{fill:#162535;stroke:#162535;stroke-width:3;stroke-linecap:round;stroke-linejoin:round;stroke-miterlimit:10;}
	.st4{opacity:0.3;fill:url(#SVGID_1_);}
	.st5{opacity:0.3;fill:url(#SVGID_2_);}
	.st6{fill:#EC432D;}
	.st7{opacity:0.21;fill:url(#SVGID_3_);}
	.st8{fill:#192B3D;}
	.st9{fill:#244D72;}
	.st10{opacity:0.2;fill:#4BC7EC;}
	.st11{opacity:0.3;fill:url(#SVGID_4_);}
	.st12{fill:none;stroke:#4BC7EC;stroke-width:3;stroke-linecap:round;stroke-linejoin:round;}
</style>
<g id="Layer_1">
</g>
<g id="Layer_3">
	<g>
		<g>
			<polyline class="st0" points="182.28,210.67 207.16,204.03 178.75,183.69 170.6,197.77 182.28,210.67 			"/>
			<polyline class="st0" points="29.15,122.71 34.71,119.19 41.95,121.53 55.06,123.88 54.34,115.67 33.27,102.77 27.41,102.77 
				29.15,122.71 			"/>
			<path class="st1" d="M209.45,248.73l15.48-6.39c0,0,5.04-9.38,1.88-18.77c-3.17-9.38-24.85-29.32-24.85-29.32l-8.77,7.04
				l-6.6,3.96L209.45,248.73z"/>
			
				<ellipse transform="matrix(0.8474 -0.531 0.531 0.8474 -89.8887 140.4)" class="st2" cx="199.28" cy="226.56" rx="14.04" ry="24.82"/>
			
				<ellipse transform="matrix(0.8474 -0.531 0.531 0.8474 -89.8887 140.4)" class="st0" cx="199.28" cy="226.56" rx="5.75" ry="10.17"/>
			<line class="st3" x1="188.83" y1="209.5" x2="207.39" y2="241.07"/>
			<line class="st3" x1="208.97" y1="221.49" x2="190.71" y2="231.04"/>
			<path class="st1" d="M58.01,165.17l15.48-6.39c0,0,5.04-9.38,1.88-18.77c-3.17-9.38-24.85-29.32-24.85-29.32l-8.77,7.04
				l-6.6,3.96L58.01,165.17z"/>
			
				<ellipse transform="matrix(0.8474 -0.531 0.531 0.8474 -68.6299 47.2302)" class="st2" cx="47.84" cy="143" rx="14.04" ry="24.82"/>
			
				<ellipse transform="matrix(0.8474 -0.531 0.531 0.8474 -68.6299 47.2302)" class="st0" cx="47.84" cy="143" rx="5.75" ry="10.17"/>
			<line class="st3" x1="37.39" y1="125.93" x2="55.95" y2="157.51"/>
			<line class="st3" x1="57.53" y1="137.92" x2="39.27" y2="147.48"/>
			<polygon class="st0" points="157.21,58.2 86.32,25.36 8.32,72.27 226.44,205.98 246.38,205.98 302.04,171.97 305.5,157.89 
				203.73,80.48 			"/>
			<polygon class="st0" points="226.44,205.98 227.32,229.43 215.98,207.15 193.64,193.08 187.57,190.73 178.35,205.98 
				82.15,152.03 65.41,121.53 36.89,103.94 29.61,114.5 14.82,106.29 8.32,72.27 			"/>
			<polygon class="st0" points="305.5,157.89 305.87,175.48 304.86,190.73 244.6,225.92 227.11,227.09 225.26,205.98 246.38,205.98 
				302.04,171.97 			"/>
			<polygon class="st2" points="304.69,175.48 306.07,177.83 307.51,194.25 244.04,232.95 225.28,232.95 223.59,227.09 
				212.47,207.15 186.78,192.04 179.42,204.22 182.28,210.67 83.53,154.37 80.01,154.37 60.82,122.71 34.7,107.12 29.71,115.67 
				29.15,122.71 12.78,109.81 12.37,105.11 14.21,103.09 29.51,113.32 36.69,101.6 66.38,119.19 80.46,146.16 83.22,150.85 
				178.25,204.8 188.44,187.21 215.68,203.63 226.91,224.74 244.5,224.74 303.58,189.56 			"/>
			
				<linearGradient id="SVGID_1_" gradientUnits="userSpaceOnUse" x1="-313.9384" y1="130.916" x2="-180.2358" y2="130.916" gradientTransform="matrix(-1 0 0.0875 1 -49.2261 0)">
				<stop  offset="0" style="stop-color:#52C7EA;stop-opacity:0.7"/>
				<stop  offset="1" style="stop-color:#000000"/>
			</linearGradient>
			<polygon class="st4" points="276.78,137.95 203.17,181.35 141.44,119.19 203.73,80.48 			"/>
			
				<linearGradient id="SVGID_2_" gradientUnits="userSpaceOnUse" x1="-245.9143" y1="88.6941" x2="-127.4585" y2="88.6941" gradientTransform="matrix(-1 0 0.0875 1 -49.2261 0)">
				<stop  offset="0" style="stop-color:#52C7EA;stop-opacity:0.7"/>
				<stop  offset="1" style="stop-color:#000000"/>
			</linearGradient>
			<polygon class="st5" points="203.73,80.48 156.04,58.2 87.02,100.42 141.44,119.19 			"/>
			<polyline class="st2" points="149,58.2 86.71,96.9 17.6,71.1 86.73,30.05 147.83,58.2 			"/>
			<polygon class="st6" points="304.74,162.58 301.07,174.31 275.64,191.9 246.38,205.98 226.54,207.15 226.74,209.5 246.58,208.32 
				277.02,194.25 302.35,175.48 304.94,164.93 			"/>
			<polygon class="st2" points="199.86,183.69 140.57,122.71 86.15,103.94 85.7,112.15 			"/>
			<polygon class="st0" points="141,122.72 134.45,142.7 129.05,139.32 136.02,121.19 			"/>
			
				<linearGradient id="SVGID_3_" gradientUnits="userSpaceOnUse" x1="-277.5807" y1="216.5325" x2="-249.6934" y2="216.5325" gradientTransform="matrix(-1 0 0.0875 1 -49.2261 0)">
				<stop  offset="0" style="stop-color:#52C7EA;stop-opacity:0.7"/>
				<stop  offset="1" style="stop-color:#000000"/>
			</linearGradient>
			<polygon class="st7" points="244.5,224.74 246.58,208.32 226.74,209.5 218.8,209.5 226.91,224.74 			"/>
		</g>
		<g>
			<g>
				<path class="st0" d="M206.81,275.85c-0.06-0.1-0.14-0.19-0.2-0.29l0.03-0.02L171.68,215l-22.14,12.78l34.96,60.55l0.01-0.01
					c0.05,0.11,0.1,0.21,0.16,0.31c2.01,3.48,8.59,3.43,14.7-0.1C205.49,285,208.81,279.32,206.81,275.85z"/>
				
					<ellipse transform="matrix(0.866 -0.5 0.5 0.866 -89.0722 109.8595)" class="st0" cx="160.46" cy="221.14" rx="12.78" ry="7.27"/>
				<path class="st1" d="M161.49,222.65l-0.22,0.13c-2.69,1.55-6.14,0.63-7.69-2.06l-11.53-19.98c-1.55-2.69-0.63-6.14,2.06-7.69
					l0.22-0.13c2.69-1.55,6.14-0.63,7.69,2.06l11.53,19.98C165.1,217.65,164.18,221.1,161.49,222.65z"/>
				<path class="st8" d="M171.15,146.24c-2.19-15.5-8.01-31.21-16.16-45.29c-12.91-22.36-31.65-40.62-50.88-47.42
					c-9.6-3.4-18.2-3.54-25.37-0.97v0l0,0c-2.13,0.77-4.13,1.77-5.99,3.01l-13.19,6.61v1.01l2.5,4.72
					c-4.85,9.52-6.64,22.59-4.44,38.17c1.53,10.78,4.82,21.67,9.41,32.04c12.5,28.21,34.71,52.58,57.63,60.68
					c2.72,0.96,5.35,1.66,7.9,2.11l3.11,5.88l13.47-6.72c2.72-0.88,5.24-2.14,7.54-3.76l0,0l0,0
					C168.59,187.92,174.52,169.99,171.15,146.24z"/>
				<path class="st9" d="M53.82,144.75c-4.59-10.36-7.88-21.25-9.41-32.04C38.73,72.6,59.54,49.06,90.89,60.16
					c19.23,6.8,37.97,25.06,50.88,47.42c8.14,14.09,13.97,29.79,16.16,45.29c5.68,40.12-15.13,63.65-46.48,52.55
					C88.52,197.33,66.31,172.95,53.82,144.75z"/>
				<path class="st0" d="M143.53,190.18c-7.45,7.56-18.58,9.87-31.83,5.18c-20.27-7.17-39.91-28.72-50.96-53.67
					c-4.06-9.16-6.98-18.79-8.32-28.33c-3.62-25.54,4.92-43.49,20.33-47.86c-8.13,8.25-11.9,22.78-9.27,41.29
					c1.35,9.53,4.26,19.17,8.32,28.33c11.05,24.94,30.69,46.5,50.96,53.67C130.51,191.54,137.54,191.88,143.53,190.18z"/>
				<path class="st2" d="M76.1,57.41v11.59c3.34,0,7.02,0.7,10.92,2.08c15.96,5.65,32.67,21.46,44.71,42.3
					c7.71,13.34,12.8,27.56,14.72,41.12c2.21,15.64-0.13,28.78-6.44,36.04c-3.48,4.01-8.12,6.04-13.77,6.04
					c-3.35,0-7.02-0.7-10.93-2.08c-9.34-3.3-19.07-10.15-28.13-19.81c-9.18-9.78-17.05-21.76-22.76-34.65
					c-4.32-9.74-7.19-19.48-8.53-28.96c-2.21-15.64,0.14-28.77,6.44-36.04c3.48-4.01,8.12-6.04,13.77-6.04L76.1,57.41 M76.1,57.41
					c-22.78,0-36.42,21.91-31.69,55.3c1.53,10.78,4.82,21.67,9.41,32.04c12.5,28.21,34.71,52.58,57.63,60.68
					c5.25,1.86,10.21,2.75,14.79,2.75c22.79,0,36.42-21.9,31.69-55.3c-2.19-15.5-8.01-31.21-16.16-45.29
					c-12.91-22.36-31.65-40.62-50.88-47.42C85.64,58.3,80.68,57.41,76.1,57.41L76.1,57.41z"/>
			</g>
			<path class="st10" d="M64.82,140.88c-4-8.86-6.99-18.11-8.61-27.2c-6-33.82,9.37-52.73,34.33-42.22
				c15.32,6.45,30.68,22.47,41.66,41.71c6.92,12.12,12.09,25.5,14.4,38.57c6,33.83-9.37,52.73-34.33,42.22
				C94.02,186.28,75.7,165,64.82,140.88z"/>
			<path class="st10" d="M129.73,189.26c-0.21,0.35-0.92,0.15-0.86-0.25c1.6-9.64,7.55-49.71-16.52-83.03
				c-0.2-0.28,0.24-0.5,0.51-0.25C121.56,113.83,153.97,148.07,129.73,189.26z"/>
		</g>
		<linearGradient id="SVGID_4_" gradientUnits="userSpaceOnUse" x1="43.4732" y1="132.8055" x2="158.8603" y2="132.8055">
			<stop  offset="0" style="stop-color:#52C7EA;stop-opacity:0.7"/>
			<stop  offset="1" style="stop-color:#000000"/>
		</linearGradient>
		<path class="st11" d="M76.1,57.42v11.59c3.34,0,7.02,0.7,10.92,2.08c15.96,5.65,32.67,21.46,44.71,42.3
			c7.71,13.34,12.8,27.56,14.72,41.12c2.21,15.64-0.13,28.78-6.44,36.04c-3.48,4.01-8.12,6.04-13.77,6.04
			c-3.35,0-7.02-0.7-10.93-2.08c-9.34-3.3-19.07-10.15-28.13-19.81c-9.18-9.78-17.05-21.76-22.76-34.65
			c-4.32-9.74-7.19-19.48-8.53-28.96c-2.21-15.64,0.14-28.77,6.44-36.04c3.48-4.01,8.12-6.04,13.77-6.04L76.1,57.42 M76.1,57.42
			c-22.78,0-36.42,21.91-31.69,55.3c1.53,10.78,4.82,21.67,9.41,32.04c12.5,28.21,34.71,52.58,57.63,60.68
			c5.25,1.86,10.21,2.75,14.79,2.75c22.79,0,36.42-21.9,31.69-55.3c-2.19-15.5-8.01-31.21-16.16-45.29
			c-12.91-22.36-31.65-40.62-50.88-47.42C85.64,58.31,80.68,57.42,76.1,57.42L76.1,57.42z"/>
		<polyline class="st12" points="61.31,107.52 72.75,115.67 86.71,96.9 100.27,149.17 116.54,123.88 121.46,144.28 142.78,159.33 		
			"/>
	</g>
</g>
</svg>
