<?xml version="1.0" encoding="utf-8"?>
<!-- Generator: Adobe Illustrator 24.2.3, SVG Export Plug-In . SVG Version: 6.00 Build 0)  -->
<svg version="1.1" id="Layer_1" xmlns="http://www.w3.org/2000/svg" xmlns:xlink="http://www.w3.org/1999/xlink" x="0px" y="0px"
	 viewBox="0 0 264 264" style="enable-background:new 0 0 264 264;" xml:space="preserve">
<style type="text/css">
	.st0{opacity:0.21;fill:url(#SVGID_1_);enable-background:new    ;}
	.st1{opacity:0.21;fill:url(#SVGID_2_);enable-background:new    ;}
	.st2{fill:#05131C;}
	.st3{fill:#05151E;}
	.st4{fill:#162535;}
	.st5{fill:#1B3144;}
	.st6{fill:#152935;}
	.st7{fill:#05151C;}
	.st8{opacity:0.3;fill:url(#SVGID_3_);enable-background:new    ;}
	.st9{opacity:0.3;fill:url(#SVGID_4_);enable-background:new    ;}
	.st10{fill:#0A1A2B;}
	.st11{fill:#EC432D;}
	.st12{opacity:0.1;fill:#52C7EA;}
	.st13{opacity:0.21;fill:url(#SVGID_5_);enable-background:new    ;}
	.st14{opacity:0.3;fill:url(#SVGID_6_);enable-background:new    ;}
	.st15{opacity:0.15;fill:#4BC7EC;enable-background:new    ;}
	.st16{opacity:0.3;fill:url(#SVGID_7_);enable-background:new    ;}
	.st17{fill:#4BC7EC;}
	.st18{fill:#52C7EA;enable-background:new    ;}
</style>
<g id="Layer_1_1_">
</g>
<g>
	<g>
		<linearGradient id="SVGID_1_" gradientUnits="userSpaceOnUse" x1="143.0368" y1="164.1263" x2="174.8465" y2="164.1263">
			<stop  offset="0" style="stop-color:#52C7EA;stop-opacity:0.7"/>
			<stop  offset="1" style="stop-color:#000000"/>
		</linearGradient>
		<polyline class="st0" points="153.2,175.9 174.8,170.1 150.1,152.4 143,164.6 153.2,175.9 		"/>
		<linearGradient id="SVGID_2_" gradientUnits="userSpaceOnUse" x1="18.4516" y1="91.1666" x2="42.509" y2="91.1666">
			<stop  offset="0" style="stop-color:#52C7EA;stop-opacity:0.7"/>
			<stop  offset="1" style="stop-color:#000000"/>
		</linearGradient>
		<polyline class="st1" points="20,99.3 24.8,96.3 31.1,98.3 42.5,100.4 41.9,93.2 23.6,82 18.5,82 20,99.3 		"/>
		<path class="st2" d="M176.8,209l13.5-5.6c0,0,4.4-8.2,1.6-16.3c-2.8-8.2-21.6-25.5-21.6-25.5l-7.6,6.1l-5.7,3.4L176.8,209z"/>
		
			<ellipse transform="matrix(0.8474 -0.531 0.531 0.8474 -75.0873 118.1545)" class="st3" cx="168" cy="189.7" rx="12.2" ry="21.6"/>
		<ellipse transform="matrix(0.8474 -0.531 0.531 0.8474 -75.0873 118.1545)" class="st4" cx="168" cy="189.7" rx="5" ry="8.8"/>
		<path class="st4" d="M175,203.8c-0.5,0-1-0.3-1.3-0.7l-16.1-27.5c-0.4-0.7-0.2-1.6,0.5-2.1c0.7-0.4,1.6-0.2,2.1,0.5l16.1,27.5
			c0.4,0.7,0.2,1.6-0.5,2.1C175.6,203.7,175.3,203.8,175,203.8z"/>
		<path class="st4" d="M160.5,195.1c-0.5,0-1.1-0.3-1.3-0.8c-0.4-0.7-0.1-1.6,0.6-2l15.9-8.3c0.7-0.4,1.6-0.1,2,0.6s0.1,1.6-0.6,2
			l-15.9,8.3C161,195,160.8,195.1,160.5,195.1z"/>
		<path class="st2" d="M45.1,136.3l13.5-5.6c0,0,4.4-8.2,1.6-16.3c-2.8-8.2-21.6-25.5-21.6-25.5L30.9,95l-5.7,3.4L45.1,136.3z"/>
		<ellipse transform="matrix(0.8474 -0.531 0.531 0.8474 -56.5912 37.0925)" class="st3" cx="36.2" cy="117" rx="12.2" ry="21.6"/>
		<ellipse transform="matrix(0.8474 -0.531 0.531 0.8474 -56.5912 37.0925)" class="st4" cx="36.2" cy="117" rx="5" ry="8.8"/>
		<path class="st4" d="M43.3,131.1c-0.5,0-1-0.3-1.3-0.7l-16.1-27.5c-0.4-0.7-0.2-1.6,0.5-2.1c0.7-0.4,1.6-0.2,2.1,0.5l16.1,27.5
			c0.4,0.7,0.2,1.6-0.5,2.1C43.8,131,43.5,131.1,43.3,131.1z"/>
		<path class="st4" d="M28.8,122.4c-0.5,0-1.1-0.3-1.3-0.8c-0.4-0.7-0.1-1.6,0.6-2l15.9-8.3c0.7-0.4,1.6-0.1,2,0.6
			c0.4,0.7,0.1,1.6-0.6,2l-15.9,8.3C29.2,122.3,29,122.4,28.8,122.4z"/>
		<polygon class="st5" points="131.4,43.2 69.7,14.6 1.8,55.4 191.6,171.8 209,171.8 257.4,142.2 260.4,129.9 171.9,62.6 		"/>
		<polygon class="st6" points="191.6,171.8 192.4,192.2 182.5,172.8 163.1,160.6 157.8,158.5 149.8,171.8 66.1,124.8 51.5,98.3 
			26.7,83 20.4,92.2 7.5,85 1.8,55.4 		"/>
		<polygon class="st4" points="260.4,129.9 260.7,145.2 259.9,158.5 207.4,189.1 192.2,190.2 190.6,171.8 209,171.8 257.4,142.2 		
			"/>
		<polygon class="st7" points="259.7,145.2 260.9,147.3 262.2,161.6 206.9,195.2 190.6,195.2 189.1,190.2 179.5,172.8 157.1,159.7 
			150.7,170.3 153.2,175.9 67.3,126.9 64.2,126.9 47.5,99.3 24.8,85.8 20.5,93.2 20,99.3 5.7,88.1 5.4,84 7,82.3 20.3,91.2 26.5,81 
			52.4,96.3 64.6,119.7 67,123.8 149.7,170.8 158.6,155.5 182.3,169.7 192,188.1 207.3,188.1 258.7,157.5 		"/>
		
			<linearGradient id="SVGID_3_" gradientUnits="userSpaceOnUse" x1="-1480.5726" y1="157.5289" x2="-1364.2457" y2="157.5289" gradientTransform="matrix(-1 0 -8.750000e-02 -1 -1231.9037 264)">
			<stop  offset="0" style="stop-color:#52C7EA;stop-opacity:0.7"/>
			<stop  offset="1" style="stop-color:#000000"/>
		</linearGradient>
		<polygon class="st8" points="235.4,112.6 171.4,150.4 117.7,96.3 171.9,62.6 		"/>
		
			<linearGradient id="SVGID_4_" gradientUnits="userSpaceOnUse" x1="-1421.3894" y1="194.2632" x2="-1318.3256" y2="194.2632" gradientTransform="matrix(-1 0 -8.750000e-02 -1 -1231.9037 264)">
			<stop  offset="0" style="stop-color:#52C7EA;stop-opacity:0.7"/>
			<stop  offset="1" style="stop-color:#000000"/>
		</linearGradient>
		<polygon class="st9" points="171.9,62.6 130.4,43.2 70.3,79.9 117.7,96.3 		"/>
		<polyline class="st10" points="124.2,43.2 70,76.9 9.9,54.4 70.1,18.7 123.2,43.2 		"/>
		<polygon class="st11" points="259.7,134 256.6,144.2 234.4,159.5 209,171.8 191.7,172.8 191.9,174.8 209.1,173.8 235.6,161.6 
			257.7,145.2 259.9,136.1 		"/>
		<polygon class="st12" points="168.5,152.4 116.9,99.3 69.6,83 69.2,90.1 		"/>
		<polygon class="st4" points="117.3,99.3 111.6,116.7 106.9,113.8 112.9,98 		"/>
		
			<linearGradient id="SVGID_5_" gradientUnits="userSpaceOnUse" x1="-1448.9392" y1="83.0379" x2="-1424.6788" y2="83.0379" gradientTransform="matrix(-1 0 -8.750000e-02 -1 -1231.9037 264)">
			<stop  offset="0" style="stop-color:#52C7EA;stop-opacity:0.7"/>
			<stop  offset="1" style="stop-color:#000000"/>
		</linearGradient>
		<polygon class="st13" points="207.3,188.1 209.1,173.8 191.9,174.8 185,174.8 192,188.1 		"/>
	</g>
	<g>
		<g>
			<path class="st2" d="M174.5,232.6c-0.1-0.1-0.1-0.2-0.2-0.3l0,0L144,179.6l-19.3,11.1l30.4,52.7l0,0c0,0.1,0.1,0.2,0.1,0.3
				c1.7,3,7.5,3,12.8-0.1C173.4,240.5,176.3,235.6,174.5,232.6z"/>
			<ellipse transform="matrix(0.866 -0.5 0.5 0.866 -74.5055 91.8895)" class="st2" cx="134.2" cy="185" rx="11.1" ry="6.3"/>
			<linearGradient id="SVGID_6_" gradientUnits="userSpaceOnUse" x1="124.0727" y1="184.9703" x2="144.3493" y2="184.9703">
				<stop  offset="0" style="stop-color:#52C7EA;stop-opacity:0.7"/>
				<stop  offset="1" style="stop-color:#000000"/>
			</linearGradient>
			<path class="st14" d="M131,179.5c5.3-3.1,11-3.1,12.8-0.1c1.7,3-1.1,8-6.5,11c-5.3,3.1-11,3.1-12.8,0.1
				C122.8,187.5,125.7,182.6,131,179.5z"/>
			<path class="st2" d="M135.1,186.3l-0.2,0.1c-2.3,1.3-5.3,0.5-6.7-1.8l-10-17.4c-1.3-2.3-0.5-5.3,1.8-6.7l0.2-0.1
				c2.3-1.3,5.3-0.5,6.7,1.8l10,17.4C138.3,181.9,137.5,184.9,135.1,186.3z"/>
			<path class="st2" d="M143.5,119.8c-1.9-13.5-7-27.2-14.1-39.4c-11.2-19.5-27.5-35.3-44.3-41.3c-8.4-3-15.8-3.1-22.1-0.8l0,0l0,0
				c-1.9,0.7-3.6,1.5-5.2,2.6l-11.5,5.8v0.9l2.2,4.1c-4.2,8.3,29-10.9,30.9,2.6c1.3,9.4,26.3,21.2,30.2,30.2
				c7.9-7.6,13,36.5,19.9,49.3c2.4,0.8-21.9,33.2-19.7,33.6l2.7,5.1l11.7-5.8c2.4-0.8,4.6-1.9,6.6-3.3l0,0l0,0
				C141.3,156.1,146.4,140.5,143.5,119.8z"/>
			<path class="st12" d="M41.4,118.5c-4-9-6.9-18.5-8.2-27.9c-4.9-34.9,13.2-55.4,40.4-45.7c16.7,5.9,33,21.8,44.3,41.3
				c7.1,12.3,12.2,25.9,14.1,39.4c4.9,34.9-13.2,55.4-40.4,45.7C71.6,164.3,52.3,143,41.4,118.5z"/>
			<path class="st2" d="M119.5,158c-6.5,6.6-16.2,8.6-27.7,4.5c-17.6-6.2-34.7-25-44.3-46.7c-3.5-8-6.1-16.3-7.2-24.6
				C37.1,69,44.5,53.4,57.9,49.6c-7.1,7.2-10.4,19.8-8.1,35.9c1.2,8.3,3.7,16.7,7.2,24.6c9.6,21.7,26.7,40.5,44.3,46.7
				C108.2,159.2,114.3,159.5,119.5,158z"/>
			<path class="st10" d="M60.8,42.5v10.1c2.9,0,6.1,0.6,9.5,1.8c13.9,4.9,28.4,18.7,38.9,36.8c6.7,11.6,11.1,24,12.8,35.8
				c1.9,13.6-0.1,25-5.6,31.4c-3,3.5-7.1,5.3-12,5.3c-2.9,0-6.1-0.6-9.5-1.8c-8.1-2.9-16.6-8.8-24.5-17.2
				c-8-8.5-14.8-18.9-19.8-30.1c-3.8-8.5-6.3-16.9-7.4-25.2c-1.9-13.6,0.1-25,5.6-31.4c3-3.5,7.1-5.3,12-5.3L60.8,42.5 M60.8,42.5
				c-19.8,0-31.7,19.1-27.6,48.1c1.3,9.4,4.2,18.9,8.2,27.9c10.9,24.5,30.2,45.7,50.1,52.8c4.6,1.6,8.9,2.4,12.9,2.4
				c19.8,0,31.7-19.1,27.6-48.1c-1.9-13.5-7-27.2-14.1-39.4c-11.2-19.5-27.5-35.3-44.3-41.3C69.1,43.3,64.8,42.5,60.8,42.5
				L60.8,42.5z"/>
		</g>
		<path class="st15" d="M51.3,115c-3.4-7.7-6-15.7-7.4-23.6C38.8,62.1,52,45.7,73.4,54.8c13.2,5.6,26.4,19.5,35.8,36.2
			c5.9,10.5,10.4,22.1,12.4,33.5c5.2,29.3-8.1,45.7-29.5,36.6C76.4,154.4,60.7,136,51.3,115z"/>
	</g>
	
		<linearGradient id="SVGID_7_" gradientUnits="userSpaceOnUse" x1="86.8821" y1="167.2184" x2="51.6163" y2="73.2199" gradientTransform="matrix(1 0 0 -1 0 264)">
		<stop  offset="0" style="stop-color:#52C7EA;stop-opacity:0.7"/>
		<stop  offset="1" style="stop-color:#000000"/>
	</linearGradient>
	<path class="st16" d="M60.8,42.5v10.1c2.9,0,6.1,0.6,9.5,1.8c13.9,4.9,28.4,18.7,38.9,36.8c6.7,11.6,11.1,24,12.8,35.8
		c1.9,13.6-0.1,25-5.6,31.4c-3,3.5-7.1,5.3-12,5.3c-2.9,0-6.1-0.6-9.5-1.8c-8.1-2.9-16.6-8.8-24.5-17.2c-8-8.5-14.8-18.9-19.8-30.1
		c-3.8-8.5-6.3-16.9-7.4-25.2c-1.9-13.6,0.1-25,5.6-31.4c3-3.5,7.1-5.3,12-5.3L60.8,42.5 M60.8,42.5c-19.8,0-31.7,19.1-27.6,48.1
		c1.3,9.4,4.2,18.9,8.2,27.9c10.9,24.5,30.2,45.7,50.1,52.8c4.6,1.6,8.9,2.4,12.9,2.4c19.8,0,31.7-19.1,27.6-48.1
		c-1.9-13.5-7-27.2-14.1-39.4c-11.2-19.5-27.5-35.3-44.3-41.3C69.1,43.3,64.8,42.5,60.8,42.5L60.8,42.5z"/>
	<path class="st17" d="M118.8,132.7c-0.3,0-0.6-0.1-0.9-0.3l-18.5-13.1c-0.3-0.2-0.5-0.5-0.6-0.9l-3.5-14.3l-12.3,19.1
		c-0.3,0.5-0.9,0.8-1.5,0.7c-0.6-0.1-1.1-0.5-1.2-1.1l-11-42.4L59.1,94.1c-0.5,0.7-1.4,0.8-2.1,0.3l-10-7.1
		c-0.7-0.5-0.8-1.4-0.4-2.1c0.5-0.7,1.4-0.8,2.1-0.4l8.8,6.2L68.8,76c0.3-0.5,0.9-0.7,1.5-0.6c0.6,0.1,1,0.5,1.2,1.1l10.9,42.2
		l12.3-19.1c0.3-0.5,0.9-0.8,1.5-0.7c0.6,0.1,1.1,0.5,1.2,1.1l4.1,17.2l18.1,12.8c0.7,0.5,0.8,1.4,0.4,2.1
		C119.8,132.5,119.3,132.7,118.8,132.7z"/>
</g>
<path class="st18" d="M103.1,163.7c-3.4,0-7.2-0.8-11.2-2.5c-15.2-6.4-31.2-24.5-40.9-46.1c-3.5-7.9-6-15.9-7.4-23.6
	C40.8,75,43.5,62,51.3,55.8c5.6-4.5,13.3-4.9,22.1-1.1c12.7,5.4,26.1,18.9,35.9,36.2c6.2,10.9,10.5,22.5,12.4,33.5
	c2.9,16.5,0.1,29.5-7.6,35.6C110.9,162.5,107.2,163.7,103.1,163.7z M62.1,52.4c-4.1,0-7.7,1.2-10.7,3.6c-7.7,6.1-10.4,19-7.5,35.4
	c1.4,7.7,3.9,15.6,7.4,23.6v0c9.6,21.5,25.6,39.6,40.7,46c8.7,3.7,16.3,3.3,21.8-1.1c7.7-6.1,10.4-19,7.5-35.4
	c-1.9-11-6.2-22.5-12.4-33.4c-9.8-17.3-23.1-30.8-35.8-36.1C69.3,53.2,65.5,52.4,62.1,52.4z"/>
</svg>
