<?xml version="1.0" encoding="utf-8"?>
<!-- Generator: Adobe Illustrator 24.2.3, SVG Export Plug-In . SVG Version: 6.00 Build 0)  -->
<svg version="1.1" id="Layer_1" xmlns="http://www.w3.org/2000/svg" xmlns:xlink="http://www.w3.org/1999/xlink" x="0px" y="0px"
	 viewBox="0 0 259.8 230.9" style="enable-background:new 0 0 259.8 230.9;" xml:space="preserve">
<style type="text/css">
	.st0{opacity:0.21;fill:url(#SVGID_1_);enable-background:new    ;}
	.st1{opacity:0.21;fill:url(#SVGID_2_);enable-background:new    ;}
	.st2{fill:#05131C;}
	.st3{fill:#05151E;}
	.st4{fill:#162535;}
	.st5{fill:#1B3144;}
	.st6{fill:#152935;}
	.st7{fill:#05151C;}
	.st8{opacity:0.3;fill:url(#SVGID_3_);enable-background:new    ;}
	.st9{opacity:0.3;fill:url(#SVGID_4_);enable-background:new    ;}
	.st10{fill:#0A1A2B;}
	.st11{fill:#EC432D;}
	.st12{opacity:0.1;fill:#52C7EA;enable-background:new    ;}
	.st13{opacity:0.21;fill:url(#SVGID_5_);enable-background:new    ;}
	.st14{opacity:0.3;fill:url(#SVGID_6_);enable-background:new    ;}
	.st15{opacity:0.15;fill:#4BC7EC;enable-background:new    ;}
	.st16{opacity:0.3;fill:url(#SVGID_7_);enable-background:new    ;}
	.st17{fill:#52C7EA;}
	.st18{fill:#4BC7EC;}
	.st19{opacity:0.9;fill:#4BC7EC;enable-background:new    ;}
	.st20{opacity:0.8;fill:#4BC7EC;enable-background:new    ;}
	.st21{opacity:0.7;fill:#4BC7EC;enable-background:new    ;}
	.st22{opacity:0.6;fill:#4BC7EC;enable-background:new    ;}
	.st23{opacity:0.55;fill:#4BC7EC;enable-background:new    ;}
	.st24{opacity:0.5;fill:#4BC7EC;enable-background:new    ;}
	.st25{opacity:0.45;fill:#4BC7EC;enable-background:new    ;}
	.st26{opacity:0.4;fill:#4BC7EC;enable-background:new    ;}
	.st27{opacity:0.35;fill:#4BC7EC;enable-background:new    ;}
</style>
<linearGradient id="SVGID_1_" gradientUnits="userSpaceOnUse" x1="140.94" y1="82.78" x2="172.69" y2="82.78" gradientTransform="matrix(1 0 0 -1 0 232)">
	<stop  offset="0" style="stop-color:#52C7EA;stop-opacity:0.7"/>
	<stop  offset="1" style="stop-color:#000000"/>
</linearGradient>
<polyline class="st0" points="151.1,160.9 172.7,155.2 148,137.5 140.9,149.7 151.1,160.9 "/>
<linearGradient id="SVGID_2_" gradientUnits="userSpaceOnUse" x1="16.58" y1="155.605" x2="40.59" y2="155.605" gradientTransform="matrix(1 0 0 -1 0 232)">
	<stop  offset="0" style="stop-color:#52C7EA;stop-opacity:0.7"/>
	<stop  offset="1" style="stop-color:#000000"/>
</linearGradient>
<polyline class="st1" points="18.1,84.6 22.9,81.5 29.2,83.5 40.6,85.6 40,78.4 21.7,67.2 16.6,67.2 18.1,84.6 "/>
<path class="st2" d="M174.7,194l13.4-5.6c0,0,4.4-8.1,1.6-16.3s-21.6-25.5-21.6-25.5l-7.6,6.1l-5.7,3.4L174.7,194z"/>
<ellipse transform="matrix(0.8486 -0.5291 0.5291 0.8486 -67.654 114.4495)" class="st3" cx="166.1" cy="175.4" rx="12.2" ry="21.6"/>
<ellipse transform="matrix(0.8474 -0.531 0.531 0.8474 -67.4789 114.7253)" class="st4" cx="165.8" cy="174.8" rx="5" ry="8.8"/>
<path class="st4" d="M172.9,188.8c-0.5,0-1-0.3-1.3-0.7l-16.1-27.4c-0.4-0.7-0.2-1.6,0.5-2.1c0.7-0.4,1.6-0.2,2.1,0.5l16.1,27.4
	c0.4,0.7,0.2,1.6-0.5,2.1C173.4,188.8,173.1,188.8,172.9,188.8z"/>
<path class="st4" d="M158.4,180.1c-0.5,0-1.1-0.3-1.3-0.8c-0.4-0.7-0.1-1.6,0.6-2l15.9-8.3c0.7-0.4,1.6-0.1,2,0.6s0.1,1.6-0.6,2
	l-15.9,8.3C158.9,180.1,158.6,180.1,158.4,180.1z"/>
<path class="st2" d="M43.2,121.4l13.4-5.6c0,0,4.4-8.1,1.6-16.3S36.7,74.2,36.7,74.2L29,80.3l-5.7,3.4L43.2,121.4z"/>
<ellipse transform="matrix(0.8474 -0.531 0.531 0.8474 -49.0152 33.8184)" class="st3" cx="34.3" cy="102.2" rx="12.2" ry="21.6"/>
<ellipse transform="matrix(0.8474 -0.531 0.531 0.8474 -49.0152 33.8184)" class="st4" cx="34.3" cy="102.2" rx="5" ry="8.8"/>
<path class="st4" d="M41.4,116.3c-0.5,0-1-0.3-1.3-0.7L24,88.1c-0.4-0.7-0.2-1.6,0.5-2.1c0.7-0.4,1.6-0.2,2.1,0.5L42.7,114
	c0.4,0.7,0.2,1.6-0.5,2.1C41.9,116.2,41.6,116.3,41.4,116.3z"/>
<path class="st4" d="M26.9,107.6c-0.5,0-1.1-0.3-1.3-0.8c-0.4-0.7-0.1-1.6,0.6-2L42,96.4c0.7-0.4,1.6-0.1,2,0.6
	c0.4,0.7,0.1,1.6-0.6,2l-15.9,8.3C27.4,107.5,27.1,107.6,26.9,107.6z"/>
<polygon class="st5" points="129.3,28.5 67.7,0 0,40.7 189.4,156.9 206.8,156.9 255.1,127.3 258.1,115.1 169.7,47.9 "/>
<polygon class="st6" points="189.4,156.9 190.2,177.2 180.4,157.9 160.9,145.7 155.7,143.6 147.7,156.9 64.1,110 49.6,83.5 
	24.8,68.2 18.5,77.4 5.6,70.3 0,40.7 "/>
<polygon class="st4" points="258.1,115.1 258.4,130.4 257.5,143.6 205.2,174.2 190,175.2 188.4,156.9 206.8,156.9 255.1,127.3 "/>
<polygon class="st7" points="257.4,130.4 258.6,132.4 259.8,146.7 204.7,180.3 188.4,180.3 187,175.2 177.3,157.9 155,144.8 
	148.6,155.3 151.1,160.9 65.3,112 62.3,112 45.6,84.6 22.9,71 18.6,78.4 18.1,84.6 3.9,73.3 3.5,69.3 5.1,67.5 18.4,76.4 24.6,66.2 
	50.4,81.5 62.7,104.9 65.1,109 147.6,155.8 156.4,140.6 180.1,154.8 189.8,173.2 205.1,173.2 256.4,142.6 "/>
<linearGradient id="SVGID_3_" gradientUnits="userSpaceOnUse" x1="-1534.42" y1="162.51" x2="-1418.3461" y2="162.51" gradientTransform="matrix(-1 0 9.000000e-02 1 -1316.8199 -70.84)">
	<stop  offset="0" style="stop-color:#52C7EA;stop-opacity:0.7"/>
	<stop  offset="1" style="stop-color:#000000"/>
</linearGradient>
<polygon class="st8" points="233.1,97.8 169.2,135.5 115.6,81.5 169.7,47.9 "/>
<linearGradient id="SVGID_4_" gradientUnits="userSpaceOnUse" x1="-1475.3501" y1="125.845" x2="-1372.4313" y2="125.845" gradientTransform="matrix(-1 0 9.000000e-02 1 -1316.8199 -70.84)">
	<stop  offset="0" style="stop-color:#52C7EA;stop-opacity:0.7"/>
	<stop  offset="1" style="stop-color:#000000"/>
</linearGradient>
<polygon class="st9" points="169.7,47.9 128.3,28.5 68.3,65.2 115.6,81.5 "/>
<polyline class="st10" points="122.2,28.5 68.1,62.1 8.1,39.7 68.1,4.1 121.2,28.5 "/>
<polygon class="st11" points="257.4,119.2 254.2,129.4 232.2,144.6 206.8,156.9 189.5,157.9 189.7,159.9 206.9,158.9 233.4,146.7 
	255.4,130.4 257.6,121.2 "/>
<polygon class="st12" points="166.4,137.5 114.9,84.6 67.6,68.2 67.2,75.4 "/>
<polygon class="st4" points="115.2,84.6 109.5,101.9 104.8,99 110.9,83.2 "/>
<linearGradient id="SVGID_5_" gradientUnits="userSpaceOnUse" x1="-1502.8401" y1="236.87" x2="-1478.6283" y2="236.87" gradientTransform="matrix(-1 0 9.000000e-02 1 -1316.8199 -70.84)">
	<stop  offset="0" style="stop-color:#52C7EA;stop-opacity:0.7"/>
	<stop  offset="1" style="stop-color:#000000"/>
</linearGradient>
<polygon class="st13" points="205.1,173.2 206.9,158.9 189.7,159.9 182.8,159.9 189.8,173.2 "/>
<path class="st2" d="M172.4,217.6c-0.1-0.1-0.1-0.2-0.2-0.3l0,0l-30.3-52.6l-19.2,11.1l30.4,52.6l0,0c0,0.1,0.1,0.2,0.1,0.3
	c1.7,3,7.5,3,12.8-0.1S174.1,220.6,172.4,217.6z"/>
<ellipse transform="matrix(0.866 -0.5 0.5 0.866 -67.3122 88.8414)" class="st2" cx="132.1" cy="170" rx="11.1" ry="6.3"/>
<linearGradient id="SVGID_6_" gradientUnits="userSpaceOnUse" x1="124.0876" y1="47.1254" x2="144.3279" y2="47.1254" gradientTransform="matrix(1 0 0 -1 -2.0835 217.1525)">
	<stop  offset="0" style="stop-color:#52C7EA;stop-opacity:0.7"/>
	<stop  offset="1" style="stop-color:#000000"/>
</linearGradient>
<path class="st14" d="M129,164.6c5.3-3.1,11-3.1,12.8-0.1c1.7,3-1.1,7.9-6.5,11c-5.3,3.1-11,3.1-12.8,0.1S123.7,167.6,129,164.6z"/>
<path class="st2" d="M133,171.3l-0.2,0.1c-2.3,1.3-5.3,0.5-6.7-1.8l-10-17.4c-1.3-2.3-0.5-5.3,1.8-6.7l0.2-0.1
	c2.3-1.3,5.3-0.5,6.7,1.8l10,17.4C136.2,167,135.4,170,133,171.3C133,171.3,133,171.3,133,171.3z"/>
<path class="st2" d="M141.4,105c-2.1-13.9-6.9-27.2-14-39.3c-11.2-19.4-27.5-35.3-44.2-41.2c-8.3-3-15.8-3.1-22-0.8l0,0
	c-1.9,0.6-3.6,1.5-5.3,2.6L44.5,32v0.9l2.2,4.1c-4.2,8.3,28.9-10.9,30.8,2.6c1.3,9.4,26.2,21.1,30.2,30.1c7.9-7.6,13,36.4,19.9,49.2
	c2.4,0.8-21.9,33.1-19.7,33.5l2.7,5.1l11.7-5.8c2.3-0.7,4.5-1.8,6.5-3.3l0,0C139.2,141.2,144.3,125.6,141.4,105z"/>
<path class="st12" d="M39.5,103.7c-4-8.9-6.7-18.2-8.2-27.8C26.4,41,44.5,20.6,71.7,30.2c16.7,5.9,33,21.8,44.2,41.2
	c7.1,12.1,11.9,25.5,14,39.3c4.9,34.8-13.1,55.3-40.4,45.6C69.7,149.4,50.4,128.2,39.5,103.7z"/>
<path class="st2" d="M117.4,143.2c-6.5,6.6-16.1,8.6-27.7,4.5c-17.6-6.2-34.7-24.9-44.2-46.6c-3.5-7.8-6-16.1-7.2-24.6
	c-3.1-22.2,4.3-37.8,17.6-41.6c-7,7.2-10.3,19.8-8,35.9c1.3,8.5,3.7,16.8,7.2,24.6c9.6,21.7,26.7,40.4,44.3,46.6
	C106.1,144.3,112.2,144.6,117.4,143.2z"/>
<path class="st10" d="M58.9,27.8v10.1c3.2,0.1,6.4,0.7,9.5,1.8c13.9,4.9,28.4,18.6,38.8,36.7c6.5,11,10.8,23.1,12.7,35.7
	c1.9,13.6-0.1,25-5.6,31.3c-3,3.5-7.4,5.4-12,5.2c-3.2-0.1-6.5-0.7-9.5-1.8c-8.1-2.9-16.6-8.8-24.4-17.2c-8.2-8.9-14.8-19-19.7-30.1
	c-3.6-8-6.1-16.5-7.4-25.2c-1.9-13.6,0.1-25,5.6-31.3c3-3.5,7.4-5.4,12-5.2L58.9,27.8 M58.9,27.8c-19.8,0-31.6,19-27.5,48
	c1.4,9.6,4.2,19,8.2,27.8c10.8,24.5,30.1,45.7,50.1,52.7c4.1,1.5,8.5,2.3,12.8,2.4c19.8,0,31.6-19,27.5-48
	c-2.1-13.9-6.9-27.2-14-39.3C104.7,52,88.4,36.2,71.7,30.2C67.6,28.7,63.3,27.9,58.9,27.8L58.9,27.8z"/>
<path class="st15" d="M49.4,100.2C46,92.7,43.5,84.8,42,76.7C36.8,47.4,50,31,71.4,40.1c13.2,5.6,26.3,19.5,35.8,36.1
	c6,10.4,10.1,21.7,12.4,33.4c5.1,29.3-8,45.7-29.5,36.6C74.4,139.5,58.7,121.2,49.4,100.2z"/>
<linearGradient id="SVGID_7_" gradientUnits="userSpaceOnUse" x1="86.9967" y1="152.8537" x2="51.7967" y2="246.6837" gradientTransform="matrix(1 0 0 1 -2.08 -70.84)">
	<stop  offset="0" style="stop-color:#52C7EA;stop-opacity:0.7"/>
	<stop  offset="1" style="stop-color:#000000"/>
</linearGradient>
<path class="st16" d="M58.9,27.8v10.1c3.2,0.1,6.4,0.7,9.5,1.8c13.8,4.9,28.3,18.6,38.8,36.7c6.5,11,10.8,23.1,12.7,35.7
	c1.9,13.6-0.1,25-5.6,31.3c-3,3.5-7.4,5.4-12,5.2c-3.2-0.1-6.4-0.7-9.5-1.8c-8.1-2.9-16.6-8.8-24.4-17.2c-8.2-8.9-14.8-19-19.7-30.1
	c-3.6-8-6.1-16.5-7.4-25.1c-1.9-13.6,0.1-25,5.6-31.3c3-3.5,7.4-5.4,12-5.2L58.9,27.8 M58.9,27.8c-19.8,0-31.6,19-27.5,48
	c1.4,9.6,4.2,19,8.2,27.8c10.8,24.5,30.1,45.7,50.1,52.7c4.1,1.5,8.5,2.3,12.8,2.4c19.8,0,31.6-19,27.5-48
	c-2.1-13.9-6.9-27.2-14-39.3C104.7,52,88.4,36.2,71.7,30.2C67.6,28.7,63.3,27.9,58.9,27.8L58.9,27.8z"/>
<path class="st17" d="M101.1,148.9c-3.4,0-7.2-0.8-11.2-2.5c-15.2-6.5-31.2-24.6-40.8-46.1l0,0c-3.4-7.5-5.9-15.5-7.4-23.6
	c-2.9-16.5-0.1-29.4,7.6-35.6c5.6-4.5,13.2-4.8,22-1.1c12.7,5.4,26,18.9,35.8,36.2c6,10.4,10.2,21.6,12.4,33.4
	c2.9,16.5,0.1,29.4-7.6,35.6C108.9,147.7,105.2,148.9,101.1,148.9z M60.2,37.7c-4.1,0-7.6,1.2-10.7,3.6c-7.7,6.1-10.4,19-7.5,35.3
	c1.5,8.1,4,16,7.4,23.5l0,0c9.6,21.4,25.5,39.5,40.6,45.9c8.7,3.7,16.3,3.3,21.8-1.1c7.6-6.1,10.4-19,7.5-35.3
	c-2.2-11.8-6.4-23-12.3-33.4c-9.7-17.2-23.1-30.7-35.7-36.1C67.3,38.6,63.6,37.7,60.2,37.7z"/>
<ellipse transform="matrix(0.898 -0.4401 0.4401 0.898 -22.4132 39.4483)" class="st18" cx="73.9" cy="68.1" rx="6.5" ry="12.3"/>
<ellipse transform="matrix(0.898 -0.4401 0.4401 0.898 -26.127 48.1342)" class="st19" cx="90.7" cy="80.4" rx="5.4" ry="10.3"/>
<ellipse transform="matrix(0.898 -0.4401 0.4401 0.898 -34.3678 54.2147)" class="st20" cx="99.7" cy="101.2" rx="4.9" ry="9.3"/>
<ellipse transform="matrix(0.898 -0.4401 0.4401 0.898 -41.6692 54.8195)" class="st21" cx="97.4" cy="117.3" rx="4.3" ry="8.2"/>
<ellipse transform="matrix(0.898 -0.4401 0.4401 0.898 -44.3921 51.1994)" class="st22" cx="88.2" cy="121.3" rx="3.8" ry="7.2"/>
<ellipse transform="matrix(0.898 -0.4401 0.4401 0.898 -42.4299 45.5131)" class="st23" cx="76.9" cy="114.2" rx="3.2" ry="6.2"/>
<ellipse transform="matrix(0.898 -0.4401 0.4401 0.898 -38.5136 40.7473)" class="st24" cx="68.6" cy="103.4" rx="2.7" ry="5.2"/>
<ellipse transform="matrix(0.898 -0.4401 0.4401 0.898 -33.9847 36.7477)" class="st25" cx="62.2" cy="91.7" rx="2.2" ry="4.1"/>
<ellipse transform="matrix(0.898 -0.4401 0.4401 0.898 -29.2855 35.2964)" class="st26" cx="61.5" cy="80.8" rx="1.9" ry="3.6"/>
<ellipse transform="matrix(0.898 -0.4401 0.4401 0.898 -25.2375 34.9666)" class="st27" cx="62.8" cy="71.9" rx="1.6" ry="3.1"/>
</svg>
