<?xml version="1.0" encoding="utf-8"?>
<!-- Generator: Adobe Illustrator 24.2.3, SVG Export Plug-In . SVG Version: 6.00 Build 0)  -->
<svg version="1.1" xmlns="http://www.w3.org/2000/svg" xmlns:xlink="http://www.w3.org/1999/xlink" x="0px" y="0px"
	 viewBox="0 0 320 320" style="enable-background:new 0 0 320 320;" xml:space="preserve" width="320" height="320">
<style type="text/css">
	.st0{fill:#162535;}
	.st1{fill:#05131C;}
	.st2{fill:#0A1A2B;}
	.st3{fill:#162535;stroke:#162535;stroke-width:3;stroke-linecap:round;stroke-linejoin:round;stroke-miterlimit:10;}
	.st4{opacity:0.3;fill:url(#SVGID_1_);}
	.st5{opacity:0.3;fill:url(#SVGID_2_);}
	.st6{fill:#EC432D;}
	.st7{opacity:0.21;fill:url(#SVGID_3_);}
	.st8{fill:#192B3D;}
	.st9{fill:#244D72;}
	.st10{opacity:0.2;fill:#4BC7EC;}
	.st11{opacity:0.3;fill:url(#SVGID_4_);}
	.st12{fill:#4BC7EC;}
	.st13{opacity:0.9;fill:#4BC7EC;}
	.st14{opacity:0.8;fill:#4BC7EC;}
	.st15{opacity:0.7;fill:#4BC7EC;}
	.st16{opacity:0.6;fill:#4BC7EC;}
	.st17{opacity:0.55;fill:#4BC7EC;}
	.st18{opacity:0.5;fill:#4BC7EC;}
	.st19{opacity:0.45;fill:#4BC7EC;}
	.st20{opacity:0.4;fill:#4BC7EC;}
	.st21{opacity:0.35;fill:#4BC7EC;}
</style>
<g id="Layer_1">
	<g>
		<polyline class="st0" points="183.11,212.72 208.15,206.04 179.55,185.57 171.35,199.74 183.11,212.72 		"/>
		<polyline class="st0" points="28.99,124.19 34.58,120.65 41.87,123.01 55.06,125.37 54.34,117.11 33.14,104.12 27.24,104.12 
			28.99,124.19 		"/>
		<path class="st1" d="M210.45,251.03l15.58-6.44c0,0,5.08-9.44,1.89-18.89s-25.01-29.51-25.01-29.51l-8.82,7.08l-6.64,3.98
			L210.45,251.03z"/>
		
			<ellipse transform="matrix(0.8474 -0.531 0.531 0.8474 -90.8912 141.2276)" class="st2" cx="200.22" cy="228.72" rx="14.13" ry="24.98"/>
		
			<ellipse transform="matrix(0.8474 -0.531 0.531 0.8474 -90.8912 141.2276)" class="st0" cx="200.22" cy="228.72" rx="5.79" ry="10.24"/>
		<line class="st3" x1="189.7" y1="211.54" x2="208.38" y2="243.32"/>
		<line class="st3" x1="209.97" y1="223.61" x2="191.59" y2="233.23"/>
		<path class="st1" d="M58.03,166.93l15.58-6.44c0,0,5.08-9.44,1.89-18.89c-3.19-9.44-25.01-29.51-25.01-29.51l-8.82,7.08
			l-6.64,3.98L58.03,166.93z"/>
		
			<ellipse transform="matrix(0.8474 -0.531 0.531 0.8474 -69.4948 47.4551)" class="st2" cx="47.8" cy="144.61" rx="14.13" ry="24.98"/>
		
			<ellipse transform="matrix(0.8474 -0.531 0.531 0.8474 -69.4948 47.4551)" class="st0" cx="47.8" cy="144.61" rx="5.79" ry="10.24"/>
		<line class="st3" x1="37.28" y1="127.44" x2="55.96" y2="159.22"/>
		<line class="st3" x1="57.55" y1="139.51" x2="39.18" y2="149.13"/>
		<polygon class="st0" points="157.88,59.27 86.52,26.22 8.02,73.43 227.55,208 247.62,208 303.64,173.77 307.13,159.6 204.7,81.7 
					"/>
		<polygon class="st0" points="227.55,208 228.44,231.61 217.03,209.18 194.54,195.02 188.44,192.66 179.15,208 82.33,153.7 
			65.48,123.01 36.78,105.31 29.45,115.93 14.56,107.67 8.02,73.43 		"/>
		<polygon class="st0" points="307.13,159.6 307.5,177.31 306.48,192.66 245.83,228.07 228.23,229.25 226.37,208 247.62,208 
			303.64,173.77 		"/>
		<polygon class="st2" points="306.31,177.31 307.7,179.67 309.15,196.2 245.27,235.15 226.39,235.15 224.69,229.25 213.49,209.18 
			187.64,193.98 180.22,206.23 183.11,212.72 83.72,156.06 80.18,156.06 60.86,124.19 34.57,108.51 29.55,117.11 28.99,124.19 
			12.51,111.21 12.1,106.49 13.95,104.45 29.35,114.75 36.58,102.94 66.45,120.65 80.63,147.8 83.41,152.52 179.05,206.82 
			189.31,189.11 216.72,205.64 228.02,226.89 245.73,226.89 305.19,191.48 		"/>
		
			<linearGradient id="SVGID_1_" gradientUnits="userSpaceOnUse" x1="-315.2394" y1="132.4548" x2="-180.6719" y2="132.4548" gradientTransform="matrix(-1 0 0.0875 1 -49.2261 0)">
			<stop  offset="0" style="stop-color:#52C7EA;stop-opacity:0.7"/>
			<stop  offset="1" style="stop-color:#000000"/>
		</linearGradient>
		<polygon class="st4" points="278.22,139.54 204.13,183.21 142,120.65 204.7,81.7 		"/>
		
			<linearGradient id="SVGID_2_" gradientUnits="userSpaceOnUse" x1="-246.7752" y1="89.9599" x2="-127.5532" y2="89.9599" gradientTransform="matrix(-1 0 0.0875 1 -49.2261 0)">
			<stop  offset="0" style="stop-color:#52C7EA;stop-opacity:0.7"/>
			<stop  offset="1" style="stop-color:#000000"/>
		</linearGradient>
		<polygon class="st5" points="204.7,81.7 156.7,59.27 87.23,101.76 142,120.65 		"/>
		<polyline class="st2" points="149.62,59.27 86.92,98.22 17.36,72.25 86.94,30.94 148.44,59.27 		"/>
		<polygon class="st6" points="306.36,164.33 302.67,176.13 277.07,193.84 247.62,208 227.65,209.18 227.86,211.54 247.82,210.36 
			278.46,196.2 303.95,177.31 306.57,166.69 		"/>
		<polygon class="st2" points="200.8,185.57 141.13,124.19 86.36,105.31 85.9,113.57 		"/>
		<polygon class="st0" points="141.56,124.2 134.97,144.32 129.53,140.91 136.55,122.67 		"/>
		
			<linearGradient id="SVGID_3_" gradientUnits="userSpaceOnUse" x1="-278.6465" y1="218.6252" x2="-250.5788" y2="218.6252" gradientTransform="matrix(-1 0 0.0875 1 -49.2261 0)">
			<stop  offset="0" style="stop-color:#52C7EA;stop-opacity:0.7"/>
			<stop  offset="1" style="stop-color:#000000"/>
		</linearGradient>
		<polygon class="st7" points="245.73,226.89 247.82,210.36 227.86,211.54 219.86,211.54 228.02,226.89 		"/>
	</g>
</g>
<g id="Layer_3">
	<g>
		<g>
			<path class="st0" d="M207.79,278.32c-0.06-0.1-0.14-0.19-0.2-0.29l0.03-0.02l-35.18-60.94l-22.28,12.86l35.18,60.94l0.01-0.01
				c0.05,0.11,0.1,0.21,0.16,0.31c2.02,3.5,8.64,3.45,14.8-0.1C206.46,287.54,209.81,281.82,207.79,278.32z"/>
			
				<ellipse transform="matrix(0.866 -0.5 0.5 0.866 -90.0414 110.4874)" class="st0" cx="161.15" cy="223.26" rx="12.86" ry="7.31"/>
			<path class="st1" d="M162.07,224.85L162.07,224.85c-2.77,1.6-6.32,0.65-7.92-2.12l-11.48-19.88c-1.6-2.77-0.65-6.32,2.12-7.92
				l0,0c2.77-1.6,6.32-0.65,7.92,2.12l11.48,19.88C165.79,219.7,164.84,223.25,162.07,224.85z"/>
			<path class="st8" d="M171.91,147.88c-2.2-15.6-8.07-31.41-16.26-45.59c-13-22.51-31.85-40.88-51.21-47.73
				c-9.66-3.42-18.32-3.56-25.53-0.97v0l0,0c-2.14,0.77-4.16,1.78-6.03,3.02l-13.27,6.66v1.02l2.52,4.75
				c-4.88,9.58-6.69,22.74-4.47,38.42c1.54,10.85,4.85,21.81,9.47,32.24c12.58,28.39,34.93,52.92,58,61.08
				c2.73,0.97,5.39,1.67,7.95,2.12l3.13,5.91l13.56-6.76c2.74-0.88,5.28-2.15,7.59-3.79l0,0l0,0
				C169.33,189.83,175.29,171.78,171.91,147.88z"/>
			<path class="st9" d="M53.81,146.37c-4.62-10.43-7.93-21.39-9.47-32.24c-5.71-40.37,15.23-64.06,46.78-52.89
				c19.36,6.85,38.21,25.22,51.21,47.73c8.2,14.18,14.06,29.98,16.26,45.59c5.72,40.38-15.23,64.06-46.78,52.89
				C88.74,199.3,66.39,174.76,53.81,146.37z"/>
			<path class="st0" d="M144.11,192.11c-7.5,7.61-18.7,9.94-32.04,5.21c-20.4-7.21-40.17-28.91-51.29-54.01
				c-4.09-9.22-7.02-18.92-8.38-28.52c-3.64-25.71,4.95-43.77,20.47-48.17c-8.19,8.31-11.97,22.93-9.33,41.56
				c1.36,9.6,4.28,19.29,8.38,28.51c11.12,25.1,30.89,46.8,51.29,54.01C131,193.47,138.08,193.81,144.11,192.11z"/>
			<path class="st2" d="M76.24,58.48v11.67c3.37,0,7.06,0.7,10.99,2.09c16.06,5.68,32.88,21.59,45,42.57
				c7.76,13.42,12.88,27.73,14.81,41.38c2.23,15.74-0.13,28.96-6.48,36.27c-3.5,4.04-8.17,6.08-13.86,6.08c-3.37,0-7.07-0.7-11-2.1
				c-9.4-3.32-19.19-10.22-28.31-19.93c-9.24-9.85-17.16-21.9-22.91-34.87c-4.35-9.8-7.23-19.61-8.58-29.15
				c-2.23-15.74,0.14-28.96,6.49-36.27c3.5-4.04,8.17-6.08,13.86-6.08L76.24,58.48 M76.24,58.48c-22.93,0-36.65,22.05-31.9,55.65
				c1.54,10.85,4.85,21.81,9.47,32.24c12.58,28.39,34.93,52.92,58,61.08c5.29,1.87,10.27,2.76,14.89,2.76
				c22.93,0,36.65-22.04,31.89-55.66c-2.2-15.6-8.07-31.41-16.26-45.59c-13-22.51-31.85-40.88-51.21-47.73
				C85.84,59.37,80.86,58.48,76.24,58.48L76.24,58.48z"/>
		</g>
		<path class="st10" d="M64.89,142.48c-4.02-8.92-7.04-18.23-8.66-27.38c-6.04-34.04,9.43-53.07,34.56-42.49
			c15.41,6.49,30.88,22.62,41.93,41.98c6.96,12.2,12.17,25.67,14.5,38.82c6.04,34.05-9.43,53.07-34.56,42.49
			C94.28,188.18,75.83,166.76,64.89,142.48z"/>
		<path class="st10" d="M130.22,191.18c-0.21,0.35-0.93,0.15-0.86-0.25c1.61-9.7,7.6-50.04-16.63-83.57
			c-0.2-0.28,0.24-0.5,0.51-0.26C122,115.26,154.61,149.72,130.22,191.18z"/>
	</g>
	<linearGradient id="SVGID_4_" gradientUnits="userSpaceOnUse" x1="43.4036" y1="134.3566" x2="159.5371" y2="134.3566">
		<stop  offset="0" style="stop-color:#52C7EA;stop-opacity:0.7"/>
		<stop  offset="1" style="stop-color:#000000"/>
	</linearGradient>
	<path class="st11" d="M76.24,58.49v11.67c3.37,0,7.06,0.7,10.99,2.09c16.06,5.68,32.88,21.59,45,42.57
		c7.76,13.42,12.88,27.73,14.81,41.38c2.23,15.74-0.13,28.96-6.48,36.27c-3.5,4.04-8.17,6.08-13.86,6.08c-3.37,0-7.07-0.7-11-2.1
		c-9.4-3.32-19.19-10.22-28.31-19.93c-9.24-9.85-17.16-21.9-22.91-34.87c-4.35-9.8-7.23-19.61-8.58-29.15
		c-2.23-15.74,0.14-28.96,6.49-36.27c3.5-4.04,8.17-6.08,13.86-6.08L76.24,58.49 M76.24,58.49c-22.93,0-36.65,22.05-31.9,55.65
		c1.54,10.85,4.85,21.81,9.47,32.24c12.58,28.39,34.93,52.92,58,61.08c5.29,1.87,10.27,2.76,14.89,2.76
		c22.93,0,36.65-22.04,31.89-55.66c-2.2-15.6-8.07-31.41-16.26-45.59c-13-22.51-31.85-40.88-51.21-47.73
		C85.84,59.38,80.86,58.49,76.24,58.49L76.24,58.49z"/>
	<g>
		
			<ellipse transform="matrix(0.898 -0.4401 0.4401 0.898 -36.9462 50.8271)" class="st12" cx="91.13" cy="105.09" rx="7.46" ry="14.22"/>
		
			<ellipse transform="matrix(0.898 -0.4401 0.4401 0.898 -41.2243 60.8309)" class="st13" cx="110.57" cy="119.31" rx="6.22" ry="11.85"/>
		
			<ellipse transform="matrix(0.898 -0.4401 0.4401 0.898 -50.7094 67.8321)" class="st14" cx="120.92" cy="143.27" rx="5.59" ry="10.66"/>
		
			<ellipse transform="matrix(0.898 -0.4401 0.4401 0.898 -59.1196 68.5248)" class="st15" cx="118.21" cy="161.75" rx="4.97" ry="9.48"/>
		
			<ellipse transform="matrix(0.898 -0.4401 0.4401 0.898 -62.2561 64.3592)" class="st16" cx="107.66" cy="166.43" rx="4.35" ry="8.29"/>
		
			<ellipse transform="matrix(0.898 -0.4401 0.4401 0.898 -59.9964 57.8102)" class="st17" cx="94.67" cy="158.28" rx="3.73" ry="7.11"/>
		
			<ellipse transform="matrix(0.898 -0.4401 0.4401 0.898 -55.4879 52.3272)" class="st18" cx="85.1" cy="145.82" rx="3.11" ry="5.92"/>
		
			<ellipse transform="matrix(0.898 -0.4401 0.4401 0.898 -50.27 47.7151)" class="st19" cx="77.76" cy="132.26" rx="2.49" ry="4.74"/>
		
			<ellipse transform="matrix(0.898 -0.4401 0.4401 0.898 -44.859 46.0459)" class="st20" cx="76.87" cy="119.76" rx="2.18" ry="4.15"/>
		
			<ellipse transform="matrix(0.898 -0.4401 0.4401 0.898 -40.1997 45.6702)" class="st21" cx="78.39" cy="109.52" rx="1.86" ry="3.55"/>
	</g>
</g>
</svg>
