<?xml version="1.0" encoding="utf-8"?>
<!-- Generator: Adobe Illustrator 24.3.0, SVG Export Plug-In . SVG Version: 6.00 Build 0)  -->
<svg version="1.1" id="Layer_1" xmlns="http://www.w3.org/2000/svg" xmlns:xlink="http://www.w3.org/1999/xlink" x="0px" y="0px"
	 viewBox="0 0 480 480" style="enable-background:new 0 0 480 480;" xml:space="preserve">
<style type="text/css">
	.st0{opacity:0.1;fill:#52C7EA;}
	.st1{opacity:0.4;}
	.st2{fill:#0A1A2B;}
	.st3{fill:#4BC7EC;}
	.st4{opacity:0.2;}
	.st5{fill:#162535;}
	.st6{fill:none;}
	.st7{fill:#05131C;}
	.st8{fill:#52C7EA;}
	.st9{enable-background:new    ;}
	.st10{clip-path:url(#SVGID_2_);}
	.st11{clip-path:url(#SVGID_4_);fill:#4BC7EC;}
	.st12{opacity:0.2;fill:#4BC7EC;}
	.st13{fill:#EC432D;}
	.st14{opacity:0.7;fill:#4BC7EC;enable-background:new    ;}
	.st15{fill:#161B20;}
	.st16{opacity:0.2;fill:#4BC7EC;enable-background:new    ;}
	.st17{opacity:0.3;fill:url(#SVGID_5_);}
	.st18{fill:url(#SVGID_6_);}
	.st19{fill:url(#SVGID_7_);}
	.st20{fill:url(#SVGID_8_);}
	.st21{fill:url(#SVGID_9_);}
	.st22{fill:url(#SVGID_10_);}
	.st23{fill:url(#SVGID_11_);}
	.st24{fill:url(#SVGID_12_);}
	.st25{fill:url(#SVGID_13_);}
	.st26{fill:url(#SVGID_14_);}
	.st27{fill:url(#SVGID_15_);}
	.st28{fill:url(#SVGID_16_);}
	.st29{fill:url(#SVGID_17_);}
	.st30{fill:url(#SVGID_18_);}
	.st31{fill:url(#SVGID_19_);}
	.st32{fill:url(#SVGID_20_);}
	.st33{fill:url(#SVGID_21_);}
	.st34{fill:url(#SVGID_22_);}
	.st35{fill:url(#SVGID_23_);}
	.st36{fill:url(#SVGID_24_);}
	.st37{fill:url(#SVGID_25_);}
	.st38{fill:url(#SVGID_26_);}
	.st39{fill:url(#SVGID_27_);}
	.st40{clip-path:url(#SVGID_29_);}
	.st41{opacity:0.3;fill:url(#SVGID_30_);enable-background:new    ;}
	.st42{opacity:0.3;fill:url(#SVGID_31_);enable-background:new    ;}
	.st43{opacity:0.3;fill:url(#SVGID_32_);enable-background:new    ;}
	.st44{opacity:0.3;fill:url(#SVGID_33_);enable-background:new    ;}
</style>
<path id="Path_429_" class="st0" d="M176.4,465.3L14.9,371.7c-4.2-2.5-4.2-8.6,0-11L270.4,213c10-5.8,22.3-5.8,32.3,0l161.5,93.6
	c4.2,2.5,4.2,8.6,0,11L208.7,465.3C198.7,471.1,186.4,471.1,176.4,465.3z"/>
<g>
	<g class="st1">
		<path id="Path_427_" class="st2" d="M177.7,450.7L16.2,357.1c-4.2-2.5-4.2-8.6,0-11l255.5-147.7c10-5.8,22.3-5.8,32.3,0L465.5,292
			c4.2,2.5,4.2,8.6,0,11L210,450.7C200,456.5,187.7,456.4,177.7,450.7z"/>
		<path class="st3" d="M193.9,455.1c-5.6,0-11.2-1.4-16.2-4.3L16.2,357.2c-2-1.2-3.2-3.3-3.2-5.6c0-2.3,1.2-4.5,3.2-5.6l255.5-147.7
			c10-5.8,22.4-5.8,32.4,0l161.5,93.6c2,1.2,3.2,3.3,3.2,5.6c0,2.3-1.2,4.5-3.3,5.6L210.1,450.8
			C205.1,453.7,199.5,455.1,193.9,455.1z M177.8,450.5c9.9,5.7,22.2,5.7,32.1,0l255.5-147.7c1.9-1.1,3.1-3.1,3.1-5.4
			c0-2.2-1.2-4.3-3.1-5.4l-161.5-93.6c-9.9-5.7-22.2-5.7-32.1,0L16.3,346.2c-1.9,1.1-3.1,3.1-3.1,5.4c0,2.2,1.2,4.3,3.1,5.4
			L177.8,450.5z"/>
	</g>
	<g>
		<path id="Path_426_" class="st2" d="M177.7,436.2L16.2,342.6c-4.2-2.5-4.2-8.6,0-11l255.5-147.7c10-5.8,22.3-5.8,32.3,0
			l161.5,93.6c4.2,2.5,4.2,8.6,0,11L210,436.2C200,442,187.7,442,177.7,436.2z"/>
		<path class="st3" d="M193.9,440.7c-5.6,0-11.2-1.4-16.2-4.3L16.2,342.7c-2-1.2-3.2-3.3-3.2-5.6s1.2-4.5,3.2-5.6l255.5-147.7
			c10-5.8,22.4-5.8,32.4,0l161.5,93.6c2,1.2,3.2,3.3,3.2,5.6c0,2.3-1.2,4.5-3.3,5.6L210.1,436.3
			C205.1,439.2,199.5,440.7,193.9,440.7z M287.8,179.7c-5.5,0-11.1,1.4-16,4.3L16.3,331.7c-1.9,1.1-3.1,3.1-3.1,5.4s1.2,4.3,3.1,5.4
			l161.5,93.6c9.9,5.7,22.2,5.7,32.1,0l255.5-147.7c1.9-1.1,3.1-3.1,3.1-5.4c0-2.2-1.2-4.3-3.1-5.4L303.9,184
			C298.9,181.2,293.4,179.7,287.8,179.7z"/>
	</g>
	<g id="core_2_">
		<g id="grafika_2_" transform="translate(0.000000, 1.000000)">
			<g id="Group_10_" transform="translate(72.000000, 117.000000)" class="st4">
				<g>
					<polygon id="Path_343_" class="st5" points="263.8,212.4 188.7,168.8 263.8,125.1 338.8,168.8 					"/>
					<path class="st3" d="M263.8,212.6L263.8,212.6l-75.4-43.8l0.3-0.2l75.2-43.7l0.1,0.1l75.3,43.8L263.8,212.6z M189.1,168.8
						l74.7,43.4l74.7-43.4l-74.7-43.4L189.1,168.8z"/>
				</g>
			</g>
			<path id="Path_425_" class="st3" d="M328.2,230c-0.5,0-1-0.2-1.4-0.4l-9.7-5.6l0.1-0.3l9.6,5.6c0.6,0.4,1.3,0.5,1.9,0.2
				c0.6-0.4,0.9-1.1,0.8-1.8v-2.3c-0.2-0.8,0.2-1.6,0.9-2.1c0.7-0.4,1.6-0.3,2.2,0.2l2,1.2l-0.1,0.3l-2-1.2c-0.5-0.5-1.3-0.6-2-0.3
				c-0.6,0.4-1,1.1-0.8,1.9v2.3c0.1,0.8-0.3,1.6-0.9,2.1C328.8,229.9,328.5,230,328.2,230z"/>
			<path id="Path_424_" class="st3" d="M324.4,232.5c-0.5,0-1-0.2-1.4-0.4l-9.6-5.6l0.1-0.3l9.7,5.6c0.5,0.5,1.3,0.6,1.9,0.2
				c0.6-0.4,0.9-1.1,0.8-1.8v-2.3c-0.2-0.8,0.2-1.6,0.9-2.1c0.7-0.4,1.6-0.3,2.2,0.2l2,1.2l-0.1,0.3l-2-1.2c-0.5-0.5-1.3-0.6-2-0.3
				c-0.6,0.4-1,1.1-0.8,1.9v2.3c0.1,0.8-0.3,1.6-0.9,2.1C325,232.4,324.7,232.5,324.4,232.5L324.4,232.5z"/>
			<path id="Path_423_" class="st3" d="M320.6,234.4c-0.5,0-1-0.2-1.4-0.4l-9.7-5.6l0.1-0.3l9.7,5.6c0.5,0.5,1.3,0.6,1.9,0.2
				c0.6-0.4,0.9-1.1,0.8-1.8v-2.3c-0.2-0.8,0.2-1.6,0.9-2.1c0.7-0.4,1.6-0.3,2.2,0.2l2,1.2l-0.1,0.3l-2-1.2
				c-0.6-0.4-1.3-0.5-1.9-0.2c-0.6,0.4-0.9,1.1-0.8,1.8v2.3c0.1,0.8-0.3,1.6-0.9,2.1C321.2,234.3,320.9,234.4,320.6,234.4z"/>
			<path id="Path_422_" class="st3" d="M316.9,236.9c-0.5,0-1-0.2-1.4-0.4l-9.7-5.6l0.1-0.3l9.7,5.6c0.6,0.4,1.3,0.5,1.9,0.2
				c0.6-0.4,0.9-1.1,0.8-1.8v-2.4c-0.2-0.8,0.2-1.6,0.9-2.1c0.7-0.4,1.6-0.3,2.2,0.2l2,1.2l-0.1,0.3l-2-1.2c-0.5-0.5-1.3-0.6-2-0.2
				s-1,1.1-0.8,1.8v2.4c0.1,0.8-0.3,1.6-0.9,2C317.4,236.8,317.1,236.9,316.9,236.9z"/>
			<path id="Path_421_" class="st3" d="M313,238.8c-0.5,0-1-0.2-1.4-0.4l-9.6-5.7l0.1-0.3l9.7,5.6c0.6,0.4,1.3,0.5,1.9,0.2
				c0.6-0.4,0.9-1.1,0.8-1.8v-2.3c-0.2-0.8,0.2-1.7,0.9-2.1c0.7-0.4,1.6-0.3,2.2,0.2l2,1.2l-0.1,0.3l-2-1.2
				c-0.6-0.4-1.3-0.5-1.9-0.2c-0.5,0.4-0.8,1.1-0.7,1.8v2.3c0.1,0.8-0.3,1.6-0.9,2.1C313.7,238.7,313.4,238.8,313,238.8L313,238.8z"
				/>
			<path id="Path_420_" class="st3" d="M309.3,241.3c-0.5,0-1-0.2-1.4-0.4l-9.6-5.6l0.1-0.2l9.6,5.6c0.5,0.5,1.3,0.6,2,0.2
				c0.6-0.4,1-1.1,0.8-1.8v-2.4c-0.2-0.8,0.2-1.7,0.9-2.1s1.6-0.3,2.2,0.2l2,1.2l-0.1,0.3l-2-1.2c-0.6-0.4-1.3-0.5-1.9-0.2
				c-0.6,0.4-0.9,1.1-0.8,1.8v2.4c0.1,0.8-0.3,1.6-0.9,2C309.9,241.3,309.6,241.3,309.3,241.3L309.3,241.3z"/>
			<path id="Path_419_" class="st3" d="M305.5,243.2c-0.5,0-1-0.2-1.4-0.4l-9.7-5.7l0.1-0.3l9.7,5.7c0.6,0.4,1.3,0.5,1.9,0.2
				c0.6-0.4,0.9-1.1,0.8-1.8v-2.4c-0.1-0.8,0.3-1.6,0.9-2.1c0.7-0.3,1.6-0.3,2.2,0.2l2,1.2l-0.1,0.3l-2-1.2
				c-0.5-0.5-1.3-0.6-1.9-0.2c-0.6,0.4-0.9,1.1-0.8,1.8v2.3c0.1,0.8-0.3,1.6-0.9,2.1C306.1,243.2,305.8,243.2,305.5,243.2z"/>
			<path id="Path_418_" class="st3" d="M301.7,245.8c-0.5,0-1-0.2-1.4-0.4l-9.7-5.6l0.1-0.2l9.7,5.6c0.5,0.5,1.3,0.6,1.9,0.2
				c0.6-0.4,0.9-1.1,0.8-1.8v-2.4c-0.2-0.8,0.2-1.6,0.9-2.1c0.7-0.4,1.6-0.3,2.2,0.2l2,1.2l-0.1,0.2l-2-1.2c-0.5-0.5-1.3-0.6-2-0.3
				s-1,1.1-0.8,1.8v2.3c0.1,0.8-0.3,1.6-0.9,2C302.3,245.6,302,245.7,301.7,245.8L301.7,245.8z"/>
			<path id="Path_417_" class="st3" d="M298.3,247.6c-0.5,0-1-0.2-1.4-0.4l-10-5.6l0.2-0.3l10,5.6c0.5,0.5,1.4,0.6,2,0.3
				c0.7-0.4,1-1.1,0.8-1.9V243c-0.2-0.8,0.2-1.6,1-2.1c0.7-0.4,1.7-0.3,2.3,0.2l2.1,1.2l-0.2,0.3l-2.1-1.2c-0.5-0.5-1.4-0.6-2-0.2
				c-0.7,0.4-1,1.1-0.8,1.8v2.4c0.1,0.8-0.3,1.6-0.9,2.1C298.9,247.6,298.6,247.7,298.3,247.6L298.3,247.6z"/>
			<path id="Path_416_" class="st3" d="M294.1,250.2c-0.5,0-1-0.2-1.4-0.4l-9.7-5.6l0.1-0.3l9.7,5.7c0.6,0.4,1.3,0.5,1.9,0.2
				c0.6-0.4,0.9-1.1,0.8-1.8v-2.4c-0.2-0.8,0.2-1.6,0.9-2.1c0.7-0.4,1.6-0.3,2.2,0.2l2,1.2l-0.1,0.3l-2-1.2c-0.5-0.5-1.3-0.6-2-0.2
				c-0.6,0.4-1,1.1-0.8,1.8v2.4c0.1,0.8-0.3,1.6-0.9,2C294.7,250.1,294.4,250.2,294.1,250.2L294.1,250.2z"/>
			<path id="Path_415_" class="st3" d="M290.3,252.1c-0.5,0-1-0.2-1.4-0.4l-9.7-5.6l0.1-0.3l9.7,5.6c0.6,0.4,1.3,0.5,1.9,0.2
				c0.6-0.4,0.9-1.1,0.8-1.8v-2.4c-0.2-0.8,0.2-1.6,0.9-2.1s1.6-0.3,2.2,0.2l2,1.2l-0.1,0.3l-2-1.2c-0.5-0.5-1.3-0.6-2-0.3
				c-0.6,0.4-1,1.1-0.8,1.8v2.4c0.1,0.8-0.3,1.6-0.9,2C290.9,252,290.6,252.1,290.3,252.1z"/>
			<path id="Path_414_" class="st3" d="M286.6,254.6c-0.5,0-1-0.2-1.4-0.4l-9.7-5.6l0.1-0.3l9.7,5.6c0.6,0.4,1.3,0.5,1.9,0.2
				c0.5-0.4,0.8-1.1,0.8-1.8V250c-0.2-0.8,0.2-1.6,0.9-2.1c0.7-0.4,1.6-0.3,2.2,0.2l2,1.2l-0.1,0.3l-2-1.2c-0.6-0.4-1.3-0.5-1.9-0.2
				c-0.6,0.4-0.9,1.1-0.8,1.8v2.4c0.1,0.8-0.3,1.6-0.9,2C287.1,254.5,286.8,254.6,286.6,254.6L286.6,254.6z"/>
			<path id="Path_413_" class="st3" d="M282.7,256.5c-0.5,0-1-0.2-1.4-0.4l-9.6-5.7l0.1-0.3l9.6,5.7c0.5,0.5,1.3,0.6,2,0.3
				c0.6-0.4,1-1.1,0.8-1.9v-2.4c-0.1-0.8,0.3-1.6,0.9-2.1c0.7-0.3,1.6-0.3,2.2,0.2l2,1.2l-0.1,0.3l-2-1.2c-0.5-0.5-1.3-0.6-1.9-0.2
				c-0.6,0.4-0.9,1.1-0.8,1.8v2.4c0.1,0.8-0.3,1.6-0.9,2.1C283.3,256.4,283,256.5,282.7,256.5z"/>
			<path id="Path_412_" class="st3" d="M279,259c-0.5,0-1-0.2-1.4-0.4l-9.7-5.6l0.1-0.3l9.7,5.6c0.5,0.5,1.3,0.6,1.9,0.2
				c0.6-0.4,0.9-1.1,0.8-1.8v-2.3c-0.2-0.8,0.2-1.6,0.9-2.1c0.7-0.4,1.6-0.3,2.2,0.2l2,1.2l-0.1,0.3l-2-1.2c-0.6-0.4-1.3-0.5-2-0.2
				c-0.6,0.4-0.9,1.1-0.8,1.8v2.3c0.1,0.8-0.3,1.6-0.9,2.1C279.5,258.9,279.3,259,279,259L279,259z"/>
			<path id="Path_411_" class="st3" d="M275.2,260.9c-0.5,0-1-0.2-1.4-0.4l-9.6-5.6l0.1-0.3l9.6,5.6c0.5,0.5,1.3,0.6,2,0.2
				c0.6-0.4,1-1.1,0.8-1.8v-2.3c-0.2-0.8,0.2-1.6,0.9-2.1c0.7-0.4,1.6-0.3,2.2,0.2l2,1.2l-0.1,0.3l-2.1-1.2c-0.5-0.5-1.3-0.6-2-0.2
				c-0.6,0.4-1,1.1-0.8,1.8v2.3c0.1,0.8-0.3,1.6-0.9,2.1C275.7,260.8,275.4,260.9,275.2,260.9L275.2,260.9z"/>
			<path id="Path_410_" class="st3" d="M271.4,262.8c-0.5,0-1-0.2-1.4-0.4l-9.6-5.6l0.1-0.3l9.6,5.6c0.5,0.5,1.3,0.6,2,0.3
				c0.6-0.4,1-1.1,0.8-1.8v-2.4c-0.2-0.8,0.2-1.6,0.9-2.1c0.7-0.4,1.6-0.3,2.2,0.2l2,1.2l-0.1,0.3l-2-1.1c-0.6-0.4-1.3-0.5-1.9-0.2
				c-0.6,0.4-0.9,1.1-0.8,1.8v2.4c0.1,0.8-0.3,1.6-0.9,2C272,262.7,271.7,262.8,271.4,262.8z"/>
			<path id="Path_409_" class="st3" d="M267.6,265.3c-0.5,0-1-0.2-1.4-0.4l-9.6-5.6l0.1-0.3l9.6,5.6c0.5,0.5,1.3,0.6,2,0.3
				c0.6-0.4,1-1.1,0.8-1.8v-2.4c-0.2-0.8,0.2-1.6,0.9-2.1c0.7-0.4,1.6-0.3,2.2,0.2l2,1.2l-0.1,0.3l-2-1.2c-0.5-0.5-1.3-0.6-2-0.3
				c-0.6,0.4-1,1.1-0.8,1.8v2.4c0.1,0.8-0.3,1.6-0.9,2C268.2,265.2,267.9,265.3,267.6,265.3z"/>
			<path id="Path_408_" class="st3" d="M263.5,267.2c-0.5,0-1-0.2-1.4-0.4l-10-5.6l0.1-0.3l10,5.7c0.5,0.5,1.4,0.6,2,0.3
				c0.7-0.4,1-1.1,0.8-1.9v-2.4c-0.2-0.8,0.2-1.6,1-2.1c0.7-0.4,1.7-0.3,2.3,0.2l2.1,1.2l-0.2,0.3l-2.1-1.2c-0.5-0.5-1.4-0.6-2-0.3
				c-0.7,0.4-1,1.1-0.8,1.9v2.4c0.1,0.8-0.3,1.6-0.9,2C264.2,267.2,263.8,267.2,263.5,267.2z"/>
			<path id="Path_407_" class="st3" d="M260,269.7c-0.5,0-1-0.2-1.4-0.4l-9.6-5.7l0.1-0.3l9.6,5.7c0.5,0.5,1.3,0.6,2,0.3
				c0.6-0.4,1-1.1,0.8-1.9v-2.4c-0.1-0.8,0.3-1.6,0.9-2.1c0.7-0.3,1.6-0.3,2.2,0.2l2,1.2l-0.1,0.3l-2-1.2c-0.6-0.4-1.3-0.5-1.9-0.2
				c-0.6,0.4-0.9,1.1-0.8,1.8v2.4c0.1,0.8-0.3,1.6-0.9,2.1C260.6,269.7,260.3,269.8,260,269.7L260,269.7z"/>
			<path id="Path_406_" class="st3" d="M256,271.6c-0.5,0-1-0.2-1.4-0.4l-10-5.7l0.2-0.3l10,5.7c0.5,0.5,1.4,0.6,2,0.3
				c0.7-0.4,1-1.1,0.8-1.9V267c-0.1-0.8,0.3-1.6,0.9-2.1c0.7-0.3,1.6-0.3,2.3,0.2l2.1,1.2l-0.2,0.3l-2.1-1.2c-0.5-0.5-1.4-0.6-2-0.3
				c-0.7,0.4-1,1.1-0.8,1.9v2.4c0.1,0.8-0.3,1.6-0.9,2.1C256.6,271.6,256.3,271.6,256,271.6z"/>
			<path id="Path_405_" class="st3" d="M344,230.6c-0.3,0-0.6-0.1-0.8-0.2c-0.6-0.5-1-1.3-0.9-2.1V226c0.2-0.7-0.2-1.5-0.8-1.8
				c-0.6-0.4-1.4-0.3-2,0.2l-2,1.2l-0.1-0.3l2-1.2c0.6-0.5,1.5-0.6,2.2-0.2s1.1,1.3,0.9,2.1v2.4c-0.2,0.7,0.2,1.5,0.8,1.8
				c0.6,0.4,1.4,0.3,2-0.2l9.6-5.7l0.1,0.3l-9.6,5.6C345,230.4,344.5,230.6,344,230.6z"/>
			<path id="Path_404_" class="st3" d="M347.2,232.5c-0.3,0-0.6-0.1-0.8-0.2c-0.6-0.5-1-1.3-0.9-2.1v-2.4c0.2-0.7-0.2-1.5-0.8-1.8
				c-0.6-0.4-1.4-0.3-2,0.2l-2,1.2l-0.1-0.3l2-1.2c0.6-0.5,1.5-0.6,2.2-0.2s1.1,1.3,0.9,2.1v2.4c-0.2,0.7,0.2,1.5,0.8,1.8
				c0.6,0.4,1.4,0.3,2-0.2l9.6-5.7l0.1,0.3l-9.6,5.7C348.2,232.3,347.7,232.5,347.2,232.5z"/>
			<path id="Path_403_" class="st3" d="M351,235c-0.3,0-0.6-0.1-0.8-0.2c-0.6-0.5-1-1.2-0.9-2v-2.4c0.1-0.7-0.2-1.4-0.8-1.8
				c-0.6-0.3-1.4-0.2-1.9,0.2l-2,1.2l-0.1-0.3l2-1.2c0.6-0.5,1.5-0.6,2.2-0.2s1.1,1.2,0.9,2.1v2.4c-0.2,0.7,0.1,1.5,0.8,1.8
				c0.6,0.4,1.4,0.3,2-0.3l9.6-5.6l0.1,0.3l-9.7,5.7C351.9,234.9,351.4,235,351,235z"/>
			<path id="Path_402_" class="st3" d="M354.8,236.9c-0.3,0-0.6-0.1-0.8-0.2c-0.7-0.5-1-1.2-0.9-2v-2.4c0.1-0.7-0.2-1.4-0.8-1.8
				c-0.6-0.4-1.4-0.3-1.9,0.2l-2,1.2l-0.1-0.3l2-1.2c0.6-0.5,1.5-0.6,2.2-0.2c0.7,0.4,1.1,1.2,0.9,2.1v2.4c-0.1,0.7,0.2,1.4,0.8,1.8
				c0.6,0.3,1.4,0.2,1.9-0.2l9.7-5.6l0.1,0.3l-9.7,5.6C355.7,236.8,355.2,236.9,354.8,236.9z"/>
			<path id="Path_401_" class="st3" d="M358.8,239.4c-0.3,0-0.6-0.1-0.9-0.2c-0.7-0.5-1-1.2-0.9-2v-2.4c0.1-0.7-0.2-1.4-0.8-1.8
				c-0.7-0.3-1.4-0.2-2,0.2l-2.1,1.2l-0.2-0.3l2.1-1.2c0.6-0.5,1.6-0.6,2.3-0.2c0.7,0.4,1.1,1.2,1,2.1v2.4c-0.2,0.7,0.1,1.5,0.8,1.9
				c0.7,0.4,1.5,0.3,2-0.3l10-5.6l0.2,0.3l-10,5.6C359.7,239.3,359.3,239.4,358.8,239.4z"/>
			<path id="Path_400_" class="st3" d="M362.6,241.3c-0.3,0-0.6-0.1-0.9-0.2c-0.7-0.5-1-1.3-0.9-2.1v-2.4c0.2-0.7-0.2-1.5-0.8-1.8
				c-0.7-0.4-1.5-0.3-2,0.2l-2.1,1.2l-0.2-0.3l2.1-1.2c0.6-0.6,1.6-0.6,2.3-0.2s1.1,1.3,1,2.1v2.3c-0.2,0.7,0.1,1.5,0.8,1.9
				c0.7,0.4,1.5,0.3,2-0.3l10-5.6l0.2,0.3l-10,5.7C363.6,241.2,363.1,241.3,362.6,241.3L362.6,241.3z"/>
			<path id="Path_399_" class="st3" d="M366.1,243.2c-0.3,0-0.6-0.1-0.8-0.2c-0.6-0.5-1-1.3-0.9-2.1v-2.4c0.2-0.7-0.2-1.5-0.8-1.8
				s-1.4-0.3-2,0.2l-2,1.2l-0.1-0.3l2-1.2c0.6-0.5,1.5-0.6,2.2-0.2s1.1,1.3,0.9,2.1v2.4c-0.2,0.7,0.2,1.5,0.8,1.8s1.4,0.3,2-0.2
				l9.6-5.7l0.1,0.3l-9.6,5.7C367.1,243,366.6,243.2,366.1,243.2L366.1,243.2z"/>
			<path id="Path_398_" class="st3" d="M369.9,245.8c-0.3,0-0.6-0.1-0.8-0.2c-0.6-0.5-1-1.2-0.9-2v-2.4c0.2-0.7-0.2-1.5-0.8-1.8
				c-0.6-0.4-1.4-0.3-2,0.2l-2,1.2l-0.1-0.3l2-1.2c0.6-0.5,1.5-0.6,2.2-0.2c0.7,0.4,1.1,1.3,0.9,2.1v2.4c-0.2,0.7,0.2,1.5,0.8,1.8
				c0.6,0.4,1.4,0.3,2-0.2l9.6-5.7l0.1,0.3l-9.6,5.7C370.9,245.6,370.4,245.7,369.9,245.8L369.9,245.8z"/>
			<path id="Path_397_" class="st3" d="M373.7,247.6c-0.3,0-0.6-0.1-0.8-0.2c-0.6-0.5-1-1.2-0.9-2V243c0.1-0.7-0.2-1.4-0.8-1.8
				c-0.6-0.3-1.4-0.2-1.9,0.2l-2,1.2l-0.1-0.3l2-1.2c0.6-0.5,1.5-0.6,2.2-0.2s1.1,1.2,0.9,2.1v2.3c-0.2,0.7,0.1,1.5,0.8,1.8
				c0.6,0.4,1.4,0.3,2-0.3l9.6-5.6l0.1,0.3l-9.6,5.6C374.7,247.5,374.2,247.6,373.7,247.6z"/>
			<path id="Path_396_" class="st3" d="M377.5,250.2c-0.3,0-0.6-0.1-0.8-0.2c-0.7-0.5-1-1.2-0.9-2v-2.4c0.1-0.7-0.2-1.4-0.8-1.8
				c-0.6-0.3-1.4-0.2-1.9,0.2l-2,1.2l-0.1-0.3l2-1.2c0.6-0.5,1.5-0.6,2.2-0.2c0.7,0.4,1.1,1.2,0.9,2.1v2.4c-0.2,0.7,0.2,1.4,0.8,1.8
				c0.6,0.4,1.4,0.3,1.9-0.2l9.7-5.6l0.1,0.3l-9.7,5.6C378.4,250,378,250.2,377.5,250.2z"/>
			<path id="Path_395_" class="st3" d="M381.8,252.1c-0.3,0-0.6-0.1-0.8-0.2c-0.6-0.5-1-1.3-0.9-2.1v-2.4c0.2-0.7-0.2-1.5-0.8-1.9
				c-0.6-0.4-1.4-0.3-2,0.2l-1.9,1.2l-0.1-0.3l2-1.2c0.6-0.5,1.5-0.6,2.2-0.2c0.7,0.5,1,1.3,0.9,2.1v2.4c-0.2,0.7,0.1,1.5,0.8,1.9
				c0.6,0.4,1.5,0.3,2-0.3l9.6-5.7l0.1,0.3l-9.6,5.7C382.9,251.9,382.4,252.1,381.8,252.1L381.8,252.1z"/>
			<path id="Path_394_" class="st3" d="M385.3,254.6c-0.3,0-0.6-0.1-0.9-0.2c-0.7-0.5-1-1.3-0.9-2.1V250c0.2-0.7-0.2-1.5-0.8-1.8
				s-1.5-0.3-2,0.2l-2.1,1.2l-0.2-0.3l2.1-1.2c0.6-0.5,1.6-0.6,2.3-0.2c0.7,0.4,1.1,1.3,0.9,2.1v2.4c-0.2,0.7,0.2,1.5,0.8,1.8
				c0.7,0.4,1.5,0.3,2-0.2l10-5.7l0.2,0.3l-10,5.7C386.3,254.4,385.8,254.6,385.3,254.6L385.3,254.6z"/>
			<path id="Path_393_" class="st3" d="M389.1,256.5c-0.3,0-0.6-0.1-0.9-0.2c-0.7-0.5-1-1.3-0.9-2.1v-2.3c0.2-0.7-0.2-1.5-0.8-1.8
				c-0.7-0.4-1.5-0.3-2,0.2l-2.1,1.2l-0.1-0.3l2.1-1.2c0.6-0.5,1.6-0.6,2.3-0.2c0.7,0.4,1.1,1.3,0.9,2.1v2.3
				c-0.2,0.7,0.2,1.5,0.8,1.8c0.7,0.4,1.5,0.3,2-0.2l10-5.7l0.2,0.3l-10,5.7C390.1,256.3,389.6,256.5,389.1,256.5L389.1,256.5z"/>
			<path id="Path_392_" class="st3" d="M393.3,259c-0.3,0-0.6-0.1-0.8-0.2c-0.7-0.5-1-1.2-0.9-2v-2.4c0.2-0.7-0.1-1.5-0.8-1.9
				c-0.6-0.4-1.5-0.3-2,0.3l-2,1.2l-0.1-0.3l2-1.2c0.6-0.5,1.5-0.6,2.2-0.2c0.7,0.4,1.1,1.3,0.9,2.1v2.4c-0.1,0.7,0.2,1.4,0.8,1.8
				c0.6,0.3,1.4,0.2,1.9-0.2l9.7-5.7l0.1,0.3l-9.7,5.7C394.2,258.9,393.8,259,393.3,259z"/>
			<path id="Path_391_" class="st3" d="M397.1,260.9c-0.3,0-0.6-0.1-0.8-0.2c-0.7-0.5-1-1.3-0.9-2.1v-2.4c0.1-0.7-0.2-1.4-0.8-1.8
				c-0.6-0.4-1.4-0.3-1.9,0.2l-2,1.2l-0.1-0.3l2-1.2c0.6-0.5,1.5-0.6,2.2-0.2c0.7,0.4,1.1,1.3,0.9,2.1v2.4c-0.1,0.7,0.2,1.4,0.8,1.8
				c0.6,0.3,1.4,0.2,1.9-0.2l9.7-5.7l0.1,0.3l-9.7,5.7C398,260.8,397.5,260.9,397.1,260.9L397.1,260.9z"/>
			<path id="Path_390_" class="st3" d="M400.9,263.4c-0.3,0-0.6-0.1-0.8-0.2c-0.6-0.5-1-1.2-0.9-2v-2.4c0.2-0.7-0.1-1.5-0.8-1.8
				c-0.6-0.4-1.4-0.3-2,0.3l-2,1.2l-0.1-0.3l2-1.2c0.6-0.5,1.5-0.6,2.2-0.2s1.1,1.2,0.9,2.1v2.4c-0.2,0.7,0.2,1.4,0.8,1.8
				s1.4,0.3,1.9-0.2l9.7-5.6l0.1,0.3l-9.6,5.6C401.9,263.3,401.4,263.4,400.9,263.4L400.9,263.4z"/>
			<path id="Path_389_" class="st3" d="M404.7,265.3c-0.3,0-0.6-0.1-0.8-0.2c-0.6-0.5-1-1.3-0.9-2.1v-2.4c0.2-0.7-0.2-1.5-0.8-1.9
				c-0.6-0.4-1.4-0.3-2,0.2l-2,1.2L398,260l2-1.2c0.6-0.5,1.5-0.6,2.2-0.2c0.6,0.5,1,1.3,0.9,2.1v2.4c-0.2,0.7,0.2,1.5,0.8,1.9
				c0.6,0.4,1.4,0.3,2-0.2l9.6-5.7l0.1,0.3l-9.6,5.7C405.6,265.2,405.1,265.3,404.7,265.3L404.7,265.3z"/>
			<path id="Path_388_" class="st3" d="M408.4,267.9c-0.3,0-0.6-0.1-0.8-0.2c-0.6-0.5-1-1.3-0.9-2.1v-2.4c0.2-0.7-0.2-1.5-0.8-1.9
				s-1.4-0.3-2,0.2l-2,1.2l-0.1-0.3l2-1.2c0.6-0.5,1.5-0.6,2.2-0.2c0.6,0.5,1,1.3,0.9,2.1v2.4c-0.2,0.7,0.2,1.5,0.8,1.9
				c0.6,0.4,1.4,0.3,2-0.3l9.6-5.7l0.1,0.3l-9.6,5.7C409.4,267.7,408.9,267.8,408.4,267.9L408.4,267.9z"/>
			<path id="Path_387_" class="st3" d="M412.2,269.7c-0.3,0-0.6-0.1-0.8-0.2c-0.7-0.5-1-1.3-0.9-2.1v-2.4c0.2-0.7-0.1-1.5-0.8-1.9
				s-1.5-0.3-2,0.3l-2,1.2l-0.1-0.3l2-1.2c0.6-0.5,1.5-0.6,2.2-0.2c0.7,0.4,1.1,1.3,0.9,2.1v2.4c-0.1,0.7,0.2,1.4,0.8,1.8
				c0.6,0.3,1.4,0.2,1.9-0.2l9.7-5.7l0.1,0.3l-9.7,5.6C413.2,269.6,412.7,269.7,412.2,269.7L412.2,269.7z"/>
			<path id="Path_386_" class="st3" d="M416,272.3c-0.3,0-0.6-0.1-0.8-0.2c-0.7-0.5-1-1.3-0.9-2.1v-2.4c0.2-0.7-0.2-1.4-0.8-1.8
				c-0.6-0.4-1.4-0.3-1.9,0.2l-2,1.2l-0.1-0.3l2-1.2c0.6-0.5,1.5-0.6,2.2-0.2c0.7,0.4,1.1,1.3,0.9,2.1v2.4c-0.2,0.7,0.2,1.4,0.8,1.8
				c0.6,0.4,1.4,0.3,1.9-0.2l9.7-5.7l0.1,0.3l-9.7,5.7C416.9,272.1,416.5,272.3,416,272.3L416,272.3z"/>
			<polygon id="Path_385_" class="st5" points="411.3,267.2 411.3,276 336.1,319.6 261,276 261,267.2 			"/>
			<polygon id="Path_384_" class="st6" points="336.1,309.8 261.9,266.6 261,267.1 336.1,310.8 411.3,267.1 410.4,266.6 			"/>
			<path id="Path_383_" class="st3" d="M354.9,329.7l-9.7-5.6c-1.8-1.2-2.9-3.1-3-5.2v-2.3c-0.1-2-1.2-3.9-2.9-5l-2-1.2l0.1-0.2
				l2,1.2c1.8,1.2,2.9,3.1,3,5.2v2.4c0.1,2,1.2,3.9,2.9,5l9.7,5.6L354.9,329.7z"/>
			<path id="Path_382_" class="st3" d="M358.1,327.2l-9.7-5.6c-1.8-1.2-2.9-3.1-3-5.2V314c-0.1-2-1.2-3.9-2.9-5l-2-1.2l0.1-0.3
				l2,1.2c1.8,1.2,2.9,3.1,3,5.2v2.3c0.1,2,1.2,3.9,2.9,5l9.7,5.6L358.1,327.2z"/>
			<path id="Path_381_" class="st3" d="M361.9,325.3l-9.7-5.6c-1.8-1.2-2.9-3.1-3-5.2v-2.3c-0.1-2-1.2-3.9-2.9-5l-2-1.2l0.1-0.2
				l2,1.2c1.8,1.2,2.9,3.1,3,5.2v2.3c0.1,2,1.2,3.9,2.9,5l9.7,5.6L361.9,325.3z"/>
			<path id="Path_380_" class="st3" d="M365.7,322.8l-9.7-5.6c-1.8-1.2-2.9-3.1-3-5.2v-2.3c-0.1-2-1.2-3.9-2.9-5l-2-1.2l0.1-0.2
				l2,1.2c1.8,1.2,2.9,3.1,3,5.2v2.3c0.1,2,1.2,3.9,2.9,5l9.7,5.6L365.7,322.8z"/>
			<path id="Path_379_" class="st3" d="M369.4,320.9l-9.7-5.6c-1.8-1.2-2.9-3.1-3-5.2v-2.3c-0.1-2-1.2-3.9-2.9-5l-2-1.2l0.1-0.2
				l2,1.2c1.8,1.2,2.9,3.1,3,5.2v2.3c0.1,2,1.2,3.9,2.9,5l9.7,5.6L369.4,320.9z"/>
			<path id="Path_378_" class="st3" d="M373.2,318.4l-9.7-5.6c-1.8-1.2-2.9-3.1-3-5.2v-2.3c-0.1-2-1.2-3.9-2.9-5l-2-1.2l0.1-0.2
				l2,1.2c1.8,1.2,2.9,3.1,3,5.2v2.3c0.1,2,1.2,3.9,2.9,5l9.7,5.6L373.2,318.4z"/>
			<path id="Path_377_" class="st3" d="M377,316.5l-9.7-5.6c-1.8-1.2-2.9-3.1-3-5.2v-2.3c-0.1-2-1.2-3.9-2.9-5l-2-1.2l0.1-0.3l2,1.2
				c1.8,1.2,2.9,3.1,3,5.2v2.3c0.1,2,1.2,3.9,2.9,5l9.7,5.6L377,316.5z"/>
			<path id="Path_376_" class="st3" d="M380.8,313.9l-9.7-5.6c-1.8-1.2-2.9-3.1-3-5.2v-2.3c-0.1-2-1.2-3.9-2.9-5l-2-1.2l0.1-0.2
				l2,1.2c1.8,1.2,2.9,3.1,3,5.2v2.3c0.1,2,1.2,3.9,2.9,5l9.7,5.6L380.8,313.9z"/>
			<path id="Path_375_" class="st3" d="M384.6,312l-9.7-5.6c-1.8-1.2-2.9-3.1-3-5.2v-2.3c-0.1-2-1.2-3.9-2.9-5l-2-1.2l0.1-0.3l2,1.2
				c1.8,1.2,2.9,3.1,3,5.2v2.3c0.1,2,1.2,3.9,2.9,5l9.7,5.6L384.6,312z"/>
			<path id="Path_374_" class="st3" d="M389,309.5l-10-5.6c-1.8-1.2-3-3.1-3.1-5.2v-2.3c-0.1-2-1.2-3.9-3-5l-2.1-1.2l0.2-0.2
				l2.1,1.2c1.8,1.2,3,3.1,3.1,5.2v2.3c0.1,2,1.2,3.9,3,5l10,5.6L389,309.5z"/>
			<path id="Path_373_" class="st3" d="M392.2,307.6l-9.7-5.6c-1.8-1.2-2.9-3.1-3-5.2v-2.3c-0.1-2-1.2-3.9-2.9-5l-2-1.2l0.1-0.2
				l2,1.2c1.8,1.2,2.9,3.1,3,5.2v2.3c0.1,2,1.2,3.9,2.9,5l9.6,5.6L392.2,307.6z"/>
			<path id="Path_372_" class="st3" d="M396.6,305.1l-9.7-5.6c-1.8-1.2-2.9-3.1-3-5.2v-2.3c-0.1-2-1.2-3.9-2.9-5l-2-1.2l0.1-0.2
				l2,1.2c1.8,1.2,2.9,3.1,3,5.2v2.3c0.1,2,1.2,3.9,2.9,5l9.7,5.6L396.6,305.1z"/>
			<path id="Path_371_" class="st3" d="M400.3,303.2l-9.7-5.6c-1.8-1.2-2.9-3.1-3-5.2V290c-0.1-2-1.2-3.9-2.9-5l-2-1.2l0.1-0.2
				l2,1.2c1.8,1.2,2.9,3.1,3,5.2v2.3c0.1,2,1.2,3.9,2.9,5l9.7,5.6L400.3,303.2z"/>
			<path id="Path_370_" class="st3" d="M404.2,300.7l-9.7-5.6c-1.8-1.2-2.9-3.1-3-5.2v-2.3c-0.1-2-1.2-3.9-2.9-5l-2-1.2l0.1-0.3
				l2,1.2c1.8,1.2,2.9,3.1,3,5.2v2.3c0.1,2,1.2,3.9,2.9,5l9.7,5.6L404.2,300.7z"/>
			<path id="Path_369_" class="st3" d="M407.9,298.8l-9.7-5.6c-1.8-1.2-2.9-3.1-3-5.2v-2.3c-0.1-2-1.2-3.9-2.9-5l-2-1.2l0.1-0.2
				l2,1.2c1.8,1.2,2.9,3.1,3,5.2v2.4c0.1,2,1.2,3.9,2.9,5l9.7,5.6L407.9,298.8z"/>
			<path id="Path_368_" class="st3" d="M411.7,296.3l-9.6-5.6c-1.8-1.2-2.9-3.1-3-5.2v-2.3c-0.1-2-1.2-3.9-2.9-5l-2-1.2l0.1-0.2
				l2,1.2c1.8,1.2,2.9,3.1,3,5.2v2.3c0.1,2,1.2,3.9,2.9,5l9.6,5.6L411.7,296.3z"/>
			<path id="Path_367_" class="st3" d="M415.5,295l-9.7-5.6c-1.8-1.2-2.9-3.1-3-5.2v-2.3c-0.1-2-1.2-3.9-2.9-5l-2-1.2l0.1-0.2l2,1.2
				c1.8,1.2,2.9,3.1,3,5.2v2.3c0.1,2,1.2,3.9,2.9,5l9.7,5.6L415.5,295z"/>
			<path id="Path_366_" class="st3" d="M419.3,292.5l-9.6-5.6c-1.8-1.2-2.9-3.1-3-5.2v-2.3c-0.1-2-1.2-3.9-2.9-5l-2-1.2l0.1-0.2
				l2,1.2c1.8,1.2,2.9,3.1,3,5.2v2.3c0.1,2,1.2,3.9,2.9,5l9.7,5.6L419.3,292.5z"/>
			<path id="Path_365_" class="st3" d="M423.1,290.6l-9.7-5.6c-1.8-1.2-2.9-3.1-3-5.2v-2.4c-0.1-2-1.2-3.9-2.9-5l-2-1.2l0.1-0.3
				l2,1.2c1.8,1.2,2.9,3.1,3,5.2v2.3c0.1,2,1.2,3.9,2.9,5l9.7,5.6L423.1,290.6z"/>
			<path id="Path_364_" class="st3" d="M426.9,288.1l-9.7-5.6c-1.8-1.2-2.9-3.1-3-5.2v-2.3c-0.1-2-1.2-3.9-2.9-5l-2-1.2l0.1-0.2
				l2,1.2c1.8,1.2,2.9,3.1,3,5.2v2.3c0.1,2,1.2,3.9,2.9,5l9.7,5.6L426.9,288.1z"/>
			<path id="Path_363_" class="st3" d="M317.3,329.7l-0.1-0.2l9.7-5.6c1.7-1.1,2.7-3,2.9-5v-2.3c0.1-2.1,1.2-4.1,3-5.2l2-1.2
				l0.1,0.2l-2,1.2c-1.7,1.1-2.7,3-2.9,5v2.4c-0.1,2.1-1.2,4.1-3,5.2L317.3,329.7z"/>
			<path id="Path_362_" class="st3" d="M313.5,327.2l-0.1-0.3l9.6-5.6c1.7-1.1,2.7-3,2.9-5V314c0.1-2.1,1.2-4.1,3-5.2l2-1.2l0.1,0.3
				l-2,1.2c-1.7,1.1-2.7,3-2.9,5v2.3c-0.1,2.1-1.2,4.1-3,5.2L313.5,327.2z"/>
			<path id="Path_361_" class="st3" d="M309.7,325.3l-0.1-0.2l9.7-5.6c1.7-1.1,2.7-3,2.9-5v-2.3c0.1-2.1,1.2-4.1,3-5.2l2-1.2
				l0.1,0.2l-2,1.2c-1.7,1.1-2.7,3-2.9,5v2.3c-0.1,2.1-1.2,4.1-3,5.2L309.7,325.3z"/>
			<path id="Path_360_" class="st3" d="M306,322.8l-0.1-0.3l9.7-5.6c1.7-1.1,2.8-3,2.9-5v-2.3c0.1-2.1,1.2-4.1,3-5.2l2-1.2l0.1,0.2
				l-2,1.2c-1.7,1.1-2.8,3-2.9,5v2.3c-0.1,2.1-1.2,4.1-3,5.2L306,322.8z"/>
			<path id="Path_359_" class="st3" d="M302.2,320.9l-0.1-0.2l9.7-5.6c1.7-1.1,2.8-3,2.9-5v-2.3c0.1-2.1,1.2-4.1,3-5.2l2-1.2
				l0.1,0.2l-2,1.2c-1.7,1.1-2.8,3-2.9,5v2.3c-0.1,2.1-1.2,4.1-3,5.2L302.2,320.9z"/>
			<path id="Path_358_" class="st3" d="M298.4,318.4l-0.1-0.2l9.7-5.6c1.7-1.1,2.7-3,2.9-5v-2.3c0.1-2.1,1.2-4.1,3-5.2l2-1.2
				l0.1,0.2l-2,1.2c-1.7,1.1-2.7,3-2.9,5v2.3c-0.1,2.1-1.2,4.1-3,5.2L298.4,318.4z"/>
			<path id="Path_357_" class="st3" d="M294.6,316.5l-0.1-0.2l9.7-5.6c1.7-1.1,2.8-3,2.9-5v-2.3c0.1-2.1,1.2-4.1,3-5.2l2-1.2
				l0.1,0.3l-2,1.2c-1.7,1.1-2.7,3-2.9,5v2.3c-0.1,2.1-1.2,4.1-3,5.2L294.6,316.5z"/>
			<path id="Path_356_" class="st3" d="M290.8,313.9l-0.1-0.2l9.7-5.6c1.7-1.1,2.7-3,2.9-5v-2.3c0.1-2.1,1.2-4.1,3-5.2l2-1.2
				l0.1,0.2l-2,1.2c-1.7,1.1-2.7,3-2.9,5v2.3c-0.1,2.1-1.2,4.1-3,5.2L290.8,313.9z"/>
			<path id="Path_355_" class="st3" d="M283.2,309.5l-0.1-0.2l9.7-5.6c1.7-1.1,2.8-3,2.9-5v-2.3c0.1-2.1,1.2-4.1,3-5.2l2-1.2
				l0.1,0.2l-2,1.2c-1.7,1.1-2.8,3-2.9,5v2.3c-0.1,2.1-1.2,4.1-3,5.2L283.2,309.5z"/>
			<path id="Path_354_" class="st3" d="M279.4,307.6l-0.1-0.3l9.7-5.6c1.7-1.1,2.7-3,2.9-5v-2.3c0.1-2.1,1.2-4.1,3-5.2l2-1.2
				l0.1,0.2l-2,1.2c-1.7,1.1-2.8,3-2.9,5v2.3c-0.1,2.1-1.2,4.1-3,5.2L279.4,307.6z"/>
			<path id="Path_353_" class="st3" d="M275.6,305.1l-0.1-0.2l9.7-5.6c1.7-1.1,2.7-3,2.9-5v-2.3c0.1-2.1,1.2-4.1,3-5.2l2-1.2
				l0.1,0.2l-2,1.2c-1.7,1.1-2.7,3-2.9,5v2.3c-0.1,2.1-1.2,4.1-3,5.2L275.6,305.1z"/>
			<path id="Path_352_" class="st3" d="M271.9,303.2l-0.1-0.2l9.7-5.6c1.7-1.1,2.7-3,2.9-5V290c0.1-2.1,1.2-4.1,3-5.2l2-1.2l0.1,0.2
				l-2,1.2c-1.7,1.1-2.8,2.9-2.9,5v2.3c-0.1,2.1-1.2,4.1-3,5.2L271.9,303.2z"/>
			<path id="Path_351_" class="st3" d="M268.1,300.7l-0.1-0.3l9.7-5.6c1.7-1.1,2.7-3,2.9-5v-2.3c0.1-2.1,1.2-4.1,3-5.2l2-1.2
				l0.1,0.3l-2,1.2c-1.7,1.1-2.7,3-2.8,5v2.3c-0.1,2.1-1.3,4.1-3,5.2L268.1,300.7z"/>
			<path id="Path_350_" class="st3" d="M263.7,298.8l-0.1-0.2l9.7-5.6c1.7-1.1,2.7-2.9,2.9-5v-2.3c0.1-2.1,1.2-4.1,3-5.2l2-1.2
				l0.1,0.2l-2,1.2c-1.7,1.1-2.8,3-2.9,5v2.4c-0.1,2.1-1.2,4.1-3,5.2L263.7,298.8z"/>
			<path id="Path_349_" class="st3" d="M259.9,296.3l-0.1-0.3l9.6-5.6c1.7-1.1,2.8-3,2.9-5v-2.3c0.1-2.1,1.2-4.1,3-5.2l2-1.2
				l0.1,0.2l-2,1.2c-1.7,1.1-2.8,3-2.9,5v2.3c-0.1,2.1-1.2,4.1-3,5.2L259.9,296.3z"/>
			<path id="Path_348_" class="st3" d="M256.1,295l-0.1-0.2l9.7-5.6c1.7-1.1,2.7-3,2.9-5v-2.3c0.1-2.1,1.2-4.1,3-5.2l2-1.2l0.1,0.2
				l-2,1.2c-1.7,1.1-2.7,3-2.9,5v2.3c-0.1,2.1-1.2,4.1-3,5.2L256.1,295z"/>
			<path id="Path_347_" class="st3" d="M252.3,292.5l-0.1-0.2l9.7-5.6c1.7-1.1,2.7-3,2.9-5v-2.3c0.1-2.1,1.2-4.1,3-5.2l2-1.2
				l0.1,0.2l-2,1.2c-1.7,1.1-2.7,3-2.9,5v2.3c-0.1,2.1-1.2,4.1-3,5.2L252.3,292.5z"/>
			<path id="Path_346_" class="st3" d="M248.5,290.6l-0.1-0.2l9.7-5.5c1.7-1.1,2.8-3,2.9-5v-2.4c0.1-2.1,1.2-4.1,3-5.2l2-1.2
				l0.1,0.3l-2,1.2c-1.7,1.1-2.7,3-2.9,5v2.3c-0.1,2.1-1.2,4.1-3,5.2L248.5,290.6z"/>
			<path id="Path_345_" class="st3" d="M244.7,288.1l-0.1-0.2l9.7-5.6c1.7-1.1,2.8-3,2.9-5v-2.3c0.1-2.1,1.2-4.1,3-5.2l2-1.2
				l0.1,0.2l-2,1.2c-1.7,1.1-2.8,3-2.9,5v2.3c-0.1,2.1-1.2,4.1-3,5.2L244.7,288.1z"/>
			<path id="Path_344_" class="st3" d="M286.7,311.7l-0.1-0.2l9.7-5.6c1.7-1.1,2.7-3,2.9-5v-2.3c0.1-2.1,1.2-4.1,3-5.2l2-1.2
				l0.1,0.2l-2,1.2c-1.7,1.1-2.7,3-2.9,5v2.3c-0.1,2.1-1.2,4.1-3,5.2L286.7,311.7z"/>
			<g>
				<polygon id="Path_312_" class="st5" points="336.1,311.4 261,267.8 336.1,224.3 411.3,267.9 				"/>
				<path class="st3" d="M336.1,311.6L336.1,311.6l-75.5-43.8l0.3-0.2l75.2-43.6l0.1,0.1l75.4,43.7l-0.3,0.2L336.1,311.6z
					 M261.3,267.8l74.8,43.4l74.8-43.4l-74.8-43.4L261.3,267.8z"/>
			</g>
		</g>
	</g>
	<polygon id="Path_342_" class="st2" points="336.4,301.2 279.6,268.2 336.4,235.3 393.2,268.2 	"/>
	<g>
		<g>
			<g>
				<polygon id="Path_341_" class="st2" points="84.5,325.5 72.9,319.2 87.7,310.7 99.3,317 				"/>
				<polygon class="st2" points="99.3,317 99.3,321.3 84.5,329.8 84.5,325.5 				"/>
				<polygon class="st5" points="72.9,319.2 72.9,323.4 84.5,329.8 84.5,325.5 				"/>
			</g>
			<polygon class="st5" points="84.5,325.5 81.2,323.7 81.2,305 96,296.6 			"/>
			<polygon class="st2" points="99.3,317 84.5,325.5 84.5,304 99.3,295.5 			"/>
			<polygon id="Path_340_" class="st5" points="92.8,311.6 81.2,305.2 96,296.8 107.5,303.1 			"/>
			<polygon id="Path_339_" class="st5" points="92.8,307.3 81.2,301 96,292.5 107.5,298.8 			"/>
			<polygon class="st5" points="81.2,301 89.5,301 88.2,306.7 81.2,305.2 			"/>
			<polygon class="st2" points="107.5,298.8 107.5,303.1 92.8,311.6 92.8,307.3 			"/>
		</g>
		<g>
			<g>
				<polygon id="Path_338_" class="st2" points="113.7,308.9 102.1,302.6 116.9,294.1 128.5,300.5 				"/>
				<polygon class="st2" points="128.5,300.5 128.5,304.7 113.7,313.2 113.7,308.9 				"/>
				<polygon class="st5" points="102.1,302.6 102.1,306.8 113.7,313.2 113.7,308.9 				"/>
			</g>
			<polygon class="st5" points="113.7,309 110.4,307.1 110.4,288.4 125.2,280 			"/>
			<polygon class="st2" points="128.5,300.4 113.7,309 113.7,287.4 128.5,278.9 			"/>
			<polygon id="Path_337_" class="st5" points="122,295 110.4,288.6 125.1,280.2 136.7,286.5 			"/>
			<polygon id="Path_336_" class="st5" points="122,290.7 110.4,284.4 125.1,275.9 136.7,282.3 			"/>
			<polygon class="st5" points="110.4,284.4 118.7,284.4 117.4,290.1 110.4,288.6 			"/>
			<polygon class="st2" points="136.7,282.3 136.7,286.5 122,295 122,290.7 			"/>
		</g>
		<g>
			<g>
				<polygon id="Path_335_" class="st2" points="140,293.3 128.4,286.9 143.2,278.5 154.8,284.8 				"/>
				<polygon class="st2" points="154.8,284.8 154.8,289.1 140,297.6 140,293.3 				"/>
				<polygon class="st5" points="128.4,286.9 128.4,291.2 140,297.6 140,293.3 				"/>
			</g>
			<polygon class="st5" points="140,293.3 136.7,291.5 136.7,272.8 151.5,264.4 			"/>
			<polygon class="st2" points="154.8,284.8 140,293.3 140,271.8 154.8,263.3 			"/>
			<polygon id="Path_334_" class="st5" points="148.3,279.4 136.7,273 151.5,264.6 163.1,270.9 			"/>
			<polygon id="Path_333_" class="st5" points="148.3,275.1 136.7,268.8 151.5,260.3 163.1,266.6 			"/>
			<polygon class="st5" points="136.7,268.8 145,268.8 143.7,274.5 136.7,273 			"/>
			<polygon class="st2" points="163.1,266.6 163.1,270.9 148.3,279.4 148.3,275.1 			"/>
		</g>
		<g>
			<g>
				<polygon id="Path_332_" class="st2" points="57.3,341.2 45.7,334.9 60.5,326.4 72.1,332.8 				"/>
				<polygon class="st2" points="72.1,332.8 72.1,337 57.3,345.5 57.3,341.2 				"/>
			</g>
			<polygon class="st5" points="57.3,341.3 54,339.4 54,320.8 68.8,312.3 			"/>
			<polygon class="st2" points="72.1,332.7 57.3,341.3 57.3,319.7 72.1,311.2 			"/>
			<polygon id="Path_331_" class="st5" points="65.5,327.3 54,321 68.7,312.5 80.3,318.9 			"/>
			<polygon id="Path_330_" class="st5" points="65.5,323 54,316.7 68.7,308.2 80.3,314.6 			"/>
			<polygon class="st5" points="54,316.7 62.3,316.7 61,322.5 54,321 			"/>
			<polygon class="st2" points="80.3,314.6 80.3,318.9 65.5,327.3 65.5,323 			"/>
		</g>
		<path class="st2" d="M91.8,319.2"/>
		<polygon class="st0" points="163.8,255.6 234.8,297 234.8,316.2 163.8,274.9 		"/>
		<path id="Path_329_" class="st0" d="M125.3,386.1l-70-40.1c-0.6-0.3-0.6-1.2,0-1.6l108.6-69.4l71,41.3L125.3,386.1z"/>
		<g>
			<polygon class="st7" points="147,393.5 143.7,391.7 143.7,373 158.4,364.6 			"/>
			<polygon id="Path_328_" class="st7" points="146.9,376.2 135.4,369.9 150.1,361.4 161.7,367.8 			"/>
			<polygon class="st5" points="161.7,385 147,393.5 147,372 161.7,363.5 			"/>
			<polygon class="st7" points="135.4,365.6 143.7,365.6 142.4,371.4 135.4,369.9 			"/>
			<polygon id="Path_327_" class="st5" points="158.5,399.9 147,393.5 161.7,385.1 173.3,391.4 			"/>
			<polygon id="Path_326_" class="st5" points="146.9,372 135.4,365.6 150.1,357.2 161.7,363.5 			"/>
			<polygon id="Path_325_" class="st2" points="158.5,395.6 147,389.3 161.7,380.8 173.3,387.1 			"/>
			<polygon class="st7" points="173.3,387.1 173.3,391.4 158.5,399.9 158.5,395.6 			"/>
			<polygon class="st7" points="147,389.3 147,393.5 158.5,399.9 158.5,395.6 			"/>
		</g>
		<g>
			<polygon class="st7" points="161.7,350.6 170,350.6 168.8,356.4 161.7,354.9 			"/>
			<polygon class="st7" points="173.3,378.5 170,376.7 170,358 184.8,349.6 			"/>
			<polygon id="Path_324_" class="st7" points="173.3,361.2 161.7,354.9 176.5,346.4 188.1,352.8 			"/>
			<polygon id="Path_323_" class="st5" points="173.3,357 161.7,350.6 176.5,342.2 188.1,348.5 			"/>
			<polygon class="st5" points="188.1,370 173.3,378.5 173.3,357 188.1,348.5 			"/>
			<polygon id="Path_322_" class="st5" points="184.9,384.9 173.3,378.5 188.1,370.1 199.7,376.4 			"/>
			<polygon id="Path_321_" class="st2" points="184.9,380.6 173.3,374.2 188.1,365.8 199.7,372.1 			"/>
			<polygon class="st7" points="199.7,372.1 199.7,376.4 184.9,384.9 184.9,380.6 			"/>
			<polygon class="st7" points="173.3,374.2 173.3,378.5 184.9,384.9 184.9,380.6 			"/>
		</g>
		<g>
			<polygon class="st7" points="186.5,336.8 194.8,336.8 193.6,342.5 186.5,341 			"/>
			<polygon class="st7" points="198.1,364.7 194.8,362.8 194.8,344.2 209.6,335.7 			"/>
			<polygon id="Path_320_" class="st7" points="198.1,347.4 186.5,341 201.3,332.6 212.9,338.9 			"/>
			<polygon id="Path_319_" class="st5" points="198.1,343.1 186.5,336.8 201.3,328.3 212.9,334.6 			"/>
			<polygon class="st5" points="212.9,356.1 198.1,364.7 198.1,343.1 212.9,334.6 			"/>
			<polygon id="Path_318_" class="st5" points="209.7,371 198.1,364.7 212.9,356.2 224.5,362.6 			"/>
			<polygon id="Path_317_" class="st2" points="209.7,366.7 198.1,360.4 212.9,351.9 224.5,358.3 			"/>
			<polygon class="st7" points="224.5,358.3 224.5,362.6 209.7,371 209.7,366.7 			"/>
			<polygon class="st7" points="198.1,360.4 198.1,364.7 209.7,371 209.7,366.7 			"/>
		</g>
		<g>
			<polygon class="st7" points="211.7,322.9 220,322.9 218.8,328.7 211.7,327.2 			"/>
			<polygon class="st7" points="223.3,350.8 220,349 220,330.3 234.8,321.9 			"/>
			<polygon id="Path_316_" class="st7" points="223.3,333.5 211.7,327.2 226.5,318.7 238.1,325.1 			"/>
			<polygon id="Path_315_" class="st5" points="223.3,329.3 211.7,322.9 226.5,314.5 238.1,320.8 			"/>
			<polygon class="st5" points="238.1,342.3 223.3,350.8 223.3,329.3 238.1,320.8 			"/>
			<polygon id="Path_314_" class="st5" points="234.9,357.2 223.3,350.8 238.1,342.4 249.7,348.7 			"/>
			<polygon id="Path_313_" class="st2" points="234.9,352.9 223.3,346.6 238.1,338.1 249.7,344.4 			"/>
			<polygon class="st7" points="249.7,344.4 249.7,348.7 234.9,357.2 234.9,352.9 			"/>
			<polygon class="st7" points="223.3,346.6 223.3,350.8 234.9,357.2 234.9,352.9 			"/>
		</g>
		<path class="st5" d="M54.1,326l109.8-70.4v19.3L55.2,344.1c-0.5,0.3-1.1,0-1.1-0.6V326z"/>
		<path class="st0" d="M125.3,386.1v-19.3L54.1,326v16.9c0,1.6,0.8,3,2.2,3.8L125.3,386.1z"/>
		<g>
			<path id="Path_309_" class="st5" d="M120.2,363.7L56.8,327c-3.7-2.2-3.7-7.5,0-9.7l101.9-58.9c3.2-1.8,7-1.8,10.2,0l63.3,36.7
				c3.7,2.2,3.7,7.5,0,9.7l-101.9,58.9C127.2,365.5,123.3,365.5,120.2,363.7z"/>
			<path class="st8" d="M125.3,365.4c-1.8,0-3.6-0.5-5.3-1.4l-63.3-36.7c-1.9-1.1-3-3-3-5.1s1.1-4.1,3-5.1l101.9-58.9
				c3.3-1.9,7.3-1.9,10.5,0l63.3,36.7c1.9,1.1,3,3,3,5.1c0,2.1-1.1,4.1-3,5.1L130.5,364C128.9,364.9,127.1,365.4,125.3,365.4z
				 M120.4,363.4c3,1.8,6.8,1.8,9.8,0l101.9-58.9c1.6-0.9,2.6-2.6,2.6-4.5c0-1.9-1-3.6-2.6-4.5l-63.3-36.7c-3-1.8-6.8-1.8-9.8,0
				L57,317.6c-1.6,0.9-2.6,2.6-2.6,4.5c0,1.9,1,3.6,2.6,4.5L120.4,363.4L120.4,363.4z"/>
		</g>
	</g>
	<path class="st2" d="M307.1,323.3"/>
	<line class="st2" x1="193.1" y1="364.3" x2="217.9" y2="378.9"/>
	<g>
		<g>
			<g class="st9">
				<defs>
					<polygon id="SVGID_1_" class="st9" points="135.9,339 89.3,313.6 151.9,278.8 198.5,304.3 					"/>
				</defs>
				<clipPath id="SVGID_2_">
					<use xlink:href="#SVGID_1_"  style="overflow:visible;"/>
				</clipPath>
				<g class="st10">
					<g>
						<g>
							<g>
								<g>
									<defs>
										<polyline id="SVGID_3_" points="151.4,279.1 91.1,314.2 111.3,325 171.6,289.9 151.4,279.1 										"/>
									</defs>
									<clipPath id="SVGID_4_">
										<use xlink:href="#SVGID_3_"  style="overflow:visible;"/>
									</clipPath>
									<path class="st11" d="M117.7,302.8C117.7,302.8,117.7,302.8,117.7,302.8c-0.6,0.3-0.3,0.7,0,1.1l4,3.8l0,0l-7-2
										c-0.6-0.2-1.3-0.3-1.9,0c0,0,0,0,0,0c-0.4,0.2-0.1,0.7,0.3,1l8.3,5.2l1.3-0.8l-5.9-3.6l0,0l6.4,1.9c0.5,0.2,1.2,0.2,1.6,0
										c0,0,0,0,0,0c0.4-0.2,0.3-0.6-0.1-0.9l-3.7-3.5l0,0l6.7,3.2l1.3-0.8l-9.5-4.3C118.9,302.7,118.1,302.6,117.7,302.8"/>
									<polyline class="st11" points="123.4,302.2 122.2,302.9 129.8,307 131,306.3 123.4,302.2 									"/>
									<polyline class="st11" points="152.1,285.5 150.9,286.2 158.5,290.3 159.7,289.6 152.1,285.5 									"/>
									<path class="st11" d="M127.6,299.7c-0.2,0.1-0.5,0.3-0.7,0.4l-1.3,0.8c-1,0.6-1.1,1.2,1.2,2.4l2.3,1.2
										c2.2,1.2,3.3,1.1,4.3,0.6c0,0,0,0,0.1,0l2-1.2c1.1-0.6,0.4-1-0.8-1.7l-2.9,1.7c0,0,0,0,0,0c-0.5,0.3-1,0.1-2.1-0.5
										l-0.8-0.4c-0.9-0.5-1.4-0.8-0.8-1.2l2.9-1.7C128.9,299.2,128.5,299.2,127.6,299.7"/>
									<path class="st11" d="M134.2,300.1l-1.8-1l1.9-1.1c0,0,0,0,0,0c0.3-0.2,0.6-0.2,1.3,0.1l0.2,0.1c0.5,0.3,0.7,0.5,0.4,0.7
										L134.2,300.1 M133,296.6C132.9,296.6,132.9,296.7,133,296.6l-3.6,2.1l7.6,4l1.1-0.6l-2-1.1l1.9-1.1c0,0,0,0,0,0
										c0.3-0.2,0.7-0.1,1.5,0.3l0.9,0.5l1.1-0.6l-1.3-0.7c-1.2-0.7-1.8-0.7-2.3-0.5l0,0c0.3-0.4-0.2-0.8-1.3-1.4l-0.5-0.3
										C134.9,296.5,133.8,296.2,133,296.6"/>
									<path class="st11" d="M142.1,297.7c-0.5,0.3-1,0.1-2.1-0.5l-0.8-0.4c-0.9-0.5-1.4-0.9-0.8-1.2l1.3-0.7c0,0,0,0,0,0
										c0.6-0.3,1.3-0.1,2.2,0.4l0.8,0.4c1.1,0.6,1.4,0.9,0.9,1.2L142.1,297.7C142.2,297.7,142.1,297.7,142.1,297.7 M138,293.6
										C138,293.6,138,293.6,138,293.6l-1.8,1.1c-1,0.6-1.1,1.2,1.2,2.4l2.3,1.2c2.2,1.2,3.3,1.1,4.3,0.6c0,0,0,0,0.1,0l1.8-1
										c1-0.6,1.1-1.2-1.2-2.4l-2.3-1.2C140.1,293,139,293.1,138,293.6"/>
									<polyline class="st11" points="150.1,286.7 149,287.3 151.7,288.8 149.4,290.1 146.7,288.7 145.6,289.3 153.1,293.4 
										154.3,292.7 151.4,291.2 153.7,289.8 156.6,291.4 157.7,290.7 150.1,286.7 									"/>
									<path class="st11" d="M157.7,286.5l-1.9-1l2-1.2c0,0,0,0,0,0c0.3-0.2,0.7-0.1,1.3,0.2l0.3,0.2c0.5,0.2,0.7,0.5,0.5,0.6
										L157.7,286.5 M156.2,283.1C156.2,283.1,156.2,283.1,156.2,283.1l-3.4,2l7.6,4l1.1-0.6l-1.9-1l2.6-1.5
										c0.7-0.4-0.2-1.2-1.3-1.8l-0.7-0.4l-0.1-0.1C158.6,283,157.3,282.5,156.2,283.1"/>
									<path class="st11" d="M143.7,290.3c-0.2,0.1-0.4,0.3-0.7,0.4l-1.3,0.8c-1,0.6-1.1,1.2,1.2,2.4l2.3,1.2
										c2.2,1.1,3.3,1.1,4.3,0.6c0,0,0.1,0,0.1,0l2-1.2c1.1-0.6,0.4-1-0.8-1.7l-2.9,1.7c0,0,0,0,0,0c-0.5,0.3-1,0.1-2.1-0.5
										l-0.8-0.4c-0.9-0.5-1.4-0.8-0.8-1.2l2.8-1.6C145,289.8,144.7,289.8,143.7,290.3"/>
									<path class="st11" d="M115,318.7c-0.4,0.2-1.5,0-1.5,0l-12.3-2.4c0,0-0.7-1.2-1.3-2.1c-0.2-0.4-0.2-0.6,0-0.7
										c0.3-0.2,1-0.1,1.3,0c4.3,0.8,12.3,2.4,12.3,2.4s1.3,2,1.4,2.2C115.3,318.4,115.2,318.6,115,318.7 M98.7,310
										c0,0-0.1,0-0.1,0.1c-4.1,2.4-2.9,6.6,2.6,9.6c0.9,0.5,1.8,0.9,2.8,1.2l-2.1-3.5l4.6,0.9c0,0,1.1,0.1,1.5,0.7
										c0,0,1.7,2.8,1.9,3.1c3.2,0.3,6.3-0.2,8.4-1.3c0.1,0,0.1-0.1,0.2-0.1c2-1.1,2.7-2.8,2.3-4.4l-14.5-2.8c0,0-0.7-1.2-1.3-2.1
										c-0.2-0.4-0.2-0.6,0-0.7c0.3-0.2,1-0.1,1.3,0c4.1,0.8,11.8,2.3,12.3,2.4c-0.4-0.4-0.9-0.8-1.5-1.1l-16-2.8
										C100.3,309.3,99.4,309.6,98.7,310"/>
								</g>
								<path class="st12" d="M159.8,311.9C159.8,311.9,159.8,311.9,159.8,311.9c-0.2,0.1-0.3,0.2-0.4,0.3c-0.1,0.1-0.1,0.2-0.1,0.3
									c0,0.1,0,0.2,0,0.3c0,0.1,0.1,0.2,0.2,0.3c0.1,0.1,0.2,0.1,0.2,0.1c0.1,0,0.1,0.1,0.2,0.1c0.2,0.1,0.5,0.2,0.7,0.3
									c0.3,0.1,0.5,0.1,0.8,0.2c0.3,0,0.5,0,0.8,0c0.2,0,0.5-0.1,0.7-0.2c0,0,0,0,0,0c0.2-0.1,0.3-0.2,0.3-0.3
									c0.1-0.1,0.1-0.3,0-0.4c0-0.1-0.1-0.3-0.3-0.4c-0.1-0.1-0.3-0.3-0.5-0.4c-0.5-0.3-1-0.4-1.5-0.4
									C160.7,311.5,160.2,311.6,159.8,311.9 M168.9,306.7c-0.1,0.3-0.1,0.6,0.1,0.9c0.2,0.3,0.4,0.4,0.6,0.6
									c0.2,0.1,0.4,0.2,0.6,0.2c0.2,0.1,0.4,0.1,0.6,0.1c0.2,0,0.4,0,0.6,0c0.2,0,0.4-0.1,0.6-0.2c0.1-0.1,0.3-0.2,0.3-0.3
									c0.1-0.1,0.1-0.2,0.1-0.3s-0.1-0.2-0.2-0.4c-0.1-0.1-0.3-0.3-0.5-0.4c-0.2-0.1-0.4-0.2-0.7-0.2c-0.2,0-0.5-0.1-0.7-0.1
									c-0.2,0-0.5,0-0.7,0C169.4,306.7,169.2,306.7,168.9,306.7 M164.4,308l0.7,2.9c0.5,0.2,1,0.3,1.4,0.3c0.4,0,0.7,0,1-0.2
									c0,0,0,0,0,0c0.4-0.3,0.5-0.6,0.2-1c-0.3-0.4-1-0.9-2.1-1.4C165.2,308.3,164.8,308.1,164.4,308 M134.6,323.6L134.6,323.6
									l2.7,2.4l1.7-1L134.6,323.6 M161.1,307.5C161.1,307.5,161.1,307.5,161.1,307.5c-0.5,0.3-0.5,0.6-0.2,1
									c0.3,0.4,1.1,0.9,2.1,1.4c0.2,0.1,0.4,0.2,0.5,0.3c0.2,0.1,0.4,0.2,0.5,0.2l-0.7-2.9c-0.5-0.2-0.9-0.2-1.3-0.3
									C161.8,307.3,161.4,307.3,161.1,307.5 M165.7,304.9c-0.2,0.1-0.3,0.2-0.3,0.3c-0.1,0.1-0.1,0.2-0.1,0.3
									c0,0.1,0.1,0.2,0.2,0.3c0.1,0.1,0.2,0.2,0.3,0.3c0.2,0.1,0.4,0.2,0.6,0.2c0.2,0,0.5,0.1,0.7,0.1c0.2,0,0.5,0,0.7,0
									c0.2,0,0.5-0.1,0.8-0.1c0-0.3,0-0.5-0.2-0.7c-0.1-0.2-0.3-0.4-0.6-0.6c-0.2-0.1-0.4-0.2-0.6-0.2c-0.2,0-0.4-0.1-0.6-0.1
									c-0.2,0-0.4,0-0.5,0.1C165.9,304.7,165.8,304.8,165.7,304.9 M138.8,328.3l-5.8-5.1l0.7-0.4l9.4,3l-0.7,0.4l-2.6-0.8l-2,1.2
									l1.6,1.4L138.8,328.3 M137.9,322.6l-2-1.1l3.9-2.3l2,1.1l-0.6,0.3l-1.2-0.6l-1.1,0.6l6,3.2l0.8-0.5l0.8,0.4l-2.3,1.3
									l-0.8-0.4l0.8-0.5l-6-3.2l-1.1,0.6l1.2,0.6L137.9,322.6 M148.6,322.6l-7.6-4l3.1-1.8l0.8,0.4l-2.5,1.4l2.5,1.3l2.3-1.3
									l0.8,0.4l-2.3,1.3l2.7,1.4l2.5-1.5l0.8,0.4L148.6,322.6 M155,319c-0.3,0.2-0.7,0.3-1.1,0.4c-0.4,0.1-0.9,0.1-1.4,0
									s-1.1-0.2-1.7-0.4c-0.6-0.2-1.2-0.5-1.9-0.8c-0.7-0.4-1.2-0.7-1.6-1.1c-0.4-0.3-0.6-0.6-0.7-0.9c-0.1-0.3-0.1-0.5,0-0.8
									c0.1-0.2,0.3-0.4,0.7-0.6c0,0,0.1-0.1,0.1-0.1c0.1-0.1,0.2-0.1,0.3-0.2c0.1-0.1,0.3-0.1,0.4-0.1c0.1,0,0.3-0.1,0.4-0.1
									c0.1,0,0.3,0,0.4,0l0,0l1.7,0.9l-0.6,0.3l-1.2-0.6c-0.1,0-0.3,0.1-0.4,0.1c-0.1,0-0.2,0.1-0.3,0.1c0,0-0.1,0-0.1,0.1
									c-0.2,0.1-0.4,0.3-0.5,0.4c-0.1,0.2-0.1,0.4,0,0.6c0.1,0.2,0.3,0.5,0.6,0.7c0.3,0.3,0.7,0.5,1.3,0.9c0.5,0.3,1,0.5,1.5,0.7
									c0.5,0.2,0.9,0.3,1.3,0.3c0.4,0.1,0.8,0.1,1.1,0c0.3,0,0.6-0.1,0.8-0.3c0,0,0,0,0,0c0.1-0.1,0.2-0.2,0.3-0.2
									c0.1-0.1,0.1-0.2,0.2-0.3l-1.1-0.6l0.6-0.3l1.5,0.8l0,0c0,0.2,0,0.4-0.2,0.6C155.7,318.6,155.4,318.8,155,319
									C155.1,319,155.1,319,155,319 M159.6,316.4c-0.3,0.2-0.7,0.3-1.1,0.4c-0.4,0.1-0.9,0.1-1.4,0c-0.5-0.1-1.1-0.2-1.7-0.4
									c-0.6-0.2-1.2-0.5-1.9-0.8c-0.7-0.4-1.3-0.7-1.6-1.1c-0.4-0.3-0.6-0.6-0.7-0.9c-0.1-0.3-0.1-0.6,0-0.8
									c0.1-0.2,0.3-0.4,0.7-0.6c0.2-0.1,0.3-0.2,0.5-0.2c0.1-0.1,0.3-0.1,0.4-0.2c0.1,0,0.3-0.1,0.4-0.1c0.1,0,0.3,0,0.4,0l0,0
									l1.7,0.9l-0.6,0.3l-1.2-0.6c-0.1,0-0.3,0.1-0.4,0.1c-0.1,0-0.2,0.1-0.3,0.2c0,0-0.1,0-0.1,0c-0.2,0.1-0.4,0.3-0.4,0.4
									c-0.1,0.2-0.1,0.4,0,0.6c0.1,0.2,0.3,0.5,0.6,0.7c0.3,0.3,0.7,0.6,1.3,0.9c0.5,0.3,1,0.5,1.5,0.7c0.5,0.2,0.9,0.3,1.3,0.3
									s0.8,0.1,1.1,0c0.3-0.1,0.6-0.1,0.9-0.3c0,0,0,0,0,0c0.1-0.1,0.2-0.2,0.3-0.2c0.1-0.1,0.1-0.2,0.2-0.3l-1.1-0.6l0.6-0.3
									l1.5,0.8l0,0c0,0.2,0,0.4-0.1,0.6C160.2,315.9,160,316.1,159.6,316.4C159.6,316.3,159.6,316.4,159.6,316.4 M163.7,314
									c-0.3,0.1-0.5,0.2-0.9,0.3c-0.4,0.1-0.7,0.1-1.1,0.1c-0.4,0-0.8-0.1-1.2-0.2c-0.4-0.1-0.8-0.3-1.2-0.5
									c-0.7-0.4-1.3-0.7-1.7-1.2c-0.5-0.4-0.8-0.8-1-1.2c-0.2-0.4-0.3-0.8-0.2-1.1c0.1-0.4,0.3-0.7,0.6-0.9l0.8,0.3
									c-0.3,0.2-0.4,0.5-0.5,0.7c-0.1,0.3,0,0.5,0.1,0.8c0.1,0.3,0.3,0.6,0.6,0.8c0.2,0.3,0.6,0.5,0.9,0.8
									c-0.1-0.1-0.1-0.2-0.1-0.3c0-0.1,0-0.2,0-0.3c0-0.1,0.1-0.2,0.2-0.3c0.1-0.1,0.2-0.2,0.4-0.3c0,0,0,0,0.1,0
									c0.2-0.1,0.5-0.2,0.8-0.3c0.3-0.1,0.6-0.1,1-0.1c0.3,0,0.7,0.1,1,0.2c0.3,0.1,0.7,0.2,1,0.4c0.3,0.2,0.6,0.3,0.8,0.5
									c0.2,0.2,0.4,0.4,0.4,0.6c0.1,0.2,0.1,0.4,0,0.6C164.2,313.6,164,313.8,163.7,314C163.7,313.9,163.7,314,163.7,314
									 M168.2,311.3c-0.3,0.2-0.7,0.3-1.1,0.3c-0.4,0-0.9,0-1.4-0.1c-0.5-0.1-1-0.3-1.6-0.5c-0.5-0.2-1.1-0.5-1.7-0.8
									c-0.6-0.3-1.1-0.6-1.5-1c-0.4-0.3-0.7-0.6-0.9-0.9c-0.2-0.3-0.3-0.5-0.2-0.7c0.1-0.2,0.2-0.4,0.6-0.6c0,0,0,0,0,0
									c0.3-0.2,0.7-0.3,1.1-0.3c0.4,0,0.8,0,1.3,0.1c0.5,0.1,1,0.3,1.5,0.5c0.6,0.2,1.1,0.5,1.8,0.8c0.6,0.3,1.1,0.6,1.5,0.9
									c0.4,0.3,0.7,0.6,0.9,0.9s0.3,0.5,0.2,0.7C168.7,310.9,168.6,311.1,168.2,311.3C168.2,311.3,168.2,311.3,168.2,311.3
									 M175,307.2l-5.8-5.1l0.7-0.4l9.4,3l-0.7,0.4l-2.6-0.8l-2,1.2l1.6,1.4L175,307.2 M172.7,308.7c-0.3,0.1-0.5,0.2-0.8,0.3
									c-0.3,0.1-0.6,0.1-0.9,0.1c-0.3,0-0.6-0.1-0.9-0.1c-0.3-0.1-0.6-0.2-0.9-0.3c-0.9-0.5-1.2-1.1-1-1.8c-0.2,0-0.5,0-0.7,0.1
									c-0.2,0-0.5,0-0.7,0c-0.2,0-0.5-0.1-0.7-0.1c-0.2-0.1-0.5-0.2-0.7-0.3c-0.3-0.1-0.5-0.3-0.6-0.5c-0.2-0.2-0.2-0.3-0.3-0.5
									c0-0.2,0-0.3,0.1-0.5c0.1-0.2,0.3-0.3,0.5-0.5c0,0,0,0,0.1,0c0.2-0.1,0.4-0.2,0.7-0.3c0.3-0.1,0.6-0.1,0.9-0.1
									c0.3,0,0.6,0,0.9,0.1c0.3,0.1,0.5,0.2,0.8,0.3c0.4,0.2,0.7,0.5,0.9,0.7c0.2,0.3,0.3,0.6,0.2,0.9c0.3,0,0.5,0,0.8-0.1
									c0.3,0,0.5,0,0.7,0c0.2,0,0.5,0.1,0.7,0.1c0.2,0.1,0.5,0.2,0.7,0.3c0.3,0.2,0.5,0.3,0.7,0.5c0.2,0.2,0.3,0.4,0.3,0.6
									c0,0.2,0,0.4-0.1,0.6C173.2,308.4,173,308.5,172.7,308.7C172.7,308.7,172.7,308.7,172.7,308.7 M172.8,293.5
									C172.8,293.5,172.8,293.5,172.8,293.5l-55.6,32.4c-1.5,0.9-0.9,2.5,1.2,3.6l13.9,7.4c2.1,1.1,5,1.4,6.5,0.5c0,0,0,0,0,0
									l55.6-32.3c1.5-0.9,0.9-2.5-1.2-3.6l-13.9-7.4C177.2,292.9,174.3,292.6,172.8,293.5"/>
								<path class="st3" d="M137.2,326l-2.8-2.4l0.1-0.1l4.3,1.4L137.2,326 M133.7,322.8l-0.7,0.4l5.8,5.1l0.6-0.4l-1.6-1.4l2-1.2
									l2.6,0.8l0.7-0.4L133.7,322.8"/>
								<polyline class="st3" points="139.9,319.2 135.9,321.5 137.9,322.6 138.5,322.2 137.3,321.6 138.4,321 144.4,324.2 
									143.6,324.6 144.3,325.1 146.6,323.7 145.8,323.3 145,323.8 139,320.6 140.1,320 141.3,320.6 141.8,320.3 139.9,319.2 
																	"/>
								<polyline class="st3" points="144.1,316.8 141,318.6 148.6,322.6 151.7,320.8 150.9,320.4 148.4,321.8 145.7,320.4 
									148,319.1 147.2,318.6 144.9,320 142.4,318.6 144.9,317.2 144.1,316.8 								"/>
								<path class="st3" d="M147.5,314.7c0,0-0.1,0-0.1,0.1c-0.3,0.2-0.5,0.4-0.7,0.6c-0.1,0.2-0.1,0.5,0,0.8
									c0.1,0.3,0.4,0.6,0.7,0.9c0.4,0.3,0.9,0.7,1.6,1.1c0.7,0.4,1.3,0.6,1.9,0.8c0.6,0.2,1.2,0.3,1.7,0.4s1,0,1.4,0
									c0.4-0.1,0.8-0.2,1.1-0.4c0,0,0,0,0,0c0.3-0.2,0.6-0.4,0.7-0.6c0.1-0.2,0.2-0.4,0.2-0.6l0,0l-1.5-0.8l-0.6,0.3l1.1,0.6
									c0,0.1-0.1,0.2-0.2,0.3c-0.1,0.1-0.2,0.2-0.3,0.2c0,0,0,0,0,0c-0.2,0.1-0.5,0.2-0.8,0.3c-0.3,0.1-0.7,0.1-1.1,0
									c-0.4-0.1-0.9-0.2-1.3-0.3c-0.5-0.2-1-0.4-1.5-0.7c-0.6-0.3-1-0.6-1.3-0.9c-0.3-0.3-0.5-0.5-0.6-0.7c-0.1-0.2-0.1-0.4,0-0.6
									c0.1-0.2,0.2-0.3,0.5-0.4c0,0,0.1,0,0.1-0.1c0.1-0.1,0.2-0.1,0.3-0.1c0.1,0,0.3-0.1,0.4-0.1l1.2,0.6l0.6-0.3l-1.7-0.9l0,0
									c-0.1,0-0.3,0-0.4,0c-0.1,0-0.3,0-0.4,0.1c-0.1,0-0.3,0.1-0.4,0.1C147.7,314.5,147.6,314.6,147.5,314.7"/>
								<path class="st3" d="M151.8,312.1c-0.3,0.2-0.5,0.4-0.7,0.6c-0.1,0.2-0.1,0.5,0,0.8c0.1,0.3,0.3,0.6,0.7,0.9
									c0.4,0.3,0.9,0.7,1.6,1.1c0.7,0.4,1.3,0.6,1.9,0.8c0.6,0.2,1.2,0.3,1.7,0.4c0.5,0.1,1,0,1.4,0c0.4-0.1,0.8-0.2,1.1-0.4
									c0,0,0,0,0,0c0.3-0.2,0.6-0.4,0.7-0.6c0.1-0.2,0.2-0.4,0.1-0.6l0,0l-1.5-0.8l-0.6,0.3l1.1,0.6c0,0.1-0.1,0.2-0.2,0.3
									c-0.1,0.1-0.2,0.2-0.3,0.2c0,0,0,0,0,0c-0.3,0.1-0.5,0.2-0.9,0.3c-0.3,0.1-0.7,0.1-1.1,0s-0.9-0.2-1.3-0.3
									c-0.5-0.2-1-0.4-1.5-0.7c-0.6-0.3-1-0.6-1.3-0.9c-0.3-0.3-0.5-0.5-0.6-0.7c-0.1-0.2-0.1-0.4,0-0.6c0.1-0.2,0.2-0.3,0.4-0.4
									c0,0,0.1,0,0.1,0c0.1-0.1,0.2-0.1,0.3-0.2c0.1,0,0.3-0.1,0.4-0.1l1.2,0.6l0.6-0.3l-1.7-0.9l0,0c-0.1,0-0.3,0-0.4,0
									c-0.1,0-0.2,0-0.4,0.1c-0.1,0-0.3,0.1-0.4,0.2C152.2,311.9,152,312,151.8,312.1"/>
								<path class="st3" d="M163,313.6c-0.2,0.1-0.4,0.2-0.7,0.2c-0.3,0-0.5,0-0.8,0c-0.3,0-0.6-0.1-0.8-0.2
									c-0.3-0.1-0.5-0.2-0.7-0.3c-0.1,0-0.2-0.1-0.2-0.1c-0.1,0-0.1-0.1-0.2-0.1c-0.1-0.1-0.1-0.2-0.2-0.3c0-0.1,0-0.2,0-0.3
									c0-0.1,0.1-0.2,0.1-0.3c0.1-0.1,0.2-0.2,0.3-0.3c0,0,0,0,0,0c0.4-0.2,0.8-0.3,1.3-0.3c0.5,0,0.9,0.2,1.5,0.4
									c0.2,0.1,0.4,0.2,0.5,0.4c0.1,0.1,0.2,0.3,0.3,0.4c0,0.1,0,0.3,0,0.4C163.3,313.3,163.2,313.4,163,313.6
									C163,313.5,163,313.6,163,313.6 M156.9,309.2c-0.4,0.3-0.6,0.6-0.6,0.9c-0.1,0.4,0,0.7,0.2,1.1c0.2,0.4,0.6,0.8,1,1.2
									c0.5,0.4,1,0.8,1.7,1.2c0.4,0.2,0.8,0.4,1.2,0.5c0.4,0.1,0.8,0.2,1.2,0.2c0.4,0,0.7,0,1.1-0.1c0.3-0.1,0.6-0.2,0.9-0.3
									c0,0,0,0,0.1,0c0.3-0.2,0.5-0.4,0.6-0.6c0.1-0.2,0.1-0.4,0-0.6c-0.1-0.2-0.2-0.4-0.4-0.6c-0.2-0.2-0.5-0.4-0.8-0.5
									c-0.3-0.2-0.7-0.3-1-0.4c-0.3-0.1-0.7-0.2-1-0.2c-0.3,0-0.7,0-1,0.1c-0.3,0.1-0.6,0.2-0.8,0.3c0,0,0,0-0.1,0
									c-0.2,0.1-0.3,0.2-0.4,0.3c-0.1,0.1-0.1,0.2-0.2,0.3c0,0.1,0,0.2,0,0.3c0,0.1,0.1,0.2,0.1,0.3c-0.4-0.2-0.7-0.5-0.9-0.8
									c-0.3-0.3-0.4-0.5-0.6-0.8c-0.1-0.3-0.2-0.6-0.1-0.8c0.1-0.3,0.2-0.5,0.5-0.7L156.9,309.2"/>
								<path class="st3" d="M167.5,310.9c-0.3,0.2-0.6,0.2-1,0.2c-0.4,0-0.9-0.1-1.4-0.3l-0.7-2.9c0.4,0.2,0.8,0.4,1.1,0.6
									c1.1,0.6,1.8,1.1,2.1,1.4C168,310.4,167.9,310.7,167.5,310.9C167.5,310.9,167.5,310.9,167.5,310.9 M164.1,310.4
									c-0.2-0.1-0.3-0.2-0.5-0.2c-0.2-0.1-0.4-0.2-0.5-0.3c-1.1-0.6-1.8-1-2.1-1.4c-0.3-0.4-0.3-0.7,0.2-1c0,0,0,0,0,0
									c0.3-0.2,0.6-0.2,1-0.2c0.4,0,0.8,0.1,1.3,0.3L164.1,310.4 M160.4,307.1C160.4,307.1,160.4,307.1,160.4,307.1
									c-0.4,0.2-0.6,0.4-0.6,0.6c-0.1,0.2,0,0.5,0.2,0.7c0.2,0.3,0.5,0.6,0.9,0.9c0.4,0.3,0.9,0.6,1.5,1c0.6,0.3,1.1,0.6,1.7,0.8
									c0.6,0.2,1.1,0.4,1.6,0.5c0.5,0.1,1,0.1,1.4,0.1c0.4,0,0.8-0.1,1.1-0.3c0,0,0,0,0,0c0.3-0.2,0.5-0.4,0.6-0.6
									c0.1-0.2,0-0.5-0.2-0.7s-0.5-0.6-0.9-0.9c-0.4-0.3-0.9-0.6-1.5-0.9c-0.6-0.3-1.2-0.6-1.8-0.8c-0.6-0.2-1.1-0.4-1.5-0.5
									c-0.5-0.1-0.9-0.1-1.3-0.1C161.1,306.8,160.8,306.9,160.4,307.1"/>
								<path class="st3" d="M172,308.3c-0.2,0.1-0.4,0.2-0.6,0.2c-0.2,0-0.4,0.1-0.6,0c-0.2,0-0.4,0-0.6-0.1
									c-0.2-0.1-0.4-0.1-0.6-0.2c-0.3-0.1-0.5-0.3-0.6-0.6c-0.2-0.2-0.2-0.5-0.1-0.9c0.3,0,0.5-0.1,0.8-0.1c0.3,0,0.5,0,0.7,0
									c0.2,0,0.5,0,0.7,0.1c0.2,0.1,0.4,0.1,0.7,0.2c0.2,0.1,0.4,0.2,0.5,0.4c0.1,0.1,0.2,0.2,0.2,0.4s0,0.2-0.1,0.3
									C172.3,308.1,172.2,308.2,172,308.3 M168.6,306.2c-0.3,0-0.5,0.1-0.8,0.1c-0.2,0-0.5,0-0.7,0c-0.2,0-0.5,0-0.7-0.1
									c-0.2,0-0.4-0.1-0.6-0.2c-0.1-0.1-0.3-0.2-0.3-0.3c-0.1-0.1-0.1-0.2-0.2-0.3c0-0.1,0-0.2,0.1-0.3c0.1-0.1,0.2-0.2,0.3-0.3
									c0.1-0.1,0.3-0.1,0.4-0.2c0.2,0,0.3-0.1,0.5-0.1c0.2,0,0.4,0,0.6,0.1c0.2,0,0.4,0.1,0.6,0.2c0.3,0.2,0.5,0.3,0.6,0.6
									C168.5,305.7,168.6,306,168.6,306.2 M165,304.4C165,304.5,165,304.5,165,304.4c-0.3,0.2-0.5,0.3-0.6,0.5
									c-0.1,0.2-0.1,0.3-0.1,0.5c0,0.2,0.1,0.3,0.3,0.5c0.2,0.2,0.4,0.3,0.6,0.5c0.2,0.1,0.5,0.2,0.7,0.3c0.2,0.1,0.5,0.1,0.7,0.1
									c0.2,0,0.5,0,0.7,0c0.2,0,0.5,0,0.7-0.1c-0.2,0.7,0.1,1.3,1,1.8c0.3,0.1,0.5,0.3,0.9,0.3c0.3,0.1,0.6,0.1,0.9,0.1
									c0.3,0,0.6,0,0.9-0.1c0.3-0.1,0.6-0.2,0.8-0.3c0,0,0,0,0.1,0c0.3-0.2,0.5-0.3,0.6-0.5c0.1-0.2,0.1-0.4,0.1-0.6
									c0-0.2-0.2-0.4-0.3-0.6c-0.2-0.2-0.4-0.4-0.7-0.5c-0.2-0.1-0.5-0.2-0.7-0.3c-0.2-0.1-0.5-0.1-0.7-0.1c-0.2,0-0.5,0-0.7,0
									c-0.2,0-0.5,0-0.8,0.1c0-0.3,0-0.6-0.2-0.9c-0.2-0.3-0.5-0.5-0.9-0.7c-0.2-0.1-0.5-0.2-0.8-0.3c-0.3-0.1-0.6-0.1-0.9-0.1
									c-0.3,0-0.6,0-0.9,0.1C165.5,304.2,165.2,304.3,165,304.4"/>
								<polyline class="st12" points="170.7,302.5 170.6,302.6 173.4,304.9 175.1,304 170.7,302.5 								"/>
								<path class="st3" d="M173.4,304.9l-2.8-2.4l0.1-0.1l4.4,1.5L173.4,304.9 M169.9,301.7l-0.7,0.4l5.8,5.1l0.6-0.4l-1.6-1.4
									l2-1.2l2.6,0.8l0.7-0.4L169.9,301.7"/>
							</g>
						</g>
					</g>
				</g>
			</g>
		</g>
	</g>
	
		<rect x="249.3" y="345.6" transform="matrix(0.4731 -0.881 0.881 0.4731 -180.7255 406.53)" class="st3" width="0.4" height="17.5"/>
	
		<rect x="245.6" y="347.3" transform="matrix(0.4731 -0.881 0.881 0.4731 -184.1253 404.1024)" class="st3" width="0.4" height="17.5"/>
	<path class="st3" d="M184.1,401.7c-1,0-2.1-0.3-3-0.8l-12.3-6.6l0.2-0.4l12.3,6.6c1.9,1,4.1,0.9,6-0.2l132.1-80.4l0.2,0.4
		l-132.1,80.4C186.5,401.4,185.3,401.7,184.1,401.7z"/>
	<path class="st3" d="M184.3,405.8c-1,0-2.1-0.3-3-0.8l-16.2-8.7l0.2-0.4l16.2,8.7c1.9,1,4.1,0.9,6-0.2l132.1-80.4l0.2,0.4
		l-132.1,80.4C186.6,405.5,185.5,405.8,184.3,405.8z"/>
	
		<rect x="226.6" y="359.4" transform="matrix(0.4731 -0.881 0.881 0.4731 -204.8804 393.774)" class="st3" width="0.4" height="17.5"/>
	
		<rect x="222.8" y="361.1" transform="matrix(0.4731 -0.881 0.881 0.4731 -208.2803 391.3465)" class="st3" width="0.4" height="17.5"/>
	
		<rect x="201.7" y="373.9" transform="matrix(0.473 -0.881 0.881 0.473 -230.7117 379.4744)" class="st3" width="0.4" height="17.5"/>
	
		<rect x="198.2" y="375" transform="matrix(0.4731 -0.881 0.881 0.4731 -234.0948 377.352)" class="st3" width="0.4" height="18.9"/>
	<g id="_-_-Ockam.io_3_" transform="translate(168.000000, 150.000000)">
		<g id="img-hero_3_">
			
				<ellipse id="Oval_3_" transform="matrix(0.9999 -1.535829e-02 1.535829e-02 0.9999 -1.5845 2.8391)" class="st13" cx="184.1" cy="104.6" rx="1.3" ry="0.8"/>
			
				<ellipse id="Oval-2_3_" transform="matrix(0.9999 -1.535829e-02 1.535829e-02 0.9999 -1.6366 2.6193)" class="st13" cx="169.7" cy="107.9" rx="1.3" ry="0.8"/>
			
				<ellipse id="Oval-3_3_" transform="matrix(0.9999 -1.535815e-02 1.535815e-02 0.9999 -1.9787 2.3132)" class="st13" cx="149.6" cy="130" rx="1.3" ry="0.8"/>
			
				<ellipse id="Oval-4_3_" transform="matrix(0.9999 -1.535829e-02 1.535829e-02 0.9999 -1.5435 2.4421)" class="st13" cx="158.2" cy="101.7" rx="1.3" ry="0.8"/>
			
				<ellipse id="Oval-5_3_" transform="matrix(0.9999 -1.535829e-02 1.535829e-02 0.9999 -2.0199 2.7103)" class="st13" cx="175.5" cy="132.9" rx="1.3" ry="0.8"/>
			
				<ellipse id="Oval-6_3_" transform="matrix(0.9999 -1.535829e-02 1.535829e-02 0.9999 -1.8228 2.9733)" class="st13" cx="192.7" cy="120.2" rx="1.3" ry="0.8"/>
			
				<ellipse id="Oval-7_3_" transform="matrix(0.9999 -1.535829e-02 1.535829e-02 0.9999 -1.9268 2.5332)" class="st13" cx="164" cy="126.7" rx="1.3" ry="0.8"/>
			
				<ellipse id="Oval-8_3_" transform="matrix(0.9999 -1.535829e-02 1.535829e-02 0.9999 -1.6885 2.3994)" class="st13" cx="155.4" cy="111.1" rx="1.3" ry="0.8"/>
			
				<ellipse id="Oval-9_3_" transform="matrix(0.9999 -1.535829e-02 1.535829e-02 0.9999 -1.8748 2.753)" class="st13" cx="178.3" cy="123.4" rx="1.3" ry="0.8"/>
			
				<ellipse id="Oval-10_3_" transform="matrix(0.9999 -1.535829e-02 1.535829e-02 0.9999 -1.8336 2.3563)" class="st13" cx="152.5" cy="120.6" rx="1.3" ry="0.8"/>
			
				<ellipse id="Oval-11_3_" transform="matrix(0.9999 -1.535829e-02 1.535829e-02 0.9999 -1.7298 2.7962)" class="st13" cx="181.2" cy="114" rx="1.3" ry="0.8"/>
			
				<ellipse id="Oval-12_3_" transform="matrix(0.9999 -1.535829e-02 1.535829e-02 0.9999 -1.7404 2.1791)" class="st13" cx="141" cy="114.4" rx="1.3" ry="0.8"/>
			<path id="Path_311_" class="st8" d="M186,105.6c7.3,1.6,11.1,6.6,8.5,11.3c-0.4,0.6-0.8,1.2-1.3,1.7c0.4,0,0.8,0.2,1.2,0.3
				c0.2,0.1,0.4,0.3,0.5,0.4c4.8-4.8,2.5-11.1-5-14c-1.1-0.4-2.2-0.7-3.3-1C186.7,104.8,186.5,105.2,186,105.6z"/>
			<path id="Path-2_3_" class="st8" d="M183.2,115c3.2,0.7,5.9,2.1,7.6,4c0.6-0.4,1.2-0.6,1.9-0.5c-1.9-2.3-5.1-4-8.9-4.8
				C183.9,114.2,183.6,114.7,183.2,115z"/>
			<path id="Path-3_3_" class="st8" d="M183.6,109.4c-0.3,1.1-1,2.1-1.9,3c0.4,0,0.8,0.2,1.2,0.3c0.2,0.1,0.4,0.2,0.5,0.4
				c2.2-2.2,3-4.8,2.3-7.3c-0.2,0.1-0.5,0.2-0.8,0.3c-0.4,0.1-0.9,0.1-1.3,0.1C183.9,107.2,183.9,108.3,183.6,109.4L183.6,109.4z"/>
			<path id="Path-4_3_" class="st8" d="M180.8,122.9c0.2,0.4,0.2,0.9-0.2,1.3c4.1,0.1,8.1-0.8,11.2-2.5c-0.3-0.1-0.5-0.2-0.8-0.3
				c-0.3-0.1-0.5-0.4-0.7-0.7C187.6,122.2,184.2,122.9,180.8,122.9L180.8,122.9z"/>
			<path id="Path-5_3_" class="st8" d="M178.9,121.8c0.6,0,1.2,0.3,1.7,0.8c2.2-2.2,3-4.8,2.3-7.3c-0.6,0.3-1.4,0.4-2.1,0.4
				C181.3,117.8,180.7,120,178.9,121.8z"/>
			<path id="Path-6_3_" class="st8" d="M192.4,122.6c0.6,4.9-5.3,9.2-13,9.6c-0.5,0-1,0-1.5,0c0.1,0.2,0.2,0.5,0.1,0.8
				c-0.1,0.2-0.2,0.4-0.3,0.5c0.6,0,1.2,0,1.8,0c8.9-0.5,15.7-5.5,15-11.1l0,0c0-0.4-0.1-0.8-0.2-1.1c-0.6,0.3-1.4,0.4-2.1,0.4
				C192.3,122,192.4,122.3,192.4,122.6L192.4,122.6z"/>
			<path id="Path-7_3_" class="st8" d="M179.9,128.5c0.4-1.2,0.4-2.6,0-3.8c-0.6,0.3-1.4,0.4-2.1,0.4c0.6,2.1,0,4.3-1.9,6.2
				c0.7,0.1,1.3,0.4,1.7,0.8C178.7,131,179.5,129.8,179.9,128.5L179.9,128.5z"/>
			<path id="Path-8_3_" class="st8" d="M164.8,128.2c-0.3,0.1-0.6,0.1-0.9,0.1c1.9,2.3,5.1,4,8.9,4.8c-0.1-0.5,0.1-0.9,0.5-1.3
				c-3.3-0.7-6-2.2-7.6-4.1C165.6,128,165.2,128.2,164.8,128.2z"/>
			<path id="Path-9_3_" class="st8" d="M166.4,126.2c0.2,0.4,0.1,0.9-0.2,1.3c4.1,0.1,8.1-0.8,11.2-2.6c-0.7-0.2-1.2-0.5-1.5-0.9
				C173.3,125.4,169.9,126.2,166.4,126.2L166.4,126.2z"/>
			<path id="Path-10_3_" class="st8" d="M152.1,129.5c0.2,0.4,0.1,0.9-0.2,1.3c4.1,0.1,8.1-0.8,11.2-2.6c-0.7-0.2-1.2-0.5-1.5-0.9
				C158.9,128.7,155.6,129.5,152.1,129.5z"/>
			<path id="Path-11_3_" class="st8" d="M173.1,135.1c0.5-0.2,1-0.5,1.4-0.7c-0.7-0.2-1.2-0.5-1.5-0.9c-0.4,0.2-0.7,0.4-1.1,0.6
				c-6.5,2.8-15.2,1.8-19.6-2.2l0,0c-0.3-0.2-0.5-0.5-0.7-0.8c-0.6,0.4-1.3,0.6-1.9,0.6c0.3,0.3,0.6,0.7,0.9,1
				C155.6,137.2,165.7,138.3,173.1,135.1L173.1,135.1z"/>
			<path id="Path-12_3_" class="st8" d="M152.5,122.2c1.9,2.3,5.1,4,8.9,4.8c-0.1-0.5,0.1-0.9,0.5-1.3c-3.2-0.7-5.9-2.2-7.6-4.1
				C153.8,122,153.2,122.2,152.5,122.2L152.5,122.2z"/>
			<path id="Path-13_3_" class="st8" d="M150.1,125.2c0.3-1.1,1-2.1,1.9-3c-0.4,0-0.8-0.2-1.2-0.3c-0.2-0.1-0.4-0.2-0.5-0.4
				c-2.2,2.2-3,4.8-2.3,7.3c0.6-0.3,1.3-0.4,2-0.3C149.8,127.3,149.8,126.2,150.1,125.2z"/>
			<path id="Path-14_3_" class="st8" d="M146.1,117.9c-1.2-0.6-2.3-1.5-3.2-2.5c-0.6,0.4-1.2,0.6-1.9,0.5c1.9,2.3,5.1,4,9,4.8
				c-0.1-0.5,0.1-0.9,0.6-1.3C149,119.2,147.5,118.7,146.1,117.9L146.1,117.9z"/>
			<path id="Path-15_3_" class="st8" d="M147.7,129c-7.3-1.6-11.1-6.6-8.5-11.3c0.4-0.6,0.8-1.2,1.3-1.7c-0.4,0-0.8-0.2-1.2-0.3
				c-0.2-0.1-0.4-0.2-0.5-0.4c-4.8,4.8-2.5,11.1,5,14c1.1,0.4,2.2,0.7,3.3,1C147,129.8,147.2,129.3,147.7,129z"/>
			<path id="Path-16_3_" class="st8" d="M152.9,111.7c-0.1-0.2-0.2-0.5-0.1-0.8c0.1-0.2,0.2-0.4,0.3-0.5c-4.1-0.1-8.1,0.8-11.2,2.5
				c0.3,0.1,0.5,0.1,0.8,0.3c0.3,0.1,0.5,0.4,0.7,0.7C146.1,112.4,149.5,111.6,152.9,111.7L152.9,111.7z"/>
			<path id="Path-17_3_" class="st8" d="M154.8,112.7c-0.6,0-1.2-0.3-1.7-0.8c-2.2,2.2-3,4.8-2.3,7.4c0.6-0.3,1.4-0.4,2.1-0.4
				C152.4,116.8,153,114.6,154.8,112.7z"/>
			<path id="Path-18_3_" class="st8" d="M159.2,100.2c0.7,0.2,1.2,0.5,1.5,0.9c0.4-0.2,0.7-0.4,1.1-0.6c6.5-2.8,15.2-1.8,19.6,2.2
				l0,0c0.3,0.2,0.5,0.5,0.7,0.8c0.6-0.4,1.3-0.6,1.9-0.6c-0.3-0.3-0.6-0.7-0.9-1c-5-4.6-15.1-5.7-22.6-2.5
				C160.1,99.7,159.6,99.9,159.2,100.2z"/>
			<path id="Path-19_3_" class="st8" d="M153.8,106.1c-0.4,1.2-0.4,2.6,0,3.8c0.6-0.3,1.3-0.4,2-0.4c-0.6-2.1,0.1-4.3,1.9-6.2
				c-0.7-0.1-1.3-0.4-1.7-0.8C155,103.5,154.2,104.7,153.8,106.1L153.8,106.1z"/>
			<path id="Path-20_3_" class="st8" d="M141.3,111.9c-0.5-4.9,5.3-9.2,13.1-9.7l0,0c0.5,0,1,0,1.4,0c-0.1-0.2-0.2-0.5-0.1-0.8
				c0.1-0.2,0.2-0.4,0.3-0.5c-0.6,0-1.2,0-1.8,0c-8.9,0.5-15.7,5.4-15,11.1c0,0.4,0.1,0.8,0.2,1.1c0.6-0.3,1.3-0.4,2-0.3
				C141.4,112.5,141.3,112.2,141.3,111.9L141.3,111.9z"/>
			<path id="Path-21_3_" class="st8" d="M172.1,107.3c2.6-1.4,6-2.2,9.4-2.2c-0.2-0.4-0.1-1,0.2-1.3c-4.1-0.1-8.1,0.8-11.2,2.6
				C171.3,106.5,171.9,106.8,172.1,107.3z"/>
			<path id="Path-22_3_" class="st8" d="M168.9,106.3c0.3-0.1,0.6-0.1,0.8-0.1c-1.9-2.3-5.1-4-8.9-4.8c0,0.2,0,0.4,0,0.5
				c-0.1,0.3-0.3,0.6-0.5,0.7c3.3,0.7,6,2.2,7.6,4.1C168.1,106.6,168.5,106.4,168.9,106.3z"/>
			<path id="Path-23_3_" class="st8" d="M181.2,112.4c-1.9-2.3-5.1-4-9-4.8c0.1,0.5-0.1,0.9-0.6,1.3c3.2,0.7,5.9,2.2,7.6,4.1
				C179.9,112.6,180.5,112.4,181.2,112.4L181.2,112.4z"/>
			<path id="Path-24_3_" class="st8" d="M167.3,108.4c-0.2-0.4-0.1-1,0.3-1.3c-4.1-0.1-8.1,0.8-11.2,2.5c0.7,0.2,1.2,0.5,1.5,0.9
				C160.5,109.1,163.8,108.3,167.3,108.4L167.3,108.4z"/>
		</g>
	</g>
	<g>
		<g id="Group_6_" transform="translate(270.000000, 257.000000)" class="st4">
			<path id="Path_310_" class="st8" d="M22.5,104.6c0.8,0,1.6-0.2,2.3-0.6l12.3-7.2c0.3-0.2,0.4-0.5,0.4-0.8c0-0.3-0.2-0.6-0.4-0.8
				L7.3,77.9c-1.6-0.9-3.6-0.9-5.2,0l-12,7c-0.3,0.2-0.4,0.5-0.4,0.8c0,0.3,0.2,0.6,0.4,0.8L20.2,104
				C20.9,104.4,21.7,104.6,22.5,104.6z"/>
		</g>
		<g>
			<path id="Path_308_" class="st5" d="M272.5,329.5c1.5-0.9,3.5-0.9,5,0l29.8,17.3c0.2,0.1,0.4,0.4,0.4,0.6s-0.1,0.5-0.4,0.6
				l-12.3,7.2c-1.4,0.8-3,0.8-4.4,0l-30.1-17.5c-0.2-0.1-0.4-0.4-0.4-0.6s0.1-0.5,0.4-0.6L272.5,329.5z"/>
			<path class="st8" d="M292.7,356.2c-0.8,0-1.6-0.2-2.4-0.6L260.3,338c-0.3-0.2-0.5-0.5-0.5-0.9c0-0.4,0.2-0.7,0.5-0.9l12-7
				c1.7-1,3.7-1,5.4,0l29.8,17.3c0.3,0.2,0.5,0.5,0.5,0.9c0,0.4-0.2,0.7-0.5,0.9l-12.3,7.2C294.4,356,293.6,356.2,292.7,356.2z
				 M275,329.2c-0.8,0-1.6,0.2-2.3,0.6l-12,7c-0.1,0.1-0.2,0.2-0.2,0.3c0,0.1,0.1,0.2,0.2,0.3l30.1,17.5c1.2,0.7,2.8,0.7,4,0
				l12.3-7.2c0.1-0.1,0.2-0.2,0.2-0.3s-0.1-0.2-0.2-0.3l-29.8-17.3C276.6,329.4,275.8,329.2,275,329.2z"/>
		</g>
		<g>
			<path id="Path_307_" class="st5" d="M272.5,324.8c1.5-0.9,3.5-0.9,5,0l29.8,17.3c0.2,0.1,0.4,0.4,0.4,0.6c0,0.3-0.1,0.5-0.4,0.6
				l-12.3,7.2c-1.4,0.8-3,0.8-4.4,0L260.4,333c-0.2-0.1-0.4-0.4-0.4-0.6s0.1-0.5,0.4-0.6L272.5,324.8z"/>
			<path class="st8" d="M292.7,351.5c-0.8,0-1.6-0.2-2.4-0.6l-30.1-17.5c-0.3-0.2-0.5-0.5-0.5-0.9s0.2-0.7,0.5-0.9l12-7h0
				c1.7-1,3.7-1,5.4,0l29.8,17.3c0.3,0.2,0.5,0.5,0.5,0.9c0,0.4-0.2,0.7-0.5,0.9l-12.3,7.2C294.4,351.3,293.6,351.5,292.7,351.5z
				 M275,324.5c-0.8,0-1.6,0.2-2.3,0.6h0l-12,7c-0.1,0.1-0.2,0.2-0.2,0.3s0.1,0.2,0.2,0.3l30.1,17.5c1.2,0.7,2.8,0.7,4,0l12.3-7.2
				c0.1-0.1,0.2-0.2,0.2-0.3c0-0.1-0.1-0.2-0.2-0.3l-29.8-17.3C276.6,324.7,275.8,324.5,275,324.5z"/>
		</g>
		<g>
			<path id="Path_306_" class="st5" d="M272.5,320.1c1.5-0.9,3.5-0.9,5,0l29.8,17.3c0.2,0.1,0.4,0.4,0.4,0.6s-0.1,0.5-0.4,0.6
				l-12.3,7.2c-1.4,0.8-3,0.8-4.4,0l-30.1-17.5c-0.2-0.1-0.4-0.4-0.4-0.6c0-0.3,0.1-0.5,0.4-0.6L272.5,320.1z"/>
			<path class="st8" d="M292.7,346.8c-0.8,0-1.6-0.2-2.4-0.6l-30.1-17.5c-0.3-0.2-0.5-0.5-0.5-0.9s0.2-0.7,0.5-0.9l12-7h0
				c1.7-1,3.7-1,5.4,0l29.8,17.3c0.3,0.2,0.5,0.5,0.5,0.9c0,0.4-0.2,0.7-0.5,0.9l-12.3,7.2C294.4,346.6,293.6,346.8,292.7,346.8z
				 M275,319.8c-0.8,0-1.6,0.2-2.3,0.6h0l-12,7c-0.1,0.1-0.2,0.2-0.2,0.3c0,0.1,0.1,0.2,0.2,0.3l30.1,17.5c1.2,0.7,2.8,0.7,4,0
				l12.3-7.2c0.1-0.1,0.2-0.2,0.2-0.3c0-0.1-0.1-0.2-0.2-0.3l-29.8-17.3C276.6,320,275.8,319.8,275,319.8z"/>
		</g>
		<g>
			<path id="Path_296_" class="st5" d="M272.5,314.8c1.5-0.9,3.5-0.9,5,0l29.8,17.3c0.2,0.1,0.4,0.4,0.4,0.6c0,0.3-0.1,0.5-0.4,0.6
				l-12.3,7.2c-1.4,0.8-3,0.8-4.4,0l-30.1-17.5c-0.2-0.1-0.4-0.4-0.4-0.6c0-0.3,0.1-0.5,0.4-0.6L272.5,314.8z"/>
			<path class="st8" d="M292.7,341.5c-0.8,0-1.6-0.2-2.4-0.6l-30.1-17.5c-0.3-0.2-0.5-0.5-0.5-0.9s0.2-0.7,0.5-0.9l12-7h0
				c1.7-1,3.7-1,5.4,0l29.8,17.3c0.3,0.2,0.5,0.5,0.5,0.9c0,0.4-0.2,0.7-0.5,0.9l-12.3,7.2C294.4,341.3,293.6,341.5,292.7,341.5z
				 M275,314.5c-0.8,0-1.6,0.2-2.3,0.6h0l-12,7c-0.1,0.1-0.2,0.2-0.2,0.3s0.1,0.2,0.2,0.3l30.1,17.5c1.2,0.7,2.8,0.7,4,0l12.3-7.2
				c0.1-0.1,0.2-0.2,0.2-0.3c0-0.1-0.1-0.2-0.2-0.3l-29.8-17.3C276.6,314.7,275.8,314.5,275,314.5z"/>
		</g>
		<polygon id="Path_305_" class="st14" points="291.8,335.9 299.4,331.8 291.8,327.7 284.1,331.8 		"/>
		<g>
			<path id="Shape_4_" class="st15" d="M292.1,337c0.1,0,0.1,0,0.2-0.1l7.5-4.3c0.1-0.1,0.2-0.2,0.2-0.3s-0.1-0.3-0.2-0.3l-7.5-4.3
				c-0.1-0.1-0.3-0.1-0.4,0l-7.5,4.3c-0.1,0.1-0.2,0.2-0.2,0.3s0.1,0.3,0.2,0.3l7.5,4.3C291.9,337,292,337,292.1,337z M298.8,332.3
				l-6.7,3.8l-6.7-3.8l6.7-3.8L298.8,332.3z"/>
			<path class="st8" d="M292.1,337.4c-0.1,0-0.3,0-0.4-0.1l-7.5-4.3c-0.2-0.1-0.4-0.4-0.4-0.7s0.1-0.5,0.4-0.7l7.5-4.3
				c0.2-0.1,0.5-0.1,0.8,0l7.5,4.3c0.2,0.1,0.4,0.4,0.4,0.7s-0.1,0.5-0.4,0.7l-7.5,4.3C292.3,337.4,292.2,337.4,292.1,337.4z
				 M292,336.7L292,336.7C292.1,336.7,292.1,336.7,292,336.7l7.6-4.3l-7.5-4.4l-7.6,4.3L292,336.7z M292.1,336.6l-7.4-4.2l7.4-4.2
				l7.4,4.2L292.1,336.6z M286.1,332.3l6,3.4l6-3.4l-6-3.4L286.1,332.3z"/>
		</g>
		<polygon id="Path_304_" class="st14" points="277.2,327.3 284.8,323.2 277.2,319.1 269.5,323.2 		"/>
		<g>
			<path id="Shape_9_" class="st15" d="M277.4,328.5c0.1,0,0.1,0,0.2-0.1l7.5-4.3c0.1-0.1,0.2-0.2,0.2-0.3c0-0.1-0.1-0.3-0.2-0.3
				l-7.5-4.3c-0.1-0.1-0.3-0.1-0.4,0l-7.5,4.3c-0.1,0.1-0.2,0.2-0.2,0.3c0,0.1,0.1,0.3,0.2,0.3l7.5,4.3
				C277.3,328.5,277.4,328.5,277.4,328.5z M284.2,323.8l-6.7,3.8l-6.7-3.8l6.7-3.8L284.2,323.8z"/>
			<path class="st8" d="M277.4,328.9c-0.1,0-0.3,0-0.4-0.1l-7.5-4.3c-0.2-0.1-0.4-0.4-0.4-0.7s0.1-0.5,0.4-0.7l7.5-4.3
				c0.2-0.1,0.5-0.1,0.8,0l7.5,4.3c0.2,0.1,0.4,0.4,0.4,0.7s-0.1,0.5-0.4,0.7l-7.5,4.3C277.7,328.8,277.6,328.9,277.4,328.9z
				 M277.4,328.2L277.4,328.2C277.5,328.2,277.5,328.2,277.4,328.2l7.6-4.3l-7.5-4.4l-7.6,4.3L277.4,328.2z M277.4,328.1l-7.4-4.2
				l7.4-4.2l7.4,4.2L277.4,328.1z M271.5,323.8l6,3.4l6-3.4l-6-3.4L271.5,323.8z"/>
		</g>
	</g>
	<g>
		<line class="st5" x1="277.6" y1="258.9" x2="248.6" y2="241.7"/>
		<polygon class="st3" points="277.4,259.2 248.4,242 248.8,241.4 277.7,258.5 		"/>
	</g>
	<g>
		<line class="st5" x1="273.4" y1="261.3" x2="244.4" y2="244.2"/>
		
			<rect x="258.5" y="235.9" transform="matrix(0.5093 -0.8606 0.8606 0.5093 -90.4602 346.7998)" class="st3" width="0.7" height="33.6"/>
	</g>
	<path id="Path_303_" class="st16" d="M260.6,248"/>
	<path id="Path_302_" class="st16" d="M257.3,245.8"/>
	<path id="Path_301_" class="st16" d="M262.4,251.5"/>
	<path id="Path_300_" class="st16" d="M259.1,249.3"/>
	<path id="Path_299_" class="st16" d="M218.7,267.9"/>
	<path id="Path_298_" class="st16" d="M224,271.9"/>
</g>
<g id="Group_4_" transform="translate(270.000000, 257.000000)" class="st4">
	<path id="Path_297_" class="st8" d="M-33.4-2.7c-0.8,0-1.6-0.2-2.3-0.6L-48-10.5c-0.3-0.2-0.4-0.5-0.4-0.8s0.2-0.6,0.4-0.8
		l29.8-17.4c1.6-0.9,3.6-0.9,5.2,0l12,7c0.3,0.2,0.4,0.5,0.4,0.8S-0.7-21-1-20.8L-31.1-3.3C-31.8-2.9-32.6-2.7-33.4-2.7z"/>
</g>
<g>
	<path id="Path_430_" class="st5" d="M256.6,222.2c-1.5-0.9-3.5-0.9-5,0l-29.8,17.3c-0.2,0.1-0.4,0.4-0.4,0.6c0,0.3,0.1,0.5,0.4,0.6
		l12.3,7.2c1.4,0.8,3,0.8,4.4,0l30.1-17.5c0.2-0.1,0.4-0.4,0.4-0.6s-0.1-0.5-0.4-0.6L256.6,222.2z"/>
	<path class="st8" d="M236.4,248.8c-0.8,0-1.6-0.2-2.4-0.6l-12.3-7.2c-0.3-0.2-0.5-0.5-0.5-0.9c0-0.4,0.2-0.7,0.5-0.9l29.8-17.3
		c1.7-1,3.7-1,5.4,0l12,7c0.3,0.2,0.5,0.5,0.5,0.9c0,0.4-0.2,0.7-0.5,0.9l-30.1,17.5C238,248.6,237.2,248.8,236.4,248.8z
		 M254.1,221.9c-0.8,0-1.6,0.2-2.3,0.6L222,239.8c-0.1,0.1-0.2,0.2-0.2,0.3c0,0.1,0.1,0.2,0.2,0.3l12.3,7.2c1.2,0.7,2.8,0.7,4,0
		l30.1-17.5c0.1-0.1,0.2-0.2,0.2-0.3c0-0.1-0.1-0.2-0.2-0.3l-12-7C255.7,222.1,254.9,221.9,254.1,221.9z"/>
</g>
<linearGradient id="SVGID_5_" gradientUnits="userSpaceOnUse" x1="360.7614" y1="104.6431" x2="359.8966" y2="-8.0149" gradientTransform="matrix(-1 0.5774 0 1 601.2778 -145.5602)">
	<stop  offset="0" style="stop-color:#52C7EA;stop-opacity:0"/>
	<stop  offset="0.701" style="stop-color:#52C7EA"/>
</linearGradient>
<polygon class="st17" points="235.1,168 246.8,161.2 246.8,49.9 235.1,56.7 "/>
<g>
	
		<linearGradient id="SVGID_6_" gradientUnits="userSpaceOnUse" x1="359.7961" y1="84.7241" x2="357.5043" y2="-18.119" gradientTransform="matrix(-1 0.5774 0 1 601.2778 -145.5602)">
		<stop  offset="0" style="stop-color:#52C7EA;stop-opacity:0"/>
		<stop  offset="0.701" style="stop-color:#52C7EA"/>
	</linearGradient>
	<path class="st18" d="M239.6,148.5c-0.2,0.1-0.4,0.3-0.6,0.5c-0.2,0.2-0.3,0.5-0.3,0.7l4.8-2.8v0.2l0.1-0.1c0-0.1,0.1-0.2,0.2-0.4
		c0.1-0.2,0.2-0.3,0.3-0.3v-0.5L239.6,148.5z"/>
	
		<linearGradient id="SVGID_7_" gradientUnits="userSpaceOnUse" x1="359.9612" y1="84.7204" x2="357.6694" y2="-18.1226" gradientTransform="matrix(-1 0.5774 0 1 601.2778 -145.5602)">
		<stop  offset="0" style="stop-color:#52C7EA;stop-opacity:0"/>
		<stop  offset="0.701" style="stop-color:#52C7EA"/>
	</linearGradient>
	<path class="st19" d="M240,140c-0.4,0.2-0.7,0.5-0.9,1c-0.3,0.4-0.4,0.8-0.4,1.2c0,0.3,0.1,0.6,0.3,0.8c0.3,0.2,0.6,0.2,1-0.1
		l2.7-1.5c0.5-0.3,0.8-0.6,1.1-1s0.4-0.8,0.4-1.3c0-1-0.5-1.2-1.5-0.6L240,140z M240.5,140.2l1.9-1.1c0.8-0.4,1.1-0.3,1.1,0.3
		s-0.4,1.2-1.1,1.6l-1.9,1.1c-0.3,0.2-0.6,0.2-0.7,0.2c-0.2-0.1-0.3-0.2-0.3-0.5c0-0.3,0.1-0.6,0.3-0.9
		C239.9,140.6,240.2,140.4,240.5,140.2z"/>
	
		<linearGradient id="SVGID_8_" gradientUnits="userSpaceOnUse" x1="360.0838" y1="84.7177" x2="357.7921" y2="-18.1254" gradientTransform="matrix(-1 0.5774 0 1 601.2778 -145.5602)">
		<stop  offset="0" style="stop-color:#52C7EA;stop-opacity:0"/>
		<stop  offset="0.701" style="stop-color:#52C7EA"/>
	</linearGradient>
	<path class="st20" d="M239.6,135.6c-0.2,0.1-0.4,0.3-0.6,0.5c-0.2,0.2-0.3,0.5-0.3,0.7l4.8-2.8v0.2l0.1-0.1c0-0.1,0.1-0.2,0.2-0.4
		c0.1-0.2,0.2-0.3,0.3-0.3V133L239.6,135.6z"/>
	
		<linearGradient id="SVGID_9_" gradientUnits="userSpaceOnUse" x1="360.2002" y1="84.7151" x2="357.9084" y2="-18.128" gradientTransform="matrix(-1 0.5774 0 1 601.2778 -145.5602)">
		<stop  offset="0" style="stop-color:#52C7EA;stop-opacity:0"/>
		<stop  offset="0.701" style="stop-color:#52C7EA"/>
	</linearGradient>
	<path class="st21" d="M240,129.3c-0.4,0.2-0.7,0.5-0.9,1c-0.3,0.4-0.4,0.8-0.4,1.2c0,0.3,0.1,0.6,0.3,0.8c0.3,0.2,0.6,0.2,1-0.1
		l2.7-1.5c0.5-0.3,0.8-0.6,1.1-1c0.3-0.4,0.4-0.8,0.4-1.3c0-1-0.5-1.2-1.5-0.6L240,129.3z M240.5,129.5l1.9-1.1
		c0.8-0.4,1.1-0.3,1.1,0.3c0,0.6-0.4,1.2-1.1,1.6l-1.9,1.1c-0.3,0.2-0.6,0.2-0.7,0.2c-0.2-0.1-0.3-0.2-0.3-0.5
		c0-0.3,0.1-0.6,0.3-0.9C239.9,129.9,240.2,129.7,240.5,129.5z"/>
	
		<linearGradient id="SVGID_10_" gradientUnits="userSpaceOnUse" x1="360.3359" y1="84.7121" x2="358.0442" y2="-18.131" gradientTransform="matrix(-1 0.5774 0 1 601.2778 -145.5602)">
		<stop  offset="0" style="stop-color:#52C7EA;stop-opacity:0"/>
		<stop  offset="0.701" style="stop-color:#52C7EA"/>
	</linearGradient>
	<path class="st22" d="M240,123.2c-0.4,0.2-0.7,0.5-0.9,1c-0.3,0.4-0.4,0.8-0.4,1.2c0,0.3,0.1,0.6,0.3,0.8c0.3,0.2,0.6,0.2,1-0.1
		l2.7-1.5c0.5-0.3,0.8-0.6,1.1-1s0.4-0.8,0.4-1.3c0-1-0.5-1.2-1.5-0.6L240,123.2z M240.5,123.4l1.9-1.1c0.8-0.4,1.1-0.3,1.1,0.3
		s-0.4,1.2-1.1,1.6l-1.9,1.1c-0.3,0.2-0.6,0.2-0.7,0.2c-0.2-0.1-0.3-0.2-0.3-0.5c0-0.3,0.1-0.6,0.3-0.9
		C239.9,123.8,240.2,123.6,240.5,123.4z"/>
	
		<linearGradient id="SVGID_11_" gradientUnits="userSpaceOnUse" x1="360.4464" y1="84.7096" x2="358.1547" y2="-18.1334" gradientTransform="matrix(-1 0.5774 0 1 601.2778 -145.5602)">
		<stop  offset="0" style="stop-color:#52C7EA;stop-opacity:0"/>
		<stop  offset="0.701" style="stop-color:#52C7EA"/>
	</linearGradient>
	<path class="st23" d="M239.6,119.3c-0.2,0.1-0.4,0.3-0.6,0.5c-0.2,0.2-0.3,0.5-0.3,0.7l4.8-2.8v0.2l0.1-0.1c0-0.1,0.1-0.2,0.2-0.4
		c0.1-0.2,0.2-0.3,0.3-0.3v-0.5L239.6,119.3z"/>
	
		<linearGradient id="SVGID_12_" gradientUnits="userSpaceOnUse" x1="360.5255" y1="84.7078" x2="358.2337" y2="-18.1352" gradientTransform="matrix(-1 0.5774 0 1 601.2778 -145.5602)">
		<stop  offset="0" style="stop-color:#52C7EA;stop-opacity:0"/>
		<stop  offset="0.701" style="stop-color:#52C7EA"/>
	</linearGradient>
	<path class="st24" d="M239.6,115.8c-0.2,0.1-0.4,0.3-0.6,0.5c-0.2,0.2-0.3,0.5-0.3,0.7l4.8-2.8v0.2l0.1-0.1c0-0.1,0.1-0.2,0.2-0.4
		c0.1-0.2,0.2-0.3,0.3-0.3v-0.5L239.6,115.8z"/>
	
		<linearGradient id="SVGID_13_" gradientUnits="userSpaceOnUse" x1="360.6044" y1="84.7061" x2="358.3127" y2="-18.137" gradientTransform="matrix(-1 0.5774 0 1 601.2778 -145.5602)">
		<stop  offset="0" style="stop-color:#52C7EA;stop-opacity:0"/>
		<stop  offset="0.701" style="stop-color:#52C7EA"/>
	</linearGradient>
	<path class="st25" d="M239.6,112.2c-0.2,0.1-0.4,0.3-0.6,0.5c-0.2,0.2-0.3,0.5-0.3,0.7l4.8-2.8v0.2l0.1-0.1c0-0.1,0.1-0.2,0.2-0.4
		c0.1-0.2,0.2-0.3,0.3-0.3v-0.5L239.6,112.2z"/>
	
		<linearGradient id="SVGID_14_" gradientUnits="userSpaceOnUse" x1="360.6834" y1="84.7043" x2="358.3917" y2="-18.1387" gradientTransform="matrix(-1 0.5774 0 1 601.2778 -145.5602)">
		<stop  offset="0" style="stop-color:#52C7EA;stop-opacity:0"/>
		<stop  offset="0.701" style="stop-color:#52C7EA"/>
	</linearGradient>
	<path class="st26" d="M239.6,108.7c-0.2,0.1-0.4,0.3-0.6,0.5c-0.2,0.2-0.3,0.5-0.3,0.7l4.8-2.8v0.2l0.1-0.1c0-0.1,0.1-0.2,0.2-0.4
		c0.1-0.2,0.2-0.3,0.3-0.3V106L239.6,108.7z"/>
	
		<linearGradient id="SVGID_15_" gradientUnits="userSpaceOnUse" x1="360.7624" y1="84.7026" x2="358.4707" y2="-18.1405" gradientTransform="matrix(-1 0.5774 0 1 601.2778 -145.5602)">
		<stop  offset="0" style="stop-color:#52C7EA;stop-opacity:0"/>
		<stop  offset="0.701" style="stop-color:#52C7EA"/>
	</linearGradient>
	<path class="st27" d="M239.6,105.1c-0.2,0.1-0.4,0.3-0.6,0.5c-0.2,0.2-0.3,0.5-0.3,0.7l4.8-2.8v0.2l0.1-0.1c0-0.1,0.1-0.2,0.2-0.4
		c0.1-0.2,0.2-0.3,0.3-0.3v-0.5L239.6,105.1z"/>
	
		<linearGradient id="SVGID_16_" gradientUnits="userSpaceOnUse" x1="360.8666" y1="84.7002" x2="358.5749" y2="-18.1428" gradientTransform="matrix(-1 0.5774 0 1 601.2778 -145.5602)">
		<stop  offset="0" style="stop-color:#52C7EA;stop-opacity:0"/>
		<stop  offset="0.701" style="stop-color:#52C7EA"/>
	</linearGradient>
	<path class="st28" d="M240,99.3c-0.4,0.2-0.7,0.5-0.9,1c-0.3,0.4-0.4,0.8-0.4,1.2c0,0.3,0.1,0.6,0.3,0.8c0.3,0.2,0.6,0.2,1-0.1
		l2.7-1.5c0.5-0.3,0.8-0.6,1.1-1s0.4-0.8,0.4-1.3c0-1-0.5-1.2-1.5-0.6L240,99.3z M240.5,99.6l1.9-1.1c0.8-0.4,1.1-0.3,1.1,0.3
		s-0.4,1.2-1.1,1.6l-1.9,1.1c-0.3,0.2-0.6,0.2-0.7,0.2c-0.2-0.1-0.3-0.2-0.3-0.5c0-0.3,0.1-0.6,0.3-0.9
		C239.9,100,240.2,99.8,240.5,99.6z"/>
	
		<linearGradient id="SVGID_17_" gradientUnits="userSpaceOnUse" x1="360.9902" y1="84.6975" x2="358.6984" y2="-18.1456" gradientTransform="matrix(-1 0.5774 0 1 601.2778 -145.5602)">
		<stop  offset="0" style="stop-color:#52C7EA;stop-opacity:0"/>
		<stop  offset="0.701" style="stop-color:#52C7EA"/>
	</linearGradient>
	<path class="st29" d="M240,93.8c-0.4,0.2-0.7,0.5-0.9,1c-0.3,0.4-0.4,0.8-0.4,1.2c0,0.3,0.1,0.6,0.3,0.8c0.3,0.2,0.6,0.2,1-0.1
		l2.7-1.5c0.5-0.3,0.8-0.6,1.1-1s0.4-0.8,0.4-1.3c0-1-0.5-1.2-1.5-0.6L240,93.8z M240.5,94l1.9-1.1c0.8-0.4,1.1-0.3,1.1,0.3
		s-0.4,1.2-1.1,1.6l-1.9,1.1c-0.3,0.2-0.6,0.2-0.7,0.2c-0.2-0.1-0.3-0.2-0.3-0.5c0-0.3,0.1-0.6,0.3-0.9
		C239.9,94.4,240.2,94.2,240.5,94z"/>
	
		<linearGradient id="SVGID_18_" gradientUnits="userSpaceOnUse" x1="361.1137" y1="84.6947" x2="358.8219" y2="-18.1483" gradientTransform="matrix(-1 0.5774 0 1 601.2778 -145.5602)">
		<stop  offset="0" style="stop-color:#52C7EA;stop-opacity:0"/>
		<stop  offset="0.701" style="stop-color:#52C7EA"/>
	</linearGradient>
	<path class="st30" d="M240,88.3c-0.4,0.2-0.7,0.5-0.9,1c-0.3,0.4-0.4,0.8-0.4,1.2c0,0.3,0.1,0.6,0.3,0.8c0.3,0.2,0.6,0.2,1-0.1
		l2.7-1.5c0.5-0.3,0.8-0.6,1.1-1s0.4-0.8,0.4-1.3c0-1-0.5-1.2-1.5-0.6L240,88.3z M240.5,88.5l1.9-1.1c0.8-0.4,1.1-0.3,1.1,0.3
		s-0.4,1.2-1.1,1.6l-1.9,1.1c-0.3,0.2-0.6,0.2-0.7,0.2c-0.2-0.1-0.3-0.2-0.3-0.5c0-0.3,0.1-0.6,0.3-0.9
		C239.9,88.9,240.2,88.7,240.5,88.5z"/>
	
		<linearGradient id="SVGID_19_" gradientUnits="userSpaceOnUse" x1="361.2372" y1="84.692" x2="358.9455" y2="-18.1511" gradientTransform="matrix(-1 0.5774 0 1 601.2778 -145.5602)">
		<stop  offset="0" style="stop-color:#52C7EA;stop-opacity:0"/>
		<stop  offset="0.701" style="stop-color:#52C7EA"/>
	</linearGradient>
	<path class="st31" d="M240,82.7c-0.4,0.2-0.7,0.5-0.9,1c-0.3,0.4-0.4,0.8-0.4,1.2c0,0.3,0.1,0.6,0.3,0.8c0.3,0.2,0.6,0.2,1-0.1
		l2.7-1.5c0.5-0.3,0.8-0.6,1.1-1c0.3-0.4,0.4-0.8,0.4-1.3c0-1-0.5-1.2-1.5-0.6L240,82.7z M240.5,82.9l1.9-1.1
		c0.8-0.4,1.1-0.3,1.1,0.3s-0.4,1.2-1.1,1.6l-1.9,1.1c-0.3,0.2-0.6,0.2-0.7,0.2c-0.2-0.1-0.3-0.2-0.3-0.5c0-0.3,0.1-0.6,0.3-0.9
		C239.9,83.4,240.2,83.1,240.5,82.9z"/>
	
		<linearGradient id="SVGID_20_" gradientUnits="userSpaceOnUse" x1="361.3356" y1="84.6898" x2="359.0438" y2="-18.1533" gradientTransform="matrix(-1 0.5774 0 1 601.2778 -145.5602)">
		<stop  offset="0" style="stop-color:#52C7EA;stop-opacity:0"/>
		<stop  offset="0.701" style="stop-color:#52C7EA"/>
	</linearGradient>
	<path class="st32" d="M239.6,79.4c-0.2,0.1-0.4,0.3-0.6,0.5c-0.2,0.2-0.3,0.5-0.3,0.7l4.8-2.8V78l0.1-0.1c0-0.1,0.1-0.2,0.2-0.4
		c0.1-0.2,0.2-0.3,0.3-0.3v-0.5L239.6,79.4z"/>
	
		<linearGradient id="SVGID_21_" gradientUnits="userSpaceOnUse" x1="361.4398" y1="84.6875" x2="359.148" y2="-18.1556" gradientTransform="matrix(-1 0.5774 0 1 601.2778 -145.5602)">
		<stop  offset="0" style="stop-color:#52C7EA;stop-opacity:0"/>
		<stop  offset="0.701" style="stop-color:#52C7EA"/>
	</linearGradient>
	<path class="st33" d="M240,73.6c-0.4,0.2-0.7,0.5-0.9,1c-0.3,0.4-0.4,0.8-0.4,1.2c0,0.3,0.1,0.6,0.3,0.8c0.3,0.2,0.6,0.2,1-0.1
		l2.7-1.5c0.5-0.3,0.8-0.6,1.1-1s0.4-0.8,0.4-1.3c0-1-0.5-1.2-1.5-0.6L240,73.6z M240.5,73.9l1.9-1.1c0.8-0.4,1.1-0.3,1.1,0.3
		c0,0.6-0.4,1.2-1.1,1.6l-1.9,1.1c-0.3,0.2-0.6,0.2-0.7,0.2c-0.2-0.1-0.3-0.2-0.3-0.5c0-0.3,0.1-0.6,0.3-0.9
		C239.9,74.3,240.2,74,240.5,73.9z"/>
	
		<linearGradient id="SVGID_22_" gradientUnits="userSpaceOnUse" x1="361.5381" y1="84.6853" x2="359.2463" y2="-18.1578" gradientTransform="matrix(-1 0.5774 0 1 601.2778 -145.5602)">
		<stop  offset="0" style="stop-color:#52C7EA;stop-opacity:0"/>
		<stop  offset="0.701" style="stop-color:#52C7EA"/>
	</linearGradient>
	<path class="st34" d="M239.6,70.3c-0.2,0.1-0.4,0.3-0.6,0.5c-0.2,0.2-0.3,0.5-0.3,0.7l4.8-2.8v0.2l0.1-0.1c0-0.1,0.1-0.2,0.2-0.4
		c0.1-0.2,0.2-0.3,0.3-0.3v-0.5L239.6,70.3z"/>
	
		<linearGradient id="SVGID_23_" gradientUnits="userSpaceOnUse" x1="361.6423" y1="84.683" x2="359.3505" y2="-18.1601" gradientTransform="matrix(-1 0.5774 0 1 601.2778 -145.5602)">
		<stop  offset="0" style="stop-color:#52C7EA;stop-opacity:0"/>
		<stop  offset="0.701" style="stop-color:#52C7EA"/>
	</linearGradient>
	<path class="st35" d="M240,64.5c-0.4,0.2-0.7,0.5-0.9,1c-0.3,0.4-0.4,0.8-0.4,1.2c0,0.3,0.1,0.6,0.3,0.8c0.3,0.2,0.6,0.2,1-0.1
		l2.7-1.5c0.5-0.3,0.8-0.6,1.1-1s0.4-0.8,0.4-1.3c0-1-0.5-1.2-1.5-0.6L240,64.5z M240.5,64.8l1.9-1.1c0.8-0.4,1.1-0.3,1.1,0.3
		s-0.4,1.2-1.1,1.6l-1.9,1.1c-0.3,0.2-0.6,0.2-0.7,0.2c-0.2-0.1-0.3-0.2-0.3-0.5c0-0.3,0.1-0.6,0.3-0.9
		C239.9,65.2,240.2,64.9,240.5,64.8z"/>
	
		<linearGradient id="SVGID_24_" gradientUnits="userSpaceOnUse" x1="361.7406" y1="84.6808" x2="359.4489" y2="-18.1623" gradientTransform="matrix(-1 0.5774 0 1 601.2778 -145.5602)">
		<stop  offset="0" style="stop-color:#52C7EA;stop-opacity:0"/>
		<stop  offset="0.701" style="stop-color:#52C7EA"/>
	</linearGradient>
	<path class="st36" d="M239.6,61.2c-0.2,0.1-0.4,0.3-0.6,0.5c-0.2,0.2-0.3,0.5-0.3,0.7l4.8-2.8v0.2l0.1-0.1c0-0.1,0.1-0.2,0.2-0.4
		s0.2-0.3,0.3-0.3v-0.5L239.6,61.2z"/>
	
		<linearGradient id="SVGID_25_" gradientUnits="userSpaceOnUse" x1="361.8448" y1="84.6784" x2="359.5531" y2="-18.1646" gradientTransform="matrix(-1 0.5774 0 1 601.2778 -145.5602)">
		<stop  offset="0" style="stop-color:#52C7EA;stop-opacity:0"/>
		<stop  offset="0.701" style="stop-color:#52C7EA"/>
	</linearGradient>
	<path class="st37" d="M240,55.4c-0.4,0.2-0.7,0.5-0.9,1c-0.3,0.4-0.4,0.8-0.4,1.2c0,0.3,0.1,0.6,0.3,0.8c0.3,0.2,0.6,0.2,1-0.1
		l2.7-1.5c0.5-0.3,0.8-0.6,1.1-1s0.4-0.8,0.4-1.3c0-1-0.5-1.2-1.5-0.6L240,55.4z M240.5,55.7l1.9-1.1c0.8-0.4,1.1-0.3,1.1,0.3
		s-0.4,1.2-1.1,1.6l-1.9,1.1c-0.3,0.2-0.6,0.2-0.7,0.2c-0.2-0.1-0.3-0.2-0.3-0.5c0-0.3,0.1-0.6,0.3-0.9
		C239.9,56.1,240.2,55.8,240.5,55.7z"/>
	
		<linearGradient id="SVGID_26_" gradientUnits="userSpaceOnUse" x1="361.9431" y1="84.6763" x2="359.6514" y2="-18.1668" gradientTransform="matrix(-1 0.5774 0 1 601.2778 -145.5602)">
		<stop  offset="0" style="stop-color:#52C7EA;stop-opacity:0"/>
		<stop  offset="0.701" style="stop-color:#52C7EA"/>
	</linearGradient>
	<path class="st38" d="M239.6,52.1c-0.2,0.1-0.4,0.3-0.6,0.5c-0.2,0.2-0.3,0.5-0.3,0.7l4.8-2.8v0.2l0.1-0.1c0-0.1,0.1-0.2,0.2-0.4
		s0.2-0.3,0.3-0.3v-0.5L239.6,52.1z"/>
	
		<linearGradient id="SVGID_27_" gradientUnits="userSpaceOnUse" x1="362.0222" y1="84.6745" x2="359.7304" y2="-18.1686" gradientTransform="matrix(-1 0.5774 0 1 601.2778 -145.5602)">
		<stop  offset="0" style="stop-color:#52C7EA;stop-opacity:0"/>
		<stop  offset="0.701" style="stop-color:#52C7EA"/>
	</linearGradient>
	<path class="st39" d="M239.6,48.6c-0.2,0.1-0.4,0.3-0.6,0.5c-0.2,0.2-0.3,0.5-0.3,0.7l4.8-2.8v0.2l0.1-0.1c0-0.1,0.1-0.2,0.2-0.4
		s0.2-0.3,0.3-0.3v-0.5L239.6,48.6z"/>
</g>
<g>
	<path class="st7" d="M240.1,242.4l-6.6-3.8c-0.8-0.4-1.3-1.3-1.3-2.2l7-68.3l9.3-0.2L240.1,242.4z"/>
	<path class="st2" d="M249.2,165.9l6.8,65.8c0,0.9-0.5,1.7-1.2,2.2l-14.6,8.7l2.4-72.6L249.2,165.9z"/>
	<path id="Path_295_" class="st5" d="M242.3,170l-3-1.6c-0.2-0.1-0.2-0.4,0-0.5l6.6-3.9c0.1,0,0.2-0.1,0.3,0l3,1.6
		c0.2,0.1,0.2,0.4,0,0.5l-6.6,3.9C242.5,170.1,242.4,170.1,242.3,170z"/>
</g>
<g>
	<path class="st0" d="M301.5,36l-26.1-15.2l0,0c-3.9-2.3-9.3-2-15.3,1.4c-2,1.1-3.9,2.5-5.7,4.1l-10.5-6.1l0,0
		c-5.8-4.1-14.2-3.9-23.5,1.5c-11.8,6.8-22.1,20.2-27.5,34.4c-1.8,0.1-3.8,0.7-5.9,1.9c-7.7,4.4-13.9,15.3-13.9,24.1
		c0,0.2,0,0.4,0,0.6c-2.2,0.2-4.6,0.9-7.2,2.4C156,90.8,148,104.7,148,116c0,5.6,2,9.6,5.1,11.5l0,0l0.1,0c0,0,0,0,0,0l25.8,15
		l5.6-27.1l75.4-43.5c9.6-5.6,17.8-17.6,20.5-29.2L301.5,36z"/>
	<g>
		<g>
			<g>
				<g>
					<path class="st5" d="M286,37.3c-3.4,2-6.6,4.7-9.4,8c-4-12.7-16-16.6-30.3-8.4c-11.8,6.8-22.1,20.2-27.5,34.4
						c-1.8,0.1-3.8,0.7-5.9,1.9c-7.7,4.4-13.9,15.3-13.9,24.1c0,0.2,0,0.4,0,0.6c-2.2,0.2-4.6,0.9-7.2,2.4
						c-9.8,5.7-17.8,19.5-17.8,30.9s8,16,17.8,10.3L286,86.9c11.9-6.9,21.5-23.5,21.5-37.3C307.5,36,297.8,30.4,286,37.3z"/>
					<path class="st8" d="M183.8,144.4c-1.8,0-3.5-0.4-4.9-1.3c-3.5-2-5.5-6.3-5.5-12c0-11.5,8.1-25.6,18.1-31.4
						c2.4-1.4,4.7-2.2,6.9-2.4c0,0,0,0,0,0c0-9.1,6.4-20.1,14.2-24.6c2-1.2,4-1.8,5.8-1.9c5.7-14.6,16.3-27.8,27.6-34.3
						c7.6-4.4,15-5.5,20.8-3.2c4.6,1.8,8.1,5.6,10,11c2.8-3.1,5.8-5.5,8.9-7.3l0,0c5.9-3.4,11.5-4,15.8-1.5
						c4.2,2.5,6.6,7.6,6.6,14.4c0,13.9-9.8,30.8-21.8,37.8L192,141.8C189.1,143.5,186.3,144.4,183.8,144.4z M260.4,33.1
						c-4.3,0-9,1.4-13.9,4.2c-11.2,6.5-21.7,19.6-27.3,34.1l-0.1,0.4l-0.4,0c-1.8,0.1-3.7,0.7-5.7,1.8c-7.5,4.3-13.7,15-13.7,23.6
						c0,0.1,0,0.2,0,0.3l0,0.8l-0.5,0c-2.2,0.1-4.5,0.9-6.9,2.3c-9.7,5.6-17.5,19.2-17.5,30.4c0,5.3,1.8,9.2,4.9,11
						c3.2,1.8,7.5,1.4,12-1.2l94.2-54.4c11.7-6.8,21.2-23.3,21.2-36.8c0-6.4-2.1-11.2-6-13.4c-3.9-2.2-9.1-1.7-14.6,1.5l0,0
						c-3.2,1.9-6.4,4.5-9.3,7.8l-0.7,0.8l-0.3-1c-1.7-5.6-5.1-9.5-9.6-11.2C264.5,33.4,262.5,33.1,260.4,33.1z"/>
				</g>
			</g>
		</g>
	</g>
</g>
<g>
	<g>
		<g class="st9">
			<defs>
				<polygon id="SVGID_28_" class="st9" points="227.4,165.5 227.3,137.3 261,129.1 261.2,157.3 				"/>
			</defs>
			<clipPath id="SVGID_29_">
				<use xlink:href="#SVGID_28_"  style="overflow:visible;"/>
			</clipPath>
			<g class="st40">
				<g>
					<g>
						<g>
							<path class="st8" d="M244.3,155.7L244.3,155.7c-2.5,0.6-5,2.8-6.9,6.1c-0.2,0.3-0.2,0.7-0.1,1c0.1,0.2,0.2,0.2,0.3,0.2
								c0.1,0,0.2-0.1,0.2-0.2c1.8-3.1,4.1-5.1,6.4-5.7l0,0c2.3-0.6,4.6,0.3,6.5,2.6c0.1,0.1,0.2,0.1,0.2,0.1c0.1,0,0.2-0.1,0.3-0.3
								c0.1-0.3,0.1-0.8-0.1-1C249.2,156.1,246.8,155.1,244.3,155.7"/>
							<path class="st8" d="M244.2,144.4L244.2,144.4c-4.2,1-8.3,4.2-11.8,9.3c-0.2,0.2-0.2,0.7-0.1,1c0.1,0.2,0.2,0.3,0.3,0.2
								c0.1,0,0.1-0.1,0.2-0.2c3.4-4.9,7.3-8,11.4-9l0,0c4.1-1,8,0.2,11.5,3.4c0.1,0.1,0.1,0.1,0.2,0.1c0.1,0,0.3-0.2,0.3-0.4
								c0.1-0.4,0.1-0.8-0.1-0.9C252.5,144.6,248.4,143.4,244.2,144.4"/>
							<path class="st8" d="M244.1,133.2c-5.9,1.4-11.7,5.8-16.7,12.6c-0.2,0.2-0.2,0.7-0.1,1c0.1,0.2,0.2,0.3,0.3,0.3
								c0.1,0,0.1-0.1,0.2-0.1c4.9-6.7,10.5-10.9,16.3-12.3c5.8-1.4,11.4,0.1,16.4,4.4c0.1,0,0.1,0.1,0.2,0.1c0.1,0,0.3-0.2,0.3-0.4
								c0.1-0.4,0-0.8-0.1-0.9C255.8,133.3,250,131.8,244.1,133.2"/>
						</g>
					</g>
				</g>
			</g>
		</g>
	</g>
</g>
<polygon id="Path_35_" class="st16" points="220.4,299.4 216.4,296.7 218.7,295.2 222.7,297.9 "/>
<polygon id="Path_36_" class="st16" points="205.5,307.9 201.6,305.4 214.6,297.3 218.5,299.8 "/>
<polygon id="Path_38_" class="st16" points="194.1,321.3 189.5,318.5 195.6,314.9 200.1,317.7 "/>
<polygon id="Path_39_" class="st16" points="219.3,307.9 214.8,305.1 220.8,301.5 225.3,304.3 "/>
<polygon id="Path_40_" class="st16" points="210,312.9 206.5,310.7 213.5,306.6 217,308.8 "/>
<polygon id="Path_41_" class="st16" points="198.3,314.2 194.4,311.8 201.1,307.9 205,310.3 "/>
<polyline id="Path_1_" class="st16" points="181.6,323.6 187.6,320.1 192.1,322.9 186.1,326.4 "/>
<polygon id="Path_43_" class="st16" points="226.3,303.1 222.3,300.4 224.6,298.9 228.6,301.6 "/>
<linearGradient id="SVGID_30_" gradientUnits="userSpaceOnUse" x1="146.9461" y1="376.3799" x2="161.725" y2="376.3799">
	<stop  offset="0" style="stop-color:#52C7EA;stop-opacity:0.7"/>
	<stop  offset="1" style="stop-color:#000000"/>
</linearGradient>
<polygon class="st41" points="146.9,372 161.7,363.5 161.7,380.8 147,389.3 "/>
<linearGradient id="SVGID_31_" gradientUnits="userSpaceOnUse" x1="173.3243" y1="361.2204" x2="188.1032" y2="361.2204">
	<stop  offset="0" style="stop-color:#52C7EA;stop-opacity:0.7"/>
	<stop  offset="1" style="stop-color:#000000"/>
</linearGradient>
<polygon class="st42" points="173.3,356.8 188.1,348.3 188.1,365.6 173.3,374.1 "/>
<linearGradient id="SVGID_32_" gradientUnits="userSpaceOnUse" x1="198.1076" y1="347.3725" x2="212.8864" y2="347.3725">
	<stop  offset="0" style="stop-color:#52C7EA;stop-opacity:0.7"/>
	<stop  offset="1" style="stop-color:#000000"/>
</linearGradient>
<polygon class="st43" points="198.1,343 212.9,334.5 212.9,351.8 198.1,360.2 "/>
<linearGradient id="SVGID_33_" gradientUnits="userSpaceOnUse" x1="223.4541" y1="333.8395" x2="238.233" y2="333.8395">
	<stop  offset="0" style="stop-color:#52C7EA;stop-opacity:0.7"/>
	<stop  offset="1" style="stop-color:#000000"/>
</linearGradient>
<polygon class="st44" points="223.5,329.4 238.2,321 238.2,338.3 223.5,346.7 "/>
</svg>
