<svg id="Layer_1" data-name="Layer 1" xmlns="http://www.w3.org/2000/svg" xmlns:xlink="http://www.w3.org/1999/xlink" viewBox="0 0 540 540"><defs><style>.cls-1{fill:none;}.cls-12,.cls-2,.cls-38,.cls-4{fill:#52c7ea;}.cls-2{opacity:0.1;}.cls-3{opacity:0.6;}.cls-3,.cls-38,.cls-9{isolation:isolate;}.cls-5{fill:#0a1a2b;}.cls-38,.cls-6{opacity:0.2;}.cls-7{fill:#152935;}.cls-8{fill:#05131c;}.cls-10{clip-path:url(#clip-path);}.cls-11{clip-path:url(#clip-path-2);}.cls-12{opacity:0.2;}.cls-13{fill:#ec432d;}.cls-14{opacity:0.3;fill:url(#linear-gradient);}.cls-15{fill:url(#linear-gradient-2);}.cls-16{fill:url(#linear-gradient-3);}.cls-17{fill:url(#linear-gradient-4);}.cls-18{fill:url(#linear-gradient-5);}.cls-19{fill:url(#linear-gradient-6);}.cls-20{fill:url(#linear-gradient-7);}.cls-21{fill:url(#linear-gradient-8);}.cls-22{fill:url(#linear-gradient-9);}.cls-23{fill:url(#linear-gradient-10);}.cls-24{fill:url(#linear-gradient-11);}.cls-25{fill:url(#linear-gradient-12);}.cls-26{fill:url(#linear-gradient-13);}.cls-27{fill:url(#linear-gradient-14);}.cls-28{fill:url(#linear-gradient-15);}.cls-29{fill:url(#linear-gradient-16);}.cls-30{fill:url(#linear-gradient-17);}.cls-31{fill:url(#linear-gradient-18);}.cls-32{fill:url(#linear-gradient-19);}.cls-33{fill:url(#linear-gradient-20);}.cls-34{fill:url(#linear-gradient-21);}.cls-35{fill:url(#linear-gradient-22);}.cls-36{fill:url(#linear-gradient-23);}.cls-37{clip-path:url(#clip-path-3);}</style><clipPath id="clip-path"><polygon class="cls-1" points="158.86 366.18 109.6 339.26 175.84 302.54 225.1 329.46 158.86 366.18"/></clipPath><clipPath id="clip-path-2"><polyline class="cls-1" points="175.29 302.85 111.49 339.96 132.85 351.34 196.65 314.23 175.29 302.85"/></clipPath><linearGradient id="linear-gradient" x1="405.54" y1="117.42" x2="404.62" y2="-1.67" gradientTransform="matrix(-1, 0.58, 0, 1, 675, -166.84)" gradientUnits="userSpaceOnUse"><stop offset="0" stop-color="#52c7ea" stop-opacity="0"/><stop offset="0.7" stop-color="#52c7ea"/></linearGradient><linearGradient id="linear-gradient-2" x1="404.52" y1="96.36" x2="402.09" y2="-12.36" xlink:href="#linear-gradient"/><linearGradient id="linear-gradient-3" x1="404.69" y1="96.36" x2="402.27" y2="-12.36" xlink:href="#linear-gradient"/><linearGradient id="linear-gradient-4" x1="404.82" y1="96.36" x2="402.4" y2="-12.36" xlink:href="#linear-gradient"/><linearGradient id="linear-gradient-5" x1="404.94" y1="96.35" x2="402.52" y2="-12.37" xlink:href="#linear-gradient"/><linearGradient id="linear-gradient-6" x1="405.09" y1="96.35" x2="402.66" y2="-12.37" xlink:href="#linear-gradient"/><linearGradient id="linear-gradient-7" x1="405.2" y1="96.35" x2="402.78" y2="-12.37" xlink:href="#linear-gradient"/><linearGradient id="linear-gradient-8" x1="405.29" y1="96.35" x2="402.86" y2="-12.37" xlink:href="#linear-gradient"/><linearGradient id="linear-gradient-9" x1="405.37" y1="96.34" x2="402.95" y2="-12.37" xlink:href="#linear-gradient"/><linearGradient id="linear-gradient-10" x1="405.45" y1="96.34" x2="403.03" y2="-12.38" xlink:href="#linear-gradient"/><linearGradient id="linear-gradient-11" x1="405.54" y1="96.34" x2="403.11" y2="-12.38" xlink:href="#linear-gradient"/><linearGradient id="linear-gradient-12" x1="405.65" y1="96.34" x2="403.22" y2="-12.38" xlink:href="#linear-gradient"/><linearGradient id="linear-gradient-13" x1="405.78" y1="96.34" x2="403.36" y2="-12.38" xlink:href="#linear-gradient"/><linearGradient id="linear-gradient-14" x1="405.91" y1="96.33" x2="403.49" y2="-12.39" xlink:href="#linear-gradient"/><linearGradient id="linear-gradient-15" x1="406.04" y1="96.33" x2="403.62" y2="-12.39" xlink:href="#linear-gradient"/><linearGradient id="linear-gradient-16" x1="406.14" y1="96.33" x2="403.72" y2="-12.39" xlink:href="#linear-gradient"/><linearGradient id="linear-gradient-17" x1="406.25" y1="96.32" x2="403.83" y2="-12.39" xlink:href="#linear-gradient"/><linearGradient id="linear-gradient-18" x1="406.36" y1="96.32" x2="403.93" y2="-12.4" xlink:href="#linear-gradient"/><linearGradient id="linear-gradient-19" x1="406.47" y1="96.32" x2="404.04" y2="-12.4" xlink:href="#linear-gradient"/><linearGradient id="linear-gradient-20" x1="406.57" y1="96.32" x2="404.15" y2="-12.4" xlink:href="#linear-gradient"/><linearGradient id="linear-gradient-21" x1="406.68" y1="96.32" x2="404.26" y2="-12.4" xlink:href="#linear-gradient"/><linearGradient id="linear-gradient-22" x1="406.79" y1="96.31" x2="404.36" y2="-12.41" xlink:href="#linear-gradient"/><linearGradient id="linear-gradient-23" x1="406.87" y1="96.31" x2="404.45" y2="-12.41" xlink:href="#linear-gradient"/><clipPath id="clip-path-3"><polygon class="cls-1" points="255.65 182.72 255.45 152.94 291.11 144.26 291.31 174.05 255.65 182.72"/></clipPath></defs><path id="Path" class="cls-2" d="M201.74,499.66,31,400.7a6.73,6.73,0,0,1,0-11.65L301.07,232.93a34,34,0,0,1,34.1,0l170.75,99a6.73,6.73,0,0,1,0,11.65L235.83,499.68A34,34,0,0,1,201.74,499.66Z"/><g class="cls-3"><path class="cls-4" d="M220.17,489.13a34.43,34.43,0,0,1-17.25-4.62l-170.74-99a7.09,7.09,0,0,1,0-12.27L302.26,217.16a34.49,34.49,0,0,1,34.46,0l170.75,99a7.09,7.09,0,0,1,0,12.27L237.38,484.53A34.37,34.37,0,0,1,220.17,489.13Zm-16.88-5.25a33.73,33.73,0,0,0,33.73,0L507.1,327.78a6.36,6.36,0,0,0,0-11l-170.74-99a33.75,33.75,0,0,0-33.74,0L32.54,373.9a6.36,6.36,0,0,0,0,11Z"/></g><path id="Path-2" data-name="Path" class="cls-5" d="M203.11,468.9l-170.75-99a6.72,6.72,0,0,1,0-11.64L302.44,202.18a34,34,0,0,1,34.1,0l170.74,99a6.73,6.73,0,0,1,0,11.65L237.2,468.92A34,34,0,0,1,203.11,468.9Z"/><path class="cls-5" d="M220.17,473.63A34.21,34.21,0,0,1,203,469l-170.75-99a6.88,6.88,0,0,1,0-11.91L302.36,202a34.31,34.31,0,0,1,34.25,0l170.75,99a6.88,6.88,0,0,1,0,11.91L237.28,469.05A34.22,34.22,0,0,1,220.17,473.63Z"/><path class="cls-4" d="M220.17,474a34.65,34.65,0,0,1-17.32-4.64l-170.75-99a7.24,7.24,0,0,1,0-12.53L302.18,201.73a34.65,34.65,0,0,1,34.61,0l170.75,99a7.24,7.24,0,0,1,0,12.53L237.46,469.37A34.65,34.65,0,0,1,220.17,474Zm99.3-276.16a33.78,33.78,0,0,0-16.92,4.53L32.47,358.48a6.51,6.51,0,0,0,0,11.28l170.75,99a33.89,33.89,0,0,0,33.89,0L507.17,312.62a6.51,6.51,0,0,0,0-11.28l-170.75-99A33.84,33.84,0,0,0,319.47,197.83Z"/><g id="core"><g id="grafika"><g id="Group" class="cls-6"><polygon id="Path-3" data-name="Path" class="cls-7" points="370.16 357.05 290.8 310.92 370.16 264.8 449.52 310.93 370.16 357.05"/><path class="cls-4" d="M370.16,357.27l-.1-.06-79.63-46.29.27-.16,79.46-46.17.09.05,79.64,46.29Zm-79-46.35,79,45.91,79-45.9-79-45.91Z"/></g><path id="Path-4" data-name="Path" class="cls-5" d="M362.2,252a2.91,2.91,0,0,1-1.46-.45l-10.23-6,.15-.27,10.19,6a2,2,0,0,0,2,.22,2.07,2.07,0,0,0,.84-1.9v-2.48a2.07,2.07,0,0,1,1-2.18,2,2,0,0,1,2.37.22l2.13,1.23-.15.28-2.14-1.25a1.71,1.71,0,0,0-2.09-.28,1.76,1.76,0,0,0-.83,2v2.48a2.35,2.35,0,0,1-1,2.17A1.83,1.83,0,0,1,362.2,252Z"/><path class="cls-4" d="M362.2,252.31h0a3.3,3.3,0,0,1-1.64-.51l-10.22-6a.34.34,0,0,1-.17-.22.36.36,0,0,1,0-.27l.15-.27a.37.37,0,0,1,.5-.13l10.18,6a1.4,1.4,0,0,0,2.34-1.33v-2.52a2.4,2.4,0,0,1,3.93-2.24l2.08,1.2a.37.37,0,0,1,.13.48l-.14.28a.37.37,0,0,1-.22.17.34.34,0,0,1-.28,0l-2.14-1.25a.21.21,0,0,1-.08-.06,1.36,1.36,0,0,0-1.65-.22,1.4,1.4,0,0,0-.66,1.56v2.57a2.73,2.73,0,0,1-1.12,2.47,2.28,2.28,0,0,1-1,.31Z"/><path id="Path-5" data-name="Path" class="cls-5" d="M358.14,254.62a2.85,2.85,0,0,1-1.45-.45l-10.19-6,.15-.27,10.23,6a1.72,1.72,0,0,0,2,.22,1.78,1.78,0,0,0,.83-1.9v-2.48a2.07,2.07,0,0,1,1-2.18,2,2,0,0,1,2.35.22l2.13,1.24-.15.27L362.9,248a1.7,1.7,0,0,0-2.08-.28,1.75,1.75,0,0,0-.82,2v2.48a2.35,2.35,0,0,1-1,2.17,1.76,1.76,0,0,1-.89.25Z"/><path class="cls-4" d="M358.14,255h0a3.3,3.3,0,0,1-1.64-.51l-10.17-5.95a.36.36,0,0,1-.13-.49l.14-.26a.34.34,0,0,1,.22-.17.35.35,0,0,1,.28,0l10.23,6a1.39,1.39,0,0,0,2.33-1.29v-2.56a2.39,2.39,0,0,1,3.92-2.24l2.07,1.21a.35.35,0,0,1,.13.49l-.15.27a.41.41,0,0,1-.22.17.4.4,0,0,1-.28,0l-2.13-1.25a.19.19,0,0,1-.07-.06,1.36,1.36,0,0,0-1.65-.22,1.39,1.39,0,0,0-.65,1.56v2.57a2.73,2.73,0,0,1-1.12,2.47,2.21,2.21,0,0,1-1.1.31Z"/><path id="Path-6" data-name="Path" class="cls-5" d="M354.16,256.62a2.91,2.91,0,0,1-1.46-.45l-10.2-6,.15-.28,10.21,6a1.71,1.71,0,0,0,2,.22,1.75,1.75,0,0,0,.83-1.89v-2.49a2.07,2.07,0,0,1,1-2.18,2,2,0,0,1,2.36.22l2.14,1.24-.16.27L358.91,250a1.75,1.75,0,0,0-2.88,1.68v2.49a2.37,2.37,0,0,1-1,2.17A1.76,1.76,0,0,1,354.16,256.62Z"/><path class="cls-4" d="M354.17,257h0a3.17,3.17,0,0,1-1.64-.51l-10.19-5.94a.37.37,0,0,1-.14-.49l.16-.27a.34.34,0,0,1,.22-.17.35.35,0,0,1,.28,0l10.2,6a1.39,1.39,0,0,0,2.33-1.29v-2.56a2.4,2.4,0,0,1,3.93-2.23l2.08,1.2a.41.41,0,0,1,.17.22.39.39,0,0,1,0,.28l-.16.26a.36.36,0,0,1-.49.13l-2.13-1.25a1.69,1.69,0,0,0-1.7-.2,1.68,1.68,0,0,0-.63,1.53v2.53a2.72,2.72,0,0,1-1.12,2.46A2.11,2.11,0,0,1,354.17,257Z"/><path id="Path-7" data-name="Path" class="cls-5" d="M350.16,259.29a3,3,0,0,1-1.46-.45l-10.21-6,.16-.27,10.2,5.95a2,2,0,0,0,2,.23,2.08,2.08,0,0,0,.83-1.89v-2.5a2.06,2.06,0,0,1,1-2.17,2,2,0,0,1,2.36.21l2.12,1.25L357,254l-2.14-1.22a1.74,1.74,0,0,0-2.08-.27,1.77,1.77,0,0,0-.83,1.94v2.5a2.37,2.37,0,0,1-1,2.15A1.61,1.61,0,0,1,350.16,259.29Z"/><path class="cls-4" d="M350.16,259.65h0a3.3,3.3,0,0,1-1.64-.51l-10.2-5.95a.35.35,0,0,1-.13-.48l.16-.28a.35.35,0,0,1,.22-.17.36.36,0,0,1,.27,0l10.2,5.95a1.67,1.67,0,0,0,1.71.21,1.74,1.74,0,0,0,.62-1.53V254.4a2.4,2.4,0,0,1,3.93-2.23l2.07,1.21a.35.35,0,0,1,.13.49l-.15.26a.35.35,0,0,1-.49.13L354.71,253a1.43,1.43,0,0,0-1.72-.26,1.41,1.41,0,0,0-.66,1.54v2.58a2.72,2.72,0,0,1-1.12,2.45,2,2,0,0,1-1.05.3Z"/><path id="Path-8" data-name="Path" class="cls-5" d="M346.14,261.29a3.08,3.08,0,0,1-1.47-.45l-10.18-6,.15-.27,10.21,6a2,2,0,0,0,2,.23,2.09,2.09,0,0,0,.83-1.9v-2.47a2.09,2.09,0,0,1,1-2.19,2,2,0,0,1,2.36.22l2.13,1.25L353,256l-2.12-1.24a2,2,0,0,0-2-.23,2.08,2.08,0,0,0-.78,1.92v2.47a2.39,2.39,0,0,1-1,2.16,1.65,1.65,0,0,1-1,.24Z"/><path class="cls-4" d="M346.24,261.65h-.12a3.3,3.3,0,0,1-1.64-.51l-10.17-6a.37.37,0,0,1-.13-.5l.15-.26a.41.41,0,0,1,.22-.17.4.4,0,0,1,.28,0l10.2,6a1.67,1.67,0,0,0,1.71.21,1.74,1.74,0,0,0,.62-1.54v-2.5a2.41,2.41,0,0,1,1.15-2.5,2.38,2.38,0,0,1,2.78.26l2.07,1.21a.36.36,0,0,1,.13.49l-.16.27a.35.35,0,0,1-.22.17.36.36,0,0,1-.27,0L350.71,255a1.65,1.65,0,0,0-1.7-.21,1.74,1.74,0,0,0-.57,1.55v2.51a2.72,2.72,0,0,1-1.12,2.46A2.12,2.12,0,0,1,346.24,261.65Z"/><path id="Path-9" data-name="Path" class="cls-5" d="M342.13,264a2.91,2.91,0,0,1-1.46-.45l-10.19-5.94.16-.26,10.18,5.94a1.72,1.72,0,0,0,2.07.26,1.75,1.75,0,0,0,.84-1.93v-2.49a2,2,0,0,1,1-2.19,2,2,0,0,1,2.36.23l2.12,1.24-.14.27-2.13-1.24a1.73,1.73,0,0,0-2.86,1.66v2.49a2.37,2.37,0,0,1-1,2.15,1.65,1.65,0,0,1-.94.26Z"/><path class="cls-4" d="M342.16,264.32h-.05a3.38,3.38,0,0,1-1.63-.5l-10.18-5.93a.36.36,0,0,1-.16-.22.39.39,0,0,1,0-.28l.16-.26a.36.36,0,0,1,.49-.13L341,262.94a1.4,1.4,0,0,0,2.38-1.28v-2.57a2.38,2.38,0,0,1,3.92-2.22l2.06,1.19a.36.36,0,0,1,.14.48l-.14.27a.39.39,0,0,1-.22.18.38.38,0,0,1-.28,0l-2.14-1.24A1.37,1.37,0,0,0,344.4,259v2.53a2.67,2.67,0,0,1-1.12,2.44A2.09,2.09,0,0,1,342.16,264.32Z"/><path id="Path-10" data-name="Path" class="cls-5" d="M338.14,266a2.82,2.82,0,0,1-1.46-.45l-10.2-6,.15-.26,10.2,6a2,2,0,0,0,2,.22,2.06,2.06,0,0,0,.83-1.91V261a2.41,2.41,0,0,1,1-2.19,2.27,2.27,0,0,1,2.35.23l2.15,1.29-.16.28-2.13-1.27a1.74,1.74,0,0,0-2-.22,1.79,1.79,0,0,0-.83,1.92v2.47a2.4,2.4,0,0,1-1,2.19A1.77,1.77,0,0,1,338.14,266Z"/><path class="cls-4" d="M338.17,266.33h0a3.11,3.11,0,0,1-1.64-.51l-10.19-6a.36.36,0,0,1-.14-.48l.15-.27a.37.37,0,0,1,.22-.17.39.39,0,0,1,.28,0l10.2,6a1.69,1.69,0,0,0,1.71.2,1.71,1.71,0,0,0,.62-1.54V261a2.73,2.73,0,0,1,1.12-2.48,2.65,2.65,0,0,1,2.78.23l2.11,1.28a.35.35,0,0,1,.13.48l-.15.28a.37.37,0,0,1-.22.17.34.34,0,0,1-.28,0l-2.14-1.27a1.41,1.41,0,0,0-1.67-.22,1.43,1.43,0,0,0-.66,1.53v2.55a2.72,2.72,0,0,1-1.12,2.48A2.15,2.15,0,0,1,338.17,266.33Z"/><path id="Path-11" data-name="Path" class="cls-5" d="M334.13,268.63a2.81,2.81,0,0,1-1.45-.45l-10.21-5.94.16-.26,10.2,5.93a1.74,1.74,0,0,0,2.87-1.67v-2.49a2.07,2.07,0,0,1,1-2.18,2,2,0,0,1,2.36.22l2.13,1.24-.15.27-2.14-1.25a1.74,1.74,0,0,0-2.09-.28,1.76,1.76,0,0,0-.82,2v2.47a2.35,2.35,0,0,1-1,2.16,1.74,1.74,0,0,1-.86.27Z"/><path class="cls-4" d="M334.13,269h0a3.33,3.33,0,0,1-1.64-.51l-10.19-5.94a.36.36,0,0,1-.16-.22.36.36,0,0,1,0-.27l.16-.27a.36.36,0,0,1,.49-.13L333,267.6a1.39,1.39,0,0,0,2.34-1.28v-2.57a2.4,2.4,0,0,1,1.15-2.49,2.37,2.37,0,0,1,2.77.26l2.08,1.2a.34.34,0,0,1,.17.22.32.32,0,0,1,0,.27l-.15.27a.36.36,0,0,1-.49.13l-2.14-1.24-.07-.06a1.38,1.38,0,0,0-2.31,1.33v2.56a2.69,2.69,0,0,1-1.12,2.45,2.14,2.14,0,0,1-1.05.34Z"/><path id="Path-12" data-name="Path" class="cls-5" d="M330.52,270.64a3.14,3.14,0,0,1-1.51-.46l-10.54-5.94.16-.28,10.54,6a1.81,1.81,0,0,0,2.16.28,1.74,1.74,0,0,0,.85-2v-2.48a2,2,0,0,1,1-2.18,2.14,2.14,0,0,1,2.44.21l2.21,1.25-.16.27-2.2-1.25a1.84,1.84,0,0,0-2.15-.26,1.77,1.77,0,0,0-.86,1.94v2.5a2.33,2.33,0,0,1-1,2.17,1.82,1.82,0,0,1-.94.23Z"/><path class="cls-4" d="M330.58,271h-.07a3.48,3.48,0,0,1-1.69-.51l-10.53-5.94a.41.41,0,0,1-.17-.22.4.4,0,0,1,0-.28l.16-.27a.36.36,0,0,1,.49-.13l10.54,6a.18.18,0,0,1,.07.05,1.47,1.47,0,0,0,1.73.23,1.38,1.38,0,0,0,.68-1.56.28.28,0,0,1,0-.09v-2.48a2.37,2.37,0,0,1,1.19-2.5,2.51,2.51,0,0,1,2.84.26l2.15,1.21a.3.3,0,0,1,.17.22.35.35,0,0,1,0,.28l-.16.26a.36.36,0,0,1-.48.13l-2.2-1.25a1.54,1.54,0,0,0-1.79-.26,1.41,1.41,0,0,0-.69,1.54v2.59a2.69,2.69,0,0,1-1.16,2.47A2.24,2.24,0,0,1,330.58,271Z"/><path id="Path-13" data-name="Path" class="cls-5" d="M326.13,273.31a3,3,0,0,1-1.46-.45l-10.2-6,.15-.27,10.2,6a2,2,0,0,0,2,.23,2.1,2.1,0,0,0,.84-1.9v-2.53a2.05,2.05,0,0,1,1-2.17,2,2,0,0,1,2.36.21l2.12,1.26L333,268l-2.13-1.24a1.72,1.72,0,0,0-2.07-.26,1.75,1.75,0,0,0-.84,1.93v2.49a2.38,2.38,0,0,1-1,2.16,1.72,1.72,0,0,1-.86.25Z"/><path class="cls-4" d="M326.13,273.67h0a3.4,3.4,0,0,1-1.64-.51l-10.2-5.94a.36.36,0,0,1-.13-.49l.16-.28a.35.35,0,0,1,.22-.17.36.36,0,0,1,.27,0l10.21,6a1.65,1.65,0,0,0,1.7.21,1.72,1.72,0,0,0,.63-1.53v-2.57a2.39,2.39,0,0,1,3.92-2.23l2.08,1.22a.37.37,0,0,1,.13.49l-.16.26a.34.34,0,0,1-.22.17.32.32,0,0,1-.27,0l-2.13-1.24a1.42,1.42,0,0,0-1.71-.26,1.4,1.4,0,0,0-.67,1.54v2.57a2.68,2.68,0,0,1-1.12,2.45,2.11,2.11,0,0,1-1.06.32Z"/><path id="Path-14" data-name="Path" class="cls-5" d="M322.13,275.31a3.08,3.08,0,0,1-1.47-.45l-10.2-5.95.16-.27,10.2,5.94a2,2,0,0,0,2,.23,2.08,2.08,0,0,0,.83-1.89v-2.49a2.05,2.05,0,0,1,1-2.18,2,2,0,0,1,2.35.22l2.13,1.24L329,270l-2.13-1.24a1.71,1.71,0,0,0-2.08-.28,1.76,1.76,0,0,0-.83,2v2.49a2.36,2.36,0,0,1-1,2.15A1.7,1.7,0,0,1,322.13,275.31Z"/><path class="cls-4" d="M322.13,275.67h0a3.36,3.36,0,0,1-1.65-.51l-10.19-5.94a.41.41,0,0,1-.17-.22.39.39,0,0,1,0-.28l.16-.26a.36.36,0,0,1,.49-.13l10.2,5.94a1.67,1.67,0,0,0,1.71.21,1.72,1.72,0,0,0,.62-1.53v-2.52a2.4,2.4,0,0,1,3.93-2.24l2.07,1.21a.36.36,0,0,1,.14.48l-.15.27a.37.37,0,0,1-.22.17.35.35,0,0,1-.28,0l-2.13-1.24a.16.16,0,0,1-.08-.06,1.37,1.37,0,0,0-1.65-.22,1.41,1.41,0,0,0-.65,1.55v2.58a2.73,2.73,0,0,1-1.13,2.45,2.14,2.14,0,0,1-1.05.32Z"/><path id="Path-15" data-name="Path" class="cls-5" d="M318.13,278a3,3,0,0,1-1.45-.45l-10.22-5.95.14-.27,10.22,5.95a1.72,1.72,0,0,0,2.85-1.64V273.1a2.06,2.06,0,0,1,1-2.18,2,2,0,0,1,2.37.22l2.13,1.24-.15.27-2.14-1.24a2,2,0,0,0-2-.22,2.06,2.06,0,0,0-.83,1.89v2.54a2.33,2.33,0,0,1-1,2.16,1.78,1.78,0,0,1-.88.2Z"/><path class="cls-4" d="M318.21,278.34h-.09a3.3,3.3,0,0,1-1.64-.51l-10.21-5.94a.37.37,0,0,1-.13-.49l.15-.26a.33.33,0,0,1,.22-.18.36.36,0,0,1,.27,0L317,277a1.37,1.37,0,0,0,2.31-1.29V273.1a2.4,2.4,0,0,1,3.93-2.24l2.09,1.21a.36.36,0,0,1,.13.49l-.16.27a.32.32,0,0,1-.22.17.36.36,0,0,1-.27,0l-2.14-1.25a1.39,1.39,0,0,0-2.33,1.32v2.58a2.69,2.69,0,0,1-1.12,2.46A2.14,2.14,0,0,1,318.21,278.34Z"/><path id="Path-16" data-name="Path" class="cls-5" d="M314.09,280a2.83,2.83,0,0,1-1.46-.46l-10.18-6,.16-.27,10.19,6a1.7,1.7,0,0,0,2.08.28,1.77,1.77,0,0,0,.82-2v-2.48a2.4,2.4,0,0,1,1-2.19,2.25,2.25,0,0,1,2.34.22l2.13,1.25-.16.28-2.13-1.26a1.69,1.69,0,0,0-2-.22,1.78,1.78,0,0,0-.82,1.92v2.5a2.4,2.4,0,0,1-1,2.19A1.84,1.84,0,0,1,314.09,280Z"/><path class="cls-4" d="M314.16,280.34h-.09a3.26,3.26,0,0,1-1.63-.51l-10.17-6a.36.36,0,0,1-.13-.49l.15-.27a.41.41,0,0,1,.22-.17.38.38,0,0,1,.28,0l10.19,6a.21.21,0,0,1,.08.06,1.35,1.35,0,0,0,1.64.22,1.43,1.43,0,0,0,.66-1.58l0-2.58a2.74,2.74,0,0,1,1.12-2.48,2.61,2.61,0,0,1,2.76.23l2.1,1.23a.36.36,0,0,1,.13.49l-.15.27a.35.35,0,0,1-.5.14l-2.13-1.26a1.39,1.39,0,0,0-1.67-.22,1.43,1.43,0,0,0-.65,1.53v2.58a2.73,2.73,0,0,1-1.12,2.48A2.08,2.08,0,0,1,314.16,280.34Z"/><path id="Path-17" data-name="Path" class="cls-5" d="M310.12,282.65a2.85,2.85,0,0,1-1.47-.45l-10.2-5.95.15-.27,10.21,5.95a1.69,1.69,0,0,0,2,.22,1.75,1.75,0,0,0,.83-1.89v-2.49a2.07,2.07,0,0,1,1-2.18,2,2,0,0,1,2.36.22l2.14,1.25-.16.26-2.13-1.25a2,2,0,0,0-2.06-.19,2,2,0,0,0-.84,1.89v2.49a2.37,2.37,0,0,1-1,2.17,1.86,1.86,0,0,1-.86.22Z"/><path class="cls-4" d="M310.12,283h0a3.2,3.2,0,0,1-1.65-.51l-10.19-5.94a.37.37,0,0,1-.14-.49l.16-.27a.32.32,0,0,1,.22-.17.36.36,0,0,1,.27,0l10.21,6a1.39,1.39,0,0,0,2.33-1.29v-2.56a2.4,2.4,0,0,1,3.93-2.23l2.08,1.2a.36.36,0,0,1,.16.22.39.39,0,0,1,0,.28l-.16.26a.41.41,0,0,1-.22.17.36.36,0,0,1-.27,0l-2.13-1.25a1.69,1.69,0,0,0-1.73-.18,1.68,1.68,0,0,0-.63,1.53v2.53a2.72,2.72,0,0,1-1.12,2.46,2.13,2.13,0,0,1-1.07.29Z"/><path id="Path-18" data-name="Path" class="cls-5" d="M306.09,284.65a3,3,0,0,1-1.47-.44l-10.18-6,.16-.27,10.18,6a1.72,1.72,0,0,0,2.07.26,1.8,1.8,0,0,0,.84-1.94v-2.49a2.07,2.07,0,0,1,1-2.18,2,2,0,0,1,2.35.22l2.12,1.25-.15.26-2.2-1.22a1.74,1.74,0,0,0-2.08-.27,1.77,1.77,0,0,0-.83,1.94v2.48a2.35,2.35,0,0,1-1,2.17,1.68,1.68,0,0,1-.81.23Z"/><path class="cls-4" d="M306.09,285h0a3.44,3.44,0,0,1-1.64-.49l-10.17-6a.35.35,0,0,1-.13-.48l.15-.28a.37.37,0,0,1,.22-.17.34.34,0,0,1,.28,0l10.18,6a1.39,1.39,0,0,0,2.37-1.29v-2.57a2.39,2.39,0,0,1,3.92-2.23l2.06,1.21a.36.36,0,0,1,.13.49l-.15.26a.36.36,0,0,1-.49.14l-2.2-1.23a.2.2,0,0,1-.07-.06,1.39,1.39,0,0,0-1.65-.2,1.41,1.41,0,0,0-.66,1.54v2.56a2.72,2.72,0,0,1-1.12,2.46,2,2,0,0,1-1,.3Z"/><path id="Path-19" data-name="Path" class="cls-5" d="M302.08,286.66a3,3,0,0,1-1.46-.46l-10.18-5.95.15-.27,10.18,5.95a1.71,1.71,0,0,0,2.08.28,1.76,1.76,0,0,0,.83-1.95v-2.49a2.07,2.07,0,0,1,1-2.18,2,2,0,0,1,2.35.22l2.13,1.25-.15.26-2.12-1.21a2,2,0,0,0-2-.23,2.09,2.09,0,0,0-.87,1.89v2.49a2.34,2.34,0,0,1-1,2.16A1.76,1.76,0,0,1,302.08,286.66Z"/><path class="cls-4" d="M302.12,287h-.05a3.4,3.4,0,0,1-1.64-.51l-10.17-5.94a.37.37,0,0,1-.14-.49l.16-.28a.41.41,0,0,1,.22-.17.36.36,0,0,1,.27,0L301,285.62a.19.19,0,0,1,.07.06,1.38,1.38,0,0,0,1.64.22,1.4,1.4,0,0,0,.66-1.55v-2.58a2.39,2.39,0,0,1,3.92-2.23l2.07,1.21a.35.35,0,0,1,.13.48l-.14.27a.41.41,0,0,1-.22.17.4.4,0,0,1-.28,0l-2.12-1.21a1.67,1.67,0,0,0-1.71-.21,1.72,1.72,0,0,0-.66,1.53v2.52a2.68,2.68,0,0,1-1.12,2.45A2,2,0,0,1,302.12,287Z"/><path id="Path-20" data-name="Path" class="cls-5" d="M298.06,289.33a3,3,0,0,1-1.45-.46l-10.18-5.95.16-.26,10.18,5.94a1.71,1.71,0,0,0,2.08.28,1.77,1.77,0,0,0,.83-1.95v-2.49a2.07,2.07,0,0,1,1-2.18,2,2,0,0,1,2.35.22l2.12,1.25L305,284l-2.14-1.23a1.71,1.71,0,0,0-2.07-.29,1.76,1.76,0,0,0-.83,1.95v2.49a2.34,2.34,0,0,1-1,2.16A1.72,1.72,0,0,1,298.06,289.33Z"/><path class="cls-4" d="M298.07,289.69h0a3.39,3.39,0,0,1-1.63-.51l-10.16-5.95a.35.35,0,0,1-.17-.22.36.36,0,0,1,0-.27l.16-.26a.35.35,0,0,1,.49-.13L297,288.29a.21.21,0,0,1,.08.06,1.38,1.38,0,0,0,1.64.22,1.4,1.4,0,0,0,.66-1.55v-2.58a2.39,2.39,0,0,1,3.92-2.23l2.06,1.21a.36.36,0,0,1,.14.48l-.15.27a.35.35,0,0,1-.22.17.36.36,0,0,1-.27,0l-2.14-1.23-.07-.06a1.35,1.35,0,0,0-1.64-.22,1.39,1.39,0,0,0-.66,1.55v2.57a2.68,2.68,0,0,1-1.12,2.45A2.05,2.05,0,0,1,298.07,289.69Z"/><path id="Path-21" data-name="Path" class="cls-5" d="M293.81,291.33a3.07,3.07,0,0,1-1.51-.46l-10.54-5.95.15-.27,10.55,6a1.81,1.81,0,0,0,2.16.28,1.75,1.75,0,0,0,.85-2v-2.49a2,2,0,0,1,1-2.18,2.11,2.11,0,0,1,2.43.22l2.21,1.25L301,286l-2.21-1.25a1.81,1.81,0,0,0-2.16-.28,1.75,1.75,0,0,0-.85,2v2.5a2.33,2.33,0,0,1-1,2.16A1.81,1.81,0,0,1,293.81,291.33Z"/><path class="cls-4" d="M293.86,291.69h-.07a3.47,3.47,0,0,1-1.68-.51l-10.53-5.95a.36.36,0,0,1-.17-.21.39.39,0,0,1,0-.28l.15-.26a.3.3,0,0,1,.21-.17.34.34,0,0,1,.28,0l10.55,6,.07.06a1.48,1.48,0,0,0,1.74.23,1.4,1.4,0,0,0,.67-1.56.31.31,0,0,1,0-.1v-2.49a2.38,2.38,0,0,1,1.19-2.5,2.51,2.51,0,0,1,2.84.26l2.15,1.21a.38.38,0,0,1,.14.5l-.16.27a.35.35,0,0,1-.49.13l-2.21-1.24-.07-.06a1.47,1.47,0,0,0-1.73-.23,1.39,1.39,0,0,0-.68,1.56.31.31,0,0,1,0,.1v2.49a2.65,2.65,0,0,1-1.16,2.46A2.24,2.24,0,0,1,293.86,291.69Z"/><path id="Path-22" data-name="Path" class="cls-5" d="M290.06,294a2.92,2.92,0,0,1-1.45-.46l-10.19-6,.16-.27,10.19,6a1.69,1.69,0,0,0,2.08.29,1.78,1.78,0,0,0,.82-2v-2.51a2.4,2.4,0,0,1,1-2.19,2.25,2.25,0,0,1,2.34.23l2.13,1.25-.15.28-2.13-1.26a2,2,0,0,0-2-.22,2.08,2.08,0,0,0-.84,1.91v2.51a2.41,2.41,0,0,1-1,2.19,1.82,1.82,0,0,1-.94.23Z"/><path class="cls-4" d="M290.11,294.36h-.06a3.17,3.17,0,0,1-1.63-.52l-10.18-6a.36.36,0,0,1-.13-.49l.16-.27a.3.3,0,0,1,.22-.17.36.36,0,0,1,.27,0L289,293l.07.06a1.35,1.35,0,0,0,1.65.23,1.43,1.43,0,0,0,.65-1.58v-2.6a2.74,2.74,0,0,1,1.12-2.48,2.63,2.63,0,0,1,2.77.23l2.09,1.23a.36.36,0,0,1,.14.48l-.16.28a.34.34,0,0,1-.22.17.35.35,0,0,1-.28,0l-2.12-1.26a1.63,1.63,0,0,0-1.7-.2,1.72,1.72,0,0,0-.63,1.54v2.55a2.73,2.73,0,0,1-1.11,2.48A2.25,2.25,0,0,1,290.11,294.36Z"/><path id="Path-23" data-name="Path" class="cls-5" d="M285.81,296a3,3,0,0,1-1.52-.46l-10.54-6,.16-.27,10.54,6a1.81,1.81,0,0,0,2.16.28,1.77,1.77,0,0,0,.85-2v-2.51a2.36,2.36,0,0,1,1-2.19,2.46,2.46,0,0,1,2.43.22l2.22,1.26-.16.27-2.2-1.26a1.83,1.83,0,0,0-2.15-.26,1.79,1.79,0,0,0-.86,2v2.51a2.37,2.37,0,0,1-1,2.19A1.81,1.81,0,0,1,285.81,296Z"/><path class="cls-4" d="M285.84,296.36h0a3.38,3.38,0,0,1-1.7-.51l-10.53-6a.35.35,0,0,1-.17-.22.36.36,0,0,1,0-.27l.16-.27a.36.36,0,0,1,.49-.13l10.54,6,.08.06a1.44,1.44,0,0,0,1.72.23,1.42,1.42,0,0,0,.68-1.58.28.28,0,0,1,0-.09v-2.51a2.69,2.69,0,0,1,1.16-2.49,2.85,2.85,0,0,1,2.84.23l2.19,1.24a.41.41,0,0,1,.17.22.38.38,0,0,1,0,.28l-.16.27a.36.36,0,0,1-.49.12l-2.2-1.26a1.54,1.54,0,0,0-1.79-.26,1.44,1.44,0,0,0-.69,1.57v2.59a2.72,2.72,0,0,1-1.16,2.49A2.21,2.21,0,0,1,285.84,296.36Z"/><path id="Path-24" data-name="Path" class="cls-4" d="M378.9,252.62a1.81,1.81,0,0,1-.88-.23,2.37,2.37,0,0,1-1-2.18v-2.49a1.77,1.77,0,0,0-.83-1.94,1.74,1.74,0,0,0-2.08.26L372,247.29l-.15-.27,2.12-1.25a2,2,0,0,1,2.35-.21,2.07,2.07,0,0,1,1,2.18v2.49a1.8,1.8,0,0,0,.84,2,1.72,1.72,0,0,0,2.07-.26l10.18-6,.15.28-10.18,6A3,3,0,0,1,378.9,252.62Z"/><path class="cls-4" d="M378.89,252.86a2.06,2.06,0,0,1-1-.26,2.64,2.64,0,0,1-1.09-2.41v-2.47a1.57,1.57,0,0,0-.71-1.73,1.48,1.48,0,0,0-1.79.22l-2.38,1.41-.39-.68,2.33-1.37a2.21,2.21,0,0,1,2.59-.22,2.31,2.31,0,0,1,1.09,2.44v2.44a1.59,1.59,0,0,0,.72,1.74,1.5,1.5,0,0,0,1.78-.22l10.44-6.16.39.7-10.39,6.08a3.16,3.16,0,0,1-1.58.49h0Z"/><path id="Path-25" data-name="Path" class="cls-4" d="M382.24,254.62a1.74,1.74,0,0,1-.89-.23,2.37,2.37,0,0,1-1-2.17v-2.49a1.8,1.8,0,0,0-.84-1.95,1.72,1.72,0,0,0-2.07.26l-2.13,1.25-.15-.26,2.12-1.25a2,2,0,0,1,2.36-.22,2.07,2.07,0,0,1,1,2.19v2.49a1.77,1.77,0,0,0,.83,1.94,1.72,1.72,0,0,0,2.07-.26l10.19-6,.15.28-10.18,6A3,3,0,0,1,382.24,254.62Z"/><path class="cls-4" d="M382.2,254.86a2,2,0,0,1-1-.26,2.63,2.63,0,0,1-1.08-2.41v-2.46a1.59,1.59,0,0,0-.72-1.74,1.5,1.5,0,0,0-1.78.22l-2.39,1.42-.38-.69,2.32-1.37a2.22,2.22,0,0,1,2.6-.22,2.32,2.32,0,0,1,1.08,2.44v2.45a1.57,1.57,0,0,0,.71,1.73,1.5,1.5,0,0,0,1.79-.22l10.44-6.14.39.7-.21.12-10.18,6a3.19,3.19,0,0,1-1.59.46Z"/><path id="Path-26" data-name="Path" class="cls-4" d="M386.21,257.29a1.71,1.71,0,0,1-.88-.24,2.34,2.34,0,0,1-1-2.16V252.4a2.08,2.08,0,0,0-.82-1.9,2,2,0,0,0-2,.23L379.35,252l-.14-.27,2.12-1.24a2,2,0,0,1,2.35-.22,2.07,2.07,0,0,1,1,2.18v2.49a1.75,1.75,0,0,0,.83,2,1.71,1.71,0,0,0,2.08-.28l10.18-5.95.16.27-10.23,6A3,3,0,0,1,386.21,257.29Z"/><path class="cls-4" d="M386.19,257.53a1.9,1.9,0,0,1-1-.27,2.6,2.6,0,0,1-1.09-2.39V252.4a1.85,1.85,0,0,0-.73-1.7,1.75,1.75,0,0,0-1.74.22l-2.39,1.37-.37-.69,2.32-1.36a2.21,2.21,0,0,1,2.59-.22,2.3,2.3,0,0,1,1.09,2.43v2.45a1.58,1.58,0,0,0,.71,1.75,1.49,1.49,0,0,0,1.79-.25l.05,0,10.39-6.07.39.68-10.43,6.1a3.15,3.15,0,0,1-1.57.46h0Z"/><path id="Path-27" data-name="Path" class="cls-4" d="M390.23,259.29a1.75,1.75,0,0,1-.89-.24,2.33,2.33,0,0,1-1-2.16v-2.5a1.75,1.75,0,0,0-.83-1.88,1.72,1.72,0,0,0-2,.21L383.37,254l-.16-.26,2.14-1.25a2,2,0,0,1,2.36-.22,2.07,2.07,0,0,1,1,2.18v2.5a2.07,2.07,0,0,0,.84,1.9,2,2,0,0,0,2-.23l10.2-5.95.15.26-10.21,6A3,3,0,0,1,390.23,259.29Z"/><path class="cls-4" d="M390.21,259.53a1.91,1.91,0,0,1-1-.27,2.58,2.58,0,0,1-1.09-2.39v-2.48a1.56,1.56,0,0,0-.71-1.68,1.49,1.49,0,0,0-1.75.19l-2.39,1.39-.4-.68,2.35-1.37a2.24,2.24,0,0,1,2.6-.22,2.32,2.32,0,0,1,1.09,2.44v2.45a1.84,1.84,0,0,0,.74,1.7,1.74,1.74,0,0,0,1.75-.22l10.44-6.1.37.69-10.41,6.09a3.36,3.36,0,0,1-1.57.46h0Z"/><path id="Path-28" data-name="Path" class="cls-4" d="M394.46,262a1.79,1.79,0,0,1-.91-.24,2.3,2.3,0,0,1-1-2.16v-2.49a2,2,0,0,0-.86-1.89,2.16,2.16,0,0,0-2.11.21l-2.19,1.25-.16-.27,2.2-1.25a2.14,2.14,0,0,1,2.44-.22,2,2,0,0,1,1,2.18v2.49a1.76,1.76,0,0,0,.85,2,1.83,1.83,0,0,0,2.16-.29l10.54-6,.16.26-10.61,6A3.06,3.06,0,0,1,394.46,262Z"/><path class="cls-4" d="M394.43,262.2a2,2,0,0,1-1-.27,2.55,2.55,0,0,1-1.13-2.39v-2.47a1.79,1.79,0,0,0-.76-1.7,1.92,1.92,0,0,0-1.83.22L387.29,257l-.4-.69,2.42-1.37a2.35,2.35,0,0,1,2.67-.22,2.31,2.31,0,0,1,1.12,2.44v2.5a1.51,1.51,0,0,0,.73,1.7,1.57,1.57,0,0,0,1.87-.25l.05,0L406.5,255l.41.68-10.83,6.08a3.36,3.36,0,0,1-1.61.48h0Z"/><path id="Path-29" data-name="Path" class="cls-4" d="M398.5,264a1.91,1.91,0,0,1-.91-.22,2.36,2.36,0,0,1-1-2.18v-2.48a1.77,1.77,0,0,0-.87-1.95,1.83,1.83,0,0,0-2.14.27l-2.2,1.24-.16-.27,2.2-1.24a2.15,2.15,0,0,1,2.44-.23,2.06,2.06,0,0,1,1,2.2v2.42a1.74,1.74,0,0,0,.85,2,1.83,1.83,0,0,0,2.16-.28l10.54-6,.16.26-10.56,6a3,3,0,0,1-1.52.47Z"/><path class="cls-4" d="M398.49,264.2a2.22,2.22,0,0,1-1-.25,2.59,2.59,0,0,1-1.13-2.41v-2.46a1.58,1.58,0,0,0-.74-1.74,1.62,1.62,0,0,0-1.87.23l-2.45,1.4-.4-.69,2.41-1.36a2.37,2.37,0,0,1,2.68-.23,2.3,2.3,0,0,1,1.12,2.46v2.44a1.51,1.51,0,0,0,.73,1.69,1.59,1.59,0,0,0,1.88-.25l.05,0,10.74-6.09.41.68-10.77,6.11a3.32,3.32,0,0,1-1.63.5h0Z"/><path id="Path-30" data-name="Path" class="cls-4" d="M402.26,266a1.72,1.72,0,0,1-.88-.22,2.38,2.38,0,0,1-1-2.18v-2.49a1.77,1.77,0,0,0-.83-1.94,1.73,1.73,0,0,0-2.08.26l-2.12,1.25-.15-.27,2.12-1.25a2,2,0,0,1,2.35-.22,2.09,2.09,0,0,1,1,2.19v2.49a1.8,1.8,0,0,0,.84,1.95,1.72,1.72,0,0,0,2.07-.26l10.18-6,.15.27-10.18,6a2.85,2.85,0,0,1-1.47.48Z"/><path class="cls-4" d="M402.25,266.21a2.06,2.06,0,0,1-1-.26,2.67,2.67,0,0,1-1.09-2.41v-2.47a1.6,1.6,0,0,0-.71-1.74,1.5,1.5,0,0,0-1.79.23L395.3,261l-.4-.68,2.33-1.37a2.21,2.21,0,0,1,2.59-.22,2.31,2.31,0,0,1,1.09,2.44v2.44a1.59,1.59,0,0,0,.72,1.74,1.48,1.48,0,0,0,1.78-.23l10.44-6.18.39.68-10.39,6.1a3,3,0,0,1-1.58.51h0Z"/><path id="Path-31" data-name="Path" class="cls-4" d="M406.26,268.63a1.72,1.72,0,0,1-.88-.22,2.4,2.4,0,0,1-1-2.17v-2.5a1.77,1.77,0,0,0-.83-1.94,1.71,1.71,0,0,0-2.07.26l-2.13,1.25-.15-.27,2.12-1.25a2,2,0,0,1,2.35-.22,2.11,2.11,0,0,1,1,2.19v2.5a1.78,1.78,0,0,0,.84,1.94,1.72,1.72,0,0,0,2.06-.26l10.18-6,.16.28-10.18,6a3,3,0,0,1-1.48.42Z"/><path class="cls-4" d="M406.23,268.87a2,2,0,0,1-1-.25,2.65,2.65,0,0,1-1.09-2.4v-2.48a1.58,1.58,0,0,0-.71-1.74,1.48,1.48,0,0,0-1.78.23l-2.4,1.41-.37-.69,2.32-1.36a2.22,2.22,0,0,1,2.6-.22,2.32,2.32,0,0,1,1.08,2.44v2.45a1.57,1.57,0,0,0,.72,1.73,1.47,1.47,0,0,0,1.77-.23l10.44-6.13.39.69-.2.12-10.18,6a3.18,3.18,0,0,1-1.59.45Z"/><path id="Path-32" data-name="Path" class="cls-4" d="M410.23,270.64a1.71,1.71,0,0,1-.88-.24,2.35,2.35,0,0,1-1-2.16v-2.5a2.09,2.09,0,0,0-.82-1.9,2,2,0,0,0-2,.23l-2.13,1.24-.15-.27,2.13-1.25a2,2,0,0,1,2.35-.21,2.07,2.07,0,0,1,1,2.18v2.48a1.76,1.76,0,0,0,.83,1.95,1.71,1.71,0,0,0,2.08-.28l10.18-6,.14.27-10.18,6A2.88,2.88,0,0,1,410.23,270.64Z"/><path class="cls-4" d="M410.21,270.88a2,2,0,0,1-1-.27,2.59,2.59,0,0,1-1.09-2.4v-2.47a1.86,1.86,0,0,0-.73-1.7,1.72,1.72,0,0,0-1.74.22l-2.37,1.38-.39-.68,2.34-1.37a2.21,2.21,0,0,1,2.59-.22,2.32,2.32,0,0,1,1.09,2.44v2.43a1.56,1.56,0,0,0,.71,1.74,1.47,1.47,0,0,0,1.79-.24l.05,0,10.39-6.08.38.69-10.39,6.08a3.11,3.11,0,0,1-1.63.49h0Z"/><path id="Path-33" data-name="Path" class="cls-4" d="M414.25,273.31a1.69,1.69,0,0,1-.88-.24,2.35,2.35,0,0,1-1-2.16v-2.5a2.11,2.11,0,0,0-.83-1.9,2,2,0,0,0-2,.23L407.4,268l-.16-.27,2.14-1.25a2,2,0,0,1,2.35-.21,2.07,2.07,0,0,1,1,2.18v2.5a1.76,1.76,0,0,0,.82,1.9,1.73,1.73,0,0,0,2-.22l10.2-6,.16.27-10.2,6A3.11,3.11,0,0,1,414.25,273.31Z"/><path class="cls-4" d="M414.22,273.55a2,2,0,0,1-1-.27,2.61,2.61,0,0,1-1.08-2.4v-2.47a1.86,1.86,0,0,0-.73-1.7,1.74,1.74,0,0,0-1.75.22l-2.37,1.38-.4-.68,2.35-1.37a2.22,2.22,0,0,1,2.6-.22,2.32,2.32,0,0,1,1.08,2.44v2.45a1.55,1.55,0,0,0,.7,1.69,1.48,1.48,0,0,0,1.76-.19l10.45-6.12.4.68-10.41,6.09a3.31,3.31,0,0,1-1.59.47h0Z"/><path id="Path-34" data-name="Path" class="cls-4" d="M418.85,275.31a1.71,1.71,0,0,1-.88-.24,2.39,2.39,0,0,1-1-2.18v-2.51a1.8,1.8,0,0,0-.83-2,1.73,1.73,0,0,0-2.08.27l-2,1.26-.16-.28,2.13-1.25a2.25,2.25,0,0,1,2.34-.23,2.4,2.4,0,0,1,1,2.19v2.51a1.78,1.78,0,0,0,.82,2,1.71,1.71,0,0,0,2.09-.28l10.19-6,.15.27-10.19,6a2.87,2.87,0,0,1-1.56.46Z"/><path class="cls-4" d="M418.84,275.55a1.91,1.91,0,0,1-1-.27,2.67,2.67,0,0,1-1.09-2.41v-2.49a1.61,1.61,0,0,0-.71-1.75,1.47,1.47,0,0,0-1.79.23L412,270.28l-.39-.7,2.33-1.37a2.48,2.48,0,0,1,2.57-.23,2.63,2.63,0,0,1,1.1,2.43v2.48a1.61,1.61,0,0,0,.7,1.78,1.49,1.49,0,0,0,1.8-.25l.05,0,10.39-6.14.4.68-10.4,6.14a3,3,0,0,1-1.66.49Z"/><path id="Path-35" data-name="Path" class="cls-4" d="M422.53,278a1.92,1.92,0,0,1-.91-.23,2.33,2.33,0,0,1-1-2.17v-2.49a1.77,1.77,0,0,0-.86-1.95,1.84,1.84,0,0,0-2.15.26l-2.2,1.25-.16-.27,2.19-1.24a2.13,2.13,0,0,1,2.44-.22,2.06,2.06,0,0,1,1,2.19v2.49a1.77,1.77,0,0,0,.86,1.94,1.84,1.84,0,0,0,2.15-.26l10.56-6,.16.26-10.53,6a3.14,3.14,0,0,1-1.55.45Z"/><path class="cls-4" d="M422.52,278.22a2.08,2.08,0,0,1-1-.26,2.57,2.57,0,0,1-1.13-2.41v-2.46a1.56,1.56,0,0,0-.74-1.74,1.59,1.59,0,0,0-1.86.23l-2.46,1.4-.4-.69,2.41-1.36a2.35,2.35,0,0,1,2.67-.22,2.31,2.31,0,0,1,1.12,2.44v2.45a1.55,1.55,0,0,0,.74,1.73,1.6,1.6,0,0,0,1.86-.22L434.53,271l.41.68-10.75,6.1a3.27,3.27,0,0,1-1.65.48h0Z"/><path id="Path-36" data-name="Path" class="cls-4" d="M426.53,280a1.69,1.69,0,0,1-.91-.23,2.34,2.34,0,0,1-1-2.17v-2.47a1.75,1.75,0,0,0-.86-1.95,1.81,1.81,0,0,0-2.14.27l-2.21,1.25-.15-.27,2.23-1.27a2.13,2.13,0,0,1,2.43-.22,2,2,0,0,1,1,2.19v2.47a1.76,1.76,0,0,0,.87,1.94,1.81,1.81,0,0,0,2.14-.26l10.53-6,.16.27-10.53,6a3,3,0,0,1-1.55.45Z"/><path class="cls-4" d="M426.49,280.22a2,2,0,0,1-1-.26,2.58,2.58,0,0,1-1.12-2.41v-2.44a1.56,1.56,0,0,0-.74-1.74,1.61,1.61,0,0,0-1.86.23L419.31,275l-.38-.69,2.43-1.39a2.37,2.37,0,0,1,2.67-.22,2.29,2.29,0,0,1,1.12,2.45v2.42a1.56,1.56,0,0,0,.74,1.73,1.58,1.58,0,0,0,1.86-.22L438.54,273l.4.69-10.74,6.1a3.31,3.31,0,0,1-1.67.48Z"/><path id="Path-37" data-name="Path" class="cls-4" d="M431,282.65a1.63,1.63,0,0,1-.88-.23,2.34,2.34,0,0,1-1-2.16v-2.5a1.78,1.78,0,0,0-.82-2,1.71,1.71,0,0,0-2.09.29l-2.14,1.25-.15-.27,2.13-1.25a2,2,0,0,1,2.36-.22,2.07,2.07,0,0,1,1,2.19v2.5a2.07,2.07,0,0,0,.84,1.9,2.05,2.05,0,0,0,2-.23l10.2-6,.14.27-10.2,6A3,3,0,0,1,431,282.65Z"/><path class="cls-4" d="M431,282.89a1.93,1.93,0,0,1-1-.26,2.59,2.59,0,0,1-1.09-2.4v-2.47a1.58,1.58,0,0,0-.7-1.76,1.48,1.48,0,0,0-1.8.24l-.05,0L424,277.65l-.4-.68,2.34-1.37a2.22,2.22,0,0,1,2.6-.22,2.32,2.32,0,0,1,1.09,2.44v2.46a1.84,1.84,0,0,0,.74,1.7,1.79,1.79,0,0,0,1.75-.22l10.45-6.12.36.7-10.4,6.09a3.18,3.18,0,0,1-1.54.46h0Z"/><path id="Path-38" data-name="Path" class="cls-4" d="M435,284.65a1.59,1.59,0,0,1-.88-.23,2.38,2.38,0,0,1-1-2.18v-2.51a1.77,1.77,0,0,0-.86-1.89,1.71,1.71,0,0,0-2,.24l-2.13,1.26-.16-.27,2.14-1.26a2,2,0,0,1,2.35-.22,2.09,2.09,0,0,1,1,2.2v2.51a2.1,2.1,0,0,0,.82,1.91,2,2,0,0,0,2-.23l10.2-6,.16.28-10.2,6a3,3,0,0,1-1.46.39Z"/><path class="cls-4" d="M434.93,284.89a1.9,1.9,0,0,1-1-.27,2.61,2.61,0,0,1-1.08-2.4v-2.49a1.56,1.56,0,0,0-.73-1.68,1.46,1.46,0,0,0-1.75.21L428,279.67l-.4-.69,2.34-1.37a2.24,2.24,0,0,1,2.61-.22,2.32,2.32,0,0,1,1.08,2.45v2.46a1.9,1.9,0,0,0,.73,1.72,1.77,1.77,0,0,0,1.75-.23l10.43-6.14.39.7-10.4,6.12a3.25,3.25,0,0,1-1.58.42Z"/><path id="Path-39" data-name="Path" class="cls-4" d="M439,287.32a1.7,1.7,0,0,1-.88-.23,2.39,2.39,0,0,1-1-2.16v-2.51a1.76,1.76,0,0,0-.83-1.95,1.73,1.73,0,0,0-2.08.28L432.09,282l-.15-.27,2.13-1.24a2,2,0,0,1,2.36-.22,2.07,2.07,0,0,1,1,2.18v2.49a1.75,1.75,0,0,0,.83,1.89,1.72,1.72,0,0,0,2-.21l10.2-5.95.15.26-10.14,5.95a3,3,0,0,1-1.5.45Z"/><path class="cls-4" d="M439,287.56a2,2,0,0,1-1-.26,2.64,2.64,0,0,1-1.09-2.39v-2.49a1.56,1.56,0,0,0-.71-1.74,1.5,1.5,0,0,0-1.79.24l-.05,0L432,282.32l-.4-.68,2.34-1.37a2.26,2.26,0,0,1,2.6-.22,2.32,2.32,0,0,1,1.09,2.44v2.44a1.55,1.55,0,0,0,.71,1.69,1.48,1.48,0,0,0,1.75-.19l10.46-6.1.39.68-.2.12-10.15,5.95a3.16,3.16,0,0,1-1.61.48h0Z"/><path id="Path-40" data-name="Path" class="cls-4" d="M443,289.33a1.69,1.69,0,0,1-.88-.24,2.38,2.38,0,0,1-1-2.18V284.4a1.82,1.82,0,0,0-.84-2,1.72,1.72,0,0,0-2.07.26L436.1,284l-.16-.27,2.12-1.25a2.27,2.27,0,0,1,2.35-.23,2.39,2.39,0,0,1,1,2.19v2.51a1.8,1.8,0,0,0,.83,2,1.73,1.73,0,0,0,2.08-.27l10.18-6,.16.26-10.19,6a2.92,2.92,0,0,1-1.46.46Z"/><path class="cls-4" d="M443,289.57a1.92,1.92,0,0,1-1-.28,2.62,2.62,0,0,1-1.08-2.41V284.4a1.59,1.59,0,0,0-.72-1.75,1.47,1.47,0,0,0-1.78.23L436,284.3l-.39-.7,2.32-1.37a2.48,2.48,0,0,1,2.57-.24,2.65,2.65,0,0,1,1.11,2.43v2.49a1.61,1.61,0,0,0,.71,1.75,1.47,1.47,0,0,0,1.79-.23l10.44-6.17.4.68-10.4,6.14a3.12,3.12,0,0,1-1.57.49h0Z"/><path id="Path-41" data-name="Path" class="cls-4" d="M447,292a1.81,1.81,0,0,1-.88-.23,2.4,2.4,0,0,1-1-2.19v-2.51a1.8,1.8,0,0,0-.83-2,1.74,1.74,0,0,0-2.08.26l-2.13,1.26-.14-.27,2.12-1.25a2.25,2.25,0,0,1,2.34-.23,2.39,2.39,0,0,1,1,2.19v2.51a1.82,1.82,0,0,0,.84,2,1.71,1.71,0,0,0,2.07-.27l10.19-6,.15.26-10.18,6A3,3,0,0,1,447,292Z"/><path class="cls-4" d="M447,292.24a2,2,0,0,1-1-.26,2.68,2.68,0,0,1-1.09-2.43v-2.48a1.6,1.6,0,0,0-.71-1.75,1.48,1.48,0,0,0-1.79.23L440,287l-.36-.71L442,284.9a2.5,2.5,0,0,1,2.57-.24,2.64,2.64,0,0,1,1.1,2.43v2.49a1.6,1.6,0,0,0,.72,1.75,1.45,1.45,0,0,0,1.78-.23l10.45-6.17.39.68-10.39,6.14a3.16,3.16,0,0,1-1.58.49h0Z"/><path id="Path-42" data-name="Path" class="cls-4" d="M451,294a1.87,1.87,0,0,1-.89-.23,2.38,2.38,0,0,1-1-2.17v-2.49a1.76,1.76,0,0,0-.82-2,1.71,1.71,0,0,0-2.09.28l-2.13,1.25-.15-.26,2.13-1.25a2,2,0,0,1,2.35-.22,2.07,2.07,0,0,1,1,2.18v2.5a2,2,0,0,0,.83,1.9,2,2,0,0,0,2-.22l10.2-6,.16.28-10.21,6A3,3,0,0,1,451,294Z"/><path class="cls-4" d="M451,294.24a2,2,0,0,1-1-.26,2.64,2.64,0,0,1-1.1-2.41v-2.46a1.57,1.57,0,0,0-.7-1.77,1.5,1.5,0,0,0-1.8.25l0,0L444,289l-.37-.68L446,287a2.22,2.22,0,0,1,2.6-.22,2.32,2.32,0,0,1,1.09,2.44v2.44a1.82,1.82,0,0,0,.73,1.71,1.78,1.78,0,0,0,1.76-.22L462.57,287l.39.7-10.41,6.08a3.12,3.12,0,0,1-1.54.47h0Z"/><path id="Path-43" data-name="Path" class="cls-4" d="M455,296.67a1.7,1.7,0,0,1-.88-.23,2.35,2.35,0,0,1-1-2.17v-2.5a1.77,1.77,0,0,0-.83-1.9,1.72,1.72,0,0,0-2,.22l-2.14,1.25-.16-.26,2.14-1.25a2,2,0,0,1,2.36-.22,2.07,2.07,0,0,1,1,2.18v2.51a1.78,1.78,0,0,0,.83,1.91,1.72,1.72,0,0,0,2-.22l10.22-6,.14.28-10.22,6a3,3,0,0,1-1.46.4Z"/><path class="cls-4" d="M454.92,296.91a2,2,0,0,1-1-.26,2.61,2.61,0,0,1-1.09-2.41v-2.47a1.54,1.54,0,0,0-.71-1.69,1.46,1.46,0,0,0-1.75.19l-2.39,1.4-.39-.68,2.34-1.37a2.22,2.22,0,0,1,2.6-.22,2.34,2.34,0,0,1,1.09,2.44v2.46a1.55,1.55,0,0,0,.71,1.7,1.46,1.46,0,0,0,1.75-.19l10.47-6.13.37.7-10.42,6.1a3.22,3.22,0,0,1-1.57.43Z"/><polygon id="Path-44" data-name="Path" class="cls-7" points="449.96 291.34 449.96 300.57 370.53 346.73 291.11 300.57 291.11 291.33 449.96 291.34"/><path id="Path-45" data-name="Path" class="cls-4" d="M380.2,351.5A7.08,7.08,0,0,1,377,346V343.5a6.72,6.72,0,0,0-3-5.29L371.87,337l.15-.27,2.13,1.24a7.06,7.06,0,0,1,3.17,5.52V346a6.72,6.72,0,0,0,3,5.25l10.2,5.92-.15.22"/><path class="cls-4" d="M390.6,357.54l-.4-.27h0l-10-5.79h0l-.16.24a7.39,7.39,0,0,1-3.28-5.71V343.5a6.48,6.48,0,0,0-2.92-5.08l-2.32-1.36.39-.67,2.34,1.35a7.3,7.3,0,0,1,3.29,5.72V346a6.52,6.52,0,0,0,2.92,5.05l10.42,6Z"/><path id="Path-46" data-name="Path" class="cls-4" d="M393.74,354.73l-10.21-5.92a7.05,7.05,0,0,1-3.17-5.53v-2.47a6.72,6.72,0,0,0-3-5.26l-2.13-1.23.15-.28,2.13,1.24a7.07,7.07,0,0,1,3.18,5.53v2.47a6.74,6.74,0,0,0,3,5.27l10.2,5.91Z"/><path class="cls-4" d="M393.82,355.06l-10.41-6a7.32,7.32,0,0,1-3.29-5.73v-2.48a6.51,6.51,0,0,0-2.92-5.06l-2.32-1.34.37-.7,2.35,1.37a7.33,7.33,0,0,1,3.3,5.72v2.48a6.5,6.5,0,0,0,2.92,5.07l10.4,6Z"/><path id="Path-47" data-name="Path" class="cls-4" d="M397.9,352.47l-.16.26-10.2-5.92a7.09,7.09,0,0,1-3.19-5.53v-2.47a6.7,6.7,0,0,0-3-5.27l-2.12-1.23.14-.27,2.14,1.23a7.1,7.1,0,0,1,3.17,5.54v2.47a6.74,6.74,0,0,0,3,5.26"/><path class="cls-4" d="M397.83,353.06l-10.41-6a7.34,7.34,0,0,1-3.31-5.72v-2.49a6.5,6.5,0,0,0-2.91-5.06l-2.32-1.36.38-.68,2.35,1.35a7.38,7.38,0,0,1,3.29,5.73v2.49a6.54,6.54,0,0,0,2.92,5.06l-.17.25,0,0,10,5.8,0-.06.41.24Z"/><path id="Path-48" data-name="Path" class="cls-4" d="M401.76,350.06l-10.22-5.92a7.07,7.07,0,0,1-3.17-5.53v-2.47a6.75,6.75,0,0,0-3-5.27l-2.14-1.23.16-.27,2.13,1.24a7.07,7.07,0,0,1,3.18,5.53v2.47a6.74,6.74,0,0,0,3,5.26l10.2,5.92Z"/><path class="cls-4" d="M401.85,350.4l-10.43-6a7.36,7.36,0,0,1-3.29-5.73v-2.48a6.53,6.53,0,0,0-2.91-5.07l-2.34-1.35.4-.68,2.34,1.36a7.36,7.36,0,0,1,3.3,5.73v2.48a6.52,6.52,0,0,0,2.91,5.06l10.39,6Z"/><path id="Path-49" data-name="Path" class="cls-4" d="M395.55,342.14a7.08,7.08,0,0,1-3.18-5.53v-2.48a6.75,6.75,0,0,0-3-5.26l-2.13-1.24.15-.26,2.13,1.23a7,7,0,0,1,3.18,5.53v2.48a6.74,6.74,0,0,0,3,5.26l10.21,5.93-.16.26"/><path class="cls-4" d="M406,348.18l-.42-.24,0-.06-10-5.8-.16.26a7.35,7.35,0,0,1-3.29-5.71v-2.5a6.53,6.53,0,0,0-2.91-5.06l-2.33-1.35.4-.68,2.33,1.35a7.33,7.33,0,0,1,3.3,5.73v2.49a6.5,6.5,0,0,0,2.91,5.06l10.41,6Z"/><path id="Path-50" data-name="Path" class="cls-4" d="M409.75,345.39l-10.2-5.92a7.08,7.08,0,0,1-3.17-5.54v-2.48a6.77,6.77,0,0,0-3-5.27L391.22,325l.16-.26,2.12,1.24a7.09,7.09,0,0,1,3.19,5.53V334a6.7,6.7,0,0,0,3,5.27l10.2,5.93Z"/><path class="cls-4" d="M409.83,345.71l-.2-.11-10.2-5.92a7.38,7.38,0,0,1-3.29-5.74v-2.49a6.54,6.54,0,0,0-2.92-5.06l-2.33-1.34.4-.68,2.33,1.36a7.34,7.34,0,0,1,3.31,5.73V334a6.53,6.53,0,0,0,2.91,5.07l10.41,6.05Z"/><path id="Path-51" data-name="Path" class="cls-4" d="M403.56,337.47a7.07,7.07,0,0,1-3.18-5.53v-2.47a6.74,6.74,0,0,0-3-5.27L395.23,323l.15-.27,2.13,1.24a7.07,7.07,0,0,1,3.17,5.53v2.47a6.72,6.72,0,0,0,3,5.26l10.2,5.92-.13.27"/><path class="cls-4" d="M414,343.5l-.42-.22,0-.06-10-5.81-.16.26a7.32,7.32,0,0,1-3.29-5.72v-2.48a6.54,6.54,0,0,0-2.92-5.07l-2.32-1.34.39-.69,2.34,1.36a7.32,7.32,0,0,1,3.29,5.72v2.49a6.48,6.48,0,0,0,2.92,5.06l10.39,6Z"/><path id="Path-52" data-name="Path" class="cls-4" d="M417.76,340.72l-10.2-5.93a7,7,0,0,1-3.17-5.52v-2.48a6.75,6.75,0,0,0-3-5.26l-2.13-1.24.15-.26,2.13,1.24a7.1,7.1,0,0,1,3.18,5.52v2.48a6.72,6.72,0,0,0,3,5.26l10.2,5.93Z"/><path class="cls-4" d="M417.85,341.05,407.44,335a7.3,7.3,0,0,1-3.29-5.72v-2.49a6.54,6.54,0,0,0-2.92-5.06l-2.32-1.35.37-.68,2.35,1.36a7.35,7.35,0,0,1,3.3,5.72v2.49a6.48,6.48,0,0,0,2.92,5.06l10.4,6Z"/><path id="Path-53" data-name="Path" class="cls-4" d="M411.58,332.79a7,7,0,0,1-3.19-5.53V324.8a6.7,6.7,0,0,0-3-5.27l-2.13-1.23.15-.27,2.14,1.23a7.08,7.08,0,0,1,3.17,5.54v2.46a6.77,6.77,0,0,0,3,5.27l10.2,5.91-.14.28"/><path class="cls-4" d="M422,338.83l-.42-.23,0-.07-10-5.79-.17.26a7.37,7.37,0,0,1-3.29-5.72V324.8a6.5,6.5,0,0,0-2.91-5.07l-2.33-1.34.39-.69,2.35,1.36a7.32,7.32,0,0,1,3.29,5.72v2.48a6.59,6.59,0,0,0,2.91,5.07l10.39,6Z"/><path id="Path-54" data-name="Path" class="cls-4" d="M426.39,336.05l-10.54-5.93a7,7,0,0,1-3.28-5.52v-2.48a6.71,6.71,0,0,0-3.12-5.26l-2.21-1.24.16-.26,2.21,1.23a7,7,0,0,1,3.28,5.53v2.48a6.66,6.66,0,0,0,3.12,5.26l10.59,5.92Z"/><path class="cls-4" d="M426.45,336.36l-.18-.1-10.54-5.93a7.3,7.3,0,0,1-3.4-5.72v-2.49a6.51,6.51,0,0,0-3-5.06l-2.41-1.35.41-.68,2.4,1.35a7.31,7.31,0,0,1,3.41,5.73v2.49a6.48,6.48,0,0,0,3,5.06l10.83,6Z"/><path id="Path-55" data-name="Path" class="cls-4" d="M429.93,333.77l-.11.27-10.23-5.92a7.1,7.1,0,0,1-3.18-5.53v-2.47a6.75,6.75,0,0,0-3-5.26l-2.15-1.24.16-.27,2.13,1.24a7.06,7.06,0,0,1,3.19,5.53v2.47a6.72,6.72,0,0,0,3,5.26"/><path class="cls-4" d="M429.93,334.39l-10.46-6.06a7.36,7.36,0,0,1-3.3-5.73v-2.48a6.48,6.48,0,0,0-2.92-5.06l-2.33-1.36.39-.67,2.34,1.36a7.28,7.28,0,0,1,3.31,5.72v2.48a6.48,6.48,0,0,0,2.92,5.06l-.17.26h0l10,5.78v0l.44.19Z"/><path id="Path-56" data-name="Path" class="cls-4" d="M434.45,331.37l-10.2-5.92a7.07,7.07,0,0,1-3.18-5.53v-2.47a6.72,6.72,0,0,0-3-5.26L415.92,311l.15-.27,2.13,1.23a7.08,7.08,0,0,1,3.17,5.54v2.43a6.74,6.74,0,0,0,3,5.27l10.21,5.92Z"/><path class="cls-4" d="M434.55,331.71l-10.42-6a7.36,7.36,0,0,1-3.3-5.73v-2.48a6.48,6.48,0,0,0-2.92-5.06L415.59,311l.4-.67,2.33,1.34a7.35,7.35,0,0,1,3.29,5.73v2.45a6.54,6.54,0,0,0,2.92,5.07l10.39,6Z"/><path id="Path-57" data-name="Path" class="cls-4" d="M438.61,329.11l-.18.26-10.21-5.91a7.08,7.08,0,0,1-3.17-5.54v-2.48a6.76,6.76,0,0,0-3-5.26l-2.1-1.24.15-.26,2.13,1.24a7.07,7.07,0,0,1,3.18,5.52v2.48a6.71,6.71,0,0,0,3,5.26"/><path class="cls-4" d="M438.5,329.69l-10.4-6a7.32,7.32,0,0,1-3.29-5.72v-2.5a6.55,6.55,0,0,0-2.92-5.06L419.6,309l.38-.68,2.34,1.36a7.37,7.37,0,0,1,3.3,5.72v2.49a6.47,6.47,0,0,0,2.92,5.06l-.18.28,10,5.79.05-.08.4.28Z"/><path id="Path-58" data-name="Path" class="cls-4" d="M442.47,326.7l-10.2-5.92a7.06,7.06,0,0,1-3.19-5.53v-2.47a6.72,6.72,0,0,0-3-5.27l-2.13-1.23.15-.27,2.14,1.24a7.07,7.07,0,0,1,3.17,5.53v2.47a6.77,6.77,0,0,0,3,5.27l10.2,5.91Z"/><path class="cls-4" d="M442.56,327,432.14,321a7.36,7.36,0,0,1-3.3-5.73v-2.48a6.53,6.53,0,0,0-2.91-5.07l-2.33-1.34.39-.69,2.35,1.36a7.34,7.34,0,0,1,3.29,5.73v2.48a6.56,6.56,0,0,0,2.91,5.07l10.4,6Z"/><path id="Path-59" data-name="Path" class="cls-4" d="M436.26,318.78a7.07,7.07,0,0,1-3.17-5.53v-2.48a6.75,6.75,0,0,0-3-5.26l-2.14-1.24.16-.26,2.13,1.23a7.12,7.12,0,0,1,3.18,5.53v2.5a6.71,6.71,0,0,0,3,5.26l10.2,5.93-.16.24"/><path class="cls-4" d="M446.67,324.83l-.41-.26,0,0-10-5.8h0l-.16.25a7.32,7.32,0,0,1-3.28-5.72v-2.49a6.55,6.55,0,0,0-2.92-5.06l-2.33-1.35.4-.68,2.34,1.35a7.39,7.39,0,0,1,3.3,5.73v2.51a6.52,6.52,0,0,0,2.91,5.06l10.41,6Z"/><path id="Path-60" data-name="Path" class="cls-4" d="M450.44,322l-10.19-5.92a7.08,7.08,0,0,1-3.17-5.53v-2.47a6.74,6.74,0,0,0-3-5.27l-2.13-1.24.15-.26,2.12,1.24a7,7,0,0,1,3.18,5.53v2.47a6.74,6.74,0,0,0,3.05,5.25l10.18,5.92Z"/><path class="cls-4" d="M450.52,322.35l-10.39-6a7.38,7.38,0,0,1-3.29-5.73v-2.48a6.55,6.55,0,0,0-2.9-5.07l-2.33-1.35.4-.68,2.32,1.36a7.3,7.3,0,0,1,3.3,5.73v2.48a6.48,6.48,0,0,0,2.94,5L451,321.67Z"/><path id="Path-61" data-name="Path" class="cls-4" d="M441.1,309.25v-2.48a6.75,6.75,0,0,0-3-5.26l-2.13-1.24.16-.27,2.12,1.23a7.07,7.07,0,0,1,3.18,5.54v2.48a6.72,6.72,0,0,0,3,5.26l10.2,5.92-.16.27-10.2-5.93"/><path class="cls-4" d="M454.56,321l-10.41-6,.15-.27a7,7,0,0,1-3.14-5.45h-.3v-2.48a6.52,6.52,0,0,0-2.93-5.06l-2.32-1.36.4-.67,2.33,1.35a7.33,7.33,0,0,1,3.3,5.72v2.5a6.5,6.5,0,0,0,2.92,5.06l10.4,6Z"/><path id="Path-62" data-name="Path" class="cls-4" d="M458.47,318l-10.2-5.92a7.07,7.07,0,0,1-3.17-5.53v-2.47a6.74,6.74,0,0,0-3-5.27L440,297.6l.14-.27,2.14,1.24a7.1,7.1,0,0,1,3.17,5.54v2.47a6.72,6.72,0,0,0,3,5.26l10.2,5.92Z"/><path class="cls-4" d="M458.55,318.35l-.2-.12-10.2-5.91a7.35,7.35,0,0,1-3.29-5.73v-2.48a6.49,6.49,0,0,0-2.92-5.07l-2.32-1.35L440,297l2.35,1.37a7.32,7.32,0,0,1,3.29,5.72v2.49a6.55,6.55,0,0,0,2.92,5.06l10.41,6Z"/><path id="Path-63" data-name="Path" class="cls-4" d="M452.43,309.82l10.21,5.92-.16.28-10.2-5.91a7,7,0,0,1-3.18-5.53V302.1a6.74,6.74,0,0,0-3-5.26L444,295.61l.15-.28,2.13,1.24a7.1,7.1,0,0,1,3.18,5.53"/><path class="cls-4" d="M462.58,316.35l-10.42-6a7.29,7.29,0,0,1-3.3-5.72V302.1a6.53,6.53,0,0,0-2.92-5.06l-2.31-1.34.37-.7,2.35,1.36a7.37,7.37,0,0,1,3.3,5.72l-.31,0v2.48a6.8,6.8,0,0,0,3.05,5.31l.16-.27,10.41,6Z"/><path id="Path-64" data-name="Path" class="cls-4" d="M466.5,313.35l-10.22-5.91a7.12,7.12,0,0,1-3.17-5.53v-2.48a6.74,6.74,0,0,0-3-5.26L448,292.93l.16-.27,2.14,1.24a7.07,7.07,0,0,1,3.17,5.53v2.48a6.77,6.77,0,0,0,3,5.26l10.2,5.92Z"/><path class="cls-4" d="M466.59,313.68l-10.43-6a7.41,7.41,0,0,1-3.29-5.73v-2.49a6.5,6.5,0,0,0-2.91-5.06L447.62,293l.4-.67,2.35,1.35a7.36,7.36,0,0,1,3.29,5.72v2.49a6.5,6.5,0,0,0,2.91,5.06l10.4,6Z"/><path id="Path-65" data-name="Path" class="cls-4" d="M350.65,357.4l-.14-.26,10.2-5.92a6.75,6.75,0,0,0,3-5.26v-2.48A7.07,7.07,0,0,1,366.9,338l2.14-1.24.16.27-2.14,1.24a6.74,6.74,0,0,0-3,5.26V346a7.12,7.12,0,0,1-3.18,5.53Z"/><path class="cls-4" d="M350.56,357.74l-.38-.69,10.41-6a6.52,6.52,0,0,0,2.9-5.07v-2.46a7.38,7.38,0,0,1,3.28-5.73l2.36-1.36.4.67-2.35,1.36a6.52,6.52,0,0,0-2.9,5.07V346a7.37,7.37,0,0,1-3.29,5.73Z"/><path id="Path-66" data-name="Path" class="cls-4" d="M346.66,354.73l-.16-.27,10.19-5.91a6.75,6.75,0,0,0,3-5.27v-2.47a7.08,7.08,0,0,1,3.2-5.53L365,334l.15.28-2.13,1.23a6.72,6.72,0,0,0-3,5.26v2.47a7.07,7.07,0,0,1-3.17,5.53Z"/><path class="cls-4" d="M346.57,355.06l-.39-.69,10.38-6a6.5,6.5,0,0,0,2.9-5.07v-2.46a7.34,7.34,0,0,1,3.31-5.73l2.36-1.36.39.69-2.34,1.34a6.55,6.55,0,0,0-2.89,5.08v2.45A7.33,7.33,0,0,1,357,349Z"/><path id="Path-67" data-name="Path" class="cls-4" d="M342.65,352.73l-.15-.26,10.2-5.93a6.7,6.7,0,0,0,3-5.26v-2.47a7.11,7.11,0,0,1,3.19-5.54L361,332l.16.27-2.14,1.23a6.77,6.77,0,0,0-3,5.27v2.47a7.07,7.07,0,0,1-3.17,5.53Z"/><path class="cls-4" d="M342.57,353.06l-.4-.68,10.41-6a6.52,6.52,0,0,0,2.9-5.07v-2.46a7.38,7.38,0,0,1,3.29-5.74l2.35-1.35.4.67-2.35,1.36a6.52,6.52,0,0,0-2.9,5.07v2.46A7.35,7.35,0,0,1,353,347Z"/><path id="Path-68" data-name="Path" class="cls-4" d="M338.65,350.06l-.16-.27,10.21-5.92a6.75,6.75,0,0,0,3-5.26v-2.47a7,7,0,0,1,3.17-5.53l2.13-1.24.15.27-2.08,1.27a6.73,6.73,0,0,0-3,5.27v2.47a7.12,7.12,0,0,1-3.18,5.53Z"/><path class="cls-4" d="M338.56,350.39l-.39-.69,10.41-6a6.52,6.52,0,0,0,2.91-5.06v-2.46a7.29,7.29,0,0,1,3.28-5.73l2.34-1.37.4.68-2.28,1.4a6.5,6.5,0,0,0-2.91,5.07v2.46a7.37,7.37,0,0,1-3.29,5.73Z"/><path id="Path-69" data-name="Path" class="cls-4" d="M334.64,348.06l-.15-.26,10.2-5.93a6.72,6.72,0,0,0,3-5.26v-2.48a7.09,7.09,0,0,1,3.18-5.53l2.13-1.23.15.26-2.13,1.24a6.75,6.75,0,0,0-3,5.26v2.48a7.07,7.07,0,0,1-3.17,5.53Z"/><path class="cls-4" d="M334.56,348.39l-.4-.68,10.41-6a6.5,6.5,0,0,0,2.91-5.07v-2.47a7.39,7.39,0,0,1,3.28-5.73l2.36-1.36.38.68-2.33,1.36a6.54,6.54,0,0,0-2.91,5.07v2.46a7.32,7.32,0,0,1-3.28,5.73Z"/><path id="Path-70" data-name="Path" class="cls-4" d="M330.63,345.39l-.15-.26,10.21-5.93a6.74,6.74,0,0,0,3-5.26v-2.48a7.06,7.06,0,0,1,3.17-5.52L349,324.7l.15.26L347,326.2a6.7,6.7,0,0,0-3,5.26v2.48a7.11,7.11,0,0,1-3.19,5.54Z"/><path class="cls-4" d="M330.54,345.72l-.38-.68,10.41-6a6.55,6.55,0,0,0,2.9-5.07v-2.47a7.3,7.3,0,0,1,3.28-5.72l2.35-1.37.4.68-2.34,1.36a6.5,6.5,0,0,0-2.9,5.07v2.46a7.36,7.36,0,0,1-3.3,5.74Z"/><path id="Path-71" data-name="Path" class="cls-4" d="M326.63,343.39l-.15-.27,10.2-5.92a6.68,6.68,0,0,0,3-5.26v-2.47a7.08,7.08,0,0,1,3.18-5.53L345,322.7l.16.27L343,324.2a6.77,6.77,0,0,0-3,5.27v2.47a7.08,7.08,0,0,1-3.17,5.53Z"/><path class="cls-4" d="M326.55,343.72l-.4-.68.21-.12,10.2-5.92a6.49,6.49,0,0,0,2.9-5.08v-2.45a7.36,7.36,0,0,1,3.28-5.73l2.36-1.37.4.69-2.35,1.35a6.57,6.57,0,0,0-2.9,5.07v2.46a7.34,7.34,0,0,1-3.28,5.73Z"/><path id="Path-72" data-name="Path" class="cls-4" d="M322.63,340.72l-.16-.26,10.21-5.93a6.74,6.74,0,0,0,3-5.26v-2.48a7,7,0,0,1,3.18-5.52L341,320l.15.26L339,321.53a6.75,6.75,0,0,0-3,5.26v2.48a7.06,7.06,0,0,1-3.18,5.52Z"/><path class="cls-4" d="M322.54,341.05l-.4-.68,10.42-6.05a6.49,6.49,0,0,0,2.9-5.06v-2.47a7.27,7.27,0,0,1,3.29-5.72l2.34-1.37.4.68-2.34,1.36a6.5,6.5,0,0,0-2.9,5.06v2.47A7.36,7.36,0,0,1,333,335Z"/><path id="Path-73" data-name="Path" class="cls-4" d="M314.62,336.05l-.15-.27,10.2-5.92a6.75,6.75,0,0,0,3-5.26v-2.48a7.07,7.07,0,0,1,3.17-5.53l2.14-1.23.14.26L331,316.86a6.72,6.72,0,0,0-3,5.26v2.48a7,7,0,0,1-3.18,5.52Z"/><path class="cls-4" d="M314.53,336.37l-.39-.67,10.41-6.05a6.53,6.53,0,0,0,2.91-5.07v-2.46a7.37,7.37,0,0,1,3.28-5.74L333.1,315l.38.68-2.33,1.36a6.47,6.47,0,0,0-2.91,5.06v2.47a7.3,7.3,0,0,1-3.28,5.72Z"/><path id="Path-74" data-name="Path" class="cls-4" d="M310.62,334l-.16-.27,10.21-5.92a6.71,6.71,0,0,0,3-5.26v-2.47a7.07,7.07,0,0,1,3.18-5.53l2.13-1.24.15.27L327,314.86a6.74,6.74,0,0,0-3,5.26v2.47a7,7,0,0,1-3.18,5.53Z"/><path class="cls-4" d="M310.53,334.37l-.4-.69,10.42-6a6.5,6.5,0,0,0,2.9-5.06v-2.46a7.37,7.37,0,0,1,3.29-5.73L329.1,313l.37.69-2.33,1.35a6.52,6.52,0,0,0-2.9,5.08v2.45a7.29,7.29,0,0,1-3.29,5.73Z"/><path id="Path-75" data-name="Path" class="cls-4" d="M306.6,331.37l-.14-.26,10.2-5.92a6.77,6.77,0,0,0,3-5.27v-2.47a7.1,7.1,0,0,1,3.17-5.54l2.14-1.23.15.27L323,312.19a6.71,6.71,0,0,0-3,5.26v2.43a7.07,7.07,0,0,1-3.18,5.53Z"/><path class="cls-4" d="M306.51,331.71l-.38-.69,10.41-6a6.52,6.52,0,0,0,2.9-5.08v-2.45a7.37,7.37,0,0,1,3.28-5.74l2.36-1.35.4.67-2.35,1.36a6.52,6.52,0,0,0-2.9,5.07v2.42a7.36,7.36,0,0,1-3.28,5.73Z"/><path id="Path-76" data-name="Path" class="cls-4" d="M302.61,329.37l-.16-.26,10.2-5.93a6.68,6.68,0,0,0,3-5.26v-2.48a7.08,7.08,0,0,1,3.19-5.52l2.12-1.24.16.26L319,310.18a6.74,6.74,0,0,0-3.05,5.26v2.48a7.14,7.14,0,0,1-3.18,5.54Z"/><path class="cls-4" d="M302.52,329.7l-.4-.68,10.41-6a6.52,6.52,0,0,0,2.9-5.07v-2.47a7.32,7.32,0,0,1,3.3-5.72l2.34-1.37.4.68-2.34,1.36a6.5,6.5,0,0,0-2.94,5.07v2.46a7.38,7.38,0,0,1-3.29,5.74Z"/><path id="Path-77" data-name="Path" class="cls-4" d="M298.6,326.7l-.15-.27,10.2-5.91a6.73,6.73,0,0,0,3-5.27v-2.47a7,7,0,0,1,3.18-5.53L317,306l.16.27L315,307.51a6.73,6.73,0,0,0-3,5.27v2.47a7.06,7.06,0,0,1-3.22,5.53Z"/><path class="cls-4" d="M298.51,327l-.39-.69,10.41-6a6.52,6.52,0,0,0,2.9-5.07v-2.46a7.32,7.32,0,0,1,3.29-5.73l2.35-1.37.39.69-2.33,1.35a6.51,6.51,0,0,0-2.86,5.07v2.46a7.33,7.33,0,0,1-3.33,5.73Z"/><path id="Path-78" data-name="Path" class="cls-4" d="M293.93,324.7l-.16-.26L304,318.51a6.71,6.71,0,0,0,3-5.24v-2.48a7.1,7.1,0,0,1,3.18-5.53l2.12-1.25.15.26-2.1,1.24a6.75,6.75,0,0,0-3,5.26v2.5a7.07,7.07,0,0,1-3.17,5.53Z"/><path class="cls-4" d="M293.84,325l-.4-.68.21-.12,10.21-5.92a6.54,6.54,0,0,0,2.91-5.05v-2.47a7.36,7.36,0,0,1,3.29-5.73l2.33-1.38.4.68-2.3,1.36a6.52,6.52,0,0,0-2.92,5.07v2.48a7.32,7.32,0,0,1-3.28,5.73Z"/><path id="Path-79" data-name="Path" class="cls-4" d="M289.93,322l-.16-.27,10.2-5.93a6.72,6.72,0,0,0,3-5.26v-2.46a7,7,0,0,1,3.18-5.53l2.13-1.24.15.26-2.13,1.24a6.74,6.74,0,0,0-3,5.27v2.46a7,7,0,0,1-3.18,5.53Z"/><path class="cls-4" d="M289.84,322.36l-.4-.69,10.41-6.05a6.5,6.5,0,0,0,2.91-5.06v-2.45a7.31,7.31,0,0,1,3.28-5.73L308.4,301l.38.68-2.33,1.36a6.47,6.47,0,0,0-2.91,5.07v2.45a7.31,7.31,0,0,1-3.28,5.73Z"/><path id="Path-80" data-name="Path" class="cls-4" d="M285.91,320.7l-.14-.27,10.2-5.92a6.75,6.75,0,0,0,3-5.26v-2.48a7.1,7.1,0,0,1,3.17-5.54L304.3,300l.15.27-2.13,1.24a6.71,6.71,0,0,0-3,5.26v2.48a7,7,0,0,1-3.19,5.52Z"/><path class="cls-4" d="M285.82,321l-.38-.69,10.41-6a6.55,6.55,0,0,0,2.9-5.07v-2.46A7.37,7.37,0,0,1,302,301l2.36-1.35.39.67-2.34,1.37a6.49,6.49,0,0,0-2.9,5.06v2.47a7.32,7.32,0,0,1-3.29,5.72Z"/><path id="Path-81" data-name="Path" class="cls-4" d="M281.92,318l-.16-.27,10.2-5.92a6.7,6.7,0,0,0,3-5.26v-2.47a7.08,7.08,0,0,1,3.18-5.54l2.13-1.24.16.27-2.14,1.26a6.76,6.76,0,0,0-3,5.27v2.47a7.08,7.08,0,0,1-3.17,5.53Z"/><path class="cls-4" d="M281.83,318.35l-.4-.67,10.41-6.05a6.5,6.5,0,0,0,2.9-5.07v-2.45a7.35,7.35,0,0,1,3.29-5.74l2.35-1.36.4.67-2.34,1.38a6.56,6.56,0,0,0-2.91,5.08v2.46a7.34,7.34,0,0,1-3.28,5.73Z"/><path id="Path-82" data-name="Path" class="cls-4" d="M277.91,316l-.15-.26,10.2-5.87a6.71,6.71,0,0,0,3-5.26V302.1a7,7,0,0,1,3.18-5.53l2.13-1.24.15.28-2.13,1.23a6.74,6.74,0,0,0-3,5.26v2.46a7,7,0,0,1-3.18,5.53Z"/><path class="cls-4" d="M277.83,316.35l-.4-.68,10.41-6a6.49,6.49,0,0,0,2.9-5.06V302.1a7.34,7.34,0,0,1,3.29-5.73l2.35-1.37.39.69-2.34,1.36a6.5,6.5,0,0,0-2.9,5.06v2.45a7.35,7.35,0,0,1-3.28,5.73Z"/><path id="Path-83" data-name="Path" class="cls-4" d="M273.91,313.35l-.16-.26L284,307.17a6.74,6.74,0,0,0,3-5.26v-2.48a7.07,7.07,0,0,1,3.17-5.53l2.12-1.24.16.27-2.13,1.24a6.73,6.73,0,0,0-3,5.26v2.48a7.1,7.1,0,0,1-3.17,5.53Z"/><path class="cls-4" d="M273.82,313.68l-.4-.68.21-.12L283.84,307a6.49,6.49,0,0,0,2.91-5.07v-2.46A7.32,7.32,0,0,1,290,293.7l2.34-1.37.4.68-2.34,1.36a6.56,6.56,0,0,0-2.91,5.07v2.46a7.34,7.34,0,0,1-3.28,5.74Z"/><path id="Path-84" data-name="Path" class="cls-4" d="M318.34,338.39l-.16-.27,10.2-5.92a6.7,6.7,0,0,0,3-5.26v-2.48a7.09,7.09,0,0,1,3.19-5.53l2.12-1.23.16.26-2.14,1.24a6.74,6.74,0,0,0-3,5.26v2.48a7.06,7.06,0,0,1-3.17,5.52Z"/><path class="cls-4" d="M318.25,338.71l-.4-.67L328.26,332a6.5,6.5,0,0,0,2.9-5.07v-2.46a7.34,7.34,0,0,1,3.3-5.73l2.34-1.36.4.68-2.35,1.36a6.54,6.54,0,0,0-2.9,5.06v2.47a7.3,7.3,0,0,1-3.28,5.72Z"/><polygon id="Path-85" data-name="Path" class="cls-7" points="370.53 338.05 291.11 291.99 370.53 245.94 449.96 292 370.53 338.05"/><path class="cls-5" d="M369.94,337.92,292.49,293a1.18,1.18,0,0,1,0-2l77.45-44.9a1.18,1.18,0,0,1,1.18,0L448.57,291a1.18,1.18,0,0,1,0,2l-77.45,44.9A1.14,1.14,0,0,1,369.94,337.92ZM449.58,292"/><path class="cls-4" d="M370.53,338.44a1.51,1.51,0,0,1-.77-.21h0l-77.45-44.91a1.53,1.53,0,0,1,0-2.66l77.45-44.9a1.52,1.52,0,0,1,1.54,0l77.45,44.91a1.53,1.53,0,0,1,0,2.66l-77.45,44.9A1.51,1.51,0,0,1,370.53,338.44Zm-.41-.83a.8.8,0,0,0,.82,0l77.45-44.9a.82.82,0,0,0,0-1.42l-77.45-44.91a.8.8,0,0,0-.82,0l-77.45,44.9a.82.82,0,0,0,0,1.42Z"/></g></g><polygon id="Path-86" data-name="Path" class="cls-5" points="370.82 326.16 310.75 291.32 370.82 256.5 430.89 291.33 370.82 326.16"/><polygon id="Path-87" data-name="Path" class="cls-5" points="104.56 351.88 92.31 345.17 107.92 336.23 120.18 342.94 104.56 351.88"/><polygon class="cls-5" points="120.18 342.94 120.18 347.45 104.56 356.39 104.56 351.88 120.18 342.94"/><polygon class="cls-7" points="92.31 345.17 92.31 349.68 104.56 356.39 104.56 351.88 92.31 345.17"/><polygon class="cls-7" points="104.57 351.93 101.09 349.94 101.09 330.23 116.69 321.29 104.57 351.93"/><polygon class="cls-5" points="120.18 342.9 104.57 351.93 104.57 329.11 120.18 320.17 120.18 342.9"/><polygon id="Path-88" data-name="Path" class="cls-7" points="113.29 337.15 101.03 330.45 116.64 321.51 128.9 328.21 113.29 337.15"/><polygon id="Path-89" data-name="Path" class="cls-7" points="113.29 332.64 101.03 325.94 116.64 317 128.9 323.7 113.29 332.64"/><polygon class="cls-7" points="101.03 325.94 109.81 325.94 108.48 332.04 101.03 330.45 101.03 325.94"/><polygon class="cls-5" points="128.9 323.7 128.9 328.21 113.29 337.15 113.29 332.64 128.9 323.7"/><polygon id="Path-90" data-name="Path" class="cls-5" points="135.42 334.35 123.17 327.65 138.78 318.71 151.03 325.41 135.42 334.35"/><polygon class="cls-5" points="151.03 325.41 151.03 329.92 135.42 338.86 135.42 334.35 151.03 325.41"/><polygon class="cls-7" points="123.17 327.65 123.17 332.16 135.42 338.86 135.42 334.35 123.17 327.65"/><polygon class="cls-7" points="135.43 334.41 131.94 332.41 131.94 312.7 147.55 303.76 135.43 334.41"/><polygon class="cls-5" points="151.03 325.37 135.43 334.41 135.43 311.59 151.03 302.65 151.03 325.37"/><polygon id="Path-91" data-name="Path" class="cls-7" points="144.14 319.63 131.89 312.92 147.5 303.98 159.76 310.69 144.14 319.63"/><polygon id="Path-92" data-name="Path" class="cls-7" points="144.14 315.12 131.89 308.41 147.5 299.47 159.76 306.17 144.14 315.12"/><polygon class="cls-7" points="131.89 308.41 140.67 308.41 139.34 314.51 131.89 312.92 131.89 308.41"/><polygon class="cls-5" points="159.76 306.17 159.76 310.69 144.14 319.63 144.14 315.12 159.76 306.17"/><polygon id="Path-93" data-name="Path" class="cls-5" points="163.24 317.83 150.98 311.13 166.6 302.19 178.85 308.89 163.24 317.83"/><polygon class="cls-5" points="178.85 308.89 178.85 313.4 163.24 322.34 163.24 317.83 178.85 308.89"/><polygon class="cls-7" points="150.98 311.13 150.98 315.64 163.24 322.34 163.24 317.83 150.98 311.13"/><polygon class="cls-7" points="163.25 317.89 159.76 315.89 159.76 296.19 175.37 287.24 163.25 317.89"/><polygon class="cls-5" points="178.85 308.85 163.25 317.89 163.25 295.07 178.85 286.13 178.85 308.85"/><polygon id="Path-94" data-name="Path" class="cls-7" points="171.96 303.11 159.71 296.4 175.32 287.46 187.57 294.17 171.96 303.11"/><polygon id="Path-95" data-name="Path" class="cls-7" points="171.96 298.6 159.71 291.89 175.32 282.95 187.57 289.65 171.96 298.6"/><polygon class="cls-7" points="159.71 291.89 168.49 291.89 167.16 297.99 159.71 296.4 159.71 291.89"/><polygon class="cls-5" points="187.57 289.65 187.57 294.17 171.96 303.11 171.96 298.6 187.57 289.65"/><polygon id="Path-96" data-name="Path" class="cls-5" points="75.78 368.52 63.52 361.81 79.14 352.87 91.39 359.58 75.78 368.52"/><polygon class="cls-5" points="91.39 359.58 91.39 364.09 75.78 373.03 75.78 368.52 91.39 359.58"/><polygon class="cls-7" points="75.79 368.57 72.3 366.58 72.3 346.87 87.91 337.93 75.79 368.57"/><polygon class="cls-5" points="91.39 359.54 75.79 368.57 75.79 345.75 91.39 336.81 91.39 359.54"/><polygon id="Path-97" data-name="Path" class="cls-7" points="84.5 353.79 72.25 347.09 87.86 338.15 100.11 344.85 84.5 353.79"/><polygon id="Path-98" data-name="Path" class="cls-7" points="84.5 349.28 72.25 342.58 87.86 333.64 100.11 340.34 84.5 349.28"/><polygon class="cls-7" points="72.25 342.58 81.03 342.58 79.7 348.68 72.25 347.09 72.25 342.58"/><polygon class="cls-5" points="100.11 340.34 100.11 344.85 84.5 353.79 84.5 349.28 100.11 340.34"/><polygon class="cls-2" points="188.38 277.96 263.42 321.74 263.42 342.08 188.38 298.41 188.38 277.96"/><path id="Path-99" data-name="Path" class="cls-2" d="M147.63,415.91l-74-42.42a1,1,0,0,1,0-1.69l114.77-73.39,75,43.67Z"/><polygon class="cls-8" points="170.56 423.82 167.07 421.82 167.07 402.12 182.68 393.17 170.56 423.82"/><polygon id="Path-100" data-name="Path" class="cls-8" points="170.55 405.51 158.29 398.8 173.91 389.86 186.16 396.57 170.55 405.51"/><polygon class="cls-7" points="186.16 414.78 170.56 423.82 170.56 401 186.16 392.06 186.16 414.78"/><polygon class="cls-8" points="158.29 394.29 167.07 394.29 165.74 400.39 158.29 398.8 158.29 394.29"/><polygon id="Path-101" data-name="Path" class="cls-7" points="182.81 430.5 170.56 423.79 186.17 414.85 198.43 421.56 182.81 430.5"/><polygon id="Path-102" data-name="Path" class="cls-7" points="170.55 401 158.29 394.29 173.91 385.35 186.16 392.06 170.55 401"/><polygon id="Path-103" data-name="Path" class="cls-5" points="182.81 425.99 170.56 419.28 186.17 410.34 198.43 417.04 182.81 425.99"/><polygon class="cls-8" points="198.43 417.04 198.43 421.56 182.81 430.5 182.81 425.99 198.43 417.04"/><polygon class="cls-8" points="170.56 419.28 170.56 423.79 182.81 430.5 182.81 425.99 170.56 419.28"/><polygon class="cls-8" points="186.18 378.43 194.96 378.43 193.63 384.53 186.18 382.94 186.18 378.43"/><polygon class="cls-8" points="198.44 407.95 194.96 405.96 194.96 386.25 210.56 377.31 198.44 407.95"/><polygon id="Path-104" data-name="Path" class="cls-8" points="198.43 389.64 186.18 382.94 201.79 374 214.05 380.7 198.43 389.64"/><polygon id="Path-105" data-name="Path" class="cls-7" points="198.43 385.13 186.18 378.43 201.79 369.49 214.05 376.19 198.43 385.13"/><polygon class="cls-7" points="214.05 398.91 198.44 407.95 198.44 385.13 214.05 376.19 214.05 398.91"/><polygon id="Path-106" data-name="Path" class="cls-7" points="210.7 414.63 198.44 407.92 214.06 398.98 226.31 405.69 210.7 414.63"/><polygon id="Path-107" data-name="Path" class="cls-5" points="210.7 410.12 198.44 403.41 214.06 394.47 226.31 401.18 210.7 410.12"/><polygon class="cls-8" points="226.31 401.18 226.31 405.69 210.7 414.63 210.7 410.12 226.31 401.18"/><polygon class="cls-8" points="198.44 403.41 198.44 407.92 210.7 414.63 210.7 410.12 198.44 403.41"/><polygon class="cls-8" points="212.38 363.79 221.16 363.79 219.83 369.89 212.38 368.3 212.38 363.79"/><polygon class="cls-8" points="224.64 393.31 221.16 391.32 221.16 371.61 236.76 362.67 224.64 393.31"/><polygon id="Path-108" data-name="Path" class="cls-8" points="224.63 375 212.38 368.3 227.99 359.36 240.25 366.06 224.63 375"/><polygon id="Path-109" data-name="Path" class="cls-7" points="224.63 370.49 212.38 363.79 227.99 354.85 240.25 361.55 224.63 370.49"/><polygon class="cls-7" points="240.25 384.27 224.64 393.31 224.64 370.49 240.25 361.55 240.25 384.27"/><polygon id="Path-110" data-name="Path" class="cls-7" points="236.9 399.99 224.64 393.28 240.26 384.34 252.51 391.05 236.9 399.99"/><polygon id="Path-111" data-name="Path" class="cls-5" points="236.9 395.48 224.64 388.77 240.26 379.83 252.51 386.54 236.9 395.48"/><polygon class="cls-8" points="252.51 386.54 252.51 391.05 236.9 399.99 236.9 395.48 252.51 386.54"/><polygon class="cls-8" points="224.64 388.77 224.64 393.28 236.9 399.99 236.9 395.48 224.64 388.77"/><polygon class="cls-8" points="239.03 349.15 247.81 349.15 246.49 355.25 239.03 353.66 239.03 349.15"/><polygon class="cls-8" points="251.3 378.67 247.81 376.68 247.81 356.97 263.42 348.03 251.3 378.67"/><polygon id="Path-112" data-name="Path" class="cls-8" points="251.29 360.37 239.03 353.66 254.65 344.72 266.9 351.43 251.29 360.37"/><polygon id="Path-113" data-name="Path" class="cls-7" points="251.29 355.86 239.03 349.15 254.65 340.21 266.9 346.91 251.29 355.86"/><polygon class="cls-7" points="266.9 369.64 251.3 378.67 251.3 355.86 266.9 346.91 266.9 369.64"/><polygon id="Path-114" data-name="Path" class="cls-7" points="263.56 385.35 251.3 378.65 266.91 369.71 279.17 376.41 263.56 385.35"/><polygon id="Path-115" data-name="Path" class="cls-5" points="263.56 380.84 251.3 374.14 266.91 365.19 279.17 371.9 263.56 380.84"/><polygon class="cls-8" points="279.17 371.9 279.17 376.41 263.56 385.35 263.56 380.84 279.17 371.9"/><polygon class="cls-8" points="251.3 374.14 251.3 378.65 263.56 385.35 263.56 380.84 251.3 374.14"/><path class="cls-7" d="M72.36,352.41l116-74.45v20.45L73.57,371.52a.79.79,0,0,1-1.21-.67Z"/><path class="cls-2" d="M147.63,415.91V395.47L72.36,352.41v17.82a4.63,4.63,0,0,0,2.35,4Z"/><path id="Path-116" data-name="Path" class="cls-7" d="M142.25,392.24,75.3,353.44a5.91,5.91,0,0,1,0-10.22L183,281a10.75,10.75,0,0,1,10.76,0l66.95,38.8a5.91,5.91,0,0,1,0,10.22L153,392.25A10.74,10.74,0,0,1,142.25,392.24Z"/><path class="cls-7" d="M147.64,394.06a11.09,11.09,0,0,1-5.58-1.49l-66.94-38.8a6.28,6.28,0,0,1,0-10.87l107.69-62.25a11.14,11.14,0,0,1,11.14,0l66.95,38.8a6.27,6.27,0,0,1,0,10.86L153.2,392.58A11.11,11.11,0,0,1,147.64,394.06Z"/><path class="cls-4" d="M147.64,394.42a11.53,11.53,0,0,1-5.76-1.54l-66.94-38.8a6.64,6.64,0,0,1,0-11.49l107.69-62.25a11.52,11.52,0,0,1,11.5,0l66.95,38.81a6.64,6.64,0,0,1,0,11.49L153.38,392.89A11.5,11.5,0,0,1,147.64,394.42Zm40.73-114.9A10.74,10.74,0,0,0,183,281L75.3,343.21a5.93,5.93,0,0,0,0,10.25l66.94,38.8a11,11,0,0,0,10.78,0L260.71,330a5.91,5.91,0,0,0,0-10.24l-67-38.8A10.7,10.7,0,0,0,188.37,279.52Z"/><g class="cls-9"><g class="cls-10"><g class="cls-11"><path class="cls-4" d="M139.6,327.9h0c-.62.35-.34.77,0,1.13l4.16,4h0l-7.36-2.14a2.55,2.55,0,0,0-2,0l0,0c-.41.23-.12.72.37,1l8.79,5.47,1.38-.8-6.26-3.79h0l6.72,2a2.66,2.66,0,0,0,1.74,0h0c.42-.24.31-.63-.06-1l-3.94-3.7h0l7.1,3.36,1.38-.79-10.07-4.59a2.68,2.68,0,0,0-2-.23"/><polyline class="cls-4" points="145.63 327.27 144.35 328.02 152.37 332.3 153.66 331.55 145.63 327.27"/><polyline class="cls-4" points="175.98 309.62 174.69 310.36 182.73 314.64 184.01 313.89 175.98 309.62"/><path class="cls-4" d="M150.07,324.59l-.77.45-1.37.8c-1.05.61-1.12,1.26,1.22,2.52l2.4,1.28c2.31,1.22,3.48,1.18,4.53.6l.06,0,2.09-1.23c1.17-.68.48-1.06-.88-1.78l-3.1,1.8h0c-.54.3-1.1.13-2.25-.48l-.86-.46c-1-.53-1.47-.89-.85-1.24l3-1.75c-1.85-1-2.23-1-3.21-.49"/><path class="cls-4" d="M157.12,325l-2-1,2-1.18,0,0c.36-.2.67-.21,1.36.16l.27.14c.57.3.72.51.4.7L157.12,325m-1.36-3.61,0,0L152,323.56l8,4.28,1.15-.68-2.08-1.11,2-1.18h0c.36-.2.75-.12,1.59.32l1,.52,1.17-.68-1.36-.73c-1.33-.7-1.94-.7-2.42-.57l0,0c.27-.45-.25-.85-1.33-1.43l-.51-.27c-1.42-.76-2.59-1.12-3.49-.62"/><path class="cls-4" d="M165.46,322.48c-.54.3-1.09.13-2.24-.49l-.86-.46c-1-.53-1.49-.92-.88-1.28l1.37-.79h0c.61-.34,1.32-.09,2.31.44l.87.46c1.16.62,1.49.92.93,1.25l-1.49.86,0,0m-4.37-4.3-.06,0-1.87,1.09c-1,.61-1.12,1.27,1.23,2.52l2.4,1.28c2.3,1.23,3.48,1.18,4.52.61l.06,0,1.87-1.1c1-.61,1.12-1.27-1.23-2.52l-2.4-1.27c-2.3-1.23-3.48-1.19-4.52-.61"/><polyline class="cls-4" points="173.87 310.84 172.7 311.52 175.57 313.05 173.1 314.47 170.25 312.95 169.08 313.63 177.11 317.91 178.27 317.23 175.24 315.61 177.7 314.18 180.74 315.8 181.9 315.12 173.87 310.84"/><path class="cls-4" d="M181.92,310.63l-2-1.07,2.13-1.24h0c.35-.2.78-.1,1.32.18l.31.17c.48.25.75.51.48.67l-2.24,1.3m-1.53-3.57,0,0-3.62,2.1,8,4.27,1.17-.67-2-1.08,2.75-1.6c.83-.48-.31-1.35-1.51-2l-.59-.32-.16-.08c-1.53-.81-2.93-1.26-4-.65"/><path class="cls-4" d="M167.16,314.66l-.76.44-1.37.8c-1.05.61-1.13,1.27,1.23,2.53l2.39,1.27c2.3,1.22,3.48,1.19,4.51.62l.08-.05,2.1-1.22c1.17-.68.47-1.07-.88-1.79l-3.1,1.81h0c-.54.3-1.1.13-2.25-.49l-.87-.46c-1-.53-1.46-.88-.86-1.24l3-1.74c-1.86-1-2.23-1-3.22-.49"/><path class="cls-4" d="M136.8,344.68c-.43.24-1.54-.05-1.54-.05l-13-2.48-1.37-2.2c-.26-.42-.19-.65,0-.77a2.59,2.59,0,0,1,1.41,0c4.5.85,13,2.5,13,2.5s1.38,2.13,1.5,2.33c.22.38.16.59,0,.7m-17.2-9.24-.16.09c-4.28,2.49-3,7,2.77,10.12a21.09,21.09,0,0,0,3,1.3L123,343.3l4.87.92s1.19.13,1.58.72c0,0,1.81,3,2,3.31a16.42,16.42,0,0,0,8.94-1.42l.15-.09c2.09-1.21,2.86-2.91,2.43-4.69l-15.37-2.95s-.75-1.23-1.36-2.2c-.26-.42-.19-.65,0-.77a2.66,2.66,0,0,1,1.43,0l13,2.49a14.44,14.44,0,0,0-1.56-1.18l-16.88-3a11.08,11.08,0,0,0-2.56,1"/></g><path class="cls-12" d="M184.22,337.45l-.06,0a1.38,1.38,0,0,0-.36.29.78.78,0,0,0-.14.33.6.6,0,0,0,0,.32.64.64,0,0,0,.16.29,2.36,2.36,0,0,0,.24.14l.21.12a5,5,0,0,0,.77.32,4.52,4.52,0,0,0,.87.19,3.1,3.1,0,0,0,.86,0,1.8,1.8,0,0,0,.7-.22l.05,0a.83.83,0,0,0,.36-.36.56.56,0,0,0,0-.42,1.1,1.1,0,0,0-.28-.43,2.3,2.3,0,0,0-.57-.4,3.75,3.75,0,0,0-1.54-.48,2.41,2.41,0,0,0-1.31.3m9.53-5.4a1.1,1.1,0,0,0,.07.95,1.53,1.53,0,0,0,.66.62,2.44,2.44,0,0,0,.62.25,2.54,2.54,0,0,0,.67.11,2.23,2.23,0,0,0,.68-.05,1.94,1.94,0,0,0,.57-.2l0,0a1,1,0,0,0,.36-.31.59.59,0,0,0,.11-.36.78.78,0,0,0-.19-.39,2,2,0,0,0-.53-.38,2.26,2.26,0,0,0-.7-.25,3.75,3.75,0,0,0-.75-.09,7.09,7.09,0,0,0-.79,0l-.82.09M189,333.33l.74,3a5.79,5.79,0,0,0,1.45.32,1.89,1.89,0,0,0,1.07-.19l0,0c.46-.27.52-.61.16-1a8.48,8.48,0,0,0-2.25-1.52q-.6-.33-1.2-.6m-31.55,16.51-.09.06,2.94,2.49,1.75-1-4.6-1.54m28.11-17h0c-.48.28-.53.62-.16,1a9.12,9.12,0,0,0,2.25,1.52l.56.29.55.25-.72-3a5.24,5.24,0,0,0-1.39-.29,1.83,1.83,0,0,0-1.06.21m4.79-2.79a.92.92,0,0,0-.35.32.42.42,0,0,0-.06.34.68.68,0,0,0,.18.33,1.12,1.12,0,0,0,.35.27,2.3,2.3,0,0,0,.68.24,4.17,4.17,0,0,0,.72.09l.76,0,.79-.1a1.39,1.39,0,0,0-.17-.8,1.58,1.58,0,0,0-.67-.59,2.22,2.22,0,0,0-.59-.22,2.61,2.61,0,0,0-.6-.08,2,2,0,0,0-.57.06,1.71,1.71,0,0,0-.47.17M162,354.82l-6.16-5.36.78-.46,9.91,3.19-.69.4-2.75-.88L160.92,353l1.71,1.48-.66.39m-1-6.05-2.09-1.12,4.15-2.41,2.09,1.12-.59.34-1.25-.67-1.15.68,6.33,3.37.88-.51.84.45-2.41,1.4L167,351l.87-.51-6.33-3.37-1.15.67,1.26.66-.6.35m11.26.06-8-4.27,3.27-1.91.84.45-2.61,1.52,2.63,1.41,2.41-1.41.85.45-2.41,1.41,2.85,1.52,2.66-1.55.85.45-3.31,1.93m6.85-3.83a3.5,3.5,0,0,1-1.13.38,5.23,5.23,0,0,1-1.49,0,8.9,8.9,0,0,1-1.77-.41,12.83,12.83,0,0,1-2-.89A8.65,8.65,0,0,1,171,343a2.57,2.57,0,0,1-.77-1,.93.93,0,0,1,0-.83,1.76,1.76,0,0,1,.69-.66l.14-.08.36-.18.43-.16a2,2,0,0,1,.4-.08l.42,0h0l1.81,1-.59.34-1.23-.66a2.75,2.75,0,0,0-.41.11,2.84,2.84,0,0,0-.36.17l-.08,0a1.18,1.18,0,0,0-.47.47.71.71,0,0,0,0,.62,2.27,2.27,0,0,0,.63.77,6.92,6.92,0,0,0,1.4.91,9.7,9.7,0,0,0,1.58.7,6.77,6.77,0,0,0,1.39.33,4.33,4.33,0,0,0,1.19,0,3,3,0,0,0,.9-.3l.05,0a1.29,1.29,0,0,0,.33-.25.89.89,0,0,0,.19-.27l-1.14-.61.59-.34,1.54.82h0a1,1,0,0,1-.17.59,1.94,1.94,0,0,1-.71.61l0,0m4.75-2.77a3.56,3.56,0,0,1-1.1.37,5.56,5.56,0,0,1-1.48,0,8.6,8.6,0,0,1-1.77-.41,13.41,13.41,0,0,1-2.05-.89,9.51,9.51,0,0,1-1.71-1.13,2.75,2.75,0,0,1-.77-1,1,1,0,0,1,0-.83,1.7,1.7,0,0,1,.69-.66c.19-.1.35-.19.51-.26l.42-.16a3,3,0,0,1,.41-.08l.4,0h0l1.81,1-.59.35-1.22-.66-.42.11a2.88,2.88,0,0,0-.44.21,1.24,1.24,0,0,0-.47.47.68.68,0,0,0,0,.62,2.15,2.15,0,0,0,.63.77,7,7,0,0,0,1.4.92,9.9,9.9,0,0,0,1.58.68,6.23,6.23,0,0,0,1.39.34,3.94,3.94,0,0,0,1.19,0,2.86,2.86,0,0,0,.91-.29l0,0a1.58,1.58,0,0,0,.34-.25,1.06,1.06,0,0,0,.18-.27l-1.15-.61.59-.34,1.56.82h0a.91.91,0,0,1-.16.59,2.13,2.13,0,0,1-.71.61l-.08,0m4.38-2.55a2.93,2.93,0,0,1-.93.33,4.88,4.88,0,0,1-1.16.06,5.56,5.56,0,0,1-1.28-.25,6.26,6.26,0,0,1-1.32-.55,9.42,9.42,0,0,1-1.82-1.21,4.6,4.6,0,0,1-1.08-1.26,1.84,1.84,0,0,1-.26-1.19,1.59,1.59,0,0,1,.65-1l.85.33a1.41,1.41,0,0,0-.5.76,1.52,1.52,0,0,0,.1.86,2.89,2.89,0,0,0,.59.88,4.82,4.82,0,0,0,1,.79.66.66,0,0,1-.12-.27.62.62,0,0,1,0-.33,1.37,1.37,0,0,1,.18-.33,1.54,1.54,0,0,1,.38-.31l.05,0a2.91,2.91,0,0,1,.87-.31,4,4,0,0,1,1.05-.09,4.9,4.9,0,0,1,1.09.19,5.21,5.21,0,0,1,1.07.43,3.74,3.74,0,0,1,.84.58,1.71,1.71,0,0,1,.44.65.82.82,0,0,1,0,.65,1.36,1.36,0,0,1-.6.59l-.05,0m4.77-2.77a2.91,2.91,0,0,1-1.16.34,5.31,5.31,0,0,1-1.46-.1,9.18,9.18,0,0,1-1.66-.51,16.36,16.36,0,0,1-1.78-.83,13.09,13.09,0,0,1-1.63-1,4.18,4.18,0,0,1-1-.91.9.9,0,0,1-.2-.78,1.08,1.08,0,0,1,.59-.66l0,0a2.88,2.88,0,0,1,1.14-.36,4.53,4.53,0,0,1,1.4.08,8.64,8.64,0,0,1,1.64.5,19.19,19.19,0,0,1,1.88.88,14.18,14.18,0,0,1,1.62,1,4.48,4.48,0,0,1,1,.91,1,1,0,0,1,.2.78,1.11,1.11,0,0,1-.59.66l0,0m7.21-4.34-6.17-5.36.78-.46,9.91,3.19-.69.4-2.75-.88-2.14,1.24,1.72,1.48-.66.39m-2.5,1.6a3,3,0,0,1-.86.31,4.31,4.31,0,0,1-1,.08,4.19,4.19,0,0,1-1-.17,4.81,4.81,0,0,1-.9-.35c-.93-.5-1.29-1.12-1.07-1.88l-.77.06a4.54,4.54,0,0,1-.74,0,4,4,0,0,1-.75-.16,3.82,3.82,0,0,1-.77-.32,2.58,2.58,0,0,1-.67-.49,1,1,0,0,1-.29-.53.78.78,0,0,1,.13-.54,1.49,1.49,0,0,1,.55-.49l0,0a3.13,3.13,0,0,1,.76-.28,4.26,4.26,0,0,1,.89-.09,3.48,3.48,0,0,1,.9.12,3.32,3.32,0,0,1,.82.31,2.92,2.92,0,0,1,1,.77,1.33,1.33,0,0,1,.27,1c.26,0,.53-.05.79-.06a5.17,5.17,0,0,1,.79,0,4.22,4.22,0,0,1,.77.16,4.28,4.28,0,0,1,.78.32,3.25,3.25,0,0,1,.78.55,1.14,1.14,0,0,1,.36.59.77.77,0,0,1-.11.58,1.64,1.64,0,0,1-.62.56l-.06,0m.31-16.25,0,0-59.07,34.36c-1.48.86-1,2.49,1.18,3.63L155.3,364c2.1,1.12,5,1.35,6.51.52l0,0,59.07-34.36c1.49-.86,1-2.49-1.17-3.62l-15.19-8.09c-2.11-1.13-5-1.36-6.52-.53"/><path class="cls-4" d="M160.3,352.39l-2.94-2.49.09-.06,4.6,1.54-1.75,1M156.59,349l-.78.46,6.16,5.36.66-.39L160.92,353l2.14-1.24,2.75.88.69-.4L156.59,349"/><polyline class="cls-4" points="163.07 345.24 158.92 347.65 161.01 348.77 161.61 348.42 160.35 347.76 161.5 347.09 167.83 350.46 166.96 350.97 167.81 351.42 170.22 350.02 169.38 349.57 168.5 350.08 162.16 346.71 163.32 346.03 164.57 346.7 165.16 346.36 163.07 345.24"/><polyline class="cls-4" points="167.51 342.65 164.24 344.56 172.27 348.83 175.58 346.9 174.73 346.45 172.07 348 169.22 346.48 171.63 345.07 170.78 344.62 168.37 346.03 165.74 344.62 168.35 343.1 167.51 342.65"/><path class="cls-4" d="M171.08,340.42l-.14.08a1.76,1.76,0,0,0-.69.66.93.93,0,0,0,0,.83,2.57,2.57,0,0,0,.77,1,8.65,8.65,0,0,0,1.72,1.13,12.83,12.83,0,0,0,2,.89,8.9,8.9,0,0,0,1.77.41,5.23,5.23,0,0,0,1.49,0,3.5,3.5,0,0,0,1.13-.38l0,0a1.94,1.94,0,0,0,.71-.61,1,1,0,0,0,.17-.59h0l-1.54-.82-.59.34,1.14.61a.89.89,0,0,1-.19.27,1.29,1.29,0,0,1-.33.25l-.05,0a3,3,0,0,1-.9.3,4.33,4.33,0,0,1-1.19,0,6.77,6.77,0,0,1-1.39-.33,9.7,9.7,0,0,1-1.58-.7,6.92,6.92,0,0,1-1.4-.91,2.27,2.27,0,0,1-.63-.77.71.71,0,0,1,0-.62,1.18,1.18,0,0,1,.47-.47l.08,0a2.84,2.84,0,0,1,.36-.17,2.75,2.75,0,0,1,.41-.11l1.23.66.59-.34-1.81-1h0l-.42,0a2,2,0,0,0-.4.08l-.43.16-.36.18"/><path class="cls-4" d="M175.72,337.72a1.7,1.7,0,0,0-.69.66,1,1,0,0,0,0,.83,2.75,2.75,0,0,0,.77,1,9.51,9.51,0,0,0,1.71,1.13,13.41,13.41,0,0,0,2.05.89,8.6,8.6,0,0,0,1.77.41,5.56,5.56,0,0,0,1.48,0,3.56,3.56,0,0,0,1.1-.37l.08,0a2.13,2.13,0,0,0,.71-.61.91.91,0,0,0,.16-.59h0l-1.56-.82-.59.34,1.15.61a1.06,1.06,0,0,1-.18.27,1.58,1.58,0,0,1-.34.25l0,0a2.86,2.86,0,0,1-.91.29,3.94,3.94,0,0,1-1.19,0,6.23,6.23,0,0,1-1.39-.34,9.9,9.9,0,0,1-1.58-.68,7,7,0,0,1-1.4-.92,2.15,2.15,0,0,1-.63-.77.68.68,0,0,1,0-.62,1.24,1.24,0,0,1,.47-.47,2.88,2.88,0,0,1,.44-.21l.42-.11,1.22.66.59-.35-1.81-1h0l-.4,0a3,3,0,0,0-.41.08l-.42.16c-.16.07-.32.16-.51.26"/><path class="cls-4" d="M187.5,339.26a1.8,1.8,0,0,1-.7.22,3.1,3.1,0,0,1-.86,0,4.52,4.52,0,0,1-.87-.19,5,5,0,0,1-.77-.32l-.21-.12a2.36,2.36,0,0,1-.24-.14.64.64,0,0,1-.16-.29.6.6,0,0,1,0-.32.78.78,0,0,1,.14-.33,1.38,1.38,0,0,1,.36-.29l.06,0a2.41,2.41,0,0,1,1.31-.3,3.75,3.75,0,0,1,1.54.48,2.3,2.3,0,0,1,.57.4,1.1,1.1,0,0,1,.28.43.56.56,0,0,1,0,.42.83.83,0,0,1-.36.36l-.05,0m-6.45-4.64a1.59,1.59,0,0,0-.65,1,1.84,1.84,0,0,0,.26,1.19,4.6,4.6,0,0,0,1.08,1.26,9.42,9.42,0,0,0,1.82,1.21,6.26,6.26,0,0,0,1.32.55,5.56,5.56,0,0,0,1.28.25,4.88,4.88,0,0,0,1.16-.06,2.93,2.93,0,0,0,.93-.33l.05,0a1.36,1.36,0,0,0,.6-.59.82.82,0,0,0,0-.65,1.71,1.71,0,0,0-.44-.65,3.74,3.74,0,0,0-.84-.58,5.21,5.21,0,0,0-1.07-.43,4.9,4.9,0,0,0-1.09-.19,4,4,0,0,0-1.05.09,2.91,2.91,0,0,0-.87.31l-.05,0a1.54,1.54,0,0,0-.38.31,1.37,1.37,0,0,0-.18.33.62.62,0,0,0,0,.33.66.66,0,0,0,.12.27,4.82,4.82,0,0,1-1-.79,2.89,2.89,0,0,1-.59-.88,1.52,1.52,0,0,1-.1-.86,1.41,1.41,0,0,1,.5-.76l-.85-.33"/><path class="cls-4" d="M192.26,336.5a1.89,1.89,0,0,1-1.07.19,5.79,5.79,0,0,1-1.45-.32l-.74-3q.6.27,1.2.6a8.48,8.48,0,0,1,2.25,1.52c.36.42.3.76-.16,1l0,0m-3.53-.53-.55-.25-.56-.29a9.12,9.12,0,0,1-2.25-1.52c-.37-.42-.32-.76.16-1h0a1.83,1.83,0,0,1,1.06-.21,5.24,5.24,0,0,1,1.39.29l.72,3m-3.92-3.53,0,0a1.08,1.08,0,0,0-.59.66.9.9,0,0,0,.2.78,4.18,4.18,0,0,0,1,.91,13.09,13.09,0,0,0,1.63,1,16.36,16.36,0,0,0,1.78.83,9.18,9.18,0,0,0,1.66.51,5.31,5.31,0,0,0,1.46.1,2.91,2.91,0,0,0,1.16-.34l0,0a1.11,1.11,0,0,0,.59-.66,1,1,0,0,0-.2-.78,4.48,4.48,0,0,0-1-.91,14.18,14.18,0,0,0-1.62-1,19.19,19.19,0,0,0-1.88-.88,8.64,8.64,0,0,0-1.64-.5,4.53,4.53,0,0,0-1.4-.08,2.88,2.88,0,0,0-1.14.36"/><path class="cls-4" d="M197,333.73a1.94,1.94,0,0,1-.57.2,2.23,2.23,0,0,1-.68.05,2.54,2.54,0,0,1-.67-.11,2.44,2.44,0,0,1-.62-.25,1.53,1.53,0,0,1-.66-.62,1.1,1.1,0,0,1-.07-.95l.82-.09a7.09,7.09,0,0,1,.79,0,3.75,3.75,0,0,1,.75.09,2.26,2.26,0,0,1,.7.25,2,2,0,0,1,.53.38.78.78,0,0,1,.19.39.59.59,0,0,1-.11.36,1,1,0,0,1-.36.31l0,0m-3.6-2.2-.79.1-.76,0a4.17,4.17,0,0,1-.72-.09,2.3,2.3,0,0,1-.68-.24,1.12,1.12,0,0,1-.35-.27.68.68,0,0,1-.18-.33.42.42,0,0,1,.06-.34.92.92,0,0,1,.35-.32,1.71,1.71,0,0,1,.47-.17,2,2,0,0,1,.57-.06,2.61,2.61,0,0,1,.6.08,2.22,2.22,0,0,1,.59.22,1.58,1.58,0,0,1,.67.59,1.39,1.39,0,0,1,.17.8m-3.78-1.91,0,0a1.49,1.49,0,0,0-.55.49.78.78,0,0,0-.13.54,1,1,0,0,0,.29.53,2.58,2.58,0,0,0,.67.49,3.82,3.82,0,0,0,.77.32,4,4,0,0,0,.75.16,4.54,4.54,0,0,0,.74,0l.77-.06c-.22.76.14,1.38,1.07,1.88a4.81,4.81,0,0,0,.9.35,4.19,4.19,0,0,0,1,.17,4.31,4.31,0,0,0,1-.08,3,3,0,0,0,.86-.31l.06,0a1.64,1.64,0,0,0,.62-.56.77.77,0,0,0,.11-.58,1.14,1.14,0,0,0-.36-.59,3.25,3.25,0,0,0-.78-.55,4.28,4.28,0,0,0-.78-.32,4.22,4.22,0,0,0-.77-.16,5.17,5.17,0,0,0-.79,0c-.26,0-.53,0-.79.06a1.33,1.33,0,0,0-.27-1,2.92,2.92,0,0,0-1-.77,3.32,3.32,0,0,0-.82-.31,3.48,3.48,0,0,0-.9-.12,4.26,4.26,0,0,0-.89.09,3.13,3.13,0,0,0-.76.28"/><polyline class="cls-12" points="195.71 327.59 195.61 327.65 198.55 330.14 200.3 329.13 195.71 327.59"/><path class="cls-4" d="M198.55,330.14l-2.94-2.49.1-.06,4.59,1.54-1.75,1m-3.71-3.39-.78.46,6.17,5.36.66-.39-1.72-1.48,2.14-1.24,2.75.88.69-.4-9.91-3.19"/></g></g><g id="_-_-Ockam.io" data-name=" - -Ockam.io"><g id="img-hero"><ellipse id="Oval" class="cls-13" cx="387.38" cy="276.91" rx="1.4" ry="0.88" transform="translate(-4.21 5.98) rotate(-0.88)"/><ellipse id="Oval-2" class="cls-13" cx="372.22" cy="280.38" rx="1.4" ry="0.88" transform="translate(-4.26 5.75) rotate(-0.88)"/><ellipse id="Oval-3" class="cls-13" cx="350.98" cy="303.77" rx="1.4" ry="0.88" transform="translate(-4.62 5.43) rotate(-0.88)"/><ellipse id="Oval-4" class="cls-13" cx="360.08" cy="273.88" rx="1.4" ry="0.88" transform="translate(-4.16 5.56) rotate(-0.88)"/><ellipse id="Oval-5" class="cls-13" cx="378.28" cy="306.81" rx="1.4" ry="0.88" transform="translate(-4.67 5.85) rotate(-0.88)"/><ellipse id="Oval-6" class="cls-13" cx="396.48" cy="293.38" rx="1.4" ry="0.88" transform="translate(-4.46 6.12) rotate(-0.88)"/><ellipse id="Oval-7" class="cls-13" cx="366.14" cy="300.31" rx="1.4" ry="0.88" transform="translate(-4.57 5.66) rotate(-0.88)"/><ellipse id="Oval-8" class="cls-13" cx="357.06" cy="283.84" rx="1.4" ry="0.88" transform="translate(-4.32 5.52) rotate(-0.88)"/><ellipse id="Oval-9" class="cls-13" cx="381.3" cy="296.85" rx="1.4" ry="0.88" transform="translate(-4.51 5.89) rotate(-0.88)"/><ellipse id="Oval-10" class="cls-13" cx="354.01" cy="293.8" rx="1.4" ry="0.88" transform="translate(-4.47 5.47) rotate(-0.88)"/><ellipse id="Oval-11" class="cls-13" cx="384.35" cy="286.89" rx="1.4" ry="0.88" transform="translate(-4.36 5.94) rotate(-0.88)"/><ellipse id="Oval-12" class="cls-13" cx="341.87" cy="287.29" rx="1.4" ry="0.88" transform="translate(-4.37 5.28) rotate(-0.88)"/><path id="Path-117" data-name="Path" class="cls-4" d="M389.48,278c7.72,1.68,11.73,7,8.94,11.91a8.85,8.85,0,0,1-1.37,1.79,3.4,3.4,0,0,1,1.25.36,1.85,1.85,0,0,1,.58.46c5.07-5.08,2.68-11.73-5.31-14.84a23.26,23.26,0,0,0-3.46-1A1.47,1.47,0,0,1,389.48,278Z"/><path id="Path-2-2" data-name="Path-2" class="cls-4" d="M386.44,288a14.59,14.59,0,0,1,8,4.28,3.6,3.6,0,0,1,2-.57c-2-2.39-5.37-4.2-9.46-5.05A1.23,1.23,0,0,1,386.44,288Z"/><path id="Path-3-2" data-name="Path-3" class="cls-4" d="M386.89,282a7.83,7.83,0,0,1-2,3.19,3.4,3.4,0,0,1,1.25.36,2.18,2.18,0,0,1,.56.44c2.34-2.31,3.2-5.1,2.38-7.76a2.93,2.93,0,0,1-.81.3,4.08,4.08,0,0,1-1.35.07,5.88,5.88,0,0,1,0,3.4Z"/><path id="Path-4-2" data-name="Path-4" class="cls-4" d="M383.89,296.26a1.16,1.16,0,0,1-.23,1.42A24.07,24.07,0,0,0,395.51,295a4,4,0,0,1-.81-.3,1.81,1.81,0,0,1-.76-.69,20.69,20.69,0,0,1-10.05,2.26Z"/><path id="Path-5-2" data-name="Path-5" class="cls-4" d="M381.9,295.15a2.84,2.84,0,0,1,1.79.82c2.32-2.32,3.16-5.09,2.38-7.76a4.09,4.09,0,0,1-2.18.37A6.76,6.76,0,0,1,381.9,295.15Z"/><path id="Path-6-2" data-name="Path-6" class="cls-4" d="M396.21,296c.61,5.17-5.57,9.72-13.77,10.18-.53,0-1.05,0-1.57,0a1.08,1.08,0,0,1,.1.86,1.51,1.51,0,0,1-.33.56c.65,0,1.29,0,1.91,0,9.45-.53,16.57-5.77,15.9-11.72h0a8.35,8.35,0,0,0-.24-1.21,4.09,4.09,0,0,1-2.18.37,5.4,5.4,0,0,1,.18,1Z"/><path id="Path-7-2" data-name="Path-7" class="cls-4" d="M383,302.17a6.88,6.88,0,0,0,0-4,3.91,3.91,0,0,1-2.18.37,6.57,6.57,0,0,1-2,6.57,3,3,0,0,1,1.8.82,9.44,9.44,0,0,0,2.35-3.74Z"/><path id="Path-8-2" data-name="Path-8" class="cls-4" d="M367,301.91a4,4,0,0,1-.91.1c2,2.41,5.38,4.21,9.45,5.07a1.24,1.24,0,0,1,.58-1.36,14.6,14.6,0,0,1-8-4.31A2.72,2.72,0,0,1,367,301.91Z"/><path id="Path-9-2" data-name="Path-9" class="cls-4" d="M368.75,299.73a1.19,1.19,0,0,1-.27,1.41,24.14,24.14,0,0,0,11.84-2.7,2.51,2.51,0,0,1-1.56-1,21.11,21.11,0,0,1-10,2.27Z"/><path id="Path-10-2" data-name="Path-10" class="cls-4" d="M353.58,303.21a1.18,1.18,0,0,1-.26,1.41,24.14,24.14,0,0,0,11.84-2.7,2.53,2.53,0,0,1-1.59-1A20.94,20.94,0,0,1,353.58,303.21Z"/><path id="Path-11-2" data-name="Path-11" class="cls-4" d="M375.78,309.16c.54-.24,1.05-.49,1.52-.75a2.39,2.39,0,0,1-1.56-1c-.39.21-.79.41-1.21.59-6.82,3-16.12,2-20.75-2.3h0a10,10,0,0,1-.77-.82,3.52,3.52,0,0,1-2.06.6,10.79,10.79,0,0,0,1,1c5.32,4.87,16,6.07,23.83,2.64Z"/><path id="Path-12-2" data-name="Path-12" class="cls-4" d="M354,295.5c2,2.4,5.37,4.21,9.45,5.08a1.33,1.33,0,0,1,.58-1.36,14.65,14.65,0,0,1-8-4.3,3.66,3.66,0,0,1-2,.58Z"/><path id="Path-13-2" data-name="Path-13" class="cls-4" d="M351.49,298.67a7.77,7.77,0,0,1,2-3.19,3.61,3.61,0,0,1-1.25-.37,2.14,2.14,0,0,1-.56-.43c-2.34,2.3-3.21,5.08-2.38,7.75a3.82,3.82,0,0,1,2.15-.37A5.93,5.93,0,0,1,351.49,298.67Z"/><path id="Path-14-2" data-name="Path-14" class="cls-4" d="M347.27,291a12.1,12.1,0,0,1-3.38-2.62,3.66,3.66,0,0,1-2,.58c2,2.4,5.4,4.21,9.48,5.05a1.3,1.3,0,0,1,.59-1.35,18.37,18.37,0,0,1-4.66-1.66Z"/><path id="Path-15-2" data-name="Path-15" class="cls-4" d="M348.9,302.68c-7.72-1.69-11.73-7-8.94-11.92a8.79,8.79,0,0,1,1.37-1.78,3.61,3.61,0,0,1-1.25-.37,1.74,1.74,0,0,1-.56-.45c-5.07,5.09-2.69,11.72,5.3,14.84a23.42,23.42,0,0,0,3.47,1A1.32,1.32,0,0,1,348.9,302.68Z"/><path id="Path-16-2" data-name="Path-16" class="cls-4" d="M354.48,284.39a1.08,1.08,0,0,1-.1-.86,1.3,1.3,0,0,1,.32-.54,24,24,0,0,0-11.85,2.69,3.31,3.31,0,0,1,.8.28,1.83,1.83,0,0,1,.76.7,20.79,20.79,0,0,1,10.07-2.27Z"/><path id="Path-17-2" data-name="Path-17" class="cls-4" d="M356.49,285.52a2.94,2.94,0,0,1-1.79-.82c-2.32,2.31-3.18,5.09-2.39,7.77a3.86,3.86,0,0,1,2.17-.37A6.77,6.77,0,0,1,356.49,285.52Z"/><path id="Path-18-2" data-name="Path-18" class="cls-4" d="M361.07,272.24a2.49,2.49,0,0,1,1.57,1q.57-.32,1.2-.6c6.82-3,16.12-2,20.73,2.3h0c.27.26.53.53.78.82a3.46,3.46,0,0,1,2-.59,11.92,11.92,0,0,0-1-1c-5.31-4.89-16-6.07-23.84-2.65C362.05,271.74,361.57,272,361.07,272.24Z"/><path id="Path-19-2" data-name="Path-19" class="cls-4" d="M355.35,278.49a6.88,6.88,0,0,0,0,4,4.08,4.08,0,0,1,2.17-.39,6.63,6.63,0,0,1,2-6.57,3,3,0,0,1-1.79-.81,9.19,9.19,0,0,0-2.35,3.75Z"/><path id="Path-20-2" data-name="Path-20" class="cls-4" d="M342.15,284.64c-.58-5.18,5.59-9.74,13.81-10.21h0c.51,0,1,0,1.53,0a1.08,1.08,0,0,1-.11-.86,1.61,1.61,0,0,1,.35-.55c-.63,0-1.29,0-1.92,0-9.45.52-16.55,5.75-15.88,11.7a8.35,8.35,0,0,0,.24,1.21,4,4,0,0,1,2.15-.37c-.07-.31-.13-.62-.17-.94Z"/><path id="Path-21-2" data-name="Path-21" class="cls-4" d="M374.79,279.75a20.7,20.7,0,0,1,10-2.29,1.24,1.24,0,0,1,.24-1.41,24,24,0,0,0-11.81,2.71A2.36,2.36,0,0,1,374.79,279.75Z"/><path id="Path-22-2" data-name="Path-22" class="cls-4" d="M371.34,278.75a4.41,4.41,0,0,1,.89-.09c-2-2.4-5.38-4.21-9.45-5.07a1.14,1.14,0,0,1,0,.58,1.59,1.59,0,0,1-.58.77,14.53,14.53,0,0,1,8,4.32A2.86,2.86,0,0,1,371.34,278.75Z"/><path id="Path-23-2" data-name="Path-23" class="cls-4" d="M384.4,285.16c-2-2.39-5.4-4.19-9.46-5.07a1.33,1.33,0,0,1-.62,1.36,14.67,14.67,0,0,1,8,4.29,3.64,3.64,0,0,1,2.08-.58Z"/><path id="Path-24-2" data-name="Path-24" class="cls-4" d="M369.63,280.91a1.19,1.19,0,0,1,.27-1.4,24.23,24.23,0,0,0-11.85,2.69,2.4,2.4,0,0,1,1.56,1,21.23,21.23,0,0,1,10-2.27Z"/></g></g><g id="Group-2" data-name="Group" class="cls-6"><path id="Path-118" data-name="Path" class="cls-4" d="M324.42,390.08a4.75,4.75,0,0,0,2.43-.66l13-7.57a1,1,0,0,0,.48-.83.94.94,0,0,0-.48-.82l-31.53-18.35a5.47,5.47,0,0,0-5.48,0l-12.74,7.4a1,1,0,0,0,0,1.64L322,389.42A4.75,4.75,0,0,0,324.42,390.08Z"/></g><path id="Path-119" data-name="Path" class="cls-5" d="M303.25,356.11a5.25,5.25,0,0,1,5.28,0L340,374.43a.76.76,0,0,1,0,1.31l-13,7.56a4.62,4.62,0,0,1-4.66,0l-31.81-18.5a.74.74,0,0,1-.37-.65.76.76,0,0,1,.37-.65Z"/><path class="cls-4" d="M324.67,384.29a5,5,0,0,1-2.51-.68l-31.81-18.5a1.1,1.1,0,0,1-.55-1,1.12,1.12,0,0,1,.55-1l12.71-7.39a5.65,5.65,0,0,1,5.65,0l31.5,18.32a1.12,1.12,0,0,1,0,1.93l-13,7.56A5,5,0,0,1,324.67,384.29Zm-18.78-28.53a4.82,4.82,0,0,0-2.46.67h0l-12.72,7.38a.41.41,0,0,0-.19.34.4.4,0,0,0,.2.34l31.8,18.5a4.29,4.29,0,0,0,4.3,0l13-7.57a.4.4,0,0,0,.19-.33.4.4,0,0,0-.19-.34l-31.5-18.32A4.82,4.82,0,0,0,305.89,355.76Zm-2.64.35h0Z"/><path class="cls-5" d="M340,371.07l-31.5-18.32a5.25,5.25,0,0,0-5.28,0l-12.72,7.39a.76.76,0,0,0-.37.65.74.74,0,0,0,.37.65l31.81,18.5a4.62,4.62,0,0,0,4.66,0l13-7.56a.76.76,0,0,0,0-1.31Zm-39.9-9.43,8.07-4.34,8.06,4.34L308.2,366ZM323.65,375l-8.06-4.34,8.06-4.34,8.07,4.34Z"/><path class="cls-4" d="M324.67,380.93a5,5,0,0,1-2.51-.68l-31.81-18.5a1.1,1.1,0,0,1-.55-1,1.12,1.12,0,0,1,.55-1l12.71-7.39a5.65,5.65,0,0,1,5.65,0l31.5,18.32a1.12,1.12,0,0,1,0,1.93l-13,7.56A5,5,0,0,1,324.67,380.93ZM305.89,352.4a4.82,4.82,0,0,0-2.46.67l-12.72,7.38a.41.41,0,0,0-.19.34.4.4,0,0,0,.2.34l31.8,18.5a4.29,4.29,0,0,0,4.3,0l13-7.57a.4.4,0,0,0,.19-.33.41.41,0,0,0-.19-.34h0l-31.5-18.32A4.82,4.82,0,0,0,305.89,352.4Zm17.76,23a.37.37,0,0,1-.17-.05L315.42,371a.34.34,0,0,1-.19-.31.35.35,0,0,1,.19-.32l8.06-4.34a.34.34,0,0,1,.34,0l8.07,4.34a.36.36,0,0,1,0,.63l-8.07,4.34A.34.34,0,0,1,323.65,375.35Zm-7.3-4.7,7.3,3.93,7.31-3.93-7.31-3.94Zm-8.15-4.31a.39.39,0,0,1-.18,0L300,362a.36.36,0,0,1,0-.64L308,357a.36.36,0,0,1,.35,0l8.06,4.34a.36.36,0,0,1,0,.64l-8.06,4.34A.38.38,0,0,1,308.2,366.34Zm-7.31-4.7,7.31,3.93,7.3-3.93-7.3-3.93Z"/><g id="Group-3" data-name="Group" class="cls-6"><path id="Path-120" data-name="Path" class="cls-4" d="M265.33,276.62a4.82,4.82,0,0,1-2.43-.66l-13-7.58a.94.94,0,0,1-.47-.82,1,1,0,0,1,.47-.82l31.54-18.35a5.47,5.47,0,0,1,5.48,0l12.73,7.4a1,1,0,0,1,0,1.64L267.76,276A4.85,4.85,0,0,1,265.33,276.62Z"/></g><path id="Path-121" data-name="Path" class="cls-7" d="M286.5,242.65a5.25,5.25,0,0,0-5.28,0L249.72,261a.77.77,0,0,0-.37.65.74.74,0,0,0,.37.65l13,7.57a4.62,4.62,0,0,0,4.66,0l31.8-18.5a.74.74,0,0,0,.37-.65.76.76,0,0,0-.37-.65Z"/><path class="cls-5" d="M265.08,270.84a4.94,4.94,0,0,1-2.52-.68l-13-7.56a1.13,1.13,0,0,1,0-2L281,242.33a5.62,5.62,0,0,1,5.66,0l12.71,7.39a1.11,1.11,0,0,1,.56,1,1.13,1.13,0,0,1-.56,1l-31.8,18.49A4.94,4.94,0,0,1,265.08,270.84Z"/><path class="cls-4" d="M265.08,271.2a5.43,5.43,0,0,1-2.7-.72l-13-7.57a1.49,1.49,0,0,1,0-2.57L280.85,242a6,6,0,0,1,6,0l12.71,7.39a1.48,1.48,0,0,1,.74,1.28,1.49,1.49,0,0,1-.74,1.29l-31.8,18.5A5.43,5.43,0,0,1,265.08,271.2Zm18.78-29.27a5.22,5.22,0,0,0-2.65.71L249.71,261a.77.77,0,0,0,0,1.33l13,7.56a4.76,4.76,0,0,0,4.68,0l31.8-18.5a.76.76,0,0,0,.38-.66.78.78,0,0,0-.38-.66l-12.71-7.39A5.24,5.24,0,0,0,283.86,241.93Z"/><polygon class="cls-14" points="263.71 185.36 276.16 178.17 276.16 60.54 263.71 67.73 263.71 185.36"/><path class="cls-15" d="M268.52,164.8a2.23,2.23,0,0,0-.64.55,1.2,1.2,0,0,0-.32.73l5.13-3v.21l.12-.07a.81.81,0,0,1,.19-.41,1.42,1.42,0,0,1,.35-.35V162Z"/><path class="cls-16" d="M269,155.78a2.78,2.78,0,0,0-1,1,2.59,2.59,0,0,0-.41,1.3.94.94,0,0,0,.33.79c.27.21.63.19,1.08-.07l2.81-1.63a3.27,3.27,0,0,0,1.15-1.06,2.48,2.48,0,0,0,.42-1.37c0-1-.52-1.23-1.57-.62Zm.43.26,2.05-1.18c.8-.47,1.21-.36,1.21.32a2,2,0,0,1-1.21,1.71l-2.05,1.18a1.08,1.08,0,0,1-.79.2q-.33-.09-.33-.57a1.6,1.6,0,0,1,.33-.93A2.39,2.39,0,0,1,269.4,156Z"/><path class="cls-17" d="M268.52,151.14a2.23,2.23,0,0,0-.64.55,1.2,1.2,0,0,0-.32.73l5.13-2.95v.2l.12-.07a.81.81,0,0,1,.19-.41,1.42,1.42,0,0,1,.35-.35v-.49Z"/><path class="cls-18" d="M269,144.44a2.75,2.75,0,0,0-1,1,2.65,2.65,0,0,0-.41,1.3,1,1,0,0,0,.33.8c.27.21.63.18,1.08-.08l2.81-1.62a3.39,3.39,0,0,0,1.15-1.07,2.48,2.48,0,0,0,.42-1.37c0-1-.52-1.22-1.57-.62Zm.43.25,2.05-1.18c.8-.46,1.21-.36,1.21.32a2,2,0,0,1-1.21,1.72l-2.05,1.18a1.07,1.07,0,0,1-.79.19c-.22-.06-.33-.25-.33-.56a1.63,1.63,0,0,1,.33-.94A2.62,2.62,0,0,1,269.4,144.69Z"/><path class="cls-19" d="M269,138a2.86,2.86,0,0,0-1,1,2.62,2.62,0,0,0-.41,1.3,1,1,0,0,0,.33.8c.27.21.63.18,1.08-.08l2.81-1.62a3.39,3.39,0,0,0,1.15-1.07,2.48,2.48,0,0,0,.42-1.37c0-1-.52-1.22-1.57-.62Zm.43.26,2.05-1.18c.8-.47,1.21-.36,1.21.32a2,2,0,0,1-1.21,1.72l-2.05,1.18a1.12,1.12,0,0,1-.79.19c-.22-.06-.33-.25-.33-.56a1.6,1.6,0,0,1,.33-.94A2.5,2.5,0,0,1,269.4,138.25Z"/><path class="cls-20" d="M268.52,133.93a2.23,2.23,0,0,0-.64.55,1.2,1.2,0,0,0-.32.73l5.13-3v.2l.12-.07A.81.81,0,0,1,273,132a1.42,1.42,0,0,1,.35-.35v-.49Z"/><path class="cls-21" d="M268.52,130.18a2.23,2.23,0,0,0-.64.55,1.2,1.2,0,0,0-.32.73l5.13-3v.2l.12-.07a.81.81,0,0,1,.19-.41,1.42,1.42,0,0,1,.35-.35v-.49Z"/><path class="cls-22" d="M268.52,126.43a2.23,2.23,0,0,0-.64.55,1.2,1.2,0,0,0-.32.73l5.13-2.95v.2l.12-.07a.81.81,0,0,1,.19-.41,1.42,1.42,0,0,1,.35-.35v-.49Z"/><path class="cls-23" d="M268.52,122.68a2.23,2.23,0,0,0-.64.55,1.22,1.22,0,0,0-.32.74l5.13-3v.2l.12-.07a.84.84,0,0,1,.19-.41,1.42,1.42,0,0,1,.35-.35v-.49Z"/><path class="cls-24" d="M268.52,118.93a2.23,2.23,0,0,0-.64.55,1.22,1.22,0,0,0-.32.74l5.13-3v.2l.12-.07A.84.84,0,0,1,273,117a1.63,1.63,0,0,1,.35-.35v-.49Z"/><path class="cls-25" d="M269,112.81a2.75,2.75,0,0,0-1,1,2.65,2.65,0,0,0-.41,1.3,1,1,0,0,0,.33.8c.27.21.63.18,1.08-.08l2.81-1.62a3.39,3.39,0,0,0,1.15-1.07,2.48,2.48,0,0,0,.42-1.37c0-1-.52-1.22-1.57-.62Zm.43.25,2.05-1.18c.8-.46,1.21-.36,1.21.32a2,2,0,0,1-1.21,1.72l-2.05,1.18a1.07,1.07,0,0,1-.79.19c-.22-.06-.33-.25-.33-.56a1.63,1.63,0,0,1,.33-.94A2.62,2.62,0,0,1,269.4,113.06Z"/><path class="cls-26" d="M269,106.94a2.78,2.78,0,0,0-1,1,2.62,2.62,0,0,0-.41,1.3.93.93,0,0,0,.33.79c.27.21.63.19,1.08-.07l2.81-1.63a3.27,3.27,0,0,0,1.15-1.06,2.48,2.48,0,0,0,.42-1.37c0-1-.52-1.23-1.57-.62Zm.43.26,2.05-1.18c.8-.47,1.21-.36,1.21.32a2,2,0,0,1-1.21,1.72l-2.05,1.17a1.08,1.08,0,0,1-.79.2q-.33-.09-.33-.57a1.6,1.6,0,0,1,.33-.93A2.5,2.5,0,0,1,269.4,107.2Z"/><path class="cls-27" d="M269,101.08a2.78,2.78,0,0,0-1,1,2.59,2.59,0,0,0-.41,1.3.94.94,0,0,0,.33.79c.27.21.63.18,1.08-.08l2.81-1.62a3.36,3.36,0,0,0,1.15-1.06,2.48,2.48,0,0,0,.42-1.38c0-1-.52-1.22-1.57-.61Zm.43.25,2.05-1.17c.8-.47,1.21-.36,1.21.31a2,2,0,0,1-1.21,1.72l-2.05,1.18a1.08,1.08,0,0,1-.79.2c-.22-.07-.33-.25-.33-.57a1.65,1.65,0,0,1,.33-.94A2.62,2.62,0,0,1,269.4,101.33Z"/><path class="cls-28" d="M269,95.22a2.75,2.75,0,0,0-1,1,2.65,2.65,0,0,0-.41,1.3,1,1,0,0,0,.33.8c.27.21.63.18,1.08-.08l2.81-1.62a3.29,3.29,0,0,0,1.15-1.07,2.45,2.45,0,0,0,.42-1.37c0-1-.52-1.22-1.57-.62Zm.43.25,2.05-1.18c.8-.46,1.21-.36,1.21.32a2,2,0,0,1-1.21,1.72l-2.05,1.18a1.07,1.07,0,0,1-.79.19c-.22-.06-.33-.25-.33-.56a1.63,1.63,0,0,1,.33-.94A2.62,2.62,0,0,1,269.4,95.47Z"/><path class="cls-29" d="M268.52,91.73a2.23,2.23,0,0,0-.64.55,1.2,1.2,0,0,0-.32.73l5.13-3v.2l.12-.07a.81.81,0,0,1,.19-.41,1.42,1.42,0,0,1,.35-.35v-.49Z"/><path class="cls-30" d="M269,85.6a2.78,2.78,0,0,0-1,1,2.62,2.62,0,0,0-.41,1.3,1,1,0,0,0,.33.8,1,1,0,0,0,1.08-.08L271.78,87A3.39,3.39,0,0,0,272.93,86a2.48,2.48,0,0,0,.42-1.37c0-1-.52-1.22-1.57-.62Zm.43.26,2.05-1.18c.8-.47,1.21-.36,1.21.32a2,2,0,0,1-1.21,1.72l-2.05,1.17a1.08,1.08,0,0,1-.79.2c-.22-.06-.33-.25-.33-.56a1.6,1.6,0,0,1,.33-.94A2.5,2.5,0,0,1,269.4,85.86Z"/><path class="cls-31" d="M268.52,82.11a2.44,2.44,0,0,0-.64.56,1.2,1.2,0,0,0-.32.73l5.13-3v.21l.12-.08a.78.78,0,0,1,.19-.4,1.42,1.42,0,0,1,.35-.35v-.5Z"/><path class="cls-32" d="M269,76a2.78,2.78,0,0,0-1,1,2.59,2.59,0,0,0-.41,1.3.94.94,0,0,0,.33.79c.27.21.63.19,1.08-.08l2.81-1.62a3.36,3.36,0,0,0,1.15-1.06,2.48,2.48,0,0,0,.42-1.38c0-1-.52-1.22-1.57-.61Zm.43.26,2.05-1.18c.8-.47,1.21-.36,1.21.32a2,2,0,0,1-1.21,1.71l-2.05,1.18a1.08,1.08,0,0,1-.79.2q-.33-.09-.33-.57a1.65,1.65,0,0,1,.33-.94A2.47,2.47,0,0,1,269.4,76.25Z"/><path class="cls-33" d="M268.52,72.5a2.4,2.4,0,0,0-.64.55,1.22,1.22,0,0,0-.32.74l5.13-3V71l.12-.08a.84.84,0,0,1,.19-.41,1.35,1.35,0,0,1,.35-.34v-.5Z"/><path class="cls-34" d="M269,66.38a2.78,2.78,0,0,0-1,1,2.58,2.58,0,0,0-.41,1.29,1,1,0,0,0,.33.8c.27.21.63.18,1.08-.08l2.81-1.62a3.36,3.36,0,0,0,1.15-1.06,2.48,2.48,0,0,0,.42-1.38c0-1-.52-1.22-1.57-.61Zm.43.25,2.05-1.18c.8-.46,1.21-.36,1.21.32a2,2,0,0,1-1.21,1.72l-2.05,1.18a1.07,1.07,0,0,1-.79.19c-.22-.06-.33-.24-.33-.56a1.65,1.65,0,0,1,.33-.94A2.62,2.62,0,0,1,269.4,66.63Z"/><path class="cls-35" d="M268.52,62.89a2.23,2.23,0,0,0-.64.55,1.22,1.22,0,0,0-.32.74l5.13-3v.2l.12-.07a.84.84,0,0,1,.19-.41,1.42,1.42,0,0,1,.35-.35V60.1Z"/><path class="cls-36" d="M268.52,59.14a2.4,2.4,0,0,0-.64.55,1.22,1.22,0,0,0-.32.74l5.13-3v.2l.12-.07a.84.84,0,0,1,.19-.41,1.63,1.63,0,0,1,.35-.35v-.49Z"/><path class="cls-8" d="M269,264l-6.95-4a2.67,2.67,0,0,1-1.34-2.31l7.38-72.17,9.8-.22Z"/><path class="cls-5" d="M278.68,183.21l7.23,69.61a2.66,2.66,0,0,1-1.3,2.29l-15.48,9.16,2.49-76.74Z"/><path id="Path-122" data-name="Path" class="cls-7" d="M271.34,187.54l-3.12-1.71a.28.28,0,0,1,0-.49l6.92-4.13a.28.28,0,0,1,.28,0l3.13,1.71a.28.28,0,0,1,0,.48l-6.93,4.13A.28.28,0,0,1,271.34,187.54Z"/><path class="cls-2" d="M334,45.82,306.34,29.76h0c-4.12-2.46-9.86-2.15-16.2,1.51a36,36,0,0,0-6,4.39L273,29.23h0c-6.12-4.3-15-4.11-24.84,1.58-12.47,7.2-23.34,21.36-29.09,36.36a13.52,13.52,0,0,0-6.27,2c-8.14,4.7-14.73,16.12-14.73,25.52,0,.2,0,.39,0,.58a17.78,17.78,0,0,0-7.58,2.54c-10.41,6-18.85,20.62-18.85,32.64,0,6,2.08,10.15,5.44,12.14h0l.08,0h0l27.28,15.83,6-28.66,79.69-46c10.18-5.88,18.8-18.58,21.7-30.91Z"/><path class="cls-7" d="M317.51,47.17a40.28,40.28,0,0,0-10,8.4c-4.18-13.41-16.92-17.58-32-8.87-12.47,7.2-23.34,21.36-29.08,36.36a13.52,13.52,0,0,0-6.28,2c-8.14,4.69-14.73,16.12-14.73,25.52,0,.2,0,.38,0,.58a17.78,17.78,0,0,0-7.58,2.54c-10.41,6-18.85,20.62-18.85,32.64s8.44,16.89,18.85,10.88L317.51,99.7c12.56-7.25,22.74-24.89,22.74-39.4S330.07,39.91,317.51,47.17Z"/><path class="cls-7" d="M209.48,160.39a10.34,10.34,0,0,1-5.21-1.34c-3.75-2.17-5.82-6.69-5.82-12.72,0-12.19,8.59-27.07,19.15-33.16a18.72,18.72,0,0,1,7.25-2.57v0c0-9.58,6.75-21.26,15-26a14.41,14.41,0,0,1,6.15-2c6-15.48,17.19-29.36,29.21-36.3,8-4.63,15.82-5.84,22-3.43,4.89,1.91,8.52,5.93,10.54,11.65a40,40,0,0,1,9.43-7.75h0c6.27-3.62,12.19-4.19,16.68-1.6s7,8,7,15.25c0,14.67-10.33,32.58-23,39.92L218.2,157.73A17.72,17.72,0,0,1,209.48,160.39Z"/><path class="cls-4" d="M209.48,160.75a10.66,10.66,0,0,1-5.39-1.39c-3.87-2.23-6-6.86-6-13,0-12.31,8.67-27.32,19.33-33.47a19.34,19.34,0,0,1,7.08-2.58c.14-9.66,6.91-21.28,15.21-26.07a15,15,0,0,1,6.08-2.07c6.07-15.45,17.27-29.34,29.28-36.28,8.1-4.67,16-5.9,22.3-3.44,4.82,1.88,8.45,5.78,10.55,11.3A39.72,39.72,0,0,1,317,46.34c6.38-3.69,12.44-4.26,17-1.6s7.15,8.19,7.15,15.56c0,14.79-10.43,32.84-23.23,40.23L218.38,158A18,18,0,0,1,209.48,160.75Zm81-118.85c-4.66,0-9.83,1.55-15.09,4.59-11.93,6.89-23.06,20.73-29.05,36.12a.36.36,0,0,1-.31.23,14,14,0,0,0-6,2c-8.19,4.73-14.86,16.27-14.86,25.73a.39.39,0,0,1-.32.39,18.55,18.55,0,0,0-7.11,2.52c-10.46,6-19,20.77-19,32.85,0,5.9,2,10.31,5.64,12.41a10,10,0,0,0,5,1.29,17.33,17.33,0,0,0,8.54-2.61l99.61-57.51c12.61-7.28,22.86-25,22.86-39.61,0-7.11-2.4-12.41-6.78-14.93s-10.17-2-16.32,1.59a39.54,39.54,0,0,0-9.34,7.68.34.34,0,0,1-.34.11.37.37,0,0,1-.27-.23c-2-5.61-5.56-9.56-10.33-11.43A17.9,17.9,0,0,0,290.52,41.9Z"/><g class="cls-9"><g class="cls-37"><path class="cls-13" d="M273.44,172.37h0c-2.65.65-5.23,2.94-7.28,6.47a1.25,1.25,0,0,0-.06,1c.08.17.2.24.32.21a.39.39,0,0,0,.25-.23c1.91-3.28,4.32-5.41,6.78-6h0c2.46-.6,4.89.36,6.83,2.7a.26.26,0,0,0,.26.1.55.55,0,0,0,.31-.35,1.14,1.14,0,0,0-.07-1c-2.09-2.52-4.69-3.55-7.34-2.91"/><path class="cls-13" d="M273.37,160.48h0c-4.45,1.08-8.76,4.47-12.46,9.81a1.23,1.23,0,0,0-.11,1.06c.08.2.21.29.34.26a.43.43,0,0,0,.22-.17c3.57-5.16,7.73-8.43,12-9.48h0c4.3-1,8.48.2,12.11,3.6a.25.25,0,0,0,.22.07.58.58,0,0,0,.34-.42,1.12,1.12,0,0,0-.12-1c-3.77-3.52-8.1-4.81-12.55-3.73"/><path class="cls-13" d="M273.28,148.6c-6.24,1.52-12.34,6.13-17.64,13.34a1.32,1.32,0,0,0-.13,1.05c.08.21.22.31.35.27a.3.3,0,0,0,.21-.15c5.18-7,11.13-11.54,17.22-13s12.08.12,17.33,4.61a.25.25,0,0,0,.21.06.61.61,0,0,0,.35-.44,1,1,0,0,0-.15-1c-5.38-4.61-11.52-6.24-17.75-4.73"/></g></g><polygon id="Path-123" data-name="Path" class="cls-38" points="248.2 324.33 243.96 321.44 246.41 319.87 250.65 322.75 248.2 324.33"/><polygon id="Path-124" data-name="Path" class="cls-38" points="232.41 333.25 228.33 330.61 242.11 322.1 246.19 324.75 232.41 333.25"/><polygon id="Path-125" data-name="Path" class="cls-38" points="220.34 347.41 215.58 344.47 221.98 340.72 226.74 343.66 220.34 347.41"/><polygon id="Path-126" data-name="Path" class="cls-13" points="247 333.25 242.24 330.31 248.63 326.56 253.39 329.5 247 333.25"/><polygon id="Path-127" data-name="Path" class="cls-13" points="237.21 338.61 233.46 336.28 240.86 331.91 244.62 334.24 237.21 338.61"/><polygon id="Path-128" data-name="Path" class="cls-13" points="224.88 339.96 220.73 337.39 227.74 333.26 231.89 335.83 224.88 339.96"/><polyline id="Path-129" data-name="Path" class="cls-38" points="207.13 349.9 213.53 346.15 218.29 349.09 211.9 352.84"/><polygon id="Path-130" data-name="Path" class="cls-38" points="254.43 328.22 250.19 325.34 252.64 323.76 256.88 326.64 254.43 328.22"/><polygon class="cls-7" points="170.55 401 186.16 392.06 186.17 410.34 170.56 419.28 170.55 401"/><polygon class="cls-7" points="198.43 384.97 214.05 376.03 214.06 394.31 198.44 403.25 198.43 384.97"/><polygon class="cls-7" points="224.63 370.33 240.25 361.39 240.26 379.67 224.64 388.61 224.63 370.33"/><polygon class="cls-7" points="251.43 356.03 267.04 347.09 267.05 365.37 251.44 374.31 251.43 356.03"/><rect class="cls-1" x="1.66" y="-0.63" width="540" height="540"/></svg>