<?xml version="1.0" encoding="UTF-8"?>
<svg width="572px" height="381px" viewBox="0 0 572 381" version="1.1" xmlns="http://www.w3.org/2000/svg" xmlns:xlink="http://www.w3.org/1999/xlink">
    <g id="Page-1" stroke="none" stroke-width="1" fill="none" fill-rule="evenodd">
        <g id="/product-copy" transform="translate(-737.000000, -4165.000000)">
            <g id="registry-section" transform="translate(737.000000, 4165.000000)">
                <rect id="Rectangle-Copy-13" fill-opacity="0.06" fill="#25B8E4" x="30" y="161" width="316" height="59" rx="10"></rect>
                <g id="Group-39" transform="translate(30.000000, 30.000000)">
                    <rect id="Rectangle-Copy-20" fill-opacity="0.06" fill="#25B8E4" x="0" y="0" width="316" height="59" rx="10"></rect>
                    <g id="Group-26" transform="translate(32.000000, 20.000000)" fill-rule="nonzero">
                        <path d="M45.184,14.192 C46.5706667,14.192 47.592,13.6906667 48.248,12.688 C48.904,11.6853333 49.232,10.256 49.232,8.4 C49.232,7.52533333 49.1626667,6.73333333 49.024,6.024 C48.8853333,5.31466667 48.656,4.70666667 48.336,4.2 C48.016,3.69333333 47.5973333,3.30133333 47.08,3.024 C46.5626667,2.74666667 45.9306667,2.608 45.184,2.608 C43.8186667,2.608 42.808,3.10933333 42.152,4.112 C41.496,5.11466667 41.168,6.544 41.168,8.4 C41.168,9.27466667 41.2373333,10.0666667 41.376,10.776 C41.5146667,11.4853333 41.744,12.0933333 42.064,12.6 C42.384,13.1066667 42.8,13.4986667 43.312,13.776 C43.824,14.0533333 44.448,14.192 45.184,14.192 Z M45.184,13.008 C44.672,13.008 44.2506667,12.8826667 43.92,12.632 C43.5893333,12.3813333 43.3226667,12.0453333 43.12,11.624 C42.9173333,11.2026667 42.776,10.7146667 42.696,10.16 C42.616,9.60533333 42.576,9.01866667 42.576,8.4 C42.576,6.832 42.784,5.672 43.2,4.92 C43.616,4.168 44.2773333,3.792 45.184,3.792 C45.696,3.792 46.1226667,3.91733333 46.464,4.168 C46.8053333,4.41866667 47.0773333,4.75466667 47.28,5.176 C47.4826667,5.59733333 47.624,6.088 47.704,6.648 C47.784,7.208 47.824,7.792 47.824,8.4 C47.824,9.97866667 47.6133333,11.1413333 47.192,11.888 C46.7706667,12.6346667 46.1013333,13.008 45.184,13.008 Z M55.184,14.192 C55.6,14.192 55.9866667,14.1546667 56.344,14.08 C56.7013333,14.0053333 57.0266667,13.9066667 57.32,13.784 C57.6133333,13.6613333 57.872,13.5306667 58.096,13.392 C58.32,13.2533333 58.5066667,13.12 58.656,12.992 L58.656,12.992 L58.096,12.064 C57.776,12.3413333 57.3786667,12.5653333 56.904,12.736 C56.4293333,12.9066667 55.9413333,12.992 55.44,12.992 C54.9706667,12.992 54.5413333,12.9226667 54.152,12.784 C53.7626667,12.6453333 53.4293333,12.448 53.152,12.192 C52.8746667,11.936 52.6613333,11.624 52.512,11.256 C52.3626667,10.888 52.288,10.4693333 52.288,10 C52.288,8.93333333 52.544,8.15466667 53.056,7.664 C53.568,7.17333333 54.3466667,6.928 55.392,6.928 C55.6693333,6.928 55.9493333,6.95733333 56.232,7.016 C56.5146667,7.07466667 56.7786667,7.14666667 57.024,7.232 L57.024,7.232 L57.024,8.752 L58.176,8.752 L58.176,6.528 L58.192,6.48 C57.8506667,6.30933333 57.432,6.15466667 56.936,6.016 C56.44,5.87733333 55.7973333,5.808 55.008,5.808 C54.3893333,5.808 53.8293333,5.90133333 53.328,6.088 C52.8266667,6.27466667 52.4,6.544 52.048,6.896 C51.696,7.248 51.4266667,7.68533333 51.24,8.208 C51.0533333,8.73066667 50.96,9.328 50.96,10 C50.96,10.6293333 51.0506667,11.2026667 51.232,11.72 C51.4133333,12.2373333 51.68,12.68 52.032,13.048 C52.384,13.416 52.824,13.6986667 53.352,13.896 C53.88,14.0933333 54.4906667,14.192 55.184,14.192 Z M62.576,14 L62.576,10.384 L63.456,10.384 L66.88,14 L68.528,14 L68.528,12.928 L67.488,12.928 L64.576,9.792 L68.112,6 L66.608,6 L63.456,9.424 L62.576,9.424 L62.576,2.8 L59.984,2.8 L59.984,3.872 L61.344,3.872 L61.344,14 L62.576,14 Z M72.96,14.144 C73.3653333,14.144 73.7173333,14.0906667 74.016,13.984 C74.3146667,13.8773333 74.568,13.752 74.776,13.608 C74.984,13.464 75.152,13.3173333 75.28,13.168 C75.408,13.0186667 75.504,12.896 75.568,12.8 L75.568,12.8 L75.648,12.8 L75.792,14 L77.92,14 L77.92,12.96 L76.848,12.96 C76.784,12.48 76.752,11.9733333 76.752,11.44 C76.7626667,10.9813333 76.7786667,10.5226667 76.8,10.064 C76.8213333,9.60533333 76.832,9.17333333 76.832,8.768 C76.832,8.416 76.7973333,8.06666667 76.728,7.72 C76.6586667,7.37333333 76.5253333,7.064 76.328,6.792 C76.1306667,6.52 75.8586667,6.29866667 75.512,6.128 C75.1653333,5.95733333 74.72,5.872 74.176,5.872 C73.6213333,5.872 73.056,5.93066667 72.48,6.048 C71.904,6.16533333 71.3866667,6.35733333 70.928,6.624 L70.928,6.624 L71.328,7.552 C71.6693333,7.41333333 72.0586667,7.27733333 72.496,7.144 C72.9333333,7.01066667 73.392,6.944 73.872,6.944 C74.224,6.944 74.52,6.984 74.76,7.064 C75,7.144 75.1866667,7.28 75.32,7.472 C75.4533333,7.664 75.5386667,7.92266667 75.576,8.248 C75.6133333,8.57333333 75.6053333,8.98133333 75.552,9.472 C74.7626667,9.35466667 74.0506667,9.312 73.416,9.344 C72.7813333,9.376 72.24,9.488 71.792,9.68 C71.344,9.872 71,10.1493333 70.76,10.512 C70.52,10.8746667 70.4,11.328 70.4,11.872 C70.4,12.576 70.6293333,13.1306667 71.088,13.536 C71.5466667,13.9413333 72.1706667,14.144 72.96,14.144 Z M73.28,13.072 C72.7146667,13.072 72.312,12.9413333 72.072,12.68 C71.832,12.4186667 71.712,12.112 71.712,11.76 C71.712,11.4186667 71.808,11.1413333 72,10.928 C72.192,10.7146667 72.4586667,10.5573333 72.8,10.456 C73.1413333,10.3546667 73.5466667,10.304 74.016,10.304 C74.4853333,10.304 74.9973333,10.352 75.552,10.448 L75.552,10.448 L75.552,11.568 C75.488,11.728 75.392,11.896 75.264,12.072 C75.136,12.248 74.976,12.4106667 74.784,12.56 C74.592,12.7093333 74.368,12.832 74.112,12.928 C73.856,13.024 73.5786667,13.072 73.28,13.072 Z M80.672,14 L80.672,8.496 C80.8,8.048 80.9893333,7.67466667 81.24,7.376 C81.4906667,7.07733333 81.7973333,6.928 82.16,6.928 C82.3413333,6.928 82.488,6.976 82.6,7.072 C82.712,7.168 82.7973333,7.29866667 82.856,7.464 C82.9146667,7.62933333 82.952,7.816 82.968,8.024 C82.984,8.232 82.992,8.448 82.992,8.672 L82.992,8.672 L82.992,14 L84.208,14 L84.208,8.656 C84.336,8.10133333 84.528,7.67466667 84.784,7.376 C85.04,7.07733333 85.3546667,6.928 85.728,6.928 C85.8986667,6.928 86.0346667,6.97066667 86.136,7.056 C86.2373333,7.14133333 86.3173333,7.25866667 86.376,7.408 C86.4346667,7.55733333 86.4746667,7.73066667 86.496,7.928 C86.5173333,8.12533333 86.528,8.336 86.528,8.56 L86.528,8.56 L86.528,14 L87.744,14 L87.744,8.288 C87.744,7.91466667 87.72,7.576 87.672,7.272 C87.624,6.968 87.5386667,6.70666667 87.416,6.488 C87.2933333,6.26933333 87.1226667,6.10133333 86.904,5.984 C86.6853333,5.86666667 86.4,5.808 86.048,5.808 C85.5146667,5.808 85.096,5.92533333 84.792,6.16 C84.488,6.39466667 84.2133333,6.72 83.968,7.136 C83.936,6.89066667 83.8666667,6.68266667 83.76,6.512 C83.6533333,6.34133333 83.528,6.20533333 83.384,6.104 C83.24,6.00266667 83.0826667,5.928 82.912,5.88 C82.7413333,5.832 82.576,5.808 82.416,5.808 C82.1386667,5.808 81.9093333,5.83733333 81.728,5.896 C81.5466667,5.95466667 81.3893333,6.03733333 81.256,6.144 C81.1226667,6.25066667 81.0053333,6.376 80.904,6.52 C80.8026667,6.664 80.6986667,6.816 80.592,6.976 L80.592,6.976 L80.528,6.976 L80.288,6 L79.456,6 L79.456,14 L80.672,14 Z M100.928,14 L100.928,9.072 L102.928,9.072 L105.568,14 L107.12,14 L104.16,8.688 C104.32,8.624 104.512,8.51733333 104.736,8.368 C104.96,8.21866667 105.176,8.024 105.384,7.784 C105.592,7.544 105.768,7.256 105.912,6.92 C106.056,6.584 106.128,6.19733333 106.128,5.76 C106.128,5.19466667 106.026667,4.71466667 105.824,4.32 C105.621333,3.92533333 105.352,3.60533333 105.016,3.36 C104.68,3.11466667 104.290667,2.93866667 103.848,2.832 C103.405333,2.72533333 102.938667,2.672 102.448,2.672 C102.010667,2.672 101.528,2.69333333 101,2.736 C100.472,2.77866667 100.005333,2.83733333 99.6,2.912 L99.6,2.912 L99.6,14 L100.928,14 Z M102.176,8.048 L100.928,8.048 L100.928,3.92 C101.002667,3.89866667 101.101333,3.88266667 101.224,3.872 C101.346667,3.86133333 101.477333,3.85066667 101.616,3.84 C101.754667,3.82933333 101.898667,3.824 102.048,3.824 L102.048,3.824 L102.48,3.824 C103.184,3.824 103.733333,4.01066667 104.128,4.384 C104.522667,4.75733333 104.72,5.232 104.72,5.808 C104.72,6.576 104.48,7.14133333 104,7.504 C103.52,7.86666667 102.912,8.048 102.176,8.048 L102.176,8.048 Z M112.544,14.192 C112.885333,14.192 113.224,14.1626667 113.56,14.104 C113.896,14.0453333 114.218667,13.9626667 114.528,13.856 C114.837333,13.7493333 115.122667,13.6213333 115.384,13.472 C115.645333,13.3226667 115.872,13.1626667 116.064,12.992 L116.064,12.992 L115.568,12.08 C115.461333,12.176 115.309333,12.2826667 115.112,12.4 C114.914667,12.5173333 114.688,12.624 114.432,12.72 C114.176,12.816 113.906667,12.8986667 113.624,12.968 C113.341333,13.0373333 113.056,13.072 112.768,13.072 C111.904,13.072 111.213333,12.8346667 110.696,12.36 C110.178667,11.8853333 109.92,11.168 109.92,10.208 L109.92,10.208 L116.112,10.208 C116.165333,9.30133333 116.101333,8.56266667 115.92,7.992 C115.738667,7.42133333 115.48,6.97333333 115.144,6.648 C114.808,6.32266667 114.421333,6.10133333 113.984,5.984 C113.546667,5.86666667 113.104,5.808 112.656,5.808 C112.037333,5.808 111.477333,5.90133333 110.976,6.088 C110.474667,6.27466667 110.048,6.544 109.696,6.896 C109.344,7.248 109.074667,7.68533333 108.888,8.208 C108.701333,8.73066667 108.608,9.328 108.608,10 C108.608,10.64 108.693333,11.216 108.864,11.728 C109.034667,12.24 109.285333,12.68 109.616,13.048 C109.946667,13.416 110.357333,13.6986667 110.848,13.896 C111.338667,14.0933333 111.904,14.192 112.544,14.192 Z M114.944,9.088 L109.968,9.088 C110.010667,8.672 110.109333,8.32266667 110.264,8.04 C110.418667,7.75733333 110.616,7.528 110.856,7.352 C111.096,7.176 111.373333,7.05066667 111.688,6.976 C112.002667,6.90133333 112.336,6.864 112.688,6.864 C113.338667,6.864 113.864,7.05866667 114.264,7.448 C114.664,7.83733333 114.890667,8.384 114.944,9.088 L114.944,9.088 Z M121.872,17.392 C122.394667,17.392 122.88,17.3306667 123.328,17.208 C123.776,17.0853333 124.168,16.9013333 124.504,16.656 C124.84,16.4106667 125.104,16.0986667 125.296,15.72 C125.488,15.3413333 125.584,14.9013333 125.584,14.4 L125.584,14.4 L125.584,6.352 C125.2,6.21333333 124.776,6.09866667 124.312,6.008 C123.848,5.91733333 123.285333,5.872 122.624,5.872 C121.194667,5.872 120.117333,6.22133333 119.392,6.92 C118.666667,7.61866667 118.304,8.65066667 118.304,10.016 C118.304,11.4453333 118.589333,12.4986667 119.16,13.176 C119.730667,13.8533333 120.624,14.192 121.84,14.192 C122.448,14.192 122.944,14.096 123.328,13.904 C123.712,13.712 124.026667,13.44 124.272,13.088 L124.272,13.088 L124.336,13.088 L124.336,13.984 C124.336,14.4 124.293333,14.752 124.208,15.04 C124.122667,15.328 123.984,15.5626667 123.792,15.744 C123.6,15.9253333 123.346667,16.0586667 123.032,16.144 C122.717333,16.2293333 122.325333,16.272 121.856,16.272 C121.632,16.272 121.405333,16.2506667 121.176,16.208 C120.946667,16.1653333 120.730667,16.1093333 120.528,16.04 C120.325333,15.9706667 120.146667,15.896 119.992,15.816 C119.837333,15.736 119.712,15.6533333 119.616,15.568 L119.616,15.568 L119.008,16.704 C119.349333,16.9066667 119.754667,17.072 120.224,17.2 C120.693333,17.328 121.242667,17.392 121.872,17.392 Z M122.016,13.12 C121.568,13.12 121.192,13.0426667 120.888,12.888 C120.584,12.7333333 120.338667,12.5173333 120.152,12.24 C119.965333,11.9626667 119.829333,11.6346667 119.744,11.256 C119.658667,10.8773333 119.616,10.4586667 119.616,10 C119.616,8.96533333 119.861333,8.19733333 120.352,7.696 C120.842667,7.19466667 121.514667,6.944 122.368,6.944 C123.210667,6.944 123.866667,7.056 124.336,7.28 L124.336,7.28 L124.336,11.072 C124.186667,11.7653333 123.925333,12.28 123.552,12.616 C123.178667,12.952 122.666667,13.12 122.016,13.12 Z M131.856,4.72 C132.165333,4.72 132.424,4.624 132.632,4.432 C132.84,4.24 132.944,4.00533333 132.944,3.728 C132.944,3.44 132.84,3.192 132.632,2.984 C132.424,2.776 132.165333,2.672 131.856,2.672 C131.557333,2.672 131.312,2.776 131.12,2.984 C130.928,3.192 130.832,3.44 130.832,3.728 C130.832,4.00533333 130.928,4.24 131.12,4.432 C131.312,4.624 131.557333,4.72 131.856,4.72 Z M135.264,14 L135.264,12.928 L132.544,12.928 L132.544,6 L128.48,6 L128.48,7.072 L131.264,7.072 L131.264,12.928 L128.48,12.928 L128.48,14 L135.264,14 Z M141.168,14.192 C142.330667,14.192 143.202667,13.952 143.784,13.472 C144.365333,12.992 144.656,12.384 144.656,11.648 C144.656,11.1573333 144.522667,10.768 144.256,10.48 C143.989333,10.192 143.658667,9.96266667 143.264,9.792 C142.869333,9.62133333 142.44,9.49066667 141.976,9.4 C141.512,9.30933333 141.082667,9.21333333 140.688,9.112 C140.293333,9.01066667 139.962667,8.88533333 139.696,8.736 C139.429333,8.58666667 139.296,8.37333333 139.296,8.096 C139.296,7.872 139.352,7.68266667 139.464,7.528 C139.576,7.37333333 139.725333,7.248 139.912,7.152 C140.098667,7.056 140.306667,6.984 140.536,6.936 C140.765333,6.888 140.997333,6.864 141.232,6.864 C141.850667,6.864 142.365333,6.952 142.776,7.128 C143.186667,7.304 143.568,7.488 143.92,7.68 L143.92,7.68 L144.432,6.672 C144.112,6.46933333 143.682667,6.27466667 143.144,6.088 C142.605333,5.90133333 141.962667,5.808 141.216,5.808 C140.8,5.808 140.4,5.85333333 140.016,5.944 C139.632,6.03466667 139.296,6.17333333 139.008,6.36 C138.72,6.54666667 138.488,6.784 138.312,7.072 C138.136,7.36 138.048,7.70666667 138.048,8.112 C138.048,8.60266667 138.181333,8.984 138.448,9.256 C138.714667,9.528 139.045333,9.744 139.44,9.904 C139.834667,10.064 140.264,10.192 140.728,10.288 C141.192,10.384 141.621333,10.488 142.016,10.6 C142.410667,10.712 142.741333,10.8613333 143.008,11.048 C143.274667,11.2346667 143.408,11.4986667 143.408,11.84 C143.408,12.0746667 143.352,12.2746667 143.24,12.44 C143.128,12.6053333 142.976,12.7386667 142.784,12.84 C142.592,12.9413333 142.370667,13.016 142.12,13.064 C141.869333,13.112 141.6,13.136 141.312,13.136 C141.013333,13.136 140.717333,13.104 140.424,13.04 C140.130667,12.976 139.856,12.8906667 139.6,12.784 C139.344,12.6773333 139.109333,12.5573333 138.896,12.424 C138.682667,12.2906667 138.512,12.16 138.384,12.032 L138.384,12.032 L137.744,13.072 C137.904,13.2106667 138.106667,13.3466667 138.352,13.48 C138.597333,13.6133333 138.869333,13.7333333 139.168,13.84 C139.466667,13.9466667 139.786667,14.032 140.128,14.096 C140.469333,14.16 140.816,14.192 141.168,14.192 Z M151.552,14.208 C152.096,14.208 152.626667,14.1173333 153.144,13.936 C153.661333,13.7546667 154.106667,13.5146667 154.48,13.216 L154.48,13.216 L154.064,12.272 C153.776,12.4853333 153.453333,12.6826667 153.096,12.864 C152.738667,13.0453333 152.32,13.136 151.84,13.136 C151.136,13.136 150.594667,12.9493333 150.216,12.576 C149.837333,12.2026667 149.648,11.6266667 149.648,10.848 L149.648,10.848 L149.648,7.072 L153.92,7.072 L153.92,6 L149.648,6 L149.648,4.064 L148.4,4.416 L148.4,6 L146.496,6 L146.496,7.072 L148.4,7.072 L148.4,11.04 C148.4,11.5946667 148.485333,12.072 148.656,12.472 C148.826667,12.872 149.056,13.2 149.344,13.456 C149.632,13.712 149.965333,13.9013333 150.344,14.024 C150.722667,14.1466667 151.125333,14.208 151.552,14.208 Z M163.12,14 L163.12,12.928 L160.048,12.928 L160.048,8.208 C160.112,8.112 160.213333,7.99466667 160.352,7.856 C160.490667,7.71733333 160.658667,7.57866667 160.856,7.44 C161.053333,7.30133333 161.285333,7.184 161.552,7.088 C161.818667,6.992 162.117333,6.944 162.448,6.944 C162.8,6.944 163.042667,7.104 163.176,7.424 C163.309333,7.744 163.376,8.24533333 163.376,8.928 L163.376,8.928 L164.496,8.912 C164.496,8.432 164.474667,8.00266667 164.432,7.624 C164.389333,7.24533333 164.306667,6.92266667 164.184,6.656 C164.061333,6.38933333 163.890667,6.18666667 163.672,6.048 C163.453333,5.90933333 163.162667,5.84 162.8,5.84 C162.181333,5.84 161.648,5.95733333 161.2,6.192 C160.752,6.42666667 160.346667,6.70933333 159.984,7.04 L159.984,7.04 L159.904,7.04 L159.648,6 L156.656,6 L156.656,7.072 L158.816,7.072 L158.816,12.928 L156.656,12.928 L156.656,14 L163.12,14 Z M168.544,17.28 C169.162667,17.28 169.664,17.136 170.048,16.848 C170.432,16.56 170.736,16.208 170.96,15.792 C171.184,15.376 171.357333,14.9306667 171.48,14.456 C171.602667,13.9813333 171.722667,13.5573333 171.84,13.184 L171.84,13.184 L174.064,6 L172.768,6 L170.784,12.768 L170.176,12.768 L167.376,6 L165.936,6 L169.296,14 L170.368,14 C170.08,15.3546667 169.536,16.032 168.736,16.032 C168.650667,16.032 168.544,16.0186667 168.416,15.992 C168.288,15.9653333 168.157333,15.9333333 168.024,15.896 C167.890667,15.8586667 167.768,15.8133333 167.656,15.76 C167.544,15.7066667 167.456,15.6533333 167.392,15.6 L167.392,15.6 L166.944,16.752 C167.008,16.816 167.104,16.88 167.232,16.944 C167.36,17.008 167.498667,17.064 167.648,17.112 C167.797333,17.16 167.949333,17.2 168.104,17.232 C168.258667,17.264 168.405333,17.28 168.544,17.28 Z M189.136,14.192 C189.733333,14.192 190.269333,14.1173333 190.744,13.968 C191.218667,13.8186667 191.618667,13.6053333 191.944,13.328 C192.269333,13.0506667 192.52,12.72 192.696,12.336 C192.872,11.952 192.96,11.52 192.96,11.04 C192.96,10.4533333 192.813333,9.96266667 192.52,9.568 C192.226667,9.17333333 191.861333,8.83466667 191.424,8.552 C190.986667,8.26933333 190.512,8.02133333 190,7.808 C189.488,7.59466667 189.013333,7.37866667 188.576,7.16 C188.138667,6.94133333 187.773333,6.69333333 187.48,6.416 C187.186667,6.13866667 187.04,5.792 187.04,5.376 C187.04,5.16266667 187.093333,4.96 187.2,4.768 C187.306667,4.576 187.458667,4.408 187.656,4.264 C187.853333,4.12 188.093333,4.00533333 188.376,3.92 C188.658667,3.83466667 188.976,3.792 189.328,3.792 C189.690667,3.792 190.032,3.81333333 190.352,3.856 C190.672,3.89866667 190.965333,3.952 191.232,4.016 L191.232,4.016 L191.232,5.728 L192.416,5.728 L192.416,3.168 L192.432,3.12 L192.416,3.12 L192.416,3.088 L192.384,3.104 C192.074667,2.95466667 191.658667,2.83466667 191.136,2.744 C190.613333,2.65333333 190.032,2.608 189.392,2.608 C188.837333,2.608 188.333333,2.67466667 187.88,2.808 C187.426667,2.94133333 187.04,3.13066667 186.72,3.376 C186.4,3.62133333 186.152,3.92 185.976,4.272 C185.8,4.624 185.712,5.01866667 185.712,5.456 C185.712,6.07466667 185.858667,6.584 186.152,6.984 C186.445333,7.384 186.810667,7.72266667 187.248,8 C187.685333,8.27733333 188.16,8.51733333 188.672,8.72 C189.184,8.92266667 189.658667,9.13066667 190.096,9.344 C190.533333,9.55733333 190.898667,9.80266667 191.192,10.08 C191.485333,10.3573333 191.632,10.7146667 191.632,11.152 C191.632,11.472 191.565333,11.7493333 191.432,11.984 C191.298667,12.2186667 191.117333,12.4133333 190.888,12.568 C190.658667,12.7226667 190.389333,12.8346667 190.08,12.904 C189.770667,12.9733333 189.44,13.008 189.088,13.008 C188.682667,13.008 188.28,12.952 187.88,12.84 C187.48,12.728 187.12,12.5866667 186.8,12.416 L186.8,12.416 L186.8,10.64 L185.616,10.64 L185.616,13.232 L185.6,13.28 C185.738667,13.3546667 185.928,13.4453333 186.168,13.552 C186.408,13.6586667 186.68,13.76 186.984,13.856 C187.288,13.952 187.621333,14.032 187.984,14.096 C188.346667,14.16 188.730667,14.192 189.136,14.192 Z M198.944,14.192 C199.285333,14.192 199.624,14.1626667 199.96,14.104 C200.296,14.0453333 200.618667,13.9626667 200.928,13.856 C201.237333,13.7493333 201.522667,13.6213333 201.784,13.472 C202.045333,13.3226667 202.272,13.1626667 202.464,12.992 L202.464,12.992 L201.968,12.08 C201.861333,12.176 201.709333,12.2826667 201.512,12.4 C201.314667,12.5173333 201.088,12.624 200.832,12.72 C200.576,12.816 200.306667,12.8986667 200.024,12.968 C199.741333,13.0373333 199.456,13.072 199.168,13.072 C198.304,13.072 197.613333,12.8346667 197.096,12.36 C196.578667,11.8853333 196.32,11.168 196.32,10.208 L196.32,10.208 L202.512,10.208 C202.565333,9.30133333 202.501333,8.56266667 202.32,7.992 C202.138667,7.42133333 201.88,6.97333333 201.544,6.648 C201.208,6.32266667 200.821333,6.10133333 200.384,5.984 C199.946667,5.86666667 199.504,5.808 199.056,5.808 C198.437333,5.808 197.877333,5.90133333 197.376,6.088 C196.874667,6.27466667 196.448,6.544 196.096,6.896 C195.744,7.248 195.474667,7.68533333 195.288,8.208 C195.101333,8.73066667 195.008,9.328 195.008,10 C195.008,10.64 195.093333,11.216 195.264,11.728 C195.434667,12.24 195.685333,12.68 196.016,13.048 C196.346667,13.416 196.757333,13.6986667 197.248,13.896 C197.738667,14.0933333 198.304,14.192 198.944,14.192 Z M201.344,9.088 L196.368,9.088 C196.410667,8.672 196.509333,8.32266667 196.664,8.04 C196.818667,7.75733333 197.016,7.528 197.256,7.352 C197.496,7.176 197.773333,7.05066667 198.088,6.976 C198.402667,6.90133333 198.736,6.864 199.088,6.864 C199.738667,6.864 200.264,7.05866667 200.664,7.448 C201.064,7.83733333 201.290667,8.384 201.344,9.088 L201.344,9.088 Z M211.12,14 L211.12,12.928 L208.048,12.928 L208.048,8.208 C208.112,8.112 208.213333,7.99466667 208.352,7.856 C208.490667,7.71733333 208.658667,7.57866667 208.856,7.44 C209.053333,7.30133333 209.285333,7.184 209.552,7.088 C209.818667,6.992 210.117333,6.944 210.448,6.944 C210.8,6.944 211.042667,7.104 211.176,7.424 C211.309333,7.744 211.376,8.24533333 211.376,8.928 L211.376,8.928 L212.496,8.912 C212.496,8.432 212.474667,8.00266667 212.432,7.624 C212.389333,7.24533333 212.306667,6.92266667 212.184,6.656 C212.061333,6.38933333 211.890667,6.18666667 211.672,6.048 C211.453333,5.90933333 211.162667,5.84 210.8,5.84 C210.181333,5.84 209.648,5.95733333 209.2,6.192 C208.752,6.42666667 208.346667,6.70933333 207.984,7.04 L207.984,7.04 L207.904,7.04 L207.648,6 L204.656,6 L204.656,7.072 L206.816,7.072 L206.816,12.928 L204.656,12.928 L204.656,14 L211.12,14 Z M218.736,14 L222.112,6 L220.72,6 L218.208,12.448 L218.032,12.448 L215.36,6 L213.888,6 L217.328,14 L218.736,14 Z M227.856,4.72 C228.165333,4.72 228.424,4.624 228.632,4.432 C228.84,4.24 228.944,4.00533333 228.944,3.728 C228.944,3.44 228.84,3.192 228.632,2.984 C228.424,2.776 228.165333,2.672 227.856,2.672 C227.557333,2.672 227.312,2.776 227.12,2.984 C226.928,3.192 226.832,3.44 226.832,3.728 C226.832,4.00533333 226.928,4.24 227.12,4.432 C227.312,4.624 227.557333,4.72 227.856,4.72 Z M231.264,14 L231.264,12.928 L228.544,12.928 L228.544,6 L224.48,6 L224.48,7.072 L227.264,7.072 L227.264,12.928 L224.48,12.928 L224.48,14 L231.264,14 Z M237.584,14.192 C238,14.192 238.386667,14.1546667 238.744,14.08 C239.101333,14.0053333 239.426667,13.9066667 239.72,13.784 C240.013333,13.6613333 240.272,13.5306667 240.496,13.392 C240.72,13.2533333 240.906667,13.12 241.056,12.992 L241.056,12.992 L240.496,12.064 C240.176,12.3413333 239.778667,12.5653333 239.304,12.736 C238.829333,12.9066667 238.341333,12.992 237.84,12.992 C237.370667,12.992 236.941333,12.9226667 236.552,12.784 C236.162667,12.6453333 235.829333,12.448 235.552,12.192 C235.274667,11.936 235.061333,11.624 234.912,11.256 C234.762667,10.888 234.688,10.4693333 234.688,10 C234.688,8.93333333 234.944,8.15466667 235.456,7.664 C235.968,7.17333333 236.746667,6.928 237.792,6.928 C238.069333,6.928 238.349333,6.95733333 238.632,7.016 C238.914667,7.07466667 239.178667,7.14666667 239.424,7.232 L239.424,7.232 L239.424,8.752 L240.576,8.752 L240.576,6.528 L240.592,6.48 C240.250667,6.30933333 239.832,6.15466667 239.336,6.016 C238.84,5.87733333 238.197333,5.808 237.408,5.808 C236.789333,5.808 236.229333,5.90133333 235.728,6.088 C235.226667,6.27466667 234.8,6.544 234.448,6.896 C234.096,7.248 233.826667,7.68533333 233.64,8.208 C233.453333,8.73066667 233.36,9.328 233.36,10 C233.36,10.6293333 233.450667,11.2026667 233.632,11.72 C233.813333,12.2373333 234.08,12.68 234.432,13.048 C234.784,13.416 235.224,13.6986667 235.752,13.896 C236.28,14.0933333 236.890667,14.192 237.584,14.192 Z M246.944,14.192 C247.285333,14.192 247.624,14.1626667 247.96,14.104 C248.296,14.0453333 248.618667,13.9626667 248.928,13.856 C249.237333,13.7493333 249.522667,13.6213333 249.784,13.472 C250.045333,13.3226667 250.272,13.1626667 250.464,12.992 L250.464,12.992 L249.968,12.08 C249.861333,12.176 249.709333,12.2826667 249.512,12.4 C249.314667,12.5173333 249.088,12.624 248.832,12.72 C248.576,12.816 248.306667,12.8986667 248.024,12.968 C247.741333,13.0373333 247.456,13.072 247.168,13.072 C246.304,13.072 245.613333,12.8346667 245.096,12.36 C244.578667,11.8853333 244.32,11.168 244.32,10.208 L244.32,10.208 L250.512,10.208 C250.565333,9.30133333 250.501333,8.56266667 250.32,7.992 C250.138667,7.42133333 249.88,6.97333333 249.544,6.648 C249.208,6.32266667 248.821333,6.10133333 248.384,5.984 C247.946667,5.86666667 247.504,5.808 247.056,5.808 C246.437333,5.808 245.877333,5.90133333 245.376,6.088 C244.874667,6.27466667 244.448,6.544 244.096,6.896 C243.744,7.248 243.474667,7.68533333 243.288,8.208 C243.101333,8.73066667 243.008,9.328 243.008,10 C243.008,10.64 243.093333,11.216 243.264,11.728 C243.434667,12.24 243.685333,12.68 244.016,13.048 C244.346667,13.416 244.757333,13.6986667 245.248,13.896 C245.738667,14.0933333 246.304,14.192 246.944,14.192 Z M249.344,9.088 L244.368,9.088 C244.410667,8.672 244.509333,8.32266667 244.664,8.04 C244.818667,7.75733333 245.016,7.528 245.256,7.352 C245.496,7.176 245.773333,7.05066667 246.088,6.976 C246.402667,6.90133333 246.736,6.864 247.088,6.864 C247.738667,6.864 248.264,7.05866667 248.664,7.448 C249.064,7.83733333 249.290667,8.384 249.344,9.088 L249.344,9.088 Z" id="OckamRegistryService" fill="#25B8E4"></path>
                        <path d="M19.35,6.03 C18.67,2.59 15.64,0 12,0 C9.11,0 6.6,1.64 5.35,4.03 C2.34,4.36 -1.77635684e-15,6.9 -1.77635684e-15,10 C-1.77635684e-15,13.3137085 2.6862915,16 6,16 L19,16 C20.3260824,16 21.597852,15.4732158 22.5355339,14.5355339 C23.4732158,13.597852 24,12.3260824 24,11 C24,8.36 21.95,6.22 19.35,6.03 Z" id="Path" fill="#00BAE9"></path>
                    </g>
                </g>
                <rect id="Rectangle-Copy-19" fill-opacity="0.06" fill="#25B8E4" x="424" y="161" width="118" height="59" rx="10"></rect>
                <path d="M120.284,196.192 C121.670667,196.192 122.692,195.690667 123.348,194.688 C124.004,193.685333 124.332,192.256 124.332,190.4 C124.332,189.525333 124.262667,188.733333 124.124,188.024 C123.985333,187.314667 123.756,186.706667 123.436,186.2 C123.116,185.693333 122.697333,185.301333 122.18,185.024 C121.662667,184.746667 121.030667,184.608 120.284,184.608 C118.918667,184.608 117.908,185.109333 117.252,186.112 C116.596,187.114667 116.268,188.544 116.268,190.4 C116.268,191.274667 116.337333,192.066667 116.476,192.776 C116.614667,193.485333 116.844,194.093333 117.164,194.6 C117.484,195.106667 117.9,195.498667 118.412,195.776 C118.924,196.053333 119.548,196.192 120.284,196.192 Z M120.284,195.008 C119.772,195.008 119.350667,194.882667 119.02,194.632 C118.689333,194.381333 118.422667,194.045333 118.22,193.624 C118.017333,193.202667 117.876,192.714667 117.796,192.16 C117.716,191.605333 117.676,191.018667 117.676,190.4 C117.676,188.832 117.884,187.672 118.3,186.92 C118.716,186.168 119.377333,185.792 120.284,185.792 C120.796,185.792 121.222667,185.917333 121.564,186.168 C121.905333,186.418667 122.177333,186.754667 122.38,187.176 C122.582667,187.597333 122.724,188.088 122.804,188.648 C122.884,189.208 122.924,189.792 122.924,190.4 C122.924,191.978667 122.713333,193.141333 122.292,193.888 C121.870667,194.634667 121.201333,195.008 120.284,195.008 Z M130.284,196.192 C130.7,196.192 131.086667,196.154667 131.444,196.08 C131.801333,196.005333 132.126667,195.906667 132.42,195.784 C132.713333,195.661333 132.972,195.530667 133.196,195.392 C133.42,195.253333 133.606667,195.12 133.756,194.992 L133.756,194.992 L133.196,194.064 C132.876,194.341333 132.478667,194.565333 132.004,194.736 C131.529333,194.906667 131.041333,194.992 130.54,194.992 C130.070667,194.992 129.641333,194.922667 129.252,194.784 C128.862667,194.645333 128.529333,194.448 128.252,194.192 C127.974667,193.936 127.761333,193.624 127.612,193.256 C127.462667,192.888 127.388,192.469333 127.388,192 C127.388,190.933333 127.644,190.154667 128.156,189.664 C128.668,189.173333 129.446667,188.928 130.492,188.928 C130.769333,188.928 131.049333,188.957333 131.332,189.016 C131.614667,189.074667 131.878667,189.146667 132.124,189.232 L132.124,189.232 L132.124,190.752 L133.276,190.752 L133.276,188.528 L133.292,188.48 C132.950667,188.309333 132.532,188.154667 132.036,188.016 C131.54,187.877333 130.897333,187.808 130.108,187.808 C129.489333,187.808 128.929333,187.901333 128.428,188.088 C127.926667,188.274667 127.5,188.544 127.148,188.896 C126.796,189.248 126.526667,189.685333 126.34,190.208 C126.153333,190.730667 126.06,191.328 126.06,192 C126.06,192.629333 126.150667,193.202667 126.332,193.72 C126.513333,194.237333 126.78,194.68 127.132,195.048 C127.484,195.416 127.924,195.698667 128.452,195.896 C128.98,196.093333 129.590667,196.192 130.284,196.192 Z M137.676,196 L137.676,192.384 L138.556,192.384 L141.98,196 L143.628,196 L143.628,194.928 L142.588,194.928 L139.676,191.792 L143.212,188 L141.708,188 L138.556,191.424 L137.676,191.424 L137.676,184.8 L135.084,184.8 L135.084,185.872 L136.444,185.872 L136.444,196 L137.676,196 Z M148.06,196.144 C148.465333,196.144 148.817333,196.090667 149.116,195.984 C149.414667,195.877333 149.668,195.752 149.876,195.608 C150.084,195.464 150.252,195.317333 150.38,195.168 C150.508,195.018667 150.604,194.896 150.668,194.8 L150.668,194.8 L150.748,194.8 L150.892,196 L153.02,196 L153.02,194.96 L151.948,194.96 C151.884,194.48 151.852,193.973333 151.852,193.44 C151.862667,192.981333 151.878667,192.522667 151.9,192.064 C151.921333,191.605333 151.932,191.173333 151.932,190.768 C151.932,190.416 151.897333,190.066667 151.828,189.72 C151.758667,189.373333 151.625333,189.064 151.428,188.792 C151.230667,188.52 150.958667,188.298667 150.612,188.128 C150.265333,187.957333 149.82,187.872 149.276,187.872 C148.721333,187.872 148.156,187.930667 147.58,188.048 C147.004,188.165333 146.486667,188.357333 146.028,188.624 L146.028,188.624 L146.428,189.552 C146.769333,189.413333 147.158667,189.277333 147.596,189.144 C148.033333,189.010667 148.492,188.944 148.972,188.944 C149.324,188.944 149.62,188.984 149.86,189.064 C150.1,189.144 150.286667,189.28 150.42,189.472 C150.553333,189.664 150.638667,189.922667 150.676,190.248 C150.713333,190.573333 150.705333,190.981333 150.652,191.472 C149.862667,191.354667 149.150667,191.312 148.516,191.344 C147.881333,191.376 147.34,191.488 146.892,191.68 C146.444,191.872 146.1,192.149333 145.86,192.512 C145.62,192.874667 145.5,193.328 145.5,193.872 C145.5,194.576 145.729333,195.130667 146.188,195.536 C146.646667,195.941333 147.270667,196.144 148.06,196.144 Z M148.38,195.072 C147.814667,195.072 147.412,194.941333 147.172,194.68 C146.932,194.418667 146.812,194.112 146.812,193.76 C146.812,193.418667 146.908,193.141333 147.1,192.928 C147.292,192.714667 147.558667,192.557333 147.9,192.456 C148.241333,192.354667 148.646667,192.304 149.116,192.304 C149.585333,192.304 150.097333,192.352 150.652,192.448 L150.652,192.448 L150.652,193.568 C150.588,193.728 150.492,193.896 150.364,194.072 C150.236,194.248 150.076,194.410667 149.884,194.56 C149.692,194.709333 149.468,194.832 149.212,194.928 C148.956,195.024 148.678667,195.072 148.38,195.072 Z M155.772,196 L155.772,190.496 C155.9,190.048 156.089333,189.674667 156.34,189.376 C156.590667,189.077333 156.897333,188.928 157.26,188.928 C157.441333,188.928 157.588,188.976 157.7,189.072 C157.812,189.168 157.897333,189.298667 157.956,189.464 C158.014667,189.629333 158.052,189.816 158.068,190.024 C158.084,190.232 158.092,190.448 158.092,190.672 L158.092,190.672 L158.092,196 L159.308,196 L159.308,190.656 C159.436,190.101333 159.628,189.674667 159.884,189.376 C160.14,189.077333 160.454667,188.928 160.828,188.928 C160.998667,188.928 161.134667,188.970667 161.236,189.056 C161.337333,189.141333 161.417333,189.258667 161.476,189.408 C161.534667,189.557333 161.574667,189.730667 161.596,189.928 C161.617333,190.125333 161.628,190.336 161.628,190.56 L161.628,190.56 L161.628,196 L162.844,196 L162.844,190.288 C162.844,189.914667 162.82,189.576 162.772,189.272 C162.724,188.968 162.638667,188.706667 162.516,188.488 C162.393333,188.269333 162.222667,188.101333 162.004,187.984 C161.785333,187.866667 161.5,187.808 161.148,187.808 C160.614667,187.808 160.196,187.925333 159.892,188.16 C159.588,188.394667 159.313333,188.72 159.068,189.136 C159.036,188.890667 158.966667,188.682667 158.86,188.512 C158.753333,188.341333 158.628,188.205333 158.484,188.104 C158.34,188.002667 158.182667,187.928 158.012,187.88 C157.841333,187.832 157.676,187.808 157.516,187.808 C157.238667,187.808 157.009333,187.837333 156.828,187.896 C156.646667,187.954667 156.489333,188.037333 156.356,188.144 C156.222667,188.250667 156.105333,188.376 156.004,188.52 C155.902667,188.664 155.798667,188.816 155.692,188.976 L155.692,188.976 L155.628,188.976 L155.388,188 L154.556,188 L154.556,196 L155.772,196 Z M178.796,196.192 C179.5,196.192 180.097333,196.109333 180.588,195.944 C181.078667,195.778667 181.484,195.573333 181.804,195.328 L181.804,195.328 L181.788,195.296 L181.788,193.136 L180.604,193.136 L180.604,194.736 C180.401333,194.821333 180.18,194.888 179.94,194.936 C179.7,194.984 179.441333,195.008 179.164,195.008 C178.62,195.008 178.126667,194.912 177.684,194.72 C177.241333,194.528 176.862667,194.24 176.548,193.856 C176.233333,193.472 175.988,192.992 175.812,192.416 C175.636,191.84 175.548,191.168 175.548,190.4 C175.548,189.546667 175.646667,188.826667 175.844,188.24 C176.041333,187.653333 176.302667,187.178667 176.628,186.816 C176.953333,186.453333 177.326667,186.192 177.748,186.032 C178.169333,185.872 178.598667,185.792 179.036,185.792 C179.345333,185.792 179.609333,185.810667 179.828,185.848 C180.046667,185.885333 180.246667,185.941333 180.428,186.016 L180.428,186.016 L180.428,187.728 L181.612,187.728 L181.612,185.2 L181.596,185.2 C181.446667,185.104 181.294667,185.018667 181.14,184.944 C180.985333,184.869333 180.806667,184.808 180.604,184.76 C180.401333,184.712 180.166667,184.674667 179.9,184.648 C179.633333,184.621333 179.318667,184.608 178.956,184.608 C178.294667,184.608 177.673333,184.714667 177.092,184.928 C176.510667,185.141333 176.001333,185.48 175.564,185.944 C175.126667,186.408 174.78,187.005333 174.524,187.736 C174.268,188.466667 174.14,189.354667 174.14,190.4 C174.14,191.402667 174.254667,192.269333 174.484,193 C174.713333,193.730667 175.036,194.330667 175.452,194.8 C175.868,195.269333 176.361333,195.618667 176.932,195.848 C177.502667,196.077333 178.124,196.192 178.796,196.192 Z M188.476,196.208 C188.657333,196.208 188.854667,196.186667 189.068,196.144 C189.281333,196.101333 189.494667,196.04 189.708,195.96 C189.921333,195.88 190.129333,195.781333 190.332,195.664 C190.534667,195.546667 190.721333,195.413333 190.892,195.264 L190.892,195.264 L190.316,194.384 C189.985333,194.64 189.684,194.821333 189.412,194.928 C189.14,195.034667 188.854667,195.088 188.556,195.088 C188.129333,195.088 187.806667,194.954667 187.588,194.688 C187.369333,194.421333 187.26,193.962667 187.26,193.312 L187.26,193.312 L187.26,184.8 L184.604,184.8 L184.604,185.872 L186.012,185.872 L186.012,193.312 C186.012,193.856 186.065333,194.312 186.172,194.68 C186.278667,195.048 186.436,195.344 186.644,195.568 C186.852,195.792 187.110667,195.954667 187.42,196.056 C187.729333,196.157333 188.081333,196.208 188.476,196.208 Z M197.1,196.192 C197.718667,196.192 198.270667,196.093333 198.756,195.896 C199.241333,195.698667 199.649333,195.418667 199.98,195.056 C200.310667,194.693333 200.561333,194.253333 200.732,193.736 C200.902667,193.218667 200.988,192.64 200.988,192 C200.988,191.413333 200.910667,190.864 200.756,190.352 C200.601333,189.84 200.364,189.397333 200.044,189.024 C199.724,188.650667 199.321333,188.354667 198.836,188.136 C198.350667,187.917333 197.772,187.808 197.1,187.808 C195.852,187.808 194.892,188.184 194.22,188.936 C193.548,189.688 193.212,190.709333 193.212,192 C193.212,192.586667 193.289333,193.136 193.444,193.648 C193.598667,194.16 193.836,194.602667 194.156,194.976 C194.476,195.349333 194.881333,195.645333 195.372,195.864 C195.862667,196.082667 196.438667,196.192 197.1,196.192 Z M197.1,195.12 C196.630667,195.12 196.233333,195.029333 195.908,194.848 C195.582667,194.666667 195.318667,194.426667 195.116,194.128 C194.913333,193.829333 194.766667,193.493333 194.676,193.12 C194.585333,192.746667 194.54,192.373333 194.54,192 C194.54,190.965333 194.753333,190.186667 195.18,189.664 C195.606667,189.141333 196.246667,188.88 197.1,188.88 C197.569333,188.88 197.966667,188.970667 198.292,189.152 C198.617333,189.333333 198.884,189.573333 199.092,189.872 C199.3,190.170667 199.449333,190.504 199.54,190.872 C199.630667,191.24 199.676,191.616 199.676,192 C199.676,193.024 199.46,193.8 199.028,194.328 C198.596,194.856 197.953333,195.12 197.1,195.12 Z M206.14,196.192 C206.790667,196.192 207.345333,196.048 207.804,195.76 C208.262667,195.472 208.630667,195.098667 208.908,194.64 L208.908,194.64 L208.972,194.64 L209.02,196 L211.148,196 L211.148,194.96 L210.076,194.96 C210.012,194.48 209.98,193.978667 209.98,193.456 L209.98,193.456 L209.98,188 L207.708,188 L207.708,189.072 L208.732,189.072 L208.732,193.216 C208.518667,193.76 208.206667,194.213333 207.796,194.576 C207.385333,194.938667 206.902667,195.12 206.348,195.12 C205.964,195.12 205.657333,195.058667 205.428,194.936 C205.198667,194.813333 205.025333,194.632 204.908,194.392 C204.790667,194.152 204.713333,193.858667 204.676,193.512 C204.638667,193.165333 204.62,192.773333 204.62,192.336 L204.62,192.336 L204.62,188 L202.3,188 L202.3,189.072 L203.372,189.072 L203.372,192.592 C203.372,193.285333 203.425333,193.864 203.532,194.328 C203.638667,194.792 203.804,195.162667 204.028,195.44 C204.252,195.717333 204.537333,195.912 204.884,196.024 C205.230667,196.136 205.649333,196.192 206.14,196.192 Z M215.916,196.192 C216.524,196.192 217.06,196.056 217.524,195.784 C217.988,195.512 218.337333,195.173333 218.572,194.768 L218.572,194.768 L218.636,194.768 L218.796,196 L220.924,196 L220.924,194.96 L219.852,194.96 C219.830667,194.842667 219.809333,194.706667 219.788,194.552 C219.766667,194.397333 219.748,194.24 219.732,194.08 C219.716,193.92 219.702667,193.768 219.692,193.624 C219.681333,193.48 219.676,193.36 219.676,193.264 L219.676,193.264 L219.676,184.8 L217.084,184.8 L217.084,185.872 L218.428,185.872 L218.428,188.144 C218.268,188.101333 218.121333,188.061333 217.988,188.024 C217.854667,187.986667 217.713333,187.957333 217.564,187.936 C217.414667,187.914667 217.252,187.898667 217.076,187.888 C216.9,187.877333 216.7,187.872 216.476,187.872 C215.857333,187.872 215.297333,187.962667 214.796,188.144 C214.294667,188.325333 213.865333,188.589333 213.508,188.936 C213.150667,189.282667 212.876,189.714667 212.684,190.232 C212.492,190.749333 212.396,191.344 212.396,192.016 C212.396,193.445333 212.681333,194.498667 213.252,195.176 C213.822667,195.853333 214.710667,196.192 215.916,196.192 Z M216.124,195.12 C215.676,195.12 215.297333,195.04 214.988,194.88 C214.678667,194.72 214.430667,194.501333 214.244,194.224 C214.057333,193.946667 213.924,193.618667 213.844,193.24 C213.764,192.861333 213.724,192.453333 213.724,192.016 C213.724,190.949333 213.969333,190.168 214.46,189.672 C214.950667,189.176 215.622667,188.928 216.476,188.928 C216.956,188.928 217.342667,188.965333 217.636,189.04 C217.929333,189.114667 218.193333,189.232 218.428,189.392 L218.428,189.392 L218.428,193.104 C218.289333,193.776 218.033333,194.28 217.66,194.616 C217.286667,194.952 216.774667,195.12 216.124,195.12 Z M235.436,196.192 C236.033333,196.192 236.569333,196.117333 237.044,195.968 C237.518667,195.818667 237.918667,195.605333 238.244,195.328 C238.569333,195.050667 238.82,194.72 238.996,194.336 C239.172,193.952 239.26,193.52 239.26,193.04 C239.26,192.453333 239.113333,191.962667 238.82,191.568 C238.526667,191.173333 238.161333,190.834667 237.724,190.552 C237.286667,190.269333 236.812,190.021333 236.3,189.808 C235.788,189.594667 235.313333,189.378667 234.876,189.16 C234.438667,188.941333 234.073333,188.693333 233.78,188.416 C233.486667,188.138667 233.34,187.792 233.34,187.376 C233.34,187.162667 233.393333,186.96 233.5,186.768 C233.606667,186.576 233.758667,186.408 233.956,186.264 C234.153333,186.12 234.393333,186.005333 234.676,185.92 C234.958667,185.834667 235.276,185.792 235.628,185.792 C235.990667,185.792 236.332,185.813333 236.652,185.856 C236.972,185.898667 237.265333,185.952 237.532,186.016 L237.532,186.016 L237.532,187.728 L238.716,187.728 L238.716,185.168 L238.732,185.12 L238.716,185.12 L238.716,185.088 L238.684,185.104 C238.374667,184.954667 237.958667,184.834667 237.436,184.744 C236.913333,184.653333 236.332,184.608 235.692,184.608 C235.137333,184.608 234.633333,184.674667 234.18,184.808 C233.726667,184.941333 233.34,185.130667 233.02,185.376 C232.7,185.621333 232.452,185.92 232.276,186.272 C232.1,186.624 232.012,187.018667 232.012,187.456 C232.012,188.074667 232.158667,188.584 232.452,188.984 C232.745333,189.384 233.110667,189.722667 233.548,190 C233.985333,190.277333 234.46,190.517333 234.972,190.72 C235.484,190.922667 235.958667,191.130667 236.396,191.344 C236.833333,191.557333 237.198667,191.802667 237.492,192.08 C237.785333,192.357333 237.932,192.714667 237.932,193.152 C237.932,193.472 237.865333,193.749333 237.732,193.984 C237.598667,194.218667 237.417333,194.413333 237.188,194.568 C236.958667,194.722667 236.689333,194.834667 236.38,194.904 C236.070667,194.973333 235.74,195.008 235.388,195.008 C234.982667,195.008 234.58,194.952 234.18,194.84 C233.78,194.728 233.42,194.586667 233.1,194.416 L233.1,194.416 L233.1,192.64 L231.916,192.64 L231.916,195.232 L231.9,195.28 C232.038667,195.354667 232.228,195.445333 232.468,195.552 C232.708,195.658667 232.98,195.76 233.284,195.856 C233.588,195.952 233.921333,196.032 234.284,196.096 C234.646667,196.16 235.030667,196.192 235.436,196.192 Z M243.964,196.144 C244.966667,196.144 245.801333,195.981333 246.468,195.656 C247.134667,195.330667 247.665333,194.898667 248.06,194.36 C248.454667,193.821333 248.732,193.202667 248.892,192.504 C249.052,191.805333 249.132,191.077333 249.132,190.32 C249.132,189.488 249.044,188.725333 248.868,188.032 C248.692,187.338667 248.404,186.744 248.004,186.248 C247.604,185.752 247.076,185.365333 246.42,185.088 C245.764,184.810667 244.950667,184.672 243.98,184.672 C243.670667,184.672 243.294667,184.68 242.852,184.696 C242.409333,184.712 241.985333,184.746667 241.58,184.8 L241.58,184.8 L241.58,196.016 C241.686667,196.037333 241.846667,196.053333 242.06,196.064 C242.273333,196.074667 242.497333,196.088 242.732,196.104 C242.966667,196.12 243.196,196.130667 243.42,196.136 C243.644,196.141333 243.825333,196.144 243.964,196.144 Z M244.012,194.96 C243.948,194.96 243.865333,194.957333 243.764,194.952 C243.662667,194.946667 243.558667,194.941333 243.452,194.936 L243.294,194.928 L243.294,194.928 L243.14,194.92 C243.038667,194.914667 242.961333,194.906667 242.908,194.896 L242.908,194.896 L242.908,185.936 C243.057333,185.904 243.246667,185.882667 243.476,185.872 C243.705333,185.861333 243.894667,185.856 244.044,185.856 C244.833333,185.856 245.470667,185.992 245.956,186.264 C246.441333,186.536 246.814667,186.885333 247.076,187.312 C247.337333,187.738667 247.510667,188.216 247.596,188.744 C247.681333,189.272 247.724,189.797333 247.724,190.32 C247.724,190.917333 247.676,191.496 247.58,192.056 C247.484,192.616 247.302667,193.112 247.036,193.544 C246.769333,193.976 246.393333,194.32 245.908,194.576 C245.422667,194.832 244.790667,194.96 244.012,194.96 Z M252.588,196 L252.588,190.816 L253.82,190.816 L257.74,196 L259.42,196 L254.972,190.128 L258.924,184.8 L257.388,184.8 L253.788,189.792 L252.588,189.792 L252.588,184.8 L251.26,184.8 L251.26,196 L252.588,196 Z" id="OckamCloudSDK" fill="#25B8E4" fill-rule="nonzero"></path>
                <path d="M487.388,196 L487.388,190.864 L492.412,190.864 L492.412,196 L493.74,196 L493.74,184.8 L492.412,184.8 L492.412,189.68 L487.388,189.68 L487.388,184.8 L486.06,184.8 L486.06,196 L487.388,196 Z M499.436,196.192 C500.033333,196.192 500.569333,196.117333 501.044,195.968 C501.518667,195.818667 501.918667,195.605333 502.244,195.328 C502.569333,195.050667 502.82,194.72 502.996,194.336 C503.172,193.952 503.26,193.52 503.26,193.04 C503.26,192.453333 503.113333,191.962667 502.82,191.568 C502.526667,191.173333 502.161333,190.834667 501.724,190.552 C501.286667,190.269333 500.812,190.021333 500.3,189.808 C499.788,189.594667 499.313333,189.378667 498.876,189.16 C498.438667,188.941333 498.073333,188.693333 497.78,188.416 C497.486667,188.138667 497.34,187.792 497.34,187.376 C497.34,187.162667 497.393333,186.96 497.5,186.768 C497.606667,186.576 497.758667,186.408 497.956,186.264 C498.153333,186.12 498.393333,186.005333 498.676,185.92 C498.958667,185.834667 499.276,185.792 499.628,185.792 C499.990667,185.792 500.332,185.813333 500.652,185.856 C500.972,185.898667 501.265333,185.952 501.532,186.016 L501.532,186.016 L501.532,187.728 L502.716,187.728 L502.716,185.168 L502.732,185.12 L502.716,185.12 L502.716,185.088 L502.684,185.104 C502.374667,184.954667 501.958667,184.834667 501.436,184.744 C500.913333,184.653333 500.332,184.608 499.692,184.608 C499.137333,184.608 498.633333,184.674667 498.18,184.808 C497.726667,184.941333 497.34,185.130667 497.02,185.376 C496.7,185.621333 496.452,185.92 496.276,186.272 C496.1,186.624 496.012,187.018667 496.012,187.456 C496.012,188.074667 496.158667,188.584 496.452,188.984 C496.745333,189.384 497.110667,189.722667 497.548,190 C497.985333,190.277333 498.46,190.517333 498.972,190.72 C499.484,190.922667 499.958667,191.130667 500.396,191.344 C500.833333,191.557333 501.198667,191.802667 501.492,192.08 C501.785333,192.357333 501.932,192.714667 501.932,193.152 C501.932,193.472 501.865333,193.749333 501.732,193.984 C501.598667,194.218667 501.417333,194.413333 501.188,194.568 C500.958667,194.722667 500.689333,194.834667 500.38,194.904 C500.070667,194.973333 499.74,195.008 499.388,195.008 C498.982667,195.008 498.58,194.952 498.18,194.84 C497.78,194.728 497.42,194.586667 497.1,194.416 L497.1,194.416 L497.1,192.64 L495.916,192.64 L495.916,195.232 L495.9,195.28 C496.038667,195.354667 496.228,195.445333 496.468,195.552 C496.708,195.658667 496.98,195.76 497.284,195.856 C497.588,195.952 497.921333,196.032 498.284,196.096 C498.646667,196.16 499.030667,196.192 499.436,196.192 Z M506.556,196 L506.556,188.544 L506.364,187.04 L506.444,187.04 L507.18,188.4 L508.892,191.152 L509.292,191.152 L510.924,188.416 L511.692,187.04 L511.772,187.04 L511.612,188.56 L511.612,196 L512.94,196 L512.94,184.8 L511.74,184.8 L509.18,189.056 L509.148,189.056 L506.492,184.8 L505.26,184.8 L505.26,196 L506.556,196 Z" id="HSM" fill="#25B8E4" fill-rule="nonzero"></path>
                <path d="M460,180 L451,184 L451,190 C451,195.55 454.84,200.74 460,202 C465.16,200.74 469,195.55 469,190 L469,184 L460,180 M460,186 C461.4,186 462.8,187.1 462.8,188.5 L462.8,190 C463.4,190 464,190.6 464,191.3 L464,194.8 C464,195.4 463.4,196 462.7,196 L457.2,196 C456.6,196 456,195.4 456,194.7 L456,191.2 C456,190.6 456.6,190 457.2,190 L457.2,188.5 C457.2,187.1 458.6,186 460,186 M460,187.2 C459.2,187.2 458.5,187.7 458.5,188.5 L458.5,190 L461.5,190 L461.5,188.5 C461.5,187.7 460.8,187.2 460,187.2 Z" id="Shape" fill="#00A8CC" fill-rule="nonzero"></path>
                <g id="icon/transfer" transform="translate(171.000000, 109.000000)" fill="#00BAE9" fill-rule="nonzero">
                    <path d="M12,4 L6.66666667,9.33333333 L10.6666667,9.33333333 L10.6666667,18.6666667 L13.3333333,18.6666667 L13.3333333,9.33333333 L17.3333333,9.33333333 M21.3333333,22.6666667 L21.3333333,13.3333333 L18.6666667,13.3333333 L18.6666667,22.6666667 L14.6666667,22.6666667 L20,28 L25.3333333,22.6666667 L21.3333333,22.6666667 Z" id="Shape"></path>
                </g>
                <g id="icon/transfer" transform="translate(385.000000, 191.000000) rotate(-270.000000) translate(-385.000000, -191.000000) translate(369.000000, 175.000000)" fill="#00BAE9" fill-rule="nonzero">
                    <path d="M12,4 L6.66666667,9.33333333 L10.6666667,9.33333333 L10.6666667,18.6666667 L13.3333333,18.6666667 L13.3333333,9.33333333 L17.3333333,9.33333333 M21.3333333,22.6666667 L21.3333333,13.3333333 L18.6666667,13.3333333 L18.6666667,22.6666667 L14.6666667,22.6666667 L20,28 L25.3333333,22.6666667 L21.3333333,22.6666667 Z" id="Shape"></path>
                </g>
                <g id="Group-38" transform="translate(78.000000, 270.000000)">
                    <g id="icon/transfer" transform="translate(192.000000, 0.000000)" fill="#00BAE9" fill-rule="nonzero">
                        <path d="M12,4 L6.66666667,9.33333333 L10.6666667,9.33333333 L10.6666667,18.6666667 L13.3333333,18.6666667 L13.3333333,9.33333333 L17.3333333,9.33333333 M21.3333333,22.6666667 L21.3333333,13.3333333 L18.6666667,13.3333333 L18.6666667,22.6666667 L14.6666667,22.6666667 L20,28 L25.3333333,22.6666667 L21.3333333,22.6666667 Z" id="Shape"></path>
                    </g>
                    <path d="M10,52 L406,52 C411.522847,52 416,56.4771525 416,62 L416,101 C416,106.522847 411.522847,111 406,111 L10,111 C4.4771525,111 6.76353751e-16,106.522847 0,101 L0,62 C-6.76353751e-16,56.4771525 4.4771525,52 10,52 Z" id="Rectangle-Copy-20" fill-opacity="0.06" fill="#25B8E4"></path>
                    <path d="M72.884,87.192 C74.2706667,87.192 75.292,86.6906667 75.948,85.688 C76.604,84.6853333 76.932,83.256 76.932,81.4 C76.932,80.5253333 76.8626667,79.7333333 76.724,79.024 C76.5853333,78.3146667 76.356,77.7066667 76.036,77.2 C75.716,76.6933333 75.2973333,76.3013333 74.78,76.024 C74.2626667,75.7466667 73.6306667,75.608 72.884,75.608 C71.5186667,75.608 70.508,76.1093333 69.852,77.112 C69.196,78.1146667 68.868,79.544 68.868,81.4 C68.868,82.2746667 68.9373333,83.0666667 69.076,83.776 C69.2146667,84.4853333 69.444,85.0933333 69.764,85.6 C70.084,86.1066667 70.5,86.4986667 71.012,86.776 C71.524,87.0533333 72.148,87.192 72.884,87.192 Z M72.884,86.008 C72.372,86.008 71.9506667,85.8826667 71.62,85.632 C71.2893333,85.3813333 71.0226667,85.0453333 70.82,84.624 C70.6173333,84.2026667 70.476,83.7146667 70.396,83.16 C70.316,82.6053333 70.276,82.0186667 70.276,81.4 C70.276,79.832 70.484,78.672 70.9,77.92 C71.316,77.168 71.9773333,76.792 72.884,76.792 C73.396,76.792 73.8226667,76.9173333 74.164,77.168 C74.5053333,77.4186667 74.7773333,77.7546667 74.98,78.176 C75.1826667,78.5973333 75.324,79.088 75.404,79.648 C75.484,80.208 75.524,80.792 75.524,81.4 C75.524,82.9786667 75.3133333,84.1413333 74.892,84.888 C74.4706667,85.6346667 73.8013333,86.008 72.884,86.008 Z M82.884,87.192 C83.3,87.192 83.6866667,87.1546667 84.044,87.08 C84.4013333,87.0053333 84.7266667,86.9066667 85.02,86.784 C85.3133333,86.6613333 85.572,86.5306667 85.796,86.392 C86.02,86.2533333 86.2066667,86.12 86.356,85.992 L86.356,85.992 L85.796,85.064 C85.476,85.3413333 85.0786667,85.5653333 84.604,85.736 C84.1293333,85.9066667 83.6413333,85.992 83.14,85.992 C82.6706667,85.992 82.2413333,85.9226667 81.852,85.784 C81.4626667,85.6453333 81.1293333,85.448 80.852,85.192 C80.5746667,84.936 80.3613333,84.624 80.212,84.256 C80.0626667,83.888 79.988,83.4693333 79.988,83 C79.988,81.9333333 80.244,81.1546667 80.756,80.664 C81.268,80.1733333 82.0466667,79.928 83.092,79.928 C83.3693333,79.928 83.6493333,79.9573333 83.932,80.016 C84.2146667,80.0746667 84.4786667,80.1466667 84.724,80.232 L84.724,80.232 L84.724,81.752 L85.876,81.752 L85.876,79.528 L85.892,79.48 C85.5506667,79.3093333 85.132,79.1546667 84.636,79.016 C84.14,78.8773333 83.4973333,78.808 82.708,78.808 C82.0893333,78.808 81.5293333,78.9013333 81.028,79.088 C80.5266667,79.2746667 80.1,79.544 79.748,79.896 C79.396,80.248 79.1266667,80.6853333 78.94,81.208 C78.7533333,81.7306667 78.66,82.328 78.66,83 C78.66,83.6293333 78.7506667,84.2026667 78.932,84.72 C79.1133333,85.2373333 79.38,85.68 79.732,86.048 C80.084,86.416 80.524,86.6986667 81.052,86.896 C81.58,87.0933333 82.1906667,87.192 82.884,87.192 Z M90.276,87 L90.276,83.384 L91.156,83.384 L94.58,87 L96.228,87 L96.228,85.928 L95.188,85.928 L92.276,82.792 L95.812,79 L94.308,79 L91.156,82.424 L90.276,82.424 L90.276,75.8 L87.684,75.8 L87.684,76.872 L89.044,76.872 L89.044,87 L90.276,87 Z M100.66,87.144 C101.065333,87.144 101.417333,87.0906667 101.716,86.984 C102.014667,86.8773333 102.268,86.752 102.476,86.608 C102.684,86.464 102.852,86.3173333 102.98,86.168 C103.108,86.0186667 103.204,85.896 103.268,85.8 L103.268,85.8 L103.348,85.8 L103.492,87 L105.62,87 L105.62,85.96 L104.548,85.96 C104.484,85.48 104.452,84.9733333 104.452,84.44 C104.462667,83.9813333 104.478667,83.5226667 104.5,83.064 C104.521333,82.6053333 104.532,82.1733333 104.532,81.768 C104.532,81.416 104.497333,81.0666667 104.428,80.72 C104.358667,80.3733333 104.225333,80.064 104.028,79.792 C103.830667,79.52 103.558667,79.2986667 103.212,79.128 C102.865333,78.9573333 102.42,78.872 101.876,78.872 C101.321333,78.872 100.756,78.9306667 100.18,79.048 C99.604,79.1653333 99.0866667,79.3573333 98.628,79.624 L98.628,79.624 L99.028,80.552 C99.3693333,80.4133333 99.7586667,80.2773333 100.196,80.144 C100.633333,80.0106667 101.092,79.944 101.572,79.944 C101.924,79.944 102.22,79.984 102.46,80.064 C102.7,80.144 102.886667,80.28 103.02,80.472 C103.153333,80.664 103.238667,80.9226667 103.276,81.248 C103.313333,81.5733333 103.305333,81.9813333 103.252,82.472 C102.462667,82.3546667 101.750667,82.312 101.116,82.344 C100.481333,82.376 99.94,82.488 99.492,82.68 C99.044,82.872 98.7,83.1493333 98.46,83.512 C98.22,83.8746667 98.1,84.328 98.1,84.872 C98.1,85.576 98.3293333,86.1306667 98.788,86.536 C99.2466667,86.9413333 99.8706667,87.144 100.66,87.144 Z M100.98,86.072 C100.414667,86.072 100.012,85.9413333 99.772,85.68 C99.532,85.4186667 99.412,85.112 99.412,84.76 C99.412,84.4186667 99.508,84.1413333 99.7,83.928 C99.892,83.7146667 100.158667,83.5573333 100.5,83.456 C100.841333,83.3546667 101.246667,83.304 101.716,83.304 C102.185333,83.304 102.697333,83.352 103.252,83.448 L103.252,83.448 L103.252,84.568 C103.188,84.728 103.092,84.896 102.964,85.072 C102.836,85.248 102.676,85.4106667 102.484,85.56 C102.292,85.7093333 102.068,85.832 101.812,85.928 C101.556,86.024 101.278667,86.072 100.98,86.072 Z M108.372,87 L108.372,81.496 C108.5,81.048 108.689333,80.6746667 108.94,80.376 C109.190667,80.0773333 109.497333,79.928 109.86,79.928 C110.041333,79.928 110.188,79.976 110.3,80.072 C110.412,80.168 110.497333,80.2986667 110.556,80.464 C110.614667,80.6293333 110.652,80.816 110.668,81.024 C110.684,81.232 110.692,81.448 110.692,81.672 L110.692,81.672 L110.692,87 L111.908,87 L111.908,81.656 C112.036,81.1013333 112.228,80.6746667 112.484,80.376 C112.74,80.0773333 113.054667,79.928 113.428,79.928 C113.598667,79.928 113.734667,79.9706667 113.836,80.056 C113.937333,80.1413333 114.017333,80.2586667 114.076,80.408 C114.134667,80.5573333 114.174667,80.7306667 114.196,80.928 C114.217333,81.1253333 114.228,81.336 114.228,81.56 L114.228,81.56 L114.228,87 L115.444,87 L115.444,81.288 C115.444,80.9146667 115.42,80.576 115.372,80.272 C115.324,79.968 115.238667,79.7066667 115.116,79.488 C114.993333,79.2693333 114.822667,79.1013333 114.604,78.984 C114.385333,78.8666667 114.1,78.808 113.748,78.808 C113.214667,78.808 112.796,78.9253333 112.492,79.16 C112.188,79.3946667 111.913333,79.72 111.668,80.136 C111.636,79.8906667 111.566667,79.6826667 111.46,79.512 C111.353333,79.3413333 111.228,79.2053333 111.084,79.104 C110.94,79.0026667 110.782667,78.928 110.612,78.88 C110.441333,78.832 110.276,78.808 110.116,78.808 C109.838667,78.808 109.609333,78.8373333 109.428,78.896 C109.246667,78.9546667 109.089333,79.0373333 108.956,79.144 C108.822667,79.2506667 108.705333,79.376 108.604,79.52 C108.502667,79.664 108.398667,79.816 108.292,79.976 L108.292,79.976 L108.228,79.976 L107.988,79 L107.156,79 L107.156,87 L108.372,87 Z M130.644,87.192 C130.985333,87.192 131.324,87.1626667 131.66,87.104 C131.996,87.0453333 132.318667,86.9626667 132.628,86.856 C132.937333,86.7493333 133.222667,86.6213333 133.484,86.472 C133.745333,86.3226667 133.972,86.1626667 134.164,85.992 L134.164,85.992 L133.668,85.08 C133.561333,85.176 133.409333,85.2826667 133.212,85.4 C133.014667,85.5173333 132.788,85.624 132.532,85.72 C132.276,85.816 132.006667,85.8986667 131.724,85.968 C131.441333,86.0373333 131.156,86.072 130.868,86.072 C130.004,86.072 129.313333,85.8346667 128.796,85.36 C128.278667,84.8853333 128.02,84.168 128.02,83.208 L128.02,83.208 L134.212,83.208 C134.265333,82.3013333 134.201333,81.5626667 134.02,80.992 C133.838667,80.4213333 133.58,79.9733333 133.244,79.648 C132.908,79.3226667 132.521333,79.1013333 132.084,78.984 C131.646667,78.8666667 131.204,78.808 130.756,78.808 C130.137333,78.808 129.577333,78.9013333 129.076,79.088 C128.574667,79.2746667 128.148,79.544 127.796,79.896 C127.444,80.248 127.174667,80.6853333 126.988,81.208 C126.801333,81.7306667 126.708,82.328 126.708,83 C126.708,83.64 126.793333,84.216 126.964,84.728 C127.134667,85.24 127.385333,85.68 127.716,86.048 C128.046667,86.416 128.457333,86.6986667 128.948,86.896 C129.438667,87.0933333 130.004,87.192 130.644,87.192 Z M133.044,82.088 L128.068,82.088 C128.110667,81.672 128.209333,81.3226667 128.364,81.04 C128.518667,80.7573333 128.716,80.528 128.956,80.352 C129.196,80.176 129.473333,80.0506667 129.788,79.976 C130.102667,79.9013333 130.436,79.864 130.788,79.864 C131.438667,79.864 131.964,80.0586667 132.364,80.448 C132.764,80.8373333 132.990667,81.384 133.044,82.088 L133.044,82.088 Z M138.02,87 L138.02,81.976 C138.094667,81.7093333 138.212,81.456 138.372,81.216 C138.532,80.976 138.718667,80.7653333 138.932,80.584 C139.145333,80.4026667 139.382667,80.256 139.644,80.144 C139.905333,80.032 140.174667,79.976 140.452,79.976 C141.209333,79.976 141.732,80.2 142.02,80.648 C142.308,81.096 142.452,81.7626667 142.452,82.648 L142.452,82.648 L142.452,87 L143.7,87 L143.7,82.408 C143.7,81.6933333 143.636,81.104 143.508,80.64 C143.38,80.176 143.190667,79.808 142.94,79.536 C142.689333,79.264 142.374667,79.0746667 141.996,78.968 C141.617333,78.8613333 141.182667,78.808 140.692,78.808 C140.372,78.808 140.068,78.8506667 139.78,78.936 C139.492,79.0213333 139.230667,79.136 138.996,79.28 C138.761333,79.424 138.556,79.584 138.38,79.76 C138.204,79.936 138.062667,80.1146667 137.956,80.296 L137.956,80.296 L137.876,80.296 L137.732,79 L135.588,79 L135.588,80.04 L136.66,80.04 C136.681333,80.1573333 136.7,80.296 136.716,80.456 C136.732,80.616 136.745333,80.7786667 136.756,80.944 C136.766667,81.1093333 136.774667,81.2693333 136.78,81.424 C136.785333,81.5786667 136.788,81.704 136.788,81.8 L136.788,81.8 L136.788,87 L138.02,87 Z M148.66,87.144 C149.065333,87.144 149.417333,87.0906667 149.716,86.984 C150.014667,86.8773333 150.268,86.752 150.476,86.608 C150.684,86.464 150.852,86.3173333 150.98,86.168 C151.108,86.0186667 151.204,85.896 151.268,85.8 L151.268,85.8 L151.348,85.8 L151.492,87 L153.62,87 L153.62,85.96 L152.548,85.96 C152.484,85.48 152.452,84.9733333 152.452,84.44 C152.462667,83.9813333 152.478667,83.5226667 152.5,83.064 C152.521333,82.6053333 152.532,82.1733333 152.532,81.768 C152.532,81.416 152.497333,81.0666667 152.428,80.72 C152.358667,80.3733333 152.225333,80.064 152.028,79.792 C151.830667,79.52 151.558667,79.2986667 151.212,79.128 C150.865333,78.9573333 150.42,78.872 149.876,78.872 C149.321333,78.872 148.756,78.9306667 148.18,79.048 C147.604,79.1653333 147.086667,79.3573333 146.628,79.624 L146.628,79.624 L147.028,80.552 C147.369333,80.4133333 147.758667,80.2773333 148.196,80.144 C148.633333,80.0106667 149.092,79.944 149.572,79.944 C149.924,79.944 150.22,79.984 150.46,80.064 C150.7,80.144 150.886667,80.28 151.02,80.472 C151.153333,80.664 151.238667,80.9226667 151.276,81.248 C151.313333,81.5733333 151.305333,81.9813333 151.252,82.472 C150.462667,82.3546667 149.750667,82.312 149.116,82.344 C148.481333,82.376 147.94,82.488 147.492,82.68 C147.044,82.872 146.7,83.1493333 146.46,83.512 C146.22,83.8746667 146.1,84.328 146.1,84.872 C146.1,85.576 146.329333,86.1306667 146.788,86.536 C147.246667,86.9413333 147.870667,87.144 148.66,87.144 Z M148.98,86.072 C148.414667,86.072 148.012,85.9413333 147.772,85.68 C147.532,85.4186667 147.412,85.112 147.412,84.76 C147.412,84.4186667 147.508,84.1413333 147.7,83.928 C147.892,83.7146667 148.158667,83.5573333 148.5,83.456 C148.841333,83.3546667 149.246667,83.304 149.716,83.304 C150.185333,83.304 150.697333,83.352 151.252,83.448 L151.252,83.448 L151.252,84.568 C151.188,84.728 151.092,84.896 150.964,85.072 C150.836,85.248 150.676,85.4106667 150.484,85.56 C150.292,85.7093333 150.068,85.832 149.812,85.928 C149.556,86.024 149.278667,86.072 148.98,86.072 Z M158.82,87.128 C160.217333,87.128 161.294667,86.7626667 162.052,86.032 C162.809333,85.3013333 163.188,84.248 163.188,82.872 C163.188,80.1626667 162.014667,78.808 159.668,78.808 C159.156,78.808 158.681333,78.904 158.244,79.096 C157.806667,79.288 157.449333,79.56 157.172,79.912 L157.172,79.912 L157.092,79.912 L157.092,75.8 L154.532,75.8 L154.532,76.872 L155.86,76.872 L155.86,86.488 C156.105333,86.6586667 156.494667,86.808 157.028,86.936 C157.561333,87.064 158.158667,87.128 158.82,87.128 Z M159.044,86.056 C158.670667,86.056 158.313333,86.0186667 157.972,85.944 C157.630667,85.8693333 157.337333,85.768 157.092,85.64 L157.092,85.64 L157.092,81.96 C157.273333,81.2986667 157.561333,80.7866667 157.956,80.424 C158.350667,80.0613333 158.868,79.88 159.508,79.88 C159.934667,79.88 160.297333,79.9573333 160.596,80.112 C160.894667,80.2666667 161.137333,80.48 161.324,80.752 C161.510667,81.024 161.646667,81.3413333 161.732,81.704 C161.817333,82.0666667 161.86,82.4506667 161.86,82.856 C161.86,83.4106667 161.793333,83.8906667 161.66,84.296 C161.526667,84.7013333 161.337333,85.0346667 161.092,85.296 C160.846667,85.5573333 160.550667,85.7493333 160.204,85.872 C159.857333,85.9946667 159.470667,86.056 159.044,86.056 Z M169.876,87.208 C170.057333,87.208 170.254667,87.1866667 170.468,87.144 C170.681333,87.1013333 170.894667,87.04 171.108,86.96 C171.321333,86.88 171.529333,86.7813333 171.732,86.664 C171.934667,86.5466667 172.121333,86.4133333 172.292,86.264 L172.292,86.264 L171.716,85.384 C171.385333,85.64 171.084,85.8213333 170.812,85.928 C170.54,86.0346667 170.254667,86.088 169.956,86.088 C169.529333,86.088 169.206667,85.9546667 168.988,85.688 C168.769333,85.4213333 168.66,84.9626667 168.66,84.312 L168.66,84.312 L168.66,75.8 L166.004,75.8 L166.004,76.872 L167.412,76.872 L167.412,84.312 C167.412,84.856 167.465333,85.312 167.572,85.68 C167.678667,86.048 167.836,86.344 168.044,86.568 C168.252,86.792 168.510667,86.9546667 168.82,87.056 C169.129333,87.1573333 169.481333,87.208 169.876,87.208 Z M178.644,87.192 C178.985333,87.192 179.324,87.1626667 179.66,87.104 C179.996,87.0453333 180.318667,86.9626667 180.628,86.856 C180.937333,86.7493333 181.222667,86.6213333 181.484,86.472 C181.745333,86.3226667 181.972,86.1626667 182.164,85.992 L182.164,85.992 L181.668,85.08 C181.561333,85.176 181.409333,85.2826667 181.212,85.4 C181.014667,85.5173333 180.788,85.624 180.532,85.72 C180.276,85.816 180.006667,85.8986667 179.724,85.968 C179.441333,86.0373333 179.156,86.072 178.868,86.072 C178.004,86.072 177.313333,85.8346667 176.796,85.36 C176.278667,84.8853333 176.02,84.168 176.02,83.208 L176.02,83.208 L182.212,83.208 C182.265333,82.3013333 182.201333,81.5626667 182.02,80.992 C181.838667,80.4213333 181.58,79.9733333 181.244,79.648 C180.908,79.3226667 180.521333,79.1013333 180.084,78.984 C179.646667,78.8666667 179.204,78.808 178.756,78.808 C178.137333,78.808 177.577333,78.9013333 177.076,79.088 C176.574667,79.2746667 176.148,79.544 175.796,79.896 C175.444,80.248 175.174667,80.6853333 174.988,81.208 C174.801333,81.7306667 174.708,82.328 174.708,83 C174.708,83.64 174.793333,84.216 174.964,84.728 C175.134667,85.24 175.385333,85.68 175.716,86.048 C176.046667,86.416 176.457333,86.6986667 176.948,86.896 C177.438667,87.0933333 178.004,87.192 178.644,87.192 Z M181.044,82.088 L176.068,82.088 C176.110667,81.672 176.209333,81.3226667 176.364,81.04 C176.518667,80.7573333 176.716,80.528 176.956,80.352 C177.196,80.176 177.473333,80.0506667 177.788,79.976 C178.102667,79.9013333 178.436,79.864 178.788,79.864 C179.438667,79.864 179.964,80.0586667 180.364,80.448 C180.764,80.8373333 180.990667,81.384 181.044,82.088 L181.044,82.088 Z M187.716,87.192 C188.324,87.192 188.86,87.056 189.324,86.784 C189.788,86.512 190.137333,86.1733333 190.372,85.768 L190.372,85.768 L190.436,85.768 L190.596,87 L192.724,87 L192.724,85.96 L191.652,85.96 C191.630667,85.8426667 191.609333,85.7066667 191.588,85.552 C191.566667,85.3973333 191.548,85.24 191.532,85.08 C191.516,84.92 191.502667,84.768 191.492,84.624 C191.481333,84.48 191.476,84.36 191.476,84.264 L191.476,84.264 L191.476,75.8 L188.884,75.8 L188.884,76.872 L190.228,76.872 L190.228,79.144 C190.068,79.1013333 189.921333,79.0613333 189.788,79.024 C189.654667,78.9866667 189.513333,78.9573333 189.364,78.936 C189.214667,78.9146667 189.052,78.8986667 188.876,78.888 C188.7,78.8773333 188.5,78.872 188.276,78.872 C187.657333,78.872 187.097333,78.9626667 186.596,79.144 C186.094667,79.3253333 185.665333,79.5893333 185.308,79.936 C184.950667,80.2826667 184.676,80.7146667 184.484,81.232 C184.292,81.7493333 184.196,82.344 184.196,83.016 C184.196,84.4453333 184.481333,85.4986667 185.052,86.176 C185.622667,86.8533333 186.510667,87.192 187.716,87.192 Z M187.924,86.12 C187.476,86.12 187.097333,86.04 186.788,85.88 C186.478667,85.72 186.230667,85.5013333 186.044,85.224 C185.857333,84.9466667 185.724,84.6186667 185.644,84.24 C185.564,83.8613333 185.524,83.4533333 185.524,83.016 C185.524,81.9493333 185.769333,81.168 186.26,80.672 C186.750667,80.176 187.422667,79.928 188.276,79.928 C188.756,79.928 189.142667,79.9653333 189.436,80.04 C189.729333,80.1146667 189.993333,80.232 190.228,80.392 L190.228,80.392 L190.228,84.104 C190.089333,84.776 189.833333,85.28 189.46,85.616 C189.086667,85.952 188.574667,86.12 187.924,86.12 Z M206.916,87.192 C207.524,87.192 208.06,87.056 208.524,86.784 C208.988,86.512 209.337333,86.1733333 209.572,85.768 L209.572,85.768 L209.636,85.768 L209.796,87 L211.924,87 L211.924,85.96 L210.852,85.96 C210.830667,85.8426667 210.809333,85.7066667 210.788,85.552 C210.766667,85.3973333 210.748,85.24 210.732,85.08 C210.716,84.92 210.702667,84.768 210.692,84.624 C210.681333,84.48 210.676,84.36 210.676,84.264 L210.676,84.264 L210.676,75.8 L208.084,75.8 L208.084,76.872 L209.428,76.872 L209.428,79.144 C209.268,79.1013333 209.121333,79.0613333 208.988,79.024 C208.854667,78.9866667 208.713333,78.9573333 208.564,78.936 C208.414667,78.9146667 208.252,78.8986667 208.076,78.888 C207.9,78.8773333 207.7,78.872 207.476,78.872 C206.857333,78.872 206.297333,78.9626667 205.796,79.144 C205.294667,79.3253333 204.865333,79.5893333 204.508,79.936 C204.150667,80.2826667 203.876,80.7146667 203.684,81.232 C203.492,81.7493333 203.396,82.344 203.396,83.016 C203.396,84.4453333 203.681333,85.4986667 204.252,86.176 C204.822667,86.8533333 205.710667,87.192 206.916,87.192 Z M207.124,86.12 C206.676,86.12 206.297333,86.04 205.988,85.88 C205.678667,85.72 205.430667,85.5013333 205.244,85.224 C205.057333,84.9466667 204.924,84.6186667 204.844,84.24 C204.764,83.8613333 204.724,83.4533333 204.724,83.016 C204.724,81.9493333 204.969333,81.168 205.46,80.672 C205.950667,80.176 206.622667,79.928 207.476,79.928 C207.956,79.928 208.342667,79.9653333 208.636,80.04 C208.929333,80.1146667 209.193333,80.232 209.428,80.392 L209.428,80.392 L209.428,84.104 C209.289333,84.776 209.033333,85.28 208.66,85.616 C208.286667,85.952 207.774667,86.12 207.124,86.12 Z M217.044,87.192 C217.385333,87.192 217.724,87.1626667 218.06,87.104 C218.396,87.0453333 218.718667,86.9626667 219.028,86.856 C219.337333,86.7493333 219.622667,86.6213333 219.884,86.472 C220.145333,86.3226667 220.372,86.1626667 220.564,85.992 L220.564,85.992 L220.068,85.08 C219.961333,85.176 219.809333,85.2826667 219.612,85.4 C219.414667,85.5173333 219.188,85.624 218.932,85.72 C218.676,85.816 218.406667,85.8986667 218.124,85.968 C217.841333,86.0373333 217.556,86.072 217.268,86.072 C216.404,86.072 215.713333,85.8346667 215.196,85.36 C214.678667,84.8853333 214.42,84.168 214.42,83.208 L214.42,83.208 L220.612,83.208 C220.665333,82.3013333 220.601333,81.5626667 220.42,80.992 C220.238667,80.4213333 219.98,79.9733333 219.644,79.648 C219.308,79.3226667 218.921333,79.1013333 218.484,78.984 C218.046667,78.8666667 217.604,78.808 217.156,78.808 C216.537333,78.808 215.977333,78.9013333 215.476,79.088 C214.974667,79.2746667 214.548,79.544 214.196,79.896 C213.844,80.248 213.574667,80.6853333 213.388,81.208 C213.201333,81.7306667 213.108,82.328 213.108,83 C213.108,83.64 213.193333,84.216 213.364,84.728 C213.534667,85.24 213.785333,85.68 214.116,86.048 C214.446667,86.416 214.857333,86.6986667 215.348,86.896 C215.838667,87.0933333 216.404,87.192 217.044,87.192 Z M219.444,82.088 L214.468,82.088 C214.510667,81.672 214.609333,81.3226667 214.764,81.04 C214.918667,80.7573333 215.116,80.528 215.356,80.352 C215.596,80.176 215.873333,80.0506667 216.188,79.976 C216.502667,79.9013333 216.836,79.864 217.188,79.864 C217.838667,79.864 218.364,80.0586667 218.764,80.448 C219.164,80.8373333 219.390667,81.384 219.444,82.088 L219.444,82.088 Z M227.236,87 L230.612,79 L229.22,79 L226.708,85.448 L226.532,85.448 L223.86,79 L222.388,79 L225.828,87 L227.236,87 Z M236.356,77.72 C236.665333,77.72 236.924,77.624 237.132,77.432 C237.34,77.24 237.444,77.0053333 237.444,76.728 C237.444,76.44 237.34,76.192 237.132,75.984 C236.924,75.776 236.665333,75.672 236.356,75.672 C236.057333,75.672 235.812,75.776 235.62,75.984 C235.428,76.192 235.332,76.44 235.332,76.728 C235.332,77.0053333 235.428,77.24 235.62,77.432 C235.812,77.624 236.057333,77.72 236.356,77.72 Z M239.764,87 L239.764,85.928 L237.044,85.928 L237.044,79 L232.98,79 L232.98,80.072 L235.764,80.072 L235.764,85.928 L232.98,85.928 L232.98,87 L239.764,87 Z M246.084,87.192 C246.5,87.192 246.886667,87.1546667 247.244,87.08 C247.601333,87.0053333 247.926667,86.9066667 248.22,86.784 C248.513333,86.6613333 248.772,86.5306667 248.996,86.392 C249.22,86.2533333 249.406667,86.12 249.556,85.992 L249.556,85.992 L248.996,85.064 C248.676,85.3413333 248.278667,85.5653333 247.804,85.736 C247.329333,85.9066667 246.841333,85.992 246.34,85.992 C245.870667,85.992 245.441333,85.9226667 245.052,85.784 C244.662667,85.6453333 244.329333,85.448 244.052,85.192 C243.774667,84.936 243.561333,84.624 243.412,84.256 C243.262667,83.888 243.188,83.4693333 243.188,83 C243.188,81.9333333 243.444,81.1546667 243.956,80.664 C244.468,80.1733333 245.246667,79.928 246.292,79.928 C246.569333,79.928 246.849333,79.9573333 247.132,80.016 C247.414667,80.0746667 247.678667,80.1466667 247.924,80.232 L247.924,80.232 L247.924,81.752 L249.076,81.752 L249.076,79.528 L249.092,79.48 C248.750667,79.3093333 248.332,79.1546667 247.836,79.016 C247.34,78.8773333 246.697333,78.808 245.908,78.808 C245.289333,78.808 244.729333,78.9013333 244.228,79.088 C243.726667,79.2746667 243.3,79.544 242.948,79.896 C242.596,80.248 242.326667,80.6853333 242.14,81.208 C241.953333,81.7306667 241.86,82.328 241.86,83 C241.86,83.6293333 241.950667,84.2026667 242.132,84.72 C242.313333,85.2373333 242.58,85.68 242.932,86.048 C243.284,86.416 243.724,86.6986667 244.252,86.896 C244.78,87.0933333 245.390667,87.192 246.084,87.192 Z M255.444,87.192 C255.785333,87.192 256.124,87.1626667 256.46,87.104 C256.796,87.0453333 257.118667,86.9626667 257.428,86.856 C257.737333,86.7493333 258.022667,86.6213333 258.284,86.472 C258.545333,86.3226667 258.772,86.1626667 258.964,85.992 L258.964,85.992 L258.468,85.08 C258.361333,85.176 258.209333,85.2826667 258.012,85.4 C257.814667,85.5173333 257.588,85.624 257.332,85.72 C257.076,85.816 256.806667,85.8986667 256.524,85.968 C256.241333,86.0373333 255.956,86.072 255.668,86.072 C254.804,86.072 254.113333,85.8346667 253.596,85.36 C253.078667,84.8853333 252.82,84.168 252.82,83.208 L252.82,83.208 L259.012,83.208 C259.065333,82.3013333 259.001333,81.5626667 258.82,80.992 C258.638667,80.4213333 258.38,79.9733333 258.044,79.648 C257.708,79.3226667 257.321333,79.1013333 256.884,78.984 C256.446667,78.8666667 256.004,78.808 255.556,78.808 C254.937333,78.808 254.377333,78.9013333 253.876,79.088 C253.374667,79.2746667 252.948,79.544 252.596,79.896 C252.244,80.248 251.974667,80.6853333 251.788,81.208 C251.601333,81.7306667 251.508,82.328 251.508,83 C251.508,83.64 251.593333,84.216 251.764,84.728 C251.934667,85.24 252.185333,85.68 252.516,86.048 C252.846667,86.416 253.257333,86.6986667 253.748,86.896 C254.238667,87.0933333 254.804,87.192 255.444,87.192 Z M257.844,82.088 L252.868,82.088 C252.910667,81.672 253.009333,81.3226667 253.164,81.04 C253.318667,80.7573333 253.516,80.528 253.756,80.352 C253.996,80.176 254.273333,80.0506667 254.588,79.976 C254.902667,79.9013333 255.236,79.864 255.588,79.864 C256.238667,79.864 256.764,80.0586667 257.164,80.448 C257.564,80.8373333 257.790667,81.384 257.844,82.088 L257.844,82.088 Z M264.868,87.192 C266.030667,87.192 266.902667,86.952 267.484,86.472 C268.065333,85.992 268.356,85.384 268.356,84.648 C268.356,84.1573333 268.222667,83.768 267.956,83.48 C267.689333,83.192 267.358667,82.9626667 266.964,82.792 C266.569333,82.6213333 266.14,82.4906667 265.676,82.4 C265.212,82.3093333 264.782667,82.2133333 264.388,82.112 C263.993333,82.0106667 263.662667,81.8853333 263.396,81.736 C263.129333,81.5866667 262.996,81.3733333 262.996,81.096 C262.996,80.872 263.052,80.6826667 263.164,80.528 C263.276,80.3733333 263.425333,80.248 263.612,80.152 C263.798667,80.056 264.006667,79.984 264.236,79.936 C264.465333,79.888 264.697333,79.864 264.932,79.864 C265.550667,79.864 266.065333,79.952 266.476,80.128 C266.886667,80.304 267.268,80.488 267.62,80.68 L267.62,80.68 L268.132,79.672 C267.812,79.4693333 267.382667,79.2746667 266.844,79.088 C266.305333,78.9013333 265.662667,78.808 264.916,78.808 C264.5,78.808 264.1,78.8533333 263.716,78.944 C263.332,79.0346667 262.996,79.1733333 262.708,79.36 C262.42,79.5466667 262.188,79.784 262.012,80.072 C261.836,80.36 261.748,80.7066667 261.748,81.112 C261.748,81.6026667 261.881333,81.984 262.148,82.256 C262.414667,82.528 262.745333,82.744 263.14,82.904 C263.534667,83.064 263.964,83.192 264.428,83.288 C264.892,83.384 265.321333,83.488 265.716,83.6 C266.110667,83.712 266.441333,83.8613333 266.708,84.048 C266.974667,84.2346667 267.108,84.4986667 267.108,84.84 C267.108,85.0746667 267.052,85.2746667 266.94,85.44 C266.828,85.6053333 266.676,85.7386667 266.484,85.84 C266.292,85.9413333 266.070667,86.016 265.82,86.064 C265.569333,86.112 265.3,86.136 265.012,86.136 C264.713333,86.136 264.417333,86.104 264.124,86.04 C263.830667,85.976 263.556,85.8906667 263.3,85.784 C263.044,85.6773333 262.809333,85.5573333 262.596,85.424 C262.382667,85.2906667 262.212,85.16 262.084,85.032 L262.084,85.032 L261.444,86.072 C261.604,86.2106667 261.806667,86.3466667 262.052,86.48 C262.297333,86.6133333 262.569333,86.7333333 262.868,86.84 C263.166667,86.9466667 263.486667,87.032 263.828,87.096 C264.169333,87.16 264.516,87.192 264.868,87.192 Z M283.06,87.144 C283.465333,87.144 283.817333,87.0906667 284.116,86.984 C284.414667,86.8773333 284.668,86.752 284.876,86.608 C285.084,86.464 285.252,86.3173333 285.38,86.168 C285.508,86.0186667 285.604,85.896 285.668,85.8 L285.668,85.8 L285.748,85.8 L285.892,87 L288.02,87 L288.02,85.96 L286.948,85.96 C286.884,85.48 286.852,84.9733333 286.852,84.44 C286.862667,83.9813333 286.878667,83.5226667 286.9,83.064 C286.921333,82.6053333 286.932,82.1733333 286.932,81.768 C286.932,81.416 286.897333,81.0666667 286.828,80.72 C286.758667,80.3733333 286.625333,80.064 286.428,79.792 C286.230667,79.52 285.958667,79.2986667 285.612,79.128 C285.265333,78.9573333 284.82,78.872 284.276,78.872 C283.721333,78.872 283.156,78.9306667 282.58,79.048 C282.004,79.1653333 281.486667,79.3573333 281.028,79.624 L281.028,79.624 L281.428,80.552 C281.769333,80.4133333 282.158667,80.2773333 282.596,80.144 C283.033333,80.0106667 283.492,79.944 283.972,79.944 C284.324,79.944 284.62,79.984 284.86,80.064 C285.1,80.144 285.286667,80.28 285.42,80.472 C285.553333,80.664 285.638667,80.9226667 285.676,81.248 C285.713333,81.5733333 285.705333,81.9813333 285.652,82.472 C284.862667,82.3546667 284.150667,82.312 283.516,82.344 C282.881333,82.376 282.34,82.488 281.892,82.68 C281.444,82.872 281.1,83.1493333 280.86,83.512 C280.62,83.8746667 280.5,84.328 280.5,84.872 C280.5,85.576 280.729333,86.1306667 281.188,86.536 C281.646667,86.9413333 282.270667,87.144 283.06,87.144 Z M283.38,86.072 C282.814667,86.072 282.412,85.9413333 282.172,85.68 C281.932,85.4186667 281.812,85.112 281.812,84.76 C281.812,84.4186667 281.908,84.1413333 282.1,83.928 C282.292,83.7146667 282.558667,83.5573333 282.9,83.456 C283.241333,83.3546667 283.646667,83.304 284.116,83.304 C284.585333,83.304 285.097333,83.352 285.652,83.448 L285.652,83.448 L285.652,84.568 C285.588,84.728 285.492,84.896 285.364,85.072 C285.236,85.248 285.076,85.4106667 284.884,85.56 C284.692,85.7093333 284.468,85.832 284.212,85.928 C283.956,86.024 283.678667,86.072 283.38,86.072 Z M294.452,87.208 C294.996,87.208 295.526667,87.1173333 296.044,86.936 C296.561333,86.7546667 297.006667,86.5146667 297.38,86.216 L297.38,86.216 L296.964,85.272 C296.676,85.4853333 296.353333,85.6826667 295.996,85.864 C295.638667,86.0453333 295.22,86.136 294.74,86.136 C294.036,86.136 293.494667,85.9493333 293.116,85.576 C292.737333,85.2026667 292.548,84.6266667 292.548,83.848 L292.548,83.848 L292.548,80.072 L296.82,80.072 L296.82,79 L292.548,79 L292.548,77.064 L291.3,77.416 L291.3,79 L289.396,79 L289.396,80.072 L291.3,80.072 L291.3,84.04 C291.3,84.5946667 291.385333,85.072 291.556,85.472 C291.726667,85.872 291.956,86.2 292.244,86.456 C292.532,86.712 292.865333,86.9013333 293.244,87.024 C293.622667,87.1466667 294.025333,87.208 294.452,87.208 Z M313.652,87.208 C314.196,87.208 314.726667,87.1173333 315.244,86.936 C315.761333,86.7546667 316.206667,86.5146667 316.58,86.216 L316.58,86.216 L316.164,85.272 C315.876,85.4853333 315.553333,85.6826667 315.196,85.864 C314.838667,86.0453333 314.42,86.136 313.94,86.136 C313.236,86.136 312.694667,85.9493333 312.316,85.576 C311.937333,85.2026667 311.748,84.6266667 311.748,83.848 L311.748,83.848 L311.748,80.072 L316.02,80.072 L316.02,79 L311.748,79 L311.748,77.064 L310.5,77.416 L310.5,79 L308.596,79 L308.596,80.072 L310.5,80.072 L310.5,84.04 C310.5,84.5946667 310.585333,85.072 310.756,85.472 C310.926667,85.872 311.156,86.2 311.444,86.456 C311.732,86.712 312.065333,86.9013333 312.444,87.024 C312.822667,87.1466667 313.225333,87.208 313.652,87.208 Z M320.26,87 L320.26,81.912 C320.324,81.6133333 320.438667,81.3386667 320.604,81.088 C320.769333,80.8373333 320.966667,80.624 321.196,80.448 C321.425333,80.272 321.678667,80.1333333 321.956,80.032 C322.233333,79.9306667 322.516,79.88 322.804,79.88 C323.22,79.88 323.561333,79.9386667 323.828,80.056 C324.094667,80.1733333 324.305333,80.3466667 324.46,80.576 C324.614667,80.8053333 324.718667,81.0906667 324.772,81.432 C324.825333,81.7733333 324.852,82.1733333 324.852,82.632 L324.852,82.632 L324.852,87 L326.1,87 L326.1,82.392 C326.1,81.6773333 326.041333,81.088 325.924,80.624 C325.806667,80.16 325.628,79.7946667 325.388,79.528 C325.148,79.2613333 324.838667,79.0746667 324.46,78.968 C324.081333,78.8613333 323.636,78.808 323.124,78.808 C322.473333,78.808 321.929333,78.912 321.492,79.12 C321.054667,79.328 320.670667,79.6186667 320.34,79.992 L320.34,79.992 L320.26,79.992 L320.26,75.8 L317.764,75.8 L317.764,76.872 L319.028,76.872 L319.028,87 L320.26,87 Z M332.244,87.192 C332.585333,87.192 332.924,87.1626667 333.26,87.104 C333.596,87.0453333 333.918667,86.9626667 334.228,86.856 C334.537333,86.7493333 334.822667,86.6213333 335.084,86.472 C335.345333,86.3226667 335.572,86.1626667 335.764,85.992 L335.764,85.992 L335.268,85.08 C335.161333,85.176 335.009333,85.2826667 334.812,85.4 C334.614667,85.5173333 334.388,85.624 334.132,85.72 C333.876,85.816 333.606667,85.8986667 333.324,85.968 C333.041333,86.0373333 332.756,86.072 332.468,86.072 C331.604,86.072 330.913333,85.8346667 330.396,85.36 C329.878667,84.8853333 329.62,84.168 329.62,83.208 L329.62,83.208 L335.812,83.208 C335.865333,82.3013333 335.801333,81.5626667 335.62,80.992 C335.438667,80.4213333 335.18,79.9733333 334.844,79.648 C334.508,79.3226667 334.121333,79.1013333 333.684,78.984 C333.246667,78.8666667 332.804,78.808 332.356,78.808 C331.737333,78.808 331.177333,78.9013333 330.676,79.088 C330.174667,79.2746667 329.748,79.544 329.396,79.896 C329.044,80.248 328.774667,80.6853333 328.588,81.208 C328.401333,81.7306667 328.308,82.328 328.308,83 C328.308,83.64 328.393333,84.216 328.564,84.728 C328.734667,85.24 328.985333,85.68 329.316,86.048 C329.646667,86.416 330.057333,86.6986667 330.548,86.896 C331.038667,87.0933333 331.604,87.192 332.244,87.192 Z M334.644,82.088 L329.668,82.088 C329.710667,81.672 329.809333,81.3226667 329.964,81.04 C330.118667,80.7573333 330.316,80.528 330.556,80.352 C330.796,80.176 331.073333,80.0506667 331.388,79.976 C331.702667,79.9013333 332.036,79.864 332.388,79.864 C333.038667,79.864 333.564,80.0586667 333.964,80.448 C334.364,80.8373333 334.590667,81.384 334.644,82.088 L334.644,82.088 Z M354.868,87 L354.868,85.816 L349.54,85.816 L349.54,81.832 L354.388,81.832 L354.388,80.648 L349.54,80.648 L349.54,76.984 L354.788,76.984 L354.788,75.8 L348.212,75.8 L348.212,87 L354.868,87 Z M360.516,87.192 C361.124,87.192 361.66,87.056 362.124,86.784 C362.588,86.512 362.937333,86.1733333 363.172,85.768 L363.172,85.768 L363.236,85.768 L363.396,87 L365.524,87 L365.524,85.96 L364.452,85.96 C364.430667,85.8426667 364.409333,85.7066667 364.388,85.552 C364.366667,85.3973333 364.348,85.24 364.332,85.08 C364.316,84.92 364.302667,84.768 364.292,84.624 C364.281333,84.48 364.276,84.36 364.276,84.264 L364.276,84.264 L364.276,75.8 L361.684,75.8 L361.684,76.872 L363.028,76.872 L363.028,79.144 C362.868,79.1013333 362.721333,79.0613333 362.588,79.024 C362.454667,78.9866667 362.313333,78.9573333 362.164,78.936 C362.014667,78.9146667 361.852,78.8986667 361.676,78.888 C361.5,78.8773333 361.3,78.872 361.076,78.872 C360.457333,78.872 359.897333,78.9626667 359.396,79.144 C358.894667,79.3253333 358.465333,79.5893333 358.108,79.936 C357.750667,80.2826667 357.476,80.7146667 357.284,81.232 C357.092,81.7493333 356.996,82.344 356.996,83.016 C356.996,84.4453333 357.281333,85.4986667 357.852,86.176 C358.422667,86.8533333 359.310667,87.192 360.516,87.192 Z M360.724,86.12 C360.276,86.12 359.897333,86.04 359.588,85.88 C359.278667,85.72 359.030667,85.5013333 358.844,85.224 C358.657333,84.9466667 358.524,84.6186667 358.444,84.24 C358.364,83.8613333 358.324,83.4533333 358.324,83.016 C358.324,81.9493333 358.569333,81.168 359.06,80.672 C359.550667,80.176 360.222667,79.928 361.076,79.928 C361.556,79.928 361.942667,79.9653333 362.236,80.04 C362.529333,80.1146667 362.793333,80.232 363.028,80.392 L363.028,80.392 L363.028,84.104 C362.889333,84.776 362.633333,85.28 362.26,85.616 C361.886667,85.952 361.374667,86.12 360.724,86.12 Z M370.372,90.392 C370.894667,90.392 371.38,90.3306667 371.828,90.208 C372.276,90.0853333 372.668,89.9013333 373.004,89.656 C373.34,89.4106667 373.604,89.0986667 373.796,88.72 C373.988,88.3413333 374.084,87.9013333 374.084,87.4 L374.084,87.4 L374.084,79.352 C373.7,79.2133333 373.276,79.0986667 372.812,79.008 C372.348,78.9173333 371.785333,78.872 371.124,78.872 C369.694667,78.872 368.617333,79.2213333 367.892,79.92 C367.166667,80.6186667 366.804,81.6506667 366.804,83.016 C366.804,84.4453333 367.089333,85.4986667 367.66,86.176 C368.230667,86.8533333 369.124,87.192 370.34,87.192 C370.948,87.192 371.444,87.096 371.828,86.904 C372.212,86.712 372.526667,86.44 372.772,86.088 L372.772,86.088 L372.836,86.088 L372.836,86.984 C372.836,87.4 372.793333,87.752 372.708,88.04 C372.622667,88.328 372.484,88.5626667 372.292,88.744 C372.1,88.9253333 371.846667,89.0586667 371.532,89.144 C371.217333,89.2293333 370.825333,89.272 370.356,89.272 C370.132,89.272 369.905333,89.2506667 369.676,89.208 C369.446667,89.1653333 369.230667,89.1093333 369.028,89.04 C368.825333,88.9706667 368.646667,88.896 368.492,88.816 C368.337333,88.736 368.212,88.6533333 368.116,88.568 L368.116,88.568 L367.508,89.704 C367.849333,89.9066667 368.254667,90.072 368.724,90.2 C369.193333,90.328 369.742667,90.392 370.372,90.392 Z M370.516,86.12 C370.068,86.12 369.692,86.0426667 369.388,85.888 C369.084,85.7333333 368.838667,85.5173333 368.652,85.24 C368.465333,84.9626667 368.329333,84.6346667 368.244,84.256 C368.158667,83.8773333 368.116,83.4586667 368.116,83 C368.116,81.9653333 368.361333,81.1973333 368.852,80.696 C369.342667,80.1946667 370.014667,79.944 370.868,79.944 C371.710667,79.944 372.366667,80.056 372.836,80.28 L372.836,80.28 L372.836,84.072 C372.686667,84.7653333 372.425333,85.28 372.052,85.616 C371.678667,85.952 371.166667,86.12 370.516,86.12 Z M380.244,87.192 C380.585333,87.192 380.924,87.1626667 381.26,87.104 C381.596,87.0453333 381.918667,86.9626667 382.228,86.856 C382.537333,86.7493333 382.822667,86.6213333 383.084,86.472 C383.345333,86.3226667 383.572,86.1626667 383.764,85.992 L383.764,85.992 L383.268,85.08 C383.161333,85.176 383.009333,85.2826667 382.812,85.4 C382.614667,85.5173333 382.388,85.624 382.132,85.72 C381.876,85.816 381.606667,85.8986667 381.324,85.968 C381.041333,86.0373333 380.756,86.072 380.468,86.072 C379.604,86.072 378.913333,85.8346667 378.396,85.36 C377.878667,84.8853333 377.62,84.168 377.62,83.208 L377.62,83.208 L383.812,83.208 C383.865333,82.3013333 383.801333,81.5626667 383.62,80.992 C383.438667,80.4213333 383.18,79.9733333 382.844,79.648 C382.508,79.3226667 382.121333,79.1013333 381.684,78.984 C381.246667,78.8666667 380.804,78.808 380.356,78.808 C379.737333,78.808 379.177333,78.9013333 378.676,79.088 C378.174667,79.2746667 377.748,79.544 377.396,79.896 C377.044,80.248 376.774667,80.6853333 376.588,81.208 C376.401333,81.7306667 376.308,82.328 376.308,83 C376.308,83.64 376.393333,84.216 376.564,84.728 C376.734667,85.24 376.985333,85.68 377.316,86.048 C377.646667,86.416 378.057333,86.6986667 378.548,86.896 C379.038667,87.0933333 379.604,87.192 380.244,87.192 Z M382.644,82.088 L377.668,82.088 C377.710667,81.672 377.809333,81.3226667 377.964,81.04 C378.118667,80.7573333 378.316,80.528 378.556,80.352 C378.796,80.176 379.073333,80.0506667 379.388,79.976 C379.702667,79.9013333 380.036,79.864 380.388,79.864 C381.038667,79.864 381.564,80.0586667 381.964,80.448 C382.364,80.8373333 382.590667,81.384 382.644,82.088 L382.644,82.088 Z" id="OckamenableddevicesattheEdge" fill="#25B8E4" fill-rule="nonzero"></path>
                    <path d="M44,87 L34,87 L34,77 L44,77 M48,81 L48,79 L46,79 L46,77 C46,75.89 45.1,75 44,75 L42,75 L42,73 L40,73 L40,75 L38,75 L38,73 L36,73 L36,75 L34,75 C32.89,75 32,75.89 32,77 L32,79 L30,79 L30,81 L32,81 L32,83 L30,83 L30,85 L32,85 L32,87 C32,88.1045695 32.8954305,89 34,89 L36,89 L36,91 L38,91 L38,89 L40,89 L40,91 L42,91 L42,89 L44,89 C45.1045695,89 46,88.1045695 46,87 L46,85 L48,85 L48,83 L46,83 L46,81 M40,83 L38,83 L38,81 L40,81 M42,79 L36,79 L36,85 L42,85 L42,79 Z" id="Shape" fill="#00BAE9" fill-rule="nonzero"></path>
                </g>
                <path d="M562,0.5 L10,0.5 C7.37664744,0.5 5.00164744,1.56332372 3.28248558,3.28248558 C1.56332372,5.00164744 0.5,7.37664744 0.5,10 L0.5,240 C0.5,242.623353 1.56332372,244.998353 3.28248558,246.717514 C5.00164744,248.436676 7.37664744,249.5 10,249.5 L562,249.5 C564.623353,249.5 566.998353,248.436676 568.717514,246.717514 C570.436676,244.998353 571.5,242.623353 571.5,240 L571.5,10 C571.5,7.37664744 570.436676,5.00164744 568.717514,3.28248558 C566.998353,1.56332372 564.623353,0.5 562,0.5 Z" id="Rectangle-Copy-16" stroke="#4BC7EC"></path>
            </g>
        </g>
    </g>
</svg>
