<?xml version="1.0" encoding="utf-8"?>
<!-- Generator: Adobe Illustrator 24.3.0, SVG Export Plug-In . SVG Version: 6.00 Build 0)  -->
<svg version="1.1" id="Warstwa_1" xmlns="http://www.w3.org/2000/svg" xmlns:xlink="http://www.w3.org/1999/xlink" x="0px" y="0px"
	 viewBox="0 0 1109 272" style="enable-background:new 0 0 1109 272;" xml:space="preserve">
<style type="text/css">
	.st0{fill-rule:evenodd;clip-rule:evenodd;fill:#25B8E4;fill-opacity:6.000000e-02;}
	.st1{fill:#00BAE9;}
	.st2{fill:#25B8E4;}
	.st3{fill:#00A8CC;}
	.st4{enable-background:new    ;}
	.st5{fill:none;stroke:#4BC7EC;}
</style>
<g id="Content">
	<g id="registery" transform="translate(-165.000000, -776.000000)">
		<g id="register_infographic" transform="translate(165.000000, 776.000000)">
			<path id="Rectangle-Copy-15" class="st0" d="M373,164h276c5.5,0,10,4.5,10,10v64c0,5.5-4.5,10-10,10H373c-5.5,0-10-4.5-10-10v-64
				C363,168.5,367.5,164,373,164z"/>
			<path id="Rectangle-Copy-15_1_" class="st0" d="M725,164h172c5.5,0,10,4.5,10,10v64c0,5.5-4.5,10-10,10H725c-5.5,0-10-4.5-10-10
				v-64C715,168.5,719.5,164,725,164z"/>
			<g id="Group" transform="translate(671.000000, 190.000000)">
				
					<g id="icon_x2F_fingerprint-copy" transform="translate(16.000000, 16.000000) rotate(-270.000000) translate(-16.000000, -16.000000) ">
					<path id="Shape" class="st1" d="M12,4L6.7,9.3h4v9.3h2.7V9.3h4 M21.3,22.7v-9.3h-2.7v9.3h-4L20,28l5.3-5.3H21.3z"/>
				</g>
			</g>
			<g id="Group_1_" transform="translate(295.000000, 190.000000)">
				
					<g id="icon_x2F_fingerprint-copy_1_" transform="translate(16.000000, 16.000000) rotate(-270.000000) translate(-16.000000, -16.000000) ">
					<path id="Shape_1_" class="st1" d="M12,4L6.7,9.3h4v9.3h2.7V9.3h4 M21.3,22.7v-9.3h-2.7v9.3h-4L20,28l5.3-5.3H21.3z"/>
				</g>
			</g>
			<path id="Rectangle-Copy-15_2_" class="st0" d="M973,164h95c5.5,0,10,4.5,10,10v64c0,5.5-4.5,10-10,10h-95c-5.5,0-10-4.5-10-10
				v-64C963,168.5,967.5,164,973,164z"/>
			<polygon id="Path" class="st2" points="1021.6,212.9 1021.6,206.7 1027.8,206.7 1027.8,212.9 1029.4,212.9 1029.4,199.2 
				1027.8,199.2 1027.8,205.2 1021.6,205.2 1021.6,199.2 1020,199.2 1020,212.9 			"/>
			<path id="Path_1_" class="st2" d="M1036.4,213.2c0.7,0,1.4-0.1,2-0.3c0.6-0.2,1.1-0.4,1.5-0.8s0.7-0.7,0.9-1.2
				c0.2-0.5,0.3-1,0.3-1.6c0-0.7-0.2-1.3-0.5-1.8c-0.4-0.5-0.8-0.9-1.3-1.2c-0.5-0.3-1.1-0.6-1.7-0.9c-0.6-0.3-1.2-0.5-1.7-0.8
				c-0.5-0.3-1-0.6-1.3-0.9c-0.4-0.3-0.5-0.8-0.5-1.3c0-0.3,0.1-0.5,0.2-0.7c0.1-0.2,0.3-0.4,0.6-0.6c0.2-0.2,0.5-0.3,0.9-0.4
				c0.3-0.1,0.7-0.2,1.2-0.2c0.4,0,0.9,0,1.3,0.1c0.4,0.1,0.8,0.1,1.1,0.2l0,0v2.1h1.4v-3.1l0-0.1h0v0l0,0c-0.4-0.2-0.9-0.3-1.5-0.4
				c-0.6-0.1-1.4-0.2-2.1-0.2c-0.7,0-1.3,0.1-1.8,0.2c-0.6,0.2-1,0.4-1.4,0.7c-0.4,0.3-0.7,0.7-0.9,1.1c-0.2,0.4-0.3,0.9-0.3,1.4
				c0,0.8,0.2,1.4,0.5,1.9c0.4,0.5,0.8,0.9,1.3,1.2c0.5,0.3,1.1,0.6,1.7,0.9c0.6,0.2,1.2,0.5,1.7,0.8c0.5,0.3,1,0.6,1.3,0.9
				c0.4,0.3,0.5,0.8,0.5,1.3c0,0.4-0.1,0.7-0.2,1s-0.4,0.5-0.7,0.7s-0.6,0.3-1,0.4c-0.4,0.1-0.8,0.1-1.2,0.1c-0.5,0-1-0.1-1.5-0.2
				c-0.5-0.1-0.9-0.3-1.3-0.5l0,0v-2.2h-1.4v3.2l0,0.1c0.2,0.1,0.4,0.2,0.7,0.3s0.6,0.3,1,0.4s0.8,0.2,1.2,0.3
				C1035.4,213.1,1035.9,213.2,1036.4,213.2z"/>
			<polygon id="Path_2_" class="st2" points="1045.1,212.9 1045.1,203.8 1044.8,202 1044.9,202 1045.8,203.6 1047.9,207 1048.4,207 
				1050.4,203.7 1051.4,202 1051.5,202 1051.3,203.8 1051.3,212.9 1052.9,212.9 1052.9,199.2 1051.4,199.2 1048.3,204.4 
				1048.2,204.4 1045,199.2 1043.5,199.2 1043.5,212.9 			"/>
			<path id="Shape_2_" class="st3" d="M997,192l-11,4.9v7.4c0,6.8,4.7,13.2,11,14.7c6.3-1.5,11-7.9,11-14.7v-7.4L997,192 M997,200
				c1.8,0,3.5,1.3,3.5,3v1.8c0.8,0,1.5,0.7,1.5,1.6v4.2c0,0.7-0.8,1.4-1.6,1.4h-6.9c-0.8,0-1.5-0.7-1.5-1.6v-4.2
				c0-0.7,0.8-1.4,1.5-1.4V203C993.5,201.3,995.2,200,997,200 M997,201c-1.1,0-2,0.5-2,1.4v1.6h4v-1.6C999,201.5,998.1,201,997,201z
				"/>
			<g id="Group_2_" transform="translate(919.000000, 190.000000)">
				
					<g id="icon_x2F_fingerprint-copy_2_" transform="translate(16.000000, 16.000000) rotate(-270.000000) translate(-16.000000, -16.000000) ">
					<path id="Shape_3_" class="st1" d="M12,4L6.7,9.3h4v9.3h2.7V9.3h4 M21.3,22.7v-9.3h-2.7v9.3h-4L20,28l5.3-5.3H21.3z"/>
				</g>
			</g>
			<path id="Path_3_" class="st1" d="M406.4,203c-0.7-3.4-3.7-6-7.4-6c-2.9,0-5.4,1.6-6.6,4c-3,0.3-5.4,2.9-5.4,6c0,3.3,2.7,6,6,6
				h13c1.3,0,2.6-0.5,3.5-1.5s1.5-2.2,1.5-3.5C411,205.4,409,203.2,406.4,203z"/>
			<path id="Rectangle-Copy-15_3_" class="st0" d="M10,164h263c5.5,0,10,4.5,10,10v64c0,5.5-4.5,10-10,10H10c-5.5,0-10-4.5-10-10
				v-64C0,168.5,4.5,164,10,164z"/>
			<path id="Shape_4_" class="st1" d="M49,208H39v-10h10 M53,202v-2h-2v-2c0-1.1-0.9-2-2-2h-2v-2h-2v2h-2v-2h-2v2h-2
				c-1.1,0-2,0.9-2,2v2h-2v2h2v2h-2v2h2v2c0,1.1,0.9,2,2,2h2v2h2v-2h2v2h2v-2h2c1.1,0,2-0.9,2-2v-2h2v-2h-2v-2 M45,204h-2v-2h2
				 M47,200h-6v6h6V200z"/>
			<g class="st4">
				<path class="st2" d="M424.2,203.4c0-1.9,0.3-3.3,1-4.3c0.7-1,1.7-1.5,3-1.5c0.7,0,1.4,0.1,1.9,0.4c0.5,0.3,0.9,0.7,1.3,1.2
					c0.3,0.5,0.5,1.1,0.7,1.8c0.1,0.7,0.2,1.5,0.2,2.4c0,1.9-0.3,3.3-1,4.3c-0.7,1-1.7,1.5-3.1,1.5c-0.7,0-1.4-0.1-1.9-0.4
					c-0.5-0.3-0.9-0.7-1.2-1.2c-0.3-0.5-0.5-1.1-0.7-1.8C424.2,205.1,424.2,204.3,424.2,203.4z M425.6,203.4c0,0.6,0,1.2,0.1,1.8
					s0.2,1,0.4,1.5c0.2,0.4,0.5,0.8,0.8,1c0.3,0.3,0.8,0.4,1.3,0.4c0.9,0,1.6-0.4,2-1.1c0.4-0.7,0.6-1.9,0.6-3.5
					c0-0.6,0-1.2-0.1-1.8c-0.1-0.6-0.2-1.1-0.4-1.5c-0.2-0.4-0.5-0.8-0.8-1c-0.3-0.2-0.8-0.4-1.3-0.4c-0.9,0-1.6,0.4-2,1.1
					C425.8,200.7,425.6,201.8,425.6,203.4z"/>
				<path class="st2" d="M440,202.2c-0.2-0.1-0.5-0.2-0.8-0.2c-0.3-0.1-0.6-0.1-0.8-0.1c-1,0-1.8,0.2-2.3,0.7
					c-0.5,0.5-0.8,1.3-0.8,2.3c0,0.5,0.1,0.9,0.2,1.3c0.1,0.4,0.4,0.7,0.6,0.9s0.6,0.5,1,0.6c0.4,0.1,0.8,0.2,1.3,0.2
					c0.5,0,1-0.1,1.5-0.3c0.5-0.2,0.9-0.4,1.2-0.7l0.6,0.9c-0.1,0.1-0.3,0.3-0.6,0.4c-0.2,0.1-0.5,0.3-0.8,0.4s-0.6,0.2-1,0.3
					c-0.4,0.1-0.7,0.1-1.2,0.1c-0.7,0-1.3-0.1-1.8-0.3c-0.5-0.2-1-0.5-1.3-0.8c-0.4-0.4-0.6-0.8-0.8-1.3c-0.2-0.5-0.3-1.1-0.3-1.7
					c0-0.7,0.1-1.3,0.3-1.8c0.2-0.5,0.5-1,0.8-1.3c0.4-0.4,0.8-0.6,1.3-0.8c0.5-0.2,1.1-0.3,1.7-0.3c0.8,0,1.4,0.1,1.9,0.2
					c0.5,0.1,0.9,0.3,1.3,0.5l0,0v2.2H440V202.2z"/>
				<path class="st2" d="M443,197.8h2.6v6.6h0.9l3.2-3.4h1.5l-3.5,3.8l2.9,3.1h1v1.1h-1.6l-3.4-3.6h-0.9v3.6h-1.2v-10.1H443V197.8z"
					/>
				<path class="st2" d="M453.9,201.6c0.5-0.3,1-0.5,1.6-0.6c0.6-0.1,1.1-0.2,1.7-0.2c0.5,0,1,0.1,1.3,0.3s0.6,0.4,0.8,0.7
					s0.3,0.6,0.4,0.9s0.1,0.7,0.1,1c0,0.4,0,0.8,0,1.3c0,0.5,0,0.9,0,1.4c0,0.5,0,1,0.1,1.5h1.1v1h-2.1l-0.1-1.2h-0.1
					c-0.1,0.1-0.2,0.2-0.3,0.4s-0.3,0.3-0.5,0.4c-0.2,0.1-0.5,0.3-0.8,0.4c-0.3,0.1-0.7,0.2-1.1,0.2c-0.8,0-1.4-0.2-1.9-0.6
					s-0.7-1-0.7-1.7c0-0.5,0.1-1,0.4-1.4c0.2-0.4,0.6-0.6,1-0.8c0.4-0.2,1-0.3,1.6-0.3c0.6,0,1.4,0,2.1,0.1c0.1-0.5,0.1-0.9,0-1.2
					c0-0.3-0.1-0.6-0.3-0.8c-0.1-0.2-0.3-0.3-0.6-0.4c-0.2-0.1-0.5-0.1-0.9-0.1c-0.5,0-0.9,0.1-1.4,0.2c-0.4,0.1-0.8,0.3-1.2,0.4
					L453.9,201.6z M456.3,208.1c0.3,0,0.6,0,0.8-0.1c0.3-0.1,0.5-0.2,0.7-0.4c0.2-0.1,0.4-0.3,0.5-0.5s0.2-0.3,0.3-0.5v-1.1
					c-0.6-0.1-1.1-0.1-1.5-0.1c-0.5,0-0.9,0.1-1.2,0.2c-0.3,0.1-0.6,0.3-0.8,0.5c-0.2,0.2-0.3,0.5-0.3,0.8c0,0.4,0.1,0.7,0.4,0.9
					C455.3,207.9,455.7,208.1,456.3,208.1z"/>
				<path class="st2" d="M466,209v-5.3c0-0.2,0-0.4,0-0.6s-0.1-0.4-0.1-0.6c-0.1-0.2-0.1-0.3-0.3-0.4c-0.1-0.1-0.3-0.1-0.4-0.1
					c-0.4,0-0.7,0.1-0.9,0.4s-0.4,0.7-0.6,1.1v5.5h-1.2v-8h0.8l0.2,1h0.1c0.1-0.2,0.2-0.3,0.3-0.5c0.1-0.1,0.2-0.3,0.4-0.4
					c0.1-0.1,0.3-0.2,0.5-0.2c0.2-0.1,0.4-0.1,0.7-0.1c0.2,0,0.3,0,0.5,0.1c0.2,0,0.3,0.1,0.5,0.2c0.1,0.1,0.3,0.2,0.4,0.4
					c0.1,0.2,0.2,0.4,0.2,0.6c0.2-0.4,0.5-0.7,0.8-1c0.3-0.2,0.7-0.4,1.3-0.4c0.4,0,0.6,0.1,0.9,0.2c0.2,0.1,0.4,0.3,0.5,0.5
					c0.1,0.2,0.2,0.5,0.3,0.8c0,0.3,0.1,0.6,0.1,1v5.7h-1.2v-5.4c0-0.2,0-0.4,0-0.6c0-0.2-0.1-0.4-0.1-0.5c-0.1-0.1-0.1-0.3-0.2-0.4
					c-0.1-0.1-0.2-0.1-0.4-0.1c-0.4,0-0.7,0.1-0.9,0.4c-0.3,0.3-0.4,0.7-0.6,1.3v5.3H466z"/>
				<path class="st2" d="M482.6,197.9c0.4-0.1,0.9-0.1,1.4-0.2c0.5,0,1-0.1,1.4-0.1c0.5,0,1,0.1,1.4,0.2s0.8,0.3,1.2,0.5
					c0.3,0.2,0.6,0.6,0.8,1s0.3,0.9,0.3,1.4c0,0.4-0.1,0.8-0.2,1.2s-0.3,0.6-0.5,0.9s-0.4,0.4-0.6,0.6s-0.4,0.3-0.6,0.3l3,5.3h-1.6
					l-2.6-4.9h-2v4.9h-1.3V197.9z M485.5,198.8c-0.1,0-0.3,0-0.4,0s-0.3,0-0.4,0c-0.1,0-0.3,0-0.4,0c-0.1,0-0.2,0-0.3,0v4.1h1.2
					c0.7,0,1.3-0.2,1.8-0.5c0.5-0.4,0.7-0.9,0.7-1.7c0-0.6-0.2-1-0.6-1.4C486.7,199,486.2,198.8,485.5,198.8z"/>
				<path class="st2" d="M499.1,208c-0.2,0.2-0.4,0.3-0.7,0.5c-0.3,0.1-0.5,0.3-0.9,0.4c-0.3,0.1-0.6,0.2-1,0.2s-0.7,0.1-1,0.1
					c-0.6,0-1.2-0.1-1.7-0.3c-0.5-0.2-0.9-0.5-1.2-0.8c-0.3-0.4-0.6-0.8-0.8-1.3c-0.2-0.5-0.3-1.1-0.3-1.7c0-0.7,0.1-1.3,0.3-1.8
					c0.2-0.5,0.5-1,0.8-1.3c0.4-0.4,0.8-0.6,1.3-0.8s1.1-0.3,1.7-0.3c0.4,0,0.9,0.1,1.3,0.2s0.8,0.3,1.2,0.7
					c0.3,0.3,0.6,0.8,0.8,1.3c0.2,0.6,0.2,1.3,0.2,2.2h-6.2c0,1,0.3,1.7,0.8,2.2c0.5,0.5,1.2,0.7,2.1,0.7c0.3,0,0.6,0,0.9-0.1
					c0.3-0.1,0.6-0.2,0.8-0.2c0.3-0.1,0.5-0.2,0.7-0.3c0.2-0.1,0.3-0.2,0.5-0.3L499.1,208z M495.7,201.9c-0.4,0-0.7,0-1,0.1
					c-0.3,0.1-0.6,0.2-0.8,0.4c-0.2,0.2-0.4,0.4-0.6,0.7c-0.2,0.3-0.3,0.6-0.3,1h5c-0.1-0.7-0.3-1.2-0.7-1.6
					S496.3,201.9,495.7,201.9z"/>
				<path class="st2" d="M508.6,209.4c0,0.5-0.1,0.9-0.3,1.3c-0.2,0.4-0.5,0.7-0.8,0.9c-0.3,0.2-0.7,0.4-1.2,0.6
					c-0.4,0.1-0.9,0.2-1.5,0.2c-0.6,0-1.2-0.1-1.6-0.2s-0.9-0.3-1.2-0.5l0.6-1.1c0.1,0.1,0.2,0.2,0.4,0.2c0.2,0.1,0.3,0.2,0.5,0.2
					s0.4,0.1,0.6,0.2c0.2,0,0.5,0.1,0.7,0.1c0.5,0,0.9,0,1.2-0.1c0.3-0.1,0.6-0.2,0.8-0.4c0.2-0.2,0.3-0.4,0.4-0.7s0.1-0.6,0.1-1.1
					v-0.9h-0.1c-0.2,0.4-0.6,0.6-0.9,0.8c-0.4,0.2-0.9,0.3-1.5,0.3c-1.2,0-2.1-0.3-2.7-1c-0.6-0.7-0.9-1.7-0.9-3.2
					c0-1.4,0.4-2.4,1.1-3.1c0.7-0.7,1.8-1,3.2-1c0.7,0,1.2,0,1.7,0.1c0.5,0.1,0.9,0.2,1.3,0.3V209.4z M505,208.1
					c0.6,0,1.2-0.2,1.5-0.5c0.4-0.3,0.6-0.9,0.8-1.5v-3.8c-0.5-0.2-1.1-0.3-2-0.3c-0.8,0-1.5,0.2-2,0.8c-0.5,0.5-0.7,1.3-0.7,2.3
					c0,0.5,0,0.9,0.1,1.3c0.1,0.4,0.2,0.7,0.4,1s0.4,0.5,0.7,0.6C504.2,208,504.6,208.1,505,208.1z"/>
				<path class="st2" d="M511.5,209v-1.1h2.8v-5.9h-2.8V201h4v6.9h2.7v1.1H511.5z M513.8,198.7c0-0.3,0.1-0.5,0.3-0.7
					c0.2-0.2,0.4-0.3,0.7-0.3c0.3,0,0.6,0.1,0.8,0.3s0.3,0.5,0.3,0.7c0,0.3-0.1,0.5-0.3,0.7c-0.2,0.2-0.5,0.3-0.8,0.3
					c-0.3,0-0.5-0.1-0.7-0.3C513.9,199.2,513.8,199,513.8,198.7z"/>
				<path class="st2" d="M526.4,206.8c0-0.3-0.1-0.6-0.4-0.8c-0.3-0.2-0.6-0.3-1-0.4c-0.4-0.1-0.8-0.2-1.3-0.3
					c-0.5-0.1-0.9-0.2-1.3-0.4s-0.7-0.4-1-0.6c-0.3-0.3-0.4-0.7-0.4-1.1c0-0.4,0.1-0.8,0.3-1c0.2-0.3,0.4-0.5,0.7-0.7s0.6-0.3,1-0.4
					c0.4-0.1,0.8-0.1,1.2-0.1c0.7,0,1.4,0.1,1.9,0.3c0.5,0.2,1,0.4,1.3,0.6l-0.5,1c-0.4-0.2-0.7-0.4-1.1-0.6
					c-0.4-0.2-0.9-0.3-1.5-0.3c-0.2,0-0.5,0-0.7,0.1c-0.2,0-0.4,0.1-0.6,0.2c-0.2,0.1-0.3,0.2-0.4,0.4c-0.1,0.2-0.2,0.3-0.2,0.6
					c0,0.3,0.1,0.5,0.4,0.6c0.3,0.1,0.6,0.3,1,0.4s0.8,0.2,1.3,0.3c0.5,0.1,0.9,0.2,1.3,0.4s0.7,0.4,1,0.7c0.3,0.3,0.4,0.7,0.4,1.2
					c0,0.7-0.3,1.3-0.9,1.8c-0.6,0.5-1.5,0.7-2.6,0.7c-0.4,0-0.7,0-1-0.1c-0.3-0.1-0.7-0.1-1-0.3c-0.3-0.1-0.6-0.2-0.8-0.4
					c-0.2-0.1-0.4-0.3-0.6-0.4l0.6-1c0.1,0.1,0.3,0.3,0.5,0.4c0.2,0.1,0.4,0.3,0.7,0.4s0.5,0.2,0.8,0.3c0.3,0.1,0.6,0.1,0.9,0.1
					c0.3,0,0.6,0,0.8-0.1c0.2,0,0.5-0.1,0.7-0.2s0.3-0.2,0.5-0.4C526.3,207.3,526.4,207.1,526.4,206.8z"/>
				<path class="st2" d="M529.5,201h1.9v-1.6l1.3-0.4v1.9h4.3v1.1h-4.3v3.8c0,0.8,0.2,1.4,0.6,1.7s0.9,0.6,1.6,0.6
					c0.5,0,0.9-0.1,1.3-0.3c0.4-0.2,0.7-0.4,1-0.6l0.4,0.9c-0.4,0.3-0.8,0.5-1.3,0.7c-0.5,0.2-1,0.3-1.6,0.3c-0.4,0-0.8-0.1-1.2-0.2
					c-0.4-0.1-0.7-0.3-1-0.6c-0.3-0.3-0.5-0.6-0.7-1c-0.2-0.4-0.3-0.9-0.3-1.4v-4h-1.9V201z"/>
				<path class="st2" d="M539.7,209v-1.1h2.2v-5.9h-2.2V201h3l0.3,1h0.1c0.4-0.3,0.8-0.6,1.2-0.8c0.4-0.2,1-0.4,1.6-0.4
					c0.4,0,0.7,0.1,0.9,0.2s0.4,0.3,0.5,0.6s0.2,0.6,0.2,1c0,0.4,0.1,0.8,0.1,1.3l-1.1,0c0-0.7-0.1-1.2-0.2-1.5
					c-0.1-0.3-0.4-0.5-0.7-0.5c-0.3,0-0.6,0-0.9,0.1c-0.3,0.1-0.5,0.2-0.7,0.4c-0.2,0.1-0.4,0.3-0.5,0.4c-0.1,0.1-0.2,0.3-0.3,0.4
					v4.7h3.1v1.1H539.7z"/>
				<path class="st2" d="M553.2,207.8h0.6l2-6.8h1.3l-2.2,7.2c-0.1,0.4-0.2,0.8-0.4,1.3s-0.3,0.9-0.5,1.3c-0.2,0.4-0.5,0.8-0.9,1.1
					c-0.4,0.3-0.9,0.4-1.5,0.4c-0.1,0-0.3,0-0.4,0c-0.2,0-0.3-0.1-0.5-0.1c-0.1,0-0.3-0.1-0.4-0.2c-0.1-0.1-0.2-0.1-0.3-0.2l0.4-1.2
					c0.1,0.1,0.2,0.1,0.3,0.2s0.2,0.1,0.4,0.1c0.1,0,0.3,0.1,0.4,0.1c0.1,0,0.2,0,0.3,0c0.8,0,1.3-0.7,1.6-2h-1.1l-3.4-8h1.4
					L553.2,207.8z"/>
				<path class="st2" d="M569.8,207.4c0.3,0.2,0.7,0.3,1.1,0.4c0.4,0.1,0.8,0.2,1.2,0.2c0.4,0,0.7,0,1-0.1s0.6-0.2,0.8-0.3
					c0.2-0.2,0.4-0.3,0.5-0.6c0.1-0.2,0.2-0.5,0.2-0.8c0-0.4-0.1-0.8-0.4-1.1c-0.3-0.3-0.7-0.5-1.1-0.7c-0.4-0.2-0.9-0.4-1.4-0.6
					c-0.5-0.2-1-0.4-1.4-0.7s-0.8-0.6-1.1-1c-0.3-0.4-0.4-0.9-0.4-1.5c0-0.4,0.1-0.8,0.3-1.2c0.2-0.4,0.4-0.7,0.7-0.9
					c0.3-0.2,0.7-0.4,1.2-0.6c0.5-0.1,1-0.2,1.5-0.2c0.6,0,1.2,0,1.7,0.1s0.9,0.2,1.2,0.4l0,0v0h0l0,0v2.6h-1.2V199
					c-0.3-0.1-0.6-0.1-0.9-0.2c-0.3,0-0.7-0.1-1-0.1c-0.4,0-0.7,0-1,0.1c-0.3,0.1-0.5,0.2-0.7,0.3c-0.2,0.1-0.3,0.3-0.5,0.5
					c-0.1,0.2-0.2,0.4-0.2,0.6c0,0.4,0.1,0.8,0.4,1c0.3,0.3,0.7,0.5,1.1,0.7s0.9,0.4,1.4,0.6c0.5,0.2,1,0.5,1.4,0.7
					c0.4,0.3,0.8,0.6,1.1,1c0.3,0.4,0.4,0.9,0.4,1.5c0,0.5-0.1,0.9-0.3,1.3s-0.4,0.7-0.8,1c-0.3,0.3-0.7,0.5-1.2,0.6s-1,0.2-1.6,0.2
					c-0.4,0-0.8,0-1.2-0.1c-0.4-0.1-0.7-0.1-1-0.2c-0.3-0.1-0.6-0.2-0.8-0.3c-0.2-0.1-0.4-0.2-0.6-0.3l0,0v-2.6h1.2V207.4z"/>
				<path class="st2" d="M585.5,208c-0.2,0.2-0.4,0.3-0.7,0.5c-0.3,0.1-0.5,0.3-0.9,0.4c-0.3,0.1-0.6,0.2-1,0.2s-0.7,0.1-1,0.1
					c-0.6,0-1.2-0.1-1.7-0.3c-0.5-0.2-0.9-0.5-1.2-0.8s-0.6-0.8-0.8-1.3c-0.2-0.5-0.3-1.1-0.3-1.7c0-0.7,0.1-1.3,0.3-1.8
					c0.2-0.5,0.5-1,0.8-1.3c0.4-0.4,0.8-0.6,1.3-0.8c0.5-0.2,1.1-0.3,1.7-0.3c0.4,0,0.9,0.1,1.3,0.2s0.8,0.3,1.2,0.7
					c0.3,0.3,0.6,0.8,0.8,1.3c0.2,0.6,0.2,1.3,0.2,2.2h-6.2c0,1,0.3,1.7,0.8,2.2c0.5,0.5,1.2,0.7,2.1,0.7c0.3,0,0.6,0,0.9-0.1
					c0.3-0.1,0.5-0.2,0.8-0.2c0.3-0.1,0.5-0.2,0.7-0.3c0.2-0.1,0.3-0.2,0.5-0.3L585.5,208z M582.1,201.9c-0.4,0-0.7,0-1,0.1
					c-0.3,0.1-0.6,0.2-0.8,0.4c-0.2,0.2-0.4,0.4-0.6,0.7s-0.3,0.6-0.3,1h5c-0.1-0.7-0.3-1.2-0.7-1.6
					C583.3,202.1,582.7,201.9,582.1,201.9z"/>
				<path class="st2" d="M587.7,209v-1.1h2.2v-5.9h-2.2V201h3l0.3,1h0.1c0.4-0.3,0.8-0.6,1.2-0.8c0.4-0.2,1-0.4,1.6-0.4
					c0.4,0,0.7,0.1,0.9,0.2s0.4,0.3,0.5,0.6c0.1,0.3,0.2,0.6,0.2,1c0,0.4,0.1,0.8,0.1,1.3l-1.1,0c0-0.7-0.1-1.2-0.2-1.5
					c-0.1-0.3-0.4-0.5-0.7-0.5c-0.3,0-0.6,0-0.9,0.1c-0.3,0.1-0.5,0.2-0.7,0.4c-0.2,0.1-0.4,0.3-0.5,0.4c-0.1,0.1-0.2,0.3-0.3,0.4
					v4.7h3.1v1.1H587.7z"/>
				<path class="st2" d="M601,207.4h0.2l2.5-6.4h1.4l-3.4,8h-1.4l-3.4-8h1.5L601,207.4z"/>
				<path class="st2" d="M607.5,209v-1.1h2.8v-5.9h-2.8V201h4v6.9h2.7v1.1H607.5z M609.8,198.7c0-0.3,0.1-0.5,0.3-0.7
					s0.4-0.3,0.7-0.3c0.3,0,0.6,0.1,0.8,0.3s0.3,0.5,0.3,0.7c0,0.3-0.1,0.5-0.3,0.7c-0.2,0.2-0.5,0.3-0.8,0.3
					c-0.3,0-0.5-0.1-0.7-0.3C609.9,199.2,609.8,199,609.8,198.7z"/>
				<path class="st2" d="M622.4,202.2c-0.2-0.1-0.5-0.2-0.8-0.2c-0.3-0.1-0.6-0.1-0.8-0.1c-1,0-1.8,0.2-2.3,0.7s-0.8,1.3-0.8,2.3
					c0,0.5,0.1,0.9,0.2,1.3s0.4,0.7,0.6,0.9s0.6,0.5,1,0.6c0.4,0.1,0.8,0.2,1.3,0.2c0.5,0,1-0.1,1.5-0.3c0.5-0.2,0.9-0.4,1.2-0.7
					l0.6,0.9c-0.1,0.1-0.3,0.3-0.6,0.4c-0.2,0.1-0.5,0.3-0.8,0.4c-0.3,0.1-0.6,0.2-1,0.3c-0.4,0.1-0.7,0.1-1.2,0.1
					c-0.7,0-1.3-0.1-1.8-0.3c-0.5-0.2-1-0.5-1.3-0.8c-0.4-0.4-0.6-0.8-0.8-1.3c-0.2-0.5-0.3-1.1-0.3-1.7c0-0.7,0.1-1.3,0.3-1.8
					c0.2-0.5,0.5-1,0.8-1.3c0.4-0.4,0.8-0.6,1.3-0.8c0.5-0.2,1.1-0.3,1.7-0.3c0.8,0,1.4,0.1,1.9,0.2c0.5,0.1,0.9,0.3,1.3,0.5l0,0
					v2.2h-1.2V202.2z"/>
				<path class="st2" d="M633.5,208c-0.2,0.2-0.4,0.3-0.7,0.5c-0.3,0.1-0.5,0.3-0.9,0.4c-0.3,0.1-0.6,0.2-1,0.2s-0.7,0.1-1,0.1
					c-0.6,0-1.2-0.1-1.7-0.3c-0.5-0.2-0.9-0.5-1.2-0.8s-0.6-0.8-0.8-1.3c-0.2-0.5-0.3-1.1-0.3-1.7c0-0.7,0.1-1.3,0.3-1.8
					c0.2-0.5,0.5-1,0.8-1.3c0.4-0.4,0.8-0.6,1.3-0.8c0.5-0.2,1.1-0.3,1.7-0.3c0.4,0,0.9,0.1,1.3,0.2s0.8,0.3,1.2,0.7
					c0.3,0.3,0.6,0.8,0.8,1.3c0.2,0.6,0.2,1.3,0.2,2.2h-6.2c0,1,0.3,1.7,0.8,2.2c0.5,0.5,1.2,0.7,2.1,0.7c0.3,0,0.6,0,0.9-0.1
					c0.3-0.1,0.5-0.2,0.8-0.2c0.3-0.1,0.5-0.2,0.7-0.3c0.2-0.1,0.3-0.2,0.5-0.3L633.5,208z M630.1,201.9c-0.4,0-0.7,0-1,0.1
					c-0.3,0.1-0.6,0.2-0.8,0.4c-0.2,0.2-0.4,0.4-0.6,0.7s-0.3,0.6-0.3,1h5c-0.1-0.7-0.3-1.2-0.7-1.6
					C631.3,202.1,630.7,201.9,630.1,201.9z"/>
			</g>
			<g class="st4">
				<path class="st2" d="M68.8,192.4c0-1.9,0.3-3.3,1-4.3c0.7-1,1.7-1.5,3-1.5c0.7,0,1.4,0.1,1.9,0.4c0.5,0.3,0.9,0.7,1.3,1.2
					c0.3,0.5,0.5,1.1,0.7,1.8c0.1,0.7,0.2,1.5,0.2,2.4c0,1.9-0.3,3.3-1,4.3c-0.7,1-1.7,1.5-3.1,1.5c-0.7,0-1.4-0.1-1.9-0.4
					c-0.5-0.3-0.9-0.7-1.2-1.2c-0.3-0.5-0.5-1.1-0.7-1.8C68.8,194.1,68.8,193.3,68.8,192.4z M70.2,192.4c0,0.6,0,1.2,0.1,1.8
					s0.2,1,0.4,1.5c0.2,0.4,0.5,0.8,0.8,1c0.3,0.3,0.8,0.4,1.3,0.4c0.9,0,1.6-0.4,2-1.1c0.4-0.7,0.6-1.9,0.6-3.5
					c0-0.6,0-1.2-0.1-1.8c-0.1-0.6-0.2-1.1-0.4-1.5c-0.2-0.4-0.5-0.8-0.8-1c-0.3-0.2-0.8-0.4-1.3-0.4c-0.9,0-1.6,0.4-2,1.1
					C70.4,189.7,70.2,190.8,70.2,192.4z"/>
				<path class="st2" d="M84.6,191.2c-0.2-0.1-0.5-0.2-0.8-0.2c-0.3-0.1-0.6-0.1-0.8-0.1c-1,0-1.8,0.2-2.3,0.7
					c-0.5,0.5-0.8,1.3-0.8,2.3c0,0.5,0.1,0.9,0.2,1.3c0.1,0.4,0.4,0.7,0.6,0.9s0.6,0.5,1,0.6c0.4,0.1,0.8,0.2,1.3,0.2
					c0.5,0,1-0.1,1.5-0.3c0.5-0.2,0.9-0.4,1.2-0.7l0.6,0.9c-0.1,0.1-0.3,0.3-0.6,0.4c-0.2,0.1-0.5,0.3-0.8,0.4s-0.6,0.2-1,0.3
					c-0.4,0.1-0.7,0.1-1.2,0.1c-0.7,0-1.3-0.1-1.8-0.3c-0.5-0.2-1-0.5-1.3-0.8c-0.4-0.4-0.6-0.8-0.8-1.3c-0.2-0.5-0.3-1.1-0.3-1.7
					c0-0.7,0.1-1.3,0.3-1.8c0.2-0.5,0.5-1,0.8-1.3c0.4-0.4,0.8-0.6,1.3-0.8c0.5-0.2,1.1-0.3,1.7-0.3c0.8,0,1.4,0.1,1.9,0.2
					c0.5,0.1,0.9,0.3,1.3,0.5l0,0v2.2h-1.2V191.2z"/>
				<path class="st2" d="M87.6,186.8h2.6v6.6h0.9l3.2-3.4h1.5l-3.5,3.8l2.9,3.1h1v1.1h-1.6l-3.4-3.6h-0.9v3.6h-1.2v-10.1h-1.4V186.8
					z"/>
				<path class="st2" d="M98.5,190.6c0.5-0.3,1-0.5,1.6-0.6c0.6-0.1,1.1-0.2,1.7-0.2c0.5,0,1,0.1,1.3,0.3s0.6,0.4,0.8,0.7
					s0.3,0.6,0.4,0.9s0.1,0.7,0.1,1c0,0.4,0,0.8,0,1.3c0,0.5,0,0.9,0,1.4c0,0.5,0,1,0.1,1.5h1.1v1h-2.1l-0.1-1.2h-0.1
					c-0.1,0.1-0.2,0.2-0.3,0.4s-0.3,0.3-0.5,0.4c-0.2,0.1-0.5,0.3-0.8,0.4c-0.3,0.1-0.7,0.2-1.1,0.2c-0.8,0-1.4-0.2-1.9-0.6
					s-0.7-1-0.7-1.7c0-0.5,0.1-1,0.4-1.4c0.2-0.4,0.6-0.6,1-0.8c0.4-0.2,1-0.3,1.6-0.3c0.6,0,1.4,0,2.1,0.1c0.1-0.5,0.1-0.9,0-1.2
					c0-0.3-0.1-0.6-0.3-0.8c-0.1-0.2-0.3-0.3-0.6-0.4c-0.2-0.1-0.5-0.1-0.9-0.1c-0.5,0-0.9,0.1-1.4,0.2c-0.4,0.1-0.8,0.3-1.2,0.4
					L98.5,190.6z M100.9,197.1c0.3,0,0.6,0,0.8-0.1c0.3-0.1,0.5-0.2,0.7-0.4c0.2-0.1,0.4-0.3,0.5-0.5s0.2-0.3,0.3-0.5v-1.1
					c-0.6-0.1-1.1-0.1-1.5-0.1c-0.5,0-0.9,0.1-1.2,0.2c-0.3,0.1-0.6,0.3-0.8,0.5c-0.2,0.2-0.3,0.5-0.3,0.8c0,0.4,0.1,0.7,0.4,0.9
					C99.9,196.9,100.3,197.1,100.9,197.1z"/>
				<path class="st2" d="M110.6,198v-5.3c0-0.2,0-0.4,0-0.6s-0.1-0.4-0.1-0.6c-0.1-0.2-0.1-0.3-0.3-0.4c-0.1-0.1-0.3-0.1-0.4-0.1
					c-0.4,0-0.7,0.1-0.9,0.4s-0.4,0.7-0.6,1.1v5.5h-1.2v-8h0.8l0.2,1h0.1c0.1-0.2,0.2-0.3,0.3-0.5c0.1-0.1,0.2-0.3,0.4-0.4
					c0.1-0.1,0.3-0.2,0.5-0.2c0.2-0.1,0.4-0.1,0.7-0.1c0.2,0,0.3,0,0.5,0.1c0.2,0,0.3,0.1,0.5,0.2c0.1,0.1,0.3,0.2,0.4,0.4
					c0.1,0.2,0.2,0.4,0.2,0.6c0.2-0.4,0.5-0.7,0.8-1c0.3-0.2,0.7-0.4,1.3-0.4c0.4,0,0.6,0.1,0.9,0.2c0.2,0.1,0.4,0.3,0.5,0.5
					c0.1,0.2,0.2,0.5,0.3,0.8c0,0.3,0.1,0.6,0.1,1v5.7h-1.2v-5.4c0-0.2,0-0.4,0-0.6c0-0.2-0.1-0.4-0.1-0.5c-0.1-0.1-0.1-0.3-0.2-0.4
					c-0.1-0.1-0.2-0.1-0.4-0.1c-0.4,0-0.7,0.1-0.9,0.4c-0.3,0.3-0.4,0.7-0.6,1.3v5.3H110.6z"/>
				<path class="st2" d="M134.1,197c-0.2,0.2-0.4,0.3-0.7,0.5c-0.3,0.1-0.5,0.3-0.9,0.4c-0.3,0.1-0.6,0.2-1,0.2s-0.7,0.1-1,0.1
					c-0.6,0-1.2-0.1-1.7-0.3c-0.5-0.2-0.9-0.5-1.2-0.8c-0.3-0.4-0.6-0.8-0.8-1.3c-0.2-0.5-0.3-1.1-0.3-1.7c0-0.7,0.1-1.3,0.3-1.8
					c0.2-0.5,0.5-1,0.8-1.3c0.4-0.4,0.8-0.6,1.3-0.8s1.1-0.3,1.7-0.3c0.4,0,0.9,0.1,1.3,0.2s0.8,0.3,1.2,0.7
					c0.3,0.3,0.6,0.8,0.8,1.3c0.2,0.6,0.2,1.3,0.2,2.2h-6.2c0,1,0.3,1.7,0.8,2.2c0.5,0.5,1.2,0.7,2.1,0.7c0.3,0,0.6,0,0.9-0.1
					c0.3-0.1,0.6-0.2,0.8-0.2c0.3-0.1,0.5-0.2,0.7-0.3c0.2-0.1,0.3-0.2,0.5-0.3L134.1,197z M130.7,190.9c-0.4,0-0.7,0-1,0.1
					c-0.3,0.1-0.6,0.2-0.8,0.4c-0.2,0.2-0.4,0.4-0.6,0.7c-0.2,0.3-0.3,0.6-0.3,1h5c-0.1-0.7-0.3-1.2-0.7-1.6
					S131.3,190.9,130.7,190.9z"/>
				<path class="st2" d="M136.7,192.8c0-0.1,0-0.2,0-0.4c0-0.2,0-0.3,0-0.5c0-0.2,0-0.3,0-0.5s0-0.3-0.1-0.4h-1.1v-1h2.1l0.1,1.3
					h0.1c0.1-0.2,0.2-0.4,0.4-0.5c0.2-0.2,0.4-0.3,0.6-0.5c0.2-0.1,0.5-0.3,0.8-0.3c0.3-0.1,0.6-0.1,0.9-0.1c0.5,0,0.9,0.1,1.3,0.2
					c0.4,0.1,0.7,0.3,0.9,0.6c0.3,0.3,0.4,0.6,0.6,1.1s0.2,1.1,0.2,1.8v4.6h-1.3v-4.3c0-0.9-0.1-1.5-0.4-2c-0.3-0.4-0.8-0.7-1.6-0.7
					c-0.3,0-0.5,0.1-0.8,0.2c-0.3,0.1-0.5,0.3-0.7,0.4s-0.4,0.4-0.6,0.6c-0.2,0.2-0.3,0.5-0.4,0.8v5h-1.2V192.8z"/>
				<path class="st2" d="M146.5,190.6c0.5-0.3,1-0.5,1.6-0.6c0.6-0.1,1.1-0.2,1.7-0.2c0.5,0,1,0.1,1.3,0.3s0.6,0.4,0.8,0.7
					s0.3,0.6,0.4,0.9s0.1,0.7,0.1,1c0,0.4,0,0.8,0,1.3c0,0.5,0,0.9,0,1.4c0,0.5,0,1,0.1,1.5h1.1v1h-2.1l-0.1-1.2h-0.1
					c-0.1,0.1-0.2,0.2-0.3,0.4s-0.3,0.3-0.5,0.4c-0.2,0.1-0.5,0.3-0.8,0.4c-0.3,0.1-0.7,0.2-1.1,0.2c-0.8,0-1.4-0.2-1.9-0.6
					s-0.7-1-0.7-1.7c0-0.5,0.1-1,0.4-1.4c0.2-0.4,0.6-0.6,1-0.8c0.4-0.2,1-0.3,1.6-0.3c0.6,0,1.4,0,2.1,0.1c0.1-0.5,0.1-0.9,0-1.2
					c0-0.3-0.1-0.6-0.3-0.8c-0.1-0.2-0.3-0.3-0.6-0.4c-0.2-0.1-0.5-0.1-0.9-0.1c-0.5,0-0.9,0.1-1.4,0.2c-0.4,0.1-0.8,0.3-1.2,0.4
					L146.5,190.6z M148.9,197.1c0.3,0,0.6,0,0.8-0.1c0.3-0.1,0.5-0.2,0.7-0.4c0.2-0.1,0.4-0.3,0.5-0.5s0.2-0.3,0.3-0.5v-1.1
					c-0.6-0.1-1.1-0.1-1.5-0.1c-0.5,0-0.9,0.1-1.2,0.2c-0.3,0.1-0.6,0.3-0.8,0.5c-0.2,0.2-0.3,0.5-0.3,0.8c0,0.4,0.1,0.7,0.4,0.9
					C147.9,196.9,148.3,197.1,148.9,197.1z"/>
				<path class="st2" d="M154.4,186.8h2.6v4.1h0.1c0.3-0.4,0.6-0.6,1.1-0.8c0.4-0.2,0.9-0.3,1.4-0.3c2.3,0,3.5,1.4,3.5,4.1
					c0,1.4-0.4,2.4-1.1,3.2s-1.8,1.1-3.2,1.1c-0.7,0-1.3-0.1-1.8-0.2c-0.5-0.1-0.9-0.3-1.2-0.4v-9.6h-1.3V186.8z M159.4,190.9
					c-0.6,0-1.2,0.2-1.6,0.5c-0.4,0.4-0.7,0.9-0.9,1.5v3.7c0.2,0.1,0.5,0.2,0.9,0.3c0.3,0.1,0.7,0.1,1.1,0.1c0.4,0,0.8-0.1,1.2-0.2
					c0.3-0.1,0.6-0.3,0.9-0.6c0.2-0.3,0.4-0.6,0.6-1c0.1-0.4,0.2-0.9,0.2-1.4c0-0.4,0-0.8-0.1-1.2s-0.2-0.7-0.4-1
					c-0.2-0.3-0.4-0.5-0.7-0.6C160.2,191,159.8,190.9,159.4,190.9z"/>
				<path class="st2" d="M165.9,186.8h2.7v8.5c0,0.7,0.1,1.1,0.3,1.4s0.5,0.4,1,0.4c0.3,0,0.6-0.1,0.9-0.2c0.3-0.1,0.6-0.3,0.9-0.5
					l0.6,0.9c-0.2,0.1-0.4,0.3-0.6,0.4c-0.2,0.1-0.4,0.2-0.6,0.3s-0.4,0.1-0.6,0.2c-0.2,0-0.4,0.1-0.6,0.1c-0.4,0-0.7-0.1-1.1-0.2
					c-0.3-0.1-0.6-0.3-0.8-0.5c-0.2-0.2-0.4-0.5-0.5-0.9s-0.2-0.8-0.2-1.4v-7.4h-1.4V186.8z"/>
				<path class="st2" d="M182.1,197c-0.2,0.2-0.4,0.3-0.7,0.5c-0.3,0.1-0.5,0.3-0.9,0.4c-0.3,0.1-0.6,0.2-1,0.2s-0.7,0.1-1,0.1
					c-0.6,0-1.2-0.1-1.7-0.3c-0.5-0.2-0.9-0.5-1.2-0.8c-0.3-0.4-0.6-0.8-0.8-1.3c-0.2-0.5-0.3-1.1-0.3-1.7c0-0.7,0.1-1.3,0.3-1.8
					c0.2-0.5,0.5-1,0.8-1.3c0.4-0.4,0.8-0.6,1.3-0.8s1.1-0.3,1.7-0.3c0.4,0,0.9,0.1,1.3,0.2s0.8,0.3,1.2,0.7
					c0.3,0.3,0.6,0.8,0.8,1.3c0.2,0.6,0.2,1.3,0.2,2.2h-6.2c0,1,0.3,1.7,0.8,2.2c0.5,0.5,1.2,0.7,2.1,0.7c0.3,0,0.6,0,0.9-0.1
					c0.3-0.1,0.6-0.2,0.8-0.2c0.3-0.1,0.5-0.2,0.7-0.3c0.2-0.1,0.3-0.2,0.5-0.3L182.1,197z M178.7,190.9c-0.4,0-0.7,0-1,0.1
					c-0.3,0.1-0.6,0.2-0.8,0.4c-0.2,0.2-0.4,0.4-0.6,0.7c-0.2,0.3-0.3,0.6-0.3,1h5c-0.1-0.7-0.3-1.2-0.7-1.6
					S179.3,190.9,178.7,190.9z"/>
				<path class="st2" d="M188.8,186.8h2.6v8.5c0,0.1,0,0.2,0,0.4s0,0.3,0,0.5s0,0.3,0.1,0.5c0,0.2,0,0.3,0.1,0.4h1.1v1h-2.1
					l-0.2-1.2h-0.1c-0.2,0.4-0.6,0.7-1,1c-0.5,0.3-1,0.4-1.6,0.4c-1.2,0-2.1-0.3-2.7-1c-0.6-0.7-0.9-1.7-0.9-3.2
					c0-0.7,0.1-1.3,0.3-1.8c0.2-0.5,0.5-0.9,0.8-1.3c0.4-0.3,0.8-0.6,1.3-0.8c0.5-0.2,1.1-0.3,1.7-0.3c0.2,0,0.4,0,0.6,0
					c0.2,0,0.3,0,0.5,0c0.1,0,0.3,0.1,0.4,0.1c0.1,0,0.3,0.1,0.4,0.1v-2.3h-1.3V186.8z M187.8,197.1c0.6,0,1.2-0.2,1.5-0.5
					s0.6-0.8,0.8-1.5v-3.7c-0.2-0.2-0.5-0.3-0.8-0.4c-0.3-0.1-0.7-0.1-1.2-0.1c-0.9,0-1.5,0.2-2,0.7c-0.5,0.5-0.7,1.3-0.7,2.3
					c0,0.4,0,0.8,0.1,1.2c0.1,0.4,0.2,0.7,0.4,1c0.2,0.3,0.4,0.5,0.7,0.7C187,197,187.4,197.1,187.8,197.1z"/>
			</g>
			<g class="st4">
				<path class="st2" d="M73.6,206.8h2.6v8.5c0,0.1,0,0.2,0,0.4s0,0.3,0,0.5s0,0.3,0.1,0.5c0,0.2,0,0.3,0.1,0.4h1.1v1h-2.1l-0.2-1.2
					h-0.1c-0.2,0.4-0.6,0.7-1,1c-0.5,0.3-1,0.4-1.6,0.4c-1.2,0-2.1-0.3-2.7-1c-0.6-0.7-0.9-1.7-0.9-3.2c0-0.7,0.1-1.3,0.3-1.8
					c0.2-0.5,0.5-0.9,0.8-1.3c0.4-0.3,0.8-0.6,1.3-0.8c0.5-0.2,1.1-0.3,1.7-0.3c0.2,0,0.4,0,0.6,0c0.2,0,0.3,0,0.5,0
					c0.1,0,0.3,0.1,0.4,0.1c0.1,0,0.3,0.1,0.4,0.1v-2.3h-1.3V206.8z M72.6,217.1c0.6,0,1.2-0.2,1.5-0.5s0.6-0.8,0.8-1.5v-3.7
					c-0.2-0.2-0.5-0.3-0.8-0.4c-0.3-0.1-0.7-0.1-1.2-0.1c-0.9,0-1.5,0.2-2,0.7c-0.5,0.5-0.7,1.3-0.7,2.3c0,0.4,0,0.8,0.1,1.2
					c0.1,0.4,0.2,0.7,0.4,1c0.2,0.3,0.4,0.5,0.7,0.7C71.8,217,72.2,217.1,72.6,217.1z"/>
				<path class="st2" d="M86.1,217c-0.2,0.2-0.4,0.3-0.7,0.5c-0.3,0.1-0.5,0.3-0.9,0.4c-0.3,0.1-0.6,0.2-1,0.2s-0.7,0.1-1,0.1
					c-0.6,0-1.2-0.1-1.7-0.3c-0.5-0.2-0.9-0.5-1.2-0.8c-0.3-0.4-0.6-0.8-0.8-1.3c-0.2-0.5-0.3-1.1-0.3-1.7c0-0.7,0.1-1.3,0.3-1.8
					c0.2-0.5,0.5-1,0.8-1.3c0.4-0.4,0.8-0.6,1.3-0.8s1.1-0.3,1.7-0.3c0.4,0,0.9,0.1,1.3,0.2s0.8,0.3,1.2,0.7
					c0.3,0.3,0.6,0.8,0.8,1.3c0.2,0.6,0.2,1.3,0.2,2.2h-6.2c0,1,0.3,1.7,0.8,2.2c0.5,0.5,1.2,0.7,2.1,0.7c0.3,0,0.6,0,0.9-0.1
					c0.3-0.1,0.6-0.2,0.8-0.2c0.3-0.1,0.5-0.2,0.7-0.3c0.2-0.1,0.3-0.2,0.5-0.3L86.1,217z M82.7,210.9c-0.4,0-0.7,0-1,0.1
					c-0.3,0.1-0.6,0.2-0.8,0.4c-0.2,0.2-0.4,0.4-0.6,0.7c-0.2,0.3-0.3,0.6-0.3,1h5c-0.1-0.7-0.3-1.2-0.7-1.6S83.3,210.9,82.7,210.9z
					"/>
				<path class="st2" d="M92,216.4h0.2l2.5-6.4h1.4l-3.4,8h-1.4l-3.4-8h1.5L92,216.4z"/>
				<path class="st2" d="M98.5,218v-1.1h2.8v-5.9h-2.8V210h4v6.9h2.7v1.1H98.5z M100.8,207.7c0-0.3,0.1-0.5,0.3-0.7
					c0.2-0.2,0.4-0.3,0.7-0.3c0.3,0,0.6,0.1,0.8,0.3s0.3,0.5,0.3,0.7c0,0.3-0.1,0.5-0.3,0.7c-0.2,0.2-0.5,0.3-0.8,0.3
					c-0.3,0-0.5-0.1-0.7-0.3C100.9,208.2,100.8,208,100.8,207.7z"/>
				<path class="st2" d="M113.4,211.2c-0.2-0.1-0.5-0.2-0.8-0.2c-0.3-0.1-0.6-0.1-0.8-0.1c-1,0-1.8,0.2-2.3,0.7
					c-0.5,0.5-0.8,1.3-0.8,2.3c0,0.5,0.1,0.9,0.2,1.3c0.1,0.4,0.4,0.7,0.6,0.9s0.6,0.5,1,0.6c0.4,0.1,0.8,0.2,1.3,0.2
					c0.5,0,1-0.1,1.5-0.3c0.5-0.2,0.9-0.4,1.2-0.7l0.6,0.9c-0.1,0.1-0.3,0.3-0.6,0.4c-0.2,0.1-0.5,0.3-0.8,0.4s-0.6,0.2-1,0.3
					c-0.4,0.1-0.7,0.1-1.2,0.1c-0.7,0-1.3-0.1-1.8-0.3c-0.5-0.2-1-0.5-1.3-0.8c-0.4-0.4-0.6-0.8-0.8-1.3c-0.2-0.5-0.3-1.1-0.3-1.7
					c0-0.7,0.1-1.3,0.3-1.8c0.2-0.5,0.5-1,0.8-1.3c0.4-0.4,0.8-0.6,1.3-0.8c0.5-0.2,1.1-0.3,1.7-0.3c0.8,0,1.4,0.1,1.9,0.2
					c0.5,0.1,0.9,0.3,1.3,0.5l0,0v2.2h-1.2V211.2z"/>
				<path class="st2" d="M124.5,217c-0.2,0.2-0.4,0.3-0.7,0.5c-0.3,0.1-0.5,0.3-0.9,0.4c-0.3,0.1-0.6,0.2-1,0.2s-0.7,0.1-1,0.1
					c-0.6,0-1.2-0.1-1.7-0.3c-0.5-0.2-0.9-0.5-1.2-0.8c-0.3-0.4-0.6-0.8-0.8-1.3c-0.2-0.5-0.3-1.1-0.3-1.7c0-0.7,0.1-1.3,0.3-1.8
					c0.2-0.5,0.5-1,0.8-1.3c0.4-0.4,0.8-0.6,1.3-0.8s1.1-0.3,1.7-0.3c0.4,0,0.9,0.1,1.3,0.2s0.8,0.3,1.2,0.7
					c0.3,0.3,0.6,0.8,0.8,1.3c0.2,0.6,0.2,1.3,0.2,2.2h-6.2c0,1,0.3,1.7,0.8,2.2c0.5,0.5,1.2,0.7,2.1,0.7c0.3,0,0.6,0,0.9-0.1
					c0.3-0.1,0.6-0.2,0.8-0.2c0.3-0.1,0.5-0.2,0.7-0.3c0.2-0.1,0.3-0.2,0.5-0.3L124.5,217z M121.1,210.9c-0.4,0-0.7,0-1,0.1
					c-0.3,0.1-0.6,0.2-0.8,0.4c-0.2,0.2-0.4,0.4-0.6,0.7c-0.2,0.3-0.3,0.6-0.3,1h5c-0.1-0.7-0.3-1.2-0.7-1.6
					S121.7,210.9,121.1,210.9z"/>
				<path class="st2" d="M132.6,215.8c0-0.3-0.1-0.6-0.4-0.8c-0.3-0.2-0.6-0.3-1-0.4c-0.4-0.1-0.8-0.2-1.3-0.3
					c-0.5-0.1-0.9-0.2-1.3-0.4s-0.7-0.4-1-0.6c-0.3-0.3-0.4-0.7-0.4-1.1c0-0.4,0.1-0.8,0.3-1c0.2-0.3,0.4-0.5,0.7-0.7s0.6-0.3,1-0.4
					c0.4-0.1,0.8-0.1,1.2-0.1c0.7,0,1.4,0.1,1.9,0.3c0.5,0.2,1,0.4,1.3,0.6l-0.5,1c-0.4-0.2-0.7-0.4-1.1-0.6
					c-0.4-0.2-0.9-0.3-1.5-0.3c-0.2,0-0.5,0-0.7,0.1c-0.2,0-0.4,0.1-0.6,0.2c-0.2,0.1-0.3,0.2-0.4,0.4c-0.1,0.2-0.2,0.3-0.2,0.6
					c0,0.3,0.1,0.5,0.4,0.6c0.3,0.1,0.6,0.3,1,0.4s0.8,0.2,1.3,0.3c0.5,0.1,0.9,0.2,1.3,0.4s0.7,0.4,1,0.7c0.3,0.3,0.4,0.7,0.4,1.2
					c0,0.7-0.3,1.3-0.9,1.8c-0.6,0.5-1.5,0.7-2.6,0.7c-0.4,0-0.7,0-1-0.1c-0.3-0.1-0.7-0.1-1-0.3c-0.3-0.1-0.6-0.2-0.8-0.4
					c-0.2-0.1-0.4-0.3-0.6-0.4l0.6-1c0.1,0.1,0.3,0.3,0.5,0.4c0.2,0.1,0.4,0.3,0.7,0.4s0.5,0.2,0.8,0.3c0.3,0.1,0.6,0.1,0.9,0.1
					c0.3,0,0.6,0,0.8-0.1c0.2,0,0.5-0.1,0.7-0.2s0.3-0.2,0.5-0.4C132.5,216.3,132.6,216.1,132.6,215.8z"/>
				<path class="st2" d="M146.5,210.6c0.5-0.3,1-0.5,1.6-0.6c0.6-0.1,1.1-0.2,1.7-0.2c0.5,0,1,0.1,1.3,0.3s0.6,0.4,0.8,0.7
					s0.3,0.6,0.4,0.9s0.1,0.7,0.1,1c0,0.4,0,0.8,0,1.3c0,0.5,0,0.9,0,1.4c0,0.5,0,1,0.1,1.5h1.1v1h-2.1l-0.1-1.2h-0.1
					c-0.1,0.1-0.2,0.2-0.3,0.4s-0.3,0.3-0.5,0.4c-0.2,0.1-0.5,0.3-0.8,0.4c-0.3,0.1-0.7,0.2-1.1,0.2c-0.8,0-1.4-0.2-1.9-0.6
					s-0.7-1-0.7-1.7c0-0.5,0.1-1,0.4-1.4c0.2-0.4,0.6-0.6,1-0.8c0.4-0.2,1-0.3,1.6-0.3c0.6,0,1.4,0,2.1,0.1c0.1-0.5,0.1-0.9,0-1.2
					c0-0.3-0.1-0.6-0.3-0.8c-0.1-0.2-0.3-0.3-0.6-0.4c-0.2-0.1-0.5-0.1-0.9-0.1c-0.5,0-0.9,0.1-1.4,0.2c-0.4,0.1-0.8,0.3-1.2,0.4
					L146.5,210.6z M148.9,217.1c0.3,0,0.6,0,0.8-0.1c0.3-0.1,0.5-0.2,0.7-0.4c0.2-0.1,0.4-0.3,0.5-0.5s0.2-0.3,0.3-0.5v-1.1
					c-0.6-0.1-1.1-0.1-1.5-0.1c-0.5,0-0.9,0.1-1.2,0.2c-0.3,0.1-0.6,0.3-0.8,0.5c-0.2,0.2-0.3,0.5-0.3,0.8c0,0.4,0.1,0.7,0.4,0.9
					C147.9,216.9,148.3,217.1,148.9,217.1z"/>
				<path class="st2" d="M154.9,210h1.9v-1.6l1.3-0.4v1.9h4.3v1.1h-4.3v3.8c0,0.8,0.2,1.4,0.6,1.7s0.9,0.6,1.6,0.6
					c0.5,0,0.9-0.1,1.3-0.3c0.4-0.2,0.7-0.4,1-0.6l0.4,0.9c-0.4,0.3-0.8,0.5-1.3,0.7c-0.5,0.2-1,0.3-1.6,0.3c-0.4,0-0.8-0.1-1.2-0.2
					c-0.4-0.1-0.7-0.3-1-0.6c-0.3-0.3-0.5-0.6-0.7-1c-0.2-0.4-0.3-0.9-0.3-1.4v-4h-1.9V210z"/>
				<path class="st2" d="M174.1,210h1.9v-1.6l1.3-0.4v1.9h4.3v1.1h-4.3v3.8c0,0.8,0.2,1.4,0.6,1.7s0.9,0.6,1.6,0.6
					c0.5,0,0.9-0.1,1.3-0.3c0.4-0.2,0.7-0.4,1-0.6l0.4,0.9c-0.4,0.3-0.8,0.5-1.3,0.7c-0.5,0.2-1,0.3-1.6,0.3c-0.4,0-0.8-0.1-1.2-0.2
					c-0.4-0.1-0.7-0.3-1-0.6c-0.3-0.3-0.5-0.6-0.7-1c-0.2-0.4-0.3-0.9-0.3-1.4v-4h-1.9V210z"/>
				<path class="st2" d="M183.3,206.8h2.5v4.2h0.1c0.3-0.4,0.7-0.7,1.2-0.9s1-0.3,1.6-0.3c0.5,0,1,0.1,1.3,0.2
					c0.4,0.1,0.7,0.3,0.9,0.6c0.2,0.3,0.4,0.6,0.5,1.1c0.1,0.5,0.2,1.1,0.2,1.8v4.6h-1.3v-4.4c0-0.5,0-0.9-0.1-1.2
					c-0.1-0.3-0.2-0.6-0.3-0.9c-0.2-0.2-0.4-0.4-0.6-0.5c-0.3-0.1-0.6-0.2-1-0.2c-0.3,0-0.6,0.1-0.8,0.2s-0.5,0.2-0.8,0.4
					s-0.4,0.4-0.6,0.6c-0.2,0.3-0.3,0.5-0.3,0.8v5.1h-1.2v-10.1h-1.3V206.8z"/>
				<path class="st2" d="M201.3,217c-0.2,0.2-0.4,0.3-0.7,0.5c-0.3,0.1-0.5,0.3-0.9,0.4c-0.3,0.1-0.6,0.2-1,0.2s-0.7,0.1-1,0.1
					c-0.6,0-1.2-0.1-1.7-0.3c-0.5-0.2-0.9-0.5-1.2-0.8c-0.3-0.4-0.6-0.8-0.8-1.3c-0.2-0.5-0.3-1.1-0.3-1.7c0-0.7,0.1-1.3,0.3-1.8
					c0.2-0.5,0.5-1,0.8-1.3c0.4-0.4,0.8-0.6,1.3-0.8s1.1-0.3,1.7-0.3c0.4,0,0.9,0.1,1.3,0.2s0.8,0.3,1.2,0.7
					c0.3,0.3,0.6,0.8,0.8,1.3c0.2,0.6,0.2,1.3,0.2,2.2h-6.2c0,1,0.3,1.7,0.8,2.2c0.5,0.5,1.2,0.7,2.1,0.7c0.3,0,0.6,0,0.9-0.1
					c0.3-0.1,0.6-0.2,0.8-0.2c0.3-0.1,0.5-0.2,0.7-0.3c0.2-0.1,0.3-0.2,0.5-0.3L201.3,217z M197.9,210.9c-0.4,0-0.7,0-1,0.1
					c-0.3,0.1-0.6,0.2-0.8,0.4c-0.2,0.2-0.4,0.4-0.6,0.7c-0.2,0.3-0.3,0.6-0.3,1h5c-0.1-0.7-0.3-1.2-0.7-1.6
					S198.5,210.9,197.9,210.9z"/>
				<path class="st2" d="M213.7,206.8h6.6v1.2H215v3.7h4.8v1.2H215v4h5.3v1.2h-6.7V206.8z"/>
				<path class="st2" d="M227.2,206.8h2.6v8.5c0,0.1,0,0.2,0,0.4s0,0.3,0,0.5s0,0.3,0.1,0.5c0,0.2,0,0.3,0.1,0.4h1.1v1h-2.1
					l-0.2-1.2h-0.1c-0.2,0.4-0.6,0.7-1,1c-0.5,0.3-1,0.4-1.6,0.4c-1.2,0-2.1-0.3-2.7-1c-0.6-0.7-0.9-1.7-0.9-3.2
					c0-0.7,0.1-1.3,0.3-1.8c0.2-0.5,0.5-0.9,0.8-1.3c0.4-0.3,0.8-0.6,1.3-0.8c0.5-0.2,1.1-0.3,1.7-0.3c0.2,0,0.4,0,0.6,0
					c0.2,0,0.3,0,0.5,0c0.1,0,0.3,0.1,0.4,0.1c0.1,0,0.3,0.1,0.4,0.1v-2.3h-1.3V206.8z M226.2,217.1c0.6,0,1.2-0.2,1.5-0.5
					s0.6-0.8,0.8-1.5v-3.7c-0.2-0.2-0.5-0.3-0.8-0.4c-0.3-0.1-0.7-0.1-1.2-0.1c-0.9,0-1.5,0.2-2,0.7c-0.5,0.5-0.7,1.3-0.7,2.3
					c0,0.4,0,0.8,0.1,1.2c0.1,0.4,0.2,0.7,0.4,1c0.2,0.3,0.4,0.5,0.7,0.7C225.4,217,225.8,217.1,226.2,217.1z"/>
				<path class="st2" d="M239.6,218.4c0,0.5-0.1,0.9-0.3,1.3c-0.2,0.4-0.5,0.7-0.8,0.9c-0.3,0.2-0.7,0.4-1.2,0.6
					c-0.4,0.1-0.9,0.2-1.5,0.2c-0.6,0-1.2-0.1-1.6-0.2s-0.9-0.3-1.2-0.5l0.6-1.1c0.1,0.1,0.2,0.2,0.4,0.2c0.2,0.1,0.3,0.2,0.5,0.2
					s0.4,0.1,0.6,0.2c0.2,0,0.5,0.1,0.7,0.1c0.5,0,0.9,0,1.2-0.1c0.3-0.1,0.6-0.2,0.8-0.4c0.2-0.2,0.3-0.4,0.4-0.7s0.1-0.6,0.1-1.1
					v-0.9h-0.1c-0.2,0.4-0.6,0.6-0.9,0.8c-0.4,0.2-0.9,0.3-1.5,0.3c-1.2,0-2.1-0.3-2.7-1c-0.6-0.7-0.9-1.7-0.9-3.2
					c0-1.4,0.4-2.4,1.1-3.1c0.7-0.7,1.8-1,3.2-1c0.7,0,1.2,0,1.7,0.1c0.5,0.1,0.9,0.2,1.3,0.3V218.4z M236,217.1
					c0.6,0,1.2-0.2,1.5-0.5c0.4-0.3,0.6-0.9,0.8-1.5v-3.8c-0.5-0.2-1.1-0.3-2-0.3c-0.8,0-1.5,0.2-2,0.8c-0.5,0.5-0.7,1.3-0.7,2.3
					c0,0.5,0,0.9,0.1,1.3c0.1,0.4,0.2,0.7,0.4,1s0.4,0.5,0.7,0.6C235.2,217,235.6,217.1,236,217.1z"/>
				<path class="st2" d="M249.3,217c-0.2,0.2-0.4,0.3-0.7,0.5c-0.3,0.1-0.5,0.3-0.9,0.4c-0.3,0.1-0.6,0.2-1,0.2s-0.7,0.1-1,0.1
					c-0.6,0-1.2-0.1-1.7-0.3c-0.5-0.2-0.9-0.5-1.2-0.8c-0.3-0.4-0.6-0.8-0.8-1.3c-0.2-0.5-0.3-1.1-0.3-1.7c0-0.7,0.1-1.3,0.3-1.8
					c0.2-0.5,0.5-1,0.8-1.3c0.4-0.4,0.8-0.6,1.3-0.8s1.1-0.3,1.7-0.3c0.4,0,0.9,0.1,1.3,0.2s0.8,0.3,1.2,0.7
					c0.3,0.3,0.6,0.8,0.8,1.3c0.2,0.6,0.2,1.3,0.2,2.2h-6.2c0,1,0.3,1.7,0.8,2.2c0.5,0.5,1.2,0.7,2.1,0.7c0.3,0,0.6,0,0.9-0.1
					c0.3-0.1,0.6-0.2,0.8-0.2c0.3-0.1,0.5-0.2,0.7-0.3c0.2-0.1,0.3-0.2,0.5-0.3L249.3,217z M245.9,210.9c-0.4,0-0.7,0-1,0.1
					c-0.3,0.1-0.6,0.2-0.8,0.4c-0.2,0.2-0.4,0.4-0.6,0.7c-0.2,0.3-0.3,0.6-0.3,1h5c-0.1-0.7-0.3-1.2-0.7-1.6
					S246.5,210.9,245.9,210.9z"/>
			</g>
			<g class="st4">
				<path class="st2" d="M739.8,203.4c0-1.9,0.3-3.3,1-4.3s1.7-1.5,3-1.5c0.7,0,1.4,0.1,1.9,0.4c0.5,0.3,0.9,0.7,1.3,1.2
					c0.3,0.5,0.5,1.1,0.7,1.8c0.1,0.7,0.2,1.5,0.2,2.4c0,1.9-0.3,3.3-1,4.3c-0.7,1-1.7,1.5-3.1,1.5c-0.7,0-1.4-0.1-1.9-0.4
					c-0.5-0.3-0.9-0.7-1.2-1.2c-0.3-0.5-0.5-1.1-0.7-1.8C739.8,205.1,739.8,204.3,739.8,203.4z M741.2,203.4c0,0.6,0,1.2,0.1,1.8
					s0.2,1,0.4,1.5c0.2,0.4,0.5,0.8,0.8,1c0.3,0.3,0.8,0.4,1.3,0.4c0.9,0,1.6-0.4,2-1.1c0.4-0.7,0.6-1.9,0.6-3.5
					c0-0.6,0-1.2-0.1-1.8c-0.1-0.6-0.2-1.1-0.4-1.5c-0.2-0.4-0.5-0.8-0.8-1c-0.3-0.2-0.8-0.4-1.3-0.4c-0.9,0-1.6,0.4-2,1.1
					C741.4,200.7,741.2,201.8,741.2,203.4z"/>
				<path class="st2" d="M755.6,202.2c-0.2-0.1-0.5-0.2-0.8-0.2c-0.3-0.1-0.6-0.1-0.8-0.1c-1,0-1.8,0.2-2.3,0.7
					c-0.5,0.5-0.8,1.3-0.8,2.3c0,0.5,0.1,0.9,0.2,1.3s0.4,0.7,0.6,0.9s0.6,0.5,1,0.6c0.4,0.1,0.8,0.2,1.3,0.2c0.5,0,1-0.1,1.5-0.3
					c0.5-0.2,0.9-0.4,1.2-0.7l0.6,0.9c-0.2,0.1-0.3,0.3-0.6,0.4c-0.2,0.1-0.5,0.3-0.8,0.4c-0.3,0.1-0.6,0.2-1,0.3
					c-0.4,0.1-0.7,0.1-1.2,0.1c-0.7,0-1.3-0.1-1.8-0.3c-0.5-0.2-1-0.5-1.3-0.8c-0.4-0.4-0.6-0.8-0.8-1.3c-0.2-0.5-0.3-1.1-0.3-1.7
					c0-0.7,0.1-1.3,0.3-1.8c0.2-0.5,0.5-1,0.8-1.3c0.4-0.4,0.8-0.6,1.3-0.8c0.5-0.2,1.1-0.3,1.7-0.3c0.8,0,1.4,0.1,1.9,0.2
					c0.5,0.1,0.9,0.3,1.3,0.5l0,0v2.2h-1.2V202.2z"/>
				<path class="st2" d="M758.6,197.8h2.6v6.6h0.9l3.2-3.4h1.5l-3.5,3.8l2.9,3.1h1v1.1h-1.6l-3.4-3.6h-0.9v3.6h-1.2v-10.1h-1.4
					V197.8z"/>
				<path class="st2" d="M769.5,201.6c0.5-0.3,1-0.5,1.6-0.6s1.1-0.2,1.7-0.2c0.5,0,1,0.1,1.3,0.3c0.3,0.2,0.6,0.4,0.8,0.7
					s0.3,0.6,0.4,0.9c0.1,0.3,0.1,0.7,0.1,1c0,0.4,0,0.8,0,1.3c0,0.5,0,0.9,0,1.4c0,0.5,0,1,0.1,1.5h1.1v1h-2.1l-0.1-1.2h-0.1
					c-0.1,0.1-0.2,0.2-0.3,0.4s-0.3,0.3-0.5,0.4c-0.2,0.1-0.5,0.3-0.8,0.4c-0.3,0.1-0.7,0.2-1.1,0.2c-0.8,0-1.4-0.2-1.9-0.6
					c-0.5-0.4-0.7-1-0.7-1.7c0-0.5,0.1-1,0.4-1.4c0.2-0.4,0.6-0.6,1-0.8c0.4-0.2,1-0.3,1.6-0.3s1.4,0,2.1,0.1c0.1-0.5,0.1-0.9,0-1.2
					s-0.1-0.6-0.3-0.8c-0.1-0.2-0.3-0.3-0.6-0.4c-0.2-0.1-0.5-0.1-0.9-0.1c-0.5,0-0.9,0.1-1.4,0.2c-0.4,0.1-0.8,0.3-1.2,0.4
					L769.5,201.6z M771.9,208.1c0.3,0,0.6,0,0.8-0.1c0.3-0.1,0.5-0.2,0.7-0.4c0.2-0.1,0.4-0.3,0.5-0.5s0.2-0.3,0.3-0.5v-1.1
					c-0.6-0.1-1.1-0.1-1.5-0.1s-0.9,0.1-1.2,0.2c-0.3,0.1-0.6,0.3-0.8,0.5c-0.2,0.2-0.3,0.5-0.3,0.8c0,0.4,0.1,0.7,0.4,0.9
					C770.9,207.9,771.3,208.1,771.9,208.1z"/>
				<path class="st2" d="M781.6,209v-5.3c0-0.2,0-0.4,0-0.6s-0.1-0.4-0.1-0.6c-0.1-0.2-0.1-0.3-0.3-0.4c-0.1-0.1-0.3-0.1-0.4-0.1
					c-0.4,0-0.7,0.1-0.9,0.4c-0.3,0.3-0.4,0.7-0.6,1.1v5.5h-1.2v-8h0.8l0.2,1h0.1c0.1-0.2,0.2-0.3,0.3-0.5c0.1-0.1,0.2-0.3,0.4-0.4
					c0.1-0.1,0.3-0.2,0.5-0.2c0.2-0.1,0.4-0.1,0.7-0.1c0.2,0,0.3,0,0.5,0.1c0.2,0,0.3,0.1,0.5,0.2c0.1,0.1,0.3,0.2,0.4,0.4
					c0.1,0.2,0.2,0.4,0.2,0.6c0.2-0.4,0.5-0.7,0.8-1s0.7-0.4,1.3-0.4c0.4,0,0.6,0.1,0.9,0.2c0.2,0.1,0.4,0.3,0.5,0.5
					c0.1,0.2,0.2,0.5,0.3,0.8c0,0.3,0.1,0.6,0.1,1v5.7h-1.2v-5.4c0-0.2,0-0.4,0-0.6c0-0.2-0.1-0.4-0.1-0.5c-0.1-0.1-0.1-0.3-0.2-0.4
					c-0.1-0.1-0.2-0.1-0.4-0.1c-0.4,0-0.7,0.1-0.9,0.4c-0.3,0.3-0.4,0.7-0.6,1.3v5.3H781.6z"/>
				<path class="st2" d="M803.9,199c-0.2-0.1-0.4-0.1-0.6-0.2c-0.2,0-0.5-0.1-0.8-0.1c-0.4,0-0.9,0.1-1.3,0.2
					c-0.4,0.2-0.8,0.4-1.1,0.8c-0.3,0.4-0.6,0.8-0.8,1.4c-0.2,0.6-0.3,1.3-0.3,2.2c0,0.8,0.1,1.4,0.3,2s0.4,1.1,0.7,1.4
					c0.3,0.4,0.7,0.7,1.1,0.9c0.4,0.2,0.9,0.3,1.5,0.3c0.3,0,0.5,0,0.8-0.1c0.2,0,0.5-0.1,0.7-0.2v-1.6h1.2v2.2l0,0
					c-0.3,0.2-0.7,0.5-1.2,0.6c-0.5,0.2-1.1,0.2-1.8,0.2c-0.7,0-1.3-0.1-1.9-0.3c-0.6-0.2-1.1-0.6-1.5-1c-0.4-0.5-0.7-1.1-1-1.8
					c-0.2-0.7-0.3-1.6-0.3-2.6c0-1,0.1-1.9,0.4-2.7s0.6-1.3,1-1.8s0.9-0.8,1.5-1c0.6-0.2,1.2-0.3,1.9-0.3c0.4,0,0.7,0,0.9,0
					c0.3,0,0.5,0.1,0.7,0.1c0.2,0,0.4,0.1,0.5,0.2c0.2,0.1,0.3,0.2,0.5,0.3h0v2.5h-1.2V199z"/>
				<path class="st2" d="M808.1,197.8h2.7v8.5c0,0.7,0.1,1.1,0.3,1.4s0.5,0.4,1,0.4c0.3,0,0.6-0.1,0.9-0.2c0.3-0.1,0.6-0.3,0.9-0.5
					l0.6,0.9c-0.2,0.1-0.4,0.3-0.6,0.4s-0.4,0.2-0.6,0.3c-0.2,0.1-0.4,0.1-0.6,0.2c-0.2,0-0.4,0.1-0.6,0.1c-0.4,0-0.7-0.1-1.1-0.2
					c-0.3-0.1-0.6-0.3-0.8-0.5c-0.2-0.2-0.4-0.5-0.5-0.9s-0.2-0.8-0.2-1.4v-7.4h-1.4V197.8z"/>
				<path class="st2" d="M816.7,205c0-1.3,0.3-2.3,1-3.1c0.7-0.8,1.6-1.1,2.9-1.1c0.7,0,1.3,0.1,1.7,0.3c0.5,0.2,0.9,0.5,1.2,0.9
					c0.3,0.4,0.6,0.8,0.7,1.3c0.2,0.5,0.2,1.1,0.2,1.6c0,0.6-0.1,1.2-0.3,1.7c-0.2,0.5-0.4,1-0.8,1.3c-0.3,0.4-0.7,0.6-1.2,0.8
					c-0.5,0.2-1,0.3-1.7,0.3c-0.7,0-1.2-0.1-1.7-0.3c-0.5-0.2-0.9-0.5-1.2-0.9c-0.3-0.4-0.6-0.8-0.7-1.3
					C816.8,206.1,816.7,205.6,816.7,205z M818,205c0,0.4,0,0.7,0.1,1.1c0.1,0.4,0.2,0.7,0.4,1c0.2,0.3,0.5,0.5,0.8,0.7
					c0.3,0.2,0.7,0.3,1.2,0.3c0.9,0,1.5-0.3,1.9-0.8s0.6-1.3,0.6-2.3c0-0.4,0-0.8-0.1-1.1c-0.1-0.4-0.2-0.7-0.4-1s-0.5-0.5-0.8-0.7
					s-0.7-0.3-1.2-0.3c-0.9,0-1.5,0.3-1.9,0.8S818,204,818,205z"/>
				<path class="st2" d="M831.2,201h2.3v5.5c0,0.5,0,1,0.1,1.5h1.1v1h-2.1l0-1.4h-0.1c-0.3,0.5-0.6,0.8-1.1,1.1
					c-0.5,0.3-1,0.4-1.7,0.4c-0.5,0-0.9-0.1-1.3-0.2c-0.3-0.1-0.6-0.3-0.9-0.6s-0.4-0.6-0.5-1.1c-0.1-0.5-0.2-1-0.2-1.7v-3.5h-1.1
					V201h2.3v4.3c0,0.4,0,0.8,0.1,1.2s0.1,0.6,0.2,0.9c0.1,0.2,0.3,0.4,0.5,0.5c0.2,0.1,0.5,0.2,0.9,0.2c0.5,0,1-0.2,1.4-0.5
					c0.4-0.4,0.7-0.8,0.9-1.4v-4.1h-1V201z"/>
				<path class="st2" d="M840.6,197.8h2.6v8.5c0,0.1,0,0.2,0,0.4s0,0.3,0,0.5s0,0.3,0.1,0.5c0,0.2,0,0.3,0.1,0.4h1.1v1h-2.1
					l-0.2-1.2h-0.1c-0.2,0.4-0.6,0.7-1,1c-0.5,0.3-1,0.4-1.6,0.4c-1.2,0-2.1-0.3-2.7-1c-0.6-0.7-0.9-1.7-0.9-3.2
					c0-0.7,0.1-1.3,0.3-1.8c0.2-0.5,0.5-0.9,0.8-1.3c0.4-0.3,0.8-0.6,1.3-0.8c0.5-0.2,1.1-0.3,1.7-0.3c0.2,0,0.4,0,0.6,0
					c0.2,0,0.3,0,0.5,0c0.1,0,0.3,0.1,0.4,0.1c0.1,0,0.3,0.1,0.4,0.1v-2.3h-1.3V197.8z M839.6,208.1c0.6,0,1.2-0.2,1.5-0.5
					c0.4-0.3,0.6-0.8,0.8-1.5v-3.7c-0.2-0.2-0.5-0.3-0.8-0.4c-0.3-0.1-0.7-0.1-1.2-0.1c-0.8,0-1.5,0.2-2,0.7s-0.7,1.3-0.7,2.3
					c0,0.4,0,0.8,0.1,1.2s0.2,0.7,0.4,1c0.2,0.3,0.4,0.5,0.7,0.7S839.2,208.1,839.6,208.1z"/>
				<path class="st2" d="M856.6,207.4c0.3,0.2,0.7,0.3,1.1,0.4c0.4,0.1,0.8,0.2,1.2,0.2c0.4,0,0.7,0,1-0.1c0.3-0.1,0.6-0.2,0.8-0.3
					c0.2-0.2,0.4-0.3,0.5-0.6c0.1-0.2,0.2-0.5,0.2-0.8c0-0.4-0.1-0.8-0.4-1.1s-0.7-0.5-1.1-0.7c-0.4-0.2-0.9-0.4-1.4-0.6
					c-0.5-0.2-1-0.4-1.4-0.7c-0.4-0.3-0.8-0.6-1.1-1c-0.3-0.4-0.4-0.9-0.4-1.5c0-0.4,0.1-0.8,0.3-1.2c0.2-0.4,0.4-0.7,0.7-0.9
					c0.3-0.2,0.7-0.4,1.2-0.6c0.5-0.1,1-0.2,1.5-0.2c0.6,0,1.2,0,1.7,0.1c0.5,0.1,0.9,0.2,1.2,0.4l0,0v0h0l0,0v2.6H861V199
					c-0.3-0.1-0.6-0.1-0.9-0.2c-0.3,0-0.7-0.1-1-0.1c-0.4,0-0.7,0-1,0.1c-0.3,0.1-0.5,0.2-0.7,0.3c-0.2,0.1-0.3,0.3-0.5,0.5
					c-0.1,0.2-0.2,0.4-0.2,0.6c0,0.4,0.1,0.8,0.4,1c0.3,0.3,0.7,0.5,1.1,0.7s0.9,0.4,1.4,0.6c0.5,0.2,1,0.5,1.4,0.7
					c0.4,0.3,0.8,0.6,1.1,1s0.4,0.9,0.4,1.5c0,0.5-0.1,0.9-0.3,1.3s-0.4,0.7-0.8,1c-0.3,0.3-0.7,0.5-1.2,0.6c-0.5,0.1-1,0.2-1.6,0.2
					c-0.4,0-0.8,0-1.2-0.1c-0.4-0.1-0.7-0.1-1-0.2c-0.3-0.1-0.6-0.2-0.8-0.3c-0.2-0.1-0.4-0.2-0.6-0.3l0,0v-2.6h1.2V207.4z"/>
				<path class="st2" d="M865.1,197.8c0.4-0.1,0.8-0.1,1.3-0.1c0.4,0,0.8,0,1.1,0c1,0,1.8,0.1,2.4,0.4c0.7,0.3,1.2,0.7,1.6,1.2
					c0.4,0.5,0.7,1.1,0.9,1.8c0.2,0.7,0.3,1.5,0.3,2.3c0,0.8-0.1,1.5-0.2,2.2c-0.2,0.7-0.4,1.3-0.8,1.9c-0.4,0.5-0.9,1-1.6,1.3
					c-0.7,0.3-1.5,0.5-2.5,0.5c-0.1,0-0.3,0-0.5,0c-0.2,0-0.5,0-0.7,0c-0.2,0-0.5,0-0.7,0c-0.2,0-0.4,0-0.5,0V197.8z M867.5,198.9
					c-0.1,0-0.3,0-0.6,0s-0.4,0-0.6,0.1v9c0.1,0,0.1,0,0.2,0c0.1,0,0.2,0,0.3,0c0.1,0,0.2,0,0.3,0c0.1,0,0.2,0,0.2,0
					c0.8,0,1.4-0.1,1.9-0.4c0.5-0.3,0.9-0.6,1.1-1c0.3-0.4,0.4-0.9,0.5-1.5c0.1-0.6,0.1-1.1,0.1-1.7c0-0.5,0-1-0.1-1.6
					s-0.3-1-0.5-1.4c-0.3-0.4-0.6-0.8-1.1-1C869,199,868.3,198.9,867.5,198.9z"/>
				<path class="st2" d="M877.3,203.8h-1.2v5.2h-1.3v-11.2h1.3v5h1.2l3.6-5h1.5l-4,5.3l4.4,5.9h-1.7L877.3,203.8z"/>
			</g>
			<path id="Rectangle" class="st5" d="M349.5,140.5h749c5.5,0,10,4.5,10,10v111c0,5.5-4.5,10-10,10h-749c-5.5,0-10-4.5-10-10v-111
				C339.5,145,344,140.5,349.5,140.5z"/>
			<g id="Group_3_" transform="translate(707.000000, 96.000000)">
				<g id="icon_x2F_fingerprint-copy_3_">
					<path id="Shape_5_" class="st1" d="M12,4L6.7,9.3h4v9.3h2.7V9.3h4 M21.3,22.7v-9.3h-2.7v9.3h-4L20,28l5.3-5.3H21.3z"/>
				</g>
			</g>
			<path id="Rectangle-Copy-15_4_" class="st0" d="M589,0h269c5.5,0,10,4.5,10,10v64c0,5.5-4.5,10-10,10H589c-5.5,0-10-4.5-10-10V10
				C579,4.5,583.5,0,589,0z"/>
			<g class="st4">
				<path class="st2" d="M686.4,35c-0.2-0.1-0.4-0.1-0.6-0.2c-0.2,0-0.5-0.1-0.8-0.1c-0.4,0-0.9,0.1-1.3,0.2
					c-0.4,0.2-0.8,0.4-1.1,0.8c-0.3,0.4-0.6,0.8-0.8,1.4c-0.2,0.6-0.3,1.3-0.3,2.2c0,0.8,0.1,1.4,0.3,2c0.2,0.6,0.4,1.1,0.7,1.4
					c0.3,0.4,0.7,0.7,1.1,0.9c0.4,0.2,0.9,0.3,1.5,0.3c0.3,0,0.5,0,0.8-0.1c0.2,0,0.5-0.1,0.7-0.2v-1.6h1.2v2.2l0,0
					c-0.3,0.2-0.7,0.5-1.2,0.6c-0.5,0.2-1.1,0.2-1.8,0.2c-0.7,0-1.3-0.1-1.9-0.3c-0.6-0.2-1.1-0.6-1.5-1c-0.4-0.5-0.7-1.1-1-1.8
					s-0.3-1.6-0.3-2.6c0-1,0.1-1.9,0.4-2.7c0.3-0.7,0.6-1.3,1-1.8s0.9-0.8,1.5-1c0.6-0.2,1.2-0.3,1.9-0.3c0.4,0,0.7,0,0.9,0
					c0.3,0,0.5,0.1,0.7,0.1c0.2,0,0.4,0.1,0.5,0.2c0.2,0.1,0.3,0.2,0.5,0.3h0v2.5h-1.2V35z"/>
				<path class="st2" d="M690.6,33.8h2.7v8.5c0,0.7,0.1,1.1,0.3,1.4s0.5,0.4,1,0.4c0.3,0,0.6-0.1,0.9-0.2c0.3-0.1,0.6-0.3,0.9-0.5
					l0.6,0.9c-0.2,0.1-0.4,0.3-0.6,0.4s-0.4,0.2-0.6,0.3s-0.4,0.1-0.6,0.2c-0.2,0-0.4,0.1-0.6,0.1c-0.4,0-0.7-0.1-1.1-0.2
					c-0.3-0.1-0.6-0.3-0.8-0.5c-0.2-0.2-0.4-0.5-0.5-0.9c-0.1-0.4-0.2-0.8-0.2-1.4v-7.4h-1.4V33.8z"/>
				<path class="st2" d="M699.2,41c0-1.3,0.3-2.3,1-3.1c0.7-0.8,1.6-1.1,2.9-1.1c0.7,0,1.2,0.1,1.7,0.3c0.5,0.2,0.9,0.5,1.2,0.9
					c0.3,0.4,0.6,0.8,0.7,1.3c0.2,0.5,0.2,1.1,0.2,1.6c0,0.6-0.1,1.2-0.3,1.7s-0.4,1-0.8,1.3c-0.3,0.4-0.7,0.6-1.2,0.8
					c-0.5,0.2-1,0.3-1.7,0.3c-0.7,0-1.2-0.1-1.7-0.3c-0.5-0.2-0.9-0.5-1.2-0.9c-0.3-0.4-0.6-0.8-0.7-1.3
					C699.3,42.1,699.2,41.6,699.2,41z M700.5,41c0,0.4,0,0.7,0.1,1.1c0.1,0.4,0.2,0.7,0.4,1c0.2,0.3,0.5,0.5,0.8,0.7
					c0.3,0.2,0.7,0.3,1.2,0.3c0.9,0,1.5-0.3,1.9-0.8s0.6-1.3,0.6-2.3c0-0.4,0-0.8-0.1-1.1c-0.1-0.4-0.2-0.7-0.4-1s-0.5-0.5-0.8-0.7
					c-0.3-0.2-0.7-0.3-1.2-0.3c-0.9,0-1.5,0.3-1.9,0.8C700.8,39.2,700.5,40,700.5,41z"/>
				<path class="st2" d="M713.7,37h2.3v5.5c0,0.5,0,1,0.1,1.5h1.1v1H715l0-1.4h-0.1c-0.3,0.5-0.6,0.8-1.1,1.1
					c-0.5,0.3-1,0.4-1.7,0.4c-0.5,0-0.9-0.1-1.3-0.2c-0.3-0.1-0.6-0.3-0.9-0.6s-0.4-0.6-0.5-1.1s-0.2-1-0.2-1.7v-3.5h-1.1V37h2.3
					v4.3c0,0.4,0,0.8,0.1,1.2s0.1,0.6,0.2,0.9c0.1,0.2,0.3,0.4,0.5,0.5c0.2,0.1,0.5,0.2,0.9,0.2c0.5,0,1-0.2,1.4-0.5
					s0.7-0.8,0.9-1.4v-4.1h-1V37z"/>
				<path class="st2" d="M723.1,33.8h2.6v8.5c0,0.1,0,0.2,0,0.4s0,0.3,0,0.5c0,0.2,0,0.3,0.1,0.5c0,0.2,0,0.3,0.1,0.4h1.1v1h-2.1
					l-0.2-1.2h-0.1c-0.2,0.4-0.6,0.7-1,1c-0.5,0.3-1,0.4-1.6,0.4c-1.2,0-2.1-0.3-2.7-1c-0.6-0.7-0.9-1.7-0.9-3.2
					c0-0.7,0.1-1.3,0.3-1.8c0.2-0.5,0.5-0.9,0.8-1.3c0.4-0.3,0.8-0.6,1.3-0.8c0.5-0.2,1.1-0.3,1.7-0.3c0.2,0,0.4,0,0.6,0
					c0.2,0,0.3,0,0.5,0c0.1,0,0.3,0.1,0.4,0.1c0.1,0,0.3,0.1,0.4,0.1v-2.3h-1.3V33.8z M722.1,44.1c0.6,0,1.2-0.2,1.5-0.5
					s0.6-0.8,0.8-1.5v-3.7c-0.2-0.2-0.5-0.3-0.8-0.4c-0.3-0.1-0.7-0.1-1.2-0.1c-0.9,0-1.5,0.2-2,0.7c-0.5,0.5-0.7,1.3-0.7,2.3
					c0,0.4,0,0.8,0.1,1.2s0.2,0.7,0.4,1c0.2,0.3,0.4,0.5,0.7,0.7C721.3,44,721.7,44.1,722.1,44.1z"/>
				<path class="st2" d="M739.1,43.4c0.3,0.2,0.7,0.3,1.1,0.4c0.4,0.1,0.8,0.2,1.2,0.2c0.4,0,0.7,0,1-0.1s0.6-0.2,0.8-0.3
					c0.2-0.2,0.4-0.3,0.5-0.6c0.1-0.2,0.2-0.5,0.2-0.8c0-0.4-0.1-0.8-0.4-1.1c-0.3-0.3-0.7-0.5-1.1-0.7c-0.4-0.2-0.9-0.4-1.4-0.6
					c-0.5-0.2-1-0.4-1.4-0.7s-0.8-0.6-1.1-1c-0.3-0.4-0.4-0.9-0.4-1.5c0-0.4,0.1-0.8,0.3-1.2c0.2-0.4,0.4-0.7,0.7-0.9
					c0.3-0.2,0.7-0.4,1.2-0.6c0.5-0.1,1-0.2,1.5-0.2c0.6,0,1.2,0,1.7,0.1s0.9,0.2,1.2,0.4l0,0v0h0l0,0v2.6h-1.2V35
					c-0.3-0.1-0.6-0.1-0.9-0.2c-0.3,0-0.7-0.1-1-0.1c-0.4,0-0.7,0-1,0.1c-0.3,0.1-0.5,0.2-0.7,0.3c-0.2,0.1-0.3,0.3-0.5,0.5
					c-0.1,0.2-0.2,0.4-0.2,0.6c0,0.4,0.1,0.8,0.4,1c0.3,0.3,0.7,0.5,1.1,0.7s0.9,0.4,1.4,0.6c0.5,0.2,1,0.5,1.4,0.7
					c0.4,0.3,0.8,0.6,1.1,1c0.3,0.4,0.4,0.9,0.4,1.5c0,0.5-0.1,0.9-0.3,1.3s-0.4,0.7-0.8,1c-0.3,0.3-0.7,0.5-1.2,0.6s-1,0.2-1.6,0.2
					c-0.4,0-0.8,0-1.2-0.1c-0.4-0.1-0.7-0.1-1-0.2c-0.3-0.1-0.6-0.2-0.8-0.3c-0.2-0.1-0.4-0.2-0.6-0.3l0,0v-2.6h1.2V43.4z"/>
				<path class="st2" d="M754.8,44c-0.2,0.2-0.4,0.3-0.7,0.5s-0.5,0.3-0.9,0.4c-0.3,0.1-0.6,0.2-1,0.2s-0.7,0.1-1,0.1
					c-0.6,0-1.2-0.1-1.7-0.3c-0.5-0.2-0.9-0.5-1.2-0.8c-0.3-0.4-0.6-0.8-0.8-1.3c-0.2-0.5-0.3-1.1-0.3-1.7c0-0.7,0.1-1.3,0.3-1.8
					s0.5-1,0.8-1.3c0.4-0.4,0.8-0.6,1.3-0.8c0.5-0.2,1.1-0.3,1.7-0.3c0.4,0,0.9,0.1,1.3,0.2s0.8,0.3,1.2,0.7
					c0.3,0.3,0.6,0.8,0.8,1.3s0.2,1.3,0.2,2.2h-6.2c0,1,0.3,1.7,0.8,2.2s1.2,0.7,2.1,0.7c0.3,0,0.6,0,0.9-0.1s0.6-0.2,0.8-0.2
					c0.3-0.1,0.5-0.2,0.7-0.3s0.3-0.2,0.5-0.3L754.8,44z M751.4,37.9c-0.4,0-0.7,0-1,0.1c-0.3,0.1-0.6,0.2-0.8,0.4
					c-0.2,0.2-0.4,0.4-0.6,0.7c-0.2,0.3-0.3,0.6-0.3,1h5c-0.1-0.7-0.3-1.2-0.7-1.6C752.6,38.1,752,37.9,751.4,37.9z"/>
				<path class="st2" d="M757,45v-1.1h2.2v-5.9H757V37h3l0.3,1h0.1c0.4-0.3,0.8-0.6,1.2-0.8c0.4-0.2,1-0.4,1.6-0.4
					c0.4,0,0.7,0.1,0.9,0.2s0.4,0.3,0.5,0.6c0.1,0.3,0.2,0.6,0.2,1s0.1,0.8,0.1,1.3l-1.1,0c0-0.7-0.1-1.2-0.2-1.5s-0.4-0.5-0.7-0.5
					c-0.3,0-0.6,0-0.9,0.1s-0.5,0.2-0.7,0.4c-0.2,0.1-0.4,0.3-0.5,0.4c-0.1,0.1-0.2,0.3-0.3,0.4v4.7h3.1V45H757z"/>
				<path class="st2" d="M770.3,43.4h0.2L773,37h1.4l-3.4,8h-1.4l-3.4-8h1.5L770.3,43.4z"/>
				<path class="st2" d="M776.8,45v-1.1h2.8v-5.9h-2.8V37h4v6.9h2.7V45H776.8z M779.1,34.7c0-0.3,0.1-0.5,0.3-0.7s0.4-0.3,0.7-0.3
					c0.3,0,0.6,0.1,0.8,0.3s0.3,0.5,0.3,0.7c0,0.3-0.1,0.5-0.3,0.7c-0.2,0.2-0.5,0.3-0.8,0.3c-0.3,0-0.5-0.1-0.7-0.3
					C779.2,35.2,779.1,35,779.1,34.7z"/>
				<path class="st2" d="M791.7,38.2c-0.2-0.1-0.5-0.2-0.8-0.2c-0.3-0.1-0.6-0.1-0.8-0.1c-1,0-1.8,0.2-2.3,0.7
					c-0.5,0.5-0.8,1.3-0.8,2.3c0,0.5,0.1,0.9,0.2,1.3c0.1,0.4,0.4,0.7,0.6,0.9s0.6,0.5,1,0.6c0.4,0.1,0.8,0.2,1.3,0.2
					c0.5,0,1-0.1,1.5-0.3c0.5-0.2,0.9-0.4,1.2-0.7l0.6,0.9c-0.1,0.1-0.3,0.3-0.6,0.4c-0.2,0.1-0.5,0.3-0.8,0.4
					c-0.3,0.1-0.6,0.2-1,0.3c-0.4,0.1-0.7,0.1-1.2,0.1c-0.7,0-1.3-0.1-1.8-0.3c-0.5-0.2-1-0.5-1.3-0.8s-0.6-0.8-0.8-1.3
					c-0.2-0.5-0.3-1.1-0.3-1.7c0-0.7,0.1-1.3,0.3-1.8s0.5-1,0.8-1.3c0.4-0.4,0.8-0.6,1.3-0.8s1.1-0.3,1.7-0.3c0.8,0,1.4,0.1,1.9,0.2
					c0.5,0.1,0.9,0.3,1.3,0.5l0,0v2.2h-1.2V38.2z"/>
				<path class="st2" d="M802.8,44c-0.2,0.2-0.4,0.3-0.7,0.5s-0.5,0.3-0.9,0.4c-0.3,0.1-0.6,0.2-1,0.2s-0.7,0.1-1,0.1
					c-0.6,0-1.2-0.1-1.7-0.3c-0.5-0.2-0.9-0.5-1.2-0.8c-0.3-0.4-0.6-0.8-0.8-1.3c-0.2-0.5-0.3-1.1-0.3-1.7c0-0.7,0.1-1.3,0.3-1.8
					s0.5-1,0.8-1.3c0.4-0.4,0.8-0.6,1.3-0.8c0.5-0.2,1.1-0.3,1.7-0.3c0.4,0,0.9,0.1,1.3,0.2s0.8,0.3,1.2,0.7
					c0.3,0.3,0.6,0.8,0.8,1.3s0.2,1.3,0.2,2.2h-6.2c0,1,0.3,1.7,0.8,2.2s1.2,0.7,2.1,0.7c0.3,0,0.6,0,0.9-0.1s0.6-0.2,0.8-0.2
					c0.3-0.1,0.5-0.2,0.7-0.3s0.3-0.2,0.5-0.3L802.8,44z M799.4,37.9c-0.4,0-0.7,0-1,0.1c-0.3,0.1-0.6,0.2-0.8,0.4
					c-0.2,0.2-0.4,0.4-0.6,0.7c-0.2,0.3-0.3,0.6-0.3,1h5c-0.1-0.7-0.3-1.2-0.7-1.6C800.6,38.1,800,37.9,799.4,37.9z"/>
			</g>
			<path id="Path_4_" class="st1" d="M662.3,39c-0.7-3.4-3.7-6-7.3-6c-2.9,0-5.4,1.6-6.7,4c-3,0.3-5.3,2.9-5.3,6c0,3.3,2.7,6,6,6h13
				c1.3,0,2.6-0.5,3.5-1.5s1.5-2.2,1.5-3.5C667,41.4,665,39.2,662.3,39z"/>
		</g>
	</g>
</g>
</svg>
