<?xml version="1.0" encoding="utf-8"?>
<!-- Generator: Adobe Illustrator 24.3.0, SVG Export Plug-In . SVG Version: 6.00 Build 0)  -->
<svg version="1.1" id="Warstwa_1" xmlns="http://www.w3.org/2000/svg" xmlns:xlink="http://www.w3.org/1999/xlink" x="0px" y="0px"
	 viewBox="0 0 264 512" style="enable-background:new 0 0 264 512;" xml:space="preserve">
<style type="text/css">
	.st0{fill:#00BAE9;}
	.st1{fill:none;stroke:#4BC7EC;}
	.st2{fill-rule:evenodd;clip-rule:evenodd;fill:#25B8E4;fill-opacity:6.000000e-02;}
	.st3{enable-background:new    ;}
	.st4{fill:#00C2EC;}
	.st5{fill:#00DEFC;}
	.st6{fill:#00CCF2;}
	.st7{fill:#00D6F8;}
	.st8{fill:#00A8CC;}
</style>
<g id="Content">
	<g id="router_mobile" transform="translate(-28.000000, -361.000000)">
		<g id="_router_infographic" transform="translate(28.000000, 361.000000)">
			<g id="Group" transform="translate(120.000000, 72.000000)">
				
					<g id="icon_x2F_fingerprint-copy" transform="translate(12.000000, 12.000000) rotate(-360.000000) translate(-12.000000, -12.000000) ">
					<path id="Shape" class="st0" d="M9,3L5,7h3v7h2V7h3 M16,17v-7h-2v7h-3l4,4l4-4H16z"/>
				</g>
			</g>
			<g id="Group_1_" transform="translate(120.000000, 416.000000)">
				
					<g id="icon_x2F_fingerprint-copy_1_" transform="translate(12.000000, 12.000000) rotate(-360.000000) translate(-12.000000, -12.000000) ">
					<path id="Shape_1_" class="st0" d="M9,3L5,7h3v7h2V7h3 M16,17v-7h-2v7h-3l4,4l4-4H16z"/>
				</g>
			</g>
			<g id="Group_2_" transform="translate(120.000000, 192.000000)">
				
					<g id="icon_x2F_fingerprint-copy_2_" transform="translate(12.000000, 12.000000) rotate(-360.000000) translate(-12.000000, -12.000000) ">
					<path id="Shape_2_" class="st0" d="M9,3L5,7h3v7h2V7h3 M16,17v-7h-2v7h-3l4,4l4-4H16z"/>
				</g>
			</g>
			<g id="Group_3_" transform="translate(120.000000, 296.000000)">
				
					<g id="icon_x2F_fingerprint-copy_3_" transform="translate(12.000000, 12.000000) rotate(-360.000000) translate(-12.000000, -12.000000) ">
					<path id="Shape_3_" class="st0" d="M9,3L5,7h3v7h2V7h3 M16,17v-7h-2v7h-3l4,4l4-4H16z"/>
				</g>
			</g>
			<path id="Rectangle" class="st1" d="M8.5,104.5h247c4.4,0,8,3.6,8,8v287c0,4.4-3.6,8-8,8H8.5c-4.4,0-8-3.6-8-8v-287
				C0.5,108.1,4.1,104.5,8.5,104.5z"/>
			<path id="Rectangle-Copy-15" class="st2" d="M21,0h222c2.8,0,5,2.2,5,5v54c0,2.8-2.2,5-5,5H21c-2.8,0-5-2.2-5-5V5
				C16,2.2,18.2,0,21,0z"/>
			<path id="Path" class="st0" d="M79.3,30c-0.7-3.4-3.7-6-7.3-6c-2.9,0-5.4,1.6-6.7,4c-3,0.3-5.3,2.9-5.3,6c0,3.3,2.7,6,6,6h13
				c1.3,0,2.6-0.5,3.5-1.5c0.9-0.9,1.5-2.2,1.5-3.5C84,32.4,81.9,30.2,79.3,30z"/>
			<g class="st3">
				<path class="st4" d="M100.8,24.3c-0.2-0.1-0.3-0.1-0.5-0.1c-0.2,0-0.4,0-0.7,0c-0.4,0-0.8,0.1-1.1,0.2c-0.4,0.1-0.7,0.4-1,0.7
					s-0.5,0.7-0.7,1.2c-0.2,0.5-0.3,1.1-0.3,1.9c0,0.7,0.1,1.3,0.2,1.8c0.2,0.5,0.4,0.9,0.6,1.3c0.3,0.3,0.6,0.6,1,0.8
					s0.8,0.3,1.3,0.3c0.2,0,0.5,0,0.7-0.1c0.2,0,0.4-0.1,0.6-0.2v-1.4h1v1.9l0,0c-0.3,0.2-0.6,0.4-1.1,0.5s-1,0.2-1.6,0.2
					c-0.6,0-1.1-0.1-1.6-0.3c-0.5-0.2-0.9-0.5-1.3-0.9c-0.4-0.4-0.6-0.9-0.8-1.6s-0.3-1.4-0.3-2.3c0-0.9,0.1-1.7,0.3-2.3
					c0.2-0.6,0.5-1.2,0.9-1.6s0.8-0.7,1.3-0.9c0.5-0.2,1.1-0.3,1.6-0.3c0.3,0,0.6,0,0.8,0c0.2,0,0.4,0.1,0.6,0.1s0.3,0.1,0.5,0.2
					c0.1,0.1,0.3,0.1,0.4,0.2h0v2.2h-1V24.3z"/>
				<path class="st4" d="M104.5,23.2h2.3v7.4c0,0.6,0.1,1,0.3,1.2c0.2,0.2,0.5,0.4,0.8,0.4c0.3,0,0.5,0,0.7-0.1
					c0.2-0.1,0.5-0.3,0.8-0.5l0.5,0.8c-0.1,0.1-0.3,0.2-0.5,0.3c-0.2,0.1-0.4,0.2-0.5,0.3c-0.2,0.1-0.4,0.1-0.6,0.2
					c-0.2,0-0.4,0.1-0.5,0.1c-0.3,0-0.7,0-0.9-0.1c-0.3-0.1-0.5-0.2-0.7-0.4s-0.3-0.5-0.4-0.8c-0.1-0.3-0.1-0.7-0.1-1.2v-6.5h-1.2
					V23.2z"/>
				<path class="st4" d="M112,29.5c0-1.1,0.3-2,0.9-2.7c0.6-0.7,1.4-1,2.5-1c0.6,0,1.1,0.1,1.5,0.3c0.4,0.2,0.8,0.5,1.1,0.8
					c0.3,0.3,0.5,0.7,0.6,1.2c0.1,0.4,0.2,0.9,0.2,1.4c0,0.6-0.1,1.1-0.2,1.5c-0.1,0.5-0.4,0.8-0.7,1.2c-0.3,0.3-0.6,0.6-1.1,0.7
					s-0.9,0.3-1.4,0.3c-0.6,0-1.1-0.1-1.5-0.3s-0.8-0.5-1.1-0.8c-0.3-0.3-0.5-0.7-0.6-1.2C112.1,30.5,112,30,112,29.5z M113.2,29.5
					c0,0.3,0,0.7,0.1,1c0.1,0.3,0.2,0.6,0.4,0.9c0.2,0.3,0.4,0.5,0.7,0.6c0.3,0.2,0.6,0.2,1,0.2c0.7,0,1.3-0.2,1.7-0.7
					c0.4-0.5,0.6-1.1,0.6-2c0-0.3,0-0.7-0.1-1c-0.1-0.3-0.2-0.6-0.4-0.9c-0.2-0.3-0.4-0.5-0.7-0.6c-0.3-0.2-0.6-0.2-1-0.2
					c-0.7,0-1.3,0.2-1.7,0.7S113.2,28.6,113.2,29.5z"/>
				<path class="st4" d="M124.7,26h2v4.8c0,0.5,0,0.9,0.1,1.3h0.9V33h-1.9l0-1.2h-0.1c-0.2,0.4-0.6,0.7-1,1s-0.9,0.4-1.5,0.4
					c-0.4,0-0.8,0-1.1-0.1c-0.3-0.1-0.6-0.3-0.7-0.5c-0.2-0.2-0.3-0.6-0.4-1c-0.1-0.4-0.1-0.9-0.1-1.5v-3.1h-0.9V26h2v3.8
					c0,0.4,0,0.7,0,1c0,0.3,0.1,0.6,0.2,0.8s0.3,0.4,0.5,0.5c0.2,0.1,0.5,0.2,0.8,0.2c0.5,0,0.9-0.2,1.3-0.5s0.6-0.7,0.8-1.2v-3.6
					h-0.9V26z"/>
				<path class="st4" d="M132.9,23.2h2.3v7.4c0,0.1,0,0.2,0,0.3c0,0.1,0,0.3,0,0.4c0,0.1,0,0.3,0,0.4c0,0.1,0,0.3,0.1,0.4h0.9V33
					h-1.9l-0.1-1.1h-0.1c-0.2,0.4-0.5,0.7-0.9,0.9c-0.4,0.2-0.9,0.4-1.4,0.4c-1.1,0-1.8-0.3-2.3-0.9c-0.5-0.6-0.7-1.5-0.7-2.8
					c0-0.6,0.1-1.1,0.3-1.6c0.2-0.5,0.4-0.8,0.7-1.1c0.3-0.3,0.7-0.5,1.1-0.7c0.4-0.2,0.9-0.2,1.5-0.2c0.2,0,0.4,0,0.5,0
					c0.2,0,0.3,0,0.4,0c0.1,0,0.3,0,0.4,0.1c0.1,0,0.2,0.1,0.4,0.1v-2h-1.2V23.2z M132,32.2c0.6,0,1-0.1,1.3-0.4s0.5-0.7,0.7-1.3
					v-3.2c-0.2-0.1-0.4-0.2-0.7-0.3s-0.6-0.1-1-0.1c-0.7,0-1.3,0.2-1.8,0.7c-0.4,0.4-0.6,1.1-0.6,2.1c0,0.4,0,0.7,0.1,1.1
					c0.1,0.3,0.2,0.6,0.3,0.9c0.2,0.2,0.4,0.4,0.6,0.6C131.3,32.2,131.6,32.2,132,32.2z"/>
				<path class="st4" d="M146.9,31.6c0.3,0.1,0.6,0.3,0.9,0.4c0.3,0.1,0.7,0.1,1.1,0.1c0.3,0,0.6,0,0.9-0.1s0.5-0.2,0.7-0.3
					c0.2-0.1,0.4-0.3,0.5-0.5c0.1-0.2,0.2-0.4,0.2-0.7c0-0.4-0.1-0.7-0.4-0.9c-0.3-0.2-0.6-0.5-1-0.6c-0.4-0.2-0.8-0.4-1.2-0.5
					c-0.4-0.2-0.9-0.4-1.2-0.6c-0.4-0.2-0.7-0.5-1-0.9c-0.3-0.4-0.4-0.8-0.4-1.3c0-0.4,0.1-0.7,0.2-1c0.2-0.3,0.4-0.6,0.7-0.8
					c0.3-0.2,0.6-0.4,1-0.5c0.4-0.1,0.8-0.2,1.3-0.2c0.6,0,1.1,0,1.5,0.1s0.8,0.2,1.1,0.3l0,0v0h0l0,0v2.2h-1v-1.5
					c-0.2-0.1-0.5-0.1-0.8-0.1c-0.3,0-0.6-0.1-0.9-0.1c-0.3,0-0.6,0-0.8,0.1c-0.2,0.1-0.5,0.2-0.6,0.3s-0.3,0.3-0.4,0.4
					c-0.1,0.2-0.1,0.3-0.1,0.5c0,0.4,0.1,0.7,0.4,0.9c0.3,0.2,0.6,0.5,1,0.7c0.4,0.2,0.8,0.4,1.2,0.6c0.4,0.2,0.9,0.4,1.2,0.7
					c0.4,0.2,0.7,0.5,1,0.9s0.4,0.8,0.4,1.3c0,0.4-0.1,0.8-0.2,1.1s-0.4,0.6-0.7,0.9c-0.3,0.2-0.6,0.4-1,0.6
					c-0.4,0.1-0.9,0.2-1.4,0.2c-0.4,0-0.7,0-1-0.1s-0.6-0.1-0.9-0.2s-0.5-0.2-0.7-0.3c-0.2-0.1-0.4-0.2-0.5-0.2l0,0v-2.3h1V31.6z"/>
				<path class="st4" d="M160.6,32.1c-0.2,0.1-0.4,0.3-0.6,0.4c-0.2,0.1-0.5,0.2-0.7,0.3c-0.3,0.1-0.6,0.2-0.8,0.2
					c-0.3,0.1-0.6,0.1-0.9,0.1c-0.6,0-1.1-0.1-1.5-0.3c-0.4-0.2-0.8-0.4-1.1-0.7c-0.3-0.3-0.5-0.7-0.7-1.2c-0.1-0.4-0.2-1-0.2-1.5
					c0-0.6,0.1-1.1,0.2-1.6c0.2-0.5,0.4-0.8,0.7-1.1c0.3-0.3,0.7-0.5,1.1-0.7s0.9-0.2,1.5-0.2c0.4,0,0.8,0.1,1.2,0.2s0.7,0.3,1,0.6
					c0.3,0.3,0.5,0.7,0.7,1.2c0.2,0.5,0.2,1.1,0.2,1.9h-5.4c0,0.8,0.2,1.5,0.7,1.9c0.5,0.4,1.1,0.6,1.8,0.6c0.3,0,0.5,0,0.7-0.1
					c0.2-0.1,0.5-0.1,0.7-0.2c0.2-0.1,0.4-0.2,0.6-0.3c0.2-0.1,0.3-0.2,0.4-0.3L160.6,32.1z M157.7,26.8c-0.3,0-0.6,0-0.9,0.1
					c-0.3,0.1-0.5,0.2-0.7,0.3c-0.2,0.2-0.4,0.4-0.5,0.6c-0.1,0.2-0.2,0.6-0.3,0.9h4.3c0-0.6-0.2-1.1-0.6-1.4
					C158.7,26.9,158.2,26.8,157.7,26.8z"/>
				<path class="st4" d="M162.5,33v-0.9h1.9v-5.1h-1.9V26h2.6l0.2,0.9h0.1c0.3-0.3,0.7-0.5,1.1-0.7c0.4-0.2,0.9-0.3,1.4-0.3
					c0.3,0,0.6,0.1,0.8,0.2s0.3,0.3,0.4,0.5s0.2,0.5,0.2,0.8s0.1,0.7,0.1,1.1l-1,0c0-0.6-0.1-1-0.2-1.3c-0.1-0.3-0.3-0.4-0.6-0.4
					c-0.3,0-0.6,0-0.8,0.1s-0.4,0.2-0.6,0.3c-0.2,0.1-0.3,0.2-0.4,0.4c-0.1,0.1-0.2,0.2-0.3,0.3v4.1h2.7V33H162.5z"/>
				<path class="st4" d="M174.2,31.6h0.2l2.2-5.6h1.2l-3,7h-1.2l-3-7h1.3L174.2,31.6z"/>
				<path class="st4" d="M179.9,33v-0.9h2.4v-5.1h-2.4V26h3.5v6.1h2.4V33H179.9z M181.9,24c0-0.3,0.1-0.5,0.3-0.7
					c0.2-0.2,0.4-0.3,0.6-0.3c0.3,0,0.5,0.1,0.7,0.3c0.2,0.2,0.3,0.4,0.3,0.7c0,0.2-0.1,0.4-0.3,0.6c-0.2,0.2-0.4,0.3-0.7,0.3
					c-0.3,0-0.5-0.1-0.6-0.3S181.9,24.3,181.9,24z"/>
				<path class="st4" d="M192.9,27.1c-0.2-0.1-0.4-0.1-0.7-0.2c-0.2-0.1-0.5-0.1-0.7-0.1c-0.9,0-1.6,0.2-2,0.6s-0.7,1.1-0.7,2
					c0,0.4,0.1,0.8,0.2,1.1c0.1,0.3,0.3,0.6,0.6,0.8c0.2,0.2,0.5,0.4,0.9,0.5c0.3,0.1,0.7,0.2,1.1,0.2c0.4,0,0.9-0.1,1.3-0.2
					c0.4-0.2,0.8-0.4,1-0.6l0.5,0.8c-0.1,0.1-0.3,0.2-0.5,0.3c-0.2,0.1-0.4,0.2-0.7,0.3c-0.3,0.1-0.5,0.2-0.9,0.3
					c-0.3,0.1-0.7,0.1-1,0.1c-0.6,0-1.1-0.1-1.6-0.3s-0.8-0.4-1.2-0.7c-0.3-0.3-0.5-0.7-0.7-1.2c-0.2-0.5-0.2-1-0.2-1.5
					c0-0.6,0.1-1.1,0.2-1.6c0.2-0.5,0.4-0.8,0.7-1.1c0.3-0.3,0.7-0.5,1.1-0.7c0.4-0.2,0.9-0.2,1.5-0.2c0.7,0,1.3,0.1,1.7,0.2
					c0.4,0.1,0.8,0.3,1.1,0.4l0,0v1.9h-1V27.1z"/>
				<path class="st4" d="M202.6,32.1c-0.2,0.1-0.4,0.3-0.6,0.4c-0.2,0.1-0.5,0.2-0.7,0.3c-0.3,0.1-0.6,0.2-0.8,0.2
					c-0.3,0.1-0.6,0.1-0.9,0.1c-0.6,0-1.1-0.1-1.5-0.3c-0.4-0.2-0.8-0.4-1.1-0.7c-0.3-0.3-0.5-0.7-0.7-1.2c-0.1-0.4-0.2-1-0.2-1.5
					c0-0.6,0.1-1.1,0.2-1.6c0.2-0.5,0.4-0.8,0.7-1.1c0.3-0.3,0.7-0.5,1.1-0.7s0.9-0.2,1.5-0.2c0.4,0,0.8,0.1,1.2,0.2s0.7,0.3,1,0.6
					c0.3,0.3,0.5,0.7,0.7,1.2c0.2,0.5,0.2,1.1,0.2,1.9h-5.4c0,0.8,0.2,1.5,0.7,1.9c0.5,0.4,1.1,0.6,1.8,0.6c0.3,0,0.5,0,0.7-0.1
					c0.2-0.1,0.5-0.1,0.7-0.2c0.2-0.1,0.4-0.2,0.6-0.3c0.2-0.1,0.3-0.2,0.4-0.3L202.6,32.1z M199.7,26.8c-0.3,0-0.6,0-0.9,0.1
					c-0.3,0.1-0.5,0.2-0.7,0.3c-0.2,0.2-0.4,0.4-0.5,0.6c-0.1,0.2-0.2,0.6-0.3,0.9h4.3c0-0.6-0.2-1.1-0.6-1.4
					C200.7,26.9,200.2,26.8,199.7,26.8z"/>
			</g>
			<path id="Rectangle-Copy-15_1_" class="st2" d="M21,448h222c2.8,0,5,2.2,5,5v54c0,2.8-2.2,5-5,5H21c-2.8,0-5-2.2-5-5v-54
				C16,450.2,18.2,448,21,448z"/>
			<path id="Shape_4_" class="st0" d="M52,485H42v-10h10 M56,479v-2h-2v-2c0-1.1-0.9-2-2-2h-2v-2h-2v2h-2v-2h-2v2h-2
				c-1.1,0-2,0.9-2,2v2h-2v2h2v2h-2v2h2v2c0,1.1,0.9,2,2,2h2v2h2v-2h2v2h2v-2h2c1.1,0,2-0.9,2-2v-2h2v-2h-2v-2 M48,481h-2v-2h2
				 M50,477h-6v6h6V477z"/>
			<g class="st3">
				<path class="st5" d="M66.7,469.1c0-1.6,0.3-2.9,0.9-3.8c0.6-0.9,1.5-1.3,2.6-1.3c0.7,0,1.2,0.1,1.7,0.4c0.5,0.2,0.8,0.6,1.1,1
					c0.3,0.4,0.5,1,0.6,1.6c0.1,0.6,0.2,1.3,0.2,2.1c0,1.6-0.3,2.9-0.9,3.8c-0.6,0.9-1.5,1.3-2.7,1.3c-0.6,0-1.2-0.1-1.6-0.4
					c-0.4-0.2-0.8-0.6-1.1-1c-0.3-0.4-0.5-1-0.6-1.6C66.7,470.6,66.7,469.9,66.7,469.1z M67.9,469.1c0,0.5,0,1.1,0.1,1.5
					c0.1,0.5,0.2,0.9,0.4,1.3c0.2,0.4,0.4,0.7,0.7,0.9c0.3,0.2,0.7,0.3,1.1,0.3c0.8,0,1.4-0.3,1.8-1s0.6-1.7,0.6-3.1
					c0-0.5,0-1-0.1-1.5c-0.1-0.5-0.2-0.9-0.4-1.3c-0.2-0.4-0.4-0.7-0.7-0.9c-0.3-0.2-0.7-0.3-1.1-0.3c-0.8,0-1.4,0.3-1.7,1
					C68.1,466.7,67.9,467.7,67.9,469.1z"/>
				<path class="st5" d="M80.5,468.1c-0.2-0.1-0.4-0.1-0.7-0.2c-0.2-0.1-0.5-0.1-0.7-0.1c-0.9,0-1.6,0.2-2,0.6
					c-0.4,0.4-0.7,1.1-0.7,2c0,0.4,0.1,0.8,0.2,1.1c0.1,0.3,0.3,0.6,0.6,0.8s0.5,0.4,0.9,0.5c0.3,0.1,0.7,0.2,1.1,0.2
					c0.4,0,0.9-0.1,1.3-0.2c0.4-0.2,0.8-0.4,1-0.6l0.5,0.8c-0.1,0.1-0.3,0.2-0.5,0.3c-0.2,0.1-0.4,0.2-0.7,0.3
					c-0.3,0.1-0.5,0.2-0.9,0.3c-0.3,0.1-0.7,0.1-1,0.1c-0.6,0-1.1-0.1-1.6-0.3s-0.8-0.4-1.2-0.7c-0.3-0.3-0.5-0.7-0.7-1.2
					c-0.2-0.5-0.2-1-0.2-1.5c0-0.6,0.1-1.1,0.2-1.6c0.2-0.5,0.4-0.8,0.7-1.1c0.3-0.3,0.7-0.5,1.1-0.7c0.4-0.2,0.9-0.2,1.5-0.2
					c0.7,0,1.3,0.1,1.7,0.2c0.4,0.1,0.8,0.3,1.1,0.4l0,0v1.9h-1V468.1z"/>
				<path class="st5" d="M83.1,464.2h2.3v5.8h0.8l2.8-3h1.3l-3.1,3.3l2.5,2.7h0.9v0.9h-1.4l-3-3.2h-0.8v3.2h-1.1v-8.9h-1.2V464.2z"
					/>
				<path class="st5" d="M92.7,467.5c0.4-0.2,0.9-0.4,1.4-0.5s1-0.2,1.5-0.2c0.5,0,0.9,0.1,1.2,0.2s0.5,0.3,0.7,0.6
					c0.2,0.2,0.3,0.5,0.4,0.8c0.1,0.3,0.1,0.6,0.1,0.9c0,0.4,0,0.7,0,1.1c0,0.4,0,0.8,0,1.2c0,0.5,0,0.9,0.1,1.3h0.9v0.9H97l-0.1-1
					h-0.1c-0.1,0.1-0.1,0.2-0.3,0.3c-0.1,0.1-0.3,0.3-0.4,0.4s-0.4,0.2-0.7,0.3c-0.3,0.1-0.6,0.1-0.9,0.1c-0.7,0-1.2-0.2-1.6-0.5
					c-0.4-0.4-0.6-0.8-0.6-1.5c0-0.5,0.1-0.9,0.3-1.2c0.2-0.3,0.5-0.6,0.9-0.7c0.4-0.2,0.9-0.3,1.4-0.3c0.6,0,1.2,0,1.9,0.1
					c0-0.4,0.1-0.8,0-1.1c0-0.3-0.1-0.5-0.2-0.7s-0.3-0.3-0.5-0.4c-0.2-0.1-0.5-0.1-0.8-0.1c-0.4,0-0.8,0.1-1.2,0.2
					c-0.4,0.1-0.7,0.2-1,0.4L92.7,467.5z M94.8,473.2c0.3,0,0.5,0,0.7-0.1c0.2-0.1,0.4-0.2,0.6-0.3s0.3-0.3,0.4-0.4
					c0.1-0.2,0.2-0.3,0.3-0.4v-1c-0.5-0.1-0.9-0.1-1.3-0.1s-0.8,0-1.1,0.1c-0.3,0.1-0.5,0.2-0.7,0.4c-0.2,0.2-0.3,0.4-0.3,0.7
					c0,0.3,0.1,0.6,0.3,0.8C93.9,473.1,94.3,473.2,94.8,473.2z"/>
				<path class="st5" d="M103.3,474v-4.7c0-0.2,0-0.4,0-0.6c0-0.2,0-0.3-0.1-0.5s-0.1-0.3-0.2-0.3c-0.1-0.1-0.2-0.1-0.4-0.1
					c-0.3,0-0.6,0.1-0.8,0.4s-0.4,0.6-0.5,1v4.8h-1.1v-7h0.7l0.2,0.9h0.1c0.1-0.1,0.2-0.3,0.3-0.4s0.2-0.2,0.3-0.3
					c0.1-0.1,0.3-0.2,0.4-0.2c0.2-0.1,0.4-0.1,0.6-0.1c0.1,0,0.3,0,0.4,0.1c0.1,0,0.3,0.1,0.4,0.2c0.1,0.1,0.2,0.2,0.3,0.4
					s0.2,0.3,0.2,0.5c0.2-0.4,0.5-0.6,0.7-0.9c0.3-0.2,0.6-0.3,1.1-0.3c0.3,0,0.6,0.1,0.7,0.2s0.3,0.2,0.4,0.4
					c0.1,0.2,0.2,0.4,0.2,0.7c0,0.3,0.1,0.6,0.1,0.9v5h-1.1v-4.8c0-0.2,0-0.4,0-0.6c0-0.2-0.1-0.3-0.1-0.5s-0.1-0.2-0.2-0.3
					c-0.1-0.1-0.2-0.1-0.4-0.1c-0.3,0-0.6,0.1-0.8,0.4c-0.2,0.3-0.4,0.6-0.5,1.1v4.7H103.3z"/>
				<path class="st5" d="M123.8,473.1c-0.2,0.1-0.4,0.3-0.6,0.4c-0.2,0.1-0.5,0.2-0.7,0.3c-0.3,0.1-0.6,0.2-0.8,0.2
					c-0.3,0.1-0.6,0.1-0.9,0.1c-0.6,0-1.1-0.1-1.5-0.3s-0.8-0.4-1.1-0.7c-0.3-0.3-0.5-0.7-0.7-1.2c-0.1-0.4-0.2-1-0.2-1.5
					c0-0.6,0.1-1.1,0.2-1.6c0.2-0.5,0.4-0.8,0.7-1.1c0.3-0.3,0.7-0.5,1.1-0.7c0.4-0.2,0.9-0.2,1.5-0.2c0.4,0,0.8,0.1,1.2,0.2
					s0.7,0.3,1,0.6c0.3,0.3,0.5,0.7,0.7,1.2s0.2,1.1,0.2,1.9h-5.4c0,0.8,0.2,1.5,0.7,1.9c0.5,0.4,1.1,0.6,1.8,0.6
					c0.3,0,0.5,0,0.7-0.1c0.2-0.1,0.5-0.1,0.7-0.2c0.2-0.1,0.4-0.2,0.6-0.3c0.2-0.1,0.3-0.2,0.4-0.3L123.8,473.1z M120.9,467.8
					c-0.3,0-0.6,0-0.9,0.1c-0.3,0.1-0.5,0.2-0.7,0.3c-0.2,0.2-0.4,0.4-0.5,0.6c-0.1,0.2-0.2,0.6-0.3,0.9h4.3c0-0.6-0.2-1.1-0.6-1.4
					C121.9,467.9,121.4,467.8,120.9,467.8z"/>
				<path class="st5" d="M126.1,469.5c0-0.1,0-0.2,0-0.3s0-0.3,0-0.4s0-0.3,0-0.4c0-0.1,0-0.3,0-0.4h-0.9V467h1.9l0.1,1.1h0.1
					c0.1-0.2,0.2-0.3,0.4-0.5c0.2-0.2,0.3-0.3,0.5-0.4s0.4-0.2,0.7-0.3c0.3-0.1,0.5-0.1,0.8-0.1c0.4,0,0.8,0,1.1,0.1
					c0.3,0.1,0.6,0.3,0.8,0.5c0.2,0.2,0.4,0.6,0.5,1c0.1,0.4,0.2,0.9,0.2,1.5v4H131v-3.8c0-0.8-0.1-1.4-0.4-1.7
					c-0.3-0.4-0.7-0.6-1.4-0.6c-0.2,0-0.5,0-0.7,0.1s-0.4,0.2-0.6,0.4c-0.2,0.2-0.3,0.3-0.5,0.6c-0.1,0.2-0.2,0.4-0.3,0.7v4.4h-1.1
					V469.5z"/>
				<path class="st5" d="M134.7,467.5c0.4-0.2,0.9-0.4,1.4-0.5s1-0.2,1.5-0.2c0.5,0,0.9,0.1,1.2,0.2c0.3,0.1,0.5,0.3,0.7,0.6
					c0.2,0.2,0.3,0.5,0.4,0.8c0.1,0.3,0.1,0.6,0.1,0.9c0,0.4,0,0.7,0,1.1c0,0.4,0,0.8,0,1.2c0,0.5,0,0.9,0.1,1.3h0.9v0.9H139l-0.1-1
					h-0.1c-0.1,0.1-0.1,0.2-0.3,0.3c-0.1,0.1-0.3,0.3-0.4,0.4s-0.4,0.2-0.7,0.3c-0.3,0.1-0.6,0.1-0.9,0.1c-0.7,0-1.2-0.2-1.6-0.5
					c-0.4-0.4-0.6-0.8-0.6-1.5c0-0.5,0.1-0.9,0.3-1.2c0.2-0.3,0.5-0.6,0.9-0.7c0.4-0.2,0.9-0.3,1.4-0.3c0.6,0,1.2,0,1.9,0.1
					c0-0.4,0.1-0.8,0-1.1c0-0.3-0.1-0.5-0.2-0.7s-0.3-0.3-0.5-0.4c-0.2-0.1-0.5-0.1-0.8-0.1c-0.4,0-0.8,0.1-1.2,0.2
					c-0.4,0.1-0.7,0.2-1,0.4L134.7,467.5z M136.8,473.2c0.3,0,0.5,0,0.7-0.1c0.2-0.1,0.4-0.2,0.6-0.3s0.3-0.3,0.4-0.4
					c0.1-0.2,0.2-0.3,0.3-0.4v-1c-0.5-0.1-0.9-0.1-1.3-0.1c-0.4,0-0.8,0-1.1,0.1s-0.5,0.2-0.7,0.4c-0.2,0.2-0.3,0.4-0.3,0.7
					c0,0.3,0.1,0.6,0.3,0.8C135.9,473.1,136.3,473.2,136.8,473.2z"/>
				<path class="st5" d="M141.6,464.2h2.2v3.6h0.1c0.2-0.3,0.6-0.5,0.9-0.7s0.8-0.3,1.2-0.3c2.1,0,3.1,1.2,3.1,3.6
					c0,1.2-0.3,2.1-1,2.8c-0.7,0.6-1.6,1-2.8,1c-0.6,0-1.1-0.1-1.6-0.2c-0.5-0.1-0.8-0.2-1-0.4v-8.4h-1.2V464.2z M146,467.8
					c-0.6,0-1,0.2-1.4,0.5c-0.3,0.3-0.6,0.8-0.8,1.3v3.2c0.2,0.1,0.5,0.2,0.8,0.3s0.6,0.1,0.9,0.1c0.4,0,0.7-0.1,1-0.2
					c0.3-0.1,0.6-0.3,0.8-0.5c0.2-0.2,0.4-0.5,0.5-0.9c0.1-0.4,0.2-0.8,0.2-1.3c0-0.4,0-0.7-0.1-1s-0.2-0.6-0.4-0.8
					c-0.2-0.2-0.4-0.4-0.6-0.6C146.7,467.8,146.4,467.8,146,467.8z"/>
				<path class="st5" d="M151.7,464.2h2.3v7.4c0,0.6,0.1,1,0.3,1.2c0.2,0.2,0.5,0.4,0.8,0.4c0.3,0,0.5,0,0.7-0.1
					c0.2-0.1,0.5-0.3,0.8-0.5l0.5,0.8c-0.1,0.1-0.3,0.2-0.5,0.3c-0.2,0.1-0.4,0.2-0.5,0.3s-0.4,0.1-0.6,0.2c-0.2,0-0.4,0.1-0.5,0.1
					c-0.3,0-0.7,0-0.9-0.1s-0.5-0.2-0.7-0.4s-0.3-0.5-0.4-0.8c-0.1-0.3-0.1-0.7-0.1-1.2v-6.5h-1.2V464.2z"/>
				<path class="st5" d="M165.8,473.1c-0.2,0.1-0.4,0.3-0.6,0.4s-0.5,0.2-0.7,0.3c-0.3,0.1-0.6,0.2-0.8,0.2
					c-0.3,0.1-0.6,0.1-0.9,0.1c-0.6,0-1.1-0.1-1.5-0.3s-0.8-0.4-1.1-0.7s-0.5-0.7-0.7-1.2c-0.1-0.4-0.2-1-0.2-1.5
					c0-0.6,0.1-1.1,0.2-1.6c0.2-0.5,0.4-0.8,0.7-1.1c0.3-0.3,0.7-0.5,1.1-0.7s0.9-0.2,1.5-0.2c0.4,0,0.8,0.1,1.2,0.2s0.7,0.3,1,0.6
					c0.3,0.3,0.5,0.7,0.7,1.2c0.2,0.5,0.2,1.1,0.2,1.9h-5.4c0,0.8,0.2,1.5,0.7,1.9c0.5,0.4,1.1,0.6,1.8,0.6c0.3,0,0.5,0,0.7-0.1
					c0.2-0.1,0.5-0.1,0.7-0.2c0.2-0.1,0.4-0.2,0.6-0.3c0.2-0.1,0.3-0.2,0.4-0.3L165.8,473.1z M162.9,467.8c-0.3,0-0.6,0-0.9,0.1
					c-0.3,0.1-0.5,0.2-0.7,0.3c-0.2,0.2-0.4,0.4-0.5,0.6s-0.2,0.6-0.3,0.9h4.3c0-0.6-0.2-1.1-0.6-1.4
					C163.9,467.9,163.4,467.8,162.9,467.8z"/>
				<path class="st5" d="M171.7,464.2h2.3v7.4c0,0.1,0,0.2,0,0.3c0,0.1,0,0.3,0,0.4c0,0.1,0,0.3,0,0.4c0,0.1,0,0.3,0.1,0.4h0.9v0.9
					h-1.9l-0.1-1.1H173c-0.2,0.4-0.5,0.7-0.9,0.9c-0.4,0.2-0.9,0.4-1.4,0.4c-1.1,0-1.8-0.3-2.3-0.9c-0.5-0.6-0.7-1.5-0.7-2.8
					c0-0.6,0.1-1.1,0.3-1.6s0.4-0.8,0.7-1.1c0.3-0.3,0.7-0.5,1.1-0.7c0.4-0.2,0.9-0.2,1.5-0.2c0.2,0,0.4,0,0.5,0c0.2,0,0.3,0,0.4,0
					c0.1,0,0.3,0,0.4,0.1c0.1,0,0.2,0.1,0.4,0.1v-2h-1.2V464.2z M170.8,473.2c0.6,0,1-0.1,1.3-0.4s0.5-0.7,0.7-1.3v-3.2
					c-0.2-0.1-0.4-0.2-0.7-0.3s-0.6-0.1-1-0.1c-0.7,0-1.3,0.2-1.8,0.7c-0.4,0.4-0.6,1.1-0.6,2.1c0,0.4,0,0.7,0.1,1.1
					c0.1,0.3,0.2,0.6,0.3,0.9c0.2,0.2,0.4,0.4,0.6,0.6C170.1,473.2,170.4,473.2,170.8,473.2z"/>
			</g>
			<g class="st3">
				<path class="st5" d="M70.9,482.2h2.3v7.4c0,0.1,0,0.2,0,0.3s0,0.3,0,0.4c0,0.1,0,0.3,0,0.4c0,0.1,0,0.3,0.1,0.4h0.9v0.9h-1.9
					l-0.1-1.1h-0.1c-0.2,0.4-0.5,0.7-0.9,0.9c-0.4,0.2-0.9,0.4-1.4,0.4c-1.1,0-1.8-0.3-2.3-0.9c-0.5-0.6-0.7-1.5-0.7-2.8
					c0-0.6,0.1-1.1,0.3-1.6c0.2-0.5,0.4-0.8,0.7-1.1c0.3-0.3,0.7-0.5,1.1-0.7c0.4-0.2,0.9-0.2,1.5-0.2c0.2,0,0.4,0,0.5,0
					c0.2,0,0.3,0,0.4,0s0.3,0,0.4,0.1c0.1,0,0.2,0.1,0.4,0.1v-2h-1.2V482.2z M70,491.2c0.6,0,1-0.1,1.3-0.4c0.3-0.3,0.5-0.7,0.7-1.3
					v-3.2c-0.2-0.1-0.4-0.2-0.7-0.3s-0.6-0.1-1-0.1c-0.7,0-1.3,0.2-1.8,0.7c-0.4,0.4-0.6,1.1-0.6,2.1c0,0.4,0,0.7,0.1,1.1
					c0.1,0.3,0.2,0.6,0.3,0.9c0.2,0.2,0.4,0.4,0.6,0.6C69.3,491.2,69.6,491.2,70,491.2z"/>
				<path class="st5" d="M81.8,491.1c-0.2,0.1-0.4,0.3-0.6,0.4c-0.2,0.1-0.5,0.2-0.7,0.3c-0.3,0.1-0.6,0.2-0.8,0.2
					c-0.3,0.1-0.6,0.1-0.9,0.1c-0.6,0-1.1-0.1-1.5-0.3s-0.8-0.4-1.1-0.7c-0.3-0.3-0.5-0.7-0.7-1.2c-0.1-0.4-0.2-1-0.2-1.5
					c0-0.6,0.1-1.1,0.2-1.6c0.2-0.5,0.4-0.8,0.7-1.1c0.3-0.3,0.7-0.5,1.1-0.7c0.4-0.2,0.9-0.2,1.5-0.2c0.4,0,0.8,0.1,1.2,0.2
					s0.7,0.3,1,0.6c0.3,0.3,0.5,0.7,0.7,1.2s0.2,1.1,0.2,1.9h-5.4c0,0.8,0.2,1.5,0.7,1.9c0.5,0.4,1.1,0.6,1.8,0.6
					c0.3,0,0.5,0,0.7-0.1c0.2-0.1,0.5-0.1,0.7-0.2c0.2-0.1,0.4-0.2,0.6-0.3c0.2-0.1,0.3-0.2,0.4-0.3L81.8,491.1z M78.9,485.8
					c-0.3,0-0.6,0-0.9,0.1c-0.3,0.1-0.5,0.2-0.7,0.3c-0.2,0.2-0.4,0.4-0.5,0.6c-0.1,0.2-0.2,0.6-0.3,0.9h4.3c0-0.6-0.2-1.1-0.6-1.4
					C79.9,485.9,79.4,485.8,78.9,485.8z"/>
				<path class="st5" d="M87,490.6h0.2l2.2-5.6h1.2l-3,7h-1.2l-3-7h1.3L87,490.6z"/>
				<path class="st5" d="M92.7,492v-0.9h2.4v-5.1h-2.4V485h3.5v6.1h2.4v0.9H92.7z M94.7,483c0-0.3,0.1-0.5,0.3-0.7
					c0.2-0.2,0.4-0.3,0.6-0.3c0.3,0,0.5,0.1,0.7,0.3c0.2,0.2,0.3,0.4,0.3,0.7c0,0.2-0.1,0.4-0.3,0.6c-0.2,0.2-0.4,0.3-0.7,0.3
					c-0.3,0-0.5-0.1-0.6-0.3S94.7,483.3,94.7,483z"/>
				<path class="st5" d="M105.7,486.1c-0.2-0.1-0.4-0.1-0.7-0.2c-0.2-0.1-0.5-0.1-0.7-0.1c-0.9,0-1.6,0.2-2,0.6
					c-0.4,0.4-0.7,1.1-0.7,2c0,0.4,0.1,0.8,0.2,1.1c0.1,0.3,0.3,0.6,0.6,0.8s0.5,0.4,0.9,0.5c0.3,0.1,0.7,0.2,1.1,0.2
					c0.4,0,0.9-0.1,1.3-0.2c0.4-0.2,0.8-0.4,1-0.6l0.5,0.8c-0.1,0.1-0.3,0.2-0.5,0.3c-0.2,0.1-0.4,0.2-0.7,0.3
					c-0.3,0.1-0.5,0.2-0.9,0.3c-0.3,0.1-0.7,0.1-1,0.1c-0.6,0-1.1-0.1-1.6-0.3s-0.8-0.4-1.2-0.7c-0.3-0.3-0.5-0.7-0.7-1.2
					c-0.2-0.5-0.2-1-0.2-1.5c0-0.6,0.1-1.1,0.2-1.6c0.2-0.5,0.4-0.8,0.7-1.1c0.3-0.3,0.7-0.5,1.1-0.7c0.4-0.2,0.9-0.2,1.5-0.2
					c0.7,0,1.3,0.1,1.7,0.2c0.4,0.1,0.8,0.3,1.1,0.4l0,0v1.9h-1V486.1z"/>
				<path class="st5" d="M115.4,491.1c-0.2,0.1-0.4,0.3-0.6,0.4c-0.2,0.1-0.5,0.2-0.7,0.3c-0.3,0.1-0.6,0.2-0.8,0.2
					c-0.3,0.1-0.6,0.1-0.9,0.1c-0.6,0-1.1-0.1-1.5-0.3s-0.8-0.4-1.1-0.7c-0.3-0.3-0.5-0.7-0.7-1.2c-0.1-0.4-0.2-1-0.2-1.5
					c0-0.6,0.1-1.1,0.2-1.6c0.2-0.5,0.4-0.8,0.7-1.1c0.3-0.3,0.7-0.5,1.1-0.7c0.4-0.2,0.9-0.2,1.5-0.2c0.4,0,0.8,0.1,1.2,0.2
					s0.7,0.3,1,0.6c0.3,0.3,0.5,0.7,0.7,1.2s0.2,1.1,0.2,1.9H110c0,0.8,0.2,1.5,0.7,1.9c0.5,0.4,1.1,0.6,1.8,0.6
					c0.3,0,0.5,0,0.7-0.1c0.2-0.1,0.5-0.1,0.7-0.2c0.2-0.1,0.4-0.2,0.6-0.3c0.2-0.1,0.3-0.2,0.4-0.3L115.4,491.1z M112.5,485.8
					c-0.3,0-0.6,0-0.9,0.1c-0.3,0.1-0.5,0.2-0.7,0.3c-0.2,0.2-0.4,0.4-0.5,0.6c-0.1,0.2-0.2,0.6-0.3,0.9h4.3c0-0.6-0.2-1.1-0.6-1.4
					C113.5,485.9,113,485.8,112.5,485.8z"/>
				<path class="st5" d="M122.5,490.1c0-0.3-0.1-0.5-0.3-0.7c-0.2-0.2-0.5-0.3-0.9-0.4c-0.3-0.1-0.7-0.2-1.1-0.3s-0.8-0.2-1.1-0.3
					s-0.6-0.3-0.9-0.6c-0.2-0.2-0.3-0.6-0.3-1c0-0.4,0.1-0.7,0.2-0.9c0.2-0.3,0.4-0.5,0.6-0.6c0.3-0.2,0.5-0.3,0.9-0.4
					s0.7-0.1,1-0.1c0.7,0,1.2,0.1,1.7,0.2s0.8,0.3,1.1,0.5l-0.4,0.9c-0.3-0.2-0.6-0.3-1-0.5c-0.4-0.2-0.8-0.2-1.3-0.2
					c-0.2,0-0.4,0-0.6,0.1c-0.2,0-0.4,0.1-0.5,0.2c-0.2,0.1-0.3,0.2-0.4,0.3c-0.1,0.1-0.1,0.3-0.1,0.5c0,0.2,0.1,0.4,0.3,0.6
					c0.2,0.1,0.5,0.2,0.9,0.3c0.3,0.1,0.7,0.2,1.1,0.3c0.4,0.1,0.8,0.2,1.1,0.3s0.6,0.3,0.9,0.6s0.3,0.6,0.3,1
					c0,0.6-0.3,1.2-0.8,1.6s-1.3,0.6-2.3,0.6c-0.3,0-0.6,0-0.9-0.1c-0.3-0.1-0.6-0.1-0.8-0.2c-0.3-0.1-0.5-0.2-0.7-0.3
					c-0.2-0.1-0.4-0.2-0.5-0.4l0.6-0.9c0.1,0.1,0.3,0.2,0.4,0.3c0.2,0.1,0.4,0.2,0.6,0.3c0.2,0.1,0.5,0.2,0.7,0.2
					c0.3,0.1,0.5,0.1,0.8,0.1c0.3,0,0.5,0,0.7-0.1s0.4-0.1,0.6-0.2c0.2-0.1,0.3-0.2,0.4-0.4C122.5,490.5,122.5,490.3,122.5,490.1z"
					/>
				<path class="st5" d="M134.7,485.5c0.4-0.2,0.9-0.4,1.4-0.5s1-0.2,1.5-0.2c0.5,0,0.9,0.1,1.2,0.2c0.3,0.1,0.5,0.3,0.7,0.6
					c0.2,0.2,0.3,0.5,0.4,0.8c0.1,0.3,0.1,0.6,0.1,0.9c0,0.4,0,0.7,0,1.1c0,0.4,0,0.8,0,1.2c0,0.5,0,0.9,0.1,1.3h0.9v0.9H139l-0.1-1
					h-0.1c-0.1,0.1-0.1,0.2-0.3,0.3c-0.1,0.1-0.3,0.3-0.4,0.4s-0.4,0.2-0.7,0.3c-0.3,0.1-0.6,0.1-0.9,0.1c-0.7,0-1.2-0.2-1.6-0.5
					c-0.4-0.4-0.6-0.8-0.6-1.5c0-0.5,0.1-0.9,0.3-1.2c0.2-0.3,0.5-0.6,0.9-0.7c0.4-0.2,0.9-0.3,1.4-0.3c0.6,0,1.2,0,1.9,0.1
					c0-0.4,0.1-0.8,0-1.1c0-0.3-0.1-0.5-0.2-0.7s-0.3-0.3-0.5-0.4c-0.2-0.1-0.5-0.1-0.8-0.1c-0.4,0-0.8,0.1-1.2,0.2
					c-0.4,0.1-0.7,0.2-1,0.4L134.7,485.5z M136.8,491.2c0.3,0,0.5,0,0.7-0.1c0.2-0.1,0.4-0.2,0.6-0.3s0.3-0.3,0.4-0.4
					c0.1-0.2,0.2-0.3,0.3-0.4v-1c-0.5-0.1-0.9-0.1-1.3-0.1c-0.4,0-0.8,0-1.1,0.1s-0.5,0.2-0.7,0.4c-0.2,0.2-0.3,0.4-0.3,0.7
					c0,0.3,0.1,0.6,0.3,0.8C135.9,491.1,136.3,491.2,136.8,491.2z"/>
				<path class="st5" d="M142,485h1.7v-1.4l1.1-0.3v1.7h3.7v0.9h-3.7v3.3c0,0.7,0.2,1.2,0.5,1.5c0.3,0.3,0.8,0.5,1.4,0.5
					c0.4,0,0.8-0.1,1.1-0.2c0.3-0.2,0.6-0.3,0.8-0.5l0.4,0.8c-0.3,0.3-0.7,0.5-1.2,0.6c-0.5,0.2-0.9,0.2-1.4,0.2
					c-0.4,0-0.7-0.1-1.1-0.2c-0.3-0.1-0.6-0.3-0.9-0.5c-0.3-0.2-0.5-0.5-0.6-0.9s-0.2-0.8-0.2-1.3v-3.5H142V485z"/>
				<path class="st5" d="M158.8,485h1.7v-1.4l1.1-0.3v1.7h3.7v0.9h-3.7v3.3c0,0.7,0.2,1.2,0.5,1.5c0.3,0.3,0.8,0.5,1.4,0.5
					c0.4,0,0.8-0.1,1.1-0.2c0.3-0.2,0.6-0.3,0.8-0.5l0.4,0.8c-0.3,0.3-0.7,0.5-1.2,0.6c-0.5,0.2-0.9,0.2-1.4,0.2
					c-0.4,0-0.7-0.1-1.1-0.2c-0.3-0.1-0.6-0.3-0.9-0.5c-0.3-0.2-0.5-0.5-0.6-0.9c-0.1-0.3-0.2-0.8-0.2-1.3v-3.5h-1.7V485z"/>
				<path class="st5" d="M166.9,482.2h2.2v3.7h0.1c0.3-0.3,0.6-0.6,1-0.8c0.4-0.2,0.9-0.3,1.4-0.3c0.4,0,0.8,0,1.2,0.1
					c0.3,0.1,0.6,0.3,0.8,0.5s0.4,0.6,0.5,1c0.1,0.4,0.2,0.9,0.2,1.5v4H173v-3.8c0-0.4,0-0.8-0.1-1s-0.1-0.5-0.3-0.7
					c-0.1-0.2-0.3-0.4-0.6-0.5s-0.5-0.2-0.9-0.2c-0.3,0-0.5,0-0.7,0.1c-0.2,0.1-0.5,0.2-0.7,0.4c-0.2,0.2-0.4,0.3-0.5,0.6
					s-0.2,0.5-0.3,0.7v4.5H168v-8.9h-1.1V482.2z"/>
				<path class="st5" d="M182.6,491.1c-0.2,0.1-0.4,0.3-0.6,0.4c-0.2,0.1-0.5,0.2-0.8,0.3c-0.3,0.1-0.6,0.2-0.8,0.2
					c-0.3,0.1-0.6,0.1-0.9,0.1c-0.6,0-1.1-0.1-1.5-0.3s-0.8-0.4-1.1-0.7c-0.3-0.3-0.5-0.7-0.7-1.2c-0.2-0.4-0.2-1-0.2-1.5
					c0-0.6,0.1-1.1,0.2-1.6c0.2-0.5,0.4-0.8,0.7-1.1c0.3-0.3,0.7-0.5,1.1-0.7c0.4-0.2,0.9-0.2,1.5-0.2c0.4,0,0.8,0.1,1.2,0.2
					s0.7,0.3,1,0.6c0.3,0.3,0.5,0.7,0.7,1.2c0.2,0.5,0.2,1.1,0.2,1.9h-5.4c0,0.8,0.2,1.5,0.7,1.9c0.5,0.4,1.1,0.6,1.8,0.6
					c0.3,0,0.5,0,0.7-0.1c0.2-0.1,0.5-0.1,0.7-0.2c0.2-0.1,0.4-0.2,0.6-0.3c0.2-0.1,0.3-0.2,0.4-0.3L182.6,491.1z M179.7,485.8
					c-0.3,0-0.6,0-0.9,0.1c-0.3,0.1-0.5,0.2-0.7,0.3c-0.2,0.2-0.4,0.4-0.5,0.6c-0.1,0.2-0.2,0.6-0.3,0.9h4.3c0-0.6-0.2-1.1-0.6-1.4
					C180.7,485.9,180.2,485.8,179.7,485.8z"/>
				<path class="st5" d="M193.5,482.2h5.8v1h-4.6v3.2h4.2v1h-4.2v3.5h4.7v1h-5.8V482.2z"/>
				<path class="st5" d="M205.3,482.2h2.3v7.4c0,0.1,0,0.2,0,0.3c0,0.1,0,0.3,0,0.4c0,0.1,0,0.3,0,0.4c0,0.1,0,0.3,0.1,0.4h0.9v0.9
					h-1.9l-0.1-1.1h-0.1c-0.2,0.4-0.5,0.7-0.9,0.9c-0.4,0.2-0.9,0.4-1.4,0.4c-1.1,0-1.8-0.3-2.3-0.9c-0.5-0.6-0.7-1.5-0.7-2.8
					c0-0.6,0.1-1.1,0.3-1.6s0.4-0.8,0.7-1.1c0.3-0.3,0.7-0.5,1.1-0.7c0.4-0.2,0.9-0.2,1.5-0.2c0.2,0,0.4,0,0.5,0c0.2,0,0.3,0,0.4,0
					c0.1,0,0.3,0,0.4,0.1c0.1,0,0.2,0.1,0.4,0.1v-2h-1.2V482.2z M204.4,491.2c0.6,0,1-0.1,1.3-0.4s0.5-0.7,0.7-1.3v-3.2
					c-0.2-0.1-0.4-0.2-0.7-0.3s-0.6-0.1-1-0.1c-0.7,0-1.3,0.2-1.8,0.7c-0.4,0.4-0.6,1.1-0.6,2.1c0,0.4,0,0.7,0.1,1.1
					c0.1,0.3,0.2,0.6,0.3,0.9c0.2,0.2,0.4,0.4,0.6,0.6C203.7,491.2,204,491.2,204.4,491.2z"/>
				<path class="st5" d="M216.1,492.3c0,0.4-0.1,0.8-0.3,1.2s-0.4,0.6-0.7,0.8c-0.3,0.2-0.6,0.4-1,0.5c-0.4,0.1-0.8,0.2-1.3,0.2
					c-0.6,0-1-0.1-1.4-0.2c-0.4-0.1-0.8-0.3-1.1-0.4l0.5-1c0.1,0.1,0.2,0.1,0.3,0.2s0.3,0.1,0.5,0.2c0.2,0.1,0.4,0.1,0.6,0.1
					c0.2,0,0.4,0.1,0.6,0.1c0.4,0,0.8,0,1-0.1c0.3-0.1,0.5-0.2,0.7-0.3c0.2-0.2,0.3-0.4,0.4-0.6s0.1-0.6,0.1-0.9v-0.8H215
					c-0.2,0.3-0.5,0.5-0.8,0.7c-0.3,0.2-0.8,0.3-1.3,0.3c-1.1,0-1.8-0.3-2.3-0.9s-0.7-1.5-0.7-2.8c0-1.2,0.3-2.1,1-2.7
					s1.6-0.9,2.8-0.9c0.6,0,1.1,0,1.5,0.1c0.4,0.1,0.8,0.2,1.1,0.3V492.3z M213,491.2c0.6,0,1-0.1,1.3-0.4c0.3-0.3,0.6-0.7,0.7-1.4
					v-3.3c-0.4-0.2-1-0.3-1.7-0.3c-0.7,0-1.3,0.2-1.8,0.7c-0.4,0.4-0.6,1.1-0.6,2c0,0.4,0,0.8,0.1,1.1c0.1,0.3,0.2,0.6,0.4,0.9
					c0.2,0.2,0.4,0.4,0.6,0.6C212.3,491.2,212.6,491.2,213,491.2z"/>
				<path class="st5" d="M224.6,491.1c-0.2,0.1-0.4,0.3-0.6,0.4c-0.2,0.1-0.5,0.2-0.7,0.3c-0.3,0.1-0.6,0.2-0.8,0.2
					c-0.3,0.1-0.6,0.1-0.9,0.1c-0.6,0-1.1-0.1-1.5-0.3c-0.4-0.2-0.8-0.4-1.1-0.7c-0.3-0.3-0.5-0.7-0.7-1.2c-0.1-0.4-0.2-1-0.2-1.5
					c0-0.6,0.1-1.1,0.2-1.6c0.2-0.5,0.4-0.8,0.7-1.1c0.3-0.3,0.7-0.5,1.1-0.7c0.4-0.2,0.9-0.2,1.5-0.2c0.4,0,0.8,0.1,1.2,0.2
					s0.7,0.3,1,0.6c0.3,0.3,0.5,0.7,0.7,1.2s0.2,1.1,0.2,1.9h-5.4c0,0.8,0.2,1.5,0.7,1.9c0.5,0.4,1.1,0.6,1.8,0.6
					c0.3,0,0.5,0,0.7-0.1c0.2-0.1,0.5-0.1,0.7-0.2c0.2-0.1,0.4-0.2,0.6-0.3c0.2-0.1,0.3-0.2,0.4-0.3L224.6,491.1z M221.7,485.8
					c-0.3,0-0.6,0-0.9,0.1c-0.3,0.1-0.5,0.2-0.7,0.3c-0.2,0.2-0.4,0.4-0.5,0.6c-0.1,0.2-0.2,0.6-0.3,0.9h4.3c0-0.6-0.2-1.1-0.6-1.4
					C222.7,485.9,222.2,485.8,221.7,485.8z"/>
			</g>
			<path id="Rectangle-Copy-15_2_" class="st2" d="M21,120h222c2.8,0,5,2.2,5,5v54c0,2.8-2.2,5-5,5H21c-2.8,0-5-2.2-5-5v-54
				C16,122.2,18.2,120,21,120z"/>
			<path id="Path_1_" class="st0" d="M52.3,150c-0.7-3.4-3.7-6-7.3-6c-2.9,0-5.4,1.6-6.7,4c-3,0.3-5.3,2.9-5.3,6c0,3.3,2.7,6,6,6h13
				c1.3,0,2.6-0.5,3.5-1.5s1.5-2.2,1.5-3.5C57,152.4,55,150.2,52.3,150z"/>
			<g class="st3">
				<path class="st6" d="M67.6,148.5c0-1.5,0.3-2.7,0.8-3.5c0.5-0.8,1.4-1.2,2.5-1.2c0.6,0,1.1,0.1,1.5,0.3s0.8,0.5,1,1
					c0.3,0.4,0.4,0.9,0.6,1.5c0.1,0.6,0.2,1.2,0.2,1.9c0,1.5-0.3,2.7-0.8,3.5c-0.5,0.8-1.4,1.2-2.5,1.2c-0.6,0-1.1-0.1-1.5-0.3
					c-0.4-0.2-0.8-0.5-1-1c-0.3-0.4-0.4-0.9-0.6-1.5C67.7,149.8,67.6,149.2,67.6,148.5z M68.8,148.5c0,0.5,0,1,0.1,1.4
					c0.1,0.5,0.2,0.8,0.3,1.2c0.2,0.3,0.4,0.6,0.7,0.8c0.3,0.2,0.6,0.3,1,0.3c0.7,0,1.3-0.3,1.6-0.9s0.5-1.6,0.5-2.8
					c0-0.5,0-1-0.1-1.4s-0.2-0.9-0.3-1.2c-0.2-0.3-0.4-0.6-0.7-0.8c-0.3-0.2-0.6-0.3-1-0.3c-0.7,0-1.3,0.3-1.6,0.9
					C68.9,146.2,68.8,147.2,68.8,148.5z"/>
				<path class="st6" d="M80.2,147.5c-0.2-0.1-0.4-0.1-0.6-0.2c-0.2,0-0.5-0.1-0.7-0.1c-0.8,0-1.5,0.2-1.9,0.6s-0.6,1-0.6,1.9
					c0,0.4,0.1,0.7,0.2,1c0.1,0.3,0.3,0.6,0.5,0.8c0.2,0.2,0.5,0.4,0.8,0.5c0.3,0.1,0.7,0.2,1,0.2c0.4,0,0.8-0.1,1.2-0.2
					s0.7-0.3,1-0.6l0.5,0.8c-0.1,0.1-0.3,0.2-0.5,0.3c-0.2,0.1-0.4,0.2-0.6,0.3s-0.5,0.2-0.8,0.2c-0.3,0.1-0.6,0.1-0.9,0.1
					c-0.6,0-1.1-0.1-1.5-0.2c-0.4-0.2-0.8-0.4-1.1-0.7c-0.3-0.3-0.5-0.7-0.6-1.1c-0.1-0.4-0.2-0.9-0.2-1.4c0-0.5,0.1-1,0.2-1.5
					c0.2-0.4,0.4-0.8,0.7-1.1c0.3-0.3,0.6-0.5,1-0.7c0.4-0.2,0.9-0.2,1.4-0.2c0.6,0,1.2,0.1,1.6,0.2c0.4,0.1,0.7,0.2,1,0.4l0,0v1.8
					h-0.9V147.5z"/>
				<path class="st6" d="M82.3,143.9h2.1v5.4h0.7l2.6-2.8h1.2l-2.9,3.1l2.4,2.5h0.8v0.9h-1.3l-2.8-2.9h-0.7v2.9h-1v-8.2h-1.1V143.9z
					"/>
				<path class="st6" d="M90.9,147c0.4-0.2,0.8-0.4,1.3-0.5c0.5-0.1,0.9-0.1,1.4-0.1c0.4,0,0.8,0.1,1.1,0.2c0.3,0.1,0.5,0.3,0.7,0.5
					c0.2,0.2,0.3,0.5,0.3,0.8c0.1,0.3,0.1,0.6,0.1,0.9c0,0.3,0,0.7,0,1.1c0,0.4,0,0.7,0,1.1c0,0.4,0,0.8,0.1,1.2h0.9v0.8h-1.7
					l-0.1-1h-0.1c-0.1,0.1-0.1,0.2-0.2,0.3c-0.1,0.1-0.2,0.2-0.4,0.4c-0.2,0.1-0.4,0.2-0.6,0.3c-0.2,0.1-0.5,0.1-0.9,0.1
					c-0.6,0-1.2-0.2-1.5-0.5s-0.6-0.8-0.6-1.4c0-0.4,0.1-0.8,0.3-1.1c0.2-0.3,0.5-0.5,0.8-0.7s0.8-0.2,1.3-0.3c0.5,0,1.1,0,1.7,0.1
					c0-0.4,0-0.7,0-1c0-0.3-0.1-0.5-0.2-0.6c-0.1-0.2-0.3-0.3-0.5-0.3c-0.2-0.1-0.4-0.1-0.7-0.1c-0.4,0-0.8,0.1-1.1,0.2
					c-0.4,0.1-0.7,0.2-1,0.3L90.9,147z M92.8,152.2c0.2,0,0.5,0,0.7-0.1s0.4-0.2,0.5-0.3c0.2-0.1,0.3-0.3,0.4-0.4
					c0.1-0.1,0.2-0.3,0.2-0.4v-0.9c-0.5-0.1-0.9-0.1-1.2-0.1s-0.7,0-1,0.1c-0.3,0.1-0.5,0.2-0.6,0.4c-0.2,0.2-0.2,0.4-0.2,0.7
					c0,0.3,0.1,0.5,0.3,0.7C92,152.1,92.4,152.2,92.8,152.2z"/>
				<path class="st6" d="M100.4,153v-4.3c0-0.2,0-0.4,0-0.5c0-0.2,0-0.3-0.1-0.5c0-0.1-0.1-0.2-0.2-0.3c-0.1-0.1-0.2-0.1-0.4-0.1
					c-0.3,0-0.5,0.1-0.7,0.4c-0.2,0.2-0.4,0.5-0.5,0.9v4.5h-1v-6.5h0.7l0.2,0.8h0.1c0.1-0.1,0.2-0.3,0.3-0.4
					c0.1-0.1,0.2-0.2,0.3-0.3s0.2-0.2,0.4-0.2c0.1,0,0.3-0.1,0.6-0.1c0.1,0,0.3,0,0.4,0.1s0.3,0.1,0.4,0.2c0.1,0.1,0.2,0.2,0.3,0.3
					c0.1,0.1,0.1,0.3,0.2,0.5c0.2-0.3,0.4-0.6,0.7-0.8s0.6-0.3,1-0.3c0.3,0,0.5,0,0.7,0.1c0.2,0.1,0.3,0.2,0.4,0.4s0.2,0.4,0.2,0.6
					s0.1,0.5,0.1,0.8v4.6h-1v-4.4c0-0.2,0-0.4,0-0.5s0-0.3-0.1-0.4c0-0.1-0.1-0.2-0.2-0.3s-0.2-0.1-0.3-0.1c-0.3,0-0.6,0.1-0.8,0.4
					c-0.2,0.2-0.4,0.6-0.5,1v4.3H100.4z"/>
				<path class="st6" d="M113.3,144c0.3-0.1,0.7-0.1,1.1-0.1c0.4,0,0.8-0.1,1.2-0.1c0.4,0,0.8,0,1.1,0.1c0.4,0.1,0.7,0.2,0.9,0.4
					c0.3,0.2,0.5,0.5,0.7,0.8c0.2,0.3,0.2,0.7,0.2,1.2c0,0.4-0.1,0.7-0.2,0.9c-0.1,0.3-0.3,0.5-0.4,0.7c-0.2,0.2-0.3,0.4-0.5,0.5
					c-0.2,0.1-0.3,0.2-0.5,0.3l2.4,4.3h-1.3l-2.1-4h-1.6v4h-1.1V144z M115.6,144.7c-0.1,0-0.2,0-0.4,0c-0.1,0-0.2,0-0.4,0
					c-0.1,0-0.2,0-0.3,0c-0.1,0-0.2,0-0.2,0v3.4h1c0.6,0,1.1-0.1,1.5-0.4c0.4-0.3,0.6-0.8,0.6-1.4c0-0.5-0.2-0.9-0.5-1.2
					C116.7,144.9,116.2,144.7,115.6,144.7z"/>
				<path class="st6" d="M126.4,152.2c-0.2,0.1-0.3,0.3-0.6,0.4c-0.2,0.1-0.4,0.2-0.7,0.3c-0.3,0.1-0.5,0.2-0.8,0.2
					c-0.3,0-0.5,0.1-0.8,0.1c-0.5,0-1-0.1-1.4-0.2c-0.4-0.2-0.7-0.4-1-0.7c-0.3-0.3-0.5-0.7-0.6-1.1s-0.2-0.9-0.2-1.4
					c0-0.5,0.1-1,0.2-1.5s0.4-0.8,0.7-1.1c0.3-0.3,0.6-0.5,1-0.7c0.4-0.2,0.9-0.2,1.4-0.2c0.4,0,0.7,0,1.1,0.1
					c0.4,0.1,0.7,0.3,0.9,0.5c0.3,0.3,0.5,0.6,0.6,1.1c0.1,0.5,0.2,1.1,0.2,1.8h-5c0,0.8,0.2,1.4,0.6,1.7s1,0.6,1.7,0.6
					c0.2,0,0.5,0,0.7-0.1c0.2-0.1,0.4-0.1,0.7-0.2c0.2-0.1,0.4-0.2,0.6-0.3s0.3-0.2,0.4-0.3L126.4,152.2z M123.6,147.2
					c-0.3,0-0.6,0-0.8,0.1s-0.5,0.2-0.7,0.3c-0.2,0.1-0.4,0.3-0.5,0.6c-0.1,0.2-0.2,0.5-0.2,0.9h4c0-0.6-0.2-1-0.6-1.3
					C124.6,147.4,124.2,147.2,123.6,147.2z"/>
				<path class="st6" d="M133.8,153.3c0,0.4-0.1,0.8-0.2,1.1c-0.2,0.3-0.4,0.6-0.6,0.8c-0.3,0.2-0.6,0.3-1,0.4s-0.8,0.1-1.2,0.1
					c-0.5,0-1-0.1-1.3-0.2c-0.4-0.1-0.7-0.2-1-0.4l0.5-0.9c0.1,0.1,0.2,0.1,0.3,0.2c0.1,0.1,0.3,0.1,0.4,0.2s0.3,0.1,0.5,0.1
					c0.2,0,0.4,0.1,0.6,0.1c0.4,0,0.7,0,1-0.1s0.5-0.2,0.6-0.3s0.3-0.3,0.3-0.6c0.1-0.2,0.1-0.5,0.1-0.9v-0.7h-0.1
					c-0.2,0.3-0.5,0.5-0.8,0.7s-0.7,0.2-1.2,0.2c-1,0-1.7-0.3-2.2-0.8c-0.5-0.5-0.7-1.4-0.7-2.6c0-1.1,0.3-1.9,0.9-2.5
					c0.6-0.6,1.5-0.9,2.6-0.9c0.5,0,1,0,1.4,0.1c0.4,0.1,0.7,0.2,1,0.3V153.3z M130.9,152.3c0.5,0,0.9-0.1,1.2-0.4
					c0.3-0.3,0.5-0.7,0.6-1.3v-3.1c-0.4-0.2-0.9-0.3-1.6-0.3c-0.7,0-1.2,0.2-1.6,0.6s-0.6,1-0.6,1.9c0,0.4,0,0.7,0.1,1
					s0.2,0.6,0.3,0.8c0.2,0.2,0.3,0.4,0.6,0.5C130.3,152.2,130.6,152.3,130.9,152.3z"/>
				<path class="st6" d="M135.9,153v-0.9h2.3v-4.8h-2.3v-0.9h3.3v5.6h2.2v0.9H135.9z M137.8,144.7c0-0.2,0.1-0.4,0.2-0.6
					c0.2-0.2,0.4-0.3,0.6-0.3c0.2,0,0.5,0.1,0.6,0.3s0.3,0.4,0.3,0.6c0,0.2-0.1,0.4-0.3,0.6c-0.2,0.2-0.4,0.2-0.6,0.2
					c-0.2,0-0.4-0.1-0.6-0.2C137.8,145.1,137.8,144.9,137.8,144.7z"/>
				<path class="st6" d="M147.7,151.2c0-0.3-0.1-0.5-0.3-0.6c-0.2-0.2-0.5-0.3-0.8-0.4c-0.3-0.1-0.7-0.2-1-0.3
					c-0.4-0.1-0.7-0.2-1-0.3c-0.3-0.1-0.6-0.3-0.8-0.5c-0.2-0.2-0.3-0.5-0.3-0.9c0-0.3,0.1-0.6,0.2-0.8s0.3-0.4,0.6-0.6
					c0.2-0.2,0.5-0.3,0.8-0.3c0.3-0.1,0.6-0.1,1-0.1c0.6,0,1.1,0.1,1.6,0.2c0.4,0.2,0.8,0.3,1,0.5l-0.4,0.8
					c-0.3-0.2-0.6-0.3-0.9-0.4c-0.3-0.1-0.8-0.2-1.2-0.2c-0.2,0-0.4,0-0.6,0.1s-0.4,0.1-0.5,0.2c-0.2,0.1-0.3,0.2-0.4,0.3
					c-0.1,0.1-0.1,0.3-0.1,0.5c0,0.2,0.1,0.4,0.3,0.5c0.2,0.1,0.5,0.2,0.8,0.3c0.3,0.1,0.7,0.2,1,0.2s0.7,0.2,1,0.3
					c0.3,0.1,0.6,0.3,0.8,0.6c0.2,0.2,0.3,0.6,0.3,0.9c0,0.6-0.2,1.1-0.7,1.5c-0.5,0.4-1.2,0.6-2.1,0.6c-0.3,0-0.6,0-0.8-0.1
					s-0.5-0.1-0.8-0.2s-0.5-0.2-0.7-0.3s-0.4-0.2-0.5-0.3l0.5-0.8c0.1,0.1,0.2,0.2,0.4,0.3s0.4,0.2,0.6,0.3c0.2,0.1,0.4,0.2,0.7,0.2
					c0.2,0.1,0.5,0.1,0.7,0.1c0.2,0,0.5,0,0.7-0.1s0.4-0.1,0.5-0.2c0.2-0.1,0.3-0.2,0.4-0.3C147.6,151.6,147.7,151.4,147.7,151.2z"
					/>
				<path class="st6" d="M149.9,146.5h1.5v-1.3l1-0.3v1.6h3.5v0.9h-3.5v3.1c0,0.6,0.2,1.1,0.5,1.4c0.3,0.3,0.7,0.5,1.3,0.5
					c0.4,0,0.7-0.1,1-0.2c0.3-0.1,0.6-0.3,0.8-0.5l0.3,0.8c-0.3,0.2-0.7,0.4-1.1,0.6c-0.4,0.1-0.9,0.2-1.3,0.2c-0.3,0-0.7,0-1-0.1
					s-0.6-0.3-0.8-0.5s-0.4-0.5-0.6-0.8s-0.2-0.7-0.2-1.2v-3.2h-1.5V146.5z"/>
				<path class="st6" d="M157.9,153v-0.9h1.8v-4.8h-1.8v-0.9h2.4l0.2,0.8h0.1c0.3-0.3,0.6-0.5,1-0.7c0.4-0.2,0.8-0.3,1.3-0.3
					c0.3,0,0.5,0.1,0.7,0.2c0.2,0.1,0.3,0.3,0.4,0.5s0.2,0.5,0.2,0.8s0.1,0.7,0.1,1l-0.9,0c0-0.5-0.1-1-0.2-1.2s-0.3-0.4-0.6-0.4
					c-0.3,0-0.5,0-0.7,0.1c-0.2,0.1-0.4,0.2-0.6,0.3s-0.3,0.2-0.4,0.3c-0.1,0.1-0.2,0.2-0.2,0.3v3.8h2.5v0.9H157.9z"/>
				<path class="st6" d="M168.6,152h0.5l1.6-5.5h1.1l-1.8,5.8c-0.1,0.3-0.2,0.6-0.3,1c-0.1,0.4-0.2,0.7-0.4,1.1s-0.4,0.6-0.7,0.9
					c-0.3,0.2-0.7,0.4-1.2,0.4c-0.1,0-0.2,0-0.4,0c-0.1,0-0.2-0.1-0.4-0.1s-0.2-0.1-0.3-0.1c-0.1-0.1-0.2-0.1-0.2-0.2l0.4-0.9
					c0.1,0,0.1,0.1,0.2,0.1c0.1,0,0.2,0.1,0.3,0.1s0.2,0.1,0.3,0.1s0.2,0,0.3,0c0.6,0,1.1-0.6,1.3-1.7h-0.9l-2.7-6.5h1.2L168.6,152z
					"/>
				<path class="st6" d="M181.5,151.7c0.3,0.1,0.6,0.3,0.9,0.3s0.7,0.1,1,0.1c0.3,0,0.6,0,0.8-0.1c0.2-0.1,0.5-0.1,0.7-0.3
					c0.2-0.1,0.3-0.3,0.4-0.5s0.2-0.4,0.2-0.7c0-0.4-0.1-0.6-0.4-0.9c-0.2-0.2-0.5-0.4-0.9-0.6c-0.4-0.2-0.7-0.3-1.2-0.5
					c-0.4-0.2-0.8-0.4-1.2-0.6s-0.7-0.5-0.9-0.8c-0.2-0.3-0.4-0.7-0.4-1.2c0-0.4,0.1-0.7,0.2-1c0.1-0.3,0.3-0.5,0.6-0.7
					s0.6-0.4,0.9-0.5s0.8-0.2,1.2-0.2c0.5,0,1,0,1.4,0.1c0.4,0.1,0.8,0.2,1,0.3l0,0v0h0l0,0v2.1h-1v-1.4c-0.2-0.1-0.5-0.1-0.7-0.1
					c-0.3,0-0.5-0.1-0.8-0.1c-0.3,0-0.5,0-0.8,0.1c-0.2,0.1-0.4,0.2-0.6,0.3c-0.2,0.1-0.3,0.3-0.4,0.4s-0.1,0.3-0.1,0.5
					c0,0.3,0.1,0.6,0.4,0.8s0.5,0.4,0.9,0.6s0.7,0.4,1.2,0.5c0.4,0.2,0.8,0.4,1.2,0.6c0.4,0.2,0.7,0.5,0.9,0.8
					c0.2,0.3,0.4,0.7,0.4,1.2c0,0.4-0.1,0.7-0.2,1.1c-0.1,0.3-0.3,0.6-0.6,0.8s-0.6,0.4-1,0.5c-0.4,0.1-0.8,0.2-1.3,0.2
					c-0.3,0-0.6,0-0.9-0.1c-0.3-0.1-0.6-0.1-0.8-0.2c-0.2-0.1-0.5-0.2-0.7-0.2c-0.2-0.1-0.3-0.2-0.5-0.2l0,0v-2.1h1V151.7z"/>
				<path class="st6" d="M193.9,152.2c-0.2,0.1-0.3,0.3-0.6,0.4c-0.2,0.1-0.4,0.2-0.7,0.3c-0.3,0.1-0.5,0.2-0.8,0.2
					c-0.3,0-0.5,0.1-0.8,0.1c-0.5,0-1-0.1-1.4-0.2c-0.4-0.2-0.7-0.4-1-0.7c-0.3-0.3-0.5-0.7-0.6-1.1s-0.2-0.9-0.2-1.4
					c0-0.5,0.1-1,0.2-1.5s0.4-0.8,0.7-1.1c0.3-0.3,0.6-0.5,1-0.7c0.4-0.2,0.9-0.2,1.4-0.2c0.4,0,0.7,0,1.1,0.1
					c0.4,0.1,0.7,0.3,0.9,0.5c0.3,0.3,0.5,0.6,0.6,1.1c0.1,0.5,0.2,1.1,0.2,1.8h-5c0,0.8,0.2,1.4,0.6,1.7s1,0.6,1.7,0.6
					c0.2,0,0.5,0,0.7-0.1c0.2-0.1,0.4-0.1,0.7-0.2s0.4-0.2,0.6-0.3s0.3-0.2,0.4-0.3L193.9,152.2z M191.2,147.2c-0.3,0-0.6,0-0.8,0.1
					c-0.3,0.1-0.5,0.2-0.7,0.3c-0.2,0.1-0.4,0.3-0.5,0.6c-0.1,0.2-0.2,0.5-0.2,0.9h4c0-0.6-0.2-1-0.6-1.3
					C192.1,147.4,191.7,147.2,191.2,147.2z"/>
				<path class="st6" d="M195.4,153v-0.9h1.8v-4.8h-1.8v-0.9h2.4l0.2,0.8h0.1c0.3-0.3,0.6-0.5,1-0.7c0.4-0.2,0.8-0.3,1.3-0.3
					c0.3,0,0.5,0.1,0.7,0.2c0.2,0.1,0.3,0.3,0.4,0.5s0.2,0.5,0.2,0.8c0,0.3,0.1,0.7,0.1,1l-0.9,0c0-0.5-0.1-1-0.2-1.2
					c-0.1-0.3-0.3-0.4-0.6-0.4c-0.3,0-0.5,0-0.7,0.1c-0.2,0.1-0.4,0.2-0.6,0.3s-0.3,0.2-0.4,0.3c-0.1,0.1-0.2,0.2-0.2,0.3v3.8h2.5
					v0.9H195.4z"/>
				<path class="st6" d="M205.9,151.7h0.1l2-5.2h1.1l-2.7,6.5h-1.1l-2.8-6.5h1.2L205.9,151.7z"/>
				<path class="st6" d="M210.9,153v-0.9h2.3v-4.8h-2.3v-0.9h3.3v5.6h2.2v0.9H210.9z M212.8,144.7c0-0.2,0.1-0.4,0.2-0.6
					s0.4-0.3,0.6-0.3c0.3,0,0.5,0.1,0.6,0.3s0.3,0.4,0.3,0.6c0,0.2-0.1,0.4-0.3,0.6c-0.2,0.2-0.4,0.2-0.6,0.2
					c-0.2,0-0.4-0.1-0.6-0.2C212.9,145.1,212.8,144.9,212.8,144.7z"/>
				<path class="st6" d="M222.7,147.5c-0.2-0.1-0.4-0.1-0.6-0.2c-0.2,0-0.5-0.1-0.7-0.1c-0.8,0-1.5,0.2-1.9,0.6s-0.6,1-0.6,1.9
					c0,0.4,0.1,0.7,0.2,1s0.3,0.6,0.5,0.8c0.2,0.2,0.5,0.4,0.8,0.5c0.3,0.1,0.7,0.2,1,0.2c0.4,0,0.8-0.1,1.2-0.2s0.7-0.3,1-0.6
					l0.5,0.8c-0.1,0.1-0.3,0.2-0.5,0.3c-0.2,0.1-0.4,0.2-0.6,0.3s-0.5,0.2-0.8,0.2c-0.3,0.1-0.6,0.1-0.9,0.1c-0.6,0-1.1-0.1-1.5-0.2
					c-0.4-0.2-0.8-0.4-1.1-0.7c-0.3-0.3-0.5-0.7-0.6-1.1c-0.1-0.4-0.2-0.9-0.2-1.4c0-0.5,0.1-1,0.2-1.5c0.2-0.4,0.4-0.8,0.7-1.1
					c0.3-0.3,0.6-0.5,1-0.7c0.4-0.2,0.9-0.2,1.4-0.2c0.6,0,1.2,0.1,1.6,0.2c0.4,0.1,0.7,0.2,1,0.4l0,0v1.8h-0.9V147.5z"/>
				<path class="st6" d="M231.4,152.2c-0.2,0.1-0.3,0.3-0.6,0.4c-0.2,0.1-0.4,0.2-0.7,0.3c-0.3,0.1-0.5,0.2-0.8,0.2
					c-0.3,0-0.5,0.1-0.8,0.1c-0.5,0-1-0.1-1.4-0.2c-0.4-0.2-0.7-0.4-1-0.7c-0.3-0.3-0.5-0.7-0.6-1.1s-0.2-0.9-0.2-1.4
					c0-0.5,0.1-1,0.2-1.5c0.2-0.4,0.4-0.8,0.7-1.1c0.3-0.3,0.6-0.5,1-0.7c0.4-0.2,0.9-0.2,1.4-0.2c0.4,0,0.7,0,1.1,0.1
					c0.4,0.1,0.7,0.3,0.9,0.5c0.3,0.3,0.5,0.6,0.6,1.1c0.1,0.5,0.2,1.1,0.2,1.8h-5c0,0.8,0.2,1.4,0.6,1.7c0.4,0.4,1,0.6,1.7,0.6
					c0.2,0,0.5,0,0.7-0.1c0.2-0.1,0.4-0.1,0.7-0.2c0.2-0.1,0.4-0.2,0.6-0.3s0.3-0.2,0.4-0.3L231.4,152.2z M228.7,147.2
					c-0.3,0-0.6,0-0.8,0.1s-0.5,0.2-0.7,0.3c-0.2,0.1-0.4,0.3-0.5,0.6c-0.1,0.2-0.2,0.5-0.2,0.9h4c0-0.6-0.2-1-0.6-1.3
					C229.6,147.4,229.2,147.2,228.7,147.2z"/>
			</g>
			<path id="Rectangle-Copy-15_3_" class="st2" d="M21,224h222c2.8,0,5,2.2,5,5v54c0,2.8-2.2,5-5,5H21c-2.8,0-5-2.2-5-5v-54
				C16,226.2,18.2,224,21,224z"/>
			<g class="st3">
				<path class="st7" d="M75.9,252.5c0-1.5,0.3-2.7,0.8-3.5c0.5-0.8,1.4-1.2,2.5-1.2c0.6,0,1.1,0.1,1.5,0.3s0.8,0.5,1,1
					c0.3,0.4,0.4,0.9,0.6,1.5c0.1,0.6,0.2,1.2,0.2,1.9c0,1.5-0.3,2.7-0.8,3.5c-0.5,0.8-1.4,1.2-2.5,1.2c-0.6,0-1.1-0.1-1.5-0.3
					c-0.4-0.2-0.8-0.5-1-1c-0.3-0.4-0.4-0.9-0.6-1.5C75.9,253.8,75.9,253.2,75.9,252.5z M77,252.5c0,0.5,0,1,0.1,1.4
					c0.1,0.5,0.2,0.8,0.3,1.2c0.2,0.3,0.4,0.6,0.7,0.8c0.3,0.2,0.6,0.3,1,0.3c0.7,0,1.3-0.3,1.6-0.9s0.5-1.6,0.5-2.8
					c0-0.5,0-1-0.1-1.4s-0.2-0.9-0.3-1.2c-0.2-0.3-0.4-0.6-0.7-0.8c-0.3-0.2-0.6-0.3-1-0.3c-0.7,0-1.3,0.3-1.6,0.9
					C77.2,250.2,77,251.2,77,252.5z"/>
				<path class="st7" d="M88.5,251.5c-0.2-0.1-0.4-0.1-0.6-0.2c-0.2,0-0.5-0.1-0.7-0.1c-0.8,0-1.5,0.2-1.9,0.6s-0.6,1-0.6,1.9
					c0,0.4,0.1,0.7,0.2,1c0.1,0.3,0.3,0.6,0.5,0.8c0.2,0.2,0.5,0.4,0.8,0.5c0.3,0.1,0.7,0.2,1,0.2c0.4,0,0.8-0.1,1.2-0.2
					s0.7-0.3,1-0.6l0.5,0.8c-0.1,0.1-0.3,0.2-0.5,0.3c-0.2,0.1-0.4,0.2-0.6,0.3s-0.5,0.2-0.8,0.2c-0.3,0.1-0.6,0.1-0.9,0.1
					c-0.6,0-1.1-0.1-1.5-0.2c-0.4-0.2-0.8-0.4-1.1-0.7c-0.3-0.3-0.5-0.7-0.6-1.1c-0.1-0.4-0.2-0.9-0.2-1.4c0-0.5,0.1-1,0.2-1.5
					c0.2-0.4,0.4-0.8,0.7-1.1c0.3-0.3,0.6-0.5,1-0.7c0.4-0.2,0.9-0.2,1.4-0.2c0.6,0,1.2,0.1,1.6,0.2c0.4,0.1,0.7,0.2,1,0.4l0,0v1.8
					h-0.9V251.5z"/>
				<path class="st7" d="M90.6,247.9h2.1v5.4h0.7l2.6-2.8h1.2l-2.9,3.1l2.4,2.5h0.8v0.9h-1.3l-2.8-2.9h-0.7v2.9h-1v-8.2h-1.1V247.9z
					"/>
				<path class="st7" d="M99.2,251c0.4-0.2,0.8-0.4,1.3-0.5c0.5-0.1,0.9-0.1,1.4-0.1c0.4,0,0.8,0.1,1.1,0.2c0.3,0.1,0.5,0.3,0.7,0.5
					c0.2,0.2,0.3,0.5,0.3,0.8c0.1,0.3,0.1,0.6,0.1,0.9c0,0.3,0,0.7,0,1.1c0,0.4,0,0.7,0,1.1c0,0.4,0,0.8,0.1,1.2h0.9v0.8h-1.7
					l-0.1-1h-0.1c-0.1,0.1-0.1,0.2-0.2,0.3c-0.1,0.1-0.2,0.2-0.4,0.4c-0.2,0.1-0.4,0.2-0.6,0.3c-0.2,0.1-0.5,0.1-0.9,0.1
					c-0.6,0-1.2-0.2-1.5-0.5s-0.6-0.8-0.6-1.4c0-0.4,0.1-0.8,0.3-1.1c0.2-0.3,0.5-0.5,0.8-0.7s0.8-0.2,1.3-0.3c0.5,0,1.1,0,1.7,0.1
					c0-0.4,0-0.7,0-1c0-0.3-0.1-0.5-0.2-0.6c-0.1-0.2-0.3-0.3-0.5-0.3c-0.2-0.1-0.4-0.1-0.7-0.1c-0.4,0-0.8,0.1-1.1,0.2
					c-0.4,0.1-0.7,0.2-1,0.3L99.2,251z M101.1,256.2c0.2,0,0.5,0,0.7-0.1s0.4-0.2,0.5-0.3c0.2-0.1,0.3-0.3,0.4-0.4
					c0.1-0.1,0.2-0.3,0.2-0.4v-0.9c-0.5-0.1-0.9-0.1-1.2-0.1s-0.7,0-1,0.1c-0.3,0.1-0.5,0.2-0.6,0.4c-0.2,0.2-0.2,0.4-0.2,0.7
					c0,0.3,0.1,0.5,0.3,0.7C100.3,256.1,100.6,256.2,101.1,256.2z"/>
				<path class="st7" d="M108.7,257v-4.3c0-0.2,0-0.4,0-0.5c0-0.2,0-0.3-0.1-0.5c0-0.1-0.1-0.2-0.2-0.3c-0.1-0.1-0.2-0.1-0.4-0.1
					c-0.3,0-0.5,0.1-0.7,0.4c-0.2,0.2-0.4,0.5-0.5,0.9v4.5h-1v-6.5h0.7l0.2,0.8h0.1c0.1-0.1,0.2-0.3,0.3-0.4
					c0.1-0.1,0.2-0.2,0.3-0.3s0.2-0.2,0.4-0.2c0.1,0,0.3-0.1,0.6-0.1c0.1,0,0.3,0,0.4,0.1s0.3,0.1,0.4,0.2c0.1,0.1,0.2,0.2,0.3,0.3
					c0.1,0.1,0.1,0.3,0.2,0.5c0.2-0.3,0.4-0.6,0.7-0.8s0.6-0.3,1-0.3c0.3,0,0.5,0,0.7,0.1c0.2,0.1,0.3,0.2,0.4,0.4s0.2,0.4,0.2,0.6
					s0.1,0.5,0.1,0.8v4.6h-1v-4.4c0-0.2,0-0.4,0-0.5s0-0.3-0.1-0.4c0-0.1-0.1-0.2-0.2-0.3s-0.2-0.1-0.3-0.1c-0.3,0-0.6,0.1-0.8,0.4
					c-0.2,0.2-0.4,0.6-0.5,1v4.3H108.7z"/>
				<path class="st7" d="M126.2,248.9c-0.1-0.1-0.3-0.1-0.5-0.1s-0.4,0-0.6,0c-0.4,0-0.7,0.1-1,0.2c-0.3,0.1-0.6,0.3-0.9,0.6
					c-0.3,0.3-0.5,0.7-0.6,1.2c-0.2,0.5-0.2,1.1-0.2,1.8c0,0.6,0.1,1.2,0.2,1.6c0.1,0.5,0.3,0.9,0.6,1.2c0.3,0.3,0.6,0.5,0.9,0.7
					c0.4,0.2,0.8,0.2,1.2,0.2c0.2,0,0.4,0,0.6-0.1s0.4-0.1,0.5-0.2v-1.3h1v1.8l0,0c-0.3,0.2-0.6,0.4-1,0.5c-0.4,0.1-0.9,0.2-1.5,0.2
					c-0.5,0-1.1-0.1-1.5-0.3c-0.5-0.2-0.9-0.5-1.2-0.9c-0.3-0.4-0.6-0.9-0.8-1.5c-0.2-0.6-0.3-1.3-0.3-2.1c0-0.8,0.1-1.6,0.3-2.2
					c0.2-0.6,0.5-1.1,0.8-1.5s0.8-0.7,1.2-0.8c0.5-0.2,1-0.3,1.5-0.3c0.3,0,0.6,0,0.8,0s0.4,0.1,0.6,0.1c0.2,0,0.3,0.1,0.4,0.1
					c0.1,0.1,0.2,0.1,0.4,0.2h0v2.1h-1V248.9z"/>
				<path class="st7" d="M129.3,247.9h2.2v6.9c0,0.5,0.1,0.9,0.3,1.1c0.2,0.2,0.4,0.3,0.8,0.3c0.2,0,0.5,0,0.7-0.1s0.5-0.2,0.7-0.4
					l0.5,0.7c-0.1,0.1-0.3,0.2-0.5,0.3c-0.2,0.1-0.3,0.2-0.5,0.2c-0.2,0.1-0.3,0.1-0.5,0.1c-0.2,0-0.3,0.1-0.5,0.1
					c-0.3,0-0.6,0-0.9-0.1c-0.3-0.1-0.5-0.2-0.6-0.4c-0.2-0.2-0.3-0.4-0.4-0.7s-0.1-0.7-0.1-1.1v-6h-1.1V247.9z"/>
				<path class="st7" d="M136,253.8c0-1,0.3-1.9,0.8-2.5c0.5-0.6,1.3-0.9,2.3-0.9c0.5,0,1,0.1,1.4,0.3c0.4,0.2,0.7,0.4,1,0.7
					s0.5,0.7,0.6,1.1c0.1,0.4,0.2,0.9,0.2,1.3c0,0.5-0.1,1-0.2,1.4c-0.1,0.4-0.3,0.8-0.6,1.1c-0.3,0.3-0.6,0.5-1,0.7
					c-0.4,0.2-0.8,0.2-1.3,0.2c-0.5,0-1-0.1-1.4-0.3c-0.4-0.2-0.7-0.4-1-0.7c-0.3-0.3-0.5-0.7-0.6-1.1S136,254.2,136,253.8z
					 M137.1,253.8c0,0.3,0,0.6,0.1,0.9c0.1,0.3,0.2,0.6,0.4,0.8c0.2,0.2,0.4,0.4,0.6,0.6c0.3,0.1,0.6,0.2,1,0.2
					c0.7,0,1.2-0.2,1.6-0.6c0.3-0.4,0.5-1.1,0.5-1.9c0-0.3,0-0.6-0.1-0.9c-0.1-0.3-0.2-0.6-0.4-0.8c-0.2-0.2-0.4-0.4-0.6-0.6
					c-0.3-0.1-0.6-0.2-1-0.2c-0.7,0-1.2,0.2-1.6,0.6C137.2,252.3,137.1,252.9,137.1,253.8z"/>
				<path class="st7" d="M147.5,250.5h1.9v4.4c0,0.4,0,0.8,0.1,1.2h0.9v0.8h-1.7l0-1.1h-0.1c-0.2,0.4-0.5,0.7-0.9,0.9
					c-0.4,0.2-0.8,0.4-1.3,0.4c-0.4,0-0.7,0-1-0.1s-0.5-0.2-0.7-0.5s-0.3-0.5-0.4-0.9c-0.1-0.4-0.1-0.8-0.1-1.4v-2.9h-0.9v-0.9h1.9
					v3.5c0,0.4,0,0.7,0,1c0,0.3,0.1,0.5,0.2,0.7s0.2,0.3,0.4,0.4c0.2,0.1,0.4,0.1,0.7,0.1c0.4,0,0.8-0.1,1.2-0.4
					c0.3-0.3,0.6-0.7,0.8-1.1v-3.4h-0.8V250.5z"/>
				<path class="st7" d="M154.8,247.9h2.1v6.9c0,0.1,0,0.2,0,0.3c0,0.1,0,0.2,0,0.4c0,0.1,0,0.3,0,0.4c0,0.1,0,0.2,0.1,0.3h0.9v0.8
					h-1.7l-0.1-1H156c-0.2,0.3-0.5,0.6-0.8,0.8c-0.4,0.2-0.8,0.3-1.3,0.3c-1,0-1.7-0.3-2.2-0.8c-0.5-0.5-0.7-1.4-0.7-2.6
					c0-0.5,0.1-1,0.2-1.4c0.2-0.4,0.4-0.8,0.7-1.1c0.3-0.3,0.6-0.5,1-0.6s0.9-0.2,1.4-0.2c0.2,0,0.3,0,0.5,0s0.3,0,0.4,0
					s0.2,0,0.3,0.1c0.1,0,0.2,0.1,0.4,0.1v-1.8h-1.1V247.9z M154,256.3c0.5,0,0.9-0.1,1.2-0.4c0.3-0.3,0.5-0.7,0.6-1.2v-3
					c-0.2-0.1-0.4-0.2-0.6-0.3s-0.6-0.1-0.9-0.1c-0.7,0-1.2,0.2-1.6,0.6c-0.4,0.4-0.6,1-0.6,1.9c0,0.4,0,0.7,0.1,1
					c0.1,0.3,0.2,0.6,0.3,0.8c0.2,0.2,0.4,0.4,0.6,0.5C153.3,256.2,153.6,256.3,154,256.3z"/>
				<path class="st7" d="M167.2,255.7c0.3,0.1,0.6,0.3,0.9,0.3c0.3,0.1,0.7,0.1,1,0.1c0.3,0,0.6,0,0.8-0.1c0.3-0.1,0.5-0.1,0.7-0.3
					c0.2-0.1,0.3-0.3,0.4-0.5c0.1-0.2,0.2-0.4,0.2-0.7c0-0.4-0.1-0.6-0.4-0.9c-0.2-0.2-0.5-0.4-0.9-0.6c-0.4-0.2-0.7-0.3-1.2-0.5
					c-0.4-0.2-0.8-0.4-1.2-0.6s-0.7-0.5-0.9-0.8c-0.2-0.3-0.4-0.7-0.4-1.2c0-0.4,0.1-0.7,0.2-1s0.3-0.5,0.6-0.7
					c0.3-0.2,0.6-0.4,0.9-0.5c0.4-0.1,0.8-0.2,1.2-0.2c0.5,0,1,0,1.4,0.1c0.4,0.1,0.8,0.2,1,0.3l0,0v0h0l0,0v2.1h-1v-1.4
					c-0.2-0.1-0.5-0.1-0.7-0.1c-0.3,0-0.5-0.1-0.8-0.1c-0.3,0-0.5,0-0.8,0.1c-0.2,0.1-0.4,0.2-0.6,0.3c-0.2,0.1-0.3,0.3-0.4,0.4
					c-0.1,0.2-0.1,0.3-0.1,0.5c0,0.3,0.1,0.6,0.4,0.8s0.5,0.4,0.9,0.6c0.4,0.2,0.7,0.4,1.2,0.5c0.4,0.2,0.8,0.4,1.2,0.6
					c0.4,0.2,0.7,0.5,0.9,0.8c0.2,0.3,0.4,0.7,0.4,1.2c0,0.4-0.1,0.7-0.2,1.1c-0.1,0.3-0.3,0.6-0.6,0.8c-0.3,0.2-0.6,0.4-1,0.5
					c-0.4,0.1-0.8,0.2-1.3,0.2c-0.3,0-0.6,0-0.9-0.1c-0.3-0.1-0.6-0.1-0.8-0.2s-0.5-0.2-0.7-0.2c-0.2-0.1-0.3-0.2-0.5-0.2l0,0v-2.1
					h1V255.7z"/>
				<path class="st7" d="M173.8,247.9c0.3,0,0.7-0.1,1-0.1c0.4,0,0.7,0,0.9,0c0.8,0,1.4,0.1,2,0.3c0.5,0.2,1,0.5,1.3,0.9
					c0.3,0.4,0.6,0.9,0.7,1.5s0.2,1.2,0.2,1.9c0,0.6-0.1,1.2-0.2,1.8c-0.1,0.6-0.4,1.1-0.7,1.5c-0.3,0.4-0.8,0.8-1.3,1.1
					c-0.5,0.3-1.2,0.4-2,0.4c-0.1,0-0.3,0-0.4,0c-0.2,0-0.4,0-0.6,0c-0.2,0-0.4,0-0.5,0s-0.3,0-0.4,0V247.9z M175.8,248.8
					c-0.1,0-0.3,0-0.5,0c-0.2,0-0.3,0-0.5,0.1v7.3c0,0,0.1,0,0.2,0c0.1,0,0.2,0,0.3,0c0.1,0,0.2,0,0.3,0c0.1,0,0.1,0,0.2,0
					c0.6,0,1.1-0.1,1.5-0.3c0.4-0.2,0.7-0.5,0.9-0.8c0.2-0.4,0.4-0.8,0.4-1.2s0.1-0.9,0.1-1.4c0-0.4,0-0.9-0.1-1.3
					c-0.1-0.4-0.2-0.8-0.4-1.2s-0.5-0.6-0.9-0.9C177,248.9,176.4,248.8,175.8,248.8z"/>
				<path class="st7" d="M183.4,252.8h-1v4.2h-1.1v-9.1h1.1v4.1h1l2.9-4.1h1.2l-3.2,4.3l3.6,4.8h-1.4L183.4,252.8z"/>
			</g>
			<path id="Rectangle-Copy-15_4_" class="st2" d="M21,328h222c2.8,0,5,2.2,5,5v54c0,2.8-2.2,5-5,5H21c-2.8,0-5-2.2-5-5v-54
				C16,330.2,18.2,328,21,328z"/>
			<g class="st3">
				<path class="st5" d="M138.8,356.5h-4.4v4.5h-1.2v-9.8h1.2v4.3h4.4v-4.3h1.2v9.8h-1.2V356.5z"/>
				<path class="st5" d="M142.9,359.6c0.3,0.1,0.6,0.3,0.9,0.4c0.4,0.1,0.7,0.1,1.1,0.1c0.3,0,0.6,0,0.9-0.1
					c0.3-0.1,0.5-0.2,0.7-0.3c0.2-0.1,0.4-0.3,0.5-0.5c0.1-0.2,0.2-0.4,0.2-0.7c0-0.4-0.1-0.7-0.4-0.9c-0.3-0.2-0.6-0.5-1-0.6
					c-0.4-0.2-0.8-0.4-1.2-0.5c-0.4-0.2-0.9-0.4-1.2-0.6c-0.4-0.2-0.7-0.5-1-0.9c-0.3-0.4-0.4-0.8-0.4-1.3c0-0.4,0.1-0.7,0.2-1
					c0.2-0.3,0.4-0.6,0.7-0.8s0.6-0.4,1-0.5c0.4-0.1,0.8-0.2,1.3-0.2c0.6,0,1.1,0,1.5,0.1c0.5,0.1,0.8,0.2,1.1,0.3l0,0v0h0l0,0v2.2
					h-1v-1.5c-0.2-0.1-0.5-0.1-0.8-0.1c-0.3,0-0.6-0.1-0.9-0.1c-0.3,0-0.6,0-0.8,0.1c-0.2,0.1-0.5,0.2-0.6,0.3
					c-0.2,0.1-0.3,0.3-0.4,0.4c-0.1,0.2-0.1,0.3-0.1,0.5c0,0.4,0.1,0.7,0.4,0.9c0.3,0.2,0.6,0.5,1,0.7c0.4,0.2,0.8,0.4,1.2,0.6
					s0.9,0.4,1.2,0.7c0.4,0.2,0.7,0.5,1,0.9s0.4,0.8,0.4,1.3c0,0.4-0.1,0.8-0.2,1.1c-0.2,0.3-0.4,0.6-0.7,0.9
					c-0.3,0.2-0.6,0.4-1.1,0.6c-0.4,0.1-0.9,0.2-1.4,0.2c-0.4,0-0.7,0-1-0.1c-0.3-0.1-0.6-0.1-0.9-0.2c-0.3-0.1-0.5-0.2-0.7-0.3
					c-0.2-0.1-0.4-0.2-0.5-0.2l0,0v-2.3h1V359.6z"/>
				<path class="st5" d="M155.6,354.5l0.1-1.3h-0.1l-0.7,1.2l-1.4,2.4h-0.4l-1.5-2.4l-0.6-1.2H151l0.2,1.3v6.5H150v-9.8h1.1l2.3,3.7
					h0l2.2-3.7h1v9.8h-1.2V354.5z"/>
			</g>
			<path id="Shape_5_" class="st8" d="M113,349l-9,4v6c0,5.5,3.8,10.7,9,12c5.2-1.3,9-6.5,9-12v-6L113,349 M113,355
				c1.4,0,2.8,1.1,2.8,2.5v1.5c0.6,0,1.2,0.6,1.2,1.3v3.5c0,0.6-0.6,1.2-1.3,1.2h-5.5c-0.6,0-1.2-0.6-1.2-1.3v-3.5
				c0-0.6,0.6-1.2,1.2-1.2v-1.5C110.2,356.1,111.6,355,113,355 M113,356.2c-0.8,0-1.5,0.5-1.5,1.3v1.5h3v-1.5
				C114.5,356.7,113.8,356.2,113,356.2z"/>
		</g>
	</g>
</g>
</svg>
