<svg id="Layer_1" data-name="Layer 1" xmlns="http://www.w3.org/2000/svg" xmlns:xlink="http://www.w3.org/1999/xlink" viewBox="0 0 540 540"><defs><style>.cls-1{fill:none;}.cls-2{fill:#152935;}.cls-11,.cls-16,.cls-17,.cls-3{opacity:0.3;}.cls-11,.cls-14,.cls-16,.cls-17,.cls-3,.cls-5,.cls-7,.cls-8{isolation:isolate;}.cls-3{fill:url(#linear-gradient);}.cls-4{fill:#52c7ea;}.cls-6{clip-path:url(#clip-path);}.cls-14,.cls-7,.cls-8{opacity:0.21;}.cls-7{fill:url(#linear-gradient-2);}.cls-8{fill:url(#linear-gradient-3);}.cls-9{fill:#05131c;}.cls-10{fill:#05151c;}.cls-11{fill:url(#linear-gradient-4);}.cls-12{fill:#0a1a2b;}.cls-13{fill:#ec432d;}.cls-14{fill:url(#linear-gradient-5);}.cls-15{opacity:0.1;}.cls-16{fill:url(#linear-gradient-6);}.cls-17{fill:url(#linear-gradient-7);}</style><linearGradient id="linear-gradient" x1="-136.44" y1="82.1" x2="-111.32" y2="82.1" gradientTransform="translate(566.49 72.94) rotate(30)" gradientUnits="userSpaceOnUse"><stop offset="0" stop-color="#52c7ea" stop-opacity="0.7"/><stop offset="1"/></linearGradient><clipPath id="clip-path"><polygon class="cls-1" points="402.41 90.73 402.5 62.35 427.2 76.61 427.12 105 402.41 90.73"/></clipPath><linearGradient id="linear-gradient-2" x1="-1660.29" y1="234.56" x2="-1633.11" y2="234.56" gradientTransform="matrix(-1, 0, 0, 1, -1555.06, 0)" xlink:href="#linear-gradient"/><linearGradient id="linear-gradient-3" x1="-1766.74" y1="172.22" x2="-1746.19" y2="172.22" gradientTransform="matrix(-1, 0, 0, 1, -1555.06, 0)" xlink:href="#linear-gradient"/><linearGradient id="linear-gradient-4" x1="-1681.97" y1="186.31" x2="-1581.36" y2="186.31" gradientTransform="matrix(-1, 0, 0, 1, -1555.06, 0)" xlink:href="#linear-gradient"/><linearGradient id="linear-gradient-5" x1="628.12" y1="293.05" x2="648.85" y2="293.05" gradientTransform="matrix(1, 0, 0.09, -1, -605.55, 542)" xlink:href="#linear-gradient"/><linearGradient id="linear-gradient-6" x1="232.25" y1="347.77" x2="646.14" y2="347.77" gradientUnits="userSpaceOnUse"><stop offset="0" stop-color="#52c7ea" stop-opacity="0.7"/><stop offset="0.94"/></linearGradient><linearGradient id="linear-gradient-7" x1="226.98" y1="273.91" x2="432.67" y2="367.2" gradientTransform="matrix(1, 0, 0, 1, 0, 0)" xlink:href="#linear-gradient"/></defs><polygon class="cls-2" points="448.92 240.75 422.35 240.75 428.66 69.85 436.93 69.85 448.92 240.75"/><path class="cls-2" d="M449,58.69c-4.92-8.52-12.87-13.14-17.76-10.32a6,6,0,0,0-1.55,1.29l-20.44,17c-4.89,2.82-4.87,12,.05,20.54s12.87,13.13,17.76,10.31a6,6,0,0,0,1.55-1.29l20.44-17C453.94,76.4,453.92,67.21,449,58.69Z"/><ellipse class="cls-3" cx="418.16" cy="82.1" rx="10.22" ry="17.81" transform="translate(14.97 220.08) rotate(-30)"/><path class="cls-4" d="M434.62,96.6a21.3,21.3,0,0,1-15.43-6.18l-6.56-6.56a.41.41,0,0,1-.1-.34.36.36,0,0,1,.21-.27l.42-.19L522.58,32.37a2.08,2.08,0,0,1,2.78.71,2.69,2.69,0,0,1-.89,3.47L453.17,90A31.52,31.52,0,0,1,434.62,96.6ZM413.54,83.7l6.18,6.19a20.55,20.55,0,0,0,14.9,6,30.78,30.78,0,0,0,18.1-6.5L524,36a1.93,1.93,0,0,0,.7-2.48,1.32,1.32,0,0,0-1.82-.42Z"/><path class="cls-4" d="M417.32,189.82a1.92,1.92,0,0,1-1.87-1.37l-22-67.89c-3.59-11.06,1.19-24.26,11.61-32.1l8.28-6.22a.39.39,0,0,1,.39,0,.37.37,0,0,1,.21.32l0,.6,5.93,104a2.59,2.59,0,0,1-2.13,2.68A2.09,2.09,0,0,1,417.32,189.82ZM413.2,83.26l-7.71,5.8c-10.18,7.65-14.85,20.51-11.36,31.27l22,67.88a1.19,1.19,0,0,0,1.45.84,1.86,1.86,0,0,0,1.53-1.91Z"/><path class="cls-4" d="M413.72,84.06a.45.45,0,0,1-.19,0l-.43-.26-88-51.48a2.43,2.43,0,0,1-.84-3.13,2.45,2.45,0,0,1,2.77-1.7l71,16.19c11.63,2.65,18.72,14.53,17.25,28.88L414.1,83.72a.39.39,0,0,1-.21.3A.33.33,0,0,1,413.72,84.06Zm-87.2-55.93a1.84,1.84,0,0,0-1.59,1.29,1.73,1.73,0,0,0,.53,2.2l88,51.44,1.09-10.62c1.44-14-5.42-25.52-16.66-28.08l-71-16.19A1.22,1.22,0,0,0,326.52,28.13Z"/><g class="cls-5"><g class="cls-6"><path class="cls-2" d="M414.85,69.48c-6.83-3.94-12.37-.78-12.4,7.07s5.49,17.38,12.32,21.32,12.36.77,12.39-7.06-5.49-17.39-12.31-21.33"/></g></g><path class="cls-2" d="M404.93,71.88a1.21,1.21,0,0,0-1.85.35L389.82,97.09a3.6,3.6,0,0,0,3.53,5.26l26.24-2.69a1.21,1.21,0,0,0,1-1.61L414,79.6Z"/><ellipse class="cls-2" cx="435.64" cy="239.93" rx="13.28" ry="3.8"/><polyline class="cls-7" points="96.55 244.59 78.05 239.65 99.17 224.53 105.23 235 96.55 244.59"/><polyline class="cls-8" points="210.39 179.2 206.26 176.58 200.88 178.32 191.13 180.07 191.66 173.96 207.33 164.37 211.68 164.37 210.39 179.2"/><path class="cls-9" d="M76.35,272.89l-11.51-4.76s-3.75-7-1.4-13.95,18.48-21.8,18.48-21.8l6.52,5.24,4.9,2.94Z"/><ellipse class="cls-10" cx="83.91" cy="256.41" rx="18.45" ry="10.44" transform="matrix(0.53, -0.85, 0.85, 0.53, -177.92, 191.36)"/><ellipse class="cls-2" cx="83.91" cy="256.41" rx="7.56" ry="4.27" transform="translate(-177.92 191.36) rotate(-57.93)"/><path class="cls-2" d="M77.88,268.47a1.28,1.28,0,0,0,1.11-.63l13.79-23.47a1.27,1.27,0,0,0-.45-1.75,1.29,1.29,0,0,0-1.76.45L76.78,266.54a1.27,1.27,0,0,0,1.1,1.93Z"/><path class="cls-2" d="M90.28,261a1.28,1.28,0,0,0,.6-2.42L77.3,251.5a1.28,1.28,0,1,0-1.19,2.27l13.58,7.1A1.26,1.26,0,0,0,90.28,261Z"/><path class="cls-9" d="M188.94,210.76,177.43,206s-3.75-7-1.4-13.95,18.47-21.8,18.47-21.8L201,175.5l4.91,2.94Z"/><ellipse class="cls-10" cx="196.49" cy="194.29" rx="18.45" ry="10.44" transform="translate(-72.48 257.63) rotate(-57.93)"/><ellipse class="cls-2" cx="196.49" cy="194.29" rx="7.56" ry="4.27" transform="translate(-72.48 257.63) rotate(-57.93)"/><path class="cls-2" d="M190.47,206.35a1.27,1.27,0,0,0,1.1-.63l13.8-23.48a1.28,1.28,0,0,0-2.21-1.3l-13.8,23.48a1.28,1.28,0,0,0,.46,1.75A1.25,1.25,0,0,0,190.47,206.35Z"/><path class="cls-2" d="M202.87,198.89a1.28,1.28,0,0,0,.59-2.41l-13.57-7.11a1.28,1.28,0,1,0-1.19,2.27l13.57,7.11A1.29,1.29,0,0,0,202.87,198.89Z"/><polygon class="cls-2" points="115.19 131.24 167.89 106.83 225.88 141.7 63.72 241.1 48.9 241.1 7.52 215.82 4.94 205.35 80.6 147.8 115.19 131.24"/><polygon class="cls-2" points="63.72 241.1 63.06 258.54 71.5 241.97 88.1 231.51 92.62 229.77 99.47 241.1 170.99 201 183.43 178.32 204.64 165.24 210.05 173.09 221.04 166.99 225.88 141.7 63.72 241.1"/><polygon class="cls-2" points="4.94 205.35 4.67 218.43 5.42 229.77 50.22 255.93 63.22 256.8 64.6 241.1 48.9 241.1 7.52 215.82 4.94 205.35"/><polygon class="cls-9" points="5.55 218.43 4.52 220.18 3.45 232.38 50.63 261.15 64.58 261.15 65.84 256.8 74.11 241.97 93.2 230.74 98.67 239.79 96.55 244.59 169.96 202.74 172.58 202.74 186.85 179.2 206.26 167.61 209.97 173.96 210.39 179.2 222.56 169.61 222.87 166.11 221.5 164.61 210.12 172.22 204.78 163.5 182.71 176.58 172.25 196.63 170.19 200.12 99.55 240.23 91.97 227.15 71.72 239.36 63.37 255.05 50.29 255.05 6.37 228.9 5.55 218.43"/><polygon class="cls-11" points="26.3 191.4 81.02 222.79 126.91 177.83 80.6 149.83 26.3 191.4"/><polygon class="cls-12" points="80.6 149.83 116.06 133.72 167.37 164.25 126.91 177.83 80.6 149.83"/><polyline class="cls-12" points="121.29 131.24 167.6 160.01 218.98 140.83 167.58 110.31 122.16 131.24"/><polygon class="cls-13" points="5.51 208.84 8.24 217.56 27.14 230.64 48.9 241.1 63.65 241.97 63.5 243.72 48.75 242.84 26.12 232.38 7.29 218.43 5.36 210.59 5.51 208.84"/><polygon class="cls-12" points="83.48 224.53 127.56 179.2 168.01 165.24 168.35 171.35 83.48 224.53"/><polygon class="cls-2" points="127.24 179.21 132.11 194.06 136.12 191.55 130.94 178.07 127.24 179.21"/><polygon class="cls-14" points="50.29 255.05 48.75 242.84 63.5 243.72 69.4 243.72 63.37 255.05 50.29 255.05"/><g class="cls-15"><polygon class="cls-4" points="278.49 299.02 117.54 392.3 232.73 459.12 393.68 365.83 278.49 299.02"/><polygon class="cls-4" points="393.7 365.88 232.75 459.16 347.94 525.98 508.89 432.7 393.7 365.88"/></g><rect class="cls-9" x="117.04" y="315.58" width="10.86" height="12.56"/><polygon id="Path" class="cls-9" points="232.23 395.04 393.18 301.76 277.99 234.95 117.04 328.23 232.23 395.04"/><rect class="cls-9" x="495.86" y="356.14" width="12.53" height="12.44"/><rect class="cls-9" x="232.25" y="382.51" width="12.53" height="12.53"/><polygon id="Path-2" data-name="Path" class="cls-9" points="347.44 461.9 508.39 368.62 393.2 301.81 232.25 395.09 347.44 461.9"/><polygon id="Path-3" data-name="Path" class="cls-2" points="347.19 449.46 508.39 356.12 392.94 289.37 232.25 382.53 347.19 449.46"/><path class="cls-12" d="M396.44,287.05s18.9-9.22,53.2,13.42c29.85,19.71,68,43,68,43L347.36,439.66s-34.14-17.27-60.11-32.36c-23.45-13.63-54.08-25.37-54.08-25.37Z"/><path class="cls-4" d="M347.36,440a.47.47,0,0,1-.16,0c-.35-.18-34.46-17.45-60.14-32.37-23.15-13.46-53.72-25.23-54-25.35a.36.36,0,0,1-.24-.32.38.38,0,0,1,.18-.35l163.27-94.88,0,0c.19-.09,19.48-9,53.57,13.45,29.5,19.48,67.58,42.73,68,43a.39.39,0,0,1,.18.33.42.42,0,0,1-.19.32L347.55,440A.41.41,0,0,1,347.36,440ZM234,381.86c4.79,1.88,32.19,12.79,53.4,25.12,24.69,14.35,57.2,30.88,59.91,32.26l169.52-95.81C512.1,340.51,477,319,449.43,300.79c-33.36-22-52.27-13.66-52.81-13.41Z"/><path class="cls-12" d="M395.52,287.63S415,276.38,449.25,299c29.85,19.71,63.51,29.68,63.51,29.68L339.37,428s-27.85-10.25-53-26.29c-22.86-14.6-54.13-19.2-54.13-19.2Z"/><path class="cls-4" d="M339.37,428.37a.27.27,0,0,1-.13,0c-.28-.1-28.18-10.44-53.06-26.33-22.53-14.38-53.67-19.09-54-19.14a.37.37,0,0,1-.13-.69l163.27-94.88h0c.2-.12,20-11.11,54.13,11.4,29.46,19.45,63.07,29.54,63.4,29.63a.39.39,0,0,1,.27.32.37.37,0,0,1-.19.37L339.55,428.32A.29.29,0,0,1,339.37,428.37Zm-106-46.06c5.63.95,32.91,6.1,53.24,19.08,23.83,15.21,50.42,25.32,52.75,26.2l172.49-98.78c-5.37-1.69-35.81-11.67-62.78-29.48-17.6-11.62-31.17-14.09-39.46-14.12h-.14c-8.87,0-13.69,2.72-13.73,2.75Z"/><path class="cls-16" d="M395.52,287.63S416.75,270.31,451,293c29.85,19.7,55.53,17.41,55.53,17.41L335.09,414.25s-19.77-6.77-44.91-22.81c-22.86-14.6-57.93-8.93-57.93-8.93Z"/><polygon id="Path-4" data-name="Path" class="cls-2" points="231.97 382.51 393.18 289.16 277.73 222.42 117.04 315.58 231.97 382.51"/><path class="cls-12" d="M232,382.56s-60.41-51.64-107.54-66.07c1.3-.75,157-100.17,157-100.17s11.32,16.24,111.79,72.9C392.94,289.42,232,382.56,232,382.56Z"/><path class="cls-4" d="M232,382.94a.38.38,0,0,1-.25-.09c-.6-.52-60.89-51.76-107.4-66a.38.38,0,0,1-.26-.31.37.37,0,0,1,.19-.37C125.53,315.43,279.63,217,281.19,216a.37.37,0,0,1,.5.1c.12.17,12.62,16.93,111.68,72.79a.42.42,0,0,1,.19.29.39.39,0,0,1-.13.32c-.24.21-112.86,65.38-161.27,93.39A.41.41,0,0,1,232,382.94ZM125.33,316.38c45.19,14.18,102.8,62.44,106.69,65.73,6.69-3.88,150.39-87,160.41-92.89-93-52.49-109.16-70-111.13-72.4C272,222.75,136.36,309.4,125.33,316.38Z"/><path class="cls-12" d="M232,382.51s-20.16-34.74-88.39-66.93c1.29-.75,162.88-99.6,162.88-99.6s6.75,24.22,86.71,73.18C392.94,289.37,232,382.51,232,382.51Z"/><path class="cls-4" d="M232,382.89a.39.39,0,0,1-.33-.19c-.2-.35-20.91-35-88.22-66.78a.35.35,0,0,1-.21-.32.36.36,0,0,1,.18-.34c1.28-.74,161.25-98.61,162.87-99.6a.39.39,0,0,1,.33,0,.43.43,0,0,1,.23.25c.07.24,7.74,24.72,86.55,73a.4.4,0,0,1,.18.29.39.39,0,0,1-.13.32c-.24.2-112.86,65.38-161.27,93.39A.41.41,0,0,1,232,382.89Zm-87.6-67.35C208,345.7,229.86,378.43,232.1,382c7.76-4.48,150.57-87.12,160.36-92.84-73.69-45.2-84.85-69-86.2-72.61C295.75,223,154.82,309.19,144.38,315.54Z"/><path class="cls-17" d="M232,381.91S215.15,342,167.32,313.13l165.81-96.81s-.78,15.1,60.05,72.24C392.94,288.77,232,381.91,232,381.91Z"/><g id="_-_-Ockam.io" data-name=" - -Ockam.io"><g id="img-hero"><ellipse id="Oval" class="cls-13" cx="343.1" cy="333.49" rx="1.62" ry="1.02" transform="translate(-16.56 17.94) rotate(-2.92)"/><ellipse id="Oval-2" class="cls-13" cx="360.87" cy="336.33" rx="1.62" ry="1.02" transform="translate(-16.69 18.85) rotate(-2.92)"/><ellipse id="Oval-3" class="cls-13" cx="387.2" cy="361.71" rx="1.62" ry="1.02" transform="translate(-17.95 20.22) rotate(-2.92)"/><ellipse id="Oval-4" class="cls-13" cx="374.39" cy="327.89" rx="1.62" ry="1.02" transform="translate(-16.24 19.53) rotate(-2.92)"/><ellipse id="Oval-5" class="cls-13" cx="355.89" cy="367.32" rx="1.62" ry="1.02" transform="translate(-18.27 18.63) rotate(-2.92)"/><ellipse id="Oval-6" class="cls-13" cx="333.84" cy="353.21" rx="1.62" ry="1.02" transform="translate(-17.58 17.49) rotate(-2.92)"/><ellipse id="Oval-7" class="cls-13" cx="369.42" cy="358.88" rx="1.62" ry="1.02" transform="translate(-17.83 19.31) rotate(-2.92)"/><ellipse id="Oval-8" class="cls-13" cx="378.64" cy="339.16" rx="1.62" ry="1.02" transform="translate(-16.81 19.76) rotate(-2.92)"/><ellipse id="Oval-9" class="cls-13" cx="351.65" cy="356.04" rx="1.62" ry="1.02" transform="translate(-17.7 18.4) rotate(-2.92)"/><ellipse id="Oval-10" class="cls-13" cx="382.92" cy="350.43" rx="1.62" ry="1.02" transform="translate(-17.38 19.99) rotate(-2.92)"/><ellipse id="Oval-11" class="cls-13" cx="347.36" cy="344.78" rx="1.62" ry="1.02" transform="translate(-17.14 18.17) rotate(-2.92)"/><ellipse id="Oval-12" class="cls-13" cx="396.45" cy="341.98" rx="1.62" ry="1.02" transform="translate(-16.93 20.67) rotate(-2.92)"/><path id="Path-5" data-name="Path" class="cls-4" d="M340.75,334.89c-8.78,2.54-13,9-9.41,14.45a9.67,9.67,0,0,0,1.72,2,4,4,0,0,0-1.41.53,2.06,2.06,0,0,0-.64.57c-6.24-5.49-4-13.35,5-17.54a26.11,26.11,0,0,1,3.93-1.46A1.63,1.63,0,0,0,340.75,334.89Z"/><path id="Path-2-2" data-name="Path-2" class="cls-4" d="M345,346.17a16.9,16.9,0,0,0-8.93,5.56,4.11,4.11,0,0,0-2.4-.51c2.12-2.91,5.88-5.26,10.54-6.56A1.43,1.43,0,0,0,345,346.17Z"/><path id="Path-3-2" data-name="Path-3" class="cls-4" d="M344.06,339.32a8.85,8.85,0,0,0,2.55,3.53,4,4,0,0,0-1.41.53,2.24,2.24,0,0,0-.61.54c-2.89-2.49-4.09-5.64-3.35-8.77a3.62,3.62,0,0,0,1,.27,4.36,4.36,0,0,0,1.57,0,6.64,6.64,0,0,0,.29,3.92Z"/><path id="Path-4-2" data-name="Path-4" class="cls-4" d="M348.61,355.56a1.35,1.35,0,0,0,.37,1.63,27.79,27.79,0,0,1-13.89-2.2,4.42,4.42,0,0,0,.92-.4,2.15,2.15,0,0,0,.82-.87,23.76,23.76,0,0,0,11.79,1.84Z"/><path id="Path-5-2" data-name="Path-5" class="cls-4" d="M350.82,354.13a3.28,3.28,0,0,0-2,1.08c-2.86-2.5-4-5.63-3.34-8.77a4.65,4.65,0,0,0,2.53.26A7.83,7.83,0,0,0,350.82,354.13Z"/><path id="Path-6" class="cls-4" d="M334.36,356.22c-.31,6,7.18,10.81,16.69,10.71.61,0,1.21,0,1.81-.09a1.29,1.29,0,0,0-.05,1,1.82,1.82,0,0,0,.43.62c-.75.05-1.49.1-2.22.11-10.95.12-19.57-5.39-19.25-12.32h0a8.25,8.25,0,0,1,.18-1.4,4.9,4.9,0,0,0,2.54.26,6.86,6.86,0,0,0-.13,1.11Z"/><path id="Path-7" class="cls-4" d="M350.06,362.33a7.86,7.86,0,0,1-.31-4.65,4.61,4.61,0,0,0,2.54.27c-.58,2.65.4,5.3,2.78,7.43a3.42,3.42,0,0,0-2,1.09,10.94,10.94,0,0,1-3-4.14Z"/><path id="Path-8" class="cls-4" d="M368.5,360.8a4.71,4.71,0,0,0,1.06,0c-2.09,2.93-5.88,5.28-10.52,6.58a1.46,1.46,0,0,0-.77-1.53,16.84,16.84,0,0,0,8.92-5.59A3,3,0,0,0,368.5,360.8Z"/><path id="Path-9" class="cls-4" d="M366.37,358.41a1.37,1.37,0,0,0,.41,1.61,27.87,27.87,0,0,1-13.88-2.21,2.85,2.85,0,0,0,1.72-1.26,24.31,24.31,0,0,0,11.75,1.86Z"/><path id="Path-10" class="cls-4" d="M384.14,361.26a1.39,1.39,0,0,0,.41,1.61,27.76,27.76,0,0,1-13.88-2.21,2.81,2.81,0,0,0,1.76-1.26A24.22,24.22,0,0,0,384.14,361.26Z"/><path id="Path-11" class="cls-4" d="M359,369.84c-.64-.23-1.24-.48-1.81-.75a2.77,2.77,0,0,0,1.73-1.26c.47.21.95.42,1.44.59,8.11,2.93,18.76,1,23.79-4.25h0a11.28,11.28,0,0,0,.83-1,4,4,0,0,0,2.42.52,13.06,13.06,0,0,1-1.07,1.27c-5.77,6-18,8.25-27.33,4.88Z"/><path id="Path-12" class="cls-4" d="M383.07,352.39c-2.13,2.93-5.89,5.28-10.53,6.6a1.54,1.54,0,0,0-.78-1.53,17,17,0,0,0,8.91-5.58,4.17,4.17,0,0,0,2.4.51Z"/><path id="Path-13" class="cls-4" d="M386.21,355.86a9,9,0,0,0-2.56-3.53,3.93,3.93,0,0,0,1.41-.52,2.68,2.68,0,0,0,.62-.54c2.88,2.48,4.09,5.62,3.34,8.77a4.27,4.27,0,0,0-2.52-.26A6.73,6.73,0,0,0,386.21,355.86Z"/><path id="Path-14" class="cls-4" d="M390.5,346.72a13.63,13.63,0,0,0,3.7-3.28,4.27,4.27,0,0,0,2.4.52c-2.13,2.92-5.92,5.27-10.56,6.55a1.52,1.52,0,0,0-.79-1.51,20.74,20.74,0,0,0,5.25-2.28Z"/><path id="Path-15" class="cls-4" d="M389.51,360.29c8.79-2.54,13-9,9.41-14.44a9.71,9.71,0,0,0-1.71-2,4.29,4.29,0,0,0,1.41-.52,2.37,2.37,0,0,0,.62-.56c6.24,5.48,4,13.33-5,17.54a26.07,26.07,0,0,1-3.93,1.45A1.51,1.51,0,0,0,389.51,360.29Z"/><path id="Path-16" class="cls-4" d="M381.66,339.6a1.25,1.25,0,0,0,.06-1,1.69,1.69,0,0,0-.41-.6,27.9,27.9,0,0,1,13.89,2.19,4.89,4.89,0,0,0-.91.39,2.09,2.09,0,0,0-.82.87,24.08,24.08,0,0,0-11.81-1.85Z"/><path id="Path-17" class="cls-4" d="M379.43,341.05a3.34,3.34,0,0,0,2-1.08c2.85,2.5,4.06,5.64,3.36,8.79a4.51,4.51,0,0,0-2.54-.26C382.79,345.83,381.78,343.19,379.43,341.05Z"/><path id="Path-18" class="cls-4" d="M373.12,326.08a2.79,2.79,0,0,0-1.73,1.26c-.47-.22-.94-.42-1.44-.61-8.11-2.92-18.76-1-23.77,4.26h0c-.29.32-.57.65-.83,1a4,4,0,0,0-2.41-.52,12.72,12.72,0,0,1,1.06-1.25c5.75-6.06,18-8.25,27.33-4.9C371.94,325.57,372.53,325.8,373.12,326.08Z"/><path id="Path-19" class="cls-4" d="M380.2,332.85a7.86,7.86,0,0,1,.31,4.65,4.66,4.66,0,0,0-2.53-.29c.58-2.66-.42-5.31-2.78-7.44a3.39,3.39,0,0,0,2-1.07,10.44,10.44,0,0,1,3,4.15Z"/><path id="Path-20" class="cls-4" d="M395.92,338.94c.27-6-7.2-10.82-16.73-10.72h0c-.59,0-1.19,0-1.77.09a1.27,1.27,0,0,0,.06-1,1.73,1.73,0,0,0-.44-.6c.72-.06,1.49-.1,2.22-.11,10.95-.12,19.55,5.37,19.24,12.3a9.74,9.74,0,0,1-.19,1.41,4.61,4.61,0,0,0-2.52-.26,8.06,8.06,0,0,0,.13-1.1Z"/><path id="Path-21" class="cls-4" d="M357.85,335.8a24,24,0,0,0-11.7-1.88,1.44,1.44,0,0,0-.39-1.61,27.69,27.69,0,0,1,13.85,2.23A2.75,2.75,0,0,0,357.85,335.8Z"/><path id="Path-22" class="cls-4" d="M361.76,334.38a5.07,5.07,0,0,0-1,0c2.12-2.93,5.88-5.28,10.52-6.58a1.23,1.23,0,0,0,0,.66,1.89,1.89,0,0,0,.73.85,16.82,16.82,0,0,0-8.93,5.6A3.31,3.31,0,0,0,361.76,334.38Z"/><path id="Path-23" class="cls-4" d="M347.17,342.78c2.14-2.9,5.92-5.25,10.54-6.57a1.51,1.51,0,0,0,.81,1.51,17.1,17.1,0,0,0-8.91,5.58,4.31,4.31,0,0,0-2.44-.52Z"/><path id="Path-24" class="cls-4" d="M363.9,336.74a1.36,1.36,0,0,0-.42-1.59,28,28,0,0,1,13.89,2.2,2.75,2.75,0,0,0-1.73,1.26,24.52,24.52,0,0,0-11.74-1.86Z"/></g></g><path class="cls-13" d="M313.22,309.9c-8.38-20.71-41.82-42.49-42.15-42.71l1.95-1.67c1.44.93,33.47,20.85,42.61,43.44Z"/><path class="cls-12" d="M266.86,341.9c-8.37-20.71-42.93-45-43.26-45.2l4.59-2.9c1.45.93,34.93,22.55,44.07,45.14Z"/><path class="cls-4" d="M158.61,471.37a.38.38,0,0,1-.33-.18.38.38,0,0,1,.13-.51l97.1-58.16a.37.37,0,1,1,.39.64l-97.1,58.16A.45.45,0,0,1,158.61,471.37Z"/><path class="cls-4" d="M152.78,478.47c-4.55,0-8.12-2-8.12-4.51s3.57-4.52,8.12-4.52,8.11,2,8.11,4.52S157.33,478.47,152.78,478.47Zm0-8.28c-4,0-7.37,1.72-7.37,3.77s3.38,3.76,7.37,3.76,7.36-1.72,7.36-3.76S156.77,470.19,152.78,470.19Z"/><path class="cls-4" d="M91.27,441.33c-4.55,0-8.11-2-8.11-4.51s3.56-4.52,8.11-4.52,8.11,2,8.11,4.52S95.82,441.33,91.27,441.33Zm0-8.28c-4,0-7.36,1.72-7.36,3.77s3.37,3.76,7.36,3.76,7.36-1.72,7.36-3.76S95.26,433.05,91.27,433.05Z"/><path class="cls-4" d="M490.11,463.17a.41.41,0,0,1-.19-.05l-67.8-39.35a.39.39,0,0,1-.14-.52.36.36,0,0,1,.51-.13l67.81,39.35a.36.36,0,0,1,.13.51A.37.37,0,0,1,490.11,463.17Z"/><path class="cls-4" d="M494.11,470.85c-4.55,0-8.11-2-8.11-4.51s3.56-4.52,8.11-4.52,8.11,2,8.11,4.52S498.66,470.85,494.11,470.85Zm0-8.28c-4,0-7.36,1.72-7.36,3.77s3.37,3.76,7.36,3.76,7.36-1.72,7.36-3.76S498.1,462.57,494.11,462.57Z"/><path class="cls-4" d="M523.39,399.63c-4.55,0-8.11-2-8.11-4.52s3.56-4.52,8.11-4.52,8.11,2,8.11,4.52S527.94,399.63,523.39,399.63Zm0-8.29c-4,0-7.36,1.73-7.36,3.77s3.37,3.77,7.36,3.77,7.36-1.73,7.36-3.77S527.38,391.34,523.39,391.34Z"/><path class="cls-4" d="M96.09,434a.38.38,0,0,1-.33-.18.39.39,0,0,1,.14-.52l23-13.1a.35.35,0,0,1,.37,0l23.15,13,73.44-44.78a.37.37,0,1,1,.39.64L142.62,434a.39.39,0,0,1-.38,0l-23.16-13-22.8,13A.43.43,0,0,1,96.09,434Z"/><path class="cls-4" d="M495.52,412.21a.32.32,0,0,1-.19,0l-26.59-15.39a.37.37,0,0,1,.37-.65l26.41,15.28,22.76-13.24a.37.37,0,1,1,.37.65l-22.94,13.35A.34.34,0,0,1,495.52,412.21Z"/><line class="cls-12" x1="385.25" y1="281.49" x2="414.54" y2="264.48"/><path class="cls-4" d="M385.25,281.86a.39.39,0,0,1-.33-.19.37.37,0,0,1,.14-.51l29.29-17a.39.39,0,0,1,.52.14.37.37,0,0,1-.14.51l-29.29,17A.45.45,0,0,1,385.25,281.86Z"/><path class="cls-4" d="M419.61,265.81c-4.55,0-8.11-2-8.11-4.52s3.56-4.51,8.11-4.51,8.11,2,8.11,4.51S424.16,265.81,419.61,265.81Zm0-8.28c-4,0-7.36,1.72-7.36,3.76s3.37,3.77,7.36,3.77,7.36-1.72,7.36-3.77S423.6,257.53,419.61,257.53Z"/><path class="cls-4" d="M213.1,261a.37.37,0,0,1-.18,0l-41.47-23.77a.36.36,0,0,1-.19-.32.37.37,0,0,1,.19-.33l23.08-13.46a.37.37,0,0,1,.51.13.37.37,0,0,1-.13.51l-22.52,13.14,40.9,23.45a.37.37,0,0,1,.14.51A.39.39,0,0,1,213.1,261Z"/><path class="cls-4" d="M200.26,225c-4.55,0-8.11-2-8.11-4.52s3.56-4.52,8.11-4.52,8.11,2,8.11,4.52S204.81,225,200.26,225Zm0-8.29c-4,0-7.36,1.73-7.36,3.77s3.37,3.77,7.36,3.77,7.36-1.73,7.36-3.77S204.25,216.66,200.26,216.66Z"/><line class="cls-12" x1="182.4" y1="276.6" x2="137.75" y2="250.68"/><path class="cls-4" d="M182.4,277a.41.41,0,0,1-.19-.05L137.56,251a.38.38,0,0,1,.38-.65l44.65,25.92a.36.36,0,0,1,.13.51A.37.37,0,0,1,182.4,277Z"/><path class="cls-4" d="M132.68,252c-4.55,0-8.11-2-8.11-4.52s3.56-4.52,8.11-4.52,8.12,2,8.12,4.52S137.23,252,132.68,252Zm0-8.29c-4,0-7.36,1.73-7.36,3.77s3.37,3.77,7.36,3.77,7.37-1.73,7.37-3.77S136.67,243.73,132.68,243.73Z"/><rect class="cls-1" x="-0.27" y="-0.63" width="540" height="540"/></svg>