<?xml version="1.0" encoding="UTF-8"?>
<svg width="193px" height="185px" viewBox="0 0 193 185" version="1.1" xmlns="http://www.w3.org/2000/svg" xmlns:xlink="http://www.w3.org/1999/xlink">
    <g id="Page-1" stroke="none" stroke-width="1" fill="none" fill-rule="evenodd">
        <g id="/product---mobile-copy" transform="translate(-63.000000, -5415.000000)">
            <g id="mobile--registry" transform="translate(63.000000, 5415.000000)">
                <g id="Group-52" transform="translate(0.000000, 74.420000)" fill="#25B8E4">
                    <rect id="Rectangle-Copy-13" fill-opacity="0.06" x="0" y="0" width="192.76" height="35.99" rx="6.1"></rect>
                    <path d="M55.07324,21.46712 C55.9191067,21.46712 56.54212,21.1613067 56.94228,20.54968 C57.34244,19.9380533 57.54252,19.06616 57.54252,17.934 C57.54252,17.4004533 57.5002267,16.9173333 57.41564,16.48464 C57.3310533,16.0519467 57.19116,15.6810667 56.99596,15.372 C56.80076,15.0629333 56.5453733,14.8238133 56.2298,14.65464 C55.9142267,14.4854667 55.5287067,14.40088 55.07324,14.40088 C54.2403867,14.40088 53.62388,14.7066933 53.22372,15.31832 C52.82356,15.9299467 52.62348,16.80184 52.62348,17.934 C52.62348,18.4675467 52.6657733,18.9506667 52.75036,19.38336 C52.8349467,19.8160533 52.97484,20.1869333 53.17004,20.496 C53.36524,20.8050667 53.619,21.0441867 53.93132,21.21336 C54.24364,21.3825333 54.62428,21.46712 55.07324,21.46712 Z M55.07324,20.74488 C54.76092,20.74488 54.5039067,20.6684267 54.3022,20.51552 C54.1004933,20.3626133 53.9378267,20.1576533 53.8142,19.90064 C53.6905733,19.6436267 53.60436,19.3459467 53.55556,19.0076 C53.50676,18.6692533 53.48236,18.3113867 53.48236,17.934 C53.48236,16.97752 53.60924,16.26992 53.863,15.8112 C54.11676,15.35248 54.5201733,15.12312 55.07324,15.12312 C55.38556,15.12312 55.6458267,15.1995733 55.85404,15.35248 C56.0622533,15.5053867 56.2281733,15.7103467 56.3518,15.96736 C56.4754267,16.2243733 56.56164,16.52368 56.61044,16.86528 C56.65924,17.20688 56.68364,17.56312 56.68364,17.934 C56.68364,18.8969867 56.5551333,19.6062133 56.29812,20.06168 C56.0411067,20.5171467 55.6328133,20.74488 55.07324,20.74488 Z M61.17324,21.46712 C61.427,21.46712 61.6628667,21.4443467 61.88084,21.3988 C62.0988133,21.3532533 62.2972667,21.2930667 62.4762,21.21824 C62.6551333,21.1434133 62.81292,21.0637067 62.94956,20.97912 C63.0862,20.8945333 63.2000667,20.8132 63.29116,20.73512 L63.29116,20.73512 L62.94956,20.16904 C62.75436,20.3382133 62.5119867,20.4748533 62.22244,20.57896 C61.9328933,20.6830667 61.6352133,20.73512 61.3294,20.73512 C61.0431067,20.73512 60.7812133,20.6928267 60.54372,20.60824 C60.3062267,20.5236533 60.1028933,20.40328 59.93372,20.24712 C59.7645467,20.09096 59.6344133,19.90064 59.54332,19.67616 C59.4522267,19.45168 59.40668,19.1962933 59.40668,18.91 C59.40668,18.2593333 59.56284,17.7843467 59.87516,17.48504 C60.18748,17.1857333 60.6624667,17.03608 61.30012,17.03608 C61.4692933,17.03608 61.6400933,17.0539733 61.81252,17.08976 C61.9849467,17.1255467 62.1459867,17.1694667 62.29564,17.22152 L62.29564,17.22152 L62.29564,18.14872 L62.99836,18.14872 L62.99836,16.79208 L63.00812,16.7628 C62.7999067,16.6586933 62.54452,16.5643467 62.24196,16.47976 C61.9394,16.3951733 61.5473733,16.35288 61.06588,16.35288 C60.6884933,16.35288 60.3468933,16.4098133 60.04108,16.52368 C59.7352667,16.6375467 59.475,16.80184 59.26028,17.01656 C59.04556,17.23128 58.8812667,17.4980533 58.7674,17.81688 C58.6535333,18.1357067 58.5966,18.50008 58.5966,18.91 C58.5966,19.2938933 58.6519067,19.6436267 58.76252,19.9592 C58.8731333,20.2747733 59.0358,20.5448 59.25052,20.76928 C59.46524,20.99376 59.73364,21.1661867 60.05572,21.28656 C60.3778,21.4069333 60.7503067,21.46712 61.17324,21.46712 Z M65.68236,21.35 L65.68236,19.14424 L66.21916,19.14424 L68.3078,21.35 L69.31308,21.35 L69.31308,20.69608 L68.67868,20.69608 L66.90236,18.78312 L69.05932,16.47 L68.14188,16.47 L66.21916,18.55864 L65.68236,18.55864 L65.68236,14.518 L64.10124,14.518 L64.10124,15.17192 L64.93084,15.17192 L64.93084,21.35 L65.68236,21.35 Z M72.0166,21.43784 C72.2638533,21.43784 72.4785733,21.4053067 72.66076,21.34024 C72.8429467,21.2751733 72.99748,21.19872 73.12436,21.11088 C73.25124,21.02304 73.35372,20.9335733 73.4318,20.84248 C73.50988,20.7513867 73.56844,20.67656 73.60748,20.618 L73.60748,20.618 L73.65628,20.618 L73.74412,21.35 L75.0422,21.35 L75.0422,20.7156 L74.38828,20.7156 C74.34924,20.4228 74.32972,20.1137333 74.32972,19.7884 C74.3362267,19.5086133 74.3459867,19.2288267 74.359,18.94904 C74.3720133,18.6692533 74.37852,18.4057333 74.37852,18.15848 C74.37852,17.94376 74.3573733,17.7306667 74.31508,17.5192 C74.2727867,17.3077333 74.1914533,17.11904 74.07108,16.95312 C73.9507067,16.7872 73.7847867,16.6521867 73.57332,16.54808 C73.3618533,16.4439733 73.0902,16.39192 72.75836,16.39192 C72.4200133,16.39192 72.07516,16.4277067 71.7238,16.49928 C71.37244,16.5708533 71.0568667,16.6879733 70.77708,16.85064 L70.77708,16.85064 L71.02108,17.41672 C71.2292933,17.3321333 71.4667867,17.2491733 71.73356,17.16784 C72.0003333,17.0865067 72.28012,17.04584 72.57292,17.04584 C72.78764,17.04584 72.9682,17.07024 73.1146,17.11904 C73.261,17.16784 73.3748667,17.2508 73.4562,17.36792 C73.5375333,17.48504 73.5895867,17.6428267 73.61236,17.84128 C73.6351333,18.0397333 73.6302533,18.2886133 73.59772,18.58792 C73.1162267,18.5163467 72.6819067,18.49032 72.29476,18.50984 C71.9076133,18.52936 71.5774,18.59768 71.30412,18.7148 C71.03084,18.83192 70.821,19.0010933 70.6746,19.22232 C70.5282,19.4435467 70.455,19.72008 70.455,20.05192 C70.455,20.48136 70.5948933,20.8197067 70.87468,21.06696 C71.1544667,21.3142133 71.5351067,21.43784 72.0166,21.43784 Z M72.2118,20.78392 C71.8669467,20.78392 71.62132,20.7042133 71.47492,20.5448 C71.32852,20.3853867 71.25532,20.19832 71.25532,19.9836 C71.25532,19.7753867 71.31388,19.6062133 71.431,19.47608 C71.54812,19.3459467 71.7107867,19.2499733 71.919,19.18816 C72.1272133,19.1263467 72.3744667,19.09544 72.66076,19.09544 C72.9470533,19.09544 73.2593733,19.12472 73.59772,19.18328 L73.59772,19.18328 L73.59772,19.86648 C73.55868,19.96408 73.50012,20.06656 73.42204,20.17392 C73.34396,20.28128 73.24636,20.3805067 73.12924,20.4716 C73.01212,20.5626933 72.87548,20.63752 72.71932,20.69608 C72.56316,20.75464 72.3939867,20.78392 72.2118,20.78392 Z M76.72092,21.35 L76.72092,17.99256 C76.799,17.71928 76.9144933,17.4915467 77.0674,17.30936 C77.2203067,17.1271733 77.4073733,17.03608 77.6286,17.03608 C77.7392133,17.03608 77.82868,17.06536 77.897,17.12392 C77.96532,17.18248 78.0173733,17.2621867 78.05316,17.36304 C78.0889467,17.4638933 78.11172,17.57776 78.12148,17.70464 C78.13124,17.83152 78.13612,17.96328 78.13612,18.09992 L78.13612,18.09992 L78.13612,21.35 L78.87788,21.35 L78.87788,18.09016 C78.95596,17.7518133 79.07308,17.4915467 79.22924,17.30936 C79.3854,17.1271733 79.5773467,17.03608 79.80508,17.03608 C79.9091867,17.03608 79.9921467,17.0621067 80.05396,17.11416 C80.1157733,17.1662133 80.1645733,17.2377867 80.20036,17.32888 C80.2361467,17.4199733 80.2605467,17.5257067 80.27356,17.64608 C80.2865733,17.7664533 80.29308,17.89496 80.29308,18.0316 L80.29308,18.0316 L80.29308,21.35 L81.03484,21.35 L81.03484,17.86568 C81.03484,17.6379467 81.0202,17.43136 80.99092,17.24592 C80.96164,17.06048 80.9095867,16.9010667 80.83476,16.76768 C80.7599333,16.6342933 80.6558267,16.5318133 80.52244,16.46024 C80.3890533,16.3886667 80.215,16.35288 80.00028,16.35288 C79.6749467,16.35288 79.41956,16.4244533 79.23412,16.5676 C79.04868,16.7107467 78.8811333,16.9092 78.73148,17.16296 C78.71196,17.0133067 78.6696667,16.8864267 78.6046,16.78232 C78.5395333,16.6782133 78.46308,16.5952533 78.37524,16.53344 C78.2874,16.4716267 78.1914267,16.42608 78.08732,16.3968 C77.9832133,16.36752 77.88236,16.35288 77.78476,16.35288 C77.6155867,16.35288 77.4756933,16.3707733 77.36508,16.40656 C77.2544667,16.4423467 77.1584933,16.4927733 77.07716,16.55784 C76.9958267,16.6229067 76.9242533,16.69936 76.86244,16.7872 C76.8006267,16.87504 76.7371867,16.96776 76.67212,17.06536 L76.67212,17.06536 L76.63308,17.06536 L76.48668,16.47 L75.97916,16.47 L75.97916,21.35 L76.72092,21.35 Z M90.76556,21.46712 C91.195,21.46712 91.5593733,21.4166933 91.85868,21.31584 C92.1579867,21.2149867 92.40524,21.0897333 92.60044,20.94008 L92.60044,20.94008 L92.59068,20.92056 L92.59068,19.60296 L91.86844,19.60296 L91.86844,20.57896 C91.7448133,20.6310133 91.6098,20.67168 91.4634,20.70096 C91.317,20.73024 91.1592133,20.74488 90.99004,20.74488 C90.6582,20.74488 90.3572667,20.68632 90.08724,20.5692 C89.8172133,20.45208 89.5862267,20.2764 89.39428,20.04216 C89.2023333,19.80792 89.05268,19.51512 88.94532,19.16376 C88.83796,18.8124 88.78428,18.40248 88.78428,17.934 C88.78428,17.4134667 88.8444667,16.9742667 88.96484,16.6164 C89.0852133,16.2585333 89.2446267,15.9689867 89.44308,15.74776 C89.6415333,15.5265333 89.8692667,15.36712 90.12628,15.26952 C90.3832933,15.17192 90.6451867,15.12312 90.91196,15.12312 C91.1006533,15.12312 91.2616933,15.1345067 91.39508,15.15728 C91.5284667,15.1800533 91.6504667,15.2142133 91.76108,15.25976 L91.76108,15.25976 L91.76108,16.30408 L92.48332,16.30408 L92.48332,14.762 L92.47356,14.762 C92.3824667,14.70344 92.2897467,14.6513867 92.1954,14.60584 C92.1010533,14.5602933 91.9920667,14.52288 91.86844,14.4936 C91.7448133,14.46432 91.6016667,14.4415467 91.439,14.42528 C91.2763333,14.4090133 91.0843867,14.40088 90.86316,14.40088 C90.4597467,14.40088 90.0807333,14.4659467 89.72612,14.59608 C89.3715067,14.7262133 89.0608133,14.9328 88.79404,15.21584 C88.5272667,15.49888 88.3158,15.8632533 88.15964,16.30896 C88.00348,16.7546667 87.9254,17.2963467 87.9254,17.934 C87.9254,18.5456267 87.9953467,19.0742933 88.13524,19.52 C88.2751333,19.9657067 88.47196,20.3317067 88.72572,20.618 C88.97948,20.9042933 89.2804133,21.1173867 89.62852,21.25728 C89.9766267,21.3971733 90.35564,21.46712 90.76556,21.46712 Z M96.67036,21.47688 C96.7809733,21.47688 96.9013467,21.4638667 97.03148,21.43784 C97.1616133,21.4118133 97.2917467,21.3744 97.42188,21.3256 C97.5520133,21.2768 97.6788933,21.2166133 97.80252,21.14504 C97.9261467,21.0734667 98.0400133,20.9921333 98.14412,20.90104 L98.14412,20.90104 L97.79276,20.36424 C97.5910533,20.5204 97.40724,20.6310133 97.24132,20.69608 C97.0754,20.7611467 96.9013467,20.79368 96.71916,20.79368 C96.4588933,20.79368 96.2620667,20.7123467 96.12868,20.54968 C95.9952933,20.3870133 95.9286,20.1072267 95.9286,19.71032 L95.9286,19.71032 L95.9286,14.518 L94.30844,14.518 L94.30844,15.17192 L95.16732,15.17192 L95.16732,19.71032 C95.16732,20.04216 95.1998533,20.32032 95.26492,20.5448 C95.3299867,20.76928 95.42596,20.94984 95.55284,21.08648 C95.67972,21.22312 95.8375067,21.3223467 96.0262,21.38416 C96.2148933,21.4459733 96.4296133,21.47688 96.67036,21.47688 Z M101.931,21.46712 C102.308387,21.46712 102.645107,21.4069333 102.94116,21.28656 C103.237213,21.1661867 103.486093,20.9953867 103.6878,20.77416 C103.889507,20.5529333 104.042413,20.2845333 104.14652,19.96896 C104.250627,19.6533867 104.30268,19.3004 104.30268,18.91 C104.30268,18.5521333 104.255507,18.21704 104.16116,17.90472 C104.066813,17.5924 103.92204,17.3223733 103.72684,17.09464 C103.53164,16.8669067 103.286013,16.6863467 102.98996,16.55296 C102.693907,16.4195733 102.34092,16.35288 101.931,16.35288 C101.16972,16.35288 100.58412,16.58224 100.1742,17.04096 C99.76428,17.49968 99.55932,18.1226933 99.55932,18.91 C99.55932,19.2678667 99.6064933,19.60296 99.70084,19.91528 C99.7951867,20.2276 99.93996,20.4976267 100.13516,20.72536 C100.33036,20.9530933 100.577613,21.1336533 100.87692,21.26704 C101.176227,21.4004267 101.527587,21.46712 101.931,21.46712 Z M101.931,20.8132 C101.644707,20.8132 101.402333,20.7578933 101.20388,20.64728 C101.005427,20.5366667 100.844387,20.3902667 100.72076,20.20808 C100.597133,20.0258933 100.507667,19.8209333 100.45236,19.5932 C100.397053,19.3654667 100.3694,19.1377333 100.3694,18.91 C100.3694,18.2788533 100.499533,17.8038667 100.7598,17.48504 C101.020067,17.1662133 101.410467,17.0068 101.931,17.0068 C102.217293,17.0068 102.459667,17.0621067 102.65812,17.17272 C102.856573,17.2833333 103.01924,17.4297333 103.14612,17.61192 C103.273,17.7941067 103.364093,17.99744 103.4194,18.22192 C103.474707,18.4464 103.50236,18.67576 103.50236,18.91 C103.50236,19.53464 103.3706,20.008 103.10708,20.33008 C102.84356,20.65216 102.451533,20.8132 101.931,20.8132 Z M107.4454,21.46712 C107.842307,21.46712 108.180653,21.37928 108.46044,21.2036 C108.740227,21.02792 108.964707,20.8001867 109.13388,20.5204 L109.13388,20.5204 L109.17292,20.5204 L109.2022,21.35 L110.50028,21.35 L110.50028,20.7156 L109.84636,20.7156 C109.80732,20.4228 109.7878,20.1169867 109.7878,19.79816 L109.7878,19.79816 L109.7878,16.47 L108.40188,16.47 L108.40188,17.12392 L109.02652,17.12392 L109.02652,19.65176 C108.896387,19.9836 108.706067,20.2601333 108.45556,20.48136 C108.205053,20.7025867 107.910627,20.8132 107.57228,20.8132 C107.33804,20.8132 107.150973,20.7757867 107.01108,20.70096 C106.871187,20.6261333 106.765453,20.51552 106.69388,20.36912 C106.622307,20.22272 106.575133,20.0437867 106.55236,19.83232 C106.529587,19.6208533 106.5182,19.3817333 106.5182,19.11496 L106.5182,19.11496 L106.5182,16.47 L105.103,16.47 L105.103,17.12392 L105.75692,17.12392 L105.75692,19.27112 C105.75692,19.6940533 105.789453,20.04704 105.85452,20.33008 C105.919587,20.61312 106.02044,20.8392267 106.15708,21.0084 C106.29372,21.1775733 106.467773,21.29632 106.67924,21.36464 C106.890707,21.43296 107.146093,21.46712 107.4454,21.46712 Z M113.40876,21.46712 C113.77964,21.46712 114.1066,21.38416 114.38964,21.21824 C114.67268,21.05232 114.885773,20.8457333 115.02892,20.59848 L115.02892,20.59848 L115.06796,20.59848 L115.16556,21.35 L116.46364,21.35 L116.46364,20.7156 L115.80972,20.7156 C115.796707,20.6440267 115.783693,20.5610667 115.77068,20.46672 C115.757667,20.3723733 115.74628,20.2764 115.73652,20.1788 C115.72676,20.0812 115.718627,19.98848 115.71212,19.90064 C115.705613,19.8128 115.70236,19.7396 115.70236,19.68104 L115.70236,19.68104 L115.70236,14.518 L114.12124,14.518 L114.12124,15.17192 L114.94108,15.17192 L114.94108,16.55784 C114.84348,16.5318133 114.754013,16.5074133 114.67268,16.48464 C114.591347,16.4618667 114.505133,16.4439733 114.41404,16.43096 C114.322947,16.4179467 114.22372,16.4081867 114.11636,16.40168 C114.009,16.3951733 113.887,16.39192 113.75036,16.39192 C113.372973,16.39192 113.031373,16.4472267 112.72556,16.55784 C112.419747,16.6684533 112.157853,16.8294933 111.93988,17.04096 C111.721907,17.2524267 111.55436,17.5159467 111.43724,17.83152 C111.32012,18.1470933 111.26156,18.50984 111.26156,18.91976 C111.26156,19.7916533 111.435613,20.4341867 111.78372,20.84736 C112.131827,21.2605333 112.673507,21.46712 113.40876,21.46712 Z M113.53564,20.8132 C113.26236,20.8132 113.031373,20.7644 112.84268,20.6668 C112.653987,20.5692 112.502707,20.4358133 112.38884,20.26664 C112.274973,20.0974667 112.19364,19.8973867 112.14484,19.6664 C112.09604,19.4354133 112.07164,19.1865333 112.07164,18.91976 C112.07164,18.2690933 112.221293,17.79248 112.5206,17.48992 C112.819907,17.18736 113.229827,17.03608 113.75036,17.03608 C114.04316,17.03608 114.279027,17.0588533 114.45796,17.1044 C114.636893,17.1499467 114.797933,17.22152 114.94108,17.31912 L114.94108,17.31912 L114.94108,19.58344 C114.856493,19.99336 114.700333,20.3008 114.4726,20.50576 C114.244867,20.71072 113.932547,20.8132 113.53564,20.8132 Z M125.31596,21.46712 C125.680333,21.46712 126.007293,21.4215733 126.29684,21.33048 C126.586387,21.2393867 126.830387,21.1092533 127.02884,20.94008 C127.227293,20.7709067 127.3802,20.5692 127.48756,20.33496 C127.59492,20.10072 127.6486,19.8372 127.6486,19.5444 C127.6486,19.1865333 127.559133,18.8872267 127.3802,18.64648 C127.201267,18.4057333 126.978413,18.1991467 126.71164,18.02672 C126.444867,17.8542933 126.15532,17.7030133 125.843,17.57288 C125.53068,17.4427467 125.241133,17.3109867 124.97436,17.1776 C124.707587,17.0442133 124.484733,16.8929333 124.3058,16.72376 C124.126867,16.5545867 124.0374,16.34312 124.0374,16.08936 C124.0374,15.9592267 124.069933,15.8356 124.135,15.71848 C124.200067,15.60136 124.292787,15.49888 124.41316,15.41104 C124.533533,15.3232 124.679933,15.2532533 124.85236,15.2012 C125.024787,15.1491467 125.21836,15.12312 125.43308,15.12312 C125.654307,15.12312 125.86252,15.1361333 126.05772,15.16216 C126.25292,15.1881867 126.431853,15.22072 126.59452,15.25976 L126.59452,15.25976 L126.59452,16.30408 L127.31676,16.30408 L127.31676,14.74248 L127.32652,14.7132 L127.31676,14.7132 L127.31676,14.69368 L127.29724,14.70344 C127.108547,14.6123467 126.854787,14.5391467 126.53596,14.48384 C126.217133,14.4285333 125.86252,14.40088 125.47212,14.40088 C125.133773,14.40088 124.826333,14.4415467 124.5498,14.52288 C124.273267,14.6042133 124.0374,14.7197067 123.8422,14.86936 C123.647,15.0190133 123.49572,15.2012 123.38836,15.41592 C123.281,15.63064 123.22732,15.8713867 123.22732,16.13816 C123.22732,16.5155467 123.316787,16.82624 123.49572,17.07024 C123.674653,17.31424 123.897507,17.5208267 124.16428,17.69 C124.431053,17.8591733 124.7206,18.0055733 125.03292,18.1292 C125.34524,18.2528267 125.634787,18.3797067 125.90156,18.50984 C126.168333,18.6399733 126.391187,18.7896267 126.57012,18.9588 C126.749053,19.1279733 126.83852,19.3459467 126.83852,19.61272 C126.83852,19.80792 126.797853,19.9770933 126.71652,20.12024 C126.635187,20.2633867 126.524573,20.3821333 126.38468,20.47648 C126.244787,20.5708267 126.080493,20.6391467 125.8918,20.68144 C125.703107,20.7237333 125.5014,20.74488 125.28668,20.74488 C125.039427,20.74488 124.7938,20.71072 124.5498,20.6424 C124.3058,20.57408 124.0862,20.4878667 123.891,20.38376 L123.891,20.38376 L123.891,19.3004 L123.16876,19.3004 L123.16876,20.88152 L123.159,20.9108 C123.243587,20.9563467 123.35908,21.0116533 123.50548,21.07672 C123.65188,21.1417867 123.8178,21.2036 124.00324,21.26216 C124.18868,21.32072 124.392013,21.36952 124.61324,21.40856 C124.834467,21.4476 125.068707,21.46712 125.31596,21.46712 Z M130.51804,21.43784 C131.129667,21.43784 131.638813,21.3386133 132.04548,21.14016 C132.452147,20.9417067 132.775853,20.6781867 133.0166,20.3496 C133.257347,20.0210133 133.42652,19.6436267 133.52412,19.21744 C133.62172,18.7912533 133.67052,18.3471733 133.67052,17.8852 C133.67052,17.37768 133.61684,16.9124533 133.50948,16.48952 C133.40212,16.0665867 133.22644,15.70384 132.98244,15.40128 C132.73844,15.09872 132.41636,14.8628533 132.0162,14.69368 C131.61604,14.5245067 131.119907,14.43992 130.5278,14.43992 C130.339107,14.43992 130.109747,14.4448 129.83972,14.45456 C129.569693,14.46432 129.311053,14.4854667 129.0638,14.518 L129.0638,14.518 L129.0638,21.35976 C129.128867,21.3727733 129.226467,21.3825333 129.3566,21.38904 C129.486733,21.3955467 129.623373,21.40368 129.76652,21.41344 C129.909667,21.4232 130.04956,21.4297067 130.1862,21.43296 C130.32284,21.4362133 130.433453,21.43784 130.51804,21.43784 Z M130.54732,20.7156 C130.50828,20.7156 130.457853,20.7139733 130.39604,20.71072 C130.334227,20.7074667 130.270787,20.7042133 130.20572,20.70096 L130.10934,20.69608 L130.10934,20.69608 L130.0154,20.6912 C129.953587,20.6879467 129.906413,20.6830667 129.87388,20.67656 L129.87388,20.67656 L129.87388,15.21096 C129.964973,15.19144 130.080467,15.1784267 130.22036,15.17192 C130.360253,15.1654133 130.475747,15.16216 130.56684,15.16216 C131.048333,15.16216 131.437107,15.24512 131.73316,15.41104 C132.029213,15.57696 132.256947,15.7900533 132.41636,16.05032 C132.575773,16.3105867 132.681507,16.60176 132.73356,16.92384 C132.785613,17.24592 132.81164,17.5663733 132.81164,17.8852 C132.81164,18.2495733 132.78236,18.60256 132.7238,18.94416 C132.66524,19.28576 132.554627,19.58832 132.39196,19.85184 C132.229293,20.11536 131.999933,20.3252 131.70388,20.48136 C131.407827,20.63752 131.022307,20.7156 130.54732,20.7156 Z M135.77868,21.35 L135.77868,18.18776 L136.5302,18.18776 L138.9214,21.35 L139.9462,21.35 L137.23292,17.76808 L139.64364,14.518 L138.70668,14.518 L136.51068,17.56312 L135.77868,17.56312 L135.77868,14.518 L134.9686,14.518 L134.9686,21.35 L135.77868,21.35 Z" id="OckamCloudSDK" fill-rule="nonzero"></path>
                </g>
                <rect id="Rectangle-Copy-20" fill-opacity="0.06" fill="#25B8E4" x="0" y="0" width="192.76" height="35.99" rx="6.1"></rect>
                <g id="Group-51" transform="translate(60.390000, 148.840000)">
                    <rect id="Rectangle-Copy-19" fill-opacity="0.06" fill="#25B8E4" x="0" y="0" width="71.98" height="35.99" rx="6.1"></rect>
                    <path d="M38.66668,21.35 L38.66668,18.21704 L41.73132,18.21704 L41.73132,21.35 L42.5414,21.35 L42.5414,14.518 L41.73132,14.518 L41.73132,17.4948 L38.66668,17.4948 L38.66668,14.518 L37.8566,14.518 L37.8566,21.35 L38.66668,21.35 Z M46.01596,21.46712 C46.3803333,21.46712 46.7072933,21.4215733 46.99684,21.33048 C47.2863867,21.2393867 47.5303867,21.1092533 47.72884,20.94008 C47.9272933,20.7709067 48.0802,20.5692 48.18756,20.33496 C48.29492,20.10072 48.3486,19.8372 48.3486,19.5444 C48.3486,19.1865333 48.2591333,18.8872267 48.0802,18.64648 C47.9012667,18.4057333 47.6784133,18.1991467 47.41164,18.02672 C47.1448667,17.8542933 46.85532,17.7030133 46.543,17.57288 C46.23068,17.4427467 45.9411333,17.3109867 45.67436,17.1776 C45.4075867,17.0442133 45.1847333,16.8929333 45.0058,16.72376 C44.8268667,16.5545867 44.7374,16.34312 44.7374,16.08936 C44.7374,15.9592267 44.7699333,15.8356 44.835,15.71848 C44.9000667,15.60136 44.9927867,15.49888 45.11316,15.41104 C45.2335333,15.3232 45.3799333,15.2532533 45.55236,15.2012 C45.7247867,15.1491467 45.91836,15.12312 46.13308,15.12312 C46.3543067,15.12312 46.56252,15.1361333 46.75772,15.16216 C46.95292,15.1881867 47.1318533,15.22072 47.29452,15.25976 L47.29452,15.25976 L47.29452,16.30408 L48.01676,16.30408 L48.01676,14.74248 L48.02652,14.7132 L48.01676,14.7132 L48.01676,14.69368 L47.99724,14.70344 C47.8085467,14.6123467 47.5547867,14.5391467 47.23596,14.48384 C46.9171333,14.4285333 46.56252,14.40088 46.17212,14.40088 C45.8337733,14.40088 45.5263333,14.4415467 45.2498,14.52288 C44.9732667,14.6042133 44.7374,14.7197067 44.5422,14.86936 C44.347,15.0190133 44.19572,15.2012 44.08836,15.41592 C43.981,15.63064 43.92732,15.8713867 43.92732,16.13816 C43.92732,16.5155467 44.0167867,16.82624 44.19572,17.07024 C44.3746533,17.31424 44.5975067,17.5208267 44.86428,17.69 C45.1310533,17.8591733 45.4206,18.0055733 45.73292,18.1292 C46.04524,18.2528267 46.3347867,18.3797067 46.60156,18.50984 C46.8683333,18.6399733 47.0911867,18.7896267 47.27012,18.9588 C47.4490533,19.1279733 47.53852,19.3459467 47.53852,19.61272 C47.53852,19.80792 47.4978533,19.9770933 47.41652,20.12024 C47.3351867,20.2633867 47.2245733,20.3821333 47.08468,20.47648 C46.9447867,20.5708267 46.7804933,20.6391467 46.5918,20.68144 C46.4031067,20.7237333 46.2014,20.74488 45.98668,20.74488 C45.7394267,20.74488 45.4938,20.71072 45.2498,20.6424 C45.0058,20.57408 44.7862,20.4878667 44.591,20.38376 L44.591,20.38376 L44.591,19.3004 L43.86876,19.3004 L43.86876,20.88152 L43.859,20.9108 C43.9435867,20.9563467 44.05908,21.0116533 44.20548,21.07672 C44.35188,21.1417867 44.5178,21.2036 44.70324,21.26216 C44.88868,21.32072 45.0920133,21.36952 45.31324,21.40856 C45.5344667,21.4476 45.7687067,21.46712 46.01596,21.46712 Z M50.35916,21.35 L50.35916,16.80184 L50.24204,15.8844 L50.29084,15.8844 L50.7398,16.714 L51.78412,18.39272 L52.02812,18.39272 L53.02364,16.72376 L53.49212,15.8844 L53.54092,15.8844 L53.44332,16.8116 L53.44332,21.35 L54.2534,21.35 L54.2534,14.518 L53.5214,14.518 L51.9598,17.11416 L51.94028,17.11416 L50.32012,14.518 L49.5686,14.518 L49.5686,21.35 L50.35916,21.35 Z" id="HSM" fill="#25B8E4" fill-rule="nonzero"></path>
                    <path d="M21.96,11.59 L16.47,14.03 L16.47,17.69 C16.47,21.0755 18.8124,24.2414 21.96,25.01 C25.1076,24.2414 27.45,21.0755 27.45,17.69 L27.45,14.03 L21.96,11.59 M21.96,15.25 C22.814,15.25 23.668,15.921 23.668,16.775 L23.668,17.69 C24.034,17.69 24.4,18.056 24.4,18.483 L24.4,20.618 C24.4,20.984 24.034,21.35 23.607,21.35 L20.252,21.35 C19.886,21.35 19.52,20.984 19.52,20.557 L19.52,18.422 C19.52,18.056 19.886,17.69 20.252,17.69 L20.252,16.775 C20.252,15.921 21.106,15.25 21.96,15.25 M21.96,15.982 C21.472,15.982 21.045,16.287 21.045,16.775 L21.045,17.69 L22.875,17.69 L22.875,16.775 C22.875,16.287 22.448,15.982 21.96,15.982 Z" id="Shape" fill="#00A8CC" fill-rule="nonzero"></path>
                </g>
                <g id="Group-26" transform="translate(19.520000, 12.200000)" fill-rule="nonzero">
                    <path d="M27.56224,8.65712 C28.4081067,8.65712 29.03112,8.35130667 29.43128,7.73968 C29.83144,7.12805333 30.03152,6.25616 30.03152,5.124 C30.03152,4.59045333 29.9892267,4.10733333 29.90464,3.67464 C29.8200533,3.24194667 29.68016,2.87106667 29.48496,2.562 C29.28976,2.25293333 29.0343733,2.01381333 28.7188,1.84464 C28.4032267,1.67546667 28.0177067,1.59088 27.56224,1.59088 C26.7293867,1.59088 26.11288,1.89669333 25.71272,2.50832 C25.31256,3.11994667 25.11248,3.99184 25.11248,5.124 C25.11248,5.65754667 25.1547733,6.14066667 25.23936,6.57336 C25.3239467,7.00605333 25.46384,7.37693333 25.65904,7.686 C25.85424,7.99506667 26.108,8.23418667 26.42032,8.40336 C26.73264,8.57253333 27.11328,8.65712 27.56224,8.65712 Z M27.56224,7.93488 C27.24992,7.93488 26.9929067,7.85842667 26.7912,7.70552 C26.5894933,7.55261333 26.4268267,7.34765333 26.3032,7.09064 C26.1795733,6.83362667 26.09336,6.53594667 26.04456,6.1976 C25.99576,5.85925333 25.97136,5.50138667 25.97136,5.124 C25.97136,4.16752 26.09824,3.45992 26.352,3.0012 C26.60576,2.54248 27.0091733,2.31312 27.56224,2.31312 C27.87456,2.31312 28.1348267,2.38957333 28.34304,2.54248 C28.5512533,2.69538667 28.7171733,2.90034667 28.8408,3.15736 C28.9644267,3.41437333 29.05064,3.71368 29.09944,4.05528 C29.14824,4.39688 29.17264,4.75312 29.17264,5.124 C29.17264,6.08698667 29.0441333,6.79621333 28.78712,7.25168 C28.5301067,7.70714667 28.1218133,7.93488 27.56224,7.93488 Z M33.66224,8.65712 C33.916,8.65712 34.1518667,8.63434667 34.36984,8.5888 C34.5878133,8.54325333 34.7862667,8.48306667 34.9652,8.40824 C35.1441333,8.33341333 35.30192,8.25370667 35.43856,8.16912 C35.5752,8.08453333 35.6890667,8.0032 35.78016,7.92512 L35.78016,7.92512 L35.43856,7.35904 C35.24336,7.52821333 35.0009867,7.66485333 34.71144,7.76896 C34.4218933,7.87306667 34.1242133,7.92512 33.8184,7.92512 C33.5321067,7.92512 33.2702133,7.88282667 33.03272,7.79824 C32.7952267,7.71365333 32.5918933,7.59328 32.42272,7.43712 C32.2535467,7.28096 32.1234133,7.09064 32.03232,6.86616 C31.9412267,6.64168 31.89568,6.38629333 31.89568,6.1 C31.89568,5.44933333 32.05184,4.97434667 32.36416,4.67504 C32.67648,4.37573333 33.1514667,4.22608 33.78912,4.22608 C33.9582933,4.22608 34.1290933,4.24397333 34.30152,4.27976 C34.4739467,4.31554667 34.6349867,4.35946667 34.78464,4.41152 L34.78464,4.41152 L34.78464,5.33872 L35.48736,5.33872 L35.48736,3.98208 L35.49712,3.9528 C35.2889067,3.84869333 35.03352,3.75434667 34.73096,3.66976 C34.4284,3.58517333 34.0363733,3.54288 33.55488,3.54288 C33.1774933,3.54288 32.8358933,3.59981333 32.53008,3.71368 C32.2242667,3.82754667 31.964,3.99184 31.74928,4.20656 C31.53456,4.42128 31.3702667,4.68805333 31.2564,5.00688 C31.1425333,5.32570667 31.0856,5.69008 31.0856,6.1 C31.0856,6.48389333 31.1409067,6.83362667 31.25152,7.1492 C31.3621333,7.46477333 31.5248,7.7348 31.73952,7.95928 C31.95424,8.18376 32.22264,8.35618667 32.54472,8.47656 C32.8668,8.59693333 33.2393067,8.65712 33.66224,8.65712 Z M38.17136,8.54 L38.17136,6.33424 L38.70816,6.33424 L40.7968,8.54 L41.80208,8.54 L41.80208,7.88608 L41.16768,7.88608 L39.39136,5.97312 L41.54832,3.66 L40.63088,3.66 L38.70816,5.74864 L38.17136,5.74864 L38.17136,1.708 L36.59024,1.708 L36.59024,2.36192 L37.41984,2.36192 L37.41984,8.54 L38.17136,8.54 Z M44.5056,8.62784 C44.7528533,8.62784 44.9675733,8.59530667 45.14976,8.53024 C45.3319467,8.46517333 45.48648,8.38872 45.61336,8.30088 C45.74024,8.21304 45.84272,8.12357333 45.9208,8.03248 C45.99888,7.94138667 46.05744,7.86656 46.09648,7.808 L46.09648,7.808 L46.14528,7.808 L46.23312,8.54 L47.5312,8.54 L47.5312,7.9056 L46.87728,7.9056 C46.83824,7.6128 46.81872,7.30373333 46.81872,6.9784 C46.8252267,6.69861333 46.8349867,6.41882667 46.848,6.13904 C46.8610133,5.85925333 46.86752,5.59573333 46.86752,5.34848 C46.86752,5.13376 46.8463733,4.92066667 46.80408,4.7092 C46.7617867,4.49773333 46.6804533,4.30904 46.56008,4.14312 C46.4397067,3.9772 46.2737867,3.84218667 46.06232,3.73808 C45.8508533,3.63397333 45.5792,3.58192 45.24736,3.58192 C44.9090133,3.58192 44.56416,3.61770667 44.2128,3.68928 C43.86144,3.76085333 43.5458667,3.87797333 43.26608,4.04064 L43.26608,4.04064 L43.51008,4.60672 C43.7182933,4.52213333 43.9557867,4.43917333 44.22256,4.35784 C44.4893333,4.27650667 44.76912,4.23584 45.06192,4.23584 C45.27664,4.23584 45.4572,4.26024 45.6036,4.30904 C45.75,4.35784 45.8638667,4.4408 45.9452,4.55792 C46.0265333,4.67504 46.0785867,4.83282667 46.10136,5.03128 C46.1241333,5.22973333 46.1192533,5.47861333 46.08672,5.77792 C45.6052267,5.70634667 45.1709067,5.68032 44.78376,5.69984 C44.3966133,5.71936 44.0664,5.78768 43.79312,5.9048 C43.51984,6.02192 43.31,6.19109333 43.1636,6.41232 C43.0172,6.63354667 42.944,6.91008 42.944,7.24192 C42.944,7.67136 43.0838933,8.00970667 43.36368,8.25696 C43.6434667,8.50421333 44.0241067,8.62784 44.5056,8.62784 Z M44.7008,7.97392 C44.3559467,7.97392 44.11032,7.89421333 43.96392,7.7348 C43.81752,7.57538667 43.74432,7.38832 43.74432,7.1736 C43.74432,6.96538667 43.80288,6.79621333 43.92,6.66608 C44.03712,6.53594667 44.1997867,6.43997333 44.408,6.37816 C44.6162133,6.31634667 44.8634667,6.28544 45.14976,6.28544 C45.4360533,6.28544 45.7483733,6.31472 46.08672,6.37328 L46.08672,6.37328 L46.08672,7.05648 C46.04768,7.15408 45.98912,7.25656 45.91104,7.36392 C45.83296,7.47128 45.73536,7.57050667 45.61824,7.6616 C45.50112,7.75269333 45.36448,7.82752 45.20832,7.88608 C45.05216,7.94464 44.8829867,7.97392 44.7008,7.97392 Z M49.20992,8.54 L49.20992,5.18256 C49.288,4.90928 49.4034933,4.68154667 49.5564,4.49936 C49.7093067,4.31717333 49.8963733,4.22608 50.1176,4.22608 C50.2282133,4.22608 50.31768,4.25536 50.386,4.31392 C50.45432,4.37248 50.5063733,4.45218667 50.54216,4.55304 C50.5779467,4.65389333 50.60072,4.76776 50.61048,4.89464 C50.62024,5.02152 50.62512,5.15328 50.62512,5.28992 L50.62512,5.28992 L50.62512,8.54 L51.36688,8.54 L51.36688,5.28016 C51.44496,4.94181333 51.56208,4.68154667 51.71824,4.49936 C51.8744,4.31717333 52.0663467,4.22608 52.29408,4.22608 C52.3981867,4.22608 52.4811467,4.25210667 52.54296,4.30416 C52.6047733,4.35621333 52.6535733,4.42778667 52.68936,4.51888 C52.7251467,4.60997333 52.7495467,4.71570667 52.76256,4.83608 C52.7755733,4.95645333 52.78208,5.08496 52.78208,5.2216 L52.78208,5.2216 L52.78208,8.54 L53.52384,8.54 L53.52384,5.05568 C53.52384,4.82794667 53.5092,4.62136 53.47992,4.43592 C53.45064,4.25048 53.3985867,4.09106667 53.32376,3.95768 C53.2489333,3.82429333 53.1448267,3.72181333 53.01144,3.65024 C52.8780533,3.57866667 52.704,3.54288 52.48928,3.54288 C52.1639467,3.54288 51.90856,3.61445333 51.72312,3.7576 C51.53768,3.90074667 51.3701333,4.0992 51.22048,4.35296 C51.20096,4.20330667 51.1586667,4.07642667 51.0936,3.97232 C51.0285333,3.86821333 50.95208,3.78525333 50.86424,3.72344 C50.7764,3.66162667 50.6804267,3.61608 50.57632,3.5868 C50.4722133,3.55752 50.37136,3.54288 50.27376,3.54288 C50.1045867,3.54288 49.9646933,3.56077333 49.85408,3.59656 C49.7434667,3.63234667 49.6474933,3.68277333 49.56616,3.74784 C49.4848267,3.81290667 49.4132533,3.88936 49.35144,3.9772 C49.2896267,4.06504 49.2261867,4.15776 49.16112,4.25536 L49.16112,4.25536 L49.12208,4.25536 L48.97568,3.66 L48.46816,3.66 L48.46816,8.54 L49.20992,8.54 Z M61.56608,8.54 L61.56608,5.53392 L62.78608,5.53392 L64.39648,8.54 L65.3432,8.54 L63.5376,5.29968 C63.6352,5.26064 63.75232,5.19557333 63.88896,5.10448 C64.0256,5.01338667 64.15736,4.89464 64.28424,4.74824 C64.41112,4.60184 64.51848,4.42616 64.60632,4.2212 C64.69416,4.01624 64.73808,3.78037333 64.73808,3.5136 C64.73808,3.16874667 64.6762667,2.87594667 64.55264,2.6352 C64.4290133,2.39445333 64.26472,2.19925333 64.05976,2.0496 C63.8548,1.89994667 63.6173067,1.79258667 63.34728,1.72752 C63.0772533,1.66245333 62.7925867,1.62992 62.49328,1.62992 C62.2265067,1.62992 61.93208,1.64293333 61.61,1.66896 C61.28792,1.69498667 61.0032533,1.73077333 60.756,1.77632 L60.756,1.77632 L60.756,8.54 L61.56608,8.54 Z M62.32736,4.90928 L61.56608,4.90928 L61.56608,2.3912 C61.6116267,2.37818667 61.6718133,2.36842667 61.74664,2.36192 C61.8214667,2.35541333 61.9011733,2.34890667 61.98576,2.3424 C62.0703467,2.33589333 62.1581867,2.33264 62.24928,2.33264 L62.24928,2.33264 L62.5128,2.33264 C62.94224,2.33264 63.2773333,2.44650667 63.51808,2.67424 C63.7588267,2.90197333 63.8792,3.19152 63.8792,3.54288 C63.8792,4.01136 63.7328,4.35621333 63.44,4.57744 C63.1472,4.79866667 62.77632,4.90928 62.32736,4.90928 L62.32736,4.90928 Z M68.65184,8.65712 C68.8600533,8.65712 69.06664,8.63922667 69.2716,8.60344 C69.47656,8.56765333 69.6733867,8.51722667 69.86208,8.45216 C70.0507733,8.38709333 70.2248267,8.30901333 70.38424,8.21792 C70.5436533,8.12682667 70.68192,8.02922667 70.79904,7.92512 L70.79904,7.92512 L70.49648,7.3688 C70.4314133,7.42736 70.3386933,7.49242667 70.21832,7.564 C70.0979467,7.63557333 69.95968,7.70064 69.80352,7.7592 C69.64736,7.81776 69.4830667,7.86818667 69.31064,7.91048 C69.1382133,7.95277333 68.96416,7.97392 68.78848,7.97392 C68.26144,7.97392 67.8401333,7.82914667 67.52456,7.5396 C67.2089867,7.25005333 67.0512,6.81248 67.0512,6.22688 L67.0512,6.22688 L70.82832,6.22688 C70.8608533,5.67381333 70.8218133,5.22322667 70.7112,4.87512 C70.6005867,4.52701333 70.4428,4.25373333 70.23784,4.05528 C70.03288,3.85682667 69.7970133,3.72181333 69.53024,3.65024 C69.2634667,3.57866667 68.99344,3.54288 68.72016,3.54288 C68.3427733,3.54288 68.0011733,3.59981333 67.69536,3.71368 C67.3895467,3.82754667 67.12928,3.99184 66.91456,4.20656 C66.69984,4.42128 66.5355467,4.68805333 66.42168,5.00688 C66.3078133,5.32570667 66.25088,5.69008 66.25088,6.1 C66.25088,6.4904 66.3029333,6.84176 66.40704,7.15408 C66.5111467,7.4664 66.6640533,7.7348 66.86576,7.95928 C67.0674667,8.18376 67.3179733,8.35618667 67.61728,8.47656 C67.9165867,8.59693333 68.26144,8.65712 68.65184,8.65712 Z M70.11584,5.54368 L67.08048,5.54368 C67.1065067,5.28992 67.1666933,5.07682667 67.26104,4.9044 C67.3553867,4.73197333 67.47576,4.59208 67.62216,4.48472 C67.76856,4.37736 67.9377333,4.30090667 68.12968,4.25536 C68.3216267,4.20981333 68.52496,4.18704 68.73968,4.18704 C69.1365867,4.18704 69.45704,4.30578667 69.70104,4.54328 C69.94504,4.78077333 70.0833067,5.11424 70.11584,5.54368 L70.11584,5.54368 Z M74.34192,10.60912 C74.6607467,10.60912 74.9568,10.5717067 75.23008,10.49688 C75.50336,10.4220533 75.74248,10.3098133 75.94744,10.16016 C76.1524,10.0105067 76.31344,9.82018667 76.43056,9.5892 C76.54768,9.35821333 76.60624,9.08981333 76.60624,8.784 L76.60624,8.784 L76.60624,3.87472 C76.372,3.79013333 76.11336,3.72018667 75.83032,3.66488 C75.54728,3.60957333 75.2040533,3.58192 74.80064,3.58192 C73.9287467,3.58192 73.2715733,3.79501333 72.82912,4.2212 C72.3866667,4.64738667 72.16544,5.27690667 72.16544,6.10976 C72.16544,6.98165333 72.3394933,7.62418667 72.6876,8.03736 C73.0357067,8.45053333 73.58064,8.65712 74.3224,8.65712 C74.69328,8.65712 74.99584,8.59856 75.23008,8.48144 C75.46432,8.36432 75.6562667,8.1984 75.80592,7.98368 L75.80592,7.98368 L75.84496,7.98368 L75.84496,8.53024 C75.84496,8.784 75.8189333,8.99872 75.76688,9.1744 C75.7148267,9.35008 75.63024,9.49322667 75.51312,9.60384 C75.396,9.71445333 75.2414667,9.79578667 75.04952,9.84784 C74.8575733,9.89989333 74.6184533,9.92592 74.33216,9.92592 C74.19552,9.92592 74.0572533,9.91290667 73.91736,9.88688 C73.7774667,9.86085333 73.6457067,9.82669333 73.52208,9.7844 C73.3984533,9.74210667 73.2894667,9.69656 73.19512,9.64776 C73.1007733,9.59896 73.02432,9.54853333 72.96576,9.49648 L72.96576,9.49648 L72.59488,10.18944 C72.8030933,10.3130667 73.0503467,10.41392 73.33664,10.492 C73.6229333,10.57008 73.9580267,10.60912 74.34192,10.60912 Z M74.42976,8.0032 C74.15648,8.0032 73.92712,7.95602667 73.74168,7.86168 C73.55624,7.76733333 73.4065867,7.63557333 73.29272,7.4664 C73.1788533,7.29722667 73.0958933,7.09714667 73.04384,6.86616 C72.9917867,6.63517333 72.96576,6.37978667 72.96576,6.1 C72.96576,5.46885333 73.1154133,5.00037333 73.41472,4.69456 C73.7140267,4.38874667 74.1239467,4.23584 74.64448,4.23584 C75.1585067,4.23584 75.5586667,4.30416 75.84496,4.4408 L75.84496,4.4408 L75.84496,6.75392 C75.7538667,7.17685333 75.5944533,7.4908 75.36672,7.69576 C75.1389867,7.90072 74.8266667,8.0032 74.42976,8.0032 Z M80.43216,2.8792 C80.6208533,2.8792 80.77864,2.82064 80.90552,2.70352 C81.0324,2.5864 81.09584,2.44325333 81.09584,2.27408 C81.09584,2.0984 81.0324,1.94712 80.90552,1.82024 C80.77864,1.69336 80.6208533,1.62992 80.43216,1.62992 C80.2499733,1.62992 80.10032,1.69336 79.9832,1.82024 C79.86608,1.94712 79.80752,2.0984 79.80752,2.27408 C79.80752,2.44325333 79.86608,2.5864 79.9832,2.70352 C80.10032,2.82064 80.2499733,2.8792 80.43216,2.8792 Z M82.51104,8.54 L82.51104,7.88608 L80.85184,7.88608 L80.85184,3.66 L78.3728,3.66 L78.3728,4.31392 L80.07104,4.31392 L80.07104,7.88608 L78.3728,7.88608 L78.3728,8.54 L82.51104,8.54 Z M86.11248,8.65712 C86.8217067,8.65712 87.3536267,8.51072 87.70824,8.21792 C88.0628533,7.92512 88.24016,7.55424 88.24016,7.10528 C88.24016,6.80597333 88.1588267,6.56848 87.99616,6.3928 C87.8334933,6.21712 87.6317867,6.07722667 87.39104,5.97312 C87.1502933,5.86901333 86.8884,5.78930667 86.60536,5.734 C86.32232,5.67869333 86.0604267,5.62013333 85.81968,5.55832 C85.5789333,5.49650667 85.3772267,5.42005333 85.21456,5.32896 C85.0518933,5.23786667 84.97056,5.10773333 84.97056,4.93856 C84.97056,4.80192 85.00472,4.68642667 85.07304,4.59208 C85.14136,4.49773333 85.2324533,4.42128 85.34632,4.36272 C85.4601867,4.30416 85.5870667,4.26024 85.72696,4.23096 C85.8668533,4.20168 86.0083733,4.18704 86.15152,4.18704 C86.5289067,4.18704 86.8428533,4.24072 87.09336,4.34808 C87.3438667,4.45544 87.57648,4.56768 87.7912,4.6848 L87.7912,4.6848 L88.10352,4.06992 C87.90832,3.94629333 87.6464267,3.82754667 87.31784,3.71368 C86.9892533,3.59981333 86.5972267,3.54288 86.14176,3.54288 C85.888,3.54288 85.644,3.57053333 85.40976,3.62584 C85.17552,3.68114667 84.97056,3.76573333 84.79488,3.8796 C84.6192,3.99346667 84.47768,4.13824 84.37032,4.31392 C84.26296,4.4896 84.20928,4.70106667 84.20928,4.94832 C84.20928,5.24762667 84.2906133,5.48024 84.45328,5.64616 C84.6159467,5.81208 84.8176533,5.94384 85.0584,6.04144 C85.2991467,6.13904 85.56104,6.21712 85.84408,6.27568 C86.12712,6.33424 86.3890133,6.39768 86.62976,6.466 C86.8705067,6.53432 87.0722133,6.62541333 87.23488,6.73928 C87.3975467,6.85314667 87.47888,7.01418667 87.47888,7.2224 C87.47888,7.36554667 87.44472,7.48754667 87.3764,7.5884 C87.30808,7.68925333 87.21536,7.77058667 87.09824,7.8324 C86.98112,7.89421333 86.8461067,7.93976 86.6932,7.96904 C86.5402933,7.99832 86.376,8.01296 86.20032,8.01296 C86.0181333,8.01296 85.8375733,7.99344 85.65864,7.9544 C85.4797067,7.91536 85.31216,7.86330667 85.156,7.79824 C84.99984,7.73317333 84.8566933,7.65997333 84.72656,7.57864 C84.5964267,7.49730667 84.49232,7.4176 84.41424,7.33952 L84.41424,7.33952 L84.02384,7.97392 C84.12144,8.05850667 84.2450667,8.14146667 84.39472,8.2228 C84.5443733,8.30413333 84.7102933,8.37733333 84.89248,8.4424 C85.0746667,8.50746667 85.2698667,8.55952 85.47808,8.59856 C85.6862933,8.6376 85.89776,8.65712 86.11248,8.65712 Z M92.44672,8.66688 C92.77856,8.66688 93.1022667,8.61157333 93.41784,8.50096 C93.7334133,8.39034667 94.0050667,8.24394667 94.2328,8.06176 L94.2328,8.06176 L93.97904,7.48592 C93.80336,7.61605333 93.6065333,7.73642667 93.38856,7.84704 C93.1705867,7.95765333 92.9152,8.01296 92.6224,8.01296 C92.19296,8.01296 91.8627467,7.89909333 91.63176,7.67136 C91.4007733,7.44362667 91.28528,7.09226667 91.28528,6.61728 L91.28528,6.61728 L91.28528,4.31392 L93.8912,4.31392 L93.8912,3.66 L91.28528,3.66 L91.28528,2.47904 L90.524,2.69376 L90.524,3.66 L89.36256,3.66 L89.36256,4.31392 L90.524,4.31392 L90.524,6.7344 C90.524,7.07274667 90.5760533,7.36392 90.68016,7.60792 C90.7842667,7.85192 90.92416,8.052 91.09984,8.20816 C91.27552,8.36432 91.4788533,8.47981333 91.70984,8.55464 C91.9408267,8.62946667 92.1864533,8.66688 92.44672,8.66688 Z M99.5032,8.54 L99.5032,7.88608 L97.62928,7.88608 L97.62928,5.00688 C97.66832,4.94832 97.7301333,4.87674667 97.81472,4.79216 C97.8993067,4.70757333 98.0017867,4.62298667 98.12216,4.5384 C98.2425333,4.45381333 98.3840533,4.38224 98.54672,4.32368 C98.7093867,4.26512 98.8915733,4.23584 99.09328,4.23584 C99.308,4.23584 99.4560267,4.33344 99.53736,4.52864 C99.6186933,4.72384 99.65936,5.02965333 99.65936,5.44608 L99.65936,5.44608 L100.34256,5.43632 C100.34256,5.14352 100.329547,4.88162667 100.30352,4.65064 C100.277493,4.41965333 100.227067,4.22282667 100.15224,4.06016 C100.077413,3.89749333 99.9733067,3.77386667 99.83992,3.68928 C99.7065333,3.60469333 99.5292267,3.5624 99.308,3.5624 C98.9306133,3.5624 98.60528,3.63397333 98.332,3.77712 C98.05872,3.92026667 97.8114667,4.09269333 97.59024,4.2944 L97.59024,4.2944 L97.54144,4.2944 L97.38528,3.66 L95.56016,3.66 L95.56016,4.31392 L96.87776,4.31392 L96.87776,7.88608 L95.56016,7.88608 L95.56016,8.54 L99.5032,8.54 Z M102.81184,10.5408 C103.189227,10.5408 103.49504,10.45296 103.72928,10.27728 C103.96352,10.1016 104.14896,9.88688 104.2856,9.63312 C104.42224,9.37936 104.527973,9.10770667 104.6028,8.81816 C104.677627,8.52861333 104.750827,8.26997333 104.8224,8.04224 L104.8224,8.04224 L106.17904,3.66 L105.38848,3.66 L104.17824,7.78848 L103.80736,7.78848 L102.09936,3.66 L101.22096,3.66 L103.27056,8.54 L103.92448,8.54 C103.7488,9.36634667 103.41696,9.77952 102.92896,9.77952 C102.876907,9.77952 102.81184,9.77138667 102.73376,9.75512 C102.65568,9.73885333 102.575973,9.71933333 102.49464,9.69656 C102.413307,9.67378667 102.33848,9.64613333 102.27016,9.6136 C102.20184,9.58106667 102.14816,9.54853333 102.10912,9.516 L102.10912,9.516 L101.83584,10.21872 C101.87488,10.25776 101.93344,10.2968 102.01152,10.33584 C102.0896,10.37488 102.174187,10.40904 102.26528,10.43832 C102.356373,10.4676 102.449093,10.492 102.54344,10.51152 C102.637787,10.53104 102.727253,10.5408 102.81184,10.5408 Z M115.37296,8.65712 C115.737333,8.65712 116.064293,8.61157333 116.35384,8.52048 C116.643387,8.42938667 116.887387,8.29925333 117.08584,8.13008 C117.284293,7.96090667 117.4372,7.7592 117.54456,7.52496 C117.65192,7.29072 117.7056,7.0272 117.7056,6.7344 C117.7056,6.37653333 117.616133,6.07722667 117.4372,5.83648 C117.258267,5.59573333 117.035413,5.38914667 116.76864,5.21672 C116.501867,5.04429333 116.21232,4.89301333 115.9,4.76288 C115.58768,4.63274667 115.298133,4.50098667 115.03136,4.3676 C114.764587,4.23421333 114.541733,4.08293333 114.3628,3.91376 C114.183867,3.74458667 114.0944,3.53312 114.0944,3.27936 C114.0944,3.14922667 114.126933,3.0256 114.192,2.90848 C114.257067,2.79136 114.349787,2.68888 114.47016,2.60104 C114.590533,2.5132 114.736933,2.44325333 114.90936,2.3912 C115.081787,2.33914667 115.27536,2.31312 115.49008,2.31312 C115.711307,2.31312 115.91952,2.32613333 116.11472,2.35216 C116.30992,2.37818667 116.488853,2.41072 116.65152,2.44976 L116.65152,2.44976 L116.65152,3.49408 L117.37376,3.49408 L117.37376,1.93248 L117.38352,1.9032 L117.37376,1.9032 L117.37376,1.88368 L117.35424,1.89344 C117.165547,1.80234667 116.911787,1.72914667 116.59296,1.67384 C116.274133,1.61853333 115.91952,1.59088 115.52912,1.59088 C115.190773,1.59088 114.883333,1.63154667 114.6068,1.71288 C114.330267,1.79421333 114.0944,1.90970667 113.8992,2.05936 C113.704,2.20901333 113.55272,2.3912 113.44536,2.60592 C113.338,2.82064 113.28432,3.06138667 113.28432,3.32816 C113.28432,3.70554667 113.373787,4.01624 113.55272,4.26024 C113.731653,4.50424 113.954507,4.71082667 114.22128,4.88 C114.488053,5.04917333 114.7776,5.19557333 115.08992,5.3192 C115.40224,5.44282667 115.691787,5.56970667 115.95856,5.69984 C116.225333,5.82997333 116.448187,5.97962667 116.62712,6.1488 C116.806053,6.31797333 116.89552,6.53594667 116.89552,6.80272 C116.89552,6.99792 116.854853,7.16709333 116.77352,7.31024 C116.692187,7.45338667 116.581573,7.57213333 116.44168,7.66648 C116.301787,7.76082667 116.137493,7.82914667 115.9488,7.87144 C115.760107,7.91373333 115.5584,7.93488 115.34368,7.93488 C115.096427,7.93488 114.8508,7.90072 114.6068,7.8324 C114.3628,7.76408 114.1432,7.67786667 113.948,7.57376 L113.948,7.57376 L113.948,6.4904 L113.22576,6.4904 L113.22576,8.07152 L113.216,8.1008 C113.300587,8.14634667 113.41608,8.20165333 113.56248,8.26672 C113.70888,8.33178667 113.8748,8.3936 114.06024,8.45216 C114.24568,8.51072 114.449013,8.55952 114.67024,8.59856 C114.891467,8.6376 115.125707,8.65712 115.37296,8.65712 Z M121.35584,8.65712 C121.564053,8.65712 121.77064,8.63922667 121.9756,8.60344 C122.18056,8.56765333 122.377387,8.51722667 122.56608,8.45216 C122.754773,8.38709333 122.928827,8.30901333 123.08824,8.21792 C123.247653,8.12682667 123.38592,8.02922667 123.50304,7.92512 L123.50304,7.92512 L123.20048,7.3688 C123.135413,7.42736 123.042693,7.49242667 122.92232,7.564 C122.801947,7.63557333 122.66368,7.70064 122.50752,7.7592 C122.35136,7.81776 122.187067,7.86818667 122.01464,7.91048 C121.842213,7.95277333 121.66816,7.97392 121.49248,7.97392 C120.96544,7.97392 120.544133,7.82914667 120.22856,7.5396 C119.912987,7.25005333 119.7552,6.81248 119.7552,6.22688 L119.7552,6.22688 L123.53232,6.22688 C123.564853,5.67381333 123.525813,5.22322667 123.4152,4.87512 C123.304587,4.52701333 123.1468,4.25373333 122.94184,4.05528 C122.73688,3.85682667 122.501013,3.72181333 122.23424,3.65024 C121.967467,3.57866667 121.69744,3.54288 121.42416,3.54288 C121.046773,3.54288 120.705173,3.59981333 120.39936,3.71368 C120.093547,3.82754667 119.83328,3.99184 119.61856,4.20656 C119.40384,4.42128 119.239547,4.68805333 119.12568,5.00688 C119.011813,5.32570667 118.95488,5.69008 118.95488,6.1 C118.95488,6.4904 119.006933,6.84176 119.11104,7.15408 C119.215147,7.4664 119.368053,7.7348 119.56976,7.95928 C119.771467,8.18376 120.021973,8.35618667 120.32128,8.47656 C120.620587,8.59693333 120.96544,8.65712 121.35584,8.65712 Z M122.81984,5.54368 L119.78448,5.54368 C119.810507,5.28992 119.870693,5.07682667 119.96504,4.9044 C120.059387,4.73197333 120.17976,4.59208 120.32616,4.48472 C120.47256,4.37736 120.641733,4.30090667 120.83368,4.25536 C121.025627,4.20981333 121.22896,4.18704 121.44368,4.18704 C121.840587,4.18704 122.16104,4.30578667 122.40504,4.54328 C122.64904,4.78077333 122.787307,5.11424 122.81984,5.54368 L122.81984,5.54368 Z M128.7832,8.54 L128.7832,7.88608 L126.90928,7.88608 L126.90928,5.00688 C126.94832,4.94832 127.010133,4.87674667 127.09472,4.79216 C127.179307,4.70757333 127.281787,4.62298667 127.40216,4.5384 C127.522533,4.45381333 127.664053,4.38224 127.82672,4.32368 C127.989387,4.26512 128.171573,4.23584 128.37328,4.23584 C128.588,4.23584 128.736027,4.33344 128.81736,4.52864 C128.898693,4.72384 128.93936,5.02965333 128.93936,5.44608 L128.93936,5.44608 L129.62256,5.43632 C129.62256,5.14352 129.609547,4.88162667 129.58352,4.65064 C129.557493,4.41965333 129.507067,4.22282667 129.43224,4.06016 C129.357413,3.89749333 129.253307,3.77386667 129.11992,3.68928 C128.986533,3.60469333 128.809227,3.5624 128.588,3.5624 C128.210613,3.5624 127.88528,3.63397333 127.612,3.77712 C127.33872,3.92026667 127.091467,4.09269333 126.87024,4.2944 L126.87024,4.2944 L126.82144,4.2944 L126.66528,3.66 L124.84016,3.66 L124.84016,4.31392 L126.15776,4.31392 L126.15776,7.88608 L124.84016,7.88608 L124.84016,8.54 L128.7832,8.54 Z M133.42896,8.54 L135.48832,3.66 L134.6392,3.66 L133.10688,7.59328 L132.99952,7.59328 L131.3696,3.66 L130.47168,3.66 L132.57008,8.54 L133.42896,8.54 Z M138.99216,2.8792 C139.180853,2.8792 139.33864,2.82064 139.46552,2.70352 C139.5924,2.5864 139.65584,2.44325333 139.65584,2.27408 C139.65584,2.0984 139.5924,1.94712 139.46552,1.82024 C139.33864,1.69336 139.180853,1.62992 138.99216,1.62992 C138.809973,1.62992 138.66032,1.69336 138.5432,1.82024 C138.42608,1.94712 138.36752,2.0984 138.36752,2.27408 C138.36752,2.44325333 138.42608,2.5864 138.5432,2.70352 C138.66032,2.82064 138.809973,2.8792 138.99216,2.8792 Z M141.07104,8.54 L141.07104,7.88608 L139.41184,7.88608 L139.41184,3.66 L136.9328,3.66 L136.9328,4.31392 L138.63104,4.31392 L138.63104,7.88608 L136.9328,7.88608 L136.9328,8.54 L141.07104,8.54 Z M144.92624,8.65712 C145.18,8.65712 145.415867,8.63434667 145.63384,8.5888 C145.851813,8.54325333 146.050267,8.48306667 146.2292,8.40824 C146.408133,8.33341333 146.56592,8.25370667 146.70256,8.16912 C146.8392,8.08453333 146.953067,8.0032 147.04416,7.92512 L147.04416,7.92512 L146.70256,7.35904 C146.50736,7.52821333 146.264987,7.66485333 145.97544,7.76896 C145.685893,7.87306667 145.388213,7.92512 145.0824,7.92512 C144.796107,7.92512 144.534213,7.88282667 144.29672,7.79824 C144.059227,7.71365333 143.855893,7.59328 143.68672,7.43712 C143.517547,7.28096 143.387413,7.09064 143.29632,6.86616 C143.205227,6.64168 143.15968,6.38629333 143.15968,6.1 C143.15968,5.44933333 143.31584,4.97434667 143.62816,4.67504 C143.94048,4.37573333 144.415467,4.22608 145.05312,4.22608 C145.222293,4.22608 145.393093,4.24397333 145.56552,4.27976 C145.737947,4.31554667 145.898987,4.35946667 146.04864,4.41152 L146.04864,4.41152 L146.04864,5.33872 L146.75136,5.33872 L146.75136,3.98208 L146.76112,3.9528 C146.552907,3.84869333 146.29752,3.75434667 145.99496,3.66976 C145.6924,3.58517333 145.300373,3.54288 144.81888,3.54288 C144.441493,3.54288 144.099893,3.59981333 143.79408,3.71368 C143.488267,3.82754667 143.228,3.99184 143.01328,4.20656 C142.79856,4.42128 142.634267,4.68805333 142.5204,5.00688 C142.406533,5.32570667 142.3496,5.69008 142.3496,6.1 C142.3496,6.48389333 142.404907,6.83362667 142.51552,7.1492 C142.626133,7.46477333 142.7888,7.7348 143.00352,7.95928 C143.21824,8.18376 143.48664,8.35618667 143.80872,8.47656 C144.1308,8.59693333 144.503307,8.65712 144.92624,8.65712 Z M150.63584,8.65712 C150.844053,8.65712 151.05064,8.63922667 151.2556,8.60344 C151.46056,8.56765333 151.657387,8.51722667 151.84608,8.45216 C152.034773,8.38709333 152.208827,8.30901333 152.36824,8.21792 C152.527653,8.12682667 152.66592,8.02922667 152.78304,7.92512 L152.78304,7.92512 L152.48048,7.3688 C152.415413,7.42736 152.322693,7.49242667 152.20232,7.564 C152.081947,7.63557333 151.94368,7.70064 151.78752,7.7592 C151.63136,7.81776 151.467067,7.86818667 151.29464,7.91048 C151.122213,7.95277333 150.94816,7.97392 150.77248,7.97392 C150.24544,7.97392 149.824133,7.82914667 149.50856,7.5396 C149.192987,7.25005333 149.0352,6.81248 149.0352,6.22688 L149.0352,6.22688 L152.81232,6.22688 C152.844853,5.67381333 152.805813,5.22322667 152.6952,4.87512 C152.584587,4.52701333 152.4268,4.25373333 152.22184,4.05528 C152.01688,3.85682667 151.781013,3.72181333 151.51424,3.65024 C151.247467,3.57866667 150.97744,3.54288 150.70416,3.54288 C150.326773,3.54288 149.985173,3.59981333 149.67936,3.71368 C149.373547,3.82754667 149.11328,3.99184 148.89856,4.20656 C148.68384,4.42128 148.519547,4.68805333 148.40568,5.00688 C148.291813,5.32570667 148.23488,5.69008 148.23488,6.1 C148.23488,6.4904 148.286933,6.84176 148.39104,7.15408 C148.495147,7.4664 148.648053,7.7348 148.84976,7.95928 C149.051467,8.18376 149.301973,8.35618667 149.60128,8.47656 C149.900587,8.59693333 150.24544,8.65712 150.63584,8.65712 Z M152.09984,5.54368 L149.06448,5.54368 C149.090507,5.28992 149.150693,5.07682667 149.24504,4.9044 C149.339387,4.73197333 149.45976,4.59208 149.60616,4.48472 C149.75256,4.37736 149.921733,4.30090667 150.11368,4.25536 C150.305627,4.20981333 150.50896,4.18704 150.72368,4.18704 C151.120587,4.18704 151.44104,4.30578667 151.68504,4.54328 C151.92904,4.78077333 152.067307,5.11424 152.09984,5.54368 L152.09984,5.54368 Z" id="OckamRegistryService" fill="#25B8E4"></path>
                    <path d="M11.8035,3.6783 C11.3887,1.5799 9.5404,0 7.32,0 C5.5571,0 4.026,1.0004 3.2635,2.4583 C1.4274,2.6596 -1.08357767e-15,4.209 -1.08357767e-15,6.1 C-1.08357767e-15,8.12136218 1.63863782,9.76 3.66,9.76 L11.59,9.76 C12.3989103,9.76 13.1746897,9.43866164 13.7466757,8.86667568 C14.3186616,8.29468973 14.64,7.51891029 14.64,6.71 C14.64,5.0996 13.3895,3.7942 11.8035,3.6783 Z" id="Path" fill="#00BAE9"></path>
                </g>
                <g id="Group-5" transform="translate(95.760000, 55.220000) rotate(-180.000000) translate(-95.760000, -55.220000) translate(90.260000, 48.220000)" fill="#40A6C8" fill-rule="nonzero">
                    <polygon id="Path-5" points="3.05 -3.46744855e-13 3.05 8.41068 5.49 8.41084607 2.745 13.9008461 0 8.41084607 2.44 8.41068 2.44 -3.46744855e-13"></polygon>
                    <polygon id="Path-5-Copy" transform="translate(7.625000, 6.950423) rotate(-180.000000) translate(-7.625000, -6.950423) " points="7.93 -6.9348971e-14 7.93 8.41068 10.37 8.41084607 7.625 13.9008461 4.88 8.41084607 7.32 8.41068 7.32 -6.9348971e-14"></polygon>
                </g>
                <g id="Group-5-Copy-8" transform="translate(95.760000, 129.640000) rotate(-180.000000) translate(-95.760000, -129.640000) translate(90.260000, 122.640000)" fill="#40A6C8" fill-rule="nonzero">
                    <polygon id="Path-5" points="3.05 -3.46744855e-13 3.05 8.41068 5.49 8.41084607 2.745 13.9008461 0 8.41084607 2.44 8.41068 2.44 -3.46744855e-13"></polygon>
                    <polygon id="Path-5-Copy" transform="translate(7.625000, 6.950423) rotate(-180.000000) translate(-7.625000, -6.950423) " points="7.93 -6.9348971e-14 7.93 8.41068 10.37 8.41084607 7.625 13.9008461 4.88 8.41084607 7.32 8.41068 7.32 -6.9348971e-14"></polygon>
                </g>
            </g>
        </g>
    </g>
</svg>
