<?xml version="1.0" encoding="UTF-8"?>
<svg width="512px" height="229px" viewBox="0 0 512 229" version="1.1" xmlns="http://www.w3.org/2000/svg" xmlns:xlink="http://www.w3.org/1999/xlink">
    <!-- Generator: Sketch 62 (91390) - https://sketch.com -->
    <title>registry-router</title>
    <desc>Created with Sketch.</desc>
    <g id="Page-1" stroke="none" stroke-width="1" fill="none" fill-rule="evenodd">
        <g id="/product" transform="translate(-763.000000, -3987.000000)">
            <g id="registry-router" transform="translate(763.000000, 3987.000000)">
                <rect id="Rectangle-Copy-13" fill-opacity="0.06" fill="#25B8E4" x="0" y="170" width="316" height="59" rx="10"></rect>
                <rect id="Rectangle-Copy-20" fill-opacity="0.06" fill="#25B8E4" x="0" y="0" width="316" height="59" rx="10"></rect>
                <rect id="Rectangle-Copy-19" fill-opacity="0.06" fill="#25B8E4" x="394" y="170" width="118" height="59" rx="10"></rect>
                <path d="M90.284,205.192 C91.6706667,205.192 92.692,204.690667 93.348,203.688 C94.004,202.685333 94.332,201.256 94.332,199.4 C94.332,198.525333 94.2626667,197.733333 94.124,197.024 C93.9853333,196.314667 93.756,195.706667 93.436,195.2 C93.116,194.693333 92.6973333,194.301333 92.18,194.024 C91.6626667,193.746667 91.0306667,193.608 90.284,193.608 C88.9186667,193.608 87.908,194.109333 87.252,195.112 C86.596,196.114667 86.268,197.544 86.268,199.4 C86.268,200.274667 86.3373333,201.066667 86.476,201.776 C86.6146667,202.485333 86.844,203.093333 87.164,203.6 C87.484,204.106667 87.9,204.498667 88.412,204.776 C88.924,205.053333 89.548,205.192 90.284,205.192 Z M90.284,204.008 C89.772,204.008 89.3506667,203.882667 89.02,203.632 C88.6893333,203.381333 88.4226667,203.045333 88.22,202.624 C88.0173333,202.202667 87.876,201.714667 87.796,201.16 C87.716,200.605333 87.676,200.018667 87.676,199.4 C87.676,197.832 87.884,196.672 88.3,195.92 C88.716,195.168 89.3773333,194.792 90.284,194.792 C90.796,194.792 91.2226667,194.917333 91.564,195.168 C91.9053333,195.418667 92.1773333,195.754667 92.38,196.176 C92.5826667,196.597333 92.724,197.088 92.804,197.648 C92.884,198.208 92.924,198.792 92.924,199.4 C92.924,200.978667 92.7133333,202.141333 92.292,202.888 C91.8706667,203.634667 91.2013333,204.008 90.284,204.008 Z M100.284,205.192 C100.7,205.192 101.086667,205.154667 101.444,205.08 C101.801333,205.005333 102.126667,204.906667 102.42,204.784 C102.713333,204.661333 102.972,204.530667 103.196,204.392 C103.42,204.253333 103.606667,204.12 103.756,203.992 L103.756,203.992 L103.196,203.064 C102.876,203.341333 102.478667,203.565333 102.004,203.736 C101.529333,203.906667 101.041333,203.992 100.54,203.992 C100.070667,203.992 99.6413333,203.922667 99.252,203.784 C98.8626667,203.645333 98.5293333,203.448 98.252,203.192 C97.9746667,202.936 97.7613333,202.624 97.612,202.256 C97.4626667,201.888 97.388,201.469333 97.388,201 C97.388,199.933333 97.644,199.154667 98.156,198.664 C98.668,198.173333 99.4466667,197.928 100.492,197.928 C100.769333,197.928 101.049333,197.957333 101.332,198.016 C101.614667,198.074667 101.878667,198.146667 102.124,198.232 L102.124,198.232 L102.124,199.752 L103.276,199.752 L103.276,197.528 L103.292,197.48 C102.950667,197.309333 102.532,197.154667 102.036,197.016 C101.54,196.877333 100.897333,196.808 100.108,196.808 C99.4893333,196.808 98.9293333,196.901333 98.428,197.088 C97.9266667,197.274667 97.5,197.544 97.148,197.896 C96.796,198.248 96.5266667,198.685333 96.34,199.208 C96.1533333,199.730667 96.06,200.328 96.06,201 C96.06,201.629333 96.1506667,202.202667 96.332,202.72 C96.5133333,203.237333 96.78,203.68 97.132,204.048 C97.484,204.416 97.924,204.698667 98.452,204.896 C98.98,205.093333 99.5906667,205.192 100.284,205.192 Z M107.676,205 L107.676,201.384 L108.556,201.384 L111.98,205 L113.628,205 L113.628,203.928 L112.588,203.928 L109.676,200.792 L113.212,197 L111.708,197 L108.556,200.424 L107.676,200.424 L107.676,193.8 L105.084,193.8 L105.084,194.872 L106.444,194.872 L106.444,205 L107.676,205 Z M118.06,205.144 C118.465333,205.144 118.817333,205.090667 119.116,204.984 C119.414667,204.877333 119.668,204.752 119.876,204.608 C120.084,204.464 120.252,204.317333 120.38,204.168 C120.508,204.018667 120.604,203.896 120.668,203.8 L120.668,203.8 L120.748,203.8 L120.892,205 L123.02,205 L123.02,203.96 L121.948,203.96 C121.884,203.48 121.852,202.973333 121.852,202.44 C121.862667,201.981333 121.878667,201.522667 121.9,201.064 C121.921333,200.605333 121.932,200.173333 121.932,199.768 C121.932,199.416 121.897333,199.066667 121.828,198.72 C121.758667,198.373333 121.625333,198.064 121.428,197.792 C121.230667,197.52 120.958667,197.298667 120.612,197.128 C120.265333,196.957333 119.82,196.872 119.276,196.872 C118.721333,196.872 118.156,196.930667 117.58,197.048 C117.004,197.165333 116.486667,197.357333 116.028,197.624 L116.028,197.624 L116.428,198.552 C116.769333,198.413333 117.158667,198.277333 117.596,198.144 C118.033333,198.010667 118.492,197.944 118.972,197.944 C119.324,197.944 119.62,197.984 119.86,198.064 C120.1,198.144 120.286667,198.28 120.42,198.472 C120.553333,198.664 120.638667,198.922667 120.676,199.248 C120.713333,199.573333 120.705333,199.981333 120.652,200.472 C119.862667,200.354667 119.150667,200.312 118.516,200.344 C117.881333,200.376 117.34,200.488 116.892,200.68 C116.444,200.872 116.1,201.149333 115.86,201.512 C115.62,201.874667 115.5,202.328 115.5,202.872 C115.5,203.576 115.729333,204.130667 116.188,204.536 C116.646667,204.941333 117.270667,205.144 118.06,205.144 Z M118.38,204.072 C117.814667,204.072 117.412,203.941333 117.172,203.68 C116.932,203.418667 116.812,203.112 116.812,202.76 C116.812,202.418667 116.908,202.141333 117.1,201.928 C117.292,201.714667 117.558667,201.557333 117.9,201.456 C118.241333,201.354667 118.646667,201.304 119.116,201.304 C119.585333,201.304 120.097333,201.352 120.652,201.448 L120.652,201.448 L120.652,202.568 C120.588,202.728 120.492,202.896 120.364,203.072 C120.236,203.248 120.076,203.410667 119.884,203.56 C119.692,203.709333 119.468,203.832 119.212,203.928 C118.956,204.024 118.678667,204.072 118.38,204.072 Z M125.772,205 L125.772,199.496 C125.9,199.048 126.089333,198.674667 126.34,198.376 C126.590667,198.077333 126.897333,197.928 127.26,197.928 C127.441333,197.928 127.588,197.976 127.7,198.072 C127.812,198.168 127.897333,198.298667 127.956,198.464 C128.014667,198.629333 128.052,198.816 128.068,199.024 C128.084,199.232 128.092,199.448 128.092,199.672 L128.092,199.672 L128.092,205 L129.308,205 L129.308,199.656 C129.436,199.101333 129.628,198.674667 129.884,198.376 C130.14,198.077333 130.454667,197.928 130.828,197.928 C130.998667,197.928 131.134667,197.970667 131.236,198.056 C131.337333,198.141333 131.417333,198.258667 131.476,198.408 C131.534667,198.557333 131.574667,198.730667 131.596,198.928 C131.617333,199.125333 131.628,199.336 131.628,199.56 L131.628,199.56 L131.628,205 L132.844,205 L132.844,199.288 C132.844,198.914667 132.82,198.576 132.772,198.272 C132.724,197.968 132.638667,197.706667 132.516,197.488 C132.393333,197.269333 132.222667,197.101333 132.004,196.984 C131.785333,196.866667 131.5,196.808 131.148,196.808 C130.614667,196.808 130.196,196.925333 129.892,197.16 C129.588,197.394667 129.313333,197.72 129.068,198.136 C129.036,197.890667 128.966667,197.682667 128.86,197.512 C128.753333,197.341333 128.628,197.205333 128.484,197.104 C128.34,197.002667 128.182667,196.928 128.012,196.88 C127.841333,196.832 127.676,196.808 127.516,196.808 C127.238667,196.808 127.009333,196.837333 126.828,196.896 C126.646667,196.954667 126.489333,197.037333 126.356,197.144 C126.222667,197.250667 126.105333,197.376 126.004,197.52 C125.902667,197.664 125.798667,197.816 125.692,197.976 L125.692,197.976 L125.628,197.976 L125.388,197 L124.556,197 L124.556,205 L125.772,205 Z M148.796,205.192 C149.5,205.192 150.097333,205.109333 150.588,204.944 C151.078667,204.778667 151.484,204.573333 151.804,204.328 L151.804,204.328 L151.788,204.296 L151.788,202.136 L150.604,202.136 L150.604,203.736 C150.401333,203.821333 150.18,203.888 149.94,203.936 C149.7,203.984 149.441333,204.008 149.164,204.008 C148.62,204.008 148.126667,203.912 147.684,203.72 C147.241333,203.528 146.862667,203.24 146.548,202.856 C146.233333,202.472 145.988,201.992 145.812,201.416 C145.636,200.84 145.548,200.168 145.548,199.4 C145.548,198.546667 145.646667,197.826667 145.844,197.24 C146.041333,196.653333 146.302667,196.178667 146.628,195.816 C146.953333,195.453333 147.326667,195.192 147.748,195.032 C148.169333,194.872 148.598667,194.792 149.036,194.792 C149.345333,194.792 149.609333,194.810667 149.828,194.848 C150.046667,194.885333 150.246667,194.941333 150.428,195.016 L150.428,195.016 L150.428,196.728 L151.612,196.728 L151.612,194.2 L151.596,194.2 C151.446667,194.104 151.294667,194.018667 151.14,193.944 C150.985333,193.869333 150.806667,193.808 150.604,193.76 C150.401333,193.712 150.166667,193.674667 149.9,193.648 C149.633333,193.621333 149.318667,193.608 148.956,193.608 C148.294667,193.608 147.673333,193.714667 147.092,193.928 C146.510667,194.141333 146.001333,194.48 145.564,194.944 C145.126667,195.408 144.78,196.005333 144.524,196.736 C144.268,197.466667 144.14,198.354667 144.14,199.4 C144.14,200.402667 144.254667,201.269333 144.484,202 C144.713333,202.730667 145.036,203.330667 145.452,203.8 C145.868,204.269333 146.361333,204.618667 146.932,204.848 C147.502667,205.077333 148.124,205.192 148.796,205.192 Z M158.476,205.208 C158.657333,205.208 158.854667,205.186667 159.068,205.144 C159.281333,205.101333 159.494667,205.04 159.708,204.96 C159.921333,204.88 160.129333,204.781333 160.332,204.664 C160.534667,204.546667 160.721333,204.413333 160.892,204.264 L160.892,204.264 L160.316,203.384 C159.985333,203.64 159.684,203.821333 159.412,203.928 C159.14,204.034667 158.854667,204.088 158.556,204.088 C158.129333,204.088 157.806667,203.954667 157.588,203.688 C157.369333,203.421333 157.26,202.962667 157.26,202.312 L157.26,202.312 L157.26,193.8 L154.604,193.8 L154.604,194.872 L156.012,194.872 L156.012,202.312 C156.012,202.856 156.065333,203.312 156.172,203.68 C156.278667,204.048 156.436,204.344 156.644,204.568 C156.852,204.792 157.110667,204.954667 157.42,205.056 C157.729333,205.157333 158.081333,205.208 158.476,205.208 Z M167.1,205.192 C167.718667,205.192 168.270667,205.093333 168.756,204.896 C169.241333,204.698667 169.649333,204.418667 169.98,204.056 C170.310667,203.693333 170.561333,203.253333 170.732,202.736 C170.902667,202.218667 170.988,201.64 170.988,201 C170.988,200.413333 170.910667,199.864 170.756,199.352 C170.601333,198.84 170.364,198.397333 170.044,198.024 C169.724,197.650667 169.321333,197.354667 168.836,197.136 C168.350667,196.917333 167.772,196.808 167.1,196.808 C165.852,196.808 164.892,197.184 164.22,197.936 C163.548,198.688 163.212,199.709333 163.212,201 C163.212,201.586667 163.289333,202.136 163.444,202.648 C163.598667,203.16 163.836,203.602667 164.156,203.976 C164.476,204.349333 164.881333,204.645333 165.372,204.864 C165.862667,205.082667 166.438667,205.192 167.1,205.192 Z M167.1,204.12 C166.630667,204.12 166.233333,204.029333 165.908,203.848 C165.582667,203.666667 165.318667,203.426667 165.116,203.128 C164.913333,202.829333 164.766667,202.493333 164.676,202.12 C164.585333,201.746667 164.54,201.373333 164.54,201 C164.54,199.965333 164.753333,199.186667 165.18,198.664 C165.606667,198.141333 166.246667,197.88 167.1,197.88 C167.569333,197.88 167.966667,197.970667 168.292,198.152 C168.617333,198.333333 168.884,198.573333 169.092,198.872 C169.3,199.170667 169.449333,199.504 169.54,199.872 C169.630667,200.24 169.676,200.616 169.676,201 C169.676,202.024 169.46,202.8 169.028,203.328 C168.596,203.856 167.953333,204.12 167.1,204.12 Z M176.14,205.192 C176.790667,205.192 177.345333,205.048 177.804,204.76 C178.262667,204.472 178.630667,204.098667 178.908,203.64 L178.908,203.64 L178.972,203.64 L179.02,205 L181.148,205 L181.148,203.96 L180.076,203.96 C180.012,203.48 179.98,202.978667 179.98,202.456 L179.98,202.456 L179.98,197 L177.708,197 L177.708,198.072 L178.732,198.072 L178.732,202.216 C178.518667,202.76 178.206667,203.213333 177.796,203.576 C177.385333,203.938667 176.902667,204.12 176.348,204.12 C175.964,204.12 175.657333,204.058667 175.428,203.936 C175.198667,203.813333 175.025333,203.632 174.908,203.392 C174.790667,203.152 174.713333,202.858667 174.676,202.512 C174.638667,202.165333 174.62,201.773333 174.62,201.336 L174.62,201.336 L174.62,197 L172.3,197 L172.3,198.072 L173.372,198.072 L173.372,201.592 C173.372,202.285333 173.425333,202.864 173.532,203.328 C173.638667,203.792 173.804,204.162667 174.028,204.44 C174.252,204.717333 174.537333,204.912 174.884,205.024 C175.230667,205.136 175.649333,205.192 176.14,205.192 Z M185.916,205.192 C186.524,205.192 187.06,205.056 187.524,204.784 C187.988,204.512 188.337333,204.173333 188.572,203.768 L188.572,203.768 L188.636,203.768 L188.796,205 L190.924,205 L190.924,203.96 L189.852,203.96 C189.830667,203.842667 189.809333,203.706667 189.788,203.552 C189.766667,203.397333 189.748,203.24 189.732,203.08 C189.716,202.92 189.702667,202.768 189.692,202.624 C189.681333,202.48 189.676,202.36 189.676,202.264 L189.676,202.264 L189.676,193.8 L187.084,193.8 L187.084,194.872 L188.428,194.872 L188.428,197.144 C188.268,197.101333 188.121333,197.061333 187.988,197.024 C187.854667,196.986667 187.713333,196.957333 187.564,196.936 C187.414667,196.914667 187.252,196.898667 187.076,196.888 C186.9,196.877333 186.7,196.872 186.476,196.872 C185.857333,196.872 185.297333,196.962667 184.796,197.144 C184.294667,197.325333 183.865333,197.589333 183.508,197.936 C183.150667,198.282667 182.876,198.714667 182.684,199.232 C182.492,199.749333 182.396,200.344 182.396,201.016 C182.396,202.445333 182.681333,203.498667 183.252,204.176 C183.822667,204.853333 184.710667,205.192 185.916,205.192 Z M186.124,204.12 C185.676,204.12 185.297333,204.04 184.988,203.88 C184.678667,203.72 184.430667,203.501333 184.244,203.224 C184.057333,202.946667 183.924,202.618667 183.844,202.24 C183.764,201.861333 183.724,201.453333 183.724,201.016 C183.724,199.949333 183.969333,199.168 184.46,198.672 C184.950667,198.176 185.622667,197.928 186.476,197.928 C186.956,197.928 187.342667,197.965333 187.636,198.04 C187.929333,198.114667 188.193333,198.232 188.428,198.392 L188.428,198.392 L188.428,202.104 C188.289333,202.776 188.033333,203.28 187.66,203.616 C187.286667,203.952 186.774667,204.12 186.124,204.12 Z M205.436,205.192 C206.033333,205.192 206.569333,205.117333 207.044,204.968 C207.518667,204.818667 207.918667,204.605333 208.244,204.328 C208.569333,204.050667 208.82,203.72 208.996,203.336 C209.172,202.952 209.26,202.52 209.26,202.04 C209.26,201.453333 209.113333,200.962667 208.82,200.568 C208.526667,200.173333 208.161333,199.834667 207.724,199.552 C207.286667,199.269333 206.812,199.021333 206.3,198.808 C205.788,198.594667 205.313333,198.378667 204.876,198.16 C204.438667,197.941333 204.073333,197.693333 203.78,197.416 C203.486667,197.138667 203.34,196.792 203.34,196.376 C203.34,196.162667 203.393333,195.96 203.5,195.768 C203.606667,195.576 203.758667,195.408 203.956,195.264 C204.153333,195.12 204.393333,195.005333 204.676,194.92 C204.958667,194.834667 205.276,194.792 205.628,194.792 C205.990667,194.792 206.332,194.813333 206.652,194.856 C206.972,194.898667 207.265333,194.952 207.532,195.016 L207.532,195.016 L207.532,196.728 L208.716,196.728 L208.716,194.168 L208.732,194.12 L208.716,194.12 L208.716,194.088 L208.684,194.104 C208.374667,193.954667 207.958667,193.834667 207.436,193.744 C206.913333,193.653333 206.332,193.608 205.692,193.608 C205.137333,193.608 204.633333,193.674667 204.18,193.808 C203.726667,193.941333 203.34,194.130667 203.02,194.376 C202.7,194.621333 202.452,194.92 202.276,195.272 C202.1,195.624 202.012,196.018667 202.012,196.456 C202.012,197.074667 202.158667,197.584 202.452,197.984 C202.745333,198.384 203.110667,198.722667 203.548,199 C203.985333,199.277333 204.46,199.517333 204.972,199.72 C205.484,199.922667 205.958667,200.130667 206.396,200.344 C206.833333,200.557333 207.198667,200.802667 207.492,201.08 C207.785333,201.357333 207.932,201.714667 207.932,202.152 C207.932,202.472 207.865333,202.749333 207.732,202.984 C207.598667,203.218667 207.417333,203.413333 207.188,203.568 C206.958667,203.722667 206.689333,203.834667 206.38,203.904 C206.070667,203.973333 205.74,204.008 205.388,204.008 C204.982667,204.008 204.58,203.952 204.18,203.84 C203.78,203.728 203.42,203.586667 203.1,203.416 L203.1,203.416 L203.1,201.64 L201.916,201.64 L201.916,204.232 L201.9,204.28 C202.038667,204.354667 202.228,204.445333 202.468,204.552 C202.708,204.658667 202.98,204.76 203.284,204.856 C203.588,204.952 203.921333,205.032 204.284,205.096 C204.646667,205.16 205.030667,205.192 205.436,205.192 Z M213.964,205.144 C214.966667,205.144 215.801333,204.981333 216.468,204.656 C217.134667,204.330667 217.665333,203.898667 218.06,203.36 C218.454667,202.821333 218.732,202.202667 218.892,201.504 C219.052,200.805333 219.132,200.077333 219.132,199.32 C219.132,198.488 219.044,197.725333 218.868,197.032 C218.692,196.338667 218.404,195.744 218.004,195.248 C217.604,194.752 217.076,194.365333 216.42,194.088 C215.764,193.810667 214.950667,193.672 213.98,193.672 C213.670667,193.672 213.294667,193.68 212.852,193.696 C212.409333,193.712 211.985333,193.746667 211.58,193.8 L211.58,193.8 L211.58,205.016 C211.686667,205.037333 211.846667,205.053333 212.06,205.064 C212.273333,205.074667 212.497333,205.088 212.732,205.104 C212.966667,205.12 213.196,205.130667 213.42,205.136 C213.644,205.141333 213.825333,205.144 213.964,205.144 Z M214.012,203.96 C213.948,203.96 213.865333,203.957333 213.764,203.952 C213.662667,203.946667 213.558667,203.941333 213.452,203.936 L213.294,203.928 L213.294,203.928 L213.14,203.92 C213.038667,203.914667 212.961333,203.906667 212.908,203.896 L212.908,203.896 L212.908,194.936 C213.057333,194.904 213.246667,194.882667 213.476,194.872 C213.705333,194.861333 213.894667,194.856 214.044,194.856 C214.833333,194.856 215.470667,194.992 215.956,195.264 C216.441333,195.536 216.814667,195.885333 217.076,196.312 C217.337333,196.738667 217.510667,197.216 217.596,197.744 C217.681333,198.272 217.724,198.797333 217.724,199.32 C217.724,199.917333 217.676,200.496 217.58,201.056 C217.484,201.616 217.302667,202.112 217.036,202.544 C216.769333,202.976 216.393333,203.32 215.908,203.576 C215.422667,203.832 214.790667,203.96 214.012,203.96 Z M222.588,205 L222.588,199.816 L223.82,199.816 L227.74,205 L229.42,205 L224.972,199.128 L228.924,193.8 L227.388,193.8 L223.788,198.792 L222.588,198.792 L222.588,193.8 L221.26,193.8 L221.26,205 L222.588,205 Z" id="OckamCloudSDK" fill="#25B8E4" fill-rule="nonzero"></path>
                <g id="Group-26" transform="translate(32.000000, 20.000000)" fill-rule="nonzero">
                    <path d="M45.184,14.192 C46.5706667,14.192 47.592,13.6906667 48.248,12.688 C48.904,11.6853333 49.232,10.256 49.232,8.4 C49.232,7.52533333 49.1626667,6.73333333 49.024,6.024 C48.8853333,5.31466667 48.656,4.70666667 48.336,4.2 C48.016,3.69333333 47.5973333,3.30133333 47.08,3.024 C46.5626667,2.74666667 45.9306667,2.608 45.184,2.608 C43.8186667,2.608 42.808,3.10933333 42.152,4.112 C41.496,5.11466667 41.168,6.544 41.168,8.4 C41.168,9.27466667 41.2373333,10.0666667 41.376,10.776 C41.5146667,11.4853333 41.744,12.0933333 42.064,12.6 C42.384,13.1066667 42.8,13.4986667 43.312,13.776 C43.824,14.0533333 44.448,14.192 45.184,14.192 Z M45.184,13.008 C44.672,13.008 44.2506667,12.8826667 43.92,12.632 C43.5893333,12.3813333 43.3226667,12.0453333 43.12,11.624 C42.9173333,11.2026667 42.776,10.7146667 42.696,10.16 C42.616,9.60533333 42.576,9.01866667 42.576,8.4 C42.576,6.832 42.784,5.672 43.2,4.92 C43.616,4.168 44.2773333,3.792 45.184,3.792 C45.696,3.792 46.1226667,3.91733333 46.464,4.168 C46.8053333,4.41866667 47.0773333,4.75466667 47.28,5.176 C47.4826667,5.59733333 47.624,6.088 47.704,6.648 C47.784,7.208 47.824,7.792 47.824,8.4 C47.824,9.97866667 47.6133333,11.1413333 47.192,11.888 C46.7706667,12.6346667 46.1013333,13.008 45.184,13.008 Z M55.184,14.192 C55.6,14.192 55.9866667,14.1546667 56.344,14.08 C56.7013333,14.0053333 57.0266667,13.9066667 57.32,13.784 C57.6133333,13.6613333 57.872,13.5306667 58.096,13.392 C58.32,13.2533333 58.5066667,13.12 58.656,12.992 L58.656,12.992 L58.096,12.064 C57.776,12.3413333 57.3786667,12.5653333 56.904,12.736 C56.4293333,12.9066667 55.9413333,12.992 55.44,12.992 C54.9706667,12.992 54.5413333,12.9226667 54.152,12.784 C53.7626667,12.6453333 53.4293333,12.448 53.152,12.192 C52.8746667,11.936 52.6613333,11.624 52.512,11.256 C52.3626667,10.888 52.288,10.4693333 52.288,10 C52.288,8.93333333 52.544,8.15466667 53.056,7.664 C53.568,7.17333333 54.3466667,6.928 55.392,6.928 C55.6693333,6.928 55.9493333,6.95733333 56.232,7.016 C56.5146667,7.07466667 56.7786667,7.14666667 57.024,7.232 L57.024,7.232 L57.024,8.752 L58.176,8.752 L58.176,6.528 L58.192,6.48 C57.8506667,6.30933333 57.432,6.15466667 56.936,6.016 C56.44,5.87733333 55.7973333,5.808 55.008,5.808 C54.3893333,5.808 53.8293333,5.90133333 53.328,6.088 C52.8266667,6.27466667 52.4,6.544 52.048,6.896 C51.696,7.248 51.4266667,7.68533333 51.24,8.208 C51.0533333,8.73066667 50.96,9.328 50.96,10 C50.96,10.6293333 51.0506667,11.2026667 51.232,11.72 C51.4133333,12.2373333 51.68,12.68 52.032,13.048 C52.384,13.416 52.824,13.6986667 53.352,13.896 C53.88,14.0933333 54.4906667,14.192 55.184,14.192 Z M62.576,14 L62.576,10.384 L63.456,10.384 L66.88,14 L68.528,14 L68.528,12.928 L67.488,12.928 L64.576,9.792 L68.112,6 L66.608,6 L63.456,9.424 L62.576,9.424 L62.576,2.8 L59.984,2.8 L59.984,3.872 L61.344,3.872 L61.344,14 L62.576,14 Z M72.96,14.144 C73.3653333,14.144 73.7173333,14.0906667 74.016,13.984 C74.3146667,13.8773333 74.568,13.752 74.776,13.608 C74.984,13.464 75.152,13.3173333 75.28,13.168 C75.408,13.0186667 75.504,12.896 75.568,12.8 L75.568,12.8 L75.648,12.8 L75.792,14 L77.92,14 L77.92,12.96 L76.848,12.96 C76.784,12.48 76.752,11.9733333 76.752,11.44 C76.7626667,10.9813333 76.7786667,10.5226667 76.8,10.064 C76.8213333,9.60533333 76.832,9.17333333 76.832,8.768 C76.832,8.416 76.7973333,8.06666667 76.728,7.72 C76.6586667,7.37333333 76.5253333,7.064 76.328,6.792 C76.1306667,6.52 75.8586667,6.29866667 75.512,6.128 C75.1653333,5.95733333 74.72,5.872 74.176,5.872 C73.6213333,5.872 73.056,5.93066667 72.48,6.048 C71.904,6.16533333 71.3866667,6.35733333 70.928,6.624 L70.928,6.624 L71.328,7.552 C71.6693333,7.41333333 72.0586667,7.27733333 72.496,7.144 C72.9333333,7.01066667 73.392,6.944 73.872,6.944 C74.224,6.944 74.52,6.984 74.76,7.064 C75,7.144 75.1866667,7.28 75.32,7.472 C75.4533333,7.664 75.5386667,7.92266667 75.576,8.248 C75.6133333,8.57333333 75.6053333,8.98133333 75.552,9.472 C74.7626667,9.35466667 74.0506667,9.312 73.416,9.344 C72.7813333,9.376 72.24,9.488 71.792,9.68 C71.344,9.872 71,10.1493333 70.76,10.512 C70.52,10.8746667 70.4,11.328 70.4,11.872 C70.4,12.576 70.6293333,13.1306667 71.088,13.536 C71.5466667,13.9413333 72.1706667,14.144 72.96,14.144 Z M73.28,13.072 C72.7146667,13.072 72.312,12.9413333 72.072,12.68 C71.832,12.4186667 71.712,12.112 71.712,11.76 C71.712,11.4186667 71.808,11.1413333 72,10.928 C72.192,10.7146667 72.4586667,10.5573333 72.8,10.456 C73.1413333,10.3546667 73.5466667,10.304 74.016,10.304 C74.4853333,10.304 74.9973333,10.352 75.552,10.448 L75.552,10.448 L75.552,11.568 C75.488,11.728 75.392,11.896 75.264,12.072 C75.136,12.248 74.976,12.4106667 74.784,12.56 C74.592,12.7093333 74.368,12.832 74.112,12.928 C73.856,13.024 73.5786667,13.072 73.28,13.072 Z M80.672,14 L80.672,8.496 C80.8,8.048 80.9893333,7.67466667 81.24,7.376 C81.4906667,7.07733333 81.7973333,6.928 82.16,6.928 C82.3413333,6.928 82.488,6.976 82.6,7.072 C82.712,7.168 82.7973333,7.29866667 82.856,7.464 C82.9146667,7.62933333 82.952,7.816 82.968,8.024 C82.984,8.232 82.992,8.448 82.992,8.672 L82.992,8.672 L82.992,14 L84.208,14 L84.208,8.656 C84.336,8.10133333 84.528,7.67466667 84.784,7.376 C85.04,7.07733333 85.3546667,6.928 85.728,6.928 C85.8986667,6.928 86.0346667,6.97066667 86.136,7.056 C86.2373333,7.14133333 86.3173333,7.25866667 86.376,7.408 C86.4346667,7.55733333 86.4746667,7.73066667 86.496,7.928 C86.5173333,8.12533333 86.528,8.336 86.528,8.56 L86.528,8.56 L86.528,14 L87.744,14 L87.744,8.288 C87.744,7.91466667 87.72,7.576 87.672,7.272 C87.624,6.968 87.5386667,6.70666667 87.416,6.488 C87.2933333,6.26933333 87.1226667,6.10133333 86.904,5.984 C86.6853333,5.86666667 86.4,5.808 86.048,5.808 C85.5146667,5.808 85.096,5.92533333 84.792,6.16 C84.488,6.39466667 84.2133333,6.72 83.968,7.136 C83.936,6.89066667 83.8666667,6.68266667 83.76,6.512 C83.6533333,6.34133333 83.528,6.20533333 83.384,6.104 C83.24,6.00266667 83.0826667,5.928 82.912,5.88 C82.7413333,5.832 82.576,5.808 82.416,5.808 C82.1386667,5.808 81.9093333,5.83733333 81.728,5.896 C81.5466667,5.95466667 81.3893333,6.03733333 81.256,6.144 C81.1226667,6.25066667 81.0053333,6.376 80.904,6.52 C80.8026667,6.664 80.6986667,6.816 80.592,6.976 L80.592,6.976 L80.528,6.976 L80.288,6 L79.456,6 L79.456,14 L80.672,14 Z M100.928,14 L100.928,9.072 L102.928,9.072 L105.568,14 L107.12,14 L104.16,8.688 C104.32,8.624 104.512,8.51733333 104.736,8.368 C104.96,8.21866667 105.176,8.024 105.384,7.784 C105.592,7.544 105.768,7.256 105.912,6.92 C106.056,6.584 106.128,6.19733333 106.128,5.76 C106.128,5.19466667 106.026667,4.71466667 105.824,4.32 C105.621333,3.92533333 105.352,3.60533333 105.016,3.36 C104.68,3.11466667 104.290667,2.93866667 103.848,2.832 C103.405333,2.72533333 102.938667,2.672 102.448,2.672 C102.010667,2.672 101.528,2.69333333 101,2.736 C100.472,2.77866667 100.005333,2.83733333 99.6,2.912 L99.6,2.912 L99.6,14 L100.928,14 Z M102.176,8.048 L100.928,8.048 L100.928,3.92 C101.002667,3.89866667 101.101333,3.88266667 101.224,3.872 C101.346667,3.86133333 101.477333,3.85066667 101.616,3.84 C101.754667,3.82933333 101.898667,3.824 102.048,3.824 L102.048,3.824 L102.48,3.824 C103.184,3.824 103.733333,4.01066667 104.128,4.384 C104.522667,4.75733333 104.72,5.232 104.72,5.808 C104.72,6.576 104.48,7.14133333 104,7.504 C103.52,7.86666667 102.912,8.048 102.176,8.048 L102.176,8.048 Z M112.544,14.192 C112.885333,14.192 113.224,14.1626667 113.56,14.104 C113.896,14.0453333 114.218667,13.9626667 114.528,13.856 C114.837333,13.7493333 115.122667,13.6213333 115.384,13.472 C115.645333,13.3226667 115.872,13.1626667 116.064,12.992 L116.064,12.992 L115.568,12.08 C115.461333,12.176 115.309333,12.2826667 115.112,12.4 C114.914667,12.5173333 114.688,12.624 114.432,12.72 C114.176,12.816 113.906667,12.8986667 113.624,12.968 C113.341333,13.0373333 113.056,13.072 112.768,13.072 C111.904,13.072 111.213333,12.8346667 110.696,12.36 C110.178667,11.8853333 109.92,11.168 109.92,10.208 L109.92,10.208 L116.112,10.208 C116.165333,9.30133333 116.101333,8.56266667 115.92,7.992 C115.738667,7.42133333 115.48,6.97333333 115.144,6.648 C114.808,6.32266667 114.421333,6.10133333 113.984,5.984 C113.546667,5.86666667 113.104,5.808 112.656,5.808 C112.037333,5.808 111.477333,5.90133333 110.976,6.088 C110.474667,6.27466667 110.048,6.544 109.696,6.896 C109.344,7.248 109.074667,7.68533333 108.888,8.208 C108.701333,8.73066667 108.608,9.328 108.608,10 C108.608,10.64 108.693333,11.216 108.864,11.728 C109.034667,12.24 109.285333,12.68 109.616,13.048 C109.946667,13.416 110.357333,13.6986667 110.848,13.896 C111.338667,14.0933333 111.904,14.192 112.544,14.192 Z M114.944,9.088 L109.968,9.088 C110.010667,8.672 110.109333,8.32266667 110.264,8.04 C110.418667,7.75733333 110.616,7.528 110.856,7.352 C111.096,7.176 111.373333,7.05066667 111.688,6.976 C112.002667,6.90133333 112.336,6.864 112.688,6.864 C113.338667,6.864 113.864,7.05866667 114.264,7.448 C114.664,7.83733333 114.890667,8.384 114.944,9.088 L114.944,9.088 Z M121.872,17.392 C122.394667,17.392 122.88,17.3306667 123.328,17.208 C123.776,17.0853333 124.168,16.9013333 124.504,16.656 C124.84,16.4106667 125.104,16.0986667 125.296,15.72 C125.488,15.3413333 125.584,14.9013333 125.584,14.4 L125.584,14.4 L125.584,6.352 C125.2,6.21333333 124.776,6.09866667 124.312,6.008 C123.848,5.91733333 123.285333,5.872 122.624,5.872 C121.194667,5.872 120.117333,6.22133333 119.392,6.92 C118.666667,7.61866667 118.304,8.65066667 118.304,10.016 C118.304,11.4453333 118.589333,12.4986667 119.16,13.176 C119.730667,13.8533333 120.624,14.192 121.84,14.192 C122.448,14.192 122.944,14.096 123.328,13.904 C123.712,13.712 124.026667,13.44 124.272,13.088 L124.272,13.088 L124.336,13.088 L124.336,13.984 C124.336,14.4 124.293333,14.752 124.208,15.04 C124.122667,15.328 123.984,15.5626667 123.792,15.744 C123.6,15.9253333 123.346667,16.0586667 123.032,16.144 C122.717333,16.2293333 122.325333,16.272 121.856,16.272 C121.632,16.272 121.405333,16.2506667 121.176,16.208 C120.946667,16.1653333 120.730667,16.1093333 120.528,16.04 C120.325333,15.9706667 120.146667,15.896 119.992,15.816 C119.837333,15.736 119.712,15.6533333 119.616,15.568 L119.616,15.568 L119.008,16.704 C119.349333,16.9066667 119.754667,17.072 120.224,17.2 C120.693333,17.328 121.242667,17.392 121.872,17.392 Z M122.016,13.12 C121.568,13.12 121.192,13.0426667 120.888,12.888 C120.584,12.7333333 120.338667,12.5173333 120.152,12.24 C119.965333,11.9626667 119.829333,11.6346667 119.744,11.256 C119.658667,10.8773333 119.616,10.4586667 119.616,10 C119.616,8.96533333 119.861333,8.19733333 120.352,7.696 C120.842667,7.19466667 121.514667,6.944 122.368,6.944 C123.210667,6.944 123.866667,7.056 124.336,7.28 L124.336,7.28 L124.336,11.072 C124.186667,11.7653333 123.925333,12.28 123.552,12.616 C123.178667,12.952 122.666667,13.12 122.016,13.12 Z M131.856,4.72 C132.165333,4.72 132.424,4.624 132.632,4.432 C132.84,4.24 132.944,4.00533333 132.944,3.728 C132.944,3.44 132.84,3.192 132.632,2.984 C132.424,2.776 132.165333,2.672 131.856,2.672 C131.557333,2.672 131.312,2.776 131.12,2.984 C130.928,3.192 130.832,3.44 130.832,3.728 C130.832,4.00533333 130.928,4.24 131.12,4.432 C131.312,4.624 131.557333,4.72 131.856,4.72 Z M135.264,14 L135.264,12.928 L132.544,12.928 L132.544,6 L128.48,6 L128.48,7.072 L131.264,7.072 L131.264,12.928 L128.48,12.928 L128.48,14 L135.264,14 Z M141.168,14.192 C142.330667,14.192 143.202667,13.952 143.784,13.472 C144.365333,12.992 144.656,12.384 144.656,11.648 C144.656,11.1573333 144.522667,10.768 144.256,10.48 C143.989333,10.192 143.658667,9.96266667 143.264,9.792 C142.869333,9.62133333 142.44,9.49066667 141.976,9.4 C141.512,9.30933333 141.082667,9.21333333 140.688,9.112 C140.293333,9.01066667 139.962667,8.88533333 139.696,8.736 C139.429333,8.58666667 139.296,8.37333333 139.296,8.096 C139.296,7.872 139.352,7.68266667 139.464,7.528 C139.576,7.37333333 139.725333,7.248 139.912,7.152 C140.098667,7.056 140.306667,6.984 140.536,6.936 C140.765333,6.888 140.997333,6.864 141.232,6.864 C141.850667,6.864 142.365333,6.952 142.776,7.128 C143.186667,7.304 143.568,7.488 143.92,7.68 L143.92,7.68 L144.432,6.672 C144.112,6.46933333 143.682667,6.27466667 143.144,6.088 C142.605333,5.90133333 141.962667,5.808 141.216,5.808 C140.8,5.808 140.4,5.85333333 140.016,5.944 C139.632,6.03466667 139.296,6.17333333 139.008,6.36 C138.72,6.54666667 138.488,6.784 138.312,7.072 C138.136,7.36 138.048,7.70666667 138.048,8.112 C138.048,8.60266667 138.181333,8.984 138.448,9.256 C138.714667,9.528 139.045333,9.744 139.44,9.904 C139.834667,10.064 140.264,10.192 140.728,10.288 C141.192,10.384 141.621333,10.488 142.016,10.6 C142.410667,10.712 142.741333,10.8613333 143.008,11.048 C143.274667,11.2346667 143.408,11.4986667 143.408,11.84 C143.408,12.0746667 143.352,12.2746667 143.24,12.44 C143.128,12.6053333 142.976,12.7386667 142.784,12.84 C142.592,12.9413333 142.370667,13.016 142.12,13.064 C141.869333,13.112 141.6,13.136 141.312,13.136 C141.013333,13.136 140.717333,13.104 140.424,13.04 C140.130667,12.976 139.856,12.8906667 139.6,12.784 C139.344,12.6773333 139.109333,12.5573333 138.896,12.424 C138.682667,12.2906667 138.512,12.16 138.384,12.032 L138.384,12.032 L137.744,13.072 C137.904,13.2106667 138.106667,13.3466667 138.352,13.48 C138.597333,13.6133333 138.869333,13.7333333 139.168,13.84 C139.466667,13.9466667 139.786667,14.032 140.128,14.096 C140.469333,14.16 140.816,14.192 141.168,14.192 Z M151.552,14.208 C152.096,14.208 152.626667,14.1173333 153.144,13.936 C153.661333,13.7546667 154.106667,13.5146667 154.48,13.216 L154.48,13.216 L154.064,12.272 C153.776,12.4853333 153.453333,12.6826667 153.096,12.864 C152.738667,13.0453333 152.32,13.136 151.84,13.136 C151.136,13.136 150.594667,12.9493333 150.216,12.576 C149.837333,12.2026667 149.648,11.6266667 149.648,10.848 L149.648,10.848 L149.648,7.072 L153.92,7.072 L153.92,6 L149.648,6 L149.648,4.064 L148.4,4.416 L148.4,6 L146.496,6 L146.496,7.072 L148.4,7.072 L148.4,11.04 C148.4,11.5946667 148.485333,12.072 148.656,12.472 C148.826667,12.872 149.056,13.2 149.344,13.456 C149.632,13.712 149.965333,13.9013333 150.344,14.024 C150.722667,14.1466667 151.125333,14.208 151.552,14.208 Z M163.12,14 L163.12,12.928 L160.048,12.928 L160.048,8.208 C160.112,8.112 160.213333,7.99466667 160.352,7.856 C160.490667,7.71733333 160.658667,7.57866667 160.856,7.44 C161.053333,7.30133333 161.285333,7.184 161.552,7.088 C161.818667,6.992 162.117333,6.944 162.448,6.944 C162.8,6.944 163.042667,7.104 163.176,7.424 C163.309333,7.744 163.376,8.24533333 163.376,8.928 L163.376,8.928 L164.496,8.912 C164.496,8.432 164.474667,8.00266667 164.432,7.624 C164.389333,7.24533333 164.306667,6.92266667 164.184,6.656 C164.061333,6.38933333 163.890667,6.18666667 163.672,6.048 C163.453333,5.90933333 163.162667,5.84 162.8,5.84 C162.181333,5.84 161.648,5.95733333 161.2,6.192 C160.752,6.42666667 160.346667,6.70933333 159.984,7.04 L159.984,7.04 L159.904,7.04 L159.648,6 L156.656,6 L156.656,7.072 L158.816,7.072 L158.816,12.928 L156.656,12.928 L156.656,14 L163.12,14 Z M168.544,17.28 C169.162667,17.28 169.664,17.136 170.048,16.848 C170.432,16.56 170.736,16.208 170.96,15.792 C171.184,15.376 171.357333,14.9306667 171.48,14.456 C171.602667,13.9813333 171.722667,13.5573333 171.84,13.184 L171.84,13.184 L174.064,6 L172.768,6 L170.784,12.768 L170.176,12.768 L167.376,6 L165.936,6 L169.296,14 L170.368,14 C170.08,15.3546667 169.536,16.032 168.736,16.032 C168.650667,16.032 168.544,16.0186667 168.416,15.992 C168.288,15.9653333 168.157333,15.9333333 168.024,15.896 C167.890667,15.8586667 167.768,15.8133333 167.656,15.76 C167.544,15.7066667 167.456,15.6533333 167.392,15.6 L167.392,15.6 L166.944,16.752 C167.008,16.816 167.104,16.88 167.232,16.944 C167.36,17.008 167.498667,17.064 167.648,17.112 C167.797333,17.16 167.949333,17.2 168.104,17.232 C168.258667,17.264 168.405333,17.28 168.544,17.28 Z M189.136,14.192 C189.733333,14.192 190.269333,14.1173333 190.744,13.968 C191.218667,13.8186667 191.618667,13.6053333 191.944,13.328 C192.269333,13.0506667 192.52,12.72 192.696,12.336 C192.872,11.952 192.96,11.52 192.96,11.04 C192.96,10.4533333 192.813333,9.96266667 192.52,9.568 C192.226667,9.17333333 191.861333,8.83466667 191.424,8.552 C190.986667,8.26933333 190.512,8.02133333 190,7.808 C189.488,7.59466667 189.013333,7.37866667 188.576,7.16 C188.138667,6.94133333 187.773333,6.69333333 187.48,6.416 C187.186667,6.13866667 187.04,5.792 187.04,5.376 C187.04,5.16266667 187.093333,4.96 187.2,4.768 C187.306667,4.576 187.458667,4.408 187.656,4.264 C187.853333,4.12 188.093333,4.00533333 188.376,3.92 C188.658667,3.83466667 188.976,3.792 189.328,3.792 C189.690667,3.792 190.032,3.81333333 190.352,3.856 C190.672,3.89866667 190.965333,3.952 191.232,4.016 L191.232,4.016 L191.232,5.728 L192.416,5.728 L192.416,3.168 L192.432,3.12 L192.416,3.12 L192.416,3.088 L192.384,3.104 C192.074667,2.95466667 191.658667,2.83466667 191.136,2.744 C190.613333,2.65333333 190.032,2.608 189.392,2.608 C188.837333,2.608 188.333333,2.67466667 187.88,2.808 C187.426667,2.94133333 187.04,3.13066667 186.72,3.376 C186.4,3.62133333 186.152,3.92 185.976,4.272 C185.8,4.624 185.712,5.01866667 185.712,5.456 C185.712,6.07466667 185.858667,6.584 186.152,6.984 C186.445333,7.384 186.810667,7.72266667 187.248,8 C187.685333,8.27733333 188.16,8.51733333 188.672,8.72 C189.184,8.92266667 189.658667,9.13066667 190.096,9.344 C190.533333,9.55733333 190.898667,9.80266667 191.192,10.08 C191.485333,10.3573333 191.632,10.7146667 191.632,11.152 C191.632,11.472 191.565333,11.7493333 191.432,11.984 C191.298667,12.2186667 191.117333,12.4133333 190.888,12.568 C190.658667,12.7226667 190.389333,12.8346667 190.08,12.904 C189.770667,12.9733333 189.44,13.008 189.088,13.008 C188.682667,13.008 188.28,12.952 187.88,12.84 C187.48,12.728 187.12,12.5866667 186.8,12.416 L186.8,12.416 L186.8,10.64 L185.616,10.64 L185.616,13.232 L185.6,13.28 C185.738667,13.3546667 185.928,13.4453333 186.168,13.552 C186.408,13.6586667 186.68,13.76 186.984,13.856 C187.288,13.952 187.621333,14.032 187.984,14.096 C188.346667,14.16 188.730667,14.192 189.136,14.192 Z M198.944,14.192 C199.285333,14.192 199.624,14.1626667 199.96,14.104 C200.296,14.0453333 200.618667,13.9626667 200.928,13.856 C201.237333,13.7493333 201.522667,13.6213333 201.784,13.472 C202.045333,13.3226667 202.272,13.1626667 202.464,12.992 L202.464,12.992 L201.968,12.08 C201.861333,12.176 201.709333,12.2826667 201.512,12.4 C201.314667,12.5173333 201.088,12.624 200.832,12.72 C200.576,12.816 200.306667,12.8986667 200.024,12.968 C199.741333,13.0373333 199.456,13.072 199.168,13.072 C198.304,13.072 197.613333,12.8346667 197.096,12.36 C196.578667,11.8853333 196.32,11.168 196.32,10.208 L196.32,10.208 L202.512,10.208 C202.565333,9.30133333 202.501333,8.56266667 202.32,7.992 C202.138667,7.42133333 201.88,6.97333333 201.544,6.648 C201.208,6.32266667 200.821333,6.10133333 200.384,5.984 C199.946667,5.86666667 199.504,5.808 199.056,5.808 C198.437333,5.808 197.877333,5.90133333 197.376,6.088 C196.874667,6.27466667 196.448,6.544 196.096,6.896 C195.744,7.248 195.474667,7.68533333 195.288,8.208 C195.101333,8.73066667 195.008,9.328 195.008,10 C195.008,10.64 195.093333,11.216 195.264,11.728 C195.434667,12.24 195.685333,12.68 196.016,13.048 C196.346667,13.416 196.757333,13.6986667 197.248,13.896 C197.738667,14.0933333 198.304,14.192 198.944,14.192 Z M201.344,9.088 L196.368,9.088 C196.410667,8.672 196.509333,8.32266667 196.664,8.04 C196.818667,7.75733333 197.016,7.528 197.256,7.352 C197.496,7.176 197.773333,7.05066667 198.088,6.976 C198.402667,6.90133333 198.736,6.864 199.088,6.864 C199.738667,6.864 200.264,7.05866667 200.664,7.448 C201.064,7.83733333 201.290667,8.384 201.344,9.088 L201.344,9.088 Z M211.12,14 L211.12,12.928 L208.048,12.928 L208.048,8.208 C208.112,8.112 208.213333,7.99466667 208.352,7.856 C208.490667,7.71733333 208.658667,7.57866667 208.856,7.44 C209.053333,7.30133333 209.285333,7.184 209.552,7.088 C209.818667,6.992 210.117333,6.944 210.448,6.944 C210.8,6.944 211.042667,7.104 211.176,7.424 C211.309333,7.744 211.376,8.24533333 211.376,8.928 L211.376,8.928 L212.496,8.912 C212.496,8.432 212.474667,8.00266667 212.432,7.624 C212.389333,7.24533333 212.306667,6.92266667 212.184,6.656 C212.061333,6.38933333 211.890667,6.18666667 211.672,6.048 C211.453333,5.90933333 211.162667,5.84 210.8,5.84 C210.181333,5.84 209.648,5.95733333 209.2,6.192 C208.752,6.42666667 208.346667,6.70933333 207.984,7.04 L207.984,7.04 L207.904,7.04 L207.648,6 L204.656,6 L204.656,7.072 L206.816,7.072 L206.816,12.928 L204.656,12.928 L204.656,14 L211.12,14 Z M218.736,14 L222.112,6 L220.72,6 L218.208,12.448 L218.032,12.448 L215.36,6 L213.888,6 L217.328,14 L218.736,14 Z M227.856,4.72 C228.165333,4.72 228.424,4.624 228.632,4.432 C228.84,4.24 228.944,4.00533333 228.944,3.728 C228.944,3.44 228.84,3.192 228.632,2.984 C228.424,2.776 228.165333,2.672 227.856,2.672 C227.557333,2.672 227.312,2.776 227.12,2.984 C226.928,3.192 226.832,3.44 226.832,3.728 C226.832,4.00533333 226.928,4.24 227.12,4.432 C227.312,4.624 227.557333,4.72 227.856,4.72 Z M231.264,14 L231.264,12.928 L228.544,12.928 L228.544,6 L224.48,6 L224.48,7.072 L227.264,7.072 L227.264,12.928 L224.48,12.928 L224.48,14 L231.264,14 Z M237.584,14.192 C238,14.192 238.386667,14.1546667 238.744,14.08 C239.101333,14.0053333 239.426667,13.9066667 239.72,13.784 C240.013333,13.6613333 240.272,13.5306667 240.496,13.392 C240.72,13.2533333 240.906667,13.12 241.056,12.992 L241.056,12.992 L240.496,12.064 C240.176,12.3413333 239.778667,12.5653333 239.304,12.736 C238.829333,12.9066667 238.341333,12.992 237.84,12.992 C237.370667,12.992 236.941333,12.9226667 236.552,12.784 C236.162667,12.6453333 235.829333,12.448 235.552,12.192 C235.274667,11.936 235.061333,11.624 234.912,11.256 C234.762667,10.888 234.688,10.4693333 234.688,10 C234.688,8.93333333 234.944,8.15466667 235.456,7.664 C235.968,7.17333333 236.746667,6.928 237.792,6.928 C238.069333,6.928 238.349333,6.95733333 238.632,7.016 C238.914667,7.07466667 239.178667,7.14666667 239.424,7.232 L239.424,7.232 L239.424,8.752 L240.576,8.752 L240.576,6.528 L240.592,6.48 C240.250667,6.30933333 239.832,6.15466667 239.336,6.016 C238.84,5.87733333 238.197333,5.808 237.408,5.808 C236.789333,5.808 236.229333,5.90133333 235.728,6.088 C235.226667,6.27466667 234.8,6.544 234.448,6.896 C234.096,7.248 233.826667,7.68533333 233.64,8.208 C233.453333,8.73066667 233.36,9.328 233.36,10 C233.36,10.6293333 233.450667,11.2026667 233.632,11.72 C233.813333,12.2373333 234.08,12.68 234.432,13.048 C234.784,13.416 235.224,13.6986667 235.752,13.896 C236.28,14.0933333 236.890667,14.192 237.584,14.192 Z M246.944,14.192 C247.285333,14.192 247.624,14.1626667 247.96,14.104 C248.296,14.0453333 248.618667,13.9626667 248.928,13.856 C249.237333,13.7493333 249.522667,13.6213333 249.784,13.472 C250.045333,13.3226667 250.272,13.1626667 250.464,12.992 L250.464,12.992 L249.968,12.08 C249.861333,12.176 249.709333,12.2826667 249.512,12.4 C249.314667,12.5173333 249.088,12.624 248.832,12.72 C248.576,12.816 248.306667,12.8986667 248.024,12.968 C247.741333,13.0373333 247.456,13.072 247.168,13.072 C246.304,13.072 245.613333,12.8346667 245.096,12.36 C244.578667,11.8853333 244.32,11.168 244.32,10.208 L244.32,10.208 L250.512,10.208 C250.565333,9.30133333 250.501333,8.56266667 250.32,7.992 C250.138667,7.42133333 249.88,6.97333333 249.544,6.648 C249.208,6.32266667 248.821333,6.10133333 248.384,5.984 C247.946667,5.86666667 247.504,5.808 247.056,5.808 C246.437333,5.808 245.877333,5.90133333 245.376,6.088 C244.874667,6.27466667 244.448,6.544 244.096,6.896 C243.744,7.248 243.474667,7.68533333 243.288,8.208 C243.101333,8.73066667 243.008,9.328 243.008,10 C243.008,10.64 243.093333,11.216 243.264,11.728 C243.434667,12.24 243.685333,12.68 244.016,13.048 C244.346667,13.416 244.757333,13.6986667 245.248,13.896 C245.738667,14.0933333 246.304,14.192 246.944,14.192 Z M249.344,9.088 L244.368,9.088 C244.410667,8.672 244.509333,8.32266667 244.664,8.04 C244.818667,7.75733333 245.016,7.528 245.256,7.352 C245.496,7.176 245.773333,7.05066667 246.088,6.976 C246.402667,6.90133333 246.736,6.864 247.088,6.864 C247.738667,6.864 248.264,7.05866667 248.664,7.448 C249.064,7.83733333 249.290667,8.384 249.344,9.088 L249.344,9.088 Z" id="OckamRegistryService" fill="#25B8E4"></path>
                    <path d="M19.35,6.03 C18.67,2.59 15.64,0 12,0 C9.11,0 6.6,1.64 5.35,4.03 C2.34,4.36 -1.77635684e-15,6.9 -1.77635684e-15,10 C-1.77635684e-15,13.3137085 2.6862915,16 6,16 L19,16 C20.3260824,16 21.597852,15.4732158 22.5355339,14.5355339 C23.4732158,13.597852 24,12.3260824 24,11 C24,8.36 21.95,6.22 19.35,6.03 Z" id="Path" fill="#00BAE9"></path>
                </g>
                <g id="Group-20" transform="translate(150.000000, 71.000000)" fill="#40A6C8" fill-rule="nonzero">
                    <polygon id="Path-5" points="5.1 0 5.099 65.5 9.1 65.5 4.6 74.5 0.1 65.5 4.099 65.5 4.1 0"></polygon>
                    <polygon id="Path-5-Copy" transform="translate(17.400000, 37.250000) rotate(-180.000000) translate(-17.400000, -37.250000) " points="17.9 -2.84217094e-14 17.9 65.5 21.9 65.5 17.4 74.5 12.9 65.5 16.9 65.5 16.9 -2.84217094e-14"></polygon>
                </g>
                <g id="Group-5" transform="translate(356.500000, 204.500000) rotate(-270.000000) translate(-356.500000, -204.500000) translate(348.000000, 193.000000)" fill="#40A6C8" fill-rule="nonzero">
                    <polygon id="Path-5" points="5 -5.68434189e-13 5 13.788 9 13.7882722 4.5 22.7882722 0 13.7882722 4 13.788 4 -5.68434189e-13"></polygon>
                    <polygon id="Path-5-Copy" transform="translate(12.500000, 11.394136) rotate(-180.000000) translate(-12.500000, -11.394136) " points="13 -1.13686838e-13 13 13.788 17 13.7882722 12.5 22.7882722 8 13.7882722 12 13.788 12 -1.13686838e-13"></polygon>
                </g>
                <path d="M457.388,205 L457.388,199.864 L462.412,199.864 L462.412,205 L463.74,205 L463.74,193.8 L462.412,193.8 L462.412,198.68 L457.388,198.68 L457.388,193.8 L456.06,193.8 L456.06,205 L457.388,205 Z M469.436,205.192 C470.033333,205.192 470.569333,205.117333 471.044,204.968 C471.518667,204.818667 471.918667,204.605333 472.244,204.328 C472.569333,204.050667 472.82,203.72 472.996,203.336 C473.172,202.952 473.26,202.52 473.26,202.04 C473.26,201.453333 473.113333,200.962667 472.82,200.568 C472.526667,200.173333 472.161333,199.834667 471.724,199.552 C471.286667,199.269333 470.812,199.021333 470.3,198.808 C469.788,198.594667 469.313333,198.378667 468.876,198.16 C468.438667,197.941333 468.073333,197.693333 467.78,197.416 C467.486667,197.138667 467.34,196.792 467.34,196.376 C467.34,196.162667 467.393333,195.96 467.5,195.768 C467.606667,195.576 467.758667,195.408 467.956,195.264 C468.153333,195.12 468.393333,195.005333 468.676,194.92 C468.958667,194.834667 469.276,194.792 469.628,194.792 C469.990667,194.792 470.332,194.813333 470.652,194.856 C470.972,194.898667 471.265333,194.952 471.532,195.016 L471.532,195.016 L471.532,196.728 L472.716,196.728 L472.716,194.168 L472.732,194.12 L472.716,194.12 L472.716,194.088 L472.684,194.104 C472.374667,193.954667 471.958667,193.834667 471.436,193.744 C470.913333,193.653333 470.332,193.608 469.692,193.608 C469.137333,193.608 468.633333,193.674667 468.18,193.808 C467.726667,193.941333 467.34,194.130667 467.02,194.376 C466.7,194.621333 466.452,194.92 466.276,195.272 C466.1,195.624 466.012,196.018667 466.012,196.456 C466.012,197.074667 466.158667,197.584 466.452,197.984 C466.745333,198.384 467.110667,198.722667 467.548,199 C467.985333,199.277333 468.46,199.517333 468.972,199.72 C469.484,199.922667 469.958667,200.130667 470.396,200.344 C470.833333,200.557333 471.198667,200.802667 471.492,201.08 C471.785333,201.357333 471.932,201.714667 471.932,202.152 C471.932,202.472 471.865333,202.749333 471.732,202.984 C471.598667,203.218667 471.417333,203.413333 471.188,203.568 C470.958667,203.722667 470.689333,203.834667 470.38,203.904 C470.070667,203.973333 469.74,204.008 469.388,204.008 C468.982667,204.008 468.58,203.952 468.18,203.84 C467.78,203.728 467.42,203.586667 467.1,203.416 L467.1,203.416 L467.1,201.64 L465.916,201.64 L465.916,204.232 L465.9,204.28 C466.038667,204.354667 466.228,204.445333 466.468,204.552 C466.708,204.658667 466.98,204.76 467.284,204.856 C467.588,204.952 467.921333,205.032 468.284,205.096 C468.646667,205.16 469.030667,205.192 469.436,205.192 Z M476.556,205 L476.556,197.544 L476.364,196.04 L476.444,196.04 L477.18,197.4 L478.892,200.152 L479.292,200.152 L480.924,197.416 L481.692,196.04 L481.772,196.04 L481.612,197.56 L481.612,205 L482.94,205 L482.94,193.8 L481.74,193.8 L479.18,198.056 L479.148,198.056 L476.492,193.8 L475.26,193.8 L475.26,205 L476.556,205 Z" id="HSM" fill="#25B8E4" fill-rule="nonzero"></path>
                <path d="M430,189 L421,193 L421,199 C421,204.55 424.84,209.74 430,211 C435.16,209.74 439,204.55 439,199 L439,193 L430,189 M430,195 C431.4,195 432.8,196.1 432.8,197.5 L432.8,199 C433.4,199 434,199.6 434,200.3 L434,203.8 C434,204.4 433.4,205 432.7,205 L427.2,205 C426.6,205 426,204.4 426,203.7 L426,200.2 C426,199.6 426.6,199 427.2,199 L427.2,197.5 C427.2,196.1 428.6,195 430,195 M430,196.2 C429.2,196.2 428.5,196.7 428.5,197.5 L428.5,199 L431.5,199 L431.5,197.5 C431.5,196.7 430.8,196.2 430,196.2 Z" id="Shape" fill="#00A8CC" fill-rule="nonzero"></path>
            </g>
        </g>
    </g>
</svg>