<?xml version="1.0" encoding="utf-8"?>
<!-- Generator: Adobe Illustrator 24.3.0, SVG Export Plug-In . SVG Version: 6.00 Build 0)  -->
<svg version="1.1" id="Warstwa_1" xmlns="http://www.w3.org/2000/svg" xmlns:xlink="http://www.w3.org/1999/xlink" x="0px" y="0px"
	 viewBox="0 0 600 600" style="enable-background:new 0 0 600 600;" xml:space="preserve">
<style type="text/css">
	.st0{opacity:0.1;}
	.st1{fill:#52C7EA;}
	.st2{fill:#05131C;}
	.st3{fill:#1B3144;}
	.st4{fill:#0A1A2B;}
	.st5{fill:#4BC7EC;}
	.st6{opacity:0.3;fill:url(#SVGID_1_);enable-background:new    ;}
	.st7{opacity:0.3;fill:url(#SVGID_2_);enable-background:new    ;}
	.st8{fill:#EC432D;}
	.st9{opacity:0.21;fill:url(#SVGID_3_);enable-background:new    ;}
	.st10{opacity:0.21;fill:url(#SVGID_4_);enable-background:new    ;}
	.st11{fill:#05151E;}
	.st12{fill:#162535;}
	.st13{fill:#152935;}
	.st14{opacity:0.3;fill:url(#SVGID_5_);enable-background:new    ;}
	.st15{opacity:0.3;fill:url(#SVGID_6_);enable-background:new    ;}
	.st16{opacity:0.21;fill:url(#SVGID_7_);enable-background:new    ;}
	.st17{opacity:0.3;fill:url(#SVGID_8_);enable-background:new    ;}
	.st18{enable-background:new    ;}
	.st19{clip-path:url(#SVGID_10_);}
</style>
<g>
	<g class="st0">
		<polygon class="st1" points="306.7,321.4 137.2,419.7 258.5,490.1 428.1,391.8 		"/>
		<polygon class="st1" points="428.1,391.9 258.5,490.1 379.9,560.5 549.5,462.3 		"/>
	</g>
	<rect x="136.6" y="338.9" class="st2" width="11.4" height="13.2"/>
	<polygon id="Path_105_" class="st2" points="258,422.6 427.6,324.3 306.2,253.9 136.6,352.2 	"/>
	<rect x="535.8" y="381.6" class="st2" width="13.2" height="13.1"/>
	<rect x="258" y="409.4" class="st2" width="13.2" height="13.2"/>
	<polygon id="Path_104_" class="st2" points="379.4,493 549,394.8 427.6,324.4 258,422.6 	"/>
	<polygon id="Path_103_" class="st3" points="379.1,479.9 549,381.6 427.3,311.3 258,409.4 	"/>
	<g>
		<path class="st4" d="M431,308.8c0,0,19.9-9.7,56,14.1c31.4,20.8,71.6,45.3,71.6,45.3L379.3,469.6c0,0-36-18.2-63.3-34.1
			c-24.7-14.4-57-26.7-57-26.7L431,308.8z"/>
		<path class="st5" d="M379.3,470l-0.2-0.1c-0.4-0.2-36.3-18.4-63.4-34.1c-24.4-14.2-56.6-26.6-56.9-26.7l-0.7-0.3l0.6-0.4l172-100
			c0.2-0.1,20.5-9.5,56.4,14.2c31.1,20.5,71.2,45,71.6,45.3l0.5,0.3l-0.5,0.3L379.3,470z M259.8,408.7c4.7,1.8,33.9,13.4,56.4,26.5
			c26.1,15.2,60.5,32.7,63.2,34l178.7-101c-4.7-2.9-41.9-25.7-71.1-45c-35.2-23.2-55.2-14.4-55.7-14.1L259.8,408.7z"/>
	</g>
	<g>
		<path class="st4" d="M430,309.4c0,0,20.5-11.9,56.6,12c31.4,20.8,66.9,31.3,66.9,31.3L370.9,457.3c0,0-29.3-10.8-55.8-27.7
			c-24.1-15.4-57-20.2-57-20.2L430,309.4z"/>
		<path class="st5" d="M370.9,457.7l-0.1-0.1c-0.3-0.1-29.7-11-55.9-27.7c-23.8-15.2-56.6-20.1-56.9-20.2l-1-0.1l0.8-0.5l172-100
			c0.2-0.1,21.1-11.7,57,12c31,20.5,66.5,31.1,66.8,31.2l0.8,0.2l-0.7,0.4L370.9,457.7z M259,409.2c5.6,0.9,34.6,6.3,56.2,20.1
			c25.2,16.1,53.3,26.8,55.6,27.6l181.9-104.2c-5.3-1.7-37.6-12.2-66.2-31.1c-18.6-12.3-32.9-14.9-41.6-14.9c0,0-0.1,0-0.1,0
			c-9.3,0-14.4,2.9-14.5,2.9L259,409.2z"/>
	</g>
	<linearGradient id="SVGID_1_" gradientUnits="userSpaceOnUse" x1="258.0186" y1="372.7853" x2="547.0405" y2="372.7853">
		<stop  offset="0" style="stop-color:#52C7EA;stop-opacity:0.7"/>
		<stop  offset="1" style="stop-color:#000000"/>
	</linearGradient>
	<path class="st6" d="M430,309.4c0,0,22.4-18.2,58.5,5.6c31.4,20.8,58.5,18.3,58.5,18.3L366.4,442.8c0,0-20.8-7.1-47.3-24
		c-24.1-15.4-61-9.4-61-9.4L430,309.4z"/>
	<polygon id="Path_102_" class="st3" points="257.7,409.4 427.6,311 305.9,240.7 136.6,338.9 	"/>
	<g>
		<path class="st4" d="M257.7,409.4c0,0-63.6-54.4-113.3-69.6c1.4-0.8,165.4-105.5,165.4-105.5s11.9,17.1,117.8,76.8
			C427.3,311.3,257.7,409.4,257.7,409.4z"/>
		<path class="st5" d="M257.7,409.9l-0.2-0.2c-0.6-0.5-64.2-54.5-113.2-69.5l-0.7-0.2l0.7-0.4c1.3-0.8,163.7-104.5,165.3-105.5
			l0.3-0.2l0.2,0.3c0.1,0.2,13.3,17.8,117.7,76.7l0.4,0.2l-0.4,0.3c-0.3,0.2-130.1,75.4-169.9,98.4L257.7,409.9z M145.2,339.7
			C193,354.7,254,405.8,257.8,409c6.6-3.8,159.3-92.2,169.1-97.9c-54.4-30.7-83.4-49.8-98.1-60.5c-14.1-10.2-18.2-14.8-19.1-15.8
			C300.3,240.7,156.1,332.9,145.2,339.7z"/>
	</g>
	<g>
		<path class="st4" d="M257.7,409.4c0,0-21.2-36.6-93.1-70.5c1.4-0.8,171.6-104.9,171.6-104.9s7.1,25.5,91.4,77.1
			C427.3,311.3,257.7,409.4,257.7,409.4z"/>
		<path class="st5" d="M257.6,409.8l-0.2-0.3c-0.1-0.1-5.5-9.3-19.6-22.5c-13-12.2-36.3-30.4-73.4-47.9l-0.6-0.3l0.6-0.3
			c1.3-0.8,169.9-103.9,171.6-104.9l0.4-0.2l0.1,0.4c0.1,0.3,8.1,26.1,91.2,76.9l0.4,0.2l-0.4,0.3c-0.3,0.2-130.1,75.4-169.9,98.4
			L257.6,409.8z M165.3,338.8c36.8,17.5,60,35.6,73,47.8c12.8,12,18.5,20.7,19.5,22.3c7.6-4.4,159.5-92.3,169.1-97.9
			c-43.2-26.5-65.7-46-76.9-57.7c-10.6-11.1-13.4-17.3-14-18.9C325.4,240.9,175.6,332.6,165.3,338.8z"/>
	</g>
	<linearGradient id="SVGID_2_" gradientUnits="userSpaceOnUse" x1="189.6115" y1="321.5208" x2="427.5769" y2="321.5208">
		<stop  offset="0" style="stop-color:#52C7EA;stop-opacity:0.7"/>
		<stop  offset="1" style="stop-color:#000000"/>
	</linearGradient>
	<path class="st7" d="M257.7,408.8c0,0-17.7-42.1-68.1-72.5c1.4-0.8,174.7-102,174.7-102s-0.8,15.9,63.3,76.1
		C427.3,310.6,257.7,408.8,257.7,408.8z"/>
	<g id="_-_-Ockam.io_2_" transform="translate(168.000000, 150.000000)">
		<g id="img-hero_2_">
			
				<ellipse id="Oval_49_" transform="matrix(0.9987 -5.101106e-02 5.101106e-02 0.9987 -10.3275 10.8199)" class="st8" cx="206.8" cy="207.7" rx="1.7" ry="1.1"/>
			
				<ellipse id="Oval-2_2_" transform="matrix(0.9987 -5.101106e-02 5.101106e-02 0.9987 -10.456 11.7788)" class="st8" cx="225.5" cy="210.7" rx="1.7" ry="1.1"/>
			
				<ellipse id="Oval-3_2_" transform="matrix(0.9987 -5.101120e-02 5.101120e-02 0.9987 -11.7838 13.2289)" class="st8" cx="253.3" cy="237.5" rx="1.7" ry="1.1"/>
			
				<ellipse id="Oval-4_2_" transform="matrix(0.9987 -5.101106e-02 5.101106e-02 0.9987 -9.9838 12.4942)" class="st8" cx="239.8" cy="201.8" rx="1.7" ry="1.1"/>
			
				<ellipse id="Oval-5_2_" transform="matrix(0.9987 -5.101106e-02 5.101106e-02 0.9987 -12.1284 11.5541)" class="st8" cx="220.3" cy="243.4" rx="1.7" ry="1.1"/>
			
				<ellipse id="Oval-6_2_" transform="matrix(0.9987 -5.101106e-02 5.101106e-02 0.9987 -11.4002 10.3496)" class="st8" cx="197.1" cy="228.5" rx="1.7" ry="1.1"/>
			
				<ellipse id="Oval-7_2_" transform="matrix(0.9987 -5.101106e-02 5.101106e-02 0.9987 -11.656 12.2695)" class="st8" cx="234.5" cy="234.5" rx="1.7" ry="1.1"/>
			
				<ellipse id="Oval-8_2_" transform="matrix(0.9987 -5.101106e-02 5.101106e-02 0.9987 -10.5838 12.738)" class="st8" cx="244.3" cy="213.7" rx="1.7" ry="1.1"/>
			
				<ellipse id="Oval-9_2_" transform="matrix(0.9987 -5.101106e-02 5.101106e-02 0.9987 -11.5281 11.3103)" class="st8" cx="215.8" cy="231.5" rx="1.7" ry="1.1"/>
			
				<ellipse id="Oval-10_2_" transform="matrix(0.9987 -5.101106e-02 5.101106e-02 0.9987 -11.1835 12.9836)" class="st8" cx="248.8" cy="225.6" rx="1.7" ry="1.1"/>
			
				<ellipse id="Oval-11_2_" transform="matrix(0.9987 -5.101106e-02 5.101106e-02 0.9987 -10.9287 11.0647)" class="st8" cx="211.3" cy="219.6" rx="1.7" ry="1.1"/>
			
				<ellipse id="Oval-12_2_" transform="matrix(0.9987 -5.101106e-02 5.101106e-02 0.9987 -10.711 13.6991)" class="st8" cx="263" cy="216.7" rx="1.7" ry="1.1"/>
			<path id="Path_101_" class="st1" d="M204.3,209.2c-9.3,2.7-13.7,9.5-9.9,15.2c0.5,0.8,1.1,1.5,1.8,2.1c-0.5,0.1-1,0.3-1.5,0.5
				c-0.3,0.2-0.5,0.4-0.7,0.6c-6.6-5.8-4.2-14.1,5.3-18.5c1.3-0.6,2.7-1.1,4.1-1.5C203.4,208.2,203.7,208.8,204.3,209.2z"/>
			<path id="Path-2_2_" class="st1" d="M208.8,221.1c-4.1,1.2-7.5,3.3-9.4,5.9c-0.8-0.4-1.7-0.6-2.5-0.5c2.2-3.1,6.2-5.5,11.1-6.9
				C207.9,220.1,208.2,220.7,208.8,221.1z"/>
			<path id="Path-3_2_" class="st1" d="M207.8,213.9c0.5,1.4,1.4,2.6,2.7,3.7c-0.5,0.1-1,0.3-1.5,0.5c-0.2,0.2-0.5,0.3-0.6,0.6
				c-3-2.6-4.3-5.9-3.5-9.2c0.3,0.1,0.7,0.2,1,0.3c0.5,0.1,1.1,0.1,1.7,0C207.2,211.1,207.3,212.6,207.8,213.9L207.8,213.9z"/>
			<path id="Path-4_2_" class="st1" d="M212.6,231c-0.3,0.6-0.1,1.2,0.4,1.7c-5.3,0.5-10.5-0.4-14.6-2.3c0.3-0.1,0.7-0.2,1-0.4
				c0.4-0.2,0.7-0.5,0.9-0.9C203.7,230.7,208.1,231.4,212.6,231L212.6,231z"/>
			<path id="Path-5_2_" class="st1" d="M214.9,229.5c-0.8,0.1-1.6,0.5-2.1,1.1c-3-2.6-4.3-5.9-3.5-9.2c0.9,0.3,1.8,0.4,2.7,0.3
				C211.4,224.4,212.5,227.2,214.9,229.5z"/>
			<path id="Path-6_2_" class="st1" d="M197.6,231.7c-0.3,6.3,7.6,11.4,17.6,11.3c0.6,0,1.3,0,1.9-0.1c-0.2,0.3-0.2,0.7-0.1,1.1
				c0.1,0.2,0.3,0.5,0.5,0.7c-0.8,0.1-1.6,0.1-2.3,0.1c-11.5,0.1-20.6-5.7-20.3-13l0,0c0-0.5,0.1-1,0.2-1.5c0.9,0.3,1.8,0.4,2.7,0.3
				C197.7,230.9,197.6,231.3,197.6,231.7L197.6,231.7z"/>
			<path id="Path-7_2_" class="st1" d="M214.1,238.1c-0.6-1.6-0.7-3.3-0.3-4.9c0.8,0.3,1.8,0.4,2.7,0.3c-0.6,2.8,0.4,5.6,2.9,7.8
				c-0.9,0.2-1.7,0.6-2.1,1.1C215.9,241.3,214.8,239.8,214.1,238.1L214.1,238.1z"/>
			<path id="Path-8_2_" class="st1" d="M233.6,236.5c0.4,0.1,0.7,0.1,1.1,0c-2.2,3.1-6.2,5.6-11.1,6.9c0.1-0.6-0.2-1.2-0.8-1.6
				c4.1-1.2,7.5-3.3,9.4-5.9C232.6,236.3,233.1,236.4,233.6,236.5z"/>
			<path id="Path-9_2_" class="st1" d="M231.3,234c-0.2,0.6-0.1,1.2,0.4,1.7c-5.3,0.4-10.5-0.4-14.6-2.3c0.9-0.3,1.5-0.7,1.8-1.3
				C222.5,233.6,226.9,234.3,231.3,234L231.3,234z"/>
			<path id="Path-10_2_" class="st1" d="M250.1,237c-0.3,0.6-0.1,1.2,0.4,1.7c-5.3,0.5-10.5-0.4-14.6-2.3c0.9-0.3,1.5-0.7,1.9-1.3
				C241.2,236.6,245.6,237.3,250.1,237z"/>
			<path id="Path-11_2_" class="st1" d="M223.5,246c-0.7-0.2-1.3-0.5-1.9-0.8c0.9-0.3,1.6-0.8,1.8-1.3c0.5,0.2,1,0.4,1.5,0.6
				c8.5,3.1,19.8,1.1,25.1-4.5l0,0c0.3-0.3,0.6-0.7,0.9-1.1c0.8,0.4,1.7,0.6,2.5,0.6c-0.3,0.5-0.7,0.9-1.1,1.3
				C246.2,247.3,233.3,249.6,223.5,246L223.5,246z"/>
			<path id="Path-12_2_" class="st1" d="M248.9,227.7c-2.2,3.1-6.2,5.6-11.1,6.9c0.1-0.6-0.2-1.2-0.8-1.6c4.1-1.2,7.4-3.3,9.4-5.9
				C247.2,227.5,248,227.7,248.9,227.7L248.9,227.7z"/>
			<path id="Path-13_2_" class="st1" d="M252.2,231.3c-0.5-1.4-1.4-2.6-2.7-3.7c0.5-0.1,1-0.3,1.5-0.5c0.2-0.1,0.5-0.3,0.6-0.6
				c3,2.6,4.3,5.9,3.5,9.2c-0.8-0.4-1.8-0.4-2.6-0.3C252.8,234.1,252.7,232.6,252.2,231.3z"/>
			<path id="Path-14_2_" class="st1" d="M256.7,221.7c1.5-0.9,2.8-2.1,3.9-3.5c0.8,0.4,1.6,0.6,2.5,0.5c-2.2,3.1-6.2,5.6-11.1,6.9
				c0.1-0.6-0.2-1.2-0.8-1.6C253.2,223.5,255,222.7,256.7,221.7L256.7,221.7z"/>
			<path id="Path-15_2_" class="st1" d="M255.7,236c9.3-2.7,13.7-9.5,9.9-15.2c-0.5-0.8-1.1-1.5-1.8-2.1c0.5-0.1,1-0.3,1.5-0.5
				c0.3-0.2,0.5-0.4,0.7-0.6c6.6,5.8,4.2,14-5.3,18.5c-1.3,0.6-2.7,1.1-4.1,1.5C256.7,237,256.4,236.4,255.7,236z"/>
			<path id="Path-16_2_" class="st1" d="M247.4,214.2c0.2-0.3,0.2-0.7,0.1-1.1c-0.1-0.2-0.2-0.5-0.4-0.6c5.3-0.5,10.5,0.4,14.6,2.3
				c-0.3,0.1-0.7,0.2-1,0.4c-0.4,0.2-0.7,0.5-0.9,0.9C256.3,214.5,251.9,213.8,247.4,214.2L247.4,214.2z"/>
			<path id="Path-17_2_" class="st1" d="M245.1,215.7c0.8-0.1,1.6-0.5,2.1-1.1c3,2.6,4.3,5.9,3.5,9.3c-0.8-0.3-1.8-0.4-2.7-0.3
				C248.6,220.7,247.6,218,245.1,215.7z"/>
			<path id="Path-18_2_" class="st1" d="M238.4,199.9c-0.9,0.3-1.5,0.8-1.8,1.3c-0.5-0.2-1-0.4-1.5-0.6c-8.5-3.1-19.8-1.1-25,4.5
				l0,0c-0.3,0.3-0.6,0.7-0.9,1.1c-0.8-0.4-1.7-0.6-2.5-0.6c0.3-0.5,0.7-0.9,1.1-1.3c6.1-6.4,19-8.7,28.8-5.2
				C237.2,199.4,237.8,199.6,238.4,199.9z"/>
			<path id="Path-19_2_" class="st1" d="M245.9,207.1c0.6,1.6,0.7,3.3,0.3,4.9c-0.8-0.3-1.8-0.5-2.7-0.3c0.6-2.8-0.4-5.6-2.9-7.8
				c0.9-0.2,1.7-0.6,2.1-1.1C244.1,203.9,245.2,205.4,245.9,207.1L245.9,207.1z"/>
			<path id="Path-20_2_" class="st1" d="M262.5,213.5c0.3-6.3-7.6-11.4-17.6-11.3l0,0c-0.6,0-1.2,0-1.9,0.1c0.2-0.3,0.2-0.7,0.1-1.1
				c-0.1-0.2-0.3-0.5-0.5-0.6c0.8-0.1,1.6-0.1,2.3-0.1c11.5-0.1,20.6,5.7,20.3,13c0,0.5-0.1,1-0.2,1.5c-0.8-0.3-1.8-0.4-2.6-0.3
				C262.4,214.3,262.4,213.9,262.5,213.5L262.5,213.5z"/>
			<path id="Path-21_2_" class="st1" d="M222.4,210.2c-3.5-1.6-7.9-2.3-12.3-2c0.2-0.6,0.1-1.3-0.4-1.7c5.3-0.4,10.5,0.4,14.6,2.3
				C223.3,209.1,222.6,209.6,222.4,210.2z"/>
			<path id="Path-22_2_" class="st1" d="M226.5,208.7c-0.4-0.1-0.7-0.1-1.1,0c2.2-3.1,6.2-5.6,11.1-6.9c0,0.2,0,0.5,0,0.7
				c0.2,0.4,0.4,0.7,0.8,0.9c-4.1,1.2-7.5,3.3-9.4,5.9C227.4,208.9,227,208.7,226.5,208.7z"/>
			<path id="Path-23_2_" class="st1" d="M211.1,217.5c2.3-3.1,6.2-5.5,11.1-6.9c-0.1,0.6,0.2,1.2,0.9,1.6c-4.1,1.2-7.4,3.3-9.4,5.9
				C212.9,217.6,212,217.4,211.1,217.5L211.1,217.5z"/>
			<path id="Path-24_2_" class="st1" d="M228.7,211.2c0.2-0.6,0.1-1.3-0.4-1.7c5.3-0.4,10.5,0.4,14.6,2.3c-0.9,0.3-1.5,0.7-1.8,1.3
				C237.6,211.5,233.1,210.8,228.7,211.2L228.7,211.2z"/>
		</g>
	</g>
	<path class="st4" d="M340.2,335.8c-8.8-21.8-44.1-44.8-44.4-45l3.7-5.7c1.5,1,37.4,24.3,47,48.1L340.2,335.8z"/>
	<path class="st4" d="M357.1,325.6c-8.8-21.8-44.1-44.8-44.4-45l3.7-5.7c1.5,1,37.4,24.3,47,48.1L357.1,325.6z"/>
	<path class="st4" d="M294.5,366.6c-8.8-21.8-44.1-44.8-44.4-45l3.7-5.7c1.5,1,37.4,24.3,47,48.1L294.5,366.6z"/>
</g>
<g>
	<g>
		<g>
			
				<linearGradient id="SVGID_3_" gradientUnits="userSpaceOnUse" x1="-8637.2695" y1="-7911.2637" x2="-8611.2988" y2="-7911.2637" gradientTransform="matrix(-1.0408 0 0 1.0408 -8860.1699 8487.2422)">
				<stop  offset="0" style="stop-color:#52C7EA;stop-opacity:0.7"/>
				<stop  offset="1" style="stop-color:#000000"/>
			</linearGradient>
			<polyline class="st9" points="120.5,263.6 102.1,258.6 123.1,243.6 129.1,254 120.5,263.6 			"/>
			
				<linearGradient id="SVGID_4_" gradientUnits="userSpaceOnUse" x1="-8738.9854" y1="-7970.8301" x2="-8719.3438" y2="-7970.8301" gradientTransform="matrix(-1.0408 0 0 1.0408 -8860.1699 8487.2422)">
				<stop  offset="0" style="stop-color:#52C7EA;stop-opacity:0.7"/>
				<stop  offset="1" style="stop-color:#000000"/>
			</linearGradient>
			<polyline class="st10" points="233.7,198.5 229.6,195.9 224.2,197.6 214.5,199.4 215,193.3 230.6,183.8 234.9,183.8 233.7,198.5 
							"/>
			<path class="st2" d="M100.4,291.7L88.9,287c0,0-3.7-6.9-1.4-13.9c2.3-6.9,18.4-21.7,18.4-21.7l6.5,5.2l4.9,2.9L100.4,291.7z"/>
			
				<ellipse transform="matrix(0.531 -0.8474 0.8474 0.531 -182.6905 220.5379)" class="st11" cx="107.9" cy="275.3" rx="18.3" ry="10.4"/>
			
				<ellipse transform="matrix(0.531 -0.8474 0.8474 0.531 -182.6905 220.5379)" class="st3" cx="107.9" cy="275.3" rx="7.5" ry="4.3"/>
			<path class="st3" d="M101.9,287.3c0.4,0,0.9-0.2,1.1-0.6l13.7-23.3c0.4-0.6,0.2-1.4-0.5-1.7c-0.6-0.4-1.4-0.2-1.7,0.5l-13.7,23.3
				c-0.4,0.6-0.2,1.4,0.5,1.7C101.4,287.2,101.7,287.3,101.9,287.3z"/>
			<path class="st3" d="M114.2,279.9c0.5,0,0.9-0.2,1.1-0.7c0.3-0.6,0.1-1.4-0.5-1.7l-13.5-7.1c-0.6-0.3-1.4-0.1-1.7,0.5
				c-0.3,0.6-0.1,1.4,0.5,1.7l13.5,7.1C113.8,279.8,114,279.9,114.2,279.9z"/>
			<path class="st2" d="M212.3,229.9l-11.4-4.7c0,0-3.7-6.9-1.4-13.9c2.3-6.9,18.4-21.7,18.4-21.7l6.5,5.2l4.9,2.9L212.3,229.9z"/>
			
				<ellipse transform="matrix(0.531 -0.8474 0.8474 0.531 -77.8291 286.4365)" class="st11" cx="219.8" cy="213.5" rx="18.3" ry="10.4"/>
			
				<ellipse transform="matrix(0.531 -0.8474 0.8474 0.531 -77.8291 286.4365)" class="st12" cx="219.8" cy="213.5" rx="7.5" ry="4.3"/>
			<path class="st12" d="M213.8,225.5c0.4,0,0.9-0.2,1.1-0.6l13.7-23.3c0.4-0.6,0.2-1.4-0.5-1.7c-0.6-0.4-1.4-0.2-1.7,0.5
				l-13.7,23.3c-0.4,0.6-0.2,1.4,0.5,1.7C213.4,225.5,213.6,225.5,213.8,225.5z"/>
			<path class="st12" d="M226.2,218.1c0.5,0,0.9-0.2,1.1-0.7c0.3-0.6,0.1-1.4-0.5-1.7l-13.5-7.1c-0.6-0.3-1.4-0.1-1.7,0.5
				c-0.3,0.6-0.1,1.4,0.5,1.7l13.5,7.1C225.8,218.1,226,218.1,226.2,218.1z"/>
			<polygon class="st3" points="139,150.8 191.4,126.6 249.1,161.2 87.8,260.1 73.1,260.1 31.9,234.9 29.4,224.5 104.6,167.3 			"/>
			<polygon class="st13" points="87.8,260.1 87.2,277.4 95.5,260.9 112.1,250.5 116.5,248.8 123.4,260.1 194.5,220.2 206.9,197.6 
				227.9,184.6 233.3,192.5 244.3,186.4 249.1,161.2 			"/>
			<polygon class="st12" points="29.4,224.5 29.1,237.5 29.8,248.8 74.4,274.8 87.3,275.7 88.7,260.1 73.1,260.1 31.9,234.9 			"/>
			<polygon class="st2" points="30,237.5 28.9,239.3 27.9,251.4 74.8,280 88.7,280 89.9,275.7 98.1,260.9 117.1,249.8 122.6,258.8 
				120.5,263.6 193.5,221.9 196.1,221.9 210.2,198.5 229.6,187 233.2,193.3 233.7,198.5 245.8,189 246.1,185.5 244.7,184 
				233.4,191.6 228.1,182.9 206.1,195.9 195.7,215.9 193.7,219.3 123.4,259.2 115.9,246.2 95.8,258.3 87.5,274 74.5,274 30.8,247.9 
							"/>
			
				<linearGradient id="SVGID_5_" gradientUnits="userSpaceOnUse" x1="-8657.9834" y1="-7957.3662" x2="-8561.8438" y2="-7957.3662" gradientTransform="matrix(-1.0408 0 0 1.0408 -8860.1699 8487.2422)">
				<stop  offset="0" style="stop-color:#52C7EA;stop-opacity:0.7"/>
				<stop  offset="1" style="stop-color:#000000"/>
			</linearGradient>
			<polygon class="st14" points="50.6,210.7 105,241.9 150.6,197.2 104.6,169.3 			"/>
			<polygon class="st4" points="104.6,169.3 139.9,153.3 190.9,183.7 150.6,197.2 			"/>
			<polyline class="st4" points="145.1,150.8 191.1,179.4 242.2,160.4 191.1,130 145.9,150.8 			"/>
			
				<linearGradient id="SVGID_6_" gradientUnits="userSpaceOnUse" x1="-8597.5322" y1="-7919.1768" x2="-8541.8408" y2="-7919.1768" gradientTransform="matrix(-1.0408 0 0 1.0408 -8860.1699 8487.2422)">
				<stop  offset="0" style="stop-color:#52C7EA;stop-opacity:0.7"/>
				<stop  offset="1" style="stop-color:#000000"/>
			</linearGradient>
			<polygon class="st15" points="29.9,228 32.6,236.7 51.4,249.7 73.1,260.1 87.7,260.9 87.6,262.7 72.9,261.8 50.4,251.4 
				31.7,237.5 29.8,229.7 			"/>
			<polygon class="st4" points="107.5,243.6 151.3,198.5 191.5,184.6 191.9,190.7 			"/>
			<polygon class="st12" points="151,198.5 155.8,213.3 159.8,210.8 154.7,197.4 			"/>
			
				<linearGradient id="SVGID_7_" gradientUnits="userSpaceOnUse" x1="8112.1899" y1="8499.5186" x2="8131.9971" y2="8499.5186" gradientTransform="matrix(1.0408 0 9.106582e-02 -1.0408 -9144.4111 9113.7754)">
				<stop  offset="0" style="stop-color:#52C7EA;stop-opacity:0.7"/>
				<stop  offset="1" style="stop-color:#000000"/>
			</linearGradient>
			<polygon class="st16" points="74.5,274 72.9,261.8 87.6,262.7 93.5,262.7 87.5,274 			"/>
		</g>
	</g>
	<g>
		<polygon class="st3" points="482.2,258.9 455.9,258.9 463.8,80.4 472,80.4 		"/>
		<path class="st3" d="M484,69.5c-4.9-8.3-12.8-12.8-17.6-10c-0.6,0.3-1.1,0.8-1.5,1.3l-20.2,16.5c-4.8,2.7-4.8,11.7,0.1,20
			c4.9,8.3,12.8,12.8,17.6,10c0.6-0.3,1.1-0.8,1.5-1.3L484,89.5C488.9,86.7,488.8,77.8,484,69.5z"/>
		
			<linearGradient id="SVGID_8_" gradientUnits="userSpaceOnUse" x1="-449.7307" y1="92.2879" x2="-424.8429" y2="92.2879" gradientTransform="matrix(1 0 0 1 890.6929 0)">
			<stop  offset="0" style="stop-color:#52C7EA;stop-opacity:0.7"/>
			<stop  offset="1" style="stop-color:#000000"/>
		</linearGradient>
		<path class="st17" d="M462.2,87.3c4.9,8.3,4.9,17.2,0.1,20s-12.7-1.7-17.6-10s-4.9-17.2-0.1-20S457.3,79,462.2,87.3z"/>
		<g>
			<path class="st5" d="M469.7,106c6,0,12.4-2.1,18.2-6.4l70.6-51.9c1.1-0.8,1.3-2.1,0.8-2.9c-0.5-0.8-1.4-1-2.3-0.5L448.2,93.7
				l6.5,6.4C458.7,104.1,464,106,469.7,106z M558,44.7c0.3,0,0.6,0.2,0.8,0.5c0.3,0.5,0.2,1.4-0.6,2.1l-70.6,51.9
				c-11.1,8.1-24.4,8.4-32.3,0.6l-5.9-5.8l108-49.1C557.5,44.7,557.8,44.7,558,44.7z"/>
			<path class="st5" d="M452.6,196.6c0.1,0,0.2,0,0.4,0c0.9-0.2,1.9-1,1.8-2.2l-5.9-101.7l-8.2,6c-10.2,7.5-14.9,20.2-11.4,30.8
				l21.8,66C451.3,196.2,451.9,196.6,452.6,196.6z M448.3,93.9l5.9,100.5c0,0.9-0.6,1.5-1.3,1.6c-0.3,0.1-0.9,0.1-1.1-0.6l-21.8-66
				c-3.4-10.4,1.2-22.7,11.2-30.1L448.3,93.9z"/>
			<path class="st5" d="M449,93.8l1.1-10.9c1.4-13.8-5.5-25.2-16.8-27.7L363,39.5c-1.1-0.2-2,0.5-2.3,1.4c-0.4,0.9-0.3,2,0.7,2.6
				L449,93.8z M362.6,40.1c0.1,0,0.2,0,0.3,0l70.3,15.7c11,2.5,17.7,13.6,16.3,27l-1,9.9L361.7,43c-0.6-0.4-0.7-1.2-0.4-1.8
				C361.5,40.6,362,40.1,362.6,40.1z"/>
		</g>
		<g>
			<g>
				<g class="st18">
					<defs>
						<polygon id="SVGID_9_" class="st18" points="437.8,100.5 437.9,73 462.4,87.1 462.3,114.7 						"/>
					</defs>
					<clipPath id="SVGID_10_">
						<use xlink:href="#SVGID_9_"  style="overflow:visible;"/>
					</clipPath>
					<g class="st19">
						<g>
							<g>
								<g>
									<path class="st3" d="M450.1,80c-6.8-3.9-12.3-0.9-12.3,6.7c0,7.6,5.4,17,12.2,20.9c6.8,3.9,12.3,0.9,12.3-6.7
										C462.3,93.3,456.9,83.9,450.1,80"/>
								</g>
							</g>
						</g>
					</g>
				</g>
			</g>
		</g>
		<path class="st3" d="M440.3,82.4c-0.6-0.5-1.5-0.3-1.8,0.3l-13.1,24.2c-1.3,2.5,0.7,5.4,3.5,5.1l26-2.6c0.8-0.1,1.3-0.8,1-1.6
			l-6.5-17.9L440.3,82.4z"/>
		<ellipse class="st3" cx="469.1" cy="258.9" rx="13.2" ry="3.7"/>
	</g>
	<polygon class="st5" points="414.9,301.5 414.6,300.9 452.6,279.4 453,280.1 	"/>
	<g>
		<ellipse class="st4" cx="452.8" cy="280.5" rx="7.6" ry="3.7"/>
		<path class="st5" d="M452.8,284.6c-4.5,0-8-1.8-8-4.1s3.5-4.1,8-4.1c4.5,0,8,1.8,8,4.1S457.3,284.6,452.8,284.6z M452.8,277.2
			c-3.9,0-7.3,1.5-7.3,3.3s3.3,3.3,7.3,3.3c3.9,0,7.3-1.5,7.3-3.3S456.7,277.2,452.8,277.2z"/>
	</g>
	<polygon class="st5" points="208,297.5 153.1,266.9 153.5,266.2 208.4,296.8 	"/>
	<g>
		<ellipse class="st4" cx="153.3" cy="267.3" rx="7.6" ry="3.7"/>
		<path class="st5" d="M153.3,271.4c-4.5,0-8-1.8-8-4.1c0-2.3,3.5-4.1,8-4.1s8,1.8,8,4.1C161.3,269.6,157.8,271.4,153.3,271.4z
			 M153.3,264.1c-3.9,0-7.3,1.5-7.3,3.3c0,1.8,3.3,3.3,7.3,3.3s7.3-1.5,7.3-3.3C160.5,265.6,157.2,264.1,153.3,264.1z"/>
	</g>
	<polygon class="st5" points="238.1,279 194.5,253.8 224.2,239.5 224.5,240.2 196.1,253.9 238.5,278.4 	"/>
	<g>
		<ellipse class="st4" cx="224.6" cy="239.3" rx="7.6" ry="3.7"/>
		<path class="st5" d="M224.6,243.3c-4.5,0-8-1.8-8-4.1c0-2.3,3.5-4.1,8-4.1s8,1.8,8,4.1C232.6,241.5,229.1,243.3,224.6,243.3z
			 M224.6,236c-3.9,0-7.3,1.5-7.3,3.3c0,1.8,3.3,3.3,7.3,3.3s7.3-1.5,7.3-3.3C231.8,237.5,228.5,236,224.6,236z"/>
	</g>
	
		<rect x="493.3" y="427.8" transform="matrix(0.4971 -0.8677 0.8677 0.4971 -161.3476 665.7654)" class="st5" width="0.8" height="88.4"/>
	<g>
		<ellipse class="st4" cx="530.5" cy="493.3" rx="7.6" ry="3.7"/>
		<path class="st5" d="M530.5,497.3c-4.5,0-8-1.8-8-4.1s3.5-4.1,8-4.1c4.5,0,8,1.8,8,4.1S535,497.3,530.5,497.3z M530.5,490
			c-3.9,0-7.3,1.5-7.3,3.3s3.3,3.3,7.3,3.3s7.3-1.5,7.3-3.3S534.4,490,530.5,490z"/>
	</g>
	<polygon class="st5" points="178.4,501 178,500.4 282.4,437.7 282.8,438.3 	"/>
	<g>
		<ellipse class="st4" cx="175.6" cy="501.6" rx="7.6" ry="3.7"/>
		<path class="st5" d="M175.6,505.7c-4.5,0-8-1.8-8-4.1c0-2.3,3.5-4.1,8-4.1c4.5,0,8,1.8,8,4.1C183.7,503.9,180.1,505.7,175.6,505.7
			z M175.6,498.3c-3.9,0-7.3,1.5-7.3,3.3s3.3,3.3,7.3,3.3c3.9,0,7.3-1.5,7.3-3.3S179.6,498.3,175.6,498.3z"/>
	</g>
	<polygon class="st5" points="524.7,442.6 524.5,442.5 495.3,427 495.7,426.4 524.7,441.7 559.9,418.9 560.3,419.5 	"/>
	<g>
		<ellipse class="st4" cx="560.1" cy="419.2" rx="7.6" ry="3.7"/>
		<path class="st5" d="M560.1,423.3c-4.5,0-8-1.8-8-4.1s3.5-4.1,8-4.1c4.5,0,8,1.8,8,4.1S564.6,423.3,560.1,423.3z M560.1,415.9
			c-3.9,0-7.3,1.5-7.3,3.3s3.3,3.3,7.3,3.3c3.9,0,7.3-1.5,7.3-3.3S564,415.9,560.1,415.9z"/>
	</g>
	<polygon class="st5" points="164.3,460.5 164.1,460.4 128.6,438.5 90.6,460.4 90.3,459.7 128.6,437.6 128.8,437.7 164.3,459.6 
		241.8,413 242.2,413.6 	"/>
	<g>
		<ellipse class="st4" cx="90.5" cy="460" rx="7.6" ry="3.7"/>
		<path class="st5" d="M90.5,464.1c-4.5,0-8-1.8-8-4.1c0-2.3,3.5-4.1,8-4.1s8,1.8,8,4.1C98.5,462.3,95,464.1,90.5,464.1z
			 M90.5,456.8c-3.9,0-7.3,1.5-7.3,3.3s3.3,3.3,7.3,3.3s7.3-1.5,7.3-3.3S94.4,456.8,90.5,456.8z"/>
	</g>
</g>
<g>
</g>
<g>
</g>
<g>
</g>
<g>
</g>
<g>
</g>
<g>
</g>
<g>
</g>
<g>
</g>
<g>
</g>
<g>
</g>
<g>
</g>
</svg>
