<?xml version="1.0" encoding="utf-8"?>
<!-- Generator: Adobe Illustrator 24.3.0, SVG Export Plug-In . SVG Version: 6.00 Build 0)  -->
<svg version="1.1" id="Warstwa_1" xmlns="http://www.w3.org/2000/svg" xmlns:xlink="http://www.w3.org/1999/xlink" x="0px" y="0px"
	 viewBox="0 0 324 527" style="enable-background:new 0 0 324 527;" xml:space="preserve">
<style type="text/css">
	.st0{fill:#00BAE9;}
	.st1{fill:none;stroke:#4BC7EC;}
	.st2{fill-rule:evenodd;clip-rule:evenodd;fill:#25B8E4;fill-opacity:6.000000e-02;}
	.st3{enable-background:new    ;}
	.st4{fill:#00C2EC;}
	.st5{fill-rule:evenodd;clip-rule:evenodd;fill:#0A1A2B;}
	.st6{filter:url(#Adobe_OpacityMaskFilter);}
	.st7{fill-rule:evenodd;clip-rule:evenodd;fill:#FFFFFF;}
	.st8{mask:url(#mask-2_1_);fill:none;stroke:#4BC7EC;}
	.st9{fill:#00DEFC;}
	.st10{fill:#00CCF2;}
	.st11{fill:#00D6F8;}
	.st12{fill:#00A8CC;}
</style>
<g id="Content">
	<g id="router_mobile" transform="translate(-2.000000, -361.000000)">
		<g id="_router_infographic" transform="translate(2.000000, 361.000000)">
			<g id="Group" transform="translate(127.000000, 72.000000)">
				
					<g id="icon_x2F_fingerprint-copy" transform="translate(12.000000, 12.000000) rotate(-360.000000) translate(-12.000000, -12.000000) ">
					<path id="Shape" class="st0" d="M9,3L5,7h3v7h2V7h3 M16,17v-7h-2v7h-3l4,4l4-4H16z"/>
				</g>
			</g>
			<g id="Group_1_" transform="translate(126.000000, 431.000000)">
				
					<g id="icon_x2F_fingerprint-copy_1_" transform="translate(12.000000, 12.000000) rotate(-360.000000) translate(-12.000000, -12.000000) ">
					<path id="Shape_1_" class="st0" d="M9,3L5,7h3v7h2V7h3 M16,17v-7h-2v7h-3l4,4l4-4H16z"/>
				</g>
			</g>
			<g id="Group_2_" transform="translate(127.000000, 207.000000)">
				
					<g id="icon_x2F_fingerprint-copy_2_" transform="translate(12.000000, 12.000000) rotate(-360.000000) translate(-12.000000, -12.000000) ">
					<path id="Shape_2_" class="st0" d="M9,3L5,7h3v7h2V7h3 M16,17v-7h-2v7h-3l4,4l4-4H16z"/>
				</g>
			</g>
			<g id="Group_3_" transform="translate(127.000000, 311.000000)">
				
					<g id="icon_x2F_fingerprint-copy_3_" transform="translate(12.000000, 12.000000) rotate(-360.000000) translate(-12.000000, -12.000000) ">
					<path id="Shape_3_" class="st0" d="M9,3L5,7h3v7h2V7h3 M16,17v-7h-2v7h-3l4,4l4-4H16z"/>
				</g>
			</g>
			<path id="Rectangle" class="st1" d="M34.5,111.5h208c4.4,0,8,3.6,8,8v295c0,4.4-3.6,8-8,8h-208c-4.4,0-8-3.6-8-8v-295
				C26.5,115.1,30.1,111.5,34.5,111.5z"/>
			<path id="Rectangle-Copy-15" class="st2" d="M47,0h183c2.8,0,5,2.2,5,5v54c0,2.8-2.2,5-5,5H47c-2.8,0-5-2.2-5-5V5
				C42,2.2,44.2,0,47,0z"/>
			<path id="Path" class="st0" d="M86.3,30c-0.7-3.4-3.7-6-7.3-6c-2.9,0-5.4,1.6-6.7,4c-3,0.3-5.3,2.9-5.3,6c0,3.3,2.7,6,6,6h13
				c1.3,0,2.6-0.5,3.5-1.5c0.9-0.9,1.5-2.2,1.5-3.5C91,32.4,88.9,30.2,86.3,30z"/>
			<g class="st3">
				<path class="st4" d="M107.8,24.3c-0.2-0.1-0.3-0.1-0.5-0.1c-0.2,0-0.4,0-0.7,0c-0.4,0-0.8,0.1-1.1,0.2c-0.4,0.1-0.7,0.4-1,0.7
					s-0.5,0.7-0.7,1.2c-0.2,0.5-0.3,1.1-0.3,1.9c0,0.7,0.1,1.3,0.2,1.8c0.2,0.5,0.4,0.9,0.6,1.3c0.3,0.3,0.6,0.6,1,0.8
					s0.8,0.3,1.3,0.3c0.2,0,0.5,0,0.7-0.1c0.2,0,0.4-0.1,0.6-0.2v-1.4h1v1.9l0,0c-0.3,0.2-0.6,0.4-1.1,0.5s-1,0.2-1.6,0.2
					c-0.6,0-1.1-0.1-1.6-0.3c-0.5-0.2-0.9-0.5-1.3-0.9c-0.4-0.4-0.6-0.9-0.8-1.6s-0.3-1.4-0.3-2.3c0-0.9,0.1-1.7,0.3-2.3
					c0.2-0.6,0.5-1.2,0.9-1.6s0.8-0.7,1.3-0.9c0.5-0.2,1.1-0.3,1.6-0.3c0.3,0,0.6,0,0.8,0c0.2,0,0.4,0.1,0.6,0.1s0.3,0.1,0.5,0.2
					c0.1,0.1,0.3,0.1,0.4,0.2h0v2.2h-1V24.3z"/>
				<path class="st4" d="M111.5,23.2h2.3v7.4c0,0.6,0.1,1,0.3,1.2c0.2,0.2,0.5,0.4,0.8,0.4c0.3,0,0.5,0,0.7-0.1
					c0.2-0.1,0.5-0.3,0.8-0.5l0.5,0.8c-0.1,0.1-0.3,0.2-0.5,0.3c-0.2,0.1-0.4,0.2-0.5,0.3c-0.2,0.1-0.4,0.1-0.6,0.2
					c-0.2,0-0.4,0.1-0.5,0.1c-0.3,0-0.7,0-0.9-0.1c-0.3-0.1-0.5-0.2-0.7-0.4s-0.3-0.5-0.4-0.8c-0.1-0.3-0.1-0.7-0.1-1.2v-6.5h-1.2
					V23.2z"/>
				<path class="st4" d="M119,29.5c0-1.1,0.3-2,0.9-2.7c0.6-0.7,1.4-1,2.5-1c0.6,0,1.1,0.1,1.5,0.3c0.4,0.2,0.8,0.5,1.1,0.8
					c0.3,0.3,0.5,0.7,0.6,1.2c0.1,0.4,0.2,0.9,0.2,1.4c0,0.6-0.1,1.1-0.2,1.5c-0.1,0.5-0.4,0.8-0.7,1.2c-0.3,0.3-0.6,0.6-1.1,0.7
					s-0.9,0.3-1.4,0.3c-0.6,0-1.1-0.1-1.5-0.3s-0.8-0.5-1.1-0.8c-0.3-0.3-0.5-0.7-0.6-1.2C119.1,30.5,119,30,119,29.5z M120.2,29.5
					c0,0.3,0,0.7,0.1,1c0.1,0.3,0.2,0.6,0.4,0.9c0.2,0.3,0.4,0.5,0.7,0.6c0.3,0.2,0.6,0.2,1,0.2c0.7,0,1.3-0.2,1.7-0.7
					c0.4-0.5,0.6-1.1,0.6-2c0-0.3,0-0.7-0.1-1c-0.1-0.3-0.2-0.6-0.4-0.9c-0.2-0.3-0.4-0.5-0.7-0.6c-0.3-0.2-0.6-0.2-1-0.2
					c-0.7,0-1.3,0.2-1.7,0.7S120.2,28.6,120.2,29.5z"/>
				<path class="st4" d="M131.7,26h2v4.8c0,0.5,0,0.9,0.1,1.3h0.9V33h-1.9l0-1.2h-0.1c-0.2,0.4-0.6,0.7-1,1s-0.9,0.4-1.5,0.4
					c-0.4,0-0.8,0-1.1-0.1c-0.3-0.1-0.6-0.3-0.7-0.5c-0.2-0.2-0.3-0.6-0.4-1c-0.1-0.4-0.1-0.9-0.1-1.5v-3.1h-0.9V26h2v3.8
					c0,0.4,0,0.7,0,1c0,0.3,0.1,0.6,0.2,0.8s0.3,0.4,0.5,0.5c0.2,0.1,0.5,0.2,0.8,0.2c0.5,0,0.9-0.2,1.3-0.5s0.6-0.7,0.8-1.2v-3.6
					h-0.9V26z"/>
				<path class="st4" d="M139.9,23.2h2.3v7.4c0,0.1,0,0.2,0,0.3s0,0.3,0,0.4c0,0.1,0,0.3,0,0.4c0,0.1,0,0.3,0.1,0.4h0.9V33h-1.9
					l-0.1-1.1h-0.1c-0.2,0.4-0.5,0.7-0.9,0.9c-0.4,0.2-0.9,0.4-1.4,0.4c-1.1,0-1.8-0.3-2.3-0.9c-0.5-0.6-0.7-1.5-0.7-2.8
					c0-0.6,0.1-1.1,0.3-1.6c0.2-0.5,0.4-0.8,0.7-1.1c0.3-0.3,0.7-0.5,1.1-0.7c0.4-0.2,0.9-0.2,1.5-0.2c0.2,0,0.4,0,0.5,0
					c0.2,0,0.3,0,0.4,0s0.3,0,0.4,0.1c0.1,0,0.2,0.1,0.4,0.1v-2h-1.2V23.2z M139,32.2c0.6,0,1-0.1,1.3-0.4c0.3-0.3,0.5-0.7,0.7-1.3
					v-3.2c-0.2-0.1-0.4-0.2-0.7-0.3s-0.6-0.1-1-0.1c-0.7,0-1.3,0.2-1.8,0.7c-0.4,0.4-0.6,1.1-0.6,2.1c0,0.4,0,0.7,0.1,1.1
					c0.1,0.3,0.2,0.6,0.3,0.9c0.2,0.2,0.4,0.4,0.6,0.6C138.3,32.2,138.6,32.2,139,32.2z"/>
				<path class="st4" d="M153.9,31.6c0.3,0.1,0.6,0.3,0.9,0.4c0.4,0.1,0.7,0.1,1.1,0.1c0.3,0,0.6,0,0.9-0.1c0.3-0.1,0.5-0.2,0.7-0.3
					s0.4-0.3,0.5-0.5s0.2-0.4,0.2-0.7c0-0.4-0.1-0.7-0.4-0.9c-0.3-0.2-0.6-0.5-1-0.6c-0.4-0.2-0.8-0.4-1.2-0.5
					c-0.4-0.2-0.9-0.4-1.2-0.6c-0.4-0.2-0.7-0.5-1-0.9c-0.3-0.4-0.4-0.8-0.4-1.3c0-0.4,0.1-0.7,0.2-1c0.2-0.3,0.4-0.6,0.7-0.8
					c0.3-0.2,0.6-0.4,1-0.5c0.4-0.1,0.8-0.2,1.3-0.2c0.6,0,1.1,0,1.5,0.1c0.5,0.1,0.8,0.2,1.1,0.3l0,0v0h0l0,0v2.2h-1v-1.5
					c-0.2-0.1-0.5-0.1-0.8-0.1s-0.6-0.1-0.9-0.1c-0.3,0-0.6,0-0.8,0.1c-0.2,0.1-0.5,0.2-0.6,0.3c-0.2,0.1-0.3,0.3-0.4,0.4
					c-0.1,0.2-0.1,0.3-0.1,0.5c0,0.4,0.1,0.7,0.4,0.9c0.3,0.2,0.6,0.5,1,0.7c0.4,0.2,0.8,0.4,1.2,0.6c0.4,0.2,0.9,0.4,1.2,0.7
					c0.4,0.2,0.7,0.5,1,0.9s0.4,0.8,0.4,1.3c0,0.4-0.1,0.8-0.2,1.1c-0.2,0.3-0.4,0.6-0.7,0.9s-0.6,0.4-1.1,0.6
					c-0.4,0.1-0.9,0.2-1.4,0.2c-0.4,0-0.7,0-1-0.1c-0.3-0.1-0.6-0.1-0.9-0.2c-0.3-0.1-0.5-0.2-0.7-0.3c-0.2-0.1-0.4-0.2-0.5-0.2l0,0
					v-2.3h1V31.6z"/>
				<path class="st4" d="M167.6,32.1c-0.2,0.1-0.4,0.3-0.6,0.4c-0.2,0.1-0.5,0.2-0.7,0.3c-0.3,0.1-0.6,0.2-0.8,0.2
					c-0.3,0.1-0.6,0.1-0.9,0.1c-0.6,0-1.1-0.1-1.5-0.3c-0.4-0.2-0.8-0.4-1.1-0.7c-0.3-0.3-0.5-0.7-0.7-1.2c-0.1-0.4-0.2-1-0.2-1.5
					c0-0.6,0.1-1.1,0.2-1.6c0.2-0.5,0.4-0.8,0.7-1.1c0.3-0.3,0.7-0.5,1.1-0.7c0.4-0.2,0.9-0.2,1.5-0.2c0.4,0,0.8,0.1,1.2,0.2
					s0.7,0.3,1,0.6c0.3,0.3,0.5,0.7,0.7,1.2c0.2,0.5,0.2,1.1,0.2,1.9h-5.4c0,0.8,0.2,1.5,0.7,1.9c0.5,0.4,1.1,0.6,1.8,0.6
					c0.3,0,0.5,0,0.7-0.1c0.2-0.1,0.5-0.1,0.7-0.2c0.2-0.1,0.4-0.2,0.6-0.3c0.2-0.1,0.3-0.2,0.4-0.3L167.6,32.1z M164.7,26.8
					c-0.3,0-0.6,0-0.9,0.1c-0.3,0.1-0.5,0.2-0.7,0.3c-0.2,0.2-0.4,0.4-0.5,0.6c-0.1,0.2-0.2,0.6-0.3,0.9h4.3c0-0.6-0.2-1.1-0.6-1.4
					C165.7,26.9,165.2,26.8,164.7,26.8z"/>
				<path class="st4" d="M169.5,33v-0.9h1.9v-5.1h-1.9V26h2.6l0.2,0.9h0.1c0.3-0.3,0.7-0.5,1.1-0.7c0.4-0.2,0.9-0.3,1.4-0.3
					c0.3,0,0.6,0.1,0.8,0.2s0.3,0.3,0.4,0.5s0.2,0.5,0.2,0.8s0.1,0.7,0.1,1.1l-1,0c0-0.6-0.1-1-0.2-1.3c-0.1-0.3-0.3-0.4-0.6-0.4
					c-0.3,0-0.6,0-0.8,0.1s-0.4,0.2-0.6,0.3c-0.2,0.1-0.3,0.2-0.4,0.4c-0.1,0.1-0.2,0.2-0.3,0.3v4.1h2.7V33H169.5z"/>
				<path class="st4" d="M181.2,31.6h0.2l2.2-5.6h1.2l-3,7h-1.2l-3-7h1.3L181.2,31.6z"/>
				<path class="st4" d="M186.9,33v-0.9h2.4v-5.1h-2.4V26h3.5v6.1h2.4V33H186.9z M188.9,24c0-0.3,0.1-0.5,0.3-0.7
					c0.2-0.2,0.4-0.3,0.6-0.3c0.3,0,0.5,0.1,0.7,0.3c0.2,0.2,0.3,0.4,0.3,0.7c0,0.2-0.1,0.4-0.3,0.6c-0.2,0.2-0.4,0.3-0.7,0.3
					c-0.3,0-0.5-0.1-0.6-0.3S188.9,24.3,188.9,24z"/>
				<path class="st4" d="M199.9,27.1c-0.2-0.1-0.4-0.1-0.7-0.2c-0.2-0.1-0.5-0.1-0.7-0.1c-0.9,0-1.6,0.2-2,0.6s-0.7,1.1-0.7,2
					c0,0.4,0.1,0.8,0.2,1.1c0.1,0.3,0.3,0.6,0.6,0.8c0.2,0.2,0.5,0.4,0.9,0.5c0.3,0.1,0.7,0.2,1.1,0.2c0.4,0,0.9-0.1,1.3-0.2
					c0.4-0.2,0.8-0.4,1-0.6l0.5,0.8c-0.1,0.1-0.3,0.2-0.5,0.3c-0.2,0.1-0.4,0.2-0.7,0.3c-0.3,0.1-0.5,0.2-0.9,0.3
					c-0.3,0.1-0.7,0.1-1,0.1c-0.6,0-1.1-0.1-1.6-0.3s-0.8-0.4-1.2-0.7c-0.3-0.3-0.5-0.7-0.7-1.2c-0.2-0.5-0.2-1-0.2-1.5
					c0-0.6,0.1-1.1,0.2-1.6c0.2-0.5,0.4-0.8,0.7-1.1c0.3-0.3,0.7-0.5,1.1-0.7c0.4-0.2,0.9-0.2,1.5-0.2c0.7,0,1.3,0.1,1.7,0.2
					c0.4,0.1,0.8,0.3,1.1,0.4l0,0v1.9h-1V27.1z"/>
				<path class="st4" d="M209.6,32.1c-0.2,0.1-0.4,0.3-0.6,0.4c-0.2,0.1-0.5,0.2-0.7,0.3c-0.3,0.1-0.6,0.2-0.8,0.2
					c-0.3,0.1-0.6,0.1-0.9,0.1c-0.6,0-1.1-0.1-1.5-0.3c-0.4-0.2-0.8-0.4-1.1-0.7c-0.3-0.3-0.5-0.7-0.7-1.2c-0.1-0.4-0.2-1-0.2-1.5
					c0-0.6,0.1-1.1,0.2-1.6c0.2-0.5,0.4-0.8,0.7-1.1c0.3-0.3,0.7-0.5,1.1-0.7s0.9-0.2,1.5-0.2c0.4,0,0.8,0.1,1.2,0.2s0.7,0.3,1,0.6
					c0.3,0.3,0.5,0.7,0.7,1.2c0.2,0.5,0.2,1.1,0.2,1.9h-5.4c0,0.8,0.2,1.5,0.7,1.9c0.5,0.4,1.1,0.6,1.8,0.6c0.3,0,0.5,0,0.7-0.1
					c0.2-0.1,0.5-0.1,0.7-0.2c0.2-0.1,0.4-0.2,0.6-0.3c0.2-0.1,0.3-0.2,0.4-0.3L209.6,32.1z M206.7,26.8c-0.3,0-0.6,0-0.9,0.1
					c-0.3,0.1-0.5,0.2-0.7,0.3c-0.2,0.2-0.4,0.4-0.5,0.6c-0.1,0.2-0.2,0.6-0.3,0.9h4.3c0-0.6-0.2-1.1-0.6-1.4
					C207.7,26.9,207.2,26.8,206.7,26.8z"/>
			</g>
			<g id="Rectangle_1_" transform="translate(301.000000, 103.000000)">
				<g id="Mask">
					<rect id="path-1_1_" class="st5" width="17" height="328"/>
				</g>
				<defs>
					<filter id="Adobe_OpacityMaskFilter" filterUnits="userSpaceOnUse" x="2" y="8" width="26" height="312">
						<feColorMatrix  type="matrix" values="1 0 0 0 0  0 1 0 0 0  0 0 1 0 0  0 0 0 1 0"/>
					</filter>
				</defs>
				<mask maskUnits="userSpaceOnUse" x="2" y="8" width="26" height="312" id="mask-2_1_">
					<g class="st6">
						<rect id="path-1_2_" class="st7" width="17" height="328"/>
					</g>
				</mask>
				<path class="st8" d="M10.5,8.5h9c4.4,0,8,3.6,8,8v295c0,4.4-3.6,8-8,8h-9c-4.4,0-8-3.6-8-8v-295C2.5,12.1,6.1,8.5,10.5,8.5z"/>
			</g>
			<path id="Rectangle-Copy-15_1_" class="st2" d="M47,463h183c2.8,0,5,2.2,5,5v54c0,2.8-2.2,5-5,5H47c-2.8,0-5-2.2-5-5v-54
				C42,465.2,44.2,463,47,463z"/>
			<path id="Shape_4_" class="st0" d="M72,500H62v-10h10 M76,494v-2h-2v-2c0-1.1-0.9-2-2-2h-2v-2h-2v2h-2v-2h-2v2h-2
				c-1.1,0-2,0.9-2,2v2h-2v2h2v2h-2v2h2v2c0,1.1,0.9,2,2,2h2v2h2v-2h2v2h2v-2h2c1.1,0,2-0.9,2-2v-2h2v-2h-2v-2 M68,496h-2v-2h2
				 M70,492h-6v6h6V492z"/>
			<g class="st3">
				<path class="st9" d="M85.6,485.5c0-1.5,0.3-2.7,0.8-3.5c0.5-0.8,1.4-1.2,2.5-1.2c0.6,0,1.1,0.1,1.5,0.3s0.8,0.5,1,1
					c0.3,0.4,0.4,0.9,0.6,1.5c0.1,0.6,0.2,1.2,0.2,1.9c0,1.5-0.3,2.7-0.8,3.5c-0.5,0.8-1.4,1.2-2.5,1.2c-0.6,0-1.1-0.1-1.5-0.3
					c-0.4-0.2-0.8-0.5-1-1c-0.3-0.4-0.4-0.9-0.6-1.5C85.7,486.8,85.6,486.2,85.6,485.5z M86.8,485.5c0,0.5,0,1,0.1,1.4
					c0.1,0.5,0.2,0.8,0.3,1.2c0.2,0.3,0.4,0.6,0.7,0.8c0.3,0.2,0.6,0.3,1,0.3c0.7,0,1.3-0.3,1.6-0.9s0.5-1.6,0.5-2.8
					c0-0.5,0-1-0.1-1.4s-0.2-0.9-0.3-1.2c-0.2-0.3-0.4-0.6-0.7-0.8c-0.3-0.2-0.6-0.3-1-0.3c-0.7,0-1.3,0.3-1.6,0.9
					C86.9,483.2,86.8,484.2,86.8,485.5z"/>
				<path class="st9" d="M98.2,484.5c-0.2-0.1-0.4-0.1-0.6-0.2c-0.2,0-0.5-0.1-0.7-0.1c-0.8,0-1.5,0.2-1.9,0.6s-0.6,1-0.6,1.9
					c0,0.4,0.1,0.7,0.2,1c0.1,0.3,0.3,0.6,0.5,0.8c0.2,0.2,0.5,0.4,0.8,0.5c0.3,0.1,0.7,0.2,1,0.2c0.4,0,0.8-0.1,1.2-0.2
					s0.7-0.3,1-0.6l0.5,0.8c-0.1,0.1-0.3,0.2-0.5,0.3c-0.2,0.1-0.4,0.2-0.6,0.3s-0.5,0.2-0.8,0.2c-0.3,0.1-0.6,0.1-0.9,0.1
					c-0.6,0-1.1-0.1-1.5-0.2c-0.4-0.2-0.8-0.4-1.1-0.7c-0.3-0.3-0.5-0.7-0.6-1.1c-0.1-0.4-0.2-0.9-0.2-1.4c0-0.5,0.1-1,0.2-1.5
					c0.2-0.4,0.4-0.8,0.7-1.1c0.3-0.3,0.6-0.5,1-0.7c0.4-0.2,0.9-0.2,1.4-0.2c0.6,0,1.2,0.1,1.6,0.2c0.4,0.1,0.7,0.2,1,0.4l0,0v1.8
					h-0.9V484.5z"/>
				<path class="st9" d="M100.3,480.9h2.1v5.4h0.7l2.6-2.8h1.2l-2.9,3.1l2.4,2.5h0.8v0.9h-1.3l-2.8-2.9h-0.7v2.9h-1v-8.2h-1.1V480.9
					z"/>
				<path class="st9" d="M108.9,484c0.4-0.2,0.8-0.4,1.3-0.5c0.5-0.1,0.9-0.1,1.4-0.1c0.4,0,0.8,0.1,1.1,0.2
					c0.3,0.1,0.5,0.3,0.7,0.5c0.2,0.2,0.3,0.5,0.3,0.8c0.1,0.3,0.1,0.6,0.1,0.9c0,0.3,0,0.7,0,1.1c0,0.4,0,0.7,0,1.1
					c0,0.4,0,0.8,0.1,1.2h0.9v0.8h-1.7l-0.1-1h-0.1c-0.1,0.1-0.1,0.2-0.2,0.3c-0.1,0.1-0.2,0.2-0.4,0.4c-0.2,0.1-0.4,0.2-0.6,0.3
					c-0.2,0.1-0.5,0.1-0.9,0.1c-0.6,0-1.2-0.2-1.5-0.5s-0.6-0.8-0.6-1.4c0-0.4,0.1-0.8,0.3-1.1c0.2-0.3,0.5-0.5,0.8-0.7
					s0.8-0.2,1.3-0.3c0.5,0,1.1,0,1.7,0.1c0-0.4,0-0.7,0-1c0-0.3-0.1-0.5-0.2-0.6c-0.1-0.2-0.3-0.3-0.5-0.3
					c-0.2-0.1-0.4-0.1-0.7-0.1c-0.4,0-0.8,0.1-1.1,0.2c-0.4,0.1-0.7,0.2-1,0.3L108.9,484z M110.8,489.2c0.2,0,0.5,0,0.7-0.1
					s0.4-0.2,0.5-0.3c0.2-0.1,0.3-0.3,0.4-0.4c0.1-0.1,0.2-0.3,0.2-0.4v-0.9c-0.5-0.1-0.9-0.1-1.2-0.1s-0.7,0-1,0.1
					c-0.3,0.1-0.5,0.2-0.6,0.4c-0.2,0.2-0.2,0.4-0.2,0.7c0,0.3,0.1,0.5,0.3,0.7C110,489.1,110.4,489.2,110.8,489.2z"/>
				<path class="st9" d="M118.4,490v-4.3c0-0.2,0-0.4,0-0.5c0-0.2,0-0.3-0.1-0.5c0-0.1-0.1-0.2-0.2-0.3c-0.1-0.1-0.2-0.1-0.4-0.1
					c-0.3,0-0.5,0.1-0.7,0.4c-0.2,0.2-0.4,0.5-0.5,0.9v4.5h-1v-6.5h0.7l0.2,0.8h0.1c0.1-0.1,0.2-0.3,0.3-0.4
					c0.1-0.1,0.2-0.2,0.3-0.3s0.2-0.2,0.4-0.2c0.1,0,0.3-0.1,0.6-0.1c0.1,0,0.3,0,0.4,0.1s0.3,0.1,0.4,0.2c0.1,0.1,0.2,0.2,0.3,0.3
					c0.1,0.1,0.1,0.3,0.2,0.5c0.2-0.3,0.4-0.6,0.7-0.8s0.6-0.3,1-0.3c0.3,0,0.5,0,0.7,0.1c0.2,0.1,0.3,0.2,0.4,0.4s0.2,0.4,0.2,0.6
					s0.1,0.5,0.1,0.8v4.6h-1v-4.4c0-0.2,0-0.4,0-0.5s0-0.3-0.1-0.4c0-0.1-0.1-0.2-0.2-0.3s-0.2-0.1-0.3-0.1c-0.3,0-0.6,0.1-0.8,0.4
					c-0.2,0.2-0.4,0.6-0.5,1v4.3H118.4z"/>
				<path class="st9" d="M136.9,489.2c-0.2,0.1-0.3,0.3-0.6,0.4c-0.2,0.1-0.4,0.2-0.7,0.3c-0.3,0.1-0.5,0.2-0.8,0.2
					c-0.3,0-0.5,0.1-0.8,0.1c-0.5,0-1-0.1-1.4-0.2c-0.4-0.2-0.7-0.4-1-0.7c-0.3-0.3-0.5-0.7-0.6-1.1s-0.2-0.9-0.2-1.4
					c0-0.5,0.1-1,0.2-1.5s0.4-0.8,0.7-1.1c0.3-0.3,0.6-0.5,1-0.7c0.4-0.2,0.9-0.2,1.4-0.2c0.4,0,0.7,0,1.1,0.1
					c0.4,0.1,0.7,0.3,0.9,0.5c0.3,0.3,0.5,0.6,0.6,1.1c0.1,0.5,0.2,1.1,0.2,1.8h-5c0,0.8,0.2,1.4,0.6,1.7s1,0.6,1.7,0.6
					c0.2,0,0.5,0,0.7-0.1c0.2-0.1,0.4-0.1,0.7-0.2c0.2-0.1,0.4-0.2,0.6-0.3s0.3-0.2,0.4-0.3L136.9,489.2z M134.1,484.2
					c-0.3,0-0.6,0-0.8,0.1s-0.5,0.2-0.7,0.3c-0.2,0.1-0.4,0.3-0.5,0.6c-0.1,0.2-0.2,0.5-0.2,0.9h4c0-0.6-0.2-1-0.6-1.3
					C135.1,484.4,134.7,484.2,134.1,484.2z"/>
				<path class="st9" d="M138.7,485.8c0-0.1,0-0.2,0-0.3c0-0.1,0-0.3,0-0.4c0-0.1,0-0.3,0-0.4c0-0.1,0-0.2,0-0.3h-0.9v-0.8h1.7
					l0.1,1.1h0.1c0.1-0.1,0.2-0.3,0.3-0.4c0.1-0.1,0.3-0.3,0.5-0.4s0.4-0.2,0.6-0.3c0.2-0.1,0.5-0.1,0.7-0.1c0.4,0,0.8,0,1.1,0.1
					c0.3,0.1,0.6,0.2,0.8,0.5s0.4,0.5,0.5,0.9c0.1,0.4,0.2,0.9,0.2,1.4v3.7h-1v-3.5c0-0.7-0.1-1.3-0.3-1.6s-0.7-0.5-1.3-0.5
					c-0.2,0-0.4,0-0.7,0.1c-0.2,0.1-0.4,0.2-0.6,0.4c-0.2,0.1-0.3,0.3-0.5,0.5c-0.1,0.2-0.2,0.4-0.3,0.6v4.1h-1V485.8z"/>
				<path class="st9" d="M146.4,484c0.4-0.2,0.8-0.4,1.3-0.5c0.5-0.1,0.9-0.1,1.4-0.1c0.4,0,0.8,0.1,1.1,0.2
					c0.3,0.1,0.5,0.3,0.7,0.5c0.2,0.2,0.3,0.5,0.3,0.8c0.1,0.3,0.1,0.6,0.1,0.9c0,0.3,0,0.7,0,1.1c0,0.4,0,0.7,0,1.1
					c0,0.4,0,0.8,0.1,1.2h0.9v0.8h-1.7l-0.1-1h-0.1c-0.1,0.1-0.1,0.2-0.2,0.3c-0.1,0.1-0.2,0.2-0.4,0.4c-0.2,0.1-0.4,0.2-0.6,0.3
					c-0.2,0.1-0.5,0.1-0.9,0.1c-0.6,0-1.2-0.2-1.5-0.5s-0.6-0.8-0.6-1.4c0-0.4,0.1-0.8,0.3-1.1c0.2-0.3,0.5-0.5,0.8-0.7
					s0.8-0.2,1.3-0.3c0.5,0,1.1,0,1.7,0.1c0-0.4,0-0.7,0-1c0-0.3-0.1-0.5-0.2-0.6c-0.1-0.2-0.3-0.3-0.5-0.3
					c-0.2-0.1-0.4-0.1-0.7-0.1c-0.4,0-0.8,0.1-1.1,0.2c-0.4,0.1-0.7,0.2-1,0.3L146.4,484z M148.3,489.2c0.2,0,0.5,0,0.7-0.1
					s0.4-0.2,0.5-0.3c0.2-0.1,0.3-0.3,0.4-0.4c0.1-0.1,0.2-0.3,0.2-0.4v-0.9c-0.5-0.1-0.9-0.1-1.2-0.1s-0.7,0-1,0.1
					c-0.3,0.1-0.5,0.2-0.6,0.4c-0.2,0.2-0.2,0.4-0.2,0.7c0,0.3,0.1,0.5,0.3,0.7C147.5,489.1,147.9,489.2,148.3,489.2z"/>
				<path class="st9" d="M152.5,480.9h2.1v3.3h0.1c0.2-0.3,0.5-0.5,0.9-0.7s0.7-0.2,1.2-0.2c1.9,0,2.9,1.1,2.9,3.3
					c0,1.1-0.3,2-0.9,2.6c-0.6,0.6-1.5,0.9-2.6,0.9c-0.5,0-1-0.1-1.5-0.2c-0.4-0.1-0.8-0.2-0.9-0.4v-7.8h-1.1V480.9z M156.6,484.2
					c-0.5,0-0.9,0.1-1.3,0.4c-0.3,0.3-0.6,0.7-0.7,1.2v3c0.2,0.1,0.4,0.2,0.7,0.2c0.3,0.1,0.6,0.1,0.9,0.1c0.3,0,0.7,0,0.9-0.1
					s0.5-0.3,0.7-0.5c0.2-0.2,0.4-0.5,0.5-0.8c0.1-0.3,0.2-0.7,0.2-1.2c0-0.3,0-0.6-0.1-0.9s-0.2-0.6-0.3-0.8
					c-0.2-0.2-0.3-0.4-0.6-0.5C157.2,484.3,156.9,484.2,156.6,484.2z"/>
				<path class="st9" d="M161.6,480.9h2.2v6.9c0,0.5,0.1,0.9,0.3,1.1c0.2,0.2,0.4,0.3,0.8,0.3c0.2,0,0.5,0,0.7-0.1
					c0.2-0.1,0.5-0.2,0.7-0.4l0.5,0.7c-0.1,0.1-0.3,0.2-0.5,0.3c-0.2,0.1-0.3,0.2-0.5,0.2c-0.2,0.1-0.3,0.1-0.5,0.1
					c-0.2,0-0.3,0.1-0.5,0.1c-0.3,0-0.6,0-0.9-0.1c-0.3-0.1-0.5-0.2-0.6-0.4c-0.2-0.2-0.3-0.4-0.4-0.7s-0.1-0.7-0.1-1.1v-6h-1.1
					V480.9z"/>
				<path class="st9" d="M174.4,489.2c-0.2,0.1-0.3,0.3-0.6,0.4s-0.4,0.2-0.7,0.3c-0.3,0.1-0.5,0.2-0.8,0.2c-0.3,0-0.5,0.1-0.8,0.1
					c-0.5,0-1-0.1-1.4-0.2c-0.4-0.2-0.7-0.4-1-0.7c-0.3-0.3-0.5-0.7-0.6-1.1s-0.2-0.9-0.2-1.4c0-0.5,0.1-1,0.2-1.5
					c0.2-0.4,0.4-0.8,0.7-1.1c0.3-0.3,0.6-0.5,1-0.7c0.4-0.2,0.9-0.2,1.4-0.2c0.4,0,0.7,0,1.1,0.1c0.4,0.1,0.7,0.3,0.9,0.5
					c0.3,0.3,0.5,0.6,0.6,1.1c0.1,0.5,0.2,1.1,0.2,1.8h-5c0,0.8,0.2,1.4,0.6,1.7c0.4,0.4,1,0.6,1.7,0.6c0.2,0,0.5,0,0.7-0.1
					c0.2-0.1,0.4-0.1,0.7-0.2c0.2-0.1,0.4-0.2,0.6-0.3s0.3-0.2,0.4-0.3L174.4,489.2z M171.6,484.2c-0.3,0-0.6,0-0.8,0.1
					s-0.5,0.2-0.7,0.3c-0.2,0.1-0.4,0.3-0.5,0.6c-0.1,0.2-0.2,0.5-0.2,0.9h4c0-0.6-0.2-1-0.6-1.3S172.2,484.2,171.6,484.2z"/>
				<path class="st9" d="M179.5,480.9h2.1v6.9c0,0.1,0,0.2,0,0.3c0,0.1,0,0.2,0,0.4c0,0.1,0,0.3,0,0.4c0,0.1,0,0.2,0.1,0.3h0.9v0.8
					h-1.7l-0.1-1h-0.1c-0.2,0.3-0.5,0.6-0.8,0.8c-0.4,0.2-0.8,0.3-1.3,0.3c-1,0-1.7-0.3-2.2-0.8c-0.5-0.5-0.7-1.4-0.7-2.6
					c0-0.5,0.1-1,0.2-1.4c0.2-0.4,0.4-0.8,0.7-1.1c0.3-0.3,0.6-0.5,1-0.6s0.9-0.2,1.4-0.2c0.2,0,0.3,0,0.5,0s0.3,0,0.4,0
					s0.2,0,0.3,0.1c0.1,0,0.2,0.1,0.4,0.1v-1.8h-1.1V480.9z M178.8,489.3c0.5,0,0.9-0.1,1.2-0.4c0.3-0.3,0.5-0.7,0.6-1.2v-3
					c-0.2-0.1-0.4-0.2-0.6-0.3s-0.6-0.1-0.9-0.1c-0.7,0-1.2,0.2-1.6,0.6c-0.4,0.4-0.6,1-0.6,1.9c0,0.4,0,0.7,0.1,1
					c0.1,0.3,0.2,0.6,0.3,0.8c0.2,0.2,0.4,0.4,0.6,0.5C178.1,489.2,178.4,489.3,178.8,489.3z"/>
			</g>
			<g class="st3">
				<path class="st9" d="M89.5,498.9h2.1v6.9c0,0.1,0,0.2,0,0.3c0,0.1,0,0.2,0,0.4c0,0.1,0,0.3,0,0.4c0,0.1,0,0.2,0.1,0.3h0.9v0.8
					h-1.7l-0.1-1h-0.1c-0.2,0.3-0.5,0.6-0.8,0.8c-0.4,0.2-0.8,0.3-1.3,0.3c-1,0-1.7-0.3-2.2-0.8c-0.5-0.5-0.7-1.4-0.7-2.6
					c0-0.5,0.1-1,0.2-1.4c0.2-0.4,0.4-0.8,0.7-1.1c0.3-0.3,0.6-0.5,1-0.6s0.9-0.2,1.4-0.2c0.2,0,0.3,0,0.5,0s0.3,0,0.4,0
					s0.2,0,0.3,0.1c0.1,0,0.2,0.1,0.4,0.1v-1.8h-1.1V498.9z M88.8,507.3c0.5,0,0.9-0.1,1.2-0.4c0.3-0.3,0.5-0.7,0.6-1.2v-3
					c-0.2-0.1-0.4-0.2-0.6-0.3c-0.2-0.1-0.6-0.1-0.9-0.1c-0.7,0-1.2,0.2-1.6,0.6c-0.4,0.4-0.6,1-0.6,1.9c0,0.4,0,0.7,0.1,1
					c0.1,0.3,0.2,0.6,0.3,0.8c0.2,0.2,0.4,0.4,0.6,0.5C88.1,507.2,88.4,507.3,88.8,507.3z"/>
				<path class="st9" d="M99.4,507.2c-0.2,0.1-0.3,0.3-0.6,0.4c-0.2,0.1-0.4,0.2-0.7,0.3c-0.3,0.1-0.5,0.2-0.8,0.2
					c-0.3,0-0.5,0.1-0.8,0.1c-0.5,0-1-0.1-1.4-0.2c-0.4-0.2-0.7-0.4-1-0.7c-0.3-0.3-0.5-0.7-0.6-1.1s-0.2-0.9-0.2-1.4
					c0-0.5,0.1-1,0.2-1.5s0.4-0.8,0.7-1.1c0.3-0.3,0.6-0.5,1-0.7c0.4-0.2,0.9-0.2,1.4-0.2c0.4,0,0.7,0,1.1,0.1
					c0.4,0.1,0.7,0.3,0.9,0.5c0.3,0.3,0.5,0.6,0.6,1.1c0.1,0.5,0.2,1.1,0.2,1.8h-5c0,0.8,0.2,1.4,0.6,1.7s1,0.6,1.7,0.6
					c0.2,0,0.5,0,0.7-0.1c0.2-0.1,0.4-0.1,0.7-0.2c0.2-0.1,0.4-0.2,0.6-0.3s0.3-0.2,0.4-0.3L99.4,507.2z M96.6,502.2
					c-0.3,0-0.6,0-0.8,0.1s-0.5,0.2-0.7,0.3c-0.2,0.1-0.4,0.3-0.5,0.6c-0.1,0.2-0.2,0.5-0.2,0.9h4c0-0.6-0.2-1-0.6-1.3
					C97.6,502.4,97.2,502.2,96.6,502.2z"/>
				<path class="st9" d="M103.9,506.7h0.1l2-5.2h1.1l-2.7,6.5h-1.1l-2.8-6.5h1.2L103.9,506.7z"/>
				<path class="st9" d="M108.9,508v-0.9h2.3v-4.8h-2.3v-0.9h3.3v5.6h2.2v0.9H108.9z M110.8,499.7c0-0.2,0.1-0.4,0.2-0.6
					c0.2-0.2,0.4-0.3,0.6-0.3c0.3,0,0.5,0.1,0.6,0.3s0.3,0.4,0.3,0.6c0,0.2-0.1,0.4-0.3,0.6c-0.2,0.2-0.4,0.2-0.6,0.2
					c-0.2,0-0.4-0.1-0.6-0.2C110.8,500.1,110.8,499.9,110.8,499.7z"/>
				<path class="st9" d="M120.7,502.5c-0.2-0.1-0.4-0.1-0.6-0.2c-0.2,0-0.5-0.1-0.7-0.1c-0.8,0-1.5,0.2-1.9,0.6s-0.6,1-0.6,1.9
					c0,0.4,0.1,0.7,0.2,1c0.1,0.3,0.3,0.6,0.5,0.8c0.2,0.2,0.5,0.4,0.8,0.5c0.3,0.1,0.7,0.2,1,0.2c0.4,0,0.8-0.1,1.2-0.2
					s0.7-0.3,1-0.6l0.5,0.8c-0.1,0.1-0.3,0.2-0.5,0.3c-0.2,0.1-0.4,0.2-0.6,0.3s-0.5,0.2-0.8,0.2c-0.3,0.1-0.6,0.1-0.9,0.1
					c-0.6,0-1.1-0.1-1.5-0.2c-0.4-0.2-0.8-0.4-1.1-0.7c-0.3-0.3-0.5-0.7-0.6-1.1c-0.1-0.4-0.2-0.9-0.2-1.4c0-0.5,0.1-1,0.2-1.5
					c0.2-0.4,0.4-0.8,0.7-1.1c0.3-0.3,0.6-0.5,1-0.7c0.4-0.2,0.9-0.2,1.4-0.2c0.6,0,1.2,0.1,1.6,0.2c0.4,0.1,0.7,0.2,1,0.4l0,0v1.8
					h-0.9V502.5z"/>
				<path class="st9" d="M129.4,507.2c-0.2,0.1-0.3,0.3-0.6,0.4c-0.2,0.1-0.4,0.2-0.7,0.3c-0.3,0.1-0.5,0.2-0.8,0.2
					c-0.3,0-0.5,0.1-0.8,0.1c-0.5,0-1-0.1-1.4-0.2c-0.4-0.2-0.7-0.4-1-0.7c-0.3-0.3-0.5-0.7-0.6-1.1s-0.2-0.9-0.2-1.4
					c0-0.5,0.1-1,0.2-1.5s0.4-0.8,0.7-1.1c0.3-0.3,0.6-0.5,1-0.7c0.4-0.2,0.9-0.2,1.4-0.2c0.4,0,0.7,0,1.1,0.1
					c0.4,0.1,0.7,0.3,0.9,0.5c0.3,0.3,0.5,0.6,0.6,1.1c0.1,0.5,0.2,1.1,0.2,1.8h-5c0,0.8,0.2,1.4,0.6,1.7s1,0.6,1.7,0.6
					c0.2,0,0.5,0,0.7-0.1c0.2-0.1,0.4-0.1,0.7-0.2c0.2-0.1,0.4-0.2,0.6-0.3s0.3-0.2,0.4-0.3L129.4,507.2z M126.6,502.2
					c-0.3,0-0.6,0-0.8,0.1s-0.5,0.2-0.7,0.3c-0.2,0.1-0.4,0.3-0.5,0.6c-0.1,0.2-0.2,0.5-0.2,0.9h4c0-0.6-0.2-1-0.6-1.3
					C127.6,502.4,127.2,502.2,126.6,502.2z"/>
				<path class="st9" d="M135.7,506.2c0-0.3-0.1-0.5-0.3-0.6s-0.5-0.3-0.8-0.4c-0.3-0.1-0.7-0.2-1-0.3c-0.4-0.1-0.7-0.2-1-0.3
					c-0.3-0.1-0.6-0.3-0.8-0.5c-0.2-0.2-0.3-0.5-0.3-0.9c0-0.3,0.1-0.6,0.2-0.8c0.1-0.2,0.3-0.4,0.6-0.6c0.2-0.2,0.5-0.3,0.8-0.3
					c0.3-0.1,0.6-0.1,1-0.1c0.6,0,1.1,0.1,1.6,0.2c0.4,0.2,0.8,0.3,1,0.5l-0.4,0.8c-0.3-0.2-0.6-0.3-0.9-0.4
					c-0.3-0.1-0.7-0.2-1.3-0.2c-0.2,0-0.4,0-0.6,0.1s-0.4,0.1-0.5,0.2c-0.2,0.1-0.3,0.2-0.4,0.3c-0.1,0.1-0.1,0.3-0.1,0.5
					c0,0.2,0.1,0.4,0.3,0.5c0.2,0.1,0.5,0.2,0.8,0.3c0.3,0.1,0.7,0.2,1,0.2c0.4,0.1,0.7,0.2,1,0.3s0.6,0.3,0.8,0.6
					c0.2,0.2,0.3,0.6,0.3,0.9c0,0.6-0.2,1.1-0.7,1.5c-0.5,0.4-1.2,0.6-2.1,0.6c-0.3,0-0.6,0-0.8-0.1s-0.5-0.1-0.8-0.2
					s-0.5-0.2-0.7-0.3s-0.4-0.2-0.5-0.3l0.5-0.8c0.1,0.1,0.2,0.2,0.4,0.3s0.4,0.2,0.6,0.3c0.2,0.1,0.4,0.2,0.7,0.2
					c0.2,0.1,0.5,0.1,0.7,0.1c0.2,0,0.5,0,0.7-0.1s0.4-0.1,0.5-0.2c0.2-0.1,0.3-0.2,0.4-0.3C135.6,506.6,135.7,506.4,135.7,506.2z"
					/>
				<path class="st9" d="M146.4,502c0.4-0.2,0.8-0.4,1.3-0.5c0.5-0.1,0.9-0.1,1.4-0.1c0.4,0,0.8,0.1,1.1,0.2
					c0.3,0.1,0.5,0.3,0.7,0.5c0.2,0.2,0.3,0.5,0.3,0.8c0.1,0.3,0.1,0.6,0.1,0.9c0,0.3,0,0.7,0,1.1c0,0.4,0,0.7,0,1.1
					c0,0.4,0,0.8,0.1,1.2h0.9v0.8h-1.7l-0.1-1h-0.1c-0.1,0.1-0.1,0.2-0.2,0.3c-0.1,0.1-0.2,0.2-0.4,0.4c-0.2,0.1-0.4,0.2-0.6,0.3
					c-0.2,0.1-0.5,0.1-0.9,0.1c-0.6,0-1.2-0.2-1.5-0.5s-0.6-0.8-0.6-1.4c0-0.4,0.1-0.8,0.3-1.1c0.2-0.3,0.5-0.5,0.8-0.7
					s0.8-0.2,1.3-0.3c0.5,0,1.1,0,1.7,0.1c0-0.4,0-0.7,0-1c0-0.3-0.1-0.5-0.2-0.6c-0.1-0.2-0.3-0.3-0.5-0.3
					c-0.2-0.1-0.4-0.1-0.7-0.1c-0.4,0-0.8,0.1-1.1,0.2c-0.4,0.1-0.7,0.2-1,0.3L146.4,502z M148.3,507.2c0.2,0,0.5,0,0.7-0.1
					s0.4-0.2,0.5-0.3c0.2-0.1,0.3-0.3,0.4-0.4c0.1-0.1,0.2-0.3,0.2-0.4v-0.9c-0.5-0.1-0.9-0.1-1.2-0.1s-0.7,0-1,0.1
					c-0.3,0.1-0.5,0.2-0.6,0.4c-0.2,0.2-0.2,0.4-0.2,0.7c0,0.3,0.1,0.5,0.3,0.7C147.5,507.1,147.9,507.2,148.3,507.2z"/>
				<path class="st9" d="M152.9,501.5h1.5v-1.3l1-0.3v1.6h3.5v0.9h-3.5v3.1c0,0.6,0.2,1.1,0.5,1.4c0.3,0.3,0.7,0.5,1.3,0.5
					c0.4,0,0.7-0.1,1-0.2s0.6-0.3,0.8-0.5l0.3,0.8c-0.3,0.2-0.7,0.4-1.1,0.6c-0.4,0.1-0.9,0.2-1.3,0.2c-0.3,0-0.7,0-1-0.1
					s-0.6-0.3-0.8-0.5c-0.2-0.2-0.4-0.5-0.6-0.8c-0.1-0.3-0.2-0.7-0.2-1.2v-3.2h-1.5V501.5z"/>
				<path class="st9" d="M167.9,501.5h1.5v-1.3l1-0.3v1.6h3.5v0.9h-3.5v3.1c0,0.6,0.2,1.1,0.5,1.4c0.3,0.3,0.7,0.5,1.3,0.5
					c0.4,0,0.7-0.1,1-0.2c0.3-0.1,0.6-0.3,0.8-0.5l0.3,0.8c-0.3,0.2-0.7,0.4-1.1,0.6c-0.4,0.1-0.9,0.2-1.3,0.2c-0.3,0-0.7,0-1-0.1
					s-0.6-0.3-0.8-0.5s-0.4-0.5-0.6-0.8s-0.2-0.7-0.2-1.2v-3.2h-1.5V501.5z"/>
				<path class="st9" d="M175.1,498.9h2v3.4h0.1c0.3-0.3,0.6-0.5,0.9-0.7s0.8-0.3,1.3-0.3c0.4,0,0.8,0,1.1,0.1
					c0.3,0.1,0.6,0.2,0.8,0.5c0.2,0.2,0.3,0.5,0.4,0.9c0.1,0.4,0.1,0.9,0.1,1.4v3.7h-1v-3.5c0-0.4,0-0.7-0.1-1
					c0-0.3-0.1-0.5-0.3-0.7s-0.3-0.3-0.5-0.4c-0.2-0.1-0.5-0.1-0.8-0.1c-0.2,0-0.5,0-0.7,0.1c-0.2,0.1-0.4,0.2-0.6,0.3
					c-0.2,0.1-0.3,0.3-0.5,0.5c-0.1,0.2-0.2,0.4-0.3,0.7v4.1h-1v-8.2h-1V498.9z"/>
				<path class="st9" d="M189.4,507.2c-0.2,0.1-0.3,0.3-0.6,0.4c-0.2,0.1-0.4,0.2-0.7,0.3c-0.3,0.1-0.5,0.2-0.8,0.2
					c-0.3,0-0.5,0.1-0.8,0.1c-0.5,0-1-0.1-1.4-0.2c-0.4-0.2-0.7-0.4-1-0.7s-0.5-0.7-0.6-1.1s-0.2-0.9-0.2-1.4c0-0.5,0.1-1,0.2-1.5
					s0.4-0.8,0.7-1.1c0.3-0.3,0.6-0.5,1-0.7c0.4-0.2,0.9-0.2,1.4-0.2c0.4,0,0.7,0,1.1,0.1c0.4,0.1,0.7,0.3,0.9,0.5
					c0.3,0.3,0.5,0.6,0.6,1.1c0.1,0.5,0.2,1.1,0.2,1.8h-5c0,0.8,0.2,1.4,0.6,1.7s1,0.6,1.7,0.6c0.2,0,0.5,0,0.7-0.1
					c0.2-0.1,0.4-0.1,0.7-0.2c0.2-0.1,0.4-0.2,0.6-0.3s0.3-0.2,0.4-0.3L189.4,507.2z M186.7,502.2c-0.3,0-0.6,0-0.8,0.1
					c-0.3,0.1-0.5,0.2-0.7,0.3c-0.2,0.1-0.4,0.3-0.5,0.6c-0.1,0.2-0.2,0.5-0.2,0.9h4c0-0.6-0.2-1-0.6-1.3S187.2,502.2,186.7,502.2z"
					/>
				<path class="st9" d="M198.9,498.9h5.3v1H200v3h3.9v1H200v3.2h4.3v1h-5.4V498.9z"/>
				<path class="st9" d="M209.5,498.9h2.1v6.9c0,0.1,0,0.2,0,0.3c0,0.1,0,0.2,0,0.4c0,0.1,0,0.3,0,0.4c0,0.1,0,0.2,0.1,0.3h0.9v0.8
					h-1.7l-0.1-1h-0.1c-0.2,0.3-0.5,0.6-0.8,0.8c-0.4,0.2-0.8,0.3-1.3,0.3c-1,0-1.7-0.3-2.2-0.8c-0.5-0.5-0.7-1.4-0.7-2.6
					c0-0.5,0.1-1,0.2-1.4c0.2-0.4,0.4-0.8,0.7-1.1c0.3-0.3,0.6-0.5,1-0.6s0.9-0.2,1.4-0.2c0.2,0,0.3,0,0.5,0s0.3,0,0.4,0
					s0.2,0,0.3,0.1c0.1,0,0.2,0.1,0.4,0.1v-1.8h-1.1V498.9z M208.8,507.3c0.5,0,0.9-0.1,1.2-0.4c0.3-0.3,0.5-0.7,0.6-1.2v-3
					c-0.2-0.1-0.4-0.2-0.6-0.3c-0.2-0.1-0.6-0.1-0.9-0.1c-0.7,0-1.2,0.2-1.6,0.6s-0.6,1-0.6,1.9c0,0.4,0,0.7,0.1,1s0.2,0.6,0.3,0.8
					c0.2,0.2,0.4,0.4,0.6,0.5C208.1,507.2,208.4,507.3,208.8,507.3z"/>
				<path class="st9" d="M219.3,508.3c0,0.4-0.1,0.8-0.2,1.1c-0.2,0.3-0.4,0.6-0.6,0.8c-0.3,0.2-0.6,0.3-1,0.4s-0.8,0.1-1.2,0.1
					c-0.5,0-1-0.1-1.3-0.2c-0.4-0.1-0.7-0.2-1-0.4l0.5-0.9c0.1,0.1,0.2,0.1,0.3,0.2c0.1,0.1,0.3,0.1,0.4,0.2s0.3,0.1,0.5,0.1
					c0.2,0,0.4,0.1,0.6,0.1c0.4,0,0.7,0,1-0.1c0.3-0.1,0.5-0.2,0.6-0.3s0.3-0.3,0.3-0.6c0.1-0.2,0.1-0.5,0.1-0.9v-0.7h-0.1
					c-0.2,0.3-0.5,0.5-0.8,0.7s-0.7,0.2-1.2,0.2c-1,0-1.7-0.3-2.2-0.8c-0.5-0.5-0.7-1.4-0.7-2.6c0-1.1,0.3-1.9,0.9-2.5
					c0.6-0.6,1.5-0.9,2.6-0.9c0.5,0,1,0,1.4,0.1c0.4,0.1,0.7,0.2,1,0.3V508.3z M216.4,507.3c0.5,0,0.9-0.1,1.2-0.4
					c0.3-0.3,0.5-0.7,0.6-1.3v-3.1c-0.4-0.2-0.9-0.3-1.6-0.3c-0.7,0-1.2,0.2-1.6,0.6s-0.6,1-0.6,1.9c0,0.4,0,0.7,0.1,1
					c0.1,0.3,0.2,0.6,0.3,0.8s0.3,0.4,0.6,0.5C215.8,507.2,216.1,507.3,216.4,507.3z"/>
				<path class="st9" d="M226.9,507.2c-0.2,0.1-0.3,0.3-0.6,0.4s-0.4,0.2-0.7,0.3c-0.3,0.1-0.5,0.2-0.8,0.2c-0.3,0-0.5,0.1-0.8,0.1
					c-0.5,0-1-0.1-1.4-0.2c-0.4-0.2-0.7-0.4-1-0.7c-0.3-0.3-0.5-0.7-0.6-1.1s-0.2-0.9-0.2-1.4c0-0.5,0.1-1,0.2-1.5
					c0.2-0.4,0.4-0.8,0.7-1.1c0.3-0.3,0.6-0.5,1-0.7c0.4-0.2,0.9-0.2,1.4-0.2c0.4,0,0.7,0,1.1,0.1c0.4,0.1,0.7,0.3,0.9,0.5
					c0.3,0.3,0.5,0.6,0.6,1.1c0.1,0.5,0.2,1.1,0.2,1.8h-5c0,0.8,0.2,1.4,0.6,1.7c0.4,0.4,1,0.6,1.7,0.6c0.2,0,0.5,0,0.7-0.1
					c0.2-0.1,0.4-0.1,0.7-0.2c0.2-0.1,0.4-0.2,0.6-0.3s0.3-0.2,0.4-0.3L226.9,507.2z M224.2,502.2c-0.3,0-0.6,0-0.8,0.1
					s-0.5,0.2-0.7,0.3c-0.2,0.1-0.4,0.3-0.5,0.6c-0.1,0.2-0.2,0.5-0.2,0.9h4c0-0.6-0.2-1-0.6-1.3S224.7,502.2,224.2,502.2z"/>
			</g>
			<path id="Rectangle-Copy-15_2_" class="st2" d="M47,135h183c2.8,0,5,2.2,5,5v54c0,2.8-2.2,5-5,5H47c-2.8,0-5-2.2-5-5v-54
				C42,137.2,44.2,135,47,135z"/>
			<path id="Path_1_" class="st0" d="M78.3,165c-0.7-3.4-3.7-6-7.3-6c-2.9,0-5.4,1.6-6.7,4c-3,0.3-5.3,2.9-5.3,6c0,3.3,2.7,6,6,6h13
				c1.3,0,2.6-0.5,3.5-1.5c0.9-0.9,1.5-2.2,1.5-3.5C83,167.4,80.9,165.2,78.3,165z"/>
			<g class="st3">
				<path class="st10" d="M93.7,156.1c0-1.6,0.3-2.9,0.9-3.8c0.6-0.9,1.5-1.3,2.6-1.3c0.7,0,1.2,0.1,1.7,0.4c0.5,0.2,0.8,0.6,1.1,1
					c0.3,0.4,0.5,1,0.6,1.6c0.1,0.6,0.2,1.3,0.2,2.1c0,1.6-0.3,2.9-0.9,3.8c-0.6,0.9-1.5,1.3-2.7,1.3c-0.6,0-1.2-0.1-1.6-0.4
					c-0.4-0.2-0.8-0.6-1.1-1c-0.3-0.4-0.5-1-0.6-1.6C93.7,157.6,93.7,156.9,93.7,156.1z M94.9,156.1c0,0.5,0,1.1,0.1,1.5
					c0.1,0.5,0.2,0.9,0.4,1.3c0.2,0.4,0.4,0.7,0.7,0.9c0.3,0.2,0.7,0.3,1.1,0.3c0.8,0,1.4-0.3,1.8-1s0.6-1.7,0.6-3.1
					c0-0.5,0-1-0.1-1.5c-0.1-0.5-0.2-0.9-0.4-1.3c-0.2-0.4-0.4-0.7-0.7-0.9c-0.3-0.2-0.7-0.3-1.1-0.3c-0.8,0-1.4,0.3-1.7,1
					C95.1,153.7,94.9,154.7,94.9,156.1z"/>
				<path class="st10" d="M107.5,155.1c-0.2-0.1-0.4-0.1-0.7-0.2c-0.2-0.1-0.5-0.1-0.7-0.1c-0.9,0-1.6,0.2-2,0.6
					c-0.4,0.4-0.7,1.1-0.7,2c0,0.4,0.1,0.8,0.2,1.1c0.1,0.3,0.3,0.6,0.6,0.8s0.5,0.4,0.9,0.5c0.3,0.1,0.7,0.2,1.1,0.2
					c0.4,0,0.9-0.1,1.3-0.2c0.4-0.2,0.8-0.4,1-0.6l0.5,0.8c-0.1,0.1-0.3,0.2-0.5,0.3c-0.2,0.1-0.4,0.2-0.7,0.3
					c-0.3,0.1-0.5,0.2-0.9,0.3c-0.3,0.1-0.7,0.1-1,0.1c-0.6,0-1.1-0.1-1.6-0.3s-0.8-0.4-1.2-0.7c-0.3-0.3-0.5-0.7-0.7-1.2
					c-0.2-0.5-0.2-1-0.2-1.5c0-0.6,0.1-1.1,0.2-1.6c0.2-0.5,0.4-0.8,0.7-1.1c0.3-0.3,0.7-0.5,1.1-0.7c0.4-0.2,0.9-0.2,1.5-0.2
					c0.7,0,1.3,0.1,1.7,0.2c0.4,0.1,0.8,0.3,1.1,0.4l0,0v1.9h-1V155.1z"/>
				<path class="st10" d="M110.1,151.2h2.3v5.8h0.8l2.8-3h1.3l-3.1,3.3l2.5,2.7h0.9v0.9h-1.4l-3-3.2h-0.8v3.2h-1.1v-8.9h-1.2V151.2z
					"/>
				<path class="st10" d="M119.7,154.5c0.4-0.2,0.9-0.4,1.4-0.5s1-0.2,1.5-0.2c0.5,0,0.9,0.1,1.2,0.2s0.5,0.3,0.7,0.6
					c0.2,0.2,0.3,0.5,0.4,0.8c0.1,0.3,0.1,0.6,0.1,0.9c0,0.4,0,0.7,0,1.1c0,0.4,0,0.8,0,1.2c0,0.5,0,0.9,0.1,1.3h0.9v0.9H124l-0.1-1
					h-0.1c-0.1,0.1-0.1,0.2-0.3,0.3c-0.1,0.1-0.3,0.3-0.4,0.4s-0.4,0.2-0.7,0.3c-0.3,0.1-0.6,0.1-0.9,0.1c-0.7,0-1.2-0.2-1.6-0.5
					c-0.4-0.4-0.6-0.8-0.6-1.5c0-0.5,0.1-0.9,0.3-1.2c0.2-0.3,0.5-0.6,0.9-0.7c0.4-0.2,0.9-0.3,1.4-0.3c0.6,0,1.2,0,1.9,0.1
					c0-0.4,0.1-0.8,0-1.1c0-0.3-0.1-0.5-0.2-0.7s-0.3-0.3-0.5-0.4c-0.2-0.1-0.5-0.1-0.8-0.1c-0.4,0-0.8,0.1-1.2,0.2
					c-0.4,0.1-0.7,0.2-1,0.4L119.7,154.5z M121.8,160.2c0.3,0,0.5,0,0.7-0.1c0.2-0.1,0.4-0.2,0.6-0.3s0.3-0.3,0.4-0.4
					c0.1-0.2,0.2-0.3,0.3-0.4v-1c-0.5-0.1-0.9-0.1-1.3-0.1s-0.8,0-1.1,0.1c-0.3,0.1-0.5,0.2-0.7,0.4c-0.2,0.2-0.3,0.4-0.3,0.7
					c0,0.3,0.1,0.6,0.3,0.8C120.9,160.1,121.3,160.2,121.8,160.2z"/>
				<path class="st10" d="M130.3,161v-4.7c0-0.2,0-0.4,0-0.6c0-0.2,0-0.3-0.1-0.5s-0.1-0.3-0.2-0.3c-0.1-0.1-0.2-0.1-0.4-0.1
					c-0.3,0-0.6,0.1-0.8,0.4s-0.4,0.6-0.5,1v4.8h-1.1v-7h0.7l0.2,0.9h0.1c0.1-0.1,0.2-0.3,0.3-0.4s0.2-0.2,0.3-0.3
					c0.1-0.1,0.3-0.2,0.4-0.2c0.2-0.1,0.4-0.1,0.6-0.1c0.1,0,0.3,0,0.4,0.1c0.1,0,0.3,0.1,0.4,0.2c0.1,0.1,0.2,0.2,0.3,0.4
					s0.2,0.3,0.2,0.5c0.2-0.4,0.5-0.6,0.7-0.9c0.3-0.2,0.6-0.3,1.1-0.3c0.3,0,0.6,0.1,0.7,0.2s0.3,0.2,0.4,0.4
					c0.1,0.2,0.2,0.4,0.2,0.7c0,0.3,0.1,0.6,0.1,0.9v5h-1.1v-4.8c0-0.2,0-0.4,0-0.6c0-0.2-0.1-0.3-0.1-0.5s-0.1-0.2-0.2-0.3
					c-0.1-0.1-0.2-0.1-0.4-0.1c-0.3,0-0.6,0.1-0.8,0.4c-0.2,0.3-0.4,0.6-0.5,1.1v4.7H130.3z"/>
				<path class="st10" d="M144.8,151.3c0.4-0.1,0.8-0.1,1.2-0.2c0.5,0,0.9-0.1,1.3-0.1c0.4,0,0.8,0,1.2,0.1c0.4,0.1,0.7,0.2,1,0.5
					c0.3,0.2,0.5,0.5,0.7,0.8c0.2,0.3,0.3,0.8,0.3,1.3c0,0.4-0.1,0.7-0.2,1c-0.1,0.3-0.3,0.5-0.5,0.8c-0.2,0.2-0.4,0.4-0.6,0.5
					c-0.2,0.1-0.4,0.2-0.5,0.3l2.6,4.6H150l-2.3-4.3H146v4.3h-1.2V151.3z M147.3,152.1c-0.1,0-0.2,0-0.4,0c-0.1,0-0.3,0-0.4,0
					c-0.1,0-0.2,0-0.3,0c-0.1,0-0.2,0-0.3,0v3.6h1.1c0.6,0,1.2-0.2,1.6-0.5s0.6-0.8,0.6-1.5c0-0.5-0.2-0.9-0.5-1.2
					C148.4,152.3,147.9,152.1,147.3,152.1z"/>
				<path class="st10" d="M159.2,160.1c-0.2,0.1-0.4,0.3-0.6,0.4c-0.2,0.1-0.5,0.2-0.7,0.3c-0.3,0.1-0.6,0.2-0.8,0.2
					c-0.3,0.1-0.6,0.1-0.9,0.1c-0.6,0-1.1-0.1-1.5-0.3s-0.8-0.4-1.1-0.7c-0.3-0.3-0.5-0.7-0.7-1.2c-0.1-0.4-0.2-1-0.2-1.5
					c0-0.6,0.1-1.1,0.2-1.6c0.2-0.5,0.4-0.8,0.7-1.1c0.3-0.3,0.7-0.5,1.1-0.7c0.4-0.2,0.9-0.2,1.5-0.2c0.4,0,0.8,0.1,1.2,0.2
					s0.7,0.3,1,0.6c0.3,0.3,0.5,0.7,0.7,1.2s0.2,1.1,0.2,1.9h-5.4c0,0.8,0.2,1.5,0.7,1.9c0.5,0.4,1.1,0.6,1.8,0.6
					c0.3,0,0.5,0,0.7-0.1c0.2-0.1,0.5-0.1,0.7-0.2c0.2-0.1,0.4-0.2,0.6-0.3c0.2-0.1,0.3-0.2,0.4-0.3L159.2,160.1z M156.3,154.8
					c-0.3,0-0.6,0-0.9,0.1c-0.3,0.1-0.5,0.2-0.7,0.3c-0.2,0.2-0.4,0.4-0.5,0.6c-0.1,0.2-0.2,0.6-0.3,0.9h4.3c0-0.6-0.2-1.1-0.6-1.4
					C157.3,154.9,156.8,154.8,156.3,154.8z"/>
				<path class="st10" d="M167.5,161.3c0,0.4-0.1,0.8-0.3,1.2s-0.4,0.6-0.7,0.8c-0.3,0.2-0.6,0.4-1,0.5c-0.4,0.1-0.8,0.2-1.3,0.2
					c-0.6,0-1-0.1-1.4-0.2c-0.4-0.1-0.8-0.3-1.1-0.4l0.5-1c0.1,0.1,0.2,0.1,0.3,0.2c0.1,0.1,0.3,0.1,0.5,0.2
					c0.2,0.1,0.4,0.1,0.6,0.1c0.2,0,0.4,0.1,0.6,0.1c0.4,0,0.8,0,1-0.1c0.3-0.1,0.5-0.2,0.7-0.3c0.2-0.2,0.3-0.4,0.4-0.6
					s0.1-0.6,0.1-0.9v-0.8h-0.1c-0.2,0.3-0.5,0.5-0.8,0.7s-0.8,0.3-1.3,0.3c-1.1,0-1.8-0.3-2.3-0.9s-0.7-1.5-0.7-2.8
					c0-1.2,0.3-2.1,1-2.7s1.6-0.9,2.8-0.9c0.6,0,1.1,0,1.5,0.1s0.8,0.2,1.1,0.3V161.3z M164.4,160.2c0.6,0,1-0.1,1.3-0.4
					s0.6-0.7,0.7-1.4v-3.3c-0.4-0.2-1-0.3-1.7-0.3c-0.7,0-1.3,0.2-1.8,0.7c-0.4,0.4-0.6,1.1-0.6,2c0,0.4,0,0.8,0.1,1.1
					c0.1,0.3,0.2,0.6,0.4,0.9c0.2,0.2,0.4,0.4,0.6,0.6C163.7,160.2,164,160.2,164.4,160.2z"/>
				<path class="st10" d="M170.1,161v-0.9h2.4v-5.1h-2.4V154h3.5v6.1h2.4v0.9H170.1z M172.1,152c0-0.3,0.1-0.5,0.3-0.7
					c0.2-0.2,0.4-0.3,0.6-0.3c0.3,0,0.5,0.1,0.7,0.3c0.2,0.2,0.3,0.4,0.3,0.7c0,0.2-0.1,0.4-0.3,0.6s-0.4,0.3-0.7,0.3
					c-0.3,0-0.5-0.1-0.6-0.3S172.1,152.3,172.1,152z"/>
				<path class="st10" d="M183.1,159.1c0-0.3-0.1-0.5-0.3-0.7s-0.5-0.3-0.9-0.4c-0.3-0.1-0.7-0.2-1.1-0.3s-0.8-0.2-1.1-0.3
					c-0.3-0.1-0.6-0.3-0.9-0.6c-0.2-0.2-0.3-0.6-0.3-1c0-0.4,0.1-0.7,0.2-0.9c0.2-0.3,0.4-0.5,0.6-0.6c0.3-0.2,0.5-0.3,0.9-0.4
					s0.7-0.1,1.1-0.1c0.7,0,1.2,0.1,1.7,0.2s0.8,0.3,1.1,0.5l-0.4,0.9c-0.3-0.2-0.6-0.3-1-0.5c-0.4-0.2-0.8-0.2-1.3-0.2
					c-0.2,0-0.4,0-0.6,0.1s-0.4,0.1-0.5,0.2c-0.2,0.1-0.3,0.2-0.4,0.3c-0.1,0.1-0.1,0.3-0.1,0.5c0,0.2,0.1,0.4,0.3,0.6
					c0.2,0.1,0.5,0.2,0.9,0.3c0.3,0.1,0.7,0.2,1.1,0.3c0.4,0.1,0.8,0.2,1.1,0.3c0.3,0.1,0.6,0.3,0.9,0.6s0.3,0.6,0.3,1
					c0,0.6-0.3,1.2-0.8,1.6c-0.5,0.4-1.3,0.6-2.3,0.6c-0.3,0-0.6,0-0.9-0.1c-0.3-0.1-0.6-0.1-0.8-0.2c-0.3-0.1-0.5-0.2-0.7-0.3
					c-0.2-0.1-0.4-0.2-0.5-0.4l0.6-0.9c0.1,0.1,0.3,0.2,0.4,0.3c0.2,0.1,0.4,0.2,0.6,0.3c0.2,0.1,0.5,0.2,0.7,0.2
					c0.3,0.1,0.5,0.1,0.8,0.1c0.3,0,0.5,0,0.7-0.1s0.4-0.1,0.6-0.2s0.3-0.2,0.4-0.4C183.1,159.5,183.1,159.3,183.1,159.1z"/>
				<path class="st10" d="M185.8,154h1.7v-1.4l1.1-0.3v1.7h3.7v0.9h-3.7v3.3c0,0.7,0.2,1.2,0.5,1.5c0.3,0.3,0.8,0.5,1.4,0.5
					c0.4,0,0.8-0.1,1.1-0.2c0.3-0.2,0.6-0.3,0.8-0.5l0.4,0.8c-0.3,0.3-0.7,0.5-1.2,0.6c-0.5,0.2-0.9,0.2-1.4,0.2
					c-0.4,0-0.7-0.1-1.1-0.2c-0.3-0.1-0.6-0.3-0.9-0.5c-0.3-0.2-0.5-0.5-0.6-0.9c-0.1-0.3-0.2-0.8-0.2-1.3v-3.5h-1.7V154z"/>
				<path class="st10" d="M194.7,161v-0.9h1.9v-5.1h-1.9V154h2.6l0.2,0.9h0.1c0.3-0.3,0.7-0.5,1.1-0.7s0.9-0.3,1.4-0.3
					c0.3,0,0.6,0.1,0.8,0.2s0.3,0.3,0.4,0.5c0.1,0.2,0.2,0.5,0.2,0.8c0,0.3,0.1,0.7,0.1,1.1l-1,0c0-0.6-0.1-1-0.2-1.3
					c-0.1-0.3-0.3-0.4-0.6-0.4c-0.3,0-0.6,0-0.8,0.1c-0.2,0.1-0.4,0.2-0.6,0.3c-0.2,0.1-0.3,0.2-0.4,0.4c-0.1,0.1-0.2,0.2-0.3,0.3
					v4.1h2.7v0.9H194.7z"/>
				<path class="st10" d="M206.6,159.9h0.5l1.7-5.9h1.1l-1.9,6.3c-0.1,0.3-0.2,0.7-0.3,1.1c-0.1,0.4-0.3,0.8-0.5,1.2
					c-0.2,0.4-0.5,0.7-0.8,0.9c-0.3,0.3-0.8,0.4-1.3,0.4c-0.1,0-0.2,0-0.4,0s-0.3-0.1-0.4-0.1s-0.3-0.1-0.4-0.1
					c-0.1-0.1-0.2-0.1-0.3-0.2l0.4-1c0.1,0,0.1,0.1,0.2,0.1c0.1,0,0.2,0.1,0.3,0.1c0.1,0,0.2,0.1,0.3,0.1c0.1,0,0.2,0,0.3,0
					c0.7,0,1.2-0.6,1.4-1.8h-0.9l-2.9-7h1.3L206.6,159.9z"/>
			</g>
			<g class="st3">
				<path class="st10" d="M95.1,177.6c0.3,0.1,0.6,0.3,0.9,0.4c0.4,0.1,0.7,0.1,1.1,0.1c0.3,0,0.6,0,0.9-0.1
					c0.3-0.1,0.5-0.2,0.7-0.3s0.4-0.3,0.5-0.5s0.2-0.4,0.2-0.7c0-0.4-0.1-0.7-0.4-0.9c-0.3-0.2-0.6-0.5-1-0.6
					c-0.4-0.2-0.8-0.4-1.2-0.5c-0.4-0.2-0.9-0.4-1.2-0.6c-0.4-0.2-0.7-0.5-1-0.9c-0.3-0.4-0.4-0.8-0.4-1.3c0-0.4,0.1-0.7,0.2-1
					c0.2-0.3,0.4-0.6,0.7-0.8c0.3-0.2,0.6-0.4,1-0.5c0.4-0.1,0.8-0.2,1.3-0.2c0.6,0,1.1,0,1.5,0.1c0.5,0.1,0.8,0.2,1.1,0.3l0,0v0h0
					l0,0v2.2h-1v-1.5c-0.2-0.1-0.5-0.1-0.8-0.1s-0.6-0.1-0.9-0.1c-0.3,0-0.6,0-0.8,0.1c-0.2,0.1-0.5,0.2-0.6,0.3
					c-0.2,0.1-0.3,0.3-0.4,0.4c-0.1,0.2-0.1,0.3-0.1,0.5c0,0.4,0.1,0.7,0.4,0.9c0.3,0.2,0.6,0.5,1,0.7c0.4,0.2,0.8,0.4,1.2,0.6
					c0.4,0.2,0.9,0.4,1.2,0.7c0.4,0.2,0.7,0.5,1,0.9s0.4,0.8,0.4,1.3c0,0.4-0.1,0.8-0.2,1.1c-0.2,0.3-0.4,0.6-0.7,0.9
					s-0.6,0.4-1.1,0.6c-0.4,0.1-0.9,0.2-1.4,0.2c-0.4,0-0.7,0-1-0.1c-0.3-0.1-0.6-0.1-0.9-0.2c-0.3-0.1-0.5-0.2-0.7-0.3
					c-0.2-0.1-0.4-0.2-0.5-0.2l0,0v-2.3h1V177.6z"/>
				<path class="st10" d="M108.8,178.1c-0.2,0.1-0.4,0.3-0.6,0.4c-0.2,0.1-0.5,0.2-0.7,0.3c-0.3,0.1-0.6,0.2-0.8,0.2
					c-0.3,0.1-0.6,0.1-0.9,0.1c-0.6,0-1.1-0.1-1.5-0.3s-0.8-0.4-1.1-0.7c-0.3-0.3-0.5-0.7-0.7-1.2c-0.1-0.4-0.2-1-0.2-1.5
					c0-0.6,0.1-1.1,0.2-1.6c0.2-0.5,0.4-0.8,0.7-1.1c0.3-0.3,0.7-0.5,1.1-0.7c0.4-0.2,0.9-0.2,1.5-0.2c0.4,0,0.8,0.1,1.2,0.2
					s0.7,0.3,1,0.6c0.3,0.3,0.5,0.7,0.7,1.2s0.2,1.1,0.2,1.9h-5.4c0,0.8,0.2,1.5,0.7,1.9c0.5,0.4,1.1,0.6,1.8,0.6
					c0.3,0,0.5,0,0.7-0.1c0.2-0.1,0.5-0.1,0.7-0.2c0.2-0.1,0.4-0.2,0.6-0.3c0.2-0.1,0.3-0.2,0.4-0.3L108.8,178.1z M105.9,172.8
					c-0.3,0-0.6,0-0.9,0.1c-0.3,0.1-0.5,0.2-0.7,0.3c-0.2,0.2-0.4,0.4-0.5,0.6c-0.1,0.2-0.2,0.6-0.3,0.9h4.3c0-0.6-0.2-1.1-0.6-1.4
					C106.9,172.9,106.4,172.8,105.9,172.8z"/>
				<path class="st10" d="M110.7,179v-0.9h1.9v-5.1h-1.9V172h2.6l0.2,0.9h0.1c0.3-0.3,0.7-0.5,1.1-0.7s0.9-0.3,1.4-0.3
					c0.3,0,0.6,0.1,0.8,0.2s0.3,0.3,0.4,0.5c0.1,0.2,0.2,0.5,0.2,0.8c0,0.3,0.1,0.7,0.1,1.1l-1,0c0-0.6-0.1-1-0.2-1.3
					c-0.1-0.3-0.3-0.4-0.6-0.4c-0.3,0-0.6,0-0.8,0.1s-0.4,0.2-0.6,0.3c-0.2,0.1-0.3,0.2-0.4,0.4c-0.1,0.1-0.2,0.2-0.3,0.3v4.1h2.7
					v0.9H110.7z"/>
				<path class="st10" d="M122.4,177.6h0.2l2.2-5.6h1.2l-3,7h-1.2l-3-7h1.3L122.4,177.6z"/>
				<path class="st10" d="M128.1,179v-0.9h2.4v-5.1h-2.4V172h3.5v6.1h2.4v0.9H128.1z M130.1,170c0-0.3,0.1-0.5,0.3-0.7
					c0.2-0.2,0.4-0.3,0.6-0.3c0.3,0,0.5,0.1,0.7,0.3c0.2,0.2,0.3,0.4,0.3,0.7c0,0.2-0.1,0.4-0.3,0.6c-0.2,0.2-0.4,0.3-0.7,0.3
					c-0.3,0-0.5-0.1-0.6-0.3S130.1,170.3,130.1,170z"/>
				<path class="st10" d="M141.1,173.1c-0.2-0.1-0.4-0.1-0.7-0.2c-0.2-0.1-0.5-0.1-0.7-0.1c-0.9,0-1.6,0.2-2,0.6
					c-0.4,0.4-0.7,1.1-0.7,2c0,0.4,0.1,0.8,0.2,1.1c0.1,0.3,0.3,0.6,0.6,0.8s0.5,0.4,0.9,0.5c0.3,0.1,0.7,0.2,1.1,0.2
					c0.4,0,0.9-0.1,1.3-0.2c0.4-0.2,0.8-0.4,1-0.6l0.5,0.8c-0.1,0.1-0.3,0.2-0.5,0.3c-0.2,0.1-0.4,0.2-0.7,0.3
					c-0.3,0.1-0.5,0.2-0.9,0.3c-0.3,0.1-0.7,0.1-1,0.1c-0.6,0-1.1-0.1-1.6-0.3s-0.8-0.4-1.2-0.7c-0.3-0.3-0.5-0.7-0.7-1.2
					c-0.2-0.5-0.2-1-0.2-1.5c0-0.6,0.1-1.1,0.2-1.6c0.2-0.5,0.4-0.8,0.7-1.1c0.3-0.3,0.7-0.5,1.1-0.7c0.4-0.2,0.9-0.2,1.5-0.2
					c0.7,0,1.3,0.1,1.7,0.2c0.4,0.1,0.8,0.3,1.1,0.4l0,0v1.9h-1V173.1z"/>
				<path class="st10" d="M150.8,178.1c-0.2,0.1-0.4,0.3-0.6,0.4c-0.2,0.1-0.5,0.2-0.7,0.3c-0.3,0.1-0.6,0.2-0.8,0.2
					c-0.3,0.1-0.6,0.1-0.9,0.1c-0.6,0-1.1-0.1-1.5-0.3s-0.8-0.4-1.1-0.7c-0.3-0.3-0.5-0.7-0.7-1.2c-0.1-0.4-0.2-1-0.2-1.5
					c0-0.6,0.1-1.1,0.2-1.6c0.2-0.5,0.4-0.8,0.7-1.1c0.3-0.3,0.7-0.5,1.1-0.7c0.4-0.2,0.9-0.2,1.5-0.2c0.4,0,0.8,0.1,1.2,0.2
					s0.7,0.3,1,0.6c0.3,0.3,0.5,0.7,0.7,1.2s0.2,1.1,0.2,1.9h-5.4c0,0.8,0.2,1.5,0.7,1.9c0.5,0.4,1.1,0.6,1.8,0.6
					c0.3,0,0.5,0,0.7-0.1c0.2-0.1,0.5-0.1,0.7-0.2c0.2-0.1,0.4-0.2,0.6-0.3c0.2-0.1,0.3-0.2,0.4-0.3L150.8,178.1z M147.9,172.8
					c-0.3,0-0.6,0-0.9,0.1c-0.3,0.1-0.5,0.2-0.7,0.3c-0.2,0.2-0.4,0.4-0.5,0.6c-0.1,0.2-0.2,0.6-0.3,0.9h4.3c0-0.6-0.2-1.1-0.6-1.4
					C148.9,172.9,148.4,172.8,147.9,172.8z"/>
			</g>
			<path id="Rectangle-Copy-15_3_" class="st2" d="M47,239h183c2.8,0,5,2.2,5,5v54c0,2.8-2.2,5-5,5H47c-2.8,0-5-2.2-5-5v-54
				C42,241.2,44.2,239,47,239z"/>
			<g class="st3">
				<path class="st11" d="M101.9,267.5c0-1.5,0.3-2.7,0.8-3.5c0.5-0.8,1.4-1.2,2.5-1.2c0.6,0,1.1,0.1,1.5,0.3s0.8,0.5,1,1
					c0.3,0.4,0.4,0.9,0.6,1.5c0.1,0.6,0.2,1.2,0.2,1.9c0,1.5-0.3,2.7-0.8,3.5c-0.5,0.8-1.4,1.2-2.5,1.2c-0.6,0-1.1-0.1-1.5-0.3
					c-0.4-0.2-0.8-0.5-1-1c-0.3-0.4-0.4-0.9-0.6-1.5C101.9,268.8,101.9,268.2,101.9,267.5z M103,267.5c0,0.5,0,1,0.1,1.4
					c0.1,0.5,0.2,0.8,0.3,1.2c0.2,0.3,0.4,0.6,0.7,0.8c0.3,0.2,0.6,0.3,1,0.3c0.7,0,1.3-0.3,1.6-0.9s0.5-1.6,0.5-2.8
					c0-0.5,0-1-0.1-1.4s-0.2-0.9-0.3-1.2c-0.2-0.3-0.4-0.6-0.7-0.8c-0.3-0.2-0.6-0.3-1-0.3c-0.7,0-1.3,0.3-1.6,0.9
					C103.2,265.2,103,266.2,103,267.5z"/>
				<path class="st11" d="M114.5,266.5c-0.2-0.1-0.4-0.1-0.6-0.2c-0.2,0-0.5-0.1-0.7-0.1c-0.8,0-1.5,0.2-1.9,0.6s-0.6,1-0.6,1.9
					c0,0.4,0.1,0.7,0.2,1c0.1,0.3,0.3,0.6,0.5,0.8c0.2,0.2,0.5,0.4,0.8,0.5c0.3,0.1,0.7,0.2,1,0.2c0.4,0,0.8-0.1,1.2-0.2
					s0.7-0.3,1-0.6l0.5,0.8c-0.1,0.1-0.3,0.2-0.5,0.3c-0.2,0.1-0.4,0.2-0.6,0.3s-0.5,0.2-0.8,0.2c-0.3,0.1-0.6,0.1-0.9,0.1
					c-0.6,0-1.1-0.1-1.5-0.2c-0.4-0.2-0.8-0.4-1.1-0.7c-0.3-0.3-0.5-0.7-0.6-1.1c-0.1-0.4-0.2-0.9-0.2-1.4c0-0.5,0.1-1,0.2-1.5
					c0.2-0.4,0.4-0.8,0.7-1.1c0.3-0.3,0.6-0.5,1-0.7c0.4-0.2,0.9-0.2,1.4-0.2c0.6,0,1.2,0.1,1.6,0.2c0.4,0.1,0.7,0.2,1,0.4l0,0v1.8
					h-0.9V266.5z"/>
				<path class="st11" d="M116.6,262.9h2.1v5.4h0.7l2.6-2.8h1.2l-2.9,3.1l2.4,2.5h0.8v0.9h-1.3l-2.8-2.9h-0.7v2.9h-1v-8.2h-1.1
					V262.9z"/>
				<path class="st11" d="M125.2,266c0.4-0.2,0.8-0.4,1.3-0.5c0.5-0.1,0.9-0.1,1.4-0.1c0.4,0,0.8,0.1,1.1,0.2
					c0.3,0.1,0.5,0.3,0.7,0.5c0.2,0.2,0.3,0.5,0.3,0.8c0.1,0.3,0.1,0.6,0.1,0.9c0,0.3,0,0.7,0,1.1c0,0.4,0,0.7,0,1.1
					c0,0.4,0,0.8,0.1,1.2h0.9v0.8h-1.7l-0.1-1h-0.1c-0.1,0.1-0.1,0.2-0.2,0.3c-0.1,0.1-0.2,0.2-0.4,0.4c-0.2,0.1-0.4,0.2-0.6,0.3
					c-0.2,0.1-0.5,0.1-0.9,0.1c-0.6,0-1.2-0.2-1.5-0.5s-0.6-0.8-0.6-1.4c0-0.4,0.1-0.8,0.3-1.1c0.2-0.3,0.5-0.5,0.8-0.7
					s0.8-0.2,1.3-0.3c0.5,0,1.1,0,1.7,0.1c0-0.4,0-0.7,0-1c0-0.3-0.1-0.5-0.2-0.6c-0.1-0.2-0.3-0.3-0.5-0.3
					c-0.2-0.1-0.4-0.1-0.7-0.1c-0.4,0-0.8,0.1-1.1,0.2c-0.4,0.1-0.7,0.2-1,0.3L125.2,266z M127.1,271.2c0.2,0,0.5,0,0.7-0.1
					s0.4-0.2,0.5-0.3c0.2-0.1,0.3-0.3,0.4-0.4c0.1-0.1,0.2-0.3,0.2-0.4v-0.9c-0.5-0.1-0.9-0.1-1.2-0.1s-0.7,0-1,0.1
					c-0.3,0.1-0.5,0.2-0.6,0.4c-0.2,0.2-0.2,0.4-0.2,0.7c0,0.3,0.1,0.5,0.3,0.7C126.3,271.1,126.6,271.2,127.1,271.2z"/>
				<path class="st11" d="M134.7,272v-4.3c0-0.2,0-0.4,0-0.5c0-0.2,0-0.3-0.1-0.5c0-0.1-0.1-0.2-0.2-0.3c-0.1-0.1-0.2-0.1-0.4-0.1
					c-0.3,0-0.5,0.1-0.7,0.4c-0.2,0.2-0.4,0.5-0.5,0.9v4.5h-1v-6.5h0.7l0.2,0.8h0.1c0.1-0.1,0.2-0.3,0.3-0.4
					c0.1-0.1,0.2-0.2,0.3-0.3s0.2-0.2,0.4-0.2c0.1,0,0.3-0.1,0.6-0.1c0.1,0,0.3,0,0.4,0.1s0.3,0.1,0.4,0.2c0.1,0.1,0.2,0.2,0.3,0.3
					c0.1,0.1,0.1,0.3,0.2,0.5c0.2-0.3,0.4-0.6,0.7-0.8s0.6-0.3,1-0.3c0.3,0,0.5,0,0.7,0.1c0.2,0.1,0.3,0.2,0.4,0.4s0.2,0.4,0.2,0.6
					s0.1,0.5,0.1,0.8v4.6h-1v-4.4c0-0.2,0-0.4,0-0.5s0-0.3-0.1-0.4c0-0.1-0.1-0.2-0.2-0.3s-0.2-0.1-0.3-0.1c-0.3,0-0.6,0.1-0.8,0.4
					c-0.2,0.2-0.4,0.6-0.5,1v4.3H134.7z"/>
				<path class="st11" d="M152.2,263.9c-0.1-0.1-0.3-0.1-0.5-0.1s-0.4,0-0.6,0c-0.4,0-0.7,0.1-1,0.2c-0.3,0.1-0.6,0.3-0.9,0.6
					c-0.3,0.3-0.5,0.7-0.6,1.2c-0.2,0.5-0.2,1.1-0.2,1.8c0,0.6,0.1,1.2,0.2,1.6c0.1,0.5,0.3,0.9,0.6,1.2c0.3,0.3,0.6,0.5,0.9,0.7
					c0.4,0.2,0.8,0.2,1.2,0.2c0.2,0,0.4,0,0.6-0.1s0.4-0.1,0.5-0.2v-1.3h1v1.8l0,0c-0.3,0.2-0.6,0.4-1,0.5c-0.4,0.1-0.9,0.2-1.5,0.2
					c-0.5,0-1.1-0.1-1.5-0.3c-0.5-0.2-0.9-0.5-1.2-0.9c-0.3-0.4-0.6-0.9-0.8-1.5c-0.2-0.6-0.3-1.3-0.3-2.1c0-0.8,0.1-1.6,0.3-2.2
					c0.2-0.6,0.5-1.1,0.8-1.5s0.8-0.7,1.2-0.8c0.5-0.2,1-0.3,1.5-0.3c0.3,0,0.6,0,0.8,0s0.4,0.1,0.6,0.1c0.2,0,0.3,0.1,0.4,0.1
					c0.1,0.1,0.2,0.1,0.4,0.2h0v2.1h-1V263.9z"/>
				<path class="st11" d="M155.3,262.9h2.2v6.9c0,0.5,0.1,0.9,0.3,1.1c0.2,0.2,0.4,0.3,0.8,0.3c0.2,0,0.5,0,0.7-0.1
					c0.2-0.1,0.5-0.2,0.7-0.4l0.5,0.7c-0.1,0.1-0.3,0.2-0.5,0.3c-0.2,0.1-0.3,0.2-0.5,0.2c-0.2,0.1-0.3,0.1-0.5,0.1
					c-0.2,0-0.3,0.1-0.5,0.1c-0.3,0-0.6,0-0.9-0.1c-0.3-0.1-0.5-0.2-0.6-0.4c-0.2-0.2-0.3-0.4-0.4-0.7s-0.1-0.7-0.1-1.1v-6h-1.1
					V262.9z"/>
				<path class="st11" d="M162,268.8c0-1,0.3-1.9,0.8-2.5c0.5-0.6,1.3-0.9,2.3-0.9c0.5,0,1,0.1,1.4,0.3c0.4,0.2,0.7,0.4,1,0.7
					s0.5,0.7,0.6,1.1c0.1,0.4,0.2,0.9,0.2,1.3c0,0.5-0.1,1-0.2,1.4c-0.1,0.4-0.3,0.8-0.6,1.1c-0.3,0.3-0.6,0.5-1,0.7
					c-0.4,0.2-0.8,0.2-1.3,0.2c-0.5,0-1-0.1-1.4-0.3c-0.4-0.2-0.7-0.4-1-0.7c-0.3-0.3-0.5-0.7-0.6-1.1
					C162.1,269.7,162,269.2,162,268.8z M163.1,268.8c0,0.3,0,0.6,0.1,0.9c0.1,0.3,0.2,0.6,0.4,0.8c0.2,0.2,0.4,0.4,0.6,0.6
					c0.3,0.1,0.6,0.2,1,0.2c0.7,0,1.2-0.2,1.6-0.6c0.3-0.4,0.5-1.1,0.5-1.9c0-0.3,0-0.6-0.1-0.9c-0.1-0.3-0.2-0.6-0.4-0.8
					c-0.2-0.2-0.4-0.4-0.6-0.6c-0.3-0.1-0.6-0.2-1-0.2c-0.7,0-1.2,0.2-1.6,0.6C163.2,267.3,163.1,267.9,163.1,268.8z"/>
				<path class="st11" d="M173.5,265.5h1.9v4.4c0,0.4,0,0.8,0.1,1.2h0.9v0.8h-1.7l0-1.1h-0.1c-0.2,0.4-0.5,0.7-0.9,0.9
					c-0.4,0.2-0.8,0.4-1.3,0.4c-0.4,0-0.7,0-1-0.1s-0.5-0.2-0.7-0.5s-0.3-0.5-0.4-0.9c-0.1-0.4-0.1-0.8-0.1-1.4v-2.9h-0.9v-0.9h1.9
					v3.5c0,0.4,0,0.7,0,1c0,0.3,0.1,0.5,0.2,0.7s0.2,0.3,0.4,0.4c0.2,0.1,0.4,0.1,0.7,0.1c0.4,0,0.8-0.1,1.2-0.4
					c0.3-0.3,0.6-0.7,0.8-1.1v-3.4h-0.8V265.5z"/>
				<path class="st11" d="M180.8,262.9h2.1v6.9c0,0.1,0,0.2,0,0.3c0,0.1,0,0.2,0,0.4c0,0.1,0,0.3,0,0.4c0,0.1,0,0.2,0.1,0.3h0.9v0.8
					h-1.7l-0.1-1H182c-0.2,0.3-0.5,0.6-0.8,0.8c-0.4,0.2-0.8,0.3-1.3,0.3c-1,0-1.7-0.3-2.2-0.8c-0.5-0.5-0.7-1.4-0.7-2.6
					c0-0.5,0.1-1,0.2-1.4c0.2-0.4,0.4-0.8,0.7-1.1c0.3-0.3,0.6-0.5,1-0.6s0.9-0.2,1.4-0.2c0.2,0,0.3,0,0.5,0s0.3,0,0.4,0
					s0.2,0,0.3,0.1c0.1,0,0.2,0.1,0.4,0.1v-1.8h-1.1V262.9z M180,271.3c0.5,0,0.9-0.1,1.2-0.4c0.3-0.3,0.5-0.7,0.6-1.2v-3
					c-0.2-0.1-0.4-0.2-0.6-0.3s-0.6-0.1-0.9-0.1c-0.7,0-1.2,0.2-1.6,0.6c-0.4,0.4-0.6,1-0.6,1.9c0,0.4,0,0.7,0.1,1
					c0.1,0.3,0.2,0.6,0.3,0.8c0.2,0.2,0.4,0.4,0.6,0.5C179.3,271.2,179.6,271.3,180,271.3z"/>
				<path class="st11" d="M193.2,270.7c0.3,0.1,0.6,0.3,0.9,0.3c0.3,0.1,0.7,0.1,1,0.1c0.3,0,0.6,0,0.8-0.1c0.3-0.1,0.5-0.1,0.7-0.3
					c0.2-0.1,0.3-0.3,0.4-0.5c0.1-0.2,0.2-0.4,0.2-0.7c0-0.4-0.1-0.6-0.4-0.9c-0.2-0.2-0.5-0.4-0.9-0.6c-0.4-0.2-0.7-0.3-1.2-0.5
					c-0.4-0.2-0.8-0.4-1.2-0.6s-0.7-0.5-0.9-0.8c-0.2-0.3-0.4-0.7-0.4-1.2c0-0.4,0.1-0.7,0.2-1s0.3-0.5,0.6-0.7
					c0.3-0.2,0.6-0.4,0.9-0.5c0.4-0.1,0.8-0.2,1.2-0.2c0.5,0,1,0,1.4,0.1c0.4,0.1,0.8,0.2,1,0.3l0,0v0h0l0,0v2.1h-1v-1.4
					c-0.2-0.1-0.5-0.1-0.7-0.1c-0.3,0-0.5-0.1-0.8-0.1c-0.3,0-0.5,0-0.8,0.1c-0.2,0.1-0.4,0.2-0.6,0.3c-0.2,0.1-0.3,0.3-0.4,0.4
					c-0.1,0.2-0.1,0.3-0.1,0.5c0,0.3,0.1,0.6,0.4,0.8s0.5,0.4,0.9,0.6c0.4,0.2,0.7,0.4,1.2,0.5c0.4,0.2,0.8,0.4,1.2,0.6
					c0.4,0.2,0.7,0.5,0.9,0.8c0.2,0.3,0.4,0.7,0.4,1.2c0,0.4-0.1,0.7-0.2,1.1c-0.1,0.3-0.3,0.6-0.6,0.8c-0.3,0.2-0.6,0.4-1,0.5
					c-0.4,0.1-0.8,0.2-1.3,0.2c-0.3,0-0.6,0-0.9-0.1c-0.3-0.1-0.6-0.1-0.8-0.2s-0.5-0.2-0.7-0.2c-0.2-0.1-0.3-0.2-0.5-0.2l0,0v-2.1
					h1V270.7z"/>
				<path class="st11" d="M199.8,262.9c0.3,0,0.7-0.1,1-0.1c0.4,0,0.7,0,0.9,0c0.8,0,1.4,0.1,2,0.3c0.5,0.2,1,0.5,1.3,0.9
					c0.3,0.4,0.6,0.9,0.7,1.5s0.2,1.2,0.2,1.9c0,0.6-0.1,1.2-0.2,1.8c-0.1,0.6-0.4,1.1-0.7,1.5c-0.3,0.4-0.8,0.8-1.3,1.1
					c-0.5,0.3-1.2,0.4-2,0.4c-0.1,0-0.3,0-0.4,0c-0.2,0-0.4,0-0.6,0c-0.2,0-0.4,0-0.5,0s-0.3,0-0.4,0V262.9z M201.8,263.8
					c-0.1,0-0.3,0-0.5,0c-0.2,0-0.3,0-0.5,0.1v7.3c0,0,0.1,0,0.2,0c0.1,0,0.2,0,0.3,0c0.1,0,0.2,0,0.3,0c0.1,0,0.1,0,0.2,0
					c0.6,0,1.1-0.1,1.5-0.3c0.4-0.2,0.7-0.5,0.9-0.8c0.2-0.4,0.4-0.8,0.4-1.2s0.1-0.9,0.1-1.4c0-0.4,0-0.9-0.1-1.3
					c-0.1-0.4-0.2-0.8-0.4-1.2s-0.5-0.6-0.9-0.9C203,263.9,202.4,263.8,201.8,263.8z"/>
				<path class="st11" d="M209.4,267.8h-1v4.2h-1.1v-9.1h1.1v4.1h1l2.9-4.1h1.2l-3.2,4.3l3.6,4.8h-1.4L209.4,267.8z"/>
			</g>
			<path id="Rectangle-Copy-15_4_" class="st2" d="M47,343h183c2.8,0,5,2.2,5,5v54c0,2.8-2.2,5-5,5H47c-2.8,0-5-2.2-5-5v-54
				C42,345.2,44.2,343,47,343z"/>
			<g class="st3">
				<path class="st9" d="M164.8,371.5h-4.4v4.5h-1.2v-9.8h1.2v4.3h4.4v-4.3h1.2v9.8h-1.2V371.5z"/>
				<path class="st9" d="M168.9,374.6c0.3,0.1,0.6,0.3,0.9,0.4c0.4,0.1,0.7,0.1,1.1,0.1c0.3,0,0.6,0,0.9-0.1
					c0.3-0.1,0.5-0.2,0.7-0.3c0.2-0.1,0.4-0.3,0.5-0.5c0.1-0.2,0.2-0.4,0.2-0.7c0-0.4-0.1-0.7-0.4-0.9c-0.3-0.2-0.6-0.5-1-0.6
					c-0.4-0.2-0.8-0.4-1.2-0.5c-0.4-0.2-0.9-0.4-1.2-0.6c-0.4-0.2-0.7-0.5-1-0.9c-0.3-0.4-0.4-0.8-0.4-1.3c0-0.4,0.1-0.7,0.2-1
					c0.2-0.3,0.4-0.6,0.7-0.8s0.6-0.4,1-0.5c0.4-0.1,0.8-0.2,1.3-0.2c0.6,0,1.1,0,1.5,0.1c0.5,0.1,0.8,0.2,1.1,0.3l0,0v0h0l0,0v2.2
					h-1v-1.5c-0.2-0.1-0.5-0.1-0.8-0.1c-0.3,0-0.6-0.1-0.9-0.1c-0.3,0-0.6,0-0.8,0.1c-0.2,0.1-0.5,0.2-0.6,0.3
					c-0.2,0.1-0.3,0.3-0.4,0.4c-0.1,0.2-0.1,0.3-0.1,0.5c0,0.4,0.1,0.7,0.4,0.9c0.3,0.2,0.6,0.5,1,0.7c0.4,0.2,0.8,0.4,1.2,0.6
					s0.9,0.4,1.2,0.7c0.4,0.2,0.7,0.5,1,0.9s0.4,0.8,0.4,1.3c0,0.4-0.1,0.8-0.2,1.1c-0.2,0.3-0.4,0.6-0.7,0.9
					c-0.3,0.2-0.6,0.4-1.1,0.6c-0.4,0.1-0.9,0.2-1.4,0.2c-0.4,0-0.7,0-1-0.1c-0.3-0.1-0.6-0.1-0.9-0.2c-0.3-0.1-0.5-0.2-0.7-0.3
					c-0.2-0.1-0.4-0.2-0.5-0.2l0,0v-2.3h1V374.6z"/>
				<path class="st9" d="M181.6,369.5l0.1-1.3h-0.1l-0.7,1.2l-1.4,2.4h-0.4l-1.5-2.4l-0.6-1.2H177l0.2,1.3v6.5H176v-9.8h1.1l2.3,3.7
					h0l2.2-3.7h1v9.8h-1.2V369.5z"/>
			</g>
			<path id="Shape_5_" class="st12" d="M139,364l-9,4v6c0,5.5,3.8,10.7,9,12c5.2-1.3,9-6.5,9-12v-6L139,364 M139,370
				c1.4,0,2.8,1.1,2.8,2.5v1.5c0.6,0,1.2,0.6,1.2,1.3v3.5c0,0.6-0.6,1.2-1.3,1.2h-5.5c-0.6,0-1.2-0.6-1.2-1.3v-3.5
				c0-0.6,0.6-1.2,1.2-1.2v-1.5C136.2,371.1,137.6,370,139,370 M139,371.2c-0.8,0-1.5,0.5-1.5,1.3v1.5h3v-1.5
				C140.5,371.7,139.8,371.2,139,371.2z"/>
			<path id="Rectangle-Copy-14" class="st5" d="M42,200v135c0,5.5-4.5,10-10,10H10c-5.5,0-10-4.5-10-10V200c0-5.5,4.5-10,10-10h22
				C37.5,190,42,194.5,42,200z"/>
			<g class="st3">
				<path class="st4" d="M21.1,302.3c-1.6,0-2.9-0.3-3.8-0.9c-0.9-0.6-1.3-1.5-1.3-2.6c0-0.7,0.1-1.2,0.4-1.7c0.2-0.5,0.6-0.8,1-1.1
					s1-0.5,1.6-0.6c0.6-0.1,1.3-0.2,2.1-0.2c1.6,0,2.9,0.3,3.8,0.9c0.9,0.6,1.3,1.5,1.3,2.7c0,0.6-0.1,1.2-0.4,1.6
					c-0.2,0.4-0.6,0.8-1,1.1c-0.4,0.3-1,0.5-1.6,0.6C22.6,302.3,21.9,302.3,21.1,302.3z M21.1,301.1c0.5,0,1.1,0,1.5-0.1
					c0.5-0.1,0.9-0.2,1.3-0.4c0.4-0.2,0.7-0.4,0.9-0.7c0.2-0.3,0.3-0.7,0.3-1.1c0-0.8-0.3-1.4-1-1.8s-1.7-0.6-3.1-0.6
					c-0.5,0-1,0-1.5,0.1c-0.5,0.1-0.9,0.2-1.3,0.4c-0.4,0.2-0.7,0.4-0.9,0.7c-0.2,0.3-0.3,0.7-0.3,1.1c0,0.8,0.3,1.4,1,1.7
					C18.7,300.9,19.7,301.1,21.1,301.1z"/>
				<path class="st4" d="M20.1,288.5c-0.1,0.2-0.1,0.4-0.2,0.7c-0.1,0.2-0.1,0.5-0.1,0.7c0,0.9,0.2,1.6,0.6,2c0.4,0.4,1.1,0.7,2,0.7
					c0.4,0,0.8-0.1,1.1-0.2c0.3-0.1,0.6-0.3,0.8-0.6c0.2-0.2,0.4-0.5,0.5-0.9c0.1-0.3,0.2-0.7,0.2-1.1c0-0.4-0.1-0.9-0.2-1.3
					c-0.2-0.4-0.4-0.8-0.6-1l0.8-0.5c0.1,0.1,0.2,0.3,0.3,0.5c0.1,0.2,0.2,0.4,0.3,0.7c0.1,0.3,0.2,0.5,0.3,0.9
					c0.1,0.3,0.1,0.7,0.1,1c0,0.6-0.1,1.1-0.3,1.6s-0.4,0.8-0.7,1.2c-0.3,0.3-0.7,0.5-1.2,0.7c-0.5,0.2-1,0.2-1.5,0.2
					c-0.6,0-1.1-0.1-1.6-0.2c-0.5-0.2-0.8-0.4-1.1-0.7c-0.3-0.3-0.5-0.7-0.7-1.1c-0.2-0.4-0.2-0.9-0.2-1.5c0-0.7,0.1-1.3,0.2-1.7
					c0.1-0.4,0.3-0.8,0.4-1.1l0,0h1.9v1H20.1z"/>
				<path class="st4" d="M16.2,285.9v-2.3H22v-0.8l-3-2.8v-1.3l3.3,3.1l2.7-2.5v-0.9H26v1.4l-3.2,3v0.8H26v1.1h-8.9v1.2H16.2z"/>
				<path class="st4" d="M19.5,276.3c-0.2-0.4-0.4-0.9-0.5-1.4s-0.2-1-0.2-1.5c0-0.5,0.1-0.9,0.2-1.2s0.3-0.5,0.6-0.7
					c0.2-0.2,0.5-0.3,0.8-0.4c0.3-0.1,0.6-0.1,0.9-0.1c0.4,0,0.7,0,1.1,0c0.4,0,0.8,0,1.2,0c0.5,0,0.9,0,1.3-0.1v-0.9H26v1.8l-1,0.1
					v0.1c0.1,0.1,0.2,0.1,0.3,0.3c0.1,0.1,0.3,0.3,0.4,0.4c0.1,0.2,0.2,0.4,0.3,0.7c0.1,0.3,0.1,0.6,0.1,0.9c0,0.7-0.2,1.2-0.5,1.6
					c-0.4,0.4-0.8,0.6-1.5,0.6c-0.5,0-0.9-0.1-1.2-0.3c-0.3-0.2-0.6-0.5-0.7-0.9c-0.2-0.4-0.3-0.9-0.3-1.4c0-0.6,0-1.2,0.1-1.9
					c-0.4,0-0.8-0.1-1.1,0c-0.3,0-0.5,0.1-0.7,0.2s-0.3,0.3-0.4,0.5c-0.1,0.2-0.1,0.5-0.1,0.8c0,0.4,0.1,0.8,0.2,1.2
					c0.1,0.4,0.2,0.7,0.4,1L19.5,276.3z M25.2,274.2c0-0.3,0-0.5-0.1-0.7c-0.1-0.2-0.2-0.4-0.3-0.6s-0.3-0.3-0.4-0.4
					c-0.2-0.1-0.3-0.2-0.4-0.3h-1c-0.1,0.5-0.1,0.9-0.1,1.3s0,0.8,0.1,1.1s0.2,0.5,0.4,0.7c0.2,0.2,0.4,0.3,0.7,0.3
					c0.3,0,0.6-0.1,0.8-0.3C25.1,275.1,25.2,274.7,25.2,274.2z"/>
				<path class="st4" d="M26,265.7h-4.7c-0.2,0-0.4,0-0.6,0c-0.2,0-0.3,0-0.5,0.1s-0.3,0.1-0.3,0.2c-0.1,0.1-0.1,0.2-0.1,0.4
					c0,0.3,0.1,0.6,0.4,0.8s0.6,0.4,1,0.5H26v1.1h-7v-0.7l0.9-0.2v-0.1c-0.1-0.1-0.3-0.2-0.4-0.3s-0.2-0.2-0.3-0.3
					c-0.1-0.1-0.2-0.3-0.2-0.4c-0.1-0.2-0.1-0.4-0.1-0.6c0-0.1,0-0.3,0.1-0.4c0-0.1,0.1-0.3,0.2-0.4c0.1-0.1,0.2-0.2,0.4-0.3
					s0.3-0.2,0.5-0.2c-0.4-0.2-0.6-0.5-0.9-0.7c-0.2-0.3-0.3-0.6-0.3-1.1c0-0.3,0.1-0.6,0.2-0.7s0.2-0.3,0.4-0.4
					c0.2-0.1,0.4-0.2,0.7-0.2c0.3,0,0.6-0.1,0.9-0.1h5v1.1h-4.8c-0.2,0-0.4,0-0.6,0c-0.2,0-0.3,0.1-0.5,0.1s-0.2,0.1-0.3,0.2
					c-0.1,0.1-0.1,0.2-0.1,0.4c0,0.3,0.1,0.6,0.4,0.8c0.3,0.2,0.6,0.4,1.1,0.5H26V265.7z"/>
				<path class="st4" d="M16.3,251.2c-0.1-0.4-0.1-0.8-0.2-1.2c0-0.5-0.1-0.9-0.1-1.3c0-0.4,0-0.8,0.1-1.2c0.1-0.4,0.2-0.7,0.5-1
					c0.2-0.3,0.5-0.5,0.8-0.7c0.3-0.2,0.8-0.3,1.3-0.3c0.4,0,0.7,0.1,1,0.2c0.3,0.1,0.5,0.3,0.8,0.5c0.2,0.2,0.4,0.4,0.5,0.6
					c0.1,0.2,0.2,0.4,0.3,0.5l4.6-2.6v1.4l-4.3,2.3v1.7H26v1.2H16.3z M17.1,248.7c0,0.1,0,0.2,0,0.4c0,0.1,0,0.3,0,0.4
					c0,0.1,0,0.2,0,0.3c0,0.1,0,0.2,0,0.3h3.6v-1.1c0-0.6-0.2-1.2-0.5-1.6s-0.8-0.6-1.5-0.6c-0.5,0-0.9,0.2-1.2,0.5
					C17.3,247.6,17.1,248.1,17.1,248.7z"/>
				<path class="st4" d="M22.5,243.4c-1.1,0-2-0.3-2.7-0.9c-0.7-0.6-1-1.4-1-2.5c0-0.6,0.1-1.1,0.3-1.5c0.2-0.4,0.5-0.8,0.8-1.1
					c0.3-0.3,0.7-0.5,1.2-0.6c0.4-0.1,0.9-0.2,1.4-0.2c0.6,0,1.1,0.1,1.5,0.2c0.5,0.1,0.8,0.4,1.2,0.7c0.3,0.3,0.6,0.6,0.7,1.1
					s0.3,0.9,0.3,1.4c0,0.6-0.1,1.1-0.3,1.5s-0.5,0.8-0.8,1.1c-0.3,0.3-0.7,0.5-1.2,0.6C23.5,243.3,23,243.4,22.5,243.4z
					 M22.5,242.2c0.3,0,0.7,0,1-0.1c0.3-0.1,0.6-0.2,0.9-0.4c0.3-0.2,0.5-0.4,0.6-0.7c0.2-0.3,0.2-0.6,0.2-1c0-0.7-0.2-1.3-0.7-1.7
					c-0.5-0.4-1.1-0.6-2-0.6c-0.3,0-0.7,0-1,0.1c-0.3,0.1-0.6,0.2-0.9,0.4c-0.3,0.2-0.5,0.4-0.6,0.7c-0.2,0.3-0.2,0.6-0.2,1
					c0,0.7,0.2,1.3,0.7,1.7S21.6,242.2,22.5,242.2z"/>
				<path class="st4" d="M19,230.7v-2h4.8c0.5,0,0.9,0,1.3-0.1v-0.9H26v1.9l-1.2,0v0.1c0.4,0.2,0.7,0.6,1,1s0.4,0.9,0.4,1.5
					c0,0.4,0,0.8-0.1,1.1c-0.1,0.3-0.3,0.6-0.5,0.7c-0.2,0.2-0.6,0.3-1,0.4c-0.4,0.1-0.9,0.1-1.5,0.1h-3.1v0.9H19v-2h3.8
					c0.4,0,0.7,0,1,0c0.3,0,0.6-0.1,0.8-0.2s0.4-0.3,0.5-0.5c0.1-0.2,0.2-0.5,0.2-0.8c0-0.5-0.2-0.9-0.5-1.3s-0.7-0.6-1.2-0.8h-3.6
					v0.9H19z"/>
				<path class="st4" d="M19,227v-1.7h-1.4l-0.3-1.1H19v-3.7h0.9v3.7h3.3c0.7,0,1.2-0.2,1.5-0.5c0.3-0.3,0.5-0.8,0.5-1.4
					c0-0.4-0.1-0.8-0.2-1.1c-0.2-0.3-0.3-0.6-0.5-0.8l0.8-0.4c0.3,0.3,0.5,0.7,0.6,1.2c0.2,0.5,0.2,0.9,0.2,1.4
					c0,0.4-0.1,0.7-0.2,1.1c-0.1,0.3-0.3,0.6-0.5,0.9c-0.2,0.3-0.5,0.5-0.9,0.6c-0.3,0.1-0.8,0.2-1.3,0.2h-3.5v1.7H19z"/>
				<path class="st4" d="M25.1,211.6c0.1,0.2,0.3,0.4,0.4,0.6c0.1,0.2,0.2,0.5,0.3,0.7c0.1,0.3,0.2,0.6,0.2,0.8
					c0.1,0.3,0.1,0.6,0.1,0.9c0,0.6-0.1,1.1-0.3,1.5s-0.4,0.8-0.7,1.1c-0.3,0.3-0.7,0.5-1.2,0.7c-0.4,0.1-1,0.2-1.5,0.2
					c-0.6,0-1.1-0.1-1.6-0.2c-0.5-0.2-0.8-0.4-1.1-0.7c-0.3-0.3-0.5-0.7-0.7-1.1c-0.2-0.4-0.2-0.9-0.2-1.5c0-0.4,0.1-0.8,0.2-1.2
					s0.3-0.7,0.6-1c0.3-0.3,0.7-0.5,1.2-0.7s1.1-0.2,1.9-0.2v5.4c0.8,0,1.5-0.2,1.9-0.7c0.4-0.5,0.6-1.1,0.6-1.8
					c0-0.3,0-0.5-0.1-0.7c-0.1-0.2-0.1-0.5-0.2-0.7c-0.1-0.2-0.2-0.4-0.3-0.6c-0.1-0.2-0.2-0.3-0.3-0.4L25.1,211.6z M19.8,214.5
					c0,0.3,0,0.6,0.1,0.9c0.1,0.3,0.2,0.5,0.3,0.7c0.2,0.2,0.4,0.4,0.6,0.5c0.2,0.1,0.6,0.2,0.9,0.3v-4.3c-0.6,0-1.1,0.2-1.4,0.6
					C19.9,213.5,19.8,214,19.8,214.5z"/>
				<path class="st4" d="M26,209.7h-0.9v-1.9h-5.1v1.9H19v-2.6l0.9-0.2v-0.1c-0.3-0.3-0.5-0.7-0.7-1.1s-0.3-0.9-0.3-1.4
					c0-0.3,0.1-0.6,0.2-0.8s0.3-0.3,0.5-0.4c0.2-0.1,0.5-0.2,0.8-0.2c0.3,0,0.7-0.1,1.1-0.1l0,1c-0.6,0-1,0.1-1.3,0.2
					c-0.3,0.1-0.4,0.3-0.4,0.6c0,0.3,0,0.6,0.1,0.8s0.2,0.4,0.3,0.6c0.1,0.2,0.2,0.3,0.4,0.4c0.1,0.1,0.2,0.2,0.3,0.3h4.1V204H26
					V209.7z"/>
			</g>
			<path id="Shape-Copy" class="st0" d="M14.1,315c-1.4,1.4-2.1,3.2-2.1,5s0.7,3.6,2.1,5l0.8-0.8c-1.1-1.2-1.7-2.7-1.7-4.2
				s0.6-3,1.7-4.2L14.1,315z M14.3,320c0,1.2,0.5,2.4,1.4,3.3l0.8-0.8c-0.7-0.7-1-1.6-1-2.5s0.3-1.8,1-2.5l-0.8-0.8
				C14.8,317.6,14.3,318.8,14.3,320z M22,319h-4v2h4v10c0,1.1,0.9,2,2,2h4c1.1,0,2-0.9,2-2v-14c0-1.1-0.9-2-2-2h-4c-1.1,0-2,0.9-2,2
				V319z M27,330h-2v-2h2V330z M27,326.5h-2v-2h2V326.5z M27,321v2h-2v-2H27z"/>
			<path id="Rectangle-Copy-14_1_" class="st5" d="M324,200v135c0,5.5-4.5,10-10,10h-22c-5.5,0-10-4.5-10-10V200c0-5.5,4.5-10,10-10
				h22C319.5,190,324,194.5,324,200z"/>
			<g class="st3">
				<path class="st4" d="M300.1,302.3c-1.6,0-2.9-0.3-3.8-0.9c-0.9-0.6-1.3-1.5-1.3-2.6c0-0.7,0.1-1.2,0.4-1.7
					c0.2-0.5,0.6-0.8,1-1.1s1-0.5,1.6-0.6c0.6-0.1,1.3-0.2,2.1-0.2c1.6,0,2.9,0.3,3.8,0.9c0.9,0.6,1.3,1.5,1.3,2.7
					c0,0.6-0.1,1.2-0.4,1.6c-0.2,0.4-0.6,0.8-1,1.1c-0.4,0.3-1,0.5-1.6,0.6C301.6,302.3,300.9,302.3,300.1,302.3z M300.1,301.1
					c0.5,0,1.1,0,1.5-0.1c0.5-0.1,0.9-0.2,1.3-0.4c0.4-0.2,0.7-0.4,0.9-0.7c0.2-0.3,0.3-0.7,0.3-1.1c0-0.8-0.3-1.4-1-1.8
					s-1.7-0.6-3.1-0.6c-0.5,0-1,0-1.5,0.1c-0.5,0.1-0.9,0.2-1.3,0.4c-0.4,0.2-0.7,0.4-0.9,0.7c-0.2,0.3-0.3,0.7-0.3,1.1
					c0,0.8,0.3,1.4,1,1.7C297.7,300.9,298.7,301.1,300.1,301.1z"/>
				<path class="st4" d="M299.1,288.5c-0.1,0.2-0.1,0.4-0.2,0.7c-0.1,0.2-0.1,0.5-0.1,0.7c0,0.9,0.2,1.6,0.6,2
					c0.4,0.4,1.1,0.7,2,0.7c0.4,0,0.8-0.1,1.1-0.2c0.3-0.1,0.6-0.3,0.8-0.6c0.2-0.2,0.4-0.5,0.5-0.9c0.1-0.3,0.2-0.7,0.2-1.1
					c0-0.4-0.1-0.9-0.2-1.3c-0.2-0.4-0.4-0.8-0.6-1l0.8-0.5c0.1,0.1,0.2,0.3,0.3,0.5c0.1,0.2,0.2,0.4,0.3,0.7
					c0.1,0.3,0.2,0.5,0.3,0.9c0.1,0.3,0.1,0.7,0.1,1c0,0.6-0.1,1.1-0.3,1.6s-0.4,0.8-0.7,1.2c-0.3,0.3-0.7,0.5-1.2,0.7
					c-0.5,0.2-1,0.2-1.5,0.2c-0.6,0-1.1-0.1-1.6-0.2c-0.5-0.2-0.8-0.4-1.1-0.7c-0.3-0.3-0.5-0.7-0.7-1.1c-0.2-0.4-0.2-0.9-0.2-1.5
					c0-0.7,0.1-1.3,0.2-1.7c0.1-0.4,0.3-0.8,0.4-1.1l0,0h1.9v1H299.1z"/>
				<path class="st4" d="M295.2,285.9v-2.3h5.8v-0.8l-3-2.8v-1.3l3.3,3.1l2.7-2.5v-0.9h0.9v1.4l-3.2,3v0.8h3.2v1.1h-8.9v1.2H295.2z"
					/>
				<path class="st4" d="M298.5,276.3c-0.2-0.4-0.4-0.9-0.5-1.4s-0.2-1-0.2-1.5c0-0.5,0.1-0.9,0.2-1.2s0.3-0.5,0.6-0.7
					c0.2-0.2,0.5-0.3,0.8-0.4c0.3-0.1,0.6-0.1,0.9-0.1c0.4,0,0.7,0,1.1,0c0.4,0,0.8,0,1.2,0c0.5,0,0.9,0,1.3-0.1v-0.9h0.9v1.8
					l-1,0.1v0.1c0.1,0.1,0.2,0.1,0.3,0.3c0.1,0.1,0.3,0.3,0.4,0.4c0.1,0.2,0.2,0.4,0.3,0.7c0.1,0.3,0.1,0.6,0.1,0.9
					c0,0.7-0.2,1.2-0.5,1.6c-0.4,0.4-0.8,0.6-1.5,0.6c-0.5,0-0.9-0.1-1.2-0.3c-0.3-0.2-0.6-0.5-0.7-0.9c-0.2-0.4-0.3-0.9-0.3-1.4
					c0-0.6,0-1.2,0.1-1.9c-0.4,0-0.8-0.1-1.1,0c-0.3,0-0.5,0.1-0.7,0.2s-0.3,0.3-0.4,0.5c-0.1,0.2-0.1,0.5-0.1,0.8
					c0,0.4,0.1,0.8,0.2,1.2c0.1,0.4,0.2,0.7,0.4,1L298.5,276.3z M304.2,274.2c0-0.3,0-0.5-0.1-0.7c-0.1-0.2-0.2-0.4-0.3-0.6
					s-0.3-0.3-0.4-0.4c-0.2-0.1-0.3-0.2-0.4-0.3h-1c-0.1,0.5-0.1,0.9-0.1,1.3s0,0.8,0.1,1.1s0.2,0.5,0.4,0.7
					c0.2,0.2,0.4,0.3,0.7,0.3c0.3,0,0.6-0.1,0.8-0.3C304.1,275.1,304.2,274.7,304.2,274.2z"/>
				<path class="st4" d="M305,265.7h-4.7c-0.2,0-0.4,0-0.6,0c-0.2,0-0.3,0-0.5,0.1s-0.3,0.1-0.3,0.2c-0.1,0.1-0.1,0.2-0.1,0.4
					c0,0.3,0.1,0.6,0.4,0.8s0.6,0.4,1,0.5h4.8v1.1h-7v-0.7l0.9-0.2v-0.1c-0.1-0.1-0.3-0.2-0.4-0.3s-0.2-0.2-0.3-0.3
					c-0.1-0.1-0.2-0.3-0.2-0.4c-0.1-0.2-0.1-0.4-0.1-0.6c0-0.1,0-0.3,0.1-0.4c0-0.1,0.1-0.3,0.2-0.4c0.1-0.1,0.2-0.2,0.4-0.3
					s0.3-0.2,0.5-0.2c-0.4-0.2-0.6-0.5-0.9-0.7c-0.2-0.3-0.3-0.6-0.3-1.1c0-0.3,0.1-0.6,0.2-0.7s0.2-0.3,0.4-0.4
					c0.2-0.1,0.4-0.2,0.7-0.2c0.3,0,0.6-0.1,0.9-0.1h5v1.1h-4.8c-0.2,0-0.4,0-0.6,0c-0.2,0-0.3,0.1-0.5,0.1s-0.2,0.1-0.3,0.2
					c-0.1,0.1-0.1,0.2-0.1,0.4c0,0.3,0.1,0.6,0.4,0.8c0.3,0.2,0.6,0.4,1.1,0.5h4.7V265.7z"/>
				<path class="st4" d="M295.3,251.2c-0.1-0.4-0.1-0.8-0.2-1.2c0-0.5-0.1-0.9-0.1-1.3c0-0.4,0-0.8,0.1-1.2c0.1-0.4,0.2-0.7,0.5-1
					c0.2-0.3,0.5-0.5,0.8-0.7c0.3-0.2,0.8-0.3,1.3-0.3c0.4,0,0.7,0.1,1,0.2c0.3,0.1,0.5,0.3,0.8,0.5c0.2,0.2,0.4,0.4,0.5,0.6
					c0.1,0.2,0.2,0.4,0.3,0.5l4.6-2.6v1.4l-4.3,2.3v1.7h4.3v1.2H295.3z M296.1,248.7c0,0.1,0,0.2,0,0.4c0,0.1,0,0.3,0,0.4
					c0,0.1,0,0.2,0,0.3c0,0.1,0,0.2,0,0.3h3.6v-1.1c0-0.6-0.2-1.2-0.5-1.6s-0.8-0.6-1.5-0.6c-0.5,0-0.9,0.2-1.2,0.5
					C296.3,247.6,296.1,248.1,296.1,248.7z"/>
				<path class="st4" d="M301.5,243.4c-1.1,0-2-0.3-2.7-0.9c-0.7-0.6-1-1.4-1-2.5c0-0.6,0.1-1.1,0.3-1.5c0.2-0.4,0.5-0.8,0.8-1.1
					c0.3-0.3,0.7-0.5,1.2-0.6c0.4-0.1,0.9-0.2,1.4-0.2c0.6,0,1.1,0.1,1.5,0.2c0.5,0.1,0.8,0.4,1.2,0.7c0.3,0.3,0.6,0.6,0.7,1.1
					s0.3,0.9,0.3,1.4c0,0.6-0.1,1.1-0.3,1.5s-0.5,0.8-0.8,1.1c-0.3,0.3-0.7,0.5-1.2,0.6C302.5,243.3,302,243.4,301.5,243.4z
					 M301.5,242.2c0.3,0,0.7,0,1-0.1c0.3-0.1,0.6-0.2,0.9-0.4c0.3-0.2,0.5-0.4,0.6-0.7c0.2-0.3,0.2-0.6,0.2-1c0-0.7-0.2-1.3-0.7-1.7
					c-0.5-0.4-1.1-0.6-2-0.6c-0.3,0-0.7,0-1,0.1c-0.3,0.1-0.6,0.2-0.9,0.4c-0.3,0.2-0.5,0.4-0.6,0.7c-0.2,0.3-0.2,0.6-0.2,1
					c0,0.7,0.2,1.3,0.7,1.7S300.6,242.2,301.5,242.2z"/>
				<path class="st4" d="M298,230.7v-2h4.8c0.5,0,0.9,0,1.3-0.1v-0.9h0.9v1.9l-1.2,0v0.1c0.4,0.2,0.7,0.6,1,1s0.4,0.9,0.4,1.5
					c0,0.4,0,0.8-0.1,1.1c-0.1,0.3-0.3,0.6-0.5,0.7c-0.2,0.2-0.6,0.3-1,0.4c-0.4,0.1-0.9,0.1-1.5,0.1h-3.1v0.9H298v-2h3.8
					c0.4,0,0.7,0,1,0c0.3,0,0.6-0.1,0.8-0.2s0.4-0.3,0.5-0.5c0.1-0.2,0.2-0.5,0.2-0.8c0-0.5-0.2-0.9-0.5-1.3s-0.7-0.6-1.2-0.8h-3.6
					v0.9H298z"/>
				<path class="st4" d="M298,227v-1.7h-1.4l-0.3-1.1h1.7v-3.7h0.9v3.7h3.3c0.7,0,1.2-0.2,1.5-0.5c0.3-0.3,0.5-0.8,0.5-1.4
					c0-0.4-0.1-0.8-0.2-1.1c-0.2-0.3-0.3-0.6-0.5-0.8l0.8-0.4c0.3,0.3,0.5,0.7,0.6,1.2c0.2,0.5,0.2,0.9,0.2,1.4
					c0,0.4-0.1,0.7-0.2,1.1c-0.1,0.3-0.3,0.6-0.5,0.9c-0.2,0.3-0.5,0.5-0.9,0.6c-0.3,0.1-0.8,0.2-1.3,0.2h-3.5v1.7H298z"/>
				<path class="st4" d="M304.1,211.6c0.1,0.2,0.3,0.4,0.4,0.6c0.1,0.2,0.2,0.5,0.3,0.7c0.1,0.3,0.2,0.6,0.2,0.8
					c0.1,0.3,0.1,0.6,0.1,0.9c0,0.6-0.1,1.1-0.3,1.5s-0.4,0.8-0.7,1.1c-0.3,0.3-0.7,0.5-1.2,0.7c-0.4,0.1-1,0.2-1.5,0.2
					c-0.6,0-1.1-0.1-1.6-0.2c-0.5-0.2-0.8-0.4-1.1-0.7c-0.3-0.3-0.5-0.7-0.7-1.1c-0.2-0.4-0.2-0.9-0.2-1.5c0-0.4,0.1-0.8,0.2-1.2
					s0.3-0.7,0.6-1c0.3-0.3,0.7-0.5,1.2-0.7s1.1-0.2,1.9-0.2v5.4c0.8,0,1.5-0.2,1.9-0.7c0.4-0.5,0.6-1.1,0.6-1.8
					c0-0.3,0-0.5-0.1-0.7c-0.1-0.2-0.1-0.5-0.2-0.7c-0.1-0.2-0.2-0.4-0.3-0.6c-0.1-0.2-0.2-0.3-0.3-0.4L304.1,211.6z M298.8,214.5
					c0,0.3,0,0.6,0.1,0.9c0.1,0.3,0.2,0.5,0.3,0.7c0.2,0.2,0.4,0.4,0.6,0.5c0.2,0.1,0.6,0.2,0.9,0.3v-4.3c-0.6,0-1.1,0.2-1.4,0.6
					C298.9,213.5,298.8,214,298.8,214.5z"/>
				<path class="st4" d="M305,209.7h-0.9v-1.9h-5.1v1.9H298v-2.6l0.9-0.2v-0.1c-0.3-0.3-0.5-0.7-0.7-1.1s-0.3-0.9-0.3-1.4
					c0-0.3,0.1-0.6,0.2-0.8s0.3-0.3,0.5-0.4c0.2-0.1,0.5-0.2,0.8-0.2c0.3,0,0.7-0.1,1.1-0.1l0,1c-0.6,0-1,0.1-1.3,0.2
					c-0.3,0.1-0.4,0.3-0.4,0.6c0,0.3,0,0.6,0.1,0.8s0.2,0.4,0.3,0.6c0.1,0.2,0.2,0.3,0.4,0.4c0.1,0.1,0.2,0.2,0.3,0.3h4.1V204h0.9
					V209.7z"/>
			</g>
			<path id="Shape-Copy_1_" class="st0" d="M293.1,315c-1.4,1.4-2.1,3.2-2.1,5s0.7,3.6,2.1,5l0.8-0.8c-1.1-1.2-1.7-2.7-1.7-4.2
				s0.6-3,1.7-4.2L293.1,315z M293.3,320c0,1.2,0.5,2.4,1.4,3.3l0.8-0.8c-0.7-0.7-1-1.6-1-2.5s0.3-1.8,1-2.5l-0.8-0.8
				C293.8,317.6,293.3,318.8,293.3,320z M301,319h-4v2h4v10c0,1.1,0.9,2,2,2h4c1.1,0,2-0.9,2-2v-14c0-1.1-0.9-2-2-2h-4
				c-1.1,0-2,0.9-2,2V319z M306,330h-2v-2h2V330z M306,326.5h-2v-2h2V326.5z M306,321v2h-2v-2H306z"/>
			<g id="Group_4_" transform="translate(259.000000, 247.000000)">
				
					<g id="icon_x2F_fingerprint-copy_4_" transform="translate(12.000000, 12.000000) rotate(90.000000) translate(-12.000000, -12.000000) ">
					<path id="Shape_6_" class="st0" d="M9,3L5,7h3v7h2V7h3 M16,17v-7h-2v7h-3l4,4l4-4H16z"/>
				</g>
			</g>
		</g>
	</g>
</g>
</svg>
