<?xml version="1.0" encoding="utf-8"?>
<!-- Generator: Adobe Illustrator 24.3.0, SVG Export Plug-In . SVG Version: 6.00 Build 0)  -->
<svg version="1.1" id="Layer_1" xmlns="http://www.w3.org/2000/svg" xmlns:xlink="http://www.w3.org/1999/xlink" x="0px" y="0px"
	 viewBox="0 0 600 600" style="enable-background:new 0 0 600 600;" xml:space="preserve">
<style type="text/css">
	.st0{opacity:0.4;}
	.st1{enable-background:new    ;}
	.st2{clip-path:url(#SVGID_2_);}
	.st3{fill:#0A1A2B;}
	.st4{fill:#4BC7EC;}
	.st5{opacity:0.1;}
	.st6{clip-path:url(#SVGID_4_);}
	.st7{fill:#52C7EA;}
	.st8{opacity:0.21;fill:url(#SVGID_5_);enable-background:new    ;}
	.st9{opacity:0.21;fill:url(#SVGID_6_);enable-background:new    ;}
	.st10{fill:#05131C;}
	.st11{fill:#05151E;}
	.st12{fill:#1B3144;}
	.st13{fill:#162535;}
	.st14{fill:#152935;}
	.st15{opacity:0.3;fill:url(#SVGID_7_);enable-background:new    ;}
	.st16{opacity:0.3;fill:url(#SVGID_8_);enable-background:new    ;}
	.st17{opacity:0.21;fill:url(#SVGID_9_);enable-background:new    ;}
	.st18{opacity:0.1;fill:#4BC7EC;}
	.st19{opacity:0.3;fill:url(#SVGID_10_);enable-background:new    ;}
	.st20{clip-path:url(#SVGID_12_);}
	.st21{fill:#EC432D;}
	.st22{opacity:0.5;fill:#52C7EA;}
	.st23{clip-path:url(#SVGID_14_);}
	.st24{opacity:0.3;fill:url(#SVGID_15_);enable-background:new    ;}
	.st25{clip-path:url(#SVGID_17_);}
</style>
<g class="st0">
	<g>
		<g class="st1">
			<defs>
				<polygon id="SVGID_1_" class="st1" points="167.8,428.5 269.7,369.2 448.4,472.4 346.5,531.7 				"/>
			</defs>
			<clipPath id="SVGID_2_">
				<use xlink:href="#SVGID_1_"  style="overflow:visible;"/>
			</clipPath>
			<g class="st2">
				<g>
					<g>
						<g>
							<path class="st3" d="M354.9,419.2c-9.2-5.3-20.9-8.6-33.8-9.5l-0.3,0l-0.1-0.2c-1.3-3-4-5.7-7.8-7.9
								c-7.5-4.3-18.5-6-28.7-4.4l-0.5,0.1l-0.1-0.3c-1.5-2.5-3.9-4.7-7.1-6.6c-11.6-6.7-30.3-6.7-41.8,0
								c-10.5,6.1-11.5,15.8-2.3,22.6l0.3,0.2l-0.3,0.2c-13.1,8.3-12.6,21,1.2,29c3.9,2.2,8.4,3.9,13.6,4.9l0.6,0.1l-0.3,0.3
								c-9.7,9.7-6.8,21.9,6.9,29.8c9.6,5.5,23.3,8.1,36.7,6.9l0.4,0l0.1,0.2c2.1,3.6,5.6,6.9,10.3,9.6c16.6,9.6,43.6,9.6,60.2,0
								l0.4-0.2l0.4,0.2c0.7,0.5,1.5,1,2.3,1.5c11.6,6.7,30.3,6.7,41.8,0s11.4-17.6-0.1-24.2c-2.8-1.6-6-2.8-9.6-3.7l-0.5-0.1
								l0.2-0.3c4.2-6.3,1.6-13.5-6.8-18.3c-4.8-2.8-11.1-4.5-17.9-4.9l-0.5,0l0-0.3C372.3,434.7,366.1,425.7,354.9,419.2"/>
							<path class="st4" d="M320.8,409.7l0.3,0c12.9,0.9,24.6,4.1,33.8,9.5c11.3,6.5,17.4,15.5,16.8,24.7l0,0.3l0.5,0
								c6.7,0.4,13.1,2.2,17.9,4.9c8.3,4.8,11,12,6.8,18.3l-0.2,0.3l0.5,0.1c3.6,0.9,6.8,2.1,9.6,3.7c11.6,6.7,11.6,17.6,0.1,24.2
								s-30.3,6.7-41.8,0c-0.8-0.4-1.5-0.9-2.3-1.5l-0.4-0.2l-0.4,0.2c-16.5,9.6-43.5,9.6-60.2,0c-4.7-2.7-8.2-6-10.3-9.6l-0.1-0.2
								l-0.4,0c-13.4,1.2-27.1-1.4-36.7-6.9c-13.7-7.9-16.5-20.2-6.9-29.8l0.3-0.3l-0.6-0.1c-5.1-1-9.7-2.7-13.6-4.9
								c-13.8-8-14.3-20.7-1.2-29l0.3-0.2l-0.3-0.2c-9.1-6.8-8.1-16.5,2.3-22.6c11.5-6.7,30.3-6.7,41.8,0c3.2,1.9,5.6,4.1,7.1,6.6
								l0.1,0.3l0.5-0.1c10.2-1.6,21.2,0.1,28.7,4.4c3.8,2.2,6.5,4.9,7.8,7.9L320.8,409.7 M355.6,418.8c-9.3-5.4-21-8.7-34-9.6
								c-1.4-3-4.1-5.8-8-8c-7.6-4.4-18.8-6.2-29.2-4.6c-1.5-2.5-4-4.7-7.2-6.6c-12-6.9-31.4-6.9-43.3,0
								c-10.7,6.2-11.9,16.2-2.7,23.2c-13.2,8.5-12.5,21.5,1.5,29.6c3.8,2.2,8.3,3.9,13.4,5c-9.5,9.8-6.6,22.2,7.3,30.2
								c9.7,5.6,23.6,8.3,37.1,7.1c2.2,3.6,5.7,6.9,10.4,9.6c16.9,9.8,44.2,9.8,61.2,0.2c0.6,0.5,1.3,0.9,2,1.3
								c12,6.9,31.4,6.9,43.3,0s11.8-18.2-0.1-25.1c-2.7-1.6-5.9-2.8-9.5-3.7c4.1-6.5,1.3-13.8-7.2-18.7c-4.9-2.8-11.2-4.6-18-5.1
								C373.2,434.4,366.9,425.4,355.6,418.8"/>
						</g>
					</g>
				</g>
			</g>
		</g>
	</g>
</g>
<g class="st5">
	<g>
		<g class="st1">
			<defs>
				<polygon id="SVGID_3_" class="st1" points="161.3,441 262.5,382.1 440.5,484.9 339.3,543.8 				"/>
			</defs>
			<clipPath id="SVGID_4_">
				<use xlink:href="#SVGID_3_"  style="overflow:visible;"/>
			</clipPath>
			<g class="st6">
				<g>
					<g>
						<g>
							<path class="st7" d="M348,431.5c-9.6-5.5-21.6-8.7-34.1-9.5c-1.3-2.9-3.9-5.7-7.9-8c-7.9-4.6-19.1-6.1-29.2-4.5
								c-1.5-2.4-3.9-4.8-7.2-6.7c-11.8-6.8-30.8-6.8-42.6,0c-10.8,6.3-11.6,16.2-2.4,23c-13.2,8.3-12.7,21.3,1.3,29.4
								c4,2.3,8.7,4,13.7,5c-9.5,9.5-7.2,22,6.9,30.2c10.1,5.8,24,8.2,37.1,7c2.1,3.6,5.5,6.9,10.4,9.7c16.9,9.7,44.1,9.7,60.9,0
								l0,0c0.7,0.5,1.5,1,2.3,1.5c11.8,6.8,30.8,6.8,42.6,0c11.7-6.8,11.7-17.8-0.1-24.7c-2.9-1.7-6.2-2.9-9.7-3.8
								c4.2-6.2,1.9-13.6-6.9-18.6c-5.1-2.9-11.5-4.6-18.2-5C365.6,447.5,359.9,438.4,348,431.5"/>
						</g>
					</g>
				</g>
			</g>
		</g>
	</g>
</g>
<g>
	<g>
		
			<linearGradient id="SVGID_5_" gradientUnits="userSpaceOnUse" x1="-8606.293" y1="-7852.6475" x2="-8582.6201" y2="-7852.6475" gradientTransform="matrix(-1.0408 0 0 1.0408 -8860.1699 8487.2422)">
			<stop  offset="0" style="stop-color:#52C7EA;stop-opacity:0.7"/>
			<stop  offset="1" style="stop-color:#000000"/>
		</linearGradient>
		<polyline class="st8" points="89,323.7 72.2,319.2 91.4,305.5 96.8,315 89,323.7 		"/>
		
			<linearGradient id="SVGID_6_" gradientUnits="userSpaceOnUse" x1="-8699.0078" y1="-7906.9434" x2="-8681.1045" y2="-7906.9434" gradientTransform="matrix(-1.0408 0 0 1.0408 -8860.1699 8487.2422)">
			<stop  offset="0" style="stop-color:#52C7EA;stop-opacity:0.7"/>
			<stop  offset="1" style="stop-color:#000000"/>
		</linearGradient>
		<polyline class="st9" points="192.2,264.4 188.4,262 183.5,263.6 174.7,265.2 175.2,259.7 189.4,251 193.3,251 192.2,264.4 		"/>
		<path class="st10" d="M70.7,349.3L60.2,345c0,0-3.4-6.3-1.3-12.6c2.1-6.3,16.7-19.8,16.7-19.8l5.9,4.7l4.4,2.7L70.7,349.3z"/>
		
			<ellipse transform="matrix(0.531 -0.8474 0.8474 0.531 -246.996 222.5194)" class="st11" cx="77.5" cy="334.4" rx="16.7" ry="9.5"/>
		
			<ellipse transform="matrix(0.531 -0.8474 0.8474 0.531 -246.996 222.5194)" class="st12" cx="77.5" cy="334.4" rx="6.9" ry="3.9"/>
		<path class="st12" d="M72.1,345.3c0.4,0,0.8-0.2,1-0.6l12.5-21.3c0.3-0.6,0.1-1.3-0.4-1.6c-0.6-0.3-1.3-0.1-1.6,0.4l-12.5,21.3
			c-0.3,0.6-0.1,1.3,0.4,1.6C71.7,345.3,71.9,345.3,72.1,345.3z"/>
		<path class="st12" d="M83.3,338.6c0.4,0,0.8-0.2,1-0.6c0.3-0.6,0.1-1.3-0.5-1.6l-12.3-6.4c-0.6-0.3-1.3-0.1-1.6,0.5
			s-0.1,1.3,0.5,1.6l12.3,6.4C82.9,338.5,83.1,338.6,83.3,338.6z"/>
		<path class="st10" d="M172.7,293l-10.4-4.3c0,0-3.4-6.3-1.3-12.6c2.1-6.3,16.7-19.8,16.7-19.8l5.9,4.7l4.4,2.7L172.7,293z"/>
		
			<ellipse transform="matrix(0.531 -0.8474 0.8474 0.531 -151.4136 282.5867)" class="st11" cx="179.6" cy="278.1" rx="16.7" ry="9.5"/>
		
			<ellipse transform="matrix(0.531 -0.8474 0.8474 0.531 -151.4135 282.5867)" class="st13" cx="179.6" cy="278.1" rx="6.9" ry="3.9"/>
		<path class="st13" d="M174.1,289c0.4,0,0.8-0.2,1-0.6l12.5-21.3c0.3-0.6,0.1-1.3-0.4-1.6c-0.6-0.3-1.3-0.1-1.6,0.4l-12.5,21.3
			c-0.3,0.6-0.1,1.3,0.4,1.6C173.7,289,173.9,289,174.1,289z"/>
		<path class="st13" d="M185.3,282.3c0.4,0,0.8-0.2,1-0.6c0.3-0.6,0.1-1.3-0.5-1.6l-12.3-6.4c-0.6-0.3-1.3-0.1-1.6,0.5
			c-0.3,0.6-0.1,1.3,0.5,1.6l12.3,6.4C185,282.2,185.2,282.3,185.3,282.3z"/>
		<polygon class="st12" points="105.9,220.9 153.6,198.8 206.2,230.4 59.2,320.5 45.8,320.5 8.3,297.6 5.9,288.1 74.5,235.9 		"/>
		<polygon class="st14" points="59.2,320.5 58.6,336.3 66.3,321.3 81.3,311.8 85.4,310.2 91.6,320.5 156.5,284.2 167.7,263.6 
			187,251.7 191.9,258.9 201.8,253.3 206.2,230.4 		"/>
		<polygon class="st13" points="5.9,288.1 5.7,300 6.4,310.2 47,333.9 58.8,334.7 60,320.5 45.8,320.5 8.3,297.6 		"/>
		<polygon class="st10" points="6.5,300 5.6,301.5 4.6,312.6 47.4,338.7 60,338.7 61.1,334.7 68.6,321.3 85.9,311.1 90.9,319.3 
			89,323.7 155.5,285.7 157.9,285.7 170.8,264.4 188.4,253.9 191.8,259.7 192.2,264.4 203.2,255.7 203.5,252.5 202.2,251.2 
			191.9,258.1 187.1,250.2 167.1,262 157.6,280.2 155.7,283.4 91.7,319.7 84.8,307.9 66.5,318.9 58.9,333.2 47,333.2 7.2,309.4 		
			"/>
		
			<linearGradient id="SVGID_7_" gradientUnits="userSpaceOnUse" x1="-8625.1738" y1="-7894.6704" x2="-8537.542" y2="-7894.6704" gradientTransform="matrix(-1.0408 0 0 1.0408 -8860.1699 8487.2422)">
			<stop  offset="0" style="stop-color:#52C7EA;stop-opacity:0.7"/>
			<stop  offset="1" style="stop-color:#000000"/>
		</linearGradient>
		<polygon class="st15" points="25.3,275.5 74.9,303.9 116.5,263.2 74.5,237.8 		"/>
		<polygon class="st3" points="74.5,237.8 106.7,223.2 153.2,250.9 116.5,263.2 		"/>
		<polyline class="st3" points="111.4,220.9 153.4,247 200,229.6 153.4,202 112.2,220.9 		"/>
		
			<linearGradient id="SVGID_8_" gradientUnits="userSpaceOnUse" x1="-8570.0713" y1="-7859.8608" x2="-8519.3086" y2="-7859.8608" gradientTransform="matrix(-1.0408 0 0 1.0408 -8860.1699 8487.2422)">
			<stop  offset="0" style="stop-color:#52C7EA;stop-opacity:0.7"/>
			<stop  offset="1" style="stop-color:#000000"/>
		</linearGradient>
		<polygon class="st16" points="6.5,291.3 8.9,299.2 26.1,311 45.8,320.5 59.2,321.3 59,322.9 45.6,322.1 25.1,312.6 8.1,300 
			6.3,292.8 		"/>
		<polygon class="st3" points="77.1,305.5 117.1,264.4 153.8,251.7 154.1,257.3 		"/>
		<polygon class="st13" points="116.8,264.4 121.2,277.9 124.8,275.6 120.2,263.4 		"/>
		
			<linearGradient id="SVGID_9_" gradientUnits="userSpaceOnUse" x1="8091.0566" y1="8442.1182" x2="8109.1113" y2="8442.1182" gradientTransform="matrix(1.0408 0 9.106582e-02 -1.0408 -9144.4111 9113.7754)">
			<stop  offset="0" style="stop-color:#52C7EA;stop-opacity:0.7"/>
			<stop  offset="1" style="stop-color:#000000"/>
		</linearGradient>
		<polygon class="st17" points="47,333.2 45.6,322.1 59,322.9 64.4,322.9 58.9,333.2 		"/>
	</g>
</g>
<g>
	<g>
		<g>
			<path class="st3" d="M423.6,389.2v-55.1l-5.1-2.8c-1.4,8.7-11.6,14.4-20.2,15.6l-58.1,34l-25.4,9.2l-81-41.8l1.9-1.1
				c-6.9-3.2-10.6-10.6-14.4-17.4L216,333l-3.2,0.9v55.6h0c0,3.6,2.4,7.2,7.1,9.9l81.1,46.8c9.5,5.5,24.9,5.5,34.4,0l81.1-46.8
				c4.7-2.7,7-6.2,7.1-9.8C423.6,389.6,423.6,389.4,423.6,389.2L423.6,389.2z"/>
			<path class="st4" d="M318.2,450.7c-6.3,0-12.6-1.4-17.4-4.1l-81.1-46.8c-4.7-2.7-7.3-6.3-7.3-10.2v-55.8l3.4-1l5.7-3.4l0.8,1.5
				c3.5,6.4,7.2,13,13.6,16l0.5,0.2l-1.9,1.1l80.4,41.5l25.3-9.1l58.2-34c8.6-1.2,18.6-7,20-15.4l0.1-0.4l5.5,3.1v55.7
				c0,0,0,0,0,0.1c-0.1,3.8-2.7,7.3-7.3,10l-81.1,46.8C330.7,449.3,324.4,450.7,318.2,450.7z M213,334.2v55.4c0,3.7,2.5,7.1,7,9.7
				l81.1,46.8c9.4,5.4,24.8,5.4,34.2,0l81.1-46.8c4.4-2.6,6.9-5.9,7-9.5c0-0.1,0-0.3,0-0.4l0-0.4l0,0v-54.6l-4.6-2.6
				c-1.6,8.4-11.6,14.2-20.3,15.4l-58.1,34l-25.5,9.2l-0.1-0.1l-81.4-42l1.9-1.1c-6.3-3.2-9.9-9.7-13.3-16l-0.6-1.1l-5.3,3.1
				L213,334.2z"/>
		</g>
		<g>
			<g>
				<path class="st3" d="M300.5,389.4l-81.1-46.8c-8.9-5.5-9-14.4,0-19.9l81.1-46.8c9.5-5.5,24.9-5.5,34.4,0l81.1,46.8
					c10.1,5.4,10.2,14.3,0,19.9L335,389.4C325.5,394.9,310,394.9,300.5,389.4z"/>
				<path class="st4" d="M317.7,393.8c-6.3,0-12.6-1.4-17.4-4.1l-81.1-46.8c-4.4-2.7-6.8-6.3-6.8-10.2c0-3.8,2.4-7.4,6.8-10.1
					l81.1-46.8c9.6-5.5,25.1-5.5,34.7,0l81.1,46.8c5,2.7,7.7,6.3,7.7,10.1c0,3.9-2.7,7.5-7.7,10.2l-81.1,46.8
					C330.3,392.4,324,393.8,317.7,393.8z M300.6,389.2c9.4,5.4,24.8,5.4,34.2,0l81.1-46.8c4.8-2.6,7.5-6.1,7.5-9.8
					c0-3.7-2.7-7.1-7.5-9.7l-81.1-46.8c-9.4-5.4-24.8-5.4-34.2,0l-81.1,46.8c-4.2,2.6-6.6,6-6.6,9.7c0,3.7,2.3,7.1,6.6,9.8
					L300.6,389.2z"/>
			</g>
		</g>
		<g>
			<g>
				<path class="st3" d="M416.5,342.7l-81.1,46.8c-9.5,5.5-24.9,5.5-34.4,0l-81.1-46.8c-4.2-2.5-6.6-5.6-7-8.8
					c-0.6,4,1.8,8.1,7,11.1l81.1,46.8c9.5,5.5,24.9,5.5,34.4,0l81.1-46.8c5.3-3,7.6-7.1,7-11.1C423.1,337.1,420.7,340.2,416.5,342.7
					z"/>
				<path class="st4" d="M318.2,396.1c-6.3,0-12.6-1.4-17.4-4.1l-81.1-46.8c-5.1-3-7.8-7.1-7.2-11.4h0.5c0.5,3.2,2.9,6.3,6.9,8.6
					l81.1,46.8c9.4,5.4,24.8,5.4,34.2,0l81.1-46.8c4-2.3,6.5-5.4,6.9-8.6h0.5c0.6,4.2-2,8.4-7.2,11.3L335.5,392
					C330.7,394.8,324.4,396.1,318.2,396.1z M213,335.8c0.3,3.4,2.8,6.5,6.9,8.9l81.1,46.8c9.4,5.4,24.8,5.4,34.2,0l81.1-46.8
					c4.2-2.4,6.6-5.6,6.9-8.9c-1,2.7-3.3,5.2-6.7,7.1l-0.1-0.2l0.1,0.2l-81.1,46.8c-9.6,5.5-25.1,5.5-34.7,0l-81.1-46.8
					C216.3,340.9,214,338.5,213,335.8z"/>
			</g>
		</g>
	</g>
</g>
<ellipse transform="matrix(0.7992 -0.6011 0.6011 0.7992 -182.6921 220.382)" class="st18" cx="238.5" cy="383.6" rx="5.2" ry="9.3"/>
<ellipse transform="matrix(0.7992 -0.6011 0.6011 0.7992 -186.1019 237.1035)" class="st18" cx="261.8" cy="397.1" rx="5.2" ry="9.3"/>
<ellipse transform="matrix(0.7992 -0.6011 0.6011 0.7992 -189.3994 253.2745)" class="st18" cx="284.3" cy="410.1" rx="5.2" ry="9.3"/>
<path class="st4" d="M242.3,392.1c-1.1,0-2.3-0.4-3.6-1.1c-3.9-2.3-7.1-7.3-7.1-11.2c0-1.8,0.6-3.1,1.8-3.8c1.4-0.8,3.4-0.6,5.5,0.6
	c3.9,2.3,7.1,7.3,7.1,11.2c0,1.8-0.6,3.1-1.8,3.8C243.7,392,243,392.1,242.3,392.1z M235.4,376c-0.6,0-1.2,0.1-1.7,0.4
	c-1,0.6-1.6,1.8-1.6,3.3c0,3.8,3.1,8.6,6.8,10.8c1.9,1.1,3.8,1.4,5,0.6c1-0.6,1.6-1.8,1.6-3.3c0-3.8-3.1-8.6-6.8-10.8
	C237.5,376.4,236.4,376,235.4,376z"/>
<path class="st4" d="M265.7,405.6c-1.1,0-2.3-0.4-3.6-1.1c-3.9-2.3-7.1-7.3-7.1-11.2c0-1.8,0.6-3.1,1.8-3.8c1.4-0.8,3.4-0.6,5.5,0.6
	c3.9,2.3,7.1,7.3,7.1,11.2c0,1.8-0.6,3.1-1.8,3.8C267,405.4,266.4,405.6,265.7,405.6z M258.7,389.5c-0.6,0-1.2,0.1-1.7,0.4
	c-1,0.6-1.6,1.8-1.6,3.3c0,3.8,3.1,8.6,6.8,10.8c1.9,1.1,3.8,1.3,5,0.6c1-0.6,1.6-1.8,1.6-3.3c0-3.8-3.1-8.6-6.8-10.8
	C260.8,389.9,259.7,389.5,258.7,389.5z"/>
<path class="st4" d="M288.2,418.6c-1.1,0-2.3-0.4-3.6-1.1c-3.9-2.3-7.1-7.3-7.1-11.2c0-1.8,0.6-3.1,1.8-3.8c1.4-0.8,3.4-0.6,5.5,0.6
	c3.9,2.3,7.1,7.3,7.1,11.2c0,1.8-0.6,3.1-1.8,3.8C289.6,418.4,288.9,418.6,288.2,418.6z M281.2,402.5c-0.6,0-1.2,0.1-1.7,0.4
	c-1,0.6-1.6,1.8-1.6,3.3c0,3.8,3.1,8.6,6.8,10.8c1.9,1.1,3.8,1.4,5,0.6c1-0.6,1.6-1.8,1.6-3.3c0-3.8-3.1-8.6-6.8-10.8
	C283.4,402.9,282.2,402.5,281.2,402.5z"/>
<g>
	<g>
		<linearGradient id="SVGID_10_" gradientUnits="userSpaceOnUse" x1="212.7018" y1="317.8918" x2="423.5889" y2="317.8918">
			<stop  offset="0" style="stop-color:#52C7EA;stop-opacity:0.7"/>
			<stop  offset="1" style="stop-color:#000000"/>
		</linearGradient>
		<path class="st19" d="M423.6,317v-55.1l-5.1-2.8c-1.4,8.7-11.6,14.4-20.2,15.6l-58.1,34l-25.4,9.2l-81-41.8l1.9-1.1
			c-6.9-3.2-10.6-10.6-14.4-17.4l-5.4,3.3l-3.2,0.9v55.6h0c0,3.6,2.4,7.2,7.1,9.9l81.1,46.8c9.5,5.5,24.9,5.5,34.4,0l81.1-46.8
			c4.7-2.7,7-6.2,7.1-9.8C423.6,317.3,423.6,317.2,423.6,317L423.6,317z"/>
		<g>
			<path class="st12" d="M300.5,317.2l-81.1-46.8c-8.9-5.5-9-14.4,0-19.9l81.1-46.8c9.5-5.5,24.9-5.5,34.4,0l81.1,46.8
				c10.1,5.4,10.2,14.3,0,19.9l-81.1,46.8C325.4,322.7,310,322.7,300.5,317.2z"/>
		</g>
		<g>
			<g>
				<path class="st3" d="M416.5,270.4l-81.1,46.8c-9.5,5.5-24.9,5.5-34.4,0l-81.1-46.8c-4.2-2.5-6.6-5.6-7-8.8
					c-0.6,4,1.8,8.1,7,11.1l81.1,46.8c9.5,5.5,24.9,5.5,34.4,0l81.1-46.8c5.3-3,7.6-7.1,7-11.1C423.1,264.9,420.7,268,416.5,270.4z"
					/>
				<path class="st4" d="M318.1,323.9c-6.3,0-12.6-1.4-17.4-4.1L219.7,273c-5.1-3-7.8-7.1-7.2-11.4h0.5c0.5,3.2,2.9,6.3,6.9,8.6
					l81.1,46.8c9.4,5.4,24.8,5.4,34.2,0l81.1-46.8c4-2.3,6.5-5.4,6.9-8.6h0.5c0.6,4.2-2,8.4-7.2,11.4l-81.1,46.8
					C330.7,322.5,324.4,323.9,318.1,323.9z M213,263.6c0.3,3.4,2.8,6.5,6.9,8.9l81.1,46.8c9.4,5.4,24.8,5.4,34.2,0l81.1-46.8
					c4.2-2.4,6.6-5.6,6.9-8.9c-1,2.7-3.3,5.2-6.7,7.1l-81.1,46.8c-9.6,5.5-25.1,5.5-34.7,0l-81.1-46.8
					C216.3,268.7,214,266.2,213,263.6z"/>
			</g>
		</g>
	</g>
</g>
<g id="Symbols_5_">
	<g>
		<g class="st1">
			<defs>
				<polygon id="SVGID_11_" class="st1" points="274,186.6 274.3,84.2 357.4,132.2 357.1,234.6 				"/>
			</defs>
			<clipPath id="SVGID_12_">
				<use xlink:href="#SVGID_11_"  style="overflow:visible;"/>
			</clipPath>
			<g class="st20">
				<g>
					<g>
						<g>
							<path class="st21" d="M297.3,109.4c-1-0.6-1.9-0.1-1.9,1.1c0,1.2,0.8,2.6,1.9,3.2c1,0.6,1.9,0.1,1.9-1.1
								C299.2,111.5,298.3,110,297.3,109.4"/>
							<path class="st21" d="M297.3,134.2c-1-0.6-1.9-0.1-1.9,1.1c0,1.2,0.8,2.6,1.9,3.2c1,0.6,1.9,0.1,1.9-1.1
								S298.3,134.8,297.3,134.2"/>
							<path class="st21" d="M334.4,205.2c-1-0.6-1.9-0.1-1.9,1.1c0,1.2,0.8,2.6,1.9,3.2c1,0.6,1.9,0.1,1.9-1.1
								C336.2,207.3,335.4,205.8,334.4,205.2"/>
							<path class="st21" d="M278.6,135.8c-1-0.6-1.9-0.1-1.9,1.1c0,1.2,0.8,2.6,1.9,3.2c1,0.6,1.9,0.1,1.9-1.1
								C280.5,137.9,279.6,136.4,278.6,135.8"/>
							<path class="st21" d="M353.1,178.9c-1-0.6-1.9-0.1-1.9,1.1c0,1.2,0.8,2.6,1.9,3.2c1,0.6,1.9,0.1,1.9-1.1
								C355,180.9,354.2,179.5,353.1,178.9"/>
							<path class="st21" d="M334.6,131c-1-0.6-1.9-0.1-1.9,1.1c0,1.2,0.8,2.6,1.9,3.2c1,0.6,1.9,0.1,1.9-1.1
								C336.5,133,335.6,131.6,334.6,131"/>
							<path class="st21" d="M334.4,180.5c-1-0.6-1.9-0.1-1.9,1.1c0,1.2,0.8,2.6,1.9,3.2c1,0.6,1.9,0.1,1.9-1.1
								C336.3,182.5,335.5,181.1,334.4,180.5"/>
							<path class="st21" d="M297.2,158.9c-1-0.6-1.9-0.1-1.9,1.1c0,1.2,0.8,2.6,1.9,3.2s1.9,0.1,1.9-1.1
								C299.1,161,298.2,159.5,297.2,158.9"/>
							<path class="st21" d="M334.5,155.7c-1-0.6-1.9-0.1-1.9,1.1s0.8,2.6,1.9,3.2c1,0.6,1.9,0.1,1.9-1.1
								C336.4,157.8,335.5,156.3,334.5,155.7"/>
							<path class="st21" d="M315.8,182.1c-1-0.6-1.9-0.1-1.9,1.1c0,1.2,0.8,2.6,1.9,3.2c1,0.6,1.9,0.1,1.9-1.1
								C317.6,184.1,316.8,182.7,315.8,182.1"/>
							<path class="st21" d="M315.9,132.6c-1-0.6-1.9-0.1-1.9,1.1s0.8,2.6,1.9,3.2c1,0.6,1.9,0.1,1.9-1.1
								C317.8,134.7,317,133.2,315.9,132.6"/>
							<path class="st21" d="M297.1,183.7c-1-0.6-1.9-0.1-1.9,1.1c0,1.2,0.8,2.6,1.9,3.2c1,0.6,1.9,0.1,1.9-1.1
								S298.1,184.3,297.1,183.7"/>
							<path class="st7" d="M316,108.3c-5-2.9-10.1-3.9-14.3-2.5c-1.4,0.5-2.6,1.2-3.7,2.1c1,0.8,1.9,2.1,2.4,3.4
								c4-3.3,9.7-2.9,15.5,0.4c4.4,2.5,8.8,6.8,12.5,12.3c1.1,1.6,2.1,3.4,3,5.1c0.3-0.4,0.8-0.7,1.3-0.7c0.4,0,0.7,0,1.2,0.2
								C329.5,119.5,322.8,112.2,316,108.3"/>
							<path class="st7" d="M331.1,129.8c-5.7-2.3-10.9-1.9-14.5,1.3c1,0.8,1.9,2,2.4,3.3c3.1-2.6,7.5-3,12.3-1.1
								C330.9,132,330.8,130.7,331.1,129.8"/>
							<path class="st7" d="M300.8,112.2c0.2,0.5,0.2,1.1,0.2,1.5c0,0.7-0.2,1.3-0.5,1.7c2.4,1.8,4.7,4.1,6.8,6.7
								c2.1,2.6,4,5.6,5.5,8.6c0.3-0.4,0.8-0.7,1.3-0.7c0.3,0,0.7,0,1.1,0.2C311.7,123,306.5,116.5,300.8,112.2"/>
							<path class="st7" d="M337.4,137.5c-0.3,0.2-0.6,0.3-1,0.4c-0.5,0.1-1.1-0.1-1.8-0.5c1.8,6.3,1.7,12.1-0.1,16.3
								c1.1,0.6,2.1,1.7,2.7,3.1C339.5,151.8,339.5,144.9,337.4,137.5"/>
							<path class="st7" d="M319.4,135.4c0.3,1.4,0.2,2.6-0.3,3.3c4.8,3.7,9.2,9.1,12.2,15.2c0.5-0.7,1.4-0.9,2.5-0.5
								C330.3,146.1,325.1,139.7,319.4,135.4"/>
							<path class="st7" d="M338,133.7c0.3,1.4,0.2,2.6-0.3,3.3c0.7,0.5,1.3,1.1,2,1.7c10.7,9.4,16.9,25.7,14.1,36.3
								c-0.2,0.7-0.4,1.3-0.7,1.9c0.6,0.4,1.3,0.9,1.8,1.6c0.4,0.5,0.7,1,1,1.5c0.3-0.8,0.6-1.5,0.8-2.3
								c3.3-12.2-3.9-30.9-16.2-41.8C339.7,135,338.9,134.3,338,133.7"/>
							<path class="st7" d="M337.9,158.4c0.3,1.4,0.3,2.6-0.3,3.3c4.8,3.7,9.2,9.1,12.3,15.2c0.5-0.7,1.4-0.9,2.5-0.5
								c-1.8-3.6-4-7-6.4-10.1C343.5,163.3,340.8,160.6,337.9,158.4"/>
							<path class="st7" d="M350,181.4c-3.1,2.6-7.5,3-12.4,1c0.3,0.8,0.5,1.6,0.5,2.3c0,0.5-0.1,0.9-0.2,1.3
								c5.7,2.4,10.9,1.9,14.6-1.2C351.4,184,350.5,182.8,350,181.4"/>
							<path class="st7" d="M337.3,162.2c-0.7,0.5-1.7,0.5-2.7-0.1c1.7,6.2,1.7,12-0.1,16.3c1.1,0.6,2,1.7,2.7,3.1
								C339.4,176.6,339.4,169.7,337.3,162.2"/>
							<path class="st7" d="M337.2,187c-0.7,0.5-1.7,0.5-2.7-0.1c1.7,6.2,1.7,12,0,16.3c1.1,0.6,2,1.8,2.7,3.1
								C339.4,201.3,339.3,194.4,337.2,187"/>
							<path class="st7" d="M355.9,185.3c-0.7,0.5-1.7,0.5-2.7-0.1c0.2,0.9,0.5,1.7,0.7,2.6c2.8,13.9-3.5,22.9-14.2,20
								c-0.7-0.2-1.3-0.4-2-0.7c0.5,1.3,0.6,2.7,0.2,3.6c0.8,0.3,1.7,0.6,2.5,0.9c12.3,3.3,19.6-7,16.3-23
								C356.5,187.5,356.2,186.4,355.9,185.3"/>
							<path class="st7" d="M331.3,183c-3.1,2.6-7.5,2.9-12.3,1c0.5,1.3,0.6,2.6,0.2,3.5c5.7,2.3,10.9,1.9,14.6-1.2
								C332.7,185.6,331.8,184.3,331.3,183"/>
							<path class="st7" d="M318.9,188.2c-0.3,0.4-0.8,0.7-1.3,0.8c-0.3,0-0.7,0-1.1-0.2c3.5,7.3,8.7,13.8,14.5,18
								c-0.4-1.3-0.3-2.5,0.3-3.3c-2.4-1.8-4.7-4.1-6.8-6.7C322.3,194.2,320.4,191.2,318.9,188.2"/>
							<path class="st7" d="M312.6,184.5c-1.5,1.3-3.4,2.1-5.5,2.3c-2.1,0.2-4.4-0.2-6.8-1.1c0.5,1.3,0.6,2.6,0.2,3.5
								c5.7,2.3,10.9,1.9,14.5-1.3C314,187.1,313.1,185.9,312.6,184.5"/>
							<path class="st7" d="M331.2,207.7c-4,3.3-9.7,2.9-15.6-0.5c-4.4-2.5-8.8-6.8-12.5-12.3c-1.1-1.6-2.1-3.4-3-5.1
								c-0.3,0.4-0.8,0.7-1.3,0.8c-0.4,0-0.8,0-1.2-0.2c4.5,9.2,11.2,16.4,17.9,20.3c5,2.9,10.1,3.9,14.3,2.5
								c1.4-0.5,2.6-1.2,3.7-2.1C332.7,210.3,331.8,209.1,331.2,207.7"/>
							<path class="st7" d="M294.4,162.2c-2.2,5-2.2,11.9-0.1,19.3c0.3-0.2,0.6-0.3,0.9-0.4c0.5-0.1,1.2,0.1,1.8,0.5
								c-1.7-6.3-1.7-12.2,0.1-16.4c-0.6-0.4-1.3-0.9-1.8-1.6C295,163.2,294.6,162.7,294.4,162.2"/>
							<path class="st7" d="M300.3,165.1c-0.5,0.7-1.4,0.9-2.5,0.5c3.6,7.3,8.7,13.8,14.5,18.1c-0.3-1.3-0.3-2.6,0.3-3.3
								C307.7,176.6,303.4,171.2,300.3,165.1"/>
							<path class="st7" d="M293.8,108.2c-0.8-0.3-1.7-0.6-2.5-0.8c-12.3-3.3-19.6,7-16.4,23c0.2,1.1,0.5,2.1,0.8,3.2
								c0.7-0.5,1.7-0.5,2.7,0.1c-0.2-0.9-0.5-1.7-0.7-2.6c-2.8-13.9,3.5-22.9,14.2-20c0.7,0.2,1.3,0.4,2,0.7
								C293.5,110.4,293.5,109.1,293.8,108.2"/>
							<path class="st7" d="M281.7,142c-0.5,0.7-1.4,0.9-2.4,0.5c1.7,3.6,3.9,7,6.4,10.1c2.5,3.1,5.2,5.8,8.1,7.9
								c-0.3-1.3-0.3-2.6,0.2-3.3C289.1,153.6,284.8,148.1,281.7,142"/>
							<path class="st7" d="M275.8,139.1c-0.3,0.7-0.6,1.5-0.8,2.3c-3.3,12.2,3.9,30.9,16.2,41.8c0.8,0.7,1.7,1.4,2.5,2.1
								c-0.3-1.4-0.2-2.5,0.3-3.3c-0.6-0.5-1.3-1-2-1.6c-10.7-9.5-17-25.7-14.1-36.4c0.2-0.6,0.4-1.3,0.7-1.8
								c-0.6-0.4-1.3-0.9-1.8-1.6C276.3,140.1,276,139.6,275.8,139.1"/>
							<path class="st7" d="M294.5,112.8c-2.1,5-2.2,11.9,0,19.3c0.7-0.6,1.7-0.5,2.7,0.1c-1.8-6.3-1.7-12.1,0-16.3
								C296.2,115.2,295.2,114.1,294.5,112.8"/>
							<path class="st7" d="M293.8,133c-5.7-2.3-10.9-1.9-14.6,1.2c0.4,0.3,0.8,0.7,1.2,1.1c0.5,0.7,1,1.4,1.3,2.2
								c3.1-2.6,7.5-3,12.4-1c-0.3-0.8-0.5-1.6-0.5-2.3C293.6,133.8,293.7,133.4,293.8,133"/>
							<path class="st7" d="M312.5,131.3c-5.7-2.3-10.9-1.8-14.6,1.3c1,0.8,1.9,2,2.4,3.4c3.1-2.6,7.5-2.9,12.3-1
								C312.2,133.6,312.1,132.3,312.5,131.3"/>
							<path class="st7" d="M294.5,137.4c-2.1,5-2.2,11.9-0.1,19.3c0.7-0.5,1.7-0.5,2.7,0.1c-1.7-6.3-1.7-12.1,0.1-16.3
								C296.1,139.9,295.1,138.7,294.5,137.4"/>
						</g>
					</g>
				</g>
			</g>
		</g>
	</g>
</g>
<path class="st22" d="M357.4,260.3h-0.7v-13.1h0.7V260.3z M357.4,234.1h-0.7v-13.1h0.7V234.1z M357.4,207.8h-0.7v-13.1h0.7V207.8z
	 M357.4,181.6h-0.7v-13.1h0.7V181.6z"/>
<path class="st22" d="M275,241.5h-0.7v-13.1h0.7V241.5z M275,215.3h-0.7v-13.1h0.7V215.3z M275,189h-0.7v-13.1h0.7V189z M275,162.8
	h-0.7v-13.1h0.7V162.8z"/>
<g id="Symbols_2_">
	<g>
		<g class="st1">
			<defs>
				<polygon id="SVGID_13_" class="st1" points="256.2,254.8 318,218.9 375.9,252.3 314.1,288.2 				"/>
			</defs>
			<clipPath id="SVGID_14_">
				<use xlink:href="#SVGID_13_"  style="overflow:visible;"/>
			</clipPath>
			<g class="st23">
				<g>
					<g>
						<g>
							<path class="st3" d="M326.7,232.3c-0.7-0.4-1.9-0.4-2.6,0c-0.7,0.4-0.7,1.1,0,1.5c0.7,0.4,1.9,0.4,2.6,0
								C327.4,233.4,327.4,232.7,326.7,232.3"/>
							<path class="st3" d="M311.8,241c-0.7-0.4-1.9-0.4-2.6,0c-0.7,0.4-0.7,1.1,0,1.5c0.7,0.4,1.9,0.4,2.6,0
								C312.5,242,312.5,241.4,311.8,241"/>
							<path class="st3" d="M307.9,273.3c-0.7-0.4-1.9-0.4-2.6,0c-0.7,0.4-0.7,1.1,0,1.5s1.9,0.4,2.6,0
								C308.7,274.4,308.7,273.8,307.9,273.3"/>
							<path class="st3" d="M291.3,237.8c-0.7-0.4-1.9-0.4-2.6,0c-0.7,0.4-0.7,1.1,0,1.5c0.7,0.4,1.9,0.4,2.6,0
								C292,238.9,292,238.2,291.3,237.8"/>
							<path class="st3" d="M343.4,267.8c-0.7-0.4-1.9-0.4-2.6,0c-0.7,0.4-0.7,1.1,0,1.5s1.9,0.4,2.6,0
								C344.1,268.9,344.1,268.2,343.4,267.8"/>
							<path class="st3" d="M352.7,247.3c-0.7-0.4-1.9-0.4-2.6,0c-0.7,0.4-0.7,1.1,0,1.5c0.7,0.4,1.9,0.4,2.6,0
								C353.5,248.4,353.5,247.7,352.7,247.3"/>
							<path class="st3" d="M322.9,264.7c-0.7-0.4-1.9-0.4-2.6,0c-0.7,0.4-0.7,1.1,0,1.5s1.9,0.4,2.6,0
								C323.6,265.8,323.6,265.1,322.9,264.7"/>
							<path class="st3" d="M296.9,249.6c-0.7-0.4-1.9-0.4-2.6,0c-0.7,0.4-0.7,1.1,0,1.5c0.7,0.4,1.9,0.4,2.6,0
								C297.6,250.7,297.6,250,296.9,249.6"/>
							<path class="st3" d="M337.8,256c-0.7-0.4-1.9-0.4-2.6,0c-0.7,0.4-0.7,1.1,0,1.5c0.7,0.4,1.9,0.4,2.6,0S338.5,256.4,337.8,256
								"/>
							<path class="st3" d="M302.4,261.5c-0.7-0.4-1.9-0.4-2.6,0c-0.7,0.4-0.7,1.1,0,1.5c0.7,0.4,1.9,0.4,2.6,0
								C303.1,262.6,303.1,261.9,302.4,261.5"/>
							<path class="st3" d="M332.3,244.1c-0.7-0.4-1.9-0.4-2.6,0c-0.7,0.4-0.7,1.1,0,1.5c0.7,0.4,1.9,0.4,2.6,0
								C333,245.2,333,244.6,332.3,244.1"/>
							<path class="st3" d="M281.9,258.3c-0.7-0.4-1.9-0.4-2.6,0c-0.7,0.4-0.7,1.1,0,1.5c0.7,0.4,1.9,0.4,2.6,0
								C282.6,259.4,282.6,258.7,281.9,258.3"/>
							<path class="st3" d="M347,235.6c-3.5-2-8.2-3.4-13.5-3.7c-1.7-0.1-3.4-0.1-5.1,0c0.5,0.5,0.7,1.1,0.5,1.7
								c6.1-0.4,11.9,0.9,16,3.3c3.1,1.8,5.2,4.1,5.7,6.8c0.2,0.8,0.2,1.6,0,2.4c0.6-0.1,1.2-0.1,1.8,0c0.4,0.1,0.8,0.2,1.1,0.3
								C354.3,242.2,351.7,238.3,347,235.6"/>
							<path class="st3" d="M349.9,246.2c-4.6-2-10.3-2.8-15.9-2.5c0.6,0.5,0.8,1.1,0.5,1.7c4.8-0.3,9.6,0.4,13.5,2.1
								C348.2,246.9,348.9,246.4,349.9,246.2"/>
							<path class="st3" d="M328.7,233.9c-0.2,0.2-0.4,0.4-0.7,0.6c-0.4,0.3-1,0.4-1.5,0.5c1.4,1.1,2.5,2.4,3.1,3.7
								c0.6,1.3,0.8,2.7,0.5,4.1c0.6-0.1,1.2-0.1,1.8,0c0.4,0.1,0.7,0.1,1.1,0.3C333.6,239.9,332.1,236.6,328.7,233.9"/>
							<path class="st3" d="M351.8,250.1c-0.4,0-0.8,0-1.2-0.1c-0.6-0.1-1.1-0.3-1.5-0.5c-1.9,2.6-5.5,4.6-9.9,5.7
								c0.7,0.4,1.1,1,1,1.6C345.3,255.6,349.5,253.2,351.8,250.1"/>
							<path class="st3" d="M334.2,245.8c-0.5,0.5-1.3,0.9-2.3,1.1c2.8,2.3,4.1,5,3.6,7.8c1-0.2,2,0,2.9,0.3
								C339.2,251.8,337.6,248.5,334.2,245.8"/>
							<path class="st3" d="M354.7,248.9c-0.5,0.5-1.3,0.9-2.3,1.1c0.4,0.3,0.8,0.6,1.1,1c5.5,5.5,2.3,12.4-7.1,15.6
								c-0.6,0.2-1.2,0.4-1.8,0.5c0.4,0.3,0.8,0.6,0.9,0.9c0.1,0.2,0.1,0.5,0.1,0.7c0.8-0.2,1.5-0.4,2.2-0.7
								c10.8-3.6,14.5-11.6,8.2-17.9C355.7,249.7,355.2,249.3,354.7,248.9"/>
							<path class="st3" d="M339.8,257.6c-0.5,0.5-1.3,1-2.3,1.1c2.9,2.3,4.2,5,3.7,7.8c1-0.1,2,0,2.9,0.3c0.3-1.6,0.1-3.3-0.6-4.8
								C342.7,260.4,341.5,258.9,339.8,257.6"/>
							<path class="st3" d="M338.5,268.1c-4.8,0.3-9.6-0.5-13.5-2.1c-0.1,0.3-0.4,0.7-0.9,0.9c-0.3,0.2-0.6,0.3-1,0.4
								c4.6,2,10.3,2.9,15.9,2.5C338.4,269.3,338.2,268.7,338.5,268.1"/>
							<path class="st3" d="M336.8,258.8c-1,0-2-0.2-2.8-0.6c-1.9,2.5-5.5,4.6-9.9,5.7c0.7,0.4,1.1,1,1,1.6
								C330.4,264.3,334.5,261.8,336.8,258.8"/>
							<path class="st3" d="M321.9,267.5c-1,0-2-0.2-2.8-0.6c-1.9,2.5-5.4,4.6-9.8,5.7c0.7,0.4,1.1,1,1,1.6
								C315.5,273,319.6,270.5,321.9,267.5"/>
							<path class="st3" d="M342.3,270.7c-1,0-2.1-0.2-2.8-0.6c-0.3,0.4-0.6,0.7-0.9,1c-5.4,5.5-17.5,7.3-26.9,4.2
								c-0.6-0.2-1.1-0.4-1.7-0.6c-0.3,0.6-1,1.1-1.9,1.3c0.7,0.3,1.4,0.6,2.1,0.8c10.8,3.6,24.7,1.5,30.9-4.8
								C341.7,271.5,342,271.1,342.3,270.7"/>
							<path class="st3" d="M318.1,264.9c-4.8,0.3-9.6-0.5-13.5-2.1c-0.3,0.6-1,1-1.9,1.3c4.6,2,10.3,2.9,16,2.5
								C318,266.1,317.8,265.5,318.1,264.9"/>
							<path class="st3" d="M302,264.2c-0.6,0.1-1.2,0.1-1.8,0c-0.4-0.1-0.7-0.1-1.1-0.3c-0.7,3.3,0.8,6.6,4.3,9.2
								c0.4-0.5,1.2-0.9,2.2-1.1c-1.4-1.1-2.5-2.4-3.1-3.7C301.9,267,301.8,265.6,302,264.2"/>
							<path class="st3" d="M297.6,261.7c-2.4,0.2-4.8,0.1-7.1-0.3c-2.3-0.4-4.5-1-6.4-1.8c-0.3,0.6-1,1-1.9,1.3
								c4.6,2,10.3,2.8,16,2.4C297.5,262.9,297.4,262.3,297.6,261.7"/>
							<path class="st3" d="M303.2,273.6c-6.1,0.4-11.9-0.9-16-3.3c-3.1-1.8-5.2-4.1-5.7-6.8c-0.2-0.8-0.2-1.6,0-2.4
								c-0.6,0.1-1.2,0.1-1.8,0c-0.4-0.1-0.8-0.2-1.1-0.3c-0.8,4.1,1.8,8,6.5,10.7c3.5,2,8.2,3.4,13.5,3.7c1.7,0.1,3.4,0.1,5.1,0
								C303.1,274.8,302.9,274.2,303.2,273.6"/>
							<path class="st3" d="M292,250.2c-5.3,1.3-9.4,3.7-11.7,6.8c0.4,0,0.8,0,1.2,0.1c0.6,0.1,1.1,0.3,1.5,0.5
								c2-2.6,5.5-4.6,9.9-5.7c-0.4-0.3-0.8-0.6-0.9-0.9C292,250.7,291.9,250.5,292,250.2"/>
							<path class="st3" d="M296.4,252.4c-1,0.2-2,0-2.9-0.3c-0.6,3.3,0.9,6.6,4.3,9.3c0.5-0.5,1.3-1,2.3-1.1
								C297.3,258,296,255.2,296.4,252.4"/>
							<path class="st3" d="M323.8,231.1c-0.7-0.3-1.4-0.6-2.1-0.8c-10.8-3.6-24.7-1.5-30.9,4.8c-0.4,0.4-0.8,0.8-1.1,1.3
								c1,0,2,0.2,2.8,0.6c0.3-0.4,0.6-0.7,0.9-1c5.4-5.5,17.5-7.3,26.9-4.2c0.6,0.2,1.1,0.4,1.7,0.6
								C322.2,231.9,322.9,231.4,323.8,231.1"/>
							<path class="st3" d="M290.9,240.6c-1,0.1-2,0-2.9-0.3c-0.3,1.6-0.1,3.2,0.6,4.8c0.7,1.6,2,3.1,3.7,4.4c0.5-0.5,1.3-1,2.2-1.1
								C291.7,246.1,290.4,243.4,290.9,240.6"/>
							<path class="st3" d="M286.4,238.4c-0.8,0.2-1.5,0.4-2.3,0.7c-10.8,3.6-14.5,11.6-8.2,17.9c0.4,0.4,0.9,0.8,1.4,1.2
								c0.5-0.5,1.3-0.9,2.2-1.1c-0.4-0.3-0.7-0.6-1.1-1c-5.5-5.5-2.3-12.4,7.1-15.6c0.6-0.2,1.2-0.4,1.8-0.5
								c-0.4-0.3-0.8-0.6-0.9-0.9C286.4,238.8,286.4,238.6,286.4,238.4"/>
							<path class="st3" d="M321.8,232.9c-5.2,1.3-9.4,3.7-11.6,6.8c1-0.1,2.1,0.1,2.8,0.6c1.9-2.6,5.4-4.6,9.8-5.7
								C322.1,234.1,321.7,233.5,321.8,232.9"/>
							<path class="st3" d="M308.9,239.8c-4.6-2-10.3-2.9-15.9-2.5c0.2,0.2,0.4,0.4,0.5,0.6c0.2,0.3,0.2,0.7,0,1
								c4.8-0.3,9.6,0.5,13.6,2.1c0.1-0.4,0.4-0.7,0.9-0.9C308.2,240.1,308.6,239.9,308.9,239.8"/>
							<path class="st3" d="M329.4,243c-4.6-1.9-10.3-2.8-16-2.5c0.6,0.5,0.8,1.1,0.5,1.7c4.8-0.3,9.6,0.5,13.5,2.1
								C327.8,243.7,328.5,243.3,329.4,243"/>
							<path class="st3" d="M306.9,241.5c-5.2,1.3-9.4,3.7-11.7,6.8c1,0,2,0.2,2.8,0.6c2-2.5,5.5-4.6,9.9-5.7
								C307.2,242.7,306.8,242.1,306.9,241.5"/>
						</g>
					</g>
				</g>
			</g>
		</g>
	</g>
</g>
<g>
	<polygon class="st12" points="513.2,327 491.4,327 497.9,176.7 504.7,176.7 	"/>
	<path class="st12" d="M514.6,167.5c-4-7-10.5-10.8-14.5-8.4c-0.5,0.3-0.9,0.6-1.3,1.1l-16.7,13.9c-4,2.3-4,9.8,0,16.8
		c4,7,10.5,10.8,14.5,8.4c0.5-0.3,0.9-0.6,1.3-1.1l16.7-13.9C518.6,182,518.6,174.5,514.6,167.5z"/>
	
		<linearGradient id="SVGID_15_" gradientUnits="userSpaceOnUse" x1="-411.6313" y1="186.6848" x2="-391.0738" y2="186.6848" gradientTransform="matrix(1 0 0 1 890.6929 0)">
		<stop  offset="0" style="stop-color:#52C7EA;stop-opacity:0.7"/>
		<stop  offset="1" style="stop-color:#000000"/>
	</linearGradient>
	<path class="st24" d="M496.6,182.5c4,7,4,14.5,0,16.8c-4,2.3-10.5-1.5-14.5-8.4c-4-7-4-14.5,0-16.8
		C486.1,171.7,492.6,175.5,496.6,182.5z"/>
	<g>
		<path class="st4" d="M502.8,198.2c4.9,0,10.2-1.8,15-5.4l58.4-43.7c0.9-0.7,1-1.8,0.7-2.4c-0.4-0.6-1.1-0.8-1.9-0.5L485,187.9
			l5.4,5.4C493.7,196.6,498.1,198.2,502.8,198.2z M575.7,146.6c0.3,0,0.5,0.1,0.7,0.4c0.3,0.5,0.2,1.2-0.5,1.7l-58.4,43.7
			c-9.2,6.9-20.1,7.1-26.7,0.5l-4.8-4.8l89.2-41.3C575.3,146.7,575.5,146.6,575.7,146.6z"/>
		<path class="st4" d="M488.7,274.5c0.1,0,0.2,0,0.3,0c0.8-0.1,1.6-0.9,1.5-1.9l-4.9-85.6l-6.8,5.1c-8.4,6.3-12.3,17-9.4,25.9
			l18,55.6C487.6,274.2,488.1,274.5,488.7,274.5z M485.1,188l4.8,84.6c0,0.7-0.5,1.2-1.1,1.3c-0.2,0-0.7,0.1-0.9-0.5l-18-55.6
			c-2.8-8.7,1-19.1,9.2-25.3L485.1,188z"/>
		<path class="st4" d="M485.7,188l0.9-9.2c1.2-11.6-4.5-21.2-13.9-23.3l-58.1-13.3c-0.9-0.2-1.6,0.5-1.9,1.2
			c-0.3,0.7-0.2,1.7,0.6,2.2L485.7,188z M414.3,142.7c0.1,0,0.1,0,0.2,0l58.1,13.3c9.1,2.1,14.6,11.4,13.5,22.7l-0.9,8.4l-71.7-41.9
			c-0.5-0.3-0.6-1-0.3-1.5C413.4,143.2,413.8,142.7,414.3,142.7z"/>
	</g>
	<g>
		<g>
			<g class="st1">
				<defs>
					<polygon id="SVGID_16_" class="st1" points="476.5,193.8 476.5,170.5 496.7,182.2 496.7,205.4 					"/>
				</defs>
				<clipPath id="SVGID_17_">
					<use xlink:href="#SVGID_16_"  style="overflow:visible;"/>
				</clipPath>
				<g class="st25">
					<g>
						<g>
							<g>
								<path class="st12" d="M486.6,176.4c-5.6-3.2-10.1-0.6-10.1,5.8c0,6.4,4.5,14.2,10.1,17.4c5.6,3.2,10.1,0.6,10.1-5.8
									C496.7,187.4,492.2,179.6,486.6,176.4"/>
							</g>
						</g>
					</g>
				</g>
			</g>
		</g>
	</g>
	<path class="st12" d="M478.5,178.3c-0.5-0.4-1.2-0.3-1.5,0.3l-10.9,20.3c-1.1,2.1,0.6,4.5,2.9,4.3l21.5-2.2c0.6-0.1,1-0.7,0.8-1.3
		l-5.4-15.1L478.5,178.3z"/>
	<ellipse class="st12" cx="502.3" cy="327" rx="10.9" ry="3.1"/>
</g>
<polygon class="st4" points="423.7,371.3 423.5,370.8 485,335.4 485.3,335.9 "/>
<g>
	<ellipse class="st3" cx="485.2" cy="336.2" rx="5.3" ry="2.5"/>
	<path class="st4" d="M485.2,339c-3.1,0-5.5-1.2-5.5-2.8c0-1.6,2.4-2.8,5.5-2.8c3.1,0,5.5,1.2,5.5,2.8
		C490.7,337.8,488.3,339,485.2,339z M485.2,333.9c-2.7,0-5,1-5,2.3c0,1.2,2.3,2.3,5,2.3s5-1,5-2.3
		C490.2,335,487.9,333.9,485.2,333.9z"/>
</g>
<polygon class="st4" points="213.1,351.7 151.1,316 151.4,315.6 213.4,351.2 "/>
<g>
	<ellipse class="st3" cx="151.2" cy="316.3" rx="5.3" ry="2.5"/>
	<path class="st4" d="M151.2,319.1c-3.1,0-5.5-1.2-5.5-2.8s2.4-2.8,5.5-2.8c3.1,0,5.5,1.2,5.5,2.8S154.3,319.1,151.2,319.1z
		 M151.2,314.1c-2.7,0-5,1-5,2.3s2.3,2.3,5,2.3c2.7,0,5-1,5-2.3S154,314.1,151.2,314.1z"/>
</g>
<polygon class="st4" points="423.8,358.4 423.5,358 462.2,335.7 442.8,326.3 443,325.8 463.4,335.6 462.9,335.9 "/>
<g>
	<ellipse class="st3" cx="442.9" cy="326" rx="5.3" ry="2.5"/>
	<path class="st4" d="M442.9,328.8c-3.1,0-5.5-1.2-5.5-2.8s2.4-2.8,5.5-2.8c3.1,0,5.5,1.2,5.5,2.8S446,328.8,442.9,328.8z
		 M442.9,323.8c-2.7,0-5,1-5,2.3s2.3,2.3,5,2.3s5-1,5-2.3S445.6,323.8,442.9,323.8z"/>
</g>
<polygon class="st4" points="212.8,330.2 182.8,312.9 203.2,303 203.4,303.5 183.9,312.9 213.1,329.7 "/>
<g>
	<ellipse class="st3" cx="203.5" cy="302.8" rx="5.3" ry="2.5"/>
	<path class="st4" d="M203.5,305.6c-3.1,0-5.5-1.2-5.5-2.8s2.4-2.8,5.5-2.8s5.5,1.2,5.5,2.8S206.6,305.6,203.5,305.6z M203.5,300.6
		c-2.7,0-5,1-5,2.3c0,1.2,2.3,2.3,5,2.3s5-1,5-2.3C208.5,301.6,206.2,300.6,203.5,300.6z"/>
</g>
<polygon class="st4" points="442.5,456 380.5,420.4 380.7,419.9 442.8,455.6 "/>
<g>
	<ellipse class="st3" cx="441.6" cy="455.3" rx="5.3" ry="2.5"/>
	<path class="st4" d="M441.6,458.1c-3.1,0-5.5-1.2-5.5-2.8s2.4-2.8,5.5-2.8c3.1,0,5.5,1.2,5.5,2.8S444.7,458.1,441.6,458.1z
		 M441.6,453c-2.7,0-5,1-5,2.3c0,1.2,2.3,2.3,5,2.3c2.7,0,5-1,5-2.3C446.6,454.1,444.3,453,441.6,453z"/>
</g>
<polygon class="st4" points="199.6,460.6 199.4,460.1 261.1,423.2 261.4,423.6 "/>
<g>
	<ellipse class="st3" cx="197.8" cy="461" rx="5.3" ry="2.5"/>
	<path class="st4" d="M197.8,463.8c-3.1,0-5.5-1.2-5.5-2.8c0-1.6,2.4-2.8,5.5-2.8c3.1,0,5.5,1.2,5.5,2.8
		C203.3,462.6,200.9,463.8,197.8,463.8z M197.8,458.8c-2.7,0-5,1-5,2.3c0,1.2,2.3,2.3,5,2.3c2.7,0,5-1,5-2.3
		C202.8,459.8,200.5,458.8,197.8,458.8z"/>
</g>
<polygon class="st4" points="437.6,420.5 437.5,420.4 407.9,404.6 408.1,404.2 437.6,419.8 461.8,404.2 462.1,404.6 "/>
<g>
	<ellipse class="st3" cx="461.9" cy="404.4" rx="5.3" ry="2.5"/>
	<path class="st4" d="M461.9,407.2c-3.1,0-5.5-1.2-5.5-2.8s2.4-2.8,5.5-2.8c3.1,0,5.5,1.2,5.5,2.8S465,407.2,461.9,407.2z
		 M461.9,402.1c-2.7,0-5,1-5,2.3c0,1.2,2.3,2.3,5,2.3s5-1,5-2.3C466.9,403.2,464.7,402.1,461.9,402.1z"/>
</g>
<polygon class="st4" points="190,432.8 189.8,432.7 165.5,417.7 139.4,432.7 139.1,432.2 165.5,417 165.6,417.1 190,432.1 
	232.6,406.7 232.8,407.1 "/>
<g>
	<ellipse class="st3" cx="139.2" cy="432.4" rx="5.3" ry="2.5"/>
	<path class="st4" d="M139.2,435.2c-3.1,0-5.5-1.2-5.5-2.8c0-1.6,2.4-2.8,5.5-2.8c3.1,0,5.5,1.2,5.5,2.8
		C144.8,434,142.3,435.2,139.2,435.2z M139.2,430.2c-2.7,0-5,1-5,2.3c0,1.2,2.3,2.3,5,2.3c2.7,0,5-1,5-2.3
		C144.2,431.2,141.9,430.2,139.2,430.2z"/>
</g>
<g>
</g>
<g>
</g>
<g>
</g>
<g>
</g>
<g>
</g>
<g>
</g>
<g>
</g>
<g>
</g>
<g>
</g>
<g>
</g>
<g>
</g>
</svg>
