<?xml version="1.0" encoding="utf-8"?>
<!-- Generator: Adobe Illustrator 24.3.0, SVG Export Plug-In . SVG Version: 6.00 Build 0)  -->
<svg version="1.1" id="Warstwa_1" xmlns="http://www.w3.org/2000/svg" xmlns:xlink="http://www.w3.org/1999/xlink" x="0px" y="0px"
	 viewBox="0 0 1275 295" style="enable-background:new 0 0 1275 295;" xml:space="preserve">
<style type="text/css">
	.st0{fill-rule:evenodd;clip-rule:evenodd;fill:#25B8E4;fill-opacity:6.000000e-02;}
	.st1{fill:#00BAE9;}
	.st2{fill:#25B8E4;}
	.st3{fill-rule:evenodd;clip-rule:evenodd;fill:#0A1A2B;}
	.st4{filter:url(#Adobe_OpacityMaskFilter);}
	.st5{fill-rule:evenodd;clip-rule:evenodd;fill:#FFFFFF;}
	.st6{mask:url(#mask-2_1_);fill:none;stroke:#4BC7EC;}
	.st7{enable-background:new    ;}
	.st8{fill:#00C2EC;}
	.st9{fill:none;stroke:#4BC7EC;}
	.st10{fill-rule:evenodd;clip-rule:evenodd;fill:url(#Rectangle_3_);}
	.st11{fill:#00A8CC;}
</style>
<g id="Content">
	<g id="router" transform="translate(-165.000000, -837.000000)">
		<g id="Router-infographic" transform="translate(165.000000, 837.000000)">
			<path id="Rectangle-Copy-15" class="st0" d="M413,164h264c5.5,0,10,4.5,10,10v64c0,5.5-4.5,10-10,10H413c-5.5,0-10-4.5-10-10v-64
				C403,168.5,407.5,164,413,164z"/>
			<path id="Rectangle-Copy-15_1_" class="st0" d="M753,164h172c5.5,0,10,4.5,10,10v64c0,5.5-4.5,10-10,10H753c-5.5,0-10-4.5-10-10
				v-64C743,168.5,747.5,164,753,164z"/>
			<g id="Group" transform="translate(699.000000, 190.000000)">
				
					<g id="icon_x2F_fingerprint-copy" transform="translate(16.000000, 16.000000) rotate(-270.000000) translate(-16.000000, -16.000000) ">
					<path id="Shape" class="st1" d="M12,4L6.7,9.3h4v9.3h2.7V9.3h4 M21.3,22.7v-9.3h-2.7v9.3h-4L20,28l5.3-5.3H21.3z"/>
				</g>
			</g>
			<g id="Group_1_" transform="translate(699.000000, 190.000000)">
				
					<g id="icon_x2F_fingerprint-copy_1_" transform="translate(16.000000, 16.000000) rotate(-270.000000) translate(-16.000000, -16.000000) ">
					<path id="Shape_1_" class="st1" d="M12,4L6.7,9.3h4v9.3h2.7V9.3h4 M21.3,22.7v-9.3h-2.7v9.3h-4L20,28l5.3-5.3H21.3z"/>
				</g>
			</g>
			<g id="Group_2_" transform="translate(295.000000, 190.000000)">
				
					<g id="icon_x2F_fingerprint-copy_2_" transform="translate(16.000000, 16.000000) rotate(-270.000000) translate(-16.000000, -16.000000) ">
					<path id="Shape_2_" class="st1" d="M12,4L6.7,9.3h4v9.3h2.7V9.3h4 M21.3,22.7v-9.3h-2.7v9.3h-4L20,28l5.3-5.3H21.3z"/>
				</g>
			</g>
			<path id="Rectangle-Copy-15_2_" class="st0" d="M1001,164h95c5.5,0,10,4.5,10,10v64c0,5.5-4.5,10-10,10h-95c-5.5,0-10-4.5-10-10
				v-64C991,168.5,995.5,164,1001,164z"/>
			<polygon id="Path" class="st2" points="1049.6,212.9 1049.6,206.7 1055.8,206.7 1055.8,212.9 1057.4,212.9 1057.4,199.2 
				1055.8,199.2 1055.8,205.2 1049.6,205.2 1049.6,199.2 1048,199.2 1048,212.9 			"/>
			<path id="Path_1_" class="st2" d="M1064.4,213.2c0.7,0,1.4-0.1,2-0.3c0.6-0.2,1.1-0.4,1.5-0.8s0.7-0.7,0.9-1.2
				c0.2-0.5,0.3-1,0.3-1.6c0-0.7-0.2-1.3-0.5-1.8c-0.4-0.5-0.8-0.9-1.3-1.2c-0.5-0.3-1.1-0.6-1.7-0.9c-0.6-0.3-1.2-0.5-1.7-0.8
				c-0.5-0.3-1-0.6-1.3-0.9c-0.4-0.3-0.5-0.8-0.5-1.3c0-0.3,0.1-0.5,0.2-0.7c0.1-0.2,0.3-0.4,0.6-0.6c0.2-0.2,0.5-0.3,0.9-0.4
				c0.3-0.1,0.7-0.2,1.2-0.2c0.4,0,0.9,0,1.3,0.1c0.4,0.1,0.8,0.1,1.1,0.2l0,0v2.1h1.4v-3.1l0-0.1h0v0l0,0c-0.4-0.2-0.9-0.3-1.5-0.4
				c-0.6-0.1-1.4-0.2-2.1-0.2c-0.7,0-1.3,0.1-1.8,0.2c-0.6,0.2-1,0.4-1.4,0.7c-0.4,0.3-0.7,0.7-0.9,1.1c-0.2,0.4-0.3,0.9-0.3,1.4
				c0,0.8,0.2,1.4,0.5,1.9c0.4,0.5,0.8,0.9,1.3,1.2c0.5,0.3,1.1,0.6,1.7,0.9c0.6,0.2,1.2,0.5,1.7,0.8c0.5,0.3,1,0.6,1.3,0.9
				c0.4,0.3,0.5,0.8,0.5,1.3c0,0.4-0.1,0.7-0.2,1s-0.4,0.5-0.7,0.7s-0.6,0.3-1,0.4c-0.4,0.1-0.8,0.1-1.2,0.1c-0.5,0-1-0.1-1.5-0.2
				c-0.5-0.1-0.9-0.3-1.3-0.5l0,0v-2.2h-1.4v3.2l0,0.1c0.2,0.1,0.4,0.2,0.7,0.3s0.6,0.3,1,0.4s0.8,0.2,1.2,0.3
				C1063.4,213.1,1063.9,213.2,1064.4,213.2z"/>
			<polygon id="Path_2_" class="st2" points="1073.1,212.9 1073.1,203.8 1072.8,202 1072.9,202 1073.8,203.6 1075.9,207 1076.4,207 
				1078.4,203.7 1079.4,202 1079.5,202 1079.3,203.8 1079.3,212.9 1080.9,212.9 1080.9,199.2 1079.4,199.2 1076.3,204.4 
				1076.2,204.4 1073,199.2 1071.5,199.2 1071.5,212.9 			"/>
			<g id="Rectangle" transform="translate(1194.000000, 128.000000)">
				<g id="Mask">
					<rect id="path-1_1_" class="st3" width="81" height="167"/>
				</g>
				<defs>
					<filter id="Adobe_OpacityMaskFilter" filterUnits="userSpaceOnUse" x="11.6" y="12" width="772" height="132">
						<feColorMatrix  type="matrix" values="1 0 0 0 0  0 1 0 0 0  0 0 1 0 0  0 0 0 1 0"/>
					</filter>
				</defs>
				<mask maskUnits="userSpaceOnUse" x="11.6" y="12" width="772" height="132" id="mask-2_1_">
					<g class="st4">
						<rect id="path-1_2_" class="st5" width="81" height="167"/>
					</g>
				</mask>
				<path class="st6" d="M22.1,12.5h751c5.5,0,10,4.5,10,10v111c0,5.5-4.5,10-10,10h-751c-5.5,0-10-4.5-10-10v-111
					C12.1,17,16.5,12.5,22.1,12.5z"/>
			</g>
			<g id="Group_3_" transform="translate(947.000000, 190.000000)">
				
					<g id="icon_x2F_fingerprint-copy_3_" transform="translate(16.000000, 16.000000) rotate(-270.000000) translate(-16.000000, -16.000000) ">
					<path id="Shape_3_" class="st1" d="M12,4L6.7,9.3h4v9.3h2.7V9.3h4 M21.3,22.7v-9.3h-2.7v9.3h-4L20,28l5.3-5.3H21.3z"/>
				</g>
			</g>
			<path id="Path_3_" class="st1" d="M446.4,203c-0.7-3.4-3.7-6-7.4-6c-2.9,0-5.4,1.6-6.6,4c-3,0.3-5.4,2.9-5.4,6c0,3.3,2.7,6,6,6
				h13c1.3,0,2.6-0.5,3.5-1.5s1.5-2.2,1.5-3.5C451,205.4,449,203.2,446.4,203z"/>
			<path id="Rectangle-Copy-15_3_" class="st0" d="M10,164h263c5.5,0,10,4.5,10,10v64c0,5.5-4.5,10-10,10H10c-5.5,0-10-4.5-10-10
				v-64C0,168.5,4.5,164,10,164z"/>
			<path id="Shape_4_" class="st1" d="M52,209H42v-10h10 M56,203v-2h-2v-2c0-1.1-0.9-2-2-2h-2v-2h-2v2h-2v-2h-2v2h-2
				c-1.1,0-2,0.9-2,2v2h-2v2h2v2h-2v2h2v2c0,1.1,0.9,2,2,2h2v2h2v-2h2v2h2v-2h2c1.1,0,2-0.9,2-2v-2h2v-2h-2v-2 M48,205h-2v-2h2
				 M50,201h-6v6h6V201z"/>
			<g class="st7">
				<path class="st2" d="M463.8,203.4c0-1.9,0.3-3.3,1-4.3c0.7-1,1.7-1.5,3-1.5c0.7,0,1.4,0.1,1.9,0.4c0.5,0.3,0.9,0.7,1.3,1.2
					c0.3,0.5,0.5,1.1,0.7,1.8c0.1,0.7,0.2,1.5,0.2,2.4c0,1.9-0.3,3.3-1,4.3c-0.7,1-1.7,1.5-3.1,1.5c-0.7,0-1.4-0.1-1.9-0.4
					c-0.5-0.3-0.9-0.7-1.2-1.2c-0.3-0.5-0.5-1.1-0.7-1.8C463.8,205.1,463.8,204.3,463.8,203.4z M465.2,203.4c0,0.6,0,1.2,0.1,1.8
					s0.2,1,0.4,1.5c0.2,0.4,0.5,0.8,0.8,1c0.3,0.3,0.8,0.4,1.3,0.4c0.9,0,1.6-0.4,2-1.1c0.4-0.7,0.6-1.9,0.6-3.5
					c0-0.6,0-1.2-0.1-1.8c-0.1-0.6-0.2-1.1-0.4-1.5c-0.2-0.4-0.5-0.8-0.8-1c-0.3-0.2-0.8-0.4-1.3-0.4c-0.9,0-1.6,0.4-2,1.1
					C465.4,200.7,465.2,201.8,465.2,203.4z"/>
				<path class="st2" d="M479.6,202.2c-0.2-0.1-0.5-0.2-0.8-0.2c-0.3-0.1-0.6-0.1-0.8-0.1c-1,0-1.8,0.2-2.3,0.7
					c-0.5,0.5-0.8,1.3-0.8,2.3c0,0.5,0.1,0.9,0.2,1.3c0.1,0.4,0.4,0.7,0.6,0.9s0.6,0.5,1,0.6c0.4,0.1,0.8,0.2,1.3,0.2
					c0.5,0,1-0.1,1.5-0.3c0.5-0.2,0.9-0.4,1.2-0.7l0.6,0.9c-0.1,0.1-0.3,0.3-0.6,0.4c-0.2,0.1-0.5,0.3-0.8,0.4s-0.6,0.2-1,0.3
					c-0.4,0.1-0.7,0.1-1.2,0.1c-0.7,0-1.3-0.1-1.8-0.3c-0.5-0.2-1-0.5-1.3-0.8c-0.4-0.4-0.6-0.8-0.8-1.3c-0.2-0.5-0.3-1.1-0.3-1.7
					c0-0.7,0.1-1.3,0.3-1.8c0.2-0.5,0.5-1,0.8-1.3c0.4-0.4,0.8-0.6,1.3-0.8c0.5-0.2,1.1-0.3,1.7-0.3c0.8,0,1.4,0.1,1.9,0.2
					c0.5,0.1,0.9,0.3,1.3,0.5l0,0v2.2h-1.2V202.2z"/>
				<path class="st2" d="M482.6,197.8h2.6v6.6h0.9l3.2-3.4h1.5l-3.5,3.8l2.9,3.1h1v1.1h-1.6l-3.4-3.6h-0.9v3.6h-1.2v-10.1h-1.4
					V197.8z"/>
				<path class="st2" d="M493.5,201.6c0.5-0.3,1-0.5,1.6-0.6c0.6-0.1,1.1-0.2,1.7-0.2c0.5,0,1,0.1,1.3,0.3s0.6,0.4,0.8,0.7
					s0.3,0.6,0.4,0.9s0.1,0.7,0.1,1c0,0.4,0,0.8,0,1.3c0,0.5,0,0.9,0,1.4c0,0.5,0,1,0.1,1.5h1.1v1h-2.1l-0.1-1.2h-0.1
					c-0.1,0.1-0.2,0.2-0.3,0.4s-0.3,0.3-0.5,0.4c-0.2,0.1-0.5,0.3-0.8,0.4c-0.3,0.1-0.7,0.2-1.1,0.2c-0.8,0-1.4-0.2-1.9-0.6
					s-0.7-1-0.7-1.7c0-0.5,0.1-1,0.4-1.4c0.2-0.4,0.6-0.6,1-0.8c0.4-0.2,1-0.3,1.6-0.3c0.6,0,1.4,0,2.1,0.1c0.1-0.5,0.1-0.9,0-1.2
					c0-0.3-0.1-0.6-0.3-0.8c-0.1-0.2-0.3-0.3-0.6-0.4c-0.2-0.1-0.5-0.1-0.9-0.1c-0.5,0-0.9,0.1-1.4,0.2c-0.4,0.1-0.8,0.3-1.2,0.4
					L493.5,201.6z M495.9,208.1c0.3,0,0.6,0,0.8-0.1c0.3-0.1,0.5-0.2,0.7-0.4c0.2-0.1,0.4-0.3,0.5-0.5s0.2-0.3,0.3-0.5v-1.1
					c-0.6-0.1-1.1-0.1-1.5-0.1c-0.5,0-0.9,0.1-1.2,0.2c-0.3,0.1-0.6,0.3-0.8,0.5c-0.2,0.2-0.3,0.5-0.3,0.8c0,0.4,0.1,0.7,0.4,0.9
					C494.9,207.9,495.3,208.1,495.9,208.1z"/>
				<path class="st2" d="M505.6,209v-5.3c0-0.2,0-0.4,0-0.6s-0.1-0.4-0.1-0.6c-0.1-0.2-0.1-0.3-0.3-0.4c-0.1-0.1-0.3-0.1-0.4-0.1
					c-0.4,0-0.7,0.1-0.9,0.4s-0.4,0.7-0.6,1.1v5.5h-1.2v-8h0.8l0.2,1h0.1c0.1-0.2,0.2-0.3,0.3-0.5c0.1-0.1,0.2-0.3,0.4-0.4
					c0.1-0.1,0.3-0.2,0.5-0.2c0.2-0.1,0.4-0.1,0.7-0.1c0.2,0,0.3,0,0.5,0.1c0.2,0,0.3,0.1,0.5,0.2c0.1,0.1,0.3,0.2,0.4,0.4
					c0.1,0.2,0.2,0.4,0.2,0.6c0.2-0.4,0.5-0.7,0.8-1c0.3-0.2,0.7-0.4,1.3-0.4c0.4,0,0.6,0.1,0.9,0.2c0.2,0.1,0.4,0.3,0.5,0.5
					c0.1,0.2,0.2,0.5,0.3,0.8c0,0.3,0.1,0.6,0.1,1v5.7h-1.2v-5.4c0-0.2,0-0.4,0-0.6c0-0.2-0.1-0.4-0.1-0.5c-0.1-0.1-0.1-0.3-0.2-0.4
					c-0.1-0.1-0.2-0.1-0.4-0.1c-0.4,0-0.7,0.1-0.9,0.4c-0.3,0.3-0.4,0.7-0.6,1.3v5.3H505.6z"/>
				<path class="st2" d="M522.2,197.9c0.4-0.1,0.9-0.1,1.4-0.2c0.5,0,1-0.1,1.4-0.1c0.5,0,1,0.1,1.4,0.2s0.8,0.3,1.2,0.5
					c0.3,0.2,0.6,0.6,0.8,1s0.3,0.9,0.3,1.4c0,0.4-0.1,0.8-0.2,1.2s-0.3,0.6-0.5,0.9s-0.4,0.4-0.6,0.6s-0.4,0.3-0.6,0.3l3,5.3h-1.6
					l-2.6-4.9h-2v4.9h-1.3V197.9z M525.1,198.8c-0.1,0-0.3,0-0.4,0s-0.3,0-0.4,0c-0.1,0-0.3,0-0.4,0c-0.1,0-0.2,0-0.3,0v4.1h1.2
					c0.7,0,1.3-0.2,1.8-0.5c0.5-0.4,0.7-0.9,0.7-1.7c0-0.6-0.2-1-0.6-1.4C526.3,199,525.8,198.8,525.1,198.8z"/>
				<path class="st2" d="M531.1,205c0-1.3,0.3-2.3,1-3.1c0.7-0.8,1.6-1.1,2.9-1.1c0.7,0,1.3,0.1,1.7,0.3c0.5,0.2,0.9,0.5,1.2,0.9
					c0.3,0.4,0.6,0.8,0.7,1.3c0.2,0.5,0.2,1.1,0.2,1.6c0,0.6-0.1,1.2-0.3,1.7c-0.2,0.5-0.4,1-0.8,1.3c-0.3,0.4-0.7,0.6-1.2,0.8
					c-0.5,0.2-1,0.3-1.7,0.3c-0.7,0-1.2-0.1-1.7-0.3c-0.5-0.2-0.9-0.5-1.2-0.9c-0.3-0.4-0.6-0.8-0.7-1.3
					C531.2,206.1,531.1,205.6,531.1,205z M532.4,205c0,0.4,0,0.7,0.1,1.1s0.2,0.7,0.4,1c0.2,0.3,0.5,0.5,0.8,0.7
					c0.3,0.2,0.7,0.3,1.2,0.3c0.9,0,1.5-0.3,1.9-0.8s0.6-1.3,0.6-2.3c0-0.4,0-0.8-0.1-1.1c-0.1-0.4-0.2-0.7-0.4-1
					c-0.2-0.3-0.5-0.5-0.8-0.7c-0.3-0.2-0.7-0.3-1.2-0.3c-0.9,0-1.5,0.3-1.9,0.8S532.4,204,532.4,205z"/>
				<path class="st2" d="M545.6,201h2.3v5.5c0,0.5,0,1,0.1,1.5h1.1v1h-2.1l0-1.4h-0.1c-0.3,0.5-0.6,0.8-1.1,1.1s-1,0.4-1.7,0.4
					c-0.5,0-0.9-0.1-1.3-0.2c-0.3-0.1-0.6-0.3-0.9-0.6s-0.4-0.6-0.5-1.1s-0.2-1-0.2-1.7v-3.5h-1.1V201h2.3v4.3c0,0.4,0,0.8,0.1,1.2
					s0.1,0.6,0.2,0.9c0.1,0.2,0.3,0.4,0.5,0.5c0.2,0.1,0.5,0.2,0.9,0.2c0.6,0,1-0.2,1.4-0.5c0.4-0.4,0.7-0.8,0.9-1.4v-4.1h-1V201z"
					/>
				<path class="st2" d="M549.9,201h1.9v-1.6l1.3-0.4v1.9h4.3v1.1h-4.3v3.8c0,0.8,0.2,1.4,0.6,1.7s0.9,0.6,1.6,0.6
					c0.5,0,0.9-0.1,1.3-0.3c0.4-0.2,0.7-0.4,1-0.6l0.4,0.9c-0.4,0.3-0.8,0.5-1.3,0.7c-0.5,0.2-1,0.3-1.6,0.3c-0.4,0-0.8-0.1-1.2-0.2
					c-0.4-0.1-0.7-0.3-1-0.6c-0.3-0.3-0.5-0.6-0.7-1c-0.2-0.4-0.3-0.9-0.3-1.4v-4h-1.9V201z"/>
				<path class="st2" d="M567.5,208c-0.2,0.2-0.4,0.3-0.7,0.5c-0.3,0.1-0.5,0.3-0.9,0.4c-0.3,0.1-0.6,0.2-1,0.2s-0.7,0.1-1,0.1
					c-0.6,0-1.2-0.1-1.7-0.3c-0.5-0.2-0.9-0.5-1.2-0.8c-0.3-0.4-0.6-0.8-0.8-1.3c-0.2-0.5-0.3-1.1-0.3-1.7c0-0.7,0.1-1.3,0.3-1.8
					c0.2-0.5,0.5-1,0.8-1.3c0.4-0.4,0.8-0.6,1.3-0.8s1.1-0.3,1.7-0.3c0.4,0,0.9,0.1,1.3,0.2s0.8,0.3,1.2,0.7
					c0.3,0.3,0.6,0.8,0.8,1.3c0.2,0.6,0.2,1.3,0.2,2.2h-6.2c0,1,0.3,1.7,0.8,2.2c0.5,0.5,1.2,0.7,2.1,0.7c0.3,0,0.6,0,0.9-0.1
					c0.3-0.1,0.6-0.2,0.8-0.2c0.3-0.1,0.5-0.2,0.7-0.3c0.2-0.1,0.3-0.2,0.5-0.3L567.5,208z M564.1,201.9c-0.4,0-0.7,0-1,0.1
					c-0.3,0.1-0.6,0.2-0.8,0.4c-0.2,0.2-0.4,0.4-0.6,0.7c-0.2,0.3-0.3,0.6-0.3,1h5c-0.1-0.7-0.3-1.2-0.7-1.6
					S564.7,201.9,564.1,201.9z"/>
				<path class="st2" d="M569.7,209v-1.1h2.2v-5.9h-2.2V201h3l0.3,1h0.1c0.4-0.3,0.8-0.6,1.2-0.8c0.4-0.2,1-0.4,1.6-0.4
					c0.4,0,0.7,0.1,0.9,0.2s0.4,0.3,0.5,0.6s0.2,0.6,0.2,1c0,0.4,0.1,0.8,0.1,1.3l-1.1,0c0-0.7-0.1-1.2-0.2-1.5
					c-0.1-0.3-0.4-0.5-0.7-0.5c-0.3,0-0.6,0-0.9,0.1c-0.3,0.1-0.5,0.2-0.7,0.4c-0.2,0.1-0.4,0.3-0.5,0.4c-0.1,0.1-0.2,0.3-0.3,0.4
					v4.7h3.1v1.1H569.7z"/>
				<path class="st2" d="M590.2,207.4c0.3,0.2,0.7,0.3,1.1,0.4s0.8,0.2,1.2,0.2c0.4,0,0.7,0,1-0.1c0.3-0.1,0.6-0.2,0.8-0.3
					c0.2-0.2,0.4-0.3,0.5-0.6c0.1-0.2,0.2-0.5,0.2-0.8c0-0.4-0.1-0.8-0.4-1.1s-0.7-0.5-1.1-0.7c-0.4-0.2-0.9-0.4-1.4-0.6
					c-0.5-0.2-1-0.4-1.4-0.7c-0.4-0.3-0.8-0.6-1.1-1c-0.3-0.4-0.4-0.9-0.4-1.5c0-0.4,0.1-0.8,0.3-1.2c0.2-0.4,0.4-0.7,0.7-0.9
					c0.3-0.2,0.7-0.4,1.2-0.6c0.5-0.1,1-0.2,1.5-0.2c0.6,0,1.2,0,1.7,0.1s0.9,0.2,1.2,0.4l0,0v0h0l0,0v2.6h-1.2V199
					c-0.3-0.1-0.6-0.1-0.9-0.2c-0.3,0-0.7-0.1-1-0.1c-0.4,0-0.7,0-1,0.1c-0.3,0.1-0.5,0.2-0.7,0.3c-0.2,0.1-0.3,0.3-0.5,0.5
					c-0.1,0.2-0.2,0.4-0.2,0.6c0,0.4,0.1,0.8,0.4,1c0.3,0.3,0.7,0.5,1.1,0.7s0.9,0.4,1.4,0.6c0.5,0.2,1,0.5,1.4,0.7
					c0.4,0.3,0.8,0.6,1.1,1c0.3,0.4,0.4,0.9,0.4,1.5c0,0.5-0.1,0.9-0.3,1.3c-0.2,0.4-0.4,0.7-0.8,1c-0.3,0.3-0.7,0.5-1.2,0.6
					c-0.5,0.1-1,0.2-1.6,0.2c-0.4,0-0.8,0-1.2-0.1c-0.4-0.1-0.7-0.1-1-0.2c-0.3-0.1-0.6-0.2-0.8-0.3c-0.2-0.1-0.4-0.2-0.6-0.3l0,0
					v-2.6h1.2V207.4z"/>
				<path class="st2" d="M605.9,208c-0.2,0.2-0.4,0.3-0.7,0.5c-0.3,0.1-0.5,0.3-0.9,0.4c-0.3,0.1-0.6,0.2-1,0.2s-0.7,0.1-1,0.1
					c-0.6,0-1.2-0.1-1.7-0.3c-0.5-0.2-0.9-0.5-1.2-0.8c-0.3-0.4-0.6-0.8-0.8-1.3c-0.2-0.5-0.3-1.1-0.3-1.7c0-0.7,0.1-1.3,0.3-1.8
					c0.2-0.5,0.5-1,0.8-1.3c0.4-0.4,0.8-0.6,1.3-0.8s1.1-0.3,1.7-0.3c0.4,0,0.9,0.1,1.3,0.2s0.8,0.3,1.2,0.7
					c0.3,0.3,0.6,0.8,0.8,1.3c0.2,0.6,0.2,1.3,0.2,2.2h-6.2c0,1,0.3,1.7,0.8,2.2c0.5,0.5,1.2,0.7,2.1,0.7c0.3,0,0.6,0,0.9-0.1
					c0.3-0.1,0.6-0.2,0.8-0.2c0.3-0.1,0.5-0.2,0.7-0.3c0.2-0.1,0.3-0.2,0.5-0.3L605.9,208z M602.5,201.9c-0.4,0-0.7,0-1,0.1
					c-0.3,0.1-0.6,0.2-0.8,0.4c-0.2,0.2-0.4,0.4-0.6,0.7c-0.2,0.3-0.3,0.6-0.3,1h5c-0.1-0.7-0.3-1.2-0.7-1.6
					S603.1,201.9,602.5,201.9z"/>
				<path class="st2" d="M608.1,209v-1.1h2.2v-5.9h-2.2V201h3l0.3,1h0.1c0.4-0.3,0.8-0.6,1.2-0.8c0.4-0.2,1-0.4,1.6-0.4
					c0.4,0,0.7,0.1,0.9,0.2s0.4,0.3,0.5,0.6s0.2,0.6,0.2,1c0,0.4,0.1,0.8,0.1,1.3l-1.1,0c0-0.7-0.1-1.2-0.2-1.5
					c-0.1-0.3-0.4-0.5-0.7-0.5c-0.3,0-0.6,0-0.9,0.1c-0.3,0.1-0.5,0.2-0.7,0.4c-0.2,0.1-0.4,0.3-0.5,0.4c-0.1,0.1-0.2,0.3-0.3,0.4
					v4.7h3.1v1.1H608.1z"/>
				<path class="st2" d="M621.4,207.4h0.2l2.5-6.4h1.4l-3.4,8h-1.4l-3.4-8h1.5L621.4,207.4z"/>
				<path class="st2" d="M627.9,209v-1.1h2.8v-5.9h-2.8V201h4v6.9h2.7v1.1H627.9z M630.2,198.7c0-0.3,0.1-0.5,0.3-0.7
					c0.2-0.2,0.4-0.3,0.7-0.3c0.3,0,0.6,0.1,0.8,0.3s0.3,0.5,0.3,0.7c0,0.3-0.1,0.5-0.3,0.7c-0.2,0.2-0.5,0.3-0.8,0.3
					c-0.3,0-0.5-0.1-0.7-0.3C630.3,199.2,630.2,199,630.2,198.7z"/>
				<path class="st2" d="M642.8,202.2c-0.2-0.1-0.5-0.2-0.8-0.2c-0.3-0.1-0.6-0.1-0.8-0.1c-1,0-1.8,0.2-2.3,0.7s-0.8,1.3-0.8,2.3
					c0,0.5,0.1,0.9,0.2,1.3s0.4,0.7,0.6,0.9s0.6,0.5,1,0.6c0.4,0.1,0.8,0.2,1.3,0.2c0.5,0,1-0.1,1.5-0.3c0.5-0.2,0.9-0.4,1.2-0.7
					l0.6,0.9c-0.1,0.1-0.3,0.3-0.6,0.4c-0.2,0.1-0.5,0.3-0.8,0.4s-0.6,0.2-1,0.3c-0.4,0.1-0.7,0.1-1.2,0.1c-0.7,0-1.3-0.1-1.8-0.3
					c-0.5-0.2-1-0.5-1.3-0.8s-0.6-0.8-0.8-1.3c-0.2-0.5-0.3-1.1-0.3-1.7c0-0.7,0.1-1.3,0.3-1.8c0.2-0.5,0.5-1,0.8-1.3
					c0.4-0.4,0.8-0.6,1.3-0.8c0.5-0.2,1.1-0.3,1.7-0.3c0.8,0,1.4,0.1,1.9,0.2c0.5,0.1,0.9,0.3,1.3,0.5l0,0v2.2h-1.2V202.2z"/>
				<path class="st2" d="M653.9,208c-0.2,0.2-0.4,0.3-0.7,0.5s-0.5,0.3-0.9,0.4c-0.3,0.1-0.6,0.2-1,0.2s-0.7,0.1-1,0.1
					c-0.6,0-1.2-0.1-1.7-0.3c-0.5-0.2-0.9-0.5-1.2-0.8c-0.3-0.4-0.6-0.8-0.8-1.3c-0.2-0.5-0.3-1.1-0.3-1.7c0-0.7,0.1-1.3,0.3-1.8
					c0.2-0.5,0.5-1,0.8-1.3c0.4-0.4,0.8-0.6,1.3-0.8s1.1-0.3,1.7-0.3c0.4,0,0.9,0.1,1.3,0.2s0.8,0.3,1.2,0.7
					c0.3,0.3,0.6,0.8,0.8,1.3c0.2,0.6,0.2,1.3,0.2,2.2h-6.2c0,1,0.3,1.7,0.8,2.2s1.2,0.7,2.1,0.7c0.3,0,0.6,0,0.9-0.1
					c0.3-0.1,0.6-0.2,0.8-0.2c0.3-0.1,0.5-0.2,0.7-0.3s0.3-0.2,0.5-0.3L653.9,208z M650.5,201.9c-0.4,0-0.7,0-1,0.1
					c-0.3,0.1-0.6,0.2-0.8,0.4c-0.2,0.2-0.4,0.4-0.6,0.7s-0.3,0.6-0.3,1h5c-0.1-0.7-0.3-1.2-0.7-1.6S651.1,201.9,650.5,201.9z"/>
			</g>
			<g class="st7">
				<path class="st8" d="M68.8,192.4c0-1.9,0.3-3.3,1-4.3c0.7-1,1.7-1.5,3-1.5c0.7,0,1.4,0.1,1.9,0.4c0.5,0.3,0.9,0.7,1.3,1.2
					c0.3,0.5,0.5,1.1,0.7,1.8c0.1,0.7,0.2,1.5,0.2,2.4c0,1.9-0.3,3.3-1,4.3c-0.7,1-1.7,1.5-3.1,1.5c-0.7,0-1.4-0.1-1.9-0.4
					c-0.5-0.3-0.9-0.7-1.2-1.2c-0.3-0.5-0.5-1.1-0.7-1.8C68.8,194.1,68.8,193.3,68.8,192.4z M70.2,192.4c0,0.6,0,1.2,0.1,1.8
					s0.2,1,0.4,1.5c0.2,0.4,0.5,0.8,0.8,1c0.3,0.3,0.8,0.4,1.3,0.4c0.9,0,1.6-0.4,2-1.1c0.4-0.7,0.6-1.9,0.6-3.5
					c0-0.6,0-1.2-0.1-1.8c-0.1-0.6-0.2-1.1-0.4-1.5c-0.2-0.4-0.5-0.8-0.8-1c-0.3-0.2-0.8-0.4-1.3-0.4c-0.9,0-1.6,0.4-2,1.1
					C70.4,189.7,70.2,190.8,70.2,192.4z"/>
				<path class="st8" d="M84.6,191.2c-0.2-0.1-0.5-0.2-0.8-0.2c-0.3-0.1-0.6-0.1-0.8-0.1c-1,0-1.8,0.2-2.3,0.7
					c-0.5,0.5-0.8,1.3-0.8,2.3c0,0.5,0.1,0.9,0.2,1.3c0.1,0.4,0.4,0.7,0.6,0.9s0.6,0.5,1,0.6c0.4,0.1,0.8,0.2,1.3,0.2
					c0.5,0,1-0.1,1.5-0.3c0.5-0.2,0.9-0.4,1.2-0.7l0.6,0.9c-0.1,0.1-0.3,0.3-0.6,0.4c-0.2,0.1-0.5,0.3-0.8,0.4s-0.6,0.2-1,0.3
					c-0.4,0.1-0.7,0.1-1.2,0.1c-0.7,0-1.3-0.1-1.8-0.3c-0.5-0.2-1-0.5-1.3-0.8c-0.4-0.4-0.6-0.8-0.8-1.3c-0.2-0.5-0.3-1.1-0.3-1.7
					c0-0.7,0.1-1.3,0.3-1.8c0.2-0.5,0.5-1,0.8-1.3c0.4-0.4,0.8-0.6,1.3-0.8c0.5-0.2,1.1-0.3,1.7-0.3c0.8,0,1.4,0.1,1.9,0.2
					c0.5,0.1,0.9,0.3,1.3,0.5l0,0v2.2h-1.2V191.2z"/>
				<path class="st8" d="M87.6,186.8h2.6v6.6h0.9l3.2-3.4h1.5l-3.5,3.8l2.9,3.1h1v1.1h-1.6l-3.4-3.6h-0.9v3.6h-1.2v-10.1h-1.4V186.8
					z"/>
				<path class="st8" d="M98.5,190.6c0.5-0.3,1-0.5,1.6-0.6c0.6-0.1,1.1-0.2,1.7-0.2c0.5,0,1,0.1,1.3,0.3s0.6,0.4,0.8,0.7
					s0.3,0.6,0.4,0.9s0.1,0.7,0.1,1c0,0.4,0,0.8,0,1.3c0,0.5,0,0.9,0,1.4c0,0.5,0,1,0.1,1.5h1.1v1h-2.1l-0.1-1.2h-0.1
					c-0.1,0.1-0.2,0.2-0.3,0.4s-0.3,0.3-0.5,0.4c-0.2,0.1-0.5,0.3-0.8,0.4c-0.3,0.1-0.7,0.2-1.1,0.2c-0.8,0-1.4-0.2-1.9-0.6
					s-0.7-1-0.7-1.7c0-0.5,0.1-1,0.4-1.4c0.2-0.4,0.6-0.6,1-0.8c0.4-0.2,1-0.3,1.6-0.3c0.6,0,1.4,0,2.1,0.1c0.1-0.5,0.1-0.9,0-1.2
					c0-0.3-0.1-0.6-0.3-0.8c-0.1-0.2-0.3-0.3-0.6-0.4c-0.2-0.1-0.5-0.1-0.9-0.1c-0.5,0-0.9,0.1-1.4,0.2c-0.4,0.1-0.8,0.3-1.2,0.4
					L98.5,190.6z M100.9,197.1c0.3,0,0.6,0,0.8-0.1c0.3-0.1,0.5-0.2,0.7-0.4c0.2-0.1,0.4-0.3,0.5-0.5s0.2-0.3,0.3-0.5v-1.1
					c-0.6-0.1-1.1-0.1-1.5-0.1c-0.5,0-0.9,0.1-1.2,0.2c-0.3,0.1-0.6,0.3-0.8,0.5c-0.2,0.2-0.3,0.5-0.3,0.8c0,0.4,0.1,0.7,0.4,0.9
					C99.9,196.9,100.3,197.1,100.9,197.1z"/>
				<path class="st8" d="M110.6,198v-5.3c0-0.2,0-0.4,0-0.6s-0.1-0.4-0.1-0.6c-0.1-0.2-0.1-0.3-0.3-0.4c-0.1-0.1-0.3-0.1-0.4-0.1
					c-0.4,0-0.7,0.1-0.9,0.4s-0.4,0.7-0.6,1.1v5.5h-1.2v-8h0.8l0.2,1h0.1c0.1-0.2,0.2-0.3,0.3-0.5c0.1-0.1,0.2-0.3,0.4-0.4
					c0.1-0.1,0.3-0.2,0.5-0.2c0.2-0.1,0.4-0.1,0.7-0.1c0.2,0,0.3,0,0.5,0.1c0.2,0,0.3,0.1,0.5,0.2c0.1,0.1,0.3,0.2,0.4,0.4
					c0.1,0.2,0.2,0.4,0.2,0.6c0.2-0.4,0.5-0.7,0.8-1c0.3-0.2,0.7-0.4,1.3-0.4c0.4,0,0.6,0.1,0.9,0.2c0.2,0.1,0.4,0.3,0.5,0.5
					c0.1,0.2,0.2,0.5,0.3,0.8c0,0.3,0.1,0.6,0.1,1v5.7h-1.2v-5.4c0-0.2,0-0.4,0-0.6c0-0.2-0.1-0.4-0.1-0.5c-0.1-0.1-0.1-0.3-0.2-0.4
					c-0.1-0.1-0.2-0.1-0.4-0.1c-0.4,0-0.7,0.1-0.9,0.4c-0.3,0.3-0.4,0.7-0.6,1.3v5.3H110.6z"/>
				<path class="st8" d="M134.1,197c-0.2,0.2-0.4,0.3-0.7,0.5c-0.3,0.1-0.5,0.3-0.9,0.4c-0.3,0.1-0.6,0.2-1,0.2s-0.7,0.1-1,0.1
					c-0.6,0-1.2-0.1-1.7-0.3c-0.5-0.2-0.9-0.5-1.2-0.8c-0.3-0.4-0.6-0.8-0.8-1.3c-0.2-0.5-0.3-1.1-0.3-1.7c0-0.7,0.1-1.3,0.3-1.8
					c0.2-0.5,0.5-1,0.8-1.3c0.4-0.4,0.8-0.6,1.3-0.8s1.1-0.3,1.7-0.3c0.4,0,0.9,0.1,1.3,0.2s0.8,0.3,1.2,0.7
					c0.3,0.3,0.6,0.8,0.8,1.3c0.2,0.6,0.2,1.3,0.2,2.2h-6.2c0,1,0.3,1.7,0.8,2.2c0.5,0.5,1.2,0.7,2.1,0.7c0.3,0,0.6,0,0.9-0.1
					c0.3-0.1,0.6-0.2,0.8-0.2c0.3-0.1,0.5-0.2,0.7-0.3c0.2-0.1,0.3-0.2,0.5-0.3L134.1,197z M130.7,190.9c-0.4,0-0.7,0-1,0.1
					c-0.3,0.1-0.6,0.2-0.8,0.4c-0.2,0.2-0.4,0.4-0.6,0.7c-0.2,0.3-0.3,0.6-0.3,1h5c-0.1-0.7-0.3-1.2-0.7-1.6
					S131.3,190.9,130.7,190.9z"/>
				<path class="st8" d="M136.7,192.8c0-0.1,0-0.2,0-0.4c0-0.2,0-0.3,0-0.5c0-0.2,0-0.3,0-0.5s0-0.3-0.1-0.4h-1.1v-1h2.1l0.1,1.3
					h0.1c0.1-0.2,0.2-0.4,0.4-0.5c0.2-0.2,0.4-0.3,0.6-0.5c0.2-0.1,0.5-0.3,0.8-0.3c0.3-0.1,0.6-0.1,0.9-0.1c0.5,0,0.9,0.1,1.3,0.2
					c0.4,0.1,0.7,0.3,0.9,0.6c0.3,0.3,0.4,0.6,0.6,1.1s0.2,1.1,0.2,1.8v4.6h-1.3v-4.3c0-0.9-0.1-1.5-0.4-2c-0.3-0.4-0.8-0.7-1.6-0.7
					c-0.3,0-0.5,0.1-0.8,0.2c-0.3,0.1-0.5,0.3-0.7,0.4s-0.4,0.4-0.6,0.6c-0.2,0.2-0.3,0.5-0.4,0.8v5h-1.2V192.8z"/>
				<path class="st8" d="M146.5,190.6c0.5-0.3,1-0.5,1.6-0.6c0.6-0.1,1.1-0.2,1.7-0.2c0.5,0,1,0.1,1.3,0.3s0.6,0.4,0.8,0.7
					s0.3,0.6,0.4,0.9s0.1,0.7,0.1,1c0,0.4,0,0.8,0,1.3c0,0.5,0,0.9,0,1.4c0,0.5,0,1,0.1,1.5h1.1v1h-2.1l-0.1-1.2h-0.1
					c-0.1,0.1-0.2,0.2-0.3,0.4s-0.3,0.3-0.5,0.4c-0.2,0.1-0.5,0.3-0.8,0.4c-0.3,0.1-0.7,0.2-1.1,0.2c-0.8,0-1.4-0.2-1.9-0.6
					s-0.7-1-0.7-1.7c0-0.5,0.1-1,0.4-1.4c0.2-0.4,0.6-0.6,1-0.8c0.4-0.2,1-0.3,1.6-0.3c0.6,0,1.4,0,2.1,0.1c0.1-0.5,0.1-0.9,0-1.2
					c0-0.3-0.1-0.6-0.3-0.8c-0.1-0.2-0.3-0.3-0.6-0.4c-0.2-0.1-0.5-0.1-0.9-0.1c-0.5,0-0.9,0.1-1.4,0.2c-0.4,0.1-0.8,0.3-1.2,0.4
					L146.5,190.6z M148.9,197.1c0.3,0,0.6,0,0.8-0.1c0.3-0.1,0.5-0.2,0.7-0.4c0.2-0.1,0.4-0.3,0.5-0.5s0.2-0.3,0.3-0.5v-1.1
					c-0.6-0.1-1.1-0.1-1.5-0.1c-0.5,0-0.9,0.1-1.2,0.2c-0.3,0.1-0.6,0.3-0.8,0.5c-0.2,0.2-0.3,0.5-0.3,0.8c0,0.4,0.1,0.7,0.4,0.9
					C147.9,196.9,148.3,197.1,148.9,197.1z"/>
				<path class="st8" d="M154.4,186.8h2.6v4.1h0.1c0.3-0.4,0.6-0.6,1.1-0.8c0.4-0.2,0.9-0.3,1.4-0.3c2.3,0,3.5,1.4,3.5,4.1
					c0,1.4-0.4,2.4-1.1,3.2s-1.8,1.1-3.2,1.1c-0.7,0-1.3-0.1-1.8-0.2c-0.5-0.1-0.9-0.3-1.2-0.4v-9.6h-1.3V186.8z M159.4,190.9
					c-0.6,0-1.2,0.2-1.6,0.5c-0.4,0.4-0.7,0.9-0.9,1.5v3.7c0.2,0.1,0.5,0.2,0.9,0.3c0.3,0.1,0.7,0.1,1.1,0.1c0.4,0,0.8-0.1,1.2-0.2
					c0.3-0.1,0.6-0.3,0.9-0.6c0.2-0.3,0.4-0.6,0.6-1c0.1-0.4,0.2-0.9,0.2-1.4c0-0.4,0-0.8-0.1-1.2s-0.2-0.7-0.4-1
					c-0.2-0.3-0.4-0.5-0.7-0.6C160.2,191,159.8,190.9,159.4,190.9z"/>
				<path class="st8" d="M165.9,186.8h2.7v8.5c0,0.7,0.1,1.1,0.3,1.4s0.5,0.4,1,0.4c0.3,0,0.6-0.1,0.9-0.2c0.3-0.1,0.6-0.3,0.9-0.5
					l0.6,0.9c-0.2,0.1-0.4,0.3-0.6,0.4c-0.2,0.1-0.4,0.2-0.6,0.3s-0.4,0.1-0.6,0.2c-0.2,0-0.4,0.1-0.6,0.1c-0.4,0-0.7-0.1-1.1-0.2
					c-0.3-0.1-0.6-0.3-0.8-0.5c-0.2-0.2-0.4-0.5-0.5-0.9s-0.2-0.8-0.2-1.4v-7.4h-1.4V186.8z"/>
				<path class="st8" d="M182.1,197c-0.2,0.2-0.4,0.3-0.7,0.5c-0.3,0.1-0.5,0.3-0.9,0.4c-0.3,0.1-0.6,0.2-1,0.2s-0.7,0.1-1,0.1
					c-0.6,0-1.2-0.1-1.7-0.3c-0.5-0.2-0.9-0.5-1.2-0.8c-0.3-0.4-0.6-0.8-0.8-1.3c-0.2-0.5-0.3-1.1-0.3-1.7c0-0.7,0.1-1.3,0.3-1.8
					c0.2-0.5,0.5-1,0.8-1.3c0.4-0.4,0.8-0.6,1.3-0.8s1.1-0.3,1.7-0.3c0.4,0,0.9,0.1,1.3,0.2s0.8,0.3,1.2,0.7
					c0.3,0.3,0.6,0.8,0.8,1.3c0.2,0.6,0.2,1.3,0.2,2.2h-6.2c0,1,0.3,1.7,0.8,2.2c0.5,0.5,1.2,0.7,2.1,0.7c0.3,0,0.6,0,0.9-0.1
					c0.3-0.1,0.6-0.2,0.8-0.2c0.3-0.1,0.5-0.2,0.7-0.3c0.2-0.1,0.3-0.2,0.5-0.3L182.1,197z M178.7,190.9c-0.4,0-0.7,0-1,0.1
					c-0.3,0.1-0.6,0.2-0.8,0.4c-0.2,0.2-0.4,0.4-0.6,0.7c-0.2,0.3-0.3,0.6-0.3,1h5c-0.1-0.7-0.3-1.2-0.7-1.6
					S179.3,190.9,178.7,190.9z"/>
				<path class="st8" d="M188.8,186.8h2.6v8.5c0,0.1,0,0.2,0,0.4s0,0.3,0,0.5s0,0.3,0.1,0.5c0,0.2,0,0.3,0.1,0.4h1.1v1h-2.1
					l-0.2-1.2h-0.1c-0.2,0.4-0.6,0.7-1,1c-0.5,0.3-1,0.4-1.6,0.4c-1.2,0-2.1-0.3-2.7-1c-0.6-0.7-0.9-1.7-0.9-3.2
					c0-0.7,0.1-1.3,0.3-1.8c0.2-0.5,0.5-0.9,0.8-1.3c0.4-0.3,0.8-0.6,1.3-0.8c0.5-0.2,1.1-0.3,1.7-0.3c0.2,0,0.4,0,0.6,0
					c0.2,0,0.3,0,0.5,0c0.1,0,0.3,0.1,0.4,0.1c0.1,0,0.3,0.1,0.4,0.1v-2.3h-1.3V186.8z M187.8,197.1c0.6,0,1.2-0.2,1.5-0.5
					s0.6-0.8,0.8-1.5v-3.7c-0.2-0.2-0.5-0.3-0.8-0.4c-0.3-0.1-0.7-0.1-1.2-0.1c-0.9,0-1.5,0.2-2,0.7c-0.5,0.5-0.7,1.3-0.7,2.3
					c0,0.4,0,0.8,0.1,1.2c0.1,0.4,0.2,0.7,0.4,1c0.2,0.3,0.4,0.5,0.7,0.7C187,197,187.4,197.1,187.8,197.1z"/>
			</g>
			<g class="st7">
				<path class="st8" d="M73.6,206.8h2.6v8.5c0,0.1,0,0.2,0,0.4s0,0.3,0,0.5s0,0.3,0.1,0.5c0,0.2,0,0.3,0.1,0.4h1.1v1h-2.1l-0.2-1.2
					h-0.1c-0.2,0.4-0.6,0.7-1,1c-0.5,0.3-1,0.4-1.6,0.4c-1.2,0-2.1-0.3-2.7-1c-0.6-0.7-0.9-1.7-0.9-3.2c0-0.7,0.1-1.3,0.3-1.8
					c0.2-0.5,0.5-0.9,0.8-1.3c0.4-0.3,0.8-0.6,1.3-0.8c0.5-0.2,1.1-0.3,1.7-0.3c0.2,0,0.4,0,0.6,0c0.2,0,0.3,0,0.5,0
					c0.1,0,0.3,0.1,0.4,0.1c0.1,0,0.3,0.1,0.4,0.1v-2.3h-1.3V206.8z M72.6,217.1c0.6,0,1.2-0.2,1.5-0.5s0.6-0.8,0.8-1.5v-3.7
					c-0.2-0.2-0.5-0.3-0.8-0.4c-0.3-0.1-0.7-0.1-1.2-0.1c-0.9,0-1.5,0.2-2,0.7c-0.5,0.5-0.7,1.3-0.7,2.3c0,0.4,0,0.8,0.1,1.2
					c0.1,0.4,0.2,0.7,0.4,1c0.2,0.3,0.4,0.5,0.7,0.7C71.8,217,72.2,217.1,72.6,217.1z"/>
				<path class="st8" d="M86.1,217c-0.2,0.2-0.4,0.3-0.7,0.5c-0.3,0.1-0.5,0.3-0.9,0.4c-0.3,0.1-0.6,0.2-1,0.2s-0.7,0.1-1,0.1
					c-0.6,0-1.2-0.1-1.7-0.3c-0.5-0.2-0.9-0.5-1.2-0.8c-0.3-0.4-0.6-0.8-0.8-1.3c-0.2-0.5-0.3-1.1-0.3-1.7c0-0.7,0.1-1.3,0.3-1.8
					c0.2-0.5,0.5-1,0.8-1.3c0.4-0.4,0.8-0.6,1.3-0.8s1.1-0.3,1.7-0.3c0.4,0,0.9,0.1,1.3,0.2s0.8,0.3,1.2,0.7
					c0.3,0.3,0.6,0.8,0.8,1.3c0.2,0.6,0.2,1.3,0.2,2.2h-6.2c0,1,0.3,1.7,0.8,2.2c0.5,0.5,1.2,0.7,2.1,0.7c0.3,0,0.6,0,0.9-0.1
					c0.3-0.1,0.6-0.2,0.8-0.2c0.3-0.1,0.5-0.2,0.7-0.3c0.2-0.1,0.3-0.2,0.5-0.3L86.1,217z M82.7,210.9c-0.4,0-0.7,0-1,0.1
					c-0.3,0.1-0.6,0.2-0.8,0.4c-0.2,0.2-0.4,0.4-0.6,0.7c-0.2,0.3-0.3,0.6-0.3,1h5c-0.1-0.7-0.3-1.2-0.7-1.6S83.3,210.9,82.7,210.9z
					"/>
				<path class="st8" d="M92,216.4h0.2l2.5-6.4h1.4l-3.4,8h-1.4l-3.4-8h1.5L92,216.4z"/>
				<path class="st8" d="M98.5,218v-1.1h2.8v-5.9h-2.8V210h4v6.9h2.7v1.1H98.5z M100.8,207.7c0-0.3,0.1-0.5,0.3-0.7
					c0.2-0.2,0.4-0.3,0.7-0.3c0.3,0,0.6,0.1,0.8,0.3s0.3,0.5,0.3,0.7c0,0.3-0.1,0.5-0.3,0.7c-0.2,0.2-0.5,0.3-0.8,0.3
					c-0.3,0-0.5-0.1-0.7-0.3C100.9,208.2,100.8,208,100.8,207.7z"/>
				<path class="st8" d="M113.4,211.2c-0.2-0.1-0.5-0.2-0.8-0.2c-0.3-0.1-0.6-0.1-0.8-0.1c-1,0-1.8,0.2-2.3,0.7
					c-0.5,0.5-0.8,1.3-0.8,2.3c0,0.5,0.1,0.9,0.2,1.3c0.1,0.4,0.4,0.7,0.6,0.9s0.6,0.5,1,0.6c0.4,0.1,0.8,0.2,1.3,0.2
					c0.5,0,1-0.1,1.5-0.3c0.5-0.2,0.9-0.4,1.2-0.7l0.6,0.9c-0.1,0.1-0.3,0.3-0.6,0.4c-0.2,0.1-0.5,0.3-0.8,0.4s-0.6,0.2-1,0.3
					c-0.4,0.1-0.7,0.1-1.2,0.1c-0.7,0-1.3-0.1-1.8-0.3c-0.5-0.2-1-0.5-1.3-0.8c-0.4-0.4-0.6-0.8-0.8-1.3c-0.2-0.5-0.3-1.1-0.3-1.7
					c0-0.7,0.1-1.3,0.3-1.8c0.2-0.5,0.5-1,0.8-1.3c0.4-0.4,0.8-0.6,1.3-0.8c0.5-0.2,1.1-0.3,1.7-0.3c0.8,0,1.4,0.1,1.9,0.2
					c0.5,0.1,0.9,0.3,1.3,0.5l0,0v2.2h-1.2V211.2z"/>
				<path class="st8" d="M124.5,217c-0.2,0.2-0.4,0.3-0.7,0.5c-0.3,0.1-0.5,0.3-0.9,0.4c-0.3,0.1-0.6,0.2-1,0.2s-0.7,0.1-1,0.1
					c-0.6,0-1.2-0.1-1.7-0.3c-0.5-0.2-0.9-0.5-1.2-0.8c-0.3-0.4-0.6-0.8-0.8-1.3c-0.2-0.5-0.3-1.1-0.3-1.7c0-0.7,0.1-1.3,0.3-1.8
					c0.2-0.5,0.5-1,0.8-1.3c0.4-0.4,0.8-0.6,1.3-0.8s1.1-0.3,1.7-0.3c0.4,0,0.9,0.1,1.3,0.2s0.8,0.3,1.2,0.7
					c0.3,0.3,0.6,0.8,0.8,1.3c0.2,0.6,0.2,1.3,0.2,2.2h-6.2c0,1,0.3,1.7,0.8,2.2c0.5,0.5,1.2,0.7,2.1,0.7c0.3,0,0.6,0,0.9-0.1
					c0.3-0.1,0.6-0.2,0.8-0.2c0.3-0.1,0.5-0.2,0.7-0.3c0.2-0.1,0.3-0.2,0.5-0.3L124.5,217z M121.1,210.9c-0.4,0-0.7,0-1,0.1
					c-0.3,0.1-0.6,0.2-0.8,0.4c-0.2,0.2-0.4,0.4-0.6,0.7c-0.2,0.3-0.3,0.6-0.3,1h5c-0.1-0.7-0.3-1.2-0.7-1.6
					S121.7,210.9,121.1,210.9z"/>
				<path class="st8" d="M132.6,215.8c0-0.3-0.1-0.6-0.4-0.8c-0.3-0.2-0.6-0.3-1-0.4c-0.4-0.1-0.8-0.2-1.3-0.3
					c-0.5-0.1-0.9-0.2-1.3-0.4s-0.7-0.4-1-0.6c-0.3-0.3-0.4-0.7-0.4-1.1c0-0.4,0.1-0.8,0.3-1c0.2-0.3,0.4-0.5,0.7-0.7s0.6-0.3,1-0.4
					c0.4-0.1,0.8-0.1,1.2-0.1c0.7,0,1.4,0.1,1.9,0.3c0.5,0.2,1,0.4,1.3,0.6l-0.5,1c-0.4-0.2-0.7-0.4-1.1-0.6
					c-0.4-0.2-0.9-0.3-1.5-0.3c-0.2,0-0.5,0-0.7,0.1c-0.2,0-0.4,0.1-0.6,0.2c-0.2,0.1-0.3,0.2-0.4,0.4c-0.1,0.2-0.2,0.3-0.2,0.6
					c0,0.3,0.1,0.5,0.4,0.6c0.3,0.1,0.6,0.3,1,0.4s0.8,0.2,1.3,0.3c0.5,0.1,0.9,0.2,1.3,0.4s0.7,0.4,1,0.7c0.3,0.3,0.4,0.7,0.4,1.2
					c0,0.7-0.3,1.3-0.9,1.8c-0.6,0.5-1.5,0.7-2.6,0.7c-0.4,0-0.7,0-1-0.1c-0.3-0.1-0.7-0.1-1-0.3c-0.3-0.1-0.6-0.2-0.8-0.4
					c-0.2-0.1-0.4-0.3-0.6-0.4l0.6-1c0.1,0.1,0.3,0.3,0.5,0.4c0.2,0.1,0.4,0.3,0.7,0.4s0.5,0.2,0.8,0.3c0.3,0.1,0.6,0.1,0.9,0.1
					c0.3,0,0.6,0,0.8-0.1c0.2,0,0.5-0.1,0.7-0.2s0.3-0.2,0.5-0.4C132.5,216.3,132.6,216.1,132.6,215.8z"/>
				<path class="st8" d="M146.5,210.6c0.5-0.3,1-0.5,1.6-0.6c0.6-0.1,1.1-0.2,1.7-0.2c0.5,0,1,0.1,1.3,0.3s0.6,0.4,0.8,0.7
					s0.3,0.6,0.4,0.9s0.1,0.7,0.1,1c0,0.4,0,0.8,0,1.3c0,0.5,0,0.9,0,1.4c0,0.5,0,1,0.1,1.5h1.1v1h-2.1l-0.1-1.2h-0.1
					c-0.1,0.1-0.2,0.2-0.3,0.4s-0.3,0.3-0.5,0.4c-0.2,0.1-0.5,0.3-0.8,0.4c-0.3,0.1-0.7,0.2-1.1,0.2c-0.8,0-1.4-0.2-1.9-0.6
					s-0.7-1-0.7-1.7c0-0.5,0.1-1,0.4-1.4c0.2-0.4,0.6-0.6,1-0.8c0.4-0.2,1-0.3,1.6-0.3c0.6,0,1.4,0,2.1,0.1c0.1-0.5,0.1-0.9,0-1.2
					c0-0.3-0.1-0.6-0.3-0.8c-0.1-0.2-0.3-0.3-0.6-0.4c-0.2-0.1-0.5-0.1-0.9-0.1c-0.5,0-0.9,0.1-1.4,0.2c-0.4,0.1-0.8,0.3-1.2,0.4
					L146.5,210.6z M148.9,217.1c0.3,0,0.6,0,0.8-0.1c0.3-0.1,0.5-0.2,0.7-0.4c0.2-0.1,0.4-0.3,0.5-0.5s0.2-0.3,0.3-0.5v-1.1
					c-0.6-0.1-1.1-0.1-1.5-0.1c-0.5,0-0.9,0.1-1.2,0.2c-0.3,0.1-0.6,0.3-0.8,0.5c-0.2,0.2-0.3,0.5-0.3,0.8c0,0.4,0.1,0.7,0.4,0.9
					C147.9,216.9,148.3,217.1,148.9,217.1z"/>
				<path class="st8" d="M154.9,210h1.9v-1.6l1.3-0.4v1.9h4.3v1.1h-4.3v3.8c0,0.8,0.2,1.4,0.6,1.7s0.9,0.6,1.6,0.6
					c0.5,0,0.9-0.1,1.3-0.3c0.4-0.2,0.7-0.4,1-0.6l0.4,0.9c-0.4,0.3-0.8,0.5-1.3,0.7c-0.5,0.2-1,0.3-1.6,0.3c-0.4,0-0.8-0.1-1.2-0.2
					c-0.4-0.1-0.7-0.3-1-0.6c-0.3-0.3-0.5-0.6-0.7-1c-0.2-0.4-0.3-0.9-0.3-1.4v-4h-1.9V210z"/>
				<path class="st8" d="M174.1,210h1.9v-1.6l1.3-0.4v1.9h4.3v1.1h-4.3v3.8c0,0.8,0.2,1.4,0.6,1.7s0.9,0.6,1.6,0.6
					c0.5,0,0.9-0.1,1.3-0.3c0.4-0.2,0.7-0.4,1-0.6l0.4,0.9c-0.4,0.3-0.8,0.5-1.3,0.7c-0.5,0.2-1,0.3-1.6,0.3c-0.4,0-0.8-0.1-1.2-0.2
					c-0.4-0.1-0.7-0.3-1-0.6c-0.3-0.3-0.5-0.6-0.7-1c-0.2-0.4-0.3-0.9-0.3-1.4v-4h-1.9V210z"/>
				<path class="st8" d="M183.3,206.8h2.5v4.2h0.1c0.3-0.4,0.7-0.7,1.2-0.9s1-0.3,1.6-0.3c0.5,0,1,0.1,1.3,0.2
					c0.4,0.1,0.7,0.3,0.9,0.6c0.2,0.3,0.4,0.6,0.5,1.1c0.1,0.5,0.2,1.1,0.2,1.8v4.6h-1.3v-4.4c0-0.5,0-0.9-0.1-1.2
					c-0.1-0.3-0.2-0.6-0.3-0.9c-0.2-0.2-0.4-0.4-0.6-0.5c-0.3-0.1-0.6-0.2-1-0.2c-0.3,0-0.6,0.1-0.8,0.2s-0.5,0.2-0.8,0.4
					s-0.4,0.4-0.6,0.6c-0.2,0.3-0.3,0.5-0.3,0.8v5.1h-1.2v-10.1h-1.3V206.8z"/>
				<path class="st8" d="M201.3,217c-0.2,0.2-0.4,0.3-0.7,0.5c-0.3,0.1-0.5,0.3-0.9,0.4c-0.3,0.1-0.6,0.2-1,0.2s-0.7,0.1-1,0.1
					c-0.6,0-1.2-0.1-1.7-0.3c-0.5-0.2-0.9-0.5-1.2-0.8c-0.3-0.4-0.6-0.8-0.8-1.3c-0.2-0.5-0.3-1.1-0.3-1.7c0-0.7,0.1-1.3,0.3-1.8
					c0.2-0.5,0.5-1,0.8-1.3c0.4-0.4,0.8-0.6,1.3-0.8s1.1-0.3,1.7-0.3c0.4,0,0.9,0.1,1.3,0.2s0.8,0.3,1.2,0.7
					c0.3,0.3,0.6,0.8,0.8,1.3c0.2,0.6,0.2,1.3,0.2,2.2h-6.2c0,1,0.3,1.7,0.8,2.2c0.5,0.5,1.2,0.7,2.1,0.7c0.3,0,0.6,0,0.9-0.1
					c0.3-0.1,0.6-0.2,0.8-0.2c0.3-0.1,0.5-0.2,0.7-0.3c0.2-0.1,0.3-0.2,0.5-0.3L201.3,217z M197.9,210.9c-0.4,0-0.7,0-1,0.1
					c-0.3,0.1-0.6,0.2-0.8,0.4c-0.2,0.2-0.4,0.4-0.6,0.7c-0.2,0.3-0.3,0.6-0.3,1h5c-0.1-0.7-0.3-1.2-0.7-1.6
					S198.5,210.9,197.9,210.9z"/>
				<path class="st8" d="M213.7,206.8h6.6v1.2H215v3.7h4.8v1.2H215v4h5.3v1.2h-6.7V206.8z"/>
				<path class="st8" d="M227.2,206.8h2.6v8.5c0,0.1,0,0.2,0,0.4s0,0.3,0,0.5s0,0.3,0.1,0.5c0,0.2,0,0.3,0.1,0.4h1.1v1h-2.1
					l-0.2-1.2h-0.1c-0.2,0.4-0.6,0.7-1,1c-0.5,0.3-1,0.4-1.6,0.4c-1.2,0-2.1-0.3-2.7-1c-0.6-0.7-0.9-1.7-0.9-3.2
					c0-0.7,0.1-1.3,0.3-1.8c0.2-0.5,0.5-0.9,0.8-1.3c0.4-0.3,0.8-0.6,1.3-0.8c0.5-0.2,1.1-0.3,1.7-0.3c0.2,0,0.4,0,0.6,0
					c0.2,0,0.3,0,0.5,0c0.1,0,0.3,0.1,0.4,0.1c0.1,0,0.3,0.1,0.4,0.1v-2.3h-1.3V206.8z M226.2,217.1c0.6,0,1.2-0.2,1.5-0.5
					s0.6-0.8,0.8-1.5v-3.7c-0.2-0.2-0.5-0.3-0.8-0.4c-0.3-0.1-0.7-0.1-1.2-0.1c-0.9,0-1.5,0.2-2,0.7c-0.5,0.5-0.7,1.3-0.7,2.3
					c0,0.4,0,0.8,0.1,1.2c0.1,0.4,0.2,0.7,0.4,1c0.2,0.3,0.4,0.5,0.7,0.7C225.4,217,225.8,217.1,226.2,217.1z"/>
				<path class="st8" d="M239.6,218.4c0,0.5-0.1,0.9-0.3,1.3c-0.2,0.4-0.5,0.7-0.8,0.9c-0.3,0.2-0.7,0.4-1.2,0.6
					c-0.4,0.1-0.9,0.2-1.5,0.2c-0.6,0-1.2-0.1-1.6-0.2s-0.9-0.3-1.2-0.5l0.6-1.1c0.1,0.1,0.2,0.2,0.4,0.2c0.2,0.1,0.3,0.2,0.5,0.2
					s0.4,0.1,0.6,0.2c0.2,0,0.5,0.1,0.7,0.1c0.5,0,0.9,0,1.2-0.1c0.3-0.1,0.6-0.2,0.8-0.4c0.2-0.2,0.3-0.4,0.4-0.7s0.1-0.6,0.1-1.1
					v-0.9h-0.1c-0.2,0.4-0.6,0.6-0.9,0.8c-0.4,0.2-0.9,0.3-1.5,0.3c-1.2,0-2.1-0.3-2.7-1c-0.6-0.7-0.9-1.7-0.9-3.2
					c0-1.4,0.4-2.4,1.1-3.1c0.7-0.7,1.8-1,3.2-1c0.7,0,1.2,0,1.7,0.1c0.5,0.1,0.9,0.2,1.3,0.3V218.4z M236,217.1
					c0.6,0,1.2-0.2,1.5-0.5c0.4-0.3,0.6-0.9,0.8-1.5v-3.8c-0.5-0.2-1.1-0.3-2-0.3c-0.8,0-1.5,0.2-2,0.8c-0.5,0.5-0.7,1.3-0.7,2.3
					c0,0.5,0,0.9,0.1,1.3c0.1,0.4,0.2,0.7,0.4,1s0.4,0.5,0.7,0.6C235.2,217,235.6,217.1,236,217.1z"/>
				<path class="st8" d="M249.3,217c-0.2,0.2-0.4,0.3-0.7,0.5c-0.3,0.1-0.5,0.3-0.9,0.4c-0.3,0.1-0.6,0.2-1,0.2s-0.7,0.1-1,0.1
					c-0.6,0-1.2-0.1-1.7-0.3c-0.5-0.2-0.9-0.5-1.2-0.8c-0.3-0.4-0.6-0.8-0.8-1.3c-0.2-0.5-0.3-1.1-0.3-1.7c0-0.7,0.1-1.3,0.3-1.8
					c0.2-0.5,0.5-1,0.8-1.3c0.4-0.4,0.8-0.6,1.3-0.8s1.1-0.3,1.7-0.3c0.4,0,0.9,0.1,1.3,0.2s0.8,0.3,1.2,0.7
					c0.3,0.3,0.6,0.8,0.8,1.3c0.2,0.6,0.2,1.3,0.2,2.2h-6.2c0,1,0.3,1.7,0.8,2.2c0.5,0.5,1.2,0.7,2.1,0.7c0.3,0,0.6,0,0.9-0.1
					c0.3-0.1,0.6-0.2,0.8-0.2c0.3-0.1,0.5-0.2,0.7-0.3c0.2-0.1,0.3-0.2,0.5-0.3L249.3,217z M245.9,210.9c-0.4,0-0.7,0-1,0.1
					c-0.3,0.1-0.6,0.2-0.8,0.4c-0.2,0.2-0.4,0.4-0.6,0.7c-0.2,0.3-0.3,0.6-0.3,1h5c-0.1-0.7-0.3-1.2-0.7-1.6
					S246.5,210.9,245.9,210.9z"/>
			</g>
			<g class="st7">
				<path class="st2" d="M767.8,203.4c0-1.9,0.3-3.3,1-4.3s1.7-1.5,3-1.5c0.7,0,1.4,0.1,1.9,0.4c0.5,0.3,0.9,0.7,1.3,1.2
					c0.3,0.5,0.5,1.1,0.7,1.8c0.1,0.7,0.2,1.5,0.2,2.4c0,1.9-0.3,3.3-1,4.3c-0.7,1-1.7,1.5-3.1,1.5c-0.7,0-1.4-0.1-1.9-0.4
					c-0.5-0.3-0.9-0.7-1.2-1.2c-0.3-0.5-0.5-1.1-0.7-1.8C767.8,205.1,767.8,204.3,767.8,203.4z M769.2,203.4c0,0.6,0,1.2,0.1,1.8
					s0.2,1,0.4,1.5c0.2,0.4,0.5,0.8,0.8,1c0.3,0.3,0.8,0.4,1.3,0.4c0.9,0,1.6-0.4,2-1.1c0.4-0.7,0.6-1.9,0.6-3.5
					c0-0.6,0-1.2-0.1-1.8c-0.1-0.6-0.2-1.1-0.4-1.5c-0.2-0.4-0.5-0.8-0.8-1c-0.3-0.2-0.8-0.4-1.3-0.4c-0.9,0-1.6,0.4-2,1.1
					C769.4,200.7,769.2,201.8,769.2,203.4z"/>
				<path class="st2" d="M783.6,202.2c-0.2-0.1-0.5-0.2-0.8-0.2c-0.3-0.1-0.6-0.1-0.8-0.1c-1,0-1.8,0.2-2.3,0.7
					c-0.5,0.5-0.8,1.3-0.8,2.3c0,0.5,0.1,0.9,0.2,1.3s0.4,0.7,0.6,0.9s0.6,0.5,1,0.6c0.4,0.1,0.8,0.2,1.3,0.2c0.5,0,1-0.1,1.5-0.3
					c0.5-0.2,0.9-0.4,1.2-0.7l0.6,0.9c-0.2,0.1-0.3,0.3-0.6,0.4c-0.2,0.1-0.5,0.3-0.8,0.4c-0.3,0.1-0.6,0.2-1,0.3
					c-0.4,0.1-0.7,0.1-1.2,0.1c-0.7,0-1.3-0.1-1.8-0.3c-0.5-0.2-1-0.5-1.3-0.8c-0.4-0.4-0.6-0.8-0.8-1.3c-0.2-0.5-0.3-1.1-0.3-1.7
					c0-0.7,0.1-1.3,0.3-1.8c0.2-0.5,0.5-1,0.8-1.3c0.4-0.4,0.8-0.6,1.3-0.8c0.5-0.2,1.1-0.3,1.7-0.3c0.8,0,1.4,0.1,1.9,0.2
					c0.5,0.1,0.9,0.3,1.3,0.5l0,0v2.2h-1.2V202.2z"/>
				<path class="st2" d="M786.6,197.8h2.6v6.6h0.9l3.2-3.4h1.5l-3.5,3.8l2.9,3.1h1v1.1h-1.6l-3.4-3.6h-0.9v3.6h-1.2v-10.1h-1.4
					V197.8z"/>
				<path class="st2" d="M797.5,201.6c0.5-0.3,1-0.5,1.6-0.6s1.1-0.2,1.7-0.2c0.5,0,1,0.1,1.3,0.3c0.3,0.2,0.6,0.4,0.8,0.7
					s0.3,0.6,0.4,0.9c0.1,0.3,0.1,0.7,0.1,1c0,0.4,0,0.8,0,1.3c0,0.5,0,0.9,0,1.4c0,0.5,0,1,0.1,1.5h1.1v1h-2.1l-0.1-1.2h-0.1
					c-0.1,0.1-0.2,0.2-0.3,0.4s-0.3,0.3-0.5,0.4c-0.2,0.1-0.5,0.3-0.8,0.4c-0.3,0.1-0.7,0.2-1.1,0.2c-0.8,0-1.4-0.2-1.9-0.6
					c-0.5-0.4-0.7-1-0.7-1.7c0-0.5,0.1-1,0.4-1.4c0.2-0.4,0.6-0.6,1-0.8c0.4-0.2,1-0.3,1.6-0.3s1.4,0,2.1,0.1c0.1-0.5,0.1-0.9,0-1.2
					s-0.1-0.6-0.3-0.8c-0.1-0.2-0.3-0.3-0.6-0.4c-0.2-0.1-0.5-0.1-0.9-0.1c-0.5,0-0.9,0.1-1.4,0.2c-0.4,0.1-0.8,0.3-1.2,0.4
					L797.5,201.6z M799.9,208.1c0.3,0,0.6,0,0.8-0.1c0.3-0.1,0.5-0.2,0.7-0.4c0.2-0.1,0.4-0.3,0.5-0.5s0.2-0.3,0.3-0.5v-1.1
					c-0.6-0.1-1.1-0.1-1.5-0.1s-0.9,0.1-1.2,0.2c-0.3,0.1-0.6,0.3-0.8,0.5c-0.2,0.2-0.3,0.5-0.3,0.8c0,0.4,0.1,0.7,0.4,0.9
					C798.9,207.9,799.3,208.1,799.9,208.1z"/>
				<path class="st2" d="M809.6,209v-5.3c0-0.2,0-0.4,0-0.6s-0.1-0.4-0.1-0.6c-0.1-0.2-0.1-0.3-0.3-0.4c-0.1-0.1-0.3-0.1-0.4-0.1
					c-0.4,0-0.7,0.1-0.9,0.4c-0.3,0.3-0.4,0.7-0.6,1.1v5.5h-1.2v-8h0.8l0.2,1h0.1c0.1-0.2,0.2-0.3,0.3-0.5c0.1-0.1,0.2-0.3,0.4-0.4
					c0.1-0.1,0.3-0.2,0.5-0.2c0.2-0.1,0.4-0.1,0.7-0.1c0.2,0,0.3,0,0.5,0.1c0.2,0,0.3,0.1,0.5,0.2c0.1,0.1,0.3,0.2,0.4,0.4
					c0.1,0.2,0.2,0.4,0.2,0.6c0.2-0.4,0.5-0.7,0.8-1s0.7-0.4,1.3-0.4c0.4,0,0.6,0.1,0.9,0.2c0.2,0.1,0.4,0.3,0.5,0.5
					c0.1,0.2,0.2,0.5,0.3,0.8c0,0.3,0.1,0.6,0.1,1v5.7h-1.2v-5.4c0-0.2,0-0.4,0-0.6c0-0.2-0.1-0.4-0.1-0.5c-0.1-0.1-0.1-0.3-0.2-0.4
					c-0.1-0.1-0.2-0.1-0.4-0.1c-0.4,0-0.7,0.1-0.9,0.4c-0.3,0.3-0.4,0.7-0.6,1.3v5.3H809.6z"/>
				<path class="st2" d="M831.9,199c-0.2-0.1-0.4-0.1-0.6-0.2c-0.2,0-0.5-0.1-0.8-0.1c-0.4,0-0.9,0.1-1.3,0.2
					c-0.4,0.2-0.8,0.4-1.1,0.8c-0.3,0.4-0.6,0.8-0.8,1.4c-0.2,0.6-0.3,1.3-0.3,2.2c0,0.8,0.1,1.4,0.3,2s0.4,1.1,0.7,1.4
					c0.3,0.4,0.7,0.7,1.1,0.9c0.4,0.2,0.9,0.3,1.5,0.3c0.3,0,0.5,0,0.8-0.1c0.2,0,0.5-0.1,0.7-0.2v-1.6h1.2v2.2l0,0
					c-0.3,0.2-0.7,0.5-1.2,0.6c-0.5,0.2-1.1,0.2-1.8,0.2c-0.7,0-1.3-0.1-1.9-0.3c-0.6-0.2-1.1-0.6-1.5-1c-0.4-0.5-0.7-1.1-1-1.8
					c-0.2-0.7-0.3-1.6-0.3-2.6c0-1,0.1-1.9,0.4-2.7s0.6-1.3,1-1.8s0.9-0.8,1.5-1c0.6-0.2,1.2-0.3,1.9-0.3c0.4,0,0.7,0,0.9,0
					c0.3,0,0.5,0.1,0.7,0.1c0.2,0,0.4,0.1,0.5,0.2c0.2,0.1,0.3,0.2,0.5,0.3h0v2.5h-1.2V199z"/>
				<path class="st2" d="M836.1,197.8h2.7v8.5c0,0.7,0.1,1.1,0.3,1.4s0.5,0.4,1,0.4c0.3,0,0.6-0.1,0.9-0.2c0.3-0.1,0.6-0.3,0.9-0.5
					l0.6,0.9c-0.2,0.1-0.4,0.3-0.6,0.4s-0.4,0.2-0.6,0.3c-0.2,0.1-0.4,0.1-0.6,0.2c-0.2,0-0.4,0.1-0.6,0.1c-0.4,0-0.7-0.1-1.1-0.2
					c-0.3-0.1-0.6-0.3-0.8-0.5c-0.2-0.2-0.4-0.5-0.5-0.9s-0.2-0.8-0.2-1.4v-7.4h-1.4V197.8z"/>
				<path class="st2" d="M844.7,205c0-1.3,0.3-2.3,1-3.1c0.7-0.8,1.6-1.1,2.9-1.1c0.7,0,1.3,0.1,1.7,0.3c0.5,0.2,0.9,0.5,1.2,0.9
					c0.3,0.4,0.6,0.8,0.7,1.3c0.2,0.5,0.2,1.1,0.2,1.6c0,0.6-0.1,1.2-0.3,1.7c-0.2,0.5-0.4,1-0.8,1.3c-0.3,0.4-0.7,0.6-1.2,0.8
					c-0.5,0.2-1,0.3-1.7,0.3c-0.7,0-1.2-0.1-1.7-0.3c-0.5-0.2-0.9-0.5-1.2-0.9c-0.3-0.4-0.6-0.8-0.7-1.3
					C844.8,206.1,844.7,205.6,844.7,205z M846,205c0,0.4,0,0.7,0.1,1.1c0.1,0.4,0.2,0.7,0.4,1c0.2,0.3,0.5,0.5,0.8,0.7
					c0.3,0.2,0.7,0.3,1.2,0.3c0.9,0,1.5-0.3,1.9-0.8s0.6-1.3,0.6-2.3c0-0.4,0-0.8-0.1-1.1c-0.1-0.4-0.2-0.7-0.4-1s-0.5-0.5-0.8-0.7
					s-0.7-0.3-1.2-0.3c-0.9,0-1.5,0.3-1.9,0.8S846,204,846,205z"/>
				<path class="st2" d="M859.2,201h2.3v5.5c0,0.5,0,1,0.1,1.5h1.1v1h-2.1l0-1.4h-0.1c-0.3,0.5-0.6,0.8-1.1,1.1
					c-0.5,0.3-1,0.4-1.7,0.4c-0.5,0-0.9-0.1-1.3-0.2c-0.3-0.1-0.6-0.3-0.9-0.6s-0.4-0.6-0.5-1.1c-0.1-0.5-0.2-1-0.2-1.7v-3.5h-1.1
					V201h2.3v4.3c0,0.4,0,0.8,0.1,1.2s0.1,0.6,0.2,0.9c0.1,0.2,0.3,0.4,0.5,0.5c0.2,0.1,0.5,0.2,0.9,0.2c0.5,0,1-0.2,1.4-0.5
					c0.4-0.4,0.7-0.8,0.9-1.4v-4.1h-1V201z"/>
				<path class="st2" d="M868.6,197.8h2.6v8.5c0,0.1,0,0.2,0,0.4s0,0.3,0,0.5s0,0.3,0.1,0.5c0,0.2,0,0.3,0.1,0.4h1.1v1h-2.1
					l-0.2-1.2h-0.1c-0.2,0.4-0.6,0.7-1,1c-0.5,0.3-1,0.4-1.6,0.4c-1.2,0-2.1-0.3-2.7-1c-0.6-0.7-0.9-1.7-0.9-3.2
					c0-0.7,0.1-1.3,0.3-1.8c0.2-0.5,0.5-0.9,0.8-1.3c0.4-0.3,0.8-0.6,1.3-0.8c0.5-0.2,1.1-0.3,1.7-0.3c0.2,0,0.4,0,0.6,0
					c0.2,0,0.3,0,0.5,0c0.1,0,0.3,0.1,0.4,0.1c0.1,0,0.3,0.1,0.4,0.1v-2.3h-1.3V197.8z M867.6,208.1c0.6,0,1.2-0.2,1.5-0.5
					c0.4-0.3,0.6-0.8,0.8-1.5v-3.7c-0.2-0.2-0.5-0.3-0.8-0.4c-0.3-0.1-0.7-0.1-1.2-0.1c-0.8,0-1.5,0.2-2,0.7s-0.7,1.3-0.7,2.3
					c0,0.4,0,0.8,0.1,1.2s0.2,0.7,0.4,1c0.2,0.3,0.4,0.5,0.7,0.7S867.2,208.1,867.6,208.1z"/>
				<path class="st2" d="M884.6,207.4c0.3,0.2,0.7,0.3,1.1,0.4c0.4,0.1,0.8,0.2,1.2,0.2c0.4,0,0.7,0,1-0.1c0.3-0.1,0.6-0.2,0.8-0.3
					c0.2-0.2,0.4-0.3,0.5-0.6c0.1-0.2,0.2-0.5,0.2-0.8c0-0.4-0.1-0.8-0.4-1.1s-0.7-0.5-1.1-0.7c-0.4-0.2-0.9-0.4-1.4-0.6
					c-0.5-0.2-1-0.4-1.4-0.7c-0.4-0.3-0.8-0.6-1.1-1c-0.3-0.4-0.4-0.9-0.4-1.5c0-0.4,0.1-0.8,0.3-1.2c0.2-0.4,0.4-0.7,0.7-0.9
					c0.3-0.2,0.7-0.4,1.2-0.6c0.5-0.1,1-0.2,1.5-0.2c0.6,0,1.2,0,1.7,0.1c0.5,0.1,0.9,0.2,1.2,0.4l0,0v0h0l0,0v2.6H889V199
					c-0.3-0.1-0.6-0.1-0.9-0.2c-0.3,0-0.7-0.1-1-0.1c-0.4,0-0.7,0-1,0.1c-0.3,0.1-0.5,0.2-0.7,0.3c-0.2,0.1-0.3,0.3-0.5,0.5
					c-0.1,0.2-0.2,0.4-0.2,0.6c0,0.4,0.1,0.8,0.4,1c0.3,0.3,0.7,0.5,1.1,0.7s0.9,0.4,1.4,0.6c0.5,0.2,1,0.5,1.4,0.7
					c0.4,0.3,0.8,0.6,1.1,1s0.4,0.9,0.4,1.5c0,0.5-0.1,0.9-0.3,1.3s-0.4,0.7-0.8,1c-0.3,0.3-0.7,0.5-1.2,0.6c-0.5,0.1-1,0.2-1.6,0.2
					c-0.4,0-0.8,0-1.2-0.1c-0.4-0.1-0.7-0.1-1-0.2c-0.3-0.1-0.6-0.2-0.8-0.3c-0.2-0.1-0.4-0.2-0.6-0.3l0,0v-2.6h1.2V207.4z"/>
				<path class="st2" d="M893.1,197.8c0.4-0.1,0.8-0.1,1.3-0.1c0.4,0,0.8,0,1.1,0c1,0,1.8,0.1,2.4,0.4c0.7,0.3,1.2,0.7,1.6,1.2
					c0.4,0.5,0.7,1.1,0.9,1.8c0.2,0.7,0.3,1.5,0.3,2.3c0,0.8-0.1,1.5-0.2,2.2c-0.2,0.7-0.4,1.3-0.8,1.9c-0.4,0.5-0.9,1-1.6,1.3
					c-0.7,0.3-1.5,0.5-2.5,0.5c-0.1,0-0.3,0-0.5,0c-0.2,0-0.5,0-0.7,0c-0.2,0-0.5,0-0.7,0c-0.2,0-0.4,0-0.5,0V197.8z M895.5,198.9
					c-0.1,0-0.3,0-0.6,0s-0.4,0-0.6,0.1v9c0.1,0,0.1,0,0.2,0c0.1,0,0.2,0,0.3,0c0.1,0,0.2,0,0.3,0c0.1,0,0.2,0,0.2,0
					c0.8,0,1.4-0.1,1.9-0.4c0.5-0.3,0.9-0.6,1.1-1c0.3-0.4,0.4-0.9,0.5-1.5c0.1-0.6,0.1-1.1,0.1-1.7c0-0.5,0-1-0.1-1.6
					s-0.3-1-0.5-1.4c-0.3-0.4-0.6-0.8-1.1-1C897,199,896.3,198.9,895.5,198.9z"/>
				<path class="st2" d="M905.3,203.8h-1.2v5.2h-1.3v-11.2h1.3v5h1.2l3.6-5h1.5l-4,5.3l4.4,5.9h-1.7L905.3,203.8z"/>
			</g>
			<path id="Rectangle_1_" class="st9" d="M368.5,140.5h751c5.5,0,10,4.5,10,10v111c0,5.5-4.5,10-10,10h-751c-5.5,0-10-4.5-10-10
				v-111C358.5,145,363,140.5,368.5,140.5z"/>
			<path id="Rectangle-Copy-14" class="st3" d="M387,162v88c0,5.5-4.5,10-10,10h-28c-5.5,0-10-4.5-10-10v-88c0-5.5,4.5-10,10-10h28
				C382.5,152,387,156.5,387,162z"/>
			<g class="st7">
				<path class="st2" d="M355.4,221.2c-1.9,0-3.3-0.3-4.3-1s-1.5-1.7-1.5-3c0-0.7,0.1-1.4,0.4-1.9c0.3-0.5,0.7-0.9,1.2-1.3
					c0.5-0.3,1.1-0.5,1.8-0.7c0.7-0.1,1.5-0.2,2.4-0.2c1.9,0,3.3,0.3,4.3,1c1,0.7,1.5,1.7,1.5,3.1c0,0.7-0.1,1.4-0.4,1.9
					c-0.3,0.5-0.7,0.9-1.2,1.2c-0.5,0.3-1.1,0.5-1.8,0.7C357.1,221.2,356.3,221.2,355.4,221.2z M355.4,219.8c0.6,0,1.2,0,1.8-0.1
					s1-0.2,1.5-0.4c0.4-0.2,0.8-0.5,1-0.8c0.3-0.3,0.4-0.8,0.4-1.3c0-0.9-0.4-1.6-1.1-2c-0.7-0.4-1.9-0.6-3.5-0.6
					c-0.6,0-1.2,0-1.8,0.1c-0.6,0.1-1.1,0.2-1.5,0.4c-0.4,0.2-0.8,0.5-1,0.8c-0.2,0.3-0.4,0.8-0.4,1.3c0,0.9,0.4,1.6,1.1,2
					C352.7,219.6,353.8,219.8,355.4,219.8z"/>
				<path class="st2" d="M354.2,205.4c-0.1,0.2-0.2,0.5-0.2,0.8c-0.1,0.3-0.1,0.6-0.1,0.8c0,1,0.2,1.8,0.7,2.3
					c0.5,0.5,1.3,0.8,2.3,0.8c0.5,0,0.9-0.1,1.3-0.2s0.7-0.4,0.9-0.6s0.5-0.6,0.6-1c0.1-0.4,0.2-0.8,0.2-1.3c0-0.5-0.1-1-0.3-1.5
					c-0.2-0.5-0.4-0.9-0.7-1.2l0.9-0.6c0.1,0.2,0.3,0.3,0.4,0.6c0.1,0.2,0.3,0.5,0.4,0.8c0.1,0.3,0.2,0.6,0.3,1
					c0.1,0.4,0.1,0.7,0.1,1.2c0,0.7-0.1,1.3-0.3,1.8c-0.2,0.5-0.5,1-0.8,1.3c-0.4,0.4-0.8,0.6-1.3,0.8c-0.5,0.2-1.1,0.3-1.7,0.3
					c-0.7,0-1.3-0.1-1.8-0.3c-0.5-0.2-1-0.5-1.3-0.8c-0.4-0.4-0.6-0.8-0.8-1.3c-0.2-0.5-0.3-1.1-0.3-1.7c0-0.8,0.1-1.4,0.2-1.9
					c0.1-0.5,0.3-0.9,0.5-1.3l0,0h2.2v1.2H354.2z"/>
				<path class="st2" d="M349.8,202.4v-2.6h6.6v-0.9l-3.4-3.2v-1.5l3.8,3.5l3.1-2.9v-1h1.1v1.6l-3.6,3.4v0.9h3.6v1.2h-10.1v1.4
					H349.8z"/>
				<path class="st2" d="M353.6,191.5c-0.3-0.5-0.5-1-0.6-1.6s-0.2-1.1-0.2-1.7c0-0.5,0.1-1,0.3-1.3c0.2-0.3,0.4-0.6,0.7-0.8
					s0.6-0.3,0.9-0.4c0.3-0.1,0.7-0.1,1-0.1c0.4,0,0.8,0,1.3,0c0.5,0,0.9,0,1.4,0c0.5,0,1,0,1.5-0.1v-1.1h1v2.1l-1.2,0.1v0.1
					c0.1,0.1,0.2,0.2,0.4,0.3s0.3,0.3,0.4,0.5c0.1,0.2,0.3,0.5,0.4,0.8c0.1,0.3,0.2,0.7,0.2,1.1c0,0.8-0.2,1.4-0.6,1.9
					c-0.4,0.5-1,0.7-1.7,0.7c-0.5,0-1-0.1-1.4-0.4c-0.4-0.2-0.6-0.6-0.8-1c-0.2-0.4-0.3-1-0.3-1.6s0-1.4,0.1-2.1
					c-0.5-0.1-0.9-0.1-1.2,0s-0.6,0.1-0.8,0.3c-0.2,0.1-0.3,0.3-0.4,0.6c-0.1,0.2-0.1,0.5-0.1,0.9c0,0.5,0.1,0.9,0.2,1.4
					c0.1,0.4,0.3,0.8,0.4,1.2L353.6,191.5z M360.1,189.1c0-0.3,0-0.6-0.1-0.8c-0.1-0.3-0.2-0.5-0.4-0.7c-0.1-0.2-0.3-0.4-0.5-0.5
					s-0.3-0.2-0.5-0.3h-1.1c-0.1,0.6-0.1,1.1-0.1,1.5s0.1,0.9,0.2,1.2c0.1,0.3,0.3,0.6,0.5,0.8c0.2,0.2,0.5,0.3,0.8,0.3
					c0.4,0,0.7-0.1,0.9-0.4C359.9,190.1,360.1,189.7,360.1,189.1z"/>
				<path class="st2" d="M361,179.4h-5.3c-0.2,0-0.4,0-0.6,0s-0.4,0.1-0.6,0.1c-0.2,0.1-0.3,0.1-0.4,0.3c-0.1,0.1-0.1,0.3-0.1,0.4
					c0,0.4,0.1,0.7,0.4,0.9c0.3,0.3,0.7,0.4,1.1,0.6h5.5v1.2h-8v-0.8l1-0.2v-0.1c-0.2-0.1-0.3-0.2-0.5-0.3c-0.1-0.1-0.3-0.2-0.4-0.4
					c-0.1-0.1-0.2-0.3-0.2-0.5c-0.1-0.2-0.1-0.4-0.1-0.7c0-0.2,0-0.3,0.1-0.5c0-0.2,0.1-0.3,0.2-0.5c0.1-0.1,0.2-0.3,0.4-0.4
					c0.2-0.1,0.4-0.2,0.6-0.2c-0.4-0.2-0.7-0.5-1-0.8s-0.4-0.7-0.4-1.3c0-0.4,0.1-0.6,0.2-0.9c0.1-0.2,0.3-0.4,0.5-0.5
					c0.2-0.1,0.5-0.2,0.8-0.3c0.3,0,0.6-0.1,1-0.1h5.7v1.2h-5.4c-0.2,0-0.4,0-0.6,0c-0.2,0-0.4,0.1-0.5,0.1
					c-0.1,0.1-0.3,0.1-0.4,0.2c-0.1,0.1-0.1,0.2-0.1,0.4c0,0.4,0.1,0.7,0.4,0.9c0.3,0.3,0.7,0.4,1.3,0.6h5.3V179.4z"/>
			</g>
			<g class="st7">
				<path class="st2" d="M365.9,220.4c-0.1-0.4-0.1-0.9-0.2-1.4c0-0.5-0.1-1-0.1-1.4c0-0.5,0.1-1,0.2-1.4s0.3-0.8,0.5-1.2
					s0.6-0.6,1-0.8s0.9-0.3,1.4-0.3c0.4,0,0.8,0.1,1.2,0.2s0.6,0.3,0.9,0.5c0.2,0.2,0.4,0.4,0.6,0.6c0.1,0.2,0.3,0.4,0.3,0.6l5.3-3
					v1.6l-4.9,2.6v2h4.9v1.3H365.9z M366.8,217.5c0,0.1,0,0.3,0,0.4s0,0.3,0,0.4c0,0.1,0,0.3,0,0.4c0,0.1,0,0.2,0,0.3h4.1v-1.2
					c0-0.7-0.2-1.3-0.5-1.8c-0.4-0.5-0.9-0.7-1.7-0.7c-0.6,0-1,0.2-1.4,0.6C367,216.3,366.8,216.8,366.8,217.5z"/>
				<path class="st2" d="M373,211.5c-1.3,0-2.3-0.3-3.1-1c-0.8-0.7-1.1-1.6-1.1-2.9c0-0.7,0.1-1.3,0.3-1.7c0.2-0.5,0.5-0.9,0.9-1.2
					c0.4-0.3,0.8-0.6,1.3-0.7c0.5-0.2,1.1-0.2,1.6-0.2c0.6,0,1.2,0.1,1.7,0.3c0.5,0.2,1,0.4,1.3,0.8c0.4,0.3,0.6,0.7,0.8,1.2
					c0.2,0.5,0.3,1,0.3,1.7c0,0.7-0.1,1.2-0.3,1.7c-0.2,0.5-0.5,0.9-0.9,1.2c-0.4,0.3-0.8,0.6-1.3,0.7
					C374.1,211.4,373.6,211.5,373,211.5z M373,210.2c0.4,0,0.7,0,1.1-0.1c0.4-0.1,0.7-0.2,1-0.4c0.3-0.2,0.5-0.5,0.7-0.8
					c0.2-0.3,0.3-0.7,0.3-1.2c0-0.9-0.3-1.5-0.8-1.9S374,205,373,205c-0.4,0-0.8,0-1.1,0.1c-0.4,0.1-0.7,0.2-1,0.4s-0.5,0.5-0.7,0.8
					s-0.3,0.7-0.3,1.2c0,0.9,0.3,1.5,0.8,1.9S372,210.2,373,210.2z"/>
				<path class="st2" d="M369,197v-2.3h5.5c0.5,0,1,0,1.5-0.1v-1.1h1v2.1l-1.4,0v0.1c0.5,0.3,0.8,0.6,1.1,1.1s0.4,1,0.4,1.7
					c0,0.5-0.1,0.9-0.2,1.3c-0.1,0.3-0.3,0.6-0.6,0.9c-0.3,0.2-0.6,0.4-1.1,0.5s-1,0.2-1.7,0.2h-3.5v1.1H369v-2.3h4.3
					c0.4,0,0.8,0,1.2-0.1s0.6-0.1,0.9-0.2c0.2-0.1,0.4-0.3,0.5-0.5c0.1-0.2,0.2-0.5,0.2-0.9c0-0.6-0.2-1-0.5-1.4s-0.8-0.7-1.4-0.9
					h-4.1v1H369z"/>
				<path class="st2" d="M369,192.7v-1.9h-1.6l-0.4-1.3h1.9v-4.3h1.1v4.3h3.8c0.8,0,1.4-0.2,1.7-0.6c0.4-0.4,0.6-0.9,0.6-1.6
					c0-0.5-0.1-0.9-0.3-1.3c-0.2-0.4-0.4-0.7-0.6-1l0.9-0.4c0.3,0.4,0.5,0.8,0.7,1.3c0.2,0.5,0.3,1,0.3,1.6c0,0.4-0.1,0.8-0.2,1.2
					c-0.1,0.4-0.3,0.7-0.6,1c-0.3,0.3-0.6,0.5-1,0.7c-0.4,0.2-0.9,0.3-1.4,0.3h-4v1.9H369z"/>
				<path class="st2" d="M376,175.1c0.2,0.2,0.3,0.4,0.5,0.7s0.3,0.5,0.4,0.9c0.1,0.3,0.2,0.6,0.2,1s0.1,0.7,0.1,1
					c0,0.6-0.1,1.2-0.3,1.7c-0.2,0.5-0.5,0.9-0.8,1.2c-0.4,0.3-0.8,0.6-1.3,0.8c-0.5,0.2-1.1,0.3-1.7,0.3c-0.7,0-1.3-0.1-1.8-0.3
					c-0.5-0.2-1-0.5-1.3-0.8c-0.4-0.4-0.6-0.8-0.8-1.3s-0.3-1.1-0.3-1.7c0-0.4,0.1-0.9,0.2-1.3s0.3-0.8,0.7-1.2
					c0.3-0.3,0.8-0.6,1.3-0.8c0.6-0.2,1.3-0.2,2.2-0.2v6.2c1,0,1.7-0.3,2.2-0.8s0.7-1.2,0.7-2.1c0-0.3,0-0.6-0.1-0.9
					c-0.1-0.3-0.2-0.6-0.2-0.8c-0.1-0.3-0.2-0.5-0.3-0.7s-0.2-0.3-0.3-0.5L376,175.1z M369.9,178.5c0,0.4,0,0.7,0.1,1
					c0.1,0.3,0.2,0.6,0.4,0.8c0.2,0.2,0.4,0.4,0.7,0.6s0.6,0.3,1,0.3v-5c-0.7,0.1-1.2,0.3-1.6,0.7S369.9,177.9,369.9,178.5z"/>
				<path class="st2" d="M377,172.9h-1.1v-2.2h-5.9v2.2H369v-3l1-0.3v-0.1c-0.3-0.4-0.6-0.8-0.8-1.2c-0.2-0.4-0.4-1-0.4-1.6
					c0-0.4,0.1-0.7,0.2-0.9s0.3-0.4,0.6-0.5s0.6-0.2,1-0.2c0.4,0,0.8-0.1,1.3-0.1l0,1.1c-0.7,0-1.2,0.1-1.5,0.2s-0.5,0.4-0.5,0.7
					c0,0.3,0,0.6,0.1,0.9c0.1,0.3,0.2,0.5,0.4,0.7c0.1,0.2,0.3,0.4,0.4,0.5c0.1,0.1,0.3,0.2,0.4,0.3h4.7v-3.1h1.1V172.9z"/>
			</g>
			<path id="Shape-Copy" class="st1" d="M356.9,230.8l-0.8-0.8c-1.4,1.4-2.1,3.2-2.1,5s0.7,3.6,2.1,5l0.8-0.8
				c-1.1-1.2-1.7-2.7-1.7-4.2S355.8,232,356.9,230.8 M357.7,231.7c-0.9,0.9-1.4,2.1-1.4,3.3s0.5,2.4,1.4,3.3l0.8-0.8
				c-0.7-0.7-1-1.6-1-2.5s0.3-1.8,1-2.5L357.7,231.7 M364,232v2h-4v2h4v10c0,1.1,0.9,2,2,2h4c1.1,0,2-0.9,2-2v-14c0-1.1-0.9-2-2-2
				h-4C364.9,230,364,230.9,364,232 M369,243v2h-2v-2H369 M369,239.5v2h-2v-2H369 M369,236v2h-2v-2H369z"/>
			<g id="Group_4_" transform="translate(1142.000000, 190.000000)">
				
					<g id="icon_x2F_fingerprint-copy_4_" transform="translate(16.000000, 16.000000) rotate(-270.000000) translate(-16.000000, -16.000000) ">
					<path id="Shape_5_" class="st1" d="M12,4L6.7,9.3h4v9.3h2.7V9.3h4 M21.3,22.7v-9.3h-2.7v9.3h-4L20,28l5.3-5.3H21.3z"/>
				</g>
			</g>
			<path id="Rectangle-Copy-14_1_" class="st3" d="M1234,162v88c0,5.5-4.5,10-10,10h-28c-5.5,0-10-4.5-10-10v-88c0-5.5,4.5-10,10-10
				h28C1229.5,152,1234,156.5,1234,162z"/>
			<g class="st7">
				<path class="st2" d="M1202.4,221.2c-1.9,0-3.3-0.3-4.3-1s-1.5-1.7-1.5-3c0-0.7,0.1-1.4,0.4-1.9c0.3-0.5,0.7-0.9,1.2-1.3
					c0.5-0.3,1.1-0.5,1.8-0.7c0.7-0.1,1.5-0.2,2.4-0.2c1.9,0,3.3,0.3,4.3,1c1,0.7,1.5,1.7,1.5,3.1c0,0.7-0.1,1.4-0.4,1.9
					c-0.3,0.5-0.7,0.9-1.2,1.2c-0.5,0.3-1.1,0.5-1.8,0.7C1204.1,221.2,1203.3,221.2,1202.4,221.2z M1202.4,219.8
					c0.6,0,1.2,0,1.8-0.1s1-0.2,1.5-0.4c0.4-0.2,0.8-0.5,1-0.8c0.3-0.3,0.4-0.8,0.4-1.3c0-0.9-0.4-1.6-1.1-2
					c-0.7-0.4-1.9-0.6-3.5-0.6c-0.6,0-1.2,0-1.8,0.1c-0.6,0.1-1.1,0.2-1.5,0.4c-0.4,0.2-0.8,0.5-1,0.8c-0.2,0.3-0.4,0.8-0.4,1.3
					c0,0.9,0.4,1.6,1.1,2C1199.7,219.6,1200.8,219.8,1202.4,219.8z"/>
				<path class="st2" d="M1201.2,205.4c-0.1,0.2-0.2,0.5-0.2,0.8c-0.1,0.3-0.1,0.6-0.1,0.8c0,1,0.2,1.8,0.7,2.3
					c0.5,0.5,1.3,0.8,2.3,0.8c0.5,0,0.9-0.1,1.3-0.2s0.7-0.4,0.9-0.6s0.5-0.6,0.6-1c0.1-0.4,0.2-0.8,0.2-1.3c0-0.5-0.1-1-0.3-1.5
					c-0.2-0.5-0.4-0.9-0.7-1.2l0.9-0.6c0.1,0.2,0.3,0.3,0.4,0.6c0.1,0.2,0.3,0.5,0.4,0.8c0.1,0.3,0.2,0.6,0.3,1
					c0.1,0.4,0.1,0.7,0.1,1.2c0,0.7-0.1,1.3-0.3,1.8c-0.2,0.5-0.5,1-0.8,1.3c-0.4,0.4-0.8,0.6-1.3,0.8c-0.5,0.2-1.1,0.3-1.7,0.3
					c-0.7,0-1.3-0.1-1.8-0.3c-0.5-0.2-1-0.5-1.3-0.8c-0.4-0.4-0.6-0.8-0.8-1.3c-0.2-0.5-0.3-1.1-0.3-1.7c0-0.8,0.1-1.4,0.2-1.9
					c0.1-0.5,0.3-0.9,0.5-1.3l0,0h2.2v1.2H1201.2z"/>
				<path class="st2" d="M1196.8,202.4v-2.6h6.6v-0.9l-3.4-3.2v-1.5l3.8,3.5l3.1-2.9v-1h1.1v1.6l-3.6,3.4v0.9h3.6v1.2h-10.1v1.4
					H1196.8z"/>
				<path class="st2" d="M1200.6,191.5c-0.3-0.5-0.5-1-0.6-1.6s-0.2-1.1-0.2-1.7c0-0.5,0.1-1,0.3-1.3c0.2-0.3,0.4-0.6,0.7-0.8
					s0.6-0.3,0.9-0.4c0.3-0.1,0.7-0.1,1-0.1c0.4,0,0.8,0,1.3,0c0.5,0,0.9,0,1.4,0c0.5,0,1,0,1.5-0.1v-1.1h1v2.1l-1.2,0.1v0.1
					c0.1,0.1,0.2,0.2,0.4,0.3s0.3,0.3,0.4,0.5c0.1,0.2,0.3,0.5,0.4,0.8c0.1,0.3,0.2,0.7,0.2,1.1c0,0.8-0.2,1.4-0.6,1.9
					c-0.4,0.5-1,0.7-1.7,0.7c-0.5,0-1-0.1-1.4-0.4c-0.4-0.2-0.6-0.6-0.8-1c-0.2-0.4-0.3-1-0.3-1.6s0-1.4,0.1-2.1
					c-0.5-0.1-0.9-0.1-1.2,0s-0.6,0.1-0.8,0.3c-0.2,0.1-0.3,0.3-0.4,0.6c-0.1,0.2-0.1,0.5-0.1,0.9c0,0.5,0.1,0.9,0.2,1.4
					c0.1,0.4,0.3,0.8,0.4,1.2L1200.6,191.5z M1207.1,189.1c0-0.3,0-0.6-0.1-0.8c-0.1-0.3-0.2-0.5-0.4-0.7c-0.1-0.2-0.3-0.4-0.5-0.5
					s-0.3-0.2-0.5-0.3h-1.1c-0.1,0.6-0.1,1.1-0.1,1.5s0.1,0.9,0.2,1.2c0.1,0.3,0.3,0.6,0.5,0.8c0.2,0.2,0.5,0.3,0.8,0.3
					c0.4,0,0.7-0.1,0.9-0.4C1206.9,190.1,1207.1,189.7,1207.1,189.1z"/>
				<path class="st2" d="M1208,179.4h-5.3c-0.2,0-0.4,0-0.6,0s-0.4,0.1-0.6,0.1c-0.2,0.1-0.3,0.1-0.4,0.3c-0.1,0.1-0.1,0.3-0.1,0.4
					c0,0.4,0.1,0.7,0.4,0.9c0.3,0.3,0.7,0.4,1.1,0.6h5.5v1.2h-8v-0.8l1-0.2v-0.1c-0.2-0.1-0.3-0.2-0.5-0.3c-0.1-0.1-0.3-0.2-0.4-0.4
					c-0.1-0.1-0.2-0.3-0.2-0.5c-0.1-0.2-0.1-0.4-0.1-0.7c0-0.2,0-0.3,0.1-0.5c0-0.2,0.1-0.3,0.2-0.5c0.1-0.1,0.2-0.3,0.4-0.4
					c0.2-0.1,0.4-0.2,0.6-0.2c-0.4-0.2-0.7-0.5-1-0.8s-0.4-0.7-0.4-1.3c0-0.4,0.1-0.6,0.2-0.9c0.1-0.2,0.3-0.4,0.5-0.5
					c0.2-0.1,0.5-0.2,0.8-0.3c0.3,0,0.6-0.1,1-0.1h5.7v1.2h-5.4c-0.2,0-0.4,0-0.6,0c-0.2,0-0.4,0.1-0.5,0.1
					c-0.1,0.1-0.3,0.1-0.4,0.2c-0.1,0.1-0.1,0.2-0.1,0.4c0,0.4,0.1,0.7,0.4,0.9c0.3,0.3,0.7,0.4,1.3,0.6h5.3V179.4z"/>
			</g>
			<g class="st7">
				<path class="st2" d="M1212.9,220.4c-0.1-0.4-0.1-0.9-0.2-1.4c0-0.5-0.1-1-0.1-1.4c0-0.5,0.1-1,0.2-1.4s0.3-0.8,0.5-1.2
					s0.6-0.6,1-0.8s0.9-0.3,1.4-0.3c0.4,0,0.8,0.1,1.2,0.2s0.6,0.3,0.9,0.5c0.2,0.2,0.4,0.4,0.6,0.6c0.1,0.2,0.3,0.4,0.3,0.6l5.3-3
					v1.6l-4.9,2.6v2h4.9v1.3H1212.9z M1213.8,217.5c0,0.1,0,0.3,0,0.4s0,0.3,0,0.4c0,0.1,0,0.3,0,0.4c0,0.1,0,0.2,0,0.3h4.1v-1.2
					c0-0.7-0.2-1.3-0.5-1.8c-0.4-0.5-0.9-0.7-1.7-0.7c-0.6,0-1,0.2-1.4,0.6C1214,216.3,1213.8,216.8,1213.8,217.5z"/>
				<path class="st2" d="M1220,211.5c-1.3,0-2.3-0.3-3.1-1c-0.8-0.7-1.1-1.6-1.1-2.9c0-0.7,0.1-1.3,0.3-1.7c0.2-0.5,0.5-0.9,0.9-1.2
					c0.4-0.3,0.8-0.6,1.3-0.7c0.5-0.2,1.1-0.2,1.6-0.2c0.6,0,1.2,0.1,1.7,0.3c0.5,0.2,1,0.4,1.3,0.8c0.4,0.3,0.6,0.7,0.8,1.2
					c0.2,0.5,0.3,1,0.3,1.7c0,0.7-0.1,1.2-0.3,1.7c-0.2,0.5-0.5,0.9-0.9,1.2c-0.4,0.3-0.8,0.6-1.3,0.7
					C1221.1,211.4,1220.6,211.5,1220,211.5z M1220,210.2c0.4,0,0.7,0,1.1-0.1c0.4-0.1,0.7-0.2,1-0.4c0.3-0.2,0.5-0.5,0.7-0.8
					c0.2-0.3,0.3-0.7,0.3-1.2c0-0.9-0.3-1.5-0.8-1.9s-1.3-0.6-2.3-0.6c-0.4,0-0.8,0-1.1,0.1c-0.4,0.1-0.7,0.2-1,0.4
					s-0.5,0.5-0.7,0.8s-0.3,0.7-0.3,1.2c0,0.9,0.3,1.5,0.8,1.9S1219,210.2,1220,210.2z"/>
				<path class="st2" d="M1216,197v-2.3h5.5c0.5,0,1,0,1.5-0.1v-1.1h1v2.1l-1.4,0v0.1c0.5,0.3,0.8,0.6,1.1,1.1s0.4,1,0.4,1.7
					c0,0.5-0.1,0.9-0.2,1.3c-0.1,0.3-0.3,0.6-0.6,0.9c-0.3,0.2-0.6,0.4-1.1,0.5s-1,0.2-1.7,0.2h-3.5v1.1h-1.1v-2.3h4.3
					c0.4,0,0.8,0,1.2-0.1s0.6-0.1,0.9-0.2c0.2-0.1,0.4-0.3,0.5-0.5c0.1-0.2,0.2-0.5,0.2-0.9c0-0.6-0.2-1-0.5-1.4s-0.8-0.7-1.4-0.9
					h-4.1v1H1216z"/>
				<path class="st2" d="M1216,192.7v-1.9h-1.6l-0.4-1.3h1.9v-4.3h1.1v4.3h3.8c0.8,0,1.4-0.2,1.7-0.6c0.4-0.4,0.6-0.9,0.6-1.6
					c0-0.5-0.1-0.9-0.3-1.3c-0.2-0.4-0.4-0.7-0.6-1l0.9-0.4c0.3,0.4,0.5,0.8,0.7,1.3c0.2,0.5,0.3,1,0.3,1.6c0,0.4-0.1,0.8-0.2,1.2
					c-0.1,0.4-0.3,0.7-0.6,1c-0.3,0.3-0.6,0.5-1,0.7c-0.4,0.2-0.9,0.3-1.4,0.3h-4v1.9H1216z"/>
				<path class="st2" d="M1223,175.1c0.2,0.2,0.3,0.4,0.5,0.7s0.3,0.5,0.4,0.9c0.1,0.3,0.2,0.6,0.2,1s0.1,0.7,0.1,1
					c0,0.6-0.1,1.2-0.3,1.7c-0.2,0.5-0.5,0.9-0.8,1.2c-0.4,0.3-0.8,0.6-1.3,0.8c-0.5,0.2-1.1,0.3-1.7,0.3c-0.7,0-1.3-0.1-1.8-0.3
					c-0.5-0.2-1-0.5-1.3-0.8c-0.4-0.4-0.6-0.8-0.8-1.3s-0.3-1.1-0.3-1.7c0-0.4,0.1-0.9,0.2-1.3s0.3-0.8,0.7-1.2
					c0.3-0.3,0.8-0.6,1.3-0.8c0.6-0.2,1.3-0.2,2.2-0.2v6.2c1,0,1.7-0.3,2.2-0.8s0.7-1.2,0.7-2.1c0-0.3,0-0.6-0.1-0.9
					c-0.1-0.3-0.2-0.6-0.2-0.8c-0.1-0.3-0.2-0.5-0.3-0.7s-0.2-0.3-0.3-0.5L1223,175.1z M1216.9,178.5c0,0.4,0,0.7,0.1,1
					c0.1,0.3,0.2,0.6,0.4,0.8c0.2,0.2,0.4,0.4,0.7,0.6s0.6,0.3,1,0.3v-5c-0.7,0.1-1.2,0.3-1.6,0.7S1216.9,177.9,1216.9,178.5z"/>
				<path class="st2" d="M1224,172.9h-1.1v-2.2h-5.9v2.2h-1.1v-3l1-0.3v-0.1c-0.3-0.4-0.6-0.8-0.8-1.2c-0.2-0.4-0.4-1-0.4-1.6
					c0-0.4,0.1-0.7,0.2-0.9s0.3-0.4,0.6-0.5s0.6-0.2,1-0.2c0.4,0,0.8-0.1,1.3-0.1l0,1.1c-0.7,0-1.2,0.1-1.5,0.2s-0.5,0.4-0.5,0.7
					c0,0.3,0,0.6,0.1,0.9c0.1,0.3,0.2,0.5,0.4,0.7c0.1,0.2,0.3,0.4,0.4,0.5c0.1,0.1,0.3,0.2,0.4,0.3h4.7v-3.1h1.1V172.9z"/>
			</g>
			<path id="Path_4_" class="st1" d="M1202.9,230.8l-0.8-0.8c-1.4,1.4-2.1,3.2-2.1,5c0,1.8,0.7,3.6,2.1,5l0.8-0.8
				c-1.1-1.2-1.7-2.7-1.7-4.2S1201.8,232,1202.9,230.8"/>
			<path id="Path_5_" class="st1" d="M1203.7,231.7c-0.9,0.9-1.4,2.1-1.4,3.3c0,1.2,0.5,2.4,1.4,3.3l0.8-0.8c-0.7-0.7-1-1.6-1-2.5
				s0.3-1.8,1-2.5L1203.7,231.7"/>
			<path id="Path_6_" class="st1" d="M1210,232v2h-4v2h4v10c0,1.1,0.9,2,2,2h4c1.1,0,2-0.9,2-2v-14c0-1.1-0.9-2-2-2h-4
				C1210.9,230,1210,230.9,1210,232"/>
			<polyline id="Path_7_" class="st1" points="1215,243 1215,245 1213,245 1213,243 1215,243 			"/>
			<polyline id="Path_8_" class="st1" points="1215,239.5 1215,241.5 1213,241.5 1213,239.5 1215,239.5 			"/>
			<polygon id="Path_9_" class="st1" points="1215,236 1215,238 1213,238 1213,236 			"/>
			<g id="Group_5_" transform="translate(727.000000, 96.000000)">
				<g id="icon_x2F_fingerprint-copy_5_">
					<path id="Shape_6_" class="st1" d="M12,4L6.7,9.3h4v9.3h2.7V9.3h4 M21.3,22.7v-9.3h-2.7v9.3h-4L20,28l5.3-5.3H21.3z"/>
				</g>
			</g>
			
				<linearGradient id="Rectangle_3_" gradientUnits="userSpaceOnUse" x1="333.9552" y1="446.4371" x2="332.9552" y2="446.4371" gradientTransform="matrix(67 0 0 -143 -21100 64048)">
				<stop  offset="0" style="stop-color:#0A1A2B"/>
				<stop  offset="1" style="stop-color:#0A1A2B;stop-opacity:0"/>
			</linearGradient>
			<rect id="Rectangle_2_" x="1208" y="136" class="st10" width="67" height="143"/>
			<path id="Rectangle-Copy-15_4_" class="st0" d="M609,0h269c5.5,0,10,4.5,10,10v64c0,5.5-4.5,10-10,10H609c-5.5,0-10-4.5-10-10V10
				C599,4.5,603.5,0,609,0z"/>
			<g class="st7">
				<path class="st2" d="M706.4,35c-0.2-0.1-0.4-0.1-0.6-0.2c-0.2,0-0.5-0.1-0.8-0.1c-0.4,0-0.9,0.1-1.3,0.2
					c-0.4,0.2-0.8,0.4-1.1,0.8c-0.3,0.4-0.6,0.8-0.8,1.4c-0.2,0.6-0.3,1.3-0.3,2.2c0,0.8,0.1,1.4,0.3,2c0.2,0.6,0.4,1.1,0.7,1.4
					c0.3,0.4,0.7,0.7,1.1,0.9c0.4,0.2,0.9,0.3,1.5,0.3c0.3,0,0.5,0,0.8-0.1c0.2,0,0.5-0.1,0.7-0.2v-1.6h1.2v2.2l0,0
					c-0.3,0.2-0.7,0.5-1.2,0.6c-0.5,0.2-1.1,0.2-1.8,0.2c-0.7,0-1.3-0.1-1.9-0.3c-0.6-0.2-1.1-0.6-1.5-1c-0.4-0.5-0.7-1.1-1-1.8
					s-0.3-1.6-0.3-2.6c0-1,0.1-1.9,0.4-2.7c0.3-0.7,0.6-1.3,1-1.8s0.9-0.8,1.5-1c0.6-0.2,1.2-0.3,1.9-0.3c0.4,0,0.7,0,0.9,0
					c0.3,0,0.5,0.1,0.7,0.1c0.2,0,0.4,0.1,0.5,0.2c0.2,0.1,0.3,0.2,0.5,0.3h0v2.5h-1.2V35z"/>
				<path class="st2" d="M710.6,33.8h2.7v8.5c0,0.7,0.1,1.1,0.3,1.4s0.5,0.4,1,0.4c0.3,0,0.6-0.1,0.9-0.2c0.3-0.1,0.6-0.3,0.9-0.5
					l0.6,0.9c-0.2,0.1-0.4,0.3-0.6,0.4s-0.4,0.2-0.6,0.3s-0.4,0.1-0.6,0.2c-0.2,0-0.4,0.1-0.6,0.1c-0.4,0-0.7-0.1-1.1-0.2
					c-0.3-0.1-0.6-0.3-0.8-0.5c-0.2-0.2-0.4-0.5-0.5-0.9c-0.1-0.4-0.2-0.8-0.2-1.4v-7.4h-1.4V33.8z"/>
				<path class="st2" d="M719.2,41c0-1.3,0.3-2.3,1-3.1c0.7-0.8,1.6-1.1,2.9-1.1c0.7,0,1.2,0.1,1.7,0.3c0.5,0.2,0.9,0.5,1.2,0.9
					c0.3,0.4,0.6,0.8,0.7,1.3c0.2,0.5,0.2,1.1,0.2,1.6c0,0.6-0.1,1.2-0.3,1.7s-0.4,1-0.8,1.3c-0.3,0.4-0.7,0.6-1.2,0.8
					c-0.5,0.2-1,0.3-1.7,0.3c-0.7,0-1.2-0.1-1.7-0.3c-0.5-0.2-0.9-0.5-1.2-0.9c-0.3-0.4-0.6-0.8-0.7-1.3
					C719.3,42.1,719.2,41.6,719.2,41z M720.5,41c0,0.4,0,0.7,0.1,1.1c0.1,0.4,0.2,0.7,0.4,1c0.2,0.3,0.5,0.5,0.8,0.7
					c0.3,0.2,0.7,0.3,1.2,0.3c0.9,0,1.5-0.3,1.9-0.8s0.6-1.3,0.6-2.3c0-0.4,0-0.8-0.1-1.1c-0.1-0.4-0.2-0.7-0.4-1s-0.5-0.5-0.8-0.7
					c-0.3-0.2-0.7-0.3-1.2-0.3c-0.9,0-1.5,0.3-1.9,0.8C720.8,39.2,720.5,40,720.5,41z"/>
				<path class="st2" d="M733.7,37h2.3v5.5c0,0.5,0,1,0.1,1.5h1.1v1H735l0-1.4h-0.1c-0.3,0.5-0.6,0.8-1.1,1.1
					c-0.5,0.3-1,0.4-1.7,0.4c-0.5,0-0.9-0.1-1.3-0.2c-0.3-0.1-0.6-0.3-0.9-0.6s-0.4-0.6-0.5-1.1s-0.2-1-0.2-1.7v-3.5h-1.1V37h2.3
					v4.3c0,0.4,0,0.8,0.1,1.2s0.1,0.6,0.2,0.9c0.1,0.2,0.3,0.4,0.5,0.5c0.2,0.1,0.5,0.2,0.9,0.2c0.5,0,1-0.2,1.4-0.5
					s0.7-0.8,0.9-1.4v-4.1h-1V37z"/>
				<path class="st2" d="M743.1,33.8h2.6v8.5c0,0.1,0,0.2,0,0.4s0,0.3,0,0.5c0,0.2,0,0.3,0.1,0.5c0,0.2,0,0.3,0.1,0.4h1.1v1h-2.1
					l-0.2-1.2h-0.1c-0.2,0.4-0.6,0.7-1,1c-0.5,0.3-1,0.4-1.6,0.4c-1.2,0-2.1-0.3-2.7-1c-0.6-0.7-0.9-1.7-0.9-3.2
					c0-0.7,0.1-1.3,0.3-1.8c0.2-0.5,0.5-0.9,0.8-1.3c0.4-0.3,0.8-0.6,1.3-0.8c0.5-0.2,1.1-0.3,1.7-0.3c0.2,0,0.4,0,0.6,0
					c0.2,0,0.3,0,0.5,0c0.1,0,0.3,0.1,0.4,0.1c0.1,0,0.3,0.1,0.4,0.1v-2.3h-1.3V33.8z M742.1,44.1c0.6,0,1.2-0.2,1.5-0.5
					s0.6-0.8,0.8-1.5v-3.7c-0.2-0.2-0.5-0.3-0.8-0.4c-0.3-0.1-0.7-0.1-1.2-0.1c-0.9,0-1.5,0.2-2,0.7c-0.5,0.5-0.7,1.3-0.7,2.3
					c0,0.4,0,0.8,0.1,1.2s0.2,0.7,0.4,1c0.2,0.3,0.4,0.5,0.7,0.7C741.3,44,741.7,44.1,742.1,44.1z"/>
				<path class="st2" d="M759.1,43.4c0.3,0.2,0.7,0.3,1.1,0.4c0.4,0.1,0.8,0.2,1.2,0.2c0.4,0,0.7,0,1-0.1s0.6-0.2,0.8-0.3
					c0.2-0.2,0.4-0.3,0.5-0.6c0.1-0.2,0.2-0.5,0.2-0.8c0-0.4-0.1-0.8-0.4-1.1c-0.3-0.3-0.7-0.5-1.1-0.7c-0.4-0.2-0.9-0.4-1.4-0.6
					c-0.5-0.2-1-0.4-1.4-0.7s-0.8-0.6-1.1-1c-0.3-0.4-0.4-0.9-0.4-1.5c0-0.4,0.1-0.8,0.3-1.2c0.2-0.4,0.4-0.7,0.7-0.9
					c0.3-0.2,0.7-0.4,1.2-0.6c0.5-0.1,1-0.2,1.5-0.2c0.6,0,1.2,0,1.7,0.1s0.9,0.2,1.2,0.4l0,0v0h0l0,0v2.6h-1.2V35
					c-0.3-0.1-0.6-0.1-0.9-0.2c-0.3,0-0.7-0.1-1-0.1c-0.4,0-0.7,0-1,0.1c-0.3,0.1-0.5,0.2-0.7,0.3c-0.2,0.1-0.3,0.3-0.5,0.5
					c-0.1,0.2-0.2,0.4-0.2,0.6c0,0.4,0.1,0.8,0.4,1c0.3,0.3,0.7,0.5,1.1,0.7s0.9,0.4,1.4,0.6c0.5,0.2,1,0.5,1.4,0.7
					c0.4,0.3,0.8,0.6,1.1,1c0.3,0.4,0.4,0.9,0.4,1.5c0,0.5-0.1,0.9-0.3,1.3s-0.4,0.7-0.8,1c-0.3,0.3-0.7,0.5-1.2,0.6s-1,0.2-1.6,0.2
					c-0.4,0-0.8,0-1.2-0.1c-0.4-0.1-0.7-0.1-1-0.2c-0.3-0.1-0.6-0.2-0.8-0.3c-0.2-0.1-0.4-0.2-0.6-0.3l0,0v-2.6h1.2V43.4z"/>
				<path class="st2" d="M774.8,44c-0.2,0.2-0.4,0.3-0.7,0.5s-0.5,0.3-0.9,0.4c-0.3,0.1-0.6,0.2-1,0.2s-0.7,0.1-1,0.1
					c-0.6,0-1.2-0.1-1.7-0.3c-0.5-0.2-0.9-0.5-1.2-0.8c-0.3-0.4-0.6-0.8-0.8-1.3c-0.2-0.5-0.3-1.1-0.3-1.7c0-0.7,0.1-1.3,0.3-1.8
					s0.5-1,0.8-1.3c0.4-0.4,0.8-0.6,1.3-0.8c0.5-0.2,1.1-0.3,1.7-0.3c0.4,0,0.9,0.1,1.3,0.2s0.8,0.3,1.2,0.7
					c0.3,0.3,0.6,0.8,0.8,1.3s0.2,1.3,0.2,2.2h-6.2c0,1,0.3,1.7,0.8,2.2s1.2,0.7,2.1,0.7c0.3,0,0.6,0,0.9-0.1s0.6-0.2,0.8-0.2
					c0.3-0.1,0.5-0.2,0.7-0.3s0.3-0.2,0.5-0.3L774.8,44z M771.4,37.9c-0.4,0-0.7,0-1,0.1c-0.3,0.1-0.6,0.2-0.8,0.4
					c-0.2,0.2-0.4,0.4-0.6,0.7c-0.2,0.3-0.3,0.6-0.3,1h5c-0.1-0.7-0.3-1.2-0.7-1.6C772.6,38.1,772,37.9,771.4,37.9z"/>
				<path class="st2" d="M777,45v-1.1h2.2v-5.9H777V37h3l0.3,1h0.1c0.4-0.3,0.8-0.6,1.2-0.8c0.4-0.2,1-0.4,1.6-0.4
					c0.4,0,0.7,0.1,0.9,0.2s0.4,0.3,0.5,0.6c0.1,0.3,0.2,0.6,0.2,1s0.1,0.8,0.1,1.3l-1.1,0c0-0.7-0.1-1.2-0.2-1.5s-0.4-0.5-0.7-0.5
					c-0.3,0-0.6,0-0.9,0.1s-0.5,0.2-0.7,0.4c-0.2,0.1-0.4,0.3-0.5,0.4c-0.1,0.1-0.2,0.3-0.3,0.4v4.7h3.1V45H777z"/>
				<path class="st2" d="M790.3,43.4h0.2L793,37h1.4l-3.4,8h-1.4l-3.4-8h1.5L790.3,43.4z"/>
				<path class="st2" d="M796.8,45v-1.1h2.8v-5.9h-2.8V37h4v6.9h2.7V45H796.8z M799.1,34.7c0-0.3,0.1-0.5,0.3-0.7s0.4-0.3,0.7-0.3
					c0.3,0,0.6,0.1,0.8,0.3s0.3,0.5,0.3,0.7c0,0.3-0.1,0.5-0.3,0.7c-0.2,0.2-0.5,0.3-0.8,0.3c-0.3,0-0.5-0.1-0.7-0.3
					C799.2,35.2,799.1,35,799.1,34.7z"/>
				<path class="st2" d="M811.7,38.2c-0.2-0.1-0.5-0.2-0.8-0.2c-0.3-0.1-0.6-0.1-0.8-0.1c-1,0-1.8,0.2-2.3,0.7
					c-0.5,0.5-0.8,1.3-0.8,2.3c0,0.5,0.1,0.9,0.2,1.3c0.1,0.4,0.4,0.7,0.6,0.9s0.6,0.5,1,0.6c0.4,0.1,0.8,0.2,1.3,0.2
					c0.5,0,1-0.1,1.5-0.3c0.5-0.2,0.9-0.4,1.2-0.7l0.6,0.9c-0.1,0.1-0.3,0.3-0.6,0.4c-0.2,0.1-0.5,0.3-0.8,0.4
					c-0.3,0.1-0.6,0.2-1,0.3c-0.4,0.1-0.7,0.1-1.2,0.1c-0.7,0-1.3-0.1-1.8-0.3c-0.5-0.2-1-0.5-1.3-0.8s-0.6-0.8-0.8-1.3
					c-0.2-0.5-0.3-1.1-0.3-1.7c0-0.7,0.1-1.3,0.3-1.8s0.5-1,0.8-1.3c0.4-0.4,0.8-0.6,1.3-0.8s1.1-0.3,1.7-0.3c0.8,0,1.4,0.1,1.9,0.2
					c0.5,0.1,0.9,0.3,1.3,0.5l0,0v2.2h-1.2V38.2z"/>
				<path class="st2" d="M822.8,44c-0.2,0.2-0.4,0.3-0.7,0.5s-0.5,0.3-0.9,0.4c-0.3,0.1-0.6,0.2-1,0.2s-0.7,0.1-1,0.1
					c-0.6,0-1.2-0.1-1.7-0.3c-0.5-0.2-0.9-0.5-1.2-0.8c-0.3-0.4-0.6-0.8-0.8-1.3c-0.2-0.5-0.3-1.1-0.3-1.7c0-0.7,0.1-1.3,0.3-1.8
					s0.5-1,0.8-1.3c0.4-0.4,0.8-0.6,1.3-0.8c0.5-0.2,1.1-0.3,1.7-0.3c0.4,0,0.9,0.1,1.3,0.2s0.8,0.3,1.2,0.7
					c0.3,0.3,0.6,0.8,0.8,1.3s0.2,1.3,0.2,2.2h-6.2c0,1,0.3,1.7,0.8,2.2s1.2,0.7,2.1,0.7c0.3,0,0.6,0,0.9-0.1s0.6-0.2,0.8-0.2
					c0.3-0.1,0.5-0.2,0.7-0.3s0.3-0.2,0.5-0.3L822.8,44z M819.4,37.9c-0.4,0-0.7,0-1,0.1c-0.3,0.1-0.6,0.2-0.8,0.4
					c-0.2,0.2-0.4,0.4-0.6,0.7c-0.2,0.3-0.3,0.6-0.3,1h5c-0.1-0.7-0.3-1.2-0.7-1.6C820.6,38.1,820,37.9,819.4,37.9z"/>
			</g>
			<path id="Path_10_" class="st1" d="M682.3,39c-0.7-3.4-3.7-6-7.3-6c-2.9,0-5.4,1.6-6.7,4c-3,0.3-5.3,2.9-5.3,6c0,3.3,2.7,6,6,6
				h13c1.3,0,2.6-0.5,3.5-1.5s1.5-2.2,1.5-3.5C687,41.4,685,39.2,682.3,39z"/>
			<path id="Shape_7_" class="st11" d="M1026,192l-11,4.9v7.4c0,6.8,4.7,13.2,11,14.7c6.3-1.5,11-7.9,11-14.7v-7.4L1026,192
				 M1026,200c1.8,0,3.5,1.3,3.5,3v1.8c0.8,0,1.5,0.7,1.5,1.6v4.2c0,0.7-0.8,1.4-1.6,1.4h-6.9c-0.8,0-1.5-0.7-1.5-1.6v-4.2
				c0-0.7,0.8-1.4,1.5-1.4V203C1022.5,201.3,1024.2,200,1026,200 M1026,201c-1.1,0-2,0.5-2,1.4v1.6h4v-1.6
				C1028,201.5,1027.1,201,1026,201z"/>
		</g>
	</g>
</g>
</svg>
