<svg id="Layer_1" data-name="Layer 1" xmlns="http://www.w3.org/2000/svg" xmlns:xlink="http://www.w3.org/1999/xlink" viewBox="0 0 540 540"><defs><style>.cls-1{fill:none;}.cls-10,.cls-2,.cls-3{opacity:0.21;}.cls-10,.cls-12,.cls-16,.cls-17,.cls-2,.cls-20,.cls-3,.cls-7{isolation:isolate;}.cls-2{fill:url(#linear-gradient);}.cls-3{fill:url(#linear-gradient-2);}.cls-4{fill:#05131c;}.cls-5{fill:#05151c;}.cls-6{fill:#152935;}.cls-16,.cls-20,.cls-7{opacity:0.3;}.cls-7{fill:url(#linear-gradient-3);}.cls-8{fill:#0a1a2b;}.cls-22,.cls-9{fill:#ec432d;}.cls-10{fill:url(#linear-gradient-4);}.cls-11{opacity:0.4;}.cls-12,.cls-14{fill:#52c7ea;}.cls-12{opacity:0.6;}.cls-13{opacity:0.1;}.cls-15{opacity:0.51;}.cls-16{fill:url(#linear-gradient-5);}.cls-18{clip-path:url(#clip-path);}.cls-19{clip-path:url(#clip-path-2);}.cls-20{fill:url(#linear-gradient-6);}.cls-21{clip-path:url(#clip-path-3);}.cls-22{opacity:0.2;}</style><linearGradient id="linear-gradient" x1="-9791.34" y1="-7846.3" x2="-9769.55" y2="-7846.3" gradientTransform="matrix(-1.04, 0, 0, 1.04, -10105.03, 8464.83)" gradientUnits="userSpaceOnUse"><stop offset="0" stop-color="#52c7ea" stop-opacity="0.7"/><stop offset="1"/></linearGradient><linearGradient id="linear-gradient-2" x1="-9876.69" y1="-7896.28" x2="-9860.21" y2="-7896.28" xlink:href="#linear-gradient"/><linearGradient id="linear-gradient-3" x1="-9808.72" y1="-7884.99" x2="-9728.05" y2="-7884.99" xlink:href="#linear-gradient"/><linearGradient id="linear-gradient-4" x1="8012.39" y1="9536.77" x2="8029.01" y2="9536.77" gradientTransform="matrix(1.04, 0, 0.09, -1.04, -9169.64, 10236.19)" xlink:href="#linear-gradient"/><linearGradient id="linear-gradient-5" x1="127.91" y1="301.82" x2="480.44" y2="301.82" gradientUnits="userSpaceOnUse"><stop offset="0" stop-color="#52c7ea" stop-opacity="0.7"/><stop offset="0.97"/></linearGradient><clipPath id="clip-path"><polygon class="cls-1" points="248.45 180.99 248.71 86.72 325.23 130.9 324.96 225.17 248.45 180.99"/></clipPath><clipPath id="clip-path-2"><polygon class="cls-1" points="231.88 243.71 288.77 210.65 342.17 241.48 285.27 274.54 231.88 243.71"/></clipPath><linearGradient id="linear-gradient-6" x1="-1572.93" y1="177.46" x2="-1554" y2="177.46" gradientTransform="matrix(-0.5, -0.87, -0.87, 0.5, -159.1, -1265.27)" xlink:href="#linear-gradient"/><clipPath id="clip-path-3"><polygon class="cls-1" points="462.14 183.97 462.2 162.58 480.81 173.32 480.75 194.71 462.14 183.97"/></clipPath></defs><polyline class="cls-2" points="78.08 307.14 62.65 303.02 80.27 290.41 85.33 299.14 78.08 307.14"/><polyline class="cls-3" points="173.08 252.58 169.63 250.39 165.14 251.84 157.01 253.3 157.45 248.21 170.53 240.21 174.16 240.21 173.08 252.58"/><path class="cls-4" d="M61.23,330.76l-9.6-4S48.5,321,50.46,315.15,65.88,297,65.88,297l5.44,4.37,4.09,2.45Z"/><ellipse class="cls-5" cx="67.54" cy="317.01" rx="15.4" ry="8.71" transform="translate(-236.95 205.91) rotate(-57.93)"/><ellipse class="cls-6" cx="67.54" cy="317.01" rx="6.31" ry="3.57" transform="translate(-236.95 205.91) rotate(-57.93)"/><path class="cls-6" d="M62.51,327.07a1.07,1.07,0,0,0,.92-.53L74.94,307a1.07,1.07,0,1,0-1.84-1.08L61.59,325.46a1.08,1.08,0,0,0,.38,1.47A1,1,0,0,0,62.51,327.07Z"/><path class="cls-6" d="M72.85,320.85a1.07,1.07,0,0,0,.5-2L62,312.91a1.07,1.07,0,0,0-1,1.89l11.33,5.93A1.11,1.11,0,0,0,72.85,320.85Z"/><path class="cls-4" d="M155.18,278.92l-9.61-4s-3.12-5.82-1.16-11.64,15.41-18.19,15.41-18.19l5.44,4.37,4.1,2.45Z"/><ellipse class="cls-5" cx="161.49" cy="265.17" rx="15.4" ry="8.71" transform="translate(-148.96 261.21) rotate(-57.93)"/><ellipse class="cls-6" cx="161.49" cy="265.17" rx="6.31" ry="3.57" transform="translate(-148.96 261.21) rotate(-57.93)"/><path class="cls-6" d="M156.45,275.23a1.07,1.07,0,0,0,.93-.52l11.51-19.59a1.08,1.08,0,0,0-.38-1.47,1.06,1.06,0,0,0-1.46.38l-11.52,19.59a1.08,1.08,0,0,0,.38,1.47A1.06,1.06,0,0,0,156.45,275.23Z"/><path class="cls-6" d="M166.8,269a1.07,1.07,0,0,0,.5-2L156,261.06a1.07,1.07,0,0,0-1,1.9l11.33,5.93A1.11,1.11,0,0,0,166.8,269Z"/><polygon class="cls-6" points="93.64 212.56 137.62 192.18 186 221.28 50.69 304.24 38.32 304.24 3.79 283.14 1.64 274.4 64.78 226.38 93.64 212.56"/><polygon class="cls-6" points="50.69 304.24 50.14 318.78 57.18 304.96 71.04 296.23 74.8 294.77 80.52 304.24 140.2 270.77 150.59 251.84 168.28 240.93 172.8 247.48 181.97 242.39 186 221.28 50.69 304.24"/><polygon class="cls-6" points="1.64 274.4 1.41 285.31 2.04 294.77 39.42 316.61 50.27 317.33 51.42 304.24 38.32 304.24 3.79 283.14 1.64 274.4"/><polygon class="cls-4" points="2.15 285.31 1.29 286.77 0.4 296.96 39.77 320.97 51.41 320.97 52.46 317.33 59.36 304.96 75.29 295.59 79.86 303.14 78.08 307.14 139.35 272.22 141.53 272.22 153.43 252.58 169.64 242.91 172.73 248.21 173.08 252.58 183.24 244.57 183.49 241.66 182.35 240.41 172.86 246.75 168.4 239.48 149.99 250.39 141.25 267.12 139.54 270.03 80.58 303.5 74.26 292.59 57.36 302.78 50.4 315.87 39.48 315.87 2.83 294.05 2.15 285.31"/><polygon class="cls-7" points="19.46 262.76 65.13 288.95 103.42 251.44 64.78 228.07 19.46 262.76"/><polygon class="cls-8" points="64.78 228.07 94.36 214.62 137.18 240.11 103.42 251.44 64.78 228.07"/><polyline class="cls-8" points="98.73 212.56 137.37 236.56 180.25 220.56 137.36 195.09 99.46 212.56"/><polygon class="cls-9" points="2.11 277.31 4.39 284.59 20.17 295.5 38.32 304.24 50.63 304.96 50.5 306.42 38.2 305.69 19.31 296.96 3.6 285.31 1.99 278.77 2.11 277.31"/><polygon class="cls-8" points="67.18 290.41 103.96 252.58 137.72 240.93 138 246.03 67.18 290.41"/><polygon class="cls-6" points="103.69 252.58 107.76 264.98 111.11 262.88 106.78 251.63 103.69 252.58"/><polygon class="cls-10" points="39.48 315.87 38.2 305.69 50.5 306.42 55.43 306.42 50.4 315.87 39.48 315.87"/><g class="cls-11"><path class="cls-8" d="M273.2,465.64l-74.66-43.1c-8.74-5.05-8.74-13.26,0-18.31l74.66-43.1c8.74-5.05,23-5.05,31.71,0l74.66,43.1c8.74,5,8.74,13.26,0,18.31l-74.66,43.1C296.17,470.69,281.94,470.69,273.2,465.64Z"/><path class="cls-12" d="M289.06,470a32.84,32.84,0,0,1-16.16-3.86l-74.66-43.11c-4.42-2.55-6.86-6-6.86-9.68s2.44-7.12,6.86-9.67L272.9,360.6c8.91-5.14,23.4-5.14,32.31,0l74.66,43.1c4.42,2.55,6.86,6,6.86,9.68s-2.44,7.12-6.86,9.67l-74.66,43.11A32.83,32.83,0,0,1,289.06,470Zm0-112.57a32.31,32.31,0,0,0-15.79,3.77L198.6,404.34c-4.19,2.41-6.5,5.63-6.5,9s2.31,6.63,6.5,9.05l74.66,43.11a35.06,35.06,0,0,0,31.59,0l74.66-43.11c4.19-2.41,6.49-5.63,6.49-9s-2.3-6.63-6.49-9.05l-74.66-43.11A32.38,32.38,0,0,0,289.05,357.46Z"/></g><g class="cls-13"><path class="cls-14" d="M275.54,453.37l-74.66-43.11c-8.74-5-8.74-13.26,0-18.3l74.66-43.11c8.74-5,23-5,31.71,0L381.91,392c8.74,5,8.74,13.26,0,18.3l-74.66,43.11C298.51,458.42,284.28,458.42,275.54,453.37Z"/><path class="cls-14" d="M275.54,453.37l-74.66-43.11c-8.74-5-8.74-13.26,0-18.3l74.66-43.11c8.74-5,23-5,31.71,0L381.91,392c8.74,5,8.74,13.26,0,18.3l-74.66,43.11C298.51,458.42,284.28,458.42,275.54,453.37Z"/><g class="cls-15"><path class="cls-14" d="M275.54,453.37l-74.66-43.11c-8.74-5-8.74-13.26,0-18.3l74.66-43.11c8.74-5,23-5,31.71,0L381.91,392c8.74,5,8.74,13.26,0,18.3l-74.66,43.11C298.51,458.42,284.28,458.42,275.54,453.37Z"/></g></g><path class="cls-8" d="M386.14,367.51V316.77l-4.68-2.6c-1.32,8-10.72,13.24-18.58,14.34l-53.49,31.28L286,368.22l-74.52-38.46,1.72-1c-6.37-3-9.8-9.78-13.25-16l-5,3-3,.84v51.17h0c0,3.31,2.18,6.63,6.55,9.15L273.21,420c8.75,5.05,23,5.05,31.71,0l74.66-43.1c4.3-2.48,6.48-5.73,6.55-9,0-.15,0-.29,0-.44Z"/><path class="cls-14" d="M289.07,424.18a32.83,32.83,0,0,1-16-3.83l-74.66-43.11c-4.34-2.51-6.74-5.87-6.74-9.46V316.61a.37.37,0,0,1,.27-.35l2.93-.82,5-3a.38.38,0,0,1,.28,0,.41.41,0,0,1,.22.17l.66,1.19c3.23,5.86,6.56,11.92,12.42,14.65a.38.38,0,0,1,.21.31.34.34,0,0,1-.18.33l-1.15.67,73.79,38.08,23.2-8.38,53.44-31.26.13,0c7.91-1.1,17-6.4,18.27-14a.37.37,0,0,1,.2-.27.38.38,0,0,1,.33,0l4.68,2.61a.34.34,0,0,1,.19.31v50.74a.2.2,0,0,1,0,.07c0,.14,0,.25,0,.37-.08,3.53-2.47,6.83-6.74,9.29L305.1,420.35A32.82,32.82,0,0,1,289.07,424.18ZM192.36,316.89v50.89c0,3.32,2.26,6.46,6.37,8.84l74.67,43.1c8.64,5,22.7,5,31.34,0l74.66-43.1c4-2.34,6.3-5.42,6.37-8.69,0-.12,0-.25,0-.37s0-.07,0-.1V317l-4-2.26c-1.62,7.69-10.74,13-18.71,14.13L309.57,360.1l-23.41,8.46a.33.33,0,0,1-.29,0l-74.52-38.45a.38.38,0,0,1-.2-.32.37.37,0,0,1,.19-.32l1.13-.65c-5.69-3-9-8.9-12.14-14.66l-.47-.86-4.7,2.8-.09,0Z"/><path class="cls-8" d="M272.82,367.65l-74.66-43.1c-8.21-5.06-8.26-13.27,0-18.31l74.66-43.1c8.74-5.05,23-5.05,31.7,0l74.67,43.1c9.27,5,9.35,13.2,0,18.31l-74.66,43.1C295.79,372.7,281.56,372.7,272.82,367.65Z"/><path class="cls-14" d="M288.67,371.8a32.82,32.82,0,0,1-16-3.83h0L198,324.86c-4.11-2.53-6.37-5.9-6.36-9.5s2.26-6.93,6.35-9.43l74.67-43.11c8.84-5.1,23.22-5.1,32.07,0l74.66,43.11c4.6,2.48,7.15,5.82,7.16,9.42s-2.53,7-7.17,9.52L304.71,368A32.83,32.83,0,0,1,288.67,371.8ZM273,367.34c8.64,5,22.7,5,31.35,0L379,324.24c4.41-2.41,6.82-5.56,6.81-8.89s-2.43-6.44-6.8-8.79l-74.67-43.11c-8.64-5-22.7-5-31.34,0l-74.66,43.11c-3.86,2.35-6,5.48-6,8.8s2.12,6.49,6,8.88Z"/><ellipse class="cls-8" cx="215.7" cy="362.31" rx="4.82" ry="8.52" transform="translate(-174.47 202.42) rotate(-36.95)"/><path class="cls-14" d="M218.91,370.07a7,7,0,0,1-3.39-1c-3.63-2.09-6.59-6.77-6.59-10.42a3.91,3.91,0,0,1,1.75-3.6c1.33-.77,3.23-.56,5.21.58,3.63,2.1,6.58,6.77,6.58,10.42a3.91,3.91,0,0,1-1.74,3.61A3.67,3.67,0,0,1,218.91,370.07Zm-6.41-14.8a2.81,2.81,0,0,0-1.46.37,3.22,3.22,0,0,0-1.38,3c0,3.42,2.79,7.81,6.23,9.8,1.74,1,3.38,1.22,4.48.58a3.24,3.24,0,0,0,1.38-3c0-3.42-2.79-7.81-6.23-9.79A6.17,6.17,0,0,0,212.5,355.27Z"/><ellipse class="cls-8" cx="237.17" cy="374.71" rx="4.82" ry="8.52" transform="translate(-177.61 217.82) rotate(-36.95)"/><path class="cls-14" d="M240.38,382.47a6.92,6.92,0,0,1-3.39-1c-3.63-2.1-6.59-6.77-6.59-10.42a3.91,3.91,0,0,1,1.75-3.61c1.33-.77,3.23-.56,5.2.59,3.64,2.09,6.59,6.77,6.59,10.42a3.92,3.92,0,0,1-1.74,3.6A3.57,3.57,0,0,1,240.38,382.47ZM234,367.67a2.9,2.9,0,0,0-1.46.36,3.23,3.23,0,0,0-1.38,3c0,3.42,2.79,7.81,6.22,9.79,1.75,1,3.38,1.22,4.49.58a3.22,3.22,0,0,0,1.38-3c0-3.42-2.8-7.81-6.23-9.8A6.25,6.25,0,0,0,234,367.67Z"/><ellipse class="cls-8" cx="257.93" cy="386.69" rx="4.82" ry="8.52" transform="translate(-180.64 232.7) rotate(-36.95)"/><path class="cls-14" d="M261.14,394.45a6.92,6.92,0,0,1-3.39-1c-3.63-2.09-6.59-6.77-6.59-10.42a3.91,3.91,0,0,1,1.75-3.6c1.33-.77,3.23-.56,5.2.58,3.64,2.1,6.59,6.77,6.59,10.42A3.93,3.93,0,0,1,263,394,3.67,3.67,0,0,1,261.14,394.45Zm-6.41-14.79a2.9,2.9,0,0,0-1.46.36,3.22,3.22,0,0,0-1.38,3c0,3.42,2.79,7.81,6.22,9.8,1.75,1,3.38,1.22,4.49.58a3.23,3.23,0,0,0,1.38-3c0-3.42-2.8-7.81-6.23-9.79A6.14,6.14,0,0,0,254.73,379.66Z"/><path class="cls-16" d="M386.12,301V250.29l-4.67-2.6c-1.33,8-10.72,13.25-18.58,14.34l-53.5,31.28L286,301.74,211.5,263.29l1.73-1c-6.37-3-9.8-9.78-13.25-16l-5,3-3,.84V301.3h0c0,3.31,2.19,6.63,6.56,9.15l74.66,43.11c8.74,5,23,5,31.71,0l74.66-43.11c4.3-2.48,6.48-5.73,6.55-9a3.23,3.23,0,0,0,0-.44Z"/><path class="cls-6" d="M272.81,301.18l-74.66-43.11c-8.21-5.06-8.26-13.27,0-18.31l74.66-43.1c8.74-5,23-5,31.7,0l74.66,43.1c9.28,5,9.36,13.2,0,18.31l-74.65,43.11C295.77,306.22,281.55,306.22,272.81,301.18Z"/><path class="cls-8" d="M379.57,258.14l-74.66,43.1c-8.74,5.05-23,5.05-31.71,0l-74.66-43.1c-3.91-2.26-6.06-5.15-6.48-8.1-.51,3.66,1.65,7.42,6.48,10.21l74.66,43.1c8.74,5,23,5,31.71,0l74.66-43.1c4.83-2.79,7-6.55,6.47-10.21C385.63,253,383.48,255.88,379.57,258.14Z"/><g id="Symbols"><g class="cls-17"><g class="cls-18"><path class="cls-9" d="M269.86,109.93c-.95-.55-1.72-.11-1.73,1a3.8,3.8,0,0,0,1.72,3c.95.55,1.73.11,1.73-1a3.8,3.8,0,0,0-1.72-3"/><path class="cls-9" d="M269.83,132.72c-1-.55-1.73-.11-1.74,1a3.8,3.8,0,0,0,1.73,3c.95.55,1.72.11,1.73-1a3.8,3.8,0,0,0-1.72-3"/><path class="cls-9" d="M304,198.1c-.95-.55-1.73-.11-1.73,1a3.82,3.82,0,0,0,1.72,3c.95.55,1.72.11,1.73-1a3.8,3.8,0,0,0-1.72-3"/><path class="cls-9" d="M252.63,134.21c-.95-.55-1.73-.11-1.73,1a3.8,3.8,0,0,0,1.72,3c.95.55,1.73.11,1.73-1a3.76,3.76,0,0,0-1.72-3"/><path class="cls-9" d="M321.26,173.83c-.95-.55-1.73-.11-1.73,1a3.75,3.75,0,0,0,1.72,3c.95.55,1.72.11,1.73-1a3.8,3.8,0,0,0-1.72-3"/><path class="cls-9" d="M304.19,129.75c-.95-.55-1.72-.11-1.73,1a3.8,3.8,0,0,0,1.72,3c.95.55,1.73.11,1.73-1a3.8,3.8,0,0,0-1.72-3"/><path class="cls-9" d="M304.06,175.32c-.95-.55-1.72-.1-1.73,1a3.82,3.82,0,0,0,1.72,3c.95.55,1.73.1,1.73-1a3.82,3.82,0,0,0-1.72-3"/><path class="cls-9" d="M269.76,155.48c-.95-.55-1.73-.11-1.73,1a3.8,3.8,0,0,0,1.72,3c.95.55,1.73.11,1.73-1a3.77,3.77,0,0,0-1.72-3"/><path class="cls-9" d="M304.13,152.55c-.95-.55-1.73-.11-1.73,1a3.75,3.75,0,0,0,1.72,3c.95.55,1.72.11,1.73-1a3.8,3.8,0,0,0-1.72-3"/><path class="cls-9" d="M286.86,176.78c-.95-.55-1.72-.1-1.73,1a3.78,3.78,0,0,0,1.72,3c1,.56,1.73.12,1.74-1a3.82,3.82,0,0,0-1.73-3"/><path class="cls-9" d="M287,131.26c-.95-.55-1.72-.11-1.73,1a3.82,3.82,0,0,0,1.72,3c.95.55,1.73.1,1.73-1a3.8,3.8,0,0,0-1.72-3"/><path class="cls-9" d="M269.67,178.28c-.95-.55-1.73-.11-1.73,1a3.82,3.82,0,0,0,1.72,3c.95.55,1.72.1,1.73-1a3.78,3.78,0,0,0-1.72-3"/><path class="cls-14" d="M287.1,108.88c-4.62-2.66-9.27-3.61-13.17-2.3a10.64,10.64,0,0,0-3.37,1.93,8.26,8.26,0,0,1,2.21,3.1c3.65-3.06,9-2.68,14.3.41a36.09,36.09,0,0,1,11.53,11.35,47,47,0,0,1,2.72,4.72,1.6,1.6,0,0,1,1.21-.69,2.23,2.23,0,0,1,1.09.2c-4.16-8.44-10.31-15.13-16.52-18.72"/><path class="cls-14" d="M301,128.65c-5.26-2.14-10-1.73-13.36,1.19a7.25,7.25,0,0,1,2.24,3.08c2.83-2.4,6.86-2.76,11.32-1a4.69,4.69,0,0,1-.2-3.26"/><path class="cls-14" d="M273.05,112.5a4.75,4.75,0,0,1,.2,1.41,2.68,2.68,0,0,1-.44,1.6,35.68,35.68,0,0,1,6.27,6.16,43.3,43.3,0,0,1,5,8,1.57,1.57,0,0,1,1.21-.69,2.28,2.28,0,0,1,1,.16,45.85,45.85,0,0,0-13.31-16.59"/><path class="cls-14" d="M306.76,135.74a1.79,1.79,0,0,1-.89.34,2.72,2.72,0,0,1-1.61-.43c1.63,5.81,1.58,11.14-.1,15a7,7,0,0,1,2.53,2.81c2-4.57,2-10.92.07-17.76"/><path class="cls-14" d="M290.21,133.8a3.86,3.86,0,0,1-.24,3,41.12,41.12,0,0,1,11.28,14,1.84,1.84,0,0,1,2.28-.47,47,47,0,0,0-13.32-16.59"/><path class="cls-14" d="M307.35,132.23a3.91,3.91,0,0,1-.24,3.05c.63.5,1.24,1,1.84,1.52,9.82,8.69,15.6,23.64,12.95,33.4a13,13,0,0,1-.61,1.76,6.14,6.14,0,0,1,1.64,1.45,8.94,8.94,0,0,1,.89,1.37,16.52,16.52,0,0,0,.75-2.15c3.06-11.24-3.61-28.46-14.89-38.49-.78-.68-1.53-1.31-2.33-1.91"/><path class="cls-14" d="M307.29,155a3.79,3.79,0,0,1-.24,3,40.3,40.3,0,0,1,11.3,14,1.89,1.89,0,0,1,2.28-.47,51.31,51.31,0,0,0-5.91-9.31,41.67,41.67,0,0,0-7.43-7.27"/><path class="cls-14" d="M318.34,176.18c-2.86,2.39-6.92,2.73-11.37.95a5.39,5.39,0,0,1,.45,2.12,2.94,2.94,0,0,1-.21,1.17c5.3,2.2,10.08,1.75,13.4-1.14a7.25,7.25,0,0,1-2.27-3.1"/><path class="cls-14" d="M306.67,158.53a2.28,2.28,0,0,1-2.48-.08c1.6,5.75,1.56,11.09-.06,15a7.23,7.23,0,0,1,2.49,2.83c2-4.58,2-10.93.05-17.77"/><path class="cls-14" d="M306.64,181.31a2.24,2.24,0,0,1-2.51-.05c1.59,5.72,1.58,11.07,0,15a7.18,7.18,0,0,1,2.5,2.83c2-4.57,2-10.93.05-17.78"/><path class="cls-14" d="M323.8,179.81a2.21,2.21,0,0,1-2.5-.1c.23.79.43,1.61.6,2.41,2.61,12.82-3.26,21.09-13.1,18.45a18.23,18.23,0,0,1-1.84-.63,4.65,4.65,0,0,1,.22,3.3,20.55,20.55,0,0,0,2.33.78c11.28,3,18-6.46,15-21.21-.2-1-.45-2-.74-3"/><path class="cls-14" d="M301.18,177.66c-2.86,2.36-6.9,2.71-11.36,1a4.78,4.78,0,0,1,.2,3.25c5.29,2.16,10.07,1.74,13.42-1.13a7.65,7.65,0,0,1-2.26-3.09"/><path class="cls-14" d="M289.76,182.39a1.61,1.61,0,0,1-1.21.69,2.36,2.36,0,0,1-1-.17,45.81,45.81,0,0,0,13.31,16.59,3.55,3.55,0,0,1,.25-3,35.76,35.76,0,0,1-6.27-6.17,42.89,42.89,0,0,1-5-7.94"/><path class="cls-14" d="M284,179.07a8.94,8.94,0,0,1-5,2.09,14.37,14.37,0,0,1-6.28-1,4.87,4.87,0,0,1,.2,3.26c5.28,2.15,10.07,1.7,13.36-1.23a7.55,7.55,0,0,1-2.24-3.08"/><path class="cls-14" d="M301.11,200.4c-3.65,3-9,2.67-14.32-.42a35.83,35.83,0,0,1-11.5-11.35,40.19,40.19,0,0,1-2.73-4.72,1.57,1.57,0,0,1-1.21.69,2.2,2.2,0,0,1-1.07-.18c4.16,8.44,10.3,15.13,16.51,18.71,4.62,2.67,9.28,3.62,13.18,2.31a10.4,10.4,0,0,0,3.38-1.93,7.68,7.68,0,0,1-2.24-3.11"/><path class="cls-14" d="M267.19,158.54c-2,4.57-2,10.92-.08,17.76a1.66,1.66,0,0,1,.86-.36,2.77,2.77,0,0,1,1.62.43c-1.6-5.82-1.59-11.21.1-15.06a6.3,6.3,0,0,1-1.64-1.45,8.07,8.07,0,0,1-.86-1.32"/><path class="cls-14" d="M272.63,161.15a1.85,1.85,0,0,1-2.28.47,47.16,47.16,0,0,0,13.34,16.64,3.79,3.79,0,0,1,.24-3,41.57,41.57,0,0,1-11.3-14.07"/><path class="cls-14" d="M266.67,108.78a23.88,23.88,0,0,0-2.3-.77c-11.31-3.05-18.05,6.47-15.07,21.2.23,1,.46,1.95.74,3a2.26,2.26,0,0,1,2.51.09c-.23-.8-.43-1.61-.6-2.4-2.61-12.83,3.26-21.09,13.1-18.42a18.11,18.11,0,0,1,1.84.62,4.66,4.66,0,0,1-.22-3.3"/><path class="cls-14" d="M255.5,139.9a1.88,1.88,0,0,1-2.26.49,50.87,50.87,0,0,0,5.91,9.31,42.4,42.4,0,0,0,7.44,7.27,4,4,0,0,1,.21-3.06,40.67,40.67,0,0,1-11.3-14"/><path class="cls-14" d="M250,137.21a15.1,15.1,0,0,0-.75,2.15c-3.06,11.24,3.57,28.41,14.86,38.44.78.68,1.55,1.33,2.33,1.9a3.78,3.78,0,0,1,.24-3c-.58-.47-1.21-1-1.81-1.51-9.82-8.72-15.63-23.69-13-33.48a13.58,13.58,0,0,1,.61-1.7,5.93,5.93,0,0,1-1.64-1.44,9.17,9.17,0,0,1-.86-1.36"/><path class="cls-14" d="M267.29,113c-2,4.59-2,10.93,0,17.76a2.16,2.16,0,0,1,2.51.06c-1.63-5.77-1.62-11.12,0-15a7.39,7.39,0,0,1-2.5-2.8"/><path class="cls-14" d="M266.66,131.62c-5.29-2.16-10.07-1.75-13.39,1.13a7,7,0,0,1,1.06,1.05,8.28,8.28,0,0,1,1.18,2c2.85-2.38,6.91-2.72,11.4-.92a5.68,5.68,0,0,1-.45-2.15,3.31,3.31,0,0,1,.2-1.14"/><path class="cls-14" d="M283.86,130.09c-5.26-2.11-10.05-1.69-13.39,1.18a7.48,7.48,0,0,1,2.23,3.11c2.86-2.36,6.89-2.71,11.35-1a4.79,4.79,0,0,1-.19-3.32"/><path class="cls-14" d="M267.26,135.7c-2,4.59-2,10.92-.09,17.76a2.22,2.22,0,0,1,2.48.08c-1.56-5.77-1.55-11.13.07-15a7,7,0,0,1-2.46-2.82"/></g></g></g><g id="Symbols-2" data-name="Symbols"><g class="cls-17"><g class="cls-19"><path class="cls-8" d="M296.92,223a2.64,2.64,0,0,0-2.4,0,.73.73,0,0,0,0,1.39,2.67,2.67,0,0,0,2.4,0,.74.74,0,0,0,0-1.39"/><path class="cls-8" d="M283.19,231a2.59,2.59,0,0,0-2.39,0c-.67.38-.67,1,0,1.39a2.67,2.67,0,0,0,2.4,0,.74.74,0,0,0,0-1.39"/><path class="cls-8" d="M279.63,260.83a2.64,2.64,0,0,0-2.4,0,.73.73,0,0,0,0,1.38,2.64,2.64,0,0,0,2.4,0,.74.74,0,0,0,0-1.4"/><path class="cls-8" d="M264.33,228.11a2.61,2.61,0,0,0-2.4,0c-.67.38-.66,1,0,1.39a2.67,2.67,0,0,0,2.4,0,.74.74,0,0,0,0-1.39"/><path class="cls-8" d="M312.23,255.77a2.64,2.64,0,0,0-2.4,0,.74.74,0,0,0,0,1.4,2.69,2.69,0,0,0,2.41,0c.66-.39.65-1,0-1.39"/><path class="cls-8" d="M320.88,236.86a2.67,2.67,0,0,0-2.4,0,.74.74,0,0,0,0,1.39,2.63,2.63,0,0,0,2.41,0,.74.74,0,0,0,0-1.39"/><path class="cls-8" d="M293.37,252.85a2.61,2.61,0,0,0-2.4,0c-.66.38-.66,1,0,1.39a2.67,2.67,0,0,0,2.4,0,.73.73,0,0,0,0-1.39"/><path class="cls-8" d="M269.45,239a2.67,2.67,0,0,0-2.4,0,.74.74,0,0,0,0,1.39,2.63,2.63,0,0,0,2.41,0,.74.74,0,0,0,0-1.39"/><path class="cls-8" d="M307.11,244.86a2.67,2.67,0,0,0-2.4,0,.74.74,0,0,0,0,1.39,2.61,2.61,0,0,0,2.4,0c.67-.38.66-1,0-1.39"/><path class="cls-8" d="M274.53,249.92a2.61,2.61,0,0,0-2.4,0,.74.74,0,0,0,0,1.39,2.67,2.67,0,0,0,2.4,0c.66-.39.67-1,0-1.39"/><path class="cls-8" d="M302,234a2.63,2.63,0,0,0-2.41,0c-.66.38-.65,1,0,1.39a2.65,2.65,0,0,0,2.39,0,.74.74,0,0,0,0-1.39"/><path class="cls-8" d="M255.67,247a2.64,2.64,0,0,0-2.4,0,.74.74,0,0,0,0,1.39,2.67,2.67,0,0,0,2.4,0,.74.74,0,0,0,0-1.39"/><path class="cls-8" d="M315.56,226.11a28.75,28.75,0,0,0-12.38-3.44,34.8,34.8,0,0,0-4.68,0,1.36,1.36,0,0,1,.45,1.53,26.84,26.84,0,0,1,14.7,3c2.82,1.63,4.74,3.81,5.21,6.29a5.81,5.81,0,0,1,0,2.2,5.57,5.57,0,0,1,1.68,0,4.23,4.23,0,0,1,1,.29c.72-3.79-1.69-7.37-6-9.88"/><path class="cls-8" d="M318.24,235.84a32.55,32.55,0,0,0-14.68-2.26,1.23,1.23,0,0,1,.48,1.53A28.3,28.3,0,0,1,316.48,237a2.57,2.57,0,0,1,1.76-1.19"/><path class="cls-8" d="M298.71,224.57a2,2,0,0,1-.64.53,4.11,4.11,0,0,1-1.42.48,9.72,9.72,0,0,1,2.84,3.41,6.23,6.23,0,0,1,.5,3.8,6.3,6.3,0,0,1,1.68,0,5.35,5.35,0,0,1,1,.27c.61-3-.8-6.07-4-8.49"/><path class="cls-8" d="M320,239.48a6.22,6.22,0,0,1-1.14,0,4.25,4.25,0,0,1-1.42-.48c-1.79,2.36-5,4.23-9.14,5.26a1.56,1.56,0,0,1,1,1.5c4.83-1.21,8.67-3.43,10.75-6.23"/><path class="cls-8" d="M303.85,235.49a3.56,3.56,0,0,1-2.08,1c2.59,2.07,3.79,4.63,3.36,7.18a5.24,5.24,0,0,1,2.66.29c.59-3-.83-6-3.94-8.49"/><path class="cls-8" d="M322.69,238.37a3.48,3.48,0,0,1-2.08,1,12.88,12.88,0,0,1,1,.9c5.05,5,2.1,11.43-6.53,14.33-.56.18-1.12.34-1.7.49a1.93,1.93,0,0,1,.84.84,1.19,1.19,0,0,1,.11.66c.72-.18,1.42-.38,2.08-.6,9.95-3.34,13.33-10.72,7.55-16.5a13,13,0,0,0-1.28-1.14"/><path class="cls-8" d="M308.92,246.37a3.28,3.28,0,0,1-2.07,1c2.63,2.07,3.84,4.62,3.4,7.18a5.38,5.38,0,0,1,2.66.29,7.28,7.28,0,0,0-.59-4.45,11.08,11.08,0,0,0-3.4-4"/><path class="cls-8" d="M307.78,256a28.25,28.25,0,0,1-12.46-1.95,1.68,1.68,0,0,1-.8.84,3.4,3.4,0,0,1-.92.37,32.34,32.34,0,0,0,14.69,2.28,1.24,1.24,0,0,1-.51-1.54"/><path class="cls-8" d="M306.19,247.47a5.18,5.18,0,0,1-2.55-.52c-1.78,2.34-5,4.21-9.09,5.26a1.56,1.56,0,0,1,.91,1.49c4.82-1.21,8.64-3.44,10.73-6.23"/><path class="cls-8" d="M292.47,255.47a5,5,0,0,1-2.58-.52c-1.77,2.33-5,4.21-9.06,5.26a1.54,1.54,0,0,1,.9,1.49c4.84-1.2,8.65-3.44,10.74-6.23"/><path class="cls-8" d="M311.31,258.37a4.86,4.86,0,0,1-2.57-.53,8.78,8.78,0,0,1-.81,1c-5,5-16.07,6.76-24.77,3.86-.53-.18-1-.37-1.55-.59a2.51,2.51,0,0,1-1.75,1.21c.62.27,1.29.51,2,.74,10,3.31,22.74,1.34,28.45-4.44a10.34,10.34,0,0,0,1-1.21"/><path class="cls-8" d="M289,253.09a28.7,28.7,0,0,1-12.43-1.93,2.73,2.73,0,0,1-1.76,1.18,32.66,32.66,0,0,0,14.7,2.29,1.33,1.33,0,0,1-.51-1.54"/><path class="cls-8" d="M274.18,252.46a5.26,5.26,0,0,1-1.68,0,4.58,4.58,0,0,1-1-.27c-.62,3,.77,6.06,4,8.5a3.15,3.15,0,0,1,2-1,9.52,9.52,0,0,1-2.83-3.42,6.17,6.17,0,0,1-.51-3.81"/><path class="cls-8" d="M270.1,250.14a30,30,0,0,1-6.51-.28,26,26,0,0,1-5.94-1.62,2.73,2.73,0,0,1-1.75,1.18,32.16,32.16,0,0,0,14.7,2.24,1.29,1.29,0,0,1-.5-1.52"/><path class="cls-8" d="M275.23,261.06a26.86,26.86,0,0,1-14.71-3c-2.83-1.63-4.75-3.81-5.21-6.29a5.81,5.81,0,0,1,0-2.2,5.63,5.63,0,0,1-1.69,0,4,4,0,0,1-1-.28c-.73,3.8,1.67,7.38,6,9.88A28.86,28.86,0,0,0,271,262.61a38.46,38.46,0,0,0,4.68,0,1.28,1.28,0,0,1-.47-1.55"/><path class="cls-8" d="M264.93,239.57c-4.83,1.21-8.66,3.43-10.75,6.22a6,6,0,0,1,1.12.05,4,4,0,0,1,1.43.48c1.82-2.37,5.08-4.26,9.15-5.28a2.06,2.06,0,0,1-.85-.83,1.2,1.2,0,0,1-.1-.64"/><path class="cls-8" d="M269,241.58a5.24,5.24,0,0,1-2.66-.3c-.58,3,.81,6.07,3.95,8.52a3.34,3.34,0,0,1,2.07-1c-2.59-2.1-3.78-4.66-3.36-7.2"/><path class="cls-8" d="M294.27,222c-.63-.26-1.29-.51-1.95-.72-10-3.34-22.73-1.35-28.46,4.42-.36.4-.7.78-1,1.2a5,5,0,0,1,2.56.53,10.06,10.06,0,0,1,.81-1c5-5,16.07-6.76,24.75-3.85.52.18,1,.37,1.54.59a2.62,2.62,0,0,1,1.76-1.21"/><path class="cls-8" d="M263.9,230.68a5.51,5.51,0,0,1-2.64-.28,7.15,7.15,0,0,0,.58,4.45,11.5,11.5,0,0,0,3.4,4.05,3.46,3.46,0,0,1,2.06-1c-2.63-2.07-3.83-4.63-3.4-7.18"/><path class="cls-8" d="M259.81,228.64c-.7.17-1.42.38-2.08.61-9.94,3.33-13.33,10.69-7.55,16.48a14.28,14.28,0,0,0,1.29,1.13,3.35,3.35,0,0,1,2.05-1c-.32-.27-.69-.58-1-.89-5-5-2.1-11.45,6.55-14.36.54-.18,1.1-.34,1.66-.48a2,2,0,0,1-.85-.83,1.22,1.22,0,0,1-.08-.65"/><path class="cls-8" d="M292.39,223.58c-4.81,1.22-8.64,3.45-10.68,6.24a4.79,4.79,0,0,1,2.58.52c1.77-2.35,5-4.23,9-5.27a1.65,1.65,0,0,1-.94-1.49"/><path class="cls-8" d="M280.54,230a32.59,32.59,0,0,0-14.67-2.27,1.83,1.83,0,0,1,.48.58,1.06,1.06,0,0,1,0,.95,28.27,28.27,0,0,1,12.48,2,1.78,1.78,0,0,1,.82-.84,4.48,4.48,0,0,1,.89-.37"/><path class="cls-8" d="M299.43,232.91a33.22,33.22,0,0,0-14.7-2.27,1.29,1.29,0,0,1,.47,1.55,28.53,28.53,0,0,1,12.43,1.93,2.77,2.77,0,0,1,1.8-1.21"/><path class="cls-8" d="M278.72,231.56c-4.82,1.22-8.67,3.43-10.76,6.22a4.9,4.9,0,0,1,2.55.53c1.82-2.34,5.06-4.22,9.1-5.27a1.49,1.49,0,0,1-.89-1.48"/></g></g></g><polygon class="cls-6" points="447.03 306.6 467.05 306.6 461.04 168.23 454.81 168.23 447.03 306.6"/><path class="cls-6" d="M445.71,159.82c3.71-6.42,9.7-9.9,13.39-7.77a4.32,4.32,0,0,1,1.16,1l15.4,12.82c3.69,2.12,3.67,9,0,15.47s-9.7,9.9-13.38,7.77a4.52,4.52,0,0,1-1.17-1l-15.4-12.82C442,173.17,442,166.24,445.71,159.82Z"/><ellipse class="cls-20" cx="468.95" cy="177.46" rx="13.42" ry="7.7" transform="translate(80.79 494.85) rotate(-60)"/><path class="cls-14" d="M456.54,188.1a23.32,23.32,0,0,1-13.8-5L389,142.91a1.73,1.73,0,0,1-.6-2.24,1.27,1.27,0,0,1,1.73-.42l82.76,38.33L468,183.53A15.88,15.88,0,0,1,456.54,188.1Zm-67.09-47.53a.66.66,0,0,0-.61.35,1.25,1.25,0,0,0,.47,1.6L443,182.76c8.43,6.31,18.54,6.49,24.6.43l4.45-4.46-82.13-38A1.22,1.22,0,0,0,389.45,140.57Z"/><path class="cls-14" d="M469.58,258.34l-.27,0a1.68,1.68,0,0,1-1.38-1.72l4.5-78.8,6.24,4.69c7.76,5.83,11.32,15.64,8.65,23.86l-16.6,51.16A1.16,1.16,0,0,1,469.58,258.34Zm3.28-79.62-4.45,77.89a1.2,1.2,0,0,0,1,1.23.7.7,0,0,0,.86-.49l16.6-51.15c2.6-8-.88-17.63-8.48-23.34Z"/><path class="cls-14" d="M472.29,178.65l-.87-8.44c-1.09-10.67,4.16-19.5,12.78-21.46l53.49-12.2a1.76,1.76,0,0,1,1.24,3.12ZM538,137a.62.62,0,0,0-.19,0l-53.49,12.2c-8.38,1.91-13.48,10.52-12.41,20.94l.79,7.69,66-38.6a1.1,1.1,0,0,0,.31-1.41A1.18,1.18,0,0,0,538,137Z"/><g class="cls-17"><g class="cls-21"><path class="cls-6" d="M471.5,168c-5.14-3-9.31-.59-9.33,5.32s4.13,13.1,9.27,16.07,9.32.58,9.34-5.33-4.14-13.09-9.28-16.06"/></g></g><path class="cls-6" d="M478.91,169.76a.91.91,0,0,1,1.4.26l10,18.73a2.71,2.71,0,0,1-2.66,4l-19.77-2a.92.92,0,0,1-.77-1.22l5-13.9Z"/><ellipse class="cls-6" cx="457.04" cy="306.6" rx="10.01" ry="2.87"/><path class="cls-14" d="M289,375.55a38.26,38.26,0,0,1-19.55-5.35c-13.81-8.19-32.65-19.37-48-28.51L202,330.14c-5.61-3.35-7.34-4.38-7.85-4.78l0,.05c-2.92-1.84-2.53-3.76-2.51-3.85a.36.36,0,0,1,.71.16c0,.07-.27,1.53,2.19,3.08l0,0c.75.49,28.17,16.78,75.31,44.75a37.6,37.6,0,0,0,38,.2l73.44-42.53c.05,0,4.3-2.46,4.38-4.74a.38.38,0,0,1,.37-.35.35.35,0,0,1,.35.37c-.09,2.69-4.55,5.24-4.74,5.35L308.23,370.4A38.25,38.25,0,0,1,289,375.55Z"/><path class="cls-14" d="M288.82,308.42a38.29,38.29,0,0,1-19.55-5.35l-48-28.52L201.81,263c-5.61-3.34-7.34-4.37-7.85-4.78l0,.06c-2.92-1.84-2.53-3.77-2.51-3.85a.36.36,0,0,1,.71.16c0,.06-.26,1.53,2.19,3.08l0,0c.74.48,28.17,16.78,75.31,44.75a37.62,37.62,0,0,0,38,.2L381.1,260.1s4.3-2.45,4.38-4.73a.35.35,0,0,1,.38-.35.36.36,0,0,1,.35.37c-.09,2.69-4.56,5.24-4.75,5.34L308,303.27A38.25,38.25,0,0,1,288.82,308.42Z"/><path class="cls-14" d="M289,304.85a38.27,38.27,0,0,1-19.55-5.36c-13.81-8.19-32.65-19.37-48-28.51L202,259.43c-5.61-3.34-7.34-4.37-7.85-4.78l0,.06c-2.92-1.85-2.53-3.77-2.51-3.85a.36.36,0,0,1,.43-.27.36.36,0,0,1,.28.42c0,.07-.27,1.54,2.19,3.09l0,0c.75.48,28.17,16.78,75.31,44.75a37.62,37.62,0,0,0,38,.2l73.44-42.54c.05,0,4.3-2.45,4.38-4.74a.37.37,0,0,1,.37-.35.37.37,0,0,1,.35.38c-.09,2.69-4.55,5.23-4.74,5.34L308.23,299.7A38.35,38.35,0,0,1,289,304.85Z"/><path class="cls-14" d="M180.21,429.66a.35.35,0,0,1-.31-.19A.35.35,0,0,1,180,429l54.29-31.62a.37.37,0,0,1,.5.13.36.36,0,0,1-.14.5l-54.29,31.62A.41.41,0,0,1,180.21,429.66Z"/><path class="cls-14" d="M176.75,433.87c-2.78,0-5-1.24-5-2.82s2.18-2.82,5-2.82,4.95,1.24,4.95,2.82S179.53,433.87,176.75,433.87Zm0-4.92c-2.3,0-4.23,1-4.23,2.1s1.93,2.1,4.23,2.1,4.23-1,4.23-2.1S179,429,176.75,429Z"/><path class="cls-14" d="M136,410.74c-2.78,0-5-1.24-5-2.82s2.18-2.82,5-2.82,5,1.23,5,2.82S138.76,410.74,136,410.74Zm0-4.92c-2.29,0-4.23,1-4.23,2.1S133.69,410,136,410s4.23-1,4.23-2.09S138.27,405.82,136,405.82Z"/><path class="cls-14" d="M385.27,437.45a.41.41,0,0,1-.18-.05L330,405.73a.37.37,0,0,1-.13-.5.36.36,0,0,1,.49-.13l55.12,31.67a.36.36,0,0,1,.13.49A.34.34,0,0,1,385.27,437.45Z"/><path class="cls-14" d="M387.86,442.37c-2.78,0-4.95-1.24-4.95-2.83s2.17-2.82,4.95-2.82,5,1.24,5,2.82S390.64,442.37,387.86,442.37Zm0-4.92c-2.29,0-4.23,1-4.23,2.09s1.94,2.1,4.23,2.1,4.24-1,4.24-2.1S390.16,437.45,387.86,437.45Z"/><path class="cls-14" d="M400.46,399.26c-2.78,0-5-1.24-5-2.82s2.18-2.82,5-2.82,5,1.24,5,2.82S403.23,399.26,400.46,399.26Zm0-4.91c-2.3,0-4.23,1-4.23,2.09s1.93,2.1,4.23,2.1,4.23-1,4.23-2.1S402.75,394.35,400.46,394.35Z"/><path class="cls-14" d="M138.89,405.82a.37.37,0,0,1-.18-.68l13.65-7.78a.38.38,0,0,1,.36,0L166.4,405l40.42-23.54a.36.36,0,1,1,.37.62l-40.61,23.65a.33.33,0,0,1-.36,0l-13.68-7.68-13.47,7.68A.29.29,0,0,1,138.89,405.82Z"/><path class="cls-14" d="M383.91,406.74a.37.37,0,0,1-.18-.05l-27.4-15.86a.36.36,0,0,1-.13-.49.35.35,0,0,1,.49-.13L383.91,406l13.44-7.82a.37.37,0,0,1,.5.13.36.36,0,0,1-.14.5l-13.62,7.93A.41.41,0,0,1,383.91,406.74Z"/><line class="cls-8" x1="386.12" y1="357.45" x2="447.8" y2="321.64"/><path class="cls-14" d="M386.12,357.82a.37.37,0,0,1-.32-.19.35.35,0,0,1,.14-.49l61.67-35.81a.37.37,0,0,1,.37.63L386.3,357.77A.41.41,0,0,1,386.12,357.82Z"/><path class="cls-14" d="M386.45,332.33a.33.33,0,0,1-.31-.18.36.36,0,0,1,.13-.49l26.86-15.4L400,308.58a.37.37,0,1,1,.37-.63l13.7,8a.35.35,0,0,1,.18.31.37.37,0,0,1-.19.32l-27.4,15.7A.31.31,0,0,1,386.45,332.33Z"/><path class="cls-14" d="M450.81,322.58c-2.78,0-5-1.24-5-2.83s2.18-2.82,5-2.82,4.95,1.24,4.95,2.82S453.59,322.58,450.81,322.58Zm0-4.92c-2.3,0-4.24,1-4.24,2.09s1.94,2.1,4.24,2.1,4.23-1,4.23-2.1S453.1,317.66,450.81,317.66Z"/><path class="cls-14" d="M396.86,309.31c-2.78,0-5-1.24-5-2.82s2.18-2.82,5-2.82,5,1.24,5,2.82S399.64,309.31,396.86,309.31Zm0-4.91c-2.29,0-4.23,1-4.23,2.09s1.94,2.1,4.23,2.1,4.23-1,4.23-2.1S399.15,304.4,396.86,304.4Z"/><path class="cls-14" d="M180.06,285.82a.37.37,0,0,1,.5.13.36.36,0,0,1-.13.49l-13.16,7.68,26.86,15.4a.37.37,0,0,1-.18.68.37.37,0,0,1-.18-.05l-27.41-15.71a.35.35,0,0,1-.18-.31.38.38,0,0,1,.18-.32"/><path class="cls-14" d="M183.54,287.18c-2.78,0-5-1.24-5-2.82s2.18-2.83,5-2.83,5,1.24,5,2.83S186.32,287.18,183.54,287.18Zm0-4.92c-2.3,0-4.23,1-4.23,2.1s1.93,2.09,4.23,2.09,4.23-1,4.23-2.09S185.83,282.26,183.54,282.26Z"/><line class="cls-8" x1="191.65" y1="335.47" x2="129.97" y2="299.67"/><path class="cls-14" d="M191.65,335.84a.37.37,0,0,1-.18,0L129.79,300a.36.36,0,0,1,.36-.63l61.68,35.81a.37.37,0,0,1-.18.68Z"/><path class="cls-14" d="M127,300.6c-2.78,0-5-1.24-5-2.82s2.18-2.83,5-2.83,5,1.24,5,2.83S129.74,300.6,127,300.6Zm0-4.92c-2.29,0-4.23,1-4.23,2.1s1.94,2.09,4.23,2.09,4.23-1,4.23-2.09S129.26,295.68,127,295.68Z"/><path class="cls-14" d="M324.87,246a.36.36,0,0,1-.36-.36V234a.36.36,0,0,1,.36-.36.37.37,0,0,1,.37.36v11.61A.37.37,0,0,1,324.87,246Zm0-23.21a.36.36,0,0,1-.36-.36v-11.6a.36.36,0,0,1,.36-.36.37.37,0,0,1,.37.36v11.6A.37.37,0,0,1,324.87,222.78Zm0-23.2a.36.36,0,0,1-.36-.36v-11.6a.37.37,0,0,1,.36-.37.38.38,0,0,1,.37.37v11.6A.37.37,0,0,1,324.87,199.58Z"/><path class="cls-14" d="M248.77,225.18a.36.36,0,0,1-.36-.36V213.21a.36.36,0,0,1,.36-.36.37.37,0,0,1,.37.36v11.61A.37.37,0,0,1,248.77,225.18Zm0-23.21a.36.36,0,0,1-.36-.36V190a.36.36,0,0,1,.36-.36.37.37,0,0,1,.37.36v11.6A.37.37,0,0,1,248.77,202Zm0-23.2a.36.36,0,0,1-.36-.36v-11.6a.37.37,0,0,1,.36-.37.38.38,0,0,1,.37.37v11.6A.37.37,0,0,1,248.77,178.77Zm0-23.2a.37.37,0,0,1-.36-.37V143.6a.36.36,0,0,1,.36-.36.37.37,0,0,1,.37.36v11.6A.38.38,0,0,1,248.77,155.57Z"/><circle class="cls-22" cx="166.54" cy="404.32" r="9.87"/><circle class="cls-9" cx="166.54" cy="404.32" r="5.69"/><circle class="cls-22" cx="432.68" cy="330.54" r="9.87"/><circle class="cls-9" cx="432.68" cy="330.54" r="5.69"/><rect class="cls-1" x="-1.46" y="-0.99" width="540" height="540"/></svg>