<?xml version="1.0" encoding="UTF-8"?>
<svg width="572px" height="381px" viewBox="0 0 572 381" version="1.1" xmlns="http://www.w3.org/2000/svg" xmlns:xlink="http://www.w3.org/1999/xlink">
    <g id="Page-1" stroke="none" stroke-width="1" fill="none" fill-rule="evenodd">
        <g id="/product-copy" transform="translate(-165.000000, -4796.000000)">
            <g id="router-section" transform="translate(165.000000, 4796.000000)">
                <g id="Group-37">
                    <g id="Group-5">
                        <g id="Group-20">
                            <g id="Group-10">
                                <g id="Group-27-Copy" transform="translate(30.000000, 30.000000)">
                                    <rect id="Rectangle-Copy-13" fill-opacity="0.06" fill="#25B8E4" x="0" y="131" width="316" height="59" rx="10"></rect>
                                    <g id="Group-48">
                                        <rect id="Rectangle-Copy-20" fill-opacity="0.06" fill="#25B8E4" x="0" y="0" width="316" height="59" rx="10"></rect>
                                        <g id="Group-50" transform="translate(40.000000, 21.000000)" fill-rule="nonzero">
                                            <path d="M19.35,7.03 C18.67,3.59 15.64,1 12,1 C9.11,1 6.6,2.64 5.35,5.03 C2.34,5.36 0,7.9 0,11 C0,14.3137085 2.6862915,17 6,17 L19,17 C20.3260824,17 21.597852,16.4732158 22.5355339,15.5355339 C23.4732158,14.597852 24,13.3260824 24,12 C24,9.36 21.95,7.22 19.35,7.03 Z" id="Path" fill="#00BAE9"></path>
                                            <path d="M48.784,14.192 C50.1706667,14.192 51.192,13.6906667 51.848,12.688 C52.504,11.6853333 52.832,10.256 52.832,8.4 C52.832,7.52533333 52.7626667,6.73333333 52.624,6.024 C52.4853333,5.31466667 52.256,4.70666667 51.936,4.2 C51.616,3.69333333 51.1973333,3.30133333 50.68,3.024 C50.1626667,2.74666667 49.5306667,2.608 48.784,2.608 C47.4186667,2.608 46.408,3.10933333 45.752,4.112 C45.096,5.11466667 44.768,6.544 44.768,8.4 C44.768,9.27466667 44.8373333,10.0666667 44.976,10.776 C45.1146667,11.4853333 45.344,12.0933333 45.664,12.6 C45.984,13.1066667 46.4,13.4986667 46.912,13.776 C47.424,14.0533333 48.048,14.192 48.784,14.192 Z M48.784,13.008 C48.272,13.008 47.8506667,12.8826667 47.52,12.632 C47.1893333,12.3813333 46.9226667,12.0453333 46.72,11.624 C46.5173333,11.2026667 46.376,10.7146667 46.296,10.16 C46.216,9.60533333 46.176,9.01866667 46.176,8.4 C46.176,6.832 46.384,5.672 46.8,4.92 C47.216,4.168 47.8773333,3.792 48.784,3.792 C49.296,3.792 49.7226667,3.91733333 50.064,4.168 C50.4053333,4.41866667 50.6773333,4.75466667 50.88,5.176 C51.0826667,5.59733333 51.224,6.088 51.304,6.648 C51.384,7.208 51.424,7.792 51.424,8.4 C51.424,9.97866667 51.2133333,11.1413333 50.792,11.888 C50.3706667,12.6346667 49.7013333,13.008 48.784,13.008 Z M58.784,14.192 C59.2,14.192 59.5866667,14.1546667 59.944,14.08 C60.3013333,14.0053333 60.6266667,13.9066667 60.92,13.784 C61.2133333,13.6613333 61.472,13.5306667 61.696,13.392 C61.92,13.2533333 62.1066667,13.12 62.256,12.992 L62.256,12.992 L61.696,12.064 C61.376,12.3413333 60.9786667,12.5653333 60.504,12.736 C60.0293333,12.9066667 59.5413333,12.992 59.04,12.992 C58.5706667,12.992 58.1413333,12.9226667 57.752,12.784 C57.3626667,12.6453333 57.0293333,12.448 56.752,12.192 C56.4746667,11.936 56.2613333,11.624 56.112,11.256 C55.9626667,10.888 55.888,10.4693333 55.888,10 C55.888,8.93333333 56.144,8.15466667 56.656,7.664 C57.168,7.17333333 57.9466667,6.928 58.992,6.928 C59.2693333,6.928 59.5493333,6.95733333 59.832,7.016 C60.1146667,7.07466667 60.3786667,7.14666667 60.624,7.232 L60.624,7.232 L60.624,8.752 L61.776,8.752 L61.776,6.528 L61.792,6.48 C61.4506667,6.30933333 61.032,6.15466667 60.536,6.016 C60.04,5.87733333 59.3973333,5.808 58.608,5.808 C57.9893333,5.808 57.4293333,5.90133333 56.928,6.088 C56.4266667,6.27466667 56,6.544 55.648,6.896 C55.296,7.248 55.0266667,7.68533333 54.84,8.208 C54.6533333,8.73066667 54.56,9.328 54.56,10 C54.56,10.6293333 54.6506667,11.2026667 54.832,11.72 C55.0133333,12.2373333 55.28,12.68 55.632,13.048 C55.984,13.416 56.424,13.6986667 56.952,13.896 C57.48,14.0933333 58.0906667,14.192 58.784,14.192 Z M66.176,14 L66.176,10.384 L67.056,10.384 L70.48,14 L72.128,14 L72.128,12.928 L71.088,12.928 L68.176,9.792 L71.712,6 L70.208,6 L67.056,9.424 L66.176,9.424 L66.176,2.8 L63.584,2.8 L63.584,3.872 L64.944,3.872 L64.944,14 L66.176,14 Z M76.56,14.144 C76.9653333,14.144 77.3173333,14.0906667 77.616,13.984 C77.9146667,13.8773333 78.168,13.752 78.376,13.608 C78.584,13.464 78.752,13.3173333 78.88,13.168 C79.008,13.0186667 79.104,12.896 79.168,12.8 L79.168,12.8 L79.248,12.8 L79.392,14 L81.52,14 L81.52,12.96 L80.448,12.96 C80.384,12.48 80.352,11.9733333 80.352,11.44 C80.3626667,10.9813333 80.3786667,10.5226667 80.4,10.064 C80.4213333,9.60533333 80.432,9.17333333 80.432,8.768 C80.432,8.416 80.3973333,8.06666667 80.328,7.72 C80.2586667,7.37333333 80.1253333,7.064 79.928,6.792 C79.7306667,6.52 79.4586667,6.29866667 79.112,6.128 C78.7653333,5.95733333 78.32,5.872 77.776,5.872 C77.2213333,5.872 76.656,5.93066667 76.08,6.048 C75.504,6.16533333 74.9866667,6.35733333 74.528,6.624 L74.528,6.624 L74.928,7.552 C75.2693333,7.41333333 75.6586667,7.27733333 76.096,7.144 C76.5333333,7.01066667 76.992,6.944 77.472,6.944 C77.824,6.944 78.12,6.984 78.36,7.064 C78.6,7.144 78.7866667,7.28 78.92,7.472 C79.0533333,7.664 79.1386667,7.92266667 79.176,8.248 C79.2133333,8.57333333 79.2053333,8.98133333 79.152,9.472 C78.3626667,9.35466667 77.6506667,9.312 77.016,9.344 C76.3813333,9.376 75.84,9.488 75.392,9.68 C74.944,9.872 74.6,10.1493333 74.36,10.512 C74.12,10.8746667 74,11.328 74,11.872 C74,12.576 74.2293333,13.1306667 74.688,13.536 C75.1466667,13.9413333 75.7706667,14.144 76.56,14.144 Z M76.88,13.072 C76.3146667,13.072 75.912,12.9413333 75.672,12.68 C75.432,12.4186667 75.312,12.112 75.312,11.76 C75.312,11.4186667 75.408,11.1413333 75.6,10.928 C75.792,10.7146667 76.0586667,10.5573333 76.4,10.456 C76.7413333,10.3546667 77.1466667,10.304 77.616,10.304 C78.0853333,10.304 78.5973333,10.352 79.152,10.448 L79.152,10.448 L79.152,11.568 C79.088,11.728 78.992,11.896 78.864,12.072 C78.736,12.248 78.576,12.4106667 78.384,12.56 C78.192,12.7093333 77.968,12.832 77.712,12.928 C77.456,13.024 77.1786667,13.072 76.88,13.072 Z M84.272,14 L84.272,8.496 C84.4,8.048 84.5893333,7.67466667 84.84,7.376 C85.0906667,7.07733333 85.3973333,6.928 85.76,6.928 C85.9413333,6.928 86.088,6.976 86.2,7.072 C86.312,7.168 86.3973333,7.29866667 86.456,7.464 C86.5146667,7.62933333 86.552,7.816 86.568,8.024 C86.584,8.232 86.592,8.448 86.592,8.672 L86.592,8.672 L86.592,14 L87.808,14 L87.808,8.656 C87.936,8.10133333 88.128,7.67466667 88.384,7.376 C88.64,7.07733333 88.9546667,6.928 89.328,6.928 C89.4986667,6.928 89.6346667,6.97066667 89.736,7.056 C89.8373333,7.14133333 89.9173333,7.25866667 89.976,7.408 C90.0346667,7.55733333 90.0746667,7.73066667 90.096,7.928 C90.1173333,8.12533333 90.128,8.336 90.128,8.56 L90.128,8.56 L90.128,14 L91.344,14 L91.344,8.288 C91.344,7.91466667 91.32,7.576 91.272,7.272 C91.224,6.968 91.1386667,6.70666667 91.016,6.488 C90.8933333,6.26933333 90.7226667,6.10133333 90.504,5.984 C90.2853333,5.86666667 90,5.808 89.648,5.808 C89.1146667,5.808 88.696,5.92533333 88.392,6.16 C88.088,6.39466667 87.8133333,6.72 87.568,7.136 C87.536,6.89066667 87.4666667,6.68266667 87.36,6.512 C87.2533333,6.34133333 87.128,6.20533333 86.984,6.104 C86.84,6.00266667 86.6826667,5.928 86.512,5.88 C86.3413333,5.832 86.176,5.808 86.016,5.808 C85.7386667,5.808 85.5093333,5.83733333 85.328,5.896 C85.1466667,5.95466667 84.9893333,6.03733333 84.856,6.144 C84.7226667,6.25066667 84.6053333,6.376 84.504,6.52 C84.4026667,6.664 84.2986667,6.816 84.192,6.976 L84.192,6.976 L84.128,6.976 L83.888,6 L83.056,6 L83.056,14 L84.272,14 Z M104.528,14 L104.528,9.072 L106.528,9.072 L109.168,14 L110.72,14 L107.76,8.688 C107.92,8.624 108.112,8.51733333 108.336,8.368 C108.56,8.21866667 108.776,8.024 108.984,7.784 C109.192,7.544 109.368,7.256 109.512,6.92 C109.656,6.584 109.728,6.19733333 109.728,5.76 C109.728,5.19466667 109.626667,4.71466667 109.424,4.32 C109.221333,3.92533333 108.952,3.60533333 108.616,3.36 C108.28,3.11466667 107.890667,2.93866667 107.448,2.832 C107.005333,2.72533333 106.538667,2.672 106.048,2.672 C105.610667,2.672 105.128,2.69333333 104.6,2.736 C104.072,2.77866667 103.605333,2.83733333 103.2,2.912 L103.2,2.912 L103.2,14 L104.528,14 Z M105.776,8.048 L104.528,8.048 L104.528,3.92 C104.602667,3.89866667 104.701333,3.88266667 104.824,3.872 C104.946667,3.86133333 105.077333,3.85066667 105.216,3.84 C105.354667,3.82933333 105.498667,3.824 105.648,3.824 L105.648,3.824 L106.08,3.824 C106.784,3.824 107.333333,4.01066667 107.728,4.384 C108.122667,4.75733333 108.32,5.232 108.32,5.808 C108.32,6.576 108.08,7.14133333 107.6,7.504 C107.12,7.86666667 106.512,8.048 105.776,8.048 L105.776,8.048 Z M116,14.192 C116.618667,14.192 117.170667,14.0933333 117.656,13.896 C118.141333,13.6986667 118.549333,13.4186667 118.88,13.056 C119.210667,12.6933333 119.461333,12.2533333 119.632,11.736 C119.802667,11.2186667 119.888,10.64 119.888,10 C119.888,9.41333333 119.810667,8.864 119.656,8.352 C119.501333,7.84 119.264,7.39733333 118.944,7.024 C118.624,6.65066667 118.221333,6.35466667 117.736,6.136 C117.250667,5.91733333 116.672,5.808 116,5.808 C114.752,5.808 113.792,6.184 113.12,6.936 C112.448,7.688 112.112,8.70933333 112.112,10 C112.112,10.5866667 112.189333,11.136 112.344,11.648 C112.498667,12.16 112.736,12.6026667 113.056,12.976 C113.376,13.3493333 113.781333,13.6453333 114.272,13.864 C114.762667,14.0826667 115.338667,14.192 116,14.192 Z M116,13.12 C115.530667,13.12 115.133333,13.0293333 114.808,12.848 C114.482667,12.6666667 114.218667,12.4266667 114.016,12.128 C113.813333,11.8293333 113.666667,11.4933333 113.576,11.12 C113.485333,10.7466667 113.44,10.3733333 113.44,10 C113.44,8.96533333 113.653333,8.18666667 114.08,7.664 C114.506667,7.14133333 115.146667,6.88 116,6.88 C116.469333,6.88 116.866667,6.97066667 117.192,7.152 C117.517333,7.33333333 117.784,7.57333333 117.992,7.872 C118.2,8.17066667 118.349333,8.504 118.44,8.872 C118.530667,9.24 118.576,9.616 118.576,10 C118.576,11.024 118.36,11.8 117.928,12.328 C117.496,12.856 116.853333,13.12 116,13.12 Z M125.04,14.192 C125.690667,14.192 126.245333,14.048 126.704,13.76 C127.162667,13.472 127.530667,13.0986667 127.808,12.64 L127.808,12.64 L127.872,12.64 L127.92,14 L130.048,14 L130.048,12.96 L128.976,12.96 C128.912,12.48 128.88,11.9786667 128.88,11.456 L128.88,11.456 L128.88,6 L126.608,6 L126.608,7.072 L127.632,7.072 L127.632,11.216 C127.418667,11.76 127.106667,12.2133333 126.696,12.576 C126.285333,12.9386667 125.802667,13.12 125.248,13.12 C124.864,13.12 124.557333,13.0586667 124.328,12.936 C124.098667,12.8133333 123.925333,12.632 123.808,12.392 C123.690667,12.152 123.613333,11.8586667 123.576,11.512 C123.538667,11.1653333 123.52,10.7733333 123.52,10.336 L123.52,10.336 L123.52,6 L121.2,6 L121.2,7.072 L122.272,7.072 L122.272,10.592 C122.272,11.2853333 122.325333,11.864 122.432,12.328 C122.538667,12.792 122.704,13.1626667 122.928,13.44 C123.152,13.7173333 123.437333,13.912 123.784,14.024 C124.130667,14.136 124.549333,14.192 125.04,14.192 Z M135.952,14.208 C136.496,14.208 137.026667,14.1173333 137.544,13.936 C138.061333,13.7546667 138.506667,13.5146667 138.88,13.216 L138.88,13.216 L138.464,12.272 C138.176,12.4853333 137.853333,12.6826667 137.496,12.864 C137.138667,13.0453333 136.72,13.136 136.24,13.136 C135.536,13.136 134.994667,12.9493333 134.616,12.576 C134.237333,12.2026667 134.048,11.6266667 134.048,10.848 L134.048,10.848 L134.048,7.072 L138.32,7.072 L138.32,6 L134.048,6 L134.048,4.064 L132.8,4.416 L132.8,6 L130.896,6 L130.896,7.072 L132.8,7.072 L132.8,11.04 C132.8,11.5946667 132.885333,12.072 133.056,12.472 C133.226667,12.872 133.456,13.2 133.744,13.456 C134.032,13.712 134.365333,13.9013333 134.744,14.024 C135.122667,14.1466667 135.525333,14.208 135.952,14.208 Z M144.944,14.192 C145.285333,14.192 145.624,14.1626667 145.96,14.104 C146.296,14.0453333 146.618667,13.9626667 146.928,13.856 C147.237333,13.7493333 147.522667,13.6213333 147.784,13.472 C148.045333,13.3226667 148.272,13.1626667 148.464,12.992 L148.464,12.992 L147.968,12.08 C147.861333,12.176 147.709333,12.2826667 147.512,12.4 C147.314667,12.5173333 147.088,12.624 146.832,12.72 C146.576,12.816 146.306667,12.8986667 146.024,12.968 C145.741333,13.0373333 145.456,13.072 145.168,13.072 C144.304,13.072 143.613333,12.8346667 143.096,12.36 C142.578667,11.8853333 142.32,11.168 142.32,10.208 L142.32,10.208 L148.512,10.208 C148.565333,9.30133333 148.501333,8.56266667 148.32,7.992 C148.138667,7.42133333 147.88,6.97333333 147.544,6.648 C147.208,6.32266667 146.821333,6.10133333 146.384,5.984 C145.946667,5.86666667 145.504,5.808 145.056,5.808 C144.437333,5.808 143.877333,5.90133333 143.376,6.088 C142.874667,6.27466667 142.448,6.544 142.096,6.896 C141.744,7.248 141.474667,7.68533333 141.288,8.208 C141.101333,8.73066667 141.008,9.328 141.008,10 C141.008,10.64 141.093333,11.216 141.264,11.728 C141.434667,12.24 141.685333,12.68 142.016,13.048 C142.346667,13.416 142.757333,13.6986667 143.248,13.896 C143.738667,14.0933333 144.304,14.192 144.944,14.192 Z M147.344,9.088 L142.368,9.088 C142.410667,8.672 142.509333,8.32266667 142.664,8.04 C142.818667,7.75733333 143.016,7.528 143.256,7.352 C143.496,7.176 143.773333,7.05066667 144.088,6.976 C144.402667,6.90133333 144.736,6.864 145.088,6.864 C145.738667,6.864 146.264,7.05866667 146.664,7.448 C147.064,7.83733333 147.290667,8.384 147.344,9.088 L147.344,9.088 Z M157.12,14 L157.12,12.928 L154.048,12.928 L154.048,8.208 C154.112,8.112 154.213333,7.99466667 154.352,7.856 C154.490667,7.71733333 154.658667,7.57866667 154.856,7.44 C155.053333,7.30133333 155.285333,7.184 155.552,7.088 C155.818667,6.992 156.117333,6.944 156.448,6.944 C156.8,6.944 157.042667,7.104 157.176,7.424 C157.309333,7.744 157.376,8.24533333 157.376,8.928 L157.376,8.928 L158.496,8.912 C158.496,8.432 158.474667,8.00266667 158.432,7.624 C158.389333,7.24533333 158.306667,6.92266667 158.184,6.656 C158.061333,6.38933333 157.890667,6.18666667 157.672,6.048 C157.453333,5.90933333 157.162667,5.84 156.8,5.84 C156.181333,5.84 155.648,5.95733333 155.2,6.192 C154.752,6.42666667 154.346667,6.70933333 153.984,7.04 L153.984,7.04 L153.904,7.04 L153.648,6 L150.656,6 L150.656,7.072 L152.816,7.072 L152.816,12.928 L150.656,12.928 L150.656,14 L157.12,14 Z M173.536,14.192 C174.133333,14.192 174.669333,14.1173333 175.144,13.968 C175.618667,13.8186667 176.018667,13.6053333 176.344,13.328 C176.669333,13.0506667 176.92,12.72 177.096,12.336 C177.272,11.952 177.36,11.52 177.36,11.04 C177.36,10.4533333 177.213333,9.96266667 176.92,9.568 C176.626667,9.17333333 176.261333,8.83466667 175.824,8.552 C175.386667,8.26933333 174.912,8.02133333 174.4,7.808 C173.888,7.59466667 173.413333,7.37866667 172.976,7.16 C172.538667,6.94133333 172.173333,6.69333333 171.88,6.416 C171.586667,6.13866667 171.44,5.792 171.44,5.376 C171.44,5.16266667 171.493333,4.96 171.6,4.768 C171.706667,4.576 171.858667,4.408 172.056,4.264 C172.253333,4.12 172.493333,4.00533333 172.776,3.92 C173.058667,3.83466667 173.376,3.792 173.728,3.792 C174.090667,3.792 174.432,3.81333333 174.752,3.856 C175.072,3.89866667 175.365333,3.952 175.632,4.016 L175.632,4.016 L175.632,5.728 L176.816,5.728 L176.816,3.168 L176.832,3.12 L176.816,3.12 L176.816,3.088 L176.784,3.104 C176.474667,2.95466667 176.058667,2.83466667 175.536,2.744 C175.013333,2.65333333 174.432,2.608 173.792,2.608 C173.237333,2.608 172.733333,2.67466667 172.28,2.808 C171.826667,2.94133333 171.44,3.13066667 171.12,3.376 C170.8,3.62133333 170.552,3.92 170.376,4.272 C170.2,4.624 170.112,5.01866667 170.112,5.456 C170.112,6.07466667 170.258667,6.584 170.552,6.984 C170.845333,7.384 171.210667,7.72266667 171.648,8 C172.085333,8.27733333 172.56,8.51733333 173.072,8.72 C173.584,8.92266667 174.058667,9.13066667 174.496,9.344 C174.933333,9.55733333 175.298667,9.80266667 175.592,10.08 C175.885333,10.3573333 176.032,10.7146667 176.032,11.152 C176.032,11.472 175.965333,11.7493333 175.832,11.984 C175.698667,12.2186667 175.517333,12.4133333 175.288,12.568 C175.058667,12.7226667 174.789333,12.8346667 174.48,12.904 C174.170667,12.9733333 173.84,13.008 173.488,13.008 C173.082667,13.008 172.68,12.952 172.28,12.84 C171.88,12.728 171.52,12.5866667 171.2,12.416 L171.2,12.416 L171.2,10.64 L170.016,10.64 L170.016,13.232 L170,13.28 C170.138667,13.3546667 170.328,13.4453333 170.568,13.552 C170.808,13.6586667 171.08,13.76 171.384,13.856 C171.688,13.952 172.021333,14.032 172.384,14.096 C172.746667,14.16 173.130667,14.192 173.536,14.192 Z M183.344,14.192 C183.685333,14.192 184.024,14.1626667 184.36,14.104 C184.696,14.0453333 185.018667,13.9626667 185.328,13.856 C185.637333,13.7493333 185.922667,13.6213333 186.184,13.472 C186.445333,13.3226667 186.672,13.1626667 186.864,12.992 L186.864,12.992 L186.368,12.08 C186.261333,12.176 186.109333,12.2826667 185.912,12.4 C185.714667,12.5173333 185.488,12.624 185.232,12.72 C184.976,12.816 184.706667,12.8986667 184.424,12.968 C184.141333,13.0373333 183.856,13.072 183.568,13.072 C182.704,13.072 182.013333,12.8346667 181.496,12.36 C180.978667,11.8853333 180.72,11.168 180.72,10.208 L180.72,10.208 L186.912,10.208 C186.965333,9.30133333 186.901333,8.56266667 186.72,7.992 C186.538667,7.42133333 186.28,6.97333333 185.944,6.648 C185.608,6.32266667 185.221333,6.10133333 184.784,5.984 C184.346667,5.86666667 183.904,5.808 183.456,5.808 C182.837333,5.808 182.277333,5.90133333 181.776,6.088 C181.274667,6.27466667 180.848,6.544 180.496,6.896 C180.144,7.248 179.874667,7.68533333 179.688,8.208 C179.501333,8.73066667 179.408,9.328 179.408,10 C179.408,10.64 179.493333,11.216 179.664,11.728 C179.834667,12.24 180.085333,12.68 180.416,13.048 C180.746667,13.416 181.157333,13.6986667 181.648,13.896 C182.138667,14.0933333 182.704,14.192 183.344,14.192 Z M185.744,9.088 L180.768,9.088 C180.810667,8.672 180.909333,8.32266667 181.064,8.04 C181.218667,7.75733333 181.416,7.528 181.656,7.352 C181.896,7.176 182.173333,7.05066667 182.488,6.976 C182.802667,6.90133333 183.136,6.864 183.488,6.864 C184.138667,6.864 184.664,7.05866667 185.064,7.448 C185.464,7.83733333 185.690667,8.384 185.744,9.088 L185.744,9.088 Z M195.52,14 L195.52,12.928 L192.448,12.928 L192.448,8.208 C192.512,8.112 192.613333,7.99466667 192.752,7.856 C192.890667,7.71733333 193.058667,7.57866667 193.256,7.44 C193.453333,7.30133333 193.685333,7.184 193.952,7.088 C194.218667,6.992 194.517333,6.944 194.848,6.944 C195.2,6.944 195.442667,7.104 195.576,7.424 C195.709333,7.744 195.776,8.24533333 195.776,8.928 L195.776,8.928 L196.896,8.912 C196.896,8.432 196.874667,8.00266667 196.832,7.624 C196.789333,7.24533333 196.706667,6.92266667 196.584,6.656 C196.461333,6.38933333 196.290667,6.18666667 196.072,6.048 C195.853333,5.90933333 195.562667,5.84 195.2,5.84 C194.581333,5.84 194.048,5.95733333 193.6,6.192 C193.152,6.42666667 192.746667,6.70933333 192.384,7.04 L192.384,7.04 L192.304,7.04 L192.048,6 L189.056,6 L189.056,7.072 L191.216,7.072 L191.216,12.928 L189.056,12.928 L189.056,14 L195.52,14 Z M203.136,14 L206.512,6 L205.12,6 L202.608,12.448 L202.432,12.448 L199.76,6 L198.288,6 L201.728,14 L203.136,14 Z M212.256,4.72 C212.565333,4.72 212.824,4.624 213.032,4.432 C213.24,4.24 213.344,4.00533333 213.344,3.728 C213.344,3.44 213.24,3.192 213.032,2.984 C212.824,2.776 212.565333,2.672 212.256,2.672 C211.957333,2.672 211.712,2.776 211.52,2.984 C211.328,3.192 211.232,3.44 211.232,3.728 C211.232,4.00533333 211.328,4.24 211.52,4.432 C211.712,4.624 211.957333,4.72 212.256,4.72 Z M215.664,14 L215.664,12.928 L212.944,12.928 L212.944,6 L208.88,6 L208.88,7.072 L211.664,7.072 L211.664,12.928 L208.88,12.928 L208.88,14 L215.664,14 Z M221.984,14.192 C222.4,14.192 222.786667,14.1546667 223.144,14.08 C223.501333,14.0053333 223.826667,13.9066667 224.12,13.784 C224.413333,13.6613333 224.672,13.5306667 224.896,13.392 C225.12,13.2533333 225.306667,13.12 225.456,12.992 L225.456,12.992 L224.896,12.064 C224.576,12.3413333 224.178667,12.5653333 223.704,12.736 C223.229333,12.9066667 222.741333,12.992 222.24,12.992 C221.770667,12.992 221.341333,12.9226667 220.952,12.784 C220.562667,12.6453333 220.229333,12.448 219.952,12.192 C219.674667,11.936 219.461333,11.624 219.312,11.256 C219.162667,10.888 219.088,10.4693333 219.088,10 C219.088,8.93333333 219.344,8.15466667 219.856,7.664 C220.368,7.17333333 221.146667,6.928 222.192,6.928 C222.469333,6.928 222.749333,6.95733333 223.032,7.016 C223.314667,7.07466667 223.578667,7.14666667 223.824,7.232 L223.824,7.232 L223.824,8.752 L224.976,8.752 L224.976,6.528 L224.992,6.48 C224.650667,6.30933333 224.232,6.15466667 223.736,6.016 C223.24,5.87733333 222.597333,5.808 221.808,5.808 C221.189333,5.808 220.629333,5.90133333 220.128,6.088 C219.626667,6.27466667 219.2,6.544 218.848,6.896 C218.496,7.248 218.226667,7.68533333 218.04,8.208 C217.853333,8.73066667 217.76,9.328 217.76,10 C217.76,10.6293333 217.850667,11.2026667 218.032,11.72 C218.213333,12.2373333 218.48,12.68 218.832,13.048 C219.184,13.416 219.624,13.6986667 220.152,13.896 C220.68,14.0933333 221.290667,14.192 221.984,14.192 Z M231.344,14.192 C231.685333,14.192 232.024,14.1626667 232.36,14.104 C232.696,14.0453333 233.018667,13.9626667 233.328,13.856 C233.637333,13.7493333 233.922667,13.6213333 234.184,13.472 C234.445333,13.3226667 234.672,13.1626667 234.864,12.992 L234.864,12.992 L234.368,12.08 C234.261333,12.176 234.109333,12.2826667 233.912,12.4 C233.714667,12.5173333 233.488,12.624 233.232,12.72 C232.976,12.816 232.706667,12.8986667 232.424,12.968 C232.141333,13.0373333 231.856,13.072 231.568,13.072 C230.704,13.072 230.013333,12.8346667 229.496,12.36 C228.978667,11.8853333 228.72,11.168 228.72,10.208 L228.72,10.208 L234.912,10.208 C234.965333,9.30133333 234.901333,8.56266667 234.72,7.992 C234.538667,7.42133333 234.28,6.97333333 233.944,6.648 C233.608,6.32266667 233.221333,6.10133333 232.784,5.984 C232.346667,5.86666667 231.904,5.808 231.456,5.808 C230.837333,5.808 230.277333,5.90133333 229.776,6.088 C229.274667,6.27466667 228.848,6.544 228.496,6.896 C228.144,7.248 227.874667,7.68533333 227.688,8.208 C227.501333,8.73066667 227.408,9.328 227.408,10 C227.408,10.64 227.493333,11.216 227.664,11.728 C227.834667,12.24 228.085333,12.68 228.416,13.048 C228.746667,13.416 229.157333,13.6986667 229.648,13.896 C230.138667,14.0933333 230.704,14.192 231.344,14.192 Z M233.744,9.088 L228.768,9.088 C228.810667,8.672 228.909333,8.32266667 229.064,8.04 C229.218667,7.75733333 229.416,7.528 229.656,7.352 C229.896,7.176 230.173333,7.05066667 230.488,6.976 C230.802667,6.90133333 231.136,6.864 231.488,6.864 C232.138667,6.864 232.664,7.05866667 233.064,7.448 C233.464,7.83733333 233.690667,8.384 233.744,9.088 L233.744,9.088 Z" id="OckamRouterService" fill="#25B8E4"></path>
                                        </g>
                                    </g>
                                    <g id="icon/transfer" transform="translate(142.000000, 79.000000)" fill="#00BAE9" fill-rule="nonzero">
                                        <path d="M12,4 L6.66666667,9.33333333 L10.6666667,9.33333333 L10.6666667,18.6666667 L13.3333333,18.6666667 L13.3333333,9.33333333 L17.3333333,9.33333333 M21.3333333,22.6666667 L21.3333333,13.3333333 L18.6666667,13.3333333 L18.6666667,22.6666667 L14.6666667,22.6666667 L20,28 L25.3333333,22.6666667 L21.3333333,22.6666667 Z" id="Shape"></path>
                                    </g>
                                    <g id="icon/transfer" transform="translate(355.000000, 160.000000) rotate(-270.000000) translate(-355.000000, -160.000000) translate(339.000000, 144.000000)" fill="#00BAE9" fill-rule="nonzero">
                                        <path d="M12,4 L6.66666667,9.33333333 L10.6666667,9.33333333 L10.6666667,18.6666667 L13.3333333,18.6666667 L13.3333333,9.33333333 L17.3333333,9.33333333 M21.3333333,22.6666667 L21.3333333,13.3333333 L18.6666667,13.3333333 L18.6666667,22.6666667 L14.6666667,22.6666667 L20,28 L25.3333333,22.6666667 L21.3333333,22.6666667 Z" id="Shape"></path>
                                    </g>
                                    <rect id="Rectangle-Copy-19" fill-opacity="0.06" fill="#25B8E4" x="394" y="131" width="118" height="59" rx="10"></rect>
                                    <path d="M90.284,166.192 C91.6706667,166.192 92.692,165.690667 93.348,164.688 C94.004,163.685333 94.332,162.256 94.332,160.4 C94.332,159.525333 94.2626667,158.733333 94.124,158.024 C93.9853333,157.314667 93.756,156.706667 93.436,156.2 C93.116,155.693333 92.6973333,155.301333 92.18,155.024 C91.6626667,154.746667 91.0306667,154.608 90.284,154.608 C88.9186667,154.608 87.908,155.109333 87.252,156.112 C86.596,157.114667 86.268,158.544 86.268,160.4 C86.268,161.274667 86.3373333,162.066667 86.476,162.776 C86.6146667,163.485333 86.844,164.093333 87.164,164.6 C87.484,165.106667 87.9,165.498667 88.412,165.776 C88.924,166.053333 89.548,166.192 90.284,166.192 Z M90.284,165.008 C89.772,165.008 89.3506667,164.882667 89.02,164.632 C88.6893333,164.381333 88.4226667,164.045333 88.22,163.624 C88.0173333,163.202667 87.876,162.714667 87.796,162.16 C87.716,161.605333 87.676,161.018667 87.676,160.4 C87.676,158.832 87.884,157.672 88.3,156.92 C88.716,156.168 89.3773333,155.792 90.284,155.792 C90.796,155.792 91.2226667,155.917333 91.564,156.168 C91.9053333,156.418667 92.1773333,156.754667 92.38,157.176 C92.5826667,157.597333 92.724,158.088 92.804,158.648 C92.884,159.208 92.924,159.792 92.924,160.4 C92.924,161.978667 92.7133333,163.141333 92.292,163.888 C91.8706667,164.634667 91.2013333,165.008 90.284,165.008 Z M100.284,166.192 C100.7,166.192 101.086667,166.154667 101.444,166.08 C101.801333,166.005333 102.126667,165.906667 102.42,165.784 C102.713333,165.661333 102.972,165.530667 103.196,165.392 C103.42,165.253333 103.606667,165.12 103.756,164.992 L103.756,164.992 L103.196,164.064 C102.876,164.341333 102.478667,164.565333 102.004,164.736 C101.529333,164.906667 101.041333,164.992 100.54,164.992 C100.070667,164.992 99.6413333,164.922667 99.252,164.784 C98.8626667,164.645333 98.5293333,164.448 98.252,164.192 C97.9746667,163.936 97.7613333,163.624 97.612,163.256 C97.4626667,162.888 97.388,162.469333 97.388,162 C97.388,160.933333 97.644,160.154667 98.156,159.664 C98.668,159.173333 99.4466667,158.928 100.492,158.928 C100.769333,158.928 101.049333,158.957333 101.332,159.016 C101.614667,159.074667 101.878667,159.146667 102.124,159.232 L102.124,159.232 L102.124,160.752 L103.276,160.752 L103.276,158.528 L103.292,158.48 C102.950667,158.309333 102.532,158.154667 102.036,158.016 C101.54,157.877333 100.897333,157.808 100.108,157.808 C99.4893333,157.808 98.9293333,157.901333 98.428,158.088 C97.9266667,158.274667 97.5,158.544 97.148,158.896 C96.796,159.248 96.5266667,159.685333 96.34,160.208 C96.1533333,160.730667 96.06,161.328 96.06,162 C96.06,162.629333 96.1506667,163.202667 96.332,163.72 C96.5133333,164.237333 96.78,164.68 97.132,165.048 C97.484,165.416 97.924,165.698667 98.452,165.896 C98.98,166.093333 99.5906667,166.192 100.284,166.192 Z M107.676,166 L107.676,162.384 L108.556,162.384 L111.98,166 L113.628,166 L113.628,164.928 L112.588,164.928 L109.676,161.792 L113.212,158 L111.708,158 L108.556,161.424 L107.676,161.424 L107.676,154.8 L105.084,154.8 L105.084,155.872 L106.444,155.872 L106.444,166 L107.676,166 Z M118.06,166.144 C118.465333,166.144 118.817333,166.090667 119.116,165.984 C119.414667,165.877333 119.668,165.752 119.876,165.608 C120.084,165.464 120.252,165.317333 120.38,165.168 C120.508,165.018667 120.604,164.896 120.668,164.8 L120.668,164.8 L120.748,164.8 L120.892,166 L123.02,166 L123.02,164.96 L121.948,164.96 C121.884,164.48 121.852,163.973333 121.852,163.44 C121.862667,162.981333 121.878667,162.522667 121.9,162.064 C121.921333,161.605333 121.932,161.173333 121.932,160.768 C121.932,160.416 121.897333,160.066667 121.828,159.72 C121.758667,159.373333 121.625333,159.064 121.428,158.792 C121.230667,158.52 120.958667,158.298667 120.612,158.128 C120.265333,157.957333 119.82,157.872 119.276,157.872 C118.721333,157.872 118.156,157.930667 117.58,158.048 C117.004,158.165333 116.486667,158.357333 116.028,158.624 L116.028,158.624 L116.428,159.552 C116.769333,159.413333 117.158667,159.277333 117.596,159.144 C118.033333,159.010667 118.492,158.944 118.972,158.944 C119.324,158.944 119.62,158.984 119.86,159.064 C120.1,159.144 120.286667,159.28 120.42,159.472 C120.553333,159.664 120.638667,159.922667 120.676,160.248 C120.713333,160.573333 120.705333,160.981333 120.652,161.472 C119.862667,161.354667 119.150667,161.312 118.516,161.344 C117.881333,161.376 117.34,161.488 116.892,161.68 C116.444,161.872 116.1,162.149333 115.86,162.512 C115.62,162.874667 115.5,163.328 115.5,163.872 C115.5,164.576 115.729333,165.130667 116.188,165.536 C116.646667,165.941333 117.270667,166.144 118.06,166.144 Z M118.38,165.072 C117.814667,165.072 117.412,164.941333 117.172,164.68 C116.932,164.418667 116.812,164.112 116.812,163.76 C116.812,163.418667 116.908,163.141333 117.1,162.928 C117.292,162.714667 117.558667,162.557333 117.9,162.456 C118.241333,162.354667 118.646667,162.304 119.116,162.304 C119.585333,162.304 120.097333,162.352 120.652,162.448 L120.652,162.448 L120.652,163.568 C120.588,163.728 120.492,163.896 120.364,164.072 C120.236,164.248 120.076,164.410667 119.884,164.56 C119.692,164.709333 119.468,164.832 119.212,164.928 C118.956,165.024 118.678667,165.072 118.38,165.072 Z M125.772,166 L125.772,160.496 C125.9,160.048 126.089333,159.674667 126.34,159.376 C126.590667,159.077333 126.897333,158.928 127.26,158.928 C127.441333,158.928 127.588,158.976 127.7,159.072 C127.812,159.168 127.897333,159.298667 127.956,159.464 C128.014667,159.629333 128.052,159.816 128.068,160.024 C128.084,160.232 128.092,160.448 128.092,160.672 L128.092,160.672 L128.092,166 L129.308,166 L129.308,160.656 C129.436,160.101333 129.628,159.674667 129.884,159.376 C130.14,159.077333 130.454667,158.928 130.828,158.928 C130.998667,158.928 131.134667,158.970667 131.236,159.056 C131.337333,159.141333 131.417333,159.258667 131.476,159.408 C131.534667,159.557333 131.574667,159.730667 131.596,159.928 C131.617333,160.125333 131.628,160.336 131.628,160.56 L131.628,160.56 L131.628,166 L132.844,166 L132.844,160.288 C132.844,159.914667 132.82,159.576 132.772,159.272 C132.724,158.968 132.638667,158.706667 132.516,158.488 C132.393333,158.269333 132.222667,158.101333 132.004,157.984 C131.785333,157.866667 131.5,157.808 131.148,157.808 C130.614667,157.808 130.196,157.925333 129.892,158.16 C129.588,158.394667 129.313333,158.72 129.068,159.136 C129.036,158.890667 128.966667,158.682667 128.86,158.512 C128.753333,158.341333 128.628,158.205333 128.484,158.104 C128.34,158.002667 128.182667,157.928 128.012,157.88 C127.841333,157.832 127.676,157.808 127.516,157.808 C127.238667,157.808 127.009333,157.837333 126.828,157.896 C126.646667,157.954667 126.489333,158.037333 126.356,158.144 C126.222667,158.250667 126.105333,158.376 126.004,158.52 C125.902667,158.664 125.798667,158.816 125.692,158.976 L125.692,158.976 L125.628,158.976 L125.388,158 L124.556,158 L124.556,166 L125.772,166 Z M148.796,166.192 C149.5,166.192 150.097333,166.109333 150.588,165.944 C151.078667,165.778667 151.484,165.573333 151.804,165.328 L151.804,165.328 L151.788,165.296 L151.788,163.136 L150.604,163.136 L150.604,164.736 C150.401333,164.821333 150.18,164.888 149.94,164.936 C149.7,164.984 149.441333,165.008 149.164,165.008 C148.62,165.008 148.126667,164.912 147.684,164.72 C147.241333,164.528 146.862667,164.24 146.548,163.856 C146.233333,163.472 145.988,162.992 145.812,162.416 C145.636,161.84 145.548,161.168 145.548,160.4 C145.548,159.546667 145.646667,158.826667 145.844,158.24 C146.041333,157.653333 146.302667,157.178667 146.628,156.816 C146.953333,156.453333 147.326667,156.192 147.748,156.032 C148.169333,155.872 148.598667,155.792 149.036,155.792 C149.345333,155.792 149.609333,155.810667 149.828,155.848 C150.046667,155.885333 150.246667,155.941333 150.428,156.016 L150.428,156.016 L150.428,157.728 L151.612,157.728 L151.612,155.2 L151.596,155.2 C151.446667,155.104 151.294667,155.018667 151.14,154.944 C150.985333,154.869333 150.806667,154.808 150.604,154.76 C150.401333,154.712 150.166667,154.674667 149.9,154.648 C149.633333,154.621333 149.318667,154.608 148.956,154.608 C148.294667,154.608 147.673333,154.714667 147.092,154.928 C146.510667,155.141333 146.001333,155.48 145.564,155.944 C145.126667,156.408 144.78,157.005333 144.524,157.736 C144.268,158.466667 144.14,159.354667 144.14,160.4 C144.14,161.402667 144.254667,162.269333 144.484,163 C144.713333,163.730667 145.036,164.330667 145.452,164.8 C145.868,165.269333 146.361333,165.618667 146.932,165.848 C147.502667,166.077333 148.124,166.192 148.796,166.192 Z M158.476,166.208 C158.657333,166.208 158.854667,166.186667 159.068,166.144 C159.281333,166.101333 159.494667,166.04 159.708,165.96 C159.921333,165.88 160.129333,165.781333 160.332,165.664 C160.534667,165.546667 160.721333,165.413333 160.892,165.264 L160.892,165.264 L160.316,164.384 C159.985333,164.64 159.684,164.821333 159.412,164.928 C159.14,165.034667 158.854667,165.088 158.556,165.088 C158.129333,165.088 157.806667,164.954667 157.588,164.688 C157.369333,164.421333 157.26,163.962667 157.26,163.312 L157.26,163.312 L157.26,154.8 L154.604,154.8 L154.604,155.872 L156.012,155.872 L156.012,163.312 C156.012,163.856 156.065333,164.312 156.172,164.68 C156.278667,165.048 156.436,165.344 156.644,165.568 C156.852,165.792 157.110667,165.954667 157.42,166.056 C157.729333,166.157333 158.081333,166.208 158.476,166.208 Z M167.1,166.192 C167.718667,166.192 168.270667,166.093333 168.756,165.896 C169.241333,165.698667 169.649333,165.418667 169.98,165.056 C170.310667,164.693333 170.561333,164.253333 170.732,163.736 C170.902667,163.218667 170.988,162.64 170.988,162 C170.988,161.413333 170.910667,160.864 170.756,160.352 C170.601333,159.84 170.364,159.397333 170.044,159.024 C169.724,158.650667 169.321333,158.354667 168.836,158.136 C168.350667,157.917333 167.772,157.808 167.1,157.808 C165.852,157.808 164.892,158.184 164.22,158.936 C163.548,159.688 163.212,160.709333 163.212,162 C163.212,162.586667 163.289333,163.136 163.444,163.648 C163.598667,164.16 163.836,164.602667 164.156,164.976 C164.476,165.349333 164.881333,165.645333 165.372,165.864 C165.862667,166.082667 166.438667,166.192 167.1,166.192 Z M167.1,165.12 C166.630667,165.12 166.233333,165.029333 165.908,164.848 C165.582667,164.666667 165.318667,164.426667 165.116,164.128 C164.913333,163.829333 164.766667,163.493333 164.676,163.12 C164.585333,162.746667 164.54,162.373333 164.54,162 C164.54,160.965333 164.753333,160.186667 165.18,159.664 C165.606667,159.141333 166.246667,158.88 167.1,158.88 C167.569333,158.88 167.966667,158.970667 168.292,159.152 C168.617333,159.333333 168.884,159.573333 169.092,159.872 C169.3,160.170667 169.449333,160.504 169.54,160.872 C169.630667,161.24 169.676,161.616 169.676,162 C169.676,163.024 169.46,163.8 169.028,164.328 C168.596,164.856 167.953333,165.12 167.1,165.12 Z M176.14,166.192 C176.790667,166.192 177.345333,166.048 177.804,165.76 C178.262667,165.472 178.630667,165.098667 178.908,164.64 L178.908,164.64 L178.972,164.64 L179.02,166 L181.148,166 L181.148,164.96 L180.076,164.96 C180.012,164.48 179.98,163.978667 179.98,163.456 L179.98,163.456 L179.98,158 L177.708,158 L177.708,159.072 L178.732,159.072 L178.732,163.216 C178.518667,163.76 178.206667,164.213333 177.796,164.576 C177.385333,164.938667 176.902667,165.12 176.348,165.12 C175.964,165.12 175.657333,165.058667 175.428,164.936 C175.198667,164.813333 175.025333,164.632 174.908,164.392 C174.790667,164.152 174.713333,163.858667 174.676,163.512 C174.638667,163.165333 174.62,162.773333 174.62,162.336 L174.62,162.336 L174.62,158 L172.3,158 L172.3,159.072 L173.372,159.072 L173.372,162.592 C173.372,163.285333 173.425333,163.864 173.532,164.328 C173.638667,164.792 173.804,165.162667 174.028,165.44 C174.252,165.717333 174.537333,165.912 174.884,166.024 C175.230667,166.136 175.649333,166.192 176.14,166.192 Z M185.916,166.192 C186.524,166.192 187.06,166.056 187.524,165.784 C187.988,165.512 188.337333,165.173333 188.572,164.768 L188.572,164.768 L188.636,164.768 L188.796,166 L190.924,166 L190.924,164.96 L189.852,164.96 C189.830667,164.842667 189.809333,164.706667 189.788,164.552 C189.766667,164.397333 189.748,164.24 189.732,164.08 C189.716,163.92 189.702667,163.768 189.692,163.624 C189.681333,163.48 189.676,163.36 189.676,163.264 L189.676,163.264 L189.676,154.8 L187.084,154.8 L187.084,155.872 L188.428,155.872 L188.428,158.144 C188.268,158.101333 188.121333,158.061333 187.988,158.024 C187.854667,157.986667 187.713333,157.957333 187.564,157.936 C187.414667,157.914667 187.252,157.898667 187.076,157.888 C186.9,157.877333 186.7,157.872 186.476,157.872 C185.857333,157.872 185.297333,157.962667 184.796,158.144 C184.294667,158.325333 183.865333,158.589333 183.508,158.936 C183.150667,159.282667 182.876,159.714667 182.684,160.232 C182.492,160.749333 182.396,161.344 182.396,162.016 C182.396,163.445333 182.681333,164.498667 183.252,165.176 C183.822667,165.853333 184.710667,166.192 185.916,166.192 Z M186.124,165.12 C185.676,165.12 185.297333,165.04 184.988,164.88 C184.678667,164.72 184.430667,164.501333 184.244,164.224 C184.057333,163.946667 183.924,163.618667 183.844,163.24 C183.764,162.861333 183.724,162.453333 183.724,162.016 C183.724,160.949333 183.969333,160.168 184.46,159.672 C184.950667,159.176 185.622667,158.928 186.476,158.928 C186.956,158.928 187.342667,158.965333 187.636,159.04 C187.929333,159.114667 188.193333,159.232 188.428,159.392 L188.428,159.392 L188.428,163.104 C188.289333,163.776 188.033333,164.28 187.66,164.616 C187.286667,164.952 186.774667,165.12 186.124,165.12 Z M205.436,166.192 C206.033333,166.192 206.569333,166.117333 207.044,165.968 C207.518667,165.818667 207.918667,165.605333 208.244,165.328 C208.569333,165.050667 208.82,164.72 208.996,164.336 C209.172,163.952 209.26,163.52 209.26,163.04 C209.26,162.453333 209.113333,161.962667 208.82,161.568 C208.526667,161.173333 208.161333,160.834667 207.724,160.552 C207.286667,160.269333 206.812,160.021333 206.3,159.808 C205.788,159.594667 205.313333,159.378667 204.876,159.16 C204.438667,158.941333 204.073333,158.693333 203.78,158.416 C203.486667,158.138667 203.34,157.792 203.34,157.376 C203.34,157.162667 203.393333,156.96 203.5,156.768 C203.606667,156.576 203.758667,156.408 203.956,156.264 C204.153333,156.12 204.393333,156.005333 204.676,155.92 C204.958667,155.834667 205.276,155.792 205.628,155.792 C205.990667,155.792 206.332,155.813333 206.652,155.856 C206.972,155.898667 207.265333,155.952 207.532,156.016 L207.532,156.016 L207.532,157.728 L208.716,157.728 L208.716,155.168 L208.732,155.12 L208.716,155.12 L208.716,155.088 L208.684,155.104 C208.374667,154.954667 207.958667,154.834667 207.436,154.744 C206.913333,154.653333 206.332,154.608 205.692,154.608 C205.137333,154.608 204.633333,154.674667 204.18,154.808 C203.726667,154.941333 203.34,155.130667 203.02,155.376 C202.7,155.621333 202.452,155.92 202.276,156.272 C202.1,156.624 202.012,157.018667 202.012,157.456 C202.012,158.074667 202.158667,158.584 202.452,158.984 C202.745333,159.384 203.110667,159.722667 203.548,160 C203.985333,160.277333 204.46,160.517333 204.972,160.72 C205.484,160.922667 205.958667,161.130667 206.396,161.344 C206.833333,161.557333 207.198667,161.802667 207.492,162.08 C207.785333,162.357333 207.932,162.714667 207.932,163.152 C207.932,163.472 207.865333,163.749333 207.732,163.984 C207.598667,164.218667 207.417333,164.413333 207.188,164.568 C206.958667,164.722667 206.689333,164.834667 206.38,164.904 C206.070667,164.973333 205.74,165.008 205.388,165.008 C204.982667,165.008 204.58,164.952 204.18,164.84 C203.78,164.728 203.42,164.586667 203.1,164.416 L203.1,164.416 L203.1,162.64 L201.916,162.64 L201.916,165.232 L201.9,165.28 C202.038667,165.354667 202.228,165.445333 202.468,165.552 C202.708,165.658667 202.98,165.76 203.284,165.856 C203.588,165.952 203.921333,166.032 204.284,166.096 C204.646667,166.16 205.030667,166.192 205.436,166.192 Z M213.964,166.144 C214.966667,166.144 215.801333,165.981333 216.468,165.656 C217.134667,165.330667 217.665333,164.898667 218.06,164.36 C218.454667,163.821333 218.732,163.202667 218.892,162.504 C219.052,161.805333 219.132,161.077333 219.132,160.32 C219.132,159.488 219.044,158.725333 218.868,158.032 C218.692,157.338667 218.404,156.744 218.004,156.248 C217.604,155.752 217.076,155.365333 216.42,155.088 C215.764,154.810667 214.950667,154.672 213.98,154.672 C213.670667,154.672 213.294667,154.68 212.852,154.696 C212.409333,154.712 211.985333,154.746667 211.58,154.8 L211.58,154.8 L211.58,166.016 C211.686667,166.037333 211.846667,166.053333 212.06,166.064 C212.273333,166.074667 212.497333,166.088 212.732,166.104 C212.966667,166.12 213.196,166.130667 213.42,166.136 C213.644,166.141333 213.825333,166.144 213.964,166.144 Z M214.012,164.96 C213.948,164.96 213.865333,164.957333 213.764,164.952 C213.662667,164.946667 213.558667,164.941333 213.452,164.936 L213.294,164.928 L213.294,164.928 L213.14,164.92 C213.038667,164.914667 212.961333,164.906667 212.908,164.896 L212.908,164.896 L212.908,155.936 C213.057333,155.904 213.246667,155.882667 213.476,155.872 C213.705333,155.861333 213.894667,155.856 214.044,155.856 C214.833333,155.856 215.470667,155.992 215.956,156.264 C216.441333,156.536 216.814667,156.885333 217.076,157.312 C217.337333,157.738667 217.510667,158.216 217.596,158.744 C217.681333,159.272 217.724,159.797333 217.724,160.32 C217.724,160.917333 217.676,161.496 217.58,162.056 C217.484,162.616 217.302667,163.112 217.036,163.544 C216.769333,163.976 216.393333,164.32 215.908,164.576 C215.422667,164.832 214.790667,164.96 214.012,164.96 Z M222.588,166 L222.588,160.816 L223.82,160.816 L227.74,166 L229.42,166 L224.972,160.128 L228.924,154.8 L227.388,154.8 L223.788,159.792 L222.588,159.792 L222.588,154.8 L221.26,154.8 L221.26,166 L222.588,166 Z" id="OckamCloudSDK" fill="#25B8E4" fill-rule="nonzero"></path>
                                    <path d="M457.388,166 L457.388,160.864 L462.412,160.864 L462.412,166 L463.74,166 L463.74,154.8 L462.412,154.8 L462.412,159.68 L457.388,159.68 L457.388,154.8 L456.06,154.8 L456.06,166 L457.388,166 Z M469.436,166.192 C470.033333,166.192 470.569333,166.117333 471.044,165.968 C471.518667,165.818667 471.918667,165.605333 472.244,165.328 C472.569333,165.050667 472.82,164.72 472.996,164.336 C473.172,163.952 473.26,163.52 473.26,163.04 C473.26,162.453333 473.113333,161.962667 472.82,161.568 C472.526667,161.173333 472.161333,160.834667 471.724,160.552 C471.286667,160.269333 470.812,160.021333 470.3,159.808 C469.788,159.594667 469.313333,159.378667 468.876,159.16 C468.438667,158.941333 468.073333,158.693333 467.78,158.416 C467.486667,158.138667 467.34,157.792 467.34,157.376 C467.34,157.162667 467.393333,156.96 467.5,156.768 C467.606667,156.576 467.758667,156.408 467.956,156.264 C468.153333,156.12 468.393333,156.005333 468.676,155.92 C468.958667,155.834667 469.276,155.792 469.628,155.792 C469.990667,155.792 470.332,155.813333 470.652,155.856 C470.972,155.898667 471.265333,155.952 471.532,156.016 L471.532,156.016 L471.532,157.728 L472.716,157.728 L472.716,155.168 L472.732,155.12 L472.716,155.12 L472.716,155.088 L472.684,155.104 C472.374667,154.954667 471.958667,154.834667 471.436,154.744 C470.913333,154.653333 470.332,154.608 469.692,154.608 C469.137333,154.608 468.633333,154.674667 468.18,154.808 C467.726667,154.941333 467.34,155.130667 467.02,155.376 C466.7,155.621333 466.452,155.92 466.276,156.272 C466.1,156.624 466.012,157.018667 466.012,157.456 C466.012,158.074667 466.158667,158.584 466.452,158.984 C466.745333,159.384 467.110667,159.722667 467.548,160 C467.985333,160.277333 468.46,160.517333 468.972,160.72 C469.484,160.922667 469.958667,161.130667 470.396,161.344 C470.833333,161.557333 471.198667,161.802667 471.492,162.08 C471.785333,162.357333 471.932,162.714667 471.932,163.152 C471.932,163.472 471.865333,163.749333 471.732,163.984 C471.598667,164.218667 471.417333,164.413333 471.188,164.568 C470.958667,164.722667 470.689333,164.834667 470.38,164.904 C470.070667,164.973333 469.74,165.008 469.388,165.008 C468.982667,165.008 468.58,164.952 468.18,164.84 C467.78,164.728 467.42,164.586667 467.1,164.416 L467.1,164.416 L467.1,162.64 L465.916,162.64 L465.916,165.232 L465.9,165.28 C466.038667,165.354667 466.228,165.445333 466.468,165.552 C466.708,165.658667 466.98,165.76 467.284,165.856 C467.588,165.952 467.921333,166.032 468.284,166.096 C468.646667,166.16 469.030667,166.192 469.436,166.192 Z M476.556,166 L476.556,158.544 L476.364,157.04 L476.444,157.04 L477.18,158.4 L478.892,161.152 L479.292,161.152 L480.924,158.416 L481.692,157.04 L481.772,157.04 L481.612,158.56 L481.612,166 L482.94,166 L482.94,154.8 L481.74,154.8 L479.18,159.056 L479.148,159.056 L476.492,154.8 L475.26,154.8 L475.26,166 L476.556,166 Z" id="HSM" fill="#25B8E4" fill-rule="nonzero"></path>
                                    <path d="M430,150 L421,154 L421,160 C421,165.55 424.84,170.74 430,172 C435.16,170.74 439,165.55 439,160 L439,154 L430,150 M430,156 C431.4,156 432.8,157.1 432.8,158.5 L432.8,160 C433.4,160 434,160.6 434,161.3 L434,164.8 C434,165.4 433.4,166 432.7,166 L427.2,166 C426.6,166 426,165.4 426,164.7 L426,161.2 C426,160.6 426.6,160 427.2,160 L427.2,158.5 C427.2,157.1 428.6,156 430,156 M430,157.2 C429.2,157.2 428.5,157.7 428.5,158.5 L428.5,160 L431.5,160 L431.5,158.5 C431.5,157.7 430.8,157.2 430,157.2 Z" id="Shape" fill="#00A8CC" fill-rule="nonzero"></path>
                                </g>
                                <rect id="Rectangle" stroke="#4BC7EC" x="0.5" y="0.5" width="571" height="249" rx="10"></rect>
                            </g>
                        </g>
                        <g id="Group-38" transform="translate(78.000000, 270.000000)">
                            <g id="icon/transfer" transform="translate(192.000000, 0.000000)" fill="#00BAE9" fill-rule="nonzero">
                                <path d="M12,4 L6.66666667,9.33333333 L10.6666667,9.33333333 L10.6666667,18.6666667 L13.3333333,18.6666667 L13.3333333,9.33333333 L17.3333333,9.33333333 M21.3333333,22.6666667 L21.3333333,13.3333333 L18.6666667,13.3333333 L18.6666667,22.6666667 L14.6666667,22.6666667 L20,28 L25.3333333,22.6666667 L21.3333333,22.6666667 Z" id="Shape"></path>
                            </g>
                            <path d="M10,52 L406,52 C411.522847,52 416,56.4771525 416,62 L416,101 C416,106.522847 411.522847,111 406,111 L10,111 C4.4771525,111 6.76353751e-16,106.522847 0,101 L0,62 C-6.76353751e-16,56.4771525 4.4771525,52 10,52 Z" id="Rectangle-Copy-20" fill-opacity="0.06" fill="#25B8E4"></path>
                            <path d="M72.884,87.192 C74.2706667,87.192 75.292,86.6906667 75.948,85.688 C76.604,84.6853333 76.932,83.256 76.932,81.4 C76.932,80.5253333 76.8626667,79.7333333 76.724,79.024 C76.5853333,78.3146667 76.356,77.7066667 76.036,77.2 C75.716,76.6933333 75.2973333,76.3013333 74.78,76.024 C74.2626667,75.7466667 73.6306667,75.608 72.884,75.608 C71.5186667,75.608 70.508,76.1093333 69.852,77.112 C69.196,78.1146667 68.868,79.544 68.868,81.4 C68.868,82.2746667 68.9373333,83.0666667 69.076,83.776 C69.2146667,84.4853333 69.444,85.0933333 69.764,85.6 C70.084,86.1066667 70.5,86.4986667 71.012,86.776 C71.524,87.0533333 72.148,87.192 72.884,87.192 Z M72.884,86.008 C72.372,86.008 71.9506667,85.8826667 71.62,85.632 C71.2893333,85.3813333 71.0226667,85.0453333 70.82,84.624 C70.6173333,84.2026667 70.476,83.7146667 70.396,83.16 C70.316,82.6053333 70.276,82.0186667 70.276,81.4 C70.276,79.832 70.484,78.672 70.9,77.92 C71.316,77.168 71.9773333,76.792 72.884,76.792 C73.396,76.792 73.8226667,76.9173333 74.164,77.168 C74.5053333,77.4186667 74.7773333,77.7546667 74.98,78.176 C75.1826667,78.5973333 75.324,79.088 75.404,79.648 C75.484,80.208 75.524,80.792 75.524,81.4 C75.524,82.9786667 75.3133333,84.1413333 74.892,84.888 C74.4706667,85.6346667 73.8013333,86.008 72.884,86.008 Z M82.884,87.192 C83.3,87.192 83.6866667,87.1546667 84.044,87.08 C84.4013333,87.0053333 84.7266667,86.9066667 85.02,86.784 C85.3133333,86.6613333 85.572,86.5306667 85.796,86.392 C86.02,86.2533333 86.2066667,86.12 86.356,85.992 L86.356,85.992 L85.796,85.064 C85.476,85.3413333 85.0786667,85.5653333 84.604,85.736 C84.1293333,85.9066667 83.6413333,85.992 83.14,85.992 C82.6706667,85.992 82.2413333,85.9226667 81.852,85.784 C81.4626667,85.6453333 81.1293333,85.448 80.852,85.192 C80.5746667,84.936 80.3613333,84.624 80.212,84.256 C80.0626667,83.888 79.988,83.4693333 79.988,83 C79.988,81.9333333 80.244,81.1546667 80.756,80.664 C81.268,80.1733333 82.0466667,79.928 83.092,79.928 C83.3693333,79.928 83.6493333,79.9573333 83.932,80.016 C84.2146667,80.0746667 84.4786667,80.1466667 84.724,80.232 L84.724,80.232 L84.724,81.752 L85.876,81.752 L85.876,79.528 L85.892,79.48 C85.5506667,79.3093333 85.132,79.1546667 84.636,79.016 C84.14,78.8773333 83.4973333,78.808 82.708,78.808 C82.0893333,78.808 81.5293333,78.9013333 81.028,79.088 C80.5266667,79.2746667 80.1,79.544 79.748,79.896 C79.396,80.248 79.1266667,80.6853333 78.94,81.208 C78.7533333,81.7306667 78.66,82.328 78.66,83 C78.66,83.6293333 78.7506667,84.2026667 78.932,84.72 C79.1133333,85.2373333 79.38,85.68 79.732,86.048 C80.084,86.416 80.524,86.6986667 81.052,86.896 C81.58,87.0933333 82.1906667,87.192 82.884,87.192 Z M90.276,87 L90.276,83.384 L91.156,83.384 L94.58,87 L96.228,87 L96.228,85.928 L95.188,85.928 L92.276,82.792 L95.812,79 L94.308,79 L91.156,82.424 L90.276,82.424 L90.276,75.8 L87.684,75.8 L87.684,76.872 L89.044,76.872 L89.044,87 L90.276,87 Z M100.66,87.144 C101.065333,87.144 101.417333,87.0906667 101.716,86.984 C102.014667,86.8773333 102.268,86.752 102.476,86.608 C102.684,86.464 102.852,86.3173333 102.98,86.168 C103.108,86.0186667 103.204,85.896 103.268,85.8 L103.268,85.8 L103.348,85.8 L103.492,87 L105.62,87 L105.62,85.96 L104.548,85.96 C104.484,85.48 104.452,84.9733333 104.452,84.44 C104.462667,83.9813333 104.478667,83.5226667 104.5,83.064 C104.521333,82.6053333 104.532,82.1733333 104.532,81.768 C104.532,81.416 104.497333,81.0666667 104.428,80.72 C104.358667,80.3733333 104.225333,80.064 104.028,79.792 C103.830667,79.52 103.558667,79.2986667 103.212,79.128 C102.865333,78.9573333 102.42,78.872 101.876,78.872 C101.321333,78.872 100.756,78.9306667 100.18,79.048 C99.604,79.1653333 99.0866667,79.3573333 98.628,79.624 L98.628,79.624 L99.028,80.552 C99.3693333,80.4133333 99.7586667,80.2773333 100.196,80.144 C100.633333,80.0106667 101.092,79.944 101.572,79.944 C101.924,79.944 102.22,79.984 102.46,80.064 C102.7,80.144 102.886667,80.28 103.02,80.472 C103.153333,80.664 103.238667,80.9226667 103.276,81.248 C103.313333,81.5733333 103.305333,81.9813333 103.252,82.472 C102.462667,82.3546667 101.750667,82.312 101.116,82.344 C100.481333,82.376 99.94,82.488 99.492,82.68 C99.044,82.872 98.7,83.1493333 98.46,83.512 C98.22,83.8746667 98.1,84.328 98.1,84.872 C98.1,85.576 98.3293333,86.1306667 98.788,86.536 C99.2466667,86.9413333 99.8706667,87.144 100.66,87.144 Z M100.98,86.072 C100.414667,86.072 100.012,85.9413333 99.772,85.68 C99.532,85.4186667 99.412,85.112 99.412,84.76 C99.412,84.4186667 99.508,84.1413333 99.7,83.928 C99.892,83.7146667 100.158667,83.5573333 100.5,83.456 C100.841333,83.3546667 101.246667,83.304 101.716,83.304 C102.185333,83.304 102.697333,83.352 103.252,83.448 L103.252,83.448 L103.252,84.568 C103.188,84.728 103.092,84.896 102.964,85.072 C102.836,85.248 102.676,85.4106667 102.484,85.56 C102.292,85.7093333 102.068,85.832 101.812,85.928 C101.556,86.024 101.278667,86.072 100.98,86.072 Z M108.372,87 L108.372,81.496 C108.5,81.048 108.689333,80.6746667 108.94,80.376 C109.190667,80.0773333 109.497333,79.928 109.86,79.928 C110.041333,79.928 110.188,79.976 110.3,80.072 C110.412,80.168 110.497333,80.2986667 110.556,80.464 C110.614667,80.6293333 110.652,80.816 110.668,81.024 C110.684,81.232 110.692,81.448 110.692,81.672 L110.692,81.672 L110.692,87 L111.908,87 L111.908,81.656 C112.036,81.1013333 112.228,80.6746667 112.484,80.376 C112.74,80.0773333 113.054667,79.928 113.428,79.928 C113.598667,79.928 113.734667,79.9706667 113.836,80.056 C113.937333,80.1413333 114.017333,80.2586667 114.076,80.408 C114.134667,80.5573333 114.174667,80.7306667 114.196,80.928 C114.217333,81.1253333 114.228,81.336 114.228,81.56 L114.228,81.56 L114.228,87 L115.444,87 L115.444,81.288 C115.444,80.9146667 115.42,80.576 115.372,80.272 C115.324,79.968 115.238667,79.7066667 115.116,79.488 C114.993333,79.2693333 114.822667,79.1013333 114.604,78.984 C114.385333,78.8666667 114.1,78.808 113.748,78.808 C113.214667,78.808 112.796,78.9253333 112.492,79.16 C112.188,79.3946667 111.913333,79.72 111.668,80.136 C111.636,79.8906667 111.566667,79.6826667 111.46,79.512 C111.353333,79.3413333 111.228,79.2053333 111.084,79.104 C110.94,79.0026667 110.782667,78.928 110.612,78.88 C110.441333,78.832 110.276,78.808 110.116,78.808 C109.838667,78.808 109.609333,78.8373333 109.428,78.896 C109.246667,78.9546667 109.089333,79.0373333 108.956,79.144 C108.822667,79.2506667 108.705333,79.376 108.604,79.52 C108.502667,79.664 108.398667,79.816 108.292,79.976 L108.292,79.976 L108.228,79.976 L107.988,79 L107.156,79 L107.156,87 L108.372,87 Z M130.644,87.192 C130.985333,87.192 131.324,87.1626667 131.66,87.104 C131.996,87.0453333 132.318667,86.9626667 132.628,86.856 C132.937333,86.7493333 133.222667,86.6213333 133.484,86.472 C133.745333,86.3226667 133.972,86.1626667 134.164,85.992 L134.164,85.992 L133.668,85.08 C133.561333,85.176 133.409333,85.2826667 133.212,85.4 C133.014667,85.5173333 132.788,85.624 132.532,85.72 C132.276,85.816 132.006667,85.8986667 131.724,85.968 C131.441333,86.0373333 131.156,86.072 130.868,86.072 C130.004,86.072 129.313333,85.8346667 128.796,85.36 C128.278667,84.8853333 128.02,84.168 128.02,83.208 L128.02,83.208 L134.212,83.208 C134.265333,82.3013333 134.201333,81.5626667 134.02,80.992 C133.838667,80.4213333 133.58,79.9733333 133.244,79.648 C132.908,79.3226667 132.521333,79.1013333 132.084,78.984 C131.646667,78.8666667 131.204,78.808 130.756,78.808 C130.137333,78.808 129.577333,78.9013333 129.076,79.088 C128.574667,79.2746667 128.148,79.544 127.796,79.896 C127.444,80.248 127.174667,80.6853333 126.988,81.208 C126.801333,81.7306667 126.708,82.328 126.708,83 C126.708,83.64 126.793333,84.216 126.964,84.728 C127.134667,85.24 127.385333,85.68 127.716,86.048 C128.046667,86.416 128.457333,86.6986667 128.948,86.896 C129.438667,87.0933333 130.004,87.192 130.644,87.192 Z M133.044,82.088 L128.068,82.088 C128.110667,81.672 128.209333,81.3226667 128.364,81.04 C128.518667,80.7573333 128.716,80.528 128.956,80.352 C129.196,80.176 129.473333,80.0506667 129.788,79.976 C130.102667,79.9013333 130.436,79.864 130.788,79.864 C131.438667,79.864 131.964,80.0586667 132.364,80.448 C132.764,80.8373333 132.990667,81.384 133.044,82.088 L133.044,82.088 Z M138.02,87 L138.02,81.976 C138.094667,81.7093333 138.212,81.456 138.372,81.216 C138.532,80.976 138.718667,80.7653333 138.932,80.584 C139.145333,80.4026667 139.382667,80.256 139.644,80.144 C139.905333,80.032 140.174667,79.976 140.452,79.976 C141.209333,79.976 141.732,80.2 142.02,80.648 C142.308,81.096 142.452,81.7626667 142.452,82.648 L142.452,82.648 L142.452,87 L143.7,87 L143.7,82.408 C143.7,81.6933333 143.636,81.104 143.508,80.64 C143.38,80.176 143.190667,79.808 142.94,79.536 C142.689333,79.264 142.374667,79.0746667 141.996,78.968 C141.617333,78.8613333 141.182667,78.808 140.692,78.808 C140.372,78.808 140.068,78.8506667 139.78,78.936 C139.492,79.0213333 139.230667,79.136 138.996,79.28 C138.761333,79.424 138.556,79.584 138.38,79.76 C138.204,79.936 138.062667,80.1146667 137.956,80.296 L137.956,80.296 L137.876,80.296 L137.732,79 L135.588,79 L135.588,80.04 L136.66,80.04 C136.681333,80.1573333 136.7,80.296 136.716,80.456 C136.732,80.616 136.745333,80.7786667 136.756,80.944 C136.766667,81.1093333 136.774667,81.2693333 136.78,81.424 C136.785333,81.5786667 136.788,81.704 136.788,81.8 L136.788,81.8 L136.788,87 L138.02,87 Z M148.66,87.144 C149.065333,87.144 149.417333,87.0906667 149.716,86.984 C150.014667,86.8773333 150.268,86.752 150.476,86.608 C150.684,86.464 150.852,86.3173333 150.98,86.168 C151.108,86.0186667 151.204,85.896 151.268,85.8 L151.268,85.8 L151.348,85.8 L151.492,87 L153.62,87 L153.62,85.96 L152.548,85.96 C152.484,85.48 152.452,84.9733333 152.452,84.44 C152.462667,83.9813333 152.478667,83.5226667 152.5,83.064 C152.521333,82.6053333 152.532,82.1733333 152.532,81.768 C152.532,81.416 152.497333,81.0666667 152.428,80.72 C152.358667,80.3733333 152.225333,80.064 152.028,79.792 C151.830667,79.52 151.558667,79.2986667 151.212,79.128 C150.865333,78.9573333 150.42,78.872 149.876,78.872 C149.321333,78.872 148.756,78.9306667 148.18,79.048 C147.604,79.1653333 147.086667,79.3573333 146.628,79.624 L146.628,79.624 L147.028,80.552 C147.369333,80.4133333 147.758667,80.2773333 148.196,80.144 C148.633333,80.0106667 149.092,79.944 149.572,79.944 C149.924,79.944 150.22,79.984 150.46,80.064 C150.7,80.144 150.886667,80.28 151.02,80.472 C151.153333,80.664 151.238667,80.9226667 151.276,81.248 C151.313333,81.5733333 151.305333,81.9813333 151.252,82.472 C150.462667,82.3546667 149.750667,82.312 149.116,82.344 C148.481333,82.376 147.94,82.488 147.492,82.68 C147.044,82.872 146.7,83.1493333 146.46,83.512 C146.22,83.8746667 146.1,84.328 146.1,84.872 C146.1,85.576 146.329333,86.1306667 146.788,86.536 C147.246667,86.9413333 147.870667,87.144 148.66,87.144 Z M148.98,86.072 C148.414667,86.072 148.012,85.9413333 147.772,85.68 C147.532,85.4186667 147.412,85.112 147.412,84.76 C147.412,84.4186667 147.508,84.1413333 147.7,83.928 C147.892,83.7146667 148.158667,83.5573333 148.5,83.456 C148.841333,83.3546667 149.246667,83.304 149.716,83.304 C150.185333,83.304 150.697333,83.352 151.252,83.448 L151.252,83.448 L151.252,84.568 C151.188,84.728 151.092,84.896 150.964,85.072 C150.836,85.248 150.676,85.4106667 150.484,85.56 C150.292,85.7093333 150.068,85.832 149.812,85.928 C149.556,86.024 149.278667,86.072 148.98,86.072 Z M158.82,87.128 C160.217333,87.128 161.294667,86.7626667 162.052,86.032 C162.809333,85.3013333 163.188,84.248 163.188,82.872 C163.188,80.1626667 162.014667,78.808 159.668,78.808 C159.156,78.808 158.681333,78.904 158.244,79.096 C157.806667,79.288 157.449333,79.56 157.172,79.912 L157.172,79.912 L157.092,79.912 L157.092,75.8 L154.532,75.8 L154.532,76.872 L155.86,76.872 L155.86,86.488 C156.105333,86.6586667 156.494667,86.808 157.028,86.936 C157.561333,87.064 158.158667,87.128 158.82,87.128 Z M159.044,86.056 C158.670667,86.056 158.313333,86.0186667 157.972,85.944 C157.630667,85.8693333 157.337333,85.768 157.092,85.64 L157.092,85.64 L157.092,81.96 C157.273333,81.2986667 157.561333,80.7866667 157.956,80.424 C158.350667,80.0613333 158.868,79.88 159.508,79.88 C159.934667,79.88 160.297333,79.9573333 160.596,80.112 C160.894667,80.2666667 161.137333,80.48 161.324,80.752 C161.510667,81.024 161.646667,81.3413333 161.732,81.704 C161.817333,82.0666667 161.86,82.4506667 161.86,82.856 C161.86,83.4106667 161.793333,83.8906667 161.66,84.296 C161.526667,84.7013333 161.337333,85.0346667 161.092,85.296 C160.846667,85.5573333 160.550667,85.7493333 160.204,85.872 C159.857333,85.9946667 159.470667,86.056 159.044,86.056 Z M169.876,87.208 C170.057333,87.208 170.254667,87.1866667 170.468,87.144 C170.681333,87.1013333 170.894667,87.04 171.108,86.96 C171.321333,86.88 171.529333,86.7813333 171.732,86.664 C171.934667,86.5466667 172.121333,86.4133333 172.292,86.264 L172.292,86.264 L171.716,85.384 C171.385333,85.64 171.084,85.8213333 170.812,85.928 C170.54,86.0346667 170.254667,86.088 169.956,86.088 C169.529333,86.088 169.206667,85.9546667 168.988,85.688 C168.769333,85.4213333 168.66,84.9626667 168.66,84.312 L168.66,84.312 L168.66,75.8 L166.004,75.8 L166.004,76.872 L167.412,76.872 L167.412,84.312 C167.412,84.856 167.465333,85.312 167.572,85.68 C167.678667,86.048 167.836,86.344 168.044,86.568 C168.252,86.792 168.510667,86.9546667 168.82,87.056 C169.129333,87.1573333 169.481333,87.208 169.876,87.208 Z M178.644,87.192 C178.985333,87.192 179.324,87.1626667 179.66,87.104 C179.996,87.0453333 180.318667,86.9626667 180.628,86.856 C180.937333,86.7493333 181.222667,86.6213333 181.484,86.472 C181.745333,86.3226667 181.972,86.1626667 182.164,85.992 L182.164,85.992 L181.668,85.08 C181.561333,85.176 181.409333,85.2826667 181.212,85.4 C181.014667,85.5173333 180.788,85.624 180.532,85.72 C180.276,85.816 180.006667,85.8986667 179.724,85.968 C179.441333,86.0373333 179.156,86.072 178.868,86.072 C178.004,86.072 177.313333,85.8346667 176.796,85.36 C176.278667,84.8853333 176.02,84.168 176.02,83.208 L176.02,83.208 L182.212,83.208 C182.265333,82.3013333 182.201333,81.5626667 182.02,80.992 C181.838667,80.4213333 181.58,79.9733333 181.244,79.648 C180.908,79.3226667 180.521333,79.1013333 180.084,78.984 C179.646667,78.8666667 179.204,78.808 178.756,78.808 C178.137333,78.808 177.577333,78.9013333 177.076,79.088 C176.574667,79.2746667 176.148,79.544 175.796,79.896 C175.444,80.248 175.174667,80.6853333 174.988,81.208 C174.801333,81.7306667 174.708,82.328 174.708,83 C174.708,83.64 174.793333,84.216 174.964,84.728 C175.134667,85.24 175.385333,85.68 175.716,86.048 C176.046667,86.416 176.457333,86.6986667 176.948,86.896 C177.438667,87.0933333 178.004,87.192 178.644,87.192 Z M181.044,82.088 L176.068,82.088 C176.110667,81.672 176.209333,81.3226667 176.364,81.04 C176.518667,80.7573333 176.716,80.528 176.956,80.352 C177.196,80.176 177.473333,80.0506667 177.788,79.976 C178.102667,79.9013333 178.436,79.864 178.788,79.864 C179.438667,79.864 179.964,80.0586667 180.364,80.448 C180.764,80.8373333 180.990667,81.384 181.044,82.088 L181.044,82.088 Z M187.716,87.192 C188.324,87.192 188.86,87.056 189.324,86.784 C189.788,86.512 190.137333,86.1733333 190.372,85.768 L190.372,85.768 L190.436,85.768 L190.596,87 L192.724,87 L192.724,85.96 L191.652,85.96 C191.630667,85.8426667 191.609333,85.7066667 191.588,85.552 C191.566667,85.3973333 191.548,85.24 191.532,85.08 C191.516,84.92 191.502667,84.768 191.492,84.624 C191.481333,84.48 191.476,84.36 191.476,84.264 L191.476,84.264 L191.476,75.8 L188.884,75.8 L188.884,76.872 L190.228,76.872 L190.228,79.144 C190.068,79.1013333 189.921333,79.0613333 189.788,79.024 C189.654667,78.9866667 189.513333,78.9573333 189.364,78.936 C189.214667,78.9146667 189.052,78.8986667 188.876,78.888 C188.7,78.8773333 188.5,78.872 188.276,78.872 C187.657333,78.872 187.097333,78.9626667 186.596,79.144 C186.094667,79.3253333 185.665333,79.5893333 185.308,79.936 C184.950667,80.2826667 184.676,80.7146667 184.484,81.232 C184.292,81.7493333 184.196,82.344 184.196,83.016 C184.196,84.4453333 184.481333,85.4986667 185.052,86.176 C185.622667,86.8533333 186.510667,87.192 187.716,87.192 Z M187.924,86.12 C187.476,86.12 187.097333,86.04 186.788,85.88 C186.478667,85.72 186.230667,85.5013333 186.044,85.224 C185.857333,84.9466667 185.724,84.6186667 185.644,84.24 C185.564,83.8613333 185.524,83.4533333 185.524,83.016 C185.524,81.9493333 185.769333,81.168 186.26,80.672 C186.750667,80.176 187.422667,79.928 188.276,79.928 C188.756,79.928 189.142667,79.9653333 189.436,80.04 C189.729333,80.1146667 189.993333,80.232 190.228,80.392 L190.228,80.392 L190.228,84.104 C190.089333,84.776 189.833333,85.28 189.46,85.616 C189.086667,85.952 188.574667,86.12 187.924,86.12 Z M206.916,87.192 C207.524,87.192 208.06,87.056 208.524,86.784 C208.988,86.512 209.337333,86.1733333 209.572,85.768 L209.572,85.768 L209.636,85.768 L209.796,87 L211.924,87 L211.924,85.96 L210.852,85.96 C210.830667,85.8426667 210.809333,85.7066667 210.788,85.552 C210.766667,85.3973333 210.748,85.24 210.732,85.08 C210.716,84.92 210.702667,84.768 210.692,84.624 C210.681333,84.48 210.676,84.36 210.676,84.264 L210.676,84.264 L210.676,75.8 L208.084,75.8 L208.084,76.872 L209.428,76.872 L209.428,79.144 C209.268,79.1013333 209.121333,79.0613333 208.988,79.024 C208.854667,78.9866667 208.713333,78.9573333 208.564,78.936 C208.414667,78.9146667 208.252,78.8986667 208.076,78.888 C207.9,78.8773333 207.7,78.872 207.476,78.872 C206.857333,78.872 206.297333,78.9626667 205.796,79.144 C205.294667,79.3253333 204.865333,79.5893333 204.508,79.936 C204.150667,80.2826667 203.876,80.7146667 203.684,81.232 C203.492,81.7493333 203.396,82.344 203.396,83.016 C203.396,84.4453333 203.681333,85.4986667 204.252,86.176 C204.822667,86.8533333 205.710667,87.192 206.916,87.192 Z M207.124,86.12 C206.676,86.12 206.297333,86.04 205.988,85.88 C205.678667,85.72 205.430667,85.5013333 205.244,85.224 C205.057333,84.9466667 204.924,84.6186667 204.844,84.24 C204.764,83.8613333 204.724,83.4533333 204.724,83.016 C204.724,81.9493333 204.969333,81.168 205.46,80.672 C205.950667,80.176 206.622667,79.928 207.476,79.928 C207.956,79.928 208.342667,79.9653333 208.636,80.04 C208.929333,80.1146667 209.193333,80.232 209.428,80.392 L209.428,80.392 L209.428,84.104 C209.289333,84.776 209.033333,85.28 208.66,85.616 C208.286667,85.952 207.774667,86.12 207.124,86.12 Z M217.044,87.192 C217.385333,87.192 217.724,87.1626667 218.06,87.104 C218.396,87.0453333 218.718667,86.9626667 219.028,86.856 C219.337333,86.7493333 219.622667,86.6213333 219.884,86.472 C220.145333,86.3226667 220.372,86.1626667 220.564,85.992 L220.564,85.992 L220.068,85.08 C219.961333,85.176 219.809333,85.2826667 219.612,85.4 C219.414667,85.5173333 219.188,85.624 218.932,85.72 C218.676,85.816 218.406667,85.8986667 218.124,85.968 C217.841333,86.0373333 217.556,86.072 217.268,86.072 C216.404,86.072 215.713333,85.8346667 215.196,85.36 C214.678667,84.8853333 214.42,84.168 214.42,83.208 L214.42,83.208 L220.612,83.208 C220.665333,82.3013333 220.601333,81.5626667 220.42,80.992 C220.238667,80.4213333 219.98,79.9733333 219.644,79.648 C219.308,79.3226667 218.921333,79.1013333 218.484,78.984 C218.046667,78.8666667 217.604,78.808 217.156,78.808 C216.537333,78.808 215.977333,78.9013333 215.476,79.088 C214.974667,79.2746667 214.548,79.544 214.196,79.896 C213.844,80.248 213.574667,80.6853333 213.388,81.208 C213.201333,81.7306667 213.108,82.328 213.108,83 C213.108,83.64 213.193333,84.216 213.364,84.728 C213.534667,85.24 213.785333,85.68 214.116,86.048 C214.446667,86.416 214.857333,86.6986667 215.348,86.896 C215.838667,87.0933333 216.404,87.192 217.044,87.192 Z M219.444,82.088 L214.468,82.088 C214.510667,81.672 214.609333,81.3226667 214.764,81.04 C214.918667,80.7573333 215.116,80.528 215.356,80.352 C215.596,80.176 215.873333,80.0506667 216.188,79.976 C216.502667,79.9013333 216.836,79.864 217.188,79.864 C217.838667,79.864 218.364,80.0586667 218.764,80.448 C219.164,80.8373333 219.390667,81.384 219.444,82.088 L219.444,82.088 Z M227.236,87 L230.612,79 L229.22,79 L226.708,85.448 L226.532,85.448 L223.86,79 L222.388,79 L225.828,87 L227.236,87 Z M236.356,77.72 C236.665333,77.72 236.924,77.624 237.132,77.432 C237.34,77.24 237.444,77.0053333 237.444,76.728 C237.444,76.44 237.34,76.192 237.132,75.984 C236.924,75.776 236.665333,75.672 236.356,75.672 C236.057333,75.672 235.812,75.776 235.62,75.984 C235.428,76.192 235.332,76.44 235.332,76.728 C235.332,77.0053333 235.428,77.24 235.62,77.432 C235.812,77.624 236.057333,77.72 236.356,77.72 Z M239.764,87 L239.764,85.928 L237.044,85.928 L237.044,79 L232.98,79 L232.98,80.072 L235.764,80.072 L235.764,85.928 L232.98,85.928 L232.98,87 L239.764,87 Z M246.084,87.192 C246.5,87.192 246.886667,87.1546667 247.244,87.08 C247.601333,87.0053333 247.926667,86.9066667 248.22,86.784 C248.513333,86.6613333 248.772,86.5306667 248.996,86.392 C249.22,86.2533333 249.406667,86.12 249.556,85.992 L249.556,85.992 L248.996,85.064 C248.676,85.3413333 248.278667,85.5653333 247.804,85.736 C247.329333,85.9066667 246.841333,85.992 246.34,85.992 C245.870667,85.992 245.441333,85.9226667 245.052,85.784 C244.662667,85.6453333 244.329333,85.448 244.052,85.192 C243.774667,84.936 243.561333,84.624 243.412,84.256 C243.262667,83.888 243.188,83.4693333 243.188,83 C243.188,81.9333333 243.444,81.1546667 243.956,80.664 C244.468,80.1733333 245.246667,79.928 246.292,79.928 C246.569333,79.928 246.849333,79.9573333 247.132,80.016 C247.414667,80.0746667 247.678667,80.1466667 247.924,80.232 L247.924,80.232 L247.924,81.752 L249.076,81.752 L249.076,79.528 L249.092,79.48 C248.750667,79.3093333 248.332,79.1546667 247.836,79.016 C247.34,78.8773333 246.697333,78.808 245.908,78.808 C245.289333,78.808 244.729333,78.9013333 244.228,79.088 C243.726667,79.2746667 243.3,79.544 242.948,79.896 C242.596,80.248 242.326667,80.6853333 242.14,81.208 C241.953333,81.7306667 241.86,82.328 241.86,83 C241.86,83.6293333 241.950667,84.2026667 242.132,84.72 C242.313333,85.2373333 242.58,85.68 242.932,86.048 C243.284,86.416 243.724,86.6986667 244.252,86.896 C244.78,87.0933333 245.390667,87.192 246.084,87.192 Z M255.444,87.192 C255.785333,87.192 256.124,87.1626667 256.46,87.104 C256.796,87.0453333 257.118667,86.9626667 257.428,86.856 C257.737333,86.7493333 258.022667,86.6213333 258.284,86.472 C258.545333,86.3226667 258.772,86.1626667 258.964,85.992 L258.964,85.992 L258.468,85.08 C258.361333,85.176 258.209333,85.2826667 258.012,85.4 C257.814667,85.5173333 257.588,85.624 257.332,85.72 C257.076,85.816 256.806667,85.8986667 256.524,85.968 C256.241333,86.0373333 255.956,86.072 255.668,86.072 C254.804,86.072 254.113333,85.8346667 253.596,85.36 C253.078667,84.8853333 252.82,84.168 252.82,83.208 L252.82,83.208 L259.012,83.208 C259.065333,82.3013333 259.001333,81.5626667 258.82,80.992 C258.638667,80.4213333 258.38,79.9733333 258.044,79.648 C257.708,79.3226667 257.321333,79.1013333 256.884,78.984 C256.446667,78.8666667 256.004,78.808 255.556,78.808 C254.937333,78.808 254.377333,78.9013333 253.876,79.088 C253.374667,79.2746667 252.948,79.544 252.596,79.896 C252.244,80.248 251.974667,80.6853333 251.788,81.208 C251.601333,81.7306667 251.508,82.328 251.508,83 C251.508,83.64 251.593333,84.216 251.764,84.728 C251.934667,85.24 252.185333,85.68 252.516,86.048 C252.846667,86.416 253.257333,86.6986667 253.748,86.896 C254.238667,87.0933333 254.804,87.192 255.444,87.192 Z M257.844,82.088 L252.868,82.088 C252.910667,81.672 253.009333,81.3226667 253.164,81.04 C253.318667,80.7573333 253.516,80.528 253.756,80.352 C253.996,80.176 254.273333,80.0506667 254.588,79.976 C254.902667,79.9013333 255.236,79.864 255.588,79.864 C256.238667,79.864 256.764,80.0586667 257.164,80.448 C257.564,80.8373333 257.790667,81.384 257.844,82.088 L257.844,82.088 Z M264.868,87.192 C266.030667,87.192 266.902667,86.952 267.484,86.472 C268.065333,85.992 268.356,85.384 268.356,84.648 C268.356,84.1573333 268.222667,83.768 267.956,83.48 C267.689333,83.192 267.358667,82.9626667 266.964,82.792 C266.569333,82.6213333 266.14,82.4906667 265.676,82.4 C265.212,82.3093333 264.782667,82.2133333 264.388,82.112 C263.993333,82.0106667 263.662667,81.8853333 263.396,81.736 C263.129333,81.5866667 262.996,81.3733333 262.996,81.096 C262.996,80.872 263.052,80.6826667 263.164,80.528 C263.276,80.3733333 263.425333,80.248 263.612,80.152 C263.798667,80.056 264.006667,79.984 264.236,79.936 C264.465333,79.888 264.697333,79.864 264.932,79.864 C265.550667,79.864 266.065333,79.952 266.476,80.128 C266.886667,80.304 267.268,80.488 267.62,80.68 L267.62,80.68 L268.132,79.672 C267.812,79.4693333 267.382667,79.2746667 266.844,79.088 C266.305333,78.9013333 265.662667,78.808 264.916,78.808 C264.5,78.808 264.1,78.8533333 263.716,78.944 C263.332,79.0346667 262.996,79.1733333 262.708,79.36 C262.42,79.5466667 262.188,79.784 262.012,80.072 C261.836,80.36 261.748,80.7066667 261.748,81.112 C261.748,81.6026667 261.881333,81.984 262.148,82.256 C262.414667,82.528 262.745333,82.744 263.14,82.904 C263.534667,83.064 263.964,83.192 264.428,83.288 C264.892,83.384 265.321333,83.488 265.716,83.6 C266.110667,83.712 266.441333,83.8613333 266.708,84.048 C266.974667,84.2346667 267.108,84.4986667 267.108,84.84 C267.108,85.0746667 267.052,85.2746667 266.94,85.44 C266.828,85.6053333 266.676,85.7386667 266.484,85.84 C266.292,85.9413333 266.070667,86.016 265.82,86.064 C265.569333,86.112 265.3,86.136 265.012,86.136 C264.713333,86.136 264.417333,86.104 264.124,86.04 C263.830667,85.976 263.556,85.8906667 263.3,85.784 C263.044,85.6773333 262.809333,85.5573333 262.596,85.424 C262.382667,85.2906667 262.212,85.16 262.084,85.032 L262.084,85.032 L261.444,86.072 C261.604,86.2106667 261.806667,86.3466667 262.052,86.48 C262.297333,86.6133333 262.569333,86.7333333 262.868,86.84 C263.166667,86.9466667 263.486667,87.032 263.828,87.096 C264.169333,87.16 264.516,87.192 264.868,87.192 Z M283.06,87.144 C283.465333,87.144 283.817333,87.0906667 284.116,86.984 C284.414667,86.8773333 284.668,86.752 284.876,86.608 C285.084,86.464 285.252,86.3173333 285.38,86.168 C285.508,86.0186667 285.604,85.896 285.668,85.8 L285.668,85.8 L285.748,85.8 L285.892,87 L288.02,87 L288.02,85.96 L286.948,85.96 C286.884,85.48 286.852,84.9733333 286.852,84.44 C286.862667,83.9813333 286.878667,83.5226667 286.9,83.064 C286.921333,82.6053333 286.932,82.1733333 286.932,81.768 C286.932,81.416 286.897333,81.0666667 286.828,80.72 C286.758667,80.3733333 286.625333,80.064 286.428,79.792 C286.230667,79.52 285.958667,79.2986667 285.612,79.128 C285.265333,78.9573333 284.82,78.872 284.276,78.872 C283.721333,78.872 283.156,78.9306667 282.58,79.048 C282.004,79.1653333 281.486667,79.3573333 281.028,79.624 L281.028,79.624 L281.428,80.552 C281.769333,80.4133333 282.158667,80.2773333 282.596,80.144 C283.033333,80.0106667 283.492,79.944 283.972,79.944 C284.324,79.944 284.62,79.984 284.86,80.064 C285.1,80.144 285.286667,80.28 285.42,80.472 C285.553333,80.664 285.638667,80.9226667 285.676,81.248 C285.713333,81.5733333 285.705333,81.9813333 285.652,82.472 C284.862667,82.3546667 284.150667,82.312 283.516,82.344 C282.881333,82.376 282.34,82.488 281.892,82.68 C281.444,82.872 281.1,83.1493333 280.86,83.512 C280.62,83.8746667 280.5,84.328 280.5,84.872 C280.5,85.576 280.729333,86.1306667 281.188,86.536 C281.646667,86.9413333 282.270667,87.144 283.06,87.144 Z M283.38,86.072 C282.814667,86.072 282.412,85.9413333 282.172,85.68 C281.932,85.4186667 281.812,85.112 281.812,84.76 C281.812,84.4186667 281.908,84.1413333 282.1,83.928 C282.292,83.7146667 282.558667,83.5573333 282.9,83.456 C283.241333,83.3546667 283.646667,83.304 284.116,83.304 C284.585333,83.304 285.097333,83.352 285.652,83.448 L285.652,83.448 L285.652,84.568 C285.588,84.728 285.492,84.896 285.364,85.072 C285.236,85.248 285.076,85.4106667 284.884,85.56 C284.692,85.7093333 284.468,85.832 284.212,85.928 C283.956,86.024 283.678667,86.072 283.38,86.072 Z M294.452,87.208 C294.996,87.208 295.526667,87.1173333 296.044,86.936 C296.561333,86.7546667 297.006667,86.5146667 297.38,86.216 L297.38,86.216 L296.964,85.272 C296.676,85.4853333 296.353333,85.6826667 295.996,85.864 C295.638667,86.0453333 295.22,86.136 294.74,86.136 C294.036,86.136 293.494667,85.9493333 293.116,85.576 C292.737333,85.2026667 292.548,84.6266667 292.548,83.848 L292.548,83.848 L292.548,80.072 L296.82,80.072 L296.82,79 L292.548,79 L292.548,77.064 L291.3,77.416 L291.3,79 L289.396,79 L289.396,80.072 L291.3,80.072 L291.3,84.04 C291.3,84.5946667 291.385333,85.072 291.556,85.472 C291.726667,85.872 291.956,86.2 292.244,86.456 C292.532,86.712 292.865333,86.9013333 293.244,87.024 C293.622667,87.1466667 294.025333,87.208 294.452,87.208 Z M313.652,87.208 C314.196,87.208 314.726667,87.1173333 315.244,86.936 C315.761333,86.7546667 316.206667,86.5146667 316.58,86.216 L316.58,86.216 L316.164,85.272 C315.876,85.4853333 315.553333,85.6826667 315.196,85.864 C314.838667,86.0453333 314.42,86.136 313.94,86.136 C313.236,86.136 312.694667,85.9493333 312.316,85.576 C311.937333,85.2026667 311.748,84.6266667 311.748,83.848 L311.748,83.848 L311.748,80.072 L316.02,80.072 L316.02,79 L311.748,79 L311.748,77.064 L310.5,77.416 L310.5,79 L308.596,79 L308.596,80.072 L310.5,80.072 L310.5,84.04 C310.5,84.5946667 310.585333,85.072 310.756,85.472 C310.926667,85.872 311.156,86.2 311.444,86.456 C311.732,86.712 312.065333,86.9013333 312.444,87.024 C312.822667,87.1466667 313.225333,87.208 313.652,87.208 Z M320.26,87 L320.26,81.912 C320.324,81.6133333 320.438667,81.3386667 320.604,81.088 C320.769333,80.8373333 320.966667,80.624 321.196,80.448 C321.425333,80.272 321.678667,80.1333333 321.956,80.032 C322.233333,79.9306667 322.516,79.88 322.804,79.88 C323.22,79.88 323.561333,79.9386667 323.828,80.056 C324.094667,80.1733333 324.305333,80.3466667 324.46,80.576 C324.614667,80.8053333 324.718667,81.0906667 324.772,81.432 C324.825333,81.7733333 324.852,82.1733333 324.852,82.632 L324.852,82.632 L324.852,87 L326.1,87 L326.1,82.392 C326.1,81.6773333 326.041333,81.088 325.924,80.624 C325.806667,80.16 325.628,79.7946667 325.388,79.528 C325.148,79.2613333 324.838667,79.0746667 324.46,78.968 C324.081333,78.8613333 323.636,78.808 323.124,78.808 C322.473333,78.808 321.929333,78.912 321.492,79.12 C321.054667,79.328 320.670667,79.6186667 320.34,79.992 L320.34,79.992 L320.26,79.992 L320.26,75.8 L317.764,75.8 L317.764,76.872 L319.028,76.872 L319.028,87 L320.26,87 Z M332.244,87.192 C332.585333,87.192 332.924,87.1626667 333.26,87.104 C333.596,87.0453333 333.918667,86.9626667 334.228,86.856 C334.537333,86.7493333 334.822667,86.6213333 335.084,86.472 C335.345333,86.3226667 335.572,86.1626667 335.764,85.992 L335.764,85.992 L335.268,85.08 C335.161333,85.176 335.009333,85.2826667 334.812,85.4 C334.614667,85.5173333 334.388,85.624 334.132,85.72 C333.876,85.816 333.606667,85.8986667 333.324,85.968 C333.041333,86.0373333 332.756,86.072 332.468,86.072 C331.604,86.072 330.913333,85.8346667 330.396,85.36 C329.878667,84.8853333 329.62,84.168 329.62,83.208 L329.62,83.208 L335.812,83.208 C335.865333,82.3013333 335.801333,81.5626667 335.62,80.992 C335.438667,80.4213333 335.18,79.9733333 334.844,79.648 C334.508,79.3226667 334.121333,79.1013333 333.684,78.984 C333.246667,78.8666667 332.804,78.808 332.356,78.808 C331.737333,78.808 331.177333,78.9013333 330.676,79.088 C330.174667,79.2746667 329.748,79.544 329.396,79.896 C329.044,80.248 328.774667,80.6853333 328.588,81.208 C328.401333,81.7306667 328.308,82.328 328.308,83 C328.308,83.64 328.393333,84.216 328.564,84.728 C328.734667,85.24 328.985333,85.68 329.316,86.048 C329.646667,86.416 330.057333,86.6986667 330.548,86.896 C331.038667,87.0933333 331.604,87.192 332.244,87.192 Z M334.644,82.088 L329.668,82.088 C329.710667,81.672 329.809333,81.3226667 329.964,81.04 C330.118667,80.7573333 330.316,80.528 330.556,80.352 C330.796,80.176 331.073333,80.0506667 331.388,79.976 C331.702667,79.9013333 332.036,79.864 332.388,79.864 C333.038667,79.864 333.564,80.0586667 333.964,80.448 C334.364,80.8373333 334.590667,81.384 334.644,82.088 L334.644,82.088 Z M354.868,87 L354.868,85.816 L349.54,85.816 L349.54,81.832 L354.388,81.832 L354.388,80.648 L349.54,80.648 L349.54,76.984 L354.788,76.984 L354.788,75.8 L348.212,75.8 L348.212,87 L354.868,87 Z M360.516,87.192 C361.124,87.192 361.66,87.056 362.124,86.784 C362.588,86.512 362.937333,86.1733333 363.172,85.768 L363.172,85.768 L363.236,85.768 L363.396,87 L365.524,87 L365.524,85.96 L364.452,85.96 C364.430667,85.8426667 364.409333,85.7066667 364.388,85.552 C364.366667,85.3973333 364.348,85.24 364.332,85.08 C364.316,84.92 364.302667,84.768 364.292,84.624 C364.281333,84.48 364.276,84.36 364.276,84.264 L364.276,84.264 L364.276,75.8 L361.684,75.8 L361.684,76.872 L363.028,76.872 L363.028,79.144 C362.868,79.1013333 362.721333,79.0613333 362.588,79.024 C362.454667,78.9866667 362.313333,78.9573333 362.164,78.936 C362.014667,78.9146667 361.852,78.8986667 361.676,78.888 C361.5,78.8773333 361.3,78.872 361.076,78.872 C360.457333,78.872 359.897333,78.9626667 359.396,79.144 C358.894667,79.3253333 358.465333,79.5893333 358.108,79.936 C357.750667,80.2826667 357.476,80.7146667 357.284,81.232 C357.092,81.7493333 356.996,82.344 356.996,83.016 C356.996,84.4453333 357.281333,85.4986667 357.852,86.176 C358.422667,86.8533333 359.310667,87.192 360.516,87.192 Z M360.724,86.12 C360.276,86.12 359.897333,86.04 359.588,85.88 C359.278667,85.72 359.030667,85.5013333 358.844,85.224 C358.657333,84.9466667 358.524,84.6186667 358.444,84.24 C358.364,83.8613333 358.324,83.4533333 358.324,83.016 C358.324,81.9493333 358.569333,81.168 359.06,80.672 C359.550667,80.176 360.222667,79.928 361.076,79.928 C361.556,79.928 361.942667,79.9653333 362.236,80.04 C362.529333,80.1146667 362.793333,80.232 363.028,80.392 L363.028,80.392 L363.028,84.104 C362.889333,84.776 362.633333,85.28 362.26,85.616 C361.886667,85.952 361.374667,86.12 360.724,86.12 Z M370.372,90.392 C370.894667,90.392 371.38,90.3306667 371.828,90.208 C372.276,90.0853333 372.668,89.9013333 373.004,89.656 C373.34,89.4106667 373.604,89.0986667 373.796,88.72 C373.988,88.3413333 374.084,87.9013333 374.084,87.4 L374.084,87.4 L374.084,79.352 C373.7,79.2133333 373.276,79.0986667 372.812,79.008 C372.348,78.9173333 371.785333,78.872 371.124,78.872 C369.694667,78.872 368.617333,79.2213333 367.892,79.92 C367.166667,80.6186667 366.804,81.6506667 366.804,83.016 C366.804,84.4453333 367.089333,85.4986667 367.66,86.176 C368.230667,86.8533333 369.124,87.192 370.34,87.192 C370.948,87.192 371.444,87.096 371.828,86.904 C372.212,86.712 372.526667,86.44 372.772,86.088 L372.772,86.088 L372.836,86.088 L372.836,86.984 C372.836,87.4 372.793333,87.752 372.708,88.04 C372.622667,88.328 372.484,88.5626667 372.292,88.744 C372.1,88.9253333 371.846667,89.0586667 371.532,89.144 C371.217333,89.2293333 370.825333,89.272 370.356,89.272 C370.132,89.272 369.905333,89.2506667 369.676,89.208 C369.446667,89.1653333 369.230667,89.1093333 369.028,89.04 C368.825333,88.9706667 368.646667,88.896 368.492,88.816 C368.337333,88.736 368.212,88.6533333 368.116,88.568 L368.116,88.568 L367.508,89.704 C367.849333,89.9066667 368.254667,90.072 368.724,90.2 C369.193333,90.328 369.742667,90.392 370.372,90.392 Z M370.516,86.12 C370.068,86.12 369.692,86.0426667 369.388,85.888 C369.084,85.7333333 368.838667,85.5173333 368.652,85.24 C368.465333,84.9626667 368.329333,84.6346667 368.244,84.256 C368.158667,83.8773333 368.116,83.4586667 368.116,83 C368.116,81.9653333 368.361333,81.1973333 368.852,80.696 C369.342667,80.1946667 370.014667,79.944 370.868,79.944 C371.710667,79.944 372.366667,80.056 372.836,80.28 L372.836,80.28 L372.836,84.072 C372.686667,84.7653333 372.425333,85.28 372.052,85.616 C371.678667,85.952 371.166667,86.12 370.516,86.12 Z M380.244,87.192 C380.585333,87.192 380.924,87.1626667 381.26,87.104 C381.596,87.0453333 381.918667,86.9626667 382.228,86.856 C382.537333,86.7493333 382.822667,86.6213333 383.084,86.472 C383.345333,86.3226667 383.572,86.1626667 383.764,85.992 L383.764,85.992 L383.268,85.08 C383.161333,85.176 383.009333,85.2826667 382.812,85.4 C382.614667,85.5173333 382.388,85.624 382.132,85.72 C381.876,85.816 381.606667,85.8986667 381.324,85.968 C381.041333,86.0373333 380.756,86.072 380.468,86.072 C379.604,86.072 378.913333,85.8346667 378.396,85.36 C377.878667,84.8853333 377.62,84.168 377.62,83.208 L377.62,83.208 L383.812,83.208 C383.865333,82.3013333 383.801333,81.5626667 383.62,80.992 C383.438667,80.4213333 383.18,79.9733333 382.844,79.648 C382.508,79.3226667 382.121333,79.1013333 381.684,78.984 C381.246667,78.8666667 380.804,78.808 380.356,78.808 C379.737333,78.808 379.177333,78.9013333 378.676,79.088 C378.174667,79.2746667 377.748,79.544 377.396,79.896 C377.044,80.248 376.774667,80.6853333 376.588,81.208 C376.401333,81.7306667 376.308,82.328 376.308,83 C376.308,83.64 376.393333,84.216 376.564,84.728 C376.734667,85.24 376.985333,85.68 377.316,86.048 C377.646667,86.416 378.057333,86.6986667 378.548,86.896 C379.038667,87.0933333 379.604,87.192 380.244,87.192 Z M382.644,82.088 L377.668,82.088 C377.710667,81.672 377.809333,81.3226667 377.964,81.04 C378.118667,80.7573333 378.316,80.528 378.556,80.352 C378.796,80.176 379.073333,80.0506667 379.388,79.976 C379.702667,79.9013333 380.036,79.864 380.388,79.864 C381.038667,79.864 381.564,80.0586667 381.964,80.448 C382.364,80.8373333 382.590667,81.384 382.644,82.088 L382.644,82.088 Z" id="OckamenableddevicesattheEdge" fill="#25B8E4" fill-rule="nonzero"></path>
                            <path d="M44,87 L34,87 L34,77 L44,77 M48,81 L48,79 L46,79 L46,77 C46,75.89 45.1,75 44,75 L42,75 L42,73 L40,73 L40,75 L38,75 L38,73 L36,73 L36,75 L34,75 C32.89,75 32,75.89 32,77 L32,79 L30,79 L30,81 L32,81 L32,83 L30,83 L30,85 L32,85 L32,87 C32,88.1045695 32.8954305,89 34,89 L36,89 L36,91 L38,91 L38,89 L40,89 L40,91 L42,91 L42,89 L44,89 C45.1045695,89 46,88.1045695 46,87 L46,85 L48,85 L48,83 L46,83 L46,81 M40,83 L38,83 L38,81 L40,81 M42,79 L36,79 L36,85 L42,85 L42,79 Z" id="Shape" fill="#00BAE9" fill-rule="nonzero"></path>
                        </g>
                    </g>
                    <g id="Group-24" transform="translate(78.000000, 322.000000)">
                        <g id="Group-48-Copy">
                            <g id="Group-20" transform="translate(30.000000, 21.000000)"></g>
                        </g>
                    </g>
                </g>
            </g>
        </g>
    </g>
</svg>
