<?xml version="1.0" encoding="UTF-8"?>
<svg width="512px" height="337px" viewBox="0 0 512 337" version="1.1" xmlns="http://www.w3.org/2000/svg" xmlns:xlink="http://www.w3.org/1999/xlink">
    <!-- Generator: Sketch 62 (91390) - https://sketch.com -->
    <title>Group 27</title>
    <desc>Created with Sketch.</desc>
    <g id="Page-1" stroke="none" stroke-width="1" fill="none" fill-rule="evenodd">
        <g id="Desktop-HD-Copy-12" transform="translate(-763.000000, -3968.000000)">
            <g id="Group-27" transform="translate(763.000000, 3968.000000)">
                <rect id="Rectangle-Copy-13" fill-opacity="0.06" fill="#25B8E4" x="0" y="170" width="316" height="59" rx="10"></rect>
                <rect id="Rectangle-Copy-20" fill-opacity="0.06" fill="#25B8E4" x="0" y="0" width="316" height="59" rx="10"></rect>
                <rect id="Rectangle-Copy-19" fill-opacity="0.06" fill="#25B8E4" x="394" y="170" width="118" height="59" rx="10"></rect>
                <text id="Ockam-Cloud-SDK" font-family="PTMono-Regular, PT Mono" font-size="16" font-weight="normal" fill="#25B8E4">
                    <tspan x="85.5" y="205">Ockam Cloud SDK</tspan>
                </text>
                <g id="Group-26" transform="translate(32.000000, 20.000000)">
                    <text id="Ockam-Registry-Servi" font-family="PTMono-Regular, PT Mono" font-size="16" font-weight="normal" fill="#25B8E4">
                        <tspan x="40.4" y="14">Ockam Registry Service</tspan>
                    </text>
                    <path d="M19.35,6.03 C18.67,2.59 15.64,0 12,0 C9.11,0 6.6,1.64 5.35,4.03 C2.34,4.36 -1.77635684e-15,6.9 -1.77635684e-15,10 C-1.77635684e-15,13.3137085 2.6862915,16 6,16 L19,16 C20.3260824,16 21.597852,15.4732158 22.5355339,14.5355339 C23.4732158,13.597852 24,12.3260824 24,11 C24,8.36 21.95,6.22 19.35,6.03 Z" id="Path" fill="#00BAE9" fill-rule="nonzero"></path>
                </g>
                <g id="Group-20" transform="translate(153.000000, 71.000000)" fill="#40A6C8" fill-rule="nonzero">
                    <path id="Path-5" d="M2.1,0 L2.099,65.5 L6.1,65.5 L1.6,74.5 L-2.9,65.5 L1.099,65.5 L1.1,0 L2.1,0 Z"></path>
                    <path id="Path-5-Copy" d="M14.9,0 L14.9,65.5 L18.9,65.5 L14.4,74.5 L9.9,65.5 L13.9,65.5 L13.9,0 L14.9,0 Z"></path>
                    <path id="Path-5-Copy-6" d="M2.1,191 L2.099,256.5 L6.1,256.5 L1.6,265.5 L-2.9,256.5 L1.099,256.5 L1.1,191 L2.1,191 Z"></path>
                    <path id="Path-5-Copy-7" d="M14.9,191 L14.9,256.5 L18.9,256.5 L14.4,265.5 L9.9,256.5 L13.9,256.5 L13.9,191 L14.9,191 Z"></path>
                </g>
                <g id="Group-5" transform="translate(356.500000, 204.500000) rotate(-270.000000) translate(-356.500000, -204.500000) translate(352.000000, 193.000000)" fill="#40A6C8" fill-rule="nonzero">
                    <path id="Path-5" d="M1,0 L1,13.788 L5,13.7882722 L0.5,22.7882722 L-4,13.7882722 L0,13.788 L0,0 L1,0 Z"></path>
                    <path id="Path-5-Copy" d="M9,1.15463195e-13 L9,13.788 L13,13.7882722 L8.5,22.7882722 L4,13.7882722 L8,13.788 L8,1.15463195e-13 L9,1.15463195e-13 Z"></path>
                </g>
                <text id="HSM" font-family="PTMono-Regular, PT Mono" font-size="16" font-weight="normal" fill="#25B8E4">
                    <tspan x="455.1" y="205">HSM</tspan>
                </text>
                <path d="M430,189 L421,193 L421,199 C421,204.55 424.84,209.74 430,211 C435.16,209.74 439,204.55 439,199 L439,193 L430,189 M430,195 C431.4,195 432.8,196.1 432.8,197.5 L432.8,199 C433.4,199 434,199.6 434,200.3 L434,203.8 C434,204.4 433.4,205 432.7,205 L427.2,205 C426.6,205 426,204.4 426,203.7 L426,200.2 C426,199.6 426.6,199 427.2,199 L427.2,197.5 C427.2,196.1 428.6,195 430,195 M430,196.2 C429.2,196.2 428.5,196.7 428.5,197.5 L428.5,199 L431.5,199 L431.5,197.5 C431.5,196.7 430.8,196.2 430,196.2 Z" id="Shape" fill="#00A8CC" fill-rule="nonzero"></path>
            </g>
        </g>
    </g>
</svg>