<?xml version="1.0" encoding="UTF-8"?>
<svg width="149px" height="567px" viewBox="0 0 149 567" version="1.1" xmlns="http://www.w3.org/2000/svg" xmlns:xlink="http://www.w3.org/1999/xlink">
  <defs>
    <linearGradient x1="100%" y1="50%" x2="0%" y2="50%" id="linearGradient-1">
      <stop stop-color="#0A1A2B" offset="0%"></stop>
      <stop stop-color="#0A1A2B" stop-opacity="0" offset="100%"></stop>
    </linearGradient>
  </defs>
  <g id="router" stroke="none" stroke-width="1" fill="none" fill-rule="evenodd">
    <g id="Group-29-Copy">
      <g id="Group-26" transform="translate(0.000000, 83.000000)">
        <g id="Group-7-Copy" transform="translate(11.000000, 0.000000)">
          <g id="Group-5">
            <rect id="Rectangle-Copy-13" fill-opacity="0.06" fill="#25B8E4" x="58" y="256" width="296" height="59" rx="10"></rect>
            <rect id="Rectangle-Copy-20" fill-opacity="0.06" fill="#25B8E4" x="58" y="86" width="296" height="59" rx="10"></rect>
            <path d="M107.35,114.03 C106.67,110.59 103.64,108 100,108 C97.11,108 94.6,109.64 93.35,112.03 C90.34,112.36 88,114.9 88,118 C88,121.313708 90.6862915,124 94,124 L107,124 C108.326082,124 109.597852,123.473216 110.535534,122.535534 C111.473216,121.597852 112,120.326082 112,119 C112,116.36 109.95,114.22 107.35,114.03 Z" id="Path" fill="#00BAE9" fill-rule="nonzero"></path>
            <path d="M136.784,121.192 C138.170667,121.192 139.192,120.690667 139.848,119.688 C140.504,118.685333 140.832,117.256 140.832,115.4 C140.832,114.525333 140.762667,113.733333 140.624,113.024 C140.485333,112.314667 140.256,111.706667 139.936,111.2 C139.616,110.693333 139.197333,110.301333 138.68,110.024 C138.162667,109.746667 137.530667,109.608 136.784,109.608 C135.418667,109.608 134.408,110.109333 133.752,111.112 C133.096,112.114667 132.768,113.544 132.768,115.4 C132.768,116.274667 132.837333,117.066667 132.976,117.776 C133.114667,118.485333 133.344,119.093333 133.664,119.6 C133.984,120.106667 134.4,120.498667 134.912,120.776 C135.424,121.053333 136.048,121.192 136.784,121.192 Z M136.784,120.008 C136.272,120.008 135.850667,119.882667 135.52,119.632 C135.189333,119.381333 134.922667,119.045333 134.72,118.624 C134.517333,118.202667 134.376,117.714667 134.296,117.16 C134.216,116.605333 134.176,116.018667 134.176,115.4 C134.176,113.832 134.384,112.672 134.8,111.92 C135.216,111.168 135.877333,110.792 136.784,110.792 C137.296,110.792 137.722667,110.917333 138.064,111.168 C138.405333,111.418667 138.677333,111.754667 138.88,112.176 C139.082667,112.597333 139.224,113.088 139.304,113.648 C139.384,114.208 139.424,114.792 139.424,115.4 C139.424,116.978667 139.213333,118.141333 138.792,118.888 C138.370667,119.634667 137.701333,120.008 136.784,120.008 Z M146.784,121.192 C147.2,121.192 147.586667,121.154667 147.944,121.08 C148.301333,121.005333 148.626667,120.906667 148.92,120.784 C149.213333,120.661333 149.472,120.530667 149.696,120.392 C149.92,120.253333 150.106667,120.12 150.256,119.992 L150.256,119.992 L149.696,119.064 C149.376,119.341333 148.978667,119.565333 148.504,119.736 C148.029333,119.906667 147.541333,119.992 147.04,119.992 C146.570667,119.992 146.141333,119.922667 145.752,119.784 C145.362667,119.645333 145.029333,119.448 144.752,119.192 C144.474667,118.936 144.261333,118.624 144.112,118.256 C143.962667,117.888 143.888,117.469333 143.888,117 C143.888,115.933333 144.144,115.154667 144.656,114.664 C145.168,114.173333 145.946667,113.928 146.992,113.928 C147.269333,113.928 147.549333,113.957333 147.832,114.016 C148.114667,114.074667 148.378667,114.146667 148.624,114.232 L148.624,114.232 L148.624,115.752 L149.776,115.752 L149.776,113.528 L149.792,113.48 C149.450667,113.309333 149.032,113.154667 148.536,113.016 C148.04,112.877333 147.397333,112.808 146.608,112.808 C145.989333,112.808 145.429333,112.901333 144.928,113.088 C144.426667,113.274667 144,113.544 143.648,113.896 C143.296,114.248 143.026667,114.685333 142.84,115.208 C142.653333,115.730667 142.56,116.328 142.56,117 C142.56,117.629333 142.650667,118.202667 142.832,118.72 C143.013333,119.237333 143.28,119.68 143.632,120.048 C143.984,120.416 144.424,120.698667 144.952,120.896 C145.48,121.093333 146.090667,121.192 146.784,121.192 Z M154.176,121 L154.176,117.384 L155.056,117.384 L158.48,121 L160.128,121 L160.128,119.928 L159.088,119.928 L156.176,116.792 L159.712,113 L158.208,113 L155.056,116.424 L154.176,116.424 L154.176,109.8 L151.584,109.8 L151.584,110.872 L152.944,110.872 L152.944,121 L154.176,121 Z M164.56,121.144 C164.965333,121.144 165.317333,121.090667 165.616,120.984 C165.914667,120.877333 166.168,120.752 166.376,120.608 C166.584,120.464 166.752,120.317333 166.88,120.168 C167.008,120.018667 167.104,119.896 167.168,119.8 L167.168,119.8 L167.248,119.8 L167.392,121 L169.52,121 L169.52,119.96 L168.448,119.96 C168.384,119.48 168.352,118.973333 168.352,118.44 C168.362667,117.981333 168.378667,117.522667 168.4,117.064 C168.421333,116.605333 168.432,116.173333 168.432,115.768 C168.432,115.416 168.397333,115.066667 168.328,114.72 C168.258667,114.373333 168.125333,114.064 167.928,113.792 C167.730667,113.52 167.458667,113.298667 167.112,113.128 C166.765333,112.957333 166.32,112.872 165.776,112.872 C165.221333,112.872 164.656,112.930667 164.08,113.048 C163.504,113.165333 162.986667,113.357333 162.528,113.624 L162.528,113.624 L162.928,114.552 C163.269333,114.413333 163.658667,114.277333 164.096,114.144 C164.533333,114.010667 164.992,113.944 165.472,113.944 C165.824,113.944 166.12,113.984 166.36,114.064 C166.6,114.144 166.786667,114.28 166.92,114.472 C167.053333,114.664 167.138667,114.922667 167.176,115.248 C167.213333,115.573333 167.205333,115.981333 167.152,116.472 C166.362667,116.354667 165.650667,116.312 165.016,116.344 C164.381333,116.376 163.84,116.488 163.392,116.68 C162.944,116.872 162.6,117.149333 162.36,117.512 C162.12,117.874667 162,118.328 162,118.872 C162,119.576 162.229333,120.130667 162.688,120.536 C163.146667,120.941333 163.770667,121.144 164.56,121.144 Z M164.88,120.072 C164.314667,120.072 163.912,119.941333 163.672,119.68 C163.432,119.418667 163.312,119.112 163.312,118.76 C163.312,118.418667 163.408,118.141333 163.6,117.928 C163.792,117.714667 164.058667,117.557333 164.4,117.456 C164.741333,117.354667 165.146667,117.304 165.616,117.304 C166.085333,117.304 166.597333,117.352 167.152,117.448 L167.152,117.448 L167.152,118.568 C167.088,118.728 166.992,118.896 166.864,119.072 C166.736,119.248 166.576,119.410667 166.384,119.56 C166.192,119.709333 165.968,119.832 165.712,119.928 C165.456,120.024 165.178667,120.072 164.88,120.072 Z M172.272,121 L172.272,115.496 C172.4,115.048 172.589333,114.674667 172.84,114.376 C173.090667,114.077333 173.397333,113.928 173.76,113.928 C173.941333,113.928 174.088,113.976 174.2,114.072 C174.312,114.168 174.397333,114.298667 174.456,114.464 C174.514667,114.629333 174.552,114.816 174.568,115.024 C174.584,115.232 174.592,115.448 174.592,115.672 L174.592,115.672 L174.592,121 L175.808,121 L175.808,115.656 C175.936,115.101333 176.128,114.674667 176.384,114.376 C176.64,114.077333 176.954667,113.928 177.328,113.928 C177.498667,113.928 177.634667,113.970667 177.736,114.056 C177.837333,114.141333 177.917333,114.258667 177.976,114.408 C178.034667,114.557333 178.074667,114.730667 178.096,114.928 C178.117333,115.125333 178.128,115.336 178.128,115.56 L178.128,115.56 L178.128,121 L179.344,121 L179.344,115.288 C179.344,114.914667 179.32,114.576 179.272,114.272 C179.224,113.968 179.138667,113.706667 179.016,113.488 C178.893333,113.269333 178.722667,113.101333 178.504,112.984 C178.285333,112.866667 178,112.808 177.648,112.808 C177.114667,112.808 176.696,112.925333 176.392,113.16 C176.088,113.394667 175.813333,113.72 175.568,114.136 C175.536,113.890667 175.466667,113.682667 175.36,113.512 C175.253333,113.341333 175.128,113.205333 174.984,113.104 C174.84,113.002667 174.682667,112.928 174.512,112.88 C174.341333,112.832 174.176,112.808 174.016,112.808 C173.738667,112.808 173.509333,112.837333 173.328,112.896 C173.146667,112.954667 172.989333,113.037333 172.856,113.144 C172.722667,113.250667 172.605333,113.376 172.504,113.52 C172.402667,113.664 172.298667,113.816 172.192,113.976 L172.192,113.976 L172.128,113.976 L171.888,113 L171.056,113 L171.056,121 L172.272,121 Z M192.528,121 L192.528,116.072 L194.528,116.072 L197.168,121 L198.72,121 L195.76,115.688 C195.92,115.624 196.112,115.517333 196.336,115.368 C196.56,115.218667 196.776,115.024 196.984,114.784 C197.192,114.544 197.368,114.256 197.512,113.92 C197.656,113.584 197.728,113.197333 197.728,112.76 C197.728,112.194667 197.626667,111.714667 197.424,111.32 C197.221333,110.925333 196.952,110.605333 196.616,110.36 C196.28,110.114667 195.890667,109.938667 195.448,109.832 C195.005333,109.725333 194.538667,109.672 194.048,109.672 C193.610667,109.672 193.128,109.693333 192.6,109.736 C192.072,109.778667 191.605333,109.837333 191.2,109.912 L191.2,109.912 L191.2,121 L192.528,121 Z M193.776,115.048 L192.528,115.048 L192.528,110.92 C192.602667,110.898667 192.701333,110.882667 192.824,110.872 C192.946667,110.861333 193.077333,110.850667 193.216,110.84 C193.354667,110.829333 193.498667,110.824 193.648,110.824 L193.648,110.824 L194.08,110.824 C194.784,110.824 195.333333,111.010667 195.728,111.384 C196.122667,111.757333 196.32,112.232 196.32,112.808 C196.32,113.576 196.08,114.141333 195.6,114.504 C195.12,114.866667 194.512,115.048 193.776,115.048 L193.776,115.048 Z M204,121.192 C204.618667,121.192 205.170667,121.093333 205.656,120.896 C206.141333,120.698667 206.549333,120.418667 206.88,120.056 C207.210667,119.693333 207.461333,119.253333 207.632,118.736 C207.802667,118.218667 207.888,117.64 207.888,117 C207.888,116.413333 207.810667,115.864 207.656,115.352 C207.501333,114.84 207.264,114.397333 206.944,114.024 C206.624,113.650667 206.221333,113.354667 205.736,113.136 C205.250667,112.917333 204.672,112.808 204,112.808 C202.752,112.808 201.792,113.184 201.12,113.936 C200.448,114.688 200.112,115.709333 200.112,117 C200.112,117.586667 200.189333,118.136 200.344,118.648 C200.498667,119.16 200.736,119.602667 201.056,119.976 C201.376,120.349333 201.781333,120.645333 202.272,120.864 C202.762667,121.082667 203.338667,121.192 204,121.192 Z M204,120.12 C203.530667,120.12 203.133333,120.029333 202.808,119.848 C202.482667,119.666667 202.218667,119.426667 202.016,119.128 C201.813333,118.829333 201.666667,118.493333 201.576,118.12 C201.485333,117.746667 201.44,117.373333 201.44,117 C201.44,115.965333 201.653333,115.186667 202.08,114.664 C202.506667,114.141333 203.146667,113.88 204,113.88 C204.469333,113.88 204.866667,113.970667 205.192,114.152 C205.517333,114.333333 205.784,114.573333 205.992,114.872 C206.2,115.170667 206.349333,115.504 206.44,115.872 C206.530667,116.24 206.576,116.616 206.576,117 C206.576,118.024 206.36,118.8 205.928,119.328 C205.496,119.856 204.853333,120.12 204,120.12 Z M213.04,121.192 C213.690667,121.192 214.245333,121.048 214.704,120.76 C215.162667,120.472 215.530667,120.098667 215.808,119.64 L215.808,119.64 L215.872,119.64 L215.92,121 L218.048,121 L218.048,119.96 L216.976,119.96 C216.912,119.48 216.88,118.978667 216.88,118.456 L216.88,118.456 L216.88,113 L214.608,113 L214.608,114.072 L215.632,114.072 L215.632,118.216 C215.418667,118.76 215.106667,119.213333 214.696,119.576 C214.285333,119.938667 213.802667,120.12 213.248,120.12 C212.864,120.12 212.557333,120.058667 212.328,119.936 C212.098667,119.813333 211.925333,119.632 211.808,119.392 C211.690667,119.152 211.613333,118.858667 211.576,118.512 C211.538667,118.165333 211.52,117.773333 211.52,117.336 L211.52,117.336 L211.52,113 L209.2,113 L209.2,114.072 L210.272,114.072 L210.272,117.592 C210.272,118.285333 210.325333,118.864 210.432,119.328 C210.538667,119.792 210.704,120.162667 210.928,120.44 C211.152,120.717333 211.437333,120.912 211.784,121.024 C212.130667,121.136 212.549333,121.192 213.04,121.192 Z M223.952,121.208 C224.496,121.208 225.026667,121.117333 225.544,120.936 C226.061333,120.754667 226.506667,120.514667 226.88,120.216 L226.88,120.216 L226.464,119.272 C226.176,119.485333 225.853333,119.682667 225.496,119.864 C225.138667,120.045333 224.72,120.136 224.24,120.136 C223.536,120.136 222.994667,119.949333 222.616,119.576 C222.237333,119.202667 222.048,118.626667 222.048,117.848 L222.048,117.848 L222.048,114.072 L226.32,114.072 L226.32,113 L222.048,113 L222.048,111.064 L220.8,111.416 L220.8,113 L218.896,113 L218.896,114.072 L220.8,114.072 L220.8,118.04 C220.8,118.594667 220.885333,119.072 221.056,119.472 C221.226667,119.872 221.456,120.2 221.744,120.456 C222.032,120.712 222.365333,120.901333 222.744,121.024 C223.122667,121.146667 223.525333,121.208 223.952,121.208 Z M232.944,121.192 C233.285333,121.192 233.624,121.162667 233.96,121.104 C234.296,121.045333 234.618667,120.962667 234.928,120.856 C235.237333,120.749333 235.522667,120.621333 235.784,120.472 C236.045333,120.322667 236.272,120.162667 236.464,119.992 L236.464,119.992 L235.968,119.08 C235.861333,119.176 235.709333,119.282667 235.512,119.4 C235.314667,119.517333 235.088,119.624 234.832,119.72 C234.576,119.816 234.306667,119.898667 234.024,119.968 C233.741333,120.037333 233.456,120.072 233.168,120.072 C232.304,120.072 231.613333,119.834667 231.096,119.36 C230.578667,118.885333 230.32,118.168 230.32,117.208 L230.32,117.208 L236.512,117.208 C236.565333,116.301333 236.501333,115.562667 236.32,114.992 C236.138667,114.421333 235.88,113.973333 235.544,113.648 C235.208,113.322667 234.821333,113.101333 234.384,112.984 C233.946667,112.866667 233.504,112.808 233.056,112.808 C232.437333,112.808 231.877333,112.901333 231.376,113.088 C230.874667,113.274667 230.448,113.544 230.096,113.896 C229.744,114.248 229.474667,114.685333 229.288,115.208 C229.101333,115.730667 229.008,116.328 229.008,117 C229.008,117.64 229.093333,118.216 229.264,118.728 C229.434667,119.24 229.685333,119.68 230.016,120.048 C230.346667,120.416 230.757333,120.698667 231.248,120.896 C231.738667,121.093333 232.304,121.192 232.944,121.192 Z M235.344,116.088 L230.368,116.088 C230.410667,115.672 230.509333,115.322667 230.664,115.04 C230.818667,114.757333 231.016,114.528 231.256,114.352 C231.496,114.176 231.773333,114.050667 232.088,113.976 C232.402667,113.901333 232.736,113.864 233.088,113.864 C233.738667,113.864 234.264,114.058667 234.664,114.448 C235.064,114.837333 235.290667,115.384 235.344,116.088 L235.344,116.088 Z M245.12,121 L245.12,119.928 L242.048,119.928 L242.048,115.208 C242.112,115.112 242.213333,114.994667 242.352,114.856 C242.490667,114.717333 242.658667,114.578667 242.856,114.44 C243.053333,114.301333 243.285333,114.184 243.552,114.088 C243.818667,113.992 244.117333,113.944 244.448,113.944 C244.8,113.944 245.042667,114.104 245.176,114.424 C245.309333,114.744 245.376,115.245333 245.376,115.928 L245.376,115.928 L246.496,115.912 C246.496,115.432 246.474667,115.002667 246.432,114.624 C246.389333,114.245333 246.306667,113.922667 246.184,113.656 C246.061333,113.389333 245.890667,113.186667 245.672,113.048 C245.453333,112.909333 245.162667,112.84 244.8,112.84 C244.181333,112.84 243.648,112.957333 243.2,113.192 C242.752,113.426667 242.346667,113.709333 241.984,114.04 L241.984,114.04 L241.904,114.04 L241.648,113 L238.656,113 L238.656,114.072 L240.816,114.072 L240.816,119.928 L238.656,119.928 L238.656,121 L245.12,121 Z M261.536,121.192 C262.133333,121.192 262.669333,121.117333 263.144,120.968 C263.618667,120.818667 264.018667,120.605333 264.344,120.328 C264.669333,120.050667 264.92,119.72 265.096,119.336 C265.272,118.952 265.36,118.52 265.36,118.04 C265.36,117.453333 265.213333,116.962667 264.92,116.568 C264.626667,116.173333 264.261333,115.834667 263.824,115.552 C263.386667,115.269333 262.912,115.021333 262.4,114.808 C261.888,114.594667 261.413333,114.378667 260.976,114.16 C260.538667,113.941333 260.173333,113.693333 259.88,113.416 C259.586667,113.138667 259.44,112.792 259.44,112.376 C259.44,112.162667 259.493333,111.96 259.6,111.768 C259.706667,111.576 259.858667,111.408 260.056,111.264 C260.253333,111.12 260.493333,111.005333 260.776,110.92 C261.058667,110.834667 261.376,110.792 261.728,110.792 C262.090667,110.792 262.432,110.813333 262.752,110.856 C263.072,110.898667 263.365333,110.952 263.632,111.016 L263.632,111.016 L263.632,112.728 L264.816,112.728 L264.816,110.168 L264.832,110.12 L264.816,110.12 L264.816,110.088 L264.784,110.104 C264.474667,109.954667 264.058667,109.834667 263.536,109.744 C263.013333,109.653333 262.432,109.608 261.792,109.608 C261.237333,109.608 260.733333,109.674667 260.28,109.808 C259.826667,109.941333 259.44,110.130667 259.12,110.376 C258.8,110.621333 258.552,110.92 258.376,111.272 C258.2,111.624 258.112,112.018667 258.112,112.456 C258.112,113.074667 258.258667,113.584 258.552,113.984 C258.845333,114.384 259.210667,114.722667 259.648,115 C260.085333,115.277333 260.56,115.517333 261.072,115.72 C261.584,115.922667 262.058667,116.130667 262.496,116.344 C262.933333,116.557333 263.298667,116.802667 263.592,117.08 C263.885333,117.357333 264.032,117.714667 264.032,118.152 C264.032,118.472 263.965333,118.749333 263.832,118.984 C263.698667,119.218667 263.517333,119.413333 263.288,119.568 C263.058667,119.722667 262.789333,119.834667 262.48,119.904 C262.170667,119.973333 261.84,120.008 261.488,120.008 C261.082667,120.008 260.68,119.952 260.28,119.84 C259.88,119.728 259.52,119.586667 259.2,119.416 L259.2,119.416 L259.2,117.64 L258.016,117.64 L258.016,120.232 L258,120.28 C258.138667,120.354667 258.328,120.445333 258.568,120.552 C258.808,120.658667 259.08,120.76 259.384,120.856 C259.688,120.952 260.021333,121.032 260.384,121.096 C260.746667,121.16 261.130667,121.192 261.536,121.192 Z M271.344,121.192 C271.685333,121.192 272.024,121.162667 272.36,121.104 C272.696,121.045333 273.018667,120.962667 273.328,120.856 C273.637333,120.749333 273.922667,120.621333 274.184,120.472 C274.445333,120.322667 274.672,120.162667 274.864,119.992 L274.864,119.992 L274.368,119.08 C274.261333,119.176 274.109333,119.282667 273.912,119.4 C273.714667,119.517333 273.488,119.624 273.232,119.72 C272.976,119.816 272.706667,119.898667 272.424,119.968 C272.141333,120.037333 271.856,120.072 271.568,120.072 C270.704,120.072 270.013333,119.834667 269.496,119.36 C268.978667,118.885333 268.72,118.168 268.72,117.208 L268.72,117.208 L274.912,117.208 C274.965333,116.301333 274.901333,115.562667 274.72,114.992 C274.538667,114.421333 274.28,113.973333 273.944,113.648 C273.608,113.322667 273.221333,113.101333 272.784,112.984 C272.346667,112.866667 271.904,112.808 271.456,112.808 C270.837333,112.808 270.277333,112.901333 269.776,113.088 C269.274667,113.274667 268.848,113.544 268.496,113.896 C268.144,114.248 267.874667,114.685333 267.688,115.208 C267.501333,115.730667 267.408,116.328 267.408,117 C267.408,117.64 267.493333,118.216 267.664,118.728 C267.834667,119.24 268.085333,119.68 268.416,120.048 C268.746667,120.416 269.157333,120.698667 269.648,120.896 C270.138667,121.093333 270.704,121.192 271.344,121.192 Z M273.744,116.088 L268.768,116.088 C268.810667,115.672 268.909333,115.322667 269.064,115.04 C269.218667,114.757333 269.416,114.528 269.656,114.352 C269.896,114.176 270.173333,114.050667 270.488,113.976 C270.802667,113.901333 271.136,113.864 271.488,113.864 C272.138667,113.864 272.664,114.058667 273.064,114.448 C273.464,114.837333 273.690667,115.384 273.744,116.088 L273.744,116.088 Z M283.52,121 L283.52,119.928 L280.448,119.928 L280.448,115.208 C280.512,115.112 280.613333,114.994667 280.752,114.856 C280.890667,114.717333 281.058667,114.578667 281.256,114.44 C281.453333,114.301333 281.685333,114.184 281.952,114.088 C282.218667,113.992 282.517333,113.944 282.848,113.944 C283.2,113.944 283.442667,114.104 283.576,114.424 C283.709333,114.744 283.776,115.245333 283.776,115.928 L283.776,115.928 L284.896,115.912 C284.896,115.432 284.874667,115.002667 284.832,114.624 C284.789333,114.245333 284.706667,113.922667 284.584,113.656 C284.461333,113.389333 284.290667,113.186667 284.072,113.048 C283.853333,112.909333 283.562667,112.84 283.2,112.84 C282.581333,112.84 282.048,112.957333 281.6,113.192 C281.152,113.426667 280.746667,113.709333 280.384,114.04 L280.384,114.04 L280.304,114.04 L280.048,113 L277.056,113 L277.056,114.072 L279.216,114.072 L279.216,119.928 L277.056,119.928 L277.056,121 L283.52,121 Z M291.136,121 L294.512,113 L293.12,113 L290.608,119.448 L290.432,119.448 L287.76,113 L286.288,113 L289.728,121 L291.136,121 Z M300.256,111.72 C300.565333,111.72 300.824,111.624 301.032,111.432 C301.24,111.24 301.344,111.005333 301.344,110.728 C301.344,110.44 301.24,110.192 301.032,109.984 C300.824,109.776 300.565333,109.672 300.256,109.672 C299.957333,109.672 299.712,109.776 299.52,109.984 C299.328,110.192 299.232,110.44 299.232,110.728 C299.232,111.005333 299.328,111.24 299.52,111.432 C299.712,111.624 299.957333,111.72 300.256,111.72 Z M303.664,121 L303.664,119.928 L300.944,119.928 L300.944,113 L296.88,113 L296.88,114.072 L299.664,114.072 L299.664,119.928 L296.88,119.928 L296.88,121 L303.664,121 Z M309.984,121.192 C310.4,121.192 310.786667,121.154667 311.144,121.08 C311.501333,121.005333 311.826667,120.906667 312.12,120.784 C312.413333,120.661333 312.672,120.530667 312.896,120.392 C313.12,120.253333 313.306667,120.12 313.456,119.992 L313.456,119.992 L312.896,119.064 C312.576,119.341333 312.178667,119.565333 311.704,119.736 C311.229333,119.906667 310.741333,119.992 310.24,119.992 C309.770667,119.992 309.341333,119.922667 308.952,119.784 C308.562667,119.645333 308.229333,119.448 307.952,119.192 C307.674667,118.936 307.461333,118.624 307.312,118.256 C307.162667,117.888 307.088,117.469333 307.088,117 C307.088,115.933333 307.344,115.154667 307.856,114.664 C308.368,114.173333 309.146667,113.928 310.192,113.928 C310.469333,113.928 310.749333,113.957333 311.032,114.016 C311.314667,114.074667 311.578667,114.146667 311.824,114.232 L311.824,114.232 L311.824,115.752 L312.976,115.752 L312.976,113.528 L312.992,113.48 C312.650667,113.309333 312.232,113.154667 311.736,113.016 C311.24,112.877333 310.597333,112.808 309.808,112.808 C309.189333,112.808 308.629333,112.901333 308.128,113.088 C307.626667,113.274667 307.2,113.544 306.848,113.896 C306.496,114.248 306.226667,114.685333 306.04,115.208 C305.853333,115.730667 305.76,116.328 305.76,117 C305.76,117.629333 305.850667,118.202667 306.032,118.72 C306.213333,119.237333 306.48,119.68 306.832,120.048 C307.184,120.416 307.624,120.698667 308.152,120.896 C308.68,121.093333 309.290667,121.192 309.984,121.192 Z M319.344,121.192 C319.685333,121.192 320.024,121.162667 320.36,121.104 C320.696,121.045333 321.018667,120.962667 321.328,120.856 C321.637333,120.749333 321.922667,120.621333 322.184,120.472 C322.445333,120.322667 322.672,120.162667 322.864,119.992 L322.864,119.992 L322.368,119.08 C322.261333,119.176 322.109333,119.282667 321.912,119.4 C321.714667,119.517333 321.488,119.624 321.232,119.72 C320.976,119.816 320.706667,119.898667 320.424,119.968 C320.141333,120.037333 319.856,120.072 319.568,120.072 C318.704,120.072 318.013333,119.834667 317.496,119.36 C316.978667,118.885333 316.72,118.168 316.72,117.208 L316.72,117.208 L322.912,117.208 C322.965333,116.301333 322.901333,115.562667 322.72,114.992 C322.538667,114.421333 322.28,113.973333 321.944,113.648 C321.608,113.322667 321.221333,113.101333 320.784,112.984 C320.346667,112.866667 319.904,112.808 319.456,112.808 C318.837333,112.808 318.277333,112.901333 317.776,113.088 C317.274667,113.274667 316.848,113.544 316.496,113.896 C316.144,114.248 315.874667,114.685333 315.688,115.208 C315.501333,115.730667 315.408,116.328 315.408,117 C315.408,117.64 315.493333,118.216 315.664,118.728 C315.834667,119.24 316.085333,119.68 316.416,120.048 C316.746667,120.416 317.157333,120.698667 317.648,120.896 C318.138667,121.093333 318.704,121.192 319.344,121.192 Z M321.744,116.088 L316.768,116.088 C316.810667,115.672 316.909333,115.322667 317.064,115.04 C317.218667,114.757333 317.416,114.528 317.656,114.352 C317.896,114.176 318.173333,114.050667 318.488,113.976 C318.802667,113.901333 319.136,113.864 319.488,113.864 C320.138667,113.864 320.664,114.058667 321.064,114.448 C321.464,114.837333 321.690667,115.384 321.744,116.088 L321.744,116.088 Z" id="OckamRouterService" fill="#25B8E4" fill-rule="nonzero"></path>
            <path d="M138.284,291.192 C139.670667,291.192 140.692,290.690667 141.348,289.688 C142.004,288.685333 142.332,287.256 142.332,285.4 C142.332,284.525333 142.262667,283.733333 142.124,283.024 C141.985333,282.314667 141.756,281.706667 141.436,281.2 C141.116,280.693333 140.697333,280.301333 140.18,280.024 C139.662667,279.746667 139.030667,279.608 138.284,279.608 C136.918667,279.608 135.908,280.109333 135.252,281.112 C134.596,282.114667 134.268,283.544 134.268,285.4 C134.268,286.274667 134.337333,287.066667 134.476,287.776 C134.614667,288.485333 134.844,289.093333 135.164,289.6 C135.484,290.106667 135.9,290.498667 136.412,290.776 C136.924,291.053333 137.548,291.192 138.284,291.192 Z M138.284,290.008 C137.772,290.008 137.350667,289.882667 137.02,289.632 C136.689333,289.381333 136.422667,289.045333 136.22,288.624 C136.017333,288.202667 135.876,287.714667 135.796,287.16 C135.716,286.605333 135.676,286.018667 135.676,285.4 C135.676,283.832 135.884,282.672 136.3,281.92 C136.716,281.168 137.377333,280.792 138.284,280.792 C138.796,280.792 139.222667,280.917333 139.564,281.168 C139.905333,281.418667 140.177333,281.754667 140.38,282.176 C140.582667,282.597333 140.724,283.088 140.804,283.648 C140.884,284.208 140.924,284.792 140.924,285.4 C140.924,286.978667 140.713333,288.141333 140.292,288.888 C139.870667,289.634667 139.201333,290.008 138.284,290.008 Z M148.284,291.192 C148.7,291.192 149.086667,291.154667 149.444,291.08 C149.801333,291.005333 150.126667,290.906667 150.42,290.784 C150.713333,290.661333 150.972,290.530667 151.196,290.392 C151.42,290.253333 151.606667,290.12 151.756,289.992 L151.756,289.992 L151.196,289.064 C150.876,289.341333 150.478667,289.565333 150.004,289.736 C149.529333,289.906667 149.041333,289.992 148.54,289.992 C148.070667,289.992 147.641333,289.922667 147.252,289.784 C146.862667,289.645333 146.529333,289.448 146.252,289.192 C145.974667,288.936 145.761333,288.624 145.612,288.256 C145.462667,287.888 145.388,287.469333 145.388,287 C145.388,285.933333 145.644,285.154667 146.156,284.664 C146.668,284.173333 147.446667,283.928 148.492,283.928 C148.769333,283.928 149.049333,283.957333 149.332,284.016 C149.614667,284.074667 149.878667,284.146667 150.124,284.232 L150.124,284.232 L150.124,285.752 L151.276,285.752 L151.276,283.528 L151.292,283.48 C150.950667,283.309333 150.532,283.154667 150.036,283.016 C149.54,282.877333 148.897333,282.808 148.108,282.808 C147.489333,282.808 146.929333,282.901333 146.428,283.088 C145.926667,283.274667 145.5,283.544 145.148,283.896 C144.796,284.248 144.526667,284.685333 144.34,285.208 C144.153333,285.730667 144.06,286.328 144.06,287 C144.06,287.629333 144.150667,288.202667 144.332,288.72 C144.513333,289.237333 144.78,289.68 145.132,290.048 C145.484,290.416 145.924,290.698667 146.452,290.896 C146.98,291.093333 147.590667,291.192 148.284,291.192 Z M155.676,291 L155.676,287.384 L156.556,287.384 L159.98,291 L161.628,291 L161.628,289.928 L160.588,289.928 L157.676,286.792 L161.212,283 L159.708,283 L156.556,286.424 L155.676,286.424 L155.676,279.8 L153.084,279.8 L153.084,280.872 L154.444,280.872 L154.444,291 L155.676,291 Z M166.06,291.144 C166.465333,291.144 166.817333,291.090667 167.116,290.984 C167.414667,290.877333 167.668,290.752 167.876,290.608 C168.084,290.464 168.252,290.317333 168.38,290.168 C168.508,290.018667 168.604,289.896 168.668,289.8 L168.668,289.8 L168.748,289.8 L168.892,291 L171.02,291 L171.02,289.96 L169.948,289.96 C169.884,289.48 169.852,288.973333 169.852,288.44 C169.862667,287.981333 169.878667,287.522667 169.9,287.064 C169.921333,286.605333 169.932,286.173333 169.932,285.768 C169.932,285.416 169.897333,285.066667 169.828,284.72 C169.758667,284.373333 169.625333,284.064 169.428,283.792 C169.230667,283.52 168.958667,283.298667 168.612,283.128 C168.265333,282.957333 167.82,282.872 167.276,282.872 C166.721333,282.872 166.156,282.930667 165.58,283.048 C165.004,283.165333 164.486667,283.357333 164.028,283.624 L164.028,283.624 L164.428,284.552 C164.769333,284.413333 165.158667,284.277333 165.596,284.144 C166.033333,284.010667 166.492,283.944 166.972,283.944 C167.324,283.944 167.62,283.984 167.86,284.064 C168.1,284.144 168.286667,284.28 168.42,284.472 C168.553333,284.664 168.638667,284.922667 168.676,285.248 C168.713333,285.573333 168.705333,285.981333 168.652,286.472 C167.862667,286.354667 167.150667,286.312 166.516,286.344 C165.881333,286.376 165.34,286.488 164.892,286.68 C164.444,286.872 164.1,287.149333 163.86,287.512 C163.62,287.874667 163.5,288.328 163.5,288.872 C163.5,289.576 163.729333,290.130667 164.188,290.536 C164.646667,290.941333 165.270667,291.144 166.06,291.144 Z M166.38,290.072 C165.814667,290.072 165.412,289.941333 165.172,289.68 C164.932,289.418667 164.812,289.112 164.812,288.76 C164.812,288.418667 164.908,288.141333 165.1,287.928 C165.292,287.714667 165.558667,287.557333 165.9,287.456 C166.241333,287.354667 166.646667,287.304 167.116,287.304 C167.585333,287.304 168.097333,287.352 168.652,287.448 L168.652,287.448 L168.652,288.568 C168.588,288.728 168.492,288.896 168.364,289.072 C168.236,289.248 168.076,289.410667 167.884,289.56 C167.692,289.709333 167.468,289.832 167.212,289.928 C166.956,290.024 166.678667,290.072 166.38,290.072 Z M173.772,291 L173.772,285.496 C173.9,285.048 174.089333,284.674667 174.34,284.376 C174.590667,284.077333 174.897333,283.928 175.26,283.928 C175.441333,283.928 175.588,283.976 175.7,284.072 C175.812,284.168 175.897333,284.298667 175.956,284.464 C176.014667,284.629333 176.052,284.816 176.068,285.024 C176.084,285.232 176.092,285.448 176.092,285.672 L176.092,285.672 L176.092,291 L177.308,291 L177.308,285.656 C177.436,285.101333 177.628,284.674667 177.884,284.376 C178.14,284.077333 178.454667,283.928 178.828,283.928 C178.998667,283.928 179.134667,283.970667 179.236,284.056 C179.337333,284.141333 179.417333,284.258667 179.476,284.408 C179.534667,284.557333 179.574667,284.730667 179.596,284.928 C179.617333,285.125333 179.628,285.336 179.628,285.56 L179.628,285.56 L179.628,291 L180.844,291 L180.844,285.288 C180.844,284.914667 180.82,284.576 180.772,284.272 C180.724,283.968 180.638667,283.706667 180.516,283.488 C180.393333,283.269333 180.222667,283.101333 180.004,282.984 C179.785333,282.866667 179.5,282.808 179.148,282.808 C178.614667,282.808 178.196,282.925333 177.892,283.16 C177.588,283.394667 177.313333,283.72 177.068,284.136 C177.036,283.890667 176.966667,283.682667 176.86,283.512 C176.753333,283.341333 176.628,283.205333 176.484,283.104 C176.34,283.002667 176.182667,282.928 176.012,282.88 C175.841333,282.832 175.676,282.808 175.516,282.808 C175.238667,282.808 175.009333,282.837333 174.828,282.896 C174.646667,282.954667 174.489333,283.037333 174.356,283.144 C174.222667,283.250667 174.105333,283.376 174.004,283.52 C173.902667,283.664 173.798667,283.816 173.692,283.976 L173.692,283.976 L173.628,283.976 L173.388,283 L172.556,283 L172.556,291 L173.772,291 Z M196.796,291.192 C197.5,291.192 198.097333,291.109333 198.588,290.944 C199.078667,290.778667 199.484,290.573333 199.804,290.328 L199.804,290.328 L199.788,290.296 L199.788,288.136 L198.604,288.136 L198.604,289.736 C198.401333,289.821333 198.18,289.888 197.94,289.936 C197.7,289.984 197.441333,290.008 197.164,290.008 C196.62,290.008 196.126667,289.912 195.684,289.72 C195.241333,289.528 194.862667,289.24 194.548,288.856 C194.233333,288.472 193.988,287.992 193.812,287.416 C193.636,286.84 193.548,286.168 193.548,285.4 C193.548,284.546667 193.646667,283.826667 193.844,283.24 C194.041333,282.653333 194.302667,282.178667 194.628,281.816 C194.953333,281.453333 195.326667,281.192 195.748,281.032 C196.169333,280.872 196.598667,280.792 197.036,280.792 C197.345333,280.792 197.609333,280.810667 197.828,280.848 C198.046667,280.885333 198.246667,280.941333 198.428,281.016 L198.428,281.016 L198.428,282.728 L199.612,282.728 L199.612,280.2 L199.596,280.2 C199.446667,280.104 199.294667,280.018667 199.14,279.944 C198.985333,279.869333 198.806667,279.808 198.604,279.76 C198.401333,279.712 198.166667,279.674667 197.9,279.648 C197.633333,279.621333 197.318667,279.608 196.956,279.608 C196.294667,279.608 195.673333,279.714667 195.092,279.928 C194.510667,280.141333 194.001333,280.48 193.564,280.944 C193.126667,281.408 192.78,282.005333 192.524,282.736 C192.268,283.466667 192.14,284.354667 192.14,285.4 C192.14,286.402667 192.254667,287.269333 192.484,288 C192.713333,288.730667 193.036,289.330667 193.452,289.8 C193.868,290.269333 194.361333,290.618667 194.932,290.848 C195.502667,291.077333 196.124,291.192 196.796,291.192 Z M206.476,291.208 C206.657333,291.208 206.854667,291.186667 207.068,291.144 C207.281333,291.101333 207.494667,291.04 207.708,290.96 C207.921333,290.88 208.129333,290.781333 208.332,290.664 C208.534667,290.546667 208.721333,290.413333 208.892,290.264 L208.892,290.264 L208.316,289.384 C207.985333,289.64 207.684,289.821333 207.412,289.928 C207.14,290.034667 206.854667,290.088 206.556,290.088 C206.129333,290.088 205.806667,289.954667 205.588,289.688 C205.369333,289.421333 205.26,288.962667 205.26,288.312 L205.26,288.312 L205.26,279.8 L202.604,279.8 L202.604,280.872 L204.012,280.872 L204.012,288.312 C204.012,288.856 204.065333,289.312 204.172,289.68 C204.278667,290.048 204.436,290.344 204.644,290.568 C204.852,290.792 205.110667,290.954667 205.42,291.056 C205.729333,291.157333 206.081333,291.208 206.476,291.208 Z M215.1,291.192 C215.718667,291.192 216.270667,291.093333 216.756,290.896 C217.241333,290.698667 217.649333,290.418667 217.98,290.056 C218.310667,289.693333 218.561333,289.253333 218.732,288.736 C218.902667,288.218667 218.988,287.64 218.988,287 C218.988,286.413333 218.910667,285.864 218.756,285.352 C218.601333,284.84 218.364,284.397333 218.044,284.024 C217.724,283.650667 217.321333,283.354667 216.836,283.136 C216.350667,282.917333 215.772,282.808 215.1,282.808 C213.852,282.808 212.892,283.184 212.22,283.936 C211.548,284.688 211.212,285.709333 211.212,287 C211.212,287.586667 211.289333,288.136 211.444,288.648 C211.598667,289.16 211.836,289.602667 212.156,289.976 C212.476,290.349333 212.881333,290.645333 213.372,290.864 C213.862667,291.082667 214.438667,291.192 215.1,291.192 Z M215.1,290.12 C214.630667,290.12 214.233333,290.029333 213.908,289.848 C213.582667,289.666667 213.318667,289.426667 213.116,289.128 C212.913333,288.829333 212.766667,288.493333 212.676,288.12 C212.585333,287.746667 212.54,287.373333 212.54,287 C212.54,285.965333 212.753333,285.186667 213.18,284.664 C213.606667,284.141333 214.246667,283.88 215.1,283.88 C215.569333,283.88 215.966667,283.970667 216.292,284.152 C216.617333,284.333333 216.884,284.573333 217.092,284.872 C217.3,285.170667 217.449333,285.504 217.54,285.872 C217.630667,286.24 217.676,286.616 217.676,287 C217.676,288.024 217.46,288.8 217.028,289.328 C216.596,289.856 215.953333,290.12 215.1,290.12 Z M224.14,291.192 C224.790667,291.192 225.345333,291.048 225.804,290.76 C226.262667,290.472 226.630667,290.098667 226.908,289.64 L226.908,289.64 L226.972,289.64 L227.02,291 L229.148,291 L229.148,289.96 L228.076,289.96 C228.012,289.48 227.98,288.978667 227.98,288.456 L227.98,288.456 L227.98,283 L225.708,283 L225.708,284.072 L226.732,284.072 L226.732,288.216 C226.518667,288.76 226.206667,289.213333 225.796,289.576 C225.385333,289.938667 224.902667,290.12 224.348,290.12 C223.964,290.12 223.657333,290.058667 223.428,289.936 C223.198667,289.813333 223.025333,289.632 222.908,289.392 C222.790667,289.152 222.713333,288.858667 222.676,288.512 C222.638667,288.165333 222.62,287.773333 222.62,287.336 L222.62,287.336 L222.62,283 L220.3,283 L220.3,284.072 L221.372,284.072 L221.372,287.592 C221.372,288.285333 221.425333,288.864 221.532,289.328 C221.638667,289.792 221.804,290.162667 222.028,290.44 C222.252,290.717333 222.537333,290.912 222.884,291.024 C223.230667,291.136 223.649333,291.192 224.14,291.192 Z M233.916,291.192 C234.524,291.192 235.06,291.056 235.524,290.784 C235.988,290.512 236.337333,290.173333 236.572,289.768 L236.572,289.768 L236.636,289.768 L236.796,291 L238.924,291 L238.924,289.96 L237.852,289.96 C237.830667,289.842667 237.809333,289.706667 237.788,289.552 C237.766667,289.397333 237.748,289.24 237.732,289.08 C237.716,288.92 237.702667,288.768 237.692,288.624 C237.681333,288.48 237.676,288.36 237.676,288.264 L237.676,288.264 L237.676,279.8 L235.084,279.8 L235.084,280.872 L236.428,280.872 L236.428,283.144 C236.268,283.101333 236.121333,283.061333 235.988,283.024 C235.854667,282.986667 235.713333,282.957333 235.564,282.936 C235.414667,282.914667 235.252,282.898667 235.076,282.888 C234.9,282.877333 234.7,282.872 234.476,282.872 C233.857333,282.872 233.297333,282.962667 232.796,283.144 C232.294667,283.325333 231.865333,283.589333 231.508,283.936 C231.150667,284.282667 230.876,284.714667 230.684,285.232 C230.492,285.749333 230.396,286.344 230.396,287.016 C230.396,288.445333 230.681333,289.498667 231.252,290.176 C231.822667,290.853333 232.710667,291.192 233.916,291.192 Z M234.124,290.12 C233.676,290.12 233.297333,290.04 232.988,289.88 C232.678667,289.72 232.430667,289.501333 232.244,289.224 C232.057333,288.946667 231.924,288.618667 231.844,288.24 C231.764,287.861333 231.724,287.453333 231.724,287.016 C231.724,285.949333 231.969333,285.168 232.46,284.672 C232.950667,284.176 233.622667,283.928 234.476,283.928 C234.956,283.928 235.342667,283.965333 235.636,284.04 C235.929333,284.114667 236.193333,284.232 236.428,284.392 L236.428,284.392 L236.428,288.104 C236.289333,288.776 236.033333,289.28 235.66,289.616 C235.286667,289.952 234.774667,290.12 234.124,290.12 Z M253.436,291.192 C254.033333,291.192 254.569333,291.117333 255.044,290.968 C255.518667,290.818667 255.918667,290.605333 256.244,290.328 C256.569333,290.050667 256.82,289.72 256.996,289.336 C257.172,288.952 257.26,288.52 257.26,288.04 C257.26,287.453333 257.113333,286.962667 256.82,286.568 C256.526667,286.173333 256.161333,285.834667 255.724,285.552 C255.286667,285.269333 254.812,285.021333 254.3,284.808 C253.788,284.594667 253.313333,284.378667 252.876,284.16 C252.438667,283.941333 252.073333,283.693333 251.78,283.416 C251.486667,283.138667 251.34,282.792 251.34,282.376 C251.34,282.162667 251.393333,281.96 251.5,281.768 C251.606667,281.576 251.758667,281.408 251.956,281.264 C252.153333,281.12 252.393333,281.005333 252.676,280.92 C252.958667,280.834667 253.276,280.792 253.628,280.792 C253.990667,280.792 254.332,280.813333 254.652,280.856 C254.972,280.898667 255.265333,280.952 255.532,281.016 L255.532,281.016 L255.532,282.728 L256.716,282.728 L256.716,280.168 L256.732,280.12 L256.716,280.12 L256.716,280.088 L256.684,280.104 C256.374667,279.954667 255.958667,279.834667 255.436,279.744 C254.913333,279.653333 254.332,279.608 253.692,279.608 C253.137333,279.608 252.633333,279.674667 252.18,279.808 C251.726667,279.941333 251.34,280.130667 251.02,280.376 C250.7,280.621333 250.452,280.92 250.276,281.272 C250.1,281.624 250.012,282.018667 250.012,282.456 C250.012,283.074667 250.158667,283.584 250.452,283.984 C250.745333,284.384 251.110667,284.722667 251.548,285 C251.985333,285.277333 252.46,285.517333 252.972,285.72 C253.484,285.922667 253.958667,286.130667 254.396,286.344 C254.833333,286.557333 255.198667,286.802667 255.492,287.08 C255.785333,287.357333 255.932,287.714667 255.932,288.152 C255.932,288.472 255.865333,288.749333 255.732,288.984 C255.598667,289.218667 255.417333,289.413333 255.188,289.568 C254.958667,289.722667 254.689333,289.834667 254.38,289.904 C254.070667,289.973333 253.74,290.008 253.388,290.008 C252.982667,290.008 252.58,289.952 252.18,289.84 C251.78,289.728 251.42,289.586667 251.1,289.416 L251.1,289.416 L251.1,287.64 L249.916,287.64 L249.916,290.232 L249.9,290.28 C250.038667,290.354667 250.228,290.445333 250.468,290.552 C250.708,290.658667 250.98,290.76 251.284,290.856 C251.588,290.952 251.921333,291.032 252.284,291.096 C252.646667,291.16 253.030667,291.192 253.436,291.192 Z M261.964,291.144 C262.966667,291.144 263.801333,290.981333 264.468,290.656 C265.134667,290.330667 265.665333,289.898667 266.06,289.36 C266.454667,288.821333 266.732,288.202667 266.892,287.504 C267.052,286.805333 267.132,286.077333 267.132,285.32 C267.132,284.488 267.044,283.725333 266.868,283.032 C266.692,282.338667 266.404,281.744 266.004,281.248 C265.604,280.752 265.076,280.365333 264.42,280.088 C263.764,279.810667 262.950667,279.672 261.98,279.672 C261.670667,279.672 261.294667,279.68 260.852,279.696 C260.409333,279.712 259.985333,279.746667 259.58,279.8 L259.58,279.8 L259.58,291.016 C259.686667,291.037333 259.846667,291.053333 260.06,291.064 C260.273333,291.074667 260.497333,291.088 260.732,291.104 C260.966667,291.12 261.196,291.130667 261.42,291.136 C261.644,291.141333 261.825333,291.144 261.964,291.144 Z M262.012,289.96 C261.948,289.96 261.865333,289.957333 261.764,289.952 C261.662667,289.946667 261.558667,289.941333 261.452,289.936 L261.294,289.928 L261.294,289.928 L261.14,289.92 C261.038667,289.914667 260.961333,289.906667 260.908,289.896 L260.908,289.896 L260.908,280.936 C261.057333,280.904 261.246667,280.882667 261.476,280.872 C261.705333,280.861333 261.894667,280.856 262.044,280.856 C262.833333,280.856 263.470667,280.992 263.956,281.264 C264.441333,281.536 264.814667,281.885333 265.076,282.312 C265.337333,282.738667 265.510667,283.216 265.596,283.744 C265.681333,284.272 265.724,284.797333 265.724,285.32 C265.724,285.917333 265.676,286.496 265.58,287.056 C265.484,287.616 265.302667,288.112 265.036,288.544 C264.769333,288.976 264.393333,289.32 263.908,289.576 C263.422667,289.832 262.790667,289.96 262.012,289.96 Z M270.588,291 L270.588,285.816 L271.82,285.816 L275.74,291 L277.42,291 L272.972,285.128 L276.924,279.8 L275.388,279.8 L271.788,284.792 L270.588,284.792 L270.588,279.8 L269.26,279.8 L269.26,291 L270.588,291 Z" id="OckamCloudSDK" fill="#25B8E4" fill-rule="nonzero"></path>
            <path d="M572,56 C577.522847,56 582,60.4771525 582,66 L582,335 C582,340.522847 577.522847,345 572,345 L28,345 C22.4771525,345 18,340.522847 18,335 L18,66 C18,60.4771525 22.4771525,56 28,56 L572,56 Z M572,57 L28,57 C23.1181973,57 19.1442086,60.8868137 19,65.7346377 L19,66 L19,335 C19,339.881803 22.8868137,343.855791 27.7346377,343.996163 L28,344 L572,344 C576.881803,344 580.855791,340.113186 581,335.265362 L581,335 L581,66 C581,61.1181973 577.113186,57.1442086 572.265362,57.0038371 L572,57 Z" id="Rectangle" fill="#4BC7EC" fill-rule="nonzero"></path>
            <rect id="Rectangle-Copy-14" fill="#0A1A2B" transform="translate(18.000000, 201.000000) rotate(-270.000000) translate(-18.000000, -201.000000) " x="-72" y="183" width="180" height="36" rx="10"></rect>
            <path d="M-34.816,189.192 C-33.4293333,189.192 -32.408,188.690667 -31.752,187.688 C-31.096,186.685333 -30.768,185.256 -30.768,183.4 C-30.768,182.525333 -30.8373333,181.733333 -30.976,181.024 C-31.1146667,180.314667 -31.344,179.706667 -31.664,179.2 C-31.984,178.693333 -32.4026667,178.301333 -32.92,178.024 C-33.4373333,177.746667 -34.0693333,177.608 -34.816,177.608 C-36.1813333,177.608 -37.192,178.109333 -37.848,179.112 C-38.504,180.114667 -38.832,181.544 -38.832,183.4 C-38.832,184.274667 -38.7626667,185.066667 -38.624,185.776 C-38.4853333,186.485333 -38.256,187.093333 -37.936,187.6 C-37.616,188.106667 -37.2,188.498667 -36.688,188.776 C-36.176,189.053333 -35.552,189.192 -34.816,189.192 Z M-34.816,188.008 C-35.328,188.008 -35.7493333,187.882667 -36.08,187.632 C-36.4106667,187.381333 -36.6773333,187.045333 -36.88,186.624 C-37.0826667,186.202667 -37.224,185.714667 -37.304,185.16 C-37.384,184.605333 -37.424,184.018667 -37.424,183.4 C-37.424,181.832 -37.216,180.672 -36.8,179.92 C-36.384,179.168 -35.7226667,178.792 -34.816,178.792 C-34.304,178.792 -33.8773333,178.917333 -33.536,179.168 C-33.1946667,179.418667 -32.9226667,179.754667 -32.72,180.176 C-32.5173333,180.597333 -32.376,181.088 -32.296,181.648 C-32.216,182.208 -32.176,182.792 -32.176,183.4 C-32.176,184.978667 -32.3866667,186.141333 -32.808,186.888 C-33.2293333,187.634667 -33.8986667,188.008 -34.816,188.008 Z M-24.816,189.192 C-24.4,189.192 -24.0133333,189.154667 -23.656,189.08 C-23.2986667,189.005333 -22.9733333,188.906667 -22.68,188.784 C-22.3866667,188.661333 -22.128,188.530667 -21.904,188.392 C-21.68,188.253333 -21.4933333,188.12 -21.344,187.992 L-21.344,187.992 L-21.904,187.064 C-22.224,187.341333 -22.6213333,187.565333 -23.096,187.736 C-23.5706667,187.906667 -24.0586667,187.992 -24.56,187.992 C-25.0293333,187.992 -25.4586667,187.922667 -25.848,187.784 C-26.2373333,187.645333 -26.5706667,187.448 -26.848,187.192 C-27.1253333,186.936 -27.3386667,186.624 -27.488,186.256 C-27.6373333,185.888 -27.712,185.469333 -27.712,185 C-27.712,183.933333 -27.456,183.154667 -26.944,182.664 C-26.432,182.173333 -25.6533333,181.928 -24.608,181.928 C-24.3306667,181.928 -24.0506667,181.957333 -23.768,182.016 C-23.4853333,182.074667 -23.2213333,182.146667 -22.976,182.232 L-22.976,182.232 L-22.976,183.752 L-21.824,183.752 L-21.824,181.528 L-21.808,181.48 C-22.1493333,181.309333 -22.568,181.154667 -23.064,181.016 C-23.56,180.877333 -24.2026667,180.808 -24.992,180.808 C-25.6106667,180.808 -26.1706667,180.901333 -26.672,181.088 C-27.1733333,181.274667 -27.6,181.544 -27.952,181.896 C-28.304,182.248 -28.5733333,182.685333 -28.76,183.208 C-28.9466667,183.730667 -29.04,184.328 -29.04,185 C-29.04,185.629333 -28.9493333,186.202667 -28.768,186.72 C-28.5866667,187.237333 -28.32,187.68 -27.968,188.048 C-27.616,188.416 -27.176,188.698667 -26.648,188.896 C-26.12,189.093333 -25.5093333,189.192 -24.816,189.192 Z M-17.424,189 L-17.424,185.384 L-16.544,185.384 L-13.12,189 L-11.472,189 L-11.472,187.928 L-12.512,187.928 L-15.424,184.792 L-11.888,181 L-13.392,181 L-16.544,184.424 L-17.424,184.424 L-17.424,177.8 L-20.016,177.8 L-20.016,178.872 L-18.656,178.872 L-18.656,189 L-17.424,189 Z M-7.04,189.144 C-6.63466667,189.144 -6.28266667,189.090667 -5.984,188.984 C-5.68533333,188.877333 -5.432,188.752 -5.224,188.608 C-5.016,188.464 -4.848,188.317333 -4.72,188.168 C-4.592,188.018667 -4.496,187.896 -4.432,187.8 L-4.432,187.8 L-4.352,187.8 L-4.208,189 L-2.08,189 L-2.08,187.96 L-3.152,187.96 C-3.216,187.48 -3.248,186.973333 -3.248,186.44 C-3.23733333,185.981333 -3.22133333,185.522667 -3.2,185.064 C-3.17866667,184.605333 -3.168,184.173333 -3.168,183.768 C-3.168,183.416 -3.20266667,183.066667 -3.272,182.72 C-3.34133333,182.373333 -3.47466667,182.064 -3.672,181.792 C-3.86933333,181.52 -4.14133333,181.298667 -4.488,181.128 C-4.83466667,180.957333 -5.28,180.872 -5.824,180.872 C-6.37866667,180.872 -6.944,180.930667 -7.52,181.048 C-8.096,181.165333 -8.61333333,181.357333 -9.072,181.624 L-9.072,181.624 L-8.672,182.552 C-8.33066667,182.413333 -7.94133333,182.277333 -7.504,182.144 C-7.06666667,182.010667 -6.608,181.944 -6.128,181.944 C-5.776,181.944 -5.48,181.984 -5.24,182.064 C-5,182.144 -4.81333333,182.28 -4.68,182.472 C-4.54666667,182.664 -4.46133333,182.922667 -4.424,183.248 C-4.38666667,183.573333 -4.39466667,183.981333 -4.448,184.472 C-5.23733333,184.354667 -5.94933333,184.312 -6.584,184.344 C-7.21866667,184.376 -7.76,184.488 -8.208,184.68 C-8.656,184.872 -9,185.149333 -9.24,185.512 C-9.48,185.874667 -9.6,186.328 -9.6,186.872 C-9.6,187.576 -9.37066667,188.130667 -8.912,188.536 C-8.45333333,188.941333 -7.82933333,189.144 -7.04,189.144 Z M-6.72,188.072 C-7.28533333,188.072 -7.688,187.941333 -7.928,187.68 C-8.168,187.418667 -8.288,187.112 -8.288,186.76 C-8.288,186.418667 -8.192,186.141333 -8,185.928 C-7.808,185.714667 -7.54133333,185.557333 -7.2,185.456 C-6.85866667,185.354667 -6.45333333,185.304 -5.984,185.304 C-5.51466667,185.304 -5.00266667,185.352 -4.448,185.448 L-4.448,185.448 L-4.448,186.568 C-4.512,186.728 -4.608,186.896 -4.736,187.072 C-4.864,187.248 -5.024,187.410667 -5.216,187.56 C-5.408,187.709333 -5.632,187.832 -5.888,187.928 C-6.144,188.024 -6.42133333,188.072 -6.72,188.072 Z M0.672,189 L0.672,183.496 C0.8,183.048 0.989333333,182.674667 1.24,182.376 C1.49066667,182.077333 1.79733333,181.928 2.16,181.928 C2.34133333,181.928 2.488,181.976 2.6,182.072 C2.712,182.168 2.79733333,182.298667 2.856,182.464 C2.91466667,182.629333 2.952,182.816 2.968,183.024 C2.984,183.232 2.992,183.448 2.992,183.672 L2.992,183.672 L2.992,189 L4.208,189 L4.208,183.656 C4.336,183.101333 4.528,182.674667 4.784,182.376 C5.04,182.077333 5.35466667,181.928 5.728,181.928 C5.89866667,181.928 6.03466667,181.970667 6.136,182.056 C6.23733333,182.141333 6.31733333,182.258667 6.376,182.408 C6.43466667,182.557333 6.47466667,182.730667 6.496,182.928 C6.51733333,183.125333 6.528,183.336 6.528,183.56 L6.528,183.56 L6.528,189 L7.744,189 L7.744,183.288 C7.744,182.914667 7.72,182.576 7.672,182.272 C7.624,181.968 7.53866667,181.706667 7.416,181.488 C7.29333333,181.269333 7.12266667,181.101333 6.904,180.984 C6.68533333,180.866667 6.4,180.808 6.048,180.808 C5.51466667,180.808 5.096,180.925333 4.792,181.16 C4.488,181.394667 4.21333333,181.72 3.968,182.136 C3.936,181.890667 3.86666667,181.682667 3.76,181.512 C3.65333333,181.341333 3.528,181.205333 3.384,181.104 C3.24,181.002667 3.08266667,180.928 2.912,180.88 C2.74133333,180.832 2.576,180.808 2.416,180.808 C2.13866667,180.808 1.90933333,180.837333 1.728,180.896 C1.54666667,180.954667 1.38933333,181.037333 1.256,181.144 C1.12266667,181.250667 1.00533333,181.376 0.904,181.52 C0.802666667,181.664 0.698666667,181.816 0.592,181.976 L0.592,181.976 L0.528,181.976 L0.288,181 L-0.544,181 L-0.544,189 L0.672,189 Z M20.928,189 L20.928,184.072 L22.928,184.072 L25.568,189 L27.12,189 L24.16,183.688 C24.32,183.624 24.512,183.517333 24.736,183.368 C24.96,183.218667 25.176,183.024 25.384,182.784 C25.592,182.544 25.768,182.256 25.912,181.92 C26.056,181.584 26.128,181.197333 26.128,180.76 C26.128,180.194667 26.0266667,179.714667 25.824,179.32 C25.6213333,178.925333 25.352,178.605333 25.016,178.36 C24.68,178.114667 24.2906667,177.938667 23.848,177.832 C23.4053333,177.725333 22.9386667,177.672 22.448,177.672 C22.0106667,177.672 21.528,177.693333 21,177.736 C20.472,177.778667 20.0053333,177.837333 19.6,177.912 L19.6,177.912 L19.6,189 L20.928,189 Z M22.176,183.048 L20.928,183.048 L20.928,178.92 C21.0026667,178.898667 21.1013333,178.882667 21.224,178.872 C21.3466667,178.861333 21.4773333,178.850667 21.616,178.84 C21.7546667,178.829333 21.8986667,178.824 22.048,178.824 L22.048,178.824 L22.48,178.824 C23.184,178.824 23.7333333,179.010667 24.128,179.384 C24.5226667,179.757333 24.72,180.232 24.72,180.808 C24.72,181.576 24.48,182.141333 24,182.504 C23.52,182.866667 22.912,183.048 22.176,183.048 L22.176,183.048 Z M32.4,189.192 C33.0186667,189.192 33.5706667,189.093333 34.056,188.896 C34.5413333,188.698667 34.9493333,188.418667 35.28,188.056 C35.6106667,187.693333 35.8613333,187.253333 36.032,186.736 C36.2026667,186.218667 36.288,185.64 36.288,185 C36.288,184.413333 36.2106667,183.864 36.056,183.352 C35.9013333,182.84 35.664,182.397333 35.344,182.024 C35.024,181.650667 34.6213333,181.354667 34.136,181.136 C33.6506667,180.917333 33.072,180.808 32.4,180.808 C31.152,180.808 30.192,181.184 29.52,181.936 C28.848,182.688 28.512,183.709333 28.512,185 C28.512,185.586667 28.5893333,186.136 28.744,186.648 C28.8986667,187.16 29.136,187.602667 29.456,187.976 C29.776,188.349333 30.1813333,188.645333 30.672,188.864 C31.1626667,189.082667 31.7386667,189.192 32.4,189.192 Z M32.4,188.12 C31.9306667,188.12 31.5333333,188.029333 31.208,187.848 C30.8826667,187.666667 30.6186667,187.426667 30.416,187.128 C30.2133333,186.829333 30.0666667,186.493333 29.976,186.12 C29.8853333,185.746667 29.84,185.373333 29.84,185 C29.84,183.965333 30.0533333,183.186667 30.48,182.664 C30.9066667,182.141333 31.5466667,181.88 32.4,181.88 C32.8693333,181.88 33.2666667,181.970667 33.592,182.152 C33.9173333,182.333333 34.184,182.573333 34.392,182.872 C34.6,183.170667 34.7493333,183.504 34.84,183.872 C34.9306667,184.24 34.976,184.616 34.976,185 C34.976,186.024 34.76,186.8 34.328,187.328 C33.896,187.856 33.2533333,188.12 32.4,188.12 Z M41.44,189.192 C42.0906667,189.192 42.6453333,189.048 43.104,188.76 C43.5626667,188.472 43.9306667,188.098667 44.208,187.64 L44.208,187.64 L44.272,187.64 L44.32,189 L46.448,189 L46.448,187.96 L45.376,187.96 C45.312,187.48 45.28,186.978667 45.28,186.456 L45.28,186.456 L45.28,181 L43.008,181 L43.008,182.072 L44.032,182.072 L44.032,186.216 C43.8186667,186.76 43.5066667,187.213333 43.096,187.576 C42.6853333,187.938667 42.2026667,188.12 41.648,188.12 C41.264,188.12 40.9573333,188.058667 40.728,187.936 C40.4986667,187.813333 40.3253333,187.632 40.208,187.392 C40.0906667,187.152 40.0133333,186.858667 39.976,186.512 C39.9386667,186.165333 39.92,185.773333 39.92,185.336 L39.92,185.336 L39.92,181 L37.6,181 L37.6,182.072 L38.672,182.072 L38.672,185.592 C38.672,186.285333 38.7253333,186.864 38.832,187.328 C38.9386667,187.792 39.104,188.162667 39.328,188.44 C39.552,188.717333 39.8373333,188.912 40.184,189.024 C40.5306667,189.136 40.9493333,189.192 41.44,189.192 Z M52.352,189.208 C52.896,189.208 53.4266667,189.117333 53.944,188.936 C54.4613333,188.754667 54.9066667,188.514667 55.28,188.216 L55.28,188.216 L54.864,187.272 C54.576,187.485333 54.2533333,187.682667 53.896,187.864 C53.5386667,188.045333 53.12,188.136 52.64,188.136 C51.936,188.136 51.3946667,187.949333 51.016,187.576 C50.6373333,187.202667 50.448,186.626667 50.448,185.848 L50.448,185.848 L50.448,182.072 L54.72,182.072 L54.72,181 L50.448,181 L50.448,179.064 L49.2,179.416 L49.2,181 L47.296,181 L47.296,182.072 L49.2,182.072 L49.2,186.04 C49.2,186.594667 49.2853333,187.072 49.456,187.472 C49.6266667,187.872 49.856,188.2 50.144,188.456 C50.432,188.712 50.7653333,188.901333 51.144,189.024 C51.5226667,189.146667 51.9253333,189.208 52.352,189.208 Z M61.344,189.192 C61.6853333,189.192 62.024,189.162667 62.36,189.104 C62.696,189.045333 63.0186667,188.962667 63.328,188.856 C63.6373333,188.749333 63.9226667,188.621333 64.184,188.472 C64.4453333,188.322667 64.672,188.162667 64.864,187.992 L64.864,187.992 L64.368,187.08 C64.2613333,187.176 64.1093333,187.282667 63.912,187.4 C63.7146667,187.517333 63.488,187.624 63.232,187.72 C62.976,187.816 62.7066667,187.898667 62.424,187.968 C62.1413333,188.037333 61.856,188.072 61.568,188.072 C60.704,188.072 60.0133333,187.834667 59.496,187.36 C58.9786667,186.885333 58.72,186.168 58.72,185.208 L58.72,185.208 L64.912,185.208 C64.9653333,184.301333 64.9013333,183.562667 64.72,182.992 C64.5386667,182.421333 64.28,181.973333 63.944,181.648 C63.608,181.322667 63.2213333,181.101333 62.784,180.984 C62.3466667,180.866667 61.904,180.808 61.456,180.808 C60.8373333,180.808 60.2773333,180.901333 59.776,181.088 C59.2746667,181.274667 58.848,181.544 58.496,181.896 C58.144,182.248 57.8746667,182.685333 57.688,183.208 C57.5013333,183.730667 57.408,184.328 57.408,185 C57.408,185.64 57.4933333,186.216 57.664,186.728 C57.8346667,187.24 58.0853333,187.68 58.416,188.048 C58.7466667,188.416 59.1573333,188.698667 59.648,188.896 C60.1386667,189.093333 60.704,189.192 61.344,189.192 Z M63.744,184.088 L58.768,184.088 C58.8106667,183.672 58.9093333,183.322667 59.064,183.04 C59.2186667,182.757333 59.416,182.528 59.656,182.352 C59.896,182.176 60.1733333,182.050667 60.488,181.976 C60.8026667,181.901333 61.136,181.864 61.488,181.864 C62.1386667,181.864 62.664,182.058667 63.064,182.448 C63.464,182.837333 63.6906667,183.384 63.744,184.088 L63.744,184.088 Z M73.52,189 L73.52,187.928 L70.448,187.928 L70.448,183.208 C70.512,183.112 70.6133333,182.994667 70.752,182.856 C70.8906667,182.717333 71.0586667,182.578667 71.256,182.44 C71.4533333,182.301333 71.6853333,182.184 71.952,182.088 C72.2186667,181.992 72.5173333,181.944 72.848,181.944 C73.2,181.944 73.4426667,182.104 73.576,182.424 C73.7093333,182.744 73.776,183.245333 73.776,183.928 L73.776,183.928 L74.896,183.912 C74.896,183.432 74.8746667,183.002667 74.832,182.624 C74.7893333,182.245333 74.7066667,181.922667 74.584,181.656 C74.4613333,181.389333 74.2906667,181.186667 74.072,181.048 C73.8533333,180.909333 73.5626667,180.84 73.2,180.84 C72.5813333,180.84 72.048,180.957333 71.6,181.192 C71.152,181.426667 70.7466667,181.709333 70.384,182.04 L70.384,182.04 L70.304,182.04 L70.048,181 L67.056,181 L67.056,182.072 L69.216,182.072 L69.216,187.928 L67.056,187.928 L67.056,189 L73.52,189 Z" id="OckamRouter" fill="#25B8E4" fill-rule="nonzero" transform="translate(18.032000, 183.408000) rotate(-90.000000) translate(-18.032000, -183.408000) "></path>
            <path d="M24.2,260.9 L25,260.1 C23.6,258.7 21.8,258 20,258 C18.2,258 16.4,258.7 15,260.1 L15.8,260.9 C17,259.8 18.5,259.2 20,259.2 C21.5,259.2 23,259.8 24.2,260.9 M23.3,261.7 C22.4,260.8 21.2,260.3 20,260.3 C18.8,260.3 17.6,260.8 16.7,261.7 L17.5,262.5 C18.2,261.8 19.1,261.5 20,261.5 C20.9,261.5 21.8,261.8 22.5,262.5 L23.3,261.7 M23,268 L21,268 L21,264 L19,264 L19,268 L9,268 C7.8954305,268 7,268.895431 7,270 L7,274 C7,275.104569 7.8954305,276 9,276 L23,276 C24.1045695,276 25,275.104569 25,274 L25,270 C25,268.895431 24.1045695,268 23,268 M12,273 L10,273 L10,271 L12,271 L12,273 M15.5,273 L13.5,273 L13.5,271 L15.5,271 L15.5,273 M19,273 L17,273 L17,271 L19,271 L19,273 Z" id="Shape-Copy" fill="#00BAE9" fill-rule="nonzero" transform="translate(16.000000, 267.000000) rotate(-450.000000) translate(-16.000000, -267.000000) "></path>
          </g>
          <g id="Group-48" transform="translate(58.000000, 86.000000)">
            <g id="Group-50" transform="translate(30.000000, 22.000000)"></g>
          </g>
          <g id="Group-17" transform="translate(18.000000, 201.000000) rotate(-90.000000) translate(-18.000000, -201.000000) translate(-72.000000, 183.000000)">
            <g id="Group-10" transform="translate(15.000000, 7.000000)"></g>
          </g>
        </g>
        <rect id="Rectangle" fill="url(#linearGradient-1)" x="0" y="16" width="81" height="361"></rect>
        <rect id="Rectangle" fill="#0A1A2B" x="80" y="16" width="75" height="361"></rect>
      </g>
      <g id="Group-24" transform="translate(0.000000, 508.000000)">
        <g id="Group-48-Copy">
          <g id="Group-20" transform="translate(30.000000, 21.000000)"></g>
        </g>
      </g>
      <g id="Group-36">
        <g id="Group-48">
          <g id="Group-20" transform="translate(110.000000, 22.000000)">
            <g id="Group-25">
              <g id="Group-27"></g>
            </g>
          </g>
        </g>
      </g>
    </g>
  </g>
</svg>
