<svg width="1012" height="138" viewBox="0 0 1012 138" fill="none" xmlns="http://www.w3.org/2000/svg">
<path d="M178.178 41.9999H2C0.89543 41.9999 0 42.8954 0 43.9999V136C0 137.105 0.895426 138 2 138H178.164C178.828 138 179.45 137.669 179.822 137.118L211.236 90.5396C211.697 89.8568 211.692 88.9614 211.223 88.284L179.823 42.8626C179.45 42.3224 178.835 41.9999 178.178 41.9999Z" fill="#F5F7F9"/>
<path d="M26.8 84.9999H31.58C35.12 84.9999 37.4 82.6799 37.4 78.0199C37.4 73.3599 35.12 71.0399 31.58 71.0399H26.8V84.9999ZM28.74 83.2799V72.7599H31.58C33.8 72.7599 35.32 74.2399 35.32 76.8999V79.1399C35.32 81.7999 33.8 83.2799 31.58 83.2799H28.74ZM44.1156 85.2399C46.0556 85.2399 47.5556 84.3399 48.2756 82.9999L47.0756 81.9799C46.5156 83.0399 45.5756 83.6599 44.2756 83.6599C42.4156 83.6599 41.3556 82.4199 41.3556 80.6999V80.2799H48.6556V79.4999C48.6556 76.5999 47.0156 74.3999 44.1156 74.3999C41.2356 74.3999 39.4156 76.5399 39.4156 79.8199C39.4156 83.0999 41.2356 85.2399 44.1156 85.2399ZM44.1156 75.8999C45.6756 75.8999 46.6756 77.0599 46.6756 78.7799V78.9799H41.3556V78.8399C41.3556 77.1399 42.4956 75.8999 44.1156 75.8999ZM55.4745 84.9999L59.0745 74.6399H57.2945L55.5745 79.5999L54.4745 83.1799H54.3545L53.2745 79.5999L51.5745 74.6399H49.7145L53.2945 84.9999H55.4745ZM64.8383 85.2399C66.7783 85.2399 68.2783 84.3399 68.9983 82.9999L67.7983 81.9799C67.2383 83.0399 66.2983 83.6599 64.9983 83.6599C63.1383 83.6599 62.0783 82.4199 62.0783 80.6999V80.2799H69.3783V79.4999C69.3783 76.5999 67.7383 74.3999 64.8383 74.3999C61.9583 74.3999 60.1383 76.5399 60.1383 79.8199C60.1383 83.0999 61.9583 85.2399 64.8383 85.2399ZM64.8383 75.8999C66.3983 75.8999 67.3983 77.0599 67.3983 78.7799V78.9799H62.0783V78.8399C62.0783 77.1399 63.2183 75.8999 64.8383 75.8999ZM75.2534 84.9999V83.4199H73.7734V70.1999H71.9134V83.0999C71.9134 84.2399 72.5734 84.9999 73.8534 84.9999H75.2534ZM81.4598 85.2399C84.2798 85.2399 86.1798 83.1199 86.1798 79.8199C86.1798 76.5199 84.2798 74.3999 81.4598 74.3999C78.6398 74.3999 76.7398 76.5199 76.7398 79.8199C76.7398 83.1199 78.6398 85.2399 81.4598 85.2399ZM81.4598 83.6399C79.8398 83.6399 78.7198 82.6199 78.7198 80.5999V79.0399C78.7198 77.0199 79.8398 75.9999 81.4598 75.9999C83.0798 75.9999 84.1998 77.0199 84.1998 79.0399V80.5999C84.1998 82.6199 83.0798 83.6399 81.4598 83.6399ZM88.7103 88.9999H90.5703V83.2999H90.6503C91.1303 84.5799 92.2103 85.2399 93.6303 85.2399C96.2303 85.2399 97.7903 83.1799 97.7903 79.8199C97.7903 76.4599 96.2303 74.3999 93.6303 74.3999C92.2103 74.3999 91.1303 75.0599 90.6503 76.3399H90.5703V74.6399H88.7103V88.9999ZM93.0903 83.6199C91.6903 83.6199 90.5703 82.8199 90.5703 81.7199V77.9199C90.5703 76.8199 91.6903 76.0199 93.0903 76.0199C94.7503 76.0199 95.8103 77.1999 95.8103 78.9399V80.6999C95.8103 82.4399 94.7503 83.6199 93.0903 83.6199ZM104.37 85.2399C106.31 85.2399 107.81 84.3399 108.53 82.9999L107.33 81.9799C106.77 83.0399 105.83 83.6599 104.53 83.6599C102.67 83.6599 101.61 82.4199 101.61 80.6999V80.2799H108.91V79.4999C108.91 76.5999 107.27 74.3999 104.37 74.3999C101.49 74.3999 99.6695 76.5399 99.6695 79.8199C99.6695 83.0999 101.49 85.2399 104.37 85.2399ZM104.37 75.8999C105.93 75.8999 106.93 77.0599 106.93 78.7799V78.9799H101.61V78.8399C101.61 77.1399 102.75 75.8999 104.37 75.8999ZM113.305 84.9999V78.1999C113.305 77.1799 114.305 76.4999 116.025 76.4999H116.945V74.6399H116.325C114.665 74.6399 113.745 75.5999 113.405 76.6199H113.305V74.6399H111.445V84.9999H113.305ZM37.54 111L32.72 97.0399H30.28L25.44 111H27.4L28.74 107.06H34.18L35.5 111H37.54ZM33.7 105.34H29.2L31.4 98.8199H31.5L33.7 105.34ZM41.1139 111H43.2739L44.6739 106.14L45.5339 103.1H45.5739L46.4539 106.14L47.8539 111H50.0539L52.8139 100.64H51.0739L49.9739 105.06L48.9939 109.32H48.9339L47.7339 105.06L46.4139 100.64H44.7539L43.4739 105.06L42.2939 109.32H42.2539L41.2139 105.06L40.1339 100.64H38.3339L41.1139 111ZM63.4431 111V109.42H62.2831V103.96C62.2831 101.72 60.8031 100.4 58.2231 100.4C56.3031 100.4 55.0831 101.3 54.4631 102.42L55.5831 103.44C56.1231 102.56 56.9031 101.96 58.1231 101.96C59.6831 101.96 60.4231 102.74 60.4231 104.12V105.06H58.4631C55.5031 105.06 54.0431 106.14 54.0431 108.14C54.0431 110.04 55.3031 111.24 57.4631 111.24C58.9431 111.24 60.0431 110.56 60.4631 109.28H60.5631C60.7031 110.28 61.2431 111 62.3831 111H63.4431ZM57.8831 109.74C56.7231 109.74 55.9831 109.2 55.9831 108.24V107.84C55.9831 106.88 56.7431 106.36 58.4431 106.36H60.4231V107.96C60.4231 109 59.3431 109.74 57.8831 109.74ZM67.5234 111V104.2C67.5234 103.18 68.5234 102.5 70.2434 102.5H71.1634V100.64H70.5434C68.8834 100.64 67.9634 101.6 67.6234 102.62H67.5234V100.64H65.6634V111H67.5234ZM77.0258 111.24C78.9658 111.24 80.4658 110.34 81.1858 109L79.9858 107.98C79.4258 109.04 78.4858 109.66 77.1858 109.66C75.3258 109.66 74.2658 108.42 74.2658 106.7V106.28H81.5658V105.5C81.5658 102.6 79.9258 100.4 77.0258 100.4C74.1458 100.4 72.3258 102.54 72.3258 105.82C72.3258 109.1 74.1458 111.24 77.0258 111.24ZM77.0258 101.9C78.5858 101.9 79.5858 103.06 79.5858 104.78V104.98H74.2658V104.84C74.2658 103.14 75.4058 101.9 77.0258 101.9ZM85.9609 111V103.9C85.9609 102.64 87.1409 102.02 88.3609 102.02C89.8209 102.02 90.5409 102.92 90.5409 104.66V111H92.4009V104.38C92.4009 101.86 91.1009 100.4 88.9809 100.4C87.4209 100.4 86.5409 101.2 86.0609 102.34H85.9609V100.64H84.1009V111H85.9609ZM99.5258 111.24C101.466 111.24 102.966 110.34 103.686 109L102.486 107.98C101.926 109.04 100.986 109.66 99.6858 109.66C97.8258 109.66 96.7658 108.42 96.7658 106.7V106.28H104.066V105.5C104.066 102.6 102.426 100.4 99.5258 100.4C96.6458 100.4 94.8258 102.54 94.8258 105.82C94.8258 109.1 96.6458 111.24 99.5258 111.24ZM99.5258 101.9C101.086 101.9 102.086 103.06 102.086 104.78V104.98H96.7658V104.84C96.7658 103.14 97.9058 101.9 99.5258 101.9ZM109.781 111.24C112.221 111.24 113.741 109.98 113.741 107.96C113.741 106.36 112.801 105.36 110.521 105.02L109.641 104.88C108.441 104.7 107.841 104.32 107.841 103.4C107.841 102.52 108.481 101.94 109.741 101.94C110.981 101.94 111.861 102.52 112.361 103.18L113.541 102.06C112.661 101.02 111.561 100.4 109.801 100.4C107.621 100.4 106.041 101.48 106.041 103.52C106.041 105.44 107.421 106.26 109.401 106.54L110.281 106.68C111.541 106.86 111.941 107.4 111.941 108.16C111.941 109.12 111.221 109.7 109.901 109.7C108.641 109.7 107.681 109.14 106.901 108.16L105.641 109.24C106.601 110.46 107.861 111.24 109.781 111.24ZM119.468 111.24C121.908 111.24 123.428 109.98 123.428 107.96C123.428 106.36 122.488 105.36 120.208 105.02L119.328 104.88C118.128 104.7 117.528 104.32 117.528 103.4C117.528 102.52 118.168 101.94 119.428 101.94C120.668 101.94 121.548 102.52 122.048 103.18L123.228 102.06C122.348 101.02 121.248 100.4 119.488 100.4C117.308 100.4 115.728 101.48 115.728 103.52C115.728 105.44 117.108 106.26 119.088 106.54L119.968 106.68C121.228 106.86 121.628 107.4 121.628 108.16C121.628 109.12 120.908 109.7 119.588 109.7C118.328 109.7 117.368 109.14 116.588 108.16L115.328 109.24C116.288 110.46 117.548 111.24 119.468 111.24Z" fill="#242A31"/>
<path d="M386.125 41.9999H185.847C184.228 41.9999 183.28 43.8236 184.21 45.149L214.542 88.3628C215.022 89.0465 215.027 89.9565 214.553 90.6448L184.154 134.867C183.241 136.194 184.192 138 185.802 138H386.11C386.774 138 387.395 137.67 387.767 137.12L419.234 90.5409C419.696 89.8575 419.691 88.9608 419.221 88.2827L387.769 42.8614C387.395 42.3219 386.781 41.9999 386.125 41.9999Z" fill="#F5F7F9"/>
<path d="M248.08 85.2399C251.7 85.2399 254.04 82.7199 254.04 78.0199C254.04 73.3199 251.7 70.7999 248.08 70.7999C244.46 70.7999 242.12 73.3199 242.12 78.0199C242.12 82.7199 244.46 85.2399 248.08 85.2399ZM248.08 83.4999C245.76 83.4999 244.2 81.8199 244.2 79.1599V76.8799C244.2 74.2199 245.76 72.5399 248.08 72.5399C250.4 72.5399 251.96 74.2199 251.96 76.8799V79.1599C251.96 81.8199 250.4 83.4999 248.08 83.4999ZM260.961 85.2399C264.061 85.2399 265.881 83.5599 265.881 80.9799C265.881 78.8399 264.661 77.6199 261.921 77.0199L260.741 76.7799C259.081 76.4199 258.301 75.8599 258.301 74.6199C258.301 73.2399 259.321 72.4999 261.021 72.4999C262.601 72.4999 263.621 73.1399 264.361 74.1599L265.781 73.0199C264.721 71.5799 263.221 70.7999 261.121 70.7999C258.261 70.7999 256.381 72.2199 256.381 74.6999C256.381 76.8799 257.761 78.0599 260.381 78.5999L261.561 78.8399C263.301 79.2199 263.961 79.8599 263.961 81.0799C263.961 82.5599 262.941 83.5399 261.041 83.5399C259.481 83.5399 258.321 82.8599 257.341 81.5999L255.961 82.8399C257.081 84.3199 258.681 85.2399 260.961 85.2399ZM272.504 85.2399C275.604 85.2399 277.424 83.5599 277.424 80.9799C277.424 78.8399 276.204 77.6199 273.464 77.0199L272.284 76.7799C270.624 76.4199 269.844 75.8599 269.844 74.6199C269.844 73.2399 270.864 72.4999 272.564 72.4999C274.144 72.4999 275.164 73.1399 275.904 74.1599L277.324 73.0199C276.264 71.5799 274.764 70.7999 272.664 70.7999C269.804 70.7999 267.924 72.2199 267.924 74.6999C267.924 76.8799 269.304 78.0599 271.924 78.5999L273.104 78.8399C274.844 79.2199 275.504 79.8599 275.504 81.0799C275.504 82.5599 274.484 83.5399 272.584 83.5399C271.024 83.5399 269.864 82.8599 268.884 81.5999L267.504 82.8399C268.624 84.3199 270.224 85.2399 272.504 85.2399ZM247.86 111.24C250.22 111.24 251.92 110.02 252.82 108.02L251.26 107.08C250.74 108.52 249.58 109.5 247.86 109.5C245.58 109.5 244.2 107.8 244.2 105.08V102.96C244.2 100.24 245.58 98.5399 247.86 98.5399C249.54 98.5399 250.62 99.4399 251.14 100.82L252.74 99.8999C251.84 97.8999 250.22 96.7999 247.86 96.7999C244.3 96.7999 242.12 99.3599 242.12 104.02C242.12 108.68 244.3 111.24 247.86 111.24ZM259.159 111.24C261.979 111.24 263.879 109.12 263.879 105.82C263.879 102.52 261.979 100.4 259.159 100.4C256.339 100.4 254.439 102.52 254.439 105.82C254.439 109.12 256.339 111.24 259.159 111.24ZM259.159 109.64C257.539 109.64 256.419 108.62 256.419 106.6V105.04C256.419 103.02 257.539 102 259.159 102C260.779 102 261.899 103.02 261.899 105.04V106.6C261.899 108.62 260.779 109.64 259.159 109.64ZM268.27 111V103.9C268.27 102.64 269.41 102.02 270.59 102.02C272.01 102.02 272.67 102.92 272.67 104.66V111H274.53V103.9C274.53 102.64 275.63 102.02 276.83 102.02C278.27 102.02 278.93 102.92 278.93 104.66V111H280.79V104.38C280.79 101.86 279.55 100.4 277.47 100.4C275.73 100.4 274.69 101.38 274.31 102.5H274.27C273.73 101.04 272.51 100.4 271.13 100.4C269.75 100.4 268.81 101.28 268.37 102.34H268.27V100.64H266.41V111H268.27ZM285.809 111V103.9C285.809 102.64 286.949 102.02 288.129 102.02C289.549 102.02 290.209 102.92 290.209 104.66V111H292.069V103.9C292.069 102.64 293.169 102.02 294.369 102.02C295.809 102.02 296.469 102.92 296.469 104.66V111H298.329V104.38C298.329 101.86 297.089 100.4 295.009 100.4C293.269 100.4 292.229 101.38 291.849 102.5H291.809C291.269 101.04 290.049 100.4 288.669 100.4C287.289 100.4 286.349 101.28 285.909 102.34H285.809V100.64H283.949V111H285.809ZM307.828 111H309.688V100.64H307.828V107.72C307.828 109.02 306.628 109.62 305.448 109.62C303.988 109.62 303.248 108.72 303.248 106.98V100.64H301.388V107.26C301.388 109.78 302.708 111.24 304.828 111.24C306.548 111.24 307.348 110.3 307.728 109.3H307.828V111ZM314.832 111V103.9C314.832 102.64 316.012 102.02 317.232 102.02C318.692 102.02 319.412 102.92 319.412 104.66V111H321.272V104.38C321.272 101.86 319.972 100.4 317.852 100.4C316.292 100.4 315.412 101.2 314.932 102.34H314.832V100.64H312.972V111H314.832ZM325.377 98.4799C326.157 98.4799 326.497 98.0599 326.497 97.4599V97.1799C326.497 96.5799 326.157 96.1599 325.377 96.1599C324.597 96.1599 324.257 96.5799 324.257 97.1799V97.4599C324.257 98.0599 324.597 98.4799 325.377 98.4799ZM324.437 111H326.297V100.64H324.437V111ZM334.074 111V109.42H332.014V102.22H334.234V100.64H332.014V97.7799H330.334V99.6799C330.334 100.38 330.114 100.64 329.414 100.64H328.494V102.22H330.154V109.04C330.154 110.24 330.834 111 332.114 111H334.074ZM340.782 107.26L340.182 109.2H340.082L339.542 107.26L337.242 100.64H335.382L339.222 111.42L338.522 113.42H336.822V115H337.842C339.422 115 339.922 114.56 340.402 113.26L344.902 100.64H343.102L340.782 107.26Z" fill="#242A31"/>
<path d="M594.26 41.9999H394.838C393.221 41.9999 392.272 43.82 393.199 45.1457L423.408 88.366C423.885 89.0483 423.889 89.9546 423.419 90.6415L393.142 134.87C392.234 136.198 393.184 138 394.793 138H594.245C594.911 138 595.533 137.669 595.905 137.116L627.24 90.5376C627.698 89.8557 627.693 88.9625 627.227 88.2859L595.907 42.8646C595.533 42.3232 594.918 41.9999 594.26 41.9999Z" fill="#F5F7F9"/>
<path d="M454.82 85.2399C457.92 85.2399 459.74 83.5599 459.74 80.9799C459.74 78.8399 458.52 77.6199 455.78 77.0199L454.6 76.7799C452.94 76.4199 452.16 75.8599 452.16 74.6199C452.16 73.2399 453.18 72.4999 454.88 72.4999C456.46 72.4999 457.48 73.1399 458.22 74.1599L459.64 73.0199C458.58 71.5799 457.08 70.7999 454.98 70.7999C452.12 70.7999 450.24 72.2199 450.24 74.6999C450.24 76.8799 451.62 78.0599 454.24 78.5999L455.42 78.8399C457.16 79.2199 457.82 79.8599 457.82 81.0799C457.82 82.5599 456.8 83.5399 454.9 83.5399C453.34 83.5399 452.18 82.8599 451.2 81.5999L449.82 82.8399C450.94 84.3199 452.54 85.2399 454.82 85.2399ZM466.358 85.2399C468.298 85.2399 469.798 84.3399 470.518 82.9999L469.318 81.9799C468.758 83.0399 467.818 83.6599 466.518 83.6599C464.658 83.6599 463.598 82.4199 463.598 80.6999V80.2799H470.898V79.4999C470.898 76.5999 469.258 74.3999 466.358 74.3999C463.478 74.3999 461.658 76.5399 461.658 79.8199C461.658 83.0999 463.478 85.2399 466.358 85.2399ZM466.358 75.8999C467.918 75.8999 468.918 77.0599 468.918 78.7799V78.9799H463.598V78.8399C463.598 77.1399 464.738 75.8999 466.358 75.8999ZM476.773 84.9999V83.4199H475.293V70.1999H473.433V83.0999C473.433 84.2399 474.093 84.9999 475.373 84.9999H476.773ZM479.559 84.9999H481.419V76.2199H483.599V74.6399H481.419V71.7799H483.599V70.1999H481.979C480.359 70.1999 479.559 71.1999 479.559 72.7199V74.6399H477.899V76.2199H479.559V84.9999ZM490.66 79.8799V77.9399H485.3V79.8799H490.66ZM497.418 85.2399C500.518 85.2399 502.338 83.5599 502.338 80.9799C502.338 78.8399 501.118 77.6199 498.378 77.0199L497.198 76.7799C495.538 76.4199 494.758 75.8599 494.758 74.6199C494.758 73.2399 495.778 72.4999 497.478 72.4999C499.058 72.4999 500.078 73.1399 500.818 74.1599L502.238 73.0199C501.178 71.5799 499.678 70.7999 497.578 70.7999C494.718 70.7999 492.838 72.2199 492.838 74.6999C492.838 76.8799 494.218 78.0599 496.838 78.5999L498.018 78.8399C499.758 79.2199 500.418 79.8599 500.418 81.0799C500.418 82.5599 499.398 83.5399 497.498 83.5399C495.938 83.5399 494.778 82.8599 493.798 81.5999L492.418 82.8399C493.538 84.3199 495.138 85.2399 497.418 85.2399ZM508.955 85.2399C510.895 85.2399 512.395 84.3399 513.115 82.9999L511.915 81.9799C511.355 83.0399 510.415 83.6599 509.115 83.6599C507.255 83.6599 506.195 82.4199 506.195 80.6999V80.2799H513.495V79.4999C513.495 76.5999 511.855 74.3999 508.955 74.3999C506.075 74.3999 504.255 76.5399 504.255 79.8199C504.255 83.0999 506.075 85.2399 508.955 85.2399ZM508.955 75.8999C510.515 75.8999 511.515 77.0599 511.515 78.7799V78.9799H506.195V78.8399C506.195 77.1399 507.335 75.8999 508.955 75.8999ZM517.891 84.9999V78.1999C517.891 77.1799 518.891 76.4999 520.611 76.4999H521.531V74.6399H520.911C519.251 74.6399 518.331 75.5999 517.991 76.6199H517.891V74.6399H516.031V84.9999H517.891ZM528.146 84.9999L531.746 74.6399H529.966L528.246 79.5999L527.146 83.1799H527.026L525.946 79.5999L524.246 74.6399H522.386L525.966 84.9999H528.146ZM537.51 85.2399C539.45 85.2399 540.95 84.3399 541.67 82.9999L540.47 81.9799C539.91 83.0399 538.97 83.6599 537.67 83.6599C535.81 83.6599 534.75 82.4199 534.75 80.6999V80.2799H542.05V79.4999C542.05 76.5999 540.41 74.3999 537.51 74.3999C534.63 74.3999 532.81 76.5399 532.81 79.8199C532.81 83.0999 534.63 85.2399 537.51 85.2399ZM537.51 75.8999C539.07 75.8999 540.07 77.0599 540.07 78.7799V78.9799H534.75V78.8399C534.75 77.1399 535.89 75.8999 537.51 75.8999ZM454.82 111.24C457.92 111.24 459.74 109.56 459.74 106.98C459.74 104.84 458.52 103.62 455.78 103.02L454.6 102.78C452.94 102.42 452.16 101.86 452.16 100.62C452.16 99.2399 453.18 98.4999 454.88 98.4999C456.46 98.4999 457.48 99.1399 458.22 100.16L459.64 99.0199C458.58 97.5799 457.08 96.7999 454.98 96.7999C452.12 96.7999 450.24 98.2199 450.24 100.7C450.24 102.88 451.62 104.06 454.24 104.6L455.42 104.84C457.16 105.22 457.82 105.86 457.82 107.08C457.82 108.56 456.8 109.54 454.9 109.54C453.34 109.54 452.18 108.86 451.2 107.6L449.82 108.84C450.94 110.32 452.54 111.24 454.82 111.24ZM470.998 111V109.42H469.838V103.96C469.838 101.72 468.358 100.4 465.778 100.4C463.858 100.4 462.638 101.3 462.018 102.42L463.138 103.44C463.678 102.56 464.458 101.96 465.678 101.96C467.238 101.96 467.978 102.74 467.978 104.12V105.06H466.018C463.058 105.06 461.598 106.14 461.598 108.14C461.598 110.04 462.858 111.24 465.018 111.24C466.498 111.24 467.598 110.56 468.018 109.28H468.118C468.258 110.28 468.798 111 469.938 111H470.998ZM465.438 109.74C464.278 109.74 463.538 109.2 463.538 108.24V107.84C463.538 106.88 464.298 106.36 465.998 106.36H467.978V107.96C467.978 109 466.898 109.74 465.438 109.74ZM481.818 111V109.42H480.658V103.96C480.658 101.72 479.178 100.4 476.598 100.4C474.678 100.4 473.458 101.3 472.838 102.42L473.958 103.44C474.498 102.56 475.278 101.96 476.498 101.96C478.058 101.96 478.798 102.74 478.798 104.12V105.06H476.838C473.878 105.06 472.418 106.14 472.418 108.14C472.418 110.04 473.678 111.24 475.838 111.24C477.318 111.24 478.418 110.56 478.838 109.28H478.938C479.078 110.28 479.618 111 480.758 111H481.818ZM476.258 109.74C475.098 109.74 474.358 109.2 474.358 108.24V107.84C474.358 106.88 475.118 106.36 476.818 106.36H478.798V107.96C478.798 109 477.718 109.74 476.258 109.74ZM488.218 111.24C491.318 111.24 493.138 109.56 493.138 106.98C493.138 104.84 491.918 103.62 489.178 103.02L487.998 102.78C486.338 102.42 485.558 101.86 485.558 100.62C485.558 99.2399 486.578 98.4999 488.278 98.4999C489.858 98.4999 490.878 99.1399 491.618 100.16L493.038 99.0199C491.978 97.5799 490.478 96.7999 488.378 96.7999C485.518 96.7999 483.638 98.2199 483.638 100.7C483.638 102.88 485.018 104.06 487.638 104.6L488.818 104.84C490.558 105.22 491.218 105.86 491.218 107.08C491.218 108.56 490.198 109.54 488.298 109.54C486.738 109.54 485.578 108.86 484.598 107.6L483.218 108.84C484.338 110.32 485.938 111.24 488.218 111.24Z" fill="#242A31"/>
<path d="M802.26 41.9999H602.838C601.221 41.9999 600.272 43.82 601.199 45.1457L631.408 88.366C631.885 89.0483 631.889 89.9546 631.419 90.6415L601.142 134.87C600.234 136.198 601.184 138 602.793 138H802.245C802.911 138 803.533 137.669 803.905 137.116L835.24 90.5376C835.698 89.8557 835.693 88.9625 835.227 88.2859L803.907 42.8646C803.533 42.3232 802.918 41.9999 802.26 41.9999Z" fill="#F5F7F9"/>
<path d="M663.98 84.9999V83.3599H662.04V72.6799H663.98V71.0399H658.16V72.6799H660.1V83.3599H658.16V84.9999H663.98ZM668.645 84.9999V77.8999C668.645 76.6399 669.825 76.0199 671.045 76.0199C672.505 76.0199 673.225 76.9199 673.225 78.6599V84.9999H675.085V78.3799C675.085 75.8599 673.785 74.3999 671.665 74.3999C670.105 74.3999 669.225 75.1999 668.745 76.3399H668.645V74.6399H666.785V84.9999H668.645ZM681.429 85.2399C683.869 85.2399 685.389 83.9799 685.389 81.9599C685.389 80.3599 684.449 79.3599 682.169 79.0199L681.289 78.8799C680.089 78.6999 679.489 78.3199 679.489 77.3999C679.489 76.5199 680.129 75.9399 681.389 75.9399C682.629 75.9399 683.509 76.5199 684.009 77.1799L685.189 76.0599C684.309 75.0199 683.209 74.3999 681.449 74.3999C679.269 74.3999 677.689 75.4799 677.689 77.5199C677.689 79.4399 679.069 80.2599 681.049 80.5399L681.929 80.6799C683.189 80.8599 683.589 81.3999 683.589 82.1599C683.589 83.1199 682.869 83.6999 681.549 83.6999C680.289 83.6999 679.329 83.1399 678.549 82.1599L677.289 83.2399C678.249 84.4599 679.509 85.2399 681.429 85.2399ZM688.994 72.4799C689.774 72.4799 690.114 72.0599 690.114 71.4599V71.1799C690.114 70.5799 689.774 70.1599 688.994 70.1599C688.214 70.1599 687.874 70.5799 687.874 71.1799V71.4599C687.874 72.0599 688.214 72.4799 688.994 72.4799ZM688.054 84.9999H689.914V74.6399H688.054V84.9999ZM699.751 84.9999H701.611V70.1999H699.751V76.3399H699.671C699.191 75.0599 698.111 74.3999 696.691 74.3999C694.091 74.3999 692.531 76.4599 692.531 79.8199C692.531 83.1799 694.091 85.2399 696.691 85.2399C698.111 85.2399 699.191 84.5799 699.671 83.2999H699.751V84.9999ZM697.231 83.6199C695.571 83.6199 694.511 82.4399 694.511 80.6999V78.9399C694.511 77.1999 695.571 76.0199 697.231 76.0199C698.631 76.0199 699.751 76.8199 699.751 77.9199V81.7199C699.751 82.8199 698.631 83.6199 697.231 83.6199ZM708.85 85.2399C710.79 85.2399 712.29 84.3399 713.01 82.9999L711.81 81.9799C711.25 83.0399 710.31 83.6599 709.01 83.6599C707.15 83.6599 706.09 82.4199 706.09 80.6999V80.2799H713.39V79.4999C713.39 76.5999 711.75 74.3999 708.85 74.3999C705.97 74.3999 704.15 76.5399 704.15 79.8199C704.15 83.0999 705.97 85.2399 708.85 85.2399ZM708.85 75.8999C710.41 75.8999 711.41 77.0599 711.41 78.7799V78.9799H706.09V78.8399C706.09 77.1399 707.23 75.8999 708.85 75.8999ZM662.82 111.24C665.92 111.24 667.74 109.56 667.74 106.98C667.74 104.84 666.52 103.62 663.78 103.02L662.6 102.78C660.94 102.42 660.16 101.86 660.16 100.62C660.16 99.2399 661.18 98.4999 662.88 98.4999C664.46 98.4999 665.48 99.1399 666.22 100.16L667.64 99.0199C666.58 97.5799 665.08 96.7999 662.98 96.7999C660.12 96.7999 658.24 98.2199 658.24 100.7C658.24 102.88 659.62 104.06 662.24 104.6L663.42 104.84C665.16 105.22 665.82 105.86 665.82 107.08C665.82 108.56 664.8 109.54 662.9 109.54C661.34 109.54 660.18 108.86 659.2 107.6L657.82 108.84C658.94 110.32 660.54 111.24 662.82 111.24ZM678.998 111V109.42H677.838V103.96C677.838 101.72 676.358 100.4 673.778 100.4C671.858 100.4 670.638 101.3 670.018 102.42L671.138 103.44C671.678 102.56 672.458 101.96 673.678 101.96C675.238 101.96 675.978 102.74 675.978 104.12V105.06H674.018C671.058 105.06 669.598 106.14 669.598 108.14C669.598 110.04 670.858 111.24 673.018 111.24C674.498 111.24 675.598 110.56 676.018 109.28H676.118C676.258 110.28 676.798 111 677.938 111H678.998ZM673.438 109.74C672.278 109.74 671.538 109.2 671.538 108.24V107.84C671.538 106.88 672.298 106.36 673.998 106.36H675.978V107.96C675.978 109 674.898 109.74 673.438 109.74ZM684.558 111V109.42H683.078V96.1999H681.218V109.1C681.218 110.24 681.878 111 683.158 111H684.558ZM690.745 111.24C692.685 111.24 694.185 110.34 694.905 109L693.705 107.98C693.145 109.04 692.205 109.66 690.905 109.66C689.045 109.66 687.985 108.42 687.985 106.7V106.28H695.285V105.5C695.285 102.6 693.645 100.4 690.745 100.4C687.865 100.4 686.045 102.54 686.045 105.82C686.045 109.1 687.865 111.24 690.745 111.24ZM690.745 101.9C692.305 101.9 693.305 103.06 693.305 104.78V104.98H687.985V104.84C687.985 103.14 689.125 101.9 690.745 101.9ZM701 111.24C703.44 111.24 704.96 109.98 704.96 107.96C704.96 106.36 704.02 105.36 701.74 105.02L700.86 104.88C699.66 104.7 699.06 104.32 699.06 103.4C699.06 102.52 699.7 101.94 700.96 101.94C702.2 101.94 703.08 102.52 703.58 103.18L704.76 102.06C703.88 101.02 702.78 100.4 701.02 100.4C698.84 100.4 697.26 101.48 697.26 103.52C697.26 105.44 698.64 106.26 700.62 106.54L701.5 106.68C702.76 106.86 703.16 107.4 703.16 108.16C703.16 109.12 702.44 109.7 701.12 109.7C699.86 109.7 698.9 109.14 698.12 108.16L696.86 109.24C697.82 110.46 699.08 111.24 701 111.24Z" fill="#242A31"/>
<path d="M1010 41.9999H810.845C809.227 41.9999 808.278 43.8229 809.208 45.1483L839.515 88.3634C839.995 89.0469 839.999 89.9561 839.527 90.6442L809.151 134.868C808.24 136.195 809.19 138 810.8 138H1010C1011.1 138 1012 137.105 1012 136V89.4073V43.9999C1012 42.8954 1011.1 41.9999 1010 41.9999Z" fill="#F5F7F9"/>
<path d="M875.5 84.9999V83.2799H868.74V78.7999H875V77.0799H868.74V72.7599H875.5V71.0399H866.8V84.9999H875.5ZM880.258 84.9999V77.8999C880.258 76.6399 881.438 76.0199 882.658 76.0199C884.118 76.0199 884.838 76.9199 884.838 78.6599V84.9999H886.698V78.3799C886.698 75.8599 885.398 74.3999 883.278 74.3999C881.718 74.3999 880.838 75.1999 880.358 76.3399H880.258V74.6399H878.398V84.9999H880.258ZM894.363 84.9999V83.4199H892.303V76.2199H894.523V74.6399H892.303V71.7799H890.623V73.6799C890.623 74.3799 890.403 74.6399 889.703 74.6399H888.783V76.2199H890.443V83.0399C890.443 84.2399 891.123 84.9999 892.403 84.9999H894.363ZM900.893 85.2399C902.833 85.2399 904.333 84.3399 905.053 82.9999L903.853 81.9799C903.293 83.0399 902.353 83.6599 901.053 83.6599C899.193 83.6599 898.133 82.4199 898.133 80.6999V80.2799H905.433V79.4999C905.433 76.5999 903.793 74.3999 900.893 74.3999C898.013 74.3999 896.193 76.5399 896.193 79.8199C896.193 83.0999 898.013 85.2399 900.893 85.2399ZM900.893 75.8999C902.453 75.8999 903.453 77.0599 903.453 78.7799V78.9799H898.133V78.8399C898.133 77.1399 899.273 75.8999 900.893 75.8999ZM909.828 84.9999V78.1999C909.828 77.1799 910.828 76.4999 912.548 76.4999H913.468V74.6399H912.848C911.188 74.6399 910.268 75.5999 909.928 76.6199H909.828V74.6399H907.968V84.9999H909.828ZM915.468 88.9999H917.328V83.2999H917.408C917.888 84.5799 918.968 85.2399 920.388 85.2399C922.988 85.2399 924.548 83.1799 924.548 79.8199C924.548 76.4599 922.988 74.3999 920.388 74.3999C918.968 74.3999 917.888 75.0599 917.408 76.3399H917.328V74.6399H915.468V88.9999ZM919.848 83.6199C918.448 83.6199 917.328 82.8199 917.328 81.7199V77.9199C917.328 76.8199 918.448 76.0199 919.848 76.0199C921.508 76.0199 922.568 77.1999 922.568 78.9399V80.6999C922.568 82.4399 921.508 83.6199 919.848 83.6199ZM929.027 84.9999V78.1999C929.027 77.1799 930.027 76.4999 931.747 76.4999H932.667V74.6399H932.047C930.387 74.6399 929.467 75.5999 929.127 76.6199H929.027V74.6399H927.167V84.9999H929.027ZM935.607 72.4799C936.387 72.4799 936.727 72.0599 936.727 71.4599V71.1799C936.727 70.5799 936.387 70.1599 935.607 70.1599C934.827 70.1599 934.487 70.5799 934.487 71.1799V71.4599C934.487 72.0599 934.827 72.4799 935.607 72.4799ZM934.667 84.9999H936.527V74.6399H934.667V84.9999ZM942.984 85.2399C945.424 85.2399 946.944 83.9799 946.944 81.9599C946.944 80.3599 946.004 79.3599 943.724 79.0199L942.844 78.8799C941.644 78.6999 941.044 78.3199 941.044 77.3999C941.044 76.5199 941.684 75.9399 942.944 75.9399C944.184 75.9399 945.064 76.5199 945.564 77.1799L946.744 76.0599C945.864 75.0199 944.764 74.3999 943.004 74.3999C940.824 74.3999 939.244 75.4799 939.244 77.5199C939.244 79.4399 940.624 80.2599 942.604 80.5399L943.484 80.6799C944.744 80.8599 945.144 81.3999 945.144 82.1599C945.144 83.1199 944.424 83.6999 943.104 83.6999C941.844 83.6999 940.884 83.1399 940.104 82.1599L938.844 83.2399C939.804 84.4599 941.064 85.2399 942.984 85.2399ZM953.569 85.2399C955.509 85.2399 957.009 84.3399 957.729 82.9999L956.529 81.9799C955.969 83.0399 955.029 83.6599 953.729 83.6599C951.869 83.6599 950.809 82.4199 950.809 80.6999V80.2799H958.109V79.4999C958.109 76.5999 956.469 74.3999 953.569 74.3999C950.689 74.3999 948.869 76.5399 948.869 79.8199C948.869 83.0999 950.689 85.2399 953.569 85.2399ZM953.569 75.8999C955.129 75.8999 956.129 77.0599 956.129 78.7799V78.9799H950.809V78.8399C950.809 77.1399 951.949 75.8999 953.569 75.8999ZM870.82 111.24C873.92 111.24 875.74 109.56 875.74 106.98C875.74 104.84 874.52 103.62 871.78 103.02L870.6 102.78C868.94 102.42 868.16 101.86 868.16 100.62C868.16 99.2399 869.18 98.4999 870.88 98.4999C872.46 98.4999 873.48 99.1399 874.22 100.16L875.64 99.0199C874.58 97.5799 873.08 96.7999 870.98 96.7999C868.12 96.7999 866.24 98.2199 866.24 100.7C866.24 102.88 867.62 104.06 870.24 104.6L871.42 104.84C873.16 105.22 873.82 105.86 873.82 107.08C873.82 108.56 872.8 109.54 870.9 109.54C869.34 109.54 868.18 108.86 867.2 107.6L865.82 108.84C866.94 110.32 868.54 111.24 870.82 111.24ZM886.998 111V109.42H885.838V103.96C885.838 101.72 884.358 100.4 881.778 100.4C879.858 100.4 878.638 101.3 878.018 102.42L879.138 103.44C879.678 102.56 880.458 101.96 881.678 101.96C883.238 101.96 883.978 102.74 883.978 104.12V105.06H882.018C879.058 105.06 877.598 106.14 877.598 108.14C877.598 110.04 878.858 111.24 881.018 111.24C882.498 111.24 883.598 110.56 884.018 109.28H884.118C884.258 110.28 884.798 111 885.938 111H886.998ZM881.438 109.74C880.278 109.74 879.538 109.2 879.538 108.24V107.84C879.538 106.88 880.298 106.36 881.998 106.36H883.978V107.96C883.978 109 882.898 109.74 881.438 109.74ZM892.558 111V109.42H891.078V96.1999H889.218V109.1C889.218 110.24 889.878 111 891.158 111H892.558ZM898.745 111.24C900.685 111.24 902.185 110.34 902.905 109L901.705 107.98C901.145 109.04 900.205 109.66 898.905 109.66C897.045 109.66 895.985 108.42 895.985 106.7V106.28H903.285V105.5C903.285 102.6 901.645 100.4 898.745 100.4C895.865 100.4 894.045 102.54 894.045 105.82C894.045 109.1 895.865 111.24 898.745 111.24ZM898.745 101.9C900.305 101.9 901.305 103.06 901.305 104.78V104.98H895.985V104.84C895.985 103.14 897.125 101.9 898.745 101.9ZM909 111.24C911.44 111.24 912.96 109.98 912.96 107.96C912.96 106.36 912.02 105.36 909.74 105.02L908.86 104.88C907.66 104.7 907.06 104.32 907.06 103.4C907.06 102.52 907.7 101.94 908.96 101.94C910.2 101.94 911.08 102.52 911.58 103.18L912.76 102.06C911.88 101.02 910.78 100.4 909.02 100.4C906.84 100.4 905.26 101.48 905.26 103.52C905.26 105.44 906.64 106.26 908.62 106.54L909.5 106.68C910.76 106.86 911.16 107.4 911.16 108.16C911.16 109.12 910.44 109.7 909.12 109.7C907.86 109.7 906.9 109.14 906.12 108.16L904.86 109.24C905.82 110.46 907.08 111.24 909 111.24Z" fill="#242A31"/>
<path d="M36.8786 12.1919C38.7666 12.1919 40.1266 11.2159 40.8466 9.61591L39.5986 8.86391C39.1826 10.0159 38.2546 10.7999 36.8786 10.7999C35.0546 10.7999 33.9506 9.43991 33.9506 7.26391V5.56791C33.9506 3.39191 35.0546 2.03191 36.8786 2.03191C38.2226 2.03191 39.0866 2.75191 39.5026 3.85591L40.7826 3.11991C40.0626 1.51991 38.7666 0.639912 36.8786 0.639912C34.0306 0.639912 32.2866 2.68791 32.2866 6.41591C32.2866 10.1439 34.0306 12.1919 36.8786 12.1919Z" fill="#3C454E"/>
<path d="M45.9179 12.1919C48.1739 12.1919 49.6939 10.4959 49.6939 7.85591C49.6939 5.21591 48.1739 3.51991 45.9179 3.51991C43.6619 3.51991 42.1419 5.21591 42.1419 7.85591C42.1419 10.4959 43.6619 12.1919 45.9179 12.1919ZM45.9179 10.9119C44.6219 10.9119 43.7259 10.0959 43.7259 8.47991V7.23191C43.7259 5.61591 44.6219 4.79991 45.9179 4.79991C47.2139 4.79991 48.1099 5.61591 48.1099 7.23191V8.47991C48.1099 10.0959 47.2139 10.9119 45.9179 10.9119Z" fill="#3C454E"/>
<path d="M53.2062 11.9999V6.31991C53.2062 5.31191 54.1502 4.81591 55.1262 4.81591C56.2942 4.81591 56.8702 5.53591 56.8702 6.92791V11.9999H58.3582V6.70391C58.3582 4.68791 57.3182 3.51991 55.6222 3.51991C54.3742 3.51991 53.6702 4.15991 53.2862 5.07191H53.2062V3.71191H51.7182V11.9999H53.2062Z" fill="#3C454E"/>
<path d="M64.4901 11.9999V10.7359H62.8421V4.97591H64.6181V3.71191H62.8421V1.42391H61.4981V2.94391C61.4981 3.50391 61.3221 3.71191 60.7621 3.71191H60.0261V4.97591H61.3541V10.4319C61.3541 11.3919 61.8981 11.9999 62.9221 11.9999H64.4901Z" fill="#3C454E"/>
<path d="M69.7144 12.1919C71.2664 12.1919 72.4664 11.4719 73.0424 10.3999L72.0824 9.58391C71.6344 10.4319 70.8824 10.9279 69.8424 10.9279C68.3544 10.9279 67.5064 9.93591 67.5064 8.55991V8.22391H73.3464V7.59991C73.3464 5.27991 72.0344 3.51991 69.7144 3.51991C67.4104 3.51991 65.9544 5.23191 65.9544 7.85591C65.9544 10.4799 67.4104 12.1919 69.7144 12.1919ZM69.7144 4.71991C70.9624 4.71991 71.7624 5.64791 71.7624 7.02391V7.18391H67.5064V7.07191C67.5064 5.71191 68.4184 4.71991 69.7144 4.71991Z" fill="#3C454E"/>
<path d="M76.8625 11.9999V6.31991C76.8625 5.31191 77.8065 4.81591 78.7825 4.81591C79.9505 4.81591 80.5265 5.53591 80.5265 6.92791V11.9999H82.0145V6.70391C82.0145 4.68791 80.9745 3.51991 79.2785 3.51991C78.0305 3.51991 77.3265 4.15991 76.9425 5.07191H76.8625V3.71191H75.3745V11.9999H76.8625Z" fill="#3C454E"/>
<path d="M88.1464 11.9999V10.7359H86.4984V4.97591H88.2744V3.71191H86.4984V1.42391H85.1544V2.94391C85.1544 3.50391 84.9784 3.71191 84.4184 3.71191H83.6824V4.97591H85.0104V10.4319C85.0104 11.3919 85.5544 11.9999 86.5784 11.9999H88.1464Z" fill="#3C454E"/>
<path d="M97.6464 11.9999V10.7359H95.9984V4.97591H97.7744V3.71191H95.9984V1.42391H94.6544V2.94391C94.6544 3.50391 94.4784 3.71191 93.9184 3.71191H93.1824V4.97591H94.5104V10.4319C94.5104 11.3919 95.0544 11.9999 96.0784 11.9999H97.6464Z" fill="#3C454E"/>
<path d="M99.7651 11.9999H101.253V6.31991C101.253 5.31191 102.197 4.81591 103.173 4.81591C104.341 4.81591 104.917 5.53591 104.917 6.92791V11.9999H106.405V6.70391C106.405 4.68791 105.365 3.51991 103.669 3.51991C102.421 3.51991 101.717 4.15991 101.333 5.07191H101.253V0.159912H99.7651V11.9999Z" fill="#3C454E"/>
<path d="M115.817 11.9999V10.7359H114.889V6.36791C114.889 4.57591 113.705 3.51991 111.641 3.51991C110.105 3.51991 109.129 4.23991 108.633 5.13591L109.529 5.95191C109.961 5.24791 110.585 4.76791 111.561 4.76791C112.809 4.76791 113.401 5.39191 113.401 6.49591V7.24791H111.833C109.465 7.24791 108.297 8.11191 108.297 9.71191C108.297 11.2319 109.305 12.1919 111.033 12.1919C112.217 12.1919 113.097 11.6479 113.433 10.6239H113.513C113.625 11.4239 114.057 11.9999 114.969 11.9999H115.817ZM111.369 10.9919C110.441 10.9919 109.849 10.5599 109.849 9.79191V9.47191C109.849 8.70391 110.457 8.28791 111.817 8.28791H113.401V9.56791C113.401 10.3999 112.537 10.9919 111.369 10.9919Z" fill="#3C454E"/>
<path d="M121.178 11.9999V10.7359H119.53V4.97591H121.306V3.71191H119.53V1.42391H118.186V2.94391C118.186 3.50391 118.01 3.71191 117.45 3.71191H116.714V4.97591H118.042V10.4319C118.042 11.3919 118.586 11.9999 119.61 11.9999H121.178Z" fill="#3C454E"/>
<path d="M134.166 11.9999V10.6239H128.758V7.03991H133.766V5.66391H128.758V2.20791H134.166V0.831912H127.206V11.9999H134.166Z" fill="#3C454E"/>
<path d="M141.576 11.9999H143.064V0.159912H141.576V5.07191H141.512C141.128 4.04791 140.264 3.51991 139.128 3.51991C137.048 3.51991 135.8 5.16791 135.8 7.85591C135.8 10.5439 137.048 12.1919 139.128 12.1919C140.264 12.1919 141.128 11.6639 141.512 10.6399H141.576V11.9999ZM139.56 10.8959C138.232 10.8959 137.384 9.95191 137.384 8.55991V7.15191C137.384 5.75991 138.232 4.81591 139.56 4.81591C140.68 4.81591 141.576 5.45591 141.576 6.33591V9.37591C141.576 10.2559 140.68 10.8959 139.56 10.8959Z" fill="#3C454E"/>
<path d="M150.759 11.9999H152.247V3.71191H150.759V9.37591C150.759 10.4159 149.799 10.8959 148.855 10.8959C147.687 10.8959 147.095 10.1759 147.095 8.78391V3.71191H145.607V9.00791C145.607 11.0239 146.663 12.1919 148.359 12.1919C149.735 12.1919 150.375 11.4399 150.679 10.6399H150.759V11.9999Z" fill="#3C454E"/>
<path d="M158.01 12.1919C159.594 12.1919 160.682 11.4239 161.21 10.1759L160.122 9.50391C159.706 10.3999 159.018 10.9119 158.01 10.9119C156.586 10.9119 155.866 9.93591 155.866 8.57591V7.13591C155.866 5.77591 156.586 4.79991 158.01 4.79991C158.97 4.79991 159.642 5.29591 159.914 6.11191L161.146 5.50391C160.666 4.31991 159.642 3.51991 158.01 3.51991C155.642 3.51991 154.282 5.19991 154.282 7.85591C154.282 10.5119 155.642 12.1919 158.01 12.1919Z" fill="#3C454E"/>
<path d="M169.833 11.9999V10.7359H168.905V6.36791C168.905 4.57591 167.721 3.51991 165.657 3.51991C164.121 3.51991 163.145 4.23991 162.649 5.13591L163.545 5.95191C163.977 5.24791 164.601 4.76791 165.577 4.76791C166.825 4.76791 167.417 5.39191 167.417 6.49591V7.24791H165.849C163.481 7.24791 162.313 8.11191 162.313 9.71191C162.313 11.2319 163.321 12.1919 165.049 12.1919C166.233 12.1919 167.113 11.6479 167.449 10.6239H167.529C167.641 11.4239 168.073 11.9999 168.985 11.9999H169.833ZM165.385 10.9919C164.457 10.9919 163.865 10.5599 163.865 9.79191V9.47191C163.865 8.70391 164.473 8.28791 165.833 8.28791H167.417V9.56791C167.417 10.3999 166.553 10.9919 165.385 10.9919Z" fill="#3C454E"/>
<path d="M175.193 11.9999V10.7359H173.545V4.97591H175.321V3.71191H173.545V1.42391H172.201V2.94391C172.201 3.50391 172.025 3.71191 171.465 3.71191H170.729V4.97591H172.057V10.4319C172.057 11.3919 172.601 11.9999 173.625 11.9999H175.193Z" fill="#3C454E"/>
<path d="M180.417 12.1919C181.969 12.1919 183.169 11.4719 183.745 10.3999L182.786 9.58391C182.338 10.4319 181.586 10.9279 180.546 10.9279C179.058 10.9279 178.21 9.93591 178.21 8.55991V8.22391H184.049V7.59991C184.049 5.27991 182.737 3.51991 180.417 3.51991C178.113 3.51991 176.658 5.23191 176.658 7.85591C176.658 10.4799 178.113 12.1919 180.417 12.1919ZM180.417 4.71991C181.665 4.71991 182.465 5.64791 182.465 7.02391V7.18391H178.21V7.07191C178.21 5.71191 179.121 4.71991 180.417 4.71991Z" fill="#3C454E"/>
<path d="M188.622 12.1919C190.574 12.1919 191.79 11.1839 191.79 9.56791C191.79 8.28791 191.038 7.48791 189.214 7.21591L188.51 7.10391C187.55 6.95991 187.07 6.65591 187.07 5.91991C187.07 5.21591 187.582 4.75191 188.59 4.75191C189.582 4.75191 190.286 5.21591 190.686 5.74391L191.63 4.84791C190.926 4.01591 190.046 3.51991 188.638 3.51991C186.894 3.51991 185.63 4.38391 185.63 6.01591C185.63 7.55191 186.734 8.20791 188.318 8.43191L189.022 8.54391C190.03 8.68791 190.35 9.11991 190.35 9.72791C190.35 10.4959 189.774 10.9599 188.718 10.9599C187.71 10.9599 186.942 10.5119 186.318 9.72791L185.31 10.5919C186.078 11.5679 187.086 12.1919 188.622 12.1919Z" fill="#3C454E"/>
<path d="M31 22.4999C31 24.4329 29.433 25.9999 27.5 25.9999C25.567 25.9999 24 24.4329 24 22.4999C24 20.5669 25.567 18.9999 27.5 18.9999C29.433 18.9999 31 20.5669 31 22.4999Z" fill="#D0D0D0"/>
<path d="M203 22.4999C203 24.4329 201.433 25.9999 199.5 25.9999C197.567 25.9999 196 24.4329 196 22.4999C196 20.5669 197.567 18.9999 199.5 18.9999C201.433 18.9999 203 20.5669 203 22.4999Z" fill="#D0D0D0"/>
<path d="M30 22.9999H198V21.9999H30V22.9999Z" fill="#D0D0D0"/>
<path d="M240.199 11.9999H241.751V2.20793H245.207V0.83193H236.743V2.20793H240.199V11.9999Z" fill="#3C454E"/>
<path d="M249.027 12.1919C251.283 12.1919 252.803 10.4959 252.803 7.85593C252.803 5.21593 251.283 3.51993 249.027 3.51993C246.771 3.51993 245.251 5.21593 245.251 7.85593C245.251 10.4959 246.771 12.1919 249.027 12.1919ZM249.027 10.9119C247.731 10.9119 246.835 10.0959 246.835 8.47993V7.23193C246.835 5.61593 247.731 4.79993 249.027 4.79993C250.323 4.79993 251.219 5.61593 251.219 7.23193V8.47993C251.219 10.0959 250.323 10.9119 249.027 10.9119Z" fill="#3C454E"/>
<path d="M258.012 12.1919C260.268 12.1919 261.788 10.4959 261.788 7.85593C261.788 5.21593 260.268 3.51993 258.012 3.51993C255.756 3.51993 254.236 5.21593 254.236 7.85593C254.236 10.4959 255.756 12.1919 258.012 12.1919ZM258.012 10.9119C256.716 10.9119 255.82 10.0959 255.82 8.47993V7.23193C255.82 5.61593 256.716 4.79993 258.012 4.79993C259.308 4.79993 260.204 5.61593 260.204 7.23193V8.47993C260.204 10.0959 259.308 10.9119 258.012 10.9119Z" fill="#3C454E"/>
<path d="M266.484 11.9999V10.7359H265.3V0.15993H263.812V10.4799C263.812 11.3919 264.34 11.9999 265.364 11.9999H266.484Z" fill="#3C454E"/>
<path d="M270.809 12.1919C272.761 12.1919 273.977 11.1839 273.977 9.56793C273.977 8.28793 273.225 7.48793 271.401 7.21593L270.697 7.10393C269.737 6.95993 269.257 6.65593 269.257 5.91993C269.257 5.21593 269.769 4.75193 270.777 4.75193C271.769 4.75193 272.473 5.21593 272.873 5.74393L273.817 4.84793C273.113 4.01593 272.233 3.51993 270.825 3.51993C269.081 3.51993 267.817 4.38393 267.817 6.01593C267.817 7.55193 268.921 8.20793 270.505 8.43193L271.209 8.54393C272.217 8.68793 272.537 9.11993 272.537 9.72793C272.537 10.4959 271.961 10.9599 270.905 10.9599C269.897 10.9599 269.129 10.5119 268.505 9.72793L267.497 10.5919C268.265 11.5679 269.273 12.1919 270.809 12.1919Z" fill="#3C454E"/>
<path d="M283.49 11.9999V10.7359H281.842V4.97593H283.618V3.71193H281.842V1.42393H280.498V2.94393C280.498 3.50393 280.322 3.71193 279.762 3.71193H279.026V4.97593H280.354V10.4319C280.354 11.3919 280.898 11.9999 281.922 11.9999H283.49Z" fill="#3C454E"/>
<path d="M285.609 11.9999H287.097V6.31993C287.097 5.31193 288.041 4.81593 289.017 4.81593C290.185 4.81593 290.761 5.53593 290.761 6.92793V11.9999H292.249V6.70393C292.249 4.68793 291.209 3.51993 289.513 3.51993C288.265 3.51993 287.561 4.15993 287.177 5.07193H287.097V0.15993H285.609V11.9999Z" fill="#3C454E"/>
<path d="M301.661 11.9999V10.7359H300.733V6.36793C300.733 4.57593 299.549 3.51993 297.485 3.51993C295.949 3.51993 294.973 4.23993 294.477 5.13593L295.373 5.95193C295.805 5.24793 296.429 4.76793 297.405 4.76793C298.653 4.76793 299.245 5.39193 299.245 6.49593V7.24793H297.677C295.309 7.24793 294.141 8.11193 294.141 9.71193C294.141 11.2319 295.149 12.1919 296.877 12.1919C298.061 12.1919 298.941 11.6479 299.277 10.6239H299.357C299.469 11.4239 299.901 11.9999 300.813 11.9999H301.661ZM297.213 10.9919C296.285 10.9919 295.693 10.5599 295.693 9.79193V9.47193C295.693 8.70393 296.301 8.28793 297.661 8.28793H299.245V9.56793C299.245 10.3999 298.381 10.9919 297.213 10.9919Z" fill="#3C454E"/>
<path d="M307.021 11.9999V10.7359H305.373V4.97593H307.149V3.71193H305.373V1.42393H304.029V2.94393C304.029 3.50393 303.853 3.71193 303.293 3.71193H302.557V4.97593H303.885V10.4319C303.885 11.3919 304.429 11.9999 305.453 11.9999H307.021Z" fill="#3C454E"/>
<path d="M316.265 12.1919C318.745 12.1919 320.201 10.8479 320.201 8.78393C320.201 7.07193 319.225 6.09593 317.033 5.61593L316.089 5.42393C314.761 5.13593 314.137 4.68793 314.137 3.69593C314.137 2.59193 314.953 1.99993 316.313 1.99993C317.577 1.99993 318.393 2.51193 318.985 3.32793L320.121 2.41593C319.273 1.26393 318.073 0.63993 316.393 0.63993C314.105 0.63993 312.601 1.77593 312.601 3.75993C312.601 5.50393 313.705 6.44793 315.801 6.87993L316.745 7.07193C318.137 7.37593 318.665 7.88793 318.665 8.86393C318.665 10.0479 317.849 10.8319 316.329 10.8319C315.081 10.8319 314.153 10.2879 313.369 9.27993L312.265 10.2719C313.161 11.4559 314.441 12.1919 316.265 12.1919Z" fill="#3C454E"/>
<path d="M323.08 1.98393C323.704 1.98393 323.976 1.64793 323.976 1.16793V0.94393C323.976 0.46393 323.704 0.12793 323.08 0.12793C322.456 0.12793 322.184 0.46393 322.184 0.94393V1.16793C322.184 1.64793 322.456 1.98393 323.08 1.98393ZM322.328 11.9999H323.816V3.71193H322.328V11.9999Z" fill="#3C454E"/>
<path d="M327.925 11.9999V6.31993C327.925 5.31193 328.837 4.81593 329.781 4.81593C330.917 4.81593 331.445 5.53593 331.445 6.92793V11.9999H332.933V6.31993C332.933 5.31193 333.813 4.81593 334.773 4.81593C335.925 4.81593 336.453 5.53593 336.453 6.92793V11.9999H337.941V6.70393C337.941 4.68793 336.949 3.51993 335.285 3.51993C333.893 3.51993 333.061 4.30393 332.757 5.19993H332.725C332.293 4.03193 331.317 3.51993 330.213 3.51993C329.109 3.51993 328.357 4.22393 328.005 5.07193H327.925V3.71193H326.437V11.9999H327.925Z" fill="#3C454E"/>
<path d="M340.468 15.1999H341.956V10.6399H342.02C342.404 11.6639 343.268 12.1919 344.404 12.1919C346.484 12.1919 347.732 10.5439 347.732 7.85593C347.732 5.16793 346.484 3.51993 344.404 3.51993C343.268 3.51993 342.404 4.04793 342.02 5.07193H341.956V3.71193H340.468V15.1999ZM343.972 10.8959C342.852 10.8959 341.956 10.2559 341.956 9.37593V6.33593C341.956 5.45593 342.852 4.81593 343.972 4.81593C345.3 4.81593 346.148 5.75993 346.148 7.15193V8.55993C346.148 9.95193 345.3 10.8959 343.972 10.8959Z" fill="#3C454E"/>
<path d="M352.5 11.9999V10.7359H351.316V0.15993H349.828V10.4799C349.828 11.3919 350.356 11.9999 351.38 11.9999H352.5Z" fill="#3C454E"/>
<path d="M355.033 1.98393C355.657 1.98393 355.929 1.64793 355.929 1.16793V0.94393C355.929 0.46393 355.657 0.12793 355.033 0.12793C354.409 0.12793 354.137 0.46393 354.137 0.94393V1.16793C354.137 1.64793 354.409 1.98393 355.033 1.98393ZM354.281 11.9999H355.769V3.71193H354.281V11.9999Z" fill="#3C454E"/>
<path d="M358.838 11.9999H360.326V4.97593H362.07V3.71193H360.326V1.42393H362.07V0.15993H360.774C359.478 0.15993 358.838 0.959929 358.838 2.17593V3.71193H357.51V4.97593H358.838V11.9999Z" fill="#3C454E"/>
<path d="M367.091 9.00793L366.611 10.5599H366.531L366.099 9.00793L364.259 3.71193H362.771L365.843 12.3359L365.283 13.9359H363.923V15.1999H364.739C366.003 15.1999 366.403 14.8479 366.787 13.8079L370.387 3.71193H368.947L367.091 9.00793Z" fill="#3C454E"/>
<path d="M218 22.4999C218 24.4329 216.433 25.9999 214.5 25.9999C212.567 25.9999 211 24.4329 211 22.4999C211 20.5669 212.567 18.9999 214.5 18.9999C216.433 18.9999 218 20.5669 218 22.4999Z" fill="#4FDAB8"/>
<path d="M403 22.4999C403 24.4329 401.433 25.9999 399.5 25.9999C397.567 25.9999 396 24.4329 396 22.4999C396 20.5669 397.567 18.9999 399.5 18.9999C401.433 18.9999 403 20.5669 403 22.4999Z" fill="#4FDAB8"/>
<path d="M217 21.9999H399V22.9999H217V21.9999Z" fill="#4FDAB8"/>
<path d="M836.398 11.9999V7.39193H839.454C841.47 7.39193 842.622 6.09593 842.622 4.11193C842.622 2.12793 841.47 0.83193 839.454 0.83193H834.846V11.9999H836.398ZM836.398 2.20793H839.39C840.382 2.20793 840.974 2.75193 840.974 3.71193V4.51193C840.974 5.47193 840.382 6.01593 839.39 6.01593H836.398V2.20793Z" fill="#3C454E"/>
<path d="M847.25 11.9999V10.7359H846.066V0.15993H844.578V10.4799C844.578 11.3919 845.106 11.9999 846.13 11.9999H847.25Z" fill="#3C454E"/>
<path d="M855.911 11.9999V10.7359H854.983V6.36793C854.983 4.57593 853.799 3.51993 851.735 3.51993C850.199 3.51993 849.223 4.23993 848.727 5.13593L849.623 5.95193C850.055 5.24793 850.679 4.76793 851.655 4.76793C852.903 4.76793 853.495 5.39193 853.495 6.49593V7.24793H851.927C849.559 7.24793 848.391 8.11193 848.391 9.71193C848.391 11.2319 849.399 12.1919 851.127 12.1919C852.311 12.1919 853.191 11.6479 853.527 10.6239H853.607C853.719 11.4239 854.151 11.9999 855.063 11.9999H855.911ZM851.463 10.9919C850.535 10.9919 849.943 10.5599 849.943 9.79193V9.47193C849.943 8.70393 850.551 8.28793 851.911 8.28793H853.495V9.56793C853.495 10.3999 852.631 10.9919 851.463 10.9919Z" fill="#3C454E"/>
<path d="M861.271 11.9999V10.7359H859.623V4.97593H861.399V3.71193H859.623V1.42393H858.279V2.94393C858.279 3.50393 858.103 3.71193 857.543 3.71193H856.807V4.97593H858.135V10.4319C858.135 11.3919 858.679 11.9999 859.703 11.9999H861.271Z" fill="#3C454E"/>
<path d="M863.713 11.9999H865.201V4.97593H866.945V3.71193H865.201V1.42393H866.945V0.15993H865.649C864.353 0.15993 863.713 0.959929 863.713 2.17593V3.71193H862.385V4.97593H863.713V11.9999Z" fill="#3C454E"/>
<path d="M871.683 12.1919C873.939 12.1919 875.459 10.4959 875.459 7.85593C875.459 5.21593 873.939 3.51993 871.683 3.51993C869.427 3.51993 867.907 5.21593 867.907 7.85593C867.907 10.4959 869.427 12.1919 871.683 12.1919ZM871.683 10.9119C870.387 10.9119 869.491 10.0959 869.491 8.47993V7.23193C869.491 5.61593 870.387 4.79993 871.683 4.79993C872.979 4.79993 873.875 5.61593 873.875 7.23193V8.47993C873.875 10.0959 872.979 10.9119 871.683 10.9119Z" fill="#3C454E"/>
<path d="M878.972 11.9999V6.55993C878.972 5.74393 879.772 5.19993 881.148 5.19993H881.884V3.71193H881.388C880.06 3.71193 879.324 4.47993 879.052 5.29593H878.972V3.71193H877.484V11.9999H878.972Z" fill="#3C454E"/>
<path d="M884.972 11.9999V6.31993C884.972 5.31193 885.884 4.81593 886.828 4.81593C887.964 4.81593 888.492 5.53593 888.492 6.92793V11.9999H889.98V6.31993C889.98 5.31193 890.86 4.81593 891.82 4.81593C892.972 4.81593 893.5 5.53593 893.5 6.92793V11.9999H894.988V6.70393C894.988 4.68793 893.996 3.51993 892.332 3.51993C890.94 3.51993 890.108 4.30393 889.804 5.19993H889.772C889.34 4.03193 888.364 3.51993 887.26 3.51993C886.156 3.51993 885.404 4.22393 885.052 5.07193H884.972V3.71193H883.484V11.9999H884.972Z" fill="#3C454E"/>
<path d="M900.059 12.1919C902.011 12.1919 903.227 11.1839 903.227 9.56793C903.227 8.28793 902.475 7.48793 900.651 7.21593L899.947 7.10393C898.987 6.95993 898.507 6.65593 898.507 5.91993C898.507 5.21593 899.019 4.75193 900.027 4.75193C901.019 4.75193 901.723 5.21593 902.123 5.74393L903.067 4.84793C902.363 4.01593 901.483 3.51993 900.075 3.51993C898.331 3.51993 897.067 4.38393 897.067 6.01593C897.067 7.55193 898.171 8.20793 899.755 8.43193L900.459 8.54393C901.467 8.68793 901.787 9.11993 901.787 9.72793C901.787 10.4959 901.211 10.9599 900.155 10.9599C899.147 10.9599 898.379 10.5119 897.755 9.72793L896.747 10.5919C897.515 11.5679 898.523 12.1919 900.059 12.1919Z" fill="#3C454E"/>
<path d="M912.74 11.9999V10.7359H911.092V4.97593H912.868V3.71193H911.092V1.42393H909.748V2.94393C909.748 3.50393 909.572 3.71193 909.012 3.71193H908.276V4.97593H909.604V10.4319C909.604 11.3919 910.148 11.9999 911.172 11.9999H912.74Z" fill="#3C454E"/>
<path d="M914.859 11.9999H916.347V6.31993C916.347 5.31193 917.291 4.81593 918.267 4.81593C919.435 4.81593 920.011 5.53593 920.011 6.92793V11.9999H921.499V6.70393C921.499 4.68793 920.459 3.51993 918.763 3.51993C917.515 3.51993 916.811 4.15993 916.427 5.07193H916.347V0.15993H914.859V11.9999Z" fill="#3C454E"/>
<path d="M930.911 11.9999V10.7359H929.983V6.36793C929.983 4.57593 928.799 3.51993 926.735 3.51993C925.199 3.51993 924.223 4.23993 923.727 5.13593L924.623 5.95193C925.055 5.24793 925.679 4.76793 926.655 4.76793C927.903 4.76793 928.495 5.39193 928.495 6.49593V7.24793H926.927C924.559 7.24793 923.391 8.11193 923.391 9.71193C923.391 11.2319 924.399 12.1919 926.127 12.1919C927.311 12.1919 928.191 11.6479 928.527 10.6239H928.607C928.719 11.4239 929.151 11.9999 930.063 11.9999H930.911ZM926.463 10.9919C925.535 10.9919 924.943 10.5599 924.943 9.79193V9.47193C924.943 8.70393 925.551 8.28793 926.911 8.28793H928.495V9.56793C928.495 10.3999 927.631 10.9919 926.463 10.9919Z" fill="#3C454E"/>
<path d="M936.271 11.9999V10.7359H934.623V4.97593H936.399V3.71193H934.623V1.42393H933.279V2.94393C933.279 3.50393 933.103 3.71193 932.543 3.71193H931.807V4.97593H933.135V10.4319C933.135 11.3919 933.679 11.9999 934.703 11.9999H936.271Z" fill="#3C454E"/>
<path d="M942.219 0.83193V7.42393C942.219 10.6879 943.243 12.1919 946.267 12.1919C949.291 12.1919 950.411 10.6879 950.411 7.42393V0.83193H948.859V7.72793C948.859 9.75993 948.203 10.7999 946.315 10.7999C944.427 10.7999 943.771 9.75993 943.771 7.72793V0.83193H942.219Z" fill="#3C454E"/>
<path d="M954.566 11.9999V6.31993C954.566 5.31193 955.51 4.81593 956.486 4.81593C957.654 4.81593 958.23 5.53593 958.23 6.92793V11.9999H959.718V6.70393C959.718 4.68793 958.678 3.51993 956.982 3.51993C955.734 3.51993 955.03 4.15993 954.646 5.07193H954.566V3.71193H953.078V11.9999H954.566Z" fill="#3C454E"/>
<path d="M963.001 1.98393C963.625 1.98393 963.897 1.64793 963.897 1.16793V0.94393C963.897 0.46393 963.625 0.12793 963.001 0.12793C962.377 0.12793 962.105 0.46393 962.105 0.94393V1.16793C962.105 1.64793 962.377 1.98393 963.001 1.98393ZM962.249 11.9999H963.737V3.71193H962.249V11.9999Z" fill="#3C454E"/>
<path d="M966.807 11.9999H968.295V4.97593H970.039V3.71193H968.295V1.42393H970.039V0.15993H968.743C967.447 0.15993 966.807 0.959929 966.807 2.17593V3.71193H965.479V4.97593H966.807V11.9999Z" fill="#3C454E"/>
<path d="M975.06 9.00793L974.58 10.5599H974.5L974.068 9.00793L972.228 3.71193H970.74L973.812 12.3359L973.252 13.9359H971.892V15.1999H972.708C973.972 15.1999 974.372 14.8479 974.756 13.8079L978.356 3.71193H976.916L975.06 9.00793Z" fill="#3C454E"/>
<path d="M805 22.4999C805 24.4329 803.433 25.9999 801.5 25.9999C799.567 25.9999 798 24.4329 798 22.4999C798 20.5669 799.567 18.9999 801.5 18.9999C803.433 18.9999 805 20.5669 805 22.4999Z" fill="url(#paint0_linear)"/>
<path d="M1012 22.4999C1012 24.4329 1010.43 25.9999 1008.5 25.9999C1006.57 25.9999 1005 24.4329 1005 22.4999C1005 20.5669 1006.57 18.9999 1008.5 18.9999C1010.43 18.9999 1012 20.5669 1012 22.4999Z" fill="url(#paint1_linear)"/>
<path d="M804 21.9999H1009V22.9999H804V21.9999Z" fill="#30CEFE"/>
<path d="M536.969 12.1919C539.449 12.1919 540.905 10.8479 540.905 8.78393C540.905 7.07193 539.929 6.09593 537.737 5.61593L536.793 5.42393C535.465 5.13593 534.841 4.68793 534.841 3.69593C534.841 2.59193 535.657 1.99993 537.017 1.99993C538.281 1.99993 539.097 2.51193 539.689 3.32793L540.825 2.41593C539.977 1.26393 538.777 0.63993 537.097 0.63993C534.809 0.63993 533.305 1.77593 533.305 3.75993C533.305 5.50393 534.409 6.44793 536.505 6.87993L537.449 7.07193C538.841 7.37593 539.369 7.88793 539.369 8.86393C539.369 10.0479 538.553 10.8319 537.033 10.8319C535.785 10.8319 534.857 10.2879 534.073 9.27993L532.969 10.2719C533.865 11.4559 535.145 12.1919 536.969 12.1919Z" fill="#3C454E"/>
<path d="M546.199 12.1919C547.751 12.1919 548.951 11.4719 549.527 10.3999L548.567 9.58393C548.119 10.4319 547.367 10.9279 546.327 10.9279C544.839 10.9279 543.991 9.93593 543.991 8.55993V8.22393H549.831V7.59993C549.831 5.27993 548.519 3.51993 546.199 3.51993C543.895 3.51993 542.439 5.23193 542.439 7.85593C542.439 10.4799 543.895 12.1919 546.199 12.1919ZM546.199 4.71993C547.447 4.71993 548.247 5.64793 548.247 7.02393V7.18393H543.991V7.07193C543.991 5.71193 544.903 4.71993 546.199 4.71993Z" fill="#3C454E"/>
<path d="M553.347 11.9999V6.55993C553.347 5.74393 554.147 5.19993 555.523 5.19993H556.259V3.71193H555.763C554.435 3.71193 553.699 4.47993 553.427 5.29593H553.347V3.71193H551.859V11.9999H553.347Z" fill="#3C454E"/>
<path d="M561.552 11.9999L564.432 3.71193H563.008L561.632 7.67993L560.752 10.5439H560.656L559.792 7.67993L558.432 3.71193H556.944L559.808 11.9999H561.552Z" fill="#3C454E"/>
<path d="M566.752 1.98393C567.376 1.98393 567.648 1.64793 567.648 1.16793V0.94393C567.648 0.46393 567.376 0.12793 566.752 0.12793C566.128 0.12793 565.856 0.46393 565.856 0.94393V1.16793C565.856 1.64793 566.128 1.98393 566.752 1.98393ZM566 11.9999H567.488V3.71193H566V11.9999Z" fill="#3C454E"/>
<path d="M573.245 12.1919C574.829 12.1919 575.917 11.4239 576.445 10.1759L575.357 9.50393C574.941 10.3999 574.253 10.9119 573.245 10.9119C571.821 10.9119 571.101 9.93593 571.101 8.57593V7.13593C571.101 5.77593 571.821 4.79993 573.245 4.79993C574.205 4.79993 574.877 5.29593 575.149 6.11193L576.381 5.50393C575.901 4.31993 574.877 3.51993 573.245 3.51993C570.877 3.51993 569.517 5.19993 569.517 7.85593C569.517 10.5119 570.877 12.1919 573.245 12.1919Z" fill="#3C454E"/>
<path d="M581.261 12.1919C582.813 12.1919 584.013 11.4719 584.589 10.3999L583.629 9.58393C583.181 10.4319 582.429 10.9279 581.389 10.9279C579.901 10.9279 579.053 9.93593 579.053 8.55993V8.22393H584.893V7.59993C584.893 5.27993 583.581 3.51993 581.261 3.51993C578.957 3.51993 577.501 5.23193 577.501 7.85593C577.501 10.4799 578.957 12.1919 581.261 12.1919ZM581.261 4.71993C582.509 4.71993 583.309 5.64793 583.309 7.02393V7.18393H579.053V7.07193C579.053 5.71193 579.965 4.71993 581.261 4.71993Z" fill="#3C454E"/>
<path d="M589.465 12.1919C591.417 12.1919 592.633 11.1839 592.633 9.56793C592.633 8.28793 591.881 7.48793 590.057 7.21593L589.353 7.10393C588.393 6.95993 587.913 6.65593 587.913 5.91993C587.913 5.21593 588.425 4.75193 589.433 4.75193C590.425 4.75193 591.129 5.21593 591.529 5.74393L592.473 4.84793C591.769 4.01593 590.889 3.51993 589.481 3.51993C587.737 3.51993 586.473 4.38393 586.473 6.01593C586.473 7.55193 587.577 8.20793 589.161 8.43193L589.865 8.54393C590.873 8.68793 591.193 9.11993 591.193 9.72793C591.193 10.4959 590.617 10.9599 589.561 10.9599C588.553 10.9599 587.785 10.5119 587.161 9.72793L586.153 10.5919C586.921 11.5679 587.929 12.1919 589.465 12.1919Z" fill="#3C454E"/>
<path d="M602.146 11.9999V10.7359H600.498V4.97593H602.274V3.71193H600.498V1.42393H599.154V2.94393C599.154 3.50393 598.978 3.71193 598.418 3.71193H597.682V4.97593H599.01V10.4319C599.01 11.3919 599.554 11.9999 600.578 11.9999H602.146Z" fill="#3C454E"/>
<path d="M604.265 11.9999H605.753V6.31993C605.753 5.31193 606.697 4.81593 607.673 4.81593C608.841 4.81593 609.417 5.53593 609.417 6.92793V11.9999H610.905V6.70393C610.905 4.68793 609.865 3.51993 608.169 3.51993C606.921 3.51993 606.217 4.15993 605.833 5.07193H605.753V0.15993H604.265V11.9999Z" fill="#3C454E"/>
<path d="M620.317 11.9999V10.7359H619.389V6.36793C619.389 4.57593 618.205 3.51993 616.141 3.51993C614.605 3.51993 613.629 4.23993 613.133 5.13593L614.029 5.95193C614.461 5.24793 615.085 4.76793 616.061 4.76793C617.309 4.76793 617.901 5.39193 617.901 6.49593V7.24793H616.333C613.965 7.24793 612.797 8.11193 612.797 9.71193C612.797 11.2319 613.805 12.1919 615.533 12.1919C616.717 12.1919 617.597 11.6479 617.933 10.6239H618.013C618.125 11.4239 618.557 11.9999 619.469 11.9999H620.317ZM615.869 10.9919C614.941 10.9919 614.349 10.5599 614.349 9.79193V9.47193C614.349 8.70393 614.957 8.28793 616.317 8.28793H617.901V9.56793C617.901 10.3999 617.037 10.9919 615.869 10.9919Z" fill="#3C454E"/>
<path d="M625.678 11.9999V10.7359H624.03V4.97593H625.806V3.71193H624.03V1.42393H622.686V2.94393C622.686 3.50393 622.51 3.71193 621.95 3.71193H621.214V4.97593H622.542V10.4319C622.542 11.3919 623.086 11.9999 624.11 11.9999H625.678Z" fill="#3C454E"/>
<path d="M634.922 12.1919C637.402 12.1919 638.858 10.8479 638.858 8.78393C638.858 7.07193 637.882 6.09593 635.69 5.61593L634.746 5.42393C633.418 5.13593 632.794 4.68793 632.794 3.69593C632.794 2.59193 633.61 1.99993 634.97 1.99993C636.234 1.99993 637.05 2.51193 637.642 3.32793L638.778 2.41593C637.93 1.26393 636.73 0.63993 635.05 0.63993C632.762 0.63993 631.258 1.77593 631.258 3.75993C631.258 5.50393 632.362 6.44793 634.458 6.87993L635.402 7.07193C636.794 7.37593 637.322 7.88793 637.322 8.86393C637.322 10.0479 636.506 10.8319 634.986 10.8319C633.738 10.8319 632.81 10.2879 632.026 9.27993L630.922 10.2719C631.818 11.4559 633.098 12.1919 634.922 12.1919Z" fill="#3C454E"/>
<path d="M644.12 12.1919C645.704 12.1919 646.792 11.4239 647.32 10.1759L646.232 9.50393C645.816 10.3999 645.128 10.9119 644.12 10.9119C642.696 10.9119 641.976 9.93593 641.976 8.57593V7.13593C641.976 5.77593 642.696 4.79993 644.12 4.79993C645.08 4.79993 645.752 5.29593 646.024 6.11193L647.256 5.50393C646.776 4.31993 645.752 3.51993 644.12 3.51993C641.752 3.51993 640.392 5.19993 640.392 7.85593C640.392 10.5119 641.752 12.1919 644.12 12.1919Z" fill="#3C454E"/>
<path d="M655.942 11.9999V10.7359H655.014V6.36793C655.014 4.57593 653.83 3.51993 651.766 3.51993C650.23 3.51993 649.254 4.23993 648.758 5.13593L649.654 5.95193C650.086 5.24793 650.71 4.76793 651.686 4.76793C652.934 4.76793 653.526 5.39193 653.526 6.49593V7.24793H651.958C649.59 7.24793 648.422 8.11193 648.422 9.71193C648.422 11.2319 649.43 12.1919 651.158 12.1919C652.342 12.1919 653.222 11.6479 653.558 10.6239H653.638C653.75 11.4239 654.182 11.9999 655.094 11.9999H655.942ZM651.494 10.9919C650.566 10.9919 649.974 10.5599 649.974 9.79193V9.47193C649.974 8.70393 650.582 8.28793 651.942 8.28793H653.526V9.56793C653.526 10.3999 652.662 10.9919 651.494 10.9919Z" fill="#3C454E"/>
<path d="M660.39 11.9999V10.7359H659.206V0.15993H657.718V10.4799C657.718 11.3919 658.246 11.9999 659.27 11.9999H660.39Z" fill="#3C454E"/>
<path d="M665.339 12.1919C666.891 12.1919 668.091 11.4719 668.667 10.3999L667.707 9.58393C667.259 10.4319 666.507 10.9279 665.467 10.9279C663.979 10.9279 663.131 9.93593 663.131 8.55993V8.22393H668.971V7.59993C668.971 5.27993 667.659 3.51993 665.339 3.51993C663.035 3.51993 661.579 5.23193 661.579 7.85593C661.579 10.4799 663.035 12.1919 665.339 12.1919ZM665.339 4.71993C666.587 4.71993 667.387 5.64793 667.387 7.02393V7.18393H663.131V7.07193C663.131 5.71193 664.043 4.71993 665.339 4.71993Z" fill="#3C454E"/>
<path d="M418 22.4999C418 24.4329 416.433 25.9999 414.5 25.9999C412.567 25.9999 411 24.4329 411 22.4999C411 20.5669 412.567 18.9999 414.5 18.9999C416.433 18.9999 418 20.5669 418 22.4999Z" fill="#526AEA"/>
<path d="M790 22.4999C790 24.4329 788.433 25.9999 786.5 25.9999C784.567 25.9999 783 24.4329 783 22.4999C783 20.5669 784.567 18.9999 786.5 18.9999C788.433 18.9999 790 20.5669 790 22.4999Z" fill="#526AEA"/>
<path d="M415 22.9999H787V21.9999H415V22.9999Z" fill="#526AEA"/>
<defs>
<linearGradient id="paint0_linear" x1="801.5" y1="18.9999" x2="801.5" y2="25.9999" gradientUnits="userSpaceOnUse">
<stop stop-color="#52C7EA"/>
<stop offset="1" stop-color="#30CEFE"/>
</linearGradient>
<linearGradient id="paint1_linear" x1="1008.5" y1="18.9999" x2="1008.5" y2="25.9999" gradientUnits="userSpaceOnUse">
<stop stop-color="#52C7EA"/>
<stop offset="1" stop-color="#30CEFE"/>
</linearGradient>
</defs>
</svg>
