<svg width="896" height="195" viewBox="0 0 896 195" fill="none" xmlns="http://www.w3.org/2000/svg">
<rect width="896" height="112" rx="4" fill="url(#paint0_linear)"/>
<rect x="0.5" y="0.5" width="895" height="111" rx="3.5" stroke="#C4C4C4" stroke-opacity="0.1"/>
<g filter="url(#filter0_d)">
<rect x="16" y="16" width="258" height="80" rx="4" fill="white"/>
</g>
<path d="M79.888 66.256C79.888 68.584 80.86 70.624 82.048 71.632H83.128C81.832 70.48 80.932 68.5 80.932 66.748V65.764C80.932 64.012 81.832 62.032 83.128 60.88H82.048C80.86 61.888 79.888 63.928 79.888 66.256ZM89.3547 70V68.968H85.2987V66.28H89.0547V65.248H85.2987V62.656H89.3547V61.624H84.1347V70H89.3547ZM90.3614 70H91.5854L93.2054 67.648H93.2414L94.7774 70H96.0734L93.8654 66.82L96.0374 63.784H94.8134L93.2774 66.028H93.2414L91.7414 63.784H90.4454L92.6174 66.868L90.3614 70ZM99.528 70.144C100.692 70.144 101.592 69.604 102.024 68.8L101.304 68.188C100.968 68.824 100.404 69.196 99.624 69.196C98.508 69.196 97.872 68.452 97.872 67.42V67.168H102.252V66.7C102.252 64.96 101.268 63.64 99.528 63.64C97.8 63.64 96.708 64.924 96.708 66.892C96.708 68.86 97.8 70.144 99.528 70.144ZM99.528 64.54C100.464 64.54 101.064 65.236 101.064 66.268V66.388H97.872V66.304C97.872 65.284 98.556 64.54 99.528 64.54ZM106.125 70.144C107.313 70.144 108.129 69.568 108.525 68.632L107.709 68.128C107.397 68.8 106.881 69.184 106.125 69.184C105.057 69.184 104.517 68.452 104.517 67.432V66.352C104.517 65.332 105.057 64.6 106.125 64.6C106.845 64.6 107.349 64.972 107.553 65.584L108.477 65.128C108.117 64.24 107.349 63.64 106.125 63.64C104.349 63.64 103.329 64.9 103.329 66.892C103.329 68.884 104.349 70.144 106.125 70.144ZM109.928 70H112.796C114.92 70 116.288 68.608 116.288 65.812C116.288 63.016 114.92 61.624 112.796 61.624H109.928V70ZM111.092 68.968V62.656H112.796C114.128 62.656 115.04 63.544 115.04 65.14V66.484C115.04 68.08 114.128 68.968 112.796 68.968H111.092ZM120.777 72.4H121.893V68.98H121.941C122.229 69.748 122.877 70.144 123.729 70.144C125.289 70.144 126.225 68.908 126.225 66.892C126.225 64.876 125.289 63.64 123.729 63.64C122.877 63.64 122.229 64.036 121.941 64.804H121.893V63.784H120.777V72.4ZM123.405 69.172C122.565 69.172 121.893 68.692 121.893 68.032V65.752C121.893 65.092 122.565 64.612 123.405 64.612C124.401 64.612 125.037 65.32 125.037 66.364V67.42C125.037 68.464 124.401 69.172 123.405 69.172ZM129.801 70V69.052H128.913V61.12H127.797V68.86C127.797 69.544 128.193 70 128.961 70H129.801ZM134.94 70H136.056V63.784H134.94V68.032C134.94 68.812 134.22 69.172 133.512 69.172C132.636 69.172 132.192 68.632 132.192 67.588V63.784H131.076V67.756C131.076 69.268 131.868 70.144 133.14 70.144C134.172 70.144 134.652 69.58 134.88 68.98H134.94V70ZM143.367 70.636C143.367 69.592 142.707 68.956 141.171 68.956H139.755C139.191 68.956 138.843 68.848 138.843 68.488C138.843 68.14 139.191 67.936 139.551 67.828C139.755 67.876 140.007 67.9 140.247 67.9C141.747 67.9 142.659 67.036 142.659 65.776C142.659 65.092 142.383 64.516 141.879 64.144V63.808H143.103V62.872H142.155C141.627 62.872 141.399 63.208 141.399 63.724V63.856C141.063 63.724 140.679 63.64 140.247 63.64C138.759 63.64 137.847 64.516 137.847 65.776C137.847 66.628 138.267 67.312 138.999 67.66V67.708C138.387 67.852 137.919 68.164 137.919 68.788C137.919 69.232 138.135 69.544 138.531 69.7V69.832C137.895 69.988 137.511 70.36 137.511 71.032C137.511 71.992 138.303 72.544 140.283 72.544C142.383 72.544 143.367 71.92 143.367 70.636ZM142.323 70.744C142.323 71.38 141.747 71.692 140.691 71.692H139.851C138.879 71.692 138.507 71.284 138.507 70.768C138.507 70.42 138.663 70.156 139.011 69.976H141.099C142.011 69.976 142.323 70.276 142.323 70.744ZM140.259 67.06C139.467 67.06 138.975 66.688 138.975 65.932V65.62C138.975 64.864 139.467 64.492 140.259 64.492C141.051 64.492 141.543 64.864 141.543 65.62V65.932C141.543 66.688 141.051 67.06 140.259 67.06ZM144.989 62.488C145.457 62.488 145.661 62.236 145.661 61.876V61.708C145.661 61.348 145.457 61.096 144.989 61.096C144.521 61.096 144.317 61.348 144.317 61.708V61.876C144.317 62.236 144.521 62.488 144.989 62.488ZM144.425 70H145.541V63.784H144.425V70ZM148.623 70V65.74C148.623 64.984 149.331 64.612 150.063 64.612C150.939 64.612 151.371 65.152 151.371 66.196V70H152.487V66.028C152.487 64.516 151.707 63.64 150.435 63.64C149.499 63.64 148.971 64.12 148.683 64.804H148.623V63.784H147.507V70H148.623ZM156.57 66.256C156.57 63.928 155.598 61.888 154.41 60.88H153.33C154.626 62.032 155.526 64.012 155.526 65.764V66.748C155.526 68.5 154.626 70.48 153.33 71.632H154.41C155.598 70.624 156.57 68.584 156.57 66.256Z" fill="#7A8895"/>
<path d="M274 56L645 56" stroke="#30CEFE" stroke-width="8"/>
<path d="M80.56 41.2H87.84V43.762H86.804V42.236H84.774V49.964H86.314V51H82.072V49.964H83.612V42.236H81.596V43.762H80.56V41.2ZM95.8005 50.118C95.6325 50.2673 95.4319 50.4073 95.1985 50.538C94.9745 50.6687 94.7272 50.7807 94.4565 50.874C94.1859 50.9673 93.9012 51.0373 93.6025 51.084C93.3132 51.14 93.0192 51.168 92.7205 51.168C92.1605 51.168 91.6659 51.084 91.2365 50.916C90.8072 50.7387 90.4479 50.4913 90.1585 50.174C89.8692 49.8473 89.6499 49.46 89.5005 49.012C89.3512 48.564 89.2765 48.06 89.2765 47.5C89.2765 46.912 89.3559 46.3893 89.5145 45.932C89.6825 45.4747 89.9205 45.092 90.2285 44.784C90.5365 44.476 90.9099 44.2427 91.3485 44.084C91.7872 43.916 92.2772 43.832 92.8185 43.832C93.2105 43.832 93.5979 43.8833 93.9805 43.986C94.3632 44.0887 94.6992 44.2847 94.9885 44.574C95.2872 44.854 95.5159 45.246 95.6745 45.75C95.8332 46.2447 95.8892 46.8887 95.8425 47.682H90.4245C90.4245 48.522 90.6485 49.152 91.0965 49.572C91.5539 49.9827 92.1605 50.188 92.9165 50.188C93.1685 50.188 93.4159 50.16 93.6585 50.104C93.9105 50.0387 94.1485 49.964 94.3725 49.88C94.5965 49.796 94.7925 49.7027 94.9605 49.6C95.1379 49.4973 95.2732 49.404 95.3665 49.32L95.8005 50.118ZM92.8465 44.756C92.5385 44.756 92.2445 44.7887 91.9645 44.854C91.6939 44.9193 91.4512 45.0313 91.2365 45.19C91.0312 45.3393 90.8585 45.54 90.7185 45.792C90.5879 46.0347 90.5039 46.338 90.4665 46.702H94.8205C94.7739 46.086 94.5732 45.61 94.2185 45.274C93.8732 44.9287 93.4159 44.756 92.8465 44.756ZM98.4551 41.2H100.779V48.648C100.779 49.2173 100.872 49.6187 101.059 49.852C101.255 50.0853 101.54 50.202 101.913 50.202C102.174 50.202 102.422 50.1553 102.655 50.062C102.898 49.9687 103.164 49.81 103.453 49.586L103.957 50.356C103.808 50.4867 103.644 50.6033 103.467 50.706C103.29 50.8087 103.108 50.8973 102.921 50.972C102.734 51.0373 102.548 51.0887 102.361 51.126C102.174 51.1633 102.002 51.182 101.843 51.182C101.498 51.182 101.19 51.1353 100.919 51.042C100.648 50.958 100.42 50.818 100.233 50.622C100.056 50.426 99.9204 50.1693 99.8271 49.852C99.7337 49.5253 99.6871 49.124 99.6871 48.648V42.138H98.4551V41.2ZM112.59 50.118C112.422 50.2673 112.221 50.4073 111.988 50.538C111.764 50.6687 111.516 50.7807 111.246 50.874C110.975 50.9673 110.69 51.0373 110.392 51.084C110.102 51.14 109.808 51.168 109.51 51.168C108.95 51.168 108.455 51.084 108.026 50.916C107.596 50.7387 107.237 50.4913 106.948 50.174C106.658 49.8473 106.439 49.46 106.29 49.012C106.14 48.564 106.066 48.06 106.066 47.5C106.066 46.912 106.145 46.3893 106.304 45.932C106.472 45.4747 106.71 45.092 107.018 44.784C107.326 44.476 107.699 44.2427 108.138 44.084C108.576 43.916 109.066 43.832 109.608 43.832C110 43.832 110.387 43.8833 110.77 43.986C111.152 44.0887 111.488 44.2847 111.778 44.574C112.076 44.854 112.305 45.246 112.464 45.75C112.622 46.2447 112.678 46.8887 112.632 47.682H107.214C107.214 48.522 107.438 49.152 107.886 49.572C108.343 49.9827 108.95 50.188 109.706 50.188C109.958 50.188 110.205 50.16 110.448 50.104C110.7 50.0387 110.938 49.964 111.162 49.88C111.386 49.796 111.582 49.7027 111.75 49.6C111.927 49.4973 112.062 49.404 112.156 49.32L112.59 50.118ZM109.636 44.756C109.328 44.756 109.034 44.7887 108.754 44.854C108.483 44.9193 108.24 45.0313 108.026 45.19C107.82 45.3393 107.648 45.54 107.508 45.792C107.377 46.0347 107.293 46.338 107.256 46.702H111.61C111.563 46.086 111.362 45.61 111.008 45.274C110.662 44.9287 110.205 44.756 109.636 44.756ZM120.914 51.35C120.914 51.7887 120.83 52.1713 120.662 52.498C120.494 52.834 120.261 53.1093 119.962 53.324C119.673 53.5387 119.332 53.6973 118.94 53.8C118.548 53.912 118.123 53.968 117.666 53.968C117.115 53.968 116.635 53.912 116.224 53.8C115.813 53.688 115.459 53.5433 115.16 53.366L115.692 52.372C115.776 52.4467 115.883 52.5167 116.014 52.582C116.154 52.6567 116.313 52.722 116.49 52.778C116.667 52.8433 116.854 52.8947 117.05 52.932C117.255 52.9693 117.456 52.988 117.652 52.988C118.063 52.988 118.403 52.9507 118.674 52.876C118.954 52.8013 119.178 52.6847 119.346 52.526C119.514 52.3673 119.635 52.162 119.71 51.91C119.785 51.658 119.822 51.35 119.822 50.986V50.202H119.766C119.551 50.51 119.276 50.748 118.94 50.916C118.604 51.084 118.17 51.168 117.638 51.168C116.574 51.168 115.79 50.874 115.286 50.286C114.791 49.6887 114.544 48.7647 114.544 47.514C114.544 46.3193 114.861 45.4187 115.496 44.812C116.131 44.196 117.073 43.888 118.324 43.888C118.903 43.888 119.393 43.93 119.794 44.014C120.205 44.0887 120.578 44.1867 120.914 44.308V51.35ZM117.792 50.23C118.361 50.23 118.809 50.0853 119.136 49.796C119.463 49.4973 119.691 49.0447 119.822 48.438V45.12C119.411 44.924 118.837 44.826 118.1 44.826C117.353 44.826 116.765 45.0453 116.336 45.484C115.907 45.9227 115.692 46.5947 115.692 47.5C115.692 47.9013 115.729 48.27 115.804 48.606C115.879 48.9327 115.995 49.2173 116.154 49.46C116.322 49.7027 116.537 49.894 116.798 50.034C117.069 50.1647 117.4 50.23 117.792 50.23ZM122.897 51V50.062H124.787V44.938H122.897V44H125.515L125.739 44.91H125.809C126.126 44.6207 126.481 44.3733 126.873 44.168C127.265 43.9627 127.731 43.86 128.273 43.86C128.59 43.86 128.842 43.9207 129.029 44.042C129.225 44.1633 129.374 44.3407 129.477 44.574C129.589 44.8073 129.663 45.092 129.701 45.428C129.738 45.7547 129.757 46.128 129.757 46.548L128.777 46.562C128.777 45.9647 128.716 45.526 128.595 45.246C128.483 44.966 128.273 44.826 127.965 44.826C127.675 44.826 127.414 44.868 127.181 44.952C126.947 45.036 126.742 45.1387 126.565 45.26C126.397 45.3813 126.252 45.5027 126.131 45.624C126.009 45.7453 125.921 45.848 125.865 45.932V50.062H128.553V51H122.897ZM131.879 44.546C132.281 44.3127 132.733 44.1447 133.237 44.042C133.741 43.9393 134.236 43.888 134.721 43.888C135.197 43.888 135.585 43.9627 135.883 44.112C136.191 44.2613 136.429 44.4573 136.597 44.7C136.775 44.9333 136.891 45.204 136.947 45.512C137.013 45.8107 137.045 46.114 137.045 46.422C137.045 46.7767 137.036 47.1547 137.017 47.556C136.999 47.9573 136.985 48.3587 136.975 48.76C136.975 49.2267 137.003 49.67 137.059 50.09H137.997V51H136.135L136.009 49.95H135.939C135.883 50.034 135.799 50.1413 135.687 50.272C135.575 50.4027 135.426 50.5333 135.239 50.664C135.062 50.7853 134.843 50.8927 134.581 50.986C134.32 51.0793 134.012 51.126 133.657 51.126C132.967 51.126 132.421 50.9487 132.019 50.594C131.618 50.2393 131.417 49.754 131.417 49.138C131.417 48.662 131.52 48.2653 131.725 47.948C131.94 47.6307 132.243 47.388 132.635 47.22C133.027 47.052 133.499 46.954 134.049 46.926C134.609 46.898 135.235 46.9353 135.925 47.038C135.972 46.6087 135.977 46.254 135.939 45.974C135.911 45.6847 135.837 45.456 135.715 45.288C135.603 45.12 135.44 45.0033 135.225 44.938C135.02 44.8633 134.763 44.826 134.455 44.826C134.035 44.826 133.634 44.8867 133.251 45.008C132.869 45.12 132.528 45.2367 132.229 45.358L131.879 44.546ZM133.937 50.188C134.199 50.188 134.441 50.146 134.665 50.062C134.889 49.978 135.085 49.8707 135.253 49.74C135.421 49.6093 135.561 49.4693 135.673 49.32C135.785 49.1613 135.869 49.012 135.925 48.872V47.892C135.44 47.808 134.992 47.766 134.581 47.766C134.171 47.766 133.816 47.8127 133.517 47.906C133.219 47.99 132.985 48.1253 132.817 48.312C132.649 48.4987 132.565 48.7413 132.565 49.04C132.565 49.348 132.668 49.6187 132.873 49.852C133.088 50.076 133.443 50.188 133.937 50.188ZM139.994 51V50.062H141.66V44.938H139.994V44H141.66V43.608C141.66 42.7307 141.888 42.096 142.346 41.704C142.803 41.312 143.456 41.116 144.306 41.116C144.614 41.116 144.889 41.1347 145.132 41.172C145.374 41.2093 145.636 41.284 145.916 41.396L145.664 42.306C145.421 42.2033 145.188 42.138 144.964 42.11C144.74 42.0727 144.534 42.054 144.348 42.054C143.732 42.054 143.312 42.208 143.088 42.516C142.864 42.8147 142.752 43.3093 142.752 44H145.65V44.938H142.752V50.062H145.65V51H139.994ZM160.297 45.54L161.697 49.432H161.795L162.789 44H163.811L162.439 51H161.193L159.849 47.136H159.807L158.407 51H157.161L155.691 44H156.769L157.903 49.46H157.987L159.345 45.54H160.297ZM165.415 51V50.062H167.851V44.938H165.415V44H168.971V50.062H171.351V51H165.415ZM167.473 42.012C167.473 41.76 167.557 41.5453 167.725 41.368C167.893 41.1813 168.108 41.088 168.369 41.088C168.64 41.088 168.864 41.1813 169.041 41.368C169.228 41.5453 169.321 41.76 169.321 42.012C169.321 42.2547 169.228 42.46 169.041 42.628C168.864 42.796 168.64 42.88 168.369 42.88C168.108 42.88 167.893 42.796 167.725 42.628C167.557 42.46 167.473 42.2547 167.473 42.012ZM172.774 44H174.44V42.614L175.532 42.306V44H179.27V44.938H175.532V48.242C175.532 48.9233 175.695 49.4273 176.022 49.754C176.358 50.0807 176.834 50.244 177.45 50.244C177.87 50.244 178.234 50.1647 178.542 50.006C178.859 49.8473 179.144 49.6747 179.396 49.488L179.76 50.314C179.433 50.5753 179.041 50.7853 178.584 50.944C178.136 51.1027 177.674 51.182 177.198 51.182C176.825 51.182 176.47 51.126 176.134 51.014C175.807 50.9113 175.518 50.748 175.266 50.524C175.014 50.3 174.813 50.0153 174.664 49.67C174.515 49.3153 174.44 48.8953 174.44 48.41V44.938H172.774V44ZM180.79 41.2H182.974V44.868H183.044C183.334 44.5413 183.67 44.2893 184.052 44.112C184.435 43.9253 184.911 43.832 185.48 43.832C185.928 43.832 186.316 43.8787 186.642 43.972C186.978 44.0653 187.249 44.2287 187.454 44.462C187.669 44.6953 187.828 45.0173 187.93 45.428C188.033 45.8293 188.084 46.3427 188.084 46.968V51H186.992V47.178C186.992 46.7767 186.969 46.4267 186.922 46.128C186.876 45.8293 186.782 45.582 186.642 45.386C186.512 45.1807 186.33 45.0267 186.096 44.924C185.863 44.8213 185.564 44.77 185.2 44.77C184.948 44.77 184.701 44.8167 184.458 44.91C184.216 44.994 183.992 45.1153 183.786 45.274C183.59 45.4233 183.418 45.61 183.268 45.834C183.128 46.0487 183.03 46.2867 182.974 46.548V51H181.896V42.138H180.79V41.2ZM198.195 46.1C198.195 44.476 198.48 43.2253 199.049 42.348C199.628 41.4707 200.515 41.032 201.709 41.032C202.363 41.032 202.913 41.1533 203.361 41.396C203.819 41.6387 204.187 41.984 204.467 42.432C204.747 42.8707 204.948 43.4027 205.069 44.028C205.191 44.644 205.251 45.3347 205.251 46.1C205.251 47.724 204.962 48.9747 204.383 49.852C203.814 50.7293 202.923 51.168 201.709 51.168C201.065 51.168 200.519 51.0467 200.071 50.804C199.623 50.5613 199.259 50.2207 198.979 49.782C198.699 49.334 198.499 48.802 198.377 48.186C198.256 47.5607 198.195 46.8653 198.195 46.1ZM199.427 46.1C199.427 46.6413 199.46 47.1547 199.525 47.64C199.6 48.1253 199.726 48.5547 199.903 48.928C200.081 49.292 200.314 49.586 200.603 49.81C200.893 50.0247 201.261 50.132 201.709 50.132C202.512 50.132 203.095 49.8053 203.459 49.152C203.833 48.4987 204.019 47.4813 204.019 46.1C204.019 45.568 203.982 45.0593 203.907 44.574C203.842 44.0793 203.721 43.65 203.543 43.286C203.366 42.9127 203.128 42.6187 202.829 42.404C202.531 42.18 202.157 42.068 201.709 42.068C200.916 42.068 200.337 42.3993 199.973 43.062C199.609 43.7153 199.427 44.728 199.427 46.1ZM212.064 45.078C211.849 45.0033 211.616 44.9427 211.364 44.896C211.121 44.84 210.879 44.812 210.636 44.812C209.721 44.812 209.04 45.0267 208.592 45.456C208.144 45.8853 207.92 46.5667 207.92 47.5C207.92 47.9107 207.985 48.2793 208.116 48.606C208.247 48.9233 208.433 49.194 208.676 49.418C208.919 49.642 209.208 49.8147 209.544 49.936C209.889 50.0573 210.267 50.118 210.678 50.118C211.117 50.118 211.541 50.0433 211.952 49.894C212.372 49.7447 212.722 49.5487 213.002 49.306L213.492 50.118C213.361 50.23 213.198 50.3467 213.002 50.468C212.806 50.5893 212.577 50.706 212.316 50.818C212.064 50.9207 211.779 51.0047 211.462 51.07C211.154 51.1353 210.818 51.168 210.454 51.168C209.847 51.168 209.311 51.084 208.844 50.916C208.387 50.7387 208.004 50.4913 207.696 50.174C207.388 49.8473 207.155 49.46 206.996 49.012C206.837 48.5547 206.758 48.0507 206.758 47.5C206.758 46.912 206.837 46.3893 206.996 45.932C207.164 45.4747 207.402 45.092 207.71 44.784C208.018 44.476 208.391 44.2427 208.83 44.084C209.269 43.916 209.759 43.832 210.3 43.832C210.991 43.832 211.551 43.8927 211.98 44.014C212.419 44.1353 212.787 44.2707 213.086 44.42L213.072 44.462V46.408H212.064V45.078ZM214.649 41.2H216.917V46.996H217.687L220.445 44H221.761L218.667 47.318L221.215 50.062H222.125V51H220.683L217.687 47.836H216.917V51H215.839V42.138H214.649V41.2ZM224.219 44.546C224.62 44.3127 225.073 44.1447 225.577 44.042C226.081 43.9393 226.576 43.888 227.061 43.888C227.537 43.888 227.924 43.9627 228.223 44.112C228.531 44.2613 228.769 44.4573 228.937 44.7C229.114 44.9333 229.231 45.204 229.287 45.512C229.352 45.8107 229.385 46.114 229.385 46.422C229.385 46.7767 229.376 47.1547 229.357 47.556C229.338 47.9573 229.324 48.3587 229.315 48.76C229.315 49.2267 229.343 49.67 229.399 50.09H230.337V51H228.475L228.349 49.95H228.279C228.223 50.034 228.139 50.1413 228.027 50.272C227.915 50.4027 227.766 50.5333 227.579 50.664C227.402 50.7853 227.182 50.8927 226.921 50.986C226.66 51.0793 226.352 51.126 225.997 51.126C225.306 51.126 224.76 50.9487 224.359 50.594C223.958 50.2393 223.757 49.754 223.757 49.138C223.757 48.662 223.86 48.2653 224.065 47.948C224.28 47.6307 224.583 47.388 224.975 47.22C225.367 47.052 225.838 46.954 226.389 46.926C226.949 46.898 227.574 46.9353 228.265 47.038C228.312 46.6087 228.316 46.254 228.279 45.974C228.251 45.6847 228.176 45.456 228.055 45.288C227.943 45.12 227.78 45.0033 227.565 44.938C227.36 44.8633 227.103 44.826 226.795 44.826C226.375 44.826 225.974 44.8867 225.591 45.008C225.208 45.12 224.868 45.2367 224.569 45.358L224.219 44.546ZM226.277 50.188C226.538 50.188 226.781 50.146 227.005 50.062C227.229 49.978 227.425 49.8707 227.593 49.74C227.761 49.6093 227.901 49.4693 228.013 49.32C228.125 49.1613 228.209 49.012 228.265 48.872V47.892C227.78 47.808 227.332 47.766 226.921 47.766C226.51 47.766 226.156 47.8127 225.857 47.906C225.558 47.99 225.325 48.1253 225.157 48.312C224.989 48.4987 224.905 48.7413 224.905 49.04C224.905 49.348 225.008 49.6187 225.213 49.852C225.428 50.076 225.782 50.188 226.277 50.188ZM234.77 51V46.338C234.77 46.142 234.76 45.9553 234.742 45.778C234.732 45.5913 234.7 45.428 234.644 45.288C234.597 45.1387 234.522 45.022 234.42 44.938C234.326 44.854 234.2 44.812 234.042 44.812C233.724 44.812 233.454 44.9427 233.23 45.204C233.015 45.4653 232.852 45.792 232.74 46.184V51H231.676V44H232.404L232.614 44.854H232.67C232.763 44.714 232.852 44.5833 232.936 44.462C233.029 44.3313 233.132 44.2193 233.244 44.126C233.365 44.0327 233.505 43.9627 233.664 43.916C233.822 43.86 234.023 43.832 234.266 43.832C234.406 43.832 234.55 43.8553 234.7 43.902C234.849 43.9393 234.984 44.0047 235.106 44.098C235.236 44.182 235.348 44.2987 235.442 44.448C235.535 44.5973 235.596 44.7793 235.624 44.994C235.838 44.63 236.076 44.3453 236.338 44.14C236.608 43.9347 236.977 43.832 237.444 43.832C237.752 43.832 237.999 43.8833 238.186 43.986C238.382 44.0887 238.531 44.238 238.634 44.434C238.746 44.6207 238.82 44.8493 238.858 45.12C238.904 45.3813 238.928 45.6753 238.928 46.002V51H237.864V46.24C237.864 46.044 237.854 45.862 237.836 45.694C237.817 45.5167 237.78 45.3627 237.724 45.232C237.677 45.1013 237.607 44.9987 237.514 44.924C237.43 44.8493 237.313 44.812 237.164 44.812C236.837 44.812 236.562 44.9427 236.338 45.204C236.114 45.4653 235.946 45.8387 235.834 46.324V51H234.77ZM240.616 41.2C240.971 41.1533 241.339 41.1253 241.722 41.116C242.114 41.0973 242.445 41.088 242.716 41.088C243.565 41.088 244.275 41.2093 244.844 41.452C245.423 41.6947 245.885 42.0353 246.23 42.474C246.585 42.9033 246.837 43.4213 246.986 44.028C247.145 44.6347 247.224 45.302 247.224 46.03C247.224 46.6927 247.154 47.332 247.014 47.948C246.874 48.5547 246.631 49.096 246.286 49.572C245.941 50.0387 245.474 50.4167 244.886 50.706C244.307 50.986 243.579 51.126 242.702 51.126C242.581 51.126 242.422 51.1213 242.226 51.112C242.03 51.112 241.829 51.1027 241.624 51.084C241.419 51.0747 241.223 51.0653 241.036 51.056C240.849 51.0467 240.709 51.0327 240.616 51.014V41.2ZM242.772 42.124C242.641 42.124 242.473 42.1287 242.268 42.138C242.072 42.1473 241.909 42.166 241.778 42.194V50.034C241.825 50.0433 241.89 50.0527 241.974 50.062C242.067 50.062 242.161 50.0667 242.254 50.076C242.347 50.076 242.436 50.0807 242.52 50.09C242.613 50.09 242.688 50.09 242.744 50.09C243.425 50.09 243.976 49.978 244.396 49.754C244.825 49.53 245.157 49.2313 245.39 48.858C245.623 48.4753 245.782 48.0413 245.866 47.556C245.95 47.0613 245.992 46.5527 245.992 46.03C245.992 45.5727 245.955 45.1153 245.88 44.658C245.805 44.1913 245.651 43.7713 245.418 43.398C245.194 43.0247 244.867 42.7213 244.438 42.488C244.018 42.2453 243.463 42.124 242.772 42.124Z" fill="#242A31"/>
<g clip-path="url(#clip0)">
<path d="M58.3862 58.8078L56.8354 54.3231C56.7875 54.1561 56.6863 54.0084 56.5468 53.9018C56.4073 53.7953 56.2367 53.7353 56.06 53.7308H46.9277C46.751 53.7353 46.5804 53.7953 46.4409 53.9018C46.3014 54.0084 46.2003 54.1561 46.1523 54.3231L44.6016 58.8078" stroke="#30CEFE" stroke-miterlimit="10" stroke-linecap="round" stroke-linejoin="round"/>
<path d="M60.11 63.8847H42.8792V60.8385C42.8761 60.7273 42.8975 60.6167 42.9422 60.5145C42.9868 60.4122 43.0535 60.3207 43.1377 60.2462L44.6023 58.8077H58.3869L59.8515 60.2462C59.9357 60.3207 60.0024 60.4122 60.047 60.5145C60.0917 60.6167 60.1131 60.7273 60.11 60.8385V63.8847Z" fill="#30CEFE" stroke="#30CEFE" stroke-miterlimit="10" stroke-linecap="round" stroke-linejoin="round"/>
<path d="M46.3264 62.1923C46.8022 62.1923 47.1879 61.8135 47.1879 61.3462C47.1879 60.8788 46.8022 60.5 46.3264 60.5C45.8506 60.5 45.4648 60.8788 45.4648 61.3462C45.4648 61.8135 45.8506 62.1923 46.3264 62.1923Z" fill="#F5F7F9"/>
<path d="M56.6623 62.1923C57.1381 62.1923 57.5239 61.8135 57.5239 61.3462C57.5239 60.8788 57.1381 60.5 56.6623 60.5C56.1865 60.5 55.8008 60.8788 55.8008 61.3462C55.8008 61.8135 56.1865 62.1923 56.6623 62.1923Z" fill="#F5F7F9"/>
<path d="M46.3251 63.8846H42.8789V65.577H46.3251V63.8846Z" stroke="#30CEFE" stroke-miterlimit="10" stroke-linecap="round" stroke-linejoin="round"/>
<path d="M60.1102 63.8846H56.6641V65.577H60.1102V63.8846Z" stroke="#30CEFE" stroke-miterlimit="10" stroke-linecap="round" stroke-linejoin="round"/>
<path d="M49.5703 51.1923C49.8127 50.9266 50.1095 50.714 50.4412 50.5684C50.7729 50.4229 51.1321 50.3477 51.4954 50.3477C51.8587 50.3477 52.218 50.4229 52.5497 50.5684C52.8814 50.714 53.1781 50.9266 53.4205 51.1923" stroke="#30CEFE" stroke-miterlimit="10" stroke-linecap="round" stroke-linejoin="round"/>
<path d="M46.5469 49.5001C47.1024 48.7163 47.8426 48.0761 48.7044 47.634C49.5662 47.1919 50.5241 46.9611 51.4964 46.9611C52.4687 46.9611 53.4266 47.1919 54.2884 47.634C55.1502 48.0761 55.8904 48.7163 56.446 49.5001" stroke="#30CEFE" stroke-miterlimit="10" stroke-linecap="round" stroke-linejoin="round"/>
</g>
<path d="M44.1719 47.3846C44.9938 46.3399 46.089 45.4865 47.3641 44.8971C48.6392 44.3078 50.0564 44 51.495 44C52.9335 44 54.3507 44.3078 55.6258 44.8971C56.9009 45.4865 57.9961 46.3399 58.818 47.3846" stroke="#30CEFE" stroke-miterlimit="10" stroke-linecap="round" stroke-linejoin="round"/>
<g filter="url(#filter1_d)">
<rect x="645" y="16" width="235" height="80" rx="4" fill="white"/>
</g>
<path d="M722.248 66.144C724.42 66.144 725.824 64.632 725.824 61.812C725.824 58.992 724.42 57.48 722.248 57.48C720.076 57.48 718.672 58.992 718.672 61.812C718.672 64.632 720.076 66.144 722.248 66.144ZM722.248 65.1C720.856 65.1 719.92 64.092 719.92 62.496V61.128C719.92 59.532 720.856 58.524 722.248 58.524C723.64 58.524 724.576 59.532 724.576 61.128V62.496C724.576 64.092 723.64 65.1 722.248 65.1ZM729.832 66.144C731.02 66.144 731.836 65.568 732.232 64.632L731.416 64.128C731.104 64.8 730.588 65.184 729.832 65.184C728.764 65.184 728.224 64.452 728.224 63.432V62.352C728.224 61.332 728.764 60.6 729.832 60.6C730.552 60.6 731.056 60.972 731.26 61.584L732.184 61.128C731.824 60.24 731.056 59.64 729.832 59.64C728.056 59.64 727.036 60.9 727.036 62.892C727.036 64.884 728.056 66.144 729.832 66.144ZM733.539 66H734.655V63.852L735.543 62.904L737.487 66H738.831L736.335 62.184L738.543 59.784H737.223L735.603 61.56L734.715 62.652H734.655V57.12H733.539V66ZM745.097 66V65.052H744.401V61.776C744.401 60.432 743.513 59.64 741.965 59.64C740.813 59.64 740.081 60.18 739.709 60.852L740.381 61.464C740.705 60.936 741.173 60.576 741.905 60.576C742.841 60.576 743.285 61.044 743.285 61.872V62.436H742.109C740.333 62.436 739.457 63.084 739.457 64.284C739.457 65.424 740.213 66.144 741.509 66.144C742.397 66.144 743.057 65.736 743.309 64.968H743.369C743.453 65.568 743.777 66 744.461 66H745.097ZM741.761 65.244C741.065 65.244 740.621 64.92 740.621 64.344V64.104C740.621 63.528 741.077 63.216 742.097 63.216H743.285V64.176C743.285 64.8 742.637 65.244 741.761 65.244ZM747.545 66V61.74C747.545 60.984 748.229 60.612 748.937 60.612C749.789 60.612 750.185 61.152 750.185 62.196V66H751.301V61.74C751.301 60.984 751.961 60.612 752.681 60.612C753.545 60.612 753.941 61.152 753.941 62.196V66H755.057V62.028C755.057 60.516 754.313 59.64 753.065 59.64C752.021 59.64 751.397 60.228 751.169 60.9H751.145C750.821 60.024 750.089 59.64 749.261 59.64C748.433 59.64 747.869 60.168 747.605 60.804H747.545V59.784H746.429V66H747.545ZM762.993 66V65.016H761.829V58.608H762.993V57.624H759.501V58.608H760.665V65.016H759.501V66H762.993ZM765.791 66V61.74C765.791 60.984 766.499 60.612 767.231 60.612C768.107 60.612 768.539 61.152 768.539 62.196V66H769.655V62.028C769.655 60.516 768.875 59.64 767.603 59.64C766.667 59.64 766.139 60.12 765.851 60.804H765.791V59.784H764.675V66H765.791ZM771.89 66H773.006V60.732H774.314V59.784H773.006V58.068H774.314V57.12H773.342C772.37 57.12 771.89 57.72 771.89 58.632V59.784H770.894V60.732H771.89V66ZM777.531 66V65.052H776.643V57.12H775.527V64.86C775.527 65.544 775.923 66 776.691 66H777.531ZM782.671 66H783.787V59.784H782.671V64.032C782.671 64.812 781.951 65.172 781.243 65.172C780.367 65.172 779.923 64.632 779.923 63.588V59.784H778.807V63.756C778.807 65.268 779.599 66.144 780.871 66.144C781.903 66.144 782.383 65.58 782.611 64.98H782.671V66ZM785.025 66H786.249L787.869 63.648H787.905L789.441 66H790.737L788.529 62.82L790.701 59.784H789.477L787.941 62.028H787.905L786.405 59.784H785.109L787.281 62.868L785.025 66ZM792.064 66H794.932C797.056 66 798.424 64.608 798.424 61.812C798.424 59.016 797.056 57.624 794.932 57.624H792.064V66ZM793.228 64.968V58.656H794.932C796.264 58.656 797.176 59.544 797.176 61.14V62.484C797.176 64.08 796.264 64.968 794.932 64.968H793.228ZM800.174 66H804.098C805.334 66 806.27 64.956 806.27 63.588C806.27 62.184 805.202 61.668 804.566 61.632V61.56C805.178 61.488 805.982 61.032 805.982 59.784C805.982 58.476 805.118 57.624 803.738 57.624H800.174V66ZM801.338 62.196H803.75C804.542 62.196 805.022 62.604 805.022 63.384V63.804C805.022 64.584 804.542 64.992 803.75 64.992H801.338V62.196ZM801.338 58.632H803.558C804.29 58.632 804.734 59.028 804.734 59.724V60.12C804.734 60.816 804.29 61.212 803.558 61.212H801.338V58.632ZM817.34 66L814.448 57.624H812.984L810.08 66H811.256L812.06 63.636H815.324L816.116 66H817.34ZM815.036 62.604H812.336L813.656 58.692H813.716L815.036 62.604ZM822.529 66H823.645V57.12H822.529V60.804H822.481C822.193 60.036 821.545 59.64 820.693 59.64C819.133 59.64 818.197 60.876 818.197 62.892C818.197 64.908 819.133 66.144 820.693 66.144C821.545 66.144 822.193 65.748 822.481 64.98H822.529V66ZM821.017 65.172C820.021 65.172 819.385 64.464 819.385 63.42V62.364C819.385 61.32 820.021 60.612 821.017 60.612C821.857 60.612 822.529 61.092 822.529 61.752V64.032C822.529 64.692 821.857 65.172 821.017 65.172ZM829.549 66H830.665V57.12H829.549V60.804H829.501C829.213 60.036 828.565 59.64 827.713 59.64C826.153 59.64 825.217 60.876 825.217 62.892C825.217 64.908 826.153 66.144 827.713 66.144C828.565 66.144 829.213 65.748 829.501 64.98H829.549V66ZM828.037 65.172C827.041 65.172 826.405 64.464 826.405 63.42V62.364C826.405 61.32 827.041 60.612 828.037 60.612C828.877 60.612 829.549 61.092 829.549 61.752V64.032C829.549 64.692 828.877 65.172 828.037 65.172ZM835.656 62.928V61.764H832.44V62.928H835.656ZM840.877 66.144C843.049 66.144 844.453 64.632 844.453 61.812C844.453 58.992 843.049 57.48 840.877 57.48C838.705 57.48 837.301 58.992 837.301 61.812C837.301 64.632 838.705 66.144 840.877 66.144ZM840.877 65.1C839.485 65.1 838.549 64.092 838.549 62.496V61.128C838.549 59.532 839.485 58.524 840.877 58.524C842.269 58.524 843.205 59.532 843.205 61.128V62.496C843.205 64.092 842.269 65.1 840.877 65.1ZM847.225 66V61.74C847.225 60.984 847.933 60.612 848.665 60.612C849.541 60.612 849.973 61.152 849.973 62.196V66H851.089V62.028C851.089 60.516 850.309 59.64 849.037 59.64C848.101 59.64 847.573 60.12 847.285 60.804H847.225V59.784H846.109V66H847.225ZM718.888 74.256C718.888 76.584 719.86 78.624 721.048 79.632H722.128C720.832 78.48 719.932 76.5 719.932 74.748V73.764C719.932 72.012 720.832 70.032 722.128 68.88H721.048C719.86 69.888 718.888 71.928 718.888 74.256ZM723.603 70.488C724.071 70.488 724.275 70.236 724.275 69.876V69.708C724.275 69.348 724.071 69.096 723.603 69.096C723.135 69.096 722.931 69.348 722.931 69.708V69.876C722.931 70.236 723.135 70.488 723.603 70.488ZM723.039 78H724.155V71.784H723.039V78ZM727.237 78V73.74C727.237 72.984 727.945 72.612 728.677 72.612C729.553 72.612 729.985 73.152 729.985 74.196V78H731.101V74.028C731.101 72.516 730.321 71.64 729.049 71.64C728.113 71.64 727.585 72.12 727.297 72.804H727.237V71.784H726.121V78H727.237ZM740.996 78V77.052H740.3V73.776C740.3 72.432 739.412 71.64 737.864 71.64C736.712 71.64 735.98 72.18 735.608 72.852L736.28 73.464C736.604 72.936 737.072 72.576 737.804 72.576C738.74 72.576 739.184 73.044 739.184 73.872V74.436H738.008C736.232 74.436 735.356 75.084 735.356 76.284C735.356 77.424 736.112 78.144 737.408 78.144C738.296 78.144 738.956 77.736 739.208 76.968H739.268C739.352 77.568 739.676 78 740.36 78H740.996ZM737.66 77.244C736.964 77.244 736.52 76.92 736.52 76.344V76.104C736.52 75.528 736.976 75.216 737.996 75.216H739.184V76.176C739.184 76.8 738.536 77.244 737.66 77.244ZM747.672 78.144C749.532 78.144 750.624 77.136 750.624 75.588C750.624 74.304 749.892 73.572 748.248 73.212L747.54 73.068C746.544 72.852 746.076 72.516 746.076 71.772C746.076 70.944 746.688 70.5 747.708 70.5C748.656 70.5 749.268 70.884 749.712 71.496L750.564 70.812C749.928 69.948 749.028 69.48 747.768 69.48C746.052 69.48 744.924 70.332 744.924 71.82C744.924 73.128 745.752 73.836 747.324 74.16L748.032 74.304C749.076 74.532 749.472 74.916 749.472 75.648C749.472 76.536 748.86 77.124 747.72 77.124C746.784 77.124 746.088 76.716 745.5 75.96L744.672 76.704C745.344 77.592 746.304 78.144 747.672 78.144ZM752.782 70.488C753.25 70.488 753.454 70.236 753.454 69.876V69.708C753.454 69.348 753.25 69.096 752.782 69.096C752.314 69.096 752.11 69.348 752.11 69.708V69.876C752.11 70.236 752.314 70.488 752.782 70.488ZM752.218 78H753.334V71.784H752.218V78ZM759.236 78H760.352V69.12H759.236V72.804H759.188C758.9 72.036 758.252 71.64 757.4 71.64C755.84 71.64 754.904 72.876 754.904 74.892C754.904 76.908 755.84 78.144 757.4 78.144C758.252 78.144 758.9 77.748 759.188 76.98H759.236V78ZM757.724 77.172C756.728 77.172 756.092 76.464 756.092 75.42V74.364C756.092 73.32 756.728 72.612 757.724 72.612C758.564 72.612 759.236 73.092 759.236 73.752V76.032C759.236 76.692 758.564 77.172 757.724 77.172ZM764.696 78.144C765.86 78.144 766.76 77.604 767.192 76.8L766.472 76.188C766.136 76.824 765.572 77.196 764.792 77.196C763.676 77.196 763.04 76.452 763.04 75.42V75.168H767.42V74.7C767.42 72.96 766.436 71.64 764.696 71.64C762.968 71.64 761.876 72.924 761.876 74.892C761.876 76.86 762.968 78.144 764.696 78.144ZM764.696 72.54C765.632 72.54 766.232 73.236 766.232 74.268V74.388H763.04V74.304C763.04 73.284 763.724 72.54 764.696 72.54ZM771.293 78.144C772.481 78.144 773.297 77.568 773.693 76.632L772.877 76.128C772.565 76.8 772.049 77.184 771.293 77.184C770.225 77.184 769.685 76.452 769.685 75.432V74.352C769.685 73.332 770.225 72.6 771.293 72.6C772.013 72.6 772.517 72.972 772.721 73.584L773.645 73.128C773.285 72.24 772.517 71.64 771.293 71.64C769.517 71.64 768.497 72.9 768.497 74.892C768.497 76.884 769.517 78.144 771.293 78.144ZM780.16 78V77.052H779.464V73.776C779.464 72.432 778.576 71.64 777.028 71.64C775.876 71.64 775.144 72.18 774.772 72.852L775.444 73.464C775.768 72.936 776.236 72.576 776.968 72.576C777.904 72.576 778.348 73.044 778.348 73.872V74.436H777.172C775.396 74.436 774.52 75.084 774.52 76.284C774.52 77.424 775.276 78.144 776.572 78.144C777.46 78.144 778.12 77.736 778.372 76.968H778.432C778.516 77.568 778.84 78 779.524 78H780.16ZM776.824 77.244C776.128 77.244 775.684 76.92 775.684 76.344V76.104C775.684 75.528 776.14 75.216 777.16 75.216H778.348V76.176C778.348 76.8 777.7 77.244 776.824 77.244ZM782.608 78V73.92C782.608 73.308 783.208 72.9 784.24 72.9H784.792V71.784H784.42C783.424 71.784 782.872 72.36 782.668 72.972H782.608V71.784H781.492V78H782.608ZM788.176 74.256C788.176 71.928 787.204 69.888 786.016 68.88H784.936C786.232 70.032 787.132 72.012 787.132 73.764V74.748C787.132 76.5 786.232 78.48 784.936 79.632H786.016C787.204 78.624 788.176 76.584 788.176 74.256Z" fill="#7A8895"/>
<path d="M719.84 39.2H726.56V40.236H723.774V47.964H726.56V49H719.84V47.964H722.612V40.236H719.84V39.2ZM728.697 44.45C728.697 44.366 728.692 44.2587 728.683 44.128C728.683 43.988 728.678 43.848 728.669 43.708C728.659 43.5587 728.645 43.414 728.627 43.274C728.617 43.134 728.603 43.0127 728.585 42.91H727.647V42H729.523L729.649 43.134H729.719C729.812 42.9753 729.933 42.8213 730.083 42.672C730.241 42.5133 730.423 42.3733 730.629 42.252C730.834 42.1213 731.063 42.0187 731.315 41.944C731.567 41.8693 731.833 41.832 732.113 41.832C732.542 41.832 732.92 41.8787 733.247 41.972C733.583 42.0653 733.858 42.2333 734.073 42.476C734.297 42.7093 734.465 43.0313 734.577 43.442C734.689 43.8433 734.745 44.3567 734.745 44.982V49H733.653V45.192C733.653 44.4173 733.527 43.834 733.275 43.442C733.023 43.05 732.565 42.854 731.903 42.854C731.66 42.854 731.422 42.9053 731.189 43.008C730.965 43.1013 730.759 43.2273 730.573 43.386C730.386 43.5447 730.223 43.7313 730.083 43.946C729.943 44.1513 729.84 44.3707 729.775 44.604V49H728.697V44.45ZM737.021 49V48.062H738.687V42.938H737.021V42H738.687V41.608C738.687 40.7307 738.916 40.096 739.373 39.704C739.83 39.312 740.484 39.116 741.333 39.116C741.641 39.116 741.916 39.1347 742.159 39.172C742.402 39.2093 742.663 39.284 742.943 39.396L742.691 40.306C742.448 40.2033 742.215 40.138 741.991 40.11C741.767 40.0727 741.562 40.054 741.375 40.054C740.759 40.054 740.339 40.208 740.115 40.516C739.891 40.8147 739.779 41.3093 739.779 42H742.677V42.938H739.779V48.062H742.677V49H737.021ZM745.85 39.2H748.174V46.648C748.174 47.2173 748.267 47.6187 748.454 47.852C748.65 48.0853 748.934 48.202 749.308 48.202C749.569 48.202 749.816 48.1553 750.05 48.062C750.292 47.9687 750.558 47.81 750.848 47.586L751.352 48.356C751.202 48.4867 751.039 48.6033 750.862 48.706C750.684 48.8087 750.502 48.8973 750.316 48.972C750.129 49.0373 749.942 49.0887 749.756 49.126C749.569 49.1633 749.396 49.182 749.238 49.182C748.892 49.182 748.584 49.1353 748.314 49.042C748.043 48.958 747.814 48.818 747.628 48.622C747.45 48.426 747.315 48.1693 747.222 47.852C747.128 47.5253 747.082 47.124 747.082 46.648V40.138H745.85V39.2ZM757.66 42H759.648V46.774C759.648 47.2313 759.676 47.67 759.732 48.09H760.67V49H758.808L758.766 47.81H758.71C758.467 48.2113 758.145 48.538 757.744 48.79C757.343 49.042 756.857 49.168 756.288 49.168C755.859 49.168 755.49 49.1167 755.182 49.014C754.883 48.9207 754.636 48.7527 754.44 48.51C754.244 48.2673 754.099 47.9453 754.006 47.544C753.913 47.1333 753.866 46.6247 753.866 46.018V42.938H752.928V42H754.958V45.794C754.958 46.1767 754.972 46.522 755 46.83C755.037 47.1287 755.107 47.3853 755.21 47.6C755.313 47.8053 755.462 47.964 755.658 48.076C755.863 48.1787 756.134 48.23 756.47 48.23C756.955 48.23 757.375 48.0713 757.73 47.754C758.094 47.4367 758.369 47.04 758.556 46.564V42.938H757.66V42ZM764.515 45.416L761.813 42H763.213L765.229 44.632L767.301 42H768.561L765.859 45.36L768.729 49H767.385L765.159 46.13L762.891 49H761.617L764.515 45.416ZM770.487 39.2C770.842 39.1533 771.211 39.1253 771.593 39.116C771.985 39.0973 772.317 39.088 772.587 39.088C773.437 39.088 774.146 39.2093 774.715 39.452C775.294 39.6947 775.756 40.0353 776.101 40.474C776.456 40.9033 776.708 41.4213 776.857 42.028C777.016 42.6347 777.095 43.302 777.095 44.03C777.095 44.6927 777.025 45.332 776.885 45.948C776.745 46.5547 776.503 47.096 776.157 47.572C775.812 48.0387 775.345 48.4167 774.757 48.706C774.179 48.986 773.451 49.126 772.573 49.126C772.452 49.126 772.293 49.1213 772.097 49.112C771.901 49.112 771.701 49.1027 771.495 49.084C771.29 49.0747 771.094 49.0653 770.907 49.056C770.721 49.0467 770.581 49.0327 770.487 49.014V39.2ZM772.643 40.124C772.513 40.124 772.345 40.1287 772.139 40.138C771.943 40.1473 771.78 40.166 771.649 40.194V48.034C771.696 48.0433 771.761 48.0527 771.845 48.062C771.939 48.062 772.032 48.0667 772.125 48.076C772.219 48.076 772.307 48.0807 772.391 48.09C772.485 48.09 772.559 48.09 772.615 48.09C773.297 48.09 773.847 47.978 774.267 47.754C774.697 47.53 775.028 47.2313 775.261 46.858C775.495 46.4753 775.653 46.0413 775.737 45.556C775.821 45.0613 775.863 44.5527 775.863 44.03C775.863 43.5727 775.826 43.1153 775.751 42.658C775.677 42.1913 775.523 41.7713 775.289 41.398C775.065 41.0247 774.739 40.7213 774.309 40.488C773.889 40.2453 773.334 40.124 772.643 40.124ZM785.07 41.44C785.07 41.6733 785.032 41.9113 784.958 42.154C784.883 42.3967 784.771 42.6253 784.622 42.84C784.472 43.0453 784.281 43.2273 784.048 43.386C783.814 43.5447 783.539 43.666 783.222 43.75V43.806C783.502 43.8527 783.768 43.932 784.02 44.044C784.281 44.156 784.51 44.31 784.706 44.506C784.902 44.702 785.06 44.94 785.182 45.22C785.303 45.5 785.364 45.8313 785.364 46.214C785.364 46.718 785.256 47.1567 785.042 47.53C784.836 47.894 784.561 48.1927 784.216 48.426C783.88 48.6593 783.492 48.832 783.054 48.944C782.615 49.056 782.167 49.112 781.71 49.112C781.551 49.112 781.364 49.112 781.15 49.112C780.935 49.112 780.711 49.1027 780.478 49.084C780.244 49.0747 780.011 49.056 779.778 49.028C779.544 49.0093 779.339 48.9767 779.162 48.93V39.284C779.507 39.228 779.908 39.1813 780.366 39.144C780.823 39.1067 781.322 39.088 781.864 39.088C782.228 39.088 782.596 39.1207 782.97 39.186C783.352 39.242 783.698 39.3587 784.006 39.536C784.314 39.704 784.566 39.942 784.762 40.25C784.967 40.558 785.07 40.9547 785.07 41.44ZM781.822 48.104C782.12 48.104 782.41 48.0667 782.69 47.992C782.97 47.9173 783.217 47.8053 783.432 47.656C783.646 47.5067 783.814 47.32 783.936 47.096C784.066 46.872 784.132 46.606 784.132 46.298C784.132 45.9153 784.052 45.6073 783.894 45.374C783.744 45.1407 783.544 44.9587 783.292 44.828C783.049 44.6973 782.774 44.6087 782.466 44.562C782.158 44.5153 781.85 44.492 781.542 44.492H780.324V48.006C780.389 48.0247 780.482 48.0387 780.604 48.048C780.725 48.0573 780.856 48.0667 780.996 48.076C781.136 48.0853 781.28 48.0947 781.43 48.104C781.579 48.104 781.71 48.104 781.822 48.104ZM781.052 43.512C781.21 43.512 781.402 43.5073 781.626 43.498C781.85 43.4887 782.036 43.4747 782.186 43.456C782.41 43.3813 782.62 43.2927 782.816 43.19C783.012 43.078 783.184 42.9473 783.334 42.798C783.492 42.6487 783.614 42.4807 783.698 42.294C783.791 42.1073 783.838 41.902 783.838 41.678C783.838 41.37 783.777 41.1133 783.656 40.908C783.544 40.7027 783.39 40.5393 783.194 40.418C782.998 40.2967 782.774 40.2127 782.522 40.166C782.27 40.1193 782.013 40.096 781.752 40.096C781.444 40.096 781.159 40.1053 780.898 40.124C780.646 40.1333 780.454 40.152 780.324 40.18V43.512H781.052Z" fill="#242A31"/>
<g clip-path="url(#clip1)">
<path d="M701.53 57.6746C700.608 53.8362 699.684 49.9981 698.76 46.1602C698.535 45.2325 697.934 44.6147 696.969 44.3308C692.464 43.0047 687.961 41.6771 683.458 40.348C683.182 40.2665 682.908 40.1787 682.63 40.1056C681.711 39.8643 680.864 40.0339 680.166 40.6363C678.67 41.927 677.207 43.2524 675.732 44.5634C673.757 46.319 671.782 48.0751 669.808 49.8317C669.126 50.4416 668.862 51.2008 669.069 52.0708C670.187 56.7669 671.314 61.4614 672.449 66.1542C672.666 67.0544 673.248 67.662 674.185 67.9395C678.693 69.2694 683.202 70.5989 687.713 71.928C687.788 71.9499 687.861 71.977 687.935 72.0034H688.645C688.657 71.9945 688.671 71.9881 688.686 71.9846C688.701 71.9811 688.716 71.9806 688.731 71.9831C688.842 71.9574 688.954 71.9329 689.064 71.9016C689.5 71.7782 689.899 71.5587 690.231 71.2608C693.813 68.0796 697.398 64.9024 700.987 61.7292C701.513 61.2659 701.863 60.7374 701.962 60.0604C701.971 60.024 701.984 59.9886 702.001 59.9548V59.6156C701.844 58.969 701.687 58.322 701.53 57.6746ZM683.866 43.2068C683.964 43.2118 684.061 43.2291 684.154 43.2584C687.435 44.2249 690.715 45.1933 693.995 46.1636C694.12 46.2013 694.315 46.2134 694.314 46.366C694.314 46.5357 694.114 46.5383 693.981 46.5677C692.253 46.9482 690.526 47.3257 688.798 47.7004C688.721 47.7142 688.644 47.7235 688.566 47.7283C688.132 47.7144 687.79 47.587 687.522 47.311C686.293 46.0475 685.066 44.7823 683.84 43.5155C683.804 43.4794 683.772 43.4393 683.745 43.396C683.674 43.2724 683.717 43.2019 683.866 43.2068ZM688.316 52.2292C688.958 54.8995 689.601 57.5706 690.244 60.2424C690.267 60.3401 690.285 60.4388 690.297 60.4943C690.299 60.7468 690.188 60.8674 689.973 60.8919C689.854 60.9004 689.735 60.8847 689.624 60.846L679.031 57.7169C679.007 57.7093 678.981 57.7018 678.957 57.6935C678.504 57.5404 678.444 57.2596 678.805 56.9377C679.702 56.137 680.601 55.3376 681.5 54.5395C682.961 53.2418 684.424 51.9439 685.887 50.646L686.983 49.6727C687.324 49.3711 687.636 49.4491 687.747 49.8834C687.945 50.6633 688.127 51.4466 688.316 52.2292ZM672.508 50.9939C673.187 50.3832 673.868 49.7753 674.552 49.1702C675.952 47.9272 677.352 46.6849 678.752 45.4432C679.55 44.7346 680.348 44.0259 681.145 43.3172C681.575 42.9354 681.992 42.9452 682.396 43.3617C683.383 44.378 684.367 45.3967 685.348 46.418C685.775 46.8611 686.203 47.3035 686.631 47.7453C686.777 47.8961 686.892 48.0612 686.878 48.2621C686.881 48.538 686.749 48.7329 686.559 48.9029C685.592 49.7604 684.625 50.6184 683.658 51.4771L679.501 55.1637C678.981 55.6249 678.461 56.0857 677.941 56.546C677.547 56.8974 677.121 56.8853 676.749 56.5065C676.265 56.0111 675.786 55.5117 675.306 55.0137L672.568 52.1756C672.461 52.0652 672.353 51.9559 672.292 51.813C672.17 51.5292 672.24 51.2351 672.508 50.9939ZM674.881 63.5909C674.815 63.6927 674.728 63.6908 674.675 63.5792C674.635 63.4866 674.605 63.3904 674.585 63.292C673.834 60.1382 673.083 56.9839 672.331 53.8293C672.312 53.7498 672.292 53.671 672.274 53.5911C672.256 53.5044 672.23 53.4026 672.329 53.3536C672.428 53.3046 672.498 53.3875 672.566 53.4452C672.6 53.4746 672.631 53.5074 672.662 53.5395C673.863 54.7759 675.063 56.0121 676.264 57.2483C676.517 57.5076 676.599 57.8232 676.608 58.1643C676.604 58.3087 676.58 58.4519 676.536 58.5903C676.022 60.1705 675.508 61.7515 674.994 63.3335C674.967 63.4233 674.929 63.5098 674.881 63.5909V63.5909ZM688.437 68.4687C688.407 68.5783 688.36 68.6829 688.297 68.7789C688.146 68.9893 687.94 69.1058 687.669 69.1058C687.544 69.1022 687.42 69.08 687.303 69.0398C683.557 67.9419 679.812 66.8439 676.066 65.746C675.55 65.5952 675.348 65.2375 675.508 64.7418C676.128 62.8251 676.752 60.9093 677.379 58.9944C677.535 58.5213 677.922 58.3298 678.428 58.4776C680.38 59.046 682.332 59.6167 684.283 60.1897L689.402 61.69C689.515 61.7227 689.628 61.7555 689.74 61.7914C690.24 61.9516 690.439 62.3089 690.284 62.7933C690.004 63.6686 689.716 64.5416 689.431 65.4158L688.437 68.4687ZM697.532 61.1784C695.024 63.409 692.513 65.6379 690.001 67.8652C689.949 67.9124 689.894 67.9569 689.836 67.9987C689.782 68.0363 689.72 68.0654 689.655 68.0243C689.598 67.9889 689.597 67.93 689.599 67.8392C689.617 67.7732 689.638 67.6752 689.669 67.5795C690.173 66.0214 690.677 64.4633 691.182 62.9053C691.353 62.3719 691.707 62.0447 692.283 61.921C693.968 61.5599 695.65 61.1875 697.334 60.8233C697.473 60.7932 697.665 60.7001 697.747 60.8546C697.82 60.9964 697.633 61.0887 697.532 61.1784V61.1784ZM699.006 58.9887C699.006 59.3532 698.792 59.5854 698.361 59.6812C697.44 59.885 696.52 60.087 695.599 60.2873L692.221 61.0265C691.677 61.1456 691.325 60.9413 691.2 60.4211C690.316 56.7493 689.433 53.0772 688.552 49.4046C688.443 48.9523 688.662 48.5991 689.134 48.4947C691.218 48.0335 693.303 47.5768 695.389 47.1245C695.859 47.0219 696.208 47.2534 696.324 47.731C696.547 48.6465 696.767 49.5626 696.987 50.4793C697.64 53.1987 698.293 55.9178 698.946 58.6366C698.974 58.7527 699.011 58.8673 699.006 58.9887V58.9887Z" fill="#52C7EA"/>
</g>
<path d="M274 56L645 56" stroke="white" stroke-width="1.5"/>
<path d="M61.13 175.168C60.3087 175.168 59.6087 175.019 59.03 174.72C58.4607 174.421 57.9707 174.02 57.56 173.516L58.652 172.494C58.9973 172.914 59.3753 173.231 59.786 173.446C60.206 173.661 60.682 173.768 61.214 173.768C61.8393 173.768 62.3107 173.628 62.628 173.348C62.9453 173.068 63.104 172.69 63.104 172.214C63.104 171.831 62.992 171.528 62.768 171.304C62.544 171.08 62.1473 170.912 61.578 170.8L60.71 170.646C59.758 170.469 59.044 170.156 58.568 169.708C58.092 169.26 57.854 168.644 57.854 167.86C57.854 167.431 57.9333 167.043 58.092 166.698C58.26 166.343 58.4887 166.049 58.778 165.816C59.0767 165.573 59.436 165.387 59.856 165.256C60.276 165.125 60.7473 165.06 61.27 165.06C62.0073 165.06 62.6467 165.191 63.188 165.452C63.7293 165.704 64.1913 166.073 64.574 166.558L63.468 167.538C63.216 167.211 62.908 166.95 62.544 166.754C62.18 166.558 61.7273 166.46 61.186 166.46C60.626 166.46 60.192 166.572 59.884 166.796C59.576 167.02 59.422 167.347 59.422 167.776C59.422 168.187 59.548 168.495 59.8 168.7C60.052 168.896 60.444 169.045 60.976 169.148L61.844 169.33C62.824 169.517 63.538 169.834 63.986 170.282C64.4433 170.73 64.672 171.346 64.672 172.13C64.672 172.587 64.5927 173.003 64.434 173.376C64.2753 173.749 64.042 174.071 63.734 174.342C63.4353 174.603 63.0667 174.809 62.628 174.958C62.1893 175.098 61.69 175.168 61.13 175.168ZM69.3152 175.168C68.7925 175.168 68.3259 175.079 67.9152 174.902C67.5045 174.725 67.1545 174.473 66.8652 174.146C66.5759 173.81 66.3519 173.409 66.1932 172.942C66.0439 172.466 65.9692 171.939 65.9692 171.36C65.9692 170.781 66.0439 170.259 66.1932 169.792C66.3519 169.316 66.5759 168.915 66.8652 168.588C67.1545 168.252 67.5045 167.995 67.9152 167.818C68.3259 167.641 68.7925 167.552 69.3152 167.552C69.8472 167.552 70.3139 167.645 70.7152 167.832C71.1259 168.019 71.4665 168.28 71.7372 168.616C72.0079 168.943 72.2085 169.325 72.3392 169.764C72.4792 170.203 72.5492 170.674 72.5492 171.178V171.752H67.5512V171.99C67.5512 172.55 67.7145 173.012 68.0412 173.376C68.3772 173.731 68.8532 173.908 69.4692 173.908C69.9172 173.908 70.2952 173.81 70.6032 173.614C70.9112 173.418 71.1725 173.152 71.3872 172.816L72.2832 173.698C72.0125 174.146 71.6205 174.505 71.1072 174.776C70.5939 175.037 69.9965 175.168 69.3152 175.168ZM69.3152 168.742C69.0539 168.742 68.8112 168.789 68.5872 168.882C68.3725 168.975 68.1859 169.106 68.0272 169.274C67.8779 169.442 67.7612 169.643 67.6772 169.876C67.5932 170.109 67.5512 170.366 67.5512 170.646V170.744H70.9392V170.604C70.9392 170.044 70.7945 169.596 70.5052 169.26C70.2159 168.915 69.8192 168.742 69.3152 168.742ZM77.0525 175.168C76.5298 175.168 76.0632 175.079 75.6525 174.902C75.2418 174.725 74.8965 174.473 74.6165 174.146C74.3365 173.81 74.1218 173.409 73.9725 172.942C73.8232 172.466 73.7485 171.939 73.7485 171.36C73.7485 170.781 73.8232 170.259 73.9725 169.792C74.1218 169.316 74.3365 168.915 74.6165 168.588C74.8965 168.252 75.2418 167.995 75.6525 167.818C76.0632 167.641 76.5298 167.552 77.0525 167.552C77.7805 167.552 78.3778 167.715 78.8445 168.042C79.3112 168.369 79.6518 168.803 79.8665 169.344L78.6065 169.932C78.5038 169.596 78.3218 169.33 78.0605 169.134C77.8085 168.929 77.4725 168.826 77.0525 168.826C76.4925 168.826 76.0678 169.003 75.7785 169.358C75.4985 169.703 75.3585 170.156 75.3585 170.716V172.018C75.3585 172.578 75.4985 173.035 75.7785 173.39C76.0678 173.735 76.4925 173.908 77.0525 173.908C77.5005 173.908 77.8552 173.801 78.1165 173.586C78.3872 173.362 78.6018 173.068 78.7605 172.704L79.9225 173.32C79.6798 173.917 79.3158 174.375 78.8305 174.692C78.3452 175.009 77.7525 175.168 77.0525 175.168ZM85.7852 173.796H85.7292C85.6639 173.973 85.5752 174.146 85.4632 174.314C85.3605 174.482 85.2252 174.631 85.0572 174.762C84.8985 174.883 84.7025 174.981 84.4692 175.056C84.2452 175.131 83.9839 175.168 83.6852 175.168C82.9292 175.168 82.3412 174.925 81.9212 174.44C81.5105 173.955 81.3052 173.259 81.3052 172.354V167.72H82.8312V172.158C82.8312 173.287 83.2979 173.852 84.2312 173.852C84.4272 173.852 84.6185 173.829 84.8052 173.782C84.9919 173.726 85.1552 173.647 85.2952 173.544C85.4445 173.441 85.5612 173.311 85.6452 173.152C85.7385 172.993 85.7852 172.807 85.7852 172.592V167.72H87.3112V175H85.7852V173.796ZM89.4963 175V167.72H91.0223V169.12H91.0923C91.195 168.747 91.4096 168.42 91.7363 168.14C92.063 167.86 92.5156 167.72 93.0943 167.72H93.5003V169.19H92.8983C92.2916 169.19 91.825 169.288 91.4983 169.484C91.181 169.68 91.0223 169.969 91.0223 170.352V175H89.4963ZM97.6433 175.168C97.1206 175.168 96.654 175.079 96.2433 174.902C95.8326 174.725 95.4826 174.473 95.1933 174.146C94.904 173.81 94.68 173.409 94.5213 172.942C94.372 172.466 94.2973 171.939 94.2973 171.36C94.2973 170.781 94.372 170.259 94.5213 169.792C94.68 169.316 94.904 168.915 95.1933 168.588C95.4826 168.252 95.8326 167.995 96.2433 167.818C96.654 167.641 97.1206 167.552 97.6433 167.552C98.1753 167.552 98.642 167.645 99.0433 167.832C99.454 168.019 99.7946 168.28 100.065 168.616C100.336 168.943 100.537 169.325 100.667 169.764C100.807 170.203 100.877 170.674 100.877 171.178V171.752H95.8793V171.99C95.8793 172.55 96.0426 173.012 96.3693 173.376C96.7053 173.731 97.1813 173.908 97.7973 173.908C98.2453 173.908 98.6233 173.81 98.9313 173.614C99.2393 173.418 99.5006 173.152 99.7153 172.816L100.611 173.698C100.341 174.146 99.9486 174.505 99.4353 174.776C98.922 175.037 98.3246 175.168 97.6433 175.168ZM97.6433 168.742C97.382 168.742 97.1393 168.789 96.9153 168.882C96.7006 168.975 96.514 169.106 96.3553 169.274C96.206 169.442 96.0893 169.643 96.0053 169.876C95.9213 170.109 95.8793 170.366 95.8793 170.646V170.744H99.2673V170.604C99.2673 170.044 99.1226 169.596 98.8333 169.26C98.544 168.915 98.1473 168.742 97.6433 168.742ZM108.689 175.168C108.167 175.168 107.7 175.079 107.289 174.902C106.879 174.725 106.533 174.473 106.253 174.146C105.973 173.81 105.759 173.409 105.609 172.942C105.46 172.466 105.385 171.939 105.385 171.36C105.385 170.781 105.46 170.259 105.609 169.792C105.759 169.316 105.973 168.915 106.253 168.588C106.533 168.252 106.879 167.995 107.289 167.818C107.7 167.641 108.167 167.552 108.689 167.552C109.417 167.552 110.015 167.715 110.481 168.042C110.948 168.369 111.289 168.803 111.503 169.344L110.243 169.932C110.141 169.596 109.959 169.33 109.697 169.134C109.445 168.929 109.109 168.826 108.689 168.826C108.129 168.826 107.705 169.003 107.415 169.358C107.135 169.703 106.995 170.156 106.995 170.716V172.018C106.995 172.578 107.135 173.035 107.415 173.39C107.705 173.735 108.129 173.908 108.689 173.908C109.137 173.908 109.492 173.801 109.753 173.586C110.024 173.362 110.239 173.068 110.397 172.704L111.559 173.32C111.317 173.917 110.953 174.375 110.467 174.692C109.982 175.009 109.389 175.168 108.689 175.168ZM113.012 164.64H114.538V168.924H114.608C114.767 168.532 115.005 168.205 115.322 167.944C115.649 167.683 116.092 167.552 116.652 167.552C117.399 167.552 117.977 167.799 118.388 168.294C118.808 168.779 119.018 169.475 119.018 170.38V175H117.492V170.562C117.492 169.433 117.035 168.868 116.12 168.868C115.924 168.868 115.728 168.896 115.532 168.952C115.345 168.999 115.177 169.073 115.028 169.176C114.879 169.279 114.757 169.409 114.664 169.568C114.58 169.727 114.538 169.909 114.538 170.114V175H113.012V164.64ZM126.467 175C126.066 175 125.758 174.888 125.543 174.664C125.328 174.431 125.198 174.137 125.151 173.782H125.081C124.941 174.239 124.684 174.585 124.311 174.818C123.938 175.051 123.485 175.168 122.953 175.168C122.197 175.168 121.614 174.972 121.203 174.58C120.802 174.188 120.601 173.661 120.601 172.998C120.601 172.27 120.862 171.724 121.385 171.36C121.917 170.996 122.692 170.814 123.709 170.814H125.025V170.198C125.025 169.75 124.904 169.405 124.661 169.162C124.418 168.919 124.04 168.798 123.527 168.798C123.098 168.798 122.748 168.891 122.477 169.078C122.206 169.265 121.978 169.503 121.791 169.792L120.881 168.966C121.124 168.555 121.464 168.219 121.903 167.958C122.342 167.687 122.916 167.552 123.625 167.552C124.568 167.552 125.291 167.771 125.795 168.21C126.299 168.649 126.551 169.279 126.551 170.1V173.754H127.321V175H126.467ZM123.387 174.006C123.863 174.006 124.255 173.903 124.563 173.698C124.871 173.483 125.025 173.199 125.025 172.844V171.794H123.737C122.682 171.794 122.155 172.121 122.155 172.774V173.026C122.155 173.353 122.262 173.6 122.477 173.768C122.701 173.927 123.004 174.006 123.387 174.006ZM128.817 175V167.72H130.343V168.924H130.413C130.571 168.532 130.809 168.205 131.127 167.944C131.453 167.683 131.897 167.552 132.457 167.552C133.203 167.552 133.782 167.799 134.193 168.294C134.613 168.779 134.823 169.475 134.823 170.38V175H133.297V170.576C133.297 169.437 132.839 168.868 131.925 168.868C131.729 168.868 131.533 168.896 131.337 168.952C131.15 168.999 130.982 169.073 130.833 169.176C130.683 169.279 130.562 169.409 130.469 169.568C130.385 169.727 130.343 169.913 130.343 170.128V175H128.817ZM136.938 175V167.72H138.464V168.924H138.534C138.692 168.532 138.93 168.205 139.248 167.944C139.574 167.683 140.018 167.552 140.578 167.552C141.324 167.552 141.903 167.799 142.314 168.294C142.734 168.779 142.944 169.475 142.944 170.38V175H141.418V170.576C141.418 169.437 140.96 168.868 140.046 168.868C139.85 168.868 139.654 168.896 139.458 168.952C139.271 168.999 139.103 169.073 138.954 169.176C138.804 169.279 138.683 169.409 138.59 169.568C138.506 169.727 138.464 169.913 138.464 170.128V175H136.938ZM147.915 175.168C147.392 175.168 146.925 175.079 146.515 174.902C146.104 174.725 145.754 174.473 145.465 174.146C145.175 173.81 144.951 173.409 144.793 172.942C144.643 172.466 144.569 171.939 144.569 171.36C144.569 170.781 144.643 170.259 144.793 169.792C144.951 169.316 145.175 168.915 145.465 168.588C145.754 168.252 146.104 167.995 146.515 167.818C146.925 167.641 147.392 167.552 147.915 167.552C148.447 167.552 148.913 167.645 149.315 167.832C149.725 168.019 150.066 168.28 150.337 168.616C150.607 168.943 150.808 169.325 150.939 169.764C151.079 170.203 151.149 170.674 151.149 171.178V171.752H146.151V171.99C146.151 172.55 146.314 173.012 146.641 173.376C146.977 173.731 147.453 173.908 148.069 173.908C148.517 173.908 148.895 173.81 149.203 173.614C149.511 173.418 149.772 173.152 149.987 172.816L150.883 173.698C150.612 174.146 150.22 174.505 149.707 174.776C149.193 175.037 148.596 175.168 147.915 175.168ZM147.915 168.742C147.653 168.742 147.411 168.789 147.187 168.882C146.972 168.975 146.785 169.106 146.627 169.274C146.477 169.442 146.361 169.643 146.277 169.876C146.193 170.109 146.151 170.366 146.151 170.646V170.744H149.539V170.604C149.539 170.044 149.394 169.596 149.105 169.26C148.815 168.915 148.419 168.742 147.915 168.742ZM154.392 175C153.869 175 153.477 174.869 153.216 174.608C152.964 174.337 152.838 173.964 152.838 173.488V164.64H154.364V173.754H155.372V175H154.392Z" fill="#30CEFE"/>
<path d="M58.116 183.624H60.924C61.444 183.624 61.916 183.712 62.34 183.888C62.764 184.064 63.124 184.328 63.42 184.68C63.724 185.024 63.956 185.46 64.116 185.988C64.276 186.508 64.356 187.116 64.356 187.812C64.356 188.508 64.276 189.12 64.116 189.648C63.956 190.168 63.724 190.604 63.42 190.956C63.124 191.3 62.764 191.56 62.34 191.736C61.916 191.912 61.444 192 60.924 192H58.116V183.624ZM60.924 191.112C61.268 191.112 61.584 191.056 61.872 190.944C62.16 190.824 62.408 190.652 62.616 190.428C62.824 190.204 62.984 189.932 63.096 189.612C63.216 189.284 63.276 188.912 63.276 188.496V187.128C63.276 186.712 63.216 186.344 63.096 186.024C62.984 185.696 62.824 185.42 62.616 185.196C62.408 184.972 62.16 184.804 61.872 184.692C61.584 184.572 61.268 184.512 60.924 184.512H59.124V191.112H60.924ZM70.5708 192C70.2108 192 69.9508 191.904 69.7908 191.712C69.6388 191.52 69.5428 191.28 69.5028 190.992H69.4428C69.3068 191.376 69.0828 191.664 68.7708 191.856C68.4588 192.048 68.0868 192.144 67.6548 192.144C66.9988 192.144 66.4868 191.976 66.1188 191.64C65.7588 191.304 65.5788 190.848 65.5788 190.272C65.5788 189.688 65.7908 189.24 66.2148 188.928C66.6468 188.616 67.3148 188.46 68.2188 188.46H69.4428V187.848C69.4428 187.408 69.3228 187.072 69.0828 186.84C68.8428 186.608 68.4748 186.492 67.9788 186.492C67.6028 186.492 67.2868 186.576 67.0308 186.744C66.7828 186.912 66.5748 187.136 66.4068 187.416L65.8308 186.876C65.9988 186.54 66.2668 186.256 66.6348 186.024C67.0028 185.784 67.4668 185.664 68.0268 185.664C68.7788 185.664 69.3628 185.848 69.7788 186.216C70.1948 186.584 70.4028 187.096 70.4028 187.752V191.16H71.1108V192H70.5708ZM67.8108 191.328C68.0508 191.328 68.2708 191.3 68.4708 191.244C68.6708 191.188 68.8428 191.108 68.9868 191.004C69.1308 190.9 69.2428 190.78 69.3228 190.644C69.4028 190.508 69.4428 190.36 69.4428 190.2V189.18H68.1708C67.6188 189.18 67.2148 189.26 66.9588 189.42C66.7108 189.58 66.5868 189.812 66.5868 190.116V190.368C66.5868 190.672 66.6948 190.908 66.9108 191.076C67.1348 191.244 67.4348 191.328 67.8108 191.328ZM73.8489 192C73.5129 192 73.2569 191.908 73.0809 191.724C72.9129 191.532 72.8289 191.284 72.8289 190.98V186.648H71.8089V185.808H72.3849C72.5929 185.808 72.7329 185.768 72.8049 185.688C72.8849 185.6 72.9249 185.452 72.9249 185.244V184.092H73.7889V185.808H75.1449V186.648H73.7889V191.16H75.0489V192H73.8489ZM81.188 192C80.828 192 80.568 191.904 80.408 191.712C80.256 191.52 80.16 191.28 80.12 190.992H80.06C79.924 191.376 79.7 191.664 79.388 191.856C79.076 192.048 78.704 192.144 78.272 192.144C77.616 192.144 77.104 191.976 76.736 191.64C76.376 191.304 76.196 190.848 76.196 190.272C76.196 189.688 76.408 189.24 76.832 188.928C77.264 188.616 77.932 188.46 78.836 188.46H80.06V187.848C80.06 187.408 79.94 187.072 79.7 186.84C79.46 186.608 79.092 186.492 78.596 186.492C78.22 186.492 77.904 186.576 77.648 186.744C77.4 186.912 77.192 187.136 77.024 187.416L76.448 186.876C76.616 186.54 76.884 186.256 77.252 186.024C77.62 185.784 78.084 185.664 78.644 185.664C79.396 185.664 79.98 185.848 80.396 186.216C80.812 186.584 81.02 187.096 81.02 187.752V191.16H81.728V192H81.188ZM78.428 191.328C78.668 191.328 78.888 191.3 79.088 191.244C79.288 191.188 79.46 191.108 79.604 191.004C79.748 190.9 79.86 190.78 79.94 190.644C80.02 190.508 80.06 190.36 80.06 190.2V189.18H78.788C78.236 189.18 77.832 189.26 77.576 189.42C77.328 189.58 77.204 189.812 77.204 190.116V190.368C77.204 190.672 77.312 190.908 77.528 191.076C77.752 191.244 78.052 191.328 78.428 191.328ZM87.7941 192.144C87.2181 192.144 86.7341 192.036 86.3421 191.82C85.9581 191.596 85.6261 191.3 85.3461 190.932L86.0301 190.38C86.2701 190.684 86.5381 190.92 86.8341 191.088C87.1301 191.248 87.4741 191.328 87.8661 191.328C88.2741 191.328 88.5901 191.24 88.8141 191.064C89.0461 190.888 89.1621 190.64 89.1621 190.32C89.1621 190.08 89.0821 189.876 88.9221 189.708C88.7701 189.532 88.4901 189.412 88.0821 189.348L87.5901 189.276C87.3021 189.236 87.0381 189.176 86.7981 189.096C86.5581 189.008 86.3461 188.896 86.1621 188.76C85.9861 188.616 85.8461 188.44 85.7421 188.232C85.6461 188.024 85.5981 187.776 85.5981 187.488C85.5981 187.184 85.6541 186.92 85.7661 186.696C85.8781 186.464 86.0301 186.272 86.2221 186.12C86.4221 185.968 86.6581 185.856 86.9301 185.784C87.2021 185.704 87.4941 185.664 87.8061 185.664C88.3101 185.664 88.7301 185.752 89.0661 185.928C89.4101 186.104 89.7101 186.348 89.9661 186.66L89.3301 187.236C89.1941 187.044 88.9941 186.872 88.7301 186.72C88.4661 186.56 88.1341 186.48 87.7341 186.48C87.3341 186.48 87.0301 186.568 86.8221 186.744C86.6221 186.912 86.5221 187.144 86.5221 187.44C86.5221 187.744 86.6221 187.964 86.8221 188.1C87.0301 188.236 87.3261 188.336 87.7101 188.4L88.1901 188.472C88.8781 188.576 89.3661 188.776 89.6541 189.072C89.9421 189.36 90.0861 189.74 90.0861 190.212C90.0861 190.812 89.8821 191.284 89.4741 191.628C89.0661 191.972 88.5061 192.144 87.7941 192.144ZM93.0677 192C92.7317 192 92.4757 191.908 92.2997 191.724C92.1317 191.532 92.0477 191.284 92.0477 190.98V186.648H91.0277V185.808H91.6037C91.8117 185.808 91.9517 185.768 92.0237 185.688C92.1037 185.6 92.1437 185.452 92.1437 185.244V184.092H93.0077V185.808H94.3637V186.648H93.0077V191.16H94.2677V192H93.0677ZM95.9067 192V185.808H96.8667V186.948H96.9267C97.0387 186.652 97.2387 186.388 97.5267 186.156C97.8147 185.924 98.2107 185.808 98.7147 185.808H99.0867V186.768H98.5227C98.0027 186.768 97.5947 186.868 97.2987 187.068C97.0107 187.26 96.8667 187.504 96.8667 187.8V192H95.9067ZM102.582 192.144C102.158 192.144 101.774 192.068 101.43 191.916C101.094 191.764 100.802 191.548 100.554 191.268C100.314 190.98 100.126 190.64 99.9904 190.248C99.8624 189.848 99.7984 189.4 99.7984 188.904C99.7984 188.416 99.8624 187.972 99.9904 187.572C100.126 187.172 100.314 186.832 100.554 186.552C100.802 186.264 101.094 186.044 101.43 185.892C101.774 185.74 102.158 185.664 102.582 185.664C102.998 185.664 103.37 185.74 103.698 185.892C104.026 186.044 104.306 186.256 104.538 186.528C104.77 186.792 104.946 187.108 105.066 187.476C105.194 187.844 105.258 188.248 105.258 188.688V189.144H100.806V189.432C100.806 189.696 100.846 189.944 100.926 190.176C101.014 190.4 101.134 190.596 101.286 190.764C101.446 190.932 101.638 191.064 101.862 191.16C102.094 191.256 102.354 191.304 102.642 191.304C103.034 191.304 103.374 191.212 103.662 191.028C103.958 190.844 104.186 190.58 104.346 190.236L105.03 190.728C104.83 191.152 104.518 191.496 104.094 191.76C103.67 192.016 103.166 192.144 102.582 192.144ZM102.582 186.468C102.318 186.468 102.078 186.516 101.862 186.612C101.646 186.7 101.458 186.828 101.298 186.996C101.146 187.164 101.026 187.364 100.938 187.596C100.85 187.82 100.806 188.068 100.806 188.34V188.424H104.226V188.292C104.226 187.74 104.074 187.3 103.77 186.972C103.474 186.636 103.078 186.468 102.582 186.468ZM111.34 192C110.98 192 110.72 191.904 110.56 191.712C110.408 191.52 110.312 191.28 110.272 190.992H110.212C110.076 191.376 109.852 191.664 109.54 191.856C109.228 192.048 108.856 192.144 108.424 192.144C107.768 192.144 107.256 191.976 106.888 191.64C106.528 191.304 106.348 190.848 106.348 190.272C106.348 189.688 106.56 189.24 106.984 188.928C107.416 188.616 108.084 188.46 108.988 188.46H110.212V187.848C110.212 187.408 110.092 187.072 109.852 186.84C109.612 186.608 109.244 186.492 108.748 186.492C108.372 186.492 108.056 186.576 107.8 186.744C107.552 186.912 107.344 187.136 107.176 187.416L106.6 186.876C106.768 186.54 107.036 186.256 107.404 186.024C107.772 185.784 108.236 185.664 108.796 185.664C109.548 185.664 110.132 185.848 110.548 186.216C110.964 186.584 111.172 187.096 111.172 187.752V191.16H111.88V192H111.34ZM108.58 191.328C108.82 191.328 109.04 191.3 109.24 191.244C109.44 191.188 109.612 191.108 109.756 191.004C109.9 190.9 110.012 190.78 110.092 190.644C110.172 190.508 110.212 190.36 110.212 190.2V189.18H108.94C108.388 189.18 107.984 189.26 107.728 189.42C107.48 189.58 107.356 189.812 107.356 190.116V190.368C107.356 190.672 107.464 190.908 107.68 191.076C107.904 191.244 108.204 191.328 108.58 191.328ZM113.25 192V185.808H114.21V186.816H114.258C114.33 186.656 114.41 186.508 114.498 186.372C114.594 186.228 114.706 186.104 114.834 186C114.97 185.896 115.126 185.816 115.302 185.76C115.478 185.696 115.686 185.664 115.926 185.664C116.334 185.664 116.71 185.764 117.054 185.964C117.398 186.156 117.654 186.476 117.822 186.924H117.846C117.958 186.588 118.166 186.296 118.47 186.048C118.782 185.792 119.202 185.664 119.73 185.664C120.362 185.664 120.854 185.872 121.206 186.288C121.566 186.696 121.746 187.276 121.746 188.028V192H120.786V188.196C120.786 187.644 120.678 187.228 120.462 186.948C120.246 186.668 119.902 186.528 119.43 186.528C119.238 186.528 119.054 186.552 118.878 186.6C118.71 186.648 118.558 186.72 118.422 186.816C118.286 186.912 118.178 187.036 118.098 187.188C118.018 187.332 117.978 187.504 117.978 187.704V192H117.018V188.196C117.018 187.644 116.91 187.228 116.694 186.948C116.478 186.668 116.142 186.528 115.686 186.528C115.494 186.528 115.31 186.552 115.134 186.6C114.958 186.648 114.802 186.72 114.666 186.816C114.53 186.912 114.418 187.036 114.33 187.188C114.25 187.332 114.21 187.504 114.21 187.704V192H113.25ZM127.931 192C127.595 192 127.339 191.908 127.163 191.724C126.995 191.532 126.911 191.284 126.911 190.98V186.648H125.891V185.808H126.467C126.675 185.808 126.815 185.768 126.887 185.688C126.967 185.6 127.007 185.452 127.007 185.244V184.092H127.871V185.808H129.227V186.648H127.871V191.16H129.131V192H127.931ZM130.77 183.12H131.73V186.816H131.778C131.93 186.464 132.142 186.184 132.414 185.976C132.694 185.768 133.066 185.664 133.53 185.664C134.17 185.664 134.674 185.872 135.042 186.288C135.418 186.696 135.606 187.276 135.606 188.028V192H134.646V188.196C134.646 187.084 134.178 186.528 133.242 186.528C133.05 186.528 132.862 186.552 132.678 186.6C132.502 186.648 132.342 186.72 132.198 186.816C132.054 186.912 131.938 187.036 131.85 187.188C131.77 187.332 131.73 187.504 131.73 187.704V192H130.77V183.12ZM137.59 192V185.808H138.55V186.948H138.61C138.722 186.652 138.922 186.388 139.21 186.156C139.498 185.924 139.894 185.808 140.398 185.808H140.77V186.768H140.206C139.686 186.768 139.278 186.868 138.982 187.068C138.694 187.26 138.55 187.504 138.55 187.8V192H137.59ZM144.278 192.144C143.862 192.144 143.482 192.068 143.138 191.916C142.794 191.764 142.498 191.548 142.25 191.268C142.01 190.98 141.822 190.64 141.686 190.248C141.55 189.848 141.482 189.4 141.482 188.904C141.482 188.416 141.55 187.972 141.686 187.572C141.822 187.172 142.01 186.832 142.25 186.552C142.498 186.264 142.794 186.044 143.138 185.892C143.482 185.74 143.862 185.664 144.278 185.664C144.694 185.664 145.07 185.74 145.406 185.892C145.75 186.044 146.046 186.264 146.294 186.552C146.542 186.832 146.734 187.172 146.87 187.572C147.006 187.972 147.074 188.416 147.074 188.904C147.074 189.4 147.006 189.848 146.87 190.248C146.734 190.64 146.542 190.98 146.294 191.268C146.046 191.548 145.75 191.764 145.406 191.916C145.07 192.068 144.694 192.144 144.278 192.144ZM144.278 191.292C144.798 191.292 145.222 191.132 145.55 190.812C145.878 190.492 146.042 190.004 146.042 189.348V188.46C146.042 187.804 145.878 187.316 145.55 186.996C145.222 186.676 144.798 186.516 144.278 186.516C143.758 186.516 143.334 186.676 143.006 186.996C142.678 187.316 142.514 187.804 142.514 188.46V189.348C142.514 190.004 142.678 190.492 143.006 190.812C143.334 191.132 143.758 191.292 144.278 191.292ZM152.469 190.992H152.421C152.357 191.136 152.277 191.28 152.181 191.424C152.093 191.56 151.981 191.684 151.845 191.796C151.709 191.9 151.545 191.984 151.353 192.048C151.161 192.112 150.937 192.144 150.681 192.144C150.041 192.144 149.533 191.94 149.157 191.532C148.781 191.116 148.593 190.532 148.593 189.78V185.808H149.553V189.612C149.553 190.724 150.025 191.28 150.969 191.28C151.161 191.28 151.345 191.256 151.521 191.208C151.705 191.16 151.865 191.088 152.001 190.992C152.145 190.896 152.257 190.776 152.337 190.632C152.425 190.48 152.469 190.3 152.469 190.092V185.808H153.429V192H152.469V190.992ZM160.693 192.684C160.693 193.324 160.441 193.792 159.937 194.088C159.441 194.392 158.693 194.544 157.693 194.544C156.725 194.544 156.029 194.412 155.605 194.148C155.181 193.884 154.969 193.508 154.969 193.02C154.969 192.684 155.057 192.42 155.233 192.228C155.409 192.044 155.649 191.908 155.953 191.82V191.688C155.585 191.512 155.401 191.224 155.401 190.824C155.401 190.512 155.501 190.276 155.701 190.116C155.901 189.948 156.157 189.824 156.469 189.744V189.696C156.101 189.52 155.813 189.268 155.605 188.94C155.405 188.612 155.305 188.232 155.305 187.8C155.305 187.488 155.361 187.2 155.473 186.936C155.585 186.672 155.741 186.448 155.941 186.264C156.149 186.072 156.393 185.924 156.673 185.82C156.961 185.716 157.281 185.664 157.633 185.664C158.073 185.664 158.465 185.744 158.809 185.904V185.796C158.809 185.556 158.865 185.36 158.977 185.208C159.089 185.048 159.273 184.968 159.529 184.968H160.453V185.808H159.277V186.204C159.501 186.396 159.673 186.628 159.793 186.9C159.921 187.164 159.985 187.464 159.985 187.8C159.985 188.112 159.929 188.4 159.817 188.664C159.705 188.928 159.545 189.156 159.337 189.348C159.137 189.532 158.893 189.676 158.605 189.78C158.317 189.884 157.997 189.936 157.645 189.936C157.445 189.936 157.245 189.916 157.045 189.876C156.837 189.932 156.649 190.016 156.481 190.128C156.313 190.232 156.229 190.38 156.229 190.572C156.229 190.756 156.317 190.88 156.493 190.944C156.669 191.008 156.897 191.04 157.177 191.04H158.497C159.265 191.04 159.821 191.188 160.165 191.484C160.517 191.772 160.693 192.172 160.693 192.684ZM159.793 192.756C159.793 192.508 159.697 192.308 159.505 192.156C159.321 192.012 158.989 191.94 158.509 191.94H156.445C156.061 192.116 155.869 192.396 155.869 192.78C155.869 193.052 155.969 193.284 156.169 193.476C156.377 193.668 156.725 193.764 157.213 193.764H158.101C158.637 193.764 159.053 193.68 159.349 193.512C159.645 193.344 159.793 193.092 159.793 192.756ZM157.645 189.168C158.053 189.168 158.377 189.072 158.617 188.88C158.857 188.68 158.977 188.376 158.977 187.968V187.632C158.977 187.224 158.857 186.924 158.617 186.732C158.377 186.532 158.053 186.432 157.645 186.432C157.237 186.432 156.913 186.532 156.673 186.732C156.433 186.924 156.313 187.224 156.313 187.632V187.968C156.313 188.376 156.433 188.68 156.673 188.88C156.913 189.072 157.237 189.168 157.645 189.168ZM161.813 183.12H162.773V186.816H162.821C162.973 186.464 163.185 186.184 163.457 185.976C163.737 185.768 164.109 185.664 164.573 185.664C165.213 185.664 165.717 185.872 166.085 186.288C166.461 186.696 166.649 187.276 166.649 188.028V192H165.689V188.196C165.689 187.084 165.221 186.528 164.285 186.528C164.093 186.528 163.905 186.552 163.721 186.6C163.545 186.648 163.385 186.72 163.241 186.816C163.097 186.912 162.981 187.036 162.893 187.188C162.813 187.332 162.773 187.504 162.773 187.704V192H161.813V183.12ZM175.969 192C175.609 192 175.349 191.904 175.189 191.712C175.037 191.52 174.941 191.28 174.901 190.992H174.841C174.705 191.376 174.481 191.664 174.169 191.856C173.857 192.048 173.485 192.144 173.053 192.144C172.397 192.144 171.885 191.976 171.517 191.64C171.157 191.304 170.977 190.848 170.977 190.272C170.977 189.688 171.189 189.24 171.613 188.928C172.045 188.616 172.713 188.46 173.617 188.46H174.841V187.848C174.841 187.408 174.721 187.072 174.481 186.84C174.241 186.608 173.873 186.492 173.377 186.492C173.001 186.492 172.685 186.576 172.429 186.744C172.181 186.912 171.973 187.136 171.805 187.416L171.229 186.876C171.397 186.54 171.665 186.256 172.033 186.024C172.401 185.784 172.865 185.664 173.425 185.664C174.177 185.664 174.761 185.848 175.177 186.216C175.593 186.584 175.801 187.096 175.801 187.752V191.16H176.509V192H175.969ZM173.209 191.328C173.449 191.328 173.669 191.3 173.869 191.244C174.069 191.188 174.241 191.108 174.385 191.004C174.529 190.9 174.641 190.78 174.721 190.644C174.801 190.508 174.841 190.36 174.841 190.2V189.18H173.569C173.017 189.18 172.613 189.26 172.357 189.42C172.109 189.58 171.985 189.812 171.985 190.116V190.368C171.985 190.672 172.093 190.908 172.309 191.076C172.533 191.244 172.833 191.328 173.209 191.328ZM177.879 192V185.808H178.839V186.816H178.887C179.039 186.464 179.251 186.184 179.523 185.976C179.803 185.768 180.175 185.664 180.639 185.664C181.279 185.664 181.783 185.872 182.151 186.288C182.527 186.696 182.715 187.276 182.715 188.028V192H181.755V188.196C181.755 187.084 181.287 186.528 180.351 186.528C180.159 186.528 179.971 186.552 179.787 186.6C179.611 186.648 179.451 186.72 179.307 186.816C179.163 186.912 179.047 187.036 178.959 187.188C178.879 187.332 178.839 187.504 178.839 187.704V192H177.879ZM189.864 192.144C189.44 192.144 189.056 192.068 188.712 191.916C188.376 191.764 188.084 191.548 187.836 191.268C187.596 190.98 187.408 190.64 187.272 190.248C187.144 189.848 187.08 189.4 187.08 188.904C187.08 188.416 187.144 187.972 187.272 187.572C187.408 187.172 187.596 186.832 187.836 186.552C188.084 186.264 188.376 186.044 188.712 185.892C189.056 185.74 189.44 185.664 189.864 185.664C190.28 185.664 190.652 185.74 190.98 185.892C191.308 186.044 191.588 186.256 191.82 186.528C192.052 186.792 192.228 187.108 192.348 187.476C192.476 187.844 192.54 188.248 192.54 188.688V189.144H188.088V189.432C188.088 189.696 188.128 189.944 188.208 190.176C188.296 190.4 188.416 190.596 188.568 190.764C188.728 190.932 188.92 191.064 189.144 191.16C189.376 191.256 189.636 191.304 189.924 191.304C190.316 191.304 190.656 191.212 190.944 191.028C191.24 190.844 191.468 190.58 191.628 190.236L192.312 190.728C192.112 191.152 191.8 191.496 191.376 191.76C190.952 192.016 190.448 192.144 189.864 192.144ZM189.864 186.468C189.6 186.468 189.36 186.516 189.144 186.612C188.928 186.7 188.74 186.828 188.58 186.996C188.428 187.164 188.308 187.364 188.22 187.596C188.132 187.82 188.088 188.068 188.088 188.34V188.424H191.508V188.292C191.508 187.74 191.356 187.3 191.052 186.972C190.756 186.636 190.36 186.468 189.864 186.468ZM194.122 192V185.808H195.082V186.816H195.13C195.282 186.464 195.494 186.184 195.766 185.976C196.046 185.768 196.418 185.664 196.882 185.664C197.522 185.664 198.026 185.872 198.394 186.288C198.77 186.696 198.958 187.276 198.958 188.028V192H197.998V188.196C197.998 187.084 197.53 186.528 196.594 186.528C196.402 186.528 196.214 186.552 196.03 186.6C195.854 186.648 195.694 186.72 195.55 186.816C195.406 186.912 195.29 187.036 195.202 187.188C195.122 187.332 195.082 187.504 195.082 187.704V192H194.122ZM204.902 190.992H204.854C204.478 191.76 203.874 192.144 203.042 192.144C202.658 192.144 202.31 192.068 201.998 191.916C201.686 191.764 201.418 191.548 201.194 191.268C200.978 190.988 200.81 190.648 200.69 190.248C200.578 189.848 200.522 189.4 200.522 188.904C200.522 188.408 200.578 187.96 200.69 187.56C200.81 187.16 200.978 186.82 201.194 186.54C201.418 186.26 201.686 186.044 201.998 185.892C202.31 185.74 202.658 185.664 203.042 185.664C203.474 185.664 203.842 185.76 204.146 185.952C204.458 186.136 204.694 186.424 204.854 186.816H204.902V183.12H205.862V192H204.902V190.992ZM203.306 191.28C203.522 191.28 203.726 191.252 203.918 191.196C204.118 191.14 204.29 191.06 204.434 190.956C204.578 190.844 204.69 190.712 204.77 190.56C204.858 190.4 204.902 190.22 204.902 190.02V187.716C204.902 187.548 204.858 187.392 204.77 187.248C204.69 187.096 204.578 186.968 204.434 186.864C204.29 186.76 204.118 186.68 203.918 186.624C203.726 186.56 203.522 186.528 203.306 186.528C202.762 186.528 202.334 186.7 202.022 187.044C201.71 187.38 201.554 187.824 201.554 188.376V189.432C201.554 189.984 201.71 190.432 202.022 190.776C202.334 191.112 202.762 191.28 203.306 191.28ZM212.107 192C211.771 192 211.515 191.908 211.339 191.724C211.171 191.532 211.087 191.284 211.087 190.98V186.648H210.067V185.808H210.643C210.851 185.808 210.991 185.768 211.063 185.688C211.143 185.6 211.183 185.452 211.183 185.244V184.092H212.047V185.808H213.403V186.648H212.047V191.16H213.307V192H212.107ZM217.239 192.144C216.823 192.144 216.443 192.068 216.099 191.916C215.755 191.764 215.459 191.548 215.211 191.268C214.971 190.98 214.783 190.64 214.647 190.248C214.511 189.848 214.443 189.4 214.443 188.904C214.443 188.416 214.511 187.972 214.647 187.572C214.783 187.172 214.971 186.832 215.211 186.552C215.459 186.264 215.755 186.044 216.099 185.892C216.443 185.74 216.823 185.664 217.239 185.664C217.655 185.664 218.031 185.74 218.367 185.892C218.711 186.044 219.007 186.264 219.255 186.552C219.503 186.832 219.695 187.172 219.831 187.572C219.967 187.972 220.035 188.416 220.035 188.904C220.035 189.4 219.967 189.848 219.831 190.248C219.695 190.64 219.503 190.98 219.255 191.268C219.007 191.548 218.711 191.764 218.367 191.916C218.031 192.068 217.655 192.144 217.239 192.144ZM217.239 191.292C217.759 191.292 218.183 191.132 218.511 190.812C218.839 190.492 219.003 190.004 219.003 189.348V188.46C219.003 187.804 218.839 187.316 218.511 186.996C218.183 186.676 217.759 186.516 217.239 186.516C216.719 186.516 216.295 186.676 215.967 186.996C215.639 187.316 215.475 187.804 215.475 188.46V189.348C215.475 190.004 215.639 190.492 215.967 190.812C216.295 191.132 216.719 191.292 217.239 191.292ZM226.778 192.144C226.354 192.144 225.97 192.068 225.626 191.916C225.29 191.764 224.998 191.548 224.75 191.268C224.51 190.98 224.322 190.64 224.186 190.248C224.058 189.848 223.994 189.4 223.994 188.904C223.994 188.416 224.058 187.972 224.186 187.572C224.322 187.172 224.51 186.832 224.75 186.552C224.998 186.264 225.29 186.044 225.626 185.892C225.97 185.74 226.354 185.664 226.778 185.664C227.194 185.664 227.566 185.74 227.894 185.892C228.222 186.044 228.502 186.256 228.734 186.528C228.966 186.792 229.142 187.108 229.262 187.476C229.39 187.844 229.454 188.248 229.454 188.688V189.144H225.002V189.432C225.002 189.696 225.042 189.944 225.122 190.176C225.21 190.4 225.33 190.596 225.482 190.764C225.642 190.932 225.834 191.064 226.058 191.16C226.29 191.256 226.55 191.304 226.838 191.304C227.23 191.304 227.57 191.212 227.858 191.028C228.154 190.844 228.382 190.58 228.542 190.236L229.226 190.728C229.026 191.152 228.714 191.496 228.29 191.76C227.866 192.016 227.362 192.144 226.778 192.144ZM226.778 186.468C226.514 186.468 226.274 186.516 226.058 186.612C225.842 186.7 225.654 186.828 225.494 186.996C225.342 187.164 225.222 187.364 225.134 187.596C225.046 187.82 225.002 188.068 225.002 188.34V188.424H228.422V188.292C228.422 187.74 228.27 187.3 227.966 186.972C227.67 186.636 227.274 186.468 226.778 186.468ZM231.036 192V185.808H231.996V186.816H232.044C232.196 186.464 232.408 186.184 232.68 185.976C232.96 185.768 233.332 185.664 233.796 185.664C234.436 185.664 234.94 185.872 235.308 186.288C235.684 186.696 235.872 187.276 235.872 188.028V192H234.912V188.196C234.912 187.084 234.444 186.528 233.508 186.528C233.316 186.528 233.128 186.552 232.944 186.6C232.768 186.648 232.608 186.72 232.464 186.816C232.32 186.912 232.204 187.036 232.116 187.188C232.036 187.332 231.996 187.504 231.996 187.704V192H231.036ZM241.816 190.992H241.768C241.392 191.76 240.788 192.144 239.956 192.144C239.572 192.144 239.224 192.068 238.912 191.916C238.6 191.764 238.332 191.548 238.108 191.268C237.892 190.988 237.724 190.648 237.604 190.248C237.492 189.848 237.436 189.4 237.436 188.904C237.436 188.408 237.492 187.96 237.604 187.56C237.724 187.16 237.892 186.82 238.108 186.54C238.332 186.26 238.6 186.044 238.912 185.892C239.224 185.74 239.572 185.664 239.956 185.664C240.388 185.664 240.756 185.76 241.06 185.952C241.372 186.136 241.608 186.424 241.768 186.816H241.816V183.12H242.776V192H241.816V190.992ZM240.22 191.28C240.436 191.28 240.64 191.252 240.832 191.196C241.032 191.14 241.204 191.06 241.348 190.956C241.492 190.844 241.604 190.712 241.684 190.56C241.772 190.4 241.816 190.22 241.816 190.02V187.716C241.816 187.548 241.772 187.392 241.684 187.248C241.604 187.096 241.492 186.968 241.348 186.864C241.204 186.76 241.032 186.68 240.832 186.624C240.64 186.56 240.436 186.528 240.22 186.528C239.676 186.528 239.248 186.7 238.936 187.044C238.624 187.38 238.468 187.824 238.468 188.376V189.432C238.468 189.984 238.624 190.432 238.936 190.776C239.248 191.112 239.676 191.28 240.22 191.28ZM249.981 192.144C249.557 192.144 249.173 192.068 248.829 191.916C248.493 191.764 248.201 191.548 247.953 191.268C247.713 190.98 247.525 190.64 247.389 190.248C247.261 189.848 247.197 189.4 247.197 188.904C247.197 188.416 247.261 187.972 247.389 187.572C247.525 187.172 247.713 186.832 247.953 186.552C248.201 186.264 248.493 186.044 248.829 185.892C249.173 185.74 249.557 185.664 249.981 185.664C250.397 185.664 250.769 185.74 251.097 185.892C251.425 186.044 251.705 186.256 251.937 186.528C252.169 186.792 252.345 187.108 252.465 187.476C252.593 187.844 252.657 188.248 252.657 188.688V189.144H248.205V189.432C248.205 189.696 248.245 189.944 248.325 190.176C248.413 190.4 248.533 190.596 248.685 190.764C248.845 190.932 249.037 191.064 249.261 191.16C249.493 191.256 249.753 191.304 250.041 191.304C250.433 191.304 250.773 191.212 251.061 191.028C251.357 190.844 251.585 190.58 251.745 190.236L252.429 190.728C252.229 191.152 251.917 191.496 251.493 191.76C251.069 192.016 250.565 192.144 249.981 192.144ZM249.981 186.468C249.717 186.468 249.477 186.516 249.261 186.612C249.045 186.7 248.857 186.828 248.697 186.996C248.545 187.164 248.425 187.364 248.337 187.596C248.249 187.82 248.205 188.068 248.205 188.34V188.424H251.625V188.292C251.625 187.74 251.473 187.3 251.169 186.972C250.873 186.636 250.477 186.468 249.981 186.468ZM254.239 192V185.808H255.199V186.816H255.247C255.399 186.464 255.611 186.184 255.883 185.976C256.163 185.768 256.535 185.664 256.999 185.664C257.639 185.664 258.143 185.872 258.511 186.288C258.887 186.696 259.075 187.276 259.075 188.028V192H258.115V188.196C258.115 187.084 257.647 186.528 256.711 186.528C256.519 186.528 256.331 186.552 256.147 186.6C255.971 186.648 255.811 186.72 255.667 186.816C255.523 186.912 255.407 187.036 255.319 187.188C255.239 187.332 255.199 187.504 255.199 187.704V192H254.239ZM263.363 192.144C262.931 192.144 262.543 192.068 262.199 191.916C261.855 191.764 261.563 191.548 261.323 191.268C261.091 190.988 260.911 190.648 260.783 190.248C260.663 189.848 260.603 189.4 260.603 188.904C260.603 188.408 260.663 187.96 260.783 187.56C260.911 187.16 261.091 186.82 261.323 186.54C261.563 186.26 261.855 186.044 262.199 185.892C262.543 185.74 262.931 185.664 263.363 185.664C263.979 185.664 264.471 185.8 264.839 186.072C265.215 186.336 265.495 186.684 265.679 187.116L264.875 187.524C264.763 187.204 264.579 186.956 264.323 186.78C264.067 186.604 263.747 186.516 263.363 186.516C263.075 186.516 262.823 186.564 262.607 186.66C262.391 186.748 262.211 186.876 262.067 187.044C261.923 187.204 261.815 187.4 261.743 187.632C261.671 187.856 261.635 188.104 261.635 188.376V189.432C261.635 189.976 261.779 190.424 262.067 190.776C262.363 191.12 262.795 191.292 263.363 191.292C264.139 191.292 264.699 190.932 265.043 190.212L265.739 190.68C265.539 191.128 265.239 191.484 264.839 191.748C264.447 192.012 263.955 192.144 263.363 192.144ZM267.094 192V185.808H268.054V186.948H268.114C268.226 186.652 268.426 186.388 268.714 186.156C269.002 185.924 269.398 185.808 269.902 185.808H270.274V186.768H269.71C269.19 186.768 268.782 186.868 268.486 187.068C268.198 187.26 268.054 187.504 268.054 187.8V192H267.094ZM275.434 185.808H276.382L273.61 193.44C273.538 193.624 273.466 193.776 273.394 193.896C273.322 194.024 273.234 194.124 273.13 194.196C273.026 194.268 272.894 194.32 272.734 194.352C272.582 194.384 272.394 194.4 272.17 194.4H271.678V193.56H272.65L273.118 192.24L270.802 185.808H271.762L273.25 190.02L273.538 191.028H273.598L273.934 190.02L275.434 185.808ZM277.606 185.808H278.566V186.816H278.614C278.774 186.424 279.006 186.136 279.31 185.952C279.622 185.76 279.994 185.664 280.426 185.664C280.81 185.664 281.158 185.74 281.47 185.892C281.782 186.044 282.046 186.26 282.262 186.54C282.486 186.82 282.654 187.16 282.766 187.56C282.886 187.96 282.946 188.408 282.946 188.904C282.946 189.4 282.886 189.848 282.766 190.248C282.654 190.648 282.486 190.988 282.262 191.268C282.046 191.548 281.782 191.764 281.47 191.916C281.158 192.068 280.81 192.144 280.426 192.144C279.586 192.144 278.982 191.76 278.614 190.992H278.566V194.4H277.606V185.808ZM280.162 191.28C280.706 191.28 281.134 191.112 281.446 190.776C281.758 190.432 281.914 189.984 281.914 189.432V188.376C281.914 187.824 281.758 187.38 281.446 187.044C281.134 186.7 280.706 186.528 280.162 186.528C279.946 186.528 279.738 186.56 279.538 186.624C279.346 186.68 279.178 186.76 279.034 186.864C278.89 186.968 278.774 187.096 278.686 187.248C278.606 187.392 278.566 187.548 278.566 187.716V190.02C278.566 190.22 278.606 190.4 278.686 190.56C278.774 190.712 278.89 190.844 279.034 190.956C279.178 191.06 279.346 191.14 279.538 191.196C279.738 191.252 279.946 191.28 280.162 191.28ZM285.865 192C285.529 192 285.273 191.908 285.097 191.724C284.929 191.532 284.845 191.284 284.845 190.98V186.648H283.825V185.808H284.401C284.609 185.808 284.749 185.768 284.821 185.688C284.901 185.6 284.941 185.452 284.941 185.244V184.092H285.805V185.808H287.161V186.648H285.805V191.16H287.065V192H285.865ZM290.985 192.144C290.561 192.144 290.177 192.068 289.833 191.916C289.497 191.764 289.205 191.548 288.957 191.268C288.717 190.98 288.529 190.64 288.393 190.248C288.265 189.848 288.201 189.4 288.201 188.904C288.201 188.416 288.265 187.972 288.393 187.572C288.529 187.172 288.717 186.832 288.957 186.552C289.205 186.264 289.497 186.044 289.833 185.892C290.177 185.74 290.561 185.664 290.985 185.664C291.401 185.664 291.773 185.74 292.101 185.892C292.429 186.044 292.709 186.256 292.941 186.528C293.173 186.792 293.349 187.108 293.469 187.476C293.597 187.844 293.661 188.248 293.661 188.688V189.144H289.209V189.432C289.209 189.696 289.249 189.944 289.329 190.176C289.417 190.4 289.537 190.596 289.689 190.764C289.849 190.932 290.041 191.064 290.265 191.16C290.497 191.256 290.757 191.304 291.045 191.304C291.437 191.304 291.777 191.212 292.065 191.028C292.361 190.844 292.589 190.58 292.749 190.236L293.433 190.728C293.233 191.152 292.921 191.496 292.497 191.76C292.073 192.016 291.569 192.144 290.985 192.144ZM290.985 186.468C290.721 186.468 290.481 186.516 290.265 186.612C290.049 186.7 289.861 186.828 289.701 186.996C289.549 187.164 289.429 187.364 289.341 187.596C289.253 187.82 289.209 188.068 289.209 188.34V188.424H292.629V188.292C292.629 187.74 292.477 187.3 292.173 186.972C291.877 186.636 291.481 186.468 290.985 186.468ZM299.203 190.992H299.155C298.779 191.76 298.175 192.144 297.343 192.144C296.959 192.144 296.611 192.068 296.299 191.916C295.987 191.764 295.719 191.548 295.495 191.268C295.279 190.988 295.111 190.648 294.991 190.248C294.879 189.848 294.823 189.4 294.823 188.904C294.823 188.408 294.879 187.96 294.991 187.56C295.111 187.16 295.279 186.82 295.495 186.54C295.719 186.26 295.987 186.044 296.299 185.892C296.611 185.74 296.959 185.664 297.343 185.664C297.775 185.664 298.143 185.76 298.447 185.952C298.759 186.136 298.995 186.424 299.155 186.816H299.203V183.12H300.163V192H299.203V190.992ZM297.607 191.28C297.823 191.28 298.027 191.252 298.219 191.196C298.419 191.14 298.591 191.06 298.735 190.956C298.879 190.844 298.991 190.712 299.071 190.56C299.159 190.4 299.203 190.22 299.203 190.02V187.716C299.203 187.548 299.159 187.392 299.071 187.248C298.991 187.096 298.879 186.968 298.735 186.864C298.591 186.76 298.419 186.68 298.219 186.624C298.027 186.56 297.823 186.528 297.607 186.528C297.063 186.528 296.635 186.7 296.323 187.044C296.011 187.38 295.855 187.824 295.855 188.376V189.432C295.855 189.984 296.011 190.432 296.323 190.776C296.635 191.112 297.063 191.28 297.607 191.28ZM307.344 192.144C306.912 192.144 306.524 192.068 306.18 191.916C305.836 191.764 305.544 191.548 305.304 191.268C305.072 190.988 304.892 190.648 304.764 190.248C304.644 189.848 304.584 189.4 304.584 188.904C304.584 188.408 304.644 187.96 304.764 187.56C304.892 187.16 305.072 186.82 305.304 186.54C305.544 186.26 305.836 186.044 306.18 185.892C306.524 185.74 306.912 185.664 307.344 185.664C307.96 185.664 308.452 185.8 308.82 186.072C309.196 186.336 309.476 186.684 309.66 187.116L308.856 187.524C308.744 187.204 308.56 186.956 308.304 186.78C308.048 186.604 307.728 186.516 307.344 186.516C307.056 186.516 306.804 186.564 306.588 186.66C306.372 186.748 306.192 186.876 306.048 187.044C305.904 187.204 305.796 187.4 305.724 187.632C305.652 187.856 305.616 188.104 305.616 188.376V189.432C305.616 189.976 305.76 190.424 306.048 190.776C306.344 191.12 306.776 191.292 307.344 191.292C308.12 191.292 308.68 190.932 309.024 190.212L309.72 190.68C309.52 191.128 309.22 191.484 308.82 191.748C308.428 192.012 307.936 192.144 307.344 192.144ZM311.075 183.12H312.035V186.816H312.083C312.235 186.464 312.447 186.184 312.719 185.976C312.999 185.768 313.371 185.664 313.835 185.664C314.475 185.664 314.979 185.872 315.347 186.288C315.723 186.696 315.911 187.276 315.911 188.028V192H314.951V188.196C314.951 187.084 314.483 186.528 313.547 186.528C313.355 186.528 313.167 186.552 312.983 186.6C312.807 186.648 312.647 186.72 312.503 186.816C312.359 186.912 312.243 187.036 312.155 187.188C312.075 187.332 312.035 187.504 312.035 187.704V192H311.075V183.12ZM322.395 192C322.035 192 321.775 191.904 321.615 191.712C321.463 191.52 321.367 191.28 321.327 190.992H321.267C321.131 191.376 320.907 191.664 320.595 191.856C320.283 192.048 319.911 192.144 319.479 192.144C318.823 192.144 318.311 191.976 317.943 191.64C317.583 191.304 317.403 190.848 317.403 190.272C317.403 189.688 317.615 189.24 318.039 188.928C318.471 188.616 319.139 188.46 320.043 188.46H321.267V187.848C321.267 187.408 321.147 187.072 320.907 186.84C320.667 186.608 320.299 186.492 319.803 186.492C319.427 186.492 319.111 186.576 318.855 186.744C318.607 186.912 318.399 187.136 318.231 187.416L317.655 186.876C317.823 186.54 318.091 186.256 318.459 186.024C318.827 185.784 319.291 185.664 319.851 185.664C320.603 185.664 321.187 185.848 321.603 186.216C322.019 186.584 322.227 187.096 322.227 187.752V191.16H322.935V192H322.395ZM319.635 191.328C319.875 191.328 320.095 191.3 320.295 191.244C320.495 191.188 320.667 191.108 320.811 191.004C320.955 190.9 321.067 190.78 321.147 190.644C321.227 190.508 321.267 190.36 321.267 190.2V189.18H319.995C319.443 189.18 319.039 189.26 318.783 189.42C318.535 189.58 318.411 189.812 318.411 190.116V190.368C318.411 190.672 318.519 190.908 318.735 191.076C318.959 191.244 319.259 191.328 319.635 191.328ZM324.305 192V185.808H325.265V186.816H325.313C325.465 186.464 325.677 186.184 325.949 185.976C326.229 185.768 326.601 185.664 327.065 185.664C327.705 185.664 328.209 185.872 328.577 186.288C328.953 186.696 329.141 187.276 329.141 188.028V192H328.181V188.196C328.181 187.084 327.713 186.528 326.777 186.528C326.585 186.528 326.397 186.552 326.213 186.6C326.037 186.648 325.877 186.72 325.733 186.816C325.589 186.912 325.473 187.036 325.385 187.188C325.305 187.332 325.265 187.504 325.265 187.704V192H324.305ZM331.125 192V185.808H332.085V186.816H332.133C332.285 186.464 332.497 186.184 332.769 185.976C333.049 185.768 333.421 185.664 333.885 185.664C334.525 185.664 335.029 185.872 335.397 186.288C335.773 186.696 335.961 187.276 335.961 188.028V192H335.001V188.196C335.001 187.084 334.533 186.528 333.597 186.528C333.405 186.528 333.217 186.552 333.033 186.6C332.857 186.648 332.697 186.72 332.553 186.816C332.409 186.912 332.293 187.036 332.205 187.188C332.125 187.332 332.085 187.504 332.085 187.704V192H331.125ZM340.274 192.144C339.85 192.144 339.466 192.068 339.122 191.916C338.786 191.764 338.494 191.548 338.246 191.268C338.006 190.98 337.818 190.64 337.682 190.248C337.554 189.848 337.49 189.4 337.49 188.904C337.49 188.416 337.554 187.972 337.682 187.572C337.818 187.172 338.006 186.832 338.246 186.552C338.494 186.264 338.786 186.044 339.122 185.892C339.466 185.74 339.85 185.664 340.274 185.664C340.69 185.664 341.062 185.74 341.39 185.892C341.718 186.044 341.998 186.256 342.23 186.528C342.462 186.792 342.638 187.108 342.758 187.476C342.886 187.844 342.95 188.248 342.95 188.688V189.144H338.498V189.432C338.498 189.696 338.538 189.944 338.618 190.176C338.706 190.4 338.826 190.596 338.978 190.764C339.138 190.932 339.33 191.064 339.554 191.16C339.786 191.256 340.046 191.304 340.334 191.304C340.726 191.304 341.066 191.212 341.354 191.028C341.65 190.844 341.878 190.58 342.038 190.236L342.722 190.728C342.522 191.152 342.21 191.496 341.786 191.76C341.362 192.016 340.858 192.144 340.274 192.144ZM340.274 186.468C340.01 186.468 339.77 186.516 339.554 186.612C339.338 186.7 339.15 186.828 338.99 186.996C338.838 187.164 338.718 187.364 338.63 187.596C338.542 187.82 338.498 188.068 338.498 188.34V188.424H341.918V188.292C341.918 187.74 341.766 187.3 341.462 186.972C341.166 186.636 340.77 186.468 340.274 186.468ZM345.552 192C345.216 192 344.96 191.908 344.784 191.724C344.616 191.532 344.532 191.292 344.532 191.004V183.12H345.492V191.16H346.404V192H345.552Z" fill="#7A8895"/>
<path d="M174.074 164.008L168.074 162.674C168.026 162.664 167.977 162.664 167.929 162.674L161.929 164.008C161.855 164.024 161.789 164.065 161.741 164.125C161.694 164.184 161.668 164.257 161.668 164.333V171C161.668 172.68 162.335 174.291 163.523 175.478C164.711 176.666 166.322 177.333 168.001 177.333C169.681 177.333 171.292 176.666 172.48 175.478C173.667 174.291 174.335 172.68 174.335 171V164.333C174.335 164.257 174.309 164.184 174.261 164.125C174.214 164.065 174.148 164.024 174.074 164.008V164.008ZM171.001 173C171.001 173.088 170.966 173.173 170.904 173.236C170.841 173.298 170.756 173.333 170.668 173.333H165.335C165.246 173.333 165.161 173.298 165.099 173.236C165.036 173.173 165.001 173.088 165.001 173V169.667C165.001 169.578 165.036 169.494 165.099 169.431C165.161 169.368 165.246 169.333 165.335 169.333H166.335V167.667C166.335 167.225 166.51 166.801 166.823 166.488C167.135 166.176 167.559 166 168.001 166C168.443 166 168.867 166.176 169.18 166.488C169.492 166.801 169.668 167.225 169.668 167.667V169.333H170.668C170.756 169.333 170.841 169.368 170.904 169.431C170.966 169.494 171.001 169.578 171.001 169.667V173Z" fill="#30CEFE"/>
<path d="M168 166.667C167.735 166.667 167.48 166.772 167.293 166.96C167.105 167.147 167 167.402 167 167.667V169.333H169V167.667C169 167.402 168.895 167.147 168.707 166.96C168.52 166.772 168.265 166.667 168 166.667Z" fill="#30CEFE"/>
<path d="M168.003 172C168.371 172 168.669 171.702 168.669 171.333C168.669 170.965 168.371 170.667 168.003 170.667C167.634 170.667 167.336 170.965 167.336 171.333C167.336 171.702 167.634 172 168.003 172Z" fill="#30CEFE"/>
<rect x="1" y="163" width="48" height="32" rx="2" fill="#F5F7F9"/>
<path d="M10 179L42 179" stroke="#30CEFE" stroke-width="8"/>
<path d="M10 179L42 179" stroke="white" stroke-width="1.5"/>
<rect y="136" width="896" height="1" fill="#C4C4C4" fill-opacity="0.5"/>
<defs>
<filter id="filter0_d" x="16" y="16" width="258" height="84" filterUnits="userSpaceOnUse" color-interpolation-filters="sRGB">
<feFlood flood-opacity="0" result="BackgroundImageFix"/>
<feColorMatrix in="SourceAlpha" type="matrix" values="0 0 0 0 0 0 0 0 0 0 0 0 0 0 0 0 0 0 127 0"/>
<feMorphology radius="4" operator="erode" in="SourceAlpha" result="effect1_dropShadow"/>
<feOffset dy="4"/>
<feGaussianBlur stdDeviation="2"/>
<feColorMatrix type="matrix" values="0 0 0 0 0 0 0 0 0 0 0 0 0 0 0 0 0 0 0.25 0"/>
<feBlend mode="normal" in2="BackgroundImageFix" result="effect1_dropShadow"/>
<feBlend mode="normal" in="SourceGraphic" in2="effect1_dropShadow" result="shape"/>
</filter>
<filter id="filter1_d" x="645" y="16" width="235" height="84" filterUnits="userSpaceOnUse" color-interpolation-filters="sRGB">
<feFlood flood-opacity="0" result="BackgroundImageFix"/>
<feColorMatrix in="SourceAlpha" type="matrix" values="0 0 0 0 0 0 0 0 0 0 0 0 0 0 0 0 0 0 127 0"/>
<feMorphology radius="4" operator="erode" in="SourceAlpha" result="effect1_dropShadow"/>
<feOffset dy="4"/>
<feGaussianBlur stdDeviation="2"/>
<feColorMatrix type="matrix" values="0 0 0 0 0 0 0 0 0 0 0 0 0 0 0 0 0 0 0.25 0"/>
<feBlend mode="normal" in2="BackgroundImageFix" result="effect1_dropShadow"/>
<feBlend mode="normal" in="SourceGraphic" in2="effect1_dropShadow" result="shape"/>
</filter>
<linearGradient id="paint0_linear" x1="685" y1="1.47848e-05" x2="665.475" y2="179.44" gradientUnits="userSpaceOnUse">
<stop stop-color="#F5F7F9"/>
<stop offset="1" stop-color="#F5F7F9" stop-opacity="0"/>
</linearGradient>
<clipPath id="clip0">
<rect width="20.6769" height="20.3077" fill="white" transform="translate(40.7266 45.6924)"/>
</clipPath>
<clipPath id="clip1">
<rect width="33" height="32" fill="white" transform="translate(669 40)"/>
</clipPath>
</defs>
</svg>
