<svg version="1.1" xmlns="http://www.w3.org/2000/svg" viewBox="0 0 597.9481201171875 449" width="1195.896240234375" height="898">
  <!-- svg-source:excalidraw -->
  
  <defs>
    <style class="style-fonts">
      @font-face {
        font-family: "Virgil";
        src: url("https://excalidraw.com/Virgil.woff2");
      }
      @font-face {
        font-family: "Cascadia";
        src: url("https://excalidraw.com/Cascadia.woff2");
      }
      @font-face {
        font-family: "Assistant";
        src: url("https://excalidraw.com/Assistant-Regular.woff2");
      }
    </style>
    
  </defs>
  <rect x="0" y="0" width="597.9481201171875" height="449" fill="#ffffff"></rect><g stroke-linecap="round" transform="translate(448.1140594482422 227) rotate(0 36.5 34.5)"><path d="M4.59 3.99 C4.59 3.99, 4.59 3.99, 4.59 3.99 M4.59 3.99 C4.59 3.99, 4.59 3.99, 4.59 3.99 M1.05 14.16 C4.15 10.59, 7.26 7.02, 12.86 0.58 M1.05 14.16 C5.47 9.08, 9.89 4, 12.86 0.58 M0.79 20.56 C4.92 15.8, 9.06 11.05, 18.5 0.18 M0.79 20.56 C6.51 13.98, 12.23 7.4, 18.5 0.18 M0.53 26.96 C7.44 19.01, 14.35 11.06, 24.15 -0.21 M0.53 26.96 C6.78 19.77, 13.02 12.58, 24.15 -0.21 M0.27 33.36 C7.28 25.28, 14.3 17.21, 29.13 0.15 M0.27 33.36 C7.28 25.29, 14.29 17.22, 29.13 0.15 M0.66 39 C10.07 28.17, 19.49 17.34, 34.12 0.51 M0.66 39 C12.3 25.61, 23.94 12.22, 34.12 0.51 M0.4 45.4 C11.93 32.13, 23.46 18.87, 39.76 0.11 M0.4 45.4 C10.98 33.23, 21.56 21.06, 39.76 0.11 M0.14 51.79 C11.31 38.95, 22.47 26.1, 44.75 0.47 M0.14 51.79 C15.63 33.98, 31.12 16.16, 44.75 0.47 M0.53 57.44 C15.96 39.69, 31.39 21.94, 50.39 0.08 M0.53 57.44 C17.01 38.48, 33.49 19.52, 50.39 0.08 M2.24 61.57 C13.21 48.95, 24.18 36.33, 55.38 0.44 M2.24 61.57 C14.18 47.84, 26.12 34.1, 55.38 0.44 M4.6 64.95 C24.4 42.18, 44.2 19.4, 60.37 0.8 M4.6 64.95 C18.4 49.08, 32.2 33.21, 60.37 0.8 M8.28 66.82 C21.97 51.07, 35.66 35.31, 64.7 1.91 M8.28 66.82 C24.16 48.55, 40.04 30.28, 64.7 1.91 M11.95 68.69 C30.47 47.39, 48.98 26.09, 68.37 3.78 M11.95 68.69 C24.79 53.92, 37.64 39.14, 68.37 3.78 M16.94 69.05 C29.74 54.32, 42.54 39.6, 70.73 7.16 M16.94 69.05 C30.81 53.09, 44.68 37.14, 70.73 7.16 M22.58 68.65 C35.71 53.56, 48.83 38.46, 72.44 11.3 M22.58 68.65 C40.95 47.52, 59.32 26.39, 72.44 11.3 M27.57 69.02 C43.96 50.16, 60.36 31.3, 73.49 16.19 M27.57 69.02 C38.27 56.7, 48.98 44.38, 73.49 16.19 M33.21 68.62 C42.44 58.01, 51.66 47.4, 73.23 22.58 M33.21 68.62 C47.47 52.22, 61.72 35.82, 73.23 22.58 M38.2 68.98 C50.62 54.69, 63.04 40.41, 73.63 28.23 M38.2 68.98 C49.74 55.71, 61.27 42.44, 73.63 28.23 M43.84 68.59 C50.81 60.56, 57.79 52.54, 73.36 34.62 M43.84 68.59 C54.66 56.14, 65.47 43.7, 73.36 34.62 M48.83 68.95 C55.03 61.81, 61.23 54.68, 73.1 41.02 M48.83 68.95 C58.37 57.97, 67.91 47, 73.1 41.02 M53.82 69.31 C60.16 62.01, 66.51 54.71, 73.5 46.66 M53.82 69.31 C60.97 61.08, 68.12 52.85, 73.5 46.66 M59.46 68.91 C63.51 64.25, 67.56 59.59, 73.24 53.06 M59.46 68.91 C64.03 63.66, 68.59 58.4, 73.24 53.06 M66.41 67.01 C67.82 65.39, 69.22 63.78, 71.66 60.97 M66.41 67.01 C67.47 65.8, 68.52 64.58, 71.66 60.97" stroke="#868e96" stroke-width="0.5" fill="none"></path><path d="M17.25 0 C29.08 0, 40.91 0, 55.75 0 M17.25 0 C30.06 0, 42.87 0, 55.75 0 M55.75 0 C67.25 0, 73 5.75, 73 17.25 M55.75 0 C67.25 0, 73 5.75, 73 17.25 M73 17.25 C73 28.65, 73 40.05, 73 51.75 M73 17.25 C73 24.64, 73 32.03, 73 51.75 M73 51.75 C73 63.25, 67.25 69, 55.75 69 M73 51.75 C73 63.25, 67.25 69, 55.75 69 M55.75 69 C47.06 69, 38.37 69, 17.25 69 M55.75 69 C47.47 69, 39.19 69, 17.25 69 M17.25 69 C5.75 69, 0 63.25, 0 51.75 M17.25 69 C5.75 69, 0 63.25, 0 51.75 M0 51.75 C0 38.06, 0 24.36, 0 17.25 M0 51.75 C0 38.42, 0 25.1, 0 17.25 M0 17.25 C0 5.75, 5.75 0, 17.25 0 M0 17.25 C0 5.75, 5.75 0, 17.25 0" stroke="#000000" stroke-width="1" fill="none"></path></g><g stroke-linecap="round" transform="translate(66.61405944824219 228.5) rotate(0 36.5 34.5)"><path d="M4.59 3.99 C4.59 3.99, 4.59 3.99, 4.59 3.99 M4.59 3.99 C4.59 3.99, 4.59 3.99, 4.59 3.99 M1.05 14.16 C4.15 10.59, 7.26 7.02, 12.86 0.58 M1.05 14.16 C5.47 9.08, 9.89 4, 12.86 0.58 M0.79 20.56 C4.92 15.8, 9.06 11.05, 18.5 0.18 M0.79 20.56 C6.51 13.98, 12.23 7.4, 18.5 0.18 M0.53 26.96 C7.44 19.01, 14.35 11.06, 24.15 -0.21 M0.53 26.96 C6.78 19.77, 13.02 12.58, 24.15 -0.21 M0.27 33.36 C7.28 25.28, 14.3 17.21, 29.13 0.15 M0.27 33.36 C7.28 25.29, 14.29 17.22, 29.13 0.15 M0.66 39 C10.07 28.17, 19.49 17.34, 34.12 0.51 M0.66 39 C12.3 25.61, 23.94 12.22, 34.12 0.51 M0.4 45.4 C11.93 32.13, 23.46 18.87, 39.76 0.11 M0.4 45.4 C10.98 33.23, 21.56 21.06, 39.76 0.11 M0.14 51.79 C11.31 38.95, 22.47 26.1, 44.75 0.47 M0.14 51.79 C15.63 33.98, 31.12 16.16, 44.75 0.47 M0.53 57.44 C15.96 39.69, 31.39 21.94, 50.39 0.08 M0.53 57.44 C17.01 38.48, 33.49 19.52, 50.39 0.08 M2.24 61.57 C13.21 48.95, 24.18 36.33, 55.38 0.44 M2.24 61.57 C14.18 47.84, 26.12 34.1, 55.38 0.44 M4.6 64.95 C24.4 42.18, 44.2 19.4, 60.37 0.8 M4.6 64.95 C18.4 49.08, 32.2 33.21, 60.37 0.8 M8.28 66.82 C21.97 51.07, 35.66 35.31, 64.7 1.91 M8.28 66.82 C24.16 48.55, 40.04 30.28, 64.7 1.91 M11.95 68.69 C30.47 47.39, 48.98 26.09, 68.37 3.78 M11.95 68.69 C24.79 53.92, 37.64 39.14, 68.37 3.78 M16.94 69.05 C29.74 54.32, 42.54 39.6, 70.73 7.16 M16.94 69.05 C30.81 53.09, 44.68 37.14, 70.73 7.16 M22.58 68.65 C35.71 53.56, 48.83 38.46, 72.44 11.3 M22.58 68.65 C40.95 47.52, 59.32 26.39, 72.44 11.3 M27.57 69.02 C43.96 50.16, 60.36 31.3, 73.49 16.19 M27.57 69.02 C38.27 56.7, 48.98 44.38, 73.49 16.19 M33.21 68.62 C42.44 58.01, 51.66 47.4, 73.23 22.58 M33.21 68.62 C47.47 52.22, 61.72 35.82, 73.23 22.58 M38.2 68.98 C50.62 54.69, 63.04 40.41, 73.63 28.23 M38.2 68.98 C49.74 55.71, 61.27 42.44, 73.63 28.23 M43.84 68.59 C50.81 60.56, 57.79 52.54, 73.36 34.62 M43.84 68.59 C54.66 56.14, 65.47 43.7, 73.36 34.62 M48.83 68.95 C55.03 61.81, 61.23 54.68, 73.1 41.02 M48.83 68.95 C58.37 57.97, 67.91 47, 73.1 41.02 M53.82 69.31 C60.16 62.01, 66.51 54.71, 73.5 46.66 M53.82 69.31 C60.97 61.08, 68.12 52.85, 73.5 46.66 M59.46 68.91 C63.51 64.25, 67.56 59.59, 73.24 53.06 M59.46 68.91 C64.03 63.66, 68.59 58.4, 73.24 53.06 M66.41 67.01 C67.82 65.39, 69.22 63.78, 71.66 60.97 M66.41 67.01 C67.47 65.8, 68.52 64.58, 71.66 60.97" stroke="#868e96" stroke-width="0.5" fill="none"></path><path d="M17.25 0 C29.08 0, 40.91 0, 55.75 0 M17.25 0 C30.06 0, 42.87 0, 55.75 0 M55.75 0 C67.25 0, 73 5.75, 73 17.25 M55.75 0 C67.25 0, 73 5.75, 73 17.25 M73 17.25 C73 28.65, 73 40.05, 73 51.75 M73 17.25 C73 24.64, 73 32.03, 73 51.75 M73 51.75 C73 63.25, 67.25 69, 55.75 69 M73 51.75 C73 63.25, 67.25 69, 55.75 69 M55.75 69 C47.06 69, 38.37 69, 17.25 69 M55.75 69 C47.47 69, 39.19 69, 17.25 69 M17.25 69 C5.75 69, 0 63.25, 0 51.75 M17.25 69 C5.75 69, 0 63.25, 0 51.75 M0 51.75 C0 38.06, 0 24.36, 0 17.25 M0 51.75 C0 38.42, 0 25.1, 0 17.25 M0 17.25 C0 5.75, 5.75 0, 17.25 0 M0 17.25 C0 5.75, 5.75 0, 17.25 0" stroke="#000000" stroke-width="1" fill="none"></path></g><g stroke-linecap="round" transform="translate(86.61405944824219 253.5) rotate(0 18.5 18.5)"><path d="M9.25 0 C15.62 1.08, 24.35 -3.33, 27.75 0 C31.72 -1.21, 39.24 3.67, 37 9.25 C38.31 10.17, 38.2 15.08, 37 27.75 C37.44 34.16, 34.61 34.4, 27.75 37 C24.16 39.29, 11.72 37.5, 9.25 37 C-0.22 38.81, -2.98 33.54, 0 27.75 C1.31 18.56, -0.51 13.64, 0 9.25 C1.5 4.41, 5.72 -1.27, 9.25 0" stroke="none" stroke-width="0" fill="#4dabf7"></path><path d="M9.25 0 C12.56 1.15, 18.76 -1.32, 27.75 0 M9.25 0 C14.96 0.88, 19.47 0.3, 27.75 0 M27.75 0 C34.07 0.92, 37.12 1.32, 37 9.25 M27.75 0 C35.52 0.81, 39.06 3.89, 37 9.25 M37 9.25 C36.94 14.2, 36.05 17.82, 37 27.75 M37 9.25 C37.68 13.5, 36.32 16.26, 37 27.75 M37 27.75 C36.78 33.41, 35.53 38.35, 27.75 37 M37 27.75 C37.76 35.31, 32.95 37.44, 27.75 37 M27.75 37 C20.74 37.83, 14.61 38.88, 9.25 37 M27.75 37 C20.86 37.19, 14.47 36.78, 9.25 37 M9.25 37 C2.68 35.37, 1.14 32.22, 0 27.75 M9.25 37 C4.28 38.89, -1.28 34.72, 0 27.75 M0 27.75 C0.37 20.15, 0.33 15.37, 0 9.25 M0 27.75 C-0.87 20.54, -0.82 13.89, 0 9.25 M0 9.25 C1.83 4.58, 3.02 -1.38, 9.25 0 M0 9.25 C-1.07 5.18, 2.06 -1.79, 9.25 0" stroke="#000000" stroke-width="1" fill="none"></path></g><g stroke-linecap="round" transform="translate(23.614059448242188 150.5) rotate(0 70.5 89.5)"><path d="M32 0 C58.14 0.29, 82.57 0.9, 109 0 M109 0 C130.21 1.09, 142.73 11.93, 141 32 M141 32 C142.12 54.21, 140.9 81.1, 141 147 M141 147 C140.97 168.92, 131.12 177.58, 109 179 M109 179 C87.83 180.78, 64.48 179.7, 32 179 M32 179 C11.18 179.38, 1.59 169.01, 0 147 M0 147 C2.1 122.46, -0.68 98.57, 0 32 M0 32 C0.28 10.71, 10.31 -1.61, 32 0" stroke="#000000" stroke-width="1.5" fill="none" stroke-dasharray="8 9"></path></g><g stroke-linecap="round" transform="translate(456.6140594482422 252) rotate(0 18.5 18.5)"><path d="M9.25 0 C15.62 1.08, 24.35 -3.33, 27.75 0 C31.72 -1.21, 39.24 3.67, 37 9.25 C38.31 10.17, 38.2 15.08, 37 27.75 C37.44 34.16, 34.61 34.4, 27.75 37 C24.16 39.29, 11.72 37.5, 9.25 37 C-0.22 38.81, -2.98 33.54, 0 27.75 C1.31 18.56, -0.51 13.64, 0 9.25 C1.5 4.41, 5.72 -1.27, 9.25 0" stroke="none" stroke-width="0" fill="#4dabf7"></path><path d="M9.25 0 C12.56 1.15, 18.76 -1.32, 27.75 0 M9.25 0 C14.96 0.88, 19.47 0.3, 27.75 0 M27.75 0 C34.07 0.92, 37.12 1.32, 37 9.25 M27.75 0 C35.52 0.81, 39.06 3.89, 37 9.25 M37 9.25 C36.94 14.2, 36.05 17.82, 37 27.75 M37 9.25 C37.68 13.5, 36.32 16.26, 37 27.75 M37 27.75 C36.78 33.41, 35.53 38.35, 27.75 37 M37 27.75 C37.76 35.31, 32.95 37.44, 27.75 37 M27.75 37 C20.74 37.83, 14.61 38.88, 9.25 37 M27.75 37 C20.86 37.19, 14.47 36.78, 9.25 37 M9.25 37 C2.68 35.37, 1.14 32.22, 0 27.75 M9.25 37 C4.28 38.89, -1.28 34.72, 0 27.75 M0 27.75 C0.37 20.15, 0.33 15.37, 0 9.25 M0 27.75 C-0.87 20.54, -0.82 13.89, 0 9.25 M0 9.25 C1.83 4.58, 3.02 -1.38, 9.25 0 M0 9.25 C-1.07 5.18, 2.06 -1.79, 9.25 0" stroke="#000000" stroke-width="1" fill="none"></path></g><g stroke-linecap="round" transform="translate(419.6140594482422 146) rotate(0 65 93)"><path d="M32 0 C54.42 0.3, 75.14 0.92, 98 0 M98 0 C119.21 1.09, 131.73 11.93, 130 32 M130 32 C131.12 55.66, 129.91 84.01, 130 154 M130 154 C129.97 175.92, 120.12 184.58, 98 186 M98 186 C79.96 187.74, 59.74 186.66, 32 186 M32 186 C11.18 186.38, 1.59 176.01, 0 154 M0 154 C2.12 127.95, -0.66 102.56, 0 32 M0 32 C0.28 10.71, 10.31 -1.61, 32 0" stroke="#000000" stroke-width="1.5" fill="none" stroke-dasharray="8 9"></path></g><g stroke-linecap="round" transform="translate(155.6140594482422 247.5) rotate(0 10 23)"><path d="M1.33 1.16 C1.33 1.16, 1.33 1.16, 1.33 1.16 M1.33 1.16 C1.33 1.16, 1.33 1.16, 1.33 1.16 M0.41 8.31 C2.09 6.38, 3.76 4.46, 6.97 0.76 M0.41 8.31 C2.73 5.65, 5.04 2.99, 6.97 0.76 M0.15 14.71 C2.74 11.73, 5.33 8.75, 11.96 1.12 M0.15 14.71 C2.52 11.99, 4.88 9.27, 11.96 1.12 M0.55 20.35 C5.95 14.14, 11.35 7.92, 17.6 0.73 M0.55 20.35 C4.73 15.54, 8.91 10.72, 17.6 0.73 M0.29 26.75 C6.14 20.01, 12 13.27, 19.97 4.11 M0.29 26.75 C7.52 18.42, 14.76 10.1, 19.97 4.11 M0.68 32.39 C8.06 23.9, 15.44 15.41, 19.71 10.5 M0.68 32.39 C6.63 25.55, 12.58 18.7, 19.71 10.5 M0.42 38.79 C7.96 30.11, 15.5 21.43, 20.1 16.15 M0.42 38.79 C5.21 33.27, 10.01 27.75, 20.1 16.15 M1.47 43.68 C6.02 38.44, 10.57 33.2, 19.84 22.55 M1.47 43.68 C8.73 35.33, 15.98 26.98, 19.84 22.55 M4.49 46.3 C7.8 42.49, 11.11 38.68, 20.23 28.19 M4.49 46.3 C8.04 42.21, 11.59 38.13, 20.23 28.19 M10.13 45.91 C13.69 41.82, 17.24 37.73, 19.97 34.59 M10.13 45.91 C12.8 42.83, 15.48 39.76, 19.97 34.59 M15.12 46.27 C16.95 44.16, 18.79 42.05, 20.37 40.23 M15.12 46.27 C16.69 44.46, 18.27 42.65, 20.37 40.23" stroke="#fa5252" stroke-width="0.5" fill="none"></path><path d="M5 0 C8.68 0, 12.37 0, 15 0 M5 0 C7.84 0, 10.68 0, 15 0 M15 0 C18.33 0, 20 1.67, 20 5 M15 0 C18.33 0, 20 1.67, 20 5 M20 5 C20 18.31, 20 31.62, 20 41 M20 5 C20 14.26, 20 23.52, 20 41 M20 41 C20 44.33, 18.33 46, 15 46 M20 41 C20 44.33, 18.33 46, 15 46 M15 46 C12.17 46, 9.34 46, 5 46 M15 46 C12.3 46, 9.59 46, 5 46 M5 46 C1.67 46, 0 44.33, 0 41 M5 46 C1.67 46, 0 44.33, 0 41 M0 41 C0 28.12, 0 15.23, 0 5 M0 41 C0 28.37, 0 15.75, 0 5 M0 5 C0 1.67, 1.67 0, 5 0 M0 5 C0 1.67, 1.67 0, 5 0" stroke="#c92a2a" stroke-width="1" fill="none"></path></g><g stroke-linecap="round" transform="translate(407.6140594482422 250.5) rotate(0 10 23)"><path d="M1.33 1.16 C1.33 1.16, 1.33 1.16, 1.33 1.16 M1.33 1.16 C1.33 1.16, 1.33 1.16, 1.33 1.16 M0.41 8.31 C2.09 6.38, 3.76 4.46, 6.97 0.76 M0.41 8.31 C2.73 5.65, 5.04 2.99, 6.97 0.76 M0.15 14.71 C2.74 11.73, 5.33 8.75, 11.96 1.12 M0.15 14.71 C2.52 11.99, 4.88 9.27, 11.96 1.12 M0.55 20.35 C5.95 14.14, 11.35 7.92, 17.6 0.73 M0.55 20.35 C4.73 15.54, 8.91 10.72, 17.6 0.73 M0.29 26.75 C6.14 20.01, 12 13.27, 19.97 4.11 M0.29 26.75 C7.52 18.42, 14.76 10.1, 19.97 4.11 M0.68 32.39 C8.06 23.9, 15.44 15.41, 19.71 10.5 M0.68 32.39 C6.63 25.55, 12.58 18.7, 19.71 10.5 M0.42 38.79 C7.96 30.11, 15.5 21.43, 20.1 16.15 M0.42 38.79 C5.21 33.27, 10.01 27.75, 20.1 16.15 M1.47 43.68 C6.02 38.44, 10.57 33.2, 19.84 22.55 M1.47 43.68 C8.73 35.33, 15.98 26.98, 19.84 22.55 M4.49 46.3 C7.8 42.49, 11.11 38.68, 20.23 28.19 M4.49 46.3 C8.04 42.21, 11.59 38.13, 20.23 28.19 M10.13 45.91 C13.69 41.82, 17.24 37.73, 19.97 34.59 M10.13 45.91 C12.8 42.83, 15.48 39.76, 19.97 34.59 M15.12 46.27 C16.95 44.16, 18.79 42.05, 20.37 40.23 M15.12 46.27 C16.69 44.46, 18.27 42.65, 20.37 40.23" stroke="#fa5252" stroke-width="0.5" fill="none"></path><path d="M5 0 C8.68 0, 12.37 0, 15 0 M5 0 C7.84 0, 10.68 0, 15 0 M15 0 C18.33 0, 20 1.67, 20 5 M15 0 C18.33 0, 20 1.67, 20 5 M20 5 C20 18.31, 20 31.62, 20 41 M20 5 C20 14.26, 20 23.52, 20 41 M20 41 C20 44.33, 18.33 46, 15 46 M20 41 C20 44.33, 18.33 46, 15 46 M15 46 C12.17 46, 9.34 46, 5 46 M15 46 C12.3 46, 9.59 46, 5 46 M5 46 C1.67 46, 0 44.33, 0 41 M5 46 C1.67 46, 0 44.33, 0 41 M0 41 C0 28.12, 0 15.23, 0 5 M0 41 C0 28.37, 0 15.75, 0 5 M0 5 C0 1.67, 1.67 0, 5 0 M0 5 C0 1.67, 1.67 0, 5 0" stroke="#c92a2a" stroke-width="1" fill="none"></path></g><g stroke-linecap="round" transform="translate(196.6140594482422 249.5) rotate(0 24 20.5)"><path d="M2.73 2.37 C2.73 2.37, 2.73 2.37, 2.73 2.37 M2.73 2.37 C2.73 2.37, 2.73 2.37, 2.73 2.37 M0.5 11.03 C2.42 8.83, 4.34 6.62, 9.68 0.47 M0.5 11.03 C2.58 8.63, 4.67 6.23, 9.68 0.47 M0.89 16.68 C4.44 12.59, 7.99 8.51, 14.67 0.83 M0.89 16.68 C3.88 13.24, 6.87 9.8, 14.67 0.83 M0.63 23.07 C7.02 15.73, 13.4 8.38, 20.31 0.43 M0.63 23.07 C5.15 17.87, 9.68 12.67, 20.31 0.43 M0.37 29.47 C9.44 19.04, 18.5 8.62, 25.3 0.79 M0.37 29.47 C7.66 21.08, 14.96 12.69, 25.3 0.79 M0.77 35.12 C9.92 24.58, 19.07 14.05, 30.94 0.4 M0.77 35.12 C12.76 21.32, 24.75 7.53, 30.94 0.4 M3.13 38.49 C14.38 25.55, 25.63 12.61, 35.93 0.76 M3.13 38.49 C11.47 28.89, 19.82 19.29, 35.93 0.76 M6.15 41.12 C18.53 26.88, 30.91 12.64, 41.57 0.36 M6.15 41.12 C18.37 27.06, 30.59 13, 41.57 0.36 M11.13 41.48 C23.24 27.55, 35.34 13.63, 45.25 2.23 M11.13 41.48 C20.51 30.69, 29.89 19.9, 45.25 2.23 M16.12 41.84 C27.22 29.07, 38.32 16.3, 47.61 5.61 M16.12 41.84 C23.27 33.61, 30.43 25.38, 47.61 5.61 M21.76 41.44 C32.38 29.23, 42.99 17.02, 48.66 10.5 M21.76 41.44 C30.25 31.68, 38.73 21.92, 48.66 10.5 M26.75 41.8 C35.16 32.13, 43.57 22.46, 48.4 16.9 M26.75 41.8 C31.88 35.9, 37.02 29.99, 48.4 16.9 M32.39 41.41 C38.85 33.98, 45.3 26.56, 48.8 22.54 M32.39 41.41 C36.11 37.14, 39.82 32.87, 48.8 22.54 M38.04 41.02 C40.33 38.37, 42.63 35.73, 48.53 28.94 M38.04 41.02 C41.26 37.3, 44.49 33.59, 48.53 28.94" stroke="#868e96" stroke-width="0.5" fill="none"></path><path d="M10.25 0 C20.46 0, 30.68 0, 37.75 0 M10.25 0 C18.4 0, 26.55 0, 37.75 0 M37.75 0 C44.58 0, 48 3.42, 48 10.25 M37.75 0 C44.58 0, 48 3.42, 48 10.25 M48 10.25 C48 15.78, 48 21.32, 48 30.75 M48 10.25 C48 18.18, 48 26.11, 48 30.75 M48 30.75 C48 37.58, 44.58 41, 37.75 41 M48 30.75 C48 37.58, 44.58 41, 37.75 41 M37.75 41 C30.51 41, 23.27 41, 10.25 41 M37.75 41 C29.99 41, 22.22 41, 10.25 41 M10.25 41 C3.42 41, 0 37.58, 0 30.75 M10.25 41 C3.42 41, 0 37.58, 0 30.75 M0 30.75 C0 24.26, 0 17.77, 0 10.25 M0 30.75 C0 25.72, 0 20.69, 0 10.25 M0 10.25 C0 3.42, 3.42 0, 10.25 0 M0 10.25 C0 3.42, 3.42 0, 10.25 0" stroke="#000000" stroke-width="1" fill="none"></path></g><g stroke-linecap="round" transform="translate(333.6140594482422 251) rotate(0 24 20.5)"><path d="M2.73 2.37 C2.73 2.37, 2.73 2.37, 2.73 2.37 M2.73 2.37 C2.73 2.37, 2.73 2.37, 2.73 2.37 M0.5 11.03 C2.42 8.83, 4.34 6.62, 9.68 0.47 M0.5 11.03 C2.58 8.63, 4.67 6.23, 9.68 0.47 M0.89 16.68 C4.44 12.59, 7.99 8.51, 14.67 0.83 M0.89 16.68 C3.88 13.24, 6.87 9.8, 14.67 0.83 M0.63 23.07 C7.02 15.73, 13.4 8.38, 20.31 0.43 M0.63 23.07 C5.15 17.87, 9.68 12.67, 20.31 0.43 M0.37 29.47 C9.44 19.04, 18.5 8.62, 25.3 0.79 M0.37 29.47 C7.66 21.08, 14.96 12.69, 25.3 0.79 M0.77 35.12 C9.92 24.58, 19.07 14.05, 30.94 0.4 M0.77 35.12 C12.76 21.32, 24.75 7.53, 30.94 0.4 M3.13 38.49 C14.38 25.55, 25.63 12.61, 35.93 0.76 M3.13 38.49 C11.47 28.89, 19.82 19.29, 35.93 0.76 M6.15 41.12 C18.53 26.88, 30.91 12.64, 41.57 0.36 M6.15 41.12 C18.37 27.06, 30.59 13, 41.57 0.36 M11.13 41.48 C23.24 27.55, 35.34 13.63, 45.25 2.23 M11.13 41.48 C20.51 30.69, 29.89 19.9, 45.25 2.23 M16.12 41.84 C27.22 29.07, 38.32 16.3, 47.61 5.61 M16.12 41.84 C23.27 33.61, 30.43 25.38, 47.61 5.61 M21.76 41.44 C32.38 29.23, 42.99 17.02, 48.66 10.5 M21.76 41.44 C30.25 31.68, 38.73 21.92, 48.66 10.5 M26.75 41.8 C35.16 32.13, 43.57 22.46, 48.4 16.9 M26.75 41.8 C31.88 35.9, 37.02 29.99, 48.4 16.9 M32.39 41.41 C38.85 33.98, 45.3 26.56, 48.8 22.54 M32.39 41.41 C36.11 37.14, 39.82 32.87, 48.8 22.54 M38.04 41.02 C40.33 38.37, 42.63 35.73, 48.53 28.94 M38.04 41.02 C41.26 37.3, 44.49 33.59, 48.53 28.94" stroke="#868e96" stroke-width="0.5" fill="none"></path><path d="M10.25 0 C20.46 0, 30.68 0, 37.75 0 M10.25 0 C18.4 0, 26.55 0, 37.75 0 M37.75 0 C44.58 0, 48 3.42, 48 10.25 M37.75 0 C44.58 0, 48 3.42, 48 10.25 M48 10.25 C48 15.78, 48 21.32, 48 30.75 M48 10.25 C48 18.18, 48 26.11, 48 30.75 M48 30.75 C48 37.58, 44.58 41, 37.75 41 M48 30.75 C48 37.58, 44.58 41, 37.75 41 M37.75 41 C30.51 41, 23.27 41, 10.25 41 M37.75 41 C29.99 41, 22.22 41, 10.25 41 M10.25 41 C3.42 41, 0 37.58, 0 30.75 M10.25 41 C3.42 41, 0 37.58, 0 30.75 M0 30.75 C0 24.26, 0 17.77, 0 10.25 M0 30.75 C0 25.72, 0 20.69, 0 10.25 M0 10.25 C0 3.42, 3.42 0, 10.25 0 M0 10.25 C0 3.42, 3.42 0, 10.25 0" stroke="#000000" stroke-width="1" fill="none"></path></g><g stroke-linecap="round"><g transform="translate(114.61405944824219 278.5) rotate(0 179.5 -7.5)"><path d="M0 0 C29.33 -2.5, 116.17 -14.33, 176 -15 C235.83 -15.67, 328.5 -5.83, 359 -4 M0 0 C29.33 -2.5, 116.17 -14.33, 176 -15 C235.83 -15.67, 328.5 -5.83, 359 -4" stroke="#1971c2" stroke-width="4" fill="none"></path></g><g transform="translate(114.61405944824219 278.5) rotate(0 179.5 -7.5)"><path d="M22.5 -10.89 C15.69 -7.59, 8.87 -4.29, 0 0 M22.5 -10.89 C15.38 -7.44, 8.26 -4, 0 0" stroke="#1971c2" stroke-width="4" fill="none"></path></g><g transform="translate(114.61405944824219 278.5) rotate(0 179.5 -7.5)"><path d="M24.24 6.12 C16.9 4.27, 9.56 2.42, 0 0 M24.24 6.12 C16.57 4.19, 8.9 2.25, 0 0" stroke="#1971c2" stroke-width="4" fill="none"></path></g><g transform="translate(114.61405944824219 278.5) rotate(0 179.5 -7.5)"><path d="M334.9 2.66 C342.2 0.65, 349.5 -1.37, 359 -4 M334.9 2.66 C342.53 0.55, 350.16 -1.55, 359 -4" stroke="#1971c2" stroke-width="4" fill="none"></path></g><g transform="translate(114.61405944824219 278.5) rotate(0 179.5 -7.5)"><path d="M336.26 -14.38 C343.15 -11.24, 350.03 -8.09, 359 -4 M336.26 -14.38 C343.46 -11.1, 350.65 -7.81, 359 -4" stroke="#1971c2" stroke-width="4" fill="none"></path></g></g><mask></mask><g stroke-opacity="0.5" fill-opacity="0.5" transform="translate(10 64) rotate(0 288.97406005859375 17.5)"><text x="288.97406005859375" y="0" font-family="Virgil, Segoe UI Emoji" font-size="28px" fill="#343a40" text-anchor="middle" style="white-space: pre;" direction="ltr" dominant-baseline="text-before-edge">over any multi-hop, multi-protocol topology</text></g><g stroke-opacity="0.5" fill-opacity="0.5" transform="translate(92.36607360839844 10) rotate(0 202.24798583984375 45)"><text x="202.24798583984375" y="0" font-family="Virgil, Segoe UI Emoji" font-size="36px" fill="#343a40" text-anchor="middle" style="white-space: pre;" direction="ltr" dominant-baseline="text-before-edge">End-to-end guarantees</text><text x="202.24798583984375" y="45" font-family="Virgil, Segoe UI Emoji" font-size="36px" fill="#343a40" text-anchor="middle" style="white-space: pre;" direction="ltr" dominant-baseline="text-before-edge"></text></g><g stroke-opacity="0.5" fill-opacity="0.5" transform="translate(257.52406311035156 389) rotate(0 135.08999633789062 25)"><text x="135.08999633789062" y="0" font-family="Virgil, Segoe UI Emoji" font-size="20px" fill="#343a40" text-anchor="middle" style="white-space: pre;" direction="ltr" dominant-baseline="text-before-edge">secure channel established </text><text x="135.08999633789062" y="25" font-family="Virgil, Segoe UI Emoji" font-size="20px" fill="#343a40" text-anchor="middle" style="white-space: pre;" direction="ltr" dominant-baseline="text-before-edge">at the application level</text></g><g stroke-linecap="round"><g stroke-opacity="0.5" fill-opacity="0.5" transform="translate(360.6140594482422 383) rotate(0 -41 -58.5)"><path d="M0 0 C-10.83 -7.5, -51.33 -25.5, -65 -45 C-78.67 -64.5, -79.17 -105, -82 -117" stroke="#343a40" stroke-width="1.5" fill="none" stroke-dasharray="8 9"></path></g><g stroke-opacity="0.5" fill-opacity="0.5" transform="translate(360.6140594482422 383) rotate(0 -41 -58.5)"><path d="M-70.36 -94.88 C-74.84 -103.41, -79.33 -111.94, -82 -117" stroke="#343a40" stroke-width="1.5" fill="none"></path></g><g stroke-opacity="0.5" fill-opacity="0.5" transform="translate(360.6140594482422 383) rotate(0 -41 -58.5)"><path d="M-87.3 -92.57 C-85.26 -101.99, -83.21 -111.41, -82 -117" stroke="#343a40" stroke-width="1.5" fill="none"></path></g></g><mask></mask></svg>