<svg version="1.1" xmlns="http://www.w3.org/2000/svg" viewBox="0 0 348.5015645873891 335.0943336174165" width="697.0031291747782" height="670.188667234833">
  <!-- svg-source:excalidraw -->
  
  <defs>
    <style class="style-fonts">
      @font-face {
        font-family: "Virgil";
        src: url("https://excalidraw.com/Virgil.woff2");
      }
      @font-face {
        font-family: "Cascadia";
        src: url("https://excalidraw.com/Cascadia.woff2");
      }
      @font-face {
        font-family: "Assistant";
        src: url("https://excalidraw.com/Assistant-Regular.woff2");
      }
    </style>
    
  </defs>
  <rect x="0" y="0" width="348.5015645873891" height="335.0943336174165" fill="#ffffff"></rect><g stroke-linecap="round" transform="translate(49.226384174585974 103.19401143407617) rotate(0 75.04992578114371 69.92791959436602)"><path d="M32 0 C64.97 0.57, 98.18 2.9, 118.1 0 C139.17 0.2, 150.78 9.7, 150.1 32 C148.11 59.14, 147.34 91.58, 150.1 107.86 C148.16 126.6, 142.04 136.78, 118.1 139.86 C95.19 137.45, 75.47 140.04, 32 139.86 C10.53 137.51, 2 129.01, 0 107.86 C2.48 86.64, 1.68 65.32, 0 32 C2.57 12.75, 14.02 1.52, 32 0" stroke="none" stroke-width="0" fill="#ffffff"></path><path d="M32 0 C65.69 0.9, 98.23 0.07, 118.1 0 M32 0 C56.46 -0.05, 79.83 -0.8, 118.1 0 M118.1 0 C140.2 0.01, 151.41 9.6, 150.1 32 M118.1 0 C141.35 -1.85, 151.4 12.07, 150.1 32 M150.1 32 C148.25 60.86, 149.57 90.85, 150.1 107.86 M150.1 32 C150.47 59.11, 150.44 88.21, 150.1 107.86 M150.1 107.86 C151.52 128.49, 138.4 141.39, 118.1 139.86 M150.1 107.86 C148.36 131.41, 140.24 140.25, 118.1 139.86 M118.1 139.86 C95.56 138.5, 74.41 140.96, 32 139.86 M118.1 139.86 C88.09 138.96, 57.63 139.81, 32 139.86 M32 139.86 C12.63 141.05, 1.8 128.48, 0 107.86 M32 139.86 C8.86 141.4, 1.58 127.87, 0 107.86 M0 107.86 C-0.77 87.55, 0.72 67.95, 0 32 M0 107.86 C1.04 92.15, -0.08 74.86, 0 32 M0 32 C1.02 8.78, 11.84 -1.16, 32 0 M0 32 C-1.51 8.8, 9.85 -1.78, 32 0" stroke="#1e1e1e" stroke-width="2" fill="none"></path></g><g stroke-linecap="round" transform="translate(47.19029295407836 92.84297519267244) rotate(0 76.95644688275945 16.784049389641723)"><path d="M8.39 0 C41.66 1.89, 72.89 -0.76, 145.52 0 C154.51 -0.99, 153.14 7.13, 153.91 8.39 C153.17 10.42, 149.39 19.15, 153.91 25.18 C148.88 27.29, 155.87 32.83, 145.52 33.57 C112.63 33.61, 81.58 37.09, 8.39 33.57 C2.35 30.86, -3.61 32.79, 0 25.18 C2.34 23.32, 0.63 12.26, 0 8.39 C-4.52 4.61, -2.59 -3.2, 8.39 0" stroke="none" stroke-width="0" fill="#ff8787"></path><path d="M8.39 0 C37.06 1.7, 74.28 -2.33, 145.52 0 M8.39 0 C47.35 0.24, 89.34 -0.7, 145.52 0 M145.52 0 C153.39 3.93, 155.23 5.65, 153.91 8.39 M145.52 0 C146.63 -1.65, 149.46 1.16, 153.91 8.39 M153.91 8.39 C155.28 15.47, 154.96 19.64, 153.91 25.18 M153.91 8.39 C155.13 11.47, 154.37 14.6, 153.91 25.18 M153.91 25.18 C156.98 30.59, 149.82 31.95, 145.52 33.57 M153.91 25.18 C149.38 30.31, 154.57 35.3, 145.52 33.57 M145.52 33.57 C103.33 31.34, 66.18 33.74, 8.39 33.57 M145.52 33.57 C116.91 30.97, 84.58 31.13, 8.39 33.57 M8.39 33.57 C-1.18 35.66, 1.41 28.36, 0 25.18 M8.39 33.57 C0.8 37.53, -0.47 27.87, 0 25.18 M0 25.18 C1.86 17.14, -3.37 11.24, 0 8.39 M0 25.18 C0.15 20.09, -0.86 17.88, 0 8.39 M0 8.39 C3.91 -0.92, 3.91 -1.03, 8.39 0 M0 8.39 C-2.77 2, 5.35 0.13, 8.39 0" stroke="#1e1e1e" stroke-width="2" fill="none"></path></g><g transform="translate(87.22634659541825 127.14996523926982) rotate(0 38.584898365811114 56.99788794949592)"><text x="0" y="0" font-family="Virgil, Segoe UI Emoji" font-size="91.19662071919353px" fill="#69db7c" text-anchor="start" style="white-space: pre;" direction="ltr" dominant-baseline="text-before-edge">✔</text></g><g stroke-linecap="round"><g transform="translate(51.69491530574817 128.69049370278992) rotate(0 72.91242789497187 0)"><path d="M0.58 -0.78 C24.74 -1.58, 123.38 -2.39, 147.42 -2.15 M-2.56 -3.68 C21.17 -2.99, 121.88 -0.99, 146.05 0.31" stroke="#1e1e1e" stroke-width="2" fill="none"></path></g></g><mask></mask><g transform="translate(94.35133954932428 99.81248238476513) rotate(0 27.856000900268555 10)"><text x="0" y="0" font-family="Virgil, Segoe UI Emoji" font-size="16px" fill="#1e1e1e" text-anchor="start" style="white-space: pre;" direction="ltr" dominant-baseline="text-before-edge">TODAY</text></g><g transform="translate(10 10) rotate(0 113.1659927368164 22.5)"><text x="113.1659927368164" y="0" font-family="Virgil, Segoe UI Emoji" font-size="36px" fill="#868e96" text-anchor="middle" style="white-space: pre;" direction="ltr" dominant-baseline="text-before-edge">Get started</text></g><g transform="translate(156.5015645873891 285.0943336174165) rotate(0 91 20)"><text x="91" y="0" font-family="Virgil, Segoe UI Emoji" font-size="16px" fill="#868e96" text-anchor="middle" style="white-space: pre;" direction="ltr" dominant-baseline="text-before-edge">All these features are</text><text x="91" y="20" font-family="Virgil, Segoe UI Emoji" font-size="16px" fill="#868e96" text-anchor="middle" style="white-space: pre;" direction="ltr" dominant-baseline="text-before-edge">already available!</text></g><g stroke-linecap="round"><g transform="translate(259.31169442752616 300.53834956221107) rotate(0 0 0)"><path d="M-0.51 -0.35 C-0.55 -0.38, -0.68 -0.62, -0.59 -0.57 M0.61 1.11 C0.83 1.19, 0.98 0.16, 0.8 0.09" stroke="#868e96" stroke-width="2" fill="none"></path></g><g transform="translate(259.31169442752616 300.53834956221107) rotate(0 0 0)"><path d="M0.8 0.09 C0.8 0.09, 0.8 0.09, 0.8 0.09 M0.8 0.09 C0.8 0.09, 0.8 0.09, 0.8 0.09" stroke="#868e96" stroke-width="2" fill="none"></path></g><g transform="translate(259.31169442752616 300.53834956221107) rotate(0 0 0)"><path d="M0.8 0.09 C0.8 0.09, 0.8 0.09, 0.8 0.09 M0.8 0.09 C0.8 0.09, 0.8 0.09, 0.8 0.09" stroke="#868e96" stroke-width="2" fill="none"></path></g></g><mask></mask></svg>