<svg version="1.1" xmlns="http://www.w3.org/2000/svg" viewBox="0 0 784.0080693359375 440" width="1568.016138671875" height="880">
  <!-- svg-source:excalidraw -->
  
  <defs>
    <style class="style-fonts">
      @font-face {
        font-family: "Virgil";
        src: url("https://excalidraw.com/Virgil.woff2");
      }
      @font-face {
        font-family: "Cascadia";
        src: url("https://excalidraw.com/Cascadia.woff2");
      }
      @font-face {
        font-family: "Assistant";
        src: url("https://excalidraw.com/Assistant-Regular.woff2");
      }
    </style>
    
  </defs>
  <rect x="0" y="0" width="784.0080693359375" height="440" fill="#ffffff"></rect><g stroke-linecap="round" transform="translate(10.000000000000057 231.248) rotate(0 78.352 78.352)"><path d="M156.7 78.35 C156.7 81.08, 156.56 83.83, 156.27 86.54 C155.99 89.26, 155.56 91.97, 154.99 94.64 C154.42 97.31, 153.71 99.97, 152.87 102.56 C152.03 105.16, 151.04 107.73, 149.93 110.22 C148.82 112.71, 147.57 115.16, 146.21 117.53 C144.84 119.89, 143.34 122.2, 141.74 124.41 C140.14 126.61, 138.41 128.75, 136.58 130.78 C134.75 132.81, 132.81 134.75, 130.78 136.58 C128.75 138.41, 126.61 140.14, 124.41 141.74 C122.2 143.34, 119.89 144.84, 117.53 146.21 C115.16 147.57, 112.71 148.82, 110.22 149.93 C107.73 151.04, 105.16 152.03, 102.56 152.87 C99.97 153.71, 97.31 154.42, 94.64 154.99 C91.97 155.56, 89.26 155.99, 86.54 156.27 C83.83 156.56, 81.08 156.7, 78.35 156.7 C75.62 156.7, 72.88 156.56, 70.16 156.27 C67.45 155.99, 64.73 155.56, 62.06 154.99 C59.39 154.42, 56.74 153.71, 54.14 152.87 C51.54 152.03, 48.98 151.04, 46.48 149.93 C43.99 148.82, 41.54 147.57, 39.18 146.21 C36.81 144.84, 34.51 143.34, 32.3 141.74 C30.09 140.14, 27.95 138.41, 25.92 136.58 C23.9 134.75, 21.95 132.81, 20.13 130.78 C18.3 128.75, 16.57 126.61, 14.96 124.41 C13.36 122.2, 11.86 119.89, 10.5 117.53 C9.13 115.16, 7.88 112.71, 6.77 110.22 C5.66 107.73, 4.68 105.16, 3.83 102.56 C2.99 99.97, 2.28 97.31, 1.71 94.64 C1.14 91.97, 0.71 89.26, 0.43 86.54 C0.14 83.83, 0 81.08, 0 78.35 C0 75.62, 0.14 72.88, 0.43 70.16 C0.71 67.45, 1.14 64.73, 1.71 62.06 C2.28 59.39, 2.99 56.74, 3.83 54.14 C4.68 51.54, 5.66 48.98, 6.77 46.48 C7.88 43.99, 9.13 41.54, 10.5 39.18 C11.86 36.81, 13.36 34.51, 14.96 32.3 C16.57 30.09, 18.3 27.95, 20.13 25.92 C21.95 23.9, 23.9 21.95, 25.92 20.13 C27.95 18.3, 30.09 16.57, 32.3 14.96 C34.51 13.36, 36.81 11.86, 39.18 10.5 C41.54 9.13, 43.99 7.88, 46.48 6.77 C48.98 5.66, 51.54 4.68, 54.14 3.83 C56.74 2.99, 59.39 2.28, 62.06 1.71 C64.73 1.14, 67.45 0.71, 70.16 0.43 C72.88 0.14, 75.62 0, 78.35 0 C81.08 0, 83.83 0.14, 86.54 0.43 C89.26 0.71, 91.97 1.14, 94.64 1.71 C97.31 2.28, 99.97 2.99, 102.56 3.83 C105.16 4.68, 107.73 5.66, 110.22 6.77 C112.71 7.88, 115.16 9.13, 117.53 10.5 C119.89 11.86, 122.2 13.36, 124.41 14.96 C126.61 16.57, 128.75 18.3, 130.78 20.13 C132.81 21.95, 134.75 23.9, 136.58 25.92 C138.41 27.95, 140.14 30.09, 141.74 32.3 C143.34 34.51, 144.84 36.81, 146.21 39.18 C147.57 41.54, 148.82 43.99, 149.93 46.48 C151.04 48.98, 152.03 51.54, 152.87 54.14 C153.71 56.74, 154.42 59.39, 154.99 62.06 C155.56 64.73, 155.99 67.45, 156.27 70.16 C156.56 72.88, 156.63 76.99, 156.7 78.35 C156.78 79.72, 156.78 76.99, 156.7 78.35" stroke="none" stroke-width="0" fill="#15aabf"></path><path d="M156.7 78.35 C156.7 81.08, 156.56 83.83, 156.27 86.54 C155.99 89.26, 155.56 91.97, 154.99 94.64 C154.42 97.31, 153.71 99.97, 152.87 102.56 C152.03 105.16, 151.04 107.73, 149.93 110.22 C148.82 112.71, 147.57 115.16, 146.21 117.53 C144.84 119.89, 143.34 122.2, 141.74 124.41 C140.14 126.61, 138.41 128.75, 136.58 130.78 C134.75 132.81, 132.81 134.75, 130.78 136.58 C128.75 138.41, 126.61 140.14, 124.41 141.74 C122.2 143.34, 119.89 144.84, 117.53 146.21 C115.16 147.57, 112.71 148.82, 110.22 149.93 C107.73 151.04, 105.16 152.03, 102.56 152.87 C99.97 153.71, 97.31 154.42, 94.64 154.99 C91.97 155.56, 89.26 155.99, 86.54 156.27 C83.83 156.56, 81.08 156.7, 78.35 156.7 C75.62 156.7, 72.88 156.56, 70.16 156.27 C67.45 155.99, 64.73 155.56, 62.06 154.99 C59.39 154.42, 56.74 153.71, 54.14 152.87 C51.54 152.03, 48.98 151.04, 46.48 149.93 C43.99 148.82, 41.54 147.57, 39.18 146.21 C36.81 144.84, 34.51 143.34, 32.3 141.74 C30.09 140.14, 27.95 138.41, 25.92 136.58 C23.9 134.75, 21.95 132.81, 20.13 130.78 C18.3 128.75, 16.57 126.61, 14.96 124.41 C13.36 122.2, 11.86 119.89, 10.5 117.53 C9.13 115.16, 7.88 112.71, 6.77 110.22 C5.66 107.73, 4.68 105.16, 3.83 102.56 C2.99 99.97, 2.28 97.31, 1.71 94.64 C1.14 91.97, 0.71 89.26, 0.43 86.54 C0.14 83.83, 0 81.08, 0 78.35 C0 75.62, 0.14 72.88, 0.43 70.16 C0.71 67.45, 1.14 64.73, 1.71 62.06 C2.28 59.39, 2.99 56.74, 3.83 54.14 C4.68 51.54, 5.66 48.98, 6.77 46.48 C7.88 43.99, 9.13 41.54, 10.5 39.18 C11.86 36.81, 13.36 34.51, 14.96 32.3 C16.57 30.09, 18.3 27.95, 20.13 25.92 C21.95 23.9, 23.9 21.95, 25.92 20.13 C27.95 18.3, 30.09 16.57, 32.3 14.96 C34.51 13.36, 36.81 11.86, 39.18 10.5 C41.54 9.13, 43.99 7.88, 46.48 6.77 C48.98 5.66, 51.54 4.68, 54.14 3.83 C56.74 2.99, 59.39 2.28, 62.06 1.71 C64.73 1.14, 67.45 0.71, 70.16 0.43 C72.88 0.14, 75.62 0, 78.35 0 C81.08 0, 83.83 0.14, 86.54 0.43 C89.26 0.71, 91.97 1.14, 94.64 1.71 C97.31 2.28, 99.97 2.99, 102.56 3.83 C105.16 4.68, 107.73 5.66, 110.22 6.77 C112.71 7.88, 115.16 9.13, 117.53 10.5 C119.89 11.86, 122.2 13.36, 124.41 14.96 C126.61 16.57, 128.75 18.3, 130.78 20.13 C132.81 21.95, 134.75 23.9, 136.58 25.92 C138.41 27.95, 140.14 30.09, 141.74 32.3 C143.34 34.51, 144.84 36.81, 146.21 39.18 C147.57 41.54, 148.82 43.99, 149.93 46.48 C151.04 48.98, 152.03 51.54, 152.87 54.14 C153.71 56.74, 154.42 59.39, 154.99 62.06 C155.56 64.73, 155.99 67.45, 156.27 70.16 C156.56 72.88, 156.63 76.99, 156.7 78.35 C156.78 79.72, 156.78 76.99, 156.7 78.35" stroke="#15aabf" stroke-width="2" fill="none"></path></g><g stroke-linecap="round" transform="translate(79.85600000000005 210.48000000000002) rotate(0 60.888000000000005 60.888000000000005)"><path d="M121.78 60.89 C121.78 63.33, 121.63 65.8, 121.33 68.23 C121.04 70.66, 120.59 73.08, 120.01 75.46 C119.42 77.83, 118.69 80.19, 117.82 82.48 C116.95 84.77, 115.94 87.02, 114.8 89.18 C113.66 91.35, 112.39 93.46, 111 95.48 C109.61 97.49, 108.09 99.43, 106.46 101.26 C104.84 103.1, 103.1 104.84, 101.26 106.46 C99.43 108.09, 97.49 109.61, 95.48 111 C93.46 112.39, 91.35 113.66, 89.18 114.8 C87.02 115.94, 84.77 116.95, 82.48 117.82 C80.19 118.69, 77.83 119.42, 75.46 120.01 C73.08 120.59, 70.66 121.04, 68.23 121.33 C65.8 121.63, 63.33 121.78, 60.89 121.78 C58.44 121.78, 55.98 121.63, 53.55 121.33 C51.12 121.04, 48.69 120.59, 46.32 120.01 C43.94 119.42, 41.58 118.69, 39.3 117.82 C37.01 116.95, 34.76 115.94, 32.59 114.8 C30.43 113.66, 28.31 112.39, 26.3 111 C24.29 109.61, 22.34 108.09, 20.51 106.46 C18.68 104.84, 16.93 103.1, 15.31 101.26 C13.69 99.43, 12.17 97.49, 10.78 95.48 C9.39 93.46, 8.11 91.35, 6.97 89.18 C5.84 87.02, 4.82 84.77, 3.96 82.48 C3.09 80.19, 2.35 77.83, 1.77 75.46 C1.18 73.08, 0.74 70.66, 0.44 68.23 C0.15 65.8, 0 63.33, 0 60.89 C0 58.44, 0.15 55.98, 0.44 53.55 C0.74 51.12, 1.18 48.69, 1.77 46.32 C2.35 43.94, 3.09 41.58, 3.96 39.3 C4.82 37.01, 5.84 34.76, 6.97 32.59 C8.11 30.43, 9.39 28.31, 10.78 26.3 C12.17 24.29, 13.69 22.34, 15.31 20.51 C16.93 18.68, 18.68 16.93, 20.51 15.31 C22.34 13.69, 24.29 12.17, 26.3 10.78 C28.31 9.39, 30.43 8.11, 32.59 6.97 C34.76 5.84, 37.01 4.82, 39.3 3.96 C41.58 3.09, 43.94 2.35, 46.32 1.77 C48.69 1.18, 51.12 0.74, 53.55 0.44 C55.98 0.15, 58.44 0, 60.89 0 C63.33 0, 65.8 0.15, 68.23 0.44 C70.66 0.74, 73.08 1.18, 75.46 1.77 C77.83 2.35, 80.19 3.09, 82.48 3.96 C84.77 4.82, 87.02 5.84, 89.18 6.97 C91.35 8.11, 93.46 9.39, 95.48 10.78 C97.49 12.17, 99.43 13.69, 101.26 15.31 C103.1 16.93, 104.84 18.68, 106.46 20.51 C108.09 22.34, 109.61 24.29, 111 26.3 C112.39 28.31, 113.66 30.43, 114.8 32.59 C115.94 34.76, 116.95 37.01, 117.82 39.3 C118.69 41.58, 119.42 43.94, 120.01 46.32 C120.59 48.69, 121.04 51.12, 121.33 53.55 C121.63 55.98, 121.78 58.44, 121.78 60.89" stroke="none" stroke-width="0" fill="#15aabf"></path><path d="M121.78 60.89 C121.78 63.33, 121.63 65.8, 121.33 68.23 C121.04 70.66, 120.59 73.08, 120.01 75.46 C119.42 77.83, 118.69 80.19, 117.82 82.48 C116.95 84.77, 115.94 87.02, 114.8 89.18 C113.66 91.35, 112.39 93.46, 111 95.48 C109.61 97.49, 108.09 99.43, 106.46 101.26 C104.84 103.1, 103.1 104.84, 101.26 106.46 C99.43 108.09, 97.49 109.61, 95.48 111 C93.46 112.39, 91.35 113.66, 89.18 114.8 C87.02 115.94, 84.77 116.95, 82.48 117.82 C80.19 118.69, 77.83 119.42, 75.46 120.01 C73.08 120.59, 70.66 121.04, 68.23 121.33 C65.8 121.63, 63.33 121.78, 60.89 121.78 C58.44 121.78, 55.98 121.63, 53.55 121.33 C51.12 121.04, 48.69 120.59, 46.32 120.01 C43.94 119.42, 41.58 118.69, 39.3 117.82 C37.01 116.95, 34.76 115.94, 32.59 114.8 C30.43 113.66, 28.31 112.39, 26.3 111 C24.29 109.61, 22.34 108.09, 20.51 106.46 C18.68 104.84, 16.93 103.1, 15.31 101.26 C13.69 99.43, 12.17 97.49, 10.78 95.48 C9.39 93.46, 8.11 91.35, 6.97 89.18 C5.84 87.02, 4.82 84.77, 3.96 82.48 C3.09 80.19, 2.35 77.83, 1.77 75.46 C1.18 73.08, 0.74 70.66, 0.44 68.23 C0.15 65.8, 0 63.33, 0 60.89 C0 58.44, 0.15 55.98, 0.44 53.55 C0.74 51.12, 1.18 48.69, 1.77 46.32 C2.35 43.94, 3.09 41.58, 3.96 39.3 C4.82 37.01, 5.84 34.76, 6.97 32.59 C8.11 30.43, 9.39 28.31, 10.78 26.3 C12.17 24.29, 13.69 22.34, 15.31 20.51 C16.93 18.68, 18.68 16.93, 20.51 15.31 C22.34 13.69, 24.29 12.17, 26.3 10.78 C28.31 9.39, 30.43 8.11, 32.59 6.97 C34.76 5.84, 37.01 4.82, 39.3 3.96 C41.58 3.09, 43.94 2.35, 46.32 1.77 C48.69 1.18, 51.12 0.74, 53.55 0.44 C55.98 0.15, 58.44 0, 60.89 0 C63.33 0, 65.8 0.15, 68.23 0.44 C70.66 0.74, 73.08 1.18, 75.46 1.77 C77.83 2.35, 80.19 3.09, 82.48 3.96 C84.77 4.82, 87.02 5.84, 89.18 6.97 C91.35 8.11, 93.46 9.39, 95.48 10.78 C97.49 12.17, 99.43 13.69, 101.26 15.31 C103.1 16.93, 104.84 18.68, 106.46 20.51 C108.09 22.34, 109.61 24.29, 111 26.3 C112.39 28.31, 113.66 30.43, 114.8 32.59 C115.94 34.76, 116.95 37.01, 117.82 39.3 C118.69 41.58, 119.42 43.94, 120.01 46.32 C120.59 48.69, 121.04 51.12, 121.33 53.55 C121.63 55.98, 121.78 58.44, 121.78 60.89" stroke="#15aabf" stroke-width="2" fill="none"></path></g><g stroke-linecap="round" transform="translate(149.712 168) rotate(0 74.57600000000002 74.576)"><path d="M149.15 74.58 C149.15 77.36, 148.99 80.16, 148.68 82.93 C148.37 85.69, 147.9 88.46, 147.28 91.17 C146.66 93.88, 145.89 96.58, 144.97 99.21 C144.05 101.83, 142.97 104.43, 141.77 106.93 C140.56 109.44, 139.2 111.9, 137.72 114.25 C136.24 116.61, 134.62 118.9, 132.88 121.07 C131.15 123.25, 129.28 125.34, 127.31 127.31 C125.34 129.28, 123.25 131.15, 121.07 132.88 C118.9 134.62, 116.61 136.24, 114.25 137.72 C111.9 139.2, 109.44 140.56, 106.93 141.77 C104.43 142.97, 101.83 144.05, 99.21 144.97 C96.58 145.89, 93.88 146.66, 91.17 147.28 C88.46 147.9, 85.69 148.37, 82.93 148.68 C80.16 148.99, 77.36 149.15, 74.58 149.15 C71.79 149.15, 68.99 148.99, 66.23 148.68 C63.46 148.37, 60.69 147.9, 57.98 147.28 C55.27 146.66, 52.57 145.89, 49.95 144.97 C47.32 144.05, 44.73 142.97, 42.22 141.77 C39.71 140.56, 37.26 139.2, 34.9 137.72 C32.54 136.24, 30.25 134.62, 28.08 132.88 C25.9 131.15, 23.81 129.28, 21.84 127.31 C19.87 125.34, 18.01 123.25, 16.27 121.07 C14.53 118.9, 12.91 116.61, 11.43 114.25 C9.95 111.9, 8.59 109.44, 7.39 106.93 C6.18 104.43, 5.1 101.83, 4.18 99.21 C3.27 96.58, 2.49 93.88, 1.87 91.17 C1.25 88.46, 0.78 85.69, 0.47 82.93 C0.16 80.16, 0 77.36, 0 74.58 C0 71.79, 0.16 68.99, 0.47 66.23 C0.78 63.46, 1.25 60.69, 1.87 57.98 C2.49 55.27, 3.27 52.57, 4.18 49.95 C5.1 47.32, 6.18 44.73, 7.39 42.22 C8.59 39.71, 9.95 37.26, 11.43 34.9 C12.91 32.54, 14.53 30.25, 16.27 28.08 C18.01 25.9, 19.87 23.81, 21.84 21.84 C23.81 19.87, 25.9 18.01, 28.08 16.27 C30.25 14.53, 32.54 12.91, 34.9 11.43 C37.26 9.95, 39.71 8.59, 42.22 7.39 C44.73 6.18, 47.32 5.1, 49.95 4.18 C52.57 3.27, 55.27 2.49, 57.98 1.87 C60.69 1.25, 63.46 0.78, 66.23 0.47 C68.99 0.16, 71.79 0, 74.58 0 C77.36 0, 80.16 0.16, 82.93 0.47 C85.69 0.78, 88.46 1.25, 91.17 1.87 C93.88 2.49, 96.58 3.27, 99.21 4.18 C101.83 5.1, 104.43 6.18, 106.93 7.39 C109.44 8.59, 111.9 9.95, 114.25 11.43 C116.61 12.91, 118.9 14.53, 121.07 16.27 C123.25 18.01, 125.34 19.87, 127.31 21.84 C129.28 23.81, 131.15 25.9, 132.88 28.08 C134.62 30.25, 136.24 32.54, 137.72 34.9 C139.2 37.26, 140.56 39.71, 141.77 42.22 C142.97 44.73, 144.05 47.32, 144.97 49.95 C145.89 52.57, 146.66 55.27, 147.28 57.98 C147.9 60.69, 148.37 63.46, 148.68 66.23 C148.99 68.99, 149.07 73.18, 149.15 74.58 C149.23 75.97, 149.23 73.18, 149.15 74.58" stroke="none" stroke-width="0" fill="#15aabf"></path><path d="M149.15 74.58 C149.15 77.36, 148.99 80.16, 148.68 82.93 C148.37 85.69, 147.9 88.46, 147.28 91.17 C146.66 93.88, 145.89 96.58, 144.97 99.21 C144.05 101.83, 142.97 104.43, 141.77 106.93 C140.56 109.44, 139.2 111.9, 137.72 114.25 C136.24 116.61, 134.62 118.9, 132.88 121.07 C131.15 123.25, 129.28 125.34, 127.31 127.31 C125.34 129.28, 123.25 131.15, 121.07 132.88 C118.9 134.62, 116.61 136.24, 114.25 137.72 C111.9 139.2, 109.44 140.56, 106.93 141.77 C104.43 142.97, 101.83 144.05, 99.21 144.97 C96.58 145.89, 93.88 146.66, 91.17 147.28 C88.46 147.9, 85.69 148.37, 82.93 148.68 C80.16 148.99, 77.36 149.15, 74.58 149.15 C71.79 149.15, 68.99 148.99, 66.23 148.68 C63.46 148.37, 60.69 147.9, 57.98 147.28 C55.27 146.66, 52.57 145.89, 49.95 144.97 C47.32 144.05, 44.73 142.97, 42.22 141.77 C39.71 140.56, 37.26 139.2, 34.9 137.72 C32.54 136.24, 30.25 134.62, 28.08 132.88 C25.9 131.15, 23.81 129.28, 21.84 127.31 C19.87 125.34, 18.01 123.25, 16.27 121.07 C14.53 118.9, 12.91 116.61, 11.43 114.25 C9.95 111.9, 8.59 109.44, 7.39 106.93 C6.18 104.43, 5.1 101.83, 4.18 99.21 C3.27 96.58, 2.49 93.88, 1.87 91.17 C1.25 88.46, 0.78 85.69, 0.47 82.93 C0.16 80.16, 0 77.36, 0 74.58 C0 71.79, 0.16 68.99, 0.47 66.23 C0.78 63.46, 1.25 60.69, 1.87 57.98 C2.49 55.27, 3.27 52.57, 4.18 49.95 C5.1 47.32, 6.18 44.73, 7.39 42.22 C8.59 39.71, 9.95 37.26, 11.43 34.9 C12.91 32.54, 14.53 30.25, 16.27 28.08 C18.01 25.9, 19.87 23.81, 21.84 21.84 C23.81 19.87, 25.9 18.01, 28.08 16.27 C30.25 14.53, 32.54 12.91, 34.9 11.43 C37.26 9.95, 39.71 8.59, 42.22 7.39 C44.73 6.18, 47.32 5.1, 49.95 4.18 C52.57 3.27, 55.27 2.49, 57.98 1.87 C60.69 1.25, 63.46 0.78, 66.23 0.47 C68.99 0.16, 71.79 0, 74.58 0 C77.36 0, 80.16 0.16, 82.93 0.47 C85.69 0.78, 88.46 1.25, 91.17 1.87 C93.88 2.49, 96.58 3.27, 99.21 4.18 C101.83 5.1, 104.43 6.18, 106.93 7.39 C109.44 8.59, 111.9 9.95, 114.25 11.43 C116.61 12.91, 118.9 14.53, 121.07 16.27 C123.25 18.01, 125.34 19.87, 127.31 21.84 C129.28 23.81, 131.15 25.9, 132.88 28.08 C134.62 30.25, 136.24 32.54, 137.72 34.9 C139.2 37.26, 140.56 39.71, 141.77 42.22 C142.97 44.73, 144.05 47.32, 144.97 49.95 C145.89 52.57, 146.66 55.27, 147.28 57.98 C147.9 60.69, 148.37 63.46, 148.68 66.23 C148.99 68.99, 149.07 73.18, 149.15 74.58 C149.23 75.97, 149.23 73.18, 149.15 74.58" stroke="#15aabf" stroke-width="2" fill="none"></path></g><g stroke-linecap="round" transform="translate(182.75200000000007 202.928) rotate(0 100.536 100.536)"><path d="M201.07 100.54 C201.07 103.82, 200.91 107.12, 200.59 110.39 C200.27 113.66, 199.78 116.93, 199.14 120.15 C198.5 123.37, 197.7 126.58, 196.74 129.72 C195.79 132.86, 194.68 135.97, 193.42 139.01 C192.16 142.04, 190.75 145.03, 189.2 147.93 C187.65 150.83, 185.95 153.66, 184.13 156.39 C182.3 159.12, 180.34 161.78, 178.25 164.32 C176.17 166.85, 173.95 169.3, 171.63 171.63 C169.3 173.95, 166.85 176.17, 164.32 178.25 C161.78 180.34, 159.12 182.3, 156.39 184.13 C153.66 185.95, 150.83 187.65, 147.93 189.2 C145.03 190.75, 142.04 192.16, 139.01 193.42 C135.97 194.68, 132.86 195.79, 129.72 196.74 C126.58 197.7, 123.37 198.5, 120.15 199.14 C116.93 199.78, 113.66 200.27, 110.39 200.59 C107.12 200.91, 103.82 201.07, 100.54 201.07 C97.25 201.07, 93.95 200.91, 90.68 200.59 C87.41 200.27, 84.14 199.78, 80.92 199.14 C77.7 198.5, 74.5 197.7, 71.35 196.74 C68.21 195.79, 65.1 194.68, 62.06 193.42 C59.03 192.16, 56.04 190.75, 53.14 189.2 C50.25 187.65, 47.41 185.95, 44.68 184.13 C41.95 182.3, 39.3 180.34, 36.76 178.25 C34.22 176.17, 31.77 173.95, 29.45 171.63 C27.12 169.3, 24.9 166.85, 22.82 164.32 C20.74 161.78, 18.77 159.12, 16.94 156.39 C15.12 153.66, 13.42 150.83, 11.87 147.93 C10.32 145.03, 8.91 142.04, 7.65 139.01 C6.4 135.97, 5.28 132.86, 4.33 129.72 C3.38 126.58, 2.57 123.37, 1.93 120.15 C1.29 116.93, 0.81 113.66, 0.48 110.39 C0.16 107.12, 0 103.82, 0 100.54 C0 97.25, 0.16 93.95, 0.48 90.68 C0.81 87.41, 1.29 84.14, 1.93 80.92 C2.57 77.7, 3.38 74.5, 4.33 71.35 C5.28 68.21, 6.4 65.1, 7.65 62.06 C8.91 59.03, 10.32 56.04, 11.87 53.14 C13.42 50.25, 15.12 47.41, 16.94 44.68 C18.77 41.95, 20.74 39.3, 22.82 36.76 C24.9 34.22, 27.12 31.77, 29.45 29.45 C31.77 27.12, 34.22 24.9, 36.76 22.82 C39.3 20.74, 41.95 18.77, 44.68 16.94 C47.41 15.12, 50.25 13.42, 53.14 11.87 C56.04 10.32, 59.03 8.91, 62.06 7.65 C65.1 6.4, 68.21 5.28, 71.35 4.33 C74.5 3.38, 77.7 2.57, 80.92 1.93 C84.14 1.29, 87.41 0.81, 90.68 0.48 C93.95 0.16, 97.25 0, 100.54 0 C103.82 0, 107.12 0.16, 110.39 0.48 C113.66 0.81, 116.93 1.29, 120.15 1.93 C123.37 2.57, 126.58 3.38, 129.72 4.33 C132.86 5.28, 135.97 6.4, 139.01 7.65 C142.04 8.91, 145.03 10.32, 147.93 11.87 C150.83 13.42, 153.66 15.12, 156.39 16.94 C159.12 18.77, 161.78 20.74, 164.32 22.82 C166.85 24.9, 169.3 27.12, 171.63 29.45 C173.95 31.77, 176.17 34.22, 178.25 36.76 C180.34 39.3, 182.3 41.95, 184.13 44.68 C185.95 47.41, 187.65 50.25, 189.2 53.14 C190.75 56.04, 192.16 59.03, 193.42 62.06 C194.68 65.1, 195.79 68.21, 196.74 71.35 C197.7 74.5, 198.5 77.7, 199.14 80.92 C199.78 84.14, 200.27 87.41, 200.59 90.68 C200.91 93.95, 200.99 98.89, 201.07 100.54 C201.15 102.18, 201.15 98.89, 201.07 100.54" stroke="none" stroke-width="0" fill="#15aabf"></path><path d="M201.07 100.54 C201.07 103.82, 200.91 107.12, 200.59 110.39 C200.27 113.66, 199.78 116.93, 199.14 120.15 C198.5 123.37, 197.7 126.58, 196.74 129.72 C195.79 132.86, 194.68 135.97, 193.42 139.01 C192.16 142.04, 190.75 145.03, 189.2 147.93 C187.65 150.83, 185.95 153.66, 184.13 156.39 C182.3 159.12, 180.34 161.78, 178.25 164.32 C176.17 166.85, 173.95 169.3, 171.63 171.63 C169.3 173.95, 166.85 176.17, 164.32 178.25 C161.78 180.34, 159.12 182.3, 156.39 184.13 C153.66 185.95, 150.83 187.65, 147.93 189.2 C145.03 190.75, 142.04 192.16, 139.01 193.42 C135.97 194.68, 132.86 195.79, 129.72 196.74 C126.58 197.7, 123.37 198.5, 120.15 199.14 C116.93 199.78, 113.66 200.27, 110.39 200.59 C107.12 200.91, 103.82 201.07, 100.54 201.07 C97.25 201.07, 93.95 200.91, 90.68 200.59 C87.41 200.27, 84.14 199.78, 80.92 199.14 C77.7 198.5, 74.5 197.7, 71.35 196.74 C68.21 195.79, 65.1 194.68, 62.06 193.42 C59.03 192.16, 56.04 190.75, 53.14 189.2 C50.25 187.65, 47.41 185.95, 44.68 184.13 C41.95 182.3, 39.3 180.34, 36.76 178.25 C34.22 176.17, 31.77 173.95, 29.45 171.63 C27.12 169.3, 24.9 166.85, 22.82 164.32 C20.74 161.78, 18.77 159.12, 16.94 156.39 C15.12 153.66, 13.42 150.83, 11.87 147.93 C10.32 145.03, 8.91 142.04, 7.65 139.01 C6.4 135.97, 5.28 132.86, 4.33 129.72 C3.38 126.58, 2.57 123.37, 1.93 120.15 C1.29 116.93, 0.81 113.66, 0.48 110.39 C0.16 107.12, 0 103.82, 0 100.54 C0 97.25, 0.16 93.95, 0.48 90.68 C0.81 87.41, 1.29 84.14, 1.93 80.92 C2.57 77.7, 3.38 74.5, 4.33 71.35 C5.28 68.21, 6.4 65.1, 7.65 62.06 C8.91 59.03, 10.32 56.04, 11.87 53.14 C13.42 50.25, 15.12 47.41, 16.94 44.68 C18.77 41.95, 20.74 39.3, 22.82 36.76 C24.9 34.22, 27.12 31.77, 29.45 29.45 C31.77 27.12, 34.22 24.9, 36.76 22.82 C39.3 20.74, 41.95 18.77, 44.68 16.94 C47.41 15.12, 50.25 13.42, 53.14 11.87 C56.04 10.32, 59.03 8.91, 62.06 7.65 C65.1 6.4, 68.21 5.28, 71.35 4.33 C74.5 3.38, 77.7 2.57, 80.92 1.93 C84.14 1.29, 87.41 0.81, 90.68 0.48 C93.95 0.16, 97.25 0, 100.54 0 C103.82 0, 107.12 0.16, 110.39 0.48 C113.66 0.81, 116.93 1.29, 120.15 1.93 C123.37 2.57, 126.58 3.38, 129.72 4.33 C132.86 5.28, 135.97 6.4, 139.01 7.65 C142.04 8.91, 145.03 10.32, 147.93 11.87 C150.83 13.42, 153.66 15.12, 156.39 16.94 C159.12 18.77, 161.78 20.74, 164.32 22.82 C166.85 24.9, 169.3 27.12, 171.63 29.45 C173.95 31.77, 176.17 34.22, 178.25 36.76 C180.34 39.3, 182.3 41.95, 184.13 44.68 C185.95 47.41, 187.65 50.25, 189.2 53.14 C190.75 56.04, 192.16 59.03, 193.42 62.06 C194.68 65.1, 195.79 68.21, 196.74 71.35 C197.7 74.5, 198.5 77.7, 199.14 80.92 C199.78 84.14, 200.27 87.41, 200.59 90.68 C200.91 93.95, 200.99 98.89, 201.07 100.54 C201.15 102.18, 201.15 98.89, 201.07 100.54" stroke="#15aabf" stroke-width="2" fill="none"></path></g><g stroke-linecap="round" transform="translate(116.67200000000003 288.832) rotate(0 53.33600000000001 53.33600000000001)"><path d="M106.67 53.34 C106.67 55.66, 106.52 58, 106.22 60.3 C105.91 62.6, 105.46 64.9, 104.85 67.14 C104.25 69.38, 103.5 71.6, 102.61 73.75 C101.72 75.89, 100.69 77.99, 99.53 80 C98.37 82.01, 97.06 83.96, 95.65 85.8 C94.24 87.65, 92.69 89.41, 91.05 91.05 C89.41 92.69, 87.65 94.24, 85.8 95.65 C83.96 97.06, 82.01 98.37, 80 99.53 C77.99 100.69, 75.89 101.72, 73.75 102.61 C71.6 103.5, 69.38 104.25, 67.14 104.85 C64.9 105.46, 62.6 105.91, 60.3 106.22 C58 106.52, 55.66 106.67, 53.34 106.67 C51.02 106.67, 48.67 106.52, 46.37 106.22 C44.07 105.91, 41.77 105.46, 39.53 104.85 C37.29 104.25, 35.07 103.5, 32.93 102.61 C30.78 101.72, 28.68 100.69, 26.67 99.53 C24.66 98.37, 22.71 97.06, 20.87 95.65 C19.03 94.24, 17.26 92.69, 15.62 91.05 C13.98 89.41, 12.43 87.65, 11.02 85.8 C9.61 83.96, 8.31 82.01, 7.15 80 C5.99 77.99, 4.95 75.89, 4.06 73.75 C3.17 71.6, 2.42 69.38, 1.82 67.14 C1.22 64.9, 0.76 62.6, 0.46 60.3 C0.15 58, 0 55.66, 0 53.34 C0 51.02, 0.15 48.67, 0.46 46.37 C0.76 44.07, 1.22 41.77, 1.82 39.53 C2.42 37.29, 3.17 35.07, 4.06 32.93 C4.95 30.78, 5.99 28.68, 7.15 26.67 C8.31 24.66, 9.61 22.71, 11.02 20.87 C12.43 19.03, 13.98 17.26, 15.62 15.62 C17.26 13.98, 19.03 12.43, 20.87 11.02 C22.71 9.61, 24.66 8.31, 26.67 7.15 C28.68 5.99, 30.78 4.95, 32.93 4.06 C35.07 3.17, 37.29 2.42, 39.53 1.82 C41.77 1.22, 44.07 0.76, 46.37 0.46 C48.67 0.15, 51.02 0, 53.34 0 C55.66 0, 58 0.15, 60.3 0.46 C62.6 0.76, 64.9 1.22, 67.14 1.82 C69.38 2.42, 71.6 3.17, 73.75 4.06 C75.89 4.95, 77.99 5.99, 80 7.15 C82.01 8.31, 83.96 9.61, 85.8 11.02 C87.65 12.43, 89.41 13.98, 91.05 15.62 C92.69 17.26, 94.24 19.03, 95.65 20.87 C97.06 22.71, 98.37 24.66, 99.53 26.67 C100.69 28.68, 101.72 30.78, 102.61 32.93 C103.5 35.07, 104.25 37.29, 104.85 39.53 C105.46 41.77, 105.91 44.07, 106.22 46.37 C106.52 48.67, 106.6 52.18, 106.67 53.34 C106.75 54.5, 106.75 52.18, 106.67 53.34" stroke="none" stroke-width="0" fill="#15aabf"></path><path d="M106.67 53.34 C106.67 55.66, 106.52 58, 106.22 60.3 C105.91 62.6, 105.46 64.9, 104.85 67.14 C104.25 69.38, 103.5 71.6, 102.61 73.75 C101.72 75.89, 100.69 77.99, 99.53 80 C98.37 82.01, 97.06 83.96, 95.65 85.8 C94.24 87.65, 92.69 89.41, 91.05 91.05 C89.41 92.69, 87.65 94.24, 85.8 95.65 C83.96 97.06, 82.01 98.37, 80 99.53 C77.99 100.69, 75.89 101.72, 73.75 102.61 C71.6 103.5, 69.38 104.25, 67.14 104.85 C64.9 105.46, 62.6 105.91, 60.3 106.22 C58 106.52, 55.66 106.67, 53.34 106.67 C51.02 106.67, 48.67 106.52, 46.37 106.22 C44.07 105.91, 41.77 105.46, 39.53 104.85 C37.29 104.25, 35.07 103.5, 32.93 102.61 C30.78 101.72, 28.68 100.69, 26.67 99.53 C24.66 98.37, 22.71 97.06, 20.87 95.65 C19.03 94.24, 17.26 92.69, 15.62 91.05 C13.98 89.41, 12.43 87.65, 11.02 85.8 C9.61 83.96, 8.31 82.01, 7.15 80 C5.99 77.99, 4.95 75.89, 4.06 73.75 C3.17 71.6, 2.42 69.38, 1.82 67.14 C1.22 64.9, 0.76 62.6, 0.46 60.3 C0.15 58, 0 55.66, 0 53.34 C0 51.02, 0.15 48.67, 0.46 46.37 C0.76 44.07, 1.22 41.77, 1.82 39.53 C2.42 37.29, 3.17 35.07, 4.06 32.93 C4.95 30.78, 5.99 28.68, 7.15 26.67 C8.31 24.66, 9.61 22.71, 11.02 20.87 C12.43 19.03, 13.98 17.26, 15.62 15.62 C17.26 13.98, 19.03 12.43, 20.87 11.02 C22.71 9.61, 24.66 8.31, 26.67 7.15 C28.68 5.99, 30.78 4.95, 32.93 4.06 C35.07 3.17, 37.29 2.42, 39.53 1.82 C41.77 1.22, 44.07 0.76, 46.37 0.46 C48.67 0.15, 51.02 0, 53.34 0 C55.66 0, 58 0.15, 60.3 0.46 C62.6 0.76, 64.9 1.22, 67.14 1.82 C69.38 2.42, 71.6 3.17, 73.75 4.06 C75.89 4.95, 77.99 5.99, 80 7.15 C82.01 8.31, 83.96 9.61, 85.8 11.02 C87.65 12.43, 89.41 13.98, 91.05 15.62 C92.69 17.26, 94.24 19.03, 95.65 20.87 C97.06 22.71, 98.37 24.66, 99.53 26.67 C100.69 28.68, 101.72 30.78, 102.61 32.93 C103.5 35.07, 104.25 37.29, 104.85 39.53 C105.46 41.77, 105.91 44.07, 106.22 46.37 C106.52 48.67, 106.6 52.18, 106.67 53.34 C106.75 54.5, 106.75 52.18, 106.67 53.34" stroke="#15aabf" stroke-width="2" fill="none"></path></g><g stroke-linecap="round" transform="translate(507.91200000000015 118.99999999999994) rotate(0 123.99999999999994 119.00000000000003)"><path d="M155 30 C168.03 42.61, 181.06 55.22, 217 90 C248 120, 248 120, 217 150 C195.35 170.26, 173.7 190.51, 155 208 C124 238, 124 238, 93 208 C76.94 192.97, 60.87 177.95, 31 150 C0 120, 0 120, 31 90 C44.2 77.22, 57.41 64.45, 93 30 C124 0, 124 0, 155 30" stroke="none" stroke-width="0" fill="#15aabf"></path><path d="M155 30 C168.29 42.86, 181.57 55.71, 217 90 M155 30 C173.12 47.54, 191.24 65.07, 217 90 M217 90 C248 120, 248 120, 217 150 M217 90 C248 120, 248 120, 217 150 M217 150 C202.65 163.42, 188.31 176.84, 155 208 M217 150 C198.77 167.05, 180.55 184.1, 155 208 M155 208 C124 238, 124 238, 93 208 M155 208 C124 238, 124 238, 93 208 M93 208 C79.96 195.8, 66.92 183.6, 31 150 M93 208 C70.01 186.49, 47.01 164.98, 31 150 M31 150 C0 120, 0 120, 31 90 M31 150 C0 120, 0 120, 31 90 M31 90 C48.65 72.92, 66.3 55.84, 93 30 M31 90 C47.27 74.26, 63.53 58.52, 93 30 M93 30 C124 0, 124 0, 155 30 M93 30 C124 0, 124 0, 155 30" stroke="#15aabf" stroke-width="2" fill="none"></path></g><g stroke-linecap="round" transform="translate(526.912 217) rotate(0 106.5 106.5)"><path d="M32 0 C64.86 0, 97.72 0, 181 0 C202.33 0, 213 10.67, 213 32 C213 73.4, 213 114.8, 213 181 C213 202.33, 202.33 213, 181 213 C144.65 213, 108.3 213, 32 213 C10.67 213, 0 202.33, 0 181 C0 139.4, 0 97.8, 0 32 C0 10.67, 10.67 0, 32 0" stroke="none" stroke-width="0" fill="#15aabf"></path><path d="M32 0 C66.17 0, 100.34 0, 181 0 M32 0 C64.47 0, 96.93 0, 181 0 M181 0 C202.33 0, 213 10.67, 213 32 M181 0 C202.33 0, 213 10.67, 213 32 M213 32 C213 83.24, 213 134.48, 213 181 M213 32 C213 62.82, 213 93.64, 213 181 M213 181 C213 202.33, 202.33 213, 181 213 M213 181 C213 202.33, 202.33 213, 181 213 M181 213 C131.97 213, 82.94 213, 32 213 M181 213 C148.72 213, 116.44 213, 32 213 M32 213 C10.67 213, 0 202.33, 0 181 M32 213 C10.67 213, 0 202.33, 0 181 M0 181 C0 125.08, 0 69.16, 0 32 M0 181 C0 148.67, 0 116.33, 0 32 M0 32 C0 10.67, 10.67 0, 32 0 M0 32 C0 10.67, 10.67 0, 32 0" stroke="#15aabf" stroke-width="2" fill="none"></path></g><g stroke-linecap="round" transform="translate(564.662 265) rotate(0 72.5 16)"><path d="M8 0 C46.62 0, 85.23 0, 137 0 C142.33 0, 145 2.67, 145 8 C145 12.74, 145 17.48, 145 24 C145 29.33, 142.33 32, 137 32 C85.98 32, 34.95 32, 8 32 C2.67 32, 0 29.33, 0 24 C0 19.88, 0 15.75, 0 8 C0 2.67, 2.67 0, 8 0" stroke="none" stroke-width="0" fill="#ffffff"></path><path d="M8 0 C58.35 0, 108.71 0, 137 0 M8 0 C37.2 0, 66.41 0, 137 0 M137 0 C142.33 0, 145 2.67, 145 8 M137 0 C142.33 0, 145 2.67, 145 8 M145 8 C145 11.84, 145 15.69, 145 24 M145 8 C145 13.05, 145 18.09, 145 24 M145 24 C145 29.33, 142.33 32, 137 32 M145 24 C145 29.33, 142.33 32, 137 32 M137 32 C98.1 32, 59.2 32, 8 32 M137 32 C104.56 32, 72.12 32, 8 32 M8 32 C2.67 32, 0 29.33, 0 24 M8 32 C2.67 32, 0 29.33, 0 24 M0 24 C0 20.62, 0 17.24, 0 8 M0 24 C0 19.63, 0 15.26, 0 8 M0 8 C0 2.67, 2.67 0, 8 0 M0 8 C0 2.67, 2.67 0, 8 0" stroke="#343a40" stroke-width="2" fill="none"></path></g><g stroke-linecap="round" transform="translate(575.662 275) rotate(0 5 5)"><path d="M10 5 C10 5.29, 9.97 5.58, 9.92 5.87 C9.87 6.15, 9.8 6.44, 9.7 6.71 C9.6 6.98, 9.47 7.25, 9.33 7.5 C9.19 7.75, 9.02 7.99, 8.83 8.21 C8.64 8.44, 8.44 8.64, 8.21 8.83 C7.99 9.02, 7.75 9.19, 7.5 9.33 C7.25 9.47, 6.98 9.6, 6.71 9.7 C6.44 9.8, 6.15 9.87, 5.87 9.92 C5.58 9.97, 5.29 10, 5 10 C4.71 10, 4.42 9.97, 4.13 9.92 C3.85 9.87, 3.56 9.8, 3.29 9.7 C3.02 9.6, 2.75 9.47, 2.5 9.33 C2.25 9.19, 2.01 9.02, 1.79 8.83 C1.56 8.64, 1.36 8.44, 1.17 8.21 C0.98 7.99, 0.81 7.75, 0.67 7.5 C0.53 7.25, 0.4 6.98, 0.3 6.71 C0.2 6.44, 0.13 6.15, 0.08 5.87 C0.03 5.58, 0 5.29, 0 5 C0 4.71, 0.03 4.42, 0.08 4.13 C0.13 3.85, 0.2 3.56, 0.3 3.29 C0.4 3.02, 0.53 2.75, 0.67 2.5 C0.81 2.25, 0.98 2.01, 1.17 1.79 C1.36 1.56, 1.56 1.36, 1.79 1.17 C2.01 0.98, 2.25 0.81, 2.5 0.67 C2.75 0.53, 3.02 0.4, 3.29 0.3 C3.56 0.2, 3.85 0.13, 4.13 0.08 C4.42 0.03, 4.71 0, 5 0 C5.29 0, 5.58 0.03, 5.87 0.08 C6.15 0.13, 6.44 0.2, 6.71 0.3 C6.98 0.4, 7.25 0.53, 7.5 0.67 C7.75 0.81, 7.99 0.98, 8.21 1.17 C8.44 1.36, 8.64 1.56, 8.83 1.79 C9.02 2.01, 9.19 2.25, 9.33 2.5 C9.47 2.75, 9.6 3.02, 9.7 3.29 C9.8 3.56, 9.87 3.85, 9.92 4.13 C9.97 4.42, 9.99 4.86, 10 5 C10.01 5.14, 10.01 4.86, 10 5" stroke="none" stroke-width="0" fill="#1e1e1e"></path><path d="M10 5 C10 5.29, 9.97 5.58, 9.92 5.87 C9.87 6.15, 9.8 6.44, 9.7 6.71 C9.6 6.98, 9.47 7.25, 9.33 7.5 C9.19 7.75, 9.02 7.99, 8.83 8.21 C8.64 8.44, 8.44 8.64, 8.21 8.83 C7.99 9.02, 7.75 9.19, 7.5 9.33 C7.25 9.47, 6.98 9.6, 6.71 9.7 C6.44 9.8, 6.15 9.87, 5.87 9.92 C5.58 9.97, 5.29 10, 5 10 C4.71 10, 4.42 9.97, 4.13 9.92 C3.85 9.87, 3.56 9.8, 3.29 9.7 C3.02 9.6, 2.75 9.47, 2.5 9.33 C2.25 9.19, 2.01 9.02, 1.79 8.83 C1.56 8.64, 1.36 8.44, 1.17 8.21 C0.98 7.99, 0.81 7.75, 0.67 7.5 C0.53 7.25, 0.4 6.98, 0.3 6.71 C0.2 6.44, 0.13 6.15, 0.08 5.87 C0.03 5.58, 0 5.29, 0 5 C0 4.71, 0.03 4.42, 0.08 4.13 C0.13 3.85, 0.2 3.56, 0.3 3.29 C0.4 3.02, 0.53 2.75, 0.67 2.5 C0.81 2.25, 0.98 2.01, 1.17 1.79 C1.36 1.56, 1.56 1.36, 1.79 1.17 C2.01 0.98, 2.25 0.81, 2.5 0.67 C2.75 0.53, 3.02 0.4, 3.29 0.3 C3.56 0.2, 3.85 0.13, 4.13 0.08 C4.42 0.03, 4.71 0, 5 0 C5.29 0, 5.58 0.03, 5.87 0.08 C6.15 0.13, 6.44 0.2, 6.71 0.3 C6.98 0.4, 7.25 0.53, 7.5 0.67 C7.75 0.81, 7.99 0.98, 8.21 1.17 C8.44 1.36, 8.64 1.56, 8.83 1.79 C9.02 2.01, 9.19 2.25, 9.33 2.5 C9.47 2.75, 9.6 3.02, 9.7 3.29 C9.8 3.56, 9.87 3.85, 9.92 4.13 C9.97 4.42, 9.99 4.86, 10 5 C10.01 5.14, 10.01 4.86, 10 5" stroke="#343a40" stroke-width="2" fill="none"></path></g><g stroke-linecap="round" transform="translate(653.662 282) rotate(0 10.5 3)"><path d="M1.5 0 C8.06 0, 14.62 0, 19.5 0 C20.5 0, 21 0.5, 21 1.5 C21 2.19, 21 2.89, 21 4.5 C21 5.5, 20.5 6, 19.5 6 C13.82 6, 8.15 6, 1.5 6 C0.5 6, 0 5.5, 0 4.5 C0 3.89, 0 3.28, 0 1.5 C0 0.5, 0.5 0, 1.5 0" stroke="none" stroke-width="0" fill="#1e1e1e"></path><path d="M1.5 0 C7.42 0, 13.33 0, 19.5 0 M1.5 0 C7.45 0, 13.4 0, 19.5 0 M19.5 0 C20.5 0, 21 0.5, 21 1.5 M19.5 0 C20.5 0, 21 0.5, 21 1.5 M21 1.5 C21 2.35, 21 3.19, 21 4.5 M21 1.5 C21 2.32, 21 3.14, 21 4.5 M21 4.5 C21 5.5, 20.5 6, 19.5 6 M21 4.5 C21 5.5, 20.5 6, 19.5 6 M19.5 6 C15.02 6, 10.53 6, 1.5 6 M19.5 6 C12.77 6, 6.05 6, 1.5 6 M1.5 6 C0.5 6, 0 5.5, 0 4.5 M1.5 6 C0.5 6, 0 5.5, 0 4.5 M0 4.5 C0 3.8, 0 3.11, 0 1.5 M0 4.5 C0 3.41, 0 2.33, 0 1.5 M0 1.5 C0 0.5, 0.5 0, 1.5 0 M0 1.5 C0 0.5, 0.5 0, 1.5 0" stroke="#343a40" stroke-width="2" fill="none"></path></g><g stroke-linecap="round" transform="translate(682.162 282) rotate(0 10.5 3)"><path d="M1.5 0 C7.51 0, 13.52 0, 19.5 0 C20.5 0, 21 0.5, 21 1.5 C21 2.36, 21 3.22, 21 4.5 C21 5.5, 20.5 6, 19.5 6 C13.59 6, 7.67 6, 1.5 6 C0.5 6, 0 5.5, 0 4.5 C0 3.36, 0 2.21, 0 1.5 C0 0.5, 0.5 0, 1.5 0" stroke="none" stroke-width="0" fill="#1e1e1e"></path><path d="M1.5 0 C8.18 0, 14.86 0, 19.5 0 M1.5 0 C7.46 0, 13.43 0, 19.5 0 M19.5 0 C20.5 0, 21 0.5, 21 1.5 M19.5 0 C20.5 0, 21 0.5, 21 1.5 M21 1.5 C21 2.34, 21 3.18, 21 4.5 M21 1.5 C21 2.65, 21 3.8, 21 4.5 M21 4.5 C21 5.5, 20.5 6, 19.5 6 M21 4.5 C21 5.5, 20.5 6, 19.5 6 M19.5 6 C13.99 6, 8.48 6, 1.5 6 M19.5 6 C13.21 6, 6.91 6, 1.5 6 M1.5 6 C0.5 6, 0 5.5, 0 4.5 M1.5 6 C0.5 6, 0 5.5, 0 4.5 M0 4.5 C0 3.85, 0 3.19, 0 1.5 M0 4.5 C0 3.39, 0 2.28, 0 1.5 M0 1.5 C0 0.5, 0.5 0, 1.5 0 M0 1.5 C0 0.5, 0.5 0, 1.5 0" stroke="#343a40" stroke-width="2" fill="none"></path></g><g stroke-linecap="round" transform="translate(564.162 305) rotate(0 72.5 16)"><path d="M8 0 C36.61 0, 65.22 0, 137 0 C142.33 0, 145 2.67, 145 8 C145 13.55, 145 19.09, 145 24 C145 29.33, 142.33 32, 137 32 C85.65 32, 34.3 32, 8 32 C2.67 32, 0 29.33, 0 24 C0 19.66, 0 15.33, 0 8 C0 2.67, 2.67 0, 8 0" stroke="none" stroke-width="0" fill="#ffffff"></path><path d="M8 0 C55.14 0, 102.29 0, 137 0 M8 0 C56.86 0, 105.71 0, 137 0 M137 0 C142.33 0, 145 2.67, 145 8 M137 0 C142.33 0, 145 2.67, 145 8 M145 8 C145 13.23, 145 18.47, 145 24 M145 8 C145 11.31, 145 14.62, 145 24 M145 24 C145 29.33, 142.33 32, 137 32 M145 24 C145 29.33, 142.33 32, 137 32 M137 32 C93.89 32, 50.79 32, 8 32 M137 32 C109.55 32, 82.11 32, 8 32 M8 32 C2.67 32, 0 29.33, 0 24 M8 32 C2.67 32, 0 29.33, 0 24 M0 24 C0 17.94, 0 11.88, 0 8 M0 24 C0 17.73, 0 11.46, 0 8 M0 8 C0 2.67, 2.67 0, 8 0 M0 8 C0 2.67, 2.67 0, 8 0" stroke="#343a40" stroke-width="2" fill="none"></path></g><g stroke-linecap="round" transform="translate(575.162 315) rotate(0 5 5)"><path d="M10 5 C10 5.29, 9.97 5.58, 9.92 5.87 C9.87 6.15, 9.8 6.44, 9.7 6.71 C9.6 6.98, 9.47 7.25, 9.33 7.5 C9.19 7.75, 9.02 7.99, 8.83 8.21 C8.64 8.44, 8.44 8.64, 8.21 8.83 C7.99 9.02, 7.75 9.19, 7.5 9.33 C7.25 9.47, 6.98 9.6, 6.71 9.7 C6.44 9.8, 6.15 9.87, 5.87 9.92 C5.58 9.97, 5.29 10, 5 10 C4.71 10, 4.42 9.97, 4.13 9.92 C3.85 9.87, 3.56 9.8, 3.29 9.7 C3.02 9.6, 2.75 9.47, 2.5 9.33 C2.25 9.19, 2.01 9.02, 1.79 8.83 C1.56 8.64, 1.36 8.44, 1.17 8.21 C0.98 7.99, 0.81 7.75, 0.67 7.5 C0.53 7.25, 0.4 6.98, 0.3 6.71 C0.2 6.44, 0.13 6.15, 0.08 5.87 C0.03 5.58, 0 5.29, 0 5 C0 4.71, 0.03 4.42, 0.08 4.13 C0.13 3.85, 0.2 3.56, 0.3 3.29 C0.4 3.02, 0.53 2.75, 0.67 2.5 C0.81 2.25, 0.98 2.01, 1.17 1.79 C1.36 1.56, 1.56 1.36, 1.79 1.17 C2.01 0.98, 2.25 0.81, 2.5 0.67 C2.75 0.53, 3.02 0.4, 3.29 0.3 C3.56 0.2, 3.85 0.13, 4.13 0.08 C4.42 0.03, 4.71 0, 5 0 C5.29 0, 5.58 0.03, 5.87 0.08 C6.15 0.13, 6.44 0.2, 6.71 0.3 C6.98 0.4, 7.25 0.53, 7.5 0.67 C7.75 0.81, 7.99 0.98, 8.21 1.17 C8.44 1.36, 8.64 1.56, 8.83 1.79 C9.02 2.01, 9.19 2.25, 9.33 2.5 C9.47 2.75, 9.6 3.02, 9.7 3.29 C9.8 3.56, 9.87 3.85, 9.92 4.13 C9.97 4.42, 9.99 4.86, 10 5 C10.01 5.14, 10.01 4.86, 10 5" stroke="none" stroke-width="0" fill="#1e1e1e"></path><path d="M10 5 C10 5.29, 9.97 5.58, 9.92 5.87 C9.87 6.15, 9.8 6.44, 9.7 6.71 C9.6 6.98, 9.47 7.25, 9.33 7.5 C9.19 7.75, 9.02 7.99, 8.83 8.21 C8.64 8.44, 8.44 8.64, 8.21 8.83 C7.99 9.02, 7.75 9.19, 7.5 9.33 C7.25 9.47, 6.98 9.6, 6.71 9.7 C6.44 9.8, 6.15 9.87, 5.87 9.92 C5.58 9.97, 5.29 10, 5 10 C4.71 10, 4.42 9.97, 4.13 9.92 C3.85 9.87, 3.56 9.8, 3.29 9.7 C3.02 9.6, 2.75 9.47, 2.5 9.33 C2.25 9.19, 2.01 9.02, 1.79 8.83 C1.56 8.64, 1.36 8.44, 1.17 8.21 C0.98 7.99, 0.81 7.75, 0.67 7.5 C0.53 7.25, 0.4 6.98, 0.3 6.71 C0.2 6.44, 0.13 6.15, 0.08 5.87 C0.03 5.58, 0 5.29, 0 5 C0 4.71, 0.03 4.42, 0.08 4.13 C0.13 3.85, 0.2 3.56, 0.3 3.29 C0.4 3.02, 0.53 2.75, 0.67 2.5 C0.81 2.25, 0.98 2.01, 1.17 1.79 C1.36 1.56, 1.56 1.36, 1.79 1.17 C2.01 0.98, 2.25 0.81, 2.5 0.67 C2.75 0.53, 3.02 0.4, 3.29 0.3 C3.56 0.2, 3.85 0.13, 4.13 0.08 C4.42 0.03, 4.71 0, 5 0 C5.29 0, 5.58 0.03, 5.87 0.08 C6.15 0.13, 6.44 0.2, 6.71 0.3 C6.98 0.4, 7.25 0.53, 7.5 0.67 C7.75 0.81, 7.99 0.98, 8.21 1.17 C8.44 1.36, 8.64 1.56, 8.83 1.79 C9.02 2.01, 9.19 2.25, 9.33 2.5 C9.47 2.75, 9.6 3.02, 9.7 3.29 C9.8 3.56, 9.87 3.85, 9.92 4.13 C9.97 4.42, 9.99 4.86, 10 5 C10.01 5.14, 10.01 4.86, 10 5" stroke="#343a40" stroke-width="2" fill="none"></path></g><g stroke-linecap="round" transform="translate(653.162 322) rotate(0 10.5 3)"><path d="M1.5 0 C8.24 0, 14.99 0, 19.5 0 C20.5 0, 21 0.5, 21 1.5 C21 2.13, 21 2.75, 21 4.5 C21 5.5, 20.5 6, 19.5 6 C13.28 6, 7.06 6, 1.5 6 C0.5 6, 0 5.5, 0 4.5 C0 3.43, 0 2.36, 0 1.5 C0 0.5, 0.5 0, 1.5 0" stroke="none" stroke-width="0" fill="#1e1e1e"></path><path d="M1.5 0 C7.08 0, 12.67 0, 19.5 0 M1.5 0 C7.29 0, 13.09 0, 19.5 0 M19.5 0 C20.5 0, 21 0.5, 21 1.5 M19.5 0 C20.5 0, 21 0.5, 21 1.5 M21 1.5 C21 2.65, 21 3.8, 21 4.5 M21 1.5 C21 2.38, 21 3.27, 21 4.5 M21 4.5 C21 5.5, 20.5 6, 19.5 6 M21 4.5 C21 5.5, 20.5 6, 19.5 6 M19.5 6 C13.86 6, 8.23 6, 1.5 6 M19.5 6 C15.5 6, 11.49 6, 1.5 6 M1.5 6 C0.5 6, 0 5.5, 0 4.5 M1.5 6 C0.5 6, 0 5.5, 0 4.5 M0 4.5 C0 3.58, 0 2.67, 0 1.5 M0 4.5 C0 3.47, 0 2.44, 0 1.5 M0 1.5 C0 0.5, 0.5 0, 1.5 0 M0 1.5 C0 0.5, 0.5 0, 1.5 0" stroke="#343a40" stroke-width="2" fill="none"></path></g><g stroke-linecap="round" transform="translate(681.662 322) rotate(0 10.5 3)"><path d="M1.5 0 C5.84 0, 10.18 0, 19.5 0 C20.5 0, 21 0.5, 21 1.5 C21 2.44, 21 3.39, 21 4.5 C21 5.5, 20.5 6, 19.5 6 C12.31 6, 5.11 6, 1.5 6 C0.5 6, 0 5.5, 0 4.5 C0 3.42, 0 2.33, 0 1.5 C0 0.5, 0.5 0, 1.5 0" stroke="none" stroke-width="0" fill="#1e1e1e"></path><path d="M1.5 0 C7.59 0, 13.69 0, 19.5 0 M1.5 0 C8.1 0, 14.71 0, 19.5 0 M19.5 0 C20.5 0, 21 0.5, 21 1.5 M19.5 0 C20.5 0, 21 0.5, 21 1.5 M21 1.5 C21 2.39, 21 3.28, 21 4.5 M21 1.5 C21 2.67, 21 3.84, 21 4.5 M21 4.5 C21 5.5, 20.5 6, 19.5 6 M21 4.5 C21 5.5, 20.5 6, 19.5 6 M19.5 6 C13.58 6, 7.65 6, 1.5 6 M19.5 6 C13.31 6, 7.11 6, 1.5 6 M1.5 6 C0.5 6, 0 5.5, 0 4.5 M1.5 6 C0.5 6, 0 5.5, 0 4.5 M0 4.5 C0 3.79, 0 3.08, 0 1.5 M0 4.5 C0 3.74, 0 2.97, 0 1.5 M0 1.5 C0 0.5, 0.5 0, 1.5 0 M0 1.5 C0 0.5, 0.5 0, 1.5 0" stroke="#343a40" stroke-width="2" fill="none"></path></g><g stroke-linecap="round" transform="translate(564.162 345) rotate(0 72.5 16)"><path d="M8 0 C42.43 0, 76.86 0, 137 0 C142.33 0, 145 2.67, 145 8 C145 14.3, 145 20.61, 145 24 C145 29.33, 142.33 32, 137 32 C98.31 32, 59.62 32, 8 32 C2.67 32, 0 29.33, 0 24 C0 19.85, 0 15.7, 0 8 C0 2.67, 2.67 0, 8 0" stroke="none" stroke-width="0" fill="#ffffff"></path><path d="M8 0 C48.36 0, 88.73 0, 137 0 M8 0 C49.26 0, 90.52 0, 137 0 M137 0 C142.33 0, 145 2.67, 145 8 M137 0 C142.33 0, 145 2.67, 145 8 M145 8 C145 12.81, 145 17.62, 145 24 M145 8 C145 11.54, 145 15.09, 145 24 M145 24 C145 29.33, 142.33 32, 137 32 M145 24 C145 29.33, 142.33 32, 137 32 M137 32 C100.49 32, 63.98 32, 8 32 M137 32 C102.72 32, 68.43 32, 8 32 M8 32 C2.67 32, 0 29.33, 0 24 M8 32 C2.67 32, 0 29.33, 0 24 M0 24 C0 19.07, 0 14.14, 0 8 M0 24 C0 19.12, 0 14.23, 0 8 M0 8 C0 2.67, 2.67 0, 8 0 M0 8 C0 2.67, 2.67 0, 8 0" stroke="#343a40" stroke-width="2" fill="none"></path></g><g stroke-linecap="round" transform="translate(575.162 355) rotate(0 5 5)"><path d="M10 5 C10 5.29, 9.97 5.58, 9.92 5.87 C9.87 6.15, 9.8 6.44, 9.7 6.71 C9.6 6.98, 9.47 7.25, 9.33 7.5 C9.19 7.75, 9.02 7.99, 8.83 8.21 C8.64 8.44, 8.44 8.64, 8.21 8.83 C7.99 9.02, 7.75 9.19, 7.5 9.33 C7.25 9.47, 6.98 9.6, 6.71 9.7 C6.44 9.8, 6.15 9.87, 5.87 9.92 C5.58 9.97, 5.29 10, 5 10 C4.71 10, 4.42 9.97, 4.13 9.92 C3.85 9.87, 3.56 9.8, 3.29 9.7 C3.02 9.6, 2.75 9.47, 2.5 9.33 C2.25 9.19, 2.01 9.02, 1.79 8.83 C1.56 8.64, 1.36 8.44, 1.17 8.21 C0.98 7.99, 0.81 7.75, 0.67 7.5 C0.53 7.25, 0.4 6.98, 0.3 6.71 C0.2 6.44, 0.13 6.15, 0.08 5.87 C0.03 5.58, 0 5.29, 0 5 C0 4.71, 0.03 4.42, 0.08 4.13 C0.13 3.85, 0.2 3.56, 0.3 3.29 C0.4 3.02, 0.53 2.75, 0.67 2.5 C0.81 2.25, 0.98 2.01, 1.17 1.79 C1.36 1.56, 1.56 1.36, 1.79 1.17 C2.01 0.98, 2.25 0.81, 2.5 0.67 C2.75 0.53, 3.02 0.4, 3.29 0.3 C3.56 0.2, 3.85 0.13, 4.13 0.08 C4.42 0.03, 4.71 0, 5 0 C5.29 0, 5.58 0.03, 5.87 0.08 C6.15 0.13, 6.44 0.2, 6.71 0.3 C6.98 0.4, 7.25 0.53, 7.5 0.67 C7.75 0.81, 7.99 0.98, 8.21 1.17 C8.44 1.36, 8.64 1.56, 8.83 1.79 C9.02 2.01, 9.19 2.25, 9.33 2.5 C9.47 2.75, 9.6 3.02, 9.7 3.29 C9.8 3.56, 9.87 3.85, 9.92 4.13 C9.97 4.42, 9.99 4.86, 10 5 C10.01 5.14, 10.01 4.86, 10 5" stroke="none" stroke-width="0" fill="#1e1e1e"></path><path d="M10 5 C10 5.29, 9.97 5.58, 9.92 5.87 C9.87 6.15, 9.8 6.44, 9.7 6.71 C9.6 6.98, 9.47 7.25, 9.33 7.5 C9.19 7.75, 9.02 7.99, 8.83 8.21 C8.64 8.44, 8.44 8.64, 8.21 8.83 C7.99 9.02, 7.75 9.19, 7.5 9.33 C7.25 9.47, 6.98 9.6, 6.71 9.7 C6.44 9.8, 6.15 9.87, 5.87 9.92 C5.58 9.97, 5.29 10, 5 10 C4.71 10, 4.42 9.97, 4.13 9.92 C3.85 9.87, 3.56 9.8, 3.29 9.7 C3.02 9.6, 2.75 9.47, 2.5 9.33 C2.25 9.19, 2.01 9.02, 1.79 8.83 C1.56 8.64, 1.36 8.44, 1.17 8.21 C0.98 7.99, 0.81 7.75, 0.67 7.5 C0.53 7.25, 0.4 6.98, 0.3 6.71 C0.2 6.44, 0.13 6.15, 0.08 5.87 C0.03 5.58, 0 5.29, 0 5 C0 4.71, 0.03 4.42, 0.08 4.13 C0.13 3.85, 0.2 3.56, 0.3 3.29 C0.4 3.02, 0.53 2.75, 0.67 2.5 C0.81 2.25, 0.98 2.01, 1.17 1.79 C1.36 1.56, 1.56 1.36, 1.79 1.17 C2.01 0.98, 2.25 0.81, 2.5 0.67 C2.75 0.53, 3.02 0.4, 3.29 0.3 C3.56 0.2, 3.85 0.13, 4.13 0.08 C4.42 0.03, 4.71 0, 5 0 C5.29 0, 5.58 0.03, 5.87 0.08 C6.15 0.13, 6.44 0.2, 6.71 0.3 C6.98 0.4, 7.25 0.53, 7.5 0.67 C7.75 0.81, 7.99 0.98, 8.21 1.17 C8.44 1.36, 8.64 1.56, 8.83 1.79 C9.02 2.01, 9.19 2.25, 9.33 2.5 C9.47 2.75, 9.6 3.02, 9.7 3.29 C9.8 3.56, 9.87 3.85, 9.92 4.13 C9.97 4.42, 9.99 4.86, 10 5 C10.01 5.14, 10.01 4.86, 10 5" stroke="#343a40" stroke-width="2" fill="none"></path></g><g stroke-linecap="round" transform="translate(653.162 362) rotate(0 10.5 3)"><path d="M1.5 0 C6.6 0, 11.69 0, 19.5 0 C20.5 0, 21 0.5, 21 1.5 C21 2.36, 21 3.22, 21 4.5 C21 5.5, 20.5 6, 19.5 6 C15.1 6, 10.7 6, 1.5 6 C0.5 6, 0 5.5, 0 4.5 C0 3.62, 0 2.74, 0 1.5 C0 0.5, 0.5 0, 1.5 0" stroke="none" stroke-width="0" fill="#1e1e1e"></path><path d="M1.5 0 C6.26 0, 11.02 0, 19.5 0 M1.5 0 C7.66 0, 13.82 0, 19.5 0 M19.5 0 C20.5 0, 21 0.5, 21 1.5 M19.5 0 C20.5 0, 21 0.5, 21 1.5 M21 1.5 C21 2.6, 21 3.7, 21 4.5 M21 1.5 C21 2.65, 21 3.81, 21 4.5 M21 4.5 C21 5.5, 20.5 6, 19.5 6 M21 4.5 C21 5.5, 20.5 6, 19.5 6 M19.5 6 C14.43 6, 9.37 6, 1.5 6 M19.5 6 C15.62 6, 11.75 6, 1.5 6 M1.5 6 C0.5 6, 0 5.5, 0 4.5 M1.5 6 C0.5 6, 0 5.5, 0 4.5 M0 4.5 C0 3.53, 0 2.57, 0 1.5 M0 4.5 C0 3.67, 0 2.83, 0 1.5 M0 1.5 C0 0.5, 0.5 0, 1.5 0 M0 1.5 C0 0.5, 0.5 0, 1.5 0" stroke="#343a40" stroke-width="2" fill="none"></path></g><g stroke-linecap="round" transform="translate(681.662 362) rotate(0 10.5 3)"><path d="M1.5 0 C8.62 0, 15.74 0, 19.5 0 C20.5 0, 21 0.5, 21 1.5 C21 2.27, 21 3.05, 21 4.5 C21 5.5, 20.5 6, 19.5 6 C15.27 6, 11.04 6, 1.5 6 C0.5 6, 0 5.5, 0 4.5 C0 3.77, 0 3.04, 0 1.5 C0 0.5, 0.5 0, 1.5 0" stroke="none" stroke-width="0" fill="#1e1e1e"></path><path d="M1.5 0 C5.82 0, 10.15 0, 19.5 0 M1.5 0 C7.18 0, 12.86 0, 19.5 0 M19.5 0 C20.5 0, 21 0.5, 21 1.5 M19.5 0 C20.5 0, 21 0.5, 21 1.5 M21 1.5 C21 2.4, 21 3.31, 21 4.5 M21 1.5 C21 2.25, 21 3.01, 21 4.5 M21 4.5 C21 5.5, 20.5 6, 19.5 6 M21 4.5 C21 5.5, 20.5 6, 19.5 6 M19.5 6 C15.7 6, 11.9 6, 1.5 6 M19.5 6 C14.58 6, 9.67 6, 1.5 6 M1.5 6 C0.5 6, 0 5.5, 0 4.5 M1.5 6 C0.5 6, 0 5.5, 0 4.5 M0 4.5 C0 3.6, 0 2.7, 0 1.5 M0 4.5 C0 3.34, 0 2.19, 0 1.5 M0 1.5 C0 0.5, 0.5 0, 1.5 0 M0 1.5 C0 0.5, 0.5 0, 1.5 0" stroke="#343a40" stroke-width="2" fill="none"></path></g><g stroke-linecap="round" transform="translate(144.91200000000003 239) rotate(0 72.5 16)"><path d="M8 0 C41.43 0, 74.85 0, 137 0 C142.33 0, 145 2.67, 145 8 C145 11.85, 145 15.7, 145 24 C145 29.33, 142.33 32, 137 32 C104.36 32, 71.73 32, 8 32 C2.67 32, 0 29.33, 0 24 C0 19.82, 0 15.63, 0 8 C0 2.67, 2.67 0, 8 0" stroke="none" stroke-width="0" fill="#ffffff"></path><path d="M8 0 C46.37 0, 84.74 0, 137 0 M8 0 C47.27 0, 86.54 0, 137 0 M137 0 C142.33 0, 145 2.67, 145 8 M137 0 C142.33 0, 145 2.67, 145 8 M145 8 C145 12.32, 145 16.65, 145 24 M145 8 C145 14.28, 145 20.56, 145 24 M145 24 C145 29.33, 142.33 32, 137 32 M145 24 C145 29.33, 142.33 32, 137 32 M137 32 C97.45 32, 57.9 32, 8 32 M137 32 C98.91 32, 60.82 32, 8 32 M8 32 C2.67 32, 0 29.33, 0 24 M8 32 C2.67 32, 0 29.33, 0 24 M0 24 C0 18.46, 0 12.93, 0 8 M0 24 C0 20.72, 0 17.45, 0 8 M0 8 C0 2.67, 2.67 0, 8 0 M0 8 C0 2.67, 2.67 0, 8 0" stroke="#1e1e1e" stroke-width="2" fill="none"></path></g><g stroke-linecap="round" transform="translate(155.91200000000003 249) rotate(0 5 5)"><path d="M10 5 C10 5.29, 9.97 5.58, 9.92 5.87 C9.87 6.15, 9.8 6.44, 9.7 6.71 C9.6 6.98, 9.47 7.25, 9.33 7.5 C9.19 7.75, 9.02 7.99, 8.83 8.21 C8.64 8.44, 8.44 8.64, 8.21 8.83 C7.99 9.02, 7.75 9.19, 7.5 9.33 C7.25 9.47, 6.98 9.6, 6.71 9.7 C6.44 9.8, 6.15 9.87, 5.87 9.92 C5.58 9.97, 5.29 10, 5 10 C4.71 10, 4.42 9.97, 4.13 9.92 C3.85 9.87, 3.56 9.8, 3.29 9.7 C3.02 9.6, 2.75 9.47, 2.5 9.33 C2.25 9.19, 2.01 9.02, 1.79 8.83 C1.56 8.64, 1.36 8.44, 1.17 8.21 C0.98 7.99, 0.81 7.75, 0.67 7.5 C0.53 7.25, 0.4 6.98, 0.3 6.71 C0.2 6.44, 0.13 6.15, 0.08 5.87 C0.03 5.58, 0 5.29, 0 5 C0 4.71, 0.03 4.42, 0.08 4.13 C0.13 3.85, 0.2 3.56, 0.3 3.29 C0.4 3.02, 0.53 2.75, 0.67 2.5 C0.81 2.25, 0.98 2.01, 1.17 1.79 C1.36 1.56, 1.56 1.36, 1.79 1.17 C2.01 0.98, 2.25 0.81, 2.5 0.67 C2.75 0.53, 3.02 0.4, 3.29 0.3 C3.56 0.2, 3.85 0.13, 4.13 0.08 C4.42 0.03, 4.71 0, 5 0 C5.29 0, 5.58 0.03, 5.87 0.08 C6.15 0.13, 6.44 0.2, 6.71 0.3 C6.98 0.4, 7.25 0.53, 7.5 0.67 C7.75 0.81, 7.99 0.98, 8.21 1.17 C8.44 1.36, 8.64 1.56, 8.83 1.79 C9.02 2.01, 9.19 2.25, 9.33 2.5 C9.47 2.75, 9.6 3.02, 9.7 3.29 C9.8 3.56, 9.87 3.85, 9.92 4.13 C9.97 4.42, 9.99 4.86, 10 5 C10.01 5.14, 10.01 4.86, 10 5" stroke="none" stroke-width="0" fill="#1e1e1e"></path><path d="M10 5 C10 5.29, 9.97 5.58, 9.92 5.87 C9.87 6.15, 9.8 6.44, 9.7 6.71 C9.6 6.98, 9.47 7.25, 9.33 7.5 C9.19 7.75, 9.02 7.99, 8.83 8.21 C8.64 8.44, 8.44 8.64, 8.21 8.83 C7.99 9.02, 7.75 9.19, 7.5 9.33 C7.25 9.47, 6.98 9.6, 6.71 9.7 C6.44 9.8, 6.15 9.87, 5.87 9.92 C5.58 9.97, 5.29 10, 5 10 C4.71 10, 4.42 9.97, 4.13 9.92 C3.85 9.87, 3.56 9.8, 3.29 9.7 C3.02 9.6, 2.75 9.47, 2.5 9.33 C2.25 9.19, 2.01 9.02, 1.79 8.83 C1.56 8.64, 1.36 8.44, 1.17 8.21 C0.98 7.99, 0.81 7.75, 0.67 7.5 C0.53 7.25, 0.4 6.98, 0.3 6.71 C0.2 6.44, 0.13 6.15, 0.08 5.87 C0.03 5.58, 0 5.29, 0 5 C0 4.71, 0.03 4.42, 0.08 4.13 C0.13 3.85, 0.2 3.56, 0.3 3.29 C0.4 3.02, 0.53 2.75, 0.67 2.5 C0.81 2.25, 0.98 2.01, 1.17 1.79 C1.36 1.56, 1.56 1.36, 1.79 1.17 C2.01 0.98, 2.25 0.81, 2.5 0.67 C2.75 0.53, 3.02 0.4, 3.29 0.3 C3.56 0.2, 3.85 0.13, 4.13 0.08 C4.42 0.03, 4.71 0, 5 0 C5.29 0, 5.58 0.03, 5.87 0.08 C6.15 0.13, 6.44 0.2, 6.71 0.3 C6.98 0.4, 7.25 0.53, 7.5 0.67 C7.75 0.81, 7.99 0.98, 8.21 1.17 C8.44 1.36, 8.64 1.56, 8.83 1.79 C9.02 2.01, 9.19 2.25, 9.33 2.5 C9.47 2.75, 9.6 3.02, 9.7 3.29 C9.8 3.56, 9.87 3.85, 9.92 4.13 C9.97 4.42, 9.99 4.86, 10 5 C10.01 5.14, 10.01 4.86, 10 5" stroke="#1e1e1e" stroke-width="2" fill="none"></path></g><g stroke-linecap="round" transform="translate(233.91200000000003 256) rotate(0 10.5 3)"><path d="M1.5 0 C6.88 0, 12.27 0, 19.5 0 C20.5 0, 21 0.5, 21 1.5 C21 2.13, 21 2.75, 21 4.5 C21 5.5, 20.5 6, 19.5 6 C14.94 6, 10.37 6, 1.5 6 C0.5 6, 0 5.5, 0 4.5 C0 3.49, 0 2.49, 0 1.5 C0 0.5, 0.5 0, 1.5 0" stroke="none" stroke-width="0" fill="#1e1e1e"></path><path d="M1.5 0 C5.57 0, 9.64 0, 19.5 0 M1.5 0 C7.93 0, 14.36 0, 19.5 0 M19.5 0 C20.5 0, 21 0.5, 21 1.5 M19.5 0 C20.5 0, 21 0.5, 21 1.5 M21 1.5 C21 2.23, 21 2.96, 21 4.5 M21 1.5 C21 2.5, 21 3.5, 21 4.5 M21 4.5 C21 5.5, 20.5 6, 19.5 6 M21 4.5 C21 5.5, 20.5 6, 19.5 6 M19.5 6 C12.68 6, 5.86 6, 1.5 6 M19.5 6 C13.77 6, 8.03 6, 1.5 6 M1.5 6 C0.5 6, 0 5.5, 0 4.5 M1.5 6 C0.5 6, 0 5.5, 0 4.5 M0 4.5 C0 3.4, 0 2.31, 0 1.5 M0 4.5 C0 3.39, 0 2.27, 0 1.5 M0 1.5 C0 0.5, 0.5 0, 1.5 0 M0 1.5 C0 0.5, 0.5 0, 1.5 0" stroke="#1e1e1e" stroke-width="2" fill="none"></path></g><g stroke-linecap="round" transform="translate(262.41200000000003 256) rotate(0 10.5 3)"><path d="M1.5 0 C7.48 0, 13.46 0, 19.5 0 C20.5 0, 21 0.5, 21 1.5 C21 2.42, 21 3.34, 21 4.5 C21 5.5, 20.5 6, 19.5 6 C14.86 6, 10.22 6, 1.5 6 C0.5 6, 0 5.5, 0 4.5 C0 3.45, 0 2.4, 0 1.5 C0 0.5, 0.5 0, 1.5 0" stroke="none" stroke-width="0" fill="#1e1e1e"></path><path d="M1.5 0 C5.19 0, 8.88 0, 19.5 0 M1.5 0 C6.02 0, 10.55 0, 19.5 0 M19.5 0 C20.5 0, 21 0.5, 21 1.5 M19.5 0 C20.5 0, 21 0.5, 21 1.5 M21 1.5 C21 2.39, 21 3.28, 21 4.5 M21 1.5 C21 2.29, 21 3.09, 21 4.5 M21 4.5 C21 5.5, 20.5 6, 19.5 6 M21 4.5 C21 5.5, 20.5 6, 19.5 6 M19.5 6 C15.1 6, 10.69 6, 1.5 6 M19.5 6 C12.7 6, 5.9 6, 1.5 6 M1.5 6 C0.5 6, 0 5.5, 0 4.5 M1.5 6 C0.5 6, 0 5.5, 0 4.5 M0 4.5 C0 3.73, 0 2.95, 0 1.5 M0 4.5 C0 3.46, 0 2.41, 0 1.5 M0 1.5 C0 0.5, 0.5 0, 1.5 0 M0 1.5 C0 0.5, 0.5 0, 1.5 0" stroke="#1e1e1e" stroke-width="2" fill="none"></path></g><g stroke-linecap="round" transform="translate(144.41200000000003 279) rotate(0 72.5 16)"><path d="M8 0 C42.9 0, 77.8 0, 137 0 C142.33 0, 145 2.67, 145 8 C145 11.41, 145 14.83, 145 24 C145 29.33, 142.33 32, 137 32 C97.7 32, 58.39 32, 8 32 C2.67 32, 0 29.33, 0 24 C0 18.17, 0 12.34, 0 8 C0 2.67, 2.67 0, 8 0" stroke="none" stroke-width="0" fill="#ffffff"></path><path d="M8 0 C46.55 0, 85.11 0, 137 0 M8 0 C45.91 0, 83.81 0, 137 0 M137 0 C142.33 0, 145 2.67, 145 8 M137 0 C142.33 0, 145 2.67, 145 8 M145 8 C145 11.4, 145 14.8, 145 24 M145 8 C145 12.26, 145 16.53, 145 24 M145 24 C145 29.33, 142.33 32, 137 32 M145 24 C145 29.33, 142.33 32, 137 32 M137 32 C100.72 32, 64.45 32, 8 32 M137 32 C111.03 32, 85.05 32, 8 32 M8 32 C2.67 32, 0 29.33, 0 24 M8 32 C2.67 32, 0 29.33, 0 24 M0 24 C0 20, 0 15.99, 0 8 M0 24 C0 17.63, 0 11.27, 0 8 M0 8 C0 2.67, 2.67 0, 8 0 M0 8 C0 2.67, 2.67 0, 8 0" stroke="#1e1e1e" stroke-width="2" fill="none"></path></g><g stroke-linecap="round" transform="translate(155.41200000000003 289) rotate(0 5 5)"><path d="M10 5 C10 5.29, 9.97 5.58, 9.92 5.87 C9.87 6.15, 9.8 6.44, 9.7 6.71 C9.6 6.98, 9.47 7.25, 9.33 7.5 C9.19 7.75, 9.02 7.99, 8.83 8.21 C8.64 8.44, 8.44 8.64, 8.21 8.83 C7.99 9.02, 7.75 9.19, 7.5 9.33 C7.25 9.47, 6.98 9.6, 6.71 9.7 C6.44 9.8, 6.15 9.87, 5.87 9.92 C5.58 9.97, 5.29 10, 5 10 C4.71 10, 4.42 9.97, 4.13 9.92 C3.85 9.87, 3.56 9.8, 3.29 9.7 C3.02 9.6, 2.75 9.47, 2.5 9.33 C2.25 9.19, 2.01 9.02, 1.79 8.83 C1.56 8.64, 1.36 8.44, 1.17 8.21 C0.98 7.99, 0.81 7.75, 0.67 7.5 C0.53 7.25, 0.4 6.98, 0.3 6.71 C0.2 6.44, 0.13 6.15, 0.08 5.87 C0.03 5.58, 0 5.29, 0 5 C0 4.71, 0.03 4.42, 0.08 4.13 C0.13 3.85, 0.2 3.56, 0.3 3.29 C0.4 3.02, 0.53 2.75, 0.67 2.5 C0.81 2.25, 0.98 2.01, 1.17 1.79 C1.36 1.56, 1.56 1.36, 1.79 1.17 C2.01 0.98, 2.25 0.81, 2.5 0.67 C2.75 0.53, 3.02 0.4, 3.29 0.3 C3.56 0.2, 3.85 0.13, 4.13 0.08 C4.42 0.03, 4.71 0, 5 0 C5.29 0, 5.58 0.03, 5.87 0.08 C6.15 0.13, 6.44 0.2, 6.71 0.3 C6.98 0.4, 7.25 0.53, 7.5 0.67 C7.75 0.81, 7.99 0.98, 8.21 1.17 C8.44 1.36, 8.64 1.56, 8.83 1.79 C9.02 2.01, 9.19 2.25, 9.33 2.5 C9.47 2.75, 9.6 3.02, 9.7 3.29 C9.8 3.56, 9.87 3.85, 9.92 4.13 C9.97 4.42, 9.99 4.86, 10 5 C10.01 5.14, 10.01 4.86, 10 5" stroke="none" stroke-width="0" fill="#1e1e1e"></path><path d="M10 5 C10 5.29, 9.97 5.58, 9.92 5.87 C9.87 6.15, 9.8 6.44, 9.7 6.71 C9.6 6.98, 9.47 7.25, 9.33 7.5 C9.19 7.75, 9.02 7.99, 8.83 8.21 C8.64 8.44, 8.44 8.64, 8.21 8.83 C7.99 9.02, 7.75 9.19, 7.5 9.33 C7.25 9.47, 6.98 9.6, 6.71 9.7 C6.44 9.8, 6.15 9.87, 5.87 9.92 C5.58 9.97, 5.29 10, 5 10 C4.71 10, 4.42 9.97, 4.13 9.92 C3.85 9.87, 3.56 9.8, 3.29 9.7 C3.02 9.6, 2.75 9.47, 2.5 9.33 C2.25 9.19, 2.01 9.02, 1.79 8.83 C1.56 8.64, 1.36 8.44, 1.17 8.21 C0.98 7.99, 0.81 7.75, 0.67 7.5 C0.53 7.25, 0.4 6.98, 0.3 6.71 C0.2 6.44, 0.13 6.15, 0.08 5.87 C0.03 5.58, 0 5.29, 0 5 C0 4.71, 0.03 4.42, 0.08 4.13 C0.13 3.85, 0.2 3.56, 0.3 3.29 C0.4 3.02, 0.53 2.75, 0.67 2.5 C0.81 2.25, 0.98 2.01, 1.17 1.79 C1.36 1.56, 1.56 1.36, 1.79 1.17 C2.01 0.98, 2.25 0.81, 2.5 0.67 C2.75 0.53, 3.02 0.4, 3.29 0.3 C3.56 0.2, 3.85 0.13, 4.13 0.08 C4.42 0.03, 4.71 0, 5 0 C5.29 0, 5.58 0.03, 5.87 0.08 C6.15 0.13, 6.44 0.2, 6.71 0.3 C6.98 0.4, 7.25 0.53, 7.5 0.67 C7.75 0.81, 7.99 0.98, 8.21 1.17 C8.44 1.36, 8.64 1.56, 8.83 1.79 C9.02 2.01, 9.19 2.25, 9.33 2.5 C9.47 2.75, 9.6 3.02, 9.7 3.29 C9.8 3.56, 9.87 3.85, 9.92 4.13 C9.97 4.42, 9.99 4.86, 10 5 C10.01 5.14, 10.01 4.86, 10 5" stroke="#1e1e1e" stroke-width="2" fill="none"></path></g><g stroke-linecap="round" transform="translate(233.41200000000003 296) rotate(0 10.5 3)"><path d="M1.5 0 C7.21 0, 12.92 0, 19.5 0 C20.5 0, 21 0.5, 21 1.5 C21 2.49, 21 3.48, 21 4.5 C21 5.5, 20.5 6, 19.5 6 C15.02 6, 10.54 6, 1.5 6 C0.5 6, 0 5.5, 0 4.5 C0 3.75, 0 2.99, 0 1.5 C0 0.5, 0.5 0, 1.5 0" stroke="none" stroke-width="0" fill="#1e1e1e"></path><path d="M1.5 0 C8.08 0, 14.66 0, 19.5 0 M1.5 0 C8.24 0, 14.98 0, 19.5 0 M19.5 0 C20.5 0, 21 0.5, 21 1.5 M19.5 0 C20.5 0, 21 0.5, 21 1.5 M21 1.5 C21 2.48, 21 3.47, 21 4.5 M21 1.5 C21 2.64, 21 3.77, 21 4.5 M21 4.5 C21 5.5, 20.5 6, 19.5 6 M21 4.5 C21 5.5, 20.5 6, 19.5 6 M19.5 6 C15.71 6, 11.93 6, 1.5 6 M19.5 6 C13.97 6, 8.45 6, 1.5 6 M1.5 6 C0.5 6, 0 5.5, 0 4.5 M1.5 6 C0.5 6, 0 5.5, 0 4.5 M0 4.5 C0 3.31, 0 2.12, 0 1.5 M0 4.5 C0 3.68, 0 2.85, 0 1.5 M0 1.5 C0 0.5, 0.5 0, 1.5 0 M0 1.5 C0 0.5, 0.5 0, 1.5 0" stroke="#1e1e1e" stroke-width="2" fill="none"></path></g><g stroke-linecap="round" transform="translate(261.91200000000003 296) rotate(0 10.5 3)"><path d="M1.5 0 C5.78 0, 10.05 0, 19.5 0 C20.5 0, 21 0.5, 21 1.5 C21 2.46, 21 3.41, 21 4.5 C21 5.5, 20.5 6, 19.5 6 C13.07 6, 6.63 6, 1.5 6 C0.5 6, 0 5.5, 0 4.5 C0 3.34, 0 2.18, 0 1.5 C0 0.5, 0.5 0, 1.5 0" stroke="none" stroke-width="0" fill="#1e1e1e"></path><path d="M1.5 0 C7.38 0, 13.25 0, 19.5 0 M1.5 0 C6.71 0, 11.91 0, 19.5 0 M19.5 0 C20.5 0, 21 0.5, 21 1.5 M19.5 0 C20.5 0, 21 0.5, 21 1.5 M21 1.5 C21 2.6, 21 3.7, 21 4.5 M21 1.5 C21 2.17, 21 2.83, 21 4.5 M21 4.5 C21 5.5, 20.5 6, 19.5 6 M21 4.5 C21 5.5, 20.5 6, 19.5 6 M19.5 6 C13.6 6, 7.69 6, 1.5 6 M19.5 6 C15.15 6, 10.81 6, 1.5 6 M1.5 6 C0.5 6, 0 5.5, 0 4.5 M1.5 6 C0.5 6, 0 5.5, 0 4.5 M0 4.5 C0 3.6, 0 2.69, 0 1.5 M0 4.5 C0 3.49, 0 2.48, 0 1.5 M0 1.5 C0 0.5, 0.5 0, 1.5 0 M0 1.5 C0 0.5, 0.5 0, 1.5 0" stroke="#1e1e1e" stroke-width="2" fill="none"></path></g><g stroke-linecap="round" transform="translate(144.41200000000003 319) rotate(0 72.5 16)"><path d="M8 0 C49.79 0, 91.59 0, 137 0 C142.33 0, 145 2.67, 145 8 C145 11.87, 145 15.75, 145 24 C145 29.33, 142.33 32, 137 32 C89.42 32, 41.84 32, 8 32 C2.67 32, 0 29.33, 0 24 C0 20.68, 0 17.36, 0 8 C0 2.67, 2.67 0, 8 0" stroke="none" stroke-width="0" fill="#ffffff"></path><path d="M8 0 C35.98 0, 63.96 0, 137 0 M8 0 C42.61 0, 77.23 0, 137 0 M137 0 C142.33 0, 145 2.67, 145 8 M137 0 C142.33 0, 145 2.67, 145 8 M145 8 C145 14.07, 145 20.13, 145 24 M145 8 C145 13.85, 145 19.71, 145 24 M145 24 C145 29.33, 142.33 32, 137 32 M145 24 C145 29.33, 142.33 32, 137 32 M137 32 C97.79 32, 58.58 32, 8 32 M137 32 C110.18 32, 83.36 32, 8 32 M8 32 C2.67 32, 0 29.33, 0 24 M8 32 C2.67 32, 0 29.33, 0 24 M0 24 C0 20.13, 0 16.26, 0 8 M0 24 C0 19.19, 0 14.38, 0 8 M0 8 C0 2.67, 2.67 0, 8 0 M0 8 C0 2.67, 2.67 0, 8 0" stroke="#1e1e1e" stroke-width="2" fill="none"></path></g><g stroke-linecap="round" transform="translate(155.41200000000003 329) rotate(0 5 5)"><path d="M10 5 C10 5.29, 9.97 5.58, 9.92 5.87 C9.87 6.15, 9.8 6.44, 9.7 6.71 C9.6 6.98, 9.47 7.25, 9.33 7.5 C9.19 7.75, 9.02 7.99, 8.83 8.21 C8.64 8.44, 8.44 8.64, 8.21 8.83 C7.99 9.02, 7.75 9.19, 7.5 9.33 C7.25 9.47, 6.98 9.6, 6.71 9.7 C6.44 9.8, 6.15 9.87, 5.87 9.92 C5.58 9.97, 5.29 10, 5 10 C4.71 10, 4.42 9.97, 4.13 9.92 C3.85 9.87, 3.56 9.8, 3.29 9.7 C3.02 9.6, 2.75 9.47, 2.5 9.33 C2.25 9.19, 2.01 9.02, 1.79 8.83 C1.56 8.64, 1.36 8.44, 1.17 8.21 C0.98 7.99, 0.81 7.75, 0.67 7.5 C0.53 7.25, 0.4 6.98, 0.3 6.71 C0.2 6.44, 0.13 6.15, 0.08 5.87 C0.03 5.58, 0 5.29, 0 5 C0 4.71, 0.03 4.42, 0.08 4.13 C0.13 3.85, 0.2 3.56, 0.3 3.29 C0.4 3.02, 0.53 2.75, 0.67 2.5 C0.81 2.25, 0.98 2.01, 1.17 1.79 C1.36 1.56, 1.56 1.36, 1.79 1.17 C2.01 0.98, 2.25 0.81, 2.5 0.67 C2.75 0.53, 3.02 0.4, 3.29 0.3 C3.56 0.2, 3.85 0.13, 4.13 0.08 C4.42 0.03, 4.71 0, 5 0 C5.29 0, 5.58 0.03, 5.87 0.08 C6.15 0.13, 6.44 0.2, 6.71 0.3 C6.98 0.4, 7.25 0.53, 7.5 0.67 C7.75 0.81, 7.99 0.98, 8.21 1.17 C8.44 1.36, 8.64 1.56, 8.83 1.79 C9.02 2.01, 9.19 2.25, 9.33 2.5 C9.47 2.75, 9.6 3.02, 9.7 3.29 C9.8 3.56, 9.87 3.85, 9.92 4.13 C9.97 4.42, 9.99 4.86, 10 5 C10.01 5.14, 10.01 4.86, 10 5" stroke="none" stroke-width="0" fill="#1e1e1e"></path><path d="M10 5 C10 5.29, 9.97 5.58, 9.92 5.87 C9.87 6.15, 9.8 6.44, 9.7 6.71 C9.6 6.98, 9.47 7.25, 9.33 7.5 C9.19 7.75, 9.02 7.99, 8.83 8.21 C8.64 8.44, 8.44 8.64, 8.21 8.83 C7.99 9.02, 7.75 9.19, 7.5 9.33 C7.25 9.47, 6.98 9.6, 6.71 9.7 C6.44 9.8, 6.15 9.87, 5.87 9.92 C5.58 9.97, 5.29 10, 5 10 C4.71 10, 4.42 9.97, 4.13 9.92 C3.85 9.87, 3.56 9.8, 3.29 9.7 C3.02 9.6, 2.75 9.47, 2.5 9.33 C2.25 9.19, 2.01 9.02, 1.79 8.83 C1.56 8.64, 1.36 8.44, 1.17 8.21 C0.98 7.99, 0.81 7.75, 0.67 7.5 C0.53 7.25, 0.4 6.98, 0.3 6.71 C0.2 6.44, 0.13 6.15, 0.08 5.87 C0.03 5.58, 0 5.29, 0 5 C0 4.71, 0.03 4.42, 0.08 4.13 C0.13 3.85, 0.2 3.56, 0.3 3.29 C0.4 3.02, 0.53 2.75, 0.67 2.5 C0.81 2.25, 0.98 2.01, 1.17 1.79 C1.36 1.56, 1.56 1.36, 1.79 1.17 C2.01 0.98, 2.25 0.81, 2.5 0.67 C2.75 0.53, 3.02 0.4, 3.29 0.3 C3.56 0.2, 3.85 0.13, 4.13 0.08 C4.42 0.03, 4.71 0, 5 0 C5.29 0, 5.58 0.03, 5.87 0.08 C6.15 0.13, 6.44 0.2, 6.71 0.3 C6.98 0.4, 7.25 0.53, 7.5 0.67 C7.75 0.81, 7.99 0.98, 8.21 1.17 C8.44 1.36, 8.64 1.56, 8.83 1.79 C9.02 2.01, 9.19 2.25, 9.33 2.5 C9.47 2.75, 9.6 3.02, 9.7 3.29 C9.8 3.56, 9.87 3.85, 9.92 4.13 C9.97 4.42, 9.99 4.86, 10 5 C10.01 5.14, 10.01 4.86, 10 5" stroke="#1e1e1e" stroke-width="2" fill="none"></path></g><g stroke-linecap="round" transform="translate(233.41200000000003 336) rotate(0 10.5 3)"><path d="M1.5 0 C7.18 0, 12.86 0, 19.5 0 C20.5 0, 21 0.5, 21 1.5 C21 2.24, 21 2.97, 21 4.5 C21 5.5, 20.5 6, 19.5 6 C12.51 6, 5.52 6, 1.5 6 C0.5 6, 0 5.5, 0 4.5 C0 3.44, 0 2.38, 0 1.5 C0 0.5, 0.5 0, 1.5 0" stroke="none" stroke-width="0" fill="#1e1e1e"></path><path d="M1.5 0 C8.42 0, 15.34 0, 19.5 0 M1.5 0 C6.08 0, 10.65 0, 19.5 0 M19.5 0 C20.5 0, 21 0.5, 21 1.5 M19.5 0 C20.5 0, 21 0.5, 21 1.5 M21 1.5 C21 2.69, 21 3.87, 21 4.5 M21 1.5 C21 2.2, 21 2.9, 21 4.5 M21 4.5 C21 5.5, 20.5 6, 19.5 6 M21 4.5 C21 5.5, 20.5 6, 19.5 6 M19.5 6 C15.17 6, 10.85 6, 1.5 6 M19.5 6 C14.35 6, 9.2 6, 1.5 6 M1.5 6 C0.5 6, 0 5.5, 0 4.5 M1.5 6 C0.5 6, 0 5.5, 0 4.5 M0 4.5 C0 3.72, 0 2.94, 0 1.5 M0 4.5 C0 3.65, 0 2.79, 0 1.5 M0 1.5 C0 0.5, 0.5 0, 1.5 0 M0 1.5 C0 0.5, 0.5 0, 1.5 0" stroke="#1e1e1e" stroke-width="2" fill="none"></path></g><g stroke-linecap="round" transform="translate(261.91200000000003 336) rotate(0 10.5 3)"><path d="M1.5 0 C6.05 0, 10.61 0, 19.5 0 C20.5 0, 21 0.5, 21 1.5 C21 2.28, 21 3.07, 21 4.5 C21 5.5, 20.5 6, 19.5 6 C14.49 6, 9.49 6, 1.5 6 C0.5 6, 0 5.5, 0 4.5 C0 3.76, 0 3.02, 0 1.5 C0 0.5, 0.5 0, 1.5 0" stroke="none" stroke-width="0" fill="#1e1e1e"></path><path d="M1.5 0 C6.37 0, 11.23 0, 19.5 0 M1.5 0 C8.57 0, 15.63 0, 19.5 0 M19.5 0 C20.5 0, 21 0.5, 21 1.5 M19.5 0 C20.5 0, 21 0.5, 21 1.5 M21 1.5 C21 2.42, 21 3.34, 21 4.5 M21 1.5 C21 2.39, 21 3.27, 21 4.5 M21 4.5 C21 5.5, 20.5 6, 19.5 6 M21 4.5 C21 5.5, 20.5 6, 19.5 6 M19.5 6 C13.27 6, 7.04 6, 1.5 6 M19.5 6 C15.81 6, 12.13 6, 1.5 6 M1.5 6 C0.5 6, 0 5.5, 0 4.5 M1.5 6 C0.5 6, 0 5.5, 0 4.5 M0 4.5 C0 3.72, 0 2.95, 0 1.5 M0 4.5 C0 3.77, 0 3.05, 0 1.5 M0 1.5 C0 0.5, 0.5 0, 1.5 0 M0 1.5 C0 0.5, 0.5 0, 1.5 0" stroke="#1e1e1e" stroke-width="2" fill="none"></path></g></svg>