<svg version="1.1" xmlns="http://www.w3.org/2000/svg" viewBox="0 0 1265.0240201130737 475.8555515825301" width="2530.0480402261474" height="951.7111031650602">
  <!-- svg-source:excalidraw -->
  
  <defs>
    <style class="style-fonts">
      @font-face {
        font-family: "Virgil";
        src: url("https://excalidraw.com/Virgil.woff2");
      }
      @font-face {
        font-family: "Cascadia";
        src: url("https://excalidraw.com/Cascadia.woff2");
      }
      @font-face {
        font-family: "Assistant";
        src: url("https://excalidraw.com/Assistant-Regular.woff2");
      }
    </style>
    
  </defs>
  <rect x="0" y="0" width="1265.0240201130737" height="475.8555515825301" fill="#ffffff"></rect><g stroke-linecap="round"><g stroke-opacity="0.5" fill-opacity="0.5" transform="translate(256.6712971098108 31.767455373266927) rotate(358.85569344562947 3.484193919835718 214.34401696519012)" fill-rule="evenodd"><path d="M-3.45 2.53 L65.06 161.59 L248.67 165.37 L97.78 267.7 L180.67 423.33 L8.12 345.18 L-162.62 431.78 L-80.64 271.46 L-240.6 170.48 L-57.52 168.5 L-3.6 -1.45" stroke="none" stroke-width="0" fill="#ffec99" fill-rule="evenodd"></path><path d="M1.76 -1.8 C25.07 49.9, 48.18 105.96, 62.74 164.21 M-1.79 -1.69 C19.11 34.34, 31.38 70.38, 67.08 163.11 M68.88 163.49 C117.96 166.73, 171.92 162.56, 251.86 164.43 M65.25 162.21 C104.24 162.5, 142.45 164.48, 250.77 165.74 M253.75 167.77 C189.76 201.43, 131.35 240.9, 94.57 263.77 M252.68 165.9 C209.17 196.16, 162.77 224.75, 97.99 268.91 M100.09 268.69 C128.08 327.4, 160.46 378.8, 178.49 424.62 M96.7 268.13 C125.8 315.74, 149.55 366.69, 179.74 427.6 M182.1 427.08 C121.4 399.66, 57.53 369.34, 11.29 340.72 M180.5 427.17 C133.31 403.1, 85.57 378.04, 7.01 343.13 M3.99 341.11 C-49.28 373.73, -108.13 399.3, -168.36 429.61 M6.31 344.61 C-42.95 371.96, -94.12 394.02, -165.85 429.23 M-165 430.77 C-133.01 379.02, -107.67 321.56, -80.58 265.88 M-165.32 427.48 C-139.75 386.99, -119.07 346.65, -82.56 270.88 M-84.43 271.07 C-124.32 240.97, -163.1 215.36, -240.52 166.19 M-84.88 271.02 C-135.31 236.12, -189.4 202.45, -244.79 166.98 M-242.86 169.14 C-205.47 169.14, -166.02 165.47, -62.11 165.86 M-245.82 169.43 C-205.01 167.43, -164.52 164.11, -59.54 168.57 M-57.7 164.69 C-45.04 136.84, -37.57 103.31, -3.95 3.74 M-59.94 166.01 C-39.28 116.21, -22.21 64.07, -0.62 1.32 M0 0 C0 0, 0 0, 0 0 M0 0 C0 0, 0 0, 0 0" stroke="#1e1e1e" stroke-width="2" fill="none"></path></g></g><mask></mask><g stroke-linecap="round"><g transform="translate(444.34940462812017 26.887671515455764) rotate(358.85569344562947 3.484193919835718 214.34401696519012)" fill-rule="evenodd"><path d="M-2.13 -2.58 L68.3 160.59 L247.37 165.7 L99.99 268.05 L176.94 423.91 L3.5 347.69 L-164.58 431.42 L-85.89 272.94 L-240.61 172.01 L-61.23 169.77 L2.53 0.77" stroke="none" stroke-width="0" fill="#ffec99" fill-rule="evenodd"></path><path d="M1.09 1.67 C13.3 41.77, 31.95 89.34, 68.42 165.85 M-1.71 -0.77 C19.22 47.58, 40.11 96.74, 66.85 161.28 M69.07 160.31 C123.73 157.78, 184.95 163.11, 251.09 163.96 M64.53 162.52 C133.15 158.88, 198.96 161.64, 252.27 164.14 M247.37 160.6 C212.3 194.6, 169.22 219.13, 96.43 271.37 M250.77 162.37 C209.05 192.1, 162.94 220.7, 96.56 268.58 M100.22 263.71 C118.01 316.37, 146.17 363.29, 180.57 429.95 M98.92 267.81 C117.06 303.22, 133.91 334.76, 180.46 427.83 M182.31 425.95 C129.57 398.74, 86.6 379.09, 7.65 344.95 M177.94 427.34 C132.83 405.79, 84.76 382.22, 8.72 345.46 M10.36 341.01 C-31.18 362.23, -76.76 381.33, -163.13 429.42 M7.8 344.82 C-43.21 368.9, -94.64 393.92, -162.55 429.45 M-165.88 432.38 C-138.01 379.06, -110.06 320.56, -87.41 269.44 M-165.19 429.51 C-139.6 383.91, -114.42 337.62, -83.35 271.02 M-85.49 270.56 C-136.32 235.81, -187.94 203.61, -243.81 169.17 M-81.77 270.91 C-129.15 241.86, -176.39 211.37, -245.58 167.34 M-240.52 166.17 C-171.98 170.92, -96.17 168.91, -57.8 167.43 M-245.65 169.48 C-175.29 163.49, -108.98 164.65, -58.5 167.68 M-59.88 170.45 C-42.84 124.8, -24.74 80.66, 0.53 -1.42 M-58.87 166.75 C-31.23 100.6, -9.69 34.45, 1.85 -0.03 M0 0 C0 0, 0 0, 0 0 M0 0 C0 0, 0 0, 0 0" stroke="#1e1e1e" stroke-width="2" fill="none"></path></g></g><mask></mask><g stroke-linecap="round"><g stroke-opacity="0.5" fill-opacity="0.5" transform="translate(1004.3494046281202 9.887671515455708) rotate(358.85569344562947 3.4841939198356613 214.34401696519015)" fill-rule="evenodd"><path d="M-1.98 -2.67 L63.86 160.76 L250.81 163.1 L99.35 270.2 L181.57 423.13 L9.82 343.36 L-167.31 428.23 L-85.87 271.14 L-245.68 165.62 L-61.19 168.91 L1.7 -2.16" stroke="none" stroke-width="0" fill="#ffec99" fill-rule="evenodd"></path><path d="M-1.6 1.28 C26.72 60.11, 52.31 125.58, 66.23 161.33 M-0.64 0.58 C25.16 63.17, 48.96 125.95, 64.94 161.86 M63.34 164.35 C119.18 160.62, 176.88 168.14, 251.78 161.33 M65.85 163.35 C109.08 161.31, 156.41 161.51, 250.25 165.46 M249.46 163.44 C194.24 197.8, 139.15 238.15, 96.48 270.01 M250.39 164.85 C217.57 186.97, 181.78 212.24, 97.14 267.85 M100.55 269.78 C132.21 334.93, 159.56 393.31, 176.23 423.06 M97.08 268.12 C114.63 309.15, 136.4 346.37, 180.39 426.41 M177.07 427.52 C136.66 401.56, 91.09 383.46, 5.24 345.34 M177.93 424.81 C130.83 403.07, 82.01 379.26, 7.66 345.98 M3.8 343.94 C-40.77 369.62, -97.52 392.05, -161.04 431.21 M8.82 343.04 C-60.53 378.48, -129.76 411.41, -165.14 428.93 M-167.24 425.86 C-132.06 374.45, -103.45 318.7, -79.68 265.85 M-163.15 429.48 C-135.63 379.13, -109.65 327.38, -83.34 270 M-86.58 268.88 C-140.92 234.82, -194.91 200.53, -244.53 170.27 M-85.06 268.13 C-137.94 237.56, -191.31 201.73, -245.29 167.01 M-247.49 170.44 C-184.52 164.66, -123.08 168.39, -62.01 169.84 M-246.06 167.1 C-189.33 170.2, -131.7 172.02, -57.84 166.99 M-61.84 170.37 C-44.78 130.87, -32.65 90.86, 3.09 3.29 M-60.77 168.7 C-49.25 128.77, -35.79 92.25, -1.75 0.77 M0 0 C0 0, 0 0, 0 0 M0 0 C0 0, 0 0, 0 0" stroke="#1e1e1e" stroke-width="2" fill="none"></path></g></g><mask></mask><g stroke-linecap="round"><g transform="translate(819.3494046281202 16.887671515455764) rotate(358.85569344562947 3.4841939198356613 214.34401696519012)" fill-rule="evenodd"><path d="M1.87 -2.13 L65.67 159.17 L248.5 166.72 L97.99 270.84 L180.16 430.3 L4.03 345.55 L-166.42 426.12 L-81.06 270.88 L-242.8 172.08 L-58.42 170.9 L0.59 1.4" stroke="none" stroke-width="0" fill="#ffec99" fill-rule="evenodd"></path><path d="M3.51 -2.65 C28.39 55.94, 51.92 117.23, 65.53 159.32 M0.5 -1.51 C22.84 54.21, 45.36 109.28, 67.42 163.06 M67.44 158.38 C137.56 165.05, 212.33 165.1, 252.17 162.48 M64.1 161.79 C103.31 163.78, 141.1 163.91, 252.37 163.74 M251.98 164.26 C202.8 198.26, 154.29 227.35, 93.94 264.73 M250.7 164.72 C204.9 197.98, 155.78 229.86, 98.23 267.65 M100.66 267.63 C118.05 301.18, 133.3 344.67, 181.76 427.89 M97.69 269.46 C123.52 319.67, 153.5 370.51, 179.47 426.92 M178.95 424.75 C121.7 401.65, 65.99 372.61, 10.08 345.66 M177.75 425.39 C126.49 403.78, 73.54 377.6, 6.81 343.77 M5.88 345.74 C-59.09 372.76, -126.8 407.72, -164.13 428.04 M6.84 345.04 C-58.47 374.63, -126.25 407.48, -165.41 428.57 M-167.02 431.06 C-139.89 378.59, -113.04 338.49, -83.18 266.57 M-164.51 430.05 C-143.08 391.1, -120.75 352.69, -84.71 270.7 M-85.5 268.67 C-143.84 228.98, -201.27 195.28, -244.92 171.37 M-84.57 270.08 C-119.03 245.7, -156.29 224.51, -244.27 169.22 M-240.86 171.14 C-168.28 175.22, -100.66 170.57, -62.51 163.7 M-244.32 169.48 C-197.39 167.52, -149.18 163.34, -58.36 167.04 M-61.67 168.15 C-43.66 122.38, -31.11 82.89, -2.24 0.87 M-60.81 165.44 C-43.26 119.49, -26.94 71.7, 0.19 1.52 M0 0 C0 0, 0 0, 0 0 M0 0 C0 0, 0 0, 0 0" stroke="#1e1e1e" stroke-width="2" fill="none"></path></g></g><mask></mask><g stroke-linecap="round"><g transform="translate(632.1990263704805 21.701135904953873) rotate(358.85569344562947 3.484193919835718 214.34401696519012)" fill-rule="evenodd"><path d="M-0.94 -1.61 L69.23 161.84 L248.68 165.49 L95.55 266.31 L178.12 425.91 L7.4 343.87 L-166.85 425.08 L-84.99 268.03 L-240.7 168.84 L-55.74 168.81 L-0.82 -1.65" stroke="none" stroke-width="0" fill="#ffd43b" fill-rule="evenodd"></path><path d="M-3.67 -3.88 C21.74 48.5, 38.12 100.27, 63.02 161.1 M-0.78 0.06 C16.66 42.78, 32.53 86.96, 66.48 160.41 M64.51 158.05 C112 161.5, 147.6 160.49, 247.64 165.53 M64.84 162.4 C126.16 165.19, 182.5 163.44, 249.89 162.47 M255.05 162.27 C209.96 193.08, 168.35 219.48, 99.44 265.81 M250.65 165.66 C207.51 196.47, 161.37 227.33, 96.2 266.45 M96.21 269.31 C126.53 329.45, 154.43 381.26, 180.32 425.41 M98.13 266.63 C127.41 326.94, 159.37 385.99, 180.84 428.21 M178.46 423.06 C143.24 402.46, 98.08 387.24, 3.94 343.44 M177.91 425.45 C125.16 399.69, 70.91 373.99, 9.36 345.85 M6.03 341.08 C-40.95 366.1, -91.46 389.09, -161.23 431.05 M5.77 345.49 C-51.53 377.97, -112.31 407.41, -163.23 429.72 M-168.06 426.95 C-142.22 375.79, -116.45 324.95, -85.79 268.66 M-166.06 427.39 C-142.35 389.27, -119.87 346.04, -81.84 269.3 M-79.85 267.52 C-123.93 242.63, -166.2 213.05, -247.61 167.06 M-82.28 267.92 C-142.9 235.71, -199.75 200.83, -243.22 167.91 M-242.63 170.03 C-200.74 166.9, -161.62 163.6, -55.62 167.88 M-244.41 170.66 C-203.62 170.14, -158.86 170.2, -59.32 168.81 M-58.78 170.56 C-49.46 125.99, -29.66 87.67, -3.62 -3.38 M-58.18 168.18 C-40.57 103.37, -17.36 39.92, 1.24 1.85 M0 0 C0 0, 0 0, 0 0 M0 0 C0 0, 0 0, 0 0" stroke="#1e1e1e" stroke-width="2" fill="none"></path></g></g><mask></mask></svg>