<svg version="1.1" xmlns="http://www.w3.org/2000/svg" viewBox="0 0 686.5 332.4346496832795" width="1373" height="664.869299366559">
  <!-- svg-source:excalidraw -->
  
  <defs>
    <style class="style-fonts">
      @font-face {
        font-family: "Virgil";
        src: url("https://excalidraw.com/Virgil.woff2");
      }
      @font-face {
        font-family: "Cascadia";
        src: url("https://excalidraw.com/Cascadia.woff2");
      }
      @font-face {
        font-family: "Assistant";
        src: url("https://excalidraw.com/Assistant-Regular.woff2");
      }
    </style>
    
  </defs>
  <rect x="0" y="0" width="686.5" height="332.4346496832795" fill="#ffffff"></rect><g stroke-linecap="round" transform="translate(10 172) rotate(0 73.5 73.5)"><path d="M7.86 8.16 C7.86 8.16, 7.86 8.16, 7.86 8.16 M7.86 8.16 C7.86 8.16, 7.86 8.16, 7.86 8.16 M1.43 27.75 C8.85 20.57, 13.97 14.5, 24.4 1.33 M1.43 27.75 C7.79 21.12, 11.65 15.37, 24.4 1.33 M0.91 40.54 C14.97 23.1, 30.66 9.71, 36.34 -0.21 M0.91 40.54 C10.04 31.2, 17.57 22.2, 36.34 -0.21 M1.04 52.58 C11.16 43.39, 19.05 31.65, 46.31 0.51 M1.04 52.58 C16.75 34.14, 34.3 15.71, 46.31 0.51 M1.18 64.62 C16.76 43.21, 36.24 25.57, 56.94 0.47 M1.18 64.62 C13.2 49.93, 26.38 36.44, 56.94 0.47 M0.65 77.42 C14.55 63.15, 28.55 46.73, 67.57 0.44 M0.65 77.42 C22.61 50.6, 46.18 25.33, 67.57 0.44 M0.79 89.46 C19.37 67.77, 39.42 45.07, 78.2 0.41 M0.79 89.46 C21.13 66.3, 42.26 41.3, 78.2 0.41 M0.92 101.5 C34.29 63.38, 65.97 27.52, 88.83 0.37 M0.92 101.5 C21.88 78.68, 40.54 55.15, 88.83 0.37 M0.4 114.3 C21.6 91.24, 40.76 67.11, 99.46 0.34 M0.4 114.3 C41.79 70.4, 80.83 24.89, 99.46 0.34 M1.84 124.83 C27.94 95.3, 56.52 61.64, 110.09 0.3 M1.84 124.83 C42.66 77.49, 83.98 29.36, 110.09 0.3 M4.6 133.85 C43.94 88.13, 86.16 40.34, 120.72 0.27 M4.6 133.85 C37.04 97.96, 67.87 61.54, 120.72 0.27 M9.98 139.85 C43.23 102.71, 75.79 62.58, 128.73 3.25 M9.98 139.85 C43.8 100.79, 79.58 60.27, 128.73 3.25 M16.68 144.35 C64.08 91.27, 110.86 35.64, 136.73 6.24 M16.68 144.35 C57.13 98.72, 98.73 51.96, 136.73 6.24 M25.34 146.58 C60.38 109.05, 93.2 69.34, 142.12 12.24 M25.34 146.58 C64.79 100.76, 105.27 54.35, 142.12 12.24 M35.31 147.3 C74.32 101.74, 118.33 53.22, 145.53 20.51 M35.31 147.3 C61.8 116.65, 91.66 83.99, 145.53 20.51 M45.94 147.26 C83.1 103.53, 119.45 61.43, 146.98 31.04 M45.94 147.26 C66.73 121.32, 89.52 96.01, 146.98 31.04 M56.57 147.23 C83.63 117.72, 107.6 91.31, 147.11 43.08 M56.57 147.23 C83.36 114.95, 112.33 81.35, 147.11 43.08 M67.2 147.19 C85.95 123.09, 105.77 101.21, 147.24 55.12 M67.2 147.19 C95.64 114.9, 123.48 82.59, 147.24 55.12 M77.83 147.16 C93.26 130.83, 106.86 114.52, 147.37 67.16 M77.83 147.16 C106.38 117.19, 131.88 85.79, 147.37 67.16 M88.46 147.12 C106.86 126.58, 124.68 106.03, 147.51 79.2 M88.46 147.12 C100.03 132.16, 113.18 116.26, 147.51 79.2 M99.09 147.09 C112.03 131.62, 125.39 119.3, 146.98 92 M99.09 147.09 C117.36 126.15, 135.47 105.14, 146.98 92 M109.07 147.81 C123.05 133.07, 132.19 121.38, 147.12 104.04 M109.07 147.81 C119.8 136.14, 130.65 123.94, 147.12 104.04 M121.01 146.27 C126.46 140.99, 131.7 132.82, 147.91 115.32 M121.01 146.27 C131.63 134.44, 141.1 122.74, 147.91 115.32 M134.92 142.46 C136.77 140.12, 140.15 134.7, 143.45 132.65 M134.92 142.46 C136.58 139.94, 139.02 138.13, 143.45 132.65 M12.56 142.55 C12.56 142.55, 12.56 142.55, 12.56 142.55 M12.56 142.55 C12.56 142.55, 12.56 142.55, 12.56 142.55 M29.13 146.35 C20.2 139.93, 14.08 132.86, 1.96 122.74 M29.13 146.35 C22.04 139.55, 12.61 133.37, 1.96 122.74 M41.17 146.22 C24.27 131.36, 11.79 119.51, 0.41 110.79 M41.17 146.22 C27.6 134.18, 14.21 123.81, 0.41 110.79 M53.96 146.74 C35 130.02, 17.99 116.38, 0.38 100.16 M53.96 146.74 C40.6 135.35, 27.68 123.62, 0.38 100.16 M66.01 146.61 C41.94 122.6, 15.99 102.54, 0.35 89.53 M66.01 146.61 C49.72 132.01, 33.61 118.15, 0.35 89.53 M78.05 146.48 C46.81 119.32, 15.69 94.16, 0.31 78.9 M78.05 146.48 C56.32 129.31, 36.49 110.62, 0.31 78.9 M90.09 146.34 C57.31 118.65, 27.25 87.73, 0.28 68.27 M90.09 146.34 C62.08 122.34, 32.93 97.29, 0.28 68.27 M102.88 146.87 C77.26 123.13, 52.89 100.76, 0.24 57.64 M102.88 146.87 C78.58 127.1, 56.67 105.97, 0.24 57.64 M114.92 146.73 C79.36 114.86, 42.66 86.14, 0.96 47.67 M114.92 146.73 C79.45 113.67, 42.57 81.11, 0.96 47.67 M125.45 145.29 C89.15 115.05, 53.59 81.03, 0.93 37.04 M125.45 145.29 C93.34 118.31, 62.32 91.35, 0.93 37.04 M134.48 142.53 C89.14 102.95, 39.86 63.54, 0.89 26.41 M134.48 142.53 C82.8 97.97, 30.61 53.57, 0.89 26.41 M139.73 136.49 C96.91 100.46, 56.22 63.56, 2.37 17.09 M139.73 136.49 C99.85 103.17, 59.2 67.65, 2.37 17.09 M144.22 129.8 C103.85 93.15, 60.29 54.88, 6.86 10.4 M144.22 129.8 C97.49 87.17, 49.1 45.9, 6.86 10.4 M147.2 121.79 C105.88 88.09, 67.29 51.6, 12.86 5.02 M147.2 121.79 C98.31 78.53, 48.15 34.67, 12.86 5.02 M147.17 111.16 C108.96 77.62, 72.45 45.47, 21.13 1.6 M147.17 111.16 C118.52 84.57, 89.4 59.4, 21.13 1.6 M147.13 100.53 C116.61 72.77, 85.21 47.94, 31.66 0.16 M147.13 100.53 C109.96 67.64, 73.59 34.57, 31.66 0.16 M147.1 89.9 C109.01 56.25, 71.11 21.87, 42.95 -0.63 M147.1 89.9 C110.46 56.34, 71.83 25.36, 42.95 -0.63 M147.07 79.27 C125.29 58.08, 101.68 42.3, 55.75 -0.11 M147.07 79.27 C126.22 62.7, 106.42 44.1, 55.75 -0.11 M147.03 68.64 C127.32 48.7, 103.95 32.83, 67.79 -0.24 M147.03 68.64 C129.54 55.27, 113.37 41.6, 67.79 -0.24 M147 58.01 C129.04 41.93, 114.44 27.43, 79.83 -0.38 M147 58.01 C131.75 45.81, 117.18 33.56, 79.83 -0.38 M146.96 47.38 C134.52 37.01, 120.75 22.97, 92.62 0.15 M146.96 47.38 C135.79 37.83, 123.99 27.86, 92.62 0.15 M146.93 36.75 C135.35 25.21, 121.74 12.69, 104.66 0.01 M146.93 36.75 C135.8 28.34, 125.09 17.91, 104.66 0.01 M146.14 25.47 C139.37 17.91, 130.57 12.17, 116.7 -0.12 M146.14 25.47 C137.18 16.7, 126.69 9.84, 116.7 -0.12 M143.08 12.21 C139.83 8.45, 136.77 5.04, 132.52 3.03 M143.08 12.21 C139.06 9.74, 135.73 5.82, 132.52 3.03" stroke="#4dabf7" stroke-width="1" fill="none"></path><path d="M32 0 C51.09 0.91, 70.51 0.12, 115 0 M32 0 C56.68 1.47, 80.57 0.29, 115 0 M115 0 C135.42 0.5, 146.08 9.96, 147 32 M115 0 C136.66 2.01, 147.31 10.49, 147 32 M147 32 C145.65 66.16, 146.79 97.43, 147 115 M147 32 C146.64 63.45, 147.85 93.34, 147 115 M147 115 C147.96 137.36, 137.8 148.71, 115 147 M147 115 C147.06 137.79, 135.82 145.87, 115 147 M115 147 C91.79 146.47, 64.66 147.06, 32 147 M115 147 C84.65 147.44, 55.84 146.97, 32 147 M32 147 C8.85 146.16, 1.15 138.21, 0 115 M32 147 C8.37 146.97, -0.65 135.69, 0 115 M0 115 C0.64 84.49, -1.22 56.19, 0 32 M0 115 C0.15 89.16, -0.26 63.3, 0 32 M0 32 C1.94 9.98, 12.49 -0.2, 32 0 M0 32 C-0.96 9.02, 9.72 -0.38, 32 0" stroke="#1e1e1e" stroke-width="2" fill="none"></path></g><g stroke-linecap="round" transform="translate(529.5 167.5) rotate(0 73.5 73.5)"><path d="M7.86 8.16 C7.86 8.16, 7.86 8.16, 7.86 8.16 M7.86 8.16 C7.86 8.16, 7.86 8.16, 7.86 8.16 M1.43 27.75 C6.41 19.9, 11.01 17.03, 24.4 1.33 M1.43 27.75 C6.49 22.59, 12.05 15.31, 24.4 1.33 M0.91 40.54 C13.64 25.91, 30.01 8.55, 36.34 -0.21 M0.91 40.54 C10.58 29.51, 19.78 19.82, 36.34 -0.21 M1.04 52.58 C12.23 38.33, 26.05 23.46, 46.31 0.51 M1.04 52.58 C15.75 35.81, 27.88 21.51, 46.31 0.51 M1.18 64.62 C21.99 39.01, 44.44 17.76, 56.94 0.47 M1.18 64.62 C16.58 46.53, 34.19 25.95, 56.94 0.47 M0.65 77.42 C20.64 53.87, 43.1 31.65, 67.57 0.44 M0.65 77.42 C16.87 58.44, 32.87 40.13, 67.57 0.44 M0.79 89.46 C27.67 58.84, 52.18 30.59, 78.2 0.41 M0.79 89.46 C20.18 66.27, 39.6 45.06, 78.2 0.41 M0.92 101.5 C25.29 69.8, 54.86 39.31, 88.83 0.37 M0.92 101.5 C34.13 65.57, 65.3 28.49, 88.83 0.37 M0.4 114.3 C34.72 77.66, 64.05 37.82, 99.46 0.34 M0.4 114.3 C40.03 69.93, 79.23 23.7, 99.46 0.34 M1.84 124.83 C26.65 93.15, 56.44 61.27, 110.09 0.3 M1.84 124.83 C40.38 81.85, 77.79 38.16, 110.09 0.3 M4.6 133.85 C46.76 88.02, 86.23 42.61, 120.72 0.27 M4.6 133.85 C36.04 96.67, 66.65 61.47, 120.72 0.27 M9.98 139.85 C57.31 89.54, 101.15 36.03, 128.73 3.25 M9.98 139.85 C39.14 106.78, 66.14 74.77, 128.73 3.25 M16.68 144.35 C49.69 110.15, 77.17 73.26, 136.73 6.24 M16.68 144.35 C45.87 111.84, 72.5 81.1, 136.73 6.24 M25.34 146.58 C58.96 109.02, 93.28 68.08, 142.12 12.24 M25.34 146.58 C69.36 96.49, 112.32 48.33, 142.12 12.24 M35.31 147.3 C66.75 112.66, 101.5 74.11, 145.53 20.51 M35.31 147.3 C68.25 110.41, 99.88 73.95, 145.53 20.51 M45.94 147.26 C69.23 121.1, 90.43 91.5, 146.98 31.04 M45.94 147.26 C69.48 118.02, 94.93 89.64, 146.98 31.04 M56.57 147.23 C84.02 114.91, 110.83 82.9, 147.11 43.08 M56.57 147.23 C83.13 115.43, 109.77 85.94, 147.11 43.08 M67.2 147.19 C82.25 128.34, 100.71 108.19, 147.24 55.12 M67.2 147.19 C94.19 117.88, 118.48 86.96, 147.24 55.12 M77.83 147.16 C103.11 116.62, 130.32 88.16, 147.37 67.16 M77.83 147.16 C99.26 120.25, 123.68 95.14, 147.37 67.16 M88.46 147.12 C105.45 127.97, 123.81 107.83, 147.51 79.2 M88.46 147.12 C111.6 122.47, 133.81 96.72, 147.51 79.2 M99.09 147.09 C115.58 127.29, 136.34 105.46, 146.98 92 M99.09 147.09 C114.35 129.29, 128.44 112.92, 146.98 92 M109.07 147.81 C121.79 133.74, 132.29 118.3, 147.12 104.04 M109.07 147.81 C120.83 133.99, 133.37 119.21, 147.12 104.04 M121.01 146.27 C131.12 134.64, 141.94 123.49, 147.91 115.32 M121.01 146.27 C126.38 139.79, 133.52 131.93, 147.91 115.32 M134.92 142.46 C137.36 138.53, 141.68 135.29, 143.45 132.65 M134.92 142.46 C136.66 139.53, 138.91 137.02, 143.45 132.65 M12.56 142.55 C12.56 142.55, 12.56 142.55, 12.56 142.55 M12.56 142.55 C12.56 142.55, 12.56 142.55, 12.56 142.55 M29.13 146.35 C21.77 140.28, 12.72 132.14, 1.96 122.74 M29.13 146.35 C22.54 140.54, 14.37 134.76, 1.96 122.74 M41.17 146.22 C31.14 139.85, 21.98 131.26, 0.41 110.79 M41.17 146.22 C31.53 138.66, 23.98 130.46, 0.41 110.79 M53.96 146.74 C34.04 128.41, 15.94 114.35, 0.38 100.16 M53.96 146.74 C41.62 137.19, 31.79 125.88, 0.38 100.16 M66.01 146.61 C44.31 130.71, 22.5 109.93, 0.35 89.53 M66.01 146.61 C48.34 132.56, 31.95 117.07, 0.35 89.53 M78.05 146.48 C48.38 120.19, 21.25 97.33, 0.31 78.9 M78.05 146.48 C48.01 121.01, 20.79 96.4, 0.31 78.9 M90.09 146.34 C64.1 121.24, 35.23 101.34, 0.28 68.27 M90.09 146.34 C58.73 119.5, 29.18 93.25, 0.28 68.27 M102.88 146.87 C65.14 111.35, 28.25 81.17, 0.24 57.64 M102.88 146.87 C72.1 122.14, 41.04 95.97, 0.24 57.64 M114.92 146.73 C86.26 121.83, 56.87 96.38, 0.96 47.67 M114.92 146.73 C87.88 122.75, 60.56 97.93, 0.96 47.67 M125.45 145.29 C76.11 102.51, 27.31 58.53, 0.93 37.04 M125.45 145.29 C90.08 114.81, 55.74 84.32, 0.93 37.04 M134.48 142.53 C101.98 116.11, 69.73 85.3, 0.89 26.41 M134.48 142.53 C90.79 103.74, 46.23 65.35, 0.89 26.41 M139.73 136.49 C98.73 100.1, 56.31 63.15, 2.37 17.09 M139.73 136.49 C92.19 95.87, 45.89 55.27, 2.37 17.09 M144.22 129.8 C114.35 107.33, 85.1 82.14, 6.86 10.4 M144.22 129.8 C117.58 104.93, 89.67 81.16, 6.86 10.4 M147.2 121.79 C112.21 93.92, 81.17 62.53, 12.86 5.02 M147.2 121.79 C95.84 76.22, 45.39 30.31, 12.86 5.02 M147.17 111.16 C108.57 80.62, 73.59 46.78, 21.13 1.6 M147.17 111.16 C117.65 84.25, 89.32 60.14, 21.13 1.6 M147.13 100.53 C102.76 62.69, 61.27 24.58, 31.66 0.16 M147.13 100.53 C121.42 76.59, 94.44 54.93, 31.66 0.16 M147.1 89.9 C113.2 60.37, 75.51 27.89, 42.95 -0.63 M147.1 89.9 C123.12 69.39, 100.08 48.27, 42.95 -0.63 M147.07 79.27 C120.69 55.49, 96.95 35.66, 55.75 -0.11 M147.07 79.27 C112.65 47.6, 75.3 16.85, 55.75 -0.11 M147.03 68.64 C119.13 46.09, 88.37 19.2, 67.79 -0.24 M147.03 68.64 C131.78 55.62, 114.99 41.62, 67.79 -0.24 M147 58.01 C131.39 42.57, 115.24 29.15, 79.83 -0.38 M147 58.01 C124.09 38.61, 101.58 18.54, 79.83 -0.38 M146.96 47.38 C132.89 31.92, 114.37 21.7, 92.62 0.15 M146.96 47.38 C127.75 29.8, 106.61 12.26, 92.62 0.15 M146.93 36.75 C132.34 27.69, 121.19 13.71, 104.66 0.01 M146.93 36.75 C129.16 22.05, 113.77 7.54, 104.66 0.01 M146.14 25.47 C140.76 18.95, 136.13 13.23, 116.7 -0.12 M146.14 25.47 C134.97 15.42, 126.21 6.6, 116.7 -0.12 M143.08 12.21 C138.12 8.68, 135.75 5.64, 132.52 3.03 M143.08 12.21 C140.37 9.77, 137.96 7.25, 132.52 3.03" stroke="#4dabf7" stroke-width="1" fill="none"></path><path d="M32 0 C51.33 2.58, 75.51 1.82, 115 0 M32 0 C58.77 -0.84, 88.08 -0.44, 115 0 M115 0 C136.07 1.68, 148.83 11.31, 147 32 M115 0 C137.21 1.92, 147.3 11.87, 147 32 M147 32 C146.57 62.89, 147.54 92.01, 147 115 M147 32 C147.34 54.89, 146.98 76.65, 147 115 M147 115 C146.62 138.02, 137.29 148.07, 115 147 M147 115 C149.05 136.66, 136.33 146.89, 115 147 M115 147 C88.07 146.33, 59.92 148.34, 32 147 M115 147 C89.64 146.19, 63.59 147.2, 32 147 M32 147 C8.77 147.87, -1.52 137.93, 0 115 M32 147 C12.83 146.85, -0.27 135.31, 0 115 M0 115 C-0.41 87.11, 0.56 58.57, 0 32 M0 115 C0.35 86.98, 0.8 58.25, 0 32 M0 32 C-1.02 8.78, 12.33 0.59, 32 0 M0 32 C1.05 9.64, 11.98 -1.63, 32 0" stroke="#1e1e1e" stroke-width="2" fill="none"></path></g><g stroke-linecap="round"><g transform="translate(169 237) rotate(0 174 -30.5)"><path d="M-0.7 -1.07 C25.06 -11.46, 96.2 -60.91, 154.43 -61.72 C212.65 -62.53, 316.37 -15.29, 348.64 -5.94 M1.14 0.98 C26.78 -9.32, 95.86 -59.64, 153.7 -60.56 C211.54 -61.49, 315.78 -13.97, 348.2 -4.59" stroke="#1e1e1e" stroke-width="2" fill="none"></path></g><g transform="translate(169 237) rotate(0 174 -30.5)"><path d="M-0.55 0.58 L8.04 -14.55 L13.38 -0.62 L-1 0.2" stroke="none" stroke-width="0" fill="#1e1e1e" fill-rule="evenodd"></path><path d="M-0.7 -1.07 C0.66 -3.89, 3.86 -7.04, 8.74 -12.73 M-0.7 -1.07 C2.86 -5.22, 4.48 -7.58, 8.74 -12.73 M8.74 -12.73 C10.61 -9.73, 13.92 -4.1, 14.3 -1.33 M8.74 -12.73 C9.93 -8.88, 12.27 -6.5, 14.3 -1.33 M14.3 -1.33 C9.04 -1.94, 5.98 -0.9, -0.7 -1.07 M14.3 -1.33 C11.31 -1.48, 7.65 -1.28, -0.7 -1.07 M-0.7 -1.07 C-0.7 -1.07, -0.7 -1.07, -0.7 -1.07 M-0.7 -1.07 C-0.7 -1.07, -0.7 -1.07, -0.7 -1.07" stroke="#1e1e1e" stroke-width="2" fill="none"></path></g><g transform="translate(169 237) rotate(0 174 -30.5)"><path d="M318.2 -4.52 C325.19 -3.66, 334.54 -3.33, 348.2 -4.59 M318.2 -4.52 C328.25 -5.38, 335.73 -3.82, 348.2 -4.59" stroke="#1e1e1e" stroke-width="2" fill="none"></path></g><g transform="translate(169 237) rotate(0 174 -30.5)"><path d="M325.18 -23.82 C330.22 -17.36, 337.54 -11.38, 348.2 -4.59 M325.18 -23.82 C333.1 -18.77, 338.45 -11.32, 348.2 -4.59" stroke="#1e1e1e" stroke-width="2" fill="none"></path></g></g><mask></mask><g stroke-linecap="round" transform="translate(500.1165542880342 240.6342013861838) rotate(331.46916382812634 52.87712592147568 28.5)"><path d="M14.25 0 C39.1 1.73, 59.11 -0.62, 91.5 0 C98.15 0.72, 107.53 1.8, 105.75 14.25 C107.25 24.57, 103.13 28.79, 105.75 42.75 C103.93 55.22, 99.11 60.15, 91.5 57 C77.92 54.44, 56.94 58.49, 14.25 57 C1.88 54.93, 2.8 49.25, 0 42.75 C2.66 33.49, 2.7 22.47, 0 14.25 C-0.98 1.45, 3.59 1.95, 14.25 0" stroke="none" stroke-width="0" fill="#ffffff"></path><path d="M14.25 0 C43.63 -1.29, 75.13 -0.04, 91.5 0 M14.25 0 C42.29 -0.78, 69.62 0.04, 91.5 0 M91.5 0 C101.43 -1.27, 104.09 5.82, 105.75 14.25 M91.5 0 C98.75 0.8, 107.24 2.66, 105.75 14.25 M105.75 14.25 C106.8 25.08, 104.44 36.45, 105.75 42.75 M105.75 14.25 C105.51 22.18, 106.41 29.79, 105.75 42.75 M105.75 42.75 C106.82 50.88, 100.9 57.16, 91.5 57 M105.75 42.75 C106.68 51.18, 99.02 56.7, 91.5 57 M91.5 57 C72.86 55.92, 56.32 55.8, 14.25 57 M91.5 57 C69.92 56.7, 50.14 56.31, 14.25 57 M14.25 57 C6.45 57.38, 1.23 50.46, 0 42.75 M14.25 57 C5.33 57.32, 1.62 50.14, 0 42.75 M0 42.75 C0.64 31.44, 0.97 19.83, 0 14.25 M0 42.75 C0.69 31.86, -0.93 22.92, 0 14.25 M0 14.25 C-1.2 6.12, 3.51 0.71, 14.25 0 M0 14.25 C-1.79 3.64, 6.74 -1.73, 14.25 0" stroke="#e03131" stroke-width="4" fill="none"></path></g><g transform="translate(506.1315700715704 253.6558989500087) rotate(331.46916382812634 46.86211013793945 15.47830243617517)"><text x="46.86211013793945" y="0" font-family="Virgil, Segoe UI Emoji" font-size="12.382641948940131px" fill="#e03131" text-anchor="middle" style="white-space: pre;" direction="ltr" dominant-baseline="text-before-edge">GUARANTEED </text><text x="46.86211013793945" y="15.478302436175165" font-family="Virgil, Segoe UI Emoji" font-size="12.382641948940131px" fill="#e03131" text-anchor="middle" style="white-space: pre;" direction="ltr" dominant-baseline="text-before-edge">AUTHENTIC</text></g><g stroke-linecap="round" transform="translate(95.12287407852432 249.50000000000006) rotate(19.38451567935781 52.87712592147574 28.5)"><path d="M14.25 0 C36.97 -1.8, 54.75 -2.66, 91.5 0 C103.79 1.64, 107.82 4.31, 105.75 14.25 C104.77 26.52, 104.45 33.79, 105.75 42.75 C103.04 53.17, 101.49 56.05, 91.5 57 C71.84 58.92, 59.48 56.17, 14.25 57 C2.31 54.24, 3.38 51.32, 0 42.75 C-1.69 32.79, -0.75 29.66, 0 14.25 C-2.03 5.35, 1.68 1.66, 14.25 0" stroke="none" stroke-width="0" fill="#ffffff"></path><path d="M14.25 0 C43.8 1.6, 72.12 0.41, 91.5 0 M14.25 0 C37.81 1.02, 60.41 -0.54, 91.5 0 M91.5 0 C99.49 1.77, 105.3 5.27, 105.75 14.25 M91.5 0 C102.07 -1.45, 106.71 6.77, 105.75 14.25 M105.75 14.25 C107.19 20.68, 107.29 29.07, 105.75 42.75 M105.75 14.25 C106.5 22.95, 105.74 32.59, 105.75 42.75 M105.75 42.75 C105.76 53.16, 100.43 56.26, 91.5 57 M105.75 42.75 C105.73 51.32, 102.18 56.2, 91.5 57 M91.5 57 C75.22 59.39, 60.88 59.36, 14.25 57 M91.5 57 C64.59 56.84, 38.05 57.76, 14.25 57 M14.25 57 C4.79 55.09, -1.66 51.99, 0 42.75 M14.25 57 C5.28 57.03, -1.91 53.86, 0 42.75 M0 42.75 C2.07 35.37, 1.74 31.27, 0 14.25 M0 42.75 C1.01 35.51, 0.45 28.76, 0 14.25 M0 14.25 C1.29 4.5, 6.2 0.9, 14.25 0 M0 14.25 C-0.99 6.49, 2.71 -1.66, 14.25 0" stroke="#e03131" stroke-width="4" fill="none"></path></g><g transform="translate(101.13788986206055 262.5216975638249) rotate(19.38451567935781 46.86211013793945 15.47830243617517)"><text x="46.86211013793945" y="0" font-family="Virgil, Segoe UI Emoji" font-size="12.382641948940131px" fill="#e03131" text-anchor="middle" style="white-space: pre;" direction="ltr" dominant-baseline="text-before-edge">GUARANTEED </text><text x="46.86211013793945" y="15.478302436175165" font-family="Virgil, Segoe UI Emoji" font-size="12.382641948940131px" fill="#e03131" text-anchor="middle" style="white-space: pre;" direction="ltr" dominant-baseline="text-before-edge">AUTHENTIC</text></g></svg>