<svg version="1.1" xmlns="http://www.w3.org/2000/svg" viewBox="0 0 618.5 460" width="618.5" height="460">
  <!-- svg-source:excalidraw -->
  
  <defs>
    <style class="style-fonts">
      @font-face {
        font-family: "Virgil";
        src: url("https://excalidraw.com/Virgil.woff2");
      }
      @font-face {
        font-family: "Cascadia";
        src: url("https://excalidraw.com/Cascadia.woff2");
      }
      @font-face {
        font-family: "Assistant";
        src: url("https://excalidraw.com/Assistant-Regular.woff2");
      }
    </style>
    
  </defs>
  <rect x="0" y="0" width="618.5" height="460" fill="#ffffff"></rect><g stroke-linecap="round" transform="translate(196.2328638154071 172.96962130795822) rotate(0 116.0077231607927 116.00772316079266)"><path d="M84.99 4.98 C96.48 0.09, 112.34 -0.13, 125.77 0.93 C139.2 1.98, 153.58 5.95, 165.54 11.3 C177.5 16.65, 188.35 23.74, 197.51 33.02 C206.68 42.29, 214.88 54.98, 220.55 66.95 C226.22 78.93, 230.19 91.78, 231.54 104.87 C232.89 117.95, 232.02 132.68, 228.67 145.46 C225.33 158.25, 218.97 170.76, 211.47 181.56 C203.96 192.37, 194.42 202.52, 183.64 210.28 C172.85 218.05, 159.57 224.67, 146.76 228.14 C133.94 231.61, 120 232.23, 106.75 231.1 C93.49 229.97, 79.38 226.7, 67.25 221.37 C55.12 216.03, 43.17 208.52, 33.96 199.08 C24.74 189.64, 17.59 176.84, 11.95 164.73 C6.31 152.62, 1.32 139.54, 0.12 126.41 C-1.09 113.28, 1.38 98.7, 4.72 85.96 C8.07 73.22, 12.8 60.66, 20.18 49.96 C27.55 39.26, 37.81 29.43, 48.97 21.76 C60.14 14.1, 80.32 6.88, 87.18 3.96 C94.05 1.03, 89.68 2.36, 90.17 4.22 M92.3 3.18 C104.31 -0.81, 121.08 -0.46, 134.15 1.52 C147.23 3.5, 159.21 8.57, 170.74 15.06 C182.27 21.56, 194.41 30.89, 203.35 40.5 C212.29 50.1, 219.83 60.7, 224.39 72.68 C228.96 84.67, 230.4 99.23, 230.74 112.4 C231.08 125.58, 230.61 139.14, 226.45 151.73 C222.28 164.32, 214.1 177.4, 205.74 187.94 C197.39 198.48, 187.45 208.25, 176.32 214.98 C165.2 221.7, 151.94 225.61, 138.98 228.31 C126.02 231, 111.5 232.86, 98.54 231.17 C85.58 229.48, 73.07 224.5, 61.21 218.15 C49.35 211.8, 36.42 203.07, 27.38 193.06 C18.34 183.06, 11.47 170.39, 6.97 158.1 C2.46 145.82, 0.68 132.59, 0.33 119.35 C-0.01 106.1, 0.56 91.05, 4.9 78.63 C9.24 66.2, 17.89 55.15, 26.37 44.79 C34.86 34.44, 44.67 23.54, 55.79 16.51 C66.92 9.47, 86.79 4.47, 93.13 2.57 C99.48 0.68, 93.59 3.11, 93.86 5.13" stroke="none" stroke-width="0" fill="#a5d8ff"></path><path d="M84.12 3.74 C95.8 -1.7, 110.66 -1.22, 123.85 -0.11 C137.03 1, 151.06 5.05, 163.22 10.4 C175.38 15.74, 187.33 22.87, 196.82 31.96 C206.31 41.04, 214.29 52.88, 220.17 64.9 C226.06 76.92, 230.8 91.07, 232.13 104.1 C233.45 117.12, 231.44 130.22, 228.13 143.04 C224.82 155.85, 219.59 169.97, 212.26 180.99 C204.93 192.01, 194.75 201.35, 184.13 209.16 C173.5 216.96, 161.22 223.96, 148.52 227.84 C135.81 231.72, 121.02 233.35, 107.9 232.42 C94.79 231.49, 81.94 227.61, 69.81 222.25 C57.69 216.89, 44.87 209.39, 35.17 200.26 C25.47 191.12, 17.49 179.46, 11.62 167.44 C5.75 155.42, 1.28 141.35, -0.05 128.11 C-1.38 114.88, 0.36 100.82, 3.65 88.04 C6.93 75.25, 12.21 62.27, 19.66 51.43 C27.1 40.6, 35.45 31.22, 48.32 23.01 C61.19 14.81, 86.76 5.75, 96.87 2.2 C106.98 -1.36, 108.83 0, 109 1.69 M59.85 15.49 C70.02 8.28, 86.16 4.69, 99.45 2.57 C112.75 0.45, 126.76 0.44, 139.61 2.77 C152.47 5.11, 165.55 9.63, 176.59 16.59 C187.62 23.54, 197.52 34, 205.81 44.48 C214.11 54.96, 222.04 66.99, 226.35 79.49 C230.67 91.99, 232.27 106.57, 231.71 119.48 C231.15 132.39, 227.88 144.94, 223.01 156.96 C218.13 168.98, 211.1 181.58, 202.46 191.6 C193.82 201.63, 182.54 210.61, 171.16 217.12 C159.78 223.62, 147.37 228.75, 134.16 230.64 C120.95 232.53, 104.75 231.05, 91.9 228.44 C79.04 225.83, 68.22 221.51, 57.03 214.99 C45.84 208.46, 33.49 199.52, 24.76 189.27 C16.02 179.02, 8.75 166.03, 4.63 153.48 C0.52 140.92, -0.4 127.1, 0.06 113.92 C0.51 100.75, 2.6 86.74, 7.35 74.44 C12.1 62.14, 19.96 50.26, 28.58 40.12 C37.19 29.99, 53.74 17.5, 59.05 13.63 C64.36 9.77, 59.09 15.3, 60.43 16.93" stroke="#000000" stroke-width="1" fill="none"></path></g><g stroke-linecap="round" transform="translate(224.9462555304592 201.59735097274455) rotate(0 87.9434244697203 87.94342446972033)"><path d="M75.54 0.06 C86.57 -2.54, 101.45 0.86, 112.86 4.17 C124.27 7.48, 135.11 12.45, 144 19.93 C152.88 27.4, 160.72 38.24, 166.17 49.03 C171.62 59.83, 176.3 72.52, 176.71 84.68 C177.12 96.85, 173.28 110.84, 168.62 122.03 C163.97 133.22, 157.11 143.65, 148.76 151.84 C140.41 160.03, 129.8 167.33, 118.54 171.17 C107.29 175, 93.34 175.76, 81.25 174.85 C69.15 173.93, 56.44 171.29, 45.98 165.67 C35.52 160.05, 25.65 150.62, 18.51 141.12 C11.37 131.62, 5.93 120.24, 3.12 108.67 C0.32 97.1, -0.48 83.46, 1.68 71.68 C3.83 59.9, 9.33 47.69, 16.06 37.98 C22.78 28.27, 30.55 19.8, 42.02 13.4 C53.49 7, 76.44 1.48, 84.86 -0.41 C93.29 -2.31, 92.65 0.32, 92.58 2.01 M129.92 11.84 C140.59 15.96, 149.96 24.12, 157.29 33.29 C164.62 42.45, 170.88 55.28, 173.9 66.81 C176.93 78.34, 177.53 90.85, 175.43 102.46 C173.33 114.07, 168.45 126.59, 161.32 136.46 C154.19 146.33, 142.85 155.35, 132.67 161.69 C122.48 168.04, 111.75 172.98, 100.22 174.53 C88.68 176.07, 75.16 174.07, 63.46 170.96 C51.75 167.84, 39 163.3, 29.97 155.83 C20.93 148.35, 14.38 136.87, 9.23 126.1 C4.08 115.33, -0.53 102.96, -0.93 91.19 C-1.33 79.42, 2.09 66.82, 6.85 55.47 C11.61 44.12, 19.23 31.62, 27.62 23.07 C36.02 14.51, 45.95 8.17, 57.23 4.13 C68.5 0.08, 83.31 -2.18, 95.27 -1.2 C107.23 -0.22, 123.37 7.81, 128.99 10.01 C134.61 12.21, 129.52 10.85, 128.99 12" stroke="none" stroke-width="0" fill="white"></path><path d="M127.59 9.15 C138.29 13.28, 148.73 23.68, 156.32 32.91 C163.91 42.14, 170.07 53.11, 173.14 64.52 C176.22 75.94, 176.52 89.49, 174.75 101.4 C172.98 113.32, 169.06 126.16, 162.51 136.04 C155.97 145.92, 145.59 154.19, 135.47 160.68 C125.36 167.16, 113.56 173.03, 101.85 174.96 C90.13 176.89, 76.61 175.3, 65.16 172.26 C53.71 169.22, 42.42 163.96, 33.15 156.7 C23.88 149.43, 14.9 139.29, 9.55 128.65 C4.2 118.02, 1.72 104.79, 1.05 92.89 C0.37 81, 1.42 68.37, 5.5 57.28 C9.58 46.19, 17.17 34.93, 25.53 26.35 C33.88 17.76, 44.44 10.15, 55.63 5.79 C66.82 1.42, 80.3 -0.72, 92.65 0.13 C105.01 0.98, 123.25 8.54, 129.75 10.88 C136.25 13.22, 132.24 12.82, 131.65 14.15 M84.51 -1.47 C96.13 -3.19, 111.27 0.54, 122.37 5.58 C133.47 10.61, 142.91 19.7, 151.12 28.75 C159.33 37.8, 167.45 48.77, 171.64 59.86 C175.84 70.96, 177.34 83.73, 176.29 95.34 C175.24 106.95, 171.31 118.98, 165.36 129.52 C159.41 140.05, 150.03 151.16, 140.61 158.57 C131.2 165.97, 120.35 171.2, 108.86 173.95 C97.36 176.69, 83.59 177.53, 71.63 175.04 C59.67 172.56, 46.98 166.08, 37.11 159.03 C27.23 151.99, 18.51 142.82, 12.38 132.76 C6.26 122.7, 1.7 110.31, 0.37 98.66 C-0.95 87.02, 1.18 74.4, 4.43 62.88 C7.69 51.36, 12.05 38.59, 19.9 29.53 C27.76 20.47, 40.7 13.29, 51.56 8.52 C62.43 3.75, 79.62 1.96, 85.07 0.92 C90.52 -0.12, 84.14 0.81, 84.28 2.26" stroke="#000000" stroke-width="1" fill="none"></path></g><g stroke-linecap="round"><g transform="translate(311.66346977016224 295.4654117059366) rotate(0 0 -37.23270585296831)"><path d="M1.13 0.19 C1.09 -12.09, -0.66 -62.25, -0.93 -74.68 M0.26 -0.76 C0.65 -12.76, 1.58 -61.21, 1.29 -73.25" stroke="#000000" stroke-width="1" fill="none"></path></g></g><mask></mask><g stroke-linecap="round" transform="translate(179.31380249947665 177.74143422209323) rotate(317.12109639666187 35.35752444152263 10.120813269981142)"><path d="M-1.35 -1.84 L69.96 -1.5 L70.21 19.25 L1.08 20.15" stroke="none" stroke-width="0" fill="#4dabf7"></path><path d="M0 0 C19.04 -1.38, 36.81 -0.65, 70.72 0 M0 0 C25.59 0.36, 53.28 0.2, 70.72 0 M70.72 0 C70.63 6.11, 72.65 9.94, 70.72 20.24 M70.72 0 C71.38 4.76, 70.77 11.13, 70.72 20.24 M70.72 20.24 C50.49 22.03, 29.13 21.43, 0 20.24 M70.72 20.24 C49.1 18.96, 29.53 19.2, 0 20.24 M0 20.24 C1.5 15.91, 0.46 9.97, 0 0 M0 20.24 C0.38 15.04, -0.06 9.61, 0 0" stroke="#000000" stroke-width="1" fill="none"></path></g><g stroke-linecap="round" transform="translate(365.6424755584774 174.87918673001894) rotate(44.99999999999995 35.35752444152263 10.120813269981142)"><path d="M-0.81 1.84 L71.37 1.6 L69.52 20.99 L1.18 18.65" stroke="none" stroke-width="0" fill="#4dabf7"></path><path d="M0 0 C20.36 0.23, 45.48 0.03, 70.72 0 M0 0 C20.86 0.65, 41.72 1.17, 70.72 0 M70.72 0 C71.39 9.62, 70.84 17.52, 70.72 20.24 M70.72 0 C71.17 4.21, 70.75 9.75, 70.72 20.24 M70.72 20.24 C41.09 19.29, 13.67 18.71, 0 20.24 M70.72 20.24 C51.92 21.06, 35.17 19.65, 0 20.24 M0 20.24 C-0.5 12.86, 0.88 8.73, 0 0 M0 20.24 C-0.03 15.36, 1.05 9.92, 0 0" stroke="#000000" stroke-width="1" fill="none"></path></g><g stroke-linecap="round" transform="translate(270.6424755584774 121.87918673001894) rotate(0 35.35752444152263 10.120813269981142)"><path d="M1.54 0.17 L72.3 -1.32 L69.87 19.2 L-1.14 20.31" stroke="none" stroke-width="0" fill="#4dabf7"></path><path d="M0 0 C21.63 0.76, 46.24 -1.81, 70.72 0 M0 0 C16.07 0.09, 32.57 0.03, 70.72 0 M70.72 0 C71.99 4.7, 69.52 9.98, 70.72 20.24 M70.72 0 C71.43 4.84, 71.81 10.88, 70.72 20.24 M70.72 20.24 C45.6 20.3, 15.67 19.07, 0 20.24 M70.72 20.24 C49.16 19.88, 30.2 20.75, 0 20.24 M0 20.24 C-1.19 15.15, -0.63 12.73, 0 0 M0 20.24 C0.4 12.12, -0.49 5.24, 0 0" stroke="#000000" stroke-width="1" fill="none"></path></g><g transform="translate(50 10) rotate(0 245.61599731445312 35)"><text x="245.61599731445312" y="0" font-family="Virgil, Segoe UI Emoji" font-size="28px" fill="#1971c2" text-anchor="middle" style="white-space: pre;" direction="ltr" dominant-baseline="text-before-edge">Private systems securely connected</text><text x="245.61599731445312" y="35" font-family="Virgil, Segoe UI Emoji" font-size="28px" fill="#1971c2" text-anchor="middle" style="white-space: pre;" direction="ltr" dominant-baseline="text-before-edge">within minutes</text></g><g stroke-opacity="0.1" fill-opacity="0.1" stroke-linecap="round" transform="translate(10 379) rotate(0 35.5 35.5)"><path d="M17.75 0 C25.84 0.44, 31.52 2.73, 53.25 0 C64.96 -2.54, 69.56 7.41, 71 17.75 C72.5 24.62, 72.56 36.05, 71 53.25 C70.67 62.56, 63.19 72.79, 53.25 71 C45.49 74.32, 37.55 73.77, 17.75 71 C3.41 71.66, -2.19 65.3, 0 53.25 C-2.53 36.23, 2.83 28.76, 0 17.75 C-1.51 7.13, 3.51 2.74, 17.75 0" stroke="none" stroke-width="0" fill="#1e1e1e"></path><path d="M17.75 0 C29.3 -1.35, 42.21 -1.84, 53.25 0 M53.25 0 C63.25 -0.81, 70.66 5.71, 71 17.75 M71 17.75 C68.9 31.7, 70.44 42.74, 71 53.25 M71 53.25 C69.26 66.9, 64.82 69.22, 53.25 71 M53.25 71 C44.95 69.55, 37.22 69.98, 17.75 71 M17.75 71 C3.94 72.79, -1.63 66.92, 0 53.25 M0 53.25 C0.44 44.17, -0.72 34.35, 0 17.75 M0 17.75 C1.48 6.45, 4.77 1.21, 17.75 0" stroke="#1e1e1e" stroke-width="2.5" fill="none" stroke-dasharray="8 10"></path></g><g stroke-opacity="0.1" fill-opacity="0.1" stroke-linecap="round" transform="translate(537.5 373.5) rotate(0 35.5 35.5)"><path d="M17.75 0 C30.19 -1.32, 34.63 -1.21, 53.25 0 C67.95 -2.74, 69.2 9.21, 71 17.75 C72.03 33.16, 74.36 44.57, 71 53.25 C71.36 66.39, 68.38 72.47, 53.25 71 C48.12 73.24, 36.52 70.2, 17.75 71 C8.79 73.71, -1.7 66.98, 0 53.25 C1.31 38.96, -0.66 29.59, 0 17.75 C-3.56 7.17, 4.02 -0.18, 17.75 0" stroke="none" stroke-width="0" fill="#1e1e1e"></path><path d="M17.75 0 C27.3 -1.31, 35.37 -2.25, 53.25 0 M53.25 0 C65.6 1.42, 71.23 6.29, 71 17.75 M71 17.75 C72.33 28.67, 71.1 40.26, 71 53.25 M71 53.25 C71.51 65.62, 66.48 69.51, 53.25 71 M53.25 71 C44.57 69.59, 34.46 72.23, 17.75 71 M17.75 71 C6.36 71.47, 1.58 66.75, 0 53.25 M0 53.25 C-0.48 43.18, -1.3 28.44, 0 17.75 M0 17.75 C1.77 7.84, 5.62 -1.88, 17.75 0" stroke="#1e1e1e" stroke-width="2.5" fill="none" stroke-dasharray="8 10"></path></g><g stroke-linecap="round"><g stroke-opacity="0.1" fill-opacity="0.1" transform="translate(86 420.1160802530145) rotate(0 223 -4.966398724352075)"><path d="M-0.28 0.15 C39.13 2.17, 162.39 15.38, 236.95 12.06 C311.51 8.74, 412.08 -14.42, 447.07 -19.77 M1.78 -0.81 C41.06 0.91, 162.32 14.01, 236.5 10.56 C310.69 7.1, 411.68 -16.11, 446.87 -21.56" stroke="#1e1e1e" stroke-width="2" fill="none"></path></g><g stroke-opacity="0.1" fill-opacity="0.1" transform="translate(86 420.1160802530145) rotate(0 223 -4.966398724352075)"><path d="M23.75 -6.75 C15.7 -2.83, 9.11 -0.25, -0.28 0.15 M23.75 -6.75 C14.49 -4.28, 4.92 -0.89, -0.28 0.15" stroke="#1e1e1e" stroke-width="2" fill="none"></path></g><g stroke-opacity="0.1" fill-opacity="0.1" transform="translate(86 420.1160802530145) rotate(0 223 -4.966398724352075)"><path d="M22.57 10.31 C14.93 8.34, 8.75 5.02, -0.28 0.15 M22.57 10.31 C13.64 6.16, 4.53 2.94, -0.28 0.15" stroke="#1e1e1e" stroke-width="2" fill="none"></path></g><g stroke-opacity="0.1" fill-opacity="0.1" transform="translate(86 420.1160802530145) rotate(0 223 -4.966398724352075)"><path d="M425.32 -8.87 C433.03 -11.62, 442.18 -15.8, 446.87 -21.56 M425.32 -8.87 C433.58 -14.3, 441.67 -18.5, 446.87 -21.56" stroke="#1e1e1e" stroke-width="2" fill="none"></path></g><g stroke-opacity="0.1" fill-opacity="0.1" transform="translate(86 420.1160802530145) rotate(0 223 -4.966398724352075)"><path d="M422.21 -25.69 C430.98 -22.62, 441.21 -20.99, 446.87 -21.56 M422.21 -25.69 C431.8 -24.62, 441.1 -22.3, 446.87 -21.56" stroke="#1e1e1e" stroke-width="2" fill="none"></path></g></g><mask></mask></svg>