<svg version="1.1" xmlns="http://www.w3.org/2000/svg" viewBox="0 0 697 430" width="1394" height="860">
  <!-- svg-source:excalidraw -->
  
  <defs>
    <style class="style-fonts">
      @font-face {
        font-family: "Virgil";
        src: url("https://excalidraw.com/Virgil.woff2");
      }
      @font-face {
        font-family: "Cascadia";
        src: url("https://excalidraw.com/Cascadia.woff2");
      }
      @font-face {
        font-family: "Assistant";
        src: url("https://excalidraw.com/Assistant-Regular.woff2");
      }
    </style>
    
  </defs>
  <rect x="0" y="0" width="697" height="430" fill="#ffffff"></rect><g stroke-linecap="round" transform="translate(10 91) rotate(0 338.5 164.5)"><path d="M32 0 C170.95 -4.05, 307.61 -1.53, 645 0 C664.65 -3.39, 673.7 7.56, 677 32 C676.03 100.74, 678.65 168.82, 677 297 C678.05 317.69, 666.26 328.95, 645 329 C510.21 327.42, 378.98 326.51, 32 329 C8.75 328.25, 2.83 318.25, 0 297 C-2.14 214.53, -0.44 139.73, 0 32 C-0.35 11.62, 12.88 2.05, 32 0" stroke="none" stroke-width="0" fill="#1e1e1e"></path><path d="M32 0 C258.36 1.55, 484.26 0.71, 645 0 M32 0 C214 0.51, 396.21 0.77, 645 0 M645 0 C667.21 0, 678.55 12.14, 677 32 M645 0 C666.95 1.86, 677.73 9.68, 677 32 M677 32 C674.16 95.5, 674.65 156.25, 677 297 M677 32 C678.47 129.31, 677.84 227.14, 677 297 M677 297 C675.24 318.66, 667.77 329.29, 645 329 M677 297 C675.42 318.54, 668.39 328.95, 645 329 M645 329 C488.42 330.66, 331.99 329.96, 32 329 M645 329 C433.92 326.96, 222.68 326.55, 32 329 M32 329 C8.68 327.48, -0.13 317.37, 0 297 M32 329 C12.15 328.63, -1.37 318.62, 0 297 M0 297 C-0.72 225.45, -1.04 156.12, 0 32 M0 297 C-2.31 243.93, -1.32 189.29, 0 32 M0 32 C-1.24 9.72, 12.55 -1.25, 32 0 M0 32 C1.33 8.94, 11.87 0.74, 32 0" stroke="#1e1e1e" stroke-width="2" fill="none"></path></g><g transform="translate(64 166) rotate(0 296.9819641113281 87.5)"><text x="0" y="0" font-family="Virgil, Segoe UI Emoji" font-size="28px" fill="#ffffff" text-anchor="start" style="white-space: pre;" direction="ltr" dominant-baseline="text-before-edge">class HelloWorldApp {</text><text x="0" y="35" font-family="Virgil, Segoe UI Emoji" font-size="28px" fill="#ffffff" text-anchor="start" style="white-space: pre;" direction="ltr" dominant-baseline="text-before-edge">    public static void main(String[] args) {</text><text x="0" y="70" font-family="Virgil, Segoe UI Emoji" font-size="28px" fill="#ffffff" text-anchor="start" style="white-space: pre;" direction="ltr" dominant-baseline="text-before-edge">        System.out.println("Hello World!"); </text><text x="0" y="105" font-family="Virgil, Segoe UI Emoji" font-size="28px" fill="#ffffff" text-anchor="start" style="white-space: pre;" direction="ltr" dominant-baseline="text-before-edge">    }</text><text x="0" y="140" font-family="Virgil, Segoe UI Emoji" font-size="28px" fill="#ffffff" text-anchor="start" style="white-space: pre;" direction="ltr" dominant-baseline="text-before-edge">}</text></g><g transform="translate(28 164) rotate(0 9.968000411987305 105)"><text x="0" y="0" font-family="Virgil, Segoe UI Emoji" font-size="28px" fill="#868e96" text-anchor="start" style="white-space: pre;" direction="ltr" dominant-baseline="text-before-edge">1</text><text x="0" y="35" font-family="Virgil, Segoe UI Emoji" font-size="28px" fill="#868e96" text-anchor="start" style="white-space: pre;" direction="ltr" dominant-baseline="text-before-edge">2</text><text x="0" y="70" font-family="Virgil, Segoe UI Emoji" font-size="28px" fill="#868e96" text-anchor="start" style="white-space: pre;" direction="ltr" dominant-baseline="text-before-edge">3</text><text x="0" y="105" font-family="Virgil, Segoe UI Emoji" font-size="28px" fill="#868e96" text-anchor="start" style="white-space: pre;" direction="ltr" dominant-baseline="text-before-edge">4</text><text x="0" y="140" font-family="Virgil, Segoe UI Emoji" font-size="28px" fill="#868e96" text-anchor="start" style="white-space: pre;" direction="ltr" dominant-baseline="text-before-edge">5</text><text x="0" y="175" font-family="Virgil, Segoe UI Emoji" font-size="28px" fill="#868e96" text-anchor="start" style="white-space: pre;" direction="ltr" dominant-baseline="text-before-edge">6</text></g><g transform="translate(169 72) rotate(0 80.26399993896484 167.7759205562001)"><text x="0" y="0" font-family="Virgil, Segoe UI Emoji" font-size="268.4414728899201px" fill="#e03131" text-anchor="start" style="white-space: pre;" direction="ltr" dominant-baseline="text-before-edge">X</text></g></svg>