<svg version="1.1" xmlns="http://www.w3.org/2000/svg" viewBox="0 0 782.1480823863637 580.3046875" width="1564.2961647727275" height="1160.609375">
  <!-- svg-source:excalidraw -->
  
  <defs>
    <style class="style-fonts">
      @font-face {
        font-family: "Virgil";
        src: url("https://excalidraw.com/Virgil.woff2");
      }
      @font-face {
        font-family: "Cascadia";
        src: url("https://excalidraw.com/Cascadia.woff2");
      }
      @font-face {
        font-family: "Assistant";
        src: url("https://app.excalidraw.com//dist/excalidraw-assets/Assistant-Regular.woff2");
      }
    </style>
    
  </defs>
  <g stroke-opacity="0.4" fill-opacity="0.4" stroke-linecap="round" transform="translate(10 133.94105113636368) rotate(0 130 205)"><path d="M32 0 C107.99 0, 183.98 0, 228 0 M32 0 C76.01 0, 120.02 0, 228 0 M228 0 C249.33 0, 260 10.67, 260 32 M228 0 C249.33 0, 260 10.67, 260 32 M260 32 C260 132.57, 260 233.14, 260 378 M260 32 C260 130.6, 260 229.2, 260 378 M260 378 C260 399.33, 249.33 410, 228 410 M260 378 C260 399.33, 249.33 410, 228 410 M228 410 C162.95 410, 97.91 410, 32 410 M228 410 C174.4 410, 120.8 410, 32 410 M32 410 C10.67 410, 0 399.33, 0 378 M32 410 C10.67 410, 0 399.33, 0 378 M0 378 C0 264.28, 0 150.56, 0 32 M0 378 C0 258.43, 0 138.86, 0 32 M0 32 C0 10.67, 10.67 0, 32 0 M0 32 C0 10.67, 10.67 0, 32 0" stroke="#495057" stroke-width="1" fill="none"></path></g><g stroke-opacity="0.4" fill-opacity="0.4" stroke-linecap="round" transform="translate(30.01171875 204.06214488636368) rotate(0 103 94.5)"><path d="M32 0 C87.8 0, 143.59 0, 174 0 M174 0 C195.33 0, 206 10.67, 206 32 M206 32 C206 72.4, 206 112.81, 206 157 M206 157 C206 178.33, 195.33 189, 174 189 M174 189 C120.61 189, 67.22 189, 32 189 M32 189 C10.67 189, 0 178.33, 0 157 M0 157 C0 127.68, 0 98.36, 0 32 M0 32 C0 10.67, 10.67 0, 32 0" stroke="#495057" stroke-width="1.5" fill="none" stroke-dasharray="8 9"></path></g><g stroke-opacity="0.4" fill-opacity="0.4" transform="translate(12 106.44105113636368) rotate(0 51.14398193359375 10)"><text x="0" y="0" font-family="Virgil, Segoe UI Emoji" font-size="16px" fill="#495057" text-anchor="start" style="white-space: pre;" direction="ltr" dominant-baseline="text-before-edge">Your account</text></g><g stroke-opacity="0.4" fill-opacity="0.4" stroke-linecap="round" transform="translate(57.102627840909065 281.1530539772728) rotate(0 26 26)"><path d="M3.46 3.01 C3.46 3.01, 3.46 3.01, 3.46 3.01 M3.46 3.01 C3.46 3.01, 3.46 3.01, 3.46 3.01 M-0.08 13.18 C3.65 8.88, 7.39 4.59, 10.42 1.1 M-0.08 13.18 C3.19 9.41, 6.47 5.65, 10.42 1.1 M0.31 18.82 C6.6 11.6, 12.88 4.37, 16.06 0.71 M0.31 18.82 C5.01 13.42, 9.7 8.03, 16.06 0.71 M0.05 25.22 C4.49 20.11, 8.94 15, 21.7 0.31 M0.05 25.22 C8.43 15.58, 16.8 5.95, 21.7 0.31 M-0.21 31.62 C8.94 21.09, 18.1 10.56, 26.69 0.67 M-0.21 31.62 C10.28 19.55, 20.76 7.49, 26.69 0.67 M0.18 37.26 C7.1 29.31, 14.01 21.36, 32.33 0.28 M0.18 37.26 C9.44 26.62, 18.69 15.97, 32.33 0.28 M1.24 42.15 C9.57 32.56, 17.91 22.97, 37.32 0.64 M1.24 42.15 C13.3 28.27, 25.37 14.39, 37.32 0.64 M2.29 47.04 C11.43 36.52, 20.57 26, 42.31 1 M2.29 47.04 C12.66 35.1, 23.03 23.17, 42.31 1 M5.31 49.66 C14.91 38.61, 24.52 27.56, 46.64 2.12 M5.31 49.66 C20.63 32.03, 35.95 14.4, 46.64 2.12 M8.98 51.53 C21.18 37.5, 33.38 23.46, 49.66 4.74 M8.98 51.53 C23.61 34.7, 38.25 17.87, 49.66 4.74 M13.97 51.89 C23.95 40.41, 33.92 28.93, 51.36 8.87 M13.97 51.89 C21.52 43.2, 29.08 34.51, 51.36 8.87 M18.95 52.25 C32.16 37.06, 45.36 21.87, 52.41 13.76 M18.95 52.25 C31.07 38.32, 43.18 24.38, 52.41 13.76 M24.6 51.86 C33.55 41.56, 42.5 31.26, 52.81 19.4 M24.6 51.86 C32.93 42.27, 41.27 32.68, 52.81 19.4 M29.58 52.22 C36.21 44.59, 42.84 36.97, 52.55 25.8 M29.58 52.22 C35.39 45.54, 41.2 38.86, 52.55 25.8 M35.23 51.82 C40.82 45.38, 46.42 38.94, 52.28 32.2 M35.23 51.82 C41.75 44.32, 48.27 36.82, 52.28 32.2 M40.87 51.43 C44.05 47.77, 47.22 44.12, 52.68 37.84 M40.87 51.43 C44.8 46.9, 48.73 42.38, 52.68 37.84 M47.17 50.28 C48.57 48.67, 49.96 47.06, 51.76 45 M47.17 50.28 C48.81 48.39, 50.46 46.5, 51.76 45" stroke="#15aabf" stroke-width="0.5" fill="none"></path><path d="M13 0 C20.81 0, 28.62 0, 39 0 M13 0 C21.85 0, 30.7 0, 39 0 M39 0 C47.67 0, 52 4.33, 52 13 M39 0 C47.67 0, 52 4.33, 52 13 M52 13 C52 19.87, 52 26.74, 52 39 M52 13 C52 21.58, 52 30.16, 52 39 M52 39 C52 47.67, 47.67 52, 39 52 M52 39 C52 47.67, 47.67 52, 39 52 M39 52 C33.53 52, 28.06 52, 13 52 M39 52 C32.75 52, 26.51 52, 13 52 M13 52 C4.33 52, 0 47.67, 0 39 M13 52 C4.33 52, 0 47.67, 0 39 M0 39 C0 32.76, 0 26.51, 0 13 M0 39 C0 29.84, 0 20.69, 0 13 M0 13 C0 4.33, 4.33 0, 13 0 M0 13 C0 4.33, 4.33 0, 13 0" stroke="#495057" stroke-width="1" fill="none"></path></g><g stroke-opacity="0.4" fill-opacity="0.4" transform="translate(71.2957181930542 340.6530539772728) rotate(0 13.136000633239746 10)"><text x="13.136000633239746" y="0" font-family="Virgil, Segoe UI Emoji" font-size="16px" fill="#495057" text-anchor="middle" style="white-space: pre;" direction="ltr" dominant-baseline="text-before-edge">App</text></g><g stroke-opacity="0.4" fill-opacity="0.4" transform="translate(43.43571853637695 181.56214488636368) rotate(0 14.576000213623047 10)"><text x="14.576000213623047" y="0" font-family="Virgil, Segoe UI Emoji" font-size="16px" fill="#495057" text-anchor="middle" style="white-space: pre;" direction="ltr" dominant-baseline="text-before-edge">VPC</text></g><g stroke-opacity="0.4" fill-opacity="0.4" stroke-linecap="round" transform="translate(103.92080965909088 442.1530539772727) rotate(0 28 28)"><path d="M4.89 24.13 C4.89 24.13, 4.89 24.13, 4.89 24.13 M4.89 24.13 C4.89 24.13, 4.89 24.13, 4.89 24.13 M3.32 32.04 C12.15 21.89, 20.97 11.73, 28.91 2.6 M3.32 32.04 C10.26 24.06, 17.19 16.08, 28.91 2.6 M6.34 34.66 C14.95 24.76, 23.56 14.85, 32.58 4.47 M6.34 34.66 C15.84 23.73, 25.34 12.81, 32.58 4.47 M8.7 38.04 C15.84 29.83, 22.98 21.62, 35.6 7.1 M8.7 38.04 C15.54 30.18, 22.37 22.31, 35.6 7.1 M11.72 40.66 C20.4 30.68, 29.08 20.7, 38.62 9.72 M11.72 40.66 C20.83 30.18, 29.94 19.7, 38.62 9.72 M14.74 43.29 C21.97 34.97, 29.21 26.65, 40.98 13.1 M14.74 43.29 C24.21 32.39, 33.69 21.5, 40.98 13.1 M17.76 45.91 C27.13 35.13, 36.51 24.34, 44 15.72 M17.76 45.91 C23.62 39.17, 29.48 32.43, 44 15.72 M20.78 48.54 C26 42.53, 31.22 36.52, 46.36 19.1 M20.78 48.54 C28.16 40.05, 35.54 31.56, 46.36 19.1 M23.8 51.16 C31.56 42.23, 39.32 33.3, 49.38 21.73 M23.8 51.16 C33.58 39.91, 43.36 28.66, 49.38 21.73 M27.47 53.03 C35.73 43.53, 43.98 34.04, 51.75 25.11 M27.47 53.03 C34.69 44.73, 41.91 36.42, 51.75 25.11 M34.43 51.13 C39.22 45.61, 44.01 40.1, 54.11 28.49 M34.43 51.13 C42.22 42.16, 50.02 33.19, 54.11 28.49" stroke="#fab005" stroke-width="0.5" fill="none"></path><path d="M36.25 7.25 C40.19 11.82, 44.12 16.38, 48.75 21.75 M36.25 7.25 C39.55 11.08, 42.85 14.91, 48.75 21.75 M48.75 21.75 C56 29, 56 29, 48.75 36.25 M48.75 21.75 C56 29, 56 29, 48.75 36.25 M48.75 36.25 C45.73 39.27, 42.7 42.3, 36.25 48.75 M48.75 36.25 C44.33 40.67, 39.91 45.09, 36.25 48.75 M36.25 48.75 C29 56, 29 56, 21.75 48.75 M36.25 48.75 C29 56, 29 56, 21.75 48.75 M21.75 48.75 C17.1 44.74, 12.45 40.73, 7.25 36.25 M21.75 48.75 C17.41 45.01, 13.07 41.27, 7.25 36.25 M7.25 36.25 C0 29, 0 29, 7.25 21.75 M7.25 36.25 C0 29, 0 29, 7.25 21.75 M7.25 21.75 C12.02 16.98, 16.8 12.2, 21.75 7.25 M7.25 21.75 C12.38 16.62, 17.51 11.49, 21.75 7.25 M21.75 7.25 C29 0, 29 0, 36.25 7.25 M21.75 7.25 C29 0, 29 0, 36.25 7.25" stroke="#495057" stroke-width="1" fill="none"></path></g><g stroke-opacity="0.4" fill-opacity="0.4" transform="translate(77.0568150607022 505.6530539772727) rotate(0 59.86399459838867 10)"><text x="59.86399459838867" y="0" font-family="Virgil, Segoe UI Emoji" font-size="16px" fill="#495057" text-anchor="middle" style="white-space: pre;" direction="ltr" dominant-baseline="text-before-edge">Object storage</text></g><g stroke-opacity="0.4" fill-opacity="0.4" stroke-linecap="round" transform="translate(512.1480823863636 130.88032670454544) rotate(0 130.00000000000006 205)"><path d="M32 0 C107.99 0, 183.98 0, 228 0 M32 0 C76.01 0, 120.02 0, 228 0 M228 0 C249.33 0, 260 10.67, 260 32 M228 0 C249.33 0, 260 10.67, 260 32 M260 32 C260 132.57, 260 233.14, 260 378 M260 32 C260 130.6, 260 229.2, 260 378 M260 378 C260 399.33, 249.33 410, 228 410 M260 378 C260 399.33, 249.33 410, 228 410 M228 410 C162.95 410, 97.91 410, 32 410 M228 410 C174.4 410, 120.8 410, 32 410 M32 410 C10.67 410, 0 399.33, 0 378 M32 410 C10.67 410, 0 399.33, 0 378 M0 378 C0 264.28, 0 150.56, 0 32 M0 378 C0 258.43, 0 138.86, 0 32 M0 32 C0 10.67, 10.67 0, 32 0 M0 32 C0 10.67, 10.67 0, 32 0" stroke="#495057" stroke-width="1" fill="none"></path></g><g stroke-opacity="0.4" fill-opacity="0.4" stroke-linecap="round" transform="translate(532.1480823863636 200.88032670454555) rotate(0 102.99999999999994 94.5)"><path d="M32 0 C87.8 0, 143.59 0, 174 0 M174 0 C195.33 0, 206 10.67, 206 32 M206 32 C206 72.4, 206 112.81, 206 157 M206 157 C206 178.33, 195.33 189, 174 189 M174 189 C120.61 189, 67.22 189, 32 189 M32 189 C10.67 189, 0 178.33, 0 157 M0 157 C0 127.68, 0 98.36, 0 32 M0 32 C0 10.67, 10.67 0, 32 0" stroke="#495057" stroke-width="1.5" fill="none" stroke-dasharray="8 9"></path></g><g stroke-opacity="0.4" fill-opacity="0.4" transform="translate(697.3902639909223 176.56214488636374) rotate(0 14.576000213623104 10)"><text x="14.576000213623047" y="0" font-family="Virgil, Segoe UI Emoji" font-size="16px" fill="#495057" text-anchor="middle" style="white-space: pre;" direction="ltr" dominant-baseline="text-before-edge">VPC</text></g><g stroke-opacity="0.4" fill-opacity="0.4" stroke-linecap="round" transform="translate(565.1480823863637 408.97123579545536) rotate(0 28 28)"><path d="M4.89 24.13 C4.89 24.13, 4.89 24.13, 4.89 24.13 M4.89 24.13 C4.89 24.13, 4.89 24.13, 4.89 24.13 M3.32 32.04 C12.15 21.89, 20.97 11.73, 28.91 2.6 M3.32 32.04 C10.26 24.06, 17.19 16.08, 28.91 2.6 M6.34 34.66 C14.95 24.76, 23.56 14.85, 32.58 4.47 M6.34 34.66 C15.84 23.73, 25.34 12.81, 32.58 4.47 M8.7 38.04 C15.84 29.83, 22.98 21.62, 35.6 7.1 M8.7 38.04 C15.54 30.18, 22.37 22.31, 35.6 7.1 M11.72 40.66 C20.4 30.68, 29.08 20.7, 38.62 9.72 M11.72 40.66 C20.83 30.18, 29.94 19.7, 38.62 9.72 M14.74 43.29 C21.97 34.97, 29.21 26.65, 40.98 13.1 M14.74 43.29 C24.21 32.39, 33.69 21.5, 40.98 13.1 M17.76 45.91 C27.13 35.13, 36.51 24.34, 44 15.72 M17.76 45.91 C23.62 39.17, 29.48 32.43, 44 15.72 M20.78 48.54 C26 42.53, 31.22 36.52, 46.36 19.1 M20.78 48.54 C28.16 40.05, 35.54 31.56, 46.36 19.1 M23.8 51.16 C31.56 42.23, 39.32 33.3, 49.38 21.73 M23.8 51.16 C33.58 39.91, 43.36 28.66, 49.38 21.73 M27.47 53.03 C35.73 43.53, 43.98 34.04, 51.75 25.11 M27.47 53.03 C34.69 44.73, 41.91 36.42, 51.75 25.11 M34.43 51.13 C39.22 45.61, 44.01 40.1, 54.11 28.49 M34.43 51.13 C42.22 42.16, 50.02 33.19, 54.11 28.49" stroke="#fab005" stroke-width="0.5" fill="none"></path><path d="M36.25 7.25 C40.19 11.82, 44.12 16.38, 48.75 21.75 M36.25 7.25 C39.55 11.08, 42.85 14.91, 48.75 21.75 M48.75 21.75 C56 29, 56 29, 48.75 36.25 M48.75 21.75 C56 29, 56 29, 48.75 36.25 M48.75 36.25 C45.73 39.27, 42.7 42.3, 36.25 48.75 M48.75 36.25 C44.33 40.67, 39.91 45.09, 36.25 48.75 M36.25 48.75 C29 56, 29 56, 21.75 48.75 M36.25 48.75 C29 56, 29 56, 21.75 48.75 M21.75 48.75 C17.1 44.74, 12.45 40.73, 7.25 36.25 M21.75 48.75 C17.41 45.01, 13.07 41.27, 7.25 36.25 M7.25 36.25 C0 29, 0 29, 7.25 21.75 M7.25 36.25 C0 29, 0 29, 7.25 21.75 M7.25 21.75 C12.02 16.98, 16.8 12.2, 21.75 7.25 M7.25 21.75 C12.38 16.62, 17.51 11.49, 21.75 7.25 M21.75 7.25 C29 0, 29 0, 36.25 7.25 M21.75 7.25 C29 0, 29 0, 36.25 7.25" stroke="#495057" stroke-width="1" fill="none"></path></g><g stroke-opacity="0.4" fill-opacity="0.4" transform="translate(538.2840877879751 472.47123579545536) rotate(0 59.86399459838867 10)"><text x="59.86399459838867" y="0" font-family="Virgil, Segoe UI Emoji" font-size="16px" fill="#495057" text-anchor="middle" style="white-space: pre;" direction="ltr" dominant-baseline="text-before-edge">Object storage</text></g><g stroke-opacity="0.4" fill-opacity="0.4" transform="translate(700.3411727385085 346.0166903409091) rotate(0 13.136000633239746 10)"><text x="13.136000633239746" y="0" font-family="Virgil, Segoe UI Emoji" font-size="16px" fill="#495057" text-anchor="middle" style="white-space: pre;" direction="ltr" dominant-baseline="text-before-edge">App</text></g><g stroke-opacity="0.4" fill-opacity="0.4" stroke-linecap="round" transform="translate(672.5117187499998 288.44850852272737) rotate(0 26 26)"><path d="M3.46 3.01 C3.46 3.01, 3.46 3.01, 3.46 3.01 M3.46 3.01 C3.46 3.01, 3.46 3.01, 3.46 3.01 M-0.08 13.18 C3.65 8.88, 7.39 4.59, 10.42 1.1 M-0.08 13.18 C3.19 9.41, 6.47 5.65, 10.42 1.1 M0.31 18.82 C6.6 11.6, 12.88 4.37, 16.06 0.71 M0.31 18.82 C5.01 13.42, 9.7 8.03, 16.06 0.71 M0.05 25.22 C4.49 20.11, 8.94 15, 21.7 0.31 M0.05 25.22 C8.43 15.58, 16.8 5.95, 21.7 0.31 M-0.21 31.62 C8.94 21.09, 18.1 10.56, 26.69 0.67 M-0.21 31.62 C10.28 19.55, 20.76 7.49, 26.69 0.67 M0.18 37.26 C7.1 29.31, 14.01 21.36, 32.33 0.28 M0.18 37.26 C9.44 26.62, 18.69 15.97, 32.33 0.28 M1.24 42.15 C9.57 32.56, 17.91 22.97, 37.32 0.64 M1.24 42.15 C13.3 28.27, 25.37 14.39, 37.32 0.64 M2.29 47.04 C11.43 36.52, 20.57 26, 42.31 1 M2.29 47.04 C12.66 35.1, 23.03 23.17, 42.31 1 M5.31 49.66 C14.91 38.61, 24.52 27.56, 46.64 2.12 M5.31 49.66 C20.63 32.03, 35.95 14.4, 46.64 2.12 M8.98 51.53 C21.18 37.5, 33.38 23.46, 49.66 4.74 M8.98 51.53 C23.61 34.7, 38.25 17.87, 49.66 4.74 M13.97 51.89 C23.95 40.41, 33.92 28.93, 51.36 8.87 M13.97 51.89 C21.52 43.2, 29.08 34.51, 51.36 8.87 M18.95 52.25 C32.16 37.06, 45.36 21.87, 52.41 13.76 M18.95 52.25 C31.07 38.32, 43.18 24.38, 52.41 13.76 M24.6 51.86 C33.55 41.56, 42.5 31.26, 52.81 19.4 M24.6 51.86 C32.93 42.27, 41.27 32.68, 52.81 19.4 M29.58 52.22 C36.21 44.59, 42.84 36.97, 52.55 25.8 M29.58 52.22 C35.39 45.54, 41.2 38.86, 52.55 25.8 M35.23 51.82 C40.82 45.38, 46.42 38.94, 52.28 32.2 M35.23 51.82 C41.75 44.32, 48.27 36.82, 52.28 32.2 M40.87 51.43 C44.05 47.77, 47.22 44.12, 52.68 37.84 M40.87 51.43 C44.8 46.9, 48.73 42.38, 52.68 37.84 M47.17 50.28 C48.57 48.67, 49.96 47.06, 51.76 45 M47.17 50.28 C48.81 48.39, 50.46 46.5, 51.76 45" stroke="#15aabf" stroke-width="0.5" fill="none"></path><path d="M13 0 C20.81 0, 28.62 0, 39 0 M13 0 C21.85 0, 30.7 0, 39 0 M39 0 C47.67 0, 52 4.33, 52 13 M39 0 C47.67 0, 52 4.33, 52 13 M52 13 C52 19.87, 52 26.74, 52 39 M52 13 C52 21.58, 52 30.16, 52 39 M52 39 C52 47.67, 47.67 52, 39 52 M52 39 C52 47.67, 47.67 52, 39 52 M39 52 C33.53 52, 28.06 52, 13 52 M39 52 C32.75 52, 26.51 52, 13 52 M13 52 C4.33 52, 0 47.67, 0 39 M13 52 C4.33 52, 0 47.67, 0 39 M0 39 C0 32.76, 0 26.51, 0 13 M0 39 C0 29.84, 0 20.69, 0 13 M0 13 C0 4.33, 4.33 0, 13 0 M0 13 C0 4.33, 4.33 0, 13 0" stroke="#495057" stroke-width="1" fill="none"></path></g><g stroke-linecap="round" transform="translate(674.3299005681816 229.3575994318183) rotate(0 25.999999999999943 26)"><path d="M3.46 3.01 C3.46 3.01, 3.46 3.01, 3.46 3.01 M3.46 3.01 C3.46 3.01, 3.46 3.01, 3.46 3.01 M-0.08 13.18 C3.65 8.88, 7.39 4.59, 10.42 1.1 M-0.08 13.18 C3.19 9.41, 6.47 5.65, 10.42 1.1 M0.31 18.82 C6.6 11.6, 12.88 4.37, 16.06 0.71 M0.31 18.82 C5.01 13.42, 9.7 8.03, 16.06 0.71 M0.05 25.22 C4.49 20.11, 8.94 15, 21.7 0.31 M0.05 25.22 C8.43 15.58, 16.8 5.95, 21.7 0.31 M-0.21 31.62 C8.94 21.09, 18.1 10.56, 26.69 0.67 M-0.21 31.62 C10.28 19.55, 20.76 7.49, 26.69 0.67 M0.18 37.26 C7.1 29.31, 14.01 21.36, 32.33 0.28 M0.18 37.26 C9.44 26.62, 18.69 15.97, 32.33 0.28 M1.24 42.15 C9.57 32.56, 17.91 22.97, 37.32 0.64 M1.24 42.15 C13.3 28.27, 25.37 14.39, 37.32 0.64 M2.29 47.04 C11.43 36.52, 20.57 26, 42.31 1 M2.29 47.04 C12.66 35.1, 23.03 23.17, 42.31 1 M5.31 49.66 C14.91 38.61, 24.52 27.56, 46.64 2.12 M5.31 49.66 C20.63 32.03, 35.95 14.4, 46.64 2.12 M8.98 51.53 C21.18 37.5, 33.38 23.46, 49.66 4.74 M8.98 51.53 C23.61 34.7, 38.25 17.87, 49.66 4.74 M13.97 51.89 C23.95 40.41, 33.92 28.93, 51.36 8.87 M13.97 51.89 C21.52 43.2, 29.08 34.51, 51.36 8.87 M18.95 52.25 C32.16 37.06, 45.36 21.87, 52.41 13.76 M18.95 52.25 C31.07 38.32, 43.18 24.38, 52.41 13.76 M24.6 51.86 C33.55 41.56, 42.5 31.26, 52.81 19.4 M24.6 51.86 C32.93 42.27, 41.27 32.68, 52.81 19.4 M29.58 52.22 C36.21 44.59, 42.84 36.97, 52.55 25.8 M29.58 52.22 C35.39 45.54, 41.2 38.86, 52.55 25.8 M35.23 51.82 C40.82 45.38, 46.42 38.94, 52.28 32.2 M35.23 51.82 C41.75 44.32, 48.27 36.82, 52.28 32.2 M40.87 51.43 C44.05 47.77, 47.22 44.12, 52.68 37.84 M40.87 51.43 C44.8 46.9, 48.73 42.38, 52.68 37.84 M47.17 50.28 C48.57 48.67, 49.96 47.06, 51.76 45 M47.17 50.28 C48.81 48.39, 50.46 46.5, 51.76 45" stroke="#15aabf" stroke-width="0.5" fill="none"></path><path d="M13 0 C20.81 0, 28.62 0, 39 0 M13 0 C21.85 0, 30.7 0, 39 0 M39 0 C47.67 0, 52 4.33, 52 13 M39 0 C47.67 0, 52 4.33, 52 13 M52 13 C52 19.87, 52 26.74, 52 39 M52 13 C52 21.58, 52 30.16, 52 39 M52 39 C52 47.67, 47.67 52, 39 52 M52 39 C52 47.67, 47.67 52, 39 52 M39 52 C33.53 52, 28.06 52, 13 52 M39 52 C32.75 52, 26.51 52, 13 52 M13 52 C4.33 52, 0 47.67, 0 39 M13 52 C4.33 52, 0 47.67, 0 39 M0 39 C0 32.76, 0 26.51, 0 13 M0 39 C0 29.84, 0 20.69, 0 13 M0 13 C0 4.33, 4.33 0, 13 0 M0 13 C0 4.33, 4.33 0, 13 0" stroke="#495057" stroke-width="1" fill="none"></path></g><g stroke-linecap="round" transform="translate(521.2389914772726 240.42578125) rotate(0 13.636363636363626 56.81818181818181)"><path d="M1.81 1.58 C1.81 1.58, 1.81 1.58, 1.81 1.58 M1.81 1.58 C1.81 1.58, 1.81 1.58, 1.81 1.58 M0.9 8.73 C3.09 6.21, 5.28 3.69, 8.11 0.43 M0.9 8.73 C3.47 5.77, 6.04 2.81, 8.11 0.43 M0.64 15.13 C5.44 9.6, 10.25 4.07, 13.76 0.03 M0.64 15.13 C3.94 11.33, 7.24 7.53, 13.76 0.03 M1.03 20.77 C6.4 14.6, 11.76 8.42, 18.74 0.39 M1.03 20.77 C6.52 14.46, 12.01 8.14, 18.74 0.39 M0.77 27.17 C7.42 19.51, 14.08 11.86, 23.73 0.75 M0.77 27.17 C9.72 16.88, 18.66 6.58, 23.73 0.75 M0.51 33.57 C8.58 24.29, 16.64 15, 26.75 3.38 M0.51 33.57 C6.02 27.23, 11.52 20.89, 26.75 3.38 M0.9 39.21 C11.3 27.24, 21.71 15.28, 27.8 8.27 M0.9 39.21 C10.39 28.29, 19.88 17.37, 27.8 8.27 M0.64 45.61 C10.22 34.58, 19.81 23.56, 27.54 14.66 M0.64 45.61 C10.52 34.24, 20.4 22.88, 27.54 14.66 M0.38 52.01 C8.16 43.06, 15.94 34.11, 27.28 21.06 M0.38 52.01 C10.37 40.51, 20.37 29.01, 27.28 21.06 M0.77 57.65 C7.49 49.92, 14.22 42.19, 27.67 26.71 M0.77 57.65 C10.38 46.6, 19.98 35.55, 27.67 26.71 M0.51 64.05 C9.68 53.5, 18.84 42.96, 27.41 33.1 M0.51 64.05 C11.02 51.96, 21.52 39.88, 27.41 33.1 M0.91 69.69 C7.62 61.97, 14.33 54.25, 27.81 38.75 M0.91 69.69 C9.47 59.84, 18.03 49.99, 27.81 38.75 M0.65 76.09 C8.6 66.94, 16.55 57.8, 27.54 45.14 M0.65 76.09 C10.55 64.69, 20.46 53.3, 27.54 45.14 M0.38 82.48 C10.53 70.81, 20.68 59.13, 27.28 51.54 M0.38 82.48 C7.22 74.62, 14.05 66.76, 27.28 51.54 M0.78 88.13 C6.67 81.36, 12.55 74.58, 27.68 57.18 M0.78 88.13 C10.93 76.45, 21.09 64.77, 27.68 57.18 M0.52 94.53 C9.03 84.73, 17.55 74.93, 27.42 63.58 M0.52 94.53 C9.44 84.26, 18.36 73.99, 27.42 63.58 M0.91 100.17 C11.32 88.2, 21.72 76.23, 27.81 69.23 M0.91 100.17 C9.11 90.73, 17.31 81.3, 27.81 69.23 M-0.01 107.32 C8.58 97.45, 17.16 87.57, 27.55 75.62 M-0.01 107.32 C10.53 95.2, 21.08 83.07, 27.55 75.62 M1.7 111.45 C11.59 100.08, 21.48 88.71, 27.29 82.02 M1.7 111.45 C10.69 101.11, 19.68 90.77, 27.29 82.02 M5.38 113.32 C11.33 106.47, 17.29 99.62, 27.68 87.66 M5.38 113.32 C9.88 108.15, 14.38 102.97, 27.68 87.66 M10.36 113.68 C14.04 109.45, 17.73 105.21, 27.42 94.06 M10.36 113.68 C16.02 107.18, 21.68 100.67, 27.42 94.06 M16.01 113.29 C18.95 109.91, 21.89 106.52, 27.82 99.71 M16.01 113.29 C18.94 109.91, 21.88 106.53, 27.82 99.71 M20.99 113.65 C23.51 110.75, 26.03 107.85, 27.55 106.1 M20.99 113.65 C23.45 110.82, 25.91 107.99, 27.55 106.1 M1.92 112.12 C1.92 112.12, 1.92 112.12, 1.92 112.12 M1.92 112.12 C1.92 112.12, 1.92 112.12, 1.92 112.12 M9.07 113.03 C7.16 111.37, 5.25 109.72, 0.01 105.16 M9.07 113.03 C7.04 111.27, 5.02 109.51, 0.01 105.16 M15.47 113.29 C10 108.55, 4.54 103.8, 0.37 100.17 M15.47 113.29 C9.66 108.25, 3.86 103.21, 0.37 100.17 M21.11 112.9 C14.2 106.9, 7.3 100.89, -0.02 94.53 M21.11 112.9 C14.02 106.74, 6.93 100.58, -0.02 94.53 M26 111.85 C17.55 104.51, 9.11 97.17, 0.34 89.54 M26 111.85 C20.56 107.12, 15.12 102.39, 0.34 89.54 M27.87 108.17 C17.42 99.09, 6.97 90.01, -0.06 83.9 M27.87 108.17 C17.22 98.92, 6.58 89.67, -0.06 83.9 M27.47 102.53 C16.71 93.17, 5.94 83.81, 0.3 78.91 M27.47 102.53 C18.08 94.37, 8.69 86.2, 0.3 78.91 M27.83 97.54 C19.3 90.13, 10.78 82.72, -0.09 73.27 M27.83 97.54 C18.17 89.14, 8.5 80.74, -0.09 73.27 M27.44 91.9 C18.36 84.01, 9.28 76.12, 0.27 68.28 M27.44 91.9 C20.23 85.64, 13.03 79.38, 0.27 68.28 M27.8 86.91 C19.86 80.01, 11.92 73.11, -0.13 62.64 M27.8 86.91 C21.39 81.34, 14.98 75.77, -0.13 62.64 M27.4 81.27 C19.95 74.8, 12.51 68.32, 0.23 57.65 M27.4 81.27 C18.87 73.85, 10.33 66.43, 0.23 57.65 M27.76 76.28 C17.01 66.93, 6.25 57.58, -0.16 52.01 M27.76 76.28 C18.14 67.92, 8.52 59.56, -0.16 52.01 M27.37 70.64 C21.69 65.7, 16.01 60.77, 0.2 47.02 M27.37 70.64 C21.92 65.91, 16.47 61.17, 0.2 47.02 M27.73 65.65 C19.52 58.52, 11.31 51.38, -0.2 41.38 M27.73 65.65 C21.62 60.35, 15.52 55.04, -0.2 41.38 M27.33 60.01 C19.4 53.11, 11.46 46.21, 0.16 36.39 M27.33 60.01 C19.29 53.02, 11.24 46.02, 0.16 36.39 M27.69 55.02 C22.08 50.14, 16.46 45.26, 0.52 31.41 M27.69 55.02 C19.72 48.1, 11.75 41.17, 0.52 31.41 M27.3 49.38 C18.12 41.4, 8.93 33.41, 0.13 25.76 M27.3 49.38 C18.14 41.42, 8.98 33.46, 0.13 25.76 M27.66 44.39 C18.67 36.57, 9.67 28.76, 0.49 20.78 M27.66 44.39 C21.57 39.1, 15.49 33.81, 0.49 20.78 M27.27 38.75 C18.52 31.15, 9.77 23.54, 0.1 15.13 M27.27 38.75 C18.48 31.12, 9.7 23.48, 0.1 15.13 M27.63 33.76 C17.16 24.66, 6.69 15.57, 0.46 10.15 M27.63 33.76 C17.3 24.78, 6.97 15.8, 0.46 10.15 M27.23 28.12 C19.83 21.68, 12.42 15.25, 0.82 5.16 M27.23 28.12 C21.45 23.1, 15.67 18.07, 0.82 5.16 M27.59 23.13 C19.93 16.47, 12.27 9.81, 1.93 0.83 M27.59 23.13 C18.72 15.43, 9.86 7.72, 1.93 0.83 M27.2 17.49 C22.91 13.77, 18.63 10.04, 6.82 -0.22 M27.2 17.49 C22.06 13.03, 16.93 8.57, 6.82 -0.22 M27.56 12.5 C23.09 8.62, 18.63 4.74, 13.22 0.04 M27.56 12.5 C24.43 9.79, 21.31 7.07, 13.22 0.04 M27.16 6.86 C24.37 4.43, 21.58 2, 19.61 0.3 M27.16 6.86 C25.54 5.45, 23.92 4.04, 19.61 0.3" stroke="#fd7e14" stroke-width="0.5" fill="none"></path><path d="M6.82 0 C12.2 0, 17.58 0, 20.45 0 M6.82 0 C9.8 0, 12.78 0, 20.45 0 M20.45 0 C25 0, 27.27 2.27, 27.27 6.82 M20.45 0 C25 0, 27.27 2.27, 27.27 6.82 M27.27 6.82 C27.27 37.37, 27.27 67.93, 27.27 106.82 M27.27 6.82 C27.27 29.97, 27.27 53.12, 27.27 106.82 M27.27 106.82 C27.27 111.36, 25 113.64, 20.45 113.64 M27.27 106.82 C27.27 111.36, 25 113.64, 20.45 113.64 M20.45 113.64 C15.02 113.64, 9.58 113.64, 6.82 113.64 M20.45 113.64 C15.1 113.64, 9.74 113.64, 6.82 113.64 M6.82 113.64 C2.27 113.64, 0 111.36, 0 106.82 M6.82 113.64 C2.27 113.64, 0 111.36, 0 106.82 M0 106.82 C0 69.37, 0 31.93, 0 6.82 M0 106.82 C0 74.45, 0 42.09, 0 6.82 M0 6.82 C0 2.27, 2.27 0, 6.82 0 M0 6.82 C0 2.27, 2.27 0, 6.82 0" stroke="#495057" stroke-width="1" fill="none"></path></g><g stroke-opacity="0.4" fill-opacity="0.4" transform="translate(479.9851746992632 184.06214488636357) rotate(270 43.071998596191406 10)"><text x="43.071998596191406" y="0" font-family="Virgil, Segoe UI Emoji" font-size="16px" fill="#495057" text-anchor="middle" style="white-space: pre;" direction="ltr" dominant-baseline="text-before-edge">PrivateLink</text></g><g stroke-linecap="round" transform="translate(581.2389914772726 272.24396306818187) rotate(0 27.272727272727252 27.272727272727252)"><path d="M4.39 23.69 C4.39 23.69, 4.39 23.69, 4.39 23.69 M4.39 23.69 C4.39 23.69, 4.39 23.69, 4.39 23.69 M3.47 30.84 C10.36 22.91, 17.26 14.98, 28.4 2.16 M3.47 30.84 C10.52 22.73, 17.57 14.62, 28.4 2.16 M5.83 34.22 C13.69 25.18, 21.54 16.15, 32.07 4.03 M5.83 34.22 C12.95 26.03, 20.07 17.85, 32.07 4.03 M8.85 36.84 C16.18 28.41, 23.51 19.99, 35.09 6.66 M8.85 36.84 C15.08 29.68, 21.31 22.51, 35.09 6.66 M11.87 39.47 C19.83 30.31, 27.79 21.16, 37.46 10.03 M11.87 39.47 C18.39 31.97, 24.91 24.47, 37.46 10.03 M14.89 42.09 C22.63 33.18, 30.38 24.27, 40.47 12.66 M14.89 42.09 C22.49 33.35, 30.09 24.6, 40.47 12.66 M17.91 44.72 C25.94 35.47, 33.98 26.22, 42.84 16.04 M17.91 44.72 C26.45 34.89, 34.99 25.06, 42.84 16.04 M20.93 47.34 C27.03 40.31, 33.14 33.29, 45.86 18.66 M20.93 47.34 C30.32 36.54, 39.71 25.74, 45.86 18.66 M23.94 49.97 C31.21 41.6, 38.48 33.24, 48.22 22.04 M23.94 49.97 C31.09 41.74, 38.24 33.52, 48.22 22.04 M26.96 52.59 C34.61 43.79, 42.26 34.99, 51.24 24.67 M26.96 52.59 C34.37 44.08, 41.77 35.56, 51.24 24.67 M47.7 34.84 C49.29 33.01, 50.87 31.18, 53.6 28.04 M47.7 34.84 C49.07 33.25, 50.45 31.67, 53.6 28.04 M25.34 51.64 C25.34 51.64, 25.34 51.64, 25.34 51.64 M25.34 51.64 C25.34 51.64, 25.34 51.64, 25.34 51.64 M30.98 51.24 C24.86 45.92, 18.74 40.6, 3.06 26.97 M30.98 51.24 C21.29 42.82, 11.59 34.39, 3.06 26.97 M33.6 48.23 C27.03 42.51, 20.46 36.8, 4.92 23.3 M33.6 48.23 C22.31 38.41, 11.02 28.6, 4.92 23.3 M36.98 45.86 C25.25 35.66, 13.52 25.47, 7.55 20.28 M36.98 45.86 C25.59 35.96, 14.19 26.05, 7.55 20.28 M39.61 42.84 C29.69 34.23, 19.78 25.61, 10.93 17.91 M39.61 42.84 C31.51 35.8, 23.41 28.76, 10.93 17.91 M42.23 39.83 C36.01 34.42, 29.78 29.01, 13.55 14.9 M42.23 39.83 C31.64 30.62, 21.05 21.41, 13.55 14.9 M45.61 37.46 C35.75 28.89, 25.88 20.31, 16.18 11.88 M45.61 37.46 C37.48 30.39, 29.35 23.33, 16.18 11.88 M48.23 34.44 C38.34 25.84, 28.44 17.24, 19.56 9.51 M48.23 34.44 C40.4 27.64, 32.57 20.83, 19.56 9.51 M50.86 31.43 C43.37 24.91, 35.87 18.4, 22.18 6.49 M50.86 31.43 C42.99 24.58, 35.12 17.74, 22.18 6.49 M52.73 27.75 C46.74 22.54, 40.75 17.34, 24.8 3.48 M52.73 27.75 C43.17 19.44, 33.61 11.13, 24.8 3.48 M41.01 12.27 C37.41 9.13, 33.8 6, 28.94 1.77 M41.01 12.27 C37.51 9.22, 34 6.17, 28.94 1.77" stroke="#fd7e14" stroke-width="0.5" fill="none"></path><path d="M35 7 C39.54 12.07, 44.08 17.13, 47.55 21 M35 7 C39.82 12.38, 44.64 17.76, 47.55 21 M47.55 21 C54.55 28, 54.55 28, 47.55 35 M47.55 21 C54.55 28, 54.55 28, 47.55 35 M47.55 35 C43.62 38.92, 39.7 42.84, 35 47.55 M47.55 35 C43.9 38.64, 40.26 42.28, 35 47.55 M35 47.55 C28 54.55, 28 54.55, 21 47.55 M35 47.55 C28 54.55, 28 54.55, 21 47.55 M21 47.55 C16.28 43.32, 11.56 39.09, 7 35 M21 47.55 C18.18 45.01, 15.35 42.48, 7 35 M7 35 C0 28, 0 28, 7 21 M7 35 C0 28, 0 28, 7 21 M7 21 C11.53 16.47, 16.07 11.93, 21 7 M7 21 C10.72 17.28, 14.43 13.57, 21 7 M21 7 C28 0, 28 0, 35 7 M21 7 C28 0, 28 0, 35 7" stroke="#495057" stroke-width="1" fill="none"></path></g><g stroke-opacity="0.4" fill-opacity="0.4" transform="translate(567.9880825389514 327.6985085227273) rotate(0 34.15999984741211 20)"><text x="34.15999984741211" y="0" font-family="Virgil, Segoe UI Emoji" font-size="16px" fill="#495057" text-anchor="middle" style="white-space: pre;" direction="ltr" dominant-baseline="text-before-edge">Load </text><text x="34.15999984741211" y="20" font-family="Virgil, Segoe UI Emoji" font-size="16px" fill="#495057" text-anchor="middle" style="white-space: pre;" direction="ltr" dominant-baseline="text-before-edge">Balancer</text></g><g stroke-linecap="round"><g transform="translate(543.0571732954544 298.6075994318182) rotate(0 17.72727272727269 0)"><path d="M0 0 C5.91 0, 29.55 0, 35.45 0 M0 0 C5.91 0, 29.55 0, 35.45 0" stroke="#495057" stroke-width="1" fill="none"></path></g><g transform="translate(543.0571732954544 298.6075994318182) rotate(0 17.72727272727269 0)"><path d="M18.8 6.06 C22.14 4.85, 25.48 3.63, 35.45 0 M18.8 6.06 C23.69 4.28, 28.59 2.5, 35.45 0" stroke="#495057" stroke-width="1" fill="none"></path></g><g transform="translate(543.0571732954544 298.6075994318182) rotate(0 17.72727272727269 0)"><path d="M18.8 -6.06 C22.14 -4.85, 25.48 -3.63, 35.45 0 M18.8 -6.06 C23.69 -4.28, 28.59 -2.5, 35.45 0" stroke="#495057" stroke-width="1" fill="none"></path></g></g><mask></mask><g stroke-linecap="round"><g stroke-opacity="0.4" fill-opacity="0.4" transform="translate(636.6935369318181 300.42578125) rotate(0 18.181818181818187 -23.636363636363626)"><path d="M0 0 C6.06 -7.88, 30.3 -39.39, 36.36 -47.27 M0 0 C6.06 -7.88, 30.3 -39.39, 36.36 -47.27" stroke="#495057" stroke-width="1" fill="none"></path></g><g stroke-opacity="0.4" fill-opacity="0.4" transform="translate(636.6935369318181 300.42578125) rotate(0 18.181818181818187 -23.636363636363626)"><path d="M28.82 -23.44 C30.82 -29.75, 32.82 -36.07, 36.36 -47.27 M28.82 -23.44 C30.72 -29.46, 32.63 -35.47, 36.36 -47.27" stroke="#495057" stroke-width="1" fill="none"></path></g><g stroke-opacity="0.4" fill-opacity="0.4" transform="translate(636.6935369318181 300.42578125) rotate(0 18.181818181818187 -23.636363636363626)"><path d="M15.26 -33.87 C20.85 -37.42, 26.44 -40.97, 36.36 -47.27 M15.26 -33.87 C20.59 -37.25, 25.92 -40.64, 36.36 -47.27" stroke="#495057" stroke-width="1" fill="none"></path></g></g><mask></mask><g stroke-linecap="round"><g stroke-opacity="0.4" fill-opacity="0.4" transform="translate(636.693536931818 301.33487215909093) rotate(0 18.181818181818187 9.090909090909093)"><path d="M0 0 C6.06 3.03, 30.3 15.15, 36.36 18.18 M0 0 C6.06 3.03, 30.3 15.15, 36.36 18.18" stroke="#495057" stroke-width="1" fill="none"></path></g><g stroke-opacity="0.4" fill-opacity="0.4" transform="translate(636.693536931818 301.33487215909093) rotate(0 18.181818181818187 9.090909090909093)"><path d="M16.17 15.86 C21.07 16.42, 25.98 16.99, 36.36 18.18 M16.17 15.86 C21.13 16.43, 26.09 17, 36.36 18.18" stroke="#495057" stroke-width="1" fill="none"></path></g><g stroke-opacity="0.4" fill-opacity="0.4" transform="translate(636.693536931818 301.33487215909093) rotate(0 18.181818181818187 9.090909090909093)"><path d="M22.39 3.42 C25.78 7.01, 29.18 10.59, 36.36 18.18 M22.39 3.42 C25.82 7.05, 29.25 10.67, 36.36 18.18" stroke="#495057" stroke-width="1" fill="none"></path></g></g><mask></mask><g stroke-opacity="0.4" fill-opacity="0.4" transform="translate(701.2804482199928 396.78941761363643) rotate(0 34.50399780273432 10)"><text x="34.503997802734375" y="0" font-family="Virgil, Segoe UI Emoji" font-size="16px" fill="#495057" text-anchor="middle" style="white-space: pre;" direction="ltr" dominant-baseline="text-before-edge">Gateway</text></g><g stroke-linecap="round"><g stroke-opacity="0.4" fill-opacity="0.4" transform="translate(688.51171875 340.42578125) rotate(0 -35 46.81818181818173)"><path d="M0 0 C-2.12 7.73, -1.06 30.76, -12.73 46.36 C-24.39 61.97, -60.45 85.76, -70 93.64 M0 0 C-2.12 7.73, -1.06 30.76, -12.73 46.36 C-24.39 61.97, -60.45 85.76, -70 93.64" stroke="#495057" stroke-width="1" fill="none"></path></g><g stroke-opacity="0.4" fill-opacity="0.4" transform="translate(688.51171875 340.42578125) rotate(0 -35 46.81818181818173)"><path d="M-56.29 72.73 C-61.43 80.56, -66.56 88.39, -70 93.64 M-56.29 72.73 C-59.78 78.05, -63.28 83.38, -70 93.64" stroke="#495057" stroke-width="1" fill="none"></path></g><g stroke-opacity="0.4" fill-opacity="0.4" transform="translate(688.51171875 340.42578125) rotate(0 -35 46.81818181818173)"><path d="M-46.06 86.43 C-55.03 89.13, -64 91.83, -70 93.64 M-46.06 86.43 C-52.16 88.27, -58.25 90.1, -70 93.64" stroke="#495057" stroke-width="1" fill="none"></path></g></g><mask></mask><g stroke-opacity="0.4" fill-opacity="0.4" transform="translate(574.0564568259498 104.97123579545462) rotate(0 91.72798919677729 10)"><text x="91.72798919677734" y="0" font-family="Virgil, Segoe UI Emoji" font-size="16px" fill="#495057" text-anchor="middle" style="white-space: pre;" direction="ltr" dominant-baseline="text-before-edge">SaaS platform account</text></g><g stroke-linecap="round" transform="translate(649.4208096590907 382.2439630681818) rotate(0 27.727272727272748 7.727272727272691)"><path d="M1.03 0.89 C1.03 0.89, 1.03 0.89, 1.03 0.89 M1.03 0.89 C1.03 0.89, 1.03 0.89, 1.03 0.89 M0.77 7.29 C2.45 5.36, 4.13 3.42, 6.67 0.5 M0.77 7.29 C2.51 5.29, 4.25 3.28, 6.67 0.5 M0.51 13.69 C4.19 9.45, 7.87 5.22, 12.31 0.1 M0.51 13.69 C4.09 9.57, 7.67 5.45, 12.31 0.1 M4.18 15.56 C8.21 10.92, 12.24 6.29, 17.3 0.46 M4.18 15.56 C6.95 12.37, 9.73 9.18, 17.3 0.46 M9.17 15.92 C13.17 11.31, 17.18 6.71, 22.94 0.07 M9.17 15.92 C13.23 11.24, 17.29 6.57, 22.94 0.07 M14.81 15.52 C17.66 12.25, 20.51 8.97, 27.93 0.43 M14.81 15.52 C18.19 11.63, 21.57 7.75, 27.93 0.43 M19.8 15.88 C22.73 12.51, 25.66 9.14, 32.92 0.79 M19.8 15.88 C22.89 12.33, 25.98 8.77, 32.92 0.79 M25.44 15.49 C30.36 9.83, 35.28 4.17, 38.56 0.4 M25.44 15.49 C29.38 10.96, 33.31 6.44, 38.56 0.4 M30.43 15.85 C34.53 11.13, 38.63 6.41, 43.55 0.76 M30.43 15.85 C33.84 11.92, 37.26 7.99, 43.55 0.76 M35.41 16.21 C38.18 13.03, 40.95 9.84, 49.19 0.36 M35.41 16.21 C40.48 10.38, 45.55 4.55, 49.19 0.36 M41.06 15.82 C45.94 10.2, 50.83 4.58, 54.18 0.72 M41.06 15.82 C45.23 11.01, 49.41 6.21, 54.18 0.72 M46.04 16.18 C48.59 13.25, 51.13 10.33, 55.23 5.61 M46.04 16.18 C49.3 12.43, 52.56 8.68, 55.23 5.61 M51.69 15.78 C52.97 14.3, 54.26 12.82, 55.62 11.25 M51.69 15.78 C52.76 14.55, 53.83 13.31, 55.62 11.25 M2.46 15.46 C2.46 15.46, 2.46 15.46, 2.46 15.46 M2.46 15.46 C2.46 15.46, 2.46 15.46, 2.46 15.46 M8.1 15.07 C5.75 13.02, 3.4 10.98, 0.56 8.51 M8.1 15.07 C6.59 13.75, 5.07 12.43, 0.56 8.51 M14.5 15.33 C10.3 11.68, 6.1 8.02, 0.92 3.52 M14.5 15.33 C9.3 10.81, 4.1 6.28, 0.92 3.52 M20.9 15.59 C14.43 9.96, 7.95 4.34, 3.54 0.5 M20.9 15.59 C15.78 11.14, 10.67 6.7, 3.54 0.5 M26.54 15.2 C20.49 9.94, 14.44 4.68, 8.43 -0.55 M26.54 15.2 C22.35 11.55, 18.15 7.9, 8.43 -0.55 M32.94 15.46 C26.26 9.65, 19.59 3.85, 14.83 -0.29 M32.94 15.46 C26.43 9.8, 19.93 4.14, 14.83 -0.29 M39.34 15.72 C33.1 10.3, 26.86 4.88, 21.22 -0.03 M39.34 15.72 C35.43 12.33, 31.53 8.93, 21.22 -0.03 M44.98 15.32 C40.15 11.12, 35.32 6.92, 26.87 -0.42 M44.98 15.32 C39.29 10.38, 33.6 5.43, 26.87 -0.42 M51.38 15.59 C47.27 12.02, 43.16 8.45, 33.26 -0.16 M51.38 15.59 C46.88 11.67, 42.38 7.76, 33.26 -0.16 M54.76 13.22 C51.03 9.98, 47.31 6.75, 39.66 0.1 M54.76 13.22 C50.33 9.38, 45.91 5.53, 39.66 0.1 M55.87 8.89 C53.46 6.79, 51.04 4.7, 45.31 -0.29 M55.87 8.89 C52.61 6.06, 49.35 3.22, 45.31 -0.29 M55.48 3.25 C53.97 1.94, 52.47 0.63, 51.7 -0.03 M55.48 3.25 C54.18 2.12, 52.88 0.99, 51.7 -0.03" stroke="#fd7e14" stroke-width="0.5" fill="none"></path><path d="M3.86 0 C15.65 0, 27.43 0, 51.59 0 M3.86 0 C20.85 0, 37.83 0, 51.59 0 M51.59 0 C54.17 0, 55.45 1.29, 55.45 3.86 M51.59 0 C54.17 0, 55.45 1.29, 55.45 3.86 M55.45 3.86 C55.45 5.5, 55.45 7.14, 55.45 11.59 M55.45 3.86 C55.45 6.9, 55.45 9.94, 55.45 11.59 M55.45 11.59 C55.45 14.17, 54.17 15.45, 51.59 15.45 M55.45 11.59 C55.45 14.17, 54.17 15.45, 51.59 15.45 M51.59 15.45 C35.93 15.45, 20.27 15.45, 3.86 15.45 M51.59 15.45 C32.61 15.45, 13.63 15.45, 3.86 15.45 M3.86 15.45 C1.29 15.45, 0 14.17, 0 11.59 M3.86 15.45 C1.29 15.45, 0 14.17, 0 11.59 M0 11.59 C0 9.53, 0 7.46, 0 3.86 M0 11.59 C0 9.92, 0 8.26, 0 3.86 M0 3.86 C0 1.29, 1.29 0, 3.86 0 M0 3.86 C0 1.29, 1.29 0, 3.86 0" stroke="#495057" stroke-width="1" fill="none"></path></g><g transform="translate(120.829268022017 10) rotate(0 259.7279052734375 17.5)"><text x="259.7279052734375" y="0" font-family="Virgil, Segoe UI Emoji" font-size="28px" fill="#c92a2a" text-anchor="middle" style="white-space: pre;" direction="ltr" dominant-baseline="text-before-edge">No more complicated network changes!</text></g><g stroke-linecap="round"><g transform="translate(105.78444602272742 322.05121304724366) rotate(0 233.18181818181804 65.49037359001451)"><path d="M0 0 C10.61 11.07, 48.18 44.61, 63.64 66.44 C79.09 88.27, 25.61 122.65, 92.73 130.98 C159.85 139.31, 404.09 118.86, 466.36 116.44 M0 0 C10.61 11.07, 48.18 44.61, 63.64 66.44 C79.09 88.27, 25.61 122.65, 92.73 130.98 C159.85 139.31, 404.09 118.86, 466.36 116.44" stroke="#c92a2a" stroke-width="1" fill="none"></path></g><g transform="translate(105.78444602272742 322.05121304724366) rotate(0 233.18181818181804 65.49037359001451)"><path d="M443.43 126.39 C450.18 123.46, 456.93 120.53, 466.36 116.44 M443.43 126.39 C448.12 124.35, 452.82 122.32, 466.36 116.44" stroke="#c92a2a" stroke-width="1" fill="none"></path></g><g transform="translate(105.78444602272742 322.05121304724366) rotate(0 233.18181818181804 65.49037359001451)"><path d="M442.4 109.32 C449.45 111.42, 456.5 113.51, 466.36 116.44 M442.4 109.32 C447.3 110.78, 452.21 112.23, 466.36 116.44" stroke="#c92a2a" stroke-width="1" fill="none"></path></g></g><mask></mask><g transform="translate(317.0935384576969 530.3046875) rotate(0 59.599998474121094 20)"><text x="59.599998474121094" y="0" font-family="Virgil, Segoe UI Emoji" font-size="16px" fill="#c92a2a" text-anchor="middle" style="white-space: pre;" direction="ltr" dominant-baseline="text-before-edge">Cross-account </text><text x="59.599998474121094" y="20" font-family="Virgil, Segoe UI Emoji" font-size="16px" fill="#c92a2a" text-anchor="middle" style="white-space: pre;" direction="ltr" dominant-baseline="text-before-edge">access policies</text></g><g stroke-linecap="round" transform="translate(260.32990056818164 481.21377840909093) rotate(0 130.4545454545455 17.72727272727269)"><path d="M2.36 2.05 C2.36 2.05, 2.36 2.05, 2.36 2.05 M2.36 2.05 C2.36 2.05, 2.36 2.05, 2.36 2.05 M0.79 9.96 C3.74 6.56, 6.69 3.17, 9.31 0.15 M0.79 9.96 C2.57 7.9, 4.36 5.85, 9.31 0.15 M0.52 16.36 C4.94 11.28, 9.35 6.2, 14.3 0.51 M0.52 16.36 C3.45 12.99, 6.37 9.63, 14.3 0.51 M0.26 22.75 C4.38 18.02, 8.49 13.29, 19.94 0.11 M0.26 22.75 C7.75 14.14, 15.23 5.54, 19.94 0.11 M0.66 28.4 C9.04 18.76, 17.42 9.12, 24.93 0.47 M0.66 28.4 C7.75 20.24, 14.84 12.08, 24.93 0.47 M2.36 32.53 C8.04 26, 13.72 19.47, 30.57 0.08 M2.36 32.53 C9.39 24.45, 16.42 16.37, 30.57 0.08 M5.38 35.15 C14.16 25.06, 22.94 14.96, 35.56 0.44 M5.38 35.15 C15.1 23.98, 24.81 12.81, 35.56 0.44 M10.37 35.51 C21.85 22.31, 33.32 9.11, 41.2 0.04 M10.37 35.51 C19.54 24.96, 28.71 14.41, 41.2 0.04 M15.36 35.87 C26.19 23.42, 37.02 10.96, 46.19 0.4 M15.36 35.87 C25.41 24.31, 35.47 12.74, 46.19 0.4 M21 35.48 C29.79 25.37, 38.57 15.27, 51.83 0.01 M21 35.48 C29.26 25.97, 37.53 16.47, 51.83 0.01 M25.99 35.84 C34.75 25.76, 43.51 15.68, 56.82 0.37 M25.99 35.84 C36.48 23.77, 46.98 11.69, 56.82 0.37 M31.63 35.45 C41.4 24.2, 51.18 12.96, 62.46 -0.03 M31.63 35.45 C39.78 26.07, 47.92 16.7, 62.46 -0.03 M36.62 35.81 C46.22 24.75, 55.83 13.7, 67.45 0.33 M36.62 35.81 C46.21 24.77, 55.8 13.73, 67.45 0.33 M42.26 35.41 C53.35 22.65, 64.44 9.9, 73.1 -0.06 M42.26 35.41 C49.98 26.53, 57.7 17.65, 73.1 -0.06 M47.25 35.77 C54.01 27.99, 60.77 20.21, 78.08 0.3 M47.25 35.77 C59.45 21.73, 71.65 7.7, 78.08 0.3 M52.89 35.38 C62.5 24.32, 72.11 13.26, 83.07 0.66 M52.89 35.38 C63.52 23.15, 74.14 10.93, 83.07 0.66 M57.88 35.74 C65.82 26.6, 73.76 17.47, 88.71 0.27 M57.88 35.74 C65.97 26.42, 74.07 17.11, 88.71 0.27 M63.52 35.34 C69.95 27.95, 76.38 20.55, 93.7 0.63 M63.52 35.34 C74.25 23, 84.98 10.66, 93.7 0.63 M68.51 35.7 C75.92 27.18, 83.33 18.66, 99.34 0.23 M68.51 35.7 C80.56 21.84, 92.61 7.97, 99.34 0.23 M74.15 35.31 C82.51 25.7, 90.86 16.08, 104.33 0.59 M74.15 35.31 C80.42 28.09, 86.7 20.88, 104.33 0.59 M79.14 35.67 C86.71 26.95, 94.29 18.24, 109.97 0.2 M79.14 35.67 C90.57 22.51, 102.01 9.35, 109.97 0.2 M84.78 35.27 C92.56 26.32, 100.34 17.37, 114.96 0.56 M84.78 35.27 C94.36 24.26, 103.94 13.24, 114.96 0.56 M89.77 35.63 C99.51 24.43, 109.25 13.22, 120.6 0.16 M89.77 35.63 C96.05 28.41, 102.33 21.18, 120.6 0.16 M95.41 35.24 C104.99 24.22, 114.57 13.2, 125.59 0.52 M95.41 35.24 C103.05 26.45, 110.69 17.66, 125.59 0.52 M100.4 35.6 C111.42 22.92, 122.44 10.25, 131.23 0.13 M100.4 35.6 C106.61 28.45, 112.83 21.3, 131.23 0.13 M106.04 35.2 C116.05 23.69, 126.06 12.18, 136.22 0.49 M106.04 35.2 C113.44 26.69, 120.84 18.18, 136.22 0.49 M111.03 35.56 C118.44 27.04, 125.85 18.52, 141.86 0.09 M111.03 35.56 C119.89 25.37, 128.74 15.18, 141.86 0.09 M116.01 35.92 C128.05 22.08, 140.08 8.24, 146.85 0.45 M116.01 35.92 C124.79 25.83, 133.57 15.73, 146.85 0.45 M121.66 35.53 C130.88 24.92, 140.1 14.31, 152.49 0.06 M121.66 35.53 C130.75 25.07, 139.85 14.61, 152.49 0.06 M126.64 35.89 C135.81 25.34, 144.98 14.8, 157.48 0.42 M126.64 35.89 C133.53 27.97, 140.42 20.05, 157.48 0.42 M132.29 35.5 C139.45 27.26, 146.61 19.02, 163.12 0.02 M132.29 35.5 C140.59 25.94, 148.9 16.39, 163.12 0.02 M137.28 35.86 C145.62 26.25, 153.97 16.65, 168.11 0.38 M137.28 35.86 C145.73 26.13, 154.18 16.41, 168.11 0.38 M142.92 35.46 C149.15 28.29, 155.39 21.11, 173.75 -0.01 M142.92 35.46 C154.22 22.46, 165.52 9.46, 173.75 -0.01 M147.91 35.82 C155.38 27.22, 162.86 18.62, 178.74 0.35 M147.91 35.82 C157.49 24.8, 167.07 13.78, 178.74 0.35 M153.55 35.43 C163.9 23.52, 174.25 11.61, 184.38 -0.04 M153.55 35.43 C164.43 22.91, 175.31 10.39, 184.38 -0.04 M158.54 35.79 C169.6 23.06, 180.66 10.34, 189.37 0.32 M158.54 35.79 C169.88 22.73, 181.23 9.68, 189.37 0.32 M164.18 35.39 C171.06 27.47, 177.95 19.55, 195.01 -0.08 M164.18 35.39 C173.63 24.52, 183.08 13.64, 195.01 -0.08 M169.17 35.75 C177.79 25.83, 186.42 15.91, 200 0.28 M169.17 35.75 C179.7 23.63, 190.24 11.51, 200 0.28 M174.81 35.36 C181.44 27.73, 188.07 20.1, 204.99 0.64 M174.81 35.36 C184.34 24.39, 193.88 13.42, 204.99 0.64 M179.8 35.72 C188.42 25.8, 197.04 15.87, 210.63 0.25 M179.8 35.72 C188.68 25.49, 197.57 15.27, 210.63 0.25 M185.44 35.32 C195.81 23.39, 206.19 11.45, 215.62 0.61 M185.44 35.32 C196.93 22.11, 208.42 8.89, 215.62 0.61 M190.43 35.68 C201.12 23.38, 211.82 11.07, 221.26 0.21 M190.43 35.68 C200.46 24.14, 210.49 12.6, 221.26 0.21 M196.07 35.29 C207.48 22.16, 218.9 9.03, 226.25 0.57 M196.07 35.29 C205.46 24.48, 214.86 13.67, 226.25 0.57 M201.06 35.65 C209.81 25.58, 218.56 15.52, 231.89 0.18 M201.06 35.65 C211.28 23.89, 221.5 12.14, 231.89 0.18 M206.7 35.25 C217.86 22.41, 229.03 9.56, 236.88 0.54 M206.7 35.25 C213.62 27.29, 220.54 19.33, 236.88 0.54 M211.69 35.61 C218.06 28.28, 224.43 20.95, 242.52 0.14 M211.69 35.61 C219.27 26.89, 226.85 18.17, 242.52 0.14 M217.33 35.22 C227.29 23.76, 237.25 12.3, 247.51 0.5 M217.33 35.22 C225.39 25.95, 233.44 16.68, 247.51 0.5 M222.32 35.58 C229.74 27.03, 237.17 18.49, 252.49 0.86 M222.32 35.58 C233.46 22.76, 244.6 9.94, 252.49 0.86 M227.3 35.94 C237.37 24.36, 247.43 12.78, 257.48 1.22 M227.3 35.94 C235.38 26.64, 243.46 17.35, 257.48 1.22 M232.95 35.55 C239.58 27.91, 246.22 20.28, 259.84 4.6 M232.95 35.55 C240.01 27.42, 247.07 19.29, 259.84 4.6 M237.93 35.91 C242.97 30.11, 248 24.32, 260.89 9.49 M237.93 35.91 C244.5 28.35, 251.06 20.8, 260.89 9.49 M243.58 35.51 C248.13 30.27, 252.68 25.03, 260.63 15.89 M243.58 35.51 C247.81 30.64, 252.05 25.77, 260.63 15.89 M248.56 35.87 C252.19 31.7, 255.81 27.53, 261.03 21.53 M248.56 35.87 C252.13 31.76, 255.71 27.65, 261.03 21.53 M254.21 35.48 C256.22 33.15, 258.24 30.83, 261.42 27.17 M254.21 35.48 C256.44 32.91, 258.67 30.34, 261.42 27.17 M1.85 32.92 C1.85 32.92, 1.85 32.92, 1.85 32.92 M1.85 32.92 C1.85 32.92, 1.85 32.92, 1.85 32.92 M10.52 35.15 C7.65 32.66, 4.78 30.17, -0.05 25.97 M10.52 35.15 C6.39 31.57, 2.27 27.98, -0.05 25.97 M16.91 35.42 C11.55 30.75, 6.19 26.09, 0.31 20.98 M16.91 35.42 C12.75 31.79, 8.58 28.17, 0.31 20.98 M22.56 35.02 C15.04 28.49, 7.53 21.96, 0.67 16 M22.56 35.02 C16.08 29.39, 9.6 23.76, 0.67 16 M28.96 35.28 C20.28 27.74, 11.61 20.21, 1.03 11.01 M28.96 35.28 C17.79 25.57, 6.62 15.86, 1.03 11.01 M35.35 35.54 C28.07 29.21, 20.78 22.87, 0.64 5.37 M35.35 35.54 C21.74 23.71, 8.13 11.88, 0.64 5.37 M41 35.15 C28.03 23.88, 15.06 12.61, 2.51 1.69 M41 35.15 C29.38 25.05, 17.77 14.96, 2.51 1.69 M47.39 35.41 C35.16 24.77, 22.92 14.14, 6.64 -0.02 M47.39 35.41 C34.93 24.57, 22.46 13.74, 6.64 -0.02 M53.04 35.02 C39.77 23.49, 26.51 11.96, 12.28 -0.41 M53.04 35.02 C37.71 21.69, 22.38 8.37, 12.28 -0.41 M59.43 35.28 C48.95 26.16, 38.46 17.04, 18.68 -0.15 M59.43 35.28 C50.26 27.3, 41.08 19.33, 18.68 -0.15 M65.83 35.54 C54.88 26.02, 43.93 16.5, 24.32 -0.54 M65.83 35.54 C51.14 22.77, 36.45 9.99, 24.32 -0.54 M71.48 35.14 C61.76 26.7, 52.05 18.26, 30.72 -0.28 M71.48 35.14 C55.23 21.02, 38.98 6.9, 30.72 -0.28 M77.87 35.41 C65.28 24.46, 52.68 13.51, 36.36 -0.68 M77.87 35.41 C62.22 21.8, 46.56 8.19, 36.36 -0.68 M83.52 35.01 C74.79 27.43, 66.06 19.84, 42.76 -0.42 M83.52 35.01 C73.89 26.64, 64.26 18.28, 42.76 -0.42 M89.91 35.27 C79.31 26.06, 68.71 16.84, 49.16 -0.15 M89.91 35.27 C77.76 24.71, 65.6 14.14, 49.16 -0.15 M96.31 35.53 C85.1 25.79, 73.89 16.05, 54.8 -0.55 M96.31 35.53 C87.66 28.01, 79.01 20.49, 54.8 -0.55 M101.95 35.14 C89.18 24.03, 76.4 12.92, 61.2 -0.29 M101.95 35.14 C86.43 21.64, 70.9 8.14, 61.2 -0.29 M108.35 35.4 C95.68 24.38, 83.01 13.37, 66.84 -0.68 M108.35 35.4 C93.95 22.88, 79.55 10.36, 66.84 -0.68 M114 35.01 C101.46 24.11, 88.93 13.22, 73.24 -0.42 M114 35.01 C105.84 27.92, 97.69 20.83, 73.24 -0.42 M120.39 35.27 C106.81 23.46, 93.23 11.66, 79.64 -0.16 M120.39 35.27 C106.36 23.07, 92.33 10.87, 79.64 -0.16 M126.79 35.53 C116.43 26.52, 106.06 17.51, 85.28 -0.55 M126.79 35.53 C112.65 23.23, 98.5 10.94, 85.28 -0.55 M132.43 35.13 C116.9 21.63, 101.37 8.13, 91.68 -0.29 M132.43 35.13 C122.08 26.13, 111.73 17.13, 91.68 -0.29 M138.83 35.4 C130.03 27.74, 121.22 20.09, 97.32 -0.69 M138.83 35.4 C126.39 24.58, 113.95 13.77, 97.32 -0.69 M144.48 35 C128.56 21.17, 112.64 7.33, 103.72 -0.43 M144.48 35 C128.56 21.16, 112.64 7.33, 103.72 -0.43 M150.87 35.26 C141.47 27.09, 132.06 18.91, 110.12 -0.16 M150.87 35.26 C135.22 21.65, 119.56 8.04, 110.12 -0.16 M157.27 35.52 C144.12 24.09, 130.96 12.66, 115.76 -0.56 M157.27 35.52 C147.75 27.25, 138.24 18.98, 115.76 -0.56 M162.91 35.13 C154.53 27.85, 146.15 20.56, 122.16 -0.3 M162.91 35.13 C154.25 27.6, 145.58 20.06, 122.16 -0.3 M169.31 35.39 C159.78 27.1, 150.24 18.82, 127.8 -0.69 M169.31 35.39 C156.59 24.34, 143.88 13.28, 127.8 -0.69 M174.95 35 C166.77 27.88, 158.59 20.77, 134.2 -0.43 M174.95 35 C166.22 27.4, 157.49 19.81, 134.2 -0.43 M181.35 35.26 C172.69 27.73, 164.02 20.19, 140.6 -0.17 M181.35 35.26 C168.35 23.95, 155.34 12.64, 140.6 -0.17 M187.75 35.52 C173.46 23.09, 159.16 10.67, 146.24 -0.56 M187.75 35.52 C174.08 23.64, 160.41 11.75, 146.24 -0.56 M193.39 35.13 C182.66 25.79, 171.93 16.46, 152.64 -0.3 M193.39 35.13 C184.19 27.12, 174.99 19.12, 152.64 -0.3 M199.79 35.39 C186.15 23.53, 172.51 11.67, 158.28 -0.7 M199.79 35.39 C186.97 24.24, 174.14 13.09, 158.28 -0.7 M205.43 34.99 C189.39 21.05, 173.35 7.1, 164.68 -0.44 M205.43 34.99 C191.35 22.75, 177.27 10.51, 164.68 -0.44 M211.83 35.25 C199.21 24.28, 186.58 13.3, 171.08 -0.17 M211.83 35.25 C203.06 27.63, 194.29 20, 171.08 -0.17 M218.23 35.51 C204.56 23.63, 190.9 11.75, 176.72 -0.57 M218.23 35.51 C207.51 26.2, 196.8 16.88, 176.72 -0.57 M223.87 35.12 C215.39 27.74, 206.9 20.37, 183.12 -0.31 M223.87 35.12 C210.78 23.74, 197.69 12.36, 183.12 -0.31 M230.27 35.38 C221.55 27.8, 212.83 20.22, 188.76 -0.7 M230.27 35.38 C217.61 24.38, 204.96 13.38, 188.76 -0.7 M235.91 34.99 C227.42 27.61, 218.93 20.22, 195.16 -0.44 M235.91 34.99 C227.33 27.52, 218.74 20.06, 195.16 -0.44 M242.31 35.25 C230.49 24.97, 218.67 14.7, 201.56 -0.18 M242.31 35.25 C230.59 25.06, 218.87 14.87, 201.56 -0.18 M248.71 35.51 C237.98 26.18, 227.24 16.85, 207.2 -0.57 M248.71 35.51 C237.14 25.45, 225.56 15.39, 207.2 -0.57 M253.6 34.46 C244.11 26.21, 234.63 17.97, 213.6 -0.31 M253.6 34.46 C238.83 21.63, 224.07 8.79, 213.6 -0.31 M258.49 33.41 C243.91 20.73, 229.33 8.06, 219.24 -0.71 M258.49 33.41 C249.41 25.52, 240.33 17.63, 219.24 -0.71 M260.36 29.73 C252.25 22.69, 244.15 15.64, 225.64 -0.44 M260.36 29.73 C247.4 18.47, 234.44 7.21, 225.64 -0.44 M260.72 24.75 C251.43 16.68, 242.15 8.61, 232.04 -0.18 M260.72 24.75 C249.68 15.15, 238.64 5.56, 232.04 -0.18 M261.08 19.76 C254.64 14.17, 248.21 8.57, 237.68 -0.58 M261.08 19.76 C254.41 13.97, 247.75 8.18, 237.68 -0.58 M260.68 14.12 C254.78 8.98, 248.87 3.85, 244.08 -0.32 M260.68 14.12 C254.58 8.82, 248.49 3.52, 244.08 -0.32 M260.29 8.47 C257.41 5.97, 254.54 3.47, 249.72 -0.71 M260.29 8.47 C256.6 5.27, 252.91 2.06, 249.72 -0.71" stroke="#fd7e14" stroke-width="0.5" fill="none"></path><path d="M8.86 0 C65.79 0, 122.72 0, 252.05 0 M8.86 0 C74.8 0, 140.74 0, 252.05 0 M252.05 0 C257.95 0, 260.91 2.95, 260.91 8.86 M252.05 0 C257.95 0, 260.91 2.95, 260.91 8.86 M260.91 8.86 C260.91 13, 260.91 17.13, 260.91 26.59 M260.91 8.86 C260.91 15.9, 260.91 22.94, 260.91 26.59 M260.91 26.59 C260.91 32.5, 257.95 35.45, 252.05 35.45 M260.91 26.59 C260.91 32.5, 257.95 35.45, 252.05 35.45 M252.05 35.45 C163.05 35.45, 74.06 35.45, 8.86 35.45 M252.05 35.45 C194.02 35.45, 135.99 35.45, 8.86 35.45 M8.86 35.45 C2.95 35.45, 0 32.5, 0 26.59 M8.86 35.45 C2.95 35.45, 0 32.5, 0 26.59 M0 26.59 C0 21.81, 0 17.03, 0 8.86 M0 26.59 C0 23.03, 0 19.47, 0 8.86 M0 8.86 C0 2.95, 2.95 0, 8.86 0 M0 8.86 C0 2.95, 2.95 0, 8.86 0" stroke="#c92a2a" stroke-width="1" fill="none"></path></g><g stroke-linecap="round"><g transform="translate(110.10262784090912 306.51064842690204) rotate(0 54.20454545454538 -0.3123392110152565)"><path d="M0 0 C18.07 -0.1, 90.34 -0.52, 108.41 -0.62 M0 0 C18.07 -0.1, 90.34 -0.52, 108.41 -0.62" stroke="#c92a2a" stroke-width="1" fill="none"></path></g><g transform="translate(110.10262784090912 306.51064842690204) rotate(0 54.20454545454538 -0.3123392110152565)"><path d="M84.97 8.06 C90.35 6.07, 95.73 4.07, 108.41 -0.62 M84.97 8.06 C92.6 5.23, 100.24 2.4, 108.41 -0.62" stroke="#c92a2a" stroke-width="1" fill="none"></path></g><g transform="translate(110.10262784090912 306.51064842690204) rotate(0 54.20454545454538 -0.3123392110152565)"><path d="M84.87 -9.04 C90.27 -7.11, 95.67 -5.18, 108.41 -0.62 M84.87 -9.04 C92.54 -6.3, 100.2 -3.56, 108.41 -0.62" stroke="#c92a2a" stroke-width="1" fill="none"></path></g></g><mask></mask><g stroke-linecap="round"><g transform="translate(252.23899147727252 302.1228693181818) rotate(0 133.59090909090924 0)"><path d="M0 0 C44.53 0, 222.65 0, 267.18 0 M0 0 C44.53 0, 222.65 0, 267.18 0" stroke="#c92a2a" stroke-width="1" fill="none"></path></g><g transform="translate(252.23899147727252 302.1228693181818) rotate(0 133.59090909090924 0)"><path d="M243.69 8.55 C249.66 6.38, 255.63 4.21, 267.18 0 M243.69 8.55 C248.95 6.63, 254.22 4.72, 267.18 0" stroke="#c92a2a" stroke-width="1" fill="none"></path></g><g transform="translate(252.23899147727252 302.1228693181818) rotate(0 133.59090909090924 0)"><path d="M243.69 -8.55 C249.66 -6.38, 255.63 -4.21, 267.18 0 M243.69 -8.55 C248.95 -6.63, 254.22 -4.72, 267.18 0" stroke="#c92a2a" stroke-width="1" fill="none"></path></g></g><mask></mask><g stroke-linecap="round"><g transform="translate(697.3595534150567 345.8803267045455) rotate(0 -277.6057355143466 81.75763494318178)"><path d="M0 0 C-1.47 7.71, -8.74 18.99, -8.85 46.24 C-8.96 73.5, 36.46 145.64, -0.67 163.52 C-37.79 181.39, -153.54 155.48, -231.58 153.52 C-309.61 151.55, -414.91 155.33, -468.85 151.7 C-522.79 148.06, -540.82 135.03, -555.21 131.7 M0 0 C-1.47 7.71, -8.74 18.99, -8.85 46.24 C-8.96 73.5, 36.46 145.64, -0.67 163.52 C-37.79 181.39, -153.54 155.48, -231.58 153.52 C-309.61 151.55, -414.91 155.33, -468.85 151.7 C-522.79 148.06, -540.82 135.03, -555.21 131.7" stroke="#c92a2a" stroke-width="1" fill="none"></path></g><g transform="translate(697.3595534150567 345.8803267045455) rotate(0 -277.6057355143466 81.75763494318178)"><path d="M-530.22 131.27 C-535.52 131.36, -540.83 131.45, -555.21 131.7 M-530.22 131.27 C-535.44 131.36, -540.66 131.45, -555.21 131.7" stroke="#c92a2a" stroke-width="1" fill="none"></path></g><g transform="translate(697.3595534150567 345.8803267045455) rotate(0 -277.6057355143466 81.75763494318178)"><path d="M-535.79 147.43 C-539.91 144.09, -544.03 140.75, -555.21 131.7 M-535.79 147.43 C-539.85 144.15, -543.9 140.86, -555.21 131.7" stroke="#c92a2a" stroke-width="1" fill="none"></path></g></g><mask></mask><g stroke-linecap="round" transform="translate(223.0571732954544 253.94105113636368) rotate(0 15 44.54545454545453)"><path d="M2 1.74 C2 1.74, 2 1.74, 2 1.74 M2 1.74 C2 1.74, 2 1.74, 2 1.74 M0.42 9.64 C2.98 6.7, 5.53 3.76, 8.3 0.59 M0.42 9.64 C3.05 6.63, 5.67 3.61, 8.3 0.59 M0.82 15.29 C3.65 12.03, 6.48 8.77, 13.28 0.95 M0.82 15.29 C4.17 11.43, 7.53 7.57, 13.28 0.95 M0.56 21.68 C7.41 13.8, 14.26 5.92, 18.93 0.55 M0.56 21.68 C4.96 16.62, 9.36 11.55, 18.93 0.55 M0.95 27.33 C7.15 20.19, 13.35 13.06, 23.91 0.91 M0.95 27.33 C9.11 17.94, 17.26 8.56, 23.91 0.91 M0.69 33.72 C7.66 25.7, 14.64 17.68, 28.24 2.03 M0.69 33.72 C10.64 22.28, 20.59 10.83, 28.24 2.03 M0.43 40.12 C11.8 27.04, 23.16 13.97, 29.95 6.16 M0.43 40.12 C8.83 30.46, 17.23 20.79, 29.95 6.16 M0.82 45.77 C8.54 36.89, 16.26 28.01, 30.34 11.8 M0.82 45.77 C12.1 32.79, 23.38 19.82, 30.34 11.8 M0.56 52.16 C9.79 41.54, 19.03 30.92, 30.08 18.2 M0.56 52.16 C11.93 39.08, 23.3 26.01, 30.08 18.2 M0.96 57.81 C6.96 50.9, 12.97 43.99, 29.82 24.6 M0.96 57.81 C8.12 49.56, 15.29 41.32, 29.82 24.6 M0.69 64.2 C11.26 52.05, 21.82 39.9, 30.22 30.24 M0.69 64.2 C12.36 50.78, 24.03 37.36, 30.22 30.24 M1.09 69.85 C10.25 59.31, 19.4 48.78, 29.96 36.64 M1.09 69.85 C8.77 61.01, 16.46 52.16, 29.96 36.64 M0.83 76.24 C9.36 66.43, 17.9 56.61, 30.35 42.28 M0.83 76.24 C11.59 63.86, 22.36 51.48, 30.35 42.28 M1.22 81.89 C10.67 71.02, 20.11 60.15, 30.09 48.68 M1.22 81.89 C7.1 75.12, 12.98 68.36, 30.09 48.68 M1.62 87.53 C8.53 79.58, 15.44 71.63, 30.48 54.32 M1.62 87.53 C11.83 75.78, 22.04 64.03, 30.48 54.32 M5.95 88.65 C15.43 77.74, 24.91 66.84, 30.22 60.72 M5.95 88.65 C15.39 77.78, 24.83 66.92, 30.22 60.72 M10.93 89.01 C14.98 84.35, 19.03 79.69, 30.62 66.36 M10.93 89.01 C17.51 81.44, 24.09 73.87, 30.62 66.36 M16.58 88.61 C21.72 82.69, 26.87 76.78, 30.35 72.76 M16.58 88.61 C19.49 85.26, 22.41 81.9, 30.35 72.76 M21.56 88.97 C24.77 85.29, 27.97 81.6, 30.75 78.41 M21.56 88.97 C24.21 85.93, 26.86 82.88, 30.75 78.41 M2.15 87.46 C2.15 87.46, 2.15 87.46, 2.15 87.46 M2.15 87.46 C2.15 87.46, 2.15 87.46, 2.15 87.46 M9.3 88.37 C6.64 86.06, 3.98 83.75, 0.25 80.5 M9.3 88.37 C6.5 85.94, 3.7 83.5, 0.25 80.5 M14.95 87.98 C10.15 83.81, 5.36 79.65, 0.61 75.51 M14.95 87.98 C11.63 85.09, 8.31 82.21, 0.61 75.51 M21.34 88.24 C16.49 84.02, 11.63 79.8, 0.21 69.87 M21.34 88.24 C14.97 82.7, 8.6 77.16, 0.21 69.87 M26.99 87.85 C18.66 80.61, 10.33 73.37, 0.57 64.88 M26.99 87.85 C21.39 82.98, 15.79 78.11, 0.57 64.88 M29.61 84.83 C23.43 79.45, 17.25 74.08, 0.18 59.24 M29.61 84.83 C21.36 77.65, 13.11 70.48, 0.18 59.24 M29.97 79.84 C23.43 74.15, 16.89 68.46, 0.54 54.25 M29.97 79.84 C18.29 69.68, 6.6 59.52, 0.54 54.25 M30.33 74.85 C22.74 68.25, 15.14 61.65, 0.14 48.61 M30.33 74.85 C22.13 67.72, 13.93 60.59, 0.14 48.61 M29.94 69.21 C18.4 59.18, 6.85 49.14, 0.5 43.62 M29.94 69.21 C18.74 59.47, 7.53 49.74, 0.5 43.62 M30.3 64.22 C23.18 58.04, 16.06 51.85, 0.11 37.98 M30.3 64.22 C23.87 58.64, 17.45 53.06, 0.11 37.98 M29.9 58.58 C21.8 51.53, 13.69 44.48, 0.47 32.99 M29.9 58.58 C23.5 53.01, 17.09 47.44, 0.47 32.99 M30.26 53.59 C23.99 48.14, 17.71 42.68, 0.07 27.35 M30.26 53.59 C22.67 46.99, 15.08 40.39, 0.07 27.35 M29.87 47.95 C19.94 39.32, 10.02 30.69, 0.43 22.36 M29.87 47.95 C20.32 39.65, 10.77 31.35, 0.43 22.36 M30.23 42.96 C21.85 35.68, 13.47 28.4, 0.04 16.72 M30.23 42.96 C22.77 36.48, 15.32 30, 0.04 16.72 M29.83 37.32 C19.35 28.2, 8.86 19.08, 0.4 11.73 M29.83 37.32 C18.72 27.66, 7.61 18, 0.4 11.73 M30.19 32.33 C20.6 23.99, 11 15.65, 0.01 6.09 M30.19 32.33 C22.07 25.27, 13.95 18.22, 0.01 6.09 M29.8 26.69 C20.7 18.78, 11.6 10.87, 1.88 2.42 M29.8 26.69 C23.79 21.47, 17.78 16.24, 1.88 2.42 M30.16 21.7 C23.32 15.76, 16.48 9.81, 4.5 -0.6 M30.16 21.7 C22.5 15.05, 14.85 8.39, 4.5 -0.6 M29.77 16.06 C23.11 10.28, 16.46 4.49, 10.9 -0.34 M29.77 16.06 C23.43 10.55, 17.09 5.04, 10.9 -0.34 M30.13 11.07 C27.24 8.56, 24.34 6.05, 17.3 -0.08 M30.13 11.07 C25.93 7.43, 21.73 3.78, 17.3 -0.08 M29.73 5.43 C27.57 3.55, 25.41 1.67, 23.69 0.18 M29.73 5.43 C27.32 3.33, 24.91 1.23, 23.69 0.18" stroke="#fd7e14" stroke-width="0.5" fill="none"></path><path d="M7.5 0 C11.35 0, 15.2 0, 22.5 0 M7.5 0 C10.86 0, 14.23 0, 22.5 0 M22.5 0 C27.5 0, 30 2.5, 30 7.5 M22.5 0 C27.5 0, 30 2.5, 30 7.5 M30 7.5 C30 32.48, 30 57.47, 30 81.59 M30 7.5 C30 37.02, 30 66.54, 30 81.59 M30 81.59 C30 86.59, 27.5 89.09, 22.5 89.09 M30 81.59 C30 86.59, 27.5 89.09, 22.5 89.09 M22.5 89.09 C16.69 89.09, 10.88 89.09, 7.5 89.09 M22.5 89.09 C16.93 89.09, 11.35 89.09, 7.5 89.09 M7.5 89.09 C2.5 89.09, 0 86.59, 0 81.59 M7.5 89.09 C2.5 89.09, 0 86.59, 0 81.59 M0 81.59 C0 55.32, 0 29.05, 0 7.5 M0 81.59 C0 54.24, 0 26.89, 0 7.5 M0 7.5 C0 2.5, 2.5 0, 7.5 0 M0 7.5 C0 2.5, 2.5 0, 7.5 0" stroke="#c92a2a" stroke-width="1" fill="none"></path></g><g transform="translate(210.88364887945897 177.344012057886) rotate(269.66559027568536 43.071998596191406 20)"><text x="43.071998596191406" y="0" font-family="Virgil, Segoe UI Emoji" font-size="16px" fill="#c92a2a" text-anchor="middle" style="white-space: pre;" direction="ltr" dominant-baseline="text-before-edge">PrivateLink</text><text x="43.071998596191406" y="20" font-family="Virgil, Segoe UI Emoji" font-size="16px" fill="#c92a2a" text-anchor="middle" style="white-space: pre;" direction="ltr" dominant-baseline="text-before-edge">Endpoint</text></g><g stroke-linecap="round" transform="translate(151.23899147727263 378.4865056818182) rotate(0 30.909090909090878 10.454545454545439)"><path d="M1.39 1.21 C1.39 1.21, 1.39 1.21, 1.39 1.21 M1.39 1.21 C1.39 1.21, 1.39 1.21, 1.39 1.21 M0.47 8.36 C3.01 5.44, 5.55 2.52, 7.03 0.81 M0.47 8.36 C2.14 6.45, 3.8 4.53, 7.03 0.81 M0.21 14.76 C4.38 9.96, 8.55 5.16, 12.68 0.42 M0.21 14.76 C3.62 10.83, 7.04 6.91, 12.68 0.42 M1.92 18.89 C5.39 14.9, 8.86 10.91, 17.66 0.78 M1.92 18.89 C6.27 13.89, 10.62 8.89, 17.66 0.78 M5.59 20.76 C9.95 15.75, 14.3 10.74, 23.31 0.39 M5.59 20.76 C9.52 16.25, 13.44 11.74, 23.31 0.39 M11.24 20.37 C17.01 13.73, 22.77 7.1, 28.29 0.75 M11.24 20.37 C15.64 15.31, 20.04 10.24, 28.29 0.75 M16.22 20.73 C21.29 14.9, 26.36 9.07, 33.28 1.11 M16.22 20.73 C20.08 16.29, 23.94 11.85, 33.28 1.11 M21.21 21.09 C25.49 16.16, 29.77 11.24, 38.92 0.71 M21.21 21.09 C25.83 15.78, 30.45 10.47, 38.92 0.71 M26.85 20.69 C32.95 13.68, 39.05 6.67, 43.91 1.07 M26.85 20.69 C31.87 14.92, 36.89 9.15, 43.91 1.07 M31.84 21.05 C37.92 14.07, 43.99 7.08, 49.55 0.68 M31.84 21.05 C36.45 15.75, 41.06 10.45, 49.55 0.68 M37.48 20.66 C43.57 13.66, 49.66 6.66, 54.54 1.04 M37.48 20.66 C44.24 12.89, 50.99 5.12, 54.54 1.04 M42.47 21.02 C46.99 15.82, 51.51 10.62, 59.53 1.4 M42.47 21.02 C46.67 16.19, 50.87 11.36, 59.53 1.4 M48.11 20.63 C53.44 14.5, 58.76 8.38, 61.89 4.78 M48.11 20.63 C53.15 14.83, 58.19 9.03, 61.89 4.78 M53.1 20.99 C56.01 17.63, 58.93 14.28, 61.63 11.17 M53.1 20.99 C55.85 17.82, 58.61 14.65, 61.63 11.17 M58.74 20.59 C60.05 19.09, 61.36 17.59, 62.02 16.82 M58.74 20.59 C59.41 19.83, 60.07 19.07, 62.02 16.82 M3.15 20.76 C3.15 20.76, 3.15 20.76, 3.15 20.76 M3.15 20.76 C3.15 20.76, 3.15 20.76, 3.15 20.76 M8.79 20.37 C6.26 18.17, 3.74 15.97, 0.49 13.15 M8.79 20.37 C5.74 17.72, 2.69 15.07, 0.49 13.15 M15.19 20.63 C11.61 17.52, 8.03 14.41, 0.85 8.17 M15.19 20.63 C10.41 16.47, 5.62 12.31, 0.85 8.17 M21.59 20.89 C15.89 15.94, 10.18 10.98, 1.21 3.18 M21.59 20.89 C15.71 15.78, 9.83 10.67, 1.21 3.18 M27.23 20.5 C22.47 16.36, 17.7 12.21, 3.84 0.16 M27.23 20.5 C19.13 13.46, 11.03 6.42, 3.84 0.16 M33.63 20.76 C27.19 15.16, 20.75 9.56, 8.72 -0.89 M33.63 20.76 C27.26 15.22, 20.88 9.68, 8.72 -0.89 M40.03 21.02 C31.12 13.28, 22.21 5.54, 15.12 -0.63 M40.03 21.02 C34.91 16.57, 29.79 12.12, 15.12 -0.63 M45.67 20.63 C39.96 15.66, 34.25 10.7, 21.52 -0.37 M45.67 20.63 C37.84 13.82, 30.01 7.01, 21.52 -0.37 M52.07 20.89 C44.59 14.39, 37.12 7.89, 27.16 -0.76 M52.07 20.89 C44.94 14.7, 37.82 8.5, 27.16 -0.76 M57.71 20.49 C48.77 12.72, 39.84 4.96, 33.56 -0.5 M57.71 20.49 C52.58 16.03, 47.45 11.57, 33.56 -0.5 M61.09 18.13 C54.1 12.05, 47.11 5.98, 39.96 -0.24 M61.09 18.13 C55.26 13.06, 49.43 7.99, 39.96 -0.24 M62.2 13.8 C57.61 9.8, 53.01 5.8, 45.6 -0.63 M62.2 13.8 C58.83 10.87, 55.46 7.93, 45.6 -0.63 M61.81 8.16 C58.28 5.08, 54.74 2.01, 52 -0.37 M61.81 8.16 C59.09 5.79, 56.36 3.42, 52 -0.37" stroke="#fd7e14" stroke-width="0.5" fill="none"></path><path d="M5.23 0 C19.38 0, 33.53 0, 56.59 0 M5.23 0 C18.04 0, 30.85 0, 56.59 0 M56.59 0 C60.08 0, 61.82 1.74, 61.82 5.23 M56.59 0 C60.08 0, 61.82 1.74, 61.82 5.23 M61.82 5.23 C61.82 8.07, 61.82 10.91, 61.82 15.68 M61.82 5.23 C61.82 9.04, 61.82 12.86, 61.82 15.68 M61.82 15.68 C61.82 19.17, 60.08 20.91, 56.59 20.91 M61.82 15.68 C61.82 19.17, 60.08 20.91, 56.59 20.91 M56.59 20.91 C40.91 20.91, 25.22 20.91, 5.23 20.91 M56.59 20.91 C37.94 20.91, 19.3 20.91, 5.23 20.91 M5.23 20.91 C1.74 20.91, 0 19.17, 0 15.68 M5.23 20.91 C1.74 20.91, 0 19.17, 0 15.68 M0 15.68 C0 11.91, 0 8.14, 0 5.23 M0 15.68 C0 12.93, 0 10.18, 0 5.23 M0 5.23 C0 1.74, 1.74 0, 5.23 0 M0 5.23 C0 1.74, 1.74 0, 5.23 0" stroke="#c92a2a" stroke-width="1" fill="none"></path></g><g transform="translate(190.37135731090189 406.66832386363643) rotate(0 34.503997802734375 10)"><text x="34.503997802734375" y="0" font-family="Virgil, Segoe UI Emoji" font-size="16px" fill="#c92a2a" text-anchor="middle" style="white-space: pre;" direction="ltr" dominant-baseline="text-before-edge">Gateway</text></g><g stroke-linecap="round"><g transform="translate(173.01740056818187 59.88625214017736) rotate(0 9.369140625 75.796875)"><path d="M0.78 0.78 C-4.06 11.48, -37.84 38.56, -29.91 63.83 C-21.99 89.1, 34.97 137.68, 48.34 152.4" stroke="#e03131" stroke-width="2.5" fill="none" stroke-dasharray="8 10"></path></g><g transform="translate(173.01740056818187 59.88625214017736) rotate(0 9.369140625 75.796875)"><path d="M25.57 142.08 C32.03 145.48, 36.09 144.92, 48.34 152.4" stroke="#e03131" stroke-width="2.5" fill="none"></path></g><g transform="translate(173.01740056818187 59.88625214017736) rotate(0 9.369140625 75.796875)"><path d="M37.53 129.86 C41.22 136.12, 42.56 138.35, 48.34 152.4" stroke="#e03131" stroke-width="2.5" fill="none"></path></g></g><mask></mask><g stroke-linecap="round"><g transform="translate(541.0213068181819 57.40187714017736) rotate(0 38.677734375 97.193359375)"><path d="M0.06 -0.36 C12.78 10.24, 74.23 31.29, 77.39 63.88 C80.55 96.47, 28.68 173.26, 19 195.19" stroke="#e03131" stroke-width="2.5" fill="none" stroke-dasharray="8 10"></path></g><g transform="translate(541.0213068181819 57.40187714017736) rotate(0 38.677734375 97.193359375)"><path d="M22.8 170.48 C20.78 180.18, 21.87 187.92, 19 195.19" stroke="#e03131" stroke-width="2.5" fill="none"></path></g><g transform="translate(541.0213068181819 57.40187714017736) rotate(0 38.677734375 97.193359375)"><path d="M37.79 178.7 C29.9 185.2, 25.15 189.74, 19 195.19" stroke="#e03131" stroke-width="2.5" fill="none"></path></g></g><mask></mask><g transform="translate(323.327619379217 236.20265839017736) rotate(0 66.3440780639649 138.67909372942293)"><text x="66.34407806396487" y="0" font-family="Virgil, Segoe UI Emoji" font-size="221.8865499670769px" fill="#e03131" text-anchor="middle" style="white-space: pre;" direction="ltr" dominant-baseline="text-before-edge">X</text></g></svg>