<svg version="1.1" xmlns="http://www.w3.org/2000/svg" viewBox="0 0 451.53125 451.53125" width="903.0625" height="903.0625">
  <!-- svg-source:excalidraw -->
  
  <defs>
    <style class="style-fonts">
      @font-face {
        font-family: "Virgil";
        src: url("https://excalidraw.com/Virgil.woff2");
      }
      @font-face {
        font-family: "Cascadia";
        src: url("https://excalidraw.com/Cascadia.woff2");
      }
      @font-face {
        font-family: "Assistant";
        src: url("https://app.excalidraw.com//dist/excalidraw-assets/Assistant-Regular.woff2");
      }
    </style>
    
  </defs>
  <rect x="0" y="0" width="451.53125" height="451.53125" fill="#ffffff"></rect><g stroke-opacity="0.2" fill-opacity="0.2" transform="translate(115.50390625 196.3984375) rotate(336.3127504335142 98.94595336914062 22.5)"><text x="0" y="31.536" font-family="Virgil, Segoe UI Emoji" font-size="36px" fill="#868e96" text-anchor="start" style="white-space: pre;" direction="ltr" dominant-baseline="alphabetic">Placeholder</text></g><g stroke-opacity="0.2" fill-opacity="0.2" stroke-linecap="round" transform="translate(10 10) rotate(0 215.765625 215.765625)"><path d="M32 0 C154.18 0, 276.35 0, 399.53 0 M32 0 C128.65 0, 225.3 0, 399.53 0 M399.53 0 C420.86 0, 431.53 10.67, 431.53 32 M399.53 0 C420.86 0, 431.53 10.67, 431.53 32 M431.53 32 C431.53 153.24, 431.53 274.47, 431.53 399.53 M431.53 32 C431.53 108.83, 431.53 185.67, 431.53 399.53 M431.53 399.53 C431.53 420.86, 420.86 431.53, 399.53 431.53 M431.53 399.53 C431.53 420.86, 420.86 431.53, 399.53 431.53 M399.53 431.53 C312.65 431.53, 225.77 431.53, 32 431.53 M399.53 431.53 C279.28 431.53, 159.04 431.53, 32 431.53 M32 431.53 C10.67 431.53, 0 420.86, 0 399.53 M32 431.53 C10.67 431.53, 0 420.86, 0 399.53 M0 399.53 C0 307.29, 0 215.06, 0 32 M0 399.53 C0 300.77, 0 202.01, 0 32 M0 32 C0 10.67, 10.67 0, 32 0 M0 32 C0 10.67, 10.67 0, 32 0" stroke="#868e96" stroke-width="1" fill="none"></path></g></svg>