<svg version="1.1" xmlns="http://www.w3.org/2000/svg" viewBox="0 0 1064.0252703712108 570.5904017857142" width="2128.0505407424216" height="1141.1808035714284">
  <!-- svg-source:excalidraw -->
  
  <defs>
    <style class="style-fonts">
      @font-face {
        font-family: "Virgil";
        src: url("https://excalidraw.com/Virgil.woff2");
      }
      @font-face {
        font-family: "Cascadia";
        src: url("https://excalidraw.com/Cascadia.woff2");
      }
      @font-face {
        font-family: "Assistant";
        src: url("https://app.excalidraw.com//dist/excalidraw-assets/Assistant-Regular.woff2");
      }
    </style>
    
  </defs>
  <g stroke-linecap="round" transform="translate(331.30431547619145 139.9204799107143) rotate(0 183.05338541666663 119.4075520833333)"><path d="M7.86 8.16 C7.86 8.16, 7.86 8.16, 7.86 8.16 M7.86 8.16 C7.86 8.16, 7.86 8.16, 7.86 8.16 M0.91 40.54 C13.93 27.26, 29.6 10.79, 36.34 -0.21 M0.91 40.54 C7.36 32.21, 15.58 19.95, 36.34 -0.21 M1.18 64.62 C17.45 43.36, 42.74 20.84, 57.6 -0.28 M1.18 64.62 C19.72 38.95, 44.42 14.39, 57.6 -0.28 M0.79 89.46 C19.42 63.65, 39.97 46.22, 78.2 0.41 M0.79 89.46 C22.94 63.73, 43.49 38.43, 78.2 0.41 M1.05 113.54 C16.43 92.43, 40.11 64.22, 99.46 0.34 M1.05 113.54 C31.04 78.37, 61.12 44.52, 99.46 0.34 M0.66 138.38 C26.33 100.68, 62.27 72.3, 120.72 0.27 M0.66 138.38 C36.71 95.82, 75.09 54.66, 120.72 0.27 M0.93 162.46 C34.46 133.46, 57.43 97.83, 141.98 0.2 M0.93 162.46 C50.17 104.24, 97.49 49.25, 141.98 0.2 M0.54 187.3 C57.26 124.36, 111.98 60.98, 163.24 0.13 M0.54 187.3 C60.59 115.9, 121.04 45.23, 163.24 0.13 M0.81 211.38 C44.77 162.07, 81.17 115.41, 184.5 0.06 M0.81 211.38 C37.3 162.75, 80.74 117.52, 184.5 0.06 M7.63 227.91 C63.5 161.98, 119.68 94.81, 205.76 -0.01 M7.63 227.91 C55.54 177.63, 102.86 120.93, 205.76 -0.01 M21.68 236.15 C86.38 159.2, 157.81 82.12, 227.02 -0.08 M21.68 236.15 C101.33 139.56, 184.08 44.7, 227.02 -0.08 M40.31 239.1 C116.64 145.89, 195.23 56.02, 248.28 -0.15 M40.31 239.1 C103.01 169.58, 163.66 101.79, 248.28 -0.15 M61.57 239.03 C139.68 142.11, 226.1 48.39, 269.54 -0.22 M61.57 239.03 C140.3 143.89, 222.33 50.67, 269.54 -0.22 M82.83 238.96 C131.97 182.22, 183.78 122.57, 290.8 -0.28 M82.83 238.96 C149.4 166.08, 214.75 89.39, 290.8 -0.28 M104.09 238.89 C164.06 172.11, 226.25 101.69, 311.41 0.4 M104.09 238.89 C157.9 180.72, 208.54 121.77, 311.41 0.4 M125.35 238.82 C176.4 185.46, 223.18 135.93, 332.67 0.33 M125.35 238.82 C205.11 145.25, 284.93 50.57, 332.67 0.33 M146.61 238.75 C195.57 180.16, 244.76 124.38, 350.65 4.04 M146.61 238.75 C197.67 180.97, 248.36 124.92, 350.65 4.04 M167.22 239.44 C219.28 180.35, 263.84 122.85, 362.07 15.29 M167.22 239.44 C239.56 156.62, 313.3 71.43, 362.07 15.29 M188.48 239.37 C246.63 180.1, 299.68 115.34, 366.93 34.09 M188.48 239.37 C257.24 160.2, 324.74 80.93, 366.93 34.09 M209.74 239.3 C258.99 177.76, 312.23 119.38, 366.54 58.92 M209.74 239.3 C248.76 199.66, 284.01 160.4, 366.54 58.92 M231 239.23 C264.61 197.83, 303.24 157.5, 366.8 83 M231 239.23 C275.4 185.45, 322.09 134.69, 366.8 83 M252.26 239.16 C285.22 204.52, 316.65 163.42, 367.07 107.09 M252.26 239.16 C281.17 208.61, 308.14 173.14, 367.07 107.09 M273.52 239.09 C311.08 200.55, 344.44 154.27, 366.68 131.92 M273.52 239.09 C298.08 208.11, 324.55 177.14, 366.68 131.92 M294.78 239.02 C314.27 223.44, 329.48 202.84, 366.95 156 M294.78 239.02 C318.19 211.71, 340.44 186.77, 366.95 156 M316.04 238.95 C324.99 230.71, 335.17 215.2, 366.56 180.84 M316.04 238.95 C327.13 225.85, 340.11 211.84, 366.56 180.84 M337.96 238.13 C351.18 224.33, 360.32 217.9, 366.82 204.92 M337.96 238.13 C348.66 228.37, 357.14 215.48, 366.82 204.92" stroke="#e9ecef" stroke-width="2" fill="none"></path><path d="M32 0 C98.95 -0.4, 157.88 1.63, 334.11 0 M32 0 C129.12 -2.69, 226.56 -3.14, 334.11 0 M334.11 0 C352.81 -3.06, 369.09 11.71, 366.11 32 M334.11 0 C352.74 -3.59, 370.53 7.04, 366.11 32 M366.11 32 C364.62 74.38, 364.15 122.06, 366.11 206.82 M366.11 32 C369.51 82.76, 369.99 137.04, 366.11 206.82 M366.11 206.82 C362.62 227.93, 356.53 235.79, 334.11 238.82 M366.11 206.82 C368.78 227.19, 359.53 236.75, 334.11 238.82 M334.11 238.82 C252.38 232.39, 173.78 235.73, 32 238.82 M334.11 238.82 C256.03 236.51, 175.73 237.34, 32 238.82 M32 238.82 C11.45 240.14, -2.66 231.45, 0 206.82 M32 238.82 C11.01 242.1, -2.35 229.47, 0 206.82 M0 206.82 C4.2 151.57, -0.97 85.96, 0 32 M0 206.82 C-0.71 166.66, 2.07 130.71, 0 32 M0 32 C2.68 12.57, 9.12 -0.05, 32 0 M0 32 C-2.48 6.18, 8.68 3.11, 32 0" stroke="#868e96" stroke-width="4" fill="none"></path></g><g transform="translate(10 19.054656498016755) rotate(0 174.761962890625 22.5)"><text x="0" y="31.536" font-family="Virgil, Segoe UI Emoji" font-size="36px" fill="#4dabf7" text-anchor="start" style="white-space: pre;" direction="ltr" dominant-baseline="alphabetic">Your SaaS platform</text></g><g stroke-linecap="round" transform="translate(402.8319382440482 207.4641927083333) rotate(0 45.93191964285714 45.93191964285714)"><path d="M57.5 11.5 C62.13 21.51, 72.25 23.39, 80.36 34.5 C94.05 45.44, 92.94 47.43, 80.36 57.5 C72.51 61.3, 70.68 66.3, 57.5 80.36 C49.23 94.5, 48.99 92.86, 34.5 80.36 C25.36 73.82, 23.11 64.61, 11.5 57.5 C-3.52 42.67, 1.95 45.52, 11.5 34.5 C17 32.75, 20.82 27.91, 34.5 11.5 C48.25 -2.94, 43.95 -1.33, 57.5 11.5" stroke="none" stroke-width="0" fill="#e7f5ff"></path><path d="M57.5 11.5 C64.78 17.7, 71.69 26.39, 80.36 34.5 M57.5 11.5 C63.36 17.71, 68.66 24.69, 80.36 34.5 M80.36 34.5 C90.52 47.18, 92.81 47.94, 80.36 57.5 M80.36 34.5 C92.89 46.02, 90.95 46.03, 80.36 57.5 M80.36 57.5 C72.44 64.45, 66.02 69.16, 57.5 80.36 M80.36 57.5 C75.02 64.55, 67.79 68.64, 57.5 80.36 M57.5 80.36 C46.88 92.98, 44.32 90.66, 34.5 80.36 M57.5 80.36 C45.2 90.78, 43.92 89.79, 34.5 80.36 M34.5 80.36 C30.08 75.46, 24.02 68.96, 11.5 57.5 M34.5 80.36 C28.71 74.2, 21.13 68.29, 11.5 57.5 M11.5 57.5 C-0.34 44.04, 0.43 47.98, 11.5 34.5 M11.5 57.5 C1.84 46.65, 0.14 45.82, 11.5 34.5 M11.5 34.5 C17.14 28.83, 23.94 19.49, 34.5 11.5 M11.5 34.5 C18.43 27.59, 23.86 22.54, 34.5 11.5 M34.5 11.5 C45.02 1.49, 47.54 -0.64, 57.5 11.5 M34.5 11.5 C46.68 -0.63, 44.47 1.86, 57.5 11.5" stroke="#1971c2" stroke-width="2" fill="none"></path></g><g stroke-linecap="round" transform="translate(543.3481212797628 215.44642857142856) rotate(0 38.62723214285711 38.62723214285711)"><path d="M29.93 1.46 C36.85 -0.64, 46.81 0.67, 53.73 3.54 C60.66 6.41, 67.73 12.2, 71.48 18.68 C75.23 25.17, 76.78 34.79, 76.23 42.42 C75.67 50.05, 72.75 58.8, 68.15 64.47 C63.54 70.14, 56.12 74.8, 48.6 76.44 C41.08 78.09, 30.26 77.3, 23.02 74.32 C15.79 71.34, 9.03 65.1, 5.18 58.58 C1.33 52.07, -0.84 42.69, -0.08 35.23 C0.68 27.77, 3.85 19.61, 9.73 13.81 C15.62 8.02, 30.07 2.55, 35.23 0.45 C40.38 -1.64, 40.63 0.49, 40.64 1.25 M19.04 4.68 C25.18 0.71, 35.74 0.03, 43.5 0.86 C51.26 1.69, 60.12 4.27, 65.6 9.65 C71.08 15.03, 74.99 25.29, 76.38 33.15 C77.76 41.01, 77.24 50.03, 73.93 56.81 C70.61 63.59, 63.33 70.73, 56.5 73.84 C49.66 76.94, 40.39 76.8, 32.92 75.46 C25.45 74.12, 17.26 70.65, 11.65 65.77 C6.04 60.9, 0.58 53.28, -0.74 46.21 C-2.07 39.13, 0.3 30.26, 3.68 23.32 C7.07 16.39, 16.68 7.45, 19.55 4.6 C22.42 1.76, 20.34 5.84, 20.91 6.25" stroke="none" stroke-width="0" fill="#ffec99"></path><path d="M51.92 2.3 C58.83 4.48, 67.83 11.09, 71.89 17.6 C75.95 24.1, 76.71 33.66, 76.27 41.31 C75.84 48.95, 73.74 57.67, 69.28 63.47 C64.83 69.27, 57.08 74.22, 49.55 76.11 C42.02 78, 31.41 77.52, 24.09 74.82 C16.77 72.13, 9.59 66.3, 5.62 59.93 C1.65 53.56, -0.31 44.26, 0.28 36.61 C0.87 28.95, 4.45 19.74, 9.17 14 C13.9 8.25, 20.51 3.63, 28.63 2.12 C36.75 0.61, 52.21 3.57, 57.9 4.94 C63.6 6.31, 63.19 9.77, 62.82 10.34 M44.84 1.63 C52.09 2.34, 62.54 6.4, 67.86 11.71 C73.19 17.02, 76.13 25.83, 76.8 33.47 C77.47 41.1, 75.69 50.79, 71.88 57.51 C68.07 64.22, 60.39 70.8, 53.94 73.75 C47.5 76.71, 40.42 76.64, 33.22 75.21 C26.02 73.79, 16.4 70.55, 10.77 65.21 C5.13 59.87, 0.43 50.73, -0.59 43.16 C-1.61 35.6, 1.12 26.61, 4.62 19.82 C8.12 13.02, 13.37 5.35, 20.42 2.37 C27.46 -0.61, 42.79 2.35, 46.89 1.94 C50.98 1.52, 45.19 -0.78, 44.98 -0.12" stroke="#f08c00" stroke-width="2" fill="none"></path></g><g stroke-linecap="round"><g transform="translate(174.26329985119145 74.51450892857139) rotate(0 114.41838036082137 88.59963376572998)"><path d="M0 0 C11.68 21.33, 31.93 98.44, 70.07 127.97 C108.21 157.5, 202.38 168.99, 228.84 177.2" stroke="#1971c2" stroke-width="2.5" fill="none" stroke-dasharray="8 10"></path></g><g transform="translate(174.26329985119145 74.51450892857139) rotate(0 114.41838036082137 88.59963376572998)"><path d="M204.04 180.41 C211.32 179.47, 218.61 178.53, 228.84 177.2" stroke="#1971c2" stroke-width="2.5" fill="none"></path></g><g transform="translate(174.26329985119145 74.51450892857139) rotate(0 114.41838036082137 88.59963376572998)"><path d="M207.78 163.73 C213.96 167.68, 220.15 171.64, 228.84 177.2" stroke="#1971c2" stroke-width="2.5" fill="none"></path></g></g><mask></mask><g transform="translate(709.6244361514143 10) rotate(0 169.2359619140625 22.5)"><text x="169.2359619140625" y="31.536" font-family="Virgil, Segoe UI Emoji" font-size="36px" fill="#f08c00" text-anchor="middle" style="white-space: pre;" direction="ltr" dominant-baseline="alphabetic">Any customer data</text></g><g stroke-linecap="round"><g transform="translate(880.6528087797628 65.49107142857139) rotate(0 -124.03203280145857 95.01116071428572)"><path d="M0 0 C-3.57 24.84, 20.56 117.39, -21.4 149.06 C-63.36 180.73, -213.38 183.19, -251.78 190.02" stroke="#f08c00" stroke-width="2.5" fill="none" stroke-dasharray="8 10"></path></g><g transform="translate(880.6528087797628 65.49107142857139) rotate(0 -124.03203280145857 95.01116071428572)"><path d="M-229.25 179.18 C-236.85 182.84, -244.45 186.49, -251.78 190.02" stroke="#f08c00" stroke-width="2.5" fill="none"></path></g><g transform="translate(880.6528087797628 65.49107142857139) rotate(0 -124.03203280145857 95.01116071428572)"><path d="M-227.55 196.19 C-235.73 194.11, -243.9 192.03, -251.78 190.02" stroke="#f08c00" stroke-width="2.5" fill="none"></path></g></g><mask></mask><g stroke-linecap="round"><g transform="translate(489.74925163633594 247.13302914539082) rotate(0 23.438580903871696 3.6115753249396505)"><path d="M-0.16 2.51 C3.9 1.93, 17.17 -4.22, 25.63 -3.34 C34.08 -2.46, 46.14 5.65, 50.57 7.78 M-3.69 1.4 C1.17 1.1, 22.47 -2.39, 31.09 -0.85 C39.71 0.69, 44.4 9.84, 48.03 10.65" stroke="#2f9e44" stroke-width="4" fill="none"></path></g></g><mask></mask><g transform="translate(334.63329496837895 515.5904017857142) rotate(0 157.7159423828125 22.5)"><text x="157.7159423828125" y="31.536" font-family="Virgil, Segoe UI Emoji" font-size="36px" fill="#868e96" text-anchor="middle" style="white-space: pre;" direction="ltr" dominant-baseline="alphabetic">Virtually Adjacent</text></g><g stroke-linecap="round"><g transform="translate(425.17736235119145 505.8091517857143) rotate(0 -13.01055955063714 -102.30319364033639)"><path d="M-2.2 0.84 C-6.91 -11.22, -30.77 -38.93, -29.77 -73.31 C-28.78 -107.69, -2.13 -183.38, 3.78 -205.44" stroke="#868e96" stroke-width="4.5" fill="none" stroke-dasharray="8 12"></path></g><g transform="translate(425.17736235119145 505.8091517857143) rotate(0 -13.01055955063714 -102.30319364033639)"><path d="M5.73 -180.19 C5.63 -188.49, 5.93 -193.27, 4.98 -205.18" stroke="#868e96" stroke-width="4.5" fill="none"></path></g><g transform="translate(425.17736235119145 505.8091517857143) rotate(0 -13.01055955063714 -102.30319364033639)"><path d="M-10.64 -185.16 C-6.73 -192.11, -2.41 -195.67, 4.98 -205.18" stroke="#868e96" stroke-width="4.5" fill="none"></path></g></g><mask></mask><g stroke-linecap="round"><g transform="translate(564.3336123511915 510.5747767857143) rotate(0 18.749713425967798 -105.70947815813125)"><path d="M-0.58 1.85 C5.29 -12.62, 32.14 -52.51, 36.95 -88.37 C41.76 -124.22, 29.74 -191.71, 28.27 -213.27" stroke="#868e96" stroke-width="4.5" fill="none" stroke-dasharray="8 12"></path></g><g transform="translate(564.3336123511915 510.5747767857143) rotate(0 18.749713425967798 -105.70947815813125)"><path d="M40.78 -192.85 C33.64 -199.37, 33.39 -207.59, 27.01 -211.75" stroke="#868e96" stroke-width="4.5" fill="none"></path></g><g transform="translate(564.3336123511915 510.5747767857143) rotate(0 18.749713425967798 -105.70947815813125)"><path d="M23.79 -190.89 C22.83 -198.08, 28.74 -207.02, 27.01 -211.75" stroke="#868e96" stroke-width="4.5" fill="none"></path></g></g><mask></mask><g transform="translate(823.5013293311717 395.5669642857143) rotate(0 115.26197052001953 70)"><text x="115.26197052001953" y="24.528" font-family="Virgil, Segoe UI Emoji" font-size="28px" fill="#868e96" text-anchor="middle" style="white-space: pre;" direction="ltr" dominant-baseline="alphabetic">All accessible as</text><text x="115.26197052001953" y="59.528" font-family="Virgil, Segoe UI Emoji" font-size="28px" fill="#868e96" text-anchor="middle" style="white-space: pre;" direction="ltr" dominant-baseline="alphabetic">though it's on a</text><text x="115.26197052001953" y="94.52799999999999" font-family="Virgil, Segoe UI Emoji" font-size="28px" fill="#868e96" text-anchor="middle" style="white-space: pre;" direction="ltr" dominant-baseline="alphabetic">single machine</text><text x="115.26197052001953" y="129.528" font-family="Virgil, Segoe UI Emoji" font-size="28px" fill="#868e96" text-anchor="middle" style="white-space: pre;" direction="ltr" dominant-baseline="alphabetic">via `localhost`</text></g><g stroke-linecap="round"><g transform="translate(808.8023623511913 447.21064005324394) rotate(0 -58.33730241817727 -27.719464936791397)"><path d="M-0.14 1.45 C-8.99 2.6, -32.54 18.39, -51.94 7.05 C-71.34 -4.28, -105.63 -54.8, -116.53 -66.57" stroke="#868e96" stroke-width="4.5" fill="none" stroke-dasharray="8 12"></path></g><g transform="translate(808.8023623511913 447.21064005324394) rotate(0 -58.33730241817727 -27.719464936791397)"><path d="M-94.17 -53.88 C-100.74 -56.88, -110.65 -61.95, -115.22 -66.79" stroke="#868e96" stroke-width="4.5" fill="none"></path></g><g transform="translate(808.8023623511913 447.21064005324394) rotate(0 -58.33730241817727 -27.719464936791397)"><path d="M-107.54 -43.22 C-109.55 -49.87, -114.88 -58.57, -115.22 -66.79" stroke="#868e96" stroke-width="4.5" fill="none"></path></g></g><mask></mask></svg>