<svg width="2560" height="840" viewBox="0 0 2560 840" fill="none" xmlns="http://www.w3.org/2000/svg">
<g clip-path="url(#clip0_6433_17227)">
<g opacity="0.7" filter="url(#filter0_f_6433_17227)">
<rect width="901" height="847" rx="24" transform="matrix(0.87755 0.479485 -0.87755 0.479485 1537.29 716)" fill="url(#paint0_linear_6433_17227)"/>
</g>
<g opacity="0.7" filter="url(#filter1_f_6433_17227)">
<rect width="1163.47" height="1093.73" rx="24" transform="matrix(0.87755 0.479485 -0.87755 0.479485 1268.81 581)" fill="url(#paint1_linear_6433_17227)"/>
</g>
<circle cx="1048.62" cy="454.571" r="283.669" transform="rotate(-60 1048.62 454.571)" stroke="url(#paint2_radial_6433_17227)"/>
<circle cx="284.169" cy="284.169" r="283.669" transform="matrix(-0.5 -0.866025 -0.866025 0.5 1421.8 828.906)" stroke="url(#paint3_radial_6433_17227)"/>
<path d="M764.414 662.333C765.29 662.445 766.033 663.029 766.348 663.853L772.47 679.877C772.76 680.638 772.644 681.494 772.162 682.15L762.726 694.966C762.237 695.631 761.438 695.997 760.615 695.933L743.724 694.623C742.837 694.554 742.061 693.998 741.71 693.179L734.719 676.858C734.386 676.078 734.489 675.18 734.992 674.497L744.865 661.087C745.379 660.388 746.232 660.023 747.093 660.132L764.414 662.333Z" fill="#17293A"/>
<path d="M764.389 662.531C765.192 662.633 765.873 663.169 766.161 663.924L772.284 679.949C772.55 680.646 772.443 681.431 772.001 682.032L762.566 694.848C762.117 695.457 761.385 695.793 760.63 695.734L743.74 694.424C742.926 694.361 742.215 693.851 741.893 693.101L734.903 676.779C734.597 676.065 734.692 675.242 735.153 674.616L745.025 661.205C745.497 660.565 746.279 660.23 747.068 660.33L764.389 662.531Z" stroke="#74DFFF" stroke-opacity="0.5" stroke-width="0.398787"/>
<path d="M754.644 676.887L755.656 678.66L754.08 679.76L753.068 677.987C752.944 677.828 752.77 677.725 752.576 677.697C752.383 677.669 752.185 677.718 752.017 677.835C751.85 677.952 751.724 678.129 751.664 678.334C751.604 678.539 751.613 678.757 751.69 678.95L752.702 680.723L752.062 681.17C751.968 681.229 751.885 681.309 751.82 681.404C751.755 681.499 751.708 681.607 751.682 681.721C751.657 681.835 751.653 681.952 751.671 682.066C751.69 682.179 751.73 682.287 751.789 682.381L752.682 683.946C752.949 684.434 753.305 684.855 753.73 685.185C754.155 685.515 754.639 685.746 755.155 685.865C755.947 686.06 756.787 685.961 757.543 685.584L758.525 687.305C758.576 687.405 758.647 687.491 758.732 687.559C758.816 687.626 758.914 687.673 759.018 687.696C759.122 687.719 759.23 687.719 759.336 687.694C759.441 687.67 759.542 687.622 759.631 687.554C759.725 687.494 759.807 687.415 759.872 687.32C759.938 687.225 759.985 687.117 760.01 687.003C760.036 686.889 760.04 686.772 760.021 686.658C760.003 686.544 759.963 686.437 759.903 686.343L758.951 684.674C759.606 684.04 760.07 683.206 760.276 682.29C760.531 681.142 760.368 679.947 759.821 678.961L758.928 677.396C758.819 677.201 758.641 677.063 758.433 677.012C758.331 676.982 758.222 676.979 758.116 677.002C758.01 677.026 757.909 677.075 757.822 677.148L757.034 677.698L756.022 675.925C755.898 675.765 755.724 675.662 755.531 675.634C755.338 675.607 755.139 675.656 754.971 675.773C754.804 675.89 754.678 676.067 754.618 676.271C754.558 676.476 754.567 676.695 754.644 676.887ZM758.443 679.923C758.768 680.514 758.864 681.229 758.71 681.915C758.556 682.602 758.163 683.207 757.615 683.601L757.418 683.738C756.853 684.12 756.184 684.261 755.545 684.135C754.922 683.985 754.388 683.571 754.061 682.983L753.584 682.149L757.956 679.132L758.443 679.923Z" fill="#74DFFF"/>
<path d="M748.08 667.32C747.986 667.38 747.903 667.46 747.838 667.555C747.773 667.65 747.726 667.757 747.7 667.871C747.675 667.985 747.671 668.103 747.689 668.216C747.708 668.33 747.748 668.437 747.807 668.532L748.819 670.305C748.068 671.007 747.564 671.968 747.397 673.015C747.23 674.061 747.412 675.124 747.91 676.009L748.803 677.573C748.912 677.769 749.09 677.907 749.297 677.957C749.4 677.988 749.509 677.991 749.615 677.968C749.721 677.944 749.822 677.894 749.909 677.822L755.669 673.8C755.763 673.74 755.845 673.66 755.91 673.566C755.976 673.471 756.023 673.363 756.048 673.249C756.074 673.135 756.078 673.018 756.059 672.904C756.041 672.79 756.001 672.683 755.941 672.589L755.088 671.033C754.811 670.547 754.445 670.131 754.012 669.807C753.579 669.483 753.087 669.259 752.566 669.148C751.796 668.978 750.989 669.048 750.237 669.351L749.186 667.569C749.134 667.469 749.064 667.383 748.979 667.316C748.894 667.249 748.797 667.202 748.693 667.178C748.589 667.155 748.48 667.155 748.375 667.18C748.269 667.204 748.169 667.252 748.08 667.32ZM753.67 671.987L754.146 672.821L749.764 675.881L749.328 675.055C749.155 674.766 749.04 674.44 748.988 674.097C748.937 673.753 748.95 673.399 749.027 673.056C749.104 672.713 749.244 672.387 749.438 672.099C749.632 671.81 749.875 671.565 750.155 671.378L750.312 671.231C750.879 670.863 751.545 670.737 752.176 670.878C752.484 670.944 752.775 671.076 753.031 671.266C753.287 671.456 753.504 671.701 753.67 671.987Z" fill="#74DFFF"/>
<circle cx="1280.78" cy="300.144" r="283.644" stroke="url(#paint4_radial_6433_17227)"/>
<circle cx="1280.78" cy="888.432" r="283.644" stroke="url(#paint5_radial_6433_17227)"/>
<path d="M1717.29 513.076C1748.11 530.869 1774.33 553.571 1795.52 579.624C1772.19 614.194 1740.84 644.133 1702.29 666.389C1579.92 737.044 1426.78 706.15 1340.45 599.854C1423.02 477.452 1587.47 438.121 1717.29 513.076ZM1796.11 578.756C1774.87 552.71 1748.63 530.012 1717.79 512.21C1587.6 437.042 1422.71 476.407 1339.79 599.041C1330.66 587.719 1322.29 575.548 1314.79 562.559C1236.46 426.882 1282.95 253.393 1418.62 175.06C1554.3 96.7266 1727.79 143.213 1806.12 278.89C1862.01 375.695 1854.36 491.75 1796.11 578.756ZM1329.79 616.906C1333 611.362 1336.36 605.966 1339.86 600.722C1426.53 707.202 1580.08 738.106 1702.79 667.255C1741.39 644.974 1772.79 615.022 1796.18 580.436C1867.73 669.049 1881.48 796.036 1821.12 900.576C1742.79 1036.25 1569.3 1082.74 1433.62 1004.41C1297.95 926.073 1251.46 752.583 1329.79 616.906Z" stroke="url(#paint6_radial_6433_17227)"/>
<g filter="url(#filter2_f_6433_17227)">
<circle cx="725" cy="971" r="367" fill="url(#paint7_linear_6433_17227)"/>
</g>
<circle cx="1574" cy="759" r="285" fill="url(#paint8_linear_6433_17227)"/>
<g filter="url(#filter3_f_6433_17227)">
<circle cx="1555" cy="337" r="189" fill="url(#paint9_linear_6433_17227)"/>
</g>
<g filter="url(#filter4_f_6433_17227)">
<circle cx="930.893" cy="188.893" r="24.8111" transform="rotate(120 930.893 188.893)" fill="#162535"/>
</g>
<g filter="url(#filter5_f_6433_17227)">
<circle cx="932.893" cy="195.893" r="24.8111" transform="rotate(120 932.893 195.893)" fill="url(#paint10_linear_6433_17227)"/>
</g>
<g filter="url(#filter6_f_6433_17227)">
<circle cx="1864.15" cy="260.152" r="29.3932" transform="rotate(120 1864.15 260.152)" fill="url(#paint11_linear_6433_17227)"/>
</g>
<g filter="url(#filter7_f_6433_17227)">
<circle cx="1897.39" cy="926.394" r="278.468" transform="rotate(120 1897.39 926.394)" fill="url(#paint12_linear_6433_17227)"/>
</g>
<g filter="url(#filter8_f_6433_17227)">
<circle cx="1832.89" cy="503.889" r="35.7889" transform="rotate(120 1832.89 503.889)" fill="#162535"/>
</g>
<g filter="url(#filter9_f_6433_17227)">
<circle cx="1830.89" cy="503.889" r="35.7889" transform="rotate(120 1830.89 503.889)" fill="url(#paint13_linear_6433_17227)"/>
</g>
<path d="M639.101 326.329C639.735 325.715 640.655 325.499 641.495 325.768L657.835 330.992C658.61 331.24 659.206 331.865 659.417 332.652L663.536 348.024C663.75 348.822 663.537 349.674 662.973 350.277L651.403 362.652C650.795 363.302 649.876 363.561 649.017 363.324L631.904 358.593C631.087 358.367 630.45 357.725 630.231 356.906L625.921 340.821C625.696 339.983 625.943 339.088 626.566 338.484L639.101 326.329Z" fill="url(#paint14_linear_6433_17227)"/>
<path d="M639.24 326.472C639.821 325.909 640.664 325.711 641.435 325.958L657.774 331.182C658.485 331.409 659.031 331.982 659.225 332.703L663.343 348.075C663.539 348.807 663.344 349.588 662.827 350.141L651.257 362.516C650.7 363.112 649.857 363.349 649.071 363.132L631.957 358.401C631.208 358.194 630.624 357.605 630.423 356.854L626.113 340.77C625.907 340.001 626.134 339.181 626.705 338.627L639.24 326.472Z" stroke="#74DFFF" stroke-opacity="0.5" stroke-width="0.398787"/>
<path d="M649.284 342.119L653.821 343.947C653.88 343.971 653.888 344.038 653.836 344.075L649.827 346.878M640.501 343.121L636.492 345.925C636.439 345.962 636.447 346.029 636.507 346.053L641.044 347.881M646.226 340.82L644.12 349.12" stroke="#74DFFF" stroke-width="1.8808" stroke-linecap="round"/>
<path d="M1724.08 164.507C1725.11 163.901 1726.38 163.909 1727.4 164.528L1747.21 176.558C1748.15 177.129 1748.74 178.139 1748.77 179.238L1749.31 200.732C1749.34 201.847 1748.79 202.899 1747.86 203.513L1728.75 216.107C1727.74 216.769 1726.46 216.818 1725.4 216.235L1704.42 204.608C1703.42 204.052 1702.79 203.008 1702.76 201.863L1702.19 179.373C1702.16 178.2 1702.76 177.104 1703.77 176.507L1724.08 164.507Z" fill="url(#paint15_linear_6433_17227)"/>
<path d="M1724.22 164.739C1725.16 164.183 1726.33 164.19 1727.26 164.758L1747.07 176.788C1747.93 177.311 1748.47 178.237 1748.5 179.245L1749.04 200.738C1749.07 201.761 1748.57 202.725 1747.71 203.288L1728.6 215.882C1727.68 216.489 1726.5 216.534 1725.53 215.999L1704.55 204.372L1704.42 204.608L1704.55 204.372C1703.63 203.863 1703.05 202.906 1703.03 201.856L1702.45 179.366C1702.43 178.291 1702.98 177.286 1703.91 176.739L1724.22 164.739Z" stroke="#74DFFF" stroke-opacity="0.5" stroke-width="0.538763"/>
<path fill-rule="evenodd" clip-rule="evenodd" d="M1726.5 178.774C1720.42 178.774 1715.5 183.702 1715.5 189.77C1715.5 194.63 1718.66 198.748 1723.02 200.206C1723.57 200.307 1723.77 199.969 1723.77 199.672C1723.77 199.409 1723.77 198.721 1723.76 197.803C1720.7 198.464 1720.05 196.331 1720.05 196.331C1719.55 195.062 1718.83 194.725 1718.83 194.725C1717.83 194.043 1718.91 194.056 1718.91 194.056C1720.01 194.137 1720.59 195.19 1720.59 195.19C1721.57 196.871 1723.17 196.385 1723.79 196.102C1723.89 195.393 1724.18 194.907 1724.49 194.63C1722.04 194.353 1719.48 193.408 1719.48 189.196C1719.48 187.995 1719.9 187.016 1720.61 186.247C1720.5 185.97 1720.12 184.849 1720.72 183.337C1720.72 183.337 1721.65 183.04 1723.75 184.465C1724.62 184.222 1725.56 184.1 1726.5 184.093C1727.43 184.093 1728.38 184.222 1729.25 184.465C1731.35 183.04 1732.28 183.337 1732.28 183.337C1732.88 184.849 1732.5 185.97 1732.39 186.247C1733.09 187.016 1733.51 187.995 1733.51 189.196C1733.51 193.422 1730.94 194.347 1728.49 194.623C1728.88 194.961 1729.24 195.636 1729.24 196.662C1729.24 198.133 1729.23 199.315 1729.23 199.679C1729.23 199.976 1729.42 200.314 1729.98 200.206C1734.35 198.748 1737.5 194.63 1737.5 189.777C1737.5 183.702 1732.57 178.781 1726.5 178.781V178.774Z" fill="#74DFFF"/>
<path d="M628.781 120.468C630.101 120.593 631.245 121.434 631.758 122.657L641.727 146.425C642.201 147.553 642.068 148.845 641.374 149.853L627.826 169.555C627.122 170.578 625.941 171.166 624.701 171.11L599.273 169.96C597.936 169.899 596.744 169.102 596.178 167.89L584.89 143.718C584.35 142.563 584.463 141.209 585.185 140.159L599.362 119.543C600.101 118.468 601.364 117.878 602.662 118.001L628.781 120.468Z" fill="#0F1924"/>
<path d="M628.753 120.766C629.963 120.881 631.012 121.652 631.482 122.773L641.451 146.541C641.885 147.575 641.763 148.759 641.128 149.683L627.579 169.386C626.934 170.323 625.851 170.862 624.714 170.811L599.286 169.661C598.061 169.605 596.968 168.874 596.449 167.763L585.161 143.591C584.667 142.532 584.77 141.291 585.432 140.329L599.609 119.713C600.286 118.728 601.444 118.187 602.634 118.299L628.753 120.766Z" stroke="#74DFFF" stroke-opacity="0.7" stroke-width="0.599189"/>
<g clip-path="url(#clip1_6433_17227)">
<path d="M622.249 146.522C623.682 143.528 622.862 139.857 620.115 137.796C617.934 136.159 615.111 135.975 612.808 137.079C611.609 136.366 610.189 136.122 608.821 136.393C607.452 136.664 606.233 137.431 605.396 138.547C603.521 141.045 604.028 144.599 606.526 146.473L616.337 153.835C618.42 155.398 621.379 154.976 622.942 152.893C624.437 150.901 624.102 148.125 622.249 146.522Z" fill="#74DFFF"/>
</g>
<path d="M1682.91 629.205C1683.49 628.009 1684.67 627.224 1685.99 627.164L1711.74 625.998C1712.96 625.942 1714.13 626.512 1714.84 627.51L1728.66 647.02C1729.38 648.033 1729.53 649.344 1729.05 650.489L1719.2 673.963C1718.68 675.197 1717.53 676.041 1716.19 676.155L1689.61 678.42C1688.34 678.528 1687.11 677.956 1686.37 676.916L1671.91 656.502C1671.15 655.438 1671.03 654.049 1671.59 652.873L1682.91 629.205Z" fill="#234B59"/>
<path d="M1683.18 629.334C1683.71 628.238 1684.79 627.519 1686.01 627.464L1711.76 626.297C1712.88 626.246 1713.94 626.769 1714.59 627.684L1728.42 647.193C1729.08 648.121 1729.21 649.324 1728.77 650.373L1718.93 673.847C1718.45 674.978 1717.39 675.752 1716.17 675.856L1689.59 678.121C1688.42 678.22 1687.29 677.696 1686.62 676.743L1672.15 656.329C1671.46 655.354 1671.35 654.08 1671.87 653.002L1683.18 629.334Z" stroke="#74DFFF" stroke-opacity="0.7" stroke-width="0.599189"/>
<path d="M1705.38 640.695C1704.84 640.281 1704.16 640.041 1703.41 639.928C1702.29 639.76 1700.97 639.873 1699.56 640.227C1698.15 640.582 1696.65 641.183 1695.16 642.022C1692.89 643.302 1691.07 644.891 1689.93 646.487C1689.37 647.287 1688.97 648.092 1688.79 648.888C1688.7 649.286 1688.67 649.683 1688.71 650.071C1688.75 650.459 1688.87 650.837 1689.06 651.181L1695.93 663.392C1696.12 663.737 1696.39 664.031 1696.7 664.266C1697.24 664.68 1697.92 664.92 1698.67 665.033C1699.8 665.201 1701.11 665.088 1702.52 664.734C1703.93 664.379 1705.43 663.778 1706.92 662.939C1709.2 661.659 1711.01 660.071 1712.15 658.474C1712.71 657.674 1713.11 656.87 1713.29 656.073C1713.38 655.676 1713.41 655.279 1713.37 654.89C1713.33 654.503 1713.21 654.124 1713.02 653.78L1706.15 641.569C1705.96 641.225 1705.69 640.931 1705.38 640.695ZM1711.84 654.443C1711.94 654.618 1712 654.81 1712.02 655.031C1712.06 655.417 1711.98 655.902 1711.75 656.449C1711.41 657.271 1710.74 658.218 1709.8 659.143C1708.86 660.069 1707.65 660.978 1706.26 661.761C1704.14 662.956 1701.99 663.62 1700.3 663.737C1699.45 663.798 1698.73 663.72 1698.19 663.534C1697.92 663.442 1697.69 663.325 1697.52 663.19C1697.34 663.055 1697.21 662.904 1697.11 662.729L1695.98 660.713C1697.01 660.952 1698.24 660.911 1699.6 660.635C1701.15 660.315 1702.86 659.672 1704.55 658.722C1706.8 657.453 1708.61 655.877 1709.72 654.307C1710.17 653.674 1710.5 653.042 1710.7 652.421L1711.84 654.443L1711.84 654.443ZM1709.9 651.001C1709.92 651.228 1709.9 651.476 1709.84 651.749C1709.65 652.631 1709.02 653.716 1708.02 654.79C1707.02 655.866 1705.66 656.936 1704.05 657.838C1701.92 659.043 1699.75 659.716 1698.02 659.836C1697.16 659.897 1696.41 659.819 1695.84 659.624C1695.58 659.533 1695.36 659.42 1695.17 659.288L1693.69 656.643C1694.72 656.882 1695.95 656.841 1697.31 656.565C1698.86 656.244 1700.57 655.602 1702.26 654.652C1704.51 653.383 1706.32 651.806 1707.43 650.236C1707.88 649.604 1708.21 648.972 1708.41 648.35L1709.9 651.001ZM1707.61 646.931C1707.63 647.158 1707.61 647.406 1707.55 647.678C1707.36 648.56 1706.73 649.646 1705.73 650.719C1704.73 651.795 1703.37 652.865 1701.76 653.767C1699.63 654.972 1697.46 655.645 1695.73 655.765C1694.87 655.827 1694.12 655.749 1693.55 655.554C1693.29 655.463 1693.07 655.35 1692.88 655.217L1691.4 652.572C1692.43 652.812 1693.66 652.771 1695.02 652.495C1696.57 652.174 1698.28 651.532 1699.97 650.581C1702.22 649.313 1704.03 647.736 1705.14 646.166C1705.59 645.533 1705.92 644.902 1706.12 644.28L1707.61 646.931ZM1705.32 642.86C1705.34 643.087 1705.32 643.335 1705.26 643.608C1705.07 644.49 1704.44 645.576 1703.44 646.65C1702.44 647.726 1701.08 648.795 1699.47 649.698C1697.34 650.902 1695.17 651.575 1693.44 651.695C1692.58 651.757 1691.83 651.679 1691.26 651.484C1691 651.393 1690.78 651.28 1690.59 651.147L1690.24 650.518C1690.14 650.343 1690.08 650.152 1690.06 649.93C1690.02 649.544 1690.1 649.06 1690.33 648.512C1690.67 647.69 1691.34 646.744 1692.28 645.819C1693.22 644.892 1694.43 643.983 1695.82 643.2C1697.94 642.006 1700.09 641.341 1701.78 641.224C1702.63 641.163 1703.35 641.242 1703.89 641.427C1704.16 641.519 1704.39 641.636 1704.56 641.771C1704.74 641.906 1704.87 642.057 1704.97 642.232L1705.32 642.86Z" fill="#74DFFF"/>
</g>
<defs>
<filter id="filter0_f_6433_17227" x="579.336" y="495.741" width="1963.29" height="1278.66" filterUnits="userSpaceOnUse" color-interpolation-filters="sRGB">
<feFlood flood-opacity="0" result="BackgroundImageFix"/>
<feBlend mode="normal" in="SourceGraphic" in2="BackgroundImageFix" result="shape"/>
<feGaussianBlur stdDeviation="113.5" result="effect1_foregroundBlur_6433_17227"/>
</filter>
<filter id="filter1_f_6433_17227" x="94.3398" y="360.741" width="2410.13" height="1522.81" filterUnits="userSpaceOnUse" color-interpolation-filters="sRGB">
<feFlood flood-opacity="0" result="BackgroundImageFix"/>
<feBlend mode="normal" in="SourceGraphic" in2="BackgroundImageFix" result="shape"/>
<feGaussianBlur stdDeviation="113.5" result="effect1_foregroundBlur_6433_17227"/>
</filter>
<filter id="filter2_f_6433_17227" x="353" y="599" width="744" height="744" filterUnits="userSpaceOnUse" color-interpolation-filters="sRGB">
<feFlood flood-opacity="0" result="BackgroundImageFix"/>
<feBlend mode="normal" in="SourceGraphic" in2="BackgroundImageFix" result="shape"/>
<feGaussianBlur stdDeviation="2.5" result="effect1_foregroundBlur_6433_17227"/>
</filter>
<filter id="filter3_f_6433_17227" x="1346" y="128" width="418" height="418" filterUnits="userSpaceOnUse" color-interpolation-filters="sRGB">
<feFlood flood-opacity="0" result="BackgroundImageFix"/>
<feBlend mode="normal" in="SourceGraphic" in2="BackgroundImageFix" result="shape"/>
<feGaussianBlur stdDeviation="10" result="effect1_foregroundBlur_6433_17227"/>
</filter>
<filter id="filter4_f_6433_17227" x="901.078" y="159.078" width="59.6289" height="59.6309" filterUnits="userSpaceOnUse" color-interpolation-filters="sRGB">
<feFlood flood-opacity="0" result="BackgroundImageFix"/>
<feBlend mode="normal" in="SourceGraphic" in2="BackgroundImageFix" result="shape"/>
<feGaussianBlur stdDeviation="2.5" result="effect1_foregroundBlur_6433_17227"/>
</filter>
<filter id="filter5_f_6433_17227" x="903.078" y="166.078" width="59.6289" height="59.6309" filterUnits="userSpaceOnUse" color-interpolation-filters="sRGB">
<feFlood flood-opacity="0" result="BackgroundImageFix"/>
<feBlend mode="normal" in="SourceGraphic" in2="BackgroundImageFix" result="shape"/>
<feGaussianBlur stdDeviation="2.5" result="effect1_foregroundBlur_6433_17227"/>
</filter>
<filter id="filter6_f_6433_17227" x="1824.75" y="220.754" width="78.7969" height="78.7964" filterUnits="userSpaceOnUse" color-interpolation-filters="sRGB">
<feFlood flood-opacity="0" result="BackgroundImageFix"/>
<feBlend mode="normal" in="SourceGraphic" in2="BackgroundImageFix" result="shape"/>
<feGaussianBlur stdDeviation="5" result="effect1_foregroundBlur_6433_17227"/>
</filter>
<filter id="filter7_f_6433_17227" x="1608.88" y="637.88" width="577.031" height="577.028" filterUnits="userSpaceOnUse" color-interpolation-filters="sRGB">
<feFlood flood-opacity="0" result="BackgroundImageFix"/>
<feBlend mode="normal" in="SourceGraphic" in2="BackgroundImageFix" result="shape"/>
<feGaussianBlur stdDeviation="5" result="effect1_foregroundBlur_6433_17227"/>
</filter>
<filter id="filter8_f_6433_17227" x="1791.09" y="462.094" width="83.5898" height="83.5898" filterUnits="userSpaceOnUse" color-interpolation-filters="sRGB">
<feFlood flood-opacity="0" result="BackgroundImageFix"/>
<feBlend mode="normal" in="SourceGraphic" in2="BackgroundImageFix" result="shape"/>
<feGaussianBlur stdDeviation="3" result="effect1_foregroundBlur_6433_17227"/>
</filter>
<filter id="filter9_f_6433_17227" x="1789.09" y="462.094" width="83.5898" height="83.5898" filterUnits="userSpaceOnUse" color-interpolation-filters="sRGB">
<feFlood flood-opacity="0" result="BackgroundImageFix"/>
<feBlend mode="normal" in="SourceGraphic" in2="BackgroundImageFix" result="shape"/>
<feGaussianBlur stdDeviation="3" result="effect1_foregroundBlur_6433_17227"/>
</filter>
<linearGradient id="paint0_linear_6433_17227" x1="450.5" y1="0" x2="450.5" y2="847" gradientUnits="userSpaceOnUse">
<stop stop-color="#4FDAB8"/>
<stop offset="1" stop-color="#4FDAB8" stop-opacity="0"/>
</linearGradient>
<linearGradient id="paint1_linear_6433_17227" x1="581.733" y1="0" x2="581.733" y2="1093.73" gradientUnits="userSpaceOnUse">
<stop stop-color="#52C7EA"/>
<stop offset="1" stop-color="#52C7EA" stop-opacity="0"/>
</linearGradient>
<radialGradient id="paint2_radial_6433_17227" cx="0" cy="0" r="1" gradientUnits="userSpaceOnUse" gradientTransform="translate(1007.49 116.182) rotate(89.1122) scale(724.531)">
<stop stop-color="#4FDAB8" stop-opacity="0.25"/>
<stop offset="1" stop-color="#52C7EA" stop-opacity="0"/>
</radialGradient>
<radialGradient id="paint3_radial_6433_17227" cx="0" cy="0" r="1" gradientUnits="userSpaceOnUse" gradientTransform="translate(243.295 539.711) rotate(-87.9037) scale(551.549)">
<stop stop-color="#52C7EA" stop-opacity="0.7"/>
<stop offset="1" stop-color="#52C7EA" stop-opacity="0"/>
</radialGradient>
<radialGradient id="paint4_radial_6433_17227" cx="0" cy="0" r="1" gradientUnits="userSpaceOnUse" gradientTransform="translate(1281 16) rotate(89.0891) scale(597.576)">
<stop offset="0.43" stop-color="#4FDAB8" stop-opacity="0.2"/>
<stop offset="0.766526" stop-color="#51CCDC" stop-opacity="0.1"/>
<stop offset="1" stop-color="#52C7EA" stop-opacity="0"/>
</radialGradient>
<radialGradient id="paint5_radial_6433_17227" cx="0" cy="0" r="1" gradientUnits="userSpaceOnUse" gradientTransform="translate(1261.1 1103.13) rotate(-84.991) scale(479.961)">
<stop stop-color="#4FDAB8" stop-opacity="0.6"/>
<stop offset="0.768138" stop-color="#51CBDE" stop-opacity="0.2"/>
<stop offset="1" stop-color="#52C7EA" stop-opacity="0"/>
</radialGradient>
<radialGradient id="paint6_radial_6433_17227" cx="0" cy="0" r="1" gradientUnits="userSpaceOnUse" gradientTransform="translate(1700 171) rotate(130.355) scale(654.811 654.811)">
<stop stop-color="#4FDAB8" stop-opacity="0.2"/>
<stop offset="0.753754" stop-color="#52C7EA" stop-opacity="0"/>
</radialGradient>
<linearGradient id="paint7_linear_6433_17227" x1="881.552" y1="1268.06" x2="1092" y2="778.517" gradientUnits="userSpaceOnUse">
<stop stop-color="#3A74C6" stop-opacity="0.2"/>
<stop offset="1" stop-color="#60D1F2" stop-opacity="0"/>
</linearGradient>
<linearGradient id="paint8_linear_6433_17227" x1="1916.5" y1="876.5" x2="1634" y2="449" gradientUnits="userSpaceOnUse">
<stop stop-color="#0E2A4B" stop-opacity="0.15"/>
<stop offset="1" stop-color="#60D1F2" stop-opacity="0"/>
</linearGradient>
<linearGradient id="paint9_linear_6433_17227" x1="1744" y1="406.5" x2="1389.5" y2="231.5" gradientUnits="userSpaceOnUse">
<stop stop-color="#3A74C6" stop-opacity="0.1"/>
<stop offset="1" stop-color="#60D1F2" stop-opacity="0"/>
</linearGradient>
<linearGradient id="paint10_linear_6433_17227" x1="943.476" y1="215.976" x2="957.704" y2="182.88" gradientUnits="userSpaceOnUse">
<stop stop-color="#3A74C6" stop-opacity="0.2"/>
<stop offset="1" stop-color="#60D1F2" stop-opacity="0"/>
</linearGradient>
<linearGradient id="paint11_linear_6433_17227" x1="1876.69" y1="283.944" x2="1893.55" y2="244.736" gradientUnits="userSpaceOnUse">
<stop stop-color="#1F2B3C" stop-opacity="0.6"/>
<stop offset="1" stop-color="#0B1416" stop-opacity="0.4"/>
</linearGradient>
<linearGradient id="paint12_linear_6433_17227" x1="1790.3" y1="1156.69" x2="1996.73" y2="815.23" gradientUnits="userSpaceOnUse">
<stop stop-color="#1E413D" stop-opacity="0.1"/>
<stop offset="0.959675" stop-color="#1C93B6" stop-opacity="0.01"/>
</linearGradient>
<linearGradient id="paint13_linear_6433_17227" x1="1846.16" y1="532.858" x2="1866.68" y2="485.118" gradientUnits="userSpaceOnUse">
<stop stop-color="#3AC69C" stop-opacity="0.1"/>
<stop offset="1" stop-color="#60D1F2" stop-opacity="0"/>
</linearGradient>
<linearGradient id="paint14_linear_6433_17227" x1="639.648" y1="325.461" x2="649.931" y2="363.839" gradientUnits="userSpaceOnUse">
<stop offset="0.40073" stop-color="#0F1923"/>
<stop offset="1" stop-color="#0F1923"/>
</linearGradient>
<linearGradient id="paint15_linear_6433_17227" x1="1725.07" y1="163.54" x2="1726.44" y2="217.201" gradientUnits="userSpaceOnUse">
<stop offset="0.40073" stop-color="#101A26"/>
<stop offset="1" stop-color="#1D3651"/>
</linearGradient>
<clipPath id="clip0_6433_17227">
<rect width="2560" height="840" fill="white"/>
</clipPath>
<clipPath id="clip1_6433_17227">
<rect width="26.1603" height="26.1603" fill="white" transform="translate(611.699 126) rotate(36.8833)"/>
</clipPath>
</defs>
</svg>
