<svg width="2560" height="840" viewBox="0 0 2560 840" fill="none" xmlns="http://www.w3.org/2000/svg">
<g clip-path="url(#clip0_6373_19920)">
<g opacity="0.7" filter="url(#filter0_f_6373_19920)">
<rect width="901" height="847" rx="24" transform="matrix(0.87755 0.479485 -0.87755 0.479485 1537.29 716)" fill="url(#paint0_linear_6373_19920)"/>
</g>
<g opacity="0.7" filter="url(#filter1_f_6373_19920)">
<rect width="1163.47" height="1093.73" rx="24" transform="matrix(0.87755 0.479485 -0.87755 0.479485 1268.81 581)" fill="url(#paint1_linear_6373_19920)"/>
</g>
<circle cx="1048.62" cy="454.571" r="283.669" transform="rotate(-60 1048.62 454.571)" stroke="url(#paint2_radial_6373_19920)"/>
<circle cx="284.169" cy="284.169" r="283.669" transform="matrix(-0.5 -0.866025 -0.866025 0.5 1421.8 828.906)" stroke="url(#paint3_radial_6373_19920)"/>
<circle cx="1280.78" cy="300.144" r="283.644" stroke="url(#paint4_radial_6373_19920)"/>
<circle cx="1280.78" cy="888.432" r="283.644" stroke="url(#paint5_radial_6373_19920)"/>
<path d="M1717.29 513.076C1748.11 530.869 1774.33 553.571 1795.52 579.624C1772.19 614.194 1740.84 644.133 1702.29 666.389C1579.92 737.044 1426.78 706.15 1340.45 599.854C1423.02 477.452 1587.47 438.121 1717.29 513.076ZM1796.11 578.756C1774.87 552.71 1748.63 530.012 1717.79 512.21C1587.6 437.042 1422.71 476.407 1339.79 599.041C1330.66 587.719 1322.29 575.548 1314.79 562.559C1236.46 426.882 1282.95 253.393 1418.62 175.06C1554.3 96.7266 1727.79 143.213 1806.12 278.89C1862.01 375.695 1854.36 491.75 1796.11 578.756ZM1329.79 616.906C1333 611.362 1336.36 605.966 1339.86 600.722C1426.53 707.202 1580.08 738.106 1702.79 667.255C1741.39 644.974 1772.79 615.022 1796.18 580.436C1867.73 669.049 1881.48 796.036 1821.12 900.576C1742.79 1036.25 1569.3 1082.74 1433.62 1004.41C1297.95 926.073 1251.46 752.583 1329.79 616.906Z" stroke="url(#paint6_radial_6373_19920)"/>
<g filter="url(#filter2_f_6373_19920)">
<circle cx="725" cy="971" r="367" fill="url(#paint7_linear_6373_19920)"/>
</g>
<circle cx="1574" cy="759" r="285" fill="url(#paint8_linear_6373_19920)"/>
<g filter="url(#filter3_f_6373_19920)">
<circle cx="1555" cy="337" r="189" fill="url(#paint9_linear_6373_19920)"/>
</g>
<g filter="url(#filter4_f_6373_19920)">
<circle cx="930.893" cy="188.893" r="24.8111" transform="rotate(120 930.893 188.893)" fill="#162535"/>
</g>
<g filter="url(#filter5_f_6373_19920)">
<circle cx="932.893" cy="195.893" r="24.8111" transform="rotate(120 932.893 195.893)" fill="url(#paint10_linear_6373_19920)"/>
</g>
<g filter="url(#filter6_f_6373_19920)">
<circle cx="1864.15" cy="260.152" r="29.3932" transform="rotate(120 1864.15 260.152)" fill="url(#paint11_linear_6373_19920)"/>
</g>
<g filter="url(#filter7_f_6373_19920)">
<circle cx="1897.39" cy="926.394" r="278.468" transform="rotate(120 1897.39 926.394)" fill="url(#paint12_linear_6373_19920)"/>
</g>
<g filter="url(#filter8_f_6373_19920)">
<circle cx="1832.89" cy="503.889" r="35.7889" transform="rotate(120 1832.89 503.889)" fill="#162535"/>
</g>
<g filter="url(#filter9_f_6373_19920)">
<circle cx="1830.89" cy="503.889" r="35.7889" transform="rotate(120 1830.89 503.889)" fill="url(#paint13_linear_6373_19920)"/>
</g>
<path d="M805.101 137.33C805.735 136.715 806.655 136.5 807.495 136.768L823.835 141.992C824.61 142.24 825.206 142.866 825.417 143.652L829.536 159.024C829.75 159.822 829.537 160.674 828.973 161.278L817.403 173.652C816.795 174.303 815.876 174.562 815.017 174.324L797.904 169.593C797.087 169.367 796.45 168.726 796.231 167.906L791.921 151.822C791.696 150.983 791.943 150.089 792.566 149.485L805.101 137.33Z" fill="url(#paint14_linear_6373_19920)"/>
<path d="M805.24 137.473C805.821 136.91 806.664 136.712 807.435 136.958L823.774 142.182C824.485 142.41 825.031 142.983 825.225 143.704L829.343 159.076C829.539 159.807 829.344 160.588 828.827 161.141L817.257 173.516C816.7 174.112 815.857 174.35 815.071 174.132L797.957 169.401C797.208 169.194 796.624 168.606 796.423 167.855L792.113 151.77C791.907 151.002 792.134 150.182 792.705 149.628L805.24 137.473Z" stroke="#74DFFF" stroke-opacity="0.5" stroke-width="0.398787"/>
<path d="M815.571 154.073L819.853 156.439C819.909 156.47 819.908 156.538 819.852 156.568L815.532 158.863M806.732 154L802.412 156.295C802.355 156.325 802.355 156.393 802.411 156.424L806.692 158.79M812.694 152.412L809.595 160.394" stroke="#74DFFF" stroke-width="1.8808" stroke-linecap="round"/>
<path d="M1714.09 173.583C1714.59 172.856 1715.45 172.465 1716.33 172.565L1733.37 174.499C1734.18 174.591 1734.89 175.088 1735.25 175.818L1742.29 190.091C1742.65 190.832 1742.61 191.709 1742.18 192.411L1733.24 206.806C1732.78 207.562 1731.92 207.996 1731.04 207.931L1713.33 206.63C1712.48 206.568 1711.73 206.063 1711.36 205.303L1703.99 190.368C1703.61 189.59 1703.68 188.664 1704.17 187.95L1714.09 173.583Z" fill="url(#paint15_linear_6373_19920)"/>
<path d="M1714.25 173.696C1714.71 173.03 1715.5 172.672 1716.31 172.763L1733.35 174.698C1734.09 174.782 1734.74 175.237 1735.07 175.907L1742.11 190.179C1742.45 190.858 1742.41 191.662 1742.01 192.306L1733.08 206.701C1732.64 207.394 1731.86 207.791 1731.05 207.732L1713.34 206.432C1712.57 206.375 1711.88 205.912 1711.54 205.214L1704.17 190.28C1703.82 189.566 1703.88 188.718 1704.33 188.063L1714.25 173.696Z" stroke="#74DFFF" stroke-opacity="0.5" stroke-width="0.398787"/>
<path fill-rule="evenodd" clip-rule="evenodd" d="M1723.02 182.449C1718.73 182.449 1715.26 185.929 1715.26 190.214C1715.26 193.646 1717.48 196.554 1720.57 197.584C1720.95 197.656 1721.1 197.417 1721.1 197.207C1721.1 197.022 1721.09 196.535 1721.09 195.887C1718.93 196.354 1718.47 194.848 1718.47 194.848C1718.12 193.952 1717.61 193.713 1717.61 193.713C1716.9 193.232 1717.66 193.241 1717.66 193.241C1718.44 193.298 1718.85 194.042 1718.85 194.042C1719.54 195.229 1720.67 194.886 1721.11 194.686C1721.18 194.185 1721.38 193.842 1721.6 193.646C1719.88 193.451 1718.07 192.784 1718.07 189.809C1718.07 188.96 1718.37 188.269 1718.87 187.726C1718.79 187.53 1718.52 186.739 1718.94 185.671C1718.94 185.671 1719.6 185.461 1721.08 186.467C1721.7 186.296 1722.36 186.21 1723.02 186.205C1723.68 186.205 1724.35 186.296 1724.97 186.467C1726.45 185.461 1727.1 185.671 1727.1 185.671C1727.53 186.739 1727.26 187.53 1727.18 187.726C1727.68 188.269 1727.98 188.96 1727.98 189.809C1727.98 192.793 1726.16 193.446 1724.43 193.642C1724.71 193.88 1724.96 194.357 1724.96 195.081C1724.96 196.121 1724.95 196.955 1724.95 197.212C1724.95 197.422 1725.09 197.66 1725.48 197.584C1728.57 196.554 1730.79 193.646 1730.79 190.219C1730.79 185.929 1727.31 182.453 1723.02 182.453V182.449Z" fill="#74DFFF"/>
<path d="M1055.41 717.333C1056.29 717.445 1057.03 718.029 1057.35 718.853L1063.47 734.877C1063.76 735.638 1063.64 736.494 1063.16 737.15L1053.73 749.966C1053.24 750.631 1052.44 750.997 1051.61 750.933L1034.72 749.623C1033.84 749.554 1033.06 748.998 1032.71 748.179L1025.72 731.858C1025.39 731.078 1025.49 730.18 1025.99 729.497L1035.86 716.087C1036.38 715.388 1037.23 715.023 1038.09 715.132L1055.41 717.333Z" fill="url(#paint16_linear_6373_19920)"/>
<path d="M1055.39 717.531C1056.19 717.633 1056.87 718.169 1057.16 718.924L1063.28 734.949C1063.55 735.646 1063.44 736.431 1063 737.032L1053.57 749.848C1053.12 750.457 1052.39 750.793 1051.63 750.734L1034.74 749.424C1033.93 749.361 1033.21 748.851 1032.89 748.101L1025.9 731.779C1025.6 731.065 1025.69 730.242 1026.15 729.616L1036.03 716.205C1036.5 715.565 1037.28 715.23 1038.07 715.33L1055.39 717.531Z" stroke="#74DFFF" stroke-opacity="0.5" stroke-width="0.398787"/>
<path d="M1045.89 732.938L1045.79 734.694L1044.13 734.745L1044.24 732.989C1044.22 732.816 1044.15 732.659 1044.02 732.548C1043.89 732.437 1043.73 732.379 1043.55 732.384C1043.38 732.39 1043.2 732.458 1043.06 732.578C1042.92 732.697 1042.83 732.859 1042.79 733.034L1042.69 734.79L1042.01 734.81C1041.92 734.809 1041.82 734.828 1041.73 734.866C1041.64 734.903 1041.55 734.959 1041.48 735.029C1041.41 735.099 1041.35 735.182 1041.31 735.273C1041.27 735.364 1041.25 735.46 1041.25 735.556L1041.15 737.105C1041.12 737.583 1041.17 738.055 1041.32 738.493C1041.48 738.931 1041.72 739.326 1042.03 739.655C1042.51 740.169 1043.16 740.494 1043.89 740.578L1043.78 742.282C1043.77 742.378 1043.78 742.473 1043.81 742.562C1043.84 742.65 1043.89 742.73 1043.96 742.796C1044.02 742.862 1044.1 742.912 1044.19 742.945C1044.27 742.977 1044.37 742.99 1044.47 742.982C1044.56 742.984 1044.66 742.965 1044.75 742.927C1044.84 742.889 1044.93 742.834 1045 742.764C1045.07 742.694 1045.13 742.611 1045.17 742.52C1045.21 742.429 1045.23 742.333 1045.23 742.237L1045.33 740.584C1046.1 740.436 1046.83 740.053 1047.41 739.489C1048.14 738.781 1048.58 737.843 1048.65 736.873L1048.74 735.324C1048.76 735.131 1048.69 734.948 1048.57 734.814C1048.51 734.744 1048.43 734.69 1048.34 734.657C1048.26 734.624 1048.16 734.612 1048.06 734.623L1047.24 734.649L1047.34 732.893C1047.33 732.72 1047.25 732.563 1047.12 732.452C1047 732.341 1046.83 732.283 1046.66 732.288C1046.48 732.294 1046.31 732.362 1046.17 732.482C1046.03 732.601 1045.93 732.763 1045.89 732.938ZM1047.2 736.918C1047.16 737.498 1046.89 738.058 1046.46 738.481C1046.02 738.903 1045.45 739.155 1044.87 739.181L1044.67 739.187C1044.08 739.196 1043.53 738.983 1043.13 738.591C1042.75 738.189 1042.56 737.639 1042.6 737.06L1042.65 736.234L1047.23 736.118L1047.2 736.918Z" fill="#74DFFF"/>
<path d="M1045.66 722.943C1045.57 722.942 1045.47 722.961 1045.38 722.998C1045.29 723.036 1045.2 723.092 1045.13 723.162C1045.06 723.232 1045 723.315 1044.96 723.406C1044.92 723.496 1044.9 723.593 1044.9 723.689L1044.79 725.444C1043.92 725.597 1043.1 726.053 1042.49 726.729C1041.88 727.406 1041.51 728.257 1041.45 729.131L1041.35 730.68C1041.34 730.873 1041.4 731.056 1041.53 731.19C1041.59 731.26 1041.67 731.314 1041.76 731.347C1041.84 731.38 1041.94 731.392 1042.04 731.381L1048.09 731.193C1048.18 731.195 1048.28 731.176 1048.37 731.138C1048.46 731.1 1048.55 731.045 1048.62 730.975C1048.69 730.905 1048.75 730.822 1048.79 730.731C1048.83 730.64 1048.85 730.544 1048.85 730.448L1048.97 728.924C1049 728.443 1048.93 727.97 1048.77 727.532C1048.61 727.094 1048.36 726.701 1048.04 726.375C1047.56 725.89 1046.95 725.561 1046.26 725.425L1046.35 723.644C1046.36 723.548 1046.34 723.452 1046.32 723.364C1046.29 723.275 1046.24 723.195 1046.17 723.13C1046.11 723.064 1046.03 723.013 1045.94 722.981C1045.86 722.949 1045.76 722.936 1045.66 722.943ZM1047.5 728.943L1047.45 729.77L1042.85 729.912L1042.92 729.111C1042.93 728.821 1043 728.532 1043.13 728.26C1043.25 727.987 1043.43 727.738 1043.65 727.527C1043.86 727.316 1044.12 727.147 1044.39 727.03C1044.67 726.913 1044.96 726.851 1045.25 726.848L1045.43 726.817C1046.01 726.818 1046.55 727.041 1046.94 727.44C1047.13 727.633 1047.28 727.864 1047.38 728.123C1047.47 728.381 1047.51 728.66 1047.5 728.943Z" fill="#74DFFF"/>
<path d="M738.781 120.468C740.101 120.593 741.245 121.434 741.758 122.657L751.727 146.425C752.201 147.553 752.068 148.845 751.374 149.853L737.826 169.555C737.122 170.578 735.941 171.166 734.701 171.11L709.273 169.96C707.936 169.899 706.744 169.102 706.178 167.89L694.89 143.718C694.35 142.563 694.463 141.209 695.185 140.159L709.362 119.543C710.101 118.468 711.364 117.878 712.662 118.001L738.781 120.468Z" fill="#0F1924"/>
<path d="M738.753 120.766C739.963 120.881 741.012 121.652 741.482 122.773L751.451 146.541C751.885 147.575 751.763 148.759 751.128 149.683L737.579 169.386C736.934 170.323 735.851 170.862 734.714 170.811L709.286 169.661C708.061 169.605 706.968 168.874 706.449 167.763L695.161 143.591C694.667 142.532 694.77 141.291 695.432 140.329L709.609 119.713C710.286 118.728 711.444 118.187 712.634 118.299L738.753 120.766Z" stroke="#74DFFF" stroke-opacity="0.7" stroke-width="0.599189"/>
<path d="M731.986 141.315C731.335 138.06 728.476 135.616 725.041 135.616C722.314 135.616 719.946 137.163 718.767 139.428C717.38 139.578 716.097 140.235 715.166 141.273C714.234 142.311 713.719 143.656 713.719 145.051C713.719 148.174 716.257 150.713 719.38 150.713L731.646 150.713C734.25 150.713 736.364 148.599 736.364 145.995C736.364 143.504 734.43 141.485 731.986 141.315Z" fill="#74DFFF"/>
<path d="M1640.91 668.205C1641.49 667.009 1642.67 666.224 1643.99 666.164L1669.74 664.998C1670.96 664.942 1672.13 665.512 1672.84 666.51L1686.66 686.02C1687.38 687.033 1687.53 688.344 1687.05 689.489L1677.2 712.963C1676.68 714.197 1675.53 715.041 1674.19 715.155L1647.61 717.42C1646.34 717.528 1645.11 716.956 1644.37 715.916L1629.91 695.502C1629.15 694.438 1629.03 693.049 1629.59 691.873L1640.91 668.205Z" fill="url(#paint17_linear_6373_19920)"/>
<path d="M1641.18 668.334C1641.71 667.238 1642.79 666.519 1644.01 666.464L1669.76 665.297C1670.88 665.246 1671.94 665.769 1672.59 666.684L1686.42 686.193C1687.08 687.121 1687.21 688.324 1686.77 689.373L1676.93 712.847C1676.45 713.978 1675.39 714.752 1674.17 714.856L1647.59 717.121C1646.42 717.22 1645.29 716.696 1644.62 715.743L1630.15 695.329C1629.46 694.354 1629.35 693.08 1629.87 692.002L1641.18 668.334Z" stroke="#74DFFF" stroke-opacity="0.7" stroke-width="0.599189"/>
<path d="M1668.36 682.654C1668.09 682.026 1667.62 681.486 1667.02 681.02C1666.12 680.322 1664.92 679.777 1663.52 679.394C1662.12 679.012 1660.51 678.798 1658.8 678.798C1656.19 678.8 1653.83 679.292 1652.06 680.128C1651.17 680.548 1650.43 681.054 1649.89 681.661C1649.61 681.965 1649.39 682.296 1649.24 682.654C1649.08 683.012 1649 683.398 1649 683.793L1649 697.803C1649 698.198 1649.08 698.584 1649.24 698.941C1649.51 699.569 1649.98 700.109 1650.58 700.576C1651.48 701.274 1652.68 701.819 1654.08 702.202C1655.48 702.583 1657.09 702.797 1658.8 702.798C1661.41 702.796 1663.77 702.304 1665.54 701.467C1666.43 701.047 1667.17 700.542 1667.71 699.934C1667.98 699.631 1668.21 699.3 1668.36 698.941C1668.52 698.584 1668.6 698.198 1668.6 697.803L1668.6 683.792C1668.6 683.398 1668.52 683.012 1668.36 682.654ZM1667.25 697.803C1667.25 698.004 1667.21 698.2 1667.12 698.405C1666.97 698.761 1666.66 699.144 1666.19 699.509C1665.49 700.057 1664.44 700.552 1663.16 700.897C1661.89 701.244 1660.4 701.446 1658.8 701.446C1656.37 701.448 1654.17 700.973 1652.63 700.245C1651.87 699.884 1651.27 699.459 1650.89 699.033C1650.7 698.821 1650.57 698.609 1650.48 698.405C1650.39 698.2 1650.35 698.004 1650.35 697.803L1650.35 695.489C1651.13 696.204 1652.23 696.775 1653.54 697.197C1655.06 697.681 1656.86 697.959 1658.8 697.959C1661.38 697.958 1663.73 697.467 1665.47 696.645C1666.17 696.313 1666.77 695.925 1667.25 695.483L1667.25 697.803L1667.25 697.803ZM1667.25 693.854C1667.15 694.06 1667.02 694.267 1666.83 694.476C1666.23 695.151 1665.15 695.786 1663.75 696.231C1662.35 696.679 1660.64 696.945 1658.8 696.945C1656.34 696.946 1654.12 696.469 1652.56 695.728C1651.78 695.359 1651.17 694.925 1650.77 694.476C1650.58 694.267 1650.44 694.06 1650.35 693.854L1650.35 690.819C1651.13 691.534 1652.23 692.105 1653.54 692.527C1655.06 693.01 1656.86 693.288 1658.8 693.289C1661.38 693.287 1663.73 692.797 1665.47 691.975C1666.17 691.643 1666.77 691.255 1667.25 690.813L1667.25 693.854ZM1667.25 689.184C1667.15 689.39 1667.02 689.597 1666.83 689.806C1666.23 690.48 1665.15 691.116 1663.75 691.561C1662.35 692.008 1660.64 692.275 1658.8 692.274C1656.34 692.276 1654.12 691.799 1652.56 691.058C1651.78 690.689 1651.17 690.255 1650.77 689.806C1650.58 689.597 1650.44 689.39 1650.35 689.184L1650.35 686.149C1651.13 686.864 1652.23 687.434 1653.54 687.857C1655.06 688.341 1656.86 688.619 1658.8 688.619C1661.38 688.617 1663.73 688.127 1665.47 687.305C1666.17 686.973 1666.77 686.585 1667.25 686.143L1667.25 689.184ZM1667.25 684.514C1667.15 684.72 1667.02 684.927 1666.83 685.136C1666.23 685.811 1665.15 686.446 1663.75 686.891C1662.35 687.339 1660.64 687.605 1658.8 687.605C1656.34 687.606 1654.12 687.129 1652.56 686.388C1651.78 686.019 1651.17 685.585 1650.77 685.136C1650.58 684.927 1650.44 684.72 1650.35 684.514L1650.35 683.792C1650.35 683.591 1650.39 683.395 1650.48 683.191C1650.63 682.834 1650.94 682.452 1651.41 682.087C1652.11 681.538 1653.16 681.043 1654.43 680.698C1655.71 680.352 1657.2 680.15 1658.8 680.15C1661.23 680.148 1663.43 680.623 1664.96 681.35C1665.73 681.712 1666.33 682.136 1666.7 682.562C1666.89 682.775 1667.03 682.987 1667.12 683.191C1667.21 683.396 1667.25 683.591 1667.25 683.793L1667.25 684.514Z" fill="#74DFFF"/>
</g>
<defs>
<filter id="filter0_f_6373_19920" x="579.336" y="495.741" width="1963.29" height="1278.66" filterUnits="userSpaceOnUse" color-interpolation-filters="sRGB">
<feFlood flood-opacity="0" result="BackgroundImageFix"/>
<feBlend mode="normal" in="SourceGraphic" in2="BackgroundImageFix" result="shape"/>
<feGaussianBlur stdDeviation="113.5" result="effect1_foregroundBlur_6373_19920"/>
</filter>
<filter id="filter1_f_6373_19920" x="94.3398" y="360.741" width="2410.13" height="1522.81" filterUnits="userSpaceOnUse" color-interpolation-filters="sRGB">
<feFlood flood-opacity="0" result="BackgroundImageFix"/>
<feBlend mode="normal" in="SourceGraphic" in2="BackgroundImageFix" result="shape"/>
<feGaussianBlur stdDeviation="113.5" result="effect1_foregroundBlur_6373_19920"/>
</filter>
<filter id="filter2_f_6373_19920" x="353" y="599" width="744" height="744" filterUnits="userSpaceOnUse" color-interpolation-filters="sRGB">
<feFlood flood-opacity="0" result="BackgroundImageFix"/>
<feBlend mode="normal" in="SourceGraphic" in2="BackgroundImageFix" result="shape"/>
<feGaussianBlur stdDeviation="2.5" result="effect1_foregroundBlur_6373_19920"/>
</filter>
<filter id="filter3_f_6373_19920" x="1346" y="128" width="418" height="418" filterUnits="userSpaceOnUse" color-interpolation-filters="sRGB">
<feFlood flood-opacity="0" result="BackgroundImageFix"/>
<feBlend mode="normal" in="SourceGraphic" in2="BackgroundImageFix" result="shape"/>
<feGaussianBlur stdDeviation="10" result="effect1_foregroundBlur_6373_19920"/>
</filter>
<filter id="filter4_f_6373_19920" x="901.078" y="159.078" width="59.6289" height="59.6309" filterUnits="userSpaceOnUse" color-interpolation-filters="sRGB">
<feFlood flood-opacity="0" result="BackgroundImageFix"/>
<feBlend mode="normal" in="SourceGraphic" in2="BackgroundImageFix" result="shape"/>
<feGaussianBlur stdDeviation="2.5" result="effect1_foregroundBlur_6373_19920"/>
</filter>
<filter id="filter5_f_6373_19920" x="903.078" y="166.078" width="59.6289" height="59.6309" filterUnits="userSpaceOnUse" color-interpolation-filters="sRGB">
<feFlood flood-opacity="0" result="BackgroundImageFix"/>
<feBlend mode="normal" in="SourceGraphic" in2="BackgroundImageFix" result="shape"/>
<feGaussianBlur stdDeviation="2.5" result="effect1_foregroundBlur_6373_19920"/>
</filter>
<filter id="filter6_f_6373_19920" x="1824.75" y="220.754" width="78.7969" height="78.7964" filterUnits="userSpaceOnUse" color-interpolation-filters="sRGB">
<feFlood flood-opacity="0" result="BackgroundImageFix"/>
<feBlend mode="normal" in="SourceGraphic" in2="BackgroundImageFix" result="shape"/>
<feGaussianBlur stdDeviation="5" result="effect1_foregroundBlur_6373_19920"/>
</filter>
<filter id="filter7_f_6373_19920" x="1608.88" y="637.88" width="577.031" height="577.028" filterUnits="userSpaceOnUse" color-interpolation-filters="sRGB">
<feFlood flood-opacity="0" result="BackgroundImageFix"/>
<feBlend mode="normal" in="SourceGraphic" in2="BackgroundImageFix" result="shape"/>
<feGaussianBlur stdDeviation="5" result="effect1_foregroundBlur_6373_19920"/>
</filter>
<filter id="filter8_f_6373_19920" x="1791.09" y="462.094" width="83.5898" height="83.5898" filterUnits="userSpaceOnUse" color-interpolation-filters="sRGB">
<feFlood flood-opacity="0" result="BackgroundImageFix"/>
<feBlend mode="normal" in="SourceGraphic" in2="BackgroundImageFix" result="shape"/>
<feGaussianBlur stdDeviation="3" result="effect1_foregroundBlur_6373_19920"/>
</filter>
<filter id="filter9_f_6373_19920" x="1789.09" y="462.094" width="83.5898" height="83.5898" filterUnits="userSpaceOnUse" color-interpolation-filters="sRGB">
<feFlood flood-opacity="0" result="BackgroundImageFix"/>
<feBlend mode="normal" in="SourceGraphic" in2="BackgroundImageFix" result="shape"/>
<feGaussianBlur stdDeviation="3" result="effect1_foregroundBlur_6373_19920"/>
</filter>
<linearGradient id="paint0_linear_6373_19920" x1="450.5" y1="0" x2="450.5" y2="847" gradientUnits="userSpaceOnUse">
<stop stop-color="#4FDAB8"/>
<stop offset="1" stop-color="#4FDAB8" stop-opacity="0"/>
</linearGradient>
<linearGradient id="paint1_linear_6373_19920" x1="581.733" y1="0" x2="581.733" y2="1093.73" gradientUnits="userSpaceOnUse">
<stop stop-color="#52C7EA"/>
<stop offset="1" stop-color="#52C7EA" stop-opacity="0"/>
</linearGradient>
<radialGradient id="paint2_radial_6373_19920" cx="0" cy="0" r="1" gradientUnits="userSpaceOnUse" gradientTransform="translate(1007.49 116.182) rotate(89.1122) scale(724.531)">
<stop stop-color="#4FDAB8" stop-opacity="0.25"/>
<stop offset="1" stop-color="#52C7EA" stop-opacity="0"/>
</radialGradient>
<radialGradient id="paint3_radial_6373_19920" cx="0" cy="0" r="1" gradientUnits="userSpaceOnUse" gradientTransform="translate(243.295 539.711) rotate(-87.9037) scale(551.549)">
<stop stop-color="#52C7EA" stop-opacity="0.7"/>
<stop offset="1" stop-color="#52C7EA" stop-opacity="0"/>
</radialGradient>
<radialGradient id="paint4_radial_6373_19920" cx="0" cy="0" r="1" gradientUnits="userSpaceOnUse" gradientTransform="translate(1281 16) rotate(89.0891) scale(597.576)">
<stop offset="0.43" stop-color="#4FDAB8" stop-opacity="0.2"/>
<stop offset="0.766526" stop-color="#51CCDC" stop-opacity="0.1"/>
<stop offset="1" stop-color="#52C7EA" stop-opacity="0"/>
</radialGradient>
<radialGradient id="paint5_radial_6373_19920" cx="0" cy="0" r="1" gradientUnits="userSpaceOnUse" gradientTransform="translate(1261.1 1103.13) rotate(-84.991) scale(479.961)">
<stop stop-color="#4FDAB8" stop-opacity="0.6"/>
<stop offset="0.768138" stop-color="#51CBDE" stop-opacity="0.2"/>
<stop offset="1" stop-color="#52C7EA" stop-opacity="0"/>
</radialGradient>
<radialGradient id="paint6_radial_6373_19920" cx="0" cy="0" r="1" gradientUnits="userSpaceOnUse" gradientTransform="translate(1700 171) rotate(130.355) scale(654.811 654.811)">
<stop stop-color="#4FDAB8" stop-opacity="0.2"/>
<stop offset="0.753754" stop-color="#52C7EA" stop-opacity="0"/>
</radialGradient>
<linearGradient id="paint7_linear_6373_19920" x1="881.552" y1="1268.06" x2="1092" y2="778.517" gradientUnits="userSpaceOnUse">
<stop stop-color="#3A74C6" stop-opacity="0.2"/>
<stop offset="1" stop-color="#60D1F2" stop-opacity="0"/>
</linearGradient>
<linearGradient id="paint8_linear_6373_19920" x1="1916.5" y1="876.5" x2="1634" y2="449" gradientUnits="userSpaceOnUse">
<stop stop-color="#0E2A4B" stop-opacity="0.15"/>
<stop offset="1" stop-color="#60D1F2" stop-opacity="0"/>
</linearGradient>
<linearGradient id="paint9_linear_6373_19920" x1="1744" y1="406.5" x2="1389.5" y2="231.5" gradientUnits="userSpaceOnUse">
<stop stop-color="#3A74C6" stop-opacity="0.1"/>
<stop offset="1" stop-color="#60D1F2" stop-opacity="0"/>
</linearGradient>
<linearGradient id="paint10_linear_6373_19920" x1="943.476" y1="215.976" x2="957.704" y2="182.88" gradientUnits="userSpaceOnUse">
<stop stop-color="#3A74C6" stop-opacity="0.2"/>
<stop offset="1" stop-color="#60D1F2" stop-opacity="0"/>
</linearGradient>
<linearGradient id="paint11_linear_6373_19920" x1="1876.69" y1="283.944" x2="1893.55" y2="244.736" gradientUnits="userSpaceOnUse">
<stop stop-color="#1F2B3C" stop-opacity="0.6"/>
<stop offset="1" stop-color="#0B1416" stop-opacity="0.4"/>
</linearGradient>
<linearGradient id="paint12_linear_6373_19920" x1="1790.3" y1="1156.69" x2="1996.73" y2="815.23" gradientUnits="userSpaceOnUse">
<stop stop-color="#1E413D" stop-opacity="0.1"/>
<stop offset="0.959675" stop-color="#1C93B6" stop-opacity="0.01"/>
</linearGradient>
<linearGradient id="paint13_linear_6373_19920" x1="1846.16" y1="532.858" x2="1866.68" y2="485.118" gradientUnits="userSpaceOnUse">
<stop stop-color="#3AC69C" stop-opacity="0.1"/>
<stop offset="1" stop-color="#60D1F2" stop-opacity="0"/>
</linearGradient>
<linearGradient id="paint14_linear_6373_19920" x1="805.648" y1="136.461" x2="815.931" y2="174.84" gradientUnits="userSpaceOnUse">
<stop offset="0.40073" stop-color="#0F1923"/>
<stop offset="1" stop-color="#0F1923"/>
</linearGradient>
<linearGradient id="paint15_linear_6373_19920" x1="1714.46" y1="172.624" x2="1732.03" y2="208.258" gradientUnits="userSpaceOnUse">
<stop offset="0.40073" stop-color="#101A26"/>
<stop offset="1" stop-color="#1D3651"/>
</linearGradient>
<linearGradient id="paint16_linear_6373_19920" x1="1056.43" y1="717.218" x2="1032.88" y2="749.214" gradientUnits="userSpaceOnUse">
<stop offset="0.40073" stop-color="#28566A"/>
<stop offset="1" stop-color="#2C6675"/>
</linearGradient>
<linearGradient id="paint17_linear_6373_19920" x1="1641.23" y1="666.696" x2="1675.75" y2="715.404" gradientUnits="userSpaceOnUse">
<stop stop-color="#1B3843"/>
<stop offset="1" stop-color="#25525E"/>
</linearGradient>
<clipPath id="clip0_6373_19920">
<rect width="2560" height="840" fill="white"/>
</clipPath>
</defs>
</svg>
