<?xml version="1.0" encoding="UTF-8"?>
<svg width="493px" height="264px" viewBox="0 0 493 264" version="1.1" xmlns="http://www.w3.org/2000/svg" xmlns:xlink="http://www.w3.org/1999/xlink">
    <title>infographic</title>
    <g id="Content" stroke="none" stroke-width="1" fill="none" fill-rule="evenodd">
        <g id="Desktop-HD-v.2-Copy" transform="translate(-782.000000, -1905.000000)">
            <g id="info_2" transform="translate(166.000000, 1879.000000)">
                <g id="infographic" transform="translate(616.000000, 26.000000)">
                    <rect id="Rectangle" stroke="#4BC7EC" x="0.5" y="0.5" width="492" height="263" rx="10"></rect>
                    <g id="App" transform="translate(24.000000, 24.000000)">
                        <path d="M4,0 L201,0 C203.209139,-4.05812251e-16 205,1.790861 205,4 L205,52 C205,54.209139 203.209139,56 201,56 L4,56 C1.790861,56 2.705415e-16,54.209139 0,52 L0,4 C-2.705415e-16,1.790861 1.790861,4.05812251e-16 4,0 Z" id="Rectangle-Copy-20" fill-opacity="0.06" fill="#25B8E4"></path>
                        <text id="Applications" font-family="PTMono-Regular, PT Mono" font-size="16" font-weight="normal" fill="#25B8E4">
                            <tspan x="66" y="33">Applications</tspan>
                        </text>
                        <text id="Simple-for-everyone" font-family="PTMono-Regular, PT Mono" font-size="16" font-weight="normal" fill="#25B8E4">
                            <tspan x="229" y="33">Simple for everyone</tspan>
                        </text>
                        <g id="app-icon" transform="translate(27.000000, 19.000000)" fill="#00B7E6">
                            <path d="M3.6029045,2.925 C3.6029045,1.96785 4.47841029,1.809225 5,1.8 L4.98863699,0 C3.54026939,0 1.3857325,0.77895 1.3857325,2.925 L1.3857325,6.975 C1.3857325,7.238925 1.28595976,8.1 0,8.1 L0,9.9 C0.325092844,9.9 1.3857325,9.981 1.3857325,11.025 L1.3857325,15.075 C1.3857325,16.25085 2.34521368,18 4.98863699,18 L4.98863699,16.2 C3.80965578,16.2 3.6142675,15.489225 3.6029045,15.075 L3.6029045,11.025 C3.6029045,10.121175 3.22071947,9.459675 2.67002938,8.997075 C3.32880661,8.39565 3.6029045,7.603425 3.6029045,6.975 L3.6029045,2.925 Z" id="Fill-1"></path>
                            <polygon id="Fill-3" points="6 6 15 6 15 4 6 4"></polygon>
                            <polygon id="Fill-5" points="9 8.95431782 17.9918513 9 18 7.04568218 9.00790903 7"></polygon>
                            <polygon id="Fill-6" points="9 11.9543178 17.9918511 12 18 10.0456822 9.00814892 10"></polygon>
                            <polygon id="Fill-7" points="6 15 15 15 15 13 6 13"></polygon>
                            <path d="M21.6111111,6.975 L21.6111111,2.925 C21.6111111,0.77895 19.4516667,0 18,0 L18,1.8 C18.3258333,1.8 19.3888889,1.881 19.3888889,2.925 L19.3888889,6.975 C19.3888889,7.603425 19.6633333,8.39565 20.3238889,8.997075 C19.7719444,9.459675 19.3888889,10.121175 19.3888889,11.025 L19.3888889,15.075 C19.3888889,15.338925 19.2888889,16.2 18,16.2 L18,18 C20.6494444,18 21.6111111,16.25085 21.6111111,15.075 L21.6111111,11.025 C21.6111111,10.06785 22.4883333,9.909225 23,9.9 L23,8.1 C21.8183333,8.1 21.6225,7.389225 21.6111111,6.975" id="Fill-8"></path>
                        </g>
                    </g>
                    <g id="inte" transform="translate(24.000000, 104.000000)">
                        <path d="M4,0 L201,0 C203.209139,-4.05812251e-16 205,1.790861 205,4 L205,52 C205,54.209139 203.209139,56 201,56 L4,56 C1.790861,56 2.705415e-16,54.209139 0,52 L0,4 C-2.705415e-16,1.790861 1.790861,4.05812251e-16 4,0 Z" id="Rectangle-Copy-20" fill-opacity="0.06" fill="#25B8E4"></path>
                        <text id="Partner-integrations" font-family="PTMono-Regular, PT Mono" font-size="16" font-weight="normal" fill="#25B8E4">
                            <tspan x="229" y="18">Partner integrations</tspan>
                        </text>
                        <g id="settings" transform="translate(47.000000, 14.000000)">
                            <text id="for-hardware-and-clo" font-family="IBMPlexSans-Light, IBM Plex Sans" font-size="13" font-weight="300" line-spacing="13" fill="#A2B6C7">
                                <tspan x="182" y="25">for hardware and cloud </tspan>
                                <tspan x="182" y="38">service providers</tspan>
                            </text>
                            <g id="Group" fill="#00B7E6" fill-rule="nonzero">
                                <g>
                                    <path d="M11.6752768,0 C10.5850332,0 9.66816236,0.808450185 9.41822878,1.8950369 C6.89554244,2.42557196 4.5942214,3.84392989 2.88606642,5.93535055 C1.02494465,8.21402214 0,11.1384133 0,14.1697417 C0,14.6282657 0.34695203,15 0.774907749,15 C1.20286347,15 1.5498155,14.6282657 1.5498155,14.1697417 C1.5498155,11.5407565 2.43858303,9.00476015 4.0524059,7.02885609 C5.50194834,5.25404059 7.44298893,4.03760148 9.57393358,3.55494465 C9.94712915,4.39743542 10.7485904,4.98154982 11.6752768,4.98154982 C12.9571292,4.98154982 14,3.86418819 14,2.49077491 C14,1.11736162 12.9571292,0 11.6752768,0 Z" id="Path"></path>
                                    <path d="M18.6662827,11.9870334 C18.4782167,11.8468672 18.1203884,11.6252569 17.8652783,11.5072018 L17.4625464,10.465539 C17.5619461,10.1970956 17.6706271,9.76759716 17.712264,9.51943141 C17.7573231,9.25087685 17.6767975,8.9757112 17.4967167,8.78276747 L16.4027504,7.6106607 C16.2226695,7.41766142 15.9657964,7.33138396 15.7151974,7.37971711 C15.4871019,7.42366139 15.0888293,7.53816097 14.8321636,7.64727168 L13.859945,7.21577327 C13.753338,6.9512187 13.5467091,6.56483124 13.4121022,6.35755423 C13.2667101,6.13355506 13.0281925,6 12.773549,6 L11.226451,6 C10.9718075,6 10.7332899,6.13355506 10.5878978,6.35755423 C10.4570761,6.55905348 10.2502398,6.94244095 10.140055,7.21577327 L9.16783642,7.64727168 C8.9172892,7.54077207 8.51642401,7.42432806 8.28480265,7.37971711 C8.03430728,7.33155062 7.77733045,7.41777253 7.59724964,7.6106607 L6.50328332,8.78276747 C6.32320251,8.9757112 6.24267688,9.25087685 6.28773597,9.51943141 C6.32875063,9.76381939 6.43561691,10.19054 6.53745356,10.465539 L6.13472172,11.5072018 C5.88780412,11.6214236 5.52717583,11.8428117 5.33371728,11.9870334 C5.12465139,12.1428106 5,12.3983652 5,12.6711975 L5,14.3288025 C5,14.6016348 5.12465139,14.8571894 5.33371728,15.0129666 C5.52178325,15.1531328 5.87961156,15.3747431 6.13472172,15.4927982 L6.53745356,16.534461 C6.43805393,16.8029044 6.32937285,17.2324028 6.28773597,17.4805686 C6.24267688,17.7491232 6.32320251,18.0242888 6.50328332,18.2172325 L7.59724964,19.3893393 C7.7772786,19.582283 8.03399617,19.6684494 8.28480265,19.6202829 C8.5128981,19.5763386 8.9111707,19.461839 9.16783642,19.3527283 L10.140055,19.7842267 C10.246662,20.0487813 10.4532909,20.4351688 10.5878978,20.6424458 C10.7332899,20.8664449 10.9718075,21 11.226451,21 L12.773549,21 C13.0281925,21 13.2667101,20.8664449 13.4121022,20.6424458 C13.5429239,20.4409465 13.7497602,20.057559 13.859945,19.7842267 L14.8321636,19.3527283 C15.0827108,19.4592279 15.483576,19.5756719 15.7151974,19.6202829 C15.9658483,19.6685605 16.2226695,19.582283 16.4027504,19.3893393 L17.4967167,18.2172325 C17.6767975,18.0242888 17.7573231,17.7491232 17.712264,17.4805686 C17.6712494,17.2361806 17.5643831,16.80946 17.4625464,16.534461 L17.8652783,15.4927982 C18.1121959,15.3785764 18.4728242,15.1571883 18.6662827,15.0129666 C18.8753486,14.8571894 19,14.6016348 19,14.3288025 L19,12.6711975 C19,12.3983652 18.8753486,12.1428106 18.6662827,11.9870334 Z M11.9999741,16.8334043 C10.2845138,16.8334043 8.88887449,15.3380765 8.88887449,13.5000833 C8.88887449,11.6620901 10.2845138,10.1667623 11.9999741,10.1667623 C13.7154344,10.1667623 15.1110737,11.6620901 15.1110737,13.5000833 C15.1110737,15.3380765 13.7154344,16.8334043 11.9999741,16.8334043 Z" id="Shape"></path>
                                    <path d="M23.2250923,13 C22.7971365,13 22.4501845,13.3717343 22.4501845,13.8302583 C22.4501845,16.4592435 21.561417,18.9952399 19.9475941,20.9711439 C18.4980517,22.7459594 16.5570111,23.9623985 14.4260664,24.4450554 C14.0528708,23.6025646 13.2514096,23.0184502 12.3247232,23.0184502 C11.0428708,23.0184502 10,24.1358118 10,25.5092251 C10,26.8826384 11.0428708,28 12.3247232,28 C13.4149668,28 14.3318376,27.1915498 14.5817712,26.1049631 C17.1044576,25.574428 19.4057786,24.1560701 21.1139336,22.0646494 C22.9750554,19.7859779 24,16.8615867 24,13.8302583 C24,13.3717343 23.653048,13 23.2250923,13 Z" id="Path"></path>
                                </g>
                            </g>
                            <text id="Add-ons" font-family="PTMono-Regular, PT Mono" font-size="16" font-weight="normal" fill="#25B8E4">
                                <tspan x="40" y="19">Add-ons</tspan>
                            </text>
                        </g>
                    </g>
                    <g id="opens" transform="translate(24.000000, 184.000000)">
                        <path d="M4,0 L201,0 C203.209139,-4.05812251e-16 205,1.790861 205,4 L205,52 C205,54.209139 203.209139,56 201,56 L4,56 C1.790861,56 2.705415e-16,54.209139 0,52 L0,4 C-2.705415e-16,1.790861 1.790861,4.05812251e-16 4,0 Z" id="Rectangle-Copy-20" fill-opacity="0.06" fill="#25B8E4"></path>
                        <text id="Open-Source" font-family="PTMono-Regular, PT Mono" font-size="16" font-weight="normal" fill="#25B8E4">
                            <tspan x="67" y="33">Open Source</tspan>
                        </text>
                        <text id="Ockam-core-developme" font-family="PTMono-Regular, PT Mono" font-size="16" font-weight="normal" fill="#25B8E4">
                            <tspan x="229" y="33">Ockam core development</tspan>
                        </text>
                        <g id="Group" transform="translate(32.000000, 13.000000)" fill="#00BAE9" fill-rule="nonzero">
                            <g id="Shape">
                                <path d="M16.7142857,10.8205403 L5.14285714,10.8205403 L5.14285714,6.91050427 C5.14285714,4.88807181 6.42857143,3.13529701 8.22857143,2.73081052 C10.6714286,2.32632403 12.8571429,4.21392766 12.8571429,6.77567544 C12.8571429,7.58464842 13.5,8.12396374 14.1428571,8.12396374 C14.7857143,8.12396374 15.4285714,7.58464842 15.4285714,6.77567544 C15.4285714,2.86563935 12.2142857,-0.370252577 8.35714286,0.0342339144 C5.01428571,0.438720406 2.57142857,3.53978351 2.57142857,7.0453331 L2.57142857,10.8205403 L1.28571429,10.8205403 C0.642857143,10.8205403 -8.43769499e-13,11.3598557 -8.43769499e-13,12.1688287 L-8.43769499e-13,25.6517117 C-8.43769499e-13,26.3258558 0.642857143,27 1.28571429,27 L16.7142857,27 C17.4857143,27 18,26.3258558 18,25.6517117 L18,12.1688287 C18,11.3598557 17.4857143,10.8205403 16.7142857,10.8205403 Z M9.70879586,14.0874924 C10.7472587,14.3896113 11.6373697,15.295968 11.9340734,16.3533842 C12.230777,17.7129192 11.4890179,18.9213948 10.450555,19.5256326 L10.450555,21.4894055 C10.450555,22.3957622 9.85714769,23 8.96703669,23 C8.07692568,23 7.48351834,22.3957622 7.48351834,21.4894055 L7.48351834,19.5256326 C6.59340734,18.9213948 6,18.0150381 6,16.957622 C6,14.9938491 7.78022201,13.634314 9.70879586,14.0874924 Z M9.8174014,6.00990297 C9.93300292,6.10487724 10,6.24662782 10,6.39624007 L10,8.54532775 C10,8.82147012 9.77614237,9.04532775 9.5,9.04532775 C9.34589712,9.04532775 9.20040359,8.97426794 9.10566038,8.85273019 L8.24602531,7.74997981 C8.10220352,7.56548346 8.10552792,7.30592823 8.25402783,7.12517596 L9.1136629,6.07883867 C9.28895885,5.86547058 9.60403331,5.83460702 9.8174014,6.00990297 Z M18.1825986,6.00990297 C18.3959667,5.83460702 18.7110411,5.86547058 18.8863371,6.07883867 L18.8863371,6.07883867 L19.7459722,7.12517596 C19.8944721,7.30592823 19.8977965,7.56548346 19.7539747,7.74997981 L19.7539747,7.74997981 L18.8943396,8.85273019 C18.7995964,8.97426794 18.6541029,9.04532775 18.5,9.04532775 C18.2238576,9.04532775 18,8.82147012 18,8.54532775 L18,8.54532775 L18,6.39624007 C18,6.24662782 18.0669971,6.10487724 18.1825986,6.00990297 Z"></path>
                            </g>
                        </g>
                    </g>
                    <rect id="Rectangle" fill="#00B7E6" x="236" y="51" width="8" height="1"></rect>
                    <rect id="Rectangle" fill="#00B7E6" x="236" y="131" width="8" height="1"></rect>
                    <rect id="Rectangle" fill="#00B7E6" x="236" y="213" width="8" height="1"></rect>
                </g>
            </g>
        </g>
    </g>
</svg>