<?xml version="1.0" encoding="UTF-8"?>
<svg width="541px" height="306px" viewBox="0 0 541 306" version="1.1" xmlns="http://www.w3.org/2000/svg" xmlns:xlink="http://www.w3.org/1999/xlink">
    <title>_desktophd_infographic-3</title>
    <g id="Content" stroke="none" stroke-width="1" fill="none" fill-rule="evenodd">
        <g id="Desktop-HD-v.2-Copy" transform="translate(-734.000000, -1921.000000)">
            <g id="info_2" transform="translate(166.000000, 1907.000000)">
                <g id="_desktophd_infographic-3" transform="translate(568.000000, 14.000000)">
                    <path d="M11.4756098,0.5 L529.52439,0.5 C535.560976,0.5 540.5,5.71863118 540.5,12.0969582 L540.5,293.903042 C540.5,300.281369 535.560976,305.5 529.52439,305.5 L11.4756098,305.5 C5.43902439,305.5 0.5,300.281369 0.5,293.903042 L0.5,12.0969582 C0.5,5.71863118 5.43902439,0.5 11.4756098,0.5 Z" id="Rectangle" stroke="#4BC7EC"></path>
                    <g id="App" transform="translate(41.000000, 41.000000)">
                        <path d="M4,0 L201,0 C203.2,0 205,2.05714286 205,4.57142857 L205,59.4285714 C205,61.9428571 203.2,64 201,64 L4,64 C1.8,64 0,61.9428571 0,59.4285714 L0,4.57142857 C0,2.05714286 1.8,0 4,0 Z" id="Rectangle-Copy-20" fill-opacity="0.06" fill="#25B8E4"></path>
                        <g id="Group" transform="translate(65.000000, 25.000000)" fill="#25B8E4" fill-rule="nonzero">
                            <path d="M6.9,8.9 L2.6,8.9 L1.6,12 L0.3,12 L4,0.8 L5.6,0.8 L9.3,12 L8,12 L6.9,8.9 Z M3,7.7 L6.5,7.7 L4.9,2.4 L4.7,2.4 L3,7.7 Z" id="Shape"></path>
                            <path d="M11.1,6.8 C11.1,6.7 11.1,6.6 11.1,6.4 C11.1,6.2 11.1,6.1 11.1,5.9 C11.1,5.7 11.1,5.6 11.1,5.4 C11.1,5.2 11.1,5.1 11,5 L9.9,5 L9.9,4 L12,4 L12.2,5.1 L12.3,5.1 C12.6,4.7 13,4.4 13.4,4.2 C13.8,4 14.4,3.8 15,3.8 C16.1,3.8 17,4.1 17.6,4.7 C18.2,5.3 18.5,6.4 18.5,7.8 C18.5,8.5 18.4,9.1 18.2,9.6 C18,10.1 17.7,10.6 17.4,11 C17,11.4 16.6,11.7 16.1,11.9 C15.6,12.1 15,12.2 14.4,12.2 C14.2,12.2 14,12.2 13.8,12.2 C13.6,12.2 13.5,12.2 13.3,12.1 C13.2,12.1 13,12 12.9,12 C12.8,12 12.6,11.9 12.5,11.8 L12.5,15.2 L11.3,15.2 L11.3,6.8 L11.1,6.8 Z M14.8,5 C14.5,5 14.2,5.1 13.9,5.2 C13.6,5.3 13.4,5.5 13.1,5.7 C12.9,5.9 12.7,6.1 12.6,6.3 C12.5,6.5 12.4,6.8 12.3,7 L12.3,10.6 C12.5,10.8 12.8,10.9 13.1,11 C13.4,11.1 13.8,11.1 14.3,11.1 C15.2,11.1 15.8,10.8 16.3,10.3 C16.8,9.7 17.1,8.9 17.1,7.8 C17.1,6.9 16.9,6.2 16.6,5.7 C16.2,5.2 15.6,5 14.8,5 Z" id="Shape"></path>
                            <path d="M20.7,6.8 C20.7,6.7 20.7,6.6 20.7,6.4 C20.7,6.2 20.7,6.1 20.7,5.9 C20.7,5.7 20.7,5.6 20.7,5.4 C20.7,5.2 20.7,5.1 20.6,5 L19.5,5 L19.5,4 L21.6,4 L21.8,5.1 L21.9,5.1 C22.2,4.7 22.6,4.4 23,4.2 C23.4,4 24,3.8 24.6,3.8 C25.7,3.8 26.6,4.1 27.2,4.7 C27.8,5.3 28.1,6.4 28.1,7.8 C28.1,8.5 28,9.1 27.8,9.6 C27.6,10.1 27.3,10.6 27,11 C26.6,11.4 26.2,11.7 25.7,11.9 C25.2,12.1 24.6,12.2 24,12.2 C23.8,12.2 23.6,12.2 23.4,12.2 C23.2,12.2 23.1,12.2 22.9,12.1 C22.8,12.1 22.6,12 22.5,12 C22.4,12 22.2,11.9 22.1,11.8 L22.1,15.2 L20.9,15.2 L20.9,6.8 L20.7,6.8 Z M24.4,5 C24.1,5 23.8,5.1 23.5,5.2 C23.2,5.3 23,5.5 22.7,5.7 C22.5,5.9 22.3,6.1 22.2,6.3 C22.1,6.5 22,6.7 22,7 L22,10.6 C22.2,10.8 22.5,10.9 22.8,11 C23.1,11.1 23.5,11.1 24,11.1 C24.9,11.1 25.5,10.8 26,10.3 C26.5,9.7 26.8,8.9 26.8,7.8 C26.8,6.9 26.6,6.2 26.3,5.7 C25.8,5.2 25.2,5 24.4,5 Z" id="Shape"></path>
                            <path d="M30.7,0.8 L33.4,0.8 L33.4,9.3 C33.4,10 33.5,10.4 33.7,10.7 C33.9,11 34.2,11.1 34.7,11.1 C35,11.1 35.3,11 35.6,10.9 C35.9,10.8 36.2,10.6 36.5,10.4 L37.1,11.3 C36.9,11.4 36.7,11.6 36.5,11.7 C36.3,11.8 36.1,11.9 35.9,12 C35.7,12.1 35.5,12.1 35.3,12.2 C35.1,12.2 34.9,12.3 34.7,12.3 C34.3,12.3 34,12.2 33.6,12.1 C33.3,12 33,11.8 32.8,11.6 C32.6,11.4 32.4,11.1 32.3,10.7 C32.2,10.3 32.1,9.9 32.1,9.3 L32.1,1.9 L30.7,1.9 L30.7,0.8 L30.7,0.8 Z" id="Path"></path>
                            <path d="M40.1,12 L40.1,10.9 L42.9,10.9 L42.9,5 L40.1,5 L40.1,4 L44.1,4 L44.1,10.9 L46.8,10.9 L46.8,12 L40.1,12 Z M42.4,1.7 C42.4,1.4 42.5,1.2 42.7,1 C42.9,0.8 43.1,0.7 43.4,0.7 C43.7,0.7 44,0.8 44.2,1 C44.4,1.2 44.5,1.5 44.5,1.7 C44.5,2 44.4,2.2 44.2,2.4 C44,2.6 43.7,2.7 43.4,2.7 C43.1,2.7 42.9,2.6 42.7,2.4 C42.5,2.2 42.4,2 42.4,1.7 Z" id="Shape"></path>
                            <path d="M55,5.2 C54.8,5.1 54.5,5 54.2,5 C53.9,4.9 53.6,4.9 53.4,4.9 C52.4,4.9 51.6,5.1 51.1,5.6 C50.6,6.1 50.3,6.9 50.3,7.9 C50.3,8.4 50.4,8.8 50.5,9.2 C50.6,9.6 50.9,9.9 51.1,10.1 C51.3,10.3 51.7,10.6 52.1,10.7 C52.5,10.8 52.9,10.9 53.4,10.9 C53.9,10.9 54.4,10.8 54.9,10.6 C55.4,10.4 55.8,10.2 56.1,9.9 L56.7,10.8 C56.6,10.9 56.4,11.1 56.1,11.2 C55.9,11.3 55.6,11.5 55.3,11.6 C55,11.7 54.7,11.8 54.3,11.9 C53.9,12 53.6,12 53.1,12 C52.4,12 51.8,11.9 51.3,11.7 C50.8,11.5 50.3,11.2 50,10.9 C49.6,10.5 49.4,10.1 49.2,9.6 C49,9.1 48.9,8.5 48.9,7.9 C48.9,7.2 49,6.6 49.2,6.1 C49.4,5.6 49.7,5.1 50,4.8 C50.4,4.4 50.8,4.2 51.3,4 C51.8,3.8 52.4,3.7 53,3.7 C53.8,3.7 54.4,3.8 54.9,3.9 C55.4,4 55.8,4.2 56.2,4.4 L56.2,4.4 L56.2,6.6 L55,6.6 L55,5.2 Z" id="Path"></path>
                            <path d="M59.3,4.6 C59.8,4.3 60.3,4.1 60.9,4 C61.5,3.9 62,3.8 62.6,3.8 C63.1,3.8 63.6,3.9 63.9,4.1 C64.2,4.3 64.5,4.5 64.7,4.8 C64.9,5.1 65,5.4 65.1,5.7 C65.2,6 65.2,6.4 65.2,6.7 C65.2,7.1 65.2,7.5 65.2,8 C65.2,8.5 65.2,8.9 65.2,9.4 C65.2,9.9 65.2,10.4 65.3,10.9 L66.4,10.9 L66.4,11.9 L64.3,11.9 L64.2,10.7 L64,10.7 C63.9,10.8 63.8,10.9 63.7,11.1 C63.6,11.3 63.4,11.4 63.2,11.5 C63,11.6 62.7,11.8 62.4,11.9 C62.1,12 61.7,12.1 61.3,12.1 C60.5,12.1 59.9,11.9 59.4,11.5 C58.9,11.1 58.7,10.5 58.7,9.8 C58.7,9.3 58.8,8.8 59.1,8.4 C59.3,8 59.7,7.8 60.1,7.6 C60.5,7.4 61.1,7.3 61.7,7.3 C62.3,7.3 63.1,7.3 63.8,7.4 C63.9,6.9 63.9,6.5 63.8,6.2 C63.8,5.9 63.7,5.6 63.5,5.4 C63.4,5.2 63.2,5.1 62.9,5 C62.7,4.9 62.4,4.9 62,4.9 C61.5,4.9 61.1,5 60.6,5.1 C60.2,5.2 59.8,5.4 59.4,5.5 L59.3,4.6 Z M61.7,11.1 C62,11.1 62.3,11.1 62.5,11 C62.8,10.9 63,10.8 63.2,10.6 C63.4,10.5 63.6,10.3 63.7,10.1 C63.8,9.9 63.9,9.8 64,9.6 L64,8.5 C63.4,8.4 62.9,8.4 62.5,8.4 C62,8.4 61.6,8.5 61.3,8.6 C61,8.7 60.7,8.9 60.5,9.1 C60.3,9.3 60.2,9.6 60.2,9.9 C60.2,10.3 60.3,10.6 60.6,10.8 C60.7,10.9 61.1,11.1 61.7,11.1 Z" id="Shape"></path>
                            <path d="M67.7,4 L69.6,4 L69.6,2.4 L70.9,2 L70.9,4 L75.2,4 L75.2,5.1 L70.9,5.1 L70.9,8.9 C70.9,9.7 71.1,10.3 71.5,10.6 C71.9,10.9 72.4,11.2 73.1,11.2 C73.6,11.2 74,11.1 74.4,10.9 C74.8,10.7 75.1,10.5 75.4,10.3 L75.8,11.2 C75.4,11.5 75,11.7 74.5,11.9 C74,12.1 73.5,12.2 72.9,12.2 C72.5,12.2 72.1,12.1 71.7,12 C71.3,11.9 71,11.7 70.7,11.4 C70.4,11.1 70.2,10.8 70,10.4 C69.8,10 69.7,9.5 69.7,9 L69.7,5 L67.8,5 L67.8,4 L67.7,4 Z" id="Path"></path>
                            <path d="M78.5,12 L78.5,10.9 L81.3,10.9 L81.3,5 L78.5,5 L78.5,4 L82.5,4 L82.5,10.9 L85.2,10.9 L85.2,12 L78.5,12 Z M80.8,1.7 C80.8,1.4 80.9,1.2 81.1,1 C81.3,0.8 81.5,0.7 81.8,0.7 C82.1,0.7 82.4,0.8 82.6,1 C82.8,1.2 82.9,1.5 82.9,1.7 C82.9,2 82.8,2.2 82.6,2.4 C82.4,2.6 82.1,2.7 81.8,2.7 C81.5,2.7 81.3,2.6 81.1,2.4 C80.9,2.2 80.8,2 80.8,1.7 Z" id="Shape"></path>
                            <path d="M87.3,8 C87.3,6.7 87.6,5.7 88.3,4.9 C89,4.1 89.9,3.8 91.2,3.8 C91.9,3.8 92.5,3.9 92.9,4.1 C93.4,4.3 93.8,4.6 94.1,5 C94.4,5.4 94.7,5.8 94.8,6.3 C95,6.8 95,7.4 95,7.9 C95,8.5 94.9,9.1 94.7,9.6 C94.5,10.1 94.3,10.6 93.9,10.9 C93.6,11.3 93.2,11.5 92.7,11.7 C92.2,11.9 91.7,12 91,12 C90.3,12 89.8,11.9 89.3,11.7 C88.8,11.5 88.4,11.2 88.1,10.8 C87.8,10.4 87.5,10 87.4,9.5 C87.4,9.1 87.3,8.6 87.3,8 Z M88.6,8 C88.6,8.4 88.6,8.7 88.7,9.1 C88.8,9.5 88.9,9.8 89.1,10.1 C89.3,10.4 89.6,10.6 89.9,10.8 C90.2,11 90.6,11.1 91.1,11.1 C92,11.1 92.6,10.8 93,10.3 C93.4,9.8 93.6,9 93.6,8 C93.6,7.6 93.6,7.2 93.5,6.9 C93.4,6.5 93.3,6.2 93.1,5.9 C92.9,5.6 92.6,5.4 92.3,5.2 C92,5 91.6,4.9 91.1,4.9 C90.2,4.9 89.6,5.2 89.2,5.7 C88.8,6.2 88.6,7 88.6,8 Z" id="Shape"></path>
                            <path d="M97.5,6.8 C97.5,6.7 97.5,6.6 97.5,6.4 C97.5,6.2 97.5,6.1 97.5,5.9 C97.5,5.7 97.5,5.6 97.5,5.4 C97.5,5.2 97.5,5.1 97.4,5 L96.3,5 L96.3,4 L98.4,4 L98.5,5.3 L98.6,5.3 C98.7,5.1 98.8,4.9 99,4.8 C99.2,4.6 99.4,4.5 99.6,4.3 C99.8,4.2 100.1,4 100.4,4 C100.7,3.9 101,3.9 101.3,3.9 C101.8,3.9 102.2,4 102.6,4.1 C103,4.2 103.3,4.4 103.5,4.7 C103.8,5 103.9,5.3 104.1,5.8 C104.3,6.3 104.3,6.9 104.3,7.6 L104.3,12 L103,12 L103,7.7 C103,6.8 102.9,6.2 102.6,5.7 C102.3,5.3 101.8,5 101,5 C100.7,5 100.5,5.1 100.2,5.2 C99.9,5.3 99.7,5.5 99.5,5.6 C99.3,5.7 99.1,6 98.9,6.2 C98.7,6.4 98.6,6.7 98.5,7 L98.5,12 L97.3,12 L97.3,6.8 L97.5,6.8 Z" id="Path"></path>
                            <path d="M112.6,9.8 C112.6,9.5 112.5,9.2 112.2,9 C111.9,8.8 111.6,8.7 111.2,8.6 C110.8,8.5 110.4,8.4 109.9,8.3 C109.4,8.2 109,8.1 108.6,7.9 C108.2,7.7 107.9,7.5 107.6,7.3 C107.3,7 107.2,6.6 107.2,6.2 C107.2,5.8 107.3,5.4 107.5,5.2 C107.7,4.9 107.9,4.7 108.2,4.5 C108.5,4.3 108.8,4.2 109.2,4.1 C109.6,4 110,4 110.4,4 C111.1,4 111.8,4.1 112.3,4.3 C112.8,4.5 113.3,4.7 113.6,4.9 L113.1,5.9 C112.7,5.7 112.4,5.5 112,5.3 C111.6,5.1 111.1,5 110.5,5 C110.3,5 110,5 109.8,5.1 C109.6,5.1 109.4,5.2 109.2,5.3 C109,5.4 108.9,5.5 108.8,5.7 C108.7,5.9 108.6,6 108.6,6.3 C108.6,6.6 108.7,6.8 109,6.9 C109.3,7 109.6,7.2 110,7.3 C110.4,7.4 110.8,7.5 111.3,7.6 C111.8,7.7 112.2,7.8 112.6,8 C113,8.2 113.3,8.4 113.6,8.7 C113.9,9 114,9.4 114,9.9 C114,10.6 113.7,11.2 113.1,11.7 C112.5,12.2 111.6,12.4 110.5,12.4 C110.1,12.4 109.8,12.4 109.5,12.3 C109.2,12.2 108.8,12.2 108.5,12 C108.2,11.9 107.9,11.8 107.7,11.6 C107.5,11.5 107.3,11.3 107.1,11.2 L107.7,10.2 C107.8,10.3 108,10.5 108.2,10.6 C108.4,10.7 108.6,10.9 108.9,11 C109.2,11.1 109.4,11.2 109.7,11.3 C110,11.4 110.3,11.4 110.6,11.4 C110.9,11.4 111.2,11.4 111.4,11.3 C111.6,11.3 111.9,11.2 112.1,11.1 C112.3,11 112.4,10.9 112.6,10.7 C112.5,10.3 112.6,10.1 112.6,9.8 Z" id="Path"></path>
                        </g>
                        <g id="Group" transform="translate(237.000000, 25.000000)" fill="#25B8E4" fill-rule="nonzero">
                            <path d="M2.4,10.4 C2.7,10.6 3.1,10.7 3.5,10.8 C3.9,10.9 4.3,11 4.7,11 C5.1,11 5.4,11 5.7,10.9 C6,10.8 6.3,10.7 6.5,10.6 C6.7,10.4 6.9,10.3 7,10 C7.1,9.8 7.2,9.5 7.2,9.2 C7.2,8.8 7.1,8.4 6.8,8.1 C6.5,7.8 6.1,7.6 5.7,7.4 C5.3,7.2 4.8,7 4.3,6.8 C3.8,6.6 3.3,6.4 2.9,6.1 C2.5,5.8 2.1,5.5 1.8,5.1 C1.5,4.7 1.4,4.2 1.4,3.6 C1.4,3.2 1.5,2.8 1.7,2.4 C1.9,2 2.1,1.7 2.4,1.5 C2.7,1.3 3.1,1.1 3.6,0.9 C4.1,0.8 4.6,0.7 5.1,0.7 C5.7,0.7 6.3,0.7 6.8,0.8 C7.3,0.9 7.7,1 8,1.2 L8,1.2 L8,1.2 L8,1.2 L8,1.2 L8,3.8 L6.8,3.8 L6.8,2 C6.5,1.9 6.2,1.9 5.9,1.8 C5.6,1.8 5.2,1.7 4.9,1.7 C4.5,1.7 4.2,1.7 3.9,1.8 C3.6,1.9 3.4,2 3.2,2.1 C3,2.2 2.9,2.4 2.7,2.6 C2.6,2.8 2.5,3 2.5,3.2 C2.5,3.6 2.6,4 2.9,4.2 C3.2,4.4 3.6,4.7 4,4.9 C4.4,5.1 4.9,5.3 5.4,5.5 C5.9,5.7 6.4,6 6.8,6.2 C7.2,6.5 7.6,6.8 7.9,7.2 C8.2,7.6 8.3,8.1 8.3,8.7 C8.3,9.2 8.2,9.6 8,10 C7.8,10.4 7.6,10.7 7.2,11 C6.8,11.3 6.5,11.5 6,11.6 C5.5,11.7 5,11.8 4.4,11.8 C4,11.8 3.6,11.8 3.2,11.7 C2.8,11.6 2.5,11.6 2.2,11.5 C1.9,11.4 1.6,11.3 1.4,11.2 C1.2,11.1 1,11 0.8,10.9 L0.8,10.9 L0.8,8.3 L2,8.3 L2,10.4 L2.4,10.4 Z" id="Path"></path>
                            <path d="M11.3,12 L11.3,10.9 L14.1,10.9 L14.1,5 L11.3,5 L11.3,4 L15.3,4 L15.3,10.9 L18,10.9 L18,12 L11.3,12 Z M13.6,1.7 C13.6,1.4 13.7,1.2 13.9,1 C14.1,0.8 14.3,0.7 14.6,0.7 C14.9,0.7 15.2,0.8 15.4,1 C15.6,1.2 15.7,1.5 15.7,1.7 C15.7,2 15.6,2.2 15.4,2.4 C15.2,2.6 14.9,2.7 14.6,2.7 C14.3,2.7 14.1,2.6 13.9,2.4 C13.7,2.2 13.6,2 13.6,1.7 Z" id="Shape"></path>
                            <path d="M23.4,12 L23.4,6.7 C23.4,6.5 23.4,6.3 23.4,6.1 C23.4,5.9 23.3,5.7 23.3,5.5 C23.2,5.3 23.2,5.2 23,5.1 C22.9,5 22.7,5 22.6,5 C22.2,5 21.9,5.1 21.7,5.4 C21.5,5.7 21.3,6.1 21.1,6.5 L21.1,12 L19.9,12 L19.9,4 L20.7,4 L20.9,5 L21,5 C21.1,4.8 21.2,4.7 21.3,4.5 C21.4,4.4 21.5,4.2 21.7,4.1 C21.8,4 22,3.9 22.2,3.9 C22.4,3.8 22.6,3.8 22.9,3.8 C23.1,3.8 23.2,3.8 23.4,3.9 C23.6,4 23.7,4 23.9,4.1 C24,4.2 24.2,4.3 24.3,4.5 C24.4,4.7 24.5,4.9 24.5,5.1 C24.7,4.7 25,4.4 25.3,4.1 C25.6,3.9 26,3.7 26.6,3.7 C27,3.7 27.2,3.8 27.5,3.9 C27.7,4 27.9,4.2 28,4.4 C28.1,4.6 28.2,4.9 28.3,5.2 C28.3,5.5 28.4,5.8 28.4,6.2 L28.4,12 L27.2,12 L27.2,6.6 C27.2,6.4 27.2,6.2 27.2,6 C27.2,5.8 27.1,5.6 27.1,5.5 C27.1,5.4 27,5.2 26.9,5.1 C26.8,5 26.7,5 26.5,5 C26.1,5 25.8,5.1 25.6,5.4 C25.4,5.7 25.2,6.1 25,6.7 L25,12 L23.4,12 Z" id="Path"></path>
                            <path d="M30.3,6.8 C30.3,6.7 30.3,6.6 30.3,6.4 C30.3,6.2 30.3,6.1 30.3,5.9 C30.3,5.7 30.3,5.6 30.3,5.4 C30.3,5.2 30.3,5.1 30.2,5 L29.1,5 L29.1,4 L31.2,4 L31.4,5.1 L31.5,5.1 C31.8,4.7 32.2,4.4 32.6,4.2 C33,4 33.6,3.8 34.2,3.8 C35.3,3.8 36.2,4.1 36.8,4.7 C37.4,5.3 37.7,6.4 37.7,7.8 C37.7,8.5 37.6,9.1 37.4,9.6 C37.2,10.1 36.9,10.6 36.6,11 C36.2,11.4 35.8,11.7 35.3,11.9 C34.8,12.1 34.2,12.2 33.6,12.2 C33.4,12.2 33.2,12.2 33,12.2 C32.8,12.2 32.7,12.2 32.5,12.1 C32.4,12.1 32.2,12 32.1,12 C32,12 31.8,11.9 31.7,11.8 L31.7,15.2 L30.5,15.2 L30.5,6.8 L30.3,6.8 Z M34,5 C33.7,5 33.4,5.1 33.1,5.2 C32.8,5.3 32.6,5.5 32.3,5.7 C32,5.9 31.9,6.1 31.8,6.3 C31.7,6.5 31.6,6.8 31.5,7 L31.5,10.6 C31.7,10.8 32,10.9 32.3,11 C32.6,11.1 33,11.1 33.5,11.1 C34.4,11.1 35,10.8 35.5,10.3 C36,9.7 36.3,8.9 36.3,7.8 C36.3,6.9 36.1,6.2 35.8,5.7 C35.4,5.2 34.8,5 34,5 Z" id="Shape"></path>
                            <path d="M40.3,0.8 L43,0.8 L43,9.3 C43,10 43.1,10.4 43.3,10.7 C43.5,11 43.8,11.1 44.3,11.1 C44.6,11.1 44.9,11 45.2,10.9 C45.5,10.8 45.8,10.6 46.1,10.4 L46.7,11.3 C46.5,11.4 46.3,11.6 46.1,11.7 C45.9,11.8 45.7,11.9 45.5,12 C45.3,12.1 45.1,12.1 44.9,12.2 C44.7,12.2 44.5,12.3 44.3,12.3 C43.9,12.3 43.6,12.2 43.2,12.1 C42.9,12 42.6,11.8 42.4,11.6 C42.2,11.4 42,11.1 41.9,10.7 C41.8,10.3 41.7,9.9 41.7,9.3 L41.7,1.9 L40.3,1.9 L40.3,0.8 L40.3,0.8 Z" id="Path"></path>
                            <path d="M56.5,11 C56.3,11.2 56.1,11.3 55.8,11.5 C55.5,11.7 55.3,11.8 54.9,11.9 C54.6,12 54.3,12.1 53.9,12.1 C53.5,12.1 53.2,12.2 52.9,12.2 C52.3,12.2 51.7,12.1 51.2,11.9 C50.7,11.7 50.3,11.4 50,11.1 C49.7,10.7 49.4,10.3 49.2,9.8 C49,9.3 48.9,8.7 48.9,8.1 C48.9,7.4 49,6.8 49.2,6.3 C49.4,5.8 49.7,5.3 50,5 C50.4,4.6 50.8,4.4 51.3,4.2 C51.8,4 52.4,3.9 53,3.9 C53.4,3.9 53.9,4 54.3,4.1 C54.7,4.2 55.1,4.4 55.5,4.8 C55.8,5.1 56.1,5.6 56.3,6.1 C56.5,6.7 56.5,7.4 56.5,8.3 L50.3,8.3 C50.3,9.3 50.6,10 51.1,10.5 C51.6,11 52.3,11.2 53.2,11.2 C53.5,11.2 53.8,11.2 54.1,11.1 C54.4,11 54.7,10.9 54.9,10.9 C55.2,10.8 55.4,10.7 55.6,10.6 C55.8,10.5 55.9,10.4 56.1,10.3 L56.5,11 Z M53.1,4.9 C52.7,4.9 52.4,4.9 52.1,5 C51.8,5.1 51.5,5.2 51.3,5.4 C51.1,5.6 50.9,5.8 50.7,6.1 C50.5,6.4 50.4,6.7 50.4,7.1 L55.4,7.1 C55.3,6.4 55.1,5.9 54.7,5.5 C54.3,5.1 53.7,4.9 53.1,4.9 Z" id="Shape"></path>
                            <path d="M68.6,12 L68.6,10.9 L70.5,10.9 L70.5,5 L68.6,5 L68.6,4 L70.5,4 L70.5,3.6 C70.5,2.6 70.8,1.9 71.3,1.4 C71.8,1 72.6,0.7 73.5,0.7 C73.9,0.7 74.2,0.7 74.4,0.8 C74.7,0.8 75,0.9 75.3,1.1 L75,2.1 C74.7,2 74.5,1.9 74.2,1.9 C73.9,1.9 73.7,1.8 73.5,1.8 C72.8,1.8 72.3,2 72.1,2.3 C71.9,2.6 71.7,3.2 71.7,4 L75,4 L75,5.1 L71.7,5.1 L71.7,11 L75,11 L75,12 L68.6,12 Z" id="Path"></path>
                            <path d="M77.7,8 C77.7,6.7 78,5.7 78.7,4.9 C79.4,4.1 80.3,3.8 81.6,3.8 C82.3,3.8 82.9,3.9 83.3,4.1 C83.8,4.3 84.2,4.6 84.5,5 C84.8,5.4 85.1,5.8 85.2,6.3 C85.4,6.8 85.4,7.4 85.4,7.9 C85.4,8.5 85.3,9.1 85.1,9.6 C84.9,10.1 84.7,10.6 84.3,10.9 C84,11.3 83.6,11.5 83.1,11.7 C82.6,11.9 82.1,12 81.4,12 C80.7,12 80.2,11.9 79.7,11.7 C79.2,11.5 78.8,11.2 78.5,10.8 C78.2,10.4 77.9,10 77.8,9.5 C77.8,9.1 77.7,8.6 77.7,8 Z M79,8 C79,8.4 79,8.7 79.1,9.1 C79.2,9.5 79.3,9.8 79.5,10.1 C79.7,10.4 80,10.6 80.3,10.8 C80.6,11 81,11.1 81.5,11.1 C82.4,11.1 83,10.8 83.4,10.3 C83.8,9.8 84,9 84,8 C84,7.6 84,7.2 83.9,6.9 C83.8,6.5 83.7,6.2 83.5,5.9 C83.3,5.6 83,5.4 82.7,5.2 C82.4,5 82,4.9 81.5,4.9 C80.6,4.9 80,5.2 79.6,5.7 C79.2,6.2 79,7 79,8 Z" id="Shape"></path>
                            <path d="M87.5,12 L87.5,10.9 L89.7,10.9 L89.7,5 L87.5,5 L87.5,4 L90.5,4 L90.8,5 L90.9,5 C91.3,4.7 91.7,4.4 92.1,4.2 C92.5,4 93.1,3.8 93.7,3.8 C94.1,3.8 94.4,3.9 94.6,4 C94.8,4.1 95,4.3 95.1,4.6 C95.2,4.9 95.3,5.2 95.3,5.6 C95.3,6 95.4,6.4 95.4,6.9 L94.3,6.9 C94.3,6.2 94.2,5.7 94.1,5.4 C94,5.1 93.7,4.9 93.4,4.9 C93.1,4.9 92.8,4.9 92.5,5 C92.2,5.1 92,5.2 91.8,5.4 C91.6,5.5 91.4,5.7 91.3,5.8 C91.2,5.9 91.1,6.1 91,6.2 L91,10.9 L94.1,10.9 L94.1,12 L87.5,12 Z" id="Path"></path>
                            <path d="M114.1,11 C113.9,11.2 113.7,11.3 113.4,11.5 C113.1,11.7 112.9,11.8 112.5,11.9 C112.2,12 111.9,12.1 111.5,12.1 C111.1,12.1 110.8,12.2 110.5,12.2 C109.9,12.2 109.3,12.1 108.8,11.9 C108.3,11.7 107.9,11.4 107.6,11.1 C107.3,10.7 107,10.3 106.8,9.8 C106.6,9.3 106.5,8.7 106.5,8.1 C106.5,7.4 106.6,6.8 106.8,6.3 C107,5.8 107.3,5.3 107.6,5 C108,4.6 108.4,4.4 108.9,4.2 C109.4,4 110,3.9 110.6,3.9 C111,3.9 111.5,4 111.9,4.1 C112.3,4.2 112.7,4.4 113.1,4.8 C113.4,5.1 113.7,5.6 113.9,6.1 C114.1,6.7 114.1,7.4 114.1,8.3 L107.9,8.3 C107.9,9.3 108.2,10 108.7,10.5 C109.2,11 109.9,11.2 110.8,11.2 C111.1,11.2 111.4,11.2 111.7,11.1 C112,11 112.3,10.9 112.5,10.9 C112.8,10.8 113,10.7 113.2,10.6 C113.4,10.5 113.5,10.4 113.7,10.3 L114.1,11 Z M110.7,4.9 C110.3,4.9 110,4.9 109.7,5 C109.4,5.1 109.1,5.2 108.9,5.4 C108.7,5.6 108.5,5.8 108.3,6.1 C108.1,6.4 108,6.7 108,7.1 L113,7.1 C112.9,6.4 112.7,5.9 112.3,5.5 C111.9,5.1 111.3,4.9 110.7,4.9 Z" id="Shape"></path>
                            <polygon id="Path" points="120 10.4 120.2 10.4 122.7 4 124.1 4 120.7 12 119.3 12 115.9 4 117.4 4"></polygon>
                            <path d="M133.3,11 C133.1,11.2 132.9,11.3 132.6,11.5 C132.3,11.7 132.1,11.8 131.7,11.9 C131.4,12 131.1,12.1 130.7,12.1 C130.3,12.1 130,12.2 129.7,12.2 C129.1,12.2 128.5,12.1 128,11.9 C127.5,11.7 127.1,11.4 126.8,11.1 C126.5,10.7 126.2,10.3 126,9.8 C125.8,9.3 125.7,8.7 125.7,8.1 C125.7,7.4 125.8,6.8 126,6.3 C126.2,5.8 126.5,5.3 126.8,5 C127.2,4.6 127.6,4.4 128.1,4.2 C128.6,4 129.2,3.9 129.8,3.9 C130.2,3.9 130.7,4 131.1,4.1 C131.5,4.2 131.9,4.4 132.3,4.8 C132.6,5.1 132.9,5.6 133.1,6.1 C133.3,6.7 133.3,7.4 133.3,8.3 L127.1,8.3 C127.1,9.3 127.4,10 127.9,10.5 C128.4,11 129.1,11.2 130,11.2 C130.3,11.2 130.6,11.2 130.9,11.1 C131.2,11 131.5,10.9 131.7,10.9 C132,10.8 132.2,10.7 132.4,10.6 C132.6,10.5 132.7,10.4 132.9,10.3 L133.3,11 Z M129.9,4.9 C129.5,4.9 129.2,4.9 128.9,5 C128.6,5.1 128.3,5.2 128.1,5.4 C127.9,5.6 127.7,5.8 127.5,6.1 C127.3,6.4 127.2,6.7 127.2,7.1 L132.2,7.1 C132.1,6.4 131.9,5.9 131.5,5.5 C131.1,5.1 130.5,4.9 129.9,4.9 Z" id="Shape"></path>
                            <path d="M135.5,12 L135.5,10.9 L137.7,10.9 L137.7,5 L135.5,5 L135.5,4 L138.5,4 L138.8,5 L138.9,5 C139.3,4.7 139.7,4.4 140.1,4.2 C140.5,4 141.1,3.8 141.7,3.8 C142.1,3.8 142.4,3.9 142.6,4 C142.8,4.1 143,4.3 143.1,4.6 C143.2,4.9 143.3,5.2 143.3,5.6 C143.3,6 143.4,6.4 143.4,6.9 L142.3,6.9 C142.3,6.2 142.2,5.7 142.1,5.4 C142,5.1 141.7,4.9 141.4,4.9 C141.1,4.9 140.8,4.9 140.5,5 C140.2,5.1 140,5.2 139.8,5.4 C139.6,5.5 139.4,5.7 139.3,5.8 C139.2,5.9 139.1,6.1 139,6.2 L139,10.9 L142.1,10.9 L142.1,12 L135.5,12 Z" id="Path"></path>
                            <path d="M149,10.8 L149.6,10.8 L151.6,4 L152.9,4 L150.7,11.2 C150.6,11.6 150.5,12 150.3,12.5 C150.2,13 150,13.4 149.8,13.8 C149.6,14.2 149.3,14.6 148.9,14.9 C148.5,15.2 148,15.3 147.4,15.3 C147.3,15.3 147.1,15.3 147,15.3 C146.8,15.3 146.7,15.2 146.5,15.2 C146.3,15.2 146.2,15.1 146.1,15 C146,14.9 145.9,14.9 145.8,14.8 L146.2,13.6 C146.3,13.7 146.4,13.7 146.5,13.8 C146.6,13.9 146.7,13.9 146.9,13.9 C147,13.9 147.2,14 147.3,14 C147.4,14 147.5,14 147.6,14 C148.4,14 148.9,13.3 149.2,12 L148.1,12 L144.7,4 L146.1,4 L149,10.8 Z" id="Path"></path>
                            <path d="M154.5,8 C154.5,6.7 154.8,5.7 155.5,4.9 C156.2,4.1 157.1,3.8 158.4,3.8 C159.1,3.8 159.7,3.9 160.1,4.1 C160.6,4.3 161,4.6 161.3,5 C161.6,5.4 161.9,5.8 162,6.3 C162.2,6.8 162.2,7.4 162.2,7.9 C162.2,8.5 162.1,9.1 161.9,9.6 C161.7,10.1 161.5,10.6 161.1,10.9 C160.8,11.3 160.4,11.5 159.9,11.7 C159.4,11.9 158.9,12 158.2,12 C157.5,12 157,11.9 156.5,11.7 C156,11.5 155.6,11.2 155.3,10.8 C155,10.4 154.7,10 154.6,9.5 C154.6,9.1 154.5,8.6 154.5,8 Z M155.8,8 C155.8,8.4 155.8,8.7 155.9,9.1 C156,9.5 156.1,9.8 156.3,10.1 C156.5,10.4 156.8,10.6 157.1,10.8 C157.4,11 157.8,11.1 158.3,11.1 C159.2,11.1 159.8,10.8 160.2,10.3 C160.6,9.8 161,9 161,8 C161,7.6 161,7.2 160.9,6.9 C160.8,6.5 160.7,6.2 160.5,5.9 C160.3,5.6 160,5.4 159.7,5.2 C159.4,5 159,4.9 158.5,4.9 C157.6,4.9 157,5.2 156.6,5.7 C156.2,6.2 155.8,7 155.8,8 Z" id="Shape"></path>
                            <path d="M164.7,6.8 C164.7,6.7 164.7,6.6 164.7,6.4 C164.7,6.2 164.7,6.1 164.7,5.9 C164.7,5.7 164.7,5.6 164.7,5.4 C164.7,5.2 164.7,5.1 164.6,5 L163.5,5 L163.5,4 L165.6,4 L165.7,5.3 L165.8,5.3 C165.9,5.1 166,4.9 166.2,4.8 C166.4,4.7 166.6,4.5 166.8,4.3 C167,4.2 167.3,4 167.6,4 C167.9,3.9 168.2,3.9 168.5,3.9 C169,3.9 169.4,4 169.8,4.1 C170.2,4.2 170.5,4.4 170.7,4.7 C170.9,5 171.1,5.3 171.3,5.8 C171.5,6.3 171.5,6.9 171.5,7.6 L171.5,12 L170.2,12 L170.2,7.7 C170.2,6.8 170.1,6.2 169.8,5.7 C169.5,5.3 169,5 168.2,5 C167.9,5 167.7,5.1 167.4,5.2 C167.1,5.3 166.9,5.5 166.7,5.6 C166.5,5.8 166.3,6 166.1,6.2 C165.9,6.4 165.8,6.7 165.8,7 L165.8,12 L164.6,12 L164.6,6.8 L164.7,6.8 Z" id="Path"></path>
                            <path d="M181.3,11 C181.1,11.2 180.9,11.3 180.6,11.5 C180.3,11.6 180.1,11.8 179.7,11.9 C179.4,12 179.1,12.1 178.7,12.1 C178.3,12.1 178,12.2 177.7,12.2 C177.1,12.2 176.5,12.1 176,11.9 C175.5,11.7 175.1,11.4 174.8,11.1 C174.5,10.8 174.2,10.3 174,9.8 C173.8,9.3 173.7,8.7 173.7,8.1 C173.7,7.4 173.8,6.8 174,6.3 C174.2,5.8 174.5,5.3 174.8,5 C175.2,4.6 175.6,4.4 176.1,4.2 C176.6,4 177.2,3.9 177.8,3.9 C178.2,3.9 178.7,4 179.1,4.1 C179.5,4.2 179.9,4.4 180.3,4.8 C180.6,5.1 180.9,5.6 181.1,6.1 C181.3,6.6 181.3,7.4 181.3,8.3 L175.1,8.3 C175.1,9.3 175.4,10 175.9,10.5 C176.4,11 177.1,11.2 178,11.2 C178.3,11.2 178.6,11.2 178.9,11.1 C179.2,11 179.4,10.9 179.7,10.9 C180,10.8 180.2,10.7 180.4,10.6 C180.6,10.5 180.7,10.4 180.9,10.3 L181.3,11 Z M177.9,4.9 C177.5,4.9 177.2,4.9 176.9,5 C176.6,5.1 176.3,5.2 176.1,5.4 C175.9,5.6 175.7,5.8 175.5,6.1 C175.3,6.4 175.2,6.7 175.2,7.1 L180.2,7.1 C180.1,6.4 179.9,5.9 179.5,5.5 C179.1,5.1 178.5,4.9 177.9,4.9 Z" id="Shape"></path>
                        </g>
                        <g id="app-icon" transform="translate(26.000000, 24.000000)" fill="#00B7E6">
                            <path d="M3.6,2.9 C3.6,1.9 4.5,1.8 5,1.8 L5,0 C3.5,0 1.4,0.8 1.4,2.9 L1.4,7 C1.4,7.3 1.3,8.1 0,8.1 L0,9.9 C0.3,9.9 1.4,10 1.4,11 L1.4,15.1 C1.4,16.3 2.4,18 5,18 L5,16.2 C3.8,16.2 3.6,15.5 3.6,15.1 L3.6,11 C3.6,10.1 3.2,9.4 2.7,9 C3.4,8.4 3.6,7.6 3.6,7 L3.6,2.9 Z" id="Fill-1"></path>
                            <polygon id="Fill-3" points="6 6 15 6 15 4 6 4"></polygon>
                            <polygon id="Fill-5" points="9 9 18 9 18 7 9 7"></polygon>
                            <polygon id="Fill-6" points="9 12 18 12 18 10 9 10"></polygon>
                            <polygon id="Fill-7" points="6 15 15 15 15 13 6 13"></polygon>
                            <path d="M21.6,7 L21.6,2.9 C21.6,0.8 19.5,0 18,0 L18,1.8 C18.3,1.8 19.4,1.9 19.4,2.9 L19.4,7 C19.4,7.6 19.7,8.4 20.3,9 C19.7,9.5 19.4,10.1 19.4,11 L19.4,15.1 C19.4,15.4 19.3,16.2 18,16.2 L18,18 C20.6,18 21.6,16.3 21.6,15.1 L21.6,11 C21.6,10 22.5,9.9 23,9.9 L23,8.1 C21.8,8.1 21.6,7.4 21.6,7" id="Fill-8"></path>
                        </g>
                    </g>
                    <g id="inte" transform="translate(41.000000, 121.000000)">
                        <path d="M4,0 L201,0 C203.2,0 205,2.05714286 205,4.57142857 L205,59.4285714 C205,61.9428571 203.2,64 201,64 L4,64 C1.8,64 0,61.9428571 0,59.4285714 L0,4.57142857 C0,2.05714286 1.8,0 4,0 Z" id="Rectangle-Copy-20_1_" fill-opacity="0.06" fill="#25B8E4"></path>
                        <g id="Group" transform="translate(237.000000, 13.000000)" fill="#25B8E4" fill-rule="nonzero">
                            <path d="M0.6,0.9 C1,0.8 1.4,0.7 1.9,0.7 C2.4,0.7 2.8,0.7 3.3,0.7 C3.8,0.7 4.3,0.7 4.8,0.8 C5.3,0.9 5.8,1.1 6.2,1.3 C6.6,1.5 7,1.9 7.2,2.4 C7.5,2.8 7.6,3.4 7.6,4.1 C7.6,4.8 7.5,5.4 7.2,5.8 C7,6.3 6.6,6.7 6.2,6.9 C5.8,7.2 5.3,7.4 4.8,7.5 C4.3,7.6 3.7,7.7 3.2,7.7 C3.1,7.7 3.1,7.7 2.9,7.7 C2.8,7.7 2.6,7.7 2.5,7.7 C2.4,7.7 2.2,7.7 2.1,7.7 C2,7.7 1.9,7.7 1.8,7.7 L1.8,12 L0.5,12 L0.5,0.9 L0.6,0.9 Z M3.3,1.8 C3,1.8 2.8,1.8 2.5,1.8 C2.2,1.8 2,1.8 1.9,1.9 L1.9,6.5 C2,6.5 2,6.5 2.2,6.5 C2.3,6.5 2.4,6.5 2.6,6.5 C2.7,6.5 2.9,6.5 3,6.5 C3.1,6.5 3.2,6.5 3.3,6.5 C3.7,6.5 4,6.5 4.4,6.4 C4.8,6.3 5.1,6.2 5.4,6 C5.7,5.8 5.9,5.6 6.1,5.2 C6.3,4.9 6.4,4.4 6.4,3.9 C6.4,3.5 6.3,3.1 6.2,2.8 C6,2.5 5.8,2.3 5.5,2.1 C5.2,1.9 4.9,1.8 4.6,1.7 C4,1.9 3.7,1.8 3.3,1.8 Z" id="Shape"></path>
                            <path d="M10.3,4.6 C10.8,4.3 11.3,4.1 11.9,4 C12.5,3.9 13,3.8 13.6,3.8 C14.1,3.8 14.6,3.9 14.9,4.1 C15.2,4.3 15.5,4.5 15.7,4.8 C15.9,5.1 16,5.4 16.1,5.7 C16.2,6 16.2,6.4 16.2,6.7 C16.2,7.1 16.2,7.5 16.2,8 C16.2,8.5 16.2,8.9 16.2,9.4 C16.2,9.9 16.2,10.4 16.3,10.9 L17.4,10.9 L17.4,11.9 L15.3,11.9 L15.2,10.7 L15,10.7 C14.9,10.8 14.8,10.9 14.7,11.1 C14.6,11.3 14.4,11.4 14.2,11.5 C14,11.6 13.7,11.8 13.4,11.9 C13.1,12 12.7,12.1 12.3,12.1 C11.5,12.1 10.9,11.9 10.4,11.5 C9.9,11.1 9.7,10.5 9.7,9.8 C9.7,9.3 9.8,8.8 10.1,8.4 C10.3,8 10.7,7.8 11.1,7.6 C11.6,7.4 12.1,7.3 12.7,7.3 C13.3,7.3 14.1,7.3 14.8,7.4 C14.9,6.9 14.9,6.5 14.8,6.2 C14.8,5.9 14.7,5.6 14.5,5.4 C14.4,5.2 14.2,5.1 13.9,5 C13.7,4.9 13.4,4.9 13,4.9 C12.5,4.9 12.1,5 11.6,5.1 C11.2,5.2 10.8,5.4 10.4,5.5 L10.3,4.6 Z M12.7,11.1 C13,11.1 13.3,11.1 13.5,11 C13.8,10.9 14,10.8 14.2,10.6 C14.4,10.5 14.6,10.3 14.7,10.1 C14.8,9.9 14.9,9.8 15,9.6 L15,8.5 C14.4,8.4 13.9,8.4 13.5,8.4 C13,8.4 12.6,8.5 12.3,8.6 C12,8.7 11.7,8.9 11.5,9.1 C11.3,9.3 11.2,9.6 11.2,9.9 C11.2,10.3 11.3,10.6 11.6,10.8 C11.7,10.9 12.1,11.1 12.7,11.1 Z" id="Shape"></path>
                            <path d="M19.3,12 L19.3,10.9 L21.5,10.9 L21.5,5 L19.3,5 L19.3,4 L22.3,4 L22.6,5 L22.7,5 C23.1,4.7 23.5,4.4 23.9,4.2 C24.3,4 24.9,3.8 25.5,3.8 C25.9,3.8 26.2,3.9 26.4,4 C26.6,4.1 26.8,4.3 26.9,4.6 C27,4.9 27.1,5.2 27.1,5.6 C27.1,6 27.2,6.4 27.2,6.9 L26.1,6.9 C26.1,6.2 26,5.7 25.9,5.4 C25.8,5.1 25.5,4.9 25.2,4.9 C24.9,4.9 24.6,4.9 24.3,5 C24,5.1 23.8,5.2 23.6,5.4 C23.4,5.5 23.2,5.7 23.1,5.8 C23,5.9 22.9,6.1 22.8,6.2 L22.8,10.9 L25.9,10.9 L25.9,12 L19.3,12 Z" id="Path"></path>
                            <path d="M28.3,4 L30.2,4 L30.2,2.4 L31.5,2 L31.5,4 L35.8,4 L35.8,5.1 L31.5,5.1 L31.5,8.9 C31.5,9.7 31.7,10.3 32.1,10.6 C32.5,11 33,11.2 33.7,11.2 C34.2,11.2 34.6,11.1 35,10.9 C35.4,10.7 35.7,10.5 36,10.3 L36.4,11.2 C36,11.5 35.6,11.7 35.1,11.9 C34.6,12.1 34.1,12.2 33.5,12.2 C33.1,12.2 32.7,12.1 32.3,12 C31.9,11.9 31.6,11.7 31.3,11.4 C31,11.1 30.8,10.8 30.6,10.4 C30.4,10 30.3,9.5 30.3,9 L30.3,5 L28.4,5 L28.4,4 L28.3,4 Z" id="Path"></path>
                            <path d="M38.9,6.8 C38.9,6.7 38.9,6.6 38.9,6.4 C38.9,6.2 38.9,6.1 38.9,5.9 C38.9,5.7 38.9,5.6 38.9,5.4 C38.9,5.2 38.9,5.1 38.8,5 L37.7,5 L37.7,4 L39.8,4 L39.9,5.3 L40,5.3 C40.1,5.1 40.2,4.9 40.4,4.8 C40.6,4.6 40.8,4.5 41,4.3 C41.2,4.2 41.5,4 41.8,4 C42.1,3.9 42.4,3.9 42.7,3.9 C43.2,3.9 43.6,4 44,4.1 C44.4,4.2 44.7,4.4 44.9,4.7 C45.2,5 45.3,5.3 45.5,5.8 C45.7,6.3 45.7,6.9 45.7,7.6 L45.7,12 L44.4,12 L44.4,7.7 C44.4,6.8 44.3,6.2 44,5.7 C43.7,5.3 43.2,5 42.4,5 C42.1,5 41.9,5.1 41.6,5.2 C41.3,5.3 41.1,5.5 40.9,5.6 C40.7,5.8 40.5,6 40.3,6.2 C40.1,6.4 40,6.7 39.9,7 L39.9,12 L38.7,12 L38.7,6.8 L38.9,6.8 Z" id="Path"></path>
                            <path d="M55.5,11 C55.3,11.2 55.1,11.3 54.8,11.5 C54.5,11.7 54.3,11.8 53.9,11.9 C53.6,12 53.3,12.1 52.9,12.1 C52.5,12.1 52.2,12.2 51.9,12.2 C51.3,12.2 50.7,12.1 50.2,11.9 C49.7,11.7 49.3,11.4 49,11.1 C48.7,10.7 48.4,10.3 48.2,9.8 C48,9.3 47.9,8.7 47.9,8.1 C47.9,7.4 48,6.8 48.2,6.3 C48.4,5.8 48.7,5.3 49,5 C49.4,4.6 49.8,4.4 50.3,4.2 C50.8,4 51.4,3.9 52,3.9 C52.4,3.9 52.9,4 53.3,4.1 C53.7,4.2 54.1,4.4 54.5,4.8 C54.8,5.1 55.1,5.6 55.3,6.1 C55.5,6.7 55.5,7.4 55.5,8.3 L49.3,8.3 C49.3,9.3 49.6,10 50.1,10.5 C50.6,11 51.3,11.2 52.2,11.2 C52.5,11.2 52.8,11.2 53.1,11.1 C53.4,11 53.7,10.9 53.9,10.9 C54.2,10.8 54.4,10.7 54.6,10.6 C54.8,10.5 54.9,10.4 55.1,10.3 L55.5,11 Z M52.1,4.9 C51.7,4.9 51.4,4.9 51.1,5 C50.8,5.1 50.5,5.2 50.3,5.4 C50.1,5.6 49.9,5.8 49.7,6.1 C49.5,6.4 49.4,6.7 49.4,7.1 L54.4,7.1 C54.3,6.4 54.1,5.9 53.7,5.5 C53.3,5.1 52.7,4.9 52.1,4.9 Z" id="Shape"></path>
                            <path d="M57.7,12 L57.7,10.9 L59.9,10.9 L59.9,5 L57.7,5 L57.7,4 L60.7,4 L61,5 L61.1,5 C61.5,4.7 61.9,4.4 62.3,4.2 C62.7,4 63.3,3.8 63.9,3.8 C64.3,3.8 64.6,3.9 64.8,4 C65,4.1 65.2,4.3 65.3,4.6 C65.4,4.9 65.5,5.2 65.5,5.6 C65.5,6 65.6,6.4 65.6,6.9 L64.5,6.9 C64.5,6.2 64.4,5.7 64.3,5.4 C64.2,5.1 63.9,4.9 63.6,4.9 C63.3,4.9 63,4.9 62.7,5 C62.4,5.1 62.2,5.2 62,5.4 C61.8,5.5 61.6,5.7 61.5,5.8 C61.4,5.9 61.3,6.1 61.2,6.2 L61.2,10.9 L64.3,10.9 L64.3,12 L57.7,12 Z" id="Path"></path>
                            <path d="M77.5,12 L77.5,10.9 L80.3,10.9 L80.3,5 L77.5,5 L77.5,4 L81.5,4 L81.5,10.9 L84.2,10.9 L84.2,12 L77.5,12 Z M79.8,1.7 C79.8,1.4 79.9,1.2 80.1,1 C80.3,0.8 80.5,0.7 80.8,0.7 C81.1,0.7 81.4,0.8 81.6,1 C81.8,1.2 81.9,1.5 81.9,1.7 C81.9,2 81.8,2.2 81.6,2.4 C81.4,2.6 81.1,2.7 80.8,2.7 C80.5,2.7 80.3,2.6 80.1,2.4 C79.9,2.2 79.8,2 79.8,1.7 Z" id="Shape"></path>
                            <path d="M86.9,6.8 C86.9,6.7 86.9,6.6 86.9,6.4 C86.9,6.2 86.9,6.1 86.9,5.9 C86.9,5.7 86.9,5.6 86.9,5.4 C86.9,5.2 86.9,5.1 86.8,5 L85.7,5 L85.7,4 L87.8,4 L87.9,5.3 L88,5.3 C88.1,5.1 88.2,4.9 88.4,4.8 C88.6,4.7 88.8,4.5 89,4.3 C89.2,4.2 89.5,4 89.8,4 C90.1,3.9 90.4,3.9 90.7,3.9 C91.2,3.9 91.6,4 92,4.1 C92.4,4.2 92.7,4.4 92.9,4.7 C93.1,5 93.3,5.3 93.5,5.8 C93.7,6.3 93.7,6.9 93.7,7.6 L93.7,12 L92.4,12 L92.4,7.7 C92.4,6.8 92.3,6.2 92,5.7 C91.7,5.3 91.2,5 90.4,5 C90.1,5 89.9,5.1 89.6,5.2 C89.3,5.3 89.1,5.5 88.9,5.6 C88.7,5.8 88.5,6 88.3,6.2 C88.1,6.4 88,6.7 88,7 L88,12 L86.8,12 L86.8,6.8 L86.9,6.8 Z" id="Path"></path>
                            <path d="M95.5,4 L97.4,4 L97.4,2.4 L98.7,2 L98.7,4 L103,4 L103,5.1 L98.7,5.1 L98.7,8.9 C98.7,9.7 98.9,10.3 99.3,10.6 C99.7,10.9 100.2,11.2 100.9,11.2 C101.4,11.2 101.8,11.1 102.2,10.9 C102.6,10.7 102.9,10.5 103.2,10.3 L103.6,11.2 C103.2,11.5 102.8,11.7 102.3,11.9 C101.8,12.1 101.3,12.2 100.7,12.2 C100.3,12.2 99.9,12.1 99.5,12 C99.1,11.9 98.8,11.7 98.5,11.4 C98.2,11.1 98,10.8 97.8,10.4 C97.6,10 97.5,9.5 97.5,9 L97.5,5 L95.6,5 L95.6,4 L95.5,4 Z" id="Path"></path>
                            <path d="M113.1,11 C112.9,11.2 112.7,11.3 112.4,11.5 C112.1,11.7 111.9,11.8 111.5,11.9 C111.2,12 110.9,12.1 110.5,12.1 C110.1,12.1 109.8,12.2 109.5,12.2 C108.9,12.2 108.3,12.1 107.8,11.9 C107.3,11.7 106.9,11.4 106.6,11.1 C106.3,10.7 106,10.3 105.8,9.8 C105.6,9.3 105.5,8.7 105.5,8.1 C105.5,7.4 105.6,6.8 105.8,6.3 C106,5.8 106.3,5.3 106.6,5 C107,4.6 107.4,4.4 107.9,4.2 C108.4,4 109,3.9 109.6,3.9 C110,3.9 110.5,4 110.9,4.1 C111.3,4.2 111.7,4.4 112.1,4.8 C112.4,5.1 112.7,5.6 112.9,6.1 C113.1,6.7 113.1,7.4 113.1,8.3 L106.9,8.3 C106.9,9.3 107.2,10 107.7,10.5 C108.2,11 108.9,11.2 109.8,11.2 C110.1,11.2 110.4,11.2 110.7,11.1 C111,11 111.3,10.9 111.5,10.9 C111.8,10.8 112,10.7 112.2,10.6 C112.4,10.5 112.5,10.4 112.7,10.3 L113.1,11 Z M109.7,4.9 C109.3,4.9 109,4.9 108.7,5 C108.4,5.1 108.1,5.2 107.9,5.4 C107.7,5.6 107.5,5.8 107.3,6.1 C107.1,6.4 107,6.7 107,7.1 L112,7.1 C111.9,6.4 111.7,5.9 111.3,5.5 C110.9,5.1 110.3,4.9 109.7,4.9 Z" id="Shape"></path>
                            <path d="M122.6,12.4 C122.6,12.9 122.5,13.3 122.3,13.7 C122.1,14.1 121.8,14.4 121.5,14.6 C121.2,14.8 120.8,15 120.3,15.2 C119.9,15.3 119.4,15.4 118.8,15.4 C118.2,15.4 117.6,15.3 117.2,15.2 C116.7,15.1 116.3,14.9 116,14.7 L116.6,13.6 C116.7,13.7 116.8,13.8 117,13.8 C117.2,13.9 117.3,14 117.5,14 C117.7,14 117.9,14.1 118.1,14.2 C118.3,14.3 118.6,14.3 118.8,14.3 C119.3,14.3 119.7,14.3 120,14.2 C120.3,14.1 120.6,14 120.8,13.8 C121,13.6 121.1,13.4 121.2,13.1 C121.3,12.8 121.3,12.5 121.3,12 L121.3,11.1 L121.2,11.1 C121,11.5 120.6,11.7 120.3,11.9 C119.9,12.1 119.4,12.2 118.8,12.2 C117.6,12.2 116.7,11.9 116.1,11.2 C115.5,10.5 115.2,9.5 115.2,8 C115.2,6.6 115.6,5.6 116.3,4.9 C117,4.2 118.1,3.9 119.5,3.9 C120.2,3.9 120.7,3.9 121.2,4 C121.7,4.1 122.1,4.2 122.5,4.3 L122.5,12.4 L122.6,12.4 Z M119,11.1 C119.6,11.1 120.2,10.9 120.5,10.6 C120.8,10.3 121.1,9.7 121.3,9.1 L121.3,5.3 C120.8,5.1 120.2,5 119.3,5 C118.5,5 117.8,5.2 117.3,5.8 C116.8,6.3 116.6,7.1 116.6,8.1 C116.6,8.6 116.6,9 116.7,9.4 C116.8,9.8 116.9,10.1 117.1,10.4 C117.3,10.7 117.5,10.9 117.8,11 C118.2,11 118.6,11.1 119,11.1 Z" id="Shape"></path>
                            <path d="M124.9,12 L124.9,10.9 L127.1,10.9 L127.1,5 L124.9,5 L124.9,4 L127.9,4 L128.2,5 L128.3,5 C128.7,4.7 129.1,4.4 129.5,4.2 C129.9,4 130.5,3.8 131.1,3.8 C131.5,3.8 131.8,3.9 132,4 C132.2,4.1 132.4,4.3 132.5,4.6 C132.6,4.9 132.7,5.2 132.7,5.6 C132.7,6 132.8,6.4 132.8,6.9 L131.7,6.9 C131.7,6.2 131.6,5.7 131.5,5.4 C131.4,5.1 131,5 130.6,5 C130.3,5 130,5 129.7,5.1 C129.4,5.2 129.2,5.3 129,5.5 C128.8,5.6 128.6,5.8 128.5,5.9 C128.4,6 128.3,6.2 128.2,6.3 L128.2,11 L131.3,11 L131.3,12 L124.9,12 Z" id="Path"></path>
                            <path d="M135.1,4.6 C135.6,4.3 136.1,4.1 136.7,4 C137.3,3.9 137.8,3.8 138.4,3.8 C138.9,3.8 139.4,3.9 139.7,4.1 C140,4.3 140.3,4.5 140.5,4.8 C140.7,5.1 140.8,5.4 140.9,5.7 C141,6 141,6.4 141,6.7 C141,7.1 141,7.5 141,8 C141,8.5 141,8.9 141,9.4 C141,9.9 141,10.4 141.1,10.9 L142.2,10.9 L142.2,11.9 L140,11.9 L139.9,10.7 L139.8,10.7 C139.7,10.8 139.6,10.9 139.5,11.1 C139.4,11.2 139.2,11.4 139,11.5 C138.8,11.6 138.5,11.8 138.2,11.9 C137.9,12 137.5,12.1 137.1,12.1 C136.3,12.1 135.7,11.9 135.2,11.5 C134.7,11.1 134.5,10.5 134.5,9.8 C134.5,9.3 134.6,8.8 134.9,8.4 C135.1,8 135.5,7.8 135.9,7.6 C136.3,7.4 136.9,7.3 137.5,7.3 C138.1,7.3 138.9,7.3 139.6,7.4 C139.7,6.9 139.7,6.5 139.6,6.2 C139.6,5.9 139.5,5.6 139.3,5.4 C139.2,5.2 139,5.1 138.7,5 C138.5,4.9 138.2,4.9 137.8,4.9 C137.3,4.9 136.9,5 136.4,5.1 C136,5.2 135.6,5.4 135.2,5.5 L135.1,4.6 Z M137.5,11.1 C137.8,11.1 138.1,11.1 138.3,11 C138.6,10.9 138.8,10.8 139,10.6 C139.2,10.5 139.4,10.3 139.5,10.1 C139.6,9.9 139.7,9.8 139.8,9.6 L139.8,8.5 C139.2,8.4 138.7,8.4 138.3,8.4 C137.8,8.4 137.4,8.5 137.1,8.6 C136.8,8.7 136.5,8.9 136.3,9.1 C136.1,9.3 136,9.6 136,9.9 C136,10.3 136.1,10.6 136.4,10.8 C136.5,10.9 136.9,11.1 137.5,11.1 Z" id="Shape"></path>
                            <path d="M143.5,4 L145.4,4 L145.4,2.4 L146.7,2 L146.7,4 L151,4 L151,5.1 L146.7,5.1 L146.7,8.9 C146.7,9.7 146.9,10.3 147.3,10.6 C147.7,11 148.2,11.2 148.9,11.2 C149.4,11.2 149.8,11.1 150.2,10.9 C150.6,10.7 150.9,10.5 151.2,10.3 L151.6,11.2 C151.2,11.5 150.8,11.7 150.3,11.9 C149.8,12.1 149.3,12.2 148.7,12.2 C148.3,12.2 147.9,12.1 147.5,12 C147.1,11.9 146.8,11.7 146.5,11.4 C146.2,11.1 146,10.8 145.8,10.4 C145.6,10 145.5,9.5 145.5,9 L145.5,5 L143.6,5 L143.6,4 L143.5,4 Z" id="Path"></path>
                            <path d="M154.3,12 L154.3,10.9 L157.1,10.9 L157.1,5 L154.3,5 L154.3,4 L158.3,4 L158.3,10.9 L161,10.9 L161,12 L154.3,12 Z M156.6,1.7 C156.6,1.4 156.7,1.2 156.9,1 C157.1,0.8 157.3,0.7 157.6,0.7 C157.9,0.7 158.2,0.8 158.4,1 C158.6,1.2 158.7,1.5 158.7,1.7 C158.7,2 158.6,2.2 158.4,2.4 C158.2,2.6 157.9,2.7 157.6,2.7 C157.3,2.7 157.1,2.6 156.9,2.4 C156.7,2.2 156.6,2 156.6,1.7 Z" id="Shape"></path>
                            <path d="M163.1,8 C163.1,6.7 163.4,5.7 164.1,4.9 C164.8,4.1 165.7,3.8 167,3.8 C167.7,3.8 168.3,3.9 168.7,4.1 C169.2,4.3 169.6,4.6 169.9,5 C170.2,5.4 170.5,5.8 170.6,6.3 C170.8,6.8 170.8,7.4 170.8,7.9 C170.8,8.5 170.7,9.1 170.5,9.6 C170.3,10.1 170.1,10.6 169.7,10.9 C169.4,11.3 169,11.5 168.5,11.7 C168,11.9 167.5,12 166.8,12 C166.1,12 165.6,11.9 165.1,11.7 C164.6,11.5 164.2,11.2 163.9,10.8 C163.6,10.4 163.3,10 163.2,9.5 C163.2,9.1 163.1,8.6 163.1,8 Z M164.4,8 C164.4,8.4 164.4,8.7 164.5,9.1 C164.6,9.5 164.7,9.8 164.9,10.1 C165.1,10.4 165.4,10.6 165.7,10.8 C166,11 166.4,11.1 166.9,11.1 C167.8,11.1 168.4,10.8 168.8,10.3 C169.2,9.8 169.4,9 169.4,8 C169.4,7.6 169.4,7.2 169.3,6.9 C169.2,6.5 169.1,6.2 168.9,5.9 C168.7,5.6 168.4,5.4 168.1,5.2 C167.8,5 167.4,4.9 166.9,4.9 C166,4.9 165.4,5.2 165,5.7 C164.6,6.2 164.4,7 164.4,8 Z" id="Shape"></path>
                            <path d="M173.3,6.8 C173.3,6.7 173.3,6.6 173.3,6.4 C173.3,6.2 173.3,6.1 173.3,5.9 C173.3,5.7 173.3,5.6 173.3,5.4 C173.3,5.2 173.3,5.1 173.2,5 L172.1,5 L172.1,4 L174.2,4 L174.3,5.3 L174.4,5.3 C174.5,5.1 174.6,4.9 174.8,4.8 C175,4.7 175.2,4.5 175.4,4.3 C175.6,4.2 175.9,4 176.2,4 C176.5,3.9 176.8,3.9 177.1,3.9 C177.6,3.9 178,4 178.4,4.1 C178.8,4.2 179.1,4.4 179.3,4.7 C179.5,5 179.7,5.3 179.9,5.8 C180,6.3 180.1,6.9 180.1,7.6 L180.1,12 L178.8,12 L178.8,7.7 C178.8,6.8 178.7,6.2 178.4,5.7 C178.1,5.3 177.6,5 176.8,5 C176.5,5 176.3,5.1 176,5.2 C175.7,5.3 175.5,5.5 175.3,5.6 C175.1,5.7 174.9,6 174.7,6.2 C174.5,6.4 174.4,6.7 174.4,7 L174.4,12 L173.2,12 L173.2,6.8 L173.3,6.8 Z" id="Path"></path>
                            <path d="M188.4,9.8 C188.4,9.5 188.3,9.2 188,9 C187.7,8.8 187.4,8.7 187,8.6 C186.6,8.5 186.2,8.4 185.7,8.3 C185.2,8.2 184.8,8.1 184.4,7.9 C184,7.7 183.7,7.5 183.4,7.3 C183.1,7 183,6.6 183,6.2 C183,5.8 183.1,5.4 183.3,5.2 C183.5,4.9 183.7,4.7 184,4.5 C184.3,4.3 184.6,4.2 185,4.1 C185.4,4 185.8,4 186.2,4 C186.9,4 187.6,4.1 188.1,4.3 C188.6,4.5 189.1,4.7 189.4,4.9 L188.9,5.9 C188.5,5.7 188.2,5.5 187.8,5.3 C187.4,5.1 186.9,5 186.3,5 C186.1,5 185.8,5 185.6,5.1 C185.4,5.1 185.2,5.2 185,5.3 C184.8,5.4 184.7,5.5 184.6,5.7 C184.5,5.9 184.4,6 184.4,6.3 C184.4,6.6 184.5,6.8 184.8,6.9 C185.1,7 185.4,7.2 185.8,7.3 C186.2,7.4 186.6,7.5 187.1,7.6 C187.6,7.7 188,7.8 188.4,8 C188.8,8.2 189.1,8.4 189.4,8.7 C189.7,9 189.8,9.4 189.8,9.9 C189.8,10.6 189.5,11.2 188.9,11.7 C188.3,12.2 187.4,12.4 186.3,12.4 C185.9,12.4 185.6,12.4 185.3,12.3 C185,12.2 184.6,12.2 184.3,12 C184,11.9 183.7,11.8 183.5,11.6 C183.3,11.5 183.1,11.3 182.9,11.2 L183.5,10.2 C183.6,10.3 183.8,10.5 184,10.6 C184.2,10.7 184.4,10.9 184.7,11 C185,11.1 185.2,11.2 185.5,11.3 C185.8,11.4 186.1,11.4 186.4,11.4 C186.7,11.4 187,11.4 187.2,11.3 C187.4,11.3 187.7,11.2 187.9,11.1 C188.1,11 188.2,10.9 188.4,10.7 C188.3,10.3 188.4,10.1 188.4,9.8 Z" id="Path"></path>
                        </g>
                        <g id="settings" transform="translate(49.000000, 19.000000)" fill-rule="nonzero">
                            <g id="Group" fill="#00B7E6">
                                <path d="M11.7,0 C10.6,0 9.7,0.8 9.4,1.9 C6.9,2.4 4.6,3.8 2.9,5.9 C1,8.2 0,11.1 0,14.2 C0,14.6 0.3,15 0.8,15 C1.3,15 1.6,14.6 1.6,14.2 C1.5,11.5 2.4,9 4.1,7 C5.5,5.2 7.5,4 9.6,3.5 C9.9,4.4 10.7,5 11.7,5 C13,5 14,3.9 14,2.5 C14,1.1 13,0 11.7,0 Z" id="Path"></path>
                                <path d="M18.7,12 C18.5,11.9 18.2,11.6 17.9,11.5 L17.5,10.5 C17.6,10.2 17.7,9.8 17.7,9.6 C17.7,9.3 17.7,9.1 17.5,8.9 L16.4,7.7 C16.2,7.5 16,7.4 15.7,7.5 C15.5,7.5 15.1,7.7 14.8,7.8 L13.8,7.4 C13.7,7.1 13.5,6.7 13.4,6.5 C13.3,6.1 13,6 12.8,6 L11.3,6 C11,6 10.8,6.1 10.7,6.4 C10.6,6.6 10.4,7 10.3,7.3 L9.3,7.7 C8.9,7.5 8.5,7.4 8.3,7.4 C8,7.4 7.8,7.4 7.6,7.6 L6.5,8.8 C6.3,9 6.2,9.3 6.3,9.5 C6.3,9.7 6.4,10.2 6.5,10.4 L6.1,11.4 C5.9,11.5 5.5,11.7 5.3,11.9 C5.1,12.1 5,12.4 5,12.7 L5,14.4 C5,14.7 5.1,14.9 5.3,15.1 C5.5,15.2 5.8,15.5 6.1,15.6 L6.5,16.6 C6.4,16.9 6.3,17.3 6.3,17.5 C6.3,17.8 6.3,18 6.5,18.2 L7.6,19.4 C7.8,19.6 8,19.7 8.3,19.6 C8.5,19.6 8.9,19.4 9.2,19.3 L10.2,19.7 C10.3,20 10.5,20.4 10.6,20.6 C10.7,20.8 11,21 11.2,21 L12.7,21 C13,21 13.2,20.9 13.3,20.6 C13.4,20.4 13.6,20 13.7,19.7 L14.7,19.3 C15,19.4 15.4,19.5 15.6,19.6 C15.9,19.6 16.1,19.6 16.3,19.4 L17.4,18.2 C17.6,18 17.7,17.7 17.6,17.5 C17.6,17.3 17.5,16.8 17.4,16.6 L17.8,15.6 C18,15.5 18.4,15.3 18.6,15.1 C18.8,14.9 18.9,14.7 18.9,14.4 L18.9,12.7 C19,12.4 18.9,12.1 18.7,12 Z M12,16.8 C10.3,16.8 8.9,15.3 8.9,13.5 C8.9,11.7 10.3,10.2 12,10.2 C13.7,10.2 15.1,11.7 15.1,13.5 C15.1,15.3 13.7,16.8 12,16.8 Z" id="Shape"></path>
                                <path d="M23.2,13 C22.8,13 22.4,13.4 22.4,13.8 C22.4,16.4 21.5,19 19.9,20.9 C18.5,22.7 16.5,23.9 14.4,24.4 C14,23.6 13.2,23 12.3,23 C11,23 10,24.1 10,25.5 C10,26.9 11,28 12.3,28 C13.4,28 14.3,27.2 14.6,26.1 C17.1,25.6 19.4,24.2 21.1,22.1 C23,19.8 24,16.9 24,13.9 C24,13.4 23.7,13 23.2,13 Z" id="Path_1_"></path>
                            </g>
                            <g id="Group" transform="translate(40.000000, 6.000000)" fill="#25B8E4">
                                <path d="M6.9,8.9 L2.6,8.9 L1.6,12 L0.3,12 L4,0.8 L5.6,0.8 L9.3,12 L8,12 L6.9,8.9 Z M3,7.7 L6.5,7.7 L4.9,2.4 L4.7,2.4 L3,7.7 Z" id="Shape"></path>
                                <path d="M15.2,0.8 L17.8,0.8 L17.8,9.3 C17.8,9.4 17.8,9.5 17.8,9.7 C17.8,9.9 17.8,10 17.8,10.2 C17.8,10.4 17.8,10.5 17.9,10.7 C17.9,10.9 17.9,11 18,11.1 L19,11.1 L19,12.1 L16.9,12.1 L16.7,10.9 L16.6,10.9 C16.4,11.3 16,11.6 15.6,11.9 C15.1,12.2 14.6,12.3 14,12.3 C12.8,12.3 11.9,12 11.3,11.3 C10.7,10.6 10.4,9.6 10.4,8.1 C10.4,7.4 10.5,6.8 10.7,6.3 C10.9,5.8 11.2,5.4 11.5,5 C11.9,4.7 12.3,4.4 12.8,4.2 C13.3,4 13.9,3.9 14.5,3.9 C14.7,3.9 14.9,3.9 15.1,3.9 C15.3,3.9 15.4,3.9 15.6,3.9 C15.7,3.9 15.9,4 16,4 C16.1,4 16.3,4.1 16.4,4.1 L16.4,1.9 L15.1,1.9 L15.1,0.8 L15.2,0.8 Z M14.2,11.1 C14.8,11.1 15.4,10.9 15.7,10.6 C16,10.3 16.3,9.8 16.5,9.1 L16.5,5.4 C16.3,5.2 16,5.1 15.7,5 C15.4,4.9 15,4.9 14.5,4.9 C13.6,4.9 13,5.1 12.5,5.6 C12,6.1 11.8,6.9 11.8,7.9 C11.8,8.3 11.8,8.7 11.9,9.1 C12,9.5 12.1,9.8 12.3,10.1 C12.5,10.4 12.7,10.6 13,10.8 C13.4,11 13.8,11.1 14.2,11.1 Z" id="Shape"></path>
                                <path d="M24.8,0.8 L27.4,0.8 L27.4,9.3 C27.4,9.4 27.4,9.5 27.4,9.7 C27.4,9.9 27.4,10 27.4,10.2 C27.4,10.4 27.4,10.5 27.5,10.7 C27.5,10.9 27.5,11 27.6,11.1 L28.7,11.1 L28.7,12.1 L26.6,12.1 L26.4,10.9 L26.3,10.9 C26.1,11.3 25.7,11.6 25.3,11.9 C24.8,12.2 24.3,12.3 23.7,12.3 C22.5,12.3 21.6,12 21,11.3 C20.4,10.6 20.1,9.6 20.1,8.1 C20.1,7.4 20.2,6.8 20.4,6.3 C20.6,5.8 20.9,5.4 21.2,5 C21.6,4.7 22,4.4 22.5,4.2 C23,4 23.6,3.9 24.2,3.9 C24.4,3.9 24.6,3.9 24.8,3.9 C25,3.9 25.1,3.9 25.3,3.9 C25.4,3.9 25.6,4 25.7,4 C25.8,4 26,4.1 26.1,4.1 L26.1,1.9 L24.8,1.9 L24.8,0.8 L24.8,0.8 Z M23.8,11.1 C24.4,11.1 25,10.9 25.3,10.6 C25.6,10.3 25.9,9.8 26.1,9.1 L26.1,5.4 C25.9,5.2 25.6,5.1 25.3,5 C25,4.9 24.6,4.9 24.1,4.9 C23.2,4.9 22.6,5.1 22.1,5.6 C21.6,6.1 21.4,6.9 21.4,7.9 C21.4,8.3 21.4,8.7 21.5,9.1 C21.6,9.5 21.7,9.8 21.9,10.1 C22.1,10.4 22.3,10.6 22.6,10.8 C23,11 23.4,11.1 23.8,11.1 Z" id="Shape"></path>
                                <polygon id="Path" points="30.9 6.8 36.4 6.8 36.4 8 30.9 8"></polygon>
                                <path d="M39.3,8 C39.3,6.7 39.6,5.7 40.3,4.9 C41,4.1 41.9,3.8 43.2,3.8 C43.9,3.8 44.5,3.9 44.9,4.1 C45.4,4.3 45.8,4.6 46.1,5 C46.4,5.4 46.7,5.8 46.8,6.3 C47,6.8 47,7.4 47,7.9 C47,8.5 46.9,9.1 46.7,9.6 C46.5,10.1 46.3,10.6 45.9,10.9 C45.6,11.3 45.2,11.5 44.7,11.7 C44.2,11.9 43.7,12 43,12 C42.3,12 41.8,11.9 41.3,11.7 C40.8,11.5 40.4,11.2 40.1,10.8 C39.8,10.4 39.5,10 39.4,9.5 C39.4,9.1 39.3,8.6 39.3,8 Z M40.6,8 C40.6,8.4 40.6,8.7 40.7,9.1 C40.8,9.5 40.9,9.8 41.1,10.1 C41.3,10.4 41.6,10.6 41.9,10.8 C42.2,11 42.6,11.1 43.1,11.1 C44,11.1 44.6,10.8 45,10.3 C45.4,9.8 45.6,9 45.6,8 C45.6,7.6 45.6,7.2 45.5,6.9 C45.4,6.5 45.3,6.2 45.1,5.9 C44.9,5.6 44.6,5.4 44.3,5.2 C44,5 43.6,4.9 43.1,4.9 C42.2,4.9 41.6,5.2 41.2,5.7 C40.8,6.2 40.6,7 40.6,8 Z" id="Shape"></path>
                                <path d="M49.5,6.8 C49.5,6.7 49.5,6.6 49.5,6.4 C49.5,6.2 49.5,6.1 49.5,5.9 C49.5,5.7 49.5,5.6 49.5,5.4 C49.5,5.2 49.5,5.1 49.4,5 L48.3,5 L48.3,4 L50.4,4 L50.5,5.3 L50.6,5.3 C50.7,5.1 50.8,4.9 51,4.8 C51.2,4.6 51.4,4.5 51.6,4.3 C51.8,4.2 52.1,4 52.4,4 C52.7,3.9 53,3.9 53.3,3.9 C53.8,3.9 54.2,4 54.6,4.1 C55,4.2 55.3,4.4 55.5,4.7 C55.8,5 55.9,5.3 56.1,5.8 C56.3,6.3 56.3,6.9 56.3,7.6 L56.3,12 L55,12 L55,7.7 C55,6.8 54.9,6.2 54.6,5.7 C54.3,5.3 53.8,5 53,5 C52.7,5 52.5,5.1 52.2,5.2 C51.9,5.3 51.7,5.5 51.5,5.6 C51.3,5.7 51.1,6 50.9,6.2 C50.7,6.4 50.6,6.7 50.5,7 L50.5,12 L49.3,12 L49.3,6.8 L49.5,6.8 Z" id="Path"></path>
                                <path d="M64.6,9.8 C64.6,9.5 64.5,9.2 64.2,9 C63.9,8.8 63.6,8.7 63.2,8.6 C62.8,8.5 62.4,8.4 61.9,8.3 C61.4,8.2 61,8.1 60.6,7.9 C60.2,7.7 59.9,7.5 59.6,7.3 C59.3,7 59.2,6.6 59.2,6.2 C59.2,5.8 59.3,5.4 59.5,5.2 C59.7,4.9 59.9,4.7 60.2,4.5 C60.5,4.3 60.8,4.2 61.2,4.1 C61.6,4 62,4 62.4,4 C63.1,4 63.8,4.1 64.3,4.3 C64.8,4.5 65.3,4.7 65.6,4.9 L65.1,5.9 C64.7,5.7 64.4,5.5 64,5.3 C63.6,5.1 63.1,5 62.5,5 C62.3,5 62,5 61.8,5.1 C61.6,5.1 61.4,5.2 61.2,5.3 C61,5.4 60.9,5.5 60.8,5.7 C60.7,5.9 60.6,6 60.6,6.3 C60.6,6.6 60.7,6.8 61,6.9 C61.3,7 61.6,7.2 62,7.3 C62.4,7.4 62.8,7.5 63.3,7.6 C63.8,7.7 64.2,7.8 64.6,8 C65,8.2 65.3,8.4 65.6,8.7 C65.9,9 66,9.4 66,9.9 C66,10.6 65.7,11.2 65.1,11.7 C64.5,12.2 63.6,12.4 62.5,12.4 C62.1,12.4 61.8,12.4 61.5,12.3 C61.2,12.2 60.8,12.2 60.5,12 C60.2,11.9 59.9,11.8 59.7,11.6 C59.5,11.5 59.3,11.3 59.1,11.2 L59.7,10.2 C59.8,10.3 60,10.5 60.2,10.6 C60.4,10.7 60.6,10.9 60.9,11 C61.2,11.1 61.4,11.2 61.7,11.3 C62,11.4 62.3,11.4 62.6,11.4 C62.9,11.4 63.2,11.4 63.4,11.3 C63.6,11.3 63.9,11.2 64.1,11.1 C64.3,11 64.4,10.9 64.6,10.7 C64.5,10.3 64.6,10.1 64.6,9.8 Z" id="Path"></path>
                            </g>
                        </g>
                    </g>
                    <g id="opens" transform="translate(41.000000, 201.000000)">
                        <path d="M4,0 L201,0 C203.2,0 205,2.05714286 205,4.57142857 L205,59.4285714 C205,61.9428571 203.2,64 201,64 L4,64 C1.8,64 0,61.9428571 0,59.4285714 L0,4.57142857 C0,2.05714286 1.8,0 4,0 Z" id="Rectangle-Copy-20_2_" fill-opacity="0.06" fill="#25B8E4"></path>
                        <g id="Group" transform="translate(68.000000, 24.000000)" fill="#25B8E4" fill-rule="nonzero">
                            <path d="M0.8,6.4 C0.8,4.5 1.1,3.1 1.8,2.1 C2.5,1.1 3.5,0.6 4.8,0.6 C5.5,0.6 6.2,0.7 6.7,1 C7.2,1.3 7.6,1.7 8,2.2 C8.3,2.7 8.5,3.3 8.7,4 C8.8,4.7 8.9,5.5 8.9,6.4 C8.9,8.3 8.6,9.7 7.9,10.7 C7.2,11.7 6.2,12.2 4.8,12.2 C4.1,12.2 3.4,12.1 2.9,11.8 C2.4,11.5 2,11.1 1.7,10.6 C1.4,10.1 1.2,9.5 1,8.8 C0.8,8.1 0.8,7.3 0.8,6.4 Z M2.2,6.4 C2.2,7 2.2,7.6 2.3,8.2 C2.4,8.8 2.5,9.2 2.7,9.7 C2.9,10.1 3.2,10.5 3.5,10.7 C3.8,11 4.3,11.1 4.8,11.1 C5.7,11.1 6.4,10.7 6.8,10 C7.2,9.3 7.4,8.1 7.4,6.5 C7.4,5.9 7.4,5.3 7.3,4.7 C7.2,4.1 7.1,3.6 6.9,3.2 C6.7,2.8 6.4,2.4 6.1,2.2 C5.8,2 5.3,1.8 4.8,1.8 C3.9,1.8 3.2,2.2 2.8,2.9 C2.4,3.7 2.2,4.8 2.2,6.4 Z" id="Shape"></path>
                            <path d="M11.1,6.8 C11.1,6.7 11.1,6.6 11.1,6.4 C11.1,6.2 11.1,6.1 11.1,5.9 C11.1,5.7 11.1,5.6 11.1,5.4 C11.1,5.2 11.1,5.1 11,5 L9.9,5 L9.9,4 L12,4 L12.2,5.1 L12.3,5.1 C12.6,4.7 13,4.4 13.4,4.2 C13.8,4 14.4,3.8 15,3.8 C16.1,3.8 17,4.1 17.6,4.7 C18.2,5.3 18.5,6.4 18.5,7.8 C18.5,8.5 18.4,9.1 18.2,9.6 C18,10.1 17.7,10.6 17.4,11 C17,11.4 16.6,11.7 16.1,11.9 C15.6,12.1 15,12.2 14.4,12.2 C14.2,12.2 14,12.2 13.8,12.2 C13.6,12.2 13.5,12.2 13.3,12.1 C13.2,12.1 13,12 12.9,12 C12.8,12 12.6,11.9 12.5,11.8 L12.5,15.2 L11.3,15.2 L11.3,6.8 L11.1,6.8 Z M14.8,5 C14.5,5 14.2,5.1 13.9,5.2 C13.6,5.3 13.4,5.5 13.1,5.7 C12.9,5.9 12.7,6.1 12.6,6.3 C12.5,6.5 12.4,6.8 12.3,7 L12.3,10.6 C12.5,10.8 12.8,10.9 13.1,11 C13.4,11.1 13.8,11.1 14.3,11.1 C15.2,11.1 15.8,10.8 16.3,10.3 C16.8,9.7 17.1,8.9 17.1,7.8 C17.1,6.9 16.9,6.2 16.6,5.7 C16.2,5.2 15.6,5 14.8,5 Z" id="Shape"></path>
                            <path d="M27.7,11 C27.5,11.2 27.3,11.3 27,11.5 C26.7,11.6 26.5,11.8 26.1,11.9 C25.8,12 25.5,12.1 25.1,12.1 C24.7,12.1 24.4,12.2 24.1,12.2 C23.5,12.2 22.9,12.1 22.4,11.9 C21.9,11.7 21.5,11.4 21.2,11.1 C20.9,10.7 20.6,10.3 20.4,9.8 C20.2,9.3 20.1,8.7 20.1,8.1 C20.1,7.4 20.2,6.8 20.4,6.3 C20.6,5.8 20.9,5.3 21.2,5 C21.6,4.6 22,4.4 22.5,4.2 C23,4 23.6,3.9 24.2,3.9 C24.6,3.9 25.1,4 25.5,4.1 C25.9,4.2 26.3,4.4 26.7,4.8 C27,5.1 27.3,5.6 27.5,6.1 C27.7,6.7 27.7,7.4 27.7,8.3 L21.5,8.3 C21.5,9.3 21.8,10 22.3,10.5 C22.8,11 23.5,11.2 24.4,11.2 C24.7,11.2 25,11.2 25.3,11.1 C25.6,11 25.9,10.9 26.1,10.9 C26.4,10.8 26.6,10.7 26.8,10.6 C27,10.5 27.1,10.4 27.3,10.3 L27.7,11 Z M24.3,4.9 C23.9,4.9 23.6,4.9 23.3,5 C23,5.1 22.7,5.2 22.5,5.4 C22.3,5.6 22.1,5.8 21.9,6.1 C21.7,6.4 21.6,6.7 21.6,7.1 L26.6,7.1 C26.5,6.4 26.3,5.9 25.9,5.5 C25.5,5.1 24.9,4.9 24.3,4.9 Z" id="Shape"></path>
                            <path d="M30.3,6.8 C30.3,6.7 30.3,6.6 30.3,6.4 C30.3,6.2 30.3,6.1 30.3,5.9 C30.3,5.7 30.3,5.6 30.3,5.4 C30.3,5.2 30.3,5.1 30.2,5 L29.1,5 L29.1,4 L31.2,4 L31.3,5.3 L31.4,5.3 C31.5,5.1 31.6,4.9 31.8,4.8 C32,4.6 32.2,4.5 32.4,4.3 C32.6,4.2 32.9,4 33.2,4 C33.5,3.9 33.8,3.9 34.1,3.9 C34.6,3.9 35,4 35.4,4.1 C35.8,4.2 36.1,4.4 36.3,4.7 C36.6,5 36.7,5.3 36.9,5.8 C37.1,6.3 37.1,6.9 37.1,7.6 L37.1,12 L35.8,12 L35.8,7.7 C35.8,6.8 35.7,6.2 35.4,5.7 C35.1,5.3 34.6,5 33.8,5 C33.5,5 33.3,5.1 33,5.2 C32.7,5.3 32.5,5.5 32.3,5.6 C32.1,5.7 32,6 31.9,6.2 C31.7,6.4 31.6,6.7 31.5,7 L31.5,12 L30.3,12 L30.3,6.8 Z" id="Path"></path>
                            <path d="M50.4,10.4 C50.7,10.6 51.1,10.7 51.5,10.8 C51.9,10.9 52.3,11 52.7,11 C53.1,11 53.4,11 53.7,10.9 C54,10.8 54.3,10.7 54.5,10.6 C54.7,10.4 54.9,10.3 55,10 C55.1,9.8 55.2,9.5 55.2,9.2 C55.2,8.8 55.1,8.4 54.8,8.1 C54.5,7.8 54.1,7.6 53.7,7.4 C53.3,7.2 52.8,7 52.3,6.8 C51.8,6.6 51.3,6.4 50.9,6.1 C50.5,5.8 50.1,5.5 49.8,5.1 C49.5,4.7 49.4,4.2 49.4,3.6 C49.4,3.2 49.5,2.8 49.7,2.4 C49.9,2 50.1,1.7 50.4,1.5 C50.7,1.3 51.1,1.1 51.6,0.9 C52.1,0.8 52.6,0.7 53.1,0.7 C53.7,0.7 54.3,0.7 54.8,0.8 C55.3,0.9 55.7,1 56,1.2 L56,1.2 L56,1.2 L56,1.2 L56,1.2 L56,3.8 L54.8,3.8 L54.8,2 C54.5,1.9 54.2,1.9 53.9,1.8 C53.6,1.8 53.2,1.7 52.9,1.7 C52.5,1.7 52.2,1.7 51.9,1.8 C51.6,1.9 51.4,2 51.2,2.1 C51,2.2 50.9,2.4 50.7,2.6 C50.6,2.8 50.5,3 50.5,3.2 C50.5,3.6 50.6,4 50.9,4.2 C51.2,4.5 51.6,4.7 52,4.9 C52.4,5.1 52.9,5.3 53.4,5.5 C53.9,5.7 54.4,6 54.8,6.2 C55.2,6.5 55.6,6.8 55.9,7.2 C56.2,7.6 56.3,8.1 56.3,8.7 C56.3,9.2 56.2,9.6 56,10 C55.8,10.4 55.6,10.7 55.2,11 C54.9,11.3 54.5,11.5 54,11.6 C53.5,11.7 53,11.8 52.4,11.8 C52,11.8 51.6,11.8 51.2,11.7 C50.8,11.6 50.5,11.6 50.2,11.5 C49.9,11.4 49.6,11.3 49.4,11.2 C49.2,11.1 49,11 48.8,10.9 L48.8,10.9 L48.8,8.3 L50,8.3 L50,10.4 L50.4,10.4 Z" id="Path"></path>
                            <path d="M58.5,8 C58.5,6.7 58.8,5.7 59.5,4.9 C60.2,4.1 61.1,3.8 62.4,3.8 C63.1,3.8 63.7,3.9 64.1,4.1 C64.6,4.3 65,4.6 65.3,5 C65.6,5.4 65.9,5.8 66,6.3 C66.2,6.8 66.2,7.4 66.2,7.9 C66.2,8.5 66.1,9.1 65.9,9.6 C65.7,10.1 65.5,10.6 65.1,10.9 C64.8,11.3 64.4,11.5 63.9,11.7 C63.4,11.9 62.9,12 62.2,12 C61.5,12 61,11.9 60.5,11.7 C60,11.5 59.6,11.2 59.3,10.8 C59,10.4 58.7,10 58.6,9.5 C58.6,9.1 58.5,8.6 58.5,8 Z M59.8,8 C59.8,8.4 59.8,8.7 59.9,9.1 C60,9.5 60.1,9.8 60.3,10.1 C60.5,10.4 60.8,10.6 61.1,10.8 C61.4,11 61.8,11.1 62.3,11.1 C63.2,11.1 63.8,10.8 64.2,10.3 C64.6,9.8 65,9 65,8 C65,7.6 65,7.2 64.9,6.9 C64.8,6.5 64.7,6.2 64.5,5.9 C64.3,5.6 64,5.4 63.7,5.2 C63.4,5 63,4.9 62.5,4.9 C61.6,4.9 61,5.2 60.6,5.7 C60.2,6.2 59.8,7 59.8,8 Z" id="Shape"></path>
                            <path d="M73,4 L75.3,4 L75.3,9.5 C75.3,10 75.3,10.5 75.4,11 L76.5,11 L76.5,12 L74.4,12 L74.4,10.6 L74.3,10.6 C74,11.1 73.7,11.4 73.2,11.7 C72.7,12 72.2,12.1 71.5,12.1 C71,12.1 70.6,12 70.2,11.9 C69.9,11.8 69.6,11.6 69.3,11.3 C69,11 68.9,10.7 68.8,10.2 C68.7,9.7 68.6,9.2 68.6,8.5 L68.6,5 L67.5,5 L67.5,4 L69.8,4 L69.8,8.3 C69.8,8.7 69.8,9.1 69.9,9.5 C70,9.9 70,10.1 70.1,10.4 C70.2,10.6 70.4,10.8 70.6,10.9 C70.8,11 71.1,11.1 71.5,11.1 C72.1,11.1 72.5,10.9 72.9,10.6 C73.3,10.2 73.6,9.8 73.8,9.2 L73.8,5.1 L72.8,5.1 L72.8,4 L73,4 Z" id="Path"></path>
                            <path d="M77.9,12 L77.9,10.9 L80.1,10.9 L80.1,5 L77.9,5 L77.9,4 L80.9,4 L81.2,5 L81.3,5 C81.7,4.7 82.1,4.4 82.5,4.2 C82.9,4 83.5,3.8 84.1,3.8 C84.5,3.8 84.8,3.9 85,4 C85.2,4.1 85.4,4.3 85.5,4.6 C85.6,4.9 85.7,5.2 85.7,5.6 C85.7,6 85.8,6.4 85.8,6.9 L84.7,6.9 C84.7,6.2 84.6,5.7 84.5,5.4 C84.4,5.1 84.1,4.9 83.8,4.9 C83.5,4.9 83.2,4.9 82.9,5 C82.6,5.1 82.4,5.2 82.2,5.4 C82,5.5 81.8,5.7 81.7,5.8 C81.6,5.9 81.5,6.1 81.4,6.2 L81.4,10.9 L84.5,10.9 L84.5,12 L77.9,12 Z" id="Path"></path>
                            <path d="M93.4,5.2 C93.2,5.1 92.9,5 92.6,5 C92.3,4.9 92,4.9 91.8,4.9 C90.8,4.9 90,5.1 89.5,5.6 C89,6.1 88.7,6.9 88.7,7.9 C88.7,8.4 88.8,8.8 88.9,9.2 C89,9.6 89.3,9.9 89.5,10.1 C89.7,10.3 90.1,10.6 90.5,10.7 C90.9,10.8 91.3,10.9 91.8,10.9 C92.3,10.9 92.8,10.8 93.3,10.6 C93.8,10.4 94.2,10.2 94.5,9.9 L95.1,10.8 C95,10.9 94.8,11.1 94.5,11.2 C94.3,11.3 94,11.5 93.7,11.6 C93.4,11.7 93.1,11.8 92.7,11.9 C92.3,12 92,12 91.5,12 C90.8,12 90.2,11.9 89.7,11.7 C89.2,11.5 88.7,11.2 88.4,10.9 C88,10.5 87.8,10.1 87.6,9.6 C87.4,9.1 87.3,8.5 87.3,7.9 C87.3,7.2 87.4,6.6 87.6,6.1 C87.8,5.6 88.1,5.1 88.4,4.8 C88.8,4.4 89.2,4.2 89.7,4 C90.2,3.8 90.8,3.7 91.4,3.7 C92.2,3.7 92.8,3.8 93.3,3.9 C93.8,4 94.2,4.2 94.6,4.4 L94.6,4.4 L94.6,6.6 L93.4,6.6 L93.4,5.2 L93.4,5.2 Z" id="Path"></path>
                            <path d="M104.5,11 C104.3,11.2 104.1,11.3 103.8,11.5 C103.5,11.6 103.3,11.8 102.9,11.9 C102.6,12 102.3,12.1 101.9,12.1 C101.5,12.1 101.2,12.2 100.9,12.2 C100.3,12.2 99.7,12.1 99.2,11.9 C98.7,11.7 98.3,11.4 98,11.1 C97.7,10.7 97.4,10.3 97.2,9.8 C97,9.3 96.9,8.7 96.9,8.1 C96.9,7.4 97,6.8 97.2,6.3 C97.4,5.8 97.7,5.3 98,5 C98.4,4.6 98.8,4.4 99.3,4.2 C99.8,4 100.4,3.9 101,3.9 C101.4,3.9 101.9,4 102.3,4.1 C102.7,4.2 103.1,4.4 103.5,4.8 C103.8,5.1 104.1,5.6 104.3,6.1 C104.5,6.7 104.5,7.4 104.5,8.3 L98.3,8.3 C98.3,9.3 98.6,10 99.1,10.5 C99.6,11 100.3,11.2 101.2,11.2 C101.5,11.2 101.8,11.2 102.1,11.1 C102.4,11 102.7,10.9 102.9,10.9 C103.2,10.8 103.4,10.7 103.6,10.6 C103.8,10.5 103.9,10.4 104.1,10.3 L104.5,11 Z M101.1,4.9 C100.7,4.9 100.4,4.9 100.1,5 C99.8,5.1 99.5,5.2 99.3,5.4 C99.1,5.6 98.9,5.8 98.7,6.1 C98.5,6.4 98.4,6.7 98.4,7.1 L103.4,7.1 C103.3,6.4 103.1,5.9 102.7,5.5 C102.3,5.1 101.7,4.9 101.1,4.9 Z" id="Shape"></path>
                        </g>
                        <g id="Group" transform="translate(237.000000, 24.000000)" fill="#25B8E4" fill-rule="nonzero">
                            <path d="M0.8,6.4 C0.8,4.5 1.1,3.1 1.8,2.1 C2.5,1.1 3.5,0.6 4.8,0.6 C5.5,0.6 6.2,0.7 6.7,1 C7.2,1.3 7.6,1.7 8,2.2 C8.3,2.7 8.5,3.3 8.7,4 C8.8,4.7 8.9,5.5 8.9,6.4 C8.9,8.3 8.6,9.7 7.9,10.7 C7.2,11.7 6.2,12.2 4.8,12.2 C4.1,12.2 3.4,12.1 2.9,11.8 C2.4,11.5 2,11.1 1.7,10.6 C1.4,10.1 1.2,9.5 1,8.8 C0.8,8.1 0.8,7.3 0.8,6.4 Z M2.2,6.4 C2.2,7 2.2,7.6 2.3,8.2 C2.4,8.8 2.5,9.2 2.7,9.7 C2.9,10.1 3.2,10.5 3.5,10.7 C3.8,11 4.3,11.1 4.8,11.1 C5.7,11.1 6.4,10.7 6.8,10 C7.2,9.3 7.4,8.1 7.4,6.5 C7.4,5.9 7.4,5.3 7.3,4.7 C7.2,4.1 7.1,3.6 6.9,3.2 C6.7,2.8 6.4,2.4 6.1,2.2 C5.8,2 5.3,1.8 4.8,1.8 C3.9,1.8 3.2,2.2 2.8,2.9 C2.4,3.7 2.2,4.8 2.2,6.4 Z" id="Shape"></path>
                            <path d="M16.6,5.2 C16.4,5.1 16.1,5 15.8,5 C15.5,4.9 15.2,4.9 15,4.9 C14,4.9 13.2,5.1 12.7,5.6 C12.2,6.1 11.9,6.9 11.9,7.9 C11.9,8.4 12,8.8 12.1,9.2 C12.2,9.6 12.5,9.9 12.7,10.1 C12.9,10.3 13.3,10.6 13.7,10.7 C14.1,10.8 14.5,10.9 15,10.9 C15.5,10.9 16,10.8 16.5,10.6 C17,10.4 17.4,10.2 17.7,9.9 L18.3,10.8 C18.1,10.9 18,11.1 17.7,11.2 C17.5,11.3 17.2,11.5 16.9,11.6 C16.6,11.7 16.3,11.8 15.9,11.9 C15.5,12 15.2,12 14.7,12 C14,12 13.4,11.9 12.9,11.7 C12.4,11.5 11.9,11.2 11.6,10.9 C11.2,10.5 11,10.1 10.8,9.6 C10.6,9.1 10.5,8.5 10.5,7.9 C10.5,7.2 10.6,6.6 10.8,6.1 C11,5.6 11.3,5.1 11.6,4.8 C12,4.4 12.4,4.2 12.9,4 C13.4,3.8 14,3.7 14.6,3.7 C15.4,3.7 16,3.8 16.5,3.9 C17,4 17.4,4.2 17.8,4.4 L17.8,4.4 L17.8,6.6 L16.6,6.6 L16.6,5.2 L16.6,5.2 Z" id="Path"></path>
                            <polygon id="Path" points="19.6 0.8 22.2 0.8 22.2 7.4 23.1 7.4 26.3 4 27.8 4 24.3 7.8 27.2 10.9 28.2 10.9 28.2 12 26.6 12 23.2 8.4 22.3 8.4 22.3 12 21.1 12 21.1 1.9 19.7 1.9 19.7 0.8"></polygon>
                            <path d="M30.5,4.6 C31,4.3 31.5,4.1 32.1,4 C32.7,3.9 33.2,3.8 33.8,3.8 C34.3,3.8 34.8,3.9 35.1,4.1 C35.4,4.3 35.7,4.5 35.9,4.8 C36.1,5.1 36.2,5.4 36.3,5.7 C36.4,6 36.4,6.4 36.4,6.7 C36.4,7.1 36.4,7.5 36.4,8 C36.4,8.5 36.4,8.9 36.4,9.4 C36.4,9.9 36.4,10.4 36.5,10.9 L37.6,10.9 L37.6,11.9 L35.5,11.9 L35.4,10.7 L35.3,10.7 C35.2,10.8 35.1,10.9 35,11.1 C34.9,11.3 34.7,11.4 34.5,11.5 C34.3,11.6 34,11.8 33.7,11.9 C33.4,12 33,12.1 32.6,12.1 C31.8,12.1 31.2,11.9 30.7,11.5 C30.2,11.1 30,10.5 30,9.8 C30,9.3 30.1,8.8 30.4,8.4 C30.6,8 31,7.8 31.4,7.6 C31.8,7.4 32.4,7.3 33,7.3 C33.6,7.3 34.4,7.3 35.1,7.4 C35.2,6.9 35.2,6.5 35.1,6.2 C35,5.9 35,5.6 34.8,5.4 C34.7,5.2 34.5,5.1 34.2,5 C34,4.9 33.7,4.9 33.3,4.9 C32.8,4.9 32.4,5 31.9,5.1 C31.5,5.2 31.1,5.4 30.7,5.5 L30.5,4.6 Z M32.9,11.1 C33.2,11.1 33.5,11.1 33.7,11 C34,10.9 34.2,10.8 34.4,10.6 C34.6,10.5 34.8,10.3 34.9,10.1 C35,9.9 35.1,9.8 35.2,9.6 L35.2,8.5 C34.6,8.4 34.1,8.4 33.7,8.4 C33.3,8.4 32.8,8.5 32.5,8.6 C32.2,8.7 31.9,8.9 31.7,9.1 C31.5,9.3 31.4,9.6 31.4,9.9 C31.4,10.3 31.5,10.6 31.8,10.8 C31.9,10.9 32.3,11.1 32.9,11.1 Z" id="Shape"></path>
                            <path d="M42.6,12 L42.6,6.7 C42.6,6.5 42.6,6.3 42.6,6.1 C42.6,5.9 42.5,5.7 42.5,5.5 C42.4,5.3 42.4,5.2 42.2,5.1 C42.1,5 41.9,5 41.8,5 C41.4,5 41.1,5.1 40.9,5.4 C40.6,5.7 40.5,6.1 40.3,6.5 L40.3,12 L39.1,12 L39.1,4 L39.9,4 L40.1,5 L40.2,5 C40.3,4.8 40.4,4.7 40.5,4.5 C40.6,4.4 40.7,4.2 40.9,4.1 C41,4 41.2,3.9 41.4,3.9 C41.6,3.8 41.8,3.8 42.1,3.8 C42.3,3.8 42.4,3.8 42.6,3.9 C42.8,3.9 42.9,4 43.1,4.1 C43.2,4.2 43.4,4.3 43.5,4.5 C43.6,4.7 43.7,4.9 43.7,5.1 C43.9,4.7 44.2,4.4 44.5,4.1 C44.8,3.8 45.2,3.7 45.8,3.7 C46.2,3.7 46.4,3.8 46.7,3.9 C46.9,4 47.1,4.2 47.2,4.4 C47.3,4.6 47.4,4.9 47.5,5.2 C47.5,5.5 47.6,5.8 47.6,6.2 L47.6,12 L46.4,12 L46.4,6.6 C46.4,6.4 46.4,6.2 46.4,6 C46.4,5.8 46.3,5.6 46.3,5.5 C46.2,5.4 46.2,5.2 46.1,5.1 C46,5 45.9,5 45.7,5 C45.3,5 45,5.1 44.8,5.4 C44.5,5.7 44.4,6.1 44.2,6.7 L44.2,12 L42.6,12 Z" id="Path"></path>
                            <path d="M64.6,5.2 C64.4,5.1 64.1,5 63.8,5 C63.5,4.9 63.2,4.9 63,4.9 C62,4.9 61.2,5.1 60.7,5.6 C60.2,6.1 59.9,6.9 59.9,7.9 C59.9,8.4 60,8.8 60.1,9.2 C60.2,9.6 60.5,9.9 60.7,10.1 C60.9,10.3 61.3,10.6 61.7,10.7 C62.1,10.8 62.5,10.9 63,10.9 C63.5,10.9 64,10.8 64.5,10.6 C65,10.4 65.4,10.2 65.7,9.9 L66.3,10.8 C66.2,10.9 66,11.1 65.7,11.2 C65.5,11.3 65.2,11.5 64.9,11.6 C64.6,11.7 64.3,11.8 63.9,11.9 C63.5,12 63.2,12 62.7,12 C62,12 61.4,11.9 60.9,11.7 C60.4,11.5 59.9,11.2 59.6,10.9 C59.3,10.6 59,10.1 58.8,9.6 C58.6,9.1 58.5,8.5 58.5,7.9 C58.5,7.2 58.6,6.6 58.8,6.1 C59,5.6 59.3,5.1 59.6,4.8 C60,4.4 60.4,4.2 60.9,4 C61.4,3.8 62,3.7 62.6,3.7 C63.4,3.7 64,3.8 64.5,3.9 C65,4 65.4,4.2 65.8,4.4 L65.8,4.4 L65.8,6.6 L64.6,6.6 L64.6,5.2 L64.6,5.2 Z" id="Path"></path>
                            <path d="M68.1,8 C68.1,6.7 68.4,5.7 69.1,4.9 C69.8,4.1 70.7,3.8 72,3.8 C72.7,3.8 73.3,3.9 73.7,4.1 C74.2,4.3 74.6,4.6 74.9,5 C75.2,5.4 75.5,5.8 75.6,6.3 C75.8,6.8 75.8,7.4 75.8,7.9 C75.8,8.5 75.7,9.1 75.5,9.6 C75.3,10.1 75.1,10.6 74.7,10.9 C74.4,11.3 74,11.5 73.5,11.7 C73,11.9 72.5,12 71.8,12 C71.1,12 70.6,11.9 70.1,11.7 C69.6,11.5 69.2,11.2 68.9,10.8 C68.6,10.4 68.3,10 68.2,9.5 C68.2,9.1 68.1,8.6 68.1,8 Z M69.4,8 C69.4,8.4 69.4,8.7 69.5,9.1 C69.6,9.5 69.7,9.8 69.9,10.1 C70.1,10.4 70.4,10.6 70.7,10.8 C71,11 71.4,11.1 71.9,11.1 C72.8,11.1 73.4,10.8 73.8,10.3 C74.2,9.8 74.4,9 74.4,8 C74.4,7.6 74.4,7.2 74.3,6.9 C74.2,6.5 74.1,6.2 73.9,5.9 C73.7,5.6 73.4,5.4 73.1,5.2 C72.8,5 72.4,4.9 71.9,4.9 C71,4.9 70.4,5.2 70,5.7 C69.6,6.2 69.4,7 69.4,8 Z" id="Shape"></path>
                            <path d="M77.9,12 L77.9,10.9 L80.1,10.9 L80.1,5 L77.9,5 L77.9,4 L80.9,4 L81.2,5 L81.3,5 C81.7,4.7 82.1,4.4 82.5,4.2 C82.9,4 83.5,3.8 84.1,3.8 C84.5,3.8 84.8,3.9 85,4 C85.2,4.1 85.4,4.3 85.5,4.6 C85.6,4.9 85.7,5.2 85.7,5.6 C85.7,6 85.8,6.4 85.8,6.9 L84.7,6.9 C84.7,6.2 84.6,5.7 84.5,5.4 C84.4,5.1 84.1,4.9 83.8,4.9 C83.5,4.9 83.2,4.9 82.9,5 C82.6,5.1 82.4,5.2 82.2,5.4 C82,5.5 81.8,5.7 81.7,5.8 C81.6,5.9 81.5,6.1 81.4,6.2 L81.4,10.9 L84.5,10.9 L84.5,12 L77.9,12 Z" id="Path"></path>
                            <path d="M94.9,11 C94.7,11.2 94.5,11.3 94.2,11.5 C93.9,11.6 93.7,11.8 93.3,11.9 C93,12 92.7,12.1 92.3,12.1 C91.9,12.1 91.6,12.2 91.3,12.2 C90.7,12.2 90.1,12.1 89.6,11.9 C89.1,11.7 88.7,11.4 88.4,11.1 C88.1,10.7 87.8,10.3 87.6,9.8 C87.4,9.3 87.3,8.7 87.3,8.1 C87.3,7.4 87.4,6.8 87.6,6.3 C87.8,5.8 88.1,5.3 88.4,5 C88.8,4.6 89.2,4.4 89.7,4.2 C90.2,4 90.8,3.9 91.4,3.9 C91.8,3.9 92.3,4 92.7,4.1 C93.1,4.2 93.5,4.4 93.9,4.8 C94.2,5.1 94.5,5.6 94.7,6.1 C94.9,6.6 94.9,7.4 94.9,8.3 L88.7,8.3 C88.7,9.3 89,10 89.5,10.5 C90,11 90.7,11.2 91.6,11.2 C91.9,11.2 92.2,11.2 92.5,11.1 C92.8,11 93,10.9 93.3,10.9 C93.6,10.8 93.8,10.7 94,10.6 C94.2,10.5 94.3,10.4 94.5,10.3 L94.9,11 Z M91.5,4.9 C91.1,4.9 90.8,4.9 90.5,5 C90.2,5.1 89.9,5.2 89.7,5.4 C89.5,5.6 89.3,5.8 89.1,6.1 C88.9,6.4 88.8,6.7 88.8,7.1 L93.8,7.1 C93.7,6.4 93.5,5.9 93.1,5.5 C92.7,5.1 92.1,4.9 91.5,4.9 Z" id="Shape"></path>
                            <path d="M111.2,0.8 L113.8,0.8 L113.8,9.3 C113.8,9.4 113.8,9.5 113.8,9.7 C113.8,9.8 113.8,10 113.8,10.2 C113.8,10.4 113.8,10.5 113.9,10.7 C113.9,10.9 113.9,11 114,11.1 L115.1,11.1 L115.1,12.1 L113,12.1 L112.8,10.9 L112.7,10.9 C112.5,11.3 112.1,11.6 111.7,11.9 C111.2,12.2 110.7,12.3 110.1,12.3 C108.9,12.3 108,12 107.4,11.3 C106.8,10.6 106.5,9.6 106.5,8.1 C106.5,7.4 106.6,6.8 106.8,6.3 C107,5.8 107.3,5.4 107.6,5 C108,4.7 108.4,4.4 108.9,4.2 C109.4,4 110,3.9 110.6,3.9 C110.8,3.9 111,3.9 111.2,3.9 C111.4,3.9 111.5,3.9 111.7,3.9 C111.8,3.9 112,4 112.1,4 C112.2,4 112.4,4.1 112.5,4.1 L112.5,1.8 L111.2,1.8 L111.2,0.8 L111.2,0.8 Z M110.2,11.1 C110.8,11.1 111.4,10.9 111.7,10.6 C112,10.3 112.3,9.8 112.5,9.1 L112.5,5.4 C112.3,5.2 112,5.1 111.7,5 C111.4,4.9 111,4.9 110.5,4.9 C109.6,4.9 109,5.1 108.5,5.6 C108,6.1 107.8,6.9 107.8,7.9 C107.8,8.3 107.8,8.7 107.9,9.1 C108,9.5 108.1,9.8 108.3,10.1 C108.5,10.4 108.7,10.6 109,10.8 C109.3,11 109.8,11.1 110.2,11.1 Z" id="Shape"></path>
                            <path d="M123.7,11 C123.5,11.2 123.3,11.3 123,11.5 C122.7,11.7 122.5,11.8 122.1,11.9 C121.8,12 121.5,12.1 121.1,12.1 C120.7,12.1 120.4,12.2 120.1,12.2 C119.5,12.2 118.9,12.1 118.4,11.9 C117.9,11.7 117.5,11.4 117.2,11.1 C116.9,10.7 116.6,10.3 116.4,9.8 C116.2,9.3 116.1,8.7 116.1,8.1 C116.1,7.4 116.2,6.8 116.4,6.3 C116.6,5.8 116.9,5.3 117.2,5 C117.6,4.6 118,4.4 118.5,4.2 C119,4 119.6,3.9 120.2,3.9 C120.6,3.9 121.1,4 121.5,4.1 C121.9,4.2 122.3,4.4 122.7,4.8 C123,5.1 123.3,5.6 123.5,6.1 C123.7,6.7 123.7,7.4 123.7,8.3 L117.5,8.3 C117.5,9.3 117.8,10 118.3,10.5 C118.8,11 119.5,11.2 120.4,11.2 C120.7,11.2 121,11.2 121.3,11.1 C121.6,11 121.9,10.9 122.1,10.9 C122.4,10.8 122.6,10.7 122.8,10.6 C123,10.5 123.1,10.4 123.3,10.3 L123.7,11 Z M120.3,4.9 C119.9,4.9 119.6,4.9 119.3,5 C119,5.1 118.7,5.2 118.5,5.4 C118.3,5.6 118.1,5.8 117.9,6.1 C117.7,6.4 117.6,6.7 117.6,7.1 L122.6,7.1 C122.5,6.4 122.3,5.9 121.9,5.5 C121.5,5.1 120.9,4.9 120.3,4.9 Z" id="Shape"></path>
                            <polygon id="Path" points="129.6 10.4 129.8 10.4 132.3 4 133.7 4 130.3 12 128.9 12 125.5 4 127 4"></polygon>
                            <path d="M142.9,11 C142.7,11.2 142.5,11.3 142.2,11.5 C141.9,11.7 141.7,11.8 141.3,11.9 C141,12 140.7,12.1 140.3,12.1 C139.9,12.1 139.6,12.2 139.3,12.2 C138.7,12.2 138.1,12.1 137.6,11.9 C137.1,11.7 136.7,11.4 136.4,11.1 C136.1,10.7 135.8,10.3 135.6,9.8 C135.4,9.3 135.3,8.7 135.3,8.1 C135.3,7.4 135.4,6.8 135.6,6.3 C135.8,5.8 136.1,5.3 136.4,5 C136.8,4.6 137.2,4.4 137.7,4.2 C138.2,4 138.8,3.9 139.4,3.9 C139.8,3.9 140.3,4 140.7,4.1 C141.1,4.2 141.5,4.4 141.9,4.8 C142.2,5.1 142.5,5.6 142.7,6.1 C142.9,6.7 142.9,7.4 142.9,8.3 L136.7,8.3 C136.7,9.3 137,10 137.5,10.5 C138,11 138.7,11.2 139.6,11.2 C139.9,11.2 140.2,11.2 140.5,11.1 C140.8,11 141.1,10.9 141.3,10.9 C141.6,10.8 141.8,10.7 142,10.6 C142.2,10.5 142.3,10.4 142.5,10.3 L142.9,11 Z M139.5,4.9 C139.1,4.9 138.8,4.9 138.5,5 C138.2,5.1 137.9,5.2 137.7,5.4 C137.5,5.6 137.3,5.8 137.1,6.1 C136.9,6.4 136.8,6.7 136.8,7.1 L141.8,7.1 C141.7,6.4 141.5,5.9 141.1,5.5 C140.7,5.1 140.1,4.9 139.5,4.9 Z" id="Shape"></path>
                            <path d="M145.9,0.8 L148.6,0.8 L148.6,9.3 C148.6,10 148.7,10.4 148.9,10.7 C149.1,11 149.4,11.1 149.9,11.1 C150.2,11.1 150.5,11 150.8,10.9 C151.1,10.8 151.4,10.6 151.7,10.4 L152.3,11.3 C152.1,11.4 151.9,11.6 151.7,11.7 C151.5,11.8 151.3,11.9 151.1,12 C150.9,12.1 150.7,12.1 150.5,12.2 C150.3,12.2 150.1,12.3 149.9,12.3 C149.5,12.3 149.2,12.2 148.8,12.1 C148.5,12 148.2,11.8 148,11.6 C147.8,11.4 147.6,11.1 147.5,10.7 C147.4,10.3 147.3,9.9 147.3,9.3 L147.3,1.9 L145.9,1.9 L145.9,0.8 L145.9,0.8 Z" id="Path"></path>
                            <path d="M154.5,8 C154.5,6.7 154.8,5.7 155.5,4.9 C156.2,4.1 157.1,3.8 158.4,3.8 C159.1,3.8 159.7,3.9 160.1,4.1 C160.6,4.3 161,4.6 161.3,5 C161.6,5.4 161.9,5.8 162,6.3 C162.2,6.8 162.2,7.4 162.2,7.9 C162.2,8.5 162.1,9.1 161.9,9.6 C161.7,10.1 161.5,10.6 161.1,10.9 C160.8,11.3 160.4,11.5 159.9,11.7 C159.4,11.9 158.9,12 158.2,12 C157.5,12 157,11.9 156.5,11.7 C156,11.5 155.6,11.2 155.3,10.8 C155,10.4 154.7,10 154.6,9.5 C154.6,9.1 154.5,8.6 154.5,8 Z M155.8,8 C155.8,8.4 155.8,8.7 155.9,9.1 C156,9.5 156.1,9.8 156.3,10.1 C156.5,10.4 156.8,10.6 157.1,10.8 C157.4,11 157.8,11.1 158.3,11.1 C159.2,11.1 159.8,10.8 160.2,10.3 C160.6,9.8 161,9 161,8 C161,7.6 161,7.2 160.9,6.9 C160.8,6.5 160.7,6.2 160.5,5.9 C160.3,5.6 160,5.4 159.7,5.2 C159.4,5 159,4.9 158.5,4.9 C157.6,4.9 157,5.2 156.6,5.7 C156.2,6.2 155.8,7 155.8,8 Z" id="Shape"></path>
                            <path d="M164.7,6.8 C164.7,6.7 164.7,6.6 164.7,6.4 C164.7,6.2 164.7,6.1 164.7,5.9 C164.7,5.7 164.7,5.6 164.7,5.4 C164.7,5.2 164.7,5.1 164.6,5 L163.5,5 L163.5,4 L165.6,4 L165.8,5.1 L165.9,5.1 C166.2,4.7 166.6,4.4 167,4.2 C167.4,4 168,3.8 168.6,3.8 C169.7,3.8 170.6,4.1 171.2,4.7 C171.8,5.3 172.1,6.4 172.1,7.8 C172.1,8.5 172,9.1 171.8,9.6 C171.6,10.1 171.3,10.6 171,11 C170.6,11.4 170.2,11.7 169.7,11.9 C169.2,12.1 168.6,12.2 168,12.2 C167.8,12.2 167.6,12.2 167.4,12.2 C167.2,12.2 167.1,12.2 166.9,12.1 C166.8,12.1 166.6,12 166.5,12 C166.4,12 166.2,11.9 166.1,11.8 L166.1,15.2 L164.9,15.2 L164.9,6.8 L164.7,6.8 Z M168.4,5 C168.1,5 167.8,5.1 167.5,5.2 C167.2,5.3 167,5.5 166.7,5.7 C166.5,5.9 166.3,6.1 166.2,6.3 C166.1,6.5 166,6.8 165.9,7 L165.9,10.6 C166.1,10.8 166.4,10.9 166.7,11 C167,11.1 167.4,11.1 167.9,11.1 C168.8,11.1 169.4,10.8 169.9,10.3 C170.4,9.8 170.7,8.9 170.7,7.8 C170.7,6.9 170.5,6.2 170.2,5.7 C169.8,5.2 169.2,5 168.4,5 Z" id="Shape"></path>
                            <path d="M177,12 L177,6.7 C177,6.5 177,6.3 177,6.1 C177,5.9 176.9,5.7 176.9,5.5 C176.8,5.3 176.8,5.2 176.6,5.1 C176.5,5 176.3,5 176.2,5 C175.8,5 175.5,5.1 175.3,5.4 C175.1,5.7 174.9,6.1 174.7,6.5 L174.7,12 L173.5,12 L173.5,4 L174.3,4 L174.5,5 L174.6,5 C174.7,4.8 174.8,4.7 174.9,4.5 C175,4.4 175.1,4.2 175.3,4.1 C175.4,4 175.6,3.9 175.8,3.9 C176,3.8 176.2,3.8 176.5,3.8 C176.7,3.8 176.8,3.8 177,3.9 C177.2,4 177.3,4 177.5,4.1 C177.6,4.2 177.8,4.3 177.9,4.5 C178,4.7 178.1,4.9 178.1,5.1 C178.3,4.7 178.6,4.4 178.9,4.1 C179.2,3.9 179.6,3.7 180.2,3.7 C180.6,3.7 180.8,3.8 181.1,3.9 C181.3,4 181.5,4.2 181.6,4.4 C181.7,4.6 181.8,4.9 181.9,5.2 C181.9,5.5 182,5.8 182,6.2 L182,12 L180.8,12 L180.8,6.6 C180.8,6.4 180.8,6.2 180.8,6 C180.8,5.8 180.7,5.6 180.7,5.5 C180.7,5.4 180.6,5.2 180.5,5.1 C180.4,5 180.3,5 180.1,5 C179.7,5 179.4,5.1 179.2,5.4 C179,5.7 178.8,6.1 178.6,6.7 L178.6,12 L177,12 Z" id="Path"></path>
                            <path d="M190.9,11 C190.7,11.2 190.5,11.3 190.2,11.5 C189.9,11.7 189.7,11.8 189.3,11.9 C189,12 188.7,12.1 188.3,12.1 C187.9,12.1 187.6,12.2 187.3,12.2 C186.7,12.2 186.1,12.1 185.6,11.9 C185.1,11.7 184.7,11.4 184.4,11.1 C184.1,10.7 183.8,10.3 183.6,9.8 C183.4,9.3 183.3,8.7 183.3,8.1 C183.3,7.4 183.4,6.8 183.6,6.3 C183.8,5.8 184.1,5.3 184.4,5 C184.8,4.6 185.2,4.4 185.7,4.2 C186.2,4 186.8,3.9 187.4,3.9 C187.8,3.9 188.3,4 188.7,4.1 C189.1,4.2 189.5,4.4 189.9,4.8 C190.2,5.1 190.5,5.6 190.7,6.1 C190.9,6.7 190.9,7.4 190.9,8.3 L184.7,8.3 C184.7,9.3 185,10 185.5,10.5 C186,11 186.7,11.2 187.6,11.2 C187.9,11.2 188.2,11.2 188.5,11.1 C188.8,11 189.1,10.9 189.3,10.9 C189.6,10.8 189.8,10.7 190,10.6 C190.2,10.5 190.3,10.4 190.5,10.3 L190.9,11 Z M187.5,4.9 C187.1,4.9 186.8,4.9 186.5,5 C186.2,5.1 185.9,5.2 185.7,5.4 C185.5,5.6 185.3,5.8 185.1,6.1 C184.9,6.4 184.8,6.7 184.8,7.1 L189.8,7.1 C189.7,6.4 189.5,5.9 189.1,5.5 C188.7,5.1 188.1,4.9 187.5,4.9 Z" id="Shape"></path>
                            <path d="M193.5,6.8 C193.5,6.7 193.5,6.6 193.5,6.4 C193.5,6.2 193.5,6.1 193.5,5.9 C193.5,5.7 193.5,5.6 193.5,5.4 C193.5,5.2 193.5,5.1 193.4,5 L192.3,5 L192.3,4 L194.4,4 L194.5,5.3 L194.6,5.3 C194.7,5.1 194.8,4.9 195,4.8 C195.2,4.6 195.4,4.5 195.6,4.3 C195.8,4.2 196.1,4 196.4,4 C196.7,3.9 197,3.9 197.3,3.9 C197.8,3.9 198.2,4 198.6,4.1 C199,4.2 199.3,4.4 199.5,4.7 C199.8,5 199.9,5.3 200.1,5.8 C200.3,6.3 200.3,6.9 200.3,7.6 L200.3,12 L199,12 L199,7.7 C199,6.8 198.9,6.2 198.6,5.7 C198.3,5.3 197.8,5 197,5 C196.7,5 196.5,5.1 196.2,5.2 C195.9,5.3 195.7,5.5 195.5,5.6 C195.3,5.8 195.1,6 194.9,6.2 C194.7,6.4 194.6,6.7 194.5,7 L194.5,12 L193.3,12 L193.3,6.8 L193.5,6.8 Z" id="Path"></path>
                            <path d="M202.1,4 L204,4 L204,2.4 L205.3,2 L205.3,4 L209.6,4 L209.6,5.1 L205.3,5.1 L205.3,8.9 C205.3,9.7 205.5,10.3 205.9,10.6 C206.3,11 206.8,11.2 207.5,11.2 C208,11.2 208.4,11.1 208.8,10.9 C209.2,10.7 209.5,10.5 209.8,10.3 L210.2,11.2 C209.8,11.5 209.4,11.7 208.9,11.9 C208.4,12.1 207.9,12.2 207.3,12.2 C206.9,12.2 206.5,12.1 206.1,12 C205.7,11.9 205.4,11.7 205.1,11.4 C204.8,11.1 204.6,10.8 204.4,10.4 C204.2,10 204.1,9.5 204.1,9 L204.1,5 L202.2,5 L202.2,4 L202.1,4 Z" id="Path"></path>
                        </g>
                        <g id="Group_1_" transform="translate(32.000000, 17.000000)" fill="#00BAE9" fill-rule="nonzero">
                            <g id="Shape_1_">
                                <path d="M16.7,11.8 L5.1,11.8 L5.1,7.9 C5.1,5.9 6.4,4.1 8.2,3.7 C10.6,3.3 12.8,5.2 12.8,7.7 C12.8,8.5 13.4,9 14.1,9 C14.7,9 15.4,8.5 15.4,7.7 C15.4,3.8 12.2,0.6 8.3,1 C5,1.4 2.6,4.5 2.6,8 L2.6,11.8 L1.3,11.8 C0.7,11.8 0,12.3 0,13.1 L0,26.6 C0,27.3 0.6,28 1.3,28 L16.7,28 C17.5,28 18,27.3 18,26.7 L18,13.2 C18,12.4 17.5,11.8 16.7,11.8 Z M9.7,15.1 C10.7,15.4 11.6,16.3 11.9,17.4 C12.2,18.8 11.5,20 10.4,20.6 L10.4,22.6 C10.4,23.5 9.8,24.1 8.9,24.1 C8,24.1 7.4,23.5 7.4,22.6 L7.4,20.6 C6.6,19.9 6,19 6,18 C6,16 7.8,14.6 9.7,15.1 Z M9.8,7 C9.9,7.1 10,7.2 10,7.4 L10,9.5 C10,9.8 9.8,10 9.5,10 C9.3,10 9.2,10 9.1,9.9 L8.2,8.7 C8.1,8.5 8.1,8.3 8.2,8.1 L9.1,7.1 C9.3,6.9 9.6,6.8 9.8,7 Z M18.2,7 C18.4,6.8 18.7,6.9 18.9,7.1 L18.9,7.1 L19.8,8.1 C19.9,8.3 20,8.5 19.8,8.7 L19.8,8.7 L18.9,9.8 C18.8,10 18.7,10 18.5,10 C18.2,10 18,9.8 18,9.5 L18,9.5 L18,7.4 C18,7.2 18.1,7.1 18.2,7 Z" id="Shape"></path>
                            </g>
                        </g>
                    </g>
                    <g id="Group" transform="translate(276.000000, 157.000000)" fill="#A2B6C7" fill-rule="nonzero">
                        <path d="M0.2,0.4 L0.9,0.4 L0.9,4.4 L0.9,4.4 C1,4.1 1.3,3.8 1.6,3.5 C1.9,3.3 2.3,3.2 2.9,3.2 C3.6,3.2 4.2,3.4 4.6,3.9 C5,4.4 5.2,5 5.2,5.8 L5.2,10 L4.5,10 L4.5,5.9 C4.5,5.2 4.4,4.7 4.1,4.4 C3.8,4.1 3.4,3.9 2.8,3.9 C2.6,3.9 2.3,3.9 2.1,4 C1.9,4.1 1.7,4.2 1.5,4.3 C1.3,4.4 1.2,4.6 1.1,4.8 C1,5 1,5.2 1,5.4 L1,10 L0.3,10 L0.3,0.4 L0.2,0.4 Z" id="Path"></path>
                        <path d="M12.1,10 C11.8,10 11.6,9.9 11.5,9.8 C11.4,9.7 11.3,9.5 11.3,9.2 L11.3,9 L11.2,9 C11.1,9.4 10.8,9.7 10.5,9.9 C10.2,10.1 9.7,10.2 9.2,10.2 C8.5,10.2 8,10 7.6,9.7 C7.2,9.4 7,8.9 7,8.2 C7,7.6 7.2,7.1 7.6,6.8 C8,6.5 8.7,6.3 9.7,6.3 L11.2,6.3 L11.2,5.5 C11.2,4.4 10.6,3.8 9.5,3.8 C9.1,3.8 8.7,3.9 8.4,4.1 C8.1,4.3 7.9,4.6 7.7,4.9 L7.2,4.5 C7.4,4.1 7.7,3.8 8,3.5 C8.4,3.3 8.9,3.1 9.5,3.1 C10.3,3.1 10.9,3.3 11.3,3.7 C11.7,4.1 11.9,4.6 11.9,5.3 L11.9,9.2 L12.8,9.2 L12.8,10 L12.1,10 Z M9.3,9.5 C9.6,9.5 9.8,9.5 10.1,9.4 C10.3,9.3 10.5,9.2 10.7,9.1 C10.9,9 11,8.8 11.1,8.6 C11.2,8.4 11.2,8.2 11.2,8 L11.2,6.8 L9.6,6.8 C8.9,6.8 8.4,6.9 8.2,7.1 C7.9,7.3 7.8,7.6 7.8,8 L7.8,8.3 C7.8,8.7 7.9,9 8.2,9.2 C8.5,9.4 8.8,9.5 9.3,9.5 Z" id="Shape"></path>
                        <path d="M14.4,10 L14.4,3.3 L15.1,3.3 L15.1,4.5 L15.2,4.5 C15.3,4.2 15.6,3.9 15.9,3.7 C16.2,3.5 16.7,3.3 17.2,3.3 L17.6,3.3 L17.6,4 L17,4 C16.4,4 16,4.1 15.6,4.4 C15.2,4.6 15.1,5 15.1,5.4 L15.1,10 L14.4,10 Z" id="Path"></path>
                        <path d="M23.3,8.9 L23.3,8.9 C23.1,9.3 22.8,9.6 22.5,9.8 C22.2,10 21.7,10.1 21.2,10.1 C20.3,10.1 19.7,9.8 19.2,9.2 C18.7,8.6 18.5,7.7 18.5,6.6 C18.5,5.5 18.7,4.6 19.2,4 C19.7,3.4 20.4,3.1 21.2,3.1 C21.7,3.1 22.1,3.2 22.5,3.4 C22.8,3.6 23.1,3.9 23.3,4.3 L23.3,4.3 L23.3,0.3 L24,0.3 L24,10 L23.3,10 L23.3,8.9 Z M21.4,9.5 C21.7,9.5 21.9,9.5 22.1,9.4 C22.3,9.3 22.5,9.2 22.7,9.1 C22.9,9 23,8.8 23.1,8.6 C23.2,8.4 23.3,8.2 23.3,8 L23.3,5.4 C23.3,5.2 23.2,5 23.1,4.8 C23,4.6 22.9,4.5 22.7,4.3 C22.5,4.2 22.3,4.1 22.1,4 C21.9,3.9 21.6,3.9 21.4,3.9 C20.7,3.9 20.2,4.1 19.8,4.5 C19.4,4.9 19.2,5.5 19.2,6.2 L19.2,7.1 C19.2,7.8 19.4,8.4 19.8,8.8 C20.2,9.3 20.7,9.5 21.4,9.5 Z" id="Shape"></path>
                        <polygon id="Path" points="25.7 3.3 26.4 3.3 28 9.3 28 9.3 29.8 3.3 30.5 3.3 32.3 9.3 32.3 9.3 33.9 3.3 34.6 3.3 32.7 10 31.8 10 30.1 4.4 30.1 4.4 28.4 10 27.5 10"></polygon>
                        <path d="M40.7,10 C40.4,10 40.2,9.9 40.1,9.8 C40,9.7 39.9,9.5 39.9,9.2 L39.9,9 L39.8,9 C39.7,9.4 39.4,9.7 39.1,9.9 C38.8,10.1 38.3,10.2 37.8,10.2 C37.1,10.2 36.6,10 36.2,9.7 C35.8,9.4 35.6,8.9 35.6,8.2 C35.6,7.6 35.8,7.1 36.2,6.8 C36.6,6.5 37.3,6.3 38.3,6.3 L39.8,6.3 L39.8,5.5 C39.8,4.4 39.2,3.8 38.1,3.8 C37.7,3.8 37.3,3.9 37,4.1 C36.7,4.3 36.5,4.6 36.3,4.9 L35.8,4.5 C36,4.1 36.3,3.8 36.6,3.5 C37,3.3 37.5,3.1 38.1,3.1 C38.9,3.1 39.5,3.3 39.9,3.7 C40.3,4.1 40.5,4.6 40.5,5.3 L40.5,9.2 L41.4,9.2 L41.4,10 L40.7,10 Z M37.8,9.5 C38.1,9.5 38.3,9.5 38.6,9.4 C38.8,9.3 39,9.2 39.2,9.1 C39.4,9 39.5,8.8 39.6,8.6 C39.7,8.4 39.8,8.2 39.8,8 L39.8,6.8 L38.2,6.8 C37.5,6.8 37,6.9 36.8,7.1 C36.5,7.3 36.4,7.6 36.4,8 L36.4,8.3 C36.4,8.7 36.5,9 36.8,9.2 C37.1,9.4 37.4,9.5 37.8,9.5 Z" id="Shape"></path>
                        <path d="M42.9,10 L42.9,3.3 L43.6,3.3 L43.6,4.5 L43.7,4.5 C43.8,4.2 44.1,3.9 44.4,3.7 C44.7,3.5 45.2,3.3 45.7,3.3 L46.1,3.3 L46.1,4 L45.5,4 C44.9,4 44.5,4.1 44.1,4.4 C43.7,4.6 43.6,5 43.6,5.4 L43.6,10 L42.9,10 Z" id="Path"></path>
                        <path d="M49.9,10.2 C49.5,10.2 49.1,10.1 48.7,10 C48.3,9.8 48,9.6 47.8,9.3 C47.6,9 47.3,8.6 47.2,8.2 C47.1,7.8 47,7.3 47,6.7 C47,6.1 47.1,5.7 47.2,5.2 C47.3,4.8 47.5,4.4 47.8,4.1 C48.1,3.8 48.4,3.6 48.7,3.4 C49,3.2 49.5,3.2 49.9,3.2 C50.3,3.2 50.7,3.3 51.1,3.4 C51.4,3.6 51.7,3.8 52,4.1 C52.2,4.4 52.4,4.7 52.6,5.1 C52.8,5.5 52.8,5.9 52.8,6.4 L52.8,6.8 L47.9,6.8 L47.9,7.1 C47.9,7.4 47.9,7.8 48,8.1 C48.1,8.4 48.2,8.6 48.4,8.8 C48.6,9 48.8,9.2 49.1,9.3 C49.4,9.4 49.7,9.5 50,9.5 C51,9.5 51.6,9.1 52,8.2 L52.5,8.6 C52.3,9.1 52,9.5 51.5,9.8 C51,10.1 50.6,10.2 49.9,10.2 Z M49.9,3.8 C49.6,3.8 49.3,3.9 49,4 C48.7,4.1 48.5,4.3 48.3,4.5 C48.1,4.7 48,5 47.9,5.2 C47.8,5.5 47.8,5.8 47.8,6.2 L47.8,6.3 L51.9,6.3 L51.9,6.2 C51.9,5.9 51.9,5.5 51.8,5.2 C51.7,4.9 51.6,4.7 51.4,4.5 C51.2,4.3 51,4.1 50.8,4 C50.5,3.9 50.2,3.8 49.9,3.8 Z" id="Shape"></path>
                        <path d="M62.2,10 C61.9,10 61.7,9.9 61.6,9.8 C61.5,9.7 61.4,9.5 61.4,9.2 L61.4,9 L61.3,9 C61.2,9.4 60.9,9.7 60.6,9.9 C60.3,10.1 59.8,10.2 59.3,10.2 C58.6,10.2 58.1,10 57.7,9.7 C57.3,9.4 57.1,8.9 57.1,8.2 C57.1,7.6 57.3,7.1 57.7,6.8 C58.1,6.5 58.8,6.3 59.8,6.3 L61.3,6.3 L61.3,5.5 C61.3,4.4 60.7,3.8 59.6,3.8 C59.2,3.8 58.8,3.9 58.5,4.1 C58.2,4.3 58,4.6 57.8,4.9 L57.3,4.5 C57.5,4.1 57.8,3.8 58.1,3.5 C58.5,3.3 59,3.1 59.6,3.1 C60.4,3.1 61,3.3 61.4,3.7 C61.8,4.1 62,4.6 62,5.3 L62,9.2 L62.9,9.2 L62.9,10 L62.2,10 Z M59.4,9.5 C59.7,9.5 59.9,9.5 60.2,9.4 C60.4,9.3 60.6,9.2 60.8,9.1 C61,9 61.1,8.8 61.2,8.6 C61.3,8.4 61.3,8.2 61.3,8 L61.3,6.8 L59.7,6.8 C59,6.8 58.5,6.9 58.3,7.1 C58,7.3 57.9,7.6 57.9,8 L57.9,8.3 C57.9,8.7 58,9 58.3,9.2 C58.6,9.4 59,9.5 59.4,9.5 Z" id="Shape"></path>
                        <path d="M64.5,10 L64.5,3.3 L65.2,3.3 L65.2,4.4 L65.2,4.4 C65.3,4.1 65.6,3.8 65.9,3.5 C66.2,3.3 66.6,3.2 67.2,3.2 C67.9,3.2 68.5,3.4 68.9,3.9 C69.3,4.4 69.5,5 69.5,5.8 L69.5,10 L68.8,10 L68.8,5.9 C68.8,5.2 68.7,4.7 68.4,4.4 C68.1,4.1 67.7,3.9 67.1,3.9 C66.9,3.9 66.6,3.9 66.4,4 C66.2,4.1 66,4.2 65.8,4.3 C65.6,4.4 65.5,4.6 65.4,4.8 C65.3,5 65.3,5.2 65.3,5.4 L65.3,10 L64.5,10 Z" id="Path"></path>
                        <path d="M76.1,8.9 L76.1,8.9 C75.9,9.3 75.6,9.6 75.3,9.8 C75,10 74.5,10.1 74,10.1 C73.1,10.1 72.5,9.8 72,9.2 C71.5,8.6 71.3,7.7 71.3,6.6 C71.3,5.5 71.5,4.6 72,4 C72.5,3.4 73.2,3.1 74,3.1 C74.5,3.1 74.9,3.2 75.3,3.4 C75.6,3.6 75.9,3.9 76.1,4.3 L76.1,4.3 L76.1,0.3 L76.8,0.3 L76.8,10 L76.1,10 L76.1,8.9 Z M74.2,9.5 C74.5,9.5 74.7,9.5 74.9,9.4 C75.1,9.3 75.3,9.2 75.5,9.1 C75.7,9 75.8,8.8 75.9,8.6 C76,8.4 76,8.2 76,8 L76,5.4 C76,5.2 76,5 75.9,4.8 C75.8,4.6 75.7,4.5 75.5,4.3 C75.3,4.2 75.1,4.1 74.9,4 C74.7,3.9 74.4,3.9 74.2,3.9 C73.5,3.9 73,4.1 72.6,4.5 C72.2,4.9 72,5.5 72,6.2 L72,7.1 C72,7.8 72.2,8.4 72.6,8.8 C73.1,9.3 73.6,9.5 74.2,9.5 Z" id="Shape"></path>
                        <path d="M84.7,10.2 C83.8,10.2 83.1,9.9 82.6,9.3 C82.1,8.7 81.9,7.8 81.9,6.7 C81.9,5.6 82.1,4.7 82.6,4.1 C83.1,3.5 83.8,3.2 84.7,3.2 C85.3,3.2 85.8,3.3 86.2,3.6 C86.6,3.9 86.9,4.2 87.1,4.7 L86.5,5 C86.3,4.6 86.1,4.4 85.8,4.2 C85.5,4 85.2,3.9 84.7,3.9 C84,3.9 83.5,4.1 83.2,4.6 C82.9,5.1 82.7,5.6 82.7,6.3 L82.7,7.2 C82.7,7.9 82.9,8.5 83.2,8.9 C83.6,9.3 84.1,9.6 84.7,9.6 C85.2,9.6 85.5,9.5 85.9,9.3 C86.3,9.1 86.5,8.8 86.7,8.4 L87.2,8.8 C87,9.2 86.7,9.6 86.3,9.9 C85.8,10 85.3,10.2 84.7,10.2 Z" id="Path"></path>
                        <path d="M89.6,10 C89.3,10 89.1,9.9 89,9.8 C88.9,9.7 88.8,9.5 88.8,9.2 L88.8,0.4 L89.5,0.4 L89.5,9.4 L90.5,9.4 L90.5,10 L89.6,10 Z" id="Path"></path>
                        <path d="M94.6,10.2 C94.2,10.2 93.8,10.1 93.4,10 C93,9.9 92.7,9.6 92.5,9.3 C92.2,9 92.1,8.6 91.9,8.2 C91.8,7.8 91.7,7.3 91.7,6.7 C91.7,6.1 91.8,5.7 91.9,5.2 C92,4.8 92.2,4.4 92.5,4.1 C92.8,3.8 93.1,3.6 93.4,3.4 C93.7,3.2 94.2,3.2 94.6,3.2 C95,3.2 95.4,3.3 95.8,3.4 C96.2,3.5 96.5,3.8 96.7,4.1 C96.9,4.4 97.1,4.8 97.3,5.2 C97.4,5.6 97.5,6.1 97.5,6.7 C97.5,7.3 97.4,7.7 97.3,8.2 C97.2,8.6 97,9 96.7,9.3 C96.4,9.6 96.1,9.8 95.8,10 C95.5,10.2 95.1,10.2 94.6,10.2 Z M94.6,9.5 C95.2,9.5 95.8,9.3 96.1,8.9 C96.4,8.5 96.7,7.9 96.7,7.1 L96.7,6.3 C96.7,5.5 96.5,4.9 96.1,4.5 C95.7,4.1 95.2,3.9 94.6,3.9 C93.9,3.9 93.4,4.1 93.1,4.5 C92.8,4.9 92.5,5.5 92.5,6.3 L92.5,7.1 C92.5,7.9 92.7,8.5 93.1,8.9 C93.5,9.3 94,9.5 94.6,9.5 Z" id="Shape"></path>
                        <path d="M103.6,8.9 L103.6,8.9 C103.5,9.1 103.4,9.2 103.3,9.4 C103.2,9.5 103.1,9.7 102.9,9.8 C102.7,9.9 102.6,10 102.3,10.1 C102.1,10.2 101.8,10.2 101.6,10.2 C100.9,10.2 100.3,10 99.9,9.5 C99.5,9.1 99.3,8.4 99.3,7.6 L99.3,3.3 L100,3.3 L100,7.4 C100,8.1 100.1,8.6 100.4,8.9 C100.7,9.2 101.1,9.4 101.7,9.4 C101.9,9.4 102.2,9.4 102.4,9.3 C102.6,9.2 102.8,9.1 103,9 C103.2,8.9 103.3,8.7 103.4,8.5 C103.5,8.3 103.5,8.1 103.5,7.8 L103.5,3.1 L104.2,3.1 L104.2,10 L103.5,10 L103.5,8.9 L103.6,8.9 Z" id="Path"></path>
                        <path d="M111,8.9 L111,8.9 C110.8,9.3 110.5,9.6 110.2,9.8 C109.9,10 109.4,10.1 108.9,10.1 C108,10.1 107.4,9.8 106.9,9.2 C106.4,8.6 106.2,7.7 106.2,6.6 C106.2,5.5 106.4,4.6 106.9,4 C107.4,3.4 108.1,3.1 108.9,3.1 C109.4,3.1 109.8,3.2 110.2,3.4 C110.6,3.6 110.8,3.9 111,4.3 L111,4.3 L111,0.3 L111.7,0.3 L111.7,10 L111,10 L111,8.9 Z M109.1,9.5 C109.4,9.5 109.6,9.5 109.8,9.4 C110,9.3 110.2,9.2 110.4,9.1 C110.6,9 110.7,8.8 110.8,8.6 C110.9,8.4 111,8.2 111,8 L111,5.4 C111,5.2 110.9,5 110.8,4.8 C110.7,4.6 110.6,4.5 110.4,4.3 C110.2,4.2 110,4.1 109.8,4 C109.6,3.9 109.3,3.9 109.1,3.9 C108.4,3.9 107.9,4.1 107.5,4.5 C107.1,4.9 106.9,5.5 106.9,6.2 L106.9,7.1 C106.9,7.8 107.1,8.4 107.5,8.8 C107.9,9.3 108.5,9.5 109.1,9.5 Z" id="Shape"></path>
                        <path d="M119.1,10.2 C118.5,10.2 118,10.1 117.6,9.9 C117.2,9.7 116.8,9.4 116.5,9 L117,8.6 C117.3,9 117.6,9.2 117.9,9.4 C118.2,9.6 118.6,9.7 119.1,9.7 C119.6,9.7 120,9.6 120.3,9.4 C120.6,9.2 120.7,8.9 120.7,8.5 C120.7,8.1 120.6,7.9 120.4,7.7 C120.2,7.5 119.8,7.4 119.4,7.3 L118.9,7.2 C118.6,7.2 118.3,7.1 118.1,7 C117.8,6.9 117.6,6.8 117.5,6.6 C117.4,6.4 117.2,6.3 117.1,6.1 C117,5.9 117,5.6 117,5.3 C117,5 117.1,4.7 117.2,4.5 C117.3,4.3 117.5,4.1 117.7,3.9 C117.9,3.7 118.1,3.6 118.4,3.5 C118.7,3.4 119,3.4 119.3,3.4 C119.9,3.4 120.3,3.5 120.7,3.7 C121.1,3.9 121.4,4.1 121.6,4.4 L121.1,4.9 C120.9,4.7 120.7,4.5 120.4,4.3 C120.1,4.1 119.7,4 119.3,4 C118.8,4 118.5,4.1 118.2,4.3 C117.9,4.5 117.8,4.8 117.8,5.2 C117.8,5.6 117.9,5.9 118.2,6 C118.4,6.2 118.8,6.3 119.3,6.4 L119.8,6.5 C120.5,6.6 121,6.8 121.3,7.1 C121.6,7.4 121.8,7.8 121.8,8.4 C121.8,9 121.6,9.5 121.2,9.9 C120.4,10 119.9,10.2 119.1,10.2 Z" id="Path"></path>
                        <path d="M125.8,10.2 C125.4,10.2 125,10.1 124.6,10 C124.2,9.8 123.9,9.6 123.7,9.3 C123.5,9 123.2,8.6 123.1,8.2 C123,7.8 122.9,7.3 122.9,6.7 C122.9,6.1 123,5.7 123.1,5.2 C123.2,4.8 123.4,4.4 123.7,4.1 C124,3.8 124.3,3.6 124.6,3.4 C124.9,3.2 125.4,3.2 125.8,3.2 C126.2,3.2 126.6,3.3 127,3.4 C127.3,3.6 127.6,3.8 127.9,4.1 C128.1,4.4 128.3,4.7 128.5,5.1 C128.7,5.5 128.7,5.9 128.7,6.4 L128.7,6.8 L123.8,6.8 L123.8,7.1 C123.8,7.4 123.8,7.8 123.9,8.1 C124,8.4 124.1,8.6 124.3,8.8 C124.5,9 124.7,9.2 125,9.3 C125.3,9.4 125.6,9.5 125.9,9.5 C126.9,9.5 127.5,9.1 127.9,8.2 L128.4,8.6 C128.2,9.1 127.9,9.5 127.4,9.8 C127,10 126.5,10.2 125.8,10.2 Z M125.8,3.8 C125.5,3.8 125.2,3.9 124.9,4 C124.6,4.1 124.4,4.3 124.2,4.5 C124,4.7 123.9,5 123.8,5.2 C123.7,5.5 123.7,5.8 123.7,6.2 L123.7,6.3 L127.8,6.3 L127.8,6.2 C127.8,5.9 127.8,5.5 127.7,5.2 C127.6,4.9 127.5,4.7 127.3,4.5 C127.1,4.3 126.9,4.1 126.7,4 C126.5,3.9 126.1,3.8 125.8,3.8 Z" id="Shape"></path>
                        <path d="M130.5,10 L130.5,3.3 L131.2,3.3 L131.2,4.5 L131.3,4.5 C131.4,4.2 131.7,3.9 132,3.7 C132.3,3.5 132.8,3.3 133.3,3.3 L133.7,3.3 L133.7,4 L133.1,4 C132.5,4 132.1,4.1 131.7,4.4 C131.3,4.6 131.2,5 131.2,5.4 L131.2,10 L130.5,10 Z" id="Path"></path>
                        <polygon id="Path" points="134.4 3.3 135.2 3.3 137.2 9.2 137.3 9.2 139.3 3.3 140.1 3.3 137.7 10 136.9 10"></polygon>
                        <path d="M141.9,1.5 C141.7,1.5 141.6,1.5 141.5,1.4 C141.4,1.3 141.4,1.2 141.4,1.1 L141.4,1 C141.4,0.9 141.4,0.7 141.5,0.7 C141.6,0.6 141.7,0.6 141.9,0.6 C142.1,0.6 142.2,0.6 142.3,0.7 C142.4,0.8 142.4,0.9 142.4,1 L142.4,1.1 C142.4,1.2 142.4,1.4 142.3,1.4 C142.2,1.5 142.1,1.5 141.9,1.5 Z M141.5,3.3 L142.2,3.3 L142.2,10 L141.5,10 L141.5,3.3 Z" id="Shape"></path>
                        <path d="M147,10.2 C146.1,10.2 145.4,9.9 144.9,9.3 C144.4,8.7 144.2,7.8 144.2,6.7 C144.2,5.6 144.4,4.7 144.9,4.1 C145.4,3.5 146.1,3.2 147,3.2 C147.6,3.2 148.1,3.3 148.5,3.6 C148.9,3.9 149.2,4.2 149.4,4.7 L148.8,5 C148.6,4.6 148.4,4.4 148.1,4.2 C147.8,4 147.5,3.9 147,3.9 C146.3,3.9 145.8,4.1 145.5,4.6 C145.2,5.1 145,5.6 145,6.3 L145,7.2 C145,7.9 145.2,8.5 145.5,8.9 C145.9,9.3 146.4,9.6 147,9.6 C147.5,9.6 147.8,9.5 148.2,9.3 C148.6,9.1 148.8,8.8 149,8.4 L149.5,8.8 C149.3,9.2 149,9.6 148.6,9.9 C148.1,10 147.6,10.2 147,10.2 Z" id="Path"></path>
                        <path d="M153.4,10.2 C153,10.2 152.6,10.1 152.2,10 C151.8,9.8 151.5,9.6 151.3,9.3 C151.1,9 150.8,8.6 150.7,8.2 C150.6,7.8 150.5,7.3 150.5,6.7 C150.5,6.1 150.6,5.7 150.7,5.2 C150.8,4.8 151,4.4 151.3,4.1 C151.6,3.8 151.9,3.6 152.2,3.4 C152.5,3.2 153,3.2 153.4,3.2 C153.8,3.2 154.2,3.3 154.6,3.4 C154.9,3.6 155.2,3.8 155.5,4.1 C155.7,4.4 155.9,4.7 156.1,5.1 C156.3,5.5 156.3,5.9 156.3,6.4 L156.3,6.8 L151.4,6.8 L151.4,7.1 C151.4,7.4 151.4,7.8 151.5,8.1 C151.6,8.4 151.7,8.6 151.9,8.8 C152.1,9 152.3,9.2 152.6,9.3 C152.9,9.4 153.2,9.5 153.5,9.5 C154.5,9.5 155.1,9.1 155.5,8.2 L156,8.6 C155.8,9.1 155.5,9.5 155,9.8 C154.6,10 154,10.2 153.4,10.2 Z M153.4,3.8 C153.1,3.8 152.8,3.9 152.5,4 C152.2,4.1 152,4.3 151.8,4.5 C151.6,4.7 151.5,5 151.4,5.2 C151.3,5.5 151.3,5.8 151.3,6.2 L151.3,6.3 L155.4,6.3 L155.4,6.2 C155.4,5.9 155.4,5.5 155.3,5.2 C155.2,4.9 155.1,4.7 154.9,4.5 C154.7,4.3 154.5,4.1 154.3,4 C154.1,3.9 153.7,3.8 153.4,3.8 Z" id="Shape"></path>
                        <path d="M160,10.2 C159.4,10.2 158.9,10.1 158.5,9.9 C158.1,9.7 157.7,9.4 157.4,9 L157.9,8.6 C158.2,9 158.5,9.2 158.8,9.4 C159.1,9.6 159.5,9.7 160,9.7 C160.5,9.7 160.9,9.6 161.2,9.4 C161.5,9.2 161.6,8.9 161.6,8.5 C161.6,8.1 161.5,7.9 161.3,7.7 C161.1,7.5 160.7,7.4 160.3,7.3 L159.8,7.2 C159.5,7.2 159.2,7.1 159,7 C158.7,6.9 158.5,6.8 158.4,6.6 C158.3,6.4 158.1,6.3 158,6.1 C157.9,5.9 157.8,5.6 157.8,5.3 C157.8,5 157.9,4.7 158,4.5 C158.1,4.3 158.3,4.1 158.5,3.9 C158.7,3.7 158.9,3.6 159.2,3.5 C159.5,3.4 159.8,3.4 160.1,3.4 C160.7,3.4 161.1,3.5 161.5,3.7 C161.9,3.9 162.2,4.1 162.4,4.4 L161.9,4.9 C161.7,4.7 161.5,4.5 161.2,4.3 C160.9,4.1 160.5,4 160.1,4 C159.6,4 159.3,4.1 159,4.3 C158.7,4.5 158.6,4.8 158.6,5.2 C158.6,5.6 158.7,5.9 159,6 C159.2,6.2 159.6,6.3 160.1,6.4 L160.6,6.5 C161.3,6.6 161.8,6.8 162.1,7.1 C162.4,7.4 162.6,7.8 162.6,8.4 C162.6,9 162.4,9.5 162,9.9 C161.6,10.3 160.7,10.2 160,10.2 Z" id="Path"></path>
                    </g>
                    <rect id="Rectangle_1_" fill="#00B7E6" x="256" y="74" width="8" height="1"></rect>
                    <rect id="Rectangle_2_" fill="#00B7E6" x="256" y="153" width="8" height="1"></rect>
                    <rect id="Rectangle_3_" fill="#00B7E6" x="256" y="232" width="8" height="1"></rect>
                </g>
            </g>
        </g>
    </g>
</svg>