<?xml version="1.0" encoding="utf-8"?>
<!-- Generator: Adobe Illustrator 24.3.0, SVG Export Plug-In . SVG Version: 6.00 Build 0)  -->
<svg version="1.1" id="Warstwa_1" xmlns="http://www.w3.org/2000/svg" xmlns:xlink="http://www.w3.org/1999/xlink" x="0px" y="0px"
	 viewBox="0 0 493 264" style="enable-background:new 0 0 493 264;" xml:space="preserve">
<style type="text/css">
	.st0{fill:none;stroke:#4BC7EC;}
	.st1{fill-rule:evenodd;clip-rule:evenodd;fill:#25B8E4;fill-opacity:6.000000e-02;}
	.st2{enable-background:new    ;}
	.st3{fill:#25B8E4;}
	.st4{fill-rule:evenodd;clip-rule:evenodd;fill:#00B7E6;}
	.st5{fill:#A2B6C7;}
	.st6{fill:#00B7E6;}
	.st7{fill:#00BAE9;}
</style>
<g id="Content">
	<g id="Desktop-HD-v.2-Copy" transform="translate(-782.000000, -1905.000000)">
		<g id="info_2" transform="translate(166.000000, 1879.000000)">
			<g id="infographic" transform="translate(616.000000, 26.000000)">
				<path id="Rectangle" class="st0" d="M10.5,0.5h472c5.5,0,10,4.5,10,10v243c0,5.5-4.5,10-10,10h-472c-5.5,0-10-4.5-10-10v-243
					C0.5,5,5,0.5,10.5,0.5z"/>
				<g id="App" transform="translate(24.000000, 24.000000)">
					<path id="Rectangle-Copy-20" class="st1" d="M4,0h197c2.2,0,4,1.8,4,4v48c0,2.2-1.8,4-4,4H4c-2.2,0-4-1.8-4-4V4
						C0,1.8,1.8,0,4,0z"/>
					<g class="st2">
						<path class="st3" d="M72.9,29.9h-4.3l-1,3.1h-1.3L70,21.8h1.6L75.3,33H74L72.9,29.9z M69,28.7h3.5l-1.6-5.3h-0.2L69,28.7z"/>
						<path class="st3" d="M77.1,27.8c0-0.1,0-0.2,0-0.4c0-0.2,0-0.3,0-0.5c0-0.2,0-0.3,0-0.5c0-0.2,0-0.3-0.1-0.4h-1.1v-1h2.1
							l0.2,1.1h0.1c0.3-0.4,0.7-0.7,1.1-0.9c0.4-0.2,1-0.4,1.6-0.4c1.1,0,2,0.3,2.6,0.9c0.6,0.6,0.9,1.7,0.9,3.1
							c0,0.7-0.1,1.3-0.3,1.8c-0.2,0.5-0.5,1-0.8,1.4c-0.4,0.4-0.8,0.7-1.3,0.9c-0.5,0.2-1.1,0.3-1.7,0.3c-0.2,0-0.4,0-0.6,0
							c-0.2,0-0.3,0-0.5-0.1c-0.1,0-0.3-0.1-0.4-0.1s-0.3-0.1-0.4-0.2v3.4h-1.2V27.8z M80.8,26c-0.3,0-0.6,0.1-0.9,0.2
							c-0.3,0.1-0.5,0.3-0.8,0.5c-0.2,0.2-0.4,0.4-0.5,0.6c-0.1,0.2-0.2,0.5-0.3,0.7v3.6c0.2,0.2,0.5,0.3,0.8,0.4
							c0.3,0.1,0.7,0.1,1.2,0.1c0.9,0,1.5-0.3,2-0.8c0.5-0.6,0.8-1.4,0.8-2.5c0-0.9-0.2-1.6-0.5-2.1C82.2,26.2,81.6,26,80.8,26z"/>
						<path class="st3" d="M86.7,27.8c0-0.1,0-0.2,0-0.4c0-0.2,0-0.3,0-0.5c0-0.2,0-0.3,0-0.5c0-0.2,0-0.3-0.1-0.4h-1.1v-1h2.1
							l0.2,1.1h0.1c0.3-0.4,0.7-0.7,1.1-0.9c0.4-0.2,1-0.4,1.6-0.4c1.1,0,2,0.3,2.6,0.9c0.6,0.6,0.9,1.7,0.9,3.1
							c0,0.7-0.1,1.3-0.3,1.8c-0.2,0.5-0.5,1-0.8,1.4c-0.4,0.4-0.8,0.7-1.3,0.9c-0.5,0.2-1.1,0.3-1.7,0.3c-0.2,0-0.4,0-0.6,0
							c-0.2,0-0.3,0-0.5-0.1c-0.1,0-0.3-0.1-0.4-0.1s-0.3-0.1-0.4-0.2v3.4h-1.2V27.8z M90.4,26c-0.3,0-0.6,0.1-0.9,0.2
							c-0.3,0.1-0.5,0.3-0.8,0.5c-0.2,0.2-0.4,0.4-0.5,0.6C88.1,27.5,88,27.7,88,28v3.6c0.2,0.2,0.5,0.3,0.8,0.4
							c0.3,0.1,0.7,0.1,1.2,0.1c0.9,0,1.5-0.3,2-0.8c0.5-0.6,0.8-1.4,0.8-2.5c0-0.9-0.2-1.6-0.5-2.1C91.8,26.2,91.2,26,90.4,26z"/>
						<path class="st3" d="M96.7,21.8h2.7v8.5c0,0.7,0.1,1.1,0.3,1.4s0.5,0.4,1,0.4c0.3,0,0.6-0.1,0.9-0.2c0.3-0.1,0.6-0.3,0.9-0.5
							l0.6,0.9c-0.2,0.1-0.4,0.3-0.6,0.4c-0.2,0.1-0.4,0.2-0.6,0.3s-0.4,0.1-0.6,0.2c-0.2,0-0.4,0.1-0.6,0.1c-0.4,0-0.7-0.1-1.1-0.2
							c-0.3-0.1-0.6-0.3-0.8-0.5c-0.2-0.2-0.4-0.5-0.5-0.9s-0.2-0.8-0.2-1.4v-7.4h-1.4V21.8z"/>
						<path class="st3" d="M106.1,33v-1.1h2.8v-5.9h-2.8V25h4v6.9h2.7V33H106.1z M108.4,22.7c0-0.3,0.1-0.5,0.3-0.7
							c0.2-0.2,0.4-0.3,0.7-0.3c0.3,0,0.6,0.1,0.8,0.3s0.3,0.5,0.3,0.7c0,0.3-0.1,0.5-0.3,0.7c-0.2,0.2-0.5,0.3-0.8,0.3
							c-0.3,0-0.5-0.1-0.7-0.3C108.5,23.2,108.4,23,108.4,22.7z"/>
						<path class="st3" d="M121,26.2c-0.2-0.1-0.5-0.2-0.8-0.2c-0.3-0.1-0.6-0.1-0.8-0.1c-1,0-1.8,0.2-2.3,0.7
							c-0.5,0.5-0.8,1.3-0.8,2.3c0,0.5,0.1,0.9,0.2,1.3c0.1,0.4,0.4,0.7,0.6,0.9s0.6,0.5,1,0.6c0.4,0.1,0.8,0.2,1.3,0.2
							c0.5,0,1-0.1,1.5-0.3c0.5-0.2,0.9-0.4,1.2-0.7l0.6,0.9c-0.1,0.1-0.3,0.3-0.6,0.4c-0.2,0.1-0.5,0.3-0.8,0.4s-0.6,0.2-1,0.3
							c-0.4,0.1-0.7,0.1-1.2,0.1c-0.7,0-1.3-0.1-1.8-0.3c-0.5-0.2-1-0.5-1.3-0.8c-0.4-0.4-0.6-0.8-0.8-1.3c-0.2-0.5-0.3-1.1-0.3-1.7
							c0-0.7,0.1-1.3,0.3-1.8c0.2-0.5,0.5-1,0.8-1.3c0.4-0.4,0.8-0.6,1.3-0.8c0.5-0.2,1.1-0.3,1.7-0.3c0.8,0,1.4,0.1,1.9,0.2
							c0.5,0.1,0.9,0.3,1.3,0.5l0,0v2.2H121V26.2z"/>
						<path class="st3" d="M125.3,25.6c0.5-0.3,1-0.5,1.6-0.6c0.6-0.1,1.1-0.2,1.7-0.2c0.5,0,1,0.1,1.3,0.3s0.6,0.4,0.8,0.7
							s0.3,0.6,0.4,0.9s0.1,0.7,0.1,1c0,0.4,0,0.8,0,1.3c0,0.5,0,0.9,0,1.4c0,0.5,0,1,0.1,1.5h1.1v1h-2.1l-0.1-1.2H130
							c-0.1,0.1-0.2,0.2-0.3,0.4s-0.3,0.3-0.5,0.4c-0.2,0.1-0.5,0.3-0.8,0.4c-0.3,0.1-0.7,0.2-1.1,0.2c-0.8,0-1.4-0.2-1.9-0.6
							s-0.7-1-0.7-1.7c0-0.5,0.1-1,0.4-1.4c0.2-0.4,0.6-0.6,1-0.8c0.4-0.2,1-0.3,1.6-0.3c0.6,0,1.4,0,2.1,0.1c0.1-0.5,0.1-0.9,0-1.2
							c0-0.3-0.1-0.6-0.3-0.8c-0.1-0.2-0.3-0.3-0.6-0.4c-0.2-0.1-0.5-0.1-0.9-0.1c-0.5,0-0.9,0.1-1.4,0.2c-0.4,0.1-0.8,0.3-1.2,0.4
							L125.3,25.6z M127.7,32.1c0.3,0,0.6,0,0.8-0.1c0.3-0.1,0.5-0.2,0.7-0.4c0.2-0.1,0.4-0.3,0.5-0.5s0.2-0.3,0.3-0.5v-1.1
							c-0.6-0.1-1.1-0.1-1.5-0.1c-0.5,0-0.9,0.1-1.2,0.2c-0.3,0.1-0.6,0.3-0.8,0.5c-0.2,0.2-0.3,0.5-0.3,0.8c0,0.4,0.1,0.7,0.4,0.9
							C126.7,31.9,127.1,32.1,127.7,32.1z"/>
						<path class="st3" d="M133.7,25h1.9v-1.6l1.3-0.4V25h4.3v1.1h-4.3v3.8c0,0.8,0.2,1.4,0.6,1.7s0.9,0.6,1.6,0.6
							c0.5,0,0.9-0.1,1.3-0.3c0.4-0.2,0.7-0.4,1-0.6l0.4,0.9c-0.4,0.3-0.8,0.5-1.3,0.7c-0.5,0.2-1,0.3-1.6,0.3
							c-0.4,0-0.8-0.1-1.2-0.2c-0.4-0.1-0.7-0.3-1-0.6c-0.3-0.3-0.5-0.6-0.7-1c-0.2-0.4-0.3-0.9-0.3-1.4v-4h-1.9V25z"/>
						<path class="st3" d="M144.5,33v-1.1h2.8v-5.9h-2.8V25h4v6.9h2.7V33H144.5z M146.8,22.7c0-0.3,0.1-0.5,0.3-0.7
							c0.2-0.2,0.4-0.3,0.7-0.3c0.3,0,0.6,0.1,0.8,0.3s0.3,0.5,0.3,0.7c0,0.3-0.1,0.5-0.3,0.7c-0.2,0.2-0.5,0.3-0.8,0.3
							c-0.3,0-0.5-0.1-0.7-0.3C146.9,23.2,146.8,23,146.8,22.7z"/>
						<path class="st3" d="M153.3,29c0-1.3,0.3-2.3,1-3.1c0.7-0.8,1.6-1.1,2.9-1.1c0.7,0,1.3,0.1,1.7,0.3c0.5,0.2,0.9,0.5,1.2,0.9
							c0.3,0.4,0.6,0.8,0.7,1.3c0.2,0.5,0.2,1.1,0.2,1.6c0,0.6-0.1,1.2-0.3,1.7c-0.2,0.5-0.4,1-0.8,1.3c-0.3,0.4-0.7,0.6-1.2,0.8
							c-0.5,0.2-1,0.3-1.7,0.3c-0.7,0-1.2-0.1-1.7-0.3c-0.5-0.2-0.9-0.5-1.2-0.9c-0.3-0.4-0.6-0.8-0.7-1.3
							C153.4,30.1,153.3,29.6,153.3,29z M154.6,29c0,0.4,0,0.7,0.1,1.1s0.2,0.7,0.4,1c0.2,0.3,0.5,0.5,0.8,0.7
							c0.3,0.2,0.7,0.3,1.2,0.3c0.9,0,1.5-0.3,1.9-0.8s0.6-1.3,0.6-2.3c0-0.4,0-0.8-0.1-1.1c-0.1-0.4-0.2-0.7-0.4-1
							c-0.2-0.3-0.5-0.5-0.8-0.7c-0.3-0.2-0.7-0.3-1.2-0.3c-0.9,0-1.5,0.3-1.9,0.8S154.6,28,154.6,29z"/>
						<path class="st3" d="M163.5,27.8c0-0.1,0-0.2,0-0.4c0-0.2,0-0.3,0-0.5c0-0.2,0-0.3,0-0.5s0-0.3-0.1-0.4h-1.1v-1h2.1l0.1,1.3
							h0.1c0.1-0.2,0.2-0.4,0.4-0.5c0.2-0.2,0.4-0.3,0.6-0.5c0.2-0.1,0.5-0.3,0.8-0.3c0.3-0.1,0.6-0.1,0.9-0.1
							c0.5,0,0.9,0.1,1.3,0.2c0.4,0.1,0.7,0.3,0.9,0.6c0.3,0.3,0.4,0.6,0.6,1.1s0.2,1.1,0.2,1.8V33h-1.3v-4.3c0-0.9-0.1-1.5-0.4-2
							c-0.3-0.4-0.8-0.7-1.6-0.7c-0.3,0-0.5,0.1-0.8,0.2c-0.3,0.1-0.5,0.3-0.7,0.4s-0.4,0.4-0.6,0.6c-0.2,0.2-0.3,0.5-0.4,0.8v5
							h-1.2V27.8z"/>
						<path class="st3" d="M178.6,30.8c0-0.3-0.1-0.6-0.4-0.8c-0.3-0.2-0.6-0.3-1-0.4c-0.4-0.1-0.8-0.2-1.3-0.3
							c-0.5-0.1-0.9-0.2-1.3-0.4s-0.7-0.4-1-0.6c-0.3-0.3-0.4-0.7-0.4-1.1c0-0.4,0.1-0.8,0.3-1c0.2-0.3,0.4-0.5,0.7-0.7
							s0.6-0.3,1-0.4c0.4-0.1,0.8-0.1,1.2-0.1c0.7,0,1.4,0.1,1.9,0.3c0.5,0.2,1,0.4,1.3,0.6l-0.5,1c-0.4-0.2-0.7-0.4-1.1-0.6
							c-0.4-0.2-0.9-0.3-1.5-0.3c-0.2,0-0.5,0-0.7,0.1c-0.2,0-0.4,0.1-0.6,0.2c-0.2,0.1-0.3,0.2-0.4,0.4c-0.1,0.2-0.2,0.3-0.2,0.6
							c0,0.3,0.1,0.5,0.4,0.6c0.3,0.1,0.6,0.3,1,0.4s0.8,0.2,1.3,0.3c0.5,0.1,0.9,0.2,1.3,0.4s0.7,0.4,1,0.7
							c0.3,0.3,0.4,0.7,0.4,1.2c0,0.7-0.3,1.3-0.9,1.8c-0.6,0.5-1.5,0.7-2.6,0.7c-0.4,0-0.7,0-1-0.1c-0.3-0.1-0.7-0.1-1-0.3
							c-0.3-0.1-0.6-0.2-0.8-0.4c-0.2-0.1-0.4-0.3-0.6-0.4l0.6-1c0.1,0.1,0.3,0.3,0.5,0.4c0.2,0.1,0.4,0.3,0.7,0.4s0.5,0.2,0.8,0.3
							c0.3,0.1,0.6,0.1,0.9,0.1c0.3,0,0.6,0,0.8-0.1c0.2,0,0.5-0.1,0.7-0.2s0.3-0.2,0.5-0.4C178.5,31.3,178.6,31.1,178.6,30.8z"/>
					</g>
					<g class="st2">
						<path class="st3" d="M231.4,31.4c0.3,0.2,0.7,0.3,1.1,0.4c0.4,0.1,0.8,0.2,1.2,0.2c0.4,0,0.7,0,1-0.1c0.3-0.1,0.6-0.2,0.8-0.3
							c0.2-0.2,0.4-0.3,0.5-0.6c0.1-0.2,0.2-0.5,0.2-0.8c0-0.4-0.1-0.8-0.4-1.1s-0.7-0.5-1.1-0.7c-0.4-0.2-0.9-0.4-1.4-0.6
							c-0.5-0.2-1-0.4-1.4-0.7s-0.8-0.6-1.1-1c-0.3-0.4-0.4-0.9-0.4-1.5c0-0.4,0.1-0.8,0.3-1.2c0.2-0.4,0.4-0.7,0.7-0.9
							s0.7-0.4,1.2-0.6c0.5-0.1,1-0.2,1.5-0.2c0.6,0,1.2,0,1.7,0.1c0.5,0.1,0.9,0.2,1.2,0.4l0,0v0h0l0,0v2.6h-1.2V23
							c-0.3-0.1-0.6-0.1-0.9-0.2c-0.3,0-0.7-0.1-1-0.1c-0.4,0-0.7,0-1,0.1c-0.3,0.1-0.5,0.2-0.7,0.3c-0.2,0.1-0.3,0.3-0.5,0.5
							c-0.1,0.2-0.2,0.4-0.2,0.6c0,0.4,0.1,0.8,0.4,1s0.7,0.5,1.1,0.7s0.9,0.4,1.4,0.6c0.5,0.2,1,0.5,1.4,0.7c0.4,0.3,0.8,0.6,1.1,1
							c0.3,0.4,0.4,0.9,0.4,1.5c0,0.5-0.1,0.9-0.3,1.3c-0.2,0.4-0.4,0.7-0.8,1s-0.7,0.5-1.2,0.6s-1,0.2-1.6,0.2
							c-0.4,0-0.8,0-1.2-0.1c-0.4-0.1-0.7-0.1-1-0.2c-0.3-0.1-0.6-0.2-0.8-0.3c-0.2-0.1-0.4-0.2-0.6-0.3l0,0v-2.6h1.2V31.4z"/>
						<path class="st3" d="M240.3,33v-1.1h2.8v-5.9h-2.8V25h4v6.9h2.7V33H240.3z M242.6,22.7c0-0.3,0.1-0.5,0.3-0.7
							c0.2-0.2,0.4-0.3,0.7-0.3c0.3,0,0.6,0.1,0.8,0.3c0.2,0.2,0.3,0.5,0.3,0.7c0,0.3-0.1,0.5-0.3,0.7c-0.2,0.2-0.5,0.3-0.8,0.3
							c-0.3,0-0.5-0.1-0.7-0.3C242.7,23.2,242.6,23,242.6,22.7z"/>
						<path class="st3" d="M252.4,33v-5.3c0-0.2,0-0.4,0-0.6c0-0.2-0.1-0.4-0.1-0.6c-0.1-0.2-0.1-0.3-0.3-0.4
							c-0.1-0.1-0.3-0.1-0.4-0.1c-0.4,0-0.7,0.1-0.9,0.4s-0.4,0.7-0.6,1.1V33h-1.2v-8h0.8l0.2,1h0.1c0.1-0.2,0.2-0.3,0.3-0.5
							c0.1-0.1,0.2-0.3,0.4-0.4c0.1-0.1,0.3-0.2,0.5-0.2c0.2-0.1,0.4-0.1,0.7-0.1c0.2,0,0.3,0,0.5,0.1s0.3,0.1,0.5,0.2
							c0.1,0.1,0.3,0.2,0.4,0.4c0.1,0.2,0.2,0.4,0.2,0.6c0.2-0.4,0.5-0.7,0.8-1c0.3-0.2,0.7-0.4,1.3-0.4c0.4,0,0.6,0.1,0.9,0.2
							c0.2,0.1,0.4,0.3,0.5,0.5c0.1,0.2,0.2,0.5,0.3,0.8c0,0.3,0.1,0.6,0.1,1V33h-1.2v-5.4c0-0.2,0-0.4,0-0.6c0-0.2-0.1-0.4-0.1-0.5
							s-0.1-0.3-0.2-0.4c-0.1-0.1-0.2-0.1-0.4-0.1c-0.4,0-0.7,0.1-0.9,0.4s-0.4,0.7-0.6,1.3V33H252.4z"/>
						<path class="st3" d="M259.3,27.8c0-0.1,0-0.2,0-0.4c0-0.2,0-0.3,0-0.5c0-0.2,0-0.3,0-0.5s0-0.3-0.1-0.4h-1.1v-1h2.1l0.2,1.1
							h0.1c0.3-0.4,0.7-0.7,1.1-0.9c0.4-0.2,1-0.4,1.6-0.4c1.1,0,2,0.3,2.6,0.9c0.6,0.6,0.9,1.7,0.9,3.1c0,0.7-0.1,1.3-0.3,1.8
							c-0.2,0.5-0.5,1-0.8,1.4c-0.4,0.4-0.8,0.7-1.3,0.9c-0.5,0.2-1.1,0.3-1.7,0.3c-0.2,0-0.4,0-0.6,0s-0.3,0-0.5-0.1
							c-0.1,0-0.3-0.1-0.4-0.1s-0.3-0.1-0.4-0.2v3.4h-1.2V27.8z M263,26c-0.3,0-0.6,0.1-0.9,0.2c-0.3,0.1-0.5,0.3-0.8,0.5
							s-0.4,0.4-0.5,0.6c-0.1,0.2-0.2,0.5-0.3,0.7v3.6c0.2,0.2,0.5,0.3,0.8,0.4s0.7,0.1,1.2,0.1c0.9,0,1.5-0.3,2-0.8
							c0.5-0.6,0.8-1.4,0.8-2.5c0-0.9-0.2-1.6-0.5-2.1C264.4,26.2,263.8,26,263,26z"/>
						<path class="st3" d="M269.3,21.8h2.7v8.5c0,0.7,0.1,1.1,0.3,1.4s0.5,0.4,1,0.4c0.3,0,0.6-0.1,0.9-0.2c0.3-0.1,0.6-0.3,0.9-0.5
							l0.6,0.9c-0.2,0.1-0.4,0.3-0.6,0.4c-0.2,0.1-0.4,0.2-0.6,0.3c-0.2,0.1-0.4,0.1-0.6,0.2c-0.2,0-0.4,0.1-0.6,0.1
							c-0.4,0-0.7-0.1-1.1-0.2c-0.3-0.1-0.6-0.3-0.8-0.5c-0.2-0.2-0.4-0.5-0.5-0.9s-0.2-0.8-0.2-1.4v-7.4h-1.4V21.8z"/>
						<path class="st3" d="M285.5,32c-0.2,0.2-0.4,0.3-0.7,0.5s-0.5,0.3-0.9,0.4c-0.3,0.1-0.6,0.2-1,0.2s-0.7,0.1-1,0.1
							c-0.6,0-1.2-0.1-1.7-0.3c-0.5-0.2-0.9-0.5-1.2-0.8c-0.3-0.4-0.6-0.8-0.8-1.3c-0.2-0.5-0.3-1.1-0.3-1.7c0-0.7,0.1-1.3,0.3-1.8
							c0.2-0.5,0.5-1,0.8-1.3c0.4-0.4,0.8-0.6,1.3-0.8s1.1-0.3,1.7-0.3c0.4,0,0.9,0.1,1.3,0.2s0.8,0.3,1.2,0.7
							c0.3,0.3,0.6,0.8,0.8,1.3c0.2,0.6,0.2,1.3,0.2,2.2h-6.2c0,1,0.3,1.7,0.8,2.2s1.2,0.7,2.1,0.7c0.3,0,0.6,0,0.9-0.1
							c0.3-0.1,0.6-0.2,0.8-0.2c0.3-0.1,0.5-0.2,0.7-0.3s0.3-0.2,0.5-0.3L285.5,32z M282.1,25.9c-0.4,0-0.7,0-1,0.1
							c-0.3,0.1-0.6,0.2-0.8,0.4c-0.2,0.2-0.4,0.4-0.6,0.7s-0.3,0.6-0.3,1h5c-0.1-0.7-0.3-1.2-0.7-1.6S282.7,25.9,282.1,25.9z"/>
						<path class="st3" d="M297.6,33v-1.1h1.9v-5.9h-1.9V25h1.9v-0.4c0-1,0.3-1.7,0.8-2.2c0.5-0.4,1.3-0.7,2.2-0.7
							c0.4,0,0.7,0,0.9,0.1c0.3,0,0.6,0.1,0.9,0.3l-0.3,1c-0.3-0.1-0.5-0.2-0.8-0.2s-0.5-0.1-0.7-0.1c-0.7,0-1.2,0.2-1.4,0.5
							s-0.4,0.9-0.4,1.7h3.3v1.1h-3.3v5.9h3.3V33H297.6z"/>
						<path class="st3" d="M306.7,29c0-1.3,0.3-2.3,1-3.1c0.7-0.8,1.6-1.1,2.9-1.1c0.7,0,1.3,0.1,1.7,0.3c0.5,0.2,0.9,0.5,1.2,0.9
							c0.3,0.4,0.6,0.8,0.7,1.3c0.2,0.5,0.2,1.1,0.2,1.6c0,0.6-0.1,1.2-0.3,1.7c-0.2,0.5-0.4,1-0.8,1.3c-0.3,0.4-0.7,0.6-1.2,0.8
							c-0.5,0.2-1,0.3-1.7,0.3c-0.7,0-1.2-0.1-1.7-0.3c-0.5-0.2-0.9-0.5-1.2-0.9c-0.3-0.4-0.6-0.8-0.7-1.3
							C306.8,30.1,306.7,29.6,306.7,29z M308,29c0,0.4,0,0.7,0.1,1.1c0.1,0.4,0.2,0.7,0.4,1c0.2,0.3,0.5,0.5,0.8,0.7
							c0.3,0.2,0.7,0.3,1.2,0.3c0.9,0,1.5-0.3,1.9-0.8s0.6-1.3,0.6-2.3c0-0.4,0-0.8-0.1-1.1c-0.1-0.4-0.2-0.7-0.4-1
							s-0.5-0.5-0.8-0.7s-0.7-0.3-1.2-0.3c-0.9,0-1.5,0.3-1.9,0.8S308,28,308,29z"/>
						<path class="st3" d="M316.5,33v-1.1h2.2v-5.9h-2.2V25h3l0.3,1h0.1c0.4-0.3,0.8-0.6,1.2-0.8c0.4-0.2,1-0.4,1.6-0.4
							c0.4,0,0.7,0.1,0.9,0.2s0.4,0.3,0.5,0.6s0.2,0.6,0.2,1s0.1,0.8,0.1,1.3l-1.1,0c0-0.7-0.1-1.2-0.2-1.5
							c-0.1-0.3-0.4-0.5-0.7-0.5c-0.3,0-0.6,0-0.9,0.1s-0.5,0.2-0.7,0.4c-0.2,0.1-0.4,0.3-0.5,0.4c-0.1,0.1-0.2,0.3-0.3,0.4v4.7h3.1
							V33H316.5z"/>
						<path class="st3" d="M343.1,32c-0.2,0.2-0.4,0.3-0.7,0.5s-0.5,0.3-0.9,0.4c-0.3,0.1-0.6,0.2-1,0.2s-0.7,0.1-1,0.1
							c-0.6,0-1.2-0.1-1.7-0.3c-0.5-0.2-0.9-0.5-1.2-0.8c-0.3-0.4-0.6-0.8-0.8-1.3c-0.2-0.5-0.3-1.1-0.3-1.7c0-0.7,0.1-1.3,0.3-1.8
							c0.2-0.5,0.5-1,0.8-1.3c0.4-0.4,0.8-0.6,1.3-0.8s1.1-0.3,1.7-0.3c0.4,0,0.9,0.1,1.3,0.2s0.8,0.3,1.2,0.7
							c0.3,0.3,0.6,0.8,0.8,1.3c0.2,0.6,0.2,1.3,0.2,2.2h-6.2c0,1,0.3,1.7,0.8,2.2s1.2,0.7,2.1,0.7c0.3,0,0.6,0,0.9-0.1
							c0.3-0.1,0.6-0.2,0.8-0.2c0.3-0.1,0.5-0.2,0.7-0.3s0.3-0.2,0.5-0.3L343.1,32z M339.7,25.9c-0.4,0-0.7,0-1,0.1
							c-0.3,0.1-0.6,0.2-0.8,0.4c-0.2,0.2-0.4,0.4-0.6,0.7s-0.3,0.6-0.3,1h5c-0.1-0.7-0.3-1.2-0.7-1.6S340.3,25.9,339.7,25.9z"/>
						<path class="st3" d="M349,31.4h0.2l2.5-6.4h1.4l-3.4,8h-1.4l-3.4-8h1.5L349,31.4z"/>
						<path class="st3" d="M362.3,32c-0.2,0.2-0.4,0.3-0.7,0.5s-0.5,0.3-0.9,0.4c-0.3,0.1-0.6,0.2-1,0.2s-0.7,0.1-1,0.1
							c-0.6,0-1.2-0.1-1.7-0.3c-0.5-0.2-0.9-0.5-1.2-0.8c-0.3-0.4-0.6-0.8-0.8-1.3c-0.2-0.5-0.3-1.1-0.3-1.7c0-0.7,0.1-1.3,0.3-1.8
							c0.2-0.5,0.5-1,0.8-1.3c0.4-0.4,0.8-0.6,1.3-0.8s1.1-0.3,1.7-0.3c0.4,0,0.9,0.1,1.3,0.2s0.8,0.3,1.2,0.7
							c0.3,0.3,0.6,0.8,0.8,1.3c0.2,0.6,0.2,1.3,0.2,2.2h-6.2c0,1,0.3,1.7,0.8,2.2s1.2,0.7,2.1,0.7c0.3,0,0.6,0,0.9-0.1
							c0.3-0.1,0.6-0.2,0.8-0.2c0.3-0.1,0.5-0.2,0.7-0.3s0.3-0.2,0.5-0.3L362.3,32z M358.9,25.9c-0.4,0-0.7,0-1,0.1
							c-0.3,0.1-0.6,0.2-0.8,0.4c-0.2,0.2-0.4,0.4-0.6,0.7s-0.3,0.6-0.3,1h5c-0.1-0.7-0.3-1.2-0.7-1.6S359.5,25.9,358.9,25.9z"/>
						<path class="st3" d="M364.5,33v-1.1h2.2v-5.9h-2.2V25h3l0.3,1h0.1c0.4-0.3,0.8-0.6,1.2-0.8c0.4-0.2,1-0.4,1.6-0.4
							c0.4,0,0.7,0.1,0.9,0.2s0.4,0.3,0.5,0.6c0.1,0.3,0.2,0.6,0.2,1c0,0.4,0.1,0.8,0.1,1.3l-1.1,0c0-0.7-0.1-1.2-0.2-1.5
							c-0.1-0.3-0.4-0.5-0.7-0.5c-0.3,0-0.6,0-0.9,0.1s-0.5,0.2-0.7,0.4c-0.2,0.1-0.4,0.3-0.5,0.4c-0.1,0.1-0.2,0.3-0.3,0.4v4.7h3.1
							V33H364.5z"/>
						<path class="st3" d="M378,31.8h0.6l2-6.8h1.3l-2.2,7.2c-0.1,0.4-0.2,0.8-0.4,1.3c-0.1,0.5-0.3,0.9-0.5,1.3
							c-0.2,0.4-0.5,0.8-0.9,1.1c-0.4,0.3-0.9,0.4-1.5,0.4c-0.1,0-0.3,0-0.4,0c-0.2,0-0.3-0.1-0.5-0.1s-0.3-0.1-0.4-0.2
							c-0.1-0.1-0.2-0.1-0.3-0.2l0.4-1.2c0.1,0.1,0.2,0.1,0.3,0.2s0.2,0.1,0.4,0.1c0.1,0,0.3,0.1,0.4,0.1c0.1,0,0.2,0,0.3,0
							c0.8,0,1.3-0.7,1.6-2h-1.1l-3.4-8h1.4L378,31.8z"/>
						<path class="st3" d="M383.5,29c0-1.3,0.3-2.3,1-3.1c0.7-0.8,1.6-1.1,2.9-1.1c0.7,0,1.3,0.1,1.7,0.3c0.5,0.2,0.9,0.5,1.2,0.9
							c0.3,0.4,0.6,0.8,0.7,1.3c0.2,0.5,0.2,1.1,0.2,1.6c0,0.6-0.1,1.2-0.3,1.7c-0.2,0.5-0.4,1-0.8,1.3c-0.3,0.4-0.7,0.6-1.2,0.8
							c-0.5,0.2-1,0.3-1.7,0.3c-0.7,0-1.2-0.1-1.7-0.3c-0.5-0.2-0.9-0.5-1.2-0.9c-0.3-0.4-0.6-0.8-0.7-1.3
							C383.6,30.1,383.5,29.6,383.5,29z M384.8,29c0,0.4,0,0.7,0.1,1.1c0.1,0.4,0.2,0.7,0.4,1c0.2,0.3,0.5,0.5,0.8,0.7
							c0.3,0.2,0.7,0.3,1.2,0.3c0.9,0,1.5-0.3,1.9-0.8S390,30,390,29c0-0.4,0-0.8-0.1-1.1c-0.1-0.4-0.2-0.7-0.4-1s-0.5-0.5-0.8-0.7
							s-0.7-0.3-1.2-0.3c-0.9,0-1.5,0.3-1.9,0.8S384.8,28,384.8,29z"/>
						<path class="st3" d="M393.7,27.8c0-0.1,0-0.2,0-0.4c0-0.2,0-0.3,0-0.5c0-0.2,0-0.3,0-0.5s0-0.3-0.1-0.4h-1.1v-1h2.1l0.1,1.3
							h0.1c0.1-0.2,0.2-0.4,0.4-0.5s0.4-0.3,0.6-0.5c0.2-0.1,0.5-0.3,0.8-0.3c0.3-0.1,0.6-0.1,0.9-0.1c0.5,0,0.9,0.1,1.3,0.2
							c0.4,0.1,0.7,0.3,0.9,0.6c0.2,0.3,0.4,0.6,0.6,1.1s0.2,1.1,0.2,1.8V33h-1.3v-4.3c0-0.9-0.1-1.5-0.4-2
							c-0.3-0.4-0.8-0.7-1.6-0.7c-0.3,0-0.5,0.1-0.8,0.2c-0.3,0.1-0.5,0.3-0.7,0.4c-0.2,0.2-0.4,0.4-0.6,0.6
							c-0.2,0.2-0.3,0.5-0.3,0.8v5h-1.2V27.8z"/>
						<path class="st3" d="M410.3,32c-0.2,0.2-0.4,0.3-0.7,0.5c-0.3,0.1-0.5,0.3-0.9,0.4c-0.3,0.1-0.6,0.2-1,0.2s-0.7,0.1-1,0.1
							c-0.6,0-1.2-0.1-1.7-0.3c-0.5-0.2-0.9-0.5-1.2-0.8s-0.6-0.8-0.8-1.3c-0.2-0.5-0.3-1.1-0.3-1.7c0-0.7,0.1-1.3,0.3-1.8
							c0.2-0.5,0.5-1,0.8-1.3c0.4-0.4,0.8-0.6,1.3-0.8c0.5-0.2,1.1-0.3,1.7-0.3c0.4,0,0.9,0.1,1.3,0.2s0.8,0.3,1.2,0.7
							c0.3,0.3,0.6,0.8,0.8,1.3s0.2,1.3,0.2,2.2h-6.2c0,1,0.3,1.7,0.8,2.2c0.5,0.5,1.2,0.7,2.1,0.7c0.3,0,0.6,0,0.9-0.1
							c0.3-0.1,0.5-0.2,0.8-0.2c0.3-0.1,0.5-0.2,0.7-0.3c0.2-0.1,0.3-0.2,0.5-0.3L410.3,32z M406.9,25.9c-0.4,0-0.7,0-1,0.1
							c-0.3,0.1-0.6,0.2-0.8,0.4c-0.2,0.2-0.4,0.4-0.6,0.7s-0.3,0.6-0.3,1h5c-0.1-0.7-0.3-1.2-0.7-1.6
							C408.1,26.1,407.5,25.9,406.9,25.9z"/>
					</g>
					<g id="app-icon" transform="translate(27.000000, 19.000000)">
						<path id="Fill-1" class="st4" d="M3.6,2.9c0-1,0.9-1.1,1.4-1.1L5,0C3.5,0,1.4,0.8,1.4,2.9V7c0,0.3-0.1,1.1-1.4,1.1v1.8
							c0.3,0,1.4,0.1,1.4,1.1v4.1c0,1.2,1,2.9,3.6,2.9v-1.8c-1.2,0-1.4-0.7-1.4-1.1V11c0-0.9-0.4-1.6-0.9-2c0.7-0.6,0.9-1.4,0.9-2
							V2.9z"/>
						<polygon id="Fill-3" class="st4" points="6,6 15,6 15,4 6,4 						"/>
						<polygon id="Fill-5" class="st4" points="9,9 18,9 18,7 9,7 						"/>
						<polygon id="Fill-6" class="st4" points="9,12 18,12 18,10 9,10 						"/>
						<polygon id="Fill-7" class="st4" points="6,15 15,15 15,13 6,13 						"/>
						<path id="Fill-8" class="st4" d="M21.6,7V2.9C21.6,0.8,19.5,0,18,0v1.8c0.3,0,1.4,0.1,1.4,1.1V7c0,0.6,0.3,1.4,0.9,2
							c-0.6,0.5-0.9,1.1-0.9,2v4.1c0,0.3-0.1,1.1-1.4,1.1V18c2.6,0,3.6-1.7,3.6-2.9V11c0-1,0.9-1.1,1.4-1.1V8.1
							C21.8,8.1,21.6,7.4,21.6,7"/>
					</g>
				</g>
				<g id="inte" transform="translate(24.000000, 104.000000)">
					<path id="Rectangle-Copy-20_1_" class="st1" d="M4,0h197c2.2,0,4,1.8,4,4v48c0,2.2-1.8,4-4,4H4c-2.2,0-4-1.8-4-4V4
						C0,1.8,1.8,0,4,0z"/>
					<g class="st2">
						<path class="st3" d="M230.6,6.9c0.4-0.1,0.8-0.2,1.3-0.2c0.5,0,0.9,0,1.4,0c0.5,0,1,0,1.5,0.1c0.5,0.1,1,0.3,1.4,0.5
							s0.8,0.6,1,1.1c0.3,0.4,0.4,1,0.4,1.7c0,0.7-0.1,1.3-0.4,1.7c-0.2,0.5-0.6,0.9-1,1.1c-0.4,0.3-0.9,0.5-1.4,0.6
							c-0.5,0.1-1.1,0.2-1.6,0.2c-0.1,0-0.1,0-0.3,0c-0.1,0-0.3,0-0.4,0c-0.1,0-0.3,0-0.4,0s-0.2,0-0.3,0V18h-1.3V6.9z M233.3,7.8
							c-0.3,0-0.5,0-0.8,0s-0.5,0-0.6,0.1v4.6c0.1,0,0.1,0,0.3,0c0.1,0,0.2,0,0.4,0c0.1,0,0.3,0,0.4,0c0.1,0,0.2,0,0.3,0
							c0.4,0,0.7,0,1.1-0.1c0.4-0.1,0.7-0.2,1-0.4c0.3-0.2,0.5-0.4,0.7-0.8c0.2-0.3,0.3-0.8,0.3-1.3c0-0.4-0.1-0.8-0.2-1.1
							c-0.2-0.3-0.4-0.5-0.7-0.7c-0.3-0.2-0.6-0.3-0.9-0.4C234,7.9,233.7,7.8,233.3,7.8z"/>
						<path class="st3" d="M240.3,10.6c0.5-0.3,1-0.5,1.6-0.6c0.6-0.1,1.1-0.2,1.7-0.2c0.5,0,1,0.1,1.3,0.3c0.3,0.2,0.6,0.4,0.8,0.7
							s0.3,0.6,0.4,0.9c0.1,0.3,0.1,0.7,0.1,1c0,0.4,0,0.8,0,1.3c0,0.5,0,0.9,0,1.4c0,0.5,0,1,0.1,1.5h1.1v1h-2.1l-0.1-1.2H245
							c-0.1,0.1-0.2,0.2-0.3,0.4s-0.3,0.3-0.5,0.4c-0.2,0.1-0.5,0.3-0.8,0.4s-0.7,0.2-1.1,0.2c-0.8,0-1.4-0.2-1.9-0.6
							c-0.5-0.4-0.7-1-0.7-1.7c0-0.5,0.1-1,0.4-1.4c0.2-0.4,0.6-0.6,1-0.8c0.5-0.2,1-0.3,1.6-0.3c0.6,0,1.4,0,2.1,0.1
							c0.1-0.5,0.1-0.9,0-1.2c0-0.3-0.1-0.6-0.3-0.8c-0.1-0.2-0.3-0.3-0.6-0.4c-0.2-0.1-0.5-0.1-0.9-0.1c-0.5,0-0.9,0.1-1.4,0.2
							c-0.4,0.1-0.8,0.3-1.2,0.4L240.3,10.6z M242.7,17.1c0.3,0,0.6,0,0.8-0.1c0.3-0.1,0.5-0.2,0.7-0.4c0.2-0.1,0.4-0.3,0.5-0.5
							s0.2-0.3,0.3-0.5v-1.1c-0.6-0.1-1.1-0.1-1.5-0.1c-0.5,0-0.9,0.1-1.2,0.2c-0.3,0.1-0.6,0.3-0.8,0.5c-0.2,0.2-0.3,0.5-0.3,0.8
							c0,0.4,0.1,0.7,0.4,0.9C241.7,16.9,242.1,17.1,242.7,17.1z"/>
						<path class="st3" d="M249.3,18v-1.1h2.2v-5.9h-2.2V10h3l0.3,1h0.1c0.4-0.3,0.8-0.6,1.2-0.8c0.4-0.2,1-0.4,1.6-0.4
							c0.4,0,0.7,0.1,0.9,0.2s0.4,0.3,0.5,0.6c0.1,0.3,0.2,0.6,0.2,1s0.1,0.8,0.1,1.3l-1.1,0c0-0.7-0.1-1.2-0.2-1.5
							c-0.1-0.3-0.4-0.5-0.7-0.5c-0.3,0-0.6,0-0.9,0.1c-0.3,0.1-0.5,0.2-0.7,0.4c-0.2,0.1-0.4,0.3-0.5,0.4c-0.1,0.1-0.2,0.3-0.3,0.4
							v4.7h3.1V18H249.3z"/>
						<path class="st3" d="M258.3,10h1.9V8.4l1.3-0.4V10h4.3v1.1h-4.3v3.8c0,0.8,0.2,1.4,0.6,1.7c0.4,0.4,0.9,0.6,1.6,0.6
							c0.5,0,0.9-0.1,1.3-0.3c0.4-0.2,0.7-0.4,1-0.6l0.4,0.9c-0.4,0.3-0.8,0.5-1.3,0.7c-0.5,0.2-1,0.3-1.6,0.3
							c-0.4,0-0.8-0.1-1.2-0.2c-0.4-0.1-0.7-0.3-1-0.6c-0.3-0.3-0.5-0.6-0.7-1c-0.2-0.4-0.3-0.9-0.3-1.4v-4h-1.9V10z"/>
						<path class="st3" d="M268.9,12.8c0-0.1,0-0.2,0-0.4c0-0.2,0-0.3,0-0.5c0-0.2,0-0.3,0-0.5s0-0.3-0.1-0.4h-1.1v-1h2.1l0.1,1.3
							h0.1c0.1-0.2,0.2-0.4,0.4-0.5c0.2-0.2,0.4-0.3,0.6-0.5c0.2-0.1,0.5-0.3,0.8-0.3c0.3-0.1,0.6-0.1,0.9-0.1
							c0.5,0,0.9,0.1,1.3,0.2c0.4,0.1,0.7,0.3,0.9,0.6c0.3,0.3,0.4,0.6,0.6,1.1s0.2,1.1,0.2,1.8V18h-1.3v-4.3c0-0.9-0.1-1.5-0.4-2
							c-0.3-0.4-0.8-0.7-1.6-0.7c-0.3,0-0.5,0.1-0.8,0.2c-0.3,0.1-0.5,0.3-0.7,0.4c-0.2,0.2-0.4,0.4-0.6,0.6s-0.3,0.5-0.4,0.8v5
							h-1.2V12.8z"/>
						<path class="st3" d="M285.5,17c-0.2,0.2-0.4,0.3-0.7,0.5s-0.5,0.3-0.9,0.4c-0.3,0.1-0.6,0.2-1,0.2s-0.7,0.1-1,0.1
							c-0.6,0-1.2-0.1-1.7-0.3c-0.5-0.2-0.9-0.5-1.2-0.8c-0.3-0.4-0.6-0.8-0.8-1.3c-0.2-0.5-0.3-1.1-0.3-1.7c0-0.7,0.1-1.3,0.3-1.8
							c0.2-0.5,0.5-1,0.8-1.3c0.4-0.4,0.8-0.6,1.3-0.8s1.1-0.3,1.7-0.3c0.4,0,0.9,0.1,1.3,0.2s0.8,0.3,1.2,0.7
							c0.3,0.3,0.6,0.8,0.8,1.3c0.2,0.6,0.2,1.3,0.2,2.2h-6.2c0,1,0.3,1.7,0.8,2.2s1.2,0.7,2.1,0.7c0.3,0,0.6,0,0.9-0.1
							c0.3-0.1,0.6-0.2,0.8-0.2c0.3-0.1,0.5-0.2,0.7-0.3s0.3-0.2,0.5-0.3L285.5,17z M282.1,10.9c-0.4,0-0.7,0-1,0.1
							c-0.3,0.1-0.6,0.2-0.8,0.4c-0.2,0.2-0.4,0.4-0.6,0.7s-0.3,0.6-0.3,1h5c-0.1-0.7-0.3-1.2-0.7-1.6S282.7,10.9,282.1,10.9z"/>
						<path class="st3" d="M287.7,18v-1.1h2.2v-5.9h-2.2V10h3l0.3,1h0.1c0.4-0.3,0.8-0.6,1.2-0.8c0.4-0.2,1-0.4,1.6-0.4
							c0.4,0,0.7,0.1,0.9,0.2s0.4,0.3,0.5,0.6c0.1,0.3,0.2,0.6,0.2,1c0,0.4,0.1,0.8,0.1,1.3l-1.1,0c0-0.7-0.1-1.2-0.2-1.5
							c-0.1-0.3-0.4-0.5-0.7-0.5c-0.3,0-0.6,0-0.9,0.1s-0.5,0.2-0.7,0.4c-0.2,0.1-0.4,0.3-0.5,0.4c-0.1,0.1-0.2,0.3-0.3,0.4v4.7h3.1
							V18H287.7z"/>
						<path class="st3" d="M307.5,18v-1.1h2.8v-5.9h-2.8V10h4v6.9h2.7V18H307.5z M309.8,7.7c0-0.3,0.1-0.5,0.3-0.7
							c0.2-0.2,0.4-0.3,0.7-0.3c0.3,0,0.6,0.1,0.8,0.3c0.2,0.2,0.3,0.5,0.3,0.7c0,0.3-0.1,0.5-0.3,0.7c-0.2,0.2-0.5,0.3-0.8,0.3
							c-0.3,0-0.5-0.1-0.7-0.3C309.9,8.2,309.8,8,309.8,7.7z"/>
						<path class="st3" d="M316.9,12.8c0-0.1,0-0.2,0-0.4c0-0.2,0-0.3,0-0.5c0-0.2,0-0.3,0-0.5s0-0.3-0.1-0.4h-1.1v-1h2.1l0.1,1.3
							h0.1c0.1-0.2,0.2-0.4,0.4-0.5s0.4-0.3,0.6-0.5c0.2-0.1,0.5-0.3,0.8-0.3c0.3-0.1,0.6-0.1,0.9-0.1c0.5,0,0.9,0.1,1.3,0.2
							c0.4,0.1,0.7,0.3,0.9,0.6c0.2,0.3,0.4,0.6,0.6,1.1s0.2,1.1,0.2,1.8V18h-1.3v-4.3c0-0.9-0.1-1.5-0.4-2
							c-0.3-0.4-0.8-0.7-1.6-0.7c-0.3,0-0.5,0.1-0.8,0.2c-0.3,0.1-0.5,0.3-0.7,0.4c-0.2,0.2-0.4,0.4-0.6,0.6
							c-0.2,0.2-0.3,0.5-0.3,0.8v5h-1.2V12.8z"/>
						<path class="st3" d="M325.5,10h1.9V8.4l1.3-0.4V10h4.3v1.1h-4.3v3.8c0,0.8,0.2,1.4,0.6,1.7s0.9,0.6,1.6,0.6
							c0.5,0,0.9-0.1,1.3-0.3c0.4-0.2,0.7-0.4,1-0.6l0.4,0.9c-0.4,0.3-0.8,0.5-1.3,0.7c-0.5,0.2-1,0.3-1.6,0.3
							c-0.4,0-0.8-0.1-1.2-0.2c-0.4-0.1-0.7-0.3-1-0.6s-0.5-0.6-0.7-1c-0.2-0.4-0.3-0.9-0.3-1.4v-4h-1.9V10z"/>
						<path class="st3" d="M343.1,17c-0.2,0.2-0.4,0.3-0.7,0.5s-0.5,0.3-0.9,0.4c-0.3,0.1-0.6,0.2-1,0.2s-0.7,0.1-1,0.1
							c-0.6,0-1.2-0.1-1.7-0.3c-0.5-0.2-0.9-0.5-1.2-0.8c-0.3-0.4-0.6-0.8-0.8-1.3c-0.2-0.5-0.3-1.1-0.3-1.7c0-0.7,0.1-1.3,0.3-1.8
							c0.2-0.5,0.5-1,0.8-1.3c0.4-0.4,0.8-0.6,1.3-0.8s1.1-0.3,1.7-0.3c0.4,0,0.9,0.1,1.3,0.2s0.8,0.3,1.2,0.7
							c0.3,0.3,0.6,0.8,0.8,1.3c0.2,0.6,0.2,1.3,0.2,2.2h-6.2c0,1,0.3,1.7,0.8,2.2s1.2,0.7,2.1,0.7c0.3,0,0.6,0,0.9-0.1
							c0.3-0.1,0.6-0.2,0.8-0.2c0.3-0.1,0.5-0.2,0.7-0.3s0.3-0.2,0.5-0.3L343.1,17z M339.7,10.9c-0.4,0-0.7,0-1,0.1
							c-0.3,0.1-0.6,0.2-0.8,0.4c-0.2,0.2-0.4,0.4-0.6,0.7s-0.3,0.6-0.3,1h5c-0.1-0.7-0.3-1.2-0.7-1.6S340.3,10.9,339.7,10.9z"/>
						<path class="st3" d="M352.6,18.4c0,0.5-0.1,0.9-0.3,1.3c-0.2,0.4-0.5,0.7-0.8,0.9c-0.3,0.2-0.7,0.4-1.2,0.6
							c-0.4,0.1-0.9,0.2-1.5,0.2c-0.6,0-1.2-0.1-1.6-0.2c-0.5-0.1-0.9-0.3-1.2-0.5l0.6-1.1c0.1,0.1,0.2,0.2,0.4,0.2
							c0.2,0.1,0.3,0.2,0.5,0.2s0.4,0.1,0.6,0.2s0.5,0.1,0.7,0.1c0.5,0,0.9,0,1.2-0.1c0.3-0.1,0.6-0.2,0.8-0.4
							c0.2-0.2,0.3-0.4,0.4-0.7s0.1-0.6,0.1-1.1v-0.9h-0.1c-0.2,0.4-0.6,0.6-0.9,0.8c-0.4,0.2-0.9,0.3-1.5,0.3c-1.2,0-2.1-0.3-2.7-1
							c-0.6-0.7-0.9-1.7-0.9-3.2c0-1.4,0.4-2.4,1.1-3.1c0.7-0.7,1.8-1,3.2-1c0.7,0,1.2,0,1.7,0.1c0.5,0.1,0.9,0.2,1.3,0.3V18.4z
							 M349,17.1c0.6,0,1.2-0.2,1.5-0.5s0.6-0.9,0.8-1.5v-3.8c-0.5-0.2-1.1-0.3-2-0.3c-0.8,0-1.5,0.2-2,0.8
							c-0.5,0.5-0.7,1.3-0.7,2.3c0,0.5,0,0.9,0.1,1.3c0.1,0.4,0.2,0.7,0.4,1s0.4,0.5,0.7,0.6C348.2,17,348.6,17.1,349,17.1z"/>
						<path class="st3" d="M354.9,18v-1.1h2.2v-5.9h-2.2V10h3l0.3,1h0.1c0.4-0.3,0.8-0.6,1.2-0.8c0.4-0.2,1-0.4,1.6-0.4
							c0.4,0,0.7,0.1,0.9,0.2s0.4,0.3,0.5,0.6s0.2,0.6,0.2,1c0,0.4,0.1,0.8,0.1,1.3l-1.1,0c0-0.7-0.1-1.2-0.2-1.5S361,11,360.6,11
							c-0.3,0-0.6,0-0.9,0.1c-0.3,0.1-0.5,0.2-0.7,0.4c-0.2,0.1-0.4,0.3-0.5,0.4c-0.1,0.1-0.2,0.3-0.3,0.4v4.7h3.1V18H354.9z"/>
						<path class="st3" d="M365.1,10.6c0.5-0.3,1-0.5,1.6-0.6s1.1-0.2,1.7-0.2c0.5,0,1,0.1,1.3,0.3s0.6,0.4,0.8,0.7s0.3,0.6,0.4,0.9
							s0.1,0.7,0.1,1c0,0.4,0,0.8,0,1.3c0,0.5,0,0.9,0,1.4c0,0.5,0,1,0.1,1.5h1.1v1H370l-0.1-1.2h-0.1c-0.1,0.1-0.2,0.2-0.3,0.4
							c-0.1,0.1-0.3,0.3-0.5,0.4c-0.2,0.1-0.5,0.3-0.8,0.4c-0.3,0.1-0.7,0.2-1.1,0.2c-0.8,0-1.4-0.2-1.9-0.6s-0.7-1-0.7-1.7
							c0-0.5,0.1-1,0.4-1.4c0.2-0.4,0.6-0.6,1-0.8c0.4-0.2,1-0.3,1.6-0.3s1.4,0,2.1,0.1c0.1-0.5,0.1-0.9,0-1.2
							c0-0.3-0.1-0.6-0.3-0.8c-0.1-0.2-0.3-0.3-0.6-0.4c-0.2-0.1-0.5-0.1-0.9-0.1c-0.5,0-0.9,0.1-1.4,0.2c-0.4,0.1-0.8,0.3-1.2,0.4
							L365.1,10.6z M367.5,17.1c0.3,0,0.6,0,0.8-0.1c0.3-0.1,0.5-0.2,0.7-0.4c0.2-0.1,0.4-0.3,0.5-0.5c0.1-0.2,0.2-0.3,0.3-0.5v-1.1
							c-0.6-0.1-1.1-0.1-1.5-0.1c-0.5,0-0.9,0.1-1.2,0.2s-0.6,0.3-0.8,0.5c-0.2,0.2-0.3,0.5-0.3,0.8c0,0.4,0.1,0.7,0.4,0.9
							C366.5,16.9,366.9,17.1,367.5,17.1z"/>
						<path class="st3" d="M373.5,10h1.9V8.4l1.3-0.4V10h4.3v1.1h-4.3v3.8c0,0.8,0.2,1.4,0.6,1.7c0.4,0.4,0.9,0.6,1.6,0.6
							c0.5,0,0.9-0.1,1.3-0.3s0.7-0.4,1-0.6l0.4,0.9c-0.4,0.3-0.8,0.5-1.3,0.7c-0.5,0.2-1,0.3-1.6,0.3c-0.4,0-0.8-0.1-1.2-0.2
							c-0.4-0.1-0.7-0.3-1-0.6c-0.3-0.3-0.5-0.6-0.7-1c-0.2-0.4-0.3-0.9-0.3-1.4v-4h-1.9V10z"/>
						<path class="st3" d="M384.3,18v-1.1h2.8v-5.9h-2.8V10h4v6.9h2.7V18H384.3z M386.6,7.7c0-0.3,0.1-0.5,0.3-0.7
							c0.2-0.2,0.4-0.3,0.7-0.3c0.3,0,0.6,0.1,0.8,0.3c0.2,0.2,0.3,0.5,0.3,0.7c0,0.3-0.1,0.5-0.3,0.7c-0.2,0.2-0.5,0.3-0.8,0.3
							c-0.3,0-0.5-0.1-0.7-0.3C386.7,8.2,386.6,8,386.6,7.7z"/>
						<path class="st3" d="M393.1,14c0-1.3,0.3-2.3,1-3.1c0.7-0.8,1.6-1.1,2.9-1.1c0.7,0,1.3,0.1,1.7,0.3c0.5,0.2,0.9,0.5,1.2,0.9
							c0.3,0.4,0.6,0.8,0.7,1.3c0.2,0.5,0.2,1.1,0.2,1.6c0,0.6-0.1,1.2-0.3,1.7c-0.2,0.5-0.4,1-0.8,1.3c-0.3,0.4-0.7,0.6-1.2,0.8
							c-0.5,0.2-1,0.3-1.7,0.3c-0.7,0-1.2-0.1-1.7-0.3c-0.5-0.2-0.9-0.5-1.2-0.9c-0.3-0.4-0.6-0.8-0.7-1.3
							C393.2,15.1,393.1,14.6,393.1,14z M394.4,14c0,0.4,0,0.7,0.1,1.1c0.1,0.4,0.2,0.7,0.4,1c0.2,0.3,0.5,0.5,0.8,0.7
							c0.3,0.2,0.7,0.3,1.2,0.3c0.9,0,1.5-0.3,1.9-0.8s0.6-1.3,0.6-2.3c0-0.4,0-0.8-0.1-1.1c-0.1-0.4-0.2-0.7-0.4-1
							s-0.5-0.5-0.8-0.7s-0.7-0.3-1.2-0.3c-0.9,0-1.5,0.3-1.9,0.8S394.4,13,394.4,14z"/>
						<path class="st3" d="M403.3,12.8c0-0.1,0-0.2,0-0.4c0-0.2,0-0.3,0-0.5c0-0.2,0-0.3,0-0.5c0-0.2,0-0.3-0.1-0.4h-1.1v-1h2.1
							l0.1,1.3h0.1c0.1-0.2,0.2-0.4,0.4-0.5s0.4-0.3,0.6-0.5c0.2-0.1,0.5-0.3,0.8-0.3c0.3-0.1,0.6-0.1,0.9-0.1
							c0.5,0,0.9,0.1,1.3,0.2c0.4,0.1,0.7,0.3,0.9,0.6c0.2,0.3,0.4,0.6,0.6,1.1c0.1,0.5,0.2,1.1,0.2,1.8V18h-1.3v-4.3
							c0-0.9-0.1-1.5-0.4-2c-0.3-0.4-0.8-0.7-1.6-0.7c-0.3,0-0.5,0.1-0.8,0.2c-0.3,0.1-0.5,0.3-0.7,0.4s-0.4,0.4-0.6,0.6
							c-0.2,0.2-0.3,0.5-0.3,0.8v5h-1.2V12.8z"/>
						<path class="st3" d="M418.4,15.8c0-0.3-0.1-0.6-0.4-0.8s-0.6-0.3-1-0.4c-0.4-0.1-0.8-0.2-1.3-0.3c-0.5-0.1-0.9-0.2-1.3-0.4
							c-0.4-0.2-0.7-0.4-1-0.6c-0.3-0.3-0.4-0.7-0.4-1.1c0-0.4,0.1-0.8,0.3-1c0.2-0.3,0.4-0.5,0.7-0.7c0.3-0.2,0.6-0.3,1-0.4
							c0.4-0.1,0.8-0.1,1.2-0.1c0.7,0,1.4,0.1,1.9,0.3c0.5,0.2,1,0.4,1.3,0.6l-0.5,1c-0.4-0.2-0.7-0.4-1.1-0.6s-0.9-0.3-1.5-0.3
							c-0.2,0-0.5,0-0.7,0.1c-0.2,0-0.4,0.1-0.6,0.2c-0.2,0.1-0.3,0.2-0.4,0.4c-0.1,0.2-0.2,0.3-0.2,0.6c0,0.3,0.1,0.5,0.4,0.6
							c0.3,0.1,0.6,0.3,1,0.4s0.8,0.2,1.3,0.3c0.5,0.1,0.9,0.2,1.3,0.4s0.7,0.4,1,0.7c0.3,0.3,0.4,0.7,0.4,1.2
							c0,0.7-0.3,1.3-0.9,1.8c-0.6,0.5-1.5,0.7-2.6,0.7c-0.4,0-0.7,0-1-0.1c-0.3-0.1-0.7-0.1-1-0.3c-0.3-0.1-0.6-0.2-0.8-0.4
							c-0.2-0.1-0.4-0.3-0.6-0.4l0.6-1c0.1,0.1,0.3,0.3,0.5,0.4c0.2,0.1,0.4,0.3,0.7,0.4c0.3,0.1,0.5,0.2,0.8,0.3
							c0.3,0.1,0.6,0.1,0.9,0.1c0.3,0,0.6,0,0.8-0.1c0.2,0,0.5-0.1,0.7-0.2s0.3-0.2,0.5-0.4C418.3,16.3,418.4,16.1,418.4,15.8z"/>
					</g>
					<g id="settings" transform="translate(47.000000, 14.000000)">
						<g class="st2">
							<path class="st5" d="M183.5,19h-1.1v-0.7h1.1v-1.9c0-0.7,0.3-1.1,1-1.1h1.2V16h-1.5v2.3h1.5V19h-1.5v6h-0.7V19z"/>
							<path class="st5" d="M186.6,21.7c0-2.2,1.1-3.5,2.9-3.5s2.9,1.3,2.9,3.5s-1.1,3.5-2.9,3.5S186.6,23.9,186.6,21.7z
								 M191.6,22.1v-0.8c0-1.5-0.8-2.4-2.1-2.4s-2.1,0.8-2.1,2.4v0.8c0,1.5,0.8,2.4,2.1,2.4S191.6,23.6,191.6,22.1z"/>
							<path class="st5" d="M194.3,25v-6.7h0.7v1.2h0.1c0.3-0.6,0.8-1.2,2-1.2h0.4v0.7H197c-1.1,0-1.9,0.5-1.9,1.4V25H194.3z"/>
							<path class="st5" d="M202,15.4h0.7v4h0c0.3-0.7,0.9-1.2,2-1.2c1.4,0,2.2,0.9,2.2,2.5V25h-0.7v-4.1c0-1.4-0.6-2-1.7-2
								c-0.9,0-1.8,0.5-1.8,1.5V25H202V15.4z"/>
							<path class="st5" d="M213.9,25c-0.6,0-0.8-0.3-0.8-0.8v-0.2H213c-0.3,0.7-1,1.2-2,1.2c-1.4,0-2.2-0.7-2.2-2
								c0-1.2,0.8-1.9,2.7-1.9h1.5v-0.8c0-1.1-0.6-1.7-1.7-1.7c-0.9,0-1.5,0.4-1.8,1.1l-0.5-0.4c0.4-0.8,1.1-1.3,2.3-1.3
								c1.5,0,2.4,0.8,2.4,2.2v3.9h0.9V25H213.9z M213,23.1v-1.2h-1.6c-1.3,0-1.9,0.5-1.9,1.2v0.3c0,0.8,0.6,1.2,1.5,1.2
								C212.2,24.5,213,24,213,23.1z"/>
							<path class="st5" d="M216.2,25v-6.7h0.7v1.2h0.1c0.3-0.6,0.8-1.2,2-1.2h0.4v0.7h-0.6c-1.1,0-1.9,0.5-1.9,1.4V25H216.2z"/>
							<path class="st5" d="M225.1,23.9L225.1,23.9c-0.4,0.7-1.1,1.2-2.1,1.2c-1.7,0-2.7-1.3-2.7-3.5s1-3.5,2.7-3.5
								c1,0,1.7,0.5,2,1.2h0v-4h0.7V25h-0.7V23.9z M225.1,23v-2.6c0-0.9-0.9-1.5-1.9-1.5c-1.3,0-2.1,0.9-2.1,2.4v0.9
								c0,1.4,0.8,2.4,2.1,2.4C224.2,24.5,225.1,23.9,225.1,23z"/>
							<path class="st5" d="M227.5,18.3h0.7l1.6,6h0l1.8-6h0.7l1.8,6h0l1.6-6h0.7l-1.9,6.7h-0.9l-1.7-5.6h0l-1.7,5.6h-0.9
								L227.5,18.3z"/>
							<path class="st5" d="M242.5,25c-0.6,0-0.8-0.3-0.8-0.8v-0.2h-0.1c-0.3,0.7-1,1.2-2,1.2c-1.4,0-2.2-0.7-2.2-2
								c0-1.2,0.8-1.9,2.7-1.9h1.5v-0.8c0-1.1-0.6-1.7-1.7-1.7c-0.9,0-1.5,0.4-1.8,1.1l-0.5-0.4c0.4-0.8,1.1-1.3,2.3-1.3
								c1.5,0,2.4,0.8,2.4,2.2v3.9h0.9V25H242.5z M241.6,23.1v-1.2H240c-1.3,0-1.9,0.5-1.9,1.2v0.3c0,0.8,0.6,1.2,1.5,1.2
								C240.7,24.5,241.6,24,241.6,23.1z"/>
							<path class="st5" d="M244.8,25v-6.7h0.7v1.2h0.1c0.3-0.6,0.8-1.2,2-1.2h0.4v0.7h-0.6c-1.1,0-1.9,0.5-1.9,1.4V25H244.8z"/>
							<path class="st5" d="M248.8,21.7c0-2.2,1.1-3.5,2.9-3.5c1.7,0,2.8,1.3,2.8,3.3v0.4h-4.9v0.3c0,1.4,0.8,2.4,2.2,2.4
								c0.9,0,1.7-0.5,2-1.3l0.5,0.4c-0.4,1-1.3,1.6-2.6,1.6C250,25.2,248.8,23.9,248.8,21.7z M249.6,21.2L249.6,21.2l4.1,0.1v-0.1
								c0-1.4-0.8-2.3-2-2.3C250.4,18.8,249.6,19.8,249.6,21.2z"/>
							<path class="st5" d="M264.1,25c-0.6,0-0.8-0.3-0.8-0.8v-0.2h-0.1c-0.3,0.7-1,1.2-2,1.2c-1.4,0-2.2-0.7-2.2-2
								c0-1.2,0.8-1.9,2.7-1.9h1.5v-0.8c0-1.1-0.6-1.7-1.7-1.7c-0.9,0-1.5,0.4-1.8,1.1l-0.5-0.4c0.4-0.8,1.1-1.3,2.3-1.3
								c1.5,0,2.4,0.8,2.4,2.2v3.9h0.9V25H264.1z M263.2,23.1v-1.2h-1.6c-1.3,0-1.9,0.5-1.9,1.2v0.3c0,0.8,0.6,1.2,1.5,1.2
								C262.3,24.5,263.2,24,263.2,23.1z"/>
							<path class="st5" d="M266.3,25v-6.7h0.7v1.1h0c0.3-0.7,0.9-1.2,2-1.2c1.4,0,2.2,0.9,2.2,2.5V25h-0.7v-4.1c0-1.4-0.6-2-1.7-2
								c-0.9,0-1.8,0.5-1.8,1.5V25H266.3z"/>
							<path class="st5" d="M278,23.9L278,23.9c-0.4,0.7-1.1,1.2-2.1,1.2c-1.7,0-2.7-1.3-2.7-3.5s1-3.5,2.7-3.5c1,0,1.7,0.5,2,1.2h0
								v-4h0.7V25H278V23.9z M278,23v-2.6c0-0.9-0.9-1.5-1.9-1.5c-1.3,0-2.1,0.9-2.1,2.4v0.9c0,1.4,0.8,2.4,2.1,2.4
								C277.1,24.5,278,23.9,278,23z"/>
							<path class="st5" d="M283.7,21.7c0-2.2,1.1-3.5,2.9-3.5c1.2,0,2,0.6,2.4,1.5l-0.6,0.3c-0.3-0.7-0.9-1.1-1.7-1.1
								c-1.4,0-2.1,0.9-2.1,2.4v0.9c0,1.4,0.7,2.4,2.1,2.4c0.9,0,1.5-0.4,1.9-1.2l0.5,0.4c-0.4,0.9-1.2,1.5-2.5,1.5
								C284.7,25.2,283.7,23.9,283.7,21.7z"/>
							<path class="st5" d="M291.5,25c-0.5,0-0.8-0.3-0.8-0.8v-8.8h0.7v9h1V25H291.5z"/>
							<path class="st5" d="M293.5,21.7c0-2.2,1.1-3.5,2.9-3.5s2.9,1.3,2.9,3.5s-1.1,3.5-2.9,3.5S293.5,23.9,293.5,21.7z
								 M298.5,22.1v-0.8c0-1.5-0.8-2.4-2.1-2.4s-2.1,0.8-2.1,2.4v0.8c0,1.5,0.8,2.4,2.1,2.4S298.5,23.6,298.5,22.1z"/>
							<path class="st5" d="M305.4,23.9L305.4,23.9c-0.3,0.6-0.8,1.2-2,1.2c-1.4,0-2.3-0.9-2.3-2.5v-4.3h0.7v4.1c0,1.4,0.6,2,1.7,2
								c0.9,0,1.8-0.5,1.8-1.5v-4.7h0.7V25h-0.7V23.9z"/>
							<path class="st5" d="M312.8,23.9L312.8,23.9c-0.4,0.7-1.1,1.2-2.1,1.2c-1.7,0-2.7-1.3-2.7-3.5s1-3.5,2.7-3.5
								c1,0,1.7,0.5,2,1.2h0v-4h0.7V25h-0.7V23.9z M312.8,23v-2.6c0-0.9-0.9-1.5-1.9-1.5c-1.3,0-2.1,0.9-2.1,2.4v0.9
								c0,1.4,0.8,2.4,2.1,2.4C312,24.5,312.8,23.9,312.8,23z"/>
						</g>
						<g class="st2">
							<path class="st5" d="M182.5,36.9l0.5-0.4c0.5,0.7,1.2,1.1,2.1,1.1c1,0,1.6-0.5,1.6-1.3c0-0.7-0.4-1.1-1.4-1.2l-0.5-0.1
								c-1.2-0.2-2-0.7-2-1.9c0-1.2,1-1.9,2.3-1.9c1.1,0,1.8,0.4,2.3,1l-0.5,0.5c-0.4-0.4-0.9-0.8-1.8-0.8c-0.9,0-1.5,0.4-1.5,1.2
								c0,0.8,0.5,1.1,1.4,1.2l0.5,0.1c1.4,0.2,2,0.8,2,1.9c0,1.2-0.9,2-2.4,2C183.9,38.2,183.1,37.7,182.5,36.9z"/>
							<path class="st5" d="M188.9,34.7c0-2.2,1.1-3.5,2.9-3.5c1.7,0,2.8,1.3,2.8,3.3v0.4h-4.9v0.3c0,1.4,0.8,2.4,2.2,2.4
								c0.9,0,1.7-0.5,2-1.3l0.5,0.4c-0.4,1-1.3,1.6-2.6,1.6C190,38.2,188.9,36.9,188.9,34.7z M189.7,34.2L189.7,34.2l4.1,0.1v-0.1
								c0-1.4-0.8-2.3-2-2.3C190.5,31.8,189.7,32.8,189.7,34.2z"/>
							<path class="st5" d="M196.5,38v-6.7h0.7v1.2h0.1c0.3-0.6,0.8-1.2,2-1.2h0.4v0.7h-0.6c-1.1,0-1.9,0.5-1.9,1.4V38H196.5z"/>
							<path class="st5" d="M200.4,31.3h0.8l2,5.9h0.1l2-5.9h0.8l-2.4,6.7h-0.8L200.4,31.3z"/>
							<path class="st5" d="M207.3,29.1v-0.1c0-0.3,0.2-0.5,0.5-0.5c0.4,0,0.5,0.2,0.5,0.5v0.1c0,0.3-0.2,0.5-0.5,0.5
								C207.5,29.5,207.3,29.3,207.3,29.1z M207.5,31.3h0.7V38h-0.7V31.3z"/>
							<path class="st5" d="M210.1,34.7c0-2.2,1.1-3.5,2.9-3.5c1.2,0,2,0.6,2.4,1.5l-0.6,0.3c-0.3-0.7-0.9-1.1-1.7-1.1
								c-1.4,0-2.1,0.9-2.1,2.4v0.9c0,1.4,0.7,2.4,2.1,2.4c0.9,0,1.5-0.4,1.9-1.2l0.5,0.4c-0.4,0.9-1.2,1.5-2.5,1.5
								C211.2,38.2,210.1,36.9,210.1,34.7z"/>
							<path class="st5" d="M216.4,34.7c0-2.2,1.1-3.5,2.9-3.5c1.7,0,2.8,1.3,2.8,3.3v0.4h-4.9v0.3c0,1.4,0.8,2.4,2.2,2.4
								c0.9,0,1.7-0.5,2-1.3l0.5,0.4c-0.4,1-1.3,1.6-2.6,1.6C217.6,38.2,216.4,36.9,216.4,34.7z M217.2,34.2L217.2,34.2l4.1,0.1
								v-0.1c0-1.4-0.8-2.3-2-2.3C218.1,31.8,217.2,32.8,217.2,34.2z"/>
							<path class="st5" d="M227.1,31.3h0.7v1.1h0c0.3-0.7,1-1.2,2-1.2c1.7,0,2.7,1.3,2.7,3.5s-1,3.5-2.7,3.5c-1,0-1.7-0.5-2-1.2h0
								v3.7h-0.7V31.3z M231.9,35.1v-0.9c0-1.4-0.8-2.4-2.1-2.4c-1,0-1.9,0.6-1.9,1.5V36c0,0.9,0.9,1.5,1.9,1.5
								C231.1,37.5,231.9,36.6,231.9,35.1z"/>
							<path class="st5" d="M234.6,38v-6.7h0.7v1.2h0.1c0.3-0.6,0.8-1.2,2-1.2h0.4v0.7h-0.6c-1.1,0-1.9,0.5-1.9,1.4V38H234.6z"/>
							<path class="st5" d="M238.6,34.7c0-2.2,1.1-3.5,2.9-3.5c1.8,0,2.9,1.3,2.9,3.5s-1.1,3.5-2.9,3.5
								C239.8,38.2,238.6,36.9,238.6,34.7z M243.6,35.1v-0.8c0-1.5-0.8-2.4-2.1-2.4s-2.1,0.8-2.1,2.4v0.8c0,1.5,0.8,2.4,2.1,2.4
								S243.6,36.6,243.6,35.1z"/>
							<path class="st5" d="M245.3,31.3h0.8l2,5.9h0.1l2-5.9h0.8l-2.4,6.7h-0.8L245.3,31.3z"/>
							<path class="st5" d="M252.3,29.1v-0.1c0-0.3,0.2-0.5,0.5-0.5c0.4,0,0.5,0.2,0.5,0.5v0.1c0,0.3-0.2,0.5-0.5,0.5
								C252.4,29.5,252.3,29.3,252.3,29.1z M252.4,31.3h0.7V38h-0.7V31.3z"/>
							<path class="st5" d="M259.9,36.9L259.9,36.9c-0.4,0.7-1.1,1.2-2.1,1.2c-1.7,0-2.7-1.3-2.7-3.5s1-3.5,2.7-3.5
								c1,0,1.7,0.5,2,1.2h0v-4h0.7V38h-0.7V36.9z M259.9,36v-2.6c0-0.9-0.9-1.5-1.9-1.5c-1.3,0-2.1,0.9-2.1,2.4v0.9
								c0,1.4,0.8,2.4,2.1,2.4C259,37.5,259.9,36.9,259.9,36z"/>
							<path class="st5" d="M262.5,34.7c0-2.2,1.1-3.5,2.9-3.5c1.7,0,2.8,1.3,2.8,3.3v0.4h-4.9v0.3c0,1.4,0.8,2.4,2.2,2.4
								c0.9,0,1.7-0.5,2-1.3l0.5,0.4c-0.4,1-1.3,1.6-2.6,1.6C263.6,38.2,262.5,36.9,262.5,34.7z M263.3,34.2L263.3,34.2l4.1,0.1
								v-0.1c0-1.4-0.8-2.3-2-2.3C264.1,31.8,263.3,32.8,263.3,34.2z"/>
							<path class="st5" d="M270.1,38v-6.7h0.7v1.2h0.1c0.3-0.6,0.8-1.2,2-1.2h0.4v0.7h-0.6c-1.1,0-1.9,0.5-1.9,1.4V38H270.1z"/>
							<path class="st5" d="M274.1,36.9l0.5-0.4c0.5,0.7,1.2,1.1,2.1,1.1c1,0,1.6-0.5,1.6-1.3c0-0.7-0.4-1.1-1.4-1.2l-0.5-0.1
								c-1.2-0.2-2-0.7-2-1.9c0-1.2,1-1.9,2.3-1.9c1.1,0,1.8,0.4,2.3,1l-0.5,0.5c-0.4-0.4-0.9-0.8-1.8-0.8c-0.9,0-1.5,0.4-1.5,1.2
								c0,0.8,0.5,1.1,1.4,1.2l0.5,0.1c1.4,0.2,2,0.8,2,1.9c0,1.2-0.9,2-2.4,2C275.5,38.2,274.7,37.7,274.1,36.9z"/>
						</g>
						<g id="Group">
							<g>
								<path id="Path" class="st6" d="M11.7,0c-1.1,0-2,0.8-2.3,1.9c-2.5,0.5-4.8,1.9-6.5,4C1,8.2,0,11.1,0,14.2
									C0,14.6,0.3,15,0.8,15s0.8-0.4,0.8-0.8C1.5,11.5,2.4,9,4.1,7c1.4-1.8,3.4-3,5.5-3.5C9.9,4.4,10.7,5,11.7,5
									C13,5,14,3.9,14,2.5S13,0,11.7,0z"/>
								<path id="Shape" class="st6" d="M18.7,12c-0.2-0.1-0.5-0.4-0.8-0.5l-0.4-1c0.1-0.3,0.2-0.7,0.2-0.9c0-0.3,0-0.5-0.2-0.7
									l-1.1-1.2c-0.2-0.2-0.4-0.3-0.7-0.2c-0.2,0-0.6,0.2-0.9,0.3l-1-0.4c-0.1-0.3-0.3-0.7-0.4-0.9C13.3,6.1,13,6,12.8,6h-1.5
									c-0.3,0-0.5,0.1-0.6,0.4c-0.1,0.2-0.3,0.6-0.4,0.9l-1,0.4C8.9,7.5,8.5,7.4,8.3,7.4c-0.3,0-0.5,0-0.7,0.2L6.5,8.8
									C6.3,9,6.2,9.3,6.3,9.5c0,0.2,0.1,0.7,0.2,0.9l-0.4,1c-0.2,0.1-0.6,0.3-0.8,0.5C5.1,12.1,5,12.4,5,12.7v1.7
									c0,0.3,0.1,0.5,0.3,0.7c0.2,0.1,0.5,0.4,0.8,0.5l0.4,1c-0.1,0.3-0.2,0.7-0.2,0.9c0,0.3,0,0.5,0.2,0.7l1.1,1.2
									c0.2,0.2,0.4,0.3,0.7,0.2c0.2,0,0.6-0.2,0.9-0.3l1,0.4c0.1,0.3,0.3,0.7,0.4,0.9c0.1,0.2,0.4,0.4,0.6,0.4h1.5
									c0.3,0,0.5-0.1,0.6-0.4c0.1-0.2,0.3-0.6,0.4-0.9l1-0.4c0.3,0.1,0.7,0.2,0.9,0.3c0.3,0,0.5,0,0.7-0.2l1.1-1.2
									c0.2-0.2,0.3-0.5,0.2-0.7c0-0.2-0.1-0.7-0.2-0.9l0.4-1c0.2-0.1,0.6-0.3,0.8-0.5c0.2-0.2,0.3-0.4,0.3-0.7v-1.7
									C19,12.4,18.9,12.1,18.7,12z M12,16.8c-1.7,0-3.1-1.5-3.1-3.3s1.4-3.3,3.1-3.3s3.1,1.5,3.1,3.3S13.7,16.8,12,16.8z"/>
								<path id="Path_1_" class="st6" d="M23.2,13c-0.4,0-0.8,0.4-0.8,0.8c0,2.6-0.9,5.2-2.5,7.1c-1.4,1.8-3.4,3-5.5,3.5
									c-0.4-0.8-1.2-1.4-2.1-1.4C11,23,10,24.1,10,25.5c0,1.4,1,2.5,2.3,2.5c1.1,0,2-0.8,2.3-1.9c2.5-0.5,4.8-1.9,6.5-4
									c1.9-2.3,2.9-5.2,2.9-8.2C24,13.4,23.7,13,23.2,13z"/>
							</g>
						</g>
						<g class="st2">
							<path class="st3" d="M46.9,15.9h-4.3l-1,3.1h-1.3L44,7.8h1.6L49.3,19H48L46.9,15.9z M43,14.7h3.5l-1.6-5.3h-0.2L43,14.7z"/>
							<path class="st3" d="M55.2,7.8h2.6v8.5c0,0.1,0,0.2,0,0.4s0,0.3,0,0.5s0,0.3,0.1,0.5c0,0.2,0,0.3,0.1,0.4H59v1h-2.1l-0.2-1.2
								h-0.1c-0.2,0.4-0.6,0.7-1,1c-0.5,0.3-1,0.4-1.6,0.4c-1.2,0-2.1-0.3-2.7-1c-0.6-0.7-0.9-1.7-0.9-3.2c0-0.7,0.1-1.3,0.3-1.8
								c0.2-0.5,0.5-0.9,0.8-1.3c0.4-0.3,0.8-0.6,1.3-0.8c0.5-0.2,1.1-0.3,1.7-0.3c0.2,0,0.4,0,0.6,0c0.2,0,0.3,0,0.5,0
								c0.1,0,0.3,0.1,0.4,0.1c0.1,0,0.3,0.1,0.4,0.1V8.9h-1.3V7.8z M54.2,18.1c0.6,0,1.2-0.2,1.5-0.5s0.6-0.8,0.8-1.5v-3.7
								c-0.2-0.2-0.5-0.3-0.8-0.4c-0.3-0.1-0.7-0.1-1.2-0.1c-0.9,0-1.5,0.2-2,0.7c-0.5,0.5-0.7,1.3-0.7,2.3c0,0.4,0,0.8,0.1,1.2
								c0.1,0.4,0.2,0.7,0.4,1c0.2,0.3,0.4,0.5,0.7,0.7C53.4,18,53.8,18.1,54.2,18.1z"/>
							<path class="st3" d="M64.8,7.8h2.6v8.5c0,0.1,0,0.2,0,0.4s0,0.3,0,0.5s0,0.3,0.1,0.5c0,0.2,0,0.3,0.1,0.4h1.1v1h-2.1
								l-0.2-1.2h-0.1c-0.2,0.4-0.6,0.7-1,1c-0.5,0.3-1,0.4-1.6,0.4c-1.2,0-2.1-0.3-2.7-1c-0.6-0.7-0.9-1.7-0.9-3.2
								c0-0.7,0.1-1.3,0.3-1.8c0.2-0.5,0.5-0.9,0.8-1.3c0.4-0.3,0.8-0.6,1.3-0.8c0.5-0.2,1.1-0.3,1.7-0.3c0.2,0,0.4,0,0.6,0
								c0.2,0,0.3,0,0.5,0c0.1,0,0.3,0.1,0.4,0.1c0.1,0,0.3,0.1,0.4,0.1V8.9h-1.3V7.8z M63.8,18.1c0.6,0,1.2-0.2,1.5-0.5
								s0.6-0.8,0.8-1.5v-3.7c-0.2-0.2-0.5-0.3-0.8-0.4c-0.3-0.1-0.7-0.1-1.2-0.1c-0.9,0-1.5,0.2-2,0.7c-0.5,0.5-0.7,1.3-0.7,2.3
								c0,0.4,0,0.8,0.1,1.2c0.1,0.4,0.2,0.7,0.4,1c0.2,0.3,0.4,0.5,0.7,0.7C63,18,63.4,18.1,63.8,18.1z"/>
							<path class="st3" d="M70.9,13.8h5.5V15h-5.5V13.8z"/>
							<path class="st3" d="M79.3,15c0-1.3,0.3-2.3,1-3.1c0.7-0.8,1.6-1.1,2.9-1.1c0.7,0,1.3,0.1,1.7,0.3c0.5,0.2,0.9,0.5,1.2,0.9
								c0.3,0.4,0.6,0.8,0.7,1.3c0.2,0.5,0.2,1.1,0.2,1.6c0,0.6-0.1,1.2-0.3,1.7c-0.2,0.5-0.4,1-0.8,1.3c-0.3,0.4-0.7,0.6-1.2,0.8
								c-0.5,0.2-1,0.3-1.7,0.3c-0.7,0-1.2-0.1-1.7-0.3c-0.5-0.2-0.9-0.5-1.2-0.9c-0.3-0.4-0.6-0.8-0.7-1.3
								C79.4,16.1,79.3,15.6,79.3,15z M80.6,15c0,0.4,0,0.7,0.1,1.1s0.2,0.7,0.4,1c0.2,0.3,0.5,0.5,0.8,0.7c0.3,0.2,0.7,0.3,1.2,0.3
								c0.9,0,1.5-0.3,1.9-0.8s0.6-1.3,0.6-2.3c0-0.4,0-0.8-0.1-1.1c-0.1-0.4-0.2-0.7-0.4-1c-0.2-0.3-0.5-0.5-0.8-0.7
								c-0.3-0.2-0.7-0.3-1.2-0.3c-0.9,0-1.5,0.3-1.9,0.8S80.6,14,80.6,15z"/>
							<path class="st3" d="M89.5,13.8c0-0.1,0-0.2,0-0.4c0-0.2,0-0.3,0-0.5c0-0.2,0-0.3,0-0.5s0-0.3-0.1-0.4h-1.1v-1h2.1l0.1,1.3
								h0.1c0.1-0.2,0.2-0.4,0.4-0.5c0.2-0.2,0.4-0.3,0.6-0.5c0.2-0.1,0.5-0.3,0.8-0.3c0.3-0.1,0.6-0.1,0.9-0.1
								c0.5,0,0.9,0.1,1.3,0.2c0.4,0.1,0.7,0.3,0.9,0.6c0.3,0.3,0.4,0.6,0.6,1.1s0.2,1.1,0.2,1.8V19h-1.3v-4.3c0-0.9-0.1-1.5-0.4-2
								c-0.3-0.4-0.8-0.7-1.6-0.7c-0.3,0-0.5,0.1-0.8,0.2c-0.3,0.1-0.5,0.3-0.7,0.4s-0.4,0.4-0.6,0.6c-0.2,0.2-0.3,0.5-0.4,0.8v5
								h-1.2V13.8z"/>
							<path class="st3" d="M104.6,16.8c0-0.3-0.1-0.6-0.4-0.8c-0.3-0.2-0.6-0.3-1-0.4c-0.4-0.1-0.8-0.2-1.3-0.3
								c-0.5-0.1-0.9-0.2-1.3-0.4s-0.7-0.4-1-0.6c-0.3-0.3-0.4-0.7-0.4-1.1c0-0.4,0.1-0.8,0.3-1c0.2-0.3,0.4-0.5,0.7-0.7
								s0.6-0.3,1-0.4c0.4-0.1,0.8-0.1,1.2-0.1c0.7,0,1.4,0.1,1.9,0.3c0.5,0.2,1,0.4,1.3,0.6l-0.5,1c-0.4-0.2-0.7-0.4-1.1-0.6
								c-0.4-0.2-0.9-0.3-1.5-0.3c-0.2,0-0.5,0-0.7,0.1c-0.2,0-0.4,0.1-0.6,0.2c-0.2,0.1-0.3,0.2-0.4,0.4c-0.1,0.2-0.2,0.3-0.2,0.6
								c0,0.3,0.1,0.5,0.4,0.6c0.3,0.1,0.6,0.3,1,0.4s0.8,0.2,1.3,0.3c0.5,0.1,0.9,0.2,1.3,0.4s0.7,0.4,1,0.7
								c0.3,0.3,0.4,0.7,0.4,1.2c0,0.7-0.3,1.3-0.9,1.8c-0.6,0.5-1.5,0.7-2.6,0.7c-0.4,0-0.7,0-1-0.1c-0.3-0.1-0.7-0.1-1-0.3
								c-0.3-0.1-0.6-0.2-0.8-0.4c-0.2-0.1-0.4-0.3-0.6-0.4l0.6-1c0.1,0.1,0.3,0.3,0.5,0.4c0.2,0.1,0.4,0.3,0.7,0.4s0.5,0.2,0.8,0.3
								c0.3,0.1,0.6,0.1,0.9,0.1c0.3,0,0.6,0,0.8-0.1c0.2,0,0.5-0.1,0.7-0.2s0.3-0.2,0.5-0.4C104.5,17.3,104.6,17.1,104.6,16.8z"/>
						</g>
					</g>
				</g>
				<g id="opens" transform="translate(24.000000, 184.000000)">
					<path id="Rectangle-Copy-20_2_" class="st1" d="M4,0h197c2.2,0,4,1.8,4,4v48c0,2.2-1.8,4-4,4H4c-2.2,0-4-1.8-4-4V4
						C0,1.8,1.8,0,4,0z"/>
					<g class="st2">
						<path class="st3" d="M67.8,27.4c0-1.9,0.3-3.3,1-4.3c0.7-1,1.7-1.5,3-1.5c0.7,0,1.4,0.1,1.9,0.4c0.5,0.3,0.9,0.7,1.3,1.2
							c0.3,0.5,0.5,1.1,0.7,1.8c0.1,0.7,0.2,1.5,0.2,2.4c0,1.9-0.3,3.3-1,4.3c-0.7,1-1.7,1.5-3.1,1.5c-0.7,0-1.4-0.1-1.9-0.4
							c-0.5-0.3-0.9-0.7-1.2-1.2c-0.3-0.5-0.5-1.1-0.7-1.8C67.8,29.1,67.8,28.3,67.8,27.4z M69.2,27.4c0,0.6,0,1.2,0.1,1.8
							s0.2,1,0.4,1.5c0.2,0.4,0.5,0.8,0.8,1c0.3,0.3,0.8,0.4,1.3,0.4c0.9,0,1.6-0.4,2-1.1c0.4-0.7,0.6-1.9,0.6-3.5
							c0-0.6,0-1.2-0.1-1.8c-0.1-0.6-0.2-1.1-0.4-1.5c-0.2-0.4-0.5-0.8-0.8-1c-0.3-0.2-0.8-0.4-1.3-0.4c-0.9,0-1.6,0.4-2,1.1
							C69.4,24.7,69.2,25.8,69.2,27.4z"/>
						<path class="st3" d="M78.1,27.8c0-0.1,0-0.2,0-0.4c0-0.2,0-0.3,0-0.5c0-0.2,0-0.3,0-0.5c0-0.2,0-0.3-0.1-0.4h-1.1v-1h2.1
							l0.2,1.1h0.1c0.3-0.4,0.7-0.7,1.1-0.9c0.4-0.2,1-0.4,1.6-0.4c1.1,0,2,0.3,2.6,0.9c0.6,0.6,0.9,1.7,0.9,3.1
							c0,0.7-0.1,1.3-0.3,1.8c-0.2,0.5-0.5,1-0.8,1.4c-0.4,0.4-0.8,0.7-1.3,0.9c-0.5,0.2-1.1,0.3-1.7,0.3c-0.2,0-0.4,0-0.6,0
							c-0.2,0-0.3,0-0.5-0.1c-0.1,0-0.3-0.1-0.4-0.1s-0.3-0.1-0.4-0.2v3.4h-1.2V27.8z M81.8,26c-0.3,0-0.6,0.1-0.9,0.2
							c-0.3,0.1-0.5,0.3-0.8,0.5c-0.2,0.2-0.4,0.4-0.5,0.6c-0.1,0.2-0.2,0.5-0.3,0.7v3.6c0.2,0.2,0.5,0.3,0.8,0.4
							c0.3,0.1,0.7,0.1,1.2,0.1c0.9,0,1.5-0.3,2-0.8c0.5-0.6,0.8-1.4,0.8-2.5c0-0.9-0.2-1.6-0.5-2.1C83.2,26.2,82.6,26,81.8,26z"/>
						<path class="st3" d="M94.7,32c-0.2,0.2-0.4,0.3-0.7,0.5c-0.3,0.1-0.5,0.3-0.9,0.4c-0.3,0.1-0.6,0.2-1,0.2s-0.7,0.1-1,0.1
							c-0.6,0-1.2-0.1-1.7-0.3c-0.5-0.2-0.9-0.5-1.2-0.8c-0.3-0.4-0.6-0.8-0.8-1.3c-0.2-0.5-0.3-1.1-0.3-1.7c0-0.7,0.1-1.3,0.3-1.8
							c0.2-0.5,0.5-1,0.8-1.3c0.4-0.4,0.8-0.6,1.3-0.8s1.1-0.3,1.7-0.3c0.4,0,0.9,0.1,1.3,0.2s0.8,0.3,1.2,0.7
							c0.3,0.3,0.6,0.8,0.8,1.3c0.2,0.6,0.2,1.3,0.2,2.2h-6.2c0,1,0.3,1.7,0.8,2.2c0.5,0.5,1.2,0.7,2.1,0.7c0.3,0,0.6,0,0.9-0.1
							c0.3-0.1,0.6-0.2,0.8-0.2c0.3-0.1,0.5-0.2,0.7-0.3c0.2-0.1,0.3-0.2,0.5-0.3L94.7,32z M91.3,25.9c-0.4,0-0.7,0-1,0.1
							c-0.3,0.1-0.6,0.2-0.8,0.4c-0.2,0.2-0.4,0.4-0.6,0.7c-0.2,0.3-0.3,0.6-0.3,1h5c-0.1-0.7-0.3-1.2-0.7-1.6S91.9,25.9,91.3,25.9z
							"/>
						<path class="st3" d="M97.3,27.8c0-0.1,0-0.2,0-0.4c0-0.2,0-0.3,0-0.5c0-0.2,0-0.3,0-0.5s0-0.3-0.1-0.4h-1.1v-1h2.1l0.1,1.3
							h0.1c0.1-0.2,0.2-0.4,0.4-0.5c0.2-0.2,0.4-0.3,0.6-0.5c0.2-0.1,0.5-0.3,0.8-0.3c0.3-0.1,0.6-0.1,0.9-0.1
							c0.5,0,0.9,0.1,1.3,0.2c0.4,0.1,0.7,0.3,0.9,0.6c0.3,0.3,0.4,0.6,0.6,1.1s0.2,1.1,0.2,1.8V33h-1.3v-4.3c0-0.9-0.1-1.5-0.4-2
							c-0.3-0.4-0.8-0.7-1.6-0.7c-0.3,0-0.5,0.1-0.8,0.2c-0.3,0.1-0.5,0.3-0.7,0.4S99,27,98.9,27.2c-0.2,0.2-0.3,0.5-0.4,0.8v5h-1.2
							V27.8z"/>
						<path class="st3" d="M117.4,31.4c0.3,0.2,0.7,0.3,1.1,0.4s0.8,0.2,1.2,0.2c0.4,0,0.7,0,1-0.1c0.3-0.1,0.6-0.2,0.8-0.3
							c0.2-0.2,0.4-0.3,0.5-0.6c0.1-0.2,0.2-0.5,0.2-0.8c0-0.4-0.1-0.8-0.4-1.1s-0.7-0.5-1.1-0.7c-0.4-0.2-0.9-0.4-1.4-0.6
							c-0.5-0.2-1-0.4-1.4-0.7c-0.4-0.3-0.8-0.6-1.1-1c-0.3-0.4-0.4-0.9-0.4-1.5c0-0.4,0.1-0.8,0.3-1.2c0.2-0.4,0.4-0.7,0.7-0.9
							c0.3-0.2,0.7-0.4,1.2-0.6c0.5-0.1,1-0.2,1.5-0.2c0.6,0,1.2,0,1.7,0.1s0.9,0.2,1.2,0.4l0,0v0h0l0,0v2.6h-1.2V23
							c-0.3-0.1-0.6-0.1-0.9-0.2c-0.3,0-0.7-0.1-1-0.1c-0.4,0-0.7,0-1,0.1c-0.3,0.1-0.5,0.2-0.7,0.3c-0.2,0.1-0.3,0.3-0.5,0.5
							c-0.1,0.2-0.2,0.4-0.2,0.6c0,0.4,0.1,0.8,0.4,1c0.3,0.3,0.7,0.5,1.1,0.7s0.9,0.4,1.4,0.6c0.5,0.2,1,0.5,1.4,0.7
							c0.4,0.3,0.8,0.6,1.1,1c0.3,0.4,0.4,0.9,0.4,1.5c0,0.5-0.1,0.9-0.3,1.3c-0.2,0.4-0.4,0.7-0.8,1c-0.3,0.3-0.7,0.5-1.2,0.6
							c-0.5,0.1-1,0.2-1.6,0.2c-0.4,0-0.8,0-1.2-0.1c-0.4-0.1-0.7-0.1-1-0.2c-0.3-0.1-0.6-0.2-0.8-0.3c-0.2-0.1-0.4-0.2-0.6-0.3l0,0
							v-2.6h1.2V31.4z"/>
						<path class="st3" d="M125.5,29c0-1.3,0.3-2.3,1-3.1c0.7-0.8,1.6-1.1,2.9-1.1c0.7,0,1.3,0.1,1.7,0.3c0.5,0.2,0.9,0.5,1.2,0.9
							c0.3,0.4,0.6,0.8,0.7,1.3c0.2,0.5,0.2,1.1,0.2,1.6c0,0.6-0.1,1.2-0.3,1.7c-0.2,0.5-0.4,1-0.8,1.3c-0.3,0.4-0.7,0.6-1.2,0.8
							c-0.5,0.2-1,0.3-1.7,0.3c-0.7,0-1.2-0.1-1.7-0.3c-0.5-0.2-0.9-0.5-1.2-0.9c-0.3-0.4-0.6-0.8-0.7-1.3
							C125.6,30.1,125.5,29.6,125.5,29z M126.8,29c0,0.4,0,0.7,0.1,1.1s0.2,0.7,0.4,1c0.2,0.3,0.5,0.5,0.8,0.7
							c0.3,0.2,0.7,0.3,1.2,0.3c0.9,0,1.5-0.3,1.9-0.8S132,30,132,29c0-0.4,0-0.8-0.1-1.1c-0.1-0.4-0.2-0.7-0.4-1
							c-0.2-0.3-0.5-0.5-0.8-0.7c-0.3-0.2-0.7-0.3-1.2-0.3c-0.9,0-1.5,0.3-1.9,0.8S126.8,28,126.8,29z"/>
						<path class="st3" d="M140,25h2.3v5.5c0,0.5,0,1,0.1,1.5h1.1v1h-2.1l0-1.4h-0.1c-0.3,0.5-0.6,0.8-1.1,1.1s-1,0.4-1.7,0.4
							c-0.5,0-0.9-0.1-1.3-0.2c-0.3-0.1-0.6-0.3-0.9-0.6s-0.4-0.6-0.5-1.1s-0.2-1-0.2-1.7v-3.5h-1.1V25h2.3v4.3c0,0.4,0,0.8,0.1,1.2
							s0.1,0.6,0.2,0.9c0.1,0.2,0.3,0.4,0.5,0.5c0.2,0.1,0.5,0.2,0.9,0.2c0.6,0,1-0.2,1.4-0.5c0.4-0.4,0.7-0.8,0.9-1.4v-4.1h-1V25z"
							/>
						<path class="st3" d="M144.9,33v-1.1h2.2v-5.9h-2.2V25h3l0.3,1h0.1c0.4-0.3,0.8-0.6,1.2-0.8c0.4-0.2,1-0.4,1.6-0.4
							c0.4,0,0.7,0.1,0.9,0.2s0.4,0.3,0.5,0.6s0.2,0.6,0.2,1c0,0.4,0.1,0.8,0.1,1.3l-1.1,0c0-0.7-0.1-1.2-0.2-1.5
							c-0.1-0.3-0.4-0.5-0.7-0.5c-0.3,0-0.6,0-0.9,0.1c-0.3,0.1-0.5,0.2-0.7,0.4c-0.2,0.1-0.4,0.3-0.5,0.4c-0.1,0.1-0.2,0.3-0.3,0.4
							v4.7h3.1V33H144.9z"/>
						<path class="st3" d="M160.4,26.2c-0.2-0.1-0.5-0.2-0.8-0.2c-0.3-0.1-0.6-0.1-0.8-0.1c-1,0-1.8,0.2-2.3,0.7
							c-0.5,0.5-0.8,1.3-0.8,2.3c0,0.5,0.1,0.9,0.2,1.3c0.1,0.4,0.4,0.7,0.6,0.9s0.6,0.5,1,0.6c0.4,0.1,0.8,0.2,1.3,0.2
							c0.5,0,1-0.1,1.5-0.3c0.5-0.2,0.9-0.4,1.2-0.7l0.6,0.9c-0.1,0.1-0.3,0.3-0.6,0.4c-0.2,0.1-0.5,0.3-0.8,0.4s-0.6,0.2-1,0.3
							c-0.4,0.1-0.7,0.1-1.2,0.1c-0.7,0-1.3-0.1-1.8-0.3c-0.5-0.2-1-0.5-1.3-0.8c-0.4-0.4-0.6-0.8-0.8-1.3c-0.2-0.5-0.3-1.1-0.3-1.7
							c0-0.7,0.1-1.3,0.3-1.8c0.2-0.5,0.5-1,0.8-1.3c0.4-0.4,0.8-0.6,1.3-0.8c0.5-0.2,1.1-0.3,1.7-0.3c0.8,0,1.4,0.1,1.9,0.2
							c0.5,0.1,0.9,0.3,1.3,0.5l0,0v2.2h-1.2V26.2z"/>
						<path class="st3" d="M171.5,32c-0.2,0.2-0.4,0.3-0.7,0.5c-0.3,0.1-0.5,0.3-0.9,0.4c-0.3,0.1-0.6,0.2-1,0.2s-0.7,0.1-1,0.1
							c-0.6,0-1.2-0.1-1.7-0.3c-0.5-0.2-0.9-0.5-1.2-0.8c-0.3-0.4-0.6-0.8-0.8-1.3c-0.2-0.5-0.3-1.1-0.3-1.7c0-0.7,0.1-1.3,0.3-1.8
							c0.2-0.5,0.5-1,0.8-1.3c0.4-0.4,0.8-0.6,1.3-0.8s1.1-0.3,1.7-0.3c0.4,0,0.9,0.1,1.3,0.2s0.8,0.3,1.2,0.7
							c0.3,0.3,0.6,0.8,0.8,1.3c0.2,0.6,0.2,1.3,0.2,2.2h-6.2c0,1,0.3,1.7,0.8,2.2c0.5,0.5,1.2,0.7,2.1,0.7c0.3,0,0.6,0,0.9-0.1
							c0.3-0.1,0.6-0.2,0.8-0.2c0.3-0.1,0.5-0.2,0.7-0.3c0.2-0.1,0.3-0.2,0.5-0.3L171.5,32z M168.1,25.9c-0.4,0-0.7,0-1,0.1
							c-0.3,0.1-0.6,0.2-0.8,0.4c-0.2,0.2-0.4,0.4-0.6,0.7c-0.2,0.3-0.3,0.6-0.3,1h5c-0.1-0.7-0.3-1.2-0.7-1.6
							S168.7,25.9,168.1,25.9z"/>
					</g>
					<g class="st2">
						<path class="st3" d="M229.8,27.4c0-1.9,0.3-3.3,1-4.3s1.7-1.5,3-1.5c0.7,0,1.4,0.1,1.9,0.4c0.5,0.3,0.9,0.7,1.3,1.2
							c0.3,0.5,0.5,1.1,0.7,1.8c0.1,0.7,0.2,1.5,0.2,2.4c0,1.9-0.3,3.3-1,4.3c-0.7,1-1.7,1.5-3.1,1.5c-0.7,0-1.4-0.1-1.9-0.4
							c-0.5-0.3-0.9-0.7-1.2-1.2c-0.3-0.5-0.5-1.1-0.7-1.8C229.8,29.1,229.8,28.3,229.8,27.4z M231.2,27.4c0,0.6,0,1.2,0.1,1.8
							s0.2,1,0.4,1.5c0.2,0.4,0.5,0.8,0.8,1c0.3,0.3,0.8,0.4,1.3,0.4c0.9,0,1.6-0.4,2-1.1c0.4-0.7,0.6-1.9,0.6-3.5
							c0-0.6,0-1.2-0.1-1.8c-0.1-0.6-0.2-1.1-0.4-1.5c-0.2-0.4-0.5-0.8-0.8-1c-0.3-0.2-0.8-0.4-1.3-0.4c-0.9,0-1.6,0.4-2,1.1
							C231.4,24.7,231.2,25.8,231.2,27.4z"/>
						<path class="st3" d="M245.6,26.2c-0.2-0.1-0.5-0.2-0.8-0.2c-0.3-0.1-0.6-0.1-0.8-0.1c-1,0-1.8,0.2-2.3,0.7
							c-0.5,0.5-0.8,1.3-0.8,2.3c0,0.5,0.1,0.9,0.2,1.3s0.4,0.7,0.6,0.9s0.6,0.5,1,0.6c0.4,0.1,0.8,0.2,1.3,0.2c0.5,0,1-0.1,1.5-0.3
							c0.5-0.2,0.9-0.4,1.2-0.7l0.6,0.9c-0.2,0.1-0.3,0.3-0.6,0.4c-0.2,0.1-0.5,0.3-0.8,0.4c-0.3,0.1-0.6,0.2-1,0.3
							c-0.4,0.1-0.7,0.1-1.2,0.1c-0.7,0-1.3-0.1-1.8-0.3c-0.5-0.2-1-0.5-1.3-0.8c-0.4-0.4-0.6-0.8-0.8-1.3c-0.2-0.5-0.3-1.1-0.3-1.7
							c0-0.7,0.1-1.3,0.3-1.8c0.2-0.5,0.5-1,0.8-1.3c0.4-0.4,0.8-0.6,1.3-0.8c0.5-0.2,1.1-0.3,1.7-0.3c0.8,0,1.4,0.1,1.9,0.2
							c0.5,0.1,0.9,0.3,1.3,0.5l0,0v2.2h-1.2V26.2z"/>
						<path class="st3" d="M248.6,21.8h2.6v6.6h0.9l3.2-3.4h1.5l-3.5,3.8l2.9,3.1h1V33h-1.6l-3.4-3.6h-0.9V33h-1.2V22.9h-1.4V21.8z"
							/>
						<path class="st3" d="M259.5,25.6c0.5-0.3,1-0.5,1.6-0.6s1.1-0.2,1.7-0.2c0.5,0,1,0.1,1.3,0.3c0.3,0.2,0.6,0.4,0.8,0.7
							s0.3,0.6,0.4,0.9c0.1,0.3,0.1,0.7,0.1,1c0,0.4,0,0.8,0,1.3c0,0.5,0,0.9,0,1.4c0,0.5,0,1,0.1,1.5h1.1v1h-2.1l-0.1-1.2h-0.1
							c-0.1,0.1-0.2,0.2-0.3,0.4s-0.3,0.3-0.5,0.4c-0.2,0.1-0.5,0.3-0.8,0.4c-0.3,0.1-0.7,0.2-1.1,0.2c-0.8,0-1.4-0.2-1.9-0.6
							c-0.5-0.4-0.7-1-0.7-1.7c0-0.5,0.1-1,0.4-1.4c0.2-0.4,0.6-0.6,1-0.8c0.4-0.2,1-0.3,1.6-0.3s1.4,0,2.1,0.1
							c0.1-0.5,0.1-0.9,0-1.2s-0.1-0.6-0.3-0.8c-0.1-0.2-0.3-0.3-0.6-0.4c-0.2-0.1-0.5-0.1-0.9-0.1c-0.5,0-0.9,0.1-1.4,0.2
							c-0.4,0.1-0.8,0.3-1.2,0.4L259.5,25.6z M261.9,32.1c0.3,0,0.6,0,0.8-0.1c0.3-0.1,0.5-0.2,0.7-0.4c0.2-0.1,0.4-0.3,0.5-0.5
							s0.2-0.3,0.3-0.5v-1.1c-0.6-0.1-1.1-0.1-1.5-0.1s-0.9,0.1-1.2,0.2c-0.3,0.1-0.6,0.3-0.8,0.5c-0.2,0.2-0.3,0.5-0.3,0.8
							c0,0.4,0.1,0.7,0.4,0.9C260.9,31.9,261.3,32.1,261.9,32.1z"/>
						<path class="st3" d="M271.6,33v-5.3c0-0.2,0-0.4,0-0.6s-0.1-0.4-0.1-0.6c-0.1-0.2-0.1-0.3-0.3-0.4c-0.1-0.1-0.3-0.1-0.4-0.1
							c-0.4,0-0.7,0.1-0.9,0.4c-0.3,0.3-0.4,0.7-0.6,1.1V33h-1.2v-8h0.8l0.2,1h0.1c0.1-0.2,0.2-0.3,0.3-0.5c0.1-0.1,0.2-0.3,0.4-0.4
							c0.1-0.1,0.3-0.2,0.5-0.2c0.2-0.1,0.4-0.1,0.7-0.1c0.2,0,0.3,0,0.5,0.1c0.2,0,0.3,0.1,0.5,0.2c0.1,0.1,0.3,0.2,0.4,0.4
							c0.1,0.2,0.2,0.4,0.2,0.6c0.2-0.4,0.5-0.7,0.8-1s0.7-0.4,1.3-0.4c0.4,0,0.6,0.1,0.9,0.2c0.2,0.1,0.4,0.3,0.5,0.5
							c0.1,0.2,0.2,0.5,0.3,0.8c0,0.3,0.1,0.6,0.1,1V33h-1.2v-5.4c0-0.2,0-0.4,0-0.6c0-0.2-0.1-0.4-0.1-0.5
							c-0.1-0.1-0.1-0.3-0.2-0.4c-0.1-0.1-0.2-0.1-0.4-0.1c-0.4,0-0.7,0.1-0.9,0.4c-0.3,0.3-0.4,0.7-0.6,1.3V33H271.6z"/>
						<path class="st3" d="M293.6,26.2c-0.2-0.1-0.5-0.2-0.8-0.2c-0.3-0.1-0.6-0.1-0.8-0.1c-1,0-1.8,0.2-2.3,0.7
							c-0.5,0.5-0.8,1.3-0.8,2.3c0,0.5,0.1,0.9,0.2,1.3c0.1,0.4,0.4,0.7,0.6,0.9s0.6,0.5,1,0.6c0.4,0.1,0.8,0.2,1.3,0.2
							c0.5,0,1-0.1,1.5-0.3c0.5-0.2,0.9-0.4,1.2-0.7l0.6,0.9c-0.1,0.1-0.3,0.3-0.6,0.4c-0.2,0.1-0.5,0.3-0.8,0.4s-0.6,0.2-1,0.3
							c-0.4,0.1-0.7,0.1-1.2,0.1c-0.7,0-1.3-0.1-1.8-0.3c-0.5-0.2-1-0.5-1.3-0.8s-0.6-0.8-0.8-1.3c-0.2-0.5-0.3-1.1-0.3-1.7
							c0-0.7,0.1-1.3,0.3-1.8c0.2-0.5,0.5-1,0.8-1.3c0.4-0.4,0.8-0.6,1.3-0.8c0.5-0.2,1.1-0.3,1.7-0.3c0.8,0,1.4,0.1,1.9,0.2
							c0.5,0.1,0.9,0.3,1.3,0.5l0,0v2.2h-1.2V26.2z"/>
						<path class="st3" d="M297.1,29c0-1.3,0.3-2.3,1-3.1c0.7-0.8,1.6-1.1,2.9-1.1c0.7,0,1.3,0.1,1.7,0.3c0.5,0.2,0.9,0.5,1.2,0.9
							c0.3,0.4,0.6,0.8,0.7,1.3c0.2,0.5,0.2,1.1,0.2,1.6c0,0.6-0.1,1.2-0.3,1.7c-0.2,0.5-0.4,1-0.8,1.3c-0.3,0.4-0.7,0.6-1.2,0.8
							c-0.5,0.2-1,0.3-1.7,0.3c-0.7,0-1.2-0.1-1.7-0.3c-0.5-0.2-0.9-0.5-1.2-0.9c-0.3-0.4-0.6-0.8-0.7-1.3
							C297.2,30.1,297.1,29.6,297.1,29z M298.4,29c0,0.4,0,0.7,0.1,1.1c0.1,0.4,0.2,0.7,0.4,1c0.2,0.3,0.5,0.5,0.8,0.7
							c0.3,0.2,0.7,0.3,1.2,0.3c0.9,0,1.5-0.3,1.9-0.8s0.6-1.3,0.6-2.3c0-0.4,0-0.8-0.1-1.1c-0.1-0.4-0.2-0.7-0.4-1
							s-0.5-0.5-0.8-0.7s-0.7-0.3-1.2-0.3c-0.9,0-1.5,0.3-1.9,0.8S298.4,28,298.4,29z"/>
						<path class="st3" d="M306.9,33v-1.1h2.2v-5.9h-2.2V25h3l0.3,1h0.1c0.4-0.3,0.8-0.6,1.2-0.8c0.4-0.2,1-0.4,1.6-0.4
							c0.4,0,0.7,0.1,0.9,0.2s0.4,0.3,0.5,0.6s0.2,0.6,0.2,1s0.1,0.8,0.1,1.3l-1.1,0c0-0.7-0.1-1.2-0.2-1.5
							c-0.1-0.3-0.4-0.5-0.7-0.5c-0.3,0-0.6,0-0.9,0.1s-0.5,0.2-0.7,0.4c-0.2,0.1-0.4,0.3-0.5,0.4c-0.1,0.1-0.2,0.3-0.3,0.4v4.7h3.1
							V33H306.9z"/>
						<path class="st3" d="M323.9,32c-0.2,0.2-0.4,0.3-0.7,0.5c-0.3,0.1-0.5,0.3-0.9,0.4c-0.3,0.1-0.6,0.2-1,0.2s-0.7,0.1-1,0.1
							c-0.6,0-1.2-0.1-1.7-0.3c-0.5-0.2-0.9-0.5-1.2-0.8c-0.3-0.4-0.6-0.8-0.8-1.3c-0.2-0.5-0.3-1.1-0.3-1.7c0-0.7,0.1-1.3,0.3-1.8
							s0.5-1,0.8-1.3c0.4-0.4,0.8-0.6,1.3-0.8s1.1-0.3,1.7-0.3c0.4,0,0.9,0.1,1.3,0.2s0.8,0.3,1.2,0.7c0.3,0.3,0.6,0.8,0.8,1.3
							s0.2,1.3,0.2,2.2h-6.2c0,1,0.3,1.7,0.8,2.2c0.5,0.5,1.2,0.7,2.1,0.7c0.3,0,0.6,0,0.9-0.1s0.5-0.2,0.8-0.2
							c0.3-0.1,0.5-0.2,0.7-0.3c0.2-0.1,0.3-0.2,0.5-0.3L323.9,32z M320.5,25.9c-0.4,0-0.7,0-1,0.1c-0.3,0.1-0.6,0.2-0.8,0.4
							c-0.2,0.2-0.4,0.4-0.6,0.7c-0.2,0.3-0.3,0.6-0.3,1h5c-0.1-0.7-0.3-1.2-0.7-1.6S321.1,25.9,320.5,25.9z"/>
						<path class="st3" d="M340.2,21.8h2.6v8.5c0,0.1,0,0.2,0,0.4c0,0.1,0,0.3,0,0.5c0,0.2,0,0.3,0.1,0.5c0,0.2,0,0.3,0.1,0.4h1.1v1
							h-2.1l-0.2-1.2h-0.1c-0.2,0.4-0.6,0.7-1,1c-0.5,0.3-1,0.4-1.6,0.4c-1.2,0-2.1-0.3-2.7-1c-0.6-0.7-0.9-1.7-0.9-3.2
							c0-0.7,0.1-1.3,0.3-1.8c0.2-0.5,0.5-0.9,0.8-1.3c0.4-0.3,0.8-0.6,1.3-0.8c0.5-0.2,1.1-0.3,1.7-0.3c0.2,0,0.4,0,0.6,0
							c0.2,0,0.3,0,0.5,0c0.1,0,0.3,0.1,0.4,0.1c0.1,0,0.3,0.1,0.4,0.1v-2.3h-1.3V21.8z M339.2,32.1c0.6,0,1.2-0.2,1.5-0.5
							s0.6-0.8,0.8-1.5v-3.7c-0.2-0.2-0.5-0.3-0.8-0.4c-0.3-0.1-0.7-0.1-1.2-0.1c-0.9,0-1.5,0.2-2,0.7c-0.5,0.5-0.7,1.3-0.7,2.3
							c0,0.4,0,0.8,0.1,1.2c0.1,0.4,0.2,0.7,0.4,1c0.2,0.3,0.4,0.5,0.7,0.7S338.8,32.1,339.2,32.1z"/>
						<path class="st3" d="M352.7,32c-0.2,0.2-0.4,0.3-0.7,0.5s-0.5,0.3-0.9,0.4c-0.3,0.1-0.6,0.2-1,0.2s-0.7,0.1-1,0.1
							c-0.6,0-1.2-0.1-1.7-0.3c-0.5-0.2-0.9-0.5-1.2-0.8c-0.3-0.4-0.6-0.8-0.8-1.3c-0.2-0.5-0.3-1.1-0.3-1.7c0-0.7,0.1-1.3,0.3-1.8
							c0.2-0.5,0.5-1,0.8-1.3c0.4-0.4,0.8-0.6,1.3-0.8s1.1-0.3,1.7-0.3c0.4,0,0.9,0.1,1.3,0.2s0.8,0.3,1.2,0.7
							c0.3,0.3,0.6,0.8,0.8,1.3c0.2,0.6,0.2,1.3,0.2,2.2h-6.2c0,1,0.3,1.7,0.8,2.2s1.2,0.7,2.1,0.7c0.3,0,0.6,0,0.9-0.1
							c0.3-0.1,0.6-0.2,0.8-0.2c0.3-0.1,0.5-0.2,0.7-0.3s0.3-0.2,0.5-0.3L352.7,32z M349.3,25.9c-0.4,0-0.7,0-1,0.1
							c-0.3,0.1-0.6,0.2-0.8,0.4c-0.2,0.2-0.4,0.4-0.6,0.7s-0.3,0.6-0.3,1h5c-0.1-0.7-0.3-1.2-0.7-1.6S349.9,25.9,349.3,25.9z"/>
						<path class="st3" d="M358.6,31.4h0.2l2.5-6.4h1.4l-3.4,8h-1.4l-3.4-8h1.5L358.6,31.4z"/>
						<path class="st3" d="M371.9,32c-0.2,0.2-0.4,0.3-0.7,0.5s-0.5,0.3-0.9,0.4c-0.3,0.1-0.6,0.2-1,0.2s-0.7,0.1-1,0.1
							c-0.6,0-1.2-0.1-1.7-0.3c-0.5-0.2-0.9-0.5-1.2-0.8c-0.3-0.4-0.6-0.8-0.8-1.3c-0.2-0.5-0.3-1.1-0.3-1.7c0-0.7,0.1-1.3,0.3-1.8
							c0.2-0.5,0.5-1,0.8-1.3c0.4-0.4,0.8-0.6,1.3-0.8c0.5-0.2,1.1-0.3,1.7-0.3c0.4,0,0.9,0.1,1.3,0.2s0.8,0.3,1.2,0.7
							c0.3,0.3,0.6,0.8,0.8,1.3c0.2,0.6,0.2,1.3,0.2,2.2h-6.2c0,1,0.3,1.7,0.8,2.2s1.2,0.7,2.1,0.7c0.3,0,0.6,0,0.9-0.1
							c0.3-0.1,0.6-0.2,0.8-0.2c0.3-0.1,0.5-0.2,0.7-0.3s0.3-0.2,0.5-0.3L371.9,32z M368.5,25.9c-0.4,0-0.7,0-1,0.1
							c-0.3,0.1-0.6,0.2-0.8,0.4c-0.2,0.2-0.4,0.4-0.6,0.7c-0.2,0.3-0.3,0.6-0.3,1h5c-0.1-0.7-0.3-1.2-0.7-1.6
							C369.7,26.1,369.1,25.9,368.5,25.9z"/>
						<path class="st3" d="M374.9,21.8h2.7v8.5c0,0.7,0.1,1.1,0.3,1.4s0.5,0.4,1,0.4c0.3,0,0.6-0.1,0.9-0.2c0.3-0.1,0.6-0.3,0.9-0.5
							l0.6,0.9c-0.2,0.1-0.4,0.3-0.6,0.4s-0.4,0.2-0.6,0.3c-0.2,0.1-0.4,0.1-0.6,0.2c-0.2,0-0.4,0.1-0.6,0.1c-0.4,0-0.7-0.1-1.1-0.2
							c-0.3-0.1-0.6-0.3-0.8-0.5c-0.2-0.2-0.4-0.5-0.5-0.9s-0.2-0.8-0.2-1.4v-7.4h-1.4V21.8z"/>
						<path class="st3" d="M383.5,29c0-1.3,0.3-2.3,1-3.1c0.7-0.8,1.6-1.1,2.9-1.1c0.7,0,1.3,0.1,1.7,0.3c0.5,0.2,0.9,0.5,1.2,0.9
							c0.3,0.4,0.6,0.8,0.7,1.3c0.2,0.5,0.2,1.1,0.2,1.6c0,0.6-0.1,1.2-0.3,1.7c-0.2,0.5-0.4,1-0.8,1.3c-0.3,0.4-0.7,0.6-1.2,0.8
							c-0.5,0.2-1,0.3-1.7,0.3c-0.7,0-1.2-0.1-1.7-0.3c-0.5-0.2-0.9-0.5-1.2-0.9c-0.3-0.4-0.6-0.8-0.7-1.3
							C383.6,30.1,383.5,29.6,383.5,29z M384.8,29c0,0.4,0,0.7,0.1,1.1c0.1,0.4,0.2,0.7,0.4,1c0.2,0.3,0.5,0.5,0.8,0.7
							c0.3,0.2,0.7,0.3,1.2,0.3c0.9,0,1.5-0.3,1.9-0.8S390,30,390,29c0-0.4,0-0.8-0.1-1.1c-0.1-0.4-0.2-0.7-0.4-1s-0.5-0.5-0.8-0.7
							s-0.7-0.3-1.2-0.3c-0.9,0-1.5,0.3-1.9,0.8S384.8,28,384.8,29z"/>
						<path class="st3" d="M393.7,27.8c0-0.1,0-0.2,0-0.4c0-0.2,0-0.3,0-0.5c0-0.2,0-0.3,0-0.5c0-0.2,0-0.3-0.1-0.4h-1.1v-1h2.1
							l0.2,1.1h0.1c0.3-0.4,0.7-0.7,1.1-0.9c0.4-0.2,1-0.4,1.6-0.4c1.1,0,2,0.3,2.6,0.9c0.6,0.6,0.9,1.7,0.9,3.1
							c0,0.7-0.1,1.3-0.3,1.8c-0.2,0.5-0.5,1-0.8,1.4c-0.4,0.4-0.8,0.7-1.3,0.9c-0.5,0.2-1.1,0.3-1.7,0.3c-0.2,0-0.4,0-0.6,0
							c-0.2,0-0.3,0-0.5-0.1c-0.1,0-0.3-0.1-0.4-0.1s-0.3-0.1-0.4-0.2v3.4h-1.2V27.8z M397.4,26c-0.3,0-0.6,0.1-0.9,0.2
							c-0.3,0.1-0.5,0.3-0.8,0.5c-0.2,0.2-0.4,0.4-0.5,0.6c-0.1,0.2-0.2,0.5-0.3,0.7v3.6c0.2,0.2,0.5,0.3,0.8,0.4
							c0.3,0.1,0.7,0.1,1.2,0.1c0.9,0,1.5-0.3,2-0.8s0.8-1.4,0.8-2.5c0-0.9-0.2-1.6-0.5-2.1C398.8,26.2,398.2,26,397.4,26z"/>
						<path class="st3" d="M406,33v-5.3c0-0.2,0-0.4,0-0.6c0-0.2-0.1-0.4-0.1-0.6c-0.1-0.2-0.1-0.3-0.3-0.4
							c-0.1-0.1-0.3-0.1-0.4-0.1c-0.4,0-0.7,0.1-0.9,0.4s-0.4,0.7-0.6,1.1V33h-1.2v-8h0.8l0.2,1h0.1c0.1-0.2,0.2-0.3,0.3-0.5
							c0.1-0.1,0.2-0.3,0.4-0.4c0.1-0.1,0.3-0.2,0.5-0.2c0.2-0.1,0.4-0.1,0.7-0.1c0.2,0,0.3,0,0.5,0.1s0.3,0.1,0.5,0.2
							c0.1,0.1,0.3,0.2,0.4,0.4c0.1,0.2,0.2,0.4,0.2,0.6c0.2-0.4,0.5-0.7,0.8-1c0.3-0.2,0.7-0.4,1.3-0.4c0.4,0,0.6,0.1,0.9,0.2
							c0.2,0.1,0.4,0.3,0.5,0.5c0.1,0.2,0.2,0.5,0.3,0.8c0,0.3,0.1,0.6,0.1,1V33h-1.2v-5.4c0-0.2,0-0.4,0-0.6c0-0.2-0.1-0.4-0.1-0.5
							s-0.1-0.3-0.2-0.4c-0.1-0.1-0.2-0.1-0.4-0.1c-0.4,0-0.7,0.1-0.9,0.4s-0.4,0.7-0.6,1.3V33H406z"/>
						<path class="st3" d="M419.9,32c-0.2,0.2-0.4,0.3-0.7,0.5s-0.5,0.3-0.9,0.4c-0.3,0.1-0.6,0.2-1,0.2s-0.7,0.1-1,0.1
							c-0.6,0-1.2-0.1-1.7-0.3c-0.5-0.2-0.9-0.5-1.2-0.8c-0.3-0.4-0.6-0.8-0.8-1.3c-0.2-0.5-0.3-1.1-0.3-1.7c0-0.7,0.1-1.3,0.3-1.8
							c0.2-0.5,0.5-1,0.8-1.3c0.4-0.4,0.8-0.6,1.3-0.8s1.1-0.3,1.7-0.3c0.4,0,0.9,0.1,1.3,0.2s0.8,0.3,1.2,0.7
							c0.3,0.3,0.6,0.8,0.8,1.3c0.2,0.6,0.2,1.3,0.2,2.2h-6.2c0,1,0.3,1.7,0.8,2.2s1.2,0.7,2.1,0.7c0.3,0,0.6,0,0.9-0.1
							c0.3-0.1,0.6-0.2,0.8-0.2c0.3-0.1,0.5-0.2,0.7-0.3s0.3-0.2,0.5-0.3L419.9,32z M416.5,25.9c-0.4,0-0.7,0-1,0.1
							c-0.3,0.1-0.6,0.2-0.8,0.4c-0.2,0.2-0.4,0.4-0.6,0.7s-0.3,0.6-0.3,1h5c-0.1-0.7-0.3-1.2-0.7-1.6S417.1,25.9,416.5,25.9z"/>
						<path class="st3" d="M422.5,27.8c0-0.1,0-0.2,0-0.4c0-0.2,0-0.3,0-0.5c0-0.2,0-0.3,0-0.5s0-0.3-0.1-0.4h-1.1v-1h2.1l0.1,1.3
							h0.1c0.1-0.2,0.2-0.4,0.4-0.5c0.2-0.2,0.4-0.3,0.6-0.5c0.2-0.1,0.5-0.3,0.8-0.3c0.3-0.1,0.6-0.1,0.9-0.1
							c0.5,0,0.9,0.1,1.3,0.2c0.4,0.1,0.7,0.3,0.9,0.6c0.3,0.3,0.4,0.6,0.6,1.1s0.2,1.1,0.2,1.8V33h-1.3v-4.3c0-0.9-0.1-1.5-0.4-2
							c-0.3-0.4-0.8-0.7-1.6-0.7c-0.3,0-0.5,0.1-0.8,0.2c-0.3,0.1-0.5,0.3-0.7,0.4c-0.2,0.2-0.4,0.4-0.6,0.6s-0.3,0.5-0.4,0.8v5
							h-1.2V27.8z"/>
						<path class="st3" d="M431.1,25h1.9v-1.6l1.3-0.4V25h4.3v1.1h-4.3v3.8c0,0.8,0.2,1.4,0.6,1.7c0.4,0.4,0.9,0.6,1.6,0.6
							c0.5,0,0.9-0.1,1.3-0.3c0.4-0.2,0.7-0.4,1-0.6l0.4,0.9c-0.4,0.3-0.8,0.5-1.3,0.7c-0.5,0.2-1,0.3-1.6,0.3
							c-0.4,0-0.8-0.1-1.2-0.2c-0.4-0.1-0.7-0.3-1-0.6c-0.3-0.3-0.5-0.6-0.7-1c-0.2-0.4-0.3-0.9-0.3-1.4v-4h-1.9V25z"/>
					</g>
					<g id="Group_1_" transform="translate(32.000000, 13.000000)">
						<g id="Shape_1_">
							<path class="st7" d="M16.7,10.8H5.1V6.9c0-2,1.3-3.8,3.1-4.2c2.4-0.4,4.6,1.5,4.6,4c0,0.8,0.6,1.3,1.3,1.3
								c0.6,0,1.3-0.5,1.3-1.3c0-3.9-3.2-7.1-7.1-6.7C5,0.4,2.6,3.5,2.6,7v3.8H1.3c-0.6,0-1.3,0.5-1.3,1.3v13.5
								C0,26.3,0.6,27,1.3,27h15.4c0.8,0,1.3-0.7,1.3-1.3V12.2C18,11.4,17.5,10.8,16.7,10.8z M9.7,14.1c1,0.3,1.9,1.2,2.2,2.3
								c0.3,1.4-0.4,2.6-1.5,3.2v2c0,0.9-0.6,1.5-1.5,1.5s-1.5-0.6-1.5-1.5v-2C6.6,18.9,6,18,6,17C6,15,7.8,13.6,9.7,14.1z M9.8,6
								C9.9,6.1,10,6.2,10,6.4v2.1C10,8.8,9.8,9,9.5,9C9.3,9,9.2,9,9.1,8.9L8.2,7.7c-0.1-0.2-0.1-0.4,0-0.6l0.9-1
								C9.3,5.9,9.6,5.8,9.8,6z M18.2,6c0.2-0.2,0.5-0.1,0.7,0.1l0,0l0.9,1c0.1,0.2,0.2,0.4,0,0.6l0,0l-0.9,1.1
								C18.8,9,18.7,9,18.5,9C18.2,9,18,8.8,18,8.5l0,0V6.4C18,6.2,18.1,6.1,18.2,6z"/>
						</g>
					</g>
				</g>
				<rect id="Rectangle_1_" x="236" y="51" class="st4" width="8" height="1"/>
				<rect id="Rectangle_2_" x="236" y="131" class="st4" width="8" height="1"/>
				<rect id="Rectangle_3_" x="236" y="213" class="st4" width="8" height="1"/>
			</g>
		</g>
	</g>
</g>
</svg>
