<?xml version="1.0" encoding="utf-8"?>
<!-- Generator: Adobe Illustrator 24.2.3, SVG Export Plug-In . SVG Version: 6.00 Build 0)  -->
<svg version="1.1" id="Layer_1" xmlns="http://www.w3.org/2000/svg" xmlns:xlink="http://www.w3.org/1999/xlink" x="0px" y="0px"
	 viewBox="0 0 493 264" style="enable-background:new 0 0 493 264;" xml:space="preserve" width="493" height="264">
<style type="text/css">
	.st0{fill:none;stroke:#4BC7EC;}
	.st1{fill-rule:evenodd;clip-rule:evenodd;fill:#25B8E4;fill-opacity:0.06;}
	.st2{enable-background:new    ;}
	.st3{fill:#25B8E4;}
	.st4{fill-rule:evenodd;clip-rule:evenodd;fill:#00B7E6;}
	.st5{fill:#A2B6C7;}
	.st6{fill:#00B7E6;}
	.st7{fill:#00BAE9;}
</style>
<g id="Content">
	<g id="Desktop-HD-v.2-Copy" transform="translate(-782.000000, -1886.000000)">
		<g id="info_2" transform="translate(166.000000, 1879.000000)">
			<g id="infographic" transform="translate(616.000000, 7.000000)">
				<path id="Rectangle" class="st0" d="M10.5,0.5h472c5.52,0,10,4.48,10,10v243c0,5.52-4.48,10-10,10h-472c-5.52,0-10-4.48-10-10
					v-243C0.5,4.98,4.98,0.5,10.5,0.5z"/>
				<g id="App" transform="translate(24.000000, 24.000000)">
					<path id="Rectangle-Copy-20" class="st1" d="M4,0h197c2.21,0,4,1.79,4,4v48c0,2.21-1.79,4-4,4H4c-2.21,0-4-1.79-4-4V4
						C0,1.79,1.79,0,4,0z"/>
					<g class="st2">
						<path class="st3" d="M72.9,29.9H68.6L67.58,33h-1.33L70,21.8h1.57L75.34,33h-1.39L72.9,29.9z M69.02,28.74h3.51l-1.65-5.26
							h-0.19L69.02,28.74z"/>
						<path class="st3" d="M77.14,27.8c0-0.1,0-0.22-0.01-0.38c-0.01-0.15-0.01-0.31-0.02-0.48c-0.01-0.17-0.02-0.33-0.04-0.49
							c-0.02-0.16-0.03-0.3-0.06-0.42h-1.07V25h2.13l0.16,1.12h0.08c0.29-0.37,0.65-0.69,1.1-0.94c0.44-0.25,0.98-0.38,1.62-0.38
							c1.14,0,2,0.32,2.58,0.94c0.58,0.63,0.86,1.66,0.86,3.09c0,0.67-0.1,1.28-0.3,1.82c-0.2,0.54-0.48,0.99-0.84,1.37
							c-0.36,0.37-0.8,0.66-1.31,0.86c-0.51,0.2-1.08,0.3-1.7,0.3c-0.22,0-0.42-0.01-0.6-0.02c-0.18-0.02-0.34-0.04-0.48-0.06
							c-0.14-0.03-0.29-0.06-0.42-0.1s-0.29-0.1-0.45-0.16v3.36h-1.23V27.8z M80.82,25.99c-0.32,0-0.62,0.06-0.9,0.18
							c-0.28,0.12-0.53,0.27-0.75,0.46c-0.22,0.19-0.4,0.41-0.54,0.64c-0.14,0.23-0.22,0.47-0.26,0.7v3.64
							c0.23,0.16,0.5,0.28,0.79,0.38c0.29,0.09,0.68,0.14,1.16,0.14c0.85,0,1.54-0.28,2.05-0.84c0.51-0.56,0.77-1.38,0.77-2.45
							c0-0.9-0.18-1.6-0.54-2.1C82.24,26.24,81.65,25.99,80.82,25.99z"/>
						<path class="st3" d="M86.74,27.8c0-0.1,0-0.22-0.01-0.38c-0.01-0.15-0.01-0.31-0.02-0.48c-0.01-0.17-0.02-0.33-0.04-0.49
							c-0.02-0.16-0.03-0.3-0.06-0.42h-1.07V25h2.13l0.16,1.12h0.08c0.29-0.37,0.65-0.69,1.1-0.94c0.44-0.25,0.98-0.38,1.62-0.38
							c1.14,0,2,0.32,2.58,0.94c0.58,0.63,0.86,1.66,0.86,3.09c0,0.67-0.1,1.28-0.3,1.82c-0.2,0.54-0.48,0.99-0.84,1.37
							c-0.36,0.37-0.8,0.66-1.31,0.86c-0.51,0.2-1.08,0.3-1.7,0.3c-0.22,0-0.42-0.01-0.6-0.02c-0.18-0.02-0.34-0.04-0.48-0.06
							c-0.14-0.03-0.29-0.06-0.42-0.1s-0.29-0.1-0.45-0.16v3.36h-1.23V27.8z M90.42,25.99c-0.32,0-0.62,0.06-0.9,0.18
							c-0.28,0.12-0.53,0.27-0.75,0.46c-0.22,0.19-0.4,0.41-0.54,0.64c-0.14,0.23-0.22,0.47-0.26,0.7v3.64
							c0.23,0.16,0.5,0.28,0.79,0.38c0.29,0.09,0.68,0.14,1.16,0.14c0.85,0,1.54-0.28,2.05-0.84c0.51-0.56,0.77-1.38,0.77-2.45
							c0-0.9-0.18-1.6-0.54-2.1C91.84,26.24,91.25,25.99,90.42,25.99z"/>
						<path class="st3" d="M96.7,21.8h2.67v8.51c0,0.65,0.11,1.11,0.33,1.38s0.54,0.4,0.97,0.4c0.3,0,0.58-0.05,0.86-0.16
							c0.27-0.11,0.57-0.29,0.9-0.54l0.58,0.88c-0.17,0.15-0.36,0.28-0.56,0.4c-0.2,0.12-0.41,0.22-0.63,0.3s-0.43,0.14-0.64,0.18
							c-0.21,0.04-0.41,0.06-0.59,0.06c-0.4,0-0.75-0.05-1.06-0.15c-0.31-0.1-0.57-0.26-0.78-0.49c-0.21-0.22-0.37-0.52-0.47-0.89
							s-0.16-0.82-0.16-1.37v-7.44H96.7V21.8z"/>
						<path class="st3" d="M106.08,33v-1.07h2.78v-5.86h-2.78V25h4.05v6.93h2.72V33H106.08z M108.42,22.73
							c0-0.29,0.1-0.54,0.29-0.74c0.19-0.21,0.44-0.31,0.74-0.31c0.31,0,0.57,0.1,0.78,0.31s0.31,0.46,0.31,0.74
							c0,0.28-0.1,0.51-0.31,0.7c-0.21,0.19-0.47,0.29-0.78,0.29c-0.3,0-0.54-0.1-0.74-0.29C108.51,23.24,108.42,23.01,108.42,22.73
							z"/>
						<path class="st3" d="M121.02,26.23c-0.25-0.09-0.51-0.16-0.79-0.22c-0.28-0.06-0.56-0.09-0.84-0.09
							c-1.05,0-1.82,0.25-2.34,0.74c-0.51,0.49-0.77,1.27-0.77,2.34c0,0.47,0.07,0.89,0.22,1.26c0.15,0.37,0.36,0.68,0.64,0.94
							s0.61,0.45,1,0.59c0.39,0.14,0.82,0.21,1.29,0.21c0.5,0,0.99-0.09,1.46-0.26c0.47-0.17,0.87-0.4,1.19-0.68l0.56,0.93
							c-0.15,0.13-0.34,0.26-0.56,0.4c-0.22,0.14-0.48,0.27-0.78,0.39s-0.62,0.22-0.98,0.3c-0.36,0.07-0.74,0.11-1.16,0.11
							c-0.69,0-1.3-0.1-1.83-0.3c-0.53-0.2-0.97-0.48-1.32-0.85c-0.35-0.37-0.62-0.81-0.8-1.33c-0.18-0.52-0.27-1.09-0.27-1.72
							c0-0.67,0.09-1.27,0.28-1.79c0.19-0.52,0.46-0.96,0.81-1.31c0.35-0.35,0.78-0.62,1.28-0.81c0.5-0.19,1.06-0.28,1.68-0.28
							c0.79,0,1.43,0.07,1.93,0.21c0.5,0.14,0.91,0.29,1.26,0.46l-0.02,0.05v2.22h-1.15V26.23z"/>
						<path class="st3" d="M125.33,25.62c0.46-0.27,0.98-0.46,1.55-0.58c0.58-0.12,1.14-0.18,1.7-0.18c0.54,0,0.99,0.08,1.34,0.26
							s0.62,0.39,0.82,0.66s0.33,0.58,0.4,0.93s0.1,0.7,0.1,1.05c0,0.41-0.01,0.84-0.03,1.3c-0.02,0.46-0.04,0.92-0.05,1.38
							c0,0.53,0.03,1.04,0.1,1.52h1.07V33h-2.11l-0.14-1.2h-0.08c-0.06,0.1-0.16,0.22-0.29,0.37s-0.3,0.3-0.51,0.44
							c-0.21,0.14-0.46,0.27-0.76,0.38c-0.3,0.11-0.65,0.16-1.06,0.16c-0.79,0-1.42-0.2-1.88-0.61s-0.69-0.96-0.69-1.66
							c0-0.54,0.12-1,0.36-1.36c0.24-0.36,0.59-0.64,1.04-0.83c0.45-0.19,0.99-0.3,1.63-0.34c0.64-0.03,1.35,0.01,2.14,0.13
							c0.05-0.49,0.06-0.9,0.02-1.22c-0.04-0.33-0.12-0.58-0.26-0.78c-0.13-0.19-0.32-0.33-0.56-0.41
							c-0.24-0.08-0.54-0.12-0.89-0.12c-0.48,0-0.94,0.07-1.38,0.2c-0.44,0.13-0.83,0.27-1.17,0.41L125.33,25.62z M127.7,32.07
							c0.3,0,0.58-0.05,0.83-0.14c0.26-0.1,0.48-0.22,0.67-0.37c0.19-0.15,0.35-0.31,0.48-0.49s0.22-0.34,0.29-0.5v-1.12
							c-0.55-0.1-1.07-0.14-1.54-0.14c-0.47,0-0.88,0.05-1.22,0.15c-0.34,0.1-0.61,0.26-0.8,0.47c-0.19,0.21-0.29,0.49-0.29,0.83
							c0,0.35,0.12,0.66,0.36,0.92C126.73,31.94,127.13,32.07,127.7,32.07z"/>
						<path class="st3" d="M133.7,25h1.9v-1.58l1.26-0.35V25h4.27v1.07h-4.27v3.78c0,0.78,0.19,1.36,0.57,1.73s0.92,0.56,1.62,0.56
							c0.48,0,0.9-0.09,1.25-0.27c0.36-0.18,0.68-0.38,0.96-0.59l0.41,0.94c-0.37,0.3-0.82,0.54-1.34,0.72
							c-0.52,0.18-1.05,0.27-1.59,0.27c-0.43,0-0.83-0.06-1.21-0.18c-0.38-0.12-0.71-0.31-1-0.57c-0.29-0.26-0.52-0.58-0.69-0.98
							c-0.17-0.4-0.26-0.88-0.26-1.43v-3.97h-1.9V25z"/>
						<path class="st3" d="M144.48,33v-1.07h2.78v-5.86h-2.78V25h4.05v6.93h2.72V33H144.48z M146.81,22.73
							c0-0.29,0.1-0.54,0.29-0.74c0.19-0.21,0.44-0.31,0.74-0.31c0.31,0,0.57,0.1,0.78,0.31s0.31,0.46,0.31,0.74
							c0,0.28-0.1,0.51-0.31,0.7c-0.21,0.19-0.47,0.29-0.78,0.29c-0.3,0-0.54-0.1-0.74-0.29C146.91,23.24,146.81,23.01,146.81,22.73
							z"/>
						<path class="st3" d="M153.31,29c0-1.29,0.34-2.31,1.01-3.06c0.67-0.75,1.63-1.13,2.88-1.13c0.67,0,1.25,0.11,1.74,0.33
							c0.49,0.22,0.89,0.51,1.21,0.89c0.32,0.37,0.56,0.82,0.71,1.33c0.15,0.51,0.23,1.06,0.23,1.65c0,0.64-0.09,1.22-0.26,1.74
							c-0.17,0.52-0.42,0.96-0.75,1.32c-0.33,0.36-0.74,0.64-1.22,0.84c-0.49,0.2-1.04,0.3-1.66,0.3c-0.66,0-1.24-0.11-1.73-0.33
							c-0.49-0.22-0.9-0.51-1.22-0.89c-0.32-0.37-0.56-0.82-0.71-1.33C153.39,30.14,153.31,29.59,153.31,29z M154.64,29
							c0,0.37,0.04,0.75,0.14,1.12s0.24,0.71,0.44,1.01c0.2,0.3,0.46,0.54,0.79,0.72c0.32,0.18,0.72,0.27,1.19,0.27
							c0.85,0,1.49-0.26,1.92-0.79s0.65-1.3,0.65-2.33c0-0.38-0.04-0.76-0.14-1.13c-0.09-0.37-0.24-0.7-0.45-1
							c-0.21-0.3-0.47-0.54-0.8-0.72c-0.32-0.18-0.72-0.27-1.19-0.27c-0.85,0-1.49,0.26-1.91,0.78S154.64,27.97,154.64,29z"/>
						<path class="st3" d="M163.49,27.8c0-0.1,0-0.22-0.01-0.38c-0.01-0.15-0.01-0.31-0.02-0.48c-0.01-0.17-0.02-0.33-0.04-0.49
							s-0.03-0.3-0.06-0.42h-1.07V25h2.14l0.14,1.3h0.08c0.11-0.18,0.25-0.36,0.42-0.54c0.18-0.18,0.38-0.34,0.62-0.48
							c0.23-0.14,0.5-0.26,0.78-0.34c0.29-0.08,0.59-0.13,0.91-0.13c0.49,0,0.93,0.05,1.3,0.16c0.38,0.11,0.69,0.3,0.94,0.57
							c0.25,0.27,0.44,0.64,0.57,1.1s0.19,1.05,0.19,1.77V33h-1.26v-4.34c0-0.88-0.14-1.55-0.43-2c-0.29-0.45-0.81-0.67-1.56-0.67
							c-0.28,0-0.54,0.06-0.81,0.17c-0.26,0.11-0.5,0.26-0.71,0.44s-0.4,0.39-0.56,0.63c-0.16,0.24-0.28,0.49-0.35,0.76V33h-1.23
							V27.8z"/>
					</g>
					<g class="st2">
						<path class="st3" d="M231.4,31.42c0.32,0.17,0.68,0.31,1.08,0.42c0.4,0.11,0.8,0.17,1.21,0.17c0.35,0,0.68-0.03,0.99-0.1
							c0.31-0.07,0.58-0.18,0.81-0.34c0.23-0.16,0.41-0.35,0.54-0.58c0.13-0.24,0.2-0.51,0.2-0.83c0-0.44-0.15-0.79-0.44-1.07
							s-0.66-0.52-1.1-0.74c-0.44-0.21-0.91-0.42-1.42-0.62c-0.51-0.2-0.99-0.44-1.42-0.72s-0.8-0.62-1.1-1.02
							c-0.29-0.4-0.44-0.91-0.44-1.53c0-0.44,0.09-0.83,0.26-1.18c0.18-0.35,0.42-0.65,0.74-0.9s0.71-0.43,1.16-0.57
							c0.45-0.13,0.96-0.2,1.51-0.2c0.64,0,1.22,0.04,1.74,0.14c0.52,0.09,0.94,0.21,1.25,0.36l0.03-0.02v0.03h0.02l-0.02,0.05v2.56
							h-1.18v-1.71c-0.27-0.06-0.56-0.12-0.88-0.16c-0.32-0.04-0.66-0.06-1.02-0.06c-0.35,0-0.67,0.04-0.95,0.13
							c-0.28,0.09-0.52,0.2-0.72,0.34c-0.2,0.14-0.35,0.31-0.46,0.5c-0.11,0.19-0.16,0.4-0.16,0.61c0,0.42,0.15,0.76,0.44,1.04
							s0.66,0.53,1.1,0.74s0.91,0.43,1.42,0.65c0.51,0.21,0.99,0.46,1.42,0.74c0.44,0.28,0.8,0.62,1.1,1.02
							c0.29,0.39,0.44,0.88,0.44,1.47c0,0.48-0.09,0.91-0.26,1.3c-0.18,0.38-0.43,0.71-0.75,0.99s-0.73,0.49-1.2,0.64
							s-1.01,0.22-1.61,0.22c-0.41,0-0.79-0.03-1.15-0.1c-0.36-0.06-0.7-0.14-1-0.24c-0.3-0.1-0.58-0.2-0.82-0.3
							c-0.24-0.11-0.43-0.2-0.57-0.27l0.02-0.05v-2.59h1.18V31.42z"/>
						<path class="st3" d="M240.28,33v-1.07h2.78v-5.86h-2.78V25h4.05v6.93h2.72V33H240.28z M242.62,22.73
							c0-0.29,0.1-0.54,0.29-0.74c0.19-0.21,0.44-0.31,0.74-0.31c0.31,0,0.57,0.1,0.78,0.31c0.21,0.21,0.31,0.46,0.31,0.74
							c0,0.28-0.1,0.51-0.31,0.7c-0.21,0.19-0.47,0.29-0.78,0.29c-0.3,0-0.54-0.1-0.74-0.29C242.71,23.24,242.62,23.01,242.62,22.73
							z"/>
						<path class="st3" d="M252.39,33v-5.33c0-0.22-0.01-0.44-0.02-0.65c-0.02-0.21-0.05-0.39-0.11-0.56
							c-0.06-0.17-0.14-0.3-0.26-0.39c-0.11-0.1-0.26-0.14-0.44-0.14c-0.36,0-0.67,0.15-0.92,0.45s-0.44,0.67-0.57,1.12V33h-1.22v-8
							h0.83l0.24,0.98h0.06c0.11-0.16,0.21-0.31,0.31-0.46c0.1-0.14,0.22-0.27,0.35-0.38c0.13-0.11,0.29-0.19,0.47-0.25
							c0.18-0.06,0.41-0.09,0.69-0.09c0.16,0,0.32,0.02,0.5,0.07s0.33,0.12,0.47,0.22c0.14,0.1,0.27,0.24,0.38,0.41
							c0.11,0.17,0.18,0.38,0.21,0.62c0.25-0.42,0.52-0.74,0.82-0.98c0.3-0.23,0.72-0.35,1.26-0.35c0.35,0,0.64,0.06,0.86,0.18
							c0.22,0.12,0.39,0.29,0.51,0.5c0.12,0.22,0.21,0.48,0.26,0.78c0.05,0.3,0.07,0.64,0.07,1.02V33h-1.22v-5.44
							c0-0.22-0.01-0.43-0.03-0.63c-0.02-0.2-0.06-0.37-0.12-0.52s-0.14-0.27-0.24-0.35c-0.1-0.08-0.24-0.13-0.41-0.13
							c-0.37,0-0.69,0.15-0.94,0.45s-0.45,0.73-0.58,1.28V33H252.39z"/>
						<path class="st3" d="M259.34,27.8c0-0.1,0-0.22-0.01-0.38c-0.01-0.15-0.01-0.31-0.02-0.48c-0.01-0.17-0.02-0.33-0.04-0.49
							s-0.04-0.3-0.06-0.42h-1.07V25h2.13l0.16,1.12h0.08c0.29-0.37,0.65-0.69,1.1-0.94c0.44-0.25,0.98-0.38,1.62-0.38
							c1.14,0,2,0.32,2.58,0.94c0.58,0.63,0.86,1.66,0.86,3.09c0,0.67-0.1,1.28-0.3,1.82c-0.2,0.54-0.48,0.99-0.84,1.37
							c-0.36,0.37-0.8,0.66-1.31,0.86c-0.51,0.2-1.08,0.3-1.7,0.3c-0.22,0-0.42-0.01-0.6-0.02s-0.34-0.04-0.48-0.06
							c-0.14-0.03-0.29-0.06-0.42-0.1s-0.29-0.1-0.45-0.16v3.36h-1.23V27.8z M263.02,25.99c-0.32,0-0.62,0.06-0.9,0.18
							c-0.28,0.12-0.53,0.27-0.75,0.46s-0.4,0.41-0.54,0.64c-0.14,0.23-0.22,0.47-0.26,0.7v3.64c0.23,0.16,0.5,0.28,0.79,0.38
							s0.68,0.14,1.16,0.14c0.85,0,1.54-0.28,2.05-0.84c0.51-0.56,0.77-1.38,0.77-2.45c0-0.9-0.18-1.6-0.54-2.1
							C264.44,26.24,263.85,25.99,263.02,25.99z"/>
						<path class="st3" d="M269.3,21.8h2.67v8.51c0,0.65,0.11,1.11,0.33,1.38s0.54,0.4,0.97,0.4c0.3,0,0.58-0.05,0.86-0.16
							c0.27-0.11,0.57-0.29,0.9-0.54l0.58,0.88c-0.17,0.15-0.36,0.28-0.56,0.4c-0.2,0.12-0.41,0.22-0.63,0.3
							c-0.21,0.08-0.43,0.14-0.64,0.18c-0.21,0.04-0.41,0.06-0.59,0.06c-0.4,0-0.75-0.05-1.06-0.15c-0.31-0.1-0.57-0.26-0.78-0.49
							c-0.21-0.22-0.37-0.52-0.47-0.89s-0.16-0.82-0.16-1.37v-7.44h-1.41V21.8z"/>
						<path class="st3" d="M285.46,31.99c-0.19,0.17-0.42,0.33-0.68,0.48s-0.55,0.28-0.86,0.38c-0.31,0.11-0.63,0.19-0.97,0.25
							s-0.67,0.09-1.02,0.09c-0.64,0-1.21-0.1-1.7-0.3c-0.49-0.2-0.9-0.48-1.23-0.85c-0.33-0.37-0.58-0.81-0.75-1.32
							c-0.17-0.51-0.26-1.09-0.26-1.73c0-0.67,0.09-1.27,0.28-1.79c0.19-0.52,0.46-0.96,0.81-1.31c0.35-0.35,0.78-0.62,1.28-0.81
							s1.06-0.28,1.68-0.28c0.45,0,0.89,0.06,1.33,0.18s0.82,0.34,1.16,0.66c0.34,0.33,0.59,0.77,0.78,1.34
							c0.18,0.57,0.25,1.31,0.19,2.22h-6.18c0,0.96,0.26,1.68,0.77,2.15s1.21,0.71,2.07,0.71c0.29,0,0.57-0.04,0.85-0.1
							c0.28-0.07,0.55-0.15,0.81-0.25c0.25-0.1,0.48-0.2,0.68-0.32s0.35-0.22,0.46-0.32L285.46,31.99z M282.09,25.86
							c-0.35,0-0.68,0.04-1,0.11c-0.31,0.08-0.59,0.2-0.83,0.38c-0.24,0.18-0.44,0.41-0.59,0.69s-0.25,0.63-0.29,1.05h4.96
							c-0.05-0.7-0.28-1.25-0.68-1.64S282.74,25.86,282.09,25.86z"/>
						<path class="st3" d="M297.61,33v-1.07h1.9v-5.86h-1.9V25h1.9v-0.45c0-1,0.26-1.73,0.78-2.18c0.52-0.45,1.27-0.67,2.24-0.67
							c0.35,0,0.67,0.02,0.94,0.06c0.28,0.04,0.58,0.13,0.9,0.26l-0.29,1.04c-0.28-0.12-0.54-0.2-0.8-0.23s-0.49-0.06-0.7-0.06
							c-0.7,0-1.18,0.17-1.43,0.52s-0.38,0.92-0.38,1.7h3.31v1.07h-3.31v5.86h3.31V33H297.61z"/>
						<path class="st3" d="M306.71,29c0-1.29,0.34-2.31,1.01-3.06c0.67-0.75,1.63-1.13,2.88-1.13c0.67,0,1.25,0.11,1.74,0.33
							c0.49,0.22,0.89,0.51,1.21,0.89c0.32,0.37,0.56,0.82,0.71,1.33c0.15,0.51,0.23,1.06,0.23,1.65c0,0.64-0.08,1.22-0.26,1.74
							c-0.17,0.52-0.42,0.96-0.75,1.32c-0.33,0.36-0.74,0.64-1.22,0.84c-0.49,0.2-1.04,0.3-1.66,0.3c-0.66,0-1.24-0.11-1.73-0.33
							c-0.49-0.22-0.9-0.51-1.22-0.89c-0.32-0.37-0.56-0.82-0.71-1.33C306.79,30.14,306.71,29.59,306.71,29z M308.04,29
							c0,0.37,0.04,0.75,0.13,1.12c0.09,0.37,0.24,0.71,0.44,1.01c0.2,0.3,0.46,0.54,0.79,0.72c0.32,0.18,0.72,0.27,1.19,0.27
							c0.85,0,1.49-0.26,1.92-0.79s0.65-1.3,0.65-2.33c0-0.38-0.04-0.76-0.13-1.13c-0.09-0.37-0.24-0.7-0.45-1s-0.47-0.54-0.8-0.72
							s-0.72-0.27-1.19-0.27c-0.85,0-1.49,0.26-1.91,0.78S308.04,27.97,308.04,29z"/>
						<path class="st3" d="M316.46,33v-1.07h2.16v-5.86h-2.16V25h2.99l0.26,1.04h0.08c0.36-0.33,0.77-0.61,1.22-0.85
							c0.45-0.24,0.98-0.35,1.6-0.35c0.36,0,0.65,0.07,0.87,0.21s0.39,0.34,0.51,0.61s0.21,0.59,0.25,0.97s0.06,0.81,0.06,1.29
							l-1.12,0.02c0-0.68-0.07-1.17-0.2-1.49c-0.13-0.32-0.38-0.48-0.73-0.48c-0.33,0-0.63,0.05-0.9,0.14s-0.5,0.21-0.7,0.35
							c-0.2,0.14-0.37,0.28-0.5,0.41c-0.14,0.14-0.24,0.26-0.3,0.35v4.71h3.07V33H316.46z"/>
						<path class="st3" d="M343.06,31.99c-0.19,0.17-0.42,0.33-0.68,0.48s-0.55,0.28-0.86,0.38c-0.31,0.11-0.63,0.19-0.97,0.25
							s-0.67,0.09-1.02,0.09c-0.64,0-1.21-0.1-1.7-0.3c-0.49-0.2-0.9-0.48-1.23-0.85c-0.33-0.37-0.58-0.81-0.75-1.32
							c-0.17-0.51-0.26-1.09-0.26-1.73c0-0.67,0.09-1.27,0.28-1.79c0.19-0.52,0.46-0.96,0.81-1.31c0.35-0.35,0.78-0.62,1.28-0.81
							s1.06-0.28,1.68-0.28c0.45,0,0.89,0.06,1.33,0.18s0.82,0.34,1.16,0.66c0.34,0.33,0.59,0.77,0.78,1.34
							c0.18,0.57,0.25,1.31,0.19,2.22h-6.18c0,0.96,0.26,1.68,0.77,2.15s1.21,0.71,2.07,0.71c0.29,0,0.57-0.04,0.85-0.1
							c0.28-0.07,0.55-0.15,0.81-0.25c0.25-0.1,0.48-0.2,0.68-0.32s0.35-0.22,0.46-0.32L343.06,31.99z M339.69,25.86
							c-0.35,0-0.68,0.04-1,0.11c-0.31,0.08-0.59,0.2-0.83,0.38c-0.24,0.18-0.44,0.41-0.59,0.69s-0.25,0.63-0.29,1.05h4.96
							c-0.05-0.7-0.28-1.25-0.68-1.64S340.34,25.86,339.69,25.86z"/>
						<path class="st3" d="M349.02,31.45h0.17L351.7,25h1.39l-3.38,8h-1.39l-3.44-8h1.47L349.02,31.45z"/>
						<path class="st3" d="M362.26,31.99c-0.19,0.17-0.42,0.33-0.68,0.48s-0.55,0.28-0.86,0.38c-0.31,0.11-0.63,0.19-0.97,0.25
							s-0.67,0.09-1.02,0.09c-0.64,0-1.21-0.1-1.7-0.3c-0.49-0.2-0.9-0.48-1.23-0.85c-0.33-0.37-0.58-0.81-0.75-1.32
							c-0.17-0.51-0.26-1.09-0.26-1.73c0-0.67,0.09-1.27,0.28-1.79c0.19-0.52,0.46-0.96,0.81-1.31c0.35-0.35,0.78-0.62,1.28-0.81
							s1.06-0.28,1.68-0.28c0.45,0,0.89,0.06,1.33,0.18s0.82,0.34,1.16,0.66c0.34,0.33,0.59,0.77,0.78,1.34
							c0.18,0.57,0.25,1.31,0.19,2.22h-6.18c0,0.96,0.26,1.68,0.77,2.15s1.21,0.71,2.07,0.71c0.29,0,0.57-0.04,0.85-0.1
							c0.28-0.07,0.55-0.15,0.81-0.25c0.25-0.1,0.48-0.2,0.68-0.32s0.35-0.22,0.46-0.32L362.26,31.99z M358.89,25.86
							c-0.35,0-0.68,0.04-1,0.11c-0.31,0.08-0.59,0.2-0.83,0.38c-0.24,0.18-0.44,0.41-0.59,0.69s-0.25,0.63-0.29,1.05h4.96
							c-0.05-0.7-0.28-1.25-0.68-1.64S359.54,25.86,358.89,25.86z"/>
						<path class="st3" d="M364.45,33v-1.07h2.16v-5.86h-2.16V25h2.99l0.26,1.04h0.08c0.36-0.33,0.77-0.61,1.22-0.85
							c0.45-0.24,0.98-0.35,1.6-0.35c0.36,0,0.65,0.07,0.87,0.21s0.39,0.34,0.51,0.61c0.12,0.27,0.21,0.59,0.25,0.97
							c0.04,0.38,0.06,0.81,0.06,1.29l-1.12,0.02c0-0.68-0.07-1.17-0.2-1.49c-0.13-0.32-0.38-0.48-0.73-0.48
							c-0.33,0-0.63,0.05-0.9,0.14s-0.5,0.21-0.7,0.35c-0.2,0.14-0.37,0.28-0.5,0.41c-0.14,0.14-0.24,0.26-0.3,0.35v4.71h3.07V33
							H364.45z"/>
						<path class="st3" d="M377.97,31.77h0.61l1.98-6.77h1.29l-2.22,7.18c-0.12,0.37-0.24,0.8-0.36,1.27
							c-0.12,0.47-0.29,0.92-0.52,1.34c-0.22,0.42-0.53,0.77-0.91,1.06c-0.38,0.29-0.88,0.43-1.5,0.43c-0.14,0-0.29-0.02-0.44-0.05
							c-0.16-0.03-0.31-0.07-0.46-0.12s-0.29-0.1-0.42-0.17c-0.13-0.06-0.22-0.13-0.29-0.19l0.45-1.15
							c0.06,0.05,0.15,0.11,0.26,0.16s0.23,0.1,0.37,0.14c0.13,0.04,0.26,0.07,0.39,0.1c0.13,0.03,0.24,0.04,0.32,0.04
							c0.8,0,1.34-0.68,1.63-2.03h-1.07l-3.36-8h1.44L377.97,31.77z"/>
						<path class="st3" d="M383.51,29c0-1.29,0.34-2.31,1.01-3.06c0.67-0.75,1.63-1.13,2.88-1.13c0.67,0,1.25,0.11,1.74,0.33
							c0.49,0.22,0.89,0.51,1.21,0.89c0.32,0.37,0.56,0.82,0.71,1.33c0.15,0.51,0.23,1.06,0.23,1.65c0,0.64-0.08,1.22-0.26,1.74
							c-0.17,0.52-0.42,0.96-0.75,1.32c-0.33,0.36-0.74,0.64-1.22,0.84c-0.49,0.2-1.04,0.3-1.66,0.3c-0.66,0-1.24-0.11-1.73-0.33
							c-0.49-0.22-0.9-0.51-1.22-0.89c-0.32-0.37-0.56-0.82-0.71-1.33C383.59,30.14,383.51,29.59,383.51,29z M384.84,29
							c0,0.37,0.04,0.75,0.13,1.12c0.09,0.37,0.24,0.71,0.44,1.01c0.2,0.3,0.46,0.54,0.79,0.72c0.32,0.18,0.72,0.27,1.19,0.27
							c0.85,0,1.49-0.26,1.92-0.79s0.65-1.3,0.65-2.33c0-0.38-0.04-0.76-0.13-1.13c-0.09-0.37-0.24-0.7-0.45-1s-0.47-0.54-0.8-0.72
							s-0.72-0.27-1.19-0.27c-0.85,0-1.49,0.26-1.91,0.78S384.84,27.97,384.84,29z"/>
						<path class="st3" d="M393.69,27.8c0-0.1,0-0.22-0.01-0.38c-0.01-0.15-0.01-0.31-0.02-0.48c-0.01-0.17-0.02-0.33-0.04-0.49
							s-0.04-0.3-0.06-0.42h-1.07V25h2.14l0.14,1.3h0.08c0.11-0.18,0.25-0.36,0.42-0.54s0.38-0.34,0.62-0.48
							c0.24-0.14,0.5-0.26,0.79-0.34c0.29-0.08,0.59-0.13,0.91-0.13c0.49,0,0.92,0.05,1.3,0.16c0.38,0.11,0.69,0.3,0.95,0.57
							c0.25,0.27,0.44,0.64,0.57,1.1s0.19,1.05,0.19,1.77V33h-1.26v-4.34c0-0.88-0.14-1.55-0.43-2c-0.29-0.45-0.81-0.67-1.56-0.67
							c-0.28,0-0.54,0.06-0.8,0.17c-0.26,0.11-0.5,0.26-0.71,0.44c-0.21,0.18-0.4,0.39-0.56,0.63c-0.16,0.24-0.28,0.49-0.35,0.76V33
							h-1.23V27.8z"/>
						<path class="st3" d="M410.26,31.99c-0.19,0.17-0.42,0.33-0.68,0.48c-0.26,0.15-0.55,0.28-0.86,0.38
							c-0.31,0.11-0.63,0.19-0.97,0.25s-0.68,0.09-1.02,0.09c-0.64,0-1.21-0.1-1.7-0.3c-0.49-0.2-0.9-0.48-1.23-0.85
							s-0.58-0.81-0.75-1.32c-0.17-0.51-0.26-1.09-0.26-1.73c0-0.67,0.09-1.27,0.28-1.79c0.19-0.52,0.46-0.96,0.81-1.31
							c0.35-0.35,0.78-0.62,1.28-0.81c0.5-0.19,1.06-0.28,1.68-0.28c0.45,0,0.89,0.06,1.33,0.18s0.82,0.34,1.16,0.66
							c0.34,0.33,0.59,0.77,0.78,1.34s0.25,1.31,0.19,2.22h-6.18c0,0.96,0.26,1.68,0.77,2.15c0.52,0.47,1.21,0.71,2.07,0.71
							c0.29,0,0.57-0.04,0.85-0.1c0.28-0.07,0.55-0.15,0.81-0.25c0.25-0.1,0.48-0.2,0.68-0.32c0.2-0.12,0.35-0.22,0.45-0.32
							L410.26,31.99z M406.89,25.86c-0.35,0-0.68,0.04-1,0.11c-0.31,0.08-0.59,0.2-0.83,0.38c-0.24,0.18-0.44,0.41-0.59,0.69
							s-0.25,0.63-0.29,1.05h4.96c-0.05-0.7-0.28-1.25-0.68-1.64C408.06,26.06,407.54,25.86,406.89,25.86z"/>
					</g>
					<g id="app-icon" transform="translate(27.000000, 19.000000)">
						<path id="Fill-1" class="st4" d="M3.6,2.92C3.6,1.97,4.48,1.81,5,1.8L4.99,0c-1.45,0-3.6,0.78-3.6,2.92v4.05
							C1.39,7.24,1.29,8.1,0,8.1v1.8c0.33,0,1.39,0.08,1.39,1.12v4.05c0,1.18,0.96,2.93,3.6,2.93v-1.8c-1.18,0-1.37-0.71-1.39-1.13
							v-4.05c0-0.9-0.38-1.57-0.93-2.03C3.33,8.4,3.6,7.6,3.6,6.97V2.92z"/>
						<polygon id="Fill-3" class="st4" points="6,6 15,6 15,4 6,4 						"/>
						<polygon id="Fill-5" class="st4" points="9,8.95 17.99,9 18,7.05 9.01,7 						"/>
						<polygon id="Fill-6" class="st4" points="9,11.95 17.99,12 18,10.05 9.01,10 						"/>
						<polygon id="Fill-7" class="st4" points="6,15 15,15 15,13 6,13 						"/>
						<path id="Fill-8" class="st4" d="M21.61,6.97V2.92C21.61,0.78,19.45,0,18,0v1.8c0.33,0,1.39,0.08,1.39,1.12v4.05
							c0,0.63,0.27,1.42,0.93,2.02c-0.55,0.46-0.93,1.12-0.93,2.03v4.05c0,0.26-0.1,1.13-1.39,1.13V18c2.65,0,3.61-1.75,3.61-2.93
							v-4.05c0-0.96,0.88-1.12,1.39-1.12V8.1C21.82,8.1,21.62,7.39,21.61,6.97"/>
					</g>
				</g>
				<g id="inte" transform="translate(24.000000, 104.000000)">
					<path id="Rectangle-Copy-20_1_" class="st1" d="M4,0h197c2.21,0,4,1.79,4,4v48c0,2.21-1.79,4-4,4H4c-2.21,0-4-1.79-4-4V4
						C0,1.79,1.79,0,4,0z"/>
					<g class="st2">
						<path class="st3" d="M70.96,21.8h7.68v1.18h-3.18v8.83h3.18V33h-7.68v-1.18h3.17v-8.83h-3.17V21.8z"/>
						<path class="st3" d="M81.09,27.8c0-0.1,0-0.22-0.01-0.38c-0.01-0.15-0.01-0.31-0.02-0.48c-0.01-0.17-0.02-0.33-0.04-0.49
							s-0.03-0.3-0.06-0.42h-1.07V25h2.14l0.14,1.3h0.08c0.11-0.18,0.25-0.36,0.42-0.54c0.18-0.18,0.38-0.34,0.62-0.48
							c0.23-0.14,0.5-0.26,0.78-0.34c0.29-0.08,0.59-0.13,0.91-0.13c0.49,0,0.93,0.05,1.3,0.16c0.38,0.11,0.69,0.3,0.94,0.57
							c0.25,0.27,0.44,0.64,0.57,1.1S88,27.69,88,28.41V33h-1.26v-4.34c0-0.88-0.14-1.55-0.43-2c-0.29-0.45-0.81-0.67-1.56-0.67
							c-0.28,0-0.54,0.06-0.81,0.17c-0.26,0.11-0.5,0.26-0.71,0.44s-0.4,0.39-0.56,0.63c-0.16,0.24-0.28,0.49-0.35,0.76V33h-1.23
							V27.8z"/>
						<path class="st3" d="M89.7,25h1.9v-1.58l1.26-0.35V25h4.27v1.07h-4.27v3.78c0,0.78,0.19,1.36,0.57,1.73s0.92,0.56,1.62,0.56
							c0.48,0,0.9-0.09,1.25-0.27c0.36-0.18,0.68-0.38,0.96-0.59l0.41,0.94c-0.37,0.3-0.82,0.54-1.34,0.72
							c-0.52,0.18-1.05,0.27-1.59,0.27c-0.43,0-0.83-0.06-1.21-0.18c-0.38-0.12-0.71-0.31-1-0.57c-0.29-0.26-0.52-0.58-0.69-0.98
							c-0.17-0.4-0.26-0.88-0.26-1.43v-3.97h-1.9V25z"/>
						<path class="st3" d="M107.26,31.99c-0.19,0.17-0.42,0.33-0.68,0.48c-0.26,0.15-0.55,0.28-0.86,0.38
							c-0.31,0.11-0.63,0.19-0.97,0.25s-0.67,0.09-1.02,0.09c-0.64,0-1.21-0.1-1.7-0.3c-0.49-0.2-0.9-0.48-1.23-0.85
							c-0.33-0.37-0.58-0.81-0.75-1.32c-0.17-0.51-0.26-1.09-0.26-1.73c0-0.67,0.09-1.27,0.28-1.79c0.19-0.52,0.46-0.96,0.81-1.31
							c0.35-0.35,0.78-0.62,1.28-0.81s1.06-0.28,1.68-0.28c0.45,0,0.89,0.06,1.33,0.18s0.82,0.34,1.16,0.66
							c0.34,0.33,0.59,0.77,0.78,1.34c0.18,0.57,0.25,1.31,0.19,2.22h-6.18c0,0.96,0.26,1.68,0.77,2.15
							c0.52,0.47,1.21,0.71,2.07,0.71c0.29,0,0.57-0.04,0.85-0.1c0.28-0.07,0.55-0.15,0.81-0.25c0.25-0.1,0.48-0.2,0.68-0.32
							c0.2-0.12,0.35-0.22,0.45-0.32L107.26,31.99z M103.9,25.86c-0.35,0-0.68,0.04-1,0.11c-0.31,0.08-0.59,0.2-0.83,0.38
							c-0.24,0.18-0.44,0.41-0.59,0.69c-0.15,0.28-0.25,0.63-0.3,1.05h4.96c-0.05-0.7-0.28-1.25-0.68-1.64S104.54,25.86,103.9,25.86
							z"/>
						<path class="st3" d="M116.78,33.4c0,0.5-0.1,0.94-0.29,1.32c-0.19,0.38-0.46,0.69-0.79,0.94c-0.34,0.25-0.73,0.43-1.18,0.55
							c-0.45,0.12-0.93,0.18-1.46,0.18c-0.63,0-1.18-0.06-1.65-0.19s-0.87-0.29-1.22-0.5l0.61-1.14c0.1,0.08,0.22,0.17,0.38,0.25
							c0.15,0.08,0.33,0.15,0.53,0.22s0.42,0.12,0.65,0.17c0.23,0.04,0.45,0.06,0.68,0.06c0.47,0,0.86-0.04,1.17-0.13
							c0.31-0.08,0.57-0.22,0.76-0.4c0.19-0.18,0.33-0.42,0.41-0.7s0.13-0.64,0.13-1.06v-0.9h-0.06c-0.24,0.35-0.56,0.62-0.94,0.82
							c-0.38,0.19-0.88,0.29-1.48,0.29c-1.21,0-2.1-0.34-2.67-1.02c-0.57-0.68-0.85-1.73-0.85-3.16c0-1.37,0.36-2.4,1.09-3.1
							c0.73-0.7,1.8-1.05,3.23-1.05c0.66,0,1.22,0.05,1.69,0.14c0.46,0.09,0.89,0.21,1.27,0.34V33.4z M113.22,32.12
							c0.65,0,1.15-0.17,1.53-0.5c0.37-0.34,0.63-0.85,0.78-1.54v-3.79c-0.47-0.22-1.12-0.34-1.96-0.34c-0.85,0-1.51,0.25-2,0.75
							c-0.49,0.5-0.73,1.27-0.73,2.3c0,0.46,0.04,0.88,0.13,1.26c0.08,0.38,0.22,0.71,0.41,0.98s0.43,0.49,0.73,0.65
							C112.4,32.04,112.77,32.12,113.22,32.12z"/>
						<path class="st3" d="M119.06,33v-1.07h2.16v-5.86h-2.16V25h2.99l0.26,1.04h0.08c0.36-0.33,0.77-0.61,1.22-0.85
							c0.45-0.24,0.98-0.35,1.6-0.35c0.36,0,0.65,0.07,0.87,0.21s0.39,0.34,0.51,0.61s0.21,0.59,0.25,0.97
							c0.04,0.38,0.06,0.81,0.06,1.29l-1.12,0.02c0-0.68-0.07-1.17-0.2-1.49c-0.13-0.32-0.38-0.48-0.73-0.48
							c-0.33,0-0.63,0.05-0.9,0.14c-0.27,0.1-0.5,0.21-0.7,0.35c-0.2,0.14-0.37,0.28-0.5,0.41c-0.14,0.14-0.24,0.26-0.3,0.35v4.71
							h3.07V33H119.06z"/>
						<path class="st3" d="M129.33,25.62c0.46-0.27,0.98-0.46,1.55-0.58c0.58-0.12,1.14-0.18,1.7-0.18c0.54,0,0.99,0.08,1.34,0.26
							s0.62,0.39,0.82,0.66s0.33,0.58,0.4,0.93s0.1,0.7,0.1,1.05c0,0.41-0.01,0.84-0.03,1.3c-0.02,0.46-0.04,0.92-0.05,1.38
							c0,0.53,0.03,1.04,0.1,1.52h1.07V33h-2.11l-0.14-1.2h-0.08c-0.06,0.1-0.16,0.22-0.29,0.37s-0.3,0.3-0.51,0.44
							c-0.21,0.14-0.46,0.27-0.76,0.38c-0.3,0.11-0.65,0.16-1.06,0.16c-0.79,0-1.42-0.2-1.88-0.61s-0.69-0.96-0.69-1.66
							c0-0.54,0.12-1,0.36-1.36c0.24-0.36,0.59-0.64,1.04-0.83c0.45-0.19,0.99-0.3,1.63-0.34c0.64-0.03,1.35,0.01,2.14,0.13
							c0.05-0.49,0.06-0.9,0.02-1.22c-0.04-0.33-0.12-0.58-0.26-0.78c-0.13-0.19-0.32-0.33-0.56-0.41
							c-0.24-0.08-0.54-0.12-0.89-0.12c-0.48,0-0.94,0.07-1.38,0.2c-0.44,0.13-0.83,0.27-1.17,0.41L129.33,25.62z M131.7,32.07
							c0.3,0,0.58-0.05,0.83-0.14c0.26-0.1,0.48-0.22,0.67-0.37c0.19-0.15,0.35-0.31,0.48-0.49s0.22-0.34,0.29-0.5v-1.12
							c-0.55-0.1-1.07-0.14-1.54-0.14c-0.47,0-0.88,0.05-1.22,0.15c-0.34,0.1-0.61,0.26-0.8,0.47c-0.19,0.21-0.29,0.49-0.29,0.83
							c0,0.35,0.12,0.66,0.36,0.92C130.73,31.94,131.13,32.07,131.7,32.07z"/>
						<path class="st3" d="M137.7,25h1.9v-1.58l1.26-0.35V25h4.27v1.07h-4.27v3.78c0,0.78,0.19,1.36,0.57,1.73s0.92,0.56,1.62,0.56
							c0.48,0,0.9-0.09,1.25-0.27c0.36-0.18,0.68-0.38,0.96-0.59l0.41,0.94c-0.37,0.3-0.82,0.54-1.34,0.72
							c-0.52,0.18-1.05,0.27-1.59,0.27c-0.43,0-0.83-0.06-1.21-0.18c-0.38-0.12-0.71-0.31-1-0.57c-0.29-0.26-0.52-0.58-0.69-0.98
							c-0.17-0.4-0.26-0.88-0.26-1.43v-3.97h-1.9V25z"/>
						<path class="st3" d="M148.48,33v-1.07h2.78v-5.86h-2.78V25h4.05v6.93h2.72V33H148.48z M150.81,22.73
							c0-0.29,0.1-0.54,0.29-0.74c0.19-0.21,0.44-0.31,0.74-0.31c0.31,0,0.57,0.1,0.78,0.31s0.31,0.46,0.31,0.74
							c0,0.28-0.1,0.51-0.31,0.7c-0.21,0.19-0.47,0.29-0.78,0.29c-0.3,0-0.54-0.1-0.74-0.29C150.91,23.24,150.81,23.01,150.81,22.73
							z"/>
						<path class="st3" d="M157.31,29c0-1.29,0.34-2.31,1.01-3.06c0.67-0.75,1.63-1.13,2.88-1.13c0.67,0,1.25,0.11,1.74,0.33
							c0.49,0.22,0.89,0.51,1.21,0.89c0.32,0.37,0.56,0.82,0.71,1.33c0.15,0.51,0.23,1.06,0.23,1.65c0,0.64-0.09,1.22-0.26,1.74
							c-0.17,0.52-0.42,0.96-0.75,1.32c-0.33,0.36-0.74,0.64-1.22,0.84c-0.49,0.2-1.04,0.3-1.66,0.3c-0.66,0-1.24-0.11-1.73-0.33
							c-0.49-0.22-0.9-0.51-1.22-0.89c-0.32-0.37-0.56-0.82-0.71-1.33C157.39,30.14,157.31,29.59,157.31,29z M158.64,29
							c0,0.37,0.04,0.75,0.14,1.12s0.24,0.71,0.44,1.01c0.2,0.3,0.46,0.54,0.79,0.72c0.32,0.18,0.72,0.27,1.19,0.27
							c0.85,0,1.49-0.26,1.92-0.79s0.65-1.3,0.65-2.33c0-0.38-0.04-0.76-0.14-1.13c-0.09-0.37-0.24-0.7-0.45-1
							c-0.21-0.3-0.47-0.54-0.8-0.72c-0.32-0.18-0.72-0.27-1.19-0.27c-0.85,0-1.49,0.26-1.91,0.78S158.64,27.97,158.64,29z"/>
						<path class="st3" d="M167.49,27.8c0-0.1,0-0.22-0.01-0.38c-0.01-0.15-0.01-0.31-0.02-0.48c-0.01-0.17-0.02-0.33-0.04-0.49
							s-0.03-0.3-0.06-0.42h-1.07V25h2.14l0.14,1.3h0.08c0.11-0.18,0.25-0.36,0.42-0.54c0.18-0.18,0.38-0.34,0.62-0.48
							c0.23-0.14,0.5-0.26,0.78-0.34c0.29-0.08,0.59-0.13,0.91-0.13c0.49,0,0.93,0.05,1.3,0.16c0.38,0.11,0.69,0.3,0.94,0.57
							c0.25,0.27,0.44,0.64,0.57,1.1s0.19,1.05,0.19,1.77V33h-1.26v-4.34c0-0.88-0.14-1.55-0.43-2c-0.29-0.45-0.81-0.67-1.56-0.67
							c-0.28,0-0.54,0.06-0.81,0.17c-0.26,0.11-0.5,0.26-0.71,0.44s-0.4,0.39-0.56,0.63c-0.16,0.24-0.28,0.49-0.35,0.76V33h-1.23
							V27.8z"/>
					</g>
					<g class="st2">
						<path class="st3" d="M230.6,11.91c0.41-0.1,0.84-0.16,1.31-0.19c0.47-0.03,0.93-0.05,1.39-0.05c0.49,0,0.99,0.05,1.5,0.14
							c0.51,0.1,0.97,0.27,1.38,0.53s0.75,0.61,1.02,1.06c0.26,0.45,0.39,1.02,0.39,1.71c0,0.68-0.12,1.26-0.37,1.73
							c-0.25,0.47-0.57,0.85-0.98,1.14c-0.41,0.29-0.87,0.5-1.39,0.63c-0.52,0.13-1.06,0.19-1.62,0.19c-0.05,0-0.14,0-0.26,0
							c-0.12,0-0.25,0-0.38-0.01c-0.13,0-0.26-0.01-0.39-0.02s-0.22-0.02-0.27-0.03V23h-1.33V11.91z M233.34,12.82
							c-0.28,0-0.55,0-0.8,0.02s-0.46,0.04-0.61,0.08v4.64c0.05,0.02,0.14,0.04,0.26,0.04c0.12,0.01,0.24,0.01,0.37,0.02
							c0.13,0,0.25,0.01,0.37,0.01c0.12,0,0.2,0,0.26,0c0.36,0,0.73-0.03,1.08-0.1c0.36-0.07,0.68-0.19,0.97-0.38
							c0.29-0.18,0.52-0.44,0.7-0.77c0.18-0.33,0.26-0.75,0.26-1.26c0-0.44-0.08-0.8-0.25-1.1c-0.17-0.29-0.39-0.53-0.66-0.7
							c-0.27-0.18-0.58-0.3-0.92-0.38C234.03,12.86,233.68,12.82,233.34,12.82z"/>
						<path class="st3" d="M240.33,15.62c0.46-0.27,0.98-0.46,1.55-0.58c0.58-0.12,1.14-0.18,1.7-0.18c0.54,0,0.99,0.08,1.34,0.26
							c0.35,0.17,0.62,0.39,0.82,0.66s0.33,0.58,0.4,0.93c0.07,0.35,0.1,0.7,0.1,1.05c0,0.41-0.01,0.84-0.03,1.3
							c-0.02,0.46-0.04,0.92-0.05,1.38c0,0.53,0.03,1.04,0.1,1.52h1.07V23h-2.11l-0.14-1.2h-0.08c-0.06,0.1-0.16,0.22-0.29,0.37
							s-0.3,0.3-0.5,0.44c-0.21,0.14-0.46,0.27-0.76,0.38s-0.65,0.16-1.06,0.16c-0.79,0-1.42-0.2-1.88-0.61
							c-0.46-0.41-0.69-0.96-0.69-1.66c0-0.54,0.12-1,0.36-1.36c0.24-0.36,0.59-0.64,1.04-0.83c0.45-0.19,0.99-0.3,1.63-0.34
							c0.64-0.03,1.35,0.01,2.14,0.13c0.05-0.49,0.06-0.9,0.02-1.22c-0.04-0.33-0.12-0.58-0.26-0.78c-0.13-0.19-0.32-0.33-0.56-0.41
							c-0.24-0.08-0.54-0.12-0.89-0.12c-0.48,0-0.94,0.07-1.38,0.2c-0.44,0.13-0.83,0.27-1.17,0.41L240.33,15.62z M242.7,22.07
							c0.3,0,0.58-0.05,0.83-0.14c0.26-0.1,0.48-0.22,0.67-0.37c0.19-0.15,0.35-0.31,0.48-0.49s0.22-0.34,0.29-0.5v-1.12
							c-0.55-0.1-1.07-0.14-1.54-0.14c-0.47,0-0.88,0.05-1.22,0.15c-0.34,0.1-0.61,0.26-0.8,0.47c-0.19,0.21-0.29,0.49-0.29,0.83
							c0,0.35,0.12,0.66,0.36,0.92C241.73,21.94,242.13,22.07,242.7,22.07z"/>
						<path class="st3" d="M249.26,23v-1.07h2.16v-5.86h-2.16V15h2.99l0.26,1.04h0.08c0.36-0.33,0.77-0.61,1.22-0.85
							c0.45-0.24,0.98-0.35,1.6-0.35c0.36,0,0.65,0.07,0.87,0.21s0.39,0.34,0.51,0.61c0.12,0.27,0.21,0.59,0.25,0.97
							s0.06,0.81,0.06,1.29l-1.12,0.02c0-0.68-0.07-1.17-0.2-1.49c-0.13-0.32-0.38-0.48-0.73-0.48c-0.33,0-0.63,0.05-0.9,0.14
							c-0.27,0.1-0.5,0.21-0.7,0.35c-0.2,0.14-0.37,0.28-0.5,0.41c-0.14,0.14-0.24,0.26-0.3,0.35v4.71h3.07V23H249.26z"/>
						<path class="st3" d="M258.3,15h1.9v-1.58l1.26-0.35V15h4.27v1.07h-4.27v3.78c0,0.78,0.19,1.36,0.57,1.73
							c0.38,0.37,0.92,0.56,1.62,0.56c0.48,0,0.9-0.09,1.25-0.27c0.36-0.18,0.68-0.38,0.96-0.59l0.41,0.94
							c-0.37,0.3-0.82,0.54-1.34,0.72c-0.52,0.18-1.05,0.27-1.59,0.27c-0.43,0-0.83-0.06-1.21-0.18c-0.38-0.12-0.71-0.31-1-0.57
							c-0.29-0.26-0.52-0.58-0.69-0.98c-0.17-0.4-0.26-0.88-0.26-1.43v-3.97h-1.9V15z"/>
						<path class="st3" d="M268.89,17.8c0-0.1,0-0.22-0.01-0.38c0-0.15-0.01-0.31-0.02-0.48c-0.01-0.17-0.02-0.33-0.04-0.49
							s-0.03-0.3-0.06-0.42h-1.07V15h2.14l0.14,1.3h0.08c0.11-0.18,0.25-0.36,0.42-0.54c0.18-0.18,0.38-0.34,0.62-0.48
							c0.23-0.14,0.5-0.26,0.78-0.34c0.29-0.08,0.59-0.13,0.91-0.13c0.49,0,0.93,0.05,1.3,0.16c0.38,0.11,0.69,0.3,0.94,0.57
							c0.25,0.27,0.44,0.64,0.57,1.1s0.19,1.05,0.19,1.77V23h-1.26v-4.34c0-0.88-0.14-1.55-0.43-2c-0.29-0.45-0.81-0.67-1.56-0.67
							c-0.28,0-0.54,0.06-0.81,0.17c-0.26,0.11-0.5,0.26-0.71,0.44c-0.21,0.18-0.4,0.39-0.56,0.63s-0.28,0.49-0.35,0.76V23h-1.23
							V17.8z"/>
						<path class="st3" d="M285.46,21.99c-0.19,0.17-0.42,0.33-0.68,0.48s-0.55,0.28-0.86,0.38c-0.31,0.11-0.63,0.19-0.97,0.25
							s-0.67,0.09-1.02,0.09c-0.64,0-1.21-0.1-1.7-0.3c-0.49-0.2-0.9-0.48-1.23-0.85c-0.33-0.37-0.58-0.81-0.75-1.32
							c-0.17-0.51-0.26-1.09-0.26-1.73c0-0.67,0.09-1.27,0.28-1.79c0.19-0.52,0.46-0.96,0.81-1.31c0.35-0.35,0.78-0.62,1.28-0.81
							s1.06-0.28,1.68-0.28c0.45,0,0.89,0.06,1.33,0.18s0.82,0.34,1.16,0.66c0.34,0.33,0.59,0.77,0.78,1.34
							c0.18,0.57,0.25,1.31,0.19,2.22h-6.18c0,0.96,0.26,1.68,0.77,2.15s1.21,0.71,2.07,0.71c0.29,0,0.57-0.04,0.85-0.1
							c0.28-0.07,0.55-0.15,0.81-0.25c0.25-0.1,0.48-0.2,0.68-0.32s0.35-0.22,0.46-0.32L285.46,21.99z M282.09,15.86
							c-0.35,0-0.68,0.04-1,0.11c-0.31,0.08-0.59,0.2-0.83,0.38c-0.24,0.18-0.44,0.41-0.59,0.69s-0.25,0.63-0.29,1.05h4.96
							c-0.05-0.7-0.28-1.25-0.68-1.64S282.74,15.86,282.09,15.86z"/>
						<path class="st3" d="M287.66,23v-1.07h2.16v-5.86h-2.16V15h2.99l0.26,1.04h0.08c0.36-0.33,0.77-0.61,1.22-0.85
							c0.45-0.24,0.98-0.35,1.6-0.35c0.36,0,0.65,0.07,0.87,0.21s0.39,0.34,0.51,0.61c0.12,0.27,0.21,0.59,0.25,0.97
							c0.04,0.38,0.06,0.81,0.06,1.29l-1.12,0.02c0-0.68-0.07-1.17-0.2-1.49c-0.13-0.32-0.38-0.48-0.73-0.48
							c-0.33,0-0.63,0.05-0.9,0.14s-0.5,0.21-0.7,0.35c-0.2,0.14-0.37,0.28-0.5,0.41c-0.14,0.14-0.24,0.26-0.3,0.35v4.71h3.07V23
							H287.66z"/>
						<path class="st3" d="M312.82,16.23c-0.25-0.09-0.51-0.16-0.79-0.22c-0.28-0.06-0.56-0.09-0.84-0.09
							c-1.05,0-1.82,0.25-2.34,0.74c-0.51,0.49-0.77,1.27-0.77,2.34c0,0.47,0.07,0.89,0.22,1.26s0.36,0.68,0.64,0.94
							s0.61,0.45,1,0.59c0.39,0.14,0.82,0.21,1.29,0.21c0.5,0,0.99-0.09,1.46-0.26c0.47-0.17,0.87-0.4,1.19-0.68l0.56,0.93
							c-0.15,0.13-0.34,0.26-0.56,0.4c-0.22,0.14-0.48,0.27-0.78,0.39c-0.29,0.12-0.62,0.22-0.98,0.3
							c-0.36,0.07-0.74,0.11-1.16,0.11c-0.69,0-1.3-0.1-1.83-0.3c-0.53-0.2-0.97-0.48-1.32-0.85c-0.35-0.37-0.62-0.81-0.8-1.33
							c-0.18-0.52-0.27-1.09-0.27-1.72c0-0.67,0.09-1.27,0.28-1.79c0.19-0.52,0.46-0.96,0.81-1.31c0.35-0.35,0.78-0.62,1.28-0.81
							c0.5-0.19,1.06-0.28,1.68-0.28c0.79,0,1.43,0.07,1.93,0.21c0.5,0.14,0.92,0.29,1.26,0.46l-0.02,0.05v2.22h-1.15V16.23z"/>
						<path class="st3" d="M316.31,19c0-1.29,0.34-2.31,1.01-3.06c0.67-0.75,1.63-1.13,2.88-1.13c0.67,0,1.25,0.11,1.74,0.33
							c0.49,0.22,0.89,0.51,1.21,0.89c0.32,0.37,0.56,0.82,0.71,1.33c0.15,0.51,0.23,1.06,0.23,1.65c0,0.64-0.08,1.22-0.26,1.74
							c-0.17,0.52-0.42,0.96-0.75,1.32c-0.33,0.36-0.74,0.64-1.22,0.84c-0.49,0.2-1.04,0.3-1.66,0.3c-0.66,0-1.24-0.11-1.73-0.33
							c-0.49-0.22-0.9-0.51-1.22-0.89c-0.32-0.37-0.56-0.82-0.71-1.33C316.39,20.14,316.31,19.59,316.31,19z M317.64,19
							c0,0.37,0.04,0.75,0.13,1.12c0.09,0.37,0.24,0.71,0.44,1.01c0.2,0.3,0.46,0.54,0.79,0.72c0.32,0.18,0.72,0.27,1.19,0.27
							c0.85,0,1.49-0.26,1.92-0.79s0.65-1.3,0.65-2.33c0-0.38-0.04-0.76-0.13-1.13c-0.09-0.37-0.24-0.7-0.45-1s-0.47-0.54-0.8-0.72
							s-0.72-0.27-1.19-0.27c-0.85,0-1.49,0.26-1.91,0.78S317.64,17.97,317.64,19z"/>
						<path class="st3" d="M326.49,17.8c0-0.1,0-0.22-0.01-0.38c-0.01-0.15-0.01-0.31-0.02-0.48c-0.01-0.17-0.02-0.33-0.04-0.49
							c-0.02-0.16-0.03-0.3-0.06-0.42h-1.07V15h2.14l0.14,1.3h0.08c0.11-0.18,0.25-0.36,0.42-0.54s0.38-0.34,0.62-0.48
							c0.24-0.14,0.5-0.26,0.78-0.34c0.29-0.08,0.59-0.13,0.91-0.13c0.49,0,0.93,0.05,1.3,0.16c0.38,0.11,0.69,0.3,0.94,0.57
							c0.25,0.27,0.44,0.64,0.57,1.1c0.13,0.46,0.19,1.05,0.19,1.77V23h-1.26v-4.34c0-0.88-0.14-1.55-0.43-2
							c-0.29-0.45-0.81-0.67-1.56-0.67c-0.28,0-0.54,0.06-0.81,0.17c-0.26,0.11-0.5,0.26-0.71,0.44s-0.4,0.39-0.56,0.63
							c-0.16,0.24-0.28,0.49-0.35,0.76V23h-1.23V17.8z"/>
						<path class="st3" d="M336.09,17.8c0-0.1,0-0.22-0.01-0.38c0-0.15-0.01-0.31-0.02-0.48c-0.01-0.17-0.02-0.33-0.04-0.49
							s-0.03-0.3-0.06-0.42h-1.07V15h2.14l0.14,1.3h0.08c0.11-0.18,0.25-0.36,0.42-0.54c0.18-0.18,0.38-0.34,0.62-0.48
							c0.23-0.14,0.5-0.26,0.78-0.34c0.29-0.08,0.59-0.13,0.91-0.13c0.49,0,0.93,0.05,1.3,0.16c0.38,0.11,0.69,0.3,0.94,0.57
							c0.25,0.27,0.44,0.64,0.57,1.1s0.19,1.05,0.19,1.77V23h-1.26v-4.34c0-0.88-0.14-1.55-0.43-2c-0.29-0.45-0.81-0.67-1.56-0.67
							c-0.28,0-0.54,0.06-0.81,0.17c-0.26,0.11-0.5,0.26-0.71,0.44c-0.21,0.18-0.4,0.39-0.56,0.63s-0.28,0.49-0.35,0.76V23h-1.23
							V17.8z"/>
						<path class="st3" d="M352.66,21.99c-0.19,0.17-0.42,0.33-0.68,0.48s-0.55,0.28-0.86,0.38c-0.31,0.11-0.63,0.19-0.97,0.25
							s-0.67,0.09-1.02,0.09c-0.64,0-1.21-0.1-1.7-0.3c-0.49-0.2-0.9-0.48-1.23-0.85c-0.33-0.37-0.58-0.81-0.75-1.32
							c-0.17-0.51-0.26-1.09-0.26-1.73c0-0.67,0.09-1.27,0.28-1.79c0.19-0.52,0.46-0.96,0.81-1.31c0.35-0.35,0.78-0.62,1.28-0.81
							s1.06-0.28,1.68-0.28c0.45,0,0.89,0.06,1.33,0.18s0.82,0.34,1.16,0.66c0.34,0.33,0.59,0.77,0.78,1.34
							c0.18,0.57,0.25,1.31,0.19,2.22h-6.18c0,0.96,0.26,1.68,0.77,2.15s1.21,0.71,2.07,0.71c0.29,0,0.57-0.04,0.85-0.1
							c0.28-0.07,0.55-0.15,0.81-0.25c0.25-0.1,0.48-0.2,0.68-0.32s0.35-0.22,0.46-0.32L352.66,21.99z M349.29,15.86
							c-0.35,0-0.68,0.04-1,0.11c-0.31,0.08-0.59,0.2-0.83,0.38c-0.24,0.18-0.44,0.41-0.59,0.69s-0.25,0.63-0.29,1.05h4.96
							c-0.05-0.7-0.28-1.25-0.68-1.64S349.94,15.86,349.29,15.86z"/>
						<path class="st3" d="M360.82,16.23c-0.25-0.09-0.51-0.16-0.79-0.22c-0.28-0.06-0.56-0.09-0.84-0.09
							c-1.04,0-1.82,0.25-2.34,0.74s-0.77,1.27-0.77,2.34c0,0.47,0.07,0.89,0.22,1.26c0.15,0.37,0.36,0.68,0.64,0.94
							s0.61,0.45,1,0.59c0.39,0.14,0.82,0.21,1.29,0.21c0.5,0,0.99-0.09,1.46-0.26c0.47-0.17,0.87-0.4,1.19-0.68l0.56,0.93
							c-0.15,0.13-0.34,0.26-0.56,0.4c-0.22,0.14-0.48,0.27-0.78,0.39c-0.29,0.12-0.62,0.22-0.97,0.3
							c-0.36,0.07-0.74,0.11-1.16,0.11c-0.69,0-1.3-0.1-1.83-0.3c-0.53-0.2-0.97-0.48-1.32-0.85s-0.62-0.81-0.8-1.33
							c-0.18-0.52-0.27-1.09-0.27-1.72c0-0.67,0.09-1.27,0.28-1.79s0.46-0.96,0.81-1.31c0.35-0.35,0.78-0.62,1.28-0.81
							s1.06-0.28,1.68-0.28c0.79,0,1.43,0.07,1.93,0.21c0.5,0.14,0.91,0.29,1.26,0.46l-0.02,0.05v2.22h-1.15V16.23z"/>
						<path class="st3" d="M363.89,15h1.9v-1.58l1.26-0.35V15h4.27v1.07h-4.27v3.78c0,0.78,0.19,1.36,0.57,1.73s0.92,0.56,1.62,0.56
							c0.48,0,0.9-0.09,1.25-0.27c0.36-0.18,0.68-0.38,0.96-0.59l0.42,0.94c-0.37,0.3-0.82,0.54-1.34,0.72
							c-0.52,0.18-1.05,0.27-1.59,0.27c-0.43,0-0.83-0.06-1.21-0.18c-0.38-0.12-0.71-0.31-1-0.57c-0.29-0.26-0.52-0.58-0.69-0.98
							c-0.17-0.4-0.26-0.88-0.26-1.43v-3.97h-1.9V15z"/>
						<path class="st3" d="M374.68,23v-1.07h2.78v-5.86h-2.78V15h4.05v6.93h2.72V23H374.68z M377.01,12.73
							c0-0.29,0.1-0.54,0.29-0.74c0.19-0.21,0.44-0.31,0.74-0.31c0.31,0,0.57,0.1,0.78,0.31c0.21,0.21,0.31,0.46,0.31,0.74
							c0,0.28-0.1,0.51-0.31,0.7c-0.21,0.19-0.47,0.29-0.78,0.29c-0.3,0-0.54-0.1-0.74-0.29C377.11,13.24,377.01,13.01,377.01,12.73
							z"/>
						<path class="st3" d="M383.51,19c0-1.29,0.34-2.31,1.01-3.06c0.67-0.75,1.63-1.13,2.88-1.13c0.67,0,1.25,0.11,1.74,0.33
							c0.49,0.22,0.89,0.51,1.21,0.89c0.32,0.37,0.56,0.82,0.71,1.33c0.15,0.51,0.23,1.06,0.23,1.65c0,0.64-0.08,1.22-0.26,1.74
							c-0.17,0.52-0.42,0.96-0.75,1.32c-0.33,0.36-0.74,0.64-1.22,0.84c-0.49,0.2-1.04,0.3-1.66,0.3c-0.66,0-1.24-0.11-1.73-0.33
							c-0.49-0.22-0.9-0.51-1.22-0.89c-0.32-0.37-0.56-0.82-0.71-1.33C383.59,20.14,383.51,19.59,383.51,19z M384.84,19
							c0,0.37,0.04,0.75,0.13,1.12c0.09,0.37,0.24,0.71,0.44,1.01c0.2,0.3,0.46,0.54,0.79,0.72c0.32,0.18,0.72,0.27,1.19,0.27
							c0.85,0,1.49-0.26,1.92-0.79s0.65-1.3,0.65-2.33c0-0.38-0.04-0.76-0.13-1.13c-0.09-0.37-0.24-0.7-0.45-1s-0.47-0.54-0.8-0.72
							s-0.72-0.27-1.19-0.27c-0.85,0-1.49,0.26-1.91,0.78S384.84,17.97,384.84,19z"/>
						<path class="st3" d="M393.69,17.8c0-0.1,0-0.22-0.01-0.38c-0.01-0.15-0.01-0.31-0.02-0.48c-0.01-0.17-0.02-0.33-0.04-0.49
							s-0.04-0.3-0.06-0.42h-1.07V15h2.14l0.14,1.3h0.08c0.11-0.18,0.25-0.36,0.42-0.54s0.38-0.34,0.62-0.48
							c0.24-0.14,0.5-0.26,0.79-0.34c0.29-0.08,0.59-0.13,0.91-0.13c0.49,0,0.92,0.05,1.3,0.16c0.38,0.11,0.69,0.3,0.95,0.57
							c0.25,0.27,0.44,0.64,0.57,1.1s0.19,1.05,0.19,1.77V23h-1.26v-4.34c0-0.88-0.14-1.55-0.43-2c-0.29-0.45-0.81-0.67-1.56-0.67
							c-0.28,0-0.54,0.06-0.8,0.17c-0.26,0.11-0.5,0.26-0.71,0.44c-0.21,0.18-0.4,0.39-0.56,0.63c-0.16,0.24-0.28,0.49-0.35,0.76V23
							h-1.23V17.8z"/>
						<path class="st3" d="M408.79,20.84c0-0.34-0.13-0.61-0.4-0.79s-0.6-0.34-0.99-0.45c-0.39-0.11-0.82-0.22-1.29-0.31
							s-0.89-0.22-1.28-0.38s-0.72-0.38-0.99-0.65c-0.27-0.27-0.4-0.65-0.4-1.14c0-0.41,0.09-0.75,0.26-1.04s0.41-0.53,0.7-0.71
							s0.62-0.33,1.01-0.42c0.38-0.09,0.78-0.14,1.2-0.14c0.75,0,1.39,0.09,1.93,0.28s0.97,0.38,1.29,0.58l-0.51,1.01
							c-0.35-0.19-0.73-0.38-1.14-0.55c-0.41-0.18-0.92-0.26-1.54-0.26c-0.23,0-0.46,0.02-0.69,0.07c-0.23,0.05-0.44,0.12-0.62,0.22
							c-0.19,0.1-0.33,0.22-0.45,0.38c-0.11,0.15-0.17,0.34-0.17,0.57c0,0.28,0.13,0.49,0.4,0.64c0.27,0.15,0.6,0.27,0.99,0.38
							c0.39,0.1,0.82,0.2,1.28,0.29s0.89,0.22,1.29,0.39c0.39,0.17,0.72,0.4,0.99,0.69c0.27,0.29,0.4,0.68,0.4,1.17
							c0,0.74-0.29,1.34-0.87,1.82c-0.58,0.48-1.45,0.72-2.62,0.72c-0.35,0-0.7-0.03-1.04-0.1c-0.34-0.06-0.66-0.15-0.96-0.26
							c-0.3-0.11-0.57-0.23-0.82-0.36c-0.25-0.13-0.45-0.27-0.61-0.41l0.64-1.04c0.13,0.13,0.3,0.26,0.51,0.39
							c0.21,0.13,0.45,0.25,0.7,0.36s0.53,0.19,0.82,0.26c0.29,0.06,0.59,0.1,0.88,0.1c0.29,0,0.56-0.02,0.81-0.07
							c0.25-0.05,0.47-0.12,0.66-0.22s0.34-0.23,0.46-0.4C408.73,21.27,408.79,21.08,408.79,20.84z"/>
					</g>
					<g id="settings" transform="translate(30.000000, 14.000000)">
						<g class="st2">
							<path class="st5" d="M200.52,23.98h-1.14v-0.64h1.14v-1.86c0-0.34,0.08-0.61,0.25-0.81c0.17-0.2,0.43-0.3,0.79-0.3h1.17v0.64
								h-1.47v2.33h1.47v0.64h-1.47V30h-0.74V23.98z"/>
							<path class="st5" d="M206.54,30.16c-0.44,0-0.84-0.08-1.2-0.23s-0.66-0.38-0.91-0.68c-0.25-0.3-0.45-0.67-0.58-1.1
								c-0.14-0.43-0.21-0.92-0.21-1.47s0.07-1.03,0.21-1.46c0.14-0.43,0.33-0.79,0.58-1.09c0.25-0.3,0.55-0.53,0.91-0.69
								s0.75-0.24,1.2-0.24s0.84,0.08,1.2,0.24s0.66,0.39,0.91,0.69c0.25,0.3,0.45,0.66,0.58,1.09c0.14,0.43,0.21,0.92,0.21,1.46
								s-0.07,1.04-0.21,1.47c-0.14,0.43-0.33,0.8-0.58,1.1c-0.25,0.3-0.55,0.53-0.91,0.68S206.98,30.16,206.54,30.16z
								 M206.54,29.49c0.65,0,1.16-0.2,1.54-0.61s0.57-1,0.57-1.79v-0.83c0-0.78-0.19-1.38-0.57-1.79
								c-0.38-0.41-0.89-0.62-1.54-0.62c-0.65,0-1.16,0.2-1.54,0.61s-0.57,1.01-0.57,1.79v0.83c0,0.78,0.19,1.38,0.57,1.79
								C205.38,29.29,205.89,29.49,206.54,29.49z"/>
							<path class="st5" d="M211.32,30v-6.66h0.74v1.2h0.05c0.13-0.31,0.35-0.59,0.66-0.83c0.31-0.24,0.75-0.36,1.33-0.36h0.44v0.73
								h-0.58c-0.55,0-1.01,0.12-1.37,0.36c-0.36,0.24-0.53,0.58-0.53,1.01V30H211.32z"/>
							<path class="st5" d="M221.37,30.16c-0.92,0-1.63-0.3-2.13-0.91s-0.75-1.46-0.75-2.57s0.25-1.97,0.75-2.57
								c0.5-0.61,1.21-0.91,2.13-0.91c0.62,0,1.11,0.13,1.49,0.4c0.38,0.27,0.67,0.62,0.87,1.07l-0.62,0.31
								c-0.16-0.36-0.38-0.64-0.66-0.83c-0.28-0.19-0.64-0.29-1.08-0.29c-0.68,0-1.19,0.22-1.55,0.65s-0.53,1-0.53,1.7v0.94
								c0,0.7,0.18,1.27,0.53,1.7c0.36,0.43,0.87,0.65,1.55,0.65c0.46,0,0.84-0.1,1.16-0.3c0.31-0.2,0.56-0.49,0.75-0.86l0.55,0.36
								c-0.22,0.44-0.53,0.79-0.93,1.06C222.5,30.02,221.99,30.16,221.37,30.16z"/>
							<path class="st5" d="M226.3,30c-0.27,0-0.47-0.07-0.61-0.22s-0.21-0.34-0.21-0.58v-8.81h0.74v8.98h1.03V30H226.3z"/>
							<path class="st5" d="M231.28,30.16c-0.44,0-0.84-0.08-1.2-0.23s-0.66-0.38-0.91-0.68c-0.25-0.3-0.45-0.67-0.58-1.1
								c-0.14-0.43-0.21-0.92-0.21-1.47s0.07-1.03,0.21-1.46c0.14-0.43,0.33-0.79,0.58-1.09c0.25-0.3,0.55-0.53,0.91-0.69
								s0.75-0.24,1.2-0.24s0.84,0.08,1.2,0.24s0.66,0.39,0.91,0.69c0.25,0.3,0.45,0.66,0.58,1.09c0.14,0.43,0.21,0.92,0.21,1.46
								s-0.07,1.04-0.21,1.47c-0.14,0.43-0.33,0.8-0.58,1.1c-0.25,0.3-0.55,0.53-0.91,0.68S231.72,30.16,231.28,30.16z
								 M231.28,29.49c0.65,0,1.16-0.2,1.54-0.61s0.57-1,0.57-1.79v-0.83c0-0.78-0.19-1.38-0.57-1.79
								c-0.38-0.41-0.89-0.62-1.54-0.62c-0.65,0-1.16,0.2-1.54,0.61s-0.57,1.01-0.57,1.79v0.83c0,0.78,0.19,1.38,0.57,1.79
								C230.12,29.29,230.63,29.49,231.28,29.49z"/>
							<path class="st5" d="M240.22,28.95h-0.05c-0.06,0.16-0.14,0.31-0.25,0.46s-0.23,0.27-0.39,0.38s-0.34,0.2-0.55,0.27
								s-0.46,0.1-0.75,0.1c-0.71,0-1.26-0.22-1.66-0.66c-0.4-0.44-0.6-1.06-0.6-1.88v-4.28h0.74v4.13c0,0.69,0.15,1.19,0.44,1.52
								s0.72,0.49,1.27,0.49c0.23,0,0.46-0.03,0.67-0.09c0.21-0.06,0.4-0.15,0.57-0.27c0.17-0.12,0.3-0.28,0.4-0.46
								c0.1-0.19,0.15-0.41,0.15-0.66v-4.67h0.74V30h-0.74V28.95z"/>
							<path class="st5" d="M247.68,28.93h-0.04c-0.17,0.37-0.43,0.67-0.76,0.89c-0.33,0.22-0.76,0.33-1.27,0.33
								c-0.86,0-1.53-0.3-2.02-0.91s-0.73-1.46-0.73-2.57s0.24-1.97,0.73-2.57c0.49-0.61,1.16-0.91,2.02-0.91
								c0.51,0,0.94,0.11,1.27,0.33s0.59,0.52,0.75,0.89h0.04v-4.03h0.74V30h-0.74V28.93z M245.79,29.49c0.26,0,0.51-0.04,0.74-0.1
								s0.43-0.17,0.6-0.3c0.17-0.13,0.31-0.29,0.41-0.48s0.15-0.4,0.15-0.63v-2.64c0-0.22-0.05-0.42-0.15-0.6
								c-0.1-0.18-0.24-0.34-0.41-0.47c-0.17-0.13-0.38-0.23-0.6-0.3c-0.23-0.07-0.47-0.11-0.74-0.11c-0.67,0-1.19,0.21-1.56,0.64
								c-0.37,0.42-0.56,1-0.56,1.72v0.94c0,0.72,0.19,1.29,0.56,1.72C244.6,29.28,245.12,29.49,245.79,29.49z"/>
							<path class="st5" d="M258.49,30c-0.29,0-0.49-0.07-0.62-0.22c-0.13-0.15-0.21-0.35-0.22-0.6v-0.23h-0.07
								c-0.15,0.37-0.39,0.67-0.73,0.88s-0.77,0.33-1.29,0.33c-0.7,0-1.24-0.17-1.62-0.52c-0.38-0.34-0.57-0.83-0.57-1.45
								c0-0.59,0.21-1.06,0.63-1.41c0.42-0.35,1.11-0.52,2.07-0.52h1.53v-0.78c0-1.1-0.57-1.65-1.7-1.65
								c-0.44,0-0.81,0.09-1.11,0.28s-0.53,0.45-0.71,0.8l-0.47-0.39c0.18-0.39,0.46-0.71,0.84-0.95c0.38-0.25,0.87-0.37,1.48-0.37
								c0.78,0,1.38,0.2,1.79,0.59s0.62,0.94,0.62,1.64v3.95h0.9V30H258.49z M255.67,29.52c0.27,0,0.52-0.03,0.75-0.1
								c0.23-0.07,0.44-0.17,0.62-0.29c0.18-0.13,0.32-0.28,0.42-0.46c0.1-0.18,0.15-0.38,0.15-0.61v-1.24h-1.56
								c-0.67,0-1.15,0.11-1.45,0.32c-0.3,0.21-0.45,0.51-0.45,0.88v0.31c0,0.39,0.14,0.69,0.42,0.89S255.21,29.52,255.67,29.52z"/>
							<path class="st5" d="M260.76,30v-6.66h0.74v1.05h0.04c0.15-0.35,0.38-0.63,0.69-0.87c0.31-0.23,0.74-0.34,1.27-0.34
								c0.71,0,1.26,0.22,1.66,0.66s0.59,1.06,0.59,1.88V30h-0.74v-4.15c0-0.68-0.15-1.18-0.44-1.51c-0.29-0.33-0.71-0.49-1.27-0.49
								c-0.23,0-0.46,0.03-0.68,0.09c-0.22,0.06-0.41,0.15-0.58,0.27c-0.17,0.12-0.3,0.28-0.4,0.46s-0.15,0.4-0.15,0.64V30H260.76z"
								/>
							<path class="st5" d="M272.38,28.93h-0.04c-0.17,0.37-0.43,0.67-0.76,0.89c-0.33,0.22-0.76,0.33-1.27,0.33
								c-0.86,0-1.53-0.3-2.01-0.91s-0.73-1.46-0.73-2.57s0.24-1.97,0.73-2.57c0.49-0.61,1.16-0.91,2.01-0.91
								c0.51,0,0.94,0.11,1.27,0.33c0.34,0.22,0.59,0.52,0.75,0.89h0.04v-4.03h0.74V30h-0.74V28.93z M270.49,29.49
								c0.26,0,0.5-0.04,0.74-0.1c0.23-0.07,0.43-0.17,0.6-0.3c0.17-0.13,0.31-0.29,0.41-0.48s0.15-0.4,0.15-0.63v-2.64
								c0-0.22-0.05-0.42-0.15-0.6c-0.1-0.18-0.24-0.34-0.41-0.47c-0.17-0.13-0.38-0.23-0.6-0.3c-0.23-0.07-0.47-0.11-0.74-0.11
								c-0.67,0-1.19,0.21-1.56,0.64s-0.56,1-0.56,1.72v0.94c0,0.72,0.19,1.29,0.56,1.72C269.3,29.28,269.82,29.49,270.49,29.49z"/>
							<path class="st5" d="M278.61,20.38h0.74v4.02h0.04c0.15-0.35,0.38-0.63,0.69-0.87c0.31-0.23,0.74-0.34,1.27-0.34
								c0.71,0,1.26,0.22,1.66,0.66s0.59,1.06,0.59,1.88V30h-0.74v-4.15c0-0.68-0.14-1.18-0.44-1.51c-0.29-0.33-0.71-0.49-1.27-0.49
								c-0.23,0-0.46,0.03-0.68,0.09s-0.41,0.15-0.58,0.27c-0.17,0.12-0.3,0.28-0.4,0.46s-0.15,0.4-0.15,0.64V30h-0.74V20.38z"/>
							<path class="st5" d="M290.51,30c-0.29,0-0.49-0.07-0.62-0.22c-0.13-0.15-0.2-0.35-0.22-0.6v-0.23h-0.06
								c-0.15,0.37-0.39,0.67-0.73,0.88s-0.77,0.33-1.29,0.33c-0.7,0-1.24-0.17-1.62-0.52c-0.38-0.34-0.57-0.83-0.57-1.45
								c0-0.59,0.21-1.06,0.63-1.41c0.42-0.35,1.11-0.52,2.07-0.52h1.53v-0.78c0-1.1-0.57-1.65-1.7-1.65
								c-0.44,0-0.81,0.09-1.11,0.28c-0.29,0.19-0.53,0.45-0.71,0.8l-0.47-0.39c0.18-0.39,0.46-0.71,0.84-0.95
								c0.38-0.25,0.87-0.37,1.48-0.37c0.78,0,1.38,0.2,1.79,0.59s0.62,0.94,0.62,1.64v3.95h0.9V30H290.51z M287.68,29.52
								c0.27,0,0.52-0.03,0.75-0.1c0.23-0.07,0.44-0.17,0.62-0.29c0.18-0.13,0.32-0.28,0.42-0.46c0.1-0.18,0.15-0.38,0.15-0.61
								v-1.24h-1.56c-0.67,0-1.15,0.11-1.45,0.32c-0.3,0.21-0.45,0.51-0.45,0.88v0.31c0,0.39,0.14,0.69,0.42,0.89
								S287.22,29.52,287.68,29.52z"/>
							<path class="st5" d="M292.78,30v-6.66h0.74v1.2h0.05c0.13-0.31,0.35-0.59,0.66-0.83c0.31-0.24,0.75-0.36,1.33-0.36H296v0.73
								h-0.58c-0.55,0-1.01,0.12-1.37,0.36c-0.36,0.24-0.53,0.58-0.53,1.01V30H292.78z"/>
							<path class="st5" d="M301.67,28.93h-0.04c-0.17,0.37-0.43,0.67-0.76,0.89c-0.33,0.22-0.76,0.33-1.27,0.33
								c-0.86,0-1.53-0.3-2.02-0.91s-0.73-1.46-0.73-2.57s0.24-1.97,0.73-2.57c0.49-0.61,1.16-0.91,2.02-0.91
								c0.51,0,0.94,0.11,1.27,0.33s0.59,0.52,0.75,0.89h0.04v-4.03h0.74V30h-0.74V28.93z M299.77,29.49c0.26,0,0.51-0.04,0.74-0.1
								s0.43-0.17,0.6-0.3c0.17-0.13,0.31-0.29,0.41-0.48s0.15-0.4,0.15-0.63v-2.64c0-0.22-0.05-0.42-0.15-0.6
								c-0.1-0.18-0.24-0.34-0.41-0.47c-0.17-0.13-0.38-0.23-0.6-0.3c-0.23-0.07-0.47-0.11-0.74-0.11c-0.67,0-1.19,0.21-1.56,0.64
								c-0.37,0.42-0.56,1-0.56,1.72v0.94c0,0.72,0.19,1.29,0.56,1.72C298.59,29.28,299.11,29.49,299.77,29.49z"/>
							<path class="st5" d="M304.05,23.34h0.73l1.6,5.99h0.03l1.77-5.99h0.69l1.78,5.99h0.03l1.59-5.99h0.71L311.1,30h-0.91
								l-1.68-5.6h-0.03l-1.66,5.6h-0.9L304.05,23.34z"/>
							<path class="st5" d="M319.07,30c-0.29,0-0.49-0.07-0.62-0.22s-0.2-0.35-0.22-0.6v-0.23h-0.06c-0.15,0.37-0.39,0.67-0.73,0.88
								s-0.77,0.33-1.29,0.33c-0.7,0-1.24-0.17-1.62-0.52c-0.38-0.34-0.57-0.83-0.57-1.45c0-0.59,0.21-1.06,0.63-1.41
								c0.42-0.35,1.11-0.52,2.07-0.52h1.53v-0.78c0-1.1-0.57-1.65-1.7-1.65c-0.44,0-0.81,0.09-1.11,0.28
								c-0.29,0.19-0.53,0.45-0.71,0.8l-0.47-0.39c0.18-0.39,0.46-0.71,0.84-0.95c0.38-0.25,0.87-0.37,1.48-0.37
								c0.78,0,1.38,0.2,1.79,0.59s0.62,0.94,0.62,1.64v3.95h0.9V30H319.07z M316.25,29.52c0.27,0,0.52-0.03,0.75-0.1
								c0.23-0.07,0.44-0.17,0.62-0.29c0.18-0.13,0.32-0.28,0.42-0.46c0.1-0.18,0.15-0.38,0.15-0.61v-1.24h-1.56
								c-0.67,0-1.15,0.11-1.45,0.32c-0.3,0.21-0.45,0.51-0.45,0.88v0.31c0,0.39,0.14,0.69,0.42,0.89S315.79,29.52,316.25,29.52z"/>
							<path class="st5" d="M321.34,30v-6.66h0.74v1.2h0.05c0.13-0.31,0.35-0.59,0.66-0.83c0.31-0.24,0.75-0.36,1.33-0.36h0.44v0.73
								h-0.58c-0.55,0-1.01,0.12-1.37,0.36c-0.36,0.24-0.53,0.58-0.53,1.01V30H321.34z"/>
							<path class="st5" d="M328.32,30.16c-0.44,0-0.84-0.08-1.2-0.23s-0.67-0.38-0.92-0.68s-0.45-0.67-0.58-1.1
								c-0.13-0.43-0.2-0.92-0.2-1.47s0.07-1.03,0.2-1.46c0.13-0.43,0.33-0.79,0.58-1.09s0.56-0.53,0.92-0.69s0.75-0.24,1.2-0.24
								c0.42,0,0.81,0.08,1.16,0.24c0.35,0.16,0.64,0.38,0.88,0.67s0.43,0.63,0.57,1.04c0.13,0.4,0.2,0.85,0.2,1.34v0.35h-4.93v0.33
								c0,0.35,0.05,0.67,0.15,0.96c0.1,0.29,0.24,0.54,0.43,0.75s0.41,0.37,0.68,0.49c0.27,0.12,0.57,0.17,0.91,0.17
								c0.97,0,1.64-0.45,2.01-1.34l0.55,0.36c-0.21,0.49-0.54,0.88-0.98,1.17S328.96,30.16,328.32,30.16z M328.31,23.83
								c-0.32,0-0.61,0.06-0.87,0.18c-0.26,0.12-0.48,0.28-0.67,0.49s-0.33,0.46-0.43,0.75c-0.1,0.29-0.15,0.61-0.15,0.96v0.06h4.12
								v-0.1c0-0.35-0.05-0.67-0.14-0.96c-0.1-0.29-0.23-0.54-0.41-0.73s-0.39-0.36-0.64-0.47
								C328.88,23.88,328.6,23.83,328.31,23.83z"/>
							<path class="st5" d="M336.07,23.34h0.74v1.07h0.04c0.16-0.37,0.42-0.67,0.75-0.89s0.76-0.33,1.27-0.33
								c0.86,0,1.53,0.3,2.01,0.91c0.49,0.61,0.73,1.46,0.73,2.57s-0.24,1.97-0.73,2.57s-1.16,0.91-2.01,0.91
								c-0.51,0-0.93-0.11-1.26-0.33c-0.33-0.22-0.59-0.52-0.77-0.89h-0.04v3.67h-0.74V23.34z M338.71,29.49
								c0.67,0,1.19-0.21,1.56-0.64c0.37-0.42,0.56-1,0.56-1.72V26.2c0-0.72-0.19-1.29-0.56-1.72c-0.37-0.42-0.89-0.64-1.56-0.64
								c-0.26,0-0.5,0.04-0.73,0.11c-0.23,0.07-0.43,0.17-0.61,0.3c-0.17,0.13-0.31,0.29-0.41,0.47c-0.1,0.18-0.15,0.38-0.15,0.6
								v2.64c0,0.23,0.05,0.44,0.15,0.63s0.24,0.35,0.41,0.48c0.17,0.13,0.38,0.24,0.61,0.3C338.2,29.46,338.45,29.49,338.71,29.49z
								"/>
							<path class="st5" d="M348.11,30c-0.29,0-0.49-0.07-0.62-0.22c-0.13-0.15-0.21-0.35-0.22-0.6v-0.23h-0.07
								c-0.15,0.37-0.39,0.67-0.73,0.88s-0.77,0.33-1.29,0.33c-0.7,0-1.24-0.17-1.62-0.52c-0.38-0.34-0.57-0.83-0.57-1.45
								c0-0.59,0.21-1.06,0.63-1.41c0.42-0.35,1.11-0.52,2.07-0.52h1.53v-0.78c0-1.1-0.57-1.65-1.7-1.65
								c-0.44,0-0.81,0.09-1.11,0.28s-0.53,0.45-0.71,0.8l-0.47-0.39c0.18-0.39,0.46-0.71,0.84-0.95c0.38-0.25,0.87-0.37,1.48-0.37
								c0.78,0,1.38,0.2,1.79,0.59s0.62,0.94,0.62,1.64v3.95h0.9V30H348.11z M345.29,29.52c0.27,0,0.52-0.03,0.75-0.1
								c0.23-0.07,0.44-0.17,0.62-0.29c0.18-0.13,0.32-0.28,0.42-0.46c0.1-0.18,0.15-0.38,0.15-0.61v-1.24h-1.56
								c-0.67,0-1.15,0.11-1.45,0.32c-0.3,0.21-0.45,0.51-0.45,0.88v0.31c0,0.39,0.14,0.69,0.42,0.89S344.83,29.52,345.29,29.52z"/>
							<path class="st5" d="M350.38,30v-6.66h0.74v1.2h0.05c0.13-0.31,0.35-0.59,0.66-0.83c0.31-0.24,0.75-0.36,1.33-0.36h0.44v0.73
								h-0.59c-0.55,0-1.01,0.12-1.37,0.36c-0.36,0.24-0.53,0.58-0.53,1.01V30H350.38z"/>
							<path class="st5" d="M356.27,30c-0.27,0-0.47-0.07-0.61-0.22s-0.21-0.35-0.21-0.6v-5.2h-1.16v-0.64h0.75
								c0.18,0,0.31-0.04,0.37-0.11c0.06-0.07,0.1-0.21,0.1-0.4v-1.35h0.68v1.86h1.51v0.64h-1.51v5.38h1.4V30H356.27z"/>
							<path class="st5" d="M359.48,30v-6.66h0.74v1.05h0.04c0.15-0.35,0.38-0.63,0.69-0.87c0.31-0.23,0.74-0.34,1.27-0.34
								c0.71,0,1.26,0.22,1.66,0.66s0.59,1.06,0.59,1.88V30h-0.74v-4.15c0-0.68-0.15-1.18-0.44-1.51c-0.29-0.33-0.71-0.49-1.27-0.49
								c-0.23,0-0.46,0.03-0.68,0.09c-0.22,0.06-0.41,0.15-0.58,0.27c-0.17,0.12-0.3,0.28-0.4,0.46s-0.15,0.4-0.15,0.64V30H359.48z"
								/>
							<path class="st5" d="M369.18,30.16c-0.44,0-0.84-0.08-1.2-0.23c-0.36-0.16-0.67-0.38-0.92-0.68s-0.45-0.67-0.58-1.1
								c-0.13-0.43-0.2-0.92-0.2-1.47s0.07-1.03,0.2-1.46c0.13-0.43,0.33-0.79,0.58-1.09s0.56-0.53,0.92-0.69s0.75-0.24,1.2-0.24
								c0.42,0,0.81,0.08,1.16,0.24c0.35,0.16,0.64,0.38,0.88,0.67c0.24,0.29,0.43,0.63,0.56,1.04s0.2,0.85,0.2,1.34v0.35h-4.93
								v0.33c0,0.35,0.05,0.67,0.15,0.96c0.1,0.29,0.24,0.54,0.43,0.75c0.19,0.21,0.41,0.37,0.68,0.49
								c0.27,0.12,0.57,0.17,0.91,0.17c0.97,0,1.64-0.45,2.02-1.34l0.55,0.36c-0.21,0.49-0.54,0.88-0.98,1.17
								S369.81,30.16,369.18,30.16z M369.17,23.83c-0.32,0-0.61,0.06-0.87,0.18c-0.26,0.12-0.48,0.28-0.67,0.49
								c-0.19,0.21-0.33,0.46-0.43,0.75c-0.1,0.29-0.15,0.61-0.15,0.96v0.06h4.12v-0.1c0-0.35-0.05-0.67-0.14-0.96
								c-0.1-0.29-0.23-0.54-0.41-0.73s-0.39-0.36-0.64-0.47C369.73,23.88,369.46,23.83,369.17,23.83z"/>
							<path class="st5" d="M373.86,30v-6.66h0.74v1.2h0.05c0.13-0.31,0.35-0.59,0.66-0.83c0.31-0.24,0.75-0.36,1.33-0.36h0.44v0.73
								h-0.58c-0.55,0-1.01,0.12-1.37,0.36c-0.36,0.24-0.53,0.58-0.53,1.01V30H373.86z"/>
							<path class="st5" d="M380.39,30.16c-0.58,0-1.08-0.11-1.49-0.33s-0.77-0.53-1.07-0.95l0.55-0.43
								c0.28,0.36,0.58,0.63,0.91,0.81c0.33,0.17,0.71,0.26,1.16,0.26c0.51,0,0.91-0.11,1.18-0.32s0.42-0.53,0.42-0.94
								c0-0.36-0.11-0.63-0.32-0.84c-0.21-0.2-0.56-0.34-1.05-0.41l-0.55-0.09c-0.3-0.04-0.58-0.11-0.83-0.2
								c-0.25-0.09-0.47-0.2-0.64-0.35s-0.32-0.33-0.42-0.54c-0.1-0.21-0.15-0.47-0.15-0.77c0-0.31,0.06-0.58,0.17-0.82
								c0.12-0.23,0.28-0.43,0.47-0.58c0.2-0.16,0.44-0.27,0.72-0.35c0.28-0.08,0.58-0.12,0.9-0.12c0.55,0,1.01,0.09,1.36,0.29
								c0.36,0.19,0.66,0.44,0.91,0.74l-0.49,0.46c-0.17-0.21-0.41-0.4-0.7-0.58s-0.67-0.27-1.12-0.27c-0.48,0-0.85,0.1-1.11,0.31
								s-0.4,0.5-0.4,0.88c0,0.39,0.12,0.67,0.36,0.84c0.24,0.17,0.6,0.3,1.07,0.38l0.53,0.08c0.68,0.1,1.18,0.31,1.5,0.6
								s0.49,0.72,0.49,1.25c0,0.62-0.21,1.11-0.63,1.46C381.7,29.98,381.12,30.16,380.39,30.16z"/>
						</g>
						<path id="Path" class="st6" d="M11.68,0c-1.09,0-2.01,0.81-2.26,1.9C6.9,2.43,4.59,3.84,2.89,5.94C1.02,8.21,0,11.14,0,14.17
							C0,14.63,0.35,15,0.77,15s0.77-0.37,0.77-0.83c0-2.63,0.89-5.16,2.5-7.14C5.5,5.25,7.44,4.04,9.57,3.55
							c0.37,0.84,1.17,1.43,2.1,1.43c1.28,0,2.32-1.12,2.32-2.49S12.96,0,11.68,0z"/>
						<path id="Shape" class="st6" d="M18.67,11.99c-0.19-0.14-0.55-0.36-0.8-0.48l-0.4-1.04c0.1-0.27,0.21-0.7,0.25-0.95
							c0.05-0.27-0.04-0.54-0.22-0.74L16.4,7.61c-0.18-0.19-0.44-0.28-0.69-0.23c-0.23,0.04-0.63,0.16-0.88,0.27l-0.97-0.43
							c-0.11-0.26-0.31-0.65-0.45-0.86C13.27,6.13,13.03,6,12.77,6h-1.55c-0.25,0-0.49,0.13-0.64,0.36
							c-0.13,0.2-0.34,0.58-0.45,0.86L9.17,7.65C8.92,7.54,8.52,7.42,8.28,7.38C8.03,7.33,7.78,7.42,7.6,7.61L6.5,8.78
							C6.32,8.98,6.24,9.25,6.29,9.52c0.04,0.24,0.15,0.67,0.25,0.95l-0.4,1.04c-0.25,0.11-0.61,0.34-0.8,0.48
							C5.12,12.14,5,12.4,5,12.67v1.66c0,0.27,0.12,0.53,0.33,0.68c0.19,0.14,0.55,0.36,0.8,0.48l0.4,1.04
							c-0.1,0.27-0.21,0.7-0.25,0.95c-0.05,0.27,0.04,0.54,0.22,0.74l1.09,1.17c0.18,0.19,0.44,0.28,0.69,0.23
							c0.23-0.04,0.63-0.16,0.88-0.27l0.97,0.43c0.11,0.26,0.31,0.65,0.45,0.86c0.15,0.22,0.38,0.36,0.64,0.36h1.55
							c0.25,0,0.49-0.13,0.64-0.36c0.13-0.2,0.34-0.58,0.45-0.86l0.97-0.43c0.25,0.11,0.65,0.22,0.88,0.27
							c0.25,0.05,0.51-0.04,0.69-0.23l1.09-1.17c0.18-0.19,0.26-0.47,0.22-0.74c-0.04-0.24-0.15-0.67-0.25-0.95l0.4-1.04
							c0.25-0.11,0.61-0.34,0.8-0.48C18.88,14.86,19,14.6,19,14.33v-1.66C19,12.4,18.88,12.14,18.67,11.99z M12,16.83
							c-1.72,0-3.11-1.5-3.11-3.33s1.4-3.33,3.11-3.33s3.11,1.5,3.11,3.33S13.72,16.83,12,16.83z"/>
						<path id="Path_1_" class="st6" d="M23.23,13c-0.43,0-0.77,0.37-0.77,0.83c0,2.63-0.89,5.16-2.5,7.14
							c-1.45,1.77-3.39,2.99-5.52,3.47c-0.37-0.84-1.17-1.43-2.1-1.43c-1.28,0-2.32,1.12-2.32,2.49c0,1.37,1.04,2.49,2.32,2.49
							c1.09,0,2.01-0.81,2.26-1.9c2.52-0.53,4.82-1.95,6.53-4.04c1.86-2.28,2.89-5.2,2.89-8.23C24,13.37,23.65,13,23.23,13z"/>
					</g>
				</g>
				<g id="opens" transform="translate(24.000000, 184.000000)">
					<path id="Rectangle-Copy-20_2_" class="st1" d="M4,0h197c2.21,0,4,1.79,4,4v48c0,2.21-1.79,4-4,4H4c-2.21,0-4-1.79-4-4V4
						C0,1.79,1.79,0,4,0z"/>
					<g class="st2">
						<path class="st3" d="M67.77,27.4c0-1.86,0.33-3.29,0.98-4.29c0.65-1,1.66-1.5,3.03-1.5c0.75,0,1.38,0.14,1.89,0.42
							c0.52,0.28,0.93,0.67,1.25,1.18c0.32,0.51,0.55,1.11,0.69,1.82c0.14,0.71,0.21,1.5,0.21,2.38c0,1.86-0.33,3.29-0.98,4.29
							c-0.65,1-1.67,1.5-3.06,1.5c-0.73,0-1.36-0.14-1.87-0.42c-0.51-0.28-0.93-0.67-1.25-1.18c-0.32-0.51-0.55-1.11-0.69-1.82
							C67.84,29.07,67.77,28.27,67.77,27.4z M69.16,27.4c0,0.62,0.04,1.21,0.12,1.76s0.22,1.04,0.43,1.46
							c0.2,0.42,0.47,0.76,0.8,1.01c0.33,0.25,0.75,0.38,1.27,0.38c0.92,0,1.59-0.37,2.01-1.12c0.42-0.75,0.63-1.91,0.63-3.49
							c0-0.61-0.04-1.19-0.12-1.75c-0.08-0.56-0.22-1.05-0.43-1.47c-0.2-0.42-0.48-0.76-0.82-1.01c-0.34-0.25-0.77-0.38-1.28-0.38
							c-0.91,0-1.57,0.38-1.99,1.13C69.37,24.67,69.16,25.83,69.16,27.4z"/>
						<path class="st3" d="M78.14,27.8c0-0.1,0-0.22-0.01-0.38c-0.01-0.15-0.01-0.31-0.02-0.48c-0.01-0.17-0.02-0.33-0.04-0.49
							c-0.02-0.16-0.03-0.3-0.06-0.42h-1.07V25h2.13l0.16,1.12h0.08c0.29-0.37,0.65-0.69,1.1-0.94c0.44-0.25,0.98-0.38,1.62-0.38
							c1.14,0,2,0.32,2.58,0.94c0.58,0.63,0.86,1.66,0.86,3.09c0,0.67-0.1,1.28-0.3,1.82c-0.2,0.54-0.48,0.99-0.84,1.37
							c-0.36,0.37-0.8,0.66-1.31,0.86c-0.51,0.2-1.08,0.3-1.7,0.3c-0.22,0-0.42-0.01-0.6-0.02c-0.18-0.02-0.34-0.04-0.48-0.06
							c-0.14-0.03-0.29-0.06-0.42-0.1s-0.29-0.1-0.45-0.16v3.36h-1.23V27.8z M81.82,25.99c-0.32,0-0.62,0.06-0.9,0.18
							c-0.28,0.12-0.53,0.27-0.75,0.46c-0.22,0.19-0.4,0.41-0.54,0.64c-0.14,0.23-0.22,0.47-0.26,0.7v3.64
							c0.23,0.16,0.5,0.28,0.79,0.38c0.29,0.09,0.68,0.14,1.16,0.14c0.85,0,1.54-0.28,2.05-0.84c0.51-0.56,0.77-1.38,0.77-2.45
							c0-0.9-0.18-1.6-0.54-2.1C83.24,26.24,82.65,25.99,81.82,25.99z"/>
						<path class="st3" d="M94.66,31.99c-0.19,0.17-0.42,0.33-0.68,0.48c-0.26,0.15-0.55,0.28-0.86,0.38
							c-0.31,0.11-0.63,0.19-0.97,0.25s-0.67,0.09-1.02,0.09c-0.64,0-1.21-0.1-1.7-0.3c-0.49-0.2-0.9-0.48-1.23-0.85
							c-0.33-0.37-0.58-0.81-0.75-1.32c-0.17-0.51-0.26-1.09-0.26-1.73c0-0.67,0.09-1.27,0.28-1.79c0.19-0.52,0.46-0.96,0.81-1.31
							c0.35-0.35,0.78-0.62,1.28-0.81s1.06-0.28,1.68-0.28c0.45,0,0.89,0.06,1.33,0.18s0.82,0.34,1.16,0.66
							c0.34,0.33,0.59,0.77,0.78,1.34c0.18,0.57,0.25,1.31,0.19,2.22h-6.18c0,0.96,0.26,1.68,0.77,2.15
							c0.52,0.47,1.21,0.71,2.07,0.71c0.29,0,0.57-0.04,0.85-0.1c0.28-0.07,0.55-0.15,0.81-0.25c0.25-0.1,0.48-0.2,0.68-0.32
							c0.2-0.12,0.35-0.22,0.45-0.32L94.66,31.99z M91.29,25.86c-0.35,0-0.68,0.04-1,0.11c-0.31,0.08-0.59,0.2-0.83,0.38
							c-0.24,0.18-0.44,0.41-0.59,0.69c-0.15,0.28-0.25,0.63-0.3,1.05h4.96c-0.05-0.7-0.28-1.25-0.68-1.64S91.94,25.86,91.29,25.86z
							"/>
						<path class="st3" d="M97.29,27.8c0-0.1,0-0.22-0.01-0.38c-0.01-0.15-0.01-0.31-0.02-0.48c-0.01-0.17-0.02-0.33-0.04-0.49
							s-0.03-0.3-0.06-0.42h-1.07V25h2.14l0.14,1.3h0.08c0.11-0.18,0.25-0.36,0.42-0.54c0.18-0.18,0.38-0.34,0.62-0.48
							c0.23-0.14,0.5-0.26,0.78-0.34c0.29-0.08,0.59-0.13,0.91-0.13c0.49,0,0.93,0.05,1.3,0.16c0.38,0.11,0.69,0.3,0.94,0.57
							c0.25,0.27,0.44,0.64,0.57,1.1s0.19,1.05,0.19,1.77V33h-1.26v-4.34c0-0.88-0.14-1.55-0.43-2c-0.29-0.45-0.81-0.67-1.56-0.67
							c-0.28,0-0.54,0.06-0.81,0.17c-0.26,0.11-0.5,0.26-0.71,0.44s-0.4,0.39-0.56,0.63c-0.16,0.24-0.28,0.49-0.35,0.76V33h-1.23
							V27.8z"/>
						<path class="st3" d="M117.4,31.42c0.32,0.17,0.68,0.31,1.08,0.42s0.8,0.17,1.21,0.17c0.35,0,0.68-0.03,0.99-0.1
							c0.31-0.07,0.58-0.18,0.81-0.34c0.23-0.16,0.41-0.35,0.54-0.58c0.13-0.24,0.2-0.51,0.2-0.83c0-0.44-0.15-0.79-0.44-1.07
							s-0.66-0.52-1.1-0.74c-0.44-0.21-0.91-0.42-1.42-0.62c-0.51-0.2-0.99-0.44-1.42-0.72c-0.44-0.28-0.8-0.62-1.1-1.02
							c-0.29-0.4-0.44-0.91-0.44-1.53c0-0.44,0.09-0.83,0.26-1.18c0.18-0.35,0.42-0.65,0.74-0.9c0.32-0.25,0.71-0.43,1.16-0.57
							c0.45-0.13,0.96-0.2,1.51-0.2c0.64,0,1.22,0.04,1.74,0.14s0.94,0.21,1.25,0.36l0.03-0.02v0.03h0.02l-0.02,0.05v2.56h-1.18
							v-1.71c-0.27-0.06-0.56-0.12-0.88-0.16c-0.32-0.04-0.66-0.06-1.02-0.06c-0.35,0-0.67,0.04-0.95,0.13
							c-0.28,0.09-0.52,0.2-0.72,0.34c-0.2,0.14-0.35,0.31-0.46,0.5c-0.11,0.19-0.16,0.4-0.16,0.61c0,0.42,0.15,0.76,0.44,1.04
							c0.29,0.28,0.66,0.53,1.1,0.74s0.91,0.43,1.42,0.65c0.51,0.21,0.99,0.46,1.42,0.74c0.44,0.28,0.8,0.62,1.1,1.02
							c0.29,0.39,0.44,0.88,0.44,1.47c0,0.48-0.09,0.91-0.26,1.3c-0.18,0.38-0.43,0.71-0.75,0.99c-0.33,0.28-0.73,0.49-1.2,0.64
							c-0.48,0.15-1.01,0.22-1.61,0.22c-0.41,0-0.79-0.03-1.15-0.1c-0.36-0.06-0.7-0.14-1-0.24c-0.3-0.1-0.58-0.2-0.82-0.3
							c-0.24-0.11-0.43-0.2-0.57-0.27l0.02-0.05v-2.59h1.18V31.42z"/>
						<path class="st3" d="M125.51,29c0-1.29,0.34-2.31,1.01-3.06c0.67-0.75,1.63-1.13,2.88-1.13c0.67,0,1.25,0.11,1.74,0.33
							c0.49,0.22,0.89,0.51,1.21,0.89c0.32,0.37,0.56,0.82,0.71,1.33c0.15,0.51,0.23,1.06,0.23,1.65c0,0.64-0.09,1.22-0.26,1.74
							c-0.17,0.52-0.42,0.96-0.75,1.32c-0.33,0.36-0.74,0.64-1.22,0.84c-0.49,0.2-1.04,0.3-1.66,0.3c-0.66,0-1.24-0.11-1.73-0.33
							c-0.49-0.22-0.9-0.51-1.22-0.89c-0.32-0.37-0.56-0.82-0.71-1.33C125.59,30.14,125.51,29.59,125.51,29z M126.84,29
							c0,0.37,0.04,0.75,0.14,1.12s0.24,0.71,0.44,1.01c0.2,0.3,0.46,0.54,0.79,0.72c0.32,0.18,0.72,0.27,1.19,0.27
							c0.85,0,1.49-0.26,1.92-0.79s0.65-1.3,0.65-2.33c0-0.38-0.04-0.76-0.14-1.13c-0.09-0.37-0.24-0.7-0.45-1
							c-0.21-0.3-0.47-0.54-0.8-0.72c-0.32-0.18-0.72-0.27-1.19-0.27c-0.85,0-1.49,0.26-1.91,0.78S126.84,27.97,126.84,29z"/>
						<path class="st3" d="M139.99,25h2.29v5.46c0,0.52,0.03,1.02,0.1,1.5h1.07V33h-2.14l-0.05-1.36h-0.06
							c-0.28,0.46-0.64,0.83-1.1,1.12s-1.01,0.43-1.66,0.43c-0.49,0-0.91-0.06-1.25-0.17c-0.35-0.11-0.63-0.31-0.85-0.58
							s-0.39-0.65-0.49-1.11s-0.16-1.04-0.16-1.74v-3.52h-1.07V25h2.34v4.34c0,0.44,0.02,0.83,0.06,1.18s0.11,0.64,0.23,0.88
							c0.12,0.24,0.29,0.42,0.52,0.54c0.23,0.12,0.53,0.18,0.91,0.18c0.55,0,1.03-0.18,1.44-0.54c0.41-0.36,0.72-0.82,0.93-1.36
							v-4.14h-1.02V25z"/>
						<path class="st3" d="M144.85,33v-1.07h2.16v-5.86h-2.16V25h2.99l0.26,1.04h0.08c0.36-0.33,0.77-0.61,1.22-0.85
							c0.45-0.24,0.98-0.35,1.6-0.35c0.36,0,0.65,0.07,0.87,0.21s0.39,0.34,0.51,0.61s0.21,0.59,0.25,0.97
							c0.04,0.38,0.06,0.81,0.06,1.29l-1.12,0.02c0-0.68-0.07-1.17-0.2-1.49c-0.13-0.32-0.38-0.48-0.73-0.48
							c-0.33,0-0.63,0.05-0.9,0.14c-0.27,0.1-0.5,0.21-0.7,0.35c-0.2,0.14-0.37,0.28-0.5,0.41c-0.14,0.14-0.24,0.26-0.3,0.35v4.71
							h3.07V33H144.85z"/>
						<path class="st3" d="M160.42,26.23c-0.25-0.09-0.51-0.16-0.79-0.22c-0.28-0.06-0.56-0.09-0.84-0.09
							c-1.05,0-1.82,0.25-2.34,0.74c-0.51,0.49-0.77,1.27-0.77,2.34c0,0.47,0.07,0.89,0.22,1.26c0.15,0.37,0.36,0.68,0.64,0.94
							s0.61,0.45,1,0.59c0.39,0.14,0.82,0.21,1.29,0.21c0.5,0,0.99-0.09,1.46-0.26c0.47-0.17,0.87-0.4,1.19-0.68l0.56,0.93
							c-0.15,0.13-0.34,0.26-0.56,0.4c-0.22,0.14-0.48,0.27-0.78,0.39s-0.62,0.22-0.98,0.3c-0.36,0.07-0.74,0.11-1.16,0.11
							c-0.69,0-1.3-0.1-1.83-0.3c-0.53-0.2-0.97-0.48-1.32-0.85c-0.35-0.37-0.62-0.81-0.8-1.33c-0.18-0.52-0.27-1.09-0.27-1.72
							c0-0.67,0.09-1.27,0.28-1.79c0.19-0.52,0.46-0.96,0.81-1.31c0.35-0.35,0.78-0.62,1.28-0.81c0.5-0.19,1.06-0.28,1.68-0.28
							c0.79,0,1.43,0.07,1.93,0.21c0.5,0.14,0.91,0.29,1.26,0.46l-0.02,0.05v2.22h-1.15V26.23z"/>
						<path class="st3" d="M171.46,31.99c-0.19,0.17-0.42,0.33-0.68,0.48c-0.26,0.15-0.55,0.28-0.86,0.38
							c-0.31,0.11-0.63,0.19-0.97,0.25s-0.67,0.09-1.02,0.09c-0.64,0-1.21-0.1-1.7-0.3c-0.49-0.2-0.9-0.48-1.23-0.85
							c-0.33-0.37-0.58-0.81-0.75-1.32c-0.17-0.51-0.26-1.09-0.26-1.73c0-0.67,0.09-1.27,0.28-1.79c0.19-0.52,0.46-0.96,0.81-1.31
							c0.35-0.35,0.78-0.62,1.28-0.81s1.06-0.28,1.68-0.28c0.45,0,0.89,0.06,1.33,0.18s0.82,0.34,1.16,0.66
							c0.34,0.33,0.59,0.77,0.78,1.34c0.18,0.57,0.25,1.31,0.19,2.22h-6.18c0,0.96,0.26,1.68,0.77,2.15
							c0.52,0.47,1.21,0.71,2.07,0.71c0.29,0,0.57-0.04,0.85-0.1c0.28-0.07,0.55-0.15,0.81-0.25c0.25-0.1,0.48-0.2,0.68-0.32
							c0.2-0.12,0.35-0.22,0.45-0.32L171.46,31.99z M168.09,25.86c-0.35,0-0.68,0.04-1,0.11c-0.31,0.08-0.59,0.2-0.83,0.38
							c-0.24,0.18-0.44,0.41-0.59,0.69c-0.15,0.28-0.25,0.63-0.3,1.05h4.96c-0.05-0.7-0.28-1.25-0.68-1.64
							S168.74,25.86,168.09,25.86z"/>
					</g>
					<g class="st2">
						<path class="st3" d="M229.77,27.4c0-1.86,0.33-3.29,0.98-4.29s1.66-1.5,3.03-1.5c0.75,0,1.38,0.14,1.89,0.42
							c0.52,0.28,0.93,0.67,1.25,1.18c0.32,0.51,0.55,1.11,0.69,1.82c0.14,0.71,0.21,1.5,0.21,2.38c0,1.86-0.33,3.29-0.98,4.29
							c-0.65,1-1.67,1.5-3.06,1.5c-0.73,0-1.36-0.14-1.87-0.42c-0.51-0.28-0.93-0.67-1.25-1.18c-0.32-0.51-0.55-1.11-0.69-1.82
							C229.84,29.07,229.77,28.27,229.77,27.4z M231.16,27.4c0,0.62,0.04,1.21,0.12,1.76s0.22,1.04,0.42,1.46
							c0.2,0.42,0.47,0.76,0.8,1.01c0.33,0.25,0.75,0.38,1.27,0.38c0.92,0,1.59-0.37,2.01-1.12c0.42-0.75,0.63-1.91,0.63-3.49
							c0-0.61-0.04-1.19-0.12-1.75c-0.08-0.56-0.22-1.05-0.42-1.47c-0.2-0.42-0.48-0.76-0.82-1.01c-0.34-0.25-0.77-0.38-1.28-0.38
							c-0.91,0-1.57,0.38-1.99,1.13C231.37,24.67,231.16,25.83,231.16,27.4z"/>
						<path class="st3" d="M245.62,26.23c-0.25-0.09-0.51-0.16-0.79-0.22c-0.28-0.06-0.56-0.09-0.84-0.09
							c-1.05,0-1.82,0.25-2.34,0.74c-0.51,0.49-0.77,1.27-0.77,2.34c0,0.47,0.07,0.89,0.22,1.26s0.36,0.68,0.64,0.94
							s0.61,0.45,1,0.59c0.39,0.14,0.82,0.21,1.29,0.21c0.5,0,0.99-0.09,1.46-0.26c0.47-0.17,0.87-0.4,1.19-0.68l0.56,0.93
							c-0.15,0.13-0.34,0.26-0.56,0.4c-0.22,0.14-0.48,0.27-0.78,0.39c-0.29,0.12-0.62,0.22-0.98,0.3
							c-0.36,0.07-0.74,0.11-1.16,0.11c-0.69,0-1.3-0.1-1.83-0.3c-0.53-0.2-0.97-0.48-1.32-0.85c-0.35-0.37-0.62-0.81-0.8-1.33
							c-0.18-0.52-0.27-1.09-0.27-1.72c0-0.67,0.09-1.27,0.28-1.79c0.19-0.52,0.46-0.96,0.81-1.31c0.35-0.35,0.78-0.62,1.28-0.81
							c0.5-0.19,1.06-0.28,1.68-0.28c0.79,0,1.43,0.07,1.93,0.21c0.5,0.14,0.92,0.29,1.26,0.46l-0.02,0.05v2.22h-1.15V26.23z"/>
						<path class="st3" d="M248.58,21.8h2.59v6.62h0.88l3.15-3.42h1.5l-3.54,3.79l2.91,3.14h1.04V33h-1.65l-3.42-3.62h-0.88V33
							h-1.23V22.87h-1.36V21.8z"/>
						<path class="st3" d="M259.53,25.62c0.46-0.27,0.98-0.46,1.55-0.58s1.14-0.18,1.7-0.18c0.54,0,0.99,0.08,1.34,0.26
							c0.35,0.17,0.62,0.39,0.82,0.66s0.33,0.58,0.4,0.93c0.07,0.35,0.1,0.7,0.1,1.05c0,0.41-0.01,0.84-0.03,1.3
							c-0.02,0.46-0.04,0.92-0.05,1.38c0,0.53,0.03,1.04,0.1,1.52h1.07V33h-2.11l-0.14-1.2h-0.08c-0.06,0.1-0.16,0.22-0.29,0.37
							s-0.3,0.3-0.51,0.44c-0.21,0.14-0.46,0.27-0.76,0.38c-0.3,0.11-0.65,0.16-1.06,0.16c-0.79,0-1.42-0.2-1.88-0.61
							c-0.46-0.41-0.69-0.96-0.69-1.66c0-0.54,0.12-1,0.36-1.36c0.24-0.36,0.59-0.64,1.04-0.83c0.45-0.19,0.99-0.3,1.63-0.34
							s1.35,0.01,2.14,0.13c0.05-0.49,0.06-0.9,0.02-1.22s-0.12-0.58-0.26-0.78c-0.13-0.19-0.32-0.33-0.56-0.41
							c-0.24-0.08-0.54-0.12-0.89-0.12c-0.48,0-0.94,0.07-1.38,0.2c-0.44,0.13-0.83,0.27-1.17,0.41L259.53,25.62z M261.9,32.07
							c0.3,0,0.58-0.05,0.83-0.14c0.26-0.1,0.48-0.22,0.67-0.37c0.19-0.15,0.35-0.31,0.48-0.49s0.22-0.34,0.29-0.5v-1.12
							c-0.55-0.1-1.07-0.14-1.54-0.14s-0.88,0.05-1.22,0.15c-0.34,0.1-0.61,0.26-0.8,0.47c-0.19,0.21-0.29,0.49-0.29,0.83
							c0,0.35,0.12,0.66,0.36,0.92C260.93,31.94,261.33,32.07,261.9,32.07z"/>
						<path class="st3" d="M271.59,33v-5.33c0-0.22-0.01-0.44-0.02-0.65s-0.05-0.39-0.11-0.56c-0.06-0.17-0.14-0.3-0.26-0.39
							c-0.11-0.1-0.26-0.14-0.44-0.14c-0.36,0-0.67,0.15-0.92,0.45c-0.25,0.3-0.44,0.67-0.57,1.12V33h-1.22v-8h0.83l0.24,0.98h0.06
							c0.11-0.16,0.21-0.31,0.31-0.46c0.1-0.14,0.22-0.27,0.35-0.38c0.13-0.11,0.29-0.19,0.47-0.25c0.18-0.06,0.41-0.09,0.69-0.09
							c0.16,0,0.33,0.02,0.5,0.07c0.17,0.05,0.33,0.12,0.47,0.22c0.14,0.1,0.27,0.24,0.38,0.41c0.11,0.17,0.18,0.38,0.21,0.62
							c0.25-0.42,0.52-0.74,0.82-0.98s0.72-0.35,1.26-0.35c0.35,0,0.64,0.06,0.86,0.18c0.22,0.12,0.39,0.29,0.51,0.5
							c0.12,0.22,0.21,0.48,0.26,0.78c0.05,0.3,0.07,0.64,0.07,1.02V33h-1.22v-5.44c0-0.22-0.01-0.43-0.03-0.63
							c-0.02-0.2-0.06-0.37-0.12-0.52c-0.06-0.15-0.14-0.27-0.24-0.35c-0.1-0.08-0.24-0.13-0.41-0.13c-0.37,0-0.69,0.15-0.95,0.45
							c-0.26,0.3-0.45,0.73-0.58,1.28V33H271.59z"/>
						<path class="st3" d="M293.62,26.23c-0.25-0.09-0.51-0.16-0.79-0.22c-0.28-0.06-0.56-0.09-0.84-0.09
							c-1.05,0-1.82,0.25-2.34,0.74c-0.51,0.49-0.77,1.27-0.77,2.34c0,0.47,0.07,0.89,0.22,1.26c0.15,0.37,0.36,0.68,0.64,0.94
							s0.61,0.45,1,0.59c0.39,0.14,0.82,0.21,1.29,0.21c0.5,0,0.99-0.09,1.46-0.26c0.47-0.17,0.87-0.4,1.19-0.68l0.56,0.93
							c-0.15,0.13-0.34,0.26-0.56,0.4c-0.22,0.14-0.48,0.27-0.78,0.39s-0.62,0.22-0.98,0.3c-0.36,0.07-0.74,0.11-1.16,0.11
							c-0.69,0-1.3-0.1-1.83-0.3c-0.53-0.2-0.97-0.48-1.32-0.85s-0.62-0.81-0.8-1.33c-0.18-0.52-0.27-1.09-0.27-1.72
							c0-0.67,0.09-1.27,0.28-1.79c0.19-0.52,0.46-0.96,0.81-1.31c0.35-0.35,0.78-0.62,1.28-0.81c0.5-0.19,1.06-0.28,1.68-0.28
							c0.79,0,1.43,0.07,1.93,0.21c0.5,0.14,0.91,0.29,1.26,0.46l-0.02,0.05v2.22h-1.15V26.23z"/>
						<path class="st3" d="M297.11,29c0-1.29,0.34-2.31,1.01-3.06c0.67-0.75,1.63-1.13,2.88-1.13c0.67,0,1.25,0.11,1.74,0.33
							c0.49,0.22,0.89,0.51,1.21,0.89c0.32,0.37,0.56,0.82,0.71,1.33c0.15,0.51,0.23,1.06,0.23,1.65c0,0.64-0.08,1.22-0.26,1.74
							c-0.17,0.52-0.42,0.96-0.75,1.32c-0.33,0.36-0.74,0.64-1.22,0.84c-0.49,0.2-1.04,0.3-1.66,0.3c-0.66,0-1.24-0.11-1.73-0.33
							c-0.49-0.22-0.9-0.51-1.22-0.89c-0.32-0.37-0.56-0.82-0.71-1.33C297.19,30.14,297.11,29.59,297.11,29z M298.44,29
							c0,0.37,0.04,0.75,0.13,1.12c0.09,0.37,0.24,0.71,0.44,1.01c0.2,0.3,0.46,0.54,0.79,0.72c0.32,0.18,0.72,0.27,1.19,0.27
							c0.85,0,1.49-0.26,1.92-0.79s0.65-1.3,0.65-2.33c0-0.38-0.04-0.76-0.13-1.13c-0.09-0.37-0.24-0.7-0.45-1s-0.47-0.54-0.8-0.72
							s-0.72-0.27-1.19-0.27c-0.85,0-1.49,0.26-1.91,0.78S298.44,27.97,298.44,29z"/>
						<path class="st3" d="M306.86,33v-1.07h2.16v-5.86h-2.16V25h2.99l0.26,1.04h0.08c0.36-0.33,0.77-0.61,1.22-0.85
							c0.45-0.24,0.98-0.35,1.6-0.35c0.36,0,0.65,0.07,0.87,0.21s0.39,0.34,0.51,0.61s0.21,0.59,0.25,0.97s0.06,0.81,0.06,1.29
							l-1.12,0.02c0-0.68-0.07-1.17-0.2-1.49c-0.13-0.32-0.38-0.48-0.73-0.48c-0.33,0-0.63,0.05-0.9,0.14s-0.5,0.21-0.7,0.35
							c-0.2,0.14-0.37,0.28-0.5,0.41c-0.14,0.14-0.24,0.26-0.3,0.35v4.71h3.07V33H306.86z"/>
						<path class="st3" d="M323.86,31.99c-0.19,0.17-0.42,0.33-0.68,0.48c-0.26,0.15-0.55,0.28-0.86,0.38
							c-0.31,0.11-0.63,0.19-0.97,0.25s-0.67,0.09-1.02,0.09c-0.64,0-1.21-0.1-1.7-0.3c-0.49-0.2-0.9-0.48-1.23-0.85
							c-0.33-0.37-0.58-0.81-0.75-1.32c-0.17-0.51-0.26-1.09-0.26-1.73c0-0.67,0.09-1.27,0.28-1.79s0.46-0.96,0.81-1.31
							c0.35-0.35,0.78-0.62,1.28-0.81s1.06-0.28,1.68-0.28c0.45,0,0.89,0.06,1.33,0.18s0.82,0.34,1.16,0.66
							c0.34,0.33,0.59,0.77,0.78,1.34s0.25,1.31,0.19,2.22h-6.18c0,0.96,0.26,1.68,0.77,2.15c0.52,0.47,1.21,0.71,2.07,0.71
							c0.29,0,0.57-0.04,0.85-0.1s0.55-0.15,0.81-0.25c0.26-0.1,0.48-0.2,0.68-0.32c0.2-0.12,0.35-0.22,0.45-0.32L323.86,31.99z
							 M320.49,25.86c-0.35,0-0.68,0.04-1,0.11c-0.31,0.08-0.59,0.2-0.83,0.38c-0.24,0.18-0.44,0.41-0.59,0.69
							c-0.15,0.28-0.25,0.63-0.3,1.05h4.96c-0.05-0.7-0.28-1.25-0.68-1.64S321.14,25.86,320.49,25.86z"/>
						<path class="st3" d="M340.17,21.8h2.61v8.46c0,0.1,0,0.22,0.02,0.36c0.01,0.14,0.02,0.3,0.04,0.46
							c0.02,0.16,0.04,0.32,0.06,0.47c0.02,0.16,0.04,0.29,0.06,0.41h1.07V33h-2.14l-0.16-1.23h-0.06
							c-0.23,0.41-0.58,0.74-1.04,1.02c-0.46,0.27-1,0.41-1.6,0.41c-1.2,0-2.09-0.34-2.66-1.02c-0.57-0.68-0.85-1.73-0.85-3.16
							c0-0.67,0.1-1.27,0.29-1.78c0.19-0.52,0.47-0.95,0.82-1.3c0.36-0.35,0.79-0.61,1.29-0.79c0.5-0.18,1.06-0.27,1.68-0.27
							c0.22,0,0.42,0.01,0.6,0.02c0.18,0.01,0.34,0.03,0.49,0.05c0.15,0.02,0.29,0.05,0.42,0.09c0.13,0.04,0.28,0.08,0.44,0.12
							v-2.27h-1.34V21.8z M339.21,32.12c0.65,0,1.16-0.17,1.53-0.5s0.63-0.84,0.77-1.51v-3.71c-0.23-0.16-0.5-0.28-0.79-0.35
							c-0.29-0.07-0.68-0.11-1.16-0.11c-0.85,0-1.52,0.25-2.01,0.74c-0.49,0.5-0.73,1.28-0.73,2.34c0,0.44,0.04,0.85,0.12,1.22
							c0.08,0.38,0.21,0.71,0.4,0.98c0.19,0.28,0.43,0.5,0.74,0.66S338.77,32.12,339.21,32.12z"/>
						<path class="st3" d="M352.66,31.99c-0.19,0.17-0.42,0.33-0.68,0.48s-0.55,0.28-0.86,0.38c-0.31,0.11-0.63,0.19-0.97,0.25
							s-0.67,0.09-1.02,0.09c-0.64,0-1.21-0.1-1.7-0.3c-0.49-0.2-0.9-0.48-1.23-0.85c-0.33-0.37-0.58-0.81-0.75-1.32
							c-0.17-0.51-0.26-1.09-0.26-1.73c0-0.67,0.09-1.27,0.28-1.79c0.19-0.52,0.46-0.96,0.81-1.31c0.35-0.35,0.78-0.62,1.28-0.81
							s1.06-0.28,1.68-0.28c0.45,0,0.89,0.06,1.33,0.18s0.82,0.34,1.16,0.66c0.34,0.33,0.59,0.77,0.78,1.34
							c0.18,0.57,0.25,1.31,0.19,2.22h-6.18c0,0.96,0.26,1.68,0.77,2.15s1.21,0.71,2.07,0.71c0.29,0,0.57-0.04,0.85-0.1
							c0.28-0.07,0.55-0.15,0.81-0.25c0.25-0.1,0.48-0.2,0.68-0.32s0.35-0.22,0.46-0.32L352.66,31.99z M349.29,25.86
							c-0.35,0-0.68,0.04-1,0.11c-0.31,0.08-0.59,0.2-0.83,0.38c-0.24,0.18-0.44,0.41-0.59,0.69s-0.25,0.63-0.29,1.05h4.96
							c-0.05-0.7-0.28-1.25-0.68-1.64S349.94,25.86,349.29,25.86z"/>
						<path class="st3" d="M358.62,31.45h0.17L361.3,25h1.39l-3.38,8h-1.39l-3.44-8h1.47L358.62,31.45z"/>
						<path class="st3" d="M371.86,31.99c-0.19,0.17-0.42,0.33-0.68,0.48s-0.55,0.28-0.86,0.38c-0.31,0.11-0.63,0.19-0.97,0.25
							s-0.67,0.09-1.02,0.09c-0.64,0-1.21-0.1-1.7-0.3c-0.49-0.2-0.9-0.48-1.23-0.85c-0.33-0.37-0.58-0.81-0.75-1.32
							c-0.17-0.51-0.26-1.09-0.26-1.73c0-0.67,0.09-1.27,0.28-1.79c0.19-0.52,0.46-0.96,0.81-1.31c0.35-0.35,0.78-0.62,1.28-0.81
							c0.5-0.19,1.06-0.28,1.68-0.28c0.45,0,0.89,0.06,1.33,0.18s0.82,0.34,1.16,0.66c0.34,0.33,0.6,0.77,0.78,1.34
							c0.18,0.57,0.25,1.31,0.19,2.22h-6.18c0,0.96,0.26,1.68,0.77,2.15s1.21,0.71,2.07,0.71c0.29,0,0.57-0.04,0.85-0.1
							c0.28-0.07,0.55-0.15,0.81-0.25c0.25-0.1,0.48-0.2,0.68-0.32s0.35-0.22,0.46-0.32L371.86,31.99z M368.49,25.86
							c-0.35,0-0.68,0.04-1,0.11c-0.31,0.08-0.59,0.2-0.83,0.38c-0.24,0.18-0.44,0.41-0.59,0.69c-0.15,0.28-0.25,0.63-0.3,1.05h4.96
							c-0.05-0.7-0.28-1.25-0.68-1.64C369.67,26.06,369.14,25.86,368.49,25.86z"/>
						<path class="st3" d="M374.9,21.8h2.67v8.51c0,0.65,0.11,1.11,0.33,1.38s0.54,0.4,0.97,0.4c0.3,0,0.58-0.05,0.86-0.16
							c0.27-0.11,0.57-0.29,0.9-0.54l0.58,0.88c-0.17,0.15-0.36,0.28-0.56,0.4s-0.41,0.22-0.63,0.3c-0.21,0.08-0.43,0.14-0.64,0.18
							c-0.21,0.04-0.41,0.06-0.59,0.06c-0.4,0-0.75-0.05-1.06-0.15c-0.31-0.1-0.57-0.26-0.78-0.49c-0.21-0.22-0.37-0.52-0.47-0.89
							s-0.16-0.82-0.16-1.37v-7.44h-1.41V21.8z"/>
						<path class="st3" d="M383.51,29c0-1.29,0.34-2.31,1.01-3.06c0.67-0.75,1.63-1.13,2.88-1.13c0.67,0,1.25,0.11,1.74,0.33
							c0.49,0.22,0.89,0.51,1.21,0.89c0.32,0.37,0.56,0.82,0.71,1.33c0.15,0.51,0.23,1.06,0.23,1.65c0,0.64-0.08,1.22-0.26,1.74
							c-0.17,0.52-0.42,0.96-0.75,1.32c-0.33,0.36-0.74,0.64-1.22,0.84c-0.49,0.2-1.04,0.3-1.66,0.3c-0.66,0-1.24-0.11-1.73-0.33
							c-0.49-0.22-0.9-0.51-1.22-0.89c-0.32-0.37-0.56-0.82-0.71-1.33C383.59,30.14,383.51,29.59,383.51,29z M384.84,29
							c0,0.37,0.04,0.75,0.13,1.12c0.09,0.37,0.24,0.71,0.44,1.01c0.2,0.3,0.46,0.54,0.79,0.72c0.32,0.18,0.72,0.27,1.19,0.27
							c0.85,0,1.49-0.26,1.92-0.79s0.65-1.3,0.65-2.33c0-0.38-0.04-0.76-0.13-1.13c-0.09-0.37-0.24-0.7-0.45-1s-0.47-0.54-0.8-0.72
							s-0.72-0.27-1.19-0.27c-0.85,0-1.49,0.26-1.91,0.78S384.84,27.97,384.84,29z"/>
						<path class="st3" d="M393.73,27.8c0-0.1,0-0.22-0.01-0.38c0-0.15-0.01-0.31-0.02-0.48c-0.01-0.17-0.02-0.33-0.04-0.49
							c-0.02-0.16-0.03-0.3-0.06-0.42h-1.07V25h2.13l0.16,1.12h0.08c0.29-0.37,0.65-0.69,1.1-0.94c0.44-0.25,0.98-0.38,1.62-0.38
							c1.14,0,2,0.32,2.58,0.94c0.58,0.63,0.86,1.66,0.86,3.09c0,0.67-0.1,1.28-0.29,1.82c-0.2,0.54-0.48,0.99-0.84,1.37
							c-0.36,0.37-0.8,0.66-1.31,0.86c-0.51,0.2-1.08,0.3-1.7,0.3c-0.22,0-0.42-0.01-0.6-0.02c-0.18-0.02-0.34-0.04-0.48-0.06
							c-0.14-0.03-0.29-0.06-0.42-0.1s-0.29-0.1-0.45-0.16v3.36h-1.23V27.8z M397.41,25.99c-0.32,0-0.62,0.06-0.9,0.18
							c-0.28,0.12-0.53,0.27-0.75,0.46c-0.22,0.19-0.4,0.41-0.54,0.64c-0.14,0.23-0.22,0.47-0.26,0.7v3.64
							c0.23,0.16,0.5,0.28,0.79,0.38c0.29,0.09,0.68,0.14,1.16,0.14c0.85,0,1.54-0.28,2.05-0.84s0.77-1.38,0.77-2.45
							c0-0.9-0.18-1.6-0.54-2.1C398.84,26.24,398.25,25.99,397.41,25.99z"/>
						<path class="st3" d="M405.99,33v-5.33c0-0.22-0.01-0.44-0.02-0.65c-0.02-0.21-0.05-0.39-0.11-0.56
							c-0.06-0.17-0.14-0.3-0.26-0.39c-0.11-0.1-0.26-0.14-0.44-0.14c-0.36,0-0.67,0.15-0.92,0.45s-0.44,0.67-0.57,1.12V33h-1.22v-8
							h0.83l0.24,0.98h0.06c0.11-0.16,0.21-0.31,0.31-0.46c0.1-0.14,0.22-0.27,0.35-0.38c0.13-0.11,0.29-0.19,0.47-0.25
							c0.18-0.06,0.41-0.09,0.69-0.09c0.16,0,0.32,0.02,0.5,0.07s0.33,0.12,0.47,0.22c0.14,0.1,0.27,0.24,0.38,0.41
							c0.11,0.17,0.18,0.38,0.21,0.62c0.25-0.42,0.52-0.74,0.82-0.98c0.3-0.23,0.72-0.35,1.26-0.35c0.35,0,0.64,0.06,0.86,0.18
							c0.22,0.12,0.39,0.29,0.51,0.5c0.12,0.22,0.21,0.48,0.26,0.78c0.05,0.3,0.07,0.64,0.07,1.02V33h-1.22v-5.44
							c0-0.22-0.01-0.43-0.03-0.63c-0.02-0.2-0.06-0.37-0.12-0.52s-0.14-0.27-0.24-0.35c-0.1-0.08-0.24-0.13-0.41-0.13
							c-0.37,0-0.69,0.15-0.94,0.45s-0.45,0.73-0.58,1.28V33H405.99z"/>
						<path class="st3" d="M419.86,31.99c-0.19,0.17-0.42,0.33-0.68,0.48s-0.55,0.28-0.86,0.38c-0.31,0.11-0.63,0.19-0.97,0.25
							s-0.67,0.09-1.02,0.09c-0.64,0-1.21-0.1-1.7-0.3c-0.49-0.2-0.9-0.48-1.23-0.85c-0.33-0.37-0.58-0.81-0.75-1.32
							c-0.17-0.51-0.26-1.09-0.26-1.73c0-0.67,0.09-1.27,0.28-1.79c0.19-0.52,0.46-0.96,0.81-1.31c0.35-0.35,0.78-0.62,1.28-0.81
							s1.06-0.28,1.68-0.28c0.45,0,0.89,0.06,1.33,0.18s0.82,0.34,1.16,0.66c0.34,0.33,0.59,0.77,0.78,1.34
							c0.18,0.57,0.25,1.31,0.19,2.22h-6.18c0,0.96,0.26,1.68,0.77,2.15s1.21,0.71,2.07,0.71c0.29,0,0.57-0.04,0.85-0.1
							c0.28-0.07,0.55-0.15,0.81-0.25c0.25-0.1,0.48-0.2,0.68-0.32s0.35-0.22,0.46-0.32L419.86,31.99z M416.49,25.86
							c-0.35,0-0.68,0.04-1,0.11c-0.31,0.08-0.59,0.2-0.83,0.38c-0.24,0.18-0.44,0.41-0.59,0.69s-0.25,0.63-0.29,1.05h4.96
							c-0.05-0.7-0.28-1.25-0.68-1.64S417.14,25.86,416.49,25.86z"/>
						<path class="st3" d="M422.48,27.8c0-0.1,0-0.22-0.01-0.38c0-0.15-0.01-0.31-0.02-0.48c-0.01-0.17-0.02-0.33-0.04-0.49
							s-0.03-0.3-0.06-0.42h-1.07V25h2.14l0.14,1.3h0.08c0.11-0.18,0.25-0.36,0.42-0.54c0.18-0.18,0.38-0.34,0.62-0.48
							c0.23-0.14,0.5-0.26,0.78-0.34c0.29-0.08,0.59-0.13,0.91-0.13c0.49,0,0.93,0.05,1.3,0.16c0.38,0.11,0.69,0.3,0.94,0.57
							c0.25,0.27,0.44,0.64,0.57,1.1s0.19,1.05,0.19,1.77V33h-1.26v-4.34c0-0.88-0.14-1.55-0.43-2c-0.29-0.45-0.81-0.67-1.56-0.67
							c-0.28,0-0.54,0.06-0.81,0.17c-0.26,0.11-0.5,0.26-0.71,0.44c-0.21,0.18-0.4,0.39-0.56,0.63s-0.28,0.49-0.35,0.76V33h-1.23
							V27.8z"/>
						<path class="st3" d="M431.09,25h1.9v-1.58l1.26-0.35V25h4.27v1.07h-4.27v3.78c0,0.78,0.19,1.36,0.57,1.73
							c0.38,0.37,0.92,0.56,1.62,0.56c0.48,0,0.9-0.09,1.25-0.27c0.36-0.18,0.68-0.38,0.96-0.59l0.41,0.94
							c-0.37,0.3-0.82,0.54-1.34,0.72c-0.52,0.18-1.05,0.27-1.59,0.27c-0.43,0-0.83-0.06-1.21-0.18c-0.38-0.12-0.71-0.31-1-0.57
							c-0.29-0.26-0.52-0.58-0.69-0.98c-0.17-0.4-0.26-0.88-0.26-1.43v-3.97h-1.9V25z"/>
					</g>
					<path id="Shape_1_" class="st7" d="M48.71,23.82H37.14v-3.91c0-2.02,1.29-3.78,3.09-4.18c2.44-0.4,4.63,1.48,4.63,4.04
						c0,0.81,0.64,1.35,1.29,1.35s1.29-0.54,1.29-1.35c0-3.91-3.21-7.15-7.07-6.74c-3.34,0.4-5.79,3.51-5.79,7.01v3.78h-1.29
						c-0.64,0-1.29,0.54-1.29,1.35v13.48c0,0.67,0.64,1.35,1.29,1.35h15.43c0.77,0,1.29-0.67,1.29-1.35V25.17
						C50,24.36,49.49,23.82,48.71,23.82z M41.71,27.09c1.04,0.3,1.93,1.21,2.23,2.27c0.3,1.36-0.45,2.57-1.48,3.17v1.96
						c0,0.91-0.59,1.51-1.48,1.51s-1.48-0.6-1.48-1.51v-1.96c-0.89-0.6-1.48-1.51-1.48-2.57C38,27.99,39.78,26.63,41.71,27.09z
						 M41.82,19.01C41.93,19.1,42,19.25,42,19.4v2.15c0,0.28-0.22,0.5-0.5,0.5c-0.15,0-0.3-0.07-0.39-0.19l-0.86-1.1
						c-0.14-0.18-0.14-0.44,0.01-0.62l0.86-1.05C41.29,18.87,41.6,18.83,41.82,19.01z M50.18,19.01c0.21-0.18,0.53-0.14,0.7,0.07
						l0,0l0.86,1.05c0.15,0.18,0.15,0.44,0.01,0.62l0,0l-0.86,1.1c-0.09,0.12-0.24,0.19-0.39,0.19c-0.28,0-0.5-0.22-0.5-0.5l0,0
						V19.4C50,19.25,50.07,19.1,50.18,19.01z"/>
				</g>
				<rect id="Rectangle_1_" x="236" y="51" class="st4" width="8" height="1"/>
				<rect id="Rectangle_2_" x="236" y="131" class="st4" width="8" height="1"/>
				<rect id="Rectangle_3_" x="236" y="213" class="st4" width="8" height="1"/>
			</g>
		</g>
	</g>
</g>
</svg>
