<?xml version="1.0" encoding="UTF-8"?>
<svg width="40px" height="39px" viewBox="0 0 40 39" version="1.1" xmlns="http://www.w3.org/2000/svg" xmlns:xlink="http://www.w3.org/1999/xlink">
    <g id="Page-1" stroke="none" stroke-width="1" fill="none" fill-rule="evenodd">
        <g id="Desktop-HD-Copy-3" transform="translate(-213.000000, -2739.000000)" fill="#FFFFFF" fill-rule="nonzero">
            <g id="Group-30" transform="translate(165.000000, 2623.000000)">
                <g id="Group-24" transform="translate(0.000000, 68.000000)">
                    <g id="Group-23" transform="translate(48.000000, 48.000000)">
                        <g id="github">
                            <path d="M20.0001656,0 C8.95582697,0 0,8.95417097 0,20.0001656 C0,28.8367627 5.7306562,36.3336784 13.6773339,38.9782655 C14.6768785,39.163403 15.0438419,38.5444008 15.0438419,38.0161458 C15.0438419,37.5392258 15.025295,35.9637342 15.0166839,34.2925275 C9.45261852,35.5023805 8.27853448,31.9327675 8.27853448,31.9327675 C7.3687435,29.6210309 6.05787625,29.0063341 6.05787625,29.0063341 C4.24326227,27.7650177 6.19465947,27.7905195 6.19465947,27.7905195 C8.20302217,27.9316083 9.26052578,29.8515422 9.26052578,29.8515422 C11.0443387,32.9091286 13.9393086,32.0251708 15.0806045,31.5141378 C15.2601118,30.2214862 15.7784311,29.3391844 16.3504036,28.8397433 C11.9080936,28.3340094 7.23825297,26.619085 7.23825297,18.9555784 C7.23825297,16.7720139 8.01954044,14.98787 9.29894433,13.587249 C9.09128544,13.0835024 8.4067067,11.0493066 9.49269303,8.29443181 C9.49269303,8.29443181 11.1721797,7.75690333 14.9941627,10.3445249 C16.5895261,9.90138688 18.3004761,9.67915545 20.0001656,9.671538 C21.6998552,9.67915545 23.41213,9.90138688 25.0104739,10.3445249 C28.8278203,7.75690333 30.5049884,8.29443181 30.5049884,8.29443181 C31.5936245,11.0493066 30.9087145,13.0835024 30.7010556,13.587249 C31.9834403,14.98787 32.7594286,16.7720139 32.7594286,18.9555784 C32.7594286,26.6373008 28.0806458,28.3287105 23.6270752,28.8238459 C24.3444422,29.4445044 24.9836472,30.6616434 24.9836472,32.5275927 C24.9836472,35.2036433 24.9604638,37.3574002 24.9604638,38.0161458 C24.9604638,38.5483752 25.3204719,39.1720141 26.3342578,38.9756158 C34.27663,36.328048 40,28.8337819 40,20.0001656 C40,8.95417097 31.045498,0 20.0001656,0 Z M7.49071239,28.4906581 C7.44666352,28.5900164 7.29033977,28.6198239 7.1479262,28.551598 C7.00286305,28.4863525 6.92138928,28.3508941 6.96841888,28.2512047 C7.01147413,28.1488655 7.16812906,28.1203828 7.31286098,28.18894 C7.45825534,28.2541853 7.54105392,28.3909686 7.49071239,28.4906581 Z M8.47449831,29.3684772 C8.37911434,29.4569061 8.19265192,29.415838 8.06613566,29.2760741 C7.93531387,29.1366413 7.91080552,28.9501787 8.00751425,28.860425 C8.10587897,28.7719961 8.28671113,28.8133955 8.41786409,28.9528283 C8.54868581,29.093917 8.5741878,29.2790547 8.47449831,29.3684772 Z M9.1494127,30.4916167 C9.02687081,30.5767337 8.82649822,30.4969158 8.70263152,30.3190645 C8.58008958,30.1412131 8.58008958,29.9279239 8.70528109,29.8424758 C8.82947892,29.7570277 9.02687081,29.8338648 9.15239345,30.0103914 C9.2746042,30.1912234 9.2746042,30.4045125 9.1494127,30.4916167 Z M10.2908374,31.7923709 C10.181212,31.9132572 9.94772005,31.8808 9.7768237,31.7158653 C9.60195311,31.5545734 9.55326753,31.3257181 9.66322408,31.2048322 C9.77417416,31.0836152 10.008991,31.1177281 10.181212,31.2813381 C10.3547579,31.4422988 10.407749,31.67281 10.2908374,31.7923709 Z M11.766018,32.2314909 C11.7176637,32.3881459 11.4927827,32.4593527 11.2662457,32.3927827 C11.0400399,32.3242255 10.8919961,32.1407439 10.9377009,31.982433 C10.9847305,31.8247845 11.210605,31.7505969 11.438798,31.8218036 C11.6646725,31.8900297 11.8130476,32.0721866 11.766018,32.2314909 Z M13.4448355,32.4177542 C13.4504657,32.5826889 13.258373,32.7194722 13.0205755,32.7224531 C12.7814531,32.7277522 12.5880356,32.5942809 12.5853861,32.4319956 C12.5853861,32.2654048 12.7731733,32.1299464 13.0122956,32.125972 C13.2500932,32.1213353 13.4448355,32.253813 13.4448355,32.4177542 Z M15.0940855,32.3545348 C15.1225682,32.5154955 14.9573022,32.6807613 14.7211606,32.7248102 C14.4889934,32.767203 14.2740482,32.6678447 14.2445719,32.5082091 C14.215758,32.3432742 14.3840048,32.1780083 14.6158408,32.1352844 C14.8523136,32.0942163 15.0639468,32.1909248 15.0940855,32.3545348 Z" id="Shape"></path>
                        </g>
                    </g>
                </g>
            </g>
        </g>
    </g>
</svg>
