<svg xmlns="http://www.w3.org/2000/svg" width="624.46" height="513.94" xmlns:xlink="http://www.w3.org/1999/xlink" viewBox="0 0 624.46 513.94"><defs><style>.cls-1,.cls-7{fill:#52c7ea;}.cls-1,.cls-17,.cls-19,.cls-45{opacity:0.1;}.cls-2,.cls-3{fill:#162535;}.cls-12,.cls-14,.cls-18,.cls-19,.cls-2,.cls-3,.cls-4{stroke:#52c7ea;}.cls-14,.cls-2,.cls-3,.cls-4,.cls-9{stroke-width:0.8px;}.cls-3,.cls-44{stroke-linecap:round;stroke-linejoin:round;}.cls-18,.cls-19,.cls-4{fill:none;}.cls-18,.cls-4{opacity:0.5;}.cls-11,.cls-16,.cls-4{isolation:isolate;}.cls-5{opacity:0.1;}.cls-6{opacity:0.67;}.cls-8{opacity:0.11;}.cls-12,.cls-14,.cls-9{fill:#161b20;}.cls-13,.cls-43,.cls-44,.cls-69,.cls-70,.cls-9{stroke:#4bc7ec;}.cls-10,.cls-16{opacity:0.2;}.cls-11,.cls-16,.cls-42{fill:#4bc7ec;}.cls-11{opacity:0.7;}.cls-12,.cls-18,.cls-19{stroke-width:0.5px;}.cls-13,.cls-44,.cls-69,.cls-70{fill:#0a1a2b;}.cls-13,.cls-43,.cls-69,.cls-70{stroke-width:0.2px;}.cls-15{fill:#ec432d;}.cls-17{fill:url(#linear-gradient);}.cls-18,.cls-19{stroke-miterlimit:10;}.cls-20{fill:url(#linear-gradient-2);}.cls-21{fill:url(#linear-gradient-3);}.cls-22{fill:url(#linear-gradient-4);}.cls-23{fill:url(#linear-gradient-5);}.cls-24{fill:url(#linear-gradient-6);}.cls-25{fill:url(#linear-gradient-7);}.cls-26{fill:url(#linear-gradient-8);}.cls-27{fill:url(#linear-gradient-9);}.cls-28{fill:url(#linear-gradient-10);}.cls-29{fill:url(#linear-gradient-11);}.cls-30{fill:url(#linear-gradient-12);}.cls-31{fill:url(#linear-gradient-13);}.cls-32{fill:url(#linear-gradient-14);}.cls-33{fill:url(#linear-gradient-15);}.cls-34{fill:url(#linear-gradient-16);}.cls-35{fill:url(#linear-gradient-17);}.cls-36{fill:url(#linear-gradient-18);}.cls-37{fill:url(#linear-gradient-19);}.cls-38{fill:url(#linear-gradient-20);}.cls-39{fill:url(#linear-gradient-21);}.cls-40{fill:url(#linear-gradient-22);}.cls-41{fill:url(#linear-gradient-23);}.cls-43{fill:#fff;}.cls-44{stroke-width:0.75px;}.cls-45{fill:url(#linear-gradient-24);}.cls-46{fill:url(#linear-gradient-25);}.cls-47{fill:url(#linear-gradient-26);}.cls-48{fill:url(#linear-gradient-27);}.cls-49{fill:url(#linear-gradient-28);}.cls-50{fill:url(#linear-gradient-29);}.cls-51{fill:url(#linear-gradient-30);}.cls-52{fill:url(#linear-gradient-31);}.cls-53{fill:url(#linear-gradient-32);}.cls-54{fill:url(#linear-gradient-33);}.cls-55{fill:url(#linear-gradient-34);}.cls-56{fill:url(#linear-gradient-35);}.cls-57{fill:url(#linear-gradient-36);}.cls-58{fill:url(#linear-gradient-37);}.cls-59{fill:url(#linear-gradient-38);}.cls-60{fill:url(#linear-gradient-39);}.cls-61{fill:url(#linear-gradient-40);}.cls-62{fill:url(#linear-gradient-41);}.cls-63{fill:url(#linear-gradient-42);}.cls-64{fill:url(#linear-gradient-43);}.cls-65{fill:url(#linear-gradient-44);}.cls-66{fill:url(#linear-gradient-45);}.cls-67{fill:url(#linear-gradient-46);}.cls-68{fill:url(#linear-gradient-47);}.cls-69{opacity:0.4;}.cls-70{opacity:0.3;}.cls-71{opacity:0.51;}</style><linearGradient id="linear-gradient" x1="135.73" y1="256.61" x2="134.33" y2="74.8" gradientUnits="userSpaceOnUse"><stop offset="0" stop-color="#52c7ea" stop-opacity="0"/><stop offset="0.7" stop-color="#52c7ea"/></linearGradient><linearGradient id="linear-gradient-2" x1="134.96" y1="254.94" x2="131.17" y2="84.72" xlink:href="#linear-gradient"/><linearGradient id="linear-gradient-3" x1="135.24" y1="254.93" x2="131.44" y2="84.71" xlink:href="#linear-gradient"/><linearGradient id="linear-gradient-4" x1="135.44" y1="254.93" x2="131.65" y2="84.71" xlink:href="#linear-gradient"/><linearGradient id="linear-gradient-5" x1="135.63" y1="254.92" x2="131.84" y2="84.71" xlink:href="#linear-gradient"/><linearGradient id="linear-gradient-6" x1="135.86" y1="254.92" x2="132.06" y2="84.7" xlink:href="#linear-gradient"/><linearGradient id="linear-gradient-7" x1="136.04" y1="254.91" x2="132.25" y2="84.7" xlink:href="#linear-gradient"/><linearGradient id="linear-gradient-8" x1="136.17" y1="254.91" x2="132.38" y2="84.69" xlink:href="#linear-gradient"/><linearGradient id="linear-gradient-9" x1="136.3" y1="254.91" x2="132.51" y2="84.69" xlink:href="#linear-gradient"/><linearGradient id="linear-gradient-10" x1="136.43" y1="254.9" x2="132.64" y2="84.69" xlink:href="#linear-gradient"/><linearGradient id="linear-gradient-11" x1="136.56" y1="254.9" x2="132.77" y2="84.68" xlink:href="#linear-gradient"/><linearGradient id="linear-gradient-12" x1="136.73" y1="254.9" x2="132.94" y2="84.68" xlink:href="#linear-gradient"/><linearGradient id="linear-gradient-13" x1="136.94" y1="254.89" x2="133.15" y2="84.68" xlink:href="#linear-gradient"/><linearGradient id="linear-gradient-14" x1="137.14" y1="254.89" x2="133.35" y2="84.67" xlink:href="#linear-gradient"/><linearGradient id="linear-gradient-15" x1="137.35" y1="254.88" x2="133.56" y2="84.67" xlink:href="#linear-gradient"/><linearGradient id="linear-gradient-16" x1="137.51" y1="254.88" x2="133.72" y2="84.66" xlink:href="#linear-gradient"/><linearGradient id="linear-gradient-17" x1="137.68" y1="254.88" x2="133.89" y2="84.66" xlink:href="#linear-gradient"/><linearGradient id="linear-gradient-18" x1="137.85" y1="254.87" x2="134.05" y2="84.66" xlink:href="#linear-gradient"/><linearGradient id="linear-gradient-19" x1="138.02" y1="254.87" x2="134.23" y2="84.65" xlink:href="#linear-gradient"/><linearGradient id="linear-gradient-20" x1="138.18" y1="254.87" x2="134.39" y2="84.65" xlink:href="#linear-gradient"/><linearGradient id="linear-gradient-21" x1="138.35" y1="254.86" x2="134.56" y2="84.64" xlink:href="#linear-gradient"/><linearGradient id="linear-gradient-22" x1="138.52" y1="254.86" x2="134.72" y2="84.64" xlink:href="#linear-gradient"/><linearGradient id="linear-gradient-23" x1="138.65" y1="254.86" x2="134.85" y2="84.64" xlink:href="#linear-gradient"/><linearGradient id="linear-gradient-24" x1="454.1" y1="267.8" x2="452.81" y2="100.29" xlink:href="#linear-gradient"/><linearGradient id="linear-gradient-25" x1="453.4" y1="266.21" x2="449.99" y2="113.29" xlink:href="#linear-gradient"/><linearGradient id="linear-gradient-26" x1="453.64" y1="266.2" x2="450.24" y2="113.29" xlink:href="#linear-gradient"/><linearGradient id="linear-gradient-27" x1="453.83" y1="266.2" x2="450.42" y2="113.28" xlink:href="#linear-gradient"/><linearGradient id="linear-gradient-28" x1="454" y1="266.19" x2="450.59" y2="113.28" xlink:href="#linear-gradient"/><linearGradient id="linear-gradient-29" x1="454.2" y1="266.19" x2="450.79" y2="113.27" xlink:href="#linear-gradient"/><linearGradient id="linear-gradient-30" x1="454.36" y1="266.19" x2="450.96" y2="113.27" xlink:href="#linear-gradient"/><linearGradient id="linear-gradient-31" x1="454.48" y1="266.18" x2="451.07" y2="113.27" xlink:href="#linear-gradient"/><linearGradient id="linear-gradient-32" x1="454.6" y1="266.18" x2="451.19" y2="113.26" xlink:href="#linear-gradient"/><linearGradient id="linear-gradient-33" x1="454.72" y1="266.18" x2="451.31" y2="113.26" xlink:href="#linear-gradient"/><linearGradient id="linear-gradient-34" x1="454.83" y1="266.17" x2="451.43" y2="113.26" xlink:href="#linear-gradient"/><linearGradient id="linear-gradient-35" x1="454.99" y1="266.17" x2="451.58" y2="113.26" xlink:href="#linear-gradient"/><linearGradient id="linear-gradient-36" x1="455.17" y1="266.17" x2="451.77" y2="113.25" xlink:href="#linear-gradient"/><linearGradient id="linear-gradient-37" x1="455.36" y1="266.16" x2="451.95" y2="113.25" xlink:href="#linear-gradient"/><linearGradient id="linear-gradient-38" x1="455.54" y1="266.16" x2="452.13" y2="113.24" xlink:href="#linear-gradient"/><linearGradient id="linear-gradient-39" x1="455.69" y1="266.16" x2="452.28" y2="113.24" xlink:href="#linear-gradient"/><linearGradient id="linear-gradient-40" x1="455.84" y1="266.15" x2="452.43" y2="113.24" xlink:href="#linear-gradient"/><linearGradient id="linear-gradient-41" x1="455.99" y1="266.15" x2="452.58" y2="113.23" xlink:href="#linear-gradient"/><linearGradient id="linear-gradient-42" x1="456.14" y1="266.15" x2="452.74" y2="113.23" xlink:href="#linear-gradient"/><linearGradient id="linear-gradient-43" x1="456.29" y1="266.14" x2="452.88" y2="113.23" xlink:href="#linear-gradient"/><linearGradient id="linear-gradient-44" x1="456.44" y1="266.14" x2="453.04" y2="113.22" xlink:href="#linear-gradient"/><linearGradient id="linear-gradient-45" x1="456.59" y1="266.14" x2="453.18" y2="113.22" xlink:href="#linear-gradient"/><linearGradient id="linear-gradient-46" x1="456.71" y1="266.13" x2="453.3" y2="113.22" xlink:href="#linear-gradient"/><linearGradient id="linear-gradient-47" x1="457.54" y1="98.8" x2="457.48" y2="90.49" gradientUnits="userSpaceOnUse"><stop offset="0" stop-color="#52c7ea" stop-opacity="0.1"/><stop offset="0.35" stop-color="#52c7ea" stop-opacity="0.07"/><stop offset="0.76" stop-color="#52c7ea" stop-opacity="0"/></linearGradient></defs><title>Asset 1</title><g id="Layer_2" data-name="Layer 2"><g id="Layer_1-2" data-name="Layer 1"><path class="cls-1" d="M63.89,417.13h0l-7.27-1L28.27,432.79c-7.19-2.2-16.35-1.52-22.39,2C1.4,437.44-.32,441,.7,444.4c-.78,3.28,1,6.71,5.39,9.2,7.41,4.21,19.38,4.13,26.73-.19,3.69-2.16,5.51-5,5.48-7.77h0l-.1-3.56,0,0a6.33,6.33,0,0,0-.41-2l3-1.74,0-2.37h0v-.12l4,0,0-2.32,4,0,0-2.33,4,0,0-2.33,4,0,0-2.32,4.32,0,1.34-.79,1.48-6.11Z"/><polygon class="cls-1" points="22.43 435.89 31.5 441.04 40.76 435.61 40.73 433.25 40.65 433.3 40.64 433.13 44.76 433.1 44.74 430.77 48.77 430.75 48.75 428.42 52.78 428.39 52.76 426.07 56.8 426.04 56.77 423.71 61.09 423.68 62.43 422.89 63.91 416.79 63.88 414.43 63.17 416.69 56.64 415.82 22.43 435.89"/><polygon class="cls-2" points="31.47 438.68 40.73 433.25 40.62 430.77 44.73 430.74 44.63 428.41 48.75 428.38 48.64 426.06 52.76 426.03 52.66 423.7 56.77 423.68 56.67 421.35 61.06 421.32 62.41 420.53 63.88 414.43 56.61 413.45 22.4 433.53 31.47 438.68"/><path class="cls-2" d="M37.64,435.06a12.67,12.67,0,0,0-4.21-3.62,21.7,21.7,0,0,0-4.34-1.84l-6.69,3.93,9.07,5.15Z"/><path class="cls-1" d="M6.09,450.9c7.41,4.21,19.38,4.12,26.73-.19,3.69-2.16,5.51-5,5.48-7.78h0l-.1-3.55-.6.67a11.59,11.59,0,0,0-4.89-4.77c-7.41-4.21-19.38-4.13-26.73.18S-1.32,446.69,6.09,450.9Zm10.71-6.28c1.93,1.09,1.94,2.89,0,4a7.64,7.64,0,0,1-7,.05c-1.93-1.09-1.95-2.89,0-4A7.69,7.69,0,0,1,16.8,444.62Z"/><polyline class="cls-1" points="40.64 433.13 44.76 433.1 44.74 430.77"/><path class="cls-1" d="M6.09,450.9c7.41,4.21,19.38,4.12,26.73-.19,3.69-2.16,5.51-5,5.48-7.78h0l-.1-3.55-.6.67a11.59,11.59,0,0,0-4.89-4.77c-7.41-4.21-19.38-4.13-26.73.18S-1.32,446.69,6.09,450.9Zm10.71-6.28c1.93,1.09,1.94,2.89,0,4a7.64,7.64,0,0,1-7,.05c-1.93-1.09-1.95-2.89,0-4A7.69,7.69,0,0,1,16.8,444.62Z"/><path class="cls-1" d="M6.09,450.9c7.41,4.21,19.38,4.12,26.73-.19,3.69-2.16,5.51-5,5.48-7.78h0l-.1-3.55-.6.67a11.59,11.59,0,0,0-4.89-4.77c-7.41-4.21-19.38-4.13-26.73.18S-1.32,446.69,6.09,450.9Zm10.71-6.28c1.93,1.09,1.94,2.89,0,4a7.64,7.64,0,0,1-7,.05c-1.93-1.09-1.95-2.89,0-4A7.69,7.69,0,0,1,16.8,444.62Z"/><path class="cls-2" d="M6,447.54c7.41,4.21,19.38,4.13,26.73-.19s7.3-11.22-.11-15.43-19.38-4.13-26.73.19S-1.42,443.33,6,447.54Zm10.71-6.28c1.93,1.1,1.94,2.89,0,4a7.7,7.7,0,0,1-6.95.05c-1.93-1.1-1.95-2.9,0-4A7.69,7.69,0,0,1,16.7,441.26Z"/><path class="cls-3" d="M32.61,431.92c-7.41-4.21-19.38-4.13-26.73.19s-7.3,11.22.11,15.43a22.61,22.61,0,0,0,5.58,2.19,30.12,30.12,0,0,0,4.43.76c5.89.58,12.19-.48,16.72-3.14C40.07,443,40,436.13,32.61,431.92ZM16.72,445.28a7.7,7.7,0,0,1-6.95.05c-1.93-1.1-1.95-2.9,0-4a7.69,7.69,0,0,1,7-.05C18.63,442.36,18.64,444.15,16.72,445.28Z"/><g id="Page-1"><g id="Desktop-HD-Copy-3"><g id="test"><path class="cls-4" d="M99.56,222.4,38.28,187v.78l61.2,35.39Q128,239.27,99.56,222.4Z"/><path class="cls-4" d="M67,157.5a4.68,4.68,0,0,0,4.25,0l.14-.09L115.61,183v-.78L71.89,156.94c.44-.63.22-1.37-.66-1.89a4.68,4.68,0,0,0-4.25,0A1.29,1.29,0,0,0,67,157.5Z"/><path class="cls-4" d="M604.93,475.38H506l-71.44-41.31-.08,0H375.31l-80.87-46.77,8.54-4.94L379.9,426.8l.08.05h67.87L480.91,446c-.85.68-.75,1.63.3,2.24a4.74,4.74,0,0,0,4.25,0,1.3,1.3,0,0,0,0-2.46,4.74,4.74,0,0,0-3.87-.17l-33.47-19.36-.08,0H380.17l-11.39-6.58h90.71l71.72-41.48a4.76,4.76,0,0,0,3.88-.18,1.29,1.29,0,0,0,0-2.45,4.7,4.7,0,0,0-4.26,0c-1.05.61-1.15,1.56-.3,2.24l-71.22,41.19h-91.7l-28.69-16.59,11.28-6.52h20L388.92,385a4.73,4.73,0,0,0,3.87-.17,1.3,1.3,0,0,0,0-2.46,4.74,4.74,0,0,0-4.25,0c-1.05.61-1.15,1.57-.3,2.24L370,395.14H351.35L395,369.93h40.3l22.48,13c-.84.68-.75,1.63.31,2.24a4.68,4.68,0,0,0,4.25,0,1.29,1.29,0,0,0,0-2.45,4.8,4.8,0,0,0-3.88-.18l-22.89-13.24-.08-.05H394.76l-56.51,32.68-24-13.89h13.26l10.68-6.17a4.7,4.7,0,0,0,3.92-.16,1.29,1.29,0,0,0,0-2.45,4.71,4.71,0,0,0-4.25,0c-1,.6-1.15,1.54-.34,2.22l-10.19,5.89H313.06l-9.41-5.44,20.11-11.63-6.3-3.64,34.7-20.07h11.57l13.82,8c-.85.67-.76,1.62.3,2.24a4.74,4.74,0,0,0,4.25,0,1.3,1.3,0,0,0,0-2.46,4.74,4.74,0,0,0-3.87-.17L364,346l-.08-.05H352l-25.2,14.57V347.15l23.64-13.67a4.74,4.74,0,0,0,3.87-.17,1.3,1.3,0,0,0,0-2.46,4.71,4.71,0,0,0-4.25,0c-1.06.62-1.15,1.57-.3,2.24l-23.64,13.67v14.13l-9.3,5.38-32.73-18.93,15.18-8.78h19.69l31.12-18h23.62l32.82,19c-.84.68-.75,1.63.31,2.24a4.68,4.68,0,0,0,4.25,0,1.29,1.29,0,0,0,0-2.45,4.74,4.74,0,0,0-3.87-.17l-33.25-19.23-.08-.05h-24l-31.12,18H300.41l91.2-52.73h61.76c0-.23,0-.45,0-.68H391.42L283.4,347l-12.26-7.1,109.07-63.07.16-.1V239l37.32-21.58a4.74,4.74,0,0,0,3.87-.17,1.3,1.3,0,0,0,0-2.46,4.71,4.71,0,0,0-4.25,0c-1.06.61-1.15,1.56-.3,2.24l-37.15,21.48-.17.1v37.7L270.46,339.47,257.58,332l64-37,.17-.1V262.59L211.83,199c.85-.68.75-1.63-.3-2.24a4.68,4.68,0,0,0-4.25,0,1.29,1.29,0,0,0,0,2.45,4.7,4.7,0,0,0,3.87.17L292,246.15H267.68L224.1,221c.85-.68.76-1.63-.3-2.24a4.68,4.68,0,0,0-4.25,0,1.29,1.29,0,0,0,0,2.45,4.7,4.7,0,0,0,3.87.17l44,25.43.08,0h25.64L321.07,263v31.58l-51.51,29.78v-16L301.21,290l.16-.09V273.64a4.13,4.13,0,0,0,1.79-.49,1.29,1.29,0,0,0,0-2.45,4.68,4.68,0,0,0-4.25,0,1.29,1.29,0,0,0,0,2.45,4.13,4.13,0,0,0,1.78.49v15.85l-31.64,18.3-.17.1v16.82l-12,6.92L243.68,324l-8,4.64v-35l27.91-16.14a4.76,4.76,0,0,0,3.88-.18,1.29,1.29,0,0,0,0-2.45,4.68,4.68,0,0,0-4.25,0c-1.06.61-1.16,1.56-.31,2.24l-27.71,16-.16.1v14.3l-20.87-12.07V281.88l45.51-26.32a4.73,4.73,0,0,0,3.87-.18c1.19-.68,1.19-1.77,0-2.45a4.68,4.68,0,0,0-4.25,0c-1,.61-1.15,1.56-.3,2.24l-45.34,26.22-.17.1v14.34L235,308.29V329l-11.42,6.6-9.66-5.58V317.36l-14.64-8.47c.85-.67.75-1.63-.3-2.24a4.74,4.74,0,0,0-4.25,0,1.3,1.3,0,0,0,0,2.46,4.74,4.74,0,0,0,3.87.17l14.64,8.47v11.91l-31.92-18.47V283.38l48.06-27.79.16-.09V245l-27.17-15.71c.85-.68.75-1.63-.3-2.24a4.68,4.68,0,0,0-4.25,0c-1.19.68-1.19,1.78,0,2.45a4.73,4.73,0,0,0,3.87.18l27.17,15.71v9.7l-48,27.79-.17.09v28.59L222.92,336,214.38,341l-54.8-31.7V257.11l-10.37-6c-.11.2-.23.39-.35.58l10,5.8v52.16l54.8,31.7L204,347,150.65,316.1l.17-.29-50.77-29.36V280l-10.31-5.95V255.71L57.28,236.93v.78l31.8,18.39v17.59L76,266.1c.85-.68.76-1.63-.3-2.24a4.68,4.68,0,0,0-4.25,0,1.3,1.3,0,0,0,0,2.46,4.74,4.74,0,0,0,3.87.17l24.09,13.93v6.42L149.72,316H126.34L57.28,276v.77L125,316h-67c.23-.57,0-1.18-.8-1.63a4.68,4.68,0,0,0-4.25,0,1.3,1.3,0,0,0,0,2.46,4.74,4.74,0,0,0,4.25,0l.14-.1.05-.06h92.78l53.1,30.71-10,5.81-38.5-22.26-.08,0H42a1.72,1.72,0,0,0-.79-.83A4.68,4.68,0,0,0,37,330a1.29,1.29,0,0,0,0,2.45,4.68,4.68,0,0,0,4.25,0l.13-.09.53-.47a1.13,1.13,0,0,0,.17-.39h84.29l-21,12.14H78.38a1.74,1.74,0,0,0-.81-.86,4.68,4.68,0,0,0-4.25,0,1.29,1.29,0,0,0,0,2.45,4.68,4.68,0,0,0,4.25,0l.13-.1.53-.47a1.33,1.33,0,0,0,.16-.34h27.12l22.16-12.82h26.87l38.08,22-8.84,5.11-33.7-19.49-.08-.05H136.42l-27.55,15.93H51.47a1.65,1.65,0,0,0-.82-.9,4.68,4.68,0,0,0-4.25,0,1.29,1.29,0,0,0,0,2.45,4.68,4.68,0,0,0,4.25,0l.13-.1.52-.47a1.14,1.14,0,0,0,.16-.31h57.59l27.54-15.93h13.23l24.46,14.15H162.05L150.11,347h-9.27L120.22,359a4.71,4.71,0,0,0-3.81.21,1.29,1.29,0,0,0,0,2.45,4.74,4.74,0,0,0,4.25,0c1.08-.62,1.16-1.6.25-2.28L141,347.71h8.91l11.92,6.91h13.58l7.65,4.42-12.44,7.2H152.3l-22.74,13.15a4.74,4.74,0,0,0-3.87.17,1.3,1.3,0,0,0,0,2.46,4.74,4.74,0,0,0,4.25,0c1.06-.61,1.15-1.57.3-2.24l22.23-12.87h17l-5.86,3.38,9.1,5.27-24.6,14.23H122.23L94.93,374c.85-.68.76-1.63-.3-2.24a4.68,4.68,0,0,0-4.25,0,1.29,1.29,0,0,0,0,2.45,4.72,4.72,0,0,0,3.88.18l14.06,8.13h-18v.77l.17-.1h19L122,390.42l.07,0H147l-10.21,5.9H116.28a5.3,5.3,0,0,1,0,.69h20.63L173.4,376l17,9.83L148,410.32H102.3L75.48,425.57a4.56,4.56,0,0,0-2.62.47,1.29,1.29,0,0,0,0,2.46,4.71,4.71,0,0,0,4.25,0l.13-.1.52-.47c.44-.63.23-1.37-.65-1.9a3.48,3.48,0,0,0-.63-.26l26-14.8h44.33l-56,32.41v16.26a6.69,6.69,0,0,1,.68-.08V443.78l99.65-57.62,14.62,8.46L145.8,429.26v52.15l-50.69,29.3-.19-.13a4.7,4.7,0,0,0-4.26,0,1.29,1.29,0,0,0,0,2.45,4.7,4.7,0,0,0,4.26,0l.13-.1.52-.47a1.07,1.07,0,0,0,0-1.26l50.88-29.4V429.65L206.37,395l9,5.22L171,425.9V487l-39.24,22.38a4.74,4.74,0,0,0-3.54.3,1.29,1.29,0,0,0,0,2.45,4.68,4.68,0,0,0,4.25,0l.14-.09.52-.48c.43-.61.23-1.33-.6-1.84l39.14-22.33V426.28l44.38-25.66,12.18,7-34,19.63v64.19H195V469.59l17,9.84v21.51h.67V479L195,468.81v-18l22.4,13c-.79.67-.66,1.59.37,2.19a4.74,4.74,0,0,0,4.25,0,1.29,1.29,0,0,0,0-2.45,4.72,4.72,0,0,0-4-.14L195,450V427.7l33.95-19.64,10.84,6.28-16.5,9.52v14.06l4.17,2.41v7.16l29.74,17.2v12.15l24.21,14c-.84.68-.75,1.63.31,2.24a4.68,4.68,0,0,0,4.25,0,1.29,1.29,0,0,0,0-2.45,4.76,4.76,0,0,0-3.88-.18l-24.21-14V464.31l-29.74-17.2v-6.39l50,28.91c-.79.67-.66,1.59.37,2.19a4.68,4.68,0,0,0,4.25,0,1.29,1.29,0,0,0,0-2.45,4.72,4.72,0,0,0-4-.14l-40.08-23.18h20.11l23,13.34c-.85.68-.75,1.63.3,2.25a4.74,4.74,0,0,0,4.25,0,1.3,1.3,0,0,0,0-2.46,4.7,4.7,0,0,0-3.87-.17L259,445.43l-.08,0h-21.4v0l-13.63-7.88V424.26l16.5-9.54,3.27,1.89,4.25-2.46,69.29,40.06.07.05h18.9a1.7,1.7,0,0,0,.82.89,4.68,4.68,0,0,0,4.25,0,1.29,1.29,0,0,0,0-2.45,4.68,4.68,0,0,0-4.25,0,1.7,1.7,0,0,0-.82.89H317.49l-68.86-39.84,10.53-6.09L316.73,441c-.85.68-.75,1.63.3,2.24a4.68,4.68,0,0,0,4.25,0,1.29,1.29,0,0,0,0-2.46,4.73,4.73,0,0,0-3.87-.17l-57.58-33.3,10.91-6.3,81.36,47V487.4l-23.42,13.54H330l14-8.07,14,8.07h1.35l-14.64-8.45,8.11-4.7v-31l13.76,8V484.1l.67-.38V464.37L352.76,456v-8.41l-81.35-47,12-6.93,157.71,91.2v16.09h.68V484.47L284.07,393.26l9.7-5.61,81.28,47,.08.05h59.14l26.1,15.09h-.16v16l29.55,17.09c-.85.67-.75,1.63.3,2.24a4.74,4.74,0,0,0,4.25,0,1.3,1.3,0,0,0,0-2.46,4.74,4.74,0,0,0-3.87-.17l-29.55-17.09V450.08L505.71,476l.08,0h99.32l18.95-10.95v-.78ZM243.7,415.83,165,370.3l78.72-45.52,78.72,45.52Z"/><path class="cls-4" d="M494.94,225a4,4,0,0,0,1.16.41V261.2l-39.39,23V285l39.91-23.28.17-.09V225.5a4.54,4.54,0,0,0,2.4-.49,1.3,1.3,0,0,0,0-2.46,4.71,4.71,0,0,0-4.25,0A1.3,1.3,0,0,0,494.94,225Z"/><g id="Group" class="cls-5"><g id="Path" class="cls-6"><polygon class="cls-7" points="242.57 463.37 83.14 371.03 242.56 278.7 401.98 371.03 242.57 463.37"/></g><polygon id="Path-2" data-name="Path" class="cls-7" points="242.57 449.05 107.87 371.03 242.56 293.02 377.26 371.03 242.57 449.05"/><polygon id="Path-3" data-name="Path" class="cls-7" points="242.57 432.41 136.59 371.03 242.56 309.65 348.53 371.03 242.57 432.41"/><path id="Path-4" data-name="Path" class="cls-7" d="M242.57,432.73a.3.3,0,0,1-.16-.05l-106-61.37a.33.33,0,0,1,0-.56L161.87,356a.32.32,0,0,1,.42.12.33.33,0,0,1-.1.43l-25,14.46,105.34,61L347.9,371l-23.83-13.8a.32.32,0,0,1-.12-.43.34.34,0,0,1,.44-.12l24.31,14.09a.3.3,0,0,1,.16.27.33.33,0,0,1-.16.28l-106,61.37a.33.33,0,0,1-.16.05Z"/></g><path id="Path-5" data-name="Path" class="cls-2" d="M237.8,329.18a12.54,12.54,0,0,1,12.41,0l74,42.23a1.73,1.73,0,0,1,0,3L249.6,417.08a11,11,0,0,1-11,0l-74.7-42.63a1.74,1.74,0,0,1-.88-1.5,1.71,1.71,0,0,1,.88-1.5Z"/><path id="Path-6" data-name="Path" class="cls-2" d="M237.8,316.18a12.54,12.54,0,0,1,12.41,0l74,42.23a1.73,1.73,0,0,1,0,3L249.6,404.08a11,11,0,0,1-11,0l-74.7-42.63a1.74,1.74,0,0,1-.88-1.5,1.71,1.71,0,0,1,.88-1.5Z"/><path id="Path-7" data-name="Path" class="cls-2" d="M237.8,305.18a12.54,12.54,0,0,1,12.41,0l74,42.23a1.73,1.73,0,0,1,0,3L249.6,393.08a11,11,0,0,1-11,0l-74.7-42.63a1.74,1.74,0,0,1-.88-1.5,1.71,1.71,0,0,1,.88-1.5Z"/><g id="Group-2" data-name="Group" class="cls-8"><path id="Path-8" data-name="Path" class="cls-9" d="M238.26,293.26a12.66,12.66,0,0,1,12.47,0L325,335.42a1.72,1.72,0,0,1,0,3L250.11,381a11.19,11.19,0,0,1-11,0l-75-42.58a1.71,1.71,0,0,1,0-3Z"/></g><path id="Path-9" data-name="Path" class="cls-2" d="M237.8,293.18a12.54,12.54,0,0,1,12.41,0l74,42.23a1.73,1.73,0,0,1,0,3L249.6,381.08a11,11,0,0,1-11,0l-74.7-42.63a1.74,1.74,0,0,1-.88-1.5,1.71,1.71,0,0,1,.88-1.5Z"/><g id="Group-3" data-name="Group" class="cls-10"><path id="Path-10" data-name="Path" class="cls-7" d="M137.52,322.37a8.22,8.22,0,0,1-4-1l-21.45-11.91a1.47,1.47,0,0,1,0-2.59l20.19-11.09a9.38,9.38,0,0,1,9,0l20.94,11.63a1.47,1.47,0,0,1,0,2.59l-20.7,11.36a8.23,8.23,0,0,1-4,1Z"/></g><path id="Path-11" data-name="Path" class="cls-2" d="M141.54,283.7a8.72,8.72,0,0,0-8.7,0l-20.16,11.43a1.21,1.21,0,0,0,0,2.11l21.43,12.28a7.7,7.7,0,0,0,7.66,0l20.68-11.72a1.22,1.22,0,0,0,0-2.11Z"/><path id="Path-12" data-name="Path" class="cls-2" d="M141.54,274.7a8.72,8.72,0,0,0-8.7,0l-20.16,11.42a1.23,1.23,0,0,0-.62,1.06,1.21,1.21,0,0,0,.62,1.05l21.43,12.29a7.7,7.7,0,0,0,7.66,0l20.68-11.72a1.2,1.2,0,0,0,.61-1.05,1.22,1.22,0,0,0-.61-1.06Z"/><path id="Path-13" data-name="Path" class="cls-2" d="M141.54,266.7a8.72,8.72,0,0,0-8.7,0l-20.16,11.43a1.21,1.21,0,0,0-.62,1.05,1.23,1.23,0,0,0,.62,1.06l21.43,12.28a7.7,7.7,0,0,0,7.66,0l20.68-11.72a1.22,1.22,0,0,0,.61-1.06,1.2,1.2,0,0,0-.61-1.05Z"/><g id="Group-4" data-name="Group" class="cls-8"><path id="Path-14" data-name="Path" class="cls-9" d="M141.47,257.91a8.72,8.72,0,0,0-8.65,0l-20.07,11.27a1.19,1.19,0,0,0,0,2.08l21.33,12.1a7.69,7.69,0,0,0,7.63,0l20.58-11.56a1.19,1.19,0,0,0,0-2.08Z"/></g><path id="Path-15" data-name="Path" class="cls-2" d="M141.54,258.7a8.72,8.72,0,0,0-8.7,0l-20.16,11.43a1.23,1.23,0,0,0-.62,1.06,1.21,1.21,0,0,0,.62,1.05l21.43,12.27a7.65,7.65,0,0,0,7.66,0l20.68-11.72a1.22,1.22,0,0,0,0-2.11Z"/><polyline id="Path-16" data-name="Path" class="cls-11" points="137.76 277.01 124.76 270.01 137.76 263.01 149.89 269.55"/><path id="Shape" class="cls-12" d="M137.56,277.54a.59.59,0,0,1-.34-.1l-12.82-7.31a.7.7,0,0,1-.34-.59.71.71,0,0,1,.34-.6l12.82-7.31a.71.71,0,0,1,.69,0l12.82,7.31a.7.7,0,0,1,.33.6.69.69,0,0,1-.33.59l-12.82,7.31a.71.71,0,0,1-.35.1Zm-11.43-8,11.43,6.52L149,269.54,137.56,263Z"/><g id="Group-5" data-name="Group" class="cls-10"><path id="Path-17" data-name="Path" class="cls-7" d="M331.83,463.46a7.81,7.81,0,0,1-3.92-1.06l-21-12.22a1.54,1.54,0,0,1,0-2.65l50.84-29.59a8.81,8.81,0,0,1,8.85,0l20.53,11.92a1.55,1.55,0,0,1,0,2.66L335.75,462.4A7.81,7.81,0,0,1,331.83,463.46Z"/></g><path id="Path-18" data-name="Path" class="cls-13" d="M366,408.69a8.43,8.43,0,0,0-8.52,0l-50.79,29.54a1.22,1.22,0,0,0,0,2.1l21,12.19a7.42,7.42,0,0,0,7.51,0l51.28-29.82a1.22,1.22,0,0,0,0-2.1Z"/><path id="Path-19" data-name="Path" class="cls-13" d="M366,400.69a8.43,8.43,0,0,0-8.52,0l-50.79,29.54a1.21,1.21,0,0,0,0,2.09l21,12.2a7.42,7.42,0,0,0,7.51,0l51.28-29.82a1.22,1.22,0,0,0,0-2.1Z"/><path id="Path-20" data-name="Path" class="cls-13" d="M366,392.69a8.43,8.43,0,0,0-8.52,0l-50.79,29.54a1.21,1.21,0,0,0,0,2.09l21,12.2a7.42,7.42,0,0,0,7.51,0l51.28-29.82a1.22,1.22,0,0,0,0-2.1Z"/><g id="Group-6" data-name="Group" class="cls-8"><path id="Path-21" data-name="Path" class="cls-9" d="M366,383.91a8.49,8.49,0,0,0-8.5,0l-50.66,29.25a1.19,1.19,0,0,0-.59,1,1.2,1.2,0,0,0,.59,1l21,12.08a7.53,7.53,0,0,0,7.49,0l51.16-29.54a1.2,1.2,0,0,0,0-2.08Z"/></g><path id="Path-22" data-name="Path" class="cls-2" d="M366,383.69a8.43,8.43,0,0,0-8.52,0l-50.79,29.54a1.2,1.2,0,0,0-.6,1,1.23,1.23,0,0,0,.6,1.05l21,12.19a7.42,7.42,0,0,0,7.51,0l51.28-29.82a1.22,1.22,0,0,0,0-2.1Z"/><polygon id="Path-23" data-name="Path" class="cls-11" points="332.56 420.06 320.06 412.54 333.06 405.54 345.13 413.06 332.56 420.06"/><path id="Shape-2" data-name="Shape" class="cls-14" d="M332.56,421.54a.73.73,0,0,1-.35-.09l-12.81-7.32a.7.7,0,0,1-.34-.59.71.71,0,0,1,.34-.6l12.81-7.31a.75.75,0,0,1,.71,0l12.81,7.31a.7.7,0,0,1,.33.6.69.69,0,0,1-.33.59l-12.81,7.32A.77.77,0,0,1,332.56,421.54Zm-11.43-8,11.43,6.52L344,413.54,332.56,407Z"/><polygon id="Path-24" data-name="Path" class="cls-11" points="360.06 404.54 347.06 397.54 360.06 390.54 373.06 397.54 360.06 404.54"/><path id="Shape-3" data-name="Shape" class="cls-14" d="M359.55,405.54a.67.67,0,0,1-.34-.09l-12.81-7.31a.69.69,0,0,1,0-1.19l12.81-7.32a.73.73,0,0,1,.7,0l12.81,7.31a.69.69,0,0,1,0,1.19l-12.81,7.31a.75.75,0,0,1-.36.1Zm-11.42-8,11.42,6.52L371,397.54,359.55,391Z"/><g id="_-_-Ockam.io" data-name=" - -Ockam.io"><g id="img-hero"><ellipse id="Oval" class="cls-15" cx="265.69" cy="318.61" rx="1.7" ry="1.07" transform="translate(-4.86 4.12) rotate(-0.88)"/><ellipse id="Oval-2" class="cls-15" cx="247.21" cy="322.85" rx="1.7" ry="1.07" transform="translate(-4.93 3.83) rotate(-0.88)"/><ellipse id="Oval-3" class="cls-15" cx="221.31" cy="351.36" rx="1.7" ry="1.07" transform="translate(-5.37 3.44) rotate(-0.88)"/><ellipse id="Oval-4" class="cls-15" cx="232.41" cy="314.92" rx="1.7" ry="1.07" transform="translate(-4.81 3.61) rotate(-0.88)"/><ellipse id="Oval-5" class="cls-15" cx="254.6" cy="355.07" rx="1.7" ry="1.07" transform="translate(-5.42 3.95) rotate(-0.88)"/><ellipse id="Oval-6" class="cls-15" cx="276.79" cy="338.7" rx="1.7" ry="1.07" transform="translate(-5.17 4.29) rotate(-0.88)"/><ellipse id="Oval-7" class="cls-15" cx="239.8" cy="347.14" rx="1.7" ry="1.07" transform="translate(-5.3 3.72) rotate(-0.88)"/><ellipse id="Oval-8" class="cls-15" cx="228.73" cy="327.06" rx="1.7" ry="1.07" transform="translate(-5 3.55) rotate(-0.88)"/><ellipse id="Oval-9" class="cls-15" cx="258.28" cy="342.92" rx="1.7" ry="1.07" transform="translate(-5.24 4.01) rotate(-0.88)"/><ellipse id="Oval-10" class="cls-15" cx="225.02" cy="339.2" rx="1.7" ry="1.07" transform="translate(-5.18 3.5) rotate(-0.88)"/><ellipse id="Oval-11" class="cls-15" cx="261.99" cy="330.78" rx="1.7" ry="1.07" transform="translate(-5.05 4.06) rotate(-0.88)"/><ellipse id="Oval-12" class="cls-15" cx="210.21" cy="331.27" rx="1.7" ry="1.07" transform="translate(-5.06 3.27) rotate(-0.88)"/><path id="Path-25" data-name="Path" class="cls-7" d="M268.25,319.93c9.41,2.05,14.3,8.53,10.9,14.52a10.43,10.43,0,0,1-1.67,2.18,4.05,4.05,0,0,1,1.52.45,2.13,2.13,0,0,1,.71.56c6.18-6.21,3.27-14.31-6.47-18.09a28.4,28.4,0,0,0-4.22-1.26A1.77,1.77,0,0,1,268.25,319.93Z"/><path id="Path-2-2" data-name="Path-2" class="cls-7" d="M264.54,332.08a17.83,17.83,0,0,1,9.78,5.21,4.36,4.36,0,0,1,2.48-.7c-2.43-2.91-6.54-5.11-11.53-6.15A1.51,1.51,0,0,1,264.54,332.08Z"/><path id="Path-3-2" data-name="Path-3" class="cls-7" d="M265.09,324.81a9.39,9.39,0,0,1-2.44,3.89,4.52,4.52,0,0,1,1.52.45,2.9,2.9,0,0,1,.68.53c2.86-2.81,3.91-6.21,2.9-9.45a3.82,3.82,0,0,1-1,.35,4.82,4.82,0,0,1-1.65.1,7.09,7.09,0,0,1,0,4.13Z"/><path id="Path-4-2" data-name="Path-4" class="cls-7" d="M261.44,342.2a1.42,1.42,0,0,1-.28,1.73,29.28,29.28,0,0,0,14.44-3.27,4.82,4.82,0,0,1-1-.37,2.22,2.22,0,0,1-.93-.84,25.19,25.19,0,0,1-12.26,2.75Z"/><path id="Path-5-2" data-name="Path-5" class="cls-7" d="M259,340.85a3.43,3.43,0,0,1,2.18,1c2.83-2.83,3.85-6.21,2.9-9.46a4.93,4.93,0,0,1-2.65.46C262.2,335.59,261.33,338.44,259,340.85Z"/><path id="Path-6-2" data-name="Path-6" class="cls-7" d="M276.46,341.9c.74,6.31-6.8,11.85-16.79,12.41-.65,0-1.28.05-1.91,0a1.33,1.33,0,0,1,.12,1,1.82,1.82,0,0,1-.41.68c.79,0,1.58,0,2.34,0,11.52-.64,20.19-7,19.38-14.29h0a9.12,9.12,0,0,0-.3-1.47,4.94,4.94,0,0,1-2.65.45,8,8,0,0,1,.22,1.17Z"/><path id="Path-7-2" data-name="Path-7" class="cls-7" d="M260.38,349.41a8.19,8.19,0,0,0,0-4.9,4.75,4.75,0,0,1-2.65.45c.8,2.76,0,5.6-2.39,8a3.59,3.59,0,0,1,2.18,1,11.33,11.33,0,0,0,2.86-4.56Z"/><path id="Path-8-2" data-name="Path-8" class="cls-7" d="M240.9,349.09a5.24,5.24,0,0,1-1.11.12c2.4,2.94,6.55,5.13,11.51,6.18a1.56,1.56,0,0,1,.71-1.66c-4.2-.92-7.68-2.79-9.77-5.25A3.15,3.15,0,0,1,240.9,349.09Z"/><path id="Path-9-2" data-name="Path-9" class="cls-7" d="M243,346.44a1.45,1.45,0,0,1-.31,1.72,29.6,29.6,0,0,0,14.43-3.29,3,3,0,0,1-1.9-1.21A25.64,25.64,0,0,1,243,346.43Z"/><path id="Path-10-2" data-name="Path-10" class="cls-7" d="M224.49,350.67a1.44,1.44,0,0,1-.32,1.72,29.26,29.26,0,0,0,14.44-3.29,3,3,0,0,1-1.94-1.2A25.51,25.51,0,0,1,224.49,350.67Z"/><path id="Path-11-2" data-name="Path-11" class="cls-7" d="M251.56,357.93c.65-.29,1.27-.6,1.85-.92a2.89,2.89,0,0,1-1.91-1.2q-.7.39-1.47.72c-8.32,3.64-19.65,2.39-25.3-2.8h0a12.64,12.64,0,0,1-.94-1,4.25,4.25,0,0,1-2.51.72,14.46,14.46,0,0,0,1.21,1.26c6.49,6,19.51,7.41,29.07,3.22Z"/><path id="Path-12-2" data-name="Path-12" class="cls-7" d="M225,341.28c2.44,2.93,6.56,5.13,11.53,6.19a1.62,1.62,0,0,1,.71-1.66,17.8,17.8,0,0,1-9.75-5.24,4.5,4.5,0,0,1-2.49.71Z"/><path id="Path-13-2" data-name="Path-13" class="cls-7" d="M221.94,345.14a9.63,9.63,0,0,1,2.44-3.89,4.06,4.06,0,0,1-1.51-.45,2.51,2.51,0,0,1-.69-.52c-2.85,2.8-3.91,6.19-2.9,9.45a4.52,4.52,0,0,1,2.63-.45A7.12,7.12,0,0,1,221.94,345.14Z"/><path id="Path-14-2" data-name="Path-14" class="cls-7" d="M216.8,335.84a14.53,14.53,0,0,1-4.12-3.19,4.48,4.48,0,0,1-2.48.7c2.43,2.93,6.58,5.13,11.55,6.16a1.6,1.6,0,0,1,.72-1.65,22.05,22.05,0,0,1-5.67-2Z"/><path id="Path-15-2" data-name="Path-15" class="cls-7" d="M218.78,350c-9.41-2.06-14.3-8.56-10.9-14.53a10.12,10.12,0,0,1,1.67-2.17,4.45,4.45,0,0,1-1.52-.45,2.3,2.3,0,0,1-.69-.55c-6.18,6.21-3.28,14.29,6.47,18.09a28.4,28.4,0,0,0,4.22,1.26A1.62,1.62,0,0,1,218.78,350Z"/><path id="Path-16-2" data-name="Path-16" class="cls-7" d="M225.58,327.73a1.32,1.32,0,0,1-.12-1.05,1.78,1.78,0,0,1,.39-.66,29.4,29.4,0,0,0-14.45,3.28,4.24,4.24,0,0,1,1,.35,2.22,2.22,0,0,1,.92.85,25.49,25.49,0,0,1,12.28-2.77Z"/><path id="Path-17-2" data-name="Path-17" class="cls-7" d="M228,329.11a3.53,3.53,0,0,1-2.18-1c-2.83,2.82-3.88,6.21-2.92,9.47a4.76,4.76,0,0,1,2.65-.45C224.84,334.36,225.71,331.51,228,329.11Z"/><path id="Path-18-2" data-name="Path-18" class="cls-7" d="M233.62,312.92a3,3,0,0,1,1.91,1.21c.47-.26,1-.51,1.46-.74,8.32-3.64,19.65-2.38,25.28,2.81h0a12.64,12.64,0,0,1,.94,1,4.22,4.22,0,0,1,2.5-.72,12.76,12.76,0,0,0-1.2-1.24c-6.47-6-19.5-7.41-29.07-3.23C234.82,312.31,234.22,312.6,233.62,312.92Z"/><path id="Path-19-2" data-name="Path-19" class="cls-7" d="M226.65,320.54a8.19,8.19,0,0,0,0,4.9,5,5,0,0,1,2.64-.48c-.8-2.75.07-5.6,2.4-8a3.61,3.61,0,0,1-2.18-1,10.92,10.92,0,0,0-2.86,4.57Z"/><path id="Path-20-2" data-name="Path-20" class="cls-7" d="M210.55,328c-.7-6.32,6.82-11.88,16.84-12.44h0c.62,0,1.25-.05,1.86,0a1.33,1.33,0,0,1-.13-1.05,2,2,0,0,1,.42-.67c-.76,0-1.57,0-2.34,0-11.51.64-20.17,7-19.36,14.27a9.12,9.12,0,0,0,.3,1.47,5,5,0,0,1,2.62-.45,10.89,10.89,0,0,1-.21-1.14Z"/><path id="Path-21-2" data-name="Path-21" class="cls-7" d="M250.34,322.08a25.41,25.41,0,0,1,12.17-2.8,1.49,1.49,0,0,1,.3-1.71,29.14,29.14,0,0,0-14.4,3.3A2.88,2.88,0,0,1,250.34,322.08Z"/><path id="Path-22-2" data-name="Path-22" class="cls-7" d="M246.14,320.86a5.57,5.57,0,0,1,1.08-.11c-2.43-2.93-6.55-5.14-11.51-6.18a1.38,1.38,0,0,1,0,.7,2,2,0,0,1-.71.94c4.19.92,7.68,2.79,9.77,5.27A3.34,3.34,0,0,1,246.14,320.86Z"/><path id="Path-23-2" data-name="Path-23" class="cls-7" d="M262.06,328.67c-2.46-2.91-6.59-5.11-11.54-6.17a1.59,1.59,0,0,1-.75,1.65,18,18,0,0,1,9.76,5.23,4.51,4.51,0,0,1,2.53-.71Z"/><path id="Path-24-2" data-name="Path-24" class="cls-7" d="M244.06,323.49a1.43,1.43,0,0,1,.32-1.7,29.42,29.42,0,0,0-14.44,3.28,2.89,2.89,0,0,1,1.9,1.2,25.8,25.8,0,0,1,12.22-2.77Z"/></g></g><polygon id="Path-26" data-name="Path" class="cls-16" points="267.96 361.54 266.06 360.25 267.16 359.54 269.06 360.83 267.96 361.54"/><polygon id="Path-27" data-name="Path" class="cls-16" points="260.89 365.54 259.06 364.35 265.24 360.54 267.06 361.73 260.89 365.54"/><polygon id="Path-28" data-name="Path" class="cls-16" points="257.2 366.54 255.06 365.22 257.93 363.54 260.06 364.85 257.2 366.54"/><polygon id="Path-29" data-name="Path" class="cls-16" points="253.2 369.54 251.06 368.22 253.93 366.54 256.06 367.86 253.2 369.54"/><polygon id="Path-30" data-name="Path" class="cls-16" points="266.2 365.54 264.06 364.22 266.93 362.54 269.06 363.86 266.2 365.54"/><polygon id="Path-31" data-name="Path" class="cls-16" points="261.75 367.54 260.06 366.49 263.38 364.54 265.06 365.58 261.75 367.54"/><polygon id="Path-32" data-name="Path" class="cls-16" points="257.92 369.54 256.06 368.39 259.2 366.54 261.06 367.69 257.92 369.54"/><polygon id="Path-33" data-name="Path" class="cls-16" points="249.2 371.54 247.06 370.22 249.93 368.54 252.06 369.86 249.2 371.54"/><polygon id="Path-34" data-name="Path" class="cls-16" points="268.97 363.54 267.06 362.25 268.16 361.54 270.06 362.83 268.97 363.54"/><polygon id="Path-35" data-name="Path" class="cls-16" points="248.09 374.54 245.06 372.24 246.04 371.54 249.06 373.84 248.09 374.54"/></g></g></g><polygon class="cls-17" points="144.75 252.52 125.26 252.52 125.26 84.62 144.75 72.8 144.75 252.52"/><line class="cls-18" x1="123.86" y1="243.66" x2="123.86" y2="89.77"/><line class="cls-18" x1="146.15" y1="243.66" x2="146.15" y2="89.77"/><line class="cls-19" x1="150.46" y1="230.98" x2="150.46" y2="77.09"/><line class="cls-19" x1="128.74" y1="230.98" x2="128.74" y2="77.09"/><path class="cls-20" d="M138,255.86a1.76,1.76,0,0,1,1,.29,1,1,0,0,1,.5.86h-8v.33h-.2a.6.6,0,0,0-.3-.47,1,1,0,0,0-.55-.23v-.78Z"/><path class="cls-21" d="M137.33,242.16a2,2,0,0,1,1.58.72,2.45,2.45,0,0,1,.63,1.67,2.53,2.53,0,0,1-.52,1.54,2,2,0,0,1-1.69.85h-4.39a2.5,2.5,0,0,1-1.8-.63,2.26,2.26,0,0,1-.67-1.76,2.15,2.15,0,0,1,2.47-2.39Zm-.67.79h-3.2c-1.27,0-1.9.53-1.9,1.6s.63,1.59,1.9,1.59h3.2a1.86,1.86,0,0,0,1.23-.41,1.47,1.47,0,0,0,.52-1.18,1.44,1.44,0,0,0-.52-1.17A1.78,1.78,0,0,0,136.66,243Z"/><path class="cls-22" d="M138,234.48a1.76,1.76,0,0,1,1,.29,1,1,0,0,1,.5.86h-8V236h-.2a.62.62,0,0,0-.3-.47.93.93,0,0,0-.55-.22v-.78Z"/><path class="cls-23" d="M137.33,224.4a2,2,0,0,1,1.58.71,2.47,2.47,0,0,1,.63,1.67,2.51,2.51,0,0,1-.52,1.54,2,2,0,0,1-1.69.86h-4.39a2.5,2.5,0,0,1-1.8-.63,2.3,2.3,0,0,1-.67-1.77c0-1.59.82-2.38,2.47-2.38Zm-.67.79h-3.2c-1.27,0-1.9.53-1.9,1.59s.63,1.6,1.9,1.6h3.2a1.86,1.86,0,0,0,1.23-.41,1.49,1.49,0,0,0,.52-1.19,1.44,1.44,0,0,0-.52-1.17A1.82,1.82,0,0,0,136.66,225.19Z"/><path class="cls-24" d="M137.33,214.31a2,2,0,0,1,1.58.72,2.45,2.45,0,0,1,.63,1.67,2.53,2.53,0,0,1-.52,1.54,2,2,0,0,1-1.69.85h-4.39a2.5,2.5,0,0,1-1.8-.63,2.26,2.26,0,0,1-.67-1.76,2.15,2.15,0,0,1,2.47-2.39Zm-.67.79h-3.2c-1.27,0-1.9.53-1.9,1.6s.63,1.59,1.9,1.59h3.2a1.86,1.86,0,0,0,1.23-.41,1.47,1.47,0,0,0,.52-1.18,1.44,1.44,0,0,0-.52-1.17A1.82,1.82,0,0,0,136.66,215.1Z"/><path class="cls-25" d="M138,207.53a1.76,1.76,0,0,1,1,.29,1,1,0,0,1,.5.86h-8V209h-.2a.6.6,0,0,0-.3-.47,1,1,0,0,0-.55-.23v-.78Z"/><path class="cls-26" d="M138,201.66a1.76,1.76,0,0,1,1,.29,1,1,0,0,1,.5.86h-8v.33h-.2a.6.6,0,0,0-.3-.47,1,1,0,0,0-.55-.23v-.78Z"/><path class="cls-27" d="M138,195.79a1.76,1.76,0,0,1,1,.29,1,1,0,0,1,.5.86h-8v.33h-.2a.6.6,0,0,0-.3-.47,1,1,0,0,0-.55-.23v-.78Z"/><path class="cls-28" d="M138,189.92a1.76,1.76,0,0,1,1,.29,1,1,0,0,1,.5.86h-8v.33h-.2a.6.6,0,0,0-.3-.47.89.89,0,0,0-.55-.23v-.78Z"/><path class="cls-29" d="M138,184.05a1.76,1.76,0,0,1,1,.29,1,1,0,0,1,.5.86h-8v.33h-.2a.6.6,0,0,0-.3-.47.89.89,0,0,0-.55-.23v-.78Z"/><path class="cls-30" d="M137.33,174.87a2,2,0,0,1,1.58.72,2.47,2.47,0,0,1,.63,1.67,2.51,2.51,0,0,1-.52,1.54,2,2,0,0,1-1.69.86h-4.39a2.5,2.5,0,0,1-1.8-.63,2.3,2.3,0,0,1-.67-1.77,2.15,2.15,0,0,1,2.47-2.39Zm-.67.8h-3.2c-1.27,0-1.9.53-1.9,1.59s.63,1.59,1.9,1.59h3.2a1.86,1.86,0,0,0,1.23-.4,1.49,1.49,0,0,0,.52-1.19,1.44,1.44,0,0,0-.52-1.17A1.82,1.82,0,0,0,136.66,175.67Z"/><path class="cls-31" d="M137.33,165.69a2,2,0,0,1,1.58.72,2.47,2.47,0,0,1,.63,1.67,2.51,2.51,0,0,1-.52,1.54,2,2,0,0,1-1.69.86h-4.39a2.5,2.5,0,0,1-1.8-.63,2.3,2.3,0,0,1-.67-1.77,2.15,2.15,0,0,1,2.47-2.39Zm-.67.8h-3.2c-1.27,0-1.9.53-1.9,1.59s.63,1.59,1.9,1.59h3.2a1.86,1.86,0,0,0,1.23-.4,1.49,1.49,0,0,0,.52-1.19,1.44,1.44,0,0,0-.52-1.17A1.82,1.82,0,0,0,136.66,166.49Z"/><path class="cls-32" d="M137.33,156.51a2,2,0,0,1,1.58.72,2.47,2.47,0,0,1,.63,1.67,2.51,2.51,0,0,1-.52,1.54,2,2,0,0,1-1.69.86h-4.39a2.5,2.5,0,0,1-1.8-.63,2.3,2.3,0,0,1-.67-1.77,2.15,2.15,0,0,1,2.47-2.39Zm-.67.8h-3.2c-1.27,0-1.9.53-1.9,1.59s.63,1.59,1.9,1.59h3.2a1.86,1.86,0,0,0,1.23-.4,1.49,1.49,0,0,0,.52-1.19,1.44,1.44,0,0,0-.52-1.17A1.82,1.82,0,0,0,136.66,157.31Z"/><path class="cls-33" d="M137.33,147.33a2,2,0,0,1,1.58.72,2.47,2.47,0,0,1,.63,1.67,2.51,2.51,0,0,1-.52,1.54,2,2,0,0,1-1.69.86h-4.39a2.5,2.5,0,0,1-1.8-.63,2.3,2.3,0,0,1-.67-1.77,2.15,2.15,0,0,1,2.47-2.39Zm-.67.8h-3.2c-1.27,0-1.9.53-1.9,1.59s.63,1.59,1.9,1.59h3.2a1.86,1.86,0,0,0,1.23-.4,1.49,1.49,0,0,0,.52-1.19,1.44,1.44,0,0,0-.52-1.17A1.82,1.82,0,0,0,136.66,148.13Z"/><path class="cls-34" d="M138,141.46a1.76,1.76,0,0,1,1,.29,1,1,0,0,1,.5.86h-8v.33h-.2a.6.6,0,0,0-.3-.47.89.89,0,0,0-.55-.23v-.78Z"/><path class="cls-35" d="M137.33,132.28a2,2,0,0,1,1.58.72,2.47,2.47,0,0,1,.63,1.67,2.51,2.51,0,0,1-.52,1.54,2,2,0,0,1-1.69.86h-4.39a2.5,2.5,0,0,1-1.8-.63,2.3,2.3,0,0,1-.67-1.77,2.15,2.15,0,0,1,2.47-2.39Zm-.67.8h-3.2c-1.27,0-1.9.53-1.9,1.59s.63,1.59,1.9,1.59h3.2a1.86,1.86,0,0,0,1.23-.4,1.49,1.49,0,0,0,.52-1.19,1.44,1.44,0,0,0-.52-1.17A1.82,1.82,0,0,0,136.66,133.08Z"/><path class="cls-36" d="M138,126.41a1.76,1.76,0,0,1,1,.29,1,1,0,0,1,.5.86h-8v.33h-.2a.6.6,0,0,0-.3-.47.89.89,0,0,0-.55-.23v-.78Z"/><path class="cls-37" d="M137.33,117.23a2,2,0,0,1,1.58.72,2.47,2.47,0,0,1,.63,1.67,2.51,2.51,0,0,1-.52,1.54,2,2,0,0,1-1.69.86h-4.39a2.5,2.5,0,0,1-1.8-.63,2.3,2.3,0,0,1-.67-1.77,2.15,2.15,0,0,1,2.47-2.39Zm-.67.8h-3.2c-1.27,0-1.9.53-1.9,1.59s.63,1.59,1.9,1.59h3.2a1.86,1.86,0,0,0,1.23-.4,1.49,1.49,0,0,0,.52-1.19,1.44,1.44,0,0,0-.52-1.17A1.82,1.82,0,0,0,136.66,118Z"/><path class="cls-38" d="M138,111.36a1.76,1.76,0,0,1,1,.29,1,1,0,0,1,.5.86h-8v.33h-.2a.6.6,0,0,0-.3-.47.89.89,0,0,0-.55-.23v-.78Z"/><path class="cls-39" d="M137.33,102.18a2,2,0,0,1,1.58.72,2.47,2.47,0,0,1,.63,1.67,2.51,2.51,0,0,1-.52,1.54,2,2,0,0,1-1.69.86h-4.39a2.5,2.5,0,0,1-1.8-.63,2.3,2.3,0,0,1-.67-1.77,2.15,2.15,0,0,1,2.47-2.39Zm-.67.8h-3.2c-1.27,0-1.9.53-1.9,1.59s.63,1.59,1.9,1.59h3.2a1.86,1.86,0,0,0,1.23-.4,1.49,1.49,0,0,0,.52-1.19,1.44,1.44,0,0,0-.52-1.17A1.82,1.82,0,0,0,136.66,103Z"/><path class="cls-40" d="M138,96.31a1.76,1.76,0,0,1,1,.29,1,1,0,0,1,.5.86h-8v.33h-.2a.6.6,0,0,0-.3-.47.89.89,0,0,0-.55-.23v-.78Z"/><path class="cls-41" d="M138,90.44a1.76,1.76,0,0,1,1,.29,1,1,0,0,1,.5.86h-8v.33h-.2a.6.6,0,0,0-.3-.47.89.89,0,0,0-.55-.23v-.78Z"/><path id="Shape-4" data-name="Shape" class="cls-42" d="M453.09,349.36H453l-32.39-19,.35-.19,32.15-18.79h.12l32.38,19-.34.19Zm-31.58-19,31.58,18.44,31.57-18.42-31.57-18.45Z"/><polygon id="Path-36" data-name="Path" class="cls-16" points="453.59 343.36 431.58 330.36 453.59 317.36 475.58 330.36 453.59 343.36"/><polygon id="Path-37" data-name="Path" class="cls-43" points="453.59 299.36 431.58 286.36 431.58 312.36 453.59 325.36 475.58 312.36 475.58 286.36 453.59 299.36"/><polygon id="Path-38" data-name="Path" class="cls-44" points="453.58 325.36 431.58 312.36 431.58 286.36 453.58 299.36 453.58 325.36"/><polygon id="Path-39" data-name="Path" class="cls-44" points="475.58 312.36 453.58 325.36 453.58 299.36 475.58 286.36 475.58 312.36"/><polygon id="Path-40" data-name="Path" class="cls-44" points="453.59 299.36 431.58 286.36 453.59 273.36 475.58 286.36 453.59 299.36"/><rect class="cls-45" x="444.68" y="98.58" width="17.51" height="165.45"/><line class="cls-18" x1="443.42" y1="256.08" x2="443.42" y2="116.22"/><line class="cls-18" x1="463.45" y1="256.08" x2="463.45" y2="116.22"/><line class="cls-19" x1="467.32" y1="244.56" x2="467.32" y2="104.7"/><line class="cls-19" x1="447.81" y1="244.56" x2="447.81" y2="104.7"/><path class="cls-46" d="M456.16,267a1.56,1.56,0,0,1,.9.26.88.88,0,0,1,.45.77H450.3v.29h-.18a.58.58,0,0,0-.26-.42.83.83,0,0,0-.5-.2V267Z"/><path class="cls-47" d="M455.53,254.73a1.8,1.8,0,0,1,1.41.64,2.2,2.2,0,0,1,.57,1.5,2.39,2.39,0,0,1-.46,1.39,1.8,1.8,0,0,1-1.52.76h-3.95a2.25,2.25,0,0,1-1.62-.56,2.07,2.07,0,0,1-.6-1.59c0-1.43.74-2.14,2.22-2.14Zm-.61.71h-2.87c-1.14,0-1.71.48-1.71,1.43s.57,1.43,1.71,1.43h2.87a1.68,1.68,0,0,0,1.11-.36,1.34,1.34,0,0,0,.47-1.07,1.3,1.3,0,0,0-.47-1.05A1.64,1.64,0,0,0,454.92,255.44Z"/><path class="cls-48" d="M456.16,247.83a1.49,1.49,0,0,1,.9.26.88.88,0,0,1,.45.77H450.3v.29h-.18a.55.55,0,0,0-.26-.42.83.83,0,0,0-.5-.2v-.7Z"/><path class="cls-49" d="M455.53,238.77a1.8,1.8,0,0,1,1.41.64,2.2,2.2,0,0,1,.57,1.5,2.36,2.36,0,0,1-.46,1.39,1.8,1.8,0,0,1-1.52.76h-3.95a2.25,2.25,0,0,1-1.62-.56,2.06,2.06,0,0,1-.6-1.59c0-1.43.74-2.14,2.22-2.14Zm-.61.71h-2.87c-1.14,0-1.71.48-1.71,1.43s.57,1.43,1.71,1.43h2.87A1.68,1.68,0,0,0,456,242a1.34,1.34,0,0,0,.47-1.07,1.32,1.32,0,0,0-.47-1A1.64,1.64,0,0,0,454.92,239.48Z"/><path class="cls-50" d="M455.53,229.71a1.8,1.8,0,0,1,1.41.64,2.2,2.2,0,0,1,.57,1.5,2.36,2.36,0,0,1-.46,1.39,1.8,1.8,0,0,1-1.52.76h-3.95a2.25,2.25,0,0,1-1.62-.56,2.06,2.06,0,0,1-.6-1.59c0-1.43.74-2.14,2.22-2.14Zm-.61.71h-2.87c-1.14,0-1.71.48-1.71,1.43s.57,1.43,1.71,1.43h2.87a1.68,1.68,0,0,0,1.11-.36,1.34,1.34,0,0,0,.47-1.07,1.32,1.32,0,0,0-.47-1A1.64,1.64,0,0,0,454.92,230.42Z"/><path class="cls-51" d="M456.16,223.62a1.56,1.56,0,0,1,.9.26.88.88,0,0,1,.45.78H450.3v.28h-.18a.58.58,0,0,0-.26-.42.89.89,0,0,0-.5-.2v-.7Z"/><path class="cls-52" d="M456.16,218.35a1.49,1.49,0,0,1,.9.26.88.88,0,0,1,.45.77H450.3v.29h-.18a.56.56,0,0,0-.26-.42.83.83,0,0,0-.5-.2v-.7Z"/><path class="cls-53" d="M456.16,213.08a1.56,1.56,0,0,1,.9.25.89.89,0,0,1,.45.78H450.3v.29h-.18a.55.55,0,0,0-.26-.42.85.85,0,0,0-.5-.21v-.69Z"/><path class="cls-54" d="M456.16,207.8a1.56,1.56,0,0,1,.9.26.88.88,0,0,1,.45.77H450.3v.29h-.18a.58.58,0,0,0-.26-.42.89.89,0,0,0-.5-.2v-.7Z"/><path class="cls-55" d="M456.16,202.53a1.49,1.49,0,0,1,.9.26.88.88,0,0,1,.45.77H450.3v.29h-.18a.55.55,0,0,0-.26-.42.85.85,0,0,0-.5-.21v-.69Z"/><path class="cls-56" d="M455.53,194.28a1.81,1.81,0,0,1,1.41.65,2.2,2.2,0,0,1,.57,1.5,2.33,2.33,0,0,1-.46,1.38,1.81,1.81,0,0,1-1.52.77h-3.95A2.26,2.26,0,0,1,450,198a2.05,2.05,0,0,1-.6-1.58,1.93,1.93,0,0,1,2.22-2.15Zm-.61.71h-2.87q-1.71,0-1.71,1.44c0,.95.57,1.43,1.71,1.43h2.87a1.69,1.69,0,0,0,1.11-.37,1.34,1.34,0,0,0,.47-1.06,1.3,1.3,0,0,0-.47-1.05A1.6,1.6,0,0,0,454.92,195Z"/><path class="cls-57" d="M455.53,186a1.81,1.81,0,0,1,1.41.65,2.2,2.2,0,0,1,.57,1.5,2.33,2.33,0,0,1-.46,1.38,1.81,1.81,0,0,1-1.52.77h-3.95a2.29,2.29,0,0,1-1.62-.56,2.09,2.09,0,0,1-.6-1.59,1.93,1.93,0,0,1,2.22-2.15Zm-.61.72h-2.87c-1.14,0-1.71.47-1.71,1.43s.57,1.43,1.71,1.43h2.87a1.64,1.64,0,0,0,1.11-.37,1.32,1.32,0,0,0,.47-1.06,1.3,1.3,0,0,0-.47-1.05A1.59,1.59,0,0,0,454.92,186.75Z"/><path class="cls-58" d="M455.53,177.79a1.8,1.8,0,0,1,1.41.64,2.2,2.2,0,0,1,.57,1.5,2.39,2.39,0,0,1-.46,1.39,1.8,1.8,0,0,1-1.52.76h-3.95a2.25,2.25,0,0,1-1.62-.56,2.09,2.09,0,0,1-.6-1.59c0-1.43.74-2.14,2.22-2.14Zm-.61.71h-2.87c-1.14,0-1.71.48-1.71,1.43s.57,1.43,1.71,1.43h2.87A1.68,1.68,0,0,0,456,181a1.36,1.36,0,0,0,.47-1.07,1.3,1.3,0,0,0-.47-1.05A1.64,1.64,0,0,0,454.92,178.5Z"/><path class="cls-59" d="M455.53,169.54a1.81,1.81,0,0,1,1.41.65,2.19,2.19,0,0,1,.57,1.49,2.34,2.34,0,0,1-.46,1.39,1.81,1.81,0,0,1-1.52.77h-3.95a2.26,2.26,0,0,1-1.62-.57,2.06,2.06,0,0,1-.6-1.59,1.93,1.93,0,0,1,2.22-2.14Zm-.61.71h-2.87c-1.14,0-1.71.48-1.71,1.43s.57,1.44,1.71,1.44h2.87a1.69,1.69,0,0,0,1.11-.37,1.34,1.34,0,0,0,.47-1.07,1.3,1.3,0,0,0-.47-1A1.6,1.6,0,0,0,454.92,170.25Z"/><path class="cls-60" d="M456.16,164.27a1.49,1.49,0,0,1,.9.26.88.88,0,0,1,.45.77H450.3v.29h-.18a.55.55,0,0,0-.26-.42.85.85,0,0,0-.5-.21v-.69Z"/><path class="cls-61" d="M455.53,156a1.81,1.81,0,0,1,1.41.65,2.19,2.19,0,0,1,.57,1.49,2.34,2.34,0,0,1-.46,1.39,1.81,1.81,0,0,1-1.52.77h-3.95a2.26,2.26,0,0,1-1.62-.57,2.06,2.06,0,0,1-.6-1.59,1.93,1.93,0,0,1,2.22-2.14Zm-.61.71h-2.87c-1.14,0-1.71.48-1.71,1.43s.57,1.44,1.71,1.44h2.87a1.69,1.69,0,0,0,1.11-.37,1.34,1.34,0,0,0,.47-1.07,1.3,1.3,0,0,0-.47-1A1.6,1.6,0,0,0,454.92,156.73Z"/><path class="cls-62" d="M456.16,150.75a1.49,1.49,0,0,1,.9.26.88.88,0,0,1,.45.77H450.3v.29h-.18a.55.55,0,0,0-.26-.42.85.85,0,0,0-.5-.21v-.69Z"/><path class="cls-63" d="M455.53,142.5a1.81,1.81,0,0,1,1.41.65,2.19,2.19,0,0,1,.57,1.49,2.36,2.36,0,0,1-.46,1.39,1.81,1.81,0,0,1-1.52.77h-3.95a2.26,2.26,0,0,1-1.62-.57,2.06,2.06,0,0,1-.6-1.59c0-1.43.74-2.14,2.22-2.14Zm-.61.71h-2.87c-1.14,0-1.71.48-1.71,1.43s.57,1.44,1.71,1.44h2.87a1.69,1.69,0,0,0,1.11-.37,1.34,1.34,0,0,0,.47-1.07,1.3,1.3,0,0,0-.47-1A1.6,1.6,0,0,0,454.92,143.21Z"/><path class="cls-64" d="M456.16,137.23a1.56,1.56,0,0,1,.9.25.9.9,0,0,1,.45.78H450.3v.29h-.18a.55.55,0,0,0-.26-.42.85.85,0,0,0-.5-.21v-.69Z"/><path class="cls-65" d="M455.53,129a1.78,1.78,0,0,1,1.41.65,2.17,2.17,0,0,1,.57,1.49,2.36,2.36,0,0,1-.46,1.39,1.81,1.81,0,0,1-1.52.77h-3.95a2.26,2.26,0,0,1-1.62-.57,2.06,2.06,0,0,1-.6-1.59c0-1.43.74-2.14,2.22-2.14Zm-.61.71h-2.87c-1.14,0-1.71.48-1.71,1.43s.57,1.44,1.71,1.44h2.87a1.69,1.69,0,0,0,1.11-.37,1.34,1.34,0,0,0,.47-1.07,1.3,1.3,0,0,0-.47-1A1.6,1.6,0,0,0,454.92,129.69Z"/><path class="cls-66" d="M456.16,123.71a1.56,1.56,0,0,1,.9.25.9.9,0,0,1,.45.78H450.3V125h-.18a.55.55,0,0,0-.26-.42.85.85,0,0,0-.5-.21v-.69Z"/><path class="cls-67" d="M456.16,118.43a1.56,1.56,0,0,1,.9.26.88.88,0,0,1,.45.78H450.3v.28h-.18a.58.58,0,0,0-.26-.42.89.89,0,0,0-.5-.2v-.7Z"/><polygon class="cls-68" points="444.7 98.58 452.85 90.43 470.32 90.47 462.2 98.58 444.7 98.58"/><path class="cls-1" d="M383.09,33.4l28.47-16.54h0c4.25-2.53,10.16-2.21,16.7,1.56A37.37,37.37,0,0,1,434.42,23l11.47-6.63h0c6.3-4.43,15.42-4.24,25.58,1.63,12.84,7.41,24,22,29.95,37.45a14,14,0,0,1,6.47,2c8.38,4.84,15.17,16.61,15.17,26.29,0,.21,0,.4,0,.6a18.33,18.33,0,0,1,7.81,2.61c10.72,6.19,19.41,21.24,19.41,33.62,0,6.14-2.14,10.45-5.6,12.51h0l-.09.05h0l-28.1,16.31-6.13-29.52L428.26,72.53c-10.49-6-19.37-19.14-22.36-31.83Z"/><path class="cls-2" d="M400.06,34.79a41.5,41.5,0,0,1,10.27,8.66c4.3-13.82,17.42-18.11,32.95-9.14,12.84,7.41,24,22,30,37.45a13.9,13.9,0,0,1,6.47,2c8.38,4.83,15.17,16.6,15.17,26.28,0,.21,0,.4,0,.6a18.36,18.36,0,0,1,7.81,2.62c10.72,6.19,19.41,21.24,19.41,33.61s-8.69,17.4-19.41,11.21L400.06,88.9c-12.93-7.47-23.42-25.64-23.42-40.58S387.13,27.32,400.06,34.79Z"/><path class="cls-1" d="M187,13.33,167.49,2.39h0c-2.92-1.68-7-1.47-11.46,1a25.25,25.25,0,0,0-4.24,3L143.92,2h0c-4.33-2.92-10.59-2.8-17.57,1.08-8.81,4.9-16.5,14.54-20.57,24.75a9.86,9.86,0,0,0-4.43,1.35c-5.76,3.2-10.42,11-10.42,17.38,0,.13,0,.26,0,.39a13,13,0,0,0-5.36,1.73c-7.36,4.09-13.33,14-13.33,22.22,0,4.06,1.47,6.91,3.85,8.27h0l.06,0h0L95.46,90l4.21-19.51L156,39.19c7.2-4,13.29-12.65,15.34-21Z"/><path class="cls-2" d="M175.38,14.24a28.59,28.59,0,0,0-7,5.72c-3-9.13-12-12-22.62-6-8.82,4.9-16.5,14.54-20.57,24.76A9.74,9.74,0,0,0,120.7,40c-5.75,3.2-10.42,11-10.42,17.37,0,.14,0,.26,0,.4a13,13,0,0,0-5.36,1.73c-7.36,4.09-13.33,14-13.33,22.22s6,11.49,13.33,7.4L175.38,50c8.89-4.93,16.09-16.94,16.09-26.82S184.27,9.31,175.38,14.24Z"/><polygon id="Path-41" data-name="Path" class="cls-16" points="345.65 258.85 323.65 245.85 345.65 232.85 367.65 245.85 345.65 258.85"/><polygon id="Path-42" data-name="Path" class="cls-43" points="345.65 212.85 323.65 199.85 323.65 225.85 345.65 238.85 367.65 225.85 367.65 199.85 345.65 212.85"/><polygon id="Path-43" data-name="Path" class="cls-13" points="345.65 238.85 323.65 225.85 323.65 199.85 345.65 212.85 345.65 238.85"/><polygon id="Path-44" data-name="Path" class="cls-13" points="367.65 225.85 345.65 238.85 345.65 212.85 367.65 199.85 367.65 225.85"/><polygon id="Path-45" data-name="Path" class="cls-13" points="345.65 212.85 323.65 199.85 345.65 186.85 367.65 199.85 345.65 212.85"/><polygon id="Path-46" data-name="Path" class="cls-16" points="345.65 208.85 328.65 199.35 345.65 189.85 362.65 199.35 345.65 208.85"/><polygon id="Path-47" data-name="Path" class="cls-43" points="345.65 174.85 323.65 161.85 323.65 187.85 345.65 200.85 367.65 187.85 367.65 161.85 345.65 174.85"/><polygon id="Path-48" data-name="Path" class="cls-13" points="345.65 200.85 323.65 187.85 323.65 161.85 345.65 174.85 345.65 200.85"/><polygon id="Path-49" data-name="Path" class="cls-13" points="367.65 187.85 345.65 200.85 345.65 174.85 367.65 161.85 367.65 187.85"/><polygon id="Path-50" data-name="Path" class="cls-13" points="345.65 174.85 323.65 161.84 345.65 148.85 367.65 161.84 345.65 174.85"/><path class="cls-13" d="M91.35,481.22a11.85,11.85,0,0,1-5.82-1.4L54.62,462c-1.6-.93-2.49-2.18-2.49-3.52s.89-2.59,2.49-3.52L85.53,437.1a12.86,12.86,0,0,1,11.65,0l30.91,17.84c1.6.93,2.49,2.18,2.49,3.52s-.89,2.59-2.49,3.52L97.18,479.82A11.91,11.91,0,0,1,91.35,481.22Zm-5.55-1.86a12.35,12.35,0,0,0,11.11,0l30.91-17.85a3.21,3.21,0,0,0,0-6.1L96.91,437.56a12.35,12.35,0,0,0-11.11,0L54.89,455.41a3.21,3.21,0,0,0,0,6.1Z"/><path class="cls-69" d="M131.54,451.61V441L129.6,440c-.54,3.3-4.43,5.48-7.69,5.93l-22.14,13-9.67,3.49L59.25,446.4,60,446c-2.63-1.23-4.05-4.05-5.48-6.62l-2.08,1.24-1.23.35v10.76h0c0,1.37.9,2.75,2.71,3.79l30.91,17.85a14.53,14.53,0,0,0,13.13,0l30.91-17.85c1.78-1,2.68-2.37,2.71-3.72a1.09,1.09,0,0,0,0-.18Z"/><path class="cls-13" d="M131.54,442.2v-7l-1.94-1.08c-.54,3.31-4.43,5.48-7.69,5.94L99.77,453,90.1,456.5,59.25,440.58l.71-.41c-2.63-1.24-4.05-4.05-5.48-6.62l-2.08,1.24-1.23.34v7.18h0c0,1.38.9,2.75,2.71,3.79L84.79,464a14.53,14.53,0,0,0,13.13,0l30.91-17.85c1.78-1,2.68-2.37,2.71-3.72a1.09,1.09,0,0,0,0-.18Z"/><path class="cls-70" d="M121.91,440.06,99.77,453l-8.42,3v9.47A13.49,13.49,0,0,0,97.92,464l30.91-17.85c1.78-1,2.68-2.37,2.71-3.72a1.09,1.09,0,0,0,0-.18h0v-7l-1.77-1h-.19C129,437.47,125.13,439.61,121.91,440.06Z"/><path class="cls-13" d="M84.79,456.83,53.88,439c-3.62-2.09-3.62-5.49,0-7.58l30.91-17.84a14.53,14.53,0,0,1,13.13,0l30.91,17.84c3.61,2.09,3.61,5.49,0,7.58L97.92,456.83A14.53,14.53,0,0,1,84.79,456.83Z"/><path class="cls-13" d="M84.79,456.83,53.88,439c-3.62-2.09-3.62-5.49,0-7.58l30.91-17.84a14.53,14.53,0,0,1,13.13,0l30.91,17.84c3.61,2.09,3.61,5.49,0,7.58L97.92,456.83A14.53,14.53,0,0,1,84.79,456.83Z"/><g class="cls-71"><path class="cls-13" d="M84.79,456.83,53.88,439c-3.62-2.09-3.62-5.49,0-7.58l30.91-17.84a14.53,14.53,0,0,1,13.13,0l30.91,17.84c3.61,2.09,3.61,5.49,0,7.58L97.92,456.83A14.53,14.53,0,0,1,84.79,456.83Z"/></g><path class="cls-13" d="M128.83,439,97.92,456.83a14.53,14.53,0,0,1-13.13,0L53.88,439a4.9,4.9,0,0,1-2.68-3.35c-.21,1.51.68,3.07,2.68,4.22l30.91,17.85a14.53,14.53,0,0,0,13.13,0l30.91-17.85c2-1.15,2.89-2.71,2.68-4.22A4.91,4.91,0,0,1,128.83,439Z"/><path class="cls-2" d="M69.91,379.35v36.93h0a2.56,2.56,0,0,0,1.48,2.14l30.69,17.71c2.21,1.28,6.06,1.12,8.61-.35h0c1.43-.83,2.15-1.89,2.11-2.89h0V396Z"/><path class="cls-2" d="M104.38,436.87a10.13,10.13,0,0,0,6.31-1.09c1.43-.83,2.15-1.89,2.11-2.89h0V396l-8.27-3.2h-.15Z"/><path class="cls-2" d="M102.08,399.2,71.39,381.49c-2.2-1.28-1.93-3.5.62-5h0c2.55-1.47,6.41-1.63,8.62-.35l30.68,17.71c2.21,1.28,1.93,3.51-.62,5h0C108.14,400.32,104.29,400.48,102.08,399.2Z"/><path class="cls-2" d="M105.14,396.83a2.65,2.65,0,0,1-2.65-2.65V377.77c0-5.6-4.09-12.69-8.94-15.48l-7-4.07c-1.86-1.07-3.54-1.34-4.61-.72s-1.68,2.2-1.68,4.35v16.41a2.65,2.65,0,0,1-5.3,0V361.85c0-4.15,1.53-7.33,4.33-8.94s6.31-1.36,9.91.72l7,4.06c6.5,3.76,11.59,12.57,11.59,20.08v16.41A2.65,2.65,0,0,1,105.14,396.83Z"/></g></g></svg>
