<?xml version="1.0" encoding="UTF-8"?>
<svg width="590px" height="356px" viewBox="0 0 590 356" version="1.1" xmlns="http://www.w3.org/2000/svg" xmlns:xlink="http://www.w3.org/1999/xlink">
    <g id="Page-1" stroke="none" stroke-width="1" fill="none" fill-rule="evenodd">
        <g id="Desktop-HD-Copy-3" transform="translate(-829.000000, -216.000000)">
            <g id="test" transform="translate(830.000000, 217.000000)">
                <path d="M568.870983,315.845262 L469.903118,315.845262 L398.466867,274.532326 L398.388934,274.487382 L339.24721,274.487382 L258.378701,227.722037 L266.918272,222.782935 L343.835812,267.265601 L343.913745,267.310545 L411.786331,267.310545 L444.848829,286.428275 C443.998651,287.107165 444.093115,288.058084 445.148753,288.668375 C446.329557,289.3449 448.218842,289.3449 449.399646,288.668375 C450.580449,287.991851 450.580449,286.891907 449.399646,286.215383 C448.341646,285.602726 446.697967,285.54832 445.52661,286.040338 L412.053192,266.683696 L411.975259,266.638752 L344.102674,266.638752 L332.719728,260.058014 L423.429053,260.058014 L495.151059,218.577129 C496.331862,219.069147 497.966094,219.014741 499.021732,218.402085 C500.202536,217.72556 500.202536,216.627982 499.021732,215.949092 C497.840929,215.270202 495.951643,215.272568 494.77084,215.949092 C493.715201,216.561749 493.620737,217.512668 494.468554,218.189192 L423.242486,259.383855 L331.550732,259.383855 L302.859569,242.792447 L314.131519,236.273212 L334.131969,236.273212 L352.857151,225.444089 C354.037954,225.936107 355.674548,225.879336 356.730186,225.269044 C357.91099,224.59252 357.91099,223.492576 356.730186,222.816052 C355.549383,222.139527 353.660097,222.139527 352.479294,222.816052 C351.421294,223.426343 351.32683,224.377262 352.177008,225.056152 L333.940679,235.601418 L315.283983,235.601418 L358.886334,210.394968 L399.189519,210.394968 L421.669656,223.405054 C420.821839,224.083944 420.916304,225.034863 421.971942,225.645154 C423.152745,226.324044 425.042031,226.324044 426.222834,225.645154 C427.403638,224.966264 427.403638,223.868686 426.222834,223.192162 C425.167196,222.58187 423.523518,222.527465 422.349799,223.017117 L399.456381,209.770484 L399.378448,209.72554 L358.699767,209.72554 L302.188872,242.406876 L278.168967,228.514469 L291.429391,228.514469 L302.103854,222.340592 C303.284658,222.853899 304.951953,222.813686 306.024122,222.186837 C307.204926,221.510312 307.204926,220.412734 306.024122,219.733844 C304.843319,219.054954 302.954033,219.05732 301.773229,219.733844 C300.731761,220.337039 300.623127,221.2714 301.43552,221.947924 L291.242824,227.84031 L276.999972,227.84031 L267.581883,222.399729 L287.69569,210.768712 L281.399646,207.130619 L316.094014,187.066702 L327.665889,187.066702 L341.483651,195.05726 C340.635835,195.73615 340.730299,196.687069 341.785937,197.29736 C342.966741,197.973884 344.856026,197.973884 346.03683,197.29736 C347.217633,196.620835 347.217633,195.520892 346.03683,194.844367 C344.981191,194.234076 343.337513,194.177305 342.163794,194.669323 L327.93275,186.439852 L327.857179,186.394908 L315.905086,186.394908 L290.706739,200.961473 L290.706739,187.613125 L314.344064,173.943073 C315.524867,174.435091 317.159099,174.380685 318.217099,173.770394 C319.397903,173.091504 319.397903,171.993926 318.217099,171.315036 C317.036296,170.636146 315.14701,170.638511 313.966207,171.315036 C312.910568,171.927693 312.816104,172.878612 313.663921,173.555136 L290.026596,187.225188 L290.026596,201.34941 L280.721865,206.730855 L247.999438,187.807094 L263.179848,179.026469 L282.863842,179.026469 L313.987461,161.027606 L337.603531,161.027606 L370.429869,180.015235 C369.582052,180.694125 369.676516,181.645044 370.732154,182.255335 C371.912958,182.93186 373.802244,182.93186 374.983047,182.255335 C376.163851,181.578811 376.163851,180.478867 374.983047,179.802343 C373.927409,179.189686 372.28373,179.137646 371.112373,179.627298 L337.868031,160.403122 L337.790098,160.355813 L313.815064,160.355813 L282.691445,178.354675 L264.348843,178.354675 L355.542298,125.618884 L419.964576,125.618884 L460.553516,102.146323 L460.72119,102.049339 L460.72119,65.9617264 C461.553725,66.0256345 462.387465,65.8543521 463.127667,65.4673432 C464.308471,64.7908187 464.308471,63.6932405 463.127667,63.0143506 C461.946864,62.3354607 460.057578,62.3378262 458.876775,63.0143506 C457.695971,63.6908751 457.695971,64.7908187 458.876775,65.4673432 C459.239569,65.6678669 459.632964,65.806939 460.041047,65.878935 L460.041047,101.661402 L419.778009,124.94709 L355.35337,124.94709 L247.333465,187.419157 L235.074363,180.322746 L344.142821,117.24985 L344.310495,117.152866 L344.310495,79.46383 L381.623886,57.8836459 C382.804689,58.3732982 384.438922,58.3188924 385.496921,57.7086011 C386.677725,57.0320766 386.677725,55.932133 385.496921,55.2556085 C384.316118,54.5790841 382.426832,54.5767186 381.246029,55.2556085 C380.190391,55.8658998 380.095926,56.8168188 380.946105,57.4957088 L343.795665,78.9765432 L343.627991,79.0735274 L343.627991,116.76966 L234.391858,179.927713 L221.514015,172.481213 L285.494672,135.480529 L285.662346,135.383544 L285.662346,103.049933 L175.767325,39.4873845 C176.615142,38.8084946 176.520678,37.8575756 175.46504,37.2472843 C174.284236,36.5707598 172.394951,36.5707598 171.214147,37.2472843 C170.033344,37.9238088 170.033344,39.0237524 171.214147,39.7002768 C172.269785,40.3105681 173.913464,40.3673394 175.084821,39.8753216 L255.89429,86.6075499 L231.612247,86.6075499 L188.038236,61.4176583 C188.888414,60.7387683 188.79395,59.7878493 187.73595,59.177558 C186.555146,58.5010336 184.665861,58.5010336 183.485057,59.177558 C182.304254,59.8540825 182.304254,60.9540261 183.485057,61.6305506 C184.540696,62.2408419 186.184374,62.2976132 187.358093,61.8055954 L231.359555,87.2343995 L231.437488,87.2793434 L257.072732,87.2793434 L285.00582,103.433139 L285.00582,135.007435 L233.496809,164.788704 L233.496809,148.748451 L265.142343,130.446808 L265.310017,130.347458 L265.310017,114.101409 C265.934577,114.076328 266.545193,113.908862 267.095392,113.611757 C268.276196,112.935233 268.276196,111.837654 267.095392,111.158765 C265.914589,110.479875 264.025303,110.48224 262.844499,111.158765 C261.663696,111.835289 261.663696,112.935233 262.844499,113.611757 C263.394698,113.908862 264.005315,114.076328 264.629874,114.101409 L264.629874,129.950059 L232.98434,148.251702 L232.816666,148.351052 L232.816666,165.17191 L220.843319,172.095641 L207.618319,164.452807 L199.588855,169.089128 L199.588855,134.063612 L227.500689,117.921644 C228.681492,118.411296 230.318086,118.35689 231.373724,117.746599 C232.554528,117.070074 232.554528,115.970131 231.373724,115.293606 C230.192921,114.617082 228.303635,114.614716 227.122832,115.293606 C226.064832,115.903898 225.970367,116.854817 226.820546,117.531341 L199.109449,133.576325 L198.941775,133.675675 L198.941775,147.970211 L178.072254,135.906313 L178.072254,122.340342 L223.589868,96.0173901 C224.770671,96.5094079 226.404903,96.4550021 227.460541,95.8447108 C228.641345,95.1658209 228.641345,94.0682427 227.460541,93.3893528 C226.279738,92.7104628 224.390452,92.7128283 223.209649,93.3893528 C222.154011,94.0020095 222.059546,94.9505631 222.907363,95.629453 L177.564508,121.853055 L177.396834,121.952405 L177.396834,136.289519 L198.937052,148.748451 L198.937052,169.488893 L187.51632,176.093286 L177.857348,170.508411 L177.857348,157.822394 L163.215384,149.356376 C164.063201,148.677487 163.968737,147.726568 162.913098,147.116276 C161.732295,146.437386 159.843009,146.437386 158.662206,147.116276 C157.481402,147.795166 157.481402,148.892744 158.662206,149.569269 C159.717844,150.17956 161.361523,150.233966 162.53288,149.744314 L177.174843,158.210331 L177.174843,170.118108 L145.260086,151.653248 L145.260086,123.842415 L193.311704,96.0552376 L193.479378,95.9582534 L193.479378,85.486317 L166.304366,69.7724988 C167.152183,69.0936089 167.057719,68.1426899 166.00208,67.5323986 C164.821277,66.8558741 162.931991,66.8535087 161.751188,67.5323986 C160.570384,68.2112885 160.570384,69.3088667 161.751188,69.9853911 C162.806826,70.5956824 164.450505,70.6500883 165.624223,70.1604359 L192.796874,85.8742541 L192.796874,95.5726817 L144.754702,123.357494 L144.587028,123.454478 L144.587028,152.041185 L186.859794,176.481223 L178.320223,181.420324 L123.514409,149.723024 L123.514409,97.5762349 L107.514521,88.3248812 L107.514521,40.3815322 L41.8264219,2.40154357 C42.2680424,1.77469398 42.0507746,1.02720541 41.1698951,0.509167449 C39.9890916,-0.169722483 38.099806,-0.169722483 36.9190025,0.509167449 C35.738199,1.18805738 35.738199,2.28563553 36.9190025,2.96215999 C38.099806,3.63868445 39.9890916,3.63868445 41.1698951,2.96215999 C41.2194889,2.93140888 41.2572746,2.8982923 41.3045067,2.86754119 L106.829655,40.7694694 L106.829655,87.9369441 L21.2143158,38.4252884 L21.2143158,39.2011626 L122.831904,97.964172 L122.831904,150.122789 L177.64008,181.820089 L167.94096,187.428618 L114.587534,156.563964 L114.75757,156.270646 L63.9830189,126.915161 L63.9830189,120.495275 L53.6793275,114.539021 L53.6793275,96.1735111 L21.2143158,77.3940436 L21.2143158,78.1722833 L53.0180775,96.5614482 L53.0180775,114.148719 L39.8993506,106.562656 C40.7471675,105.886132 40.6527032,104.935213 39.5970649,104.324921 C38.4162614,103.646031 36.5269757,103.646031 35.3461722,104.324921 C34.1653687,105.003811 34.1653687,106.099024 35.3461722,106.777914 C36.4018106,107.388205 38.045489,107.442611 39.2168461,106.950593 L63.3052377,120.883212 L63.3052377,127.303098 L113.659423,156.422036 L90.2795131,156.422036 L21.2143158,116.476341 L21.2143158,117.242754 L88.9546515,156.422036 L21.9912845,156.422036 C22.2274452,155.856688 21.9629453,155.239301 21.1977846,154.794592 C20.0169811,154.115702 18.1276955,154.115702 16.946892,154.794592 C15.7660884,155.473482 15.7660884,156.57106 16.946892,157.247585 C18.1276955,157.924109 20.0169811,157.924109 21.1977846,157.247585 C21.2497399,157.216834 21.285164,157.183717 21.3323962,157.152966 L21.3843515,157.096195 L114.162445,157.096195 L167.267902,187.804728 L157.221626,193.616688 L118.727431,171.352883 L118.649498,171.307939 L5.92763361,171.307939 C5.76234464,170.952681 5.48411313,170.662348 5.13649526,170.48239 C3.95569175,169.805866 2.06640614,169.805866 0.885602632,170.48239 C-0.295200877,171.158915 -0.295200877,172.258858 0.885602632,172.935383 C2.06640614,173.611907 3.95569175,173.614273 5.13649526,172.935383 C5.18321411,172.906567 5.22816536,172.874971 5.27110686,172.840764 L5.79302201,172.36767 C5.87453443,172.251611 5.93453067,172.121808 5.97014254,171.984464 L90.2606202,171.984464 L69.2635722,184.126422 L42.3152745,184.126422 C42.1549198,183.751073 41.8682951,183.443892 41.5052433,183.258295 C40.3244398,182.58177 38.4351542,182.58177 37.2543507,183.258295 C36.0735472,183.934819 36.0735472,185.034763 37.2543507,185.713653 C38.4351542,186.392543 40.3244398,186.390177 41.5052433,185.713653 C41.5571987,185.682902 41.5926228,185.649785 41.6398549,185.616668 L42.1617701,185.143574 C42.2346586,185.038732 42.290458,184.922959 42.3270826,184.800581 L69.4430543,184.800581 L91.6043746,171.984464 L118.474739,171.984464 L156.560376,194.009356 L147.716157,199.123503 L114.013664,179.632029 L113.935731,179.587085 L100.351767,179.587085 L72.8083443,195.509064 L15.4071242,195.509064 C15.2529808,195.116979 14.9593791,194.795932 14.5829233,194.60782 C13.4021198,193.931296 11.5128342,193.931296 10.3320307,194.60782 C9.15122719,195.284345 9.15122719,196.384288 10.3320307,197.063178 C11.5128342,197.742068 13.4021198,197.739703 14.5829233,197.063178 C14.6348787,197.032427 14.6703028,196.999311 14.7175349,196.966194 L15.2394501,196.4931 C15.3057626,196.397704 15.3582399,196.293374 15.3953161,196.183223 L72.9901881,196.183223 L100.526526,180.254148 L113.751525,180.254148 L138.217774,194.406755 L125.982288,194.406755 L114.044364,187.497217 L104.777419,187.497217 L84.1558661,199.421552 C82.9868706,198.948458 81.385701,199.028884 80.3489556,199.627348 C79.168152,200.303872 79.168152,201.403816 80.3489556,202.080341 C81.5297591,202.756865 83.4190447,202.756865 84.5998482,202.080341 C85.676741,201.458222 85.7523124,200.483648 84.8478169,199.802393 L104.966347,188.169011 L113.874329,188.169011 L125.795721,195.078549 L139.374961,195.078549 L147.02893,199.506709 L134.587984,206.704835 L116.231213,206.704835 L93.4983834,219.849752 C92.3175799,219.357735 90.6833479,219.414506 89.6277095,220.024797 C88.446906,220.701322 88.446906,221.801265 89.6277095,222.47779 C90.808513,223.154314 92.6977986,223.154314 93.8786022,222.47779 C94.9342405,221.867498 95.0287048,220.916579 94.1808879,220.237689 L116.410695,207.367166 L133.414265,207.367166 L127.559841,210.752154 L136.659113,216.022422 L112.05353,230.255455 L86.1703168,230.255455 L58.8701397,214.463577 C59.7203183,213.784687 59.625854,212.836133 58.5702156,212.223477 C57.3894121,211.546952 55.5001265,211.546952 54.319323,212.223477 C53.1385195,212.900001 53.1385195,213.999945 54.319323,214.676469 C55.3773229,215.289126 57.0210014,215.343532 58.1923585,214.851514 L72.2604515,222.979269 L54.2768141,222.979269 L54.2768141,223.752778 L54.4492114,223.653428 L73.4223622,223.653428 L85.9129017,230.877574 L85.9908347,230.922518 L110.891619,230.922518 L100.684754,236.824366 L42.1168995,236.824366 L27.0026146,245.576606 L21.2143158,245.576606 L21.2143158,246.250765 L25.8359808,246.250765 L21.2143158,248.92138 L21.2143158,249.69962 L42.2963817,237.507987 L100.864236,237.507987 L137.339256,216.41509 L154.342827,226.245984 L111.904749,250.78064 L66.235992,250.78064 L39.4175827,266.030826 C38.5147271,265.923621 37.6004566,266.088327 36.7914757,266.50392 C35.6106722,267.18281 35.6106722,268.280388 36.7914757,268.959278 C37.9722792,269.638168 39.8615648,269.635802 41.0423684,268.959278 C41.0943237,268.928527 41.1297478,268.89541 41.17698,268.862294 L41.6988951,268.3892 C42.1405156,267.76235 41.9232478,267.017227 41.0423684,266.496824 C40.8440489,266.386953 40.6351701,266.2974 40.4189041,266.229525 L66.4249206,251.431144 L110.752284,251.431144 L54.7019033,283.838085 L54.7019033,309.787293 L22.5840479,328.365695 C21.4859006,328.08657 20.1586775,328.202478 19.2589052,328.722881 C18.0781017,329.399406 18.0781017,330.499349 19.2589052,331.175874 C20.4397087,331.852398 22.3289943,331.854764 23.5097979,331.175874 C23.5593916,331.147488 23.5971773,331.112006 23.6420479,331.081255 L24.163963,330.608161 C24.6079451,329.981311 24.4001237,329.233823 23.5097979,328.715785 C23.4767354,328.696861 23.436588,328.682668 23.4011639,328.66611 L55.3867694,310.168133 L55.3867694,284.244946 L155.032416,226.622093 L169.657848,235.081015 L109.736793,269.720959 L109.736793,321.870114 L59.0472603,351.168828 C58.9845073,351.121675 58.919058,351.078234 58.8512469,351.038727 C57.6704434,350.359837 55.7811577,350.359837 54.6003542,351.038727 C53.4195507,351.717617 53.4195507,352.812829 54.6003542,353.491719 C55.7811577,354.170609 57.6704434,354.168244 58.8512469,353.491719 C58.9032022,353.460968 58.9386263,353.427852 58.9858585,353.3971 L59.5077736,352.924006 C59.789241,352.554649 59.8016299,352.045873 59.5384745,351.663211 L110.416936,322.260417 L110.416936,270.108897 L170.30729,235.476048 L179.333352,240.694275 L134.956395,266.357261 L134.956395,327.476279 L95.718294,349.855992 C94.5847227,349.503537 93.1441424,349.59579 92.1758835,350.14931 C90.99508,350.8282 90.99508,351.925778 92.1758835,352.602302 C93.356687,353.278827 95.2459726,353.281192 96.4267761,352.602302 C96.473495,352.573487 96.5184462,352.541891 96.5613877,352.507684 L97.0833029,352.03459 C97.515477,351.424298 97.3194636,350.700464 96.4858163,350.191888 L135.629453,327.866581 L135.629453,266.740467 L180.00641,241.077481 L192.182856,248.119486 L158.22767,267.752888 L158.22767,331.937555 L158.900728,331.937555 L158.900728,310.047494 L175.925553,319.892581 L175.925553,341.399436 L176.598611,341.399436 L176.598611,319.504644 L158.900728,309.27162 L158.900728,291.246738 L181.293486,304.200052 C180.509432,304.874211 180.632236,305.794379 181.664258,306.390478 C182.845062,307.067002 184.734347,307.067002 185.915151,306.390478 C187.095954,305.713953 187.095954,304.61401 185.915151,303.937485 C184.831173,303.310636 183.135539,303.270423 181.959459,303.802653 L158.90309,290.468498 L158.90309,268.159749 L192.855914,248.526347 L203.700413,254.797208 L187.197503,264.325322 L187.197503,278.380946 L191.363378,280.79136 L191.363378,287.956369 L221.105457,305.155702 L221.105457,317.300026 L245.319014,331.303609 C244.471197,331.982499 244.565661,332.931053 245.621299,333.541344 C246.802103,334.220234 248.691389,334.220234 249.872192,333.541344 C251.052996,332.862454 251.052996,331.767241 249.872192,331.088351 C248.816554,330.47806 247.172875,330.423654 245.999157,330.915672 L221.7856,316.912089 L221.7856,304.767765 L192.043521,287.568432 L192.043521,281.181662 L242.034018,310.090073 C241.249965,310.764232 241.372768,311.6844 242.402429,312.280498 C243.583233,312.959388 245.472518,312.959388 246.653322,312.280498 C247.834125,311.601608 247.834125,310.50403 246.653322,309.827506 C245.569344,309.200656 243.87371,309.160443 242.695268,309.692674 L202.618797,286.511067 L222.730243,286.511067 L245.765357,299.857049 C244.917541,300.533574 245.012005,301.484493 246.067643,302.097149 C247.248447,302.773674 249.137732,302.773674 250.318536,302.097149 C251.499339,301.420625 251.499339,300.320681 250.318536,299.641791 C249.262897,299.0315 247.619219,298.977094 246.447862,299.469112 L222.973488,285.893679 L222.895555,285.848735 L201.499396,285.848735 L201.499396,285.884217 L187.865838,278.000105 L187.865838,264.720356 L204.366386,255.178049 L207.639574,257.070425 L211.890466,254.612702 L281.172931,294.676669 L281.250865,294.721613 L300.143721,294.721613 C300.300333,295.108286 300.591438,295.425075 300.963198,295.613396 C302.144002,296.28992 304.033287,296.28992 305.214091,295.613396 C306.394894,294.936871 306.394894,293.836928 305.214091,293.160403 C304.033287,292.483879 302.144002,292.481513 300.963198,293.160403 C300.591203,293.34727 300.299889,293.663446 300.143721,294.04982 L281.425623,294.04982 L212.563524,254.215303 L223.09393,248.124217 L280.667548,281.420575 C279.819731,282.097099 279.914195,283.048018 280.969833,283.65831 C282.150637,284.337199 284.039922,284.337199 285.220726,283.65831 C286.401529,282.97942 286.401529,281.884207 285.220726,281.205317 C284.165088,280.595026 282.521409,280.54062 281.34769,281.030272 L223.766988,247.73628 L234.677613,241.427571 L316.034974,288.476772 L316.034974,327.864216 L292.619641,341.406532 L293.963395,341.406532 L307.918131,333.335548 L321.872867,341.406532 L323.226068,341.406532 L308.584104,332.947611 L316.700947,328.254518 L316.700947,297.266859 L330.454947,305.221935 L330.454947,324.56675 L331.125643,324.178813 L331.125643,304.831633 L316.700947,296.490985 L316.700947,288.079373 L235.350671,241.039634 L247.335826,234.108806 L405.051028,325.314239 L405.051028,341.399436 L405.721724,341.399436 L405.721724,324.931033 L248.006523,233.718504 L257.705643,228.109974 L338.989794,275.114231 L339.065366,275.161541 L398.20709,275.161541 L424.302848,290.248509 L424.146982,290.248509 L424.146982,306.279301 L453.695409,323.367457 C452.847592,324.046347 452.942056,324.997266 453.997695,325.607557 C455.178498,326.284082 457.067784,326.284082 458.248587,325.607557 C459.429391,324.931033 459.429391,323.833455 458.248587,323.154565 C457.192949,322.544273 455.54927,322.489867 454.377913,322.97952 L424.827125,305.891363 L424.827125,290.546559 L469.645703,316.472111 L469.721274,316.517055 L569.050465,316.517055 L588,305.557832 L588,304.779592 L568.870983,315.845262 Z M207.639574,256.287454 L128.915404,210.761616 L207.637212,165.238143 L286.35902,210.763981 L207.639574,256.287454 Z" id="Shape" stroke="#52C7EA" stroke-width="0.8" opacity="0.5"></path>
                <path d="M20.721801,82.1892811 L34.1924044,89.9797523 L34.1924044,116.067892 L158.594609,187.987761 L150.947087,192.408357 L86.8341047,155.344456 L86.7726598,155.308959 L40.1265597,155.308959 L20.721801,144.091816 L20.721801,144.704736 L39.9209558,155.803555 L39.9824006,155.839052 L86.630864,155.839052 L150.427169,192.716 L143.691867,196.608869 L83.0103439,161.535183 L82.9488991,161.499686 L29.4138851,161.499686 L20.721801,156.47327 L20.721801,157.08619 L29.2106444,161.994282 L29.2720893,162.029779 L82.8071032,162.029779 L91.7875055,167.219482 L20.721801,167.219482 L20.721801,167.749575 L92.7020886,167.749575 L115.330339,180.833875 L106.439741,185.973882 L90.6673185,185.973882 L75.8945567,194.514529 C74.903683,194.12288 73.7930629,194.172805 72.84122,194.651785 C71.9171838,195.186611 71.9171838,196.052745 72.84122,196.587571 C73.8933477,197.119879 75.1354737,197.119879 76.1876014,196.587571 C77.0218335,196.114274 77.0950947,195.354632 76.4239278,194.819806 L90.8067511,186.506341 L105.525158,186.506341 L71.1514864,206.384822 L39.3537725,206.384822 L16.9027668,196.126106 C17.5715704,195.59128 17.495946,194.843471 16.6664404,194.360708 C16.4561736,194.244933 16.2322957,194.155895 16,194.095661 L16,196.537875 C16.1263189,196.510214 16.2509816,196.475451 16.3733957,196.433749 L39.1599848,206.872318 L39.2214297,206.907815 L71.2885557,206.907815 L115.85971,181.139152 L134.803632,192.091248 L124.34619,192.091248 L115.923518,196.963842 C114.924057,196.555301 113.797029,196.599304 112.832369,197.084533 C111.910696,197.619359 111.910696,198.485492 112.832369,199.017952 C113.883034,199.552899 115.125722,199.552899 116.176388,199.017952 C116.998803,198.544655 117.086244,197.806311 116.4458,197.273852 L124.480896,192.626074 L135.713489,192.626074 L143.14359,196.921245 L127.676029,205.861829 L127.279001,206.098477 L132.241855,208.971391 L104.891803,224.781883 L95.7625152,224.781883 L84.8631427,218.482297 C85.5319463,217.947472 85.4586852,217.197296 84.6268163,216.716899 C83.5753263,216.181918 82.3319249,216.181918 81.2804348,216.716899 C80.3563987,217.249358 80.3563987,218.115492 81.2804348,218.650318 C82.1146669,219.123615 83.4073722,219.175678 84.3337716,218.787574 L95.5592745,225.278845 L95.6207193,225.314342 L105.035962,225.314342 L124.920463,213.817954 L124.920463,224.341716 L106.276676,235.121059 C105.350276,234.735322 104.055208,234.777919 103.220976,235.258315 C102.296939,235.793141 102.296939,236.659275 103.220976,237.194101 C104.272466,237.729082 105.515867,237.729082 106.567357,237.194101 C107.401589,236.720803 107.47485,235.963528 106.803683,235.428702 L125.447471,224.651726 L125.447471,213.512677 L132.785405,209.269568 L158.596972,224.178429 L146.622315,231.112232 L131.098035,231.112232 L106.548451,245.311147 L87.9235693,245.311147 L62.0245617,230.331292 C62.6933654,229.796466 62.6177409,229.048657 61.7882353,228.565893 C60.7367453,228.030912 59.4933439,228.030912 58.4418539,228.565893 C57.5178177,229.100719 57.5178177,229.966853 58.4418539,230.501679 C59.276086,230.974976 60.5687912,231.024672 61.4951906,230.638935 L87.7274184,245.801009 L87.7888632,245.83414 L106.694973,245.83414 L131.244557,231.635225 L145.700642,231.635225 L73.7794357,273.226213 L22.9692648,273.226213 L20.7265275,274.523048 L20.7265275,275.135967 L23.1134239,273.758673 L73.9235948,273.758673 L159.126343,224.497904 L168.796818,230.094643 L82.7740175,279.828709 L82.6416748,279.906803 L82.6416748,309.629864 L53.2048614,326.647264 C52.278462,326.261526 50.9833934,326.304123 50.1491613,326.786886 C49.2274885,327.319346 49.2274885,328.185479 50.1491613,328.720305 C51.2006514,329.255286 52.4440528,329.255286 53.4955428,328.720305 C54.3297749,328.247008 54.4030361,327.489733 53.7318692,326.954907 L83.1639561,309.937507 L83.1639561,280.207346 L169.333279,230.395187 L179.495313,236.266438 L129.018363,265.440475 L128.88602,265.518569 L128.88602,291.026919 L215.322392,341 L219.198145,341 L219.167422,340.976335 C218.33319,340.503038 217.040485,340.450975 216.111722,340.839079 L152.374499,303.990529 L171.533478,303.990529 L205.902423,323.869009 C205.233619,324.403835 205.30688,325.154011 206.138749,325.634408 C207.190239,326.169389 208.433641,326.169389 209.485131,325.634408 C210.409167,325.099582 210.409167,324.233448 209.485131,323.700989 C208.650898,323.227692 207.358193,323.175629 206.429431,323.561366 L171.734355,303.503033 L171.67291,303.467535 L151.450462,303.467535 L129.417754,290.731109 L129.417754,265.828579 L170.042258,242.336474 L170.042258,254.990074 L144.946761,269.496632 L144.946761,282.308786 C144.451209,282.329314 143.966608,282.461144 143.528802,282.694523 C142.604766,283.229349 142.604766,284.095483 143.528802,284.627942 C144.580292,285.162923 145.823694,285.162923 146.875184,284.627942 C147.79922,284.095483 147.79922,283.229349 146.875184,282.694523 C146.43765,282.460459 145.952889,282.328586 145.457226,282.308786 L145.457226,269.804275 L170.552723,255.29535 L170.552723,242.04303 L180.005778,236.583547 L190.297792,242.535259 L190.430135,242.610987 L196.756592,238.9524 L196.756592,266.581121 L174.740427,279.308082 C173.814027,278.922345 172.518959,278.964941 171.684727,279.447704 C170.760691,279.980164 170.760691,280.846298 171.684727,281.381123 C172.736217,281.916105 173.979618,281.916105 175.031108,281.381123 C175.86534,280.907826 175.938601,280.150551 175.267435,279.615725 L197.2836,266.886398 L197.2836,255.614826 L213.762638,265.118633 L213.762638,275.812782 L177.855208,296.569229 C176.931172,296.181126 175.63374,296.223722 174.801872,296.706485 C173.877835,297.241311 173.877835,298.105078 174.801872,298.639904 C175.853362,299.174885 177.096763,299.174885 178.148253,298.639904 C178.980122,298.166607 179.055746,297.409332 178.384579,296.874506 L214.150213,276.196153 L214.282556,276.120425 L214.282556,264.813356 L197.293053,254.990074 L197.293053,238.63529 L206.299451,233.429022 L213.918613,237.833052 L213.918613,247.843287 L225.46552,254.516777 C224.794353,255.051602 224.869978,255.801778 225.701846,256.282175 C226.752787,256.815972 227.994925,256.815972 229.045865,256.282175 C229.969901,255.747349 229.969901,254.881215 229.045865,254.34639 C228.213996,253.873092 226.918927,253.82103 225.992528,254.209133 L214.445621,247.533277 L214.445621,238.140695 L239.633286,252.701682 L239.633286,274.629539 L201.731262,296.540831 L201.598919,296.618925 L201.598919,304.875594 L223.033722,317.266514 C222.364918,317.80134 222.438179,318.551516 223.270048,319.031912 C224.321538,319.566894 225.56494,319.566894 226.61643,319.031912 C227.540466,318.499453 227.540466,317.633319 226.61643,317.098493 C225.782197,316.625196 224.489492,316.573134 223.563093,316.961237 L202.12829,304.567951 L202.12829,296.924202 L240.027951,275.01291 L240.160294,274.937183 L240.160294,252.394039 L206.833549,233.121379 L213.56885,229.226143 L256.797671,254.218599 L256.797671,295.341023 L269.4175,302.634532 L269.4175,340.439143 L270.386438,341 L271.447543,341 L269.949234,340.1315 L269.949234,302.942175 L335.777946,341 L336.839051,341 L257.329405,295.03338 L257.329405,253.913323 L214.098221,228.9114 L221.748106,224.488438 L263.828381,248.818279 L263.696038,249.054927 L303.736816,272.21809 L303.736816,277.277637 L311.86408,281.977478 L311.86408,296.458004 L371.640473,331.008697 C370.969307,331.543523 371.044931,332.293699 371.8768,332.774095 C372.927465,333.309043 374.170153,333.309043 375.220818,332.774095 C376.144854,332.241636 376.144854,331.375502 375.220818,330.840676 C374.388949,330.367379 373.093881,330.315317 372.167481,330.70342 L312.391088,296.152728 L312.391088,282.285121 L322.737456,288.267597 C322.068653,288.802423 322.141914,289.552599 322.973783,290.032995 C324.025273,290.567977 325.268674,290.567977 326.320164,290.032995 C327.2442,289.49817 327.2442,288.632036 326.320164,288.099577 C325.485932,287.626279 324.193227,287.574217 323.264464,287.96232 L304.27564,276.951062 L304.27564,271.889149 L264.572809,248.934237 L283.006266,248.934237 L362.428471,294.844061 L362.428471,306.85161 L393.897692,325.042786 C393.228888,325.577612 393.302149,326.327788 394.134018,326.810551 C395.185322,327.342822 396.426732,327.342822 397.478036,326.810551 C398.402072,326.275725 398.402072,325.409592 397.478036,324.874766 C396.646167,324.401469 395.351099,324.351772 394.424699,324.73751 L362.955479,306.543967 L362.955479,294.538784 L284.067372,248.929504 L337.791447,248.929504 L402.379445,286.270283 L402.44089,286.30578 L477.975526,286.30578 L522.251273,260.70987 C523.177672,261.095607 524.472741,261.05301 525.306973,260.572614 C526.231009,260.037788 526.231009,259.171654 525.306973,258.636828 C524.255483,258.101847 523.012081,258.101847 521.960591,258.636828 C521.126359,259.110126 521.053098,259.867401 521.724265,260.402227 L477.836094,285.775687 L402.57087,285.775687 L337.982871,248.434908 L337.923789,248.399411 L264.166327,248.399411 L222.270387,224.190261 L230.194411,219.611111 L260.559987,237.165703 L260.621432,237.2012 L346.081776,237.2012 L405.995239,271.841819 C405.326435,272.376645 405.40206,273.124454 406.231565,273.607218 C407.283693,274.139525 408.525819,274.139525 409.577947,273.607218 C410.501983,273.072392 410.501983,272.206258 409.577947,271.671432 C408.746078,271.198135 407.451009,271.146072 406.52461,271.534176 L346.282653,236.706605 L346.221208,236.671107 L283.018082,236.671107 L299.577472,227.096306 L344.295148,227.096306 C344.419538,227.402708 344.649196,227.654501 344.942683,227.806251 C345.99481,228.338559 347.236936,228.338559 348.289064,227.806251 C349.2131,227.271426 349.2131,226.405292 348.289064,225.870466 C347.237574,225.335485 345.994173,225.335485 344.942683,225.870466 C344.648152,226.020848 344.418083,226.273092 344.295148,226.580412 L299.435676,226.580412 L281.947524,236.687673 L260.760864,236.687673 L230.733235,219.303468 L237.704863,215.280442 L264.289217,230.650767 L264.350662,230.686265 L275.056247,230.686265 L296.781731,218.124958 L362.293765,218.124958 L403.324751,194.405671 C404.246424,194.772476 405.517859,194.72278 406.337912,194.247116 C407.261948,193.712291 407.261948,192.846157 406.337912,192.313698 C405.286422,191.778716 404.043021,191.778716 402.99153,192.313698 C402.145482,192.801194 402.084037,193.567935 402.78829,194.102761 L362.151969,217.585399 L296.639935,217.585399 L274.914451,230.144339 L264.492458,230.144339 L245.194046,218.986359 L254.843252,218.986359 L264.19705,224.393779 L264.258495,224.429276 L271.570433,224.429276 L287.834414,215.027228 C288.756087,215.3893 290.020433,215.337238 290.838122,214.863941 C291.762158,214.329115 291.762158,213.462981 290.838122,212.930522 C289.786632,212.395541 288.543231,212.395541 287.491741,212.930522 C286.643329,213.420384 286.584247,214.189492 287.29559,214.724318 L271.426274,223.899183 L264.400291,223.899183 L255.044129,218.498863 L254.982684,218.463366 L244.274736,218.463366 L238.236597,214.972799 L248.055958,209.293233 L262.533312,209.293233 L280.463394,198.928025 C281.38743,199.316129 282.684862,199.271166 283.516731,198.790769 C284.440767,198.255943 284.440767,197.38981 283.516731,196.854984 C282.464603,196.322676 281.222477,196.322676 280.17035,196.854984 C279.338481,197.328281 279.262856,198.087923 279.934023,198.622749 L262.39388,208.76314 L248.975268,208.76314 L253.193694,206.323293 L253.590722,206.086645 L246.415853,201.933462 L265.827702,190.70922 L286.241574,190.70922 L307.775634,203.156935 C307.10683,203.691761 307.180091,204.441937 308.01196,204.922334 C309.06345,205.457315 310.306851,205.457315 311.358341,204.922334 C312.282378,204.389875 312.280014,203.523741 311.358341,202.988915 C310.524109,202.515618 309.231404,202.463555 308.302641,202.851659 L297.211845,196.438482 L337.479496,196.438482 L349.059488,189.743694 L372.134396,189.743694 C372.25733,190.051014 372.4874,190.303258 372.78193,190.45364 C373.834058,190.985948 375.076184,190.985948 376.128311,190.45364 C377.052347,189.918814 377.052347,189.05268 376.128311,188.517854 C375.076184,187.985546 373.834058,187.985546 372.78193,188.517854 C372.4874,188.668236 372.25733,188.92048 372.134396,189.2278 L348.917692,189.2278 L337.3377,195.920222 L296.297262,195.920222 L286.444815,190.224091 L286.385733,190.19096 L266.747011,190.19096 L274.796288,185.536082 L320.991005,185.536082 L332.91367,178.642509 L368.265733,178.642509 L385.167795,168.871289 C386.091831,169.259393 387.389263,169.21443 388.221132,168.734033 C389.145168,168.199207 389.145168,167.333073 388.221132,166.798248 C387.169004,166.26594 385.926878,166.26594 384.87475,166.798248 C384.042882,167.271545 383.967257,168.031187 384.638424,168.566013 L368.121574,178.112416 L333.830617,178.112416 L373.533448,155.157504 L402.681943,155.157504 L414.954372,148.058047 C415.878408,148.44615 417.173476,148.403554 418.007708,147.92079 C418.931745,147.385965 418.931745,146.519831 418.007708,145.987372 C416.956218,145.45239 415.712817,145.45239 414.661327,145.987372 C413.829458,146.460669 413.753834,147.217944 414.425001,147.75277 L402.54251,154.615579 L373.389289,154.615579 L320.849209,185.003623 L274.654492,185.003623 L245.884119,201.635285 L232.477324,193.887411 L265.948228,174.536656 L301.966731,174.536656 L342.825198,150.914395 C343.816863,151.306145 344.928243,151.256224 345.880898,150.777139 C346.804935,150.242313 346.804935,149.376179 345.880898,148.841353 C344.828771,148.309046 343.586645,148.309046 342.534517,148.841353 C341.702648,149.314651 341.627024,150.074293 342.298191,150.609118 L301.824935,174.00893 L266.865175,174.00893 L310.937681,148.521878 L311.070023,148.44615 L311.070023,127.983148 L377.005082,89.866161 C377.929118,90.2542646 379.224187,90.2116679 380.058419,89.7289048 C380.982455,89.1964455 380.982455,88.3303117 380.058419,87.7954859 C379.006929,87.2605047 377.763528,87.2605047 376.712037,87.7954859 C375.877805,88.2687831 375.804544,89.0260585 376.475711,89.5608843 L310.672995,127.602143 L310.540652,127.677871 L310.540652,148.138507 L231.945589,193.575034 L220.410499,186.906277 L267.517435,159.672759 L267.649778,159.594665 L267.649778,118.476974 L309.59771,94.2275943 C310.521746,94.6133315 311.816815,94.5707347 312.651047,94.0903381 C313.575083,93.5555123 313.575083,92.6893785 312.651047,92.1545527 C311.599557,91.6195716 310.356155,91.6195716 309.304665,92.1545527 C308.472796,92.6278499 308.397172,93.3874918 309.068339,93.9199511 L267.250387,118.093604 L267.118044,118.171698 L267.118044,159.291755 L219.881128,186.601001 L212.762977,182.488048 L247.765277,162.249862 L247.765277,114.056379 L264.591715,104.327756 L264.591715,86.2123069 L279.449554,77.62433 C280.37359,78.0100671 281.671022,77.9674704 282.502891,77.4847073 C283.426927,76.952248 283.426927,76.0861142 282.502891,75.5512884 C281.451401,75.0163072 280.208,75.0163072 279.156509,75.5512884 C278.324641,76.0245856 278.249016,76.781861 278.920183,77.3166868 L264.062344,85.9070302 L264.062344,104.034311 L247.238269,113.762935 L247.238269,161.939852 L212.238333,182.175672 L202.634029,176.623897 L229.414534,161.13998 L229.414534,80.6297669 L228.887526,80.6297669 L228.887526,127.793829 L215.459461,120.031755 L215.459461,93.5910096 C215.955124,93.5712091 216.439885,93.4393362 216.87742,93.2052724 C217.801456,92.6704466 217.801456,91.8043128 216.87742,91.2694871 C215.82593,90.7345059 214.582528,90.7345059 213.531038,91.2694871 C212.607002,91.8043128 212.607002,92.6704466 213.531038,93.2052724 C213.968572,93.4393362 214.453333,93.5712091 214.948996,93.5910096 L214.948996,120.332299 L228.887526,128.406749 L228.887526,142.624595 L211.219766,132.410843 C211.836578,131.88075 211.739684,131.154239 210.926721,130.683308 C209.876056,130.14836 208.633368,130.14836 207.582703,130.683308 C206.658667,131.218134 206.658667,132.084268 207.582703,132.619093 C208.435841,133.111322 209.773449,133.142087 210.702211,132.725585 L228.887526,143.244615 L228.887526,160.846536 L202.099931,176.320987 L193.54728,171.377398 L206.561773,163.854339 L206.561773,152.76972 L203.274473,150.876531 L203.274473,145.218264 L179.816717,131.648834 L179.816717,122.081132 L160.71682,111.039109 C161.387987,110.504284 161.312362,109.754108 160.480493,109.273711 C159.429003,108.73873 158.185602,108.73873 157.134112,109.273711 C156.210076,109.808537 156.210076,110.674671 157.134112,111.20713 C157.965981,111.680427 159.261049,111.73249 160.187449,111.344386 L179.287346,122.386409 L179.287346,131.96121 L202.745102,145.52354 L202.745102,150.564155 L163.31641,127.767797 C163.935585,127.237705 163.838691,126.511194 163.025728,126.040263 C161.974238,125.505282 160.730837,125.505282 159.679347,126.040263 C158.755311,126.575089 158.755311,127.441222 159.679347,127.976048 C160.532485,128.468277 161.872456,128.501408 162.798855,128.08254 L194.409871,146.356543 L178.550008,146.356543 L160.352877,135.842247 C161.021681,135.307421 160.948419,134.557245 160.116551,134.074482 C159.064423,133.542174 157.822297,133.542174 156.770169,134.074482 C155.846133,134.609308 155.846133,135.475442 156.770169,136.010267 C157.722824,136.489353 158.834204,136.539274 159.825869,136.147524 L178.401122,146.886636 L195.274826,146.886636 L195.274826,146.858238 L206.027676,153.077363 L206.027676,163.546696 L193.013182,171.072121 L190.564841,169.65223 L190.432498,169.576502 L187.079027,171.514654 L132.435642,139.931534 L132.374197,139.896037 L117.469093,139.896037 C117.346529,139.588484 117.116354,139.336124 116.821559,139.186091 C115.770068,138.65111 114.526667,138.65111 113.475177,139.186091 C112.551141,139.718551 112.551141,140.584685 113.475177,141.11951 C114.526667,141.654491 115.770068,141.654491 116.821559,141.11951 C117.116756,140.970007 117.347092,140.71747 117.469093,140.409565 L132.230038,140.409565 L186.552019,171.824664 L178.245147,176.62863 L132.83267,150.374836 C133.503837,149.84001 133.428213,149.089834 132.596344,148.607071 C131.54504,148.074801 130.30363,148.074801 129.252326,148.607071 C128.32829,149.141897 128.32829,150.008031 129.252326,150.542857 C130.084195,151.016154 131.379263,151.068217 132.305663,150.680113 L177.713413,176.933906 L169.108769,181.903527 L104.939068,144.811228 L104.939068,113.751102 L135.205387,96.2533061 L135.205387,96.2533061 L163.061177,96.2533061 L185.124608,83.4955812 C186.048644,83.8836849 187.346076,83.8410881 188.177944,83.358325 C189.101981,82.8258657 189.101981,81.9597319 188.177944,81.4249061 C187.126454,80.889925 185.883053,80.889925 184.831563,81.4249061 C183.999694,81.8982033 183.92407,82.6554788 184.595237,83.1903045 L162.917018,95.7326793 L136.110517,95.7326793 L172.894718,74.4650714 L173.027061,74.3869774 L173.027061,46.720392 C173.5229,46.701744 174.007915,46.5698019 174.445019,46.3346548 C175.369055,45.8021955 175.369055,44.9360617 174.445019,44.4012359 C173.393529,43.8662547 172.150127,43.8662547 171.098637,44.4012359 C170.174601,44.9360617 170.174601,45.8021955 171.098637,46.3346548 C171.535741,46.5698019 172.020756,46.701744 172.516596,46.720392 L172.516596,74.0793342 L111.34115,109.436998 L73.7250806,87.688994 L73.7250806,63.2313634 L47.001294,47.7829441 C47.6700976,47.2481183 47.5968365,46.4979423 46.7649676,46.0175457 C45.7134776,45.4825645 44.4700762,45.4825645 43.4185861,46.0175457 C42.49455,46.550005 42.49455,47.4161388 43.4185861,47.9509646 C44.2528182,48.4242617 45.5455235,48.4763244 46.4742862,48.0882208 L73.1957095,63.5390065 L73.1957095,87.9942707 L110.811779,109.742275 L104.54204,113.367731 L104.409697,113.443459 L104.409697,137.870325 L93.5623166,131.601504 L93.5623166,116.347137 L71.4941596,103.591779 C72.1629633,103.056953 72.0873388,102.306777 71.2578332,101.824014 C70.2057055,101.291706 68.9635795,101.291706 67.9114518,101.824014 C66.9874156,102.358839 66.9874156,103.224973 67.9114518,103.759799 C68.7433206,104.233096 70.0383891,104.285159 70.9647885,103.897055 L93.028219,116.652414 L93.028219,131.906781 L104.404971,138.483245 L104.404971,145.109405 L168.579398,182.215903 L159.126343,187.680118 L34.7288653,115.762615 L34.7288653,89.6744756 L20.721801,81.5787277 L20.721801,82.1892811 Z M190.437225,170.191788 L252.520164,206.089011 L190.437225,241.986234 L128.344833,206.089011 L190.437225,170.191788 Z" id="Shape" fill="#4BC7EC" fill-rule="nonzero" opacity="0.1"></path>
                <g id="Group" opacity="0.1" transform="translate(47.000000, 119.000000)" fill="#52C7EA" fill-rule="nonzero">
                    <g opacity="0.67" id="Path">
                        <polygon points="159.502361 184.827081 0.0802812731 92.490525 159.497639 0.158706786 318.919719 92.4952625"></polygon>
                    </g>
                    <polygon id="Path" points="159.502361 170.507939 24.8045522 92.4928937 159.5 14.4778489 294.195448 92.4952625"></polygon>
                    <polygon id="Path" points="159.502361 153.869782 53.5310807 92.4928937 159.5 31.1160051 265.468919 92.4928937"></polygon>
                    <path d="M159.502361,154.187308 C159.446781,154.187308 159.392161,154.172667 159.34416,154.144558 L53.3634345,92.7676697 C53.2657559,92.7102958 53.2057315,92.6052608 53.2057315,92.4917093 C53.2057315,92.3781579 53.2657559,92.2731228 53.3634345,92.215749 L78.8102369,77.4773367 C78.9604879,77.4040966 79.141615,77.4596444 79.2253616,77.6046465 C79.3091081,77.7496486 79.2670639,77.9349148 79.1290007,78.0292574 L54.1662472,92.4928937 L159.502361,153.495519 L264.836114,92.4857875 L241.006743,78.6854033 C240.855518,78.5977166 240.803729,78.4036828 240.891044,78.2519206 C240.979411,78.1001551 241.172728,78.0474555 241.325507,78.1334827 L265.636566,92.2181178 C265.734785,92.2744369 265.794769,92.3794012 265.794769,92.4928937 C265.794769,92.6068421 265.734447,92.7122264 265.636566,92.7700384 L159.670007,154.144558 C159.61911,154.173998 159.561092,154.188754 159.502361,154.187308 L159.502361,154.187308 Z" id="Path"></path>
                </g>
                <path d="M201.737169,169.645927 C205.59177,167.451358 210.295025,167.451358 214.149626,169.645927 L288.126734,211.872856 C288.665449,212.174137 289,212.748722 289,213.372674 C289,213.996626 288.665449,214.571211 288.126734,214.872492 L213.534074,257.546735 C210.132302,259.484422 205.980903,259.484422 202.579131,257.546735 L127.873266,214.908373 C127.334551,214.607092 127,214.032507 127,213.408555 C127,212.784603 127.334551,212.210018 127.873266,211.908737 L201.737169,169.645927 Z" id="Path" stroke="#52C7EA" stroke-width="0.8" fill="#162535" fill-rule="nonzero"></path>
                <path d="M201.737169,156.645927 C205.59177,154.451358 210.295025,154.451358 214.149626,156.645927 L288.126734,198.872856 C288.665449,199.174137 289,199.748722 289,200.372674 C289,200.996626 288.665449,201.571211 288.126734,201.872492 L213.534074,244.546735 C210.132302,246.484422 205.980903,246.484422 202.579131,244.546735 L127.873266,201.908373 C127.334551,201.607092 127,201.032507 127,200.408555 C127,199.784603 127.334551,199.210018 127.873266,198.908737 L201.737169,156.645927 Z" id="Path" stroke="#52C7EA" stroke-width="0.8" fill="#162535" fill-rule="nonzero"></path>
                <path d="M201.737169,145.645927 C205.59177,143.451358 210.295025,143.451358 214.149626,145.645927 L288.126734,187.872856 C288.665449,188.174137 289,188.748722 289,189.372674 C289,189.996626 288.665449,190.571211 288.126734,190.872492 L213.534074,233.546735 C210.132302,235.484422 205.980903,235.484422 202.579131,233.546735 L127.873266,190.908373 C127.334551,190.607092 127,190.032507 127,189.408555 C127,188.784603 127.334551,188.210018 127.873266,187.908737 L201.737169,145.645927 Z" id="Path" stroke="#52C7EA" stroke-width="0.8" fill="#162535" fill-rule="nonzero"></path>
                <g id="Group" opacity="0.11" transform="translate(127.000000, 132.000000)" fill="#161B20" fill-rule="nonzero" stroke="#4BC7EC" stroke-width="0.8">
                    <path d="M75.1932267,1.72207349 C79.0653952,-0.469190858 83.7900845,-0.469190858 87.6622529,1.72207349 L161.976512,43.8854068 C162.517682,44.1862338 162.853758,44.7599534 162.853758,45.3829659 C162.853758,46.0059784 162.517682,46.579698 161.976512,46.8805249 L87.0438953,89.4904987 C83.6266206,91.4252666 79.4563009,91.4252666 76.0390262,89.4904987 L0.992688953,46.9163517 C0.451518545,46.6155247 0.115442785,46.0418052 0.115442785,45.4187927 C0.115442785,44.7957801 0.451518545,44.2220606 0.992688953,43.9212336 L75.1932267,1.72207349 Z" id="Path"></path>
                </g>
                <path d="M201.737169,133.645927 C205.59177,131.451358 210.295025,131.451358 214.149626,133.645927 L288.126734,175.872856 C288.665449,176.174137 289,176.748722 289,177.372674 C289,177.996626 288.665449,178.571211 288.126734,178.872492 L213.534074,221.546735 C210.132302,223.484422 205.980903,223.484422 202.579131,221.546735 L127.873266,178.908373 C127.334551,178.607092 127,178.032507 127,177.408555 C127,176.784603 127.334551,176.210018 127.873266,175.908737 L201.737169,133.645927 Z" id="Path" stroke="#52C7EA" stroke-width="0.8" fill="#162535" fill-rule="nonzero"></path>
                <g id="Group" opacity="0.2" transform="translate(75.000000, 135.000000)" fill="#52C7EA" fill-rule="nonzero">
                    <path d="M26.4552995,27.8310788 C25.0516955,27.8325188 23.6723934,27.4773849 22.4558525,26.8013223 L1.00645161,14.888595 C0.528436465,14.6219223 0.233998988,14.1292966 0.233998988,13.5961983 C0.233998988,13.0631001 0.528436465,12.5704744 1.00645161,12.3038017 L21.1929954,1.21487603 C23.986201,-0.332017996 27.4195133,-0.332017996 30.2127189,1.21487603 L51.1541014,12.8429752 C51.6332872,13.1093442 51.9286317,13.6026032 51.9286317,14.1365289 C51.9286317,14.6704547 51.6332872,15.1637137 51.1541014,15.4300826 L30.4547465,26.7966942 C29.2389308,27.4749833 27.8594278,27.8317652 26.4552995,27.8310788 L26.4552995,27.8310788 Z" id="Path"></path>
                </g>
                <path d="M105.472465,124.160133 C102.782274,122.613289 99.4682494,122.613289 96.7780582,124.160133 L76.6116315,135.589533 C76.2331437,135.807317 76,136.209705 76,136.64516 C76,137.080614 76.2331437,137.483002 76.6116315,137.700787 L98.0447455,149.979459 C100.416285,151.34018 103.335586,151.34018 105.707126,149.979459 L126.388368,138.261402 C126.766856,138.043617 127,137.64123 127,137.205775 C127,136.77032 126.766856,136.367933 126.388368,136.150148 L105.472465,124.160133 Z" id="Path" stroke="#52C7EA" stroke-width="0.8" fill="#162535" fill-rule="nonzero"></path>
                <path d="M105.472465,115.159032 C102.78201,113.613656 99.4685135,113.613656 96.7780582,115.159032 L76.6116315,126.584838 C76.2331437,126.802554 76,127.204815 76,127.640133 C76,128.075451 76.2331437,128.477712 76.6116315,128.695428 L98.0447455,140.97978 C100.416285,142.340073 103.335586,142.340073 105.707126,140.97978 L126.388368,129.265407 C126.766856,129.04769 127,128.64543 127,128.210112 C127,127.774794 126.766856,127.372533 126.388368,127.154816 L105.472465,115.159032 Z" id="Path" stroke="#52C7EA" stroke-width="0.8" fill="#162535" fill-rule="nonzero"></path>
                <path d="M105.472465,107.158622 C102.781746,105.613793 99.4687772,105.613793 96.7780582,107.158622 L76.6116315,118.587649 C76.2331437,118.805427 76,119.207801 76,119.643242 C76,120.078682 76.2331437,120.481057 76.6116315,120.698834 L98.0447455,132.979492 C100.416285,134.340169 103.335586,134.340169 105.707126,132.979492 L126.388368,121.259432 C126.766856,121.041654 127,120.63928 127,120.203839 C127,119.768398 126.766856,119.366024 126.388368,119.148246 L105.472465,107.158622 Z" id="Path" stroke="#52C7EA" stroke-width="0.8" fill="#162535" fill-rule="nonzero"></path>
                <g id="Group" opacity="0.11" transform="translate(76.000000, 97.000000)" fill="#161B20" fill-rule="nonzero" stroke="#4BC7EC" stroke-width="0.8">
                    <path d="M29.4084112,1.37176471 C26.7306708,-0.152935322 23.4328338,-0.152935322 20.7550935,1.37176471 L0.683971963,12.6447059 C0.307272838,12.8595095 0.0752309717,13.2563885 0.0752309717,13.6858824 C0.0752309717,14.1153762 0.307272838,14.5122552 0.683971963,14.7270588 L22.0157944,26.8235294 C24.3753391,28.1685293 27.282418,28.1685293 29.6419626,26.8235294 L50.2254673,15.2658824 C50.6021664,15.0510787 50.8342083,14.6541997 50.8342083,14.2247059 C50.8342083,13.7952121 50.6021664,13.3983331 50.2254673,13.1835294 L29.4084112,1.37176471 Z" id="Path"></path>
                </g>
                <path d="M105.472465,99.1599281 C102.78201,97.6133573 99.4685135,97.6133573 96.7780582,99.1599281 L76.6116315,110.594572 C76.2331437,110.812456 76,111.215028 76,111.650683 C76,112.086338 76.2331437,112.48891 76.6116315,112.706794 L98.0447455,124.97678 C100.415494,126.341073 103.336377,126.341073 105.707126,124.97678 L126.388368,113.253347 C126.766856,113.035462 127,112.63289 127,112.197236 C127,111.761581 126.766856,111.359009 126.388368,111.141124 L105.472465,99.1599281 Z" id="Path" stroke="#52C7EA" stroke-width="0.8" fill="#162535" fill-rule="nonzero"></path>
                <path d="M126.398109,111.953928 L105.713503,122.92522 C103.341578,124.199486 100.421803,124.199486 98.0498774,122.92522 L76.6132785,111.426699 C76.4239828,111.324308 76.2670185,111.177116 76.1582507,111 C75.828055,111.545711 76.0311453,112.237698 76.6132785,112.550413 L98.0402979,124.042232 C100.411432,125.319256 103.33279,125.319256 105.703924,124.042232 L126.388529,113.068706 C126.969791,112.755229 127.17176,112.063421 126.841162,111.518294 C126.738873,111.698507 126.585652,111.849163 126.398109,111.953928 Z" id="Path" stroke="#4BC7EC" stroke-width="0.8" fill="#161B20" fill-rule="nonzero"></path>
                <polygon id="Path" fill="#4BC7EC" fill-rule="nonzero" opacity="0.7" points="102.001192 118 89 110.998888 102.001192 104 115 110.998888"></polygon>
                <path d="M101.5,118 C101.377863,117.999326 101.257997,117.967303 101.152145,117.907068 L88.3355738,110.593329 C88.1270335,110.46648 88,110.241768 88,109.999727 C88,109.757686 88.1270335,109.532974 88.3355738,109.406125 L101.152145,102.090062 C101.367301,101.969979 101.630348,101.969979 101.845504,102.090062 L114.664426,109.406125 C114.872967,109.532974 115,109.757686 115,109.999727 C115,110.241768 114.872967,110.46648 114.664426,110.593329 L101.845504,117.907068 C101.740344,117.966916 101.621339,117.998926 101.5,118 L101.5,118 Z M90.067797,109.998565 L101.5,116.522383 L112.929853,110.000889 L101.5,103.474747 L90.067797,109.998565 Z" id="Shape" stroke="#52C7EA" stroke-width="0.8" fill="#161B20" fill-rule="nonzero"></path>
                <g id="Group" opacity="0.2" transform="translate(69.000000, 281.000000)" fill="#52C7EA" fill-rule="nonzero">
                    <path d="M26.3187097,27.7894259 C24.9151056,27.7908659 23.5358035,27.435732 22.3192627,26.7596694 L0.869861751,14.8469421 C0.391959938,14.5796359 0.0977272527,14.0867091 0.0977272527,13.5533884 C0.0977272527,13.0200677 0.391959938,12.5271409 0.869861751,12.2598347 L21.0564055,1.17322314 C23.8496112,-0.373670889 27.2829234,-0.373670889 30.076129,1.17322314 L51.0151152,12.8013223 C51.494301,13.0676913 51.7896455,13.5609503 51.7896455,14.094876 C51.7896455,14.6288018 51.494301,15.1220608 51.0151152,15.3884298 L30.3157604,26.7550413 C29.1006482,27.4329375 27.7220253,27.7897056 26.3187097,27.7894259 Z" id="Path"></path>
                </g>
                <path d="M98.4734759,270.160133 C95.783411,268.613289 92.469542,268.613289 89.7794771,270.160133 L69.6116028,281.589533 C69.2331327,281.807317 69,282.209705 69,282.64516 C69,283.080614 69.2331327,283.483002 69.6116028,283.700787 L91.0461049,295.979459 C93.4175335,297.34018 96.3366966,297.34018 98.7081253,295.979459 L119.388397,284.261402 C119.766867,284.043617 120,283.64123 120,283.205775 C120,282.77032 119.766867,282.367933 119.388397,282.150148 L98.4734759,270.160133 Z" id="Path" stroke="#52C7EA" stroke-width="0.8" fill="#162535" fill-rule="nonzero"></path>
                <path d="M98.4733418,262.158622 C95.7827324,260.613793 92.4698982,260.613793 89.7792888,262.158622 L69.6112889,273.587649 C69.2329296,273.80608 69,274.208765 69,274.644435 C69,275.080105 69.2329296,275.482789 69.6112889,275.70122 L91.0459245,287.979492 C93.4173679,289.340169 96.3365492,289.340169 98.7079926,287.979492 L119.388393,276.261817 C119.766866,276.044039 120,275.641665 120,275.206225 C120,274.770784 119.766866,274.36841 119.388393,274.150632 L98.4733418,262.158622 Z" id="Path" stroke="#52C7EA" stroke-width="0.8" fill="#162535" fill-rule="nonzero"></path>
                <path d="M98.4734759,253.158728 C95.7828833,251.613757 92.4700697,251.613757 89.7794771,253.158728 L69.6116028,264.586415 C69.2331327,264.804213 69,265.206624 69,265.642104 C69,266.077585 69.2331327,266.479996 69.6116028,266.697794 L91.0461049,278.977189 C93.4167422,280.340937 96.3374879,280.340937 98.7081253,278.977189 L119.388397,267.258442 C119.766867,267.040645 120,266.638233 120,266.202753 C120,265.767273 119.766867,265.364862 119.388397,265.147064 L98.4734759,253.158728 Z" id="Path" stroke="#52C7EA" stroke-width="0.8" fill="#162535" fill-rule="nonzero"></path>
                <g id="Group" opacity="0.11" transform="translate(69.000000, 244.000000)" fill="#161B20" fill-rule="nonzero" stroke="#4BC7EC" stroke-width="0.8">
                    <path d="M29.5108879,1.32941176 C26.8331475,-0.195288263 23.5353105,-0.195288263 20.8575701,1.32941176 L0.784065421,12.6023529 C0.407366296,12.8171566 0.17532443,13.2140356 0.17532443,13.6435294 C0.17532443,14.0730232 0.407366296,14.4699022 0.784065421,14.6847059 L22.118271,26.7952941 C24.4778157,28.140294 27.3848946,28.140294 29.7444393,26.7952941 L50.3279439,15.2376471 C50.7046431,15.0228434 50.9366849,14.6259644 50.9366849,14.1964706 C50.9366849,13.7669768 50.7046431,13.3700978 50.3279439,13.1552941 L29.5108879,1.32941176 Z" id="Path"></path>
                </g>
                <path d="M98.4734759,245.159335 C95.7831469,243.613555 92.4698061,243.613555 89.7794771,245.159335 L69.6116028,256.588134 C69.2331327,256.805907 69,257.208273 69,257.643705 C69,258.079137 69.2331327,258.481503 69.6116028,258.699277 L91.0461049,270.977303 C93.4167422,272.340899 96.3374879,272.340899 98.7081253,270.977303 L119.388397,259.259863 C119.766867,259.042089 120,258.639723 120,258.204291 C120,257.768859 119.766867,257.366493 119.388397,257.14872 L98.4734759,245.159335 Z" id="Path" stroke="#52C7EA" stroke-width="0.8" fill="#162535" fill-rule="nonzero"></path>
                <path d="M119.388651,256.951239 L98.7081682,267.919514 C96.3367153,269.19317 93.4175225,269.19317 91.0460696,267.919514 L69.6113487,256.426494 C69.4221874,256.324786 69.2658712,256.177467 69.158806,256 C68.8282746,256.544867 69.0302031,257.236343 69.6113487,257.549671 L91.0460696,269.04269 C93.4167312,270.319103 96.3375067,270.319103 98.7081682,269.04269 L119.388651,258.074415 C119.969797,257.761088 120.171725,257.069611 119.841194,256.524744 C119.734129,256.702212 119.577813,256.84953 119.388651,256.951239 Z" id="Path" stroke="#4BC7EC" stroke-width="0.8" fill="#161B20" fill-rule="nonzero"></path>
                <polygon id="Path" fill="#4BC7EC" fill-rule="nonzero" opacity="0.7" points="95.0011919 264 82 256.998888 94.9988081 250 108 256.998888"></polygon>
                <path d="M94.4908834,264.99998 C94.3688499,264.999286 94.2490861,264.967269 94.143324,264.907047 L81.3352888,257.594842 C81.1269256,257.468019 81,257.243355 81,257.001364 C81,256.759374 81.1269256,256.53471 81.3352888,256.407887 L94.143324,249.093359 C94.3613009,248.96888 94.6298595,248.96888 94.8478364,249.093359 L107.653523,256.407887 C107.867919,256.530277 108,256.756518 108,257.001364 C108,257.246211 107.867919,257.472452 107.653523,257.594842 L94.8478364,264.907047 C94.7393146,264.968845 94.6161014,265.000916 94.4908834,264.99998 L94.4908834,264.99998 Z M83.0683893,257.000203 L94.4908834,263.522652 L105.911029,257.000203 L94.4908834,250.480077 L83.0683893,257.000203 Z" id="Shape" stroke="#52C7EA" stroke-width="0.8" fill="#161B20" fill-rule="nonzero"></path>
                <g id="Group" opacity="0.2" transform="translate(270.000000, 257.000000)" fill="#52C7EA" fill-rule="nonzero">
                    <path d="M25.7653868,46.9192935 C24.3889775,46.9198297 23.0366225,46.5547284 21.8439542,45.8606061 L0.812951289,33.6406061 C0.342997199,33.368021 0.0532079736,32.8623463 0.0532079736,32.3148737 C0.0532079736,31.7674012 0.342997199,31.2617265 0.812951289,30.9891414 L51.6553009,1.40050505 C54.3948758,-0.186229656 57.7618577,-0.186229656 60.5014327,1.40050505 L81.0319771,13.3261616 C81.5005568,13.6003626 81.7890501,14.1060038 81.7890501,14.6530808 C81.7890501,15.2001578 81.5005568,15.705799 81.0319771,15.98 L29.6868195,45.8606061 C28.4941511,46.5547284 27.1417962,46.9198297 25.7653868,46.9192935 Z" id="Path"></path>
                </g>
                <path d="M329.903466,249.151013 C327.266324,247.616329 324.019322,247.616329 321.382181,249.151013 L270.599453,278.691238 C270.228501,278.907585 270,279.307317 270,279.739898 C270,280.172479 270.228501,280.57221 270.599453,280.788558 L291.60814,292.986194 C293.932458,294.337935 296.793629,294.337935 299.117948,292.986194 L350.400547,263.161587 C350.771499,262.94524 351,262.545508 351,262.112927 C351,261.680346 350.771499,261.280614 350.400547,261.064267 L329.903466,249.151013 Z" id="Path" stroke="#52C7EA" stroke-width="0.8" fill="#162535" fill-rule="nonzero"></path>
                <path d="M329.903466,241.151726 C327.266582,239.616091 324.019064,239.616091 321.382181,241.151726 L270.599453,270.689111 C270.228501,270.905455 270,271.305181 270,271.737755 C270,272.170329 270.228501,272.570054 270.599453,272.786398 L291.60814,284.98621 C293.932458,286.33793 296.793629,286.33793 299.117948,284.98621 L350.400547,255.159708 C350.771499,254.943364 351,254.543638 351,254.111064 C351,253.67849 350.771499,253.278765 350.400547,253.062421 L329.903466,241.151726 Z" id="Path" stroke="#52C7EA" stroke-width="0.8" fill="#162535" fill-rule="nonzero"></path>
                <path d="M329.903466,233.152444 C327.266841,231.615852 324.018805,231.615852 321.382181,233.152444 L270.599453,262.689472 C270.228501,262.905813 270,263.305534 270,263.738103 C270,264.170671 270.228501,264.570392 270.599453,264.786733 L291.60814,276.984028 C293.931683,278.338657 296.794405,278.338657 299.117948,276.984028 L350.400547,247.160256 C350.771499,246.943915 351,246.544194 351,246.111626 C351,245.679057 350.771499,245.279336 350.400547,245.062995 L329.903466,233.152444 Z" id="Path" stroke="#52C7EA" stroke-width="0.8" fill="#162535" fill-rule="nonzero"></path>
                <g id="Group" opacity="0.11" transform="translate(270.000000, 223.000000)" fill="#161B20" fill-rule="nonzero" stroke="#4BC7EC" stroke-width="0.8">
                    <path d="M59.8884971,1.36826531 C57.258102,-0.15254518 54.0185743,-0.15254518 51.3881792,1.36826531 L0.730404624,30.6205102 C0.360365939,30.8347659 0.13242682,31.2306325 0.13242682,31.6590306 C0.13242682,32.0874288 0.360365939,32.4832953 0.730404624,32.697551 L21.6873988,44.7772449 C24.0059979,46.1159158 26.8601292,46.1159158 29.1787283,44.7772449 L80.3351445,15.2410204 C80.7051832,15.0267647 80.9331223,14.6308982 80.9331223,14.2025 C80.9331223,13.7741018 80.7051832,13.3782353 80.3351445,13.1639796 L59.8884971,1.36826531 Z" id="Path"></path>
                </g>
                <path d="M329.903466,224.151785 C327.266582,222.616072 324.019064,222.616072 321.382181,224.151785 L270.599453,253.690692 C270.228501,253.907047 270,254.306793 270,254.73939 C270,255.171986 270.228501,255.571732 270.599453,255.788087 L291.60814,267.986158 C293.932458,269.337947 296.793629,269.337947 299.117948,267.986158 L350.400547,238.160489 C350.771499,237.944133 351,237.544387 351,237.111791 C351,236.679195 350.771499,236.279449 350.400547,236.063094 L329.903466,224.151785 Z" id="Path" stroke="#52C7EA" stroke-width="0.8" fill="#162535" fill-rule="nonzero"></path>
                <path d="M350.39904,236.457437 L299.117239,266.759056 C296.792957,268.132308 293.93183,268.132308 291.607548,266.759056 L270.599188,254.364909 C270.413522,254.256676 270.260166,254.098516 270.155647,253.907472 C269.83169,254.494946 270.029602,255.240493 270.599188,255.578322 L291.607548,267.970061 C293.93183,269.343313 296.792957,269.343313 299.117239,267.970061 L350.39904,237.67085 C350.96948,237.333844 351.168491,236.588102 350.844928,236 C350.738921,236.1907 350.584925,236.348684 350.39904,236.457437 L350.39904,236.457437 Z" id="Path" stroke="#52C7EA" stroke-width="0.8" fill="#161B20" fill-rule="nonzero"></path>
                <polygon id="Path" fill="#4BC7EC" fill-rule="nonzero" opacity="0.7" points="297 260 284 253 297 246 310 253"></polygon>
                <path d="M296.495301,261.999941 C296.374213,261.999512 296.255263,261.968309 296.149917,261.909276 L283.335457,254.593724 C283.126989,254.466883 283,254.242187 283,254.000163 C283,253.758139 283.126989,253.533443 283.335457,253.406602 L296.147567,246.093372 C296.365653,245.968876 296.634347,245.968876 296.852433,246.093372 L309.664543,253.406602 C309.873011,253.533443 310,253.758139 310,254.000163 C310,254.242187 309.873011,254.466883 309.664543,254.593724 L296.852433,261.909276 C296.743627,261.970272 296.620366,262.001542 296.495301,261.999941 Z M285.069427,254.001324 L296.495301,260.524688 L307.923525,254.001324 L296.495301,247.477961 L285.069427,254.001324 Z" id="Shape" stroke="#52C7EA" stroke-width="0.8" fill="#161B20" fill-rule="nonzero"></path>
                <polygon id="Path" fill="#4BC7EC" fill-rule="nonzero" opacity="0.7" points="324.001192 245 311 237.998888 324.001192 231 337 237.998888"></polygon>
                <path d="M323.490883,246 C323.368717,246.000305 323.248698,245.968239 323.143324,245.907132 L310.335289,238.599105 C310.126926,238.472355 310,238.247819 310,238.005967 C310,237.764115 310.126926,237.539579 310.335289,237.412828 L323.143324,230.095516 C323.360493,229.968161 323.630668,229.968161 323.847836,230.095516 L336.653523,237.403542 C336.867919,237.525863 337,237.751975 337,237.996681 C337,238.241387 336.867919,238.467499 336.653523,238.58982 L323.847836,245.897846 C323.740834,245.964174 323.617182,245.999558 323.490883,246 L323.490883,246 Z M312.068389,238.004806 L323.490883,244.523528 L334.911029,238.004806 L323.490883,231.488405 L312.068389,238.004806 Z" id="Shape" stroke="#52C7EA" stroke-width="0.8" fill="#161B20" fill-rule="nonzero"></path>
                <g id="_-_-Ockam.io" transform="translate(168.000000, 150.000000)" fill-rule="nonzero">
                    <g id="img-hero">
                        <ellipse id="Oval" fill="#EC432D" transform="translate(61.625053, 9.075739) rotate(-0.880000) translate(-61.625053, -9.075739) " cx="61.6250531" cy="9.07573917" rx="1.7049932" ry="1.07291967"></ellipse>
                        <ellipse id="Oval-2" fill="#EC432D" transform="translate(43.148379, 13.307596) rotate(-0.880000) translate(-43.148379, -13.307596) " cx="43.1483791" cy="13.3075956" rx="1.7049932" ry="1.07291967"></ellipse>
                        <ellipse id="Oval-3" fill="#EC432D" transform="translate(17.246571, 41.817756) rotate(-0.880000) translate(-17.246571, -41.817756) " cx="17.246571" cy="41.8177558" rx="1.7049932" ry="1.07291967"></ellipse>
                        <ellipse id="Oval-4" fill="#EC432D" transform="translate(28.341503, 5.380520) rotate(-0.880000) translate(-28.341503, -5.380520) " cx="28.3415035" cy="5.38051975" rx="1.7049932" ry="1.07291967"></ellipse>
                        <ellipse id="Oval-5" fill="#EC432D" transform="translate(50.539806, 45.529665) rotate(-0.880000) translate(-50.539806, -45.529665) " cx="50.539806" cy="45.529665" rx="1.7049932" ry="1.07291967"></ellipse>
                        <ellipse id="Oval-6" fill="#EC432D" transform="translate(72.729047, 29.157454) rotate(-0.880000) translate(-72.729047, -29.157454) " cx="72.729047" cy="29.1574539" rx="1.7049932" ry="1.07291967"></ellipse>
                        <ellipse id="Oval-7" fill="#EC432D" transform="translate(35.732894, 37.600184) rotate(-0.880000) translate(-35.732894, -37.600184) " cx="35.7328941" cy="37.6001838" rx="1.7049932" ry="1.07291967"></ellipse>
                        <ellipse id="Oval-8" fill="#EC432D" transform="translate(24.664414, 17.525131) rotate(-0.880000) translate(-24.664414, -17.525131) " cx="24.664414" cy="17.5251307" rx="1.7049932" ry="1.07291967"></ellipse>
                        <ellipse id="Oval-9" fill="#EC432D" transform="translate(54.216859, 33.380243) rotate(-0.880000) translate(-54.216859, -33.380243) " cx="54.2168592" cy="33.3802431" rx="1.7049932" ry="1.07291967"></ellipse>
                        <ellipse id="Oval-10" fill="#EC432D" transform="translate(20.951847, 29.665485) rotate(-0.880000) translate(-20.951847, -29.665485) " cx="20.951847" cy="29.6654853" rx="1.7049932" ry="1.07291967"></ellipse>
                        <ellipse id="Oval-11" fill="#EC432D" transform="translate(57.929462, 21.244699) rotate(-0.880000) translate(-57.929462, -21.244699) " cx="57.9294624" cy="21.2446994" rx="1.7049932" ry="1.07291967"></ellipse>
                        <ellipse id="Oval-12" fill="#EC432D" transform="translate(6.142577, 21.733635) rotate(-0.880000) translate(-6.142577, -21.733635) " cx="6.14257717" cy="21.7336354" rx="1.7049932" ry="1.07291967"></ellipse>
                        <path d="M64.1857313,10.3876415 C73.5997015,12.4444811 78.4835522,18.9253302 75.0853731,24.9106132 C74.630008,25.7108796 74.0698927,26.4441312 73.4204776,27.0901415 C73.9501819,27.1400034 74.4656607,27.2926962 74.9391642,27.54 C75.2101319,27.6743747 75.4509813,27.8643794 75.6466269,28.0981132 C81.8251343,21.8963208 78.9151045,13.7892453 69.1780597,10.0075472 C67.8030717,9.48027063 66.3902387,9.06204734 64.9521493,8.75660377 C65.0441194,9.3195283 64.7776418,9.93056604 64.1857313,10.3876415 Z" id="Path" fill="#52C7EA"></path>
                        <path d="M60.4809851,22.5410377 C64.666806,23.4431604 68.1404478,25.3027358 70.253403,27.7565094 C70.9931215,27.2733426 71.8586403,27.0293407 72.736597,27.0564623 C70.31,24.1432075 66.1925672,21.9396226 61.2049552,20.8979717 C61.3771045,21.4849528 61.101194,22.0791509 60.4809851,22.5410377 Z" id="Path-2" fill="#52C7EA"></path>
                        <path d="M61.0257313,15.2759434 C60.6130448,16.6591981 59.7664478,17.970283 58.5849851,19.1658962 C59.1142631,19.2180396 59.6293304,19.3706106 60.1036716,19.6157547 C60.3594363,19.7502645 60.5907379,19.9284518 60.7875522,20.1425943 C63.6433433,17.3303774 64.6927463,13.9287736 63.6881493,10.6907547 C63.3787367,10.8548588 63.0486242,10.9746659 62.7071343,11.0467925 C62.1656773,11.1705479 61.6077957,11.2014423 61.0563881,11.1382075 C61.4565918,12.4888784 61.4459026,13.9315979 61.0257313,15.2759434 L61.0257313,15.2759434 Z" id="Path-3" fill="#52C7EA"></path>
                        <path d="M57.3775821,32.6640566 C57.6935821,33.2366038 57.5898209,33.8668868 57.0969552,34.3961321 C62.3793433,34.4971698 67.5296716,33.3208019 71.5386269,31.117217 C71.1973521,31.0366551 70.8665156,30.915545 70.5528955,30.7563679 C70.171281,30.5705654 69.8509063,30.2755069 69.6308358,29.9071698 C66.2161493,31.7643396 61.8605373,32.7410377 57.3681493,32.6640566 L57.3775821,32.6640566 Z" id="Path-4" fill="#52C7EA"></path>
                        <path d="M54.9462687,31.3096698 C55.7666029,31.3701521 56.5397955,31.7236418 57.1299701,32.3080189 C59.9598209,29.4837736 60.9809254,26.1038208 60.0305672,22.8561792 C59.2030931,23.2477566 58.2872878,23.4040162 57.3799403,23.3084434 C58.132209,26.0508962 57.2620299,28.9040094 54.9462687,31.3096698 Z" id="Path-5" fill="#52C7EA"></path>
                        <path d="M72.3970149,32.3609434 C73.1374925,38.6685849 65.6006567,44.2160377 55.604209,44.7741509 C54.9580597,44.8078302 54.3307761,44.8198585 53.6917015,44.8126415 C53.8792153,45.1284895 53.9255502,45.5110041 53.8190448,45.8639151 C53.7303001,46.1170076 53.5914274,46.348752 53.4110746,46.544717 C54.2010746,46.544717 54.9816418,46.544717 55.7457015,46.5038208 C67.2655522,45.8639151 75.9366866,39.4696698 75.1254627,32.2117925 L75.1254627,32.2117925 C75.0698297,31.7145295 74.9703828,31.2233924 74.8283284,30.7443396 C74.0008543,31.135917 73.085049,31.2921766 72.1777015,31.1966038 C72.2811774,31.5781176 72.3545166,31.967477 72.3970149,32.3609434 L72.3970149,32.3609434 Z" id="Path-6" fill="#52C7EA"></path>
                        <path d="M56.3211045,39.8762264 C56.8151955,38.2792026 56.8151955,36.565703 56.3211045,34.9686792 C55.4969098,35.3710278 54.5783401,35.5285927 53.6704776,35.4233491 C54.4699104,38.1778302 53.6256716,41.0213208 51.2721791,43.4341981 C52.1824478,43.5472642 52.9889552,43.9153302 53.4558806,44.4325472 C54.7567056,43.1713167 55.7396526,41.6082201 56.3211045,39.8762264 L56.3211045,39.8762264 Z" id="Path-7" fill="#52C7EA"></path>
                        <path d="M36.8328657,39.5514623 C36.4684926,39.6356102 36.0957196,39.675979 35.7221493,39.6717453 C38.1298806,42.6090566 42.2779701,44.8054245 47.2372836,45.8518868 C47.0651343,45.2673113 47.3316119,44.6490566 47.9447463,44.1943868 C43.7494925,43.2754245 40.2664179,41.3990094 38.179403,38.9404245 C37.7827427,39.2472874 37.3218902,39.4564151 36.8328657,39.5514623 Z" id="Path-8" fill="#52C7EA"></path>
                        <path d="M38.9104478,36.9004245 C39.1981493,37.477783 39.0849552,38.1032547 38.5920896,38.6204717 C43.8650448,38.7046698 49.0177313,37.5307075 53.0266866,35.3271226 C52.1494328,35.1106132 51.4584776,34.68 51.1259701,34.1242925 C47.7301493,35.9598113 43.3745373,36.9365094 38.9104478,36.8932075 L38.9104478,36.9004245 Z" id="Path-9" fill="#52C7EA"></path>
                        <path d="M20.426806,41.1367925 C20.7168657,41.7141509 20.6036716,42.3396226 20.110806,42.8568396 C25.393194,42.9578774 30.5340896,41.7670755 34.5430448,39.5634906 C33.642209,39.3517925 32.9512537,38.9235849 32.6069552,38.3606604 C29.241791,40.1865566 24.8908955,41.1776887 20.426806,41.1367925 Z" id="Path-10" fill="#52C7EA"></path>
                        <path d="M47.4919701,48.3898585 C48.1499104,48.1059906 48.765403,47.7956604 49.3431642,47.4757075 C48.4399701,47.2640094 47.7395821,46.8165566 47.4330149,46.2728774 C46.9613731,46.530283 46.4732239,46.7756604 45.966209,46.9945755 C37.6464478,50.6367453 26.3152537,49.3785849 20.6649851,44.1895755 L20.6649851,44.1895755 C20.3321592,43.8762552 20.0172147,43.5437286 19.7217015,43.1936321 C18.9806352,43.6917477 18.1066739,43.9438345 17.2196418,43.9153302 C17.5979674,44.3589258 18.0019412,44.7790614 18.429403,45.1734906 C24.919194,51.1178774 37.9341493,52.5805189 47.4919701,48.3898585 L47.4919701,48.3898585 Z" id="Path-11" fill="#52C7EA"></path>
                        <path d="M20.9408955,31.7378774 C23.3769254,34.6679717 27.4967164,36.8715566 32.4654627,37.9348585 C32.3192537,37.343066 32.5857313,36.7320283 33.1729254,36.2749528 C29.0059701,35.3632075 25.5370448,33.4916038 23.4240896,31.0330189 C22.6811141,31.509199 21.8181919,31.7541408 20.9408955,31.7378774 L20.9408955,31.7378774 Z" id="Path-12" fill="#52C7EA"></path>
                        <path d="M17.8799403,35.6037736 C18.2926269,34.2205189 19.1392239,32.909434 20.3206866,31.7114151 C19.7911866,31.6604562 19.2759068,31.5078224 18.802,31.2615566 C18.5458349,31.1287166 18.3143942,30.9512363 18.1181194,30.7371226 C15.2623284,33.546934 14.2034925,36.9341038 15.2175224,40.1889623 C16.0308021,39.7815119 16.9432515,39.6259588 17.842209,39.7415094 C17.4443028,38.3901097 17.4574588,36.9473882 17.8799403,35.6037736 Z" id="Path-13" fill="#52C7EA"></path>
                        <path d="M12.7343284,26.2986792 C11.1831331,25.4973658 9.78664664,24.4167014 8.6121791,23.1087736 C7.87024608,23.5856057 7.00811332,23.831392 6.13134328,23.8160377 C8.56737313,26.7461321 12.7131045,28.9449057 17.6865672,29.9673113 C17.5403582,29.3755189 17.8162687,28.7813208 18.4105373,28.3242453 C16.4370587,27.9152098 14.5274219,27.2337522 12.7343284,26.2986792 L12.7343284,26.2986792 Z" id="Path-14" fill="#52C7EA"></path>
                        <path d="M14.7199403,40.4896698 C5.30597015,38.4328302 0.412686567,31.9351415 3.82029851,25.9666981 C4.27566361,25.1664318 4.83577899,24.4331802 5.48519403,23.7871698 C4.95591605,23.7350264 4.44084872,23.5824555 3.96650746,23.3373113 C3.70354778,23.2039308 3.46879566,23.0192157 3.27555224,22.7936321 C-2.90295522,28.9978302 -0.00235820896,37.0856604 9.7441194,40.8866038 C11.1194649,41.4127827 12.5322144,41.8309813 13.9700299,42.1375472 C13.8332537,41.5625943 14.0997313,40.9515566 14.7199403,40.4896698 Z" id="Path-15" fill="#52C7EA"></path>
                        <path d="M21.5186567,18.1940094 C21.3312494,17.879008 21.2849019,17.4972655 21.3913134,17.1451415 C21.4737407,16.8992275 21.6072742,16.6743817 21.7827761,16.4859906 C16.4980299,16.3849528 11.3477015,17.5613208 7.33874627,19.7649057 C7.67646334,19.8394459 8.00422537,19.9549364 8.31504478,20.1089151 C8.69634092,20.2972693 9.01703483,20.5927029 9.23946269,20.9605189 C12.6895224,19.110566 17.0616418,18.112217 21.5186567,18.1940094 L21.5186567,18.1940094 Z" id="Path-16" fill="#52C7EA"></path>
                        <path d="M23.9688358,19.5676415 C23.1488011,19.5059478 22.375996,19.1526352 21.7851343,18.5692925 C18.9552836,21.3911321 17.9058806,24.7783019 18.8680299,28.042783 C19.6919097,27.6422043 20.6094483,27.4855095 21.5162985,27.5905189 C20.7734627,24.8240094 21.6436418,21.9733019 23.9688358,19.5676415 Z" id="Path-17" fill="#52C7EA"></path>
                        <path d="M29.5530746,3.38476415 C30.4562687,3.59646226 31.1283582,4.04872642 31.4632239,4.58759434 C31.9348657,4.33018868 32.4230149,4.08481132 32.9300299,3.85386792 C41.249791,0.211698113 52.5809851,1.47226415 58.2053134,6.66608491 L58.2053134,6.66608491 C58.5381456,6.9802467 58.8530879,7.31357424 59.148597,7.66443396 C59.8883464,7.16534311 60.7618733,6.91314393 61.6482985,6.94273585 C61.2756104,6.50306344 60.8754528,6.08842545 60.4503284,5.70141509 C53.9770448,-0.264622642 40.9455821,-1.70320755 31.3783284,2.46820755 C30.753403,2.76891509 30.1591343,3.05759434 29.5530746,3.38476415 Z" id="Path-18" fill="#52C7EA"></path>
                        <path d="M22.5845672,10.9986792 C22.0904762,12.595703 22.0904762,14.3092026 22.5845672,15.9062264 C23.4059897,15.504752 24.3188944,15.3384531 25.2257612,15.4250943 C24.4263284,12.6706132 25.2988657,9.81990566 27.6240597,7.41424528 C26.713791,7.29877358 25.9072836,6.93311321 25.449791,6.43273585 C24.1348157,7.68580606 23.149575,9.25585892 22.5845672,10.9986792 L22.5845672,10.9986792 Z" id="Path-19" fill="#52C7EA"></path>
                        <path d="M6.48979104,18.4995283 C5.78232836,12.1846698 13.3050149,6.62037736 23.327403,6.05745283 L23.327403,6.05745283 C23.9452537,6.02858491 24.5748955,6.0165566 25.1856716,6.03099057 C24.9981578,5.71514257 24.9518229,5.33262794 25.0583284,4.97971698 C25.1499055,4.73079333 25.2921664,4.50449919 25.4757313,4.31575472 C24.7116716,4.30132075 23.9051642,4.31575472 23.1411045,4.35665094 C11.6212537,4.9965566 2.96662687,11.3667453 3.77785075,18.6246226 C3.83720144,19.1214696 3.93738494,19.6123485 4.07734328,20.0920755 C4.89512926,19.7018704 5.80192148,19.5471427 6.69967164,19.6446226 C6.60444251,19.2681975 6.53432176,18.8856235 6.48979104,18.4995283 L6.48979104,18.4995283 Z" id="Path-20" fill="#52C7EA"></path>
                        <path d="M46.2798507,12.5431132 C49.6662388,10.6883491 54.0124179,9.69721698 58.4505672,9.74533019 C58.1722807,9.16951312 58.2904687,8.47625784 58.7429851,8.03009434 C53.4676716,7.94589623 48.3173433,9.12226415 44.3437612,11.3354717 C45.2375224,11.5303302 45.9638507,11.970566 46.2798507,12.5431132 Z" id="Path-21" fill="#52C7EA"></path>
                        <path d="M42.072806,11.3234434 C42.4297052,11.2483349 42.7931675,11.2104513 43.1575821,11.2103774 C40.7215522,8.28028302 36.6017612,6.07669811 31.6424478,5.03023585 C31.7049628,5.26004453 31.7049628,5.50288 31.6424478,5.73268868 C31.5077073,6.11334468 31.2605264,6.44198618 30.9349851,6.67330189 C35.1278806,7.58985849 38.6133134,9.46627358 40.707403,11.9416981 C41.1126195,11.6360215 41.5787547,11.4249554 42.072806,11.3234434 Z" id="Path-22" fill="#52C7EA"></path>
                        <path d="M57.9930746,19.132217 C55.5381791,16.2261792 51.4089552,14.0201887 46.4567164,12.9592925 C46.6029254,13.5510849 46.3270149,14.1428774 45.706806,14.6071698 C49.8737612,15.5309434 53.3497612,17.3905189 55.4627164,19.8442925 C56.2190866,19.3580589 57.0993046,19.1103542 57.9930746,19.132217 L57.9930746,19.132217 Z" id="Path-23" fill="#52C7EA"></path>
                        <path d="M39.9928657,13.9528302 C39.7068247,13.3755182 39.8418819,12.6737587 40.3206567,12.2496226 C35.0477015,12.1654245 29.8855821,13.3249528 25.8766269,15.5285377 C26.7538806,15.7450472 27.4707761,16.1684434 27.7773433,16.7313679 C31.2085373,14.9054717 35.5594328,13.911934 39.9928657,13.9600472 L39.9928657,13.9528302 Z" id="Path-24" fill="#52C7EA"></path>
                    </g>
                </g>
                <polygon id="Path" fill="#4BC7EC" fill-rule="nonzero" opacity="0.2" points="231.90099 202 230 200.707865 231.09901 200 233 201.292135"></polygon>
                <polygon id="Path" fill="#4BC7EC" fill-rule="nonzero" opacity="0.2" points="224.826397 206 223 204.812597 229.173603 201 231 202.187403"></polygon>
                <polygon id="Path" fill="#4BC7EC" fill-rule="nonzero" opacity="0.2" points="221.135706 207 219 205.680688 221.867075 204 224 205.316444"></polygon>
                <polygon id="Path" fill="#4BC7EC" fill-rule="nonzero" opacity="0.2" points="217.135706 210 215 208.680688 217.867075 207 220 208.319312"></polygon>
                <polygon id="Path" fill="#4BC7EC" fill-rule="nonzero" opacity="0.2" points="230.134519 206 228 204.681948 230.865481 203 233 204.318052"></polygon>
                <polygon id="Path" fill="#4BC7EC" fill-rule="nonzero" opacity="0.2" points="225.68128 208 224 206.955337 227.316528 205 229 206.044663"></polygon>
                <polygon id="Path" fill="#4BC7EC" fill-rule="nonzero" opacity="0.2" points="221.858664 210 220 208.84808 223.141336 207 225 208.15192"></polygon>
                <polygon id="Path" fill="#4BC7EC" fill-rule="nonzero" opacity="0.2" points="213.135706 212 211 210.680688 213.867075 209 216 210.319312"></polygon>
                <polygon id="Path" fill="#4BC7EC" fill-rule="nonzero" opacity="0.2" points="232.90256 204 231 202.707865 232.099917 202 234 203.292135"></polygon>
                <polygon id="Path" fill="#4BC7EC" fill-rule="nonzero" opacity="0.2" points="212.026539 215 209 212.702006 209.973461 212 213 214.297994"></polygon>
            </g>
        </g>
    </g>
</svg>
