<svg id="Layer_1" data-name="Layer 1" xmlns="http://www.w3.org/2000/svg" xmlns:xlink="http://www.w3.org/1999/xlink" viewBox="0 0 540 540"><defs><style>.cls-1{fill:none;}.cls-13,.cls-2,.cls-3,.cls-33{fill:#52c7ea;}.cls-12,.cls-3,.cls-34,.cls-6{opacity:0.1;}.cls-10,.cls-12,.cls-13,.cls-3,.cls-33,.cls-34,.cls-57{isolation:isolate;}.cls-4{fill:#0a1a2b;}.cls-5{fill:#152935;}.cls-7{opacity:0.11;}.cls-8{fill:#161b20;}.cls-33,.cls-9{opacity:0.2;}.cls-10{opacity:0.4;}.cls-11{fill:#ec432d;}.cls-12{fill:url(#linear-gradient);}.cls-13{opacity:0.6;}.cls-14{fill:url(#linear-gradient-2);}.cls-15{fill:url(#linear-gradient-3);}.cls-16{fill:url(#linear-gradient-4);}.cls-17{fill:url(#linear-gradient-5);}.cls-18{fill:url(#linear-gradient-6);}.cls-19{fill:url(#linear-gradient-7);}.cls-20{fill:url(#linear-gradient-8);}.cls-21{fill:url(#linear-gradient-9);}.cls-22{fill:url(#linear-gradient-10);}.cls-23{fill:url(#linear-gradient-11);}.cls-24{fill:url(#linear-gradient-12);}.cls-25{fill:url(#linear-gradient-13);}.cls-26{fill:url(#linear-gradient-14);}.cls-27{fill:url(#linear-gradient-15);}.cls-28{fill:url(#linear-gradient-16);}.cls-29{fill:url(#linear-gradient-17);}.cls-30{fill:url(#linear-gradient-18);}.cls-31{fill:url(#linear-gradient-19);}.cls-32{fill:url(#linear-gradient-20);}.cls-34{fill:url(#linear-gradient-21);}.cls-35{fill:url(#linear-gradient-22);}.cls-36{fill:url(#linear-gradient-23);}.cls-37{fill:url(#linear-gradient-24);}.cls-38{fill:url(#linear-gradient-25);}.cls-39{fill:url(#linear-gradient-26);}.cls-40{fill:url(#linear-gradient-27);}.cls-41{fill:url(#linear-gradient-28);}.cls-42{fill:url(#linear-gradient-29);}.cls-43{fill:url(#linear-gradient-30);}.cls-44{fill:url(#linear-gradient-31);}.cls-45{fill:url(#linear-gradient-32);}.cls-46{fill:url(#linear-gradient-33);}.cls-47{fill:url(#linear-gradient-34);}.cls-48{fill:url(#linear-gradient-35);}.cls-49{fill:url(#linear-gradient-36);}.cls-50{fill:url(#linear-gradient-37);}.cls-51{fill:url(#linear-gradient-38);}.cls-52{fill:url(#linear-gradient-39);}.cls-53{fill:url(#linear-gradient-40);}.cls-54{fill:url(#linear-gradient-41);}.cls-55{fill:url(#linear-gradient-42);}.cls-56{opacity:0.2;}.cls-58{clip-path:url(#clip-path);}.cls-59{clip-path:url(#clip-path-2);}.cls-60{clip-path:url(#clip-path-3);}.cls-61{clip-path:url(#clip-path-4);}.cls-62{clip-path:url(#clip-path-5);}.cls-63{clip-path:url(#clip-path-6);}</style><linearGradient id="linear-gradient" x1="-609.35" y1="2345.47" x2="-609.35" y2="2346.62" gradientTransform="matrix(17, 0, 0, -155, 10492, 363819)" gradientUnits="userSpaceOnUse"><stop offset="0" stop-color="#52c7ea" stop-opacity="0"/><stop offset="0.7" stop-color="#52c7ea"/></linearGradient><linearGradient id="linear-gradient-2" x1="-565.24" y1="2174.95" x2="-565.72" y2="2185.05" gradientTransform="matrix(8, 0, 0, -4, 4655, 8948.96)" xlink:href="#linear-gradient"/><linearGradient id="linear-gradient-3" x1="-565.21" y1="2174.67" x2="-565.69" y2="2184.71" gradientTransform="matrix(8, 0, 0, -4, 4655, 8939.96)" xlink:href="#linear-gradient"/><linearGradient id="linear-gradient-4" x1="-565.19" y1="1656.66" x2="-565.67" y2="1658.7" gradientTransform="matrix(8, 0, 0, -1, 4655, 1881)" xlink:href="#linear-gradient"/><linearGradient id="linear-gradient-5" x1="-565.18" y1="1657.27" x2="-565.65" y2="1659.31" gradientTransform="matrix(8, 0, 0, -1, 4655, 1876)" xlink:href="#linear-gradient"/><linearGradient id="linear-gradient-6" x1="-565.16" y1="1657.74" x2="-565.63" y2="1659.78" gradientTransform="matrix(8, 0, 0, -1, 4655, 1872)" xlink:href="#linear-gradient"/><linearGradient id="linear-gradient-7" x1="-565.14" y1="1658.48" x2="-565.62" y2="1660.52" gradientTransform="matrix(8, 0, 0, -1, 4655, 1866)" xlink:href="#linear-gradient"/><linearGradient id="linear-gradient-8" x1="-565.13" y1="1659.09" x2="-565.6" y2="1661.13" gradientTransform="matrix(8, 0, 0, -1, 4655, 1861)" xlink:href="#linear-gradient"/><linearGradient id="linear-gradient-9" x1="-565.1" y1="2173.51" x2="-565.58" y2="2183.53" gradientTransform="matrix(8, 0, 0, -4, 4655, 8906)" xlink:href="#linear-gradient"/><linearGradient id="linear-gradient-10" x1="-565.08" y1="2173.24" x2="-565.55" y2="2183.26" gradientTransform="matrix(8, 0, 0, -4, 4655, 8898)" xlink:href="#linear-gradient"/><linearGradient id="linear-gradient-11" x1="-565.05" y1="2172.97" x2="-565.53" y2="2182.99" gradientTransform="matrix(8, 0, 0, -4, 4655, 8890)" xlink:href="#linear-gradient"/><linearGradient id="linear-gradient-12" x1="-565.03" y1="2172.66" x2="-565.5" y2="2182.68" gradientTransform="matrix(8, 0, 0, -4, 4655, 8883)" xlink:href="#linear-gradient"/><linearGradient id="linear-gradient-13" x1="-565.01" y1="1663.59" x2="-565.48" y2="1665.63" gradientTransform="matrix(8, 0, 0, -1, 4655, 1824.02)" xlink:href="#linear-gradient"/><linearGradient id="linear-gradient-14" x1="-564.98" y1="2172.25" x2="-565.46" y2="2182.27" gradientTransform="matrix(8, 0, 0, -4, 4655, 8869)" xlink:href="#linear-gradient"/><linearGradient id="linear-gradient-15" x1="-564.96" y1="1665.03" x2="-565.44" y2="1667.07" gradientTransform="matrix(8, 0, 0, -1, 4655, 1812.02)" xlink:href="#linear-gradient"/><linearGradient id="linear-gradient-16" x1="-564.94" y1="2171.8" x2="-565.42" y2="2181.83" gradientTransform="matrix(8, 0, 0, -4, 4655, 8856)" xlink:href="#linear-gradient"/><linearGradient id="linear-gradient-17" x1="-564.92" y1="1666.74" x2="-565.4" y2="1668.78" gradientTransform="matrix(8, 0, 0, -1, 4655, 1798.02)" xlink:href="#linear-gradient"/><linearGradient id="linear-gradient-18" x1="-564.9" y1="2171.32" x2="-565.37" y2="2181.35" gradientTransform="matrix(8, 0, 0, -4, 4655, 8844)" xlink:href="#linear-gradient"/><linearGradient id="linear-gradient-19" x1="-564.88" y1="1668.32" x2="-565.36" y2="1670.36" gradientTransform="matrix(8, 0, 0, -1, 4655, 1785.02)" xlink:href="#linear-gradient"/><linearGradient id="linear-gradient-20" x1="-564.86" y1="1668.93" x2="-565.34" y2="1670.97" gradientTransform="matrix(8, 0, 0, -1, 4655, 1780.02)" xlink:href="#linear-gradient"/><linearGradient id="linear-gradient-21" x1="-601.65" y1="2345.08" x2="-601.65" y2="2346.23" gradientTransform="matrix(15, 0, 0, -143, 9470, 335629)" xlink:href="#linear-gradient"/><linearGradient id="linear-gradient-22" x1="-548.06" y1="1652.19" x2="-548.53" y2="1654.87" gradientTransform="matrix(7, 0, 0, -1, 4282, 1916.04)" xlink:href="#linear-gradient"/><linearGradient id="linear-gradient-23" x1="-548.04" y1="2174.03" x2="-548.51" y2="2187.23" gradientTransform="matrix(7, 0, 0, -4, 4282, 8960.96)" xlink:href="#linear-gradient"/><linearGradient id="linear-gradient-24" x1="-548.01" y1="2173.52" x2="-548.48" y2="2186.72" gradientTransform="matrix(7, 0, 0, -4, 4282, 8952.96)" xlink:href="#linear-gradient"/><linearGradient id="linear-gradient-25" x1="-547.99" y1="1654.59" x2="-548.46" y2="1657.28" gradientTransform="matrix(7, 0, 0, -1, 4282, 1895)" xlink:href="#linear-gradient"/><linearGradient id="linear-gradient-26" x1="-547.97" y1="1655.05" x2="-548.44" y2="1657.74" gradientTransform="matrix(7, 0, 0, -1, 4282, 1891.04)" xlink:href="#linear-gradient"/><linearGradient id="linear-gradient-27" x1="-547.95" y1="1655.64" x2="-548.43" y2="1658.32" gradientTransform="matrix(7, 0, 0, -1, 4282, 1886.04)" xlink:href="#linear-gradient"/><linearGradient id="linear-gradient-28" x1="-547.94" y1="1656.21" x2="-548.41" y2="1658.89" gradientTransform="matrix(7, 0, 0, -1, 4282, 1881)" xlink:href="#linear-gradient"/><linearGradient id="linear-gradient-29" x1="-547.92" y1="1656.67" x2="-548.39" y2="1659.35" gradientTransform="matrix(7, 0, 0, -1, 4282, 1877.04)" xlink:href="#linear-gradient"/><linearGradient id="linear-gradient-30" x1="-547.9" y1="2171.54" x2="-548.37" y2="2184.61" gradientTransform="matrix(7, 0, 0, -4, 4282, 8923)" xlink:href="#linear-gradient"/><linearGradient id="linear-gradient-31" x1="-547.87" y1="2171.05" x2="-548.34" y2="2184.15" gradientTransform="matrix(7, 0, 0, -4, 4282, 8915.96)" xlink:href="#linear-gradient"/><linearGradient id="linear-gradient-32" x1="-547.85" y1="2170.57" x2="-548.32" y2="2183.77" gradientTransform="matrix(7, 0, 0, -4, 4282, 8907.96)" xlink:href="#linear-gradient"/><linearGradient id="linear-gradient-33" x1="-547.82" y1="2170.12" x2="-548.29" y2="2183.22" gradientTransform="matrix(7, 0, 0, -4, 4281.98, 8902.04)" xlink:href="#linear-gradient"/><linearGradient id="linear-gradient-34" x1="-547.8" y1="1660.46" x2="-548.27" y2="1663.14" gradientTransform="matrix(7, 0, 0, -1, 4282, 1844.04)" xlink:href="#linear-gradient"/><linearGradient id="linear-gradient-35" x1="-547.78" y1="2169.4" x2="-548.25" y2="2182.5" gradientTransform="matrix(7, 0, 0, -4, 4281.98, 8889.04)" xlink:href="#linear-gradient"/><linearGradient id="linear-gradient-36" x1="-547.76" y1="1661.71" x2="-548.23" y2="1664.4" gradientTransform="matrix(7, 0, 0, -1, 4282, 1833.04)" xlink:href="#linear-gradient"/><linearGradient id="linear-gradient-37" x1="-547.74" y1="2168.56" x2="-548.21" y2="2181.73" gradientTransform="matrix(7, 0, 0, -4, 4281.98, 8878.02)" xlink:href="#linear-gradient"/><linearGradient id="linear-gradient-38" x1="-547.72" y1="1663.22" x2="-548.19" y2="1665.91" gradientTransform="matrix(7, 0, 0, -1, 4282, 1820)" xlink:href="#linear-gradient"/><linearGradient id="linear-gradient-39" x1="-547.7" y1="2167.8" x2="-548.17" y2="2180.97" gradientTransform="matrix(7, 0, 0, -4, 4281.98, 8866)" xlink:href="#linear-gradient"/><linearGradient id="linear-gradient-40" x1="-547.68" y1="1664.47" x2="-548.15" y2="1667.16" gradientTransform="matrix(7, 0, 0, -1, 4282, 1809)" xlink:href="#linear-gradient"/><linearGradient id="linear-gradient-41" x1="-547.66" y1="1665.06" x2="-548.13" y2="1667.74" gradientTransform="matrix(7, 0, 0, -1, 4282, 1804)" xlink:href="#linear-gradient"/><linearGradient id="linear-gradient-42" x1="-616.53" y1="2253.29" x2="-616.53" y2="2253.41" gradientTransform="matrix(22, 0, 0, -7, 14014, 15886)" gradientUnits="userSpaceOnUse"><stop offset="0" stop-color="#52c7ea" stop-opacity="0.1"/><stop offset="0.35" stop-color="#52c7ea" stop-opacity="0.07"/><stop offset="0.76" stop-color="#52c7ea" stop-opacity="0"/></linearGradient><clipPath id="clip-path"><polygon class="cls-1" points="61.3 358.46 72.57 351.91 83.91 358.46 72.64 365.01 61.3 358.46"/></clipPath><clipPath id="clip-path-2"><polygon class="cls-1" points="66.08 358.46 72.58 354.68 79.13 358.46 72.63 362.24 66.08 358.46"/></clipPath><clipPath id="clip-path-3"><polygon class="cls-1" points="283.39 288.24 294.66 281.69 306.01 288.24 294.74 294.79 283.39 288.24"/></clipPath><clipPath id="clip-path-4"><polygon class="cls-1" points="288.17 288.24 294.68 284.46 301.21 288.24 294.71 292.02 288.17 288.24"/></clipPath><clipPath id="clip-path-5"><polygon class="cls-1" points="310.96 513.36 322.23 506.81 333.57 513.36 322.3 519.91 310.96 513.36"/></clipPath><clipPath id="clip-path-6"><polygon class="cls-1" points="315.74 513.36 322.24 509.59 328.78 513.36 322.28 517.14 315.74 513.36"/></clipPath></defs><path class="cls-2" d="M308.84,345.45a.38.38,0,0,1-.33-.18.38.38,0,0,1,.13-.51l75.86-44.89a.45.45,0,0,1,.19-.05h62.18l39.82-23.4V242.85a.38.38,0,0,1,.75,0v33.78a.36.36,0,0,1-.19.32l-40.09,23.57a.45.45,0,0,1-.19.05H384.8L309,345.4A.34.34,0,0,1,308.84,345.45Z"/><path class="cls-2" d="M293.4,336.54a.38.38,0,0,1-.19-.7L369.47,291V255.63a.37.37,0,0,1,.19-.32L408,233a.37.37,0,0,1,.51.13.4.4,0,0,1-.13.52l-38.19,22.21v35.33a.36.36,0,0,1-.19.32l-76.44,45A.41.41,0,0,1,293.4,336.54Z"/><path class="cls-2" d="M281.69,329.3a.39.39,0,0,1-.33-.19.37.37,0,0,1,.14-.51l33.76-19.55V278L208.05,215.81a.37.37,0,0,1,.37-.65l107.4,62.32a.37.37,0,0,1,.19.33v31.46a.36.36,0,0,1-.19.32l-33.95,19.66A.37.37,0,0,1,281.69,329.3Z"/><path class="cls-2" d="M287.89,262.08h0l-25.17-.14a.41.41,0,0,1-.19-.05l-42.36-24.31a.37.37,0,1,1,.37-.64l42.28,24.25,25.08.14a.38.38,0,0,1,0,.75Z"/><path class="cls-2" d="M267.9,320.88a.38.38,0,0,1-.32-.18.4.4,0,0,1,.13-.52l27.14-15.76V289.29a.37.37,0,1,1,.74,0v15.35a.38.38,0,0,1-.18.32l-27.32,15.87A.41.41,0,0,1,267.9,320.88Z"/><path class="cls-2" d="M231.51,309.05a.45.45,0,0,1-.19-.05l-3.25-1.87a.36.36,0,0,1-.19-.32.39.39,0,0,1,.18-.33l28.3-16.36a.37.37,0,0,1,.51.13.39.39,0,0,1-.14.52l-27.73,16,2.7,1.54a.37.37,0,0,1,.13.51A.36.36,0,0,1,231.51,309.05Z"/><path class="cls-2" d="M219.35,316a.29.29,0,0,1-.18-.05l-9.33-5.41a.37.37,0,0,1-.19-.32V296.36a.38.38,0,0,1,.18-.32l43.89-25.9a.37.37,0,1,1,.38.64l-43.7,25.79V310l9.14,5.31a.37.37,0,0,1,.14.51A.4.4,0,0,1,219.35,316Z"/><path class="cls-2" d="M200.92,326.57a.32.32,0,0,1-.19-.05L196,323.76a.37.37,0,0,1-.14-.51.36.36,0,0,1,.51-.13l4.77,2.75a.38.38,0,0,1,.14.51A.37.37,0,0,1,200.92,326.57Z"/><path class="cls-2" d="M190.11,332.76a.45.45,0,0,1-.19-.05l-12-7a.37.37,0,0,1-.19-.32V297.87a.37.37,0,0,1,.19-.32l46.63-26.92V260.45l-25.34-14.64a.37.37,0,1,1,.37-.64l25.53,14.74a.38.38,0,0,1,.18.32v10.62a.38.38,0,0,1-.18.32l-46.63,26.92v27.07l11.79,6.9a.38.38,0,0,1,.14.51A.39.39,0,0,1,190.11,332.76Z"/><path class="cls-2" d="M181.08,338.09a.45.45,0,0,1-.19,0l-24.3-14.28a.37.37,0,0,1-.19-.32V272.7l-10-5.81a.36.36,0,0,1-.13-.51.38.38,0,0,1,.51-.13L157,272.16a.37.37,0,0,1,.19.32v50.74l24.12,14.17a.37.37,0,0,1,.13.51A.36.36,0,0,1,181.08,338.09Z"/><path class="cls-2" d="M170.44,344a.45.45,0,0,1-.19,0l-71.9-42.11a.38.38,0,0,1-.18-.32v-6.36L75,281.8a.38.38,0,0,1-.14-.51.37.37,0,0,1,.51-.14l23.38,13.5a.37.37,0,0,1,.18.32v6.37l71.72,42a.37.37,0,0,1,.13.51A.37.37,0,0,1,170.44,344Z"/><path class="cls-2" d="M88.22,289.15a.38.38,0,0,1-.37-.38V271.33L56.17,252.84a.38.38,0,0,1-.13-.51.37.37,0,0,1,.51-.14L88.41,270.8a.36.36,0,0,1,.19.32v17.65A.38.38,0,0,1,88.22,289.15Z"/><path class="cls-2" d="M56.9,330.9a.38.38,0,0,1,0-.75l89.72-.16h0a.38.38,0,0,1,0,.75l-89.72.16Z"/><path class="cls-2" d="M124.88,330.88a.32.32,0,0,1-.19-.05L56.61,291.72a.38.38,0,0,1-.14-.51.37.37,0,0,1,.51-.14l68.08,39.12a.37.37,0,0,1,.14.51A.36.36,0,0,1,124.88,330.88Z"/><path class="cls-2" d="M160.55,350a.41.41,0,0,1-.19-.05l-7.59-4.52H42.4a.38.38,0,0,1,0-.75H152.87a.33.33,0,0,1,.19.06l7.68,4.57a.38.38,0,0,1,.13.51A.37.37,0,0,1,160.55,350Z"/><path class="cls-2" d="M103.67,357.7H77.41a.38.38,0,0,1,0-.75h26.16l21.12-12.21a.37.37,0,1,1,.37.65l-21.2,12.26A.41.41,0,0,1,103.67,357.7Z"/><path class="cls-2" d="M107,368.49H51.1a.38.38,0,0,1,0-.75h55.83l27-15.48a.41.41,0,0,1,.18-.05l13.47-.09a.32.32,0,0,1,.19.05l13.9,8.05a.38.38,0,0,1-.38.65l-13.81-8-13.26.1-27,15.48A.41.41,0,0,1,107,368.49Z"/><path class="cls-2" d="M119.27,371.92a.35.35,0,0,1-.32-.18.36.36,0,0,1,.13-.51l18.84-11a.41.41,0,0,1,.19-.05h10.12a.41.41,0,0,1,.19.05l11.08,6.4,7.43-.1a.38.38,0,1,1,0,.75l-7.54.1a.41.41,0,0,1-.19,0l-11.08-6.41h-9.92l-18.75,10.93A.34.34,0,0,1,119.27,371.92Z"/><path class="cls-2" d="M128.17,392.06a.36.36,0,0,1-.32-.18.37.37,0,0,1,.14-.51L149.27,379a.37.37,0,0,1,.18-.05l18.34-.23h0a.38.38,0,0,1,.38.37.38.38,0,0,1-.37.38l-18.24.23L128.36,392A.32.32,0,0,1,128.17,392.06Z"/><path class="cls-2" d="M145.22,402.34H120a.32.32,0,0,1-.19,0L93.9,387.58a.37.37,0,0,1,.37-.65L120,401.6h25.08l20.43-12.14a.36.36,0,0,1,.51.13.37.37,0,0,1-.13.51l-20.52,12.19A.41.41,0,0,1,145.22,402.34Z"/><path class="cls-2" d="M118.13,439.44a.4.4,0,0,1-.32-.18.39.39,0,0,1,.13-.52l65.52-39.05a.37.37,0,0,1,.51.13.37.37,0,0,1-.13.51l-65.52,39.05A.33.33,0,0,1,118.13,439.44Z"/><path class="cls-2" d="M145.64,422.74H111.56a.38.38,0,0,1,0-.75h34.08a.38.38,0,0,1,0,.75Z"/><path class="cls-2" d="M93.84,521.2a.38.38,0,0,1-.19-.7l49.46-28.63.64-50.55a.38.38,0,0,1,.18-.32l55-32.45a.37.37,0,0,1,.51.14.37.37,0,0,1-.13.51l-54.86,32.34-.63,50.55a.37.37,0,0,1-.19.32L94,521.15A.45.45,0,0,1,93.84,521.2Z"/><path class="cls-2" d="M130.9,520a.37.37,0,0,1-.19-.7l37.74-21.56V438a.37.37,0,0,1,.18-.32l40-23.16a.37.37,0,1,1,.37.65l-39.81,23V498a.39.39,0,0,1-.18.33l-37.93,21.66A.37.37,0,0,1,130.9,520Z"/><path class="cls-2" d="M190.92,502.54a.38.38,0,0,1-.38-.38V439a.36.36,0,0,1,.19-.32L221,421.14a.37.37,0,1,1,.37.65l-30.09,17.4v63A.38.38,0,0,1,190.92,502.54Z"/><path class="cls-2" d="M208.32,511.61a.36.36,0,0,1-.37-.37V489.85l-17.22-9.78a.37.37,0,0,1-.19-.33v-18.3a.37.37,0,0,1,.19-.33.39.39,0,0,1,.38,0l21.94,12.95a.37.37,0,0,1-.37.65l-21.39-12.63v17.44l17.21,9.77a.39.39,0,0,1,.19.33v21.61A.36.36,0,0,1,208.32,511.61Z"/><path class="cls-2" d="M272.46,480.54a.41.41,0,0,1-.19-.05L219.4,449.76a.38.38,0,0,1-.18-.32V435.52a.38.38,0,0,1,.18-.32l13-7.53a.37.37,0,1,1,.37.65L220,435.74v13.48l52.69,30.62a.39.39,0,0,1,.13.51A.37.37,0,0,1,272.46,480.54Z"/><path class="cls-2" d="M276,470.48a.45.45,0,0,1-.19-.05l-22-12.65H233.19a.38.38,0,1,1,0-.75h20.73a.37.37,0,0,1,.18.05l22.09,12.7a.36.36,0,0,1,.13.51A.36.36,0,0,1,276,470.48Z"/><path class="cls-2" d="M276,502a.35.35,0,0,1-.19-.06L252,488.11a.36.36,0,0,1-.19-.32V475.66l-28.16-16.31a.37.37,0,0,1-.19-.32v-6.84a.38.38,0,0,1,.75,0v6.62l28.16,16.31a.37.37,0,0,1,.19.32v12.13l23.65,13.75a.36.36,0,0,1,.13.51A.37.37,0,0,1,276,502Z"/><path class="cls-2" d="M311.63,465.18a.45.45,0,0,1-.19-.05l-63.53-36.81a.38.38,0,0,1-.13-.51.37.37,0,0,1,.51-.14l63.44,36.76,13.83,0h0a.37.37,0,0,1,.37.37.37.37,0,0,1-.37.38l-13.93,0Z"/><path class="cls-2" d="M293.36,441.91a.41.41,0,0,1-.19-.05l-34.45-19.95a.36.36,0,0,1-.13-.51.37.37,0,0,1,.51-.14l34.45,19.95a.38.38,0,0,1,.13.51A.37.37,0,0,1,293.36,441.91Z"/><path class="cls-2" d="M322.59,511.61a.36.36,0,0,1-.32-.18.37.37,0,0,1,.14-.51l23.14-13.18V459L269.7,415.9a.37.37,0,1,1,.37-.65l76,43.2a.38.38,0,0,1,.19.32V498a.4.4,0,0,1-.19.33l-23.33,13.27A.34.34,0,0,1,322.59,511.61Z"/><path class="cls-2" d="M359.71,494.61a.36.36,0,0,1-.37-.37V476l-13.29-7.74a.37.37,0,0,1-.14-.51.38.38,0,0,1,.51-.13l13.48,7.84a.39.39,0,0,1,.18.33v18.45A.36.36,0,0,1,359.71,494.61Z"/><path class="cls-2" d="M433.38,510.88a.38.38,0,0,1-.38-.38V495.3L281.55,408.37a.37.37,0,1,1,.37-.65l151.64,87a.37.37,0,0,1,.19.33V510.5A.38.38,0,0,1,433.38,510.88Z"/><path class="cls-2" d="M496.25,486.55a.45.45,0,0,1-.19-.05L426.11,446H368.26a.37.37,0,0,1-.18,0l-4.22-2.33a.37.37,0,0,1-.15-.5.38.38,0,0,1,.51-.15l4.13,2.28h57.86a.29.29,0,0,1,.18,0l70.05,40.51a.36.36,0,0,1,.13.51A.36.36,0,0,1,496.25,486.55Z"/><path class="cls-2" d="M480.55,493.25a.29.29,0,0,1-.18-.05l-28.49-16.84a.36.36,0,0,1-.18-.32V460.62a.38.38,0,0,1,.75,0v15.21l28.3,16.73a.38.38,0,0,1,.13.51A.38.38,0,0,1,480.55,493.25Z"/><path class="cls-2" d="M471.68,457.73a.32.32,0,0,1-.19-.05l-32.55-19.32H373a.37.37,0,0,1,0-.74h66a.34.34,0,0,1,.19.05L471.87,457a.37.37,0,0,1-.19.69Z"/><path class="cls-2" d="M450.26,431.24H376.49a.37.37,0,1,1,0-.74h73.67l69-39.83a.37.37,0,1,1,.37.65l-69.12,39.87A.29.29,0,0,1,450.26,431.24Z"/><path class="cls-2" d="M371.57,403.34a.37.37,0,0,1-.19-.69l8.48-5a.37.37,0,1,1,.38.64l-8.48,5A.34.34,0,0,1,371.57,403.34Z"/><path class="cls-2" d="M361.6,397.35a.38.38,0,0,1-.19-.7l25.46-14.74a.41.41,0,0,1,.19-.05l40.14-.14a.22.22,0,0,1,.18,0l22.09,12.79a.36.36,0,0,1,.13.51.37.37,0,0,1-.51.14l-22-12.75-39.94.15L361.79,397.3A.45.45,0,0,1,361.6,397.35Z"/><path class="cls-2" d="M325.31,410.66a.45.45,0,0,1-.19-.05L301.5,396.94a.37.37,0,1,1,.37-.65L325.5,410a.36.36,0,0,1,.13.51A.37.37,0,0,1,325.31,410.66Z"/><path class="cls-2" d="M317,416.33a.41.41,0,0,1-.19-.05L293.17,402.6a.37.37,0,0,1-.14-.51.39.39,0,0,1,.52-.13l23.6,13.67a.37.37,0,0,1,.14.51A.38.38,0,0,1,317,416.33Z"/><path class="cls-2" d="M320.22,400.55H307.84a.38.38,0,1,1,0-.75h12.28l10.95-6a.37.37,0,0,1,.51.14.39.39,0,0,1-.15.51l-11,6.09A.37.37,0,0,1,320.22,400.55Z"/><path class="cls-2" d="M310.33,380.36a.38.38,0,0,1-.19-.7L345,359.06a.38.38,0,0,1,.19-.05h12a.41.41,0,0,1,.19.05l13.45,7.67a.37.37,0,1,1-.37.64l-13.37-7.61h-11.8l-34.76,20.55A.41.41,0,0,1,310.33,380.36Z"/><path class="cls-2" d="M320.29,374.34a.37.37,0,0,1-.37-.37V359.91a.36.36,0,0,1,.19-.32l22.83-12.79a.37.37,0,1,1,.37.65l-22.65,12.68V374A.37.37,0,0,1,320.29,374.34Z"/><path class="cls-2" d="M398.7,353a.45.45,0,0,1-.19-.05l-31.67-18.45H343.23l-25.11,14.58a.37.37,0,0,1-.51-.13.36.36,0,0,1,.13-.51l25.2-14.64a.37.37,0,0,1,.18,0h23.82a.37.37,0,0,1,.18,0l31.77,18.5a.38.38,0,0,1-.19.7Z"/><path class="cls-2" d="M373.22,370.25c-2,0-3.64-.93-3.64-2.12s1.6-2.13,3.64-2.13,3.64.94,3.64,2.13S375.26,370.25,373.22,370.25Zm0-3.5c-1.71,0-2.9.73-2.9,1.38s1.19,1.37,2.9,1.37,2.89-.72,2.89-1.37S374.92,366.75,373.22,366.75Z"/><path class="cls-2" d="M401.22,355.85c-2,0-3.64-.93-3.64-2.12s1.6-2.13,3.64-2.13,3.64.94,3.64,2.13S403.26,355.85,401.22,355.85Zm0-3.5c-1.71,0-2.9.72-2.9,1.38s1.19,1.37,2.9,1.37,2.89-.72,2.89-1.37S402.92,352.35,401.22,352.35Z"/><path class="cls-2" d="M345.69,347.91c-2,0-3.64-.94-3.64-2.13s1.6-2.12,3.64-2.12,3.64.93,3.64,2.12S347.73,347.91,345.69,347.91Zm0-3.5c-1.7,0-2.89.72-2.89,1.37s1.19,1.38,2.89,1.38,2.9-.73,2.9-1.38S347.4,344.41,345.69,344.41Z"/><path class="cls-2" d="M333.54,394.82c-2,0-3.64-.93-3.64-2.12s1.6-2.12,3.64-2.12,3.64.93,3.64,2.12S335.58,394.82,333.54,394.82Zm0-3.5c-1.71,0-2.9.73-2.9,1.38s1.19,1.38,2.9,1.38,2.9-.73,2.9-1.38S335.25,391.32,333.54,391.32Z"/><path class="cls-2" d="M381.88,398.63c-2,0-3.64-.93-3.64-2.12s1.6-2.13,3.64-2.13,3.65.94,3.65,2.13S383.93,398.63,381.88,398.63Zm0-3.5c-1.7,0-2.89.72-2.89,1.38s1.19,1.37,2.89,1.37,2.9-.72,2.9-1.37S383.59,395.13,381.88,395.13Z"/><path class="cls-2" d="M451.2,398.56c-2,0-3.64-.94-3.64-2.13s1.6-2.12,3.64-2.12,3.64.93,3.64,2.12S453.24,398.56,451.2,398.56Zm0-3.5c-1.71,0-2.9.72-2.9,1.37s1.19,1.38,2.9,1.38,2.89-.73,2.89-1.38S452.91,395.06,451.2,395.06Z"/><path class="cls-2" d="M474.26,460.6c-2,0-3.64-.93-3.64-2.12s1.6-2.13,3.64-2.13,3.65.94,3.65,2.13S476.31,460.6,474.26,460.6Zm0-3.5c-1.7,0-2.89.73-2.89,1.38s1.19,1.37,2.89,1.37,2.9-.72,2.9-1.37S476,457.1,474.26,457.1Z"/><path class="cls-2" d="M482.85,496.38c-2,0-3.64-.93-3.64-2.12s1.6-2.12,3.64-2.12,3.64.93,3.64,2.12S484.9,496.38,482.85,496.38Zm0-3.5c-1.7,0-2.89.73-2.89,1.38s1.19,1.38,2.89,1.38,2.9-.73,2.9-1.38S484.56,492.88,482.85,492.88Z"/><path class="cls-2" d="M275.05,483.48c-2.05,0-3.65-.94-3.65-2.13s1.6-2.12,3.65-2.12,3.64.93,3.64,2.12S277.09,483.48,275.05,483.48Zm0-3.5c-1.71,0-2.9.72-2.9,1.37s1.19,1.38,2.9,1.38,2.89-.73,2.89-1.38S276.75,480,275.05,480Z"/><path class="cls-2" d="M278.66,504.86c-2,0-3.64-.93-3.64-2.12s1.6-2.12,3.64-2.12,3.65.93,3.65,2.12S280.71,504.86,278.66,504.86Zm0-3.5c-1.7,0-2.89.73-2.89,1.38s1.19,1.38,2.89,1.38,2.9-.73,2.9-1.38S280.37,501.36,278.66,501.36Z"/><path class="cls-2" d="M215.42,477.71c-2,0-3.64-.93-3.64-2.12s1.6-2.13,3.64-2.13,3.64.94,3.64,2.13S217.47,477.71,215.42,477.71Zm0-3.5c-1.7,0-2.89.73-2.89,1.38s1.19,1.37,2.89,1.37,2.9-.72,2.9-1.37S217.13,474.21,215.42,474.21Z"/><path class="cls-2" d="M128.49,523c-2,0-3.64-.94-3.64-2.13s1.6-2.12,3.64-2.12,3.65.93,3.65,2.12S130.54,523,128.49,523Zm0-3.5c-1.7,0-2.89.72-2.89,1.37s1.19,1.38,2.89,1.38,2.9-.73,2.9-1.38S130.2,519.45,128.49,519.45Z"/><path class="cls-2" d="M91.21,524c-2,0-3.64-.94-3.64-2.13s1.6-2.12,3.64-2.12,3.64.93,3.64,2.12S93.25,524,91.21,524Zm0-3.5c-1.7,0-2.89.72-2.89,1.37s1.19,1.38,2.89,1.38,2.9-.73,2.9-1.38S92.92,520.52,91.21,520.52Z"/><path class="cls-2" d="M126,395.13c-2,0-3.64-.93-3.64-2.12s1.6-2.13,3.64-2.13,3.64.94,3.64,2.13S128,395.13,126,395.13Zm0-3.5c-1.71,0-2.9.73-2.9,1.38s1.19,1.37,2.9,1.37,2.89-.72,2.89-1.37S127.66,391.63,126,391.63Z"/><path class="cls-2" d="M91.48,388.19c-2,0-3.64-.93-3.64-2.12s1.6-2.12,3.64-2.12,3.65.93,3.65,2.12S93.53,388.19,91.48,388.19Zm0-3.5c-1.7,0-2.89.73-2.89,1.38s1.19,1.38,2.89,1.38,2.9-.73,2.9-1.38S93.19,384.69,91.48,384.69Z"/><path class="cls-2" d="M116.9,375c-2.05,0-3.65-.93-3.65-2.12s1.6-2.12,3.65-2.12,3.64.93,3.64,2.12S118.94,375,116.9,375Zm0-3.5c-1.71,0-2.9.73-2.9,1.38s1.19,1.37,2.9,1.37,2.89-.72,2.89-1.37S118.6,371.52,116.9,371.52Z"/><path class="cls-2" d="M74.06,359.52c-2,0-3.64-.93-3.64-2.13s1.6-2.12,3.64-2.12,3.65.93,3.65,2.12S76.11,359.52,74.06,359.52Zm0-3.5c-1.7,0-2.89.72-2.89,1.37s1.19,1.38,2.89,1.38,2.9-.72,2.9-1.38S75.77,356,74.06,356Z"/><path class="cls-2" d="M53.52,332.49c-2,0-3.64-.94-3.64-2.13s1.6-2.12,3.64-2.12,3.65.93,3.65,2.12S55.57,332.49,53.52,332.49Zm0-3.5c-1.7,0-2.89.72-2.89,1.37s1.19,1.38,2.89,1.38,2.9-.73,2.9-1.38S55.23,329,53.52,329Z"/><path class="cls-2" d="M72.59,282.5c-2,0-3.64-.93-3.64-2.12s1.6-2.13,3.64-2.13,3.64.93,3.64,2.13S74.64,282.5,72.59,282.5Zm0-3.5c-1.7,0-2.89.72-2.89,1.38s1.19,1.37,2.89,1.37,2.9-.72,2.9-1.37S74.3,279,72.59,279Z"/><path class="cls-2" d="M193.39,324.32c-2,0-3.65-.93-3.65-2.12s1.6-2.12,3.65-2.12S197,321,197,322.2,195.43,324.32,193.39,324.32Zm0-3.49c-1.71,0-2.9.72-2.9,1.37s1.19,1.38,2.9,1.38,2.89-.73,2.89-1.38S195.09,320.83,193.39,320.83Z"/><path class="cls-2" d="M258.57,290.94c-2,0-3.64-.93-3.64-2.12s1.6-2.12,3.64-2.12,3.64.93,3.64,2.12S260.61,290.94,258.57,290.94Zm0-3.5c-1.71,0-2.9.73-2.9,1.38s1.19,1.38,2.9,1.38,2.89-.73,2.89-1.38S260.27,287.44,258.57,287.44Z"/><path class="cls-2" d="M197.06,246.32c-2,0-3.64-.93-3.64-2.12s1.6-2.13,3.64-2.13,3.64.93,3.64,2.13S199.1,246.32,197.06,246.32Zm0-3.5c-1.7,0-2.89.72-2.89,1.38s1.19,1.37,2.89,1.37,2.9-.72,2.9-1.37S198.77,242.82,197.06,242.82Z"/><path class="cls-2" d="M205.57,216.57c-2,0-3.64-.94-3.64-2.13s1.6-2.12,3.64-2.12,3.64.93,3.64,2.12S207.61,216.57,205.57,216.57Zm0-3.5c-1.71,0-2.9.72-2.9,1.37s1.19,1.38,2.9,1.38,2.89-.73,2.89-1.38S207.27,213.07,205.57,213.07Z"/><path class="cls-2" d="M295.22,289.58c-2,0-3.64-.94-3.64-2.13s1.6-2.12,3.64-2.12,3.64.93,3.64,2.12S297.26,289.58,295.22,289.58Zm0-3.5c-1.71,0-2.89.72-2.89,1.37s1.18,1.38,2.89,1.38,2.9-.73,2.9-1.38S296.93,286.08,295.22,286.08Z"/><path class="cls-2" d="M410.6,234.13c-2,0-3.64-.94-3.64-2.13s1.6-2.12,3.64-2.12,3.64.93,3.64,2.12S412.64,234.13,410.6,234.13Zm0-3.5c-1.71,0-2.9.72-2.9,1.37s1.19,1.38,2.9,1.38,2.89-.73,2.89-1.38S412.31,230.63,410.6,230.63Z"/><g id="Content"><g id="Desktop-HD-v.2-Copy"><g id="HERO"><g id="IMG_HERO" data-name="IMG HERO"><path id="Path" class="cls-3" d="M63.16,428.53h0l-7.15-1L28.14,443.87c-7.07-2.16-16.07-1.49-22,2C1.73,448.42,0,451.91,1,455.24c-.77,3.21,1,6.57,5.3,9,7.28,4.12,19.05,4,26.27-.19,3.63-2.11,5.42-4.9,5.39-7.61h0L37.9,453h0a5.9,5.9,0,0,0-.4-2l3-1.71V447h0v-.12h3.93v-2.27h3.93v-2.28h3.94V440h3.93v-2.27h4.24l1.32-.78,1.46-6Z"/><polygon id="Path-2" data-name="Path" class="cls-3" points="22.33 447.48 31.27 452.53 40.39 447.2 40.36 444.88 40.28 444.93 40.27 444.77 44.33 444.74 44.31 442.45 48.28 442.43 48.26 440.14 52.23 440.12 52.21 437.84 56.19 437.81 56.16 435.52 60.42 435.49 61.74 434.72 63.2 428.73 63.17 426.42 62.47 428.63 56.03 427.78 22.33 447.48"/><polygon id="Path-3" data-name="Path" class="cls-4" points="31.27 450.26 40.39 444.88 40.28 442.43 44.33 442.4 44.23 440.09 48.29 440.06 48.18 437.76 52.24 437.74 52.14 435.43 56.19 435.41 56.09 433.1 60.42 433.07 61.75 432.29 63.2 426.25 56.03 425.28 22.33 445.16 31.27 450.26"/><path class="cls-2" d="M31.26,450.63a.41.41,0,0,1-.18-.05l-8.94-5.1a.39.39,0,0,1-.19-.32.37.37,0,0,1,.19-.32L55.84,425a.42.42,0,0,1,.24,0l7.17,1a.4.4,0,0,1,.26.16.45.45,0,0,1,.05.3l-1.45,6a.33.33,0,0,1-.17.23l-1.33.79a.41.41,0,0,1-.19.05l-3.94,0,.08,1.92a.37.37,0,0,1-.1.28.37.37,0,0,1-.27.11l-3.66,0,.08,1.92a.34.34,0,0,1-.1.27.36.36,0,0,1-.27.12l-3.67,0,.09,1.9a.36.36,0,0,1-.1.28.45.45,0,0,1-.27.12l-3.67,0,.08,1.92a.37.37,0,0,1-.1.28.39.39,0,0,1-.27.11l-3.66,0,.09,2.07a.36.36,0,0,1-.18.33l-9.13,5.38A.38.38,0,0,1,31.26,450.63Zm-8.19-5.48,8.19,4.68L40,444.68l-.09-2.24a.34.34,0,0,1,.1-.27.45.45,0,0,1,.27-.12l3.66,0-.08-1.92a.37.37,0,0,1,.1-.28.39.39,0,0,1,.27-.11l3.67,0-.09-1.91a.34.34,0,0,1,.1-.27.36.36,0,0,1,.27-.12l3.67,0-.08-1.92a.36.36,0,0,1,.37-.39l3.66,0-.08-1.92a.38.38,0,0,1,.1-.27.36.36,0,0,1,.27-.12l4.23,0,1.1-.65,1.32-5.48-6.63-.9Z"/><path id="Shape" class="cls-3" d="M7.27,463.09c7.12,4.16,18.62,4.07,25.68-.19,3.55-2.14,5.3-4.94,5.27-7.69h0l-.1-3.51-.57.66a11.29,11.29,0,0,0-4.7-4.71c-7.12-4.16-18.63-4.08-25.69.18S.14,458.93,7.27,463.09Zm10.29-6.21c1.85,1.08,1.86,2.86,0,3.95a7.13,7.13,0,0,1-6.73.05C9,459.81,9,458,10.83,456.93a7.22,7.22,0,0,1,6.73-.05Z"/><polyline id="Path-4" data-name="Path" class="cls-3" points="40.49 444.58 45.03 444.55 45.01 442.31"/><path id="Shape-2" data-name="Shape" class="cls-3" d="M7.27,463.09c7.12,4.16,18.62,4.07,25.68-.19,3.55-2.14,5.3-4.94,5.27-7.69h0l-.1-3.51-.57.66a11.29,11.29,0,0,0-4.7-4.71c-7.12-4.16-18.63-4.08-25.69.18S.14,458.93,7.27,463.09Zm10.29-6.21c1.85,1.08,1.86,2.86,0,3.95a7.13,7.13,0,0,1-6.73.05C9,459.81,9,458,10.83,456.93a7.22,7.22,0,0,1,6.73-.05Z"/><path id="Shape-3" data-name="Shape" class="cls-3" d="M7.27,463.09c7.12,4.16,18.62,4.07,25.68-.19,3.55-2.14,5.3-4.94,5.27-7.69h0l-.1-3.51-.57.66a11.29,11.29,0,0,0-4.7-4.71c-7.12-4.16-18.63-4.08-25.69.18S.14,458.93,7.27,463.09Zm10.29-6.21c1.85,1.08,1.86,2.86,0,3.95a7.13,7.13,0,0,1-6.73.05C9,459.81,9,458,10.83,456.93a7.22,7.22,0,0,1,6.73-.05Z"/><path id="Shape-4" data-name="Shape" class="cls-5" d="M7.27,459.68c7.12,4.16,18.62,4.08,25.69-.19s7-11.09-.11-15.25-18.62-4.08-25.69.19S.14,455.52,7.27,459.68Zm10.29-6.21c1.86,1.09,1.87,2.86,0,3.95a7.2,7.2,0,0,1-6.68.05c-1.85-1.08-1.87-2.86,0-4a7.24,7.24,0,0,1,6.67,0Z"/><path class="cls-2" d="M19.91,463.13A25.91,25.91,0,0,1,7.07,460c-3.57-2.08-5.55-4.89-5.57-7.91s1.91-5.88,5.46-8c7.16-4.33,18.86-4.41,26.09-.19,3.57,2.08,5.55,4.9,5.57,7.92s-1.92,5.87-5.46,8A26.16,26.16,0,0,1,19.91,463.13Zm.3-21.56a25.36,25.36,0,0,0-12.84,3.2c-3.3,2-5.1,4.6-5.08,7.33s1.86,5.3,5.18,7.23h0c7,4.09,18.34,4,25.28-.18,3.29-2,5.09-4.59,5.07-7.32s-1.85-5.3-5.17-7.24A25.21,25.21,0,0,0,20.21,441.57Zm-6,17.09a7.71,7.71,0,0,1-3.47-.83,2.78,2.78,0,0,1-1.61-2.34,2.73,2.73,0,0,1,1.59-2.31,7.65,7.65,0,0,1,7-.11h0l.1.06a2.49,2.49,0,0,1,0,4.64A7.72,7.72,0,0,1,14.17,458.66Zm.09-5.58a6.94,6.94,0,0,0-3.19.79,2,2,0,0,0-1.19,1.62,2,2,0,0,0,1.2,1.64,6.84,6.84,0,0,0,6.3-.06,2,2,0,0,0,1.18-1.62,2,2,0,0,0-1.13-1.59l-.06,0A6.79,6.79,0,0,0,14.26,453.08Z"/><path id="Shape-5" data-name="Shape" class="cls-5" d="M32.86,444.24c-7.13-4.16-18.63-4.08-25.7.19s-7,11.09.11,15.25a21.28,21.28,0,0,0,5.36,2.16,27.93,27.93,0,0,0,4.26.75c5.66.58,11.72-.47,16.07-3.1C40,455.19,40,448.4,32.86,444.24ZM17.58,457.45a7.23,7.23,0,0,1-6.68,0c-1.85-1.08-1.87-2.86,0-3.95a7.25,7.25,0,0,1,6.73-.05C19.42,454.56,19.43,456.33,17.58,457.45Z"/><path class="cls-2" d="M19.92,463.14c-1,0-2.05-.05-3.07-.15a29,29,0,0,1-4.32-.76A21.88,21.88,0,0,1,7.07,460c-3.57-2.08-5.55-4.9-5.57-7.92s1.91-5.87,5.46-8c7.16-4.33,18.87-4.41,26.1-.19h0c3.56,2.09,5.53,4.89,5.56,7.91s-1.91,5.87-5.45,8A26.19,26.19,0,0,1,19.92,463.14Zm.29-21.57a25.36,25.36,0,0,0-12.84,3.2c-3.3,2-5.1,4.59-5.08,7.33s1.86,5.3,5.18,7.23a20.89,20.89,0,0,0,5.26,2.13,28.4,28.4,0,0,0,4.2.74c5.78.58,11.69-.56,15.83-3.05,3.29-2,5.09-4.61,5.06-7.33s-1.86-5.29-5.17-7.23A25.18,25.18,0,0,0,20.21,441.57Zm-6,17.11a7.58,7.58,0,0,1-3.47-.83,2.81,2.81,0,0,1-1.62-2.34,2.77,2.77,0,0,1,1.6-2.31,7.64,7.64,0,0,1,7.11-.06,2.77,2.77,0,0,1,1.56,2.29,2.85,2.85,0,0,1-1.58,2.36h0A7.67,7.67,0,0,1,14.19,458.68Zm.13-5.6a6.85,6.85,0,0,0-3.23.81,2,2,0,0,0-1.19,1.62,2,2,0,0,0,1.2,1.64,6.83,6.83,0,0,0,6.28,0,2.09,2.09,0,0,0,1.19-1.66,2,2,0,0,0-1.14-1.61A6.79,6.79,0,0,0,14.32,453.08Zm3.26,4.37h0Z"/><g id="test"><g id="Group" class="cls-6"><polygon id="Path-2-2" data-name="Path-2" class="cls-2" points="238.26 460.35 106.34 383.83 238.25 307.33 370.17 383.83 238.26 460.35"/><polygon id="Path-3-2" data-name="Path-3" class="cls-2" points="238.26 444.03 134.47 383.83 238.25 323.64 342.03 383.83 238.26 444.03"/><path id="Path-4-2" data-name="Path-4" class="cls-2" d="M238.26,444.35a.43.43,0,0,1-.16-.05L134.29,384.11a.31.31,0,0,1-.15-.28.31.31,0,0,1,.15-.27l24.93-14.47a.32.32,0,0,1,.41.12.32.32,0,0,1-.09.42l-24.49,14.18,103.17,59.83,103.19-59.83-23.33-13.54a.31.31,0,0,1-.12-.42.33.33,0,0,1,.43-.12l23.81,13.82a.28.28,0,0,1,.15.26.33.33,0,0,1-.15.28L238.39,444.28a.49.49,0,0,1-.16.05Z"/></g><path id="Path-5" class="cls-4" d="M233.59,342.79a12.25,12.25,0,0,1,12.15,0l72.47,41.42a1.7,1.7,0,0,1,0,2.94L245.14,429a10.79,10.79,0,0,1-10.77,0l-73.16-41.81a1.69,1.69,0,0,1,0-2.94Z"/><path class="cls-2" d="M239.76,430.81a11.19,11.19,0,0,1-5.58-1.49L161,387.51a2.06,2.06,0,0,1,0-3.59l72.37-41.45h0a12.67,12.67,0,0,1,12.53,0l72.47,41.41a2.09,2.09,0,0,1,1,1.8,2.06,2.06,0,0,1-1,1.79l-73.07,41.85A11.18,11.18,0,0,1,239.76,430.81Zm-6-87.7L161.4,384.57a1.31,1.31,0,0,0-.68,1.15,1.33,1.33,0,0,0,.68,1.14l73.16,41.81a10.39,10.39,0,0,0,10.4,0L318,386.83a1.33,1.33,0,0,0,0-2.3l-72.47-41.41a11.92,11.92,0,0,0-11.79,0Z"/><path id="Path-6" class="cls-4" d="M233.59,330a12.25,12.25,0,0,1,12.15,0l72.47,41.42a1.7,1.7,0,0,1,0,2.94l-73.07,41.85a10.79,10.79,0,0,1-10.77,0l-73.16-41.81a1.69,1.69,0,0,1,0-2.94Z"/><path class="cls-2" d="M239.76,418.06a11.19,11.19,0,0,1-5.58-1.49L161,374.76a2.06,2.06,0,0,1,0-3.59l72.37-41.45h0a12.67,12.67,0,0,1,12.53,0l72.47,41.41a2.09,2.09,0,0,1,1,1.8,2.06,2.06,0,0,1-1,1.79l-73.07,41.85A11.18,11.18,0,0,1,239.76,418.06Zm-6-87.69L161.4,371.82a1.31,1.31,0,0,0-.68,1.15,1.33,1.33,0,0,0,.68,1.14l73.16,41.81a10.39,10.39,0,0,0,10.4,0L318,374.08a1.33,1.33,0,0,0,0-2.3l-72.47-41.41A11.92,11.92,0,0,0,233.77,330.37Z"/><path id="Path-7" class="cls-4" d="M233.59,319.25a12.3,12.3,0,0,1,12.15,0l72.47,41.42a1.7,1.7,0,0,1,0,2.94l-73.07,41.85a10.74,10.74,0,0,1-10.77,0l-73.16-41.81a1.69,1.69,0,0,1,0-2.94Z"/><path class="cls-2" d="M239.76,407.27a11.09,11.09,0,0,1-5.58-1.49L161,364a2.08,2.08,0,0,1-1.05-1.8,2,2,0,0,1,1.05-1.8l72.37-41.45h0a12.72,12.72,0,0,1,12.53,0l72.47,41.42a2.06,2.06,0,0,1,1,1.79,2.09,2.09,0,0,1-1,1.8l-73.07,41.84A11.08,11.08,0,0,1,239.76,407.27Zm-6-87.69L161.4,361a1.32,1.32,0,0,0-.68,1.15,1.35,1.35,0,0,0,.68,1.15l73.16,41.81a10.44,10.44,0,0,0,10.4,0L318,363.29a1.33,1.33,0,0,0,0-2.3l-72.47-41.41a12,12,0,0,0-11.79,0Z"/><g id="Group-2" class="cls-7"><path id="Path-8" class="cls-8" d="M234,307.56a12.41,12.41,0,0,1,12.21,0L319,348.91a1.69,1.69,0,0,1,0,2.94l-73.35,41.76a10.94,10.94,0,0,1-10.77,0l-73.45-41.76a1.68,1.68,0,0,1,0-2.94Z"/><path class="cls-2" d="M240.26,395.42a11.43,11.43,0,0,1-5.59-1.46L161.22,352.2a2.08,2.08,0,0,1,0-3.64l72.61-41.34a12.82,12.82,0,0,1,12.61,0l72.73,41.34a2.08,2.08,0,0,1,0,3.64L245.84,394A11.37,11.37,0,0,1,240.26,395.42Zm-6-87.51-72.62,41.35a1.27,1.27,0,0,0,0,2.24l73.46,41.77a10.63,10.63,0,0,0,10.38,0l73.34-41.76a1.29,1.29,0,0,0,0-2.25l-72.74-41.35a12,12,0,0,0-11.82,0Z"/></g><path id="Path-9" class="cls-4" d="M233.59,307.48a12.3,12.3,0,0,1,12.15,0l72.47,41.42a1.7,1.7,0,0,1,0,2.94l-73.07,41.85a10.74,10.74,0,0,1-10.77,0l-73.16-41.81a1.69,1.69,0,0,1,0-2.94Z"/><path class="cls-2" d="M239.76,395.5a11.09,11.09,0,0,1-5.58-1.49L161,352.21a2.07,2.07,0,0,1,0-3.6l72.37-41.45h0a12.72,12.72,0,0,1,12.53,0l72.47,41.42a2.07,2.07,0,0,1,0,3.59L245.33,394A11.08,11.08,0,0,1,239.76,395.5Zm-6-87.69L161.4,349.26a1.33,1.33,0,0,0-.68,1.15,1.35,1.35,0,0,0,.68,1.15l73.16,41.81a10.44,10.44,0,0,0,10.4,0L318,351.52a1.33,1.33,0,0,0,0-2.3l-72.47-41.41a12,12,0,0,0-11.79,0Z"/><g id="Group-3" class="cls-9"><path id="Path-10" class="cls-2" d="M135.38,336.11a8,8,0,0,1-3.92-1l-21-11.68a1.44,1.44,0,0,1,0-2.54L130.22,310a9.21,9.21,0,0,1,8.82,0l20.51,11.41a1.44,1.44,0,0,1,0,2.54l-20.28,11.14a8,8,0,0,1-3.91,1Z"/></g><path id="Path-11" class="cls-4" d="M139.31,298.19a8.53,8.53,0,0,0-8.52,0L111.05,309.4a1.19,1.19,0,0,0-.61,1,1.21,1.21,0,0,0,.61,1l21,12a7.55,7.55,0,0,0,7.5,0L159.79,312a1.21,1.21,0,0,0,.6-1,1.18,1.18,0,0,0-.6-1Z"/><path class="cls-2" d="M135.79,324.88a7.88,7.88,0,0,1-3.94-1.05l-21-12a1.56,1.56,0,0,1,0-2.72l19.74-11.21a8.93,8.93,0,0,1,8.89,0L160,309.62a1.58,1.58,0,0,1,0,2.72l-20.26,11.49A7.85,7.85,0,0,1,135.79,324.88Zm-.74-27.46a8.2,8.2,0,0,0-4.07,1.09l-19.75,11.21a.84.84,0,0,0-.41.71.81.81,0,0,0,.41.71l21,12.05a7.2,7.2,0,0,0,7.13,0l20.26-11.5a.82.82,0,0,0,0-1.42l-20.47-11.76h0A8.23,8.23,0,0,0,135.05,297.42Z"/><path id="Path-12" class="cls-4" d="M139.31,289.36a8.53,8.53,0,0,0-8.52,0l-19.74,11.2a1.21,1.21,0,0,0-.61,1,1.19,1.19,0,0,0,.61,1l21,12.05a7.5,7.5,0,0,0,7.5,0l20.25-11.49a1.18,1.18,0,0,0,.6-1,1.2,1.2,0,0,0-.6-1Z"/><path class="cls-2" d="M135.79,316.05a8,8,0,0,1-3.94-1l-21-12.06a1.56,1.56,0,0,1-.79-1.35,1.59,1.59,0,0,1,.79-1.36L130.61,289a8.93,8.93,0,0,1,8.89,0L160,300.8a1.58,1.58,0,0,1,.78,1.36,1.55,1.55,0,0,1-.78,1.35L139.72,315A7.94,7.94,0,0,1,135.79,316.05Zm-.74-27.45a8.19,8.19,0,0,0-4.07,1.08l-19.75,11.21a.85.85,0,0,0-.42.71.84.84,0,0,0,.42.7l21,12.06a7.2,7.2,0,0,0,7.13,0l20.26-11.5a.81.81,0,0,0,.41-.7.83.83,0,0,0-.42-.72l-20.47-11.75h0A8.22,8.22,0,0,0,135.05,288.6Z"/><path id="Path-13" class="cls-4" d="M139.31,281.52a8.53,8.53,0,0,0-8.52,0l-19.74,11.21a1.17,1.17,0,0,0-.61,1,1.21,1.21,0,0,0,.61,1l21,12a7.55,7.55,0,0,0,7.5,0l20.25-11.5a1.19,1.19,0,0,0,0-2.07Z"/><path class="cls-2" d="M135.79,308.21a7.88,7.88,0,0,1-3.94-1l-21-12a1.59,1.59,0,0,1-.79-1.36,1.55,1.55,0,0,1,.8-1.36l19.74-11.21a8.93,8.93,0,0,1,8.89,0L160,293a1.55,1.55,0,0,1,.78,1.36,1.59,1.59,0,0,1-.78,1.36l-20.26,11.49A7.85,7.85,0,0,1,135.79,308.21Zm-.74-27.46a8.09,8.09,0,0,0-4.07,1.09l-19.75,11.21a.84.84,0,0,0-.42.71.87.87,0,0,0,.42.71l21,12a7.15,7.15,0,0,0,7.13,0L159.61,295a.84.84,0,0,0,.41-.72.81.81,0,0,0-.41-.7l-20.48-11.76h0A8.13,8.13,0,0,0,135.05,280.75Z"/><g id="Group-4" class="cls-7"><path id="Path-14" class="cls-8" d="M139.24,272.89a8.53,8.53,0,0,0-8.47,0L111.12,284a1.15,1.15,0,0,0-.6,1,1.18,1.18,0,0,0,.6,1L132,297.85a7.49,7.49,0,0,0,7.47,0l20.15-11.33a1.18,1.18,0,0,0,.6-1,1.15,1.15,0,0,0-.6-1Z"/><path class="cls-2" d="M135.74,299.24a7.94,7.94,0,0,1-3.93-1l-20.89-11.87a1.56,1.56,0,0,1-.8-1.36,1.58,1.58,0,0,1,.8-1.37l19.66-11.05a9,9,0,0,1,8.86,0l20.39,11.58a1.57,1.57,0,0,1,0,2.74L139.68,298.2A8,8,0,0,1,135.74,299.24ZM135,272.17a8.17,8.17,0,0,0-4,1.07l-19.66,11.05a.79.79,0,0,0-.39.68.77.77,0,0,0,.39.67l20.89,11.87a7.15,7.15,0,0,0,7.08,0l20.16-11.34a.78.78,0,0,0,.4-.67.77.77,0,0,0-.4-.67l-20.39-11.59A8.17,8.17,0,0,0,135,272.17Z"/></g><path id="Path-15" class="cls-4" d="M139.31,273.67a8.53,8.53,0,0,0-8.52,0l-19.74,11.21a1.21,1.21,0,0,0-.61,1,1.19,1.19,0,0,0,.61,1l21,12a7.45,7.45,0,0,0,7.5,0l20.25-11.49a1.21,1.21,0,0,0,.6-1,1.19,1.19,0,0,0-.6-1Z"/><path class="cls-2" d="M135.79,300.36a7.88,7.88,0,0,1-3.94-1.05l-21-12a1.56,1.56,0,0,1,0-2.71l19.75-11.22a8.9,8.9,0,0,1,8.89,0L160,285.09a1.6,1.6,0,0,1,.78,1.36,1.58,1.58,0,0,1-.78,1.36l-20.26,11.5A7.85,7.85,0,0,1,135.79,300.36Zm-.74-27.45A8.19,8.19,0,0,0,131,274L111.23,285.2a.89.89,0,0,0-.42.72.84.84,0,0,0,.42.7l21,12a7.15,7.15,0,0,0,7.13,0l20.26-11.5a.8.8,0,0,0,.4-.71.81.81,0,0,0-.41-.71L139.13,274h0A8.22,8.22,0,0,0,135.05,272.91Z"/><g class="cls-10"><path id="Shape-6" data-name="Shape" class="cls-4" d="M135.42,293.15a.58.58,0,0,1-.34-.09l-12.55-7.17a.67.67,0,0,1,0-1.17l12.55-7.17a.69.69,0,0,1,.68,0l12.55,7.17a.69.69,0,0,1,.33.59.71.71,0,0,1-.33.58l-12.55,7.17a.69.69,0,0,1-.34.09Z"/><path class="cls-2" d="M135.41,293.53a1,1,0,0,1-.54-.16l-12.53-7.16a1.07,1.07,0,0,1-.52-.9,1,1,0,0,1,.51-.91l12.57-7.17a1,1,0,0,1,1,0l12.56,7.18a1.07,1.07,0,0,1,.51.91,1,1,0,0,1-.5.89l-12.57,7.18a1.13,1.13,0,0,1-.52.15h0Zm0-15.69a.32.32,0,0,0-.16,0L122.71,285a.35.35,0,0,0-.14.27.32.32,0,0,0,.15.26l12.55,7.16a.22.22,0,0,0,.14,0,.33.33,0,0,0,.16,0l12.56-7.17a.3.3,0,0,0,.13-.25.31.31,0,0,0-.14-.27l-12.55-7.17A.37.37,0,0,0,135.42,277.84Z"/></g><g id="Group-5" class="cls-9"><path id="Path-17" class="cls-2" d="M325.68,474.48a7.6,7.6,0,0,1-3.84-1l-20.57-12a1.51,1.51,0,0,1,0-2.6l49.79-29a8.62,8.62,0,0,1,8.67,0l20.1,11.69a1.52,1.52,0,0,1,0,2.61l-50.31,29.3a7.66,7.66,0,0,1-3.84,1Z"/></g><path id="Path-18" class="cls-4" d="M359.14,420.77a8.24,8.24,0,0,0-8.34,0l-49.75,29a1.2,1.2,0,0,0-.58,1,1.21,1.21,0,0,0,.58,1l20.57,11.95a7.24,7.24,0,0,0,7.36,0l50.22-29.24a1.21,1.21,0,0,0,.58-1,1.2,1.2,0,0,0-.58-1Z"/><path class="cls-2" d="M325.3,465.13a7.66,7.66,0,0,1-3.87-1.05l-20.56-12a1.57,1.57,0,0,1,0-2.7l49.75-29a8.61,8.61,0,0,1,8.72,0l20.06,11.68a1.57,1.57,0,0,1,0,2.7l-50.23,29.25A7.6,7.6,0,0,1,325.3,465.13ZM355,420a7.83,7.83,0,0,0-4,1.08l-49.75,29a.83.83,0,0,0,0,1.42l20.57,11.95a6.87,6.87,0,0,0,7,0L379,434.19a.83.83,0,0,0,0-1.42L359,421.09h0A7.86,7.86,0,0,0,355,420Z"/><path id="Path-19" class="cls-4" d="M359.14,412.92a8.24,8.24,0,0,0-8.34,0l-49.75,29a1.21,1.21,0,0,0-.58,1,1.18,1.18,0,0,0,.58,1l20.57,12a7.29,7.29,0,0,0,7.36,0l50.22-29.25a1.18,1.18,0,0,0,.58-1,1.21,1.21,0,0,0-.58-1Z"/><path class="cls-2" d="M325.3,457.28a7.66,7.66,0,0,1-3.87-1l-20.56-12a1.56,1.56,0,0,1,0-2.7l49.74-29a8.61,8.61,0,0,1,8.72,0l20.06,11.68a1.57,1.57,0,0,1,0,2.7l-50.23,29.25A7.6,7.6,0,0,1,325.3,457.28ZM355,412.16a7.74,7.74,0,0,0-4,1.09l-49.75,29a.81.81,0,0,0,0,1.4l20.57,12a6.89,6.89,0,0,0,7,0L379,426.34a.83.83,0,0,0,0-1.42L359,413.25h0A7.77,7.77,0,0,0,355,412.16Z"/><path id="Path-20" class="cls-4" d="M359.14,405.08a8.24,8.24,0,0,0-8.34,0l-49.75,29a1.18,1.18,0,0,0-.58,1,1.21,1.21,0,0,0,.58,1l20.57,12a7.24,7.24,0,0,0,7.36,0l50.22-29.24a1.21,1.21,0,0,0,.58-1,1.18,1.18,0,0,0-.58-1Z"/><path class="cls-2" d="M325.3,449.44a7.57,7.57,0,0,1-3.87-1.06l-20.56-12a1.57,1.57,0,0,1-.78-1.35,1.55,1.55,0,0,1,.78-1.34l49.74-29a8.64,8.64,0,0,1,8.72,0l20.06,11.67a1.62,1.62,0,0,1,.77,1.36,1.59,1.59,0,0,1-.77,1.35l-50.23,29.24A7.51,7.51,0,0,1,325.3,449.44ZM355,404.32a7.83,7.83,0,0,0-4,1.08l-49.75,29a.81.81,0,0,0-.4.7.85.85,0,0,0,.4.71l20.57,12a6.89,6.89,0,0,0,7,0L379,418.49a.8.8,0,0,0,.4-.7.83.83,0,0,0-.4-.71L359,405.4h0A7.86,7.86,0,0,0,355,404.32Z"/><g id="Group-6" class="cls-7"><path id="Path-21" class="cls-8" d="M359.14,396.47a8.3,8.3,0,0,0-8.32,0L301.2,425.15a1.12,1.12,0,0,0,0,2L321.77,439a7.33,7.33,0,0,0,7.33,0l50.11-29a1.18,1.18,0,0,0,0-2Z"/><path class="cls-2" d="M325.44,440.33a7.8,7.8,0,0,1-3.87-1L301,427.46a1.53,1.53,0,0,1,0-2.65l49.62-28.69a8.71,8.71,0,0,1,8.72,0l20.07,11.48a1.58,1.58,0,0,1,0,2.74l-50.11,29A7.79,7.79,0,0,1,325.44,440.33ZM355,395.75a7.87,7.87,0,0,0-4,1.06L301.4,425.5a.76.76,0,0,0-.38.64.78.78,0,0,0,.38.63L322,438.62a7,7,0,0,0,6.94,0l50.1-29a.79.79,0,0,0,.39-.68.76.76,0,0,0-.39-.67l-20.07-11.49A7.87,7.87,0,0,0,355,395.75Z"/></g><path id="Path-22" class="cls-4" d="M359.14,396.25a8.24,8.24,0,0,0-8.34,0l-49.75,29a1.17,1.17,0,0,0-.58,1,1.2,1.2,0,0,0,.58,1l20.57,12a7.29,7.29,0,0,0,7.36,0l50.22-29.25a1.2,1.2,0,0,0,.58-1,1.21,1.21,0,0,0-.58-1Z"/><path class="cls-2" d="M325.3,440.56a7.66,7.66,0,0,1-3.87-1.05l-20.56-12a1.6,1.6,0,0,1-.78-1.35,1.55,1.55,0,0,1,.78-1.3l49.74-29a8.61,8.61,0,0,1,8.72,0l20.06,11.63a1.57,1.57,0,0,1,0,2.7l-50.23,29.25A7.6,7.6,0,0,1,325.3,440.56ZM355,395.49a7.83,7.83,0,0,0-4,1.08l-49.75,29a.8.8,0,0,0-.4.67.83.83,0,0,0,.41.7l20.56,11.95a6.87,6.87,0,0,0,7,0L379,409.62a.83.83,0,0,0,0-1.42L359,396.57h0A7.86,7.86,0,0,0,355,395.49Z"/><g class="cls-10"><path id="Shape-2-2" data-name="Shape-2" class="cls-4" d="M326.39,433.37a.67.67,0,0,1-.34-.09L313.5,426.1a.68.68,0,0,1-.33-.57.68.68,0,0,1,.33-.59l12.55-7.17a.71.71,0,0,1,.69,0l12.55,7.17a.69.69,0,0,1,.32.59.67.67,0,0,1-.32.57l-12.55,7.18A.73.73,0,0,1,326.39,433.37Z"/><path class="cls-2" d="M326.39,433.74a1.06,1.06,0,0,1-.52-.13l-12.55-7.18a1.05,1.05,0,0,1,0-1.81l12.55-7.18a1.11,1.11,0,0,1,1.06,0l12.55,7.17a1.07,1.07,0,0,1,.52.92,1.06,1.06,0,0,1-.51.89l-12.55,7.19A1.16,1.16,0,0,1,326.39,433.74Zm0-15.69a.34.34,0,0,0-.17.05l-12.54,7.16a.32.32,0,0,0-.15.27.29.29,0,0,0,.15.25L326.23,433a.37.37,0,0,0,.34,0l12.53-7.17a.31.31,0,0,0,.14-.25.33.33,0,0,0-.15-.28l-12.53-7.16A.47.47,0,0,0,326.4,418.05Z"/></g><g class="cls-10"><path id="Shape-3-2" data-name="Shape-3" class="cls-4" d="M352.82,417.68a.66.66,0,0,1-.33-.09L340,410.42a.67.67,0,0,1-.34-.58.7.7,0,0,1,.34-.59l12.54-7.17a.71.71,0,0,1,.69,0l12.54,7.17a.66.66,0,0,1,0,1.16l-12.54,7.17a.75.75,0,0,1-.36.1Z"/><path class="cls-2" d="M352.82,418.05a1.07,1.07,0,0,1-.52-.14l-12.54-7.16a1.06,1.06,0,0,1,0-1.82l12.55-7.18a1.09,1.09,0,0,1,1.05,0l12.55,7.17a1.07,1.07,0,0,1,.52.91,1,1,0,0,1-.52.9l-12.55,7.18a1.08,1.08,0,0,1-.53.14h0Zm0-15.69a.33.33,0,0,0-.17,0l-12.54,7.18a.31.31,0,0,0,0,.52l12.55,7.17a.33.33,0,0,0,.14,0,.48.48,0,0,0,.17-.05l12.55-7.17a.31.31,0,0,0,.14-.26.3.3,0,0,0-.15-.26L353,402.4A.28.28,0,0,0,352.84,402.36Z"/></g><g id="_-_-Ockam.io" data-name=" - -Ockam.io"><g id="img-hero"><ellipse id="Oval" class="cls-11" cx="260.9" cy="332.43" rx="1.66" ry="1.14" transform="translate(-5.07 4.05) rotate(-0.88)"/><ellipse id="Oval-2" class="cls-11" cx="242.8" cy="336.58" rx="1.66" ry="1.14" transform="translate(-5.14 3.77) rotate(-0.88)"/><ellipse id="Oval-3" class="cls-11" cx="217.44" cy="364.54" rx="1.66" ry="1.14" transform="translate(-5.57 3.38) rotate(-0.88)"/><ellipse id="Oval-4" class="cls-11" cx="228.31" cy="328.81" rx="1.66" ry="1.14" transform="translate(-5.02 3.55) rotate(-0.88)"/><ellipse id="Oval-5" class="cls-11" cx="250.04" cy="368.18" rx="1.66" ry="1.14" transform="translate(-5.63 3.88) rotate(-0.88)"/><ellipse id="Oval-6" class="cls-11" cx="271.77" cy="352.13" rx="1.66" ry="1.14" transform="translate(-5.38 4.22) rotate(-0.88)"/><ellipse id="Oval-7" class="cls-11" cx="235.55" cy="360.4" rx="1.66" ry="1.14" transform="translate(-5.51 3.66) rotate(-0.88)"/><ellipse id="Oval-8" class="cls-11" cx="224.7" cy="340.71" rx="1.66" ry="1.14" transform="translate(-5.21 3.49) rotate(-0.88)"/><ellipse id="Oval-9" class="cls-11" cx="253.64" cy="356.27" rx="1.66" ry="1.14" transform="translate(-5.44 3.94) rotate(-0.88)"/><ellipse id="Oval-10" class="cls-11" cx="221.07" cy="352.62" rx="1.66" ry="1.14" transform="translate(-5.39 3.44) rotate(-0.88)"/><ellipse id="Oval-11" class="cls-11" cx="257.28" cy="344.36" rx="1.66" ry="1.14" transform="translate(-5.26 3.99) rotate(-0.88)"/><ellipse id="Oval-12" class="cls-11" cx="206.57" cy="344.84" rx="1.66" ry="1.14" transform="translate(-5.27 3.21) rotate(-0.88)"/><path id="Path-25" class="cls-2" d="M263.41,333.72c9.21,2,14,8.36,10.67,14.24a10.62,10.62,0,0,1-1.63,2.14,3.77,3.77,0,0,1,1.49.44,2.15,2.15,0,0,1,.69.55c6.05-6.09,3.2-14-6.33-17.74a28.55,28.55,0,0,0-4.14-1.24A1.73,1.73,0,0,1,263.41,333.72Z"/><path id="Path-2-2-2" data-name="Path-2-2" class="cls-2" d="M259.77,345.64a17.47,17.47,0,0,1,9.58,5.1,4.34,4.34,0,0,1,2.43-.68c-2.38-2.86-6.4-5-11.29-6A1.49,1.49,0,0,1,259.77,345.64Z"/><path id="Path-3-2-2" data-name="Path-3-2" class="cls-2" d="M260.31,338.51a9.18,9.18,0,0,1-2.39,3.81,4.5,4.5,0,0,1,1.49.44,3.09,3.09,0,0,1,.67.52c2.8-2.75,3.83-6.09,2.84-9.27a3.82,3.82,0,0,1-1,.35,4.65,4.65,0,0,1-1.62.09,7,7,0,0,1,0,4.06Z"/><path id="Path-4-2-2" data-name="Path-4-2" class="cls-2" d="M256.74,355.56a1.39,1.39,0,0,1-.28,1.7,28.77,28.77,0,0,0,14.15-3.21,4.79,4.79,0,0,1-1-.36,2.09,2.09,0,0,1-.91-.83,24.68,24.68,0,0,1-12,2.7Z"/><path id="Path-5-2" class="cls-2" d="M254.35,354.24a3.31,3.31,0,0,1,2.13,1c2.78-2.78,3.77-6.09,2.84-9.28a4.81,4.81,0,0,1-2.59.45C257.48,349.08,256.63,351.87,254.35,354.24Z"/><path id="Path-6-2" class="cls-2" d="M271.45,355.27c.72,6.18-6.66,11.62-16.44,12.17-.64,0-1.26.05-1.88,0a1.29,1.29,0,0,1,.12,1,1.72,1.72,0,0,1-.4.66h2.29c11.28-.62,19.78-6.86,19-14h0a8.75,8.75,0,0,0-.29-1.44,4.85,4.85,0,0,1-2.6.44,7.53,7.53,0,0,1,.22,1.15Z"/><path id="Path-7-2" class="cls-2" d="M255.7,362.63a8,8,0,0,0,0-4.8,4.73,4.73,0,0,1-2.59.44,7.77,7.77,0,0,1-2.35,7.84,3.51,3.51,0,0,1,2.14,1,11,11,0,0,0,2.8-4.47Z"/><path id="Path-8-2" class="cls-2" d="M236.62,362.32a5.58,5.58,0,0,1-1.08.12c2.35,2.88,6.41,5,11.27,6.06a1.53,1.53,0,0,1,.69-1.63,17.41,17.41,0,0,1-9.57-5.15,3.14,3.14,0,0,1-1.31.6Z"/><path id="Path-9-2" class="cls-2" d="M238.68,359.72a1.43,1.43,0,0,1-.3,1.69,28.93,28.93,0,0,0,14.13-3.23,3,3,0,0,1-1.86-1.19,25.14,25.14,0,0,1-12,2.72Z"/><path id="Path-10-2" class="cls-2" d="M220.55,363.87a1.4,1.4,0,0,1-.31,1.68,28.6,28.6,0,0,0,14.14-3.22,2.94,2.94,0,0,1-1.9-1.18,25,25,0,0,1-11.93,2.72Z"/><path id="Path-11-2" class="cls-2" d="M247.06,371c.64-.29,1.25-.59,1.81-.91a2.83,2.83,0,0,1-1.87-1.17,13.74,13.74,0,0,1-1.44.7c-8.14,3.57-19.24,2.35-24.77-2.74h0a10.58,10.58,0,0,1-.92-1,4.15,4.15,0,0,1-2.46.7,13.83,13.83,0,0,0,1.18,1.24c6.36,5.88,19.11,7.27,28.47,3.16Z"/><path id="Path-12-2" class="cls-2" d="M221.05,354.66c2.39,2.87,6.43,5,11.29,6.07a1.59,1.59,0,0,1,.7-1.63,17.39,17.39,0,0,1-9.55-5.14,4.41,4.41,0,0,1-2.44.7Z"/><path id="Path-13-2" class="cls-2" d="M218.05,358.44a9.52,9.52,0,0,1,2.39-3.81,4.08,4.08,0,0,1-1.48-.44,2.58,2.58,0,0,1-.67-.51c-2.79,2.74-3.83,6.07-2.84,9.26a4.47,4.47,0,0,1,2.57-.44,7,7,0,0,1,0-4.06Z"/><path id="Path-14-2" class="cls-2" d="M213,349.32a14.3,14.3,0,0,1-4-3.13,4.24,4.24,0,0,1-2.42.69c2.38,2.87,6.44,5,11.31,6a1.58,1.58,0,0,1,.7-1.62,21.09,21.09,0,0,1-5.55-2Z"/><path id="Path-15-2" class="cls-2" d="M215,363.21c-9.22-2-14-8.4-10.68-14.25a10,10,0,0,1,1.64-2.13,4.34,4.34,0,0,1-1.49-.44,2.07,2.07,0,0,1-.67-.54c-6.06,6.09-3.22,14,6.33,17.74a28.8,28.8,0,0,0,4.13,1.24,1.61,1.61,0,0,1,.74-1.62Z"/><path id="Path-16-2" class="cls-2" d="M221.62,341.37a1.33,1.33,0,0,1-.12-1,1.86,1.86,0,0,1,.38-.65,28.78,28.78,0,0,0-14.15,3.22,4.22,4.22,0,0,1,1,.34,2.21,2.21,0,0,1,.9.84,24.89,24.89,0,0,1,12-2.72Z"/><path id="Path-17-2" class="cls-2" d="M224,342.72a3.41,3.41,0,0,1-2.14-1c-2.77,2.77-3.8,6.09-2.86,9.29a4.67,4.67,0,0,1,2.6-.44A8.27,8.27,0,0,1,224,342.72Z"/><path id="Path-18-2" class="cls-2" d="M229.49,326.84a3,3,0,0,1,1.87,1.19c.46-.25,1-.5,1.43-.72,8.15-3.57,19.25-2.34,24.76,2.75h0a12.13,12.13,0,0,1,.92,1,4.1,4.1,0,0,1,2.45-.7,12.29,12.29,0,0,0-1.17-1.22c-6.34-5.88-19.1-7.27-28.47-3.17C230.67,326.25,230.08,326.53,229.49,326.84Z"/><path id="Path-19-2" class="cls-2" d="M222.67,334.32a8,8,0,0,0,0,4.8,4.88,4.88,0,0,1,2.58-.47c-.78-2.69.07-5.49,2.35-7.84a3.57,3.57,0,0,1-2.13-1,10.52,10.52,0,0,0-2.8,4.48Z"/><path id="Path-20-2" class="cls-2" d="M206.9,341.63c-.69-6.19,6.68-11.65,16.49-12.2h0c.61,0,1.23-.05,1.82,0a1.28,1.28,0,0,1-.12-1,1.93,1.93,0,0,1,.41-.65h-2.29c-11.28.62-19.76,6.86-19,14a8.77,8.77,0,0,0,.3,1.44,4.92,4.92,0,0,1,2.56-.44c-.08-.37-.15-.74-.2-1.12Z"/><path id="Path-21-2" class="cls-2" d="M245.87,335.83a24.81,24.81,0,0,1,11.92-2.75,1.46,1.46,0,0,1,.29-1.68,28.55,28.55,0,0,0-14.1,3.24A2.84,2.84,0,0,1,245.87,335.83Z"/><path id="Path-22-2" class="cls-2" d="M241.75,334.63a5.45,5.45,0,0,1,1.06-.11c-2.38-2.87-6.41-5-11.27-6.06a1.35,1.35,0,0,1,0,.69,1.93,1.93,0,0,1-.7.92c4.11.9,7.53,2.74,9.57,5.17a3.4,3.4,0,0,1,1.34-.61Z"/><path id="Path-23-2" class="cls-2" d="M257.35,342.29c-2.41-2.85-6.46-5-11.31-6.05a1.56,1.56,0,0,1-.73,1.62,17.59,17.59,0,0,1,9.56,5.13,4.36,4.36,0,0,1,2.48-.7Z"/><path id="Path-24-2" class="cls-2" d="M239.72,337.21a1.41,1.41,0,0,1,.31-1.67,28.82,28.82,0,0,0-14.14,3.22,2.86,2.86,0,0,1,1.86,1.18,25.26,25.26,0,0,1,12-2.72Z"/></g></g></g><polygon id="Path-5-2" data-name="Path" class="cls-12" points="142.66 267.48 123.36 267.48 123.36 103.09 142.66 91.52 142.66 267.48"/><rect class="cls-13" x="122.42" y="107.41" width="0.75" height="150.99"/><rect class="cls-13" x="143.99" y="107.41" width="0.75" height="150.99"/><rect class="cls-3" x="125.95" y="96.06" width="0.5" height="150.99"/><path id="Shape-7" data-name="Shape" class="cls-14" d="M134.78,240.24a2,2,0,0,1,1.58.67,2.32,2.32,0,0,1,.11,3.05,2,2,0,0,1-1.69.81h-4.4a2.58,2.58,0,0,1-1.8-.59,2.13,2.13,0,0,1-.67-1.68c0-1.51.82-2.26,2.47-2.26Zm-.67.75H130.9c-1.27,0-1.9.5-1.9,1.51s.63,1.52,1.9,1.52h3.21a2,2,0,0,0,1.23-.39,1.43,1.43,0,0,0,.52-1.13,1.35,1.35,0,0,0-.52-1.11,1.84,1.84,0,0,0-1.23-.4Z"/><path id="Shape-8" data-name="Shape" class="cls-15" d="M134.78,230.05a2,2,0,0,1,1.58.68,2.22,2.22,0,0,1,.63,1.57,2.31,2.31,0,0,1-.52,1.46,2.09,2.09,0,0,1-1.69.8h-4.39a2.6,2.6,0,0,1-1.8-.6,2.07,2.07,0,0,1-.67-1.66,2,2,0,0,1,.64-1.71,2.24,2.24,0,0,1,1.83-.54Zm-.67.74h-3.2c-1.27,0-1.9.5-1.9,1.51s.63,1.5,1.9,1.5h3.2a1.92,1.92,0,0,0,1.23-.38,1.38,1.38,0,0,0,.52-1.12,1.31,1.31,0,0,0-.52-1.1,1.87,1.87,0,0,0-1.23-.41Z"/><path id="Path-6-2" data-name="Path" class="cls-16" d="M135.48,223.22a2.14,2.14,0,0,1,1,.22.78.78,0,0,1,.5.66h-8v.24h-.2a.49.49,0,0,0-.3-.36,1.15,1.15,0,0,0-.55-.17v-.6Z"/><path id="Path-7-2" data-name="Path" class="cls-17" d="M135.48,217.53a2.27,2.27,0,0,1,1,.23.75.75,0,0,1,.5.65h-8v.26h-.2a.47.47,0,0,0-.3-.36,1.28,1.28,0,0,0-.55-.18v-.6Z"/><path id="Path-8-2" data-name="Path" class="cls-18" d="M135.48,213a2.26,2.26,0,0,1,1,.22.78.78,0,0,1,.5.66h-8v.26h-.2a.47.47,0,0,0-.3-.36,1.16,1.16,0,0,0-.55-.18V213Z"/><path id="Path-9-2" data-name="Path" class="cls-19" d="M135.48,206.18a2.26,2.26,0,0,1,1,.22.78.78,0,0,1,.5.66h-8v.26h-.2a.48.48,0,0,0-.3-.37,1.11,1.11,0,0,0-.55-.17v-.6Z"/><path id="Path-10-2" data-name="Path" class="cls-20" d="M135.48,200.5a2.27,2.27,0,0,1,1,.23.75.75,0,0,1,.5.66h-8v.25h-.2a.47.47,0,0,0-.3-.36,1,1,0,0,0-.55-.18v-.6Z"/><path id="Shape-9" data-name="Shape" class="cls-21" d="M134.78,191.45a2,2,0,0,1,1.58.68,2.27,2.27,0,0,1,.63,1.57,2.3,2.3,0,0,1-.52,1.45,2.05,2.05,0,0,1-1.69.81h-4.39a2.64,2.64,0,0,1-1.8-.59,2.13,2.13,0,0,1-.67-1.67,2,2,0,0,1,.64-1.71,2.24,2.24,0,0,1,1.83-.54Zm-.67.75h-3.2c-1.27,0-1.9.5-1.9,1.5s.63,1.5,1.9,1.5h3.2a2,2,0,0,0,1.23-.38,1.38,1.38,0,0,0,.52-1.12,1.3,1.3,0,0,0-.52-1.1,1.93,1.93,0,0,0-1.23-.4Z"/><path id="Shape-10" data-name="Shape" class="cls-22" d="M134.78,182.37a2,2,0,0,1,1.58.67,2.29,2.29,0,0,1,.11,3,2.05,2.05,0,0,1-1.69.81h-4.39a2.6,2.6,0,0,1-1.8-.6,2.11,2.11,0,0,1-.67-1.66,2,2,0,0,1,.64-1.71,2.24,2.24,0,0,1,1.83-.54Zm-.67.75h-3.2c-1.27,0-1.9.5-1.9,1.5s.63,1.49,1.9,1.49h3.2a1.93,1.93,0,0,0,1.23-.37,1.38,1.38,0,0,0,.52-1.12,1.32,1.32,0,0,0-.52-1.11,1.87,1.87,0,0,0-1.23-.39Z"/><path id="Shape-11" data-name="Shape" class="cls-23" d="M134.78,173.28a2.06,2.06,0,0,1,1.58.68,2.27,2.27,0,0,1,.63,1.57,2.31,2.31,0,0,1-.52,1.46,2.05,2.05,0,0,1-1.69.81h-4.39a2.6,2.6,0,0,1-1.8-.6,2.12,2.12,0,0,1-.67-1.67,2,2,0,0,1,.64-1.7,2.25,2.25,0,0,1,1.83-.55Zm-.67.76h-3.2c-1.27,0-1.9.5-1.9,1.49s.63,1.5,1.9,1.5h3.2a1.93,1.93,0,0,0,1.23-.37,1.4,1.4,0,0,0,.52-1.13,1.31,1.31,0,0,0-.52-1.1,1.87,1.87,0,0,0-1.23-.39Z"/><path id="Shape-12" data-name="Shape" class="cls-24" d="M134.78,165.34a2,2,0,0,1,1.58.67,2.29,2.29,0,0,1,.11,3,2.05,2.05,0,0,1-1.69.81h-4.39a2.64,2.64,0,0,1-1.8-.59,2.13,2.13,0,0,1-.67-1.67,2,2,0,0,1,.64-1.71,2.24,2.24,0,0,1,1.83-.54Zm-.67.75h-3.2c-1.27,0-1.9.5-1.9,1.5s.63,1.5,1.9,1.5h3.2a2,2,0,0,0,1.23-.38,1.38,1.38,0,0,0,.52-1.12,1.3,1.3,0,0,0-.52-1.1,1.88,1.88,0,0,0-1.23-.4Z"/><path id="Path-11-2" data-name="Path" class="cls-25" d="M135.48,158.5a2.26,2.26,0,0,1,1,.22.78.78,0,0,1,.5.66h-8v.26h-.2a.48.48,0,0,0-.3-.37,1.11,1.11,0,0,0-.55-.17v-.6Z"/><path id="Shape-13" data-name="Shape" class="cls-26" d="M134.78,149.44a2.06,2.06,0,0,1,1.58.68,2.27,2.27,0,0,1,.63,1.57,2.31,2.31,0,0,1-.52,1.46,2.05,2.05,0,0,1-1.69.81h-4.39a2.6,2.6,0,0,1-1.8-.6,2.12,2.12,0,0,1-.67-1.67,2,2,0,0,1,.64-1.7,2.25,2.25,0,0,1,1.83-.55Zm-.67.76h-3.2c-1.27,0-1.9.5-1.9,1.49s.63,1.5,1.9,1.5h3.2a1.93,1.93,0,0,0,1.23-.37,1.4,1.4,0,0,0,.52-1.13,1.31,1.31,0,0,0-.52-1.1,1.87,1.87,0,0,0-1.23-.39Z"/><path id="Path-12-2" data-name="Path" class="cls-27" d="M135.48,144.88a2.14,2.14,0,0,1,1,.22.78.78,0,0,1,.5.66h-8V146h-.2a.49.49,0,0,0-.3-.36,1,1,0,0,0-.55-.17v-.6Z"/><path id="Shape-14" data-name="Shape" class="cls-28" d="M134.78,134.68a2.06,2.06,0,0,1,1.58.68,2.29,2.29,0,0,1,.11,3,2.05,2.05,0,0,1-1.69.81h-4.39a2.6,2.6,0,0,1-1.8-.6,2.11,2.11,0,0,1-.67-1.66,2,2,0,0,1,.64-1.71,2.28,2.28,0,0,1,1.83-.55Zm-.67.76h-3.2c-1.27,0-1.9.5-1.9,1.5s.63,1.49,1.9,1.49h3.2a1.93,1.93,0,0,0,1.23-.37,1.38,1.38,0,0,0,.52-1.12,1.32,1.32,0,0,0-.52-1.11,1.87,1.87,0,0,0-1.23-.42Z"/><path id="Path-13-2" data-name="Path" class="cls-29" d="M135.48,129a2.27,2.27,0,0,1,1,.23.75.75,0,0,1,.5.66h-8v.25h-.2a.47.47,0,0,0-.3-.36,1,1,0,0,0-.55-.18V129Z"/><path id="Shape-15" data-name="Shape" class="cls-30" d="M134.78,121.06a2.06,2.06,0,0,1,1.58.68,2.28,2.28,0,0,1,.11,3,2,2,0,0,1-1.69.81h-4.39a2.59,2.59,0,0,1-1.8-.59,2.13,2.13,0,0,1-.67-1.67,2,2,0,0,1,.64-1.7,2.21,2.21,0,0,1,1.83-.55Zm-.67.76h-3.2c-1.27,0-1.9.49-1.9,1.49s.63,1.5,1.9,1.5h3.2a1.93,1.93,0,0,0,1.23-.38,1.36,1.36,0,0,0,.52-1.12,1.31,1.31,0,0,0-.52-1.1,1.93,1.93,0,0,0-1.23-.38Z"/><path id="Path-14-2" data-name="Path" class="cls-31" d="M135.48,114.23a2.14,2.14,0,0,1,1,.22.76.76,0,0,1,.5.66h-8v.25h-.2a.49.49,0,0,0-.3-.36,1,1,0,0,0-.55-.18v-.59Z"/><path id="Path-15-2" data-name="Path" class="cls-32" d="M135.48,108.55a2.14,2.14,0,0,1,1,.22.78.78,0,0,1,.5.66h-8v.25h-.2a.49.49,0,0,0-.3-.36,1.11,1.11,0,0,0-.55-.17v-.6Z"/><path class="cls-13" d="M445.67,361.73a2.59,2.59,0,0,1-1.32-.35l-29.57-17a1,1,0,0,1-.51-.88,1,1,0,0,1,.51-.89L445.68,325H446l.09.05,30.69,17.61a1,1,0,0,1,.51.88,1,1,0,0,1-.51.89L447,361.39A2.68,2.68,0,0,1,445.67,361.73Zm-.95-1a1.92,1.92,0,0,0,1.9,0l29.78-16.95a.27.27,0,0,0,0-.47l-30.57-17.54L415.15,343.3a.27.27,0,0,0,0,.47Z"/><polygon id="Path-36" class="cls-33" points="444.65 356.03 423.07 342.98 444.65 329.92 466.21 342.98 444.65 356.03"/><polygon id="Path-38" class="cls-4" points="444.64 339 423.07 325.95 423.07 301.62 444.64 313.46 444.64 339"/><path class="cls-2" d="M444.64,339.38a.33.33,0,0,1-.19-.06l-21.57-13.05a.36.36,0,0,1-.18-.32V301.62a.38.38,0,0,1,.18-.32.38.38,0,0,1,.37,0l21.57,11.84a.37.37,0,0,1,.19.33V339a.38.38,0,0,1-.37.38Zm-21.2-13.64,20.83,12.6V313.68l-20.83-11.43Z"/><polygon id="Path-39" class="cls-4" points="466.21 326.52 444.64 339 444.64 314.03 466.21 301.54 466.21 326.52"/><path class="cls-2" d="M444.64,339.38a.45.45,0,0,1-.19-.05.39.39,0,0,1-.18-.33V314a.37.37,0,0,1,.18-.32L466,301.22a.37.37,0,0,1,.56.32v25a.38.38,0,0,1-.18.32l-21.57,12.49A.45.45,0,0,1,444.64,339.38Zm.37-25.14v24.12l20.83-12.06V302.19Zm21.2,12.28h0Z"/><polygon id="Path-40" class="cls-4" points="444.65 314.68 423.07 301.62 444.65 288.56 466.21 301.54 444.65 314.68"/><path class="cls-2" d="M444.65,315.05a.33.33,0,0,1-.19-.06l-21.58-13.05a.37.37,0,0,1,0-.64l21.58-13.05a.35.35,0,0,1,.38,0l21.56,13a.37.37,0,0,1,0,.64L444.84,315A.33.33,0,0,1,444.65,315.05Zm-20.86-13.43,20.86,12.62,20.84-12.7L444.65,289Z"/><rect id="Rectangle" class="cls-34" x="436.69" y="116.5" width="17.03" height="162.34"/><rect class="cls-13" x="435.75" y="133.52" width="0.75" height="137.36"/><rect class="cls-13" x="455.05" y="133.52" width="0.75" height="137.36"/><rect class="cls-3" x="439.28" y="123.31" width="0.5" height="137.36"/><path id="Path-16" data-name="Path" class="cls-35" d="M447.86,262.94a1.57,1.57,0,0,1,.88.23.74.74,0,0,1,.44.66h-7v.25H442a.43.43,0,0,0-.25-.36.86.86,0,0,0-.49-.18v-.6Z"/><path id="Shape-16" data-name="Shape" class="cls-36" d="M447.25,253.86a1.69,1.69,0,0,1,1.37.68,2.37,2.37,0,0,1,.56,1.58,2.6,2.6,0,0,1-.45,1.47,1.71,1.71,0,0,1-1.48.81H443.4a2.14,2.14,0,0,1-1.58-.59,2.29,2.29,0,0,1-.58-1.69c0-1.51.72-2.26,2.16-2.26Zm-.59.75h-2.8c-1.11,0-1.67.51-1.67,1.51s.56,1.52,1.67,1.52h2.8a1.63,1.63,0,0,0,1-.36,1.51,1.51,0,0,0,.46-1.14,1.46,1.46,0,0,0-.46-1,1.51,1.51,0,0,0-1-.48Z"/><path id="Shape-17" data-name="Shape" class="cls-37" d="M447.25,244.78a1.69,1.69,0,0,1,1.37.68,2.37,2.37,0,0,1,.56,1.58,2.6,2.6,0,0,1-.45,1.47,1.73,1.73,0,0,1-1.48.81H443.4a2.11,2.11,0,0,1-1.58-.6,2.25,2.25,0,0,1-.58-1.68c0-1.51.72-2.26,2.16-2.26Zm-.59.75h-2.8c-1.11,0-1.67.51-1.67,1.51s.56,1.51,1.67,1.51h2.8a1.51,1.51,0,0,0,1.08-.38,1.53,1.53,0,0,0,0-2.19,1.55,1.55,0,0,0-1.08-.45Z"/><path id="Path-17-2" data-name="Path" class="cls-38" d="M447.86,239.1a1.65,1.65,0,0,1,.88.23.74.74,0,0,1,.44.67h-7v.24H442a.46.46,0,0,0-.25-.36,1,1,0,0,0-.49-.18v-.6Z"/><path id="Path-18-2" data-name="Path" class="cls-39" d="M447.86,234.56a1.57,1.57,0,0,1,.88.23.74.74,0,0,1,.44.66h-7v.25H442a.45.45,0,0,0-.25-.36.86.86,0,0,0-.49-.18v-.6Z"/><path id="Path-19-2" data-name="Path" class="cls-40" d="M447.86,228.89a1.66,1.66,0,0,1,.88.21.76.76,0,0,1,.44.67h-7V230H442a.44.44,0,0,0-.25-.36.84.84,0,0,0-.49-.18v-.59Z"/><path id="Path-20-2" data-name="Path" class="cls-41" d="M447.86,223.21a1.65,1.65,0,0,1,.88.22.76.76,0,0,1,.44.66h-7v.25H442a.48.48,0,0,0-.25-.36.93.93,0,0,0-.49-.17v-.6Z"/><path id="Path-21-2" data-name="Path" class="cls-42" d="M447.86,218.67a1.65,1.65,0,0,1,.88.22.76.76,0,0,1,.44.66h-7v.25H442a.44.44,0,0,0-.25-.36.91.91,0,0,0-.49-.18v-.59Z"/><path id="Shape-18" data-name="Shape" class="cls-43" d="M447.24,210.76a1.7,1.7,0,0,1,1.38.68,2.34,2.34,0,0,1,.56,1.57,2.51,2.51,0,0,1-.45,1.44,1.75,1.75,0,0,1-1.49.81h-3.86a2.1,2.1,0,0,1-1.54-.61,2.19,2.19,0,0,1-.59-1.65,2.09,2.09,0,0,1,.56-1.71,1.81,1.81,0,0,1,1.61-.54Zm-.59.74h-2.81c-1.11,0-1.67.5-1.67,1.51s.56,1.5,1.67,1.5h2.81a1.6,1.6,0,0,0,1.08-.39,1.44,1.44,0,0,0,.46-1.11,1.38,1.38,0,0,0-.46-1.1,1.47,1.47,0,0,0-1.08-.4Z"/><path id="Shape-19" data-name="Shape" class="cls-44" d="M447.25,202.8a1.71,1.71,0,0,1,1.38.68,2.4,2.4,0,0,1,.55,1.58,2.51,2.51,0,0,1-.45,1.44,1.7,1.7,0,0,1-1.48.81h-3.84a2.14,2.14,0,0,1-1.58-.59,2.3,2.3,0,0,1-.58-1.66,2.11,2.11,0,0,1,.56-1.72,1.79,1.79,0,0,1,1.6-.54Zm-.59.76h-2.79c-1.11,0-1.67.49-1.67,1.5s.56,1.5,1.67,1.5h2.79a1.55,1.55,0,0,0,1.08-.39,1.48,1.48,0,0,0,.46-1.11,1.45,1.45,0,0,0-.46-1.11,1.48,1.48,0,0,0-1.08-.36Z"/><path id="Shape-20" data-name="Shape" class="cls-45" d="M447.25,193.69a1.69,1.69,0,0,1,1.37.68,2.38,2.38,0,0,1,.56,1.59,2.65,2.65,0,0,1-.45,1.47,1.7,1.7,0,0,1-1.48.8H443.4a2.1,2.1,0,0,1-1.58-.59,2.32,2.32,0,0,1-.58-1.68c0-1.52.72-2.27,2.16-2.27Zm-.59.75h-2.8c-1.11,0-1.67.51-1.67,1.52s.56,1.51,1.67,1.51h2.8a1.58,1.58,0,0,0,1-.38,1.52,1.52,0,0,0,.46-1.13,1.45,1.45,0,0,0-.46-1.11A1.56,1.56,0,0,0,446.66,194.44Z"/><path id="Shape-21" data-name="Shape" class="cls-46" d="M447.25,186.91a1.71,1.71,0,0,1,1.38.68,2.41,2.41,0,0,1,.55,1.56,2.57,2.57,0,0,1-.45,1.46,1.72,1.72,0,0,1-1.48.81h-3.84a2.1,2.1,0,0,1-1.58-.6,2.24,2.24,0,0,1-.58-1.67,2.1,2.1,0,0,1,.56-1.7,1.79,1.79,0,0,1,1.6-.54Zm-.59.74h-2.79c-1.11,0-1.67.51-1.67,1.5s.56,1.51,1.67,1.51h2.79a1.52,1.52,0,0,0,1.08-.39,1.47,1.47,0,0,0,.46-1.12,1.42,1.42,0,0,0-.46-1.05,1.53,1.53,0,0,0-1.08-.45Z"/><path id="Path-22-2" data-name="Path" class="cls-47" d="M447.86,181.21a1.56,1.56,0,0,1,.88.22.75.75,0,0,1,.44.66h-7v.25H442a.44.44,0,0,0-.25-.36.84.84,0,0,0-.49-.18v-.59Z"/><path id="Shape-22" data-name="Shape" class="cls-48" d="M447.25,172.15a1.71,1.71,0,0,1,1.38.68,2.43,2.43,0,0,1,.55,1.56,2.57,2.57,0,0,1-.45,1.46,1.72,1.72,0,0,1-1.48.81h-3.84a2.1,2.1,0,0,1-1.58-.6,2.24,2.24,0,0,1-.58-1.67,2.1,2.1,0,0,1,.56-1.7,1.79,1.79,0,0,1,1.6-.54Zm-.59.74h-2.79c-1.11,0-1.67.51-1.67,1.5s.56,1.52,1.67,1.52h2.79a1.62,1.62,0,0,0,1.08-.39,1.51,1.51,0,0,0,.46-1.13,1.42,1.42,0,0,0-.46-1,1.53,1.53,0,0,0-1.08-.43Z"/><path id="Path-23" data-name="Path" class="cls-49" d="M447.86,168.72a1.65,1.65,0,0,1,.88.22.76.76,0,0,1,.44.66h-7v.25H442a.44.44,0,0,0-.25-.36.91.91,0,0,0-.49-.18v-.59Z"/><path id="Shape-23" data-name="Shape" class="cls-50" d="M447.25,159.64a1.68,1.68,0,0,1,1.37.68,2.4,2.4,0,0,1,.56,1.57,2.6,2.6,0,0,1-.45,1.47,1.71,1.71,0,0,1-1.48.81H443.4a2.07,2.07,0,0,1-1.58-.6,2.25,2.25,0,0,1-.58-1.68c0-1.51.72-2.25,2.16-2.25Zm-.59.74h-2.8c-1.11,0-1.67.51-1.67,1.51s.56,1.52,1.67,1.52h2.8a1.52,1.52,0,0,0,1.08-.39,1.49,1.49,0,0,0,.46-1.13,1.42,1.42,0,0,0-.46-1,1.52,1.52,0,0,0-1.08-.46Z"/><path id="Path-24" data-name="Path" class="cls-51" d="M447.86,154a1.76,1.76,0,0,1,.88.21.78.78,0,0,1,.44.67h-7v.25H442a.46.46,0,0,0-.25-.36.91.91,0,0,0-.49-.18V154Z"/><path id="Shape-24" data-name="Shape" class="cls-52" d="M447.25,146a1.66,1.66,0,0,1,1.37.69,2.34,2.34,0,0,1,.56,1.57,2.63,2.63,0,0,1-.45,1.47,1.73,1.73,0,0,1-1.48.81H443.4a2.11,2.11,0,0,1-1.58-.6,2.25,2.25,0,0,1-.58-1.68c0-1.51.72-2.26,2.16-2.26Zm-.59.75h-2.8c-1.11,0-1.67.51-1.67,1.51s.56,1.52,1.67,1.52h2.8a1.57,1.57,0,0,0,1.08-.39,1.51,1.51,0,0,0,.46-1.13,1.41,1.41,0,0,0-.46-1.05,1.48,1.48,0,0,0-1.08-.48Z"/><path id="Path-25-2" data-name="Path" class="cls-53" d="M447.86,141.5a1.66,1.66,0,0,1,.88.21.78.78,0,0,1,.44.67h-7v.23H442a.43.43,0,0,0-.25-.36.92.92,0,0,0-.49-.19v-.59Z"/><path id="Path-26" data-name="Path" class="cls-54" d="M447.86,135.8a1.65,1.65,0,0,1,.88.22.74.74,0,0,1,.44.67h-7v.24H442a.46.46,0,0,0-.25-.36.93.93,0,0,0-.49-.17v-.6Z"/><polygon id="Path-27" data-name="Path" class="cls-55" points="437.83 116.5 445.77 108.55 462.8 108.59 454.89 116.5 437.83 116.5"/><path id="Path-28" data-name="Path" class="cls-3" d="M375.39,53.24l28-16.14h0c4.18-2.46,10-2.15,16.44,1.53a36.33,36.33,0,0,1,6.07,4.46l11.29-6.46h0c6.2-4.33,15.18-4.14,25.19,1.59,12.64,7.22,23.63,21.46,29.48,36.53a14,14,0,0,1,6.37,2c8.25,4.72,14.94,16.21,14.94,25.65v.59a18.28,18.28,0,0,1,7.69,2.54c10.55,6,19.11,20.72,19.11,32.8,0,6-2.11,10.2-5.51,12.21h0l-.09,0h0l-27.67,15.92-6-28.8L419.86,91.41c-10.33-5.85-19.07-18.67-22-31Z"/><path id="Path-29" data-name="Path" class="cls-5" d="M392.74,54.62a40.81,40.81,0,0,1,10.09,8.52c4.23-13.6,17.13-17.82,32.4-9C447.85,61.44,458.82,75.8,464.72,91a13.67,13.67,0,0,1,6.36,2c8.24,4.75,14.91,16.34,14.91,25.86v.59a18.06,18.06,0,0,1,7.68,2.58c10.54,6.09,19.08,20.9,19.08,33.08s-8.54,17.12-19.08,11L392.74,107.87c-12.71-7.35-23-25.23-23-39.93S380,47.27,392.74,54.62Z"/><path class="cls-2" d="M502.19,169.1a17.67,17.67,0,0,1-8.7-2.67L392.55,108.19c-12.8-7.4-23.21-25.46-23.21-40.25,0-7.26,2.47-12.68,6.94-15.26s10.38-2,16.64,1.62h0a41,41,0,0,1,9.75,8.1c2-5.93,5.68-10.09,10.68-12,6.18-2.41,14-1.18,22.05,3.47,12.1,7,23.41,21.07,29.57,36.81a14.17,14.17,0,0,1,6.29,2c8.32,4.8,15.1,16.55,15.1,26.18v.26a18.6,18.6,0,0,1,7.5,2.59c10.61,6.14,19.26,21.12,19.26,33.4,0,6-2.06,10.54-5.79,12.69A10.11,10.11,0,0,1,502.19,169.1ZM382.46,51.84a11.45,11.45,0,0,0-5.81,1.49c-4.23,2.44-6.56,7.63-6.56,14.61,0,14.55,10.24,32.32,22.83,39.61l100.94,58.24c5,2.87,9.63,3.35,13.11,1.34s5.41-6.3,5.41-12c0-12-8.48-26.73-18.89-32.75A17.64,17.64,0,0,0,486,119.8a.38.38,0,0,1-.34-.38v-.59c0-9.39-6.61-20.85-14.73-25.54a13.32,13.32,0,0,0-6.19-1.91.39.39,0,0,1-.33-.24C458.29,75.46,447.05,61.41,435,54.47c-7.84-4.53-15.44-5.74-21.41-3.41-4.95,1.93-8.56,6.15-10.44,12.19a.39.39,0,0,1-.28.26.37.37,0,0,1-.36-.12,40.32,40.32,0,0,0-10-8.45A20.55,20.55,0,0,0,382.46,51.84Z"/><path id="Path-30" data-name="Path" class="cls-3" d="M184.67,33.14,165.56,22.38h0c-2.86-1.65-6.85-1.45-11.22,1a25.18,25.18,0,0,0-4.15,2.95L142.48,22h0c-4.24-2.88-10.37-2.76-17.21,1.06-8.63,4.82-16.16,14.3-20.14,24.34a9.66,9.66,0,0,0-4.34,1.33c-5.64,3.15-10.21,10.82-10.21,17.09v.39a12.59,12.59,0,0,0-5.25,1.7c-7.2,4-13,13.77-13,21.85,0,4,1.44,6.8,3.77,8.14h.06L95,108.55l4.12-19.19,55.17-30.79c7.05-3.93,13-12.44,15-20.65Z"/><path id="Path-31" data-name="Path" class="cls-5" d="M173.3,33.62a28.45,28.45,0,0,0-6.92,5.68c-3-9.06-11.87-11.91-22.37-5.95-8.72,4.86-16.32,14.43-20.34,24.57a9.62,9.62,0,0,0-4.44,1.27c-5.69,3.18-10.31,10.92-10.31,17.24v.39a12.94,12.94,0,0,0-5.3,1.72c-7.27,4.06-13.18,13.9-13.18,22s5.94,11.41,13.18,7.35L173.3,69.11c8.79-4.89,15.91-16.81,15.91-26.61S182.09,28.73,173.3,33.62Z"/><path class="cls-2" d="M97.73,110.07a7.3,7.3,0,0,1-3.74-1c-2.53-1.48-3.92-4.5-3.92-8.5,0-8.22,6-18.26,13.37-22.37a13.25,13.25,0,0,1,5.11-1.73v-.06c0-6.46,4.71-14.33,10.5-17.57a10,10,0,0,1,4.36-1.3c4.21-10.47,12-19.86,20.42-24.54,5.59-3.17,11-4,15.38-2.32a12.7,12.7,0,0,1,7.31,7.88,28.71,28.71,0,0,1,6.59-5.28h0c4.45-2.48,8.63-2.83,11.77-1s4.69,5.4,4.69,10.19c0,9.91-7.22,22-16.1,26.94l-69.67,38.82A12.64,12.64,0,0,1,97.73,110.07ZM154.47,30.6a21.27,21.27,0,0,0-10.28,3.07c-8.32,4.64-16.05,14-20.17,24.39a.38.38,0,0,1-.34.23,9.44,9.44,0,0,0-4.27,1.22c-5.58,3.12-10.11,10.71-10.11,16.92v.4a.38.38,0,0,1-.34.37,12.59,12.59,0,0,0-5.15,1.66c-7.17,4-13,13.75-13,21.73,0,3.73,1.26,6.52,3.55,7.86s5.61,1.1,9.07-.84l69.68-38.82c8.66-4.83,15.72-16.62,15.72-26.29,0-4.52-1.54-7.9-4.33-9.54s-6.81-1.35-11,1a27.83,27.83,0,0,0-6.82,5.6.4.4,0,0,1-.36.12.39.39,0,0,1-.28-.25c-1.29-4-3.74-6.73-7.08-8A12.4,12.4,0,0,0,154.47,30.6Z"/><path class="cls-13" d="M90.22,491.5a12.07,12.07,0,0,1-5.68-1.41L54.11,472.75c-1.7-1-2.64-2.31-2.64-3.74s.94-2.78,2.64-3.75l30.42-17.38a13.2,13.2,0,0,1,11.81,0l30.44,17.36c1.7,1,2.63,2.31,2.63,3.75s-.93,2.77-2.63,3.74L96.36,490.09a12.09,12.09,0,0,1-5.92,1.41Zm.23-44.27a12.49,12.49,0,0,0-5.57,1.31l-30.4,17.37a3.77,3.77,0,0,0-2.26,3.1c0,1.16.8,2.26,2.26,3.1L84.9,489.44a11.42,11.42,0,0,0,5.53,1.31h0A11.29,11.29,0,0,0,96,489.43l30.41-17.34c1.45-.84,2.26-1.94,2.26-3.1a3.81,3.81,0,0,0-2.26-3.1L96,448.53A12.35,12.35,0,0,0,90.45,447.23Z"/><g class="cls-10"><path id="Path-32" data-name="Path" class="cls-4" d="M129,462V451.81l-1.89-1c-.53,3.16-4.32,5.25-7.5,5.68L98,469l-9.43,3.35L58.55,457l.73-.38c-2.57-1.18-4-3.88-5.34-6.34l-2,1.19-1.2.33v10.31h0c0,1.31.88,2.63,2.64,3.63l30.13,17.09a14.32,14.32,0,0,0,12.79,0l30.13-17.09c1.73-1,2.61-2.27,2.64-3.57V462Z"/><path class="cls-2" d="M89.87,484.68a14.72,14.72,0,0,1-6.56-1.53L53.17,466c-1.83-1-2.83-2.43-2.83-4V451.5l1.42-.4,2.31-1.36.47.82c1.28,2.29,2.61,4.65,4.89,5.7l.69.32-.76.4,29.28,14.94,9.27-3.29,21.65-12.47c3.12-.42,6.69-2.45,7.18-5.37l.08-.5,2.55,1.29,0,10.37a1,1,0,0,1,0,.24,4.8,4.8,0,0,1-2.83,3.85l-30.12,17.1A14.79,14.79,0,0,1,89.87,484.68ZM51.08,452.06v10c0,1.24.87,2.41,2.45,3.3l30.13,17.1a14.08,14.08,0,0,0,12.45,0l30.1-17.09a4.15,4.15,0,0,0,2.45-3.15l0-.27V452l-1.26-.64c-.82,3-4.44,5-7.63,5.49L98.22,469.31l-9.64,3.42L57.73,457l.74-.39c-2.1-1.25-3.36-3.5-4.58-5.67l-.09-.16-1.79,1Z"/></g><path class="cls-4" d="M127.15,445.15c-.53,3.28-4.32,5.44-7.5,5.89L98.07,463.89l-9.42,3.48L58.58,451.56l.7-.41c-2.57-1.23-4-4-5.34-6.57l-2,1.23-1.2.34v7.13c0,1.37.88,2.73,2.64,3.76l30.13,17.77a13.83,13.83,0,0,0,7,1.52v0a12.72,12.72,0,0,0,6.31-1.44l29.69-17.52a4.54,4.54,0,0,0,2.6-3.65v-7.53Z"/><path class="cls-2" d="M90.86,476.74h-.43a.35.35,0,0,1-.11,0,14.24,14.24,0,0,1-7-1.57L53.16,457.36c-1.82-1.06-2.82-2.51-2.82-4.08v-7.13a.37.37,0,0,1,.27-.36l1.15-.32,2-1.21a.37.37,0,0,1,.29,0,.38.38,0,0,1,.23.18l.27.5c1.29,2.37,2.62,4.82,4.91,5.92a.38.38,0,0,1,.21.32.4.4,0,0,1-.18.34l-.12.06L88.68,467,98,463.54l21.51-12.82a.33.33,0,0,1,.14,0c3.12-.45,6.69-2.56,7.18-5.59a.38.38,0,0,1,.21-.28.37.37,0,0,1,.34,0l1.89,1.07a.39.39,0,0,1,.19.33v6.95a1.13,1.13,0,0,1,0,.26v.14a.73.73,0,0,1,0,.21,4.9,4.9,0,0,1-2.79,3.94L96.94,475.24A13.11,13.11,0,0,1,90.86,476.74Zm-.27-.75a12.51,12.51,0,0,0,6-1.4l29.67-17.51a4.18,4.18,0,0,0,2.41-3.34.76.76,0,0,0,0-.14v-.2a.92.92,0,0,0,0-.15v-6.81l-1.25-.72c-.82,3.11-4.36,5.19-7.63,5.68L98.27,464.21l-9.49,3.51a.44.44,0,0,1-.3,0L58.41,451.89a.36.36,0,0,1-.2-.32.39.39,0,0,1,.18-.33l.13-.07c-2.14-1.3-3.41-3.65-4.64-5.92l-.09-.15-1.69,1-.09,0-.93.26v6.85c0,1.29.87,2.51,2.46,3.44l30.12,17.77A13.54,13.54,0,0,0,90.43,476,.45.45,0,0,1,90.59,476Z"/><path id="Path-33" data-name="Path" class="cls-4" d="M83.48,468,53.36,450.57c-3.53-2.05-3.53-5.38,0-7.42l30.12-17.47a14.15,14.15,0,0,1,12.8,0l30.12,17.47c3.52,2,3.52,5.37,0,7.42L96.28,468a14.09,14.09,0,0,1-12.8,0Z"/><path class="cls-2" d="M89.87,469.92a14.55,14.55,0,0,1-6.56-1.56h0L53.17,450.89c-1.83-1.06-2.83-2.49-2.83-4s1-3,2.83-4l30.12-17.46a14.56,14.56,0,0,1,13.16,0l30.14,17.47c1.82,1.06,2.82,2.5,2.82,4s-1,3-2.82,4L96.46,468.35A14.53,14.53,0,0,1,89.87,469.92Zm-6.21-2.23a13.79,13.79,0,0,0,12.45,0l30.11-17.45c1.58-.92,2.45-2.12,2.45-3.38s-.87-2.47-2.46-3.39L96.09,426a13.77,13.77,0,0,0-12.44,0L53.54,443.47c-1.58.92-2.46,2.12-2.46,3.39s.88,2.46,2.46,3.38Z"/><path id="Path-34" data-name="Path" class="cls-5" d="M68.87,392.36v36.36a2.52,2.52,0,0,0,1.45,2.11l30.06,17.44c2.16,1.26,5.93,1.1,8.43-.34,1.4-.82,2.11-1.86,2.07-2.85V408.76Z"/><path class="cls-2" d="M104.05,449.49a7.81,7.81,0,0,1-3.86-.9l-30-17.43a2.89,2.89,0,0,1-1.64-2.41V391.81l42.75,16.69v36.58c0,1.15-.78,2.31-2.25,3.17A10.16,10.16,0,0,1,104.05,449.49Zm-34.8-56.58v35.81a2.1,2.1,0,0,0,1.23,1.77L100.56,448c2.06,1.19,5.67,1,8.06-.35,1.23-.71,1.92-1.63,1.88-2.5V409Z"/><path id="Path-35" data-name="Path" class="cls-5" d="M102.47,449a11.93,11.93,0,0,0,6.8-1.06c1.55-.81,2.32-1.85,2.28-2.83h0l-.7-37.62L102.63,406h-.16Z"/><path class="cls-2" d="M104.09,449.49a11.62,11.62,0,0,1-1.67-.11l-.33,0V405.61h.54l8.59,1.57.7,37.94c0,1.15-.85,2.3-2.47,3.16A12.36,12.36,0,0,1,104.09,449.49Zm-1.25-.81a11.61,11.61,0,0,0,6.27-1.07c1.35-.71,2.1-1.61,2.07-2.47l-.7-37.33-7.64-1.41Z"/><path id="Path-36-2" data-name="Path" class="cls-5" d="M100.38,410.83l-30-17c-2.15-1.23-1.89-3.37.61-4.81h0c2.49-1.42,6.27-1.57,8.44-.34l30,17c2.16,1.23,1.89,3.38-.61,4.81h0C106.31,411.9,102.54,412.06,100.38,410.83Z"/><path class="cls-2" d="M104.05,412a7.85,7.85,0,0,1-3.85-.87l-30-17a2.84,2.84,0,0,1-1.65-2.4,3.85,3.85,0,0,1,2.25-3.06c2.6-1.47,6.55-1.62,8.81-.33l30,17a2.84,2.84,0,0,1,1.65,2.4,3.81,3.81,0,0,1-2.25,3.05A10.25,10.25,0,0,1,104.05,412ZM75.7,388.19a9.58,9.58,0,0,0-4.58,1.12c-1.19.69-1.88,1.57-1.87,2.41a2.11,2.11,0,0,0,1.26,1.75l30.05,17c2.06,1.17,5.67,1,8.07-.33,1.19-.69,1.88-1.57,1.87-2.41a2.12,2.12,0,0,0-1.27-1.75l-30-17A7.2,7.2,0,0,0,75.7,388.19Z"/><path id="Path-37" data-name="Path" class="cls-5" d="M104.81,409.39a2.63,2.63,0,0,1-2.65-2.61V390.62c0-5.51-4.1-12.49-9-15.24l-7-4c-1.86-1.05-3.55-1.32-4.62-.7s-1.69,2.16-1.69,4.28v16.16a2.66,2.66,0,0,1-5.31,0V375c0-4.09,1.53-7.22,4.34-8.8s6.33-1.34,9.94.7l7,4c6.52,3.7,11.62,12.38,11.62,19.77v16.16a2.64,2.64,0,0,1-2.66,2.61Z"/><path class="cls-2" d="M104.81,409.76a3,3,0,0,1-3-3V390.62c0-5.4-4-12.23-8.77-14.91l-7-4c-1.76-1-3.31-1.25-4.26-.71s-1.49,2-1.49,4v16.16a3,3,0,0,1-6.06,0V375c0-4.24,1.61-7.48,4.53-9.13s6.58-1.4,10.3.71l7,4c6.63,3.76,11.81,12.59,11.81,20.09v16.16A3,3,0,0,1,104.81,409.76ZM82.9,370a7.38,7.38,0,0,1,3.46,1.08l7,4c5,2.8,9.15,9.93,9.15,15.56v16.16a2.29,2.29,0,0,0,4.57,0V390.62c0-7.26-5-15.8-11.44-19.44l-7-4c-3.48-2-6.88-2.23-9.56-.71S74.92,371,74.92,375v16.16a2.29,2.29,0,0,0,4.57,0V375c0-2.25.68-3.93,1.87-4.61A3.08,3.08,0,0,1,82.9,370Z"/></g></g></g></g><g class="cls-56"><g class="cls-57"><g class="cls-58"><path class="cls-11" d="M78.24,355.18a12.5,12.5,0,0,0-11.3,0c-3.12,1.81-3.1,4.75,0,6.55a12.46,12.46,0,0,0,11.31,0c3.11-1.8,3.09-4.74,0-6.55"/></g></g></g><g class="cls-57"><g class="cls-59"><path class="cls-11" d="M75.85,356.57a7.18,7.18,0,0,0-6.51,0c-1.8,1-1.79,2.74,0,3.78a7.22,7.22,0,0,0,6.53,0c1.79-1,1.78-2.74,0-3.78"/></g></g><polygon id="Path-40-2" data-name="Path-40" class="cls-11" points="444.75 306.86 438 302.77 444.75 298.69 451.49 302.75 444.75 306.86"/><g class="cls-56"><g class="cls-57"><g class="cls-60"><path class="cls-11" d="M300.33,285a12.5,12.5,0,0,0-11.3,0c-3.12,1.81-3.1,4.75,0,6.56a12.46,12.46,0,0,0,11.31,0c3.11-1.81,3.1-4.75,0-6.56"/></g></g></g><g class="cls-57"><g class="cls-61"><path class="cls-11" d="M297.94,286.35a7.18,7.18,0,0,0-6.51,0c-1.8,1-1.79,2.74,0,3.78a7.22,7.22,0,0,0,6.53,0c1.78-1,1.78-2.73,0-3.78"/></g></g><g class="cls-56"><g class="cls-57"><g class="cls-62"><path class="cls-11" d="M327.9,510.08a12.49,12.49,0,0,0-11.31,0c-3.11,1.8-3.09,4.74,0,6.54a12.47,12.47,0,0,0,11.3,0c3.12-1.81,3.1-4.75,0-6.56"/></g></g></g><g class="cls-57"><g class="cls-63"><path class="cls-11" d="M325.51,511.48a7.14,7.14,0,0,0-6.52,0c-1.79,1-1.78,2.73,0,3.77a7.2,7.2,0,0,0,6.52,0c1.79-1,1.78-2.73,0-3.77"/></g></g><rect class="cls-1" width="540" height="540"/></svg>