<?xml version="1.0" encoding="utf-8"?>
<!-- Generator: Adobe Illustrator 24.2.3, SVG Export Plug-In . SVG Version: 6.00 Build 0)  -->
<svg version="1.1" id="Layer_1" xmlns="http://www.w3.org/2000/svg" xmlns:xlink="http://www.w3.org/1999/xlink" x="0px" y="0px"
	 viewBox="0 0 440 320" style="enable-background:new 0 0 440 320;" xml:space="preserve" width="440" height="320">
<style type="text/css">
	.st0{fill:none;stroke:#4BC7EC;stroke-width:0.25;stroke-miterlimit:10;}
	.st1{fill:none;stroke:#4BC7EC;stroke-width:0.5;stroke-miterlimit:10;}
	.st2{opacity:0.2;fill:#4BC7EC;}
	.st3{fill:#0A1A2B;}
	.st4{fill:#4BC7EC;}
	.st5{opacity:0.2;fill-rule:evenodd;clip-rule:evenodd;fill:#EC432D;}
	.st6{fill-rule:evenodd;clip-rule:evenodd;fill:#EC432D;}
	.st7{fill:none;stroke:url(#SVGID_1_);stroke-miterlimit:10;}
	.st8{fill:none;stroke:url(#SVGID_2_);stroke-miterlimit:10;}
	.st9{fill:none;stroke:url(#SVGID_3_);stroke-miterlimit:10;}
	.st10{fill:#162535;}
	.st11{filter:url(#Adobe_OpacityMaskFilter);}
	.st12{fill:url(#SVGID_7_);}
	.st13{display:none;opacity:0.5;mask:url(#SVGID_4_);fill:#E1EBF4;}
	.st14{fill:#14384E;}
	.st15{fill:none;stroke:url(#SVGID_8_);stroke-miterlimit:10;}
	.st16{fill:none;stroke:url(#SVGID_9_);stroke-miterlimit:10;}
	.st17{fill:none;stroke:url(#SVGID_10_);stroke-miterlimit:10;}
	.st18{opacity:0.4;}
	.st19{enable-background:new    ;}
	.st20{clip-path:url(#SVGID_12_);}
	.st21{fill:#EC432D;}
	.st22{clip-path:url(#SVGID_14_);}
	.st23{clip-path:url(#SVGID_16_);}
	.st24{clip-path:url(#SVGID_18_);fill:#EC432D;}
	.st25{clip-path:url(#SVGID_20_);}
	.st26{clip-path:url(#SVGID_22_);fill:#EC432D;}
	.st27{clip-path:url(#SVGID_24_);}
	.st28{clip-path:url(#SVGID_26_);}
	.st29{fill:#171E23;}
	.st30{opacity:0.51;}
	.st31{fill:#1B2126;}
	.st32{fill:#1D252B;}
	.st33{opacity:0.11;}
	.st34{clip-path:url(#SVGID_27_);}
	.st35{fill:#192B3D;}
	.st36{opacity:0.3;fill:#161B20;}
	.st37{clip-path:url(#SVGID_28_);}
	.st38{fill:#FFFFFF;stroke:#4BC7EC;stroke-width:0.2;}
	.st39{opacity:0.5;fill-rule:evenodd;clip-rule:evenodd;fill:none;stroke:#4BC7EC;stroke-width:0.25;}
	.st40{opacity:0.2;fill-rule:evenodd;clip-rule:evenodd;fill:#4BC7EC;enable-background:new    ;}
	
		.st41{fill-rule:evenodd;clip-rule:evenodd;fill:none;stroke:#4BC7EC;stroke-width:0.75;stroke-linecap:round;stroke-linejoin:round;}
	.st42{fill-rule:evenodd;clip-rule:evenodd;fill:none;stroke:#4BC7EC;stroke-linecap:round;stroke-linejoin:round;}
	.st43{fill:none;stroke:#4BC7EC;stroke-width:0.75;stroke-miterlimit:10;}
	.st44{opacity:0.2;fill:#4BC7EC;enable-background:new    ;}
	.st45{opacity:0.1;}
	.st46{fill:#0A1A2B;stroke:#4BC7EC;stroke-width:0.2;}
	.st47{fill:#0A1A2B;stroke:#4BC7EC;stroke-width:0.1;}
	.st48{fill:none;stroke:#A2E5F4;stroke-width:0.3;}
	.st49{fill:#F9F9F9;stroke:#4BC7EC;stroke-width:0.1;}
	.st50{opacity:0.6;fill:#5CCFEA;enable-background:new    ;}
	.st51{opacity:0.5;fill:#52C7EA;enable-background:new    ;}
	.st52{fill:#52C7EA;}
	.st53{opacity:0.5;fill:#EC432D;enable-background:new    ;}
	.st54{fill:none;stroke:#4BC7EC;stroke-width:0.75;stroke-linecap:round;stroke-linejoin:round;}
	.st55{fill-rule:evenodd;clip-rule:evenodd;fill:none;stroke:#4BC7EC;stroke-width:0.75;stroke-miterlimit:10;}
	.st56{fill:none;stroke:#52C7EA;}
	.st57{fill:#162535;stroke:#4BC7EC;stroke-width:0.75;stroke-linecap:round;stroke-linejoin:round;}
</style>
<g>
	<path class="st0" d="M99.7,276.64v14.45c0,4.94-7.4,8.93-16.52,8.93c-9.13,0-16.52-4-16.52-8.93v-14.45
		c0,4.94,7.39,8.93,16.52,8.93C92.29,285.57,99.7,281.57,99.7,276.64z"/>
	<path class="st0" d="M99.7,275.34c0,4.94-7.4,8.93-16.52,8.93c-9.13,0-16.52-4-16.52-8.93c0-4.93,7.39-8.92,16.52-8.92
		C92.29,266.41,99.7,270.41,99.7,275.34z"/>
	<ellipse class="st1" cx="82.48" cy="261.72" rx="22.3" ry="13.34"/>
	<ellipse class="st2" cx="83.17" cy="261.72" rx="16.52" ry="8.93"/>
	<g>
		<path class="st3" d="M83.17,258.6c-8.97,0-16.27-3.89-16.27-8.68v-27.66h32.54v27.66C99.44,254.7,92.14,258.6,83.17,258.6z"/>
		<g>
			<path class="st4" d="M99.19,222.51v27.41c0,4.65-7.19,8.43-16.02,8.43s-16.02-3.78-16.02-8.43v-27.41H99.19 M99.69,222.01H66.65
				v27.91c0,4.93,7.4,8.93,16.52,8.93c9.12,0,16.52-4,16.52-8.93V222.01L99.69,222.01z"/>
		</g>
	</g>
	<g>
		<path class="st4" d="M83.17,214.85c8.83,0,16.02,3.78,16.02,8.43s-7.19,8.43-16.02,8.43s-16.02-3.78-16.02-8.43
			S74.34,214.85,83.17,214.85 M83.17,214.35c-9.12,0-16.52,4-16.52,8.93c0,4.93,7.4,8.93,16.52,8.93s16.52-4,16.52-8.93
			C99.69,218.34,92.3,214.35,83.17,214.35L83.17,214.35z"/>
	</g>
	<g>
		<path class="st3" d="M83.17,230.69c-8.97,0-16.27-3.89-16.27-8.68s7.3-8.68,16.27-8.68c8.97,0,16.27,3.89,16.27,8.68
			S92.14,230.69,83.17,230.69z"/>
		<path class="st4" d="M83.17,213.59c8.83,0,16.02,3.78,16.02,8.43s-7.19,8.43-16.02,8.43s-16.02-3.78-16.02-8.43
			S74.34,213.59,83.17,213.59 M83.17,213.09c-9.12,0-16.52,4-16.52,8.93c0,4.93,7.4,8.93,16.52,8.93s16.52-4,16.52-8.93
			C99.69,217.08,92.3,213.09,83.17,213.09L83.17,213.09z"/>
	</g>
</g>
<path class="st2" d="M21.55,147.67l79.07-42.79c2.1-1.14,4.65-1.08,6.7,0.17l36.37,22.08c4.4,2.67,4.3,9.09-0.19,11.62l-76.54,43.18
	c-2.08,1.17-4.61,1.16-6.68-0.03l-38.89-22.47C16.83,156.79,16.92,150.18,21.55,147.67z"/>
<circle class="st5" cx="174.39" cy="169.83" r="8.14"/>
<circle class="st6" cx="174.39" cy="169.83" r="4.69"/>
<g>
	<g>
		<linearGradient id="SVGID_1_" gradientUnits="userSpaceOnUse" x1="138.5411" y1="197.3108" x2="295.5229" y2="197.3108">
			<stop  offset="0" style="stop-color:#4BC7EC"/>
			<stop  offset="1" style="stop-color:#15202E"/>
		</linearGradient>
		<path class="st7" d="M149.36,272.37c-22.15-23.41-7.47-73.27,32.79-111.37s90.86-50.01,113.01-26.61"/>
		<linearGradient id="SVGID_2_" gradientUnits="userSpaceOnUse" x1="171.8863" y1="200.4206" x2="286.423" y2="200.4206">
			<stop  offset="0.6275" style="stop-color:#4BC7EC"/>
			<stop  offset="1" style="stop-color:#15202E"/>
		</linearGradient>
		<path class="st8" d="M172.11,112.58c28.81-14.43,72.29,14.05,97.12,63.61s21.59,101.44-7.22,115.87"/>
		<linearGradient id="SVGID_3_" gradientUnits="userSpaceOnUse" x1="120.9769" y1="223.8227" x2="319.2233" y2="223.8227">
			<stop  offset="0" style="stop-color:#15202E"/>
			<stop  offset="1" style="stop-color:#4BC7EC"/>
		</linearGradient>
		<path class="st9" d="M122.05,185.87c-5.82,28.54,33.49,60.65,87.8,71.73c54.31,11.08,103.06-3.08,108.88-31.61"/>
		<g>
			<path class="st10" d="M302.52,205.95c0,44.73-36.59,80.99-81.74,80.99c-45.14,0-81.74-36.26-81.74-80.99
				c0-44.73,36.59-81,81.74-81C265.92,124.96,302.52,161.22,302.52,205.95z"/>
			<defs>
				<filter id="Adobe_OpacityMaskFilter" filterUnits="userSpaceOnUse" x="158.92" y="125.88" width="123.04" height="102.48">
					
						<feColorMatrix  type="matrix" values="-1 0 0 0 1  0 -1 0 0 1  0 0 -1 0 1  0 0 0 1 0" color-interpolation-filters="sRGB" result="source"/>
					<feFlood  style="flood-color:white;flood-opacity:1" result="back"/>
					<feBlend  in="source" in2="back" mode="normal"/>
				</filter>
			</defs>
			<mask maskUnits="userSpaceOnUse" x="158.92" y="125.88" width="123.04" height="102.48" id="SVGID_4_">
				<g class="st11">
					
						<radialGradient id="SVGID_7_" cx="221.9054" cy="138.2513" r="107.9134" gradientTransform="matrix(1.0092 0 0 1 -4.3924 0)" gradientUnits="userSpaceOnUse">
						<stop  offset="0" style="stop-color:#000000"/>
						<stop  offset="0.1042" style="stop-color:#272727"/>
						<stop  offset="0.2914" style="stop-color:#686868"/>
						<stop  offset="0.47" style="stop-color:#9E9E9E"/>
						<stop  offset="0.6349" style="stop-color:#C8C8C8"/>
						<stop  offset="0.7833" style="stop-color:#E6E6E6"/>
						<stop  offset="0.91" style="stop-color:#F8F8F8"/>
						<stop  offset="1" style="stop-color:#FFFFFF"/>
					</radialGradient>
					<rect x="148.22" y="113.51" class="st12" width="151.57" height="127.22"/>
				</g>
			</mask>
			<path class="st13" d="M281.96,177.12c0,28.3-27.54,51.24-61.52,51.24c-33.98,0-61.52-22.94-61.52-51.24
				c0-28.3,27.54-51.24,61.52-51.24C254.41,125.88,281.96,148.82,281.96,177.12z"/>
		</g>
		<path class="st14" d="M294.92,236.28c-5.46,2.69-15.03,2.27-11.89,9.48C285.65,259.21,295.45,240.49,294.92,236.28z
			 M166.24,232.36c7.13,6.55,2.34,18.01,2.98,25.51c-0.32,3.23,2.24,7.93,4.83,3.11c-2.4-3.72,2.78,0.42,1.4-3.91
			c3.96-5.63,8.03-8.56,10.71-15.55c3.33-0.8,3.01-5.16,3.91-7.88c1.5-2,3.53-4.77,3.1-7.53c-2.01-3.24-6.69-3.14-9.96-4.74
			c-2.21-4.64-8.59-8.68-12.95-9.9c-2.47-1.25-3.42,3.31-5.55,1.69c-1.81,0.35-2.89,0.75-2.81-2.13c0.27-2.55-3.17-2.69-2.42-5.32
			c-0.43-1.6-2.78-1.35-3.26,0.22c-5.56,0.57-2.33-9.64,2.37-7.24c3.4-2.02,5.56,5.16,6.21,0.93c-1.35-2.71,2.15-6.04,3.9-7.52
			c-0.96-2.93,3.44-3.59,3.45-5.9c0.78-2.35,3.57-0.92,5-2.11c-0.28-2.52-0.67-4.45,3-4.68c1.04,0.47-1.69,2.91,1.12,3.69
			c4.57,1.21-1.7-8.75-2.1-10.56c-0.89-1.35-1.75-3.08-3.69-2.15c-0.53-2.37-3.1-3.65-5.51-4.06c0.33,1.56-1.8,12.32-3.4,8.81
			c-1.13-2.51-5.87-1.95-5.71-5.76c1.29-3.89,10.69-7.11,7.91-10.78c1.3-0.01,5.9-0.67,5.22,2.41c-2.46,6.03-2.87,2.85,2.36,5.94
			c1.39,0.54,1.68-2.68,1.28-3.41c1.24,0.37,3.79-0.72,2.14-2.58c-2.92-0.73-1.05-4.67-4.41-4.62c-2.9-2.78-12.34-4.13-8.42,2.56
			c-10.14-4.3-22.2,24.79-24.11,41.26c3.84,6.75,2.19-5.08,5.6,6.62C177.11,220.98,156.75,214.9,166.24,232.36z M175.46,185.04
			L175.46,185.04C175.44,185.05,175.44,185.05,175.46,185.04z M170.1,152.27c3.38-0.25,2.7-1.71,4.3-4.12
			c1.8-1.14,5.36-2.12,6.05-4.25C190.97,136.08,159.95,154.46,170.1,152.27z M226.8,248.96c6.54-6.38,9.57-16.04,10.48-25.1
			c1.03-2.18,9.92-11.03,4.18-11.76c-4.19,3.16-11.86-18.34-5.01-5.87c1.4,8.45,14.1,2.75,11.38-3.76c-1.58-0.73-5.81-2.77-4.49-4.8
			c2.93,1.02,4.3,5.78,7.74,4.83c5.46-1.12,5.26,6.65,8.08,9.95c1.35,10.19,7.78-17.29,11.28-4.3c2.21,1.99,3.91,4.34,3.4,7.82
			c2.21,4.19,6.16,2.84,1.64-1.16c-1.44-6.37,3.74,3.06,5.26-3.55c0.18-8.93,10.72-9.02,5.46-19.26c3.69-5.54,3.15,6.74,5.81-2.31
			c6.72-11.8-16.64-45.45-28.88-38.78c-2.24,0.36-8.19,2.22-7,5.11c-0.85-0.9-2.73,0.92-2.89-0.12c-1.53-1.06-3.58-0.72-5.02,1.22
			c-0.97,1.22-5.13-0.01-4.21,2c0.41,0.08-1.06-0.07-1.87,0.01c-2.48,0.59-4.04,2.25-5.93,0.31c-1.19,2.13-1.01,2.53-3.39,0.37
			c-4.26-1.61-6.41-5.07-10.69-1.92c-2.93,3.67-9.2,7.18-8.02,12.36c2.77,3.96,0.91,5.45-2.99,7.67c1.55-2.59-1.93-5.6-1.61-7.7
			c-3.53-1.59-0.82,4.76-1.51,5.6c-0.64,1.83-2.17,4.09,1.3,3.32c3.47,0.8-5.07,0.62,0.08,4.99c1.1,2.07-1.45,1.05-2.9,1.33
			c-3.68,2.32-1.6,7.38,2.67,6.48c1.14-1.52,6.45-9.92,6.76-3.68c1.53,2.18,1.51-1.19,1.91-0.95c2.53,0.94,1.74,2.41,1.89,4.11
			c1.22-0.36,1.63-2.97,2.46-3.15c0.23,0.25-0.88-1.66-1.58-2.36c-0.95-0.88,1.04,0.27,2,1.94c1.26,1.3,0.38,3.96,2.24,4.42
			c3.45,2.66,0.77-0.25,1.14-2.3c1.25-2.82-1.93,3.33,5.52,3.19c2.31,0.2,0.91,0.17,0.15,2.38c-3.33,0.01-8.7,1.45-11.86-0.51
			c-2.86-1.65-1.04-4.38-5-3.26c-2.65,1.02-7.12,0.22-9.13,2.12c-4.37,6.67-11.14,23.93,2.71,24.57c3.03-2.91,3.86,0.23,7.36-0.14
			C218.8,225.43,215.44,250.68,226.8,248.96z M291.43,213.69c2.39-0.25,2.77-2.38,0.76-3.72
			C290.72,211.06,289.12,212.36,291.43,213.69z M290.28,221.85c-0.14-5.03-5.31,3.47-0.28,2.56
			C290.41,224.41,289.46,222.08,290.28,221.85z M287.75,203.46c0.28-0.38-0.39-2.2-0.73-1.79
			C286.66,202.15,286.85,204.58,287.75,203.46z M289.86,207.36c0.2-0.47-0.25-0.99-1.01-1.15
			C287.47,206.88,288.63,210.36,289.86,207.36z M293.81,221.37c0.91,0.63,2.93,0.34,3-0.88
			C295.91,219.91,293.73,220.01,293.81,221.37z M293.32,193.65c-2.56,4.23,1.14,1,3.74,0.58
			C298.38,190.31,295.47,191.76,293.32,193.65z M272.6,217.5c0,0,0.01,0,0.01,0C272.45,217.39,272.43,217.38,272.6,217.5z
			 M277.71,220.88c-1.31-1.27-3.23-4.39-5.11-3.38C274.95,217.61,277.21,226.65,277.71,220.88z M262.06,214.54
			c-0.14,0.28,0.21,0.7,0.61,1.03C264.82,217.74,263.28,212.16,262.06,214.54z M238.37,241.56c3.91,3.4,4.58-7.71,3.44-10.13
			C239.13,233.12,237.08,237.79,238.37,241.56z M209.3,143.45c-9.2-0.88,1.69-3.02-9-3.63c-6.72,0.72-11.27,2.71-18.23,4.36
			c-2.43,2.32-1.79,3.55-5.27,3.98c-0.16,1.23,2.52,0.8,3.39,1.26c-0.06,0.32-3.55,0.43-1.7,1.95c7.31-0.64,4.03,3.28,7.41,5.42
			c-1.94,3.95,2.88,21.53,7.05,6.85c11.81-3,4.29-8.17,9.33-6.22c1.79-0.16,1.56-2.47,2.68-4.91c-0.04-3.02,1.81-2.27,0.93-4.53
			C205.47,145.46,209.91,145.24,209.3,143.45z M219.51,144.46c-5.38,0.15-4.54,4.85-1.4,3.71c0.32,0.95-0.3,3,1.84,3.54
			c1.15-0.81,1.06-3.47,3.43-2.1C225.98,146.75,220.18,146.87,219.51,144.46z M224.99,145.58c6.93-0.99-2.48-2.74-3.99-1.59
			C221.02,144.24,223.88,145.43,224.99,145.58z M204.81,175.23c-1.62,1.24,1.41,2.76,1.89,0.9
			C206.23,174.44,205.99,173.7,204.81,175.23z M208.08,162.62c-1.51-0.46-6.14-1.55-4.82,0.41
			C202.5,165.89,209.01,166.52,208.08,162.62z M244.52,152.77c9.27-4.86-5.71-2.48-4.84,3.31
			C244.16,161.9,240.4,153.76,244.52,152.77z M241.51,145.57c0.93,0.91,1.44-0.41,2.45-0.28
			C243.95,143.45,241.42,144.08,241.51,145.57z M259.52,145.92c-0.03,0.34,2.56,0.62,3.32,0.48
			C264.29,145.14,259.44,144.86,259.52,145.92z M165.72,164.95c-0.5,3.37,2.33-0.89,3.43,0.37
			C168.21,164.74,166.68,163.57,165.72,164.95z M172.34,207.58c0.22,0.53,2.23-0.37,1.09-0.79
			C173.14,206.79,172.34,207.36,172.34,207.58z M167.32,205.74c3.46,4.22,5.82,0.42-0.76-2.01
			C159.06,202.73,162.31,204.71,167.32,205.74z M164.95,207.58c0,0.21,1.14,0.08,1.41,0.09
			C167.2,207.12,164.93,207.08,164.95,207.58z M165.76,201.76c-0.53-0.13-0.77,0.95-0.17,0.96
			C165.79,202.72,166.06,201.88,165.76,201.76z M168.15,201.94c-0.5-0.54-1.07-0.59-0.96,0.43
			C167.21,202.83,168.25,202.16,168.15,201.94z M169.87,204.57c1.08-0.7-0.43-1.04-0.83-1.64
			C167.84,203.28,168.94,204.62,169.87,204.57z M297.24,222.32c-0.72,0.07-3.2,0.3-1.91,1.13
			C297.24,225.45,299.11,221.74,297.24,222.32z"/>
		<linearGradient id="SVGID_8_" gradientUnits="userSpaceOnUse" x1="148.9975" y1="209.4565" x2="305.9793" y2="209.4565">
			<stop  offset="0" style="stop-color:#4BC7EC"/>
			<stop  offset="1" style="stop-color:#15202E"/>
		</linearGradient>
		<path class="st15" d="M149.36,272.37c22.15,23.41,72.74,11.49,113.01-26.61s54.94-87.96,32.79-111.37"/>
		<linearGradient id="SVGID_9_" gradientUnits="userSpaceOnUse" x1="121.5582" y1="188.0395" x2="319.8046" y2="188.0395">
			<stop  offset="0" style="stop-color:#15202E"/>
			<stop  offset="1" style="stop-color:#4BC7EC"/>
		</linearGradient>
		<path class="st16" d="M122.05,185.87c5.82-28.54,54.57-42.69,108.88-31.61s93.62,43.19,87.8,71.73"/>
		<linearGradient id="SVGID_10_" gradientUnits="userSpaceOnUse" x1="147.6944" y1="204.2249" x2="262.231" y2="204.2249">
			<stop  offset="0.6275" style="stop-color:#4BC7EC"/>
			<stop  offset="1" style="stop-color:#15202E"/>
		</linearGradient>
		<path class="st17" d="M172.11,112.58c-28.81,14.43-32.05,66.31-7.22,115.87s68.31,78.04,97.12,63.61"/>
	</g>
	<g class="st18">
		<g>
			<g class="st19">
				<defs>
					<polygon id="SVGID_11_" class="st19" points="143.87,208.1 144.35,189.45 161.51,186.68 161.03,205.33 					"/>
				</defs>
				<clipPath id="SVGID_12_">
					<use xlink:href="#SVGID_11_"  style="overflow:visible;"/>
				</clipPath>
				<g class="st20">
					<g>
						<g>
							<g>
								<path class="st21" d="M152.93,188.07c-4.74,0.76-8.69,5.56-8.82,10.71c-0.13,5.15,3.6,8.7,8.34,7.94
									c4.74-0.77,8.69-5.56,8.82-10.71C161.4,190.86,157.67,187.3,152.93,188.07"/>
							</g>
						</g>
					</g>
				</g>
			</g>
		</g>
	</g>
	<g>
		<g>
			<g class="st19">
				<defs>
					<polygon id="SVGID_13_" class="st19" points="147.61,203.56 147.89,192.81 157.78,191.21 157.5,201.97 					"/>
				</defs>
				<clipPath id="SVGID_14_">
					<use xlink:href="#SVGID_13_"  style="overflow:visible;"/>
				</clipPath>
				<g class="st22">
					<g>
						<g>
							<g>
								<path class="st21" d="M152.83,192.01c-2.73,0.44-5,3.2-5.08,6.17c-0.08,2.97,2.07,5.02,4.8,4.58
									c2.73-0.44,5.01-3.21,5.09-6.17C157.71,193.62,155.56,191.57,152.83,192.01"/>
							</g>
						</g>
					</g>
				</g>
			</g>
		</g>
	</g>
	<g class="st18">
		<g>
			<g class="st19">
				<defs>
					<polygon id="SVGID_15_" class="st19" points="191.57,163.73 178.39,150.53 198.91,137.25 212.09,150.45 					"/>
				</defs>
				<clipPath id="SVGID_16_">
					<use xlink:href="#SVGID_15_"  style="overflow:visible;"/>
				</clipPath>
				<g class="st23">
					<g>
						<g>
							<g>
								<g>
									<defs>
										<polyline id="SVGID_17_" points="197.84,159.68 181.94,154.08 192.64,141.3 208.54,146.9 197.84,159.68 										"/>
									</defs>
									<clipPath id="SVGID_18_">
										<use xlink:href="#SVGID_17_"  style="overflow:visible;"/>
									</clipPath>
									<path class="st24" d="M189.63,145.66c-0.89,0.58-1.69,1.26-2.34,2.04c-2.96,3.52-1.79,7.64,2.59,9.18
										c3.42,1.21,7.8,0.49,10.96-1.55c0.89-0.58,1.69-1.26,2.34-2.04c2.96-3.52,1.79-7.64-2.59-9.18
										C197.17,142.9,192.79,143.61,189.63,145.66"/>
								</g>
							</g>
						</g>
					</g>
				</g>
			</g>
		</g>
	</g>
	<g>
		<g>
			<g class="st19">
				<defs>
					<polygon id="SVGID_19_" class="st19" points="193.12,158.13 185.52,150.51 197.35,142.85 204.95,150.47 					"/>
				</defs>
				<clipPath id="SVGID_20_">
					<use xlink:href="#SVGID_19_"  style="overflow:visible;"/>
				</clipPath>
				<g class="st25">
					<g>
						<g>
							<g>
								<g>
									<defs>
										<polyline id="SVGID_21_" points="196.74,155.78 187.57,152.56 193.73,145.2 202.9,148.42 196.74,155.78 										"/>
									</defs>
									<clipPath id="SVGID_22_">
										<use xlink:href="#SVGID_21_"  style="overflow:visible;"/>
									</clipPath>
									<path class="st26" d="M192,147.7c-0.48,0.31-0.91,0.67-1.27,1.09l-0.14,0.17c-1.62,2.02-0.93,4.34,1.57,5.22
										c1.97,0.7,4.49,0.29,6.31-0.89c0.52-0.33,0.98-0.73,1.35-1.18c1.71-2.03,1.03-4.4-1.51-5.29
										C196.34,146.11,193.82,146.52,192,147.7"/>
								</g>
							</g>
						</g>
					</g>
				</g>
			</g>
		</g>
	</g>
	<g class="st18">
		<g>
			<g class="st19">
				<defs>
					<polygon id="SVGID_23_" class="st19" points="296.69,195.12 294.01,176.37 301.17,180.57 303.85,199.32 					"/>
				</defs>
				<clipPath id="SVGID_24_">
					<use xlink:href="#SVGID_23_"  style="overflow:visible;"/>
				</clipPath>
				<g class="st27">
					<g>
						<g>
							<g>
								<path class="st21" d="M297.59,178.47c-1.98-1.16-2.98,2.09-2.24,7.28c0.74,5.18,2.94,10.31,4.92,11.47
									c1.98,1.16,2.98-2.09,2.24-7.27C301.77,184.76,299.57,179.63,297.59,178.47"/>
							</g>
						</g>
					</g>
				</g>
			</g>
		</g>
	</g>
	<g>
		<g>
			<g class="st19">
				<defs>
					<polygon id="SVGID_25_" class="st19" points="299.35,191.72 297.81,180.91 301.93,183.33 303.48,194.14 					"/>
				</defs>
				<clipPath id="SVGID_26_">
					<use xlink:href="#SVGID_25_"  style="overflow:visible;"/>
				</clipPath>
				<g class="st28">
					<g>
						<g>
							<g>
								<path class="st21" d="M299.87,182.13c-1.14-0.67-1.72,1.2-1.29,4.19c0.43,2.99,1.7,5.95,2.84,6.62
									c1.14,0.67,1.71-1.21,1.29-4.2C302.28,185.75,301.01,182.79,299.87,182.13"/>
							</g>
						</g>
					</g>
				</g>
			</g>
		</g>
	</g>
</g>
<g>
	<g id="laptop_x5F_2">
		<g>
			<g>
				<path class="st10" d="M103.26,71.25L97.02,8.02l0.88-0.36l-1.24-0.74l0,0.01c-0.24-0.17-0.59-0.16-1,0.07L7.05,56.18
					c-0.73,0.4-1.33,1.44-1.26,2.16l6.29,63.74c0.03,0.33,0.18,0.55,0.4,0.65l0,0l1.21,0.73l0.3-1.18l-0.07,0.02L102,73.42
					C102.73,73.01,103.33,71.98,103.26,71.25z"/>
				<path class="st29" d="M103.29,74.19l-88.63,49.18c-0.68,0.38-1.23,0.16-1.3-0.52L7.07,59.11C7,58.38,7.6,57.35,8.33,56.94
					L96.96,7.76c0.68-0.38,1.23-0.16,1.3,0.52l6.29,63.74C104.62,72.75,104.02,73.78,103.29,74.19z"/>
				<g class="st30">
					<polygon class="st31" points="95.56,11.83 10.13,59.24 16.12,119.27 101.49,71.89 					"/>
				</g>
			</g>
			<path class="st3" d="M154.73,104.36l-4.82,2.43l-44.73-26.91c-0.75-0.45-2.11-0.39-3.05,0.13l-83.65,46.42
				c-0.74-0.43-4.13-2.12-4.13-2.12l1.39,4.43c0,0,0.01,0,0.01-0.01c0.06,0.2,0.19,0.38,0.44,0.53l47.11,28.35
				c0.75,0.45,2.11,0.39,3.05-0.13l85.6-47.5c0.38-0.21,0.63-0.47,0.74-0.73l0.01,0L154.73,104.36z"/>
			<path class="st32" d="M153.95,105.13l-87.73,48.68c-0.96,0.53-2.36,0.59-3.13,0.13l-48.29-29.05c-0.77-0.46-0.61-1.27,0.35-1.8
				l87.73-48.68c0.96-0.53,2.36-0.59,3.13-0.13l48.29,29.05C155.07,103.79,154.91,104.59,153.95,105.13z"/>
			<path class="st32" d="M28.12,122.17l72.9-40.46c0.49-0.27,1.06-0.27,1.51,0l23.94,14.44c0.34,0.21,0.31,0.72-0.07,0.93
				l-72.87,40.44c-0.49,0.27-1.06,0.27-1.51,0L28.06,123.1C27.71,122.89,27.75,122.37,28.12,122.17z"/>
			<path class="st4" d="M28.06,123.1l0.24,0.14l72.64-40.31c0.49-0.27,1.06-0.27,1.51,0l23.7,14.29l0.26-0.14
				c0.37-0.21,0.41-0.72,0.07-0.93l-23.94-14.44c-0.45-0.27-1.02-0.27-1.51,0l-72.9,40.46C27.75,122.37,27.71,122.89,28.06,123.1z"
				/>
			<g>
				<polygon class="st29" points="104.16,85.37 40.84,120.51 38.24,118.95 101.56,83.81 				"/>
				<polygon class="st29" points="110.53,89.2 51.13,122.16 48.53,120.6 107.93,87.64 				"/>
				<polygon class="st29" points="114.67,91.69 44.74,130.5 42.15,128.94 112.08,90.13 				"/>
				<polygon class="st29" points="118.82,94.19 48.89,133 46.29,131.44 116.22,92.63 				"/>
				<polygon class="st29" points="122.97,96.68 53.04,135.49 50.44,133.93 120.37,95.12 				"/>
				<polygon class="st29" points="37.01,122.63 34.19,124.2 31.6,122.63 34.41,121.07 				"/>
				<polygon class="st29" points="46.41,124.78 40.56,128.03 37.96,126.46 43.81,123.22 				"/>
			</g>
			<path class="st29" d="M100.21,131.96l19.66-10.91c0.77-0.43,0.82-1.12,0.11-1.54l-12.4-7.46c-0.71-0.43-1.91-0.43-2.67,0
				l-19.66,10.91c-0.77,0.43-0.82,1.12-0.11,1.54l12.4,7.46C98.24,132.38,99.44,132.38,100.21,131.96z"/>
			<path class="st4" d="M85.2,123.59l19.66-10.91c0.77-0.43,1.97-0.43,2.67,0l12.4,7.46c0.22,0.13,0.36,0.29,0.43,0.46
				c0.22-0.37,0.1-0.79-0.39-1.09l-12.4-7.46c-0.71-0.43-1.91-0.43-2.67,0l-19.66,10.91c-0.53,0.29-0.71,0.71-0.54,1.09
				C84.8,123.88,84.96,123.72,85.2,123.59z"/>
			<g class="st33">
				<defs>
					<polygon id="SVGID_6_" class="st33" points="95.56,11.83 10.13,59.24 16.12,119.27 101.49,71.89 					"/>
				</defs>
				<clipPath id="SVGID_27_">
					<use xlink:href="#SVGID_6_"  style="overflow:visible;"/>
				</clipPath>
				<g class="st34">
					<path class="st32" d="M102.98,74.31l-87.73,48.68c-0.96,0.53-2.36,0.59-3.13,0.13l-48.29-29.05c-0.77-0.46-0.61-1.27,0.35-1.8
						l87.73-48.68c0.96-0.53,2.36-0.59,3.13-0.13l48.29,29.05C104.1,72.97,103.94,73.77,102.98,74.31z"/>
					<path class="st29" d="M17.8,83.03l19.66-10.91c0.77-0.43,0.82-1.12,0.11-1.54l-12.4-7.46c-0.71-0.43-1.91-0.43-2.67,0
						L2.83,74.03c-0.77,0.43-0.82,1.12-0.11,1.54l12.4,7.46C15.83,83.46,17.03,83.46,17.8,83.03z"/>
					<path class="st4" d="M2.79,74.66l19.66-10.91c0.77-0.43,1.97-0.43,2.67,0l12.4,7.46c0.22,0.13,0.36,0.29,0.43,0.46
						c0.22-0.37,0.1-0.79-0.39-1.09l-12.4-7.46c-0.71-0.43-1.91-0.43-2.67,0L2.83,74.03c-0.53,0.29-0.71,0.71-0.54,1.09
						C2.39,74.95,2.55,74.79,2.79,74.66z"/>
					<g>
						<path class="st32" d="M-7.29,100.08l72.9-40.46c0.49-0.27,1.06-0.27,1.51,0l23.94,14.44c0.34,0.21,0.31,0.72-0.07,0.93
							l-72.87,40.44c-0.49,0.27-1.06,0.27-1.51,0l-23.98-14.42C-7.7,100.81-7.67,100.29-7.29,100.08z"/>
						<path class="st4" d="M-7.36,101.01l0.24,0.14l72.64-40.31c0.49-0.27,1.06-0.27,1.51,0l23.7,14.29l0.26-0.14
							c0.37-0.21,0.41-0.72,0.07-0.93L67.12,59.63c-0.45-0.27-1.02-0.27-1.51,0l-72.9,40.46C-7.67,100.29-7.7,100.81-7.36,101.01z"
							/>
						<g>
							<polygon class="st29" points="84.6,73.08 21.09,108.32 23.41,109.72 86.92,74.47 							"/>
							<polygon class="st29" points="78.42,69.36 18.06,102.86 20.38,104.26 80.74,70.76 							"/>
							<polygon class="st29" points="13.55,105.36 7.92,108.49 10.24,109.89 15.87,106.76 							"/>
							<polygon class="st29" points="18.01,110.03 14.09,112.21 16.41,113.6 20.33,111.42 							"/>
							<polygon class="st29" points="74.56,67.04 4.05,106.17 6.37,107.56 76.88,68.43 							"/>
							<polygon class="st29" points="70.69,64.71 0.18,103.84 2.5,105.24 73.01,66.11 							"/>
							<polygon class="st29" points="66.82,62.38 -3.69,101.51 -1.37,102.91 69.14,63.78 							"/>
						</g>
					</g>
				</g>
			</g>
			<g>
				<polygon class="st4" points="38.45,96.38 45.37,92.54 45.48,93.69 38.57,97.53 				"/>
				<polygon class="st4" points="46.48,91.93 50.24,89.84 50.36,90.99 46.59,93.08 				"/>
				<polygon class="st4" points="56.1,86.58 58.83,85.07 58.94,86.22 56.22,87.74 				"/>
				<polygon class="st4" points="54.11,87.69 55.05,87.17 55.16,88.32 54.23,88.84 				"/>
				<polygon class="st4" points="51.37,89.21 53.06,88.27 53.17,89.43 51.48,90.37 				"/>
				<polygon class="st4" points="44.33,87.56 47.05,86.04 47.17,87.2 44.44,88.71 				"/>
				<polygon class="st4" points="37.93,91.11 43.27,88.14 43.38,89.3 38.05,92.26 				"/>
				<g>
					<polygon class="st4" points="46.6,72.41 51.94,69.45 52.05,70.6 46.71,73.57 					"/>
					<polygon class="st4" points="43.85,73.94 45.54,73 45.65,74.15 43.96,75.09 					"/>
				</g>
				<polygon class="st4" points="47.08,77.69 52.42,74.72 52.54,75.88 47.2,78.84 				"/>
				<polygon class="st4" points="44.34,79.22 46.03,78.28 46.14,79.43 44.45,80.37 				"/>
				<polygon class="st4" points="44.4,49.64 34.34,55.22 34.23,54.07 44.29,48.48 				"/>
				<polygon class="st4" points="47.95,47.67 45.46,49.05 45.34,47.9 47.83,46.52 				"/>
				<polygon class="st4" points="65.01,46.55 54.95,52.13 54.84,50.98 64.9,45.39 				"/>
				<polygon class="st4" points="68.56,44.58 66.07,45.96 65.95,44.81 68.44,43.43 				"/>
				<polygon class="st4" points="37.33,56.35 34.6,57.86 34.49,56.71 37.21,55.19 				"/>
				<polygon class="st4" points="53.5,52.93 50.78,54.44 50.66,53.29 53.39,51.77 				"/>
				<polygon class="st4" points="43.72,52.79 38.38,55.76 38.27,54.61 43.61,51.64 				"/>
				<polygon class="st4" points="46.47,51.27 44.78,52.21 44.67,51.05 46.36,50.11 				"/>
				<polygon class="st4" points="52.91,47.69 47.58,50.66 47.46,49.51 52.8,46.54 				"/>
				<polygon class="st4" points="55.66,46.17 53.97,47.11 53.86,45.95 55.55,45.01 				"/>
				<polygon class="st4" points="53.24,50.29 50.52,51.81 50.4,50.65 53.13,49.14 				"/>
				<polygon class="st4" points="59.64,46.74 54.3,49.71 54.18,48.55 59.52,45.59 				"/>
				<polygon class="st4" points="62.38,45.21 60.69,46.15 60.58,45 62.27,44.06 				"/>
				<polygon class="st4" points="40.44,57.4 34.86,60.49 34.75,59.34 40.33,56.24 				"/>
				<polygon class="st4" points="45.53,54.57 41.5,56.81 41.38,55.66 45.41,53.42 				"/>
				<polygon class="st4" points="49.31,52.47 46.58,53.98 46.47,52.83 49.19,51.32 				"/>
				<polygon class="st4" points="75.53,40.71 69.96,43.81 69.84,42.66 75.42,39.56 				"/>
				<polygon class="st4" points="80.62,37.89 76.59,40.13 76.47,38.97 80.51,36.73 				"/>
				<polygon class="st4" points="84.4,35.79 81.68,37.3 81.56,36.15 84.29,34.63 				"/>
				<polygon class="st4" points="71,75.53 76.58,72.44 76.69,73.59 71.12,76.69 				"/>
				<polygon class="st4" points="65.92,78.36 69.95,76.12 70.06,77.27 66.03,79.51 				"/>
				<polygon class="st4" points="62.14,80.46 64.86,78.95 64.97,80.1 62.25,81.61 				"/>
				<polygon class="st4" points="68.95,79.47 74.53,76.37 74.64,77.52 69.06,80.62 				"/>
				<polygon class="st4" points="63.86,82.29 67.89,80.05 68.01,81.21 63.98,83.45 				"/>
				<polygon class="st4" points="60.08,84.39 62.81,82.88 62.92,84.03 60.2,85.55 				"/>
				<polygon class="st4" points="47.65,74.59 49.54,73.55 49.65,74.7 47.77,75.75 				"/>
				<polygon class="st4" points="44.11,76.56 46.6,75.18 46.71,76.33 44.22,77.71 				"/>
				<polygon class="st4" points="40.74,60.02 35.16,63.11 35.05,61.96 40.62,58.86 				"/>
				<polygon class="st4" points="45.82,57.19 41.79,59.43 41.68,58.28 45.71,56.04 				"/>
				<polygon class="st4" points="49.61,55.09 46.88,56.6 46.77,55.45 49.49,53.94 				"/>
				<polygon class="st4" points="37.3,64.7 35.42,65.75 35.31,64.6 37.19,63.55 				"/>
				<polygon class="st4" points="40.85,62.73 38.36,64.12 38.25,62.96 40.74,61.58 				"/>
				<polygon class="st4" points="45.92,59.92 41.91,62.15 41.79,60.99 45.8,58.77 				"/>
				<polygon class="st4" points="49.61,81.86 51.49,80.81 51.6,81.97 49.72,83.01 				"/>
				<polygon class="st4" points="46.06,83.83 48.55,82.44 48.67,83.6 46.18,84.98 				"/>
				<polygon class="st4" points="41,86.64 45.01,84.41 45.12,85.57 41.11,87.79 				"/>
				<polygon class="st4" points="52.66,77.58 56.67,75.35 56.79,76.51 52.78,78.73 				"/>
				<polygon class="st4" points="46.12,81.02 51.52,78.01 51.64,79.17 46.23,82.17 				"/>
				<polygon class="st4" points="43.37,82.54 45.06,81.6 45.18,82.76 43.49,83.7 				"/>
				<polygon class="st4" points="40.74,84.01 42.43,83.07 42.54,84.22 40.85,85.16 				"/>
				<g>
					<polygon class="st4" points="42.13,69.12 47.46,66.15 47.58,67.3 42.24,70.27 					"/>
					<polygon class="st4" points="39.38,70.64 41.07,69.7 41.18,70.86 39.49,71.8 					"/>
					<polygon class="st4" points="42.7,66.02 44.58,64.97 44.69,66.13 42.81,67.17 					"/>
					<polygon class="st4" points="48.94,68.13 50.82,67.08 50.94,68.24 49.05,69.28 					"/>
					<polygon class="st4" points="51.62,66.64 56.14,64.13 56.26,65.28 51.74,67.79 					"/>
					<polygon class="st4" points="56.94,63.69 59.63,62.19 59.74,63.35 57.06,64.84 					"/>
					<polygon class="st4" points="39.15,67.99 41.64,66.6 41.75,67.76 39.27,69.14 					"/>
					<g>
						<polygon class="st4" points="39.11,65.28 41,64.23 41.11,65.39 39.23,66.43 						"/>
						<polygon class="st4" points="35.57,67.25 38.06,65.87 38.17,67.02 35.68,68.4 						"/>
					</g>
					<polygon class="st4" points="46.21,69.64 47.9,68.71 48.01,69.86 46.32,70.8 					"/>
					<polygon class="st4" points="43.57,71.11 45.26,70.17 45.37,71.32 43.68,72.26 					"/>
				</g>
				<polygon class="st4" points="55.13,84.35 60.9,81.15 61.01,82.3 55.24,85.51 				"/>
				<polygon class="st4" points="48.67,87.94 54.07,84.94 54.19,86.09 48.78,89.1 				"/>
				<polygon class="st4" points="45.92,89.47 47.61,88.53 47.73,89.68 46.03,90.62 				"/>
				<polygon class="st4" points="43.28,90.93 44.97,89.99 45.09,91.15 43.4,92.09 				"/>
				<polygon class="st4" points="41.84,91.73 38.19,93.76 38.31,94.91 41.96,92.89 				"/>
			</g>
			<g>
				<path class="st3" d="M103.21,73.98l-88.63,49.18c-0.68,0.38-1.23,0.16-1.3-0.52L6.99,58.91c-0.07-0.72,0.53-1.76,1.26-2.16
					L96.88,7.56c0.68-0.38,1.23-0.16,1.3,0.52l6.29,63.74C104.54,72.54,103.93,73.58,103.21,73.98z"/>
				<g>
					<polygon class="st10" points="95.48,11.63 10.05,59.04 16.03,119.07 101.41,71.69 					"/>
				</g>
			</g>
			<path class="st10" d="M153.87,104.93l-87.73,48.68c-0.96,0.53-2.36,0.59-3.13,0.13l-48.29-29.05c-0.77-0.46-0.61-1.27,0.35-1.8
				l87.73-48.68c0.96-0.53,2.36-0.59,3.13-0.13l48.29,29.05C154.99,103.59,154.83,104.39,153.87,104.93z"/>
			<path id="XMLID_3_" class="st4" d="M153.91,104.44l-87.73,48.68c-0.96,0.53-2.36,0.59-3.13,0.13L14.77,124.2
				c-0.25-0.15-0.39-0.34-0.45-0.54c-0.15,0.38-0.03,0.76,0.42,1.03l48.29,29.05c0.77,0.46,2.17,0.4,3.13-0.13l87.73-48.68
				c0.65-0.36,0.92-0.84,0.8-1.26C154.56,103.94,154.31,104.22,153.91,104.44z"/>
			<path class="st35" d="M28.04,121.97l72.9-40.46c0.49-0.27,1.06-0.27,1.51,0l23.94,14.44c0.34,0.21,0.31,0.72-0.07,0.93
				l-72.87,40.44c-0.49,0.27-1.06,0.27-1.51,0L27.98,122.9C27.63,122.69,27.67,122.17,28.04,121.97z"/>
			<path class="st36" d="M27.98,122.9l0.24,0.14l72.64-40.31c0.49-0.27,1.06-0.27,1.51,0l23.7,14.29l0.26-0.14
				c0.37-0.21,0.41-0.72,0.07-0.93l-23.94-14.44c-0.45-0.27-1.02-0.27-1.51,0l-72.9,40.46C27.67,122.17,27.63,122.69,27.98,122.9z"
				/>
			<g>
				<polygon class="st3" points="104.08,85.17 40.76,120.31 38.16,118.75 101.48,83.61 				"/>
				<polygon class="st3" points="110.45,89 51.05,121.96 48.45,120.4 107.85,87.44 				"/>
				<polygon class="st3" points="114.59,91.49 44.66,130.3 42.06,128.74 112,89.93 				"/>
				<polygon class="st3" points="118.74,93.99 48.81,132.8 46.21,131.23 116.14,92.43 				"/>
				<polygon class="st3" points="122.89,96.48 52.96,135.29 50.36,133.73 120.29,94.92 				"/>
				<polygon class="st3" points="36.93,122.43 34.11,124 31.52,122.43 34.33,120.87 				"/>
				<polygon class="st3" points="46.32,124.58 40.48,127.83 37.88,126.26 43.73,123.02 				"/>
			</g>
			<path class="st3" d="M100.13,131.76l19.66-10.91c0.77-0.43,0.82-1.12,0.11-1.54l-12.4-7.46c-0.71-0.43-1.91-0.43-2.67,0
				l-19.66,10.91c-0.77,0.43-0.82,1.12-0.11,1.54l12.4,7.46C98.16,132.18,99.36,132.18,100.13,131.76z"/>
			<path class="st36" d="M85.12,123.39l19.66-10.91c0.77-0.43,1.97-0.43,2.67,0l12.4,7.46c0.22,0.13,0.36,0.29,0.43,0.46
				c0.22-0.37,0.1-0.79-0.39-1.09l-12.4-7.46c-0.71-0.43-1.91-0.43-2.67,0l-19.66,10.91c-0.53,0.29-0.71,0.71-0.54,1.09
				C84.72,123.68,84.88,123.52,85.12,123.39z"/>
			<g class="st33">
				<defs>
					<polygon id="SVGID_5_" class="st33" points="95.48,11.63 10.05,59.04 16.03,119.07 101.41,71.69 					"/>
				</defs>
				<clipPath id="SVGID_28_">
					<use xlink:href="#SVGID_5_"  style="overflow:visible;"/>
				</clipPath>
				<g class="st37">
					<g>
						<path class="st32" d="M-7.38,99.88l72.9-40.46c0.49-0.27,1.06-0.27,1.51,0l23.94,14.44c0.34,0.21,0.31,0.72-0.07,0.93
							l-72.87,40.44c-0.49,0.27-1.06,0.27-1.51,0l-23.98-14.42C-7.78,100.6-7.75,100.09-7.38,99.88z"/>
						<g>
							<polygon class="st29" points="84.52,72.88 21.01,108.12 23.33,109.52 86.84,74.27 							"/>
							<polygon class="st29" points="78.34,69.16 17.98,102.66 20.3,104.06 80.66,70.56 							"/>
							<polygon class="st29" points="13.47,105.16 7.83,108.29 10.15,109.69 15.79,106.56 							"/>
							<polygon class="st29" points="17.93,109.83 14.01,112.01 16.33,113.4 20.25,111.22 							"/>
							<polygon class="st29" points="74.48,66.84 3.97,105.97 6.29,107.36 76.8,68.23 							"/>
							<polygon class="st29" points="70.61,64.51 0.1,103.64 2.42,105.03 72.93,65.91 							"/>
							<polygon class="st29" points="66.74,62.18 -3.77,101.31 -1.45,102.71 69.06,63.58 							"/>
						</g>
					</g>
				</g>
			</g>
			<g>
				<polygon class="st4" points="38.37,96.18 45.28,92.34 45.4,93.49 38.49,97.33 				"/>
				<polygon class="st21" points="46.4,91.73 50.16,89.63 50.28,90.79 46.51,92.88 				"/>
				<polygon class="st4" points="56.02,86.38 58.75,84.87 58.86,86.02 56.14,87.54 				"/>
				<polygon class="st4" points="54.03,87.49 54.96,86.97 55.08,88.12 54.15,88.64 				"/>
				<polygon class="st4" points="51.29,89.01 52.98,88.07 53.09,89.23 51.4,90.17 				"/>
				<polygon class="st4" points="44.25,87.36 46.97,85.84 47.08,87 44.36,88.51 				"/>
				<polygon class="st21" points="37.85,90.91 43.19,87.94 43.3,89.1 37.96,92.06 				"/>
				<g>
					<polygon class="st4" points="46.52,72.21 51.85,69.25 51.97,70.4 46.63,73.37 					"/>
					<polygon class="st4" points="43.77,73.74 45.46,72.8 45.57,73.95 43.88,74.89 					"/>
				</g>
				<polygon class="st21" points="47,77.49 52.34,74.52 52.46,75.68 47.12,78.64 				"/>
				<polygon class="st4" points="44.26,79.02 45.95,78.08 46.06,79.23 44.37,80.17 				"/>
				<polygon class="st4" points="44.32,49.44 34.26,55.02 34.15,53.87 44.21,48.28 				"/>
				<polygon class="st21" points="47.86,47.47 45.38,48.85 45.26,47.7 47.75,46.31 				"/>
				<polygon class="st21" points="64.93,46.35 54.87,51.93 54.76,50.78 64.82,45.19 				"/>
				<polygon class="st4" points="68.47,44.38 65.99,45.76 65.87,44.61 68.36,43.22 				"/>
				<polygon class="st4" points="37.25,56.15 34.52,57.66 34.41,56.51 37.13,54.99 				"/>
				<polygon class="st4" points="53.42,52.73 50.7,54.24 50.58,53.09 53.31,51.57 				"/>
				<polygon class="st21" points="43.64,52.59 38.3,55.56 38.19,54.41 43.53,51.44 				"/>
				<polygon class="st4" points="46.39,51.07 44.7,52.01 44.58,50.85 46.28,49.91 				"/>
				<polygon class="st4" points="52.83,47.49 47.49,50.46 47.38,49.31 52.72,46.34 				"/>
				<polygon class="st4" points="55.58,45.97 53.89,46.91 53.78,45.75 55.47,44.81 				"/>
				<polygon class="st4" points="53.16,50.09 50.44,51.6 50.32,50.45 53.05,48.94 				"/>
				<polygon class="st21" points="59.56,46.54 54.22,49.5 54.1,48.35 59.44,45.39 				"/>
				<polygon class="st4" points="62.3,45.01 60.61,45.95 60.5,44.8 62.19,43.86 				"/>
				<polygon class="st21" points="40.36,57.2 34.78,60.29 34.67,59.14 40.24,56.04 				"/>
				<polygon class="st4" points="45.45,54.37 41.41,56.61 41.3,55.46 45.33,53.22 				"/>
				<polygon class="st4" points="49.23,52.27 46.5,53.78 46.39,52.63 49.11,51.12 				"/>
				<polygon class="st4" points="75.45,40.51 69.87,43.61 69.76,42.46 75.34,39.36 				"/>
				<polygon class="st21" points="80.54,37.69 76.51,39.93 76.39,38.77 80.42,36.53 				"/>
				<polygon class="st4" points="84.32,35.59 81.59,37.1 81.48,35.95 84.2,34.43 				"/>
				<polygon class="st4" points="70.92,75.33 76.5,72.24 76.61,73.39 71.04,76.49 				"/>
				<polygon class="st4" points="65.83,78.16 69.87,75.92 69.98,77.07 65.95,79.31 				"/>
				<polygon class="st4" points="62.05,80.26 64.78,78.75 64.89,79.9 62.17,81.41 				"/>
				<polygon class="st4" points="68.87,79.26 74.44,76.17 74.56,77.32 68.98,80.42 				"/>
				<polygon class="st21" points="63.78,82.09 67.81,79.85 67.93,81.01 63.9,83.24 				"/>
				<polygon class="st4" points="60,84.19 62.73,82.68 62.84,83.83 60.11,85.35 				"/>
				<polygon class="st4" points="47.57,74.39 49.46,73.35 49.57,74.5 47.69,75.54 				"/>
				<polygon class="st4" points="44.03,76.36 46.52,74.98 46.63,76.13 44.14,77.51 				"/>
				<polygon class="st4" points="40.66,59.82 35.08,62.91 34.97,61.76 40.54,58.66 				"/>
				<polygon class="st21" points="45.74,56.99 41.71,59.23 41.6,58.08 45.63,55.84 				"/>
				<polygon class="st4" points="49.52,54.89 46.8,56.4 46.69,55.25 49.41,53.74 				"/>
				<polygon class="st4" points="37.22,64.5 35.34,65.55 35.23,64.4 37.11,63.35 				"/>
				<polygon class="st4" points="40.77,62.53 38.28,63.92 38.17,62.76 40.65,61.38 				"/>
				<polygon class="st4" points="45.83,59.72 41.82,61.95 41.71,60.79 45.72,58.57 				"/>
				<polygon class="st4" points="49.53,81.66 51.41,80.61 51.52,81.76 49.64,82.81 				"/>
				<polygon class="st4" points="45.98,83.63 48.47,82.24 48.58,83.4 46.1,84.78 				"/>
				<polygon class="st21" points="40.92,86.44 44.93,84.21 45.04,85.37 41.03,87.59 				"/>
				<polygon class="st4" points="52.58,77.38 56.59,75.15 56.71,76.31 52.7,78.53 				"/>
				<polygon class="st4" points="46.04,80.82 51.44,77.81 51.56,78.97 46.15,81.97 				"/>
				<polygon class="st4" points="43.29,82.34 44.98,81.4 45.1,82.56 43.41,83.49 				"/>
				<polygon class="st21" points="40.66,83.81 42.35,82.87 42.46,84.02 40.77,84.96 				"/>
				<g>
					<polygon class="st21" points="42.04,68.92 47.38,65.95 47.5,67.1 42.16,70.07 					"/>
					<polygon class="st4" points="39.3,70.44 40.99,69.5 41.1,70.66 39.41,71.59 					"/>
					<polygon class="st4" points="42.61,65.82 44.5,64.77 44.61,65.92 42.73,66.97 					"/>
					<polygon class="st4" points="48.86,67.93 50.74,66.88 50.85,68.04 48.97,69.08 					"/>
					<polygon class="st4" points="51.54,66.44 56.06,63.93 56.17,65.08 51.66,67.59 					"/>
					<polygon class="st4" points="56.86,63.49 59.55,61.99 59.66,63.15 56.98,64.64 					"/>
					<polygon class="st4" points="39.07,67.79 41.56,66.4 41.67,67.56 39.18,68.94 					"/>
					<g>
						<polygon class="st4" points="39.03,65.08 40.92,64.03 41.03,65.19 39.15,66.23 						"/>
						<polygon class="st4" points="35.49,67.05 37.98,65.67 38.09,66.82 35.6,68.2 						"/>
					</g>
					<polygon class="st21" points="46.12,69.44 47.82,68.5 47.93,69.66 46.24,70.6 					"/>
					<polygon class="st4" points="43.49,70.91 45.18,69.97 45.29,71.12 43.6,72.06 					"/>
				</g>
				<polygon class="st21" points="55.05,84.15 60.81,80.95 60.93,82.1 55.16,85.31 				"/>
				<polygon class="st4" points="48.59,87.74 53.99,84.74 54.1,85.89 48.7,88.9 				"/>
				<polygon class="st4" points="45.84,89.27 47.53,88.33 47.64,89.48 45.95,90.42 				"/>
				<polygon class="st4" points="43.2,90.73 44.89,89.79 45.01,90.95 43.32,91.89 				"/>
				<polygon class="st4" points="41.76,91.53 38.11,93.56 38.23,94.71 41.88,92.69 				"/>
			</g>
		</g>
	</g>
	<path class="st38" d="M152.31,114.45"/>
	<ellipse class="st39" cx="75.81" cy="106.93" rx="13.27" ry="6.63"/>
	<ellipse class="st40" cx="75.37" cy="106.93" rx="7.96" ry="3.98"/>
	<path class="st41" d="M75.37,107.37c6.05-20.14,26.63-41.15,60.26-41.58c35.1-0.46,73.91,32.36,59.61,82"/>
</g>
<path class="st42" d="M231.34,211.83"/>
<path class="st43" d="M319.46,57.15c0,0-20.53-48.32-56.57-2.8c-38,47.99-28.47,133.88-28.47,133.88"/>
<g>
	<polygon id="Path_300_" class="st44" points="369.2,281.12 349.75,269.63 369.2,258.13 388.66,269.63 	"/>
	<g id="Group_6_" transform="translate(374.000000, 260.000000)" class="st45">
		<polygon id="Path_301_" class="st38" points="-8.03,29.6 8.91,44.75 13.41,22.34 -3.53,7.19 -24.99,14.46 -29.49,36.86 		"/>
		<polygon id="Path_302_" class="st46" points="-3.53,7.19 13.41,22.34 8.91,44.75 -8.03,29.6 		"/>
		<polygon id="Path_303_" class="st47" points="-24.99,14.46 -3.53,7.19 -8.03,29.6 -29.49,36.86 		"/>
		<polygon id="Path_304_" class="st46" points="-8.03,29.6 8.91,44.75 -12.55,52 -29.49,36.86 		"/>
		<polygon id="Path_305_" class="st48" points="-8.03,29.6 8.91,44.75 9.11,43.77 -7.84,28.62 -29.3,35.89 -29.49,36.86 		"/>
	</g>
	<path id="Shape_2_" class="st49" d="M369.64,300.58c-13.01,0-26.01-2.83-35.92-8.5c-9.63-5.52-14.93-12.87-14.93-20.69
		c0-7.82,5.3-15.17,14.93-20.68c19.81-11.34,52.04-11.34,71.85,0c9.63,5.51,14.93,12.86,14.93,20.68c0,7.82-5.3,15.17-14.93,20.69
		C395.67,297.75,382.66,300.58,369.64,300.58z M369.64,242.61c-12.93,0-25.86,2.82-35.71,8.46c-9.5,5.44-14.74,12.67-14.74,20.33
		c0,7.66,5.24,14.89,14.74,20.33c19.65,11.28,51.74,11.28,71.43,0c9.5-5.44,14.74-12.65,14.74-20.33s-5.24-14.89-14.74-20.33
		C395.51,245.43,382.58,242.61,369.64,242.61z"/>
	<path id="Shape_3_" class="st50" d="M369.64,308.54c-16.4,0-32.81-3.61-45.29-10.83c-12.15-7.01-18.82-16.36-18.82-26.31
		s6.68-19.3,18.82-26.31c24.97-14.45,65.61-14.45,90.59,0c12.15,7.01,18.82,16.36,18.82,26.31s-6.68,19.3-18.82,26.31l-0.1-0.17
		l0.1,0.17C402.46,304.93,386.06,308.54,369.64,308.54z M369.64,234.65c-16.33,0-32.66,3.6-45.1,10.78
		c-12.04,6.95-18.55,16.17-18.55,25.96c0,9.79,6.61,19.01,18.62,25.96c24.88,14.34,65.33,14.34,90.19,0l0,0
		c12.02-6.95,18.62-16.15,18.62-25.96c0-9.8-6.61-19.01-18.62-25.96C402.33,238.25,385.98,234.65,369.64,234.65L369.64,234.65z"/>
	<path id="Shape_4_" class="st38" d="M369.21,294.39c-10.18,0-20.36-2.23-28.11-6.69c-7.54-4.34-11.7-10.13-11.7-16.3
		c0-6.17,4.16-11.96,11.7-16.3c15.5-8.92,40.7-8.92,56.2,0c7.54,4.34,11.7,10.14,11.7,16.3s-4.16,11.96-11.7,16.3
		C389.56,292.16,379.38,294.39,369.21,294.39z M369.21,248.8c-10.1,0-20.2,2.22-27.89,6.65c-7.41,4.27-11.49,9.92-11.49,15.94
		s4.08,11.67,11.49,15.95c15.38,8.86,40.4,8.86,55.78,0l0.1,0.18l-0.1-0.18c7.41-4.27,11.49-9.93,11.49-15.95
		s-4.08-11.67-11.49-15.94c-7.71-4.44-17.81-6.65-27.91-6.65H369.21z"/>
	<polygon id="Path_306_" class="st38" points="367,249.73 364.73,227.17 346.21,240.4 348.48,262.95 369.26,272.28 387.78,259.05 	
		"/>
	<polygon id="Path_307_" class="st46" points="348.43,263.43 346.21,240.58 364.33,227.17 366.55,250.03 	"/>
	<polygon id="Path_308_" class="st47" points="369.44,272.28 348.86,262.77 367.2,249.28 387.78,258.8 	"/>
	<polygon id="Path_309_" class="st46" points="367.05,249.7 364.78,227.17 385.53,236.49 387.78,259.01 	"/>
	<polygon id="Path_310_" class="st48" points="366.97,249.91 364.7,227.17 363.9,227.75 366.17,250.49 386.98,259.9 387.78,259.32 	
		"/>
	<path id="Path_435_" class="st51" d="M401.04,282.89c0,1.47,1.19,2.65,2.65,2.65s2.65-1.19,2.65-2.65s-1.19-2.65-2.65-2.65
		S401.04,281.43,401.04,282.89z"/>
	<circle id="Oval" class="st52" cx="403.26" cy="282.45" r="1.33"/>
	<circle id="Oval_1_" class="st53" cx="352.84" cy="292.18" r="3.98"/>
	<path id="Path_436_" class="st21" d="M351.52,291.89c0.08,0.92,0.84,1.62,1.76,1.62s1.68-0.7,1.76-1.62
		c0.06-0.67-0.27-1.31-0.83-1.66s-1.29-0.35-1.86,0S351.47,291.22,351.52,291.89L351.52,291.89z"/>
	<path id="Path_437_" class="st51" d="M336.48,256.36c0,1.47,1.19,2.65,2.65,2.65s2.65-1.19,2.65-2.65s-1.19-2.65-2.65-2.65
		S336.48,254.89,336.48,256.36L336.48,256.36z"/>
	<path id="Path_438_" class="st52" d="M338.25,255.92c0,0.73,0.59,1.33,1.33,1.33s1.33-0.59,1.33-1.33c0-0.73-0.59-1.33-1.33-1.33
		S338.25,255.18,338.25,255.92z"/>
</g>
<path class="st54" d="M368.32,261.37c0,0-63.56,87.38-142.72-29.94"/>
<ellipse transform="matrix(0.9945 -0.1049 0.1049 0.9945 -22.9155 24.8996)" class="st5" cx="225.17" cy="230.22" rx="7.97" ry="7.07"/>
<ellipse transform="matrix(0.9945 -0.1049 0.1049 0.9945 -22.9155 24.8996)" class="st6" cx="225.17" cy="230.22" rx="4.59" ry="4.08"/>
<ellipse transform="matrix(0.409 -0.9125 0.9125 0.409 -20.9047 490.0535)" class="st39" cx="367.89" cy="261.17" rx="5.72" ry="7.23"/>
<ellipse transform="matrix(0.409 -0.9125 0.9125 0.409 -21.1096 490.0852)" class="st40" cx="367.82" cy="261.34" rx="3.43" ry="4.34"/>
<path class="st55" d="M83.17,222.01c0,0-10.6-36.14,57.36-31.55"/>
<circle class="st5" cx="234.34" cy="187.32" r="7.97"/>
<circle class="st6" cx="234.34" cy="187.32" r="4.59"/>
<path class="st56" d="M117.81,78.06L117.81,78.06L117.81,78.06z"/>
<path class="st2" d="M398.17,123c0-8.72-6.12-19.32-13.67-23.68c-1.96-1.13-3.82-1.73-5.5-1.84c0-0.14,0.02-0.28,0.02-0.42
	c0-6.82-4.79-15.11-10.69-18.52c-1.63-0.94-3.17-1.4-4.55-1.44c-4.17-10.89-12.06-21.16-21.1-26.38c-5.92-3.42-11.34-4.1-15.55-2.46
	l-3.09,1.78c-2.05,1.65-3.62,4.05-4.57,7.12c-2.18-2.49-4.64-4.6-7.23-6.1c-4-2.31-7.66-2.78-10.51-1.7l-2.24,1.3l-15.63,14.5
	l45.18,43.34l50.48,37.18l15.7-14.56l-0.01-0.01C397.06,129.48,398.17,126.71,398.17,123z"/>
<path class="st57" d="M368.87,113.82c-1.96-1.13-3.82-1.73-5.5-1.84c0-0.14,0.02-0.28,0.02-0.42c0-6.82-4.79-15.11-10.69-18.52
	c-1.63-0.94-3.17-1.4-4.55-1.44c-4.17-10.89-12.06-21.16-21.1-26.38c-5.92-3.42-11.34-4.1-15.55-2.46l-3.09,1.78
	c-2.05,1.65-3.62,4.05-4.57,7.12c-2.18-2.49-4.64-4.6-7.23-6.1c-4-2.31-7.66-2.78-10.51-1.7l-2.24,1.3
	c-2.34,1.94-3.75,5.34-3.75,9.93c0,0.76,0.04,1.53,0.12,2.31c0.96,10.02,7.93,21.39,16.39,26.27l63.11,36.44l9.16,5.29
	c7.55,4.36,13.67,0.83,13.67-7.89S376.42,118.18,368.87,113.82z"/>
</svg>
