<svg id="Layer_1" data-name="Layer 1" xmlns="http://www.w3.org/2000/svg" xmlns:xlink="http://www.w3.org/1999/xlink" viewBox="0 0 540 540"><defs><style>.cls-1{fill:none;}.cls-2,.cls-29,.cls-3,.cls-30,.cls-31,.cls-33,.cls-4{fill:#52c7ea;}.cls-2{opacity:0.1;}.cls-4,.cls-6{opacity:0.2;}.cls-5{fill:#0a1a2b;}.cls-34,.cls-6,.cls-7{fill:#ec432d;}.cls-8{fill:url(#linear-gradient);}.cls-9{fill:url(#linear-gradient-2);}.cls-10{fill:url(#linear-gradient-3);}.cls-11{fill:#152935;}.cls-12{opacity:0.3;fill:url(#linear-gradient-4);}.cls-12,.cls-17,.cls-30,.cls-31,.cls-33,.cls-34{isolation:isolate;}.cls-13{fill:url(#linear-gradient-5);}.cls-14{fill:url(#linear-gradient-6);}.cls-15{fill:url(#linear-gradient-7);}.cls-16{opacity:0.4;}.cls-18{clip-path:url(#clip-path);}.cls-19{clip-path:url(#clip-path-2);}.cls-20{clip-path:url(#clip-path-3);}.cls-21{clip-path:url(#clip-path-4);}.cls-22{clip-path:url(#clip-path-5);}.cls-23{clip-path:url(#clip-path-6);}.cls-24{clip-path:url(#clip-path-7);}.cls-25{clip-path:url(#clip-path-8);}.cls-26{fill:#171e23;}.cls-27{opacity:0.51;}.cls-28{fill:#1b2126;}.cls-29,.cls-33,.cls-34{opacity:0.5;}.cls-30{opacity:0.2;}.cls-31{opacity:0.6;}.cls-32{fill:#fff;}</style><linearGradient id="linear-gradient" x1="168.99" y1="308.37" x2="365.13" y2="308.37" gradientUnits="userSpaceOnUse"><stop offset="0" stop-color="#52c7ea"/><stop offset="1" stop-color="#152935"/></linearGradient><linearGradient id="linear-gradient-2" x1="210.56" y1="312.26" x2="353.61" y2="312.26" gradientUnits="userSpaceOnUse"><stop offset="0.63" stop-color="#52c7ea"/><stop offset="1" stop-color="#152935"/></linearGradient><linearGradient id="linear-gradient-3" x1="146.94" y1="341.43" x2="394.75" y2="341.43" gradientUnits="userSpaceOnUse"><stop offset="0" stop-color="#152935"/><stop offset="1" stop-color="#52c7ea"/></linearGradient><linearGradient id="linear-gradient-4" x1="174.05" y1="313.5" x2="477.47" y2="313.5" gradientUnits="userSpaceOnUse"><stop offset="0" stop-color="#52c7ea" stop-opacity="0.7"/><stop offset="1"/></linearGradient><linearGradient id="linear-gradient-5" x1="181.96" y1="323.48" x2="378.11" y2="323.48" xlink:href="#linear-gradient"/><linearGradient id="linear-gradient-6" x1="147.66" y1="296.84" x2="395.48" y2="296.84" xlink:href="#linear-gradient-3"/><linearGradient id="linear-gradient-7" x1="180.4" y1="316.97" x2="323.5" y2="316.97" xlink:href="#linear-gradient-2"/><clipPath id="clip-path"><polygon class="cls-1" points="175.35 321.85 175.96 298.49 197.46 295.02 196.85 318.38 175.35 321.85"/></clipPath><clipPath id="clip-path-2"><polygon class="cls-1" points="180.04 316.16 180.38 302.71 192.77 300.71 192.42 314.16 180.04 316.16"/></clipPath><clipPath id="clip-path-3"><polygon class="cls-1" points="235.1 266.27 218.6 249.74 244.29 233.1 260.79 249.64 235.1 266.27"/></clipPath><clipPath id="clip-path-4"><polyline class="cls-1" points="242.95 261.19 223.04 254.19 236.44 238.19 256.35 245.19 242.95 261.19"/></clipPath><clipPath id="clip-path-5"><polygon class="cls-1" points="237.05 259.25 227.54 249.72 242.35 240.13 251.86 249.66 237.05 259.25"/></clipPath><clipPath id="clip-path-6"><polyline class="cls-1" points="241.58 256.32 230.1 252.28 237.82 243.06 249.3 247.1 241.58 256.32"/></clipPath><clipPath id="clip-path-7"><polygon class="cls-1" points="366.78 305.6 363.43 282.1 372.39 287.36 375.75 310.86 366.78 305.6"/></clipPath><clipPath id="clip-path-8"><polygon class="cls-1" points="370.12 301.33 368.18 287.79 373.35 290.82 375.29 304.37 370.12 301.33"/></clipPath></defs><path class="cls-2" d="M120,406.07c0,6.19-9.26,11.2-20.69,11.2s-20.69-5-20.69-11.2a7.06,7.06,0,0,1,1.64-4.37,40.38,40.38,0,0,0,18.18,4,39.39,39.39,0,0,0,19.35-4.66A7.27,7.27,0,0,1,120,406.07Z"/><path class="cls-3" d="M98.45,406.09A41,41,0,0,1,80.11,402c-6.33-3.25-10-8-10-13,0-9.41,12.7-17.07,28.31-17.07s28.3,7.66,28.3,17.07c0,4.74-3.11,9.13-8.77,12.36C112.72,404.41,105.78,406.09,98.45,406.09Zm0-33.42c-15.2,0-27.57,7.33-27.57,16.34,0,4.75,3.48,9.25,9.56,12.37a40.36,40.36,0,0,0,18,4c7.2,0,14-1.64,19.17-4.62C123,397.64,126,393.47,126,389,126,380,113.65,372.67,98.45,372.67Z"/><ellipse class="cls-4" cx="99.32" cy="389.01" rx="20.69" ry="11.18"/><path class="cls-5" d="M79.38,339.28a.75.75,0,0,0-.75.75v34.21c0,6.17,9.26,11.18,20.69,11.18s20.69-5,20.69-11.18V340a.75.75,0,0,0-.75-.75Z"/><path class="cls-3" d="M119.26,340l0,0v34.21c0,5.76-9,10.45-20,10.45s-20-4.69-20-10.45l0-34.23h39.88m0-.73H79.38a.75.75,0,0,0-.75.75v34.21c0,6.17,9.26,11.18,20.69,11.18s20.69-5,20.69-11.18V340a.75.75,0,0,0-.75-.75Z"/><path class="cls-3" d="M99.32,330.41c11,0,20,4.69,20,10.45s-9,10.45-20,10.45-20-4.69-20-10.45,9-10.45,20-10.45m0-.73c-11.43,0-20.69,5-20.69,11.18S87.89,352,99.32,352,120,347,120,340.86s-9.26-11.18-20.69-11.18Z"/><ellipse class="cls-5" cx="99.32" cy="340.51" rx="20.69" ry="11.18"/><path class="cls-3" d="M99.32,330.06c11,0,20,4.69,20,10.45s-9,10.44-20,10.44-20-4.68-20-10.44,9-10.45,20-10.45m0-.74c-11.43,0-20.69,5-20.69,11.19s9.26,11.18,20.69,11.18,20.69-5,20.69-11.18-9.26-11.19-20.69-11.19Z"/><path class="cls-2" d="M22.13,246.16l99.05-53.6a8.41,8.41,0,0,1,8.39.21l45.55,27.66a8.43,8.43,0,0,1-.23,14.55L79,289.07a8.44,8.44,0,0,1-8.37,0L21.93,260.88A8.43,8.43,0,0,1,22.13,246.16Z"/><circle class="cls-6" cx="213.59" cy="273.92" r="10.2"/><circle class="cls-7" cx="213.59" cy="273.92" r="5.88"/><path class="cls-8" d="M182,402.61c-27.84-29.42-9.4-92.23,41.1-140,24.43-23.13,52.65-39.34,79.45-45.65s49.11-1.94,62.62,12.34l-.53.5c-13.33-14.08-35.32-18.39-61.92-12.12s-54.77,22.42-79.12,45.46c-50.2,47.51-68.63,109.86-41.06,139Z"/><path class="cls-9" d="M323.5,427.36l-.33-.66c35.86-18,39.84-82.85,8.89-144.65s-85.31-97.48-121.17-79.52l-.33-.65c36.22-18.15,91,17.67,122.15,79.84S359.72,409.22,323.5,427.36Z"/><path class="cls-10" d="M303.3,388.93a228.57,228.57,0,0,1-45.37-4.71c-68.12-13.9-117.59-54.4-110.27-90.28l.72.14c-7.24,35.49,42,75.6,109.7,89.42s128.72-3.82,136-39.31l.71.14C389.12,372,351.43,388.93,303.3,388.93Z"/><path class="cls-11" d="M374.08,319.16c0,56-45.84,101.46-102.39,101.46S169.3,375.19,169.3,319.16,215.14,217.7,271.69,217.7,374.08,263.13,374.08,319.16Z"/><path class="cls-12" d="M364.57,357.16c-6.84,3.37-18.82,2.84-14.89,11.87C353,385.87,365.23,362.43,364.57,357.16Zm-161.2-4.92c8.93,8.2,2.92,22.56,3.73,31.95-.41,4.05,2.8,9.93,6.05,3.9-3-4.67,3.49.52,1.76-4.9,5-7.05,10.06-10.72,13.42-19.48,4.16-1,3.77-6.46,4.9-9.86,1.87-2.51,4.43-6,3.88-9.43-2.52-4.05-8.38-3.93-12.48-5.94-2.76-5.81-10.75-10.87-16.22-12.4-3.1-1.57-4.29,4.15-6.95,2.12-2.26.45-3.62.94-3.52-2.66.33-3.2-4-3.36-3-6.67-.53-2-3.48-1.68-4.08.28-7,.72-2.92-12.08,3-9.07,4.26-2.53,7,6.46,7.78,1.17-1.7-3.39,2.7-7.57,4.88-9.42-1.2-3.68,4.31-4.5,4.33-7.39,1-2.94,4.47-1.16,6.26-2.64-.35-3.16-.85-5.58,3.75-5.86,1.31.59-2.11,3.64,1.41,4.62,5.73,1.52-2.13-11-2.63-13.23-1.11-1.68-2.19-3.86-4.62-2.68-.66-3-3.88-4.57-6.9-5.09.41,2-2.25,15.43-4.25,11-1.42-3.15-7.36-2.43-7.15-7.21,1.62-4.87,13.39-8.9,9.91-13.5,1.63,0,7.39-.84,6.54,3-3.08,7.56-3.6,3.58,2.95,7.45,1.74.68,2.1-3.36,1.6-4.28,1.55.46,4.75-.9,2.69-3.23-3.66-.92-1.32-5.85-5.53-5.79-3.63-3.48-15.46-5.18-10.55,3.21-12.71-5.38-27.81,31.05-30.2,51.68,4.81,8.46,2.73-6.37,7,8.3C217,338,191.49,330.37,203.37,352.24ZM214.93,293Zm-6.72-41c4.24-.32,3.39-2.15,5.39-5.17,2.25-1.43,6.71-2.66,7.58-5.31C234.35,231.63,195.49,254.66,208.21,251.92Zm71,121.12c8.2-8,12-20.1,13.12-31.44,1.29-2.72,12.43-13.81,5.24-14.73-5.24,4-14.86-23-6.27-7.35,1.76,10.58,17.66,3.44,14.26-4.71-2-.91-7.28-3.47-5.62-6,3.67,1.28,5.39,7.24,9.69,6.05,6.83-1.4,6.59,8.33,10.12,12.47,1.69,12.76,9.74-21.66,14.12-5.39,2.78,2.5,4.9,5.44,4.27,9.8,2.76,5.25,7.72,3.56,2.06-1.46-1.81-8,4.68,3.83,6.58-4.45.23-11.18,13.43-11.3,6.85-24.12,4.62-6.94,3.94,8.44,7.28-2.9,8.42-14.78-20.85-56.93-36.18-48.58-2.81.45-10.26,2.78-8.76,6.4-1.07-1.13-3.43,1.15-3.63-.15-1.92-1.32-4.47-.9-6.28,1.53-1.21,1.52-6.42,0-5.27,2.51.52.1-1.33-.09-2.35,0-3.1.75-5.05,2.82-7.42.39-1.5,2.67-1.28,3.17-4.26.47-5.33-2-8-6.35-13.39-2.4-3.67,4.59-11.53,9-10,15.48,3.47,5,1.14,6.83-3.74,9.6,1.94-3.24-2.42-7-2-9.64-4.41-2-1,6-1.89,7-.8,2.29-2.72,5.13,1.63,4.16,4.35,1-6.35.77.1,6.25,1.38,2.59-1.81,1.31-3.63,1.66-4.62,2.91-2,9.25,3.34,8.12,1.43-1.91,8.08-12.43,8.46-4.61,1.91,2.73,1.89-1.5,2.39-1.19,3.17,1.17,2.18,3,2.37,5.15,1.53-.45,2-3.72,3.07-3.95a11.87,11.87,0,0,0-2-3c-1.2-1.1,1.3.34,2.51,2.44,1.58,1.63.47,5,2.8,5.54,4.33,3.33,1-.31,1.43-2.88,1.57-3.53-2.41,4.17,6.92,4,2.89.25,1.14.21.19,3-4.17,0-10.9,1.82-14.85-.64-3.59-2.07-1.31-5.49-6.27-4.08-3.32,1.28-8.92.28-11.44,2.66-5.47,8.35-13.95,30,3.4,30.77,3.8-3.64,4.83.29,9.21-.17C269.22,343.56,265,375.19,279.24,373Zm81-44.18c3-.31,3.46-3,.95-4.67C359.3,325.56,357.3,327.19,360.2,328.86Zm-1.45,10.22c-.18-6.31-6.66,4.35-.35,3.21C358.92,342.28,357.72,339.37,358.75,339.08Zm-3.17-23c.35-.48-.49-2.76-.92-2.25S354.45,317.44,355.58,316Zm2.65,4.89c.25-.59-.32-1.24-1.27-1.44C355.23,320.33,356.69,324.68,358.23,320.93Zm4.94,17.54c1.14.8,3.67.43,3.75-1.09C365.81,336.65,363.07,336.77,363.17,338.47Zm-.61-34.72c-3.2,5.3,1.43,1.26,4.68.72C368.9,299.57,365.25,301.38,362.56,303.75Zm-26,29.87h0C336.42,333.48,336.39,333.47,336.6,333.62Zm6.41,4.24c-1.63-1.59-4.05-5.49-6.39-4.23C339.54,333.76,342.38,345.09,343,337.86Zm-19.61-7.95c-.17.35.26.88.77,1.3C326.86,333.92,324.93,326.93,323.4,329.91Zm-29.67,33.86c4.9,4.26,5.74-9.65,4.31-12.69C294.68,353.19,292.11,359.05,293.73,363.77ZM257.31,240.86c-11.52-1.09,2.12-3.78-11.27-4.54-8.42.9-14.13,3.4-22.83,5.46-3.05,2.9-2.25,4.45-6.6,5-.2,1.54,3.16,1,4.25,1.58-.08.4-4.45.54-2.13,2.44,9.16-.8,5,4.11,9.29,6.79-2.43,4.95,3.6,27,8.83,8.58,14.79-3.76,5.36-10.24,11.68-7.79,2.24-.2,1.95-3.1,3.35-6.15,0-3.79,2.27-2.84,1.17-5.68C252.52,243.38,258.08,243.11,257.31,240.86Zm12.8,1.27c-6.74.2-5.69,6.08-1.76,4.66.39,1.19-.37,3.75,2.31,4.43,1.44-1,1.33-4.35,4.3-2.63C278.21,245,270.94,245.15,270.11,242.13Zm6.86,1.41c8.68-1.24-3.11-3.42-5-2C272,241.86,275.58,243.34,277,243.54Zm-25.29,37.14c-2,1.56,1.77,3.46,2.37,1.12C253.47,279.68,253.16,278.77,251.68,280.68Zm4.11-15.79c-1.89-.58-7.7-1.94-6,.51C248.8,269,257,269.76,255.79,264.89Zm45.64-12.34c11.62-6.09-7.15-3.1-6.06,4.15C301,264,296.27,253.78,301.43,252.55Zm-3.77-9c1.16,1.14,1.8-.51,3.07-.35C300.71,240.86,297.55,241.66,297.66,243.53Zm22.56.43c0,.42,3.21.77,4.16.6C326.19,243,320.12,242.64,320.22,244ZM202.72,267.8c-.63,4.22,2.92-1.12,4.29.47C205.84,267.53,203.93,266.07,202.72,267.8Zm8.3,53.4c.28.66,2.8-.46,1.37-1C212,320.21,211,320.93,211,321.2Zm-6.3-2.31c4.34,5.29,7.29.53-.95-2.52C194.38,315.13,198.45,317.61,204.72,318.89Zm-3,2.31c0,.26,1.43.1,1.77.1C204.58,320.62,201.74,320.58,201.76,321.2Zm1-7.29c-.66-.16-1,1.19-.21,1.2C202.81,315.11,203.14,314.06,202.77,313.91Zm3,.23c-.62-.68-1.34-.75-1.21.54C204.6,315.25,205.89,314.41,205.77,314.14Zm2.15,3.29c1.36-.87-.53-1.3-1-2.06C205.38,315.81,206.76,317.49,207.92,317.43Zm159.55,22.23c-.91.08-4,.38-2.4,1.41C367.47,343.59,369.81,338.94,367.47,339.66Z"/><path class="cls-13" d="M221.89,417.69c-16.27,0-30.26-4.86-39.93-15.08l.54-.5c27.56,29.12,90.83,14.17,141-33.34s68.63-109.86,41.07-139l.53-.5c27.84,29.42,9.41,92.23-41.09,140C291.07,400.49,252.47,417.69,221.89,417.69Z"/><path class="cls-14" d="M394.75,344.33l-.72-.14c3.5-17.15-5.95-35.89-26.61-52.77s-50.24-29.95-83.09-36.65c-67.72-13.81-128.71,3.82-135.95,39.31l-.72-.14c7.32-35.89,68.7-53.78,136.82-39.89,33,6.72,62.58,19.79,83.4,36.8S398.31,326.91,394.75,344.33Z"/><path class="cls-15" d="M302.88,432.07c-34.15,0-75.87-33.33-101.53-84.56-15.07-30.08-22.42-61.78-20.71-89.26s12.35-47.57,29.92-56.37l.33.65c-17.33,8.68-27.81,28.49-29.52,55.77S187,317.21,202,347.18c25.53,51,67,84.16,100.83,84.17a44.9,44.9,0,0,0,20.33-4.65l.33.66A45.61,45.61,0,0,1,302.88,432.07Z"/><g class="cls-16"><g class="cls-17"><g class="cls-18"><path class="cls-7" d="M186.71,296.76c-5.94.95-10.89,7-11.06,13.41s4.52,10.9,10.45,9.94,10.89-7,11.05-13.41-4.51-10.9-10.44-9.94"/></g></g></g><g class="cls-17"><g class="cls-19"><path class="cls-7" d="M186.58,301.71c-3.42.55-6.27,4-6.37,7.73s2.6,6.28,6,5.72,6.27-4,6.37-7.72-2.6-6.29-6-5.73"/></g></g><g class="cls-16"><g class="cls-17"><g class="cls-20"><g class="cls-21"><path class="cls-7" d="M232.67,243.64A12.67,12.67,0,0,0,229.9,246l-.29.35c-3.53,4.38-2,9.43,3.39,11.34a16.49,16.49,0,0,0,13.73-1.95,13.52,13.52,0,0,0,2.72-2.31l.41-.49c3.44-4.36,1.93-9.36-3.47-11.25a16.43,16.43,0,0,0-13.72,1.95"/></g></g></g></g><g class="cls-17"><g class="cls-22"><g class="cls-23"><path class="cls-7" d="M235.65,246.2a7.48,7.48,0,0,0-1.69,1.47c-2.13,2.54-1.29,5.51,1.88,6.63a9.52,9.52,0,0,0,7.91-1.12,7.51,7.51,0,0,0,1.69-1.47c2.09-2.5,1.32-5.4-1.7-6.57l-.38-.13a9.54,9.54,0,0,0-7.71,1.19"/></g></g></g><g class="cls-16"><g class="cls-17"><g class="cls-24"><path class="cls-7" d="M367.91,284.73c-2.47-1.45-3.73,2.63-2.8,9.12s3.68,12.92,6.16,14.38,3.73-2.63,2.8-9.12-3.68-12.93-6.16-14.38"/></g></g></g><g class="cls-17"><g class="cls-25"><path class="cls-7" d="M370.77,289.31c-1.43-.84-2.15,1.51-1.62,5.25s2.13,7.45,3.55,8.29,2.15-1.51,1.62-5.25-2.12-7.45-3.55-8.29"/></g></g><g id="laptop_2"><path class="cls-11" d="M124.49,150.43l-7.82-79.21,1.11-.45-1.55-.93h0a1.15,1.15,0,0,0-1.25.09L4,131.54a3.28,3.28,0,0,0-1.57,2.72l7.87,79.84a.9.9,0,0,0,.51.81h0l1.51.92.38-1.48-.1,0,110.35-61.24A3.26,3.26,0,0,0,124.49,150.43Z"/><path class="cls-26" d="M124.52,154.1l-111,61.61c-.86.48-1.54.2-1.63-.65L4,135.22a3.25,3.25,0,0,1,1.57-2.71l111-61.61c.86-.48,1.54-.2,1.63.65l7.87,79.84A3.25,3.25,0,0,1,124.52,154.1Z"/><g class="cls-27"><polygon class="cls-28" points="114.84 75.99 7.83 135.38 15.32 210.58 122.26 151.23 114.84 75.99"/></g><path class="cls-5" d="M189,191.91l-6,3-56-33.72a4.28,4.28,0,0,0-3.82.16L18.28,219.54c-.93-.54-5.18-2.65-5.18-2.65l1.75,5.55h0a1.15,1.15,0,0,0,.55.67l59,35.5a4.24,4.24,0,0,0,3.83-.16l107.22-59.5a2.05,2.05,0,0,0,.93-.92h0Z"/><path class="cls-11" d="M188,192.86l-109.88,61a4.39,4.39,0,0,1-3.92.16L13.69,217.62c-1-.58-.76-1.59.44-2.26l109.89-61a4.36,4.36,0,0,1,3.92-.16l60.48,36.39C189.38,191.19,189.19,192.2,188,192.86Z"/><path class="cls-11" d="M30.36,214.21l91.32-50.68a1.9,1.9,0,0,1,1.89,0l30,18.09a.67.67,0,0,1-.08,1.16L62.21,233.44a1.93,1.93,0,0,1-1.89,0l-30-18.06A.68.68,0,0,1,30.36,214.21Z"/><path class="cls-3" d="M30.28,215.38l.3.18,91-50.5a1.9,1.9,0,0,1,1.89,0L153.15,183l.33-.19a.67.67,0,0,0,.08-1.16l-30-18.09a1.9,1.9,0,0,0-1.89,0L30.36,214.21A.68.68,0,0,0,30.28,215.38Z"/><polygon class="cls-26" points="125.61 168.11 46.29 212.13 43.03 210.18 122.36 166.16 125.61 168.11"/><polygon class="cls-26" points="133.59 172.91 59.19 214.2 55.93 212.24 130.33 170.96 133.59 172.91"/><polygon class="cls-26" points="138.78 176.04 51.18 224.65 47.93 222.69 135.53 174.08 138.78 176.04"/><polygon class="cls-26" points="143.97 179.16 56.38 227.78 53.12 225.82 140.72 177.21 143.97 179.16"/><polygon class="cls-26" points="149.17 182.29 61.57 230.9 58.32 228.94 145.92 180.33 149.17 182.29"/><polygon class="cls-26" points="41.49 214.79 37.97 216.75 34.72 214.79 38.24 212.84 41.49 214.79"/><polygon class="cls-26" points="53.26 217.49 45.94 221.55 42.69 219.59 50.01 215.53 53.26 217.49"/><path class="cls-26" d="M120.66,226.47l24.62-13.66c1-.54,1-1.4.14-1.94l-15.53-9.34a3.73,3.73,0,0,0-3.35,0l-24.63,13.66c-1,.54-1,1.4-.13,1.94l15.53,9.34A3.67,3.67,0,0,0,120.66,226.47Z"/><path class="cls-5" d="M124.42,153.85l-111,61.61c-.86.48-1.55.2-1.63-.65L3.89,135a3.29,3.29,0,0,1,1.58-2.71l111-61.61c.85-.47,1.54-.2,1.63.66L126,151.14A3.25,3.25,0,0,1,124.42,153.85Z"/><polygon class="cls-11" points="114.74 75.74 7.72 135.13 15.22 210.32 122.16 150.98 114.74 75.74"/><polygon class="cls-3" points="43.2 181.66 51.86 176.84 52 178.29 43.34 183.1 43.2 181.66"/><polygon class="cls-7" points="53.25 176.08 57.97 173.46 58.11 174.9 53.39 177.52 53.25 176.08"/><polygon class="cls-3" points="65.31 169.38 68.72 167.49 68.86 168.93 65.45 170.83 65.31 169.38"/><polygon class="cls-3" points="62.82 170.77 63.99 170.12 64.13 171.56 62.96 172.21 62.82 170.77"/><polygon class="cls-3" points="59.38 172.68 61.5 171.5 61.64 172.95 59.52 174.12 59.38 172.68"/><polygon class="cls-3" points="50.56 170.6 53.97 168.71 54.12 170.15 50.7 172.05 50.56 170.6"/><polygon class="cls-7" points="42.55 175.05 49.24 171.34 49.38 172.78 42.69 176.5 42.55 175.05"/><polygon class="cls-3" points="53.4 151.63 60.09 147.92 60.23 149.36 53.54 153.08 53.4 151.63"/><polygon class="cls-3" points="49.96 153.54 52.08 152.37 52.22 153.81 50.1 154.99 49.96 153.54"/><polygon class="cls-7" points="54.01 158.24 60.7 154.53 60.84 155.97 54.16 159.69 54.01 158.24"/><polygon class="cls-3" points="50.57 160.16 52.69 158.98 52.83 160.42 50.71 161.6 50.57 160.16"/><polygon class="cls-3" points="50.65 123.1 38.05 130.1 37.91 128.66 50.51 121.66 50.65 123.1"/><polygon class="cls-7" points="55.09 120.64 51.97 122.37 51.83 120.92 54.95 119.19 55.09 120.64"/><polygon class="cls-7" points="76.47 119.23 63.87 126.23 63.73 124.79 76.33 117.79 76.47 119.23"/><polygon class="cls-3" points="80.91 116.77 77.79 118.5 77.65 117.05 80.77 115.32 80.91 116.77"/><polygon class="cls-3" points="41.79 131.51 38.38 133.4 38.24 131.96 41.65 130.06 41.79 131.51"/><polygon class="cls-3" points="62.05 127.22 58.64 129.12 58.5 127.68 61.91 125.78 62.05 127.22"/><polygon class="cls-7" points="49.8 127.06 43.12 130.77 42.97 129.33 49.66 125.61 49.8 127.06"/><polygon class="cls-3" points="53.24 125.14 51.13 126.32 50.98 124.88 53.1 123.7 53.24 125.14"/><polygon class="cls-3" points="61.32 120.67 54.63 124.38 54.48 122.94 61.17 119.22 61.32 120.67"/><polygon class="cls-3" points="64.76 118.76 62.64 119.93 62.5 118.49 64.61 117.31 64.76 118.76"/><polygon class="cls-3" points="61.73 123.92 58.31 125.82 58.17 124.37 61.58 122.48 61.73 123.92"/><polygon class="cls-7" points="69.74 119.47 63.05 123.19 62.91 121.74 69.59 118.03 69.74 119.47"/><polygon class="cls-3" points="73.18 117.56 71.06 118.74 70.92 117.29 73.03 116.12 73.18 117.56"/><polygon class="cls-7" points="45.69 132.82 38.71 136.7 38.56 135.26 45.55 131.38 45.69 132.82"/><polygon class="cls-3" points="52.06 129.28 47.01 132.09 46.87 130.64 51.92 127.84 52.06 129.28"/><polygon class="cls-3" points="56.8 126.65 53.39 128.55 53.24 127.1 56.66 125.21 56.8 126.65"/><polygon class="cls-3" points="89.65 111.93 82.66 115.81 82.52 114.36 89.5 110.48 89.65 111.93"/><polygon class="cls-7" points="96.02 108.39 90.97 111.19 90.83 109.75 95.88 106.94 96.02 108.39"/><polygon class="cls-3" points="100.76 105.75 97.34 107.65 97.2 106.21 100.61 104.31 100.76 105.75"/><polygon class="cls-3" points="83.98 155.54 90.96 151.66 91.1 153.11 84.12 156.99 83.98 155.54"/><polygon class="cls-3" points="77.6 159.08 82.65 156.28 82.8 157.72 77.75 160.53 77.6 159.08"/><polygon class="cls-3" points="72.87 161.71 76.28 159.82 76.42 161.26 73.01 163.16 72.87 161.71"/><polygon class="cls-3" points="81.4 160.47 88.39 156.59 88.53 158.03 81.55 161.91 81.4 160.47"/><polygon class="cls-7" points="75.03 164.01 80.08 161.2 80.22 162.65 75.17 165.45 75.03 164.01"/><polygon class="cls-3" points="70.29 166.64 73.71 164.74 73.85 166.19 70.44 168.08 70.29 166.64"/><polygon class="cls-3" points="54.73 154.36 57.09 153.05 57.23 154.5 54.87 155.81 54.73 154.36"/><polygon class="cls-3" points="50.29 156.83 53.4 155.1 53.55 156.54 50.43 158.27 50.29 156.83"/><polygon class="cls-3" points="46.06 136.1 39.08 139.99 38.94 138.54 45.92 134.66 46.06 136.1"/><polygon class="cls-7" points="52.44 132.56 47.38 135.37 47.24 133.93 52.29 131.12 52.44 132.56"/><polygon class="cls-3" points="57.17 129.93 53.76 131.83 53.62 130.38 57.03 128.49 57.17 129.93"/><polygon class="cls-3" points="41.76 141.97 39.4 143.29 39.26 141.84 41.62 140.53 41.76 141.97"/><polygon class="cls-3" points="46.2 139.51 43.09 141.24 42.94 139.79 46.06 138.06 46.2 139.51"/><polygon class="cls-3" points="52.55 135.98 47.53 138.77 47.38 137.33 52.41 134.54 52.55 135.98"/><polygon class="cls-3" points="57.17 163.46 59.53 162.15 59.68 163.6 57.32 164.91 57.17 163.46"/><polygon class="cls-3" points="52.73 165.93 55.85 164.2 55.99 165.64 52.88 167.38 52.73 165.93"/><polygon class="cls-7" points="46.39 169.46 51.41 166.66 51.55 168.11 46.53 170.9 46.39 169.46"/><polygon class="cls-3" points="61 158.1 66.02 155.31 66.17 156.76 61.15 159.55 61 158.1"/><polygon class="cls-3" points="52.8 162.41 59.58 158.65 59.72 160.09 52.95 163.85 52.8 162.41"/><polygon class="cls-3" points="49.36 164.32 51.48 163.14 51.63 164.59 49.51 165.77 49.36 164.32"/><polygon class="cls-7" points="46.06 166.16 48.18 164.98 48.32 166.42 46.2 167.6 46.06 166.16"/><polygon class="cls-7" points="47.8 147.5 54.49 143.79 54.63 145.23 47.95 148.95 47.8 147.5"/><polygon class="cls-3" points="44.36 149.41 46.48 148.24 46.62 149.68 44.5 150.86 44.36 149.41"/><polygon class="cls-3" points="48.52 143.62 50.87 142.31 51.02 143.76 48.66 145.07 48.52 143.62"/><polygon class="cls-3" points="56.34 146.27 58.69 144.96 58.84 146.4 56.48 147.71 56.34 146.27"/><polygon class="cls-3" points="59.7 144.4 65.36 141.26 65.5 142.7 59.84 145.84 59.7 144.4"/><polygon class="cls-3" points="66.36 140.7 69.73 138.83 69.87 140.28 66.5 142.15 66.36 140.7"/><polygon class="cls-3" points="44.08 146.09 47.19 144.36 47.34 145.8 44.22 147.53 44.08 146.09"/><polygon class="cls-3" points="44.03 142.7 46.39 141.39 46.53 142.83 44.17 144.14 44.03 142.7"/><polygon class="cls-3" points="39.59 145.16 42.71 143.43 42.85 144.88 39.73 146.61 39.59 145.16"/><polygon class="cls-7" points="52.91 148.16 55.03 146.99 55.17 148.43 53.05 149.61 52.91 148.16"/><polygon class="cls-3" points="49.61 150 51.73 148.82 51.87 150.27 49.75 151.44 49.61 150"/><polygon class="cls-7" points="64.09 166.59 71.31 162.58 71.46 164.02 64.23 168.03 64.09 166.59"/><polygon class="cls-3" points="56 171.09 62.77 167.32 62.91 168.77 56.14 172.53 56 171.09"/><polygon class="cls-3" points="52.55 173 54.67 171.82 54.82 173.26 52.7 174.44 52.55 173"/><polygon class="cls-3" points="49.25 174.83 51.37 173.65 51.51 175.1 49.4 176.28 49.25 174.83"/><polygon class="cls-3" points="47.45 175.83 42.88 178.37 43.02 179.82 47.59 177.28 47.45 175.83"/></g><path class="cls-29" d="M90.09,203.8c-9.36,0-17-3.89-17-8.68s7.62-8.67,17-8.67,17,3.89,17,8.67S99.46,203.8,90.09,203.8Zm0-16.62c-9,0-16.25,3.57-16.25,7.94s7.29,7.95,16.25,7.95,16.26-3.57,16.26-7.95S99.06,187.18,90.09,187.18Z"/><ellipse class="cls-30" cx="89.54" cy="195.12" rx="9.97" ry="4.99"/><path class="cls-3" d="M239.7,246.67l-.1,0a.35.35,0,0,1-.25-.45c7.59-26.36,3.57-51.65-11.34-71.19C213.35,155.79,189.64,144,166,144H165c-29.77.38-64.55,16.56-75.14,51.82a.36.36,0,0,1-.45.25.36.36,0,0,1-.25-.46c4.08-13.6,12.93-26.2,24.91-35.48C128,149.31,145.63,143.47,165,143.22c24.22-.3,48.58,11.7,63.57,31.34s19.12,45.25,11.46,71.84A.37.37,0,0,1,239.7,246.67Z"/><path class="cls-3" d="M288.77,297.34a.37.37,0,0,1-.36-.33,350.26,350.26,0,0,1,0-61.38c2.71-31.45,11.12-75.47,35.76-106.59,14.19-17.92,28-26.13,40.89-24.38,19.63,2.65,30.5,27.71,30.6,28a.36.36,0,1,1-.67.28c-.11-.25-10.81-24.94-30-27.52-12.67-1.7-26.2,6.4-40.22,24.1-24.52,31-32.89,74.85-35.6,106.19a349.94,349.94,0,0,0,0,61.25.38.38,0,0,1-.33.41Z"/><polygon id="Path" class="cls-30" points="457.61 413.32 433.24 398.93 457.61 384.52 481.99 398.93 457.61 413.32"/><path class="cls-3" d="M458.16,438.06c-17.07,0-33.12-3.79-45.17-10.69s-18.89-16.3-18.89-26.23,6.71-19.26,18.89-26.23c24.91-14.26,65.45-14.26,90.36,0,12.18,7,18.89,16.28,18.89,26.23s-6.71,19.25-18.89,26.23S475.25,438.06,458.16,438.06Zm0-73.12c-16.23,0-32.46,3.53-44.81,10.61-11.95,6.83-18.53,15.92-18.53,25.59s6.58,18.75,18.53,25.6,27.85,10.59,44.8,10.59S491,433.57,503,426.74s18.52-15.94,18.52-25.6-6.58-18.76-18.52-25.59C490.63,368.47,474.4,364.94,458.17,364.94Z"/><path class="cls-31" d="M458.16,448c-21.52,0-41.73-4.84-56.91-13.63s-23.77-20.66-23.77-33.27,8.44-24.43,23.77-33.28c31.38-18.15,82.45-18.16,113.85,0,15.32,8.85,23.76,20.67,23.76,33.28s-8.32,24.26-23.44,33.08h0l-.23.13-.08.05h0l-.12.07-.19.11C499.64,443.26,479.55,448,458.16,448Zm0-93.07c-20.49,0-41,4.51-56.56,13.53-15.08,8.71-23.39,20.3-23.39,32.64s8.31,23.92,23.39,32.64,35.16,13.52,56.55,13.52,41.5-4.8,56.57-13.52l.06.1-.06-.1c15.09-8.72,23.4-20.31,23.4-32.64s-8.31-23.93-23.4-32.64C499.13,359.48,478.65,355,458.17,355Z"/><path class="cls-3" d="M457.63,430.31c-13.38,0-25.95-3-35.39-8.43S407.4,409,407.4,401.14s5.27-15.23,14.84-20.74c19.51-11.24,51.25-11.24,70.76,0,9.57,5.51,14.84,12.88,14.84,20.74s-5.27,15.22-14.84,20.74S471,430.31,457.63,430.31Zm0-57.62c-12.68,0-25.36,2.78-35,8.34-9.33,5.38-14.47,12.52-14.47,20.11s5.14,14.72,14.47,20.1,21.77,8.34,35,8.34,25.67-3,35-8.34,14.48-12.52,14.48-20.1S502,386.41,492.63,381C483,375.48,470.3,372.69,457.62,372.69Z"/><polygon id="Path-2" data-name="Path" class="cls-32" points="454.86 373.99 452.01 345.74 428.81 362.31 431.65 390.56 457.68 402.25 480.88 385.68 454.86 373.99"/><path class="cls-3" d="M457.69,402.36l-26.13-11.73v-.06l-2.85-28.31.05,0,23.34-16.66v.16l2.84,28.2,26.13,11.73-.14.1Zm-25.95-11.87,25.93,11.64,23-16.43-25.93-11.64V374l-2.83-28.08-23,16.43Z"/><polygon id="Path-3" data-name="Path" class="cls-5" points="431.65 390.56 428.81 362.31 452.07 345.74 454.86 373.99 431.65 390.56"/><path class="cls-3" d="M431.65,390.93a.28.28,0,0,1-.15,0,.34.34,0,0,1-.21-.29l-2.84-28.26a.34.34,0,0,1,.15-.33l23.26-16.57a.38.38,0,0,1,.36,0,.35.35,0,0,1,.21.3L455.22,374a.35.35,0,0,1-.15.33l-23.2,16.57A.44.44,0,0,1,431.65,390.93Zm-2.45-28.45L432,389.89l22.51-16.07-2.7-27.41Z"/><polygon id="Path-4" data-name="Path" class="cls-5" points="457.68 402.25 431.65 390.56 454.98 373.92 480.88 385.68 457.68 402.25"/><path class="cls-3" d="M457.68,402.73a.45.45,0,0,1-.2,0l-26-11.68a.5.5,0,0,1-.08-.85l23.33-16.64a.46.46,0,0,1,.48,0l25.91,11.75a.53.53,0,0,1,.28.4.49.49,0,0,1-.2.45L458,402.64A.47.47,0,0,1,457.68,402.73Zm-25.05-12.27,25,11.22,22.29-15.91L455,374.48Z"/><polygon id="Path-5" data-name="Path" class="cls-5" points="454.91 373.96 452.08 345.74 478.06 357.41 480.88 385.63 454.91 373.96"/><path class="cls-3" d="M480.88,386a.4.4,0,0,1-.15,0l-26-11.67a.35.35,0,0,1-.21-.3l-2.84-28.21a.4.4,0,0,1,.15-.34.38.38,0,0,1,.37,0l26,11.67a.37.37,0,0,1,.21.3l2.82,28.21a.4.4,0,0,1-.15.34A.43.43,0,0,1,480.88,386Zm-25.62-12.28L480.46,385l-2.74-27.37-25.21-11.32Z"/><path id="Path-6" data-name="Path" class="cls-33" d="M497.5,415.54a3.33,3.33,0,1,0,3.33-3.32A3.32,3.32,0,0,0,497.5,415.54Z"/><circle id="Oval" class="cls-3" cx="500.83" cy="415.54" r="1.66"/><circle id="Oval-2" data-name="Oval" class="cls-34" cx="437.12" cy="427.17" r="4.99"/><path id="Path-7" data-name="Path" class="cls-7" d="M434.91,427.36a2.22,2.22,0,0,0,4.42,0,2.22,2.22,0,1,0-4.42,0Z"/><path id="Path-8" data-name="Path" class="cls-33" d="M416.63,382.3A3.32,3.32,0,1,0,420,379a3.32,3.32,0,0,0-3.32,3.32Z"/><path id="Path-9" data-name="Path" class="cls-3" d="M418.29,382.3a1.66,1.66,0,1,0,1.66-1.66A1.66,1.66,0,0,0,418.29,382.3Z"/><path class="cls-3" d="M383.85,428.14h-1.3c-35.78-.64-71.15-26.49-105.12-76.84a.37.37,0,0,1,.09-.51.36.36,0,0,1,.51.1c33.84,50.14,69,75.89,104.53,76.51h1.29c43.46,0,72.08-38.64,72.36-39a.37.37,0,0,1,.6.43C456.52,389.2,427.68,428.14,383.85,428.14Z"/><ellipse class="cls-6" cx="277.19" cy="349.56" rx="9.99" ry="8.86" transform="translate(-35.15 31.02) rotate(-6.02)"/><ellipse class="cls-7" cx="277.19" cy="349.56" rx="5.76" ry="5.11" transform="translate(-35.15 31.02) rotate(-6.02)"/><path class="cls-29" d="M457.48,396.21a11.3,11.3,0,0,1-4.59-1,10.69,10.69,0,0,1-5.16-4.7,6.55,6.55,0,0,1,4.39-9.78,11.19,11.19,0,0,1,12.1,5.43,6.53,6.53,0,0,1-4.39,9.77A9.12,9.12,0,0,1,457.48,396.21Zm-3-15a8.72,8.72,0,0,0-2.17.27,5.81,5.81,0,0,0-3.92,8.72,10.44,10.44,0,0,0,11.27,5,5.8,5.8,0,0,0,3.91-8.72,9.88,9.88,0,0,0-4.8-4.37A10.5,10.5,0,0,0,454.47,381.17Z"/><ellipse class="cls-30" cx="455.88" cy="388.54" rx="4.3" ry="5.43" transform="translate(-85.14 645.62) rotate(-65.86)"/><path class="cls-3" d="M99.32,339.65a.36.36,0,0,1-.35-.27c0-.13-3.61-12.79,5.25-23.84,10.45-13,33-18.45,67-16.15a.37.37,0,0,1,.34.39.36.36,0,0,1-.39.34c-33.73-2.27-56.06,3.07-66.35,15.87-8.63,10.74-5.16,23.06-5.13,23.19a.36.36,0,0,1-.25.45Z"/><circle class="cls-6" cx="288.68" cy="295.82" r="9.99"/><circle class="cls-7" cx="288.68" cy="295.82" r="5.76"/><polygon class="cls-3" points="142.72 159.45 142.71 158.47 142.72 158.47 142.72 159.45"/><path class="cls-2" d="M493.91,215.25c0-10.92-7.67-24.2-17.13-29.66a16.22,16.22,0,0,0-6.89-2.31c0-.18,0-.35,0-.53,0-8.54-6-18.92-13.39-23.19a12.39,12.39,0,0,0-5.71-1.81c-5.22-13.63-15.1-26.5-26.43-33-7.42-4.28-14.21-5.13-19.48-3.08L401,123.86a18.07,18.07,0,0,0-5.72,8.91,36.89,36.89,0,0,0-9.06-7.64c-5-2.89-9.6-3.48-13.17-2.13l-2.81,1.63-19.58,18.16,56.59,54.29,63.24,46.56,19.67-18.24h0C492.51,223.36,493.91,219.9,493.91,215.25Z"/><path class="cls-11" d="M457.2,203.75a16.26,16.26,0,0,0-6.9-2.31c0-.18,0-.35,0-.53,0-8.54-6-18.92-13.39-23.19a12.39,12.39,0,0,0-5.71-1.81c-5.22-13.63-15.1-26.5-26.43-33-7.42-4.28-14.21-5.13-19.48-3.08L381.45,142a18.15,18.15,0,0,0-5.73,8.91,36.66,36.66,0,0,0-9.05-7.64c-5-2.89-9.6-3.48-13.17-2.13l-2.81,1.63c-2.93,2.43-4.7,6.68-4.7,12.44,0,1,.06,1.91.15,2.89,1.21,12.56,9.93,26.8,20.53,32.91l79.05,45.65,11.48,6.62c9.46,5.46,17.12,1,17.12-9.89S466.66,209.21,457.2,203.75Z"/><path class="cls-3" d="M464.85,246a16,16,0,0,1-7.84-2.39l-90.53-52.27c-10.57-6.1-19.48-20.38-20.7-33.19-.1-1-.15-2-.15-2.93,0-5.63,1.71-10.15,4.83-12.72l2.85-1.67c3.86-1.46,8.64-.69,13.54,2.13a36.37,36.37,0,0,1,8.72,7.24,18.14,18.14,0,0,1,5.65-8.48l3.91-2.26c5.61-2.19,12.64-1.09,19.85,3.08,10.92,6.3,21.06,18.93,26.51,33a12.76,12.76,0,0,1,5.63,1.84c7.48,4.32,13.57,14.87,13.57,23.51v.2a16.86,16.86,0,0,1,6.69,2.32h0c9.55,5.51,17.31,19,17.31,30,0,5.42-1.85,9.47-5.2,11.41A9.14,9.14,0,0,1,464.85,246ZM357.41,140.84a10.65,10.65,0,0,0-3.78.66l-2.76,1.61c-2.89,2.4-4.51,6.71-4.51,12.12,0,.89.05,1.85.15,2.86,1.2,12.6,9.95,26.63,20.34,32.63L457.38,243c4.46,2.58,8.63,3,11.75,1.2s4.83-5.62,4.83-10.77c0-10.78-7.6-23.95-16.95-29.34h0a15.61,15.61,0,0,0-6.73-2.26.37.37,0,0,1-.34-.38v-.23c0-.09,0-.19,0-.29,0-8.41-5.92-18.67-13.21-22.88a11.94,11.94,0,0,0-5.53-1.75.37.37,0,0,1-.33-.24c-5.37-14-15.44-26.6-26.28-32.86-7-4.05-13.81-5.13-19.16-3.06l-3.82,2.21a17.8,17.8,0,0,0-5.56,8.71.36.36,0,0,1-.27.25.38.38,0,0,1-.35-.12,36.14,36.14,0,0,0-9-7.56A18.51,18.51,0,0,0,357.41,140.84Z"/><rect class="cls-1" x="1.19" y="0.7" width="540" height="540"/></svg>