<svg width="40" height="40" viewBox="0 0 40 40" fill="none" xmlns="http://www.w3.org/2000/svg">
  <path d="M14.7049 24.9315L9.77344 20L14.7049 15.1598L16.2575 16.7123L12.9698 20L16.2575 23.379L14.7049 24.9315Z" fill="#EC432D"/>
  <path d="M25.3899 24.9315L23.7461 23.379L27.0338 20L23.7461 16.7123L25.3899 15.1598L30.3214 20L25.3899 24.9315Z" fill="#EC432D"/>
  <path d="M21.4947 12.3349L16.1758 27.0175L18.3224 27.7951L23.6413 13.1126L21.4947 12.3349Z" fill="#EC432D"/>
  <path d="M39.6347 23.8356C39.9087 22.5571 40 21.2785 40 20C40 18.7215 39.9087 17.3516 39.6347 16.1644L36.0731 15.7078C35.7078 14.3379 35.1598 12.968 34.4292 11.7808L36.7123 8.85845C35.2511 6.75799 33.4247 4.84018 31.3242 3.379L28.4018 5.6621C27.2146 4.93151 25.8447 4.38356 24.4749 4.01827L24.0183 0.365297C24.0183 0.365297 24.0183 0.365297 24.0183 0.273973C22.7397 0.182648 21.3699 0 20 0C18.7215 0 17.5342 0.0913242 16.347 0.365297V0.456621L15.8904 4.10959C14.5205 4.47489 13.1507 5.02283 11.9635 5.75343L9.0411 3.47032C9.0411 3.47032 8.94977 3.379 8.85845 3.379C6.75799 4.74886 4.93151 6.57534 3.47032 8.6758C3.47032 8.76712 3.56164 8.85845 3.56164 8.85845L5.84475 11.7808C5.11416 12.968 4.56621 14.3379 4.20091 15.7078L0.547945 16.1644C0.456621 16.1644 0.365297 16.1644 0.273973 16.2557C0.0913242 17.4429 0 18.7215 0 20C0 21.2785 0.0913242 22.5571 0.365297 23.7443C0.456621 23.7443 0.547945 23.8356 0.639269 23.8356L4.29224 24.2922C4.65753 25.6621 5.20548 27.032 5.93607 28.2192L3.65297 31.1416C3.56164 31.2329 3.56164 31.2329 3.56164 31.3242C5.02283 33.4247 6.84932 35.2511 8.94977 36.621C9.0411 36.621 9.0411 36.5297 9.13242 36.5297L12.0548 34.2466C13.242 34.9772 14.6119 35.5251 15.9817 35.8904L16.4384 39.5434V39.6347C17.6256 39.8174 18.8128 40 20.0913 40C21.4612 40 22.7397 39.8174 24.0183 39.6347C24.0183 39.6347 24.0183 39.6347 24.0183 39.5434L24.4749 35.8904C25.8447 35.5251 27.2146 34.9772 28.4018 34.2466L31.3242 36.5297C33.4247 35.0685 35.2511 33.242 36.7123 31.0502L34.4292 28.2192C35.1598 27.032 35.7078 25.6621 36.0731 24.2922L39.6347 23.8356ZM20 32.3288C13.242 32.3288 7.76256 26.8493 7.76256 20.0913C7.76256 13.3333 13.242 7.85388 20 7.85388C26.758 7.85388 32.2374 13.3333 32.2374 20.0913C32.3288 26.8493 26.758 32.3288 20 32.3288Z" fill="#EC432D"/>
</svg>
