<?xml version="1.0" encoding="UTF-8"?>
<svg width="40px" height="40px" viewBox="0 0 40 40" version="1.1" xmlns="http://www.w3.org/2000/svg" xmlns:xlink="http://www.w3.org/1999/xlink">
    <g id="Page-1" stroke="none" stroke-width="1" fill="none" fill-rule="evenodd">
        <g id="Desktop-HD-Copy-3" transform="translate(-479.000000, -2739.000000)" fill-rule="nonzero">
            <g id="Group-30" transform="translate(165.000000, 2623.000000)">
                <g id="Group-24" transform="translate(0.000000, 68.000000)">
                    <g id="Group-21" transform="translate(314.000000, 48.000000)">
                        <g id="slack">
                            <path d="M8.41269841,25.2063492 C8.41269841,27.5238095 6.53968255,29.3968255 4.22222222,29.3968255 C1.90476191,29.3968255 0.0317460317,27.5238095 0.0317460317,25.2063492 C0.0317460317,22.8888889 1.90476191,21.015873 4.22222222,21.015873 L8.41269841,21.015873 L8.41269841,25.2063492 Z M10.5079365,25.2063492 C10.5079365,22.8888889 12.3809524,21.015873 14.6984127,21.015873 C17.015873,21.015873 18.8888889,22.8888889 18.8888889,25.2063492 L18.8888889,35.6825397 C18.8888889,38 17.015873,39.8730159 14.6984127,39.8730159 C12.3809524,39.8730159 10.5079365,38 10.5079365,35.6825397 L10.5079365,25.2063492 Z" id="Shape" fill="#E01E5A"></path>
                            <path d="M14.6984127,8.38095237 C12.3809524,8.38095237 10.5079365,6.50793652 10.5079365,4.19047619 C10.5079365,1.87301587 12.3809524,-7.10542736e-15 14.6984127,-7.10542736e-15 C17.015873,-7.10542736e-15 18.8888889,1.87301587 18.8888889,4.19047619 L18.8888889,8.38095237 L14.6984127,8.38095237 Z M14.6984127,10.5079365 C17.015873,10.5079365 18.8888889,12.3809524 18.8888889,14.6984127 C18.8888889,17.015873 17.015873,18.8888889 14.6984127,18.8888889 L4.19047619,18.8888889 C1.87301587,18.8888889 0,17.015873 0,14.6984127 C0,12.3809524 1.87301587,10.5079365 4.19047619,10.5079365 L14.6984127,10.5079365 Z" id="Shape" fill="#36C5F0"></path>
                            <path d="M31.4920634,14.6984127 C31.4920634,12.3809524 33.3650794,10.5079365 35.6825397,10.5079365 C38,10.5079365 39.8730159,12.3809524 39.8730159,14.6984127 C39.8730159,17.015873 38,18.8888889 35.6825397,18.8888889 L31.4920634,18.8888889 L31.4920634,14.6984127 Z M29.3968255,14.6984127 C29.3968255,17.015873 27.5238095,18.8888889 25.2063492,18.8888889 C22.8888889,18.8888889 21.015873,17.015873 21.015873,14.6984127 L21.015873,4.19047619 C21.015873,1.87301587 22.8888889,-1.42108547e-14 25.2063492,-1.42108547e-14 C27.5238095,-1.42108547e-14 29.3968255,1.87301587 29.3968255,4.19047619 L29.3968255,14.6984127 Z" id="Shape" fill="#2EB67D"></path>
                            <path d="M25.2063492,31.4920634 C27.5238095,31.4920634 29.3968255,33.3650794 29.3968255,35.6825397 C29.3968255,38 27.5238095,39.8730159 25.2063492,39.8730159 C22.8888889,39.8730159 21.015873,38 21.015873,35.6825397 L21.015873,31.4920634 L25.2063492,31.4920634 Z M25.2063492,29.3968255 C22.8888889,29.3968255 21.015873,27.5238095 21.015873,25.2063492 C21.015873,22.8888889 22.8888889,21.015873 25.2063492,21.015873 L35.7142858,21.015873 C38.0317461,21.015873 39.9047619,22.8888889 39.9047619,25.2063492 C39.9047619,27.5238095 38.0317461,29.3968255 35.7142858,29.3968255 L25.2063492,29.3968255 Z" id="Shape" fill="#ECB22E"></path>
                        </g>
                    </g>
                </g>
            </g>
        </g>
    </g>
</svg>
