<svg width="175" height="50" viewBox="0 0 175 50" fill="none" xmlns="http://www.w3.org/2000/svg">
<path d="M93.5904 27.2027C94.8542 25.9758 96.5568 25.2922 98.3121 25.3097C99.8216 25.2747 101.296 25.7655 102.49 26.712L102.718 26.9048L104.649 24.6086L104.42 24.4334C103.578 23.7498 102.63 23.2239 101.612 22.8734C100.559 22.5053 99.4354 22.3125 98.3121 22.3125C97.0132 22.3125 95.7143 22.5579 94.5207 23.0662C93.3798 23.557 92.3266 24.2405 91.4314 25.1169C89.6235 26.9048 88.6055 29.3586 88.6055 31.9177C88.6055 33.1972 88.8512 34.4592 89.3602 35.6336C89.8517 36.7729 90.5538 37.7895 91.4314 38.6483C92.3266 39.5072 93.3622 40.2083 94.5031 40.6816C95.6967 41.1899 96.9956 41.4528 98.2945 41.4353C99.4179 41.4353 100.524 41.26 101.577 40.8744C102.595 40.5238 103.525 39.9804 104.35 39.3144L104.578 39.1216L102.683 36.843L102.454 37.0183C101.296 37.9472 99.8918 38.4205 98.277 38.4205C97.3818 38.4205 96.4866 38.2627 95.6616 37.9122C94.0819 37.2637 92.8181 36.0017 92.1511 34.4242C91.8 33.6179 91.6421 32.759 91.6421 31.8826C91.6421 30.9887 91.8 30.0948 92.1511 29.271C92.5197 28.4998 92.9936 27.7987 93.5904 27.2027Z" fill="currentColor"/>
<path d="M118.549 27.3606C119.567 26.3615 120.655 25.3449 121.761 24.3283L121.989 24.1179L120.093 22.1724L119.883 22.3827C118.215 23.9602 116.618 25.45 115.073 26.8873C113.687 28.1668 112.265 29.4989 110.773 30.8836V8.41309H107.719V41.1023H110.773V34.617L113.318 32.2683L119.848 41.1023H123.446L115.512 30.2176C116.565 29.2536 117.583 28.2895 118.549 27.3606Z" fill="currentColor"/>
<path d="M139.299 25.6428C139.159 25.45 139.018 25.2572 138.843 25.0644C138.387 24.521 137.842 24.0653 137.246 23.6797C136.579 23.2415 135.859 22.9084 135.104 22.6806C134.262 22.4352 133.402 22.3125 132.524 22.3125C131.243 22.3125 129.979 22.5579 128.803 23.0662C127.662 23.557 126.626 24.2756 125.749 25.152C124.871 26.0459 124.169 27.0976 123.677 28.2369C123.168 29.4112 122.905 30.6908 122.923 31.9703C122.923 33.2323 123.168 34.4592 123.66 35.616C124.134 36.7378 124.818 37.7544 125.661 38.6133C126.521 39.4897 127.557 40.1733 128.698 40.664C129.909 41.1723 131.208 41.4353 132.524 41.4177C133.402 41.4177 134.297 41.3126 135.139 41.0672C135.894 40.8568 136.614 40.5413 137.281 40.1207C137.878 39.7526 138.404 39.3144 138.878 38.8061C139.001 38.6659 139.124 38.5081 139.247 38.3679C139.247 38.5607 139.247 38.7535 139.247 38.9463V41.0672H142.301V22.7156H139.422L139.299 25.6428ZM137.333 27.2203C137.93 27.8162 138.404 28.5348 138.738 29.3061C139.071 30.1123 139.247 30.9712 139.247 31.8476C139.264 32.7415 139.089 33.6179 138.738 34.4417C138.071 36.0192 136.807 37.2812 135.227 37.9297C133.542 38.5958 131.664 38.5958 129.996 37.9297C126.644 36.4924 125.082 32.6188 126.486 29.271C126.819 28.4998 127.293 27.7987 127.89 27.2203C129.856 25.3623 132.735 24.819 135.227 25.8356C136.017 26.1511 136.719 26.6243 137.333 27.2203Z" fill="currentColor"/>
<path d="M173.281 23.8549C172.21 22.8383 170.718 22.3125 168.857 22.3125C167.05 22.3476 165.522 22.8033 164.294 23.6972C163.293 24.4334 162.451 25.3799 161.836 26.4666C161.556 25.3974 160.959 24.4158 160.116 23.6972C159.063 22.7857 157.641 22.3125 155.904 22.3125C154.061 22.3476 152.498 22.8383 151.252 23.7673C150.304 24.4859 149.514 25.3799 148.918 26.3965C148.9 26.081 148.883 25.7304 148.865 25.3799C148.83 24.9241 148.812 24.4859 148.795 24.0653C148.777 23.6446 148.76 23.2765 148.725 22.9961L148.69 22.7332H146.039V41.1022H149.093V31.3743C149.093 30.5505 149.251 29.7267 149.567 28.9555C149.866 28.2369 150.304 27.5883 150.884 27.0625C151.463 26.5192 152.13 26.0985 152.867 25.818C153.657 25.5201 154.499 25.3623 155.342 25.3799C156.536 25.4324 157.431 25.8005 158.027 26.4315C158.624 27.08 158.975 27.9214 159.01 28.7978V41.1022H162.065V31.2516C162.082 30.4454 162.258 29.6391 162.574 28.9029C162.872 28.2018 163.311 27.5708 163.855 27.045C164.417 26.5192 165.084 26.0985 165.803 25.818C166.576 25.5201 167.401 25.3623 168.243 25.3799C169.454 25.4324 170.385 25.8005 170.964 26.4315C171.561 27.08 171.912 27.9214 171.947 28.8153V41.1198H175.001V27.9564C174.931 26.2562 174.351 24.8891 173.281 23.8549Z" fill="currentColor"/>
<path d="M70.6674 11.4629C78.1097 11.4629 84.1478 17.4925 84.1478 24.9242C84.1478 32.356 78.1097 38.3855 70.6674 38.3855C63.2251 38.3855 57.187 32.356 57.187 24.9242C57.2045 17.4925 63.2251 11.4804 70.6674 11.4629ZM70.6674 8.41309C61.54 8.41309 54.1328 15.8098 54.1328 24.9242C54.1328 34.0386 61.54 41.4353 70.6674 41.4353C79.7947 41.4353 87.2019 34.0386 87.2019 24.9242C87.2019 15.8098 79.7947 8.41309 70.6674 8.41309Z" fill="currentColor"/>
<path d="M12.9399 7.92756C13.5215 7.92756 13.993 7.45671 13.993 6.87589C13.993 6.29507 13.5215 5.82422 12.9399 5.82422C12.3582 5.82422 11.8867 6.29507 11.8867 6.87589C11.8867 7.45671 12.3582 7.92756 12.9399 7.92756Z" fill="#EC432D"/>
<path d="M12.9594 20.0047C13.5411 20.0047 14.0126 19.5339 14.0126 18.953C14.0126 18.3722 13.5411 17.9014 12.9594 17.9014C12.3778 17.9014 11.9062 18.3722 11.9062 18.953C11.9062 19.5339 12.3778 20.0047 12.9594 20.0047Z" fill="#EC432D"/>
<path d="M33.9008 44.1756C34.4825 44.1756 34.954 43.7048 34.954 43.1239C34.954 42.5431 34.4825 42.0723 33.9008 42.0723C33.3192 42.0723 32.8477 42.5431 32.8477 43.1239C32.8477 43.7048 33.3192 44.1756 33.9008 44.1756Z" fill="#EC432D"/>
<path d="M2.47895 26.0516C3.06059 26.0516 3.53211 25.5807 3.53211 24.9999C3.53211 24.4191 3.06059 23.9482 2.47895 23.9482C1.8973 23.9482 1.42578 24.4191 1.42578 24.9999C1.42578 25.5807 1.8973 26.0516 2.47895 26.0516Z" fill="#EC432D"/>
<path d="M44.3774 26.0516C44.959 26.0516 45.4305 25.5807 45.4305 24.9999C45.4305 24.4191 44.959 23.9482 44.3774 23.9482C43.7957 23.9482 43.3242 24.4191 43.3242 24.9999C43.3242 25.5807 43.7957 26.0516 44.3774 26.0516Z" fill="#EC432D"/>
<path d="M33.9008 7.92756C34.4825 7.92756 34.954 7.45671 34.954 6.87589C34.954 6.29507 34.4825 5.82422 33.9008 5.82422C33.3192 5.82422 32.8477 6.29507 32.8477 6.87589C32.8477 7.45671 33.3192 7.92756 33.9008 7.92756Z" fill="#EC432D"/>
<path d="M33.9008 32.0985C34.4825 32.0985 34.954 31.6276 34.954 31.0468C34.954 30.466 34.4825 29.9951 33.9008 29.9951C33.3192 29.9951 32.8477 30.466 32.8477 31.0468C32.8477 31.6276 33.3192 32.0985 33.9008 32.0985Z" fill="#EC432D"/>
<path d="M12.9594 32.0809C13.5411 32.0809 14.0126 31.61 14.0126 31.0292C14.0126 30.4484 13.5411 29.9775 12.9594 29.9775C12.3778 29.9775 11.9062 30.4484 11.9062 31.0292C11.9062 31.61 12.3778 32.0809 12.9594 32.0809Z" fill="#EC432D"/>
<path d="M33.9008 20.0223C34.4825 20.0223 34.954 19.5514 34.954 18.9706C34.954 18.3898 34.4825 17.9189 33.9008 17.9189C33.3192 17.9189 32.8477 18.3898 32.8477 18.9706C32.8477 19.5514 33.3192 20.0223 33.9008 20.0223Z" fill="#EC432D"/>
<path d="M23.4204 38.1287C24.002 38.1287 24.4735 37.6579 24.4735 37.0771C24.4735 36.4962 24.002 36.0254 23.4204 36.0254C22.8387 36.0254 22.3672 36.4962 22.3672 37.0771C22.3672 37.6579 22.8387 38.1287 23.4204 38.1287Z" fill="#EC432D"/>
<path d="M23.436 13.9754C24.0176 13.9754 24.4891 13.5046 24.4891 12.9237C24.4891 12.3429 24.0176 11.8721 23.436 11.8721C22.8543 11.8721 22.3828 12.3429 22.3828 12.9237C22.3828 13.5046 22.8543 13.9754 23.436 13.9754Z" fill="#EC432D"/>
<path d="M12.9399 44.1756C13.5215 44.1756 13.993 43.7048 13.993 43.1239C13.993 42.5431 13.5215 42.0723 12.9399 42.0723C12.3582 42.0723 11.8867 42.5431 11.8867 43.1239C11.8867 43.7048 12.3582 44.1756 12.9399 44.1756Z" fill="#EC432D"/>
<path d="M14.7148 5.82449C18.6116 1.02185 25.6502 0.268153 30.4772 4.15934C31.0916 4.65012 31.6532 5.21101 32.1447 5.82449C32.3203 5.52652 32.566 5.2636 32.8819 5.08832C33.0926 4.96562 33.3032 4.89551 33.5489 4.86046C29.1081 -0.713409 20.9812 -1.62486 15.417 2.8097C14.6622 3.42317 13.9601 4.10676 13.3633 4.86046C13.9074 4.98315 14.4164 5.33371 14.7148 5.82449Z" fill="#52C7EA"/>
<path d="M25.1933 11.8715C26.9135 9.73306 29.3709 8.31331 32.0916 7.87511C31.8107 7.3668 31.7581 6.75333 31.9687 6.20996C28.7565 6.68321 25.8428 8.36589 23.8242 10.925C24.4035 11.0126 24.8949 11.3632 25.1933 11.8715Z" fill="#52C7EA"/>
<path d="M18.5765 9.22476C19.7701 9.90834 20.8057 10.8198 21.6658 11.889C21.8413 11.591 22.087 11.3281 22.403 11.1528C22.5961 11.0477 22.8067 10.96 23.0349 10.925C21.0339 8.36589 18.1026 6.66569 14.8904 6.20996C14.9782 6.4203 15.0133 6.66569 15.0133 6.89355C15.0133 7.24411 14.9255 7.57714 14.75 7.87511C16.1016 8.08544 17.4005 8.54117 18.5765 9.22476Z" fill="#52C7EA"/>
<path d="M33.918 16.9194C34.5148 16.9194 35.0764 17.1823 35.4626 17.638C36.6737 14.6057 36.6737 11.2403 35.4802 8.20801C35.3222 8.38329 35.1467 8.54104 34.936 8.66373C34.6376 8.83901 34.3041 8.92665 33.9531 8.92665C34.9536 11.5032 34.936 14.3428 33.918 16.9194Z" fill="#52C7EA"/>
<path d="M32.1443 17.9008C32.4427 17.3925 32.9518 17.0594 33.531 16.9543C31.5124 14.4127 28.5987 12.73 25.3865 12.2393C25.5796 12.8002 25.5269 13.4136 25.2461 13.9219C27.9492 14.3601 30.4066 15.7799 32.1443 17.9008Z" fill="#52C7EA"/>
<path d="M36.8109 8.10287C42.8139 9.69791 46.3596 15.8502 44.7623 21.8272C44.657 22.2128 44.5341 22.5809 44.3937 22.949C44.7447 22.949 45.0958 23.0366 45.3942 23.2119C45.6048 23.3346 45.7803 23.4923 45.9383 23.6676C46.1138 23.2119 46.2718 22.7562 46.3947 22.3005C48.2377 15.412 44.1479 8.33073 37.2497 6.47278C36.7758 6.35008 36.3194 6.24492 35.8279 6.1748C36.021 6.7357 35.9683 7.34917 35.6875 7.85748C36.0737 7.92759 36.4423 7.9977 36.8109 8.10287Z" fill="#52C7EA"/>
<path d="M40.3741 19.847C38.9699 19.0408 37.4252 18.4974 35.8279 18.2695C36.021 18.8304 35.9859 19.4439 35.6875 19.9522C38.4082 20.3729 40.8656 21.7751 42.6033 23.9135C42.9017 23.4227 43.4107 23.0722 43.99 22.967C42.9894 21.7225 41.7608 20.6533 40.3741 19.847Z" fill="#52C7EA"/>
<path d="M35.9527 31.0473C35.9527 31.2752 35.9176 31.503 35.8298 31.7309C39.0596 31.2752 41.9733 29.575 43.9919 27.0334C43.4126 26.9458 42.9036 26.5952 42.6052 26.0869C40.8675 28.2253 38.3926 29.6451 35.6719 30.0657C35.865 30.3462 35.9527 30.6967 35.9527 31.0473Z" fill="#52C7EA"/>
<path d="M33.9336 28.9966C34.5304 29.0141 35.0745 29.277 35.4607 29.7327C36.6543 26.7004 36.6543 23.3351 35.4607 20.3027C35.0745 20.7409 34.5304 21.0038 33.9511 21.0214C34.9341 23.5804 34.9165 26.42 33.9336 28.9966Z" fill="#52C7EA"/>
<path d="M33.9531 41.0727C34.5499 41.0903 35.0941 41.3532 35.4802 41.8089C36.6914 38.7766 36.6738 35.4112 35.4802 32.3789C35.0941 32.8346 34.5499 33.0976 33.9531 33.1151C34.9361 35.6566 34.9361 38.4961 33.9531 41.0727Z" fill="#52C7EA"/>
<path d="M46.3967 27.6992C46.2738 27.226 46.1158 26.7702 45.9403 26.332C45.5541 26.7878 44.9924 27.0507 44.4132 27.0507C44.5536 27.4012 44.6765 27.7693 44.7818 28.1374C46.3967 34.1319 42.8334 40.3018 36.8304 41.9143C36.4618 42.002 36.0932 42.0896 35.707 42.1422C36.0054 42.6505 36.0581 43.2815 35.8475 43.8249C36.3214 43.7547 36.7953 43.6496 37.2692 43.5269C44.1499 41.6689 48.2572 34.5877 46.3967 27.6992Z" fill="#52C7EA"/>
<path d="M25.3494 37.7602C28.5791 37.2869 31.4929 35.6043 33.529 33.0627C32.9498 32.9575 32.4407 32.607 32.1423 32.1162C30.4046 34.2371 27.9472 35.6568 25.2266 36.095C25.5074 36.6033 25.5425 37.2168 25.3494 37.7602Z" fill="#52C7EA"/>
<path d="M28.2826 40.7756C27.089 40.092 26.0534 39.1805 25.1933 38.1113C25.0178 38.4093 24.7721 38.6722 24.4561 38.8475C24.263 38.9527 24.0524 39.0403 23.8242 39.0754C25.8252 41.6344 28.739 43.3346 31.9687 43.7904C31.7581 43.247 31.8107 42.6335 32.1091 42.1252C30.7576 41.9149 29.4587 41.4592 28.2826 40.7756Z" fill="#52C7EA"/>
<path d="M18.5765 40.7746C17.4005 41.4582 16.1016 41.914 14.75 42.1418C15.0308 42.6501 15.066 43.2636 14.8729 43.807C18.1026 43.3337 21.0163 41.6335 23.0173 39.0744C22.4381 38.9693 21.9466 38.6187 21.6482 38.1279C20.7881 39.1971 19.7525 40.0911 18.5765 40.7746Z" fill="#52C7EA"/>
<path d="M32.1447 44.1758C28.248 48.9784 21.1918 49.7321 16.3823 45.8409C15.768 45.3502 15.2063 44.7893 14.7148 44.1758C14.5393 44.4738 14.2935 44.7367 13.9776 44.912C13.7669 45.0346 13.5563 45.1048 13.3281 45.1398C17.769 50.7137 25.8783 51.6251 31.4601 47.1906C32.2149 46.5771 32.917 45.8935 33.5138 45.1398C32.9521 45.0346 32.4431 44.6841 32.1447 44.1758Z" fill="#52C7EA"/>
<path d="M12.922 33.08C12.571 33.08 12.2199 32.9924 11.9215 32.8171C11.7284 32.6944 11.5354 32.5542 11.3949 32.3789C10.1838 35.4112 10.1838 38.7766 11.3774 41.8089C11.5178 41.6336 11.7109 41.4759 11.904 41.3532C12.2024 41.1779 12.5534 41.0903 12.8869 41.0903C11.904 38.4961 11.904 35.6391 12.922 33.08Z" fill="#52C7EA"/>
<path d="M14.7148 32.0986C14.4164 32.6069 13.9074 32.94 13.3281 33.0451C15.3467 35.5867 18.2604 37.2869 21.4902 37.7777C21.2971 37.2168 21.3322 36.6033 21.6306 36.095C18.9099 35.6393 16.4525 34.2195 14.7148 32.0986Z" fill="#52C7EA"/>
<path d="M0.898269 23.6677C1.28443 23.212 1.84612 22.9666 2.42536 22.949C2.28494 22.5985 2.16207 22.2304 2.05675 21.8623C0.441898 15.8678 4.00511 9.69796 10.0081 8.10292C10.3768 8.01528 10.7454 7.92764 11.1315 7.87506C10.8331 7.36675 10.7805 6.73575 10.9911 6.19238C10.5172 6.26249 10.0433 6.36766 9.58688 6.49036C2.68865 8.33078 -1.40114 15.4296 0.441898 22.318C0.58232 22.7738 0.722742 23.212 0.898269 23.6677Z" fill="#52C7EA"/>
<path d="M6.48305 30.1534C7.88727 30.9597 9.43192 31.503 11.0292 31.7309C10.8361 31.17 10.8712 30.5565 11.1521 30.0482C8.43141 29.6275 5.97402 28.2078 4.2363 26.0869C3.93791 26.5777 3.42888 26.9283 2.86719 27.0334C3.85014 28.2779 5.07883 29.3471 6.48305 30.1534Z" fill="#52C7EA"/>
<path d="M10.0269 41.8968C4.0239 40.2842 0.46069 34.1319 2.05799 28.1374C2.16331 27.7693 2.28618 27.4012 2.4266 27.0507C2.07554 27.0507 1.72449 26.963 1.42609 26.7878C1.23301 26.6651 1.03993 26.5073 0.899509 26.332C0.723981 26.7702 0.566007 27.2435 0.443137 27.6992C-1.3999 34.5877 2.67234 41.6514 9.57057 43.5094C10.0445 43.6321 10.5184 43.7372 10.9923 43.8073C10.7993 43.2464 10.8519 42.6505 11.1328 42.1422C10.7817 42.0721 10.3955 42.002 10.0269 41.8968Z" fill="#52C7EA"/>
<path d="M12.922 16.9019C11.9215 14.3428 11.9215 11.5033 12.9045 8.94423C12.3252 8.9267 11.7635 8.66378 11.3774 8.22559C10.1838 11.2579 10.1838 14.6233 11.3949 17.6381C11.7635 17.1823 12.3252 16.9019 12.922 16.9019Z" fill="#52C7EA"/>
<path d="M10.9063 18.9532C10.9063 18.7253 10.959 18.4974 11.0292 18.2871C7.79951 18.7604 4.88575 20.443 2.86719 22.9846C3.09537 23.0196 3.32356 23.1073 3.51664 23.2124C3.81504 23.3877 4.06077 23.6331 4.2363 23.9311C5.97402 21.7927 8.44896 20.3729 11.1872 19.9523C10.9941 19.6543 10.9063 19.3037 10.9063 18.9532Z" fill="#52C7EA"/>
<path d="M21.5058 12.2227C18.2936 12.7134 15.3799 14.3961 13.3438 16.9377C13.923 17.0428 14.4145 17.3934 14.7129 17.9017C16.4506 15.7808 18.908 14.3611 21.6286 13.9229C21.3478 13.397 21.2951 12.7835 21.5058 12.2227Z" fill="#52C7EA"/>
<path d="M12.9057 21.0037C12.3265 20.9862 11.7648 20.7233 11.3962 20.2676C10.2026 23.2999 10.1851 26.6653 11.3786 29.6976C11.7648 29.2594 12.3089 28.9789 12.8882 28.9789C11.9228 26.4023 11.9228 23.5628 12.9057 21.0037Z" fill="#52C7EA"/>
</svg>
