<?xml version="1.0" encoding="UTF-8"?>
<svg width="109px" height="32px" viewBox="0 0 109 32" version="1.1" xmlns="http://www.w3.org/2000/svg" xmlns:xlink="http://www.w3.org/1999/xlink">
    <g id="Page-1" stroke="none" stroke-width="1" fill="none" fill-rule="evenodd">
        <g id="Desktop-HD-Copy-3" transform="translate(-189.000000, -3576.000000)" fill="#7A8895" fill-rule="nonzero">
            <g id="Group-19" transform="translate(163.000000, 3007.000000)">
                <g id="Group-18" transform="translate(26.000000, 565.000000)">
                    <g id="azure" transform="translate(0.000000, 4.000000)">
                        <path d="M18.6778005,29.6016117 C23.864865,28.6853055 28.149084,27.9270622 28.1982891,27.9166275 L28.2877537,27.8976544 L23.3906534,22.0727075 C20.6972504,18.8689861 18.4935556,16.2353379 18.4935556,16.2201562 C18.4935556,16.1914127 23.5502252,2.26643749 23.5786521,2.21686252 C23.5881566,2.20033381 27.0293739,8.141501 31.9203886,16.6186789 C36.4994461,24.5551647 40.274657,31.0988257 40.3097464,31.1601449 L40.373548,31.2716362 L24.8101596,31.2696287 L9.24677407,31.2676294 L18.6778005,29.6016174 L18.6778005,29.6016117 Z M78.3615735,28.1928814 C75.9925204,28.0409926 74.6146692,26.6920009 74.2495464,24.1669894 C74.15242,23.495295 74.1520487,23.4778676 74.1421093,19.1172423 L74.1324889,14.8968864 L75.1809706,14.8968864 L76.2294491,14.8968864 L76.2377059,18.9790582 C76.2451482,22.6582064 76.2498176,23.0895814 76.2849924,23.3483989 C76.4277471,24.3987852 76.7119477,25.1051468 77.1957992,25.612161 C77.5830352,26.0179326 78.0363561,26.2555223 78.6638723,26.3815947 C78.9599194,26.4410713 79.8021018,26.4411904 80.0720134,26.3818395 C80.7081919,26.2418389 81.2180826,25.964995 81.6678839,25.5153643 C82.1805631,25.0028785 82.5598328,24.2757682 82.7433482,23.4535503 L82.8051986,23.176433 L82.8120861,19.0597145 L82.8189735,14.942997 L83.8894052,14.942997 L84.9598393,14.942997 L84.9598393,21.4145929 L84.9598393,27.8861882 L83.9004324,27.8861882 L82.8410254,27.8861882 L82.8410254,26.8594083 C82.8410254,26.161745 82.8333791,25.8351762 82.817179,25.8405768 C82.804066,25.8449508 82.7496562,25.9281849 82.6962689,26.0255471 C82.3311927,26.6913546 81.7229359,27.3002323 81.0564267,27.6670615 C80.2574995,28.1067683 79.4562793,28.2631183 78.3615759,28.1929303 L78.3615735,28.1928814 Z M102.40766,28.182423 C101.571382,28.119563 100.690828,27.8320469 99.9711177,27.3868546 C98.4541946,26.4485234 97.556637,24.9018489 97.2938348,22.7733478 C97.2028939,22.0368064 97.1919638,21.047443 97.2678519,20.4215834 C97.4374145,19.0231426 97.9869381,17.6503158 98.7694603,16.6702415 C98.9700636,16.4189952 99.425148,15.9639117 99.6763836,15.7633214 C100.354826,15.2216411 101.1484,14.8428545 101.990958,14.6585337 C102.481874,14.5511398 103.346382,14.5007156 103.867951,14.549054 C105.178173,14.6704855 106.379006,15.2873825 107.195183,16.2583316 C108.024406,17.2448045 108.480193,18.6232335 108.538398,20.3205905 C108.54752,20.5865933 108.549732,21.0529628 108.543318,21.3569671 L108.531649,21.909701 L103.942804,21.9155112 L99.3539587,21.9213214 L99.3539587,22.1260996 C99.3539587,22.7494883 99.5055161,23.459509 99.767526,24.0636056 C99.99347,24.5845463 100.382403,25.153402 100.700848,25.4286865 C101.35379,25.9931338 102.152906,26.3309877 103.027338,26.4122927 C103.351567,26.4424373 104.17787,26.4107014 104.547357,26.3539292 C105.601525,26.1919247 106.603745,25.7784546 107.413097,25.1716577 C107.508319,25.1002653 107.599446,25.0335642 107.6156,25.0234355 C107.639239,25.0086129 107.644826,25.1951378 107.644228,25.9792048 L107.643493,26.9533922 L107.426635,27.0875132 C106.511057,27.6537754 105.462167,28.0173804 104.351607,28.1534934 C104.020183,28.194112 102.804025,28.2122069 102.407673,28.1824148 L102.40766,28.182423 Z M106.401316,19.9660559 C106.401316,18.921838 105.961268,17.7618414 105.338551,17.1645343 C104.894144,16.7382596 104.356914,16.4777488 103.718252,16.3788287 C103.4161,16.3320285 102.779286,16.3500533 102.460724,16.4144221 C101.787297,16.5504959 101.230283,16.8465471 100.744457,17.3266138 C100.233155,17.8318539 99.8498086,18.4455104 99.6087221,19.1446867 C99.5220304,19.3961027 99.4206336,19.8088662 99.3891604,20.0384652 L99.3741648,20.1478609 L102.887739,20.1478609 L106.401316,20.1478609 L106.401316,19.9660559 Z M44.1544753,27.8573508 C44.1598506,27.8415171 45.7181141,23.7478649 47.6172856,18.7603461 L51.0703243,9.6919921 L52.1798045,9.6919921 L53.2892823,9.6919921 L53.3813362,9.92805583 C53.6626431,10.6494457 60.2940754,27.8664758 60.2940754,27.8754205 C60.2940754,27.8813123 59.7629325,27.8859676 59.1137576,27.8859676 L57.9334398,27.8857214 L56.9776705,25.3410645 L56.0219012,22.7964084 L52.1735292,22.7963619 L48.3251563,22.7963162 L48.2917131,22.8826806 C48.2733211,22.9301809 47.8649728,24.075195 47.3842691,25.427158 L46.5102674,27.8852677 L45.3274854,27.8856757 C44.391262,27.8859676 44.1467417,27.8800776 44.1544753,27.8572904 L44.1544753,27.8573508 Z M55.3194681,20.8544754 C55.3194681,20.8504442 54.6762724,19.1067374 53.8901441,16.9795786 C52.4194336,13.0000317 52.3371616,12.760592 52.2209626,12.1217002 C52.1664745,11.8221123 52.1389044,11.813787 52.1065629,12.0871546 C52.0834444,12.2825548 51.9832039,12.719789 51.9059253,12.9623174 C51.867581,13.0826522 51.2052883,14.9004003 50.4341621,17.0017571 C49.6630376,19.1031142 49.0321168,20.831272 49.0321168,20.8421075 C49.0321168,20.8529437 50.4467716,20.8618092 52.1757929,20.8618092 C53.9048141,20.8618092 55.3194681,20.8585124 55.3194681,20.854473 L55.3194681,20.8544754 Z M61.0080238,27.5547223 L61.0080238,27.2233046 L64.8421771,21.9525311 L68.6763304,16.6817567 L65.2049089,16.6702415 L61.7334874,16.6587263 L61.7274568,15.7778062 L61.7214262,14.8968864 L66.7423694,14.8968864 L71.7633118,14.8968864 L71.7633118,15.1944211 L71.7633118,15.4919556 L67.9287186,20.7914735 C65.8196924,23.7062091 64.0941254,26.0958951 64.0941254,26.1018881 C64.0941254,26.1078779 65.7989648,26.1127839 67.882657,26.1127839 L71.6711893,26.1127839 L71.6711893,26.9994612 L71.6711893,27.8861392 L66.3396057,27.8861392 L61.0080238,27.8861392 L61.0080238,27.5547223 Z M89.1437281,27.8707845 C89.1352829,27.8623417 89.1283734,24.9397599 89.1283734,21.3761588 L89.1283734,14.8968864 L90.176266,14.8968864 L91.2241577,14.8968864 L91.2241577,16.2326604 C91.2241577,16.9673363 91.2330909,17.5684347 91.2440121,17.5684347 C91.2549332,17.5684347 91.3059343,17.4481759 91.3573476,17.3011932 C91.5929486,16.6276627 92.0015274,15.9983194 92.5279169,15.4981355 C93.0021163,15.0475437 93.5440841,14.7780875 94.183588,14.674968 C94.3632271,14.6460009 94.5152285,14.6404705 94.874506,14.6498289 C95.3257166,14.6615816 95.5616163,14.6945637 95.8360333,14.7842625 L95.9223977,14.8124927 L95.9223977,15.9001933 L95.9223977,16.9878933 L95.6748188,16.8639623 C95.2374842,16.6450445 94.8059647,16.5584115 94.2872257,16.5853851 C93.9496223,16.6029406 93.7280295,16.6462914 93.4581244,16.747587 C92.9027906,16.9560039 92.4523349,17.323876 92.1375783,17.8260306 C91.6819203,18.5529769 91.3569404,19.4873936 91.2610894,20.3462103 C91.243888,20.5003317 91.2337454,21.7555346 91.2297052,24.2300329 L91.2237399,27.8861392 L90.1914101,27.8861392 C89.62363,27.8861392 89.1521725,27.8792273 89.1437297,27.8707845 L89.1437281,27.8707845 Z M-8.28439997e-06,27.8252835 C-8.28439997e-06,27.8170823 2.30748161,23.8114609 5.12774696,18.9238994 L10.2555014,10.0374246 L16.2313064,5.02251685 C19.5179991,2.26431823 22.2159622,0.00423806513 22.2267789,2.92684819e-06 C22.2375956,-0.00400480049 22.1943599,0.104813919 22.1306995,0.241937143 C22.067039,0.379060367 19.1470416,6.64214732 15.6418162,14.1599076 L9.26868078,27.8285624 L4.63433625,27.8343726 C2.08544733,27.8375715 -8.28439997e-06,27.833475 -8.28439997e-06,27.8252803 L-8.28439997e-06,27.8252835 Z" id="path21"></path>
                    </g>
                </g>
            </g>
        </g>
    </g>
</svg>
