<?xml version="1.0" encoding="UTF-8"?>
<svg width="160px" height="32px" viewBox="0 0 160 32" version="1.1" xmlns="http://www.w3.org/2000/svg" xmlns:xlink="http://www.w3.org/1999/xlink">
    <g id="Page-1" stroke="none" stroke-width="1" fill="none" fill-rule="evenodd">
        <g id="Desktop-HD-Copy-3" transform="translate(-923.000000, -3576.000000)" fill="#7A8895" fill-rule="nonzero">
            <g id="Group-19" transform="translate(163.000000, 3007.000000)">
                <g id="Group-18" transform="translate(26.000000, 565.000000)">
                    <g id="heise-online-vector-logo" transform="translate(734.000000, 4.000000)">
                        <path d="M26.5540373,21.2803313 L25.4144928,20.299793 C26.8455487,18.4712215 27.6405797,16.2451346 27.6935818,13.9130435 C27.6935818,7.26128364 22.4993789,2.94161491 16.0861284,2.94161491 C7.49979296,2.94161491 4.47867495,9.75238095 4.47867495,17.3581781 C4.47867495,24.06294 9.43436853,29.6546584 16.2451346,29.6546584 C19.7167702,29.6546584 23.1089027,28.594617 25.9445135,26.5805383 C26.5010352,26.1830228 27.0310559,25.7325052 27.5080745,25.2554865 L28.1706004,26.2360248 C25.4144928,29.6016563 20.7503106,31.8012422 16.4041408,31.8012422 C7.55279503,31.8012422 0.238509317,25.3349896 0.238509317,16.2186335 C0.238509317,6.96977226 6.96977226,-5.68434189e-14 16.2451346,-5.68434189e-14 C23.9304348,-5.68434189e-14 30.2906832,4.84968944 30.2906832,12.9325052 C30.3171843,15.9006211 28.7271222,19.2397516 26.5540373,21.2803313 Z M18.3917184,10.2293996 L13.2505176,21.9693582 C12.826501,22.9498965 12.1904762,24.089441 10.9184265,24.089441 C10.0703934,24.115942 9.35486542,23.4269151 9.32836439,22.578882 C9.32836439,22.552381 9.32836439,22.5258799 9.32836439,22.4993789 C9.32836439,21.7573499 9.67287785,21.1213251 9.96438923,20.5118012 L15.5296066,7.79130435 C15.9536232,6.83726708 16.4836439,6.0952381 17.5966874,6.0952381 C18.4447205,6.06873706 19.1337474,6.73126294 19.1867495,7.57929607 C19.1867495,7.6057971 19.1867495,7.65879917 19.1867495,7.68530021 C19.1337474,8.55983437 18.7627329,9.43436853 18.3917184,10.2293996 Z M22.4993789,17.3581781 L20.4322981,21.9693582 C19.9817805,22.9498965 19.3192547,24.06294 18.100207,24.06294 C17.2521739,24.089441 16.563147,23.4269151 16.5101449,22.578882 C16.5101449,22.552381 16.5101449,22.4993789 16.5101449,22.4728778 C16.5101449,21.7838509 16.8281573,21.1478261 17.1461698,20.5118012 L19.6372671,14.9200828 C20.0612836,14.0455487 20.5913043,13.2505176 21.7043478,13.2505176 C22.552381,13.2240166 23.2414079,13.8865424 23.2944099,14.7345756 C23.2944099,14.7610766 23.2944099,14.8140787 23.2944099,14.8405797 C23.2149068,15.7151139 22.8438923,16.563147 22.4993789,17.3581781 Z M37.657971,6.83726708 L40.5730849,6.83726708 L40.5730849,13.7010352 L40.5995859,13.7010352 C41.3681159,12.5614907 42.6401656,11.8724638 44.0182195,11.8724638 C45.9792961,11.8724638 48.0198758,13.1445135 48.0198758,16.8546584 L48.0198758,23.6389234 L45.1047619,23.6389234 L45.1047619,17.1726708 C45.1047619,15.4766046 44.4952381,14.2575569 42.8786749,14.2575569 C41.8716356,14.2575569 40.9706004,14.9200828 40.626087,15.9006211 C40.5200828,16.1921325 40.4935818,16.4836439 40.5200828,16.7751553 L40.5200828,23.6654244 L37.6049689,23.6654244 L37.6049689,6.86376812 L37.657971,6.83726708 L37.657971,6.83726708 Z M53.1875776,18.6832298 C53.2670807,20.7503106 54.8571429,21.6513458 56.7122153,21.6513458 C57.7987578,21.6778468 58.8853002,21.5188406 59.8923395,21.1478261 L60.3163561,23.1619048 C59.0443064,23.6654244 57.6927536,23.9304348 56.3146998,23.9039337 C52.6045549,23.9039337 50.4049689,21.5983437 50.4049689,18.073706 C50.4049689,14.8935818 52.3395445,11.8724638 56.0231884,11.8724638 C59.7598344,11.8724638 60.952381,14.9465839 60.952381,17.4641822 C60.978882,17.8881988 60.9258799,18.2857143 60.8463768,18.6832298 L53.1875776,18.6832298 L53.1875776,18.6832298 Z M58.2227743,16.6426501 C58.2492754,15.6091097 57.7722567,13.8335404 55.8376812,13.8335404 C54.0621118,13.8335404 53.2935818,15.4766046 53.1610766,16.6426501 L58.2227743,16.6426501 Z M66.8621118,8.90434783 C66.8621118,9.77888199 66.226087,10.4679089 65.2190476,10.4679089 C64.3710145,10.4944099 63.6819876,9.85838509 63.6289855,9.01035197 C63.6289855,8.98385093 63.6289855,8.93084886 63.6289855,8.90434783 C63.6024845,8.02981366 64.2915114,7.34078675 65.1660455,7.31428571 C65.1925466,7.31428571 65.2455487,7.31428571 65.2720497,7.31428571 C66.226087,7.31428571 66.8091097,7.97681159 66.8621118,8.90434783 L66.8621118,8.90434783 Z M63.7614907,23.6124224 L63.7614907,12.1109731 L66.6766046,12.1109731 L66.6766046,23.6124224 L63.7614907,23.6124224 Z M70.1482402,20.9623188 C71.0492754,21.4658385 72.0563147,21.7573499 73.0898551,21.7838509 C74.3619048,21.7838509 74.8919255,21.2803313 74.8919255,20.5118012 C74.8919255,19.7432712 74.4149068,19.3457557 72.9838509,18.815735 C70.7312629,18.047205 69.8037267,16.8016563 69.8302277,15.4766046 C69.8302277,13.4360248 71.499793,11.8724638 74.1498965,11.8724638 C75.2099379,11.8724638 76.2434783,12.1109731 77.1975155,12.5349896 L76.6144928,14.6020704 C75.8724638,14.1780538 75.0244306,13.9660455 74.1763975,13.9395445 C73.1428571,13.9395445 72.5863354,14.4430642 72.5863354,15.1320911 C72.5863354,15.8741201 73.1163561,16.2186335 74.6004141,16.7486542 C76.6409938,17.4906832 77.6215321,18.5772257 77.6745342,20.2732919 C77.6745342,22.3403727 76.057971,23.8774327 73.010352,23.8774327 C71.7913043,23.9039337 70.5987578,23.6124224 69.5387164,23.0559006 L70.1482402,20.9623188 Z M82.6302277,18.6832298 C82.7097308,20.7503106 84.299793,21.6513458 86.1548654,21.6513458 C87.2414079,21.6778468 88.3279503,21.5188406 89.3349896,21.1478261 L89.7590062,23.1619048 C88.4869565,23.6654244 87.1354037,23.9304348 85.7573499,23.9039337 C82.0207039,23.8774327 79.821118,21.5718427 79.821118,18.073706 C79.821118,14.8935818 81.7556936,11.8724638 85.4393375,11.8724638 C89.1759834,11.8724638 90.36853,14.9465839 90.36853,17.4641822 C90.3950311,17.8881988 90.342029,18.2857143 90.2625259,18.6832298 L82.6302277,18.6832298 L82.6302277,18.6832298 Z M87.6654244,16.6426501 C87.6919255,15.6091097 87.2149068,13.8335404 85.2803313,13.8335404 C83.5047619,13.8335404 82.7362319,15.4766046 82.6037267,16.6426501 L87.6654244,16.6426501 Z M108.521739,17.7556936 C108.521739,21.9958592 105.553623,23.8509317 102.638509,23.8509317 C99.378882,23.8244306 96.8877847,21.5983437 96.8877847,17.9146998 C96.8877847,14.1515528 99.378882,11.8194617 102.824017,11.8194617 C106.216149,11.8459627 108.521739,14.2575569 108.521739,17.7556936 Z M99.8559006,17.8616977 C99.8559006,20.0877847 100.942443,21.7573499 102.718012,21.7573499 C104.361077,21.7573499 105.527122,20.1142857 105.527122,17.8086957 C105.527122,16.0066253 104.732091,13.9395445 102.744513,13.9395445 C100.677433,13.9925466 99.8559006,15.9801242 99.8559006,17.8616977 L99.8559006,17.8616977 Z M110.880331,15.5296066 C110.880331,14.2045549 110.85383,13.0915114 110.774327,12.1109731 L113.318427,12.1109731 L113.450932,13.8335404 L113.530435,13.8335404 C114.298965,12.5614907 115.70352,11.8194617 117.187578,11.8459627 C119.201656,11.8459627 121.268737,13.1180124 121.268737,16.8016563 L121.268737,23.6389234 L118.353623,23.6389234 L118.353623,17.1196687 C118.353623,15.4501035 117.744099,14.2045549 116.154037,14.2045549 C115.120497,14.2310559 114.219462,14.9200828 113.901449,15.9006211 C113.821946,16.1921325 113.768944,16.5101449 113.795445,16.8281573 L113.795445,23.5859213 L110.880331,23.5859213 L110.880331,15.5296066 L110.880331,15.5296066 Z M124.342857,6.83726708 L127.257971,6.83726708 L127.257971,23.6389234 L124.342857,23.6389234 L124.342857,6.83726708 Z M133.512215,8.90434783 C133.512215,9.77888199 132.87619,10.4679089 131.869151,10.4679089 C131.021118,10.4944099 130.332091,9.85838509 130.279089,9.01035197 C130.279089,8.98385093 130.279089,8.93084886 130.279089,8.90434783 C130.279089,8.00331263 131.021118,7.28778468 131.922153,7.28778468 C132.796687,7.28778468 133.538716,8.00331263 133.512215,8.90434783 L133.512215,8.90434783 Z M130.411594,23.6124224 L130.411594,12.1109731 L133.326708,12.1109731 L133.326708,23.6124224 L130.411594,23.6124224 Z M136.45383,15.5561077 C136.45383,14.2310559 136.427329,13.1180124 136.347826,12.1374741 L138.891925,12.1374741 L139.024431,13.8600414 L139.103934,13.8600414 C139.872464,12.5879917 141.277019,11.8459627 142.761077,11.8724638 C144.775155,11.8724638 146.842236,13.1445135 146.842236,16.8281573 L146.842236,23.6654244 L143.927122,23.6654244 L143.927122,17.1461698 C143.927122,15.4766046 143.317598,14.2310559 141.727536,14.2310559 C140.693996,14.2575569 139.792961,14.9465839 139.474948,15.9271222 C139.395445,16.2186335 139.342443,16.536646 139.368944,16.8546584 L139.368944,23.5859213 L136.45383,23.5859213 L136.45383,15.5561077 L136.45383,15.5561077 Z M151.479917,18.6832298 C151.55942,20.7503106 153.149482,21.6513458 155.004555,21.6513458 C156.091097,21.6778468 157.17764,21.5188406 158.184679,21.1478261 L158.608696,23.1619048 C157.336646,23.6654244 155.985093,23.9304348 154.607039,23.9039337 C150.896894,23.9039337 148.697308,21.5983437 148.697308,18.073706 C148.697308,14.8935818 150.631884,11.8724638 154.315528,11.8724638 C158.052174,11.8724638 159.24472,14.9465839 159.24472,17.4641822 C159.271222,17.8881988 159.218219,18.2857143 159.138716,18.6832298 L151.479917,18.6832298 L151.479917,18.6832298 Z M156.541615,16.6426501 C156.568116,15.6091097 156.091097,13.8335404 154.156522,13.8335404 C152.380952,13.8335404 151.612422,15.4766046 151.479917,16.6426501 L156.541615,16.6426501 Z" id="Shape"></path>
                    </g>
                </g>
            </g>
        </g>
    </g>
</svg>
