<?xml version="1.0" encoding="UTF-8"?>
<svg width="125px" height="32px" viewBox="0 0 125 32" version="1.1" xmlns="http://www.w3.org/2000/svg" xmlns:xlink="http://www.w3.org/1999/xlink">
    <g id="Page-1" stroke="none" stroke-width="1" fill="none" fill-rule="evenodd">
        <g id="Desktop-HD-Copy-3" transform="translate(-371.000000, -3576.000000)" fill="#7A8895" fill-rule="nonzero">
            <g id="Group-19" transform="translate(163.000000, 3007.000000)">
                <g id="Group-18" transform="translate(26.000000, 565.000000)">
                    <g id="inforworld" transform="translate(182.000000, 4.000000)">
                        <path d="M87.6128,27.728 L91.2448,27.728 L91.2448,28.2208 L88.1824,28.2208 L88.1824,29.536 L91.1296,29.536 L91.1296,30.0224 L88.1824,30.0224 L88.1824,31.8176 L87.616,31.8176 L87.616,27.728 L87.6128,27.728 Z M92.3616,27.728 L95.1424,27.728 C95.5510075,27.6857908 95.9604146,27.8001503 96.288,28.048 C96.531811,28.2747387 96.661012,28.5989159 96.64,28.9312 C96.64,29.9104 95.8112,30.0416 95.5392,30.0896 L97.0464,31.8144 L96.288,31.8144 L94.9024,30.1824 L92.928,30.1824 L92.928,31.8144 L92.3488,31.8144 L92.3488,27.728 L92.3616,27.728 Z M92.9344,28.2208 L92.9344,29.7024 L94.9568,29.7024 C95.2768,29.7024 95.68,29.7024 95.9168,29.3824 C96.0103951,29.2569826 96.0588825,29.1036273 96.0544,28.9472 C96.0570809,28.793391 96.0148203,28.6421425 95.9328,28.512 C95.758954,28.281648 95.4722243,28.1659717 95.1872,28.2112 L92.9472,28.2112 L92.9344,28.2208 Z M102.72,29.8304 C102.72,31.2256 101.5744,31.9264 100.2592,31.9264 C99.6596168,31.9567801 99.065528,31.7990278 98.56,31.4752 C98.0196734,31.1026332 97.7070895,30.4798792 97.7312,29.824 C97.7312,28.3136 98.976,27.6288 100.1984,27.6288 C101.6416,27.6352 102.72,28.48 102.72,29.8304 L102.72,29.8304 Z M98.3296,29.7888 C98.3193585,30.1683751 98.4466429,30.5388637 98.688,30.832 C99.0987877,31.24938 99.6718684,31.4657473 100.256,31.424 C101.7664,31.424 102.1312,30.464 102.1312,29.7728 C102.1312,28.6944 101.2672,28.0992 100.1504,28.128 C99.296,28.16 98.3232,28.5792 98.3232,29.7888 L98.3296,29.7888 Z M103.9136,27.728 L104.7136,27.728 L105.9936,30.3904 C106.1952,30.832 106.2304,30.9184 106.3872,31.3056 C106.494203,31.0002737 106.618129,30.7011438 106.7584,30.4096 L108.0384,27.728 L108.8256,27.728 L108.8256,31.8176 L108.2816,31.8176 L108.2816,29.4656 C108.267028,29.0478388 108.284144,28.6295739 108.3328,28.2144 C108.24153,28.4599134 108.134645,28.6993358 108.0128,28.9312 L106.6176,31.8112 L106.0832,31.8112 L104.8032,29.1584 C104.646768,28.8566945 104.508912,28.5457155 104.3904,28.2272 C104.42663,28.5715663 104.442657,28.9177592 104.4384,29.264 L104.4384,31.824 L103.8944,31.824 L103.8944,27.728 L103.9136,27.728 Z M112.4384,27.728 L113.0336,27.728 L113.0336,31.8176 L112.4384,31.8176 L112.4384,27.728 Z M114.56,27.728 L116.592,27.728 C117.151735,27.6767478 117.710283,27.8378013 118.1568,28.1792 C118.609332,28.5703451 118.859042,29.1463287 118.8352,29.744 C118.846705,30.2959092 118.641007,30.8302628 118.2624,31.232 C117.6896,31.7984 116.8896,31.8176 116.2016,31.8176 L114.56,31.8176 L114.56,27.728 Z M115.1456,28.208 L115.1456,31.3248 L116.3392,31.3248 C116.8544,31.3248 117.4912,31.3088 117.9392,30.752 C118.155129,30.4549214 118.267553,30.0951667 118.2592,29.728 C118.275831,29.3088212 118.121002,28.9009519 117.8304,28.5984 C117.496307,28.3062767 117.055891,28.166039 116.6144,28.2112 L115.1616,28.2112 L115.1456,28.208 Z M123.9488,31.2608 C123.872,31.3312 123.8112,31.3952 123.7216,31.4624 C123.261183,31.7701038 122.716794,31.9277195 122.1632,31.9136 C120.7488,31.9136 119.824,30.9344 119.824,29.7664 C119.82514,29.3501056 119.94745,28.9431473 120.176,28.5952 C120.673854,27.9548045 121.452164,27.5966864 122.2624,27.6352 C122.903636,27.6170483 123.530945,27.8242642 124.0352,28.2208 C124.199104,28.3602115 124.33487,28.5296476 124.4352,28.72 L123.8624,28.8928 C123.792744,28.7735949 123.705342,28.6656916 123.6032,28.5728 C123.24223,28.2784192 122.788935,28.1208992 122.3232,28.128 C121.3152,28.128 120.4576,28.6944 120.4576,29.728 C120.456579,30.0680539 120.553207,30.4012521 120.736,30.688 C121.1808,31.376 122.0384,31.4336 122.304,31.4336 C122.808036,31.4428692 123.294644,31.2491486 123.6544,30.896 C123.843949,30.6931411 123.957073,30.4306925 123.9744,30.1536 L122.1728,30.1536 L122.1728,29.664 L124.4608,29.664 L124.4608,31.824 L123.9552,31.824 L123.9552,31.2608 L123.9488,31.2608 Z M7.0656,3.8048 L9.9456,3.8048 L9.9456,0.8928 L0,0.8928 L0,3.8048 L2.8256,3.8048 L2.8256,21.92 L0,21.92 L0,24.8416 L9.9392,24.8416 L9.9392,21.92 L7.0592,21.92 L7.0592,3.8048 L7.0656,3.8048 Z" id="Shape"></path>
                        <path d="M20.512,6.4448 C19.0176,6.4448 17.5104,7.0848 16.032,8.3648 L15.1616,9.1136 L15.1616,6.7456 L8.8096,6.7456 L8.8096,9.5392 L10.9504,9.5392 L10.9504,24.8032 L15.1648,24.8032 L15.1648,12.0032 L15.36,11.84 C16.4672,10.9504 17.5808,10.4992 18.672,10.4992 C19.3204304,10.4566999 19.9427826,10.7611776 20.3072,11.2992 C20.6112,11.7696 20.7552,12.5248 20.7552,13.6736 L20.7552,24.8032 L24.96,24.8032 L24.96,13.2128 C24.96,8.6592 23.5104,6.4448 20.512,6.4448 Z M35.1744,6.6016 L31.1936,6.6016 L31.1936,5.4944 C31.1936,3.7024 31.8144,3.088 32.7552,2.7104 C33.6096,2.368 35.0176,2.4352 36.224,3.1392 L36.224,0.7328 C35.1186301,0.254303222 33.9276819,0.00500967663 32.7232,-7.10542736e-15 C30.992,-7.10542736e-15 29.5232,0.592 28.6528,1.6224 C27.711341,2.80003606 27.2221434,4.27557424 27.2736,5.7824 L27.2736,6.5984 L25.3728,6.5984 L25.3728,9.5392 L27.2736,9.5392 L27.2736,24.8416 L31.1648,24.8416 L31.1648,9.5424 L35.1712,9.5424 L35.1712,6.6016 L35.1744,6.6016 Z M43.104,6.2944 C40.7652698,6.24739494 38.5068057,7.14754928 36.8416,8.7904 C35.1328,10.4608 34.2816,12.8 34.2816,15.7408 C34.2816,18.6816 35.1456,21.0208 36.8416,22.6912 C40.3665343,26.0282158 45.8888101,26.0155501 49.3984,22.6624 C51.0816,20.9728 51.9392,18.6464 51.9392,15.7408 C51.9392,12.8352 51.0752,10.4608 49.3792,8.7904 C47.7112846,7.14370587 45.4472712,6.24318041 43.104,6.2944 L43.104,6.2944 Z M46.272,20.3744 C45.5495062,21.4255733 44.3472927,22.043511 43.072,22.0192 C41.7154559,22.0713638 40.446257,21.3512421 39.7952,20.16 C39.1264,19.0368 38.7904,17.6 38.7904,15.888 C38.7904,11.5936 40.2336,9.4144 43.0848,9.4144 C44.3913323,9.38698024 45.6161934,10.0480164 46.3104,11.1552 C47.0464,12.2336 47.4208,13.7312 47.4208,15.6064 C47.4208,17.7344 47.04,19.3344 46.272,20.368 L46.272,20.3744 Z M82.1024,6.2944 C79.7626059,6.24493705 77.5028358,7.14676661 75.84,8.7936 C74.1312,10.464 73.28,12.8032 73.28,15.744 C73.28,18.6848 74.1472,21.024 75.84,22.6944 C79.3649343,26.0314158 84.8872101,26.0187501 88.3968,22.6656 C90.0832,20.976 90.9376,18.6496 90.9376,15.744 C90.9376,12.8384 90.0736,10.464 88.3776,8.7936 C86.7116531,7.14353681 84.446602,6.24144355 82.1024,6.2944 L82.1024,6.2944 Z M85.2672,20.3744 C84.5490345,21.4221304 83.3532687,22.0398426 82.0832,22.0192 C80.7224949,22.0747859 79.4478506,21.3543887 78.7936,20.16 C78.1312,19.0368 77.7952,17.6 77.7952,15.888 C77.7952,11.5936 79.2384,9.4144 82.0864,9.4144 C83.3940628,9.38584434 84.6204038,10.0470233 85.3152,11.1552 C86.048,12.2336 86.416,13.7312 86.416,15.6064 C86.4,17.7344 86.032,19.3344 85.2672,20.368 L85.2672,20.3744 Z M96.8544,11.3344 L96.8544,6.7456 L90.9952,6.7456 L90.9952,9.5392 L92.6944,9.5392 L92.6944,24.8032 L96.928,24.8032 L96.928,18.4032 C96.928,16.7232 97.024,15.3216 97.568,14.128 C98.1248,12.8704 98.864,12.032 99.7632,11.6448 C100.720255,11.3099385 101.725333,11.1326989 102.7392,11.12 L102.7392,6.4544 C100.8,6.4544 97.872,8.4384 96.8544,11.3344 L96.8544,11.3344 Z" id="Shape"></path>
                        <path d="M102.3712,3.1744 L103.904,3.1744 L103.904,24.8416 L108.192,24.8416 L108.192,0.1472 L102.3712,0.1472 L102.3712,3.1744 Z M118.576,0.1472 L118.576,3.1744 L120.2304,3.1744 L120.2304,8.032 C119.22764,6.93652419 117.81467,6.30712066 116.3296,6.2944 C114.3424,6.2944 112.6464,7.1392 111.2768,8.7904 C109.9072,10.4416 109.2,12.8 109.2,15.7408 C109.2,18.6816 109.8976,21.0208 111.2736,22.6912 C112.6496,24.3616 114.3424,25.1872 116.3264,25.1872 C117.807069,25.1634295 119.214719,24.5398602 120.2272,23.4592 L120.2272,24.8 L124.5312,24.8 L124.5312,0.16 L118.576,0.16 L118.576,0.1472 Z M119.8048,20.368 C119.0976,21.4624 118.1536,22.0128 117.0016,22.0128 C115.7216,22.0128 114.7392,21.3888 114.1024,20.16 C113.5136,19.0368 113.2192,17.6 113.2192,15.888 C113.2192,11.5936 114.4992,9.4144 117.0016,9.4144 C118.1952,9.4144 119.152,9.9968 119.8432,11.1552 C120.4832,12.2336 120.8032,13.7312 120.8032,15.6064 C120.8192,17.7344 120.4768,19.3344 119.808,20.368 L119.8048,20.368 Z M76.1024,4.0064 L76.1024,0.8064 L69.1968,0.8064 L69.1968,4.0064 L71.1168,4.0064 L68,18.0864 L64.704,0.8192 L64.704,0.7968 L59.0912,0.7968 L59.0912,3.9968 L61.2928,3.9968 L61.2928,4.08 L58.3104,18.112 L54.9312,4.0064 L56.9984,4.0064 L56.9984,0.8064 L48.96,0.8064 L48.96,4.0064 L50.6496,4.0064 C50.6496,4.0064 55.9584,24.3808 56.0576,24.7168 L59.52,24.7168 L62.72,10.56 L65.8528,24.7264 L69.5904,24.7264 C69.696,24.384 74.3072,4.016 74.3072,4.016 L76.0864,4.016 L76.1024,4.0064 Z" id="Shape"></path>
                    </g>
                </g>
            </g>
        </g>
    </g>
</svg>
