<?xml version="1.0" encoding="UTF-8"?>
<svg width="105px" height="32px" viewBox="0 0 105 32" version="1.1" xmlns="http://www.w3.org/2000/svg" xmlns:xlink="http://www.w3.org/1999/xlink">
    <g id="Page-1" stroke="none" stroke-width="1" fill="none" fill-rule="evenodd">
        <g id="Desktop-HD-Copy-3" transform="translate(-1141.000000, -3576.000000)" fill="#7A8895" fill-rule="nonzero">
            <g id="Group-19" transform="translate(163.000000, 3007.000000)">
                <g id="Group-18" transform="translate(26.000000, 565.000000)">
                    <g id="infoq-seeklogo.com" transform="translate(952.000000, 4.000000)">
                        <polygon id="Path" points="0.156521739 0.660869565 7.2 0.660869565 7.2 29.2869565 0.156521739 29.2869565"></polygon>
                        <g id="Group">
                            <path d="M11.8086957,29.2869565 L11.8086957,8 L18.2434783,8 L18.2434783,9.9826087 C19.0782609,9.14782609 20,8.53913043 21.0434783,8.12173913 C22.0869565,7.70434783 23.2521739,7.51304348 24.5565217,7.51304348 C26.8695652,7.51304348 28.5913043,8.24347826 29.7391304,9.70434783 C30.8695652,11.1652174 31.4434783,13.4086957 31.4434783,16.4347826 L31.4434783,29.2869565 L25.0086957,29.2869565 L25.0086957,16.7478261 C25.0086957,15.3043478 24.7478261,14.2608696 24.2434783,13.5826087 C23.7391304,12.9043478 22.9391304,12.573913 21.8434783,12.573913 C20.5565217,12.573913 19.6347826,12.8869565 19.0782609,13.5130435 C18.5217391,14.1391304 18.2608696,15.2173913 18.2608696,16.7478261 L18.2608696,29.2869565 L11.8086957,29.2869565 Z M36.1391304,29.2869565 L36.1391304,12.4173913 L32.8695652,12.4173913 L32.8695652,8.52173913 L36.1391304,8.52173913 C36.1043478,8.08695652 36.0695652,7.77391304 36.0695652,7.56521739 C36.0695652,7.37391304 36.0521739,7.1826087 36.0521739,7.02608696 C36.0521739,4.76521739 36.6086957,3.14782609 37.7043478,2.13913043 C38.8,1.14782609 40.6086957,0.643478261 43.1130435,0.643478261 C43.6695652,0.643478261 44.226087,0.67826087 44.8,0.747826087 C45.373913,0.817391304 45.9652174,0.92173913 46.5913043,1.06086957 L46.5913043,5.51304348 L45.5130435,5.51304348 C44.3304348,5.51304348 43.5478261,5.65217391 43.1652174,5.94782609 C42.7826087,6.24347826 42.5913043,6.8173913 42.5913043,7.68695652 L42.5913043,8.50434783 L46.5913043,8.50434783 L46.5913043,12.4 L42.5913043,12.4 L42.5913043,29.2695652 L36.1391304,29.2695652 L36.1391304,29.2869565 Z M53.3043478,18.6608696 C53.3043478,20.6086957 53.7565217,22.1391304 54.6434783,23.2869565 C55.5304348,24.4347826 56.7304348,24.9913043 58.2086957,24.9913043 C59.7043478,24.9913043 60.8869565,24.4173913 61.7913043,23.2695652 C62.6956522,22.1217391 63.1304348,20.5913043 63.1304348,18.6608696 C63.1304348,16.7130435 62.6782609,15.1826087 61.7913043,14.0347826 C60.9043478,12.8869565 59.7043478,12.3130435 58.2086957,12.3130435 C56.7304348,12.3130435 55.5478261,12.8869565 54.6434783,14.0521739 C53.7565217,15.2 53.3043478,16.7478261 53.3043478,18.6608696 M58.2086957,29.9826087 C54.7652174,29.9826087 51.9826087,28.9391304 49.8782609,26.8695652 C47.773913,24.8 46.7304348,22.0521739 46.7304348,18.6608696 C46.7304348,15.2695652 47.7913043,12.5391304 49.8956522,10.4521739 C52,8.36521739 54.7826087,7.32173913 58.2086957,7.32173913 C61.6869565,7.32173913 64.4695652,8.36521739 66.573913,10.4347826 C68.6782609,12.5217391 69.7391304,15.2521739 69.7391304,18.6608696 C69.7391304,22.0521739 68.6782609,24.7826087 66.5565217,26.8695652 C64.4347826,28.9391304 61.6521739,29.9826087 58.2086957,29.9826087" id="Shape"></path>
                            <path d="M86.8,23.9826087 C89.0782609,23.9826087 90.8521739,23.2 92.1391304,21.6173913 C93.4086957,20.0347826 94.0521739,17.8434783 94.0521739,15.0086957 C94.0521739,12.173913 93.4086957,9.9826087 92.1217391,8.3826087 C90.8347826,6.8 89.0608696,6 86.8,6 C84.5391304,6 82.7826087,6.8 81.4782609,8.4 C80.1913043,10 79.5478261,12.2086957 79.5478261,15.0086957 C79.5478261,17.8086957 80.1913043,20 81.4782609,21.5826087 C82.7652174,23.1826087 84.5391304,23.9826087 86.8,23.9826087 M94.4173913,28.1913043 C93.3565217,28.7652174 92.173913,29.2173913 90.8869565,29.5130435 C89.6,29.8086957 88.2434783,29.9652174 86.8,29.9652174 C82.4,29.9652174 78.8695652,28.6086957 76.226087,25.8956522 C73.5826087,23.1826087 72.2608696,19.5478261 72.2608696,15.0086957 C72.2608696,12.5217391 72.6608696,10.3130435 73.4782609,8.34782609 C74.2782609,6.3826087 75.4956522,4.71304348 77.0956522,3.32173913 C78.3826087,2.20869565 79.826087,1.37391304 81.4608696,0.834782609 C83.0782609,0.27826087 84.8695652,2.84217094e-14 86.8173913,2.84217094e-14 C91.2173913,2.84217094e-14 94.7304348,1.37391304 97.373913,4.10434783 C100.017391,6.83478261 101.356522,10.4695652 101.356522,15.0086957 C101.356522,16.9043478 101.130435,18.626087 100.695652,20.1565217 C100.26087,21.6869565 99.5652174,23.0782609 98.6434783,24.3304348 C99.4782609,25.0608696 100.382609,25.6347826 101.356522,26.0695652 C102.330435,26.5043478 103.391304,26.7652174 104.504348,26.8869565 L102.347826,32 C100.713043,31.8434783 99.2347826,31.4434783 97.9130435,30.8 C96.573913,30.1565217 95.4086957,29.2869565 94.4173913,28.1913043" id="Shape"></path>
                            <path d="M98.6434783,24.3304348 C99.5652174,23.0956522 100.243478,21.7043478 100.695652,20.1565217 C100.904348,19.426087 101.06087,18.6434783 101.165217,17.826087 C98.6434783,17.9478261 96.173913,18.0695652 93.7217391,18.1913043 C93.4086957,19.5478261 92.8869565,20.6782609 92.1391304,21.6 C90.8695652,23.1826087 89.0782609,23.9652174 86.8,23.9652174 C84.5391304,23.9652174 82.7652174,23.1652174 81.4782609,21.5826087 C80.8521739,20.8 80.3652174,19.8782609 80.0521739,18.8 C77.5652174,18.9043478 75.1130435,18.9913043 72.6956522,19.0782609 C73.2695652,21.773913 74.4521739,24.0521739 76.2434783,25.8956522 C78.8869565,28.6086957 82.4173913,29.9652174 86.8173913,29.9652174 C88.2608696,29.9652174 89.6173913,29.8086957 90.9043478,29.5130435 C92.1913043,29.2173913 93.3565217,28.7652174 94.4347826,28.1913043 C95.426087,29.2869565 96.5913043,30.1565217 97.9304348,30.8 C99.2521739,31.4434783 100.747826,31.8434783 102.365217,32 L104.521739,26.8869565 C103.408696,26.7652174 102.347826,26.4869565 101.373913,26.0695652 C100.365217,25.6347826 99.4608696,25.0608696 98.6434783,24.3304348" id="Path"></path>
                            <path d="M61.7913043,23.2695652 C60.8869565,24.4173913 59.7043478,24.9913043 58.2086957,24.9913043 C56.7130435,24.9913043 55.5304348,24.4173913 54.6434783,23.2869565 C53.8956522,22.3304348 53.4608696,21.0782609 53.3391304,19.5304348 C51.1478261,19.5478261 48.9565217,19.5652174 46.7652174,19.5826087 C46.9391304,22.5565217 47.9826087,25.0086957 49.8782609,26.8869565 C51.9826087,28.9565217 54.7652174,30 58.2086957,30 C61.6521739,30 64.4347826,28.9565217 66.5565217,26.8869565 C68.5565217,24.9217391 69.6173913,22.3478261 69.7217391,19.2 C67.5130435,19.2695652 65.3043478,19.3217391 63.1130435,19.373913 C63.0086957,20.9565217 62.573913,22.2608696 61.7913043,23.2695652 M36.1391304,29.2869565 L42.573913,29.2869565 L42.573913,19.5652174 C40.4347826,19.5652174 38.2956522,19.5304348 36.1391304,19.5130435 L36.1391304,29.2869565 Z M11.8086957,29.2869565 L18.2434783,29.2869565 L18.2434783,19.0086957 C16.1217391,18.9217391 13.9826087,18.8173913 11.8086957,18.7130435 L11.8086957,29.2869565 Z M24.9913043,29.2869565 L31.426087,29.2869565 L31.426087,19.426087 C29.2869565,19.373913 27.1478261,19.3217391 24.9913043,19.2521739 L24.9913043,29.2869565 Z M0.156521739,29.2869565 L7.2,29.2869565 L7.2,18.4521739 C4.88695652,18.3130435 2.53913043,18.173913 0.156521739,18 L0.156521739,29.2869565 Z" id="Shape"></path>
                        </g>
                    </g>
                </g>
            </g>
        </g>
    </g>
</svg>
