<?xml version="1.0" encoding="UTF-8"?>
<svg width="96px" height="32px" viewBox="0 0 96 32" version="1.1" xmlns="http://www.w3.org/2000/svg" xmlns:xlink="http://www.w3.org/1999/xlink">
    <g id="Page-1" stroke="none" stroke-width="1" fill="none" fill-rule="evenodd">
        <g id="Desktop-HD-Copy-3" transform="translate(-575.000000, -3576.000000)" fill="#7A8895" fill-rule="nonzero">
            <g id="Group-19" transform="translate(163.000000, 3007.000000)">
                <g id="Group-18" transform="translate(26.000000, 565.000000)">
                    <g id="sd-times" transform="translate(386.000000, 4.000000)">
                        <path d="M0.157192982,21.3299649 L1.536,21.3299649 C2.71719298,27.170807 4.7522807,30.1249123 6.98385965,30.1249123 C8.49347368,30.1249123 9.60954386,28.8123509 9.60954386,26.7115789 C9.60954386,24.0207719 7.9685614,21.9205614 5.47424561,18.8356491 C3.83326316,16.6697544 2.32364912,15.0944561 1.47031579,13.4534737 C0.551298246,11.6816842 0.0920701754,9.77796491 0.0920701754,7.87424561 C0.0920701754,3.60814035 2.38877193,0.391859649 5.14582456,0.391859649 C6.72112281,0.391859649 7.83663158,1.70442105 8.55859649,1.70442105 C9.08407018,1.70442105 9.54329825,1.31031579 9.87115789,0.522666667 L10.9872281,0.522666667 L10.9872281,10.4336842 L9.60898246,10.4336842 C8.6242807,4.78933333 7.04898246,1.96715789 5.01445614,1.96715789 C3.57052632,1.96715789 2.65207018,3.21403509 2.65207018,4.92070175 C2.65207018,7.34877193 4.35817544,9.38385965 6.98385965,12.5344561 C7.70582456,13.3877895 9.01838596,14.7660351 10.3966316,17.1284211 C11.6066276,19.1993272 12.2410177,21.5560487 12.2341612,23.9545263 C12.2341612,28.5490526 9.93684211,31.7002105 6.98329825,31.7002105 C5.01445614,31.7002105 3.76701754,30.2562807 2.91368421,30.2562807 C2.25740351,30.2562807 1.92898246,30.7806316 1.27270175,31.7653333 L0.157192982,31.7653333 L0.157192982,21.3299649 Z M18.4690526,27.5649123 L18.4690526,4.5277193 C18.4690526,2.88673684 18.7969123,2.29557895 19.9129825,2.29557895 C22.8665263,2.29557895 23.3914386,6.62736842 23.3914386,15.2258246 C23.3914386,24.8089825 23.194386,29.6651233 19.781614,29.6651233 C18.6004211,29.6656842 18.4690526,29.1402105 18.4690526,27.5649123 Z M12.8247018,31.2409825 L18.6004211,31.2409825 C24.573193,31.2409825 28.1173333,25.7925614 28.1173333,15.9477895 C28.1173333,10.0407018 26.6734035,5.51185965 24.1790877,2.88617544 C22.4724211,1.11438596 20.5692632,0.785964912 18.1406316,0.785964912 L12.8241404,0.785964912 L12.8241404,2.22989474 C13.9402105,2.36126316 14.2675088,2.95185965 14.2675088,4.33010526 L14.2675088,27.6957193 C14.2675088,29.1396491 13.9402105,29.6651228 12.8241404,29.8610526 L12.8241404,31.2409825 L12.8247018,31.2409825 Z M45.248,11.6816842 L44.1981754,11.6816842 C43.4756491,5.90596491 42.2287719,2.68968421 40.6540351,2.16477193 L40.6540351,27.0405614 C40.6540351,29.0088421 40.9162105,29.7313684 42.3607018,29.861614 L42.3607018,31.2409825 L34.746386,31.2409825 L34.746386,29.861614 C36.1246316,29.7313684 36.4530526,29.0082807 36.4530526,27.0405614 L36.4530526,2.16477193 C34.8777544,2.68968421 33.6308772,5.90596491 32.8432281,11.6816842 L31.7928421,11.6816842 L31.9898947,0.786526316 L45.1166316,0.786526316 L45.248,11.6816842 L45.248,11.6816842 Z M52.2705965,29.9935439 L52.2705965,31.2415439 L46.0356491,31.2415439 L46.0356491,29.9935439 C47.0197895,29.7313684 47.3482105,29.2064561 47.3482105,27.7619649 L47.3482105,14.7009123 C47.3482105,13.2569825 47.0854737,12.6658246 46.0356491,12.5350175 L46.0356491,11.0905263 C47.6766316,11.0254035 49.3821754,10.8934737 50.9580351,10.7626667 L50.9580351,27.7619649 C50.9585965,29.1402105 51.2202105,29.7313684 52.2705965,29.9935439 Z M59.8192281,29.9935439 L59.8192281,31.2415439 L53.6494035,31.2415439 L53.6494035,29.9935439 C54.6997895,29.7313684 54.8974035,29.2064561 54.8974035,27.7619649 L54.8974035,14.7009123 C54.8974035,13.2569825 54.7660351,12.6658246 53.6494035,12.5350175 L53.6494035,11.0905263 C55.2252632,11.0254035 56.8662456,10.8934737 58.4409825,10.7626667 L58.5066667,13.7162105 C59.621614,11.6816842 60.6063158,10.6969825 61.9845614,10.6969825 C63.4941754,10.6969825 64.413193,11.7473684 64.8067368,13.8475789 C65.9884912,11.7473684 67.0383158,10.6969825 68.4822456,10.6969825 C70.845193,10.6969825 71.5020351,12.8628772 71.5020351,17.3917193 L71.5020351,27.7619649 C71.5020351,29.2715789 71.6985263,29.861614 72.7489123,29.9935439 L72.7489123,31.2415439 L68.0230175,31.2415439 L68.0230175,16.9324912 C68.0230175,14.7009123 67.7608421,13.6505263 66.7761404,13.6505263 C65.7914386,13.6505263 65.0043509,15.1601404 65.0043509,17.8509474 L65.0043509,27.7619649 C65.0043509,29.2715789 65.2008421,29.861614 66.2512281,29.9935439 L66.2512281,31.2415439 L61.5253333,31.2415439 L61.5253333,16.9324912 C61.5253333,14.7009123 61.2631579,13.6505263 60.3441404,13.6505263 C59.2280702,13.6505263 58.5723509,15.226386 58.5723509,18.2450526 L58.5723509,27.7619649 C58.5723509,29.1402105 58.7688421,29.7313684 59.8192281,29.9935439 L59.8192281,29.9935439 Z M77.3434386,19.9517193 L77.3434386,19.557614 C77.3434386,14.5038596 77.9345965,11.9438596 79.1152281,11.9438596 C80.3632281,11.9438596 80.7567719,14.109193 80.7567719,18.6385965 L80.7567719,19.9511579 L77.3434386,19.9511579 L77.3434386,19.9517193 Z M83.4475789,24.4143158 C83.0540351,27.7619649 81.8728421,29.5994386 80.165614,29.5994386 C78.3281404,29.5994386 77.3434386,27.170807 77.3434386,22.4454737 L77.3434386,21.6578246 L84.5636491,21.6578246 L84.5636491,21.4607719 C84.5636491,14.4381754 82.4628772,10.565614 79.1152281,10.565614 C75.8332632,10.565614 73.274386,14.7009123 73.274386,21.4607719 C73.274386,27.6957193 75.8338246,31.7647719 79.2471579,31.7647719 C82.2669474,31.7647719 84.2352281,29.0739649 84.5642105,24.4137544 L83.4475789,24.4137544 L83.4475789,24.4143158 L83.4475789,24.4143158 Z M87.1887719,23.168 C87.845614,27.8282105 89.5517193,30.3214035 91.4554386,30.3214035 C92.570386,30.3214035 93.4248421,29.2721404 93.4248421,27.8282105 C93.4248421,26.7121404 92.8336842,25.5309474 91.717614,24.6119298 C89.3546667,22.7082105 87.5828772,21.3299649 86.7295439,19.4924912 C86.2040702,18.5077895 86.0081404,17.3917193 86.0081404,16.1448421 C86.0081404,12.9942456 87.7799298,10.565614 89.9458246,10.565614 C91.258386,10.565614 92.1774035,11.5503158 92.8342456,11.5503158 C93.1621053,11.5503158 93.5556491,11.2224561 93.7532632,10.6312982 L94.8036491,10.6312982 L94.8036491,18.1136842 L93.6875789,18.1136842 C92.7685614,14.0440702 91.456,12.0095439 89.8807018,12.0095439 C88.9616842,12.0095439 88.1745965,12.9936842 88.1745965,14.1754386 C88.1745965,15.8821053 89.2906667,16.7354386 91.0630175,18.1136842 C94.0816842,20.5423158 95.7232281,22.4454737 95.7232281,25.6623158 C95.7232281,29.0745263 93.6881404,31.7653333 91.2595088,31.7653333 C89.6847719,31.7653333 88.7663158,30.650386 88.1094737,30.650386 C87.781614,30.650386 87.4537544,31.0439298 86.9282807,31.7653333 L86.0092632,31.7653333 L86.0092632,23.168 L87.1887719,23.168 L87.1887719,23.168 Z" id="Shape"></path>
                        <path d="M50.9585965,4.65852632 C50.9585965,6.10245614 49.9738947,7.21852632 48.7927018,7.21852632 C47.6115088,7.21852632 46.626807,6.10301754 46.626807,4.65852632 C46.626807,3.2802807 47.6115088,2.09852632 48.7927018,2.09852632 C49.9738947,2.09908772 50.9585965,3.2802807 50.9585965,4.65852632 Z M53.8464561,6.82498246 C53.2552982,6.82498246 52.9931228,6.36575439 52.9274386,5.70891228 L53.5831579,5.57754386 C53.5831579,6.10301754 53.7145263,6.23382456 53.8464561,6.23382456 C53.9767018,6.23382456 54.0429474,6.10301754 54.0429474,5.8402807 C54.0429474,5.44673684 53.9772632,5.24968421 53.5837193,4.85557895 C53.1901754,4.46203509 52.928,4.06792982 52.928,3.60870175 C52.928,3.01810526 53.2558596,2.55831579 53.7813333,2.55831579 C54.3724912,2.55831579 54.5684211,2.95185965 54.7003509,3.54301754 L54.0435088,3.67438596 C54.0435088,3.2802807 53.9778246,3.14891228 53.7813333,3.14891228 C53.6499649,3.14891228 53.5837193,3.2802807 53.5837193,3.54301754 C53.5837193,3.80575439 53.7150877,4.00224561 53.9772632,4.33066667 C54.5027368,4.78989474 54.6997895,5.24968421 54.6997895,5.77459649 C54.6997895,6.36519298 54.3719298,6.82498246 53.8464561,6.82498246 L53.8464561,6.82498246 Z M56.2750877,4.72477193 C56.2750877,5.97164912 56.2094035,6.23382456 55.9461053,6.23382456 C55.749614,6.23382456 55.6839298,5.90596491 55.6839298,4.65852632 C55.6839298,3.47733333 55.749614,3.21459649 55.9461053,3.21459649 C56.1437193,3.21515789 56.2750877,3.47733333 56.2750877,4.72477193 Z M56.930807,4.65852632 C56.930807,3.2802807 56.6686316,2.55831579 55.9461053,2.55831579 C55.2247018,2.55831579 55.0270877,3.2802807 55.0270877,4.72421053 C55.0270877,6.10245614 55.2247018,6.82442138 55.9461053,6.82442138 C56.6686316,6.82498246 56.930807,6.10301754 56.930807,4.65852632 Z M57.981193,3.2802807 L57.981193,4.26498246 L58.7025965,4.26498246 L58.7025965,4.92126316 L57.981193,4.92126316 L57.981193,6.75929825 L57.3243509,6.75929825 L57.3243509,2.624 L58.9002105,2.624 L58.9002105,3.2802807 L57.981193,3.2802807 L57.981193,3.2802807 Z M60.4098246,3.2802807 L60.4098246,6.75929825 L59.7535439,6.75929825 L59.7535439,3.2802807 L59.2280702,3.2802807 L59.2280702,2.624 L60.9998596,2.624 L60.9998596,3.2802807 L60.4098246,3.2802807 Z M63.4284912,6.75929825 L62.9030175,6.75929825 L62.7727719,5.64378947 C62.7070877,5.25024561 62.6414035,4.72477193 62.5751579,4.33122807 C62.5751579,4.72533333 62.5094737,5.25024561 62.4437895,5.64378947 L62.3135439,6.75929825 L61.722386,6.75929825 L61.2631579,2.6245614 L61.8543158,2.6245614 L61.9845614,4.00280702 C62.0502456,4.33066667 62.0502456,4.79045614 62.1159298,5.184 C62.1159298,4.78989474 62.181614,4.33066667 62.181614,4.00280702 L62.3129825,2.6245614 L62.8373333,2.6245614 L62.9687018,4.00280702 C63.034386,4.33066667 63.1000702,4.79045614 63.1000702,5.184 C63.1000702,4.78989474 63.1657544,4.33066667 63.1657544,4.00280702 L63.296,2.6245614 L63.9528421,2.6245614 L63.4284912,6.75929825 L63.4284912,6.75929825 Z M65.1357193,5.24968421 L64.7421754,5.24968421 L64.8724211,4.5277193 C64.8724211,4.19929825 64.9381053,3.8714386 64.9381053,3.54301754 C64.9381053,3.87087719 65.0037895,4.19929825 65.0694737,4.5277193 L65.1357193,5.24968421 Z M65.9890526,6.75929825 L65.3322105,2.6245614 L64.610807,2.6245614 L63.9539649,6.75929825 L64.610807,6.75929825 L64.7421754,5.8402807 L65.2002807,5.8402807 L65.3316491,6.75929825 L65.9890526,6.75929825 Z M67.4329825,3.80575439 C67.4329825,4.26498246 67.301614,4.39635088 67.104,4.39635088 L66.9737544,4.39635088 L66.9737544,3.21515789 L67.104,3.21515789 C67.301614,3.21515789 67.4329825,3.34596491 67.4329825,3.80575439 Z M68.0887018,6.75929825 L67.6951579,4.79045614 C67.9573333,4.59340351 68.0887018,4.26554386 68.0887018,3.80631579 C68.0887018,2.95242105 67.6294737,2.62512281 67.1696842,2.62512281 L66.3163509,2.62512281 L66.3163509,6.75985965 L66.973193,6.75985965 L66.973193,4.92238596 L67.1034386,4.92238596 L67.4324211,6.75985965 L68.0887018,6.75985965 L68.0887018,6.75929825 Z M68.5484912,6.75929825 L68.5484912,2.624 L70.0581053,2.624 L70.0581053,3.2802807 L69.2047719,3.2802807 L69.2047719,4.26498246 L69.8604912,4.26498246 L69.8604912,4.92126316 L69.2047719,4.92126316 L69.2047719,6.16814035 L70.1237895,6.16814035 L70.1237895,6.75929825 L68.5484912,6.75929825 L68.5484912,6.75929825 Z M72.7489123,4.65852632 C72.7489123,5.90596491 72.6175439,6.16814035 72.3553684,6.16814035 L72.224,6.16814035 L72.224,3.21459649 L72.3553684,3.21459649 C72.6175439,3.21515789 72.7489123,3.47733333 72.7489123,4.65852632 L72.7489123,4.65852632 Z M73.4057544,4.65852632 C73.4057544,3.41164912 73.2081404,2.624 72.4210526,2.624 L71.5677193,2.624 L71.5677193,6.7587372 L72.354807,6.7587372 C73.0767719,6.75929825 73.4057544,6.10301754 73.4057544,4.65852632 Z M73.7992982,6.75929825 L73.7992982,2.624 L75.3094737,2.624 L75.3094737,3.2802807 L74.4550175,3.2802807 L74.4550175,4.26498246 L75.1118596,4.26498246 L75.1118596,4.92126316 L74.4550175,4.92126316 L74.4550175,6.16814035 L75.3740351,6.16814035 L75.3740351,6.75929825 L73.7992982,6.75929825 L73.7992982,6.75929825 Z M76.8836491,6.75929825 L76.2279298,6.75929825 L75.5710877,2.6245614 L76.2279298,2.6245614 L76.4901053,4.65908772 C76.4901053,4.98750877 76.5557895,5.44673684 76.5557895,5.70947368 C76.5557895,5.44729825 76.6214737,4.98750877 76.6214737,4.65908772 L76.8836491,2.6245614 L77.5404912,2.6245614 L76.8836491,6.75929825 L76.8836491,6.75929825 Z M77.8683509,6.75929825 L77.8683509,2.624 L79.3785263,2.624 L79.3785263,3.2802807 L78.525193,3.2802807 L78.525193,4.26498246 L79.1809123,4.26498246 L79.1809123,4.92126316 L78.525193,4.92126316 L78.525193,6.16814035 L79.4442105,6.16814035 L79.4442105,6.75929825 L77.8683509,6.75929825 L77.8683509,6.75929825 Z M79.8377544,6.75929825 L79.8377544,2.624 L80.4945965,2.624 L80.4945965,6.16814035 L81.2816842,6.16814035 L81.2816842,6.75929825 L79.8377544,6.75929825 L79.8377544,6.75929825 Z M82.7918596,4.72477193 C82.7918596,5.97164912 82.7261754,6.23382456 82.5285614,6.23382456 C82.266386,6.23382456 82.2007018,5.90596491 82.2007018,4.65852632 C82.2007018,3.47733333 82.266386,3.21459649 82.5285614,3.21459649 C82.725614,3.21515789 82.7918596,3.47733333 82.7918596,4.72477193 Z M83.4475789,4.65852632 C83.4475789,3.2802807 83.2510877,2.55831579 82.5285614,2.55831579 C81.8071579,2.55831579 81.5438596,3.2802807 81.5438596,4.72421053 C81.5438596,6.10245614 81.7414737,6.82442138 82.4628772,6.82442138 C83.2510877,6.82498246 83.4475789,6.10301754 83.4475789,4.65852632 Z M85.0228772,3.8714386 C85.0228772,4.26554386 84.8915088,4.46203509 84.6938947,4.46203509 L84.5636491,4.46203509 L84.5636491,3.21515789 L84.6938947,3.21515789 C84.957193,3.21515789 85.0228772,3.34596491 85.0228772,3.8714386 Z M85.6785965,3.80575439 C85.6785965,2.95185965 85.2850526,2.6245614 84.7595789,2.6245614 L83.9062456,2.6245614 L83.9062456,6.75929825 L84.5630877,6.75929825 L84.5630877,5.05263158 L84.6933333,5.05263158 C85.2193684,5.05263158 85.6785965,4.65852632 85.6785965,3.80575439 L85.6785965,3.80575439 Z M87.7136842,6.75929825 L87.7136842,5.64378947 C87.7136842,5.1845614 87.7136842,4.72477193 87.7793684,4.26554386 C87.6859683,4.72859365 87.5766167,5.1882824 87.4515088,5.64378947 L87.1882105,6.89066667 L86.8603509,5.64378947 C86.7946667,5.25024561 86.6627368,4.59340351 86.5970526,4.26554386 L86.5970526,6.75929825 L86.0070175,6.75929825 L86.0070175,2.6245614 L86.6627368,2.6245614 L86.9260351,3.8714386 C87.0562807,4.26554386 87.1225263,4.72477193 87.1882105,5.05263158 C87.1882105,4.72477193 87.3195789,4.26498246 87.3858246,3.8714386 L87.648,2.6245614 L88.3048421,2.6245614 L88.3048421,6.75929825 L87.7136842,6.75929825 Z M88.829193,6.75929825 L88.829193,2.624 L90.338807,2.624 L90.338807,3.2802807 L89.4854737,3.2802807 L89.4854737,4.26498246 L90.1423158,4.26498246 L90.1423158,4.92126316 L89.4854737,4.92126316 L89.4854737,6.16814035 L90.4044912,6.16814035 L90.4044912,6.75929825 L88.829193,6.75929825 L88.829193,6.75929825 Z M92.1117193,6.75929825 L91.7170526,5.51242105 C91.592697,5.07880307 91.4833454,4.64102198 91.389193,4.19985965 L91.389193,6.75985965 L90.7980351,6.75985965 L90.7980351,2.62512281 L91.389193,2.62512281 L91.7170526,3.67550877 C91.7827368,4.00336842 91.9803509,4.52884211 92.0460351,4.85670175 L92.0460351,2.62512281 L92.6360702,2.62512281 L92.6360702,6.75985965 L92.1117193,6.75985965 L92.1117193,6.75929825 L92.1117193,6.75929825 Z M94.2113684,3.2802807 L94.2113684,6.75929825 L93.5550877,6.75929825 L93.5550877,3.2802807 L92.9650526,3.2802807 L92.9650526,2.624 L94.7368421,2.624 L94.7368421,3.2802807 L94.2113684,3.2802807 Z" id="Shape"></path>
                    </g>
                </g>
            </g>
        </g>
    </g>
</svg>
