<?xml version="1.0" encoding="UTF-8"?>
<svg width="68px" height="40px" viewBox="0 0 68 40" version="1.1" xmlns="http://www.w3.org/2000/svg" xmlns:xlink="http://www.w3.org/1999/xlink">
    <g id="Page-1" stroke="none" stroke-width="1" fill="none" fill-rule="evenodd">
        <g id="Desktop-HD-Copy-3" transform="translate(-779.000000, -3572.000000)" fill-rule="nonzero">
            <g id="Group-19" transform="translate(163.000000, 3007.000000)">
                <g id="Group-18" transform="translate(26.000000, 565.000000)">
                    <g id="zdnet-2" transform="translate(590.000000, 0.000000)">
                        <polygon id="Path" fill="#162535" points="39.6412245 27.0661224 27.0571429 0.08 0.0706122449 12.6644898 12.6534694 39.6514286"></polygon>
                        <path d="M25.9902041,9.29591837 L19.6836735,9.29591837 L19.6836735,20.1538776 L12.1155102,20.1538776 L19.4481633,9.29591837 L8.31673469,9.29591837 L6.26285714,12.3608163 L13.0028571,12.3608163 L5.63265306,23.2191837 L20.6563265,23.2191837 L23.3028571,19.3163265 L23.3028571,12.3612245 L25.3261224,12.3612245 C27.6522449,12.3612245 29.2971429,13.764898 29.2971429,16.2579592 C29.2971429,18.9718367 27.4497959,20.1538776 25.2893878,20.1538776 L23.6897959,20.1538776 L23.6897959,23.2191837 L25.9902041,23.2191837 C29.8514286,23.2191837 33.0636735,20.1730612 33.0636735,16.2579592 C33.0636735,12.3432653 29.8693878,9.29591837 25.9902041,9.29591837 L25.9902041,9.29591837 Z M37.4665306,9.11510204 L40.1938776,14.8159184 C40.9122449,16.3342857 41.4653061,17.8314286 41.7530612,18.8559184 C41.6502041,17.7485714 41.5473469,15.9232653 41.5257143,14.9391837 L41.4653061,9.11469388 L44.1942857,9.11469388 L44.1942857,23.3677551 L41.1991837,23.3677551 L38.7587755,17.9122449 C37.9591837,16.1281633 37.097551,14.1187755 36.8302041,13.2367347 C36.9330612,14.4053061 36.9522449,16.0869388 36.9738776,17.2759184 L37.0559184,23.3673469 L34.2881633,23.3673469 L34.2881633,9.11428571 L37.4665306,9.11428571 L37.4665306,9.11510204 L37.4665306,9.11510204 Z M54.5518367,22.1995918 C53.3416327,23.1832653 52.0710204,23.655102 50.5938776,23.655102 C47.5812245,23.655102 45.6322449,21.5216327 45.6322449,18.2208163 C45.6322449,16.3342857 46.0220408,15.0832653 46.9453061,14.0579592 C47.8053061,13.0938776 48.8530612,12.6428571 50.2465306,12.6428571 C51.4559184,12.6428571 52.6044898,13.0526531 53.2816327,13.7502041 C54.2444898,14.7334694 54.6767347,16.1493878 54.6767347,18.3436735 L54.6767347,18.9795918 L48.6061224,18.9795918 L48.6061224,19.0608163 C48.6061224,20.682449 49.4057143,21.6044898 50.8216327,21.6044898 C51.7640816,21.6044898 52.6465306,21.2555102 53.4857143,20.5587755 L54.5518367,22.1995918 Z M51.824898,16.9697959 L51.824898,16.8465306 C51.824898,16.0665306 51.7444898,15.6567347 51.4979592,15.2677551 C51.2302041,14.8571429 50.8404082,14.6522449 50.2861224,14.6522449 C49.2416327,14.6522449 48.6461224,15.4722449 48.6461224,16.9285714 L48.6461224,16.9697959 L51.824898,16.9697959 L51.824898,16.9697959 Z M61.6191837,14.7542857 L59.855102,14.7542857 L59.855102,20.0244898 C59.855102,21.357551 60.1016327,21.7065306 61.0436735,21.7065306 C61.2906122,21.7065306 61.5371429,21.6453061 62.0281633,21.5008163 L62.3779592,23.1420408 C61.577551,23.4697959 60.86,23.6130612 60.1416327,23.6130612 C58.7481633,23.6130612 57.64,22.997551 57.3106122,22.0759184 C57.1465306,21.6240816 57.1273469,21.4191837 57.1273469,20.455102 L57.1273469,14.7542857 L56.0820408,14.7542857 L56.0820408,12.8673469 L57.1273469,12.8673469 C57.1273469,11.8420408 57.1273469,11.1665306 57.2285714,10.3865306 L60.0171429,9.68897959 C59.9099288,10.7450562 59.8557111,11.8058426 59.8546939,12.8673469 L62.3146939,12.8673469 L61.6191837,14.7542857 L61.6191837,14.7542857 Z M62.4759155,10.7506122 C62.4759155,9.45877551 63.5281633,8.40571429 64.8322449,8.40571429 C65.454038,8.40571429 66.0503461,8.65280431 66.4899054,9.09259322 C66.9294646,9.53238212 67.1762432,10.1288193 67.1759187,10.7506122 C67.1759187,12.0546939 66.1306122,13.1069417 64.8322449,13.1069417 C64.2070092,13.1079158 63.6071005,12.8599744 63.1649916,12.4178655 C62.7228827,11.9757566 62.4749414,11.3758479 62.4759155,10.7506122 L62.4759155,10.7506122 Z M66.895102,10.7506122 C66.895102,10.2037293 66.67777,9.67926313 66.2909505,9.29267334 C65.9041311,8.90608354 65.3795359,8.68906287 64.8326531,8.68938092 C64.2849509,8.68797857 63.7591806,8.9044813 63.3712834,9.29115344 C62.9833861,9.67782558 62.7652213,10.2029084 62.7648834,10.7506122 C62.7628345,11.30017 62.9798408,11.8278974 63.367903,12.217032 C63.7559652,12.6061666 64.2830917,12.8246284 64.8326531,12.8240827 C65.9718367,12.8240827 66.895102,11.9012245 66.895102,10.7506122 L66.895102,10.7506122 Z M65.9326531,12.0677551 L65.5497959,12.0677551 L64.8004082,10.8555102 L64.2089796,10.8555102 L64.2089796,12.0677551 L63.8885714,12.0677551 L63.8885714,9.43959184 L65.0326531,9.43959184 C65.255102,9.43959184 65.477551,9.4522449 65.6734694,9.56897959 C65.8702041,9.67959184 65.9685714,9.91387755 65.9685714,10.1355102 C65.9685714,10.6530612 65.6057143,10.842449 65.1371429,10.8559184 L65.9326531,12.0677551 Z M64.7012245,10.602449 C65.0693878,10.602449 65.6436735,10.6644898 65.6436735,10.1297959 C65.6436735,9.72285714 65.2857143,9.67387755 64.9604082,9.67387755 L64.2093878,9.67387755 L64.2093878,10.602449 L64.7012245,10.602449 Z" id="Shape" fill="#7A8895"></path>
                    </g>
                </g>
            </g>
        </g>
    </g>
</svg>
