<svg width="24" height="25" viewBox="0 0 24 25" fill="none" xmlns="http://www.w3.org/2000/svg">
    <path d="M21.65 12.8842C20.75 13.6842 19.65 14.1342 18.5 14.2342C18.3 15.5342 17.45 16.6342 16.2 17.0342C16.15 17.0342 16.1 17.0842 16.05 17.0842C15.85 17.0842 15.65 16.9342 15.6 16.7342C15.5 16.4842 15.65 16.1842 15.9 16.0842C16.9 15.7342 17.55 14.7842 17.55 13.7342C17.55 13.0342 17.25 12.3342 16.7 11.8842C16.5 11.6842 16.5 11.3842 16.65 11.1842C16.85 10.9842 17.15 10.9842 17.35 11.1342C17.95 11.6842 18.35 12.4342 18.45 13.2342C19.5 13.1342 20.45 12.6842 21.2 11.8842C22 11.0342 22.45 9.93418 22.45 8.78418C22.45 6.28418 20.45 4.28418 17.95 4.28418C17.9 4.28418 17.85 4.28418 17.8 4.28418C17.6 4.28418 17.4 4.13418 17.3 3.93418C17 2.98418 16.05 2.28418 15 2.28418C13.6 2.28418 12.5 3.38418 12.5 4.78418C12.5 6.18418 13.6 7.28418 15 7.28418C15.3 7.28418 15.5 7.48418 15.5 7.78418C15.5 8.08418 15.3 8.28418 15 8.28418C13.75 8.28418 12.6 7.58418 12 6.58418C11.4 7.58418 10.25 8.28418 9 8.28418C8.7 8.28418 8.5 8.08418 8.5 7.78418C8.5 7.48418 8.7 7.28418 9 7.28418C10.4 7.28418 11.5 6.18418 11.5 4.78418C11.5 3.38418 10.4 2.28418 9 2.28418C7.95 2.28418 7 2.98418 6.65 3.98418C6.6 4.18418 6.4 4.33418 6.15 4.33418C6.1 4.33418 6.05 4.33418 6 4.33418C3.5 4.33418 1.5 6.33418 1.5 8.83418C1.5 9.98418 1.95 11.0842 2.75 11.9342C3.5 12.6842 4.45 13.1842 5.5 13.2842C5.6 12.4842 6 11.7342 6.6 11.1842C6.8 10.9842 7.1 11.0342 7.3 11.2342C7.5 11.4342 7.45 11.7342 7.25 11.9342C6.8 12.3842 6.5 13.0842 6.5 13.7842C6.5 14.8342 7.15 15.7842 8.15 16.1342C8.4 16.2342 8.55 16.5342 8.45 16.7842C8.4 16.9842 8.2 17.1342 8 17.1342C7.95 17.1342 7.9 17.1342 7.85 17.0842C6.6 16.6342 5.75 15.5342 5.55 14.2842C4.35 14.1842 3.25 13.7342 2.4 12.9342C1.8 13.3842 1.5 14.0342 1.5 14.7842C1.5 15.5842 1.9 16.3342 2.55 16.8342C2.75 16.9842 2.8 17.1842 2.75 17.3842C2.6 17.8842 2.5 18.3342 2.5 18.7842C2.5 21.2842 4.5 23.2842 7 23.2842C9.5 23.2842 11.5 21.2842 11.5 18.7842V10.7842C11.5 10.4842 11.7 10.2842 12 10.2842C12.3 10.2842 12.5 10.4842 12.5 10.7842V18.7842C12.5 21.2842 14.5 23.2842 17 23.2842C19.5 23.2842 21.5 21.2842 21.5 18.7842C21.5 18.3342 21.4 17.8842 21.25 17.3842C21.2 17.1842 21.25 16.9342 21.45 16.8342C22.1 16.3842 22.5 15.5842 22.5 14.7842C22.5 14.0342 22.2 13.3842 21.65 12.8842Z" fill="currentColor"/>
</svg>
