<svg width="24" height="25" viewBox="0 0 24 25" fill="none" xmlns="http://www.w3.org/2000/svg">
    <g clip-path="url(#clip0_1203_10751)">
        <path d="M15.125 22.7842H8.875C8.53 22.7842 8.25 22.5042 8.25 22.1592V21.5342H15.75V22.1592C15.75 22.5042 15.47 22.7842 15.125 22.7842Z" fill="currentColor"/>
        <path d="M12 2.78418C7.86437 2.78418 4.5 6.14855 4.5 10.2842C4.5 12.9804 5.9275 15.4329 8.25 16.7736V20.2842H15.75V16.7736C18.0725 15.4329 19.5 12.9811 19.5 10.2842C19.5 6.14855 16.1356 2.78418 12 2.78418ZM13.875 13.0429L12 11.1679L10.125 13.0429L7.36625 10.2842L8.25 9.40043L10.125 11.2754L12 9.40043L13.875 11.2754L15.75 9.40043L16.6337 10.2842L13.875 13.0429Z" fill="currentColor"/>
    </g>
    <defs>
        <clipPath id="clip0_1203_10751">
            <rect width="20" height="20" fill="white" transform="translate(2 2.78418)"/>
        </clipPath>
    </defs>
</svg>
