<svg width="20" height="17" viewBox="0 0 20 17" fill="none" xmlns="http://www.w3.org/2000/svg">
<path fill-rule="evenodd" clip-rule="evenodd" d="M0.75 15.8379C0.75 15.2409 1.23402 14.7568 1.83108 14.7568H18.744C19.3411 14.7568 19.8251 15.2409 19.8251 15.8379C19.8251 16.435 19.3411 16.919 18.744 16.919H1.83108C1.23402 16.919 0.75 16.435 0.75 15.8379Z" fill="#212226"/>
<path fill-rule="evenodd" clip-rule="evenodd" d="M0.75 2.00003C0.75 1.40296 1.23402 0.918945 1.83108 0.918945H18.744C19.3411 0.918945 19.8251 1.40296 19.8251 2.00003C19.8251 2.59709 19.3411 3.08111 18.744 3.08111H1.83108C1.23402 3.08111 0.75 2.59709 0.75 2.00003Z" fill="#212226"/>
<path fill-rule="evenodd" clip-rule="evenodd" d="M0.75 8.91897C0.75 8.32191 1.23402 7.83789 1.83108 7.83789H18.744C19.3411 7.83789 19.8251 8.32191 19.8251 8.91897C19.8251 9.51604 19.3411 10.0001 18.744 10.0001H1.83108C1.23402 10.0001 0.75 9.51604 0.75 8.91897Z" fill="#212226"/>
</svg>
