<svg width="25" height="25" viewBox="0 0 25 25" fill="none" xmlns="http://www.w3.org/2000/svg">
    <g clip-path="url(#clip0_260_6121)">
        <path d="M10.7909 17.6198C10.5257 17.6198 10.2714 17.5056 10.0839 17.3024L7.08393 14.0524C6.90178 13.8481 6.80098 13.5745 6.80326 13.2904C6.80554 13.0064 6.91071 12.7346 7.09612 12.5338C7.28152 12.3329 7.53234 12.219 7.79453 12.2165C8.05673 12.2141 8.30933 12.3233 8.49793 12.5206L10.6979 14.9039L17.0009 6.12134C17.1638 5.89436 17.4032 5.74675 17.6665 5.711C17.9298 5.67524 18.1954 5.75426 18.4049 5.93067C18.6145 6.10709 18.7507 6.36644 18.7837 6.65168C18.8167 6.93693 18.7438 7.22469 18.5809 7.45167L11.5809 17.2017C11.494 17.3234 11.3841 17.4237 11.2585 17.4958C11.133 17.5679 10.9947 17.6102 10.8529 17.6198H10.7909Z" fill="currentColor"/>
    </g>
    <defs>
        <clipPath id="clip0_260_6121">
            <rect width="12" height="13" fill="white" transform="translate(6.79102 5.70312)"/>
        </clipPath>
    </defs>
</svg>
