<svg width="25" height="25" viewBox="0 0 25 25" fill="none" xmlns="http://www.w3.org/2000/svg">
    <g clip-path="url(#clip0_2057_16737)">
        <path d="M12.9332 21.9141C18.3332 21.9141 22.5332 17.2641 24.3332 14.5641C25.0832 13.5141 25.0832 12.1641 24.3332 11.1141C22.5332 8.56406 18.3332 3.91406 12.9332 3.91406C7.5332 3.91406 3.3332 8.56406 1.5332 11.2641C0.783203 12.3141 0.783203 13.6641 1.5332 14.5641C3.3332 17.2641 7.5332 21.9141 12.9332 21.9141ZM12.9332 8.41406C15.4832 8.41406 17.4332 10.3641 17.4332 12.9141C17.4332 15.4641 15.4832 17.4141 12.9332 17.4141C10.3832 17.4141 8.4332 15.4641 8.4332 12.9141C8.4332 10.3641 10.3832 8.41406 12.9332 8.41406Z" fill="currentColor"/>
    </g>

    <defs>
        <clipPath id="clip0_2057_16737">
            <rect width="24" height="24" fill="currentColor" transform="translate(0.933594 0.914062)"/>
        </clipPath>
    </defs>
</svg>
