<svg width="25" height="25" viewBox="0 0 25 25" fill="none" xmlns="http://www.w3.org/2000/svg">
    <path d="M12.582 5.28418C7.58203 5.28418 3.31203 8.39418 1.58203 12.7842C3.31203 17.1742 7.58203 20.2842 12.582 20.2842C17.582 20.2842 21.852 17.1742 23.582 12.7842C21.852 8.39418 17.582 5.28418 12.582 5.28418ZM12.582 17.7842C9.82203 17.7842 7.58203 15.5442 7.58203 12.7842C7.58203 10.0242 9.82203 7.78418 12.582 7.78418C15.342 7.78418 17.582 10.0242 17.582 12.7842C17.582 15.5442 15.342 17.7842 12.582 17.7842ZM12.582 9.78418C10.922 9.78418 9.58203 11.1242 9.58203 12.7842C9.58203 14.4442 10.922 15.7842 12.582 15.7842C14.242 15.7842 15.582 14.4442 15.582 12.7842C15.582 11.1242 14.242 9.78418 12.582 9.78418Z" fill="currentColor"/>
</svg>
