<svg width="24" height="25" viewBox="0 0 24 25" fill="none" xmlns="http://www.w3.org/2000/svg">
<g clip-path="url(#clip0_3998_34099)">
<path d="M9.35579 15.6163C8.80668 15.0672 8.07576 14.7646 7.29902 14.7646C6.52228 14.7646 5.79135 15.0672 5.24153 15.6163C4.24296 16.6149 4.03278 19.6149 4.00077 20.2055C3.98987 20.412 4.06696 20.6135 4.21314 20.7589C4.34987 20.8957 4.5346 20.972 4.72733 20.972C4.74042 20.972 4.75352 20.972 4.76661 20.9713C5.35716 20.9393 8.35722 20.7291 9.35579 19.7306C9.90561 19.1815 10.2082 18.4505 10.2082 17.6738C10.2082 16.8971 9.90561 16.1654 9.35579 15.6163Z" fill="white"/>
<path d="M18.9852 5.33647C18.0747 4.72264 16.839 4.91247 16.063 5.68848C14.3931 7.35833 9.98433 11.7664 8.31812 13.4334C9.0934 13.6181 9.80687 14.0094 10.3843 14.5876C10.9582 15.1614 11.348 15.8683 11.5349 16.6378L19.3365 8.83545C20.3263 7.84561 20.2093 6.16194 18.9852 5.33647Z" fill="white"/>
</g>
<defs>
<clipPath id="clip0_3998_34099">
<rect width="16" height="16" fill="white" transform="translate(4 4.97168)"/>
</clipPath>
</defs>
</svg>
