<svg width="16" height="17" viewBox="0 0 16 17" fill="none" xmlns="http://www.w3.org/2000/svg">
<path d="M5.35603 10.8131C4.80693 10.264 4.07601 9.96143 3.29926 9.96143C2.52252 9.96143 1.7916 10.264 1.24177 10.8131C0.243205 11.8116 0.0330194 14.8117 0.00101884 15.4023C-0.00989045 15.6088 0.0672019 15.8103 0.213386 15.9557C0.350116 16.0925 0.534847 16.1688 0.727578 16.1688C0.740669 16.1688 0.75376 16.1688 0.766851 16.1681C1.35741 16.1361 4.35747 15.9259 5.35603 14.9273C5.90586 14.3782 6.20841 13.6473 6.20841 12.8706C6.20841 12.0938 5.90586 11.3622 5.35603 10.8131Z" fill="currentColor"/>
<path d="M14.9835 0.53374C14.073 -0.0800901 12.8373 0.109732 12.0613 0.885746C10.3914 2.5556 5.98262 6.96368 4.31641 8.63062C5.09169 8.81535 5.80516 9.20663 6.38263 9.78482C6.95646 10.3587 7.34628 11.0656 7.53319 11.835L15.3348 4.03272C16.3246 3.04288 16.2075 1.35921 14.9835 0.53374Z" fill="currentColor"/>
</svg>
