<svg width="24" height="25" viewBox="0 0 24 25" fill="none" xmlns="http://www.w3.org/2000/svg">
    <g clip-path="url(#clip0_181_2504)">
        <path d="M8.125 7.58789H2.5V20.7129C2.5 21.0579 2.78 21.3379 3.125 21.3379H8.125V7.58789Z" fill="currentColor"/>
        <path d="M9.375 7.58789V21.3379H21.875C22.22 21.3379 22.5 21.0579 22.5 20.7129V7.58789H9.375ZM11.875 10.0879H14.375V11.3379H11.875V10.0879ZM14.375 18.8379H11.875V17.5879H14.375V18.8379ZM17.5 16.3379H13.125V15.0879H17.5V16.3379ZM20 13.8379H14.375V12.5879H20V13.8379Z" fill="currentColor"/>
        <path d="M22.5 6.33789V4.46289C22.5 4.11789 22.22 3.83789 21.875 3.83789H3.125C2.78 3.83789 2.5 4.11789 2.5 4.46289V6.33789H22.5Z" fill="currentColor"/>
    </g>
    <defs>
        <clipPath id="clip0_181_2504">
            <rect width="20" height="20" fill="white" transform="translate(2.5 2.58789)"/>
        </clipPath>
    </defs>
</svg>
