<svg width="25" height="24" viewBox="0 0 25 24" fill="none" xmlns="http://www.w3.org/2000/svg">
    <g clip-path="url(#clip0_2304_20183)">
        <path d="M19.0078 5.48975H7.00781C6.47738 5.48975 5.96867 5.70046 5.5936 6.07553C5.21853 6.45061 5.00781 6.95931 5.00781 7.48975V7.88975L13.0078 12.3897L21.0078 7.98975V7.48975C21.0078 6.95931 20.7971 6.45061 20.422 6.07553C20.047 5.70046 19.5382 5.48975 19.0078 5.48975Z" fill="currentColor"/>
        <path d="M12.5078 14.3897L5.00781 10.1897V17.4897C5.00781 18.0202 5.21853 18.5289 5.5936 18.904C5.96867 19.279 6.47738 19.4897 7.00781 19.4897H19.0078C19.5382 19.4897 20.047 19.279 20.422 18.904C20.7971 18.5289 21.0078 18.0202 21.0078 17.4897V10.1897L13.5078 14.3897C13.3502 14.459 13.18 14.4947 13.0078 14.4947C12.8357 14.4947 12.6654 14.459 12.5078 14.3897Z" fill="currentColor"/>
    </g>
    <defs>
        <clipPath id="clip0_2304_20183">
            <rect width="16" height="16" fill="white" transform="translate(5.00781 4.48975)"/>
        </clipPath>
    </defs>
</svg>
