<svg width="24" height="25" viewBox="0 0 24 25" fill="none" xmlns="http://www.w3.org/2000/svg">
    <g clip-path="url(#clip0_181_2506)">
        <path d="M19.125 9.08789L20.5 6.46289L18.75 4.71289L16.125 6.08789C15.75 5.83789 15.25 5.71289 14.75 5.58789L13.75 2.58789H11.25L10.25 5.46289C9.875 5.58789 9.375 5.71289 9 5.96289L6.375 4.58789L4.5 6.46289L5.875 9.08789C5.625 9.46289 5.5 9.96289 5.375 10.3379L2.5 11.3379V13.8379L5.375 14.8379C5.5 15.3379 5.75 15.7129 5.875 16.2129L4.5 18.8379L6.25 20.5879L8.875 19.2129C9.25 19.4629 9.75 19.5879 10.25 19.7129L11.25 22.5879H13.75L14.75 19.7129C15.25 19.5879 15.625 19.3379 16.125 19.2129L18.75 20.5879L20.5 18.8379L19.125 16.2129C19.375 15.8379 19.5 15.3379 19.625 14.8379L22.5 13.8379V11.3379L19.625 10.3379C19.5 9.96289 19.375 9.46289 19.125 9.08789ZM12.5 16.3379C10.375 16.3379 8.75 14.7129 8.75 12.5879C8.75 10.4629 10.375 8.83789 12.5 8.83789C14.625 8.83789 16.25 10.4629 16.25 12.5879C16.25 14.7129 14.625 16.3379 12.5 16.3379Z" fill="currentColor"/>
    </g>
    <defs>
        <clipPath id="clip0_181_2506">
            <rect width="20" height="20" fill="white" transform="translate(2.5 2.58789)"/>
        </clipPath>
    </defs>
</svg>
