<svg width="24" height="25" viewBox="0 0 24 25" fill="none" xmlns="http://www.w3.org/2000/svg">
<g clip-path="url(#clip0_3677_26696)">
<path d="M12 16.25C14.0711 16.25 15.75 14.5711 15.75 12.5C15.75 10.4289 14.0711 8.75 12 8.75C9.92893 8.75 8.25 10.4289 8.25 12.5C8.25 14.5711 9.92893 16.25 12 16.25Z" stroke="#3AC6A3" stroke-linecap="round" stroke-linejoin="round"/>
<path d="M23.25 14V11L19.9845 10.4555C19.788 9.6875 19.4865 8.9645 19.092 8.3L21.0165 5.606L18.894 3.485L16.2 5.408C15.5355 5.0135 14.8125 4.712 14.0445 4.5155L13.5 1.25H10.5L9.9555 4.5155C9.1875 4.712 8.4645 5.0135 7.8 5.408L5.106 3.485L2.985 5.606L4.908 8.3C4.5135 8.9645 4.212 9.6875 4.0155 10.4555L0.75 11V14L4.0155 14.5445C4.212 15.3125 4.5135 16.0355 4.908 16.7L2.985 19.394L5.106 21.515L7.8 19.592C8.4645 19.9865 9.1875 20.288 9.9555 20.4845L10.5 23.75H13.5L14.0445 20.4845C14.8125 20.288 15.5355 19.9865 16.2 19.592L18.894 21.5165L21.015 19.3955L19.092 16.7C19.4865 16.0355 19.788 15.3125 19.9845 14.5445L23.25 14Z" stroke="#0A1A2B" stroke-linecap="round" stroke-linejoin="round"/>
</g>
<defs>
<clipPath id="clip0_3677_26696">
<rect width="24" height="24" fill="white" transform="translate(0 0.5)"/>
</clipPath>
</defs>
</svg>
