<svg width="25" height="25" viewBox="0 0 25 24" fill="none" xmlns="http://www.w3.org/2000/svg">
<path d="M19.1667 3.50228H9.68167L8.245 0.630612C8.17596 0.492056 8.06968 0.37547 7.93809 0.293927C7.80651 0.212383 7.65481 0.169105 7.5 0.168945L0.833333 0.168945C0.61232 0.168945 0.400358 0.256743 0.244078 0.413023C0.0877974 0.569303 0 0.781265 0 1.00228L0 15.1689C0 16.053 0.35119 16.9008 0.976311 17.526C1.60143 18.1511 2.44928 18.5023 3.33333 18.5023H16.6667C17.5507 18.5023 18.3986 18.1511 19.0237 17.526C19.6488 16.9008 20 16.053 20 15.1689V4.33561C20 4.1146 19.9122 3.90264 19.7559 3.74636C19.5996 3.59008 19.3877 3.50228 19.1667 3.50228V3.50228Z" fill="#0A1A2B"/>
</svg>
