<svg width="25" height="24" viewBox="0 0 25 24" fill="none" xmlns="http://www.w3.org/2000/svg">
    <path fill-rule="evenodd" clip-rule="evenodd" d="M12.2891 1.5C6.34205 1.5 1.52496 6.32369 1.52496 12.2641C1.52496 17.0217 4.6108 21.0525 8.88605 22.4798C9.42128 22.5789 9.61951 22.2485 9.61951 21.9577C9.61951 21.7 9.61291 21.026 9.6063 20.1274C6.61297 20.7749 5.97862 18.6869 5.97862 18.6869C5.48964 17.4446 4.78261 17.1142 4.78261 17.1142C3.80465 16.4468 4.85529 16.4601 4.85529 16.4601C5.93236 16.5393 6.50724 17.5702 6.50724 17.5702C7.46537 19.2155 9.02481 18.7397 9.63934 18.4622C9.73845 17.7684 10.016 17.2926 10.3199 17.0217C7.92792 16.7508 5.41696 15.8257 5.41696 11.7024C5.41696 10.5262 5.83325 9.56812 6.52706 8.81483C6.41473 8.54391 6.0447 7.44702 6.63279 5.96687C6.63279 5.96687 7.53806 5.67613 9.59308 7.07037C10.4521 6.83249 11.3706 6.71355 12.2891 6.70694C13.2009 6.70694 14.126 6.83249 14.985 7.07037C17.0401 5.67613 17.9453 5.96687 17.9453 5.96687C18.5334 7.44702 18.1634 8.54391 18.0511 8.81483C18.7383 9.56812 19.1546 10.5262 19.1546 11.7024C19.1546 15.8389 16.637 16.7442 14.2384 17.0151C14.6216 17.3455 14.9718 18.0063 14.9718 19.0107C14.9718 20.4512 14.9586 21.6075 14.9586 21.9643C14.9586 22.2551 15.1502 22.5855 15.6987 22.4798C19.9739 21.0525 23.0532 17.0217 23.0532 12.2707C23.0532 6.32369 18.2361 1.50661 12.2891 1.50661V1.5Z" stroke="#0A1A2B" stroke-miterlimit="10"/>
    <path d="M8.88607 22.4798C9.4213 22.579 9.61954 22.2486 9.61954 21.9578C9.61954 21.7001 9.61293 21.0261 9.60632 20.1275C6.61299 20.775 5.97864 18.687 5.97864 18.687C5.48966 17.4447 4.78263 17.1143 4.78263 17.1143C3.80467 16.4469 4.85531 16.4601 4.85531 16.4601C5.93238 16.5394 6.50726 17.5702 6.50726 17.5702C7.46539 19.2156 9.02483 18.7398 9.63936 18.4623C9.73848 17.7685 10.016 17.2927 10.32 17.0218C7.92794 16.7509 5.41698 15.8258 5.41698 11.7025C5.41698 10.5263 5.83327 9.56821 6.52709 8.81492C6.41475 8.544 6.04472 7.4471 6.63281 5.96696C6.63281 5.96696 7.53808 5.67621 9.5931 7.07046C10.4521 6.83258 11.3706 6.71364 12.2891 6.70703C13.201 6.70703 14.1261 6.83258 14.9851 7.07046C17.0401 5.67621 17.9454 5.96696 17.9454 5.96696C18.5335 7.4471 18.1634 8.544 18.0511 8.81492C18.7383 9.56821 19.1546 10.5263 19.1546 11.7025C19.1546 15.839 16.637 16.7443 14.2384 17.0152C14.6216 17.3456 14.9718 18.0064 14.9718 19.0107C14.9718 20.4512 14.9586 21.6076 14.9586 21.9644C14.9586 22.2552 15.1503 22.5856 15.6987 22.4798" stroke="#3AC6A3" stroke-miterlimit="10"/>
</svg>
