<svg width="24" height="24" viewBox="0 0 24 24" fill="none" xmlns="http://www.w3.org/2000/svg">
    <path fill-rule="evenodd" clip-rule="evenodd" d="M11.9996 2.46582C6.59959 2.46582 2.22559 6.84582 2.22559 12.2398C2.22559 16.5598 5.02759 20.2198 8.90959 21.5158C9.39559 21.6058 9.57559 21.3058 9.57559 21.0418C9.57559 20.8078 9.56959 20.1958 9.56359 19.3798C6.84559 19.9678 6.26959 18.0718 6.26959 18.0718C5.82559 16.9438 5.18359 16.6438 5.18359 16.6438C4.29559 16.0378 5.24959 16.0498 5.24959 16.0498C6.22759 16.1218 6.74959 17.0578 6.74959 17.0578C7.61959 18.5518 9.03559 18.1198 9.59359 17.8678C9.68359 17.2378 9.93559 16.8058 10.2116 16.5598C8.03959 16.3138 5.75959 15.4738 5.75959 11.7298C5.75959 10.6618 6.13759 9.79182 6.76759 9.10782C6.66559 8.86182 6.32959 7.86582 6.86359 6.52182C6.86359 6.52182 7.68559 6.25782 9.55159 7.52382C10.3316 7.30782 11.1656 7.19982 11.9996 7.19382C12.8276 7.19382 13.6676 7.30782 14.4476 7.52382C16.3136 6.25782 17.1356 6.52182 17.1356 6.52182C17.6696 7.86582 17.3336 8.86182 17.2316 9.10782C17.8556 9.79182 18.2336 10.6618 18.2336 11.7298C18.2336 15.4858 15.9476 16.3078 13.7696 16.5538C14.1176 16.8538 14.4356 17.4538 14.4356 18.3658C14.4356 19.6738 14.4236 20.7238 14.4236 21.0478C14.4236 21.3118 14.5976 21.6118 15.0956 21.5158C18.9776 20.2198 21.7736 16.5598 21.7736 12.2458C21.7736 6.84582 17.3996 2.47182 11.9996 2.47182V2.46582Z" fill="currentColor"/>
</svg>
