<svg width="24" height="25" viewBox="0 0 24 25" fill="none" xmlns="http://www.w3.org/2000/svg">
<path fill-rule="evenodd" clip-rule="evenodd" d="M11.9985 2C6.05146 2 1.23438 6.82369 1.23438 12.7641C1.23438 17.5217 4.32022 21.5525 8.59546 22.9798C9.13069 23.0789 9.32893 22.7485 9.32893 22.4577C9.32893 22.2 9.32232 21.526 9.31571 20.6274C6.32238 21.2749 5.68803 19.1869 5.68803 19.1869C5.19905 17.9446 4.49202 17.6142 4.49202 17.6142C3.51406 16.9468 4.5647 16.9601 4.5647 16.9601C5.64177 17.0393 6.21665 18.0702 6.21665 18.0702C7.17478 19.7155 8.73422 19.2397 9.34875 18.9622C9.44787 18.2684 9.72539 17.7926 10.0294 17.5217C7.63733 17.2508 5.12637 16.3257 5.12637 12.2024C5.12637 11.0262 5.54266 10.0681 6.23648 9.31483C6.12414 9.04391 5.75411 7.94702 6.3422 6.46687C6.3422 6.46687 7.24747 6.17613 9.30249 7.57037C10.1615 7.33249 11.08 7.21355 11.9985 7.20694C12.9104 7.20694 13.8354 7.33249 14.6945 7.57037C16.7495 6.17613 17.6547 6.46687 17.6547 6.46687C18.2428 7.94702 17.8728 9.04391 17.7605 9.31483C18.4477 10.0681 18.864 11.0262 18.864 12.2024C18.864 16.3389 16.3464 17.2442 13.9478 17.5151C14.331 17.8455 14.6812 18.5063 14.6812 19.5107C14.6812 20.9512 14.668 22.1075 14.668 22.4643C14.668 22.7551 14.8597 23.0855 15.4081 22.9798C19.6833 21.5525 22.7626 17.5217 22.7626 12.7707C22.7626 6.82369 17.9455 2.00661 11.9985 2.00661V2Z" stroke="#0A1A2B" stroke-miterlimit="10"/>
<path d="M8.59423 22.9797C9.12946 23.0788 9.3277 22.7484 9.3277 22.4577C9.3277 22.2 9.32109 21.526 9.31448 20.6273C6.32115 21.2749 5.6868 19.1868 5.6868 19.1868C5.19782 17.9446 4.49079 17.6142 4.49079 17.6142C3.51284 16.9468 4.56347 16.96 4.56347 16.96C5.64055 17.0393 6.21542 18.0701 6.21542 18.0701C7.17355 19.7155 8.73299 19.2397 9.34752 18.9622C9.44664 18.2684 9.72416 17.7926 10.0281 17.5217C7.6361 17.2508 5.12514 16.3257 5.12514 12.2024C5.12514 11.0262 5.54143 10.0681 6.23525 9.3148C6.12291 9.04388 5.75288 7.94698 6.34097 6.46683C6.34097 6.46683 7.24624 6.17609 9.30126 7.57034C10.1603 7.33246 11.0788 7.21352 11.9972 7.20691C12.9091 7.20691 13.8342 7.33246 14.6932 7.57034C16.7482 6.17609 17.6535 6.46683 17.6535 6.46683C18.2416 7.94698 17.8716 9.04388 17.7592 9.3148C18.4465 10.0681 18.8627 11.0262 18.8627 12.2024C18.8627 16.3389 16.3452 17.2442 13.9465 17.5151C14.3298 17.8455 14.68 18.5062 14.68 19.5106C14.68 20.9511 14.6668 22.1075 14.6668 22.4643C14.6668 22.7551 14.8584 23.0854 15.4069 22.9797" stroke="#3AC6A3" stroke-miterlimit="10"/>
</svg>
