<svg width="24" height="25" viewBox="0 0 24 25" fill="none" xmlns="http://www.w3.org/2000/svg">
    <g clip-path="url(#clip0_2057_16771)">
        <path d="M19.2611 6.01714C19.894 5.3842 20.2496 4.52575 20.2496 3.63064C20.2496 2.73552 19.894 1.87707 19.2611 1.24414C18.6281 0.611197 17.7697 0.255615 16.8746 0.255615C15.9795 0.255615 15.121 0.611197 14.4881 1.24414L14.2496 1.48864L14.0081 1.24639C13.3754 0.612949 12.5171 0.256773 11.6218 0.25621C10.7266 0.255647 9.86775 0.610745 9.23432 1.24339C8.60088 1.87603 8.2447 2.73439 8.24414 3.62964C8.24358 4.52489 8.59868 5.3837 9.23132 6.01714L14.2496 11.0346L19.2611 6.01714Z" fill="currentColor"/>
        <path d="M23.9474 17.7268C23.8392 17.2351 23.5663 16.7951 23.1739 16.4796C22.7815 16.1641 22.2931 15.9921 21.7896 15.9921H17.1531C17.2276 16.3473 17.2653 16.7092 17.2656 17.0721V17.8221C17.2656 18.021 17.1866 18.2118 17.046 18.3524C16.9053 18.4931 16.7145 18.5721 16.5156 18.5721H7.51562V17.0721H15.7656C15.7656 16.0775 15.3705 15.1237 14.6673 14.4204C13.964 13.7172 13.0102 13.3221 12.0156 13.3221H7.16913C6.64272 12.7442 6.00125 12.2829 5.28593 11.9678C4.57062 11.6526 3.79729 11.4906 3.01562 11.4921H0.015625V19.7421L6.90813 23.1921C8.26268 23.8695 9.82331 24.0096 11.2769 23.5843L22.4099 20.3256C22.9481 20.1685 23.4065 19.8125 23.692 19.33C23.9776 18.8474 24.0688 18.2742 23.9474 17.7268Z" fill="currentColor"/>
    </g>
    <defs>
        <clipPath id="clip0_2057_16771">
            <rect width="24" height="24" fill="currentColor" transform="translate(0 0.242188)"/>
        </clipPath>
    </defs>
</svg>
