<svg width="25" height="25" viewBox="0 0 25 25" fill="none" xmlns="http://www.w3.org/2000/svg">
    <g clip-path="url(#clip0_2196_17565)">
        <path d="M20.0184 6.55918C20.6513 5.92624 21.0069 5.06779 21.0069 4.17268C21.0069 3.27757 20.6513 2.41912 20.0184 1.78618C19.3855 1.15324 18.527 0.797661 17.6319 0.797661C16.7368 0.797661 15.8783 1.15324 15.2454 1.78618L15.0069 2.03068L14.7654 1.78843C14.1328 1.155 13.2744 0.798818 12.3791 0.798256C11.4839 0.797693 10.6251 1.15279 9.99164 1.78543C9.3582 2.41807 9.00203 3.27643 9.00147 4.17169C9.0009 5.06694 9.356 5.92575 9.98864 6.55918L15.0069 11.5767L20.0184 6.55918Z" fill="currentColor"/>
        <path d="M24.7042 18.2689C24.596 17.7772 24.3231 17.3372 23.9307 17.0217C23.5383 16.7062 23.05 16.5342 22.5465 16.5342H17.91C17.9845 16.8894 18.0222 17.2513 18.0225 17.6142V18.3642C18.0225 18.5631 17.9434 18.7539 17.8028 18.8945C17.6621 19.0352 17.4714 19.1142 17.2725 19.1142H8.27246V17.6142H16.5225C16.5225 16.6196 16.1274 15.6658 15.4241 14.9625C14.7208 14.2593 13.767 13.8642 12.7725 13.8642H7.92596C7.39955 13.2863 6.75808 12.825 6.04277 12.5099C5.32746 12.1947 4.55412 12.0327 3.77246 12.0342H0.772461V20.2842L7.66496 23.7342C9.01951 24.4116 10.5801 24.5517 12.0337 24.1264L23.1667 20.8677C23.705 20.7106 24.1634 20.3547 24.4489 19.8721C24.7344 19.3895 24.8257 18.8163 24.7042 18.2689Z" fill="currentColor"/>
    </g>
    <defs>
        <clipPath id="clip0_2196_17565">
            <rect width="24" height="24" fill="white" transform="translate(0.756836 0.78418)"/>
        </clipPath>
    </defs>
</svg>
