<svg width="24" height="25" viewBox="0 0 24 25" fill="none" xmlns="http://www.w3.org/2000/svg">
    <path d="M21.1481 19.1467C21.1579 19.0486 21.1457 18.9495 21.1125 18.8567C21.0793 18.7638 21.026 18.6795 20.9563 18.6098L12.5342 10.1877C12.8641 9.12054 12.8273 7.97365 12.4295 6.92992C12.0317 5.88618 11.2958 5.0057 10.3393 4.4289C9.38279 3.85209 8.26067 3.61218 7.15191 3.74743C6.04316 3.88267 5.01161 4.38528 4.22179 5.17511C3.43197 5.96493 2.92936 6.99647 2.79411 8.10523C2.65887 9.21399 2.89878 10.3361 3.47558 11.2926C4.05239 12.2491 4.93286 12.985 5.9766 13.3828C7.02034 13.7806 8.16722 13.8175 9.23435 13.4875L10.9455 15.1987L11.367 16.4639C11.3997 16.5621 11.4548 16.6512 11.528 16.7244C11.6011 16.7975 11.6903 16.8526 11.7884 16.8854L13.0537 17.3068L13.774 18.0271L14.1954 19.2924C14.2281 19.3905 14.2833 19.4797 14.3564 19.5528C14.4296 19.6259 14.5187 19.6811 14.6168 19.7138L15.8821 20.1352L17.1851 21.4382C17.2937 21.5469 17.4366 21.6147 17.5895 21.6302C17.7424 21.6456 17.8959 21.6078 18.0242 21.5231L20.8526 19.6374C20.9352 19.5827 21.0046 19.5103 21.0558 19.4254C21.1069 19.3405 21.1385 19.2453 21.1481 19.1467ZM5.63565 8.94599C5.40256 8.7129 5.24383 8.41593 5.17952 8.09263C5.11521 7.76932 5.14822 7.43421 5.27436 7.12967C5.40051 6.82513 5.61413 6.56483 5.88821 6.38169C6.16229 6.19856 6.48452 6.10081 6.81416 6.10081C7.1438 6.10081 7.46603 6.19856 7.74011 6.38169C8.01419 6.56483 8.22781 6.82513 8.35396 7.12967C8.4801 7.43421 8.51311 7.76933 8.4488 8.09263C8.38449 8.41593 8.22576 8.7129 7.99267 8.94599C7.68011 9.25855 7.25619 9.43414 6.81416 9.43414C6.37213 9.43414 5.94821 9.25855 5.63565 8.94599Z" fill="currentColor"/>
</svg>
