<svg width="24" height="25" viewBox="0 0 24 25" fill="none" xmlns="http://www.w3.org/2000/svg">
<g clip-path="url(#clip0_3998_34118)">
<path d="M9.56129 16.8063C9.68267 16.9127 9.83854 16.9715 9.99996 16.9717C10.1768 16.9717 10.3463 16.9014 10.4714 16.7764C10.5964 16.6514 10.6666 16.4818 10.6666 16.305V12.9717H17.3333V18.305C17.3333 18.6586 17.4738 18.9977 17.7238 19.2478C17.9739 19.4978 18.313 19.6383 18.6666 19.6383C19.0202 19.6383 19.3594 19.4978 19.6094 19.2478C19.8595 18.9977 20 18.6586 20 18.305V11.6383C20 11.2847 19.8595 10.9456 19.6094 10.6955C19.3594 10.4455 19.0202 10.305 18.6666 10.305H10.6666V6.97165C10.6665 6.84367 10.6295 6.71843 10.5601 6.61089C10.4908 6.50335 10.3919 6.41806 10.2753 6.36519C10.1588 6.31233 10.0295 6.29413 9.90285 6.31277C9.77624 6.33142 9.65766 6.38611 9.56129 6.47032L4.22796 11.137C4.15657 11.1996 4.09938 11.2766 4.06019 11.3631C4.021 11.4496 4.00073 11.5434 4.00073 11.6383C4.00073 11.7332 4.021 11.8271 4.06019 11.9135C4.09938 12 4.15657 12.0771 4.22796 12.1397L9.56129 16.8063Z" fill="white"/>
</g>
<defs>
<clipPath id="clip0_3998_34118">
<rect width="16" height="16" fill="white" transform="translate(4 4.97168)"/>
</clipPath>
</defs>
</svg>
