<svg width="16" height="14" viewBox="0 0 16 14" fill="none" xmlns="http://www.w3.org/2000/svg">
<path d="M5.56056 11.0036C5.68194 11.11 5.83781 11.1687 5.99922 11.1689C6.17604 11.1689 6.3456 11.0987 6.47063 10.9737C6.59565 10.8486 6.66589 10.6791 6.66589 10.5023V7.16892H13.3326V12.5023C13.3326 12.8559 13.473 13.195 13.7231 13.4451C13.9731 13.6951 14.3123 13.8356 14.6659 13.8356C15.0195 13.8356 15.3587 13.6951 15.6087 13.4451C15.8587 13.195 15.9992 12.8559 15.9992 12.5023V5.83559C15.9992 5.48196 15.8587 5.14283 15.6087 4.89278C15.3587 4.64273 15.0195 4.50225 14.6659 4.50225H6.66589V1.16892C6.66576 1.04094 6.6288 0.915698 6.55941 0.808159C6.49002 0.700619 6.39115 0.615324 6.2746 0.56246C6.15804 0.509597 6.02874 0.491399 5.90212 0.51004C5.77551 0.528681 5.65693 0.583373 5.56056 0.667585L0.227225 5.33425C0.155842 5.39682 0.0986439 5.47392 0.0594576 5.56037C0.0202712 5.64683 0 5.74066 0 5.83559C0 5.93051 0.0202712 6.02434 0.0594576 6.1108C0.0986439 6.19726 0.155842 6.27435 0.227225 6.33692L5.56056 11.0036Z" fill="currentColor"/>
</svg>
