<svg width="24" height="25" viewBox="0 0 24 25" fill="none" xmlns="http://www.w3.org/2000/svg">
    <g clip-path="url(#clip0_169_2961)">
        <path d="M23 0.46582H1C0.4 0.46582 0 0.86582 0 1.46582V23.4658C0 24.0658 0.4 24.4658 1 24.4658H23C23.6 24.4658 24 24.0658 24 23.4658V1.46582C24 0.86582 23.6 0.46582 23 0.46582ZM7.1 20.9658H3.6V9.46582H7.2V20.9658H7.1ZM5.3 7.86582C4.2 7.86582 3.2 6.96582 3.2 5.76582C3.2 4.66582 4.1 3.66582 5.3 3.66582C6.4 3.66582 7.4 4.56582 7.4 5.76582C7.4 6.96582 6.5 7.86582 5.3 7.86582ZM20.5 20.9658H16.9V15.3658C16.9 14.0658 16.9 12.3658 15.1 12.3658C13.2 12.3658 13 13.7658 13 15.2658V20.9658H9.4V9.46582H12.8V11.0658C13.3 10.1658 14.4 9.26582 16.2 9.26582C19.8 9.26582 20.5 11.6658 20.5 14.7658V20.9658Z" fill="currentColor"/>
    </g>
    <defs>
        <clipPath id="clip0_169_2961">
            <rect width="24" height="24" fill="white" transform="translate(0 0.46582)"/>
        </clipPath>
    </defs>
</svg>
