<svg width="24" height="25" viewBox="0 0 24 25" fill="none" xmlns="http://www.w3.org/2000/svg">
    <g clip-path="url(#clip0_181_2501)">
        <path d="M17 10.4531H14.5V7.95312C14.5 7.29008 14.2366 6.6542 13.7678 6.18536C13.2989 5.71652 12.663 5.45312 12 5.45312C11.337 5.45312 10.7011 5.71652 10.2322 6.18536C9.76339 6.6542 9.5 7.29008 9.5 7.95312V10.4531H7V7.95312C7 6.62704 7.52678 5.35527 8.46447 4.41759C9.40215 3.47991 10.6739 2.95313 12 2.95312C13.3261 2.95313 14.5979 3.47991 15.5355 4.41759C16.4732 5.35527 17 6.62704 17 7.95312V10.4531Z" fill="currentColor"/>
        <path d="M19.5 11.7031H4.5C4.16848 11.7031 3.85054 11.8348 3.61612 12.0692C3.3817 12.3037 3.25 12.6216 3.25 12.9531V21.7031C3.25 22.0346 3.3817 22.3526 3.61612 22.587C3.85054 22.8214 4.16848 22.9531 4.5 22.9531H19.5C19.8315 22.9531 20.1495 22.8214 20.3839 22.587C20.6183 22.3526 20.75 22.0346 20.75 21.7031V12.9531C20.75 12.6216 20.6183 12.3037 20.3839 12.0692C20.1495 11.8348 19.8315 11.7031 19.5 11.7031ZM12 19.2031C11.5055 19.2031 11.0222 19.0565 10.6111 18.7818C10.2 18.5071 9.87952 18.1166 9.6903 17.6598C9.50108 17.203 9.45157 16.7004 9.54804 16.2154C9.6445 15.7304 9.8826 15.285 10.2322 14.9354C10.5819 14.5857 11.0273 14.3476 11.5123 14.2512C11.9972 14.1547 12.4999 14.2042 12.9567 14.3934C13.4135 14.5826 13.804 14.9031 14.0787 15.3142C14.3534 15.7253 14.5 16.2087 14.5 16.7031C14.5 17.3662 14.2366 18.0021 13.7678 18.4709C13.2989 18.9397 12.663 19.2031 12 19.2031Z" fill="currentColor"/>
    </g>
    <defs>
        <clipPath id="clip0_181_2501">
            <rect width="20" height="20" fill="white" transform="translate(2 2.95312)"/>
        </clipPath>
    </defs>
</svg>
