<svg width="20" height="19" viewBox="0 0 20 19" fill="none" xmlns="http://www.w3.org/2000/svg">
<path d="M19.1486 16.3626C19.1584 16.2645 19.1462 16.1654 19.113 16.0726C19.0798 15.9797 19.0265 15.8954 18.9568 15.8257L10.5347 7.40356C10.8646 6.33643 10.8278 5.18955 10.43 4.14581C10.0322 3.10208 9.29632 2.2216 8.3398 1.64479C7.38328 1.06799 6.26116 0.82808 5.1524 0.963325C4.04364 1.09857 3.0121 1.60118 2.22228 2.391C1.43246 3.18082 0.929845 4.21237 0.7946 5.32113C0.659355 6.42989 0.899265 7.552 1.47607 8.50852C2.05287 9.46504 2.93335 10.2009 3.97709 10.5987C5.02083 10.9965 6.16771 11.0334 7.23484 10.7034L8.94603 12.4146L9.36747 13.6798C9.40021 13.778 9.45533 13.8671 9.52847 13.9403C9.60162 14.0134 9.69078 14.0685 9.78891 14.1013L11.0542 14.5227L11.7745 15.243L12.1959 16.5083C12.2286 16.6064 12.2838 16.6956 12.3569 16.7687C12.43 16.8418 12.5192 16.897 12.6173 16.9297L13.8826 17.3511L15.1855 18.6541C15.2942 18.7628 15.4371 18.8306 15.59 18.8461C15.7429 18.8615 15.8964 18.8237 16.0246 18.7389L18.8531 16.8533C18.9357 16.7986 19.0051 16.7262 19.0563 16.6413C19.1074 16.5564 19.1389 16.4612 19.1486 16.3626ZM3.63614 6.16188C3.40305 5.9288 3.24432 5.63182 3.18001 5.30852C3.1157 4.98522 3.1487 4.65011 3.27485 4.34557C3.401 4.04102 3.61462 3.78073 3.8887 3.59759C4.16278 3.41445 4.48501 3.31671 4.81465 3.31671C5.14428 3.31671 5.46652 3.41445 5.7406 3.59759C6.01468 3.78073 6.2283 4.04102 6.35445 4.34557C6.48059 4.65011 6.5136 4.98522 6.44929 5.30852C6.38498 5.63182 6.22625 5.9288 5.99316 6.16188C5.6806 6.47444 5.25668 6.65004 4.81465 6.65004C4.37262 6.65004 3.9487 6.47444 3.63614 6.16188Z" fill="#0A1A2B"/>
</svg>
