<svg width="40" height="33" viewBox="0 0 40 33" fill="none" xmlns="http://www.w3.org/2000/svg">
    <path d="M16.0258 12.1036C16.0258 17.8735 14.6575 22.3907 11.921 25.6552C9.14688 28.9197 5.26693 31.0644 0.281105 32.0894V26.1676C4.06734 24.9909 6.61648 22.8652 7.92854 19.7904C8.67829 18.1582 8.97819 16.5828 8.82824 15.0644H-4.95911e-05V0.0893555H16.0258V12.1036ZM39.4805 12.1036C39.4805 17.7975 38.1497 22.2958 35.4881 25.5983C32.789 28.9007 28.8715 31.0644 23.7357 32.0894V26.1676C27.5595 24.9529 30.1274 22.8652 31.4394 19.9043C32.1142 18.348 32.3953 16.7347 32.2829 15.0644H23.4546V0.0893555H39.4805V12.1036Z" fill="currentColor"/>
</svg>
