<svg width="25" height="25" viewBox="0 0 25 25" fill="none" xmlns="http://www.w3.org/2000/svg">
    <path d="M18.3536 6.30617C18.3038 6.25603 18.244 6.21696 18.1781 6.19149C18.1122 6.16603 18.0417 6.15474 17.9711 6.15838C10.9193 6.52635 8.31431 12.808 8.28918 12.8714C8.25239 12.9627 8.24326 13.0629 8.26292 13.1594C8.28259 13.256 8.33017 13.3446 8.39977 13.4143L11.2435 16.258C11.3135 16.328 11.4027 16.3757 11.4997 16.3952C11.5967 16.4146 11.6973 16.4051 11.7889 16.3676C11.8518 16.342 18.0998 13.7079 18.4989 6.68923C18.5029 6.61876 18.4921 6.54823 18.4671 6.48223C18.442 6.41623 18.4034 6.35624 18.3536 6.30617ZM14.2486 11.8308C14.108 11.9714 13.9289 12.0672 13.7339 12.106C13.5388 12.1448 13.3367 12.125 13.1529 12.0489C12.9692 11.9728 12.8122 11.8439 12.7017 11.6786C12.5912 11.5132 12.5322 11.3188 12.5322 11.12C12.5322 10.9211 12.5912 10.7267 12.7017 10.5614C12.8122 10.396 12.9692 10.2672 13.1529 10.1911C13.3367 10.115 13.5388 10.0951 13.7339 10.1339C13.9289 10.1728 14.108 10.2685 14.2486 10.4092C14.4371 10.5977 14.543 10.8534 14.543 11.12C14.543 11.3866 14.4371 11.6423 14.2486 11.8308Z" fill="currentColor"/>
    <path d="M7.05962 15.5657C7.19221 15.4322 7.34985 15.3262 7.5235 15.2538C7.69715 15.1813 7.88339 15.1439 8.07155 15.1436C8.25971 15.1432 8.44608 15.1801 8.61997 15.2519C8.79387 15.3238 8.95187 15.4292 9.08491 15.5623C9.21796 15.6953 9.32344 15.8533 9.39529 16.0272C9.46715 16.2011 9.50397 16.3875 9.50365 16.5757C9.50333 16.7638 9.46587 16.9501 9.39342 17.1237C9.32097 17.2974 9.21496 17.455 9.08146 17.5876C8.52297 18.1461 6.50012 18.1576 6.50012 18.1576C6.50012 18.1576 6.50012 16.1237 7.05962 15.5657Z" fill="currentColor"/>
    <path d="M11.7066 7.26971C10.998 7.1464 10.2702 7.19549 9.58469 7.41283C8.89914 7.63018 8.276 8.00939 7.76795 8.51841C7.49911 8.78974 7.26538 9.09373 7.07222 9.42326C7.01566 9.5193 6.99262 9.63141 7.00673 9.74197C7.02083 9.85253 7.07128 9.95527 7.15014 10.034L8.15 11.0344C9.07909 9.5599 10.2872 8.28107 11.7066 7.26971Z" fill="currentColor"/>
    <path d="M17.388 12.9512C17.5113 13.6597 17.4622 14.3875 17.2449 15.073C17.0275 15.7586 16.6483 16.3817 16.1393 16.8898C15.8679 17.1586 15.564 17.3924 15.2344 17.5855C15.1384 17.6421 15.0263 17.6651 14.9157 17.651C14.8052 17.6369 14.7024 17.5865 14.6237 17.5076L13.6233 16.5077C15.0978 15.5786 16.3766 14.3705 17.388 12.9512Z" fill="currentColor"/>
</svg>
