<svg width="25" height="25" viewBox="0 0 25 25" fill="none" xmlns="http://www.w3.org/2000/svg">
    <path d="M21.0375 4.00687C20.9628 3.93166 20.8731 3.87304 20.7742 3.83485C20.6753 3.79665 20.5695 3.77972 20.4636 3.78518C9.88593 4.33714 5.97848 13.7597 5.94078 13.8547C5.88561 13.9917 5.87191 14.142 5.9014 14.2868C5.9309 14.4315 6.00228 14.5645 6.10667 14.669L10.3723 18.9346C10.4773 19.0395 10.611 19.1111 10.7565 19.1403C10.9021 19.1696 11.053 19.1552 11.1904 19.099C11.2847 19.0606 20.6567 15.1094 21.2554 4.58145C21.2614 4.47574 21.2452 4.36995 21.2076 4.27095C21.1701 4.17195 21.1121 4.08197 21.0375 4.00687ZM14.88 12.2938C14.6691 12.5047 14.4003 12.6484 14.1078 12.7067C13.8152 12.7649 13.512 12.735 13.2364 12.6209C12.9608 12.5068 12.7253 12.3135 12.5595 12.0655C12.3938 11.8175 12.3053 11.5259 12.3053 11.2276C12.3053 10.9293 12.3938 10.6377 12.5595 10.3897C12.7253 10.1417 12.9608 9.94838 13.2364 9.83425C13.512 9.72012 13.8152 9.69028 14.1078 9.7485C14.4003 9.80673 14.6691 9.95041 14.88 10.1614C15.1627 10.4442 15.3215 10.8277 15.3215 11.2276C15.3215 11.6275 15.1627 12.011 14.88 12.2938Z" fill="currentColor"/>
    <path d="M4.09609 17.8963C4.29497 17.6961 4.53143 17.5371 4.79191 17.4284C5.05238 17.3197 5.33174 17.2635 5.61398 17.263C5.89621 17.2626 6.17577 17.3178 6.43661 17.4256C6.69745 17.5334 6.93445 17.6916 7.13402 17.8912C7.33359 18.0907 7.49181 18.3277 7.59959 18.5886C7.70737 18.8494 7.76261 19.129 7.76213 19.4112C7.76165 19.6934 7.70546 19.9728 7.59679 20.2333C7.48811 20.4937 7.32909 20.7302 7.12884 20.9291C6.2911 21.7668 3.25684 21.7842 3.25684 21.7842C3.25684 21.7842 3.25684 18.7333 4.09609 17.8963Z" fill="currentColor"/>
    <path d="M11.0661 5.45229C10.0033 5.26732 8.91158 5.34095 7.88326 5.66697C6.85494 5.99299 5.92023 6.56181 5.15815 7.32533C4.75489 7.73233 4.40429 8.18832 4.11456 8.68261C4.02972 8.82667 3.99516 8.99484 4.01632 9.16068C4.03747 9.32652 4.11315 9.48063 4.23143 9.59877L5.73123 11.0993C7.12486 8.88757 8.93707 6.96932 11.0661 5.45229Z" fill="currentColor"/>
    <path d="M19.5884 13.9745C19.7734 15.0373 19.6998 16.129 19.3738 17.1573C19.0477 18.1857 18.4789 19.1204 17.7154 19.8824C17.3084 20.2857 16.8524 20.6363 16.3581 20.926C16.2141 21.0109 16.0459 21.0454 15.88 21.0243C15.7142 21.0031 15.5601 20.9275 15.442 20.8092L13.9414 19.3094C16.1532 17.9157 18.0714 16.1035 19.5884 13.9745Z" fill="currentColor"/>
</svg>
