<svg width="25" height="25" viewBox="0 0 25 25" fill="none" xmlns="http://www.w3.org/2000/svg">
    <g clip-path="url(#clip0_2196_17563)">
        <path d="M15.2568 12.7842H12.2568V15.7842H9.25684V12.7842H6.25684V9.78418H9.25684V6.78418H12.2568V9.78418H15.2568V12.7842Z" fill="currentColor"/>
        <path d="M10.7568 21.7842C4.96684 21.7842 0.256836 17.0742 0.256836 11.2842C0.256836 5.49418 4.96684 0.78418 10.7568 0.78418C16.5468 0.78418 21.2568 5.49418 21.2568 11.2842C21.2568 17.0742 16.5468 21.7842 10.7568 21.7842ZM10.7568 3.78418C6.62134 3.78418 3.25684 7.14868 3.25684 11.2842C3.25684 15.4197 6.62134 18.7842 10.7568 18.7842C14.8923 18.7842 18.2568 15.4197 18.2568 11.2842C18.2568 7.14868 14.8923 3.78418 10.7568 3.78418Z" fill="currentColor"/>
        <path d="M23.8174 22.2237L20.2279 18.6342C19.6114 19.4277 18.9004 20.1387 18.1069 20.7552L21.6964 24.3447C21.9889 24.6372 22.3729 24.7842 22.7569 24.7842C23.1409 24.7842 23.5249 24.6372 23.8174 24.3447C24.4039 23.7582 24.4039 22.8102 23.8174 22.2237Z" fill="currentColor"/>
    </g>
    <defs>
        <clipPath id="clip0_2196_17563">
            <rect width="24" height="24" fill="white" transform="translate(0.256836 0.78418)"/>
        </clipPath>
    </defs>
</svg>
