<svg width="25" height="24" viewBox="0 0 25 24" fill="none" xmlns="http://www.w3.org/2000/svg">
    <g clip-path="url(#clip0_2057_16760)">
        <path d="M15.9336 12H12.9336V15H9.93359V12H6.93359V9H9.93359V6H12.9336V9H15.9336V12Z" fill="currentColor"/>
        <path d="M11.4336 21C5.64359 21 0.933594 16.29 0.933594 10.5C0.933594 4.71 5.64359 0 11.4336 0C17.2236 0 21.9336 4.71 21.9336 10.5C21.9336 16.29 17.2236 21 11.4336 21ZM11.4336 3C7.29809 3 3.93359 6.3645 3.93359 10.5C3.93359 14.6355 7.29809 18 11.4336 18C15.5691 18 18.9336 14.6355 18.9336 10.5C18.9336 6.3645 15.5691 3 11.4336 3Z" fill="currentColor"/>
        <path d="M24.4937 21.4395L20.9042 17.85C20.2877 18.6435 19.5767 19.3545 18.7832 19.971L22.3727 23.5605C22.6652 23.853 23.0492 24 23.4332 24C23.8172 24 24.2012 23.853 24.4937 23.5605C25.0802 22.974 25.0802 22.026 24.4937 21.4395Z" fill="currentColor"/>
    </g>
    <defs>
        <clipPath id="clip0_2057_16760">
            <rect width="24" height="24" fill="currentColor" transform="translate(0.933594)"/>
        </clipPath>
    </defs>
</svg>
