<svg width="21" height="21" viewBox="0 0 21 21" fill="none" xmlns="http://www.w3.org/2000/svg">
<path d="M17.125 7.30371L18.5 4.67871L16.75 2.92871L14.125 4.30371C13.75 4.05371 13.25 3.92871 12.75 3.80371L11.75 0.803711H9.25L8.25 3.67871C7.875 3.80371 7.375 3.92871 7 4.17871L4.375 2.80371L2.5 4.67871L3.875 7.30371C3.625 7.67871 3.5 8.17871 3.375 8.55371L0.5 9.55371V12.0537L3.375 13.0537C3.5 13.5537 3.75 13.9287 3.875 14.4287L2.5 17.0537L4.25 18.8037L6.875 17.4287C7.25 17.6787 7.75 17.8037 8.25 17.9287L9.25 20.8037H11.75L12.75 17.9287C13.25 17.8037 13.625 17.5537 14.125 17.4287L16.75 18.8037L18.5 17.0537L17.125 14.4287C17.375 14.0537 17.5 13.5537 17.625 13.0537L20.5 12.0537V9.55371L17.625 8.55371C17.5 8.17871 17.375 7.67871 17.125 7.30371ZM10.5 14.5537C8.375 14.5537 6.75 12.9287 6.75 10.8037C6.75 8.67871 8.375 7.05371 10.5 7.05371C12.625 7.05371 14.25 8.67871 14.25 10.8037C14.25 12.9287 12.625 14.5537 10.5 14.5537Z" fill="#0A1A2B"/>
</svg>
