<svg width="25" height="24" viewBox="0 0 25 24" fill="none" xmlns="http://www.w3.org/2000/svg">
    <g clip-path="url(#clip0_2057_16781)">
        <path d="M11.1017 2.69995C9.38204 2.45666 7.6289 2.73125 6.06599 3.48866C4.50307 4.24607 3.20126 5.45196 2.32668 6.95245C2.2422 7.09566 2.2077 7.26287 2.22861 7.42782C2.24952 7.59277 2.32464 7.7461 2.44218 7.8637L4.40418 9.82495C6.16481 7.04684 8.43768 4.62889 11.1017 2.69995V2.69995Z" fill="currentColor"/>
        <path d="M14.3223 19.7393L16.2895 21.7066C16.4072 21.8243 16.5606 21.8995 16.7257 21.9204C16.8909 21.9413 17.0582 21.9067 17.2015 21.8221C17.8411 21.4472 18.4312 20.9937 18.958 20.4721C19.9279 19.5093 20.6582 18.3323 21.0902 17.0358C21.5221 15.7392 21.6437 14.3594 21.445 13.0073C19.5163 15.6802 17.0996 17.9643 14.3223 19.7393V19.7393Z" fill="currentColor"/>
        <path d="M23.9329 0.225085C23.8586 0.150076 23.7694 0.0913413 23.6712 0.052608C23.5729 0.0138746 23.4677 -0.00401131 23.3622 8.51851e-05C9.42192 0.729085 4.27692 13.1393 4.22592 13.2646C4.17113 13.401 4.15763 13.5505 4.1871 13.6945C4.21657 13.8385 4.28771 13.9707 4.39167 14.0746L10.0782 19.7603C10.1826 19.8649 10.3157 19.9363 10.4606 19.9656C10.6055 19.9948 10.7558 19.9805 10.8927 19.9246C11.0172 19.8751 23.3629 14.6686 24.1519 0.793585C24.1572 0.688777 24.1405 0.584024 24.1027 0.486097C24.065 0.38817 24.0072 0.29925 23.9329 0.225085V0.225085ZM14.0269 12.0001C13.6561 12.0001 13.2936 11.8901 12.9852 11.6841C12.6769 11.4781 12.4366 11.1852 12.2946 10.8426C12.1527 10.5 12.1156 10.123 12.1879 9.75929C12.2603 9.39558 12.4389 9.06148 12.7011 8.79926C12.9633 8.53704 13.2974 8.35846 13.6611 8.28611C14.0248 8.21377 14.4018 8.2509 14.7445 8.39281C15.0871 8.53473 15.3799 8.77505 15.5859 9.08339C15.792 9.39173 15.9019 9.75425 15.9019 10.1251C15.9019 10.6224 15.7044 11.0993 15.3527 11.4509C15.0011 11.8025 14.5242 12.0001 14.0269 12.0001Z" fill="currentColor"/>
        <path d="M6.02334 18.1291C6.58576 18.6917 6.9017 19.4546 6.9017 20.2501C6.9017 21.0456 6.58576 21.8085 6.02334 22.3711C4.85184 23.5433 0.152344 24.0001 0.152344 24.0001C0.152344 24.0001 0.609094 19.3006 1.78134 18.1291C2.34393 17.5667 3.10685 17.2507 3.90234 17.2507C4.69784 17.2507 5.46076 17.5667 6.02334 18.1291V18.1291Z" fill="currentColor"/>
    </g>
    <defs>
        <clipPath id="clip0_2057_16781">
            <rect width="24" height="24" fill="currentColor" transform="translate(0.152344)"/>
        </clipPath>
    </defs>
</svg>
