<svg width="24" height="24" viewBox="0 0 24 24" fill="none" xmlns="http://www.w3.org/2000/svg">
    <path d="M21 12.22C21 6.73 16.74 3 12 3C7.31 3 3 6.65 3 12.28C2.4 12.62 2 13.26 2 14V16C2 17.1 2.9 18 4 18H5V11.9C5 8.03 8.13 4.9 12 4.9C15.87 4.9 19 8.03 19 11.9V19H11V21H19C20.1 21 21 20.1 21 19V17.78C21.59 17.47 22 16.86 22 16.14V13.84C22 13.14 21.59 12.53 21 12.22Z" fill="currentColor"/>
    <path d="M9 14C9.26522 14 9.51957 13.8946 9.70711 13.7071C9.89464 13.5196 10 13.2652 10 13C10 12.7348 9.89464 12.4804 9.70711 12.2929C9.51957 12.1054 9.26522 12 9 12C8.73478 12 8.48043 12.1054 8.29289 12.2929C8.10536 12.4804 8 12.7348 8 13C8 13.2652 8.10536 13.5196 8.29289 13.7071C8.48043 13.8946 8.73478 14 9 14Z" fill="currentColor"/>
    <path d="M15 14C15.2652 14 15.5196 13.8946 15.7071 13.7071C15.8946 13.5196 16 13.2652 16 13C16 12.7348 15.8946 12.4804 15.7071 12.2929C15.5196 12.1054 15.2652 12 15 12C14.7348 12 14.4804 12.1054 14.2929 12.2929C14.1054 12.4804 14 12.7348 14 13C14 13.2652 14.1054 13.5196 14.2929 13.7071C14.4804 13.8946 14.7348 14 15 14Z" fill="currentColor"/>
    <path d="M18 11.03C17.7615 9.62414 17.0334 8.34797 15.9444 7.42738C14.8555 6.5068 13.4759 6.00117 12.05 6C9.01997 6 5.75997 8.51 6.01997 12.45C7.2531 11.9454 8.34221 11.1435 9.1902 10.1158C10.0382 9.08808 10.6187 7.86652 10.88 6.56C12.19 9.19 14.88 11 18 11.03Z" fill="currentColor"/>
</svg>
