<svg width="25" height="25" viewBox="0 0 25 25" fill="none" xmlns="http://www.w3.org/2000/svg">
    <g clip-path="url(#clip0_2057_16746)">
        <path d="M5.43359 6.97729C6.67623 6.97729 7.68359 5.96994 7.68359 4.72729C7.68359 3.48465 6.67623 2.47729 5.43359 2.47729C4.19095 2.47729 3.18359 3.48465 3.18359 4.72729C3.18359 5.96994 4.19095 6.97729 5.43359 6.97729Z" fill="currentColor"/>
        <path d="M6.18359 18.9773V11.4773C6.18359 10.368 6.53159 9.33979 7.12109 8.49079C7.05884 8.48704 6.99659 8.47729 6.93359 8.47729H3.93359C2.27909 8.47729 0.933594 9.82279 0.933594 11.4773V15.9773H2.43359V21.2273H7.68359V18.9773H6.18359Z" fill="currentColor"/>
        <path d="M20.4336 6.97729C21.6762 6.97729 22.6836 5.96994 22.6836 4.72729C22.6836 3.48465 21.6762 2.47729 20.4336 2.47729C19.191 2.47729 18.1836 3.48465 18.1836 4.72729C18.1836 5.96994 19.191 6.97729 20.4336 6.97729Z" fill="currentColor"/>
        <path d="M19.6836 18.9773V11.4773C19.6836 10.368 19.3356 9.33979 18.7461 8.49079C18.8083 8.48704 18.8706 8.47729 18.9336 8.47729H21.9336C23.5881 8.47729 24.9336 9.82279 24.9336 11.4773V15.9773H23.4336V21.2273H18.1836V18.9773H19.6836Z" fill="currentColor"/>
        <path d="M14.4336 7.72729H11.4336C9.36584 7.72729 7.68359 9.40954 7.68359 11.4773V17.4773H9.93359V23.4773H15.9336V17.4773H18.1836V11.4773C18.1836 9.40954 16.5013 7.72729 14.4336 7.72729Z" fill="currentColor"/>
        <path d="M12.9336 6.22729C14.5904 6.22729 15.9336 4.88415 15.9336 3.22729C15.9336 1.57044 14.5904 0.227295 12.9336 0.227295C11.2767 0.227295 9.93359 1.57044 9.93359 3.22729C9.93359 4.88415 11.2767 6.22729 12.9336 6.22729Z" fill="currentColor"/>
    </g>
    <defs>
        <clipPath id="clip0_2057_16746">
            <rect width="24" height="24" fill="currentColor" transform="translate(0.933594 0.227295)"/>
        </clipPath>
    </defs>
</svg>
