<svg width="25" height="25" viewBox="0 0 25 25" fill="none" xmlns="http://www.w3.org/2000/svg">
    <g clip-path="url(#clip0_2196_17564)">
        <path d="M4.75684 7.53418C5.99948 7.53418 7.00684 6.52682 7.00684 5.28418C7.00684 4.04154 5.99948 3.03418 4.75684 3.03418C3.5142 3.03418 2.50684 4.04154 2.50684 5.28418C2.50684 6.52682 3.5142 7.53418 4.75684 7.53418Z" fill="currentColor"/>
        <path d="M5.50684 19.5342V12.0342C5.50684 10.9249 5.85484 9.89668 6.44434 9.04768C6.38209 9.04393 6.31984 9.03418 6.25684 9.03418H3.25684C1.60234 9.03418 0.256836 10.3797 0.256836 12.0342V16.5342H1.75684V21.7842H7.00684V19.5342H5.50684Z" fill="currentColor"/>
        <path d="M19.7568 7.53418C20.9995 7.53418 22.0068 6.52682 22.0068 5.28418C22.0068 4.04154 20.9995 3.03418 19.7568 3.03418C18.5142 3.03418 17.5068 4.04154 17.5068 5.28418C17.5068 6.52682 18.5142 7.53418 19.7568 7.53418Z" fill="currentColor"/>
        <path d="M19.0068 19.5342V12.0342C19.0068 10.9249 18.6588 9.89668 18.0693 9.04768C18.1316 9.04393 18.1938 9.03418 18.2568 9.03418H21.2568C22.9113 9.03418 24.2568 10.3797 24.2568 12.0342V16.5342H22.7568V21.7842H17.5068V19.5342H19.0068Z" fill="currentColor"/>
        <path d="M13.7568 8.28418H10.7568C8.68909 8.28418 7.00684 9.96643 7.00684 12.0342V18.0342H9.25684V24.0342H15.2568V18.0342H17.5068V12.0342C17.5068 9.96643 15.8246 8.28418 13.7568 8.28418Z" fill="currentColor"/>
        <path d="M12.2568 6.78418C13.9137 6.78418 15.2568 5.44103 15.2568 3.78418C15.2568 2.12733 13.9137 0.78418 12.2568 0.78418C10.6 0.78418 9.25684 2.12733 9.25684 3.78418C9.25684 5.44103 10.6 6.78418 12.2568 6.78418Z" fill="currentColor"/>
    </g>
    <defs>
        <clipPath id="clip0_2196_17564">
            <rect width="24" height="24" fill="white" transform="translate(0.256836 0.78418)"/>
        </clipPath>
    </defs>
</svg>
