<svg width="24" height="25" viewBox="0 0 24 25" fill="none" xmlns="http://www.w3.org/2000/svg">
    <path d="M24 4.96582C23.1 5.41582 22.2 5.56582 21.15 5.71582C22.2 5.11582 22.95 4.21582 23.25 3.01582C22.35 3.61582 21.3 3.91582 20.1 4.21582C19.2 3.31582 17.85 2.71582 16.5 2.71582C13.95 2.71582 11.7 4.96582 11.7 7.66582C11.7 8.11582 11.7 8.41582 11.85 8.71582C7.8 8.56582 4.05 6.61582 1.65 3.61582C1.2 4.36582 1.05 5.11582 1.05 6.16582C1.05 7.81582 1.95 9.31582 3.3 10.2158C2.55 10.2158 1.8 9.91582 1.05 9.61582C1.05 12.0158 2.7 13.9658 4.95 14.4158C4.5 14.5658 4.05 14.5658 3.6 14.5658C3.3 14.5658 3 14.5658 2.7 14.4158C3.3 16.3658 5.1 17.8658 7.35 17.8658C5.7 19.2158 3.6 19.9658 1.2 19.9658C0.75 19.9658 0.45 19.9658 0 19.9658C2.25 21.3158 4.8 22.2158 7.5 22.2158C16.5 22.2158 21.45 14.7158 21.45 8.26582C21.45 8.11582 21.45 7.81582 21.45 7.66582C22.5 6.91582 23.4 6.01582 24 4.96582Z" fill="currentColor"/>
</svg>
