<svg width="25" height="25" viewBox="0 0 25 25" fill="none" xmlns="http://www.w3.org/2000/svg">
    <path fill-rule="evenodd" clip-rule="evenodd" d="M12.6836 3.38965C12.8217 3.38965 12.9336 3.50158 12.9336 3.63965V7.33289C12.9336 7.47096 12.8217 7.58289 12.6836 7.58289C12.5455 7.58289 12.4336 7.47096 12.4336 7.33289V3.63965C12.4336 3.50158 12.5455 3.38965 12.6836 3.38965Z" fill="currentColor" stroke="currentColor" stroke-width="0.5" stroke-linecap="round"/>
    <path fill-rule="evenodd" clip-rule="evenodd" d="M10.5869 5.48633C10.5869 5.34826 10.6988 5.23633 10.8369 5.23633H14.5302C14.6682 5.23633 14.7802 5.34826 14.7802 5.48633C14.7802 5.6244 14.6682 5.73633 14.5302 5.73633H10.8369C10.6988 5.73633 10.5869 5.6244 10.5869 5.48633Z" fill="currentColor" stroke="currentColor" stroke-width="0.5" stroke-linecap="round"/>
    <g clip-path="url(#clip0_1155_11282)">
        <path d="M13.6836 17.3492C13.6836 16.7452 13.4186 16.1702 12.9456 15.7952C12.2226 15.2212 10.9686 14.5132 9.18359 14.5132C7.39859 14.5132 6.14459 15.2212 5.42159 15.7952C4.94859 16.1702 4.68359 16.7452 4.68359 17.3492V18.5132H13.6836V17.3492Z" fill="currentColor"/>
        <path d="M9.18359 13.5132C10.5643 13.5132 11.6836 12.3939 11.6836 11.0132C11.6836 9.63247 10.5643 8.51318 9.18359 8.51318C7.80288 8.51318 6.68359 9.63247 6.68359 11.0132C6.68359 12.3939 7.80288 13.5132 9.18359 13.5132Z" fill="currentColor"/>
        <path d="M16.1836 13.5132C17.5643 13.5132 18.6836 12.3939 18.6836 11.0132C18.6836 9.63247 17.5643 8.51318 16.1836 8.51318C14.8029 8.51318 13.6836 9.63247 13.6836 11.0132C13.6836 12.3939 14.8029 13.5132 16.1836 13.5132Z" fill="currentColor"/>
        <path d="M19.9456 15.7952C19.2226 15.2212 17.9686 14.5132 16.1836 14.5132C15.6226 14.5132 15.1206 14.5882 14.6646 14.7022C15.3086 15.4222 15.6836 16.3492 15.6836 17.3492V18.5132H20.6836V17.3492C20.6836 16.7452 20.4186 16.1702 19.9456 15.7952Z" fill="currentColor"/>
    </g>
    <defs>
        <clipPath id="clip0_1155_11282">
            <rect width="25" height="25" fill="currentColor" transform="translate(4.68359 6.51318)"/>
        </clipPath>
    </defs>
</svg>
