<svg width="24" height="25" viewBox="0 0 24 25" fill="none" xmlns="http://www.w3.org/2000/svg">
    <g clip-path="url(#clip0_2196_17536)">
        <path fill-rule="evenodd" clip-rule="evenodd" d="M12.6836 3.38965C12.8217 3.38965 12.9336 3.50158 12.9336 3.63965V7.33289C12.9336 7.47096 12.8217 7.58289 12.6836 7.58289C12.5455 7.58289 12.4336 7.47096 12.4336 7.33289V3.63965C12.4336 3.50158 12.5455 3.38965 12.6836 3.38965Z" fill="currentColor" stroke="currentColor" stroke-width="0.5" stroke-linecap="round"/>
        <path fill-rule="evenodd" clip-rule="evenodd" d="M10.5869 5.48633C10.5869 5.34826 10.6988 5.23633 10.8369 5.23633H14.5302C14.6682 5.23633 14.7802 5.34826 14.7802 5.48633C14.7802 5.6244 14.6682 5.73633 14.5302 5.73633H10.8369C10.6988 5.73633 10.5869 5.6244 10.5869 5.48633Z" fill="currentColor" stroke="currentColor" stroke-width="0.5" stroke-linecap="round"/>
        <g clip-path="url(#clip1_2196_17536)">
            <path d="M13.1505 19.8435C13.1505 19.1486 12.8457 18.4871 12.3015 18.0557C11.4698 17.3954 10.0272 16.5809 7.97371 16.5809C5.92023 16.5809 4.47762 17.3954 3.64588 18.0557C3.10173 18.4871 2.79688 19.1486 2.79688 19.8435V21.1825H13.1505V19.8435Z" fill="currentColor"/>
            <path d="M7.97368 15.4305C9.56206 15.4305 10.8497 14.1429 10.8497 12.5545C10.8497 10.9661 9.56206 9.67847 7.97368 9.67847C6.38529 9.67847 5.09766 10.9661 5.09766 12.5545C5.09766 14.1429 6.38529 15.4305 7.97368 15.4305Z" fill="currentColor"/>
            <path d="M16.0264 15.4305C17.6148 15.4305 18.9024 14.1429 18.9024 12.5545C18.9024 10.9661 17.6148 9.67847 16.0264 9.67847C14.438 9.67847 13.1504 10.9661 13.1504 12.5545C13.1504 14.1429 14.438 15.4305 16.0264 15.4305Z" fill="currentColor"/>
            <path d="M20.3546 18.0557C19.5229 17.3954 18.0802 16.5809 16.0268 16.5809C15.3814 16.5809 14.8039 16.6672 14.2793 16.7983C15.0202 17.6266 15.4516 18.6931 15.4516 19.8435V21.1825H21.2036V19.8435C21.2036 19.1486 20.8987 18.4871 20.3546 18.0557Z" fill="currentColor"/>
        </g>
    </g>
    <defs>
        <clipPath id="clip0_2196_17536">
            <rect width="24" height="25" fill="white" transform="translate(2 2.78418)"/>
        </clipPath>
        <clipPath id="clip1_2196_17536">
            <rect width="18.4065" height="18.4065" fill="white" transform="translate(2.79688 7.37766)"/>
        </clipPath>
    </defs>
</svg>
