<svg version="1.0" xmlns="http://www.w3.org/2000/svg"
 width="24.000000pt" height="25.000000pt" viewBox="0 0 24.000000 25.000000"
 preserveAspectRatio="xMidYMid meet">

<g transform="translate(0.000000,25.000000) scale(0.100000,-0.100000)"
fill="#000000" stroke="none">
<path d="M53 231 c-64 -40 -72 -104 -19 -157 48 -48 95 -47 143 1 32 32 35 40
30 77 -11 79 -89 120 -154 79z m102 -36 c69 -68 -31 -170 -102 -103 -31 29
-30 72 2 103 31 32 69 32 100 0z"/>
<path d="M90 175 c0 -8 -7 -15 -15 -15 -8 0 -15 -7 -15 -15 0 -8 7 -15 15 -15
8 0 15 -7 15 -15 0 -8 7 -15 15 -15 8 0 15 7 15 15 0 8 7 15 15 15 8 0 15 7
15 15 0 8 -7 15 -15 15 -8 0 -15 7 -15 15 0 8 -7 15 -15 15 -8 0 -15 -7 -15
-15z"/>
<path d="M187 53 c-9 -9 22 -43 40 -43 18 0 16 14 -5 33 -21 19 -26 20 -35 10z"/>
</g>
</svg>
