<svg width="64" height="66" viewBox="0 0 64 66" fill="none" xmlns="http://www.w3.org/2000/svg">
<path d="M32.0019 64.0004C49.1497 64.0004 63.0507 50.0991 63.0507 32.9509C63.0507 15.8027 49.1497 1.90137 32.0019 1.90137C14.8541 1.90137 0.953125 15.8027 0.953125 32.9509C0.953125 50.0991 14.8541 64.0004 32.0019 64.0004Z" fill="#FFF6E5"/>
<path d="M29.421 49.9952C19.0066 49.9952 10.5352 41.5238 10.5352 31.1094C10.5352 20.695 19.0066 12.2236 29.421 12.2236C39.8353 12.2236 48.3068 20.695 48.3068 31.1094C48.3068 41.5238 39.8353 49.9952 29.421 49.9952Z" fill="#DDE9FF"/>
<path d="M60.6366 64.5937C60.0127 64.5937 59.4274 64.3507 58.9857 63.9102L38.668 42.618L40.9848 40.2988L62.298 60.6178C63.1988 61.5186 63.1988 63 62.2875 63.9102C61.847 64.3507 61.2605 64.5937 60.6366 64.5937Z" fill="#6F747E"/>
<path d="M40.9944 41.1158L61.8742 61.0211C62.5565 61.7034 62.5565 62.8145 61.8742 63.498C61.5435 63.8275 61.1042 64.0098 60.6357 64.0098C60.1684 64.0098 59.7279 63.8275 59.416 63.5167L39.4838 42.6276L40.9944 41.1158ZM40.9746 39.4824L37.8516 42.609L58.5712 64.3229C59.1414 64.8931 59.8891 65.1781 60.6357 65.1781C61.3823 65.1781 62.1301 64.8931 62.7002 64.3229C63.8405 63.1826 63.8405 61.3342 62.7002 60.1939L40.9746 39.4824Z" fill="#6F747E"/>
<path d="M33.2647 51.2755C22.8503 51.2755 14.3789 42.8041 14.3789 32.3897C14.3789 21.9753 22.8503 13.5039 33.2647 13.5039C43.6791 13.5039 52.1505 21.9753 52.1505 32.3897C52.1505 42.8041 43.6791 51.2755 33.2647 51.2755Z" fill="url(#paint0_linear_6288_18245)"/>
<path d="M56.3832 8.74286L59.5636 10.0912C60.2522 10.3831 60.2522 11.359 59.5636 11.6509L56.3832 12.9993C55.9786 13.1707 55.6564 13.4929 55.4846 13.8978L54.1363 17.0782C53.8444 17.7668 52.8685 17.7668 52.5766 17.0782L51.2282 13.8978C51.0568 13.4933 50.7346 13.1711 50.3297 12.9993L47.1493 11.6509C46.4607 11.359 46.4607 10.3831 47.1493 10.0912L50.3297 8.74286C50.7342 8.57141 51.0564 8.24921 51.2282 7.84431L52.5766 4.66392C52.8685 3.97531 53.8444 3.97531 54.1363 4.66392L55.4846 7.84431C55.6564 8.24921 55.9786 8.57141 56.3832 8.74286Z" fill="#74DFFF"/>
<path opacity="0.15" d="M59.5643 10.0914L59.1598 9.91992C59.0621 9.94309 58.9645 9.96982 58.8686 10.0105L55.6882 11.3588C54.8535 11.7127 54.1991 12.3675 53.8448 13.2022L52.4964 16.3826C52.4558 16.4782 52.4291 16.5762 52.4062 16.6738L52.5777 17.078C52.8696 17.7666 53.8455 17.7666 54.1374 17.078L55.4858 13.8976C55.6572 13.4931 55.9794 13.1709 56.3843 12.9991L59.5647 11.6507C60.253 11.3592 60.253 10.3833 59.5643 10.0914Z" fill="#74DFFF"/>
<path opacity="0.3" d="M52.8692 8.54005L54.2175 5.35966C54.2582 5.26414 54.2849 5.16648 54.3077 5.06846L54.1363 4.66392C53.8444 3.97531 52.8685 3.97531 52.5766 4.66392L51.2282 7.84431C51.0568 8.24885 50.7346 8.57106 50.3297 8.74285L47.1493 10.0912C46.4607 10.3831 46.4607 11.359 47.1493 11.6509L47.5535 11.8224C47.6515 11.7996 47.7491 11.7728 47.8447 11.7322L51.025 10.3838C51.8605 10.0296 52.5149 9.37515 52.8692 8.54005Z" fill="#74DFFF"/>
<path d="M52.543 8.40117L53.3585 6.47754" stroke="#74DFFF" stroke-width="3" stroke-miterlimit="10" stroke-linecap="round" stroke-linejoin="round"/>
<defs>
<linearGradient id="paint0_linear_6288_18245" x1="33.4145" y1="55.0403" x2="33.4145" y2="8.6422" gradientUnits="userSpaceOnUse">
<stop stop-color="#FFF7EF"/>
<stop offset="0.401" stop-color="#97C0FF"/>
<stop offset="0.591" stop-color="#96DAFF"/>
<stop offset="1" stop-color="#BFFFFF"/>
</linearGradient>
</defs>
</svg>
