<svg width="24" height="24" viewBox="0 0 24 24" fill="none" xmlns="http://www.w3.org/2000/svg">
<path fill-rule="evenodd" clip-rule="evenodd" d="M12.0006 2.46582C6.60056 2.46582 2.22656 6.84582 2.22656 12.2398C2.22656 16.5598 5.02856 20.2198 8.91056 21.5158C9.39656 21.6058 9.57656 21.3058 9.57656 21.0418C9.57656 20.8078 9.57056 20.1958 9.56456 19.3798C6.84656 19.9678 6.27056 18.0718 6.27056 18.0718C5.82656 16.9438 5.18456 16.6438 5.18456 16.6438C4.29656 16.0378 5.25056 16.0498 5.25056 16.0498C6.22856 16.1218 6.75056 17.0578 6.75056 17.0578C7.62056 18.5518 9.03656 18.1198 9.59456 17.8678C9.68456 17.2378 9.93656 16.8058 10.2126 16.5598C8.04056 16.3138 5.76056 15.4738 5.76056 11.7298C5.76056 10.6618 6.13856 9.79182 6.76856 9.10782C6.66656 8.86182 6.33056 7.86582 6.86456 6.52182C6.86456 6.52182 7.68656 6.25782 9.55256 7.52382C10.3326 7.30782 11.1666 7.19982 12.0006 7.19382C12.8286 7.19382 13.6686 7.30782 14.4486 7.52382C16.3146 6.25782 17.1366 6.52182 17.1366 6.52182C17.6706 7.86582 17.3346 8.86182 17.2326 9.10782C17.8566 9.79182 18.2346 10.6618 18.2346 11.7298C18.2346 15.4858 15.9486 16.3078 13.7706 16.5538C14.1186 16.8538 14.4366 17.4538 14.4366 18.3658C14.4366 19.6738 14.4246 20.7238 14.4246 21.0478C14.4246 21.3118 14.5986 21.6118 15.0966 21.5158C18.9786 20.2198 21.7746 16.5598 21.7746 12.2458C21.7746 6.84582 17.4006 2.47182 12.0006 2.47182V2.46582Z" fill="currentColor"/>
</svg>
