<?xml version="1.0" encoding="UTF-8"?>
<svg width="142px" height="142px" viewBox="0 0 142 142" version="1.1" xmlns="http://www.w3.org/2000/svg" xmlns:xlink="http://www.w3.org/1999/xlink">
    <!-- Generator: Sketch 64 (93537) - https://sketch.com -->
    <title>icon__transparent</title>
    <desc>Created with Sketch.</desc>
    <g id="icon__transparent" stroke="none" stroke-width="1" fill="none" fill-rule="evenodd">
        <rect x="0" y="0" width="142" height="142"></rect>
        <g id="Group" transform="translate(28.000000, 25.000000)" fill-rule="nonzero">
            <circle id="Oval" fill="#EC432D" cx="24.0293706" cy="12.7384615" r="1.93006993"></circle>
            <circle id="Oval" fill="#EC432D" cx="24.0615385" cy="34.9020979" r="1.93006993"></circle>
            <circle id="Oval" fill="#EC432D" cx="62.4377622" cy="79.2615385" r="1.93006993"></circle>
            <circle id="Oval" fill="#EC432D" cx="4.85734266" cy="46" r="1.93006993"></circle>
            <circle id="Oval" fill="#EC432D" cx="81.641958" cy="46" r="1.93006993"></circle>
            <circle id="Oval" fill="#EC432D" cx="62.4377622" cy="12.7384615" r="1.93006993"></circle>
            <circle id="Oval" fill="#EC432D" cx="62.4377622" cy="57.0979021" r="1.93006993"></circle>
            <circle id="Oval" fill="#EC432D" cx="24.0615385" cy="57.0657343" r="1.93006993"></circle>
            <circle id="Oval" fill="#EC432D" cx="62.4377622" cy="34.9342657" r="1.93006993"></circle>
            <circle id="Oval" fill="#EC432D" cx="43.2335664" cy="68.1636364" r="1.93006993"></circle>
            <circle id="Oval" fill="#EC432D" cx="43.2657343" cy="23.8363636" r="1.93006993"></circle>
            <circle id="Oval" fill="#EC432D" cx="24.0293706" cy="79.2615385" r="1.93006993"></circle>
            <path d="M27.2783217,10.8083916 C34.4195804,1.99440559 47.3188811,0.611188811 56.165035,7.75244755 C57.2909091,8.65314685 58.3202797,9.68251748 59.220979,10.8083916 C59.5426573,10.2615385 59.993007,9.77902098 60.572028,9.45734266 C60.958042,9.23216783 61.3440559,9.1034965 61.7944056,9.03916084 C53.6559441,-1.19020979 38.7622378,-2.86293706 28.565035,5.27552448 C27.1818182,6.4013986 25.8951049,7.65594406 24.8013986,9.03916084 C25.7986014,9.26433566 26.7314685,9.90769231 27.2783217,10.8083916 Z" id="Path" fill="#52C7EA"></path>
            <path d="M46.4825175,21.9062937 C49.634965,17.9818182 54.1384615,15.3762238 59.1244755,14.572028 C58.6097902,13.6391608 58.5132867,12.5132867 58.8993007,11.5160839 C53.0125874,12.3846154 47.6727273,15.4727273 43.9734266,20.1692308 C45.034965,20.3300699 45.9356643,20.9734266 46.4825175,21.9062937 Z" id="Path" fill="#52C7EA"></path>
            <path d="M34.3552448,17.048951 C36.5426573,18.3034965 38.4405594,19.9762238 40.0167832,21.9384615 C40.3384615,21.3916084 40.7888112,20.9090909 41.3678322,20.5874126 C41.7216783,20.3944056 42.1076923,20.2335664 42.5258741,20.1692308 C38.8587413,15.4727273 33.4867133,12.3524476 27.6,11.5160839 C27.7608392,11.9020979 27.8251748,12.3524476 27.8251748,12.7706294 C27.8251748,13.413986 27.6643357,14.0251748 27.3426573,14.572028 C29.8195804,14.958042 32.2,15.7944056 34.3552448,17.048951 Z" id="Path" fill="#52C7EA"></path>
            <path d="M62.4699301,31.1706294 C63.5636364,31.1706294 64.593007,31.6531469 65.3006993,32.4895105 C67.5202797,26.9244755 67.5202797,20.7482517 65.3328671,15.1832168 C65.0433566,15.5048951 64.7216783,15.7944056 64.3356643,16.0195804 C63.7888112,16.3412587 63.1776224,16.5020979 62.5342657,16.5020979 C64.3678322,21.2307692 64.3356643,26.441958 62.4699301,31.1706294 L62.4699301,31.1706294 Z" id="Path" fill="#52C7EA"></path>
            <path d="M59.220979,32.972028 C59.7678322,32.0391608 60.7006993,31.427972 61.7622378,31.234965 C58.0629371,26.5706294 52.7230769,23.4825175 46.8363636,22.5818182 C47.1902098,23.6111888 47.0937063,24.7370629 46.579021,25.6699301 C51.5328671,26.4741259 56.0363636,29.0797203 59.220979,32.972028 Z" id="Path" fill="#52C7EA"></path>
            <path d="M67.7776224,14.9902098 C78.779021,17.9174825 85.2769231,29.2083916 82.3496503,40.1776224 C82.1566434,40.8853147 81.9314685,41.5608392 81.6741259,42.2363636 C82.3174825,42.2363636 82.9608392,42.3972028 83.5076923,42.7188811 C83.8937063,42.9440559 84.2153846,43.2335664 84.5048951,43.5552448 C84.8265734,42.7188811 85.1160839,41.8825175 85.3412587,41.0461538 C88.7188811,28.4041958 81.2237762,15.4083916 68.5818182,11.9986014 C68.5818182,11.9986014 68.5818182,11.9986014 68.5818182,11.9986014 C67.7132867,11.7734266 66.8769231,11.5804196 65.9762238,11.4517483 C66.3300699,12.4811189 66.2335664,13.606993 65.7188811,14.5398601 C66.4265734,14.6685315 67.1020979,14.7972028 67.7776224,14.9902098 Z" id="Path" fill="#52C7EA"></path>
            <path d="M74.3076923,36.5426573 C71.7342657,35.0629371 68.9034965,34.0657343 65.9762238,33.6475524 C66.3300699,34.6769231 66.2657343,35.8027972 65.7188811,36.7356643 C70.7048951,37.5076923 75.2083916,40.0811189 78.393007,44.0055944 C78.9398601,43.1048951 79.8727273,42.4615385 80.9342657,42.2685315 C79.1006993,39.9846154 76.848951,38.0223776 74.3076923,36.5426573 Z" id="Path" fill="#52C7EA"></path>
            <path d="M66.2013986,57.0979021 C66.2013986,57.5160839 66.1370629,57.9342657 65.9762238,58.3524476 C71.8951049,57.5160839 77.234965,54.3958042 80.9342657,49.7314685 C79.8727273,49.5706294 78.9398601,48.9272727 78.393007,47.9944056 C75.2083916,51.9188811 70.6727273,54.5244755 65.6867133,55.2965035 C66.0405594,55.8111888 66.2013986,56.4545455 66.2013986,57.0979021 Z" id="Path" fill="#52C7EA"></path>
            <path d="M62.5020979,53.3342657 C63.5958042,53.3664336 64.593007,53.848951 65.3006993,54.6853147 C67.4881119,49.1202797 67.4881119,42.9440559 65.3006993,37.379021 C64.593007,38.1832168 63.5958042,38.6657343 62.5342657,38.6979021 C64.3356643,43.3944056 64.3034965,48.6055944 62.5020979,53.3342657 L62.5020979,53.3342657 Z" id="Path" fill="#52C7EA"></path>
            <path d="M62.5342657,75.4979021 C63.627972,75.5300699 64.6251748,76.0125874 65.3328671,76.848951 C67.5524476,71.2839161 67.5202797,65.1076923 65.3328671,59.5426573 C64.6251748,60.379021 63.627972,60.8615385 62.5342657,60.8937063 C64.3356643,65.558042 64.3356643,70.7692308 62.5342657,75.4979021 L62.5342657,75.4979021 Z" id="Path" fill="#52C7EA"></path>
            <path d="M85.3412587,50.9538462 C85.1160839,50.0853147 84.8265734,49.248951 84.5048951,48.4447552 C83.7972028,49.2811189 82.7678322,49.7636364 81.7062937,49.7636364 C81.9636364,50.406993 82.1888112,51.0825175 82.3818182,51.758042 C85.3412587,62.7594406 78.8111888,74.0825175 67.8097902,77.041958 C67.8097902,77.041958 67.8097902,77.041958 67.8097902,77.041958 C67.1342657,77.2027972 66.4587413,77.3636364 65.751049,77.4601399 C66.2979021,78.393007 66.3944056,79.551049 66.0083916,80.5482517 C66.8769231,80.4195804 67.7454545,80.2265734 68.613986,80.0013986 C81.2237762,76.5916084 88.751049,63.5958042 85.3412587,50.9538462 C85.3412587,50.9538462 85.3412587,50.9538462 85.3412587,50.9538462 L85.3412587,50.9538462 Z" id="Path" fill="#52C7EA"></path>
            <path d="M46.772028,69.4181818 C52.6909091,68.5496503 58.0307692,65.4615385 61.7622378,60.7972028 C60.7006993,60.6041958 59.7678322,59.9608392 59.220979,59.0601399 C56.0363636,62.9524476 51.5328671,65.558042 46.5468531,66.3622378 C47.0615385,67.2951049 47.1258741,68.420979 46.772028,69.4181818 Z" id="Path" fill="#52C7EA"></path>
            <path d="M52.1440559,74.951049 C49.9566434,73.6965035 48.0587413,72.0237762 46.4825175,70.0615385 C46.1608392,70.6083916 45.7104895,71.0909091 45.1314685,71.4125874 C44.7776224,71.6055944 44.3916084,71.7664336 43.9734266,71.8307692 C47.6405594,76.5272727 52.9804196,79.6475524 58.8993007,80.4839161 C58.5132867,79.4867133 58.6097902,78.3608392 59.1566434,77.427972 C56.6797203,77.041958 54.2993007,76.2055944 52.1440559,74.951049 Z" id="Path" fill="#52C7EA"></path>
            <path d="M34.3552448,74.951049 C32.2,76.2055944 29.8195804,77.041958 27.3426573,77.4601399 C27.8573427,78.393007 27.9216783,79.5188811 27.5678322,80.5160839 C33.4867133,79.6475524 38.8265734,76.5272727 42.4937063,71.8307692 C41.4321678,71.6377622 40.5314685,70.9944056 39.9846154,70.0937063 C38.4083916,72.0559441 36.5104895,73.6965035 34.3552448,74.951049 Z" id="Path" fill="#52C7EA"></path>
            <path d="M59.220979,81.1916084 C52.0797203,90.0055944 39.1482517,91.3888112 30.3342657,84.2475524 C29.2083916,83.3468531 28.179021,82.3174825 27.2783217,81.1916084 C26.9566434,81.7384615 26.5062937,82.220979 25.9272727,82.5426573 C25.5412587,82.7678322 25.1552448,82.8965035 24.7370629,82.9608392 C32.8755245,93.1902098 47.7370629,94.8629371 57.9664336,86.7244755 C59.3496503,85.5986014 60.6363636,84.3440559 61.7300699,82.9608392 C60.7006993,82.7678322 59.7678322,82.1244755 59.220979,81.1916084 Z" id="Path" fill="#52C7EA"></path>
            <path d="M23.9972028,60.8293706 C23.3538462,60.8293706 22.7104895,60.6685315 22.1636364,60.3468531 C21.8097902,60.1216783 21.4559441,59.8643357 21.1986014,59.5426573 C18.979021,65.1076923 18.979021,71.2839161 21.1664336,76.848951 C21.4237762,76.5272727 21.7776224,76.2377622 22.1314685,76.0125874 C22.6783217,75.6909091 23.3216783,75.5300699 23.9328671,75.5300699 C22.1314685,70.7692308 22.1314685,65.5258741 23.9972028,60.8293706 L23.9972028,60.8293706 Z" id="Path" fill="#52C7EA"></path>
            <path d="M27.2783217,59.027972 C26.7314685,59.9608392 25.7986014,60.572028 24.7370629,60.765035 C28.4363636,65.4293706 33.7762238,68.5496503 39.6951049,69.4503497 C39.3412587,68.420979 39.4055944,67.2951049 39.9524476,66.3622378 C34.9664336,65.5258741 30.4629371,62.9202797 27.2783217,59.027972 Z" id="Path" fill="#52C7EA"></path>
            <path d="M1.96223776,43.5552448 C2.66993007,42.7188811 3.6993007,42.2685315 4.76083916,42.2363636 C4.5034965,41.593007 4.27832168,40.9174825 4.08531469,40.241958 C1.12587413,29.2405594 7.65594406,17.9174825 18.6573427,14.9902098 C18.6573427,14.9902098 18.6573427,14.9902098 18.6573427,14.9902098 C19.3328671,14.8293706 20.0083916,14.6685315 20.7160839,14.572028 C20.1692308,13.6391608 20.0727273,12.4811189 20.4587413,11.4839161 C19.5902098,11.6125874 18.7216783,11.8055944 17.8853147,12.0307692 C5.24335664,15.4083916 -2.25174825,28.4363636 1.12587413,41.0783217 C1.38321678,41.9146853 1.64055944,42.7188811 1.96223776,43.5552448 Z" id="Path" fill="#52C7EA"></path>
            <path d="M12.1916084,55.4573427 C14.765035,56.9370629 17.5958042,57.9342657 20.5230769,58.3524476 C20.1692308,57.3230769 20.2335664,56.1972028 20.7482517,55.2643357 C15.7622378,54.4923077 11.2587413,51.8867133 8.07412587,47.9944056 C7.52727273,48.8951049 6.59440559,49.5384615 5.56503497,49.7314685 C7.36643357,52.0153846 9.61818182,53.9776224 12.1916084,55.4573427 Z" id="Path" fill="#52C7EA"></path>
            <path d="M18.6895105,77.0097902 C7.68811189,74.0503497 1.15804196,62.7594406 4.08531469,51.758042 C4.08531469,51.758042 4.08531469,51.758042 4.08531469,51.758042 C4.27832168,51.0825175 4.5034965,50.406993 4.76083916,49.7636364 C4.11748252,49.7636364 3.47412587,49.6027972 2.92727273,49.2811189 C2.57342657,49.0559441 2.21958042,48.7664336 1.96223776,48.4447552 C1.64055944,49.248951 1.35104895,50.1174825 1.12587413,50.9538462 C-2.25174825,63.5958042 5.21118881,76.5594406 17.8531469,79.9692308 C18.7216783,80.1944056 19.5902098,80.3874126 20.4587413,80.5160839 C20.1048951,79.4867133 20.2013986,78.393007 20.7160839,77.4601399 C20.0727273,77.3314685 19.365035,77.2027972 18.6895105,77.0097902 Z" id="Path" fill="#52C7EA"></path>
            <path d="M23.9972028,31.1384615 C22.1636364,26.441958 22.1636364,21.2307692 23.965035,16.5342657 C22.9034965,16.5020979 21.8741259,16.0195804 21.1664336,15.2153846 C18.979021,20.7804196 18.979021,26.9566434 21.1986014,32.4895105 C21.8741259,31.6531469 22.9034965,31.1384615 23.9972028,31.1384615 Z" id="Path" fill="#52C7EA"></path>
            <path d="M20.2979021,34.9020979 C20.2979021,34.4839161 20.3944056,34.0657343 20.5230769,33.6797203 C14.6041958,34.5482517 9.26433566,37.6363636 5.56503497,42.3006993 C5.98321678,42.365035 6.4013986,42.5258741 6.75524476,42.7188811 C7.3020979,43.0405594 7.75244755,43.4909091 8.07412587,44.0377622 C11.2587413,40.1132867 15.7944056,37.5076923 20.8125874,36.7356643 C20.4587413,36.1888112 20.2979021,35.5454545 20.2979021,34.9020979 Z" id="Path" fill="#52C7EA"></path>
            <path d="M39.7272727,22.5496503 C33.8405594,23.4503497 28.5006993,26.5384615 24.7692308,31.2027972 C25.8307692,31.3958042 26.7314685,32.0391608 27.2783217,32.972028 C30.4629371,29.0797203 34.9664336,26.4741259 39.9524476,25.6699301 C39.4377622,24.7048951 39.3412587,23.579021 39.7272727,22.5496503 Z" id="Path" fill="#52C7EA"></path>
            <path d="M23.965035,38.6657343 C22.9034965,38.6335664 21.8741259,38.151049 21.1986014,37.3146853 C19.0111888,42.8797203 18.979021,49.0559441 21.1664336,54.620979 C21.8741259,53.8167832 22.8713287,53.3020979 23.9328671,53.3020979 C22.1636364,48.5734266 22.1636364,43.3622378 23.965035,38.6657343 L23.965035,38.6657343 Z" id="Path" fill="#52C7EA"></path>
        </g>
    </g>
</svg>
