<?xml version="1.0" encoding="UTF-8"?>
<svg width="195px" height="104px" viewBox="0 0 195 104" version="1.1" xmlns="http://www.w3.org/2000/svg" xmlns:xlink="http://www.w3.org/1999/xlink">
    <!-- Generator: Sketch 64 (93537) - https://sketch.com -->
    <title>ockam-tool_company-white (padding)</title>
    <desc>Created with Sketch.</desc>
    <g id="ockam-tool_company-white-(padding)" stroke="none" stroke-width="1" fill="none" fill-rule="evenodd">
        <rect x="0" y="0" width="195" height="104"></rect>
        <g id="Group-Copy" transform="translate(20.000000, 20.000000)" fill="#0A1A2B" fill-rule="nonzero">
            <g id="Group-12">
                <path d="M50.2144423,23.8815069 C51.7899345,22.40586 53.9124721,21.5837139 56.1006564,21.6047945 C57.9824942,21.5626332 59.8205688,22.1528919 61.3085335,23.2912481 L61.5929975,23.5231355 L64,20.7615677 L63.715536,20.550761 C62.6652076,19.7286149 61.4835884,19.0961949 60.2144418,18.6745815 C58.901531,18.2318874 57.5010937,18 56.1006564,18 C54.4814,18 52.8621446,18.2951294 51.3741798,18.9064689 C49.95186,19.4967276 48.6389501,20.3188736 47.5229758,21.3729071 C45.2691466,23.5231355 44,26.4744292 44,29.552207 C44,31.0910958 44.3063456,32.608904 44.9409194,34.0213089 C45.5536106,35.3915524 46.4288841,36.6142312 47.5229758,37.6471841 C48.6389501,38.6801369 49.9299783,39.5233637 51.3522973,40.0925418 C52.8402629,40.7038811 54.4595184,41.0200912 56.0787748,40.9990106 C57.4792121,40.9990106 58.8577678,40.7882038 60.1706776,40.3244291 C61.4398242,39.9028157 62.5995618,39.249315 63.6280086,38.4482495 L63.9124726,38.2163621 L61.5492342,35.4758751 L61.2647703,35.6866818 C59.8205688,36.8039572 58.0700217,37.3731354 56.0568922,37.3731354 C54.9409189,37.3731354 53.8249456,37.1834094 52.7964988,36.761796 C50.8271335,35.9818112 49.2516413,34.464003 48.420131,32.5667427 C47.9824947,31.5970319 47.7855582,30.5640791 47.7855582,29.5100456 C47.7855582,28.4349315 47.9824947,27.3598173 48.420131,26.3690259 C48.8796499,25.4414764 49.4704595,24.5982496 50.2144423,23.8815069 Z" id="Path"></path>
                <path d="M81.7723217,23.7646113 C83.0669646,22.5115281 84.4508933,21.2364611 85.8571433,19.9613941 L86.1473219,19.6975871 L83.7366077,17.2573726 L83.4687503,17.5211796 C81.3482148,19.4997319 79.3169641,21.3683646 77.352679,23.1710455 C75.5892858,24.7758713 73.7812502,26.4466488 71.8839287,28.1833781 L71.8839287,0 L68,0 L68,41 L71.8839287,41 L71.8839287,32.8659517 L75.1205355,29.9201072 L83.4241069,41 L88,41 L77.9107142,27.3479893 C79.2500005,26.138874 80.5446434,24.9297587 81.7723217,23.7646113 Z" id="Path"></path>
                <path d="M108.972997,22.0090018 C108.7846,21.7769016 108.596202,21.5448015 108.360705,21.3127015 C107.748412,20.6586011 107.01837,20.1100009 106.217679,19.6458007 C105.32279,19.1183005 104.357252,18.7174003 103.344613,18.4431002 C102.214226,18.1477001 101.06029,18 99.8828037,18 C98.1636742,18 96.4680943,18.2954002 94.8902628,18.9073004 C93.3595303,19.4981006 91.9700968,20.363201 90.7926108,21.4182015 C89.6151239,22.4943019 88.6731349,23.7603024 88.0137429,25.1318031 C87.3308014,26.5455036 86.9775549,28.0858043 87.0011054,29.6261049 C87.0011054,31.1453055 87.3308014,32.6223062 87.9901934,34.0149068 C88.6260359,35.3653073 89.5444754,36.5891078 90.6748614,37.6230082 C91.8287978,38.6780087 93.2182323,39.5009091 94.7489638,40.0917093 C96.3738953,40.7036095 98.1165742,41.0201097 99.8828037,40.9990096 C101.06029,40.9990096 102.261326,40.8724096 103.391712,40.5770095 C104.404351,40.3238094 105.369889,39.9440093 106.264779,39.437609 C107.065469,38.9945089 107.771961,38.4670086 108.407804,37.8551084 C108.572652,37.6863083 108.7375,37.4964082 108.902348,37.3276081 C108.902348,37.5597083 108.902348,37.7918083 108.902348,38.0239084 L108.902348,40.5770095 L113,40.5770095 L113,18.4853003 L109.137845,18.4853003 L108.972997,22.0090018 Z M106.335428,23.9080025 C107.136119,24.6254028 107.771961,25.4905032 108.219406,26.4189035 C108.66685,27.389504 108.902348,28.4234044 108.902348,29.4784049 C108.925898,30.5545053 108.690401,31.6095058 108.219406,32.6012062 C107.324517,34.5002069 105.628937,36.0194076 103.509461,36.8001079 C101.248688,37.6019082 98.7288672,37.6019082 96.4916438,36.8001079 C91.9936463,35.0699072 89.8977209,30.4068052 91.7816988,26.3767036 C92.2291433,25.4483031 92.8649858,24.6043028 93.6656768,23.9080025 C96.3032458,21.6714016 100.165401,21.0173013 103.509461,22.2411018 C104.569199,22.6209019 105.511187,23.1906022 106.335428,23.9080025 L106.335428,23.9080025 Z" id="Shape"></path>
                <path d="M152.74303,19.8863001 C151.338181,18.6430568 149.380606,18 146.939393,18 C144.567272,18.0428705 142.563636,18.6001864 140.951515,19.6933831 C139.638787,20.5936627 138.533334,21.751165 137.727273,23.0801492 C137.358788,21.7726002 136.575758,20.5722274 135.470303,19.6933831 C134.088484,18.5787512 132.22303,18 129.94303,18 C127.524849,18.0428705 125.475152,18.6430568 123.84,19.779124 C122.596364,20.6579684 121.560001,21.751165 120.77697,22.9944083 C120.75394,22.6085741 120.73091,22.1798696 120.707879,21.751165 C120.661819,21.1938491 120.638788,20.6579684 120.615757,20.1435229 C120.592727,19.6290773 120.569697,19.1789376 120.523637,18.835974 L120.477576,18.5144455 L117,18.5144455 L117,40.9785648 L121.007273,40.9785648 L121.007273,29.0820131 C121.007273,28.0745573 121.214545,27.0671016 121.629091,26.1239515 C122.020606,25.2451072 122.596364,24.4520038 123.356364,23.8089469 C124.116363,23.1444548 124.991515,22.6300094 125.958788,22.2870457 C126.995151,21.9226468 128.100606,21.7297298 129.206061,21.751165 C130.772121,21.8154707 131.946667,22.2656105 132.729697,23.0372787 C133.512727,23.8303821 133.973333,24.8592731 134.019394,25.9310345 L134.019394,40.9785648 L138.026667,40.9785648 L138.026667,28.9319665 C138.049697,27.945946 138.28,26.9599255 138.694545,26.0596459 C139.086061,25.2022367 139.661818,24.4305686 140.375757,23.7875117 C141.112727,23.1444548 141.987878,22.6300094 142.932121,22.2870457 C143.945454,21.9226468 145.027879,21.7297298 146.133333,21.751165 C147.722424,21.8154707 148.94303,22.2656105 149.70303,23.0372787 C150.486061,23.8303821 150.946666,24.8592731 150.992727,25.9524698 L150.992727,41 L155,41 L155,24.9021436 C154.907879,22.8229264 154.147878,21.1509786 152.74303,19.8863001 Z" id="Path"></path>
                <path d="M21.0000001,3.78662417 C30.4522292,3.78662417 38.121019,11.2728238 38.121019,20.5 C38.121019,29.7271762 30.4522292,37.2133757 21.0000001,37.2133757 C11.5477707,37.2133757 3.87898087,29.7271762 3.87898087,20.5 C3.87898087,20.5 3.87898087,20.5 3.87898087,20.5 C3.90127394,11.2728238 11.5477707,3.80838636 21.0000001,3.78662417 L21.0000001,3.78662417 Z M21,0 C9.40764332,0 0,9.18365177 0,20.5 C0,31.8163481 9.40764332,41 21,41 C32.5923571,41 42,31.8163481 42,20.5 C42,9.18365177 32.5923571,0 21,0 L21,0 Z" id="Shape"></path>
            </g>
            <path d="M16.4743896,63.0291667 L16.4743896,56.2131667 L18.786961,56.2131667 L18.786961,55.5050108 L13.3651429,55.5050108 L13.3651429,56.2131667 L15.6777143,56.2131667 L15.6777143,63.0291667 L16.4743896,63.0291667 Z M27.7790647,63.1176861 C29.9256621,63.1176861 31.651792,61.5354004 31.651792,59.2670887 C31.651792,56.9987771 29.9256621,55.4164913 27.7790647,55.4164913 C25.6435323,55.4164913 23.9174024,56.9987771 23.9174024,59.2670887 C23.9174024,61.5354004 25.6435323,63.1176861 27.7790647,63.1176861 Z M27.7790647,62.3984654 C26.030805,62.3984654 24.7472725,61.0596082 24.7472725,59.2670887 C24.7472725,57.4745693 26.030805,56.1357121 27.7790647,56.1357121 C29.5383894,56.1357121 30.8219219,57.4745693 30.8219219,59.2670887 C30.8219219,61.0596082 29.5383894,62.3984654 27.7790647,62.3984654 Z M41.3188567,63.1176861 C43.4654541,63.1176861 45.191584,61.5354004 45.191584,59.2670887 C45.191584,56.9987771 43.4654541,55.4164913 41.3188567,55.4164913 C39.1833243,55.4164913 37.4571944,56.9987771 37.4571944,59.2670887 C37.4571944,61.5354004 39.1833243,63.1176861 41.3188567,63.1176861 Z M41.3188567,62.3984654 C39.570597,62.3984654 38.2870645,61.0596082 38.2870645,59.2670887 C38.2870645,57.4745693 39.570597,56.1357121 41.3188567,56.1357121 C43.0781814,56.1357121 44.3617139,57.4745693 44.3617139,59.2670887 C44.3617139,61.0596082 43.0781814,62.3984654 41.3188567,62.3984654 Z M55.7770383,63.0291667 L55.7770383,62.3210108 L52.2251942,62.3210108 L52.2251942,55.5050108 L51.4285188,55.5050108 L51.4285188,63.0291667 L55.7770383,63.0291667 Z M72.5330379,63.1176861 C73.88296,63.1176861 74.9673236,62.5423095 75.6312197,61.5685952 L75.0115834,61.1370628 C74.4694015,61.9226732 73.6284665,62.3984654 72.5330379,62.3984654 C70.7737132,62.3984654 69.5012457,61.0596082 69.5012457,59.2670887 C69.5012457,57.4745693 70.7737132,56.1357121 72.5330379,56.1357121 C73.6174015,56.1357121 74.4251418,56.6004394 74.9119989,57.3196602 L75.5205704,56.8770628 C74.8788041,55.9144134 73.8608301,55.4164913 72.5330379,55.4164913 C70.3975054,55.4164913 68.6713756,56.9987771 68.6713756,59.2670887 C68.6713756,61.5354004 70.3975054,63.1176861 72.5330379,63.1176861 Z M85.1212455,63.1176861 C87.2678429,63.1176861 88.9939728,61.5354004 88.9939728,59.2670887 C88.9939728,56.9987771 87.2678429,55.4164913 85.1212455,55.4164913 C82.985713,55.4164913 81.2595831,56.9987771 81.2595831,59.2670887 C81.2595831,61.5354004 82.985713,63.1176861 85.1212455,63.1176861 Z M85.1212455,62.3984654 C83.3729857,62.3984654 82.0894533,61.0596082 82.0894533,59.2670887 C82.0894533,57.4745693 83.3729857,56.1357121 85.1212455,56.1357121 C86.8805702,56.1357121 88.1641026,57.4745693 88.1641026,59.2670887 C88.1641026,61.0596082 86.8805702,62.3984654 85.1212455,62.3984654 Z M96.0054531,63.0291667 L96.0054531,58.0610108 C96.0054531,57.7179978 95.9611933,57.1979459 95.9611933,57.1979459 C95.9611933,57.1979459 96.2599466,57.684803 96.5033751,57.9835563 L98.749557,60.8604394 L98.8823362,60.8604394 L101.161713,57.9835563 C101.405141,57.684803 101.69283,57.1979459 101.69283,57.1979459 C101.69283,57.1979459 101.659635,57.7179978 101.659635,58.0610108 L101.659635,63.0291667 L102.43418,63.0291667 L102.43418,55.4164913 L102.312466,55.4164913 L98.8380764,59.7871407 L95.341557,55.4164913 L95.2309076,55.4164913 L95.2309076,63.0291667 L96.0054531,63.0291667 Z M109.899323,63.0291667 L109.899323,61.1591926 L110.806648,61.1591926 C112.864726,61.1591926 113.915894,59.9973745 113.915894,58.3376342 C113.915894,56.6446991 112.864726,55.5050108 110.806648,55.5050108 L109.102648,55.5050108 L109.102648,63.0291667 L109.899323,63.0291667 Z M110.762388,60.4621017 L109.899323,60.4621017 L109.899323,56.2131667 L110.762388,56.2131667 C112.455323,56.2131667 113.086024,57.0983615 113.086024,58.3376342 C113.086024,59.5769069 112.455323,60.4621017 110.762388,60.4621017 Z M119.677037,63.0291667 L120.174959,61.7677641 L123.981297,61.7677641 L124.490284,63.0291667 L125.331219,63.0291667 L122.144518,55.4275563 L122.011738,55.4275563 L118.891427,63.0291667 L119.677037,63.0291667 Z M123.693608,61.0817381 L120.451583,61.0817381 L121.779375,57.7401277 C121.923219,57.3860498 122.078128,56.843868 122.078128,56.843868 C122.078128,56.843868 122.221972,57.3860498 122.365816,57.7401277 L123.693608,61.0817381 Z M137.211271,63.1066212 L137.211271,55.5050108 L136.46992,55.5050108 L136.46992,60.583816 C136.46992,60.9046991 136.525245,61.435816 136.525245,61.435816 C136.525245,61.435816 136.215426,60.9932186 136.005193,60.7387251 L131.512829,55.4275563 L131.38005,55.4275563 L131.38005,63.0291667 L132.132465,63.0291667 L132.132465,57.9503615 C132.132465,57.6294784 132.066076,57.0983615 132.066076,57.0983615 L132.094341,57.1384646 C132.175445,57.2530877 132.414118,57.5872304 132.586128,57.7954524 L137.078491,63.1066212 L137.211271,63.1066212 Z M146.922595,63.0291667 L146.922595,60.6391407 L149.710959,55.5050108 L148.881089,55.5050108 L146.845141,59.2449589 C146.690231,59.5437121 146.524257,60.0084394 146.524257,60.0084394 C146.524257,60.0084394 146.369348,59.5326472 146.203374,59.2449589 L144.156361,55.5050108 L143.260102,55.5050108 L146.10379,60.6723355 L146.10379,63.0291667 L146.922595,63.0291667 Z" id="TOOLCOMPANY"></path>
        </g>
    </g>
</svg>
