<svg width="1920" height="1052" viewBox="0 0 1920 1052" fill="none" xmlns="http://www.w3.org/2000/svg">
<g clip-path="url(#clip0_6043_20557)">
<g opacity="0.7" filter="url(#filter0_f_6043_20557)">
<rect width="901" height="847" rx="24" transform="matrix(0.87755 0.479485 -0.87755 0.479485 977.285 716.5)" fill="url(#paint0_linear_6043_20557)"/>
</g>
<g opacity="0.7" filter="url(#filter1_f_6043_20557)">
<rect width="1163.47" height="1093.73" rx="24" transform="matrix(0.87755 0.479485 -0.87755 0.479485 708.809 581.5)" fill="url(#paint1_linear_6043_20557)"/>
</g>
<circle cx="488.62" cy="455.071" r="283.669" transform="rotate(-60 488.62 455.071)" stroke="url(#paint2_radial_6043_20557)"/>
<circle cx="284.169" cy="284.169" r="283.669" transform="matrix(-0.5 -0.866025 -0.866025 0.5 861.805 829.406)" stroke="url(#paint3_radial_6043_20557)"/>
<circle cx="720.785" cy="300.644" r="283.644" stroke="url(#paint4_radial_6043_20557)"/>
<circle cx="720.785" cy="888.932" r="283.644" stroke="url(#paint5_radial_6043_20557)"/>
<mask id="mask0_6043_20557" style="mask-type:alpha" maskUnits="userSpaceOnUse" x="681" y="104" width="910" height="935">
<path d="M1329.81 362.005C1329.81 484.535 1230.46 583.866 1107.9 583.866C985.349 583.866 681.5 609.531 681.5 487C681.5 364.469 830.945 104.5 953.499 104.5C1076.05 104.5 1329.81 239.474 1329.81 362.005Z" fill="#D9D9D9"/>
<path d="M1466.59 331C1466.59 453.531 1367.24 552.861 1244.68 552.861C1122.13 552.861 1022.78 448.892 1022.78 326.361C1022.78 203.831 1122.13 104.5 1244.68 104.5C1367.24 104.5 1466.59 208.469 1466.59 331Z" fill="#D9D9D9"/>
<path d="M1407.9 832C1407.9 954.531 1269.75 1038.5 1147.19 1038.5C1024.64 1038.5 925.287 939.169 925.287 816.639C925.287 694.108 1063.45 610.139 1186 610.139C1308.55 610.139 1407.9 709.469 1407.9 832Z" fill="#D9D9D9"/>
<path d="M1591 816.639C1591 939.169 1491.65 1038.5 1369.1 1038.5C1246.54 1038.5 1134.5 932.531 1134.5 810C1134.5 687.469 1233.85 588.139 1356.4 588.139C1478.96 588.139 1591 694.108 1591 816.639Z" fill="#D9D9D9"/>
</mask>
<g mask="url(#mask0_6043_20557)">
<path d="M1157.29 513.576C1188.11 531.369 1214.33 554.071 1235.52 580.124C1212.19 614.694 1180.84 644.633 1142.29 666.889C1019.92 737.544 866.777 706.65 780.448 600.354C863.02 477.952 1027.47 438.621 1157.29 513.576ZM1236.11 579.256C1214.87 553.21 1188.63 530.512 1157.79 512.71C1027.6 437.542 862.709 476.907 779.79 599.541C770.664 588.219 762.293 576.048 754.794 563.059C676.461 427.382 722.947 253.893 858.624 175.56C994.301 97.2266 1167.79 143.713 1246.12 279.39C1302.01 376.195 1294.36 492.25 1236.11 579.256ZM769.794 617.406C772.995 611.862 776.355 606.466 779.865 601.222C866.533 707.702 1020.08 738.606 1142.79 667.755C1181.39 645.474 1212.79 615.522 1236.18 580.936C1307.73 669.548 1321.48 796.536 1261.12 901.076C1182.79 1036.75 1009.3 1083.24 873.624 1004.91C737.947 926.573 691.461 753.083 769.794 617.406Z" stroke="url(#paint6_radial_6043_20557)"/>
</g>
<g filter="url(#filter2_f_6043_20557)">
<circle cx="165" cy="971.5" r="367" fill="url(#paint7_linear_6043_20557)"/>
</g>
<circle cx="1014" cy="759.5" r="285" fill="url(#paint8_linear_6043_20557)"/>
<g filter="url(#filter3_f_6043_20557)">
<circle cx="995" cy="337.5" r="189" fill="url(#paint9_linear_6043_20557)"/>
</g>
<g filter="url(#filter4_f_6043_20557)">
<circle cx="370.893" cy="189.393" r="24.8111" transform="rotate(120 370.893 189.393)" fill="#162535"/>
</g>
<g filter="url(#filter5_f_6043_20557)">
<circle cx="372.893" cy="196.393" r="24.8111" transform="rotate(120 372.893 196.393)" fill="url(#paint10_linear_6043_20557)"/>
</g>
<g filter="url(#filter6_f_6043_20557)">
<circle cx="1272.89" cy="504.388" r="35.7889" transform="rotate(120 1272.89 504.388)" fill="#162535"/>
</g>
<g filter="url(#filter7_f_6043_20557)">
<circle cx="1270.89" cy="504.389" r="35.7889" transform="rotate(120 1270.89 504.389)" fill="url(#paint11_linear_6043_20557)"/>
</g>
<g filter="url(#filter8_f_6043_20557)">
<circle cx="1337.39" cy="926.894" r="278.468" transform="rotate(120 1337.39 926.894)" fill="url(#paint12_linear_6043_20557)"/>
</g>
<g filter="url(#filter9_f_6043_20557)">
<circle cx="1304.15" cy="260.652" r="29.3932" transform="rotate(120 1304.15 260.652)" fill="url(#paint13_linear_6043_20557)"/>
</g>
<rect width="34.4696" height="39.7324" transform="translate(559 171.421) rotate(-15)" fill="#0F1923"/>
<path d="M575.101 167.829C575.735 167.215 576.655 166.999 577.495 167.268L593.835 172.492C594.61 172.74 595.206 173.365 595.417 174.152L599.536 189.524C599.75 190.322 599.537 191.174 598.973 191.777L587.403 204.152C586.795 204.802 585.876 205.061 585.017 204.824L567.904 200.093C567.087 199.867 566.45 199.225 566.231 198.406L561.921 182.321C561.696 181.483 561.943 180.588 562.566 179.984L575.101 167.829Z" fill="url(#paint14_linear_6043_20557)"/>
<path d="M577.435 167.458L593.774 172.682C594.485 172.909 595.031 173.482 595.225 174.203L599.343 189.575C599.539 190.307 599.344 191.088 598.827 191.641L587.257 204.016C586.7 204.612 585.857 204.849 585.071 204.632L567.957 199.901C567.208 199.694 566.624 199.105 566.423 198.354L562.113 182.27C561.907 181.501 562.134 180.681 562.705 180.127L575.24 167.972C575.821 167.409 576.664 167.211 577.435 167.458Z" stroke="#74DFFF" stroke-opacity="0.5" stroke-width="0.398787"/>
<g clip-path="url(#clip1_6043_20557)">
<path fill-rule="evenodd" clip-rule="evenodd" d="M586.388 178.087L584.987 185.447L590.253 190.776L591.386 189.597L587.985 178.434L586.388 178.087Z" fill="#74DFFF"/>
<path fill-rule="evenodd" clip-rule="evenodd" d="M586.387 178.087L579.954 180.881L578.261 187.496L583.354 192.044L590.252 190.776L586.387 178.087Z" fill="#36A7C9"/>
<path fill-rule="evenodd" clip-rule="evenodd" d="M572.94 182.185L572.002 182.997L575.574 194.722L576.805 194.874L581.659 186.462L572.94 182.185Z" fill="#36A7C9"/>
<path fill-rule="evenodd" clip-rule="evenodd" d="M572.918 182.176L580.304 181.993L583.077 191.095L576.789 194.883L572.918 182.176Z" fill="#74DFFF"/>
<path fill-rule="evenodd" clip-rule="evenodd" d="M580.611 182.992L577.578 183.409L579.47 179.244L583.354 181.649L580.611 182.992Z" fill="#58150D"/>
<path fill-rule="evenodd" clip-rule="evenodd" d="M583.354 181.649L580.61 183L577.578 183.409L576.578 180.125" fill="#36A7C9"/>
<path fill-rule="evenodd" clip-rule="evenodd" d="M582.712 189.88L579.983 191.297L583.734 193.236L585.759 189.537L582.712 189.88Z" fill="#36A7C9"/>
<path fill-rule="evenodd" clip-rule="evenodd" d="M578.704 176.784L576.277 179.191L577.562 183.407L580.213 181.707L578.704 176.784Z" fill="#36A7C9"/>
<path fill-rule="evenodd" clip-rule="evenodd" d="M580.923 184.028L578.131 185.222L579.413 189.432L582.402 188.882L580.923 184.028Z" fill="#36A7C9"/>
<path fill-rule="evenodd" clip-rule="evenodd" d="M583.089 191.13L579.98 191.286L581.241 195.425L584.589 196.056L583.089 191.13Z" fill="#36A7C9"/>
<path fill-rule="evenodd" clip-rule="evenodd" d="M585.755 189.527L583.088 191.131L584.588 196.056L587.016 193.665L585.755 189.527Z" fill="#74DFFF"/>
<path fill-rule="evenodd" clip-rule="evenodd" d="M580.922 184.028L583.905 183.462L585.188 187.672L582.401 188.882L580.922 184.028Z" fill="#74DFFF"/>
<path fill-rule="evenodd" clip-rule="evenodd" d="M578.707 176.786L582.063 177.431L583.347 181.647L580.212 181.725L578.707 176.786Z" fill="#74DFFF"/>
</g>
<path d="M1154.09 174.083C1154.59 173.356 1155.45 172.965 1156.33 173.065L1173.37 174.999C1174.18 175.091 1174.89 175.588 1175.25 176.318L1182.29 190.591C1182.65 191.332 1182.61 192.209 1182.18 192.911L1173.24 207.306C1172.78 208.062 1171.92 208.496 1171.04 208.431L1153.33 207.13C1152.48 207.068 1151.73 206.563 1151.36 205.803L1143.99 190.868C1143.61 190.09 1143.68 189.164 1144.17 188.45L1154.09 174.083Z" fill="url(#paint15_linear_6043_20557)"/>
<path d="M1156.31 173.263L1173.35 175.198C1174.09 175.282 1174.74 175.737 1175.07 176.407L1182.11 190.679C1182.45 191.358 1182.41 192.162 1182.01 192.806L1173.08 207.201C1172.64 207.894 1171.86 208.291 1171.05 208.232L1153.34 206.932C1152.57 206.875 1151.88 206.412 1151.54 205.714L1144.17 190.78C1143.82 190.066 1143.88 189.218 1144.33 188.563L1154.25 174.196C1154.71 173.53 1155.5 173.172 1156.31 173.263Z" stroke="#74DFFF" stroke-opacity="0.5" stroke-width="0.398787"/>
<path fill-rule="evenodd" clip-rule="evenodd" d="M1168.67 194.338L1173.39 193.274C1173.46 193.26 1173.53 193.231 1173.59 193.189C1173.65 193.146 1173.7 193.093 1173.74 193.03C1173.78 192.967 1173.8 192.898 1173.81 192.826C1173.82 192.753 1173.81 192.68 1173.79 192.61L1171.79 184.056C1171.75 183.915 1171.66 183.793 1171.53 183.718C1171.4 183.644 1171.25 183.621 1171.11 183.657L1166.4 184.72C1166.25 184.756 1166.13 184.846 1166.05 184.971C1165.98 185.095 1165.96 185.244 1165.99 185.384L1167.99 193.939C1168.03 194.08 1168.12 194.201 1168.25 194.276C1168.37 194.351 1168.53 194.373 1168.67 194.338Z" fill="#74DFFF"/>
<path fill-rule="evenodd" clip-rule="evenodd" d="M1167.05 199.624L1172.76 194.418C1172.98 194.204 1172.92 194.072 1172.63 194.177L1168.7 195.055C1168.53 195.095 1168.38 195.174 1168.26 195.286C1168.14 195.397 1168.05 195.537 1167.99 195.693L1166.8 199.465C1166.72 199.757 1166.83 199.837 1167.05 199.624Z" fill="#74DFFF"/>
<path fill-rule="evenodd" clip-rule="evenodd" d="M1156.61 197.925L1165.17 200.527C1165.32 200.554 1165.47 200.529 1165.6 200.456C1165.73 200.383 1165.83 200.268 1165.88 200.13L1167.31 195.613C1167.33 195.543 1167.34 195.469 1167.33 195.396C1167.32 195.323 1167.3 195.253 1167.27 195.188C1167.23 195.124 1167.18 195.068 1167.12 195.022C1167.06 194.976 1167 194.942 1166.93 194.922L1158.36 192.345C1158.22 192.304 1158.06 192.322 1157.93 192.393C1157.8 192.465 1157.7 192.585 1157.66 192.727L1156.23 197.234C1156.19 197.375 1156.21 197.527 1156.28 197.656C1156.35 197.786 1156.47 197.882 1156.61 197.925Z" fill="#74DFFF"/>
<path fill-rule="evenodd" clip-rule="evenodd" d="M1153.85 188.68L1155.59 196.153C1155.64 196.445 1155.78 196.445 1155.86 196.153L1157.05 192.381C1157.09 192.22 1157.09 192.053 1157.05 191.891C1157.02 191.73 1156.94 191.579 1156.83 191.451L1154.1 188.546C1153.9 188.326 1153.76 188.388 1153.85 188.68Z" fill="#74DFFF"/>
<path fill-rule="evenodd" clip-rule="evenodd" d="M1160.54 180.69L1153.98 186.66C1153.88 186.758 1153.82 186.893 1153.81 187.036C1153.81 187.179 1153.86 187.318 1153.96 187.423L1157.24 190.911C1157.34 191.017 1157.48 191.078 1157.62 191.084C1157.77 191.088 1157.91 191.036 1158.02 190.938L1164.58 184.959C1164.69 184.861 1164.75 184.726 1164.75 184.583C1164.76 184.44 1164.7 184.3 1164.61 184.195L1161.33 180.709C1161.28 180.657 1161.22 180.614 1161.15 180.585C1161.09 180.555 1161.02 180.539 1160.94 180.538C1160.87 180.536 1160.8 180.548 1160.73 180.575C1160.66 180.601 1160.6 180.64 1160.54 180.69Z" fill="#74DFFF"/>
<path fill-rule="evenodd" clip-rule="evenodd" d="M1166.88 194.204C1167.18 194.284 1167.37 194.126 1167.29 193.822L1165.39 185.747C1165.31 185.455 1165.06 185.375 1164.85 185.587L1158.67 191.23C1158.45 191.442 1158.51 191.68 1158.81 191.761L1166.88 194.204Z" fill="#74DFFF"/>
<path fill-rule="evenodd" clip-rule="evenodd" d="M1170.11 182.941L1162.63 180.691C1162.33 180.61 1162.28 180.717 1162.52 180.956L1165.26 183.852C1165.38 183.965 1165.53 184.047 1165.69 184.092C1165.85 184.137 1166.02 184.143 1166.19 184.11L1170.12 183.233C1170.41 183.153 1170.41 183.02 1170.11 182.941Z" fill="#74DFFF"/>
<path d="M495.414 717.833C496.29 717.945 497.033 718.529 497.348 719.353L503.47 735.377C503.76 736.138 503.644 736.994 503.162 737.65L493.726 750.466C493.237 751.131 492.438 751.497 491.615 751.433L474.724 750.123C473.837 750.054 473.061 749.498 472.71 748.679L465.719 732.358C465.386 731.578 465.489 730.68 465.992 729.997L475.865 716.587C476.379 715.888 477.232 715.523 478.093 715.632L495.414 717.833Z" fill="url(#paint16_linear_6043_20557)"/>
<path d="M497.161 719.424L503.284 735.449C503.55 736.146 503.443 736.931 503.001 737.532L493.566 750.348C493.117 750.957 492.385 751.293 491.63 751.234L474.74 749.924C473.926 749.861 473.215 749.351 472.893 748.601L465.903 732.279C465.597 731.565 465.692 730.742 466.153 730.116L476.025 716.705C476.497 716.065 477.279 715.73 478.068 715.83L495.389 718.031C496.192 718.133 496.873 718.669 497.161 719.424Z" stroke="#74DFFF" stroke-opacity="0.5" stroke-width="0.398787"/>
<g clip-path="url(#clip2_6043_20557)">
<path d="M486.316 741.107C486.889 740.195 486.921 740.038 487.568 740.535L487.737 740.635C488.279 740.922 489.056 741.15 489.576 741.154C490.693 741.163 491.571 740.71 490.58 740.469C488.32 739.919 488.508 739.155 488.508 739.155C492.21 736.957 495.055 733.29 494.745 731.917C493.899 728.169 489.581 727.71 489.504 727.715L489.483 727.709C489.116 727.432 488.684 727.166 488.177 726.916C487.253 726.46 486.422 726.385 485.687 726.536C485.687 726.536 480.366 720.686 477.759 726.978C477.205 728.316 474.953 737.76 478.338 736.187C479.576 735.611 480.717 735.169 480.717 735.169C480.976 735.6 481.362 735.939 481.866 736.121L481.917 736.107C481.848 736.225 481.794 736.352 481.757 736.483C480.908 736.841 481.019 737.029 479.8 736.732C478.566 736.431 479.031 737.156 479.412 737.468C479.873 737.847 480.996 738.604 482.354 737.846L482.259 737.962C482.395 738.239 481.87 739.312 481.535 740.097C481.201 740.883 480.913 741.628 480.869 742.127C480.826 742.626 480.493 743.806 482.104 744.185C483.448 744.5 484.559 744.566 486.301 741.103" fill="#74DFFF"/>
<path d="M490.585 740.471C488.324 739.921 488.512 739.158 488.512 739.158C492.214 736.959 495.06 733.292 494.75 731.918C493.904 728.171 489.586 727.712 489.508 727.716L489.487 727.711C489.12 727.434 488.688 727.167 488.181 726.918C487.256 726.462 486.426 726.386 485.691 726.537C485.691 726.537 480.369 720.687 477.763 726.979C477.209 728.318 474.957 737.762 478.342 736.188C479.58 735.612 480.72 735.171 480.72 735.171C480.98 735.602 481.372 735.944 481.869 736.122L481.921 736.109C481.853 736.221 481.805 736.339 481.761 736.485C480.912 736.843 481.023 737.03 479.804 736.733C478.57 736.433 479.035 737.158 479.416 737.47C479.877 737.848 481 738.606 482.357 737.848L482.263 737.963C482.399 738.241 482.098 739.274 481.66 740.131C481.222 740.988 480.923 741.579 480.875 742.127C480.826 742.675 480.499 743.806 482.109 744.185C483.453 744.5 484.407 744.122 485.03 743.032C485.472 742.258 485.558 742.444 485.905 741.73L486.18 741.443C486.826 740.414 486.882 740.011 487.556 740.531L487.725 740.63C488.268 740.918 489.045 741.146 489.565 741.15C490.681 741.158 491.56 740.705 490.569 740.465L490.585 740.471Z" fill="#29576B"/>
<path d="M482.654 737.484C481.638 739.485 480.743 741.56 480.707 742.15C480.67 742.74 480.638 743.907 482.248 744.284C483.592 744.6 484.276 744.304 484.998 743.276L487.139 739.915M485.717 726.493C485.717 726.493 480.381 720.66 477.78 726.953C477.22 728.29 474.974 737.737 478.358 736.163C479.593 735.593 480.66 735.181 480.66 735.181M489.517 727.686C489.248 727.646 493.872 727.998 494.748 731.892C495.058 733.265 492.218 736.936 488.511 739.131" stroke="#74DFFF" stroke-width="0.487412" stroke-linecap="round" stroke-linejoin="round"/>
<path d="M488.513 739.125C488.513 739.125 488.324 739.89 490.586 740.439C491.576 740.679 490.692 741.129 489.582 741.124C488.666 741.117 486.94 740.411 487.139 739.916C487.657 738.638 488.435 739.469 488.513 739.125ZM488.513 739.125C488.583 738.815 488.285 738.337 488.327 737.517C488.363 736.801 487.394 730.719 491.334 733.417C491.505 733.459 492.139 728.837 488.181 726.885C484.223 724.933 482.004 729.966 482.004 729.966" stroke="#74DFFF" stroke-width="0.487412" stroke-linecap="round" stroke-linejoin="bevel"/>
<path d="M481.771 736.457C480.922 736.815 481.033 737.002 479.814 736.705C478.58 736.405 479.045 737.13 479.426 737.442C479.887 737.82 481.01 738.578 482.368 737.82C482.781 737.589 482.794 736.915 482.519 736.611C482.387 736.464 482.206 736.275 481.772 736.457L481.771 736.457Z" stroke="#74DFFF" stroke-width="0.487412" stroke-linejoin="round"/>
<path d="M481.74 736.429C481.856 736.037 482.238 735.686 482.667 735.266C483.311 734.637 484.332 734.186 484.947 731.517C485.411 729.53 482.119 729.72 482.003 729.964C481.886 730.208 481.534 731.259 480.825 732.341C479.898 733.752 480.466 735.586 481.88 736.094" stroke="#74DFFF" stroke-width="0.487412" stroke-linecap="round" stroke-linejoin="round"/>
<path d="M483.684 730.714C483.633 730.793 483.692 731.094 483.892 731.224C484.092 731.355 484.359 731.268 484.409 731.19C484.46 731.112 484.339 730.942 484.139 730.81C483.939 730.678 483.735 730.635 483.684 730.714L483.684 730.714Z" fill="#74DFFF" stroke="#74DFFF" stroke-width="0.162658"/>
<path d="M490.29 733.632C490.262 733.721 489.992 733.866 489.764 733.795C489.536 733.723 489.434 733.462 489.462 733.373C489.489 733.284 489.698 733.27 489.927 733.342C490.155 733.414 490.318 733.544 490.29 733.633L490.29 733.632Z" fill="#74DFFF" stroke="#74DFFF" stroke-width="0.0810477"/>
<path d="M491.329 733.418C491.055 734.089 490.667 734.452 490.315 735.139C489.803 736.137 489.771 737.541 488.443 738.334" stroke="#74DFFF" stroke-width="0.487412" stroke-linecap="round" stroke-linejoin="round"/>
</g>
<path d="M488.781 150.968C490.101 151.093 491.245 151.934 491.758 153.157L501.727 176.925C502.201 178.053 502.068 179.344 501.374 180.353L487.826 200.055C487.122 201.078 485.941 201.666 484.701 201.61L459.273 200.46C457.936 200.399 456.744 199.602 456.178 198.389L444.89 174.217C444.35 173.063 444.463 171.709 445.185 170.659L459.362 150.043C460.101 148.968 461.364 148.378 462.662 148.501L488.781 150.968Z" fill="url(#paint17_linear_6043_20557)"/>
<path d="M491.482 153.272L501.451 177.041C501.885 178.075 501.763 179.259 501.128 180.183L487.579 199.886C486.934 200.823 485.851 201.362 484.714 201.31L459.286 200.16C458.061 200.105 456.968 199.374 456.449 198.263L445.161 174.091C444.667 173.032 444.77 171.791 445.432 170.829L459.609 150.213C460.286 149.227 461.444 148.686 462.634 148.799L488.753 151.266C489.963 151.38 491.012 152.152 491.482 153.272Z" stroke="#74DFFF" stroke-opacity="0.7" stroke-width="0.599189"/>
<g clip-path="url(#clip3_6043_20557)">
<g clip-path="url(#clip4_6043_20557)">
<mask id="mask1_6043_20557" style="mask-type:luminance" maskUnits="userSpaceOnUse" x="460" y="161" width="83" height="69">
<path d="M471.77 161.502L543.001 213.327L531.241 229.491L460.009 177.666L471.77 161.502Z" fill="white"/>
</mask>
<g mask="url(#mask1_6043_20557)">
<path fill-rule="evenodd" clip-rule="evenodd" d="M471.073 173.807C470.831 173.988 470.523 174.081 470.195 174.045L465.338 173.523C464.653 173.449 464.156 172.836 464.227 172.155C464.299 171.47 464.909 170.977 465.594 171.051L468.307 171.344L467.195 168.85C466.914 168.221 467.194 167.488 467.824 167.212C468.451 166.934 469.187 167.217 469.469 167.846L471.461 172.305C471.601 172.619 471.602 172.955 471.492 173.25C471.457 173.345 471.41 173.431 471.356 173.513C471.279 173.624 471.185 173.725 471.073 173.807ZM470.66 176.327C471.154 176.744 471.25 177.478 470.866 178.006L468.001 181.944C467.597 182.499 466.817 182.62 466.262 182.215C465.703 181.809 465.58 181.032 465.984 180.476L467.586 178.274L464.864 177.979C464.179 177.908 463.684 177.295 463.753 176.612C463.825 175.929 464.437 175.433 465.121 175.506L469.979 176.033C470.241 176.06 470.475 176.167 470.66 176.327ZM477.283 174.601C476.788 174.183 476.694 173.449 477.078 172.921L479.943 168.983C480.346 168.429 481.123 168.307 481.682 168.714C482.24 169.12 482.364 169.897 481.961 170.451L480.358 172.654L483.079 172.947C483.764 173.02 484.26 173.633 484.189 174.315C484.116 174.999 483.506 175.493 482.821 175.419L477.963 174.895C477.702 174.867 477.468 174.76 477.283 174.601ZM471.289 167.029C471.009 166.401 471.29 165.668 471.919 165.388C472.548 165.112 473.283 165.395 473.563 166.023L474.68 168.524L476.283 166.32C476.686 165.766 477.464 165.645 478.022 166.051C478.578 166.455 478.703 167.234 478.3 167.787L475.435 171.726C475.051 172.254 474.323 172.389 473.773 172.048C473.565 171.921 473.391 171.73 473.284 171.491L471.289 167.029ZM473.048 177.547C472.977 177.559 472.874 177.536 472.814 177.493L472.396 177.188C472.338 177.146 472.283 177.054 472.272 176.982L471.878 174.531C471.867 174.461 471.892 174.357 471.933 174.301L472.237 173.883C472.279 173.825 472.37 173.769 472.441 173.758L474.894 173.378C474.966 173.367 475.07 173.392 475.127 173.434L475.546 173.738C475.604 173.781 475.66 173.872 475.671 173.943L476.065 176.395C476.076 176.465 476.051 176.569 476.009 176.627L475.705 177.045C475.664 177.101 475.572 177.157 475.503 177.168L473.048 177.547ZM474.65 175.946C474.692 175.889 474.715 175.784 474.705 175.712L474.59 175.003C474.579 174.934 474.523 174.842 474.466 174.8L474.45 174.788C474.392 174.746 474.288 174.722 474.218 174.733L473.509 174.842C473.437 174.854 473.347 174.911 473.305 174.968L473.294 174.984C473.253 175.041 473.227 175.142 473.238 175.214L473.353 175.923C473.363 175.993 473.419 176.085 473.476 176.126L473.492 176.138C473.55 176.18 473.654 176.205 473.724 176.194L474.434 176.084C474.505 176.073 474.597 176.019 474.638 175.963L474.65 175.946ZM476.654 183.897C476.935 184.525 476.65 185.26 476.023 185.539C475.396 185.816 474.659 185.533 474.381 184.903L473.264 182.405L471.661 184.607C471.257 185.163 470.479 185.284 469.921 184.878C469.363 184.471 469.24 183.695 469.644 183.139L472.509 179.202C472.893 178.673 473.62 178.538 474.17 178.881C474.378 179.007 474.552 179.196 474.658 179.437L476.654 183.897ZM479.634 179.585L480.749 182.076C481.03 182.706 480.749 183.439 480.119 183.717C479.492 183.993 478.755 183.709 478.475 183.082L476.481 178.619C476.349 178.32 476.342 177.997 476.441 177.712C476.485 177.581 476.55 177.459 476.633 177.353C476.693 177.275 476.762 177.205 476.841 177.142C477.088 176.946 477.409 176.844 477.747 176.879L482.606 177.404C483.289 177.477 483.786 178.091 483.716 178.774C483.646 179.457 483.034 179.95 482.349 179.876L479.634 179.585Z" fill="#74DFFF"/>
</g>
</g>
</g>
<path d="M1080.91 668.705C1081.49 667.509 1082.67 666.725 1083.99 666.665L1109.74 665.498C1110.96 665.443 1112.13 666.013 1112.84 667.011L1126.66 686.52C1127.38 687.533 1127.53 688.844 1127.05 689.989L1117.2 713.463C1116.68 714.697 1115.53 715.541 1114.19 715.655L1087.61 717.92C1086.34 718.028 1085.11 717.456 1084.37 716.417L1069.91 696.003C1069.15 694.939 1069.03 693.55 1069.59 692.373L1080.91 668.705Z" fill="url(#paint18_linear_6043_20557)"/>
<path d="M1084.01 666.964L1109.76 665.797C1110.88 665.747 1111.94 666.269 1112.59 667.184L1126.42 686.693C1127.08 687.622 1127.21 688.824 1126.77 689.873L1116.93 713.347C1116.45 714.478 1115.39 715.252 1114.17 715.356L1087.59 717.622C1086.42 717.721 1085.29 717.197 1084.62 716.244L1070.15 695.83C1069.46 694.854 1069.35 693.581 1069.87 692.502L1081.18 668.834C1081.71 667.738 1082.79 667.019 1084.01 666.964Z" stroke="#74DFFF" stroke-opacity="0.7" stroke-width="0.599189"/>
<g clip-path="url(#clip5_6043_20557)">
<path d="M1094.95 679.543C1092.95 679.06 1091.08 678.448 1090.7 678.318C1090.66 678.313 1090.63 678.335 1090.63 678.369C1090.63 678.775 1090.64 680.739 1090.48 682.793C1089.7 701.237 1106.18 701.332 1106.18 701.332L1106.31 701.326C1107.28 702.487 1108.75 704.096 1108.75 704.096L1109.15 703.805L1109.55 703.514C1109.55 703.514 1108.48 701.624 1107.67 700.337L1107.71 700.203C1107.72 700.195 1112.73 684.505 1094.95 679.543ZM1106.82 700.594C1106.82 700.594 1106.04 700.537 1105.76 700.423L1105.75 700.403L1097.07 687.238C1097.04 687.198 1097.1 687.155 1097.13 687.194L1106.97 699.516L1106.98 699.536C1107 699.839 1106.82 700.594 1106.82 700.594Z" fill="#74DFFF"/>
</g>
<path d="M1241.98 560.901C1243.06 560.704 1244.16 561.116 1244.84 561.974L1258.12 578.65C1258.75 579.442 1258.94 580.5 1258.61 581.458L1252.26 600.186C1251.93 601.158 1251.12 601.891 1250.12 602.126L1229.62 606.928C1228.55 607.18 1227.42 606.813 1226.69 605.976L1212.27 589.274C1211.59 588.477 1211.37 587.374 1211.71 586.376L1218.36 566.78C1218.7 565.758 1219.58 565.004 1220.64 564.81L1241.98 560.901Z" fill="url(#paint19_linear_6043_20557)"/>
<path d="M1244.36 562.361L1257.64 579.037C1258.13 579.663 1258.28 580.5 1258.02 581.258L1251.67 599.986C1251.41 600.755 1250.77 601.335 1249.98 601.521L1229.48 606.323C1228.63 606.522 1227.74 606.232 1227.16 605.57L1212.74 588.868C1212.2 588.237 1212.03 587.365 1212.3 586.576L1218.95 566.979C1219.22 566.171 1219.91 565.575 1220.75 565.421L1242.09 561.513C1242.95 561.356 1243.82 561.682 1244.36 562.361Z" stroke="url(#paint20_linear_6043_20557)" stroke-opacity="0.7" stroke-width="1.2427"/>
<g clip-path="url(#clip6_6043_20557)">
<g clip-path="url(#clip7_6043_20557)">
<g clip-path="url(#clip8_6043_20557)">
<path d="M1238.71 590.838C1240.3 591.375 1242.02 590.524 1242.56 588.939C1243.1 587.354 1242.24 585.63 1240.66 585.092C1241.44 582.152 1239.83 579.067 1236.96 578.093C1234.09 577.118 1230.94 578.59 1229.86 581.429C1228.44 581.389 1227.18 582.176 1226.71 583.563C1226.17 585.148 1227.02 586.873 1228.61 587.41L1238.71 590.838Z" fill="url(#paint21_linear_6043_20557)" fill-opacity="0.7"/>
</g>
</g>
</g>
</g>
<defs>
<filter id="filter0_f_6043_20557" x="19.3359" y="496.241" width="1963.29" height="1278.66" filterUnits="userSpaceOnUse" color-interpolation-filters="sRGB">
<feFlood flood-opacity="0" result="BackgroundImageFix"/>
<feBlend mode="normal" in="SourceGraphic" in2="BackgroundImageFix" result="shape"/>
<feGaussianBlur stdDeviation="113.5" result="effect1_foregroundBlur_6043_20557"/>
</filter>
<filter id="filter1_f_6043_20557" x="-465.66" y="361.241" width="2410.13" height="1522.81" filterUnits="userSpaceOnUse" color-interpolation-filters="sRGB">
<feFlood flood-opacity="0" result="BackgroundImageFix"/>
<feBlend mode="normal" in="SourceGraphic" in2="BackgroundImageFix" result="shape"/>
<feGaussianBlur stdDeviation="113.5" result="effect1_foregroundBlur_6043_20557"/>
</filter>
<filter id="filter2_f_6043_20557" x="-207" y="599.5" width="744" height="744" filterUnits="userSpaceOnUse" color-interpolation-filters="sRGB">
<feFlood flood-opacity="0" result="BackgroundImageFix"/>
<feBlend mode="normal" in="SourceGraphic" in2="BackgroundImageFix" result="shape"/>
<feGaussianBlur stdDeviation="2.5" result="effect1_foregroundBlur_6043_20557"/>
</filter>
<filter id="filter3_f_6043_20557" x="786" y="128.5" width="418" height="418" filterUnits="userSpaceOnUse" color-interpolation-filters="sRGB">
<feFlood flood-opacity="0" result="BackgroundImageFix"/>
<feBlend mode="normal" in="SourceGraphic" in2="BackgroundImageFix" result="shape"/>
<feGaussianBlur stdDeviation="10" result="effect1_foregroundBlur_6043_20557"/>
</filter>
<filter id="filter4_f_6043_20557" x="341.078" y="159.578" width="59.6289" height="59.6305" filterUnits="userSpaceOnUse" color-interpolation-filters="sRGB">
<feFlood flood-opacity="0" result="BackgroundImageFix"/>
<feBlend mode="normal" in="SourceGraphic" in2="BackgroundImageFix" result="shape"/>
<feGaussianBlur stdDeviation="2.5" result="effect1_foregroundBlur_6043_20557"/>
</filter>
<filter id="filter5_f_6043_20557" x="343.078" y="166.578" width="59.6289" height="59.6305" filterUnits="userSpaceOnUse" color-interpolation-filters="sRGB">
<feFlood flood-opacity="0" result="BackgroundImageFix"/>
<feBlend mode="normal" in="SourceGraphic" in2="BackgroundImageFix" result="shape"/>
<feGaussianBlur stdDeviation="2.5" result="effect1_foregroundBlur_6043_20557"/>
</filter>
<filter id="filter6_f_6043_20557" x="1231.09" y="462.594" width="83.5898" height="83.5897" filterUnits="userSpaceOnUse" color-interpolation-filters="sRGB">
<feFlood flood-opacity="0" result="BackgroundImageFix"/>
<feBlend mode="normal" in="SourceGraphic" in2="BackgroundImageFix" result="shape"/>
<feGaussianBlur stdDeviation="3" result="effect1_foregroundBlur_6043_20557"/>
</filter>
<filter id="filter7_f_6043_20557" x="1229.09" y="462.594" width="83.5898" height="83.5897" filterUnits="userSpaceOnUse" color-interpolation-filters="sRGB">
<feFlood flood-opacity="0" result="BackgroundImageFix"/>
<feBlend mode="normal" in="SourceGraphic" in2="BackgroundImageFix" result="shape"/>
<feGaussianBlur stdDeviation="3" result="effect1_foregroundBlur_6043_20557"/>
</filter>
<filter id="filter8_f_6043_20557" x="1048.88" y="638.38" width="577.031" height="577.029" filterUnits="userSpaceOnUse" color-interpolation-filters="sRGB">
<feFlood flood-opacity="0" result="BackgroundImageFix"/>
<feBlend mode="normal" in="SourceGraphic" in2="BackgroundImageFix" result="shape"/>
<feGaussianBlur stdDeviation="5" result="effect1_foregroundBlur_6043_20557"/>
</filter>
<filter id="filter9_f_6043_20557" x="1264.75" y="221.254" width="78.7969" height="78.7961" filterUnits="userSpaceOnUse" color-interpolation-filters="sRGB">
<feFlood flood-opacity="0" result="BackgroundImageFix"/>
<feBlend mode="normal" in="SourceGraphic" in2="BackgroundImageFix" result="shape"/>
<feGaussianBlur stdDeviation="5" result="effect1_foregroundBlur_6043_20557"/>
</filter>
<linearGradient id="paint0_linear_6043_20557" x1="450.5" y1="0" x2="450.5" y2="847" gradientUnits="userSpaceOnUse">
<stop stop-color="#4FDAB8"/>
<stop offset="1" stop-color="#4FDAB8" stop-opacity="0"/>
</linearGradient>
<linearGradient id="paint1_linear_6043_20557" x1="581.733" y1="0" x2="581.733" y2="1093.73" gradientUnits="userSpaceOnUse">
<stop stop-color="#52C7EA"/>
<stop offset="1" stop-color="#52C7EA" stop-opacity="0"/>
</linearGradient>
<radialGradient id="paint2_radial_6043_20557" cx="0" cy="0" r="1" gradientUnits="userSpaceOnUse" gradientTransform="translate(447.486 116.682) rotate(89.1122) scale(724.531)">
<stop stop-color="#4FDAB8" stop-opacity="0.15"/>
<stop offset="1" stop-color="#52C7EA" stop-opacity="0"/>
</radialGradient>
<radialGradient id="paint3_radial_6043_20557" cx="0" cy="0" r="1" gradientUnits="userSpaceOnUse" gradientTransform="translate(243.295 539.711) rotate(-87.9037) scale(551.549)">
<stop stop-color="#52C7EA" stop-opacity="0.5"/>
<stop offset="1" stop-color="#52C7EA" stop-opacity="0"/>
</radialGradient>
<radialGradient id="paint4_radial_6043_20557" cx="0" cy="0" r="1" gradientUnits="userSpaceOnUse" gradientTransform="translate(721.002 16.5) rotate(89.0891) scale(597.576)">
<stop stop-color="#4FDAB8" stop-opacity="0.01"/>
<stop offset="0.718874" stop-color="#51CCDC" stop-opacity="0.1"/>
<stop offset="1" stop-color="#52C7EA" stop-opacity="0"/>
</radialGradient>
<radialGradient id="paint5_radial_6043_20557" cx="0" cy="0" r="1" gradientUnits="userSpaceOnUse" gradientTransform="translate(701.096 1103.63) rotate(-84.991) scale(479.961)">
<stop stop-color="#4FDAB8" stop-opacity="0.6"/>
<stop offset="0.768138" stop-color="#51CBDE" stop-opacity="0.2"/>
<stop offset="1" stop-color="#52C7EA" stop-opacity="0"/>
</radialGradient>
<radialGradient id="paint6_radial_6043_20557" cx="0" cy="0" r="1" gradientUnits="userSpaceOnUse" gradientTransform="translate(1427.3 279.089) rotate(157.26) scale(696.976 696.976)">
<stop stop-color="#4FDAB8" stop-opacity="0.2"/>
<stop offset="1" stop-color="#52C7EA" stop-opacity="0"/>
</radialGradient>
<linearGradient id="paint7_linear_6043_20557" x1="321.552" y1="1268.56" x2="532" y2="779.017" gradientUnits="userSpaceOnUse">
<stop stop-color="#3A74C6" stop-opacity="0.2"/>
<stop offset="1" stop-color="#60D1F2" stop-opacity="0"/>
</linearGradient>
<linearGradient id="paint8_linear_6043_20557" x1="1356.5" y1="877" x2="1074" y2="449.5" gradientUnits="userSpaceOnUse">
<stop stop-color="#0E2A4B" stop-opacity="0.15"/>
<stop offset="1" stop-color="#60D1F2" stop-opacity="0"/>
</linearGradient>
<linearGradient id="paint9_linear_6043_20557" x1="1184" y1="407" x2="829.5" y2="232" gradientUnits="userSpaceOnUse">
<stop stop-color="#3A74C6" stop-opacity="0.1"/>
<stop offset="1" stop-color="#60D1F2" stop-opacity="0"/>
</linearGradient>
<linearGradient id="paint10_linear_6043_20557" x1="383.476" y1="216.476" x2="397.704" y2="183.38" gradientUnits="userSpaceOnUse">
<stop stop-color="#3A74C6" stop-opacity="0.2"/>
<stop offset="1" stop-color="#60D1F2" stop-opacity="0"/>
</linearGradient>
<linearGradient id="paint11_linear_6043_20557" x1="1286.16" y1="533.358" x2="1306.68" y2="485.618" gradientUnits="userSpaceOnUse">
<stop stop-color="#3AC69C" stop-opacity="0.1"/>
<stop offset="1" stop-color="#60D1F2" stop-opacity="0"/>
</linearGradient>
<linearGradient id="paint12_linear_6043_20557" x1="1230.3" y1="1157.19" x2="1436.73" y2="815.73" gradientUnits="userSpaceOnUse">
<stop stop-color="#1E413D" stop-opacity="0.1"/>
<stop offset="0.959675" stop-color="#1C93B6" stop-opacity="0.01"/>
</linearGradient>
<linearGradient id="paint13_linear_6043_20557" x1="1316.69" y1="284.444" x2="1333.55" y2="245.236" gradientUnits="userSpaceOnUse">
<stop stop-color="#1F2B3C" stop-opacity="0.6"/>
<stop offset="1" stop-color="#0B1416" stop-opacity="0.4"/>
</linearGradient>
<linearGradient id="paint14_linear_6043_20557" x1="575.648" y1="166.961" x2="585.931" y2="205.339" gradientUnits="userSpaceOnUse">
<stop offset="0.40073" stop-color="#0F1923"/>
<stop offset="1" stop-color="#0F1923"/>
</linearGradient>
<linearGradient id="paint15_linear_6043_20557" x1="1154.46" y1="173.124" x2="1172.03" y2="208.758" gradientUnits="userSpaceOnUse">
<stop offset="0.40073" stop-color="#101A26"/>
<stop offset="1" stop-color="#1D3651"/>
</linearGradient>
<linearGradient id="paint16_linear_6043_20557" x1="496.434" y1="717.718" x2="472.878" y2="749.714" gradientUnits="userSpaceOnUse">
<stop offset="0.40073" stop-color="#28566A"/>
<stop offset="1" stop-color="#2C6675"/>
</linearGradient>
<linearGradient id="paint17_linear_6043_20557" x1="490.306" y1="150.745" x2="456.48" y2="199.936" gradientUnits="userSpaceOnUse">
<stop stop-color="#162535"/>
<stop offset="1" stop-color="#162535"/>
</linearGradient>
<linearGradient id="paint18_linear_6043_20557" x1="1081.23" y1="667.196" x2="1115.75" y2="715.904" gradientUnits="userSpaceOnUse">
<stop stop-color="#1B3843"/>
<stop offset="1" stop-color="#25525E"/>
</linearGradient>
<linearGradient id="paint19_linear_6043_20557" x1="1243.15" y1="560.381" x2="1227.28" y2="607.139" gradientUnits="userSpaceOnUse">
<stop stop-color="#162535"/>
<stop offset="1" stop-color="#1A2C3D"/>
</linearGradient>
<linearGradient id="paint20_linear_6043_20557" x1="1226.99" y1="554.9" x2="1250.07" y2="609.143" gradientUnits="userSpaceOnUse">
<stop stop-color="#4FDAB8"/>
<stop offset="1" stop-color="#52C7EA"/>
</linearGradient>
<linearGradient id="paint21_linear_6043_20557" x1="1243.12" y1="592.333" x2="1231.02" y2="575.185" gradientUnits="userSpaceOnUse">
<stop stop-color="#36A7C9"/>
<stop offset="1" stop-color="#3AC6A3"/>
</linearGradient>
<clipPath id="clip0_6043_20557">
<rect width="1920" height="1051" fill="white" transform="translate(0 0.5)"/>
</clipPath>
<clipPath id="clip1_6043_20557">
<rect width="17.9662" height="21.4923" fill="white" transform="translate(570 178.735) rotate(-16.9422)"/>
</clipPath>
<clipPath id="clip2_6043_20557">
<rect width="22.9748" height="22.9748" fill="white" transform="translate(482.293 717.5) rotate(35.3581)"/>
</clipPath>
<clipPath id="clip3_6043_20557">
<rect width="24.1507" height="24.1507" fill="white" transform="translate(471.684 157.5) rotate(34.5147)"/>
</clipPath>
<clipPath id="clip4_6043_20557">
<rect width="20" height="20" fill="white" transform="translate(471.766 161.5) rotate(36.038)"/>
</clipPath>
<clipPath id="clip5_6043_20557">
<rect width="14.8651" height="31.5884" fill="white" transform="translate(1084.64 682.696) rotate(-35.9968)"/>
</clipPath>
<clipPath id="clip6_6043_20557">
<rect width="19.9743" height="19.9743" fill="white" transform="translate(1228.86 571.179) rotate(18.7404)"/>
</clipPath>
<clipPath id="clip7_6043_20557">
<rect width="20.0847" height="20.0847" fill="white" transform="translate(1228.8 570.873) rotate(18.7368)"/>
</clipPath>
<clipPath id="clip8_6043_20557">
<rect width="16.7373" height="16.7373" fill="white" transform="translate(1230.1 573.558) rotate(18.7368)"/>
</clipPath>
</defs>
</svg>
