<svg width="2560" height="840" viewBox="0 0 2560 840" fill="none" xmlns="http://www.w3.org/2000/svg">
<g clip-path="url(#clip0_6373_16696)">
<g opacity="0.7" filter="url(#filter0_f_6373_16696)">
<rect width="901" height="847" rx="24" transform="matrix(0.87755 0.479485 -0.87755 0.479485 1537.29 716)" fill="url(#paint0_linear_6373_16696)"/>
</g>
<g opacity="0.7" filter="url(#filter1_f_6373_16696)">
<rect width="1163.47" height="1093.73" rx="24" transform="matrix(0.87755 0.479485 -0.87755 0.479485 1268.81 581)" fill="url(#paint1_linear_6373_16696)"/>
</g>
<circle cx="1048.62" cy="454.571" r="283.669" transform="rotate(-60 1048.62 454.571)" stroke="url(#paint2_radial_6373_16696)"/>
<circle cx="284.169" cy="284.169" r="283.669" transform="matrix(-0.5 -0.866025 -0.866025 0.5 1421.8 828.906)" stroke="url(#paint3_radial_6373_16696)"/>
<circle cx="1280.78" cy="300.144" r="283.644" stroke="url(#paint4_radial_6373_16696)"/>
<circle cx="1280.78" cy="888.432" r="283.644" stroke="url(#paint5_radial_6373_16696)"/>
<path d="M1717.29 513.076C1748.11 530.869 1774.33 553.571 1795.52 579.624C1772.19 614.194 1740.84 644.133 1702.29 666.389C1579.92 737.044 1426.78 706.15 1340.45 599.854C1423.02 477.452 1587.47 438.121 1717.29 513.076ZM1796.11 578.756C1774.87 552.71 1748.63 530.012 1717.79 512.21C1587.6 437.042 1422.71 476.407 1339.79 599.041C1330.66 587.719 1322.29 575.548 1314.79 562.559C1236.46 426.882 1282.95 253.393 1418.62 175.06C1554.3 96.7266 1727.79 143.213 1806.12 278.89C1862.01 375.695 1854.36 491.75 1796.11 578.756ZM1329.79 616.906C1333 611.362 1336.36 605.966 1339.86 600.722C1426.53 707.202 1580.08 738.106 1702.79 667.255C1741.39 644.974 1772.79 615.022 1796.18 580.436C1867.73 669.049 1881.48 796.036 1821.12 900.576C1742.79 1036.25 1569.3 1082.74 1433.62 1004.41C1297.95 926.073 1251.46 752.583 1329.79 616.906Z" stroke="url(#paint6_radial_6373_16696)"/>
<g filter="url(#filter2_f_6373_16696)">
<circle cx="725" cy="971" r="367" fill="url(#paint7_linear_6373_16696)"/>
</g>
<circle cx="1574" cy="759" r="285" fill="url(#paint8_linear_6373_16696)"/>
<g filter="url(#filter3_f_6373_16696)">
<circle cx="1555" cy="337" r="189" fill="url(#paint9_linear_6373_16696)"/>
</g>
<g filter="url(#filter4_f_6373_16696)">
<circle cx="930.893" cy="188.893" r="24.8111" transform="rotate(120 930.893 188.893)" fill="#162535"/>
</g>
<g filter="url(#filter5_f_6373_16696)">
<circle cx="932.893" cy="195.893" r="24.8111" transform="rotate(120 932.893 195.893)" fill="url(#paint10_linear_6373_16696)"/>
</g>
<g filter="url(#filter6_f_6373_16696)">
<circle cx="1864.15" cy="260.152" r="29.3932" transform="rotate(120 1864.15 260.152)" fill="url(#paint11_linear_6373_16696)"/>
</g>
<g filter="url(#filter7_f_6373_16696)">
<circle cx="1897.39" cy="926.394" r="278.468" transform="rotate(120 1897.39 926.394)" fill="url(#paint12_linear_6373_16696)"/>
</g>
<g filter="url(#filter8_f_6373_16696)">
<circle cx="1832.89" cy="503.889" r="35.7889" transform="rotate(120 1832.89 503.889)" fill="#162535"/>
</g>
<g filter="url(#filter9_f_6373_16696)">
<circle cx="1830.89" cy="503.889" r="35.7889" transform="rotate(120 1830.89 503.889)" fill="url(#paint13_linear_6373_16696)"/>
</g>
<path d="M805.101 137.33C805.735 136.715 806.655 136.5 807.495 136.768L823.835 141.992C824.61 142.24 825.206 142.866 825.417 143.652L829.536 159.024C829.75 159.822 829.537 160.674 828.973 161.278L817.403 173.652C816.795 174.303 815.876 174.562 815.017 174.324L797.904 169.593C797.087 169.367 796.45 168.726 796.231 167.906L791.921 151.822C791.696 150.983 791.943 150.089 792.566 149.485L805.101 137.33Z" fill="url(#paint14_linear_6373_16696)"/>
<path d="M805.24 137.473C805.821 136.91 806.664 136.712 807.435 136.958L823.774 142.182C824.485 142.41 825.031 142.983 825.225 143.704L829.343 159.076C829.539 159.807 829.344 160.588 828.827 161.141L817.257 173.516C816.7 174.112 815.857 174.35 815.071 174.132L797.957 169.401C797.208 169.194 796.624 168.606 796.423 167.855L792.113 151.77C791.907 151.002 792.134 150.182 792.705 149.628L805.24 137.473Z" stroke="#74DFFF" stroke-opacity="0.5" stroke-width="0.398787"/>
<path fill-rule="evenodd" clip-rule="evenodd" d="M818.48 149.74L814.896 156.319L818.28 163.003L819.719 162.227L819.895 150.559L818.48 149.74Z" fill="#74DFFF" fill-opacity="0.8"/>
<path fill-rule="evenodd" clip-rule="evenodd" d="M818.479 149.739L811.499 150.432L807.865 156.212L811.324 162.1L818.279 163.002L818.479 149.739Z" fill="#36A7C9"/>
<path fill-rule="evenodd" clip-rule="evenodd" d="M804.422 149.528L803.281 150.015L803.097 162.271L804.222 162.792L811.416 156.267L804.422 149.528Z" fill="#36A7C9"/>
<path fill-rule="evenodd" clip-rule="evenodd" d="M804.406 149.514L811.494 151.598L811.351 161.112L804.206 162.796L804.406 149.514Z" fill="#74DFFF" fill-opacity="0.8"/>
<path fill-rule="evenodd" clip-rule="evenodd" d="M811.483 152.643L808.468 152.113L811.542 148.726L814.505 152.204L811.483 152.643Z" fill="#58150D"/>
<path fill-rule="evenodd" clip-rule="evenodd" d="M814.505 152.204L811.479 152.651L808.468 152.113L808.52 148.68" fill="#36A7C9"/>
<path fill-rule="evenodd" clip-rule="evenodd" d="M811.374 159.843L808.343 160.358L811.321 163.35L814.38 160.449L811.374 159.843Z" fill="#36A7C9"/>
<path fill-rule="evenodd" clip-rule="evenodd" d="M811.561 146.15L808.515 147.699L808.449 152.106L811.493 151.298L811.561 146.15Z" fill="#36A7C9"/>
<path fill-rule="evenodd" clip-rule="evenodd" d="M811.46 153.725L808.436 154.008L808.37 158.408L811.383 158.799L811.46 153.725Z" fill="#36A7C9"/>
<path fill-rule="evenodd" clip-rule="evenodd" d="M811.351 161.149L808.344 160.347L808.279 164.672L811.273 166.298L811.351 161.149Z" fill="#36A7C9"/>
<path fill-rule="evenodd" clip-rule="evenodd" d="M814.382 160.438L811.352 161.149L811.274 166.298L814.317 164.763L814.382 160.438Z" fill="#74DFFF" fill-opacity="0.8"/>
<path fill-rule="evenodd" clip-rule="evenodd" d="M811.461 153.724L814.475 154.098L814.408 158.498L811.384 158.798L811.461 153.724Z" fill="#74DFFF" fill-opacity="0.8"/>
<path fill-rule="evenodd" clip-rule="evenodd" d="M811.566 146.151L814.564 147.792L814.498 152.199L811.489 151.314L811.566 146.151Z" fill="#74DFFF" fill-opacity="0.8"/>
<path d="M1714.09 173.583C1714.59 172.856 1715.45 172.465 1716.33 172.565L1733.37 174.499C1734.18 174.591 1734.89 175.088 1735.25 175.818L1742.29 190.091C1742.65 190.832 1742.61 191.709 1742.18 192.411L1733.24 206.806C1732.78 207.562 1731.92 207.996 1731.04 207.931L1713.33 206.63C1712.48 206.568 1711.73 206.063 1711.36 205.303L1703.99 190.368C1703.61 189.59 1703.68 188.664 1704.17 187.95L1714.09 173.583Z" fill="url(#paint15_linear_6373_16696)"/>
<path d="M1714.25 173.696C1714.71 173.03 1715.5 172.672 1716.31 172.763L1733.35 174.698C1734.09 174.782 1734.74 175.237 1735.07 175.907L1742.11 190.179C1742.45 190.858 1742.41 191.662 1742.01 192.306L1733.08 206.701C1732.64 207.394 1731.86 207.791 1731.05 207.732L1713.34 206.432C1712.57 206.375 1711.88 205.912 1711.54 205.214L1704.17 190.28C1703.82 189.566 1703.88 188.718 1704.33 188.063L1714.25 173.696Z" stroke="#74DFFF" stroke-opacity="0.5" stroke-width="0.398787"/>
<path fill-rule="evenodd" clip-rule="evenodd" d="M1728.67 193.837L1733.39 192.774C1733.46 192.76 1733.53 192.73 1733.59 192.688C1733.65 192.646 1733.7 192.592 1733.74 192.53C1733.78 192.467 1733.8 192.398 1733.81 192.325C1733.82 192.253 1733.81 192.18 1733.79 192.11L1731.79 183.555C1731.75 183.414 1731.66 183.293 1731.53 183.218C1731.4 183.143 1731.25 183.121 1731.11 183.156L1726.4 184.22C1726.25 184.256 1726.13 184.346 1726.05 184.47C1725.98 184.595 1725.96 184.744 1725.99 184.884L1727.99 193.438C1728.03 193.58 1728.12 193.701 1728.25 193.776C1728.37 193.85 1728.53 193.873 1728.67 193.837Z" fill="#74DFFF"/>
<path fill-rule="evenodd" clip-rule="evenodd" d="M1727.05 199.123L1732.76 193.918C1732.98 193.704 1732.92 193.572 1732.63 193.677L1728.7 194.555C1728.53 194.595 1728.38 194.674 1728.26 194.785C1728.14 194.897 1728.05 195.037 1727.99 195.193L1726.8 198.965C1726.72 199.257 1726.83 199.337 1727.05 199.123Z" fill="#74DFFF"/>
<path fill-rule="evenodd" clip-rule="evenodd" d="M1716.61 197.425L1725.17 200.027C1725.32 200.054 1725.47 200.028 1725.6 199.956C1725.73 199.883 1725.83 199.767 1725.88 199.63L1727.31 195.113C1727.33 195.043 1727.34 194.969 1727.33 194.896C1727.32 194.823 1727.3 194.753 1727.27 194.688C1727.23 194.624 1727.18 194.568 1727.12 194.522C1727.06 194.476 1727 194.442 1726.93 194.422L1718.36 191.845C1718.22 191.804 1718.06 191.821 1717.93 191.893C1717.8 191.964 1717.7 192.084 1717.66 192.227L1716.23 196.734C1716.19 196.875 1716.21 197.027 1716.28 197.156C1716.35 197.285 1716.47 197.382 1716.61 197.425Z" fill="#74DFFF"/>
<path fill-rule="evenodd" clip-rule="evenodd" d="M1713.85 188.18L1715.59 195.653C1715.64 195.945 1715.78 195.945 1715.86 195.653L1717.05 191.881C1717.09 191.72 1717.09 191.553 1717.05 191.391C1717.02 191.23 1716.94 191.079 1716.83 190.951L1714.1 188.046C1713.9 187.826 1713.76 187.888 1713.85 188.18Z" fill="#74DFFF"/>
<path fill-rule="evenodd" clip-rule="evenodd" d="M1720.54 180.19L1713.98 186.16C1713.88 186.258 1713.82 186.393 1713.81 186.536C1713.81 186.679 1713.86 186.818 1713.96 186.923L1717.24 190.411C1717.34 190.516 1717.48 190.578 1717.62 190.583C1717.77 190.588 1717.91 190.536 1718.02 190.438L1724.58 184.459C1724.69 184.361 1724.75 184.225 1724.75 184.082C1724.76 183.939 1724.7 183.8 1724.61 183.695L1721.33 180.209C1721.28 180.157 1721.22 180.114 1721.15 180.085C1721.09 180.055 1721.02 180.039 1720.94 180.037C1720.87 180.035 1720.8 180.048 1720.73 180.074C1720.66 180.101 1720.6 180.14 1720.54 180.19Z" fill="#74DFFF"/>
<path fill-rule="evenodd" clip-rule="evenodd" d="M1726.88 193.704C1727.18 193.784 1727.37 193.626 1727.29 193.322L1725.39 185.247C1725.31 184.955 1725.06 184.875 1724.85 185.087L1718.67 190.73C1718.45 190.942 1718.51 191.18 1718.81 191.26L1726.88 193.704Z" fill="#74DFFF"/>
<path fill-rule="evenodd" clip-rule="evenodd" d="M1730.11 182.441L1722.63 180.19C1722.33 180.11 1722.28 180.217 1722.52 180.456L1725.26 183.352C1725.38 183.465 1725.53 183.547 1725.69 183.592C1725.85 183.637 1726.02 183.643 1726.19 183.609L1730.12 182.733C1730.41 182.653 1730.41 182.519 1730.11 182.441Z" fill="#74DFFF"/>
<path d="M1055.41 717.333C1056.29 717.445 1057.03 718.029 1057.35 718.853L1063.47 734.877C1063.76 735.638 1063.64 736.494 1063.16 737.15L1053.73 749.966C1053.24 750.631 1052.44 750.997 1051.61 750.933L1034.72 749.623C1033.84 749.554 1033.06 748.998 1032.71 748.179L1025.72 731.858C1025.39 731.078 1025.49 730.18 1025.99 729.497L1035.86 716.087C1036.38 715.388 1037.23 715.023 1038.09 715.132L1055.41 717.333Z" fill="url(#paint16_linear_6373_16696)"/>
<path d="M1055.39 717.531C1056.19 717.633 1056.87 718.169 1057.16 718.924L1063.28 734.949C1063.55 735.646 1063.44 736.431 1063 737.032L1053.57 749.848C1053.12 750.457 1052.39 750.793 1051.63 750.734L1034.74 749.424C1033.93 749.361 1033.21 748.851 1032.89 748.101L1025.9 731.779C1025.6 731.065 1025.69 730.242 1026.15 729.616L1036.03 716.205C1036.5 715.565 1037.28 715.23 1038.07 715.33L1055.39 717.531Z" stroke="#74DFFF" stroke-opacity="0.5" stroke-width="0.398787"/>
<g clip-path="url(#clip1_6373_16696)">
<path d="M1049.17 739.504C1049.34 738.441 1049.31 738.283 1050.1 738.49L1050.29 738.515C1050.9 738.569 1051.71 738.478 1052.19 738.279C1053.22 737.852 1053.85 737.093 1052.85 737.257C1050.55 737.63 1050.43 736.853 1050.43 736.853C1052.98 733.388 1054.18 728.902 1053.36 727.758C1051.12 724.634 1046.96 725.891 1046.89 725.926L1046.87 725.929C1046.43 725.816 1045.93 725.738 1045.36 725.706C1044.33 725.645 1043.54 725.899 1042.92 726.324C1042.92 726.324 1035.74 723.004 1035.79 729.814C1035.8 731.262 1037.4 740.84 1039.9 738.074C1040.82 737.061 1041.7 736.211 1041.7 736.211C1042.1 736.507 1042.59 736.669 1043.13 736.641L1043.17 736.608C1043.15 736.744 1043.15 736.881 1043.17 737.017C1042.52 737.677 1042.7 737.806 1041.46 738.006C1040.21 738.21 1040.92 738.697 1041.39 738.836C1041.96 739.005 1043.29 739.267 1044.25 738.04L1044.21 738.183C1044.44 738.386 1044.37 739.579 1044.37 740.432C1044.37 741.286 1044.39 742.085 1044.55 742.561C1044.7 743.038 1044.85 744.255 1046.48 743.977C1047.84 743.745 1048.89 743.373 1049.15 739.506" fill="#74DFFF"/>
<path d="M1052.85 737.257C1050.55 737.63 1050.43 736.853 1050.43 736.853C1052.99 733.388 1054.18 728.903 1053.36 727.758C1051.12 724.634 1046.97 725.891 1046.9 725.925L1046.88 725.928C1046.43 725.816 1045.93 725.738 1045.37 725.705C1044.34 725.645 1043.54 725.898 1042.92 726.323C1042.92 726.323 1035.75 723.004 1035.79 729.814C1035.8 731.263 1037.4 740.839 1039.91 738.073C1040.82 737.061 1041.7 736.21 1041.7 736.21C1042.11 736.506 1042.6 736.669 1043.13 736.64L1043.17 736.608C1043.15 736.737 1043.16 736.865 1043.17 737.016C1042.53 737.676 1042.7 737.806 1041.47 738.006C1040.21 738.209 1040.92 738.696 1041.39 738.836C1041.97 739.005 1043.3 739.266 1044.25 738.04L1044.21 738.183C1044.44 738.386 1044.57 739.455 1044.5 740.414C1044.43 741.374 1044.38 742.035 1044.55 742.559C1044.72 743.083 1044.86 744.252 1046.49 743.975C1047.85 743.742 1048.58 743.023 1048.73 741.777C1048.84 740.891 1048.99 741.029 1049.03 740.236L1049.17 739.866C1049.37 738.666 1049.26 738.273 1050.08 738.49L1050.28 738.516C1050.89 738.57 1051.7 738.478 1052.18 738.279C1053.21 737.852 1053.84 737.093 1052.83 737.257L1052.85 737.257Z" fill="#29576B"/>
<path d="M1044.39 737.59C1044.23 739.828 1044.21 742.088 1044.41 742.646C1044.6 743.204 1045.03 744.291 1046.66 744.013C1048.02 743.781 1048.53 743.242 1048.8 742.015L1049.46 738.085M1042.93 726.273C1042.93 726.273 1035.75 722.975 1035.8 729.784C1035.8 731.233 1037.41 740.81 1039.91 738.044C1040.83 737.038 1041.65 736.244 1041.65 736.244M1046.9 725.894C1046.63 725.963 1051.03 724.488 1053.35 727.734C1054.17 728.879 1052.98 733.365 1050.42 736.83" stroke="#74DFFF" stroke-width="0.487412" stroke-linecap="round" stroke-linejoin="round"/>
<path d="M1050.42 736.823C1050.42 736.823 1050.55 737.601 1052.84 737.228C1053.85 737.064 1053.21 737.822 1052.18 738.249C1051.34 738.599 1049.47 738.619 1049.46 738.086C1049.44 736.708 1050.49 737.171 1050.42 736.823ZM1050.42 736.823C1050.37 736.51 1049.91 736.186 1049.63 735.414C1049.38 734.74 1046.12 729.514 1050.8 730.468C1050.98 730.439 1049.76 725.935 1045.36 725.676C1040.95 725.417 1040.86 730.917 1040.86 730.917" stroke="#74DFFF" stroke-width="0.487412" stroke-linecap="round" stroke-linejoin="bevel"/>
<path d="M1043.17 736.987C1042.53 737.647 1042.71 737.776 1041.47 737.976C1040.21 738.18 1040.92 738.667 1041.4 738.806C1041.97 738.976 1043.3 739.237 1044.25 738.01C1044.54 737.637 1044.29 737.011 1043.92 736.838C1043.74 736.754 1043.5 736.65 1043.18 736.987L1043.17 736.987Z" stroke="#74DFFF" stroke-width="0.487412" stroke-linejoin="round"/>
<path d="M1043.13 736.974C1043.09 736.567 1043.3 736.096 1043.53 735.542C1043.88 734.712 1044.65 733.899 1044.18 731.201C1043.83 729.19 1040.87 730.645 1040.86 730.915C1040.85 731.186 1040.93 732.29 1040.7 733.563C1040.39 735.224 1041.63 736.692 1043.13 736.61" stroke="#74DFFF" stroke-width="0.487412" stroke-linecap="round" stroke-linejoin="round"/>
<path d="M1042.7 730.952C1042.68 731.044 1042.85 731.298 1043.09 731.341C1043.32 731.384 1043.54 731.2 1043.55 731.109C1043.57 731.017 1043.39 730.907 1043.15 730.863C1042.92 730.819 1042.71 730.86 1042.7 730.952L1042.7 730.952Z" fill="#74DFFF" stroke="#74DFFF" stroke-width="0.162658"/>
<path d="M1049.92 731.071C1049.93 731.164 1049.74 731.403 1049.5 731.425C1049.26 731.448 1049.07 731.247 1049.06 731.155C1049.05 731.062 1049.23 730.968 1049.47 730.945C1049.71 730.922 1049.91 730.979 1049.92 731.072L1049.92 731.071Z" fill="#74DFFF" stroke="#74DFFF" stroke-width="0.0810477"/>
<path d="M1050.8 730.47C1050.8 731.195 1050.59 731.68 1050.53 732.449C1050.45 733.569 1050.96 734.874 1050.05 736.122" stroke="#74DFFF" stroke-width="0.487412" stroke-linecap="round" stroke-linejoin="round"/>
</g>
<path d="M738.781 120.468C740.101 120.593 741.245 121.434 741.758 122.657L751.727 146.425C752.201 147.553 752.068 148.845 751.374 149.853L737.826 169.555C737.122 170.578 735.941 171.166 734.701 171.11L709.273 169.96C707.936 169.899 706.744 169.102 706.178 167.89L694.89 143.718C694.35 142.563 694.463 141.209 695.185 140.159L709.362 119.543C710.101 118.468 711.364 117.878 712.662 118.001L738.781 120.468Z" fill="#0F1924"/>
<path d="M738.753 120.766C739.963 120.881 741.012 121.652 741.482 122.773L751.451 146.541C751.885 147.575 751.763 148.759 751.128 149.683L737.579 169.386C736.934 170.323 735.851 170.862 734.714 170.811L709.286 169.661C708.061 169.605 706.968 168.874 706.449 167.763L695.161 143.591C694.667 142.532 694.77 141.291 695.432 140.329L709.609 119.713C710.286 118.728 711.444 118.187 712.634 118.299L738.753 120.766Z" stroke="#74DFFF" stroke-opacity="0.7" stroke-width="0.599189"/>
<g clip-path="url(#clip2_6373_16696)">
<g clip-path="url(#clip3_6373_16696)">
<mask id="mask0_6373_16696" style="mask-type:luminance" maskUnits="userSpaceOnUse" x="713" y="133" width="91" height="36">
<path d="M716.438 133.644L803.221 148.759L799.791 168.452L713.008 153.338L716.438 133.644Z" fill="white"/>
</mask>
<g mask="url(#mask0_6373_16696)">
<path fill-rule="evenodd" clip-rule="evenodd" d="M721.237 144.996C721.099 145.265 720.864 145.484 720.554 145.597L715.965 147.27C715.317 147.504 714.601 147.174 714.364 146.531C714.126 145.885 714.457 145.173 715.104 144.937L717.669 144.005L715.571 142.257C715.041 141.816 714.97 141.034 715.413 140.509C715.853 139.983 716.639 139.913 717.169 140.353L720.923 143.477C721.187 143.697 721.337 143.998 721.367 144.311C721.378 144.412 721.374 144.51 721.362 144.608C721.342 144.741 721.301 144.873 721.237 144.996ZM721.977 147.44C722.605 147.597 723.014 148.213 722.902 148.857L722.067 153.654C721.949 154.331 721.302 154.782 720.625 154.664C719.945 154.546 719.491 153.903 719.609 153.226L720.076 150.543L717.503 151.478C716.857 151.716 716.142 151.384 715.903 150.741C715.667 150.096 715.998 149.381 716.644 149.145L721.236 147.476C721.484 147.385 721.741 147.378 721.977 147.44ZM727.161 142.971C726.533 142.814 726.124 142.197 726.236 141.553L727.072 136.755C727.19 136.081 727.833 135.629 728.514 135.747C729.194 135.866 729.648 136.509 729.53 137.183L729.063 139.868L731.635 138.931C732.281 138.695 732.997 139.026 733.234 139.67C733.469 140.316 733.14 141.028 732.493 141.264L727.901 142.935C727.654 143.025 727.397 143.032 727.161 142.971ZM718.443 138.817C717.914 138.377 717.844 137.594 718.285 137.066C718.727 136.541 719.513 136.471 720.04 136.911L722.145 138.664L722.613 135.979C722.73 135.304 723.375 134.852 724.055 134.971C724.732 135.089 725.188 135.732 725.07 136.407L724.235 141.205C724.123 141.848 723.529 142.291 722.885 142.227C722.642 142.204 722.402 142.11 722.2 141.943L718.443 138.817ZM724.659 147.482C724.6 147.525 724.498 147.549 724.425 147.537L723.915 147.448C723.845 147.436 723.755 147.377 723.713 147.318L722.279 145.291C722.238 145.233 722.215 145.129 722.227 145.06L722.315 144.551C722.328 144.481 722.385 144.39 722.443 144.349L724.478 142.926C724.537 142.885 724.641 142.861 724.711 142.873L725.222 142.962C725.293 142.975 725.383 143.032 725.424 143.091L726.859 145.118C726.9 145.176 726.923 145.281 726.91 145.351L726.822 145.86C726.81 145.929 726.753 146.02 726.695 146.06L724.659 147.482ZM725.391 145.339C725.403 145.27 725.378 145.165 725.337 145.105L724.921 144.519C724.881 144.462 724.79 144.404 724.72 144.392L724.7 144.388C724.63 144.376 724.526 144.4 724.469 144.441L723.879 144.851C723.82 144.894 723.765 144.984 723.753 145.054L723.749 145.074C723.737 145.142 723.759 145.245 723.8 145.304L724.216 145.891C724.257 145.949 724.346 146.006 724.416 146.018L724.436 146.022C724.506 146.034 724.611 146.01 724.669 145.969L725.258 145.558C725.317 145.516 725.376 145.428 725.388 145.359L725.391 145.339ZM730.694 151.592C731.224 152.033 731.292 152.818 730.852 153.344C730.412 153.869 729.625 153.94 729.098 153.497L726.994 151.748L726.526 154.431C726.408 155.107 725.764 155.559 725.084 155.441C724.403 155.322 723.95 154.679 724.068 154.003L724.904 149.205C725.016 148.562 725.609 148.12 726.253 148.185C726.496 148.206 726.735 148.299 726.937 148.469L730.694 151.592ZM731.469 146.408L733.567 148.153C734.097 148.594 734.168 149.376 733.726 149.903C733.284 150.428 732.498 150.497 731.97 150.057L728.213 146.931C727.962 146.721 727.813 146.434 727.777 146.135C727.759 145.998 727.763 145.86 727.791 145.727C727.81 145.631 727.841 145.538 727.885 145.446C728.02 145.162 728.263 144.929 728.582 144.811L733.175 143.14C733.82 142.905 734.537 143.237 734.775 143.881C735.013 144.525 734.682 145.237 734.034 145.472L731.469 146.408Z" fill="#74DFFF" fill-opacity="0.8"/>
</g>
</g>
</g>
<path d="M1640.91 668.205C1641.49 667.009 1642.67 666.224 1643.99 666.164L1669.74 664.998C1670.96 664.942 1672.13 665.512 1672.84 666.51L1686.66 686.02C1687.38 687.033 1687.53 688.344 1687.05 689.489L1677.2 712.963C1676.68 714.197 1675.53 715.041 1674.19 715.155L1647.61 717.42C1646.34 717.528 1645.11 716.956 1644.37 715.916L1629.91 695.502C1629.15 694.438 1629.03 693.049 1629.59 691.873L1640.91 668.205Z" fill="url(#paint17_linear_6373_16696)"/>
<path d="M1641.18 668.334C1641.71 667.238 1642.79 666.519 1644.01 666.464L1669.76 665.297C1670.88 665.246 1671.94 665.769 1672.59 666.684L1686.42 686.193C1687.08 687.121 1687.21 688.324 1686.77 689.373L1676.93 712.847C1676.45 713.978 1675.39 714.752 1674.17 714.856L1647.59 717.121C1646.42 717.22 1645.29 716.696 1644.62 715.743L1630.15 695.329C1629.46 694.354 1629.35 693.08 1629.87 692.002L1641.18 668.334Z" stroke="#74DFFF" stroke-opacity="0.7" stroke-width="0.599189"/>
<g clip-path="url(#clip4_6373_16696)">
<path d="M1657.77 678.532C1656 677.473 1654.4 676.332 1654.07 676.094C1654.04 676.079 1654.01 676.091 1653.99 676.122C1653.88 676.51 1653.29 678.387 1652.53 680.3C1646.29 697.672 1661.98 702.679 1661.98 702.679L1662.11 702.713C1662.69 704.109 1663.62 706.084 1663.62 706.084L1664.08 705.926L1664.55 705.767C1664.55 705.767 1664.1 703.646 1663.71 702.175L1663.79 702.058C1663.8 702.054 1673.26 688.573 1657.77 678.532ZM1662.82 702.165C1662.82 702.165 1662.09 701.879 1661.86 701.687L1661.85 701.664L1657.5 686.509C1657.48 686.463 1657.55 686.439 1657.57 686.485L1663.28 701.181L1663.29 701.204C1663.22 701.5 1662.82 702.165 1662.82 702.165Z" fill="#74DFFF"/>
</g>
</g>
<defs>
<filter id="filter0_f_6373_16696" x="579.336" y="495.741" width="1963.29" height="1278.66" filterUnits="userSpaceOnUse" color-interpolation-filters="sRGB">
<feFlood flood-opacity="0" result="BackgroundImageFix"/>
<feBlend mode="normal" in="SourceGraphic" in2="BackgroundImageFix" result="shape"/>
<feGaussianBlur stdDeviation="113.5" result="effect1_foregroundBlur_6373_16696"/>
</filter>
<filter id="filter1_f_6373_16696" x="94.3398" y="360.741" width="2410.13" height="1522.81" filterUnits="userSpaceOnUse" color-interpolation-filters="sRGB">
<feFlood flood-opacity="0" result="BackgroundImageFix"/>
<feBlend mode="normal" in="SourceGraphic" in2="BackgroundImageFix" result="shape"/>
<feGaussianBlur stdDeviation="113.5" result="effect1_foregroundBlur_6373_16696"/>
</filter>
<filter id="filter2_f_6373_16696" x="353" y="599" width="744" height="744" filterUnits="userSpaceOnUse" color-interpolation-filters="sRGB">
<feFlood flood-opacity="0" result="BackgroundImageFix"/>
<feBlend mode="normal" in="SourceGraphic" in2="BackgroundImageFix" result="shape"/>
<feGaussianBlur stdDeviation="2.5" result="effect1_foregroundBlur_6373_16696"/>
</filter>
<filter id="filter3_f_6373_16696" x="1346" y="128" width="418" height="418" filterUnits="userSpaceOnUse" color-interpolation-filters="sRGB">
<feFlood flood-opacity="0" result="BackgroundImageFix"/>
<feBlend mode="normal" in="SourceGraphic" in2="BackgroundImageFix" result="shape"/>
<feGaussianBlur stdDeviation="10" result="effect1_foregroundBlur_6373_16696"/>
</filter>
<filter id="filter4_f_6373_16696" x="901.078" y="159.078" width="59.6289" height="59.6309" filterUnits="userSpaceOnUse" color-interpolation-filters="sRGB">
<feFlood flood-opacity="0" result="BackgroundImageFix"/>
<feBlend mode="normal" in="SourceGraphic" in2="BackgroundImageFix" result="shape"/>
<feGaussianBlur stdDeviation="2.5" result="effect1_foregroundBlur_6373_16696"/>
</filter>
<filter id="filter5_f_6373_16696" x="903.078" y="166.078" width="59.6289" height="59.6309" filterUnits="userSpaceOnUse" color-interpolation-filters="sRGB">
<feFlood flood-opacity="0" result="BackgroundImageFix"/>
<feBlend mode="normal" in="SourceGraphic" in2="BackgroundImageFix" result="shape"/>
<feGaussianBlur stdDeviation="2.5" result="effect1_foregroundBlur_6373_16696"/>
</filter>
<filter id="filter6_f_6373_16696" x="1824.75" y="220.754" width="78.7969" height="78.7964" filterUnits="userSpaceOnUse" color-interpolation-filters="sRGB">
<feFlood flood-opacity="0" result="BackgroundImageFix"/>
<feBlend mode="normal" in="SourceGraphic" in2="BackgroundImageFix" result="shape"/>
<feGaussianBlur stdDeviation="5" result="effect1_foregroundBlur_6373_16696"/>
</filter>
<filter id="filter7_f_6373_16696" x="1608.88" y="637.88" width="577.031" height="577.029" filterUnits="userSpaceOnUse" color-interpolation-filters="sRGB">
<feFlood flood-opacity="0" result="BackgroundImageFix"/>
<feBlend mode="normal" in="SourceGraphic" in2="BackgroundImageFix" result="shape"/>
<feGaussianBlur stdDeviation="5" result="effect1_foregroundBlur_6373_16696"/>
</filter>
<filter id="filter8_f_6373_16696" x="1791.09" y="462.094" width="83.5898" height="83.5898" filterUnits="userSpaceOnUse" color-interpolation-filters="sRGB">
<feFlood flood-opacity="0" result="BackgroundImageFix"/>
<feBlend mode="normal" in="SourceGraphic" in2="BackgroundImageFix" result="shape"/>
<feGaussianBlur stdDeviation="3" result="effect1_foregroundBlur_6373_16696"/>
</filter>
<filter id="filter9_f_6373_16696" x="1789.09" y="462.094" width="83.5898" height="83.5898" filterUnits="userSpaceOnUse" color-interpolation-filters="sRGB">
<feFlood flood-opacity="0" result="BackgroundImageFix"/>
<feBlend mode="normal" in="SourceGraphic" in2="BackgroundImageFix" result="shape"/>
<feGaussianBlur stdDeviation="3" result="effect1_foregroundBlur_6373_16696"/>
</filter>
<linearGradient id="paint0_linear_6373_16696" x1="450.5" y1="0" x2="450.5" y2="847" gradientUnits="userSpaceOnUse">
<stop stop-color="#4FDAB8"/>
<stop offset="1" stop-color="#4FDAB8" stop-opacity="0"/>
</linearGradient>
<linearGradient id="paint1_linear_6373_16696" x1="581.733" y1="0" x2="581.733" y2="1093.73" gradientUnits="userSpaceOnUse">
<stop stop-color="#52C7EA"/>
<stop offset="1" stop-color="#52C7EA" stop-opacity="0"/>
</linearGradient>
<radialGradient id="paint2_radial_6373_16696" cx="0" cy="0" r="1" gradientUnits="userSpaceOnUse" gradientTransform="translate(1007.49 116.182) rotate(89.1122) scale(724.531)">
<stop stop-color="#4FDAB8" stop-opacity="0.25"/>
<stop offset="1" stop-color="#52C7EA" stop-opacity="0"/>
</radialGradient>
<radialGradient id="paint3_radial_6373_16696" cx="0" cy="0" r="1" gradientUnits="userSpaceOnUse" gradientTransform="translate(243.295 539.711) rotate(-87.9037) scale(551.549)">
<stop stop-color="#52C7EA" stop-opacity="0.7"/>
<stop offset="1" stop-color="#52C7EA" stop-opacity="0"/>
</radialGradient>
<radialGradient id="paint4_radial_6373_16696" cx="0" cy="0" r="1" gradientUnits="userSpaceOnUse" gradientTransform="translate(1281 16) rotate(89.0891) scale(597.576)">
<stop offset="0.43" stop-color="#4FDAB8" stop-opacity="0.2"/>
<stop offset="0.766526" stop-color="#51CCDC" stop-opacity="0.1"/>
<stop offset="1" stop-color="#52C7EA" stop-opacity="0"/>
</radialGradient>
<radialGradient id="paint5_radial_6373_16696" cx="0" cy="0" r="1" gradientUnits="userSpaceOnUse" gradientTransform="translate(1261.1 1103.13) rotate(-84.991) scale(479.961)">
<stop stop-color="#4FDAB8" stop-opacity="0.6"/>
<stop offset="0.768138" stop-color="#51CBDE" stop-opacity="0.2"/>
<stop offset="1" stop-color="#52C7EA" stop-opacity="0"/>
</radialGradient>
<radialGradient id="paint6_radial_6373_16696" cx="0" cy="0" r="1" gradientUnits="userSpaceOnUse" gradientTransform="translate(1700 171) rotate(130.355) scale(654.811 654.811)">
<stop stop-color="#4FDAB8" stop-opacity="0.2"/>
<stop offset="0.753754" stop-color="#52C7EA" stop-opacity="0"/>
</radialGradient>
<linearGradient id="paint7_linear_6373_16696" x1="881.552" y1="1268.06" x2="1092" y2="778.517" gradientUnits="userSpaceOnUse">
<stop stop-color="#3A74C6" stop-opacity="0.2"/>
<stop offset="1" stop-color="#60D1F2" stop-opacity="0"/>
</linearGradient>
<linearGradient id="paint8_linear_6373_16696" x1="1916.5" y1="876.5" x2="1634" y2="449" gradientUnits="userSpaceOnUse">
<stop stop-color="#0E2A4B" stop-opacity="0.15"/>
<stop offset="1" stop-color="#60D1F2" stop-opacity="0"/>
</linearGradient>
<linearGradient id="paint9_linear_6373_16696" x1="1744" y1="406.5" x2="1389.5" y2="231.5" gradientUnits="userSpaceOnUse">
<stop stop-color="#3A74C6" stop-opacity="0.1"/>
<stop offset="1" stop-color="#60D1F2" stop-opacity="0"/>
</linearGradient>
<linearGradient id="paint10_linear_6373_16696" x1="943.476" y1="215.976" x2="957.704" y2="182.88" gradientUnits="userSpaceOnUse">
<stop stop-color="#3A74C6" stop-opacity="0.2"/>
<stop offset="1" stop-color="#60D1F2" stop-opacity="0"/>
</linearGradient>
<linearGradient id="paint11_linear_6373_16696" x1="1876.69" y1="283.944" x2="1893.55" y2="244.736" gradientUnits="userSpaceOnUse">
<stop stop-color="#1F2B3C" stop-opacity="0.6"/>
<stop offset="1" stop-color="#0B1416" stop-opacity="0.4"/>
</linearGradient>
<linearGradient id="paint12_linear_6373_16696" x1="1790.3" y1="1156.69" x2="1996.73" y2="815.23" gradientUnits="userSpaceOnUse">
<stop stop-color="#1E413D" stop-opacity="0.1"/>
<stop offset="0.959675" stop-color="#1C93B6" stop-opacity="0.01"/>
</linearGradient>
<linearGradient id="paint13_linear_6373_16696" x1="1846.16" y1="532.858" x2="1866.68" y2="485.118" gradientUnits="userSpaceOnUse">
<stop stop-color="#3AC69C" stop-opacity="0.1"/>
<stop offset="1" stop-color="#60D1F2" stop-opacity="0"/>
</linearGradient>
<linearGradient id="paint14_linear_6373_16696" x1="805.648" y1="136.461" x2="815.931" y2="174.84" gradientUnits="userSpaceOnUse">
<stop offset="0.40073" stop-color="#0F1923"/>
<stop offset="1" stop-color="#0F1923"/>
</linearGradient>
<linearGradient id="paint15_linear_6373_16696" x1="1714.46" y1="172.624" x2="1732.03" y2="208.258" gradientUnits="userSpaceOnUse">
<stop offset="0.40073" stop-color="#101A26"/>
<stop offset="1" stop-color="#1D3651"/>
</linearGradient>
<linearGradient id="paint16_linear_6373_16696" x1="1056.43" y1="717.218" x2="1032.88" y2="749.214" gradientUnits="userSpaceOnUse">
<stop offset="0.40073" stop-color="#28566A"/>
<stop offset="1" stop-color="#2C6675"/>
</linearGradient>
<linearGradient id="paint17_linear_6373_16696" x1="1641.23" y1="666.696" x2="1675.75" y2="715.404" gradientUnits="userSpaceOnUse">
<stop stop-color="#1B3843"/>
<stop offset="1" stop-color="#25525E"/>
</linearGradient>
<clipPath id="clip0_6373_16696">
<rect width="2560" height="840" fill="white"/>
</clipPath>
<clipPath id="clip1_6373_16696">
<rect width="22.9748" height="22.9748" fill="white" transform="translate(1036.28 719.319) rotate(12.4703)"/>
</clipPath>
<clipPath id="clip2_6373_16696">
<rect width="24.1507" height="24.1507" fill="white" transform="translate(714.598 130.09) rotate(8.35649)"/>
</clipPath>
<clipPath id="clip3_6373_16696">
<rect width="20" height="20" fill="white" transform="translate(716.434 133.644) rotate(9.87985)"/>
</clipPath>
<clipPath id="clip4_6373_16696">
<rect width="14.8651" height="31.5884" fill="white" transform="translate(1646.98 678.465) rotate(-18.64)"/>
</clipPath>
</defs>
</svg>
