<svg width="2560" height="840" viewBox="0 0 2560 840" fill="none" xmlns="http://www.w3.org/2000/svg">
<g clip-path="url(#clip0_6433_16213)">
<g opacity="0.7" filter="url(#filter0_f_6433_16213)">
<rect width="901" height="847" rx="24" transform="matrix(0.87755 0.479485 -0.87755 0.479485 1537.29 716)" fill="url(#paint0_linear_6433_16213)"/>
</g>
<g opacity="0.7" filter="url(#filter1_f_6433_16213)">
<rect width="1163.47" height="1093.73" rx="24" transform="matrix(0.87755 0.479485 -0.87755 0.479485 1268.81 581)" fill="url(#paint1_linear_6433_16213)"/>
</g>
<circle cx="1048.62" cy="454.571" r="283.669" transform="rotate(-60 1048.62 454.571)" stroke="url(#paint2_radial_6433_16213)"/>
<circle cx="284.169" cy="284.169" r="283.669" transform="matrix(-0.5 -0.866025 -0.866025 0.5 1421.8 828.906)" stroke="url(#paint3_radial_6433_16213)"/>
<path d="M764.414 662.333C765.29 662.445 766.033 663.029 766.348 663.853L772.47 679.877C772.76 680.638 772.644 681.494 772.162 682.15L762.726 694.966C762.237 695.631 761.438 695.997 760.615 695.933L743.724 694.623C742.837 694.554 742.061 693.998 741.71 693.179L734.719 676.858C734.386 676.078 734.489 675.18 734.992 674.497L744.865 661.087C745.379 660.388 746.232 660.023 747.093 660.132L764.414 662.333Z" fill="#17293A"/>
<path d="M764.389 662.531C765.192 662.633 765.873 663.169 766.161 663.924L772.284 679.949C772.55 680.646 772.443 681.431 772.001 682.032L762.566 694.848C762.117 695.457 761.385 695.793 760.63 695.734L743.74 694.424C742.926 694.361 742.215 693.851 741.893 693.101L734.903 676.779C734.597 676.065 734.692 675.242 735.153 674.616L745.025 661.205C745.497 660.565 746.279 660.23 747.068 660.33L764.389 662.531Z" stroke="#74DFFF" stroke-opacity="0.5" stroke-width="0.398787"/>
<path d="M756.077 684.168C756.651 683.256 756.683 683.098 757.329 683.596L757.499 683.696C758.041 683.983 758.818 684.211 759.338 684.215C760.454 684.223 761.333 683.77 760.342 683.53C758.082 682.98 758.27 682.216 758.27 682.216C761.971 680.018 764.817 676.351 764.507 674.978C763.661 671.23 759.343 670.771 759.266 670.776L759.244 670.77C758.878 670.493 758.446 670.226 757.939 669.977C757.014 669.521 756.184 669.446 755.449 669.597C755.449 669.597 750.127 663.747 747.521 670.038C746.967 671.377 744.715 680.821 748.1 679.248C749.337 678.672 750.478 678.23 750.478 678.23C750.738 678.661 751.124 679 751.627 679.182L751.679 679.168C751.61 679.286 751.556 679.413 751.519 679.544C750.669 679.902 750.781 680.09 749.562 679.792C748.328 679.492 748.793 680.217 749.174 680.529C749.635 680.908 750.758 681.665 752.115 680.907L752.021 681.023C752.157 681.3 751.631 682.373 751.297 683.158C750.963 683.944 750.674 684.689 750.631 685.188C750.588 685.687 750.255 686.867 751.865 687.246C753.209 687.561 754.321 687.627 756.063 684.164" fill="#74DFFF"/>
<path d="M760.346 683.532C758.086 682.982 758.274 682.219 758.274 682.219C761.976 680.02 764.821 676.353 764.511 674.979C763.665 671.232 759.347 670.773 759.27 670.777L759.248 670.771C758.881 670.495 758.45 670.228 757.942 669.978C757.018 669.523 756.188 669.447 755.453 669.598C755.453 669.598 750.131 663.748 747.525 670.04C746.97 671.379 744.719 680.823 748.103 679.249C749.341 678.673 750.482 678.232 750.482 678.232C750.742 678.663 751.134 679.005 751.631 679.183L751.683 679.17C751.615 679.282 751.567 679.4 751.523 679.546C750.673 679.904 750.784 680.091 749.566 679.794C748.332 679.494 748.797 680.219 749.178 680.531C749.639 680.909 750.761 681.667 752.119 680.909L752.025 681.024C752.16 681.302 751.86 682.335 751.422 683.192C750.984 684.049 750.685 684.64 750.636 685.188C750.588 685.736 750.26 686.867 751.871 687.246C753.215 687.561 754.169 687.183 754.791 686.093C755.234 685.319 755.319 685.505 755.667 684.791L755.941 684.504C756.588 683.475 756.644 683.072 757.318 683.592L757.487 683.691C758.029 683.979 758.807 684.207 759.326 684.211C760.443 684.219 761.322 683.766 760.331 683.526L760.346 683.532Z" fill="#29576B"/>
<path d="M752.416 680.545C751.4 682.546 750.505 684.621 750.468 685.211C750.432 685.801 750.4 686.968 752.01 687.346C753.354 687.661 754.038 687.365 754.759 686.338L756.901 682.976M755.479 669.554C755.479 669.554 750.143 663.721 747.542 670.014C746.982 671.351 744.736 680.798 748.12 679.224C749.355 678.654 750.422 678.243 750.422 678.243M759.279 670.747C759.009 670.708 763.634 671.059 764.51 674.953C764.82 676.326 761.98 679.997 758.272 682.192" stroke="#74DFFF" stroke-width="0.487412" stroke-linecap="round" stroke-linejoin="round"/>
<path d="M758.274 682.186C758.274 682.186 758.086 682.951 760.348 683.5C761.338 683.74 760.454 684.19 759.343 684.185C758.428 684.178 756.701 683.472 756.901 682.977C757.418 681.699 758.197 682.53 758.274 682.186ZM758.274 682.186C758.345 681.876 758.047 681.398 758.088 680.578C758.124 679.862 757.156 673.78 761.095 676.479C761.267 676.52 761.901 671.898 757.943 669.946C753.985 667.994 751.766 673.027 751.766 673.027" stroke="#74DFFF" stroke-width="0.487412" stroke-linecap="round" stroke-linejoin="bevel"/>
<path d="M751.533 679.518C750.683 679.876 750.795 680.063 749.576 679.766C748.342 679.466 748.807 680.191 749.188 680.503C749.649 680.881 750.772 681.639 752.129 680.881C752.543 680.65 752.556 679.976 752.281 679.672C752.148 679.525 751.968 679.336 751.534 679.518L751.533 679.518Z" stroke="#74DFFF" stroke-width="0.487412" stroke-linejoin="round"/>
<path d="M751.501 679.49C751.618 679.098 752 678.748 752.429 678.327C753.072 677.698 754.094 677.247 754.709 674.578C755.173 672.591 751.881 672.781 751.764 673.025C751.647 673.269 751.296 674.32 750.587 675.402C749.659 676.813 750.228 678.647 751.642 679.155" stroke="#74DFFF" stroke-width="0.487412" stroke-linecap="round" stroke-linejoin="round"/>
<path d="M753.446 673.775C753.394 673.854 753.454 674.154 753.654 674.285C753.854 674.416 754.12 674.329 754.171 674.251C754.221 674.173 754.101 674.003 753.901 673.871C753.701 673.739 753.496 673.696 753.445 673.775L753.446 673.775Z" fill="#74DFFF" stroke="#74DFFF" stroke-width="0.162658"/>
<path d="M760.052 676.693C760.024 676.782 759.753 676.927 759.525 676.855C759.298 676.784 759.196 676.523 759.223 676.434C759.251 676.345 759.46 676.331 759.688 676.403C759.917 676.475 760.08 676.605 760.052 676.694L760.052 676.693Z" fill="#74DFFF" stroke="#74DFFF" stroke-width="0.0810477"/>
<path d="M761.091 676.479C760.817 677.15 760.429 677.513 760.077 678.2C759.564 679.198 759.532 680.602 758.205 681.395" stroke="#74DFFF" stroke-width="0.487412" stroke-linecap="round" stroke-linejoin="round"/>
<circle cx="1280.78" cy="300.144" r="283.644" stroke="url(#paint4_radial_6433_16213)"/>
<circle cx="1280.78" cy="888.432" r="283.644" stroke="url(#paint5_radial_6433_16213)"/>
<path d="M1717.29 513.076C1748.11 530.869 1774.33 553.571 1795.52 579.624C1772.19 614.194 1740.84 644.133 1702.29 666.389C1579.92 737.044 1426.78 706.15 1340.45 599.854C1423.02 477.452 1587.47 438.121 1717.29 513.076ZM1796.11 578.756C1774.87 552.71 1748.63 530.012 1717.79 512.21C1587.6 437.042 1422.71 476.407 1339.79 599.041C1330.66 587.719 1322.29 575.548 1314.79 562.559C1236.46 426.882 1282.95 253.393 1418.62 175.06C1554.3 96.7266 1727.79 143.213 1806.12 278.89C1862.01 375.695 1854.36 491.75 1796.11 578.756ZM1329.79 616.906C1333 611.362 1336.36 605.966 1339.86 600.722C1426.53 707.202 1580.08 738.106 1702.79 667.255C1741.39 644.974 1772.79 615.022 1796.18 580.436C1867.73 669.049 1881.48 796.036 1821.12 900.576C1742.79 1036.25 1569.3 1082.74 1433.62 1004.41C1297.95 926.073 1251.46 752.583 1329.79 616.906Z" stroke="url(#paint6_radial_6433_16213)"/>
<g filter="url(#filter2_f_6433_16213)">
<circle cx="725" cy="971" r="367" fill="url(#paint7_linear_6433_16213)"/>
</g>
<circle cx="1574" cy="759" r="285" fill="url(#paint8_linear_6433_16213)"/>
<g filter="url(#filter3_f_6433_16213)">
<circle cx="1555" cy="337" r="189" fill="url(#paint9_linear_6433_16213)"/>
</g>
<g filter="url(#filter4_f_6433_16213)">
<circle cx="930.893" cy="188.893" r="24.8111" transform="rotate(120 930.893 188.893)" fill="#162535"/>
</g>
<g filter="url(#filter5_f_6433_16213)">
<circle cx="932.893" cy="195.893" r="24.8111" transform="rotate(120 932.893 195.893)" fill="url(#paint10_linear_6433_16213)"/>
</g>
<g filter="url(#filter6_f_6433_16213)">
<circle cx="1864.15" cy="260.152" r="29.3932" transform="rotate(120 1864.15 260.152)" fill="url(#paint11_linear_6433_16213)"/>
</g>
<g filter="url(#filter7_f_6433_16213)">
<circle cx="1897.39" cy="926.394" r="278.468" transform="rotate(120 1897.39 926.394)" fill="url(#paint12_linear_6433_16213)"/>
</g>
<g filter="url(#filter8_f_6433_16213)">
<circle cx="1832.89" cy="503.889" r="35.7889" transform="rotate(120 1832.89 503.889)" fill="#162535"/>
</g>
<g filter="url(#filter9_f_6433_16213)">
<circle cx="1830.89" cy="503.889" r="35.7889" transform="rotate(120 1830.89 503.889)" fill="url(#paint13_linear_6433_16213)"/>
</g>
<path d="M639.101 326.329C639.735 325.715 640.655 325.499 641.495 325.768L657.835 330.992C658.61 331.24 659.206 331.865 659.417 332.652L663.536 348.024C663.75 348.822 663.537 349.674 662.973 350.277L651.403 362.652C650.795 363.302 649.876 363.561 649.017 363.324L631.904 358.593C631.087 358.367 630.45 357.725 630.231 356.906L625.921 340.821C625.696 339.983 625.943 339.088 626.566 338.484L639.101 326.329Z" fill="url(#paint14_linear_6433_16213)"/>
<path d="M639.24 326.472C639.821 325.909 640.664 325.711 641.435 325.958L657.774 331.182C658.485 331.409 659.031 331.982 659.225 332.703L663.343 348.075C663.539 348.807 663.344 349.588 662.827 350.141L651.257 362.516C650.7 363.112 649.857 363.349 649.071 363.132L631.957 358.401C631.208 358.194 630.624 357.605 630.423 356.854L626.113 340.77C625.907 340.001 626.134 339.181 626.705 338.627L639.24 326.472Z" stroke="#74DFFF" stroke-opacity="0.5" stroke-width="0.398787"/>
<g clip-path="url(#clip1_6433_16213)">
<path fill-rule="evenodd" clip-rule="evenodd" d="M650.388 336.588L648.987 343.948L654.253 349.277L655.386 348.098L651.985 336.935L650.388 336.588Z" fill="#74DFFF"/>
<path fill-rule="evenodd" clip-rule="evenodd" d="M650.387 336.588L643.954 339.381L642.261 345.996L647.354 350.544L654.252 349.277L650.387 336.588Z" fill="#36A7C9"/>
<path fill-rule="evenodd" clip-rule="evenodd" d="M636.94 340.685L636.002 341.497L639.574 353.223L640.805 353.374L645.659 344.963L636.94 340.685Z" fill="#36A7C9"/>
<path fill-rule="evenodd" clip-rule="evenodd" d="M636.918 340.677L644.304 340.494L647.077 349.596L640.789 353.384L636.918 340.677Z" fill="#74DFFF"/>
<path fill-rule="evenodd" clip-rule="evenodd" d="M644.611 341.493L641.578 341.91L643.47 337.745L647.354 340.15L644.611 341.493Z" fill="#58150D"/>
<path fill-rule="evenodd" clip-rule="evenodd" d="M647.354 340.15L644.61 341.501L641.578 341.91L640.578 338.626" fill="#36A7C9"/>
<path fill-rule="evenodd" clip-rule="evenodd" d="M646.712 348.381L643.983 349.797L647.734 351.736L649.759 348.038L646.712 348.381Z" fill="#36A7C9"/>
<path fill-rule="evenodd" clip-rule="evenodd" d="M642.704 335.285L640.277 337.692L641.562 341.908L644.213 340.208L642.704 335.285Z" fill="#36A7C9"/>
<path fill-rule="evenodd" clip-rule="evenodd" d="M644.923 342.528L642.131 343.722L643.413 347.932L646.402 347.383L644.923 342.528Z" fill="#36A7C9"/>
<path fill-rule="evenodd" clip-rule="evenodd" d="M647.089 349.631L643.98 349.787L645.241 353.925L648.589 354.557L647.089 349.631Z" fill="#36A7C9"/>
<path fill-rule="evenodd" clip-rule="evenodd" d="M649.755 348.027L647.088 349.632L648.588 354.557L651.016 352.166L649.755 348.027Z" fill="#74DFFF"/>
<path fill-rule="evenodd" clip-rule="evenodd" d="M644.922 342.528L647.905 341.963L649.188 346.173L646.401 347.383L644.922 342.528Z" fill="#74DFFF"/>
<path fill-rule="evenodd" clip-rule="evenodd" d="M642.707 335.286L646.063 335.931L647.347 340.148L644.212 340.225L642.707 335.286Z" fill="#74DFFF"/>
</g>
<path d="M1724.08 164.507C1725.11 163.901 1726.38 163.909 1727.4 164.528L1747.21 176.558C1748.15 177.129 1748.74 178.139 1748.77 179.238L1749.31 200.732C1749.34 201.847 1748.79 202.899 1747.86 203.513L1728.75 216.107C1727.74 216.769 1726.46 216.818 1725.4 216.235L1704.42 204.608C1703.42 204.052 1702.79 203.008 1702.76 201.862L1702.19 179.373C1702.16 178.2 1702.76 177.104 1703.77 176.507L1724.08 164.507Z" fill="url(#paint15_linear_6433_16213)"/>
<path d="M1724.22 164.739C1725.16 164.183 1726.33 164.19 1727.26 164.758L1747.07 176.788C1747.93 177.311 1748.47 178.237 1748.5 179.245L1749.04 200.738C1749.07 201.761 1748.57 202.725 1747.71 203.288L1728.6 215.882C1727.68 216.489 1726.5 216.534 1725.53 215.999L1704.55 204.372L1704.42 204.608L1704.55 204.372C1703.63 203.863 1703.05 202.906 1703.03 201.856L1702.45 179.366C1702.43 178.291 1702.98 177.286 1703.91 176.739L1724.22 164.739Z" stroke="#74DFFF" stroke-opacity="0.5" stroke-width="0.538763"/>
<path fill-rule="evenodd" clip-rule="evenodd" d="M1730.67 192.838L1735.39 191.775C1735.46 191.76 1735.53 191.731 1735.59 191.689C1735.65 191.647 1735.7 191.593 1735.74 191.53C1735.78 191.468 1735.8 191.398 1735.81 191.326C1735.82 191.253 1735.81 191.18 1735.79 191.11L1733.79 182.556C1733.75 182.415 1733.66 182.294 1733.53 182.219C1733.4 182.144 1733.25 182.122 1733.11 182.157L1728.4 183.22C1728.25 183.256 1728.13 183.346 1728.05 183.471C1727.98 183.595 1727.96 183.744 1727.99 183.885L1729.99 192.439C1730.03 192.58 1730.12 192.701 1730.25 192.776C1730.37 192.851 1730.53 192.873 1730.67 192.838Z" fill="#74DFFF"/>
<path fill-rule="evenodd" clip-rule="evenodd" d="M1729.05 198.124L1734.76 192.918C1734.98 192.704 1734.92 192.572 1734.63 192.677L1730.7 193.556C1730.53 193.595 1730.38 193.674 1730.26 193.786C1730.14 193.897 1730.05 194.037 1729.99 194.193L1728.8 197.965C1728.72 198.257 1728.83 198.338 1729.05 198.124Z" fill="#74DFFF"/>
<path fill-rule="evenodd" clip-rule="evenodd" d="M1718.61 196.425L1727.17 199.027C1727.32 199.054 1727.47 199.029 1727.6 198.956C1727.73 198.883 1727.83 198.768 1727.88 198.63L1729.31 194.114C1729.33 194.043 1729.34 193.969 1729.33 193.896C1729.32 193.824 1729.3 193.753 1729.27 193.689C1729.23 193.625 1729.18 193.568 1729.12 193.522C1729.06 193.477 1729 193.443 1728.93 193.423L1720.36 190.845C1720.22 190.805 1720.06 190.822 1719.93 190.893C1719.8 190.965 1719.7 191.085 1719.66 191.227L1718.23 195.734C1718.19 195.875 1718.21 196.027 1718.28 196.156C1718.35 196.286 1718.47 196.383 1718.61 196.425Z" fill="#74DFFF"/>
<path fill-rule="evenodd" clip-rule="evenodd" d="M1715.85 187.18L1717.59 194.654C1717.64 194.946 1717.78 194.946 1717.86 194.654L1719.05 190.882C1719.09 190.721 1719.09 190.553 1719.05 190.392C1719.02 190.23 1718.94 190.08 1718.83 189.952L1716.1 187.046C1715.9 186.827 1715.76 186.888 1715.85 187.18Z" fill="#74DFFF"/>
<path fill-rule="evenodd" clip-rule="evenodd" d="M1722.54 179.191L1715.98 185.16C1715.88 185.259 1715.82 185.394 1715.81 185.536C1715.81 185.679 1715.86 185.818 1715.96 185.924L1719.24 189.411C1719.34 189.517 1719.48 189.579 1719.62 189.584C1719.77 189.589 1719.91 189.536 1720.02 189.438L1726.58 183.459C1726.69 183.361 1726.75 183.226 1726.75 183.083C1726.76 182.94 1726.7 182.801 1726.61 182.696L1723.33 179.21C1723.28 179.157 1723.22 179.115 1723.15 179.085C1723.09 179.056 1723.02 179.04 1722.94 179.038C1722.87 179.036 1722.8 179.049 1722.73 179.075C1722.66 179.101 1722.6 179.14 1722.54 179.191Z" fill="#74DFFF"/>
<path fill-rule="evenodd" clip-rule="evenodd" d="M1728.88 192.704C1729.18 192.785 1729.37 192.626 1729.29 192.323L1727.39 184.248C1727.31 183.956 1727.06 183.875 1726.85 184.087L1720.67 189.73C1720.45 189.942 1720.51 190.181 1720.81 190.261L1728.88 192.704Z" fill="#74DFFF"/>
<path fill-rule="evenodd" clip-rule="evenodd" d="M1732.11 181.442L1724.63 179.191C1724.33 179.111 1724.28 179.218 1724.52 179.456L1727.26 182.352C1727.38 182.465 1727.53 182.547 1727.69 182.592C1727.85 182.637 1728.02 182.643 1728.19 182.61L1732.12 181.734C1732.41 181.653 1732.41 181.52 1732.11 181.442Z" fill="#74DFFF"/>
<path d="M628.781 120.468C630.101 120.593 631.245 121.434 631.758 122.657L641.727 146.425C642.201 147.553 642.068 148.845 641.374 149.853L627.826 169.555C627.122 170.578 625.941 171.166 624.701 171.11L599.273 169.96C597.936 169.899 596.744 169.102 596.178 167.89L584.89 143.718C584.35 142.563 584.463 141.209 585.185 140.159L599.362 119.543C600.101 118.468 601.364 117.878 602.662 118.001L628.781 120.468Z" fill="#0F1924"/>
<path d="M628.753 120.766C629.963 120.881 631.012 121.652 631.482 122.773L641.451 146.541C641.885 147.575 641.763 148.759 641.128 149.683L627.579 169.386C626.934 170.323 625.851 170.862 624.714 170.811L599.286 169.661C598.061 169.605 596.968 168.874 596.449 167.763L585.161 143.591C584.667 142.532 584.77 141.291 585.432 140.329L599.609 119.713C600.286 118.728 601.444 118.187 602.634 118.299L628.753 120.766Z" stroke="#74DFFF" stroke-opacity="0.7" stroke-width="0.599189"/>
<g clip-path="url(#clip2_6433_16213)">
<g clip-path="url(#clip3_6433_16213)">
<mask id="mask0_6433_16213" style="mask-type:luminance" maskUnits="userSpaceOnUse" x="600" y="131" width="83" height="68">
<path d="M611.77 131.002L683.001 182.827L671.241 198.992L600.009 147.166L611.77 131.002Z" fill="white"/>
</mask>
<g mask="url(#mask0_6433_16213)">
<path fill-rule="evenodd" clip-rule="evenodd" d="M611.073 143.307C610.831 143.488 610.523 143.581 610.195 143.545L605.338 143.024C604.653 142.949 604.156 142.336 604.227 141.655C604.299 140.97 604.909 140.477 605.594 140.551L608.307 140.844L607.195 138.35C606.914 137.721 607.194 136.988 607.824 136.712C608.451 136.434 609.187 136.717 609.469 137.346L611.461 141.806C611.601 142.119 611.602 142.455 611.492 142.75C611.457 142.845 611.41 142.931 611.356 143.013C611.279 143.125 611.185 143.225 611.073 143.307ZM610.66 145.828C611.154 146.244 611.25 146.978 610.866 147.506L608.001 151.444C607.597 151.999 606.817 152.12 606.262 151.715C605.703 151.309 605.58 150.532 605.984 149.977L607.586 147.774L604.864 147.479C604.179 147.408 603.684 146.795 603.753 146.112C603.825 145.429 604.437 144.933 605.121 145.007L609.979 145.533C610.241 145.56 610.475 145.667 610.66 145.828ZM617.283 144.102C616.788 143.683 616.694 142.949 617.078 142.421L619.943 138.483C620.346 137.929 621.123 137.807 621.682 138.214C622.24 138.62 622.364 139.397 621.961 139.951L620.358 142.155L623.079 142.447C623.764 142.52 624.26 143.133 624.189 143.815C624.116 144.499 623.506 144.993 622.821 144.92L617.963 144.395C617.702 144.367 617.468 144.26 617.283 144.102ZM611.289 136.529C611.009 135.901 611.29 135.168 611.919 134.888C612.548 134.612 613.283 134.895 613.563 135.523L614.68 138.024L616.283 135.82C616.686 135.267 617.464 135.145 618.022 135.551C618.578 135.955 618.703 136.734 618.3 137.287L615.435 141.226C615.051 141.754 614.323 141.889 613.773 141.548C613.565 141.421 613.391 141.231 613.284 140.991L611.289 136.529ZM613.048 147.047C612.977 147.06 612.874 147.036 612.814 146.993L612.396 146.688C612.338 146.646 612.283 146.555 612.272 146.482L611.878 144.031C611.867 143.961 611.892 143.857 611.933 143.801L612.237 143.383C612.279 143.325 612.37 143.269 612.441 143.258L614.894 142.878C614.966 142.867 615.07 142.892 615.127 142.934L615.546 143.238C615.604 143.281 615.66 143.372 615.671 143.443L616.065 145.895C616.076 145.965 616.051 146.069 616.009 146.127L615.705 146.545C615.664 146.601 615.572 146.658 615.503 146.668L613.048 147.047ZM614.65 145.447C614.692 145.389 614.715 145.284 614.705 145.212L614.59 144.504C614.579 144.434 614.523 144.342 614.466 144.3L614.45 144.288C614.392 144.247 614.288 144.222 614.218 144.233L613.509 144.342C613.437 144.354 613.347 144.411 613.305 144.468L613.294 144.484C613.253 144.541 613.227 144.643 613.238 144.714L613.353 145.424C613.363 145.493 613.419 145.585 613.476 145.626L613.492 145.638C613.55 145.68 613.654 145.705 613.724 145.694L614.434 145.585C614.505 145.573 614.597 145.519 614.638 145.463L614.65 145.447ZM616.654 153.397C616.935 154.026 616.65 154.761 616.023 155.039C615.396 155.316 614.659 155.033 614.381 154.403L613.264 151.905L611.661 154.107C611.257 154.663 610.479 154.784 609.921 154.378C609.363 153.972 609.24 153.195 609.644 152.639L612.509 148.702C612.893 148.173 613.62 148.038 614.17 148.381C614.378 148.507 614.552 148.696 614.658 148.937L616.654 153.397ZM619.634 149.085L620.749 151.576C621.03 152.206 620.749 152.939 620.119 153.217C619.492 153.494 618.755 153.209 618.475 152.582L616.481 148.119C616.349 147.82 616.342 147.497 616.441 147.213C616.485 147.081 616.55 146.959 616.633 146.853C616.693 146.775 616.762 146.705 616.841 146.642C617.088 146.446 617.409 146.344 617.747 146.379L622.606 146.904C623.289 146.978 623.786 147.591 623.716 148.274C623.646 148.958 623.034 149.45 622.349 149.376L619.634 149.085Z" fill="#74DFFF"/>
</g>
</g>
</g>
<path d="M1682.91 608.067C1683.49 606.871 1684.67 606.087 1685.99 606.027L1711.74 604.86C1712.96 604.805 1714.13 605.375 1714.84 606.373L1728.66 625.882C1729.38 626.895 1729.53 628.206 1729.05 629.351L1719.2 652.825C1718.68 654.059 1717.53 654.903 1716.19 655.017L1689.61 657.282C1688.34 657.39 1687.11 656.818 1686.37 655.779L1671.91 635.365C1671.15 634.301 1671.03 632.912 1671.59 631.735L1682.91 608.067Z" fill="#192E3E"/>
<path d="M1683.18 608.196C1683.71 607.1 1684.79 606.381 1686.01 606.326L1711.76 605.159C1712.88 605.109 1713.94 605.631 1714.59 606.546L1728.42 626.055C1729.08 626.984 1729.21 628.186 1728.77 629.235L1718.93 652.709C1718.45 653.84 1717.39 654.614 1716.17 654.718L1689.59 656.984C1688.42 657.083 1687.29 656.558 1686.62 655.605L1672.15 635.191C1671.46 634.216 1671.35 632.943 1671.87 631.864L1683.18 608.196Z" stroke="#74DFFF" stroke-opacity="0.7" stroke-width="0.599189"/>
<path d="M1695.31 618.582C1693.31 618.099 1691.44 617.487 1691.06 617.358C1691.02 617.352 1690.99 617.374 1690.99 617.409C1690.99 617.814 1691 619.779 1690.84 621.833C1690.06 640.276 1706.54 640.372 1706.54 640.372L1706.67 640.366C1707.64 641.527 1709.11 643.135 1709.11 643.135L1709.51 642.844L1709.91 642.554C1709.91 642.554 1708.85 640.664 1708.03 639.377L1708.07 639.242C1708.08 639.235 1713.09 623.545 1695.31 618.582ZM1707.18 639.634C1707.18 639.634 1706.41 639.576 1706.12 639.463L1706.11 639.443L1697.43 626.278C1697.4 626.238 1697.46 626.194 1697.49 626.234L1707.33 638.556L1707.34 638.576C1707.37 638.878 1707.18 639.634 1707.18 639.634Z" fill="#74DFFF"/>
</g>
<defs>
<filter id="filter0_f_6433_16213" x="579.336" y="495.741" width="1963.29" height="1278.66" filterUnits="userSpaceOnUse" color-interpolation-filters="sRGB">
<feFlood flood-opacity="0" result="BackgroundImageFix"/>
<feBlend mode="normal" in="SourceGraphic" in2="BackgroundImageFix" result="shape"/>
<feGaussianBlur stdDeviation="113.5" result="effect1_foregroundBlur_6433_16213"/>
</filter>
<filter id="filter1_f_6433_16213" x="94.3398" y="360.741" width="2410.13" height="1522.81" filterUnits="userSpaceOnUse" color-interpolation-filters="sRGB">
<feFlood flood-opacity="0" result="BackgroundImageFix"/>
<feBlend mode="normal" in="SourceGraphic" in2="BackgroundImageFix" result="shape"/>
<feGaussianBlur stdDeviation="113.5" result="effect1_foregroundBlur_6433_16213"/>
</filter>
<filter id="filter2_f_6433_16213" x="353" y="599" width="744" height="744" filterUnits="userSpaceOnUse" color-interpolation-filters="sRGB">
<feFlood flood-opacity="0" result="BackgroundImageFix"/>
<feBlend mode="normal" in="SourceGraphic" in2="BackgroundImageFix" result="shape"/>
<feGaussianBlur stdDeviation="2.5" result="effect1_foregroundBlur_6433_16213"/>
</filter>
<filter id="filter3_f_6433_16213" x="1346" y="128" width="418" height="418" filterUnits="userSpaceOnUse" color-interpolation-filters="sRGB">
<feFlood flood-opacity="0" result="BackgroundImageFix"/>
<feBlend mode="normal" in="SourceGraphic" in2="BackgroundImageFix" result="shape"/>
<feGaussianBlur stdDeviation="10" result="effect1_foregroundBlur_6433_16213"/>
</filter>
<filter id="filter4_f_6433_16213" x="901.078" y="159.078" width="59.6289" height="59.6309" filterUnits="userSpaceOnUse" color-interpolation-filters="sRGB">
<feFlood flood-opacity="0" result="BackgroundImageFix"/>
<feBlend mode="normal" in="SourceGraphic" in2="BackgroundImageFix" result="shape"/>
<feGaussianBlur stdDeviation="2.5" result="effect1_foregroundBlur_6433_16213"/>
</filter>
<filter id="filter5_f_6433_16213" x="903.078" y="166.078" width="59.6289" height="59.6309" filterUnits="userSpaceOnUse" color-interpolation-filters="sRGB">
<feFlood flood-opacity="0" result="BackgroundImageFix"/>
<feBlend mode="normal" in="SourceGraphic" in2="BackgroundImageFix" result="shape"/>
<feGaussianBlur stdDeviation="2.5" result="effect1_foregroundBlur_6433_16213"/>
</filter>
<filter id="filter6_f_6433_16213" x="1824.75" y="220.754" width="78.7969" height="78.7964" filterUnits="userSpaceOnUse" color-interpolation-filters="sRGB">
<feFlood flood-opacity="0" result="BackgroundImageFix"/>
<feBlend mode="normal" in="SourceGraphic" in2="BackgroundImageFix" result="shape"/>
<feGaussianBlur stdDeviation="5" result="effect1_foregroundBlur_6433_16213"/>
</filter>
<filter id="filter7_f_6433_16213" x="1608.88" y="637.88" width="577.031" height="577.029" filterUnits="userSpaceOnUse" color-interpolation-filters="sRGB">
<feFlood flood-opacity="0" result="BackgroundImageFix"/>
<feBlend mode="normal" in="SourceGraphic" in2="BackgroundImageFix" result="shape"/>
<feGaussianBlur stdDeviation="5" result="effect1_foregroundBlur_6433_16213"/>
</filter>
<filter id="filter8_f_6433_16213" x="1791.09" y="462.094" width="83.5898" height="83.5898" filterUnits="userSpaceOnUse" color-interpolation-filters="sRGB">
<feFlood flood-opacity="0" result="BackgroundImageFix"/>
<feBlend mode="normal" in="SourceGraphic" in2="BackgroundImageFix" result="shape"/>
<feGaussianBlur stdDeviation="3" result="effect1_foregroundBlur_6433_16213"/>
</filter>
<filter id="filter9_f_6433_16213" x="1789.09" y="462.094" width="83.5898" height="83.5898" filterUnits="userSpaceOnUse" color-interpolation-filters="sRGB">
<feFlood flood-opacity="0" result="BackgroundImageFix"/>
<feBlend mode="normal" in="SourceGraphic" in2="BackgroundImageFix" result="shape"/>
<feGaussianBlur stdDeviation="3" result="effect1_foregroundBlur_6433_16213"/>
</filter>
<linearGradient id="paint0_linear_6433_16213" x1="450.5" y1="0" x2="450.5" y2="847" gradientUnits="userSpaceOnUse">
<stop stop-color="#4FDAB8"/>
<stop offset="1" stop-color="#4FDAB8" stop-opacity="0"/>
</linearGradient>
<linearGradient id="paint1_linear_6433_16213" x1="581.733" y1="0" x2="581.733" y2="1093.73" gradientUnits="userSpaceOnUse">
<stop stop-color="#52C7EA"/>
<stop offset="1" stop-color="#52C7EA" stop-opacity="0"/>
</linearGradient>
<radialGradient id="paint2_radial_6433_16213" cx="0" cy="0" r="1" gradientUnits="userSpaceOnUse" gradientTransform="translate(1007.49 116.182) rotate(89.1122) scale(724.531)">
<stop stop-color="#4FDAB8" stop-opacity="0.25"/>
<stop offset="1" stop-color="#52C7EA" stop-opacity="0"/>
</radialGradient>
<radialGradient id="paint3_radial_6433_16213" cx="0" cy="0" r="1" gradientUnits="userSpaceOnUse" gradientTransform="translate(243.295 539.711) rotate(-87.9037) scale(551.549)">
<stop stop-color="#52C7EA" stop-opacity="0.7"/>
<stop offset="1" stop-color="#52C7EA" stop-opacity="0"/>
</radialGradient>
<radialGradient id="paint4_radial_6433_16213" cx="0" cy="0" r="1" gradientUnits="userSpaceOnUse" gradientTransform="translate(1281 16) rotate(89.0891) scale(597.576)">
<stop offset="0.43" stop-color="#4FDAB8" stop-opacity="0.2"/>
<stop offset="0.766526" stop-color="#51CCDC" stop-opacity="0.1"/>
<stop offset="1" stop-color="#52C7EA" stop-opacity="0"/>
</radialGradient>
<radialGradient id="paint5_radial_6433_16213" cx="0" cy="0" r="1" gradientUnits="userSpaceOnUse" gradientTransform="translate(1261.1 1103.13) rotate(-84.991) scale(479.961)">
<stop stop-color="#4FDAB8" stop-opacity="0.6"/>
<stop offset="0.768138" stop-color="#51CBDE" stop-opacity="0.2"/>
<stop offset="1" stop-color="#52C7EA" stop-opacity="0"/>
</radialGradient>
<radialGradient id="paint6_radial_6433_16213" cx="0" cy="0" r="1" gradientUnits="userSpaceOnUse" gradientTransform="translate(1700 171) rotate(130.355) scale(654.811 654.811)">
<stop stop-color="#4FDAB8" stop-opacity="0.2"/>
<stop offset="0.753754" stop-color="#52C7EA" stop-opacity="0"/>
</radialGradient>
<linearGradient id="paint7_linear_6433_16213" x1="881.552" y1="1268.06" x2="1092" y2="778.517" gradientUnits="userSpaceOnUse">
<stop stop-color="#3A74C6" stop-opacity="0.2"/>
<stop offset="1" stop-color="#60D1F2" stop-opacity="0"/>
</linearGradient>
<linearGradient id="paint8_linear_6433_16213" x1="1916.5" y1="876.5" x2="1634" y2="449" gradientUnits="userSpaceOnUse">
<stop stop-color="#0E2A4B" stop-opacity="0.15"/>
<stop offset="1" stop-color="#60D1F2" stop-opacity="0"/>
</linearGradient>
<linearGradient id="paint9_linear_6433_16213" x1="1744" y1="406.5" x2="1389.5" y2="231.5" gradientUnits="userSpaceOnUse">
<stop stop-color="#3A74C6" stop-opacity="0.1"/>
<stop offset="1" stop-color="#60D1F2" stop-opacity="0"/>
</linearGradient>
<linearGradient id="paint10_linear_6433_16213" x1="943.476" y1="215.976" x2="957.704" y2="182.88" gradientUnits="userSpaceOnUse">
<stop stop-color="#3A74C6" stop-opacity="0.2"/>
<stop offset="1" stop-color="#60D1F2" stop-opacity="0"/>
</linearGradient>
<linearGradient id="paint11_linear_6433_16213" x1="1876.69" y1="283.944" x2="1893.55" y2="244.736" gradientUnits="userSpaceOnUse">
<stop stop-color="#1F2B3C" stop-opacity="0.6"/>
<stop offset="1" stop-color="#0B1416" stop-opacity="0.4"/>
</linearGradient>
<linearGradient id="paint12_linear_6433_16213" x1="1790.3" y1="1156.69" x2="1996.73" y2="815.23" gradientUnits="userSpaceOnUse">
<stop stop-color="#1E413D" stop-opacity="0.1"/>
<stop offset="0.959675" stop-color="#1C93B6" stop-opacity="0.01"/>
</linearGradient>
<linearGradient id="paint13_linear_6433_16213" x1="1846.16" y1="532.858" x2="1866.68" y2="485.118" gradientUnits="userSpaceOnUse">
<stop stop-color="#3AC69C" stop-opacity="0.1"/>
<stop offset="1" stop-color="#60D1F2" stop-opacity="0"/>
</linearGradient>
<linearGradient id="paint14_linear_6433_16213" x1="639.648" y1="325.461" x2="649.931" y2="363.839" gradientUnits="userSpaceOnUse">
<stop offset="0.40073" stop-color="#0F1923"/>
<stop offset="1" stop-color="#0F1923"/>
</linearGradient>
<linearGradient id="paint15_linear_6433_16213" x1="1725.07" y1="163.54" x2="1726.44" y2="217.201" gradientUnits="userSpaceOnUse">
<stop offset="0.40073" stop-color="#101A26"/>
<stop offset="1" stop-color="#1D3651"/>
</linearGradient>
<clipPath id="clip0_6433_16213">
<rect width="2560" height="840" fill="white"/>
</clipPath>
<clipPath id="clip1_6433_16213">
<rect width="17.9662" height="21.4923" fill="white" transform="translate(634 337.236) rotate(-16.9422)"/>
</clipPath>
<clipPath id="clip2_6433_16213">
<rect width="24.1507" height="24.1507" fill="white" transform="translate(611.684 127) rotate(34.5147)"/>
</clipPath>
<clipPath id="clip3_6433_16213">
<rect width="20" height="20" fill="white" transform="translate(611.766 131) rotate(36.038)"/>
</clipPath>
</defs>
</svg>
