<svg width="94" height="101" viewBox="0 0 94 101" fill="none" xmlns="http://www.w3.org/2000/svg">
<path d="M25.8963 15.9453C27.058 15.9453 27.9997 15.0041 27.9997 13.8431C27.9997 12.6821 27.058 11.741 25.8963 11.741C24.7347 11.741 23.793 12.6821 23.793 13.8431C23.793 15.0041 24.7347 15.9453 25.8963 15.9453Z" fill="#EC432D"/>
<path d="M25.9315 40.0852C27.0931 40.0852 28.0348 39.144 28.0348 37.983C28.0348 36.822 27.0931 35.8809 25.9315 35.8809C24.7698 35.8809 23.8281 36.822 23.8281 37.983C23.8281 39.144 24.7698 40.0852 25.9315 40.0852Z" fill="#EC432D"/>
<path d="M67.7518 88.4001C68.9134 88.4001 69.8551 87.459 69.8551 86.298C69.8551 85.137 68.9134 84.1958 67.7518 84.1958C66.5901 84.1958 65.6484 85.137 65.6484 86.298C65.6484 87.459 66.5901 88.4001 67.7518 88.4001Z" fill="#EC432D"/>
<path d="M5.00178 52.1726C6.16343 52.1726 7.10513 51.2314 7.10513 50.0704C7.10513 48.9094 6.16343 47.9683 5.00178 47.9683C3.84014 47.9683 2.89844 48.9094 2.89844 50.0704C2.89844 51.2314 3.84014 52.1726 5.00178 52.1726Z" fill="#EC432D"/>
<path d="M88.6815 52.1726C89.8431 52.1726 90.7848 51.2314 90.7848 50.0704C90.7848 48.9094 89.8431 47.9683 88.6815 47.9683C87.5198 47.9683 86.5781 48.9094 86.5781 50.0704C86.5781 51.2314 87.5198 52.1726 88.6815 52.1726Z" fill="#EC432D"/>
<path d="M67.7518 15.9455C68.9134 15.9455 69.8551 15.0044 69.8551 13.8434C69.8551 12.6824 68.9134 11.7412 67.7518 11.7412C66.5901 11.7412 65.6484 12.6824 65.6484 13.8434C65.6484 15.0044 66.5901 15.9455 67.7518 15.9455Z" fill="#EC432D"/>
<path d="M67.7518 64.26C68.9134 64.26 69.8551 63.3188 69.8551 62.1578C69.8551 60.9968 68.9134 60.0557 67.7518 60.0557C66.5901 60.0557 65.6484 60.9968 65.6484 62.1578C65.6484 63.3188 66.5901 64.26 67.7518 64.26Z" fill="#EC432D"/>
<path d="M25.9315 64.2253C27.0931 64.2253 28.0348 63.2841 28.0348 62.1232C28.0348 60.9622 27.0931 60.021 25.9315 60.021C24.7698 60.021 23.8281 60.9622 23.8281 62.1232C23.8281 63.2841 24.7698 64.2253 25.9315 64.2253Z" fill="#EC432D"/>
<path d="M67.7518 40.1203C68.9134 40.1203 69.8551 39.1792 69.8551 38.0182C69.8551 36.8572 68.9134 35.916 67.7518 35.916C66.5901 35.916 65.6484 36.8572 65.6484 38.0182C65.6484 39.1792 66.5901 40.1203 67.7518 40.1203Z" fill="#EC432D"/>
<path d="M46.826 76.3127C47.9876 76.3127 48.9293 75.3715 48.9293 74.2106C48.9293 73.0496 47.9876 72.1084 46.826 72.1084C45.6644 72.1084 44.7227 73.0496 44.7227 74.2106C44.7227 75.3715 45.6644 76.3127 46.826 76.3127Z" fill="#EC432D"/>
<path d="M46.8612 28.0329C48.0228 28.0329 48.9645 27.0918 48.9645 25.9308C48.9645 24.7698 48.0228 23.8286 46.8612 23.8286C45.6995 23.8286 44.7578 24.7698 44.7578 25.9308C44.7578 27.0918 45.6995 28.0329 46.8612 28.0329Z" fill="#EC432D"/>
<path d="M25.8963 88.4001C27.058 88.4001 27.9997 87.459 27.9997 86.298C27.9997 85.137 27.058 84.1958 25.8963 84.1958C24.7347 84.1958 23.793 85.137 23.793 86.298C23.793 87.459 24.7347 88.4001 25.8963 88.4001Z" fill="#EC432D"/>
<path d="M29.4337 11.7411C37.216 2.14119 51.2734 0.634637 60.9137 8.41264C62.1407 9.39365 63.2625 10.5148 64.244 11.7411C64.5946 11.1454 65.0854 10.6199 65.7164 10.2695C66.1371 10.0243 66.5577 9.88415 67.0485 9.81408C58.1794 -1.32738 41.9486 -3.14926 30.8359 5.71486C29.3285 6.94112 27.9263 8.30753 26.7344 9.81408C27.8211 10.0593 28.8377 10.7601 29.4337 11.7411Z" fill="#52C7EA"/>
<path d="M50.3633 23.8284C53.7987 19.554 58.7065 16.716 64.1402 15.8401C63.5793 14.8241 63.4741 13.5978 63.8948 12.5117C57.4796 13.4577 51.6603 16.8212 47.6289 21.9364C48.7857 22.1116 49.7673 22.8123 50.3633 23.8284Z" fill="#52C7EA"/>
<path d="M37.1461 18.5379C39.5299 19.9043 41.5981 21.7262 43.3159 23.8634C43.6664 23.2678 44.1572 22.7422 44.7882 22.3919C45.1738 22.1817 45.5945 22.0065 46.0502 21.9364C42.0539 16.8212 36.1996 13.4227 29.7844 12.5117C29.9596 12.9322 30.0297 13.4227 30.0297 13.8781C30.0297 14.5788 29.8545 15.2445 29.5039 15.8401C32.2032 16.2606 34.7973 17.1715 37.1461 18.5379Z" fill="#52C7EA"/>
<path d="M67.7891 33.9188C68.981 33.9188 70.1027 34.4443 70.874 35.3553C73.2928 29.294 73.2928 22.5671 70.909 16.5059C70.5935 16.8562 70.243 17.1715 69.8223 17.4168C69.2263 17.7672 68.5603 17.9423 67.8592 17.9423C69.8573 23.0926 69.8223 28.7685 67.7891 33.9188Z" fill="#52C7EA"/>
<path d="M64.2457 35.8811C64.8416 34.8651 65.8582 34.1994 67.0151 33.9892C62.9837 28.9089 57.1644 25.5455 50.7492 24.5645C51.1348 25.6856 51.0296 26.9119 50.4688 27.9279C55.8673 28.8038 60.7752 31.6417 64.2457 35.8811Z" fill="#52C7EA"/>
<path d="M73.5717 16.2959C85.5608 19.4841 92.642 31.7818 89.452 43.7291C89.2416 44.4999 88.9962 45.2356 88.7158 45.9714C89.4169 45.9714 90.118 46.1466 90.714 46.4969C91.1346 46.7422 91.4852 47.0575 91.8007 47.4079C92.1513 46.4969 92.4668 45.586 92.7121 44.6751C96.393 30.9059 88.225 16.7513 74.4481 13.0375C73.5016 12.7923 72.5901 12.582 71.6086 12.4419C71.9942 13.563 71.889 14.7893 71.3281 15.8054C72.0994 15.9455 72.8355 16.0856 73.5717 16.2959Z" fill="#52C7EA"/>
<path d="M80.688 39.7699C77.8836 38.1583 74.7986 37.0722 71.6086 36.6167C71.9942 37.7379 71.9241 38.9641 71.3281 39.9802C76.7618 40.821 81.6696 43.6239 85.1401 47.8983C85.736 46.9173 86.7527 46.2166 87.9095 46.0064C85.9113 43.5188 83.4574 41.3816 80.688 39.7699Z" fill="#52C7EA"/>
<path d="M71.8539 62.1579C71.8539 62.6133 71.7837 63.0688 71.6085 63.5243C78.0587 62.6133 83.878 59.2148 87.9094 54.1346C86.7526 53.9594 85.7359 53.2587 85.14 52.2427C81.6695 56.5171 76.7266 59.355 71.293 60.1959C71.6786 60.7564 71.8539 61.4572 71.8539 62.1579Z" fill="#52C7EA"/>
<path d="M67.8203 58.0585C69.0122 58.0936 70.0989 58.6191 70.8702 59.5301C73.254 53.4688 73.254 46.7419 70.8702 40.6807C70.0989 41.5566 69.0122 42.0821 67.8554 42.1171C69.8185 47.2324 69.7834 52.9082 67.8203 58.0585Z" fill="#52C7EA"/>
<path d="M67.8555 82.1987C69.0474 82.2337 70.1341 82.7593 70.9053 83.6702C73.3242 77.609 73.2891 70.882 70.9053 64.8208C70.1341 65.7317 69.0474 66.2573 67.8555 66.2923C69.8186 71.3725 69.8186 77.0484 67.8555 82.1987Z" fill="#52C7EA"/>
<path d="M92.7122 55.4662C92.4669 54.5202 92.1513 53.6093 91.8008 52.7334C91.0296 53.6443 89.9078 54.1699 88.7509 54.1699C89.0314 54.8706 89.2768 55.6064 89.4871 56.3421C92.7122 68.3244 85.5959 80.6571 73.6069 83.8804C72.8707 84.0556 72.1345 84.2308 71.3633 84.3359C71.9592 85.352 72.0644 86.6133 71.6437 87.6994C72.5902 87.5592 73.5367 87.349 74.4832 87.1038C88.2251 83.3899 96.4282 69.2354 92.7122 55.4662Z" fill="#52C7EA"/>
<path d="M50.679 75.5768C57.1292 74.6308 62.9485 71.2673 67.015 66.1871C65.8581 65.9769 64.8415 65.2762 64.2456 64.2952C60.775 68.5345 55.8672 71.3724 50.4336 72.2483C50.9945 73.2644 51.0646 74.4907 50.679 75.5768Z" fill="#52C7EA"/>
<path d="M56.5331 81.6028C54.1493 80.2364 52.081 78.4145 50.3633 76.2773C50.0127 76.873 49.5219 77.3985 48.8909 77.7489C48.5053 77.9591 48.0846 78.1343 47.6289 78.2043C51.6253 83.3196 57.4445 86.7181 63.8948 87.629C63.4741 86.5429 63.5793 85.3166 64.1752 84.3006C61.4759 83.8802 58.8818 82.9692 56.5331 81.6028Z" fill="#52C7EA"/>
<path d="M37.1461 81.6029C34.7973 82.9693 32.2032 83.8803 29.5039 84.3358C30.0648 85.3518 30.1349 86.5781 29.7493 87.6642C36.1996 86.7182 42.0188 83.3197 46.0152 78.2044C44.8583 77.9942 43.8768 77.2935 43.2808 76.3125C41.5631 78.4497 39.4948 80.2365 37.1461 81.6029Z" fill="#52C7EA"/>
<path d="M64.2477 88.3999C56.4654 97.9998 42.3729 99.5063 32.7677 91.7283C31.5407 90.7473 30.4189 89.6262 29.4374 88.3999C29.0868 88.9955 28.596 89.5211 27.965 89.8714C27.5444 90.1167 27.1237 90.2568 26.668 90.3269C35.5371 101.468 51.7328 103.29 62.8806 94.4261C64.388 93.1998 65.7902 91.8334 66.9821 90.3269C65.8603 90.1167 64.8437 89.4159 64.2477 88.3999Z" fill="#52C7EA"/>
<path d="M25.8606 66.222C25.1595 66.222 24.4584 66.0468 23.8624 65.6965C23.4768 65.4512 23.0912 65.1709 22.8107 64.8206C20.3919 70.8818 20.3919 77.6087 22.7757 83.67C23.0561 83.3196 23.4417 83.0043 23.8273 82.759C24.4233 82.4087 25.1244 82.2335 25.7905 82.2335C23.8273 77.0481 23.8273 71.3373 25.8606 66.222Z" fill="#52C7EA"/>
<path d="M29.4374 64.2603C28.8414 65.2763 27.8248 65.942 26.668 66.1522C30.6994 71.2324 36.5186 74.6309 42.9689 75.6119C42.5833 74.4908 42.6534 73.2645 43.2493 72.2485C37.8157 71.3375 32.9079 68.4996 29.4374 64.2603Z" fill="#52C7EA"/>
<path d="M1.84868 47.408C2.61991 46.4971 3.74169 46.0065 4.89853 45.9715C4.61809 45.2708 4.3727 44.535 4.16236 43.7993C0.937231 31.8169 8.05355 19.4843 20.0426 16.296C20.7788 16.1208 21.515 15.9456 22.2862 15.8405C21.6902 14.8245 21.5851 13.5632 22.0057 12.4771C21.0592 12.6172 20.1127 12.8274 19.2013 13.0727C5.42437 16.7514 -2.74362 30.941 0.937231 44.7102C1.21768 45.6211 1.49812 46.4971 1.84868 47.408Z" fill="#52C7EA"/>
<path d="M12.9988 60.371C15.8033 61.9827 18.8882 63.0688 22.0783 63.5243C21.6927 62.4031 21.7628 61.1769 22.3237 60.1608C16.89 59.32 11.9822 56.482 8.51169 52.2427C7.91575 53.2237 6.89913 53.9244 5.77734 54.1346C7.74047 56.6222 10.1944 58.7594 12.9988 60.371Z" fill="#52C7EA"/>
<path d="M20.0762 83.8454C8.08718 80.6221 0.970856 68.3244 4.16093 56.3421C4.37127 55.6064 4.61666 54.8706 4.8971 54.1699C4.19599 54.1699 3.49487 53.9947 2.89892 53.6443C2.51331 53.3991 2.1277 53.0838 1.84725 52.7334C1.49669 53.6093 1.18119 54.5553 0.9358 55.4662C-2.74505 69.2354 5.38788 83.3549 19.1648 87.0687C20.1113 87.314 21.0578 87.5242 22.0043 87.6643C21.6187 86.5432 21.7239 85.352 22.2848 84.3359C21.5836 84.1958 20.8124 84.0556 20.0762 83.8454Z" fill="#52C7EA"/>
<path d="M25.8606 33.8839C23.8624 28.7686 23.8624 23.0928 25.8255 17.9775C24.6687 17.9425 23.5469 17.4169 22.7757 16.541C20.3919 22.6023 20.3919 29.3292 22.8107 35.3554C23.5469 34.4444 24.6687 33.8839 25.8606 33.8839Z" fill="#52C7EA"/>
<path d="M21.8329 37.9832C21.8329 37.5278 21.9381 37.0723 22.0783 36.6519C15.628 37.5978 9.80876 40.9613 5.77734 46.0415C6.23307 46.1116 6.68879 46.2868 7.07441 46.497C7.67036 46.8473 8.16114 47.3379 8.51169 47.9335C11.9822 43.6591 16.9251 40.8211 22.3938 39.9803C22.0082 39.3847 21.8329 38.6839 21.8329 37.9832Z" fill="#52C7EA"/>
<path d="M43.0041 24.5293C36.5889 25.5103 30.7696 28.8738 26.7031 33.954C27.86 34.1642 28.8415 34.8649 29.4375 35.881C32.908 31.6416 37.8158 28.8037 43.2494 27.9278C42.6886 26.8767 42.5834 25.6505 43.0041 24.5293Z" fill="#52C7EA"/>
<path d="M25.8242 42.0824C24.6673 42.0473 23.5455 41.5218 22.8094 40.6108C20.4256 46.6721 20.3905 53.399 22.7743 59.4602C23.5455 58.5843 24.6323 58.0238 25.7891 58.0238C23.861 52.8735 23.861 47.1976 25.8242 42.0824Z" fill="#52C7EA"/>
</svg>
