<svg width="223" height="65" viewBox="0 0 223 65" fill="none" xmlns="http://www.w3.org/2000/svg">
<path d="M119.359 34.8904C120.967 33.3199 123.132 32.4449 125.364 32.4673C127.284 32.4225 129.16 33.0507 130.678 34.2622L130.968 34.509L133.423 31.5699L133.133 31.3456C132.062 30.4706 130.856 29.7975 129.561 29.3488C128.222 28.8777 126.793 28.6309 125.364 28.6309C123.713 28.6309 122.061 28.945 120.543 29.5956C119.092 30.2238 117.752 31.0988 116.614 32.2205C114.314 34.509 113.02 37.6499 113.02 40.9255C113.02 42.5633 113.332 44.1787 113.979 45.6818C114.605 47.1401 115.497 48.4414 116.614 49.5407C117.752 50.6401 119.069 51.5375 120.52 52.1433C122.038 52.7939 123.69 53.1304 125.342 53.108C126.771 53.108 128.177 52.8836 129.517 52.39C130.811 51.9413 131.995 51.2458 133.044 50.3933L133.334 50.1465L130.923 47.2299L130.633 47.4542C129.16 48.6433 127.374 49.2491 125.32 49.2491C124.181 49.2491 123.043 49.0472 121.994 48.5984C119.984 47.7683 118.377 46.153 117.529 44.1338C117.082 43.1018 116.882 42.0024 116.882 40.8806C116.882 39.7364 117.082 38.5922 117.529 37.5377C117.998 36.5506 118.6 35.6532 119.359 34.8904Z" fill="white"/>
<path d="M151.102 35.0924C152.397 33.8135 153.781 32.5123 155.187 31.211L155.477 30.9418L153.066 28.4515L152.798 28.7207C150.678 30.7399 148.646 32.6469 146.682 34.4866C144.918 36.1244 143.11 37.8295 141.212 39.6019V10.8396H137.328V52.6818H141.212V44.3807L144.449 41.3743L152.754 52.6818H157.33L147.24 38.7493C148.579 37.5154 149.874 36.2814 151.102 35.0924Z" fill="white"/>
<path d="M177.489 32.8936C177.311 32.6468 177.132 32.4 176.909 32.1532C176.328 31.4577 175.636 30.8744 174.877 30.3808C174.029 29.8199 173.114 29.3937 172.154 29.102C171.082 28.7879 169.988 28.6309 168.872 28.6309C167.243 28.6309 165.635 28.945 164.14 29.5956C162.689 30.2238 161.371 31.1436 160.255 32.2654C159.139 33.4096 158.246 34.7557 157.621 36.2141C156.974 37.7172 156.639 39.355 156.661 40.9928C156.661 42.6082 156.974 44.1787 157.599 45.6594C158.202 47.0953 159.072 48.3965 160.144 49.4959C161.238 50.6176 162.555 51.4926 164.006 52.1208C165.546 52.7715 167.198 53.108 168.872 53.0856C169.988 53.0856 171.127 52.9509 172.198 52.6368C173.158 52.3676 174.074 51.9638 174.922 51.4253C175.681 50.9542 176.351 50.3933 176.953 49.7427C177.11 49.5632 177.266 49.3613 177.422 49.1818C177.422 49.4286 177.422 49.6754 177.422 49.9221V52.6368H181.306V29.1469H177.645L177.489 32.8936ZM174.989 34.9128C175.748 35.6756 176.351 36.5955 176.775 37.5826C177.199 38.6147 177.422 39.714 177.422 40.8358C177.444 41.98 177.221 43.1018 176.775 44.1562C175.926 46.1754 174.319 47.7908 172.31 48.6209C170.167 49.4734 167.778 49.4734 165.658 48.6209C161.394 46.7812 159.407 41.8229 161.193 37.5377C161.617 36.5506 162.22 35.6532 162.979 34.9128C165.479 32.5346 169.14 31.8391 172.31 33.1404C173.315 33.5442 174.208 34.15 174.989 34.9128Z" fill="white"/>
<path d="M220.709 30.6052C219.347 29.3039 217.45 28.6309 215.083 28.6309C212.784 28.6757 210.842 29.2591 209.279 30.4033C208.007 31.3456 206.935 32.5571 206.154 33.9481C205.797 32.5795 205.038 31.3231 203.966 30.4033C202.627 29.2366 200.818 28.6309 198.608 28.6309C196.264 28.6757 194.278 29.3039 192.693 30.493C191.487 31.4129 190.483 32.5571 189.724 33.8583C189.701 33.4545 189.679 33.0058 189.657 32.5571C189.612 31.9737 189.59 31.4129 189.567 30.8744C189.545 30.336 189.523 29.8648 189.478 29.5058L189.433 29.1693H186.062V52.6817H189.947V40.23C189.947 39.1755 190.148 38.1211 190.55 37.1339C190.929 36.2141 191.487 35.3839 192.224 34.7109C192.96 34.0154 193.809 33.4769 194.746 33.118C195.751 32.7366 196.822 32.5346 197.894 32.5571C199.412 32.6244 200.551 33.0955 201.31 33.9032C202.069 34.7333 202.515 35.8102 202.56 36.932V52.6817H206.444V40.073C206.466 39.0409 206.69 38.0089 207.091 37.0666C207.471 36.1692 208.029 35.3615 208.721 34.6884C209.435 34.0154 210.284 33.4769 211.199 33.118C212.181 32.7366 213.23 32.5346 214.302 32.5571C215.842 32.6244 217.025 33.0955 217.762 33.9032C218.521 34.7333 218.968 35.8102 219.012 36.9544V52.7041H222.896V35.8551C222.807 33.6788 222.071 31.9289 220.709 30.6052Z" fill="white"/>
<path d="M90.2046 14.7434C99.6698 14.7434 107.349 22.4612 107.349 31.9738C107.349 41.4865 99.6698 49.2043 90.2046 49.2043C80.7394 49.2043 73.0601 41.4865 73.0601 31.9738C73.0824 22.4612 80.7394 14.7658 90.2046 14.7434ZM90.2046 10.8396C78.5963 10.8396 69.1758 20.3074 69.1758 31.9738C69.1758 43.6403 78.5963 53.1081 90.2046 53.1081C101.813 53.1081 111.233 43.6403 111.233 31.9738C111.233 20.3074 101.813 10.8396 90.2046 10.8396Z" fill="white"/>
<path d="M16.7847 10.2179C17.5245 10.2179 18.1242 9.61523 18.1242 8.87178C18.1242 8.12832 17.5245 7.52563 16.7847 7.52563C16.045 7.52563 15.4453 8.12832 15.4453 8.87178C15.4453 9.61523 16.045 10.2179 16.7847 10.2179Z" fill="white"/>
<path d="M16.8082 25.6762C17.5479 25.6762 18.1476 25.0735 18.1476 24.33C18.1476 23.5866 17.5479 22.9839 16.8082 22.9839C16.0684 22.9839 15.4688 23.5866 15.4688 24.33C15.4688 25.0735 16.0684 25.6762 16.8082 25.6762Z" fill="white"/>
<path d="M43.441 56.6149C44.1807 56.6149 44.7804 56.0122 44.7804 55.2687C44.7804 54.5253 44.1807 53.9226 43.441 53.9226C42.7012 53.9226 42.1016 54.5253 42.1016 55.2687C42.1016 56.0122 42.7012 56.6149 43.441 56.6149Z" fill="white"/>
<path d="M3.48005 33.4164C4.2198 33.4164 4.81948 32.8137 4.81948 32.0703C4.81948 31.3268 4.2198 30.7241 3.48005 30.7241C2.74031 30.7241 2.14062 31.3268 2.14062 32.0703C2.14062 32.8137 2.74031 33.4164 3.48005 33.4164Z" fill="white"/>
<path d="M56.7691 33.4164C57.5089 33.4164 58.1085 32.8137 58.1085 32.0703C58.1085 31.3268 57.5089 30.7241 56.7691 30.7241C56.0294 30.7241 55.4297 31.3268 55.4297 32.0703C55.4297 32.8137 56.0294 33.4164 56.7691 33.4164Z" fill="white"/>
<path d="M43.441 10.2179C44.1807 10.2179 44.7804 9.61523 44.7804 8.87178C44.7804 8.12832 44.1807 7.52563 43.441 7.52563C42.7012 7.52563 42.1016 8.12832 42.1016 8.87178C42.1016 9.61523 42.7012 10.2179 43.441 10.2179Z" fill="white"/>
<path d="M43.441 41.1569C44.1807 41.1569 44.7804 40.5542 44.7804 39.8107C44.7804 39.0673 44.1807 38.4646 43.441 38.4646C42.7012 38.4646 42.1016 39.0673 42.1016 39.8107C42.1016 40.5542 42.7012 41.1569 43.441 41.1569Z" fill="white"/>
<path d="M16.8082 41.1344C17.5479 41.1344 18.1476 40.5317 18.1476 39.7883C18.1476 39.0448 17.5479 38.4421 16.8082 38.4421C16.0684 38.4421 15.4688 39.0448 15.4688 39.7883C15.4688 40.5317 16.0684 41.1344 16.8082 41.1344Z" fill="white"/>
<path d="M43.441 25.6986C44.1807 25.6986 44.7804 25.0959 44.7804 24.3525C44.7804 23.609 44.1807 23.0063 43.441 23.0063C42.7012 23.0063 42.1016 23.609 42.1016 24.3525C42.1016 25.0959 42.7012 25.6986 43.441 25.6986Z" fill="white"/>
<path d="M30.1129 48.8747C30.8526 48.8747 31.4523 48.272 31.4523 47.5285C31.4523 46.7851 30.8526 46.1824 30.1129 46.1824C29.3731 46.1824 28.7734 46.7851 28.7734 47.5285C28.7734 48.272 29.3731 48.8747 30.1129 48.8747Z" fill="white"/>
<path d="M30.1363 17.9584C30.876 17.9584 31.4757 17.3557 31.4757 16.6123C31.4757 15.8688 30.876 15.2661 30.1363 15.2661C29.3966 15.2661 28.7969 15.8688 28.7969 16.6123C28.7969 17.3557 29.3966 17.9584 30.1363 17.9584Z" fill="white"/>
<path d="M16.7847 56.6149C17.5245 56.6149 18.1242 56.0122 18.1242 55.2687C18.1242 54.5253 17.5245 53.9226 16.7847 53.9226C16.045 53.9226 15.4453 54.5253 15.4453 55.2687C15.4453 56.0122 16.045 56.6149 16.7847 56.6149Z" fill="white"/>
<path d="M19.0392 7.52566C23.9951 1.37828 32.947 0.413548 39.086 5.39427C39.8674 6.02247 40.5817 6.74041 41.2068 7.52566C41.43 7.14425 41.7426 6.80772 42.1444 6.58336C42.4123 6.42631 42.6802 6.33657 42.9927 6.2917C37.3448 -0.842851 27.0088 -2.00951 19.9322 3.66672C18.9723 4.45197 18.0793 5.32696 17.3203 6.2917C18.0124 6.44875 18.6597 6.89746 19.0392 7.52566Z" fill="white"/>
<path d="M32.3702 15.266C34.5579 12.5289 37.6832 10.7116 41.1434 10.1507C40.7862 9.50004 40.7193 8.71479 40.9872 8.01929C36.9019 8.62505 33.1961 10.7789 30.6289 14.0545C31.3656 14.1667 31.9907 14.6154 32.3702 15.266Z" fill="white"/>
<path d="M23.9525 11.8782C25.4705 12.7532 26.7877 13.9199 27.8815 15.2885C28.1048 14.907 28.4173 14.5705 28.8191 14.3462C29.0647 14.2115 29.3326 14.0994 29.6228 14.0545C27.0779 10.7789 23.3498 8.60261 19.2645 8.01929C19.3761 8.28852 19.4208 8.60262 19.4208 8.89428C19.4208 9.34299 19.3092 9.76927 19.0859 10.1507C20.8049 10.4199 22.4568 11.0032 23.9525 11.8782Z" fill="white"/>
<path d="M43.4648 21.7274C44.2239 21.7274 44.9382 22.064 45.4293 22.6473C46.9697 18.7659 46.9697 14.4583 45.4517 10.5769C45.2507 10.8013 45.0275 11.0032 44.7596 11.1602C44.3801 11.3846 43.956 11.4968 43.5095 11.4968C44.7819 14.7948 44.7596 18.4294 43.4648 21.7274Z" fill="white"/>
<path d="M41.2069 22.9838C41.5864 22.3332 42.2337 21.9069 42.9704 21.7723C40.4032 18.5191 36.6974 16.3653 32.6122 15.7371C32.8577 16.455 32.7908 17.2403 32.4336 17.8909C35.8715 18.4518 38.9968 20.2691 41.2069 22.9838Z" fill="white"/>
<path d="M47.1475 10.4423C54.7822 12.4839 59.2916 20.3589 57.2602 28.0094C57.1262 28.503 56.9699 28.9742 56.7914 29.4453C57.2378 29.4453 57.6843 29.5575 58.0638 29.7818C58.3317 29.9389 58.5549 30.1408 58.7559 30.3652C58.9791 29.7819 59.18 29.1985 59.3363 28.6152C61.6803 19.798 56.4788 10.734 47.7056 8.35577C47.1028 8.19872 46.5224 8.06411 45.8973 7.97437C46.1429 8.69231 46.0759 9.47756 45.7188 10.1282C46.2099 10.2179 46.6787 10.3077 47.1475 10.4423Z" fill="white"/>
<path d="M51.6792 25.4743C49.8933 24.4422 47.9288 23.7467 45.8973 23.4551C46.1429 24.173 46.0983 24.9583 45.7188 25.6089C49.1789 26.1474 52.3043 27.9422 54.5143 30.6794C54.8938 30.0512 55.5412 29.6025 56.2779 29.4678C55.0055 27.8749 53.4428 26.5063 51.6792 25.4743Z" fill="white"/>
<path d="M46.0525 39.8107C46.0525 40.1024 46.0078 40.3941 45.8962 40.6857C50.0038 40.1024 53.7096 37.9261 56.2768 34.673C55.5401 34.5608 54.8927 34.1121 54.5132 33.4614C52.3032 36.1986 49.1555 38.0159 45.6953 38.5543C45.9409 38.9133 46.0525 39.362 46.0525 39.8107Z" fill="white"/>
<path d="M43.4844 37.1857C44.2434 37.2082 44.9354 37.5447 45.4265 38.128C46.9446 34.2466 46.9446 29.939 45.4265 26.0576C44.9354 26.6185 44.2434 26.955 43.5067 26.9775C44.7568 30.2531 44.7345 33.8877 43.4844 37.1857Z" fill="white"/>
<path d="M43.5078 52.6437C44.2668 52.6662 44.9589 53.0027 45.45 53.586C46.9903 49.7047 46.968 45.397 45.45 41.5156C44.9589 42.099 44.2668 42.4355 43.5078 42.4579C44.7579 45.7111 44.7579 49.3457 43.5078 52.6437Z" fill="white"/>
<path d="M59.3335 35.5254C59.1772 34.9196 58.9763 34.3363 58.7531 33.7754C58.2619 34.3587 57.5476 34.6953 56.8109 34.6953C56.9895 35.144 57.1457 35.6151 57.2797 36.0863C59.3335 43.7593 54.8017 51.6566 47.167 53.7207C46.6982 53.8329 46.2294 53.9451 45.7383 54.0124C46.1178 54.663 46.1848 55.4707 45.9169 56.1662C46.5196 56.0765 47.1224 55.9418 47.7251 55.7848C56.476 53.4066 61.6998 44.3426 59.3335 35.5254Z" fill="white"/>
<path d="M32.5703 48.4035C36.6779 47.7977 40.3837 45.6439 42.9732 42.3907C42.2365 42.2561 41.5891 41.8074 41.2096 41.1792C38.9996 43.8939 35.8743 45.7112 32.4141 46.2721C32.7712 46.9227 32.8159 47.708 32.5703 48.4035Z" fill="white"/>
<path d="M36.2992 52.2625C34.7811 51.3875 33.464 50.2209 32.3702 48.8523C32.1469 49.2337 31.8344 49.5702 31.4326 49.7946C31.187 49.9292 30.9191 50.0414 30.6289 50.0863C33.1738 53.3619 36.8796 55.5381 40.9872 56.1215C40.7193 55.426 40.7862 54.6407 41.1657 53.9901C39.4468 53.7208 37.7948 53.1375 36.2992 52.2625Z" fill="white"/>
<path d="M23.9525 52.2625C22.4568 53.1375 20.8049 53.7209 19.0859 54.0125C19.4431 54.6632 19.4878 55.4484 19.2422 56.1439C23.3498 55.5382 27.0555 53.3619 29.6005 50.0863C28.8638 49.9517 28.2387 49.503 27.8592 48.8748C26.7653 50.2433 25.4482 51.3876 23.9525 52.2625Z" fill="white"/>
<path d="M41.2085 56.615C36.2526 62.7624 27.2784 63.7271 21.1617 58.7464C20.3804 58.1182 19.666 57.4002 19.0409 56.615C18.8177 56.9964 18.5052 57.3329 18.1033 57.5573C17.8354 57.7143 17.5676 57.8041 17.2773 57.849C22.9253 64.9835 33.2389 66.1502 40.3378 60.4739C41.2978 59.6887 42.1907 58.8137 42.9497 57.849C42.2354 57.7143 41.588 57.2656 41.2085 56.615Z" fill="white"/>
<path d="M16.7643 42.4131C16.3178 42.4131 15.8713 42.3009 15.4918 42.0765C15.2463 41.9195 15.0007 41.74 14.8221 41.5156C13.2818 45.397 13.2818 49.7047 14.7998 53.586C14.9784 53.3617 15.224 53.1597 15.4695 53.0027C15.849 52.7783 16.2955 52.6662 16.7196 52.6662C15.4695 49.3457 15.4695 45.6887 16.7643 42.4131Z" fill="white"/>
<path d="M19.0409 41.1567C18.6614 41.8074 18.014 42.2337 17.2773 42.3683C19.8446 45.6214 23.5503 47.7977 27.6579 48.4259C27.4124 47.708 27.457 46.9227 27.8365 46.2721C24.3763 45.6887 21.251 43.8715 19.0409 41.1567Z" fill="white"/>
<path d="M1.47056 30.3652C1.96168 29.7819 2.67604 29.4678 3.41273 29.4453C3.23414 28.9966 3.07787 28.5255 2.94393 28.0543C0.890136 20.3813 5.42187 12.484 13.0566 10.4423C13.5254 10.3301 13.9942 10.218 14.4853 10.1507C14.1058 9.50002 14.0389 8.69233 14.3067 7.99683C13.704 8.08657 13.1013 8.22118 12.5208 8.37823C3.74758 10.734 -1.45386 19.8204 0.890136 28.6377C1.06873 29.221 1.24732 29.7819 1.47056 30.3652Z" fill="white"/>
<path d="M8.57136 38.6665C10.3573 39.6986 12.3218 40.3941 14.3532 40.6857C14.1077 39.9678 14.1523 39.1825 14.5095 38.5319C11.0493 37.9934 7.92397 36.1761 5.71391 33.4614C5.33441 34.0896 4.68702 34.5383 3.97266 34.673C5.22279 36.2659 6.78546 37.6345 8.57136 38.6665Z" fill="white"/>
<path d="M13.0805 53.6983C5.44577 51.6342 0.914036 43.7593 2.9455 36.0863C3.07945 35.6151 3.23571 35.144 3.4143 34.6953C2.96783 34.6953 2.52135 34.5831 2.14185 34.3587C1.89628 34.2017 1.65072 33.9997 1.47213 33.7754C1.24889 34.3363 1.04798 34.942 0.891713 35.5254C-1.45229 44.3426 3.72684 53.3842 12.5001 55.7624C13.1028 55.9194 13.7056 56.054 14.3083 56.1438C14.0628 55.4258 14.1297 54.663 14.4869 54.0124C14.0404 53.9226 13.5493 53.8329 13.0805 53.6983Z" fill="white"/>
<path d="M16.7643 21.705C15.4918 18.4294 15.4918 14.7948 16.742 11.5192C16.0053 11.4968 15.2909 11.1603 14.7998 10.5994C13.2818 14.4807 13.2818 18.7884 14.8221 22.6473C15.2909 22.064 16.0053 21.705 16.7643 21.705Z" fill="white"/>
<path d="M14.197 24.3301C14.197 24.0384 14.2639 23.7468 14.3532 23.4775C10.2456 24.0833 6.53989 26.2371 3.97266 29.4903C4.26287 29.5352 4.55308 29.6474 4.79864 29.782C5.17814 30.0063 5.49068 30.3204 5.71391 30.7018C7.92397 27.9647 11.0716 26.1474 14.5541 25.6089C14.3086 25.2275 14.197 24.7788 14.197 24.3301Z" fill="white"/>
<path d="M27.6814 15.7148C23.5961 16.343 19.8903 18.4969 17.3008 21.75C18.0375 21.8847 18.6625 22.3334 19.042 22.984C21.2521 20.2693 24.3774 18.452 27.8376 17.8911C27.4804 17.218 27.4135 16.4328 27.6814 15.7148Z" fill="white"/>
<path d="M16.7415 26.955C16.0048 26.9326 15.2904 26.596 14.8216 26.0127C13.3036 29.8941 13.2813 34.2017 14.7993 38.0831C15.2904 37.5222 15.9825 37.1632 16.7191 37.1632C15.4913 33.8652 15.4913 30.2306 16.7415 26.955Z" fill="white"/>
</svg>
