<svg version="1.1" xmlns="http://www.w3.org/2000/svg" viewBox="0 0 904.722222222222 582.4999999999999" width="904.722222222222" height="582.4999999999999">
  <!-- svg-source:excalidraw -->
  
  <defs>
    <style class="style-fonts">
      @font-face {
        font-family: "Virgil";
        src: url("https://excalidraw.com/Virgil.woff2");
      }
      @font-face {
        font-family: "Cascadia";
        src: url("https://excalidraw.com/Cascadia.woff2");
      }
    </style>
    
  </defs>
  <g stroke-linecap="round" transform="translate(10 10) rotate(0 442.361111111111 281.24999999999994)"><path d="M33.39 -1.83 L852.28 -0.72 L859.71 1.12 L872.05 4.92 L880.55 14.33 L881.01 17.49 L883.73 32.08 L884.9 531.38 L882.61 536.36 L881.72 548.7 L871.35 556.39 L865.77 559.27 L854.37 561.1 L32.39 563.13 L24.68 562.15 L14.39 557.55 L5.22 550.9 L0.68 545.01 L-0.97 531.95 L-1.32 32.2 L0.67 17.11 L8.59 9.05 L18.99 3.9 L31.88 1.19" stroke="none" stroke-width="0" fill="#ffffff"></path><path d="M32 0 M32 0 C241.77 1.9, 451.39 2.11, 852.72 0 M32 0 C216 -0.13, 400.19 -0.21, 852.72 0 M852.72 0 C873.93 -0.42, 885 10.83, 884.72 32 M852.72 0 C875.95 -1.84, 883.02 9.05, 884.72 32 M884.72 32 C883.54 133.23, 883.68 236.09, 884.72 530.5 M884.72 32 C884.09 221.08, 884.07 410.39, 884.72 530.5 M884.72 530.5 C884.26 550.07, 875.36 563.29, 852.72 562.5 M884.72 530.5 C883.7 550.57, 872.87 562.23, 852.72 562.5 M852.72 562.5 C591.98 564.41, 329.11 562.97, 32 562.5 M852.72 562.5 C639.01 559.77, 425 559.34, 32 562.5 M32 562.5 C11.43 561.6, -1.12 553.25, 0 530.5 M32 562.5 C11.85 563.74, -0.44 552.08, 0 530.5 M0 530.5 C-1.04 396.4, -1.7 262.2, 0 32 M0 530.5 C0.88 353.21, 0.4 175.44, 0 32 M0 32 C-0.92 11.93, 8.76 1.18, 32 0 M0 32 C0.39 9.29, 12.49 1.41, 32 0" stroke="#868e96" stroke-width="1" fill="none"></path></g><g stroke-linecap="round" transform="translate(624.9999999999989 353.24999999999943) rotate(0 128.75 105.75)"><path d="M32 0 M32 0 C106.93 -2.48, 181.65 -1.66, 225.5 0 M32 0 C105.17 -0.93, 179.37 -0.52, 225.5 0 M225.5 0 C245.02 -1.43, 259.05 12.61, 257.5 32 M225.5 0 C248.72 2.18, 255.4 9.5, 257.5 32 M257.5 32 C256.19 71.84, 256.95 111.11, 257.5 179.5 M257.5 32 C258.02 86.63, 256.71 139.31, 257.5 179.5 M257.5 179.5 C255.88 201.88, 245.75 210.19, 225.5 211.5 M257.5 179.5 C258.54 202.32, 244.82 212.01, 225.5 211.5 M225.5 211.5 C176.09 213.19, 128.5 212.67, 32 211.5 M225.5 211.5 C151.33 213.41, 76.25 212.82, 32 211.5 M32 211.5 C11.91 212.28, -0.53 201.72, 0 179.5 M32 211.5 C9.05 213.03, -0.9 201.14, 0 179.5 M0 179.5 C-1.56 125.02, 0.68 69.6, 0 32 M0 179.5 C0.04 147.62, 1.2 113.72, 0 32 M0 32 C1.27 9.86, 9.93 -0.39, 32 0 M0 32 C2.12 12.13, 11.6 0.45, 32 0" stroke="#868e96" stroke-width="4" fill="none"></path></g><g stroke-linecap="round" transform="translate(668.7499999999989 472.74999999999943) rotate(0 90.75 34)"><path d="M16.94 -1.05 L162.52 -0.01 L170.79 -0.75 L175.82 5.8 L183.18 14.66 L182.33 56.61 L173.85 65.07 L165.42 66.92 L15.02 67.56 L8.34 65.48 L5.56 63.36 L1.15 56.59 L1.66 12.02 L1.28 5.02 L7.69 1.31 L15.69 0.9" stroke="none" stroke-width="0" fill="#868e96"></path><path d="M17 0 M17 0 C69.73 1.08, 126.21 -1.77, 164.5 0 M17 0 C62.69 1.1, 107.51 0.38, 164.5 0 M164.5 0 C176.53 -1.57, 181.01 6.91, 181.5 17 M164.5 0 C176.73 -0.61, 182.52 4.05, 181.5 17 M181.5 17 C182.94 29.46, 183.33 40.37, 181.5 51 M181.5 17 C180.83 28.89, 182.38 41.12, 181.5 51 M181.5 51 C183 62.99, 174.79 69.27, 164.5 68 M181.5 51 C180.57 61.49, 175.38 70.12, 164.5 68 M164.5 68 C111.93 68.07, 58.38 68.73, 17 68 M164.5 68 C107.63 66.84, 50.28 66.05, 17 68 M17 68 C3.93 67.45, -0.13 63.13, 0 51 M17 68 C7.48 66.54, 1.54 60.8, 0 51 M0 51 C1.16 43.8, -0.91 33.8, 0 17 M0 51 C-0.3 42.7, 0.7 35.32, 0 17 M0 17 C0.85 7.11, 5.44 -0.48, 17 0 M0 17 C-0.42 5.82, 3.89 -0.69, 17 0" stroke="#343a40" stroke-width="2" fill="none"></path></g><g stroke-linecap="round" transform="translate(670.6249999999989 383.24999999999943) rotate(0 88.875 34)"><path d="M15.95 -1.98 L160.74 -1.15 L166.38 -0.37 L175.05 6.19 L179.12 14.91 L174.86 57.43 L170.57 66.53 L159.67 66.02 L16.56 66.78 L8.11 68.25 L3.86 64.64 L1.87 56.38 L-0.73 11.9 L0.77 7.69 L5.56 1.08 L17.9 1.29" stroke="none" stroke-width="0" fill="#868e96"></path><path d="M17 0 M17 0 C48.92 2.41, 76.59 0.83, 160.75 0 M17 0 C53.16 -0.39, 87.83 -0.85, 160.75 0 M160.75 0 C170.51 -0.49, 179 6.45, 177.75 17 M160.75 0 C171.47 1.02, 176.13 7.2, 177.75 17 M177.75 17 C177.79 27.84, 176.24 36.09, 177.75 51 M177.75 17 C177.45 29.12, 177.21 40.46, 177.75 51 M177.75 51 C178.4 61.29, 173.35 67.19, 160.75 68 M177.75 51 C176.91 61.88, 174.21 69.47, 160.75 68 M160.75 68 C111.56 69.99, 63.25 70.58, 17 68 M160.75 68 C110.72 69.57, 59.67 67.98, 17 68 M17 68 C5.12 67.87, 0.79 63.91, 0 51 M17 68 C4.21 69.54, -1.54 61.5, 0 51 M0 51 C1.58 39.73, 0.55 28.99, 0 17 M0 51 C-0.41 38.89, 0.28 25.22, 0 17 M0 17 C1.44 5.44, 5.18 -0.36, 17 0 M0 17 C0.16 3.89, 4.98 -1.29, 17 0" stroke="#343a40" stroke-width="2" fill="none"></path></g><g stroke-linecap="round" transform="translate(327.55555555555554 174.19444444444434) rotate(0 136.56249999999994 147.99999999999994)"><path d="M32 0 M32 0 C107.54 0.32, 184.12 -1.4, 241.12 0 M32 0 C103.77 -0.33, 176.4 1.21, 241.12 0 M241.12 0 C263.44 1.78, 271.92 10.94, 273.12 32 M241.12 0 C260.51 2.21, 273.87 11.64, 273.12 32 M273.12 32 C273.61 118.23, 273.93 206.63, 273.12 264 M273.12 32 C275.11 115.15, 275.2 198.04, 273.12 264 M273.12 264 C275.06 283.4, 262.95 295.11, 241.12 296 M273.12 264 C272.29 284.03, 262.02 296.58, 241.12 296 M241.12 296 C188.99 295.49, 137.2 296.97, 32 296 M241.12 296 C196.7 294.33, 153.47 295.36, 32 296 M32 296 C9.16 295.95, 0.25 286.12, 0 264 M32 296 C12.38 297.05, 0.28 285.39, 0 264 M0 264 C0.29 193.37, 1.44 119.12, 0 32 M0 264 C-0.62 178.71, -0.27 93.52, 0 32 M0 32 C0.47 9.21, 10.11 0.09, 32 0 M0 32 C-0.7 11.85, 10.16 1.28, 32 0" stroke="#868e96" stroke-width="4" fill="none"></path></g><g stroke-linecap="round" transform="translate(341.18055555555554 293.6944444444441) rotate(0 124.37499999999994 34.00000000000006)"><path d="M18.21 1.26 L231.02 0.87 L238.17 0.69 L244.44 2.73 L250.32 14.98 L248.67 60.22 L240.9 65.88 L230.05 69.92 L17.65 68.85 L11.13 67.25 L4.17 63.96 L-1.55 55.58 L-0.82 14.16 L3.7 7.32 L8.3 3.06 L18.86 0.72" stroke="none" stroke-width="0" fill="#868e96"></path><path d="M17 0 M17 0 C101.37 -1.1, 186.31 -0.8, 231.75 0 M17 0 C86.57 1.01, 156.7 1.1, 231.75 0 M231.75 0 C244.82 -1.82, 248.07 4.34, 248.75 17 M231.75 0 C241.13 -1.14, 247.93 7.2, 248.75 17 M248.75 17 C249.53 26.13, 249.66 32.53, 248.75 51 M248.75 17 C248.31 27.49, 249.4 38.46, 248.75 51 M248.75 51 C246.96 63.71, 244.15 68.69, 231.75 68 M248.75 51 C249.91 63.19, 245.19 70.01, 231.75 68 M231.75 68 C162.35 66.94, 93.7 67.09, 17 68 M231.75 68 C156.07 68.91, 78.78 68.91, 17 68 M17 68 C4.36 68.06, -1.02 63.55, 0 51 M17 68 C7.71 68.05, -1.64 60.36, 0 51 M0 51 C1.38 39.93, 1.24 34.21, 0 17 M0 51 C-0.69 38.84, 1 25.67, 0 17 M0 17 C-1.13 7.59, 5.01 0.63, 17 0 M0 17 C-1.19 6.17, 7.34 0.17, 17 0" stroke="#343a40" stroke-width="2" fill="none"></path></g><g stroke-linecap="round" transform="translate(385.11805555555543 204.19444444444434) rotate(0 79.5 34)"><path d="M18.26 -0.73 L142.87 -1.01 L149.07 1 L153.23 6.09 L160.69 14 L159.72 57.23 L152.63 63.91 L143.92 68.65 L17.85 69.57 L9.87 66.86 L4.46 61.93 L0.86 53.9 L1.41 14.33 L3.07 8.3 L7.31 4.25 L17.72 1.93" stroke="none" stroke-width="0" fill="#868e96"></path><path d="M17 0 M17 0 C41.69 -0.58, 67.46 1.06, 142 0 M17 0 C47.97 0.41, 79.14 1.25, 142 0 M142 0 C151.51 -0.68, 157.67 3.97, 159 17 M142 0 C152.19 -0.82, 160.54 3.94, 159 17 M159 17 C160.53 28.04, 159.29 37.29, 159 51 M159 17 C159.21 28.12, 159.89 37.12, 159 51 M159 51 C160.38 63.4, 154.02 69.01, 142 68 M159 51 C159.86 64.44, 155.35 68.54, 142 68 M142 68 C113.03 69.09, 84.83 69.17, 17 68 M142 68 C115.35 68.73, 88.47 68.34, 17 68 M17 68 C5.73 66.98, 1.22 64.11, 0 51 M17 68 C5.72 66.36, -1.97 61.77, 0 51 M0 51 C-2.01 43.84, 1.64 36.31, 0 17 M0 51 C0.65 44.4, 0.56 35.81, 0 17 M0 17 C1.92 5.01, 6.3 -1.03, 17 0 M0 17 C0.51 7.34, 5.84 -1.58, 17 0" stroke="#343a40" stroke-width="2" fill="none"></path></g><g stroke-linecap="round" transform="translate(369.18055555555543 386.19444444444446) rotate(0 95.4375 34)"><path d="M15.54 -0.73 L171.95 0.12 L179.4 1.75 L185.17 5.53 L190.59 14.35 L189.9 57.39 L182.36 63.96 L173.37 69.41 L17.18 67.15 L8.86 66.14 L3.8 65.12 L0.04 56.07 L-0.33 13.94 L1.37 4.74 L7.29 2.35 L17.68 -0.49" stroke="none" stroke-width="0" fill="#868e96"></path><path d="M17 0 M17 0 C80.2 0.94, 142.04 0.73, 173.87 0 M17 0 C63.74 -0.63, 109.07 -0.61, 173.87 0 M173.87 0 C186.69 1.48, 188.98 5.88, 190.87 17 M173.87 0 C187.19 -1.36, 191.8 4.92, 190.87 17 M190.87 17 C190.82 27.21, 191.26 36.57, 190.87 51 M190.87 17 C190.34 24.95, 190.61 31.44, 190.87 51 M190.87 51 C191.98 62.48, 184.55 69.56, 173.87 68 M190.87 51 C188.83 61.24, 183.94 67.09, 173.87 68 M173.87 68 C125.74 65.66, 76.11 68.92, 17 68 M173.87 68 C136.79 68.33, 99.81 68.4, 17 68 M17 68 C5.11 66.64, -0.55 61.86, 0 51 M17 68 C5.63 68.25, -0.75 61.57, 0 51 M0 51 C-1.91 42.45, 0.22 34.08, 0 17 M0 51 C-0.22 38.72, 0.83 27.59, 0 17 M0 17 C-0.47 6.25, 7.2 0.92, 17 0 M0 17 C-0.4 4.27, 7.9 0.42, 17 0" stroke="#343a40" stroke-width="2" fill="none"></path></g><g stroke-linecap="round" transform="translate(23.5 94.75) rotate(0 128.74999999999994 107.99999999999994)"><path d="M32 0 M32 0 C77.21 0.78, 124.54 0.7, 225.5 0 M32 0 C71.8 1.01, 113.01 0.11, 225.5 0 M225.5 0 C245.4 1.55, 259.44 12.31, 257.5 32 M225.5 0 C249.01 -2.1, 256.34 10.05, 257.5 32 M257.5 32 C256.24 83.34, 255.22 138.43, 257.5 184 M257.5 32 C258.87 74.13, 257.62 116.45, 257.5 184 M257.5 184 C258.55 204.25, 245.53 216.9, 225.5 216 M257.5 184 C258.98 203.32, 247.35 214.8, 225.5 216 M225.5 216 C153.91 213.53, 81.73 216.28, 32 216 M225.5 216 C152.71 215.33, 78.98 216.74, 32 216 M32 216 C11.45 215.47, 0.89 203.92, 0 184 M32 216 C12.2 215.1, 0.31 207.14, 0 184 M0 184 C-0.15 139.11, 0.25 91.29, 0 32 M0 184 C-0.42 147.73, -1.69 111.44, 0 32 M0 32 C-0.81 9.93, 10.28 1.85, 32 0 M0 32 C1.47 11.6, 11.11 1.25, 32 0" stroke="#868e96" stroke-width="4" fill="none"></path></g><g stroke-linecap="round" transform="translate(66.125 126.75000000000011) rotate(0 79.5 34)"><path d="M15.22 -0.06 L140.95 -1.98 L149.42 -0.09 L152.94 2.82 L160.28 14.96 L159.58 60.33 L150.54 64.6 L141.46 68.92 L15.92 66.02 L9.13 65.72 L2.8 65.06 L-0.13 55.87 L1.87 14.41 L1.4 5.53 L5.02 3.44 L15.91 -1.31" stroke="none" stroke-width="0" fill="#868e96"></path><path d="M17 0 M17 0 C60.58 0.05, 104.68 2.76, 142 0 M17 0 C45.26 1.51, 74.74 1.48, 142 0 M142 0 C153.46 0.7, 157.43 5.18, 159 17 M142 0 C154.77 0.9, 158.39 6.69, 159 17 M159 17 C159.5 26.37, 159.22 34.57, 159 51 M159 17 C160.1 23.76, 158.64 32.86, 159 51 M159 51 C157.33 63.83, 153.99 66.96, 142 68 M159 51 C160.46 61.4, 152.49 67.55, 142 68 M142 68 C93.35 69.6, 43.72 69.71, 17 68 M142 68 C100.76 69.21, 61.66 69.34, 17 68 M17 68 C4.58 66.26, -0.55 62.2, 0 51 M17 68 C6.58 69.81, -1.46 63.88, 0 51 M0 51 C1.25 44.25, 1.89 34.26, 0 17 M0 51 C0.73 39.53, -0.02 29.07, 0 17 M0 17 C0.91 6.51, 7.11 -0.23, 17 0 M0 17 C-0.55 5.25, 5.82 -1.78, 17 0" stroke="#343a40" stroke-width="2" fill="none"></path></g><g stroke-linecap="round" transform="translate(54.75 220.2499999999999) rotate(0 94.1875 34)"><path d="M15.02 -0.01 L170.23 -1.81 L177.38 2.61 L186.07 5.89 L190.01 11.19 L186.3 57.9 L182.65 64.52 L169.39 67.56 L15.78 66.55 L10.88 66.55 L5.14 65.36 L1.66 53.99 L-0.85 11.4 L3.44 5.56 L5.33 3.29 L18.29 -1.75" stroke="none" stroke-width="0" fill="#868e96"></path><path d="M17 0 M17 0 C68.43 -2.53, 116.62 -2.16, 171.37 0 M17 0 C60.76 -1.14, 103.26 -1.99, 171.37 0 M171.37 0 C182.22 1.25, 189.16 5.14, 188.37 17 M171.37 0 C183.73 -1.62, 189.91 4.77, 188.37 17 M188.37 17 C190.61 26.1, 189.98 39, 188.37 51 M188.37 17 C188.87 29.32, 188.86 43.64, 188.37 51 M188.37 51 C187.33 63.6, 181.9 67.27, 171.37 68 M188.37 51 C187.93 64.46, 184.18 68.94, 171.37 68 M171.37 68 C123.27 68.28, 74.55 68.83, 17 68 M171.37 68 C140.44 67.83, 107.21 68.1, 17 68 M17 68 C5.54 68.79, 1.57 61.06, 0 51 M17 68 C7.21 66.46, -0.83 62.45, 0 51 M0 51 C-1.09 39.63, -1.45 28.49, 0 17 M0 51 C1 39.5, 0.43 27.81, 0 17 M0 17 C-0.23 5.18, 5.3 0.14, 17 0 M0 17 C-1.78 4.98, 4.37 1.18, 17 0" stroke="#343a40" stroke-width="2" fill="none"></path></g><g transform="translate(325.155056423611 18.444444444444457) rotate(0 127.20605468750006 22.5)"><text x="0" y="0" font-family="Virgil, Segoe UI Emoji" font-size="36px" fill="#1971c2" text-anchor="start" style="white-space: pre;" direction="ltr" dominant-baseline="text-before-edge">Ockam Routing</text></g><g transform="translate(648.6475448608387 319.9999999999999) rotate(0 105.60245513916016 17.5)"><text x="105.60245513916016" y="0" font-family="Virgil, Segoe UI Emoji" font-size="28px" fill="#343a40" text-anchor="middle" style="white-space: pre;" direction="ltr" dominant-baseline="text-before-edge">node_responder</text></g><g transform="translate(375.62321302625867 141.44444444444446) rotate(0 80.68234252929688 17.5)"><text x="80.68234252929688" y="0" font-family="Virgil, Segoe UI Emoji" font-size="28px" fill="#343a40" text-anchor="middle" style="white-space: pre;" direction="ltr" dominant-baseline="text-before-edge">node_middle</text></g><g transform="translate(56.59760284423828 62) rotate(0 96.15239715576172 17.5)"><text x="96.15239715576172" y="0" font-family="Virgil, Segoe UI Emoji" font-size="28px" fill="#343a40" text-anchor="middle" style="white-space: pre;" direction="ltr" dominant-baseline="text-before-edge">node_initiator</text></g><g transform="translate(78.28507995605469 147.7499999999999) rotate(0 67.83992004394531 12.5)"><text x="67.83992004394531" y="0" font-family="Virgil, Segoe UI Emoji" font-size="20px" fill="#ffffff" text-anchor="middle" style="white-space: pre;" direction="ltr" dominant-baseline="text-before-edge">Address: 'app'</text></g><g transform="translate(684.0750885009754 495.24999999999943) rotate(0 82.04991149902344 12.5)"><text x="82.04991149902344" y="0" font-family="Virgil, Segoe UI Emoji" font-size="20px" fill="#ffffff" text-anchor="middle" style="white-space: pre;" direction="ltr" dominant-baseline="text-before-edge">Address: 'echoer'</text></g><g transform="translate(351.65067884657117 302.5694444444441) rotate(0 116.27987670898432 25)"><text x="116.27987670898438" y="0" font-family="Virgil, Segoe UI Emoji" font-size="20px" fill="#ffffff" text-anchor="middle" style="white-space: pre;" direction="ltr" dominant-baseline="text-before-edge">Address: </text><text x="116.27987670898438" y="25" font-family="Virgil, Segoe UI Emoji" font-size="20px" fill="#ffffff" text-anchor="middle" style="white-space: pre;" direction="ltr" dominant-baseline="text-before-edge">'forward_to_responder'</text></g><g transform="translate(681.3950881957996 393.24999999999943) rotate(0 78.22991180419922 25)"><text x="78.22991180419922" y="0" font-family="Virgil, Segoe UI Emoji" font-size="20px" fill="#ffffff" text-anchor="middle" style="white-space: pre;" direction="ltr" dominant-baseline="text-before-edge">TCP transport </text><text x="78.22991180419922" y="25" font-family="Virgil, Segoe UI Emoji" font-size="20px" fill="#ffffff" text-anchor="middle" style="white-space: pre;" direction="ltr" dominant-baseline="text-before-edge">listening 4000</text></g><g transform="translate(391.4506437513563 214.19444444444434) rotate(0 78.22991180419916 25)"><text x="78.22991180419922" y="0" font-family="Virgil, Segoe UI Emoji" font-size="20px" fill="#ffffff" text-anchor="middle" style="white-space: pre;" direction="ltr" dominant-baseline="text-before-edge">TCP transport </text><text x="78.22991180419922" y="25" font-family="Virgil, Segoe UI Emoji" font-size="20px" fill="#ffffff" text-anchor="middle" style="white-space: pre;" direction="ltr" dominant-baseline="text-before-edge">listening 3000</text></g><g transform="translate(65.94507598876953 229.24999999999977) rotate(0 84.67992401123047 25)"><text x="84.67992401123047" y="0" font-family="Virgil, Segoe UI Emoji" font-size="20px" fill="#ffffff" text-anchor="middle" style="white-space: pre;" direction="ltr" dominant-baseline="text-before-edge">TCP transport</text><text x="84.67992401123047" y="25" font-family="Virgil, Segoe UI Emoji" font-size="20px" fill="#ffffff" text-anchor="middle" style="white-space: pre;" direction="ltr" dominant-baseline="text-before-edge">connect to 3000</text></g><g transform="translate(376.9106275770399 395.69444444444446) rotate(0 84.26992797851562 25)"><text x="84.26992797851562" y="0" font-family="Virgil, Segoe UI Emoji" font-size="20px" fill="#ffffff" text-anchor="middle" style="white-space: pre;" direction="ltr" dominant-baseline="text-before-edge">TCP transport</text><text x="84.26992797851562" y="25" font-family="Virgil, Segoe UI Emoji" font-size="20px" fill="#ffffff" text-anchor="middle" style="white-space: pre;" direction="ltr" dominant-baseline="text-before-edge">connect to 4000</text></g><g stroke-linecap="round"><g transform="translate(111.51911509987781 197.2499999999999) rotate(0 -0.5313112202847492 8.6521359771491)"><path d="M-1.09 -0.86 C-1.28 2.28, -1.15 15, -1.15 18.16 M0.55 1.3 C0.28 4.2, -1.29 14.14, -1.61 16.65" stroke="#868e96" stroke-width="2" fill="none"></path></g><g transform="translate(111.51911509987781 197.2499999999999) rotate(0 -0.5313112202847492 8.6521359771491)"><path d="M-3.98 8.94 C-2.06 11.5, -1.55 12.53, -2.04 16.42 M-3.46 8.01 C-3.12 11.47, -2.28 14.28, -1.26 16.95" stroke="#868e96" stroke-width="2" fill="none"></path></g><g transform="translate(111.51911509987781 197.2499999999999) rotate(0 -0.5313112202847492 8.6521359771491)"><path d="M1.81 9.76 C2.01 12.03, 0.78 12.81, -2.04 16.42 M2.33 8.84 C0.68 11.95, -0.49 14.47, -1.26 16.95" stroke="#868e96" stroke-width="2" fill="none"></path></g></g><mask></mask><g stroke-linecap="round"><g transform="translate(715.8110755592138 452.74999999999943) rotate(0 0.015115751233111041 10.176338233049023)"><path d="M-0.86 0.93 C-0.8 4.44, -0.42 17.15, -0.34 19.98 M0.89 0.37 C0.95 3.66, -0.44 15.33, -0.67 18.38" stroke="#343a40" stroke-width="2" fill="none"></path></g><g transform="translate(715.8110755592138 452.74999999999943) rotate(0 0.015115751233111041 10.176338233049023)"><path d="M-2.3 10.07 C-1.77 12.31, -2.84 13.16, -0.93 18.81 M-3.33 8.8 C-2.24 11.33, -1.76 14.07, -0.34 18.14" stroke="#343a40" stroke-width="2" fill="none"></path></g><g transform="translate(715.8110755592138 452.74999999999943) rotate(0 0.015115751233111041 10.176338233049023)"><path d="M4.18 10.71 C3.15 12.74, 0.5 13.44, -0.93 18.81 M3.16 9.44 C2.66 11.8, 1.55 14.38, -0.34 18.14" stroke="#343a40" stroke-width="2" fill="none"></path></g></g><mask></mask><g stroke-linecap="round"><g transform="translate(409.0649945491582 273.694444444444) rotate(0 0.30934874424690406 9.818526846161262)"><path d="M-0.61 -0.22 C-0.48 3.02, -0.03 16.25, 0.31 19.96 M1.27 -1.38 C1.28 1.94, -0.65 17.4, -0.66 21.02" stroke="#868e96" stroke-width="2" fill="none"></path></g><g transform="translate(409.0649945491582 273.694444444444) rotate(0 0.30934874424690406 9.818526846161262)"><path d="M-3.7 10.95 C-3.51 14.6, -0.94 16.8, 0.27 20.39 M-3.34 11.2 C-2.29 14.18, -1.83 17.3, -1.13 21.17" stroke="#868e96" stroke-width="2" fill="none"></path></g><g transform="translate(409.0649945491582 273.694444444444) rotate(0 0.30934874424690406 9.818526846161262)"><path d="M3.42 11.46 C1.73 14.94, 2.42 17.01, 0.27 20.39 M3.78 11.71 C2.6 14.6, 0.83 17.56, -1.13 21.17" stroke="#868e96" stroke-width="2" fill="none"></path></g></g><mask></mask><g stroke-linecap="round"><g transform="translate(833.3609081594211 458.3773961447456) rotate(0 0.5545481929791549 0.3759886080616752)"><path d="M0.93 1.16 C1.25 1.47, 1.22 1.28, 0.87 0.96 M-0.05 0.73 C0.3 0.8, 0.24 -0.48, 0.44 -0.57" stroke="#343a40" stroke-width="2" fill="none"></path></g><g transform="translate(833.3609081594211 458.3773961447456) rotate(0 0.5545481929791549 0.3759886080616752)"><path d="M0.45 -0.45 C0.45 -0.49, 0.43 -0.51, 0.44 -0.57 M0.43 -0.46 C0.44 -0.48, 0.44 -0.5, 0.43 -0.57" stroke="#343a40" stroke-width="2" fill="none"></path></g><g transform="translate(833.3609081594211 458.3773961447456) rotate(0 0.5545481929791549 0.3759886080616752)"><path d="M0.38 -0.48 C0.39 -0.51, 0.39 -0.52, 0.44 -0.57 M0.36 -0.48 C0.38 -0.5, 0.4 -0.51, 0.43 -0.57" stroke="#343a40" stroke-width="2" fill="none"></path></g></g><mask></mask><g stroke-linecap="round"><g transform="translate(493.27561768421776 292.69444444444423) rotate(0 -0.2585249464103754 -9.488357460056363)"><path d="M-0.22 -0.03 C-0.47 -2.83, -1.18 -14.42, -0.95 -17.4 M-1.8 -1.1 C-1.71 -4.15, 0.81 -15.8, 1.28 -18.94" stroke="#868e96" stroke-width="2" fill="none"></path></g><g transform="translate(493.27561768421776 292.69444444444423) rotate(0 -0.2585249464103754 -9.488357460056363)"><path d="M2.8 -10.53 C3.19 -12.05, 2.26 -15.26, 0.72 -18.82 M3.02 -9.46 C2.48 -11.8, 2.12 -14.16, 1.42 -19.19" stroke="#868e96" stroke-width="2" fill="none"></path></g><g transform="translate(493.27561768421776 292.69444444444423) rotate(0 -0.2585249464103754 -9.488357460056363)"><path d="M-3.43 -11.67 C-0.9 -12.79, 0.31 -15.61, 0.72 -18.82 M-3.2 -10.6 C-2.4 -12.71, -1.41 -14.83, 1.42 -19.19" stroke="#868e96" stroke-width="2" fill="none"></path></g></g><mask></mask><g stroke-linecap="round"><g transform="translate(195.40862980440738 219.2499999999999) rotate(0 -0.09714855636445918 -11.55495918691156)"><path d="M1.16 0.98 C1.14 -3.19, -0.36 -20.04, -1.01 -24.09 M0.32 0.46 C0.31 -3.69, -0.67 -19.36, -1.36 -23.13" stroke="#868e96" stroke-width="2" fill="none"></path></g><g transform="translate(195.40862980440738 219.2499999999999) rotate(0 -0.09714855636445918 -11.55495918691156)"><path d="M4.72 -11.69 C1.47 -15.68, 1.04 -16.93, -1.99 -24.28 M4.15 -12.9 C2.66 -15.23, 1.38 -18.87, -1.68 -23.6" stroke="#868e96" stroke-width="2" fill="none"></path></g><g transform="translate(195.40862980440738 219.2499999999999) rotate(0 -0.09714855636445918 -11.55495918691156)"><path d="M-3.14 -10.81 C-4.6 -15.08, -3.24 -16.53, -1.99 -24.28 M-3.7 -12.02 C-3 -14.55, -2.1 -18.42, -1.68 -23.6" stroke="#868e96" stroke-width="2" fill="none"></path></g></g><mask></mask><g stroke-linecap="round"><g transform="translate(245.875 238.63598130783214) rotate(0 61.89573429171878 -1.000224003551466)"><path d="M0.62 0.07 C21.23 -0.38, 103.83 -1.64, 124.3 -2.07 M-0.51 -0.94 C19.89 -1.22, 102.3 -0.38, 123.37 -0.45" stroke="#868e96" stroke-width="2" fill="none"></path></g><g transform="translate(245.875 238.63598130783214) rotate(0 61.89573429171878 -1.000224003551466)"><path d="M95.26 9.76 C105.32 4.64, 114.55 3.45, 123.96 -1.9 M95.55 10.22 C102.2 7.83, 109.81 4.5, 124.18 0.47" stroke="#868e96" stroke-width="2" fill="none"></path></g><g transform="translate(245.875 238.63598130783214) rotate(0 61.89573429171878 -1.000224003551466)"><path d="M95.34 -10.76 C105.48 -8.63, 114.68 -2.58, 123.96 -1.9 M95.63 -10.3 C102.37 -7.31, 109.96 -5.27, 124.18 0.47" stroke="#868e96" stroke-width="2" fill="none"></path></g></g><mask></mask><g stroke-linecap="round"><g transform="translate(366.8611111111114 260.55443576419646) rotate(0 -59.14852142953947 0.610475024145785)"><path d="M-0.86 0.51 C-20.71 0.39, -99.13 -0.19, -118.83 -0.16 M0.89 -0.26 C-19.04 -0.22, -99.15 1.62, -119.18 1.47" stroke="#868e96" stroke-width="2" fill="none"></path></g><g transform="translate(366.8611111111114 260.55443576419646) rotate(0 -59.14852142953947 0.610475024145785)"><path d="M-90.24 -7.18 C-99.75 -4.37, -107.33 -3.78, -118.08 2.87 M-91.79 -8.5 C-99.7 -6.44, -107.12 -3.7, -118.37 1.07" stroke="#868e96" stroke-width="2" fill="none"></path></g><g transform="translate(366.8611111111114 260.55443576419646) rotate(0 -59.14852142953947 0.610475024145785)"><path d="M-90.04 13.34 C-99.71 9.57, -107.37 3.58, -118.08 2.87 M-91.59 12.02 C-99.61 8.34, -107.08 5.34, -118.37 1.07" stroke="#868e96" stroke-width="2" fill="none"></path></g></g><mask></mask><g stroke-linecap="round"><g transform="translate(409.96009222131283 363.569444444444) rotate(0 -0.2748208169792292 8.823796565900466)"><path d="M0.76 -0.7 C0.75 2.2, 0.01 14.18, -0.19 17.09 M-0.3 1.54 C-0.48 4.63, -1.11 15.67, -1.31 18.35" stroke="#868e96" stroke-width="2" fill="none"></path></g><g transform="translate(409.96009222131283 363.569444444444) rotate(0 -0.2748208169792292 8.823796565900466)"><path d="M-4.3 9.65 C-3.49 11.9, -3.01 14.72, -1.24 19.05 M-4.23 10.24 C-3.59 11.9, -2.77 13.73, -0.89 18.08" stroke="#868e96" stroke-width="2" fill="none"></path></g><g transform="translate(409.96009222131283 363.569444444444) rotate(0 -0.2748208169792292 8.823796565900466)"><path d="M1.71 10.04 C0.8 12.21, -0.45 14.92, -1.24 19.05 M1.79 10.62 C0.97 12.23, 0.32 13.97, -0.89 18.08" stroke="#868e96" stroke-width="2" fill="none"></path></g></g><mask></mask><g stroke-linecap="round"><g transform="translate(496.47614628944007 383.31944444444446) rotate(0 -0.08343504444161454 -9.209178319573311)"><path d="M-1.03 -0.1 C-0.69 -3.31, 0.28 -15.28, 0.87 -18.32 M0.62 -1.19 C0.87 -4.34, -0.6 -14.45, -0.32 -17.15" stroke="#868e96" stroke-width="2" fill="none"></path></g><g transform="translate(496.47614628944007 383.31944444444446) rotate(0 -0.08343504444161454 -9.209178319573311)"><path d="M2.89 -9.29 C1.72 -9.78, 1.04 -11.43, 0.16 -16.28 M2.91 -9.27 C1.78 -10.99, 0.68 -13.41, -0.43 -17.26" stroke="#868e96" stroke-width="2" fill="none"></path></g><g transform="translate(496.47614628944007 383.31944444444446) rotate(0 -0.08343504444161454 -9.209178319573311)"><path d="M-3.15 -9.1 C-3.11 -9.58, -2.57 -11.26, 0.16 -16.28 M-3.13 -9.08 C-2.52 -10.88, -1.88 -13.36, -0.43 -17.26" stroke="#868e96" stroke-width="2" fill="none"></path></g></g><mask></mask><g stroke-linecap="round"><g transform="translate(560.1805555555545 412.17828816255053) rotate(0 51.87592522997477 0.2764554991526893)"><path d="M0.3 -0.82 C17.82 -0.69, 87.62 1.11, 104.76 1.29 M-1 1.37 C16.44 1.14, 86.34 -0.35, 104.08 -0.31" stroke="#868e96" stroke-width="2" fill="none"></path></g><g transform="translate(560.1805555555545 412.17828816255053) rotate(0 51.87592522997477 0.2764554991526893)"><path d="M74.65 11.13 C85.14 5.51, 90.98 4.14, 105.88 -1.65 M76.3 10.5 C86.58 6.48, 95.94 2.2, 104.45 -0.42" stroke="#868e96" stroke-width="2" fill="none"></path></g><g transform="translate(560.1805555555545 412.17828816255053) rotate(0 51.87592522997477 0.2764554991526893)"><path d="M74.42 -9.39 C85.06 -9.51, 90.96 -5.37, 105.88 -1.65 M76.07 -10.02 C86.36 -6.8, 95.8 -3.84, 104.45 -0.42" stroke="#868e96" stroke-width="2" fill="none"></path></g></g><mask></mask><g stroke-linecap="round"><g transform="translate(667.1388888888878 432.0307960001527) rotate(0 -55.51595165977403 0.3045007042527459)"><path d="M-0.07 0.74 C-18.18 0.79, -91.71 -0.09, -109.82 -0.34 M-1.57 0.08 C-19.77 0.35, -93.03 0.94, -110.96 0.95" stroke="#868e96" stroke-width="2" fill="none"></path></g><g transform="translate(667.1388888888878 432.0307960001527) rotate(0 -55.51595165977403 0.3045007042527459)"><path d="M-81.59 -10.06 C-89.42 -6.15, -95.83 -6.75, -110.94 2.46 M-83.52 -10.24 C-90.53 -7.46, -97.43 -2.95, -110.9 0.23" stroke="#868e96" stroke-width="2" fill="none"></path></g><g transform="translate(667.1388888888878 432.0307960001527) rotate(0 -55.51595165977403 0.3045007042527459)"><path d="M-81.49 10.46 C-89.23 10.18, -95.66 5.39, -110.94 2.46 M-83.41 10.28 C-90.27 7.76, -97.2 6.98, -110.9 0.23" stroke="#868e96" stroke-width="2" fill="none"></path></g></g><mask></mask></svg>