<svg version="1.1" xmlns="http://www.w3.org/2000/svg" viewBox="0 0 904.722222222222 582.4999999999999" width="904.722222222222" height="582.4999999999999" filter="invert(93%) hue-rotate(180deg)">
  <!-- svg-source:excalidraw -->
  
  <defs>
    <style class="style-fonts">
      @font-face {
        font-family: "Virgil";
        src: url("https://excalidraw.com/Virgil.woff2");
      }
      @font-face {
        font-family: "Cascadia";
        src: url("https://excalidraw.com/Cascadia.woff2");
      }
    </style>
    
  </defs>
  <g stroke-linecap="round" transform="translate(10 10) rotate(0 442.361111111111 281.24999999999994)"><path d="M33.39 -1.83 L852.28 -0.72 L859.71 1.12 L872.05 4.92 L880.55 14.33 L881.01 17.49 L883.73 32.08 L884.9 531.38 L882.61 536.36 L881.72 548.7 L871.35 556.39 L865.77 559.27 L854.37 561.1 L32.39 563.13 L24.68 562.15 L14.39 557.55 L5.22 550.9 L0.68 545.01 L-0.97 531.95 L-1.32 32.2 L0.67 17.11 L8.59 9.05 L18.99 3.9 L31.88 1.19" stroke="none" stroke-width="0" fill="#a5d8ff"></path><path d="M32 0 M32 0 C241.77 1.9, 451.39 2.11, 852.72 0 M32 0 C216 -0.13, 400.19 -0.21, 852.72 0 M852.72 0 C873.93 -0.42, 885 10.83, 884.72 32 M852.72 0 C875.95 -1.84, 883.02 9.05, 884.72 32 M884.72 32 C883.54 133.23, 883.68 236.09, 884.72 530.5 M884.72 32 C884.09 221.08, 884.07 410.39, 884.72 530.5 M884.72 530.5 C884.26 550.07, 875.36 563.29, 852.72 562.5 M884.72 530.5 C883.7 550.57, 872.87 562.23, 852.72 562.5 M852.72 562.5 C591.98 564.41, 329.11 562.97, 32 562.5 M852.72 562.5 C639.01 559.77, 425 559.34, 32 562.5 M32 562.5 C11.43 561.6, -1.12 553.25, 0 530.5 M32 562.5 C11.85 563.74, -0.44 552.08, 0 530.5 M0 530.5 C-1.04 396.4, -1.7 262.2, 0 32 M0 530.5 C0.88 353.21, 0.4 175.44, 0 32 M0 32 C-0.92 11.93, 8.76 1.18, 32 0 M0 32 C0.39 9.29, 12.49 1.41, 32 0" stroke="#1971c2" stroke-width="1" fill="none"></path></g><g stroke-linecap="round" transform="translate(624.9999999999989 353.24999999999943) rotate(0 128.75 105.75)"><path d="M7.86 8.16 C7.86 8.16, 7.86 8.16, 7.86 8.16 M7.86 8.16 C7.86 8.16, 7.86 8.16, 7.86 8.16 M2.75 26.24 C8.69 23.31, 12.49 15.42, 21.12 5.11 M2.75 26.24 C6.84 19.89, 11.75 15, 21.12 5.11 M2.88 38.28 C10.69 31.71, 18.36 20.87, 34.37 2.05 M2.88 38.28 C10.33 28.6, 19.02 21.05, 34.37 2.05 M2.36 51.07 C12.71 42.54, 18.91 30.55, 45 2.02 M2.36 51.07 C13.74 39.45, 23.52 26.92, 45 2.02 M2.49 63.11 C15.18 48.72, 27.05 34.31, 55.63 1.98 M2.49 63.11 C22.99 40.63, 42.67 17.45, 55.63 1.98 M2.62 75.16 C24.16 46.55, 50.62 19.19, 66.26 1.95 M2.62 75.16 C26.88 47.64, 49.73 20.4, 66.26 1.95 M2.76 87.2 C31.68 54.53, 60.16 21.19, 76.89 1.91 M2.76 87.2 C24.94 59.93, 50.03 32.56, 76.89 1.91 M2.23 99.99 C23.89 76.94, 46.53 50.79, 87.52 1.88 M2.23 99.99 C34.25 64.84, 66.1 29.15, 87.52 1.88 M2.37 112.03 C28.14 85.51, 50.89 55.85, 98.15 1.85 M2.37 112.03 C40.85 67.5, 78.15 23.41, 98.15 1.85 M2.5 124.07 C34.93 87.91, 68.35 50.21, 108.78 1.81 M2.5 124.07 C32.23 91.82, 59.53 59.02, 108.78 1.81 M1.98 136.87 C29.27 106.83, 55 78.3, 119.41 1.78 M1.98 136.87 C47.11 83, 94.67 29.81, 119.41 1.78 M2.11 148.91 C38.46 104.66, 76.86 64.12, 130.04 1.74 M2.11 148.91 C30.21 115.55, 58.98 82.31, 130.04 1.74 M2.24 160.95 C52.14 102.76, 100.19 45.64, 140.67 1.71 M2.24 160.95 C34.17 123.61, 65.76 86.85, 140.67 1.71 M2.38 172.99 C41.71 128.88, 79.2 87.92, 150.65 2.43 M2.38 172.99 C50.15 115.95, 99.15 60.87, 150.65 2.43 M4.48 182.77 C47.4 132.71, 88.39 87.39, 161.28 2.39 M4.48 182.77 C55.29 123.9, 106.28 65.72, 161.28 2.39 M3.95 195.56 C50.93 138.93, 100.03 81.97, 171.91 2.36 M3.95 195.56 C61.13 130.18, 117.84 65.06, 171.91 2.36 M8.68 202.32 C42.45 161.96, 80.18 121.66, 182.54 2.32 M8.68 202.32 C45.09 160.82, 82.3 117.46, 182.54 2.32 M14.06 208.33 C53.68 159.63, 94.27 113.13, 193.17 2.29 M14.06 208.33 C78.69 135.78, 142.95 62.8, 193.17 2.29 M21.41 212.06 C81.8 143.03, 138.95 76.7, 203.8 2.26 M21.41 212.06 C83.89 137.44, 147.91 64.39, 203.8 2.26 M32.04 212.03 C95.18 139.19, 162.42 64.66, 214.43 2.22 M32.04 212.03 C103.36 130.4, 175.45 48.68, 214.43 2.22 M42.67 212 C92.18 156.62, 140.31 98.62, 226.37 0.68 M42.67 212 C97.08 149.08, 151.25 86.7, 226.37 0.68 M53.3 211.96 C99.91 157.57, 145.76 106.21, 235.69 2.15 M53.3 211.96 C117.82 136.84, 182.35 62.44, 235.69 2.15 M63.93 211.93 C127.71 139.52, 191.61 66.52, 243.69 5.14 M63.93 211.93 C122.58 143.23, 181.02 75.91, 243.69 5.14 M74.56 211.89 C110.59 172.65, 148.36 131.59, 251.04 8.88 M74.56 211.89 C124.16 152.72, 174.84 94.1, 251.04 8.88 M85.19 211.86 C122.43 170.1, 157.82 127.39, 255.11 16.39 M85.19 211.86 C124.61 167.89, 164.41 121.95, 255.11 16.39 M95.82 211.82 C156.46 146.64, 213.11 77.39, 260.49 22.39 M95.82 211.82 C148.88 148.97, 202.69 86.77, 260.49 22.39 M106.45 211.79 C156.93 152.47, 209.59 89.95, 260.63 34.43 M106.45 211.79 C154.61 156.97, 203.89 102.42, 260.63 34.43 M117.08 211.75 C171.01 150.91, 222.95 89.43, 260.76 46.47 M117.08 211.75 C163.96 156.02, 211.91 99.95, 260.76 46.47 M127.71 211.72 C168.27 161.29, 211.46 113.93, 260.24 59.27 M127.71 211.72 C177.38 156, 227.39 97.29, 260.24 59.27 M138.34 211.69 C181.84 158.41, 226.54 107.88, 260.37 71.31 M138.34 211.69 C172.21 172.81, 207.34 135.17, 260.37 71.31 M148.97 211.65 C175.11 181.01, 204.82 149.64, 260.5 83.35 M148.97 211.65 C186.1 165.88, 226.8 121.04, 260.5 83.35 M159.6 211.62 C198.62 167.16, 232.65 125.02, 260.64 95.39 M159.6 211.62 C183.52 186.28, 206.73 158.93, 260.64 95.39 M170.23 211.58 C194.15 184.12, 220.97 152.97, 260.77 107.43 M170.23 211.58 C195.96 182.27, 219.33 153.75, 260.77 107.43 M180.86 211.55 C202.35 184.33, 225.82 159.48, 260.25 120.23 M180.86 211.55 C212.28 174.71, 243.56 139.16, 260.25 120.23 M191.49 211.51 C210.37 191.54, 227.92 170.58, 260.38 132.27 M191.49 211.51 C210.53 187.65, 231.12 164.18, 260.38 132.27 M202.12 211.48 C221.47 188.12, 239.47 167.9, 260.51 144.31 M202.12 211.48 C219.62 193.38, 234.28 173.11, 260.51 144.31 M212.75 211.44 C230.01 194.45, 245.73 176.4, 260.65 156.35 M212.75 211.44 C226 195.92, 240.92 180.55, 260.65 156.35 M223.38 211.41 C236.52 196.99, 250.24 180.43, 260.78 168.39 M223.38 211.41 C234.51 198.6, 246.3 186.63, 260.78 168.39 M230.08 215.9 C238.23 205.9, 249.41 193.07, 259.6 181.94 M230.08 215.9 C235.11 209.81, 242.65 203.09, 259.6 181.94" stroke="#868e96" stroke-width="1" fill="none"></path><path d="M32 0 M32 0 C102.2 1, 172.94 0.58, 225.5 0 M32 0 C106.48 -1.45, 180.19 -1.88, 225.5 0 M225.5 0 C248.21 1.41, 257.58 10.55, 257.5 32 M225.5 0 C245.01 0.48, 255.71 11.79, 257.5 32 M257.5 32 C254.76 72.27, 254.96 108.7, 257.5 179.5 M257.5 32 C258.93 77.84, 257.8 124.95, 257.5 179.5 M257.5 179.5 C257.38 201.07, 246.7 210.83, 225.5 211.5 M257.5 179.5 C259.41 201.59, 245.7 211.18, 225.5 211.5 M225.5 211.5 C162.78 212.69, 103.97 213.61, 32 211.5 M225.5 211.5 C161.44 210.24, 96.07 211.18, 32 211.5 M32 211.5 C12.36 211, 1.96 199.5, 0 179.5 M32 211.5 C12.32 210.07, -2.21 201.19, 0 179.5 M0 179.5 C0.05 120.09, -0.83 64.02, 0 32 M0 179.5 C1.2 127.37, 1.21 76.89, 0 32 M0 32 C0.13 11.71, 9.43 -0.1, 32 0 M0 32 C-1.47 9.97, 9.16 0.69, 32 0" stroke="#343a40" stroke-width="2" fill="none"></path></g><g stroke-linecap="round" transform="translate(668.7499999999989 472.74999999999943) rotate(0 90.75 34)"><path d="M16.94 -1.05 L162.52 -0.01 L170.79 -0.75 L175.82 5.8 L183.18 14.66 L182.33 56.61 L173.85 65.07 L165.42 66.92 L15.02 67.56 L8.34 65.48 L5.56 63.36 L1.15 56.59 L1.66 12.02 L1.28 5.02 L7.69 1.31 L15.69 0.9" stroke="none" stroke-width="0" fill="#868e96"></path><path d="M17 0 M17 0 C69.73 1.08, 126.21 -1.77, 164.5 0 M17 0 C62.69 1.1, 107.51 0.38, 164.5 0 M164.5 0 C176.53 -1.57, 181.01 6.91, 181.5 17 M164.5 0 C176.73 -0.61, 182.52 4.05, 181.5 17 M181.5 17 C182.94 29.46, 183.33 40.37, 181.5 51 M181.5 17 C180.83 28.89, 182.38 41.12, 181.5 51 M181.5 51 C183 62.99, 174.79 69.27, 164.5 68 M181.5 51 C180.57 61.49, 175.38 70.12, 164.5 68 M164.5 68 C111.93 68.07, 58.38 68.73, 17 68 M164.5 68 C107.63 66.84, 50.28 66.05, 17 68 M17 68 C3.93 67.45, -0.13 63.13, 0 51 M17 68 C7.48 66.54, 1.54 60.8, 0 51 M0 51 C1.16 43.8, -0.91 33.8, 0 17 M0 51 C-0.3 42.7, 0.7 35.32, 0 17 M0 17 C0.85 7.11, 5.44 -0.48, 17 0 M0 17 C-0.42 5.82, 3.89 -0.69, 17 0" stroke="#343a40" stroke-width="2" fill="none"></path></g><g stroke-linecap="round" transform="translate(670.6249999999989 383.24999999999943) rotate(0 88.875 34)"><path d="M15.95 -1.98 L160.74 -1.15 L166.38 -0.37 L175.05 6.19 L179.12 14.91 L174.86 57.43 L170.57 66.53 L159.67 66.02 L16.56 66.78 L8.11 68.25 L3.86 64.64 L1.87 56.38 L-0.73 11.9 L0.77 7.69 L5.56 1.08 L17.9 1.29" stroke="none" stroke-width="0" fill="#868e96"></path><path d="M17 0 M17 0 C48.92 2.41, 76.59 0.83, 160.75 0 M17 0 C53.16 -0.39, 87.83 -0.85, 160.75 0 M160.75 0 C170.51 -0.49, 179 6.45, 177.75 17 M160.75 0 C171.47 1.02, 176.13 7.2, 177.75 17 M177.75 17 C177.79 27.84, 176.24 36.09, 177.75 51 M177.75 17 C177.45 29.12, 177.21 40.46, 177.75 51 M177.75 51 C178.4 61.29, 173.35 67.19, 160.75 68 M177.75 51 C176.91 61.88, 174.21 69.47, 160.75 68 M160.75 68 C111.56 69.99, 63.25 70.58, 17 68 M160.75 68 C110.72 69.57, 59.67 67.98, 17 68 M17 68 C5.12 67.87, 0.79 63.91, 0 51 M17 68 C4.21 69.54, -1.54 61.5, 0 51 M0 51 C1.58 39.73, 0.55 28.99, 0 17 M0 51 C-0.41 38.89, 0.28 25.22, 0 17 M0 17 C1.44 5.44, 5.18 -0.36, 17 0 M0 17 C0.16 3.89, 4.98 -1.29, 17 0" stroke="#343a40" stroke-width="2" fill="none"></path></g><g stroke-linecap="round" transform="translate(327.55555555555554 174.19444444444434) rotate(0 136.56249999999994 147.99999999999994)"><path d="M7.86 8.16 C7.86 8.16, 7.86 8.16, 7.86 8.16 M7.86 8.16 C7.86 8.16, 7.86 8.16, 7.86 8.16 M2.75 26.24 C9.24 17.27, 17.31 12.24, 21.12 5.11 M2.75 26.24 C8.83 19.08, 14.25 12.04, 21.12 5.11 M2.88 38.28 C11.09 30.82, 18.82 22.12, 34.37 2.05 M2.88 38.28 C13.35 25.97, 23.32 13.68, 34.37 2.05 M2.36 51.07 C13.04 36.91, 25.99 23.8, 45 2.02 M2.36 51.07 C14.41 36.05, 26.72 21.47, 45 2.02 M2.49 63.11 C16.08 47.61, 30.96 32.69, 55.63 1.98 M2.49 63.11 C20.88 41.99, 38.7 21.02, 55.63 1.98 M2.62 75.16 C26.39 50.3, 48.72 23.75, 66.26 1.95 M2.62 75.16 C23.66 49.17, 44.62 25.24, 66.26 1.95 M2.76 87.2 C23.41 62.68, 43.02 42.98, 76.89 1.91 M2.76 87.2 C26.3 59.47, 50.43 32.46, 76.89 1.91 M2.23 99.99 C33.66 61.96, 67.36 26.1, 87.52 1.88 M2.23 99.99 C34.67 65.16, 63.47 29.89, 87.52 1.88 M2.37 112.03 C22.35 87.97, 41.94 66.21, 98.15 1.85 M2.37 112.03 C35.41 75.37, 65.75 37.87, 98.15 1.85 M2.5 124.07 C26.74 94.72, 53.41 62.49, 108.78 1.81 M2.5 124.07 C42.61 77.02, 84.12 29.63, 108.78 1.81 M2.63 136.11 C37.99 96.72, 70.34 60.8, 119.41 1.78 M2.63 136.11 C42.92 89.93, 83.02 43.01, 119.41 1.78 M2.11 148.91 C40.33 104.42, 78.5 60.28, 130.04 1.74 M2.11 148.91 C47.62 99.64, 91.74 48.54, 130.04 1.74 M2.24 160.95 C34.42 122.02, 70.81 83.37, 140.67 1.71 M2.24 160.95 C35.88 121.48, 71.52 81.18, 140.67 1.71 M2.38 172.99 C36.39 133.42, 70 95.98, 150.65 2.43 M2.38 172.99 C44.46 124.66, 86.03 76.15, 150.65 2.43 M2.51 185.03 C46.24 134.94, 90.29 84.23, 161.28 2.39 M2.51 185.03 C43.85 140.09, 84.59 94.02, 161.28 2.39 M1.99 197.83 C61.48 129.24, 121.25 57.92, 171.91 2.36 M1.99 197.83 C61.88 128.21, 124.27 58.39, 171.91 2.36 M2.12 209.87 C50.6 153, 101.88 95.6, 182.54 2.32 M2.12 209.87 C50.16 155.4, 95.89 101.71, 182.54 2.32 M2.25 221.91 C62.87 151.4, 125.59 79.63, 193.17 2.29 M2.25 221.91 C48.01 167.41, 95.22 114.34, 193.17 2.29 M2.39 233.95 C44.63 187.29, 85.84 138.52, 203.8 2.26 M2.39 233.95 C63.4 165.7, 122.93 98.27, 203.8 2.26 M1.86 246.75 C58.17 184.94, 110.73 122.6, 214.43 2.22 M1.86 246.75 C66.69 171.8, 131.3 97.27, 214.43 2.22 M2 258.79 C79.99 168.23, 158.61 77.7, 225.06 2.19 M2 258.79 C70.75 180.46, 137.6 102.09, 225.06 2.19 M4.75 267.81 C87.64 171.76, 170.69 75.54, 235.69 2.15 M4.75 267.81 C63.96 198.68, 122.87 131.32, 235.69 2.15 M4.89 279.85 C66.13 210.1, 129.01 138.23, 245 3.63 M4.89 279.85 C84.26 189.54, 162.71 98.72, 245 3.63 M8.3 288.12 C92.02 192.21, 177.41 98.11, 256.29 2.84 M8.3 288.12 C79.92 206.11, 150.54 122.7, 256.29 2.84 M14.99 292.61 C105.47 188.69, 195.57 86.32, 262.98 7.33 M14.99 292.61 C96.27 197.43, 180.78 101.69, 262.98 7.33 M21.69 297.11 C109.79 194.5, 200.88 90.79, 269.68 11.82 M21.69 297.11 C101.76 205.63, 183.65 112.08, 269.68 11.82 M32.97 296.32 C130.21 187.52, 225.09 77.49, 273.09 20.09 M32.97 296.32 C80.52 240.3, 128.6 184.91, 273.09 20.09 M43.6 296.28 C118.21 212.96, 191.6 127.86, 273.22 32.13 M43.6 296.28 C89 242.9, 135.11 188.75, 273.22 32.13 M54.23 296.25 C137.73 200.34, 219.25 106.62, 273.36 44.17 M54.23 296.25 C121.31 216.62, 189.29 138.03, 273.36 44.17 M64.21 296.97 C137.95 210.77, 213.45 124.14, 273.49 56.21 M64.21 296.97 C118.77 234.44, 172.85 172.35, 273.49 56.21 M74.84 296.93 C155.55 208.69, 234.3 115.65, 272.97 69.01 M74.84 296.93 C147.63 215.36, 221.06 130.88, 272.97 69.01 M85.47 296.9 C146.62 225.89, 210.34 155.48, 273.1 81.05 M85.47 296.9 C152.93 221.25, 218.88 144.78, 273.1 81.05 M96.1 296.86 C141.74 244.23, 188.17 192.53, 273.23 93.09 M96.1 296.86 C163.25 219.69, 229.74 143.01, 273.23 93.09 M106.73 296.83 C167.06 229.14, 229.41 159.77, 273.37 105.13 M106.73 296.83 C148.84 247.97, 191.03 199.93, 273.37 105.13 M117.36 296.79 C155.31 253.44, 190.15 211.81, 273.5 117.17 M117.36 296.79 C160.68 247.12, 202.49 197.78, 273.5 117.17 M127.99 296.76 C169.52 247.94, 209.86 201.14, 272.98 129.97 M127.99 296.76 C164.56 257.1, 199.47 217.97, 272.98 129.97 M138.62 296.73 C177.57 251.73, 219.38 207.46, 273.11 142.01 M138.62 296.73 C178.06 250.56, 217.98 205.92, 273.11 142.01 M149.25 296.69 C174.49 266.72, 196.13 238.11, 273.24 154.05 M149.25 296.69 C189.15 251.93, 226.22 209.13, 273.24 154.05 M159.88 296.66 C193.87 259.33, 225.8 222.79, 273.38 166.09 M159.88 296.66 C201.91 248.58, 245.57 199.14, 273.38 166.09 M170.51 296.62 C201.73 259.13, 233 222.9, 273.51 178.13 M170.51 296.62 C208.19 254.57, 246.98 210.25, 273.51 178.13 M181.14 296.59 C213.86 261.33, 246.43 225.49, 272.99 190.93 M181.14 296.59 C217.2 255.31, 253.14 213.66, 272.99 190.93 M191.77 296.55 C217 268.06, 239.71 240.6, 273.12 202.97 M191.77 296.55 C211.18 275.1, 228.07 253.92, 273.12 202.97 M202.4 296.52 C225.25 270.47, 248.69 245.49, 273.25 215.01 M202.4 296.52 C225.43 269.48, 248.38 242.73, 273.25 215.01 M213.03 296.48 C234.04 274.09, 252.5 248.53, 273.39 227.05 M213.03 296.48 C227.67 280.21, 240.77 263.19, 273.39 227.05 M223.66 296.45 C238.7 279.06, 254.85 263.75, 273.52 239.09 M223.66 296.45 C235.65 282.02, 249.27 267.84, 273.52 239.09 M234.29 296.42 C243.4 285.22, 256.75 271.17, 273 251.89 M234.29 296.42 C242.6 286.58, 251.85 276.17, 273 251.89 M243.61 297.89 C251.99 287.98, 261.77 276.16, 273.13 263.93 M243.61 297.89 C253.81 285.9, 265.07 272.73, 273.13 263.93 M256.21 295.59 C259.57 291.06, 263 286.9, 271.29 278.23 M256.21 295.59 C260.9 289.97, 266.58 282.81, 271.29 278.23" stroke="#868e96" stroke-width="1" fill="none"></path><path d="M32 0 M32 0 C78.33 1.7, 123.69 2.38, 241.12 0 M32 0 C73.73 -1.86, 116.53 -0.5, 241.12 0 M241.12 0 C263.84 1.56, 272.41 10.37, 273.12 32 M241.12 0 C263.16 -0.12, 272.25 10.1, 273.12 32 M273.12 32 C273.91 97.84, 273.08 162.35, 273.12 264 M273.12 32 C273.86 113.22, 273.36 196.2, 273.12 264 M273.12 264 C275.12 286.93, 263.35 296.91, 241.12 296 M273.12 264 C275.4 287.17, 261.71 293.77, 241.12 296 M241.12 296 C188.13 295.23, 133.83 296.22, 32 296 M241.12 296 C188.5 296.25, 137.04 296.89, 32 296 M32 296 C9.31 294.44, -0.28 286.77, 0 264 M32 296 C8.94 293.84, 2.05 284.72, 0 264 M0 264 C-0.14 173.01, -0.13 77.95, 0 32 M0 264 C-0.89 203.99, 0.46 145.55, 0 32 M0 32 C-0.64 11.61, 10.06 1.79, 32 0 M0 32 C-1.29 10.86, 12.75 -1.05, 32 0" stroke="#343a40" stroke-width="2" fill="none"></path></g><g stroke-linecap="round" transform="translate(341.18055555555554 293.6944444444441) rotate(0 124.37499999999994 34.00000000000006)"><path d="M18.21 1.26 L231.02 0.87 L238.17 0.69 L244.44 2.73 L250.32 14.98 L248.67 60.22 L240.9 65.88 L230.05 69.92 L17.65 68.85 L11.13 67.25 L4.17 63.96 L-1.55 55.58 L-0.82 14.16 L3.7 7.32 L8.3 3.06 L18.86 0.72" stroke="none" stroke-width="0" fill="#868e96"></path><path d="M17 0 M17 0 C101.37 -1.1, 186.31 -0.8, 231.75 0 M17 0 C86.57 1.01, 156.7 1.1, 231.75 0 M231.75 0 C244.82 -1.82, 248.07 4.34, 248.75 17 M231.75 0 C241.13 -1.14, 247.93 7.2, 248.75 17 M248.75 17 C249.53 26.13, 249.66 32.53, 248.75 51 M248.75 17 C248.31 27.49, 249.4 38.46, 248.75 51 M248.75 51 C246.96 63.71, 244.15 68.69, 231.75 68 M248.75 51 C249.91 63.19, 245.19 70.01, 231.75 68 M231.75 68 C162.35 66.94, 93.7 67.09, 17 68 M231.75 68 C156.07 68.91, 78.78 68.91, 17 68 M17 68 C4.36 68.06, -1.02 63.55, 0 51 M17 68 C7.71 68.05, -1.64 60.36, 0 51 M0 51 C1.38 39.93, 1.24 34.21, 0 17 M0 51 C-0.69 38.84, 1 25.67, 0 17 M0 17 C-1.13 7.59, 5.01 0.63, 17 0 M0 17 C-1.19 6.17, 7.34 0.17, 17 0" stroke="#343a40" stroke-width="2" fill="none"></path></g><g stroke-linecap="round" transform="translate(385.11805555555543 204.19444444444434) rotate(0 79.5 34)"><path d="M18.26 -0.73 L142.87 -1.01 L149.07 1 L153.23 6.09 L160.69 14 L159.72 57.23 L152.63 63.91 L143.92 68.65 L17.85 69.57 L9.87 66.86 L4.46 61.93 L0.86 53.9 L1.41 14.33 L3.07 8.3 L7.31 4.25 L17.72 1.93" stroke="none" stroke-width="0" fill="#868e96"></path><path d="M17 0 M17 0 C41.69 -0.58, 67.46 1.06, 142 0 M17 0 C47.97 0.41, 79.14 1.25, 142 0 M142 0 C151.51 -0.68, 157.67 3.97, 159 17 M142 0 C152.19 -0.82, 160.54 3.94, 159 17 M159 17 C160.53 28.04, 159.29 37.29, 159 51 M159 17 C159.21 28.12, 159.89 37.12, 159 51 M159 51 C160.38 63.4, 154.02 69.01, 142 68 M159 51 C159.86 64.44, 155.35 68.54, 142 68 M142 68 C113.03 69.09, 84.83 69.17, 17 68 M142 68 C115.35 68.73, 88.47 68.34, 17 68 M17 68 C5.73 66.98, 1.22 64.11, 0 51 M17 68 C5.72 66.36, -1.97 61.77, 0 51 M0 51 C-2.01 43.84, 1.64 36.31, 0 17 M0 51 C0.65 44.4, 0.56 35.81, 0 17 M0 17 C1.92 5.01, 6.3 -1.03, 17 0 M0 17 C0.51 7.34, 5.84 -1.58, 17 0" stroke="#343a40" stroke-width="2" fill="none"></path></g><g stroke-linecap="round" transform="translate(369.18055555555543 386.19444444444446) rotate(0 95.4375 34)"><path d="M15.54 -0.73 L171.95 0.12 L179.4 1.75 L185.17 5.53 L190.59 14.35 L189.9 57.39 L182.36 63.96 L173.37 69.41 L17.18 67.15 L8.86 66.14 L3.8 65.12 L0.04 56.07 L-0.33 13.94 L1.37 4.74 L7.29 2.35 L17.68 -0.49" stroke="none" stroke-width="0" fill="#868e96"></path><path d="M17 0 M17 0 C80.2 0.94, 142.04 0.73, 173.87 0 M17 0 C63.74 -0.63, 109.07 -0.61, 173.87 0 M173.87 0 C186.69 1.48, 188.98 5.88, 190.87 17 M173.87 0 C187.19 -1.36, 191.8 4.92, 190.87 17 M190.87 17 C190.82 27.21, 191.26 36.57, 190.87 51 M190.87 17 C190.34 24.95, 190.61 31.44, 190.87 51 M190.87 51 C191.98 62.48, 184.55 69.56, 173.87 68 M190.87 51 C188.83 61.24, 183.94 67.09, 173.87 68 M173.87 68 C125.74 65.66, 76.11 68.92, 17 68 M173.87 68 C136.79 68.33, 99.81 68.4, 17 68 M17 68 C5.11 66.64, -0.55 61.86, 0 51 M17 68 C5.63 68.25, -0.75 61.57, 0 51 M0 51 C-1.91 42.45, 0.22 34.08, 0 17 M0 51 C-0.22 38.72, 0.83 27.59, 0 17 M0 17 C-0.47 6.25, 7.2 0.92, 17 0 M0 17 C-0.4 4.27, 7.9 0.42, 17 0" stroke="#343a40" stroke-width="2" fill="none"></path></g><g stroke-linecap="round" transform="translate(23.5 94.75) rotate(0 128.74999999999994 107.99999999999994)"><path d="M7.86 8.16 C7.86 8.16, 7.86 8.16, 7.86 8.16 M7.86 8.16 C7.86 8.16, 7.86 8.16, 7.86 8.16 M2.75 26.24 C8.42 23.13, 9.15 15.4, 21.12 5.11 M2.75 26.24 C6.68 20.35, 12.07 14.07, 21.12 5.11 M2.88 38.28 C16.07 26.29, 24.99 10.54, 34.37 2.05 M2.88 38.28 C8.93 30.97, 17.13 21.7, 34.37 2.05 M2.36 51.07 C18.02 33.52, 30.19 18.07, 45 2.02 M2.36 51.07 C14.62 37.15, 26.03 22.65, 45 2.02 M2.49 63.11 C16.22 46.95, 29.98 30.56, 55.63 1.98 M2.49 63.11 C16.27 47.73, 29.36 31.46, 55.63 1.98 M2.62 75.16 C22.05 52.74, 42.82 28.26, 66.26 1.95 M2.62 75.16 C23.77 50.03, 45.16 26.96, 66.26 1.95 M2.76 87.2 C30.47 55.81, 57.55 25.45, 76.89 1.91 M2.76 87.2 C31.81 54.92, 60.81 20.9, 76.89 1.91 M2.23 99.99 C21.47 80.71, 37.59 59.57, 87.52 1.88 M2.23 99.99 C23.04 77.66, 43.24 53.75, 87.52 1.88 M2.37 112.03 C36.38 74.05, 67.16 38.93, 98.15 1.85 M2.37 112.03 C34.87 73.05, 67.88 35.3, 98.15 1.85 M2.5 124.07 C27.56 97.13, 51.04 69.55, 108.78 1.81 M2.5 124.07 C30.93 90.73, 58.78 57.73, 108.78 1.81 M1.98 136.87 C25.91 108.93, 51.46 80.38, 119.41 1.78 M1.98 136.87 C43.76 89.7, 86.18 41.62, 119.41 1.78 M2.11 148.91 C45.02 99.09, 91.5 48.85, 130.04 1.74 M2.11 148.91 C53.47 89.92, 104.79 32.81, 130.04 1.74 M2.24 160.95 C46.33 107.57, 91.5 55.24, 140.67 1.71 M2.24 160.95 C48.46 106.63, 95.22 52.41, 140.67 1.71 M2.38 172.99 C37.8 131.37, 76.37 88.64, 150.65 2.43 M2.38 172.99 C43.83 124.58, 87.36 75.07, 150.65 2.43 M1.85 185.79 C50.47 126.92, 103.93 68.24, 161.28 2.39 M1.85 185.79 C47.79 132.49, 94.56 78.61, 161.28 2.39 M3.3 196.32 C61.83 128.6, 120.02 63.12, 171.91 2.36 M3.3 196.32 C52.04 139.75, 101.03 82.03, 171.91 2.36 M8.02 203.08 C68.69 135.9, 129.41 63.56, 182.54 2.32 M8.02 203.08 C63.49 141.2, 116.98 78.55, 182.54 2.32 M11.44 211.34 C74.09 136.86, 139.04 63.57, 193.17 2.29 M11.44 211.34 C54.67 163.16, 97.41 114.04, 193.17 2.29 M18.79 215.08 C68.65 154.38, 121.38 96.35, 203.8 2.26 M18.79 215.08 C86.07 136.47, 155.1 57.92, 203.8 2.26 M28.11 216.56 C84.41 156.04, 138.93 92.65, 214.43 2.22 M28.11 216.56 C72.74 166.72, 117.36 114.39, 214.43 2.22 M36.11 219.54 C92.73 154.43, 146.89 88.87, 226.37 0.68 M36.11 219.54 C100.31 144.65, 165.08 70.08, 226.37 0.68 M46.74 219.51 C103.08 153.05, 162.37 88.26, 235.69 2.15 M46.74 219.51 C106.46 149.79, 167.04 81.18, 235.69 2.15 M57.37 219.47 C113.56 156.3, 168.97 93.83, 243.69 5.14 M57.37 219.47 C124.88 139.82, 193.82 60.74, 243.69 5.14 M68 219.44 C112.28 172.67, 154.67 122.87, 251.04 8.88 M68 219.44 C134.35 141.93, 201.5 63.92, 251.04 8.88 M78.63 219.4 C127.73 161.95, 176.03 104.32, 255.11 16.39 M78.63 219.4 C132.58 159.98, 184.38 101.1, 255.11 16.39 M89.26 219.37 C133.18 169.94, 172.88 124.55, 260.49 22.39 M89.26 219.37 C151.86 146.11, 215.28 73.71, 260.49 22.39 M99.89 219.34 C160.14 151.15, 217.28 83.48, 260.63 34.43 M99.89 219.34 C140.98 174.44, 182.18 128.17, 260.63 34.43 M110.52 219.3 C141.21 183, 171.24 148.43, 260.76 46.47 M110.52 219.3 C169.78 150.31, 228.81 81.73, 260.76 46.47 M121.15 219.27 C175.61 155.56, 232.94 94.44, 260.24 59.27 M121.15 219.27 C157.98 179.46, 191.68 140.45, 260.24 59.27 M131.78 219.23 C169.89 172.78, 210.89 124.86, 260.37 71.31 M131.78 219.23 C158.62 190.02, 186.6 157.93, 260.37 71.31 M142.41 219.2 C179.53 179.33, 215.91 138.24, 260.5 83.35 M142.41 219.2 C188.9 166.61, 236.29 112.33, 260.5 83.35 M152.39 219.92 C179.94 183.82, 209.87 149.24, 260.64 95.39 M152.39 219.92 C181.55 188.24, 208.5 156.73, 260.64 95.39 M163.02 219.88 C198.06 182.54, 229.5 140.77, 260.77 107.43 M163.02 219.88 C190.2 186.42, 218.1 155.27, 260.77 107.43 M173.65 219.85 C197.72 191.07, 224.01 164.97, 260.25 120.23 M173.65 219.85 C195.6 193.46, 219.01 167.8, 260.25 120.23 M184.28 219.81 C207.18 194.44, 229.22 166.41, 260.38 132.27 M184.28 219.81 C213.25 186.08, 242.6 153.46, 260.38 132.27 M194.91 219.78 C211.9 197.64, 232.1 176.23, 260.51 144.31 M194.91 219.78 C212.52 199, 227.91 180.8, 260.51 144.31 M205.54 219.75 C219.81 205.26, 233.17 188.54, 260.65 156.35 M205.54 219.75 C220.25 204.18, 235 187.06, 260.65 156.35 M216.17 219.71 C230.72 204.27, 243.09 188.67, 260.78 168.39 M216.17 219.71 C231.72 202.61, 248.09 184.19, 260.78 168.39 M228.11 218.17 C239.94 206.17, 248.98 191.88, 257.63 184.21 M228.11 218.17 C240.13 206.36, 251.48 193.31, 257.63 184.21 M241.36 215.11 C246.57 210.01, 250.35 207.12, 255.8 198.51 M241.36 215.11 C245.61 209.94, 249.97 204.68, 255.8 198.51" stroke="#868e96" stroke-width="1" fill="none"></path><path d="M32 0 M32 0 C102.08 0.54, 173.79 1.09, 225.5 0 M32 0 C82.92 -1.34, 134.63 -2.8, 225.5 0 M225.5 0 C247.08 1.74, 258.54 10.97, 257.5 32 M225.5 0 C246.24 -2.26, 259.26 10.52, 257.5 32 M257.5 32 C259.05 80.07, 256.41 126.55, 257.5 184 M257.5 32 C257.5 79.99, 258.57 128.33, 257.5 184 M257.5 184 C258.14 204.9, 246.06 216.44, 225.5 216 M257.5 184 C256.32 203.34, 247.82 217.95, 225.5 216 M225.5 216 C173.7 213.47, 117.11 215.03, 32 216 M225.5 216 C148.33 215.42, 70.87 216.75, 32 216 M32 216 C11.64 215.22, -0.09 206.59, 0 184 M32 216 C8.98 217.48, 0.4 205.49, 0 184 M0 184 C-0.33 129.89, -0.37 77.6, 0 32 M0 184 C0.31 146.69, 0.2 108.34, 0 32 M0 32 C0.77 11.3, 10.97 1.79, 32 0 M0 32 C-0.52 9.16, 10.74 1.01, 32 0" stroke="#343a40" stroke-width="2" fill="none"></path></g><g stroke-linecap="round" transform="translate(66.125 126.75000000000011) rotate(0 79.5 34)"><path d="M15.22 -0.06 L140.95 -1.98 L149.42 -0.09 L152.94 2.82 L160.28 14.96 L159.58 60.33 L150.54 64.6 L141.46 68.92 L15.92 66.02 L9.13 65.72 L2.8 65.06 L-0.13 55.87 L1.87 14.41 L1.4 5.53 L5.02 3.44 L15.91 -1.31" stroke="none" stroke-width="0" fill="#868e96"></path><path d="M17 0 M17 0 C60.58 0.05, 104.68 2.76, 142 0 M17 0 C45.26 1.51, 74.74 1.48, 142 0 M142 0 C153.46 0.7, 157.43 5.18, 159 17 M142 0 C154.77 0.9, 158.39 6.69, 159 17 M159 17 C159.5 26.37, 159.22 34.57, 159 51 M159 17 C160.1 23.76, 158.64 32.86, 159 51 M159 51 C157.33 63.83, 153.99 66.96, 142 68 M159 51 C160.46 61.4, 152.49 67.55, 142 68 M142 68 C93.35 69.6, 43.72 69.71, 17 68 M142 68 C100.76 69.21, 61.66 69.34, 17 68 M17 68 C4.58 66.26, -0.55 62.2, 0 51 M17 68 C6.58 69.81, -1.46 63.88, 0 51 M0 51 C1.25 44.25, 1.89 34.26, 0 17 M0 51 C0.73 39.53, -0.02 29.07, 0 17 M0 17 C0.91 6.51, 7.11 -0.23, 17 0 M0 17 C-0.55 5.25, 5.82 -1.78, 17 0" stroke="#343a40" stroke-width="2" fill="none"></path></g><g stroke-linecap="round" transform="translate(54.75 220.2499999999999) rotate(0 94.1875 34)"><path d="M15.02 -0.01 L170.23 -1.81 L177.38 2.61 L186.07 5.89 L190.01 11.19 L186.3 57.9 L182.65 64.52 L169.39 67.56 L15.78 66.55 L10.88 66.55 L5.14 65.36 L1.66 53.99 L-0.85 11.4 L3.44 5.56 L5.33 3.29 L18.29 -1.75" stroke="none" stroke-width="0" fill="#868e96"></path><path d="M17 0 M17 0 C68.43 -2.53, 116.62 -2.16, 171.37 0 M17 0 C60.76 -1.14, 103.26 -1.99, 171.37 0 M171.37 0 C182.22 1.25, 189.16 5.14, 188.37 17 M171.37 0 C183.73 -1.62, 189.91 4.77, 188.37 17 M188.37 17 C190.61 26.1, 189.98 39, 188.37 51 M188.37 17 C188.87 29.32, 188.86 43.64, 188.37 51 M188.37 51 C187.33 63.6, 181.9 67.27, 171.37 68 M188.37 51 C187.93 64.46, 184.18 68.94, 171.37 68 M171.37 68 C123.27 68.28, 74.55 68.83, 17 68 M171.37 68 C140.44 67.83, 107.21 68.1, 17 68 M17 68 C5.54 68.79, 1.57 61.06, 0 51 M17 68 C7.21 66.46, -0.83 62.45, 0 51 M0 51 C-1.09 39.63, -1.45 28.49, 0 17 M0 51 C1 39.5, 0.43 27.81, 0 17 M0 17 C-0.23 5.18, 5.3 0.14, 17 0 M0 17 C-1.78 4.98, 4.37 1.18, 17 0" stroke="#343a40" stroke-width="2" fill="none"></path></g><g transform="translate(325.155056423611 18.444444444444457) rotate(0 127.20605468750006 22.5)"><text x="0" y="0" font-family="Virgil, Segoe UI Emoji" font-size="36px" fill="#1971c2" text-anchor="start" style="white-space: pre;" direction="ltr" dominant-baseline="text-before-edge">Ockam Routing</text></g><g transform="translate(678.1950759887684 323.7499999999999) rotate(0 75.42992401123047 12.5)"><text x="75.42992401123047" y="0" font-family="Virgil, Segoe UI Emoji" font-size="20px" fill="#000000" text-anchor="middle" style="white-space: pre;" direction="ltr" dominant-baseline="text-before-edge">node_responder</text></g><g transform="translate(398.0506117078993 145.19444444444446) rotate(0 57.62994384765625 12.5)"><text x="57.62994384765625" y="0" font-family="Virgil, Segoe UI Emoji" font-size="20px" fill="#000000" text-anchor="middle" style="white-space: pre;" direction="ltr" dominant-baseline="text-before-edge">node_middle</text></g><g transform="translate(83.44507598876953 65.75) rotate(0 68.67992401123047 12.5)"><text x="68.67992401123047" y="0" font-family="Virgil, Segoe UI Emoji" font-size="20px" fill="#000000" text-anchor="middle" style="white-space: pre;" direction="ltr" dominant-baseline="text-before-edge">node_initiator</text></g><g transform="translate(78.28507995605469 147.7499999999999) rotate(0 67.83992004394531 12.5)"><text x="67.83992004394531" y="0" font-family="Virgil, Segoe UI Emoji" font-size="20px" fill="#000000" text-anchor="middle" style="white-space: pre;" direction="ltr" dominant-baseline="text-before-edge">Address: 'app'</text></g><g transform="translate(684.0750885009754 495.24999999999943) rotate(0 82.04991149902344 12.5)"><text x="82.04991149902344" y="0" font-family="Virgil, Segoe UI Emoji" font-size="20px" fill="#000000" text-anchor="middle" style="white-space: pre;" direction="ltr" dominant-baseline="text-before-edge">Address: 'echoer'</text></g><g transform="translate(351.65067884657117 302.5694444444441) rotate(0 116.27987670898432 25)"><text x="116.27987670898438" y="0" font-family="Virgil, Segoe UI Emoji" font-size="20px" fill="#000000" text-anchor="middle" style="white-space: pre;" direction="ltr" dominant-baseline="text-before-edge">Address: </text><text x="116.27987670898438" y="25" font-family="Virgil, Segoe UI Emoji" font-size="20px" fill="#000000" text-anchor="middle" style="white-space: pre;" direction="ltr" dominant-baseline="text-before-edge">'forward_to_responder'</text></g><g transform="translate(681.3950881957996 393.24999999999943) rotate(0 78.22991180419922 25)"><text x="78.22991180419922" y="0" font-family="Virgil, Segoe UI Emoji" font-size="20px" fill="#000000" text-anchor="middle" style="white-space: pre;" direction="ltr" dominant-baseline="text-before-edge">TCP transport </text><text x="78.22991180419922" y="25" font-family="Virgil, Segoe UI Emoji" font-size="20px" fill="#000000" text-anchor="middle" style="white-space: pre;" direction="ltr" dominant-baseline="text-before-edge">listening 4000</text></g><g transform="translate(391.4506437513563 214.19444444444434) rotate(0 78.22991180419916 25)"><text x="78.22991180419922" y="0" font-family="Virgil, Segoe UI Emoji" font-size="20px" fill="#000000" text-anchor="middle" style="white-space: pre;" direction="ltr" dominant-baseline="text-before-edge">TCP transport </text><text x="78.22991180419922" y="25" font-family="Virgil, Segoe UI Emoji" font-size="20px" fill="#000000" text-anchor="middle" style="white-space: pre;" direction="ltr" dominant-baseline="text-before-edge">listening 3000</text></g><g transform="translate(65.94507598876953 229.24999999999977) rotate(0 84.67992401123047 25)"><text x="84.67992401123047" y="0" font-family="Virgil, Segoe UI Emoji" font-size="20px" fill="#000000" text-anchor="middle" style="white-space: pre;" direction="ltr" dominant-baseline="text-before-edge">TCP transport</text><text x="84.67992401123047" y="25" font-family="Virgil, Segoe UI Emoji" font-size="20px" fill="#000000" text-anchor="middle" style="white-space: pre;" direction="ltr" dominant-baseline="text-before-edge">connect to 3000</text></g><g transform="translate(376.9106275770399 398.69444444444446) rotate(0 84.26992797851562 25)"><text x="84.26992797851562" y="0" font-family="Virgil, Segoe UI Emoji" font-size="20px" fill="#000000" text-anchor="middle" style="white-space: pre;" direction="ltr" dominant-baseline="text-before-edge">TCP transport</text><text x="84.26992797851562" y="25" font-family="Virgil, Segoe UI Emoji" font-size="20px" fill="#000000" text-anchor="middle" style="white-space: pre;" direction="ltr" dominant-baseline="text-before-edge">connect to 4000</text></g><g stroke-linecap="round"><g transform="translate(111.51911509987781 197.2499999999999) rotate(0 -0.5313112202847492 8.6521359771491)"><path d="M-1.09 -0.86 C-1.28 2.28, -1.15 15, -1.15 18.16 M0.55 1.3 C0.28 4.2, -1.29 14.14, -1.61 16.65" stroke="#343a40" stroke-width="2" fill="none"></path></g><g transform="translate(111.51911509987781 197.2499999999999) rotate(0 -0.5313112202847492 8.6521359771491)"><path d="M-3.98 8.94 C-2.06 11.5, -1.55 12.53, -2.04 16.42 M-3.46 8.01 C-3.12 11.47, -2.28 14.28, -1.26 16.95" stroke="#343a40" stroke-width="2" fill="none"></path></g><g transform="translate(111.51911509987781 197.2499999999999) rotate(0 -0.5313112202847492 8.6521359771491)"><path d="M1.81 9.76 C2.01 12.03, 0.78 12.81, -2.04 16.42 M2.33 8.84 C0.68 11.95, -0.49 14.47, -1.26 16.95" stroke="#343a40" stroke-width="2" fill="none"></path></g></g><mask></mask><g stroke-linecap="round"><g transform="translate(715.8110755592138 452.74999999999943) rotate(0 0.015115751233111041 10.176338233049023)"><path d="M-0.86 0.93 C-0.8 4.44, -0.42 17.15, -0.34 19.98 M0.89 0.37 C0.95 3.66, -0.44 15.33, -0.67 18.38" stroke="#343a40" stroke-width="2" fill="none"></path></g><g transform="translate(715.8110755592138 452.74999999999943) rotate(0 0.015115751233111041 10.176338233049023)"><path d="M-2.3 10.07 C-1.77 12.31, -2.84 13.16, -0.93 18.81 M-3.33 8.8 C-2.24 11.33, -1.76 14.07, -0.34 18.14" stroke="#343a40" stroke-width="2" fill="none"></path></g><g transform="translate(715.8110755592138 452.74999999999943) rotate(0 0.015115751233111041 10.176338233049023)"><path d="M4.18 10.71 C3.15 12.74, 0.5 13.44, -0.93 18.81 M3.16 9.44 C2.66 11.8, 1.55 14.38, -0.34 18.14" stroke="#343a40" stroke-width="2" fill="none"></path></g></g><mask></mask><g stroke-linecap="round"><g transform="translate(409.0649945491582 273.694444444444) rotate(0 0.30934874424690406 9.818526846161262)"><path d="M-0.61 -0.22 C-0.48 3.02, -0.03 16.25, 0.31 19.96 M1.27 -1.38 C1.28 1.94, -0.65 17.4, -0.66 21.02" stroke="#343a40" stroke-width="2" fill="none"></path></g><g transform="translate(409.0649945491582 273.694444444444) rotate(0 0.30934874424690406 9.818526846161262)"><path d="M-3.7 10.95 C-3.51 14.6, -0.94 16.8, 0.27 20.39 M-3.34 11.2 C-2.29 14.18, -1.83 17.3, -1.13 21.17" stroke="#343a40" stroke-width="2" fill="none"></path></g><g transform="translate(409.0649945491582 273.694444444444) rotate(0 0.30934874424690406 9.818526846161262)"><path d="M3.42 11.46 C1.73 14.94, 2.42 17.01, 0.27 20.39 M3.78 11.71 C2.6 14.6, 0.83 17.56, -1.13 21.17" stroke="#343a40" stroke-width="2" fill="none"></path></g></g><mask></mask><g stroke-linecap="round"><g transform="translate(833.3609081594211 458.3773961447456) rotate(0 0.5545481929791549 0.3759886080616752)"><path d="M0.93 1.16 C1.25 1.47, 1.22 1.28, 0.87 0.96 M-0.05 0.73 C0.3 0.8, 0.24 -0.48, 0.44 -0.57" stroke="#343a40" stroke-width="2" fill="none"></path></g><g transform="translate(833.3609081594211 458.3773961447456) rotate(0 0.5545481929791549 0.3759886080616752)"><path d="M0.45 -0.45 C0.45 -0.49, 0.43 -0.51, 0.44 -0.57 M0.43 -0.46 C0.44 -0.48, 0.44 -0.5, 0.43 -0.57" stroke="#343a40" stroke-width="2" fill="none"></path></g><g transform="translate(833.3609081594211 458.3773961447456) rotate(0 0.5545481929791549 0.3759886080616752)"><path d="M0.38 -0.48 C0.39 -0.51, 0.39 -0.52, 0.44 -0.57 M0.36 -0.48 C0.38 -0.5, 0.4 -0.51, 0.43 -0.57" stroke="#343a40" stroke-width="2" fill="none"></path></g></g><mask></mask><g stroke-linecap="round"><g transform="translate(493.27561768421776 292.69444444444423) rotate(0 -0.2585249464103754 -9.488357460056363)"><path d="M-0.22 -0.03 C-0.47 -2.83, -1.18 -14.42, -0.95 -17.4 M-1.8 -1.1 C-1.71 -4.15, 0.81 -15.8, 1.28 -18.94" stroke="#343a40" stroke-width="2" fill="none"></path></g><g transform="translate(493.27561768421776 292.69444444444423) rotate(0 -0.2585249464103754 -9.488357460056363)"><path d="M2.8 -10.53 C3.19 -12.05, 2.26 -15.26, 0.72 -18.82 M3.02 -9.46 C2.48 -11.8, 2.12 -14.16, 1.42 -19.19" stroke="#343a40" stroke-width="2" fill="none"></path></g><g transform="translate(493.27561768421776 292.69444444444423) rotate(0 -0.2585249464103754 -9.488357460056363)"><path d="M-3.43 -11.67 C-0.9 -12.79, 0.31 -15.61, 0.72 -18.82 M-3.2 -10.6 C-2.4 -12.71, -1.41 -14.83, 1.42 -19.19" stroke="#343a40" stroke-width="2" fill="none"></path></g></g><mask></mask><g stroke-linecap="round"><g transform="translate(195.40862980440738 219.2499999999999) rotate(0 -0.09714855636445918 -11.55495918691156)"><path d="M1.16 0.98 C1.14 -3.19, -0.36 -20.04, -1.01 -24.09 M0.32 0.46 C0.31 -3.69, -0.67 -19.36, -1.36 -23.13" stroke="#343a40" stroke-width="2" fill="none"></path></g><g transform="translate(195.40862980440738 219.2499999999999) rotate(0 -0.09714855636445918 -11.55495918691156)"><path d="M4.72 -11.69 C1.47 -15.68, 1.04 -16.93, -1.99 -24.28 M4.15 -12.9 C2.66 -15.23, 1.38 -18.87, -1.68 -23.6" stroke="#343a40" stroke-width="2" fill="none"></path></g><g transform="translate(195.40862980440738 219.2499999999999) rotate(0 -0.09714855636445918 -11.55495918691156)"><path d="M-3.14 -10.81 C-4.6 -15.08, -3.24 -16.53, -1.99 -24.28 M-3.7 -12.02 C-3 -14.55, -2.1 -18.42, -1.68 -23.6" stroke="#343a40" stroke-width="2" fill="none"></path></g></g><mask></mask><g stroke-linecap="round"><g transform="translate(245.875 238.63598130783214) rotate(0 61.89573429171878 -1.000224003551466)"><path d="M0.62 0.07 C21.23 -0.38, 103.83 -1.64, 124.3 -2.07 M-0.51 -0.94 C19.89 -1.22, 102.3 -0.38, 123.37 -0.45" stroke="#343a40" stroke-width="2" fill="none"></path></g><g transform="translate(245.875 238.63598130783214) rotate(0 61.89573429171878 -1.000224003551466)"><path d="M95.26 9.76 C105.32 4.64, 114.55 3.45, 123.96 -1.9 M95.55 10.22 C102.2 7.83, 109.81 4.5, 124.18 0.47" stroke="#343a40" stroke-width="2" fill="none"></path></g><g transform="translate(245.875 238.63598130783214) rotate(0 61.89573429171878 -1.000224003551466)"><path d="M95.34 -10.76 C105.48 -8.63, 114.68 -2.58, 123.96 -1.9 M95.63 -10.3 C102.37 -7.31, 109.96 -5.27, 124.18 0.47" stroke="#343a40" stroke-width="2" fill="none"></path></g></g><mask></mask><g stroke-linecap="round"><g transform="translate(366.8611111111114 260.55443576419646) rotate(0 -59.14852142953947 0.610475024145785)"><path d="M-0.86 0.51 C-20.71 0.39, -99.13 -0.19, -118.83 -0.16 M0.89 -0.26 C-19.04 -0.22, -99.15 1.62, -119.18 1.47" stroke="#343a40" stroke-width="2" fill="none"></path></g><g transform="translate(366.8611111111114 260.55443576419646) rotate(0 -59.14852142953947 0.610475024145785)"><path d="M-90.24 -7.18 C-99.75 -4.37, -107.33 -3.78, -118.08 2.87 M-91.79 -8.5 C-99.7 -6.44, -107.12 -3.7, -118.37 1.07" stroke="#343a40" stroke-width="2" fill="none"></path></g><g transform="translate(366.8611111111114 260.55443576419646) rotate(0 -59.14852142953947 0.610475024145785)"><path d="M-90.04 13.34 C-99.71 9.57, -107.37 3.58, -118.08 2.87 M-91.59 12.02 C-99.61 8.34, -107.08 5.34, -118.37 1.07" stroke="#343a40" stroke-width="2" fill="none"></path></g></g><mask></mask><g stroke-linecap="round"><g transform="translate(409.70037396448106 363.569444444444) rotate(0 -0.23045463305101066 10.323796565900466)"><path d="M0.76 -0.7 C0.77 2.7, 0.08 16.68, -0.1 20.09 M-0.3 1.54 C-0.47 5.13, -1.04 18.17, -1.22 21.35" stroke="#343a40" stroke-width="2" fill="none"></path></g><g transform="translate(409.70037396448106 363.569444444444) rotate(0 -0.23045463305101066 10.323796565900466)"><path d="M-4.87 11.21 C-3.87 13.83, -3.27 17.12, -1.14 22.17 M-4.78 11.9 C-3.99 13.83, -3 15.96, -0.73 21.04" stroke="#343a40" stroke-width="2" fill="none"></path></g><g transform="translate(409.70037396448106 363.569444444444) rotate(0 -0.23045463305101066 10.323796565900466)"><path d="M2.18 11.56 C1.15 14.12, -0.27 17.31, -1.14 22.17 M2.27 12.25 C1.34 14.14, 0.62 16.19, -0.73 21.04" stroke="#343a40" stroke-width="2" fill="none"></path></g></g><mask></mask><g stroke-linecap="round"><g transform="translate(496.0878726349464 386.31944444444446) rotate(0 0.06187297985019313 -10.709178319573311)"><path d="M-1.03 -0.1 C-0.64 -3.81, 0.53 -17.78, 1.16 -21.32 M0.62 -1.19 C0.92 -4.84, -0.36 -16.95, -0.03 -20.15" stroke="#343a40" stroke-width="2" fill="none"></path></g><g transform="translate(496.0878726349464 386.31944444444446) rotate(0 0.06187297985019313 -10.709178319573311)"><path d="M3.53 -10.87 C2.2 -11.46, 1.45 -13.41, 0.53 -19.13 M3.55 -10.85 C2.29 -12.88, 1.06 -15.74, -0.15 -20.28" stroke="#343a40" stroke-width="2" fill="none"></path></g><g transform="translate(496.0878726349464 386.31944444444446) rotate(0 0.06187297985019313 -10.709178319573311)"><path d="M-3.55 -10.79 C-3.45 -11.34, -2.79 -13.3, 0.53 -19.13 M-3.52 -10.77 C-2.75 -12.86, -1.94 -15.74, -0.15 -20.28" stroke="#343a40" stroke-width="2" fill="none"></path></g></g><mask></mask><g stroke-linecap="round"><g transform="translate(560.1805555555545 412.17828816255053) rotate(0 51.87592522997477 0.2764554991526893)"><path d="M0.3 -0.82 C17.82 -0.69, 87.62 1.11, 104.76 1.29 M-1 1.37 C16.44 1.14, 86.34 -0.35, 104.08 -0.31" stroke="#343a40" stroke-width="2" fill="none"></path></g><g transform="translate(560.1805555555545 412.17828816255053) rotate(0 51.87592522997477 0.2764554991526893)"><path d="M74.65 11.13 C85.14 5.51, 90.98 4.14, 105.88 -1.65 M76.3 10.5 C86.58 6.48, 95.94 2.2, 104.45 -0.42" stroke="#343a40" stroke-width="2" fill="none"></path></g><g transform="translate(560.1805555555545 412.17828816255053) rotate(0 51.87592522997477 0.2764554991526893)"><path d="M74.42 -9.39 C85.06 -9.51, 90.96 -5.37, 105.88 -1.65 M76.07 -10.02 C86.36 -6.8, 95.8 -3.84, 104.45 -0.42" stroke="#343a40" stroke-width="2" fill="none"></path></g></g><mask></mask><g stroke-linecap="round"><g transform="translate(667.1388888888878 432.0307960001527) rotate(0 -55.51595165977403 0.3045007042527459)"><path d="M-0.07 0.74 C-18.18 0.79, -91.71 -0.09, -109.82 -0.34 M-1.57 0.08 C-19.77 0.35, -93.03 0.94, -110.96 0.95" stroke="#343a40" stroke-width="2" fill="none"></path></g><g transform="translate(667.1388888888878 432.0307960001527) rotate(0 -55.51595165977403 0.3045007042527459)"><path d="M-81.59 -10.06 C-89.42 -6.15, -95.83 -6.75, -110.94 2.46 M-83.52 -10.24 C-90.53 -7.46, -97.43 -2.95, -110.9 0.23" stroke="#343a40" stroke-width="2" fill="none"></path></g><g transform="translate(667.1388888888878 432.0307960001527) rotate(0 -55.51595165977403 0.3045007042527459)"><path d="M-81.49 10.46 C-89.23 10.18, -95.66 5.39, -110.94 2.46 M-83.41 10.28 C-90.27 7.76, -97.2 6.98, -110.9 0.23" stroke="#343a40" stroke-width="2" fill="none"></path></g></g><mask></mask></svg>