<svg width="223" height="65" viewBox="0 0 223 65" fill="none" xmlns="http://www.w3.org/2000/svg">
<path d="M119.406 34.8435C121.014 33.273 123.179 32.398 125.411 32.4205C127.331 32.3756 129.206 33.0038 130.724 34.2153L131.015 34.4621L133.47 31.523L133.18 31.2987C132.108 30.4237 130.903 29.7506 129.608 29.3019C128.269 28.8308 126.84 28.584 125.411 28.584C123.759 28.584 122.107 28.8981 120.589 29.5487C119.138 30.1769 117.799 31.0519 116.661 32.1737C114.361 34.4621 113.066 37.6031 113.066 40.8786C113.066 42.5164 113.379 44.1318 114.026 45.635C114.651 47.0933 115.544 48.3945 116.661 49.4939C117.799 50.5932 119.116 51.4906 120.567 52.0964C122.085 52.747 123.737 53.0835 125.389 53.0611C126.818 53.0611 128.224 52.8368 129.564 52.3432C130.858 51.8945 132.041 51.199 133.091 50.3464L133.381 50.0996L130.97 47.183L130.68 47.4074C129.206 48.5964 127.42 49.2022 125.367 49.2022C124.228 49.2022 123.09 49.0003 122.04 48.5516C120.031 47.7215 118.424 46.1061 117.576 44.0869C117.129 43.0549 116.928 41.9555 116.928 40.8338C116.928 39.6896 117.129 38.5453 117.576 37.4909C118.045 36.5037 118.647 35.6063 119.406 34.8435Z" fill="#242A31"/>
<path d="M151.149 35.0455C152.443 33.7667 153.827 32.4654 155.234 31.1642L155.524 30.8949L153.113 28.4046L152.845 28.6738C150.725 30.693 148.693 32.6 146.729 34.4397C144.965 36.0775 143.157 37.7826 141.259 39.555V10.7927H137.375V52.6349H141.259V44.3338L144.496 41.3274L152.801 52.6349H157.377L147.287 38.7025C148.626 37.4685 149.921 36.2346 151.149 35.0455Z" fill="#242A31"/>
<path d="M177.536 32.8467C177.357 32.5999 177.179 32.3531 176.956 32.1064C176.375 31.4109 175.683 30.8275 174.924 30.334C174.076 29.7731 173.161 29.3468 172.201 29.0551C171.129 28.741 170.035 28.584 168.919 28.584C167.289 28.584 165.682 28.8981 164.186 29.5487C162.735 30.1769 161.418 31.0968 160.302 32.2185C159.186 33.3627 158.293 34.7089 157.668 36.1672C157.021 37.6704 156.686 39.3082 156.708 40.9459C156.708 42.5613 157.021 44.1318 157.646 45.6125C158.248 47.0484 159.119 48.3497 160.191 49.449C161.284 50.5708 162.602 51.4458 164.053 52.0739C165.593 52.7246 167.245 53.0611 168.919 53.0387C170.035 53.0387 171.174 52.9041 172.245 52.59C173.205 52.3207 174.12 51.9169 174.969 51.3784C175.728 50.9073 176.397 50.3464 177 49.6958C177.156 49.5163 177.313 49.3144 177.469 49.1349C177.469 49.3817 177.469 49.6285 177.469 49.8753V52.59H181.353V29.1H177.692L177.536 32.8467ZM175.036 34.8659C175.795 35.6287 176.397 36.5486 176.822 37.5357C177.246 38.5678 177.469 39.6671 177.469 40.7889C177.491 41.9331 177.268 43.0549 176.822 44.1093C175.973 46.1285 174.366 47.7439 172.357 48.574C170.214 49.4266 167.825 49.4266 165.704 48.574C161.441 46.7343 159.454 41.7761 161.24 37.4909C161.664 36.5037 162.267 35.6063 163.026 34.8659C165.526 32.4878 169.187 31.7923 172.357 33.0935C173.361 33.4974 174.254 34.1031 175.036 34.8659Z" fill="#242A31"/>
<path d="M220.756 30.5583C219.394 29.257 217.496 28.584 215.13 28.584C212.831 28.6289 210.889 29.2122 209.326 30.3564C208.053 31.2987 206.982 32.5102 206.201 33.9012C205.843 32.5326 205.084 31.2762 204.013 30.3564C202.674 29.1897 200.865 28.584 198.655 28.584C196.311 28.6289 194.324 29.257 192.739 30.4461C191.534 31.366 190.529 32.5102 189.77 33.8115C189.748 33.4076 189.726 32.9589 189.703 32.5102C189.659 31.9269 189.637 31.366 189.614 30.8275C189.592 30.2891 189.57 29.8179 189.525 29.459L189.48 29.1224H186.109V52.6348H189.994V40.1831C189.994 39.1287 190.195 38.0742 190.596 37.087C190.976 36.1672 191.534 35.3371 192.271 34.664C193.007 33.9685 193.856 33.4301 194.793 33.0711C195.798 32.6897 196.869 32.4878 197.941 32.5102C199.459 32.5775 200.597 33.0486 201.356 33.8563C202.115 34.6864 202.562 35.7633 202.607 36.8851V52.6348H206.491V40.0261C206.513 38.9941 206.736 37.962 207.138 37.0197C207.518 36.1223 208.076 35.3146 208.768 34.6416C209.482 33.9685 210.331 33.4301 211.246 33.0711C212.228 32.6897 213.277 32.4878 214.349 32.5102C215.889 32.5775 217.072 33.0486 217.809 33.8563C218.568 34.6864 219.014 35.7633 219.059 36.9076V52.6573H222.943V35.8082C222.854 33.632 222.117 31.882 220.756 30.5583Z" fill="#242A31"/>
<path d="M90.2515 14.6965C99.7167 14.6965 107.396 22.4143 107.396 31.927C107.396 41.4396 99.7167 49.1574 90.2515 49.1574C80.7863 49.1574 73.107 41.4396 73.107 31.927C73.1293 22.4143 80.7863 14.7189 90.2515 14.6965ZM90.2515 10.7927C78.6432 10.7927 69.2227 20.2605 69.2227 31.927C69.2227 43.5934 78.6432 53.0612 90.2515 53.0612C101.86 53.0612 111.28 43.5934 111.28 31.927C111.28 20.2605 101.86 10.7927 90.2515 10.7927Z" fill="#242A31"/>
<path d="M16.8316 10.171C17.5714 10.171 18.171 9.56835 18.171 8.8249C18.171 8.08145 17.5714 7.47876 16.8316 7.47876C16.0919 7.47876 15.4922 8.08145 15.4922 8.8249C15.4922 9.56835 16.0919 10.171 16.8316 10.171Z" fill="#242A31"/>
<path d="M16.8551 25.6293C17.5948 25.6293 18.1945 25.0266 18.1945 24.2832C18.1945 23.5397 17.5948 22.937 16.8551 22.937C16.1153 22.937 15.5156 23.5397 15.5156 24.2832C15.5156 25.0266 16.1153 25.6293 16.8551 25.6293Z" fill="#242A31"/>
<path d="M43.4879 56.568C44.2276 56.568 44.8273 55.9653 44.8273 55.2219C44.8273 54.4784 44.2276 53.8757 43.4879 53.8757C42.7481 53.8757 42.1484 54.4784 42.1484 55.2219C42.1484 55.9653 42.7481 56.568 43.4879 56.568Z" fill="#242A31"/>
<path d="M3.52693 33.3695C4.26667 33.3695 4.86636 32.7668 4.86636 32.0234C4.86636 31.2799 4.26667 30.6772 3.52693 30.6772C2.78718 30.6772 2.1875 31.2799 2.1875 32.0234C2.1875 32.7668 2.78718 33.3695 3.52693 33.3695Z" fill="#242A31"/>
<path d="M56.816 33.3695C57.5557 33.3695 58.1554 32.7668 58.1554 32.0234C58.1554 31.2799 57.5557 30.6772 56.816 30.6772C56.0762 30.6772 55.4766 31.2799 55.4766 32.0234C55.4766 32.7668 56.0762 33.3695 56.816 33.3695Z" fill="#242A31"/>
<path d="M43.4879 10.171C44.2276 10.171 44.8273 9.56835 44.8273 8.8249C44.8273 8.08145 44.2276 7.47876 43.4879 7.47876C42.7481 7.47876 42.1484 8.08145 42.1484 8.8249C42.1484 9.56835 42.7481 10.171 43.4879 10.171Z" fill="#242A31"/>
<path d="M43.4879 41.11C44.2276 41.11 44.8273 40.5073 44.8273 39.7639C44.8273 39.0204 44.2276 38.4177 43.4879 38.4177C42.7481 38.4177 42.1484 39.0204 42.1484 39.7639C42.1484 40.5073 42.7481 41.11 43.4879 41.11Z" fill="#242A31"/>
<path d="M16.8551 41.0875C17.5948 41.0875 18.1945 40.4849 18.1945 39.7414C18.1945 38.9979 17.5948 38.3953 16.8551 38.3953C16.1153 38.3953 15.5156 38.9979 15.5156 39.7414C15.5156 40.4849 16.1153 41.0875 16.8551 41.0875Z" fill="#242A31"/>
<path d="M43.4879 25.6518C44.2276 25.6518 44.8273 25.0491 44.8273 24.3056C44.8273 23.5622 44.2276 22.9595 43.4879 22.9595C42.7481 22.9595 42.1484 23.5622 42.1484 24.3056C42.1484 25.0491 42.7481 25.6518 43.4879 25.6518Z" fill="#242A31"/>
<path d="M30.1597 48.8278C30.8995 48.8278 31.4992 48.2251 31.4992 47.4816C31.4992 46.7382 30.8995 46.1355 30.1597 46.1355C29.42 46.1355 28.8203 46.7382 28.8203 47.4816C28.8203 48.2251 29.42 48.8278 30.1597 48.8278Z" fill="#242A31"/>
<path d="M30.1832 17.9115C30.9229 17.9115 31.5226 17.3088 31.5226 16.5654C31.5226 15.8219 30.9229 15.2192 30.1832 15.2192C29.4434 15.2192 28.8438 15.8219 28.8438 16.5654C28.8438 17.3088 29.4434 17.9115 30.1832 17.9115Z" fill="#242A31"/>
<path d="M16.8316 56.568C17.5714 56.568 18.171 55.9653 18.171 55.2219C18.171 54.4784 17.5714 53.8757 16.8316 53.8757C16.0919 53.8757 15.4922 54.4784 15.4922 55.2219C15.4922 55.9653 16.0919 56.568 16.8316 56.568Z" fill="#242A31"/>
<path d="M19.0861 7.47879C24.042 1.33141 32.9938 0.366673 39.1329 5.3474C39.9142 5.97559 40.6286 6.69354 41.2537 7.47879C41.4769 7.09738 41.7894 6.76084 42.1913 6.53649C42.4591 6.37944 42.727 6.28969 43.0396 6.24482C37.3916 -0.889726 27.0557 -2.05638 19.9791 3.61985C19.0191 4.4051 18.1262 5.28009 17.3672 6.24482C18.0592 6.40187 18.7066 6.85059 19.0861 7.47879Z" fill="#242A31"/>
<path d="M32.417 15.2191C34.6048 12.482 37.7301 10.6647 41.1903 10.1038C40.8331 9.45317 40.7661 8.66792 41.034 7.97241C36.9488 8.57818 33.243 10.732 30.6758 14.0076C31.4125 14.1198 32.0375 14.5685 32.417 15.2191Z" fill="#242A31"/>
<path d="M23.9994 11.8314C25.5174 12.7063 26.8345 13.873 27.9284 15.2416C28.1516 14.8602 28.4642 14.5236 28.866 14.2993C29.1116 14.1647 29.3794 14.0525 29.6696 14.0076C27.1247 10.732 23.3967 8.55574 19.3114 7.97241C19.423 8.24164 19.4677 8.55574 19.4677 8.8474C19.4677 9.29612 19.3561 9.7224 19.1328 10.1038C20.8517 10.373 22.5037 10.9564 23.9994 11.8314Z" fill="#242A31"/>
<path d="M43.5117 21.6806C44.2707 21.6806 44.9851 22.0171 45.4762 22.6004C47.0166 18.7191 47.0166 14.4114 45.4985 10.53C45.2976 10.7544 45.0744 10.9563 44.8065 11.1134C44.427 11.3377 44.0028 11.4499 43.5564 11.4499C44.8288 14.7479 44.8065 18.3825 43.5117 21.6806Z" fill="#242A31"/>
<path d="M41.2537 22.9369C41.6332 22.2863 42.2806 21.86 43.0173 21.7254C40.4501 18.4722 36.7443 16.3184 32.6591 15.6902C32.9046 16.4081 32.8376 17.1934 32.4805 17.844C35.9183 18.4049 39.0437 20.2222 41.2537 22.9369Z" fill="#242A31"/>
<path d="M47.1943 10.3954C54.8291 12.4371 59.3385 20.312 57.307 27.9626C57.1731 28.4561 57.0168 28.9273 56.8382 29.3984C57.2847 29.3984 57.7312 29.5106 58.1107 29.735C58.3786 29.892 58.6018 30.0939 58.8027 30.3183C59.026 29.735 59.2269 29.1516 59.3831 28.5683C61.7271 19.7511 56.5257 10.6871 47.7524 8.3089C47.1497 8.15185 46.5693 8.01723 45.9442 7.92749C46.1898 8.64543 46.1228 9.43068 45.7656 10.0813C46.2567 10.1711 46.7255 10.2608 47.1943 10.3954Z" fill="#242A31"/>
<path d="M51.7261 25.4274C49.9402 24.3954 47.9757 23.6999 45.9442 23.4082C46.1898 24.1261 46.1451 24.9114 45.7656 25.562C49.2258 26.1005 52.3511 27.8953 54.5612 30.6325C54.9407 30.0043 55.5881 29.5556 56.3248 29.421C55.0523 27.828 53.4897 26.4595 51.7261 25.4274Z" fill="#242A31"/>
<path d="M46.0994 39.7639C46.0994 40.0555 46.0547 40.3472 45.9431 40.6388C50.0507 40.0555 53.7564 37.8793 56.3237 34.6261C55.587 34.5139 54.9396 34.0652 54.5601 33.4146C52.35 36.1517 49.2024 37.969 45.7422 38.5075C45.9877 38.8664 46.0994 39.3151 46.0994 39.7639Z" fill="#242A31"/>
<path d="M43.5312 37.1388C44.2903 37.1613 44.9823 37.4978 45.4734 38.0811C46.9914 34.1998 46.9914 29.8921 45.4734 26.0107C44.9823 26.5716 44.2903 26.9082 43.5536 26.9306C44.8037 30.2062 44.7814 33.8408 43.5312 37.1388Z" fill="#242A31"/>
<path d="M43.5547 52.5968C44.3137 52.6193 45.0057 52.9558 45.4969 53.5392C47.0372 49.6578 47.0149 45.3501 45.4969 41.4688C45.0057 42.0521 44.3137 42.3886 43.5547 42.4111C44.8048 45.6642 44.8048 49.2988 43.5547 52.5968Z" fill="#242A31"/>
<path d="M59.3804 35.4785C59.2241 34.8727 59.0232 34.2894 58.7999 33.7285C58.3088 34.3118 57.5944 34.6484 56.8578 34.6484C57.0364 35.0971 57.1926 35.5682 57.3266 36.0394C59.3803 43.7124 54.8486 51.6098 47.2139 53.6738C46.7451 53.786 46.2763 53.8982 45.7852 53.9655C46.1647 54.6161 46.2316 55.4238 45.9637 56.1193C46.5665 56.0296 47.1692 55.895 47.772 55.7379C56.5229 53.3597 61.7467 44.2957 59.3804 35.4785Z" fill="#242A31"/>
<path d="M32.6172 48.3566C36.7248 47.7508 40.4305 45.597 43.0201 42.3438C42.2834 42.2092 41.636 41.7605 41.2565 41.1323C39.0465 43.847 35.9211 45.6643 32.4609 46.2252C32.8181 46.8759 32.8628 47.6611 32.6172 48.3566Z" fill="#242A31"/>
<path d="M36.346 52.2156C34.828 51.3407 33.5109 50.174 32.417 48.8054C32.1938 49.1868 31.8813 49.5234 31.4794 49.7477C31.2339 49.8823 30.966 49.9945 30.6758 50.0394C33.2207 53.315 36.9264 55.4913 41.034 56.0746C40.7661 55.3791 40.8331 54.5938 41.2126 53.9432C39.4937 53.674 37.8417 53.0906 36.346 52.2156Z" fill="#242A31"/>
<path d="M23.9994 52.2157C22.5037 53.0907 20.8517 53.674 19.1328 53.9657C19.49 54.6163 19.5346 55.4015 19.2891 56.097C23.3967 55.4913 27.1024 53.315 29.6473 50.0394C28.9106 49.9048 28.2856 49.4561 27.9061 48.8279C26.8122 50.1965 25.4951 51.3407 23.9994 52.2157Z" fill="#242A31"/>
<path d="M41.2553 56.5681C36.2995 62.7155 27.3253 63.6802 21.2086 58.6995C20.4272 58.0713 19.7129 57.3534 19.0878 56.5681C18.8646 56.9495 18.552 57.2861 18.1502 57.5104C17.8823 57.6675 17.6144 57.7572 17.3242 57.8021C22.9721 64.9366 33.2857 66.1033 40.3847 60.4271C41.3446 59.6418 42.2376 58.7668 42.9966 57.8021C42.2822 57.6675 41.6348 57.2188 41.2553 56.5681Z" fill="#242A31"/>
<path d="M16.8112 42.3662C16.3647 42.3662 15.9182 42.254 15.5387 42.0296C15.2932 41.8726 15.0476 41.6931 14.869 41.4688C13.3287 45.3501 13.3287 49.6578 14.8467 53.5392C15.0253 53.3148 15.2708 53.1129 15.5164 52.9558C15.8959 52.7315 16.3424 52.6193 16.7665 52.6193C15.5164 49.2988 15.5164 45.6418 16.8112 42.3662Z" fill="#242A31"/>
<path d="M19.0878 41.1099C18.7083 41.7605 18.0609 42.1868 17.3242 42.3214C19.8915 45.5746 23.5972 47.7508 27.7048 48.379C27.4592 47.6611 27.5039 46.8758 27.8834 46.2252C24.4232 45.6419 21.2979 43.8246 19.0878 41.1099Z" fill="#242A31"/>
<path d="M1.51743 30.3183C2.00855 29.735 2.72292 29.4209 3.4596 29.3985C3.28101 28.9498 3.12474 28.4786 2.9908 28.0075C0.937011 20.3345 5.46874 12.4371 13.1035 10.3954C13.5723 10.2833 14.0411 10.1711 14.5322 10.1038C14.1527 9.45314 14.0857 8.64546 14.3536 7.94995C13.7509 8.03969 13.1481 8.17431 12.5677 8.33136C3.79446 10.6871 -1.40699 19.7736 0.937011 28.5908C1.1156 29.1741 1.29419 29.735 1.51743 30.3183Z" fill="#242A31"/>
<path d="M8.61824 38.6196C10.4041 39.6517 12.3686 40.3472 14.4001 40.6388C14.1545 39.9209 14.1992 39.1357 14.5564 38.485C11.0962 37.9466 7.97084 36.1293 5.76079 33.4146C5.38128 34.0428 4.73389 34.4915 4.01953 34.6261C5.26966 36.219 6.83233 37.5876 8.61824 38.6196Z" fill="#242A31"/>
<path d="M13.1274 53.6514C5.49264 51.5873 0.960911 43.7124 2.99238 36.0394C3.12632 35.5682 3.28259 35.0971 3.46118 34.6484C3.0147 34.6484 2.56823 34.5362 2.18872 34.3118C1.94316 34.1548 1.6976 33.9529 1.51901 33.7285C1.29577 34.2894 1.09485 34.8952 0.938588 35.4785C-1.40541 44.2957 3.77371 53.3373 12.547 55.7155C13.1497 55.8725 13.7525 56.0072 14.3552 56.0969C14.1096 55.379 14.1766 54.6161 14.5338 53.9655C14.0873 53.8758 13.5962 53.786 13.1274 53.6514Z" fill="#242A31"/>
<path d="M16.8112 21.6582C15.5387 18.3825 15.5387 14.748 16.7888 11.4724C16.0522 11.4499 15.3378 11.1134 14.8467 10.5525C13.3287 14.4339 13.3287 18.7415 14.869 22.6005C15.3378 22.0171 16.0522 21.6582 16.8112 21.6582Z" fill="#242A31"/>
<path d="M14.2438 24.2832C14.2438 23.9916 14.3108 23.6999 14.4001 23.4307C10.2925 24.0364 6.58677 26.1903 4.01953 29.4434C4.30974 29.4883 4.59995 29.6005 4.84551 29.7351C5.22502 29.9595 5.53755 30.2736 5.76079 30.655C7.97084 27.9178 11.1185 26.1005 14.601 25.5621C14.3555 25.1806 14.2438 24.7319 14.2438 24.2832Z" fill="#242A31"/>
<path d="M27.7282 15.668C23.643 16.2962 19.9372 18.45 17.3477 21.7032C18.0843 21.8378 18.7094 22.2865 19.0889 22.9371C21.299 20.2224 24.4243 18.4051 27.8845 17.8442C27.5273 17.1712 27.4603 16.3859 27.7282 15.668Z" fill="#242A31"/>
<path d="M16.7883 26.9081C16.0517 26.8857 15.3373 26.5491 14.8685 25.9658C13.3505 29.8472 13.3281 34.1548 14.8462 38.0362C15.3373 37.4753 16.0293 37.1164 16.766 37.1164C15.5382 33.8183 15.5382 30.1837 16.7883 26.9081Z" fill="#242A31"/>
</svg>
