<svg width="223" height="65" viewBox="0 0 223 65" fill="none" xmlns="http://www.w3.org/2000/svg">
<path d="M119.359 34.8435C120.967 33.273 123.132 32.398 125.364 32.4205C127.284 32.3756 129.16 33.0038 130.678 34.2153L130.968 34.4621L133.423 31.523L133.133 31.2987C132.062 30.4237 130.856 29.7506 129.561 29.3019C128.222 28.8308 126.793 28.584 125.364 28.584C123.713 28.584 122.061 28.8981 120.543 29.5487C119.092 30.1769 117.752 31.0519 116.614 32.1737C114.314 34.4621 113.02 37.6031 113.02 40.8786C113.02 42.5164 113.332 44.1318 113.979 45.635C114.605 47.0933 115.497 48.3945 116.614 49.4939C117.752 50.5932 119.069 51.4906 120.52 52.0964C122.038 52.747 123.69 53.0835 125.342 53.0611C126.771 53.0611 128.177 52.8368 129.517 52.3432C130.811 51.8945 131.995 51.199 133.044 50.3464L133.334 50.0996L130.923 47.183L130.633 47.4074C129.16 48.5964 127.374 49.2022 125.32 49.2022C124.181 49.2022 123.043 49.0003 121.994 48.5516C119.984 47.7215 118.377 46.1061 117.529 44.0869C117.082 43.0549 116.882 41.9555 116.882 40.8338C116.882 39.6896 117.082 38.5453 117.529 37.4909C117.998 36.5037 118.6 35.6063 119.359 34.8435Z" fill="white"/>
<path d="M151.102 35.0455C152.397 33.7667 153.781 32.4654 155.187 31.1641L155.477 30.8949L153.066 28.4046L152.798 28.6738C150.678 30.693 148.646 32.6 146.682 34.4397C144.918 36.0775 143.11 37.7826 141.212 39.555V10.7927H137.328V52.6349H141.212V44.3338L144.449 41.3274L152.754 52.6349H157.33L147.24 38.7025C148.579 37.4685 149.874 36.2346 151.102 35.0455Z" fill="white"/>
<path d="M177.489 32.8467C177.311 32.5999 177.132 32.3531 176.909 32.1064C176.328 31.4109 175.636 30.8275 174.877 30.334C174.029 29.7731 173.114 29.3468 172.154 29.0551C171.082 28.741 169.988 28.584 168.872 28.584C167.243 28.584 165.635 28.8981 164.14 29.5487C162.689 30.1769 161.371 31.0968 160.255 32.2185C159.139 33.3627 158.246 34.7089 157.621 36.1672C156.974 37.6704 156.639 39.3082 156.661 40.9459C156.661 42.5613 156.974 44.1318 157.599 45.6125C158.202 47.0484 159.072 48.3497 160.144 49.449C161.238 50.5708 162.555 51.4458 164.006 52.0739C165.546 52.7246 167.198 53.0611 168.872 53.0387C169.988 53.0387 171.127 52.9041 172.198 52.59C173.158 52.3207 174.074 51.9169 174.922 51.3784C175.681 50.9073 176.351 50.3464 176.953 49.6958C177.11 49.5163 177.266 49.3144 177.422 49.1349C177.422 49.3817 177.422 49.6285 177.422 49.8753V52.59H181.306V29.1H177.645L177.489 32.8467ZM174.989 34.8659C175.748 35.6287 176.351 36.5486 176.775 37.5357C177.199 38.5678 177.422 39.6671 177.422 40.7889C177.444 41.9331 177.221 43.0549 176.775 44.1093C175.926 46.1285 174.319 47.7439 172.31 48.574C170.167 49.4266 167.778 49.4266 165.658 48.574C161.394 46.7343 159.407 41.7761 161.193 37.4909C161.617 36.5037 162.22 35.6063 162.979 34.8659C165.479 32.4878 169.14 31.7923 172.31 33.0935C173.315 33.4974 174.208 34.1031 174.989 34.8659Z" fill="white"/>
<path d="M220.709 30.5583C219.347 29.257 217.45 28.584 215.083 28.584C212.784 28.6289 210.842 29.2122 209.279 30.3564C208.007 31.2987 206.935 32.5102 206.154 33.9012C205.797 32.5326 205.038 31.2762 203.966 30.3564C202.627 29.1897 200.818 28.584 198.608 28.584C196.264 28.6289 194.278 29.257 192.693 30.4461C191.487 31.366 190.483 32.5102 189.724 33.8115C189.701 33.4076 189.679 32.9589 189.657 32.5102C189.612 31.9269 189.59 31.366 189.567 30.8275C189.545 30.2891 189.523 29.8179 189.478 29.459L189.433 29.1224H186.062V52.6348H189.947V40.1831C189.947 39.1287 190.148 38.0742 190.55 37.087C190.929 36.1672 191.487 35.3371 192.224 34.664C192.96 33.9685 193.809 33.4301 194.746 33.0711C195.751 32.6897 196.822 32.4878 197.894 32.5102C199.412 32.5775 200.551 33.0486 201.31 33.8563C202.069 34.6864 202.515 35.7633 202.56 36.8851V52.6348H206.444V40.0261C206.466 38.9941 206.69 37.962 207.091 37.0197C207.471 36.1223 208.029 35.3146 208.721 34.6416C209.435 33.9685 210.284 33.4301 211.199 33.0711C212.181 32.6897 213.23 32.4878 214.302 32.5102C215.842 32.5775 217.025 33.0486 217.762 33.8563C218.521 34.6864 218.968 35.7633 219.012 36.9076V52.6573H222.896V35.8082C222.807 33.632 222.071 31.882 220.709 30.5583Z" fill="white"/>
<path d="M90.2046 14.6965C99.6698 14.6965 107.349 22.4143 107.349 31.927C107.349 41.4396 99.6698 49.1574 90.2046 49.1574C80.7394 49.1574 73.0601 41.4396 73.0601 31.927C73.0824 22.4143 80.7394 14.7189 90.2046 14.6965ZM90.2046 10.7927C78.5963 10.7927 69.1758 20.2605 69.1758 31.927C69.1758 43.5934 78.5963 53.0612 90.2046 53.0612C101.813 53.0612 111.233 43.5934 111.233 31.927C111.233 20.2605 101.813 10.7927 90.2046 10.7927Z" fill="white"/>
<path d="M16.7847 10.171C17.5245 10.171 18.1242 9.56835 18.1242 8.8249C18.1242 8.08145 17.5245 7.47876 16.7847 7.47876C16.045 7.47876 15.4453 8.08145 15.4453 8.8249C15.4453 9.56835 16.045 10.171 16.7847 10.171Z" fill="#EC432D"/>
<path d="M16.8082 25.6293C17.5479 25.6293 18.1476 25.0266 18.1476 24.2832C18.1476 23.5397 17.5479 22.937 16.8082 22.937C16.0684 22.937 15.4688 23.5397 15.4688 24.2832C15.4688 25.0266 16.0684 25.6293 16.8082 25.6293Z" fill="#EC432D"/>
<path d="M43.441 56.568C44.1807 56.568 44.7804 55.9653 44.7804 55.2219C44.7804 54.4784 44.1807 53.8757 43.441 53.8757C42.7012 53.8757 42.1016 54.4784 42.1016 55.2219C42.1016 55.9653 42.7012 56.568 43.441 56.568Z" fill="#EC432D"/>
<path d="M3.48005 33.3695C4.2198 33.3695 4.81948 32.7668 4.81948 32.0234C4.81948 31.2799 4.2198 30.6772 3.48005 30.6772C2.74031 30.6772 2.14062 31.2799 2.14062 32.0234C2.14062 32.7668 2.74031 33.3695 3.48005 33.3695Z" fill="#EC432D"/>
<path d="M56.7691 33.3695C57.5089 33.3695 58.1085 32.7668 58.1085 32.0234C58.1085 31.2799 57.5089 30.6772 56.7691 30.6772C56.0294 30.6772 55.4297 31.2799 55.4297 32.0234C55.4297 32.7668 56.0294 33.3695 56.7691 33.3695Z" fill="#EC432D"/>
<path d="M43.441 10.171C44.1807 10.171 44.7804 9.56835 44.7804 8.8249C44.7804 8.08145 44.1807 7.47876 43.441 7.47876C42.7012 7.47876 42.1016 8.08145 42.1016 8.8249C42.1016 9.56835 42.7012 10.171 43.441 10.171Z" fill="#EC432D"/>
<path d="M43.441 41.11C44.1807 41.11 44.7804 40.5073 44.7804 39.7639C44.7804 39.0204 44.1807 38.4177 43.441 38.4177C42.7012 38.4177 42.1016 39.0204 42.1016 39.7639C42.1016 40.5073 42.7012 41.11 43.441 41.11Z" fill="#EC432D"/>
<path d="M16.8082 41.0875C17.5479 41.0875 18.1476 40.4849 18.1476 39.7414C18.1476 38.9979 17.5479 38.3953 16.8082 38.3953C16.0684 38.3953 15.4688 38.9979 15.4688 39.7414C15.4688 40.4849 16.0684 41.0875 16.8082 41.0875Z" fill="#EC432D"/>
<path d="M43.441 25.6518C44.1807 25.6518 44.7804 25.0491 44.7804 24.3056C44.7804 23.5622 44.1807 22.9595 43.441 22.9595C42.7012 22.9595 42.1016 23.5622 42.1016 24.3056C42.1016 25.0491 42.7012 25.6518 43.441 25.6518Z" fill="#EC432D"/>
<path d="M30.1129 48.8278C30.8526 48.8278 31.4523 48.2251 31.4523 47.4816C31.4523 46.7382 30.8526 46.1355 30.1129 46.1355C29.3731 46.1355 28.7734 46.7382 28.7734 47.4816C28.7734 48.2251 29.3731 48.8278 30.1129 48.8278Z" fill="#EC432D"/>
<path d="M30.1363 17.9115C30.876 17.9115 31.4757 17.3088 31.4757 16.5654C31.4757 15.8219 30.876 15.2192 30.1363 15.2192C29.3966 15.2192 28.7969 15.8219 28.7969 16.5654C28.7969 17.3088 29.3966 17.9115 30.1363 17.9115Z" fill="#EC432D"/>
<path d="M16.7847 56.568C17.5245 56.568 18.1242 55.9653 18.1242 55.2219C18.1242 54.4784 17.5245 53.8757 16.7847 53.8757C16.045 53.8757 15.4453 54.4784 15.4453 55.2219C15.4453 55.9653 16.045 56.568 16.7847 56.568Z" fill="#EC432D"/>
<path d="M19.0392 7.47879C23.9951 1.33141 32.947 0.366673 39.086 5.3474C39.8674 5.97559 40.5817 6.69354 41.2068 7.47879C41.43 7.09738 41.7426 6.76084 42.1444 6.53649C42.4123 6.37944 42.6802 6.28969 42.9927 6.24482C37.3448 -0.889726 27.0088 -2.05638 19.9322 3.61985C18.9723 4.4051 18.0793 5.28009 17.3203 6.24482C18.0124 6.40187 18.6597 6.85059 19.0392 7.47879Z" fill="#52C7EA"/>
<path d="M32.3702 15.2191C34.5579 12.482 37.6832 10.6647 41.1434 10.1038C40.7862 9.45317 40.7193 8.66792 40.9872 7.97241C36.9019 8.57818 33.1961 10.732 30.6289 14.0076C31.3656 14.1198 31.9907 14.5685 32.3702 15.2191Z" fill="#52C7EA"/>
<path d="M23.9525 11.8314C25.4705 12.7063 26.7877 13.873 27.8815 15.2416C28.1048 14.8602 28.4173 14.5236 28.8191 14.2993C29.0647 14.1647 29.3326 14.0525 29.6228 14.0076C27.0779 10.732 23.3498 8.55574 19.2645 7.97241C19.3761 8.24164 19.4208 8.55574 19.4208 8.8474C19.4208 9.29612 19.3092 9.7224 19.0859 10.1038C20.8049 10.373 22.4568 10.9564 23.9525 11.8314Z" fill="#52C7EA"/>
<path d="M43.4648 21.6806C44.2239 21.6806 44.9382 22.0171 45.4293 22.6004C46.9697 18.7191 46.9697 14.4114 45.4517 10.53C45.2507 10.7544 45.0275 10.9563 44.7596 11.1134C44.3801 11.3377 43.956 11.4499 43.5095 11.4499C44.7819 14.7479 44.7596 18.3825 43.4648 21.6806Z" fill="#52C7EA"/>
<path d="M41.2069 22.9369C41.5864 22.2863 42.2337 21.86 42.9704 21.7254C40.4032 18.4722 36.6974 16.3184 32.6122 15.6902C32.8577 16.4081 32.7908 17.1934 32.4336 17.844C35.8715 18.4049 38.9968 20.2222 41.2069 22.9369Z" fill="#52C7EA"/>
<path d="M47.1475 10.3954C54.7822 12.4371 59.2916 20.312 57.2602 27.9626C57.1262 28.4561 56.9699 28.9273 56.7914 29.3984C57.2378 29.3984 57.6843 29.5106 58.0638 29.735C58.3317 29.892 58.5549 30.0939 58.7559 30.3183C58.9791 29.735 59.18 29.1516 59.3363 28.5683C61.6803 19.7511 56.4788 10.6871 47.7056 8.3089C47.1028 8.15185 46.5224 8.01723 45.8973 7.92749C46.1429 8.64543 46.0759 9.43068 45.7188 10.0813C46.2099 10.1711 46.6787 10.2608 47.1475 10.3954Z" fill="#52C7EA"/>
<path d="M51.6792 25.4274C49.8933 24.3954 47.9288 23.6999 45.8973 23.4082C46.1429 24.1261 46.0983 24.9114 45.7188 25.562C49.1789 26.1005 52.3043 27.8953 54.5143 30.6325C54.8938 30.0043 55.5412 29.5556 56.2779 29.421C55.0055 27.828 53.4428 26.4595 51.6792 25.4274Z" fill="#52C7EA"/>
<path d="M46.0525 39.7639C46.0525 40.0555 46.0078 40.3472 45.8962 40.6388C50.0038 40.0555 53.7096 37.8793 56.2768 34.6261C55.5401 34.5139 54.8927 34.0652 54.5132 33.4146C52.3032 36.1517 49.1555 37.969 45.6953 38.5075C45.9409 38.8664 46.0525 39.3151 46.0525 39.7639Z" fill="#52C7EA"/>
<path d="M43.4844 37.1388C44.2434 37.1613 44.9354 37.4978 45.4265 38.0811C46.9446 34.1998 46.9446 29.8921 45.4265 26.0107C44.9354 26.5716 44.2434 26.9082 43.5067 26.9306C44.7568 30.2062 44.7345 33.8408 43.4844 37.1388Z" fill="#52C7EA"/>
<path d="M43.5078 52.5968C44.2668 52.6193 44.9589 52.9558 45.45 53.5392C46.9903 49.6578 46.968 45.3501 45.45 41.4688C44.9589 42.0521 44.2668 42.3886 43.5078 42.4111C44.7579 45.6642 44.7579 49.2988 43.5078 52.5968Z" fill="#52C7EA"/>
<path d="M59.3335 35.4785C59.1772 34.8727 58.9763 34.2894 58.7531 33.7285C58.2619 34.3118 57.5476 34.6484 56.8109 34.6484C56.9895 35.0971 57.1457 35.5682 57.2797 36.0394C59.3335 43.7124 54.8017 51.6098 47.167 53.6738C46.6982 53.786 46.2294 53.8982 45.7383 53.9655C46.1178 54.6161 46.1848 55.4238 45.9169 56.1193C46.5196 56.0296 47.1224 55.895 47.7251 55.7379C56.476 53.3597 61.6998 44.2957 59.3335 35.4785Z" fill="#52C7EA"/>
<path d="M32.5703 48.3566C36.6779 47.7508 40.3837 45.597 42.9732 42.3438C42.2365 42.2092 41.5891 41.7605 41.2096 41.1323C38.9996 43.847 35.8743 45.6643 32.4141 46.2252C32.7712 46.8759 32.8159 47.6611 32.5703 48.3566Z" fill="#52C7EA"/>
<path d="M36.2992 52.2156C34.7811 51.3407 33.464 50.174 32.3702 48.8054C32.1469 49.1868 31.8344 49.5234 31.4326 49.7477C31.187 49.8823 30.9191 49.9945 30.6289 50.0394C33.1738 53.315 36.8796 55.4913 40.9872 56.0746C40.7193 55.3791 40.7862 54.5938 41.1657 53.9432C39.4468 53.674 37.7948 53.0906 36.2992 52.2156Z" fill="#52C7EA"/>
<path d="M23.9525 52.2157C22.4568 53.0907 20.8049 53.674 19.0859 53.9657C19.4431 54.6163 19.4878 55.4015 19.2422 56.097C23.3498 55.4913 27.0555 53.315 29.6005 50.0394C28.8638 49.9048 28.2387 49.4561 27.8592 48.8279C26.7653 50.1965 25.4482 51.3407 23.9525 52.2157Z" fill="#52C7EA"/>
<path d="M41.2085 56.5681C36.2526 62.7155 27.2784 63.6802 21.1617 58.6995C20.3804 58.0713 19.666 57.3534 19.0409 56.5681C18.8177 56.9495 18.5052 57.2861 18.1033 57.5104C17.8354 57.6675 17.5676 57.7572 17.2773 57.8021C22.9253 64.9366 33.2389 66.1033 40.3378 60.4271C41.2978 59.6418 42.1907 58.7668 42.9497 57.8021C42.2354 57.6675 41.588 57.2188 41.2085 56.5681Z" fill="#52C7EA"/>
<path d="M16.7643 42.3662C16.3178 42.3662 15.8713 42.254 15.4918 42.0296C15.2463 41.8726 15.0007 41.6931 14.8221 41.4688C13.2818 45.3501 13.2818 49.6578 14.7998 53.5392C14.9784 53.3148 15.224 53.1129 15.4695 52.9558C15.849 52.7315 16.2955 52.6193 16.7196 52.6193C15.4695 49.2988 15.4695 45.6418 16.7643 42.3662Z" fill="#52C7EA"/>
<path d="M19.0409 41.1099C18.6614 41.7605 18.014 42.1868 17.2773 42.3214C19.8446 45.5746 23.5503 47.7508 27.6579 48.379C27.4124 47.6611 27.457 46.8758 27.8365 46.2252C24.3763 45.6419 21.251 43.8246 19.0409 41.1099Z" fill="#52C7EA"/>
<path d="M1.47056 30.3183C1.96168 29.735 2.67604 29.4209 3.41273 29.3985C3.23414 28.9498 3.07787 28.4786 2.94393 28.0075C0.890136 20.3345 5.42187 12.4371 13.0566 10.3954C13.5254 10.2833 13.9942 10.1711 14.4853 10.1038C14.1058 9.45314 14.0389 8.64546 14.3067 7.94995C13.704 8.03969 13.1013 8.17431 12.5208 8.33136C3.74758 10.6871 -1.45386 19.7736 0.890136 28.5908C1.06873 29.1741 1.24732 29.735 1.47056 30.3183Z" fill="#52C7EA"/>
<path d="M8.57136 38.6196C10.3573 39.6517 12.3218 40.3472 14.3532 40.6388C14.1077 39.9209 14.1523 39.1357 14.5095 38.485C11.0493 37.9466 7.92397 36.1293 5.71391 33.4146C5.33441 34.0428 4.68702 34.4915 3.97266 34.6261C5.22279 36.219 6.78546 37.5876 8.57136 38.6196Z" fill="#52C7EA"/>
<path d="M13.0805 53.6514C5.44577 51.5873 0.914036 43.7124 2.9455 36.0394C3.07945 35.5682 3.23571 35.0971 3.4143 34.6484C2.96783 34.6484 2.52135 34.5362 2.14185 34.3118C1.89628 34.1548 1.65072 33.9529 1.47213 33.7285C1.24889 34.2894 1.04798 34.8952 0.891713 35.4785C-1.45229 44.2957 3.72684 53.3373 12.5001 55.7155C13.1028 55.8725 13.7056 56.0072 14.3083 56.0969C14.0628 55.379 14.1297 54.6161 14.4869 53.9655C14.0404 53.8758 13.5493 53.786 13.0805 53.6514Z" fill="#52C7EA"/>
<path d="M16.7643 21.6582C15.4918 18.3825 15.4918 14.748 16.742 11.4724C16.0053 11.4499 15.2909 11.1134 14.7998 10.5525C13.2818 14.4339 13.2818 18.7415 14.8221 22.6005C15.2909 22.0171 16.0053 21.6582 16.7643 21.6582Z" fill="#52C7EA"/>
<path d="M14.197 24.2832C14.197 23.9916 14.2639 23.6999 14.3532 23.4307C10.2456 24.0364 6.53989 26.1903 3.97266 29.4434C4.26287 29.4883 4.55308 29.6005 4.79864 29.7351C5.17814 29.9595 5.49068 30.2736 5.71391 30.655C7.92397 27.9178 11.0716 26.1005 14.5541 25.5621C14.3086 25.1806 14.197 24.7319 14.197 24.2832Z" fill="#52C7EA"/>
<path d="M27.6814 15.668C23.5961 16.2962 19.8903 18.45 17.3008 21.7032C18.0375 21.8378 18.6625 22.2865 19.042 22.9371C21.2521 20.2224 24.3774 18.4051 27.8376 17.8442C27.4804 17.1712 27.4135 16.3859 27.6814 15.668Z" fill="#52C7EA"/>
<path d="M16.7415 26.9081C16.0048 26.8857 15.2904 26.5491 14.8216 25.9658C13.3036 29.8472 13.2813 34.1548 14.7993 38.0362C15.2904 37.4753 15.9825 37.1164 16.7191 37.1164C15.4913 33.8183 15.4913 30.1837 16.7415 26.9081Z" fill="#52C7EA"/>
</svg>
