<svg width="234" height="65" viewBox="0 0 234 65" fill="none" xmlns="http://www.w3.org/2000/svg">
<path d="M119.578 34.8435C121.185 33.273 123.351 32.398 125.583 32.4205C127.503 32.3756 129.378 33.0038 130.896 34.2153L131.186 34.4621L133.642 31.523L133.352 31.2987C132.28 30.4237 131.075 29.7506 129.78 29.3019C128.441 28.8308 127.012 28.584 125.583 28.584C123.931 28.584 122.279 28.8981 120.761 29.5487C119.31 30.1769 117.971 31.0519 116.832 32.1737C114.533 34.4621 113.238 37.6031 113.238 40.8786C113.238 42.5164 113.551 44.1318 114.198 45.635C114.823 47.0933 115.716 48.3945 116.832 49.4939C117.971 50.5932 119.288 51.4906 120.739 52.0964C122.257 52.747 123.909 53.0835 125.561 53.0611C126.99 53.0611 128.396 52.8368 129.735 52.3432C131.03 51.8945 132.213 51.199 133.263 50.3464L133.553 50.0996L131.142 47.183L130.852 47.4074C129.378 48.5964 127.592 49.2022 125.539 49.2022C124.4 49.2022 123.262 49.0003 122.212 48.5516C120.203 47.7215 118.596 46.1061 117.748 44.0869C117.301 43.0549 117.1 41.9555 117.1 40.8338C117.1 39.6896 117.301 38.5453 117.748 37.4909C118.216 36.5037 118.819 35.6063 119.578 34.8435Z" fill="white"/>
<path d="M151.321 35.0455C152.615 33.7667 153.999 32.4654 155.406 31.1642L155.696 30.8949L153.285 28.4046L153.017 28.6738C150.896 30.693 148.865 32.6 146.9 34.4397C145.137 36.0775 143.329 37.7826 141.431 39.555V10.7927H137.547V52.6349H141.431V44.3338L144.668 41.3274L152.972 52.6349H157.549L147.459 38.7025C148.798 37.4685 150.093 36.2346 151.321 35.0455Z" fill="white"/>
<path d="M177.708 32.8467C177.529 32.5999 177.351 32.3531 177.127 32.1064C176.547 31.4109 175.855 30.8275 175.096 30.334C174.248 29.7731 173.332 29.3468 172.373 29.0551C171.301 28.741 170.207 28.584 169.091 28.584C167.461 28.584 165.854 28.8981 164.358 29.5487C162.907 30.1769 161.59 31.0968 160.474 32.2185C159.358 33.3627 158.465 34.7089 157.84 36.1672C157.192 37.6704 156.858 39.3082 156.88 40.9459C156.88 42.5613 157.192 44.1318 157.818 45.6125C158.42 47.0484 159.291 48.3497 160.362 49.449C161.456 50.5708 162.773 51.4458 164.224 52.0739C165.765 52.7246 167.417 53.0611 169.091 53.0387C170.207 53.0387 171.346 52.9041 172.417 52.59C173.377 52.3207 174.292 51.9169 175.141 51.3784C175.9 50.9073 176.569 50.3464 177.172 49.6958C177.328 49.5163 177.485 49.3144 177.641 49.1349C177.641 49.3817 177.641 49.6285 177.641 49.8753V52.59H181.525V29.1H177.864L177.708 32.8467ZM175.208 34.8659C175.967 35.6287 176.569 36.5486 176.994 37.5357C177.418 38.5678 177.641 39.6671 177.641 40.7889C177.663 41.9331 177.44 43.0549 176.994 44.1093C176.145 46.1285 174.538 47.7439 172.529 48.574C170.386 49.4266 167.997 49.4266 165.876 48.574C161.613 46.7343 159.626 41.7761 161.412 37.4909C161.836 36.5037 162.439 35.6063 163.198 34.8659C165.698 32.4878 169.359 31.7923 172.529 33.0935C173.533 33.4974 174.426 34.1031 175.208 34.8659Z" fill="white"/>
<path d="M220.928 30.5583C219.566 29.257 217.668 28.584 215.302 28.584C213.003 28.6289 211.06 29.2122 209.498 30.3564C208.225 31.2987 207.154 32.5102 206.373 33.9012C206.015 32.5326 205.256 31.2762 204.185 30.3564C202.845 29.1897 201.037 28.584 198.827 28.584C196.483 28.6289 194.496 29.257 192.911 30.4461C191.706 31.366 190.701 32.5102 189.942 33.8115C189.92 33.4076 189.898 32.9589 189.875 32.5102C189.831 31.9269 189.808 31.366 189.786 30.8275C189.764 30.2891 189.741 29.8179 189.697 29.459L189.652 29.1224H186.281V52.6348H190.166V40.1831C190.166 39.1287 190.366 38.0742 190.768 37.087C191.148 36.1672 191.706 35.3371 192.443 34.664C193.179 33.9685 194.028 33.4301 194.965 33.0711C195.97 32.6897 197.041 32.4878 198.113 32.5102C199.631 32.5775 200.769 33.0486 201.528 33.8563C202.287 34.6864 202.734 35.7633 202.778 36.8851V52.6348H206.663V40.0261C206.685 38.9941 206.908 37.962 207.31 37.0197C207.69 36.1223 208.248 35.3146 208.94 34.6416C209.654 33.9685 210.502 33.4301 211.418 33.0711C212.4 32.6897 213.449 32.4878 214.521 32.5102C216.061 32.5775 217.244 33.0486 217.981 33.8563C218.74 34.6864 219.186 35.7633 219.231 36.9076V52.6573H223.115V35.8082C223.026 33.632 222.289 31.882 220.928 30.5583Z" fill="white"/>
<path d="M90.4234 14.6965C99.8886 14.6965 107.568 22.4143 107.568 31.927C107.568 41.4396 99.8886 49.1574 90.4234 49.1574C80.9582 49.1574 73.2788 41.4396 73.2788 31.927C73.3012 22.4143 80.9582 14.7189 90.4234 14.6965ZM90.4234 10.7927C78.8151 10.7927 69.3945 20.2605 69.3945 31.927C69.3945 43.5934 78.8151 53.0612 90.4234 53.0612C102.032 53.0612 111.452 43.5934 111.452 31.927C111.452 20.2605 102.032 10.7927 90.4234 10.7927Z" fill="white"/>
<path d="M17.0035 10.171C17.7432 10.171 18.3429 9.56835 18.3429 8.8249C18.3429 8.08145 17.7432 7.47876 17.0035 7.47876C16.2637 7.47876 15.6641 8.08145 15.6641 8.8249C15.6641 9.56835 16.2637 10.171 17.0035 10.171Z" fill="#EC432D"/>
<path d="M17.0269 25.6293C17.7667 25.6293 18.3664 25.0266 18.3664 24.2832C18.3664 23.5397 17.7667 22.937 17.0269 22.937C16.2872 22.937 15.6875 23.5397 15.6875 24.2832C15.6875 25.0266 16.2872 25.6293 17.0269 25.6293Z" fill="#EC432D"/>
<path d="M43.6597 56.568C44.3995 56.568 44.9992 55.9653 44.9992 55.2219C44.9992 54.4784 44.3995 53.8757 43.6597 53.8757C42.92 53.8757 42.3203 54.4784 42.3203 55.2219C42.3203 55.9653 42.92 56.568 43.6597 56.568Z" fill="#EC432D"/>
<path d="M3.6988 33.3695C4.43855 33.3695 5.03823 32.7668 5.03823 32.0234C5.03823 31.2799 4.43855 30.6772 3.6988 30.6772C2.95906 30.6772 2.35938 31.2799 2.35938 32.0234C2.35938 32.7668 2.95906 33.3695 3.6988 33.3695Z" fill="#EC432D"/>
<path d="M56.9879 33.3695C57.7276 33.3695 58.3273 32.7668 58.3273 32.0234C58.3273 31.2799 57.7276 30.6772 56.9879 30.6772C56.2481 30.6772 55.6484 31.2799 55.6484 32.0234C55.6484 32.7668 56.2481 33.3695 56.9879 33.3695Z" fill="#EC432D"/>
<path d="M43.6597 10.171C44.3995 10.171 44.9992 9.56835 44.9992 8.8249C44.9992 8.08145 44.3995 7.47876 43.6597 7.47876C42.92 7.47876 42.3203 8.08145 42.3203 8.8249C42.3203 9.56835 42.92 10.171 43.6597 10.171Z" fill="#EC432D"/>
<path d="M43.6597 41.11C44.3995 41.11 44.9992 40.5073 44.9992 39.7639C44.9992 39.0204 44.3995 38.4177 43.6597 38.4177C42.92 38.4177 42.3203 39.0204 42.3203 39.7639C42.3203 40.5073 42.92 41.11 43.6597 41.11Z" fill="#EC432D"/>
<path d="M17.0269 41.0875C17.7667 41.0875 18.3664 40.4849 18.3664 39.7414C18.3664 38.9979 17.7667 38.3953 17.0269 38.3953C16.2872 38.3953 15.6875 38.9979 15.6875 39.7414C15.6875 40.4849 16.2872 41.0875 17.0269 41.0875Z" fill="#EC432D"/>
<path d="M43.6597 25.6518C44.3995 25.6518 44.9992 25.0491 44.9992 24.3056C44.9992 23.5622 44.3995 22.9595 43.6597 22.9595C42.92 22.9595 42.3203 23.5622 42.3203 24.3056C42.3203 25.0491 42.92 25.6518 43.6597 25.6518Z" fill="#EC432D"/>
<path d="M30.3316 48.8278C31.0714 48.8278 31.671 48.2251 31.671 47.4816C31.671 46.7382 31.0714 46.1355 30.3316 46.1355C29.5919 46.1355 28.9922 46.7382 28.9922 47.4816C28.9922 48.2251 29.5919 48.8278 30.3316 48.8278Z" fill="#EC432D"/>
<path d="M30.3551 17.9115C31.0948 17.9115 31.6945 17.3088 31.6945 16.5654C31.6945 15.8219 31.0948 15.2192 30.3551 15.2192C29.6153 15.2192 29.0156 15.8219 29.0156 16.5654C29.0156 17.3088 29.6153 17.9115 30.3551 17.9115Z" fill="#EC432D"/>
<path d="M17.0035 56.568C17.7432 56.568 18.3429 55.9653 18.3429 55.2219C18.3429 54.4784 17.7432 53.8757 17.0035 53.8757C16.2637 53.8757 15.6641 54.4784 15.6641 55.2219C15.6641 55.9653 16.2637 56.568 17.0035 56.568Z" fill="#EC432D"/>
<path d="M19.258 7.47879C24.2139 1.33141 33.1657 0.366673 39.3048 5.3474C40.0861 5.97559 40.8005 6.69354 41.4255 7.47879C41.6488 7.09738 41.9613 6.76084 42.3631 6.53649C42.631 6.37944 42.8989 6.28969 43.2114 6.24482C37.5635 -0.889726 27.2276 -2.05638 20.1509 3.61985C19.191 4.4051 18.2981 5.28009 17.5391 6.24482C18.2311 6.40187 18.8785 6.85059 19.258 7.47879Z" fill="#52C7EA"/>
<path d="M32.5889 15.2191C34.7766 12.482 37.902 10.6647 41.3622 10.1038C41.005 9.45317 40.938 8.66792 41.2059 7.97241C37.1206 8.57818 33.4149 10.732 30.8477 14.0076C31.5843 14.1198 32.2094 14.5685 32.5889 15.2191Z" fill="#52C7EA"/>
<path d="M24.1713 11.8314C25.6893 12.7063 27.0064 13.873 28.1003 15.2416C28.3235 14.8602 28.636 14.5236 29.0379 14.2993C29.2834 14.1647 29.5513 14.0525 29.8415 14.0076C27.2966 10.732 23.5685 8.55574 19.4833 7.97241C19.5949 8.24164 19.6395 8.55574 19.6395 8.8474C19.6395 9.29612 19.5279 9.7224 19.3047 10.1038C21.0236 10.373 22.6756 10.9564 24.1713 11.8314Z" fill="#52C7EA"/>
<path d="M43.6836 21.6806C44.4426 21.6806 45.157 22.0171 45.6481 22.6004C47.1884 18.7191 47.1884 14.4114 45.6704 10.53C45.4695 10.7544 45.2463 10.9563 44.9784 11.1134C44.5989 11.3377 44.1747 11.4499 43.7282 11.4499C45.0007 14.7479 44.9784 18.3825 43.6836 21.6806Z" fill="#52C7EA"/>
<path d="M41.4256 22.9369C41.8051 22.2863 42.4525 21.86 43.1892 21.7254C40.6219 18.4722 36.9162 16.3184 32.8309 15.6902C33.0765 16.4081 33.0095 17.1934 32.6523 17.844C36.0902 18.4049 39.2155 20.2222 41.4256 22.9369Z" fill="#52C7EA"/>
<path d="M47.3662 10.3954C55.001 12.4371 59.5104 20.312 57.4789 27.9626C57.345 28.4561 57.1887 28.9273 57.0101 29.3984C57.4566 29.3984 57.9031 29.5106 58.2826 29.735C58.5504 29.892 58.7737 30.0939 58.9746 30.3183C59.1978 29.735 59.3988 29.1516 59.555 28.5683C61.899 19.7511 56.6976 10.6871 47.9243 8.3089C47.3216 8.15185 46.7412 8.01723 46.1161 7.92749C46.3617 8.64543 46.2947 9.43068 45.9375 10.0813C46.4286 10.1711 46.8974 10.2608 47.3662 10.3954Z" fill="#52C7EA"/>
<path d="M51.898 25.4274C50.1121 24.3954 48.1476 23.6999 46.1161 23.4082C46.3617 24.1261 46.317 24.9114 45.9375 25.562C49.3977 26.1005 52.523 27.8953 54.7331 30.6325C55.1126 30.0043 55.76 29.5556 56.4967 29.421C55.2242 27.828 53.6615 26.4595 51.898 25.4274Z" fill="#52C7EA"/>
<path d="M46.2712 39.7639C46.2712 40.0555 46.2266 40.3472 46.115 40.6388C50.2226 40.0555 53.9283 37.8793 56.4955 34.6261C55.7589 34.5139 55.1115 34.0652 54.732 33.4146C52.5219 36.1517 49.3743 37.969 45.9141 38.5075C46.1596 38.8664 46.2712 39.3151 46.2712 39.7639Z" fill="#52C7EA"/>
<path d="M43.7031 37.1388C44.4621 37.1613 45.1542 37.4978 45.6453 38.0811C47.1633 34.1998 47.1633 29.8921 45.6453 26.0107C45.1542 26.5716 44.4621 26.9082 43.7254 26.9306C44.9756 30.2062 44.9533 33.8408 43.7031 37.1388Z" fill="#52C7EA"/>
<path d="M43.7266 52.5968C44.4856 52.6193 45.1776 52.9558 45.6687 53.5392C47.2091 49.6578 47.1868 45.3501 45.6687 41.4688C45.1776 42.0521 44.4856 42.3886 43.7266 42.4111C44.9767 45.6642 44.9767 49.2988 43.7266 52.5968Z" fill="#52C7EA"/>
<path d="M59.5522 35.4785C59.396 34.8727 59.195 34.2894 58.9718 33.7285C58.4807 34.3118 57.7663 34.6484 57.0296 34.6484C57.2082 35.0971 57.3645 35.5682 57.4984 36.0394C59.5522 43.7124 55.0205 51.6098 47.3858 53.6738C46.917 53.786 46.4482 53.8982 45.957 53.9655C46.3365 54.6161 46.4035 55.4238 46.1356 56.1193C46.7384 56.0296 47.3411 55.895 47.9438 55.7379C56.6948 53.3597 61.9185 44.2957 59.5522 35.4785Z" fill="#52C7EA"/>
<path d="M32.7891 48.3566C36.8967 47.7508 40.6024 45.597 43.192 42.3438C42.4553 42.2092 41.8079 41.7605 41.4284 41.1323C39.2183 43.847 36.093 45.6643 32.6328 46.2252C32.99 46.8759 33.0346 47.6611 32.7891 48.3566Z" fill="#52C7EA"/>
<path d="M36.5179 52.2156C34.9999 51.3407 33.6828 50.174 32.5889 48.8054C32.3657 49.1868 32.0531 49.5234 31.6513 49.7477C31.4058 49.8823 31.1379 49.9945 30.8477 50.0394C33.3926 53.315 37.0983 55.4913 41.2059 56.0746C40.938 55.3791 41.005 54.5938 41.3845 53.9432C39.6656 53.674 38.0136 53.0906 36.5179 52.2156Z" fill="#52C7EA"/>
<path d="M24.1713 52.2157C22.6756 53.0907 21.0236 53.674 19.3047 53.9657C19.6619 54.6163 19.7065 55.4015 19.461 56.097C23.5685 55.4913 27.2743 53.315 29.8192 50.0394C29.0825 49.9048 28.4574 49.4561 28.0779 48.8279C26.9841 50.1965 25.667 51.3407 24.1713 52.2157Z" fill="#52C7EA"/>
<path d="M41.4272 56.5681C36.4713 62.7155 27.4972 63.6802 21.3804 58.6995C20.5991 58.0713 19.8847 57.3534 19.2597 56.5681C19.0364 56.9495 18.7239 57.2861 18.3221 57.5104C18.0542 57.6675 17.7863 57.7572 17.4961 57.8021C23.144 64.9366 33.4576 66.1033 40.5566 60.4271C41.5165 59.6418 42.4095 58.7668 43.1685 57.8021C42.4541 57.6675 41.8067 57.2188 41.4272 56.5681Z" fill="#52C7EA"/>
<path d="M16.983 42.3662C16.5366 42.3662 16.0901 42.254 15.7106 42.0296C15.465 41.8726 15.2195 41.6931 15.0409 41.4688C13.5005 45.3501 13.5005 49.6578 15.0186 53.5392C15.1971 53.3148 15.4427 53.1129 15.6883 52.9558C16.0678 52.7315 16.5142 52.6193 16.9384 52.6193C15.6883 49.2988 15.6883 45.6418 16.983 42.3662Z" fill="#52C7EA"/>
<path d="M19.2597 41.1099C18.8802 41.7605 18.2328 42.1868 17.4961 42.3214C20.0633 45.5746 23.7691 47.7508 27.8767 48.379C27.6311 47.6611 27.6757 46.8758 28.0553 46.2252C24.5951 45.6419 21.4697 43.8246 19.2597 41.1099Z" fill="#52C7EA"/>
<path d="M1.68931 30.3183C2.18043 29.735 2.89479 29.4209 3.63148 29.3985C3.45289 28.9498 3.29662 28.4786 3.16268 28.0075C1.10889 20.3345 5.64062 12.4371 13.2754 10.3954C13.7442 10.2833 14.213 10.1711 14.7041 10.1038C14.3246 9.45314 14.2576 8.64546 14.5255 7.94995C13.9227 8.03969 13.32 8.17431 12.7396 8.33136C3.96633 10.6871 -1.23511 19.7736 1.10889 28.5908C1.28748 29.1741 1.46607 29.735 1.68931 30.3183Z" fill="#52C7EA"/>
<path d="M8.79011 38.6196C10.576 39.6517 12.5405 40.3472 14.572 40.6388C14.3264 39.9209 14.3711 39.1357 14.7282 38.485C11.2681 37.9466 8.14272 36.1293 5.93266 33.4146C5.55316 34.0428 4.90577 34.4915 4.19141 34.6261C5.44154 36.219 7.00421 37.5876 8.79011 38.6196Z" fill="#52C7EA"/>
<path d="M13.2993 53.6514C5.66452 51.5873 1.13279 43.7124 3.16425 36.0394C3.2982 35.5682 3.45446 35.0971 3.63305 34.6484C3.18658 34.6484 2.7401 34.5362 2.3606 34.3118C2.11503 34.1548 1.86947 33.9529 1.69088 33.7285C1.46764 34.2894 1.26673 34.8952 1.11046 35.4785C-1.23354 44.2957 3.94559 53.3373 12.7188 55.7155C13.3216 55.8725 13.9243 56.0072 14.5271 56.0969C14.2815 55.379 14.3485 54.6161 14.7057 53.9655C14.2592 53.8758 13.7681 53.786 13.2993 53.6514Z" fill="#52C7EA"/>
<path d="M16.983 21.6582C15.7106 18.3825 15.7106 14.748 16.9607 11.4724C16.224 11.4499 15.5097 11.1134 15.0186 10.5525C13.5005 14.4339 13.5005 18.7415 15.0409 22.6005C15.5097 22.0171 16.224 21.6582 16.983 21.6582Z" fill="#52C7EA"/>
<path d="M14.4157 24.2832C14.4157 23.9916 14.4827 23.6999 14.572 23.4307C10.4644 24.0364 6.75864 26.1903 4.19141 29.4434C4.48162 29.4883 4.77183 29.6005 5.01739 29.7351C5.39689 29.9595 5.70943 30.2736 5.93266 30.655C8.14272 27.9178 11.2904 26.1005 14.7729 25.5621C14.5273 25.1806 14.4157 24.7319 14.4157 24.2832Z" fill="#52C7EA"/>
<path d="M27.9001 15.668C23.8148 16.2962 20.1091 18.45 17.5195 21.7032C18.2562 21.8378 18.8813 22.2865 19.2608 22.9371C21.4708 20.2224 24.5962 18.4051 28.0564 17.8442C27.6992 17.1712 27.6322 16.3859 27.9001 15.668Z" fill="#52C7EA"/>
<path d="M16.9602 26.9081C16.2235 26.8857 15.5092 26.5491 15.0404 25.9658C13.5223 29.8472 13.5 34.1548 15.018 38.0362C15.5092 37.4753 16.2012 37.1164 16.9379 37.1164C15.7101 33.8183 15.7101 30.1837 16.9602 26.9081Z" fill="#52C7EA"/>
<path d="M226.882 25.8062V21.613H229.007C229.178 21.613 229.363 21.6623 229.564 21.7607C229.765 21.8554 229.935 22.0032 230.075 22.2039C230.219 22.4009 230.291 22.6509 230.291 22.9539C230.291 23.2607 230.217 23.5221 230.07 23.738C229.922 23.9501 229.742 24.1111 229.53 24.221C229.321 24.3308 229.125 24.3857 228.939 24.3857H227.405V23.7039H228.655C228.78 23.7039 228.914 23.6414 229.058 23.5164C229.206 23.3914 229.28 23.2039 229.28 22.9539C229.28 22.6963 229.206 22.5221 229.058 22.4312C228.914 22.3403 228.787 22.2948 228.678 22.2948H227.803V25.8062H226.882ZM229.416 23.8289L230.462 25.8062H229.45L228.428 23.8289H229.416ZM228.473 28.3062C227.844 28.3062 227.255 28.1888 226.706 27.9539C226.157 27.7191 225.674 27.3933 225.257 26.9767C224.84 26.56 224.515 26.077 224.28 25.5278C224.045 24.9785 223.928 24.3895 223.928 23.7607C223.928 23.132 224.045 22.5429 224.28 21.9937C224.515 21.4445 224.84 20.9615 225.257 20.5448C225.674 20.1282 226.157 19.8024 226.706 19.5676C227.255 19.3327 227.844 19.2153 228.473 19.2153C229.102 19.2153 229.691 19.3327 230.24 19.5676C230.789 19.8024 231.272 20.1282 231.689 20.5448C232.106 20.9615 232.431 21.4445 232.666 21.9937C232.901 22.5429 233.018 23.132 233.018 23.7607C233.018 24.3895 232.901 24.9785 232.666 25.5278C232.431 26.077 232.106 26.56 231.689 26.9767C231.272 27.3933 230.789 27.7191 230.24 27.9539C229.691 28.1888 229.102 28.3062 228.473 28.3062ZM228.473 27.2153C229.109 27.2153 229.689 27.06 230.212 26.7494C230.734 26.4388 231.151 26.0221 231.462 25.4994C231.772 24.9767 231.928 24.3971 231.928 23.7607C231.928 23.1244 231.772 22.5448 231.462 22.0221C231.151 21.4994 230.734 21.0827 230.212 20.7721C229.689 20.4615 229.109 20.3062 228.473 20.3062C227.837 20.3062 227.257 20.4615 226.734 20.7721C226.212 21.0827 225.795 21.4994 225.484 22.0221C225.174 22.5448 225.018 23.1244 225.018 23.7607C225.018 24.3971 225.174 24.9767 225.484 25.4994C225.795 26.0221 226.212 26.4388 226.734 26.7494C227.257 27.06 227.837 27.2153 228.473 27.2153Z" fill="white"/>
</svg>
