<svg width="225" height="65" viewBox="0 0 225 65" fill="none" xmlns="http://www.w3.org/2000/svg">
<path d="M120.369 34.8445C121.987 33.274 124.166 32.399 126.413 32.4214C128.345 32.3766 130.232 33.0048 131.76 34.2163L132.052 34.4631L134.523 31.524L134.231 31.2997C133.153 30.4247 131.94 29.7516 130.637 29.3029C129.289 28.8318 127.851 28.585 126.413 28.585C124.75 28.585 123.088 28.8991 121.56 29.5497C120.099 30.1779 118.751 31.0529 117.606 32.1746C115.291 34.4631 113.988 37.604 113.988 40.8796C113.988 42.5174 114.303 44.1328 114.954 45.6359C115.583 47.0942 116.482 48.3955 117.606 49.4948C118.751 50.5942 120.077 51.4916 121.537 52.0974C123.065 52.748 124.728 53.0845 126.39 53.0621C127.828 53.0621 129.244 52.8377 130.592 52.3441C131.895 51.8954 133.086 51.1999 134.141 50.3474L134.434 50.1006L132.007 47.184L131.715 47.4083C130.232 48.5974 128.435 49.2032 126.368 49.2032C125.222 49.2032 124.076 49.0013 123.02 48.5525C120.998 47.7224 119.38 46.1071 118.527 44.0879C118.077 43.0559 117.875 41.9565 117.875 40.8347C117.875 39.6905 118.077 38.5463 118.527 37.4918C118.998 36.5047 119.605 35.6073 120.369 34.8445Z" fill="#0A1A2B"/>
<path d="M152.315 35.0465C153.619 33.7676 155.012 32.4664 156.427 31.1651L156.719 30.8959L154.293 28.4056L154.023 28.6748C151.889 30.694 149.844 32.601 147.867 34.4407C146.092 36.0785 144.272 37.7836 142.362 39.556V10.7937H138.453V52.6359H142.362V44.3348L145.62 41.3284L153.978 52.6359H158.584L148.429 38.7035C149.777 37.4695 151.08 36.2356 152.315 35.0465Z" fill="#0A1A2B"/>
<path d="M178.873 32.8475C178.693 32.6007 178.514 32.3539 178.289 32.1071C177.705 31.4116 177.008 30.8283 176.245 30.3347C175.391 29.7738 174.47 29.3475 173.504 29.0559C172.425 28.7418 171.324 28.5847 170.201 28.5847C168.561 28.5847 166.943 28.8988 165.438 29.5494C163.977 30.1776 162.652 31.0975 161.528 32.2193C160.405 33.3635 159.506 34.7096 158.877 36.1679C158.226 37.6711 157.889 39.3089 157.911 40.9467C157.911 42.562 158.226 44.1325 158.855 45.6133C159.461 47.0491 160.338 48.3504 161.416 49.4497C162.517 50.5715 163.843 51.4465 165.303 52.0747C166.853 52.7253 168.516 53.0618 170.201 53.0394C171.324 53.0394 172.47 52.9048 173.548 52.5907C174.515 52.3215 175.436 51.9176 176.289 51.3792C177.053 50.908 177.727 50.3471 178.334 49.6965C178.491 49.517 178.649 49.3151 178.806 49.1356C178.806 49.3824 178.806 49.6292 178.806 49.876V52.5907H182.715V29.1007H179.03L178.873 32.8475ZM176.357 34.8667C177.121 35.6295 177.727 36.5493 178.154 37.5365C178.581 38.5685 178.806 39.6679 178.806 40.7896C178.828 41.9338 178.604 43.0556 178.154 44.1101C177.301 46.1293 175.683 47.7446 173.661 48.5747C171.504 49.4273 169.1 49.4273 166.966 48.5747C162.674 46.735 160.675 41.7768 162.472 37.4916C162.899 36.5044 163.506 35.607 164.269 34.8667C166.786 32.4885 170.47 31.793 173.661 33.0943C174.672 33.4981 175.571 34.1038 176.357 34.8667Z" fill="#0A1A2B"/>
<path d="M222.369 30.559C220.999 29.2578 219.089 28.5847 216.708 28.5847C214.393 28.6296 212.439 29.2129 210.866 30.3571C209.585 31.2994 208.507 32.5109 207.721 33.9019C207.361 32.5334 206.597 31.277 205.519 30.3571C204.171 29.1905 202.351 28.5847 200.127 28.5847C197.768 28.6296 195.768 29.2578 194.173 30.4469C192.96 31.3667 191.949 32.5109 191.185 33.8122C191.162 33.4083 191.14 32.9596 191.117 32.5109C191.072 31.9276 191.05 31.3667 191.027 30.8283C191.005 30.2898 190.982 29.8187 190.938 29.4597L190.893 29.1232H187.5V52.6356H191.409V40.1839C191.409 39.1294 191.612 38.0749 192.016 37.0878C192.398 36.1679 192.96 35.3378 193.701 34.6647C194.442 33.9692 195.296 33.4308 196.24 33.0718C197.251 32.6904 198.329 32.4885 199.408 32.5109C200.935 32.5782 202.081 33.0494 202.845 33.8571C203.609 34.6872 204.058 35.7641 204.103 36.8858V52.6356H208.013V40.0268C208.035 38.9948 208.26 37.9628 208.664 37.0205C209.046 36.123 209.608 35.3154 210.304 34.6423C211.023 33.9692 211.877 33.4308 212.798 33.0718C213.787 32.6904 214.843 32.4885 215.921 32.5109C217.471 32.5782 218.662 33.0494 219.404 33.8571C220.167 34.6872 220.617 35.7641 220.662 36.9083V52.658H224.571V35.8089C224.481 33.6327 223.74 31.8827 222.369 30.559Z" fill="#0A1A2B"/>
<path d="M91.0275 14.6975C100.554 14.6975 108.282 22.4153 108.282 31.9279C108.282 41.4406 100.554 49.1584 91.0275 49.1584C81.5014 49.1584 73.7726 41.4406 73.7726 31.9279C73.7951 22.4153 81.5014 14.7199 91.0275 14.6975ZM91.0275 10.7937C79.3445 10.7937 69.8633 20.2615 69.8633 31.9279C69.8633 43.5944 79.3445 53.0622 91.0275 53.0622C102.711 53.0622 112.192 43.5944 112.192 31.9279C112.192 20.2615 102.711 10.7937 91.0275 10.7937Z" fill="#0A1A2B"/>
<path d="M17.1371 10.1715C17.8816 10.1715 18.4852 9.56884 18.4852 8.82539C18.4852 8.08194 17.8816 7.47925 17.1371 7.47925C16.3926 7.47925 15.7891 8.08194 15.7891 8.82539C15.7891 9.56884 16.3926 10.1715 17.1371 10.1715Z" fill="#EC432D"/>
<path d="M17.1566 25.6295C17.9012 25.6295 18.5047 25.0268 18.5047 24.2834C18.5047 23.5399 17.9012 22.9373 17.1566 22.9373C16.4121 22.9373 15.8086 23.5399 15.8086 24.2834C15.8086 25.0268 16.4121 25.6295 17.1566 25.6295Z" fill="#EC432D"/>
<path d="M43.9613 56.5685C44.7058 56.5685 45.3094 55.9658 45.3094 55.2224C45.3094 54.4789 44.7058 53.8762 43.9613 53.8762C43.2168 53.8762 42.6133 54.4789 42.6133 55.2224C42.6133 55.9658 43.2168 56.5685 43.9613 56.5685Z" fill="#EC432D"/>
<path d="M3.74258 33.3698C4.48709 33.3698 5.09063 32.7671 5.09063 32.0236C5.09063 31.2802 4.48709 30.6775 3.74258 30.6775C2.99807 30.6775 2.39453 31.2802 2.39453 32.0236C2.39453 32.7671 2.99807 33.3698 3.74258 33.3698Z" fill="#EC432D"/>
<path d="M57.3715 33.3698C58.116 33.3698 58.7195 32.7671 58.7195 32.0236C58.7195 31.2802 58.116 30.6775 57.3715 30.6775C56.627 30.6775 56.0234 31.2802 56.0234 32.0236C56.0234 32.7671 56.627 33.3698 57.3715 33.3698Z" fill="#EC432D"/>
<path d="M43.9613 10.1715C44.7058 10.1715 45.3094 9.56884 45.3094 8.82539C45.3094 8.08194 44.7058 7.47925 43.9613 7.47925C43.2168 7.47925 42.6133 8.08194 42.6133 8.82539C42.6133 9.56884 43.2168 10.1715 43.9613 10.1715Z" fill="#EC432D"/>
<path d="M43.9613 41.1105C44.7058 41.1105 45.3094 40.5078 45.3094 39.7644C45.3094 39.0209 44.7058 38.4182 43.9613 38.4182C43.2168 38.4182 42.6133 39.0209 42.6133 39.7644C42.6133 40.5078 43.2168 41.1105 43.9613 41.1105Z" fill="#EC432D"/>
<path d="M17.1566 41.088C17.9012 41.088 18.5047 40.4853 18.5047 39.7419C18.5047 38.9984 17.9012 38.3958 17.1566 38.3958C16.4121 38.3958 15.8086 38.9984 15.8086 39.7419C15.8086 40.4853 16.4121 41.088 17.1566 41.088Z" fill="#EC432D"/>
<path d="M43.9613 25.652C44.7058 25.652 45.3094 25.0493 45.3094 24.3059C45.3094 23.5624 44.7058 22.9597 43.9613 22.9597C43.2168 22.9597 42.6133 23.5624 42.6133 24.3059C42.6133 25.0493 43.2168 25.652 43.9613 25.652Z" fill="#EC432D"/>
<path d="M30.5512 48.8278C31.2957 48.8278 31.8992 48.2251 31.8992 47.4816C31.8992 46.7382 31.2957 46.1355 30.5512 46.1355C29.8067 46.1355 29.2031 46.7382 29.2031 47.4816C29.2031 48.2251 29.8067 48.8278 30.5512 48.8278Z" fill="#EC432D"/>
<path d="M30.5707 17.9115C31.3152 17.9115 31.9188 17.3088 31.9188 16.5654C31.9188 15.8219 31.3152 15.2192 30.5707 15.2192C29.8262 15.2192 29.2227 15.8219 29.2227 16.5654C29.2227 17.3088 29.8262 17.9115 30.5707 17.9115Z" fill="#EC432D"/>
<path d="M17.1371 56.5685C17.8816 56.5685 18.4852 55.9658 18.4852 55.2224C18.4852 54.4789 17.8816 53.8762 17.1371 53.8762C16.3926 53.8762 15.7891 54.4789 15.7891 55.2224C15.7891 55.9658 16.3926 56.5685 17.1371 56.5685Z" fill="#EC432D"/>
<path d="M19.4019 7.47903C24.3897 1.33165 33.3991 0.366917 39.5777 5.34764C40.3641 5.97584 41.083 6.69378 41.7121 7.47903C41.9368 7.09762 42.2513 6.76109 42.6558 6.53673C42.9254 6.37968 43.195 6.28994 43.5095 6.24507C37.8252 -0.889481 27.4228 -2.05614 20.3006 3.62009C19.3345 4.40534 18.4358 5.28033 17.6719 6.24507C18.3684 6.40212 19.0199 6.85083 19.4019 7.47903Z" fill="#52C7EA"/>
<path d="M32.815 15.2191C35.0168 12.482 38.1622 10.6647 41.6447 10.1038C41.2852 9.45317 41.2178 8.66792 41.4874 7.97241C37.3759 8.57818 33.6463 10.732 31.0625 14.0076C31.8039 14.1198 32.433 14.5685 32.815 15.2191Z" fill="#52C7EA"/>
<path d="M24.3432 11.8314C25.871 12.7063 27.1966 13.873 28.2975 15.2416C28.5222 14.8602 28.8367 14.5236 29.2412 14.2993C29.4883 14.1647 29.7579 14.0525 30.05 14.0076C27.4887 10.732 23.7366 8.55574 19.6251 7.97241C19.7374 8.24164 19.7823 8.55574 19.7823 8.8474C19.7823 9.29612 19.67 9.7224 19.4453 10.1038C21.1753 10.373 22.8379 10.9564 24.3432 11.8314Z" fill="#52C7EA"/>
<path d="M43.9844 21.6811C44.7483 21.6811 45.4672 22.0176 45.9615 22.6009C47.5118 18.7195 47.5118 14.4119 45.984 10.5305C45.7818 10.7549 45.5571 10.9568 45.2875 11.1138C44.9055 11.3382 44.4787 11.4504 44.0293 11.4504C45.31 14.7484 45.2875 18.383 43.9844 21.6811Z" fill="#52C7EA"/>
<path d="M41.7125 22.9374C42.0945 22.2868 42.7461 21.8605 43.4875 21.7259C40.9037 18.4727 37.1741 16.3189 33.0626 15.6907C33.3097 16.4086 33.2423 17.1939 32.8828 17.8445C36.3428 18.4054 39.4883 20.2227 41.7125 22.9374Z" fill="#52C7EA"/>
<path d="M47.6879 10.3959C55.3718 12.4376 59.9103 20.3125 57.8657 27.963C57.7309 28.4566 57.5736 28.9278 57.3939 29.3989C57.8432 29.3989 58.2926 29.5111 58.6745 29.7355C58.9441 29.8925 59.1688 30.0944 59.371 30.3188C59.5957 29.7355 59.7979 29.1521 59.9552 28.5688C62.3143 19.7516 57.0793 10.6876 48.2496 8.30939C47.643 8.15234 47.0588 8.01772 46.4297 7.92798C46.6769 8.64592 46.6095 9.43117 46.25 10.0818C46.7443 10.1715 47.2161 10.2613 47.6879 10.3959Z" fill="#52C7EA"/>
<path d="M52.2488 25.4277C50.4514 24.3956 48.4743 23.7001 46.4297 23.4084C46.6769 24.1264 46.6319 24.9116 46.25 25.5623C49.7325 26.1007 52.8779 27.8956 55.1022 30.6327C55.4842 30.0045 56.1357 29.5558 56.8771 29.4212C55.5965 27.8283 54.0238 26.4597 52.2488 25.4277Z" fill="#52C7EA"/>
<path d="M46.59 39.7643C46.59 40.056 46.545 40.3477 46.4327 40.6393C50.5667 40.056 54.2963 37.8797 56.8801 34.6266C56.1386 34.5144 55.4871 34.0657 55.1051 33.415C52.8809 36.1522 49.7129 37.9695 46.2305 38.5079C46.4776 38.8669 46.59 39.3156 46.59 39.7643Z" fill="#52C7EA"/>
<path d="M44.0078 37.1391C44.7717 37.1615 45.4682 37.4981 45.9625 38.0814C47.4903 34.2 47.4903 29.8924 45.9625 26.011C45.4682 26.5719 44.7717 26.9084 44.0303 26.9308C45.2885 30.2065 45.266 33.841 44.0078 37.1391Z" fill="#52C7EA"/>
<path d="M44.0273 52.5976C44.7912 52.62 45.4877 52.9566 45.982 53.5399C47.5323 49.6585 47.5098 45.3509 45.982 41.4695C45.4877 42.0528 44.7912 42.3893 44.0273 42.4118C45.2855 45.665 45.2855 49.2995 44.0273 52.5976Z" fill="#52C7EA"/>
<path d="M59.9562 35.4787C59.7989 34.873 59.5967 34.2897 59.372 33.7288C58.8777 34.3121 58.1588 34.6486 57.4173 34.6486C57.5971 35.0973 57.7543 35.5685 57.8891 36.0396C59.9562 43.7126 55.3952 51.61 47.7114 53.6741C47.2395 53.7863 46.7677 53.8984 46.2734 53.9657C46.6554 54.6164 46.7228 55.4241 46.4532 56.1196C47.0598 56.0298 47.6664 55.8952 48.273 55.7382C57.0803 53.36 62.3377 44.296 59.9562 35.4787Z" fill="#52C7EA"/>
<path d="M33.0206 48.3569C37.1546 47.7511 40.8842 45.5973 43.4904 42.3441C42.749 42.2095 42.0974 41.7608 41.7155 41.1326C39.4912 43.8473 36.3457 45.6646 32.8633 46.2255C33.2228 46.8761 33.2677 47.6614 33.0206 48.3569Z" fill="#52C7EA"/>
<path d="M36.7693 52.2156C35.2415 51.3407 33.9159 50.174 32.815 48.8054C32.5903 49.1868 32.2757 49.5234 31.8713 49.7477C31.6242 49.8823 31.3546 49.9945 31.0625 50.0394C33.6238 53.315 37.3534 55.4913 41.4874 56.0746C41.2178 55.3791 41.2852 54.5938 41.6672 53.9432C39.9372 53.674 38.2746 53.0906 36.7693 52.2156Z" fill="#52C7EA"/>
<path d="M24.3432 52.2157C22.8379 53.0907 21.1753 53.674 19.4453 53.9657C19.8048 54.6163 19.8497 55.4015 19.6026 56.097C23.7366 55.4913 27.4662 53.315 30.0275 50.0394C29.2861 49.9048 28.657 49.4561 28.275 48.8279C27.1741 50.1965 25.8486 51.3407 24.3432 52.2157Z" fill="#52C7EA"/>
<path d="M41.718 56.5681C36.7302 62.7155 27.6983 63.6802 21.5422 58.6995C20.7558 58.0713 20.0368 57.3534 19.4077 56.5681C19.1831 56.9495 18.8685 57.2861 18.4641 57.5104C18.1945 57.6675 17.9249 57.7572 17.6328 57.8021C23.3171 64.9366 33.6971 66.1033 40.8418 60.4271C41.8079 59.6418 42.7066 58.7668 43.4705 57.8021C42.7515 57.6675 42.0999 57.2187 41.718 56.5681Z" fill="#52C7EA"/>
<path d="M17.1124 42.3669C16.663 42.3669 16.2137 42.2547 15.8317 42.0304C15.5846 41.8733 15.3374 41.6938 15.1577 41.4695C13.6074 45.3509 13.6074 49.6585 15.1352 53.5399C15.315 53.3155 15.5621 53.1136 15.8093 52.9566C16.1912 52.7322 16.6406 52.62 17.0674 52.62C15.8093 49.2995 15.8093 45.6425 17.1124 42.3669Z" fill="#52C7EA"/>
<path d="M19.4077 41.1101C19.0258 41.7607 18.3742 42.187 17.6328 42.3216C20.2166 45.5748 23.9462 47.7511 28.0802 48.3793C27.8331 47.6613 27.878 46.8761 28.2599 46.2254C24.7775 45.6421 21.632 43.8248 19.4077 41.1101Z" fill="#52C7EA"/>
<path d="M1.7201 30.3183C2.21438 29.735 2.93334 29.4209 3.67477 29.3985C3.49503 28.9498 3.33776 28.4786 3.20295 28.0075C1.13594 20.3345 5.69685 12.4371 13.3807 10.3954C13.8526 10.2833 14.3244 10.1711 14.8187 10.1038C14.4367 9.45314 14.3693 8.64546 14.6389 7.94995C14.0323 8.03969 13.4257 8.17431 12.8415 8.33136C4.01178 10.6871 -1.22315 19.7736 1.13594 28.5908C1.31568 29.1741 1.49542 29.735 1.7201 30.3183Z" fill="#52C7EA"/>
<path d="M8.86659 38.6199C10.664 39.6519 12.6411 40.3474 14.6857 40.6391C14.4385 39.9211 14.4835 39.1359 14.843 38.4853C11.3605 37.9468 8.21503 36.1295 5.99075 33.4148C5.6088 34.043 4.95724 34.4917 4.23828 34.6263C5.49646 36.2193 7.06919 37.5878 8.86659 38.6199Z" fill="#52C7EA"/>
<path d="M13.4048 53.6517C5.7209 51.5876 1.16 43.7126 3.20454 36.0396C3.33935 35.5685 3.49662 35.0973 3.67636 34.6486C3.22701 34.6486 2.77766 34.5364 2.39571 34.3121C2.14857 34.155 1.90142 33.9531 1.72168 33.7288C1.49701 34.2897 1.2948 34.8954 1.13753 35.4787C-1.22156 44.296 3.9909 53.3376 12.8206 55.7157C13.4273 55.8728 14.0339 56.0074 14.6405 56.0971C14.3934 55.3792 14.4608 54.6164 14.8202 53.9658C14.3709 53.876 13.8766 53.7863 13.4048 53.6517Z" fill="#52C7EA"/>
<path d="M17.1124 21.6582C15.8317 18.3825 15.8317 14.748 17.0899 11.4724C16.3485 11.4499 15.6295 11.1134 15.1352 10.5525C13.6074 14.4339 13.6074 18.7415 15.1577 22.6005C15.6295 22.0171 16.3485 21.6582 17.1124 21.6582Z" fill="#52C7EA"/>
<path d="M14.5284 24.283C14.5284 23.9913 14.5958 23.6996 14.6857 23.4304C10.5517 24.0362 6.82205 26.19 4.23828 29.4432C4.53036 29.4881 4.82244 29.6002 5.06958 29.7348C5.45153 29.9592 5.76607 30.2733 5.99075 30.6547C8.21503 27.9176 11.383 26.1003 14.8879 25.5618C14.6407 25.1804 14.5284 24.7317 14.5284 24.283Z" fill="#52C7EA"/>
<path d="M28.0958 15.6682C23.9843 16.2964 20.2547 18.4502 17.6484 21.7034C18.3899 21.838 19.019 22.2867 19.4009 22.9374C21.6252 20.2227 24.7706 18.4054 28.2531 17.8445C27.8936 17.1714 27.8262 16.3862 28.0958 15.6682Z" fill="#52C7EA"/>
<path d="M17.0893 26.9084C16.3479 26.8859 15.629 26.5494 15.1571 25.9661C13.6293 29.8474 13.6069 34.1551 15.1347 38.0365C15.629 37.4756 16.3254 37.1166 17.0669 37.1166C15.8312 33.8186 15.8312 30.184 17.0893 26.9084Z" fill="#52C7EA"/>
</svg>
