<svg width="95" height="101" viewBox="0 0 95 101" fill="none" xmlns="http://www.w3.org/2000/svg">
<path d="M26.6776 15.9922C27.8392 15.9922 28.7809 15.051 28.7809 13.89C28.7809 12.729 27.8392 11.7878 26.6776 11.7878C25.5159 11.7878 24.5742 12.729 24.5742 13.89C24.5742 15.051 25.5159 15.9922 26.6776 15.9922Z" fill="black"/>
<path d="M26.7127 40.1321C27.8744 40.1321 28.8161 39.1909 28.8161 38.0299C28.8161 36.8689 27.8744 35.9277 26.7127 35.9277C25.5511 35.9277 24.6094 36.8689 24.6094 38.0299C24.6094 39.1909 25.5511 40.1321 26.7127 40.1321Z" fill="black"/>
<path d="M68.533 88.447C69.6947 88.447 70.6364 87.5058 70.6364 86.3448C70.6364 85.1838 69.6947 84.2427 68.533 84.2427C67.3714 84.2427 66.4297 85.1838 66.4297 86.3448C66.4297 87.5058 67.3714 88.447 68.533 88.447Z" fill="black"/>
<path d="M5.78303 52.2195C6.94468 52.2195 7.88638 51.2783 7.88638 50.1173C7.88638 48.9563 6.94468 48.0151 5.78303 48.0151C4.62139 48.0151 3.67969 48.9563 3.67969 50.1173C3.67969 51.2783 4.62139 52.2195 5.78303 52.2195Z" fill="black"/>
<path d="M89.4627 52.2195C90.6244 52.2195 91.5661 51.2783 91.5661 50.1173C91.5661 48.9563 90.6244 48.0151 89.4627 48.0151C88.3011 48.0151 87.3594 48.9563 87.3594 50.1173C87.3594 51.2783 88.3011 52.2195 89.4627 52.2195Z" fill="black"/>
<path d="M68.533 15.9924C69.6947 15.9924 70.6364 15.0512 70.6364 13.8902C70.6364 12.7293 69.6947 11.7881 68.533 11.7881C67.3714 11.7881 66.4297 12.7293 66.4297 13.8902C66.4297 15.0512 67.3714 15.9924 68.533 15.9924Z" fill="black"/>
<path d="M68.533 64.3069C69.6947 64.3069 70.6364 63.3657 70.6364 62.2047C70.6364 61.0437 69.6947 60.1025 68.533 60.1025C67.3714 60.1025 66.4297 61.0437 66.4297 62.2047C66.4297 63.3657 67.3714 64.3069 68.533 64.3069Z" fill="black"/>
<path d="M26.7127 64.272C27.8744 64.272 28.8161 63.3308 28.8161 62.1698C28.8161 61.0088 27.8744 60.0676 26.7127 60.0676C25.5511 60.0676 24.6094 61.0088 24.6094 62.1698C24.6094 63.3308 25.5511 64.272 26.7127 64.272Z" fill="black"/>
<path d="M68.533 40.1672C69.6947 40.1672 70.6364 39.226 70.6364 38.0651C70.6364 36.9041 69.6947 35.9629 68.533 35.9629C67.3714 35.9629 66.4297 36.9041 66.4297 38.0651C66.4297 39.226 67.3714 40.1672 68.533 40.1672Z" fill="black"/>
<path d="M47.6073 76.3594C48.7689 76.3594 49.7106 75.4182 49.7106 74.2572C49.7106 73.0962 48.7689 72.155 47.6073 72.155C46.4456 72.155 45.5039 73.0962 45.5039 74.2572C45.5039 75.4182 46.4456 76.3594 47.6073 76.3594Z" fill="black"/>
<path d="M47.6424 28.0798C48.8041 28.0798 49.7458 27.1386 49.7458 25.9777C49.7458 24.8167 48.8041 23.8755 47.6424 23.8755C46.4808 23.8755 45.5391 24.8167 45.5391 25.9777C45.5391 27.1386 46.4808 28.0798 47.6424 28.0798Z" fill="black"/>
<path d="M26.6776 88.447C27.8392 88.447 28.7809 87.5058 28.7809 86.3448C28.7809 85.1838 27.8392 84.2427 26.6776 84.2427C25.5159 84.2427 24.5742 85.1838 24.5742 86.3448C24.5742 87.5058 25.5159 88.447 26.6776 88.447Z" fill="black"/>
<path d="M30.2149 11.7879C37.9973 2.18806 52.0547 0.681512 61.695 8.45951C62.9219 9.44052 64.0437 10.5617 65.0253 11.7879C65.3759 11.1923 65.8666 10.6668 66.4976 10.3164C66.9183 10.0712 67.339 9.93103 67.8298 9.86096C58.9606 -1.28051 42.7298 -3.10238 31.6171 5.76174C30.1098 6.988 28.7075 8.35441 27.5156 9.86096C28.6024 10.1062 29.619 10.8069 30.2149 11.7879Z" fill="black"/>
<path d="M51.1445 23.8752C54.58 19.6008 59.4878 16.7629 64.9214 15.887C64.3605 14.871 64.2554 13.6447 64.676 12.5586C58.2608 13.5046 52.4416 16.868 48.4102 21.9833C49.567 22.1585 50.5486 22.8592 51.1445 23.8752Z" fill="black"/>
<path d="M37.9273 18.585C40.3111 19.9514 42.3794 21.7733 44.0971 23.9105C44.4477 23.3149 44.9385 22.7894 45.5695 22.439C45.9551 22.2288 46.3758 22.0536 46.8315 21.9835C42.8351 16.8683 36.9808 13.4698 30.5656 12.5588C30.7409 12.9793 30.811 13.4698 30.811 13.9252C30.811 14.626 30.6357 15.2916 30.2852 15.8873C32.9845 16.3077 35.5786 17.2186 37.9273 18.585Z" fill="black"/>
<path d="M68.5703 33.9657C69.7622 33.9657 70.884 34.4912 71.6552 35.4021C74.0741 29.3409 74.0741 22.614 71.6903 16.5527C71.3748 16.9031 71.0242 17.2184 70.6035 17.4637C70.0076 17.814 69.3415 17.9892 68.6404 17.9892C70.6386 23.1395 70.6035 28.8154 68.5703 33.9657Z" fill="black"/>
<path d="M65.0269 35.928C65.6229 34.9119 66.6395 34.2462 67.7963 34.036C63.7649 28.9558 57.9457 25.5923 51.5304 24.6113C51.9161 25.7325 51.8109 26.9587 51.25 27.9748C56.6486 28.8507 61.5564 31.6886 65.0269 35.928Z" fill="black"/>
<path d="M74.3529 16.3427C86.342 19.531 93.4233 31.8287 90.2332 43.776C90.0229 44.5467 89.7775 45.2825 89.497 46.0183C90.1982 46.0183 90.8993 46.1934 91.4952 46.5438C91.9159 46.7891 92.2664 47.1044 92.5819 47.4547C92.9325 46.5438 93.248 45.6329 93.4934 44.7219C97.1743 30.9528 89.0063 16.7982 75.2293 13.0844C74.2828 12.8391 73.3714 12.6289 72.3898 12.4888C72.7754 13.6099 72.6703 14.8362 72.1094 15.8522C72.8806 15.9924 73.6168 16.1325 74.3529 16.3427Z" fill="black"/>
<path d="M81.4693 39.8168C78.6648 38.2052 75.5799 37.119 72.3898 36.6636C72.7754 37.7847 72.7053 39.011 72.1094 40.027C77.543 40.8679 82.4508 43.6708 85.9213 47.9452C86.5173 46.9642 87.5339 46.2635 88.6908 46.0532C86.6926 43.5657 84.2387 41.4285 81.4693 39.8168Z" fill="black"/>
<path d="M72.6351 62.2048C72.6351 62.6602 72.565 63.1157 72.3897 63.5712C78.84 62.6602 84.6592 59.2617 88.6907 54.1815C87.5338 54.0063 86.5172 53.3056 85.9212 52.2896C82.4507 56.5639 77.5079 59.4019 72.0742 60.2427C72.4598 60.8033 72.6351 61.504 72.6351 62.2048Z" fill="black"/>
<path d="M68.6016 58.1057C69.7935 58.1407 70.8802 58.6662 71.6514 59.5772C74.0352 53.5159 74.0352 46.789 71.6514 40.7278C70.8802 41.6037 69.7935 42.1292 68.6366 42.1643C70.5997 47.2795 70.5647 52.9554 68.6016 58.1057Z" fill="black"/>
<path d="M68.6367 82.2453C69.8286 82.2803 70.9153 82.8059 71.6866 83.7168C74.1054 77.6556 74.0704 70.9287 71.6866 64.8674C70.9153 65.7784 69.8286 66.3039 68.6367 66.3389C70.5998 71.4192 70.5998 77.095 68.6367 82.2453Z" fill="black"/>
<path d="M93.4935 55.5131C93.2481 54.5671 92.9326 53.6562 92.582 52.7803C91.8108 53.6912 90.689 54.2168 89.5322 54.2168C89.8126 54.9175 90.058 55.6532 90.2684 56.389C93.4935 68.3713 86.3772 80.704 74.3881 83.9273C73.6519 84.1025 72.9158 84.2777 72.1445 84.3828C72.7405 85.3988 72.8456 86.6601 72.425 87.7462C73.3715 87.6061 74.318 87.3959 75.2645 87.1506C89.0063 83.4368 97.2094 69.2822 93.4935 55.5131Z" fill="black"/>
<path d="M51.4602 75.6236C57.9105 74.6777 63.7297 71.3142 67.7962 66.234C66.6394 66.0238 65.6228 65.3231 65.0268 64.342C61.5563 68.5814 56.6485 71.4193 51.2148 72.2952C51.7757 73.3113 51.8458 74.5375 51.4602 75.6236Z" fill="black"/>
<path d="M57.3143 81.6497C54.9305 80.2833 52.8622 78.4614 51.1445 76.3242C50.7939 76.9198 50.3032 77.4454 49.6722 77.7957C49.2866 78.006 48.8659 78.1811 48.4102 78.2512C52.4065 83.3665 58.2258 86.765 64.676 87.6759C64.2554 86.5898 64.3605 85.3635 64.9565 84.3475C62.2572 83.927 59.6631 83.0161 57.3143 81.6497Z" fill="black"/>
<path d="M37.9273 81.6498C35.5786 83.0162 32.9845 83.9272 30.2852 84.3826C30.846 85.3987 30.9162 86.6249 30.5305 87.7111C36.9808 86.7651 42.8001 83.3666 46.7964 78.2513C45.6396 78.0411 44.658 77.3404 44.0621 76.3594C42.3443 78.4966 40.2761 80.2834 37.9273 81.6498Z" fill="black"/>
<path d="M65.029 88.4468C57.2466 98.0467 43.1542 99.5532 33.5489 91.7752C32.322 90.7942 31.2002 89.673 30.2186 88.4468C29.8681 89.0424 29.3773 89.5679 28.7463 89.9183C28.3256 90.1635 27.9049 90.3037 27.4492 90.3738C36.3183 101.515 52.5141 103.337 63.6618 94.473C65.1692 93.2467 66.5714 91.8803 67.7633 90.3738C66.6416 90.1635 65.6249 89.4628 65.029 88.4468Z" fill="black"/>
<path d="M26.6418 66.2689C25.9407 66.2689 25.2396 66.0937 24.6437 65.7433C24.258 65.4981 23.8724 65.2178 23.592 64.8674C21.1731 70.9287 21.1731 77.6556 23.5569 83.7168C23.8374 83.3665 24.223 83.0511 24.6086 82.8059C25.2045 82.4555 25.9057 82.2803 26.5717 82.2803C24.6086 77.095 24.6086 71.3841 26.6418 66.2689Z" fill="black"/>
<path d="M30.2186 64.3071C29.6227 65.3232 28.6061 65.9889 27.4492 66.1991C31.4806 71.2793 37.2999 74.6778 43.7502 75.6588C43.3645 74.5377 43.4346 73.3114 44.0306 72.2953C38.597 71.3844 33.6891 68.5465 30.2186 64.3071Z" fill="black"/>
<path d="M2.62993 47.4546C3.40116 46.5437 4.52294 46.0532 5.67978 46.0181C5.39934 45.3174 5.15395 44.5817 4.94361 43.8459C1.71848 31.8636 8.8348 19.5309 20.8239 16.3426C21.56 16.1674 22.2962 15.9922 23.0674 15.8871C22.4715 14.8711 22.3663 13.6098 22.787 12.5237C21.8405 12.6638 20.894 12.874 19.9825 13.1193C6.20562 16.7981 -1.96237 30.9877 1.71848 44.7568C1.99893 45.6678 2.27937 46.5437 2.62993 47.4546Z" fill="black"/>
<path d="M13.7801 60.4179C16.5845 62.0296 19.6695 63.1157 22.8595 63.5712C22.4739 62.45 22.544 61.2237 23.1049 60.2077C17.6713 59.3668 12.7635 56.5289 9.29294 52.2896C8.697 53.2706 7.68038 53.9713 6.55859 54.1815C8.52172 56.6691 10.9756 58.8063 13.7801 60.4179Z" fill="black"/>
<path d="M20.8575 83.8923C8.86843 80.669 1.75211 68.3713 4.94218 56.389C5.15252 55.6532 5.39791 54.9175 5.67835 54.2168C4.97724 54.2168 4.27612 54.0416 3.68017 53.6912C3.29456 53.446 2.90895 53.1306 2.6285 52.7803C2.27794 53.6562 1.96244 54.6021 1.71705 55.5131C-1.9638 69.2823 6.16913 83.4018 19.946 87.1156C20.8926 87.3609 21.8391 87.5711 22.7856 87.7112C22.4 86.5901 22.5051 85.3988 23.066 84.3828C22.3649 84.2426 21.5937 84.1025 20.8575 83.8923Z" fill="black"/>
<path d="M26.6418 33.9307C24.6437 28.8155 24.6437 23.1396 26.6068 18.0244C25.4499 17.9893 24.3282 17.4638 23.5569 16.5879C21.1731 22.6491 21.1731 29.376 23.592 35.4022C24.3282 34.4913 25.4499 33.9307 26.6418 33.9307Z" fill="black"/>
<path d="M22.6141 38.0301C22.6141 37.5746 22.7193 37.1192 22.8595 36.6987C16.4093 37.6447 10.59 41.0082 6.55859 46.0884C7.01432 46.1585 7.47004 46.3336 7.85566 46.5439C8.45161 46.8942 8.94239 47.3847 9.29294 47.9803C12.7635 43.7059 17.7063 40.868 23.175 40.0272C22.7894 39.4315 22.6141 38.7308 22.6141 38.0301Z" fill="black"/>
<path d="M43.7853 24.5762C37.3701 25.5572 31.5508 28.9206 27.4844 34.0009C28.6412 34.2111 29.6228 34.9118 30.2187 35.9279C33.6892 31.6885 38.5971 28.8506 44.0307 27.9747C43.4698 26.9236 43.3646 25.6973 43.7853 24.5762Z" fill="black"/>
<path d="M26.6054 42.1292C25.4486 42.0942 24.3268 41.5687 23.5906 40.6577C21.2068 46.719 21.1718 53.4459 23.5556 59.5071C24.3268 58.6312 25.4135 58.0706 26.5704 58.0706C24.6423 52.9203 24.6423 47.2445 26.6054 42.1292Z" fill="black"/>
</svg>
