<svg width="94" height="101" viewBox="0 0 94 101" fill="none" xmlns="http://www.w3.org/2000/svg">
<path d="M25.8963 15.9922C27.058 15.9922 27.9997 15.051 27.9997 13.89C27.9997 12.729 27.058 11.7878 25.8963 11.7878C24.7347 11.7878 23.793 12.729 23.793 13.89C23.793 15.051 24.7347 15.9922 25.8963 15.9922Z" fill="white"/>
<path d="M25.9315 40.1321C27.0931 40.1321 28.0348 39.1909 28.0348 38.0299C28.0348 36.8689 27.0931 35.9277 25.9315 35.9277C24.7698 35.9277 23.8281 36.8689 23.8281 38.0299C23.8281 39.1909 24.7698 40.1321 25.9315 40.1321Z" fill="white"/>
<path d="M67.7518 88.447C68.9134 88.447 69.8551 87.5058 69.8551 86.3448C69.8551 85.1838 68.9134 84.2427 67.7518 84.2427C66.5901 84.2427 65.6484 85.1838 65.6484 86.3448C65.6484 87.5058 66.5901 88.447 67.7518 88.447Z" fill="white"/>
<path d="M5.00178 52.2195C6.16343 52.2195 7.10513 51.2783 7.10513 50.1173C7.10513 48.9563 6.16343 48.0151 5.00178 48.0151C3.84014 48.0151 2.89844 48.9563 2.89844 50.1173C2.89844 51.2783 3.84014 52.2195 5.00178 52.2195Z" fill="white"/>
<path d="M88.6815 52.2195C89.8431 52.2195 90.7848 51.2783 90.7848 50.1173C90.7848 48.9563 89.8431 48.0151 88.6815 48.0151C87.5198 48.0151 86.5781 48.9563 86.5781 50.1173C86.5781 51.2783 87.5198 52.2195 88.6815 52.2195Z" fill="white"/>
<path d="M67.7518 15.9924C68.9134 15.9924 69.8551 15.0512 69.8551 13.8902C69.8551 12.7293 68.9134 11.7881 67.7518 11.7881C66.5901 11.7881 65.6484 12.7293 65.6484 13.8902C65.6484 15.0512 66.5901 15.9924 67.7518 15.9924Z" fill="white"/>
<path d="M67.7518 64.3069C68.9134 64.3069 69.8551 63.3657 69.8551 62.2047C69.8551 61.0437 68.9134 60.1025 67.7518 60.1025C66.5901 60.1025 65.6484 61.0437 65.6484 62.2047C65.6484 63.3657 66.5901 64.3069 67.7518 64.3069Z" fill="white"/>
<path d="M25.9315 64.272C27.0931 64.272 28.0348 63.3308 28.0348 62.1698C28.0348 61.0088 27.0931 60.0676 25.9315 60.0676C24.7698 60.0676 23.8281 61.0088 23.8281 62.1698C23.8281 63.3308 24.7698 64.272 25.9315 64.272Z" fill="white"/>
<path d="M67.7518 40.1672C68.9134 40.1672 69.8551 39.226 69.8551 38.0651C69.8551 36.9041 68.9134 35.9629 67.7518 35.9629C66.5901 35.9629 65.6484 36.9041 65.6484 38.0651C65.6484 39.226 66.5901 40.1672 67.7518 40.1672Z" fill="white"/>
<path d="M46.826 76.3594C47.9876 76.3594 48.9293 75.4182 48.9293 74.2572C48.9293 73.0962 47.9876 72.155 46.826 72.155C45.6644 72.155 44.7227 73.0962 44.7227 74.2572C44.7227 75.4182 45.6644 76.3594 46.826 76.3594Z" fill="white"/>
<path d="M46.8612 28.0798C48.0228 28.0798 48.9645 27.1386 48.9645 25.9777C48.9645 24.8167 48.0228 23.8755 46.8612 23.8755C45.6995 23.8755 44.7578 24.8167 44.7578 25.9777C44.7578 27.1386 45.6995 28.0798 46.8612 28.0798Z" fill="white"/>
<path d="M25.8963 88.447C27.058 88.447 27.9997 87.5058 27.9997 86.3448C27.9997 85.1838 27.058 84.2427 25.8963 84.2427C24.7347 84.2427 23.793 85.1838 23.793 86.3448C23.793 87.5058 24.7347 88.447 25.8963 88.447Z" fill="white"/>
<path d="M29.4337 11.7879C37.216 2.18806 51.2734 0.681512 60.9137 8.45951C62.1407 9.44052 63.2625 10.5617 64.244 11.7879C64.5946 11.1923 65.0854 10.6668 65.7164 10.3164C66.1371 10.0712 66.5577 9.93103 67.0485 9.86096C58.1794 -1.28051 41.9486 -3.10238 30.8359 5.76174C29.3285 6.988 27.9263 8.35441 26.7344 9.86096C27.8211 10.1062 28.8377 10.8069 29.4337 11.7879Z" fill="white"/>
<path d="M50.3633 23.8752C53.7987 19.6008 58.7065 16.7629 64.1402 15.887C63.5793 14.871 63.4741 13.6447 63.8948 12.5586C57.4796 13.5046 51.6603 16.868 47.6289 21.9833C48.7857 22.1585 49.7673 22.8592 50.3633 23.8752Z" fill="white"/>
<path d="M37.1461 18.585C39.5299 19.9514 41.5981 21.7733 43.3159 23.9105C43.6664 23.3149 44.1572 22.7894 44.7882 22.439C45.1738 22.2288 45.5945 22.0536 46.0502 21.9835C42.0539 16.8683 36.1996 13.4698 29.7844 12.5588C29.9596 12.9793 30.0297 13.4698 30.0297 13.9252C30.0297 14.626 29.8545 15.2916 29.5039 15.8873C32.2032 16.3077 34.7973 17.2186 37.1461 18.585Z" fill="white"/>
<path d="M67.7891 33.9657C68.981 33.9657 70.1027 34.4912 70.874 35.4021C73.2928 29.3409 73.2928 22.614 70.909 16.5527C70.5935 16.9031 70.243 17.2184 69.8223 17.4637C69.2263 17.814 68.5603 17.9892 67.8592 17.9892C69.8573 23.1395 69.8223 28.8154 67.7891 33.9657Z" fill="white"/>
<path d="M64.2457 35.928C64.8416 34.9119 65.8582 34.2462 67.0151 34.036C62.9837 28.9558 57.1644 25.5923 50.7492 24.6113C51.1348 25.7325 51.0296 26.9587 50.4688 27.9748C55.8673 28.8507 60.7752 31.6886 64.2457 35.928Z" fill="white"/>
<path d="M73.5717 16.3427C85.5608 19.531 92.642 31.8287 89.452 43.776C89.2416 44.5467 88.9962 45.2825 88.7158 46.0183C89.4169 46.0183 90.118 46.1934 90.714 46.5438C91.1346 46.7891 91.4852 47.1044 91.8007 47.4547C92.1513 46.5438 92.4668 45.6329 92.7121 44.7219C96.393 30.9528 88.225 16.7982 74.4481 13.0844C73.5016 12.8391 72.5901 12.6289 71.6086 12.4888C71.9942 13.6099 71.889 14.8362 71.3281 15.8522C72.0994 15.9924 72.8355 16.1325 73.5717 16.3427Z" fill="white"/>
<path d="M80.688 39.8168C77.8836 38.2052 74.7986 37.119 71.6086 36.6636C71.9942 37.7847 71.9241 39.011 71.3281 40.027C76.7618 40.8679 81.6696 43.6708 85.1401 47.9452C85.736 46.9642 86.7527 46.2635 87.9095 46.0532C85.9113 43.5657 83.4574 41.4285 80.688 39.8168Z" fill="white"/>
<path d="M71.8539 62.2048C71.8539 62.6602 71.7837 63.1157 71.6085 63.5712C78.0587 62.6602 83.878 59.2617 87.9094 54.1815C86.7526 54.0063 85.7359 53.3056 85.14 52.2896C81.6695 56.5639 76.7266 59.4019 71.293 60.2427C71.6786 60.8033 71.8539 61.504 71.8539 62.2048Z" fill="white"/>
<path d="M67.8203 58.1057C69.0122 58.1407 70.0989 58.6662 70.8702 59.5772C73.254 53.5159 73.254 46.789 70.8702 40.7278C70.0989 41.6037 69.0122 42.1292 67.8554 42.1643C69.8185 47.2795 69.7834 52.9554 67.8203 58.1057Z" fill="white"/>
<path d="M67.8555 82.2453C69.0474 82.2803 70.1341 82.8059 70.9053 83.7168C73.3242 77.6556 73.2891 70.9287 70.9053 64.8674C70.1341 65.7784 69.0474 66.3039 67.8555 66.3389C69.8186 71.4192 69.8186 77.095 67.8555 82.2453Z" fill="white"/>
<path d="M92.7122 55.5131C92.4669 54.5671 92.1513 53.6562 91.8008 52.7803C91.0296 53.6912 89.9078 54.2168 88.7509 54.2168C89.0314 54.9175 89.2768 55.6532 89.4871 56.389C92.7122 68.3713 85.5959 80.704 73.6069 83.9273C72.8707 84.1025 72.1345 84.2777 71.3633 84.3828C71.9592 85.3988 72.0644 86.6601 71.6437 87.7462C72.5902 87.6061 73.5367 87.3959 74.4832 87.1506C88.2251 83.4368 96.4282 69.2822 92.7122 55.5131Z" fill="white"/>
<path d="M50.679 75.6236C57.1292 74.6777 62.9485 71.3142 67.015 66.234C65.8581 66.0238 64.8415 65.3231 64.2456 64.342C60.775 68.5814 55.8672 71.4193 50.4336 72.2952C50.9945 73.3113 51.0646 74.5375 50.679 75.6236Z" fill="white"/>
<path d="M56.5331 81.6497C54.1493 80.2833 52.081 78.4614 50.3633 76.3242C50.0127 76.9198 49.5219 77.4454 48.8909 77.7957C48.5053 78.006 48.0846 78.1811 47.6289 78.2512C51.6253 83.3665 57.4445 86.765 63.8948 87.6759C63.4741 86.5898 63.5793 85.3635 64.1752 84.3475C61.4759 83.927 58.8818 83.0161 56.5331 81.6497Z" fill="white"/>
<path d="M37.1461 81.6498C34.7973 83.0162 32.2032 83.9272 29.5039 84.3826C30.0648 85.3987 30.1349 86.6249 29.7493 87.7111C36.1996 86.7651 42.0188 83.3666 46.0152 78.2513C44.8583 78.0411 43.8768 77.3404 43.2808 76.3594C41.5631 78.4966 39.4948 80.2834 37.1461 81.6498Z" fill="white"/>
<path d="M64.2477 88.4468C56.4654 98.0467 42.3729 99.5532 32.7677 91.7752C31.5407 90.7942 30.4189 89.673 29.4374 88.4468C29.0868 89.0424 28.596 89.5679 27.965 89.9183C27.5444 90.1635 27.1237 90.3037 26.668 90.3738C35.5371 101.515 51.7328 103.337 62.8806 94.473C64.388 93.2467 65.7902 91.8803 66.9821 90.3738C65.8603 90.1635 64.8437 89.4628 64.2477 88.4468Z" fill="white"/>
<path d="M25.8606 66.2689C25.1595 66.2689 24.4584 66.0937 23.8624 65.7433C23.4768 65.4981 23.0912 65.2178 22.8107 64.8674C20.3919 70.9287 20.3919 77.6556 22.7757 83.7168C23.0561 83.3665 23.4417 83.0511 23.8273 82.8059C24.4233 82.4555 25.1244 82.2803 25.7905 82.2803C23.8273 77.095 23.8273 71.3841 25.8606 66.2689Z" fill="white"/>
<path d="M29.4374 64.3071C28.8414 65.3232 27.8248 65.9889 26.668 66.1991C30.6994 71.2793 36.5186 74.6778 42.9689 75.6588C42.5833 74.5377 42.6534 73.3114 43.2493 72.2953C37.8157 71.3844 32.9079 68.5465 29.4374 64.3071Z" fill="white"/>
<path d="M1.84868 47.4546C2.61991 46.5437 3.74169 46.0532 4.89853 46.0181C4.61809 45.3174 4.3727 44.5817 4.16236 43.8459C0.937231 31.8636 8.05355 19.5309 20.0426 16.3426C20.7788 16.1674 21.515 15.9922 22.2862 15.8871C21.6902 14.8711 21.5851 13.6098 22.0057 12.5237C21.0592 12.6638 20.1127 12.874 19.2013 13.1193C5.42437 16.7981 -2.74362 30.9877 0.937231 44.7568C1.21768 45.6678 1.49812 46.5437 1.84868 47.4546Z" fill="white"/>
<path d="M12.9988 60.4179C15.8033 62.0296 18.8882 63.1157 22.0783 63.5712C21.6927 62.45 21.7628 61.2237 22.3237 60.2077C16.89 59.3668 11.9822 56.5289 8.51169 52.2896C7.91575 53.2706 6.89913 53.9713 5.77734 54.1815C7.74047 56.6691 10.1944 58.8063 12.9988 60.4179Z" fill="white"/>
<path d="M20.0762 83.8923C8.08718 80.669 0.970856 68.3713 4.16093 56.389C4.37127 55.6532 4.61666 54.9175 4.8971 54.2168C4.19599 54.2168 3.49487 54.0416 2.89892 53.6912C2.51331 53.446 2.1277 53.1306 1.84725 52.7803C1.49669 53.6562 1.18119 54.6021 0.9358 55.5131C-2.74505 69.2823 5.38788 83.4018 19.1648 87.1156C20.1113 87.3609 21.0578 87.5711 22.0043 87.7112C21.6187 86.5901 21.7239 85.3988 22.2848 84.3828C21.5836 84.2426 20.8124 84.1025 20.0762 83.8923Z" fill="white"/>
<path d="M25.8606 33.9307C23.8624 28.8155 23.8624 23.1396 25.8255 18.0244C24.6687 17.9893 23.5469 17.4638 22.7757 16.5879C20.3919 22.6491 20.3919 29.376 22.8107 35.4022C23.5469 34.4913 24.6687 33.9307 25.8606 33.9307Z" fill="white"/>
<path d="M21.8329 38.0301C21.8329 37.5746 21.9381 37.1192 22.0783 36.6987C15.628 37.6447 9.80876 41.0082 5.77734 46.0884C6.23307 46.1585 6.68879 46.3336 7.07441 46.5439C7.67036 46.8942 8.16114 47.3847 8.51169 47.9803C11.9822 43.7059 16.9251 40.868 22.3938 40.0272C22.0082 39.4315 21.8329 38.7308 21.8329 38.0301Z" fill="white"/>
<path d="M43.0041 24.5762C36.5889 25.5572 30.7696 28.9206 26.7031 34.0009C27.86 34.2111 28.8415 34.9118 29.4375 35.9279C32.908 31.6885 37.8158 28.8506 43.2494 27.9747C42.6886 26.9236 42.5834 25.6973 43.0041 24.5762Z" fill="white"/>
<path d="M25.8242 42.1292C24.6673 42.0942 23.5455 41.5687 22.8094 40.6577C20.4256 46.719 20.3905 53.4459 22.7743 59.5071C23.5455 58.6312 24.6323 58.0706 25.7891 58.0706C23.861 52.9203 23.861 47.2445 25.8242 42.1292Z" fill="white"/>
</svg>
