<svg width="94" height="101" viewBox="0 0 94 101" fill="none" xmlns="http://www.w3.org/2000/svg">
<path d="M26.1151 15.9453C27.2767 15.9453 28.2184 15.0041 28.2184 13.8431C28.2184 12.6821 27.2767 11.741 26.1151 11.741C24.9534 11.741 24.0117 12.6821 24.0117 13.8431C24.0117 15.0041 24.9534 15.9453 26.1151 15.9453Z" fill="#EC432D"/>
<path d="M26.1502 40.0852C27.3119 40.0852 28.2536 39.144 28.2536 37.983C28.2536 36.822 27.3119 35.8809 26.1502 35.8809C24.9886 35.8809 24.0469 36.822 24.0469 37.983C24.0469 39.144 24.9886 40.0852 26.1502 40.0852Z" fill="#EC432D"/>
<path d="M67.9705 88.4001C69.1322 88.4001 70.0739 87.459 70.0739 86.298C70.0739 85.137 69.1322 84.1958 67.9705 84.1958C66.8089 84.1958 65.8672 85.137 65.8672 86.298C65.8672 87.459 66.8089 88.4001 67.9705 88.4001Z" fill="#EC432D"/>
<path d="M5.22053 52.1726C6.38218 52.1726 7.32388 51.2314 7.32388 50.0704C7.32388 48.9094 6.38218 47.9683 5.22053 47.9683C4.05889 47.9683 3.11719 48.9094 3.11719 50.0704C3.11719 51.2314 4.05889 52.1726 5.22053 52.1726Z" fill="#EC432D"/>
<path d="M88.9002 52.1726C90.0619 52.1726 91.0036 51.2314 91.0036 50.0704C91.0036 48.9094 90.0619 47.9683 88.9002 47.9683C87.7386 47.9683 86.7969 48.9094 86.7969 50.0704C86.7969 51.2314 87.7386 52.1726 88.9002 52.1726Z" fill="#EC432D"/>
<path d="M67.9705 15.9455C69.1322 15.9455 70.0739 15.0044 70.0739 13.8434C70.0739 12.6824 69.1322 11.7412 67.9705 11.7412C66.8089 11.7412 65.8672 12.6824 65.8672 13.8434C65.8672 15.0044 66.8089 15.9455 67.9705 15.9455Z" fill="#EC432D"/>
<path d="M67.9705 64.26C69.1322 64.26 70.0739 63.3188 70.0739 62.1578C70.0739 60.9968 69.1322 60.0557 67.9705 60.0557C66.8089 60.0557 65.8672 60.9968 65.8672 62.1578C65.8672 63.3188 66.8089 64.26 67.9705 64.26Z" fill="#EC432D"/>
<path d="M26.1502 64.2253C27.3119 64.2253 28.2536 63.2841 28.2536 62.1232C28.2536 60.9622 27.3119 60.021 26.1502 60.021C24.9886 60.021 24.0469 60.9622 24.0469 62.1232C24.0469 63.2841 24.9886 64.2253 26.1502 64.2253Z" fill="#EC432D"/>
<path d="M67.9705 40.1203C69.1322 40.1203 70.0739 39.1792 70.0739 38.0182C70.0739 36.8572 69.1322 35.916 67.9705 35.916C66.8089 35.916 65.8672 36.8572 65.8672 38.0182C65.8672 39.1792 66.8089 40.1203 67.9705 40.1203Z" fill="#EC432D"/>
<path d="M47.0448 76.3127C48.2064 76.3127 49.1481 75.3715 49.1481 74.2106C49.1481 73.0496 48.2064 72.1084 47.0448 72.1084C45.8831 72.1084 44.9414 73.0496 44.9414 74.2106C44.9414 75.3715 45.8831 76.3127 47.0448 76.3127Z" fill="#EC432D"/>
<path d="M47.0799 28.0329C48.2416 28.0329 49.1833 27.0918 49.1833 25.9308C49.1833 24.7698 48.2416 23.8286 47.0799 23.8286C45.9183 23.8286 44.9766 24.7698 44.9766 25.9308C44.9766 27.0918 45.9183 28.0329 47.0799 28.0329Z" fill="#EC432D"/>
<path d="M26.1151 88.4001C27.2767 88.4001 28.2184 87.459 28.2184 86.298C28.2184 85.137 27.2767 84.1958 26.1151 84.1958C24.9534 84.1958 24.0117 85.137 24.0117 86.298C24.0117 87.459 24.9534 88.4001 26.1151 88.4001Z" fill="#EC432D"/>
<path d="M29.6524 11.7411C37.4348 2.14119 51.4922 0.634637 61.1325 8.41264C62.3594 9.39365 63.4812 10.5148 64.4628 11.7411C64.8134 11.1454 65.3041 10.6199 65.9351 10.2695C66.3558 10.0243 66.7765 9.88415 67.2673 9.81408C58.3981 -1.32738 42.1673 -3.14926 31.0546 5.71486C29.5473 6.94112 28.145 8.30753 26.9531 9.81408C28.0399 10.0593 29.0565 10.7601 29.6524 11.7411Z" fill="#52C7EA"/>
<path d="M50.582 23.8284C54.0175 19.554 58.9253 16.716 64.3589 15.8401C63.798 14.8241 63.6929 13.5978 64.1135 12.5117C57.6983 13.4577 51.8791 16.8212 47.8477 21.9364C49.0045 22.1116 49.9861 22.8123 50.582 23.8284Z" fill="#52C7EA"/>
<path d="M37.3648 18.5379C39.7486 19.9043 41.8169 21.7262 43.5346 23.8634C43.8852 23.2678 44.376 22.7422 45.007 22.3919C45.3926 22.1817 45.8133 22.0065 46.269 21.9364C42.2726 16.8212 36.4183 13.4227 30.0031 12.5117C30.1784 12.9322 30.2485 13.4227 30.2485 13.8781C30.2485 14.5788 30.0732 15.2445 29.7227 15.8401C32.422 16.2606 35.0161 17.1715 37.3648 18.5379Z" fill="#52C7EA"/>
<path d="M68.0078 33.9188C69.1997 33.9188 70.3215 34.4443 71.0927 35.3553C73.5116 29.294 73.5116 22.5671 71.1278 16.5059C70.8123 16.8562 70.4617 17.1715 70.041 17.4168C69.4451 17.7672 68.779 17.9423 68.0779 17.9423C70.0761 23.0926 70.041 28.7685 68.0078 33.9188Z" fill="#52C7EA"/>
<path d="M64.4644 35.8811C65.0604 34.8651 66.077 34.1994 67.2338 33.9892C63.2024 28.9089 57.3832 25.5455 50.9679 24.5645C51.3536 25.6856 51.2484 26.9119 50.6875 27.9279C56.0861 28.8038 60.9939 31.6417 64.4644 35.8811Z" fill="#52C7EA"/>
<path d="M73.7904 16.2959C85.7795 19.4841 92.8608 31.7818 89.6707 43.7291C89.4604 44.4999 89.215 45.2356 88.9345 45.9714C89.6357 45.9714 90.3368 46.1466 90.9327 46.4969C91.3534 46.7422 91.7039 47.0575 92.0194 47.4079C92.37 46.4969 92.6855 45.586 92.9309 44.6751C96.6118 30.9059 88.4438 16.7513 74.6668 13.0375C73.7203 12.7923 72.8089 12.582 71.8273 12.4419C72.2129 13.563 72.1078 14.7893 71.5469 15.8054C72.3181 15.9455 73.0543 16.0856 73.7904 16.2959Z" fill="#52C7EA"/>
<path d="M80.9068 39.7699C78.1023 38.1583 75.0174 37.0722 71.8273 36.6167C72.2129 37.7379 72.1428 38.9641 71.5469 39.9802C76.9805 40.821 81.8883 43.6239 85.3588 47.8983C85.9548 46.9173 86.9714 46.2166 88.1283 46.0064C86.1301 43.5188 83.6762 41.3816 80.9068 39.7699Z" fill="#52C7EA"/>
<path d="M72.0726 62.1579C72.0726 62.6133 72.0025 63.0688 71.8272 63.5243C78.2775 62.6133 84.0967 59.2148 88.1282 54.1346C86.9713 53.9594 85.9547 53.2587 85.3587 52.2427C81.8882 56.5171 76.9454 59.355 71.5117 60.1959C71.8973 60.7564 72.0726 61.4572 72.0726 62.1579Z" fill="#52C7EA"/>
<path d="M68.0391 58.0585C69.231 58.0936 70.3177 58.6191 71.0889 59.5301C73.4727 53.4688 73.4727 46.7419 71.0889 40.6807C70.3177 41.5566 69.231 42.0821 68.0741 42.1171C70.0372 47.2324 70.0022 52.9082 68.0391 58.0585Z" fill="#52C7EA"/>
<path d="M68.0742 82.1987C69.2661 82.2337 70.3528 82.7593 71.1241 83.6702C73.5429 77.609 73.5079 70.882 71.1241 64.8208C70.3528 65.7317 69.2661 66.2573 68.0742 66.2923C70.0373 71.3725 70.0373 77.0484 68.0742 82.1987Z" fill="#52C7EA"/>
<path d="M92.931 55.4662C92.6856 54.5202 92.3701 53.6093 92.0195 52.7334C91.2483 53.6443 90.1265 54.1699 88.9697 54.1699C89.2501 54.8706 89.4955 55.6064 89.7059 56.3421C92.931 68.3244 85.8147 80.6571 73.8256 83.8804C73.0894 84.0556 72.3533 84.2308 71.582 84.3359C72.178 85.352 72.2831 86.6133 71.8625 87.6994C72.809 87.5592 73.7555 87.349 74.702 87.1038C88.4438 83.3899 96.6469 69.2354 92.931 55.4662Z" fill="#52C7EA"/>
<path d="M50.8977 75.5768C57.348 74.6308 63.1672 71.2673 67.2337 66.1871C66.0769 65.9769 65.0603 65.2762 64.4643 64.2952C60.9938 68.5345 56.086 71.3724 50.6523 72.2483C51.2132 73.2644 51.2833 74.4907 50.8977 75.5768Z" fill="#52C7EA"/>
<path d="M56.7518 81.6028C54.368 80.2364 52.2997 78.4145 50.582 76.2773C50.2314 76.873 49.7407 77.3985 49.1097 77.7489C48.7241 77.9591 48.3034 78.1343 47.8477 78.2043C51.844 83.3196 57.6633 86.7181 64.1135 87.629C63.6929 86.5429 63.798 85.3166 64.394 84.3006C61.6947 83.8802 59.1006 82.9692 56.7518 81.6028Z" fill="#52C7EA"/>
<path d="M37.3648 81.6029C35.0161 82.9693 32.422 83.8803 29.7227 84.3358C30.2835 85.3518 30.3537 86.5781 29.968 87.6642C36.4183 86.7182 42.2376 83.3197 46.2339 78.2044C45.0771 77.9942 44.0955 77.2935 43.4996 76.3125C41.7818 78.4497 39.7136 80.2365 37.3648 81.6029Z" fill="#52C7EA"/>
<path d="M64.4665 88.3999C56.6841 97.9998 42.5917 99.5063 32.9864 91.7283C31.7595 90.7473 30.6377 89.6262 29.6561 88.3999C29.3056 88.9955 28.8148 89.5211 28.1838 89.8714C27.7631 90.1167 27.3424 90.2568 26.8867 90.3269C35.7558 101.468 51.9516 103.29 63.0993 94.4261C64.6067 93.1998 66.0089 91.8334 67.2008 90.3269C66.0791 90.1167 65.0624 89.4159 64.4665 88.3999Z" fill="#52C7EA"/>
<path d="M26.0793 66.222C25.3782 66.222 24.6771 66.0468 24.0812 65.6965C23.6955 65.4512 23.3099 65.1709 23.0295 64.8206C20.6106 70.8818 20.6106 77.6087 22.9944 83.67C23.2749 83.3196 23.6605 83.0043 24.0461 82.759C24.642 82.4087 25.3432 82.2335 26.0092 82.2335C24.0461 77.0481 24.0461 71.3373 26.0793 66.222Z" fill="#52C7EA"/>
<path d="M29.6561 64.2603C29.0602 65.2763 28.0436 65.942 26.8867 66.1522C30.9181 71.2324 36.7374 74.6309 43.1877 75.6119C42.802 74.4908 42.8721 73.2645 43.4681 72.2485C38.0345 71.3375 33.1266 68.4996 29.6561 64.2603Z" fill="#52C7EA"/>
<path d="M2.06743 47.408C2.83866 46.4971 3.96044 46.0065 5.11728 45.9715C4.83684 45.2708 4.59145 44.535 4.38111 43.7993C1.15598 31.8169 8.2723 19.4843 20.2614 16.296C20.9975 16.1208 21.7337 15.9456 22.5049 15.8405C21.909 14.8245 21.8038 13.5632 22.2245 12.4771C21.278 12.6172 20.3315 12.8274 19.42 13.0727C5.64312 16.7514 -2.52487 30.941 1.15598 44.7102C1.43643 45.6211 1.71687 46.4971 2.06743 47.408Z" fill="#52C7EA"/>
<path d="M13.2176 60.371C16.022 61.9827 19.107 63.0688 22.297 63.5243C21.9114 62.4031 21.9815 61.1769 22.5424 60.1608C17.1088 59.32 12.201 56.482 8.73044 52.2427C8.1345 53.2237 7.11788 53.9244 5.99609 54.1346C7.95922 56.6222 10.4131 58.7594 13.2176 60.371Z" fill="#52C7EA"/>
<path d="M20.295 83.8454C8.30593 80.6221 1.18961 68.3244 4.37968 56.3421C4.59002 55.6064 4.83541 54.8706 5.11585 54.1699C4.41474 54.1699 3.71362 53.9947 3.11767 53.6443C2.73206 53.3991 2.34645 53.0838 2.066 52.7334C1.71544 53.6093 1.39994 54.5553 1.15455 55.4662C-2.5263 69.2354 5.60663 83.3549 19.3835 87.0687C20.3301 87.314 21.2766 87.5242 22.2231 87.6643C21.8375 86.5432 21.9426 85.352 22.5035 84.3359C21.8024 84.1958 21.0312 84.0556 20.295 83.8454Z" fill="#52C7EA"/>
<path d="M26.0793 33.8839C24.0812 28.7686 24.0812 23.0928 26.0443 17.9775C24.8874 17.9425 23.7657 17.4169 22.9944 16.541C20.6106 22.6023 20.6106 29.3292 23.0295 35.3554C23.7657 34.4444 24.8874 33.8839 26.0793 33.8839Z" fill="#52C7EA"/>
<path d="M22.0516 37.9832C22.0516 37.5278 22.1568 37.0723 22.297 36.6519C15.8468 37.5978 10.0275 40.9613 5.99609 46.0415C6.45182 46.1116 6.90754 46.2868 7.29316 46.497C7.88911 46.8473 8.37989 47.3379 8.73044 47.9335C12.201 43.6591 17.1438 40.8211 22.6125 39.9803C22.2269 39.3847 22.0516 38.6839 22.0516 37.9832Z" fill="#52C7EA"/>
<path d="M43.2228 24.5293C36.8076 25.5103 30.9883 28.8738 26.9219 33.954C28.0787 34.1642 29.0603 34.8649 29.6562 35.881C33.1267 31.6416 38.0346 28.8037 43.4682 27.9278C42.9073 26.8767 42.8021 25.6505 43.2228 24.5293Z" fill="#52C7EA"/>
<path d="M26.0429 42.0824C24.8861 42.0473 23.7643 41.5218 23.0281 40.6108C20.6443 46.6721 20.6093 53.399 22.9931 59.4602C23.7643 58.5843 24.851 58.0238 26.0079 58.0238C24.0798 52.8735 24.0798 47.1976 26.0429 42.0824Z" fill="#52C7EA"/>
</svg>
