<svg width="2560" height="840" viewBox="0 0 2560 840" fill="none" xmlns="http://www.w3.org/2000/svg">
<g clip-path="url(#clip0_6433_14598)">
<g opacity="0.7" filter="url(#filter0_f_6433_14598)">
<rect width="901" height="847" rx="24" transform="matrix(0.87755 0.479485 -0.87755 0.479485 1537.29 716)" fill="url(#paint0_linear_6433_14598)"/>
</g>
<g opacity="0.7" filter="url(#filter1_f_6433_14598)">
<rect width="1163.47" height="1093.73" rx="24" transform="matrix(0.87755 0.479485 -0.87755 0.479485 1268.81 581)" fill="url(#paint1_linear_6433_14598)"/>
</g>
<circle cx="1048.62" cy="454.571" r="283.669" transform="rotate(-60 1048.62 454.571)" stroke="url(#paint2_radial_6433_14598)"/>
<circle cx="284.169" cy="284.169" r="283.669" transform="matrix(-0.5 -0.866025 -0.866025 0.5 1421.8 828.906)" stroke="url(#paint3_radial_6433_14598)"/>
<path d="M764.414 662.333C765.29 662.445 766.033 663.029 766.348 663.853L772.47 679.877C772.76 680.638 772.644 681.494 772.162 682.15L762.726 694.966C762.237 695.631 761.438 695.997 760.615 695.933L743.724 694.623C742.837 694.554 742.061 693.998 741.71 693.179L734.719 676.858C734.386 676.078 734.489 675.18 734.992 674.497L744.865 661.087C745.379 660.388 746.232 660.023 747.093 660.132L764.414 662.333Z" fill="#17293A"/>
<path d="M764.389 662.531C765.192 662.633 765.873 663.169 766.161 663.924L772.284 679.949C772.55 680.646 772.443 681.431 772.001 682.032L762.566 694.848C762.117 695.457 761.385 695.793 760.63 695.734L743.74 694.424C742.926 694.361 742.215 693.851 741.893 693.101L734.903 676.779C734.597 676.065 734.692 675.242 735.153 674.616L745.025 661.205C745.497 660.565 746.279 660.23 747.068 660.33L764.389 662.531Z" stroke="#74DFFF" stroke-opacity="0.5" stroke-width="0.398787"/>
<g opacity="0.8" clip-path="url(#clip1_6433_14598)">
<path d="M752.836 671.884L756.598 672.274L751.493 683.44C751.44 683.555 751.353 683.651 751.244 683.713C751.134 683.776 751.008 683.802 750.882 683.789L747.954 683.486C747.859 683.476 747.768 683.444 747.688 683.391C747.608 683.339 747.541 683.269 747.494 683.186C747.446 683.103 747.419 683.01 747.415 682.914C747.411 682.819 747.429 682.724 747.469 682.637L752.225 672.233C752.278 672.118 752.365 672.023 752.474 671.96C752.584 671.898 752.71 671.871 752.836 671.884Z" fill="url(#paint4_linear_6433_14598)"/>
<path d="M757.496 680.214L751.53 679.595C751.475 679.589 751.419 679.6 751.37 679.627C751.321 679.653 751.281 679.694 751.255 679.743C751.229 679.793 751.219 679.849 751.226 679.904C751.232 679.96 751.256 680.012 751.292 680.054L754.755 684.029C754.855 684.145 754.996 684.218 755.149 684.234L758.527 684.584L757.496 680.214Z" fill="url(#paint5_linear_6433_14598)"/>
<path d="M752.839 671.884C752.712 671.871 752.584 671.898 752.474 671.962C752.364 672.026 752.277 672.124 752.226 672.241L747.477 682.628C747.436 682.715 747.415 682.81 747.418 682.907C747.421 683.004 747.448 683.098 747.495 683.182C747.542 683.266 747.609 683.338 747.69 683.391C747.771 683.444 747.863 683.477 747.959 683.486L750.962 683.798C751.076 683.789 751.186 683.751 751.28 683.686C751.374 683.622 751.45 683.533 751.499 683.43L752.444 681.37L754.782 684.052C754.881 684.153 755.012 684.217 755.152 684.232L758.518 684.581L757.479 680.21L753.176 679.765L756.615 672.276L752.839 671.884Z" fill="#74DFFF"/>
<path d="M757.601 672.792C757.573 672.669 757.507 672.558 757.413 672.474C757.319 672.39 757.201 672.338 757.076 672.325L752.883 671.891C753.008 671.904 753.126 671.956 753.22 672.039C753.315 672.123 753.38 672.234 753.408 672.357L755.929 683.516C755.95 683.609 755.948 683.706 755.924 683.798C755.901 683.891 755.855 683.977 755.792 684.048C755.728 684.12 755.649 684.175 755.559 684.21C755.47 684.244 755.374 684.257 755.279 684.247L759.472 684.682C759.567 684.692 759.663 684.679 759.752 684.644C759.841 684.61 759.921 684.554 759.984 684.483C760.048 684.411 760.093 684.326 760.117 684.233C760.141 684.141 760.143 684.044 760.121 683.95L757.601 672.792Z" fill="url(#paint6_linear_6433_14598)"/>
</g>
<circle cx="1280.78" cy="300.144" r="283.644" stroke="url(#paint7_radial_6433_14598)"/>
<circle cx="1280.78" cy="888.432" r="283.644" stroke="url(#paint8_radial_6433_14598)"/>
<path d="M1717.29 513.076C1748.11 530.869 1774.33 553.571 1795.52 579.624C1772.19 614.194 1740.84 644.133 1702.29 666.389C1579.92 737.044 1426.78 706.15 1340.45 599.854C1423.02 477.452 1587.47 438.121 1717.29 513.076ZM1796.11 578.756C1774.87 552.71 1748.63 530.012 1717.79 512.21C1587.6 437.042 1422.71 476.407 1339.79 599.041C1330.66 587.719 1322.29 575.548 1314.79 562.559C1236.46 426.882 1282.95 253.393 1418.62 175.06C1554.3 96.7266 1727.79 143.213 1806.12 278.89C1862.01 375.695 1854.36 491.75 1796.11 578.756ZM1329.79 616.906C1333 611.362 1336.36 605.966 1339.86 600.722C1426.53 707.202 1580.08 738.106 1702.79 667.255C1741.39 644.974 1772.79 615.022 1796.18 580.436C1867.73 669.049 1881.48 796.036 1821.12 900.576C1742.79 1036.25 1569.3 1082.74 1433.62 1004.41C1297.95 926.073 1251.46 752.583 1329.79 616.906Z" stroke="url(#paint9_radial_6433_14598)"/>
<g filter="url(#filter2_f_6433_14598)">
<circle cx="725" cy="971" r="367" fill="url(#paint10_linear_6433_14598)"/>
</g>
<circle cx="1574" cy="759" r="285" fill="url(#paint11_linear_6433_14598)"/>
<g filter="url(#filter3_f_6433_14598)">
<circle cx="1555" cy="337" r="189" fill="url(#paint12_linear_6433_14598)"/>
</g>
<g filter="url(#filter4_f_6433_14598)">
<circle cx="930.893" cy="188.893" r="24.8111" transform="rotate(120 930.893 188.893)" fill="#162535"/>
</g>
<g filter="url(#filter5_f_6433_14598)">
<circle cx="932.893" cy="195.893" r="24.8111" transform="rotate(120 932.893 195.893)" fill="url(#paint13_linear_6433_14598)"/>
</g>
<g filter="url(#filter6_f_6433_14598)">
<circle cx="1864.15" cy="260.152" r="29.3932" transform="rotate(120 1864.15 260.152)" fill="url(#paint14_linear_6433_14598)"/>
</g>
<g filter="url(#filter7_f_6433_14598)">
<circle cx="1897.39" cy="926.394" r="278.468" transform="rotate(120 1897.39 926.394)" fill="url(#paint15_linear_6433_14598)"/>
</g>
<g filter="url(#filter8_f_6433_14598)">
<circle cx="1832.89" cy="503.889" r="35.7889" transform="rotate(120 1832.89 503.889)" fill="#162535"/>
</g>
<g filter="url(#filter9_f_6433_14598)">
<circle cx="1830.89" cy="503.889" r="35.7889" transform="rotate(120 1830.89 503.889)" fill="url(#paint16_linear_6433_14598)"/>
</g>
<path d="M639.101 326.329C639.735 325.715 640.655 325.499 641.495 325.768L657.835 330.992C658.61 331.24 659.206 331.865 659.417 332.652L663.536 348.024C663.75 348.822 663.537 349.674 662.973 350.277L651.403 362.652C650.795 363.302 649.876 363.561 649.017 363.324L631.904 358.593C631.087 358.367 630.45 357.725 630.231 356.906L625.921 340.821C625.696 339.983 625.943 339.088 626.566 338.484L639.101 326.329Z" fill="url(#paint17_linear_6433_14598)"/>
<path d="M639.24 326.472C639.821 325.909 640.664 325.711 641.435 325.958L657.774 331.182C658.485 331.409 659.031 331.982 659.225 332.703L663.343 348.075C663.539 348.807 663.344 349.588 662.827 350.141L651.257 362.516C650.7 363.112 649.857 363.349 649.071 363.132L631.957 358.401C631.208 358.194 630.624 357.605 630.423 356.854L626.113 340.77C625.907 340.001 626.134 339.181 626.705 338.627L639.24 326.472Z" stroke="#74DFFF" stroke-opacity="0.5" stroke-width="0.398787"/>
<path d="M641.743 336.937C641.462 336.773 641.118 336.717 640.776 336.808C640.433 336.898 640.164 337.116 640.004 337.396L639.999 337.397C639.836 337.677 639.78 338.022 639.87 338.362C639.961 338.705 640.179 338.975 640.457 339.136L640.465 339.14C640.742 339.303 641.083 339.358 641.425 339.268C641.768 339.177 642.04 338.961 642.203 338.682L642.204 338.675C642.368 338.398 642.423 338.055 642.332 337.713C642.242 337.372 642.026 337.099 641.745 336.936L641.743 336.937ZM645.314 354.006C645.657 353.915 645.928 353.694 646.092 353.417L646.093 353.41C646.257 353.134 646.311 352.789 646.221 352.45C646.131 352.108 645.915 351.836 645.634 351.673L645.631 351.674C645.35 351.507 645.007 351.453 644.664 351.543C644.322 351.633 644.053 351.85 643.893 352.132L643.887 352.134C643.725 352.414 643.669 352.757 643.759 353.1C643.849 353.439 644.067 353.711 644.346 353.871L644.353 353.876C644.63 354.037 644.972 354.096 645.314 354.006ZM651.032 348.51C651.316 348.35 651.54 348.082 651.631 347.741L651.642 347.692C651.718 347.372 651.66 347.042 651.504 346.775C651.342 346.49 651.073 346.27 650.733 346.178L650.712 346.171C650.383 346.089 650.047 346.141 649.767 346.303C649.482 346.46 649.26 346.736 649.17 347.073C649.078 347.409 649.131 347.754 649.293 348.041C649.457 348.322 649.725 348.544 650.064 348.638L650.066 348.638C650.404 348.729 650.745 348.672 651.032 348.51ZM643.974 343.813C643.566 343.576 643.067 343.492 642.574 343.622C642.081 343.752 641.69 344.071 641.453 344.478C641.217 344.885 641.136 345.381 641.266 345.874C641.396 346.367 641.712 346.76 642.119 347.001C642.525 347.236 643.022 347.319 643.515 347.189C644.008 347.059 644.401 346.741 644.639 346.336C644.876 345.926 644.956 345.428 644.826 344.934C644.696 344.441 644.381 344.05 643.974 343.813ZM642.711 341.904C643.458 341.833 644.191 342.006 644.813 342.372L644.817 342.371C644.916 342.428 645.015 342.494 645.108 342.561L646.149 341.526C645.852 341.071 645.706 340.551 645.71 340.027C645.712 339.326 645.982 338.627 646.522 338.092L646.539 338.073C647.075 337.551 647.771 337.287 648.464 337.292C649.164 337.295 649.867 337.566 650.402 338.104L650.403 338.106C650.935 338.642 651.201 339.348 651.199 340.047C651.198 340.748 650.927 341.451 650.387 341.984L650.246 342.127L650.229 342.132C649.714 342.567 649.079 342.782 648.444 342.782C647.922 342.782 647.403 342.627 646.95 342.333L645.911 343.365C646.15 343.701 646.334 344.082 646.446 344.507C646.558 344.93 646.587 345.358 646.545 345.77L647.958 346.153C648.205 345.668 648.582 345.283 649.036 345.025C649.643 344.674 650.389 344.558 651.12 344.76L651.166 344.769L651.166 344.771C651.877 344.98 652.439 345.445 652.782 346.047C653.128 346.65 653.245 347.395 653.047 348.125L653.036 348.175L653.033 348.172C652.827 348.88 652.357 349.447 651.764 349.79C651.154 350.136 650.409 350.254 649.679 350.057L649.678 350.052C648.944 349.852 648.364 349.376 648.017 348.768C647.755 348.316 647.626 347.793 647.659 347.25L646.244 346.866C646.196 346.97 646.141 347.072 646.084 347.171L646.081 347.176C645.72 347.798 645.167 348.311 644.482 348.614L644.856 350.033C645.394 350.005 645.919 350.139 646.371 350.403L646.374 350.406C646.979 350.757 647.452 351.344 647.645 352.075C647.837 352.804 647.715 353.543 647.362 354.15L647.362 354.158C647.005 354.765 646.421 355.237 645.69 355.43C644.962 355.622 644.22 355.5 643.611 355.148L643.609 355.148L643.607 355.141C643 354.787 642.528 354.205 642.336 353.476C642.143 352.745 642.265 352.001 642.619 351.397L642.618 351.393L642.62 351.393C642.883 350.94 643.274 350.564 643.754 350.324L643.379 348.905C642.633 348.979 641.901 348.806 641.28 348.442L641.274 348.44C640.499 347.987 639.892 347.241 639.644 346.302C639.397 345.365 639.557 344.416 640.008 343.64L640.013 343.638C640.373 343.014 640.924 342.502 641.609 342.195L641.236 340.782C640.698 340.806 640.173 340.671 639.722 340.41L639.72 340.41L639.719 340.406C639.112 340.051 638.64 339.469 638.447 338.738C638.255 338.01 638.377 337.265 638.73 336.659L638.731 336.656C639.086 336.048 639.672 335.576 640.4 335.384C641.131 335.191 641.872 335.313 642.482 335.667L642.483 335.669L642.485 335.668C643.091 336.021 643.564 336.61 643.756 337.337C643.949 338.068 643.826 338.807 643.473 339.416L643.473 339.42C643.209 339.87 642.819 340.246 642.338 340.491L642.711 341.904ZM649.361 339.141L649.346 339.128C649.102 338.888 648.781 338.769 648.461 338.765C648.131 338.765 647.807 338.887 647.556 339.135L647.558 339.134C647.307 339.38 647.182 339.706 647.18 340.034C647.18 340.36 647.304 340.688 647.551 340.936L647.559 340.942C647.805 341.187 648.127 341.31 648.449 341.308C648.776 341.314 649.104 341.188 649.351 340.942L649.365 340.93C649.606 340.683 649.726 340.362 649.727 340.044C649.728 339.716 649.607 339.39 649.361 339.141Z" fill="#74DFFF"/>
<path d="M1724.08 164.507C1725.11 163.901 1726.38 163.909 1727.4 164.528L1747.21 176.558C1748.15 177.129 1748.74 178.139 1748.77 179.238L1749.31 200.732C1749.34 201.847 1748.79 202.899 1747.86 203.513L1728.75 216.107C1727.74 216.769 1726.46 216.818 1725.4 216.235L1704.42 204.608C1703.42 204.052 1702.79 203.008 1702.76 201.862L1702.19 179.373C1702.16 178.2 1702.76 177.104 1703.77 176.507L1724.08 164.507Z" fill="url(#paint18_linear_6433_14598)"/>
<path d="M1724.22 164.739C1725.16 164.183 1726.33 164.19 1727.26 164.758L1747.07 176.788C1747.93 177.311 1748.47 178.237 1748.5 179.245L1749.04 200.738C1749.07 201.761 1748.57 202.725 1747.71 203.288L1728.6 215.882C1727.68 216.489 1726.5 216.534 1725.53 215.999L1704.55 204.372L1704.42 204.608L1704.55 204.372C1703.63 203.863 1703.05 202.906 1703.03 201.856L1702.45 179.366C1702.43 178.291 1702.98 177.286 1703.91 176.739L1724.22 164.739Z" stroke="#74DFFF" stroke-opacity="0.5" stroke-width="0.538763"/>
<path d="M1719.61 186.698C1719.61 188.109 1718.47 189.253 1717.05 189.253C1715.64 189.253 1714.5 188.109 1714.5 186.698C1714.5 185.287 1715.64 184.144 1717.05 184.144C1718.47 184.144 1719.61 185.287 1719.61 186.698ZM1719.61 186.698L1731.2 186.698M1723.74 176.087L1718.43 184.537M1727.08 175.89L1732.58 184.537M1736.12 186.698C1736.12 188.109 1734.97 189.253 1733.56 189.253C1732.15 189.253 1731.01 188.109 1731.01 186.698C1731.01 185.287 1732.15 184.144 1733.56 184.144C1734.97 184.144 1736.12 185.287 1736.12 186.698ZM1727.86 174.122C1727.86 175.532 1726.72 176.676 1725.31 176.676C1723.9 176.676 1722.75 175.532 1722.75 174.122C1722.75 172.711 1723.9 171.567 1725.31 171.567C1726.72 171.567 1727.86 172.711 1727.86 174.122Z" stroke="#74DFFF" stroke-width="1.46003"/>
<path d="M1738.64 193.175C1738.64 193.175 1738.28 194.266 1736.1 194.448C1733.73 194.448 1733.55 191.902 1730.83 191.902C1728.38 191.902 1727.63 194.695 1725.19 194.629C1722.87 194.568 1722.23 191.902 1719.91 191.902C1718.1 191.902 1716.57 194.037 1715.01 194.448C1713.27 194.904 1711.91 193.357 1711.91 193.357M1738.83 196.993C1738.83 196.993 1738.46 198.084 1736.28 198.266C1733.92 198.266 1733.73 195.72 1731.01 195.72C1728.56 195.721 1727.81 198.513 1725.37 198.448C1723.05 198.386 1722.42 195.72 1720.1 195.72C1718.28 195.72 1716.75 197.856 1715.19 198.266C1713.45 198.722 1712.1 197.175 1712.1 197.175M1738.83 200.266C1738.83 200.266 1738.46 201.357 1736.28 201.539C1733.92 201.539 1733.73 198.993 1731.01 198.993C1728.56 198.994 1727.81 201.786 1725.37 201.721C1723.05 201.659 1722.42 198.993 1720.1 198.993C1718.28 198.994 1716.75 201.129 1715.19 201.539C1713.45 201.995 1712.1 200.448 1712.1 200.448" stroke="#74DFFF" stroke-width="1.35101"/>
<path d="M1723.96 179.673L1724.68 179.673L1724.68 184.765L1723.96 184.765L1723.96 179.673Z" fill="#74DFFF"/>
<path d="M1726.14 179.673L1727.05 179.673L1724.64 182.728L1724.1 182.238L1726.14 179.673Z" fill="#74DFFF"/>
<path d="M1726.5 184.765L1727.41 184.765L1725.13 181.492L1724.56 181.937L1726.5 184.765Z" fill="#74DFFF"/>
<path d="M628.781 120.468C630.101 120.593 631.245 121.434 631.758 122.657L641.727 146.425C642.201 147.553 642.068 148.845 641.374 149.853L627.826 169.555C627.122 170.578 625.941 171.166 624.701 171.11L599.273 169.96C597.936 169.899 596.744 169.102 596.178 167.89L584.89 143.718C584.35 142.563 584.463 141.209 585.185 140.159L599.362 119.543C600.101 118.468 601.364 117.878 602.662 118.001L628.781 120.468Z" fill="#0F1924"/>
<path d="M628.753 120.766C629.963 120.881 631.012 121.652 631.482 122.773L641.451 146.541C641.885 147.575 641.763 148.759 641.128 149.683L627.579 169.386C626.934 170.323 625.851 170.862 624.714 170.811L599.286 169.661C598.061 169.605 596.968 168.874 596.449 167.763L585.161 143.591C584.667 142.532 584.77 141.291 585.432 140.329L599.609 119.713C600.286 118.728 601.444 118.187 602.634 118.299L628.753 120.766Z" stroke="#74DFFF" stroke-opacity="0.7" stroke-width="0.599189"/>
<path fill-rule="evenodd" clip-rule="evenodd" d="M617.095 135.293C619.789 135.293 621.687 137.601 621.687 140.448C621.796 141.486 621.711 142.699 621.264 143.73C620.677 145.405 619.301 146.135 617.179 146.135H617.057L619.164 149.241L616.159 151.845L612.762 146.215L610.998 146.135V155.055H607.34V135.293H617.095ZM616.302 152.224L619.614 149.646L621.173 151.647L618.045 154.588L616.302 152.224ZM618.561 154.823L621.488 152.486C621.65 152.358 621.876 152.375 622.019 152.526L623.223 153.799C623.329 153.911 623.369 154.075 623.318 154.224C623.174 154.645 622.839 155.501 622.379 155.915C621.29 156.894 619.099 155.673 618.845 155.58C618.83 155.575 618.86 155.588 618.845 155.58C618.575 155.438 618.319 155.014 618.561 154.823ZM616.689 138.3H611.405V142.596H616.689C617.811 142.596 618.721 141.635 618.721 140.448C618.721 139.262 617.811 138.3 616.689 138.3Z" fill="#74DFFF"/>
<path d="M1682.91 629.205C1683.49 628.009 1684.67 627.224 1685.99 627.164L1711.74 625.998C1712.96 625.942 1714.13 626.512 1714.84 627.51L1728.66 647.02C1729.38 648.033 1729.53 649.344 1729.05 650.489L1719.2 673.963C1718.68 675.197 1717.53 676.041 1716.19 676.155L1689.61 678.42C1688.34 678.528 1687.11 677.956 1686.37 676.916L1671.91 656.502C1671.15 655.438 1671.03 654.049 1671.59 652.873L1682.91 629.205Z" fill="#234B59"/>
<path d="M1683.18 629.334C1683.71 628.238 1684.79 627.519 1686.01 627.464L1711.76 626.297C1712.88 626.246 1713.94 626.769 1714.59 627.684L1728.42 647.193C1729.08 648.121 1729.21 649.324 1728.77 650.373L1718.93 673.847C1718.45 674.978 1717.39 675.752 1716.17 675.856L1689.59 678.121C1688.42 678.22 1687.29 677.696 1686.62 676.743L1672.15 656.329C1671.46 655.354 1671.35 654.08 1671.87 653.002L1683.18 629.334Z" stroke="#74DFFF" stroke-opacity="0.7" stroke-width="0.599189"/>
<g clip-path="url(#clip2_6433_14598)">
<path fill-rule="evenodd" clip-rule="evenodd" d="M1707.34 652.253C1708.03 652.191 1708.72 652.191 1709.41 652.128L1709.41 651.626C1708.72 651.563 1708.03 651.563 1707.34 651.5L1705.27 651.437C1704.08 651.374 1702.82 651.374 1701.63 651.374C1701.63 650.181 1701.63 648.926 1701.56 647.733L1701.5 645.66C1701.44 644.97 1701.44 644.279 1701.38 643.588L1700.81 643.588C1700.75 644.279 1700.75 644.97 1700.69 645.66L1700.62 647.733C1700.62 648.298 1700.62 648.863 1700.62 649.428C1700.37 648.926 1700.18 648.36 1699.93 647.858L1699.05 645.974C1698.74 645.347 1698.49 644.719 1698.17 644.091L1697.67 644.279C1697.92 644.97 1698.11 645.598 1698.36 646.226L1699.12 648.172C1699.3 648.737 1699.56 649.24 1699.74 649.805C1699.3 649.428 1698.93 648.988 1698.49 648.612L1696.98 647.167C1696.48 646.728 1695.98 646.226 1695.41 645.786L1694.97 646.226C1695.41 646.728 1695.91 647.23 1696.35 647.795L1697.8 649.302C1698.17 649.742 1698.61 650.119 1698.99 650.558C1698.49 650.37 1697.92 650.119 1697.36 649.93L1695.41 649.177C1694.78 648.926 1694.09 648.674 1693.46 648.486L1693.21 649.051C1693.84 649.365 1694.47 649.616 1695.1 649.93L1696.98 650.809C1697.48 651.06 1698.05 651.249 1698.55 651.5C1697.99 651.5 1697.42 651.5 1696.86 651.5L1694.78 651.563C1694.09 651.626 1693.4 651.626 1692.71 651.688L1692.71 652.253C1693.4 652.316 1694.09 652.316 1694.78 652.379L1696.86 652.442C1698.11 652.505 1699.3 652.505 1700.5 652.505C1700.5 653.698 1700.5 654.953 1700.56 656.147L1700.62 658.219C1700.69 658.909 1700.69 659.6 1700.75 660.291L1701.25 660.291C1701.31 659.6 1701.31 658.909 1701.38 658.219L1701.44 656.147C1701.44 655.581 1701.44 654.953 1701.5 654.388C1701.75 654.953 1701.94 655.456 1702.19 656.021L1703.07 657.905C1703.39 658.533 1703.64 659.16 1703.95 659.788L1704.45 659.6C1704.26 658.909 1704.01 658.281 1703.76 657.653L1703.13 655.581C1702.95 655.016 1702.69 654.514 1702.51 653.949C1702.95 654.388 1703.32 654.765 1703.76 655.142L1705.27 656.586C1705.77 657.026 1706.27 657.528 1706.84 657.967L1707.22 657.591C1706.78 657.088 1706.27 656.586 1705.83 656.021L1704.39 654.514C1704.01 654.074 1703.57 653.635 1703.2 653.258C1703.76 653.447 1704.26 653.698 1704.83 653.886L1706.78 654.64C1707.4 654.891 1708.09 655.142 1708.72 655.33L1708.91 654.828C1708.28 654.514 1707.66 654.2 1707.03 653.949L1705.14 653.07C1704.58 652.819 1704.08 652.567 1703.51 652.379C1704.08 652.379 1704.7 652.379 1705.27 652.316L1707.34 652.253Z" fill="#74DFFF"/>
<path fill-rule="evenodd" clip-rule="evenodd" d="M1701.5 665C1694.03 665 1688 658.972 1688 651.5C1688 644.028 1694.03 638 1701.5 638C1708.97 638 1715 644.028 1715 651.5C1715 658.972 1708.97 665 1701.5 665ZM1701.5 639.256C1694.78 639.256 1689.26 644.781 1689.26 651.5C1689.26 658.219 1694.78 663.744 1701.5 663.744C1708.22 663.744 1713.74 658.219 1713.74 651.5C1713.74 644.781 1708.22 639.256 1701.5 639.256Z" fill="#74DFFF"/>
</g>
</g>
<defs>
<filter id="filter0_f_6433_14598" x="579.336" y="495.741" width="1963.29" height="1278.66" filterUnits="userSpaceOnUse" color-interpolation-filters="sRGB">
<feFlood flood-opacity="0" result="BackgroundImageFix"/>
<feBlend mode="normal" in="SourceGraphic" in2="BackgroundImageFix" result="shape"/>
<feGaussianBlur stdDeviation="113.5" result="effect1_foregroundBlur_6433_14598"/>
</filter>
<filter id="filter1_f_6433_14598" x="94.3398" y="360.741" width="2410.13" height="1522.81" filterUnits="userSpaceOnUse" color-interpolation-filters="sRGB">
<feFlood flood-opacity="0" result="BackgroundImageFix"/>
<feBlend mode="normal" in="SourceGraphic" in2="BackgroundImageFix" result="shape"/>
<feGaussianBlur stdDeviation="113.5" result="effect1_foregroundBlur_6433_14598"/>
</filter>
<filter id="filter2_f_6433_14598" x="353" y="599" width="744" height="744" filterUnits="userSpaceOnUse" color-interpolation-filters="sRGB">
<feFlood flood-opacity="0" result="BackgroundImageFix"/>
<feBlend mode="normal" in="SourceGraphic" in2="BackgroundImageFix" result="shape"/>
<feGaussianBlur stdDeviation="2.5" result="effect1_foregroundBlur_6433_14598"/>
</filter>
<filter id="filter3_f_6433_14598" x="1346" y="128" width="418" height="418" filterUnits="userSpaceOnUse" color-interpolation-filters="sRGB">
<feFlood flood-opacity="0" result="BackgroundImageFix"/>
<feBlend mode="normal" in="SourceGraphic" in2="BackgroundImageFix" result="shape"/>
<feGaussianBlur stdDeviation="10" result="effect1_foregroundBlur_6433_14598"/>
</filter>
<filter id="filter4_f_6433_14598" x="901.078" y="159.078" width="59.6289" height="59.6309" filterUnits="userSpaceOnUse" color-interpolation-filters="sRGB">
<feFlood flood-opacity="0" result="BackgroundImageFix"/>
<feBlend mode="normal" in="SourceGraphic" in2="BackgroundImageFix" result="shape"/>
<feGaussianBlur stdDeviation="2.5" result="effect1_foregroundBlur_6433_14598"/>
</filter>
<filter id="filter5_f_6433_14598" x="903.078" y="166.078" width="59.6289" height="59.6309" filterUnits="userSpaceOnUse" color-interpolation-filters="sRGB">
<feFlood flood-opacity="0" result="BackgroundImageFix"/>
<feBlend mode="normal" in="SourceGraphic" in2="BackgroundImageFix" result="shape"/>
<feGaussianBlur stdDeviation="2.5" result="effect1_foregroundBlur_6433_14598"/>
</filter>
<filter id="filter6_f_6433_14598" x="1824.75" y="220.754" width="78.7969" height="78.7964" filterUnits="userSpaceOnUse" color-interpolation-filters="sRGB">
<feFlood flood-opacity="0" result="BackgroundImageFix"/>
<feBlend mode="normal" in="SourceGraphic" in2="BackgroundImageFix" result="shape"/>
<feGaussianBlur stdDeviation="5" result="effect1_foregroundBlur_6433_14598"/>
</filter>
<filter id="filter7_f_6433_14598" x="1608.88" y="637.88" width="577.031" height="577.029" filterUnits="userSpaceOnUse" color-interpolation-filters="sRGB">
<feFlood flood-opacity="0" result="BackgroundImageFix"/>
<feBlend mode="normal" in="SourceGraphic" in2="BackgroundImageFix" result="shape"/>
<feGaussianBlur stdDeviation="5" result="effect1_foregroundBlur_6433_14598"/>
</filter>
<filter id="filter8_f_6433_14598" x="1791.09" y="462.094" width="83.5898" height="83.5898" filterUnits="userSpaceOnUse" color-interpolation-filters="sRGB">
<feFlood flood-opacity="0" result="BackgroundImageFix"/>
<feBlend mode="normal" in="SourceGraphic" in2="BackgroundImageFix" result="shape"/>
<feGaussianBlur stdDeviation="3" result="effect1_foregroundBlur_6433_14598"/>
</filter>
<filter id="filter9_f_6433_14598" x="1789.09" y="462.094" width="83.5898" height="83.5898" filterUnits="userSpaceOnUse" color-interpolation-filters="sRGB">
<feFlood flood-opacity="0" result="BackgroundImageFix"/>
<feBlend mode="normal" in="SourceGraphic" in2="BackgroundImageFix" result="shape"/>
<feGaussianBlur stdDeviation="3" result="effect1_foregroundBlur_6433_14598"/>
</filter>
<linearGradient id="paint0_linear_6433_14598" x1="450.5" y1="0" x2="450.5" y2="847" gradientUnits="userSpaceOnUse">
<stop stop-color="#4FDAB8"/>
<stop offset="1" stop-color="#4FDAB8" stop-opacity="0"/>
</linearGradient>
<linearGradient id="paint1_linear_6433_14598" x1="581.733" y1="0" x2="581.733" y2="1093.73" gradientUnits="userSpaceOnUse">
<stop stop-color="#52C7EA"/>
<stop offset="1" stop-color="#52C7EA" stop-opacity="0"/>
</linearGradient>
<radialGradient id="paint2_radial_6433_14598" cx="0" cy="0" r="1" gradientUnits="userSpaceOnUse" gradientTransform="translate(1007.49 116.182) rotate(89.1122) scale(724.531)">
<stop stop-color="#4FDAB8" stop-opacity="0.25"/>
<stop offset="1" stop-color="#52C7EA" stop-opacity="0"/>
</radialGradient>
<radialGradient id="paint3_radial_6433_14598" cx="0" cy="0" r="1" gradientUnits="userSpaceOnUse" gradientTransform="translate(243.295 539.711) rotate(-87.9037) scale(551.549)">
<stop stop-color="#52C7EA" stop-opacity="0.7"/>
<stop offset="1" stop-color="#52C7EA" stop-opacity="0"/>
</radialGradient>
<linearGradient id="paint4_linear_6433_14598" x1="749.412" y1="671.529" x2="758.05" y2="680.682" gradientUnits="userSpaceOnUse">
<stop stop-color="#4FDAB8"/>
<stop offset="1" stop-color="#52C7EA"/>
</linearGradient>
<linearGradient id="paint5_linear_6433_14598" x1="752.039" y1="679.648" x2="753.873" y2="685.624" gradientUnits="userSpaceOnUse">
<stop stop-color="#4FDAB8"/>
<stop offset="1" stop-color="#52C7EA"/>
</linearGradient>
<linearGradient id="paint6_linear_6433_14598" x1="753.741" y1="671.98" x2="762.388" y2="681.633" gradientUnits="userSpaceOnUse">
<stop stop-color="#4FDAB8"/>
<stop offset="1" stop-color="#52C7EA"/>
</linearGradient>
<radialGradient id="paint7_radial_6433_14598" cx="0" cy="0" r="1" gradientUnits="userSpaceOnUse" gradientTransform="translate(1281 16) rotate(89.0891) scale(597.576)">
<stop offset="0.43" stop-color="#4FDAB8" stop-opacity="0.2"/>
<stop offset="0.766526" stop-color="#51CCDC" stop-opacity="0.1"/>
<stop offset="1" stop-color="#52C7EA" stop-opacity="0"/>
</radialGradient>
<radialGradient id="paint8_radial_6433_14598" cx="0" cy="0" r="1" gradientUnits="userSpaceOnUse" gradientTransform="translate(1261.1 1103.13) rotate(-84.991) scale(479.961)">
<stop stop-color="#4FDAB8" stop-opacity="0.6"/>
<stop offset="0.768138" stop-color="#51CBDE" stop-opacity="0.2"/>
<stop offset="1" stop-color="#52C7EA" stop-opacity="0"/>
</radialGradient>
<radialGradient id="paint9_radial_6433_14598" cx="0" cy="0" r="1" gradientUnits="userSpaceOnUse" gradientTransform="translate(1700 171) rotate(130.355) scale(654.811 654.811)">
<stop stop-color="#4FDAB8" stop-opacity="0.2"/>
<stop offset="0.753754" stop-color="#52C7EA" stop-opacity="0"/>
</radialGradient>
<linearGradient id="paint10_linear_6433_14598" x1="881.552" y1="1268.06" x2="1092" y2="778.517" gradientUnits="userSpaceOnUse">
<stop stop-color="#3A74C6" stop-opacity="0.2"/>
<stop offset="1" stop-color="#60D1F2" stop-opacity="0"/>
</linearGradient>
<linearGradient id="paint11_linear_6433_14598" x1="1916.5" y1="876.5" x2="1634" y2="449" gradientUnits="userSpaceOnUse">
<stop stop-color="#0E2A4B" stop-opacity="0.15"/>
<stop offset="1" stop-color="#60D1F2" stop-opacity="0"/>
</linearGradient>
<linearGradient id="paint12_linear_6433_14598" x1="1744" y1="406.5" x2="1389.5" y2="231.5" gradientUnits="userSpaceOnUse">
<stop stop-color="#3A74C6" stop-opacity="0.1"/>
<stop offset="1" stop-color="#60D1F2" stop-opacity="0"/>
</linearGradient>
<linearGradient id="paint13_linear_6433_14598" x1="943.476" y1="215.976" x2="957.704" y2="182.88" gradientUnits="userSpaceOnUse">
<stop stop-color="#3A74C6" stop-opacity="0.2"/>
<stop offset="1" stop-color="#60D1F2" stop-opacity="0"/>
</linearGradient>
<linearGradient id="paint14_linear_6433_14598" x1="1876.69" y1="283.944" x2="1893.55" y2="244.736" gradientUnits="userSpaceOnUse">
<stop stop-color="#1F2B3C" stop-opacity="0.6"/>
<stop offset="1" stop-color="#0B1416" stop-opacity="0.4"/>
</linearGradient>
<linearGradient id="paint15_linear_6433_14598" x1="1790.3" y1="1156.69" x2="1996.73" y2="815.23" gradientUnits="userSpaceOnUse">
<stop stop-color="#1E413D" stop-opacity="0.1"/>
<stop offset="0.959675" stop-color="#1C93B6" stop-opacity="0.01"/>
</linearGradient>
<linearGradient id="paint16_linear_6433_14598" x1="1846.16" y1="532.858" x2="1866.68" y2="485.118" gradientUnits="userSpaceOnUse">
<stop stop-color="#3AC69C" stop-opacity="0.1"/>
<stop offset="1" stop-color="#60D1F2" stop-opacity="0"/>
</linearGradient>
<linearGradient id="paint17_linear_6433_14598" x1="639.648" y1="325.461" x2="649.931" y2="363.839" gradientUnits="userSpaceOnUse">
<stop offset="0.40073" stop-color="#0F1923"/>
<stop offset="1" stop-color="#0F1923"/>
</linearGradient>
<linearGradient id="paint18_linear_6433_14598" x1="1725.07" y1="163.54" x2="1726.44" y2="217.201" gradientUnits="userSpaceOnUse">
<stop offset="0.40073" stop-color="#101A26"/>
<stop offset="1" stop-color="#1D3651"/>
</linearGradient>
<clipPath id="clip0_6433_14598">
<rect width="2560" height="840" fill="white"/>
</clipPath>
<clipPath id="clip1_6433_14598">
<rect width="13.9448" height="13.9448" fill="white" transform="translate(748.117 670.44) rotate(5.92062)"/>
</clipPath>
<clipPath id="clip2_6433_14598">
<rect width="27" height="27" fill="white" transform="translate(1688 638)"/>
</clipPath>
</defs>
</svg>
