<svg width="2560" height="840" viewBox="0 0 2560 840" fill="none" xmlns="http://www.w3.org/2000/svg">
<g clip-path="url(#clip0_6373_18501)">
<g opacity="0.7" filter="url(#filter0_f_6373_18501)">
<rect width="901" height="847" rx="24" transform="matrix(0.87755 0.479485 -0.87755 0.479485 1537.29 716)" fill="url(#paint0_linear_6373_18501)"/>
</g>
<g opacity="0.7" filter="url(#filter1_f_6373_18501)">
<rect width="1163.47" height="1093.73" rx="24" transform="matrix(0.87755 0.479485 -0.87755 0.479485 1268.81 581)" fill="url(#paint1_linear_6373_18501)"/>
</g>
<circle cx="1048.62" cy="454.571" r="283.669" transform="rotate(-60 1048.62 454.571)" stroke="url(#paint2_radial_6373_18501)"/>
<circle cx="284.169" cy="284.169" r="283.669" transform="matrix(-0.5 -0.866025 -0.866025 0.5 1421.8 828.906)" stroke="url(#paint3_radial_6373_18501)"/>
<circle cx="1280.78" cy="300.144" r="283.644" stroke="url(#paint4_radial_6373_18501)"/>
<circle cx="1280.78" cy="888.432" r="283.644" stroke="url(#paint5_radial_6373_18501)"/>
<path d="M1717.29 513.076C1748.11 530.869 1774.33 553.571 1795.52 579.624C1772.19 614.194 1740.84 644.133 1702.29 666.389C1579.92 737.044 1426.78 706.15 1340.45 599.854C1423.02 477.452 1587.47 438.121 1717.29 513.076ZM1796.11 578.756C1774.87 552.71 1748.63 530.012 1717.79 512.21C1587.6 437.042 1422.71 476.407 1339.79 599.041C1330.66 587.719 1322.29 575.548 1314.79 562.559C1236.46 426.882 1282.95 253.393 1418.62 175.06C1554.3 96.7266 1727.79 143.213 1806.12 278.89C1862.01 375.695 1854.36 491.75 1796.11 578.756ZM1329.79 616.906C1333 611.362 1336.36 605.966 1339.86 600.722C1426.53 707.202 1580.08 738.106 1702.79 667.255C1741.39 644.974 1772.79 615.022 1796.18 580.436C1867.73 669.049 1881.48 796.036 1821.12 900.576C1742.79 1036.25 1569.3 1082.74 1433.62 1004.41C1297.95 926.073 1251.46 752.583 1329.79 616.906Z" stroke="url(#paint6_radial_6373_18501)"/>
<g filter="url(#filter2_f_6373_18501)">
<circle cx="725" cy="971" r="367" fill="url(#paint7_linear_6373_18501)"/>
</g>
<circle cx="1574" cy="759" r="285" fill="url(#paint8_linear_6373_18501)"/>
<g filter="url(#filter3_f_6373_18501)">
<circle cx="1555" cy="337" r="189" fill="url(#paint9_linear_6373_18501)"/>
</g>
<g filter="url(#filter4_f_6373_18501)">
<circle cx="930.893" cy="188.893" r="24.8111" transform="rotate(120 930.893 188.893)" fill="#162535"/>
</g>
<g filter="url(#filter5_f_6373_18501)">
<circle cx="932.893" cy="195.893" r="24.8111" transform="rotate(120 932.893 195.893)" fill="url(#paint10_linear_6373_18501)"/>
</g>
<g filter="url(#filter6_f_6373_18501)">
<circle cx="1864.15" cy="260.152" r="29.3932" transform="rotate(120 1864.15 260.152)" fill="url(#paint11_linear_6373_18501)"/>
</g>
<g filter="url(#filter7_f_6373_18501)">
<circle cx="1897.39" cy="926.394" r="278.468" transform="rotate(120 1897.39 926.394)" fill="url(#paint12_linear_6373_18501)"/>
</g>
<g filter="url(#filter8_f_6373_18501)">
<circle cx="1832.89" cy="503.889" r="35.7889" transform="rotate(120 1832.89 503.889)" fill="#162535"/>
</g>
<g filter="url(#filter9_f_6373_18501)">
<circle cx="1830.89" cy="503.889" r="35.7889" transform="rotate(120 1830.89 503.889)" fill="url(#paint13_linear_6373_18501)"/>
</g>
<path d="M805.101 137.33C805.735 136.715 806.655 136.5 807.495 136.768L823.835 141.992C824.61 142.24 825.206 142.866 825.417 143.652L829.536 159.024C829.75 159.822 829.537 160.674 828.973 161.278L817.403 173.652C816.795 174.303 815.876 174.562 815.017 174.324L797.904 169.593C797.087 169.367 796.45 168.726 796.231 167.906L791.921 151.822C791.696 150.983 791.943 150.089 792.566 149.485L805.101 137.33Z" fill="url(#paint14_linear_6373_18501)"/>
<path d="M805.24 137.473C805.821 136.91 806.664 136.712 807.435 136.958L823.774 142.182C824.485 142.41 825.031 142.983 825.225 143.704L829.343 159.076C829.539 159.807 829.344 160.588 828.827 161.141L817.257 173.516C816.7 174.112 815.857 174.35 815.071 174.132L797.957 169.401C797.208 169.194 796.624 168.606 796.423 167.855L792.113 151.77C791.907 151.002 792.134 150.182 792.705 149.628L805.24 137.473Z" stroke="#74DFFF" stroke-opacity="0.5" stroke-width="0.398787"/>
<path d="M809.848 147.142C809.619 146.912 809.301 146.77 808.946 146.77C808.592 146.77 808.276 146.912 808.05 147.142H808.044C807.815 147.371 807.674 147.69 807.674 148.042C807.674 148.397 807.815 148.714 808.044 148.94L808.05 148.946C808.276 149.175 808.592 149.314 808.946 149.314C809.301 149.314 809.619 149.175 809.848 148.946L809.851 148.94C810.08 148.714 810.22 148.397 810.22 148.042C810.22 147.69 810.08 147.371 809.851 147.142H809.848ZM808.946 164.557C809.301 164.557 809.619 164.413 809.848 164.187L809.851 164.18C810.08 163.954 810.22 163.635 810.22 163.285C810.22 162.93 810.08 162.613 809.851 162.383H809.848C809.619 162.151 809.301 162.01 808.946 162.01C808.592 162.01 808.276 162.151 808.05 162.383H808.044C807.815 162.613 807.674 162.93 807.674 163.285C807.674 163.635 807.815 163.954 808.044 164.18L808.05 164.187C808.276 164.413 808.592 164.557 808.946 164.557ZM815.877 160.702C816.192 160.62 816.478 160.417 816.652 160.112L816.675 160.067C816.83 159.777 816.858 159.442 816.776 159.145C816.692 158.828 816.488 158.546 816.183 158.371L816.164 158.359C815.867 158.196 815.529 158.16 815.217 158.245C814.901 158.324 814.617 158.535 814.443 158.838C814.268 159.139 814.232 159.486 814.315 159.805C814.402 160.118 814.605 160.402 814.908 160.579H814.91C815.214 160.754 815.558 160.785 815.877 160.702ZM810.251 154.36C809.917 154.027 809.456 153.818 808.946 153.818C808.436 153.818 807.977 154.027 807.644 154.36C807.311 154.693 807.107 155.151 807.107 155.661C807.107 156.172 807.311 156.632 807.644 156.969C807.977 157.3 808.436 157.507 808.946 157.507C809.456 157.507 809.917 157.3 810.251 156.969C810.584 156.632 810.789 156.172 810.789 155.661C810.789 155.151 810.584 154.693 810.251 154.36ZM809.517 152.192C810.257 152.314 810.922 152.668 811.43 153.18H811.434C811.515 153.261 811.594 153.35 811.667 153.438L812.937 152.703C812.766 152.187 812.758 151.648 812.896 151.142C813.077 150.464 813.516 149.858 814.175 149.478L814.196 149.464C814.847 149.096 815.588 149.019 816.256 149.2C816.933 149.381 817.543 149.823 817.923 150.48V150.482C818.301 151.136 818.378 151.886 818.198 152.562C818.018 153.239 817.577 153.85 816.919 154.228L816.745 154.33H816.728C816.119 154.62 815.45 154.665 814.836 154.503C814.331 154.37 813.869 154.088 813.506 153.688L812.238 154.421C812.384 154.807 812.464 155.222 812.464 155.661C812.464 156.099 812.384 156.52 812.238 156.908L813.506 157.639C813.869 157.233 814.331 156.957 814.836 156.823C815.513 156.638 816.263 156.717 816.919 157.099L816.961 157.119V157.121C817.594 157.505 818.02 158.097 818.198 158.767C818.378 159.438 818.301 160.189 817.923 160.844L817.9 160.89L817.898 160.886C817.518 161.518 816.919 161.946 816.258 162.127C815.58 162.305 814.829 162.229 814.175 161.852V161.847C813.516 161.467 813.077 160.859 812.896 160.183C812.758 159.679 812.766 159.139 812.937 158.623L811.667 157.891C811.594 157.979 811.515 158.064 811.434 158.145L811.43 158.149C810.922 158.659 810.257 159.013 809.517 159.131V160.599C810.045 160.709 810.517 160.973 810.887 161.343L810.889 161.347C811.385 161.841 811.692 162.529 811.692 163.285C811.692 164.039 811.385 164.722 810.889 165.219L810.887 165.227C810.387 165.723 809.702 166.03 808.946 166.03C808.194 166.03 807.506 165.723 807.008 165.227H807.006V165.219C806.509 164.722 806.202 164.039 806.202 163.285C806.202 162.529 806.509 161.841 807.006 161.347V161.343H807.008C807.378 160.973 807.851 160.709 808.377 160.599V159.131C807.636 159.013 806.973 158.659 806.465 158.149L806.46 158.145C805.826 157.509 805.43 156.632 805.43 155.661C805.43 154.693 805.826 153.816 806.46 153.18H806.465C806.973 152.668 807.636 152.314 808.377 152.192V150.73C807.851 150.616 807.378 150.352 807.008 149.984H807.006V149.98C806.509 149.482 806.202 148.799 806.202 148.042C806.202 147.29 806.509 146.601 807.006 146.104L807.008 146.102C807.506 145.604 808.194 145.297 808.946 145.297C809.702 145.297 810.387 145.604 810.887 146.102V146.104H810.889C811.385 146.601 811.692 147.29 811.692 148.042C811.692 148.799 811.385 149.482 810.889 149.98L810.887 149.984C810.517 150.352 810.045 150.616 809.517 150.73V152.192ZM816.652 151.217L816.641 151.201C816.466 150.906 816.186 150.709 815.877 150.624C815.558 150.539 815.214 150.575 814.908 150.75H814.91C814.605 150.923 814.401 151.207 814.315 151.524C814.232 151.839 814.268 152.187 814.443 152.491L814.449 152.499C814.625 152.798 814.905 152.999 815.217 153.08C815.531 153.169 815.881 153.131 816.183 152.956L816.199 152.948C816.496 152.77 816.693 152.491 816.776 152.184C816.86 151.867 816.826 151.52 816.652 151.217Z" fill="#74DFFF"/>
<path d="M1714.09 173.583C1714.59 172.856 1715.45 172.465 1716.33 172.565L1733.37 174.499C1734.18 174.591 1734.89 175.088 1735.25 175.818L1742.29 190.091C1742.65 190.832 1742.61 191.709 1742.18 192.411L1733.24 206.806C1732.78 207.562 1731.92 207.996 1731.04 207.931L1713.33 206.63C1712.48 206.568 1711.73 206.063 1711.36 205.303L1703.99 190.368C1703.61 189.59 1703.68 188.664 1704.17 187.95L1714.09 173.583Z" fill="url(#paint15_linear_6373_18501)"/>
<path d="M1714.25 173.696C1714.71 173.03 1715.5 172.672 1716.31 172.763L1733.35 174.698C1734.09 174.782 1734.74 175.237 1735.07 175.907L1742.11 190.179C1742.45 190.858 1742.41 191.662 1742.01 192.306L1733.08 206.701C1732.64 207.394 1731.86 207.791 1731.05 207.732L1713.34 206.432C1712.57 206.375 1711.88 205.912 1711.54 205.214L1704.17 190.28C1703.82 189.566 1703.88 188.718 1704.33 188.063L1714.25 173.696Z" stroke="#74DFFF" stroke-opacity="0.5" stroke-width="0.398787"/>
<path d="M1718.88 189.438C1718.9 190.404 1718.13 191.202 1717.16 191.221C1716.2 191.239 1715.4 190.471 1715.38 189.504C1715.36 188.538 1716.13 187.74 1717.1 187.722C1718.06 187.704 1718.86 188.472 1718.88 189.438ZM1718.88 189.438L1726.82 189.288M1721.57 182.118L1718.04 187.973M1723.85 181.94L1727.73 187.79M1730.18 189.224C1730.2 190.19 1729.43 190.988 1728.47 191.007C1727.5 191.025 1726.7 190.257 1726.68 189.29C1726.67 188.324 1727.43 187.526 1728.4 187.508C1729.37 187.49 1730.16 188.258 1730.18 189.224ZM1724.37 180.719C1724.39 181.685 1723.62 182.483 1722.65 182.501C1721.68 182.52 1720.89 181.751 1720.87 180.785C1720.85 179.819 1721.62 179.021 1722.58 179.002C1723.55 178.984 1724.35 179.753 1724.37 180.719Z" stroke="#74DFFF" stroke-width="0.538373"/>
<path d="M1732.94 192.807C1732.94 192.807 1732.69 193.62 1731.08 193.785C1729.33 193.818 1729.16 191.937 1727.14 191.975C1725.33 192.009 1724.82 194.086 1723.01 194.072C1721.29 194.059 1720.78 192.095 1719.07 192.128C1717.72 192.153 1716.62 193.755 1715.47 194.081C1714.19 194.442 1713.16 193.316 1713.16 193.316M1733.13 195.631C1733.13 195.631 1732.88 196.443 1731.27 196.608C1729.52 196.642 1729.35 194.76 1727.33 194.798C1725.52 194.833 1725 196.91 1723.19 196.896C1721.48 196.882 1720.97 194.919 1719.25 194.951C1717.91 194.977 1716.81 196.578 1715.66 196.904C1714.38 197.266 1713.35 196.14 1713.35 196.14M1733.18 198.053C1733.18 198.053 1732.92 198.865 1731.31 199.031C1729.56 199.064 1729.39 197.182 1727.37 197.221C1725.56 197.255 1725.05 199.332 1723.24 199.318C1721.52 199.305 1721.02 197.341 1719.3 197.373C1717.95 197.399 1716.85 199.001 1715.7 199.326C1714.42 199.688 1713.4 198.562 1713.4 198.562" stroke="#74DFFF" stroke-width="0.538373"/>
<path d="M1722.01 184.13L1722.55 184.12L1722.62 187.888L1722.08 187.898L1722.01 184.13Z" fill="#74DFFF"/>
<path d="M1723.63 184.099L1724.3 184.086L1722.56 186.381L1722.15 186.026L1723.63 184.099Z" fill="#74DFFF"/>
<path d="M1723.97 187.862L1724.64 187.849L1722.91 185.459L1722.49 185.797L1723.97 187.862Z" fill="#74DFFF"/>
<path d="M1055.41 717.333C1056.29 717.445 1057.03 718.029 1057.35 718.853L1063.47 734.877C1063.76 735.638 1063.64 736.494 1063.16 737.15L1053.73 749.966C1053.24 750.631 1052.44 750.997 1051.61 750.933L1034.72 749.623C1033.84 749.554 1033.06 748.998 1032.71 748.179L1025.72 731.858C1025.39 731.078 1025.49 730.18 1025.99 729.497L1035.86 716.087C1036.38 715.388 1037.23 715.023 1038.09 715.132L1055.41 717.333Z" fill="url(#paint16_linear_6373_18501)"/>
<path d="M1055.39 717.531C1056.19 717.633 1056.87 718.169 1057.16 718.924L1063.28 734.949C1063.55 735.646 1063.44 736.431 1063 737.032L1053.57 749.848C1053.12 750.457 1052.39 750.793 1051.63 750.734L1034.74 749.424C1033.93 749.361 1033.21 748.851 1032.89 748.101L1025.9 731.779C1025.6 731.065 1025.69 730.242 1026.15 729.616L1036.03 716.205C1036.5 715.565 1037.28 715.23 1038.07 715.33L1055.39 717.531Z" stroke="#74DFFF" stroke-opacity="0.5" stroke-width="0.398787"/>
<path d="M1043.47 727.052H1047.25L1043.33 738.686C1043.29 738.805 1043.21 738.909 1043.11 738.983C1043.01 739.056 1042.88 739.096 1042.76 739.096H1039.81C1039.72 739.096 1039.62 739.073 1039.54 739.03C1039.45 738.986 1039.38 738.923 1039.32 738.845C1039.27 738.767 1039.23 738.678 1039.22 738.583C1039.2 738.488 1039.21 738.392 1039.24 738.301L1042.9 727.463C1042.94 727.343 1043.02 727.239 1043.12 727.165C1043.22 727.092 1043.35 727.052 1043.47 727.052Z" fill="url(#paint17_linear_6373_18501)"/>
<path d="M1048.97 734.855H1042.97C1042.91 734.855 1042.86 734.872 1042.81 734.903C1042.77 734.935 1042.73 734.979 1042.71 735.031C1042.69 735.083 1042.69 735.14 1042.7 735.194C1042.71 735.249 1042.74 735.298 1042.78 735.336L1046.63 738.933C1046.75 739.038 1046.89 739.096 1047.05 739.096H1050.44L1048.97 734.855Z" fill="url(#paint18_linear_6373_18501)"/>
<path d="M1043.47 727.053C1043.34 727.053 1043.22 727.093 1043.12 727.168C1043.01 727.244 1042.94 727.35 1042.9 727.471L1039.25 738.292C1039.21 738.383 1039.2 738.481 1039.22 738.576C1039.23 738.672 1039.27 738.763 1039.32 738.842C1039.38 738.921 1039.45 738.985 1039.54 739.03C1039.62 739.074 1039.72 739.097 1039.81 739.097H1042.83C1042.95 739.077 1043.05 739.027 1043.14 738.953C1043.23 738.879 1043.29 738.783 1043.33 738.675L1044.06 736.529L1046.66 738.956C1046.77 739.046 1046.9 739.096 1047.05 739.097H1050.43L1048.95 734.856L1044.62 734.857L1047.27 727.053H1043.47Z" fill="#74DFFF"/>
<path d="M1048.31 727.462C1048.27 727.343 1048.19 727.239 1048.09 727.166C1047.98 727.092 1047.86 727.053 1047.73 727.053H1043.52C1043.65 727.053 1043.77 727.092 1043.87 727.166C1043.97 727.239 1044.05 727.343 1044.09 727.462L1047.75 738.302C1047.78 738.392 1047.79 738.489 1047.77 738.583C1047.76 738.678 1047.72 738.768 1047.67 738.845C1047.61 738.923 1047.54 738.986 1047.45 739.03C1047.37 739.074 1047.27 739.096 1047.18 739.096H1051.39C1051.49 739.096 1051.58 739.074 1051.67 739.03C1051.75 738.986 1051.83 738.923 1051.88 738.845C1051.94 738.768 1051.97 738.678 1051.99 738.583C1052 738.489 1051.99 738.392 1051.96 738.302L1048.31 727.462Z" fill="url(#paint19_linear_6373_18501)"/>
<path d="M738.781 120.468C740.101 120.593 741.245 121.434 741.758 122.657L751.727 146.425C752.201 147.553 752.068 148.845 751.374 149.853L737.826 169.555C737.122 170.578 735.941 171.166 734.701 171.11L709.273 169.96C707.936 169.899 706.744 169.102 706.178 167.89L694.89 143.718C694.35 142.563 694.463 141.209 695.185 140.159L709.362 119.543C710.101 118.468 711.364 117.878 712.662 118.001L738.781 120.468Z" fill="#0F1924"/>
<path d="M738.753 120.766C739.963 120.881 741.012 121.652 741.482 122.773L751.451 146.541C751.885 147.575 751.763 148.759 751.128 149.683L737.579 169.386C736.934 170.323 735.851 170.862 734.714 170.811L709.286 169.661C708.061 169.605 706.968 168.874 706.449 167.763L695.161 143.591C694.667 142.532 694.77 141.291 695.432 140.329L709.609 119.713C710.286 118.728 711.444 118.187 712.634 118.299L738.753 120.766Z" stroke="#74DFFF" stroke-opacity="0.7" stroke-width="0.599189"/>
<path fill-rule="evenodd" clip-rule="evenodd" d="M728.113 134.914C730.803 135.055 732.579 137.459 732.43 140.302C732.484 141.343 732.336 142.551 731.836 143.557C731.162 145.199 729.751 145.856 727.631 145.746L727.51 145.739L729.451 148.951L726.315 151.394L723.216 145.594L721.459 145.423L720.993 154.331L717.34 154.14L718.371 134.405L728.113 134.914ZM726.437 151.78L729.879 149.378L731.332 151.459L728.054 154.232L726.437 151.78ZM728.558 154.493L731.602 152.313C731.771 152.193 731.996 152.222 732.131 152.381L733.267 153.715C733.367 153.832 733.398 153.998 733.339 154.144C733.174 154.556 732.794 155.395 732.314 155.783C731.175 156.705 729.051 155.371 728.802 155.265C728.787 155.259 728.816 155.273 728.802 155.265C728.54 155.108 728.306 154.672 728.558 154.493ZM727.55 137.896L722.273 137.62L722.049 141.91L727.326 142.186C728.447 142.245 729.406 141.332 729.468 140.147C729.53 138.962 728.671 137.954 727.55 137.896Z" fill="#74DFFF" fill-opacity="0.9"/>
<path d="M1640.91 668.205C1641.49 667.009 1642.67 666.224 1643.99 666.164L1669.74 664.998C1670.96 664.942 1672.13 665.512 1672.84 666.51L1686.66 686.02C1687.38 687.033 1687.53 688.344 1687.05 689.489L1677.2 712.963C1676.68 714.197 1675.53 715.041 1674.19 715.155L1647.61 717.42C1646.34 717.528 1645.11 716.956 1644.37 715.916L1629.91 695.502C1629.15 694.438 1629.03 693.049 1629.59 691.873L1640.91 668.205Z" fill="url(#paint20_linear_6373_18501)"/>
<path d="M1641.18 668.334C1641.71 667.238 1642.79 666.519 1644.01 666.464L1669.76 665.297C1670.88 665.246 1671.94 665.769 1672.59 666.684L1686.42 686.193C1687.08 687.121 1687.21 688.324 1686.77 689.373L1676.93 712.847C1676.45 713.978 1675.39 714.752 1674.17 714.856L1647.59 717.121C1646.42 717.22 1645.29 716.696 1644.62 715.743L1630.15 695.329C1629.46 694.354 1629.35 693.08 1629.87 692.002L1641.18 668.334Z" stroke="#74DFFF" stroke-opacity="0.7" stroke-width="0.599189"/>
<g clip-path="url(#clip1_6373_18501)">
<path fill-rule="evenodd" clip-rule="evenodd" d="M1664.16 686.904C1664.6 686.371 1665.09 685.882 1665.54 685.35L1665.18 684.994C1664.65 685.438 1664.16 685.927 1663.63 686.371L1662.12 687.792C1661.23 688.591 1660.34 689.479 1659.5 690.322C1658.65 689.479 1657.77 688.591 1656.88 687.792L1655.37 686.371C1654.84 685.927 1654.35 685.438 1653.81 684.994L1653.42 685.394C1653.86 685.927 1654.35 686.415 1654.79 686.948L1656.21 688.458C1656.61 688.857 1657.01 689.257 1657.41 689.656C1656.88 689.479 1656.35 689.212 1655.81 689.035L1653.86 688.324C1653.19 688.102 1652.57 687.836 1651.91 687.614L1651.68 688.102C1652.35 688.413 1652.93 688.724 1653.55 688.99L1655.46 689.834C1655.99 690.1 1656.52 690.278 1657.06 690.544C1656.48 690.589 1655.9 690.544 1655.32 690.589L1653.24 690.633C1652.57 690.678 1651.86 690.678 1651.15 690.766L1651.15 691.388C1651.82 691.432 1652.53 691.432 1653.24 691.521L1655.32 691.566C1655.9 691.61 1656.48 691.566 1657.06 691.61C1656.57 691.832 1655.99 692.054 1655.46 692.32L1653.55 693.164C1652.93 693.43 1652.26 693.741 1651.68 694.052L1651.91 694.629C1652.57 694.407 1653.19 694.141 1653.86 693.919L1655.81 693.208C1656.35 693.031 1656.88 692.764 1657.41 692.587C1657.01 692.986 1656.61 693.386 1656.21 693.786L1654.79 695.295C1654.35 695.828 1653.86 696.316 1653.42 696.849L1653.81 697.249C1654.35 696.805 1654.84 696.316 1655.37 695.872L1656.88 694.452C1657.81 693.608 1658.65 692.764 1659.5 691.921C1660.34 692.764 1661.23 693.652 1662.12 694.452L1663.63 695.872C1664.16 696.316 1664.65 696.805 1665.18 697.249L1665.54 696.894C1665.09 696.361 1664.6 695.872 1664.16 695.34L1662.74 693.83C1662.34 693.43 1661.9 692.986 1661.54 692.542C1662.12 692.764 1662.61 692.986 1663.18 693.208L1665.14 693.919C1665.8 694.141 1666.42 694.407 1667.09 694.629L1667.31 694.141C1666.69 693.786 1666.07 693.519 1665.45 693.253L1663.54 692.232C1663.01 691.965 1662.47 691.788 1661.94 691.521C1662.56 691.521 1663.09 691.521 1663.67 691.477L1665.76 691.432C1666.42 691.388 1667.13 691.388 1667.84 691.299L1667.84 690.766C1667.18 690.722 1666.47 690.722 1665.76 690.633L1663.67 690.589C1663.09 690.544 1662.47 690.544 1661.94 690.544C1662.47 690.278 1663.01 690.1 1663.54 689.834L1665.45 688.99C1666.07 688.724 1666.73 688.413 1667.31 688.102L1667.09 687.614C1666.42 687.836 1665.76 688.058 1665.14 688.324L1663.18 689.035C1662.61 689.257 1662.07 689.434 1661.54 689.701C1661.94 689.301 1662.38 688.857 1662.74 688.413L1664.16 686.904Z" fill="#74DFFF"/>
<path fill-rule="evenodd" clip-rule="evenodd" d="M1669.04 700.046C1663.76 705.33 1655.24 705.33 1649.95 700.046C1644.67 694.762 1644.67 686.238 1649.95 680.954C1655.24 675.67 1663.76 675.67 1669.04 680.954C1674.33 686.238 1674.33 694.762 1669.04 700.046ZM1650.84 681.842C1646.09 686.593 1646.09 694.407 1650.84 699.158C1655.59 703.909 1663.41 703.909 1668.16 699.158C1672.91 694.407 1672.91 686.593 1668.16 681.842C1663.41 677.091 1655.59 677.091 1650.84 681.842Z" fill="#74DFFF"/>
</g>
</g>
<defs>
<filter id="filter0_f_6373_18501" x="579.336" y="495.741" width="1963.29" height="1278.66" filterUnits="userSpaceOnUse" color-interpolation-filters="sRGB">
<feFlood flood-opacity="0" result="BackgroundImageFix"/>
<feBlend mode="normal" in="SourceGraphic" in2="BackgroundImageFix" result="shape"/>
<feGaussianBlur stdDeviation="113.5" result="effect1_foregroundBlur_6373_18501"/>
</filter>
<filter id="filter1_f_6373_18501" x="94.3398" y="360.741" width="2410.13" height="1522.81" filterUnits="userSpaceOnUse" color-interpolation-filters="sRGB">
<feFlood flood-opacity="0" result="BackgroundImageFix"/>
<feBlend mode="normal" in="SourceGraphic" in2="BackgroundImageFix" result="shape"/>
<feGaussianBlur stdDeviation="113.5" result="effect1_foregroundBlur_6373_18501"/>
</filter>
<filter id="filter2_f_6373_18501" x="353" y="599" width="744" height="744" filterUnits="userSpaceOnUse" color-interpolation-filters="sRGB">
<feFlood flood-opacity="0" result="BackgroundImageFix"/>
<feBlend mode="normal" in="SourceGraphic" in2="BackgroundImageFix" result="shape"/>
<feGaussianBlur stdDeviation="2.5" result="effect1_foregroundBlur_6373_18501"/>
</filter>
<filter id="filter3_f_6373_18501" x="1346" y="128" width="418" height="418" filterUnits="userSpaceOnUse" color-interpolation-filters="sRGB">
<feFlood flood-opacity="0" result="BackgroundImageFix"/>
<feBlend mode="normal" in="SourceGraphic" in2="BackgroundImageFix" result="shape"/>
<feGaussianBlur stdDeviation="10" result="effect1_foregroundBlur_6373_18501"/>
</filter>
<filter id="filter4_f_6373_18501" x="901.078" y="159.078" width="59.6289" height="59.6309" filterUnits="userSpaceOnUse" color-interpolation-filters="sRGB">
<feFlood flood-opacity="0" result="BackgroundImageFix"/>
<feBlend mode="normal" in="SourceGraphic" in2="BackgroundImageFix" result="shape"/>
<feGaussianBlur stdDeviation="2.5" result="effect1_foregroundBlur_6373_18501"/>
</filter>
<filter id="filter5_f_6373_18501" x="903.078" y="166.078" width="59.6289" height="59.6309" filterUnits="userSpaceOnUse" color-interpolation-filters="sRGB">
<feFlood flood-opacity="0" result="BackgroundImageFix"/>
<feBlend mode="normal" in="SourceGraphic" in2="BackgroundImageFix" result="shape"/>
<feGaussianBlur stdDeviation="2.5" result="effect1_foregroundBlur_6373_18501"/>
</filter>
<filter id="filter6_f_6373_18501" x="1824.75" y="220.754" width="78.7969" height="78.7964" filterUnits="userSpaceOnUse" color-interpolation-filters="sRGB">
<feFlood flood-opacity="0" result="BackgroundImageFix"/>
<feBlend mode="normal" in="SourceGraphic" in2="BackgroundImageFix" result="shape"/>
<feGaussianBlur stdDeviation="5" result="effect1_foregroundBlur_6373_18501"/>
</filter>
<filter id="filter7_f_6373_18501" x="1608.88" y="637.88" width="577.031" height="577.029" filterUnits="userSpaceOnUse" color-interpolation-filters="sRGB">
<feFlood flood-opacity="0" result="BackgroundImageFix"/>
<feBlend mode="normal" in="SourceGraphic" in2="BackgroundImageFix" result="shape"/>
<feGaussianBlur stdDeviation="5" result="effect1_foregroundBlur_6373_18501"/>
</filter>
<filter id="filter8_f_6373_18501" x="1791.09" y="462.094" width="83.5898" height="83.5898" filterUnits="userSpaceOnUse" color-interpolation-filters="sRGB">
<feFlood flood-opacity="0" result="BackgroundImageFix"/>
<feBlend mode="normal" in="SourceGraphic" in2="BackgroundImageFix" result="shape"/>
<feGaussianBlur stdDeviation="3" result="effect1_foregroundBlur_6373_18501"/>
</filter>
<filter id="filter9_f_6373_18501" x="1789.09" y="462.094" width="83.5898" height="83.5898" filterUnits="userSpaceOnUse" color-interpolation-filters="sRGB">
<feFlood flood-opacity="0" result="BackgroundImageFix"/>
<feBlend mode="normal" in="SourceGraphic" in2="BackgroundImageFix" result="shape"/>
<feGaussianBlur stdDeviation="3" result="effect1_foregroundBlur_6373_18501"/>
</filter>
<linearGradient id="paint0_linear_6373_18501" x1="450.5" y1="0" x2="450.5" y2="847" gradientUnits="userSpaceOnUse">
<stop stop-color="#4FDAB8"/>
<stop offset="1" stop-color="#4FDAB8" stop-opacity="0"/>
</linearGradient>
<linearGradient id="paint1_linear_6373_18501" x1="581.733" y1="0" x2="581.733" y2="1093.73" gradientUnits="userSpaceOnUse">
<stop stop-color="#52C7EA"/>
<stop offset="1" stop-color="#52C7EA" stop-opacity="0"/>
</linearGradient>
<radialGradient id="paint2_radial_6373_18501" cx="0" cy="0" r="1" gradientUnits="userSpaceOnUse" gradientTransform="translate(1007.49 116.182) rotate(89.1122) scale(724.531)">
<stop stop-color="#4FDAB8" stop-opacity="0.25"/>
<stop offset="1" stop-color="#52C7EA" stop-opacity="0"/>
</radialGradient>
<radialGradient id="paint3_radial_6373_18501" cx="0" cy="0" r="1" gradientUnits="userSpaceOnUse" gradientTransform="translate(243.295 539.711) rotate(-87.9037) scale(551.549)">
<stop stop-color="#52C7EA" stop-opacity="0.7"/>
<stop offset="1" stop-color="#52C7EA" stop-opacity="0"/>
</radialGradient>
<radialGradient id="paint4_radial_6373_18501" cx="0" cy="0" r="1" gradientUnits="userSpaceOnUse" gradientTransform="translate(1281 16) rotate(89.0891) scale(597.576)">
<stop offset="0.43" stop-color="#4FDAB8" stop-opacity="0.2"/>
<stop offset="0.766526" stop-color="#51CCDC" stop-opacity="0.1"/>
<stop offset="1" stop-color="#52C7EA" stop-opacity="0"/>
</radialGradient>
<radialGradient id="paint5_radial_6373_18501" cx="0" cy="0" r="1" gradientUnits="userSpaceOnUse" gradientTransform="translate(1261.1 1103.13) rotate(-84.991) scale(479.961)">
<stop stop-color="#4FDAB8" stop-opacity="0.6"/>
<stop offset="0.768138" stop-color="#51CBDE" stop-opacity="0.2"/>
<stop offset="1" stop-color="#52C7EA" stop-opacity="0"/>
</radialGradient>
<radialGradient id="paint6_radial_6373_18501" cx="0" cy="0" r="1" gradientUnits="userSpaceOnUse" gradientTransform="translate(1700 171) rotate(130.355) scale(654.811 654.811)">
<stop stop-color="#4FDAB8" stop-opacity="0.2"/>
<stop offset="0.753754" stop-color="#52C7EA" stop-opacity="0"/>
</radialGradient>
<linearGradient id="paint7_linear_6373_18501" x1="881.552" y1="1268.06" x2="1092" y2="778.517" gradientUnits="userSpaceOnUse">
<stop stop-color="#3A74C6" stop-opacity="0.2"/>
<stop offset="1" stop-color="#60D1F2" stop-opacity="0"/>
</linearGradient>
<linearGradient id="paint8_linear_6373_18501" x1="1916.5" y1="876.5" x2="1634" y2="449" gradientUnits="userSpaceOnUse">
<stop stop-color="#0E2A4B" stop-opacity="0.15"/>
<stop offset="1" stop-color="#60D1F2" stop-opacity="0"/>
</linearGradient>
<linearGradient id="paint9_linear_6373_18501" x1="1744" y1="406.5" x2="1389.5" y2="231.5" gradientUnits="userSpaceOnUse">
<stop stop-color="#3A74C6" stop-opacity="0.1"/>
<stop offset="1" stop-color="#60D1F2" stop-opacity="0"/>
</linearGradient>
<linearGradient id="paint10_linear_6373_18501" x1="943.476" y1="215.976" x2="957.704" y2="182.88" gradientUnits="userSpaceOnUse">
<stop stop-color="#3A74C6" stop-opacity="0.2"/>
<stop offset="1" stop-color="#60D1F2" stop-opacity="0"/>
</linearGradient>
<linearGradient id="paint11_linear_6373_18501" x1="1876.69" y1="283.944" x2="1893.55" y2="244.736" gradientUnits="userSpaceOnUse">
<stop stop-color="#1F2B3C" stop-opacity="0.6"/>
<stop offset="1" stop-color="#0B1416" stop-opacity="0.4"/>
</linearGradient>
<linearGradient id="paint12_linear_6373_18501" x1="1790.3" y1="1156.69" x2="1996.73" y2="815.23" gradientUnits="userSpaceOnUse">
<stop stop-color="#1E413D" stop-opacity="0.1"/>
<stop offset="0.959675" stop-color="#1C93B6" stop-opacity="0.01"/>
</linearGradient>
<linearGradient id="paint13_linear_6373_18501" x1="1846.16" y1="532.858" x2="1866.68" y2="485.118" gradientUnits="userSpaceOnUse">
<stop stop-color="#3AC69C" stop-opacity="0.1"/>
<stop offset="1" stop-color="#60D1F2" stop-opacity="0"/>
</linearGradient>
<linearGradient id="paint14_linear_6373_18501" x1="805.648" y1="136.461" x2="815.931" y2="174.84" gradientUnits="userSpaceOnUse">
<stop offset="0.40073" stop-color="#0F1923"/>
<stop offset="1" stop-color="#0F1923"/>
</linearGradient>
<linearGradient id="paint15_linear_6373_18501" x1="1714.46" y1="172.624" x2="1732.03" y2="208.258" gradientUnits="userSpaceOnUse">
<stop offset="0.40073" stop-color="#101A26"/>
<stop offset="1" stop-color="#1D3651"/>
</linearGradient>
<linearGradient id="paint16_linear_6373_18501" x1="1056.43" y1="717.218" x2="1032.88" y2="749.214" gradientUnits="userSpaceOnUse">
<stop offset="0.40073" stop-color="#28566A"/>
<stop offset="1" stop-color="#2C6675"/>
</linearGradient>
<linearGradient id="paint17_linear_6373_18501" x1="1040.03" y1="727.052" x2="1049.57" y2="735.265" gradientUnits="userSpaceOnUse">
<stop stop-color="#4FDAB8"/>
<stop offset="1" stop-color="#52C7EA"/>
</linearGradient>
<linearGradient id="paint18_linear_6373_18501" x1="1043.48" y1="734.855" x2="1045.92" y2="740.61" gradientUnits="userSpaceOnUse">
<stop stop-color="#4FDAB8"/>
<stop offset="1" stop-color="#52C7EA"/>
</linearGradient>
<linearGradient id="paint19_linear_6373_18501" x1="1044.38" y1="727.053" x2="1053.98" y2="735.763" gradientUnits="userSpaceOnUse">
<stop stop-color="#4FDAB8"/>
<stop offset="1" stop-color="#52C7EA"/>
</linearGradient>
<linearGradient id="paint20_linear_6373_18501" x1="1641.23" y1="666.696" x2="1675.75" y2="715.404" gradientUnits="userSpaceOnUse">
<stop stop-color="#1B3843"/>
<stop offset="1" stop-color="#25525E"/>
</linearGradient>
<clipPath id="clip0_6373_18501">
<rect width="2560" height="840" fill="white"/>
</clipPath>
<clipPath id="clip1_6373_18501">
<rect width="27" height="27" fill="white" transform="translate(1640.41 690.5) rotate(-45)"/>
</clipPath>
</defs>
</svg>
