<?xml version="1.0" encoding="UTF-8"?>
<svg width="1200px" height="568px" viewBox="0 0 1200 568" version="1.1" xmlns="http://www.w3.org/2000/svg" xmlns:xlink="http://www.w3.org/1999/xlink">
    <!-- Generator: Sketch 64 (93537) - https://sketch.com -->
    <title>Sticker 1200x568</title>
    <desc>Created with Sketch.</desc>
    <g id="Sticker-1200x568" stroke="none" stroke-width="1" fill="none" fill-rule="evenodd">
        <rect id="Rectangle" fill="#0A1A2B" x="0" y="0" width="1200" height="567.857143" rx="53.5714286"></rect>
        <g id="Group-Copy" transform="translate(187.500000, 112.500000)" fill="#FFFFFF" fill-rule="nonzero">
            <g id="Group-12">
                <path d="M269.005941,127.936644 C277.446078,120.031393 288.816815,115.627039 300.539231,115.739971 C310.620505,115.514107 320.467333,118.676207 328.438573,124.774543 L329.962487,126.016797 L342.857143,111.222684 L341.333229,110.093363 C335.706469,105.689009 329.376367,102.301044 322.577367,100.042401 C315.543916,97.6708254 308.041574,96.4285714 300.539231,96.4285714 C291.864643,96.4285714 283.19006,98.009622 275.21882,101.284655 C267.59925,104.446755 260.565804,108.851109 254.587371,114.497717 C242.513285,126.016797 235.714286,141.827299 235.714286,158.315395 C235.714286,166.559442 237.355423,174.690557 240.754925,182.257012 C244.037199,189.597602 248.726165,196.147667 254.587371,201.681343 C260.565804,207.215019 267.482027,211.732305 275.101592,214.781474 C283.072837,218.056506 291.74742,219.750489 300.422008,219.637557 C307.924351,219.637557 315.30947,218.508235 322.342916,216.023727 C329.141916,213.765084 335.354795,210.264187 340.864332,205.972765 L342.388246,204.730511 L329.728041,190.049331 L328.204126,191.178653 C320.467333,197.164057 311.089402,200.213225 300.30478,200.213225 C294.326351,200.213225 288.347923,199.196836 282.838386,196.938193 C272.288215,192.759703 263.848078,184.628587 259.393559,174.464693 C257.049079,169.269814 255.994062,163.736138 255.994062,158.08953 C255.994062,152.32999 257.049079,146.57045 259.393559,141.262639 C261.855267,136.293623 265.020318,131.776337 269.005941,127.936644 Z" id="Path"></path>
                <path d="M438.066009,127.310418 C445.001596,120.597472 452.4155,113.766756 459.948982,106.93604 L461.50351,105.522788 L448.58897,92.4502104 L447.154019,93.8634621 C435.794008,104.46285 424.912308,114.473382 414.389352,124.130601 C404.942603,132.727882 395.256697,141.678476 385.092475,150.982382 L385.092475,0 L364.285714,0 L364.285714,219.642857 L385.092475,219.642857 L385.092475,176.067599 L402.43144,160.286289 L446.914858,219.642857 L471.428571,219.642857 L417.378826,146.507086 C424.553574,140.029682 431.489161,133.552279 438.066009,127.310418 Z" id="Path"></path>
                <path d="M583.78391,117.905367 C582.774641,116.661973 581.765366,115.418579 580.503774,114.175186 C577.223633,110.671077 573.312697,107.732148 569.023281,105.245361 C564.229233,102.419467 559.056705,100.271787 553.631856,98.8023224 C547.576212,97.2198219 541.394409,96.4285714 535.086448,96.4285714 C525.876826,96.4285714 516.793362,98.0110724 508.340693,101.28911 C500.140341,104.454111 492.696947,109.088577 486.388987,114.740365 C480.081021,120.505189 475.034651,127.287334 471.502194,134.634659 C467.843579,142.208055 465.951187,150.459666 466.07735,158.711276 C466.07735,166.849851 467.843579,174.762354 471.376036,182.222715 C474.782335,189.457003 479.702547,196.013078 485.758186,201.55183 C491.939988,207.203618 499.383387,211.612013 507.583735,214.777014 C516.288725,218.055051 525.624505,219.750588 535.086448,219.637552 C541.394409,219.637552 547.828533,218.959337 553.884172,217.376837 C559.309021,216.020408 564.481549,213.985764 569.275602,211.272906 C573.565013,208.899155 577.349792,206.07326 580.756091,202.795223 C581.639208,201.890937 582.522319,200.873615 583.405436,199.969329 C583.405436,201.212723 583.405436,202.456116 583.405436,203.699509 L583.405436,217.376837 L605.357143,217.376837 L605.357143,99.0283942 L584.667027,99.0283942 L583.78391,117.905367 Z M569.654076,128.078585 C573.943492,131.921801 577.349792,136.556267 579.746816,141.52984 C582.14384,146.729485 583.405436,152.268238 583.405436,157.920026 C583.531594,163.68485 582.270003,169.336638 579.746816,174.649319 C574.952767,184.822537 565.869303,192.961112 554.514968,197.143435 C542.403684,201.438794 528.904646,201.438794 516.91952,197.143435 C492.823105,187.874503 481.594933,162.893599 491.687672,141.303769 C494.084696,136.330195 497.490995,131.808765 501.780411,128.078585 C515.910245,116.096794 536.600361,112.592685 554.514968,119.14876 C560.192138,121.183403 565.238502,124.235369 569.654076,128.078585 L569.654076,128.078585 Z" id="Shape"></path>
                <path d="M818.266234,106.533751 C810.740258,99.8735188 800.253245,96.4285714 787.175322,96.4285714 C774.46753,96.6582348 763.733767,99.6438558 755.097401,105.500266 C748.064933,110.323193 742.142859,116.524098 737.824676,123.643656 C735.850648,116.63893 731.655846,110.208361 725.733767,105.500266 C718.331167,99.5290244 708.337661,96.4285714 696.123376,96.4285714 C683.168834,96.6582348 672.188314,99.8735188 663.428574,105.959593 C656.766236,110.667688 651.214289,116.524098 647.019482,123.18433 C646.896106,121.117361 646.772731,118.82073 646.64935,116.524098 C646.402599,113.538477 646.279224,110.667688 646.155843,107.91173 C646.032468,105.155772 645.909092,102.744308 645.662341,100.907003 L645.415585,99.1845295 L626.785714,99.1845295 L626.785714,219.528026 L648.253247,219.528026 L648.253247,155.796499 C648.253247,150.399414 649.363636,145.00233 651.584415,139.94974 C653.681819,135.241646 656.766236,130.992877 660.837663,127.54793 C664.909089,123.988151 669.597404,121.232193 674.77922,119.394888 C680.331167,117.442751 686.253246,116.409267 692.175325,116.524098 C700.564935,116.868593 706.857145,119.280056 711.051947,123.413993 C715.246754,127.662761 717.714284,133.174677 717.96104,138.916256 L717.96104,219.528026 L739.428573,219.528026 L739.428573,154.992678 C739.551948,149.710425 740.785714,144.428172 743.006492,139.605246 C745.103896,135.011982 748.188308,130.878046 752.012984,127.433099 C755.96104,123.988151 760.649349,121.232193 765.70779,119.394888 C771.136362,117.442751 776.935065,116.409267 782.857139,116.524098 C791.370129,116.868593 797.909091,119.280056 801.980517,123.413993 C806.175324,127.662761 808.642854,133.174677 808.88961,139.031088 L808.88961,219.642857 L830.357143,219.642857 L830.357143,133.404341 C829.863636,122.265677 825.792204,113.308814 818.266234,106.533751 Z" id="Path"></path>
                <path d="M112.500001,20.2854866 C163.136942,20.2854866 204.219745,60.3901273 204.219745,109.821429 C204.219745,159.25273 163.136942,199.35737 112.500001,199.35737 C61.8630575,199.35737 20.7802547,159.25273 20.7802547,109.821429 C20.7802547,109.821429 20.7802547,109.821429 20.7802547,109.821429 C20.8996818,60.3901273 61.8630575,20.4020698 112.500001,20.2854866 L112.500001,20.2854866 Z M112.5,0 C50.3980892,0 0,49.1981345 0,109.821429 C0,170.444722 50.3980892,219.642857 112.5,219.642857 C174.601913,219.642857 225,170.444722 225,109.821429 C225,49.1981345 174.601913,0 112.5,0 L112.5,0 Z" id="Shape"></path>
            </g>
            <path d="M88.2556586,337.65625 L88.2556586,301.141964 L100.644434,301.141964 L100.644434,297.348272 L71.5989796,297.348272 L71.5989796,301.141964 L83.9877551,301.141964 L83.9877551,337.65625 L88.2556586,337.65625 Z M148.816418,338.130462 C160.316047,338.130462 169.563171,329.653931 169.563171,317.502261 C169.563171,305.350591 160.316047,296.874061 148.816418,296.874061 C137.376066,296.874061 128.128941,305.350591 128.128941,317.502261 C128.128941,329.653931 137.376066,338.130462 148.816418,338.130462 Z M148.816418,334.277493 C139.450741,334.277493 132.574674,327.105044 132.574674,317.502261 C132.574674,307.899478 139.450741,300.727029 148.816418,300.727029 C158.241372,300.727029 165.117439,307.899478 165.117439,317.502261 C165.117439,327.105044 158.241372,334.277493 148.816418,334.277493 Z M221.351018,338.130462 C232.850647,338.130462 242.097771,329.653931 242.097771,317.502261 C242.097771,305.350591 232.850647,296.874061 221.351018,296.874061 C209.910666,296.874061 200.663541,305.350591 200.663541,317.502261 C200.663541,329.653931 209.910666,338.130462 221.351018,338.130462 Z M221.351018,334.277493 C211.985341,334.277493 205.109274,327.105044 205.109274,317.502261 C205.109274,307.899478 211.985341,300.727029 221.351018,300.727029 C230.775972,300.727029 237.652039,307.899478 237.652039,317.502261 C237.652039,327.105044 230.775972,334.277493 221.351018,334.277493 Z M298.805562,337.65625 L298.805562,333.862558 L279.777826,333.862558 L279.777826,297.348272 L275.509922,297.348272 L275.509922,337.65625 L298.805562,337.65625 Z M388.569846,338.130462 C395.801571,338.130462 401.610662,335.048087 405.167248,329.83176 L401.847768,327.519979 C398.943223,331.728606 394.438213,334.277493 388.569846,334.277493 C379.144892,334.277493 372.328102,327.105044 372.328102,317.502261 C372.328102,307.899478 379.144892,300.727029 388.569846,300.727029 C394.378937,300.727029 398.706117,303.21664 401.31428,307.069608 L404.574484,304.698551 C401.136451,299.5415 395.683018,296.874061 388.569846,296.874061 C377.129493,296.874061 367.882369,305.350591 367.882369,317.502261 C367.882369,329.653931 377.129493,338.130462 388.569846,338.130462 Z M456.006672,338.130462 C467.506301,338.130462 476.753425,329.653931 476.753425,317.502261 C476.753425,305.350591 467.506301,296.874061 456.006672,296.874061 C444.56632,296.874061 435.319195,305.350591 435.319195,317.502261 C435.319195,329.653931 444.56632,338.130462 456.006672,338.130462 Z M456.006672,334.277493 C446.640995,334.277493 439.764928,327.105044 439.764928,317.502261 C439.764928,307.899478 446.640995,300.727029 456.006672,300.727029 C465.431626,300.727029 472.307693,307.899478 472.307693,317.502261 C472.307693,327.105044 465.431626,334.277493 456.006672,334.277493 Z M514.314927,337.65625 L514.314927,311.041129 C514.314927,309.20356 514.077821,306.417567 514.077821,306.417567 C514.077821,306.417567 515.678285,309.025731 516.982367,310.626194 L529.015484,326.038068 L529.726801,326.038068 L541.937747,310.626194 C543.241829,309.025731 544.783016,306.417567 544.783016,306.417567 C544.783016,306.417567 544.605187,309.20356 544.605187,311.041129 L544.605187,337.65625 L548.754538,337.65625 L548.754538,296.874061 L548.102497,296.874061 L529.489695,320.288254 L510.758341,296.874061 L510.165576,296.874061 L510.165576,337.65625 L514.314927,337.65625 Z M588.746373,337.65625 L588.746373,327.638532 L593.607041,327.638532 C604.632458,327.638532 610.26372,321.414506 610.26372,312.52304 C610.26372,303.453745 604.632458,297.348272 593.607041,297.348272 L584.47847,297.348272 L584.47847,337.65625 L588.746373,337.65625 Z M593.369935,323.904116 L588.746373,323.904116 L588.746373,301.141964 L593.369935,301.141964 C602.43923,301.141964 605.817987,305.884079 605.817987,312.52304 C605.817987,319.162001 602.43923,323.904116 593.369935,323.904116 Z M641.126984,337.65625 L643.794424,330.898736 L664.185519,330.898736 L666.912235,337.65625 L671.417244,337.65625 L654.34563,296.933337 L653.634313,296.933337 L636.918357,337.65625 L641.126984,337.65625 Z M662.644331,327.223597 L645.276335,327.223597 L652.389507,309.322113 C653.160101,307.425267 653.989971,304.520721 653.989971,304.520721 C653.989971,304.520721 654.760565,307.425267 655.531159,309.322113 L662.644331,327.223597 Z M735.060378,338.071185 L735.060378,297.348272 L731.088857,297.348272 L731.088857,324.556157 C731.088857,326.275174 731.385239,329.120443 731.385239,329.120443 C731.385239,329.120443 729.725499,326.749385 728.599247,325.386027 L704.533013,296.933337 L703.821696,296.933337 L703.821696,337.65625 L707.852493,337.65625 L707.852493,310.448365 C707.852493,308.729348 707.496835,305.884079 707.496835,305.884079 L707.648255,306.098917 C708.082741,306.71297 709.361348,308.50302 710.282827,309.618495 L734.349061,338.071185 L735.060378,338.071185 Z M787.085331,337.65625 L787.085331,324.852539 L802.022993,297.348272 L797.57726,297.348272 L786.670396,317.383708 C785.840526,318.984172 784.951379,321.473782 784.951379,321.473782 C784.951379,321.473782 784.121509,318.924896 783.232362,317.383708 L772.266221,297.348272 L767.46483,297.348272 L782.698874,325.030369 L782.698874,337.65625 L787.085331,337.65625 Z" id="TOOLCOMPANY"></path>
        </g>
    </g>
</svg>