<svg width="2425" height="1240" viewBox="0 0 2425 1240" fill="none" xmlns="http://www.w3.org/2000/svg">
<g clip-path="url(#clip0_6077_38643)">
<g opacity="0.7" filter="url(#filter0_f_6077_38643)">
<rect width="901" height="847" rx="24" transform="matrix(0.87755 0.479485 -0.87755 0.479485 1469.79 716)" fill="url(#paint0_linear_6077_38643)"/>
</g>
<g opacity="0.7" filter="url(#filter1_f_6077_38643)">
<rect width="1163.47" height="1093.73" rx="24" transform="matrix(0.87755 0.479485 -0.87755 0.479485 1201.31 581)" fill="url(#paint1_linear_6077_38643)"/>
</g>
<g filter="url(#filter2_f_6077_38643)">
<circle cx="657.5" cy="971" r="367" fill="url(#paint2_linear_6077_38643)"/>
</g>
<circle cx="1506.5" cy="759" r="285" fill="url(#paint3_linear_6077_38643)"/>
<g filter="url(#filter3_f_6077_38643)">
<circle cx="1487.5" cy="337" r="189" fill="url(#paint4_linear_6077_38643)"/>
</g>
<g filter="url(#filter4_f_6077_38643)">
<circle cx="726.425" cy="602.923" r="125.124" transform="rotate(120 726.425 602.923)" fill="url(#paint5_linear_6077_38643)"/>
</g>
<g filter="url(#filter5_f_6077_38643)">
<circle cx="720.561" cy="597.06" r="98.1385" transform="rotate(120 720.561 597.06)" fill="#162535" fill-opacity="0.5"/>
</g>
<g filter="url(#filter6_f_6077_38643)">
<circle cx="726.149" cy="583.648" r="67.8228" transform="rotate(120 726.149 583.648)" fill="#162535" fill-opacity="0.8"/>
</g>
<g filter="url(#filter7_f_6077_38643)">
<circle cx="863.393" cy="188.893" r="24.8111" transform="rotate(120 863.393 188.893)" fill="#162535"/>
</g>
<g filter="url(#filter8_f_6077_38643)">
<circle cx="865.393" cy="195.893" r="24.8111" transform="rotate(120 865.393 195.893)" fill="url(#paint6_linear_6077_38643)"/>
</g>
<g filter="url(#filter9_f_6077_38643)">
<circle cx="1796.65" cy="260.152" r="29.3932" transform="rotate(120 1796.65 260.152)" fill="url(#paint7_linear_6077_38643)"/>
</g>
<g filter="url(#filter10_f_6077_38643)">
<circle cx="1829.89" cy="926.394" r="278.468" transform="rotate(120 1829.89 926.394)" fill="url(#paint8_linear_6077_38643)"/>
</g>
<g filter="url(#filter11_f_6077_38643)">
<circle cx="1765.39" cy="503.889" r="35.7889" transform="rotate(120 1765.39 503.889)" fill="#162535"/>
</g>
<g filter="url(#filter12_f_6077_38643)">
<circle cx="1763.39" cy="503.888" r="35.7889" transform="rotate(120 1763.39 503.888)" fill="url(#paint9_linear_6077_38643)"/>
</g>
<circle cx="981.12" cy="454.571" r="283.669" transform="rotate(-60 981.12 454.571)" stroke="url(#paint10_radial_6077_38643)"/>
<circle cx="284.169" cy="284.169" r="283.669" transform="matrix(-0.5 -0.866025 -0.866025 0.5 1354.3 828.906)" stroke="url(#paint11_radial_6077_38643)"/>
<mask id="mask0_6077_38643" style="mask-type:alpha" maskUnits="userSpaceOnUse" x="1174" y="104" width="910" height="934">
<path d="M1822.31 361.505C1822.31 484.035 1722.96 583.366 1600.4 583.366C1477.85 583.366 1174 609.031 1174 486.5C1174 363.969 1323.44 104 1446 104C1568.55 104 1822.31 238.974 1822.31 361.505Z" fill="#D9D9D9"/>
<path d="M1959.09 330.5C1959.09 453.031 1859.74 552.361 1737.18 552.361C1614.63 552.361 1515.28 448.392 1515.28 325.861C1515.28 203.331 1614.63 104 1737.18 104C1859.74 104 1959.09 207.969 1959.09 330.5Z" fill="#D9D9D9"/>
<path d="M1900.4 831.5C1900.4 954.031 1762.25 1038 1639.69 1038C1517.14 1038 1417.79 938.669 1417.79 816.139C1417.79 693.608 1555.95 609.639 1678.5 609.639C1801.05 609.639 1900.4 708.969 1900.4 831.5Z" fill="#D9D9D9"/>
<path d="M2083.5 816.139C2083.5 938.669 1984.15 1038 1861.6 1038C1739.04 1038 1627 932.031 1627 809.5C1627 686.969 1726.35 587.639 1848.9 587.639C1971.46 587.639 2083.5 693.608 2083.5 816.139Z" fill="#D9D9D9"/>
</mask>
<g mask="url(#mask0_6077_38643)">
<path d="M1649.79 513.076C1680.61 530.868 1706.83 553.57 1728.02 579.623C1704.69 614.194 1673.34 644.132 1634.79 666.389C1512.42 737.043 1359.28 706.15 1272.95 599.854C1355.52 477.452 1519.97 438.121 1649.79 513.076ZM1728.61 578.756C1707.37 552.71 1681.13 530.011 1650.29 512.21C1520.1 437.042 1355.21 476.406 1272.29 599.041C1263.16 587.718 1254.79 575.547 1247.29 562.559C1168.96 426.882 1215.45 253.392 1351.12 175.059C1486.8 96.7262 1660.29 143.212 1738.62 278.889C1794.51 375.695 1786.86 491.749 1728.61 578.756ZM1262.29 616.906C1265.5 611.361 1268.86 605.966 1272.36 600.722C1359.03 707.202 1512.58 738.106 1635.29 667.255C1673.89 644.974 1705.29 615.021 1728.68 580.436C1800.23 669.048 1813.98 796.036 1753.62 900.575C1675.29 1036.25 1501.8 1082.74 1366.12 1004.41C1230.45 926.072 1183.96 752.583 1262.29 616.906Z" stroke="url(#paint12_radial_6077_38643)"/>
</g>
<circle cx="1213.28" cy="300.144" r="283.644" stroke="url(#paint13_radial_6077_38643)"/>
<circle cx="1213.28" cy="888.432" r="283.644" stroke="url(#paint14_radial_6077_38643)"/>
<path d="M981.281 100.468C982.601 100.593 983.745 101.434 984.258 102.657L994.227 126.425C994.701 127.553 994.568 128.844 993.874 129.853L980.326 149.555C979.622 150.578 978.441 151.166 977.201 151.11L951.773 149.96C950.436 149.899 949.244 149.102 948.678 147.889L937.39 123.717C936.85 122.563 936.963 121.209 937.685 120.159L951.862 99.5428C952.601 98.4681 953.864 97.878 955.162 98.0006L981.281 100.468Z" fill="url(#paint15_linear_6077_38643)"/>
<path d="M981.253 100.766C982.463 100.88 983.512 101.652 983.982 102.772L993.951 126.541C994.385 127.575 994.263 128.759 993.628 129.683L980.079 149.386C979.434 150.323 978.351 150.862 977.214 150.81L951.786 149.66C950.561 149.605 949.468 148.874 948.949 147.763L937.661 123.591C937.167 122.532 937.27 121.291 937.932 120.329L952.109 99.7125C952.786 98.7274 953.944 98.1865 955.134 98.2989L981.253 100.766Z" stroke="#74DFFF" stroke-opacity="0.7" stroke-width="0.599189"/>
<g clip-path="url(#clip1_6077_38643)">
<g clip-path="url(#clip2_6077_38643)">
<mask id="mask1_6077_38643" style="mask-type:luminance" maskUnits="userSpaceOnUse" x="952" y="111" width="84" height="68">
<path d="M964.27 111.002L1035.5 162.827L1023.74 178.991L952.509 127.166L964.27 111.002Z" fill="white"/>
</mask>
<g mask="url(#mask1_6077_38643)">
<path fill-rule="evenodd" clip-rule="evenodd" d="M963.573 123.307C963.331 123.488 963.023 123.581 962.695 123.545L957.838 123.023C957.153 122.949 956.656 122.336 956.727 121.655C956.799 120.97 957.409 120.477 958.094 120.551L960.807 120.844L959.695 118.35C959.414 117.721 959.694 116.988 960.324 116.712C960.951 116.434 961.687 116.717 961.969 117.346L963.961 121.805C964.101 122.119 964.102 122.455 963.992 122.75C963.957 122.845 963.91 122.931 963.856 123.013C963.779 123.124 963.685 123.225 963.573 123.307ZM963.16 125.827C963.654 126.244 963.75 126.978 963.366 127.506L960.501 131.444C960.097 131.999 959.317 132.12 958.762 131.715C958.203 131.309 958.08 130.532 958.484 129.976L960.086 127.774L957.364 127.479C956.679 127.408 956.184 126.795 956.253 126.112C956.325 125.429 956.937 124.933 957.621 125.006L962.479 125.533C962.741 125.56 962.975 125.667 963.16 125.827ZM969.783 124.101C969.288 123.683 969.194 122.949 969.578 122.421L972.443 118.483C972.846 117.929 973.623 117.807 974.182 118.214C974.74 118.62 974.864 119.397 974.461 119.951L972.858 122.154L975.579 122.447C976.264 122.52 976.76 123.133 976.689 123.815C976.616 124.499 976.006 124.993 975.321 124.919L970.463 124.395C970.202 124.367 969.968 124.26 969.783 124.101ZM963.789 116.529C963.509 115.901 963.79 115.168 964.419 114.888C965.048 114.612 965.783 114.895 966.063 115.523L967.18 118.024L968.783 115.82C969.186 115.266 969.964 115.145 970.522 115.551C971.078 115.955 971.203 116.734 970.8 117.287L967.935 121.226C967.551 121.754 966.823 121.889 966.273 121.548C966.065 121.421 965.891 121.23 965.784 120.991L963.789 116.529ZM965.548 127.047C965.477 127.059 965.374 127.036 965.314 126.993L964.896 126.688C964.838 126.646 964.783 126.554 964.772 126.482L964.378 124.031C964.367 123.961 964.392 123.857 964.433 123.801L964.737 123.383C964.779 123.325 964.87 123.269 964.941 123.258L967.394 122.878C967.466 122.867 967.57 122.892 967.627 122.934L968.046 123.238C968.104 123.281 968.16 123.372 968.171 123.443L968.565 125.895C968.576 125.965 968.551 126.069 968.509 126.127L968.205 126.545C968.164 126.601 968.072 126.657 968.003 126.668L965.548 127.047ZM967.15 125.446C967.192 125.389 967.215 125.284 967.205 125.212L967.09 124.503C967.079 124.434 967.023 124.342 966.966 124.3L966.95 124.288C966.892 124.246 966.788 124.222 966.718 124.233L966.009 124.342C965.937 124.354 965.847 124.411 965.805 124.468L965.794 124.484C965.753 124.541 965.727 124.642 965.738 124.714L965.853 125.423C965.863 125.493 965.919 125.585 965.976 125.626L965.992 125.638C966.05 125.68 966.154 125.705 966.224 125.694L966.934 125.584C967.005 125.573 967.097 125.519 967.138 125.463L967.15 125.446ZM969.154 133.397C969.435 134.025 969.15 134.76 968.523 135.039C967.896 135.316 967.159 135.033 966.881 134.403L965.764 131.905L964.161 134.107C963.757 134.663 962.979 134.784 962.421 134.378C961.863 133.971 961.74 133.195 962.144 132.639L965.009 128.702C965.393 128.173 966.12 128.038 966.67 128.381C966.878 128.507 967.052 128.696 967.158 128.937L969.154 133.397ZM972.134 129.085L973.249 131.576C973.53 132.206 973.249 132.939 972.619 133.217C971.992 133.493 971.255 133.209 970.975 132.582L968.981 128.119C968.849 127.82 968.842 127.497 968.941 127.212C968.985 127.081 969.05 126.959 969.133 126.853C969.193 126.775 969.262 126.705 969.341 126.642C969.588 126.446 969.909 126.344 970.247 126.379L975.106 126.904C975.789 126.977 976.286 127.591 976.216 128.274C976.146 128.957 975.534 129.45 974.849 129.376L972.134 129.085Z" fill="#74DFFF"/>
</g>
</g>
</g>
<path d="M711.281 790.468C712.601 790.593 713.745 791.434 714.258 792.657L724.227 816.425C724.701 817.553 724.568 818.844 723.874 819.853L710.326 839.555C709.622 840.578 708.441 841.166 707.201 841.11L681.773 839.96C680.436 839.899 679.244 839.102 678.678 837.889L667.39 813.717C666.85 812.563 666.963 811.209 667.685 810.159L681.862 789.543C682.601 788.468 683.864 787.878 685.162 788.001L711.281 790.468Z" fill="url(#paint16_linear_6077_38643)"/>
<path d="M711.253 790.766C712.463 790.881 713.512 791.652 713.982 792.772L723.951 816.541C724.385 817.575 724.263 818.759 723.628 819.683L710.079 839.386C709.434 840.323 708.351 840.862 707.214 840.81L681.786 839.66C680.561 839.605 679.468 838.874 678.949 837.763L667.661 813.591C667.167 812.532 667.27 811.291 667.932 810.329L682.109 789.713C682.786 788.727 683.944 788.186 685.134 788.299L711.253 790.766Z" stroke="#74DFFF" stroke-opacity="0.7" stroke-width="0.599189"/>
<path d="M701.296 813.712L703.897 815.566L701.296 813.712ZM698.2 811.506L700.801 813.359L698.2 811.506ZM695.165 809.344L697.766 811.197L695.165 809.344ZM692.13 807.181L694.67 808.991L692.13 807.181ZM689.034 804.975L691.635 806.828L689.034 804.975ZM694.16 804.333L696.7 806.142L694.16 804.333ZM697.195 806.495L699.796 808.348L697.195 806.495ZM700.23 808.657L702.831 810.511L700.23 808.657ZM702.26 805.808L704.861 807.662L702.26 805.808Z" fill="black"/>
<path d="M701.296 813.712L703.897 815.566M698.2 811.506L700.801 813.359M695.165 809.344L697.766 811.197M692.13 807.181L694.67 808.991M689.034 804.975L691.635 806.828M694.16 804.333L696.7 806.142M697.195 806.495L699.796 808.348M700.23 808.657L702.831 810.511M702.26 805.808L704.861 807.662" stroke="#74DFFF" stroke-width="2.88969"/>
<path d="M712.112 821.605C712.112 821.605 711.747 819.758 709.191 818.497C710.223 816.524 709.053 814.103 709.053 814.103C709.053 814.103 705.713 814.991 705.292 818.333C704.788 818.254 703.992 818.061 703.063 817.399L686.032 805.264C684.884 806.22 679.324 814.023 687.871 820.113C694.002 824.481 700.615 824.898 706.489 821.24C709.533 823.783 712.112 821.605 712.112 821.605Z" fill="#74DFFF"/>
<path d="M1734.48 560.401C1735.56 560.204 1736.66 560.616 1737.34 561.474L1750.62 578.15C1751.25 578.942 1751.44 580 1751.11 580.958L1744.76 599.686C1744.43 600.658 1743.62 601.391 1742.62 601.626L1722.12 606.428C1721.05 606.68 1719.92 606.313 1719.19 605.476L1704.77 588.774C1704.09 587.977 1703.87 586.874 1704.21 585.876L1710.86 566.28C1711.2 565.258 1712.08 564.504 1713.14 564.31L1734.48 560.401Z" fill="url(#paint17_linear_6077_38643)"/>
<path d="M1734.59 561.013C1735.45 560.856 1736.32 561.182 1736.86 561.861L1750.14 578.537C1750.63 579.163 1750.78 580 1750.52 580.758L1744.17 599.486C1743.91 600.255 1743.27 600.835 1742.48 601.021L1721.98 605.823C1721.13 606.022 1720.24 605.732 1719.66 605.07L1705.24 588.368C1704.7 587.737 1704.53 586.865 1704.8 586.076L1711.45 566.479C1711.72 565.671 1712.41 565.075 1713.25 564.921L1734.59 561.013Z" stroke="#74DFFF" stroke-opacity="0.7" stroke-width="1.2427"/>
<path d="M1731 572.788C1730.87 572.408 1730.58 572.08 1730.18 571.893C1729.78 571.706 1729.35 571.699 1728.98 571.838L1728.97 571.835C1728.59 571.972 1728.27 572.256 1728.08 572.652C1727.89 573.051 1727.88 573.483 1728.02 573.859L1728.02 573.869C1728.16 574.245 1728.44 574.57 1728.84 574.757C1729.24 574.944 1729.67 574.955 1730.05 574.819L1730.05 574.814C1730.43 574.68 1730.76 574.397 1730.95 573.998C1731.13 573.602 1731.14 573.169 1731 572.79L1731 572.788ZM1720.78 591.913C1721.18 592.1 1721.62 592.106 1721.99 591.973L1722 591.967C1722.38 591.834 1722.7 591.549 1722.89 591.154C1723.08 590.755 1723.09 590.324 1722.95 589.944L1722.95 589.943C1722.81 589.56 1722.53 589.234 1722.13 589.046C1721.73 588.859 1721.3 588.85 1720.92 588.992L1720.92 588.989C1720.54 589.127 1720.21 589.409 1720.02 589.808C1719.84 590.203 1719.83 590.637 1719.97 591.012L1719.97 591.022C1720.1 591.396 1720.38 591.726 1720.78 591.913ZM1730.62 591.238C1731.02 591.311 1731.45 591.234 1731.8 590.982L1731.85 590.944C1732.18 590.7 1732.39 590.338 1732.46 589.96C1732.53 589.559 1732.45 589.134 1732.2 588.775L1732.18 588.752C1731.93 588.411 1731.57 588.192 1731.18 588.123C1730.78 588.045 1730.35 588.132 1729.99 588.381C1729.64 588.628 1729.41 588.999 1729.34 589.402C1729.27 589.801 1729.35 590.227 1729.6 590.587L1729.6 590.588C1729.85 590.945 1730.22 591.162 1730.62 591.238ZM1727.64 581.125C1727.44 580.574 1727.03 580.095 1726.46 579.826C1725.88 579.556 1725.26 579.549 1724.71 579.747C1724.16 579.946 1723.68 580.354 1723.41 580.928C1723.14 581.502 1723.13 582.129 1723.33 582.684C1723.53 583.232 1723.93 583.708 1724.51 583.977C1725.08 584.247 1725.71 584.258 1726.26 584.062C1726.81 583.859 1727.29 583.449 1727.56 582.874C1727.83 582.3 1727.84 581.676 1727.64 581.125ZM1727.96 578.297C1728.73 578.826 1729.29 579.576 1729.59 580.421L1729.6 580.423C1729.64 580.556 1729.69 580.698 1729.72 580.836L1731.54 580.681C1731.62 580.01 1731.9 579.398 1732.32 578.901C1732.88 578.234 1733.69 577.784 1734.64 577.704L1734.67 577.7C1735.6 577.63 1736.47 577.935 1737.13 578.491C1737.79 579.053 1738.25 579.873 1738.33 580.814L1738.33 580.816C1738.41 581.752 1738.1 582.637 1737.54 583.302C1736.97 583.969 1736.16 584.423 1735.22 584.501L1734.97 584.524L1734.95 584.515C1734.11 584.519 1733.33 584.217 1732.73 583.71C1732.23 583.293 1731.86 582.731 1731.66 582.09L1729.84 582.244C1729.8 582.755 1729.68 583.266 1729.44 583.76C1729.21 584.252 1728.9 584.684 1728.53 585.043L1729.57 586.536C1730.19 586.271 1730.86 586.205 1731.5 586.321C1732.36 586.471 1733.16 586.956 1733.7 587.733L1733.73 587.777L1733.73 587.779C1734.24 588.546 1734.41 589.438 1734.26 590.286C1734.1 591.137 1733.62 591.941 1732.85 592.479L1732.8 592.518L1732.8 592.512C1732.04 593.023 1731.14 593.188 1730.3 593.042C1729.44 592.885 1728.63 592.402 1728.1 591.632L1728.1 591.626C1727.56 590.85 1727.39 589.934 1727.54 589.077C1727.65 588.437 1727.95 587.834 1728.41 587.344L1727.37 585.848C1727.24 585.909 1727.11 585.963 1726.97 586.011L1726.97 586.013C1726.12 586.319 1725.19 586.366 1724.29 586.108L1723.52 587.759C1724.05 588.162 1724.44 588.709 1724.67 589.321L1724.67 589.327C1724.96 590.145 1724.95 591.081 1724.55 591.932C1724.15 592.781 1723.44 593.388 1722.62 593.685L1722.61 593.692C1721.79 593.987 1720.85 593.97 1720 593.57C1719.16 593.173 1718.55 592.464 1718.25 591.642L1718.24 591.641L1718.25 591.632C1717.95 590.811 1717.97 589.879 1718.37 589.03C1718.77 588.179 1719.48 587.568 1720.3 587.274L1720.3 587.27L1720.3 587.271C1720.91 587.05 1721.58 587.003 1722.23 587.157L1723.01 585.505C1722.24 584.981 1721.68 584.231 1721.38 583.389L1721.37 583.381C1721 582.331 1721.01 581.135 1721.53 580.042C1722.04 578.951 1722.95 578.175 1724 577.794L1724 577.797C1724.84 577.489 1725.78 577.44 1726.68 577.694L1727.45 576.049C1726.92 575.643 1726.52 575.096 1726.3 574.486L1726.3 574.485L1726.3 574.481C1726.01 573.657 1726.02 572.726 1726.42 571.874C1726.82 571.028 1727.53 570.415 1728.35 570.118L1728.35 570.117C1729.18 569.82 1730.11 569.838 1730.96 570.235C1731.81 570.635 1732.42 571.343 1732.72 572.167L1732.72 572.17L1732.72 572.171C1733.02 572.991 1733 573.93 1732.6 574.776C1732.2 575.628 1731.5 576.234 1730.67 576.533L1730.67 576.536C1730.06 576.755 1729.39 576.803 1728.73 576.652L1727.96 578.297ZM1736.51 580.971L1736.5 580.947C1736.46 580.522 1736.25 580.153 1735.95 579.894C1735.63 579.63 1735.23 579.488 1734.79 579.524L1734.79 579.525C1734.36 579.559 1733.98 579.77 1733.71 580.082C1733.45 580.392 1733.31 580.803 1733.35 581.238L1733.35 581.25C1733.39 581.679 1733.6 582.053 1733.91 582.309C1734.21 582.575 1734.63 582.718 1735.06 582.68L1735.08 582.68C1735.51 582.637 1735.88 582.427 1736.13 582.124C1736.4 581.812 1736.54 581.404 1736.51 580.971Z" fill="#74DFFF"/>
<path d="M1592.21 672.382C1592.85 672.265 1593.5 672.509 1593.9 673.017L1601.76 682.889C1602.14 683.358 1602.25 683.984 1602.05 684.551L1598.29 695.638C1598.1 696.214 1597.62 696.648 1597.03 696.787L1584.89 699.629C1584.25 699.779 1583.59 699.562 1583.16 699.066L1574.62 689.179C1574.21 688.707 1574.09 688.054 1574.29 687.463L1578.22 675.862C1578.43 675.257 1578.95 674.811 1579.57 674.696L1592.21 672.382Z" fill="url(#paint18_linear_6077_38643)"/>
<path d="M1592.27 672.744C1592.78 672.651 1593.3 672.844 1593.61 673.246L1601.48 683.118C1601.77 683.489 1601.86 683.984 1601.71 684.433L1597.94 695.52C1597.79 695.975 1597.41 696.319 1596.94 696.429L1584.81 699.271C1584.3 699.39 1583.78 699.218 1583.44 698.826L1574.9 688.938C1574.58 688.565 1574.48 688.048 1574.64 687.581L1578.57 675.98C1578.73 675.501 1579.14 675.148 1579.64 675.057L1592.27 672.744Z" stroke="#74DFFF" stroke-opacity="0.7" stroke-width="0.735685"/>
<g clip-path="url(#clip3_6077_38643)">
<path d="M1591.65 681.328C1591.44 680.406 1591.32 679.514 1591.29 679.33C1591.29 679.315 1591.27 679.307 1591.26 679.311C1591.09 679.395 1590.28 679.796 1589.41 680.147C1581.66 683.57 1584.97 690.367 1584.97 690.367L1585 690.421C1584.72 691.054 1584.35 691.986 1584.35 691.986L1584.55 692.092L1584.76 692.198C1584.76 692.198 1585.32 691.375 1585.68 690.78L1585.74 690.769C1585.75 690.772 1593.22 689.648 1591.65 681.328ZM1585.4 690.481C1585.4 690.481 1585.27 690.151 1585.26 690.012L1585.26 690.002L1588.92 683.761C1588.93 683.741 1588.96 683.757 1588.95 683.777L1585.88 690.324L1585.87 690.334C1585.75 690.404 1585.4 690.481 1585.4 690.481Z" fill="#74DFFF"/>
</g>
<path d="M1451.46 122.704C1452.29 122.552 1453.14 122.869 1453.66 123.53L1463.9 136.382C1464.38 136.992 1464.53 137.807 1464.28 138.545L1459.38 152.978C1459.12 153.727 1458.5 154.292 1457.73 154.473L1441.94 158.173C1441.11 158.368 1440.24 158.085 1439.68 157.44L1428.57 144.569C1428.04 143.954 1427.87 143.105 1428.13 142.336L1433.25 127.234C1433.52 126.447 1434.19 125.866 1435.01 125.716L1451.46 122.704Z" fill="url(#paint19_linear_6077_38643)"/>
<path d="M1451.55 123.175C1452.2 123.054 1452.87 123.306 1453.29 123.829L1463.52 136.68C1463.91 137.163 1464.02 137.807 1463.82 138.391L1458.93 152.824C1458.72 153.417 1458.23 153.864 1457.62 154.007L1441.83 157.707C1441.17 157.861 1440.48 157.637 1440.04 157.127L1428.93 144.256C1428.51 143.77 1428.38 143.098 1428.58 142.489L1433.71 127.388C1433.92 126.765 1434.45 126.305 1435.1 126.187L1451.55 123.175Z" stroke="#74DFFF" stroke-opacity="0.7" stroke-width="0.957671"/>
<path d="M1442.87 138.298C1442.78 138.509 1442.73 138.69 1442.72 138.833C1442.72 138.978 1442.71 139.139 1442.73 139.321C1442.74 139.379 1442.73 139.43 1442.72 139.47C1442.69 139.527 1442.64 139.57 1442.54 139.596L1442.08 139.685C1442.01 139.698 1441.95 139.693 1441.91 139.674C1441.85 139.65 1441.8 139.598 1441.77 139.522C1441.72 139.403 1441.69 139.283 1441.67 139.167C1441.66 139.046 1441.65 138.914 1441.64 138.756C1440.97 139.095 1440.3 139.124 1439.63 138.841C1439.15 138.64 1438.82 138.343 1438.66 137.951C1438.49 137.559 1438.5 137.133 1438.69 136.676C1438.9 136.19 1439.23 135.867 1439.71 135.715C1440.18 135.564 1440.7 135.609 1441.29 135.856C1441.49 135.937 1441.68 136.038 1441.88 136.155C1442.08 136.272 1442.28 136.409 1442.49 136.556L1442.66 136.139C1442.84 135.704 1442.88 135.363 1442.77 135.111C1442.67 134.858 1442.39 134.643 1441.95 134.458C1441.75 134.374 1441.54 134.311 1441.3 134.274C1441.07 134.237 1440.84 134.214 1440.6 134.21C1440.5 134.212 1440.42 134.206 1440.37 134.2C1440.33 134.195 1440.3 134.189 1440.27 134.179C1440.19 134.146 1440.18 134.072 1440.23 133.952L1440.35 133.672C1440.38 133.58 1440.42 133.516 1440.47 133.488C1440.52 133.46 1440.58 133.442 1440.68 133.435C1440.92 133.416 1441.2 133.431 1441.51 133.479C1441.82 133.522 1442.13 133.612 1442.45 133.744C1443.13 134.029 1443.56 134.392 1443.75 134.835C1443.94 135.275 1443.9 135.811 1443.64 136.44L1442.86 138.293L1442.87 138.298ZM1440.19 138.195C1440.38 138.274 1440.58 138.321 1440.82 138.339C1441.05 138.356 1441.29 138.307 1441.52 138.2C1441.65 138.13 1441.77 138.038 1441.86 137.915C1441.95 137.793 1442.05 137.636 1442.13 137.442L1442.23 137.202C1442.08 137.092 1441.92 136.984 1441.74 136.884C1441.57 136.785 1441.4 136.699 1441.22 136.625C1440.84 136.465 1440.53 136.422 1440.27 136.497C1440.02 136.572 1439.84 136.751 1439.72 137.037C1439.6 137.306 1439.59 137.535 1439.67 137.732C1439.75 137.933 1439.92 138.085 1440.19 138.195ZM1444.52 140.735C1444.42 140.692 1444.36 140.646 1444.33 140.587C1444.3 140.533 1444.29 140.436 1444.3 140.313L1444.81 135.33C1444.82 135.202 1444.83 135.12 1444.85 135.08C1444.89 134.989 1444.96 134.956 1445.05 134.995L1445.61 135.229C1445.72 135.275 1445.78 135.323 1445.81 135.38C1445.84 135.433 1445.84 135.528 1445.83 135.651L1445.2 139.839L1447.68 136.426C1447.76 136.324 1447.82 136.264 1447.88 136.249C1447.94 136.233 1448.03 136.244 1448.14 136.287L1448.59 136.479C1448.7 136.524 1448.77 136.572 1448.8 136.632C1448.83 136.685 1448.84 136.782 1448.81 136.9L1448.11 141.11L1450.71 137.692C1450.79 137.592 1450.86 137.535 1450.91 137.517C1450.97 137.502 1451.06 137.51 1451.16 137.553L1451.69 137.776C1451.78 137.814 1451.82 137.882 1451.78 137.979C1451.76 138.008 1451.75 138.034 1451.73 138.066C1451.71 138.098 1451.68 138.139 1451.63 138.192L1448.4 142.036C1448.32 142.136 1448.24 142.193 1448.18 142.208C1448.12 142.223 1448.04 142.215 1447.94 142.175L1447.45 141.969C1447.34 141.923 1447.28 141.875 1447.25 141.816C1447.22 141.757 1447.21 141.665 1447.23 141.541L1447.89 137.482L1445.47 140.796C1445.39 140.898 1445.33 140.958 1445.26 140.979C1445.2 141 1445.11 140.984 1445.01 140.941L1444.52 140.735ZM1451.8 143.965C1451.51 143.841 1451.22 143.682 1450.97 143.494C1450.71 143.305 1450.52 143.138 1450.4 142.99C1450.33 142.9 1450.3 142.816 1450.29 142.755C1450.29 142.694 1450.31 142.632 1450.33 142.581L1450.45 142.289C1450.5 142.169 1450.57 142.131 1450.65 142.167C1450.69 142.181 1450.72 142.201 1450.75 142.227C1450.78 142.253 1450.82 142.297 1450.87 142.344C1451.03 142.511 1451.21 142.669 1451.42 142.808C1451.62 142.949 1451.84 143.065 1452.07 143.161C1452.43 143.312 1452.73 143.366 1452.98 143.322C1453.23 143.278 1453.41 143.138 1453.51 142.903C1453.57 142.743 1453.58 142.59 1453.52 142.438C1453.46 142.287 1453.31 142.108 1453.07 141.899L1452.34 141.295C1451.98 140.988 1451.75 140.665 1451.67 140.328C1451.59 139.998 1451.61 139.677 1451.73 139.379C1451.83 139.139 1451.98 138.949 1452.15 138.809C1452.33 138.669 1452.54 138.567 1452.76 138.513C1452.99 138.453 1453.22 138.437 1453.48 138.464C1453.74 138.491 1453.99 138.563 1454.24 138.669C1454.37 138.721 1454.5 138.782 1454.62 138.852C1454.74 138.924 1454.85 138.997 1454.96 139.07C1455.06 139.147 1455.16 139.221 1455.25 139.298C1455.34 139.376 1455.4 139.444 1455.45 139.502C1455.51 139.581 1455.55 139.651 1455.56 139.717C1455.57 139.777 1455.56 139.847 1455.53 139.927L1455.42 140.196C1455.37 140.316 1455.3 140.36 1455.21 140.324C1455.16 140.305 1455.1 140.251 1455.02 140.164C1454.76 139.879 1454.42 139.651 1454.02 139.481C1453.69 139.345 1453.41 139.289 1453.19 139.323C1452.97 139.358 1452.81 139.485 1452.71 139.72C1452.64 139.88 1452.64 140.041 1452.71 140.197C1452.78 140.354 1452.94 140.551 1453.21 140.775L1453.91 141.373C1454.27 141.676 1454.49 141.984 1454.57 142.293C1454.65 142.601 1454.62 142.906 1454.5 143.203C1454.39 143.449 1454.25 143.651 1454.07 143.805C1453.88 143.956 1453.68 144.07 1453.44 144.133C1453.2 144.202 1452.95 144.216 1452.67 144.188C1452.38 144.16 1452.1 144.087 1451.8 143.965Z" fill="#74DFFF"/>
<path d="M1451.72 147.197C1449.26 147.799 1446.22 147.393 1443.87 146.409C1440.57 145.03 1438.11 142.57 1436.72 139.607C1436.61 139.373 1436.86 139.222 1437.02 139.437C1438.85 141.858 1441.49 143.963 1444.58 145.258C1446.67 146.131 1449.15 146.657 1451.63 146.648C1452 146.636 1452.13 147.098 1451.72 147.197ZM1452.88 146.633C1452.77 146.224 1451.35 145.819 1450.71 145.637C1450.52 145.583 1450.55 145.411 1450.77 145.361C1452.16 145.056 1453.84 146.013 1453.94 146.351C1454.04 146.694 1453.03 148.351 1451.67 148.776C1451.46 148.843 1451.34 148.712 1451.48 148.569C1451.95 148.099 1452.99 147.037 1452.88 146.633Z" fill="#74DFFF"/>
<path d="M1722.21 932.382C1722.85 932.265 1723.5 932.509 1723.9 933.017L1731.76 942.889C1732.14 943.358 1732.25 943.984 1732.05 944.551L1728.29 955.638C1728.1 956.214 1727.62 956.648 1727.03 956.787L1714.89 959.629C1714.25 959.779 1713.59 959.562 1713.16 959.066L1704.62 949.179C1704.21 948.707 1704.09 948.054 1704.29 947.463L1708.22 935.862C1708.43 935.257 1708.95 934.811 1709.57 934.696L1722.21 932.382Z" fill="url(#paint20_linear_6077_38643)"/>
<path d="M1722.27 932.744C1722.78 932.651 1723.3 932.844 1723.61 933.246L1731.48 943.118C1731.77 943.489 1731.86 943.984 1731.71 944.433L1727.94 955.52C1727.79 955.975 1727.41 956.319 1726.94 956.429L1714.81 959.271C1714.3 959.39 1713.78 959.218 1713.44 958.826L1704.9 948.938C1704.58 948.565 1704.48 948.048 1704.64 947.581L1708.57 935.98C1708.73 935.501 1709.14 935.148 1709.64 935.057L1722.27 932.744Z" stroke="#74DFFF" stroke-opacity="0.7" stroke-width="0.735685"/>
<g clip-path="url(#clip4_6077_38643)">
<path d="M1717.54 939.172L1721.19 940.151L1714.39 950.371C1714.32 950.476 1714.22 950.557 1714.1 950.601C1713.98 950.646 1713.86 950.652 1713.73 950.62L1710.89 949.858C1710.8 949.833 1710.71 949.787 1710.64 949.723C1710.57 949.659 1710.52 949.578 1710.48 949.489C1710.45 949.4 1710.44 949.303 1710.45 949.208C1710.46 949.113 1710.49 949.022 1710.54 948.943L1716.88 939.42C1716.95 939.315 1717.05 939.235 1717.17 939.19C1717.29 939.145 1717.42 939.139 1717.54 939.172Z" fill="url(#paint21_linear_6077_38643)"/>
<path d="M1720.83 948.131L1715.04 946.579C1714.98 946.564 1714.93 946.566 1714.87 946.585C1714.82 946.603 1714.78 946.637 1714.74 946.682C1714.71 946.727 1714.69 946.78 1714.69 946.836C1714.69 946.892 1714.7 946.947 1714.73 946.994L1717.52 951.466C1717.6 951.596 1717.73 951.691 1717.88 951.73L1721.16 952.609L1720.83 948.131Z" fill="url(#paint22_linear_6077_38643)"/>
<path d="M1717.54 939.172C1717.42 939.138 1717.29 939.145 1717.17 939.191C1717.05 939.237 1716.95 939.32 1716.88 939.427L1710.55 948.934C1710.5 949.014 1710.46 949.105 1710.45 949.201C1710.44 949.297 1710.45 949.394 1710.48 949.485C1710.51 949.575 1710.57 949.657 1710.64 949.722C1710.71 949.787 1710.8 949.834 1710.89 949.858L1713.81 950.64C1713.92 950.65 1714.04 950.629 1714.14 950.58C1714.24 950.531 1714.33 950.455 1714.4 950.361L1715.65 948.476L1717.54 951.493C1717.62 951.609 1717.74 951.692 1717.88 951.73L1721.14 952.606L1720.81 948.126L1716.63 947.007L1721.21 940.154L1717.54 939.172Z" fill="#36A7C9"/>
<path d="M1722.1 940.818C1722.09 940.692 1722.05 940.572 1721.97 940.474C1721.89 940.377 1721.78 940.307 1721.66 940.274L1717.59 939.183C1717.71 939.216 1717.82 939.286 1717.9 939.384C1717.98 939.481 1718.02 939.601 1718.03 939.727L1718.76 951.143C1718.77 951.239 1718.75 951.334 1718.71 951.422C1718.67 951.51 1718.61 951.587 1718.54 951.648C1718.47 951.708 1718.38 951.75 1718.29 951.77C1718.19 951.791 1718.09 951.788 1718 951.764L1722.07 952.855C1722.17 952.879 1722.26 952.882 1722.36 952.861C1722.45 952.841 1722.54 952.799 1722.61 952.739C1722.69 952.678 1722.74 952.601 1722.78 952.513C1722.82 952.425 1722.84 952.33 1722.83 952.234L1722.1 940.818Z" fill="#74DFFF"/>
</g>
<path d="M1458.21 1024.38C1458.85 1024.26 1459.5 1024.51 1459.9 1025.02L1467.76 1034.89C1468.14 1035.36 1468.25 1035.98 1468.05 1036.55L1464.29 1047.64C1464.1 1048.21 1463.62 1048.65 1463.03 1048.79L1450.89 1051.63C1450.25 1051.78 1449.59 1051.56 1449.16 1051.07L1440.62 1041.18C1440.21 1040.71 1440.09 1040.05 1440.29 1039.46L1444.22 1027.86C1444.43 1027.26 1444.95 1026.81 1445.57 1026.7L1458.21 1024.38Z" fill="url(#paint23_linear_6077_38643)"/>
<path d="M1458.27 1024.74C1458.78 1024.65 1459.3 1024.84 1459.61 1025.25L1467.48 1035.12C1467.77 1035.49 1467.86 1035.98 1467.71 1036.43L1463.94 1047.52C1463.79 1047.98 1463.41 1048.32 1462.94 1048.43L1450.81 1051.27C1450.3 1051.39 1449.78 1051.22 1449.44 1050.83L1440.9 1040.94C1440.58 1040.56 1440.48 1040.05 1440.64 1039.58L1444.57 1027.98C1444.73 1027.5 1445.14 1027.15 1445.64 1027.06L1458.27 1024.74Z" stroke="#74DFFF" stroke-opacity="0.7" stroke-width="0.735685"/>
<g clip-path="url(#clip5_6077_38643)">
<path fill-rule="evenodd" clip-rule="evenodd" d="M1456.68 1032.19C1453.68 1030.99 1450.29 1032.45 1449.09 1035.44C1448.13 1037.84 1448.87 1040.49 1450.74 1042.07C1450.99 1042.23 1451.15 1042.1 1451.21 1041.96C1451.26 1041.83 1451.4 1041.49 1451.57 1041.03C1449.93 1040.76 1450.04 1039.58 1450.04 1039.58C1450.04 1038.85 1449.75 1038.54 1449.75 1038.54C1449.39 1038.01 1449.92 1038.23 1449.92 1038.23C1450.45 1038.49 1450.53 1039.12 1450.53 1039.12C1450.68 1040.14 1451.56 1040.22 1451.93 1040.2C1452.12 1039.87 1452.35 1039.69 1452.56 1039.61C1451.41 1038.99 1450.33 1038.02 1451.16 1035.94C1451.4 1035.35 1451.8 1034.95 1452.3 1034.71C1452.3 1034.55 1452.34 1033.93 1452.93 1033.3C1452.93 1033.3 1453.45 1033.34 1454.2 1034.45C1454.68 1034.51 1455.17 1034.63 1455.63 1034.81C1456.09 1035 1456.53 1035.25 1456.92 1035.54C1458.23 1035.25 1458.63 1035.58 1458.63 1035.58C1458.63 1036.45 1458.22 1036.92 1458.11 1037.04C1458.3 1037.56 1458.32 1038.12 1458.08 1038.71C1457.25 1040.8 1455.8 1040.75 1454.53 1040.4C1454.66 1040.64 1454.7 1041.05 1454.5 1041.55C1454.21 1042.28 1453.97 1042.86 1453.9 1043.04C1453.84 1043.18 1453.87 1043.39 1454.17 1043.45C1456.61 1043.59 1458.97 1042.18 1459.93 1039.79C1461.13 1036.79 1459.68 1033.39 1456.68 1032.19L1456.68 1032.19Z" fill="#74DFFF"/>
</g>
<path d="M932.209 876.382C932.847 876.265 933.498 876.509 933.903 877.017L941.764 886.889C942.137 887.358 942.246 887.984 942.054 888.551L938.292 899.638C938.097 900.214 937.619 900.648 937.027 900.787L924.892 903.629C924.254 903.779 923.586 903.562 923.158 903.066L914.622 893.179C914.214 892.707 914.087 892.054 914.288 891.463L918.223 879.862C918.429 879.257 918.945 878.811 919.573 878.696L932.209 876.382Z" fill="url(#paint24_linear_6077_38643)"/>
<path d="M932.275 876.744C932.78 876.651 933.295 876.844 933.615 877.246L941.476 887.118C941.771 887.489 941.858 887.984 941.705 888.433L937.944 899.52C937.789 899.975 937.411 900.319 936.943 900.429L924.808 903.271C924.304 903.39 923.775 903.218 923.437 902.826L914.9 892.938C914.578 892.565 914.477 892.048 914.636 891.581L918.572 879.98C918.734 879.501 919.143 879.148 919.64 879.057L932.275 876.744Z" stroke="#74DFFF" stroke-opacity="0.7" stroke-width="0.735685"/>
<path d="M931.338 887.667L931.76 887.862L933.422 887.225L933.693 886.763C933.135 885.546 932.146 884.518 930.825 883.934C928.434 882.875 925.699 883.601 924.131 885.529C924.296 885.497 924.536 885.681 924.536 885.681L927.01 886.325C927.01 886.325 927.216 886.182 927.27 886.22C928.003 885.9 928.833 885.872 929.589 886.141C930.345 886.41 930.97 886.956 931.338 887.667Z" fill="#74DFFF"/>
<path d="M934.153 889.968C934.317 888.88 934.159 887.767 933.698 886.765L931.344 887.668C931.561 888.084 931.681 888.544 931.696 889.012C931.712 889.48 931.621 889.946 931.432 890.374L931.305 890.661C932.1 891.013 932.461 891.942 932.112 892.732C931.763 893.521 930.83 893.878 930.037 893.527L927.154 892.252L926.738 892.412L925.977 894.133L926.139 894.546L929.022 895.821C930.016 896.258 931.141 896.285 932.152 895.897C933.163 895.509 933.976 894.738 934.415 893.751C934.975 892.481 934.83 891.073 934.149 889.966L934.153 889.968Z" fill="#74DFFF"/>
<path d="M923.248 893.27L926.13 894.545L927.145 892.25L924.264 890.975C924.059 890.885 923.876 890.752 923.727 890.585L923.255 890.527L921.593 891.165L921.321 891.508C921.75 892.291 922.429 892.911 923.248 893.271L923.248 893.27Z" fill="#74DFFF"/>
<path d="M926.548 885.814C925.553 885.376 924.427 885.347 923.415 885.735C922.403 886.123 921.589 886.896 921.15 887.883C920.895 888.459 920.778 889.086 920.808 889.715C920.837 890.344 921.013 890.959 921.321 891.51L923.728 890.587C923.525 890.362 923.391 890.084 923.343 889.785C923.295 889.487 923.334 889.181 923.456 888.905C923.806 888.114 924.738 887.758 925.531 888.109C925.808 888.232 926.045 888.433 926.211 888.686C926.378 888.938 926.468 889.234 926.471 889.536L928.878 888.613C928.589 887.412 927.764 886.353 926.546 885.814L926.548 885.814Z" fill="#74DFFF"/>
<path d="M812.209 1026.38C812.847 1026.26 813.498 1026.51 813.903 1027.02L821.764 1036.89C822.137 1037.36 822.246 1037.98 822.054 1038.55L818.292 1049.64C818.097 1050.21 817.619 1050.65 817.027 1050.79L804.892 1053.63C804.254 1053.78 803.586 1053.56 803.158 1053.07L794.622 1043.18C794.214 1042.71 794.087 1042.05 794.288 1041.46L798.223 1029.86C798.429 1029.26 798.945 1028.81 799.573 1028.7L812.209 1026.38Z" fill="url(#paint25_linear_6077_38643)"/>
<path d="M812.275 1026.74C812.78 1026.65 813.295 1026.84 813.615 1027.25L821.476 1037.12C821.771 1037.49 821.858 1037.98 821.705 1038.43L817.944 1049.52C817.789 1049.98 817.411 1050.32 816.943 1050.43L804.808 1053.27C804.304 1053.39 803.775 1053.22 803.437 1052.83L794.9 1042.94C794.578 1042.56 794.477 1042.05 794.636 1041.58L798.572 1029.98C798.734 1029.5 799.143 1029.15 799.64 1029.06L812.275 1026.74Z" stroke="#74DFFF" stroke-opacity="0.7" stroke-width="0.735685"/>
<path d="M812.519 1039.14L815.497 1041.95C815.536 1041.98 815.522 1042.04 815.47 1042.05L811.495 1043.01M805.372 1037.25L801.397 1038.22C801.345 1038.23 801.33 1038.28 801.369 1038.32L804.348 1041.12M810.532 1037.2L806.367 1043.03" stroke="#74DFFF" stroke-width="1.57279" stroke-linecap="round"/>
<g filter="url(#filter13_f_6077_38643)">
<circle cx="724" cy="576.5" r="49.5" fill="#18283B"/>
</g>
<rect x="710.363" y="549" width="42.8353" height="49.3752" rx="21.4176" transform="rotate(18.7404 710.363 549)" fill="#172839"/>
<path d="M729.481 556.401C730.56 556.204 731.66 556.616 732.343 557.474L745.622 574.15C746.252 574.942 746.437 576 746.111 576.958L739.758 595.686C739.428 596.658 738.62 597.391 737.62 597.626L717.123 602.428C716.045 602.68 714.917 602.313 714.194 601.476L699.775 584.774C699.086 583.977 698.871 582.874 699.21 581.876L705.858 562.28C706.205 561.258 707.077 560.504 708.138 560.31L729.481 556.401Z" fill="url(#paint26_linear_6077_38643)"/>
<path d="M729.593 557.013C730.446 556.856 731.316 557.182 731.857 557.861L745.136 574.537C745.634 575.163 745.78 576 745.523 576.758L739.169 595.486C738.908 596.255 738.269 596.835 737.478 597.021L716.981 601.823C716.129 602.022 715.236 601.732 714.664 601.07L700.245 584.368C699.7 583.737 699.53 582.865 699.798 582.076L706.446 562.479C706.721 561.671 707.411 561.075 708.25 560.921L729.593 557.013Z" stroke="#74DFFF" stroke-opacity="0.5" stroke-width="1.2427"/>
<path fill-rule="evenodd" clip-rule="evenodd" d="M728.45 570.468C730.968 571.426 731.922 574.258 730.909 576.919C730.642 577.927 730.131 579.031 729.348 579.836C728.203 581.193 726.658 581.386 724.674 580.632L724.56 580.588L725.425 584.241L721.691 585.606L720.518 579.136L718.897 578.434L715.726 586.772L712.306 585.471L719.332 567L728.45 570.468ZM721.689 586.011L725.702 584.779L726.447 587.203L722.478 588.84L721.689 586.011ZM722.877 589.243L726.443 588.1C726.64 588.037 726.846 588.134 726.926 588.326L727.599 589.944C727.658 590.086 727.636 590.254 727.536 590.375C727.252 590.717 726.634 591.398 726.058 591.621C724.691 592.149 723.078 590.23 722.874 590.052C722.861 590.042 722.884 590.064 722.874 590.052C722.672 589.823 722.583 589.336 722.877 589.243ZM727.001 573.134L722.062 571.256L720.535 575.271L725.474 577.15C726.523 577.549 727.715 576.974 728.137 575.865C728.559 574.756 728.05 573.534 727.001 573.134Z" fill="#74DFFF" fill-opacity="0.8"/>
</g>
<defs>
<filter id="filter0_f_6077_38643" x="511.836" y="495.741" width="1963.29" height="1278.66" filterUnits="userSpaceOnUse" color-interpolation-filters="sRGB">
<feFlood flood-opacity="0" result="BackgroundImageFix"/>
<feBlend mode="normal" in="SourceGraphic" in2="BackgroundImageFix" result="shape"/>
<feGaussianBlur stdDeviation="113.5" result="effect1_foregroundBlur_6077_38643"/>
</filter>
<filter id="filter1_f_6077_38643" x="26.8398" y="360.741" width="2410.13" height="1522.81" filterUnits="userSpaceOnUse" color-interpolation-filters="sRGB">
<feFlood flood-opacity="0" result="BackgroundImageFix"/>
<feBlend mode="normal" in="SourceGraphic" in2="BackgroundImageFix" result="shape"/>
<feGaussianBlur stdDeviation="113.5" result="effect1_foregroundBlur_6077_38643"/>
</filter>
<filter id="filter2_f_6077_38643" x="285.5" y="599" width="744" height="744" filterUnits="userSpaceOnUse" color-interpolation-filters="sRGB">
<feFlood flood-opacity="0" result="BackgroundImageFix"/>
<feBlend mode="normal" in="SourceGraphic" in2="BackgroundImageFix" result="shape"/>
<feGaussianBlur stdDeviation="2.5" result="effect1_foregroundBlur_6077_38643"/>
</filter>
<filter id="filter3_f_6077_38643" x="1278.5" y="128" width="418" height="418" filterUnits="userSpaceOnUse" color-interpolation-filters="sRGB">
<feFlood flood-opacity="0" result="BackgroundImageFix"/>
<feBlend mode="normal" in="SourceGraphic" in2="BackgroundImageFix" result="shape"/>
<feGaussianBlur stdDeviation="10" result="effect1_foregroundBlur_6077_38643"/>
</filter>
<filter id="filter4_f_6077_38643" x="581.281" y="457.777" width="290.289" height="290.291" filterUnits="userSpaceOnUse" color-interpolation-filters="sRGB">
<feFlood flood-opacity="0" result="BackgroundImageFix"/>
<feBlend mode="normal" in="SourceGraphic" in2="BackgroundImageFix" result="shape"/>
<feGaussianBlur stdDeviation="10" result="effect1_foregroundBlur_6077_38643"/>
</filter>
<filter id="filter5_f_6077_38643" x="572.406" y="448.905" width="296.309" height="296.31" filterUnits="userSpaceOnUse" color-interpolation-filters="sRGB">
<feFlood flood-opacity="0" result="BackgroundImageFix"/>
<feBlend mode="normal" in="SourceGraphic" in2="BackgroundImageFix" result="shape"/>
<feGaussianBlur stdDeviation="25" result="effect1_foregroundBlur_6077_38643"/>
</filter>
<filter id="filter6_f_6077_38643" x="608.316" y="465.814" width="235.668" height="235.668" filterUnits="userSpaceOnUse" color-interpolation-filters="sRGB">
<feFlood flood-opacity="0" result="BackgroundImageFix"/>
<feBlend mode="normal" in="SourceGraphic" in2="BackgroundImageFix" result="shape"/>
<feGaussianBlur stdDeviation="25" result="effect1_foregroundBlur_6077_38643"/>
</filter>
<filter id="filter7_f_6077_38643" x="833.578" y="159.077" width="59.6289" height="59.6305" filterUnits="userSpaceOnUse" color-interpolation-filters="sRGB">
<feFlood flood-opacity="0" result="BackgroundImageFix"/>
<feBlend mode="normal" in="SourceGraphic" in2="BackgroundImageFix" result="shape"/>
<feGaussianBlur stdDeviation="2.5" result="effect1_foregroundBlur_6077_38643"/>
</filter>
<filter id="filter8_f_6077_38643" x="835.578" y="166.077" width="59.6289" height="59.6305" filterUnits="userSpaceOnUse" color-interpolation-filters="sRGB">
<feFlood flood-opacity="0" result="BackgroundImageFix"/>
<feBlend mode="normal" in="SourceGraphic" in2="BackgroundImageFix" result="shape"/>
<feGaussianBlur stdDeviation="2.5" result="effect1_foregroundBlur_6077_38643"/>
</filter>
<filter id="filter9_f_6077_38643" x="1757.25" y="220.754" width="78.7969" height="78.7961" filterUnits="userSpaceOnUse" color-interpolation-filters="sRGB">
<feFlood flood-opacity="0" result="BackgroundImageFix"/>
<feBlend mode="normal" in="SourceGraphic" in2="BackgroundImageFix" result="shape"/>
<feGaussianBlur stdDeviation="5" result="effect1_foregroundBlur_6077_38643"/>
</filter>
<filter id="filter10_f_6077_38643" x="1541.38" y="637.88" width="577.031" height="577.029" filterUnits="userSpaceOnUse" color-interpolation-filters="sRGB">
<feFlood flood-opacity="0" result="BackgroundImageFix"/>
<feBlend mode="normal" in="SourceGraphic" in2="BackgroundImageFix" result="shape"/>
<feGaussianBlur stdDeviation="5" result="effect1_foregroundBlur_6077_38643"/>
</filter>
<filter id="filter11_f_6077_38643" x="1723.59" y="462.094" width="83.5898" height="83.5897" filterUnits="userSpaceOnUse" color-interpolation-filters="sRGB">
<feFlood flood-opacity="0" result="BackgroundImageFix"/>
<feBlend mode="normal" in="SourceGraphic" in2="BackgroundImageFix" result="shape"/>
<feGaussianBlur stdDeviation="3" result="effect1_foregroundBlur_6077_38643"/>
</filter>
<filter id="filter12_f_6077_38643" x="1721.59" y="462.094" width="83.5898" height="83.5897" filterUnits="userSpaceOnUse" color-interpolation-filters="sRGB">
<feFlood flood-opacity="0" result="BackgroundImageFix"/>
<feBlend mode="normal" in="SourceGraphic" in2="BackgroundImageFix" result="shape"/>
<feGaussianBlur stdDeviation="3" result="effect1_foregroundBlur_6077_38643"/>
</filter>
<filter id="filter13_f_6077_38643" x="624.5" y="477" width="199" height="199" filterUnits="userSpaceOnUse" color-interpolation-filters="sRGB">
<feFlood flood-opacity="0" result="BackgroundImageFix"/>
<feBlend mode="normal" in="SourceGraphic" in2="BackgroundImageFix" result="shape"/>
<feGaussianBlur stdDeviation="25" result="effect1_foregroundBlur_6077_38643"/>
</filter>
<linearGradient id="paint0_linear_6077_38643" x1="450.5" y1="0" x2="450.5" y2="847" gradientUnits="userSpaceOnUse">
<stop stop-color="#4FDAB8"/>
<stop offset="1" stop-color="#4FDAB8" stop-opacity="0"/>
</linearGradient>
<linearGradient id="paint1_linear_6077_38643" x1="581.733" y1="0" x2="581.733" y2="1093.73" gradientUnits="userSpaceOnUse">
<stop stop-color="#52C7EA"/>
<stop offset="1" stop-color="#52C7EA" stop-opacity="0"/>
</linearGradient>
<linearGradient id="paint2_linear_6077_38643" x1="814.052" y1="1268.06" x2="1024.5" y2="778.517" gradientUnits="userSpaceOnUse">
<stop stop-color="#3A74C6" stop-opacity="0.2"/>
<stop offset="1" stop-color="#60D1F2" stop-opacity="0"/>
</linearGradient>
<linearGradient id="paint3_linear_6077_38643" x1="1849" y1="876.5" x2="1566.5" y2="449" gradientUnits="userSpaceOnUse">
<stop stop-color="#0E2A4B" stop-opacity="0.15"/>
<stop offset="1" stop-color="#60D1F2" stop-opacity="0"/>
</linearGradient>
<linearGradient id="paint4_linear_6077_38643" x1="1676.5" y1="406.5" x2="1322" y2="231.5" gradientUnits="userSpaceOnUse">
<stop stop-color="#3A74C6" stop-opacity="0.1"/>
<stop offset="1" stop-color="#60D1F2" stop-opacity="0"/>
</linearGradient>
<linearGradient id="paint5_linear_6077_38643" x1="779.799" y1="704.203" x2="851.549" y2="537.298" gradientUnits="userSpaceOnUse">
<stop stop-color="#3A74C6" stop-opacity="0.1"/>
<stop offset="1" stop-color="#60D1F2" stop-opacity="0"/>
</linearGradient>
<linearGradient id="paint6_linear_6077_38643" x1="875.976" y1="215.976" x2="890.204" y2="182.88" gradientUnits="userSpaceOnUse">
<stop stop-color="#3A74C6" stop-opacity="0.2"/>
<stop offset="1" stop-color="#60D1F2" stop-opacity="0"/>
</linearGradient>
<linearGradient id="paint7_linear_6077_38643" x1="1809.19" y1="283.944" x2="1826.05" y2="244.736" gradientUnits="userSpaceOnUse">
<stop stop-color="#1F2B3C" stop-opacity="0.6"/>
<stop offset="1" stop-color="#0B1416" stop-opacity="0.4"/>
</linearGradient>
<linearGradient id="paint8_linear_6077_38643" x1="1722.8" y1="1156.69" x2="1929.23" y2="815.23" gradientUnits="userSpaceOnUse">
<stop stop-color="#1E413D" stop-opacity="0.1"/>
<stop offset="0.959675" stop-color="#1C93B6" stop-opacity="0.01"/>
</linearGradient>
<linearGradient id="paint9_linear_6077_38643" x1="1778.66" y1="532.857" x2="1799.18" y2="485.118" gradientUnits="userSpaceOnUse">
<stop stop-color="#3AC69C" stop-opacity="0.1"/>
<stop offset="1" stop-color="#60D1F2" stop-opacity="0"/>
</linearGradient>
<radialGradient id="paint10_radial_6077_38643" cx="0" cy="0" r="1" gradientUnits="userSpaceOnUse" gradientTransform="translate(939.986 116.183) rotate(89.1122) scale(724.531)">
<stop stop-color="#4FDAB8" stop-opacity="0.15"/>
<stop offset="1" stop-color="#52C7EA" stop-opacity="0"/>
</radialGradient>
<radialGradient id="paint11_radial_6077_38643" cx="0" cy="0" r="1" gradientUnits="userSpaceOnUse" gradientTransform="translate(243.295 539.711) rotate(-87.9037) scale(551.549)">
<stop stop-color="#52C7EA" stop-opacity="0.5"/>
<stop offset="1" stop-color="#52C7EA" stop-opacity="0"/>
</radialGradient>
<radialGradient id="paint12_radial_6077_38643" cx="0" cy="0" r="1" gradientUnits="userSpaceOnUse" gradientTransform="translate(1919.8 278.588) rotate(157.26) scale(696.976 696.976)">
<stop stop-color="#4FDAB8" stop-opacity="0.2"/>
<stop offset="1" stop-color="#52C7EA" stop-opacity="0"/>
</radialGradient>
<radialGradient id="paint13_radial_6077_38643" cx="0" cy="0" r="1" gradientUnits="userSpaceOnUse" gradientTransform="translate(1213.5 16) rotate(89.0891) scale(597.576)">
<stop stop-color="#4FDAB8" stop-opacity="0.01"/>
<stop offset="0.718874" stop-color="#51CCDC" stop-opacity="0.1"/>
<stop offset="1" stop-color="#52C7EA" stop-opacity="0"/>
</radialGradient>
<radialGradient id="paint14_radial_6077_38643" cx="0" cy="0" r="1" gradientUnits="userSpaceOnUse" gradientTransform="translate(1193.6 1103.13) rotate(-84.991) scale(479.961)">
<stop stop-color="#4FDAB8" stop-opacity="0.6"/>
<stop offset="0.768138" stop-color="#51CBDE" stop-opacity="0.2"/>
<stop offset="1" stop-color="#52C7EA" stop-opacity="0"/>
</radialGradient>
<linearGradient id="paint15_linear_6077_38643" x1="982.806" y1="100.245" x2="948.98" y2="149.436" gradientUnits="userSpaceOnUse">
<stop stop-color="#162535"/>
<stop offset="1" stop-color="#162535"/>
</linearGradient>
<linearGradient id="paint16_linear_6077_38643" x1="712.806" y1="790.245" x2="678.98" y2="839.436" gradientUnits="userSpaceOnUse">
<stop stop-color="#1C3949"/>
<stop offset="1" stop-color="#265263"/>
</linearGradient>
<linearGradient id="paint17_linear_6077_38643" x1="1735.65" y1="559.881" x2="1719.78" y2="606.639" gradientUnits="userSpaceOnUse">
<stop stop-color="#162535"/>
<stop offset="1" stop-color="#1A2C3D"/>
</linearGradient>
<linearGradient id="paint18_linear_6077_38643" x1="1592.9" y1="672.074" x2="1583.51" y2="699.754" gradientUnits="userSpaceOnUse">
<stop stop-color="#1B3440"/>
<stop offset="1" stop-color="#245156"/>
</linearGradient>
<linearGradient id="paint19_linear_6077_38643" x1="1452.36" y1="122.303" x2="1440.13" y2="158.336" gradientUnits="userSpaceOnUse">
<stop stop-color="#0F1924"/>
<stop offset="1" stop-color="#111E2A"/>
</linearGradient>
<linearGradient id="paint20_linear_6077_38643" x1="1722.9" y1="932.074" x2="1713.51" y2="959.754" gradientUnits="userSpaceOnUse">
<stop stop-color="#2F7672"/>
<stop offset="1" stop-color="#307879"/>
</linearGradient>
<linearGradient id="paint21_linear_6077_38643" x1="1714.22" y1="938.281" x2="1721.3" y2="948.682" gradientUnits="userSpaceOnUse">
<stop stop-color="#4FDAB8"/>
<stop offset="1" stop-color="#52C7EA"/>
</linearGradient>
<linearGradient id="paint22_linear_6077_38643" x1="1715.53" y1="946.711" x2="1716.4" y2="952.902" gradientUnits="userSpaceOnUse">
<stop stop-color="#4FDAB8"/>
<stop offset="1" stop-color="#52C7EA"/>
</linearGradient>
<linearGradient id="paint23_linear_6077_38643" x1="1458.9" y1="1024.07" x2="1449.51" y2="1051.75" gradientUnits="userSpaceOnUse">
<stop stop-color="#3D93A4"/>
<stop offset="1" stop-color="#3F97A6"/>
</linearGradient>
<linearGradient id="paint24_linear_6077_38643" x1="932.898" y1="876.074" x2="923.507" y2="903.754" gradientUnits="userSpaceOnUse">
<stop stop-color="#3A859A"/>
<stop offset="1" stop-color="#3A859A"/>
</linearGradient>
<linearGradient id="paint25_linear_6077_38643" x1="812.898" y1="1026.07" x2="803.507" y2="1053.75" gradientUnits="userSpaceOnUse">
<stop stop-color="#316A82"/>
<stop offset="1" stop-color="#2D5F79"/>
</linearGradient>
<linearGradient id="paint26_linear_6077_38643" x1="730.645" y1="555.881" x2="714.782" y2="602.639" gradientUnits="userSpaceOnUse">
<stop stop-color="#162739"/>
<stop offset="1" stop-color="#172839"/>
</linearGradient>
<clipPath id="clip0_6077_38643">
<rect width="2425" height="1240" fill="white"/>
</clipPath>
<clipPath id="clip1_6077_38643">
<rect width="24.1507" height="24.1507" fill="white" transform="translate(964.184 107) rotate(34.5147)"/>
</clipPath>
<clipPath id="clip2_6077_38643">
<rect width="20" height="20" fill="white" transform="translate(964.266 111) rotate(36.038)"/>
</clipPath>
<clipPath id="clip3_6077_38643">
<rect width="6.81788" height="14.488" fill="white" transform="translate(1588.26 677.726) rotate(27.7436)"/>
</clipPath>
<clipPath id="clip4_6077_38643">
<rect width="13.9448" height="13.9448" fill="white" transform="translate(1713.11 937) rotate(15)"/>
</clipPath>
<clipPath id="clip5_6077_38643">
<rect width="14.3433" height="14.3433" fill="white" transform="translate(1450.57 1028.16) rotate(21.8142)"/>
</clipPath>
</defs>
</svg>
