<svg width="2560" height="1596" viewBox="0 0 2560 1596" fill="none" xmlns="http://www.w3.org/2000/svg">
<g clip-path="url(#clip0_6433_14041)">
<g opacity="0.7" filter="url(#filter0_f_6433_14041)">
<rect width="901" height="847" rx="24" transform="matrix(0.87755 0.479485 -0.87755 0.479485 1537.29 716)" fill="url(#paint0_linear_6433_14041)"/>
</g>
<g opacity="0.7" filter="url(#filter1_f_6433_14041)">
<rect width="1163.47" height="1093.73" rx="24" transform="matrix(0.87755 0.479485 -0.87755 0.479485 1268.81 581)" fill="url(#paint1_linear_6433_14041)"/>
</g>
<path d="M696.785 823.468C698.105 823.593 699.249 824.434 699.762 825.657L709.731 849.425C710.205 850.553 710.072 851.845 709.378 852.853L695.83 872.555C695.126 873.578 693.945 874.166 692.705 874.11L667.276 872.96C665.94 872.899 664.748 872.102 664.181 870.89L652.894 846.718C652.354 845.563 652.467 844.209 653.189 843.159L667.366 822.543C668.105 821.468 669.368 820.878 670.666 821.001L696.785 823.468Z" fill="url(#paint2_linear_6433_14041)"/>
<path d="M696.756 823.766C697.967 823.881 699.015 824.652 699.486 825.773L709.455 849.541C709.889 850.575 709.767 851.759 709.131 852.683L695.583 872.386C694.938 873.323 693.855 873.862 692.718 873.811L667.29 872.661C666.065 872.605 664.972 871.874 664.453 870.763L653.165 846.591C652.671 845.532 652.774 844.291 653.435 843.329L667.613 822.713C668.29 821.728 669.448 821.187 670.638 821.299L696.756 823.766Z" stroke="#74DFFF" stroke-opacity="0.7" stroke-width="0.599189"/>
<g clip-path="url(#clip1_6433_14041)">
<g clip-path="url(#clip2_6433_14041)">
<mask id="mask0_6433_14041" style="mask-type:luminance" maskUnits="userSpaceOnUse" x="668" y="834" width="84" height="68">
<path d="M679.773 834.002L751.005 885.827L739.245 901.992L668.013 850.166L679.773 834.002Z" fill="white"/>
</mask>
<g mask="url(#mask0_6433_14041)">
<path fill-rule="evenodd" clip-rule="evenodd" d="M679.077 846.307C678.835 846.488 678.527 846.581 678.199 846.545L673.342 846.024C672.657 845.949 672.16 845.336 672.231 844.655C672.302 843.97 672.913 843.477 673.598 843.551L676.311 843.844L675.199 841.35C674.917 840.721 675.198 839.988 675.828 839.712C676.455 839.434 677.191 839.717 677.473 840.346L679.465 844.806C679.605 845.119 679.606 845.455 679.496 845.75C679.461 845.845 679.414 845.931 679.36 846.013C679.283 846.125 679.189 846.225 679.077 846.307ZM678.664 848.828C679.158 849.244 679.254 849.978 678.869 850.506L676.005 854.444C675.601 854.999 674.821 855.12 674.265 854.715C673.707 854.309 673.583 853.532 673.987 852.977L675.59 850.774L672.868 850.479C672.183 850.408 671.688 849.795 671.757 849.112C671.828 848.429 672.441 847.933 673.125 848.007L677.983 848.533C678.245 848.56 678.479 848.667 678.664 848.828ZM685.287 847.102C684.792 846.683 684.698 845.949 685.082 845.421L687.947 841.483C688.35 840.929 689.127 840.807 689.686 841.214C690.244 841.62 690.368 842.397 689.965 842.951L688.361 845.155L691.083 845.447C691.768 845.52 692.264 846.133 692.193 846.815C692.12 847.499 691.51 847.993 690.825 847.92L685.967 847.395C685.706 847.367 685.472 847.26 685.287 847.102ZM679.293 839.529C679.012 838.901 679.294 838.168 679.923 837.888C680.552 837.612 681.287 837.895 681.567 838.523L682.684 841.024L684.287 838.82C684.69 838.267 685.468 838.145 686.026 838.551C686.582 838.955 686.707 839.734 686.304 840.287L683.439 844.226C683.055 844.754 682.327 844.889 681.777 844.548C681.569 844.421 681.395 844.231 681.288 843.991L679.293 839.529ZM681.052 850.047C680.981 850.06 680.878 850.036 680.818 849.993L680.399 849.688C680.342 849.646 680.287 849.555 680.276 849.482L679.882 847.031C679.871 846.961 679.896 846.857 679.937 846.801L680.241 846.383C680.283 846.325 680.374 846.269 680.444 846.258L682.898 845.878C682.97 845.867 683.074 845.892 683.131 845.934L683.55 846.238C683.608 846.281 683.664 846.372 683.675 846.443L684.069 848.895C684.08 848.965 684.054 849.069 684.013 849.127L683.709 849.545C683.668 849.601 683.576 849.658 683.506 849.668L681.052 850.047ZM682.654 848.447C682.696 848.389 682.719 848.284 682.709 848.212L682.594 847.504C682.583 847.434 682.527 847.342 682.47 847.3L682.453 847.288C682.396 847.247 682.292 847.222 682.222 847.233L681.513 847.342C681.441 847.354 681.351 847.411 681.309 847.468L681.297 847.484C681.256 847.541 681.231 847.643 681.242 847.714L681.356 848.424C681.367 848.493 681.422 848.585 681.48 848.626L681.496 848.638C681.554 848.68 681.658 848.705 681.728 848.694L682.438 848.585C682.509 848.573 682.601 848.519 682.642 848.463L682.654 848.447ZM684.658 856.397C684.938 857.026 684.654 857.761 684.027 858.039C683.4 858.316 682.663 858.033 682.384 857.403L681.267 854.905L679.665 857.107C679.261 857.663 678.483 857.784 677.925 857.378C677.366 856.972 677.244 856.195 677.648 855.639L680.512 851.702C680.897 851.173 681.624 851.038 682.174 851.381C682.382 851.507 682.556 851.696 682.662 851.937L684.658 856.397ZM687.638 852.085L688.752 854.576C689.034 855.206 688.753 855.939 688.123 856.217C687.496 856.494 686.759 856.209 686.479 855.582L684.485 851.119C684.353 850.82 684.345 850.497 684.445 850.213C684.489 850.081 684.554 849.959 684.637 849.853C684.697 849.775 684.766 849.705 684.845 849.642C685.092 849.446 685.412 849.344 685.751 849.379L690.61 849.904C691.293 849.978 691.79 850.591 691.719 851.274C691.65 851.958 691.038 852.45 690.353 852.376L687.638 852.085Z" fill="#74DFFF"/>
</g>
</g>
</g>
<path d="M1858.71 692.382C1859.35 692.265 1860 692.509 1860.4 693.017L1868.26 702.889C1868.64 703.358 1868.75 703.984 1868.55 704.551L1864.79 715.638C1864.6 716.214 1864.12 716.648 1863.53 716.787L1851.39 719.629C1850.75 719.779 1850.09 719.562 1849.66 719.066L1841.12 709.179C1840.71 708.707 1840.59 708.054 1840.79 707.463L1844.72 695.862C1844.93 695.257 1845.45 694.811 1846.07 694.696L1858.71 692.382Z" fill="#1C3946"/>
<path d="M1858.77 692.744C1859.28 692.651 1859.8 692.844 1860.11 693.246L1867.98 703.118C1868.27 703.489 1868.36 703.984 1868.21 704.433L1864.44 715.52C1864.29 715.975 1863.91 716.319 1863.44 716.429L1851.31 719.271C1850.8 719.39 1850.28 719.218 1849.94 718.826L1841.4 708.938C1841.08 708.565 1840.98 708.048 1841.14 707.581L1845.07 695.98C1845.23 695.501 1845.64 695.148 1846.14 695.057L1858.77 692.744Z" stroke="#74DFFF" stroke-opacity="0.7" stroke-width="0.735685"/>
<g clip-path="url(#clip3_6433_14041)">
<path d="M1854.04 699.172L1857.69 700.151L1850.89 710.372C1850.82 710.477 1850.72 710.557 1850.6 710.602C1850.48 710.646 1850.36 710.653 1850.23 710.62L1847.39 709.858C1847.3 709.834 1847.21 709.787 1847.14 709.723C1847.07 709.659 1847.02 709.579 1846.98 709.489C1846.95 709.4 1846.94 709.304 1846.95 709.209C1846.96 709.114 1846.99 709.023 1847.04 708.943L1853.38 699.421C1853.45 699.316 1853.55 699.235 1853.67 699.191C1853.79 699.146 1853.92 699.14 1854.04 699.172Z" fill="url(#paint3_linear_6433_14041)"/>
<path d="M1857.33 708.132L1851.54 706.58C1851.48 706.565 1851.43 706.567 1851.37 706.586C1851.32 706.604 1851.28 706.638 1851.24 706.683C1851.21 706.727 1851.19 706.781 1851.19 706.837C1851.19 706.893 1851.2 706.948 1851.23 706.995L1854.02 711.467C1854.1 711.597 1854.23 711.692 1854.38 711.731L1857.66 712.61L1857.33 708.132Z" fill="url(#paint4_linear_6433_14041)"/>
<path d="M1854.04 699.173C1853.92 699.139 1853.79 699.146 1853.67 699.192C1853.55 699.238 1853.45 699.321 1853.38 699.429L1847.05 708.936C1847 709.015 1846.96 709.106 1846.95 709.202C1846.94 709.298 1846.95 709.395 1846.98 709.486C1847.01 709.577 1847.07 709.658 1847.14 709.723C1847.21 709.788 1847.3 709.835 1847.39 709.859L1850.31 710.641C1850.42 710.651 1850.54 710.63 1850.64 710.581C1850.74 710.532 1850.83 710.457 1850.9 710.362L1852.15 708.477L1854.04 711.495C1854.12 711.61 1854.24 711.694 1854.38 711.731L1857.64 712.607L1857.31 708.127L1853.13 707.008L1857.71 700.155L1854.04 699.173Z" fill="#74DFFF"/>
<path d="M1858.6 700.819C1858.59 700.693 1858.55 700.573 1858.47 700.476C1858.39 700.378 1858.28 700.308 1858.16 700.276L1854.09 699.185C1854.21 699.217 1854.32 699.287 1854.4 699.385C1854.48 699.482 1854.52 699.602 1854.53 699.728L1855.26 711.145C1855.27 711.24 1855.25 711.335 1855.21 711.423C1855.17 711.511 1855.11 711.588 1855.04 711.649C1854.97 711.709 1854.88 711.751 1854.79 711.772C1854.69 711.792 1854.59 711.789 1854.5 711.765L1858.57 712.856C1858.67 712.88 1858.76 712.883 1858.86 712.863C1858.95 712.842 1859.04 712.8 1859.11 712.74C1859.19 712.679 1859.24 712.602 1859.28 712.514C1859.32 712.426 1859.34 712.331 1859.33 712.236L1858.6 700.819Z" fill="url(#paint5_linear_6433_14041)"/>
</g>
<g filter="url(#filter2_f_6433_14041)">
<circle cx="725" cy="971" r="367" fill="url(#paint6_linear_6433_14041)"/>
</g>
<circle cx="1574" cy="759" r="285" fill="url(#paint7_linear_6433_14041)"/>
<g filter="url(#filter3_f_6433_14041)">
<circle cx="1555" cy="337" r="189" fill="url(#paint8_linear_6433_14041)"/>
</g>
<g filter="url(#filter4_f_6433_14041)">
<circle cx="793.925" cy="602.923" r="125.124" transform="rotate(120 793.925 602.923)" fill="url(#paint9_linear_6433_14041)"/>
</g>
<g filter="url(#filter5_f_6433_14041)">
<circle cx="788.061" cy="597.06" r="98.1385" transform="rotate(120 788.061 597.06)" fill="#162535" fill-opacity="0.5"/>
</g>
<g filter="url(#filter6_f_6433_14041)">
<circle cx="793.649" cy="583.647" r="67.8228" transform="rotate(120 793.649 583.647)" fill="#162535" fill-opacity="0.8"/>
</g>
<g filter="url(#filter7_f_6433_14041)">
<circle cx="930.893" cy="188.893" r="24.8111" transform="rotate(120 930.893 188.893)" fill="#162535"/>
</g>
<g filter="url(#filter8_f_6433_14041)">
<circle cx="932.893" cy="195.893" r="24.8111" transform="rotate(120 932.893 195.893)" fill="url(#paint10_linear_6433_14041)"/>
</g>
<g filter="url(#filter9_f_6433_14041)">
<circle cx="1864.15" cy="260.152" r="29.3932" transform="rotate(120 1864.15 260.152)" fill="url(#paint11_linear_6433_14041)"/>
</g>
<g filter="url(#filter10_f_6433_14041)">
<circle cx="1897.39" cy="926.394" r="278.468" transform="rotate(120 1897.39 926.394)" fill="url(#paint12_linear_6433_14041)"/>
</g>
<g filter="url(#filter11_f_6433_14041)">
<circle cx="1829.43" cy="435" r="25.6218" transform="rotate(120 1829.43 435)" fill="#162535"/>
</g>
<g filter="url(#filter12_f_6433_14041)">
<circle cx="1828" cy="435" r="25.6218" transform="rotate(120 1828 435)" fill="url(#paint13_linear_6433_14041)"/>
</g>
<circle cx="1048.62" cy="384.571" r="283.669" transform="rotate(-60 1048.62 384.571)" stroke="url(#paint14_radial_6433_14041)"/>
<circle cx="284.169" cy="284.169" r="283.669" transform="matrix(-0.5 -0.866025 -0.866025 0.5 1421.8 758.906)" stroke="url(#paint15_radial_6433_14041)"/>
<mask id="mask1_6433_14041" style="mask-type:alpha" maskUnits="userSpaceOnUse" x="1241" y="34" width="910" height="934">
<path d="M1889.81 291.505C1889.81 414.035 1790.46 513.366 1667.9 513.366C1545.35 513.366 1241.5 539.031 1241.5 416.5C1241.5 293.969 1390.94 34 1513.5 34C1636.05 34 1889.81 168.974 1889.81 291.505Z" fill="#D9D9D9"/>
<path d="M2026.59 260.5C2026.59 383.031 1927.24 482.361 1804.68 482.361C1682.13 482.361 1582.78 378.392 1582.78 255.861C1582.78 133.331 1682.13 34 1804.68 34C1927.24 34 2026.59 137.969 2026.59 260.5Z" fill="#D9D9D9"/>
<path d="M1967.9 761.5C1967.9 884.031 1829.75 968 1707.19 968C1584.64 968 1485.29 868.669 1485.29 746.139C1485.29 623.608 1623.45 539.639 1746 539.639C1868.55 539.639 1967.9 638.969 1967.9 761.5Z" fill="#D9D9D9"/>
<path d="M2151 746.139C2151 868.669 2051.65 968 1929.1 968C1806.54 968 1694.5 862.031 1694.5 739.5C1694.5 616.969 1793.85 517.639 1916.4 517.639C2038.96 517.639 2151 623.608 2151 746.139Z" fill="#D9D9D9"/>
</mask>
<g mask="url(#mask1_6433_14041)">
<path d="M1717.29 443.076C1748.11 460.869 1774.33 483.571 1795.52 509.624C1772.19 544.194 1740.84 574.133 1702.29 596.389C1579.92 667.044 1426.78 636.15 1340.45 529.854C1423.02 407.452 1587.47 368.121 1717.29 443.076ZM1796.11 508.756C1774.87 482.71 1748.63 460.012 1717.79 442.21C1587.6 367.042 1422.71 406.407 1339.79 529.041C1330.66 517.719 1322.29 505.548 1314.79 492.559C1236.46 356.882 1282.95 183.393 1418.62 105.06C1554.3 26.7266 1727.79 73.213 1806.12 208.89C1862.01 305.695 1854.36 421.75 1796.11 508.756ZM1329.79 546.906C1333 541.362 1336.36 535.966 1339.86 530.722C1426.53 637.202 1580.08 668.106 1702.79 597.255C1741.39 574.974 1772.79 545.022 1796.18 510.436C1867.73 599.049 1881.48 726.036 1821.12 830.576C1742.79 966.252 1569.3 1012.74 1433.62 934.406C1297.95 856.073 1251.46 682.583 1329.79 546.906Z" stroke="url(#paint16_radial_6433_14041)"/>
</g>
<circle cx="1280.78" cy="230.144" r="283.644" stroke="url(#paint17_radial_6433_14041)"/>
<circle cx="1280.78" cy="818.432" r="283.644" stroke="url(#paint18_radial_6433_14041)"/>
<path d="M1801.98 487.401C1803.06 487.204 1804.16 487.616 1804.84 488.474L1818.12 505.15C1818.75 505.942 1818.94 507 1818.61 507.958L1812.26 526.686C1811.93 527.658 1811.12 528.391 1810.12 528.626L1789.62 533.428C1788.55 533.68 1787.42 533.313 1786.69 532.476L1772.27 515.774C1771.59 514.977 1771.37 513.874 1771.71 512.876L1778.36 493.28C1778.7 492.258 1779.58 491.504 1780.64 491.31L1801.98 487.401Z" fill="url(#paint19_linear_6433_14041)"/>
<path d="M1802.09 488.013C1802.95 487.856 1803.82 488.182 1804.36 488.861L1817.64 505.537C1818.13 506.163 1818.28 507 1818.02 507.758L1811.67 526.486C1811.41 527.255 1810.77 527.835 1809.98 528.021L1789.48 532.823C1788.63 533.022 1787.74 532.732 1787.16 532.07L1772.74 515.368C1772.2 514.737 1772.03 513.865 1772.3 513.076L1778.95 493.479C1779.22 492.671 1779.91 492.075 1780.75 491.921L1802.09 488.013Z" stroke="#74DFFF" stroke-opacity="0.7" stroke-width="1.2427"/>
<path d="M1798.5 499.789C1798.37 499.408 1798.08 499.08 1797.68 498.893C1797.28 498.706 1796.85 498.699 1796.48 498.838L1796.47 498.835C1796.09 498.972 1795.77 499.256 1795.58 499.653C1795.39 500.051 1795.38 500.483 1795.52 500.859L1795.52 500.869C1795.66 501.246 1795.94 501.57 1796.34 501.757C1796.74 501.944 1797.17 501.955 1797.55 501.819L1797.55 501.814C1797.93 501.68 1798.26 501.397 1798.45 500.998C1798.63 500.602 1798.64 500.169 1798.5 499.79L1798.5 499.789ZM1788.28 518.913C1788.68 519.1 1789.12 519.106 1789.49 518.973L1789.5 518.967C1789.88 518.834 1790.2 518.549 1790.39 518.154C1790.58 517.755 1790.59 517.324 1790.45 516.944L1790.45 516.943C1790.31 516.56 1790.03 516.234 1789.63 516.046C1789.23 515.859 1788.8 515.85 1788.42 515.992L1788.42 515.989C1788.04 516.127 1787.71 516.409 1787.52 516.808C1787.34 517.203 1787.33 517.637 1787.47 518.012L1787.47 518.022C1787.6 518.396 1787.88 518.726 1788.28 518.913ZM1798.12 518.238C1798.52 518.311 1798.95 518.235 1799.3 517.982L1799.35 517.944C1799.68 517.7 1799.89 517.338 1799.96 516.96C1800.03 516.559 1799.95 516.134 1799.7 515.775L1799.68 515.752C1799.43 515.411 1799.07 515.192 1798.68 515.123C1798.28 515.045 1797.85 515.132 1797.49 515.381C1797.14 515.628 1796.91 515.999 1796.84 516.402C1796.77 516.801 1796.85 517.227 1797.1 517.587L1797.1 517.588C1797.35 517.945 1797.72 518.162 1798.12 518.238ZM1795.14 508.125C1794.94 507.574 1794.53 507.095 1793.96 506.826C1793.38 506.556 1792.76 506.549 1792.21 506.747C1791.66 506.946 1791.18 507.354 1790.91 507.928C1790.64 508.503 1790.63 509.13 1790.83 509.684C1791.03 510.233 1791.43 510.708 1792.01 510.977C1792.58 511.247 1793.21 511.258 1793.76 511.062C1794.31 510.859 1794.79 510.449 1795.06 509.875C1795.33 509.3 1795.34 508.676 1795.14 508.125ZM1795.46 505.297C1796.23 505.826 1796.79 506.576 1797.09 507.421L1797.1 507.423C1797.14 507.556 1797.19 507.698 1797.22 507.836L1799.04 507.681C1799.12 507.01 1799.4 506.398 1799.82 505.901C1800.38 505.234 1801.19 504.784 1802.14 504.704L1802.17 504.7C1803.1 504.63 1803.97 504.935 1804.63 505.492C1805.29 506.054 1805.75 506.873 1805.83 507.814L1805.83 507.816C1805.91 508.752 1805.6 509.637 1805.04 510.302C1804.47 510.969 1803.66 511.423 1802.72 511.501L1802.47 511.524L1802.45 511.515C1801.61 511.52 1800.83 511.217 1800.23 510.71C1799.73 510.293 1799.36 509.731 1799.16 509.09L1797.34 509.244C1797.3 509.755 1797.18 510.266 1796.94 510.76C1796.71 511.252 1796.4 511.684 1796.03 512.043L1797.07 513.536C1797.69 513.271 1798.36 513.205 1799 513.321C1799.86 513.471 1800.66 513.956 1801.2 514.733L1801.23 514.777L1801.23 514.779C1801.74 515.546 1801.91 516.438 1801.76 517.286C1801.6 518.137 1801.12 518.941 1800.35 519.479L1800.3 519.518L1800.3 519.513C1799.54 520.023 1798.64 520.188 1797.8 520.042C1796.94 519.885 1796.13 519.402 1795.6 518.632L1795.6 518.627C1795.06 517.85 1794.89 516.934 1795.04 516.077C1795.15 515.437 1795.45 514.834 1795.91 514.344L1794.87 512.848C1794.74 512.909 1794.61 512.963 1794.47 513.011L1794.47 513.013C1793.62 513.319 1792.69 513.366 1791.79 513.108L1791.02 514.76C1791.55 515.162 1791.94 515.709 1792.17 516.321L1792.17 516.327C1792.46 517.145 1792.45 518.081 1792.05 518.932C1791.65 519.781 1790.94 520.388 1790.12 520.685L1790.11 520.692C1789.29 520.987 1788.35 520.97 1787.5 520.571C1786.66 520.173 1786.05 519.464 1785.75 518.642L1785.74 518.641L1785.75 518.632C1785.45 517.811 1785.47 516.879 1785.87 516.03C1786.27 515.179 1786.98 514.568 1787.8 514.274L1787.8 514.27L1787.8 514.271C1788.41 514.05 1789.08 514.003 1789.73 514.157L1790.51 512.505C1789.74 511.981 1789.18 511.231 1788.88 510.389L1788.87 510.382C1788.5 509.331 1788.51 508.135 1789.03 507.042C1789.54 505.952 1790.45 505.175 1791.5 504.794L1791.5 504.797C1792.34 504.489 1793.28 504.44 1794.18 504.694L1794.95 503.05C1794.42 502.643 1794.02 502.096 1793.8 501.486L1793.8 501.485L1793.8 501.481C1793.51 500.658 1793.52 499.726 1793.92 498.874C1794.32 498.028 1795.03 497.415 1795.85 497.118L1795.85 497.117C1796.68 496.82 1797.61 496.838 1798.46 497.235C1799.31 497.635 1799.92 498.343 1800.22 499.168L1800.22 499.17L1800.22 499.171C1800.52 499.992 1800.5 500.93 1800.1 501.777C1799.7 502.628 1799 503.234 1798.17 503.533L1798.17 503.537C1797.56 503.755 1796.89 503.803 1796.23 503.652L1795.46 505.297ZM1804.01 507.971L1804 507.947C1803.96 507.522 1803.75 507.153 1803.45 506.894C1803.13 506.63 1802.73 506.488 1802.29 506.524L1802.29 506.525C1801.86 506.559 1801.48 506.77 1801.21 507.082C1800.95 507.392 1800.81 507.803 1800.85 508.238L1800.85 508.25C1800.89 508.68 1801.1 509.053 1801.41 509.31C1801.71 509.575 1802.13 509.718 1802.56 509.68L1802.58 509.68C1803.01 509.637 1803.38 509.427 1803.63 509.125C1803.9 508.812 1804.04 508.404 1804.01 507.971Z" fill="#74DFFF"/>
<path d="M1749.71 552.382C1750.35 552.265 1751 552.509 1751.4 553.017L1759.26 562.889C1759.64 563.358 1759.75 563.984 1759.55 564.551L1755.79 575.638C1755.6 576.214 1755.12 576.648 1754.53 576.787L1742.39 579.629C1741.75 579.779 1741.09 579.562 1740.66 579.066L1732.12 569.179C1731.71 568.707 1731.59 568.054 1731.79 567.463L1735.72 555.862C1735.93 555.257 1736.45 554.811 1737.07 554.696L1749.71 552.382Z" fill="#1B3440"/>
<path d="M1749.77 552.744C1750.28 552.651 1750.8 552.844 1751.11 553.246L1758.98 563.118C1759.27 563.489 1759.36 563.984 1759.21 564.433L1755.44 575.52C1755.29 575.975 1754.91 576.319 1754.44 576.429L1742.31 579.271C1741.8 579.39 1741.28 579.218 1740.94 578.826L1732.4 568.938C1732.08 568.565 1731.98 568.048 1732.14 567.581L1736.07 555.98C1736.23 555.501 1736.64 555.148 1737.14 555.057L1749.77 552.744Z" stroke="#74DFFF" stroke-opacity="0.7" stroke-width="0.735685"/>
<g clip-path="url(#clip4_6433_14041)">
<path d="M1749.15 561.328C1748.94 560.407 1748.82 559.515 1748.79 559.33C1748.79 559.315 1748.77 559.307 1748.76 559.312C1748.59 559.396 1747.78 559.796 1746.91 560.148C1739.16 563.571 1742.47 570.368 1742.47 570.368L1742.5 570.421C1742.22 571.054 1741.85 571.987 1741.85 571.987L1742.05 572.092L1742.26 572.198C1742.26 572.198 1742.82 571.376 1743.18 570.78L1743.24 570.769C1743.25 570.772 1750.72 569.649 1749.15 561.328ZM1742.9 570.482C1742.9 570.482 1742.77 570.151 1742.76 570.012L1742.76 570.002L1746.42 563.762C1746.43 563.742 1746.46 563.758 1746.45 563.777L1743.38 570.324L1743.37 570.334C1743.25 570.404 1742.9 570.482 1742.9 570.482Z" fill="#74DFFF"/>
</g>
<path d="M895.709 887.382C896.347 887.265 896.998 887.509 897.403 888.017L905.264 897.889C905.637 898.358 905.746 898.984 905.554 899.551L901.792 910.638C901.597 911.214 901.119 911.648 900.527 911.787L888.392 914.629C887.754 914.779 887.086 914.562 886.658 914.066L878.122 904.179C877.714 903.707 877.587 903.054 877.788 902.463L881.723 890.862C881.929 890.257 882.445 889.811 883.073 889.696L895.709 887.382Z" fill="#2E667C"/>
<path d="M895.775 887.744C896.28 887.651 896.795 887.844 897.115 888.246L904.976 898.118C905.271 898.489 905.358 898.984 905.205 899.433L901.444 910.52C901.289 910.975 900.911 911.319 900.443 911.429L888.308 914.271C887.804 914.39 887.275 914.218 886.937 913.826L878.4 903.938C878.078 903.565 877.977 903.048 878.136 902.581L882.072 890.98C882.234 890.501 882.643 890.148 883.14 890.057L895.775 887.744Z" stroke="#74DFFF" stroke-opacity="0.7" stroke-width="0.735685"/>
<path d="M894.225 897.876L894.686 897.935L896.077 896.824L896.196 896.302C895.295 895.311 894.041 894.631 892.606 894.474C890.006 894.19 887.619 895.71 886.709 898.022C886.857 897.942 887.141 898.045 887.141 898.045L889.694 897.908C889.694 897.908 889.846 897.71 889.91 897.73C890.512 897.203 891.294 896.925 892.096 896.952C892.898 896.979 893.659 897.31 894.225 897.876Z" fill="#74DFFF"/>
<path d="M897.605 899.217C897.432 898.13 896.944 897.117 896.201 896.302L894.231 897.875C894.564 898.207 894.818 898.608 894.974 899.05C895.131 899.492 895.185 899.962 895.135 900.428L895.101 900.74C895.965 900.834 896.591 901.611 896.497 902.469C896.403 903.327 895.623 903.95 894.76 903.855L891.627 903.513L891.279 903.792L891.075 905.662L891.354 906.007L894.488 906.349C895.567 906.464 896.648 906.149 897.494 905.473C898.34 904.798 898.881 903.816 899.001 902.743C899.15 901.363 898.584 900.064 897.601 899.216L897.605 899.217Z" fill="#74DFFF"/>
<path d="M888.213 905.666L891.345 906.009L891.618 903.515L888.485 903.172C888.263 903.148 888.048 903.077 887.856 902.963L887.389 903.051L885.998 904.162L885.842 904.571C886.489 905.188 887.323 905.573 888.213 905.667L888.213 905.666Z" fill="#74DFFF"/>
<path d="M889.099 897.561C888.018 897.445 886.936 897.759 886.089 898.436C885.242 899.112 884.7 900.095 884.581 901.169C884.513 901.795 884.591 902.428 884.81 903.018C885.029 903.609 885.383 904.141 885.843 904.574L887.857 902.965C887.595 902.812 887.384 902.587 887.247 902.317C887.111 902.047 887.056 901.744 887.089 901.444C887.183 900.584 887.963 899.963 888.825 900.057C889.127 900.09 889.412 900.21 889.648 900.4C889.883 900.591 890.059 900.845 890.153 901.132L892.167 899.523C891.528 898.466 890.421 897.707 889.097 897.563L889.099 897.561Z" fill="#74DFFF"/>
<path d="M879.709 1026.38C880.347 1026.26 880.998 1026.51 881.403 1027.02L889.264 1036.89C889.637 1037.36 889.746 1037.98 889.554 1038.55L885.792 1049.64C885.597 1050.21 885.119 1050.65 884.527 1050.79L872.392 1053.63C871.754 1053.78 871.086 1053.56 870.658 1053.07L862.122 1043.18C861.714 1042.71 861.587 1042.05 861.788 1041.46L865.723 1029.86C865.929 1029.26 866.445 1028.81 867.073 1028.7L879.709 1026.38Z" fill="url(#paint20_linear_6433_14041)"/>
<path d="M879.775 1026.74C880.28 1026.65 880.795 1026.84 881.115 1027.25L888.976 1037.12C889.271 1037.49 889.358 1037.98 889.205 1038.43L885.444 1049.52C885.289 1049.98 884.911 1050.32 884.443 1050.43L872.308 1053.27C871.804 1053.39 871.275 1053.22 870.937 1052.83L862.4 1042.94C862.078 1042.56 861.977 1042.05 862.136 1041.58L866.072 1029.98C866.234 1029.5 866.643 1029.15 867.14 1029.06L879.775 1026.74Z" stroke="#74DFFF" stroke-opacity="0.7" stroke-width="0.735685"/>
<path d="M880.019 1039.14L882.997 1041.95C883.036 1041.98 883.022 1042.04 882.97 1042.05L878.995 1043.01M872.872 1037.25L868.897 1038.22C868.845 1038.23 868.83 1038.28 868.869 1038.32L871.848 1041.12M878.032 1037.2L873.867 1043.03" stroke="#74DFFF" stroke-width="1.57279" stroke-linecap="round"/>
<g filter="url(#filter13_f_6433_14041)">
<circle cx="791.5" cy="576.5" r="49.5" fill="#18283B"/>
</g>
<g filter="url(#filter14_f_6433_14041)">
<circle cx="790" cy="579" r="35" fill="#18283B"/>
</g>
<rect x="777.863" y="549" width="42.8353" height="49.3752" rx="21.4176" transform="rotate(18.7404 777.863 549)" fill="#172839"/>
<path d="M796.981 556.401C798.06 556.204 799.16 556.616 799.843 557.474L813.122 574.15C813.752 574.942 813.937 576 813.611 576.958L807.258 595.686C806.928 596.658 806.12 597.391 805.12 597.626L784.623 602.428C783.545 602.68 782.417 602.313 781.694 601.476L767.275 584.774C766.586 583.977 766.371 582.874 766.71 581.876L773.358 562.28C773.705 561.258 774.577 560.504 775.638 560.31L796.981 556.401Z" fill="url(#paint21_linear_6433_14041)"/>
<path d="M797.093 557.013C797.946 556.856 798.816 557.182 799.357 557.861L812.636 574.537C813.134 575.163 813.28 576 813.023 576.758L806.669 595.486C806.408 596.255 805.769 596.835 804.978 597.021L784.481 601.823C783.629 602.022 782.736 601.732 782.164 601.07L767.745 584.368C767.2 583.737 767.03 582.865 767.298 582.076L773.946 562.479C774.221 561.671 774.911 561.075 775.75 560.921L797.093 557.013Z" stroke="#74DFFF" stroke-opacity="0.5" stroke-width="1.2427"/>
<path fill-rule="evenodd" clip-rule="evenodd" d="M792.334 569.158C795.027 569.158 796.926 571.466 796.926 574.314C797.034 575.351 796.949 576.565 796.503 577.595C795.915 579.27 794.54 580 792.417 580H792.296L794.403 583.106L791.398 585.71L788.001 580.08L786.236 580V588.921H782.578V569.158H792.334ZM791.54 586.089L794.852 583.511L796.411 585.512L793.283 588.453L791.54 586.089ZM793.799 588.688L796.726 586.352C796.888 586.223 797.114 586.24 797.257 586.391L798.462 587.664C798.568 587.777 798.607 587.941 798.556 588.09C798.412 588.51 798.077 589.367 797.618 589.78C796.528 590.759 794.338 589.539 794.084 589.446C794.068 589.44 794.098 589.453 794.084 589.446C793.813 589.303 793.557 588.879 793.799 588.688ZM791.927 572.166H786.643V576.462H791.927C793.05 576.462 793.959 575.5 793.959 574.314C793.959 573.127 793.05 572.166 791.927 572.166Z" fill="#74DFFF" fill-opacity="0.8"/>
<path d="M1631.71 859.382C1632.35 859.265 1633 859.509 1633.4 860.017L1641.26 869.889C1641.64 870.358 1641.75 870.984 1641.55 871.551L1637.79 882.638C1637.6 883.214 1637.12 883.648 1636.53 883.787L1624.39 886.629C1623.75 886.779 1623.09 886.562 1622.66 886.066L1614.12 876.179C1613.71 875.707 1613.59 875.054 1613.79 874.463L1617.72 862.862C1617.93 862.257 1618.45 861.811 1619.07 861.696L1631.71 859.382Z" fill="#3C92A2"/>
<path d="M1631.77 859.744C1632.28 859.651 1632.8 859.844 1633.11 860.246L1640.98 870.118C1641.27 870.489 1641.36 870.984 1641.21 871.433L1637.44 882.52C1637.29 882.975 1636.91 883.319 1636.44 883.429L1624.31 886.271C1623.8 886.39 1623.28 886.218 1622.94 885.826L1614.4 875.938C1614.08 875.565 1613.98 875.048 1614.14 874.581L1618.07 862.98C1618.23 862.501 1618.64 862.148 1619.14 862.057L1631.77 859.744Z" stroke="#74DFFF" stroke-opacity="0.7" stroke-width="0.735685"/>
<path fill-rule="evenodd" clip-rule="evenodd" d="M1628.06 866.781C1624.84 866.781 1622.22 869.399 1622.22 872.623C1622.22 875.204 1623.9 877.392 1626.22 878.166C1626.51 878.22 1626.62 878.041 1626.62 877.883C1626.62 877.743 1626.61 877.377 1626.61 876.89C1624.98 877.241 1624.64 876.108 1624.64 876.108C1624.37 875.434 1623.99 875.255 1623.99 875.255C1623.46 874.892 1624.03 874.9 1624.03 874.9C1624.61 874.943 1624.93 875.502 1624.93 875.502C1625.45 876.395 1626.29 876.137 1626.63 875.986C1626.68 875.61 1626.83 875.351 1627 875.204C1625.7 875.057 1624.33 874.555 1624.33 872.318C1624.33 871.679 1624.56 871.16 1624.94 870.751C1624.88 870.604 1624.68 870.008 1624.99 869.205C1624.99 869.205 1625.49 869.047 1626.6 869.804C1627.07 869.675 1627.57 869.61 1628.06 869.607C1628.56 869.607 1629.06 869.675 1629.53 869.804C1630.64 869.047 1631.13 869.205 1631.13 869.205C1631.45 870.008 1631.25 870.604 1631.19 870.751C1631.56 871.16 1631.79 871.679 1631.79 872.318C1631.79 874.562 1630.42 875.054 1629.12 875.201C1629.33 875.38 1629.52 875.739 1629.52 876.284C1629.52 877.065 1629.51 877.693 1629.51 877.887C1629.51 878.044 1629.62 878.224 1629.91 878.166C1632.23 877.392 1633.91 875.204 1633.91 872.626C1633.91 869.399 1631.29 866.785 1628.06 866.785V866.781Z" fill="#74DFFF"/>
<rect width="32" height="38" transform="translate(2020.21 182) rotate(18.7404)" fill="#111E2A"/>
<path d="M2034.94 187.704C2035.77 187.552 2036.62 187.869 2037.15 188.53L2047.38 201.382C2047.86 201.992 2048.01 202.807 2047.76 203.545L2042.86 217.978C2042.61 218.727 2041.98 219.292 2041.21 219.473L2025.42 223.173C2024.59 223.368 2023.72 223.085 2023.16 222.44L2012.05 209.569C2011.52 208.954 2011.35 208.105 2011.61 207.336L2016.74 192.234C2017 191.447 2017.67 190.866 2018.49 190.716L2034.94 187.704Z" fill="url(#paint22_linear_6433_14041)"/>
<path d="M2035.03 188.175C2035.68 188.054 2036.35 188.306 2036.77 188.829L2047 201.68C2047.39 202.163 2047.5 202.807 2047.3 203.391L2042.41 217.824C2042.2 218.417 2041.71 218.864 2041.1 219.007L2025.31 222.707C2024.65 222.861 2023.96 222.637 2023.52 222.127L2012.41 209.256C2011.99 208.77 2011.86 208.098 2012.06 207.489L2017.19 192.388C2017.4 191.765 2017.93 191.305 2018.58 191.187L2035.03 188.175Z" stroke="#74DFFF" stroke-opacity="0.7" stroke-width="0.957671"/>
<path d="M2025.47 204.417C2025.46 204.646 2025.47 204.834 2025.51 204.972C2025.55 205.111 2025.6 205.263 2025.68 205.429C2025.71 205.48 2025.72 205.53 2025.71 205.573C2025.71 205.635 2025.67 205.695 2025.59 205.753L2025.18 205.991C2025.12 206.025 2025.07 206.041 2025.02 206.038C2024.96 206.035 2024.9 206 2024.84 205.941C2024.76 205.844 2024.69 205.74 2024.63 205.638C2024.57 205.529 2024.52 205.408 2024.46 205.262C2023.94 205.805 2023.32 206.056 2022.59 206.016C2022.07 205.988 2021.67 205.816 2021.38 205.502C2021.09 205.189 2020.96 204.784 2020.99 204.289C2021.01 203.763 2021.22 203.346 2021.62 203.045C2022.01 202.743 2022.52 202.61 2023.16 202.645C2023.37 202.657 2023.59 202.687 2023.82 202.731C2024.04 202.774 2024.28 202.837 2024.52 202.906L2024.55 202.454C2024.57 201.984 2024.49 201.65 2024.31 201.448C2024.12 201.245 2023.79 201.134 2023.32 201.108C2023.1 201.096 2022.87 201.108 2022.64 201.151C2022.41 201.194 2022.18 201.25 2021.96 201.325C2021.86 201.363 2021.79 201.383 2021.74 201.393C2021.7 201.403 2021.67 201.408 2021.64 201.407C2021.55 201.402 2021.51 201.338 2021.52 201.208L2021.54 200.904C2021.54 200.805 2021.56 200.732 2021.59 200.69C2021.63 200.648 2021.69 200.608 2021.77 200.569C2022 200.47 2022.26 200.391 2022.57 200.334C2022.88 200.27 2023.2 200.251 2023.54 200.269C2024.28 200.31 2024.81 200.507 2025.14 200.86C2025.46 201.213 2025.6 201.73 2025.57 202.411L2025.46 204.417L2025.47 204.417ZM2022.9 205.22C2023.11 205.231 2023.32 205.206 2023.55 205.144C2023.77 205.082 2023.98 204.956 2024.16 204.78C2024.26 204.668 2024.34 204.542 2024.39 204.395C2024.43 204.249 2024.47 204.071 2024.48 203.86L2024.49 203.6C2024.32 203.547 2024.13 203.499 2023.93 203.464C2023.73 203.428 2023.54 203.405 2023.35 203.394C2022.94 203.372 2022.63 203.435 2022.42 203.591C2022.2 203.747 2022.09 203.977 2022.07 204.286C2022.06 204.577 2022.12 204.798 2022.27 204.955C2022.41 205.118 2022.62 205.204 2022.9 205.22ZM2027.84 206.162C2027.73 206.156 2027.65 206.133 2027.6 206.087C2027.56 206.047 2027.52 205.958 2027.49 205.839L2026.3 200.974C2026.27 200.848 2026.25 200.766 2026.25 200.723C2026.26 200.624 2026.31 200.571 2026.41 200.576L2027.02 200.61C2027.14 200.616 2027.22 200.639 2027.26 200.685C2027.3 200.725 2027.34 200.814 2027.37 200.933L2028.18 205.088L2029.37 201.044C2029.41 200.922 2029.45 200.843 2029.5 200.809C2029.56 200.774 2029.64 200.754 2029.75 200.76L2030.25 200.788C2030.37 200.794 2030.45 200.817 2030.49 200.863C2030.54 200.903 2030.58 200.992 2030.6 201.111L2031.35 205.312L2032.65 201.224C2032.69 201.102 2032.74 201.024 2032.78 200.989C2032.84 200.955 2032.92 200.935 2033.03 200.941L2033.6 200.972C2033.7 200.978 2033.76 201.03 2033.75 201.136C2033.75 201.167 2033.74 201.197 2033.73 201.234C2033.73 201.271 2033.71 201.32 2033.68 201.386L2031.93 206.089C2031.88 206.211 2031.83 206.289 2031.78 206.323C2031.73 206.358 2031.65 206.378 2031.54 206.372L2031.01 206.343C2030.89 206.337 2030.81 206.314 2030.77 206.268C2030.72 206.222 2030.68 206.139 2030.66 206.014L2029.92 201.968L2028.75 205.902C2028.71 206.024 2028.67 206.103 2028.62 206.143C2028.57 206.184 2028.48 206.198 2028.37 206.191L2027.84 206.162ZM2035.78 206.767C2035.46 206.749 2035.14 206.695 2034.83 206.603C2034.53 206.512 2034.29 206.418 2034.14 206.316C2034.04 206.255 2033.98 206.19 2033.95 206.133C2033.93 206.075 2033.92 206.013 2033.93 205.957L2033.94 205.641C2033.95 205.511 2034 205.452 2034.1 205.457C2034.13 205.459 2034.17 205.468 2034.21 205.482C2034.24 205.497 2034.3 205.524 2034.36 205.553C2034.56 205.657 2034.79 205.744 2035.03 205.807C2035.27 205.87 2035.51 205.908 2035.76 205.922C2036.15 205.943 2036.46 205.892 2036.68 205.767C2036.89 205.642 2037.02 205.45 2037.03 205.197C2037.04 205.023 2036.99 204.878 2036.89 204.754C2036.78 204.63 2036.58 204.514 2036.28 204.398L2035.4 204.07C2034.95 203.903 2034.63 203.674 2034.44 203.384C2034.25 203.1 2034.16 202.791 2034.18 202.469C2034.19 202.209 2034.26 201.983 2034.39 201.791C2034.51 201.599 2034.67 201.434 2034.86 201.308C2035.05 201.176 2035.27 201.083 2035.52 201.022C2035.77 200.961 2036.03 200.945 2036.31 200.96C2036.44 200.967 2036.58 200.981 2036.72 201.007C2036.86 201.034 2036.99 201.066 2037.12 201.097C2037.24 201.135 2037.36 201.173 2037.47 201.216C2037.58 201.259 2037.66 201.301 2037.72 201.342C2037.8 201.396 2037.86 201.449 2037.9 201.507C2037.93 201.558 2037.95 201.627 2037.94 201.714L2037.93 202.005C2037.92 202.135 2037.86 202.2 2037.77 202.195C2037.72 202.192 2037.64 202.163 2037.54 202.108C2037.2 201.928 2036.81 201.825 2036.37 201.801C2036.01 201.782 2035.73 201.822 2035.53 201.929C2035.33 202.036 2035.23 202.21 2035.21 202.464C2035.2 202.637 2035.26 202.789 2035.37 202.914C2035.49 203.038 2035.71 203.168 2036.04 203.292L2036.9 203.619C2037.34 203.786 2037.65 204.001 2037.83 204.266C2038 204.53 2038.08 204.826 2038.06 205.148C2038.05 205.414 2037.98 205.653 2037.86 205.857C2037.74 206.062 2037.58 206.239 2037.38 206.377C2037.18 206.521 2036.94 206.62 2036.67 206.686C2036.39 206.757 2036.1 206.785 2035.78 206.767Z" fill="#74DFFF"/>
<path d="M2036.79 209.84C2034.67 211.232 2031.66 211.868 2029.12 211.728C2025.55 211.532 2022.41 210.036 2020.11 207.711C2019.93 207.527 2020.11 207.302 2020.33 207.451C2022.87 209.118 2026.06 210.218 2029.41 210.403C2031.67 210.527 2034.18 210.193 2036.51 209.353C2036.86 209.217 2037.13 209.611 2036.79 209.84ZM2037.69 208.921C2037.45 208.573 2035.97 208.665 2035.31 208.709C2035.11 208.723 2035.09 208.548 2035.27 208.428C2036.48 207.675 2038.38 208.016 2038.59 208.3C2038.8 208.591 2038.41 210.488 2037.27 211.344C2037.09 211.478 2036.94 211.394 2037.02 211.213C2037.3 210.614 2037.93 209.264 2037.69 208.921Z" fill="#74DFFF"/>
<rect x="484.367" y="164.474" width="91.7917" height="79.6991" rx="39.8495" transform="rotate(34.5147 484.367 164.474)" fill="#0F1924"/>
<path d="M514.992 198.942C516.312 199.066 517.456 199.908 517.969 201.13L527.938 224.899C528.412 226.027 528.279 227.318 527.585 228.326L514.037 248.029C513.333 249.052 512.152 249.64 510.912 249.583L485.483 248.433C484.147 248.373 482.955 247.575 482.388 246.363L471.101 222.191C470.561 221.037 470.674 219.683 471.396 218.633L485.573 198.017C486.312 196.942 487.575 196.352 488.873 196.474L514.992 198.942Z" fill="url(#paint23_linear_6433_14041)"/>
<path d="M514.964 199.24C516.174 199.354 517.222 200.125 517.693 201.246L527.662 225.015C528.096 226.049 527.974 227.232 527.338 228.157L513.79 247.859C513.145 248.797 512.062 249.336 510.925 249.284L485.497 248.134C484.272 248.079 483.179 247.348 482.66 246.236L471.372 222.064C470.878 221.006 470.981 219.765 471.643 218.803L485.82 198.186C486.497 197.201 487.655 196.66 488.845 196.773L514.964 199.24Z" stroke="#74DFFF" stroke-opacity="0.7" stroke-width="0.599189"/>
<path d="M503.902 219.799L507.095 219.86L503.902 219.799ZM500.1 219.727L503.293 219.788L500.1 219.727ZM496.375 219.656L499.568 219.717L496.375 219.656ZM492.649 219.586L495.766 219.645L492.649 219.586ZM488.848 219.513L492.041 219.574L488.848 219.513ZM492.716 216.088L495.833 216.147L492.716 216.088ZM496.441 216.159L499.634 216.22L496.441 216.159ZM500.167 216.23L503.36 216.29L500.167 216.23ZM500.233 212.732L503.426 212.793L500.233 212.732Z" fill="black"/>
<path d="M503.902 219.799L507.095 219.86M500.1 219.727L503.293 219.788M496.375 219.656L499.568 219.717M492.649 219.586L495.766 219.645M488.848 219.513L492.041 219.574M492.716 216.088L495.833 216.147M496.441 216.159L499.634 216.22M500.167 216.23L503.36 216.29M500.233 212.732L503.426 212.793" stroke="#74DFFF" stroke-width="2.88969"/>
<path d="M517.281 220.206C517.281 220.206 515.937 218.888 513.115 219.29C512.853 217.08 510.521 215.743 510.521 215.743C510.521 215.743 508.265 218.362 509.806 221.357C509.345 221.577 508.579 221.866 507.439 221.845L486.53 221.448C486.122 222.885 485.941 232.465 496.433 232.664C503.96 232.807 509.653 229.417 512.435 223.08C516.383 223.46 517.281 220.206 517.281 220.206Z" fill="#74DFFF"/>
<path d="M1280 1606L1278.93 444" stroke="url(#paint24_linear_6433_14041)" stroke-linecap="round" stroke-dasharray="8 8"/>
</g>
<defs>
<filter id="filter0_f_6433_14041" x="579.336" y="495.741" width="1963.29" height="1278.66" filterUnits="userSpaceOnUse" color-interpolation-filters="sRGB">
<feFlood flood-opacity="0" result="BackgroundImageFix"/>
<feBlend mode="normal" in="SourceGraphic" in2="BackgroundImageFix" result="shape"/>
<feGaussianBlur stdDeviation="113.5" result="effect1_foregroundBlur_6433_14041"/>
</filter>
<filter id="filter1_f_6433_14041" x="94.3398" y="360.741" width="2410.13" height="1522.81" filterUnits="userSpaceOnUse" color-interpolation-filters="sRGB">
<feFlood flood-opacity="0" result="BackgroundImageFix"/>
<feBlend mode="normal" in="SourceGraphic" in2="BackgroundImageFix" result="shape"/>
<feGaussianBlur stdDeviation="113.5" result="effect1_foregroundBlur_6433_14041"/>
</filter>
<filter id="filter2_f_6433_14041" x="353" y="599" width="744" height="744" filterUnits="userSpaceOnUse" color-interpolation-filters="sRGB">
<feFlood flood-opacity="0" result="BackgroundImageFix"/>
<feBlend mode="normal" in="SourceGraphic" in2="BackgroundImageFix" result="shape"/>
<feGaussianBlur stdDeviation="2.5" result="effect1_foregroundBlur_6433_14041"/>
</filter>
<filter id="filter3_f_6433_14041" x="1346" y="128" width="418" height="418" filterUnits="userSpaceOnUse" color-interpolation-filters="sRGB">
<feFlood flood-opacity="0" result="BackgroundImageFix"/>
<feBlend mode="normal" in="SourceGraphic" in2="BackgroundImageFix" result="shape"/>
<feGaussianBlur stdDeviation="10" result="effect1_foregroundBlur_6433_14041"/>
</filter>
<filter id="filter4_f_6433_14041" x="648.781" y="457.777" width="290.289" height="290.291" filterUnits="userSpaceOnUse" color-interpolation-filters="sRGB">
<feFlood flood-opacity="0" result="BackgroundImageFix"/>
<feBlend mode="normal" in="SourceGraphic" in2="BackgroundImageFix" result="shape"/>
<feGaussianBlur stdDeviation="10" result="effect1_foregroundBlur_6433_14041"/>
</filter>
<filter id="filter5_f_6433_14041" x="639.906" y="448.905" width="296.309" height="296.31" filterUnits="userSpaceOnUse" color-interpolation-filters="sRGB">
<feFlood flood-opacity="0" result="BackgroundImageFix"/>
<feBlend mode="normal" in="SourceGraphic" in2="BackgroundImageFix" result="shape"/>
<feGaussianBlur stdDeviation="25" result="effect1_foregroundBlur_6433_14041"/>
</filter>
<filter id="filter6_f_6433_14041" x="675.816" y="465.813" width="235.668" height="235.668" filterUnits="userSpaceOnUse" color-interpolation-filters="sRGB">
<feFlood flood-opacity="0" result="BackgroundImageFix"/>
<feBlend mode="normal" in="SourceGraphic" in2="BackgroundImageFix" result="shape"/>
<feGaussianBlur stdDeviation="25" result="effect1_foregroundBlur_6433_14041"/>
</filter>
<filter id="filter7_f_6433_14041" x="901.078" y="159.078" width="59.6289" height="59.6309" filterUnits="userSpaceOnUse" color-interpolation-filters="sRGB">
<feFlood flood-opacity="0" result="BackgroundImageFix"/>
<feBlend mode="normal" in="SourceGraphic" in2="BackgroundImageFix" result="shape"/>
<feGaussianBlur stdDeviation="2.5" result="effect1_foregroundBlur_6433_14041"/>
</filter>
<filter id="filter8_f_6433_14041" x="903.078" y="166.078" width="59.6289" height="59.6309" filterUnits="userSpaceOnUse" color-interpolation-filters="sRGB">
<feFlood flood-opacity="0" result="BackgroundImageFix"/>
<feBlend mode="normal" in="SourceGraphic" in2="BackgroundImageFix" result="shape"/>
<feGaussianBlur stdDeviation="2.5" result="effect1_foregroundBlur_6433_14041"/>
</filter>
<filter id="filter9_f_6433_14041" x="1824.75" y="220.754" width="78.7969" height="78.7964" filterUnits="userSpaceOnUse" color-interpolation-filters="sRGB">
<feFlood flood-opacity="0" result="BackgroundImageFix"/>
<feBlend mode="normal" in="SourceGraphic" in2="BackgroundImageFix" result="shape"/>
<feGaussianBlur stdDeviation="5" result="effect1_foregroundBlur_6433_14041"/>
</filter>
<filter id="filter10_f_6433_14041" x="1608.88" y="637.88" width="577.031" height="577.029" filterUnits="userSpaceOnUse" color-interpolation-filters="sRGB">
<feFlood flood-opacity="0" result="BackgroundImageFix"/>
<feBlend mode="normal" in="SourceGraphic" in2="BackgroundImageFix" result="shape"/>
<feGaussianBlur stdDeviation="5" result="effect1_foregroundBlur_6433_14041"/>
</filter>
<filter id="filter11_f_6433_14041" x="1799.51" y="405.079" width="59.841" height="59.8434" filterUnits="userSpaceOnUse" color-interpolation-filters="sRGB">
<feFlood flood-opacity="0" result="BackgroundImageFix"/>
<feBlend mode="normal" in="SourceGraphic" in2="BackgroundImageFix" result="shape"/>
<feGaussianBlur stdDeviation="2.14774" result="effect1_foregroundBlur_6433_14041"/>
</filter>
<filter id="filter12_f_6433_14041" x="1798.08" y="405.079" width="59.841" height="59.8434" filterUnits="userSpaceOnUse" color-interpolation-filters="sRGB">
<feFlood flood-opacity="0" result="BackgroundImageFix"/>
<feBlend mode="normal" in="SourceGraphic" in2="BackgroundImageFix" result="shape"/>
<feGaussianBlur stdDeviation="2.14774" result="effect1_foregroundBlur_6433_14041"/>
</filter>
<filter id="filter13_f_6433_14041" x="692" y="477" width="199" height="199" filterUnits="userSpaceOnUse" color-interpolation-filters="sRGB">
<feFlood flood-opacity="0" result="BackgroundImageFix"/>
<feBlend mode="normal" in="SourceGraphic" in2="BackgroundImageFix" result="shape"/>
<feGaussianBlur stdDeviation="25" result="effect1_foregroundBlur_6433_14041"/>
</filter>
<filter id="filter14_f_6433_14041" x="754" y="543" width="72" height="72" filterUnits="userSpaceOnUse" color-interpolation-filters="sRGB">
<feFlood flood-opacity="0" result="BackgroundImageFix"/>
<feBlend mode="normal" in="SourceGraphic" in2="BackgroundImageFix" result="shape"/>
<feGaussianBlur stdDeviation="0.5" result="effect1_foregroundBlur_6433_14041"/>
</filter>
<linearGradient id="paint0_linear_6433_14041" x1="450.5" y1="0" x2="450.5" y2="847" gradientUnits="userSpaceOnUse">
<stop stop-color="#4FDAB8"/>
<stop offset="1" stop-color="#4FDAB8" stop-opacity="0"/>
</linearGradient>
<linearGradient id="paint1_linear_6433_14041" x1="581.733" y1="0" x2="581.733" y2="1093.73" gradientUnits="userSpaceOnUse">
<stop stop-color="#52C7EA"/>
<stop offset="1" stop-color="#52C7EA" stop-opacity="0"/>
</linearGradient>
<linearGradient id="paint2_linear_6433_14041" x1="698.31" y1="823.245" x2="664.484" y2="872.436" gradientUnits="userSpaceOnUse">
<stop stop-color="#1C3949"/>
<stop offset="1" stop-color="#265263"/>
</linearGradient>
<linearGradient id="paint3_linear_6433_14041" x1="1850.72" y1="698.281" x2="1857.8" y2="708.683" gradientUnits="userSpaceOnUse">
<stop stop-color="#4FDAB8"/>
<stop offset="1" stop-color="#52C7EA"/>
</linearGradient>
<linearGradient id="paint4_linear_6433_14041" x1="1852.03" y1="706.712" x2="1852.9" y2="712.903" gradientUnits="userSpaceOnUse">
<stop stop-color="#4FDAB8"/>
<stop offset="1" stop-color="#52C7EA"/>
</linearGradient>
<linearGradient id="paint5_linear_6433_14041" x1="1854.92" y1="699.408" x2="1861.93" y2="710.305" gradientUnits="userSpaceOnUse">
<stop stop-color="#4FDAB8"/>
<stop offset="1" stop-color="#52C7EA"/>
</linearGradient>
<linearGradient id="paint6_linear_6433_14041" x1="881.552" y1="1268.06" x2="1092" y2="778.517" gradientUnits="userSpaceOnUse">
<stop stop-color="#3A74C6" stop-opacity="0.2"/>
<stop offset="1" stop-color="#60D1F2" stop-opacity="0"/>
</linearGradient>
<linearGradient id="paint7_linear_6433_14041" x1="1916.5" y1="876.5" x2="1634" y2="449" gradientUnits="userSpaceOnUse">
<stop stop-color="#0E2A4B" stop-opacity="0.15"/>
<stop offset="1" stop-color="#60D1F2" stop-opacity="0"/>
</linearGradient>
<linearGradient id="paint8_linear_6433_14041" x1="1744" y1="406.5" x2="1389.5" y2="231.5" gradientUnits="userSpaceOnUse">
<stop stop-color="#3A74C6" stop-opacity="0.1"/>
<stop offset="1" stop-color="#60D1F2" stop-opacity="0"/>
</linearGradient>
<linearGradient id="paint9_linear_6433_14041" x1="847.299" y1="704.203" x2="919.049" y2="537.298" gradientUnits="userSpaceOnUse">
<stop stop-color="#3A74C6" stop-opacity="0.1"/>
<stop offset="1" stop-color="#60D1F2" stop-opacity="0"/>
</linearGradient>
<linearGradient id="paint10_linear_6433_14041" x1="943.476" y1="215.976" x2="957.704" y2="182.88" gradientUnits="userSpaceOnUse">
<stop stop-color="#3A74C6" stop-opacity="0.2"/>
<stop offset="1" stop-color="#60D1F2" stop-opacity="0"/>
</linearGradient>
<linearGradient id="paint11_linear_6433_14041" x1="1876.69" y1="283.944" x2="1893.55" y2="244.736" gradientUnits="userSpaceOnUse">
<stop stop-color="#1F2B3C" stop-opacity="0.6"/>
<stop offset="1" stop-color="#0B1416" stop-opacity="0.4"/>
</linearGradient>
<linearGradient id="paint12_linear_6433_14041" x1="1790.3" y1="1156.69" x2="1996.73" y2="815.23" gradientUnits="userSpaceOnUse">
<stop stop-color="#1E413D" stop-opacity="0.1"/>
<stop offset="0.959675" stop-color="#1C93B6" stop-opacity="0.01"/>
</linearGradient>
<linearGradient id="paint13_linear_6433_14041" x1="1838.93" y1="455.74" x2="1853.62" y2="421.562" gradientUnits="userSpaceOnUse">
<stop stop-color="#3AC69C" stop-opacity="0.1"/>
<stop offset="1" stop-color="#60D1F2" stop-opacity="0"/>
</linearGradient>
<radialGradient id="paint14_radial_6433_14041" cx="0" cy="0" r="1" gradientUnits="userSpaceOnUse" gradientTransform="translate(1007.49 46.1825) rotate(89.1122) scale(724.531)">
<stop stop-color="#4FDAB8" stop-opacity="0.15"/>
<stop offset="1" stop-color="#52C7EA" stop-opacity="0"/>
</radialGradient>
<radialGradient id="paint15_radial_6433_14041" cx="0" cy="0" r="1" gradientUnits="userSpaceOnUse" gradientTransform="translate(243.295 539.711) rotate(-87.9037) scale(551.549)">
<stop stop-color="#52C7EA" stop-opacity="0.5"/>
<stop offset="1" stop-color="#52C7EA" stop-opacity="0"/>
</radialGradient>
<radialGradient id="paint16_radial_6433_14041" cx="0" cy="0" r="1" gradientUnits="userSpaceOnUse" gradientTransform="translate(1987.3 208.589) rotate(157.26) scale(696.976 696.976)">
<stop stop-color="#4FDAB8" stop-opacity="0.2"/>
<stop offset="1" stop-color="#52C7EA" stop-opacity="0"/>
</radialGradient>
<radialGradient id="paint17_radial_6433_14041" cx="0" cy="0" r="1" gradientUnits="userSpaceOnUse" gradientTransform="translate(1281 -54) rotate(89.0891) scale(597.576)">
<stop stop-color="#4FDAB8" stop-opacity="0.01"/>
<stop offset="0.718874" stop-color="#51CCDC" stop-opacity="0.1"/>
<stop offset="1" stop-color="#52C7EA" stop-opacity="0"/>
</radialGradient>
<radialGradient id="paint18_radial_6433_14041" cx="0" cy="0" r="1" gradientUnits="userSpaceOnUse" gradientTransform="translate(1261.1 1033.13) rotate(-84.991) scale(479.961)">
<stop stop-color="#4FDAB8" stop-opacity="0.6"/>
<stop offset="0.768138" stop-color="#51CBDE" stop-opacity="0.2"/>
<stop offset="1" stop-color="#52C7EA" stop-opacity="0"/>
</radialGradient>
<linearGradient id="paint19_linear_6433_14041" x1="1803.15" y1="486.881" x2="1787.28" y2="533.639" gradientUnits="userSpaceOnUse">
<stop stop-color="#162535"/>
<stop offset="1" stop-color="#1A2C3D"/>
</linearGradient>
<linearGradient id="paint20_linear_6433_14041" x1="880.398" y1="1026.07" x2="871.007" y2="1053.75" gradientUnits="userSpaceOnUse">
<stop stop-color="#316A82"/>
<stop offset="1" stop-color="#2D5F79"/>
</linearGradient>
<linearGradient id="paint21_linear_6433_14041" x1="798.145" y1="555.881" x2="782.282" y2="602.639" gradientUnits="userSpaceOnUse">
<stop stop-color="#162739"/>
<stop offset="1" stop-color="#172839"/>
</linearGradient>
<linearGradient id="paint22_linear_6433_14041" x1="2035.84" y1="187.303" x2="2023.61" y2="223.336" gradientUnits="userSpaceOnUse">
<stop stop-color="#0F1924"/>
<stop offset="1" stop-color="#111E2A"/>
</linearGradient>
<linearGradient id="paint23_linear_6433_14041" x1="516.517" y1="198.719" x2="482.691" y2="247.91" gradientUnits="userSpaceOnUse">
<stop stop-color="#162535"/>
<stop offset="1" stop-color="#162535"/>
</linearGradient>
<linearGradient id="paint24_linear_6433_14041" x1="1279.43" y1="444" x2="1280.5" y2="1606" gradientUnits="userSpaceOnUse">
<stop stop-color="white" stop-opacity="0"/>
<stop offset="0.161668" stop-color="white" stop-opacity="0.3"/>
<stop offset="0.280811" stop-color="white" stop-opacity="0.6"/>
<stop offset="0.482573" stop-color="white"/>
<stop offset="0.697327" stop-color="white" stop-opacity="0.7"/>
<stop offset="1" stop-color="white" stop-opacity="0"/>
</linearGradient>
<clipPath id="clip0_6433_14041">
<rect width="2560" height="1596" fill="white"/>
</clipPath>
<clipPath id="clip1_6433_14041">
<rect width="24.1507" height="24.1507" fill="white" transform="translate(679.688 830) rotate(34.5147)"/>
</clipPath>
<clipPath id="clip2_6433_14041">
<rect width="20" height="20" fill="white" transform="translate(679.77 834) rotate(36.038)"/>
</clipPath>
<clipPath id="clip3_6433_14041">
<rect width="13.9448" height="13.9448" fill="white" transform="translate(1849.61 697.001) rotate(15)"/>
</clipPath>
<clipPath id="clip4_6433_14041">
<rect width="6.81788" height="14.488" fill="white" transform="translate(1745.76 557.727) rotate(27.7436)"/>
</clipPath>
</defs>
</svg>
