<svg width="2560" height="1700" viewBox="0 0 2560 1700" fill="none" xmlns="http://www.w3.org/2000/svg">
<g clip-path="url(#clip0_6373_16335)">
<g opacity="0.7" filter="url(#filter0_f_6373_16335)">
<rect width="901" height="847" rx="24" transform="matrix(0.87755 0.479485 -0.87755 0.479485 1537.29 716)" fill="url(#paint0_linear_6373_16335)"/>
</g>
<g opacity="0.7" filter="url(#filter1_f_6373_16335)">
<rect width="1163.47" height="1093.73" rx="24" transform="matrix(0.87755 0.479485 -0.87755 0.479485 1268.81 581)" fill="url(#paint1_linear_6373_16335)"/>
</g>
<g filter="url(#filter2_f_6373_16335)">
<circle cx="725" cy="971" r="367" fill="url(#paint2_linear_6373_16335)"/>
</g>
<circle cx="1574" cy="759" r="285" fill="url(#paint3_linear_6373_16335)"/>
<g filter="url(#filter3_f_6373_16335)">
<circle cx="1555" cy="337" r="189" fill="url(#paint4_linear_6373_16335)"/>
</g>
<g filter="url(#filter4_f_6373_16335)">
<circle cx="793.925" cy="602.923" r="125.124" transform="rotate(120 793.925 602.923)" fill="url(#paint5_linear_6373_16335)"/>
</g>
<g filter="url(#filter5_f_6373_16335)">
<circle cx="788.061" cy="597.06" r="98.1385" transform="rotate(120 788.061 597.06)" fill="#162535" fill-opacity="0.5"/>
</g>
<g filter="url(#filter6_f_6373_16335)">
<circle cx="793.649" cy="583.647" r="67.8228" transform="rotate(120 793.649 583.647)" fill="#162535" fill-opacity="0.8"/>
</g>
<g filter="url(#filter7_f_6373_16335)">
<circle cx="930.893" cy="188.893" r="24.8111" transform="rotate(120 930.893 188.893)" fill="#162535"/>
</g>
<g filter="url(#filter8_f_6373_16335)">
<circle cx="932.893" cy="195.893" r="24.8111" transform="rotate(120 932.893 195.893)" fill="url(#paint6_linear_6373_16335)"/>
</g>
<g filter="url(#filter9_f_6373_16335)">
<circle cx="1864.15" cy="260.152" r="29.3932" transform="rotate(120 1864.15 260.152)" fill="url(#paint7_linear_6373_16335)"/>
</g>
<g filter="url(#filter10_f_6373_16335)">
<circle cx="1897.39" cy="926.394" r="278.468" transform="rotate(120 1897.39 926.394)" fill="url(#paint8_linear_6373_16335)"/>
</g>
<g filter="url(#filter11_f_6373_16335)">
<circle cx="1832.89" cy="503.889" r="35.7889" transform="rotate(120 1832.89 503.889)" fill="#162535"/>
</g>
<g filter="url(#filter12_f_6373_16335)">
<circle cx="1830.89" cy="503.889" r="35.7889" transform="rotate(120 1830.89 503.889)" fill="url(#paint9_linear_6373_16335)"/>
</g>
<circle cx="1048.62" cy="454.571" r="283.669" transform="rotate(-60 1048.62 454.571)" stroke="url(#paint10_radial_6373_16335)"/>
<circle cx="284.169" cy="284.169" r="283.669" transform="matrix(-0.5 -0.866025 -0.866025 0.5 1421.8 828.906)" stroke="url(#paint11_radial_6373_16335)"/>
<mask id="mask0_6373_16335" style="mask-type:alpha" maskUnits="userSpaceOnUse" x="1241" y="104" width="910" height="934">
<path d="M1889.81 361.505C1889.81 484.035 1790.46 583.366 1667.9 583.366C1545.35 583.366 1241.5 609.031 1241.5 486.5C1241.5 363.969 1390.94 104 1513.5 104C1636.05 104 1889.81 238.974 1889.81 361.505Z" fill="#D9D9D9"/>
<path d="M2026.59 330.5C2026.59 453.031 1927.24 552.361 1804.68 552.361C1682.13 552.361 1582.78 448.392 1582.78 325.861C1582.78 203.331 1682.13 104 1804.68 104C1927.24 104 2026.59 207.969 2026.59 330.5Z" fill="#D9D9D9"/>
<path d="M1967.9 831.5C1967.9 954.031 1829.75 1038 1707.19 1038C1584.64 1038 1485.29 938.669 1485.29 816.139C1485.29 693.608 1623.45 609.639 1746 609.639C1868.55 609.639 1967.9 708.969 1967.9 831.5Z" fill="#D9D9D9"/>
<path d="M2151 816.139C2151 938.669 2051.65 1038 1929.1 1038C1806.54 1038 1694.5 932.031 1694.5 809.5C1694.5 686.969 1793.85 587.639 1916.4 587.639C2038.96 587.639 2151 693.608 2151 816.139Z" fill="#D9D9D9"/>
</mask>
<g mask="url(#mask0_6373_16335)">
<path d="M1717.29 513.076C1748.11 530.869 1774.33 553.571 1795.52 579.624C1772.19 614.194 1740.84 644.133 1702.29 666.389C1579.92 737.044 1426.78 706.15 1340.45 599.854C1423.02 477.452 1587.47 438.121 1717.29 513.076ZM1796.11 578.756C1774.87 552.71 1748.63 530.012 1717.79 512.21C1587.6 437.042 1422.71 476.407 1339.79 599.041C1330.66 587.719 1322.29 575.548 1314.79 562.559C1236.46 426.882 1282.95 253.393 1418.62 175.06C1554.3 96.7266 1727.79 143.213 1806.12 278.89C1862.01 375.695 1854.36 491.75 1796.11 578.756ZM1329.79 616.906C1333 611.362 1336.36 605.966 1339.86 600.722C1426.53 707.202 1580.08 738.106 1702.79 667.255C1741.39 644.974 1772.79 615.022 1796.18 580.436C1867.73 669.049 1881.48 796.036 1821.12 900.576C1742.79 1036.25 1569.3 1082.74 1433.62 1004.41C1297.95 926.073 1251.46 752.583 1329.79 616.906Z" stroke="url(#paint12_radial_6373_16335)"/>
</g>
<circle cx="1280.78" cy="300.144" r="283.644" stroke="url(#paint13_radial_6373_16335)"/>
<circle cx="1280.78" cy="888.432" r="283.644" stroke="url(#paint14_radial_6373_16335)"/>
<path d="M788.781 100.468C790.101 100.593 791.245 101.434 791.758 102.657L801.727 126.425C802.201 127.553 802.068 128.845 801.374 129.853L787.826 149.555C787.122 150.578 785.941 151.166 784.701 151.11L759.273 149.96C757.936 149.899 756.744 149.102 756.178 147.89L744.89 123.718C744.35 122.563 744.463 121.209 745.185 120.159L759.362 99.5429C760.101 98.4682 761.364 97.8781 762.662 98.0007L788.781 100.468Z" fill="url(#paint15_linear_6373_16335)"/>
<path d="M788.753 100.766C789.963 100.881 791.012 101.652 791.482 102.773L801.451 126.541C801.885 127.575 801.763 128.759 801.128 129.683L787.579 149.386C786.934 150.323 785.851 150.862 784.714 150.811L759.286 149.661C758.061 149.605 756.968 148.874 756.449 147.763L745.161 123.591C744.667 122.532 744.77 121.291 745.432 120.329L759.609 99.7126C760.286 98.7275 761.444 98.1866 762.634 98.299L788.753 100.766Z" stroke="#74DFFF" stroke-opacity="0.7" stroke-width="0.599189"/>
<g clip-path="url(#clip1_6373_16335)">
<g clip-path="url(#clip2_6373_16335)">
<mask id="mask1_6373_16335" style="mask-type:luminance" maskUnits="userSpaceOnUse" x="762" y="113" width="91" height="40">
<path d="M766.977 113.228L852.866 132.792L848.426 152.283L762.537 132.718L766.977 113.228Z" fill="white"/>
</mask>
<g mask="url(#mask1_6373_16335)">
<path fill-rule="evenodd" clip-rule="evenodd" d="M771.185 124.812C771.033 125.073 770.787 125.28 770.472 125.376L765.802 126.811C765.143 127.012 764.445 126.645 764.242 125.991C764.038 125.333 764.404 124.639 765.063 124.437L767.673 123.638L765.668 121.784C765.161 121.317 765.13 120.532 765.6 120.031C766.067 119.528 766.855 119.498 767.362 119.965L770.95 123.279C771.202 123.512 771.336 123.82 771.35 124.134C771.356 124.236 771.346 124.334 771.329 124.43C771.303 124.563 771.255 124.692 771.185 124.812ZM771.798 127.291C772.417 127.479 772.794 128.116 772.649 128.753L771.567 133.501C771.415 134.17 770.746 134.588 770.076 134.436C769.403 134.282 768.983 133.616 769.135 132.947L769.74 130.291L767.122 131.093C766.465 131.297 765.768 130.929 765.562 130.274C765.359 129.618 765.727 128.921 766.384 128.719L771.057 127.288C771.308 127.21 771.566 127.217 771.798 127.291ZM777.206 123.095C776.586 122.905 776.21 122.268 776.355 121.631L777.437 116.882C777.589 116.215 778.255 115.797 778.928 115.95C779.601 116.103 780.022 116.769 779.87 117.437L779.264 120.094L781.881 119.29C782.539 119.088 783.236 119.456 783.44 120.11C783.642 120.768 783.277 121.462 782.618 121.664L777.946 123.097C777.695 123.174 777.438 123.168 777.206 123.095ZM768.713 118.497C768.207 118.03 768.178 117.245 768.645 116.74C769.114 116.239 769.902 116.209 770.406 116.676L772.418 118.534L773.024 115.877C773.176 115.21 773.843 114.792 774.516 114.945C775.186 115.097 775.608 115.764 775.456 116.431L774.374 121.18C774.229 121.816 773.613 122.228 772.974 122.131C772.732 122.096 772.497 121.99 772.304 121.812L768.713 118.497ZM774.474 127.471C774.414 127.51 774.31 127.53 774.238 127.513L773.733 127.398C773.664 127.382 773.577 127.32 773.538 127.258L772.211 125.16C772.172 125.1 772.155 124.995 772.17 124.927L772.285 124.423C772.301 124.353 772.363 124.266 772.423 124.228L774.528 122.911C774.59 122.873 774.695 122.855 774.764 122.871L775.269 122.986C775.339 123.002 775.427 123.064 775.464 123.125L776.793 125.223C776.831 125.283 776.848 125.389 776.832 125.459L776.718 125.962C776.702 126.03 776.641 126.118 776.581 126.155L774.474 127.471ZM775.316 125.368C775.332 125.299 775.312 125.194 775.274 125.132L774.889 124.526C774.851 124.466 774.764 124.403 774.695 124.387L774.675 124.383C774.606 124.367 774.5 124.386 774.441 124.424L773.831 124.803C773.77 124.843 773.71 124.93 773.694 124.999L773.69 125.019C773.674 125.087 773.691 125.19 773.729 125.252L774.114 125.859C774.152 125.919 774.238 125.981 774.307 125.996L774.327 126.001C774.396 126.017 774.502 125.998 774.562 125.961L775.172 125.58C775.233 125.542 775.296 125.456 775.311 125.388L775.316 125.368ZM780.29 131.886C780.796 132.353 780.824 133.141 780.357 133.644C779.89 134.146 779.102 134.176 778.597 133.707L776.586 131.851L775.981 134.506C775.829 135.176 775.162 135.594 774.489 135.441C773.815 135.287 773.396 134.622 773.549 133.952L774.63 129.204C774.775 128.567 775.39 128.156 776.03 128.255C776.271 128.288 776.506 128.394 776.699 128.573L780.29 131.886ZM781.33 126.749L783.336 128.599C783.842 129.067 783.873 129.851 783.404 130.356C782.936 130.857 782.147 130.885 781.643 130.419L778.052 127.103C777.812 126.88 777.678 126.587 777.657 126.286C777.647 126.148 777.658 126.01 777.693 125.88C777.717 125.785 777.752 125.693 777.801 125.604C777.95 125.327 778.205 125.107 778.53 125.005L783.202 123.573C783.859 123.372 784.558 123.74 784.762 124.395C784.967 125.051 784.599 125.745 783.94 125.946L781.33 126.749Z" fill="#74DFFF" fill-opacity="0.8"/>
</g>
</g>
</g>
<path d="M778.781 790.468C780.101 790.593 781.245 791.434 781.758 792.657L791.727 816.425C792.201 817.553 792.068 818.845 791.374 819.853L777.826 839.555C777.122 840.578 775.941 841.166 774.701 841.11L749.273 839.96C747.936 839.899 746.744 839.102 746.178 837.89L734.89 813.718C734.35 812.563 734.463 811.209 735.185 810.159L749.362 789.543C750.101 788.468 751.364 787.878 752.662 788.001L778.781 790.468Z" fill="url(#paint16_linear_6373_16335)"/>
<path d="M778.753 790.766C779.963 790.881 781.012 791.652 781.482 792.773L791.451 816.541C791.885 817.575 791.763 818.759 791.128 819.683L777.579 839.386C776.934 840.323 775.851 840.862 774.714 840.811L749.286 839.661C748.061 839.605 746.968 838.874 746.449 837.763L735.161 813.591C734.667 812.532 734.77 811.291 735.432 810.329L749.609 789.713C750.286 788.728 751.444 788.187 752.634 788.299L778.753 790.766Z" stroke="#74DFFF" stroke-opacity="0.7" stroke-width="0.599189"/>
<path d="M767.925 811.555L771.119 811.564L767.925 811.555ZM764.123 811.546L767.317 811.554L764.123 811.546ZM760.397 811.536L763.591 811.544L760.397 811.536ZM756.671 811.526L759.789 811.534L756.671 811.526ZM752.869 811.517L756.063 811.525L752.869 811.517ZM756.68 808.028L759.798 808.036L756.68 808.028ZM760.406 808.038L763.6 808.046L760.406 808.038ZM764.132 808.048L767.326 808.056L764.132 808.048ZM764.141 804.55L767.335 804.558L764.141 804.55Z" fill="black"/>
<path d="M767.925 811.555L771.119 811.564M764.123 811.546L767.317 811.554M760.397 811.536L763.591 811.544M756.671 811.526L759.789 811.534M752.869 811.517L756.063 811.525M756.68 808.028L759.798 808.036M760.406 808.038L763.6 808.046M764.132 808.048L767.326 808.056M764.141 804.55L767.335 804.558" stroke="#74DFFF" stroke-width="2.88969"/>
<path d="M781.311 811.741C781.311 811.741 779.945 810.445 777.131 810.894C776.832 808.688 774.478 807.389 774.478 807.389C774.478 807.389 772.266 810.045 773.855 813.015C773.398 813.242 772.637 813.544 771.496 813.541L750.584 813.487C750.2 814.931 750.176 824.512 760.67 824.54C768.198 824.559 773.834 821.075 776.512 814.695C780.466 815.009 781.311 811.741 781.311 811.741Z" fill="#74DFFF"/>
<path d="M1801.98 560.401C1803.06 560.204 1804.16 560.616 1804.84 561.474L1818.12 578.15C1818.75 578.942 1818.94 580 1818.61 580.958L1812.26 599.686C1811.93 600.658 1811.12 601.391 1810.12 601.626L1789.62 606.428C1788.55 606.68 1787.42 606.313 1786.69 605.476L1772.27 588.774C1771.59 587.977 1771.37 586.874 1771.71 585.876L1778.36 566.28C1778.7 565.258 1779.58 564.504 1780.64 564.31L1801.98 560.401Z" fill="url(#paint17_linear_6373_16335)"/>
<path d="M1802.09 561.013C1802.95 560.856 1803.82 561.182 1804.36 561.861L1817.64 578.537C1818.13 579.163 1818.28 580 1818.02 580.758L1811.67 599.486C1811.41 600.255 1810.77 600.835 1809.98 601.021L1789.48 605.823C1788.63 606.022 1787.74 605.732 1787.16 605.07L1772.74 588.368C1772.2 587.737 1772.03 586.865 1772.3 586.076L1778.95 566.479C1779.22 565.671 1779.91 565.075 1780.75 564.921L1802.09 561.013Z" stroke="#74DFFF" stroke-opacity="0.7" stroke-width="1.2427"/>
<path d="M1793.76 572.847C1793.47 572.561 1793.08 572.385 1792.64 572.385C1792.2 572.385 1791.81 572.561 1791.52 572.847H1791.52C1791.23 573.131 1791.06 573.528 1791.06 573.966C1791.06 574.407 1791.23 574.801 1791.52 575.083L1791.52 575.091C1791.81 575.374 1792.2 575.548 1792.64 575.548C1793.08 575.548 1793.47 575.374 1793.76 575.091L1793.76 575.083C1794.05 574.801 1794.22 574.407 1794.22 573.966C1794.22 573.528 1794.05 573.131 1793.76 572.847H1793.76ZM1792.64 594.502C1793.08 594.502 1793.47 594.322 1793.76 594.041L1793.76 594.033C1794.05 593.752 1794.22 593.356 1794.22 592.92C1794.22 592.479 1794.05 592.084 1793.76 591.798H1793.76C1793.47 591.509 1793.08 591.335 1792.64 591.335C1792.2 591.335 1791.81 591.509 1791.52 591.798H1791.52C1791.23 592.084 1791.06 592.479 1791.06 592.92C1791.06 593.356 1791.23 593.752 1791.52 594.033L1791.52 594.041C1791.81 594.322 1792.2 594.502 1792.64 594.502ZM1801.26 589.709C1801.65 589.606 1802 589.355 1802.22 588.974L1802.25 588.918C1802.44 588.558 1802.48 588.142 1802.37 587.772C1802.27 587.378 1802.02 587.028 1801.64 586.81L1801.61 586.795C1801.24 586.592 1800.82 586.548 1800.44 586.653C1800.04 586.751 1799.69 587.013 1799.47 587.39C1799.26 587.765 1799.21 588.196 1799.31 588.592C1799.42 588.982 1799.67 589.335 1800.05 589.555H1800.05C1800.43 589.773 1800.86 589.812 1801.26 589.709ZM1794.26 581.822C1793.85 581.408 1793.27 581.148 1792.64 581.148C1792 581.148 1791.43 581.408 1791.02 581.822C1790.61 582.236 1790.35 582.806 1790.35 583.441C1790.35 584.075 1790.61 584.648 1791.02 585.066C1791.43 585.478 1792 585.735 1792.64 585.735C1793.27 585.735 1793.85 585.478 1794.26 585.066C1794.67 584.648 1794.93 584.075 1794.93 583.441C1794.93 582.806 1794.67 582.236 1794.26 581.822ZM1793.35 579.126C1794.27 579.278 1795.1 579.719 1795.73 580.355H1795.73C1795.83 580.455 1795.93 580.566 1796.02 580.676L1797.6 579.762C1797.39 579.121 1797.38 578.45 1797.55 577.821C1797.77 576.978 1798.32 576.224 1799.14 575.752L1799.17 575.735C1799.98 575.276 1800.9 575.181 1801.73 575.406C1802.57 575.632 1803.33 576.18 1803.8 576.998V577C1804.27 577.813 1804.37 578.746 1804.14 579.586C1803.92 580.429 1803.37 581.188 1802.55 581.658L1802.34 581.785H1802.31C1801.56 582.145 1800.73 582.202 1799.96 582C1799.33 581.834 1798.76 581.484 1798.31 580.987L1796.73 581.898C1796.91 582.377 1797.01 582.894 1797.01 583.441C1797.01 583.984 1796.91 584.508 1796.73 584.99L1798.31 585.899C1798.76 585.394 1799.33 585.052 1799.96 584.885C1800.8 584.655 1801.74 584.753 1802.55 585.228L1802.6 585.253V585.255C1803.39 585.733 1803.92 586.47 1804.14 587.302C1804.37 588.137 1804.27 589.07 1803.8 589.885L1803.77 589.942L1803.77 589.937C1803.3 590.723 1802.55 591.255 1801.73 591.48C1800.89 591.702 1799.95 591.607 1799.14 591.139V591.132C1798.32 590.659 1797.77 589.903 1797.55 589.062C1797.38 588.436 1797.39 587.765 1797.6 587.124L1796.02 586.212C1795.93 586.323 1795.83 586.428 1795.73 586.528L1795.73 586.533C1795.1 587.167 1794.27 587.608 1793.35 587.755V589.58C1794 589.717 1794.59 590.045 1795.05 590.505L1795.05 590.51C1795.67 591.124 1796.05 591.98 1796.05 592.92C1796.05 593.857 1795.67 594.708 1795.05 595.325L1795.05 595.334C1794.43 595.951 1793.58 596.333 1792.64 596.333C1791.7 596.333 1790.85 595.951 1790.23 595.334H1790.23V595.325C1789.61 594.708 1789.23 593.857 1789.23 592.92C1789.23 591.98 1789.61 591.124 1790.23 590.51V590.505H1790.23C1790.69 590.045 1791.28 589.717 1791.93 589.58V587.755C1791.01 587.608 1790.18 587.167 1789.55 586.533L1789.55 586.528C1788.76 585.738 1788.27 584.648 1788.27 583.441C1788.27 582.236 1788.76 581.146 1789.55 580.355H1789.55C1790.18 579.719 1791.01 579.278 1791.93 579.126V577.309C1791.28 577.167 1790.69 576.839 1790.23 576.381H1790.23V576.376C1789.61 575.757 1789.23 574.907 1789.23 573.966C1789.23 573.031 1789.61 572.174 1790.23 571.557L1790.23 571.554C1790.85 570.935 1791.7 570.553 1792.64 570.553C1793.58 570.553 1794.43 570.935 1795.05 571.554V571.557H1795.05C1795.67 572.174 1796.05 573.031 1796.05 573.966C1796.05 574.907 1795.67 575.757 1795.05 576.376L1795.05 576.381C1794.59 576.839 1794 577.167 1793.35 577.309V579.126ZM1802.22 577.914L1802.21 577.894C1801.99 577.527 1801.64 577.282 1801.26 577.177C1800.86 577.071 1800.43 577.116 1800.05 577.334H1800.05C1799.67 577.549 1799.42 577.901 1799.31 578.296C1799.21 578.688 1799.26 579.121 1799.47 579.498L1799.48 579.508C1799.7 579.88 1800.05 580.13 1800.44 580.23C1800.83 580.341 1801.26 580.294 1801.64 580.076L1801.66 580.066C1802.03 579.846 1802.27 579.498 1802.37 579.116C1802.48 578.722 1802.44 578.291 1802.22 577.914Z" fill="#74DFFF"/>
<path d="M1659.71 672.382C1660.35 672.265 1661 672.509 1661.4 673.017L1669.26 682.889C1669.64 683.358 1669.75 683.984 1669.55 684.551L1665.79 695.638C1665.6 696.214 1665.12 696.648 1664.53 696.787L1652.39 699.629C1651.75 699.779 1651.09 699.562 1650.66 699.066L1642.12 689.179C1641.71 688.707 1641.59 688.054 1641.79 687.463L1645.72 675.862C1645.93 675.257 1646.45 674.811 1647.07 674.696L1659.71 672.382Z" fill="url(#paint18_linear_6373_16335)"/>
<path d="M1659.77 672.744C1660.28 672.651 1660.8 672.844 1661.11 673.246L1668.98 683.118C1669.27 683.489 1669.36 683.984 1669.21 684.433L1665.44 695.52C1665.29 695.975 1664.91 696.319 1664.44 696.429L1652.31 699.271C1651.8 699.39 1651.28 699.218 1650.94 698.826L1642.4 688.938C1642.08 688.565 1641.98 688.048 1642.14 687.581L1646.07 675.98C1646.23 675.501 1646.64 675.148 1647.14 675.057L1659.77 672.744Z" stroke="#74DFFF" stroke-opacity="0.7" stroke-width="0.735685"/>
<g clip-path="url(#clip3_6373_16335)">
<path d="M1657.47 680.204C1656.99 679.388 1656.6 678.576 1656.52 678.408C1656.51 678.395 1656.5 678.392 1656.48 678.401C1656.35 678.531 1655.7 679.156 1654.97 679.755C1648.62 685.354 1653.82 690.838 1653.82 690.838L1653.86 690.881C1653.79 691.569 1653.72 692.568 1653.72 692.568L1653.94 692.608L1654.17 692.648C1654.17 692.648 1654.45 691.695 1654.62 691.017L1654.68 690.988C1654.69 690.989 1661.47 687.665 1657.47 680.204ZM1654.27 690.816C1654.27 690.816 1654.04 690.541 1653.99 690.412L1653.99 690.401L1655.59 683.349C1655.6 683.327 1655.63 683.333 1655.63 683.355L1654.67 690.524L1654.67 690.535C1654.58 690.638 1654.27 690.816 1654.27 690.816Z" fill="#74DFFF"/>
</g>
<path d="M1518.96 122.704C1519.79 122.552 1520.64 122.869 1521.16 123.53L1531.4 136.382C1531.88 136.992 1532.03 137.807 1531.78 138.545L1526.88 152.978C1526.62 153.727 1526 154.292 1525.23 154.473L1509.44 158.173C1508.61 158.368 1507.74 158.085 1507.18 157.44L1496.07 144.569C1495.54 143.954 1495.37 143.105 1495.63 142.336L1500.75 127.234C1501.02 126.447 1501.69 125.866 1502.51 125.716L1518.96 122.704Z" fill="url(#paint19_linear_6373_16335)"/>
<path d="M1519.05 123.175C1519.7 123.054 1520.37 123.306 1520.79 123.829L1531.02 136.68C1531.41 137.163 1531.52 137.807 1531.32 138.391L1526.43 152.824C1526.22 153.417 1525.73 153.864 1525.12 154.007L1509.33 157.707C1508.67 157.861 1507.98 157.637 1507.54 157.127L1496.43 144.256C1496.01 143.77 1495.88 143.098 1496.08 142.489L1501.21 127.388C1501.42 126.765 1501.95 126.305 1502.6 126.187L1519.05 123.175Z" stroke="#74DFFF" stroke-opacity="0.7" stroke-width="0.957671"/>
<path d="M1510.13 139.535C1510.12 139.764 1510.14 139.951 1510.18 140.089C1510.22 140.227 1510.28 140.378 1510.36 140.542C1510.39 140.592 1510.4 140.642 1510.4 140.686C1510.4 140.748 1510.36 140.808 1510.28 140.868L1509.88 141.115C1509.82 141.15 1509.76 141.166 1509.71 141.165C1509.65 141.163 1509.59 141.13 1509.53 141.072C1509.45 140.976 1509.38 140.874 1509.32 140.773C1509.26 140.665 1509.2 140.546 1509.14 140.401C1508.64 140.954 1508.02 141.218 1507.29 141.193C1506.77 141.176 1506.36 141.013 1506.06 140.705C1505.77 140.397 1505.63 139.995 1505.65 139.5C1505.66 138.973 1505.87 138.552 1506.25 138.243C1506.64 137.933 1507.15 137.789 1507.79 137.811C1508 137.818 1508.22 137.844 1508.44 137.883C1508.67 137.922 1508.91 137.98 1509.15 138.044L1509.17 137.592C1509.18 137.121 1509.1 136.789 1508.91 136.59C1508.72 136.391 1508.39 136.287 1507.91 136.271C1507.69 136.263 1507.47 136.28 1507.24 136.328C1507.01 136.376 1506.78 136.437 1506.56 136.516C1506.46 136.556 1506.39 136.578 1506.34 136.589C1506.3 136.6 1506.27 136.605 1506.24 136.604C1506.16 136.602 1506.11 136.538 1506.12 136.408L1506.13 136.104C1506.13 136.005 1506.15 135.931 1506.18 135.889C1506.21 135.847 1506.27 135.805 1506.36 135.765C1506.58 135.661 1506.84 135.577 1507.15 135.513C1507.45 135.443 1507.78 135.416 1508.12 135.428C1508.86 135.453 1509.39 135.639 1509.72 135.985C1510.05 136.332 1510.21 136.846 1510.19 137.527L1510.12 139.535L1510.13 139.535ZM1507.58 140.391C1507.79 140.398 1508 140.368 1508.22 140.301C1508.45 140.234 1508.65 140.105 1508.83 139.925C1508.93 139.81 1509.01 139.683 1509.05 139.535C1509.09 139.388 1509.12 139.209 1509.13 138.999L1509.14 138.738C1508.96 138.689 1508.77 138.645 1508.57 138.613C1508.38 138.582 1508.18 138.563 1507.99 138.556C1507.58 138.542 1507.27 138.612 1507.06 138.773C1506.85 138.933 1506.74 139.165 1506.73 139.475C1506.72 139.766 1506.79 139.985 1506.94 140.139C1507.08 140.299 1507.3 140.381 1507.58 140.391ZM1512.53 141.23C1512.42 141.226 1512.35 141.205 1512.3 141.16C1512.25 141.121 1512.21 141.033 1512.18 140.914L1510.89 136.075C1510.85 135.95 1510.84 135.869 1510.84 135.825C1510.84 135.726 1510.9 135.672 1510.99 135.675L1511.6 135.696C1511.72 135.7 1511.8 135.721 1511.84 135.766C1511.89 135.805 1511.92 135.893 1511.96 136.012L1512.86 140.15L1513.96 136.081C1514 135.958 1514.04 135.879 1514.09 135.843C1514.14 135.808 1514.23 135.786 1514.34 135.79L1514.84 135.807C1514.95 135.811 1515.03 135.832 1515.08 135.877C1515.13 135.916 1515.17 136.004 1515.19 136.123L1516.03 140.308L1517.24 136.193C1517.28 136.07 1517.33 135.991 1517.37 135.956C1517.42 135.92 1517.51 135.898 1517.62 135.902L1518.19 135.922C1518.29 135.925 1518.35 135.977 1518.34 136.082C1518.34 136.113 1518.34 136.144 1518.33 136.181C1518.32 136.218 1518.31 136.267 1518.28 136.334L1516.62 141.072C1516.58 141.195 1516.53 141.274 1516.48 141.31C1516.43 141.345 1516.35 141.367 1516.25 141.363L1515.71 141.345C1515.6 141.341 1515.52 141.32 1515.47 141.275C1515.42 141.23 1515.38 141.148 1515.36 141.023L1514.53 136.994L1513.44 140.951C1513.41 141.074 1513.37 141.153 1513.32 141.195C1513.27 141.237 1513.18 141.252 1513.07 141.249L1512.53 141.23ZM1520.49 141.67C1520.17 141.659 1519.85 141.611 1519.54 141.526C1519.23 141.441 1518.99 141.352 1518.84 141.254C1518.74 141.194 1518.67 141.13 1518.65 141.074C1518.63 141.017 1518.62 140.955 1518.62 140.899L1518.63 140.583C1518.63 140.453 1518.69 140.392 1518.78 140.396C1518.82 140.397 1518.85 140.404 1518.89 140.418C1518.93 140.432 1518.98 140.458 1519.04 140.485C1519.25 140.585 1519.48 140.668 1519.72 140.725C1519.96 140.783 1520.2 140.817 1520.45 140.825C1520.84 140.838 1521.15 140.781 1521.36 140.652C1521.58 140.522 1521.7 140.328 1521.71 140.074C1521.71 139.9 1521.66 139.756 1521.55 139.634C1521.45 139.513 1521.24 139.4 1520.94 139.291L1520.05 138.981C1519.6 138.823 1519.27 138.601 1519.08 138.315C1518.88 138.036 1518.79 137.729 1518.8 137.406C1518.81 137.146 1518.87 136.919 1518.99 136.724C1519.11 136.53 1519.26 136.362 1519.46 136.232C1519.65 136.095 1519.86 135.997 1520.11 135.931C1520.36 135.866 1520.62 135.844 1520.89 135.853C1521.03 135.858 1521.17 135.869 1521.31 135.892C1521.45 135.915 1521.58 135.945 1521.71 135.974C1521.83 136.009 1521.95 136.044 1522.06 136.085C1522.17 136.126 1522.25 136.166 1522.32 136.205C1522.4 136.258 1522.46 136.31 1522.5 136.367C1522.53 136.418 1522.55 136.486 1522.54 136.573L1522.53 136.864C1522.53 136.994 1522.48 137.061 1522.39 137.058C1522.34 137.056 1522.26 137.028 1522.15 136.975C1521.81 136.802 1521.41 136.708 1520.97 136.693C1520.62 136.681 1520.34 136.727 1520.14 136.838C1519.95 136.949 1519.84 137.126 1519.83 137.38C1519.83 137.553 1519.88 137.704 1520 137.826C1520.12 137.948 1520.35 138.073 1520.67 138.19L1521.54 138.499C1521.98 138.657 1522.3 138.866 1522.48 139.127C1522.67 139.387 1522.75 139.682 1522.74 140.004C1522.73 140.27 1522.66 140.51 1522.55 140.717C1522.43 140.924 1522.28 141.105 1522.08 141.247C1521.88 141.395 1521.65 141.499 1521.38 141.57C1521.1 141.647 1520.81 141.681 1520.49 141.67Z" fill="#74DFFF"/>
<path d="M1521.56 144.721C1519.47 146.157 1516.48 146.855 1513.93 146.768C1510.36 146.645 1507.19 145.216 1504.84 142.939C1504.65 142.759 1504.84 142.53 1505.06 142.674C1507.64 144.288 1510.84 145.322 1514.2 145.437C1516.46 145.514 1518.96 145.128 1521.28 144.24C1521.62 144.097 1521.9 144.485 1521.56 144.721ZM1522.44 143.783C1522.19 143.44 1520.72 143.563 1520.06 143.621C1519.86 143.639 1519.83 143.465 1520.02 143.341C1521.21 142.563 1523.12 142.864 1523.33 143.144C1523.54 143.43 1523.19 145.335 1522.07 146.215C1521.9 146.352 1521.74 146.272 1521.82 146.088C1522.09 145.484 1522.69 144.121 1522.44 143.783Z" fill="#74DFFF"/>
<path d="M1789.71 932.382C1790.35 932.265 1791 932.509 1791.4 933.017L1799.26 942.889C1799.64 943.358 1799.75 943.984 1799.55 944.551L1795.79 955.638C1795.6 956.214 1795.12 956.648 1794.53 956.787L1782.39 959.629C1781.75 959.779 1781.09 959.562 1780.66 959.066L1772.12 949.179C1771.71 948.707 1771.59 948.054 1771.79 947.463L1775.72 935.862C1775.93 935.257 1776.45 934.811 1777.07 934.696L1789.71 932.382Z" fill="#3B919D"/>
<path d="M1789.77 932.744C1790.28 932.651 1790.8 932.844 1791.11 933.246L1798.98 943.118C1799.27 943.489 1799.36 943.984 1799.21 944.433L1795.44 955.52C1795.29 955.975 1794.91 956.319 1794.44 956.429L1782.31 959.271C1781.8 959.39 1781.28 959.218 1780.94 958.826L1772.4 948.938C1772.08 948.565 1771.98 948.048 1772.14 947.581L1776.07 935.98C1776.23 935.501 1776.64 935.148 1777.14 935.057L1789.77 932.744Z" stroke="#74DFFF" stroke-opacity="0.7" stroke-width="0.735685"/>
<path d="M1783.21 939.593L1786.99 939.536L1783.24 951.227C1783.2 951.348 1783.13 951.453 1783.03 951.528C1782.92 951.603 1782.8 951.644 1782.68 951.646L1779.73 951.69C1779.64 951.692 1779.54 951.671 1779.46 951.628C1779.37 951.586 1779.3 951.524 1779.24 951.447C1779.18 951.37 1779.14 951.281 1779.13 951.187C1779.11 951.092 1779.12 950.996 1779.15 950.905L1782.64 940.012C1782.68 939.892 1782.76 939.787 1782.86 939.712C1782.96 939.636 1783.08 939.595 1783.21 939.593Z" fill="url(#paint20_linear_6373_16335)"/>
<path d="M1788.82 947.312L1782.82 947.403C1782.77 947.403 1782.71 947.421 1782.67 947.453C1782.62 947.485 1782.59 947.53 1782.57 947.582C1782.55 947.634 1782.55 947.691 1782.56 947.745C1782.57 947.8 1782.6 947.849 1782.64 947.886L1786.55 951.425C1786.66 951.528 1786.81 951.584 1786.97 951.581L1790.36 951.53L1788.82 947.312Z" fill="url(#paint21_linear_6373_16335)"/>
<path d="M1783.21 939.594C1783.08 939.595 1782.96 939.637 1782.86 939.714C1782.75 939.791 1782.68 939.898 1782.64 940.02L1779.15 950.895C1779.12 950.986 1779.11 951.084 1779.13 951.179C1779.14 951.275 1779.18 951.366 1779.24 951.444C1779.29 951.522 1779.37 951.585 1779.45 951.628C1779.54 951.671 1779.64 951.692 1779.73 951.691L1782.75 951.645C1782.86 951.624 1782.97 951.572 1783.05 951.497C1783.14 951.422 1783.21 951.325 1783.24 951.217L1783.94 949.059L1786.58 951.447C1786.69 951.535 1786.82 951.583 1786.96 951.582L1790.35 951.531L1788.8 947.313L1784.47 947.379L1787 939.537L1783.21 939.594Z" fill="#74DFFF"/>
<path d="M1788.05 939.93C1788 939.812 1787.92 939.709 1787.82 939.637C1787.72 939.565 1787.59 939.527 1787.47 939.529L1783.25 939.593C1783.38 939.591 1783.5 939.629 1783.61 939.7C1783.71 939.772 1783.79 939.875 1783.83 939.994L1787.65 950.777C1787.68 950.867 1787.69 950.963 1787.68 951.058C1787.67 951.153 1787.63 951.243 1787.58 951.322C1787.52 951.4 1787.45 951.465 1787.37 951.509C1787.28 951.554 1787.19 951.579 1787.09 951.58L1791.31 951.517C1791.4 951.515 1791.5 951.491 1791.58 951.446C1791.67 951.401 1791.74 951.337 1791.79 951.258C1791.85 951.18 1791.88 951.089 1791.9 950.995C1791.91 950.9 1791.9 950.803 1791.87 950.713L1788.05 939.93Z" fill="url(#paint22_linear_6373_16335)"/>
<path d="M1525.71 1024.38C1526.35 1024.26 1527 1024.51 1527.4 1025.02L1535.26 1034.89C1535.64 1035.36 1535.75 1035.98 1535.55 1036.55L1531.79 1047.64C1531.6 1048.21 1531.12 1048.65 1530.53 1048.79L1518.39 1051.63C1517.75 1051.78 1517.09 1051.56 1516.66 1051.07L1508.12 1041.18C1507.71 1040.71 1507.59 1040.05 1507.79 1039.46L1511.72 1027.86C1511.93 1027.26 1512.45 1026.81 1513.07 1026.7L1525.71 1024.38Z" fill="#3C6C7A"/>
<path d="M1525.77 1024.74C1526.28 1024.65 1526.8 1024.84 1527.11 1025.25L1534.98 1035.12C1535.27 1035.49 1535.36 1035.98 1535.21 1036.43L1531.44 1047.52C1531.29 1047.98 1530.91 1048.32 1530.44 1048.43L1518.31 1051.27C1517.8 1051.39 1517.28 1051.22 1516.94 1050.83L1508.4 1040.94C1508.08 1040.56 1507.98 1040.05 1508.14 1039.58L1512.07 1027.98C1512.23 1027.5 1512.64 1027.15 1513.14 1027.06L1525.77 1024.74Z" stroke="#74DFFF" stroke-opacity="0.7" stroke-width="0.735685"/>
<path fill-rule="evenodd" clip-rule="evenodd" d="M1522.03 1031.78C1518.8 1031.8 1516.2 1034.44 1516.22 1037.66C1516.24 1040.24 1517.93 1042.42 1520.25 1043.18C1520.54 1043.23 1520.65 1043.05 1520.65 1042.89C1520.65 1042.75 1520.64 1042.39 1520.64 1041.9C1519.01 1042.26 1518.66 1041.13 1518.66 1041.13C1518.39 1040.46 1518.01 1040.28 1518.01 1040.28C1517.47 1039.92 1518.04 1039.93 1518.04 1039.93C1518.63 1039.97 1518.95 1040.52 1518.95 1040.52C1519.47 1041.41 1520.32 1041.15 1520.65 1041C1520.7 1040.62 1520.85 1040.36 1521.01 1040.21C1519.71 1040.07 1518.35 1039.58 1518.33 1037.34C1518.33 1036.7 1518.55 1036.18 1518.93 1035.77C1518.86 1035.62 1518.66 1035.03 1518.97 1034.23C1518.97 1034.23 1519.46 1034.06 1520.58 1034.81C1521.05 1034.68 1521.55 1034.61 1522.05 1034.61C1522.54 1034.61 1523.04 1034.67 1523.51 1034.8C1524.62 1034.03 1525.11 1034.19 1525.11 1034.19C1525.44 1034.99 1525.24 1035.59 1525.18 1035.73C1525.56 1036.14 1525.78 1036.66 1525.79 1037.3C1525.8 1039.54 1524.44 1040.04 1523.14 1040.2C1523.35 1040.37 1523.54 1040.73 1523.54 1041.28C1523.55 1042.06 1523.54 1042.69 1523.55 1042.88C1523.55 1043.04 1523.65 1043.22 1523.95 1043.16C1526.26 1042.37 1527.92 1040.17 1527.91 1037.59C1527.89 1034.36 1525.26 1031.77 1522.03 1031.79L1522.03 1031.78Z" fill="#74DFFF"/>
<path d="M999.709 876.382C1000.35 876.265 1001 876.509 1001.4 877.017L1009.26 886.889C1009.64 887.358 1009.75 887.984 1009.55 888.551L1005.79 899.638C1005.6 900.214 1005.12 900.648 1004.53 900.787L992.392 903.629C991.754 903.779 991.086 903.562 990.658 903.066L982.122 893.179C981.714 892.707 981.587 892.054 981.788 891.463L985.723 879.862C985.929 879.257 986.445 878.811 987.073 878.696L999.709 876.382Z" fill="url(#paint23_linear_6373_16335)"/>
<path d="M999.775 876.744C1000.28 876.651 1000.8 876.844 1001.11 877.246L1008.98 887.118C1009.27 887.489 1009.36 887.984 1009.21 888.433L1005.44 899.52C1005.29 899.975 1004.91 900.319 1004.44 900.429L992.308 903.271C991.804 903.39 991.275 903.218 990.937 902.826L982.4 892.938C982.078 892.565 981.977 892.048 982.136 891.581L986.072 879.98C986.234 879.501 986.643 879.148 987.14 879.057L999.775 876.744Z" stroke="#74DFFF" stroke-opacity="0.7" stroke-width="0.735685"/>
<path d="M998.006 886.447L998.471 886.449L999.714 885.175L999.767 884.642C998.752 883.77 997.424 883.249 995.98 883.27C993.365 883.308 991.183 885.11 990.565 887.517C990.701 887.419 990.997 887.486 990.997 887.486L993.513 887.037C993.513 887.037 993.64 886.821 993.705 886.833C994.238 886.236 994.98 885.864 995.779 885.792C996.578 885.721 997.375 885.955 998.006 886.447Z" fill="#74DFFF"/>
<path d="M1001.52 887.362C1001.22 886.305 1000.61 885.36 999.773 884.642L998.011 886.446C998.383 886.734 998.684 887.101 998.894 887.52C999.103 887.939 999.216 888.399 999.223 888.868L999.227 889.181C1000.1 889.169 1000.81 889.862 1000.83 890.725C1000.84 891.588 1000.14 892.303 999.273 892.315L996.121 892.361L995.81 892.681L995.838 894.562L996.158 894.87L999.31 894.824C1000.39 894.805 1001.43 894.359 1002.18 893.584C1002.94 892.81 1003.36 891.768 1003.34 890.689C1003.32 889.301 1002.6 888.082 1001.52 887.362L1001.52 887.362Z" fill="#74DFFF"/>
<path d="M992.998 894.918L996.149 894.872L996.112 892.364L992.962 892.41C992.738 892.413 992.516 892.368 992.311 892.279L991.858 892.424L990.615 893.698L990.51 894.123C991.228 894.655 992.103 894.935 992.999 894.919L992.998 894.918Z" fill="#74DFFF"/>
<path d="M992.879 886.766C991.793 886.783 990.758 887.229 990.001 888.004C989.244 888.779 988.826 889.822 988.84 890.902C988.85 891.531 989.005 892.15 989.295 892.709C989.585 893.268 990.002 893.753 990.512 894.125L992.313 892.281C992.034 892.162 991.796 891.964 991.628 891.713C991.459 891.462 991.367 891.168 991.363 890.866C991.35 890.001 992.048 889.289 992.915 889.276C993.219 889.272 993.517 889.355 993.774 889.516C994.031 889.676 994.236 889.906 994.365 890.179L996.166 888.335C995.402 887.365 994.21 886.748 992.878 886.767L992.879 886.766Z" fill="#74DFFF"/>
<path d="M879.709 1026.38C880.347 1026.26 880.998 1026.51 881.403 1027.02L889.264 1036.89C889.637 1037.36 889.746 1037.98 889.554 1038.55L885.792 1049.64C885.597 1050.21 885.119 1050.65 884.527 1050.79L872.392 1053.63C871.754 1053.78 871.086 1053.56 870.658 1053.07L862.122 1043.18C861.714 1042.71 861.587 1042.05 861.788 1041.46L865.723 1029.86C865.929 1029.26 866.445 1028.81 867.073 1028.7L879.709 1026.38Z" fill="url(#paint24_linear_6373_16335)"/>
<path d="M879.775 1026.74C880.28 1026.65 880.795 1026.84 881.115 1027.25L888.976 1037.12C889.271 1037.49 889.358 1037.98 889.205 1038.43L885.444 1049.52C885.289 1049.98 884.911 1050.32 884.443 1050.43L872.308 1053.27C871.804 1053.39 871.275 1053.22 870.937 1052.83L862.4 1042.94C862.078 1042.56 861.977 1042.05 862.136 1041.58L866.072 1029.98C866.234 1029.5 866.643 1029.15 867.14 1029.06L879.775 1026.74Z" stroke="#74DFFF" stroke-opacity="0.7" stroke-width="0.735685"/>
<path d="M879.784 1038.48L883.207 1040.72C883.252 1040.75 883.247 1040.8 883.198 1040.83L879.453 1042.47M872.417 1037.87L868.672 1039.52C868.623 1039.54 868.618 1039.59 868.663 1039.62L872.086 1041.86M877.488 1036.92L874.407 1043.38" stroke="#74DFFF" stroke-width="1.57279" stroke-linecap="round"/>
<g filter="url(#filter13_f_6373_16335)">
<circle cx="791.5" cy="576.5" r="49.5" fill="#18283B"/>
</g>
<rect x="777.863" y="549" width="42.8353" height="49.3752" rx="21.4176" transform="rotate(18.7404 777.863 549)" fill="#172839"/>
<path d="M796.981 556.401C798.06 556.204 799.16 556.616 799.843 557.474L813.122 574.15C813.752 574.942 813.937 576 813.611 576.958L807.258 595.686C806.928 596.658 806.12 597.391 805.12 597.626L784.623 602.428C783.545 602.68 782.417 602.313 781.694 601.476L767.275 584.774C766.586 583.977 766.371 582.874 766.71 581.876L773.358 562.28C773.705 561.258 774.577 560.504 775.638 560.31L796.981 556.401Z" fill="url(#paint25_linear_6373_16335)"/>
<path d="M797.093 557.013C797.946 556.856 798.816 557.182 799.357 557.861L812.636 574.537C813.134 575.163 813.28 576 813.023 576.758L806.669 595.486C806.408 596.255 805.769 596.835 804.978 597.021L784.481 601.823C783.629 602.022 782.736 601.732 782.164 601.07L767.745 584.368C767.2 583.737 767.03 582.865 767.298 582.076L773.946 562.479C774.221 561.671 774.911 561.075 775.75 560.921L797.093 557.013Z" stroke="#74DFFF" stroke-opacity="0.5" stroke-width="1.2427"/>
<path fill-rule="evenodd" clip-rule="evenodd" d="M793.066 568.913C795.757 569.034 797.549 571.425 797.421 574.27C797.483 575.311 797.343 576.52 796.851 577.529C796.189 579.176 794.782 579.843 792.661 579.748L792.54 579.742L794.505 582.94L791.386 585.406L788.246 579.628L786.487 579.469L786.085 588.381L782.43 588.216L783.32 568.474L793.066 568.913ZM791.511 585.791L794.935 583.364L796.403 585.434L793.146 588.231L791.511 585.791ZM793.651 588.489L796.68 586.287C796.847 586.166 797.073 586.193 797.209 586.35L798.354 587.676C798.455 587.793 798.487 587.959 798.429 588.105C798.267 588.519 797.894 589.359 797.416 589.751C796.284 590.681 794.15 589.363 793.901 589.259C793.886 589.252 793.914 589.267 793.901 589.259C793.637 589.104 793.4 588.669 793.651 588.489ZM792.524 571.899L787.246 571.661L787.052 575.953L792.331 576.191C793.452 576.241 794.405 575.321 794.458 574.136C794.511 572.951 793.646 571.949 792.524 571.899Z" fill="#74DFFF" fill-opacity="0.9"/>
<path d="M1279.46 1606L1279.46 443.999" stroke="url(#paint26_linear_6373_16335)" stroke-linecap="round" stroke-dasharray="8 8"/>
</g>
<defs>
<filter id="filter0_f_6373_16335" x="579.336" y="495.741" width="1963.29" height="1278.66" filterUnits="userSpaceOnUse" color-interpolation-filters="sRGB">
<feFlood flood-opacity="0" result="BackgroundImageFix"/>
<feBlend mode="normal" in="SourceGraphic" in2="BackgroundImageFix" result="shape"/>
<feGaussianBlur stdDeviation="113.5" result="effect1_foregroundBlur_6373_16335"/>
</filter>
<filter id="filter1_f_6373_16335" x="94.3398" y="360.741" width="2410.13" height="1522.81" filterUnits="userSpaceOnUse" color-interpolation-filters="sRGB">
<feFlood flood-opacity="0" result="BackgroundImageFix"/>
<feBlend mode="normal" in="SourceGraphic" in2="BackgroundImageFix" result="shape"/>
<feGaussianBlur stdDeviation="113.5" result="effect1_foregroundBlur_6373_16335"/>
</filter>
<filter id="filter2_f_6373_16335" x="353" y="599" width="744" height="744" filterUnits="userSpaceOnUse" color-interpolation-filters="sRGB">
<feFlood flood-opacity="0" result="BackgroundImageFix"/>
<feBlend mode="normal" in="SourceGraphic" in2="BackgroundImageFix" result="shape"/>
<feGaussianBlur stdDeviation="2.5" result="effect1_foregroundBlur_6373_16335"/>
</filter>
<filter id="filter3_f_6373_16335" x="1346" y="128" width="418" height="418" filterUnits="userSpaceOnUse" color-interpolation-filters="sRGB">
<feFlood flood-opacity="0" result="BackgroundImageFix"/>
<feBlend mode="normal" in="SourceGraphic" in2="BackgroundImageFix" result="shape"/>
<feGaussianBlur stdDeviation="10" result="effect1_foregroundBlur_6373_16335"/>
</filter>
<filter id="filter4_f_6373_16335" x="648.781" y="457.777" width="290.289" height="290.291" filterUnits="userSpaceOnUse" color-interpolation-filters="sRGB">
<feFlood flood-opacity="0" result="BackgroundImageFix"/>
<feBlend mode="normal" in="SourceGraphic" in2="BackgroundImageFix" result="shape"/>
<feGaussianBlur stdDeviation="10" result="effect1_foregroundBlur_6373_16335"/>
</filter>
<filter id="filter5_f_6373_16335" x="639.906" y="448.905" width="296.309" height="296.31" filterUnits="userSpaceOnUse" color-interpolation-filters="sRGB">
<feFlood flood-opacity="0" result="BackgroundImageFix"/>
<feBlend mode="normal" in="SourceGraphic" in2="BackgroundImageFix" result="shape"/>
<feGaussianBlur stdDeviation="25" result="effect1_foregroundBlur_6373_16335"/>
</filter>
<filter id="filter6_f_6373_16335" x="675.816" y="465.813" width="235.668" height="235.668" filterUnits="userSpaceOnUse" color-interpolation-filters="sRGB">
<feFlood flood-opacity="0" result="BackgroundImageFix"/>
<feBlend mode="normal" in="SourceGraphic" in2="BackgroundImageFix" result="shape"/>
<feGaussianBlur stdDeviation="25" result="effect1_foregroundBlur_6373_16335"/>
</filter>
<filter id="filter7_f_6373_16335" x="901.078" y="159.078" width="59.6289" height="59.6309" filterUnits="userSpaceOnUse" color-interpolation-filters="sRGB">
<feFlood flood-opacity="0" result="BackgroundImageFix"/>
<feBlend mode="normal" in="SourceGraphic" in2="BackgroundImageFix" result="shape"/>
<feGaussianBlur stdDeviation="2.5" result="effect1_foregroundBlur_6373_16335"/>
</filter>
<filter id="filter8_f_6373_16335" x="903.078" y="166.078" width="59.6289" height="59.6309" filterUnits="userSpaceOnUse" color-interpolation-filters="sRGB">
<feFlood flood-opacity="0" result="BackgroundImageFix"/>
<feBlend mode="normal" in="SourceGraphic" in2="BackgroundImageFix" result="shape"/>
<feGaussianBlur stdDeviation="2.5" result="effect1_foregroundBlur_6373_16335"/>
</filter>
<filter id="filter9_f_6373_16335" x="1824.75" y="220.754" width="78.7969" height="78.7964" filterUnits="userSpaceOnUse" color-interpolation-filters="sRGB">
<feFlood flood-opacity="0" result="BackgroundImageFix"/>
<feBlend mode="normal" in="SourceGraphic" in2="BackgroundImageFix" result="shape"/>
<feGaussianBlur stdDeviation="5" result="effect1_foregroundBlur_6373_16335"/>
</filter>
<filter id="filter10_f_6373_16335" x="1608.88" y="637.88" width="577.031" height="577.029" filterUnits="userSpaceOnUse" color-interpolation-filters="sRGB">
<feFlood flood-opacity="0" result="BackgroundImageFix"/>
<feBlend mode="normal" in="SourceGraphic" in2="BackgroundImageFix" result="shape"/>
<feGaussianBlur stdDeviation="5" result="effect1_foregroundBlur_6373_16335"/>
</filter>
<filter id="filter11_f_6373_16335" x="1791.09" y="462.094" width="83.5898" height="83.5898" filterUnits="userSpaceOnUse" color-interpolation-filters="sRGB">
<feFlood flood-opacity="0" result="BackgroundImageFix"/>
<feBlend mode="normal" in="SourceGraphic" in2="BackgroundImageFix" result="shape"/>
<feGaussianBlur stdDeviation="3" result="effect1_foregroundBlur_6373_16335"/>
</filter>
<filter id="filter12_f_6373_16335" x="1789.09" y="462.094" width="83.5898" height="83.5898" filterUnits="userSpaceOnUse" color-interpolation-filters="sRGB">
<feFlood flood-opacity="0" result="BackgroundImageFix"/>
<feBlend mode="normal" in="SourceGraphic" in2="BackgroundImageFix" result="shape"/>
<feGaussianBlur stdDeviation="3" result="effect1_foregroundBlur_6373_16335"/>
</filter>
<filter id="filter13_f_6373_16335" x="692" y="477" width="199" height="199" filterUnits="userSpaceOnUse" color-interpolation-filters="sRGB">
<feFlood flood-opacity="0" result="BackgroundImageFix"/>
<feBlend mode="normal" in="SourceGraphic" in2="BackgroundImageFix" result="shape"/>
<feGaussianBlur stdDeviation="25" result="effect1_foregroundBlur_6373_16335"/>
</filter>
<linearGradient id="paint0_linear_6373_16335" x1="450.5" y1="0" x2="450.5" y2="847" gradientUnits="userSpaceOnUse">
<stop stop-color="#4FDAB8"/>
<stop offset="1" stop-color="#4FDAB8" stop-opacity="0"/>
</linearGradient>
<linearGradient id="paint1_linear_6373_16335" x1="581.733" y1="0" x2="581.733" y2="1093.73" gradientUnits="userSpaceOnUse">
<stop stop-color="#52C7EA"/>
<stop offset="1" stop-color="#52C7EA" stop-opacity="0"/>
</linearGradient>
<linearGradient id="paint2_linear_6373_16335" x1="881.552" y1="1268.06" x2="1092" y2="778.517" gradientUnits="userSpaceOnUse">
<stop stop-color="#3A74C6" stop-opacity="0.2"/>
<stop offset="1" stop-color="#60D1F2" stop-opacity="0"/>
</linearGradient>
<linearGradient id="paint3_linear_6373_16335" x1="1916.5" y1="876.5" x2="1634" y2="449" gradientUnits="userSpaceOnUse">
<stop stop-color="#0E2A4B" stop-opacity="0.15"/>
<stop offset="1" stop-color="#60D1F2" stop-opacity="0"/>
</linearGradient>
<linearGradient id="paint4_linear_6373_16335" x1="1744" y1="406.5" x2="1389.5" y2="231.5" gradientUnits="userSpaceOnUse">
<stop stop-color="#3A74C6" stop-opacity="0.1"/>
<stop offset="1" stop-color="#60D1F2" stop-opacity="0"/>
</linearGradient>
<linearGradient id="paint5_linear_6373_16335" x1="847.299" y1="704.203" x2="919.049" y2="537.298" gradientUnits="userSpaceOnUse">
<stop stop-color="#3A74C6" stop-opacity="0.1"/>
<stop offset="1" stop-color="#60D1F2" stop-opacity="0"/>
</linearGradient>
<linearGradient id="paint6_linear_6373_16335" x1="943.476" y1="215.976" x2="957.704" y2="182.88" gradientUnits="userSpaceOnUse">
<stop stop-color="#3A74C6" stop-opacity="0.2"/>
<stop offset="1" stop-color="#60D1F2" stop-opacity="0"/>
</linearGradient>
<linearGradient id="paint7_linear_6373_16335" x1="1876.69" y1="283.944" x2="1893.55" y2="244.736" gradientUnits="userSpaceOnUse">
<stop stop-color="#1F2B3C" stop-opacity="0.6"/>
<stop offset="1" stop-color="#0B1416" stop-opacity="0.4"/>
</linearGradient>
<linearGradient id="paint8_linear_6373_16335" x1="1790.3" y1="1156.69" x2="1996.73" y2="815.23" gradientUnits="userSpaceOnUse">
<stop stop-color="#1E413D" stop-opacity="0.1"/>
<stop offset="0.959675" stop-color="#1C93B6" stop-opacity="0.01"/>
</linearGradient>
<linearGradient id="paint9_linear_6373_16335" x1="1846.16" y1="532.858" x2="1866.68" y2="485.118" gradientUnits="userSpaceOnUse">
<stop stop-color="#3AC69C" stop-opacity="0.1"/>
<stop offset="1" stop-color="#60D1F2" stop-opacity="0"/>
</linearGradient>
<radialGradient id="paint10_radial_6373_16335" cx="0" cy="0" r="1" gradientUnits="userSpaceOnUse" gradientTransform="translate(1007.49 116.182) rotate(89.1122) scale(724.531)">
<stop stop-color="#4FDAB8" stop-opacity="0.15"/>
<stop offset="1" stop-color="#52C7EA" stop-opacity="0"/>
</radialGradient>
<radialGradient id="paint11_radial_6373_16335" cx="0" cy="0" r="1" gradientUnits="userSpaceOnUse" gradientTransform="translate(243.295 539.711) rotate(-87.9037) scale(551.549)">
<stop stop-color="#52C7EA" stop-opacity="0.5"/>
<stop offset="1" stop-color="#52C7EA" stop-opacity="0"/>
</radialGradient>
<radialGradient id="paint12_radial_6373_16335" cx="0" cy="0" r="1" gradientUnits="userSpaceOnUse" gradientTransform="translate(1987.3 278.589) rotate(157.26) scale(696.976 696.976)">
<stop stop-color="#4FDAB8" stop-opacity="0.2"/>
<stop offset="1" stop-color="#52C7EA" stop-opacity="0"/>
</radialGradient>
<radialGradient id="paint13_radial_6373_16335" cx="0" cy="0" r="1" gradientUnits="userSpaceOnUse" gradientTransform="translate(1281 16) rotate(89.0891) scale(597.576)">
<stop stop-color="#4FDAB8" stop-opacity="0.01"/>
<stop offset="0.718874" stop-color="#51CCDC" stop-opacity="0.1"/>
<stop offset="1" stop-color="#52C7EA" stop-opacity="0"/>
</radialGradient>
<radialGradient id="paint14_radial_6373_16335" cx="0" cy="0" r="1" gradientUnits="userSpaceOnUse" gradientTransform="translate(1261.1 1103.13) rotate(-84.991) scale(479.961)">
<stop stop-color="#4FDAB8" stop-opacity="0.6"/>
<stop offset="0.768138" stop-color="#51CBDE" stop-opacity="0.2"/>
<stop offset="1" stop-color="#52C7EA" stop-opacity="0"/>
</radialGradient>
<linearGradient id="paint15_linear_6373_16335" x1="790.306" y1="100.245" x2="756.48" y2="149.436" gradientUnits="userSpaceOnUse">
<stop stop-color="#162535"/>
<stop offset="1" stop-color="#162535"/>
</linearGradient>
<linearGradient id="paint16_linear_6373_16335" x1="780.306" y1="790.245" x2="746.48" y2="839.436" gradientUnits="userSpaceOnUse">
<stop stop-color="#1C3949"/>
<stop offset="1" stop-color="#265263"/>
</linearGradient>
<linearGradient id="paint17_linear_6373_16335" x1="1803.15" y1="559.881" x2="1787.28" y2="606.639" gradientUnits="userSpaceOnUse">
<stop stop-color="#162535"/>
<stop offset="1" stop-color="#1A2C3D"/>
</linearGradient>
<linearGradient id="paint18_linear_6373_16335" x1="1660.4" y1="672.074" x2="1651.01" y2="699.754" gradientUnits="userSpaceOnUse">
<stop stop-color="#1B3440"/>
<stop offset="1" stop-color="#245156"/>
</linearGradient>
<linearGradient id="paint19_linear_6373_16335" x1="1519.86" y1="122.303" x2="1507.63" y2="158.336" gradientUnits="userSpaceOnUse">
<stop stop-color="#0F1924"/>
<stop offset="1" stop-color="#111E2A"/>
</linearGradient>
<linearGradient id="paint20_linear_6373_16335" x1="1779.77" y1="939.645" x2="1789.43" y2="947.714" gradientUnits="userSpaceOnUse">
<stop stop-color="#4FDAB8"/>
<stop offset="1" stop-color="#52C7EA"/>
</linearGradient>
<linearGradient id="paint21_linear_6373_16335" x1="1783.34" y1="947.395" x2="1785.86" y2="953.112" gradientUnits="userSpaceOnUse">
<stop stop-color="#4FDAB8"/>
<stop offset="1" stop-color="#52C7EA"/>
</linearGradient>
<linearGradient id="paint22_linear_6373_16335" x1="1784.12" y1="939.58" x2="1793.84" y2="948.145" gradientUnits="userSpaceOnUse">
<stop stop-color="#4FDAB8"/>
<stop offset="1" stop-color="#52C7EA"/>
</linearGradient>
<linearGradient id="paint23_linear_6373_16335" x1="1000.4" y1="876.074" x2="991.007" y2="903.754" gradientUnits="userSpaceOnUse">
<stop stop-color="#3A859A"/>
<stop offset="1" stop-color="#3A859A"/>
</linearGradient>
<linearGradient id="paint24_linear_6373_16335" x1="880.398" y1="1026.07" x2="871.007" y2="1053.75" gradientUnits="userSpaceOnUse">
<stop stop-color="#316A82"/>
<stop offset="1" stop-color="#2D5F79"/>
</linearGradient>
<linearGradient id="paint25_linear_6373_16335" x1="798.145" y1="555.881" x2="782.282" y2="602.639" gradientUnits="userSpaceOnUse">
<stop stop-color="#162739"/>
<stop offset="1" stop-color="#172839"/>
</linearGradient>
<linearGradient id="paint26_linear_6373_16335" x1="1279.96" y1="444" x2="1279" y2="1710" gradientUnits="userSpaceOnUse">
<stop stop-color="white" stop-opacity="0"/>
<stop offset="0.161668" stop-color="white" stop-opacity="0.3"/>
<stop offset="0.280811" stop-color="white" stop-opacity="0.6"/>
<stop offset="0.482573" stop-color="white" stop-opacity="0.7"/>
<stop offset="0.694278" stop-color="white" stop-opacity="0.3"/>
<stop offset="1" stop-color="white" stop-opacity="0.2"/>
</linearGradient>
<clipPath id="clip0_6373_16335">
<rect width="2560" height="1700" fill="white"/>
</clipPath>
<clipPath id="clip1_6373_16335">
<rect width="24.1507" height="24.1507" fill="white" transform="translate(765.32 109.583) rotate(11.309)"/>
</clipPath>
<clipPath id="clip2_6373_16335">
<rect width="20" height="20" fill="white" transform="translate(766.973 113.227) rotate(12.8323)"/>
</clipPath>
<clipPath id="clip3_6373_16335">
<rect width="6.81788" height="14.488" fill="white" transform="translate(1653.15 677.792) rotate(10.1962)"/>
</clipPath>
</defs>
</svg>
