<svg width="240" height="240" viewBox="0 0 240 240" fill="none" xmlns="http://www.w3.org/2000/svg">
<path d="M120 240C186.274 240 240 186.274 240 120C240 53.7258 186.274 0 120 0C53.7258 0 0 53.7258 0 120C0 186.274 53.7258 240 120 240Z" fill="#F5F3FF"/>
<path d="M45.5078 73.6689L107.406 77.657C107.406 77.657 117.278 75.9483 125.823 84.4921C134.367 93.036 174.239 137.461 174.239 137.461C174.239 137.461 176.708 145.056 172.152 148.663C167.596 152.27 161.898 149.423 161.898 149.423C161.898 149.423 163.986 155.498 161.328 158.916C158.67 162.333 154.492 163.661 151.074 163.093C147.657 162.522 150.315 169.928 148.227 172.207C146.14 174.487 141.392 176.763 138.355 175.814C135.316 174.865 137.785 180.751 135.508 182.839C133.229 184.926 128.862 187.016 125.825 184.547C122.786 182.076 75.5079 127.776 75.5079 127.776L46.0784 127.966L45.5078 73.6689Z" fill="url(#paint0_linear_6293_33868)"/>
<path d="M200.438 73.0986L136.071 77.8437L130.566 79.7417L100.947 108.41L100.188 113.155L111.201 120.56L119.934 120.371L127.908 116.575L141.958 102.905L176.135 139.168C176.135 139.168 184.491 136.321 187.338 129.104C192.464 129.296 201.387 128.726 201.387 128.726L200.438 73.0986Z" fill="url(#paint1_linear_6293_33868)"/>
<path d="M115.286 122.91C107.369 122.91 102.301 117.527 100.301 115.403L99.7958 114.872C97.2508 112.324 98.9513 108.398 100.358 106.48C100.426 106.39 100.499 106.302 100.584 106.223C101.649 105.201 126.711 81.1114 128.994 79.0863C131.799 76.5924 134.183 75.5473 141.699 75.5473C148.882 75.5473 198.264 71.7965 198.761 71.7569C199.835 71.6892 200.801 72.4885 200.883 73.5815C200.967 74.6689 200.151 75.6208 199.061 75.7027C197.021 75.858 149.029 79.5043 141.696 79.5043C134.471 79.5043 133.338 80.5127 131.618 82.0407C129.477 83.9443 105.499 106.98 103.456 108.943C102.77 109.952 102.115 111.598 102.589 112.073L103.177 112.688C105.812 115.485 111.973 122.032 122.387 117.244C134.256 111.785 140.394 100.501 140.456 100.388C140.823 99.699 141.574 99.3007 142.34 99.3459L156.517 100.357C157.607 100.433 158.426 101.379 158.347 102.47C158.268 103.56 157.336 104.362 156.234 104.3L143.289 103.376C141.32 106.596 134.971 115.804 124.039 120.834C120.822 122.323 117.899 122.91 115.286 122.91Z" fill="white"/>
<path d="M129.338 187.019C128.973 187.019 128.606 186.996 128.239 186.954C126.146 186.711 124.296 185.736 123.16 184.284L75.7437 129.88H48.0372C46.944 129.88 46.0599 128.996 46.0599 127.903C46.0599 126.81 46.944 125.926 48.0372 125.926H76.6419C77.2125 125.926 77.7576 126.175 78.1333 126.604L126.211 181.765C126.759 182.463 127.666 182.903 128.699 183.025C129.62 183.129 131.456 183.084 133.38 181.542C135.877 179.545 134.583 176.639 133.592 175.083C133.072 174.269 133.216 173.201 133.93 172.552C134.642 171.905 135.718 171.868 136.478 172.461C139.328 174.698 143.39 174.467 145.927 171.93C148.463 169.394 148.692 165.333 146.455 162.486C145.836 161.698 145.904 160.573 146.613 159.865C147.322 159.158 148.446 159.096 149.231 159.706C152.081 161.94 156.143 161.712 158.68 159.175C161.216 156.639 161.445 152.578 159.208 149.728C158.589 148.94 158.657 147.816 159.366 147.107C160.075 146.395 161.199 146.336 161.984 146.948C164.834 149.188 168.899 148.957 171.433 146.42C174.221 143.633 174.221 139.097 171.433 136.309L140.554 105.249C139.786 104.475 139.789 103.224 140.563 102.455C141.334 101.684 142.588 101.69 143.359 102.464L174.232 133.53C178.556 137.854 178.556 144.898 174.229 149.231C171.619 151.838 167.984 152.874 164.538 152.292C165.128 155.735 164.083 159.373 161.476 161.983C158.869 164.593 155.219 165.64 151.785 165.045C152.375 168.488 151.33 172.125 148.723 174.735C146.037 177.416 142.257 178.444 138.729 177.74C139.032 180.421 138.06 182.867 135.848 184.635C133.905 186.188 131.628 187.019 129.338 187.019ZM124.996 87.1017C124.508 87.1017 124.019 86.9238 123.638 86.5623C120.016 83.1391 115.136 80.0153 104.029 80.2666C93.1687 80.47 48.2321 76.1373 46.3226 75.9509C45.2352 75.8464 44.4414 74.8776 44.5488 73.7902C44.6561 72.7028 45.6278 71.8922 46.7096 72.0165C47.1757 72.0617 93.2732 76.5977 103.939 76.3124C114.096 76.0921 120.562 78.2161 126.355 83.687C127.149 84.4383 127.183 85.6895 126.434 86.4804C126.044 86.8899 125.522 87.1017 124.996 87.1017Z" fill="white"/>
<path d="M117.083 167.837C117.058 167.837 117.032 167.845 117.007 167.845C117.027 167.588 117.083 167.34 117.083 167.077C117.083 161.626 112.663 157.206 107.211 157.206C106.268 157.206 105.375 157.381 104.511 157.627C104.757 156.762 104.932 155.87 104.932 154.926C104.932 149.475 100.511 145.055 95.0599 145.055C93.9526 145.055 92.9047 145.278 91.9104 145.617C92.4669 144.273 92.7832 142.804 92.7832 141.259C92.7832 134.966 87.682 129.868 81.3916 129.868C75.1012 129.868 70 134.969 70 141.259C70 147.549 75.1012 152.65 81.3916 152.65C82.9367 152.65 84.4055 152.336 85.75 151.777C85.4139 152.771 85.1879 153.819 85.1879 154.926C85.1879 160.378 89.6084 164.798 95.0599 164.798C96.0033 164.798 96.8959 164.623 97.7602 164.377C97.5144 165.241 97.3393 166.134 97.3393 167.077C97.3393 172.528 101.76 176.948 107.211 176.948C107.474 176.948 107.72 176.892 107.98 176.872C107.98 176.898 107.971 176.923 107.971 176.948C107.971 181.982 112.053 186.063 117.086 186.063C122.12 186.063 126.201 181.982 126.201 176.948C126.201 171.915 122.117 167.837 117.083 167.837Z" fill="url(#paint2_linear_6293_33868)"/>
<path d="M117.079 188.041C111.622 188.041 107.074 184.081 106.156 178.881C100.112 178.35 95.3549 173.258 95.3549 167.078C95.3549 166.977 95.3578 166.875 95.3606 166.773C88.7143 166.923 83.2035 161.562 83.2035 154.928C83.2035 154.786 83.2063 154.642 83.212 154.501C82.6075 154.586 81.9974 154.628 81.3845 154.628C74.0122 154.628 68.0156 148.632 68.0156 141.26C68.0156 133.888 74.0151 127.892 81.3845 127.892C88.7538 127.892 94.7533 133.888 94.7533 141.26C94.7533 141.876 94.7109 142.486 94.6262 143.088C101.354 142.822 106.905 148.253 106.905 154.928C106.905 155.029 106.902 155.131 106.899 155.233C113.243 155.137 118.469 159.884 119.008 166.028C124.205 166.943 128.168 171.496 128.168 176.95C128.171 183.064 123.194 188.041 117.079 188.041ZM109.952 174.744L109.921 177.226C109.944 180.887 113.144 184.087 117.079 184.087C121.014 184.087 124.214 180.887 124.214 176.952C124.214 173.063 121.087 169.891 117.215 169.818L117 169.826H114.859L115.076 167.282C115.099 162.729 111.557 159.187 107.204 159.187C106.554 159.187 105.868 159.297 105.049 159.531L101.623 160.517L102.603 157.088C102.837 156.263 102.947 155.577 102.947 154.93C102.947 150.578 99.4054 147.036 95.0527 147.036C94.2646 147.036 93.4427 147.186 92.536 147.491L88.8555 148.734L87.6127 152.411C87.3048 153.323 87.1551 154.145 87.1551 154.93C87.1551 159.286 90.6972 162.827 95.0499 162.827C95.6911 162.827 96.3774 162.717 97.2079 162.483L100.626 161.508L99.6483 164.926C99.4139 165.748 99.3037 166.431 99.3037 167.084C99.3037 171.436 102.846 174.978 107.198 174.978L109.952 174.744ZM81.3845 131.844C76.1928 131.844 71.9701 136.066 71.9701 141.257C71.9701 146.449 76.1928 150.671 81.3845 150.671C82.6216 150.671 83.8334 150.428 84.9858 149.951L88.5844 148.46L90.0786 144.858C90.5559 143.706 90.7989 142.494 90.7989 141.26C90.7989 136.066 86.5761 131.844 81.3845 131.844ZM175.116 141.526C174.226 141.526 173.416 140.918 173.195 140.015C172.938 138.955 173.585 137.891 174.644 137.628C174.983 137.543 183.005 135.453 185.646 127.531L186.098 126.178H199.676C200.769 126.178 201.653 127.062 201.653 128.155C201.653 129.248 200.769 130.132 199.676 130.132H188.892C185.143 139.046 175.994 141.37 175.588 141.466C175.427 141.506 175.269 141.526 175.116 141.526ZM162.965 152.157C162.47 152.157 161.976 151.973 161.595 151.603L147.924 138.441C147.136 137.684 147.113 136.433 147.87 135.648C148.633 134.863 149.878 134.837 150.666 135.594L164.337 148.756C165.125 149.513 165.148 150.764 164.391 151.55C164.001 151.953 163.484 152.157 162.965 152.157ZM149.737 164.94C149.243 164.94 148.748 164.757 148.367 164.387L134.696 151.225C133.908 150.468 133.885 149.217 134.642 148.431C135.402 147.646 136.651 147.621 137.439 148.378L151.11 161.54C151.898 162.296 151.92 163.548 151.163 164.333C150.774 164.737 150.257 164.94 149.737 164.94ZM137.091 177.596C136.535 177.596 135.978 177.362 135.589 176.907L125.558 165.208C124.847 164.378 124.943 163.132 125.773 162.421C126.601 161.709 127.852 161.805 128.561 162.633L138.591 174.331C139.303 175.162 139.207 176.407 138.376 177.119C138.006 177.438 137.546 177.596 137.091 177.596Z" fill="white"/>
<path d="M188.024 130.185C188.019 130.185 188.013 130.185 188.004 130.185C186.911 130.174 186.036 129.281 186.047 128.188L186.216 110.603C186.228 109.518 187.109 108.646 188.194 108.646C188.199 108.646 188.205 108.646 188.213 108.646C189.307 108.657 190.182 109.549 190.171 110.642L190.001 128.228C189.99 129.309 189.106 130.185 188.024 130.185Z" fill="white"/>
<path d="M203.482 25.73L209.692 28.3625C211.036 28.9325 211.036 30.8378 209.692 31.4077L203.482 34.0403C202.692 34.375 202.063 35.0041 201.728 35.7946L199.095 42.0041C198.525 43.3486 196.62 43.3486 196.05 42.0041L193.417 35.7946C193.083 35.0048 192.454 34.3757 191.663 34.0403L185.454 31.4077C184.109 30.8378 184.109 28.9325 185.454 28.3625L191.663 25.73C192.453 25.3952 193.082 24.7661 193.417 23.9756L196.05 17.7662C196.62 16.4217 198.525 16.4217 199.095 17.7662L201.728 23.9756C202.063 24.7661 202.692 25.3952 203.482 25.73Z" fill="#FFC47C"/>
<path opacity="0.15" d="M209.694 28.3621L208.905 28.0273C208.714 28.0726 208.523 28.1248 208.336 28.2041L202.127 30.8367C200.497 31.5277 199.219 32.806 198.527 34.4358L195.895 40.6453C195.815 40.8318 195.763 41.0231 195.719 41.2138L196.053 42.003C196.623 43.3474 198.529 43.3474 199.099 42.003L201.731 35.7935C202.066 35.0037 202.695 34.3746 203.486 34.0392L209.695 31.4066C211.039 30.8374 211.039 28.932 209.694 28.3621Z" fill="#FFC47C"/>
<path opacity="0.3" d="M196.621 25.334L199.254 19.1245C199.333 18.938 199.385 18.7474 199.43 18.556L199.095 17.7662C198.525 16.4217 196.62 16.4217 196.05 17.7662L193.417 23.9756C193.083 24.7654 192.454 25.3945 191.663 25.73L185.454 28.3625C184.109 28.9325 184.109 30.8378 185.454 31.4077L186.243 31.7425C186.434 31.6979 186.625 31.6457 186.811 31.5664L193.021 28.9338C194.652 28.2421 195.93 26.9645 196.621 25.334Z" fill="#FFC47C"/>
<path d="M195.977 25.0624L197.569 21.3066" stroke="#FFC47C" stroke-width="2.72727" stroke-miterlimit="10" stroke-linecap="round" stroke-linejoin="round"/>
<defs>
<linearGradient id="paint0_linear_6293_33868" x1="110.72" y1="196.829" x2="110.72" y2="59.2534" gradientUnits="userSpaceOnUse">
<stop stop-color="#FFF7EF"/>
<stop offset="0.401" stop-color="#97C0FF"/>
<stop offset="0.591" stop-color="#96DAFF"/>
<stop offset="1" stop-color="#BFFFFF"/>
</linearGradient>
<linearGradient id="paint1_linear_6293_33868" x1="151.189" y1="145.753" x2="151.189" y2="64.5947" gradientUnits="userSpaceOnUse">
<stop stop-color="#FFF7EF"/>
<stop offset="0.401" stop-color="#97C0FF"/>
<stop offset="0.591" stop-color="#96DAFF"/>
<stop offset="1" stop-color="#BFFFFF"/>
</linearGradient>
<linearGradient id="paint2_linear_6293_33868" x1="98.3234" y1="191.664" x2="98.3234" y2="122.635" gradientUnits="userSpaceOnUse">
<stop stop-color="#FFF7EF"/>
<stop offset="0.401" stop-color="#97C0FF"/>
<stop offset="0.591" stop-color="#96DAFF"/>
<stop offset="1" stop-color="#BFFFFF"/>
</linearGradient>
</defs>
</svg>
