<svg width="13" height="13" viewBox="0 0 13 13" fill="none" xmlns="http://www.w3.org/2000/svg">
<rect x="12.0117" y="0.495117" width="12.0098" height="12.0098" rx="6.0049" transform="rotate(90 12.0117 0.495117)" fill="#A0F6E1" fill-opacity="0.3"/>
<g clip-path="url(#clip0_5772_162398)">
<path d="M5.10453 9.00184C4.98509 9.00181 4.87056 8.94907 4.78612 8.85522L3.43502 7.35399C3.35298 7.25961 3.30758 7.13321 3.30861 7.002C3.30964 6.8708 3.357 6.74529 3.4405 6.65251C3.52401 6.55973 3.63696 6.5071 3.75505 6.50596C3.87313 6.50482 3.9869 6.55526 4.07184 6.64642L5.06264 7.74731L7.90131 3.6905C7.97465 3.58566 8.08247 3.51748 8.20105 3.50096C8.31963 3.48444 8.43927 3.52094 8.53363 3.60243C8.62799 3.68392 8.68935 3.80372 8.70422 3.93548C8.71908 4.06724 8.68623 4.20016 8.61289 4.30501L5.46032 8.80868C5.42116 8.86491 5.37166 8.91122 5.31512 8.94452C5.25859 8.97783 5.19632 8.99737 5.13245 9.00184H5.10453Z" fill="#227863"/>
</g>
<defs>
<clipPath id="clip0_5772_162398">
<rect width="5.40441" height="6.0049" fill="white" transform="translate(3.30078 3.49805)"/>
</clipPath>
</defs>
</svg>
