<svg width="1012" height="134" viewBox="0 0 1012 134" fill="none" xmlns="http://www.w3.org/2000/svg">
<path d="M178.178 38H2C0.89543 38 0 38.8954 0 40V132C0 133.105 0.895426 134 2 134H178.164C178.828 134 179.45 133.67 179.822 133.118L211.236 86.5396C211.697 85.8568 211.692 84.9615 211.223 84.284L179.823 38.8627C179.45 38.3225 178.835 38 178.178 38Z" fill="#F5F7F9"/>
<path d="M26.8 81H31.58C35.12 81 37.4 78.68 37.4 74.02C37.4 69.36 35.12 67.04 31.58 67.04H26.8V81ZM28.74 79.28V68.76H31.58C33.8 68.76 35.32 70.24 35.32 72.9V75.14C35.32 77.8 33.8 79.28 31.58 79.28H28.74ZM44.1156 81.24C46.0556 81.24 47.5556 80.34 48.2756 79L47.0756 77.98C46.5156 79.04 45.5756 79.66 44.2756 79.66C42.4156 79.66 41.3556 78.42 41.3556 76.7V76.28H48.6556V75.5C48.6556 72.6 47.0156 70.4 44.1156 70.4C41.2356 70.4 39.4156 72.54 39.4156 75.82C39.4156 79.1 41.2356 81.24 44.1156 81.24ZM44.1156 71.9C45.6756 71.9 46.6756 73.06 46.6756 74.78V74.98H41.3556V74.84C41.3556 73.14 42.4956 71.9 44.1156 71.9ZM55.4745 81L59.0745 70.64H57.2945L55.5745 75.6L54.4745 79.18H54.3545L53.2745 75.6L51.5745 70.64H49.7145L53.2945 81H55.4745ZM64.8383 81.24C66.7783 81.24 68.2783 80.34 68.9983 79L67.7983 77.98C67.2383 79.04 66.2983 79.66 64.9983 79.66C63.1383 79.66 62.0783 78.42 62.0783 76.7V76.28H69.3783V75.5C69.3783 72.6 67.7383 70.4 64.8383 70.4C61.9583 70.4 60.1383 72.54 60.1383 75.82C60.1383 79.1 61.9583 81.24 64.8383 81.24ZM64.8383 71.9C66.3983 71.9 67.3983 73.06 67.3983 74.78V74.98H62.0783V74.84C62.0783 73.14 63.2183 71.9 64.8383 71.9ZM75.2534 81V79.42H73.7734V66.2H71.9134V79.1C71.9134 80.24 72.5734 81 73.8534 81H75.2534ZM81.4598 81.24C84.2798 81.24 86.1798 79.12 86.1798 75.82C86.1798 72.52 84.2798 70.4 81.4598 70.4C78.6398 70.4 76.7398 72.52 76.7398 75.82C76.7398 79.12 78.6398 81.24 81.4598 81.24ZM81.4598 79.64C79.8398 79.64 78.7198 78.62 78.7198 76.6V75.04C78.7198 73.02 79.8398 72 81.4598 72C83.0798 72 84.1998 73.02 84.1998 75.04V76.6C84.1998 78.62 83.0798 79.64 81.4598 79.64ZM88.7103 85H90.5703V79.3H90.6503C91.1303 80.58 92.2103 81.24 93.6303 81.24C96.2303 81.24 97.7903 79.18 97.7903 75.82C97.7903 72.46 96.2303 70.4 93.6303 70.4C92.2103 70.4 91.1303 71.06 90.6503 72.34H90.5703V70.64H88.7103V85ZM93.0903 79.62C91.6903 79.62 90.5703 78.82 90.5703 77.72V73.92C90.5703 72.82 91.6903 72.02 93.0903 72.02C94.7503 72.02 95.8103 73.2 95.8103 74.94V76.7C95.8103 78.44 94.7503 79.62 93.0903 79.62ZM104.37 81.24C106.31 81.24 107.81 80.34 108.53 79L107.33 77.98C106.77 79.04 105.83 79.66 104.53 79.66C102.67 79.66 101.61 78.42 101.61 76.7V76.28H108.91V75.5C108.91 72.6 107.27 70.4 104.37 70.4C101.49 70.4 99.6695 72.54 99.6695 75.82C99.6695 79.1 101.49 81.24 104.37 81.24ZM104.37 71.9C105.93 71.9 106.93 73.06 106.93 74.78V74.98H101.61V74.84C101.61 73.14 102.75 71.9 104.37 71.9ZM113.305 81V74.2C113.305 73.18 114.305 72.5 116.025 72.5H116.945V70.64H116.325C114.665 70.64 113.745 71.6 113.405 72.62H113.305V70.64H111.445V81H113.305ZM37.54 107L32.72 93.04H30.28L25.44 107H27.4L28.74 103.06H34.18L35.5 107H37.54ZM33.7 101.34H29.2L31.4 94.82H31.5L33.7 101.34ZM41.1139 107H43.2739L44.6739 102.14L45.5339 99.1H45.5739L46.4539 102.14L47.8539 107H50.0539L52.8139 96.64H51.0739L49.9739 101.06L48.9939 105.32H48.9339L47.7339 101.06L46.4139 96.64H44.7539L43.4739 101.06L42.2939 105.32H42.2539L41.2139 101.06L40.1339 96.64H38.3339L41.1139 107ZM63.4431 107V105.42H62.2831V99.96C62.2831 97.72 60.8031 96.4 58.2231 96.4C56.3031 96.4 55.0831 97.3 54.4631 98.42L55.5831 99.44C56.1231 98.56 56.9031 97.96 58.1231 97.96C59.6831 97.96 60.4231 98.74 60.4231 100.12V101.06H58.4631C55.5031 101.06 54.0431 102.14 54.0431 104.14C54.0431 106.04 55.3031 107.24 57.4631 107.24C58.9431 107.24 60.0431 106.56 60.4631 105.28H60.5631C60.7031 106.28 61.2431 107 62.3831 107H63.4431ZM57.8831 105.74C56.7231 105.74 55.9831 105.2 55.9831 104.24V103.84C55.9831 102.88 56.7431 102.36 58.4431 102.36H60.4231V103.96C60.4231 105 59.3431 105.74 57.8831 105.74ZM67.5234 107V100.2C67.5234 99.18 68.5234 98.5 70.2434 98.5H71.1634V96.64H70.5434C68.8834 96.64 67.9634 97.6 67.6234 98.62H67.5234V96.64H65.6634V107H67.5234ZM77.0258 107.24C78.9658 107.24 80.4658 106.34 81.1858 105L79.9858 103.98C79.4258 105.04 78.4858 105.66 77.1858 105.66C75.3258 105.66 74.2658 104.42 74.2658 102.7V102.28H81.5658V101.5C81.5658 98.6 79.9258 96.4 77.0258 96.4C74.1458 96.4 72.3258 98.54 72.3258 101.82C72.3258 105.1 74.1458 107.24 77.0258 107.24ZM77.0258 97.9C78.5858 97.9 79.5858 99.06 79.5858 100.78V100.98H74.2658V100.84C74.2658 99.14 75.4058 97.9 77.0258 97.9ZM85.9609 107V99.9C85.9609 98.64 87.1409 98.02 88.3609 98.02C89.8209 98.02 90.5409 98.92 90.5409 100.66V107H92.4009V100.38C92.4009 97.86 91.1009 96.4 88.9809 96.4C87.4209 96.4 86.5409 97.2 86.0609 98.34H85.9609V96.64H84.1009V107H85.9609ZM99.5258 107.24C101.466 107.24 102.966 106.34 103.686 105L102.486 103.98C101.926 105.04 100.986 105.66 99.6858 105.66C97.8258 105.66 96.7658 104.42 96.7658 102.7V102.28H104.066V101.5C104.066 98.6 102.426 96.4 99.5258 96.4C96.6458 96.4 94.8258 98.54 94.8258 101.82C94.8258 105.1 96.6458 107.24 99.5258 107.24ZM99.5258 97.9C101.086 97.9 102.086 99.06 102.086 100.78V100.98H96.7658V100.84C96.7658 99.14 97.9058 97.9 99.5258 97.9ZM109.781 107.24C112.221 107.24 113.741 105.98 113.741 103.96C113.741 102.36 112.801 101.36 110.521 101.02L109.641 100.88C108.441 100.7 107.841 100.32 107.841 99.4C107.841 98.52 108.481 97.94 109.741 97.94C110.981 97.94 111.861 98.52 112.361 99.18L113.541 98.06C112.661 97.02 111.561 96.4 109.801 96.4C107.621 96.4 106.041 97.48 106.041 99.52C106.041 101.44 107.421 102.26 109.401 102.54L110.281 102.68C111.541 102.86 111.941 103.4 111.941 104.16C111.941 105.12 111.221 105.7 109.901 105.7C108.641 105.7 107.681 105.14 106.901 104.16L105.641 105.24C106.601 106.46 107.861 107.24 109.781 107.24ZM119.468 107.24C121.908 107.24 123.428 105.98 123.428 103.96C123.428 102.36 122.488 101.36 120.208 101.02L119.328 100.88C118.128 100.7 117.528 100.32 117.528 99.4C117.528 98.52 118.168 97.94 119.428 97.94C120.668 97.94 121.548 98.52 122.048 99.18L123.228 98.06C122.348 97.02 121.248 96.4 119.488 96.4C117.308 96.4 115.728 97.48 115.728 99.52C115.728 101.44 117.108 102.26 119.088 102.54L119.968 102.68C121.228 102.86 121.628 103.4 121.628 104.16C121.628 105.12 120.908 105.7 119.588 105.7C118.328 105.7 117.368 105.14 116.588 104.16L115.328 105.24C116.288 106.46 117.548 107.24 119.468 107.24Z" fill="#242A31"/>
<path d="M386.125 38H185.847C184.228 38 183.28 39.8237 184.21 41.149L214.542 84.3629C215.022 85.0466 215.027 85.9565 214.553 86.6449L184.154 130.867C183.241 132.194 184.192 134 185.802 134H386.11C386.774 134 387.395 133.67 387.767 133.12L419.234 86.5409C419.696 85.8575 419.691 84.9608 419.221 84.2828L387.769 38.8614C387.395 38.3219 386.781 38 386.125 38Z" fill="#F5F7F9"/>
<path d="M248.08 81.24C251.7 81.24 254.04 78.72 254.04 74.02C254.04 69.32 251.7 66.8 248.08 66.8C244.46 66.8 242.12 69.32 242.12 74.02C242.12 78.72 244.46 81.24 248.08 81.24ZM248.08 79.5C245.76 79.5 244.2 77.82 244.2 75.16V72.88C244.2 70.22 245.76 68.54 248.08 68.54C250.4 68.54 251.96 70.22 251.96 72.88V75.16C251.96 77.82 250.4 79.5 248.08 79.5ZM260.961 81.24C264.061 81.24 265.881 79.56 265.881 76.98C265.881 74.84 264.661 73.62 261.921 73.02L260.741 72.78C259.081 72.42 258.301 71.86 258.301 70.62C258.301 69.24 259.321 68.5 261.021 68.5C262.601 68.5 263.621 69.14 264.361 70.16L265.781 69.02C264.721 67.58 263.221 66.8 261.121 66.8C258.261 66.8 256.381 68.22 256.381 70.7C256.381 72.88 257.761 74.06 260.381 74.6L261.561 74.84C263.301 75.22 263.961 75.86 263.961 77.08C263.961 78.56 262.941 79.54 261.041 79.54C259.481 79.54 258.321 78.86 257.341 77.6L255.961 78.84C257.081 80.32 258.681 81.24 260.961 81.24ZM272.504 81.24C275.604 81.24 277.424 79.56 277.424 76.98C277.424 74.84 276.204 73.62 273.464 73.02L272.284 72.78C270.624 72.42 269.844 71.86 269.844 70.62C269.844 69.24 270.864 68.5 272.564 68.5C274.144 68.5 275.164 69.14 275.904 70.16L277.324 69.02C276.264 67.58 274.764 66.8 272.664 66.8C269.804 66.8 267.924 68.22 267.924 70.7C267.924 72.88 269.304 74.06 271.924 74.6L273.104 74.84C274.844 75.22 275.504 75.86 275.504 77.08C275.504 78.56 274.484 79.54 272.584 79.54C271.024 79.54 269.864 78.86 268.884 77.6L267.504 78.84C268.624 80.32 270.224 81.24 272.504 81.24ZM247.86 107.24C250.22 107.24 251.92 106.02 252.82 104.02L251.26 103.08C250.74 104.52 249.58 105.5 247.86 105.5C245.58 105.5 244.2 103.8 244.2 101.08V98.96C244.2 96.24 245.58 94.54 247.86 94.54C249.54 94.54 250.62 95.44 251.14 96.82L252.74 95.9C251.84 93.9 250.22 92.8 247.86 92.8C244.3 92.8 242.12 95.36 242.12 100.02C242.12 104.68 244.3 107.24 247.86 107.24ZM259.159 107.24C261.979 107.24 263.879 105.12 263.879 101.82C263.879 98.52 261.979 96.4 259.159 96.4C256.339 96.4 254.439 98.52 254.439 101.82C254.439 105.12 256.339 107.24 259.159 107.24ZM259.159 105.64C257.539 105.64 256.419 104.62 256.419 102.6V101.04C256.419 99.02 257.539 98 259.159 98C260.779 98 261.899 99.02 261.899 101.04V102.6C261.899 104.62 260.779 105.64 259.159 105.64ZM268.27 107V99.9C268.27 98.64 269.41 98.02 270.59 98.02C272.01 98.02 272.67 98.92 272.67 100.66V107H274.53V99.9C274.53 98.64 275.63 98.02 276.83 98.02C278.27 98.02 278.93 98.92 278.93 100.66V107H280.79V100.38C280.79 97.86 279.55 96.4 277.47 96.4C275.73 96.4 274.69 97.38 274.31 98.5H274.27C273.73 97.04 272.51 96.4 271.13 96.4C269.75 96.4 268.81 97.28 268.37 98.34H268.27V96.64H266.41V107H268.27ZM285.809 107V99.9C285.809 98.64 286.949 98.02 288.129 98.02C289.549 98.02 290.209 98.92 290.209 100.66V107H292.069V99.9C292.069 98.64 293.169 98.02 294.369 98.02C295.809 98.02 296.469 98.92 296.469 100.66V107H298.329V100.38C298.329 97.86 297.089 96.4 295.009 96.4C293.269 96.4 292.229 97.38 291.849 98.5H291.809C291.269 97.04 290.049 96.4 288.669 96.4C287.289 96.4 286.349 97.28 285.909 98.34H285.809V96.64H283.949V107H285.809ZM307.828 107H309.688V96.64H307.828V103.72C307.828 105.02 306.628 105.62 305.448 105.62C303.988 105.62 303.248 104.72 303.248 102.98V96.64H301.388V103.26C301.388 105.78 302.708 107.24 304.828 107.24C306.548 107.24 307.348 106.3 307.728 105.3H307.828V107ZM314.832 107V99.9C314.832 98.64 316.012 98.02 317.232 98.02C318.692 98.02 319.412 98.92 319.412 100.66V107H321.272V100.38C321.272 97.86 319.972 96.4 317.852 96.4C316.292 96.4 315.412 97.2 314.932 98.34H314.832V96.64H312.972V107H314.832ZM325.377 94.48C326.157 94.48 326.497 94.06 326.497 93.46V93.18C326.497 92.58 326.157 92.16 325.377 92.16C324.597 92.16 324.257 92.58 324.257 93.18V93.46C324.257 94.06 324.597 94.48 325.377 94.48ZM324.437 107H326.297V96.64H324.437V107ZM334.074 107V105.42H332.014V98.22H334.234V96.64H332.014V93.78H330.334V95.68C330.334 96.38 330.114 96.64 329.414 96.64H328.494V98.22H330.154V105.04C330.154 106.24 330.834 107 332.114 107H334.074ZM340.782 103.26L340.182 105.2H340.082L339.542 103.26L337.242 96.64H335.382L339.222 107.42L338.522 109.42H336.822V111H337.842C339.422 111 339.922 110.56 340.402 109.26L344.902 96.64H343.102L340.782 103.26Z" fill="#242A31"/>
<path d="M594.26 38H394.838C393.221 38 392.272 39.8201 393.199 41.1458L423.408 84.3661C423.885 85.0484 423.889 85.9547 423.419 86.6416L393.142 130.87C392.234 132.198 393.184 134 394.793 134H594.245C594.911 134 595.533 133.669 595.905 133.116L627.24 86.5377C627.698 85.8557 627.693 84.9626 627.227 84.286L595.907 38.8647C595.533 38.3233 594.918 38 594.26 38Z" fill="#F5F7F9"/>
<path d="M454.82 81.24C457.92 81.24 459.74 79.56 459.74 76.98C459.74 74.84 458.52 73.62 455.78 73.02L454.6 72.78C452.94 72.42 452.16 71.86 452.16 70.62C452.16 69.24 453.18 68.5 454.88 68.5C456.46 68.5 457.48 69.14 458.22 70.16L459.64 69.02C458.58 67.58 457.08 66.8 454.98 66.8C452.12 66.8 450.24 68.22 450.24 70.7C450.24 72.88 451.62 74.06 454.24 74.6L455.42 74.84C457.16 75.22 457.82 75.86 457.82 77.08C457.82 78.56 456.8 79.54 454.9 79.54C453.34 79.54 452.18 78.86 451.2 77.6L449.82 78.84C450.94 80.32 452.54 81.24 454.82 81.24ZM466.358 81.24C468.298 81.24 469.798 80.34 470.518 79L469.318 77.98C468.758 79.04 467.818 79.66 466.518 79.66C464.658 79.66 463.598 78.42 463.598 76.7V76.28H470.898V75.5C470.898 72.6 469.258 70.4 466.358 70.4C463.478 70.4 461.658 72.54 461.658 75.82C461.658 79.1 463.478 81.24 466.358 81.24ZM466.358 71.9C467.918 71.9 468.918 73.06 468.918 74.78V74.98H463.598V74.84C463.598 73.14 464.738 71.9 466.358 71.9ZM476.773 81V79.42H475.293V66.2H473.433V79.1C473.433 80.24 474.093 81 475.373 81H476.773ZM479.559 81H481.419V72.22H483.599V70.64H481.419V67.78H483.599V66.2H481.979C480.359 66.2 479.559 67.2 479.559 68.72V70.64H477.899V72.22H479.559V81ZM490.66 75.88V73.94H485.3V75.88H490.66ZM497.418 81.24C500.518 81.24 502.338 79.56 502.338 76.98C502.338 74.84 501.118 73.62 498.378 73.02L497.198 72.78C495.538 72.42 494.758 71.86 494.758 70.62C494.758 69.24 495.778 68.5 497.478 68.5C499.058 68.5 500.078 69.14 500.818 70.16L502.238 69.02C501.178 67.58 499.678 66.8 497.578 66.8C494.718 66.8 492.838 68.22 492.838 70.7C492.838 72.88 494.218 74.06 496.838 74.6L498.018 74.84C499.758 75.22 500.418 75.86 500.418 77.08C500.418 78.56 499.398 79.54 497.498 79.54C495.938 79.54 494.778 78.86 493.798 77.6L492.418 78.84C493.538 80.32 495.138 81.24 497.418 81.24ZM508.955 81.24C510.895 81.24 512.395 80.34 513.115 79L511.915 77.98C511.355 79.04 510.415 79.66 509.115 79.66C507.255 79.66 506.195 78.42 506.195 76.7V76.28H513.495V75.5C513.495 72.6 511.855 70.4 508.955 70.4C506.075 70.4 504.255 72.54 504.255 75.82C504.255 79.1 506.075 81.24 508.955 81.24ZM508.955 71.9C510.515 71.9 511.515 73.06 511.515 74.78V74.98H506.195V74.84C506.195 73.14 507.335 71.9 508.955 71.9ZM517.891 81V74.2C517.891 73.18 518.891 72.5 520.611 72.5H521.531V70.64H520.911C519.251 70.64 518.331 71.6 517.991 72.62H517.891V70.64H516.031V81H517.891ZM528.146 81L531.746 70.64H529.966L528.246 75.6L527.146 79.18H527.026L525.946 75.6L524.246 70.64H522.386L525.966 81H528.146ZM537.51 81.24C539.45 81.24 540.95 80.34 541.67 79L540.47 77.98C539.91 79.04 538.97 79.66 537.67 79.66C535.81 79.66 534.75 78.42 534.75 76.7V76.28H542.05V75.5C542.05 72.6 540.41 70.4 537.51 70.4C534.63 70.4 532.81 72.54 532.81 75.82C532.81 79.1 534.63 81.24 537.51 81.24ZM537.51 71.9C539.07 71.9 540.07 73.06 540.07 74.78V74.98H534.75V74.84C534.75 73.14 535.89 71.9 537.51 71.9ZM454.82 107.24C457.92 107.24 459.74 105.56 459.74 102.98C459.74 100.84 458.52 99.62 455.78 99.02L454.6 98.78C452.94 98.42 452.16 97.86 452.16 96.62C452.16 95.24 453.18 94.5 454.88 94.5C456.46 94.5 457.48 95.14 458.22 96.16L459.64 95.02C458.58 93.58 457.08 92.8 454.98 92.8C452.12 92.8 450.24 94.22 450.24 96.7C450.24 98.88 451.62 100.06 454.24 100.6L455.42 100.84C457.16 101.22 457.82 101.86 457.82 103.08C457.82 104.56 456.8 105.54 454.9 105.54C453.34 105.54 452.18 104.86 451.2 103.6L449.82 104.84C450.94 106.32 452.54 107.24 454.82 107.24ZM470.998 107V105.42H469.838V99.96C469.838 97.72 468.358 96.4 465.778 96.4C463.858 96.4 462.638 97.3 462.018 98.42L463.138 99.44C463.678 98.56 464.458 97.96 465.678 97.96C467.238 97.96 467.978 98.74 467.978 100.12V101.06H466.018C463.058 101.06 461.598 102.14 461.598 104.14C461.598 106.04 462.858 107.24 465.018 107.24C466.498 107.24 467.598 106.56 468.018 105.28H468.118C468.258 106.28 468.798 107 469.938 107H470.998ZM465.438 105.74C464.278 105.74 463.538 105.2 463.538 104.24V103.84C463.538 102.88 464.298 102.36 465.998 102.36H467.978V103.96C467.978 105 466.898 105.74 465.438 105.74ZM481.818 107V105.42H480.658V99.96C480.658 97.72 479.178 96.4 476.598 96.4C474.678 96.4 473.458 97.3 472.838 98.42L473.958 99.44C474.498 98.56 475.278 97.96 476.498 97.96C478.058 97.96 478.798 98.74 478.798 100.12V101.06H476.838C473.878 101.06 472.418 102.14 472.418 104.14C472.418 106.04 473.678 107.24 475.838 107.24C477.318 107.24 478.418 106.56 478.838 105.28H478.938C479.078 106.28 479.618 107 480.758 107H481.818ZM476.258 105.74C475.098 105.74 474.358 105.2 474.358 104.24V103.84C474.358 102.88 475.118 102.36 476.818 102.36H478.798V103.96C478.798 105 477.718 105.74 476.258 105.74ZM488.218 107.24C491.318 107.24 493.138 105.56 493.138 102.98C493.138 100.84 491.918 99.62 489.178 99.02L487.998 98.78C486.338 98.42 485.558 97.86 485.558 96.62C485.558 95.24 486.578 94.5 488.278 94.5C489.858 94.5 490.878 95.14 491.618 96.16L493.038 95.02C491.978 93.58 490.478 92.8 488.378 92.8C485.518 92.8 483.638 94.22 483.638 96.7C483.638 98.88 485.018 100.06 487.638 100.6L488.818 100.84C490.558 101.22 491.218 101.86 491.218 103.08C491.218 104.56 490.198 105.54 488.298 105.54C486.738 105.54 485.578 104.86 484.598 103.6L483.218 104.84C484.338 106.32 485.938 107.24 488.218 107.24Z" fill="#242A31"/>
<path d="M802.26 38H602.838C601.221 38 600.272 39.8201 601.199 41.1458L631.408 84.3661C631.885 85.0484 631.889 85.9547 631.419 86.6416L601.142 130.87C600.234 132.198 601.184 134 602.793 134H802.245C802.911 134 803.533 133.669 803.905 133.116L835.24 86.5377C835.698 85.8557 835.693 84.9626 835.227 84.286L803.907 38.8647C803.533 38.3233 802.918 38 802.26 38Z" fill="#F5F7F9"/>
<path d="M663.98 81V79.36H662.04V68.68H663.98V67.04H658.16V68.68H660.1V79.36H658.16V81H663.98ZM668.645 81V73.9C668.645 72.64 669.825 72.02 671.045 72.02C672.505 72.02 673.225 72.92 673.225 74.66V81H675.085V74.38C675.085 71.86 673.785 70.4 671.665 70.4C670.105 70.4 669.225 71.2 668.745 72.34H668.645V70.64H666.785V81H668.645ZM681.429 81.24C683.869 81.24 685.389 79.98 685.389 77.96C685.389 76.36 684.449 75.36 682.169 75.02L681.289 74.88C680.089 74.7 679.489 74.32 679.489 73.4C679.489 72.52 680.129 71.94 681.389 71.94C682.629 71.94 683.509 72.52 684.009 73.18L685.189 72.06C684.309 71.02 683.209 70.4 681.449 70.4C679.269 70.4 677.689 71.48 677.689 73.52C677.689 75.44 679.069 76.26 681.049 76.54L681.929 76.68C683.189 76.86 683.589 77.4 683.589 78.16C683.589 79.12 682.869 79.7 681.549 79.7C680.289 79.7 679.329 79.14 678.549 78.16L677.289 79.24C678.249 80.46 679.509 81.24 681.429 81.24ZM688.994 68.48C689.774 68.48 690.114 68.06 690.114 67.46V67.18C690.114 66.58 689.774 66.16 688.994 66.16C688.214 66.16 687.874 66.58 687.874 67.18V67.46C687.874 68.06 688.214 68.48 688.994 68.48ZM688.054 81H689.914V70.64H688.054V81ZM699.751 81H701.611V66.2H699.751V72.34H699.671C699.191 71.06 698.111 70.4 696.691 70.4C694.091 70.4 692.531 72.46 692.531 75.82C692.531 79.18 694.091 81.24 696.691 81.24C698.111 81.24 699.191 80.58 699.671 79.3H699.751V81ZM697.231 79.62C695.571 79.62 694.511 78.44 694.511 76.7V74.94C694.511 73.2 695.571 72.02 697.231 72.02C698.631 72.02 699.751 72.82 699.751 73.92V77.72C699.751 78.82 698.631 79.62 697.231 79.62ZM708.85 81.24C710.79 81.24 712.29 80.34 713.01 79L711.81 77.98C711.25 79.04 710.31 79.66 709.01 79.66C707.15 79.66 706.09 78.42 706.09 76.7V76.28H713.39V75.5C713.39 72.6 711.75 70.4 708.85 70.4C705.97 70.4 704.15 72.54 704.15 75.82C704.15 79.1 705.97 81.24 708.85 81.24ZM708.85 71.9C710.41 71.9 711.41 73.06 711.41 74.78V74.98H706.09V74.84C706.09 73.14 707.23 71.9 708.85 71.9ZM662.82 107.24C665.92 107.24 667.74 105.56 667.74 102.98C667.74 100.84 666.52 99.62 663.78 99.02L662.6 98.78C660.94 98.42 660.16 97.86 660.16 96.62C660.16 95.24 661.18 94.5 662.88 94.5C664.46 94.5 665.48 95.14 666.22 96.16L667.64 95.02C666.58 93.58 665.08 92.8 662.98 92.8C660.12 92.8 658.24 94.22 658.24 96.7C658.24 98.88 659.62 100.06 662.24 100.6L663.42 100.84C665.16 101.22 665.82 101.86 665.82 103.08C665.82 104.56 664.8 105.54 662.9 105.54C661.34 105.54 660.18 104.86 659.2 103.6L657.82 104.84C658.94 106.32 660.54 107.24 662.82 107.24ZM678.998 107V105.42H677.838V99.96C677.838 97.72 676.358 96.4 673.778 96.4C671.858 96.4 670.638 97.3 670.018 98.42L671.138 99.44C671.678 98.56 672.458 97.96 673.678 97.96C675.238 97.96 675.978 98.74 675.978 100.12V101.06H674.018C671.058 101.06 669.598 102.14 669.598 104.14C669.598 106.04 670.858 107.24 673.018 107.24C674.498 107.24 675.598 106.56 676.018 105.28H676.118C676.258 106.28 676.798 107 677.938 107H678.998ZM673.438 105.74C672.278 105.74 671.538 105.2 671.538 104.24V103.84C671.538 102.88 672.298 102.36 673.998 102.36H675.978V103.96C675.978 105 674.898 105.74 673.438 105.74ZM684.558 107V105.42H683.078V92.2H681.218V105.1C681.218 106.24 681.878 107 683.158 107H684.558ZM690.745 107.24C692.685 107.24 694.185 106.34 694.905 105L693.705 103.98C693.145 105.04 692.205 105.66 690.905 105.66C689.045 105.66 687.985 104.42 687.985 102.7V102.28H695.285V101.5C695.285 98.6 693.645 96.4 690.745 96.4C687.865 96.4 686.045 98.54 686.045 101.82C686.045 105.1 687.865 107.24 690.745 107.24ZM690.745 97.9C692.305 97.9 693.305 99.06 693.305 100.78V100.98H687.985V100.84C687.985 99.14 689.125 97.9 690.745 97.9ZM701 107.24C703.44 107.24 704.96 105.98 704.96 103.96C704.96 102.36 704.02 101.36 701.74 101.02L700.86 100.88C699.66 100.7 699.06 100.32 699.06 99.4C699.06 98.52 699.7 97.94 700.96 97.94C702.2 97.94 703.08 98.52 703.58 99.18L704.76 98.06C703.88 97.02 702.78 96.4 701.02 96.4C698.84 96.4 697.26 97.48 697.26 99.52C697.26 101.44 698.64 102.26 700.62 102.54L701.5 102.68C702.76 102.86 703.16 103.4 703.16 104.16C703.16 105.12 702.44 105.7 701.12 105.7C699.86 105.7 698.9 105.14 698.12 104.16L696.86 105.24C697.82 106.46 699.08 107.24 701 107.24Z" fill="#242A31"/>
<path d="M1010 38H810.845C809.227 38 808.278 39.823 809.208 41.1484L839.515 84.3635C839.995 85.0469 839.999 85.9562 839.527 86.6442L809.151 130.868C808.24 132.195 809.19 134 810.8 134H1010C1011.1 134 1012 133.105 1012 132V85.4074V40C1012 38.8954 1011.1 38 1010 38Z" fill="#F5F7F9"/>
<path d="M875.5 81V79.28H868.74V74.8H875V73.08H868.74V68.76H875.5V67.04H866.8V81H875.5ZM880.258 81V73.9C880.258 72.64 881.438 72.02 882.658 72.02C884.118 72.02 884.838 72.92 884.838 74.66V81H886.698V74.38C886.698 71.86 885.398 70.4 883.278 70.4C881.718 70.4 880.838 71.2 880.358 72.34H880.258V70.64H878.398V81H880.258ZM894.363 81V79.42H892.303V72.22H894.523V70.64H892.303V67.78H890.623V69.68C890.623 70.38 890.403 70.64 889.703 70.64H888.783V72.22H890.443V79.04C890.443 80.24 891.123 81 892.403 81H894.363ZM900.893 81.24C902.833 81.24 904.333 80.34 905.053 79L903.853 77.98C903.293 79.04 902.353 79.66 901.053 79.66C899.193 79.66 898.133 78.42 898.133 76.7V76.28H905.433V75.5C905.433 72.6 903.793 70.4 900.893 70.4C898.013 70.4 896.193 72.54 896.193 75.82C896.193 79.1 898.013 81.24 900.893 81.24ZM900.893 71.9C902.453 71.9 903.453 73.06 903.453 74.78V74.98H898.133V74.84C898.133 73.14 899.273 71.9 900.893 71.9ZM909.828 81V74.2C909.828 73.18 910.828 72.5 912.548 72.5H913.468V70.64H912.848C911.188 70.64 910.268 71.6 909.928 72.62H909.828V70.64H907.968V81H909.828ZM915.468 85H917.328V79.3H917.408C917.888 80.58 918.968 81.24 920.388 81.24C922.988 81.24 924.548 79.18 924.548 75.82C924.548 72.46 922.988 70.4 920.388 70.4C918.968 70.4 917.888 71.06 917.408 72.34H917.328V70.64H915.468V85ZM919.848 79.62C918.448 79.62 917.328 78.82 917.328 77.72V73.92C917.328 72.82 918.448 72.02 919.848 72.02C921.508 72.02 922.568 73.2 922.568 74.94V76.7C922.568 78.44 921.508 79.62 919.848 79.62ZM929.027 81V74.2C929.027 73.18 930.027 72.5 931.747 72.5H932.667V70.64H932.047C930.387 70.64 929.467 71.6 929.127 72.62H929.027V70.64H927.167V81H929.027ZM935.607 68.48C936.387 68.48 936.727 68.06 936.727 67.46V67.18C936.727 66.58 936.387 66.16 935.607 66.16C934.827 66.16 934.487 66.58 934.487 67.18V67.46C934.487 68.06 934.827 68.48 935.607 68.48ZM934.667 81H936.527V70.64H934.667V81ZM942.984 81.24C945.424 81.24 946.944 79.98 946.944 77.96C946.944 76.36 946.004 75.36 943.724 75.02L942.844 74.88C941.644 74.7 941.044 74.32 941.044 73.4C941.044 72.52 941.684 71.94 942.944 71.94C944.184 71.94 945.064 72.52 945.564 73.18L946.744 72.06C945.864 71.02 944.764 70.4 943.004 70.4C940.824 70.4 939.244 71.48 939.244 73.52C939.244 75.44 940.624 76.26 942.604 76.54L943.484 76.68C944.744 76.86 945.144 77.4 945.144 78.16C945.144 79.12 944.424 79.7 943.104 79.7C941.844 79.7 940.884 79.14 940.104 78.16L938.844 79.24C939.804 80.46 941.064 81.24 942.984 81.24ZM953.569 81.24C955.509 81.24 957.009 80.34 957.729 79L956.529 77.98C955.969 79.04 955.029 79.66 953.729 79.66C951.869 79.66 950.809 78.42 950.809 76.7V76.28H958.109V75.5C958.109 72.6 956.469 70.4 953.569 70.4C950.689 70.4 948.869 72.54 948.869 75.82C948.869 79.1 950.689 81.24 953.569 81.24ZM953.569 71.9C955.129 71.9 956.129 73.06 956.129 74.78V74.98H950.809V74.84C950.809 73.14 951.949 71.9 953.569 71.9ZM870.82 107.24C873.92 107.24 875.74 105.56 875.74 102.98C875.74 100.84 874.52 99.62 871.78 99.02L870.6 98.78C868.94 98.42 868.16 97.86 868.16 96.62C868.16 95.24 869.18 94.5 870.88 94.5C872.46 94.5 873.48 95.14 874.22 96.16L875.64 95.02C874.58 93.58 873.08 92.8 870.98 92.8C868.12 92.8 866.24 94.22 866.24 96.7C866.24 98.88 867.62 100.06 870.24 100.6L871.42 100.84C873.16 101.22 873.82 101.86 873.82 103.08C873.82 104.56 872.8 105.54 870.9 105.54C869.34 105.54 868.18 104.86 867.2 103.6L865.82 104.84C866.94 106.32 868.54 107.24 870.82 107.24ZM886.998 107V105.42H885.838V99.96C885.838 97.72 884.358 96.4 881.778 96.4C879.858 96.4 878.638 97.3 878.018 98.42L879.138 99.44C879.678 98.56 880.458 97.96 881.678 97.96C883.238 97.96 883.978 98.74 883.978 100.12V101.06H882.018C879.058 101.06 877.598 102.14 877.598 104.14C877.598 106.04 878.858 107.24 881.018 107.24C882.498 107.24 883.598 106.56 884.018 105.28H884.118C884.258 106.28 884.798 107 885.938 107H886.998ZM881.438 105.74C880.278 105.74 879.538 105.2 879.538 104.24V103.84C879.538 102.88 880.298 102.36 881.998 102.36H883.978V103.96C883.978 105 882.898 105.74 881.438 105.74ZM892.558 107V105.42H891.078V92.2H889.218V105.1C889.218 106.24 889.878 107 891.158 107H892.558ZM898.745 107.24C900.685 107.24 902.185 106.34 902.905 105L901.705 103.98C901.145 105.04 900.205 105.66 898.905 105.66C897.045 105.66 895.985 104.42 895.985 102.7V102.28H903.285V101.5C903.285 98.6 901.645 96.4 898.745 96.4C895.865 96.4 894.045 98.54 894.045 101.82C894.045 105.1 895.865 107.24 898.745 107.24ZM898.745 97.9C900.305 97.9 901.305 99.06 901.305 100.78V100.98H895.985V100.84C895.985 99.14 897.125 97.9 898.745 97.9ZM909 107.24C911.44 107.24 912.96 105.98 912.96 103.96C912.96 102.36 912.02 101.36 909.74 101.02L908.86 100.88C907.66 100.7 907.06 100.32 907.06 99.4C907.06 98.52 907.7 97.94 908.96 97.94C910.2 97.94 911.08 98.52 911.58 99.18L912.76 98.06C911.88 97.02 910.78 96.4 909.02 96.4C906.84 96.4 905.26 97.48 905.26 99.52C905.26 101.44 906.64 102.26 908.62 102.54L909.5 102.68C910.76 102.86 911.16 103.4 911.16 104.16C911.16 105.12 910.44 105.7 909.12 105.7C907.86 105.7 906.9 105.14 906.12 104.16L904.86 105.24C905.82 106.46 907.08 107.24 909 107.24Z" fill="#242A31"/>
<path d="M50.784 14.624H44.304L50.576 6.22403V4.83203H42.912V6.20803H48.832L42.592 14.608V16H50.784V14.624Z" fill="#3C454E"/>
<path d="M55.7769 16.192C57.3289 16.192 58.5289 15.472 59.1049 14.4L58.1449 13.584C57.6969 14.432 56.9449 14.928 55.9049 14.928C54.4169 14.928 53.5689 13.936 53.5689 12.56V12.224H59.4089V11.6C59.4089 9.28003 58.0969 7.52003 55.7769 7.52003C53.4729 7.52003 52.0169 9.23203 52.0169 11.856C52.0169 14.48 53.4729 16.192 55.7769 16.192ZM55.7769 8.72003C57.0249 8.72003 57.8249 9.64803 57.8249 11.024V11.184H53.5689V11.072C53.5689 9.71203 54.4809 8.72003 55.7769 8.72003Z" fill="#3C454E"/>
<path d="M62.925 16V10.56C62.925 9.74403 63.725 9.20003 65.101 9.20003H65.837V7.71203H65.341C64.013 7.71203 63.277 8.48003 63.005 9.29603H62.925V7.71203H61.437V16H62.925Z" fill="#3C454E"/>
<path d="M70.5429 16.192C72.7989 16.192 74.3189 14.496 74.3189 11.856C74.3189 9.21603 72.7989 7.52003 70.5429 7.52003C68.2869 7.52003 66.7669 9.21603 66.7669 11.856C66.7669 14.496 68.2869 16.192 70.5429 16.192ZM70.5429 14.912C69.2469 14.912 68.3509 14.096 68.3509 12.48V11.232C68.3509 9.61603 69.2469 8.80003 70.5429 8.80003C71.8389 8.80003 72.7349 9.61603 72.7349 11.232V12.48C72.7349 14.096 71.8389 14.912 70.5429 14.912Z" fill="#3C454E"/>
<path d="M34 10.5C34 15.7467 29.7467 20 24.5 20C19.2533 20 15 15.7467 15 10.5C15 5.25329 19.2533 1 24.5 1C29.7467 1 34 5.25329 34 10.5Z" fill="white"/>
<path fill-rule="evenodd" clip-rule="evenodd" d="M35 10.5C35 16.299 30.299 21 24.5 21C18.701 21 14 16.299 14 10.5C14 4.70101 18.701 0 24.5 0C30.299 0 35 4.70101 35 10.5ZM24.5 20C29.7467 20 34 15.7467 34 10.5C34 5.25329 29.7467 1 24.5 1C19.2533 1 15 5.25329 15 10.5C15 15.7467 19.2533 20 24.5 20Z" fill="#F5F7F9"/>
<path d="M29 10.5C29 12.9853 26.9853 15 24.5 15C22.0147 15 20 12.9853 20 10.5C20 8.01472 22.0147 6 24.5 6C26.9853 6 29 8.01472 29 10.5Z" fill="url(#paint0_linear)"/>
<path d="M16 36H73V38H16V36Z" fill="#30CEFE"/>
<path d="M965.584 15.9999V14.6879H964.032V6.14389H965.584V4.83189H960.928V6.14389H962.48V14.6879H960.928V15.9999H965.584Z" fill="#3C454E"/>
<path d="M969.508 15.9999V11.3919H972.564C974.58 11.3919 975.732 10.0959 975.732 8.11189C975.732 6.12789 974.58 4.83189 972.564 4.83189H967.956V15.9999H969.508ZM969.508 6.20789H972.5C973.492 6.20789 974.084 6.75189 974.084 7.71189V8.51189C974.084 9.47189 973.492 10.0159 972.5 10.0159H969.508V6.20789Z" fill="#3C454E"/>
<path d="M982.039 16.1919C984.935 16.1919 986.807 14.1759 986.807 10.4159C986.807 6.65589 984.935 4.63989 982.039 4.63989C979.143 4.63989 977.271 6.65589 977.271 10.4159C977.271 14.1759 979.143 16.1919 982.039 16.1919ZM982.039 14.7999C980.183 14.7999 978.935 13.4559 978.935 11.3279V9.50389C978.935 7.37589 980.183 6.03189 982.039 6.03189C983.895 6.03189 985.143 7.37589 985.143 9.50389V11.3279C985.143 13.4559 983.895 14.7999 982.039 14.7999Z" fill="#3C454E"/>
<path d="M952 10.5C952 15.7467 947.747 20 942.5 20C937.253 20 933 15.7467 933 10.5C933 5.25329 937.253 1 942.5 1C947.747 1 952 5.25329 952 10.5Z" fill="white"/>
<path fill-rule="evenodd" clip-rule="evenodd" d="M953 10.5C953 16.299 948.299 21 942.5 21C936.701 21 932 16.299 932 10.5C932 4.70101 936.701 0 942.5 0C948.299 0 953 4.70101 953 10.5ZM942.5 20C947.747 20 952 15.7467 952 10.5C952 5.25329 947.747 1 942.5 1C937.253 1 933 5.25329 933 10.5C933 15.7467 937.253 20 942.5 20Z" fill="#F5F7F9"/>
<path d="M947 10.5C947 12.9853 944.985 15 942.5 15C940.015 15 938 12.9853 938 10.5C938 8.01472 940.015 6 942.5 6C944.985 6 947 8.01472 947 10.5Z" fill="url(#paint1_linear)"/>
<path d="M934 36H988V38H934V36Z" fill="#30CEFE"/>
<defs>
<linearGradient id="paint0_linear" x1="24.5" y1="6" x2="24.5" y2="15" gradientUnits="userSpaceOnUse">
<stop stop-color="#52C7EA"/>
<stop offset="1" stop-color="#30CEFE"/>
</linearGradient>
<linearGradient id="paint1_linear" x1="942.5" y1="6" x2="942.5" y2="15" gradientUnits="userSpaceOnUse">
<stop stop-color="#52C7EA"/>
<stop offset="1" stop-color="#30CEFE"/>
</linearGradient>
</defs>
</svg>
