<svg width="1012" height="138" viewBox="0 0 1012 138" fill="none" xmlns="http://www.w3.org/2000/svg">
<path d="M178.178 41.9999H2C0.89543 41.9999 0 42.8954 0 43.9999V136C0 137.105 0.895426 138 2 138H178.164C178.828 138 179.45 137.669 179.822 137.118L211.236 90.5396C211.697 89.8568 211.692 88.9614 211.223 88.284L179.823 42.8626C179.45 42.3224 178.835 41.9999 178.178 41.9999Z" fill="#F5F7F9"/>
<path d="M26.8 84.9999H31.58C35.12 84.9999 37.4 82.6799 37.4 78.0199C37.4 73.3599 35.12 71.0399 31.58 71.0399H26.8V84.9999ZM28.74 83.2799V72.7599H31.58C33.8 72.7599 35.32 74.2399 35.32 76.8999V79.1399C35.32 81.7999 33.8 83.2799 31.58 83.2799H28.74ZM44.1156 85.2399C46.0556 85.2399 47.5556 84.3399 48.2756 82.9999L47.0756 81.9799C46.5156 83.0399 45.5756 83.6599 44.2756 83.6599C42.4156 83.6599 41.3556 82.4199 41.3556 80.6999V80.2799H48.6556V79.4999C48.6556 76.5999 47.0156 74.3999 44.1156 74.3999C41.2356 74.3999 39.4156 76.5399 39.4156 79.8199C39.4156 83.0999 41.2356 85.2399 44.1156 85.2399ZM44.1156 75.8999C45.6756 75.8999 46.6756 77.0599 46.6756 78.7799V78.9799H41.3556V78.8399C41.3556 77.1399 42.4956 75.8999 44.1156 75.8999ZM55.4745 84.9999L59.0745 74.6399H57.2945L55.5745 79.5999L54.4745 83.1799H54.3545L53.2745 79.5999L51.5745 74.6399H49.7145L53.2945 84.9999H55.4745ZM64.8383 85.2399C66.7783 85.2399 68.2783 84.3399 68.9983 82.9999L67.7983 81.9799C67.2383 83.0399 66.2983 83.6599 64.9983 83.6599C63.1383 83.6599 62.0783 82.4199 62.0783 80.6999V80.2799H69.3783V79.4999C69.3783 76.5999 67.7383 74.3999 64.8383 74.3999C61.9583 74.3999 60.1383 76.5399 60.1383 79.8199C60.1383 83.0999 61.9583 85.2399 64.8383 85.2399ZM64.8383 75.8999C66.3983 75.8999 67.3983 77.0599 67.3983 78.7799V78.9799H62.0783V78.8399C62.0783 77.1399 63.2183 75.8999 64.8383 75.8999ZM75.2534 84.9999V83.4199H73.7734V70.1999H71.9134V83.0999C71.9134 84.2399 72.5734 84.9999 73.8534 84.9999H75.2534ZM81.4598 85.2399C84.2798 85.2399 86.1798 83.1199 86.1798 79.8199C86.1798 76.5199 84.2798 74.3999 81.4598 74.3999C78.6398 74.3999 76.7398 76.5199 76.7398 79.8199C76.7398 83.1199 78.6398 85.2399 81.4598 85.2399ZM81.4598 83.6399C79.8398 83.6399 78.7198 82.6199 78.7198 80.5999V79.0399C78.7198 77.0199 79.8398 75.9999 81.4598 75.9999C83.0798 75.9999 84.1998 77.0199 84.1998 79.0399V80.5999C84.1998 82.6199 83.0798 83.6399 81.4598 83.6399ZM88.7103 88.9999H90.5703V83.2999H90.6503C91.1303 84.5799 92.2103 85.2399 93.6303 85.2399C96.2303 85.2399 97.7903 83.1799 97.7903 79.8199C97.7903 76.4599 96.2303 74.3999 93.6303 74.3999C92.2103 74.3999 91.1303 75.0599 90.6503 76.3399H90.5703V74.6399H88.7103V88.9999ZM93.0903 83.6199C91.6903 83.6199 90.5703 82.8199 90.5703 81.7199V77.9199C90.5703 76.8199 91.6903 76.0199 93.0903 76.0199C94.7503 76.0199 95.8103 77.1999 95.8103 78.9399V80.6999C95.8103 82.4399 94.7503 83.6199 93.0903 83.6199ZM104.37 85.2399C106.31 85.2399 107.81 84.3399 108.53 82.9999L107.33 81.9799C106.77 83.0399 105.83 83.6599 104.53 83.6599C102.67 83.6599 101.61 82.4199 101.61 80.6999V80.2799H108.91V79.4999C108.91 76.5999 107.27 74.3999 104.37 74.3999C101.49 74.3999 99.6695 76.5399 99.6695 79.8199C99.6695 83.0999 101.49 85.2399 104.37 85.2399ZM104.37 75.8999C105.93 75.8999 106.93 77.0599 106.93 78.7799V78.9799H101.61V78.8399C101.61 77.1399 102.75 75.8999 104.37 75.8999ZM113.305 84.9999V78.1999C113.305 77.1799 114.305 76.4999 116.025 76.4999H116.945V74.6399H116.325C114.665 74.6399 113.745 75.5999 113.405 76.6199H113.305V74.6399H111.445V84.9999H113.305ZM37.54 111L32.72 97.0399H30.28L25.44 111H27.4L28.74 107.06H34.18L35.5 111H37.54ZM33.7 105.34H29.2L31.4 98.8199H31.5L33.7 105.34ZM41.1139 111H43.2739L44.6739 106.14L45.5339 103.1H45.5739L46.4539 106.14L47.8539 111H50.0539L52.8139 100.64H51.0739L49.9739 105.06L48.9939 109.32H48.9339L47.7339 105.06L46.4139 100.64H44.7539L43.4739 105.06L42.2939 109.32H42.2539L41.2139 105.06L40.1339 100.64H38.3339L41.1139 111ZM63.4431 111V109.42H62.2831V103.96C62.2831 101.72 60.8031 100.4 58.2231 100.4C56.3031 100.4 55.0831 101.3 54.4631 102.42L55.5831 103.44C56.1231 102.56 56.9031 101.96 58.1231 101.96C59.6831 101.96 60.4231 102.74 60.4231 104.12V105.06H58.4631C55.5031 105.06 54.0431 106.14 54.0431 108.14C54.0431 110.04 55.3031 111.24 57.4631 111.24C58.9431 111.24 60.0431 110.56 60.4631 109.28H60.5631C60.7031 110.28 61.2431 111 62.3831 111H63.4431ZM57.8831 109.74C56.7231 109.74 55.9831 109.2 55.9831 108.24V107.84C55.9831 106.88 56.7431 106.36 58.4431 106.36H60.4231V107.96C60.4231 109 59.3431 109.74 57.8831 109.74ZM67.5234 111V104.2C67.5234 103.18 68.5234 102.5 70.2434 102.5H71.1634V100.64H70.5434C68.8834 100.64 67.9634 101.6 67.6234 102.62H67.5234V100.64H65.6634V111H67.5234ZM77.0258 111.24C78.9658 111.24 80.4658 110.34 81.1858 109L79.9858 107.98C79.4258 109.04 78.4858 109.66 77.1858 109.66C75.3258 109.66 74.2658 108.42 74.2658 106.7V106.28H81.5658V105.5C81.5658 102.6 79.9258 100.4 77.0258 100.4C74.1458 100.4 72.3258 102.54 72.3258 105.82C72.3258 109.1 74.1458 111.24 77.0258 111.24ZM77.0258 101.9C78.5858 101.9 79.5858 103.06 79.5858 104.78V104.98H74.2658V104.84C74.2658 103.14 75.4058 101.9 77.0258 101.9ZM85.9609 111V103.9C85.9609 102.64 87.1409 102.02 88.3609 102.02C89.8209 102.02 90.5409 102.92 90.5409 104.66V111H92.4009V104.38C92.4009 101.86 91.1009 100.4 88.9809 100.4C87.4209 100.4 86.5409 101.2 86.0609 102.34H85.9609V100.64H84.1009V111H85.9609ZM99.5258 111.24C101.466 111.24 102.966 110.34 103.686 109L102.486 107.98C101.926 109.04 100.986 109.66 99.6858 109.66C97.8258 109.66 96.7658 108.42 96.7658 106.7V106.28H104.066V105.5C104.066 102.6 102.426 100.4 99.5258 100.4C96.6458 100.4 94.8258 102.54 94.8258 105.82C94.8258 109.1 96.6458 111.24 99.5258 111.24ZM99.5258 101.9C101.086 101.9 102.086 103.06 102.086 104.78V104.98H96.7658V104.84C96.7658 103.14 97.9058 101.9 99.5258 101.9ZM109.781 111.24C112.221 111.24 113.741 109.98 113.741 107.96C113.741 106.36 112.801 105.36 110.521 105.02L109.641 104.88C108.441 104.7 107.841 104.32 107.841 103.4C107.841 102.52 108.481 101.94 109.741 101.94C110.981 101.94 111.861 102.52 112.361 103.18L113.541 102.06C112.661 101.02 111.561 100.4 109.801 100.4C107.621 100.4 106.041 101.48 106.041 103.52C106.041 105.44 107.421 106.26 109.401 106.54L110.281 106.68C111.541 106.86 111.941 107.4 111.941 108.16C111.941 109.12 111.221 109.7 109.901 109.7C108.641 109.7 107.681 109.14 106.901 108.16L105.641 109.24C106.601 110.46 107.861 111.24 109.781 111.24ZM119.468 111.24C121.908 111.24 123.428 109.98 123.428 107.96C123.428 106.36 122.488 105.36 120.208 105.02L119.328 104.88C118.128 104.7 117.528 104.32 117.528 103.4C117.528 102.52 118.168 101.94 119.428 101.94C120.668 101.94 121.548 102.52 122.048 103.18L123.228 102.06C122.348 101.02 121.248 100.4 119.488 100.4C117.308 100.4 115.728 101.48 115.728 103.52C115.728 105.44 117.108 106.26 119.088 106.54L119.968 106.68C121.228 106.86 121.628 107.4 121.628 108.16C121.628 109.12 120.908 109.7 119.588 109.7C118.328 109.7 117.368 109.14 116.588 108.16L115.328 109.24C116.288 110.46 117.548 111.24 119.468 111.24Z" fill="#242A31"/>
<path d="M386.125 41.9999H185.847C184.228 41.9999 183.28 43.8236 184.21 45.149L214.542 88.3628C215.022 89.0465 215.027 89.9565 214.553 90.6448L184.154 134.867C183.241 136.194 184.192 138 185.802 138H386.11C386.774 138 387.395 137.67 387.767 137.12L419.234 90.5409C419.696 89.8575 419.691 88.9608 419.221 88.2827L387.769 42.8614C387.395 42.3219 386.781 41.9999 386.125 41.9999Z" fill="#F5F7F9"/>
<path d="M248.08 85.2399C251.7 85.2399 254.04 82.7199 254.04 78.0199C254.04 73.3199 251.7 70.7999 248.08 70.7999C244.46 70.7999 242.12 73.3199 242.12 78.0199C242.12 82.7199 244.46 85.2399 248.08 85.2399ZM248.08 83.4999C245.76 83.4999 244.2 81.8199 244.2 79.1599V76.8799C244.2 74.2199 245.76 72.5399 248.08 72.5399C250.4 72.5399 251.96 74.2199 251.96 76.8799V79.1599C251.96 81.8199 250.4 83.4999 248.08 83.4999ZM260.961 85.2399C264.061 85.2399 265.881 83.5599 265.881 80.9799C265.881 78.8399 264.661 77.6199 261.921 77.0199L260.741 76.7799C259.081 76.4199 258.301 75.8599 258.301 74.6199C258.301 73.2399 259.321 72.4999 261.021 72.4999C262.601 72.4999 263.621 73.1399 264.361 74.1599L265.781 73.0199C264.721 71.5799 263.221 70.7999 261.121 70.7999C258.261 70.7999 256.381 72.2199 256.381 74.6999C256.381 76.8799 257.761 78.0599 260.381 78.5999L261.561 78.8399C263.301 79.2199 263.961 79.8599 263.961 81.0799C263.961 82.5599 262.941 83.5399 261.041 83.5399C259.481 83.5399 258.321 82.8599 257.341 81.5999L255.961 82.8399C257.081 84.3199 258.681 85.2399 260.961 85.2399ZM272.504 85.2399C275.604 85.2399 277.424 83.5599 277.424 80.9799C277.424 78.8399 276.204 77.6199 273.464 77.0199L272.284 76.7799C270.624 76.4199 269.844 75.8599 269.844 74.6199C269.844 73.2399 270.864 72.4999 272.564 72.4999C274.144 72.4999 275.164 73.1399 275.904 74.1599L277.324 73.0199C276.264 71.5799 274.764 70.7999 272.664 70.7999C269.804 70.7999 267.924 72.2199 267.924 74.6999C267.924 76.8799 269.304 78.0599 271.924 78.5999L273.104 78.8399C274.844 79.2199 275.504 79.8599 275.504 81.0799C275.504 82.5599 274.484 83.5399 272.584 83.5399C271.024 83.5399 269.864 82.8599 268.884 81.5999L267.504 82.8399C268.624 84.3199 270.224 85.2399 272.504 85.2399ZM247.86 111.24C250.22 111.24 251.92 110.02 252.82 108.02L251.26 107.08C250.74 108.52 249.58 109.5 247.86 109.5C245.58 109.5 244.2 107.8 244.2 105.08V102.96C244.2 100.24 245.58 98.5399 247.86 98.5399C249.54 98.5399 250.62 99.4399 251.14 100.82L252.74 99.8999C251.84 97.8999 250.22 96.7999 247.86 96.7999C244.3 96.7999 242.12 99.3599 242.12 104.02C242.12 108.68 244.3 111.24 247.86 111.24ZM259.159 111.24C261.979 111.24 263.879 109.12 263.879 105.82C263.879 102.52 261.979 100.4 259.159 100.4C256.339 100.4 254.439 102.52 254.439 105.82C254.439 109.12 256.339 111.24 259.159 111.24ZM259.159 109.64C257.539 109.64 256.419 108.62 256.419 106.6V105.04C256.419 103.02 257.539 102 259.159 102C260.779 102 261.899 103.02 261.899 105.04V106.6C261.899 108.62 260.779 109.64 259.159 109.64ZM268.27 111V103.9C268.27 102.64 269.41 102.02 270.59 102.02C272.01 102.02 272.67 102.92 272.67 104.66V111H274.53V103.9C274.53 102.64 275.63 102.02 276.83 102.02C278.27 102.02 278.93 102.92 278.93 104.66V111H280.79V104.38C280.79 101.86 279.55 100.4 277.47 100.4C275.73 100.4 274.69 101.38 274.31 102.5H274.27C273.73 101.04 272.51 100.4 271.13 100.4C269.75 100.4 268.81 101.28 268.37 102.34H268.27V100.64H266.41V111H268.27ZM285.809 111V103.9C285.809 102.64 286.949 102.02 288.129 102.02C289.549 102.02 290.209 102.92 290.209 104.66V111H292.069V103.9C292.069 102.64 293.169 102.02 294.369 102.02C295.809 102.02 296.469 102.92 296.469 104.66V111H298.329V104.38C298.329 101.86 297.089 100.4 295.009 100.4C293.269 100.4 292.229 101.38 291.849 102.5H291.809C291.269 101.04 290.049 100.4 288.669 100.4C287.289 100.4 286.349 101.28 285.909 102.34H285.809V100.64H283.949V111H285.809ZM307.828 111H309.688V100.64H307.828V107.72C307.828 109.02 306.628 109.62 305.448 109.62C303.988 109.62 303.248 108.72 303.248 106.98V100.64H301.388V107.26C301.388 109.78 302.708 111.24 304.828 111.24C306.548 111.24 307.348 110.3 307.728 109.3H307.828V111ZM314.832 111V103.9C314.832 102.64 316.012 102.02 317.232 102.02C318.692 102.02 319.412 102.92 319.412 104.66V111H321.272V104.38C321.272 101.86 319.972 100.4 317.852 100.4C316.292 100.4 315.412 101.2 314.932 102.34H314.832V100.64H312.972V111H314.832ZM325.377 98.4799C326.157 98.4799 326.497 98.0599 326.497 97.4599V97.1799C326.497 96.5799 326.157 96.1599 325.377 96.1599C324.597 96.1599 324.257 96.5799 324.257 97.1799V97.4599C324.257 98.0599 324.597 98.4799 325.377 98.4799ZM324.437 111H326.297V100.64H324.437V111ZM334.074 111V109.42H332.014V102.22H334.234V100.64H332.014V97.7799H330.334V99.6799C330.334 100.38 330.114 100.64 329.414 100.64H328.494V102.22H330.154V109.04C330.154 110.24 330.834 111 332.114 111H334.074ZM340.782 107.26L340.182 109.2H340.082L339.542 107.26L337.242 100.64H335.382L339.222 111.42L338.522 113.42H336.822V115H337.842C339.422 115 339.922 114.56 340.402 113.26L344.902 100.64H343.102L340.782 107.26Z" fill="#242A31"/>
<path d="M594.26 41.9999H394.838C393.221 41.9999 392.272 43.82 393.199 45.1457L423.408 88.366C423.885 89.0483 423.889 89.9546 423.419 90.6415L393.142 134.87C392.234 136.198 393.184 138 394.793 138H594.245C594.911 138 595.533 137.669 595.905 137.116L627.24 90.5376C627.698 89.8557 627.693 88.9625 627.227 88.2859L595.907 42.8646C595.533 42.3232 594.918 41.9999 594.26 41.9999Z" fill="#F5F7F9"/>
<path d="M454.82 85.2399C457.92 85.2399 459.74 83.5599 459.74 80.9799C459.74 78.8399 458.52 77.6199 455.78 77.0199L454.6 76.7799C452.94 76.4199 452.16 75.8599 452.16 74.6199C452.16 73.2399 453.18 72.4999 454.88 72.4999C456.46 72.4999 457.48 73.1399 458.22 74.1599L459.64 73.0199C458.58 71.5799 457.08 70.7999 454.98 70.7999C452.12 70.7999 450.24 72.2199 450.24 74.6999C450.24 76.8799 451.62 78.0599 454.24 78.5999L455.42 78.8399C457.16 79.2199 457.82 79.8599 457.82 81.0799C457.82 82.5599 456.8 83.5399 454.9 83.5399C453.34 83.5399 452.18 82.8599 451.2 81.5999L449.82 82.8399C450.94 84.3199 452.54 85.2399 454.82 85.2399ZM466.358 85.2399C468.298 85.2399 469.798 84.3399 470.518 82.9999L469.318 81.9799C468.758 83.0399 467.818 83.6599 466.518 83.6599C464.658 83.6599 463.598 82.4199 463.598 80.6999V80.2799H470.898V79.4999C470.898 76.5999 469.258 74.3999 466.358 74.3999C463.478 74.3999 461.658 76.5399 461.658 79.8199C461.658 83.0999 463.478 85.2399 466.358 85.2399ZM466.358 75.8999C467.918 75.8999 468.918 77.0599 468.918 78.7799V78.9799H463.598V78.8399C463.598 77.1399 464.738 75.8999 466.358 75.8999ZM476.773 84.9999V83.4199H475.293V70.1999H473.433V83.0999C473.433 84.2399 474.093 84.9999 475.373 84.9999H476.773ZM479.559 84.9999H481.419V76.2199H483.599V74.6399H481.419V71.7799H483.599V70.1999H481.979C480.359 70.1999 479.559 71.1999 479.559 72.7199V74.6399H477.899V76.2199H479.559V84.9999ZM490.66 79.8799V77.9399H485.3V79.8799H490.66ZM497.418 85.2399C500.518 85.2399 502.338 83.5599 502.338 80.9799C502.338 78.8399 501.118 77.6199 498.378 77.0199L497.198 76.7799C495.538 76.4199 494.758 75.8599 494.758 74.6199C494.758 73.2399 495.778 72.4999 497.478 72.4999C499.058 72.4999 500.078 73.1399 500.818 74.1599L502.238 73.0199C501.178 71.5799 499.678 70.7999 497.578 70.7999C494.718 70.7999 492.838 72.2199 492.838 74.6999C492.838 76.8799 494.218 78.0599 496.838 78.5999L498.018 78.8399C499.758 79.2199 500.418 79.8599 500.418 81.0799C500.418 82.5599 499.398 83.5399 497.498 83.5399C495.938 83.5399 494.778 82.8599 493.798 81.5999L492.418 82.8399C493.538 84.3199 495.138 85.2399 497.418 85.2399ZM508.955 85.2399C510.895 85.2399 512.395 84.3399 513.115 82.9999L511.915 81.9799C511.355 83.0399 510.415 83.6599 509.115 83.6599C507.255 83.6599 506.195 82.4199 506.195 80.6999V80.2799H513.495V79.4999C513.495 76.5999 511.855 74.3999 508.955 74.3999C506.075 74.3999 504.255 76.5399 504.255 79.8199C504.255 83.0999 506.075 85.2399 508.955 85.2399ZM508.955 75.8999C510.515 75.8999 511.515 77.0599 511.515 78.7799V78.9799H506.195V78.8399C506.195 77.1399 507.335 75.8999 508.955 75.8999ZM517.891 84.9999V78.1999C517.891 77.1799 518.891 76.4999 520.611 76.4999H521.531V74.6399H520.911C519.251 74.6399 518.331 75.5999 517.991 76.6199H517.891V74.6399H516.031V84.9999H517.891ZM528.146 84.9999L531.746 74.6399H529.966L528.246 79.5999L527.146 83.1799H527.026L525.946 79.5999L524.246 74.6399H522.386L525.966 84.9999H528.146ZM537.51 85.2399C539.45 85.2399 540.95 84.3399 541.67 82.9999L540.47 81.9799C539.91 83.0399 538.97 83.6599 537.67 83.6599C535.81 83.6599 534.75 82.4199 534.75 80.6999V80.2799H542.05V79.4999C542.05 76.5999 540.41 74.3999 537.51 74.3999C534.63 74.3999 532.81 76.5399 532.81 79.8199C532.81 83.0999 534.63 85.2399 537.51 85.2399ZM537.51 75.8999C539.07 75.8999 540.07 77.0599 540.07 78.7799V78.9799H534.75V78.8399C534.75 77.1399 535.89 75.8999 537.51 75.8999ZM454.82 111.24C457.92 111.24 459.74 109.56 459.74 106.98C459.74 104.84 458.52 103.62 455.78 103.02L454.6 102.78C452.94 102.42 452.16 101.86 452.16 100.62C452.16 99.2399 453.18 98.4999 454.88 98.4999C456.46 98.4999 457.48 99.1399 458.22 100.16L459.64 99.0199C458.58 97.5799 457.08 96.7999 454.98 96.7999C452.12 96.7999 450.24 98.2199 450.24 100.7C450.24 102.88 451.62 104.06 454.24 104.6L455.42 104.84C457.16 105.22 457.82 105.86 457.82 107.08C457.82 108.56 456.8 109.54 454.9 109.54C453.34 109.54 452.18 108.86 451.2 107.6L449.82 108.84C450.94 110.32 452.54 111.24 454.82 111.24ZM470.998 111V109.42H469.838V103.96C469.838 101.72 468.358 100.4 465.778 100.4C463.858 100.4 462.638 101.3 462.018 102.42L463.138 103.44C463.678 102.56 464.458 101.96 465.678 101.96C467.238 101.96 467.978 102.74 467.978 104.12V105.06H466.018C463.058 105.06 461.598 106.14 461.598 108.14C461.598 110.04 462.858 111.24 465.018 111.24C466.498 111.24 467.598 110.56 468.018 109.28H468.118C468.258 110.28 468.798 111 469.938 111H470.998ZM465.438 109.74C464.278 109.74 463.538 109.2 463.538 108.24V107.84C463.538 106.88 464.298 106.36 465.998 106.36H467.978V107.96C467.978 109 466.898 109.74 465.438 109.74ZM481.818 111V109.42H480.658V103.96C480.658 101.72 479.178 100.4 476.598 100.4C474.678 100.4 473.458 101.3 472.838 102.42L473.958 103.44C474.498 102.56 475.278 101.96 476.498 101.96C478.058 101.96 478.798 102.74 478.798 104.12V105.06H476.838C473.878 105.06 472.418 106.14 472.418 108.14C472.418 110.04 473.678 111.24 475.838 111.24C477.318 111.24 478.418 110.56 478.838 109.28H478.938C479.078 110.28 479.618 111 480.758 111H481.818ZM476.258 109.74C475.098 109.74 474.358 109.2 474.358 108.24V107.84C474.358 106.88 475.118 106.36 476.818 106.36H478.798V107.96C478.798 109 477.718 109.74 476.258 109.74ZM488.218 111.24C491.318 111.24 493.138 109.56 493.138 106.98C493.138 104.84 491.918 103.62 489.178 103.02L487.998 102.78C486.338 102.42 485.558 101.86 485.558 100.62C485.558 99.2399 486.578 98.4999 488.278 98.4999C489.858 98.4999 490.878 99.1399 491.618 100.16L493.038 99.0199C491.978 97.5799 490.478 96.7999 488.378 96.7999C485.518 96.7999 483.638 98.2199 483.638 100.7C483.638 102.88 485.018 104.06 487.638 104.6L488.818 104.84C490.558 105.22 491.218 105.86 491.218 107.08C491.218 108.56 490.198 109.54 488.298 109.54C486.738 109.54 485.578 108.86 484.598 107.6L483.218 108.84C484.338 110.32 485.938 111.24 488.218 111.24Z" fill="#242A31"/>
<path d="M802.26 41.9999H602.838C601.221 41.9999 600.272 43.82 601.199 45.1457L631.408 88.366C631.885 89.0483 631.889 89.9546 631.419 90.6415L601.142 134.87C600.234 136.198 601.184 138 602.793 138H802.245C802.911 138 803.533 137.669 803.905 137.116L835.24 90.5376C835.698 89.8557 835.693 88.9625 835.227 88.2859L803.907 42.8646C803.533 42.3232 802.918 41.9999 802.26 41.9999Z" fill="#F5F7F9"/>
<path d="M663.98 84.9999V83.3599H662.04V72.6799H663.98V71.0399H658.16V72.6799H660.1V83.3599H658.16V84.9999H663.98ZM668.645 84.9999V77.8999C668.645 76.6399 669.825 76.0199 671.045 76.0199C672.505 76.0199 673.225 76.9199 673.225 78.6599V84.9999H675.085V78.3799C675.085 75.8599 673.785 74.3999 671.665 74.3999C670.105 74.3999 669.225 75.1999 668.745 76.3399H668.645V74.6399H666.785V84.9999H668.645ZM681.429 85.2399C683.869 85.2399 685.389 83.9799 685.389 81.9599C685.389 80.3599 684.449 79.3599 682.169 79.0199L681.289 78.8799C680.089 78.6999 679.489 78.3199 679.489 77.3999C679.489 76.5199 680.129 75.9399 681.389 75.9399C682.629 75.9399 683.509 76.5199 684.009 77.1799L685.189 76.0599C684.309 75.0199 683.209 74.3999 681.449 74.3999C679.269 74.3999 677.689 75.4799 677.689 77.5199C677.689 79.4399 679.069 80.2599 681.049 80.5399L681.929 80.6799C683.189 80.8599 683.589 81.3999 683.589 82.1599C683.589 83.1199 682.869 83.6999 681.549 83.6999C680.289 83.6999 679.329 83.1399 678.549 82.1599L677.289 83.2399C678.249 84.4599 679.509 85.2399 681.429 85.2399ZM688.994 72.4799C689.774 72.4799 690.114 72.0599 690.114 71.4599V71.1799C690.114 70.5799 689.774 70.1599 688.994 70.1599C688.214 70.1599 687.874 70.5799 687.874 71.1799V71.4599C687.874 72.0599 688.214 72.4799 688.994 72.4799ZM688.054 84.9999H689.914V74.6399H688.054V84.9999ZM699.751 84.9999H701.611V70.1999H699.751V76.3399H699.671C699.191 75.0599 698.111 74.3999 696.691 74.3999C694.091 74.3999 692.531 76.4599 692.531 79.8199C692.531 83.1799 694.091 85.2399 696.691 85.2399C698.111 85.2399 699.191 84.5799 699.671 83.2999H699.751V84.9999ZM697.231 83.6199C695.571 83.6199 694.511 82.4399 694.511 80.6999V78.9399C694.511 77.1999 695.571 76.0199 697.231 76.0199C698.631 76.0199 699.751 76.8199 699.751 77.9199V81.7199C699.751 82.8199 698.631 83.6199 697.231 83.6199ZM708.85 85.2399C710.79 85.2399 712.29 84.3399 713.01 82.9999L711.81 81.9799C711.25 83.0399 710.31 83.6599 709.01 83.6599C707.15 83.6599 706.09 82.4199 706.09 80.6999V80.2799H713.39V79.4999C713.39 76.5999 711.75 74.3999 708.85 74.3999C705.97 74.3999 704.15 76.5399 704.15 79.8199C704.15 83.0999 705.97 85.2399 708.85 85.2399ZM708.85 75.8999C710.41 75.8999 711.41 77.0599 711.41 78.7799V78.9799H706.09V78.8399C706.09 77.1399 707.23 75.8999 708.85 75.8999ZM662.82 111.24C665.92 111.24 667.74 109.56 667.74 106.98C667.74 104.84 666.52 103.62 663.78 103.02L662.6 102.78C660.94 102.42 660.16 101.86 660.16 100.62C660.16 99.2399 661.18 98.4999 662.88 98.4999C664.46 98.4999 665.48 99.1399 666.22 100.16L667.64 99.0199C666.58 97.5799 665.08 96.7999 662.98 96.7999C660.12 96.7999 658.24 98.2199 658.24 100.7C658.24 102.88 659.62 104.06 662.24 104.6L663.42 104.84C665.16 105.22 665.82 105.86 665.82 107.08C665.82 108.56 664.8 109.54 662.9 109.54C661.34 109.54 660.18 108.86 659.2 107.6L657.82 108.84C658.94 110.32 660.54 111.24 662.82 111.24ZM678.998 111V109.42H677.838V103.96C677.838 101.72 676.358 100.4 673.778 100.4C671.858 100.4 670.638 101.3 670.018 102.42L671.138 103.44C671.678 102.56 672.458 101.96 673.678 101.96C675.238 101.96 675.978 102.74 675.978 104.12V105.06H674.018C671.058 105.06 669.598 106.14 669.598 108.14C669.598 110.04 670.858 111.24 673.018 111.24C674.498 111.24 675.598 110.56 676.018 109.28H676.118C676.258 110.28 676.798 111 677.938 111H678.998ZM673.438 109.74C672.278 109.74 671.538 109.2 671.538 108.24V107.84C671.538 106.88 672.298 106.36 673.998 106.36H675.978V107.96C675.978 109 674.898 109.74 673.438 109.74ZM684.558 111V109.42H683.078V96.1999H681.218V109.1C681.218 110.24 681.878 111 683.158 111H684.558ZM690.745 111.24C692.685 111.24 694.185 110.34 694.905 109L693.705 107.98C693.145 109.04 692.205 109.66 690.905 109.66C689.045 109.66 687.985 108.42 687.985 106.7V106.28H695.285V105.5C695.285 102.6 693.645 100.4 690.745 100.4C687.865 100.4 686.045 102.54 686.045 105.82C686.045 109.1 687.865 111.24 690.745 111.24ZM690.745 101.9C692.305 101.9 693.305 103.06 693.305 104.78V104.98H687.985V104.84C687.985 103.14 689.125 101.9 690.745 101.9ZM701 111.24C703.44 111.24 704.96 109.98 704.96 107.96C704.96 106.36 704.02 105.36 701.74 105.02L700.86 104.88C699.66 104.7 699.06 104.32 699.06 103.4C699.06 102.52 699.7 101.94 700.96 101.94C702.2 101.94 703.08 102.52 703.58 103.18L704.76 102.06C703.88 101.02 702.78 100.4 701.02 100.4C698.84 100.4 697.26 101.48 697.26 103.52C697.26 105.44 698.64 106.26 700.62 106.54L701.5 106.68C702.76 106.86 703.16 107.4 703.16 108.16C703.16 109.12 702.44 109.7 701.12 109.7C699.86 109.7 698.9 109.14 698.12 108.16L696.86 109.24C697.82 110.46 699.08 111.24 701 111.24Z" fill="#242A31"/>
<path d="M1010 41.9999H810.845C809.227 41.9999 808.278 43.8229 809.208 45.1483L839.515 88.3634C839.995 89.0469 839.999 89.9561 839.527 90.6442L809.151 134.868C808.24 136.195 809.19 138 810.8 138H1010C1011.1 138 1012 137.105 1012 136V89.4073V43.9999C1012 42.8954 1011.1 41.9999 1010 41.9999Z" fill="#F5F7F9"/>
<path d="M875.5 84.9999V83.2799H868.74V78.7999H875V77.0799H868.74V72.7599H875.5V71.0399H866.8V84.9999H875.5ZM880.258 84.9999V77.8999C880.258 76.6399 881.438 76.0199 882.658 76.0199C884.118 76.0199 884.838 76.9199 884.838 78.6599V84.9999H886.698V78.3799C886.698 75.8599 885.398 74.3999 883.278 74.3999C881.718 74.3999 880.838 75.1999 880.358 76.3399H880.258V74.6399H878.398V84.9999H880.258ZM894.363 84.9999V83.4199H892.303V76.2199H894.523V74.6399H892.303V71.7799H890.623V73.6799C890.623 74.3799 890.403 74.6399 889.703 74.6399H888.783V76.2199H890.443V83.0399C890.443 84.2399 891.123 84.9999 892.403 84.9999H894.363ZM900.893 85.2399C902.833 85.2399 904.333 84.3399 905.053 82.9999L903.853 81.9799C903.293 83.0399 902.353 83.6599 901.053 83.6599C899.193 83.6599 898.133 82.4199 898.133 80.6999V80.2799H905.433V79.4999C905.433 76.5999 903.793 74.3999 900.893 74.3999C898.013 74.3999 896.193 76.5399 896.193 79.8199C896.193 83.0999 898.013 85.2399 900.893 85.2399ZM900.893 75.8999C902.453 75.8999 903.453 77.0599 903.453 78.7799V78.9799H898.133V78.8399C898.133 77.1399 899.273 75.8999 900.893 75.8999ZM909.828 84.9999V78.1999C909.828 77.1799 910.828 76.4999 912.548 76.4999H913.468V74.6399H912.848C911.188 74.6399 910.268 75.5999 909.928 76.6199H909.828V74.6399H907.968V84.9999H909.828ZM915.468 88.9999H917.328V83.2999H917.408C917.888 84.5799 918.968 85.2399 920.388 85.2399C922.988 85.2399 924.548 83.1799 924.548 79.8199C924.548 76.4599 922.988 74.3999 920.388 74.3999C918.968 74.3999 917.888 75.0599 917.408 76.3399H917.328V74.6399H915.468V88.9999ZM919.848 83.6199C918.448 83.6199 917.328 82.8199 917.328 81.7199V77.9199C917.328 76.8199 918.448 76.0199 919.848 76.0199C921.508 76.0199 922.568 77.1999 922.568 78.9399V80.6999C922.568 82.4399 921.508 83.6199 919.848 83.6199ZM929.027 84.9999V78.1999C929.027 77.1799 930.027 76.4999 931.747 76.4999H932.667V74.6399H932.047C930.387 74.6399 929.467 75.5999 929.127 76.6199H929.027V74.6399H927.167V84.9999H929.027ZM935.607 72.4799C936.387 72.4799 936.727 72.0599 936.727 71.4599V71.1799C936.727 70.5799 936.387 70.1599 935.607 70.1599C934.827 70.1599 934.487 70.5799 934.487 71.1799V71.4599C934.487 72.0599 934.827 72.4799 935.607 72.4799ZM934.667 84.9999H936.527V74.6399H934.667V84.9999ZM942.984 85.2399C945.424 85.2399 946.944 83.9799 946.944 81.9599C946.944 80.3599 946.004 79.3599 943.724 79.0199L942.844 78.8799C941.644 78.6999 941.044 78.3199 941.044 77.3999C941.044 76.5199 941.684 75.9399 942.944 75.9399C944.184 75.9399 945.064 76.5199 945.564 77.1799L946.744 76.0599C945.864 75.0199 944.764 74.3999 943.004 74.3999C940.824 74.3999 939.244 75.4799 939.244 77.5199C939.244 79.4399 940.624 80.2599 942.604 80.5399L943.484 80.6799C944.744 80.8599 945.144 81.3999 945.144 82.1599C945.144 83.1199 944.424 83.6999 943.104 83.6999C941.844 83.6999 940.884 83.1399 940.104 82.1599L938.844 83.2399C939.804 84.4599 941.064 85.2399 942.984 85.2399ZM953.569 85.2399C955.509 85.2399 957.009 84.3399 957.729 82.9999L956.529 81.9799C955.969 83.0399 955.029 83.6599 953.729 83.6599C951.869 83.6599 950.809 82.4199 950.809 80.6999V80.2799H958.109V79.4999C958.109 76.5999 956.469 74.3999 953.569 74.3999C950.689 74.3999 948.869 76.5399 948.869 79.8199C948.869 83.0999 950.689 85.2399 953.569 85.2399ZM953.569 75.8999C955.129 75.8999 956.129 77.0599 956.129 78.7799V78.9799H950.809V78.8399C950.809 77.1399 951.949 75.8999 953.569 75.8999ZM870.82 111.24C873.92 111.24 875.74 109.56 875.74 106.98C875.74 104.84 874.52 103.62 871.78 103.02L870.6 102.78C868.94 102.42 868.16 101.86 868.16 100.62C868.16 99.2399 869.18 98.4999 870.88 98.4999C872.46 98.4999 873.48 99.1399 874.22 100.16L875.64 99.0199C874.58 97.5799 873.08 96.7999 870.98 96.7999C868.12 96.7999 866.24 98.2199 866.24 100.7C866.24 102.88 867.62 104.06 870.24 104.6L871.42 104.84C873.16 105.22 873.82 105.86 873.82 107.08C873.82 108.56 872.8 109.54 870.9 109.54C869.34 109.54 868.18 108.86 867.2 107.6L865.82 108.84C866.94 110.32 868.54 111.24 870.82 111.24ZM886.998 111V109.42H885.838V103.96C885.838 101.72 884.358 100.4 881.778 100.4C879.858 100.4 878.638 101.3 878.018 102.42L879.138 103.44C879.678 102.56 880.458 101.96 881.678 101.96C883.238 101.96 883.978 102.74 883.978 104.12V105.06H882.018C879.058 105.06 877.598 106.14 877.598 108.14C877.598 110.04 878.858 111.24 881.018 111.24C882.498 111.24 883.598 110.56 884.018 109.28H884.118C884.258 110.28 884.798 111 885.938 111H886.998ZM881.438 109.74C880.278 109.74 879.538 109.2 879.538 108.24V107.84C879.538 106.88 880.298 106.36 881.998 106.36H883.978V107.96C883.978 109 882.898 109.74 881.438 109.74ZM892.558 111V109.42H891.078V96.1999H889.218V109.1C889.218 110.24 889.878 111 891.158 111H892.558ZM898.745 111.24C900.685 111.24 902.185 110.34 902.905 109L901.705 107.98C901.145 109.04 900.205 109.66 898.905 109.66C897.045 109.66 895.985 108.42 895.985 106.7V106.28H903.285V105.5C903.285 102.6 901.645 100.4 898.745 100.4C895.865 100.4 894.045 102.54 894.045 105.82C894.045 109.1 895.865 111.24 898.745 111.24ZM898.745 101.9C900.305 101.9 901.305 103.06 901.305 104.78V104.98H895.985V104.84C895.985 103.14 897.125 101.9 898.745 101.9ZM909 111.24C911.44 111.24 912.96 109.98 912.96 107.96C912.96 106.36 912.02 105.36 909.74 105.02L908.86 104.88C907.66 104.7 907.06 104.32 907.06 103.4C907.06 102.52 907.7 101.94 908.96 101.94C910.2 101.94 911.08 102.52 911.58 103.18L912.76 102.06C911.88 101.02 910.78 100.4 909.02 100.4C906.84 100.4 905.26 101.48 905.26 103.52C905.26 105.44 906.64 106.26 908.62 106.54L909.5 106.68C910.76 106.86 911.16 107.4 911.16 108.16C911.16 109.12 910.44 109.7 909.12 109.7C907.86 109.7 906.9 109.14 906.12 108.16L904.86 109.24C905.82 110.46 907.08 111.24 909 111.24Z" fill="#242A31"/>
<path d="M80.3357 11.9999V7.39193H83.3917C85.4077 7.39193 86.5597 6.09593 86.5597 4.11193C86.5597 2.12793 85.4077 0.83193 83.3917 0.83193H78.7837V11.9999H80.3357ZM80.3357 2.20793H83.3277C84.3197 2.20793 84.9117 2.75193 84.9117 3.71193V4.51193C84.9117 5.47193 84.3197 6.01593 83.3277 6.01593H80.3357V2.20793Z" fill="#3C454E"/>
<path d="M89.8468 11.9999V6.55993C89.8468 5.74393 90.6468 5.19993 92.0228 5.19993H92.7588V3.71193H92.2628C90.9348 3.71193 90.1988 4.47993 89.9268 5.29593H89.8468V3.71193H88.3588V11.9999H89.8468Z" fill="#3C454E"/>
<path d="M97.4647 12.1919C99.7207 12.1919 101.241 10.4959 101.241 7.85593C101.241 5.21593 99.7207 3.51993 97.4647 3.51993C95.2087 3.51993 93.6887 5.21593 93.6887 7.85593C93.6887 10.4959 95.2087 12.1919 97.4647 12.1919ZM97.4647 10.9119C96.1687 10.9119 95.2727 10.0959 95.2727 8.47993V7.23193C95.2727 5.61593 96.1687 4.79993 97.4647 4.79993C98.7607 4.79993 99.6567 5.61593 99.6567 7.23193V8.47993C99.6567 10.0959 98.7607 10.9119 97.4647 10.9119Z" fill="#3C454E"/>
<path d="M103.265 13.9359H101.937V15.1999H102.849C104.161 15.1999 104.753 14.4159 104.753 13.1999V3.71193H103.265V13.9359ZM104.017 1.98393C104.641 1.98393 104.913 1.64793 104.913 1.16793V0.94393C104.913 0.46393 104.641 0.12793 104.017 0.12793C103.393 0.12793 103.121 0.46393 103.121 0.94393V1.16793C103.121 1.64793 103.393 1.98393 104.017 1.98393Z" fill="#3C454E"/>
<path d="M110.542 12.1919C112.094 12.1919 113.294 11.4719 113.87 10.3999L112.91 9.58393C112.462 10.4319 111.71 10.9279 110.67 10.9279C109.182 10.9279 108.334 9.93593 108.334 8.55993V8.22393H114.174V7.59993C114.174 5.27993 112.862 3.51993 110.542 3.51993C108.238 3.51993 106.782 5.23193 106.782 7.85593C106.782 10.4799 108.238 12.1919 110.542 12.1919ZM110.542 4.71993C111.79 4.71993 112.59 5.64793 112.59 7.02393V7.18393H108.334V7.07193C108.334 5.71193 109.246 4.71993 110.542 4.71993Z" fill="#3C454E"/>
<path d="M119.339 12.1919C120.923 12.1919 122.011 11.4239 122.539 10.1759L121.451 9.50393C121.035 10.3999 120.347 10.9119 119.339 10.9119C117.915 10.9119 117.195 9.93593 117.195 8.57593V7.13593C117.195 5.77593 117.915 4.79993 119.339 4.79993C120.299 4.79993 120.971 5.29593 121.243 6.11193L122.475 5.50393C121.995 4.31993 120.971 3.51993 119.339 3.51993C116.971 3.51993 115.611 5.19993 115.611 7.85593C115.611 10.5119 116.971 12.1919 119.339 12.1919Z" fill="#3C454E"/>
<path d="M127.881 11.9999V10.7359H126.233V4.97593H128.009V3.71193H126.233V1.42393H124.889V2.94393C124.889 3.50393 124.713 3.71193 124.153 3.71193H123.417V4.97593H124.745V10.4319C124.745 11.3919 125.289 11.9999 126.313 11.9999H127.881Z" fill="#3C454E"/>
<path d="M137.813 7.90393V6.35193H133.525V7.90393H137.813Z" fill="#3C454E"/>
<path d="M148.144 12.1919C150.032 12.1919 151.392 11.2159 152.112 9.61593L150.864 8.86393C150.448 10.0159 149.52 10.7999 148.144 10.7999C146.32 10.7999 145.216 9.43993 145.216 7.26393V5.56793C145.216 3.39193 146.32 2.03193 148.144 2.03193C149.488 2.03193 150.352 2.75193 150.768 3.85593L152.048 3.11993C151.328 1.51993 150.032 0.63993 148.144 0.63993C145.296 0.63993 143.552 2.68793 143.552 6.41593C143.552 10.1439 145.296 12.1919 148.144 12.1919Z" fill="#3C454E"/>
<path d="M157.183 12.1919C159.439 12.1919 160.959 10.4959 160.959 7.85593C160.959 5.21593 159.439 3.51993 157.183 3.51993C154.927 3.51993 153.407 5.21593 153.407 7.85593C153.407 10.4959 154.927 12.1919 157.183 12.1919ZM157.183 10.9119C155.887 10.9119 154.991 10.0959 154.991 8.47993V7.23193C154.991 5.61593 155.887 4.79993 157.183 4.79993C158.479 4.79993 159.375 5.61593 159.375 7.23193V8.47993C159.375 10.0959 158.479 10.9119 157.183 10.9119Z" fill="#3C454E"/>
<path d="M164.472 11.9999V6.31993C164.472 5.31193 165.384 4.81593 166.328 4.81593C167.464 4.81593 167.992 5.53593 167.992 6.92793V11.9999H169.48V6.31993C169.48 5.31193 170.36 4.81593 171.32 4.81593C172.472 4.81593 173 5.53593 173 6.92793V11.9999H174.488V6.70393C174.488 4.68793 173.496 3.51993 171.832 3.51993C170.44 3.51993 169.608 4.30393 169.304 5.19993H169.272C168.84 4.03193 167.864 3.51993 166.76 3.51993C165.656 3.51993 164.904 4.22393 164.552 5.07193H164.472V3.71193H162.984V11.9999H164.472Z" fill="#3C454E"/>
<path d="M178.503 11.9999V6.31993C178.503 5.31193 179.415 4.81593 180.359 4.81593C181.495 4.81593 182.023 5.53593 182.023 6.92793V11.9999H183.511V6.31993C183.511 5.31193 184.391 4.81593 185.351 4.81593C186.503 4.81593 187.031 5.53593 187.031 6.92793V11.9999H188.519V6.70393C188.519 4.68793 187.527 3.51993 185.863 3.51993C184.471 3.51993 183.639 4.30393 183.335 5.19993H183.303C182.871 4.03193 181.895 3.51993 180.791 3.51993C179.687 3.51993 178.935 4.22393 178.583 5.07193H178.503V3.71193H177.015V11.9999H178.503Z" fill="#3C454E"/>
<path d="M196.118 11.9999H197.606V3.71193H196.118V9.37593C196.118 10.4159 195.158 10.8959 194.214 10.8959C193.046 10.8959 192.454 10.1759 192.454 8.78393V3.71193H190.966V9.00793C190.966 11.0239 192.022 12.1919 193.718 12.1919C195.094 12.1919 195.734 11.4399 196.038 10.6399H196.118V11.9999Z" fill="#3C454E"/>
<path d="M201.722 11.9999V6.31993C201.722 5.31193 202.666 4.81593 203.642 4.81593C204.81 4.81593 205.386 5.53593 205.386 6.92793V11.9999H206.874V6.70393C206.874 4.68793 205.834 3.51993 204.138 3.51993C202.89 3.51993 202.186 4.15993 201.802 5.07193H201.722V3.71193H200.234V11.9999H201.722Z" fill="#3C454E"/>
<path d="M210.158 1.98393C210.782 1.98393 211.054 1.64793 211.054 1.16793V0.94393C211.054 0.46393 210.782 0.12793 210.158 0.12793C209.534 0.12793 209.262 0.46393 209.262 0.94393V1.16793C209.262 1.64793 209.534 1.98393 210.158 1.98393ZM209.406 11.9999H210.894V3.71193H209.406V11.9999Z" fill="#3C454E"/>
<path d="M217.115 11.9999V10.7359H215.467V4.97593H217.243V3.71193H215.467V1.42393H214.123V2.94393C214.123 3.50393 213.947 3.71193 213.387 3.71193H212.651V4.97593H213.979V10.4319C213.979 11.3919 214.523 11.9999 215.547 11.9999H217.115Z" fill="#3C454E"/>
<path d="M222.482 9.00793L222.002 10.5599H221.922L221.49 9.00793L219.65 3.71193H218.162L221.234 12.3359L220.674 13.9359H219.314V15.1999H220.13C221.394 15.1999 221.794 14.8479 222.178 13.8079L225.778 3.71193H224.338L222.482 9.00793Z" fill="#3C454E"/>
<path d="M232.789 11.9999V7.03993H237.525V5.66393H232.789V2.20793H238.037V0.83193H231.237V11.9999H232.789Z" fill="#3C454E"/>
<path d="M240.892 1.98393C241.516 1.98393 241.788 1.64793 241.788 1.16793V0.94393C241.788 0.46393 241.516 0.12793 240.892 0.12793C240.268 0.12793 239.996 0.46393 239.996 0.94393V1.16793C239.996 1.64793 240.268 1.98393 240.892 1.98393ZM240.14 11.9999H241.628V3.71193H240.14V11.9999Z" fill="#3C454E"/>
<path d="M247.849 11.9999V10.7359H246.201V4.97593H247.977V3.71193H246.201V1.42393H244.857V2.94393C244.857 3.50393 244.681 3.71193 244.121 3.71193H243.385V4.97593H244.713V10.4319C244.713 11.3919 245.257 11.9999 246.281 11.9999H247.849Z" fill="#3C454E"/>
<path d="M31 22.4999C31 24.4329 29.433 25.9999 27.5 25.9999C25.567 25.9999 24 24.4329 24 22.4999C24 20.5669 25.567 18.9999 27.5 18.9999C29.433 18.9999 31 20.5669 31 22.4999Z" fill="#4FDAB8"/>
<path d="M298 22.4999C298 24.4329 296.433 25.9999 294.5 25.9999C292.567 25.9999 291 24.4329 291 22.4999C291 20.5669 292.567 18.9999 294.5 18.9999C296.433 18.9999 298 20.5669 298 22.4999Z" fill="#4FDAB8"/>
<path d="M30 22.9999H295V21.9999H30V22.9999Z" fill="#4FDAB8"/>
<path d="M773.051 11.9999L776.779 0.83193H775.195L773.387 6.41593L772.203 10.4799H772.123L770.955 6.41593L769.147 0.83193H767.515L771.211 11.9999H773.051Z" fill="#3C454E"/>
<path d="M784.762 11.9999V10.7359H783.834V6.36793C783.834 4.57593 782.65 3.51993 780.586 3.51993C779.05 3.51993 778.074 4.23993 777.578 5.13593L778.474 5.95193C778.906 5.24793 779.53 4.76793 780.506 4.76793C781.754 4.76793 782.346 5.39193 782.346 6.49593V7.24793H780.778C778.41 7.24793 777.242 8.11193 777.242 9.71193C777.242 11.2319 778.25 12.1919 779.978 12.1919C781.162 12.1919 782.042 11.6479 782.378 10.6239H782.458C782.57 11.4239 783.002 11.9999 783.914 11.9999H784.762ZM780.314 10.9919C779.386 10.9919 778.794 10.5599 778.794 9.79193V9.47193C778.794 8.70393 779.402 8.28793 780.762 8.28793H782.346V9.56793C782.346 10.3999 781.482 10.9919 780.314 10.9919Z" fill="#3C454E"/>
<path d="M789.211 11.9999V10.7359H788.027V0.15993H786.539V10.4799C786.539 11.3919 787.067 11.9999 788.091 11.9999H789.211Z" fill="#3C454E"/>
<path d="M796.064 11.9999H797.552V3.71193H796.064V9.37593C796.064 10.4159 795.104 10.8959 794.16 10.8959C792.992 10.8959 792.4 10.1759 792.4 8.78393V3.71193H790.912V9.00793C790.912 11.0239 791.968 12.1919 793.664 12.1919C795.04 12.1919 795.68 11.4399 795.984 10.6399H796.064V11.9999Z" fill="#3C454E"/>
<path d="M803.347 12.1919C804.899 12.1919 806.099 11.4719 806.675 10.3999L805.715 9.58393C805.267 10.4319 804.515 10.9279 803.475 10.9279C801.987 10.9279 801.139 9.93593 801.139 8.55993V8.22393H806.979V7.59993C806.979 5.27993 805.667 3.51993 803.347 3.51993C801.043 3.51993 799.587 5.23193 799.587 7.85593C799.587 10.4799 801.043 12.1919 803.347 12.1919ZM803.347 4.71993C804.595 4.71993 805.395 5.64793 805.395 7.02393V7.18393H801.139V7.07193C801.139 5.71193 802.051 4.71993 803.347 4.71993Z" fill="#3C454E"/>
<path d="M816.821 7.90393V6.35193H812.533V7.90393H816.821Z" fill="#3C454E"/>
<path d="M823.104 11.9999H824.608V2.97593H824.688L825.6 4.81593L828.16 9.50393L830.72 4.81593L831.632 2.97593H831.712V11.9999H833.216V0.83193H831.328L828.224 6.70393H828.16L825.056 0.83193H823.104V11.9999Z" fill="#3C454E"/>
<path d="M842.84 11.9999V10.7359H841.912V6.36793C841.912 4.57593 840.728 3.51993 838.664 3.51993C837.128 3.51993 836.152 4.23993 835.656 5.13593L836.552 5.95193C836.984 5.24793 837.608 4.76793 838.584 4.76793C839.832 4.76793 840.424 5.39193 840.424 6.49593V7.24793H838.856C836.488 7.24793 835.32 8.11193 835.32 9.71193C835.32 11.2319 836.328 12.1919 838.056 12.1919C839.24 12.1919 840.12 11.6479 840.456 10.6239H840.536C840.648 11.4239 841.08 11.9999 841.992 11.9999H842.84ZM838.392 10.9919C837.464 10.9919 836.872 10.5599 836.872 9.79193V9.47193C836.872 8.70393 837.48 8.28793 838.84 8.28793H840.424V9.56793C840.424 10.3999 839.56 10.9919 838.392 10.9919Z" fill="#3C454E"/>
<path d="M846.105 11.9999V6.55993C846.105 5.74393 846.905 5.19993 848.281 5.19993H849.017V3.71193H848.521C847.193 3.71193 846.457 4.47993 846.185 5.29593H846.105V3.71193H844.617V11.9999H846.105Z" fill="#3C454E"/>
<path d="M850.617 11.9999H852.105V9.13593L853.289 7.87193L855.881 11.9999H857.673L854.345 6.91193L857.289 3.71193H855.529L853.369 6.07993L852.185 7.53593H852.105V0.15993H850.617V11.9999Z" fill="#3C454E"/>
<path d="M862.082 12.1919C863.634 12.1919 864.834 11.4719 865.41 10.3999L864.45 9.58393C864.002 10.4319 863.25 10.9279 862.21 10.9279C860.722 10.9279 859.874 9.93593 859.874 8.55993V8.22393H865.714V7.59993C865.714 5.27993 864.402 3.51993 862.082 3.51993C859.778 3.51993 858.322 5.23193 858.322 7.85593C858.322 10.4799 859.778 12.1919 862.082 12.1919ZM862.082 4.71993C863.33 4.71993 864.13 5.64793 864.13 7.02393V7.18393H859.874V7.07193C859.874 5.71193 860.786 4.71993 862.082 4.71993Z" fill="#3C454E"/>
<path d="M871.342 11.9999V10.7359H869.694V4.97593H871.47V3.71193H869.694V1.42393H868.35V2.94393C868.35 3.50393 868.174 3.71193 867.614 3.71193H866.878V4.97593H868.206V10.4319C868.206 11.3919 868.75 11.9999 869.774 11.9999H871.342Z" fill="#3C454E"/>
<path d="M878.922 11.9999V7.03993H883.658V5.66393H878.922V2.20793H884.17V0.83193H877.37V11.9999H878.922Z" fill="#3C454E"/>
<path d="M887.025 1.98393C887.649 1.98393 887.921 1.64793 887.921 1.16793V0.94393C887.921 0.46393 887.649 0.12793 887.025 0.12793C886.401 0.12793 886.129 0.46393 886.129 0.94393V1.16793C886.129 1.64793 886.401 1.98393 887.025 1.98393ZM886.273 11.9999H887.761V3.71193H886.273V11.9999Z" fill="#3C454E"/>
<path d="M893.982 11.9999V10.7359H892.334V4.97593H894.11V3.71193H892.334V1.42393H890.99V2.94393C890.99 3.50393 890.814 3.71193 890.254 3.71193H889.518V4.97593H890.846V10.4319C890.846 11.3919 891.39 11.9999 892.414 11.9999H893.982Z" fill="#3C454E"/>
<path d="M656 22.4999C656 24.4329 654.433 25.9999 652.5 25.9999C650.567 25.9999 649 24.4329 649 22.4999C649 20.5669 650.567 18.9999 652.5 18.9999C654.433 18.9999 656 20.5669 656 22.4999Z" fill="url(#paint0_linear)"/>
<path d="M1012 22.4999C1012 24.4329 1010.43 25.9999 1008.5 25.9999C1006.57 25.9999 1005 24.4329 1005 22.4999C1005 20.5669 1006.57 18.9999 1008.5 18.9999C1010.43 18.9999 1012 20.5669 1012 22.4999Z" fill="url(#paint1_linear)"/>
<path d="M653 22.9999H1009V21.9999H653V22.9999Z" fill="#30CEFE"/>
<path d="M404.469 11.9999V7.39193H407.525C409.541 7.39193 410.693 6.09593 410.693 4.11193C410.693 2.12793 409.541 0.83193 407.525 0.83193H402.917V11.9999H404.469ZM404.469 2.20793H407.461C408.453 2.20793 409.045 2.75193 409.045 3.71193V4.51193C409.045 5.47193 408.453 6.01593 407.461 6.01593H404.469V2.20793Z" fill="#3C454E"/>
<path d="M413.98 11.9999V6.55993C413.98 5.74393 414.78 5.19993 416.156 5.19993H416.892V3.71193H416.396C415.068 3.71193 414.332 4.47993 414.06 5.29593H413.98V3.71193H412.492V11.9999H413.98Z" fill="#3C454E"/>
<path d="M421.598 12.1919C423.854 12.1919 425.374 10.4959 425.374 7.85593C425.374 5.21593 423.854 3.51993 421.598 3.51993C419.342 3.51993 417.822 5.21593 417.822 7.85593C417.822 10.4959 419.342 12.1919 421.598 12.1919ZM421.598 10.9119C420.302 10.9119 419.406 10.0959 419.406 8.47993V7.23193C419.406 5.61593 420.302 4.79993 421.598 4.79993C422.894 4.79993 423.79 5.61593 423.79 7.23193V8.47993C423.79 10.0959 422.894 10.9119 421.598 10.9119Z" fill="#3C454E"/>
<path d="M432.646 11.9999H434.134V0.15993H432.646V5.07193H432.582C432.198 4.04793 431.334 3.51993 430.198 3.51993C428.118 3.51993 426.87 5.16793 426.87 7.85593C426.87 10.5439 428.118 12.1919 430.198 12.1919C431.334 12.1919 432.198 11.6639 432.582 10.6399H432.646V11.9999ZM430.63 10.8959C429.302 10.8959 428.454 9.95193 428.454 8.55993V7.15193C428.454 5.75993 429.302 4.81593 430.63 4.81593C431.75 4.81593 432.646 5.45593 432.646 6.33593V9.37593C432.646 10.2559 431.75 10.8959 430.63 10.8959Z" fill="#3C454E"/>
<path d="M441.829 11.9999H443.317V3.71193H441.829V9.37593C441.829 10.4159 440.869 10.8959 439.925 10.8959C438.757 10.8959 438.165 10.1759 438.165 8.78393V3.71193H436.677V9.00793C436.677 11.0239 437.733 12.1919 439.429 12.1919C440.805 12.1919 441.445 11.4399 441.749 10.6399H441.829V11.9999Z" fill="#3C454E"/>
<path d="M449.081 12.1919C450.665 12.1919 451.753 11.4239 452.281 10.1759L451.193 9.50393C450.777 10.3999 450.089 10.9119 449.081 10.9119C447.657 10.9119 446.937 9.93593 446.937 8.57593V7.13593C446.937 5.77593 447.657 4.79993 449.081 4.79993C450.041 4.79993 450.713 5.29593 450.985 6.11193L452.217 5.50393C451.737 4.31993 450.713 3.51993 449.081 3.51993C446.713 3.51993 445.353 5.19993 445.353 7.85593C445.353 10.5119 446.713 12.1919 449.081 12.1919Z" fill="#3C454E"/>
<path d="M457.623 11.9999V10.7359H455.975V4.97593H457.751V3.71193H455.975V1.42393H454.631V2.94393C454.631 3.50393 454.455 3.71193 453.895 3.71193H453.159V4.97593H454.487V10.4319C454.487 11.3919 455.031 11.9999 456.055 11.9999H457.623Z" fill="#3C454E"/>
<path d="M467.555 7.90393V6.35193H463.267V7.90393H467.555Z" fill="#3C454E"/>
<path d="M473.838 11.9999H475.342V2.97593H475.422L476.334 4.81593L478.894 9.50393L481.454 4.81593L482.366 2.97593H482.446V11.9999H483.95V0.83193H482.062L478.958 6.70393H478.894L475.79 0.83193H473.838V11.9999Z" fill="#3C454E"/>
<path d="M493.575 11.9999V10.7359H492.647V6.36793C492.647 4.57593 491.463 3.51993 489.399 3.51993C487.863 3.51993 486.887 4.23993 486.391 5.13593L487.287 5.95193C487.719 5.24793 488.343 4.76793 489.319 4.76793C490.567 4.76793 491.159 5.39193 491.159 6.49593V7.24793H489.591C487.223 7.24793 486.055 8.11193 486.055 9.71193C486.055 11.2319 487.063 12.1919 488.791 12.1919C489.975 12.1919 490.855 11.6479 491.191 10.6239H491.271C491.383 11.4239 491.815 11.9999 492.727 11.9999H493.575ZM489.127 10.9919C488.199 10.9919 487.607 10.5599 487.607 9.79193V9.47193C487.607 8.70393 488.215 8.28793 489.575 8.28793H491.159V9.56793C491.159 10.3999 490.295 10.9919 489.127 10.9919Z" fill="#3C454E"/>
<path d="M496.839 11.9999V6.55993C496.839 5.74393 497.639 5.19993 499.015 5.19993H499.751V3.71193H499.255C497.927 3.71193 497.191 4.47993 496.919 5.29593H496.839V3.71193H495.351V11.9999H496.839Z" fill="#3C454E"/>
<path d="M501.351 11.9999H502.839V9.13593L504.023 7.87193L506.615 11.9999H508.407L505.079 6.91193L508.023 3.71193H506.263L504.103 6.07993L502.919 7.53593H502.839V0.15993H501.351V11.9999Z" fill="#3C454E"/>
<path d="M512.816 12.1919C514.368 12.1919 515.568 11.4719 516.144 10.3999L515.184 9.58393C514.736 10.4319 513.984 10.9279 512.944 10.9279C511.456 10.9279 510.608 9.93593 510.608 8.55993V8.22393H516.448V7.59993C516.448 5.27993 515.136 3.51993 512.816 3.51993C510.512 3.51993 509.056 5.23193 509.056 7.85593C509.056 10.4799 510.512 12.1919 512.816 12.1919ZM512.816 4.71993C514.064 4.71993 514.864 5.64793 514.864 7.02393V7.18393H510.608V7.07193C510.608 5.71193 511.52 4.71993 512.816 4.71993Z" fill="#3C454E"/>
<path d="M522.076 11.9999V10.7359H520.428V4.97593H522.204V3.71193H520.428V1.42393H519.084V2.94393C519.084 3.50393 518.908 3.71193 518.348 3.71193H517.612V4.97593H518.94V10.4319C518.94 11.3919 519.484 11.9999 520.508 11.9999H522.076Z" fill="#3C454E"/>
<path d="M529.656 11.9999V7.03993H534.392V5.66393H529.656V2.20793H534.904V0.83193H528.104V11.9999H529.656Z" fill="#3C454E"/>
<path d="M537.759 1.98393C538.383 1.98393 538.655 1.64793 538.655 1.16793V0.94393C538.655 0.46393 538.383 0.12793 537.759 0.12793C537.135 0.12793 536.863 0.46393 536.863 0.94393V1.16793C536.863 1.64793 537.135 1.98393 537.759 1.98393ZM537.007 11.9999H538.495V3.71193H537.007V11.9999Z" fill="#3C454E"/>
<path d="M544.717 11.9999V10.7359H543.069V4.97593H544.845V3.71193H543.069V1.42393H541.725V2.94393C541.725 3.50393 541.549 3.71193 540.989 3.71193H540.253V4.97593H541.581V10.4319C541.581 11.3919 542.125 11.9999 543.149 11.9999H544.717Z" fill="#3C454E"/>
<path d="M312 22.4999C312 24.4329 310.433 25.9999 308.5 25.9999C306.567 25.9999 305 24.4329 305 22.4999C305 20.5669 306.567 18.9999 308.5 18.9999C310.433 18.9999 312 20.5669 312 22.4999Z" fill="#526AEA"/>
<path d="M641 22.4999C641 24.4329 639.433 25.9999 637.5 25.9999C635.567 25.9999 634 24.4329 634 22.4999C634 20.5669 635.567 18.9999 637.5 18.9999C639.433 18.9999 641 20.5669 641 22.4999Z" fill="#526AEA"/>
<path d="M309 22.9999H638V21.9999H309V22.9999Z" fill="#526AEA"/>
<defs>
<linearGradient id="paint0_linear" x1="652.5" y1="18.9999" x2="652.5" y2="25.9999" gradientUnits="userSpaceOnUse">
<stop stop-color="#52C7EA"/>
<stop offset="1" stop-color="#30CEFE"/>
</linearGradient>
<linearGradient id="paint1_linear" x1="1008.5" y1="18.9999" x2="1008.5" y2="25.9999" gradientUnits="userSpaceOnUse">
<stop stop-color="#52C7EA"/>
<stop offset="1" stop-color="#30CEFE"/>
</linearGradient>
</defs>
</svg>
