<svg width="1011" height="575" viewBox="0 0 1011 575" fill="none" xmlns="http://www.w3.org/2000/svg">
<mask id="mask0" mask-type="alpha" maskUnits="userSpaceOnUse" x="0" y="343" width="314" height="232">
<path d="M157 574.5H311.227C312.832 574.5 313.783 572.705 312.883 571.377L158.655 343.941C157.862 342.771 156.138 342.771 155.345 343.941L1.11739 571.377C0.216854 572.705 1.16815 574.5 2.77269 574.5H157Z" fill="#C4C4C4"/>
</mask>
<g mask="url(#mask0)">
<path d="M157 574.5H311.227C312.832 574.5 313.783 572.705 312.883 571.377L158.655 343.941C157.862 342.771 156.138 342.771 155.345 343.941L1.11739 571.377C0.216854 572.705 1.16815 574.5 2.77269 574.5H157Z" fill="#F5F7F9"/>
<path d="M157 574.5H311.227C312.832 574.5 313.783 572.705 312.883 571.377L158.655 343.941C157.862 342.771 156.138 342.771 155.345 343.941L1.11739 571.377C0.216854 572.705 1.16815 574.5 2.77269 574.5H157Z" fill="url(#paint0_linear)"/>
<path d="M127.251 438.5L123.395 427.332H121.443L117.571 438.5H119.139L120.211 435.348H124.563L125.619 438.5H127.251ZM124.179 433.972H120.579L122.339 428.756H122.419L124.179 433.972Z" fill="#242A31"/>
<path d="M130.11 438.5H131.838L132.958 434.612L133.646 432.18H133.678L134.382 434.612L135.502 438.5H137.262L139.47 430.212H138.078L137.198 433.748L136.414 437.156H136.366L135.406 433.748L134.35 430.212H133.022L131.998 433.748L131.054 437.156H131.022L130.19 433.748L129.326 430.212H127.886L130.11 438.5Z" fill="#242A31"/>
<path d="M147.973 438.5V437.236H147.045V432.868C147.045 431.076 145.861 430.02 143.797 430.02C142.261 430.02 141.285 430.74 140.789 431.636L141.685 432.452C142.117 431.748 142.741 431.268 143.717 431.268C144.965 431.268 145.557 431.892 145.557 432.996V433.748H143.989C141.621 433.748 140.453 434.612 140.453 436.212C140.453 437.732 141.461 438.692 143.189 438.692C144.373 438.692 145.253 438.148 145.589 437.124H145.669C145.781 437.924 146.213 438.5 147.125 438.5H147.973ZM143.525 437.492C142.597 437.492 142.005 437.06 142.005 436.292V435.972C142.005 435.204 142.613 434.788 143.973 434.788H145.557V436.068C145.557 436.9 144.693 437.492 143.525 437.492Z" fill="#242A31"/>
<path d="M151.238 438.5V433.06C151.238 432.244 152.038 431.7 153.414 431.7H154.15V430.212H153.654C152.326 430.212 151.59 430.98 151.318 431.796H151.238V430.212H149.75V438.5H151.238Z" fill="#242A31"/>
<path d="M158.839 438.692C160.391 438.692 161.591 437.972 162.167 436.9L161.207 436.084C160.759 436.932 160.007 437.428 158.967 437.428C157.479 437.428 156.631 436.436 156.631 435.06V434.724H162.471V434.1C162.471 431.78 161.159 430.02 158.839 430.02C156.535 430.02 155.079 431.732 155.079 434.356C155.079 436.98 156.535 438.692 158.839 438.692ZM158.839 431.22C160.087 431.22 160.887 432.148 160.887 433.524V433.684H156.631V433.572C156.631 432.212 157.543 431.22 158.839 431.22Z" fill="#242A31"/>
<path d="M165.988 438.5V432.82C165.988 431.812 166.932 431.316 167.908 431.316C169.076 431.316 169.652 432.036 169.652 433.428V438.5H171.14V433.204C171.14 431.188 170.1 430.02 168.404 430.02C167.156 430.02 166.452 430.66 166.068 431.572H165.988V430.212H164.5V438.5H165.988Z" fill="#242A31"/>
<path d="M176.839 438.692C178.391 438.692 179.591 437.972 180.167 436.9L179.207 436.084C178.759 436.932 178.007 437.428 176.967 437.428C175.479 437.428 174.631 436.436 174.631 435.06V434.724H180.471V434.1C180.471 431.78 179.159 430.02 176.839 430.02C174.535 430.02 173.079 431.732 173.079 434.356C173.079 436.98 174.535 438.692 176.839 438.692ZM176.839 431.22C178.087 431.22 178.887 432.148 178.887 433.524V433.684H174.631V433.572C174.631 432.212 175.543 431.22 176.839 431.22Z" fill="#242A31"/>
<path d="M185.044 438.692C186.996 438.692 188.212 437.684 188.212 436.068C188.212 434.788 187.46 433.988 185.636 433.716L184.932 433.604C183.972 433.46 183.492 433.156 183.492 432.42C183.492 431.716 184.004 431.252 185.012 431.252C186.004 431.252 186.708 431.716 187.108 432.244L188.052 431.348C187.348 430.516 186.468 430.02 185.06 430.02C183.316 430.02 182.052 430.884 182.052 432.516C182.052 434.052 183.156 434.708 184.74 434.932L185.444 435.044C186.452 435.188 186.772 435.62 186.772 436.228C186.772 436.996 186.196 437.46 185.14 437.46C184.132 437.46 183.364 437.012 182.74 436.228L181.732 437.092C182.5 438.068 183.508 438.692 185.044 438.692Z" fill="#242A31"/>
<path d="M192.794 438.692C194.746 438.692 195.962 437.684 195.962 436.068C195.962 434.788 195.21 433.988 193.386 433.716L192.682 433.604C191.722 433.46 191.242 433.156 191.242 432.42C191.242 431.716 191.754 431.252 192.762 431.252C193.754 431.252 194.458 431.716 194.858 432.244L195.802 431.348C195.098 430.516 194.218 430.02 192.81 430.02C191.066 430.02 189.802 430.884 189.802 432.516C189.802 434.052 190.906 434.708 192.49 434.932L193.194 435.044C194.202 435.188 194.522 435.62 194.522 436.228C194.522 436.996 193.946 437.46 192.89 437.46C191.882 437.46 191.114 437.012 190.49 436.228L189.482 437.092C190.25 438.068 191.258 438.692 192.794 438.692Z" fill="#242A31"/>
<path d="M103.988 492.5L107.716 481.332H106.132L104.324 486.916L103.14 490.98H103.06L101.892 486.916L100.084 481.332H98.4524L102.148 492.5H103.988Z" fill="#242A31"/>
<path d="M115.7 492.5V491.236H114.772V486.868C114.772 485.076 113.588 484.02 111.524 484.02C109.988 484.02 109.012 484.74 108.516 485.636L109.412 486.452C109.844 485.748 110.468 485.268 111.444 485.268C112.692 485.268 113.284 485.892 113.284 486.996V487.748H111.716C109.348 487.748 108.18 488.612 108.18 490.212C108.18 491.732 109.188 492.692 110.916 492.692C112.1 492.692 112.98 492.148 113.316 491.124H113.396C113.508 491.924 113.94 492.5 114.852 492.5H115.7ZM111.252 491.492C110.324 491.492 109.732 491.06 109.732 490.292V489.972C109.732 489.204 110.34 488.788 111.7 488.788H113.284V490.068C113.284 490.9 112.42 491.492 111.252 491.492Z" fill="#242A31"/>
<path d="M120.148 492.5V491.236H118.964V480.66H117.476V490.98C117.476 491.892 118.004 492.5 119.028 492.5H120.148Z" fill="#242A31"/>
<path d="M127.001 492.5H128.489V484.212H127.001V489.876C127.001 490.916 126.041 491.396 125.097 491.396C123.929 491.396 123.337 490.676 123.337 489.284V484.212H121.849V489.508C121.849 491.524 122.905 492.692 124.601 492.692C125.977 492.692 126.617 491.94 126.921 491.14H127.001V492.5Z" fill="#242A31"/>
<path d="M134.285 492.692C135.837 492.692 137.037 491.972 137.613 490.9L136.653 490.084C136.205 490.932 135.453 491.428 134.413 491.428C132.925 491.428 132.077 490.436 132.077 489.06V488.724H137.917V488.1C137.917 485.78 136.605 484.02 134.285 484.02C131.981 484.02 130.525 485.732 130.525 488.356C130.525 490.98 131.981 492.692 134.285 492.692ZM134.285 485.22C135.533 485.22 136.333 486.148 136.333 487.524V487.684H132.077V487.572C132.077 486.212 132.989 485.22 134.285 485.22Z" fill="#242A31"/>
<path d="M142.489 492.692C144.441 492.692 145.657 491.684 145.657 490.068C145.657 488.788 144.905 487.988 143.081 487.716L142.377 487.604C141.417 487.46 140.937 487.156 140.937 486.42C140.937 485.716 141.449 485.252 142.457 485.252C143.449 485.252 144.153 485.716 144.553 486.244L145.497 485.348C144.793 484.516 143.913 484.02 142.505 484.02C140.761 484.02 139.497 484.884 139.497 486.516C139.497 488.052 140.601 488.708 142.185 488.932L142.889 489.044C143.897 489.188 144.217 489.62 144.217 490.228C144.217 490.996 143.641 491.46 142.585 491.46C141.577 491.46 140.809 491.012 140.185 490.228L139.177 491.092C139.945 492.068 140.953 492.692 142.489 492.692Z" fill="#242A31"/>
<path d="M159.202 492.5H161.106L158.914 490.164C159.266 489.492 159.522 488.708 159.682 487.828H160.786V486.58H158.514C158.466 487.476 158.306 488.388 158.002 489.188L155.634 486.644C157.01 485.876 158.13 485.028 158.13 483.572C158.13 482.1 156.978 481.14 155.346 481.14C153.538 481.14 152.37 482.324 152.37 483.828C152.37 484.82 152.882 485.668 153.618 486.452C152.45 487.108 151.346 487.956 151.346 489.604C151.346 491.332 152.578 492.692 154.834 492.692C156.594 492.692 157.586 491.828 158.082 491.268L159.202 492.5ZM155.282 482.356C156.05 482.356 156.706 482.82 156.706 483.62V483.796C156.706 484.628 155.81 485.284 154.866 485.812C154.21 485.092 153.81 484.516 153.81 483.908V483.748C153.81 482.948 154.434 482.356 155.282 482.356ZM154.994 491.412C153.698 491.412 152.882 490.708 152.882 489.604V489.38C152.882 488.26 153.554 487.748 154.386 487.3L157.266 490.388C156.722 491.012 155.986 491.412 154.994 491.412Z" fill="#242A31"/>
<path d="M171.067 492.5L174.795 481.332H173.211L171.403 486.916L170.219 490.98H170.139L168.971 486.916L167.163 481.332H165.531L169.227 492.5H171.067Z" fill="#242A31"/>
<path d="M177.166 482.484C177.79 482.484 178.062 482.148 178.062 481.668V481.444C178.062 480.964 177.79 480.628 177.166 480.628C176.542 480.628 176.27 480.964 176.27 481.444V481.668C176.27 482.148 176.542 482.484 177.166 482.484ZM176.414 492.5H177.902V484.212H176.414V492.5Z" fill="#242A31"/>
<path d="M182.011 492.5V487.06C182.011 486.244 182.811 485.7 184.187 485.7H184.923V484.212H184.427C183.099 484.212 182.363 484.98 182.091 485.796H182.011V484.212H180.523V492.5H182.011Z" fill="#242A31"/>
<path d="M190.185 492.5V491.236H188.537V485.476H190.313V484.212H188.537V481.924H187.193V483.444C187.193 484.004 187.017 484.212 186.457 484.212H185.721V485.476H187.049V490.932C187.049 491.892 187.593 492.5 188.617 492.5H190.185Z" fill="#242A31"/>
<path d="M197.376 492.5H198.864V484.212H197.376V489.876C197.376 490.916 196.416 491.396 195.472 491.396C194.304 491.396 193.712 490.676 193.712 489.284V484.212H192.224V489.508C192.224 491.524 193.28 492.692 194.976 492.692C196.352 492.692 196.992 491.94 197.296 491.14H197.376V492.5Z" fill="#242A31"/>
<path d="M204.66 492.692C206.212 492.692 207.412 491.972 207.988 490.9L207.028 490.084C206.58 490.932 205.828 491.428 204.788 491.428C203.3 491.428 202.452 490.436 202.452 489.06V488.724H208.292V488.1C208.292 485.78 206.98 484.02 204.66 484.02C202.356 484.02 200.9 485.732 200.9 488.356C200.9 490.98 202.356 492.692 204.66 492.692ZM204.66 485.22C205.908 485.22 206.708 486.148 206.708 487.524V487.684H202.452V487.572C202.452 486.212 203.364 485.22 204.66 485.22Z" fill="#242A31"/>
<path d="M212.864 492.692C214.816 492.692 216.032 491.684 216.032 490.068C216.032 488.788 215.28 487.988 213.456 487.716L212.752 487.604C211.792 487.46 211.312 487.156 211.312 486.42C211.312 485.716 211.824 485.252 212.832 485.252C213.824 485.252 214.528 485.716 214.928 486.244L215.872 485.348C215.168 484.516 214.288 484.02 212.88 484.02C211.136 484.02 209.872 484.884 209.872 486.516C209.872 488.052 210.976 488.708 212.56 488.932L213.264 489.044C214.272 489.188 214.592 489.62 214.592 490.228C214.592 490.996 214.016 491.46 212.96 491.46C211.952 491.46 211.184 491.012 210.56 490.228L209.552 491.092C210.32 492.068 211.328 492.692 212.864 492.692Z" fill="#242A31"/>
<path d="M94.6118 546.5H96.1158V537.476H96.1958L97.1078 539.316L99.6678 544.004L102.228 539.316L103.14 537.476H103.22V546.5H104.724V535.332H102.836L99.7318 541.204H99.6678L96.5638 535.332H94.6118V546.5Z" fill="#242A31"/>
<path d="M108.22 536.484C108.844 536.484 109.116 536.148 109.116 535.668V535.444C109.116 534.964 108.844 534.628 108.22 534.628C107.596 534.628 107.324 534.964 107.324 535.444V535.668C107.324 536.148 107.596 536.484 108.22 536.484ZM107.468 546.5H108.956V538.212H107.468V546.5Z" fill="#242A31"/>
<path d="M114.122 546.692C116.074 546.692 117.29 545.684 117.29 544.068C117.29 542.788 116.538 541.988 114.714 541.716L114.01 541.604C113.05 541.46 112.57 541.156 112.57 540.42C112.57 539.716 113.082 539.252 114.09 539.252C115.082 539.252 115.786 539.716 116.186 540.244L117.13 539.348C116.426 538.516 115.546 538.02 114.138 538.02C112.394 538.02 111.13 538.884 111.13 540.516C111.13 542.052 112.234 542.708 113.818 542.932L114.522 543.044C115.53 543.188 115.85 543.62 115.85 544.228C115.85 544.996 115.274 545.46 114.218 545.46C113.21 545.46 112.442 545.012 111.818 544.228L110.81 545.092C111.578 546.068 112.586 546.692 114.122 546.692Z" fill="#242A31"/>
<path d="M121.872 546.692C123.824 546.692 125.04 545.684 125.04 544.068C125.04 542.788 124.288 541.988 122.464 541.716L121.76 541.604C120.8 541.46 120.32 541.156 120.32 540.42C120.32 539.716 120.832 539.252 121.84 539.252C122.832 539.252 123.536 539.716 123.936 540.244L124.88 539.348C124.176 538.516 123.296 538.02 121.888 538.02C120.144 538.02 118.88 538.884 118.88 540.516C118.88 542.052 119.984 542.708 121.568 542.932L122.272 543.044C123.28 543.188 123.6 543.62 123.6 544.228C123.6 544.996 123.024 545.46 121.968 545.46C120.96 545.46 120.192 545.012 119.568 544.228L118.56 545.092C119.328 546.068 120.336 546.692 121.872 546.692Z" fill="#242A31"/>
<path d="M127.923 536.484C128.547 536.484 128.819 536.148 128.819 535.668V535.444C128.819 534.964 128.547 534.628 127.923 534.628C127.299 534.628 127.027 534.964 127.027 535.444V535.668C127.027 536.148 127.299 536.484 127.923 536.484ZM127.171 546.5H128.659V538.212H127.171V546.5Z" fill="#242A31"/>
<path d="M134.465 546.692C136.721 546.692 138.241 544.996 138.241 542.356C138.241 539.716 136.721 538.02 134.465 538.02C132.209 538.02 130.689 539.716 130.689 542.356C130.689 544.996 132.209 546.692 134.465 546.692ZM134.465 545.412C133.169 545.412 132.273 544.596 132.273 542.98V541.732C132.273 540.116 133.169 539.3 134.465 539.3C135.761 539.3 136.657 540.116 136.657 541.732V542.98C136.657 544.596 135.761 545.412 134.465 545.412Z" fill="#242A31"/>
<path d="M141.753 546.5V540.82C141.753 539.812 142.697 539.316 143.673 539.316C144.841 539.316 145.417 540.036 145.417 541.428V546.5H146.905V541.204C146.905 539.188 145.865 538.02 144.169 538.02C142.921 538.02 142.217 538.66 141.833 539.572H141.753V538.212H140.265V546.5H141.753Z" fill="#242A31"/>
<path d="M160.85 546.5H162.754L160.562 544.164C160.914 543.492 161.17 542.708 161.33 541.828H162.434V540.58H160.162C160.114 541.476 159.954 542.388 159.65 543.188L157.282 540.644C158.658 539.876 159.778 539.028 159.778 537.572C159.778 536.1 158.626 535.14 156.994 535.14C155.186 535.14 154.018 536.324 154.018 537.828C154.018 538.82 154.53 539.668 155.266 540.452C154.098 541.108 152.994 541.956 152.994 543.604C152.994 545.332 154.226 546.692 156.482 546.692C158.242 546.692 159.234 545.828 159.73 545.268L160.85 546.5ZM156.93 536.356C157.698 536.356 158.354 536.82 158.354 537.62V537.796C158.354 538.628 157.458 539.284 156.514 539.812C155.858 539.092 155.458 538.516 155.458 537.908V537.748C155.458 536.948 156.082 536.356 156.93 536.356ZM156.642 545.412C155.346 545.412 154.53 544.708 154.53 543.604V543.38C154.53 542.26 155.202 541.748 156.034 541.3L158.914 544.388C158.37 545.012 157.634 545.412 156.642 545.412Z" fill="#242A31"/>
<path d="M168.315 546.5H169.819V537.476H169.899L170.811 539.316L173.371 544.004L175.931 539.316L176.843 537.476H176.923V546.5H178.427V535.332H176.539L173.435 541.204H173.371L170.267 535.332H168.315V546.5Z" fill="#242A31"/>
<path d="M181.923 536.484C182.547 536.484 182.819 536.148 182.819 535.668V535.444C182.819 534.964 182.547 534.628 181.923 534.628C181.299 534.628 181.027 534.964 181.027 535.444V535.668C181.027 536.148 181.299 536.484 181.923 536.484ZM181.171 546.5H182.659V538.212H181.171V546.5Z" fill="#242A31"/>
<path d="M187.825 546.692C189.777 546.692 190.993 545.684 190.993 544.068C190.993 542.788 190.241 541.988 188.417 541.716L187.713 541.604C186.753 541.46 186.273 541.156 186.273 540.42C186.273 539.716 186.785 539.252 187.793 539.252C188.785 539.252 189.489 539.716 189.889 540.244L190.833 539.348C190.129 538.516 189.249 538.02 187.841 538.02C186.097 538.02 184.833 538.884 184.833 540.516C184.833 542.052 185.937 542.708 187.521 542.932L188.225 543.044C189.233 543.188 189.553 543.62 189.553 544.228C189.553 544.996 188.977 545.46 187.921 545.46C186.913 545.46 186.145 545.012 185.521 544.228L184.513 545.092C185.281 546.068 186.289 546.692 187.825 546.692Z" fill="#242A31"/>
<path d="M195.575 546.692C197.527 546.692 198.743 545.684 198.743 544.068C198.743 542.788 197.991 541.988 196.167 541.716L195.463 541.604C194.503 541.46 194.023 541.156 194.023 540.42C194.023 539.716 194.535 539.252 195.543 539.252C196.535 539.252 197.239 539.716 197.639 540.244L198.583 539.348C197.879 538.516 196.999 538.02 195.591 538.02C193.847 538.02 192.583 538.884 192.583 540.516C192.583 542.052 193.687 542.708 195.271 542.932L195.975 543.044C196.983 543.188 197.303 543.62 197.303 544.228C197.303 544.996 196.727 545.46 195.671 545.46C194.663 545.46 193.895 545.012 193.271 544.228L192.263 545.092C193.031 546.068 194.039 546.692 195.575 546.692Z" fill="#242A31"/>
<path d="M201.626 536.484C202.25 536.484 202.522 536.148 202.522 535.668V535.444C202.522 534.964 202.25 534.628 201.626 534.628C201.002 534.628 200.73 534.964 200.73 535.444V535.668C200.73 536.148 201.002 536.484 201.626 536.484ZM200.874 546.5H202.362V538.212H200.874V546.5Z" fill="#242A31"/>
<path d="M208.168 546.692C210.424 546.692 211.944 544.996 211.944 542.356C211.944 539.716 210.424 538.02 208.168 538.02C205.912 538.02 204.392 539.716 204.392 542.356C204.392 544.996 205.912 546.692 208.168 546.692ZM208.168 545.412C206.872 545.412 205.976 544.596 205.976 542.98V541.732C205.976 540.116 206.872 539.3 208.168 539.3C209.464 539.3 210.36 540.116 210.36 541.732V542.98C210.36 544.596 209.464 545.412 208.168 545.412Z" fill="#242A31"/>
<path d="M215.456 546.5V540.82C215.456 539.812 216.4 539.316 217.376 539.316C218.544 539.316 219.12 540.036 219.12 541.428V546.5H220.608V541.204C220.608 539.188 219.568 538.02 217.872 538.02C216.624 538.02 215.92 538.66 215.536 539.572H215.456V538.212H213.968V546.5H215.456Z" fill="#242A31"/>
<path d="M-1 513.5L-1 511.5H315V513.5H-1Z" fill="white"/>
<path d="M-1 459.5L-1 457.5H315V459.5H-1Z" fill="white"/>
<path d="M2 574.5H312V573.5H2V574.5Z" fill="#4FDAB8"/>
</g>
<mask id="mask1" mask-type="alpha" maskUnits="userSpaceOnUse" x="347" y="247" width="316" height="328">
<path d="M505 574.5H660.245C661.605 574.5 662.568 573.173 662.147 571.881L556.95 248.881C556.682 248.057 555.914 247.5 555.048 247.5H457.442C456.581 247.5 455.816 248.051 455.544 248.868L347.878 571.868C347.446 573.163 348.41 574.5 349.775 574.5H505Z" fill="#C4C4C4"/>
</mask>
<g mask="url(#mask1)">
<path d="M505 574.5H660.245C661.605 574.5 662.568 573.173 662.147 571.881L556.95 248.881C556.682 248.057 555.914 247.5 555.048 247.5H457.442C456.581 247.5 455.816 248.051 455.544 248.868L347.878 571.868C347.446 573.163 348.41 574.5 349.775 574.5H505Z" fill="#F5F7F9"/>
<path d="M505 574.5H660.245C661.605 574.5 662.568 573.173 662.147 571.881L556.95 248.881C556.682 248.057 555.914 247.5 555.048 247.5H457.442C456.581 247.5 455.816 248.051 455.544 248.868L347.878 571.868C347.446 573.163 348.41 574.5 349.775 574.5H505Z" fill="url(#paint1_linear)"/>
<path d="M347 513.5V511.5H663V513.5H347Z" fill="white"/>
<path d="M347 459.5V457.5H663V459.5H347Z" fill="white"/>
<path d="M347 405.5V403.5H663V405.5H347Z" fill="white"/>
<path d="M347 351.5V349.5H663V351.5H347Z" fill="white"/>
<path d="M347 297.5V295.5H663V297.5H347Z" fill="white"/>
<path d="M350 574.5H660V573.5H350V574.5Z" fill="#526AEA"/>
<path d="M475.251 440.5L471.395 429.332H469.443L465.571 440.5H467.139L468.211 437.348H472.563L473.619 440.5H475.251ZM472.179 435.972H468.579L470.339 430.756H470.419L472.179 435.972Z" fill="#242A31"/>
<path d="M478.11 440.5H479.838L480.958 436.612L481.646 434.18H481.678L482.382 436.612L483.502 440.5H485.262L487.47 432.212H486.078L485.198 435.748L484.414 439.156H484.366L483.406 435.748L482.35 432.212H481.022L479.998 435.748L479.054 439.156H479.022L478.19 435.748L477.326 432.212H475.886L478.11 440.5Z" fill="#242A31"/>
<path d="M495.973 440.5V439.236H495.045V434.868C495.045 433.076 493.861 432.02 491.797 432.02C490.261 432.02 489.285 432.74 488.789 433.636L489.685 434.452C490.117 433.748 490.741 433.268 491.717 433.268C492.965 433.268 493.557 433.892 493.557 434.996V435.748H491.989C489.621 435.748 488.453 436.612 488.453 438.212C488.453 439.732 489.461 440.692 491.189 440.692C492.373 440.692 493.253 440.148 493.589 439.124H493.669C493.781 439.924 494.213 440.5 495.125 440.5H495.973ZM491.525 439.492C490.597 439.492 490.005 439.06 490.005 438.292V437.972C490.005 437.204 490.613 436.788 491.973 436.788H493.557V438.068C493.557 438.9 492.693 439.492 491.525 439.492Z" fill="#242A31"/>
<path d="M499.238 440.5V435.06C499.238 434.244 500.038 433.7 501.414 433.7H502.15V432.212H501.654C500.326 432.212 499.59 432.98 499.318 433.796H499.238V432.212H497.75V440.5H499.238Z" fill="#242A31"/>
<path d="M506.839 440.692C508.391 440.692 509.591 439.972 510.167 438.9L509.207 438.084C508.759 438.932 508.007 439.428 506.967 439.428C505.479 439.428 504.631 438.436 504.631 437.06V436.724H510.471V436.1C510.471 433.78 509.159 432.02 506.839 432.02C504.535 432.02 503.079 433.732 503.079 436.356C503.079 438.98 504.535 440.692 506.839 440.692ZM506.839 433.22C508.087 433.22 508.887 434.148 508.887 435.524V435.684H504.631V435.572C504.631 434.212 505.543 433.22 506.839 433.22Z" fill="#242A31"/>
<path d="M513.988 440.5V434.82C513.988 433.812 514.932 433.316 515.908 433.316C517.076 433.316 517.652 434.036 517.652 435.428V440.5H519.14V435.204C519.14 433.188 518.1 432.02 516.404 432.02C515.156 432.02 514.452 432.66 514.068 433.572H513.988V432.212H512.5V440.5H513.988Z" fill="#242A31"/>
<path d="M524.839 440.692C526.391 440.692 527.591 439.972 528.167 438.9L527.207 438.084C526.759 438.932 526.007 439.428 524.967 439.428C523.479 439.428 522.631 438.436 522.631 437.06V436.724H528.471V436.1C528.471 433.78 527.159 432.02 524.839 432.02C522.535 432.02 521.079 433.732 521.079 436.356C521.079 438.98 522.535 440.692 524.839 440.692ZM524.839 433.22C526.087 433.22 526.887 434.148 526.887 435.524V435.684H522.631V435.572C522.631 434.212 523.543 433.22 524.839 433.22Z" fill="#242A31"/>
<path d="M533.044 440.692C534.996 440.692 536.212 439.684 536.212 438.068C536.212 436.788 535.46 435.988 533.636 435.716L532.932 435.604C531.972 435.46 531.492 435.156 531.492 434.42C531.492 433.716 532.004 433.252 533.012 433.252C534.004 433.252 534.708 433.716 535.108 434.244L536.052 433.348C535.348 432.516 534.468 432.02 533.06 432.02C531.316 432.02 530.052 432.884 530.052 434.516C530.052 436.052 531.156 436.708 532.74 436.932L533.444 437.044C534.452 437.188 534.772 437.62 534.772 438.228C534.772 438.996 534.196 439.46 533.14 439.46C532.132 439.46 531.364 439.012 530.74 438.228L529.732 439.092C530.5 440.068 531.508 440.692 533.044 440.692Z" fill="#242A31"/>
<path d="M540.794 440.692C542.746 440.692 543.962 439.684 543.962 438.068C543.962 436.788 543.21 435.988 541.386 435.716L540.682 435.604C539.722 435.46 539.242 435.156 539.242 434.42C539.242 433.716 539.754 433.252 540.762 433.252C541.754 433.252 542.458 433.716 542.858 434.244L543.802 433.348C543.098 432.516 542.218 432.02 540.81 432.02C539.066 432.02 537.802 432.884 537.802 434.516C537.802 436.052 538.906 436.708 540.49 436.932L541.194 437.044C542.202 437.188 542.522 437.62 542.522 438.228C542.522 438.996 541.946 439.46 540.89 439.46C539.882 439.46 539.114 439.012 538.49 438.228L537.482 439.092C538.25 440.068 539.258 440.692 540.794 440.692Z" fill="#242A31"/>
<path d="M479.414 387.5V382.54H484.15V381.164H479.414V377.708H484.662V376.332H477.862V387.5H479.414Z" fill="#242A31"/>
<path d="M491.431 387.5H492.919V379.212H491.431V384.876C491.431 385.916 490.471 386.396 489.527 386.396C488.359 386.396 487.767 385.676 487.767 384.284V379.212H486.279V384.508C486.279 386.524 487.335 387.692 489.031 387.692C490.407 387.692 491.047 386.94 491.351 386.14H491.431V387.5Z" fill="#242A31"/>
<path d="M497.035 387.5V381.82C497.035 380.812 497.979 380.316 498.955 380.316C500.123 380.316 500.699 381.036 500.699 382.428V387.5H502.187V382.204C502.187 380.188 501.147 379.02 499.451 379.02C498.203 379.02 497.499 379.66 497.115 380.572H497.035V379.212H495.547V387.5H497.035Z" fill="#242A31"/>
<path d="M509.966 387.5H511.454V375.66H509.966V380.572H509.902C509.518 379.548 508.654 379.02 507.518 379.02C505.438 379.02 504.19 380.668 504.19 383.356C504.19 386.044 505.438 387.692 507.518 387.692C508.654 387.692 509.518 387.164 509.902 386.14H509.966V387.5ZM507.95 386.396C506.622 386.396 505.774 385.452 505.774 384.06V382.652C505.774 381.26 506.622 380.316 507.95 380.316C509.07 380.316 509.966 380.956 509.966 381.836V384.876C509.966 385.756 509.07 386.396 507.95 386.396Z" fill="#242A31"/>
<path d="M514.83 377.484C515.454 377.484 515.726 377.148 515.726 376.668V376.444C515.726 375.964 515.454 375.628 514.83 375.628C514.206 375.628 513.934 375.964 513.934 376.444V376.668C513.934 377.148 514.206 377.484 514.83 377.484ZM514.078 387.5H515.566V379.212H514.078V387.5Z" fill="#242A31"/>
<path d="M519.675 387.5V381.82C519.675 380.812 520.619 380.316 521.595 380.316C522.763 380.316 523.339 381.036 523.339 382.428V387.5H524.827V382.204C524.827 380.188 523.787 379.02 522.091 379.02C520.843 379.02 520.139 379.66 519.755 380.572H519.675V379.212H518.187V387.5H519.675Z" fill="#242A31"/>
<path d="M534.479 388.348C534.479 386.956 533.599 386.108 531.551 386.108H529.663C528.911 386.108 528.447 385.964 528.447 385.484C528.447 385.02 528.911 384.748 529.391 384.604C529.663 384.668 529.999 384.7 530.319 384.7C532.319 384.7 533.535 383.548 533.535 381.868C533.535 380.956 533.167 380.188 532.495 379.692V379.244H534.127V377.996H532.863C532.159 377.996 531.855 378.444 531.855 379.132V379.308C531.407 379.132 530.895 379.02 530.319 379.02C528.335 379.02 527.119 380.188 527.119 381.868C527.119 383.004 527.679 383.916 528.655 384.38V384.444C527.839 384.636 527.215 385.052 527.215 385.884C527.215 386.476 527.503 386.892 528.031 387.1V387.276C527.183 387.484 526.671 387.98 526.671 388.876C526.671 390.156 527.727 390.892 530.367 390.892C533.167 390.892 534.479 390.06 534.479 388.348ZM533.087 388.492C533.087 389.34 532.319 389.756 530.911 389.756H529.791C528.495 389.756 527.999 389.212 527.999 388.524C527.999 388.06 528.207 387.708 528.671 387.468H531.455C532.671 387.468 533.087 387.868 533.087 388.492ZM530.335 383.58C529.279 383.58 528.623 383.084 528.623 382.076V381.66C528.623 380.652 529.279 380.156 530.335 380.156C531.391 380.156 532.047 380.652 532.047 381.66V382.076C532.047 383.084 531.391 383.58 530.335 383.58Z" fill="#242A31"/>
<path d="M488.988 334.5H490.54V324.708H493.996V323.332H485.532V324.708H488.988V334.5Z" fill="#242A31"/>
<path d="M497.8 334.692C499.352 334.692 500.552 333.972 501.128 332.9L500.168 332.084C499.72 332.932 498.968 333.428 497.928 333.428C496.44 333.428 495.592 332.436 495.592 331.06V330.724H501.432V330.1C501.432 327.78 500.12 326.02 497.8 326.02C495.496 326.02 494.04 327.732 494.04 330.356C494.04 332.98 495.496 334.692 497.8 334.692ZM497.8 327.22C499.048 327.22 499.848 328.148 499.848 329.524V329.684H495.592V329.572C495.592 328.212 496.504 327.22 497.8 327.22Z" fill="#242A31"/>
<path d="M510.341 334.5V333.236H509.413V328.868C509.413 327.076 508.229 326.02 506.165 326.02C504.629 326.02 503.653 326.74 503.157 327.636L504.053 328.452C504.485 327.748 505.109 327.268 506.085 327.268C507.333 327.268 507.925 327.892 507.925 328.996V329.748H506.357C503.989 329.748 502.821 330.612 502.821 332.212C502.821 333.732 503.829 334.692 505.557 334.692C506.741 334.692 507.621 334.148 507.957 333.124H508.037C508.149 333.924 508.581 334.5 509.493 334.5H510.341ZM505.893 333.492C504.965 333.492 504.373 333.06 504.373 332.292V331.972C504.373 331.204 504.981 330.788 506.341 330.788H507.925V332.068C507.925 332.9 507.061 333.492 505.893 333.492Z" fill="#242A31"/>
<path d="M513.605 334.5V328.82C513.605 327.812 514.517 327.316 515.461 327.316C516.597 327.316 517.125 328.036 517.125 329.428V334.5H518.613V328.82C518.613 327.812 519.493 327.316 520.453 327.316C521.605 327.316 522.133 328.036 522.133 329.428V334.5H523.621V329.204C523.621 327.188 522.629 326.02 520.965 326.02C519.573 326.02 518.741 326.804 518.437 327.7H518.405C517.973 326.532 516.997 326.02 515.893 326.02C514.789 326.02 514.037 326.724 513.685 327.572H513.605V326.212H512.117V334.5H513.605Z" fill="#242A31"/>
<path d="M470.47 281.5V280.124H465.062V276.54H470.07V275.164H465.062V271.708H470.47V270.332H463.51V281.5H470.47Z" fill="#242A31"/>
<path d="M474.277 281.5V275.82C474.277 274.812 475.221 274.316 476.197 274.316C477.365 274.316 477.941 275.036 477.941 276.428V281.5H479.429V276.204C479.429 274.188 478.389 273.02 476.693 273.02C475.445 273.02 474.741 273.66 474.357 274.572H474.277V273.212H472.789V281.5H474.277Z" fill="#242A31"/>
<path d="M489.081 282.348C489.081 280.956 488.201 280.108 486.153 280.108H484.265C483.513 280.108 483.049 279.964 483.049 279.484C483.049 279.02 483.513 278.748 483.993 278.604C484.265 278.668 484.601 278.7 484.921 278.7C486.921 278.7 488.137 277.548 488.137 275.868C488.137 274.956 487.769 274.188 487.097 273.692V273.244H488.729V271.996H487.465C486.761 271.996 486.457 272.444 486.457 273.132V273.308C486.009 273.132 485.497 273.02 484.921 273.02C482.937 273.02 481.721 274.188 481.721 275.868C481.721 277.004 482.281 277.916 483.257 278.38V278.444C482.441 278.636 481.817 279.052 481.817 279.884C481.817 280.476 482.105 280.892 482.633 281.1V281.276C481.785 281.484 481.273 281.98 481.273 282.876C481.273 284.156 482.329 284.892 484.969 284.892C487.769 284.892 489.081 284.06 489.081 282.348ZM487.689 282.492C487.689 283.34 486.921 283.756 485.513 283.756H484.393C483.097 283.756 482.601 283.212 482.601 282.524C482.601 282.06 482.809 281.708 483.273 281.468H486.057C487.273 281.468 487.689 281.868 487.689 282.492ZM484.937 277.58C483.881 277.58 483.225 277.084 483.225 276.076V275.66C483.225 274.652 483.881 274.156 484.937 274.156C485.993 274.156 486.649 274.652 486.649 275.66V276.076C486.649 277.084 485.993 277.58 484.937 277.58Z" fill="#242A31"/>
<path d="M491.244 271.484C491.868 271.484 492.14 271.148 492.14 270.668V270.444C492.14 269.964 491.868 269.628 491.244 269.628C490.62 269.628 490.348 269.964 490.348 270.444V270.668C490.348 271.148 490.62 271.484 491.244 271.484ZM490.492 281.5H491.98V273.212H490.492V281.5Z" fill="#242A31"/>
<path d="M496.089 281.5V275.82C496.089 274.812 497.033 274.316 498.009 274.316C499.177 274.316 499.753 275.036 499.753 276.428V281.5H501.241V276.204C501.241 274.188 500.201 273.02 498.505 273.02C497.257 273.02 496.553 273.66 496.169 274.572H496.089V273.212H494.601V281.5H496.089Z" fill="#242A31"/>
<path d="M506.941 281.692C508.493 281.692 509.693 280.972 510.269 279.9L509.309 279.084C508.861 279.932 508.109 280.428 507.069 280.428C505.581 280.428 504.733 279.436 504.733 278.06V277.724H510.573V277.1C510.573 274.78 509.261 273.02 506.941 273.02C504.637 273.02 503.181 274.732 503.181 277.356C503.181 279.98 504.637 281.692 506.941 281.692ZM506.941 274.22C508.189 274.22 508.989 275.148 508.989 276.524V276.684H504.733V276.572C504.733 275.212 505.645 274.22 506.941 274.22Z" fill="#242A31"/>
<path d="M515.769 281.692C517.321 281.692 518.521 280.972 519.097 279.9L518.137 279.084C517.689 279.932 516.937 280.428 515.897 280.428C514.409 280.428 513.561 279.436 513.561 278.06V277.724H519.401V277.1C519.401 274.78 518.089 273.02 515.769 273.02C513.465 273.02 512.009 274.732 512.009 277.356C512.009 279.98 513.465 281.692 515.769 281.692ZM515.769 274.22C517.017 274.22 517.817 275.148 517.817 276.524V276.684H513.561V276.572C513.561 275.212 514.473 274.22 515.769 274.22Z" fill="#242A31"/>
<path d="M522.917 281.5V276.06C522.917 275.244 523.717 274.7 525.093 274.7H525.829V273.212H525.333C524.005 273.212 523.269 273.98 522.997 274.796H522.917V273.212H521.429V281.5H522.917Z" fill="#242A31"/>
<path d="M528.181 271.484C528.805 271.484 529.077 271.148 529.077 270.668V270.444C529.077 269.964 528.805 269.628 528.181 269.628C527.557 269.628 527.285 269.964 527.285 270.444V270.668C527.285 271.148 527.557 271.484 528.181 271.484ZM527.429 281.5H528.917V273.212H527.429V281.5Z" fill="#242A31"/>
<path d="M533.027 281.5V275.82C533.027 274.812 533.971 274.316 534.947 274.316C536.115 274.316 536.691 275.036 536.691 276.428V281.5H538.179V276.204C538.179 274.188 537.139 273.02 535.443 273.02C534.195 273.02 533.491 273.66 533.107 274.572H533.027V273.212H531.539V281.5H533.027Z" fill="#242A31"/>
<path d="M547.831 282.348C547.831 280.956 546.951 280.108 544.903 280.108H543.015C542.263 280.108 541.799 279.964 541.799 279.484C541.799 279.02 542.263 278.748 542.743 278.604C543.015 278.668 543.351 278.7 543.671 278.7C545.671 278.7 546.887 277.548 546.887 275.868C546.887 274.956 546.519 274.188 545.847 273.692V273.244H547.479V271.996H546.215C545.511 271.996 545.207 272.444 545.207 273.132V273.308C544.759 273.132 544.247 273.02 543.671 273.02C541.687 273.02 540.471 274.188 540.471 275.868C540.471 277.004 541.031 277.916 542.007 278.38V278.444C541.191 278.636 540.567 279.052 540.567 279.884C540.567 280.476 540.855 280.892 541.383 281.1V281.276C540.535 281.484 540.023 281.98 540.023 282.876C540.023 284.156 541.079 284.892 543.719 284.892C546.519 284.892 547.831 284.06 547.831 282.348ZM546.439 282.492C546.439 283.34 545.671 283.756 544.263 283.756H543.143C541.847 283.756 541.351 283.212 541.351 282.524C541.351 282.06 541.559 281.708 542.023 281.468H544.807C546.023 281.468 546.439 281.868 546.439 282.492ZM543.687 277.58C542.631 277.58 541.975 277.084 541.975 276.076V275.66C541.975 274.652 542.631 274.156 543.687 274.156C544.743 274.156 545.399 274.652 545.399 275.66V276.076C545.399 277.084 544.743 277.58 543.687 277.58Z" fill="#242A31"/>
<path d="M451.989 493.5L455.717 482.332H454.133L452.325 487.916L451.141 491.98H451.061L449.893 487.916L448.085 482.332H446.453L450.149 493.5H451.989Z" fill="#242A31"/>
<path d="M463.7 493.5V492.236H462.772V487.868C462.772 486.076 461.588 485.02 459.524 485.02C457.988 485.02 457.012 485.74 456.516 486.636L457.412 487.452C457.844 486.748 458.468 486.268 459.444 486.268C460.692 486.268 461.284 486.892 461.284 487.996V488.748H459.716C457.348 488.748 456.18 489.612 456.18 491.212C456.18 492.732 457.188 493.692 458.916 493.692C460.1 493.692 460.98 493.148 461.316 492.124H461.396C461.508 492.924 461.94 493.5 462.852 493.5H463.7ZM459.252 492.492C458.324 492.492 457.732 492.06 457.732 491.292V490.972C457.732 490.204 458.34 489.788 459.7 489.788H461.284V491.068C461.284 491.9 460.42 492.492 459.252 492.492Z" fill="#242A31"/>
<path d="M468.148 493.5V492.236H466.964V481.66H465.476V491.98C465.476 492.892 466.004 493.5 467.028 493.5H468.148Z" fill="#242A31"/>
<path d="M475.001 493.5H476.489V485.212H475.001V490.876C475.001 491.916 474.041 492.396 473.097 492.396C471.929 492.396 471.337 491.676 471.337 490.284V485.212H469.849V490.508C469.849 492.524 470.905 493.692 472.601 493.692C473.977 493.692 474.617 492.94 474.921 492.14H475.001V493.5Z" fill="#242A31"/>
<path d="M482.285 493.692C483.837 493.692 485.037 492.972 485.613 491.9L484.653 491.084C484.205 491.932 483.453 492.428 482.413 492.428C480.925 492.428 480.077 491.436 480.077 490.06V489.724H485.917V489.1C485.917 486.78 484.605 485.02 482.285 485.02C479.981 485.02 478.525 486.732 478.525 489.356C478.525 491.98 479.981 493.692 482.285 493.692ZM482.285 486.22C483.533 486.22 484.333 487.148 484.333 488.524V488.684H480.077V488.572C480.077 487.212 480.989 486.22 482.285 486.22Z" fill="#242A31"/>
<path d="M490.489 493.692C492.441 493.692 493.657 492.684 493.657 491.068C493.657 489.788 492.905 488.988 491.081 488.716L490.377 488.604C489.417 488.46 488.937 488.156 488.937 487.42C488.937 486.716 489.449 486.252 490.457 486.252C491.449 486.252 492.153 486.716 492.553 487.244L493.497 486.348C492.793 485.516 491.913 485.02 490.505 485.02C488.761 485.02 487.497 485.884 487.497 487.516C487.497 489.052 488.601 489.708 490.185 489.932L490.889 490.044C491.897 490.188 492.217 490.62 492.217 491.228C492.217 491.996 491.641 492.46 490.585 492.46C489.577 492.46 488.809 492.012 488.185 491.228L487.177 492.092C487.945 493.068 488.953 493.692 490.489 493.692Z" fill="#242A31"/>
<path d="M507.202 493.5H509.106L506.914 491.164C507.266 490.492 507.522 489.708 507.682 488.828H508.786V487.58H506.514C506.466 488.476 506.306 489.388 506.002 490.188L503.634 487.644C505.01 486.876 506.13 486.028 506.13 484.572C506.13 483.1 504.978 482.14 503.346 482.14C501.538 482.14 500.37 483.324 500.37 484.828C500.37 485.82 500.882 486.668 501.618 487.452C500.45 488.108 499.346 488.956 499.346 490.604C499.346 492.332 500.578 493.692 502.834 493.692C504.594 493.692 505.586 492.828 506.082 492.268L507.202 493.5ZM503.282 483.356C504.05 483.356 504.706 483.82 504.706 484.62V484.796C504.706 485.628 503.81 486.284 502.866 486.812C502.21 486.092 501.81 485.516 501.81 484.908V484.748C501.81 483.948 502.434 483.356 503.282 483.356ZM502.994 492.412C501.698 492.412 500.882 491.708 500.882 490.604V490.38C500.882 489.26 501.554 488.748 502.386 488.3L505.266 491.388C504.722 492.012 503.986 492.412 502.994 492.412Z" fill="#242A31"/>
<path d="M519.067 493.5L522.795 482.332H521.211L519.403 487.916L518.219 491.98H518.139L516.971 487.916L515.163 482.332H513.531L517.227 493.5H519.067Z" fill="#242A31"/>
<path d="M525.166 483.484C525.79 483.484 526.062 483.148 526.062 482.668V482.444C526.062 481.964 525.79 481.628 525.166 481.628C524.542 481.628 524.27 481.964 524.27 482.444V482.668C524.27 483.148 524.542 483.484 525.166 483.484ZM524.414 493.5H525.902V485.212H524.414V493.5Z" fill="#242A31"/>
<path d="M530.011 493.5V488.06C530.011 487.244 530.811 486.7 532.187 486.7H532.923V485.212H532.427C531.099 485.212 530.363 485.98 530.091 486.796H530.011V485.212H528.523V493.5H530.011Z" fill="#242A31"/>
<path d="M538.186 493.5V492.236H536.538V486.476H538.314V485.212H536.538V482.924H535.194V484.444C535.194 485.004 535.018 485.212 534.458 485.212H533.722V486.476H535.05V491.932C535.05 492.892 535.594 493.5 536.618 493.5H538.186Z" fill="#242A31"/>
<path d="M545.376 493.5H546.864V485.212H545.376V490.876C545.376 491.916 544.416 492.396 543.472 492.396C542.304 492.396 541.712 491.676 541.712 490.284V485.212H540.224V490.508C540.224 492.524 541.28 493.692 542.976 493.692C544.352 493.692 544.992 492.94 545.296 492.14H545.376V493.5Z" fill="#242A31"/>
<path d="M552.66 493.692C554.212 493.692 555.412 492.972 555.988 491.9L555.028 491.084C554.58 491.932 553.828 492.428 552.788 492.428C551.3 492.428 550.452 491.436 550.452 490.06V489.724H556.292V489.1C556.292 486.78 554.98 485.02 552.66 485.02C550.356 485.02 548.9 486.732 548.9 489.356C548.9 491.98 550.356 493.692 552.66 493.692ZM552.66 486.22C553.908 486.22 554.708 487.148 554.708 488.524V488.684H550.452V488.572C550.452 487.212 551.364 486.22 552.66 486.22Z" fill="#242A31"/>
<path d="M560.864 493.692C562.816 493.692 564.032 492.684 564.032 491.068C564.032 489.788 563.28 488.988 561.456 488.716L560.752 488.604C559.792 488.46 559.312 488.156 559.312 487.42C559.312 486.716 559.824 486.252 560.832 486.252C561.824 486.252 562.528 486.716 562.928 487.244L563.872 486.348C563.168 485.516 562.288 485.02 560.88 485.02C559.136 485.02 557.872 485.884 557.872 487.516C557.872 489.052 558.976 489.708 560.56 489.932L561.264 490.044C562.272 490.188 562.592 490.62 562.592 491.228C562.592 491.996 562.016 492.46 560.96 492.46C559.952 492.46 559.184 492.012 558.56 491.228L557.552 492.092C558.32 493.068 559.328 493.692 560.864 493.692Z" fill="#242A31"/>
<path d="M442.612 546.5H444.116V537.476H444.196L445.108 539.316L447.668 544.004L450.228 539.316L451.14 537.476H451.22V546.5H452.724V535.332H450.836L447.732 541.204H447.668L444.564 535.332H442.612V546.5Z" fill="#242A31"/>
<path d="M456.22 536.484C456.844 536.484 457.116 536.148 457.116 535.668V535.444C457.116 534.964 456.844 534.628 456.22 534.628C455.596 534.628 455.324 534.964 455.324 535.444V535.668C455.324 536.148 455.596 536.484 456.22 536.484ZM455.468 546.5H456.956V538.212H455.468V546.5Z" fill="#242A31"/>
<path d="M462.122 546.692C464.074 546.692 465.29 545.684 465.29 544.068C465.29 542.788 464.538 541.988 462.714 541.716L462.01 541.604C461.05 541.46 460.57 541.156 460.57 540.42C460.57 539.716 461.082 539.252 462.09 539.252C463.082 539.252 463.786 539.716 464.186 540.244L465.13 539.348C464.426 538.516 463.546 538.02 462.138 538.02C460.394 538.02 459.13 538.884 459.13 540.516C459.13 542.052 460.234 542.708 461.818 542.932L462.522 543.044C463.53 543.188 463.85 543.62 463.85 544.228C463.85 544.996 463.274 545.46 462.218 545.46C461.21 545.46 460.442 545.012 459.818 544.228L458.81 545.092C459.578 546.068 460.586 546.692 462.122 546.692Z" fill="#242A31"/>
<path d="M469.872 546.692C471.824 546.692 473.04 545.684 473.04 544.068C473.04 542.788 472.288 541.988 470.464 541.716L469.76 541.604C468.8 541.46 468.32 541.156 468.32 540.42C468.32 539.716 468.832 539.252 469.84 539.252C470.832 539.252 471.536 539.716 471.936 540.244L472.88 539.348C472.176 538.516 471.296 538.02 469.888 538.02C468.144 538.02 466.88 538.884 466.88 540.516C466.88 542.052 467.984 542.708 469.568 542.932L470.272 543.044C471.28 543.188 471.6 543.62 471.6 544.228C471.6 544.996 471.024 545.46 469.968 545.46C468.96 545.46 468.192 545.012 467.568 544.228L466.56 545.092C467.328 546.068 468.336 546.692 469.872 546.692Z" fill="#242A31"/>
<path d="M475.924 536.484C476.548 536.484 476.82 536.148 476.82 535.668V535.444C476.82 534.964 476.548 534.628 475.924 534.628C475.3 534.628 475.028 534.964 475.028 535.444V535.668C475.028 536.148 475.3 536.484 475.924 536.484ZM475.172 546.5H476.66V538.212H475.172V546.5Z" fill="#242A31"/>
<path d="M482.465 546.692C484.721 546.692 486.241 544.996 486.241 542.356C486.241 539.716 484.721 538.02 482.465 538.02C480.209 538.02 478.689 539.716 478.689 542.356C478.689 544.996 480.209 546.692 482.465 546.692ZM482.465 545.412C481.169 545.412 480.273 544.596 480.273 542.98V541.732C480.273 540.116 481.169 539.3 482.465 539.3C483.761 539.3 484.657 540.116 484.657 541.732V542.98C484.657 544.596 483.761 545.412 482.465 545.412Z" fill="#242A31"/>
<path d="M489.753 546.5V540.82C489.753 539.812 490.697 539.316 491.673 539.316C492.841 539.316 493.417 540.036 493.417 541.428V546.5H494.905V541.204C494.905 539.188 493.865 538.02 492.169 538.02C490.921 538.02 490.217 538.66 489.833 539.572H489.753V538.212H488.265V546.5H489.753Z" fill="#242A31"/>
<path d="M508.85 546.5H510.754L508.562 544.164C508.914 543.492 509.17 542.708 509.33 541.828H510.434V540.58H508.162C508.114 541.476 507.954 542.388 507.65 543.188L505.282 540.644C506.658 539.876 507.778 539.028 507.778 537.572C507.778 536.1 506.626 535.14 504.994 535.14C503.186 535.14 502.018 536.324 502.018 537.828C502.018 538.82 502.53 539.668 503.266 540.452C502.098 541.108 500.994 541.956 500.994 543.604C500.994 545.332 502.226 546.692 504.482 546.692C506.242 546.692 507.234 545.828 507.73 545.268L508.85 546.5ZM504.93 536.356C505.698 536.356 506.354 536.82 506.354 537.62V537.796C506.354 538.628 505.458 539.284 504.514 539.812C503.858 539.092 503.458 538.516 503.458 537.908V537.748C503.458 536.948 504.082 536.356 504.93 536.356ZM504.642 545.412C503.346 545.412 502.53 544.708 502.53 543.604V543.38C502.53 542.26 503.202 541.748 504.034 541.3L506.914 544.388C506.37 545.012 505.634 545.412 504.642 545.412Z" fill="#242A31"/>
<path d="M516.315 546.5H517.819V537.476H517.899L518.811 539.316L521.371 544.004L523.931 539.316L524.843 537.476H524.923V546.5H526.427V535.332H524.539L521.435 541.204H521.371L518.267 535.332H516.315V546.5Z" fill="#242A31"/>
<path d="M529.924 536.484C530.548 536.484 530.82 536.148 530.82 535.668V535.444C530.82 534.964 530.548 534.628 529.924 534.628C529.3 534.628 529.028 534.964 529.028 535.444V535.668C529.028 536.148 529.3 536.484 529.924 536.484ZM529.172 546.5H530.66V538.212H529.172V546.5Z" fill="#242A31"/>
<path d="M535.825 546.692C537.777 546.692 538.993 545.684 538.993 544.068C538.993 542.788 538.241 541.988 536.417 541.716L535.713 541.604C534.753 541.46 534.273 541.156 534.273 540.42C534.273 539.716 534.785 539.252 535.793 539.252C536.785 539.252 537.489 539.716 537.889 540.244L538.833 539.348C538.129 538.516 537.249 538.02 535.841 538.02C534.097 538.02 532.833 538.884 532.833 540.516C532.833 542.052 533.937 542.708 535.521 542.932L536.225 543.044C537.233 543.188 537.553 543.62 537.553 544.228C537.553 544.996 536.977 545.46 535.921 545.46C534.913 545.46 534.145 545.012 533.521 544.228L532.513 545.092C533.281 546.068 534.289 546.692 535.825 546.692Z" fill="#242A31"/>
<path d="M543.575 546.692C545.527 546.692 546.743 545.684 546.743 544.068C546.743 542.788 545.991 541.988 544.167 541.716L543.463 541.604C542.503 541.46 542.023 541.156 542.023 540.42C542.023 539.716 542.535 539.252 543.543 539.252C544.535 539.252 545.239 539.716 545.639 540.244L546.583 539.348C545.879 538.516 544.999 538.02 543.591 538.02C541.847 538.02 540.583 538.884 540.583 540.516C540.583 542.052 541.687 542.708 543.271 542.932L543.975 543.044C544.983 543.188 545.303 543.62 545.303 544.228C545.303 544.996 544.727 545.46 543.671 545.46C542.663 545.46 541.895 545.012 541.271 544.228L540.263 545.092C541.031 546.068 542.039 546.692 543.575 546.692Z" fill="#242A31"/>
<path d="M549.627 536.484C550.251 536.484 550.523 536.148 550.523 535.668V535.444C550.523 534.964 550.251 534.628 549.627 534.628C549.003 534.628 548.731 534.964 548.731 535.444V535.668C548.731 536.148 549.003 536.484 549.627 536.484ZM548.875 546.5H550.363V538.212H548.875V546.5Z" fill="#242A31"/>
<path d="M556.168 546.692C558.424 546.692 559.944 544.996 559.944 542.356C559.944 539.716 558.424 538.02 556.168 538.02C553.912 538.02 552.392 539.716 552.392 542.356C552.392 544.996 553.912 546.692 556.168 546.692ZM556.168 545.412C554.872 545.412 553.976 544.596 553.976 542.98V541.732C553.976 540.116 554.872 539.3 556.168 539.3C557.464 539.3 558.36 540.116 558.36 541.732V542.98C558.36 544.596 557.464 545.412 556.168 545.412Z" fill="#242A31"/>
<path d="M563.456 546.5V540.82C563.456 539.812 564.4 539.316 565.376 539.316C566.544 539.316 567.12 540.036 567.12 541.428V546.5H568.608V541.204C568.608 539.188 567.568 538.02 565.872 538.02C564.624 538.02 563.92 538.66 563.536 539.572H563.456V538.212H561.968V546.5H563.456Z" fill="#242A31"/>
</g>
<mask id="mask2" mask-type="alpha" maskUnits="userSpaceOnUse" x="695" y="0" width="316" height="575">
<path d="M853 574.5H1008.65C1009.88 574.5 1010.82 573.399 1010.63 572.184L919.27 1.68375C919.114 0.713622 918.277 0 917.295 0H788.207C787.224 0 786.386 0.714539 786.232 1.68543L695.369 572.185C695.175 573.4 696.114 574.5 697.344 574.5H853Z" fill="#C4C4C4"/>
</mask>
<g mask="url(#mask2)">
<path d="M853 574.5H1008.65C1009.88 574.5 1010.82 573.399 1010.63 572.184L919.27 1.68375C919.114 0.713622 918.277 0 917.295 0H788.207C787.224 0 786.386 0.714539 786.232 1.68543L695.369 572.185C695.175 573.4 696.114 574.5 697.344 574.5H853Z" fill="#F5F7F9"/>
<path d="M853 574.5H1008.65C1009.88 574.5 1010.82 573.399 1010.63 572.184L919.27 1.68375C919.114 0.713622 918.277 0 917.295 0H788.207C787.224 0 786.386 0.714539 786.232 1.68543L695.369 572.185C695.175 573.4 696.114 574.5 697.344 574.5H853Z" fill="url(#paint2_linear)"/>
<path d="M695 513.5V511.5H1011V513.5H695Z" fill="white"/>
<path d="M695 459.5V457.5H1011V459.5H695Z" fill="white"/>
<path d="M695 405.5V403.5H1011V405.5H695Z" fill="white"/>
<path d="M695 351.5V349.5H1011V351.5H695Z" fill="white"/>
<path d="M695 248.5V246.5L1011 246.5V248.5L695 248.5Z" fill="white"/>
<path d="M695 194.5V192.5L1011 192.5V194.5L695 194.5Z" fill="white"/>
<path d="M695 135.5V133.5L1011 133.5V135.5L695 135.5Z" fill="white"/>
<path d="M695 135.5V133.5L1011 133.5V135.5L695 135.5Z" fill="white"/>
<path d="M695 81.5V79.5L1011 79.5V81.5L695 81.5Z" fill="white"/>
<path d="M695 302.5V300.5H1011V302.5H695Z" fill="white"/>
<path d="M698 574.5H1008V573.5H698V574.5Z" fill="#30CEFE"/>
<path d="M823.251 439.5L819.395 428.332H817.443L813.571 439.5H815.139L816.211 436.348H820.563L821.619 439.5H823.251ZM820.179 434.972H816.579L818.339 429.756H818.419L820.179 434.972Z" fill="#242A31"/>
<path d="M826.11 439.5H827.838L828.958 435.612L829.646 433.18H829.678L830.382 435.612L831.502 439.5H833.262L835.47 431.212H834.078L833.198 434.748L832.414 438.156H832.366L831.406 434.748L830.35 431.212H829.022L827.998 434.748L827.054 438.156H827.022L826.19 434.748L825.326 431.212H823.886L826.11 439.5Z" fill="#242A31"/>
<path d="M843.973 439.5V438.236H843.045V433.868C843.045 432.076 841.861 431.02 839.797 431.02C838.261 431.02 837.285 431.74 836.789 432.636L837.685 433.452C838.117 432.748 838.741 432.268 839.717 432.268C840.965 432.268 841.557 432.892 841.557 433.996V434.748H839.989C837.621 434.748 836.453 435.612 836.453 437.212C836.453 438.732 837.461 439.692 839.189 439.692C840.373 439.692 841.253 439.148 841.589 438.124H841.669C841.781 438.924 842.213 439.5 843.125 439.5H843.973ZM839.525 438.492C838.597 438.492 838.005 438.06 838.005 437.292V436.972C838.005 436.204 838.613 435.788 839.973 435.788H841.557V437.068C841.557 437.9 840.693 438.492 839.525 438.492Z" fill="#242A31"/>
<path d="M847.238 439.5V434.06C847.238 433.244 848.038 432.7 849.414 432.7H850.15V431.212H849.654C848.326 431.212 847.59 431.98 847.318 432.796H847.238V431.212H845.75V439.5H847.238Z" fill="#242A31"/>
<path d="M854.839 439.692C856.391 439.692 857.591 438.972 858.167 437.9L857.207 437.084C856.759 437.932 856.007 438.428 854.967 438.428C853.479 438.428 852.631 437.436 852.631 436.06V435.724H858.471V435.1C858.471 432.78 857.159 431.02 854.839 431.02C852.535 431.02 851.079 432.732 851.079 435.356C851.079 437.98 852.535 439.692 854.839 439.692ZM854.839 432.22C856.087 432.22 856.887 433.148 856.887 434.524V434.684H852.631V434.572C852.631 433.212 853.543 432.22 854.839 432.22Z" fill="#242A31"/>
<path d="M861.988 439.5V433.82C861.988 432.812 862.932 432.316 863.908 432.316C865.076 432.316 865.652 433.036 865.652 434.428V439.5H867.14V434.204C867.14 432.188 866.1 431.02 864.404 431.02C863.156 431.02 862.452 431.66 862.068 432.572H861.988V431.212H860.5V439.5H861.988Z" fill="#242A31"/>
<path d="M872.839 439.692C874.391 439.692 875.591 438.972 876.167 437.9L875.207 437.084C874.759 437.932 874.007 438.428 872.967 438.428C871.479 438.428 870.631 437.436 870.631 436.06V435.724H876.471V435.1C876.471 432.78 875.159 431.02 872.839 431.02C870.535 431.02 869.079 432.732 869.079 435.356C869.079 437.98 870.535 439.692 872.839 439.692ZM872.839 432.22C874.087 432.22 874.887 433.148 874.887 434.524V434.684H870.631V434.572C870.631 433.212 871.543 432.22 872.839 432.22Z" fill="#242A31"/>
<path d="M881.044 439.692C882.996 439.692 884.212 438.684 884.212 437.068C884.212 435.788 883.46 434.988 881.636 434.716L880.932 434.604C879.972 434.46 879.492 434.156 879.492 433.42C879.492 432.716 880.004 432.252 881.012 432.252C882.004 432.252 882.708 432.716 883.108 433.244L884.052 432.348C883.348 431.516 882.468 431.02 881.06 431.02C879.316 431.02 878.052 431.884 878.052 433.516C878.052 435.052 879.156 435.708 880.74 435.932L881.444 436.044C882.452 436.188 882.772 436.62 882.772 437.228C882.772 437.996 882.196 438.46 881.14 438.46C880.132 438.46 879.364 438.012 878.74 437.228L877.732 438.092C878.5 439.068 879.508 439.692 881.044 439.692Z" fill="#242A31"/>
<path d="M888.794 439.692C890.746 439.692 891.962 438.684 891.962 437.068C891.962 435.788 891.21 434.988 889.386 434.716L888.682 434.604C887.722 434.46 887.242 434.156 887.242 433.42C887.242 432.716 887.754 432.252 888.762 432.252C889.754 432.252 890.458 432.716 890.858 433.244L891.802 432.348C891.098 431.516 890.218 431.02 888.81 431.02C887.066 431.02 885.802 431.884 885.802 433.516C885.802 435.052 886.906 435.708 888.49 435.932L889.194 436.044C890.202 436.188 890.522 436.62 890.522 437.228C890.522 437.996 889.946 438.46 888.89 438.46C887.882 438.46 887.114 438.012 886.49 437.228L885.482 438.092C886.25 439.068 887.258 439.692 888.794 439.692Z" fill="#242A31"/>
<path d="M827.414 386.5V381.54H832.15V380.164H827.414V376.708H832.662V375.332H825.862V386.5H827.414Z" fill="#242A31"/>
<path d="M839.431 386.5H840.919V378.212H839.431V383.876C839.431 384.916 838.471 385.396 837.527 385.396C836.359 385.396 835.767 384.676 835.767 383.284V378.212H834.279V383.508C834.279 385.524 835.335 386.692 837.031 386.692C838.407 386.692 839.047 385.94 839.351 385.14H839.431V386.5Z" fill="#242A31"/>
<path d="M845.034 386.5V380.82C845.034 379.812 845.978 379.316 846.954 379.316C848.122 379.316 848.698 380.036 848.698 381.428V386.5H850.186V381.204C850.186 379.188 849.146 378.02 847.45 378.02C846.202 378.02 845.498 378.66 845.114 379.572H845.034V378.212H843.546V386.5H845.034Z" fill="#242A31"/>
<path d="M857.966 386.5H859.454V374.66H857.966V379.572H857.902C857.518 378.548 856.654 378.02 855.518 378.02C853.438 378.02 852.19 379.668 852.19 382.356C852.19 385.044 853.438 386.692 855.518 386.692C856.654 386.692 857.518 386.164 857.902 385.14H857.966V386.5ZM855.95 385.396C854.622 385.396 853.774 384.452 853.774 383.06V381.652C853.774 380.26 854.622 379.316 855.95 379.316C857.07 379.316 857.966 379.956 857.966 380.836V383.876C857.966 384.756 857.07 385.396 855.95 385.396Z" fill="#242A31"/>
<path d="M862.83 376.484C863.454 376.484 863.726 376.148 863.726 375.668V375.444C863.726 374.964 863.454 374.628 862.83 374.628C862.206 374.628 861.934 374.964 861.934 375.444V375.668C861.934 376.148 862.206 376.484 862.83 376.484ZM862.078 386.5H863.566V378.212H862.078V386.5Z" fill="#242A31"/>
<path d="M867.675 386.5V380.82C867.675 379.812 868.619 379.316 869.595 379.316C870.763 379.316 871.339 380.036 871.339 381.428V386.5H872.827V381.204C872.827 379.188 871.787 378.02 870.091 378.02C868.843 378.02 868.139 378.66 867.755 379.572H867.675V378.212H866.187V386.5H867.675Z" fill="#242A31"/>
<path d="M882.479 387.348C882.479 385.956 881.599 385.108 879.551 385.108H877.663C876.911 385.108 876.447 384.964 876.447 384.484C876.447 384.02 876.911 383.748 877.391 383.604C877.663 383.668 877.999 383.7 878.319 383.7C880.319 383.7 881.535 382.548 881.535 380.868C881.535 379.956 881.167 379.188 880.495 378.692V378.244H882.127V376.996H880.863C880.159 376.996 879.855 377.444 879.855 378.132V378.308C879.407 378.132 878.895 378.02 878.319 378.02C876.335 378.02 875.119 379.188 875.119 380.868C875.119 382.004 875.679 382.916 876.655 383.38V383.444C875.839 383.636 875.215 384.052 875.215 384.884C875.215 385.476 875.503 385.892 876.031 386.1V386.276C875.183 386.484 874.671 386.98 874.671 387.876C874.671 389.156 875.727 389.892 878.367 389.892C881.167 389.892 882.479 389.06 882.479 387.348ZM881.087 387.492C881.087 388.34 880.319 388.756 878.911 388.756H877.791C876.495 388.756 875.999 388.212 875.999 387.524C875.999 387.06 876.207 386.708 876.671 386.468H879.455C880.671 386.468 881.087 386.868 881.087 387.492ZM878.335 382.58C877.279 382.58 876.623 382.084 876.623 381.076V380.66C876.623 379.652 877.279 379.156 878.335 379.156C879.391 379.156 880.047 379.652 880.047 380.66V381.076C880.047 382.084 879.391 382.58 878.335 382.58Z" fill="#242A31"/>
<path d="M836.988 333.5H838.54V323.708H841.996V322.332H833.532V323.708H836.988V333.5Z" fill="#242A31"/>
<path d="M845.8 333.692C847.352 333.692 848.552 332.972 849.128 331.9L848.168 331.084C847.72 331.932 846.968 332.428 845.928 332.428C844.44 332.428 843.592 331.436 843.592 330.06V329.724H849.432V329.1C849.432 326.78 848.12 325.02 845.8 325.02C843.496 325.02 842.04 326.732 842.04 329.356C842.04 331.98 843.496 333.692 845.8 333.692ZM845.8 326.22C847.048 326.22 847.848 327.148 847.848 328.524V328.684H843.592V328.572C843.592 327.212 844.504 326.22 845.8 326.22Z" fill="#242A31"/>
<path d="M858.34 333.5V332.236H857.412V327.868C857.412 326.076 856.228 325.02 854.164 325.02C852.628 325.02 851.652 325.74 851.156 326.636L852.052 327.452C852.484 326.748 853.108 326.268 854.084 326.268C855.332 326.268 855.924 326.892 855.924 327.996V328.748H854.356C851.988 328.748 850.82 329.612 850.82 331.212C850.82 332.732 851.828 333.692 853.556 333.692C854.74 333.692 855.62 333.148 855.956 332.124H856.036C856.148 332.924 856.58 333.5 857.492 333.5H858.34ZM853.892 332.492C852.964 332.492 852.372 332.06 852.372 331.292V330.972C852.372 330.204 852.98 329.788 854.34 329.788H855.924V331.068C855.924 331.9 855.06 332.492 853.892 332.492Z" fill="#242A31"/>
<path d="M861.605 333.5V327.82C861.605 326.812 862.517 326.316 863.461 326.316C864.597 326.316 865.125 327.036 865.125 328.428V333.5H866.613V327.82C866.613 326.812 867.493 326.316 868.453 326.316C869.605 326.316 870.133 327.036 870.133 328.428V333.5H871.621V328.204C871.621 326.188 870.629 325.02 868.965 325.02C867.573 325.02 866.741 325.804 866.437 326.7H866.405C865.973 325.532 864.997 325.02 863.893 325.02C862.789 325.02 862.037 325.724 861.685 326.572H861.605V325.212H860.117V333.5H861.605Z" fill="#242A31"/>
<path d="M818.47 280.5V279.124H813.062V275.54H818.07V274.164H813.062V270.708H818.47V269.332H811.51V280.5H818.47Z" fill="#242A31"/>
<path d="M822.277 280.5V274.82C822.277 273.812 823.221 273.316 824.197 273.316C825.365 273.316 825.941 274.036 825.941 275.428V280.5H827.429V275.204C827.429 273.188 826.389 272.02 824.693 272.02C823.445 272.02 822.741 272.66 822.357 273.572H822.277V272.212H820.789V280.5H822.277Z" fill="#242A31"/>
<path d="M837.08 281.348C837.08 279.956 836.2 279.108 834.152 279.108H832.264C831.512 279.108 831.048 278.964 831.048 278.484C831.048 278.02 831.512 277.748 831.992 277.604C832.264 277.668 832.6 277.7 832.92 277.7C834.92 277.7 836.136 276.548 836.136 274.868C836.136 273.956 835.768 273.188 835.096 272.692V272.244H836.728V270.996H835.464C834.76 270.996 834.456 271.444 834.456 272.132V272.308C834.008 272.132 833.496 272.02 832.92 272.02C830.936 272.02 829.72 273.188 829.72 274.868C829.72 276.004 830.28 276.916 831.256 277.38V277.444C830.44 277.636 829.816 278.052 829.816 278.884C829.816 279.476 830.104 279.892 830.632 280.1V280.276C829.784 280.484 829.272 280.98 829.272 281.876C829.272 283.156 830.328 283.892 832.968 283.892C835.768 283.892 837.08 283.06 837.08 281.348ZM835.688 281.492C835.688 282.34 834.92 282.756 833.512 282.756H832.392C831.096 282.756 830.6 282.212 830.6 281.524C830.6 281.06 830.808 280.708 831.272 280.468H834.056C835.272 280.468 835.688 280.868 835.688 281.492ZM832.936 276.58C831.88 276.58 831.224 276.084 831.224 275.076V274.66C831.224 273.652 831.88 273.156 832.936 273.156C833.992 273.156 834.648 273.652 834.648 274.66V275.076C834.648 276.084 833.992 276.58 832.936 276.58Z" fill="#242A31"/>
<path d="M839.244 270.484C839.868 270.484 840.14 270.148 840.14 269.668V269.444C840.14 268.964 839.868 268.628 839.244 268.628C838.62 268.628 838.348 268.964 838.348 269.444V269.668C838.348 270.148 838.62 270.484 839.244 270.484ZM838.492 280.5H839.98V272.212H838.492V280.5Z" fill="#242A31"/>
<path d="M844.089 280.5V274.82C844.089 273.812 845.033 273.316 846.009 273.316C847.177 273.316 847.753 274.036 847.753 275.428V280.5H849.241V275.204C849.241 273.188 848.201 272.02 846.505 272.02C845.257 272.02 844.553 272.66 844.169 273.572H844.089V272.212H842.601V280.5H844.089Z" fill="#242A31"/>
<path d="M854.941 280.692C856.493 280.692 857.693 279.972 858.269 278.9L857.309 278.084C856.861 278.932 856.109 279.428 855.069 279.428C853.581 279.428 852.733 278.436 852.733 277.06V276.724H858.573V276.1C858.573 273.78 857.261 272.02 854.941 272.02C852.637 272.02 851.181 273.732 851.181 276.356C851.181 278.98 852.637 280.692 854.941 280.692ZM854.941 273.22C856.189 273.22 856.989 274.148 856.989 275.524V275.684H852.733V275.572C852.733 274.212 853.645 273.22 854.941 273.22Z" fill="#242A31"/>
<path d="M863.769 280.692C865.321 280.692 866.521 279.972 867.097 278.9L866.137 278.084C865.689 278.932 864.937 279.428 863.897 279.428C862.409 279.428 861.561 278.436 861.561 277.06V276.724H867.401V276.1C867.401 273.78 866.089 272.02 863.769 272.02C861.465 272.02 860.009 273.732 860.009 276.356C860.009 278.98 861.465 280.692 863.769 280.692ZM863.769 273.22C865.017 273.22 865.817 274.148 865.817 275.524V275.684H861.561V275.572C861.561 274.212 862.473 273.22 863.769 273.22Z" fill="#242A31"/>
<path d="M870.917 280.5V275.06C870.917 274.244 871.717 273.7 873.093 273.7H873.829V272.212H873.333C872.005 272.212 871.269 272.98 870.997 273.796H870.917V272.212H869.429V280.5H870.917Z" fill="#242A31"/>
<path d="M876.181 270.484C876.805 270.484 877.077 270.148 877.077 269.668V269.444C877.077 268.964 876.805 268.628 876.181 268.628C875.557 268.628 875.285 268.964 875.285 269.444V269.668C875.285 270.148 875.557 270.484 876.181 270.484ZM875.429 280.5H876.917V272.212H875.429V280.5Z" fill="#242A31"/>
<path d="M881.027 280.5V274.82C881.027 273.812 881.971 273.316 882.947 273.316C884.115 273.316 884.69 274.036 884.69 275.428V280.5H886.179V275.204C886.179 273.188 885.139 272.02 883.443 272.02C882.195 272.02 881.49 272.66 881.106 273.572H881.027V272.212H879.538V280.5H881.027Z" fill="#242A31"/>
<path d="M895.83 281.348C895.83 279.956 894.95 279.108 892.902 279.108H891.014C890.262 279.108 889.798 278.964 889.798 278.484C889.798 278.02 890.262 277.748 890.742 277.604C891.014 277.668 891.35 277.7 891.67 277.7C893.67 277.7 894.886 276.548 894.886 274.868C894.886 273.956 894.518 273.188 893.846 272.692V272.244H895.478V270.996H894.214C893.51 270.996 893.206 271.444 893.206 272.132V272.308C892.758 272.132 892.246 272.02 891.67 272.02C889.686 272.02 888.47 273.188 888.47 274.868C888.47 276.004 889.03 276.916 890.006 277.38V277.444C889.19 277.636 888.566 278.052 888.566 278.884C888.566 279.476 888.854 279.892 889.382 280.1V280.276C888.534 280.484 888.022 280.98 888.022 281.876C888.022 283.156 889.078 283.892 891.718 283.892C894.518 283.892 895.83 283.06 895.83 281.348ZM894.438 281.492C894.438 282.34 893.67 282.756 892.262 282.756H891.142C889.846 282.756 889.35 282.212 889.35 281.524C889.35 281.06 889.558 280.708 890.022 280.468H892.806C894.022 280.468 894.438 280.868 894.438 281.492ZM891.686 276.58C890.63 276.58 889.974 276.084 889.974 275.076V274.66C889.974 273.652 890.63 273.156 891.686 273.156C892.742 273.156 893.398 273.652 893.398 274.66V275.076C893.398 276.084 892.742 276.58 891.686 276.58Z" fill="#242A31"/>
<path d="M778.383 227.5V222.892H781.439C783.455 222.892 784.607 221.596 784.607 219.612C784.607 217.628 783.455 216.332 781.439 216.332H776.831V227.5H778.383ZM778.383 217.708H781.375C782.367 217.708 782.959 218.252 782.959 219.212V220.012C782.959 220.972 782.367 221.516 781.375 221.516H778.383V217.708Z" fill="#242A31"/>
<path d="M787.894 227.5V222.06C787.894 221.244 788.694 220.7 790.07 220.7H790.806V219.212H790.31C788.982 219.212 788.246 219.98 787.974 220.796H787.894V219.212H786.406V227.5H787.894Z" fill="#242A31"/>
<path d="M795.512 227.692C797.768 227.692 799.288 225.996 799.288 223.356C799.288 220.716 797.768 219.02 795.512 219.02C793.256 219.02 791.736 220.716 791.736 223.356C791.736 225.996 793.256 227.692 795.512 227.692ZM795.512 226.412C794.216 226.412 793.32 225.596 793.32 223.98V222.732C793.32 221.116 794.216 220.3 795.512 220.3C796.808 220.3 797.704 221.116 797.704 222.732V223.98C797.704 225.596 796.808 226.412 795.512 226.412Z" fill="#242A31"/>
<path d="M806.56 227.5H808.048V215.66H806.56V220.572H806.496C806.112 219.548 805.248 219.02 804.112 219.02C802.032 219.02 800.784 220.668 800.784 223.356C800.784 226.044 802.032 227.692 804.112 227.692C805.248 227.692 806.112 227.164 806.496 226.14H806.56V227.5ZM804.544 226.396C803.216 226.396 802.368 225.452 802.368 224.06V222.652C802.368 221.26 803.216 220.316 804.544 220.316C805.664 220.316 806.56 220.956 806.56 221.836V224.876C806.56 225.756 805.664 226.396 804.544 226.396Z" fill="#242A31"/>
<path d="M815.743 227.5H817.231V219.212H815.743V224.876C815.743 225.916 814.783 226.396 813.839 226.396C812.671 226.396 812.079 225.676 812.079 224.284V219.212H810.591V224.508C810.591 226.524 811.647 227.692 813.343 227.692C814.719 227.692 815.359 226.94 815.663 226.14H815.743V227.5Z" fill="#242A31"/>
<path d="M822.995 227.692C824.579 227.692 825.667 226.924 826.195 225.676L825.107 225.004C824.691 225.9 824.003 226.412 822.995 226.412C821.571 226.412 820.851 225.436 820.851 224.076V222.636C820.851 221.276 821.571 220.3 822.995 220.3C823.955 220.3 824.627 220.796 824.899 221.612L826.131 221.004C825.651 219.82 824.627 219.02 822.995 219.02C820.627 219.02 819.267 220.7 819.267 223.356C819.267 226.012 820.627 227.692 822.995 227.692Z" fill="#242A31"/>
<path d="M831.537 227.5V226.236H829.889V220.476H831.665V219.212H829.889V216.924H828.545V218.444C828.545 219.004 828.369 219.212 827.809 219.212H827.073V220.476H828.401V225.932C828.401 226.892 828.945 227.5 829.969 227.5H831.537Z" fill="#242A31"/>
<path d="M837.565 227.5H839.069V218.476H839.149L840.061 220.316L842.621 225.004L845.181 220.316L846.093 218.476H846.173V227.5H847.677V216.332H845.789L842.685 222.204H842.621L839.517 216.332H837.565V227.5Z" fill="#242A31"/>
<path d="M857.301 227.5V226.236H856.373V221.868C856.373 220.076 855.189 219.02 853.125 219.02C851.589 219.02 850.613 219.74 850.117 220.636L851.013 221.452C851.445 220.748 852.069 220.268 853.045 220.268C854.293 220.268 854.885 220.892 854.885 221.996V222.748H853.317C850.949 222.748 849.781 223.612 849.781 225.212C849.781 226.732 850.789 227.692 852.517 227.692C853.701 227.692 854.581 227.148 854.917 226.124H854.997C855.109 226.924 855.541 227.5 856.453 227.5H857.301ZM852.853 226.492C851.925 226.492 851.333 226.06 851.333 225.292V224.972C851.333 224.204 851.941 223.788 853.301 223.788H854.885V225.068C854.885 225.9 854.021 226.492 852.853 226.492Z" fill="#242A31"/>
<path d="M860.566 227.5V221.82C860.566 220.812 861.51 220.316 862.486 220.316C863.654 220.316 864.23 221.036 864.23 222.428V227.5H865.718V222.204C865.718 220.188 864.678 219.02 862.982 219.02C861.734 219.02 861.03 219.66 860.646 220.572H860.566V219.212H859.078V227.5H860.566Z" fill="#242A31"/>
<path d="M875.129 227.5V226.236H874.201V221.868C874.201 220.076 873.017 219.02 870.953 219.02C869.417 219.02 868.441 219.74 867.945 220.636L868.841 221.452C869.273 220.748 869.897 220.268 870.873 220.268C872.121 220.268 872.713 220.892 872.713 221.996V222.748H871.145C868.777 222.748 867.609 223.612 867.609 225.212C867.609 226.732 868.617 227.692 870.345 227.692C871.529 227.692 872.409 227.148 872.745 226.124H872.825C872.937 226.924 873.369 227.5 874.281 227.5H875.129ZM870.681 226.492C869.753 226.492 869.161 226.06 869.161 225.292V224.972C869.161 224.204 869.769 223.788 871.129 223.788H872.713V225.068C872.713 225.9 871.849 226.492 870.681 226.492Z" fill="#242A31"/>
<path d="M884.026 228.348C884.026 226.956 883.146 226.108 881.098 226.108H879.21C878.458 226.108 877.994 225.964 877.994 225.484C877.994 225.02 878.458 224.748 878.938 224.604C879.21 224.668 879.546 224.7 879.866 224.7C881.866 224.7 883.082 223.548 883.082 221.868C883.082 220.956 882.714 220.188 882.042 219.692V219.244H883.674V217.996H882.41C881.706 217.996 881.402 218.444 881.402 219.132V219.308C880.954 219.132 880.442 219.02 879.866 219.02C877.882 219.02 876.666 220.188 876.666 221.868C876.666 223.004 877.226 223.916 878.202 224.38V224.444C877.386 224.636 876.762 225.052 876.762 225.884C876.762 226.476 877.05 226.892 877.578 227.1V227.276C876.73 227.484 876.218 227.98 876.218 228.876C876.218 230.156 877.274 230.892 879.914 230.892C882.714 230.892 884.026 230.06 884.026 228.348ZM882.634 228.492C882.634 229.34 881.866 229.756 880.458 229.756H879.338C878.042 229.756 877.546 229.212 877.546 228.524C877.546 228.06 877.754 227.708 878.218 227.468H881.002C882.218 227.468 882.634 227.868 882.634 228.492ZM879.882 223.58C878.826 223.58 878.17 223.084 878.17 222.076V221.66C878.17 220.652 878.826 220.156 879.882 220.156C880.938 220.156 881.594 220.652 881.594 221.66V222.076C881.594 223.084 880.938 223.58 879.882 223.58Z" fill="#242A31"/>
<path d="M888.511 227.692C890.063 227.692 891.263 226.972 891.839 225.9L890.879 225.084C890.431 225.932 889.679 226.428 888.639 226.428C887.151 226.428 886.303 225.436 886.303 224.06V223.724H892.143V223.1C892.143 220.78 890.831 219.02 888.511 219.02C886.207 219.02 884.751 220.732 884.751 223.356C884.751 225.98 886.207 227.692 888.511 227.692ZM888.511 220.22C889.759 220.22 890.559 221.148 890.559 222.524V222.684H886.303V222.572C886.303 221.212 887.215 220.22 888.511 220.22Z" fill="#242A31"/>
<path d="M895.659 227.5V221.82C895.659 220.812 896.571 220.316 897.515 220.316C898.651 220.316 899.179 221.036 899.179 222.428V227.5H900.667V221.82C900.667 220.812 901.547 220.316 902.507 220.316C903.659 220.316 904.187 221.036 904.187 222.428V227.5H905.675V222.204C905.675 220.188 904.683 219.02 903.019 219.02C901.627 219.02 900.795 219.804 900.491 220.7H900.459C900.027 219.532 899.051 219.02 897.947 219.02C896.843 219.02 896.091 219.724 895.739 220.572H895.659V219.212H894.171V227.5H895.659Z" fill="#242A31"/>
<path d="M911.371 227.692C912.923 227.692 914.123 226.972 914.699 225.9L913.739 225.084C913.291 225.932 912.539 226.428 911.499 226.428C910.011 226.428 909.163 225.436 909.163 224.06V223.724H915.003V223.1C915.003 220.78 913.691 219.02 911.371 219.02C909.067 219.02 907.611 220.732 907.611 223.356C907.611 225.98 909.067 227.692 911.371 227.692ZM911.371 220.22C912.619 220.22 913.419 221.148 913.419 222.524V222.684H909.163V222.572C909.163 221.212 910.075 220.22 911.371 220.22Z" fill="#242A31"/>
<path d="M918.519 227.5V221.82C918.519 220.812 919.463 220.316 920.439 220.316C921.607 220.316 922.183 221.036 922.183 222.428V227.5H923.671V222.204C923.671 220.188 922.631 219.02 920.935 219.02C919.687 219.02 918.983 219.66 918.599 220.572H918.519V219.212H917.031V227.5H918.519Z" fill="#242A31"/>
<path d="M929.803 227.5V226.236H928.155V220.476H929.931V219.212H928.155V216.924H926.811V218.444C926.811 219.004 926.635 219.212 926.075 219.212H925.339V220.476H926.667V225.932C926.667 226.892 927.211 227.5 928.235 227.5H929.803Z" fill="#242A31"/>
<path d="M810.265 174.5V169.892H813.321C815.337 169.892 816.489 168.596 816.489 166.612C816.489 164.628 815.337 163.332 813.321 163.332H808.713V174.5H810.265ZM810.265 164.708H813.257C814.249 164.708 814.841 165.252 814.841 166.212V167.012C814.841 167.972 814.249 168.516 813.257 168.516H810.265V164.708Z" fill="#242A31"/>
<path d="M825.153 174.5V173.236H824.225V168.868C824.225 167.076 823.041 166.02 820.977 166.02C819.441 166.02 818.465 166.74 817.969 167.636L818.865 168.452C819.297 167.748 819.921 167.268 820.897 167.268C822.145 167.268 822.737 167.892 822.737 168.996V169.748H821.169C818.801 169.748 817.633 170.612 817.633 172.212C817.633 173.732 818.641 174.692 820.369 174.692C821.553 174.692 822.433 174.148 822.769 173.124H822.849C822.961 173.924 823.393 174.5 824.305 174.5H825.153ZM820.705 173.492C819.777 173.492 819.185 173.06 819.185 172.292V171.972C819.185 171.204 819.793 170.788 821.153 170.788H822.737V172.068C822.737 172.9 821.873 173.492 820.705 173.492Z" fill="#242A31"/>
<path d="M828.417 174.5V169.06C828.417 168.244 829.217 167.7 830.593 167.7H831.329V166.212H830.833C829.505 166.212 828.769 166.98 828.497 167.796H828.417V166.212H826.929V174.5H828.417Z" fill="#242A31"/>
<path d="M836.592 174.5V173.236H834.944V167.476H836.72V166.212H834.944V163.924H833.6V165.444C833.6 166.004 833.424 166.212 832.864 166.212H832.128V167.476H833.456V172.932C833.456 173.892 834 174.5 835.024 174.5H836.592Z" fill="#242A31"/>
<path d="M840.198 174.5V168.82C840.198 167.812 841.142 167.316 842.118 167.316C843.286 167.316 843.862 168.036 843.862 169.428V174.5H845.35V169.204C845.35 167.188 844.31 166.02 842.614 166.02C841.366 166.02 840.662 166.66 840.278 167.572H840.198V166.212H838.71V174.5H840.198Z" fill="#242A31"/>
<path d="M851.05 174.692C852.602 174.692 853.802 173.972 854.378 172.9L853.418 172.084C852.97 172.932 852.218 173.428 851.178 173.428C849.69 173.428 848.842 172.436 848.842 171.06V170.724H854.682V170.1C854.682 167.78 853.37 166.02 851.05 166.02C848.746 166.02 847.29 167.732 847.29 170.356C847.29 172.98 848.746 174.692 851.05 174.692ZM851.05 167.22C852.298 167.22 853.098 168.148 853.098 169.524V169.684H848.842V169.572C848.842 168.212 849.754 167.22 851.05 167.22Z" fill="#242A31"/>
<path d="M858.198 174.5V169.06C858.198 168.244 858.998 167.7 860.374 167.7H861.11V166.212H860.614C859.286 166.212 858.55 166.98 858.278 167.796H858.198V166.212H856.71V174.5H858.198Z" fill="#242A31"/>
<path d="M865.254 174.692C867.206 174.692 868.422 173.684 868.422 172.068C868.422 170.788 867.67 169.988 865.846 169.716L865.142 169.604C864.182 169.46 863.702 169.156 863.702 168.42C863.702 167.716 864.214 167.252 865.222 167.252C866.214 167.252 866.918 167.716 867.318 168.244L868.262 167.348C867.558 166.516 866.678 166.02 865.27 166.02C863.526 166.02 862.262 166.884 862.262 168.516C862.262 170.052 863.366 170.708 864.95 170.932L865.654 171.044C866.662 171.188 866.982 171.62 866.982 172.228C866.982 172.996 866.406 173.46 865.35 173.46C864.342 173.46 863.574 173.012 862.95 172.228L861.942 173.092C862.71 174.068 863.718 174.692 865.254 174.692Z" fill="#242A31"/>
<path d="M870.554 174.5H872.042V168.82C872.042 167.812 872.986 167.316 873.962 167.316C875.13 167.316 875.706 168.036 875.706 169.428V174.5H877.194V169.204C877.194 167.188 876.154 166.02 874.458 166.02C873.21 166.02 872.506 166.66 872.122 167.572H872.042V162.66H870.554V174.5Z" fill="#242A31"/>
<path d="M880.478 164.484C881.102 164.484 881.374 164.148 881.374 163.668V163.444C881.374 162.964 881.102 162.628 880.478 162.628C879.854 162.628 879.582 162.964 879.582 163.444V163.668C879.582 164.148 879.854 164.484 880.478 164.484ZM879.726 174.5H881.214V166.212H879.726V174.5Z" fill="#242A31"/>
<path d="M883.835 177.7H885.323V173.14H885.387C885.771 174.164 886.635 174.692 887.771 174.692C889.851 174.692 891.099 173.044 891.099 170.356C891.099 167.668 889.851 166.02 887.771 166.02C886.635 166.02 885.771 166.548 885.387 167.572H885.323V166.212H883.835V177.7ZM887.339 173.396C886.219 173.396 885.323 172.756 885.323 171.876V168.836C885.323 167.956 886.219 167.316 887.339 167.316C888.667 167.316 889.515 168.26 889.515 169.652V171.06C889.515 172.452 888.667 173.396 887.339 173.396Z" fill="#242A31"/>
<path d="M895.739 174.692C897.691 174.692 898.907 173.684 898.907 172.068C898.907 170.788 898.155 169.988 896.331 169.716L895.627 169.604C894.667 169.46 894.187 169.156 894.187 168.42C894.187 167.716 894.699 167.252 895.707 167.252C896.699 167.252 897.403 167.716 897.803 168.244L898.747 167.348C898.043 166.516 897.163 166.02 895.755 166.02C894.011 166.02 892.747 166.884 892.747 168.516C892.747 170.052 893.851 170.708 895.435 170.932L896.139 171.044C897.147 171.188 897.467 171.62 897.467 172.228C897.467 172.996 896.891 173.46 895.835 173.46C894.827 173.46 894.059 173.012 893.435 172.228L892.427 173.092C893.195 174.068 894.203 174.692 895.739 174.692Z" fill="#242A31"/>
<path d="M825.133 116.86H827.581L829.901 121.5H831.645L829.165 116.7C830.605 116.332 831.357 115.228 831.357 113.612C831.357 111.564 830.157 110.332 828.189 110.332H823.581V121.5H825.133V116.86ZM825.133 115.516V111.708H828.125C829.117 111.708 829.709 112.252 829.709 113.212V114.012C829.709 114.972 829.117 115.516 828.125 115.516H825.133Z" fill="#242A31"/>
<path d="M836.746 121.692C838.298 121.692 839.498 120.972 840.074 119.9L839.114 119.084C838.666 119.932 837.914 120.428 836.874 120.428C835.386 120.428 834.538 119.436 834.538 118.06V117.724H840.378V117.1C840.378 114.78 839.066 113.02 836.746 113.02C834.442 113.02 832.986 114.732 832.986 117.356C832.986 119.98 834.442 121.692 836.746 121.692ZM836.746 114.22C837.994 114.22 838.794 115.148 838.794 116.524V116.684H834.538V116.572C834.538 115.212 835.45 114.22 836.746 114.22Z" fill="#242A31"/>
<path d="M845.833 121.5L848.713 113.212H847.289L845.913 117.18L845.033 120.044H844.937L844.073 117.18L842.713 113.212H841.225L844.089 121.5H845.833Z" fill="#242A31"/>
<path d="M853.324 121.692C854.876 121.692 856.076 120.972 856.652 119.9L855.692 119.084C855.244 119.932 854.492 120.428 853.452 120.428C851.964 120.428 851.116 119.436 851.116 118.06V117.724H856.956V117.1C856.956 114.78 855.644 113.02 853.324 113.02C851.02 113.02 849.564 114.732 849.564 117.356C849.564 119.98 851.02 121.692 853.324 121.692ZM853.324 114.22C854.572 114.22 855.372 115.148 855.372 116.524V116.684H851.116V116.572C851.116 115.212 852.028 114.22 853.324 114.22Z" fill="#242A31"/>
<path d="M860.472 121.5V115.82C860.472 114.812 861.416 114.316 862.392 114.316C863.56 114.316 864.136 115.036 864.136 116.428V121.5H865.624V116.204C865.624 114.188 864.584 113.02 862.888 113.02C861.64 113.02 860.936 113.66 860.552 114.572H860.472V113.212H858.984V121.5H860.472Z" fill="#242A31"/>
<path d="M873.228 121.5H874.716V113.212H873.228V118.876C873.228 119.916 872.268 120.396 871.324 120.396C870.156 120.396 869.564 119.676 869.564 118.284V113.212H868.076V118.508C868.076 120.524 869.132 121.692 870.828 121.692C872.204 121.692 872.844 120.94 873.148 120.14H873.228V121.5Z" fill="#242A31"/>
<path d="M880.511 121.692C882.063 121.692 883.263 120.972 883.839 119.9L882.879 119.084C882.431 119.932 881.679 120.428 880.639 120.428C879.151 120.428 878.303 119.436 878.303 118.06V117.724H884.143V117.1C884.143 114.78 882.831 113.02 880.511 113.02C878.207 113.02 876.751 114.732 876.751 117.356C876.751 119.98 878.207 121.692 880.511 121.692ZM880.511 114.22C881.759 114.22 882.559 115.148 882.559 116.524V116.684H878.303V116.572C878.303 115.212 879.215 114.22 880.511 114.22Z" fill="#242A31"/>
<path d="M836.791 68.5001V67.1241H831.383V63.5401H836.391V62.1641H831.383V58.7081H836.791V57.3321H829.831V68.5001H836.791Z" fill="#242A31"/>
<path d="M840.597 68.5001V62.8201C840.597 61.8121 841.541 61.3161 842.517 61.3161C843.685 61.3161 844.261 62.0361 844.261 63.4281V68.5001H845.749V63.2041C845.749 61.1881 844.709 60.0201 843.013 60.0201C841.765 60.0201 841.061 60.6601 840.677 61.5721H840.597V60.2121H839.109V68.5001H840.597Z" fill="#242A31"/>
<path d="M855.401 69.3481C855.401 67.9561 854.521 67.1081 852.473 67.1081H850.585C849.833 67.1081 849.369 66.9641 849.369 66.4841C849.369 66.0201 849.833 65.7481 850.313 65.6041C850.585 65.6681 850.921 65.7001 851.241 65.7001C853.241 65.7001 854.457 64.5481 854.457 62.8681C854.457 61.9561 854.089 61.1881 853.417 60.6921V60.2441H855.049V58.9961H853.785C853.081 58.9961 852.777 59.4441 852.777 60.1321V60.3081C852.329 60.1321 851.817 60.0201 851.241 60.0201C849.257 60.0201 848.041 61.1881 848.041 62.8681C848.041 64.0041 848.601 64.9161 849.577 65.3801V65.4441C848.761 65.6361 848.137 66.0521 848.137 66.8841C848.137 67.4761 848.425 67.8921 848.953 68.1001V68.2761C848.105 68.4841 847.593 68.9801 847.593 69.8761C847.593 71.1561 848.649 71.8921 851.289 71.8921C854.089 71.8921 855.401 71.0601 855.401 69.3481ZM854.009 69.4921C854.009 70.3401 853.241 70.7561 851.833 70.7561H850.713C849.417 70.7561 848.921 70.2121 848.921 69.5241C848.921 69.0601 849.129 68.7081 849.593 68.4681H852.377C853.593 68.4681 854.009 68.8681 854.009 69.4921ZM851.257 64.5801C850.201 64.5801 849.545 64.0841 849.545 63.0761V62.6601C849.545 61.6521 850.201 61.1561 851.257 61.1561C852.313 61.1561 852.969 61.6521 852.969 62.6601V63.0761C852.969 64.0841 852.313 64.5801 851.257 64.5801Z" fill="#242A31"/>
<path d="M857.564 58.4841C858.188 58.4841 858.46 58.1481 858.46 57.6681V57.4441C858.46 56.9641 858.188 56.6281 857.564 56.6281C856.94 56.6281 856.668 56.9641 856.668 57.4441V57.6681C856.668 58.1481 856.94 58.4841 857.564 58.4841ZM856.812 68.5001H858.3V60.2121H856.812V68.5001Z" fill="#242A31"/>
<path d="M862.409 68.5001V62.8201C862.409 61.8121 863.353 61.3161 864.329 61.3161C865.497 61.3161 866.073 62.0361 866.073 63.4281V68.5001H867.561V63.2041C867.561 61.1881 866.521 60.0201 864.825 60.0201C863.577 60.0201 862.873 60.6601 862.489 61.5721H862.409V60.2121H860.921V68.5001H862.409Z" fill="#242A31"/>
<path d="M873.261 68.6921C874.813 68.6921 876.013 67.9721 876.589 66.9001L875.629 66.0841C875.181 66.9321 874.429 67.4281 873.389 67.4281C871.901 67.4281 871.053 66.4361 871.053 65.0601V64.7241H876.893V64.1001C876.893 61.7801 875.581 60.0201 873.261 60.0201C870.957 60.0201 869.501 61.7321 869.501 64.3561C869.501 66.9801 870.957 68.6921 873.261 68.6921ZM873.261 61.2201C874.509 61.2201 875.309 62.1481 875.309 63.5241V63.6841H871.053V63.5721C871.053 62.2121 871.965 61.2201 873.261 61.2201Z" fill="#242A31"/>
<path d="M799.988 492.5L803.716 481.332H802.132L800.324 486.916L799.14 490.98H799.06L797.892 486.916L796.084 481.332H794.452L798.148 492.5H799.988Z" fill="#242A31"/>
<path d="M811.7 492.5V491.236H810.772V486.868C810.772 485.076 809.588 484.02 807.524 484.02C805.988 484.02 805.012 484.74 804.516 485.636L805.412 486.452C805.844 485.748 806.468 485.268 807.444 485.268C808.692 485.268 809.284 485.892 809.284 486.996V487.748H807.716C805.348 487.748 804.18 488.612 804.18 490.212C804.18 491.732 805.188 492.692 806.916 492.692C808.1 492.692 808.98 492.148 809.316 491.124H809.396C809.508 491.924 809.94 492.5 810.852 492.5H811.7ZM807.252 491.492C806.324 491.492 805.732 491.06 805.732 490.292V489.972C805.732 489.204 806.34 488.788 807.7 488.788H809.284V490.068C809.284 490.9 808.42 491.492 807.252 491.492Z" fill="#242A31"/>
<path d="M816.148 492.5V491.236H814.964V480.66H813.476V490.98C813.476 491.892 814.004 492.5 815.028 492.5H816.148Z" fill="#242A31"/>
<path d="M823.001 492.5H824.489V484.212H823.001V489.876C823.001 490.916 822.041 491.396 821.097 491.396C819.929 491.396 819.337 490.676 819.337 489.284V484.212H817.849V489.508C817.849 491.524 818.905 492.692 820.601 492.692C821.977 492.692 822.617 491.94 822.921 491.14H823.001V492.5Z" fill="#242A31"/>
<path d="M830.285 492.692C831.837 492.692 833.037 491.972 833.613 490.9L832.653 490.084C832.205 490.932 831.453 491.428 830.413 491.428C828.925 491.428 828.077 490.436 828.077 489.06V488.724H833.917V488.1C833.917 485.78 832.605 484.02 830.285 484.02C827.981 484.02 826.525 485.732 826.525 488.356C826.525 490.98 827.981 492.692 830.285 492.692ZM830.285 485.22C831.533 485.22 832.333 486.148 832.333 487.524V487.684H828.077V487.572C828.077 486.212 828.989 485.22 830.285 485.22Z" fill="#242A31"/>
<path d="M838.489 492.692C840.441 492.692 841.657 491.684 841.657 490.068C841.657 488.788 840.905 487.988 839.081 487.716L838.377 487.604C837.417 487.46 836.937 487.156 836.937 486.42C836.937 485.716 837.449 485.252 838.457 485.252C839.449 485.252 840.153 485.716 840.553 486.244L841.497 485.348C840.793 484.516 839.913 484.02 838.505 484.02C836.761 484.02 835.497 484.884 835.497 486.516C835.497 488.052 836.601 488.708 838.185 488.932L838.889 489.044C839.897 489.188 840.217 489.62 840.217 490.228C840.217 490.996 839.641 491.46 838.585 491.46C837.577 491.46 836.809 491.012 836.185 490.228L835.177 491.092C835.945 492.068 836.953 492.692 838.489 492.692Z" fill="#242A31"/>
<path d="M855.202 492.5H857.106L854.914 490.164C855.266 489.492 855.522 488.708 855.682 487.828H856.786V486.58H854.514C854.466 487.476 854.306 488.388 854.002 489.188L851.634 486.644C853.01 485.876 854.13 485.028 854.13 483.572C854.13 482.1 852.978 481.14 851.346 481.14C849.538 481.14 848.37 482.324 848.37 483.828C848.37 484.82 848.882 485.668 849.618 486.452C848.45 487.108 847.346 487.956 847.346 489.604C847.346 491.332 848.578 492.692 850.834 492.692C852.594 492.692 853.586 491.828 854.082 491.268L855.202 492.5ZM851.282 482.356C852.05 482.356 852.706 482.82 852.706 483.62V483.796C852.706 484.628 851.81 485.284 850.866 485.812C850.21 485.092 849.81 484.516 849.81 483.908V483.748C849.81 482.948 850.434 482.356 851.282 482.356ZM850.994 491.412C849.698 491.412 848.882 490.708 848.882 489.604V489.38C848.882 488.26 849.554 487.748 850.386 487.3L853.266 490.388C852.722 491.012 851.986 491.412 850.994 491.412Z" fill="#242A31"/>
<path d="M867.067 492.5L870.795 481.332H869.211L867.403 486.916L866.219 490.98H866.139L864.971 486.916L863.163 481.332H861.531L865.227 492.5H867.067Z" fill="#242A31"/>
<path d="M873.166 482.484C873.79 482.484 874.062 482.148 874.062 481.668V481.444C874.062 480.964 873.79 480.628 873.166 480.628C872.542 480.628 872.27 480.964 872.27 481.444V481.668C872.27 482.148 872.542 482.484 873.166 482.484ZM872.414 492.5H873.902V484.212H872.414V492.5Z" fill="#242A31"/>
<path d="M878.011 492.5V487.06C878.011 486.244 878.811 485.7 880.187 485.7H880.923V484.212H880.427C879.099 484.212 878.363 484.98 878.091 485.796H878.011V484.212H876.523V492.5H878.011Z" fill="#242A31"/>
<path d="M886.185 492.5V491.236H884.537V485.476H886.313V484.212H884.537V481.924H883.193V483.444C883.193 484.004 883.017 484.212 882.457 484.212H881.721V485.476H883.049V490.932C883.049 491.892 883.593 492.5 884.617 492.5H886.185Z" fill="#242A31"/>
<path d="M893.376 492.5H894.864V484.212H893.376V489.876C893.376 490.916 892.416 491.396 891.472 491.396C890.304 491.396 889.712 490.676 889.712 489.284V484.212H888.224V489.508C888.224 491.524 889.28 492.692 890.976 492.692C892.352 492.692 892.992 491.94 893.296 491.14H893.376V492.5Z" fill="#242A31"/>
<path d="M900.66 492.692C902.212 492.692 903.412 491.972 903.988 490.9L903.028 490.084C902.58 490.932 901.828 491.428 900.788 491.428C899.3 491.428 898.452 490.436 898.452 489.06V488.724H904.292V488.1C904.292 485.78 902.98 484.02 900.66 484.02C898.356 484.02 896.9 485.732 896.9 488.356C896.9 490.98 898.356 492.692 900.66 492.692ZM900.66 485.22C901.908 485.22 902.708 486.148 902.708 487.524V487.684H898.452V487.572C898.452 486.212 899.364 485.22 900.66 485.22Z" fill="#242A31"/>
<path d="M908.864 492.692C910.816 492.692 912.032 491.684 912.032 490.068C912.032 488.788 911.28 487.988 909.456 487.716L908.752 487.604C907.792 487.46 907.312 487.156 907.312 486.42C907.312 485.716 907.824 485.252 908.832 485.252C909.824 485.252 910.528 485.716 910.928 486.244L911.872 485.348C911.168 484.516 910.288 484.02 908.88 484.02C907.136 484.02 905.872 484.884 905.872 486.516C905.872 488.052 906.976 488.708 908.56 488.932L909.264 489.044C910.272 489.188 910.592 489.62 910.592 490.228C910.592 490.996 910.016 491.46 908.96 491.46C907.952 491.46 907.184 491.012 906.56 490.228L905.552 491.092C906.32 492.068 907.328 492.692 908.864 492.692Z" fill="#242A31"/>
<path d="M790.612 545.5H792.116V536.476H792.196L793.108 538.316L795.668 543.004L798.228 538.316L799.14 536.476H799.22V545.5H800.724V534.332H798.836L795.732 540.204H795.668L792.564 534.332H790.612V545.5Z" fill="#242A31"/>
<path d="M804.22 535.484C804.844 535.484 805.116 535.148 805.116 534.668V534.444C805.116 533.964 804.844 533.628 804.22 533.628C803.596 533.628 803.324 533.964 803.324 534.444V534.668C803.324 535.148 803.596 535.484 804.22 535.484ZM803.468 545.5H804.956V537.212H803.468V545.5Z" fill="#242A31"/>
<path d="M810.122 545.692C812.074 545.692 813.29 544.684 813.29 543.068C813.29 541.788 812.538 540.988 810.714 540.716L810.01 540.604C809.05 540.46 808.57 540.156 808.57 539.42C808.57 538.716 809.082 538.252 810.09 538.252C811.082 538.252 811.786 538.716 812.186 539.244L813.13 538.348C812.426 537.516 811.546 537.02 810.138 537.02C808.394 537.02 807.13 537.884 807.13 539.516C807.13 541.052 808.234 541.708 809.818 541.932L810.522 542.044C811.53 542.188 811.85 542.62 811.85 543.228C811.85 543.996 811.274 544.46 810.218 544.46C809.21 544.46 808.442 544.012 807.818 543.228L806.81 544.092C807.578 545.068 808.586 545.692 810.122 545.692Z" fill="#242A31"/>
<path d="M817.872 545.692C819.824 545.692 821.04 544.684 821.04 543.068C821.04 541.788 820.288 540.988 818.464 540.716L817.76 540.604C816.8 540.46 816.32 540.156 816.32 539.42C816.32 538.716 816.832 538.252 817.84 538.252C818.832 538.252 819.536 538.716 819.936 539.244L820.88 538.348C820.176 537.516 819.296 537.02 817.888 537.02C816.144 537.02 814.88 537.884 814.88 539.516C814.88 541.052 815.984 541.708 817.568 541.932L818.272 542.044C819.28 542.188 819.6 542.62 819.6 543.228C819.6 543.996 819.024 544.46 817.968 544.46C816.96 544.46 816.192 544.012 815.568 543.228L814.56 544.092C815.328 545.068 816.336 545.692 817.872 545.692Z" fill="#242A31"/>
<path d="M823.923 535.484C824.547 535.484 824.819 535.148 824.819 534.668V534.444C824.819 533.964 824.547 533.628 823.923 533.628C823.299 533.628 823.027 533.964 823.027 534.444V534.668C823.027 535.148 823.299 535.484 823.923 535.484ZM823.171 545.5H824.659V537.212H823.171V545.5Z" fill="#242A31"/>
<path d="M830.465 545.692C832.721 545.692 834.241 543.996 834.241 541.356C834.241 538.716 832.721 537.02 830.465 537.02C828.209 537.02 826.689 538.716 826.689 541.356C826.689 543.996 828.209 545.692 830.465 545.692ZM830.465 544.412C829.169 544.412 828.273 543.596 828.273 541.98V540.732C828.273 539.116 829.169 538.3 830.465 538.3C831.761 538.3 832.657 539.116 832.657 540.732V541.98C832.657 543.596 831.761 544.412 830.465 544.412Z" fill="#242A31"/>
<path d="M837.753 545.5V539.82C837.753 538.812 838.697 538.316 839.673 538.316C840.841 538.316 841.417 539.036 841.417 540.428V545.5H842.905V540.204C842.905 538.188 841.865 537.02 840.169 537.02C838.921 537.02 838.217 537.66 837.833 538.572H837.753V537.212H836.265V545.5H837.753Z" fill="#242A31"/>
<path d="M856.85 545.5H858.754L856.562 543.164C856.914 542.492 857.17 541.708 857.33 540.828H858.434V539.58H856.162C856.114 540.476 855.954 541.388 855.65 542.188L853.282 539.644C854.658 538.876 855.778 538.028 855.778 536.572C855.778 535.1 854.626 534.14 852.994 534.14C851.186 534.14 850.018 535.324 850.018 536.828C850.018 537.82 850.53 538.668 851.266 539.452C850.098 540.108 848.994 540.956 848.994 542.604C848.994 544.332 850.226 545.692 852.482 545.692C854.242 545.692 855.234 544.828 855.73 544.268L856.85 545.5ZM852.93 535.356C853.698 535.356 854.354 535.82 854.354 536.62V536.796C854.354 537.628 853.458 538.284 852.514 538.812C851.858 538.092 851.458 537.516 851.458 536.908V536.748C851.458 535.948 852.082 535.356 852.93 535.356ZM852.642 544.412C851.346 544.412 850.53 543.708 850.53 542.604V542.38C850.53 541.26 851.202 540.748 852.034 540.3L854.914 543.388C854.37 544.012 853.634 544.412 852.642 544.412Z" fill="#242A31"/>
<path d="M864.315 545.5H865.819V536.476H865.899L866.811 538.316L869.371 543.004L871.931 538.316L872.843 536.476H872.923V545.5H874.427V534.332H872.539L869.435 540.204H869.371L866.267 534.332H864.315V545.5Z" fill="#242A31"/>
<path d="M877.923 535.484C878.547 535.484 878.819 535.148 878.819 534.668V534.444C878.819 533.964 878.547 533.628 877.923 533.628C877.299 533.628 877.027 533.964 877.027 534.444V534.668C877.027 535.148 877.299 535.484 877.923 535.484ZM877.171 545.5H878.659V537.212H877.171V545.5Z" fill="#242A31"/>
<path d="M883.825 545.692C885.777 545.692 886.993 544.684 886.993 543.068C886.993 541.788 886.241 540.988 884.417 540.716L883.713 540.604C882.753 540.46 882.273 540.156 882.273 539.42C882.273 538.716 882.785 538.252 883.793 538.252C884.785 538.252 885.489 538.716 885.889 539.244L886.833 538.348C886.129 537.516 885.249 537.02 883.841 537.02C882.097 537.02 880.833 537.884 880.833 539.516C880.833 541.052 881.937 541.708 883.521 541.932L884.225 542.044C885.233 542.188 885.553 542.62 885.553 543.228C885.553 543.996 884.977 544.46 883.921 544.46C882.913 544.46 882.145 544.012 881.521 543.228L880.513 544.092C881.281 545.068 882.289 545.692 883.825 545.692Z" fill="#242A31"/>
<path d="M891.575 545.692C893.527 545.692 894.743 544.684 894.743 543.068C894.743 541.788 893.991 540.988 892.167 540.716L891.463 540.604C890.503 540.46 890.023 540.156 890.023 539.42C890.023 538.716 890.535 538.252 891.543 538.252C892.535 538.252 893.239 538.716 893.639 539.244L894.583 538.348C893.879 537.516 892.999 537.02 891.591 537.02C889.847 537.02 888.583 537.884 888.583 539.516C888.583 541.052 889.687 541.708 891.271 541.932L891.975 542.044C892.983 542.188 893.303 542.62 893.303 543.228C893.303 543.996 892.727 544.46 891.671 544.46C890.663 544.46 889.895 544.012 889.271 543.228L888.263 544.092C889.031 545.068 890.039 545.692 891.575 545.692Z" fill="#242A31"/>
<path d="M897.626 535.484C898.25 535.484 898.522 535.148 898.522 534.668V534.444C898.522 533.964 898.25 533.628 897.626 533.628C897.002 533.628 896.73 533.964 896.73 534.444V534.668C896.73 535.148 897.002 535.484 897.626 535.484ZM896.874 545.5H898.362V537.212H896.874V545.5Z" fill="#242A31"/>
<path d="M904.168 545.692C906.424 545.692 907.944 543.996 907.944 541.356C907.944 538.716 906.424 537.02 904.168 537.02C901.912 537.02 900.392 538.716 900.392 541.356C900.392 543.996 901.912 545.692 904.168 545.692ZM904.168 544.412C902.872 544.412 901.976 543.596 901.976 541.98V540.732C901.976 539.116 902.872 538.3 904.168 538.3C905.464 538.3 906.36 539.116 906.36 540.732V541.98C906.36 543.596 905.464 544.412 904.168 544.412Z" fill="#242A31"/>
<path d="M911.456 545.5V539.82C911.456 538.812 912.4 538.316 913.376 538.316C914.544 538.316 915.12 539.036 915.12 540.428V545.5H916.608V540.204C916.608 538.188 915.568 537.02 913.872 537.02C912.624 537.02 911.92 537.66 911.536 538.572H911.456V537.212H909.968V545.5H911.456Z" fill="#242A31"/>
</g>
<defs>
<linearGradient id="paint0_linear" x1="157" y1="341.5" x2="157" y2="574.5" gradientUnits="userSpaceOnUse">
<stop stop-color="#F5F7F9"/>
<stop offset="0.71875" stop-color="white" stop-opacity="0"/>
<stop offset="1" stop-color="#4FDAB8" stop-opacity="0.15"/>
</linearGradient>
<linearGradient id="paint1_linear" x1="505" y1="185.5" x2="505" y2="574.5" gradientUnits="userSpaceOnUse">
<stop stop-color="white"/>
<stop offset="0.71875" stop-color="white" stop-opacity="0"/>
<stop offset="0.927083" stop-color="#7F91EF" stop-opacity="0.111111"/>
<stop offset="1" stop-color="#526AEA" stop-opacity="0.15"/>
</linearGradient>
<linearGradient id="paint2_linear" x1="853" y1="-32.5" x2="853" y2="574.5" gradientUnits="userSpaceOnUse">
<stop stop-color="white"/>
<stop offset="0.71875" stop-color="white" stop-opacity="0"/>
<stop offset="1" stop-color="#30CEFE" stop-opacity="0.15"/>
</linearGradient>
</defs>
</svg>
