<svg width="1012" height="138" viewBox="0 0 1012 138" fill="none" xmlns="http://www.w3.org/2000/svg">
<path d="M178.178 41.9999H2C0.89543 41.9999 0 42.8953 0 43.9999V136C0 137.104 0.895426 138 2 138H178.164C178.828 138 179.45 137.669 179.822 137.118L211.236 90.5395C211.697 89.8567 211.692 88.9614 211.223 88.2839L179.823 42.8626C179.45 42.3223 178.835 41.9999 178.178 41.9999Z" fill="#F5F7F9"/>
<path d="M26.8 84.9999H31.58C35.12 84.9999 37.4 82.6799 37.4 78.0199C37.4 73.3599 35.12 71.0399 31.58 71.0399H26.8V84.9999ZM28.74 83.2799V72.7599H31.58C33.8 72.7599 35.32 74.2399 35.32 76.8999V79.1399C35.32 81.7999 33.8 83.2799 31.58 83.2799H28.74ZM44.1156 85.2399C46.0556 85.2399 47.5556 84.3399 48.2756 82.9999L47.0756 81.9799C46.5156 83.0399 45.5756 83.6599 44.2756 83.6599C42.4156 83.6599 41.3556 82.4199 41.3556 80.6999V80.2799H48.6556V79.4999C48.6556 76.5999 47.0156 74.3999 44.1156 74.3999C41.2356 74.3999 39.4156 76.5399 39.4156 79.8199C39.4156 83.0999 41.2356 85.2399 44.1156 85.2399ZM44.1156 75.8999C45.6756 75.8999 46.6756 77.0599 46.6756 78.7799V78.9799H41.3556V78.8399C41.3556 77.1399 42.4956 75.8999 44.1156 75.8999ZM55.4745 84.9999L59.0745 74.6399H57.2945L55.5745 79.5999L54.4745 83.1799H54.3545L53.2745 79.5999L51.5745 74.6399H49.7145L53.2945 84.9999H55.4745ZM64.8383 85.2399C66.7783 85.2399 68.2783 84.3399 68.9983 82.9999L67.7983 81.9799C67.2383 83.0399 66.2983 83.6599 64.9983 83.6599C63.1383 83.6599 62.0783 82.4199 62.0783 80.6999V80.2799H69.3783V79.4999C69.3783 76.5999 67.7383 74.3999 64.8383 74.3999C61.9583 74.3999 60.1383 76.5399 60.1383 79.8199C60.1383 83.0999 61.9583 85.2399 64.8383 85.2399ZM64.8383 75.8999C66.3983 75.8999 67.3983 77.0599 67.3983 78.7799V78.9799H62.0783V78.8399C62.0783 77.1399 63.2183 75.8999 64.8383 75.8999ZM75.2534 84.9999V83.4199H73.7734V70.1999H71.9134V83.0999C71.9134 84.2399 72.5734 84.9999 73.8534 84.9999H75.2534ZM81.4598 85.2399C84.2798 85.2399 86.1798 83.1199 86.1798 79.8199C86.1798 76.5199 84.2798 74.3999 81.4598 74.3999C78.6398 74.3999 76.7398 76.5199 76.7398 79.8199C76.7398 83.1199 78.6398 85.2399 81.4598 85.2399ZM81.4598 83.6399C79.8398 83.6399 78.7198 82.6199 78.7198 80.5999V79.0399C78.7198 77.0199 79.8398 75.9999 81.4598 75.9999C83.0798 75.9999 84.1998 77.0199 84.1998 79.0399V80.5999C84.1998 82.6199 83.0798 83.6399 81.4598 83.6399ZM88.7103 88.9999H90.5703V83.2999H90.6503C91.1303 84.5799 92.2103 85.2399 93.6303 85.2399C96.2303 85.2399 97.7903 83.1799 97.7903 79.8199C97.7903 76.4599 96.2303 74.3999 93.6303 74.3999C92.2103 74.3999 91.1303 75.0599 90.6503 76.3399H90.5703V74.6399H88.7103V88.9999ZM93.0903 83.6199C91.6903 83.6199 90.5703 82.8199 90.5703 81.7199V77.9199C90.5703 76.8199 91.6903 76.0199 93.0903 76.0199C94.7503 76.0199 95.8103 77.1999 95.8103 78.9399V80.6999C95.8103 82.4399 94.7503 83.6199 93.0903 83.6199ZM104.37 85.2399C106.31 85.2399 107.81 84.3399 108.53 82.9999L107.33 81.9799C106.77 83.0399 105.83 83.6599 104.53 83.6599C102.67 83.6599 101.61 82.4199 101.61 80.6999V80.2799H108.91V79.4999C108.91 76.5999 107.27 74.3999 104.37 74.3999C101.49 74.3999 99.6695 76.5399 99.6695 79.8199C99.6695 83.0999 101.49 85.2399 104.37 85.2399ZM104.37 75.8999C105.93 75.8999 106.93 77.0599 106.93 78.7799V78.9799H101.61V78.8399C101.61 77.1399 102.75 75.8999 104.37 75.8999ZM113.305 84.9999V78.1999C113.305 77.1799 114.305 76.4999 116.025 76.4999H116.945V74.6399H116.325C114.665 74.6399 113.745 75.5999 113.405 76.6199H113.305V74.6399H111.445V84.9999H113.305ZM37.54 111L32.72 97.0399H30.28L25.44 111H27.4L28.74 107.06H34.18L35.5 111H37.54ZM33.7 105.34H29.2L31.4 98.8199H31.5L33.7 105.34ZM41.1139 111H43.2739L44.6739 106.14L45.5339 103.1H45.5739L46.4539 106.14L47.8539 111H50.0539L52.8139 100.64H51.0739L49.9739 105.06L48.9939 109.32H48.9339L47.7339 105.06L46.4139 100.64H44.7539L43.4739 105.06L42.2939 109.32H42.2539L41.2139 105.06L40.1339 100.64H38.3339L41.1139 111ZM63.4431 111V109.42H62.2831V103.96C62.2831 101.72 60.8031 100.4 58.2231 100.4C56.3031 100.4 55.0831 101.3 54.4631 102.42L55.5831 103.44C56.1231 102.56 56.9031 101.96 58.1231 101.96C59.6831 101.96 60.4231 102.74 60.4231 104.12V105.06H58.4631C55.5031 105.06 54.0431 106.14 54.0431 108.14C54.0431 110.04 55.3031 111.24 57.4631 111.24C58.9431 111.24 60.0431 110.56 60.4631 109.28H60.5631C60.7031 110.28 61.2431 111 62.3831 111H63.4431ZM57.8831 109.74C56.7231 109.74 55.9831 109.2 55.9831 108.24V107.84C55.9831 106.88 56.7431 106.36 58.4431 106.36H60.4231V107.96C60.4231 109 59.3431 109.74 57.8831 109.74ZM67.5234 111V104.2C67.5234 103.18 68.5234 102.5 70.2434 102.5H71.1634V100.64H70.5434C68.8834 100.64 67.9634 101.6 67.6234 102.62H67.5234V100.64H65.6634V111H67.5234ZM77.0258 111.24C78.9658 111.24 80.4658 110.34 81.1858 109L79.9858 107.98C79.4258 109.04 78.4858 109.66 77.1858 109.66C75.3258 109.66 74.2658 108.42 74.2658 106.7V106.28H81.5658V105.5C81.5658 102.6 79.9258 100.4 77.0258 100.4C74.1458 100.4 72.3258 102.54 72.3258 105.82C72.3258 109.1 74.1458 111.24 77.0258 111.24ZM77.0258 101.9C78.5858 101.9 79.5858 103.06 79.5858 104.78V104.98H74.2658V104.84C74.2658 103.14 75.4058 101.9 77.0258 101.9ZM85.9609 111V103.9C85.9609 102.64 87.1409 102.02 88.3609 102.02C89.8209 102.02 90.5409 102.92 90.5409 104.66V111H92.4009V104.38C92.4009 101.86 91.1009 100.4 88.9809 100.4C87.4209 100.4 86.5409 101.2 86.0609 102.34H85.9609V100.64H84.1009V111H85.9609ZM99.5258 111.24C101.466 111.24 102.966 110.34 103.686 109L102.486 107.98C101.926 109.04 100.986 109.66 99.6858 109.66C97.8258 109.66 96.7658 108.42 96.7658 106.7V106.28H104.066V105.5C104.066 102.6 102.426 100.4 99.5258 100.4C96.6458 100.4 94.8258 102.54 94.8258 105.82C94.8258 109.1 96.6458 111.24 99.5258 111.24ZM99.5258 101.9C101.086 101.9 102.086 103.06 102.086 104.78V104.98H96.7658V104.84C96.7658 103.14 97.9058 101.9 99.5258 101.9ZM109.781 111.24C112.221 111.24 113.741 109.98 113.741 107.96C113.741 106.36 112.801 105.36 110.521 105.02L109.641 104.88C108.441 104.7 107.841 104.32 107.841 103.4C107.841 102.52 108.481 101.94 109.741 101.94C110.981 101.94 111.861 102.52 112.361 103.18L113.541 102.06C112.661 101.02 111.561 100.4 109.801 100.4C107.621 100.4 106.041 101.48 106.041 103.52C106.041 105.44 107.421 106.26 109.401 106.54L110.281 106.68C111.541 106.86 111.941 107.4 111.941 108.16C111.941 109.12 111.221 109.7 109.901 109.7C108.641 109.7 107.681 109.14 106.901 108.16L105.641 109.24C106.601 110.46 107.861 111.24 109.781 111.24ZM119.468 111.24C121.908 111.24 123.428 109.98 123.428 107.96C123.428 106.36 122.488 105.36 120.208 105.02L119.328 104.88C118.128 104.7 117.528 104.32 117.528 103.4C117.528 102.52 118.168 101.94 119.428 101.94C120.668 101.94 121.548 102.52 122.048 103.18L123.228 102.06C122.348 101.02 121.248 100.4 119.488 100.4C117.308 100.4 115.728 101.48 115.728 103.52C115.728 105.44 117.108 106.26 119.088 106.54L119.968 106.68C121.228 106.86 121.628 107.4 121.628 108.16C121.628 109.12 120.908 109.7 119.588 109.7C118.328 109.7 117.368 109.14 116.588 108.16L115.328 109.24C116.288 110.46 117.548 111.24 119.468 111.24Z" fill="#242A31"/>
<path d="M386.125 41.9999H185.847C184.228 41.9999 183.28 43.8236 184.21 45.1489L214.542 88.3627C215.022 89.0464 215.027 89.9564 214.553 90.6447L184.154 134.867C183.241 136.194 184.192 138 185.802 138H386.11C386.774 138 387.395 137.67 387.767 137.119L419.234 90.5408C419.696 89.8574 419.691 88.9607 419.221 88.2826L387.769 42.8613C387.395 42.3218 386.781 41.9999 386.125 41.9999Z" fill="#F5F7F9"/>
<path d="M248.08 85.2399C251.7 85.2399 254.04 82.7199 254.04 78.0199C254.04 73.3199 251.7 70.7999 248.08 70.7999C244.46 70.7999 242.12 73.3199 242.12 78.0199C242.12 82.7199 244.46 85.2399 248.08 85.2399ZM248.08 83.4999C245.76 83.4999 244.2 81.8199 244.2 79.1599V76.8799C244.2 74.2199 245.76 72.5399 248.08 72.5399C250.4 72.5399 251.96 74.2199 251.96 76.8799V79.1599C251.96 81.8199 250.4 83.4999 248.08 83.4999ZM260.961 85.2399C264.061 85.2399 265.881 83.5599 265.881 80.9799C265.881 78.8399 264.661 77.6199 261.921 77.0199L260.741 76.7799C259.081 76.4199 258.301 75.8599 258.301 74.6199C258.301 73.2399 259.321 72.4999 261.021 72.4999C262.601 72.4999 263.621 73.1399 264.361 74.1599L265.781 73.0199C264.721 71.5799 263.221 70.7999 261.121 70.7999C258.261 70.7999 256.381 72.2199 256.381 74.6999C256.381 76.8799 257.761 78.0599 260.381 78.5999L261.561 78.8399C263.301 79.2199 263.961 79.8599 263.961 81.0799C263.961 82.5599 262.941 83.5399 261.041 83.5399C259.481 83.5399 258.321 82.8599 257.341 81.5999L255.961 82.8399C257.081 84.3199 258.681 85.2399 260.961 85.2399ZM272.504 85.2399C275.604 85.2399 277.424 83.5599 277.424 80.9799C277.424 78.8399 276.204 77.6199 273.464 77.0199L272.284 76.7799C270.624 76.4199 269.844 75.8599 269.844 74.6199C269.844 73.2399 270.864 72.4999 272.564 72.4999C274.144 72.4999 275.164 73.1399 275.904 74.1599L277.324 73.0199C276.264 71.5799 274.764 70.7999 272.664 70.7999C269.804 70.7999 267.924 72.2199 267.924 74.6999C267.924 76.8799 269.304 78.0599 271.924 78.5999L273.104 78.8399C274.844 79.2199 275.504 79.8599 275.504 81.0799C275.504 82.5599 274.484 83.5399 272.584 83.5399C271.024 83.5399 269.864 82.8599 268.884 81.5999L267.504 82.8399C268.624 84.3199 270.224 85.2399 272.504 85.2399ZM247.86 111.24C250.22 111.24 251.92 110.02 252.82 108.02L251.26 107.08C250.74 108.52 249.58 109.5 247.86 109.5C245.58 109.5 244.2 107.8 244.2 105.08V102.96C244.2 100.24 245.58 98.5399 247.86 98.5399C249.54 98.5399 250.62 99.4399 251.14 100.82L252.74 99.8999C251.84 97.8999 250.22 96.7999 247.86 96.7999C244.3 96.7999 242.12 99.3599 242.12 104.02C242.12 108.68 244.3 111.24 247.86 111.24ZM259.159 111.24C261.979 111.24 263.879 109.12 263.879 105.82C263.879 102.52 261.979 100.4 259.159 100.4C256.339 100.4 254.439 102.52 254.439 105.82C254.439 109.12 256.339 111.24 259.159 111.24ZM259.159 109.64C257.539 109.64 256.419 108.62 256.419 106.6V105.04C256.419 103.02 257.539 102 259.159 102C260.779 102 261.899 103.02 261.899 105.04V106.6C261.899 108.62 260.779 109.64 259.159 109.64ZM268.27 111V103.9C268.27 102.64 269.41 102.02 270.59 102.02C272.01 102.02 272.67 102.92 272.67 104.66V111H274.53V103.9C274.53 102.64 275.63 102.02 276.83 102.02C278.27 102.02 278.93 102.92 278.93 104.66V111H280.79V104.38C280.79 101.86 279.55 100.4 277.47 100.4C275.73 100.4 274.69 101.38 274.31 102.5H274.27C273.73 101.04 272.51 100.4 271.13 100.4C269.75 100.4 268.81 101.28 268.37 102.34H268.27V100.64H266.41V111H268.27ZM285.809 111V103.9C285.809 102.64 286.949 102.02 288.129 102.02C289.549 102.02 290.209 102.92 290.209 104.66V111H292.069V103.9C292.069 102.64 293.169 102.02 294.369 102.02C295.809 102.02 296.469 102.92 296.469 104.66V111H298.329V104.38C298.329 101.86 297.089 100.4 295.009 100.4C293.269 100.4 292.229 101.38 291.849 102.5H291.809C291.269 101.04 290.049 100.4 288.669 100.4C287.289 100.4 286.349 101.28 285.909 102.34H285.809V100.64H283.949V111H285.809ZM307.828 111H309.688V100.64H307.828V107.72C307.828 109.02 306.628 109.62 305.448 109.62C303.988 109.62 303.248 108.72 303.248 106.98V100.64H301.388V107.26C301.388 109.78 302.708 111.24 304.828 111.24C306.548 111.24 307.348 110.3 307.728 109.3H307.828V111ZM314.832 111V103.9C314.832 102.64 316.012 102.02 317.232 102.02C318.692 102.02 319.412 102.92 319.412 104.66V111H321.272V104.38C321.272 101.86 319.972 100.4 317.852 100.4C316.292 100.4 315.412 101.2 314.932 102.34H314.832V100.64H312.972V111H314.832ZM325.377 98.4799C326.157 98.4799 326.497 98.0599 326.497 97.4599V97.1799C326.497 96.5799 326.157 96.1599 325.377 96.1599C324.597 96.1599 324.257 96.5799 324.257 97.1799V97.4599C324.257 98.0599 324.597 98.4799 325.377 98.4799ZM324.437 111H326.297V100.64H324.437V111ZM334.074 111V109.42H332.014V102.22H334.234V100.64H332.014V97.7799H330.334V99.6799C330.334 100.38 330.114 100.64 329.414 100.64H328.494V102.22H330.154V109.04C330.154 110.24 330.834 111 332.114 111H334.074ZM340.782 107.26L340.182 109.2H340.082L339.542 107.26L337.242 100.64H335.382L339.222 111.42L338.522 113.42H336.822V115H337.842C339.422 115 339.922 114.56 340.402 113.26L344.902 100.64H343.102L340.782 107.26Z" fill="#242A31"/>
<path d="M594.26 41.9999H394.838C393.221 41.9999 392.272 43.82 393.199 45.1457L423.408 88.366C423.885 89.0482 423.889 89.9546 423.419 90.6415L393.142 134.87C392.234 136.197 393.184 138 394.793 138H594.245C594.911 138 595.533 137.669 595.905 137.116L627.24 90.5375C627.698 89.8556 627.693 88.9625 627.227 88.2858L595.907 42.8645C595.533 42.3232 594.918 41.9999 594.26 41.9999Z" fill="#F5F7F9"/>
<path d="M454.82 85.2399C457.92 85.2399 459.74 83.5599 459.74 80.9799C459.74 78.8399 458.52 77.6199 455.78 77.0199L454.6 76.7799C452.94 76.4199 452.16 75.8599 452.16 74.6199C452.16 73.2399 453.18 72.4999 454.88 72.4999C456.46 72.4999 457.48 73.1399 458.22 74.1599L459.64 73.0199C458.58 71.5799 457.08 70.7999 454.98 70.7999C452.12 70.7999 450.24 72.2199 450.24 74.6999C450.24 76.8799 451.62 78.0599 454.24 78.5999L455.42 78.8399C457.16 79.2199 457.82 79.8599 457.82 81.0799C457.82 82.5599 456.8 83.5399 454.9 83.5399C453.34 83.5399 452.18 82.8599 451.2 81.5999L449.82 82.8399C450.94 84.3199 452.54 85.2399 454.82 85.2399ZM466.358 85.2399C468.298 85.2399 469.798 84.3399 470.518 82.9999L469.318 81.9799C468.758 83.0399 467.818 83.6599 466.518 83.6599C464.658 83.6599 463.598 82.4199 463.598 80.6999V80.2799H470.898V79.4999C470.898 76.5999 469.258 74.3999 466.358 74.3999C463.478 74.3999 461.658 76.5399 461.658 79.8199C461.658 83.0999 463.478 85.2399 466.358 85.2399ZM466.358 75.8999C467.918 75.8999 468.918 77.0599 468.918 78.7799V78.9799H463.598V78.8399C463.598 77.1399 464.738 75.8999 466.358 75.8999ZM476.773 84.9999V83.4199H475.293V70.1999H473.433V83.0999C473.433 84.2399 474.093 84.9999 475.373 84.9999H476.773ZM479.559 84.9999H481.419V76.2199H483.599V74.6399H481.419V71.7799H483.599V70.1999H481.979C480.359 70.1999 479.559 71.1999 479.559 72.7199V74.6399H477.899V76.2199H479.559V84.9999ZM490.66 79.8799V77.9399H485.3V79.8799H490.66ZM497.418 85.2399C500.518 85.2399 502.338 83.5599 502.338 80.9799C502.338 78.8399 501.118 77.6199 498.378 77.0199L497.198 76.7799C495.538 76.4199 494.758 75.8599 494.758 74.6199C494.758 73.2399 495.778 72.4999 497.478 72.4999C499.058 72.4999 500.078 73.1399 500.818 74.1599L502.238 73.0199C501.178 71.5799 499.678 70.7999 497.578 70.7999C494.718 70.7999 492.838 72.2199 492.838 74.6999C492.838 76.8799 494.218 78.0599 496.838 78.5999L498.018 78.8399C499.758 79.2199 500.418 79.8599 500.418 81.0799C500.418 82.5599 499.398 83.5399 497.498 83.5399C495.938 83.5399 494.778 82.8599 493.798 81.5999L492.418 82.8399C493.538 84.3199 495.138 85.2399 497.418 85.2399ZM508.955 85.2399C510.895 85.2399 512.395 84.3399 513.115 82.9999L511.915 81.9799C511.355 83.0399 510.415 83.6599 509.115 83.6599C507.255 83.6599 506.195 82.4199 506.195 80.6999V80.2799H513.495V79.4999C513.495 76.5999 511.855 74.3999 508.955 74.3999C506.075 74.3999 504.255 76.5399 504.255 79.8199C504.255 83.0999 506.075 85.2399 508.955 85.2399ZM508.955 75.8999C510.515 75.8999 511.515 77.0599 511.515 78.7799V78.9799H506.195V78.8399C506.195 77.1399 507.335 75.8999 508.955 75.8999ZM517.891 84.9999V78.1999C517.891 77.1799 518.891 76.4999 520.611 76.4999H521.531V74.6399H520.911C519.251 74.6399 518.331 75.5999 517.991 76.6199H517.891V74.6399H516.031V84.9999H517.891ZM528.146 84.9999L531.746 74.6399H529.966L528.246 79.5999L527.146 83.1799H527.026L525.946 79.5999L524.246 74.6399H522.386L525.966 84.9999H528.146ZM537.51 85.2399C539.45 85.2399 540.95 84.3399 541.67 82.9999L540.47 81.9799C539.91 83.0399 538.97 83.6599 537.67 83.6599C535.81 83.6599 534.75 82.4199 534.75 80.6999V80.2799H542.05V79.4999C542.05 76.5999 540.41 74.3999 537.51 74.3999C534.63 74.3999 532.81 76.5399 532.81 79.8199C532.81 83.0999 534.63 85.2399 537.51 85.2399ZM537.51 75.8999C539.07 75.8999 540.07 77.0599 540.07 78.7799V78.9799H534.75V78.8399C534.75 77.1399 535.89 75.8999 537.51 75.8999ZM454.82 111.24C457.92 111.24 459.74 109.56 459.74 106.98C459.74 104.84 458.52 103.62 455.78 103.02L454.6 102.78C452.94 102.42 452.16 101.86 452.16 100.62C452.16 99.2399 453.18 98.4999 454.88 98.4999C456.46 98.4999 457.48 99.1399 458.22 100.16L459.64 99.0199C458.58 97.5799 457.08 96.7999 454.98 96.7999C452.12 96.7999 450.24 98.2199 450.24 100.7C450.24 102.88 451.62 104.06 454.24 104.6L455.42 104.84C457.16 105.22 457.82 105.86 457.82 107.08C457.82 108.56 456.8 109.54 454.9 109.54C453.34 109.54 452.18 108.86 451.2 107.6L449.82 108.84C450.94 110.32 452.54 111.24 454.82 111.24ZM470.998 111V109.42H469.838V103.96C469.838 101.72 468.358 100.4 465.778 100.4C463.858 100.4 462.638 101.3 462.018 102.42L463.138 103.44C463.678 102.56 464.458 101.96 465.678 101.96C467.238 101.96 467.978 102.74 467.978 104.12V105.06H466.018C463.058 105.06 461.598 106.14 461.598 108.14C461.598 110.04 462.858 111.24 465.018 111.24C466.498 111.24 467.598 110.56 468.018 109.28H468.118C468.258 110.28 468.798 111 469.938 111H470.998ZM465.438 109.74C464.278 109.74 463.538 109.2 463.538 108.24V107.84C463.538 106.88 464.298 106.36 465.998 106.36H467.978V107.96C467.978 109 466.898 109.74 465.438 109.74ZM481.818 111V109.42H480.658V103.96C480.658 101.72 479.178 100.4 476.598 100.4C474.678 100.4 473.458 101.3 472.838 102.42L473.958 103.44C474.498 102.56 475.278 101.96 476.498 101.96C478.058 101.96 478.798 102.74 478.798 104.12V105.06H476.838C473.878 105.06 472.418 106.14 472.418 108.14C472.418 110.04 473.678 111.24 475.838 111.24C477.318 111.24 478.418 110.56 478.838 109.28H478.938C479.078 110.28 479.618 111 480.758 111H481.818ZM476.258 109.74C475.098 109.74 474.358 109.2 474.358 108.24V107.84C474.358 106.88 475.118 106.36 476.818 106.36H478.798V107.96C478.798 109 477.718 109.74 476.258 109.74ZM488.218 111.24C491.318 111.24 493.138 109.56 493.138 106.98C493.138 104.84 491.918 103.62 489.178 103.02L487.998 102.78C486.338 102.42 485.558 101.86 485.558 100.62C485.558 99.2399 486.578 98.4999 488.278 98.4999C489.858 98.4999 490.878 99.1399 491.618 100.16L493.038 99.0199C491.978 97.5799 490.478 96.7999 488.378 96.7999C485.518 96.7999 483.638 98.2199 483.638 100.7C483.638 102.88 485.018 104.06 487.638 104.6L488.818 104.84C490.558 105.22 491.218 105.86 491.218 107.08C491.218 108.56 490.198 109.54 488.298 109.54C486.738 109.54 485.578 108.86 484.598 107.6L483.218 108.84C484.338 110.32 485.938 111.24 488.218 111.24Z" fill="#242A31"/>
<path d="M802.26 41.9999H602.838C601.221 41.9999 600.272 43.82 601.199 45.1457L631.408 88.366C631.885 89.0482 631.889 89.9546 631.419 90.6415L601.142 134.87C600.234 136.197 601.184 138 602.793 138H802.245C802.911 138 803.533 137.669 803.905 137.116L835.24 90.5375C835.698 89.8556 835.693 88.9625 835.227 88.2858L803.907 42.8645C803.533 42.3232 802.918 41.9999 802.26 41.9999Z" fill="#F5F7F9"/>
<path d="M663.98 84.9999V83.3599H662.04V72.6799H663.98V71.0399H658.16V72.6799H660.1V83.3599H658.16V84.9999H663.98ZM668.645 84.9999V77.8999C668.645 76.6399 669.825 76.0199 671.045 76.0199C672.505 76.0199 673.225 76.9199 673.225 78.6599V84.9999H675.085V78.3799C675.085 75.8599 673.785 74.3999 671.665 74.3999C670.105 74.3999 669.225 75.1999 668.745 76.3399H668.645V74.6399H666.785V84.9999H668.645ZM681.429 85.2399C683.869 85.2399 685.389 83.9799 685.389 81.9599C685.389 80.3599 684.449 79.3599 682.169 79.0199L681.289 78.8799C680.089 78.6999 679.489 78.3199 679.489 77.3999C679.489 76.5199 680.129 75.9399 681.389 75.9399C682.629 75.9399 683.509 76.5199 684.009 77.1799L685.189 76.0599C684.309 75.0199 683.209 74.3999 681.449 74.3999C679.269 74.3999 677.689 75.4799 677.689 77.5199C677.689 79.4399 679.069 80.2599 681.049 80.5399L681.929 80.6799C683.189 80.8599 683.589 81.3999 683.589 82.1599C683.589 83.1199 682.869 83.6999 681.549 83.6999C680.289 83.6999 679.329 83.1399 678.549 82.1599L677.289 83.2399C678.249 84.4599 679.509 85.2399 681.429 85.2399ZM688.994 72.4799C689.774 72.4799 690.114 72.0599 690.114 71.4599V71.1799C690.114 70.5799 689.774 70.1599 688.994 70.1599C688.214 70.1599 687.874 70.5799 687.874 71.1799V71.4599C687.874 72.0599 688.214 72.4799 688.994 72.4799ZM688.054 84.9999H689.914V74.6399H688.054V84.9999ZM699.751 84.9999H701.611V70.1999H699.751V76.3399H699.671C699.191 75.0599 698.111 74.3999 696.691 74.3999C694.091 74.3999 692.531 76.4599 692.531 79.8199C692.531 83.1799 694.091 85.2399 696.691 85.2399C698.111 85.2399 699.191 84.5799 699.671 83.2999H699.751V84.9999ZM697.231 83.6199C695.571 83.6199 694.511 82.4399 694.511 80.6999V78.9399C694.511 77.1999 695.571 76.0199 697.231 76.0199C698.631 76.0199 699.751 76.8199 699.751 77.9199V81.7199C699.751 82.8199 698.631 83.6199 697.231 83.6199ZM708.85 85.2399C710.79 85.2399 712.29 84.3399 713.01 82.9999L711.81 81.9799C711.25 83.0399 710.31 83.6599 709.01 83.6599C707.15 83.6599 706.09 82.4199 706.09 80.6999V80.2799H713.39V79.4999C713.39 76.5999 711.75 74.3999 708.85 74.3999C705.97 74.3999 704.15 76.5399 704.15 79.8199C704.15 83.0999 705.97 85.2399 708.85 85.2399ZM708.85 75.8999C710.41 75.8999 711.41 77.0599 711.41 78.7799V78.9799H706.09V78.8399C706.09 77.1399 707.23 75.8999 708.85 75.8999ZM662.82 111.24C665.92 111.24 667.74 109.56 667.74 106.98C667.74 104.84 666.52 103.62 663.78 103.02L662.6 102.78C660.94 102.42 660.16 101.86 660.16 100.62C660.16 99.2399 661.18 98.4999 662.88 98.4999C664.46 98.4999 665.48 99.1399 666.22 100.16L667.64 99.0199C666.58 97.5799 665.08 96.7999 662.98 96.7999C660.12 96.7999 658.24 98.2199 658.24 100.7C658.24 102.88 659.62 104.06 662.24 104.6L663.42 104.84C665.16 105.22 665.82 105.86 665.82 107.08C665.82 108.56 664.8 109.54 662.9 109.54C661.34 109.54 660.18 108.86 659.2 107.6L657.82 108.84C658.94 110.32 660.54 111.24 662.82 111.24ZM678.998 111V109.42H677.838V103.96C677.838 101.72 676.358 100.4 673.778 100.4C671.858 100.4 670.638 101.3 670.018 102.42L671.138 103.44C671.678 102.56 672.458 101.96 673.678 101.96C675.238 101.96 675.978 102.74 675.978 104.12V105.06H674.018C671.058 105.06 669.598 106.14 669.598 108.14C669.598 110.04 670.858 111.24 673.018 111.24C674.498 111.24 675.598 110.56 676.018 109.28H676.118C676.258 110.28 676.798 111 677.938 111H678.998ZM673.438 109.74C672.278 109.74 671.538 109.2 671.538 108.24V107.84C671.538 106.88 672.298 106.36 673.998 106.36H675.978V107.96C675.978 109 674.898 109.74 673.438 109.74ZM684.558 111V109.42H683.078V96.1999H681.218V109.1C681.218 110.24 681.878 111 683.158 111H684.558ZM690.745 111.24C692.685 111.24 694.185 110.34 694.905 109L693.705 107.98C693.145 109.04 692.205 109.66 690.905 109.66C689.045 109.66 687.985 108.42 687.985 106.7V106.28H695.285V105.5C695.285 102.6 693.645 100.4 690.745 100.4C687.865 100.4 686.045 102.54 686.045 105.82C686.045 109.1 687.865 111.24 690.745 111.24ZM690.745 101.9C692.305 101.9 693.305 103.06 693.305 104.78V104.98H687.985V104.84C687.985 103.14 689.125 101.9 690.745 101.9ZM701 111.24C703.44 111.24 704.96 109.98 704.96 107.96C704.96 106.36 704.02 105.36 701.74 105.02L700.86 104.88C699.66 104.7 699.06 104.32 699.06 103.4C699.06 102.52 699.7 101.94 700.96 101.94C702.2 101.94 703.08 102.52 703.58 103.18L704.76 102.06C703.88 101.02 702.78 100.4 701.02 100.4C698.84 100.4 697.26 101.48 697.26 103.52C697.26 105.44 698.64 106.26 700.62 106.54L701.5 106.68C702.76 106.86 703.16 107.4 703.16 108.16C703.16 109.12 702.44 109.7 701.12 109.7C699.86 109.7 698.9 109.14 698.12 108.16L696.86 109.24C697.82 110.46 699.08 111.24 701 111.24Z" fill="#242A31"/>
<path d="M1010 41.9999H810.845C809.227 41.9999 808.278 43.8229 809.208 45.1482L839.515 88.3634C839.995 89.0468 839.999 89.956 839.527 90.6441L809.151 134.868C808.24 136.195 809.19 138 810.8 138H1010C1011.1 138 1012 137.104 1012 136V89.4073V43.9999C1012 42.8953 1011.1 41.9999 1010 41.9999Z" fill="#F5F7F9"/>
<path d="M875.5 84.9999V83.2799H868.74V78.7999H875V77.0799H868.74V72.7599H875.5V71.0399H866.8V84.9999H875.5ZM880.258 84.9999V77.8999C880.258 76.6399 881.438 76.0199 882.658 76.0199C884.118 76.0199 884.838 76.9199 884.838 78.6599V84.9999H886.698V78.3799C886.698 75.8599 885.398 74.3999 883.278 74.3999C881.718 74.3999 880.838 75.1999 880.358 76.3399H880.258V74.6399H878.398V84.9999H880.258ZM894.363 84.9999V83.4199H892.303V76.2199H894.523V74.6399H892.303V71.7799H890.623V73.6799C890.623 74.3799 890.403 74.6399 889.703 74.6399H888.783V76.2199H890.443V83.0399C890.443 84.2399 891.123 84.9999 892.403 84.9999H894.363ZM900.893 85.2399C902.833 85.2399 904.333 84.3399 905.053 82.9999L903.853 81.9799C903.293 83.0399 902.353 83.6599 901.053 83.6599C899.193 83.6599 898.133 82.4199 898.133 80.6999V80.2799H905.433V79.4999C905.433 76.5999 903.793 74.3999 900.893 74.3999C898.013 74.3999 896.193 76.5399 896.193 79.8199C896.193 83.0999 898.013 85.2399 900.893 85.2399ZM900.893 75.8999C902.453 75.8999 903.453 77.0599 903.453 78.7799V78.9799H898.133V78.8399C898.133 77.1399 899.273 75.8999 900.893 75.8999ZM909.828 84.9999V78.1999C909.828 77.1799 910.828 76.4999 912.548 76.4999H913.468V74.6399H912.848C911.188 74.6399 910.268 75.5999 909.928 76.6199H909.828V74.6399H907.968V84.9999H909.828ZM915.468 88.9999H917.328V83.2999H917.408C917.888 84.5799 918.968 85.2399 920.388 85.2399C922.988 85.2399 924.548 83.1799 924.548 79.8199C924.548 76.4599 922.988 74.3999 920.388 74.3999C918.968 74.3999 917.888 75.0599 917.408 76.3399H917.328V74.6399H915.468V88.9999ZM919.848 83.6199C918.448 83.6199 917.328 82.8199 917.328 81.7199V77.9199C917.328 76.8199 918.448 76.0199 919.848 76.0199C921.508 76.0199 922.568 77.1999 922.568 78.9399V80.6999C922.568 82.4399 921.508 83.6199 919.848 83.6199ZM929.027 84.9999V78.1999C929.027 77.1799 930.027 76.4999 931.747 76.4999H932.667V74.6399H932.047C930.387 74.6399 929.467 75.5999 929.127 76.6199H929.027V74.6399H927.167V84.9999H929.027ZM935.607 72.4799C936.387 72.4799 936.727 72.0599 936.727 71.4599V71.1799C936.727 70.5799 936.387 70.1599 935.607 70.1599C934.827 70.1599 934.487 70.5799 934.487 71.1799V71.4599C934.487 72.0599 934.827 72.4799 935.607 72.4799ZM934.667 84.9999H936.527V74.6399H934.667V84.9999ZM942.984 85.2399C945.424 85.2399 946.944 83.9799 946.944 81.9599C946.944 80.3599 946.004 79.3599 943.724 79.0199L942.844 78.8799C941.644 78.6999 941.044 78.3199 941.044 77.3999C941.044 76.5199 941.684 75.9399 942.944 75.9399C944.184 75.9399 945.064 76.5199 945.564 77.1799L946.744 76.0599C945.864 75.0199 944.764 74.3999 943.004 74.3999C940.824 74.3999 939.244 75.4799 939.244 77.5199C939.244 79.4399 940.624 80.2599 942.604 80.5399L943.484 80.6799C944.744 80.8599 945.144 81.3999 945.144 82.1599C945.144 83.1199 944.424 83.6999 943.104 83.6999C941.844 83.6999 940.884 83.1399 940.104 82.1599L938.844 83.2399C939.804 84.4599 941.064 85.2399 942.984 85.2399ZM953.569 85.2399C955.509 85.2399 957.009 84.3399 957.729 82.9999L956.529 81.9799C955.969 83.0399 955.029 83.6599 953.729 83.6599C951.869 83.6599 950.809 82.4199 950.809 80.6999V80.2799H958.109V79.4999C958.109 76.5999 956.469 74.3999 953.569 74.3999C950.689 74.3999 948.869 76.5399 948.869 79.8199C948.869 83.0999 950.689 85.2399 953.569 85.2399ZM953.569 75.8999C955.129 75.8999 956.129 77.0599 956.129 78.7799V78.9799H950.809V78.8399C950.809 77.1399 951.949 75.8999 953.569 75.8999ZM870.82 111.24C873.92 111.24 875.74 109.56 875.74 106.98C875.74 104.84 874.52 103.62 871.78 103.02L870.6 102.78C868.94 102.42 868.16 101.86 868.16 100.62C868.16 99.2399 869.18 98.4999 870.88 98.4999C872.46 98.4999 873.48 99.1399 874.22 100.16L875.64 99.0199C874.58 97.5799 873.08 96.7999 870.98 96.7999C868.12 96.7999 866.24 98.2199 866.24 100.7C866.24 102.88 867.62 104.06 870.24 104.6L871.42 104.84C873.16 105.22 873.82 105.86 873.82 107.08C873.82 108.56 872.8 109.54 870.9 109.54C869.34 109.54 868.18 108.86 867.2 107.6L865.82 108.84C866.94 110.32 868.54 111.24 870.82 111.24ZM886.998 111V109.42H885.838V103.96C885.838 101.72 884.358 100.4 881.778 100.4C879.858 100.4 878.638 101.3 878.018 102.42L879.138 103.44C879.678 102.56 880.458 101.96 881.678 101.96C883.238 101.96 883.978 102.74 883.978 104.12V105.06H882.018C879.058 105.06 877.598 106.14 877.598 108.14C877.598 110.04 878.858 111.24 881.018 111.24C882.498 111.24 883.598 110.56 884.018 109.28H884.118C884.258 110.28 884.798 111 885.938 111H886.998ZM881.438 109.74C880.278 109.74 879.538 109.2 879.538 108.24V107.84C879.538 106.88 880.298 106.36 881.998 106.36H883.978V107.96C883.978 109 882.898 109.74 881.438 109.74ZM892.558 111V109.42H891.078V96.1999H889.218V109.1C889.218 110.24 889.878 111 891.158 111H892.558ZM898.745 111.24C900.685 111.24 902.185 110.34 902.905 109L901.705 107.98C901.145 109.04 900.205 109.66 898.905 109.66C897.045 109.66 895.985 108.42 895.985 106.7V106.28H903.285V105.5C903.285 102.6 901.645 100.4 898.745 100.4C895.865 100.4 894.045 102.54 894.045 105.82C894.045 109.1 895.865 111.24 898.745 111.24ZM898.745 101.9C900.305 101.9 901.305 103.06 901.305 104.78V104.98H895.985V104.84C895.985 103.14 897.125 101.9 898.745 101.9ZM909 111.24C911.44 111.24 912.96 109.98 912.96 107.96C912.96 106.36 912.02 105.36 909.74 105.02L908.86 104.88C907.66 104.7 907.06 104.32 907.06 103.4C907.06 102.52 907.7 101.94 908.96 101.94C910.2 101.94 911.08 102.52 911.58 103.18L912.76 102.06C911.88 101.02 910.78 100.4 909.02 100.4C906.84 100.4 905.26 101.48 905.26 103.52C905.26 105.44 906.64 106.26 908.62 106.54L909.5 106.68C910.76 106.86 911.16 107.4 911.16 108.16C911.16 109.12 910.44 109.7 909.12 109.7C907.86 109.7 906.9 109.14 906.12 108.16L904.86 109.24C905.82 110.46 907.08 111.24 909 111.24Z" fill="#242A31"/>
<path d="M401.987 11.9999V10.6239H399.187V0.831909H396.787L393.891 3.74391L394.819 4.65591L397.523 1.96791H397.635V10.6239H394.579V11.9999H401.987Z" fill="#3C454E"/>
<path d="M340 22.4999C340 24.4329 338.433 25.9999 336.5 25.9999C334.567 25.9999 333 24.4329 333 22.4999C333 20.5669 334.567 18.9999 336.5 18.9999C338.433 18.9999 340 20.5669 340 22.4999Z" fill="#4FDAB8"/>
<path d="M470 22.4999C470 24.4329 468.433 25.9999 466.5 25.9999C464.567 25.9999 463 24.4329 463 22.4999C463 20.5669 464.567 18.9999 466.5 18.9999C468.433 18.9999 470 20.5669 470 22.4999Z" fill="#4FDAB8"/>
<path d="M333 22.9999H463V21.9999H333V22.9999Z" fill="#4FDAB8"/>
<path d="M916.211 5.50389V6.83189H917.507C918.979 6.83189 919.779 7.53589 919.779 8.76789V8.91189C919.779 10.1439 918.979 10.8479 917.507 10.8479C916.179 10.8479 915.507 10.2399 914.963 9.35989L913.795 10.2399C914.499 11.2319 915.523 12.1919 917.523 12.1919C919.843 12.1919 921.395 10.8639 921.395 8.92789C921.395 7.27989 920.275 6.38389 919.043 6.14389V6.07989C920.227 5.79189 921.187 4.92789 921.187 3.48789C921.187 1.67989 919.683 0.639893 917.683 0.639893C915.875 0.639893 914.883 1.53589 914.259 2.47989L915.347 3.35989C915.827 2.51189 916.547 1.98389 917.651 1.98389C918.787 1.98389 919.555 2.55989 919.555 3.66389V3.77589C919.555 4.76789 918.835 5.50389 917.395 5.50389H916.211Z" fill="#3C454E"/>
<path d="M829 22.4999C829 24.4329 827.433 25.9999 825.5 25.9999C823.567 25.9999 822 24.4329 822 22.4999C822 20.5669 823.567 18.9999 825.5 18.9999C827.433 18.9999 829 20.5669 829 22.4999Z" fill="url(#paint0_linear)"/>
<path d="M1012 22.4999C1012 24.4329 1010.43 25.9999 1008.5 25.9999C1006.57 25.9999 1005 24.4329 1005 22.4999C1005 20.5669 1006.57 18.9999 1008.5 18.9999C1010.43 18.9999 1012 20.5669 1012 22.4999Z" fill="url(#paint1_linear)"/>
<path d="M826 22.9999H1009V21.9999H826V22.9999Z" fill="#30CEFE"/>
<path d="M649.779 10.6239H644.083L646.851 8.15989C648.323 6.87989 649.427 5.67989 649.427 3.90389C649.427 1.99989 648.131 0.639893 645.907 0.639893C643.715 0.639893 642.675 1.95189 642.227 3.31189L643.603 3.83989C643.891 2.81589 644.499 2.03189 645.811 2.03189C647.059 2.03189 647.763 2.78389 647.763 3.93589V4.12789C647.763 5.18389 647.043 6.20789 645.955 7.18389L642.355 10.4639V11.9999H649.779V10.6239Z" fill="#3C454E"/>
<path d="M485 22.4999C485 24.4329 483.433 25.9999 481.5 25.9999C479.567 25.9999 478 24.4329 478 22.4999C478 20.5669 479.567 18.9999 481.5 18.9999C483.433 18.9999 485 20.5669 485 22.4999Z" fill="#526AEA"/>
<path d="M814 22.4999C814 24.4329 812.433 25.9999 810.5 25.9999C808.567 25.9999 807 24.4329 807 22.4999C807 20.5669 808.567 18.9999 810.5 18.9999C812.433 18.9999 814 20.5669 814 22.4999Z" fill="#526AEA"/>
<path d="M482 22.9999H811V21.9999H482V22.9999Z" fill="#526AEA"/>
<defs>
<linearGradient id="paint0_linear" x1="825.5" y1="18.9999" x2="825.5" y2="25.9999" gradientUnits="userSpaceOnUse">
<stop stop-color="#52C7EA"/>
<stop offset="1" stop-color="#30CEFE"/>
</linearGradient>
<linearGradient id="paint1_linear" x1="1008.5" y1="18.9999" x2="1008.5" y2="25.9999" gradientUnits="userSpaceOnUse">
<stop stop-color="#52C7EA"/>
<stop offset="1" stop-color="#30CEFE"/>
</linearGradient>
</defs>
</svg>
