<svg width="1012" height="152" viewBox="0 0 1012 152" fill="none" xmlns="http://www.w3.org/2000/svg">
<path d="M178.178 56H2C0.89543 56 0 56.8954 0 58V150C0 151.105 0.895426 152 2 152H178.164C178.828 152 179.45 151.67 179.822 151.118L211.236 104.54C211.697 103.857 211.692 102.962 211.223 102.284L179.823 56.8627C179.45 56.3225 178.835 56 178.178 56Z" fill="#F5F7F9"/>
<path d="M26.8 99H31.58C35.12 99 37.4 96.68 37.4 92.02C37.4 87.36 35.12 85.04 31.58 85.04H26.8V99ZM28.74 97.28V86.76H31.58C33.8 86.76 35.32 88.24 35.32 90.9V93.14C35.32 95.8 33.8 97.28 31.58 97.28H28.74ZM44.1156 99.24C46.0556 99.24 47.5556 98.34 48.2756 97L47.0756 95.98C46.5156 97.04 45.5756 97.66 44.2756 97.66C42.4156 97.66 41.3556 96.42 41.3556 94.7V94.28H48.6556V93.5C48.6556 90.6 47.0156 88.4 44.1156 88.4C41.2356 88.4 39.4156 90.54 39.4156 93.82C39.4156 97.1 41.2356 99.24 44.1156 99.24ZM44.1156 89.9C45.6756 89.9 46.6756 91.06 46.6756 92.78V92.98H41.3556V92.84C41.3556 91.14 42.4956 89.9 44.1156 89.9ZM55.4745 99L59.0745 88.64H57.2945L55.5745 93.6L54.4745 97.18H54.3545L53.2745 93.6L51.5745 88.64H49.7145L53.2945 99H55.4745ZM64.8383 99.24C66.7783 99.24 68.2783 98.34 68.9983 97L67.7983 95.98C67.2383 97.04 66.2983 97.66 64.9983 97.66C63.1383 97.66 62.0783 96.42 62.0783 94.7V94.28H69.3783V93.5C69.3783 90.6 67.7383 88.4 64.8383 88.4C61.9583 88.4 60.1383 90.54 60.1383 93.82C60.1383 97.1 61.9583 99.24 64.8383 99.24ZM64.8383 89.9C66.3983 89.9 67.3983 91.06 67.3983 92.78V92.98H62.0783V92.84C62.0783 91.14 63.2183 89.9 64.8383 89.9ZM75.2534 99V97.42H73.7734V84.2H71.9134V97.1C71.9134 98.24 72.5734 99 73.8534 99H75.2534ZM81.4598 99.24C84.2798 99.24 86.1798 97.12 86.1798 93.82C86.1798 90.52 84.2798 88.4 81.4598 88.4C78.6398 88.4 76.7398 90.52 76.7398 93.82C76.7398 97.12 78.6398 99.24 81.4598 99.24ZM81.4598 97.64C79.8398 97.64 78.7198 96.62 78.7198 94.6V93.04C78.7198 91.02 79.8398 90 81.4598 90C83.0798 90 84.1998 91.02 84.1998 93.04V94.6C84.1998 96.62 83.0798 97.64 81.4598 97.64ZM88.7103 103H90.5703V97.3H90.6503C91.1303 98.58 92.2103 99.24 93.6303 99.24C96.2303 99.24 97.7903 97.18 97.7903 93.82C97.7903 90.46 96.2303 88.4 93.6303 88.4C92.2103 88.4 91.1303 89.06 90.6503 90.34H90.5703V88.64H88.7103V103ZM93.0903 97.62C91.6903 97.62 90.5703 96.82 90.5703 95.72V91.92C90.5703 90.82 91.6903 90.02 93.0903 90.02C94.7503 90.02 95.8103 91.2 95.8103 92.94V94.7C95.8103 96.44 94.7503 97.62 93.0903 97.62ZM104.37 99.24C106.31 99.24 107.81 98.34 108.53 97L107.33 95.98C106.77 97.04 105.83 97.66 104.53 97.66C102.67 97.66 101.61 96.42 101.61 94.7V94.28H108.91V93.5C108.91 90.6 107.27 88.4 104.37 88.4C101.49 88.4 99.6695 90.54 99.6695 93.82C99.6695 97.1 101.49 99.24 104.37 99.24ZM104.37 89.9C105.93 89.9 106.93 91.06 106.93 92.78V92.98H101.61V92.84C101.61 91.14 102.75 89.9 104.37 89.9ZM113.305 99V92.2C113.305 91.18 114.305 90.5 116.025 90.5H116.945V88.64H116.325C114.665 88.64 113.745 89.6 113.405 90.62H113.305V88.64H111.445V99H113.305ZM37.54 125L32.72 111.04H30.28L25.44 125H27.4L28.74 121.06H34.18L35.5 125H37.54ZM33.7 119.34H29.2L31.4 112.82H31.5L33.7 119.34ZM41.1139 125H43.2739L44.6739 120.14L45.5339 117.1H45.5739L46.4539 120.14L47.8539 125H50.0539L52.8139 114.64H51.0739L49.9739 119.06L48.9939 123.32H48.9339L47.7339 119.06L46.4139 114.64H44.7539L43.4739 119.06L42.2939 123.32H42.2539L41.2139 119.06L40.1339 114.64H38.3339L41.1139 125ZM63.4431 125V123.42H62.2831V117.96C62.2831 115.72 60.8031 114.4 58.2231 114.4C56.3031 114.4 55.0831 115.3 54.4631 116.42L55.5831 117.44C56.1231 116.56 56.9031 115.96 58.1231 115.96C59.6831 115.96 60.4231 116.74 60.4231 118.12V119.06H58.4631C55.5031 119.06 54.0431 120.14 54.0431 122.14C54.0431 124.04 55.3031 125.24 57.4631 125.24C58.9431 125.24 60.0431 124.56 60.4631 123.28H60.5631C60.7031 124.28 61.2431 125 62.3831 125H63.4431ZM57.8831 123.74C56.7231 123.74 55.9831 123.2 55.9831 122.24V121.84C55.9831 120.88 56.7431 120.36 58.4431 120.36H60.4231V121.96C60.4231 123 59.3431 123.74 57.8831 123.74ZM67.5234 125V118.2C67.5234 117.18 68.5234 116.5 70.2434 116.5H71.1634V114.64H70.5434C68.8834 114.64 67.9634 115.6 67.6234 116.62H67.5234V114.64H65.6634V125H67.5234ZM77.0258 125.24C78.9658 125.24 80.4658 124.34 81.1858 123L79.9858 121.98C79.4258 123.04 78.4858 123.66 77.1858 123.66C75.3258 123.66 74.2658 122.42 74.2658 120.7V120.28H81.5658V119.5C81.5658 116.6 79.9258 114.4 77.0258 114.4C74.1458 114.4 72.3258 116.54 72.3258 119.82C72.3258 123.1 74.1458 125.24 77.0258 125.24ZM77.0258 115.9C78.5858 115.9 79.5858 117.06 79.5858 118.78V118.98H74.2658V118.84C74.2658 117.14 75.4058 115.9 77.0258 115.9ZM85.9609 125V117.9C85.9609 116.64 87.1409 116.02 88.3609 116.02C89.8209 116.02 90.5409 116.92 90.5409 118.66V125H92.4009V118.38C92.4009 115.86 91.1009 114.4 88.9809 114.4C87.4209 114.4 86.5409 115.2 86.0609 116.34H85.9609V114.64H84.1009V125H85.9609ZM99.5258 125.24C101.466 125.24 102.966 124.34 103.686 123L102.486 121.98C101.926 123.04 100.986 123.66 99.6858 123.66C97.8258 123.66 96.7658 122.42 96.7658 120.7V120.28H104.066V119.5C104.066 116.6 102.426 114.4 99.5258 114.4C96.6458 114.4 94.8258 116.54 94.8258 119.82C94.8258 123.1 96.6458 125.24 99.5258 125.24ZM99.5258 115.9C101.086 115.9 102.086 117.06 102.086 118.78V118.98H96.7658V118.84C96.7658 117.14 97.9058 115.9 99.5258 115.9ZM109.781 125.24C112.221 125.24 113.741 123.98 113.741 121.96C113.741 120.36 112.801 119.36 110.521 119.02L109.641 118.88C108.441 118.7 107.841 118.32 107.841 117.4C107.841 116.52 108.481 115.94 109.741 115.94C110.981 115.94 111.861 116.52 112.361 117.18L113.541 116.06C112.661 115.02 111.561 114.4 109.801 114.4C107.621 114.4 106.041 115.48 106.041 117.52C106.041 119.44 107.421 120.26 109.401 120.54L110.281 120.68C111.541 120.86 111.941 121.4 111.941 122.16C111.941 123.12 111.221 123.7 109.901 123.7C108.641 123.7 107.681 123.14 106.901 122.16L105.641 123.24C106.601 124.46 107.861 125.24 109.781 125.24ZM119.468 125.24C121.908 125.24 123.428 123.98 123.428 121.96C123.428 120.36 122.488 119.36 120.208 119.02L119.328 118.88C118.128 118.7 117.528 118.32 117.528 117.4C117.528 116.52 118.168 115.94 119.428 115.94C120.668 115.94 121.548 116.52 122.048 117.18L123.228 116.06C122.348 115.02 121.248 114.4 119.488 114.4C117.308 114.4 115.728 115.48 115.728 117.52C115.728 119.44 117.108 120.26 119.088 120.54L119.968 120.68C121.228 120.86 121.628 121.4 121.628 122.16C121.628 123.12 120.908 123.7 119.588 123.7C118.328 123.7 117.368 123.14 116.588 122.16L115.328 123.24C116.288 124.46 117.548 125.24 119.468 125.24Z" fill="#242A31"/>
<path d="M386.125 56H185.847C184.228 56 183.28 57.8237 184.21 59.149L214.542 102.363C215.022 103.047 215.027 103.957 214.553 104.645L184.154 148.867C183.241 150.194 184.192 152 185.802 152H386.11C386.774 152 387.395 151.67 387.767 151.12L419.234 104.541C419.696 103.858 419.691 102.961 419.221 102.283L387.769 56.8614C387.395 56.3219 386.781 56 386.125 56Z" fill="#F5F7F9"/>
<path d="M248.08 99.24C251.7 99.24 254.04 96.72 254.04 92.02C254.04 87.32 251.7 84.8 248.08 84.8C244.46 84.8 242.12 87.32 242.12 92.02C242.12 96.72 244.46 99.24 248.08 99.24ZM248.08 97.5C245.76 97.5 244.2 95.82 244.2 93.16V90.88C244.2 88.22 245.76 86.54 248.08 86.54C250.4 86.54 251.96 88.22 251.96 90.88V93.16C251.96 95.82 250.4 97.5 248.08 97.5ZM260.961 99.24C264.061 99.24 265.881 97.56 265.881 94.98C265.881 92.84 264.661 91.62 261.921 91.02L260.741 90.78C259.081 90.42 258.301 89.86 258.301 88.62C258.301 87.24 259.321 86.5 261.021 86.5C262.601 86.5 263.621 87.14 264.361 88.16L265.781 87.02C264.721 85.58 263.221 84.8 261.121 84.8C258.261 84.8 256.381 86.22 256.381 88.7C256.381 90.88 257.761 92.06 260.381 92.6L261.561 92.84C263.301 93.22 263.961 93.86 263.961 95.08C263.961 96.56 262.941 97.54 261.041 97.54C259.481 97.54 258.321 96.86 257.341 95.6L255.961 96.84C257.081 98.32 258.681 99.24 260.961 99.24ZM272.504 99.24C275.604 99.24 277.424 97.56 277.424 94.98C277.424 92.84 276.204 91.62 273.464 91.02L272.284 90.78C270.624 90.42 269.844 89.86 269.844 88.62C269.844 87.24 270.864 86.5 272.564 86.5C274.144 86.5 275.164 87.14 275.904 88.16L277.324 87.02C276.264 85.58 274.764 84.8 272.664 84.8C269.804 84.8 267.924 86.22 267.924 88.7C267.924 90.88 269.304 92.06 271.924 92.6L273.104 92.84C274.844 93.22 275.504 93.86 275.504 95.08C275.504 96.56 274.484 97.54 272.584 97.54C271.024 97.54 269.864 96.86 268.884 95.6L267.504 96.84C268.624 98.32 270.224 99.24 272.504 99.24ZM247.86 125.24C250.22 125.24 251.92 124.02 252.82 122.02L251.26 121.08C250.74 122.52 249.58 123.5 247.86 123.5C245.58 123.5 244.2 121.8 244.2 119.08V116.96C244.2 114.24 245.58 112.54 247.86 112.54C249.54 112.54 250.62 113.44 251.14 114.82L252.74 113.9C251.84 111.9 250.22 110.8 247.86 110.8C244.3 110.8 242.12 113.36 242.12 118.02C242.12 122.68 244.3 125.24 247.86 125.24ZM259.159 125.24C261.979 125.24 263.879 123.12 263.879 119.82C263.879 116.52 261.979 114.4 259.159 114.4C256.339 114.4 254.439 116.52 254.439 119.82C254.439 123.12 256.339 125.24 259.159 125.24ZM259.159 123.64C257.539 123.64 256.419 122.62 256.419 120.6V119.04C256.419 117.02 257.539 116 259.159 116C260.779 116 261.899 117.02 261.899 119.04V120.6C261.899 122.62 260.779 123.64 259.159 123.64ZM268.27 125V117.9C268.27 116.64 269.41 116.02 270.59 116.02C272.01 116.02 272.67 116.92 272.67 118.66V125H274.53V117.9C274.53 116.64 275.63 116.02 276.83 116.02C278.27 116.02 278.93 116.92 278.93 118.66V125H280.79V118.38C280.79 115.86 279.55 114.4 277.47 114.4C275.73 114.4 274.69 115.38 274.31 116.5H274.27C273.73 115.04 272.51 114.4 271.13 114.4C269.75 114.4 268.81 115.28 268.37 116.34H268.27V114.64H266.41V125H268.27ZM285.809 125V117.9C285.809 116.64 286.949 116.02 288.129 116.02C289.549 116.02 290.209 116.92 290.209 118.66V125H292.069V117.9C292.069 116.64 293.169 116.02 294.369 116.02C295.809 116.02 296.469 116.92 296.469 118.66V125H298.329V118.38C298.329 115.86 297.089 114.4 295.009 114.4C293.269 114.4 292.229 115.38 291.849 116.5H291.809C291.269 115.04 290.049 114.4 288.669 114.4C287.289 114.4 286.349 115.28 285.909 116.34H285.809V114.64H283.949V125H285.809ZM307.828 125H309.688V114.64H307.828V121.72C307.828 123.02 306.628 123.62 305.448 123.62C303.988 123.62 303.248 122.72 303.248 120.98V114.64H301.388V121.26C301.388 123.78 302.708 125.24 304.828 125.24C306.548 125.24 307.348 124.3 307.728 123.3H307.828V125ZM314.832 125V117.9C314.832 116.64 316.012 116.02 317.232 116.02C318.692 116.02 319.412 116.92 319.412 118.66V125H321.272V118.38C321.272 115.86 319.972 114.4 317.852 114.4C316.292 114.4 315.412 115.2 314.932 116.34H314.832V114.64H312.972V125H314.832ZM325.377 112.48C326.157 112.48 326.497 112.06 326.497 111.46V111.18C326.497 110.58 326.157 110.16 325.377 110.16C324.597 110.16 324.257 110.58 324.257 111.18V111.46C324.257 112.06 324.597 112.48 325.377 112.48ZM324.437 125H326.297V114.64H324.437V125ZM334.074 125V123.42H332.014V116.22H334.234V114.64H332.014V111.78H330.334V113.68C330.334 114.38 330.114 114.64 329.414 114.64H328.494V116.22H330.154V123.04C330.154 124.24 330.834 125 332.114 125H334.074ZM340.782 121.26L340.182 123.2H340.082L339.542 121.26L337.242 114.64H335.382L339.222 125.42L338.522 127.42H336.822V129H337.842C339.422 129 339.922 128.56 340.402 127.26L344.902 114.64H343.102L340.782 121.26Z" fill="#242A31"/>
<path d="M594.26 56H394.838C393.221 56 392.272 57.8201 393.199 59.1458L423.408 102.366C423.885 103.048 423.889 103.955 423.419 104.642L393.142 148.87C392.234 150.198 393.184 152 394.793 152H594.245C594.911 152 595.533 151.669 595.905 151.116L627.24 104.538C627.698 103.856 627.693 102.963 627.227 102.286L595.907 56.8647C595.533 56.3233 594.918 56 594.26 56Z" fill="#F5F7F9"/>
<path d="M454.82 99.24C457.92 99.24 459.74 97.56 459.74 94.98C459.74 92.84 458.52 91.62 455.78 91.02L454.6 90.78C452.94 90.42 452.16 89.86 452.16 88.62C452.16 87.24 453.18 86.5 454.88 86.5C456.46 86.5 457.48 87.14 458.22 88.16L459.64 87.02C458.58 85.58 457.08 84.8 454.98 84.8C452.12 84.8 450.24 86.22 450.24 88.7C450.24 90.88 451.62 92.06 454.24 92.6L455.42 92.84C457.16 93.22 457.82 93.86 457.82 95.08C457.82 96.56 456.8 97.54 454.9 97.54C453.34 97.54 452.18 96.86 451.2 95.6L449.82 96.84C450.94 98.32 452.54 99.24 454.82 99.24ZM466.358 99.24C468.298 99.24 469.798 98.34 470.518 97L469.318 95.98C468.758 97.04 467.818 97.66 466.518 97.66C464.658 97.66 463.598 96.42 463.598 94.7V94.28H470.898V93.5C470.898 90.6 469.258 88.4 466.358 88.4C463.478 88.4 461.658 90.54 461.658 93.82C461.658 97.1 463.478 99.24 466.358 99.24ZM466.358 89.9C467.918 89.9 468.918 91.06 468.918 92.78V92.98H463.598V92.84C463.598 91.14 464.738 89.9 466.358 89.9ZM476.773 99V97.42H475.293V84.2H473.433V97.1C473.433 98.24 474.093 99 475.373 99H476.773ZM479.559 99H481.419V90.22H483.599V88.64H481.419V85.78H483.599V84.2H481.979C480.359 84.2 479.559 85.2 479.559 86.72V88.64H477.899V90.22H479.559V99ZM490.66 93.88V91.94H485.3V93.88H490.66ZM497.418 99.24C500.518 99.24 502.338 97.56 502.338 94.98C502.338 92.84 501.118 91.62 498.378 91.02L497.198 90.78C495.538 90.42 494.758 89.86 494.758 88.62C494.758 87.24 495.778 86.5 497.478 86.5C499.058 86.5 500.078 87.14 500.818 88.16L502.238 87.02C501.178 85.58 499.678 84.8 497.578 84.8C494.718 84.8 492.838 86.22 492.838 88.7C492.838 90.88 494.218 92.06 496.838 92.6L498.018 92.84C499.758 93.22 500.418 93.86 500.418 95.08C500.418 96.56 499.398 97.54 497.498 97.54C495.938 97.54 494.778 96.86 493.798 95.6L492.418 96.84C493.538 98.32 495.138 99.24 497.418 99.24ZM508.955 99.24C510.895 99.24 512.395 98.34 513.115 97L511.915 95.98C511.355 97.04 510.415 97.66 509.115 97.66C507.255 97.66 506.195 96.42 506.195 94.7V94.28H513.495V93.5C513.495 90.6 511.855 88.4 508.955 88.4C506.075 88.4 504.255 90.54 504.255 93.82C504.255 97.1 506.075 99.24 508.955 99.24ZM508.955 89.9C510.515 89.9 511.515 91.06 511.515 92.78V92.98H506.195V92.84C506.195 91.14 507.335 89.9 508.955 89.9ZM517.891 99V92.2C517.891 91.18 518.891 90.5 520.611 90.5H521.531V88.64H520.911C519.251 88.64 518.331 89.6 517.991 90.62H517.891V88.64H516.031V99H517.891ZM528.146 99L531.746 88.64H529.966L528.246 93.6L527.146 97.18H527.026L525.946 93.6L524.246 88.64H522.386L525.966 99H528.146ZM537.51 99.24C539.45 99.24 540.95 98.34 541.67 97L540.47 95.98C539.91 97.04 538.97 97.66 537.67 97.66C535.81 97.66 534.75 96.42 534.75 94.7V94.28H542.05V93.5C542.05 90.6 540.41 88.4 537.51 88.4C534.63 88.4 532.81 90.54 532.81 93.82C532.81 97.1 534.63 99.24 537.51 99.24ZM537.51 89.9C539.07 89.9 540.07 91.06 540.07 92.78V92.98H534.75V92.84C534.75 91.14 535.89 89.9 537.51 89.9ZM454.82 125.24C457.92 125.24 459.74 123.56 459.74 120.98C459.74 118.84 458.52 117.62 455.78 117.02L454.6 116.78C452.94 116.42 452.16 115.86 452.16 114.62C452.16 113.24 453.18 112.5 454.88 112.5C456.46 112.5 457.48 113.14 458.22 114.16L459.64 113.02C458.58 111.58 457.08 110.8 454.98 110.8C452.12 110.8 450.24 112.22 450.24 114.7C450.24 116.88 451.62 118.06 454.24 118.6L455.42 118.84C457.16 119.22 457.82 119.86 457.82 121.08C457.82 122.56 456.8 123.54 454.9 123.54C453.34 123.54 452.18 122.86 451.2 121.6L449.82 122.84C450.94 124.32 452.54 125.24 454.82 125.24ZM470.998 125V123.42H469.838V117.96C469.838 115.72 468.358 114.4 465.778 114.4C463.858 114.4 462.638 115.3 462.018 116.42L463.138 117.44C463.678 116.56 464.458 115.96 465.678 115.96C467.238 115.96 467.978 116.74 467.978 118.12V119.06H466.018C463.058 119.06 461.598 120.14 461.598 122.14C461.598 124.04 462.858 125.24 465.018 125.24C466.498 125.24 467.598 124.56 468.018 123.28H468.118C468.258 124.28 468.798 125 469.938 125H470.998ZM465.438 123.74C464.278 123.74 463.538 123.2 463.538 122.24V121.84C463.538 120.88 464.298 120.36 465.998 120.36H467.978V121.96C467.978 123 466.898 123.74 465.438 123.74ZM481.818 125V123.42H480.658V117.96C480.658 115.72 479.178 114.4 476.598 114.4C474.678 114.4 473.458 115.3 472.838 116.42L473.958 117.44C474.498 116.56 475.278 115.96 476.498 115.96C478.058 115.96 478.798 116.74 478.798 118.12V119.06H476.838C473.878 119.06 472.418 120.14 472.418 122.14C472.418 124.04 473.678 125.24 475.838 125.24C477.318 125.24 478.418 124.56 478.838 123.28H478.938C479.078 124.28 479.618 125 480.758 125H481.818ZM476.258 123.74C475.098 123.74 474.358 123.2 474.358 122.24V121.84C474.358 120.88 475.118 120.36 476.818 120.36H478.798V121.96C478.798 123 477.718 123.74 476.258 123.74ZM488.218 125.24C491.318 125.24 493.138 123.56 493.138 120.98C493.138 118.84 491.918 117.62 489.178 117.02L487.998 116.78C486.338 116.42 485.558 115.86 485.558 114.62C485.558 113.24 486.578 112.5 488.278 112.5C489.858 112.5 490.878 113.14 491.618 114.16L493.038 113.02C491.978 111.58 490.478 110.8 488.378 110.8C485.518 110.8 483.638 112.22 483.638 114.7C483.638 116.88 485.018 118.06 487.638 118.6L488.818 118.84C490.558 119.22 491.218 119.86 491.218 121.08C491.218 122.56 490.198 123.54 488.298 123.54C486.738 123.54 485.578 122.86 484.598 121.6L483.218 122.84C484.338 124.32 485.938 125.24 488.218 125.24Z" fill="#242A31"/>
<path d="M802.26 56H602.838C601.221 56 600.272 57.8201 601.199 59.1458L631.408 102.366C631.885 103.048 631.889 103.955 631.419 104.642L601.142 148.87C600.234 150.198 601.184 152 602.793 152H802.245C802.911 152 803.533 151.669 803.905 151.116L835.24 104.538C835.698 103.856 835.693 102.963 835.227 102.286L803.907 56.8647C803.533 56.3233 802.918 56 802.26 56Z" fill="#F5F7F9"/>
<path d="M663.98 99V97.36H662.04V86.68H663.98V85.04H658.16V86.68H660.1V97.36H658.16V99H663.98ZM668.645 99V91.9C668.645 90.64 669.825 90.02 671.045 90.02C672.505 90.02 673.225 90.92 673.225 92.66V99H675.085V92.38C675.085 89.86 673.785 88.4 671.665 88.4C670.105 88.4 669.225 89.2 668.745 90.34H668.645V88.64H666.785V99H668.645ZM681.429 99.24C683.869 99.24 685.389 97.98 685.389 95.96C685.389 94.36 684.449 93.36 682.169 93.02L681.289 92.88C680.089 92.7 679.489 92.32 679.489 91.4C679.489 90.52 680.129 89.94 681.389 89.94C682.629 89.94 683.509 90.52 684.009 91.18L685.189 90.06C684.309 89.02 683.209 88.4 681.449 88.4C679.269 88.4 677.689 89.48 677.689 91.52C677.689 93.44 679.069 94.26 681.049 94.54L681.929 94.68C683.189 94.86 683.589 95.4 683.589 96.16C683.589 97.12 682.869 97.7 681.549 97.7C680.289 97.7 679.329 97.14 678.549 96.16L677.289 97.24C678.249 98.46 679.509 99.24 681.429 99.24ZM688.994 86.48C689.774 86.48 690.114 86.06 690.114 85.46V85.18C690.114 84.58 689.774 84.16 688.994 84.16C688.214 84.16 687.874 84.58 687.874 85.18V85.46C687.874 86.06 688.214 86.48 688.994 86.48ZM688.054 99H689.914V88.64H688.054V99ZM699.751 99H701.611V84.2H699.751V90.34H699.671C699.191 89.06 698.111 88.4 696.691 88.4C694.091 88.4 692.531 90.46 692.531 93.82C692.531 97.18 694.091 99.24 696.691 99.24C698.111 99.24 699.191 98.58 699.671 97.3H699.751V99ZM697.231 97.62C695.571 97.62 694.511 96.44 694.511 94.7V92.94C694.511 91.2 695.571 90.02 697.231 90.02C698.631 90.02 699.751 90.82 699.751 91.92V95.72C699.751 96.82 698.631 97.62 697.231 97.62ZM708.85 99.24C710.79 99.24 712.29 98.34 713.01 97L711.81 95.98C711.25 97.04 710.31 97.66 709.01 97.66C707.15 97.66 706.09 96.42 706.09 94.7V94.28H713.39V93.5C713.39 90.6 711.75 88.4 708.85 88.4C705.97 88.4 704.15 90.54 704.15 93.82C704.15 97.1 705.97 99.24 708.85 99.24ZM708.85 89.9C710.41 89.9 711.41 91.06 711.41 92.78V92.98H706.09V92.84C706.09 91.14 707.23 89.9 708.85 89.9ZM662.82 125.24C665.92 125.24 667.74 123.56 667.74 120.98C667.74 118.84 666.52 117.62 663.78 117.02L662.6 116.78C660.94 116.42 660.16 115.86 660.16 114.62C660.16 113.24 661.18 112.5 662.88 112.5C664.46 112.5 665.48 113.14 666.22 114.16L667.64 113.02C666.58 111.58 665.08 110.8 662.98 110.8C660.12 110.8 658.24 112.22 658.24 114.7C658.24 116.88 659.62 118.06 662.24 118.6L663.42 118.84C665.16 119.22 665.82 119.86 665.82 121.08C665.82 122.56 664.8 123.54 662.9 123.54C661.34 123.54 660.18 122.86 659.2 121.6L657.82 122.84C658.94 124.32 660.54 125.24 662.82 125.24ZM678.998 125V123.42H677.838V117.96C677.838 115.72 676.358 114.4 673.778 114.4C671.858 114.4 670.638 115.3 670.018 116.42L671.138 117.44C671.678 116.56 672.458 115.96 673.678 115.96C675.238 115.96 675.978 116.74 675.978 118.12V119.06H674.018C671.058 119.06 669.598 120.14 669.598 122.14C669.598 124.04 670.858 125.24 673.018 125.24C674.498 125.24 675.598 124.56 676.018 123.28H676.118C676.258 124.28 676.798 125 677.938 125H678.998ZM673.438 123.74C672.278 123.74 671.538 123.2 671.538 122.24V121.84C671.538 120.88 672.298 120.36 673.998 120.36H675.978V121.96C675.978 123 674.898 123.74 673.438 123.74ZM684.558 125V123.42H683.078V110.2H681.218V123.1C681.218 124.24 681.878 125 683.158 125H684.558ZM690.745 125.24C692.685 125.24 694.185 124.34 694.905 123L693.705 121.98C693.145 123.04 692.205 123.66 690.905 123.66C689.045 123.66 687.985 122.42 687.985 120.7V120.28H695.285V119.5C695.285 116.6 693.645 114.4 690.745 114.4C687.865 114.4 686.045 116.54 686.045 119.82C686.045 123.1 687.865 125.24 690.745 125.24ZM690.745 115.9C692.305 115.9 693.305 117.06 693.305 118.78V118.98H687.985V118.84C687.985 117.14 689.125 115.9 690.745 115.9ZM701 125.24C703.44 125.24 704.96 123.98 704.96 121.96C704.96 120.36 704.02 119.36 701.74 119.02L700.86 118.88C699.66 118.7 699.06 118.32 699.06 117.4C699.06 116.52 699.7 115.94 700.96 115.94C702.2 115.94 703.08 116.52 703.58 117.18L704.76 116.06C703.88 115.02 702.78 114.4 701.02 114.4C698.84 114.4 697.26 115.48 697.26 117.52C697.26 119.44 698.64 120.26 700.62 120.54L701.5 120.68C702.76 120.86 703.16 121.4 703.16 122.16C703.16 123.12 702.44 123.7 701.12 123.7C699.86 123.7 698.9 123.14 698.12 122.16L696.86 123.24C697.82 124.46 699.08 125.24 701 125.24Z" fill="#242A31"/>
<path d="M1010 56H810.845C809.227 56 808.278 57.823 809.208 59.1484L839.515 102.364C839.995 103.047 839.999 103.956 839.527 104.644L809.151 148.868C808.24 150.195 809.19 152 810.8 152H1010C1011.1 152 1012 151.105 1012 150V103.407V58C1012 56.8954 1011.1 56 1010 56Z" fill="#F5F7F9"/>
<path d="M875.5 99V97.28H868.74V92.8H875V91.08H868.74V86.76H875.5V85.04H866.8V99H875.5ZM880.258 99V91.9C880.258 90.64 881.438 90.02 882.658 90.02C884.118 90.02 884.838 90.92 884.838 92.66V99H886.698V92.38C886.698 89.86 885.398 88.4 883.278 88.4C881.718 88.4 880.838 89.2 880.358 90.34H880.258V88.64H878.398V99H880.258ZM894.363 99V97.42H892.303V90.22H894.523V88.64H892.303V85.78H890.623V87.68C890.623 88.38 890.403 88.64 889.703 88.64H888.783V90.22H890.443V97.04C890.443 98.24 891.123 99 892.403 99H894.363ZM900.893 99.24C902.833 99.24 904.333 98.34 905.053 97L903.853 95.98C903.293 97.04 902.353 97.66 901.053 97.66C899.193 97.66 898.133 96.42 898.133 94.7V94.28H905.433V93.5C905.433 90.6 903.793 88.4 900.893 88.4C898.013 88.4 896.193 90.54 896.193 93.82C896.193 97.1 898.013 99.24 900.893 99.24ZM900.893 89.9C902.453 89.9 903.453 91.06 903.453 92.78V92.98H898.133V92.84C898.133 91.14 899.273 89.9 900.893 89.9ZM909.828 99V92.2C909.828 91.18 910.828 90.5 912.548 90.5H913.468V88.64H912.848C911.188 88.64 910.268 89.6 909.928 90.62H909.828V88.64H907.968V99H909.828ZM915.468 103H917.328V97.3H917.408C917.888 98.58 918.968 99.24 920.388 99.24C922.988 99.24 924.548 97.18 924.548 93.82C924.548 90.46 922.988 88.4 920.388 88.4C918.968 88.4 917.888 89.06 917.408 90.34H917.328V88.64H915.468V103ZM919.848 97.62C918.448 97.62 917.328 96.82 917.328 95.72V91.92C917.328 90.82 918.448 90.02 919.848 90.02C921.508 90.02 922.568 91.2 922.568 92.94V94.7C922.568 96.44 921.508 97.62 919.848 97.62ZM929.027 99V92.2C929.027 91.18 930.027 90.5 931.747 90.5H932.667V88.64H932.047C930.387 88.64 929.467 89.6 929.127 90.62H929.027V88.64H927.167V99H929.027ZM935.607 86.48C936.387 86.48 936.727 86.06 936.727 85.46V85.18C936.727 84.58 936.387 84.16 935.607 84.16C934.827 84.16 934.487 84.58 934.487 85.18V85.46C934.487 86.06 934.827 86.48 935.607 86.48ZM934.667 99H936.527V88.64H934.667V99ZM942.984 99.24C945.424 99.24 946.944 97.98 946.944 95.96C946.944 94.36 946.004 93.36 943.724 93.02L942.844 92.88C941.644 92.7 941.044 92.32 941.044 91.4C941.044 90.52 941.684 89.94 942.944 89.94C944.184 89.94 945.064 90.52 945.564 91.18L946.744 90.06C945.864 89.02 944.764 88.4 943.004 88.4C940.824 88.4 939.244 89.48 939.244 91.52C939.244 93.44 940.624 94.26 942.604 94.54L943.484 94.68C944.744 94.86 945.144 95.4 945.144 96.16C945.144 97.12 944.424 97.7 943.104 97.7C941.844 97.7 940.884 97.14 940.104 96.16L938.844 97.24C939.804 98.46 941.064 99.24 942.984 99.24ZM953.569 99.24C955.509 99.24 957.009 98.34 957.729 97L956.529 95.98C955.969 97.04 955.029 97.66 953.729 97.66C951.869 97.66 950.809 96.42 950.809 94.7V94.28H958.109V93.5C958.109 90.6 956.469 88.4 953.569 88.4C950.689 88.4 948.869 90.54 948.869 93.82C948.869 97.1 950.689 99.24 953.569 99.24ZM953.569 89.9C955.129 89.9 956.129 91.06 956.129 92.78V92.98H950.809V92.84C950.809 91.14 951.949 89.9 953.569 89.9ZM870.82 125.24C873.92 125.24 875.74 123.56 875.74 120.98C875.74 118.84 874.52 117.62 871.78 117.02L870.6 116.78C868.94 116.42 868.16 115.86 868.16 114.62C868.16 113.24 869.18 112.5 870.88 112.5C872.46 112.5 873.48 113.14 874.22 114.16L875.64 113.02C874.58 111.58 873.08 110.8 870.98 110.8C868.12 110.8 866.24 112.22 866.24 114.7C866.24 116.88 867.62 118.06 870.24 118.6L871.42 118.84C873.16 119.22 873.82 119.86 873.82 121.08C873.82 122.56 872.8 123.54 870.9 123.54C869.34 123.54 868.18 122.86 867.2 121.6L865.82 122.84C866.94 124.32 868.54 125.24 870.82 125.24ZM886.998 125V123.42H885.838V117.96C885.838 115.72 884.358 114.4 881.778 114.4C879.858 114.4 878.638 115.3 878.018 116.42L879.138 117.44C879.678 116.56 880.458 115.96 881.678 115.96C883.238 115.96 883.978 116.74 883.978 118.12V119.06H882.018C879.058 119.06 877.598 120.14 877.598 122.14C877.598 124.04 878.858 125.24 881.018 125.24C882.498 125.24 883.598 124.56 884.018 123.28H884.118C884.258 124.28 884.798 125 885.938 125H886.998ZM881.438 123.74C880.278 123.74 879.538 123.2 879.538 122.24V121.84C879.538 120.88 880.298 120.36 881.998 120.36H883.978V121.96C883.978 123 882.898 123.74 881.438 123.74ZM892.558 125V123.42H891.078V110.2H889.218V123.1C889.218 124.24 889.878 125 891.158 125H892.558ZM898.745 125.24C900.685 125.24 902.185 124.34 902.905 123L901.705 121.98C901.145 123.04 900.205 123.66 898.905 123.66C897.045 123.66 895.985 122.42 895.985 120.7V120.28H903.285V119.5C903.285 116.6 901.645 114.4 898.745 114.4C895.865 114.4 894.045 116.54 894.045 119.82C894.045 123.1 895.865 125.24 898.745 125.24ZM898.745 115.9C900.305 115.9 901.305 117.06 901.305 118.78V118.98H895.985V118.84C895.985 117.14 897.125 115.9 898.745 115.9ZM909 125.24C911.44 125.24 912.96 123.98 912.96 121.96C912.96 120.36 912.02 119.36 909.74 119.02L908.86 118.88C907.66 118.7 907.06 118.32 907.06 117.4C907.06 116.52 907.7 115.94 908.96 115.94C910.2 115.94 911.08 116.52 911.58 117.18L912.76 116.06C911.88 115.02 910.78 114.4 909.02 114.4C906.84 114.4 905.26 115.48 905.26 117.52C905.26 119.44 906.64 120.26 908.62 120.54L909.5 120.68C910.76 120.86 911.16 121.4 911.16 122.16C911.16 123.12 910.44 123.7 909.12 123.7C907.86 123.7 906.9 123.14 906.12 122.16L904.86 123.24C905.82 124.46 907.08 125.24 909 125.24Z" fill="#242A31"/>
<g clip-path="url(#clip0)">
<path d="M231.429 37.7781L230.367 38.3629C224.466 28.3044 215.97 19.8834 205.821 14.2694C200.865 11.3454 195.437 9.24012 189.89 7.83661C184.344 6.4331 178.68 5.73135 173.015 5.8483C167.351 5.96526 161.687 6.78398 156.259 8.4214C150.83 9.94187 145.638 12.398 140.918 15.322C136.079 18.246 131.713 21.8717 127.937 25.9653C126.993 27.0179 126.167 28.0705 125.223 29.1232C124.397 30.1758 123.689 31.1115 122.863 32.1641L129.471 35.9068L114.13 40.0004L110 24.7957L116.844 28.7723C116.844 28.7723 116.962 28.6553 116.962 28.5384C117.906 27.2518 118.85 26.0822 119.795 24.7957C120.857 23.6261 121.801 22.4565 122.863 21.2869C127.111 16.7255 132.067 12.7489 137.377 9.59099C147.998 3.15825 160.625 -0.233566 173.015 0.000351997C179.27 0.117311 185.406 1.05298 191.306 2.92433C197.207 4.67871 202.871 7.36877 207.945 10.6436C218.212 17.3103 226.472 26.784 231.429 37.7781Z" fill="url(#paint0_radial)"/>
</g>
<g clip-path="url(#clip1)">
<path d="M441.429 37.7781L440.367 38.3629C434.466 28.3044 425.97 19.8834 415.821 14.2694C410.865 11.3454 405.437 9.24012 399.89 7.83661C394.344 6.4331 388.68 5.73135 383.015 5.8483C377.351 5.96526 371.687 6.78398 366.259 8.4214C360.83 9.94187 355.638 12.398 350.918 15.322C346.079 18.246 341.713 21.8717 337.937 25.9653C336.993 27.0179 336.167 28.0705 335.223 29.1232C334.397 30.1758 333.689 31.1115 332.863 32.1641L339.471 35.9068L324.13 40.0004L320 24.7957L326.844 28.7723C326.844 28.7723 326.962 28.6553 326.962 28.5384C327.906 27.2518 328.85 26.0822 329.795 24.7957C330.857 23.6261 331.801 22.4565 332.863 21.2869C337.111 16.7255 342.067 12.7489 347.377 9.59099C357.998 3.15825 370.625 -0.233566 383.015 0.000351997C389.27 0.117311 395.406 1.05298 401.306 2.92433C407.207 4.67871 412.871 7.36877 417.945 10.6436C428.212 17.3103 436.472 26.784 441.429 37.7781Z" fill="url(#paint1_radial)"/>
</g>
<g clip-path="url(#clip2)">
<path d="M651.429 37.7781L650.367 38.3629C644.466 28.3044 635.97 19.8834 625.821 14.2694C620.865 11.3454 615.437 9.24012 609.89 7.83661C604.344 6.4331 598.68 5.73135 593.015 5.8483C587.351 5.96526 581.687 6.78398 576.259 8.4214C570.83 9.94187 565.638 12.398 560.918 15.322C556.079 18.246 551.713 21.8717 547.937 25.9653C546.993 27.0179 546.167 28.0705 545.223 29.1232C544.397 30.1758 543.689 31.1115 542.863 32.1641L549.471 35.9068L534.13 40.0004L530 24.7957L536.844 28.7723C536.844 28.7723 536.962 28.6553 536.962 28.5384C537.906 27.2518 538.85 26.0822 539.795 24.7957C540.857 23.6261 541.801 22.4565 542.863 21.2869C547.111 16.7255 552.067 12.7489 557.377 9.59099C567.998 3.15825 580.625 -0.233566 593.015 0.000351997C599.27 0.117311 605.406 1.05298 611.306 2.92433C617.207 4.67871 622.871 7.36877 627.945 10.6436C638.212 17.3103 646.472 26.784 651.429 37.7781Z" fill="url(#paint2_radial)"/>
</g>
<g clip-path="url(#clip3)">
<path d="M861.429 37.7781L860.367 38.3629C854.466 28.3044 845.97 19.8834 835.821 14.2694C830.865 11.3454 825.437 9.24012 819.89 7.83661C814.344 6.4331 808.68 5.73135 803.015 5.8483C797.351 5.96526 791.687 6.78398 786.259 8.4214C780.83 9.94187 775.638 12.398 770.918 15.322C766.079 18.246 761.713 21.8717 757.937 25.9653C756.993 27.0179 756.167 28.0705 755.223 29.1232C754.397 30.1758 753.689 31.1115 752.863 32.1641L759.471 35.9068L744.13 40.0004L740 24.7957L746.844 28.7723C746.844 28.7723 746.962 28.6553 746.962 28.5384C747.906 27.2518 748.85 26.0822 749.795 24.7957C750.857 23.6261 751.801 22.4565 752.863 21.2869C757.111 16.7255 762.067 12.7489 767.377 9.59099C777.998 3.15825 790.625 -0.233566 803.015 0.000351997C809.27 0.117311 815.406 1.05298 821.306 2.92433C827.207 4.67871 832.871 7.36877 837.945 10.6436C848.212 17.3103 856.472 26.784 861.429 37.7781Z" fill="url(#paint3_radial)"/>
</g>
<defs>
<radialGradient id="paint0_radial" cx="0" cy="0" r="1" gradientUnits="userSpaceOnUse" gradientTransform="translate(117.67 33.9184) scale(145.738 434.477)">
<stop stop-color="#30CEFE"/>
<stop offset="1" stop-color="white" stop-opacity="0"/>
</radialGradient>
<radialGradient id="paint1_radial" cx="0" cy="0" r="1" gradientUnits="userSpaceOnUse" gradientTransform="translate(327.67 33.9184) scale(145.738 434.477)">
<stop stop-color="#30CEFE"/>
<stop offset="1" stop-color="white" stop-opacity="0"/>
</radialGradient>
<radialGradient id="paint2_radial" cx="0" cy="0" r="1" gradientUnits="userSpaceOnUse" gradientTransform="translate(537.67 33.9184) scale(145.738 434.477)">
<stop stop-color="#30CEFE"/>
<stop offset="1" stop-color="white" stop-opacity="0"/>
</radialGradient>
<radialGradient id="paint3_radial" cx="0" cy="0" r="1" gradientUnits="userSpaceOnUse" gradientTransform="translate(747.67 33.9184) scale(145.738 434.477)">
<stop stop-color="#30CEFE"/>
<stop offset="1" stop-color="white" stop-opacity="0"/>
</radialGradient>
<clipPath id="clip0">
<rect width="121.429" height="40" fill="white" transform="translate(110)"/>
</clipPath>
<clipPath id="clip1">
<rect width="121.429" height="40" fill="white" transform="translate(320)"/>
</clipPath>
<clipPath id="clip2">
<rect width="121.429" height="40" fill="white" transform="translate(530)"/>
</clipPath>
<clipPath id="clip3">
<rect width="121.429" height="40" fill="white" transform="translate(740)"/>
</clipPath>
</defs>
</svg>
