<svg width="1012" height="140" viewBox="0 0 1012 140" fill="none" xmlns="http://www.w3.org/2000/svg">
<path d="M965.584 21.9999V20.6879H964.032V12.1439H965.584V10.8319H960.928V12.1439H962.48V20.6879H960.928V21.9999H965.584Z" fill="#3C454E"/>
<path d="M969.508 21.9999V17.3919H972.564C974.58 17.3919 975.732 16.0959 975.732 14.1119C975.732 12.1279 974.58 10.8319 972.564 10.8319H967.956V21.9999H969.508ZM969.508 12.2079H972.5C973.492 12.2079 974.084 12.7519 974.084 13.7119V14.5119C974.084 15.4719 973.492 16.0159 972.5 16.0159H969.508V12.2079Z" fill="#3C454E"/>
<path d="M982.039 22.1919C984.935 22.1919 986.807 20.1759 986.807 16.4159C986.807 12.6559 984.935 10.6399 982.039 10.6399C979.143 10.6399 977.271 12.6559 977.271 16.4159C977.271 20.1759 979.143 22.1919 982.039 22.1919ZM982.039 20.7999C980.183 20.7999 978.935 19.4559 978.935 17.3279V15.5039C978.935 13.3759 980.183 12.0319 982.039 12.0319C983.895 12.0319 985.143 13.3759 985.143 15.5039V17.3279C985.143 19.4559 983.895 20.7999 982.039 20.7999Z" fill="#3C454E"/>
<path d="M952 16.5C952 21.7467 947.747 26 942.5 26C937.253 26 933 21.7467 933 16.5C933 11.2533 937.253 7 942.5 7C947.747 7 952 11.2533 952 16.5Z" fill="white"/>
<path fill-rule="evenodd" clip-rule="evenodd" d="M953 16.5C953 22.299 948.299 27 942.5 27C936.701 27 932 22.299 932 16.5C932 10.701 936.701 6 942.5 6C948.299 6 953 10.701 953 16.5ZM942.5 26C947.747 26 952 21.7467 952 16.5C952 11.2533 947.747 7 942.5 7C937.253 7 933 11.2533 933 16.5C933 21.7467 937.253 26 942.5 26Z" fill="#F5F7F9"/>
<path d="M947 16.5C947 18.9853 944.985 21 942.5 21C940.015 21 938 18.9853 938 16.5C938 14.0147 940.015 12 942.5 12C944.985 12 947 14.0147 947 16.5Z" fill="url(#paint0_linear)"/>
<path d="M934 42H988V44H934V42Z" fill="#30CEFE"/>
<path d="M178.178 44H2C0.89543 44 0 44.8954 0 46V138C0 139.105 0.895426 140 2 140H178.164C178.828 140 179.45 139.67 179.822 139.118L211.236 92.5396C211.697 91.8568 211.692 90.9615 211.223 90.284L179.823 44.8627C179.45 44.3225 178.835 44 178.178 44Z" fill="#F5F7F9"/>
<path d="M26.8 87H31.58C35.12 87 37.4 84.68 37.4 80.02C37.4 75.36 35.12 73.04 31.58 73.04H26.8V87ZM28.74 85.28V74.76H31.58C33.8 74.76 35.32 76.24 35.32 78.9V81.14C35.32 83.8 33.8 85.28 31.58 85.28H28.74ZM44.1156 87.24C46.0556 87.24 47.5556 86.34 48.2756 85L47.0756 83.98C46.5156 85.04 45.5756 85.66 44.2756 85.66C42.4156 85.66 41.3556 84.42 41.3556 82.7V82.28H48.6556V81.5C48.6556 78.6 47.0156 76.4 44.1156 76.4C41.2356 76.4 39.4156 78.54 39.4156 81.82C39.4156 85.1 41.2356 87.24 44.1156 87.24ZM44.1156 77.9C45.6756 77.9 46.6756 79.06 46.6756 80.78V80.98H41.3556V80.84C41.3556 79.14 42.4956 77.9 44.1156 77.9ZM55.4745 87L59.0745 76.64H57.2945L55.5745 81.6L54.4745 85.18H54.3545L53.2745 81.6L51.5745 76.64H49.7145L53.2945 87H55.4745ZM64.8383 87.24C66.7783 87.24 68.2783 86.34 68.9983 85L67.7983 83.98C67.2383 85.04 66.2983 85.66 64.9983 85.66C63.1383 85.66 62.0783 84.42 62.0783 82.7V82.28H69.3783V81.5C69.3783 78.6 67.7383 76.4 64.8383 76.4C61.9583 76.4 60.1383 78.54 60.1383 81.82C60.1383 85.1 61.9583 87.24 64.8383 87.24ZM64.8383 77.9C66.3983 77.9 67.3983 79.06 67.3983 80.78V80.98H62.0783V80.84C62.0783 79.14 63.2183 77.9 64.8383 77.9ZM75.2534 87V85.42H73.7734V72.2H71.9134V85.1C71.9134 86.24 72.5734 87 73.8534 87H75.2534ZM81.4598 87.24C84.2798 87.24 86.1798 85.12 86.1798 81.82C86.1798 78.52 84.2798 76.4 81.4598 76.4C78.6398 76.4 76.7398 78.52 76.7398 81.82C76.7398 85.12 78.6398 87.24 81.4598 87.24ZM81.4598 85.64C79.8398 85.64 78.7198 84.62 78.7198 82.6V81.04C78.7198 79.02 79.8398 78 81.4598 78C83.0798 78 84.1998 79.02 84.1998 81.04V82.6C84.1998 84.62 83.0798 85.64 81.4598 85.64ZM88.7103 91H90.5703V85.3H90.6503C91.1303 86.58 92.2103 87.24 93.6303 87.24C96.2303 87.24 97.7903 85.18 97.7903 81.82C97.7903 78.46 96.2303 76.4 93.6303 76.4C92.2103 76.4 91.1303 77.06 90.6503 78.34H90.5703V76.64H88.7103V91ZM93.0903 85.62C91.6903 85.62 90.5703 84.82 90.5703 83.72V79.92C90.5703 78.82 91.6903 78.02 93.0903 78.02C94.7503 78.02 95.8103 79.2 95.8103 80.94V82.7C95.8103 84.44 94.7503 85.62 93.0903 85.62ZM104.37 87.24C106.31 87.24 107.81 86.34 108.53 85L107.33 83.98C106.77 85.04 105.83 85.66 104.53 85.66C102.67 85.66 101.61 84.42 101.61 82.7V82.28H108.91V81.5C108.91 78.6 107.27 76.4 104.37 76.4C101.49 76.4 99.6695 78.54 99.6695 81.82C99.6695 85.1 101.49 87.24 104.37 87.24ZM104.37 77.9C105.93 77.9 106.93 79.06 106.93 80.78V80.98H101.61V80.84C101.61 79.14 102.75 77.9 104.37 77.9ZM113.305 87V80.2C113.305 79.18 114.305 78.5 116.025 78.5H116.945V76.64H116.325C114.665 76.64 113.745 77.6 113.405 78.62H113.305V76.64H111.445V87H113.305ZM37.54 113L32.72 99.04H30.28L25.44 113H27.4L28.74 109.06H34.18L35.5 113H37.54ZM33.7 107.34H29.2L31.4 100.82H31.5L33.7 107.34ZM41.1139 113H43.2739L44.6739 108.14L45.5339 105.1H45.5739L46.4539 108.14L47.8539 113H50.0539L52.8139 102.64H51.0739L49.9739 107.06L48.9939 111.32H48.9339L47.7339 107.06L46.4139 102.64H44.7539L43.4739 107.06L42.2939 111.32H42.2539L41.2139 107.06L40.1339 102.64H38.3339L41.1139 113ZM63.4431 113V111.42H62.2831V105.96C62.2831 103.72 60.8031 102.4 58.2231 102.4C56.3031 102.4 55.0831 103.3 54.4631 104.42L55.5831 105.44C56.1231 104.56 56.9031 103.96 58.1231 103.96C59.6831 103.96 60.4231 104.74 60.4231 106.12V107.06H58.4631C55.5031 107.06 54.0431 108.14 54.0431 110.14C54.0431 112.04 55.3031 113.24 57.4631 113.24C58.9431 113.24 60.0431 112.56 60.4631 111.28H60.5631C60.7031 112.28 61.2431 113 62.3831 113H63.4431ZM57.8831 111.74C56.7231 111.74 55.9831 111.2 55.9831 110.24V109.84C55.9831 108.88 56.7431 108.36 58.4431 108.36H60.4231V109.96C60.4231 111 59.3431 111.74 57.8831 111.74ZM67.5234 113V106.2C67.5234 105.18 68.5234 104.5 70.2434 104.5H71.1634V102.64H70.5434C68.8834 102.64 67.9634 103.6 67.6234 104.62H67.5234V102.64H65.6634V113H67.5234ZM77.0258 113.24C78.9658 113.24 80.4658 112.34 81.1858 111L79.9858 109.98C79.4258 111.04 78.4858 111.66 77.1858 111.66C75.3258 111.66 74.2658 110.42 74.2658 108.7V108.28H81.5658V107.5C81.5658 104.6 79.9258 102.4 77.0258 102.4C74.1458 102.4 72.3258 104.54 72.3258 107.82C72.3258 111.1 74.1458 113.24 77.0258 113.24ZM77.0258 103.9C78.5858 103.9 79.5858 105.06 79.5858 106.78V106.98H74.2658V106.84C74.2658 105.14 75.4058 103.9 77.0258 103.9ZM85.9609 113V105.9C85.9609 104.64 87.1409 104.02 88.3609 104.02C89.8209 104.02 90.5409 104.92 90.5409 106.66V113H92.4009V106.38C92.4009 103.86 91.1009 102.4 88.9809 102.4C87.4209 102.4 86.5409 103.2 86.0609 104.34H85.9609V102.64H84.1009V113H85.9609ZM99.5258 113.24C101.466 113.24 102.966 112.34 103.686 111L102.486 109.98C101.926 111.04 100.986 111.66 99.6858 111.66C97.8258 111.66 96.7658 110.42 96.7658 108.7V108.28H104.066V107.5C104.066 104.6 102.426 102.4 99.5258 102.4C96.6458 102.4 94.8258 104.54 94.8258 107.82C94.8258 111.1 96.6458 113.24 99.5258 113.24ZM99.5258 103.9C101.086 103.9 102.086 105.06 102.086 106.78V106.98H96.7658V106.84C96.7658 105.14 97.9058 103.9 99.5258 103.9ZM109.781 113.24C112.221 113.24 113.741 111.98 113.741 109.96C113.741 108.36 112.801 107.36 110.521 107.02L109.641 106.88C108.441 106.7 107.841 106.32 107.841 105.4C107.841 104.52 108.481 103.94 109.741 103.94C110.981 103.94 111.861 104.52 112.361 105.18L113.541 104.06C112.661 103.02 111.561 102.4 109.801 102.4C107.621 102.4 106.041 103.48 106.041 105.52C106.041 107.44 107.421 108.26 109.401 108.54L110.281 108.68C111.541 108.86 111.941 109.4 111.941 110.16C111.941 111.12 111.221 111.7 109.901 111.7C108.641 111.7 107.681 111.14 106.901 110.16L105.641 111.24C106.601 112.46 107.861 113.24 109.781 113.24ZM119.468 113.24C121.908 113.24 123.428 111.98 123.428 109.96C123.428 108.36 122.488 107.36 120.208 107.02L119.328 106.88C118.128 106.7 117.528 106.32 117.528 105.4C117.528 104.52 118.168 103.94 119.428 103.94C120.668 103.94 121.548 104.52 122.048 105.18L123.228 104.06C122.348 103.02 121.248 102.4 119.488 102.4C117.308 102.4 115.728 103.48 115.728 105.52C115.728 107.44 117.108 108.26 119.088 108.54L119.968 108.68C121.228 108.86 121.628 109.4 121.628 110.16C121.628 111.12 120.908 111.7 119.588 111.7C118.328 111.7 117.368 111.14 116.588 110.16L115.328 111.24C116.288 112.46 117.548 113.24 119.468 113.24Z" fill="#242A31"/>
<path d="M386.125 44H185.847C184.228 44 183.28 45.8237 184.21 47.149L214.542 90.3629C215.022 91.0466 215.027 91.9565 214.553 92.6449L184.154 136.867C183.241 138.194 184.192 140 185.802 140H386.11C386.774 140 387.395 139.67 387.767 139.12L419.234 92.5409C419.696 91.8575 419.691 90.9608 419.221 90.2828L387.769 44.8614C387.395 44.3219 386.781 44 386.125 44Z" fill="#F5F7F9"/>
<path d="M248.08 87.24C251.7 87.24 254.04 84.72 254.04 80.02C254.04 75.32 251.7 72.8 248.08 72.8C244.46 72.8 242.12 75.32 242.12 80.02C242.12 84.72 244.46 87.24 248.08 87.24ZM248.08 85.5C245.76 85.5 244.2 83.82 244.2 81.16V78.88C244.2 76.22 245.76 74.54 248.08 74.54C250.4 74.54 251.96 76.22 251.96 78.88V81.16C251.96 83.82 250.4 85.5 248.08 85.5ZM260.961 87.24C264.061 87.24 265.881 85.56 265.881 82.98C265.881 80.84 264.661 79.62 261.921 79.02L260.741 78.78C259.081 78.42 258.301 77.86 258.301 76.62C258.301 75.24 259.321 74.5 261.021 74.5C262.601 74.5 263.621 75.14 264.361 76.16L265.781 75.02C264.721 73.58 263.221 72.8 261.121 72.8C258.261 72.8 256.381 74.22 256.381 76.7C256.381 78.88 257.761 80.06 260.381 80.6L261.561 80.84C263.301 81.22 263.961 81.86 263.961 83.08C263.961 84.56 262.941 85.54 261.041 85.54C259.481 85.54 258.321 84.86 257.341 83.6L255.961 84.84C257.081 86.32 258.681 87.24 260.961 87.24ZM272.504 87.24C275.604 87.24 277.424 85.56 277.424 82.98C277.424 80.84 276.204 79.62 273.464 79.02L272.284 78.78C270.624 78.42 269.844 77.86 269.844 76.62C269.844 75.24 270.864 74.5 272.564 74.5C274.144 74.5 275.164 75.14 275.904 76.16L277.324 75.02C276.264 73.58 274.764 72.8 272.664 72.8C269.804 72.8 267.924 74.22 267.924 76.7C267.924 78.88 269.304 80.06 271.924 80.6L273.104 80.84C274.844 81.22 275.504 81.86 275.504 83.08C275.504 84.56 274.484 85.54 272.584 85.54C271.024 85.54 269.864 84.86 268.884 83.6L267.504 84.84C268.624 86.32 270.224 87.24 272.504 87.24ZM247.86 113.24C250.22 113.24 251.92 112.02 252.82 110.02L251.26 109.08C250.74 110.52 249.58 111.5 247.86 111.5C245.58 111.5 244.2 109.8 244.2 107.08V104.96C244.2 102.24 245.58 100.54 247.86 100.54C249.54 100.54 250.62 101.44 251.14 102.82L252.74 101.9C251.84 99.9 250.22 98.8 247.86 98.8C244.3 98.8 242.12 101.36 242.12 106.02C242.12 110.68 244.3 113.24 247.86 113.24ZM259.159 113.24C261.979 113.24 263.879 111.12 263.879 107.82C263.879 104.52 261.979 102.4 259.159 102.4C256.339 102.4 254.439 104.52 254.439 107.82C254.439 111.12 256.339 113.24 259.159 113.24ZM259.159 111.64C257.539 111.64 256.419 110.62 256.419 108.6V107.04C256.419 105.02 257.539 104 259.159 104C260.779 104 261.899 105.02 261.899 107.04V108.6C261.899 110.62 260.779 111.64 259.159 111.64ZM268.27 113V105.9C268.27 104.64 269.41 104.02 270.59 104.02C272.01 104.02 272.67 104.92 272.67 106.66V113H274.53V105.9C274.53 104.64 275.63 104.02 276.83 104.02C278.27 104.02 278.93 104.92 278.93 106.66V113H280.79V106.38C280.79 103.86 279.55 102.4 277.47 102.4C275.73 102.4 274.69 103.38 274.31 104.5H274.27C273.73 103.04 272.51 102.4 271.13 102.4C269.75 102.4 268.81 103.28 268.37 104.34H268.27V102.64H266.41V113H268.27ZM285.809 113V105.9C285.809 104.64 286.949 104.02 288.129 104.02C289.549 104.02 290.209 104.92 290.209 106.66V113H292.069V105.9C292.069 104.64 293.169 104.02 294.369 104.02C295.809 104.02 296.469 104.92 296.469 106.66V113H298.329V106.38C298.329 103.86 297.089 102.4 295.009 102.4C293.269 102.4 292.229 103.38 291.849 104.5H291.809C291.269 103.04 290.049 102.4 288.669 102.4C287.289 102.4 286.349 103.28 285.909 104.34H285.809V102.64H283.949V113H285.809ZM307.828 113H309.688V102.64H307.828V109.72C307.828 111.02 306.628 111.62 305.448 111.62C303.988 111.62 303.248 110.72 303.248 108.98V102.64H301.388V109.26C301.388 111.78 302.708 113.24 304.828 113.24C306.548 113.24 307.348 112.3 307.728 111.3H307.828V113ZM314.832 113V105.9C314.832 104.64 316.012 104.02 317.232 104.02C318.692 104.02 319.412 104.92 319.412 106.66V113H321.272V106.38C321.272 103.86 319.972 102.4 317.852 102.4C316.292 102.4 315.412 103.2 314.932 104.34H314.832V102.64H312.972V113H314.832ZM325.377 100.48C326.157 100.48 326.497 100.06 326.497 99.46V99.18C326.497 98.58 326.157 98.16 325.377 98.16C324.597 98.16 324.257 98.58 324.257 99.18V99.46C324.257 100.06 324.597 100.48 325.377 100.48ZM324.437 113H326.297V102.64H324.437V113ZM334.074 113V111.42H332.014V104.22H334.234V102.64H332.014V99.78H330.334V101.68C330.334 102.38 330.114 102.64 329.414 102.64H328.494V104.22H330.154V111.04C330.154 112.24 330.834 113 332.114 113H334.074ZM340.782 109.26L340.182 111.2H340.082L339.542 109.26L337.242 102.64H335.382L339.222 113.42L338.522 115.42H336.822V117H337.842C339.422 117 339.922 116.56 340.402 115.26L344.902 102.64H343.102L340.782 109.26Z" fill="#242A31"/>
<path d="M594.26 44H394.838C393.221 44 392.272 45.8201 393.199 47.1458L423.408 90.3661C423.885 91.0484 423.889 91.9547 423.419 92.6416L393.142 136.87C392.234 138.198 393.184 140 394.793 140H594.245C594.911 140 595.533 139.669 595.905 139.116L627.24 92.5377C627.698 91.8557 627.693 90.9626 627.227 90.286L595.907 44.8647C595.533 44.3233 594.918 44 594.26 44Z" fill="#F5F7F9"/>
<path d="M454.82 87.24C457.92 87.24 459.74 85.56 459.74 82.98C459.74 80.84 458.52 79.62 455.78 79.02L454.6 78.78C452.94 78.42 452.16 77.86 452.16 76.62C452.16 75.24 453.18 74.5 454.88 74.5C456.46 74.5 457.48 75.14 458.22 76.16L459.64 75.02C458.58 73.58 457.08 72.8 454.98 72.8C452.12 72.8 450.24 74.22 450.24 76.7C450.24 78.88 451.62 80.06 454.24 80.6L455.42 80.84C457.16 81.22 457.82 81.86 457.82 83.08C457.82 84.56 456.8 85.54 454.9 85.54C453.34 85.54 452.18 84.86 451.2 83.6L449.82 84.84C450.94 86.32 452.54 87.24 454.82 87.24ZM466.358 87.24C468.298 87.24 469.798 86.34 470.518 85L469.318 83.98C468.758 85.04 467.818 85.66 466.518 85.66C464.658 85.66 463.598 84.42 463.598 82.7V82.28H470.898V81.5C470.898 78.6 469.258 76.4 466.358 76.4C463.478 76.4 461.658 78.54 461.658 81.82C461.658 85.1 463.478 87.24 466.358 87.24ZM466.358 77.9C467.918 77.9 468.918 79.06 468.918 80.78V80.98H463.598V80.84C463.598 79.14 464.738 77.9 466.358 77.9ZM476.773 87V85.42H475.293V72.2H473.433V85.1C473.433 86.24 474.093 87 475.373 87H476.773ZM479.559 87H481.419V78.22H483.599V76.64H481.419V73.78H483.599V72.2H481.979C480.359 72.2 479.559 73.2 479.559 74.72V76.64H477.899V78.22H479.559V87ZM490.66 81.88V79.94H485.3V81.88H490.66ZM497.418 87.24C500.518 87.24 502.338 85.56 502.338 82.98C502.338 80.84 501.118 79.62 498.378 79.02L497.198 78.78C495.538 78.42 494.758 77.86 494.758 76.62C494.758 75.24 495.778 74.5 497.478 74.5C499.058 74.5 500.078 75.14 500.818 76.16L502.238 75.02C501.178 73.58 499.678 72.8 497.578 72.8C494.718 72.8 492.838 74.22 492.838 76.7C492.838 78.88 494.218 80.06 496.838 80.6L498.018 80.84C499.758 81.22 500.418 81.86 500.418 83.08C500.418 84.56 499.398 85.54 497.498 85.54C495.938 85.54 494.778 84.86 493.798 83.6L492.418 84.84C493.538 86.32 495.138 87.24 497.418 87.24ZM508.955 87.24C510.895 87.24 512.395 86.34 513.115 85L511.915 83.98C511.355 85.04 510.415 85.66 509.115 85.66C507.255 85.66 506.195 84.42 506.195 82.7V82.28H513.495V81.5C513.495 78.6 511.855 76.4 508.955 76.4C506.075 76.4 504.255 78.54 504.255 81.82C504.255 85.1 506.075 87.24 508.955 87.24ZM508.955 77.9C510.515 77.9 511.515 79.06 511.515 80.78V80.98H506.195V80.84C506.195 79.14 507.335 77.9 508.955 77.9ZM517.891 87V80.2C517.891 79.18 518.891 78.5 520.611 78.5H521.531V76.64H520.911C519.251 76.64 518.331 77.6 517.991 78.62H517.891V76.64H516.031V87H517.891ZM528.146 87L531.746 76.64H529.966L528.246 81.6L527.146 85.18H527.026L525.946 81.6L524.246 76.64H522.386L525.966 87H528.146ZM537.51 87.24C539.45 87.24 540.95 86.34 541.67 85L540.47 83.98C539.91 85.04 538.97 85.66 537.67 85.66C535.81 85.66 534.75 84.42 534.75 82.7V82.28H542.05V81.5C542.05 78.6 540.41 76.4 537.51 76.4C534.63 76.4 532.81 78.54 532.81 81.82C532.81 85.1 534.63 87.24 537.51 87.24ZM537.51 77.9C539.07 77.9 540.07 79.06 540.07 80.78V80.98H534.75V80.84C534.75 79.14 535.89 77.9 537.51 77.9ZM454.82 113.24C457.92 113.24 459.74 111.56 459.74 108.98C459.74 106.84 458.52 105.62 455.78 105.02L454.6 104.78C452.94 104.42 452.16 103.86 452.16 102.62C452.16 101.24 453.18 100.5 454.88 100.5C456.46 100.5 457.48 101.14 458.22 102.16L459.64 101.02C458.58 99.58 457.08 98.8 454.98 98.8C452.12 98.8 450.24 100.22 450.24 102.7C450.24 104.88 451.62 106.06 454.24 106.6L455.42 106.84C457.16 107.22 457.82 107.86 457.82 109.08C457.82 110.56 456.8 111.54 454.9 111.54C453.34 111.54 452.18 110.86 451.2 109.6L449.82 110.84C450.94 112.32 452.54 113.24 454.82 113.24ZM470.998 113V111.42H469.838V105.96C469.838 103.72 468.358 102.4 465.778 102.4C463.858 102.4 462.638 103.3 462.018 104.42L463.138 105.44C463.678 104.56 464.458 103.96 465.678 103.96C467.238 103.96 467.978 104.74 467.978 106.12V107.06H466.018C463.058 107.06 461.598 108.14 461.598 110.14C461.598 112.04 462.858 113.24 465.018 113.24C466.498 113.24 467.598 112.56 468.018 111.28H468.118C468.258 112.28 468.798 113 469.938 113H470.998ZM465.438 111.74C464.278 111.74 463.538 111.2 463.538 110.24V109.84C463.538 108.88 464.298 108.36 465.998 108.36H467.978V109.96C467.978 111 466.898 111.74 465.438 111.74ZM481.818 113V111.42H480.658V105.96C480.658 103.72 479.178 102.4 476.598 102.4C474.678 102.4 473.458 103.3 472.838 104.42L473.958 105.44C474.498 104.56 475.278 103.96 476.498 103.96C478.058 103.96 478.798 104.74 478.798 106.12V107.06H476.838C473.878 107.06 472.418 108.14 472.418 110.14C472.418 112.04 473.678 113.24 475.838 113.24C477.318 113.24 478.418 112.56 478.838 111.28H478.938C479.078 112.28 479.618 113 480.758 113H481.818ZM476.258 111.74C475.098 111.74 474.358 111.2 474.358 110.24V109.84C474.358 108.88 475.118 108.36 476.818 108.36H478.798V109.96C478.798 111 477.718 111.74 476.258 111.74ZM488.218 113.24C491.318 113.24 493.138 111.56 493.138 108.98C493.138 106.84 491.918 105.62 489.178 105.02L487.998 104.78C486.338 104.42 485.558 103.86 485.558 102.62C485.558 101.24 486.578 100.5 488.278 100.5C489.858 100.5 490.878 101.14 491.618 102.16L493.038 101.02C491.978 99.58 490.478 98.8 488.378 98.8C485.518 98.8 483.638 100.22 483.638 102.7C483.638 104.88 485.018 106.06 487.638 106.6L488.818 106.84C490.558 107.22 491.218 107.86 491.218 109.08C491.218 110.56 490.198 111.54 488.298 111.54C486.738 111.54 485.578 110.86 484.598 109.6L483.218 110.84C484.338 112.32 485.938 113.24 488.218 113.24Z" fill="#242A31"/>
<path d="M802.26 44H602.838C601.221 44 600.272 45.8201 601.199 47.1458L631.408 90.3661C631.885 91.0484 631.889 91.9547 631.419 92.6416L601.142 136.87C600.234 138.198 601.184 140 602.793 140H802.245C802.911 140 803.533 139.669 803.905 139.116L835.24 92.5377C835.698 91.8557 835.693 90.9626 835.227 90.286L803.907 44.8647C803.533 44.3233 802.918 44 802.26 44Z" fill="#F5F7F9"/>
<path d="M663.98 87V85.36H662.04V74.68H663.98V73.04H658.16V74.68H660.1V85.36H658.16V87H663.98ZM668.645 87V79.9C668.645 78.64 669.825 78.02 671.045 78.02C672.505 78.02 673.225 78.92 673.225 80.66V87H675.085V80.38C675.085 77.86 673.785 76.4 671.665 76.4C670.105 76.4 669.225 77.2 668.745 78.34H668.645V76.64H666.785V87H668.645ZM681.429 87.24C683.869 87.24 685.389 85.98 685.389 83.96C685.389 82.36 684.449 81.36 682.169 81.02L681.289 80.88C680.089 80.7 679.489 80.32 679.489 79.4C679.489 78.52 680.129 77.94 681.389 77.94C682.629 77.94 683.509 78.52 684.009 79.18L685.189 78.06C684.309 77.02 683.209 76.4 681.449 76.4C679.269 76.4 677.689 77.48 677.689 79.52C677.689 81.44 679.069 82.26 681.049 82.54L681.929 82.68C683.189 82.86 683.589 83.4 683.589 84.16C683.589 85.12 682.869 85.7 681.549 85.7C680.289 85.7 679.329 85.14 678.549 84.16L677.289 85.24C678.249 86.46 679.509 87.24 681.429 87.24ZM688.994 74.48C689.774 74.48 690.114 74.06 690.114 73.46V73.18C690.114 72.58 689.774 72.16 688.994 72.16C688.214 72.16 687.874 72.58 687.874 73.18V73.46C687.874 74.06 688.214 74.48 688.994 74.48ZM688.054 87H689.914V76.64H688.054V87ZM699.751 87H701.611V72.2H699.751V78.34H699.671C699.191 77.06 698.111 76.4 696.691 76.4C694.091 76.4 692.531 78.46 692.531 81.82C692.531 85.18 694.091 87.24 696.691 87.24C698.111 87.24 699.191 86.58 699.671 85.3H699.751V87ZM697.231 85.62C695.571 85.62 694.511 84.44 694.511 82.7V80.94C694.511 79.2 695.571 78.02 697.231 78.02C698.631 78.02 699.751 78.82 699.751 79.92V83.72C699.751 84.82 698.631 85.62 697.231 85.62ZM708.85 87.24C710.79 87.24 712.29 86.34 713.01 85L711.81 83.98C711.25 85.04 710.31 85.66 709.01 85.66C707.15 85.66 706.09 84.42 706.09 82.7V82.28H713.39V81.5C713.39 78.6 711.75 76.4 708.85 76.4C705.97 76.4 704.15 78.54 704.15 81.82C704.15 85.1 705.97 87.24 708.85 87.24ZM708.85 77.9C710.41 77.9 711.41 79.06 711.41 80.78V80.98H706.09V80.84C706.09 79.14 707.23 77.9 708.85 77.9ZM662.82 113.24C665.92 113.24 667.74 111.56 667.74 108.98C667.74 106.84 666.52 105.62 663.78 105.02L662.6 104.78C660.94 104.42 660.16 103.86 660.16 102.62C660.16 101.24 661.18 100.5 662.88 100.5C664.46 100.5 665.48 101.14 666.22 102.16L667.64 101.02C666.58 99.58 665.08 98.8 662.98 98.8C660.12 98.8 658.24 100.22 658.24 102.7C658.24 104.88 659.62 106.06 662.24 106.6L663.42 106.84C665.16 107.22 665.82 107.86 665.82 109.08C665.82 110.56 664.8 111.54 662.9 111.54C661.34 111.54 660.18 110.86 659.2 109.6L657.82 110.84C658.94 112.32 660.54 113.24 662.82 113.24ZM678.998 113V111.42H677.838V105.96C677.838 103.72 676.358 102.4 673.778 102.4C671.858 102.4 670.638 103.3 670.018 104.42L671.138 105.44C671.678 104.56 672.458 103.96 673.678 103.96C675.238 103.96 675.978 104.74 675.978 106.12V107.06H674.018C671.058 107.06 669.598 108.14 669.598 110.14C669.598 112.04 670.858 113.24 673.018 113.24C674.498 113.24 675.598 112.56 676.018 111.28H676.118C676.258 112.28 676.798 113 677.938 113H678.998ZM673.438 111.74C672.278 111.74 671.538 111.2 671.538 110.24V109.84C671.538 108.88 672.298 108.36 673.998 108.36H675.978V109.96C675.978 111 674.898 111.74 673.438 111.74ZM684.558 113V111.42H683.078V98.2H681.218V111.1C681.218 112.24 681.878 113 683.158 113H684.558ZM690.745 113.24C692.685 113.24 694.185 112.34 694.905 111L693.705 109.98C693.145 111.04 692.205 111.66 690.905 111.66C689.045 111.66 687.985 110.42 687.985 108.7V108.28H695.285V107.5C695.285 104.6 693.645 102.4 690.745 102.4C687.865 102.4 686.045 104.54 686.045 107.82C686.045 111.1 687.865 113.24 690.745 113.24ZM690.745 103.9C692.305 103.9 693.305 105.06 693.305 106.78V106.98H687.985V106.84C687.985 105.14 689.125 103.9 690.745 103.9ZM701 113.24C703.44 113.24 704.96 111.98 704.96 109.96C704.96 108.36 704.02 107.36 701.74 107.02L700.86 106.88C699.66 106.7 699.06 106.32 699.06 105.4C699.06 104.52 699.7 103.94 700.96 103.94C702.2 103.94 703.08 104.52 703.58 105.18L704.76 104.06C703.88 103.02 702.78 102.4 701.02 102.4C698.84 102.4 697.26 103.48 697.26 105.52C697.26 107.44 698.64 108.26 700.62 108.54L701.5 108.68C702.76 108.86 703.16 109.4 703.16 110.16C703.16 111.12 702.44 111.7 701.12 111.7C699.86 111.7 698.9 111.14 698.12 110.16L696.86 111.24C697.82 112.46 699.08 113.24 701 113.24Z" fill="#242A31"/>
<path d="M1010 44H810.845C809.227 44 808.278 45.823 809.208 47.1484L839.515 90.3635C839.995 91.0469 839.999 91.9562 839.527 92.6442L809.151 136.868C808.24 138.195 809.19 140 810.8 140H1010C1011.1 140 1012 139.105 1012 138V91.4074V46C1012 44.8954 1011.1 44 1010 44Z" fill="#F5F7F9"/>
<path d="M875.5 87V85.28H868.74V80.8H875V79.08H868.74V74.76H875.5V73.04H866.8V87H875.5ZM880.258 87V79.9C880.258 78.64 881.438 78.02 882.658 78.02C884.118 78.02 884.838 78.92 884.838 80.66V87H886.698V80.38C886.698 77.86 885.398 76.4 883.278 76.4C881.718 76.4 880.838 77.2 880.358 78.34H880.258V76.64H878.398V87H880.258ZM894.363 87V85.42H892.303V78.22H894.523V76.64H892.303V73.78H890.623V75.68C890.623 76.38 890.403 76.64 889.703 76.64H888.783V78.22H890.443V85.04C890.443 86.24 891.123 87 892.403 87H894.363ZM900.893 87.24C902.833 87.24 904.333 86.34 905.053 85L903.853 83.98C903.293 85.04 902.353 85.66 901.053 85.66C899.193 85.66 898.133 84.42 898.133 82.7V82.28H905.433V81.5C905.433 78.6 903.793 76.4 900.893 76.4C898.013 76.4 896.193 78.54 896.193 81.82C896.193 85.1 898.013 87.24 900.893 87.24ZM900.893 77.9C902.453 77.9 903.453 79.06 903.453 80.78V80.98H898.133V80.84C898.133 79.14 899.273 77.9 900.893 77.9ZM909.828 87V80.2C909.828 79.18 910.828 78.5 912.548 78.5H913.468V76.64H912.848C911.188 76.64 910.268 77.6 909.928 78.62H909.828V76.64H907.968V87H909.828ZM915.468 91H917.328V85.3H917.408C917.888 86.58 918.968 87.24 920.388 87.24C922.988 87.24 924.548 85.18 924.548 81.82C924.548 78.46 922.988 76.4 920.388 76.4C918.968 76.4 917.888 77.06 917.408 78.34H917.328V76.64H915.468V91ZM919.848 85.62C918.448 85.62 917.328 84.82 917.328 83.72V79.92C917.328 78.82 918.448 78.02 919.848 78.02C921.508 78.02 922.568 79.2 922.568 80.94V82.7C922.568 84.44 921.508 85.62 919.848 85.62ZM929.027 87V80.2C929.027 79.18 930.027 78.5 931.747 78.5H932.667V76.64H932.047C930.387 76.64 929.467 77.6 929.127 78.62H929.027V76.64H927.167V87H929.027ZM935.607 74.48C936.387 74.48 936.727 74.06 936.727 73.46V73.18C936.727 72.58 936.387 72.16 935.607 72.16C934.827 72.16 934.487 72.58 934.487 73.18V73.46C934.487 74.06 934.827 74.48 935.607 74.48ZM934.667 87H936.527V76.64H934.667V87ZM942.984 87.24C945.424 87.24 946.944 85.98 946.944 83.96C946.944 82.36 946.004 81.36 943.724 81.02L942.844 80.88C941.644 80.7 941.044 80.32 941.044 79.4C941.044 78.52 941.684 77.94 942.944 77.94C944.184 77.94 945.064 78.52 945.564 79.18L946.744 78.06C945.864 77.02 944.764 76.4 943.004 76.4C940.824 76.4 939.244 77.48 939.244 79.52C939.244 81.44 940.624 82.26 942.604 82.54L943.484 82.68C944.744 82.86 945.144 83.4 945.144 84.16C945.144 85.12 944.424 85.7 943.104 85.7C941.844 85.7 940.884 85.14 940.104 84.16L938.844 85.24C939.804 86.46 941.064 87.24 942.984 87.24ZM953.569 87.24C955.509 87.24 957.009 86.34 957.729 85L956.529 83.98C955.969 85.04 955.029 85.66 953.729 85.66C951.869 85.66 950.809 84.42 950.809 82.7V82.28H958.109V81.5C958.109 78.6 956.469 76.4 953.569 76.4C950.689 76.4 948.869 78.54 948.869 81.82C948.869 85.1 950.689 87.24 953.569 87.24ZM953.569 77.9C955.129 77.9 956.129 79.06 956.129 80.78V80.98H950.809V80.84C950.809 79.14 951.949 77.9 953.569 77.9ZM870.82 113.24C873.92 113.24 875.74 111.56 875.74 108.98C875.74 106.84 874.52 105.62 871.78 105.02L870.6 104.78C868.94 104.42 868.16 103.86 868.16 102.62C868.16 101.24 869.18 100.5 870.88 100.5C872.46 100.5 873.48 101.14 874.22 102.16L875.64 101.02C874.58 99.58 873.08 98.8 870.98 98.8C868.12 98.8 866.24 100.22 866.24 102.7C866.24 104.88 867.62 106.06 870.24 106.6L871.42 106.84C873.16 107.22 873.82 107.86 873.82 109.08C873.82 110.56 872.8 111.54 870.9 111.54C869.34 111.54 868.18 110.86 867.2 109.6L865.82 110.84C866.94 112.32 868.54 113.24 870.82 113.24ZM886.998 113V111.42H885.838V105.96C885.838 103.72 884.358 102.4 881.778 102.4C879.858 102.4 878.638 103.3 878.018 104.42L879.138 105.44C879.678 104.56 880.458 103.96 881.678 103.96C883.238 103.96 883.978 104.74 883.978 106.12V107.06H882.018C879.058 107.06 877.598 108.14 877.598 110.14C877.598 112.04 878.858 113.24 881.018 113.24C882.498 113.24 883.598 112.56 884.018 111.28H884.118C884.258 112.28 884.798 113 885.938 113H886.998ZM881.438 111.74C880.278 111.74 879.538 111.2 879.538 110.24V109.84C879.538 108.88 880.298 108.36 881.998 108.36H883.978V109.96C883.978 111 882.898 111.74 881.438 111.74ZM892.558 113V111.42H891.078V98.2H889.218V111.1C889.218 112.24 889.878 113 891.158 113H892.558ZM898.745 113.24C900.685 113.24 902.185 112.34 902.905 111L901.705 109.98C901.145 111.04 900.205 111.66 898.905 111.66C897.045 111.66 895.985 110.42 895.985 108.7V108.28H903.285V107.5C903.285 104.6 901.645 102.4 898.745 102.4C895.865 102.4 894.045 104.54 894.045 107.82C894.045 111.1 895.865 113.24 898.745 113.24ZM898.745 103.9C900.305 103.9 901.305 105.06 901.305 106.78V106.98H895.985V106.84C895.985 105.14 897.125 103.9 898.745 103.9ZM909 113.24C911.44 113.24 912.96 111.98 912.96 109.96C912.96 108.36 912.02 107.36 909.74 107.02L908.86 106.88C907.66 106.7 907.06 106.32 907.06 105.4C907.06 104.52 907.7 103.94 908.96 103.94C910.2 103.94 911.08 104.52 911.58 105.18L912.76 104.06C911.88 103.02 910.78 102.4 909.02 102.4C906.84 102.4 905.26 103.48 905.26 105.52C905.26 107.44 906.64 108.26 908.62 108.54L909.5 108.68C910.76 108.86 911.16 109.4 911.16 110.16C911.16 111.12 910.44 111.7 909.12 111.7C907.86 111.7 906.9 111.14 906.12 110.16L904.86 111.24C905.82 112.46 907.08 113.24 909 113.24Z" fill="#242A31"/>
<path d="M102.656 22.1919C105.136 22.1919 106.592 20.8479 106.592 18.7839C106.592 17.0719 105.616 16.0959 103.424 15.6159L102.48 15.4239C101.152 15.1359 100.528 14.6879 100.528 13.6959C100.528 12.5919 101.344 11.9999 102.704 11.9999C103.968 11.9999 104.784 12.5119 105.376 13.3279L106.512 12.4159C105.664 11.2639 104.464 10.6399 102.784 10.6399C100.496 10.6399 98.992 11.7759 98.992 13.7599C98.992 15.5039 100.096 16.4479 102.192 16.8799L103.136 17.0719C104.528 17.3759 105.056 17.8879 105.056 18.8639C105.056 20.0479 104.24 20.8319 102.72 20.8319C101.472 20.8319 100.544 20.2879 99.76 19.2799L98.656 20.2719C99.552 21.4559 100.832 22.1919 102.656 22.1919Z" fill="#3C454E"/>
<path d="M111.886 22.1919C113.438 22.1919 114.638 21.4719 115.214 20.3999L114.254 19.5839C113.806 20.4319 113.054 20.9279 112.014 20.9279C110.526 20.9279 109.678 19.9359 109.678 18.5599V18.2239H115.518V17.5999C115.518 15.2799 114.206 13.5199 111.886 13.5199C109.582 13.5199 108.126 15.2319 108.126 17.8559C108.126 20.4799 109.582 22.1919 111.886 22.1919ZM111.886 14.7199C113.134 14.7199 113.934 15.6479 113.934 17.0239V17.1839H109.678V17.0719C109.678 15.7119 110.59 14.7199 111.886 14.7199Z" fill="#3C454E"/>
<path d="M120.714 22.1919C122.266 22.1919 123.466 21.4719 124.042 20.3999L123.082 19.5839C122.634 20.4319 121.882 20.9279 120.842 20.9279C119.354 20.9279 118.506 19.9359 118.506 18.5599V18.2239H124.346V17.5999C124.346 15.2799 123.034 13.5199 120.714 13.5199C118.41 13.5199 116.954 15.2319 116.954 17.8559C116.954 20.4799 118.41 22.1919 120.714 22.1919ZM120.714 14.7199C121.962 14.7199 122.762 15.6479 122.762 17.0239V17.1839H118.506V17.0719C118.506 15.7119 119.418 14.7199 120.714 14.7199Z" fill="#3C454E"/>
<path d="M131.623 21.9999H133.111V10.1599H131.623V15.0719H131.559C131.175 14.0479 130.311 13.5199 129.175 13.5199C127.095 13.5199 125.847 15.1679 125.847 17.8559C125.847 20.5439 127.095 22.1919 129.175 22.1919C130.311 22.1919 131.175 21.6639 131.559 20.6399H131.623V21.9999ZM129.607 20.8959C128.279 20.8959 127.431 19.9519 127.431 18.5599V17.1519C127.431 15.7599 128.279 14.8159 129.607 14.8159C130.727 14.8159 131.623 15.4559 131.623 16.3359V19.3759C131.623 20.2559 130.727 20.8959 129.607 20.8959Z" fill="#3C454E"/>
<path d="M90 16.5C90 21.7467 85.7467 26 80.5 26C75.2533 26 71 21.7467 71 16.5C71 11.2533 75.2533 7 80.5 7C85.7467 7 90 11.2533 90 16.5Z" fill="white"/>
<path fill-rule="evenodd" clip-rule="evenodd" d="M91 16.5C91 22.299 86.299 27 80.5 27C74.701 27 70 22.299 70 16.5C70 10.701 74.701 6 80.5 6C86.299 6 91 10.701 91 16.5ZM80.5 26C85.7467 26 90 21.7467 90 16.5C90 11.2533 85.7467 7 80.5 7C75.2533 7 71 11.2533 71 16.5C71 21.7467 75.2533 26 80.5 26Z" fill="#F5F7F9"/>
<path d="M85 16.5C85 18.9853 82.9853 21 80.5 21C78.0147 21 76 18.9853 76 16.5C76 14.0147 78.0147 12 80.5 12C82.9853 12 85 14.0147 85 16.5Z" fill="url(#paint1_linear)"/>
<path d="M72 42H135V44H72V42Z" fill="#30CEFE"/>
<path d="M239 2C239 0.895431 239.895 0 241 0H365C366.105 0 367 0.895431 367 2V30C367 31.1046 366.105 32 365 32H241C239.895 32 239 31.1046 239 30V2Z" fill="#30CEFE"/>
<path d="M276.768 21.9999L278.24 16.3359L279.2 12.5599H279.232L280.16 16.3359L281.616 21.9999H283.344L286.16 10.8319H284.608L283.376 16.2079L282.496 20.1599H282.448L281.472 16.2079L280.128 10.8319H278.384L277.008 16.2079L276.032 20.1759H276L275.136 16.2079L273.952 10.8319H272.352L275.024 21.9999H276.768Z" fill="white"/>
<path d="M290.73 22.1919C292.282 22.1919 293.482 21.4719 294.058 20.3999L293.098 19.5839C292.65 20.4319 291.898 20.9279 290.858 20.9279C289.37 20.9279 288.522 19.9359 288.522 18.5599V18.2239H294.362V17.5999C294.362 15.2799 293.05 13.5199 290.73 13.5199C288.426 13.5199 286.97 15.2319 286.97 17.8559C286.97 20.4799 288.426 22.1919 290.73 22.1919ZM290.73 14.7199C291.978 14.7199 292.778 15.6479 292.778 17.0239V17.1839H288.522V17.0719C288.522 15.7119 289.434 14.7199 290.73 14.7199Z" fill="white"/>
<path d="M307.051 21.9999V20.7359H306.123V16.3679C306.123 14.5759 304.939 13.5199 302.875 13.5199C301.339 13.5199 300.363 14.2399 299.867 15.1359L300.763 15.9519C301.195 15.2479 301.819 14.7679 302.795 14.7679C304.043 14.7679 304.635 15.3919 304.635 16.4959V17.2479H303.067C300.699 17.2479 299.531 18.1119 299.531 19.7119C299.531 21.2319 300.539 22.1919 302.267 22.1919C303.451 22.1919 304.331 21.6479 304.667 20.6239H304.747C304.859 21.4239 305.291 21.9999 306.203 21.9999H307.051ZM302.603 20.9919C301.675 20.9919 301.083 20.5599 301.083 19.7919V19.4719C301.083 18.7039 301.691 18.2879 303.051 18.2879H304.635V19.5679C304.635 20.3999 303.771 20.9919 302.603 20.9919Z" fill="white"/>
<path d="M310.316 21.9999V16.5599C310.316 15.7439 311.116 15.1999 312.492 15.1999H313.228V13.7119H312.732C311.404 13.7119 310.668 14.4799 310.396 15.2959H310.316V13.7119H308.828V21.9999H310.316Z" fill="white"/>
<path d="M317.918 22.1919C319.47 22.1919 320.67 21.4719 321.246 20.3999L320.286 19.5839C319.838 20.4319 319.086 20.9279 318.046 20.9279C316.558 20.9279 315.71 19.9359 315.71 18.5599V18.2239H321.55V17.5999C321.55 15.2799 320.238 13.5199 317.918 13.5199C315.614 13.5199 314.158 15.2319 314.158 17.8559C314.158 20.4799 315.614 22.1919 317.918 22.1919ZM317.918 14.7199C319.166 14.7199 319.966 15.6479 319.966 17.0239V17.1839H315.71V17.0719C315.71 15.7119 316.622 14.7199 317.918 14.7199Z" fill="white"/>
<path d="M327.359 21.9999H328.847V16.3199C328.847 15.3119 329.791 14.8159 330.767 14.8159C331.935 14.8159 332.511 15.5359 332.511 16.9279V21.9999H333.999V16.7039C333.999 14.6879 332.959 13.5199 331.263 13.5199C330.015 13.5199 329.311 14.1599 328.927 15.0719H328.847V10.1599H327.359V21.9999Z" fill="white"/>
<path d="M339.699 22.1919C341.251 22.1919 342.451 21.4719 343.027 20.3999L342.067 19.5839C341.619 20.4319 340.867 20.9279 339.827 20.9279C338.339 20.9279 337.491 19.9359 337.491 18.5599V18.2239H343.331V17.5999C343.331 15.2799 342.019 13.5199 339.699 13.5199C337.395 13.5199 335.939 15.2319 335.939 17.8559C335.939 20.4799 337.395 22.1919 339.699 22.1919ZM339.699 14.7199C340.947 14.7199 341.747 15.6479 341.747 17.0239V17.1839H337.491V17.0719C337.491 15.7119 338.403 14.7199 339.699 14.7199Z" fill="white"/>
<path d="M346.847 21.9999V16.5599C346.847 15.7439 347.647 15.1999 349.023 15.1999H349.759V13.7119H349.263C347.935 13.7119 347.199 14.4799 346.927 15.2959H346.847V13.7119H345.359V21.9999H346.847Z" fill="white"/>
<path d="M354.449 22.1919C356.001 22.1919 357.201 21.4719 357.777 20.3999L356.817 19.5839C356.369 20.4319 355.617 20.9279 354.577 20.9279C353.089 20.9279 352.241 19.9359 352.241 18.5599V18.2239H358.081V17.5999C358.081 15.2799 356.769 13.5199 354.449 13.5199C352.145 13.5199 350.689 15.2319 350.689 17.8559C350.689 20.4799 352.145 22.1919 354.449 22.1919ZM354.449 14.7199C355.697 14.7199 356.497 15.6479 356.497 17.0239V17.1839H352.241V17.0719C352.241 15.7119 353.153 14.7199 354.449 14.7199Z" fill="white"/>
<path d="M259 16.5C259 18.9853 256.985 21 254.5 21C252.015 21 250 18.9853 250 16.5C250 14.0147 252.015 12 254.5 12C256.985 12 259 14.0147 259 16.5Z" fill="white"/>
<path fill-rule="evenodd" clip-rule="evenodd" d="M263 16.5C263 21.1944 259.194 25 254.5 25C249.806 25 246 21.1944 246 16.5C246 11.8056 249.806 8 254.5 8C259.194 8 263 11.8056 263 16.5ZM254.5 24C258.642 24 262 20.6421 262 16.5C262 12.3579 258.642 9 254.5 9C250.358 9 247 12.3579 247 16.5C247 20.6421 250.358 24 254.5 24Z" fill="#F5F7F9"/>
<path d="M716.224 22.192C716.96 22.192 717.28 21.776 717.28 21.2V20.96C717.28 20.384 716.96 19.968 716.224 19.968C715.488 19.968 715.168 20.384 715.168 20.96V21.2C715.168 21.776 715.488 22.192 716.224 22.192Z" fill="#3C454E"/>
<path d="M720.677 22.192C721.413 22.192 721.733 21.776 721.733 21.2V20.96C721.733 20.384 721.413 19.968 720.677 19.968C719.941 19.968 719.621 20.384 719.621 20.96V21.2C719.621 21.776 719.941 22.192 720.677 22.192Z" fill="#3C454E"/>
<path d="M725.13 22.192C725.866 22.192 726.186 21.776 726.186 21.2V20.96C726.186 20.384 725.866 19.968 725.13 19.968C724.394 19.968 724.074 20.384 724.074 20.96V21.2C724.074 21.776 724.394 22.192 725.13 22.192Z" fill="#3C454E"/>
<path d="M706 16.5C706 21.7467 701.747 26 696.5 26C691.253 26 687 21.7467 687 16.5C687 11.2533 691.253 7 696.5 7C701.747 7 706 11.2533 706 16.5Z" fill="white"/>
<path fill-rule="evenodd" clip-rule="evenodd" d="M707 16.5C707 22.299 702.299 27 696.5 27C690.701 27 686 22.299 686 16.5C686 10.701 690.701 6 696.5 6C702.299 6 707 10.701 707 16.5ZM696.5 26C701.747 26 706 21.7467 706 16.5C706 11.2533 701.747 7 696.5 7C691.253 7 687 11.2533 687 16.5C687 21.7467 691.253 26 696.5 26Z" fill="#F5F7F9"/>
<path d="M701 16.5C701 18.9853 698.985 21 696.5 21C694.015 21 692 18.9853 692 16.5C692 14.0147 694.015 12 696.5 12C698.985 12 701 14.0147 701 16.5Z" fill="url(#paint2_linear)"/>
<path d="M688 42H745V44H688V42Z" fill="#30CEFE"/>
<path d="M437.656 22.1919C440.136 22.1919 441.592 20.8479 441.592 18.7839C441.592 17.0719 440.616 16.0959 438.424 15.6159L437.48 15.4239C436.152 15.1359 435.528 14.6879 435.528 13.6959C435.528 12.5919 436.344 11.9999 437.704 11.9999C438.968 11.9999 439.784 12.5119 440.376 13.3279L441.512 12.4159C440.664 11.2639 439.464 10.6399 437.784 10.6399C435.496 10.6399 433.992 11.7759 433.992 13.7599C433.992 15.5039 435.096 16.4479 437.192 16.8799L438.136 17.0719C439.528 17.3759 440.056 17.8879 440.056 18.8639C440.056 20.0479 439.24 20.8319 437.72 20.8319C436.472 20.8319 435.544 20.2879 434.76 19.2799L433.656 20.2719C434.552 21.4559 435.832 22.1919 437.656 22.1919Z" fill="#3C454E"/>
<path d="M446.886 22.1919C448.438 22.1919 449.638 21.4719 450.214 20.3999L449.254 19.5839C448.806 20.4319 448.054 20.9279 447.014 20.9279C445.526 20.9279 444.678 19.9359 444.678 18.5599V18.2239H450.518V17.5999C450.518 15.2799 449.206 13.5199 446.886 13.5199C444.582 13.5199 443.126 15.2319 443.126 17.8559C443.126 20.4799 444.582 22.1919 446.886 22.1919ZM446.886 14.7199C448.134 14.7199 448.934 15.6479 448.934 17.0239V17.1839H444.678V17.0719C444.678 15.7119 445.59 14.7199 446.886 14.7199Z" fill="#3C454E"/>
<path d="M454.034 21.9999V16.5599C454.034 15.7439 454.834 15.1999 456.21 15.1999H456.946V13.7119H456.45C455.122 13.7119 454.386 14.4799 454.114 15.2959H454.034V13.7119H452.546V21.9999H454.034Z" fill="#3C454E"/>
<path d="M459.298 11.9839C459.922 11.9839 460.194 11.6479 460.194 11.1679V10.9439C460.194 10.4639 459.922 10.1279 459.298 10.1279C458.674 10.1279 458.402 10.4639 458.402 10.9439V11.1679C458.402 11.6479 458.674 11.9839 459.298 11.9839ZM458.546 21.9999H460.034V13.7119H458.546V21.9999Z" fill="#3C454E"/>
<path d="M465.824 22.1919C467.376 22.1919 468.576 21.4719 469.152 20.3999L468.192 19.5839C467.744 20.4319 466.992 20.9279 465.952 20.9279C464.464 20.9279 463.616 19.9359 463.616 18.5599V18.2239H469.456V17.5999C469.456 15.2799 468.144 13.5199 465.824 13.5199C463.52 13.5199 462.064 15.2319 462.064 17.8559C462.064 20.4799 463.52 22.1919 465.824 22.1919ZM465.824 14.7199C467.072 14.7199 467.872 15.6479 467.872 17.0239V17.1839H463.616V17.0719C463.616 15.7119 464.528 14.7199 465.824 14.7199Z" fill="#3C454E"/>
<path d="M474.028 22.1919C475.98 22.1919 477.196 21.1839 477.196 19.5679C477.196 18.2879 476.444 17.4879 474.62 17.2159L473.916 17.1039C472.956 16.9599 472.476 16.6559 472.476 15.9199C472.476 15.2159 472.988 14.7519 473.996 14.7519C474.988 14.7519 475.692 15.2159 476.092 15.7439L477.036 14.8479C476.332 14.0159 475.452 13.5199 474.044 13.5199C472.3 13.5199 471.036 14.3839 471.036 16.0159C471.036 17.5519 472.14 18.2079 473.724 18.4319L474.428 18.5439C475.436 18.6879 475.756 19.1199 475.756 19.7279C475.756 20.4959 475.18 20.9599 474.124 20.9599C473.116 20.9599 472.348 20.5119 471.724 19.7279L470.716 20.5919C471.484 21.5679 472.492 22.1919 474.028 22.1919Z" fill="#3C454E"/>
<path d="M491.829 21.9999L487.973 10.8319H486.021L482.149 21.9999H483.717L484.789 18.8479H489.141L490.197 21.9999H491.829ZM488.757 17.4719H485.157L486.917 12.2559H486.997L488.757 17.4719Z" fill="#3C454E"/>
<path d="M425 16.5C425 21.7467 420.747 26 415.5 26C410.253 26 406 21.7467 406 16.5C406 11.2533 410.253 7 415.5 7C420.747 7 425 11.2533 425 16.5Z" fill="white"/>
<path fill-rule="evenodd" clip-rule="evenodd" d="M426 16.5C426 22.299 421.299 27 415.5 27C409.701 27 405 22.299 405 16.5C405 10.701 409.701 6 415.5 6C421.299 6 426 10.701 426 16.5ZM415.5 26C420.747 26 425 21.7467 425 16.5C425 11.2533 420.747 7 415.5 7C410.253 7 406 11.2533 406 16.5C406 21.7467 410.253 26 415.5 26Z" fill="#F5F7F9"/>
<path d="M420 16.5C420 18.9853 417.985 21 415.5 21C413.015 21 411 18.9853 411 16.5C411 14.0147 413.015 12 415.5 12C417.985 12 420 14.0147 420 16.5Z" fill="url(#paint3_linear)"/>
<path d="M407 42H493V44H407V42Z" fill="#30CEFE"/>
<path d="M549.656 22.1919C552.136 22.1919 553.592 20.8479 553.592 18.7839C553.592 17.0719 552.616 16.0959 550.424 15.6159L549.48 15.4239C548.152 15.1359 547.528 14.6879 547.528 13.6959C547.528 12.5919 548.344 11.9999 549.704 11.9999C550.968 11.9999 551.784 12.5119 552.376 13.3279L553.512 12.4159C552.664 11.2639 551.464 10.6399 549.784 10.6399C547.496 10.6399 545.992 11.7759 545.992 13.7599C545.992 15.5039 547.096 16.4479 549.192 16.8799L550.136 17.0719C551.528 17.3759 552.056 17.8879 552.056 18.8639C552.056 20.0479 551.24 20.8319 549.72 20.8319C548.472 20.8319 547.544 20.2879 546.76 19.2799L545.656 20.2719C546.552 21.4559 547.832 22.1919 549.656 22.1919Z" fill="#3C454E"/>
<path d="M558.886 22.1919C560.438 22.1919 561.638 21.4719 562.214 20.3999L561.254 19.5839C560.806 20.4319 560.054 20.9279 559.014 20.9279C557.526 20.9279 556.678 19.9359 556.678 18.5599V18.2239H562.518V17.5999C562.518 15.2799 561.206 13.5199 558.886 13.5199C556.582 13.5199 555.126 15.2319 555.126 17.8559C555.126 20.4799 556.582 22.1919 558.886 22.1919ZM558.886 14.7199C560.134 14.7199 560.934 15.6479 560.934 17.0239V17.1839H556.678V17.0719C556.678 15.7119 557.59 14.7199 558.886 14.7199Z" fill="#3C454E"/>
<path d="M566.034 21.9999V16.5599C566.034 15.7439 566.834 15.1999 568.21 15.1999H568.946V13.7119H568.45C567.122 13.7119 566.386 14.4799 566.114 15.2959H566.034V13.7119H564.546V21.9999H566.034Z" fill="#3C454E"/>
<path d="M571.298 11.9839C571.922 11.9839 572.194 11.6479 572.194 11.1679V10.9439C572.194 10.4639 571.922 10.1279 571.298 10.1279C570.674 10.1279 570.402 10.4639 570.402 10.9439V11.1679C570.402 11.6479 570.674 11.9839 571.298 11.9839ZM570.546 21.9999H572.034V13.7119H570.546V21.9999Z" fill="#3C454E"/>
<path d="M577.824 22.1919C579.376 22.1919 580.576 21.4719 581.152 20.3999L580.192 19.5839C579.744 20.4319 578.992 20.9279 577.952 20.9279C576.464 20.9279 575.616 19.9359 575.616 18.5599V18.2239H581.456V17.5999C581.456 15.2799 580.144 13.5199 577.824 13.5199C575.52 13.5199 574.064 15.2319 574.064 17.8559C574.064 20.4799 575.52 22.1919 577.824 22.1919ZM577.824 14.7199C579.072 14.7199 579.872 15.6479 579.872 17.0239V17.1839H575.616V17.0719C575.616 15.7119 576.528 14.7199 577.824 14.7199Z" fill="#3C454E"/>
<path d="M586.028 22.1919C587.98 22.1919 589.196 21.1839 589.196 19.5679C589.196 18.2879 588.444 17.4879 586.62 17.2159L585.916 17.1039C584.956 16.9599 584.476 16.6559 584.476 15.9199C584.476 15.2159 584.988 14.7519 585.996 14.7519C586.988 14.7519 587.692 15.2159 588.092 15.7439L589.036 14.8479C588.332 14.0159 587.452 13.5199 586.044 13.5199C584.3 13.5199 583.036 14.3839 583.036 16.0159C583.036 17.5519 584.14 18.2079 585.724 18.4319L586.428 18.5439C587.436 18.6879 587.756 19.1199 587.756 19.7279C587.756 20.4959 587.18 20.9599 586.124 20.9599C585.116 20.9599 584.348 20.5119 583.724 19.7279L582.716 20.5919C583.484 21.5679 584.492 22.1919 586.028 22.1919Z" fill="#3C454E"/>
<path d="M595.237 21.9999H600.469C602.117 21.9999 603.365 20.6079 603.365 18.7839C603.365 16.9119 601.941 16.2239 601.093 16.1759V16.0799C601.909 15.9839 602.981 15.3759 602.981 13.7119C602.981 11.9679 601.829 10.8319 599.989 10.8319H595.237V21.9999ZM596.789 16.9279H600.005C601.061 16.9279 601.701 17.4719 601.701 18.5119V19.0719C601.701 20.1119 601.061 20.6559 600.005 20.6559H596.789V16.9279ZM596.789 12.1759H599.749C600.725 12.1759 601.317 12.7039 601.317 13.6319V14.1599C601.317 15.0879 600.725 15.6159 599.749 15.6159H596.789V12.1759Z" fill="#3C454E"/>
<path d="M537 16.5C537 21.7467 532.747 26 527.5 26C522.253 26 518 21.7467 518 16.5C518 11.2533 522.253 7 527.5 7C532.747 7 537 11.2533 537 16.5Z" fill="white"/>
<path fill-rule="evenodd" clip-rule="evenodd" d="M538 16.5C538 22.299 533.299 27 527.5 27C521.701 27 517 22.299 517 16.5C517 10.701 521.701 6 527.5 6C533.299 6 538 10.701 538 16.5ZM527.5 26C532.747 26 537 21.7467 537 16.5C537 11.2533 532.747 7 527.5 7C522.253 7 518 11.2533 518 16.5C518 21.7467 522.253 26 527.5 26Z" fill="#F5F7F9"/>
<path d="M532 16.5C532 18.9853 529.985 21 527.5 21C525.015 21 523 18.9853 523 16.5C523 14.0147 525.015 12 527.5 12C529.985 12 532 14.0147 532 16.5Z" fill="url(#paint4_linear)"/>
<path d="M519 42H605V44H519V42Z" fill="#30CEFE"/>
<defs>
<linearGradient id="paint0_linear" x1="942.5" y1="12" x2="942.5" y2="21" gradientUnits="userSpaceOnUse">
<stop stop-color="#52C7EA"/>
<stop offset="1" stop-color="#30CEFE"/>
</linearGradient>
<linearGradient id="paint1_linear" x1="80.5" y1="12" x2="80.5" y2="21" gradientUnits="userSpaceOnUse">
<stop stop-color="#52C7EA"/>
<stop offset="1" stop-color="#30CEFE"/>
</linearGradient>
<linearGradient id="paint2_linear" x1="696.5" y1="12" x2="696.5" y2="21" gradientUnits="userSpaceOnUse">
<stop stop-color="#52C7EA"/>
<stop offset="1" stop-color="#30CEFE"/>
</linearGradient>
<linearGradient id="paint3_linear" x1="415.5" y1="12" x2="415.5" y2="21" gradientUnits="userSpaceOnUse">
<stop stop-color="#52C7EA"/>
<stop offset="1" stop-color="#30CEFE"/>
</linearGradient>
<linearGradient id="paint4_linear" x1="527.5" y1="12" x2="527.5" y2="21" gradientUnits="userSpaceOnUse">
<stop stop-color="#52C7EA"/>
<stop offset="1" stop-color="#30CEFE"/>
</linearGradient>
</defs>
</svg>
