<svg width="264" height="240" viewBox="0 0 264 240" fill="none" xmlns="http://www.w3.org/2000/svg">
<g clip-path="url(#clip0_6293_31609)">
<path d="M132 240.003C198.274 240.003 252 186.276 252 120C252 53.7241 198.274 -0.00292969 132 -0.00292969C65.7258 -0.00292969 12 53.7241 12 120C12 186.276 65.7258 240.003 132 240.003Z" fill="#E8F6FF"/>
<path d="M114.679 178.146C74.4285 178.146 41.6875 145.405 41.6875 105.154C41.6875 64.9041 74.4285 32.1631 114.679 32.1631C154.929 32.1631 187.67 64.9041 187.67 105.154C187.67 145.405 154.929 178.146 114.679 178.146Z" fill="#D2E2FF"/>
<path d="M232.492 225.807C230.081 225.807 227.819 224.868 226.112 223.165L147.586 140.874L156.54 131.91L238.913 210.44C242.395 213.922 242.395 219.648 238.873 223.165C237.17 224.868 234.903 225.807 232.492 225.807Z" fill="#6F747E"/>
<path d="M156.584 135.067L237.282 211.998C239.919 214.636 239.919 218.93 237.282 221.571C236.004 222.845 234.306 223.549 232.496 223.549C230.689 223.549 228.987 222.845 227.781 221.644L150.746 140.91L156.584 135.067ZM156.508 128.754L144.438 140.838L224.517 224.759C226.72 226.963 229.61 228.065 232.496 228.065C235.381 228.065 238.271 226.963 240.475 224.759C244.882 220.352 244.882 213.209 240.475 208.801L156.508 128.754Z" fill="#6F747E"/>
<path d="M129.523 183.094C89.2723 183.094 56.5312 150.353 56.5312 110.103C56.5312 69.8523 89.2723 37.1113 129.523 37.1113C169.773 37.1113 202.514 69.8523 202.514 110.103C202.514 150.353 169.773 183.094 129.523 183.094Z" fill="url(#paint0_linear_6293_31609)"/>
<path d="M128.913 134.978C105.292 134.978 85.1284 110.596 80.4844 104.535C85.1331 98.4796 105.324 74.0928 128.913 74.0928C152.535 74.0928 172.698 98.4749 177.342 104.535C172.694 110.591 152.502 134.978 128.913 134.978Z" fill="white"/>
<path d="M128.915 81.1182C122.726 81.1182 116.79 83.5853 112.413 87.9769C108.037 92.3685 105.578 98.3248 105.578 104.535C105.578 110.746 108.037 116.702 112.413 121.094C116.79 125.486 122.726 127.953 128.915 127.953C135.104 127.953 141.04 125.486 145.417 121.094C149.793 116.702 152.252 110.746 152.252 104.535C152.252 98.3248 149.793 92.3685 145.417 87.9769C141.04 83.5853 135.104 81.1182 128.915 81.1182Z" fill="#90C0FF"/>
<path d="M128.913 95.168C126.437 95.168 124.063 96.1548 122.312 97.9115C120.562 99.6681 119.578 102.051 119.578 104.535C119.578 107.019 120.562 109.402 122.312 111.158C124.063 112.915 126.437 113.902 128.913 113.902C131.389 113.902 133.763 112.915 135.514 111.158C137.264 109.402 138.248 107.019 138.248 104.535C138.248 102.051 137.264 99.6681 135.514 97.9115C133.763 96.1548 131.389 95.168 128.913 95.168Z" fill="#34547E"/>
</g>
<defs>
<linearGradient id="paint0_linear_6293_31609" x1="130.101" y1="197.644" x2="130.101" y2="18.3214" gradientUnits="userSpaceOnUse">
<stop stop-color="#FFF7EF"/>
<stop offset="0.401" stop-color="#97C0FF"/>
<stop offset="0.591" stop-color="#96DAFF"/>
<stop offset="1" stop-color="#BFFFFF"/>
</linearGradient>
<clipPath id="clip0_6293_31609">
<rect width="264" height="240" fill="white"/>
</clipPath>
</defs>
</svg>
