<svg width="264" height="240" viewBox="0 0 264 240" fill="none" xmlns="http://www.w3.org/2000/svg">
<path d="M132 240C198.274 240 252 186.274 252 120C252 53.7258 198.274 0 132 0C65.7258 0 12 53.7258 12 120C12 186.274 65.7258 240 132 240Z" fill="#E8F8FF"/>
<path d="M52.1012 58.1445H23.856C21.4071 58.1445 19.4219 60.1269 19.4219 62.5723V80.9333C19.4219 83.3786 21.4071 85.361 23.856 85.361H52.1012C54.5501 85.361 56.5353 83.3786 56.5353 80.9333V62.5723C56.5353 60.1269 54.5501 58.1445 52.1012 58.1445Z" fill="#526166"/>
<path d="M28.509 67.6268H26.4309C25.5555 67.6268 24.8438 66.9161 24.8438 66.0419C24.8438 65.1678 25.5555 64.457 26.4309 64.457H28.509C29.3844 64.457 30.0962 65.1678 30.0962 66.0419C30.0962 66.9161 29.3844 67.6268 28.509 67.6268Z" fill="white"/>
<path d="M49.6728 67.6268H34.3684C33.493 67.6268 32.7812 66.9161 32.7812 66.0419C32.7812 65.1678 33.493 64.457 34.3684 64.457H49.6728C50.5482 64.457 51.2599 65.1678 51.2599 66.0419C51.2599 66.9161 50.5482 67.6268 49.6728 67.6268Z" fill="white"/>
<path d="M49.6748 76.7449H26.4309C25.5555 76.7449 24.8438 76.0342 24.8438 75.1601C24.8438 74.2859 25.5555 73.5752 26.4309 73.5752H49.6748C50.5502 73.5752 51.262 74.2859 51.262 75.1601C51.262 76.0342 50.5502 76.7449 49.6748 76.7449Z" fill="white"/>
<path d="M213.658 58.1447C223.907 58.1447 232.215 49.8365 232.215 39.588C232.215 29.3394 223.907 21.0312 213.658 21.0312C203.41 21.0312 195.102 29.3394 195.102 39.588C195.102 49.8365 203.41 58.1447 213.658 58.1447Z" fill="#A2C5FF"/>
<path d="M213.66 48.4845C212.735 48.4845 211.984 47.7334 211.984 46.8086V32.3722C211.984 31.4474 212.735 30.6963 213.66 30.6963C214.585 30.6963 215.336 31.4474 215.336 32.3722V46.8086C215.336 47.7334 214.585 48.4845 213.66 48.4845Z" fill="#34547E"/>
<path d="M220.581 40.9729H206.145C205.22 40.9729 204.469 40.2218 204.469 39.297C204.469 38.3722 205.22 37.6211 206.145 37.6211H220.581C221.506 37.6211 222.257 38.3722 222.257 39.297C222.257 40.2218 221.506 40.9729 220.581 40.9729Z" fill="#34547E"/>
<path d="M202.458 101.305C202.458 115.376 198.086 128.421 190.618 139.158C185.024 147.2 182.168 156.832 182.168 166.625V205.097H111.36V182.85L89.2404 178.142C85.961 177.445 83.6185 174.551 83.6185 171.199V145.85H64.5611C61.9342 145.85 59.971 143.43 60.512 140.859L69.6308 97.6907L69.7312 97.7074C71.594 62.7046 100.573 34.8965 136.039 34.8965C171.505 34.8965 202.447 64.6343 202.447 101.305H202.458Z" fill="url(#paint0_linear_6293_31285)"/>
<path d="M181.546 75.2769C179.951 75.0873 178.423 75.4442 177.129 76.1916L157.519 59.3093C157.737 58.7515 157.898 58.1604 157.971 57.5357C158.434 53.6093 155.634 50.0566 151.708 49.5881C147.781 49.1252 144.229 51.925 143.76 55.8514C143.738 56.0354 143.732 56.2139 143.721 56.3924L116.822 64.5407C115.69 62.9902 113.95 61.8915 111.892 61.6461C107.965 61.1832 104.413 63.983 103.944 67.9094C103.805 69.075 103.961 70.2072 104.346 71.239L94.9313 79.0248C94.0836 78.5117 93.1187 78.1604 92.0757 78.0377C88.1494 77.5747 84.5967 80.3745 84.1282 84.3009C83.6653 88.2273 86.465 91.78 90.3914 92.2485C94.3178 92.7114 97.8705 89.9116 98.339 85.9852C98.4784 84.8196 98.3223 83.6874 97.9374 82.6556L107.346 74.8698C108.194 75.3829 109.159 75.7343 110.202 75.857C114.128 76.3199 117.681 73.5201 118.149 69.5937C118.172 69.4097 118.177 69.2312 118.188 69.0527L145.087 60.9044C146.22 62.4548 147.96 63.5536 150.018 63.799C151.613 63.9886 153.141 63.6316 154.435 62.8843L174.045 79.7666C173.827 80.3243 173.665 80.9155 173.593 81.5402C173.342 83.6595 174.05 85.6618 175.366 87.1397L171.63 93.8826C171.507 93.8603 171.384 93.8324 171.261 93.8213C167.335 93.3583 163.782 96.1581 163.314 100.085C163.314 100.09 163.314 100.096 163.314 100.107L143.621 104.53C142.511 102.75 140.637 101.468 138.389 101.206C135.963 100.916 133.676 101.886 132.176 103.587L120.492 98.8519C120.525 98.5508 120.531 98.2496 120.531 97.954L137.843 91.5513C138.975 92.9233 140.609 93.877 142.511 94.1057C146.437 94.5686 149.99 91.7688 150.458 87.8425C150.921 83.9161 148.121 80.3634 144.195 79.8949C140.269 79.432 136.716 82.2317 136.248 86.1581C136.208 86.4872 136.203 86.8107 136.208 87.1286L118.897 93.5312C117.765 92.1592 116.13 91.2055 114.229 90.9769C110.302 90.514 106.749 93.3137 106.281 97.2401C105.818 101.166 108.618 104.719 112.544 105.188C114.82 105.455 116.967 104.624 118.462 103.113L130.419 107.96C130.235 111.685 132.957 114.97 136.716 115.411C140.642 115.874 144.195 113.074 144.664 109.148C144.664 109.142 144.664 109.131 144.664 109.125L164.357 104.702C165.467 106.482 167.341 107.764 169.588 108.026C173.515 108.489 177.067 105.69 177.536 101.763C177.787 99.6439 177.079 97.6417 175.762 96.1637L179.499 89.4208C179.622 89.4431 179.744 89.471 179.867 89.4822C183.794 89.9451 187.346 87.1453 187.815 83.2189C188.278 79.2925 185.478 75.7398 181.551 75.2713L181.546 75.2769Z" fill="white"/>
<defs>
<linearGradient id="paint0_linear_6293_31285" x1="132.003" y1="222.062" x2="132.003" y2="12.9894" gradientUnits="userSpaceOnUse">
<stop stop-color="#FFF7EF"/>
<stop offset="0.401" stop-color="#97C0FF"/>
<stop offset="0.591" stop-color="#96DAFF"/>
<stop offset="1" stop-color="#BFFFFF"/>
</linearGradient>
</defs>
</svg>
