<svg width="264" height="240" viewBox="0 0 264 240" fill="none" xmlns="http://www.w3.org/2000/svg">
<g clip-path="url(#clip0_6293_31389)">
<path d="M132 240.003C198.274 240.003 252 186.276 252 120C252 53.7241 198.274 -0.00292969 132 -0.00292969C65.7258 -0.00292969 12 53.7241 12 120C12 186.276 65.7258 240.003 132 240.003Z" fill="#F5F3FF"/>
<g clip-path="url(#clip1_6293_31389)">
<path d="M132.004 22.2656C94.4163 22.2656 63.9609 50.9219 63.9609 86.2639C63.9609 114.461 91.201 146.026 91.201 173.943H172.858C172.858 144.763 200.098 114.461 200.098 86.2639C200.047 50.9219 169.578 22.2656 132.004 22.2656Z" fill="url(#paint0_linear_6293_31389)"/>
<path d="M144.346 177.03C143.622 177.027 142.921 176.77 142.367 176.303C141.812 175.837 141.438 175.192 141.31 174.479C140.493 170.408 135.288 143.194 137.252 122.461H124.494C126.458 143.194 121.253 170.396 120.436 174.479C120.375 174.894 120.229 175.293 120.009 175.651C119.789 176.009 119.498 176.318 119.154 176.56C118.811 176.802 118.421 176.972 118.01 177.058C117.599 177.145 117.175 177.148 116.762 177.065C116.35 176.983 115.959 176.818 115.613 176.58C115.267 176.342 114.972 176.036 114.748 175.681C114.523 175.325 114.374 174.928 114.307 174.513C114.241 174.098 114.26 173.674 114.363 173.266C116.455 162.83 119.888 139.226 118.28 122.461H108.622C105.413 122.497 102.31 121.312 99.9415 119.147C97.5728 116.982 96.1149 113.998 95.8628 110.799C95.7923 109.153 96.055 107.51 96.6351 105.968C97.2152 104.426 98.1007 103.017 99.2385 101.825C100.376 100.634 101.743 99.6846 103.257 99.0342C104.77 98.3838 106.4 98.0457 108.047 98.0404C110.027 98.0261 111.985 98.4647 113.769 99.3227C115.554 100.181 117.118 101.435 118.344 102.991C120.972 106.206 122.656 110.85 123.677 116.273H138.12C139.128 110.889 140.799 106.27 143.389 103.067C144.598 101.511 146.145 100.249 147.914 99.378C149.682 98.5071 151.625 98.0497 153.596 98.0404H153.737C156.975 98.0404 160.081 99.3268 162.371 101.617C164.661 103.907 165.947 107.012 165.947 110.251C165.947 113.489 164.661 116.595 162.371 118.884C160.081 121.174 156.975 122.461 153.737 122.461H143.53C141.922 139.226 145.354 162.842 147.447 173.266C147.605 174.071 147.439 174.906 146.985 175.589C146.531 176.273 145.826 176.749 145.023 176.915C144.802 176.977 144.575 177.016 144.346 177.03ZM144.346 116.337H153.686C154.648 116.331 155.595 116.096 156.449 115.653C157.303 115.209 158.04 114.569 158.598 113.785C159.178 112.962 159.546 112.009 159.671 111.01C159.795 110.011 159.672 108.996 159.312 108.056C158.879 106.914 158.104 105.933 157.092 105.248C156.08 104.563 154.882 104.207 153.66 104.228H153.584C152.525 104.234 151.483 104.49 150.543 104.975C149.603 105.461 148.791 106.163 148.174 107.023C146.202 109.794 144.893 112.98 144.346 116.337ZM108.047 104.292C107.235 104.293 106.43 104.459 105.683 104.779C104.936 105.099 104.261 105.567 103.7 106.154C103.138 106.742 102.702 107.437 102.416 108.198C102.13 108.959 102.002 109.77 102.038 110.582C102.196 112.199 102.965 113.695 104.189 114.765C105.412 115.834 106.998 116.396 108.622 116.337H117.374C116.844 112.964 115.533 109.761 113.546 106.984C112.91 106.131 112.079 105.441 111.123 104.973C110.166 104.505 109.112 104.272 108.047 104.292Z" fill="white"/>
<path d="M176.851 173.942H87.1562V205.903H101.714C104.623 214.069 117.025 220.206 132.004 220.206C146.982 220.206 159.371 214.069 162.28 205.903H176.851V173.942Z" fill="url(#paint1_linear_6293_31389)"/>
<path d="M181.478 170.854H82.5078V177.043H181.478V170.854Z" fill="#74DFFF"/>
<path d="M181.478 186.829H82.5078V193.017H181.478V186.829Z" fill="#74DFFF"/>
<path d="M181.478 202.815H82.5078V209.003H181.478V202.815Z" fill="#74DFFF"/>
</g>
<path d="M217.951 31.9126L224.16 34.5451C225.505 35.1151 225.505 37.0204 224.16 37.5904L217.951 40.2229C217.161 40.5576 216.532 41.1867 216.197 41.9773L213.564 48.1867C212.994 49.5312 211.089 49.5312 210.519 48.1867L207.886 41.9773C207.551 41.1874 206.922 40.5583 206.132 40.2229L199.922 37.5904C198.578 37.0204 198.578 35.1151 199.922 34.5451L206.132 31.9126C206.922 31.5778 207.551 30.9488 207.886 30.1582L210.519 23.9488C211.089 22.6043 212.994 22.6043 213.564 23.9488L216.197 30.1582C216.532 30.9488 217.161 31.5778 217.951 31.9126Z" fill="#74DFFF"/>
<path opacity="0.15" d="M224.163 34.5447L223.373 34.21C223.183 34.2552 222.992 34.3074 222.805 34.3867L216.595 37.0193C214.965 37.7103 213.688 38.9887 212.996 40.6184L210.364 46.8279C210.284 47.0144 210.232 47.2058 210.188 47.3964L210.522 48.1856C211.092 49.53 212.998 49.53 213.567 48.1856L216.2 41.9761C216.535 41.1863 217.164 40.5572 217.954 40.2218L224.164 37.5892C225.508 37.02 225.508 35.1146 224.163 34.5447Z" fill="#74DFFF"/>
<path opacity="0.3" d="M211.09 31.5166L213.723 25.3072C213.802 25.1207 213.854 24.93 213.899 24.7386L213.564 23.9488C212.994 22.6043 211.089 22.6043 210.519 23.9488L207.886 30.1582C207.551 30.9481 206.922 31.5772 206.132 31.9126L199.922 34.5451C198.578 35.1151 198.578 37.0204 199.922 37.5904L200.712 37.9251C200.903 37.8805 201.094 37.8284 201.28 37.749L207.49 35.1165C209.121 34.4247 210.398 33.1471 211.09 31.5166Z" fill="#74DFFF"/>
<path d="M210.453 31.245L212.045 27.4893" stroke="#74DFFF" stroke-width="3" stroke-miterlimit="10" stroke-linecap="round" stroke-linejoin="round"/>
</g>
<defs>
<linearGradient id="paint0_linear_6293_31389" x1="132.569" y1="189.06" x2="132.569" y2="2.74278" gradientUnits="userSpaceOnUse">
<stop stop-color="#FFF7EF"/>
<stop offset="0.401" stop-color="#97C0FF"/>
<stop offset="0.591" stop-color="#96DAFF"/>
<stop offset="1" stop-color="#BFFFFF"/>
</linearGradient>
<linearGradient id="paint1_linear_6293_31389" x1="132.008" y1="216.027" x2="132.008" y2="174.735" gradientUnits="userSpaceOnUse">
<stop stop-color="#6C6865"/>
<stop offset="0.401" stop-color="#7AAEFC"/>
<stop offset="0.591" stop-color="#B8C1FC"/>
<stop offset="1" stop-color="#D2D4D4"/>
</linearGradient>
<clipPath id="clip0_6293_31389">
<rect width="264" height="240" fill="white"/>
</clipPath>
<clipPath id="clip1_6293_31389">
<rect width="136.086" height="197.94" fill="white" transform="translate(63.9609 22.2656)"/>
</clipPath>
</defs>
</svg>
