<svg width="264" height="240" viewBox="0 0 264 240" fill="none" xmlns="http://www.w3.org/2000/svg">
<g clip-path="url(#clip0_6293_31675)">
<path d="M132 240.003C198.274 240.003 252 186.276 252 120C252 53.7241 198.274 -0.00292969 132 -0.00292969C65.7258 -0.00292969 12 53.7241 12 120C12 186.276 65.7258 240.003 132 240.003Z" fill="#E5F8FF"/>
<path d="M209.936 117.526C209.936 157.833 177.252 190.517 136.945 190.517C96.637 190.517 63.9531 157.833 63.9531 117.526C63.9531 77.2181 96.637 44.5342 136.945 44.5342C177.252 44.5342 209.936 77.2181 209.936 117.526Z" fill="white"/>
<path d="M192.622 117.526C192.622 155.784 161.6 186.806 123.342 186.806C85.0845 186.806 54.0625 155.784 54.0625 117.526C54.0625 79.2676 85.0845 48.2456 123.342 48.2456C161.6 48.2456 192.622 79.2676 192.622 117.526Z" fill="url(#paint0_linear_6293_31675)"/>
<path d="M143.509 130.992L129.127 116.611C128.825 116.309 128.487 116.074 128.135 115.87V86.4424C128.135 83.7937 125.989 81.6484 123.341 81.6484C120.692 81.6484 118.547 83.7937 118.547 86.4424V120C118.547 122.648 120.692 124.794 123.341 124.794C123.468 124.794 123.59 124.765 123.715 124.755L136.73 137.771C138.602 139.643 141.637 139.643 143.509 137.771C145.381 135.899 145.381 132.864 143.509 130.992Z" fill="#2A3146"/>
<path d="M123.338 108.015C120.795 108.015 118.356 109.025 116.558 110.823C114.76 112.621 113.75 115.06 113.75 117.602C113.75 120.145 114.76 122.584 116.558 124.382C118.356 126.18 120.795 127.19 123.338 127.19C125.881 127.19 128.319 126.18 130.117 124.382C131.916 122.584 132.926 120.145 132.926 117.602C132.926 115.06 131.916 112.621 130.117 110.823C128.319 109.025 125.881 108.015 123.338 108.015Z" fill="white"/>
<path d="M200.631 41.8091L206.84 44.4416C208.184 45.0116 208.184 46.9169 206.84 47.4868L200.631 50.1194C199.841 50.4541 199.212 51.0832 198.876 51.8737L196.244 58.0832C195.674 59.4277 193.768 59.4277 193.198 58.0832L190.566 51.8737C190.231 51.0839 189.602 50.4548 188.812 50.1194L182.602 47.4868C181.258 46.9169 181.258 45.0116 182.602 44.4416L188.812 41.8091C189.601 41.4743 190.23 40.8452 190.566 40.0547L193.198 33.8453C193.768 32.5008 195.674 32.5008 196.244 33.8453L198.876 40.0547C199.212 40.8452 199.841 41.4743 200.631 41.8091Z" fill="#74DFFF"/>
<path opacity="0.15" d="M206.843 44.4417L206.053 44.1069C205.862 44.1522 205.672 44.2044 205.484 44.2837L199.275 46.9163C197.645 47.6073 196.368 48.8856 195.676 50.5154L193.043 56.7249C192.964 56.9114 192.912 57.1027 192.867 57.2934L193.202 58.0825C193.772 59.427 195.677 59.427 196.247 58.0825L198.88 51.8731C199.214 51.0833 199.844 50.4542 200.634 50.1188L206.843 47.4862C208.187 46.9169 208.187 45.0116 206.843 44.4417Z" fill="#74DFFF"/>
<path opacity="0.3" d="M193.77 41.4136L196.402 35.2041C196.482 35.0176 196.534 34.827 196.578 34.6356L196.244 33.8458C195.674 32.5013 193.768 32.5013 193.198 33.8458L190.566 40.0552C190.231 40.845 189.602 41.4741 188.812 41.8095L182.602 44.4421C181.258 45.012 181.258 46.9174 182.602 47.4873L183.391 47.8221C183.583 47.7775 183.773 47.7253 183.96 47.646L190.169 45.0134C191.8 44.3217 193.078 43.0441 193.77 41.4136Z" fill="#74DFFF"/>
<path d="M193.133 41.142L194.725 37.3862" stroke="#74DFFF" stroke-width="3" stroke-miterlimit="10" stroke-linecap="round" stroke-linejoin="round"/>
<path d="M210.623 19.5623L214.591 21.2442C215.449 21.6083 215.449 22.8256 214.591 23.1898L210.623 24.8717C210.119 25.0855 209.717 25.4874 209.503 25.9925L207.821 29.9596C207.456 30.8186 206.239 30.8186 205.875 29.9596L204.193 25.9925C203.979 25.4879 203.577 25.086 203.072 24.8717L199.105 23.1898C198.246 22.8256 198.246 21.6083 199.105 21.2442L203.072 19.5623C203.577 19.3484 203.979 18.9465 204.193 18.4414L205.875 14.4743C206.239 13.6153 207.456 13.6153 207.821 14.4743L209.503 18.4414C209.717 18.9465 210.119 19.3484 210.623 19.5623Z" fill="#74DFFF"/>
<path opacity="0.15" d="M214.593 21.2441L214.088 21.0303C213.966 21.0592 213.845 21.0925 213.725 21.1432L209.758 22.8251C208.717 23.2666 207.9 24.0833 207.458 25.1246L205.777 29.0917C205.726 29.2109 205.693 29.3331 205.664 29.455L205.878 29.9591C206.242 30.8181 207.459 30.8181 207.823 29.9591L209.505 25.992C209.719 25.4874 210.121 25.0855 210.626 24.8712L214.593 23.1892C215.452 22.8256 215.452 21.6083 214.593 21.2441Z" fill="#74DFFF"/>
<path opacity="0.3" d="M206.24 19.3093L207.922 15.3422C207.973 15.223 208.006 15.1012 208.034 14.9789L207.821 14.4743C207.456 13.6153 206.239 13.6153 205.875 14.4743L204.193 18.4414C203.979 18.9461 203.577 19.348 203.072 19.5623L199.105 21.2442C198.246 21.6083 198.246 22.8256 199.105 23.1898L199.609 23.4036C199.732 23.3751 199.853 23.3418 199.973 23.2911L203.94 21.6092C204.982 21.1673 205.798 20.351 206.24 19.3093Z" fill="#74DFFF"/>
<path d="M205.828 19.1358L206.845 16.7363" stroke="#74DFFF" stroke-width="3" stroke-miterlimit="10" stroke-linecap="round" stroke-linejoin="round"/>
</g>
<defs>
<linearGradient id="paint0_linear_6293_31675" x1="123.892" y1="200.616" x2="123.892" y2="30.4111" gradientUnits="userSpaceOnUse">
<stop stop-color="#FFF7EF"/>
<stop offset="0.401" stop-color="#97C0FF"/>
<stop offset="0.591" stop-color="#96DAFF"/>
<stop offset="1" stop-color="#BFFFFF"/>
</linearGradient>
<clipPath id="clip0_6293_31675">
<rect width="264" height="240" fill="white"/>
</clipPath>
</defs>
</svg>
