<svg width="38" height="40" viewBox="0 0 38 40" fill="none" xmlns="http://www.w3.org/2000/svg">
<path d="M10.614 6.34284C11.0793 6.34284 11.4566 5.96616 11.4566 5.5015C11.4566 5.03684 11.0793 4.66016 10.614 4.66016C10.1487 4.66016 9.77148 5.03684 9.77148 5.5015C9.77148 5.96616 10.1487 6.34284 10.614 6.34284Z" fill="#EC432D"/>
<path d="M10.6277 16.004C11.093 16.004 11.4702 15.6273 11.4702 15.1626C11.4702 14.698 11.093 14.3213 10.6277 14.3213C10.1624 14.3213 9.78516 14.698 9.78516 15.1626C9.78516 15.6273 10.1624 16.004 10.6277 16.004Z" fill="#EC432D"/>
<path d="M27.3816 35.3399C27.8469 35.3399 28.2241 34.9632 28.2241 34.4986C28.2241 34.0339 27.8469 33.6572 27.3816 33.6572C26.9163 33.6572 26.5391 34.0339 26.5391 34.4986C26.5391 34.9632 26.9163 35.3399 27.3816 35.3399Z" fill="#EC432D"/>
<path d="M2.24488 20.8419C2.7102 20.8419 3.08741 20.4652 3.08741 20.0005C3.08741 19.5359 2.7102 19.1592 2.24488 19.1592C1.77956 19.1592 1.40234 19.5359 1.40234 20.0005C1.40234 20.4652 1.77956 20.8419 2.24488 20.8419Z" fill="#EC432D"/>
<path d="M35.7644 20.8419C36.2297 20.8419 36.6069 20.4652 36.6069 20.0005C36.6069 19.5359 36.2297 19.1592 35.7644 19.1592C35.2991 19.1592 34.9219 19.5359 34.9219 20.0005C34.9219 20.4652 35.2991 20.8419 35.7644 20.8419Z" fill="#EC432D"/>
<path d="M27.3816 6.34284C27.8469 6.34284 28.2241 5.96616 28.2241 5.5015C28.2241 5.03684 27.8469 4.66016 27.3816 4.66016C26.9163 4.66016 26.5391 5.03684 26.5391 5.5015C26.5391 5.96616 26.9163 6.34284 27.3816 6.34284Z" fill="#EC432D"/>
<path d="M27.3816 25.6798C27.8469 25.6798 28.2241 25.3031 28.2241 24.8384C28.2241 24.3738 27.8469 23.9971 27.3816 23.9971C26.9163 23.9971 26.5391 24.3738 26.5391 24.8384C26.5391 25.3031 26.9163 25.6798 27.3816 25.6798Z" fill="#EC432D"/>
<path d="M10.6277 25.6651C11.093 25.6651 11.4702 25.2884 11.4702 24.8238C11.4702 24.3591 11.093 23.9824 10.6277 23.9824C10.1624 23.9824 9.78516 24.3591 9.78516 24.8238C9.78516 25.2884 10.1624 25.6651 10.6277 25.6651Z" fill="#EC432D"/>
<path d="M27.3816 16.0176C27.8469 16.0176 28.2241 15.641 28.2241 15.1763C28.2241 14.7116 27.8469 14.335 27.3816 14.335C26.9163 14.335 26.5391 14.7116 26.5391 15.1763C26.5391 15.641 26.9163 16.0176 27.3816 16.0176Z" fill="#EC432D"/>
<path d="M18.9968 30.502C19.4621 30.502 19.8394 30.1253 19.8394 29.6607C19.8394 29.196 19.4621 28.8193 18.9968 28.8193C18.5315 28.8193 18.1543 29.196 18.1543 29.6607C18.1543 30.1253 18.5315 30.502 18.9968 30.502Z" fill="#EC432D"/>
<path d="M19.0125 11.1798C19.4778 11.1798 19.855 10.8031 19.855 10.3384C19.855 9.87375 19.4778 9.49707 19.0125 9.49707C18.5471 9.49707 18.1699 9.87375 18.1699 10.3384C18.1699 10.8031 18.5471 11.1798 19.0125 11.1798Z" fill="#EC432D"/>
<path d="M10.614 35.3399C11.0793 35.3399 11.4566 34.9632 11.4566 34.4986C11.4566 34.0339 11.0793 33.6572 10.614 33.6572C10.1487 33.6572 9.77148 34.0339 9.77148 34.4986C9.77148 34.9632 10.1487 35.3399 10.614 35.3399Z" fill="#EC432D"/>
<path d="M12.0324 4.6596C15.1498 0.817483 20.7807 0.214523 24.6423 3.32748C25.1338 3.72011 25.5832 4.16882 25.9764 4.6596C26.1168 4.42122 26.3134 4.21089 26.5661 4.07066C26.7346 3.97251 26.9031 3.91642 27.0997 3.88837C23.5471 -0.570728 17.0455 -1.29989 12.5941 2.24776C11.9903 2.73854 11.4286 3.28541 10.9512 3.88837C11.3865 3.98653 11.7937 4.26698 12.0324 4.6596Z" fill="#52C7EA"/>
<path d="M20.4156 9.49699C21.7917 7.78626 23.7577 6.65045 25.9342 6.29989C25.7095 5.89325 25.6674 5.40247 25.8359 4.96777C23.2662 5.34638 20.9352 6.69252 19.3203 8.73978C19.7837 8.80989 20.1769 9.09034 20.4156 9.49699Z" fill="#52C7EA"/>
<path d="M15.1218 7.37961C16.0766 7.92649 16.9051 8.65565 17.5932 9.51101C17.7336 9.27263 17.9302 9.06229 18.183 8.92207C18.3374 8.83794 18.5059 8.76783 18.6885 8.73978C17.0877 6.69252 14.7426 5.33235 12.1729 4.96777C12.2431 5.13604 12.2712 5.33235 12.2712 5.51464C12.2712 5.79509 12.201 6.06151 12.0605 6.29989C13.1418 6.46816 14.1809 6.83274 15.1218 7.37961Z" fill="#52C7EA"/>
<path d="M27.3945 13.5355C27.872 13.5355 28.3213 13.7458 28.6302 14.1104C29.5992 11.6846 29.5992 8.99227 28.6443 6.56641C28.5179 6.70663 28.3775 6.83283 28.209 6.93099C27.9703 7.07121 27.7035 7.14132 27.4226 7.14132C28.223 9.2026 28.209 11.4742 27.3945 13.5355Z" fill="#52C7EA"/>
<path d="M25.9756 14.3212C26.2143 13.9146 26.6216 13.6481 27.085 13.564C25.4701 11.5308 23.1391 10.1846 20.5694 9.79199C20.7238 10.2407 20.6817 10.7315 20.457 11.1381C22.6195 11.4887 24.5854 12.6245 25.9756 14.3212Z" fill="#52C7EA"/>
<path d="M29.7112 6.48289C34.5136 7.75892 37.3502 12.6808 36.0723 17.4624C35.9881 17.7709 35.8898 18.0653 35.7774 18.3598C36.0583 18.3598 36.3391 18.4299 36.5779 18.5701C36.7464 18.6683 36.8868 18.7945 37.0132 18.9347C37.1536 18.5701 37.28 18.2056 37.3783 17.841C38.8527 12.3302 35.5809 6.66518 30.0623 5.17881C29.6831 5.08065 29.318 4.99652 28.9248 4.94043C29.0793 5.38914 29.0372 5.87993 28.8125 6.28657C29.1214 6.34266 29.4163 6.39875 29.7112 6.48289Z" fill="#52C7EA"/>
<path d="M32.5618 15.8772C31.4384 15.2322 30.2027 14.7975 28.9248 14.6152C29.0793 15.0639 29.0512 15.5547 28.8125 15.9614C30.989 16.2979 32.955 17.4197 34.3451 19.1304C34.5839 18.7378 34.9911 18.4574 35.4545 18.3732C34.6541 17.3776 33.6711 16.5223 32.5618 15.8772Z" fill="#52C7EA"/>
<path d="M29.0235 24.8384C29.0235 25.0207 28.9954 25.203 28.9252 25.3853C31.509 25.0207 33.84 23.6606 35.4548 21.6273C34.9915 21.5572 34.5842 21.2768 34.3455 20.8701C32.9553 22.5808 30.9754 23.7167 28.7988 24.0532C28.9533 24.2775 29.0235 24.558 29.0235 24.8384Z" fill="#52C7EA"/>
<path d="M27.4082 23.1973C27.8856 23.2113 28.3209 23.4216 28.6299 23.7862C29.5847 21.3603 29.5847 18.6681 28.6299 16.2422C28.3209 16.5927 27.8856 16.8031 27.4222 16.8171C28.2086 18.8644 28.1946 21.136 27.4082 23.1973Z" fill="#52C7EA"/>
<path d="M27.4219 32.8584C27.8993 32.8724 28.3346 33.0828 28.6435 33.4473C29.6125 31.0215 29.5984 28.3292 28.6435 25.9033C28.3346 26.2679 27.8993 26.4782 27.4219 26.4923C28.2082 28.5255 28.2082 30.7971 27.4219 32.8584Z" fill="#52C7EA"/>
<path d="M37.3779 22.1592C37.2796 21.7806 37.1532 21.416 37.0128 21.0654C36.7039 21.43 36.2545 21.6403 35.7911 21.6403C35.9035 21.9208 36.0017 22.2153 36.086 22.5097C37.3779 27.3054 34.5273 32.2412 29.7249 33.5313C29.43 33.6014 29.1351 33.6715 28.8262 33.7136C29.0649 34.1202 29.107 34.625 28.9385 35.0597C29.3176 35.0036 29.6968 34.9195 30.0759 34.8213C35.5805 33.335 38.8664 27.6699 37.3779 22.1592Z" fill="#52C7EA"/>
<path d="M20.5417 30.2076C23.1254 29.829 25.4564 28.4828 27.0853 26.4496C26.6219 26.3655 26.2147 26.085 25.976 25.6924C24.5858 27.3891 22.6199 28.5249 20.4434 28.8755C20.668 29.2821 20.6961 29.7729 20.5417 30.2076Z" fill="#52C7EA"/>
<path d="M22.887 32.6207C21.9322 32.0738 21.1037 31.3446 20.4156 30.4893C20.2752 30.7276 20.0786 30.938 19.8258 31.0782C19.6714 31.1623 19.5029 31.2324 19.3203 31.2605C20.9211 33.3077 23.2521 34.6679 25.8359 35.0325C25.6674 34.5978 25.7095 34.107 25.9482 33.7004C24.867 33.5321 23.8279 33.1675 22.887 32.6207Z" fill="#52C7EA"/>
<path d="M15.1218 32.6203C14.1809 33.1672 13.1418 33.5318 12.0605 33.714C12.2852 34.1207 12.3133 34.6115 12.1588 35.0462C14.7426 34.6676 17.0736 33.3074 18.6744 31.2601C18.211 31.176 17.8179 30.8956 17.5791 30.5029C16.8911 31.3583 16.0626 32.0734 15.1218 32.6203Z" fill="#52C7EA"/>
<path d="M25.9771 35.3408C22.8597 39.1829 17.2147 39.7859 13.3672 36.6729C12.8757 36.2803 12.4263 35.8316 12.0332 35.3408C11.8927 35.5792 11.6962 35.7895 11.4434 35.9298C11.2749 36.0279 11.1064 36.084 10.9238 36.112C14.4765 40.5711 20.964 41.3003 25.4294 37.7527C26.0333 37.2619 26.595 36.715 27.0724 36.112C26.623 36.0279 26.2158 35.7475 25.9771 35.3408Z" fill="#52C7EA"/>
<path d="M10.6005 26.4642C10.3197 26.4642 10.0388 26.3941 9.80011 26.2539C9.64564 26.1557 9.49118 26.0435 9.37884 25.9033C8.40993 28.3292 8.40993 31.0215 9.3648 33.4473C9.47714 33.3071 9.6316 33.1809 9.78607 33.0828C10.0248 32.9425 10.3056 32.8724 10.5724 32.8724C9.78607 30.7971 9.78607 28.5115 10.6005 26.4642Z" fill="#52C7EA"/>
<path d="M12.0332 25.6787C11.7944 26.0854 11.3872 26.3518 10.9238 26.4359C12.5387 28.4692 14.8697 29.8293 17.4535 30.2219C17.299 29.7732 17.3271 29.2825 17.5658 28.8758C15.3893 28.5112 13.4233 27.3754 12.0332 25.6787Z" fill="#52C7EA"/>
<path d="M0.980336 18.9344C1.28926 18.5698 1.73862 18.3735 2.20201 18.3595C2.08967 18.079 1.99138 17.7845 1.90712 17.4901C0.615238 12.6944 3.46581 7.75857 8.26825 6.48254C8.56314 6.41242 8.85803 6.34231 9.16695 6.30025C8.92824 5.8936 8.88611 5.38879 9.05462 4.9541C8.67548 5.01019 8.29634 5.09432 7.93124 5.19248C2.41264 6.66483 -0.859196 12.3439 0.615238 17.8546C0.727576 18.2192 0.839913 18.5698 0.980336 18.9344Z" fill="#52C7EA"/>
<path d="M5.44739 24.1233C6.57076 24.7683 7.80648 25.203 9.08432 25.3853C8.92986 24.9366 8.95794 24.4458 9.18262 24.0392C7.00607 23.7026 5.04016 22.5668 3.64998 20.8701C3.41126 21.2627 3.00404 21.5432 2.55469 21.6273C3.34105 22.6229 4.32401 23.4783 5.44739 24.1233Z" fill="#52C7EA"/>
<path d="M8.28329 33.5173C3.48084 32.2272 0.630272 27.3054 1.90811 22.5097C1.99237 22.2153 2.09066 21.9208 2.203 21.6403C1.92216 21.6403 1.64131 21.5702 1.40259 21.43C1.24813 21.3319 1.09367 21.2057 0.981327 21.0654C0.840905 21.416 0.714525 21.7946 0.616229 22.1592C-0.858205 27.6699 2.39959 33.3209 7.91819 34.8073C8.29733 34.9055 8.67647 34.9896 9.05561 35.0457C8.90114 34.597 8.94327 34.1202 9.16795 33.7136C8.8871 33.6575 8.57817 33.6014 8.28329 33.5173Z" fill="#52C7EA"/>
<path d="M10.6005 13.5221C9.80011 11.4748 9.80011 9.20323 10.5865 7.15597C10.1231 7.14195 9.67373 6.93161 9.3648 6.58105C8.40993 9.00692 8.40993 11.6992 9.37884 14.111C9.67373 13.7465 10.1231 13.5221 10.6005 13.5221Z" fill="#52C7EA"/>
<path d="M8.98603 15.1618C8.98603 14.9795 9.02815 14.7972 9.08432 14.6289C6.50055 15.0075 4.16954 16.3537 2.55469 18.3869C2.73724 18.4149 2.91979 18.485 3.07425 18.5692C3.31297 18.7094 3.50956 18.9057 3.64998 19.1441C5.04016 17.4334 7.02012 16.2976 9.2107 15.961C9.05624 15.7226 8.98603 15.4422 8.98603 15.1618Z" fill="#52C7EA"/>
<path d="M17.4671 9.77832C14.8974 10.1709 12.5664 11.5171 10.9375 13.5503C11.4009 13.6345 11.7941 13.9149 12.0328 14.3216C13.423 12.6249 15.3889 11.489 17.5654 11.1385C17.3408 10.7178 17.2986 10.227 17.4671 9.77832Z" fill="#52C7EA"/>
<path d="M10.5871 16.8028C10.1237 16.7888 9.67435 16.5784 9.37946 16.2139C8.42459 18.6397 8.41055 21.332 9.36542 23.7579C9.67435 23.4073 10.1097 23.183 10.5731 23.183C9.80073 21.1217 9.80073 18.8501 10.5871 16.8028Z" fill="#52C7EA"/>
</svg>
