<?xml version="1.0" encoding="UTF-8"?>
<svg viewBox="0 0 24 24" version="1.1" xmlns="http://www.w3.org/2000/svg" xmlns:xlink="http://www.w3.org/1999/xlink">
    <g id="icon/car" stroke="none" stroke-width="1" fill="none" fill-rule="evenodd">
        <path d="M5,10 L6.5,5.5 L17.5,5.5 L19,10 M17.5,15 C16.6715729,15 16,14.3284271 16,13.5 C16,12.6715729 16.6715729,12 17.5,12 C18.3284271,12 19,12.6715729 19,13.5 C19,14.3284271 18.3284271,15 17.5,15 M6.5,15 C5.67157288,15 5,14.3284271 5,13.5 C5,12.6715729 5.67157288,12 6.5,12 C7.32842712,12 8,12.6715729 8,13.5 C8,14.3284271 7.32842712,15 6.5,15 M18.92,5 C18.72,4.42 18.16,4 17.5,4 L6.5,4 C5.84,4 5.28,4.42 5.08,5 L3,11 L3,19 C3,19.5522847 3.44771525,20 4,20 L5,20 C5.55228475,20 6,19.5522847 6,19 L6,18 L18,18 L18,19 C18,19.5522847 18.4477153,20 19,20 L20,20 C20.5522847,20 21,19.5522847 21,19 L21,11 L18.92,5 Z" id="Shape" fill="#00BAE9" fill-rule="nonzero"></path>
    </g>
</svg>
