<?xml version="1.0" encoding="UTF-8"?>
<svg width="24px" height="24px" viewBox="0 0 24 24" version="1.1" xmlns="http://www.w3.org/2000/svg" xmlns:xlink="http://www.w3.org/1999/xlink">
    <!-- Generator: Sketch 63 (92445) - https://sketch.com -->
    <title>icon/chip</title>
    <desc>Created with Sketch.</desc>
    <g id="icon/chip" stroke="none" stroke-width="1" fill="none" fill-rule="evenodd">
        <path d="M17,17 L7,17 L7,7 L17,7 M21,11 L21,9 L19,9 L19,7 C19,5.89 18.1,5 17,5 L15,5 L15,3 L13,3 L13,5 L11,5 L11,3 L9,3 L9,5 L7,5 C5.89,5 5,5.89 5,7 L5,9 L3,9 L3,11 L5,11 L5,13 L3,13 L3,15 L5,15 L5,17 C5,18.1045695 5.8954305,19 7,19 L9,19 L9,21 L11,21 L11,19 L13,19 L13,21 L15,21 L15,19 L17,19 C18.1045695,19 19,18.1045695 19,17 L19,15 L21,15 L21,13 L19,13 L19,11 M13,13 L11,13 L11,11 L13,11 M15,9 L9,9 L9,15 L15,15 L15,9 Z" id="Shape" fill="#00BAE9" fill-rule="nonzero"></path>
    </g>
</svg>