<?xml version="1.0" encoding="UTF-8"?>
<svg width="27px" height="24px" viewBox="0 0 27 24" version="1.1" xmlns="http://www.w3.org/2000/svg" xmlns:xlink="http://www.w3.org/1999/xlink">
    <g id="Page-1" stroke="none" stroke-width="1" fill="none" fill-rule="evenodd">
        <g id="Desktop-HD-Copy-4" transform="translate(-1025.000000, -1393.000000)" fill="#52C7EA" fill-rule="nonzero">
            <g id="Group-17" transform="translate(165.000000, 785.000000)">
                <g id="Group-30-Copy" transform="translate(0.000000, 512.000000)">
                    <g id="Group-24" transform="translate(0.000000, 68.000000)">
                        <g id="Group-9-Copy-3" transform="translate(858.000000, 24.000000)">
                            <g id="Group-4">
                                <g id="icon/cloud">
                                    <g id="screenshot-d.pr-2019.11.14-16_03_31-(76)" transform="translate(2.000000, 4.000000)">
                                        <path d="M19.5153351,11.8375666 C19.9654767,11.8375666 20.3306859,12.2023511 20.3306859,12.6529174 L20.3306859,14.6700613 C20.3306859,15.1202029 19.9654767,15.4854121 19.5153351,15.4854121 L17.9589495,15.4854121 L17.9589495,16.0841853 L19.5153351,16.0841853 C19.9654767,16.0841853 20.3306859,16.4493945 20.3306859,16.899536 L20.3306859,18.9166798 C20.3306859,19.3668214 19.9654767,19.7320306 19.5153351,19.7320306 L17.9589495,19.7320306 L17.9589495,20.3308038 L19.5153351,20.3308038 C19.9654767,20.3308038 20.3306859,20.696013 20.3306859,21.1461547 L20.3306859,23.1632985 C20.3306859,23.6134401 19.9654767,23.9786493 19.5153351,23.9786493 L7.48466483,23.9786493 C7.03452326,23.9786493 6.66931407,23.6134401 6.66931407,23.1632985 L6.66931407,21.1461547 C6.66931407,20.696013 7.03452326,20.3308038 7.48466483,20.3308038 L9.04105053,20.3308038 L9.04105053,19.7320306 L7.48466483,19.7320306 C7.03452326,19.7320306 6.66931407,19.3668214 6.66931407,18.9166798 L6.66931407,16.899536 C6.66931407,16.4493945 7.03452326,16.0841853 7.48466483,16.0841853 L9.04105053,16.0841853 L9.04105053,15.4854121 L7.48466483,15.4854121 C7.03452326,15.4854121 6.66931407,15.1202029 6.66931407,14.6700613 L6.66931407,12.6529174 C6.66931407,12.2027758 7.03452326,11.8375666 7.48466483,11.8375666 L19.5153351,11.8375666 Z M7.87535413,14.3341533 L13.5021235,14.3341533 L13.5021235,12.9879753 L7.87535413,12.9879753 L7.87535413,14.3341533 Z M7.87535413,18.5807723 L13.5021235,18.5807723 L13.5021235,17.2345943 L7.87535413,17.2345943 L7.87535413,18.5807723 Z M13.5021235,22.82739 L13.5021235,21.4812118 L7.87535413,21.4812118 L7.87535413,22.82739 L13.5021235,22.82739 Z M17.0743783,20.3308033 L17.0739535,20.3308033 L17.0739535,19.7320302 L9.92562103,19.7320302 L9.92562103,20.3308033 L17.0743783,20.3308033 Z M17.0743783,16.0841857 L17.0739535,16.0841857 L17.0739535,15.4854126 L9.92562103,15.4854126 L9.92562103,16.0841857 L17.0743783,16.0841857 Z M24.3033973,6.53566363 C25.9171124,7.45717983 27,9.19362212 27,11.1899574 C27,14.1668368 24.5964139,16.5789161 21.6195345,16.5789161 L21.1481598,16.5789161 C21.0887071,16.2774062 20.9485687,16.0056226 20.7489777,15.7847984 C21.0165147,15.4875352 21.1778862,15.0968462 21.1778862,14.6679379 L21.1778862,12.650794 C21.1778862,11.7335245 20.4347279,10.9861197 19.5174584,10.9861197 L7.48254168,10.9861197 C6.56527211,10.9861197 5.82211388,11.7335245 5.82211388,12.650794 L5.82211388,14.6679379 C5.82211388,15.0968462 5.98348537,15.4875352 6.25102233,15.7847984 C6.05992451,15.9971294 5.91978609,16.2604198 5.86033344,16.5534364 C2.57769739,16.2731596 0,13.5213511 0,10.1622758 C0,6.88388635 2.45029884,4.18728367 5.62676943,3.80508803 C5.94951243,2.32301821 7.27870399,1.21040419 8.86693929,1.21040419 C9.41899968,1.21040419 9.93284052,1.34629599 10.3872287,1.58410661 C11.508336,0.611631006 12.9734193,0.0213510593 14.5701478,0.0213510593 C16.9440075,0.0213510593 19.0163574,1.31656966 20.1204782,3.22754793 C20.3965083,3.1511088 20.6810317,3.11288924 20.9825416,3.11288924 C22.8170808,3.11288924 24.3118905,4.60345228 24.3118905,6.43799142 C24.3118905,6.46771774 24.3118905,6.50593731 24.3033973,6.53566363 Z" id="Combined-Shape"></path>
                                    </g>
                                </g>
                            </g>
                        </g>
                    </g>
                </g>
            </g>
        </g>
    </g>
</svg>
