<svg width="40" height="35" viewBox="0 0 40 35" fill="none" xmlns="http://www.w3.org/2000/svg">
  <g clip-path="url(#clip0)">
    <path d="M15.9223 21.493H26.699V24.9437C26.699 26.3239 25.534 27.507 24.1748 27.507H12.3301L4.85437 35V27.6056H2.52427C1.16505 27.6056 0 26.4225 0 25.0423V10.1549C0 8.77465 1.16505 7.59155 2.52427 7.59155H11.9417V17.5493C11.8447 19.7183 13.6893 21.493 15.9223 21.493Z" fill="#52C7EA"/>
    <path d="M40.0004 17.4507C40.0004 18.831 38.8353 20.0141 37.4761 20.0141H35.146V27.4085L27.6703 20.0141H15.9227C14.5635 20.0141 13.3984 18.831 13.3984 17.4507V2.56338C13.3984 1.1831 14.5635 0 15.9227 0H37.5732C38.9324 0 40.0975 1.1831 40.0975 2.56338V17.4507H40.0004Z" fill="#52C7EA"/>
    <path d="M40.0004 2.56338V17.4507C40.0004 18.831 38.8353 20.0141 37.4761 20.0141H35.146V27.4085L27.6703 20.0141H15.9227C14.5635 20.0141 13.3984 18.831 13.3984 17.4507V2.56338C13.3984 1.1831 14.5635 0 15.9227 0H37.5732C38.9324 0 40.0004 1.1831 40.0004 2.56338Z" fill="#52C7EA"/>
  </g>
  <defs>
    <clipPath id="clip0">
      <rect width="40" height="35" fill="white"/>
    </clipPath>
  </defs>
</svg>
