<?xml version="1.0" encoding="UTF-8"?>
<svg width="36px" height="36px" viewBox="0 0 24 24" version="1.1" xmlns="http://www.w3.org/2000/svg" xmlns:xlink="http://www.w3.org/1999/xlink">
    <g id="icon/community-blue" stroke="none" stroke-width="1" fill="none" fill-rule="evenodd">
        <g id="chat" transform="translate(0.000000, 2.000000)" fill="#52C7EA" fill-rule="nonzero">
            <path d="M22.5,0 L9,0 C8.175,0 7.5,0.675 7.5,1.5 L7.5,4.5 L1.5,4.5 C0.675,4.5 0,5.175 0,6 L0,15 C0,15.825 0.675,16.5 1.5,16.5 L3,16.5 L3,21 L7.5,16.5 L13.5,16.5 C14.325,16.5 15,15.825 15,15 L15,12 L16.5,12 L21,16.5 L21,12 L22.5,12 C23.325,12 24,11.325 24,10.5 L24,1.5 C24,0.675 23.325,0 22.5,0 Z M13.5,15 L6.75,15 L4.5,17.25 L4.5,15 L1.5,15 L1.5,6 L7.5,6 L7.5,10.5 C7.5,11.325 8.175,12 9,12 L13.5,12 L13.5,15 Z M22.5,10.5 L19.5,10.5 L19.5,12.75 L17.25,10.5 L9,10.5 L9,1.5 L22.5,1.5 L22.5,10.5 Z" id="Shape"></path>
        </g>
    </g>
</svg>
