<?xml version="1.0" encoding="UTF-8"?>
<svg viewBox="0 0 24 24" version="1.1" xmlns="http://www.w3.org/2000/svg" xmlns:xlink="http://www.w3.org/1999/xlink">
    <g id="icon/core" stroke="none" stroke-width="1" fill="none" fill-rule="evenodd">
        <path d="M5,3 L7,3 L7,5 L5,5 L5,10 C5,11.1045695 4.1045695,12 3,12 C4.1045695,12 5,12.8954305 5,14 L5,19 L7,19 L7,21 L5,21 C3.93,20.73 3,20.1 3,19 L3,15 C3,13.8954305 2.1045695,13 1,13 L0,13 L0,11 L1,11 C2.1045695,11 3,10.1045695 3,9 L3,5 C3,3.8954305 3.8954305,3 5,3 M19,3 C20.1045695,3 21,3.8954305 21,5 L21,9 C21,10.1045695 21.8954305,11 23,11 L24,11 L24,13 L23,13 C21.8954305,13 21,13.8954305 21,15 L21,19 C21,20.1045695 20.1045695,21 19,21 L17,21 L17,19 L19,19 L19,14 C19,12.8954305 19.8954305,12 21,12 C19.8954305,12 19,11.1045695 19,10 L19,5 L17,5 L17,3 L19,3" id="Shape" fill="#00BAE9" fill-rule="nonzero"></path>
        <path d="M12,10 C13.1045695,10 14,10.8954305 14,12 C14,13.1045695 13.1045695,14 12,14 C10.8954305,14 10,13.1045695 10,12 C10,10.8954305 10.8954305,10 12,10" id="Path" stroke="#00BAE9" stroke-width="0.2" fill="#00BAE9"></path>
    </g>
</svg>
