<?xml version="1.0" encoding="UTF-8"?>
<svg viewBox="0 0 24 24" version="1.1" xmlns="http://www.w3.org/2000/svg" xmlns:xlink="http://www.w3.org/1999/xlink">
    <g id="icon/doc" stroke="none" stroke-width="1" fill="none" fill-rule="evenodd">
        <path d="M6,2 C4.8954305,2 4,2.8954305 4,4 L4,20 C4,21.1045695 4.8954305,22 6,22 L18,22 C19.1045695,22 20,21.1045695 20,20 L20,8 L14,2 L6,2 M6,4 L13,4 L13,9 L18,9 L18,20 L6,20 L6,4 M8,12 L8,14 L16,14 L16,12 L8,12 M8,16 L8,18 L13,18 L13,16 L8,16 Z" id="Shape" fill="#00BAE9" fill-rule="nonzero"></path>
    </g>
</svg>
