<?xml version="1.0" encoding="UTF-8"?>
<svg width="379px" height="413px" viewBox="0 0 379 413" version="1.1" xmlns="http://www.w3.org/2000/svg" xmlns:xlink="http://www.w3.org/1999/xlink">
    <g id="Page-1" stroke="none" stroke-width="1" fill="none" fill-rule="evenodd">
        <g id="Desktop-HD-Copy-4" transform="translate(-896.000000, -192.000000)">
            <g id="screenshot-d.pr-2019.11.14-16_03_31-(63)" transform="translate(896.000000, 192.000000)">
                <g id="Group-6" transform="translate(189.500000, 206.500000) scale(-1, 1) translate(-189.500000, -206.500000) ">
                    <polyline id="Fill-3" fill="#233543" fill-rule="nonzero" points="0.914040376 317.354317 0.491210441 316.62072 182.932916 211.165062 183.355746 211.898658 0.914040376 317.354317"></polyline>
                    <polyline id="Fill-4" fill="#233543" fill-rule="nonzero" points="19.1584619 327.899757 18.7368866 327.166161 201.177337 221.710502 201.600167 222.444098 19.1584619 327.899757"></polyline>
                    <polyline id="Fill-5" fill="#233543" fill-rule="nonzero" points="37.4028833 338.446453 36.9800534 337.712858 219.421759 232.257198 219.844589 232.990794 37.4028833 338.446453"></polyline>
                    <polyline id="Fill-6" fill="#233543" fill-rule="nonzero" points="55.6485595 348.990637 55.2257296 348.257042 237.66618 242.802639 238.08901 243.536234 55.6485595 348.990637"></polyline>
                    <polyline id="Fill-7" fill="#233543" fill-rule="nonzero" points="73.892981 359.537334 73.470151 358.803738 255.910602 253.349336 256.333432 254.082931 73.892981 359.537334"></polyline>
                    <polyline id="Fill-8" fill="#233543" fill-rule="nonzero" points="61.7091229 387.793519 61.2157714 386.93757 274.084502 263.893519 274.577853 264.749468 61.7091229 387.793519"></polyline>
                    <polyline id="Fill-9" fill="#233543" fill-rule="nonzero" points="110.381824 380.62947 109.958994 379.895875 292.399444 274.440216 292.822274 275.173811 110.381824 380.62947"></polyline>
                    <polyline id="Fill-10" fill="#233543" fill-rule="nonzero" points="114.460026 399.421073 114.004361 398.630509 310.612286 284.985656 311.067951 285.77622 114.460026 399.421073"></polyline>
                    <polyline id="Fill-11" fill="#233543" fill-rule="nonzero" points="146.871922 401.721608 146.449092 400.988011 328.889542 295.532353 329.312372 296.265948 146.871922 401.721608"></polyline>
                    <polyline id="Fill-12" fill="#233543" fill-rule="nonzero" points="165.116343 412.265791 164.693513 411.532195 347.133964 306.077792 347.556794 306.811389 165.116343 412.265791"></polyline>
                    <polyline id="Fill-14" fill="#233543" fill-rule="nonzero" points="365.378385 317.358085 182.932916 211.898658 183.355746 211.165062 365.801215 316.624489 365.378385 317.358085"></polyline>
                    <polyline id="Fill-15" fill="#233543" fill-rule="nonzero" points="347.133964 327.902269 164.688494 222.444098 165.111324 221.710502 347.556794 327.168673 347.133964 327.902269"></polyline>
                    <polyline id="Fill-16" fill="#233543" fill-rule="nonzero" points="328.890797 338.448966 146.444073 232.989538 146.866903 232.255942 329.313627 337.71537 328.890797 338.448966"></polyline>
                    <polyline id="Fill-17" fill="#233543" fill-rule="nonzero" points="310.646375 348.99315 128.200906 243.534978 128.623736 242.801383 311.069205 348.259553 310.646375 348.99315"></polyline>
                    <polyline id="Fill-18" fill="#233543" fill-rule="nonzero" points="292.401954 359.539847 109.956485 254.081675 110.379315 253.348079 292.824784 358.80625 292.401954 359.539847"></polyline>
                    <polyline id="Fill-19" fill="#233543" fill-rule="nonzero" points="274.157533 370.08403 91.7120632 264.625859 92.1348931 263.892263 274.580362 369.350434 274.157533 370.08403"></polyline>
                    <polyline id="Fill-20" fill="#233543" fill-rule="nonzero" points="255.914366 380.630727 73.4676417 275.172555 73.8904717 274.438959 256.337196 379.897131 255.914366 380.630727"></polyline>
                    <polyline id="Fill-21" fill="#233543" fill-rule="nonzero" points="237.669944 391.176167 55.2232202 285.716739 55.6460501 284.983144 238.092774 390.442572 237.669944 391.176167"></polyline>
                    <polyline id="Fill-22" fill="#233543" fill-rule="nonzero" points="219.425523 401.721608 36.9800534 296.263436 37.4028833 295.52984 219.848353 400.988011 219.425523 401.721608"></polyline>
                    <polyline id="Fill-23" fill="#233543" fill-rule="nonzero" points="201.182356 412.267047 18.7356319 306.80762 19.1584619 306.074025 201.605186 411.533452 201.182356 412.267047"></polyline>
                    <polyline id="Fill-25" fill="#455E70" fill-rule="nonzero" points="306.548564 309.422939 306.125734 308.689344 315.164508 303.464986 315.587338 304.198581 306.548564 309.422939"></polyline>
                    <polyline id="Fill-26" fill="#455E70" fill-rule="nonzero" points="315.165763 309.422939 306.124479 304.198581 306.547309 303.464986 315.588593 308.689344 315.165763 309.422939"></polyline>
                    <polyline id="Fill-27" fill="#455E70" fill-rule="nonzero" points="324.792985 319.969636 324.370155 319.23604 333.410185 314.010426 333.833014 314.744022 324.792985 319.969636"></polyline>
                    <polyline id="Fill-28" fill="#455E70" fill-rule="nonzero" points="333.410185 319.969636 324.370155 314.744022 324.792985 314.010426 333.833014 319.23604 333.410185 319.969636"></polyline>
                    <polyline id="Fill-29" fill="#455E70" fill-rule="nonzero" points="288.304142 319.969636 287.881312 319.23604 296.921342 314.010426 297.344172 314.744022 288.304142 319.969636"></polyline>
                    <polyline id="Fill-30" fill="#455E70" fill-rule="nonzero" points="296.921342 319.969636 287.881312 314.744022 288.304142 314.010426 297.344172 319.23604 296.921342 319.969636"></polyline>
                    <polyline id="Fill-31" fill="#455E70" fill-rule="nonzero" points="306.548564 330.515076 306.125734 329.78148 315.165763 324.555866 315.588593 325.289462 306.548564 330.515076"></polyline>
                    <polyline id="Fill-32" fill="#455E70" fill-rule="nonzero" points="315.165763 330.515076 306.125734 325.289462 306.548564 324.555866 315.588593 329.78148 315.165763 330.515076"></polyline>
                    <polyline id="Fill-33" fill="#455E70" fill-rule="nonzero" points="260.432498 319.969636 251.39247 314.744022 251.815299 314.010426 260.855328 319.23604 260.432498 319.969636"></polyline>
                    <polyline id="Fill-33-Copy" fill="#455E70" fill-rule="nonzero" points="196.161412 303.873975 187.121384 298.64836 187.544214 297.914765 196.584242 303.140379 196.161412 303.873975"></polyline>
                    <polyline id="Fill-34" fill="#455E70" fill-rule="nonzero" points="270.059721 330.51382 269.636891 329.780225 278.676919 324.555866 279.099749 325.289462 270.059721 330.51382"></polyline>
                    <polyline id="Fill-35" fill="#455E70" fill-rule="nonzero" points="278.676919 330.51382 269.636891 325.289462 270.059721 324.555866 279.099749 329.780225 278.676919 330.51382"></polyline>
                    <polyline id="Fill-36" fill="#455E70" fill-rule="nonzero" points="288.304142 341.060517 287.881312 340.32692 296.921342 335.102563 297.344172 335.836158 288.304142 341.060517"></polyline>
                    <polyline id="Fill-37" fill="#455E70" fill-rule="nonzero" points="296.921342 341.060517 287.881312 335.836158 288.304142 335.102563 297.344172 340.32692 296.921342 341.060517"></polyline>
                    <polyline id="Fill-38" fill="#455E70" fill-rule="nonzero" points="251.815299 341.060517 251.39247 340.32692 260.432498 335.101306 260.855328 335.834902 251.815299 341.060517"></polyline>
                    <polyline id="Fill-39" fill="#455E70" fill-rule="nonzero" points="260.432498 341.060517 251.39247 335.834902 251.815299 335.101306 260.855328 340.32692 260.432498 341.060517"></polyline>
                    <polyline id="Fill-40" fill="#455E70" fill-rule="nonzero" points="270.060976 351.605957 269.638146 350.872361 278.676919 345.646747 279.099749 346.380342 270.060976 351.605957"></polyline>
                    <polyline id="Fill-41" fill="#455E70" fill-rule="nonzero" points="278.678174 351.605957 269.636891 346.380342 270.059721 345.646747 279.101004 350.872361 278.678174 351.605957"></polyline>
                    <polyline id="Fill-42" fill="#455E70" fill-rule="nonzero" points="251.816554 362.151397 251.393724 361.417801 260.433753 356.193443 260.856583 356.927039 251.816554 362.151397"></polyline>
                    <polyline id="Fill-43" fill="#455E70" fill-rule="nonzero" points="260.433753 362.151397 251.393724 356.927039 251.816554 356.193443 260.856583 361.417801 260.433753 362.151397"></polyline>
                    <polyline id="Fill-46" fill="#455E70" fill-rule="nonzero" points="233.572133 372.696837 233.149303 371.963242 242.189331 366.737627 242.612161 367.471223 233.572133 372.696837"></polyline>
                    <polyline id="Fill-47" fill="#455E70" fill-rule="nonzero" points="242.189331 372.696837 233.149303 367.471223 233.572133 366.737627 242.612161 371.963242 242.189331 372.696837"></polyline>
                    <polyline id="Fill-48" fill="#455E70" fill-rule="nonzero" points="105.859928 319.96838 105.438353 319.234784 114.478381 314.00917 114.901211 314.742766 105.859928 319.96838"></polyline>
                    <polyline id="Fill-49" fill="#455E70" fill-rule="nonzero" points="114.478381 319.96838 105.438353 314.742766 105.859928 314.00917 114.901211 319.234784 114.478381 319.96838"></polyline>
                    <polyline id="Fill-50" fill="#455E70" fill-rule="nonzero" points="124.105604 330.512564 123.682774 329.778968 132.722802 324.55461 133.145632 325.288206 124.105604 330.512564"></polyline>
                    <polyline id="Fill-51" fill="#455E70" fill-rule="nonzero" points="132.722802 330.512564 123.682774 325.288206 124.105604 324.55461 133.145632 329.778968 132.722802 330.512564"></polyline>
                    <polyline id="Fill-52" fill="#455E70" fill-rule="nonzero" points="178.838868 362.151397 178.416038 361.417801 187.456067 356.192187 187.878897 356.925783 178.838868 362.151397"></polyline>
                    <polyline id="Fill-53" fill="#455E70" fill-rule="nonzero" points="187.456067 362.151397 178.416038 356.925783 178.838868 356.192187 187.878897 361.417801 187.456067 362.151397"></polyline>
                    <polyline id="Fill-54" fill="#455E70" fill-rule="nonzero" points="197.08329 372.696837 196.66046 371.963242 205.700488 366.737627 206.123318 367.471223 197.08329 372.696837"></polyline>
                    <polyline id="Fill-55" fill="#455E70" fill-rule="nonzero" points="205.700488 372.696837 196.66046 367.471223 197.08329 366.737627 206.123318 371.963242 205.700488 372.696837"></polyline>
                    <polyline id="Fill-56" fill="#455E70" fill-rule="nonzero" points="215.327711 383.243534 214.904881 382.509938 223.94491 377.284324 224.36774 378.01792 215.327711 383.243534"></polyline>
                    <polyline id="Fill-57" fill="#455E70" fill-rule="nonzero" points="223.94491 383.243534 214.904881 378.01792 215.327711 377.284324 224.36774 382.509938 223.94491 383.243534"></polyline>
                    <polyline id="Fill-58" fill="#455E70" fill-rule="nonzero" points="51.1266632 309.421683 50.7050879 308.688088 59.7451165 303.462473 60.1679465 304.196069 51.1266632 309.421683"></polyline>
                    <polyline id="Fill-59" fill="#455E70" fill-rule="nonzero" points="59.7451165 309.421683 50.7050879 304.196069 51.1266632 303.462473 60.1679465 308.688088 59.7451165 309.421683"></polyline>
                    <polyline id="Fill-60" fill="#455E70" fill-rule="nonzero" points="69.3710846 319.967124 68.9495094 319.233528 77.9895381 314.00917 78.412368 314.742766 69.3710846 319.967124"></polyline>
                    <polyline id="Fill-61" fill="#455E70" fill-rule="nonzero" points="77.9895381 319.967124 68.9495094 314.742766 69.3710846 314.00917 78.412368 319.233528 77.9895381 319.967124"></polyline>
                    <polyline id="Fill-62" fill="#455E70" fill-rule="nonzero" points="87.6167611 330.512564 87.1939311 329.778968 96.2339595 324.55461 96.6567894 325.288206 87.6167611 330.512564"></polyline>
                    <polyline id="Fill-63" fill="#455E70" fill-rule="nonzero" points="96.2339595 330.512564 87.1939311 325.28695 87.6167611 324.553353 96.6567894 329.778968 96.2339595 330.512564"></polyline>
                    <polyline id="Fill-64" fill="#455E70" fill-rule="nonzero" points="105.861183 341.059261 105.438353 340.325664 114.478381 335.10005 114.901211 335.833647 105.861183 341.059261"></polyline>
                    <polyline id="Fill-65" fill="#455E70" fill-rule="nonzero" points="114.478381 341.059261 105.438353 335.833647 105.861183 335.10005 114.901211 340.325664 114.478381 341.059261"></polyline>
                    <polyline id="Fill-66" fill="#455E70" fill-rule="nonzero" points="124.105604 351.6047 123.682774 350.871105 132.722802 345.645491 133.145632 346.379086 124.105604 351.6047"></polyline>
                    <polyline id="Fill-67" fill="#455E70" fill-rule="nonzero" points="132.722802 351.6047 123.682774 346.379086 124.105604 345.645491 133.145632 350.871105 132.722802 351.6047"></polyline>
                    <polyline id="Fill-68" fill="#455E70" fill-rule="nonzero" points="142.350025 362.151397 141.927196 361.417801 150.967224 356.192187 151.390054 356.925783 142.350025 362.151397"></polyline>
                    <polyline id="Fill-69" fill="#455E70" fill-rule="nonzero" points="150.967224 362.151397 141.927196 356.925783 142.350025 356.192187 151.390054 361.417801 150.967224 362.151397"></polyline>
                    <g id="Group-14" transform="translate(160.172872, 345.645491)" fill="#455E70" fill-rule="nonzero">
                        <polyline id="Fill-70" points="0.42408462 5.95795393 0.00125468822 5.22435809 9.04002866 5.68434189e-14 9.46285859 0.733595845 0.42408462 5.95795393"></polyline>
                        <polyline id="Fill-71" points="9.04128331 5.95921009 1.49213975e-12 0.733595845 0.422829932 0 9.46411325 5.22561425 9.04128331 5.95921009"></polyline>
                    </g>
                    <g id="Group-14-Copy" transform="translate(160.172872, 345.645491)" fill="#455E70" fill-rule="nonzero">
                        <polyline id="Fill-70" points="0.42408462 5.95795393 0.00125468822 5.22435809 9.04002866 5.68434189e-14 9.46285859 0.733595845 0.42408462 5.95795393"></polyline>
                        <polyline id="Fill-71" points="9.04128331 5.95921009 1.49213975e-12 0.733595845 0.422829932 0 9.46411325 5.22561425 9.04128331 5.95921009"></polyline>
                    </g>
                    <g id="Group-14-Copy-2" transform="translate(159.313461, 323.629231)">
                        <g id="Combined-Shape">
                            <g id="path-1-link" fill="#000000" fill-rule="nonzero">
                                <path d="M3.88543376,3.83972142 L0.272496032,1.75154233 L1.12486622,0.272702451 L5.59091581,2.85396284 L10.0568098,0.272702451 L10.90918,1.75153633 L7.29641371,3.83969394 L10.9104381,5.92850109 L10.058068,7.40733497 L5.59093166,4.82545252 L1.12612437,7.40608481 L0.273754176,5.92725093 L3.88543376,3.83972142 Z M1.43961451,1.44812488 L1.07916512,1.23979501 L1.07667804,1.23050712 L1.08574039,1.22807476 L1.44632483,1.4364827 L1.43961451,1.44812488 Z M9.73535805,1.43648869 L10.0959452,1.22807149 L10.104998,1.23050122 L10.1025085,1.23979866 L9.74206841,1.44813088 L9.73535805,1.43648869 Z M1.44757606,6.24229858 L1.08698898,6.45071578 L1.07793614,6.44828604 L1.08042569,6.4389886 L1.44086573,6.23065638 L1.44757606,6.24229858 Z" id="path-1"></path>
                            </g>
                            <g id="path-1-link" fill="#4BC7EC">
                                <path d="M3.88543376,3.83972142 L0.272496032,1.75154233 L1.12486622,0.272702451 L5.59091581,2.85396284 L10.0568098,0.272702451 L10.90918,1.75153633 L7.29641371,3.83969394 L10.9104381,5.92850109 L10.058068,7.40733497 L5.59093166,4.82545252 L1.12612437,7.40608481 L0.273754176,5.92725093 L3.88543376,3.83972142 Z M1.43961451,1.44812488 L1.07916512,1.23979501 L1.07667804,1.23050712 L1.08574039,1.22807476 L1.44632483,1.4364827 L1.43961451,1.44812488 Z M9.73535805,1.43648869 L10.0959452,1.22807149 L10.104998,1.23050122 L10.1025085,1.23979866 L9.74206841,1.44813088 L9.73535805,1.43648869 Z M1.44757606,6.24229858 L1.08698898,6.45071578 L1.07793614,6.44828604 L1.08042569,6.4389886 L1.44086573,6.23065638 L1.44757606,6.24229858 Z" id="path-1"></path>
                            </g>
                        </g>
                    </g>
                    <g id="Group-14-Copy-3" transform="translate(178.544899, 271.794927)" fill="#455E70" fill-rule="nonzero">
                        <polyline id="Fill-70" points="0.42408462 5.95795393 0.00125468822 5.22435809 9.04002866 5.68434189e-14 9.46285859 0.733595845 0.42408462 5.95795393"></polyline>
                        <polyline id="Fill-71" points="9.04128331 5.95921009 1.49213975e-12 0.733595845 0.422829932 0 9.46411325 5.22561425 9.04128331 5.95921009"></polyline>
                    </g>
                    <polyline id="Fill-72" fill="#455E70" fill-rule="nonzero" points="178.840123 383.242278 178.417293 382.508682 187.457321 377.284324 187.880151 378.01792 178.840123 383.242278"></polyline>
                    <polyline id="Fill-73" fill="#455E70" fill-rule="nonzero" points="187.457321 383.242278 178.417293 378.01792 178.840123 377.284324 187.880151 382.508682 187.457321 383.242278"></polyline>
                    <polyline id="Fill-74" fill="#455E70" fill-rule="nonzero" points="197.084545 393.787718 196.661715 393.054122 205.701743 387.828508 206.124573 388.562103 197.084545 393.787718"></polyline>
                    <polyline id="Fill-75" fill="#455E70" fill-rule="nonzero" points="205.701743 393.787718 196.661715 388.562103 197.084545 387.828508 206.124573 393.054122 205.701743 393.787718"></polyline>
                    <polyline id="Fill-76" fill="#455E70" fill-rule="nonzero" points="32.8834964 319.967124 32.4606664 319.233528 41.5006951 314.007914 41.9222704 314.741509 32.8834964 319.967124"></polyline>
                    <polyline id="Fill-77" fill="#455E70" fill-rule="nonzero" points="41.5006951 319.967124 32.4606664 314.741509 32.8822417 314.007914 41.923525 319.233528 41.5006951 319.967124"></polyline>
                    <polyline id="Fill-78" fill="#455E70" fill-rule="nonzero" points="51.1279178 330.512564 50.7050879 329.778968 59.7451165 324.553353 60.1679465 325.28695 51.1279178 330.512564"></polyline>
                    <polyline id="Fill-79" fill="#455E70" fill-rule="nonzero" points="59.7451165 330.512564 50.7050879 325.28695 51.1279178 324.553353 60.1679465 329.778968 59.7451165 330.512564"></polyline>
                    <polyline id="Fill-80" fill="#455E70" fill-rule="nonzero" points="69.3723394 341.059261 68.9495094 340.325664 77.9895381 335.10005 78.412368 335.833647 69.3723394 341.059261"></polyline>
                    <polyline id="Fill-81" fill="#455E70" fill-rule="nonzero" points="77.9895381 341.059261 68.9495094 335.833647 69.3723394 335.10005 78.412368 340.325664 77.9895381 341.059261"></polyline>
                    <polyline id="Fill-82" fill="#455E70" fill-rule="nonzero" points="87.6167611 351.6047 87.1939311 350.871105 96.2339595 345.645491 96.6567894 346.379086 87.6167611 351.6047"></polyline>
                    <polyline id="Fill-83" fill="#455E70" fill-rule="nonzero" points="96.2339595 351.6047 87.1939311 346.379086 87.6167611 345.645491 96.6567894 350.871105 96.2339595 351.6047"></polyline>
                    <polyline id="Fill-84" fill="#455E70" fill-rule="nonzero" points="105.862437 362.150141 105.439607 361.416545 114.478381 356.192187 114.901211 356.925783 105.862437 362.150141"></polyline>
                    <polyline id="Fill-85" fill="#455E70" fill-rule="nonzero" points="114.479636 362.150141 105.438353 356.925783 105.861183 356.192187 114.902466 361.416545 114.479636 362.150141"></polyline>
                    <polyline id="Fill-86" fill="#455E70" fill-rule="nonzero" points="124.106859 372.695581 123.684029 371.961986 132.724057 366.737627 133.146887 367.471223 124.106859 372.695581"></polyline>
                    <polyline id="Fill-87" fill="#455E70" fill-rule="nonzero" points="132.724057 372.695581 123.684029 367.471223 124.106859 366.737627 133.146887 371.961986 132.724057 372.695581"></polyline>
                    <polyline id="Fill-88" fill="#455E70" fill-rule="nonzero" points="142.35128 383.242278 141.92845 382.508682 150.968479 377.283067 151.391309 378.016664 142.35128 383.242278"></polyline>
                    <polyline id="Fill-89" fill="#455E70" fill-rule="nonzero" points="150.968479 383.242278 141.92845 378.016664 142.35128 377.283067 151.391309 382.508682 150.968479 383.242278"></polyline>
                    <polyline id="Fill-90" fill="#455E70" fill-rule="nonzero" points="160.595702 393.787718 160.172872 393.054122 169.2129 387.828508 169.63573 388.562103 160.595702 393.787718"></polyline>
                    <polyline id="Fill-91" fill="#455E70" fill-rule="nonzero" points="169.2129 393.787718 160.172872 388.562103 160.595702 387.828508 169.63573 393.054122 169.2129 393.787718"></polyline>
                    <polyline id="Fill-92" fill="#455E70" fill-rule="nonzero" points="178.840123 404.334414 178.417293 403.600819 187.457321 398.375205 187.880151 399.1088 178.840123 404.334414"></polyline>
                    <polyline id="Fill-93" fill="#455E70" fill-rule="nonzero" points="187.457321 404.334414 178.417293 399.1088 178.840123 398.375205 187.880151 403.600819 187.457321 404.334414"></polyline>
                    <polygon id="Fill-94" fill="#233543" fill-rule="nonzero" points="182.57533 211.445185 183.42099 211.445185 183.42099 0.366797923 182.57533 0.366797923"></polygon>
                    <polygon id="Fill-95" fill="#233543" fill-rule="nonzero" points="200.833553 222.000675 201.680467 222.000675 201.680467 10.9210313 200.833553 10.9210313"></polygon>
                    <polygon id="Fill-96" fill="#233543" fill-rule="nonzero" points="219.093031 232.554908 219.939945 232.554908 219.939945 21.4752647 219.093031 21.4752647"></polygon>
                    <polygon id="Fill-97" fill="#233543" fill-rule="nonzero" points="237.352508 243.109141 238.199423 243.109141 238.199423 32.0294981 237.352508 32.0294981"></polygon>
                    <polygon id="Fill-98" fill="#233543" fill-rule="nonzero" points="255.611986 253.663375 256.457646 253.663375 256.457646 42.5837314 255.611986 42.5837314"></polygon>
                    <polygon id="Fill-99" fill="#233543" fill-rule="nonzero" points="273.870209 264.217608 274.717124 264.217608 274.717124 53.1379648 273.870209 53.1379648"></polygon>
                    <polygon id="Fill-100" fill="#233543" fill-rule="nonzero" points="292.205524 274.771841 292.991316 274.771841 292.991316 45.5568412 292.205524 45.5568412"></polygon>
                    <polygon id="Fill-101" fill="#233543" fill-rule="nonzero" points="310.389164 285.326075 311.236079 285.326075 311.236079 74.2464316 310.389164 74.2464316"></polygon>
                    <polygon id="Fill-102" fill="#233543" fill-rule="nonzero" points="328.647388 295.880308 329.494302 295.880308 329.494302 84.800665 328.647388 84.800665"></polygon>
                    <polygon id="Fill-103" fill="#233543" fill-rule="nonzero" points="346.906865 306.434541 347.75378 306.434541 347.75378 95.3548984 346.906865 95.3548984"></polygon>
                    <polyline id="Fill-106" fill="#233543" fill-rule="nonzero" points="365.377131 127.384397 182.786117 21.8420626 183.210202 21.1072106 365.801215 126.649544 365.377131 127.384397"></polyline>
                    <polyline id="Fill-107" fill="#233543" fill-rule="nonzero" points="365.377131 148.492863 182.786117 42.9505294 183.210202 42.2156774 365.801215 147.758011 365.377131 148.492863"></polyline>
                    <polyline id="Fill-108" fill="#233543" fill-rule="nonzero" points="365.377131 169.60133 182.786117 64.05774 183.210202 63.322888 365.801215 168.866478 365.377131 169.60133"></polyline>
                    <polyline id="Fill-109" fill="#233543" fill-rule="nonzero" points="365.377131 190.708541 182.786117 85.1662067 183.210202 84.4313547 365.801215 189.973689 365.377131 190.708541"></polyline>
                    <polyline id="Fill-110" fill="#233543" fill-rule="nonzero" points="365.377131 211.815751 182.786117 106.273417 183.210202 105.538566 365.801215 211.082155 365.377131 211.815751"></polyline>
                    <polyline id="Fill-111" fill="#233543" fill-rule="nonzero" points="365.377131 232.924218 182.786117 127.381884 183.210202 126.647033 365.801215 232.190622 365.377131 232.924218"></polyline>
                    <polyline id="Fill-112" fill="#233543" fill-rule="nonzero" points="365.377131 254.032685 182.786117 148.490351 183.210202 147.755499 365.801215 253.299089 365.377131 254.032685"></polyline>
                    <polyline id="Fill-113" fill="#233543" fill-rule="nonzero" points="365.377131 275.139895 182.786117 169.597561 183.210202 168.862709 365.801215 274.4063 365.377131 275.139895"></polyline>
                    <polyline id="Fill-114" fill="#233543" fill-rule="nonzero" points="365.377131 296.247106 182.786117 190.706028 183.210202 189.971176 365.801215 295.51351 365.377131 296.247106"></polyline>
                    <polyline id="Fill-115" fill="#233543" fill-rule="nonzero" points="377.915243 324.653387 182.786117 211.862357 183.239323 211.078387 378.368448 323.869417 377.915243 324.653387"></polyline>
                    <polygon id="Fill-116" fill="#455E70" fill-rule="nonzero" points="200.833553 37.2588808 201.680467 37.2588808 201.680467 26.8001153 200.833553 26.8001153"></polygon>
                    <polyline id="Fill-117" fill="#455E70" fill-rule="nonzero" points="205.568747 35.0116155 196.521189 29.7822327 196.945274 29.0473808 205.99283 34.2767634 205.568747 35.0116155"></polyline>
                    <polygon id="Fill-118" fill="#455E70" fill-rule="nonzero" points="219.093031 47.8131142 219.939945 47.8131142 219.939945 37.3543487 219.093031 37.3543487"></polygon>
                    <polyline id="Fill-119" fill="#455E70" fill-rule="nonzero" points="223.828224 45.5658488 214.780667 40.3364661 215.204752 39.6016141 224.252309 44.8309968 223.828224 45.5658488"></polyline>
                    <polygon id="Fill-120" fill="#455E70" fill-rule="nonzero" points="237.352508 58.3673475 238.199423 58.3673475 238.199423 47.9085822 237.352508 47.9085822"></polygon>
                    <polyline id="Fill-121" fill="#455E70" fill-rule="nonzero" points="242.087702 56.1200822 233.040145 50.8894433 233.464229 50.1545913 242.511786 55.3852302 242.087702 56.1200822"></polyline>
                    <polygon id="Fill-122" fill="#455E70" fill-rule="nonzero" points="255.611986 68.9215809 256.457646 68.9215809 256.457646 58.4628155 255.611986 58.4628155"></polygon>
                    <polyline id="Fill-123" fill="#455E70" fill-rule="nonzero" points="260.345925 66.6743156 251.299622 61.4449328 251.722452 60.7100809 260.770009 65.9394636 260.345925 66.6743156"></polyline>
                    <polygon id="Fill-124" fill="#455E70" fill-rule="nonzero" points="273.870209 79.4758143 274.717124 79.4758143 274.717124 69.0170489 273.870209 69.0170489"></polygon>
                    <polyline id="Fill-125" fill="#455E70" fill-rule="nonzero" points="278.605403 77.2285489 269.557846 71.9991662 269.981931 71.2643142 279.029487 76.493697 278.605403 77.2285489"></polyline>
                    <polygon id="Fill-126" fill="#455E70" fill-rule="nonzero" points="292.129687 90.0300481 292.976601 90.0300481 292.976601 79.5712823 292.129687 79.5712823"></polygon>
                    <polyline id="Fill-127" fill="#455E70" fill-rule="nonzero" points="296.86488 87.7827826 287.817323 82.5533997 288.241408 81.8185476 297.288965 87.04793 296.86488 87.7827826"></polyline>
                    <polygon id="Fill-128" fill="#455E70" fill-rule="nonzero" points="310.389164 100.584281 311.236079 100.584281 311.236079 90.1255156 310.389164 90.1255156"></polygon>
                    <polyline id="Fill-129" fill="#455E70" fill-rule="nonzero" points="315.124358 98.3370157 306.076801 93.1076329 306.500885 92.3727811 315.548442 97.6021639 315.124358 98.3370157"></polyline>
                    <polygon id="Fill-130" fill="#455E70" fill-rule="nonzero" points="328.647388 111.138514 329.494302 111.138514 329.494302 100.679749 328.647388 100.679749"></polygon>
                    <polyline id="Fill-131" fill="#455E70" fill-rule="nonzero" points="333.382581 108.891249 324.335024 103.661866 324.759109 102.927014 333.806666 108.156397 333.382581 108.891249"></polyline>
                    <polygon id="Fill-132" fill="#455E70" fill-rule="nonzero" points="346.906865 121.692748 347.75378 121.692748 347.75378 111.233983 346.906865 111.233983"></polygon>
                    <polyline id="Fill-133" fill="#455E70" fill-rule="nonzero" points="351.642059 119.445483 342.594502 114.2161 343.018587 113.481248 352.066143 118.710631 351.642059 119.445483"></polyline>
                    <polygon id="Fill-134" fill="#455E70" fill-rule="nonzero" points="200.833553 58.3660914 201.680467 58.3660914 201.680467 47.9073259 200.833553 47.9073259"></polygon>
                    <polyline id="Fill-135" fill="#455E70" fill-rule="nonzero" points="205.568747 56.1188261 196.521189 50.8894433 196.945274 50.1545913 205.99283 55.3839741 205.568747 56.1188261"></polyline>
                    <polygon id="Fill-136" fill="#455E70" fill-rule="nonzero" points="219.093031 68.9203248 219.939945 68.9203248 219.939945 58.4615594 219.093031 58.4615594"></polygon>
                    <polyline id="Fill-137" fill="#455E70" fill-rule="nonzero" points="223.828224 66.6730594 214.780667 61.4436767 215.204752 60.7088247 224.252309 65.9382074 223.828224 66.6730594"></polyline>
                    <polygon id="Fill-138" fill="#455E70" fill-rule="nonzero" points="237.352508 79.4745581 238.199423 79.4745581 238.199423 69.0157927 237.352508 69.0157927"></polygon>
                    <polyline id="Fill-139" fill="#455E70" fill-rule="nonzero" points="242.087702 77.2272928 233.040145 71.9979101 233.464229 71.2630581 242.511786 76.4924408 242.087702 77.2272928"></polyline>
                    <polygon id="Fill-140" fill="#455E70" fill-rule="nonzero" points="255.611986 90.0300481 256.457646 90.0300481 256.457646 79.5700261 255.611986 79.5700261"></polygon>
                    <polyline id="Fill-141" fill="#455E70" fill-rule="nonzero" points="260.345925 87.7815264 251.299622 82.5521435 251.722452 81.8172914 260.770009 87.04793 260.345925 87.7815264"></polyline>
                    <polygon id="Fill-142" fill="#455E70" fill-rule="nonzero" points="273.870209 100.583025 274.717124 100.583025 274.717124 90.1242594 273.870209 90.1242594"></polygon>
                    <polyline id="Fill-143" fill="#455E70" fill-rule="nonzero" points="278.605403 98.3357595 269.557846 93.1063767 269.981931 92.3715249 279.029487 97.6009077 278.605403 98.3357595"></polyline>
                    <polygon id="Fill-144" fill="#455E70" fill-rule="nonzero" points="292.129687 111.137258 292.976601 111.137258 292.976601 100.678492 292.129687 100.678492"></polygon>
                    <polyline id="Fill-145" fill="#455E70" fill-rule="nonzero" points="296.86488 108.891249 287.817323 103.660611 288.241408 102.925758 297.288965 108.156397 296.86488 108.891249"></polyline>
                    <polygon id="Fill-146" fill="#455E70" fill-rule="nonzero" points="310.389164 121.692748 311.236079 121.692748 311.236079 111.232726 310.389164 111.232726"></polygon>
                    <polyline id="Fill-147" fill="#455E70" fill-rule="nonzero" points="315.124358 119.445483 306.076801 114.214844 306.500885 113.479992 315.548442 118.710631 315.124358 119.445483"></polyline>
                    <polygon id="Fill-148" fill="#455E70" fill-rule="nonzero" points="328.647388 132.245725 329.494302 132.245725 329.494302 121.786959 328.647388 121.786959"></polygon>
                    <polyline id="Fill-149" fill="#455E70" fill-rule="nonzero" points="333.382581 129.99846 324.335024 124.769077 324.759109 124.034225 333.806666 129.263608 333.382581 129.99846"></polyline>
                    <polygon id="Fill-150" fill="#455E70" fill-rule="nonzero" points="346.906865 142.801214 347.75378 142.801214 347.75378 132.341193 346.906865 132.341193"></polygon>
                    <polyline id="Fill-151" fill="#455E70" fill-rule="nonzero" points="351.642059 140.55395 342.594502 135.323311 343.018587 134.588458 352.066143 139.819097 351.642059 140.55395"></polyline>
                    <polygon id="Fill-152" fill="#455E70" fill-rule="nonzero" points="200.833553 79.4745581 201.680467 79.4745581 201.680467 69.0157927 200.833553 69.0157927"></polygon>
                    <polyline id="Fill-153" fill="#455E70" fill-rule="nonzero" points="205.568747 77.2272928 196.521189 71.9979101 196.945274 71.2630581 205.99283 76.4924408 205.568747 77.2272928"></polyline>
                    <polygon id="Fill-154" fill="#455E70" fill-rule="nonzero" points="219.093031 90.0287919 219.939945 90.0287919 219.939945 79.5700261 219.093031 79.5700261"></polygon>
                    <polyline id="Fill-155" fill="#455E70" fill-rule="nonzero" points="223.828224 87.7815264 214.780667 82.5521435 215.204752 81.8172914 224.252309 87.0466738 223.828224 87.7815264"></polyline>
                    <polygon id="Fill-156" fill="#455E70" fill-rule="nonzero" points="237.352508 100.583025 238.199423 100.583025 238.199423 90.1242594 237.352508 90.1242594"></polygon>
                    <polyline id="Fill-157" fill="#455E70" fill-rule="nonzero" points="242.087702 98.3357595 233.040145 93.1063767 233.464229 92.3715249 242.511786 97.6009077 242.087702 98.3357595"></polyline>
                    <polygon id="Fill-158" fill="#455E70" fill-rule="nonzero" points="255.611986 111.137258 256.457646 111.137258 256.457646 100.678492 255.611986 100.678492"></polygon>
                    <polyline id="Fill-159" fill="#455E70" fill-rule="nonzero" points="260.345925 108.889993 251.299622 103.660611 251.722452 102.925758 260.770009 108.155141 260.345925 108.889993"></polyline>
                    <polygon id="Fill-160" fill="#455E70" fill-rule="nonzero" points="273.870209 121.691492 274.717124 121.691492 274.717124 111.232726 273.870209 111.232726"></polygon>
                    <polyline id="Fill-161" fill="#455E70" fill-rule="nonzero" points="278.605403 119.444226 269.557846 114.214844 269.981931 113.479992 279.029487 118.709375 278.605403 119.444226"></polyline>
                    <polygon id="Fill-162" fill="#455E70" fill-rule="nonzero" points="292.129687 132.245725 292.976601 132.245725 292.976601 121.786959 292.129687 121.786959"></polygon>
                    <polyline id="Fill-163" fill="#455E70" fill-rule="nonzero" points="296.86488 129.99846 287.817323 124.769077 288.241408 124.034225 297.288965 129.263608 296.86488 129.99846"></polyline>
                    <polygon id="Fill-164" fill="#455E70" fill-rule="nonzero" points="310.389164 142.799958 311.236079 142.799958 311.236079 132.341193 310.389164 132.341193"></polygon>
                    <polyline id="Fill-165" fill="#455E70" fill-rule="nonzero" points="315.124358 140.552693 306.076801 135.323311 306.500885 134.588458 315.548442 139.817841 315.124358 140.552693"></polyline>
                    <polygon id="Fill-166" fill="#455E70" fill-rule="nonzero" points="328.647388 153.354192 329.494302 153.354192 329.494302 142.895426 328.647388 142.895426"></polygon>
                    <polyline id="Fill-167" fill="#455E70" fill-rule="nonzero" points="333.382581 151.106927 324.335024 145.877544 324.759109 145.142692 333.806666 150.372075 333.382581 151.106927"></polyline>
                    <polygon id="Fill-168" fill="#455E70" fill-rule="nonzero" points="346.906865 163.908425 347.75378 163.908425 347.75378 153.44966 346.906865 153.44966"></polygon>
                    <polyline id="Fill-169" fill="#455E70" fill-rule="nonzero" points="351.642059 161.66116 342.594502 156.431777 343.018587 155.696925 352.066143 160.926308 351.642059 161.66116"></polyline>
                    <polygon id="Fill-170" fill="#455E70" fill-rule="nonzero" points="200.833553 100.581769 201.680467 100.581769 201.680467 90.1230032 200.833553 90.1230032"></polygon>
                    <polyline id="Fill-171" fill="#455E70" fill-rule="nonzero" points="205.568747 98.3345033 196.521189 93.1051205 196.945274 92.3702687 205.99283 97.5996515 205.568747 98.3345033"></polyline>
                    <polygon id="Fill-172" fill="#455E70" fill-rule="nonzero" points="219.093031 111.136002 219.939945 111.136002 219.939945 100.677237 219.093031 100.677237"></polygon>
                    <polyline id="Fill-173" fill="#455E70" fill-rule="nonzero" points="223.828224 108.889993 214.780667 103.659354 215.204752 102.924502 224.252309 108.155141 223.828224 108.889993"></polyline>
                    <polygon id="Fill-174" fill="#455E70" fill-rule="nonzero" points="237.352508 121.691492 238.199423 121.691492 238.199423 111.23147 237.352508 111.23147"></polygon>
                    <polyline id="Fill-175" fill="#455E70" fill-rule="nonzero" points="242.087702 119.444226 233.040145 114.213587 233.464229 113.479992 242.511786 118.709375 242.087702 119.444226"></polyline>
                    <g id="Group-7" transform="translate(251.298368, 121.785703)" fill="#455E70" fill-rule="nonzero">
                        <polygon id="Fill-176" points="4.31361812 10.4587655 5.15927798 10.4587655 5.15927798 1.42108547e-14 4.31361812 1.42108547e-14"></polygon>
                        <polyline id="Fill-177" points="9.04755675 8.21150008 -1.16529009e-12 2.98211736 0.42408462 2.24726536 9.47164142 7.47790423 9.04755675 8.21150008"></polyline>
                    </g>
                    <g id="Group-7-Copy" transform="translate(251.298368, 163.907169)" fill="#455E70" fill-rule="nonzero">
                        <polygon id="Fill-176" points="4.31361812 10.4587655 5.15927798 10.4587655 5.15927798 1.42108547e-14 4.31361812 1.42108547e-14"></polygon>
                        <polyline id="Fill-177" points="9.04755675 8.21150008 -1.16529009e-12 2.98211736 0.42408462 2.24726536 9.47164142 7.47790423 9.04755675 8.21150008"></polyline>
                    </g>
                    <g id="Group-7-Copy-2" transform="translate(251.298368, 206.067586)" fill="#455E70" fill-rule="nonzero">
                        <polygon id="Fill-176" points="4.31361812 10.4587655 5.15927798 10.4587655 5.15927798 1.42108547e-14 4.31361812 1.42108547e-14"></polygon>
                        <polyline id="Fill-177" points="9.04755675 8.21150008 -1.16529009e-12 2.98211736 0.42408462 2.24726536 9.47164142 7.47790423 9.04755675 8.21150008"></polyline>
                    </g>
                    <g id="Group-7-Copy-3" transform="translate(251.298368, 248.228002)" fill="#455E70" fill-rule="nonzero">
                        <polygon id="Fill-176" points="4.31361812 10.4587655 5.15927798 10.4587655 5.15927798 1.42108547e-14 4.31361812 1.42108547e-14"></polygon>
                        <polyline id="Fill-177" points="9.04755675 8.21150008 -1.16529009e-12 2.98211736 0.42408462 2.24726536 9.47164142 7.47790423 9.04755675 8.21150008"></polyline>
                    </g>
                    <polygon id="Fill-178" fill="#455E70" fill-rule="nonzero" points="273.870209 142.799958 274.717124 142.799958 274.717124 132.339937 273.870209 132.339937"></polygon>
                    <polyline id="Fill-179" fill="#455E70" fill-rule="nonzero" points="278.605403 140.552693 269.557846 135.322054 269.981931 134.587202 279.029487 139.817841 278.605403 140.552693"></polyline>
                    <polygon id="Fill-181" fill="#455E70" fill-rule="nonzero" points="310.389164 163.907169 311.236079 163.907169 311.236079 153.448403 310.389164 153.448403"></polygon>
                    <polyline id="Fill-182" fill="#455E70" fill-rule="nonzero" points="315.124358 161.659903 306.076801 156.430521 306.500885 155.695669 315.548442 160.925052 315.124358 161.659903"></polyline>
                    <polygon id="Fill-183" fill="#455E70" fill-rule="nonzero" points="328.647388 174.462659 329.494302 174.462659 329.494302 164.003893 328.647388 164.003893"></polygon>
                    <polyline id="Fill-184" fill="#455E70" fill-rule="nonzero" points="333.382581 172.215394 324.335024 166.984755 324.759109 166.249903 333.806666 171.480541 333.382581 172.215394"></polyline>
                    <polygon id="Fill-185" fill="#455E70" fill-rule="nonzero" points="346.906865 185.016892 347.75378 185.016892 347.75378 174.558127 346.906865 174.558127"></polygon>
                    <polyline id="Fill-186" fill="#455E70" fill-rule="nonzero" points="351.642059 182.769627 342.594502 177.540244 343.018587 176.805392 352.066143 182.034775 351.642059 182.769627"></polyline>
                    <polygon id="Fill-187" fill="#455E70" fill-rule="nonzero" points="219.093031 132.244469 219.939945 132.244469 219.939945 121.785703 219.093031 121.785703"></polygon>
                    <polyline id="Fill-188" fill="#455E70" fill-rule="nonzero" points="223.828224 129.997203 214.780667 124.767821 215.204752 124.032969 224.252309 129.262352 223.828224 129.997203"></polyline>
                    <polygon id="Fill-189" fill="#455E70" fill-rule="nonzero" points="237.352508 142.798702 238.199423 142.798702 238.199423 132.339937 237.352508 132.339937"></polygon>
                    <polyline id="Fill-190" fill="#455E70" fill-rule="nonzero" points="242.087702 140.551437 233.040145 135.322054 233.464229 134.587202 242.511786 139.816585 242.087702 140.551437"></polyline>
                    <polygon id="Fill-191" fill="#455E70" fill-rule="nonzero" points="255.611986 153.352936 256.457646 153.352936 256.457646 142.89417 255.611986 142.89417"></polygon>
                    <polygon id="Fill-192" fill="#455E70" fill-rule="nonzero" points="310.389164 185.015636 311.236079 185.015636 311.236079 174.55687 310.389164 174.55687"></polygon>
                    <polyline id="Fill-193" fill="#455E70" fill-rule="nonzero" points="315.124358 182.76837 306.076801 177.538988 306.500885 176.804136 315.548442 182.033519 315.124358 182.76837"></polyline>
                    <polygon id="Fill-194" fill="#455E70" fill-rule="nonzero" points="328.647388 195.569869 329.494302 195.569869 329.494302 185.111103 328.647388 185.111103"></polygon>
                    <polyline id="Fill-195" fill="#455E70" fill-rule="nonzero" points="333.382581 193.322603 324.335024 188.093222 324.759109 187.358369 333.806666 192.587752 333.382581 193.322603"></polyline>
                    <polygon id="Fill-196" fill="#455E70" fill-rule="nonzero" points="346.906865 206.124103 347.75378 206.124103 347.75378 195.665337 346.906865 195.665337"></polygon>
                    <polyline id="Fill-197" fill="#455E70" fill-rule="nonzero" points="351.642059 203.876837 342.594502 198.647455 343.018587 197.912603 352.066143 203.141986 351.642059 203.876837"></polyline>
                    <polygon id="Fill-198" fill="#455E70" fill-rule="nonzero" points="219.093031 153.352936 219.939945 153.352936 219.939945 142.89417 219.093031 142.89417"></polygon>
                    <polygon id="Fill-199" fill="#455E70" fill-rule="nonzero" points="310.389164 206.124103 311.236079 206.124103 311.236079 195.665337 310.389164 195.665337"></polygon>
                    <polyline id="Fill-200" fill="#455E70" fill-rule="nonzero" points="315.124358 203.876837 306.076801 198.646198 306.500885 197.911347 315.548442 203.141986 315.124358 203.876837"></polyline>
                    <g id="Combined-Shape" transform="translate(323.997732, 205.639583)">
                        <g id="path-3-link" fill="#000000" fill-rule="nonzero">
                            <polygon id="path-3" points="4.22682543 6.29884025 0.126504356 3.92890256 0.973418959 2.46045438 4.22682543 4.34043382 4.22682543 0.579987085 5.92065464 0.579987085 5.92065464 5.31921285 10.0209757 7.68858094 9.17406111 9.15828532 5.92065464 7.27785416 5.92065464 11.0387526 4.22682543 11.0387526"></polygon>
                        </g>
                        <g id="path-3-link" fill="#4BC7EC">
                            <polygon id="path-3" points="4.22682543 6.29884025 0.126504356 3.92890256 0.973418959 2.46045438 4.22682543 4.34043382 4.22682543 0.579987085 5.92065464 0.579987085 5.92065464 5.31921285 10.0209757 7.68858094 9.17406111 9.15828532 5.92065464 7.27785416 5.92065464 11.0387526 4.22682543 11.0387526"></polygon>
                        </g>
                    </g>
                    <polygon id="Fill-203" fill="#455E70" fill-rule="nonzero" points="346.906865 227.232569 347.75378 227.232569 347.75378 216.772548 346.906865 216.772548"></polygon>
                    <polyline id="Fill-204" fill="#455E70" fill-rule="nonzero" points="351.642059 224.985304 342.594502 219.755922 343.018587 219.022325 352.066143 224.251708 351.642059 224.985304"></polyline>
                    <polygon id="Fill-205" fill="#455E70" fill-rule="nonzero" points="310.389164 227.232569 311.236079 227.232569 311.236079 216.772548 310.389164 216.772548"></polygon>
                    <polyline id="Fill-206" fill="#455E70" fill-rule="nonzero" points="315.124358 224.984048 306.076801 219.754665 306.500885 219.021069 315.548442 224.250452 315.124358 224.984048"></polyline>
                    <polygon id="Fill-207" fill="#455E70" fill-rule="nonzero" points="328.647388 237.785547 329.494302 237.785547 329.494302 227.326781 328.647388 227.326781"></polygon>
                    <polyline id="Fill-208" fill="#455E70" fill-rule="nonzero" points="333.382581 235.538281 324.335024 230.308898 324.759109 229.575303 333.806666 234.804686 333.382581 235.538281"></polyline>
                    <polygon id="Fill-209" fill="#455E70" fill-rule="nonzero" points="346.906865 248.33978 347.75378 248.33978 347.75378 237.881014 346.906865 237.881014"></polygon>
                    <polyline id="Fill-210" fill="#455E70" fill-rule="nonzero" points="351.642059 246.092514 342.594502 240.861875 343.018587 240.12828 352.066143 245.358919 351.642059 246.092514"></polyline>
                    <polygon id="Fill-211" fill="#455E70" fill-rule="nonzero" points="310.389164 248.33978 311.236079 248.33978 311.236079 237.879758 310.389164 237.879758"></polygon>
                    <polyline id="Fill-212" fill="#455E70" fill-rule="nonzero" points="315.124358 246.091258 306.076801 240.861875 306.500885 240.12828 315.548442 245.357663 315.124358 246.091258"></polyline>
                    <polygon id="Fill-213" fill="#455E70" fill-rule="nonzero" points="328.647388 258.894014 329.494302 258.894014 329.494302 248.435248 328.647388 248.435248"></polygon>
                    <polyline id="Fill-214" fill="#455E70" fill-rule="nonzero" points="333.382581 256.646748 324.335024 251.417365 324.759109 250.683769 333.806666 255.913152 333.382581 256.646748"></polyline>
                    <polygon id="Fill-215" fill="#455E70" fill-rule="nonzero" points="346.906865 269.448247 347.75378 269.448247 347.75378 258.989481 346.906865 258.989481"></polygon>
                    <polyline id="Fill-216" fill="#455E70" fill-rule="nonzero" points="351.642059 267.199725 342.594502 261.970342 343.018587 261.236747 352.066143 266.46613 351.642059 267.199725"></polyline>
                    <polygon id="Fill-217" fill="#455E70" fill-rule="nonzero" points="310.389164 269.446991 311.236079 269.446991 311.236079 258.988225 310.389164 258.988225"></polygon>
                    <polyline id="Fill-218" fill="#455E70" fill-rule="nonzero" points="315.124358 267.199725 306.076801 261.970342 306.500885 261.236747 315.548442 266.46613 315.124358 267.199725"></polyline>
                    <polygon id="Fill-219" fill="#455E70" fill-rule="nonzero" points="328.647388 280.001224 329.494302 280.001224 329.494302 269.542458 328.647388 269.542458"></polygon>
                    <polyline id="Fill-220" fill="#455E70" fill-rule="nonzero" points="333.382581 277.753959 324.335024 272.52332 324.759109 271.789724 333.806666 277.020363 333.382581 277.753959"></polyline>
                    <polygon id="Fill-221" fill="#455E70" fill-rule="nonzero" points="346.906865 290.556714 347.75378 290.556714 347.75378 280.097948 346.906865 280.097948"></polygon>
                    <polyline id="Fill-222" fill="#455E70" fill-rule="nonzero" points="351.642059 288.308192 342.594502 283.078809 343.018587 282.345214 352.066143 287.574597 351.642059 288.308192"></polyline>
                    <polygon id="Fill-223" fill="#233543" fill-rule="nonzero" points="182.796155 211.445185 183.64307 211.445185 183.64307 0.366797923 182.796155 0.366797923"></polygon>
                    <polygon id="Fill-224" fill="#233543" fill-rule="nonzero" points="164.536677 222.000675 165.383591 222.000675 165.383591 10.9210313 164.536677 10.9210313"></polygon>
                    <polygon id="Fill-225" fill="#233543" fill-rule="nonzero" points="146.277199 232.554908 147.124114 232.554908 147.124114 21.4752647 146.277199 21.4752647"></polygon>
                    <polygon id="Fill-226" fill="#233543" fill-rule="nonzero" points="128.018977 243.109141 128.864637 243.109141 128.864637 32.0294981 128.018977 32.0294981"></polygon>
                    <polygon id="Fill-227" fill="#233543" fill-rule="nonzero" points="109.759498 253.663375 110.606413 253.663375 110.606413 42.5837314 109.759498 42.5837314"></polygon>
                    <polygon id="Fill-228" fill="#233543" fill-rule="nonzero" points="91.5000209 264.217608 92.3469355 264.217608 92.3469355 53.1379648 91.5000209 53.1379648"></polygon>
                    <polygon id="Fill-229" fill="#233543" fill-rule="nonzero" points="73.2405431 274.771841 74.0874576 274.771841 74.0874576 63.6921983 73.2405431 63.6921983"></polygon>
                    <polygon id="Fill-230" fill="#233543" fill-rule="nonzero" points="54.9823201 285.326075 55.8292347 285.326075 55.8292347 74.2464316 54.9823201 74.2464316"></polygon>
                    <polygon id="Fill-231" fill="#233543" fill-rule="nonzero" points="36.7228423 295.880308 37.5697568 295.880308 37.5697568 84.800665 36.7228423 84.800665"></polygon>
                    <polygon id="Fill-232" fill="#233543" fill-rule="nonzero" points="18.4633646 306.434541 19.3102791 306.434541 19.3102791 95.3548984 18.4633646 95.3548984"></polygon>
                    <polyline id="Fill-235" fill="#233543" fill-rule="nonzero" points="0.840013767 127.384397 0.415929146 126.649544 183.006943 21.1072106 183.431027 21.8420626 0.840013767 127.384397"></polyline>
                    <polyline id="Fill-236" fill="#233543" fill-rule="nonzero" points="0.840013767 148.492863 0.415929146 147.758011 183.006943 42.2156774 183.431027 42.9505294 0.840013767 148.492863"></polyline>
                    <polyline id="Fill-237" fill="#233543" fill-rule="nonzero" points="0.840013767 169.60133 0.415929146 168.866478 183.006943 63.322888 183.431027 64.05774 0.840013767 169.60133"></polyline>
                    <polyline id="Fill-238" fill="#233543" fill-rule="nonzero" points="0.840013767 190.708541 0.415929146 189.973689 183.006943 84.4313547 183.431027 85.1662067 0.840013767 190.708541"></polyline>
                    <polyline id="Fill-239" fill="#233543" fill-rule="nonzero" points="0.840013767 211.815751 0.415929146 211.082155 183.006943 105.538566 183.431027 106.273417 0.840013767 211.815751"></polyline>
                    <polyline id="Fill-240" fill="#233543" fill-rule="nonzero" points="0.840013767 232.924218 0.415929146 232.190622 183.006943 126.647033 183.431027 127.381884 0.840013767 232.924218"></polyline>
                    <polyline id="Fill-241" fill="#233543" fill-rule="nonzero" points="0.840013767 254.032685 0.415929146 253.299089 183.006943 147.755499 183.431027 148.490351 0.840013767 254.032685"></polyline>
                    <polyline id="Fill-242" fill="#233543" fill-rule="nonzero" points="0.840013767 275.139895 0.415929146 274.4063 183.006943 168.862709 183.431027 169.597561 0.840013767 275.139895"></polyline>
                    <polyline id="Fill-243" fill="#233543" fill-rule="nonzero" points="0.840013767 296.247106 0.415929146 295.51351 183.006943 189.971176 183.431027 190.706028 0.840013767 296.247106"></polyline>
                    <polyline id="Fill-244" fill="#233543" fill-rule="nonzero" points="0.840013767 317.355573 0.415929146 316.621977 183.006943 211.078387 183.431027 211.811983 0.840013767 317.355573"></polyline>
                    <polygon id="Fill-245" fill="#455E70" fill-rule="nonzero" points="164.536677 37.2588808 165.383591 37.2588808 165.383591 26.8001153 164.536677 26.8001153"></polygon>
                    <polyline id="Fill-246" fill="#455E70" fill-rule="nonzero" points="160.648398 35.0116155 160.224313 34.2767634 169.27187 29.0473808 169.695955 29.7822327 160.648398 35.0116155"></polyline>
                    <polygon id="Fill-247" fill="#455E70" fill-rule="nonzero" points="146.277199 47.8131142 147.124114 47.8131142 147.124114 37.3543487 146.277199 37.3543487"></polygon>
                    <polyline id="Fill-248" fill="#455E70" fill-rule="nonzero" points="142.388921 45.5658488 141.964836 44.8309968 151.012393 39.6016141 151.436477 40.3364661 142.388921 45.5658488"></polyline>
                    <polygon id="Fill-249" fill="#455E70" fill-rule="nonzero" points="128.018977 58.3673475 128.864637 58.3673475 128.864637 47.9085822 128.018977 47.9085822"></polygon>
                    <polyline id="Fill-250" fill="#455E70" fill-rule="nonzero" points="124.130698 56.1200822 123.706613 55.3852302 132.75417 50.1545913 133.178255 50.8894433 124.130698 56.1200822"></polyline>
                    <polygon id="Fill-251" fill="#455E70" fill-rule="nonzero" points="109.759498 68.9215809 110.606413 68.9215809 110.606413 58.4628155 109.759498 58.4628155"></polygon>
                    <polyline id="Fill-252" fill="#455E70" fill-rule="nonzero" points="105.87122 66.6743156 105.447135 65.9394636 114.494692 60.7100809 114.918776 61.4449328 105.87122 66.6743156"></polyline>
                    <polygon id="Fill-253" fill="#455E70" fill-rule="nonzero" points="91.5000209 79.4758143 92.3469355 79.4758143 92.3469355 69.0170489 91.5000209 69.0170489"></polygon>
                    <polyline id="Fill-254" fill="#455E70" fill-rule="nonzero" points="87.6117421 77.2285489 87.1876574 76.493697 96.2352142 71.2643142 96.6592989 71.9991662 87.6117421 77.2285489"></polyline>
                    <polygon id="Fill-255" fill="#455E70" fill-rule="nonzero" points="73.2405431 90.0300481 74.0874576 90.0300481 74.0874576 79.5712823 73.2405431 79.5712823"></polygon>
                    <polyline id="Fill-256" fill="#455E70" fill-rule="nonzero" points="69.3522643 87.7827826 68.9281797 87.04793 77.9757365 81.8185476 78.3998211 82.5533997 69.3522643 87.7827826"></polyline>
                    <polygon id="Fill-257" fill="#455E70" fill-rule="nonzero" points="54.9823201 100.584281 55.8292347 100.584281 55.8292347 90.1255156 54.9823201 90.1255156"></polygon>
                    <polyline id="Fill-258" fill="#455E70" fill-rule="nonzero" points="51.0940412 98.3370157 50.6699566 97.6021639 59.7175134 92.3727811 60.1415981 93.1076329 51.0940412 98.3370157"></polyline>
                    <polygon id="Fill-259" fill="#455E70" fill-rule="nonzero" points="36.7228423 111.138514 37.5697568 111.138514 37.5697568 100.679749 36.7228423 100.679749"></polygon>
                    <polyline id="Fill-260" fill="#455E70" fill-rule="nonzero" points="32.8345635 108.891249 32.4104789 108.156397 41.4580357 102.927014 41.8821203 103.661866 32.8345635 108.891249"></polyline>
                    <polygon id="Fill-261" fill="#455E70" fill-rule="nonzero" points="18.4633646 121.692748 19.3102791 121.692748 19.3102791 111.233983 18.4633646 111.233983"></polygon>
                    <polyline id="Fill-262" fill="#455E70" fill-rule="nonzero" points="14.5750858 119.445483 14.1510012 118.710631 23.1985579 113.481248 23.6226425 114.2161 14.5750858 119.445483"></polyline>
                    <polygon id="Fill-263" fill="#455E70" fill-rule="nonzero" points="164.536677 58.3660914 165.383591 58.3660914 165.383591 47.9073259 164.536677 47.9073259"></polygon>
                    <polyline id="Fill-264" fill="#455E70" fill-rule="nonzero" points="160.648398 56.1188261 160.224313 55.3839741 169.27187 50.1545913 169.695955 50.8894433 160.648398 56.1188261"></polyline>
                    <polygon id="Fill-265" fill="#455E70" fill-rule="nonzero" points="146.277199 68.9203248 147.124114 68.9203248 147.124114 58.4615594 146.277199 58.4615594"></polygon>
                    <polyline id="Fill-266" fill="#455E70" fill-rule="nonzero" points="142.388921 66.6730594 141.964836 65.9382074 151.012393 60.7088247 151.436477 61.4436767 142.388921 66.6730594"></polyline>
                    <polygon id="Fill-267" fill="#455E70" fill-rule="nonzero" points="128.018977 79.4745581 128.864637 79.4745581 128.864637 69.0157927 128.018977 69.0157927"></polygon>
                    <polyline id="Fill-268" fill="#455E70" fill-rule="nonzero" points="124.130698 77.2272928 123.706613 76.4924408 132.75417 71.2630581 133.178255 71.9979101 124.130698 77.2272928"></polyline>
                    <polygon id="Fill-269" fill="#455E70" fill-rule="nonzero" points="109.759498 90.0300481 110.606413 90.0300481 110.606413 79.5700261 109.759498 79.5700261"></polygon>
                    <polyline id="Fill-270" fill="#455E70" fill-rule="nonzero" points="105.87122 87.7815264 105.447135 87.04793 114.494692 81.8172914 114.918776 82.5521435 105.87122 87.7815264"></polyline>
                    <polygon id="Fill-271" fill="#455E70" fill-rule="nonzero" points="91.5000209 100.583025 92.3469355 100.583025 92.3469355 90.1242594 91.5000209 90.1242594"></polygon>
                    <polyline id="Fill-272" fill="#455E70" fill-rule="nonzero" points="87.6117421 98.3357595 87.1876574 97.6009077 96.2352142 92.3715249 96.6592989 93.1063767 87.6117421 98.3357595"></polyline>
                    <polygon id="Fill-273" fill="#455E70" fill-rule="nonzero" points="73.2405431 111.137258 74.0874576 111.137258 74.0874576 100.678492 73.2405431 100.678492"></polygon>
                    <polyline id="Fill-274" fill="#455E70" fill-rule="nonzero" points="69.3522643 108.891249 68.9281797 108.156397 77.9757365 102.925758 78.3998211 103.660611 69.3522643 108.891249"></polyline>
                    <polygon id="Fill-275" fill="#455E70" fill-rule="nonzero" points="54.9823201 121.692748 55.8292347 121.692748 55.8292347 111.232726 54.9823201 111.232726"></polygon>
                    <polyline id="Fill-276" fill="#455E70" fill-rule="nonzero" points="51.0940412 119.445483 50.6699566 118.710631 59.7175134 113.479992 60.1415981 114.214844 51.0940412 119.445483"></polyline>
                    <polygon id="Fill-277" fill="#455E70" fill-rule="nonzero" points="36.7228423 132.245725 37.5697568 132.245725 37.5697568 121.786959 36.7228423 121.786959"></polygon>
                    <polyline id="Fill-278" fill="#455E70" fill-rule="nonzero" points="32.8345635 129.99846 32.4104789 129.263608 41.4580357 124.034225 41.8821203 124.769077 32.8345635 129.99846"></polyline>
                    <polygon id="Fill-279" fill="#455E70" fill-rule="nonzero" points="18.4633646 142.801214 19.3102791 142.801214 19.3102791 132.341193 18.4633646 132.341193"></polygon>
                    <polyline id="Fill-280" fill="#455E70" fill-rule="nonzero" points="14.5750858 140.55395 14.1510012 139.819097 23.1985579 134.588458 23.6226425 135.323311 14.5750858 140.55395"></polyline>
                    <polygon id="Fill-281" fill="#455E70" fill-rule="nonzero" points="164.536677 79.4745581 165.383591 79.4745581 165.383591 69.0157927 164.536677 69.0157927"></polygon>
                    <polyline id="Fill-282" fill="#455E70" fill-rule="nonzero" points="160.648398 77.2272928 160.224313 76.4924408 169.27187 71.2630581 169.695955 71.9979101 160.648398 77.2272928"></polyline>
                    <polygon id="Fill-283" fill="#455E70" fill-rule="nonzero" points="146.277199 90.0287919 147.124114 90.0287919 147.124114 79.5700261 146.277199 79.5700261"></polygon>
                    <polyline id="Fill-284" fill="#455E70" fill-rule="nonzero" points="142.388921 87.7815264 141.964836 87.0466738 151.012393 81.8172914 151.436477 82.5521435 142.388921 87.7815264"></polyline>
                    <polygon id="Fill-285" fill="#455E70" fill-rule="nonzero" points="128.018977 100.583025 128.864637 100.583025 128.864637 90.1242594 128.018977 90.1242594"></polygon>
                    <polyline id="Fill-286" fill="#455E70" fill-rule="nonzero" points="124.130698 98.3357595 123.706613 97.6009077 132.75417 92.3715249 133.178255 93.1063767 124.130698 98.3357595"></polyline>
                    <polygon id="Fill-287" fill="#455E70" fill-rule="nonzero" points="73.2405431 132.245725 74.0874576 132.245725 74.0874576 121.786959 73.2405431 121.786959"></polygon>
                    <polyline id="Fill-288" fill="#455E70" fill-rule="nonzero" points="69.3522643 129.99846 68.9281797 129.263608 77.9757365 124.034225 78.3998211 124.769077 69.3522643 129.99846"></polyline>
                    <polygon id="Fill-289" fill="#455E70" fill-rule="nonzero" points="54.9823201 142.799958 55.8292347 142.799958 55.8292347 132.341193 54.9823201 132.341193"></polygon>
                    <polyline id="Fill-290" fill="#455E70" fill-rule="nonzero" points="51.0940412 140.552693 50.6699566 139.817841 59.7175134 134.588458 60.1403433 135.323311 51.0940412 140.552693"></polyline>
                    <polygon id="Fill-291" fill="#455E70" fill-rule="nonzero" points="36.7228423 153.354192 37.5697568 153.354192 37.5697568 142.895426 36.7228423 142.895426"></polygon>
                    <polyline id="Fill-292" fill="#455E70" fill-rule="nonzero" points="32.8345635 151.106927 32.4104789 150.372075 41.4580357 145.142692 41.8821203 145.877544 32.8345635 151.106927"></polyline>
                    <polygon id="Fill-293" fill="#455E70" fill-rule="nonzero" points="18.4633646 163.908425 19.3102791 163.908425 19.3102791 153.44966 18.4633646 153.44966"></polygon>
                    <polyline id="Fill-294" fill="#455E70" fill-rule="nonzero" points="14.5750858 161.66116 14.1510012 160.926308 23.1985579 155.696925 23.6226425 156.431777 14.5750858 161.66116"></polyline>
                    <g id="Combined-Shape" transform="translate(159.850340, 89.483333)">
                        <g id="path-5-link" fill="#000000" fill-rule="nonzero">
                            <polygon id="path-5" points="4.26350679 7.33681164 1.00884558 9.21796813 0.163185712 7.74951995 4.26350679 5.37958226 4.26350679 0.639669888 5.95608125 0.639669888 5.95608125 4.40129368 9.21074246 2.52013719 10.0564023 3.98858536 5.95608125 6.35852305 5.95608125 11.0984354 4.26350679 11.0984354"></polygon>
                        </g>
                        <g id="path-5-link" fill="#4BC7EC">
                            <polygon id="path-5" points="4.26350679 7.33681164 1.00884558 9.21796813 0.163185712 7.74951995 4.26350679 5.37958226 4.26350679 0.639669888 5.95608125 0.639669888 5.95608125 4.40129368 9.21074246 2.52013719 10.0564023 3.98858536 5.95608125 6.35852305 5.95608125 11.0984354 4.26350679 11.0984354"></polygon>
                        </g>
                    </g>
                    <g id="Combined-Shape-Copy" transform="translate(104.848073, 184.989583)">
                        <g id="path-7-link" fill="#000000" fill-rule="nonzero">
                            <polygon id="path-7" points="4.47416719 6.91413023 1.21950598 8.79528672 0.373846116 7.32683855 4.47416719 4.95690086 4.47416719 0.216988479 6.16674166 0.216988479 6.16674166 3.97861227 9.42140287 2.09745578 10.2670627 3.56590395 6.16674166 5.93584164 6.16674166 10.675754 4.47416719 10.675754"></polygon>
                        </g>
                        <g id="path-7-link" fill="#4BC7EC">
                            <polygon id="path-7" points="4.47416719 6.91413023 1.21950598 8.79528672 0.373846116 7.32683855 4.47416719 4.95690086 4.47416719 0.216988479 6.16674166 0.216988479 6.16674166 3.97861227 9.42140287 2.09745578 10.2670627 3.56590395 6.16674166 5.93584164 6.16674166 10.675754 4.47416719 10.675754"></polygon>
                        </g>
                    </g>
                    <polygon id="Fill-298" fill="#455E70" fill-rule="nonzero" points="36.7228423 174.462659 37.5697568 174.462659 37.5697568 164.003893 36.7228423 164.003893"></polygon>
                    <polyline id="Fill-299" fill="#455E70" fill-rule="nonzero" points="32.8345635 172.215394 32.4104789 171.480541 41.4580357 166.249903 41.8821203 166.984755 32.8345635 172.215394"></polyline>
                    <polygon id="Fill-300" fill="#455E70" fill-rule="nonzero" points="18.4633646 185.016892 19.3102791 185.016892 19.3102791 174.558127 18.4633646 174.558127"></polygon>
                    <polyline id="Fill-301" fill="#455E70" fill-rule="nonzero" points="14.5750858 182.769627 14.1510012 182.034775 23.1985579 176.805392 23.6226425 177.540244 14.5750858 182.769627"></polyline>
                    <polygon id="Fill-302" fill="#455E70" fill-rule="nonzero" points="36.7228423 195.569869 37.5697568 195.569869 37.5697568 185.111103 36.7228423 185.111103"></polygon>
                    <polyline id="Fill-303" fill="#455E70" fill-rule="nonzero" points="32.8345635 193.322603 32.4104789 192.587752 41.4580357 187.358369 41.8821203 188.093222 32.8345635 193.322603"></polyline>
                    <polygon id="Fill-304" fill="#455E70" fill-rule="nonzero" points="18.4633646 206.124103 19.3102791 206.124103 19.3102791 195.665337 18.4633646 195.665337"></polygon>
                    <polyline id="Fill-305" fill="#455E70" fill-rule="nonzero" points="14.5750858 203.876837 14.1510012 203.141986 23.1985579 197.912603 23.6226425 198.647455 14.5750858 203.876837"></polyline>
                    <polygon id="Fill-306" fill="#455E70" fill-rule="nonzero" points="73.2405431 195.569869 74.0874576 195.569869 74.0874576 185.109847 73.2405431 185.109847"></polygon>
                    <polyline id="Fill-307" fill="#455E70" fill-rule="nonzero" points="69.3522643 193.321348 68.9281797 192.587752 77.9757365 187.358369 78.3998211 188.091965 69.3522643 193.321348"></polyline>
                    <polygon id="Fill-308" fill="#455E70" fill-rule="nonzero" points="54.9823201 206.124103 55.8292347 206.124103 55.8292347 195.665337 54.9823201 195.665337"></polygon>
                    <polyline id="Fill-309" fill="#455E70" fill-rule="nonzero" points="51.0940412 203.876837 50.6699566 203.141986 59.7175134 197.911347 60.1415981 198.646198 51.0940412 203.876837"></polyline>
                    <polygon id="Fill-310" fill="#455E70" fill-rule="nonzero" points="36.7228423 216.678336 37.5697568 216.678336 37.5697568 206.21957 36.7228423 206.21957"></polygon>
                    <polyline id="Fill-311" fill="#455E70" fill-rule="nonzero" points="32.8345635 214.429814 32.4104789 213.696219 41.4580357 208.466836 41.8821203 209.201688 32.8345635 214.429814"></polyline>
                    <g id="Combined-Shape" transform="translate(13.750567, 215.964583)">
                        <g id="path-9-link" fill="#000000" fill-rule="nonzero">
                            <polygon id="path-9" points="4.28996778 7.50789172 1.03656122 9.3887746 0.189646615 7.91907108 4.28996778 5.54913253 4.28996778 0.807964806 5.9837969 0.807964806 5.9837969 4.57011947 9.23720345 2.68968831 10.084118 4.15813562 5.9837969 6.52864291 5.9837969 11.2679857 4.28996778 11.2679857"></polygon>
                        </g>
                        <g id="path-9-link" fill="#4BC7EC">
                            <polygon id="path-9" points="4.28996778 7.50789172 1.03656122 9.3887746 0.189646615 7.91907108 4.28996778 5.54913253 4.28996778 0.807964806 5.9837969 0.807964806 5.9837969 4.57011947 9.23720345 2.68968831 10.084118 4.15813562 5.9837969 6.52864291 5.9837969 11.2679857 4.28996778 11.2679857"></polygon>
                        </g>
                    </g>
                    <polygon id="Fill-314" fill="#455E70" fill-rule="nonzero" points="73.2405431 216.67708 74.0874576 216.67708 74.0874576 206.218314 73.2405431 206.218314"></polygon>
                    <polyline id="Fill-315" fill="#455E70" fill-rule="nonzero" points="69.3522643 214.429814 68.9281797 213.696219 77.9757365 208.46558 78.3998211 209.200431 69.3522643 214.429814"></polyline>
                    <polygon id="Fill-316" fill="#455E70" fill-rule="nonzero" points="54.9823201 227.232569 55.8292347 227.232569 55.8292347 216.772548 54.9823201 216.772548"></polygon>
                    <polyline id="Fill-317" fill="#455E70" fill-rule="nonzero" points="51.0940412 224.984048 50.6699566 224.250452 59.7175134 219.021069 60.1415981 219.754665 51.0940412 224.984048"></polyline>
                    <polygon id="Fill-318" fill="#455E70" fill-rule="nonzero" points="36.7228423 237.785547 37.5697568 237.785547 37.5697568 227.326781 36.7228423 227.326781"></polygon>
                    <polyline id="Fill-319" fill="#455E70" fill-rule="nonzero" points="32.8345635 235.538281 32.4104789 234.804686 41.4580357 229.575303 41.8821203 230.308898 32.8345635 235.538281"></polyline>
                    <polygon id="Fill-320" fill="#455E70" fill-rule="nonzero" points="18.4633646 248.33978 19.3102791 248.33978 19.3102791 237.881014 18.4633646 237.881014"></polygon>
                    <polyline id="Fill-321" fill="#455E70" fill-rule="nonzero" points="14.5750858 246.092514 14.1510012 245.358919 23.1985579 240.12828 23.6226425 240.861875 14.5750858 246.092514"></polyline>
                    <polygon id="Fill-322" fill="#455E70" fill-rule="nonzero" points="73.2405431 237.785547 74.0874576 237.785547 74.0874576 227.326781 73.2405431 227.326781"></polygon>
                    <polyline id="Fill-323" fill="#455E70" fill-rule="nonzero" points="69.3522643 235.537025 68.9281797 234.803429 77.9757365 229.574047 78.3998211 230.307642 69.3522643 235.537025"></polyline>
                    <polygon id="Fill-324" fill="#455E70" fill-rule="nonzero" points="54.9823201 248.33978 55.8292347 248.33978 55.8292347 237.879758 54.9823201 237.879758"></polygon>
                    <polyline id="Fill-325" fill="#455E70" fill-rule="nonzero" points="51.0940412 246.091258 50.6699566 245.357663 59.7175134 240.12828 60.1403433 240.861875 51.0940412 246.091258"></polyline>
                    <polygon id="Fill-326" fill="#455E70" fill-rule="nonzero" points="36.7228423 258.894014 37.5697568 258.894014 37.5697568 248.435248 36.7228423 248.435248"></polygon>
                    <polyline id="Fill-327" fill="#455E70" fill-rule="nonzero" points="32.8345635 256.646748 32.4104789 255.913152 41.4580357 250.683769 41.8821203 251.417365 32.8345635 256.646748"></polyline>
                    <polygon id="Fill-328" fill="#455E70" fill-rule="nonzero" points="18.4633646 269.448247 19.3102791 269.448247 19.3102791 258.989481 18.4633646 258.989481"></polygon>
                    <polyline id="Fill-329" fill="#455E70" fill-rule="nonzero" points="14.5750858 267.199725 14.1510012 266.46613 23.1985579 261.236747 23.6226425 261.970342 14.5750858 267.199725"></polyline>
                    <polygon id="Fill-330" fill="#455E70" fill-rule="nonzero" points="73.2405431 258.894014 74.0874576 258.894014 74.0874576 248.435248 73.2405431 248.435248"></polygon>
                    <polyline id="Fill-331" fill="#455E70" fill-rule="nonzero" points="69.3522643 256.645492 68.9281797 255.911896 77.9757365 250.682513 78.3998211 251.416109 69.3522643 256.645492"></polyline>
                    <g id="Group-13" transform="translate(87.193931, 227.689780)" fill="#455E70" fill-rule="nonzero">
                        <polygon id="Fill-332" points="22.5718411 10.4587655 23.4187557 10.4587655 23.4187557 2.84217094e-14 22.5718411 2.84217094e-14"></polygon>
                        <polyline id="Fill-333" points="18.6835624 8.21150008 18.2594777 7.47790423 27.3070346 2.24852151 27.7298645 2.98211736 18.6835624 8.21150008"></polyline>
                        <polygon id="Fill-334" points="4.31236343 21.0129988 5.15927798 21.0129988 5.15927798 10.5542334 4.31236343 10.5542334"></polygon>
                        <polyline id="Fill-335" points="0.42408462 18.7657334 -1.12621024e-12 18.0321376 9.04755675 12.8014987 9.47164142 13.5350946 0.42408462 18.7657334"></polyline>
                    </g>
                    <g id="Group-13-Copy" transform="translate(142.102367, 195.665337)" fill="#455E70" fill-rule="nonzero">
                        <polygon id="Fill-332" points="22.5718411 10.4587655 23.4187557 10.4587655 23.4187557 2.84217094e-14 22.5718411 2.84217094e-14"></polygon>
                        <polyline id="Fill-333" points="18.6835624 8.21150008 18.2594777 7.47790423 27.3070346 2.24852151 27.7298645 2.98211736 18.6835624 8.21150008"></polyline>
                        <polygon id="Fill-334" points="4.31236343 21.0129988 5.15927798 21.0129988 5.15927798 10.5542334 4.31236343 10.5542334"></polygon>
                        <polyline id="Fill-335" points="0.42408462 18.7657334 -1.12621024e-12 18.0321376 9.04755675 12.8014987 9.47164142 13.5350946 0.42408462 18.7657334"></polyline>
                    </g>
                    <polygon id="Fill-336" fill="#455E70" fill-rule="nonzero" points="18.4633646 290.556714 19.3102791 290.556714 19.3102791 280.097948 18.4633646 280.097948"></polygon>
                    <polyline id="Fill-337" fill="#455E70" fill-rule="nonzero" points="14.5750858 288.308192 14.1510012 287.574597 23.1985579 282.345214 23.6226425 283.078809 14.5750858 288.308192"></polyline>
                </g>
            </g>
        </g>
    </g>
</svg>
