<?xml version="1.0" encoding="UTF-8"?>
<svg width="24px" height="28px" viewBox="0 0 24 28" version="1.1" xmlns="http://www.w3.org/2000/svg" xmlns:xlink="http://www.w3.org/1999/xlink">
    <g id="Page-1" stroke="none" stroke-width="1" fill="none" fill-rule="evenodd">
        <g id="Desktop-HD-Copy-3" transform="translate(-209.000000, -1022.000000)">
            <g id="Group-6" transform="translate(165.000000, 776.000000)">
                <g id="Group-5" transform="translate(0.000000, 204.000000)">
                    <g id="Group-9" transform="translate(40.000000, 40.000000)">
                        <g id="Group-4">
                            <g id="icon/fingerprint">
                                <g id="screenshot-d.pr-2019.11.14-16_03_31-(83)">
                                    <path d="M23.7466667,5.96000004 C23.64,5.96000004 23.5333334,5.93333337 23.44,5.88000004 C20.88,4.56000002 18.6666667,4.00000002 16.0133333,4.00000002 C13.3733333,4.00000002 10.8666666,4.62666669 8.5866666,5.88000004 C8.2666666,6.05333337 7.86666659,5.93333337 7.67999992,5.61333337 C7.50666659,5.29333336 7.62666659,4.88000003 7.94666659,4.70666669 C10.4266666,3.36000001 13.1466666,2.66666667 16.0133333,2.66666667 C18.8533333,2.66666667 21.3333334,3.29333334 24.0533334,4.69333336 C24.3866667,4.86666669 24.5066667,5.2666667 24.3333334,5.5866667 C24.2133334,5.8266667 23.9866667,5.96000004 23.7466667,5.96000004 L23.7466667,5.96000004 Z M4.6666666,12.96 C4.53333327,12.96 4.39999994,12.92 4.27999994,12.84 C3.97333329,12.6266667 3.90666662,12.2133334 4.11999995,11.9066667 C5.4399999,10.04 7.11999984,8.57333331 9.11999977,7.54666662 C13.3066663,5.38666659 18.6666661,5.37333326 22.866666,7.53333329 C24.8666659,8.55999997 26.5466658,10.0133333 27.8666658,11.8666667 C28.0799991,12.16 28.0133324,12.5866667 27.7066658,12.8 C27.3999991,13.0133334 26.9866658,12.9466667 26.7733325,12.64 C25.5733325,10.96 24.0533326,9.63999999 22.2533326,8.71999997 C18.4266661,6.75999994 13.5333329,6.75999994 9.71999975,8.73333331 C7.90666648,9.66666665 6.38666653,11 5.18666658,12.68 C5.07999991,12.8666667 4.87999992,12.96 4.6666666,12.96 L4.6666666,12.96 Z M12.9999998,29.0533339 C12.8266664,29.0533339 12.6533331,28.9866672 12.5333331,28.8533339 C11.3733331,27.6933339 10.7466665,26.9466672 9.85333318,25.3333338 C8.93333321,23.6933337 8.45333322,21.6933336 8.45333322,19.5466669 C8.45333322,15.5866668 11.8399998,12.36 15.9999997,12.36 C20.1599996,12.36 23.5466661,15.5866668 23.5466661,19.5466669 C23.5466661,19.9200003 23.2533328,20.2133336 22.8799995,20.2133336 C22.5066662,20.2133336 22.2133328,19.9200003 22.2133328,19.5466669 C22.2133328,16.3200001 19.4266663,13.6933334 15.9999997,13.6933334 C12.5733331,13.6933334 9.78666652,16.3200001 9.78666652,19.5466669 C9.78666652,21.466667 10.2133332,23.2400004 11.0266665,24.6800004 C11.8799998,26.2133338 12.4666664,26.8666672 13.4933331,27.9066672 C13.7466664,28.1733339 13.7466664,28.5866672 13.4933331,28.8533339 C13.3466664,28.9866672 13.1733331,29.0533339 12.9999998,29.0533339 Z M22.5600005,26.5866667 C20.9733338,26.5866667 19.5733338,26.1866667 18.4266671,25.4 C16.4400004,24.0533333 15.2533337,21.8666666 15.2533337,19.5466665 C15.2533337,19.1733331 15.5466671,18.8799998 15.9200004,18.8799998 C16.2933337,18.8799998 16.5866671,19.1733331 16.5866671,19.5466665 C16.5866671,21.4266666 17.5466671,23.2 19.1733338,24.2933333 C20.1200004,24.9333333 21.2266671,25.24 22.5600005,25.24 C22.8800005,25.24 23.4133338,25.2 23.9466671,25.1066667 C24.3066671,25.04 24.6533338,25.28 24.7200005,25.6533334 C24.7866671,26.0133334 24.5466671,26.3600001 24.1733338,26.4266667 C23.4133338,26.5733334 22.7466671,26.5866667 22.5600005,26.5866667 L22.5600005,26.5866667 Z M19.8800005,29.333334 C19.8266671,29.333334 19.7600005,29.3200006 19.7066671,29.3066673 C17.586667,28.7200006 16.2000003,27.9333339 14.746667,26.5066672 C12.8800002,24.6533339 11.8533335,22.1866672 11.8533335,19.5466671 C11.8533335,17.3866671 13.6933336,15.626667 15.9600003,15.626667 C18.2266671,15.626667 20.0666671,17.3866671 20.0666671,19.5466671 C20.0666671,20.9733338 21.3066672,22.1333338 22.8400006,22.1333338 C24.3733339,22.1333338 25.613334,20.9733338 25.613334,19.5466671 C25.613334,14.5200003 21.2800005,10.4400003 15.946667,10.4400003 C12.1600002,10.4400003 8.69333343,12.546667 7.13333338,15.8133337 C6.61333336,16.8933337 6.34666668,18.1600004 6.34666668,19.5466671 C6.34666668,20.5866671 6.44000002,22.2266672 7.24000005,24.3600005 C7.37333338,24.7066672 7.20000005,25.0933336 6.85333337,25.2133339 C6.50666669,25.3466672 6.12000001,25.1600006 6.00000001,24.8266672 C5.34666665,23.0800005 5.02666664,21.3466671 5.02666664,19.5466671 C5.02666664,17.9466671 5.33333332,16.4933337 5.93333334,15.226667 C7.70666673,11.5066669 11.6400002,9.09333356 15.946667,9.09333356 C22.0133339,9.09333356 26.9466674,13.7733337 26.9466674,19.5333338 C26.9466674,21.6933338 25.1066673,23.4533339 22.8400006,23.4533339 C20.5733338,23.4533339 18.7333338,21.6933338 18.7333338,19.5333338 C18.7333338,18.1066671 17.4933337,16.9466671 15.9600003,16.9466671 C14.4266669,16.9466671 13.1866669,18.1066671 13.1866669,19.5333338 C13.1866669,21.8133338 14.0666669,23.9466672 15.6800003,25.5466672 C16.946667,26.8000006 18.1600004,27.4933339 20.0400005,28.0133339 C20.4000005,28.1066673 20.6000005,28.4800006 20.5066671,28.8266673 C20.4400005,29.133334 20.1600005,29.333334 19.8800005,29.333334 L19.8800005,29.333334 Z" id="Shape" fill="#52C7EA" fill-rule="nonzero"></path>
                                    <polygon id="Path" points="0 0 32 0 32 32 0 32"></polygon>
                                </g>
                            </g>
                        </g>
                    </g>
                </g>
            </g>
        </g>
    </g>
</svg>
