<?xml version="1.0" encoding="UTF-8"?>
<svg width="27px" height="22px" viewBox="0 0 27 22" version="1.1" xmlns="http://www.w3.org/2000/svg" xmlns:xlink="http://www.w3.org/1999/xlink">
    <g id="Page-1" stroke="none" stroke-width="1" fill="none" fill-rule="evenodd">
        <g id="Desktop-HD-Copy-3" transform="translate(-577.000000, -1025.000000)" fill="#52C7EA" fill-rule="nonzero">
            <g id="Group-6" transform="translate(165.000000, 776.000000)">
                <g id="Group-5" transform="translate(0.000000, 204.000000)">
                    <g id="Group-9-Copy-3" transform="translate(410.000000, 40.000000)">
                        <g id="Group-4">
                            <g id="icon/fingerprint-icon/hands">
                                <g id="screenshot-d.pr-2019.11.14-16_03_31-(79)" transform="translate(2.000000, 4.000000)">
                                    <path d="M19.2115214,18.9116851 L19.2184634,18.9151561 L16.8894261,16.5861186 L16.7679412,16.7076035 L16.6464565,16.8290883 L18.9720229,19.1581258 C19.330268,19.519404 19.330268,20.1019416 18.9720229,20.4632197 C18.6033001,20.8096978 18.0287096,20.8096978 17.6599868,20.4632197 L15.3170655,18.1376533 L15.0740959,18.380623 L17.4031333,20.7096604 C17.5771541,20.8829242 17.6749819,21.1183751 17.6749819,21.3639429 C17.6749819,21.6095108 17.5771541,21.8449617 17.4031333,22.0182255 C17.0374258,22.3655469 16.4637468,22.3655469 16.0980393,22.0182255 L14.9387271,20.8554421 L13.7724729,19.6891879 L13.650988,19.8106728 L13.5295033,19.9321576 L14.6957575,21.1122959 C15.0540027,21.473574 15.0540027,22.0561116 14.6957575,22.4173898 C14.3265606,22.7660477 13.7494474,22.7660477 13.3802505,22.4173898 L12.1827574,21.2094837 L12.2938291,21.0984119 C12.337191,21.0522804 12.3777582,21.0035997 12.415314,20.95263 C12.425727,20.9352752 12.453495,20.9040362 12.453495,20.9040362 C12.5460139,20.7722268 12.6120301,20.6236905 12.6478707,20.4666907 C12.6630076,20.3842219 12.6711357,20.3006194 12.6721677,20.2167792 C12.6713596,19.8734335 12.531985,19.5449524 12.2856349,19.3057901 C12.0392848,19.066628 11.7068217,18.9370387 11.3636027,18.9463951 L11.8321869,18.4708688 C12.3198324,17.9707379 12.3198324,17.1730245 11.8321869,16.6728935 C11.7785935,16.6240079 11.7217725,16.5787829 11.6621082,16.5375248 L11.6031012,16.4958728 C11.5551791,16.4669928 11.505308,16.4414774 11.4538485,16.4195109 L11.3636027,16.3813299 C11.3173086,16.3638033 11.2697303,16.3498779 11.2212918,16.339678 L11.137988,16.339678 C11.0703719,16.3274118 11.0019005,16.3204486 10.9331993,16.318852 L10.8984894,16.318852 C10.8356403,16.3194691 10.7729495,16.3252738 10.7110557,16.336207 L10.6520487,16.336207 L10.6069259,16.336207 L10.6069259,16.287613 L10.6069259,16.2355482 C10.6190154,16.1655727 10.6259759,16.0948074 10.6277519,16.0238175 C10.6295154,15.6874942 10.4956268,15.36466 10.2563554,15.1283008 C10.0227681,14.8979853 9.70617336,14.7715976 9.37819372,14.7777304 C9.30259187,14.7793441 9.22719886,14.7863035 9.15257908,14.7985564 L9.10051415,14.7985564 L9.04844923,14.7985564 C9.04844923,14.7812014 9.04844923,14.7430204 9.04844923,14.7430204 L9.04844923,14.6874845 C9.06070207,14.6128648 9.06766142,14.5374716 9.0692752,14.4618698 C9.06838249,14.1277423 8.9318375,13.8083021 8.69093679,13.5767662 C8.19167678,13.0936163 7.39916357,13.0936163 6.89990356,13.5767662 L5.74059136,14.7812014 L4.35219351,13.3928035 L11.3254217,6.45081393 L12.6791095,7.79061792 L11.3288927,9.14430591 C9.98080429,10.498528 9.98080429,12.6876575 11.3288927,14.0418794 C11.8929339,14.5778468 12.7780284,14.5778468 13.3420696,14.0418794 L15.1400448,12.2473752 L20.5131445,17.5961781 C20.6862169,17.7706934 20.7834979,18.0064127 20.783946,18.2521961 C20.7859583,18.4994822 20.6883739,18.7371878 20.5131445,18.9116851 C20.1479042,19.2568145 19.5767617,19.2568145 19.2115214,18.9116851 Z M8.94084848,20.8554412 C8.57813465,21.2003822 8.01100722,21.207944 7.63922553,20.8727962 C7.46413647,20.6993965 7.3656292,20.4631999 7.3656292,20.2167782 C7.3656292,19.9703566 7.46413647,19.73416 7.63922553,19.5607603 L10.2528844,16.9436304 C10.4273678,16.7726412 10.6611484,16.6756472 10.9054315,16.6728668 C11.2804481,16.6709095 11.6196956,16.8951345 11.7648516,17.2409252 C11.9100077,17.5867158 11.8324571,17.9859045 11.5683914,18.2521953 L8.94084848,20.8554412 Z M7.39625575,19.2934947 C7.03008738,19.6430195 6.4538591,19.6430195 6.08769073,19.2934947 C5.92095842,19.120151 5.82875483,18.888396 5.83076922,18.6478896 C5.83122134,18.4021062 5.92850234,18.1663869 6.10157472,17.9918717 L8.71870473,15.3712707 C8.89074488,15.1970307 9.12641481,15.1005064 9.37125174,15.1040041 C9.61631999,15.0992769 9.85245615,15.1959922 10.0237987,15.3712707 C10.3847457,15.7341424 10.3847457,16.3204348 10.0237987,16.6833066 L7.39625575,19.2934947 Z M8.45143827,15.1283004 L5.82042427,17.7384883 C5.4542559,18.0880132 4.87802762,18.0880132 4.51185925,17.7384883 C4.33794319,17.5702372 4.24016797,17.3383344 4.24110794,17.0963544 C4.24134215,16.8495169 4.33857927,16.6126573 4.51185925,16.4368654 L7.12898927,13.8197355 C7.30222546,13.6468695 7.53680556,13.5495437 7.78153628,13.5489566 C8.02739722,13.5473216 8.26321642,13.6464159 8.43408328,13.8232065 C8.60696756,13.9924571 8.70559323,14.223416 8.70829187,14.4653405 C8.71342706,14.5265538 8.71342706,14.5880898 8.70829187,14.6493031 C8.67090152,14.8304862 8.58166545,14.9968995 8.45143827,15.1283004 Z M16.9345493,7.71425572 L22.467315,13.5698235 L19.7772941,16.3743871 L15.6641652,12.2682007 L15.2545878,11.8829203 C15.2239641,11.8506565 15.1810368,11.8329805 15.136574,11.8343263 C15.0905472,11.8337651 15.0464254,11.8526746 15.0150891,11.8863913 L13.0991,13.7989092 C12.6700833,14.2026824 12.000879,14.2026824 11.5718623,13.7989092 C10.3583523,12.5800691 10.3583523,10.6095862 11.5718623,9.39074607 L13.0470352,7.91557342 L13.6544591,7.30814936 C14.2722963,6.69378332 14.8311264,6.47858166 15.4107825,6.63477641 C15.9140768,6.7736162 16.3861321,7.16930957 16.9345493,7.71425572 Z M26.7782901,9.55041236 L26.7782901,9.53999936 C27.0739033,9.83775807 27.0739033,10.3182489 26.7782901,10.6160077 L24.9872569,12.386215 C24.6853393,12.6749165 24.2096952,12.6749165 23.9077776,12.386215 L15.9244903,4.40292706 C15.6288771,4.10516827 15.6288771,3.62467744 15.9244903,3.32691867 L17.7189945,1.56712433 C18.0167532,1.27151104 18.497244,1.27151104 18.7950028,1.56712433 L26.7782901,9.55041236 Z M3.08180953,12.4105112 C2.77392008,12.6903014 2.3007476,12.6796169 2.00580121,12.3862142 L0.221709959,10.6021231 C-0.0739033196,10.3043643 -0.0739033196,9.82387348 0.221709959,9.52611479 L8.20499762,1.54282734 C8.50275638,1.24721409 8.98324719,1.24721409 9.28100595,1.54282734 L11.0650972,3.32691853 C11.2146437,3.47087047 11.2991447,3.66949874 11.2991447,3.87707117 C11.2991447,4.0846436 11.2146437,4.28327186 11.0650972,4.4272238 L3.08180953,12.4105112 Z M10.502796,22.4173886 C10.1301737,22.7614062 9.55441885,22.7568488 9.18728908,22.4069758 C8.83050871,22.0437445 8.83050871,21.4616419 9.18728908,21.0984108 L10.7422946,19.5572892 C11.0072399,19.2945551 11.4039099,19.2163355 11.7487612,19.3588235 C12.0936124,19.5013115 12.3193793,19.8367139 12.3215971,20.2098361 C12.3214354,20.4563463 12.2227024,20.6925556 12.0473886,20.8658541 L10.502796,22.4173886 Z" id="Combined-Shape"></path>
                                </g>
                            </g>
                        </g>
                    </g>
                </g>
            </g>
        </g>
    </g>
</svg>
