<?xml version="1.0" encoding="UTF-8"?>
<svg width="23px" height="24px" viewBox="0 0 23 24" version="1.1" xmlns="http://www.w3.org/2000/svg" xmlns:xlink="http://www.w3.org/1999/xlink">
    <g id="Page-1" stroke="none" stroke-width="1" fill="none" fill-rule="evenodd">
        <g id="Desktop-HD-Copy-4" transform="translate(-1027.000000, -993.000000)" fill="#52C7EA" fill-rule="nonzero">
            <g id="Group-17" transform="translate(165.000000, 785.000000)">
                <g id="Group-30" transform="translate(0.000000, 112.000000)">
                    <g id="Group-24" transform="translate(0.000000, 68.000000)">
                        <g id="Group-9-Copy-3" transform="translate(858.000000, 24.000000)">
                            <g id="Group-4">
                                <g id="icon/key">
                                    <g id="screenshot-d.pr-2019.11.14-16_03_31-(80)" transform="translate(4.000000, 4.000000)">
                                        <path d="M15.0367904,13.3894613 L13.0616422,13.3894613 L13.0616422,15.6960956 L14.0374178,15.6960956 C14.3573013,15.6966538 14.6459425,15.5042331 14.7684688,15.2087453 C14.9860552,14.6841739 15.4985078,14.3425928 16.0664145,14.3435847 L17.756431,14.3435847 C17.9083353,13.8522329 18.3966245,13.5457452 18.905153,13.6225588 C19.4136813,13.6993725 19.7896607,14.1364088 19.7896607,14.6507059 C19.7896607,15.165003 19.4136813,15.6020394 18.905153,15.678853 C18.3966245,15.7556667 17.9083353,15.4491791 17.756431,14.9578273 L16.0664145,14.9578273 C15.7465412,14.957262 15.4579116,15.1496885 15.3354147,15.4451775 C15.1177892,15.969726 14.6053181,16.3112654 14.0374178,16.3102358 L13.0616422,16.3102358 L13.0616422,17.2339541 L15.256075,17.226788 C15.7985061,17.2261894 16.2974464,17.5235246 16.5550444,18.0008872 C16.7052374,18.2793605 16.9962162,18.4528664 17.3126103,18.4526114 L19.2585101,18.4526114 C19.4172854,17.963562 19.9097202,17.6640448 20.4170021,17.7479734 C20.9242839,17.831902 21.2940101,18.2740616 21.2868124,18.7881891 C21.2796146,19.3023167 20.8976552,19.7339527 20.3882226,19.8036471 C19.87879,19.8733417 19.3949331,19.5601564 19.2499106,19.066854 L17.3126614,19.066854 C16.7705407,19.0672361 16.2719842,18.7699384 16.0146134,18.292806 C15.864434,18.014313 15.5734526,17.8407858 15.2570475,17.8410306 L13.0616422,17.8481967 L13.0616422,20.2040218 L14.0532345,20.2040218 C14.7805692,20.2070729 15.4202362,20.6857214 15.6283572,21.3826508 C15.7586277,21.8188641 16.1590216,22.1184371 16.6142677,22.1203049 L18.5947697,22.1203049 C18.7466739,21.6289531 19.2349632,21.3224653 19.7434917,21.399279 C20.2520201,21.4760927 20.6279994,21.913129 20.6279994,22.4274261 C20.6279994,22.9417232 20.2520201,23.3787595 19.7434917,23.4555734 C19.2349632,23.532387 18.7466739,23.2258993 18.5947697,22.7345475 L16.6142677,22.7345475 C15.8869051,22.7315798 15.2471938,22.2528983 15.039145,21.5559184 C14.9088922,21.1196926 14.5085382,20.8200715 14.0532856,20.8181107 L13.0616935,20.8181107 L13.0616935,22.1802448 C13.061686,22.2829282 13.0103622,22.3788145 12.9249222,22.4357696 L11.5510662,23.3516565 C11.4479091,23.4204218 11.3135235,23.4204218 11.2103663,23.3516565 L9.83651051,22.4357696 C9.75109621,22.3788565 9.69975824,22.283037 9.69968793,22.1803982 L9.69968793,20.8182131 L8.69099931,20.8182131 C8.23575035,20.8201211 7.83536971,21.1197049 7.70508884,21.5559184 C7.49698444,22.2528374 6.85728654,22.7314467 6.12996616,22.7343939 L4.14946409,22.7343939 C3.99755985,23.2257457 3.50927061,23.5322334 3.00074217,23.4554198 C2.49221371,23.3786061 2.1162345,22.9415698 2.1162345,22.4272727 C2.1162345,21.9129756 2.49221371,21.4759392 3.00074217,21.3991256 C3.50927061,21.3223117 3.99755985,21.6287995 4.14946409,22.1201513 L6.12996616,22.1201513 C6.58519257,22.1182737 6.98557314,21.8187314 7.11587666,21.3825483 C7.32397915,20.6855987 7.96365058,20.206926 8.69099931,20.2038682 L9.69948323,20.2038682 L9.69948323,17.8484015 L7.48595781,17.8410306 C7.16991656,17.8411024 6.87940441,18.014596 6.72946691,18.292806 C6.4720629,18.7697748 5.97361605,19.0669556 5.43162356,19.066598 L2.08260975,19.066598 C1.93762491,19.5601182 1.45362879,19.8735053 0.943990361,19.8038535 C0.434351948,19.7342016 0.0521950358,19.3024379 0.0448470587,18.7881129 C0.0377082128,18.2737878 0.407554636,17.8314334 0.915029449,17.7474571 C1.42250428,17.663481 1.91513378,17.9631141 2.07395916,18.4523554 L5.43162356,18.4523554 C5.74801768,18.4526104 6.0389964,18.2791045 6.18918938,18.0006313 C6.44652938,17.5234872 6.94506988,17.2261677 7.48718628,17.2265321 L9.69968793,17.233903 L9.69968793,16.3099799 L8.70666256,16.3099799 C8.13876213,16.3110096 7.6262911,15.96947 7.40866561,15.4449215 C7.28616877,15.1494326 6.99753902,14.9570061 6.67766578,14.9575713 L4.98764925,14.9575713 C4.83574501,15.4489232 4.34745577,15.7554108 3.83892732,15.6785971 C3.33039888,15.6017834 2.95441966,15.1647471 2.95441966,14.65045 C2.95441966,14.1361529 3.33039888,13.6991166 3.83892732,13.6223029 C4.34745577,13.5454892 4.83574501,13.8519769 4.98764925,14.3433288 L6.67766578,14.3433288 C7.2456098,14.3423626 7.75807286,14.6840113 7.97561149,15.208643 C8.09813785,15.5041308 8.38677902,15.6965515 8.70666256,15.6959933 L9.69968793,15.6959933 L9.69968793,13.3894613 L7.70744344,13.3894613 C7.17666187,13.3871173 6.71820803,13.0176384 6.60313768,12.4994749 C6.55057771,12.2629647 6.34132683,12.0943188 6.09904929,12.0932047 L3.24064103,12.0932047 C3.08873679,12.5845565 2.60044755,12.8910442 2.09191911,12.8142306 C1.58339066,12.7374169 1.20741144,12.3003806 1.20741144,11.7860835 C1.20741144,11.2717863 1.58339066,10.83475 2.09191911,10.7579364 C2.60044755,10.6811227 3.08873679,10.9876103 3.24064103,11.4789621 L6.09904929,11.4789621 C6.62980264,11.4814156 7.08821136,11.8508411 7.20340623,12.3689484 C7.25589321,12.6054827 7.465158,12.7741569 7.70744344,12.7752187 L9.69989278,12.7752187 L9.69989278,10.2213005 C7.13725462,9.88235244 5.72548997,7.05882317 6.43770169,4.0187609 C6.44438624,3.99022801 6.45130271,3.96164478 6.45851001,3.93302586 C6.92110572,2.08005545 8.38521304,0.643933692 10.2467652,0.217181017 C12.9775762,-0.408845441 15.6988306,1.29741952 16.324857,4.02823049 C17.0196072,7.05882317 15.6078425,9.88235244 13.0616422,10.2213005 L13.0616422,12.7752187 L15.0367904,12.7752187 C15.2790605,12.7741623 15.48832,12.6055136 15.5408276,12.3689997 C15.6560019,11.8508719 16.1144159,11.4814211 16.6451846,11.4789621 L20.9153575,11.4789621 C21.0672617,10.9876103 21.5555509,10.6811227 22.0640794,10.7579364 C22.5726078,10.83475 22.948587,11.2717863 22.948587,11.7860835 C22.948587,12.3003806 22.5726078,12.7374169 22.0640794,12.8142306 C21.5555509,12.8910442 21.0672617,12.5845565 20.9153575,12.0932047 L16.6451846,12.0932047 C16.4028916,12.0943243 16.1936355,12.2629956 16.1410961,12.4995262 C16.0260052,13.0176692 15.5675565,13.3871227 15.0367904,13.3894613 Z M11.3721172,5.07777608 C12.2038229,5.07777608 12.8780537,4.40354536 12.8780537,3.57183961 C12.8780537,2.74013388 12.2038229,2.06590316 11.3721172,2.06590316 C10.5404115,2.06590316 9.86618076,2.74013388 9.86618076,3.57183961 C9.86618076,4.40354536 10.5404115,5.07777608 11.3721172,5.07777608 Z" id="Shape"></path>
                                    </g>
                                </g>
                            </g>
                        </g>
                    </g>
                </g>
            </g>
        </g>
    </g>
</svg>
