<?xml version="1.0" encoding="UTF-8"?>
<svg viewBox="0 0 24 24" version="1.1" xmlns="http://www.w3.org/2000/svg" xmlns:xlink="http://www.w3.org/1999/xlink">
    <g id="icon/linux" stroke="none" stroke-width="1" fill="none" fill-rule="evenodd">
        <path d="M14.6217947,8.35 C14.2017947,8.63 12.8717947,9.39 12.6717947,9.54 C12.2817947,9.85 11.9217947,9.83 11.5317947,9.53 C11.3317947,9.37 10.0017947,8.61 9.5817947,8.34 C9.1017947,8.03 9.1317947,7.64 9.6617947,7.42 C11.3017947,6.73 12.9417947,6.78 14.5717947,7.45 C15.0617947,7.66 15.0817947,8.05 14.6217947,8.35 M21.8417947,15.63 C20.9117947,13.54 19.6417947,11.64 18.0017947,9.97 C17.4717947,9.42 17.1417947,8.8 16.9417947,8.09 C16.8417947,7.76 16.7717947,7.42 16.7017947,7.08 C16.5017947,6.2 16.4117947,5.3 16.0017947,4.47 C15.2717947,2.89 14.0017947,2.07 12.1617947,2 C10.3517947,2.05 9.0017947,2.81 8.2117947,4.4 C8.0017947,4.83 7.8517947,5.28 7.7517947,5.74 C7.5817947,6.5 7.4317947,7.29 7.2517947,8.06 C7.1017947,8.71 6.8017947,9.27 6.2917947,9.77 C4.6817947,11.34 3.3917947,13.14 2.4117947,15.12 C2.2717947,15.41 2.1317947,15.7 2.0417947,16 C1.8517947,16.66 2.3317947,17.12 3.0317947,16.96 C3.4717947,16.87 3.9117947,16.78 4.3317947,16.65 C4.7417947,16.5 4.9017947,16.6 5.0017947,17 C5.6517947,19.15 7.0717947,20.66 9.2417947,21.5 C13.3617947,23.06 18.1717947,20.84 19.2117947,16.92 C19.2817947,16.65 19.3817947,16.55 19.6817947,16.65 C20.1417947,16.79 20.6117947,16.89 21.0817947,17 C21.5717947,17.09 21.9317947,16.84 22.0017947,16.36 C22.0317947,16.1 21.9417947,15.87 21.8417947,15.63" id="Shape" fill="#00BAE9" fill-rule="nonzero"></path>
    </g>
</svg>
