<?xml version="1.0" encoding="UTF-8"?>
<svg width="20px" height="22px" viewBox="0 0 20 22" version="1.1" xmlns="http://www.w3.org/2000/svg" xmlns:xlink="http://www.w3.org/1999/xlink">
    <g id="Page-1" stroke="none" stroke-width="1" fill="none" fill-rule="evenodd">
        <g id="Desktop-HD-Copy-4" transform="translate(-473.000000, -994.000000)" fill="#52C7EA" fill-rule="nonzero">
            <g id="Group-17" transform="translate(165.000000, 785.000000)">
                <g id="Group-30" transform="translate(0.000000, 112.000000)">
                    <g id="Group-24" transform="translate(0.000000, 68.000000)">
                        <g id="Group-9-Copy" transform="translate(302.000000, 24.000000)">
                            <g id="Group-4">
                                <g id="icon/list">
                                    <g id="screenshot-d.pr-2019.11.14-16_03_31-(82)" transform="translate(6.666667, 4.000000)">
                                        <path d="M17.3893691,22.9844623 C18.0591289,22.9844623 18.5997785,22.4438126 18.5997785,21.7740528 L18.5997785,21.2303098 C18.5997785,20.8621199 18.3013017,20.5636431 17.9331119,20.5636431 L3.93459143,20.5636431 C3.5664016,20.5636431 3.26792479,20.8621199 3.26792479,21.2303098 L3.26792479,21.7740528 C3.26792479,22.2259389 3.10653685,22.6455476 2.85638555,22.9844623 L15.7754897,22.9844623 L17.3893691,22.9844623 Z" id="Path"></path>
                                        <path d="M1.25057542,22.9844611 C1.92033537,22.9844611 2.46098498,22.4438116 2.46098498,21.7740517 L2.46098498,20.1601723 C2.46098498,19.9342292 2.63851172,19.7567024 2.86445484,19.7567024 L15.3720204,19.7567024 L15.3720204,3.86375643 C15.3720204,2.39099714 14.178113,1.19708983 12.7053537,1.19708983 L1.45231034,1.19708983 C0.672404478,1.19708983 0.0401658515,1.82932843 0.0401658515,2.60923426 L0.0401658515,21.7740517 C0.0401658515,22.4438116 0.580815458,22.9844611 1.25057542,22.9844611 Z M2.86445482,3.61790898 L12.5477311,3.61790898 C12.7736742,3.61790898 12.9512009,3.79543572 12.9512009,4.02137884 C12.9512009,4.24732196 12.7736742,4.42484869 12.5477311,4.42484869 L2.86445482,4.42484869 C2.63851171,4.42484869 2.46098498,4.24732196 2.46098498,4.02137884 C2.46098498,3.79543572 2.63851171,3.61790898 2.86445482,3.61790898 Z M2.86445482,6.84566771 L12.5477311,6.84566771 C12.7736742,6.84566771 12.9512009,7.02319445 12.9512009,7.24913755 C12.9512009,7.47508067 12.7736742,7.65260741 12.5477311,7.65260741 L2.86445482,7.65260741 C2.63851171,7.65260741 2.46098498,7.47508067 2.46098498,7.24913755 C2.46098498,7.02319445 2.63851171,6.84566771 2.86445482,6.84566771 Z M2.86445482,10.0734268 L12.5477311,10.0734268 C12.7736742,10.0734268 12.9512009,10.2509535 12.9512009,10.4768966 C12.9512009,10.7028397 12.7736742,10.8803665 12.5477311,10.8803665 L2.86445482,10.8803665 C2.63851171,10.8803665 2.46098498,10.7028397 2.46098498,10.4768966 C2.46098498,10.2509535 2.63851171,10.0734268 2.86445482,10.0734268 Z M2.86445482,13.3011858 L12.5477311,13.3011858 C12.7736742,13.3011858 12.9512009,13.4787125 12.9512009,13.7046557 C12.9512009,13.9305988 12.7736742,14.1081255 12.5477311,14.1081255 L2.86445482,14.1081255 C2.63851171,14.1081255 2.46098498,13.9305988 2.46098498,13.7046557 C2.46098498,13.4787125 2.63851171,13.3011858 2.86445482,13.3011858 Z M2.86445482,16.5289436 L12.5477311,16.5289436 C12.7736742,16.5289436 12.9512009,16.7064704 12.9512009,16.9324134 C12.9512009,17.1583565 12.7736742,17.3358833 12.5477311,17.3358833 L2.86445482,17.3358833 C2.63851171,17.3358833 2.46098498,17.1583565 2.46098498,16.9324134 C2.46098498,16.7064704 2.63851171,16.5289436 2.86445482,16.5289436 Z" id="Shape"></path>
                                    </g>
                                </g>
                            </g>
                        </g>
                    </g>
                </g>
            </g>
        </g>
    </g>
</svg>
