<?xml version="1.0" encoding="UTF-8"?>
<svg width="16px" height="21px" viewBox="0 0 16 21" version="1.1" xmlns="http://www.w3.org/2000/svg" xmlns:xlink="http://www.w3.org/1999/xlink">
    <g id="Page-1" stroke="none" stroke-width="1" fill="none" fill-rule="evenodd">
        <g id="Desktop-HD-Copy-4" transform="translate(-753.000000, -993.000000)">
            <g id="Group-17" transform="translate(165.000000, 785.000000)">
                <g id="Group-30" transform="translate(0.000000, 112.000000)">
                    <g id="Group-24" transform="translate(0.000000, 68.000000)">
                        <g id="Group-9-Copy-2" transform="translate(580.000000, 24.000000)">
                            <g id="Group-4">
                                <g id="icon/lock">
                                    <g id="screenshot-d.pr-2019.11.14-16_03_31-(81)">
                                        <polygon id="Path" points="0 0 32 0 32 32 0 32"></polygon>
                                        <path d="M21.7142859,11.125 L20.7619049,11.125 L20.7619049,9.22023809 C20.7619049,6.59166667 18.6285715,4.45833333 16,4.45833333 C13.3714285,4.45833333 11.2380951,6.59166667 11.2380951,9.22023809 L11.2380951,11.125 L10.2857141,11.125 C9.23809507,11.125 8.3809522,11.9821429 8.3809522,13.0297619 L8.3809522,22.5535715 C8.3809522,23.6011905 9.23809507,24.4583333 10.2857141,24.4583333 L21.7142859,24.4583333 C22.761905,24.4583333 23.6190478,23.6011905 23.6190478,22.5535715 L23.6190478,13.0297619 C23.6190478,11.9821429 22.761905,11.125 21.7142859,11.125 Z M15.9999995,19.696428 C14.9523805,19.696428 14.0952377,18.8392852 14.0952377,17.7916662 C14.0952377,16.7440472 14.9523805,15.8869044 15.9999995,15.8869044 C17.0476185,15.8869044 17.9047613,16.7440472 17.9047613,17.7916662 C17.9047613,18.8392852 17.0476185,19.696428 15.9999995,19.696428 Z M18.9523805,11.1249998 L13.0476189,11.1249998 L13.0476189,9.22023797 C13.0476189,7.59166657 14.3714283,6.26785707 15.9999997,6.26785707 C17.6285711,6.26785707 18.9523805,7.59166657 18.9523805,9.22023797 L18.9523805,11.1249998 Z" id="Shape" fill="#52C7EA" fill-rule="nonzero"></path>
                                    </g>
                                </g>
                            </g>
                        </g>
                    </g>
                </g>
            </g>
        </g>
    </g>
</svg>
