<svg width="163" height="45" viewBox="0 0 163 45" fill="none" xmlns="http://www.w3.org/2000/svg">
<path d="M82.3604 24.5392C83.4725 23.4595 84.9708 22.858 86.5154 22.8734C87.8438 22.8426 89.1413 23.2744 90.1916 24.1074L90.3924 24.277L92.0915 22.2564L91.8907 22.1022C91.1493 21.5006 90.3152 21.0379 89.4193 20.7294C88.4926 20.4055 87.504 20.2358 86.5154 20.2358C85.3724 20.2358 84.2294 20.4518 83.179 20.8991C82.175 21.331 81.2482 21.9325 80.4605 22.7037C78.8695 24.277 77.9736 26.4364 77.9736 28.6884C77.9736 29.8144 78.1899 30.925 78.6378 31.9584C79.0703 32.961 79.6882 33.8556 80.4605 34.6114C81.2482 35.3672 82.1596 35.9842 83.1636 36.4006C84.2139 36.8479 85.357 37.0793 86.5 37.0639C87.4885 37.0639 88.4617 36.9096 89.3884 36.5703C90.2843 36.2618 91.103 35.7836 91.829 35.1975L92.0298 35.0278L90.3616 33.0227L90.1608 33.1769C89.1413 33.9944 87.9056 34.4109 86.4845 34.4109C85.6968 34.4109 84.909 34.272 84.183 33.9636C82.7929 33.3929 81.6807 32.2823 81.0938 30.8941C80.7849 30.1846 80.6458 29.4288 80.6458 28.6576C80.6458 27.8709 80.7849 27.0843 81.0938 26.3593C81.4182 25.6807 81.8352 25.0637 82.3604 24.5392Z" fill="#242A31"/>
<path d="M104.325 24.6782C105.221 23.799 106.178 22.9044 107.151 22.0097L107.352 21.8247L105.684 20.1125L105.499 20.2976C104.031 21.6858 102.626 22.9969 101.266 24.2617C100.046 25.3877 98.795 26.5599 97.4821 27.7785V8.00439H94.7944V36.7709H97.4821V31.0639L99.7218 28.997L105.468 36.7709H108.634L101.653 27.1923C102.579 26.344 103.475 25.4957 104.325 24.6782Z" fill="#242A31"/>
<path d="M122.583 23.1665C122.459 22.9968 122.336 22.8271 122.181 22.6575C121.78 22.1793 121.301 21.7783 120.776 21.4389C120.189 21.0533 119.555 20.7603 118.891 20.5598C118.15 20.3438 117.393 20.2358 116.62 20.2358C115.493 20.2358 114.381 20.4518 113.346 20.8991C112.342 21.331 111.431 21.9634 110.658 22.7346C109.886 23.5212 109.268 24.4467 108.836 25.4493C108.388 26.4827 108.156 27.6087 108.171 28.7347C108.171 29.8452 108.388 30.925 108.82 31.943C109.237 32.9301 109.84 33.8247 110.581 34.5805C111.338 35.3518 112.249 35.9533 113.253 36.3852C114.319 36.8325 115.462 37.0639 116.62 37.0484C117.393 37.0484 118.181 36.9559 118.922 36.74C119.586 36.5549 120.219 36.2772 120.806 35.907C121.332 35.5831 121.795 35.1975 122.212 34.7502C122.32 34.6268 122.428 34.488 122.536 34.3646C122.536 34.5343 122.536 34.7039 122.536 34.8736V36.74H125.224V20.5906H122.691L122.583 23.1665ZM120.853 24.5547C121.378 25.0791 121.795 25.7115 122.088 26.3902C122.382 27.0997 122.536 27.8555 122.536 28.6267C122.552 29.4134 122.397 30.1846 122.088 30.9095C121.502 32.2977 120.389 33.4083 118.999 33.979C117.516 34.5651 115.864 34.5651 114.396 33.979C111.446 32.7142 110.071 29.3054 111.307 26.3593C111.6 25.6807 112.018 25.0637 112.543 24.5547C114.273 22.9197 116.806 22.4415 118.999 23.3361C119.694 23.6138 120.312 24.0302 120.853 24.5547Z" fill="#242A31"/>
<path d="M152.486 21.5932C151.544 20.6986 150.231 20.2358 148.594 20.2358C147.003 20.2667 145.659 20.6677 144.578 21.4544C143.697 22.1022 142.956 22.9351 142.415 23.8914C142.168 22.9505 141.643 22.0868 140.902 21.4544C139.975 20.6523 138.724 20.2358 137.194 20.2358C135.573 20.2667 134.198 20.6986 133.101 21.5161C132.267 22.1485 131.572 22.9351 131.047 23.8297C131.031 23.5521 131.016 23.2436 131.001 22.9351C130.97 22.5341 130.954 22.1485 130.939 21.7783C130.923 21.4081 130.908 21.0842 130.877 20.8374L130.846 20.606H128.514V36.7708H131.201V28.2103C131.201 27.4853 131.34 26.7604 131.618 26.0817C131.881 25.4493 132.267 24.8786 132.777 24.4159C133.287 23.9377 133.874 23.5675 134.522 23.3207C135.217 23.0585 135.959 22.9197 136.7 22.9351C137.751 22.9814 138.538 23.3053 139.063 23.8606C139.589 24.4313 139.898 25.1716 139.928 25.9429V36.7708H142.616V28.1023C142.632 27.3928 142.786 26.6832 143.064 26.0354C143.327 25.4184 143.713 24.8632 144.192 24.4004C144.686 23.9377 145.273 23.5675 145.906 23.3207C146.586 23.0585 147.312 22.9197 148.053 22.9351C149.119 22.9814 149.938 23.3053 150.447 23.8606C150.973 24.4313 151.281 25.1717 151.312 25.9583V36.7862H154V25.2025C153.938 23.7063 153.429 22.5032 152.486 21.5932Z" fill="#242A31"/>
<path d="M62.1876 10.6882C68.7368 10.6882 74.0504 15.9942 74.0504 22.5342C74.0504 29.0741 68.7368 34.3801 62.1876 34.3801C55.6384 34.3801 50.3249 29.0741 50.3249 22.5342C50.3403 15.9942 55.6384 10.7037 62.1876 10.6882ZM62.1876 8.00439C54.1555 8.00439 47.6372 14.5135 47.6372 22.5342C47.6372 30.5549 54.1555 37.064 62.1876 37.064C70.2197 37.064 76.738 30.5549 76.738 22.5342C76.738 14.5135 70.2197 8.00439 62.1876 8.00439Z" fill="#242A31"/>
<path d="M156.449 19.0428V14.8496H158.574C158.744 14.8496 158.93 14.8988 159.131 14.9973C159.332 15.092 159.502 15.2397 159.642 15.4405C159.786 15.6375 159.858 15.8875 159.858 16.1905C159.858 16.4973 159.784 16.7587 159.636 16.9746C159.489 17.1867 159.309 17.3477 159.097 17.4575C158.888 17.5674 158.691 17.6223 158.506 17.6223H156.972V16.9405H158.222C158.347 16.9405 158.481 16.878 158.625 16.753C158.773 16.628 158.847 16.4405 158.847 16.1905C158.847 15.9329 158.773 15.7587 158.625 15.6678C158.481 15.5769 158.354 15.5314 158.244 15.5314H157.369V19.0428H156.449ZM158.983 17.0655L160.029 19.0428H159.017L157.994 17.0655H158.983ZM158.04 21.5428C157.411 21.5428 156.822 21.4253 156.273 21.1905C155.724 20.9556 155.241 20.6299 154.824 20.2132C154.407 19.7966 154.082 19.3136 153.847 18.7644C153.612 18.2151 153.494 17.6261 153.494 16.9973C153.494 16.3685 153.612 15.7795 153.847 15.2303C154.082 14.681 154.407 14.1981 154.824 13.7814C155.241 13.3647 155.724 13.039 156.273 12.8041C156.822 12.5693 157.411 12.4519 158.04 12.4519C158.669 12.4519 159.258 12.5693 159.807 12.8041C160.356 13.039 160.839 13.3647 161.256 13.7814C161.672 14.1981 161.998 14.681 162.233 15.2303C162.468 15.7795 162.585 16.3685 162.585 16.9973C162.585 17.6261 162.468 18.2151 162.233 18.7644C161.998 19.3136 161.672 19.7966 161.256 20.2132C160.839 20.6299 160.356 20.9556 159.807 21.1905C159.258 21.4253 158.669 21.5428 158.04 21.5428ZM158.04 20.4519C158.676 20.4519 159.256 20.2966 159.779 19.986C160.301 19.6753 160.718 19.2587 161.029 18.736C161.339 18.2132 161.494 17.6337 161.494 16.9973C161.494 16.361 161.339 15.7814 161.029 15.2587C160.718 14.736 160.301 14.3193 159.779 14.0087C159.256 13.6981 158.676 13.5428 158.04 13.5428C157.404 13.5428 156.824 13.6981 156.301 14.0087C155.779 14.3193 155.362 14.736 155.051 15.2587C154.741 15.7814 154.585 16.361 154.585 16.9973C154.585 17.6337 154.741 18.2132 155.051 18.736C155.362 19.2587 155.779 19.6753 156.301 19.986C156.824 20.2966 157.404 20.4519 158.04 20.4519Z" fill="black"/>
<path d="M11.388 7.57702C11.8998 7.57702 12.3148 7.16267 12.3148 6.65155C12.3148 6.14042 11.8998 5.72607 11.388 5.72607C10.8761 5.72607 10.4612 6.14042 10.4612 6.65155C10.4612 7.16267 10.8761 7.57702 11.388 7.57702Z" fill="#242A31"/>
<path d="M11.4031 18.2045C11.915 18.2045 12.3299 17.7901 12.3299 17.279C12.3299 16.7679 11.915 16.3535 11.4031 16.3535C10.8913 16.3535 10.4763 16.7679 10.4763 17.279C10.4763 17.7901 10.8913 18.2045 11.4031 18.2045Z" fill="#242A31"/>
<path d="M29.8311 39.475C30.3429 39.475 30.7579 39.0606 30.7579 38.5495C30.7579 38.0384 30.3429 37.624 29.8311 37.624C29.3192 37.624 28.9043 38.0384 28.9043 38.5495C28.9043 39.0606 29.3192 39.475 29.8311 39.475Z" fill="#242A31"/>
<path d="M2.18216 23.526C2.69401 23.526 3.10894 23.1116 3.10894 22.6005C3.10894 22.0894 2.69401 21.675 2.18216 21.675C1.67031 21.675 1.25537 22.0894 1.25537 22.6005C1.25537 23.1116 1.67031 23.526 2.18216 23.526Z" fill="#242A31"/>
<path d="M39.0523 23.526C39.5641 23.526 39.9791 23.1116 39.9791 22.6005C39.9791 22.0894 39.5641 21.675 39.0523 21.675C38.5404 21.675 38.1255 22.0894 38.1255 22.6005C38.1255 23.1116 38.5404 23.526 39.0523 23.526Z" fill="#242A31"/>
<path d="M29.8311 7.57702C30.3429 7.57702 30.7579 7.16267 30.7579 6.65155C30.7579 6.14042 30.3429 5.72607 29.8311 5.72607C29.3192 5.72607 28.9043 6.14042 28.9043 6.65155C28.9043 7.16267 29.3192 7.57702 29.8311 7.57702Z" fill="#242A31"/>
<path d="M29.8311 28.8475C30.3429 28.8475 30.7579 28.4332 30.7579 27.9221C30.7579 27.4109 30.3429 26.9966 29.8311 26.9966C29.3192 26.9966 28.9043 27.4109 28.9043 27.9221C28.9043 28.4332 29.3192 28.8475 29.8311 28.8475Z" fill="#242A31"/>
<path d="M11.4031 28.8321C11.915 28.8321 12.3299 28.4178 12.3299 27.9067C12.3299 27.3955 11.915 26.9812 11.4031 26.9812C10.8913 26.9812 10.4763 27.3955 10.4763 27.9067C10.4763 28.4178 10.8913 28.8321 11.4031 28.8321Z" fill="#242A31"/>
<path d="M29.8311 18.2201C30.3429 18.2201 30.7579 17.8057 30.7579 17.2946C30.7579 16.7835 30.3429 16.3691 29.8311 16.3691C29.3192 16.3691 28.9043 16.7835 28.9043 17.2946C28.9043 17.8057 29.3192 18.2201 29.8311 18.2201Z" fill="#242A31"/>
<path d="M20.6094 34.1537C21.1213 34.1537 21.5362 33.7393 21.5362 33.2282C21.5362 32.7171 21.1213 32.3027 20.6094 32.3027C20.0976 32.3027 19.6826 32.7171 19.6826 33.2282C19.6826 33.7393 20.0976 34.1537 20.6094 34.1537Z" fill="#242A31"/>
<path d="M20.6248 12.8986C21.1366 12.8986 21.5516 12.4842 21.5516 11.9731C21.5516 11.462 21.1366 11.0476 20.6248 11.0476C20.1129 11.0476 19.698 11.462 19.698 11.9731C19.698 12.4842 20.1129 12.8986 20.6248 12.8986Z" fill="#242A31"/>
<path d="M11.388 39.475C11.8998 39.475 12.3148 39.0606 12.3148 38.5495C12.3148 38.0384 11.8998 37.624 11.388 37.624C10.8761 37.624 10.4612 38.0384 10.4612 38.5495C10.4612 39.0606 10.8761 39.475 11.388 39.475Z" fill="#242A31"/>
<path d="M12.9477 5.72614C16.3768 1.49982 22.5708 0.83656 26.8186 4.26081C27.3592 4.69269 27.8535 5.18628 28.286 5.72614C28.4404 5.46392 28.6567 5.23255 28.9347 5.07831C29.1201 4.97034 29.3054 4.90864 29.5217 4.87779C25.6137 -0.0272137 18.462 -0.82929 13.5655 3.07312C12.9013 3.61298 12.2835 4.21453 11.7583 4.87779C12.2371 4.98576 12.6851 5.29425 12.9477 5.72614Z" fill="#242A31"/>
<path d="M22.1697 11.0476C23.6834 9.16576 25.8459 7.91637 28.2401 7.53076C27.993 7.08345 27.9466 6.54359 28.132 6.06543C25.3053 6.48189 22.7412 7.96265 20.9648 10.2146C21.4746 10.2918 21.9071 10.6002 22.1697 11.0476Z" fill="#242A31"/>
<path d="M16.3461 8.71845C17.3964 9.32001 18.3078 10.1221 19.0646 11.063C19.2191 10.8008 19.4354 10.5694 19.7134 10.4151C19.8833 10.3226 20.0687 10.2455 20.2695 10.2146C18.5086 7.96265 15.929 6.46647 13.1023 6.06543C13.1796 6.25052 13.2105 6.46647 13.2105 6.66699C13.2105 6.97548 13.1332 7.26854 12.9788 7.53076C14.1681 7.71585 15.3112 8.11689 16.3461 8.71845Z" fill="#242A31"/>
<path d="M29.8467 15.49C30.3719 15.49 30.8661 15.7213 31.206 16.1224C32.2718 13.4539 32.2718 10.4924 31.2214 7.82397C31.0824 7.97822 30.9279 8.11704 30.7426 8.22501C30.48 8.37926 30.1865 8.45638 29.8776 8.45638C30.758 10.7238 30.7426 13.2226 29.8467 15.49Z" fill="#242A31"/>
<path d="M28.2863 16.3537C28.5489 15.9064 28.9968 15.6133 29.5065 15.5208C27.7302 13.2842 25.1661 11.8035 22.3394 11.3716C22.5093 11.8652 22.463 12.405 22.2158 12.8523C24.5946 13.238 26.7571 14.4873 28.2863 16.3537Z" fill="#242A31"/>
<path d="M32.3948 7.73137C37.6775 9.135 40.7977 14.549 39.392 19.8088C39.2994 20.1481 39.1912 20.472 39.0677 20.7959C39.3766 20.7959 39.6855 20.8731 39.9481 21.0273C40.1335 21.1353 40.2879 21.2741 40.427 21.4284C40.5814 21.0273 40.7204 20.6263 40.8286 20.2252C42.4504 14.1634 38.8514 7.93189 32.781 6.29689C32.3639 6.18891 31.9623 6.09637 31.5298 6.03467C31.6997 6.52825 31.6534 7.06811 31.4062 7.51542C31.7461 7.57712 32.0704 7.63882 32.3948 7.73137Z" fill="#242A31"/>
<path d="M35.5304 18.0657C34.2947 17.3562 32.9354 16.878 31.5298 16.6775C31.6997 17.1711 31.6688 17.7109 31.4062 18.1582C33.8004 18.5284 35.9629 19.7624 37.4921 21.6442C37.7547 21.2123 38.2027 20.9038 38.7124 20.8113C37.832 19.7161 36.7507 18.7752 35.5304 18.0657Z" fill="#242A31"/>
<path d="M31.6383 27.922C31.6383 28.1225 31.6074 28.3231 31.5301 28.5236C34.3723 28.1225 36.9364 26.6264 38.7127 24.3898C38.203 24.3127 37.755 24.0042 37.4924 23.5569C35.9633 25.4387 33.7853 26.6881 31.3911 27.0583C31.561 27.305 31.6383 27.6135 31.6383 27.922Z" fill="#242A31"/>
<path d="M29.8618 26.1174C30.387 26.1328 30.8658 26.3642 31.2057 26.7652C32.256 24.0968 32.256 21.1352 31.2057 18.4668C30.8658 18.8524 30.387 19.0838 29.8773 19.0992C30.7423 21.3512 30.7268 23.85 29.8618 26.1174Z" fill="#242A31"/>
<path d="M29.8772 36.7448C30.4024 36.7602 30.8812 36.9916 31.221 37.3926C32.2868 34.7242 32.2714 31.7627 31.221 29.0942C30.8812 29.4953 30.4024 29.7266 29.8772 29.7421C30.7422 31.9786 30.7422 34.4774 29.8772 36.7448Z" fill="#242A31"/>
<path d="M40.8285 24.9761C40.7204 24.5596 40.5814 24.1586 40.4269 23.7729C40.0871 24.174 39.5928 24.4054 39.0831 24.4054C39.2066 24.7138 39.3147 25.0378 39.4074 25.3617C40.8285 30.6369 37.6929 36.0663 32.4102 37.4854C32.0858 37.5625 31.7615 37.6396 31.4216 37.6859C31.6842 38.1332 31.7306 38.6885 31.5452 39.1666C31.9623 39.1049 32.3793 39.0124 32.7964 38.9044C38.8514 37.2694 42.4658 31.0379 40.8285 24.9761Z" fill="#242A31"/>
<path d="M22.3086 33.8297C25.1507 33.4133 27.7148 31.9325 29.5066 29.696C28.9969 29.6034 28.5489 29.2949 28.2863 28.863C26.7571 30.7294 24.5946 31.9788 22.2004 32.3644C22.4476 32.8117 22.4785 33.3516 22.3086 33.8297Z" fill="#242A31"/>
<path d="M24.8882 36.4827C23.8379 35.8812 22.9265 35.0791 22.1697 34.1382C22.0152 34.4004 21.799 34.6318 21.5209 34.786C21.351 34.8786 21.1656 34.9557 20.9648 34.9865C22.7257 37.2385 25.2898 38.7347 28.132 39.1357C27.9466 38.6576 27.993 38.1177 28.2556 37.6704C27.0662 37.4853 25.9231 37.0843 24.8882 36.4827Z" fill="#242A31"/>
<path d="M16.3461 36.4827C15.3112 37.0842 14.1681 37.4853 12.9788 37.6858C13.2259 38.1331 13.2568 38.673 13.0869 39.1511C15.929 38.7346 18.4931 37.2385 20.254 34.9865C19.7443 34.8939 19.3118 34.5855 19.0492 34.1536C18.2923 35.0945 17.381 35.8811 16.3461 36.4827Z" fill="#242A31"/>
<path d="M28.2866 39.4751C24.8575 43.7014 18.648 44.3647 14.4157 40.9404C13.8751 40.5085 13.3808 40.015 12.9483 39.4751C12.7938 39.7373 12.5776 39.9687 12.2995 40.1229C12.1142 40.2309 11.9288 40.2926 11.728 40.3234C15.636 45.2285 22.7722 46.0305 27.6842 42.1281C28.3484 41.5883 28.9662 40.9867 29.4914 40.3234C28.9971 40.2309 28.5492 39.9224 28.2866 39.4751Z" fill="#242A31"/>
<path d="M11.3727 29.7112C11.0637 29.7112 10.7548 29.6341 10.4922 29.4799C10.3223 29.3719 10.1524 29.2485 10.0288 29.0942C8.96303 31.7627 8.96303 34.7242 10.0134 37.3926C10.137 37.2384 10.3069 37.0996 10.4768 36.9916C10.7394 36.8374 11.0483 36.7602 11.3418 36.7602C10.4768 34.4774 10.4768 31.9632 11.3727 29.7112Z" fill="#242A31"/>
<path d="M12.9483 28.8477C12.6857 29.295 12.2378 29.588 11.728 29.6806C13.5044 31.9171 16.0685 33.4133 18.9106 33.8452C18.7407 33.3516 18.7716 32.8118 19.0342 32.3645C16.64 31.9634 14.4775 30.714 12.9483 28.8477Z" fill="#242A31"/>
<path d="M0.791454 21.4283C1.13127 21.0273 1.62556 20.8113 2.13529 20.7959C2.01172 20.4874 1.9036 20.1635 1.81092 19.8396C0.389847 14.5644 3.52547 9.13496 8.80815 7.73132C9.13252 7.6542 9.45689 7.57708 9.79672 7.5308C9.53413 7.08349 9.48779 6.52821 9.67314 6.05005C9.25609 6.11175 8.83904 6.20429 8.43743 6.31227C2.36699 7.93184 -1.23203 14.1788 0.389847 20.2406C0.513418 20.6417 0.636989 21.0273 0.791454 21.4283Z" fill="#242A31"/>
<path d="M5.70418 27.1354C6.93989 27.8449 8.29918 28.3231 9.7048 28.5236C9.53489 28.03 9.56578 27.4901 9.81293 27.0428C7.41873 26.6726 5.25623 25.4233 3.72704 23.5569C3.46445 23.9888 3.0165 24.2973 2.52222 24.3898C3.38722 25.485 4.46847 26.4259 5.70418 27.1354Z" fill="#242A31"/>
<path d="M8.82371 37.4699C3.54103 36.0509 0.405407 30.6369 1.81103 25.3617C1.90371 25.0378 2.01184 24.7138 2.13541 24.4054C1.82648 24.4054 1.51755 24.3282 1.25496 24.174C1.08505 24.066 0.915139 23.9272 0.791568 23.7729C0.637104 24.1586 0.498086 24.575 0.389961 24.9761C-1.23191 31.0379 2.35166 37.254 8.4221 38.889C8.83915 38.997 9.25621 39.0895 9.67326 39.1512C9.50335 38.6576 9.54969 38.1332 9.79683 37.6859C9.4879 37.6242 9.14808 37.5625 8.82371 37.4699Z" fill="#242A31"/>
<path d="M11.3727 15.4745C10.4922 13.2225 10.4922 10.7237 11.3572 8.47176C10.8475 8.45634 10.3532 8.22497 10.0134 7.83936C8.96303 10.5078 8.96303 13.4693 10.0288 16.1223C10.3532 15.7213 10.8475 15.4745 11.3727 15.4745Z" fill="#242A31"/>
<path d="M9.59668 17.2792C9.59668 17.0787 9.64302 16.8782 9.7048 16.6931C6.86266 17.1096 4.29856 18.5903 2.52222 20.8269C2.72302 20.8577 2.92382 20.9349 3.09373 21.0274C3.35632 21.1817 3.57257 21.3976 3.72704 21.6598C5.25623 19.778 7.43418 18.5286 9.84382 18.1584C9.67391 17.8962 9.59668 17.5877 9.59668 17.2792Z" fill="#242A31"/>
<path d="M18.9255 11.3562C16.0988 11.7881 13.5347 13.2688 11.7429 15.5054C12.2527 15.5979 12.6852 15.9064 12.9477 16.3538C14.4769 14.4874 16.6394 13.238 19.0336 12.8524C18.7865 12.3896 18.7401 11.8498 18.9255 11.3562Z" fill="#242A31"/>
<path d="M11.3571 19.0839C10.8473 19.0684 10.3531 18.8371 10.0287 18.436C8.97833 21.1045 8.96288 24.066 10.0132 26.7344C10.3531 26.3488 10.8319 26.102 11.3416 26.102C10.4921 23.8346 10.4921 21.3358 11.3571 19.0839Z" fill="#242A31"/>
</svg>
