<?xml version="1.0" encoding="UTF-8"?>
<svg width="24px" height="24px" viewBox="0 0 24 24" version="1.1" xmlns="http://www.w3.org/2000/svg" xmlns:xlink="http://www.w3.org/1999/xlink">
    <g id="Page-1" stroke="none" stroke-width="1" fill="none" fill-rule="evenodd">
        <g id="Desktop-HD-Copy-3" transform="translate(-950.000000, -1024.000000)" fill="#52C7EA" fill-rule="nonzero">
            <g id="Group-6" transform="translate(165.000000, 776.000000)">
                <g id="Group-5" transform="translate(0.000000, 204.000000)">
                    <g id="Group-9-Copy-4" transform="translate(781.000000, 40.000000)">
                        <g id="icon/fingerprint-icon/message">
                            <g id="screenshot-d.pr-2019.11.14-16_03_31-(78)" transform="translate(4.000000, 4.000000)">
                                <path d="M20.6950437,21.4146578 L23.5242865,23.9756104 L14.841438,24.0000004 C11.670735,24.0000004 8.91466229,22.1463586 7.62199104,19.439066 L10.1829435,19.439066 C15.4999686,19.463456 19.8901728,15.5122722 20.4999234,10.4147572 C21.9145448,11.8537686 22.7925857,13.8293605 22.7925857,16.0000727 C22.7925857,18.0732246 22.012105,19.9756465 20.6950437,21.4146578 Z M10.3780633,5.80504268 C10.8658637,5.80504268 11.231714,6.17089303 11.207324,6.65869351 L11.207324,7.56112442 L9.52441235,7.56112442 L9.52441235,6.65869351 C9.52441235,6.19528306 9.91465281,5.80504268 10.3780633,5.80504268 Z M10.3780634,10.796862 C10.0278371,10.796862 9.7439228,10.5129476 9.7439228,10.1627214 C9.7439228,9.81249511 10.0278371,9.52858081 10.3780634,9.52858081 C10.7282896,9.52858081 11.012204,9.81249511 11.012204,10.1627214 C11.012204,10.5129476 10.7282896,10.796862 10.3780634,10.796862 Z M10.5000135,2.5126307e-09 C15.5243584,2.5126307e-09 19.6218823,4.12213102 19.5977079,9.14647597 C19.5977079,14.1952109 15.4755782,18.2683449 10.4512335,18.2683449 L0.475713929,18.2439549 L3.74397705,15.317152 C2.2317956,13.6830204 1.32936474,11.4879183 1.32936474,9.09769596 C1.35375477,4.04896094 5.45127869,-0.0241730556 10.5000135,2.5126307e-09 Z M13.7682767,11.9513286 L13.8170569,8.02453482 C13.8170569,7.78063458 13.5731566,7.56112437 13.2804763,7.56112437 L12.2804854,7.56112437 L12.2804854,6.65869349 C12.2804854,5.63431251 11.4268345,4.78066167 10.4024536,4.78066167 C9.3780726,4.78066167 8.52442184,5.60992248 8.52442184,6.65869349 L8.52442184,7.56112437 L7.5244309,7.56112437 C7.23175062,7.56112437 6.98785039,7.75624456 6.98785039,8.02453482 L7.01224042,11.9513286 C7.01224042,12.2440089 7.20736059,12.4879091 7.47565084,12.4879091 L13.3048663,12.4879091 C13.5487666,12.4879091 13.7682767,12.2440089 13.7682767,11.9513286 Z" id="Combined-Shape"></path>
                            </g>
                        </g>
                    </g>
                </g>
            </g>
        </g>
    </g>
</svg>
