<?xml version="1.0" encoding="UTF-8"?>
<svg width="24px" height="24px" viewBox="0 0 24 24" version="1.1" xmlns="http://www.w3.org/2000/svg" xmlns:xlink="http://www.w3.org/1999/xlink">
    <!-- Generator: Sketch 63 (92445) - https://sketch.com -->
    <title>icon/router</title>
    <desc>Created with Sketch.</desc>
    <g id="icon/router" stroke="none" stroke-width="1" fill="none" fill-rule="evenodd">
        <path d="M20.2,5.9 L21,5.1 C19.6,3.7 17.8,3 16,3 C14.2,3 12.4,3.7 11,5.1 L11.8,5.9 C13,4.8 14.5,4.2 16,4.2 C17.5,4.2 19,4.8 20.2,5.9 M19.3,6.7 C18.4,5.8 17.2,5.3 16,5.3 C14.8,5.3 13.6,5.8 12.7,6.7 L13.5,7.5 C14.2,6.8 15.1,6.5 16,6.5 C16.9,6.5 17.8,6.8 18.5,7.5 L19.3,6.7 M19,13 L17,13 L17,9 L15,9 L15,13 L5,13 C3.8954305,13 3,13.8954305 3,15 L3,19 C3,20.1045695 3.8954305,21 5,21 L19,21 C20.1045695,21 21,20.1045695 21,19 L21,15 C21,13.8954305 20.1045695,13 19,13 M8,18 L6,18 L6,16 L8,16 L8,18 M11.5,18 L9.5,18 L9.5,16 L11.5,16 L11.5,18 M15,18 L13,18 L13,16 L15,16 L15,18 Z" id="Shape-Copy" fill="#00BAE9" fill-rule="nonzero"></path>
    </g>
</svg>