<?xml version="1.0" encoding="UTF-8"?>
<svg width="24px" height="24px" viewBox="0 0 24 24" version="1.1" xmlns="http://www.w3.org/2000/svg" xmlns:xlink="http://www.w3.org/1999/xlink">
    <!-- Generator: Sketch 63 (92445) - https://sketch.com -->
    <title>icon/server</title>
    <desc>Created with Sketch.</desc>
    <g id="icon/server" stroke="none" stroke-width="1" fill="none" fill-rule="evenodd">
        <path d="M4,1 L20,1 C20.5522847,1 21,1.44771525 21,2 L21,6 C21,6.55228475 20.5522847,7 20,7 L4,7 C3.44771525,7 3,6.55228475 3,6 L3,2 C3,1.44771525 3.44771525,1 4,1 M4,9 L20,9 C20.5522847,9 21,9.44771525 21,10 L21,14 C21,14.5522847 20.5522847,15 20,15 L4,15 C3.44771525,15 3,14.5522847 3,14 L3,10 C3,9.44771525 3.44771525,9 4,9 M4,17 L20,17 C20.5522847,17 21,17.4477153 21,18 L21,22 C21,22.5522847 20.5522847,23 20,23 L4,23 C3.44771525,23 3,22.5522847 3,22 L3,18 C3,17.4477153 3.44771525,17 4,17 M9,5 L10,5 L10,3 L9,3 L9,5 M9,13 L10,13 L10,11 L9,11 L9,13 M9,21 L10,21 L10,19 L9,19 L9,21 M5,3 L5,5 L7,5 L7,3 L5,3 M5,11 L5,13 L7,13 L7,11 L5,11 M5,19 L5,21 L7,21 L7,19 L5,19 Z" id="Shape" fill="#00BAE9" fill-rule="nonzero"></path>
    </g>
</svg>