<?xml version="1.0" encoding="UTF-8"?>
<svg width="20px" height="20px" viewBox="0 0 20 20" version="1.1" xmlns="http://www.w3.org/2000/svg" xmlns:xlink="http://www.w3.org/1999/xlink">
    <g id="Page-1" stroke="none" stroke-width="1" fill="none" fill-rule="evenodd">
        <g id="JOBS2" transform="translate(-745.000000, -1852.000000)" fill="#00BAE9" fill-rule="nonzero">
            <g id="Group-10" transform="translate(0.000000, 1634.000000)">
                <g id="Group-19" transform="translate(743.000000, 216.000000)">
                    <g id="linkedin-copy-2">
                        <path d="M6.20634917,14.6031746 C6.20634917,15.7619048 5.26984124,16.6984128 4.11111107,16.6984128 C2.95238091,16.6984128 2.01587297,15.7619048 2.01587297,14.6031746 C2.01587297,13.4444445 2.95238091,12.5079365 4.11111107,12.5079365 L6.20634917,12.5079365 L6.20634917,14.6031746 Z M7.25396823,14.6031746 C7.25396823,13.4444445 8.19047617,12.5079365 9.34920634,12.5079365 C10.5079365,12.5079365 11.4444445,13.4444445 11.4444445,14.6031746 L11.4444445,19.8412699 C11.4444445,21 10.5079365,21.936508 9.34920634,21.936508 C8.19047617,21.936508 7.25396823,21 7.25396823,19.8412699 L7.25396823,14.6031746 Z" id="Shape"></path>
                        <path d="M9.34920634,6.19047616 C8.19047617,6.19047616 7.25396823,5.25396822 7.25396823,4.09523805 C7.25396823,2.93650789 8.19047617,1.99999995 9.34920634,1.99999995 C10.5079365,1.99999995 11.4444445,2.93650789 11.4444445,4.09523805 L11.4444445,6.19047616 L9.34920634,6.19047616 Z M9.34920634,7.25396823 C10.5079365,7.25396823 11.4444445,8.19047617 11.4444445,9.34920634 C11.4444445,10.5079365 10.5079365,11.4444445 9.34920634,11.4444445 L4.09523805,11.4444445 C2.93650789,11.4444445 1.99999995,10.5079365 1.99999995,9.34920634 C1.99999995,8.19047617 2.93650789,7.25396823 4.09523805,7.25396823 L9.34920634,7.25396823 Z" id="Shape"></path>
                        <path d="M17.7460317,9.34920634 C17.7460317,8.19047617 18.6825397,7.25396823 19.8412699,7.25396823 C21,7.25396823 21.936508,8.19047617 21.936508,9.34920634 C21.936508,10.5079365 21,11.4444445 19.8412699,11.4444445 L17.7460317,11.4444445 L17.7460317,9.34920634 Z M16.6984128,9.34920634 C16.6984128,10.5079365 15.7619048,11.4444445 14.6031746,11.4444445 C13.4444445,11.4444445 12.5079365,10.5079365 12.5079365,9.34920634 L12.5079365,4.09523805 C12.5079365,2.93650789 13.4444445,1.99999995 14.6031746,1.99999995 C15.7619048,1.99999995 16.6984128,2.93650789 16.6984128,4.09523805 L16.6984128,9.34920634 Z" id="Shape"></path>
                        <path d="M14.6031746,17.7460317 C15.7619048,17.7460317 16.6984128,18.6825397 16.6984128,19.8412699 C16.6984128,21 15.7619048,21.936508 14.6031746,21.936508 C13.4444445,21.936508 12.5079365,21 12.5079365,19.8412699 L12.5079365,17.7460317 L14.6031746,17.7460317 Z M14.6031746,16.6984128 C13.4444445,16.6984128 12.5079365,15.7619048 12.5079365,14.6031746 C12.5079365,13.4444445 13.4444445,12.5079365 14.6031746,12.5079365 L19.8571429,12.5079365 C21.0158731,12.5079365 21.952381,13.4444445 21.952381,14.6031746 C21.952381,15.7619048 21.0158731,16.6984128 19.8571429,16.6984128 L14.6031746,16.6984128 Z" id="Shape"></path>
                    </g>
                </g>
            </g>
        </g>
    </g>
</svg>
