<?xml version="1.0" encoding="UTF-8"?>
<svg viewBox="0 0 24 24" version="1.1" xmlns="http://www.w3.org/2000/svg" xmlns:xlink="http://www.w3.org/1999/xlink">
    <g id="icon/support" stroke="none" stroke-width="1" fill="none" fill-rule="evenodd">
        <g id="account-multiple-outline" transform="translate(2.000000, 5.000000)" fill="#00BAE9" fill-rule="nonzero">
            <path d="M11.07,6.41 C12.3154081,4.66987646 12.3154081,2.33012354 11.07,0.59 C11.6385159,0.201955502 12.3116875,-0.00383271533 13,-5.2579037e-05 C14.9329966,-5.2579037e-05 16.4999999,1.5670034 16.4999999,3.5 C16.4999999,5.4329966 14.9329966,7.00005258 13,7.00005258 C12.3116875,7.00383272 11.6385159,6.7980445 11.07,6.41 M3.5,3.5 C3.5,1.56700338 5.06700338,0 7,0 C8.93299662,0 10.5,1.56700338 10.5,3.5 C10.5,5.43299662 8.93299662,7 7,7 C5.06700338,7 3.5,5.43299662 3.5,3.5 M5.5,3.5 C5.5,4.32842712 6.17157288,5 7,5 C7.82842712,5 8.5,4.32842712 8.5,3.5 C8.5,2.67157288 7.82842712,2 7,2 C6.17157288,2 5.5,2.67157288 5.5,3.5 M14,13 L14,15 L0,15 L0,13 C0,13 0,9 7,9 C14,9 14,13 14,13 M12,13 C11.86,12.22 10.67,11 7,11 C3.33,11 2.07,12.31 2,13 M13.95,9 C15.1906849,9.96502577 15.941124,11.4292971 16,13 L16,15 L20,15 L20,13 C20,13 20,9.37 13.94,9 L13.95,9 Z" id="Shape"></path>
        </g>
    </g>
</svg>
