<?xml version="1.0" encoding="UTF-8"?>
<svg width="24px" height="24px" viewBox="0 0 24 24" version="1.1" xmlns="http://www.w3.org/2000/svg" xmlns:xlink="http://www.w3.org/1999/xlink">
    <g id="Page-1" stroke="none" stroke-width="1" fill="none" fill-rule="evenodd">
        <g id="Desktop-HD-Copy-4" transform="translate(-749.000000, -1393.000000)" fill="#52C7EA" fill-rule="nonzero">
            <g id="Group-17" transform="translate(165.000000, 785.000000)">
                <g id="Group-30-Copy" transform="translate(0.000000, 512.000000)">
                    <g id="Group-24" transform="translate(0.000000, 68.000000)">
                        <g id="Group-9-Copy-2" transform="translate(580.000000, 24.000000)">
                            <g id="Group-4">
                                <g id="icon/twins">
                                    <g id="screenshot-d.pr-2019.11.14-16_03_31-(77)" transform="translate(4.000000, 4.000000)">
                                        <path d="M19.3499999,11.1999997 L19.3499999,5.89684004 C19.3499999,5.65399336 19.1526121,5.45660568 18.9097655,5.45660568 L12.8485676,5.45660568 C12.6057209,5.45660568 12.4083332,5.65399336 12.4083332,5.89684004 L12.4083332,17.3684544 C12.4083332,18.0615045 11.8444823,18.6253554 11.1514321,18.6253554 L5.09023425,18.6253554 C4.39718413,18.6253554 3.83333321,18.0615045 3.83333321,17.3684544 L3.83333321,12.4666664 L4.64999988,12.4666664 L4.64999988,17.3684544 C4.64999988,17.6113011 4.84738756,17.8086888 5.09023425,17.8086888 L11.1514321,17.8086888 C11.3942788,17.8086888 11.5916665,17.6113011 11.5916665,17.3684544 L11.5916665,5.89684004 C11.5916665,5.20378994 12.1555175,4.63993903 12.8485676,4.63993903 L18.9097655,4.63993903 C19.6028156,4.63993903 20.1666665,5.20378994 20.1666665,5.89684004 L20.1666665,11.1999997 L19.3499999,11.1999997 Z M22.7281345,20.7177124 C23.1046509,20.7177124 23.4108625,21.0239242 23.4108625,21.4004406 L23.4108625,22.5318186 C23.4108625,22.908335 23.1046509,23.2145467 22.7281345,23.2145467 L14.9385319,23.2145467 C14.5620155,23.2145467 14.2558039,22.908335 14.2558039,22.5318186 L14.2558039,21.4004406 C14.2558039,21.0239242 14.5620155,20.7177124 14.9385319,20.7177124 L22.7281345,20.7177124 Z M14.2558039,19.5034639 L14.2558039,18.3720859 C14.2558039,17.9955695 14.5620155,17.6893578 14.9385319,17.6893578 L22.7281345,17.6893578 C23.1046509,17.6893578 23.4108625,17.9955695 23.4108625,18.3720859 L23.4108625,19.5034639 C23.4108625,19.8799803 23.1046509,20.1861921 22.7281345,20.1861921 L14.9385319,20.1861921 C14.5620155,20.1861921 14.2558039,19.8799803 14.2558039,19.5034639 Z M14.2558039,16.475108 L14.2558039,15.34373 C14.2558039,14.9672136 14.5620155,14.6610019 14.9385319,14.6610019 L22.7281345,14.6610019 C23.1046509,14.6610019 23.4108625,14.9672136 23.4108625,15.34373 L23.4108625,16.475108 C23.4108625,16.8516244 23.1046509,17.1578362 22.7281345,17.1578362 L14.9385319,17.1578362 C14.5620155,17.1578362 14.2558039,16.8516244 14.2558039,16.475108 Z M14.2558039,13.4467534 L14.2558039,12.3153754 C14.2558039,11.938859 14.5620155,11.6326472 14.9385319,11.6326472 L22.7281345,11.6326472 C23.1046509,11.6326472 23.4108625,11.938859 23.4108625,12.3153754 L23.4108625,13.4467534 C23.4108625,13.8232698 23.1046509,14.1294815 22.7281345,14.1294815 L14.9385319,14.1294815 C14.5620155,14.1294815 14.2558039,13.8232698 14.2558039,13.4467534 Z M9.06146776,9.5031656 C9.43798422,9.5031656 9.74419582,9.80937734 9.74419582,10.1858937 L9.74419582,11.3172717 C9.74419582,11.6937883 9.43798422,11.9999999 9.06146776,11.9999999 L1.27186537,11.9999999 C0.895348937,11.9999999 0.589137276,11.6937883 0.589137276,11.3172717 L0.589137276,10.1858937 C0.589137276,9.80937734 0.895348937,9.5031656 1.27186537,9.5031656 L9.06146776,9.5031656 Z M0.589137276,8.28891711 L0.589137276,7.15753907 C0.589137276,6.78102262 0.895348937,6.47481096 1.27186537,6.47481096 L9.06146776,6.47481096 C9.43798422,6.47481096 9.74419582,6.78102262 9.74419582,7.15753907 L9.74419582,8.28891711 C9.74419582,8.66543356 9.43798422,8.97164524 9.06146776,8.97164524 L1.27186537,8.97164524 C0.895348937,8.97164524 0.589137276,8.66543356 0.589137276,8.28891711 Z M0.589137276,5.26056216 L0.589137276,4.12918412 C0.589137276,3.75266767 0.895348937,3.446456 1.27186537,3.446456 L9.06146776,3.446456 C9.43798422,3.446456 9.74419582,3.75266767 9.74419582,4.12918412 L9.74419582,5.26056216 C9.74419582,5.63707861 9.43798422,5.94329027 9.06146776,5.94329027 L1.27186537,5.94329027 C0.895348937,5.94329027 0.589137276,5.63707861 0.589137276,5.26056216 Z M0.589137276,2.23220718 L0.589137276,1.10082915 C0.589137276,0.724312709 0.895348937,0.418101033 1.27186537,0.418101033 L9.06146776,0.418101033 C9.43798422,0.418101033 9.74419582,0.724312709 9.74419582,1.10082915 L9.74419582,2.23220718 C9.74419582,2.60872363 9.43798422,2.91493531 9.06146776,2.91493531 L1.27186537,2.91493531 C0.895348937,2.91493531 0.589137276,2.60872363 0.589137276,2.23220718 Z" id="Combined-Shape"></path>
                                    </g>
                                </g>
                            </g>
                        </g>
                    </g>
                </g>
            </g>
        </g>
    </g>
</svg>
