<?xml version="1.0" encoding="UTF-8"?>
<svg viewBox="0 0 24 24" version="1.1" xmlns="http://www.w3.org/2000/svg" xmlns:xlink="http://www.w3.org/1999/xlink">
    <g id="icon/uplink" stroke="none" stroke-width="1" fill="none" fill-rule="evenodd">
        <path d="M11.86,2 L11.34,3.93 C15.75,4.78 19.2,8.23 20.05,12.65 L22,12.13 C20.95,7.03 16.96,3.04 11.86,2 M10.82,5.86 L10.3,7.81 C13.34,8.27 15.72,10.65 16.18,13.68 L18.12,13.16 C17.46,9.44 14.55,6.5 10.82,5.86 M3.72,9.69 C3.25,10.73 3,11.86 3,13 C3,14.95 3.71,16.82 5,18.28 L5,22 L8,22 L8,20.41 C8.95,20.8 9.97,21 11,21 C12.14,21 13.27,20.75 14.3,20.28 L3.72,9.69 M9.79,9.76 L9.26,11.72 C10.9168542,11.72 12.26,13.0631458 12.26,14.72 L14.23,14.2 C14,11.86 12.13,10 9.79,9.76 Z" id="Shape" fill="#00BAE9" fill-rule="nonzero"></path>
    </g>
</svg>
