<?xml version="1.0" encoding="UTF-8"?>
<svg viewBox="0 0 24 24" version="1.1" xmlns="http://www.w3.org/2000/svg" xmlns:xlink="http://www.w3.org/1999/xlink">
    <g id="icon/vault" stroke="none" stroke-width="1" fill="none" fill-rule="evenodd">
        <path d="M10.2,12.047619 C10.2,11.052381 11.01,10.2380952 12,10.2380952 C12.99,10.2380952 13.8,11.052381 13.8,12.047619 C13.8,13.0428571 12.99,13.8571429 12,13.8571429 C11.01,13.8571429 10.2,13.0428571 10.2,12.047619 M8.22,17.2047619 L6.87,15.9380952 L8.22,14.5809524 C7.77,13.8571429 7.5,12.952381 7.5,12.047619 C7.5,11.1428571 7.77,10.2380952 8.22,9.6047619 L6.87,8.24761905 L8.22,6.89047619 L9.48,8.24761905 C10.2,7.7952381 11.1,7.52380952 12,7.52380952 C12.9,7.52380952 13.8,7.7952381 14.52,8.24761905 L15.87,6.89047619 L17.13,8.15714286 L15.78,9.51428571 C16.23,10.2380952 16.5,11.1428571 16.5,12.047619 C16.5,12.952381 16.23,13.8571429 15.78,14.5809524 L17.13,15.9380952 L15.87,17.2047619 L14.52,15.847619 C13.8,16.3 12.9,16.5714286 12,16.5714286 C11.1,16.5714286 10.2,16.3 9.57,15.847619 L8.22,17.2047619 M12,9.33333333 C10.47,9.33333333 9.3,10.5095238 9.3,12.047619 C9.3,13.5857143 10.47,14.7619048 12,14.7619048 C13.53,14.7619048 14.7,13.5857143 14.7,12.047619 C14.7,10.5095238 13.53,9.33333333 12,9.33333333 M19.2,3 C20.19,3 21,3.81428571 21,4.80952381 L21,19.2857143 C21,20.2809524 20.19,21.0952381 19.2,21.0952381 L18.3,21.0952381 L18.3,22 L14.7,22 L14.7,21.0952381 L9.3,21.0952381 L9.3,22 L5.7,22 L5.7,21.0952381 L4.8,21.0952381 C3.81,21.0952381 3,20.2809524 3,19.2857143 L3,4.80952381 C3,3.81428571 3.81,3 4.8,3 L19.2,3 M19.2,19.2857143 L19.2,4.80952381 L4.8,4.80952381 L4.8,19.2857143 L19.2,19.2857143 Z" id="Shape" fill="#00BAE9" fill-rule="nonzero"></path>
    </g>
</svg>
