<?xml version="1.0" encoding="UTF-8"?>
<!-- Generated by Pixelmator Pro 3.4.3 -->
<svg width="400" height="239" viewBox="0 0 400 239" xmlns="http://www.w3.org/2000/svg">
    <g id="Group">
        <path id="Path" fill="#252f3e" stroke="none" d="M 113.684212 87.195602 C 113.684212 92.054398 114.210533 95.993958 115.131577 98.882965 C 116.184212 101.771973 117.500008 104.92363 119.342102 108.337906 C 119.999992 109.388458 120.263161 110.439011 120.263161 111.358246 C 120.263161 112.671432 119.473686 113.984619 117.763161 115.297806 L 109.473679 120.813187 C 108.289474 121.601097 107.105263 121.995056 106.052628 121.995056 C 104.736839 121.995056 103.421051 121.338463 102.105263 120.156593 C 100.263153 118.186813 98.684212 116.085716 97.368423 113.984619 C 96.052635 111.752197 94.736839 109.257141 93.289474 106.236816 C 83.026314 118.31813 70.131577 124.358788 54.605263 124.358788 C 43.552631 124.358788 34.736843 121.207146 28.289474 114.903847 C 21.842106 108.60054 18.552631 100.196152 18.552631 89.690659 C 18.552631 78.52858 22.5 69.467575 30.526318 62.639008 C 38.552631 55.81044 49.210529 52.396149 62.763161 52.396149 C 67.236839 52.396149 71.842102 52.7901 76.710526 53.446701 C 81.578949 54.103287 86.578949 55.153839 91.84211 56.335709 L 91.84211 46.749466 C 91.84211 36.769226 89.736839 29.809341 85.65789 25.738464 C 81.447372 21.667587 74.342102 19.6978 64.210526 19.6978 C 59.605263 19.6978 54.868423 20.223068 50 21.404953 C 45.131577 22.586807 40.394737 24.031326 35.789474 25.869781 C 33.684212 26.789001 32.105263 27.314285 31.184212 27.57692 C 30.263159 27.839554 29.605263 27.970886 29.078947 27.970886 C 27.236843 27.970886 26.31579 26.6577 26.31579 23.899994 L 26.31579 17.465393 C 26.31579 15.364288 26.578949 13.788467 27.236843 12.869232 C 27.894737 11.950012 29.078947 11.030762 30.921053 10.111542 C 35.526318 7.747787 41.052631 5.778015 47.499996 4.202194 C 53.947369 2.495041 60.789474 1.707153 68.026314 1.707153 C 83.684212 1.707153 95.131584 5.252747 102.5 12.343948 C 109.736847 19.435165 113.421051 30.203293 113.421051 44.648346 L 113.421051 87.195602 Z M 60.263157 107.156036 C 64.605263 107.156036 69.078949 106.368134 73.815788 104.792313 C 78.552635 103.216476 82.763161 100.327469 86.315788 96.387909 C 88.421051 93.892853 90 91.135162 90.789474 87.983521 C 91.578949 84.831863 92.105263 81.023621 92.105263 76.558792 L 92.105263 71.043411 C 88.289474 70.124161 84.210526 69.336273 80 68.810974 C 75.789474 68.285721 71.710526 68.023087 67.631584 68.023087 C 58.815792 68.023087 52.36842 69.730225 48.026318 73.275833 C 43.684212 76.821426 41.578949 81.811539 41.578949 88.377472 C 41.578949 94.549454 43.157894 99.145599 46.447369 102.297256 C 49.605263 105.580215 54.210526 107.156036 60.263157 107.156036 Z M 165.921051 121.338463 C 163.552643 121.338463 161.973679 120.944504 160.921051 120.025276 C 159.868423 119.237366 158.947372 117.398903 158.157898 114.903847 L 127.236839 13.394501 C 126.447365 10.768127 126.052635 9.060974 126.052635 8.141754 C 126.052635 6.040665 127.105263 4.85878 129.210526 4.85878 L 142.10527 4.85878 C 144.60527 4.85878 146.315781 5.252747 147.236847 6.171967 C 148.289474 6.9599 149.078949 8.798355 149.868423 11.293411 L 171.973679 98.226379 L 192.5 11.293411 C 193.157898 8.667038 193.947357 6.9599 195 6.171967 C 196.052628 5.384079 197.89473 4.85878 200.263153 4.85878 L 210.789474 4.85878 C 213.289474 4.85878 214.999985 5.252747 216.052628 6.171967 C 217.10527 6.9599 218.026306 8.798355 218.552643 11.293411 L 239.342102 99.276917 L 262.105255 11.293411 C 262.894745 8.667038 263.815796 6.9599 264.736847 6.171967 C 265.789459 5.384079 267.5 4.85878 269.868439 4.85878 L 282.105255 4.85878 C 284.210541 4.85878 285.394714 5.909348 285.394714 8.141754 C 285.394714 8.798355 285.263153 9.454941 285.131561 10.242859 C 285 11.030762 284.736847 12.081314 284.210541 13.525833 L 252.499985 115.035164 C 251.710526 117.661537 250.789474 119.368683 249.736847 120.156593 C 248.684204 120.944504 246.973679 121.46978 244.736847 121.46978 L 233.421051 121.46978 C 230.921051 121.46978 229.210526 121.075821 228.157883 120.156593 C 227.10527 119.237366 226.184204 117.53022 225.657898 114.903847 L 205.263153 30.203293 L 185.000015 114.77253 C 184.342117 117.398903 183.552628 119.106041 182.5 120.025276 C 181.447357 120.944504 179.60527 121.338463 177.236832 121.338463 L 165.921051 121.338463 Z M 335 124.884064 C 328.157898 124.884064 321.315796 124.096153 314.736847 122.520332 C 308.157898 120.944504 303.026306 119.237366 299.605255 117.267586 C 297.5 116.085716 296.052643 114.77253 295.526337 113.59066 C 295 112.408791 294.736847 111.095604 294.736847 109.913727 L 294.736847 103.216476 C 294.736847 100.458786 295.78949 99.145599 297.763153 99.145599 C 298.552612 99.145599 299.342102 99.276917 300.131592 99.539566 C 300.921051 99.8022 302.105286 100.327469 303.421051 100.852753 C 307.894745 102.822525 312.763153 104.398346 317.894745 105.448898 C 323.157898 106.499451 328.289459 107.024719 333.552643 107.024719 C 341.842102 107.024719 348.28949 105.580215 352.763153 102.691208 C 357.236847 99.8022 359.605255 95.600006 359.605255 90.215927 C 359.605255 86.539017 358.421051 83.518677 356.052643 81.023621 C 353.684204 78.52858 349.21051 76.296158 342.763153 74.195053 L 323.684204 68.285721 C 314.078949 65.265381 306.973694 60.800552 302.631592 54.89122 C 298.289459 49.113174 296.052643 42.678574 296.052643 35.850006 C 296.052643 30.334625 297.236847 25.475815 299.605255 21.273621 C 301.973694 17.071426 305.131561 13.394501 309.078949 10.505493 C 313.026306 7.485153 317.5 5.252747 322.763153 3.676926 C 328.026306 2.101105 333.552643 1.444519 339.342102 1.444519 C 342.236847 1.444519 345.263153 1.575821 348.157898 1.969788 C 351.184204 2.363739 353.947357 2.889008 356.710541 3.414291 C 359.342102 4.070892 361.842102 4.727478 364.21051 5.515381 C 366.578949 6.303299 368.421051 7.091202 369.736847 7.87912 C 371.578949 8.929672 372.894714 9.980225 373.684204 11.162094 C 374.473694 12.212646 374.868408 13.657135 374.868408 15.495605 L 374.868408 21.667587 C 374.868408 24.425278 373.815796 25.869781 371.842102 25.869781 C 370.789459 25.869781 369.078949 25.344513 366.842102 24.293961 C 359.342102 20.879669 350.921082 19.172531 341.578949 19.172531 C 334.078949 19.172531 328.157898 20.354401 324.078949 22.849442 C 320 25.344513 317.894745 29.15274 317.894745 34.536819 C 317.894745 38.213745 319.210541 41.365387 321.842102 43.860428 C 324.473694 46.355499 329.342102 48.85054 336.315796 51.082962 L 354.999969 56.992294 C 364.473694 60.012634 371.315796 64.214828 375.394714 69.598907 C 379.473663 74.982971 381.447357 81.154953 381.447357 87.983521 C 381.447357 93.630219 380.263153 98.751648 378.026306 103.216476 C 375.657898 107.68132 372.5 111.62088 368.421051 114.77253 C 364.342102 118.055496 359.473694 120.419228 353.815796 122.126373 C 347.894714 123.964836 341.710541 124.884064 335 124.884064 Z"/>
        <g id="g1">
            <path id="path1" fill="#ff9900" fill-rule="evenodd" stroke="none" d="M 359.868408 188.704941 C 316.578949 220.615387 253.684219 237.555481 199.605255 237.555481 C 123.815788 237.555481 55.526318 209.584625 3.947368 163.097809 C -0.131579 159.420883 3.552632 154.430771 8.421053 157.319794 C 64.210526 189.624176 133.026321 209.190659 204.210526 209.190659 C 252.236832 209.190659 305 199.210434 353.552643 178.724731 C 360.78949 175.441772 366.973663 183.452194 359.868408 188.704941 Z"/>
            <path id="path2" fill="#ff9900" fill-rule="evenodd" stroke="none" d="M 377.894745 168.219238 C 372.368408 161.128021 341.315796 164.804947 327.236847 166.512085 C 323.026306 167.037354 322.368408 163.360443 326.184204 160.602753 C 350.921082 143.268677 391.578949 148.258789 396.315796 154.036819 C 401.052612 159.946167 395.000031 200.523621 371.842102 219.958786 C 368.289459 222.979126 364.868408 221.403305 366.447357 217.463745 C 371.710541 204.463181 383.421051 175.179108 377.894745 168.219238 Z"/>
        </g>
    </g>
</svg>
