<?xml version="1.0" encoding="UTF-8"?>
<!-- Generated by Pixelmator Pro 3.4.3 -->
<svg width="400" height="115" viewBox="0 0 400 115" xmlns="http://www.w3.org/2000/svg">
    <g id="layer1">
        <g id="layer1-1">
            <path id="path21" fill="#0089d6" stroke="none" d="M 69.174301 108.791924 C 88.384895 105.385681 104.25174 102.567017 104.433975 102.528221 L 104.765312 102.457695 L 86.628624 80.804245 C 76.653458 68.894844 68.491936 59.104618 68.491936 59.04818 C 68.491936 58.94133 87.219604 7.177124 87.324883 6.992958 C 87.360085 6.931389 100.104828 29.016876 118.218987 60.529633 C 135.17778 90.03244 149.1595 114.357613 149.289444 114.585564 L 149.525742 115.000015 L 91.885841 114.992554 L 34.24596 114.985123 L 69.174301 108.791946 Z M 290.216553 103.555161 C 281.442657 102.990532 276.339691 97.975838 274.987457 88.589455 C 274.627716 86.092522 274.626373 86.02774 274.589539 69.817703 L 274.553925 54.129101 L 278.437012 54.129101 L 282.320099 54.129101 L 282.350708 69.304024 C 282.378265 82.980759 282.395569 84.584335 282.525818 85.546448 C 283.054535 89.451126 284.107086 92.07692 285.899078 93.961685 C 287.333221 95.470085 289.012115 96.353287 291.336151 96.821945 C 292.432587 97.043045 295.551636 97.043488 296.55127 96.822861 C 298.90741 96.302422 300.795807 95.273293 302.46167 93.601852 C 304.360382 91.696754 305.765076 88.99382 306.444733 85.93734 L 306.673767 84.907196 L 306.69931 69.603851 L 306.724792 54.300514 L 310.689178 54.300514 L 314.653625 54.300514 L 314.653625 78.357796 L 314.653625 102.41507 L 310.730042 102.41507 L 306.806488 102.41507 L 306.806488 98.598152 C 306.806488 96.004684 306.778168 94.79071 306.71817 94.810783 C 306.669586 94.827042 306.468079 95.136459 306.270355 95.49839 C 304.918304 97.973434 302.665588 100.236855 300.197113 101.600494 C 297.238251 103.235046 294.270844 103.816254 290.216583 103.555336 Z M 379.272644 103.516281 C 376.175415 103.282608 372.914215 102.213806 370.248779 100.558868 C 364.630737 97.07074 361.306549 91.321198 360.333282 83.408783 C 359.99649 80.670784 359.955994 76.992966 360.23703 74.666412 C 360.865051 69.467903 362.900238 64.364601 365.79834 60.72131 C 366.54129 59.787338 368.226715 58.095623 369.157196 57.349957 C 371.66983 55.336334 374.608887 53.928246 377.72934 53.243057 C 379.547485 52.843838 382.749237 52.656391 384.680878 52.836082 C 389.533386 53.287491 393.980743 55.580719 397.003479 59.190094 C 400.074554 62.85717 401.762604 67.981293 401.978149 74.290985 C 402.011963 75.279816 402.020142 77.013481 401.996368 78.143578 L 401.953156 80.198288 L 384.95813 80.219887 L 367.963074 80.241486 L 367.963074 81.002724 C 367.963074 83.320084 368.524353 85.959488 369.49472 88.205139 C 370.331512 90.141663 371.771973 92.25631 372.951324 93.27964 C 375.369568 95.377899 378.329132 96.63382 381.567627 96.936058 C 382.768433 97.048119 385.828705 96.930145 387.197113 96.719101 C 391.101288 96.116875 394.81308 94.579857 397.810547 92.324173 C 398.163208 92.058777 398.500702 91.810829 398.560516 91.77317 C 398.648041 91.718071 398.668762 92.411453 398.666565 95.326111 L 398.663818 98.947525 L 397.860657 99.446106 C 394.469788 101.551102 390.585144 102.902756 386.472137 103.408745 C 385.24469 103.559738 380.740601 103.626999 379.272675 103.516251 Z M 394.063354 72.973053 C 394.063354 69.091309 392.433594 64.77919 390.127319 62.558777 C 388.481445 60.974155 386.491791 60.005745 384.126465 59.638023 C 383.007446 59.46405 380.648987 59.531055 379.469147 59.770332 C 376.975067 60.276169 374.91217 61.376701 373.112854 63.161285 C 371.219238 65.039444 369.799469 67.320633 368.906586 69.919724 C 368.585541 70.854324 368.210022 72.388718 368.093414 73.242218 L 368.037872 73.648888 L 381.050629 73.648888 L 394.063354 73.648888 Z M 163.528625 102.307869 C 163.548538 102.249008 169.319656 87.03141 176.353333 68.490982 L 189.141861 34.781128 L 193.250885 34.780869 L 197.359909 34.780609 L 197.700836 35.65815 C 198.742661 38.339821 223.302551 102.341789 223.302551 102.375046 C 223.302551 102.396942 221.335434 102.414597 218.931183 102.414246 L 214.559799 102.41333 L 211.02005 92.953918 L 207.480316 83.494507 L 193.227646 83.494331 L 178.974991 83.494156 L 178.85112 83.815208 C 178.783005 83.991783 177.27066 88.248222 175.490356 93.273956 L 172.253433 102.411644 L 167.87294 102.413162 C 164.405563 102.414375 163.499985 102.392357 163.528625 102.307648 Z M 204.878815 76.275635 C 204.878815 76.260643 202.496689 69.778656 199.58522 61.871227 C 194.138367 47.077797 193.833664 46.187721 193.403305 43.812729 C 193.201508 42.699051 193.099411 42.668098 192.979645 43.684303 C 192.894012 44.410675 192.522766 46.036041 192.236557 46.937599 C 192.094559 47.384933 189.641708 54.142166 186.785797 61.953674 C 183.929901 69.765182 181.593246 76.189377 181.593246 76.229652 C 181.593246 76.269936 186.832504 76.302895 193.236038 76.302895 C 199.639557 76.302895 204.878815 76.290642 204.878815 76.27562 Z M 225.946701 101.182892 L 225.946701 99.95089 L 240.146698 80.357498 L 254.34671 60.764118 L 241.490097 60.72131 L 228.633499 60.678501 L 228.61116 57.403805 L 228.588821 54.129101 L 247.184174 54.129101 L 265.77951 54.129101 L 265.77951 55.235146 L 265.77951 56.34119 L 251.577896 76.041428 C 243.766998 86.876564 237.376251 95.759903 237.376251 95.782181 C 237.376251 95.804443 243.690216 95.822678 251.407303 95.822678 L 265.438324 95.822678 L 265.438324 99.118782 L 265.438324 102.414886 L 245.692535 102.414886 L 225.946701 102.414886 Z M 330.148895 102.357811 C 330.117615 102.326424 330.09201 91.46212 330.09201 78.21492 L 330.09201 54.129101 L 333.972931 54.129101 L 337.853882 54.129101 L 337.853882 59.094662 C 337.853882 61.825722 337.886963 64.060219 337.927399 64.060219 C 337.967865 64.060219 338.156769 63.613174 338.347168 63.066788 C 339.219727 60.56303 340.73291 58.22353 342.682434 56.364166 C 344.43866 54.689152 346.445892 53.687481 348.814301 53.304153 C 349.479614 53.196468 350.042542 53.175911 351.373169 53.210697 C 353.04425 53.254391 353.917908 53.376995 354.934204 53.710438 L 355.254089 53.81538 L 355.254089 57.858761 L 355.254089 61.902138 L 354.337158 61.441441 C 352.717468 60.627644 351.119293 60.305595 349.198151 60.405869 C 347.947815 60.471127 347.127106 60.632278 346.127502 61.008827 C 344.070801 61.783596 342.402496 63.151108 341.236786 65.017799 C 339.549255 67.720123 338.345642 71.193687 337.990662 74.386215 C 337.926941 74.959152 337.889404 79.625198 337.87442 88.823807 L 337.852325 102.414886 L 334.029022 102.414886 C 331.926239 102.414886 330.180176 102.389191 330.148926 102.357811 Z M -3.4e-05 102.18866 C -3.4e-05 102.15818 8.545886 87.267822 18.990908 69.098976 L 37.981838 36.064713 L 60.113575 17.42247 C 72.286026 7.169243 82.278084 -1.2323 82.318146 -1.24762 C 82.358208 -1.262932 82.198074 -0.858414 81.962311 -0.348679 C 81.72654 0.161057 70.912163 23.443237 57.930359 51.389484 L 34.327087 102.200851 L 17.163527 102.222458 C 7.723571 102.234344 -3.4e-05 102.219116 -3.4e-05 102.188652 Z"/>
        </g>
    </g>
</svg>
