<?xml version="1.0" encoding="UTF-8"?>
<!-- Generated by Pixelmator Pro 3.4.3 -->
<svg width="400" height="200" viewBox="0 0 400 200" xmlns="http://www.w3.org/2000/svg">
    <path id="Path" fill="#ea4335" stroke="none" d="M 216.233337 38.573334 L 220.046661 38.639999 L 230.406677 28.279999 L 230.906677 23.889999 C 222.67334 16.566666 211.839996 12.110001 199.983337 12.110001 C 178.516663 12.110001 160.396667 26.71666 155.029999 46.503326 C 156.16333 45.713333 158.580002 46.303329 158.580002 46.303329 L 179.286667 42.896667 C 179.286667 42.896667 180.353333 41.130005 180.886658 41.240005 C 190.112747 31.146927 205.600845 29.978561 216.236679 38.573334 Z"/>
    <path id="path1" fill="#4285f4" stroke="none" d="M 245 46.539993 C 242.619675 37.782288 237.735626 29.909424 230.946655 23.886673 L 216.273346 38.559998 C 222.372787 43.462128 225.921509 50.864761 225.92334 58.690002 L 225.92334 61.280014 C 233.063324 61.280014 238.856659 67.089996 238.856659 74.213333 C 238.856659 81.33667 233.046677 87.14666 225.92334 87.14666 L 200.050003 87.14666 L 197.459991 89.746666 L 197.459991 105.273338 L 200.050003 107.849998 L 225.92334 107.849998 C 244.474182 107.800499 259.496674 92.76754 259.533325 74.216667 C 259.52002 62.763336 253.746674 52.616669 244.96666 46.539993 Z"/>
    <path id="path2" fill="#34a853" stroke="none" d="M 174.113342 107.873329 L 199.979996 107.873329 L 199.979996 87.166672 L 174.113342 87.166672 C 172.276443 87.167534 170.460892 86.773056 168.790009 86.010002 L 165.056656 87.153336 L 154.696671 97.513329 L 153.790009 101.013336 C 159.618851 105.488792 166.767883 107.903847 174.116669 107.879997 Z"/>
    <path id="path3" fill="#fbbc05" stroke="none" d="M 174.113342 40.583328 C 155.542969 40.612701 140.496033 55.659637 140.46666 74.229988 C 140.466568 84.758987 145.401993 94.679184 153.800003 101.029999 L 168.800003 86.029991 C 164.158859 83.941826 161.173798 79.325928 161.17334 74.236664 C 161.17334 67.096664 166.983337 61.303329 174.106659 61.303329 C 179.193436 61.312241 183.805145 64.294617 185.899994 68.930008 L 200.899994 53.930008 C 194.746658 45.830002 185.033325 40.596664 174.100006 40.596664 Z"/>
    <path id="path4" fill="#5f6368" stroke="none" d="M 40 173.123337 C 32.933334 173.123337 26.866669 170.623337 21.753334 165.623337 C 16.640001 160.623337 14.086666 154.610001 14.086666 147.596664 C 14.086666 140.583328 16.636667 134.569992 21.753334 129.569992 C 26.869999 124.569992 32.943336 122.066666 40 122.066666 C 46.539104 121.971611 52.842667 124.505524 57.49667 129.100006 L 52.573334 134.023346 C 49.204292 130.765625 44.682682 128.973999 39.996666 129.040009 C 34.896667 129.040009 30.563332 130.839996 27.009998 134.463333 C 23.51689 137.932083 21.593681 142.67807 21.686666 147.599991 C 21.686666 152.753326 23.453333 157.123337 27.009998 160.733337 C 30.389208 164.278809 35.099575 166.245895 39.996666 166.156662 C 45.190002 166.156662 49.48 164.490005 52.896667 161.043335 C 54.896667 159.043335 56.23 156.043335 56.696671 152.26001 L 40.010002 152.26001 L 40.010002 145.286667 L 63.490002 145.286667 C 63.739998 146.526672 63.82333 147.953339 63.82333 149.62001 C 63.82333 156.473343 61.813335 161.906662 57.779999 165.936661 C 53.206665 170.720001 47.279999 173.103333 39.963333 173.103333 Z M 94.566673 168.456665 C 91.366669 171.589996 87.466667 173.123337 82.860001 173.123337 C 78.253334 173.123337 74.346672 171.556671 71.153336 168.456665 C 67.959999 165.356659 66.360001 161.41333 66.360001 156.723328 C 66.360001 152.03334 67.959999 148.123337 71.153336 144.990005 C 74.346672 141.856659 78.253334 140.323334 82.860001 140.323334 C 87.466667 140.323334 91.373337 141.889999 94.566673 144.990005 C 97.759995 148.089996 99.360001 152.043335 99.360001 156.723328 C 99.360001 161.403336 97.759995 165.323334 94.566673 168.456665 Z M 76.32 163.856674 C 78.001762 165.684296 80.379814 166.712814 82.863335 166.686676 C 85.396667 166.686676 87.576668 165.746658 89.40667 163.853333 C 91.236671 161.960007 92.146667 159.58667 92.146667 156.720001 C 92.146667 153.820007 91.246666 151.426666 89.436668 149.553345 C 87.626671 147.680008 85.443329 146.753342 82.863335 146.753342 C 80.374863 146.715164 77.986588 147.732483 76.290001 149.553345 C 74.480003 151.419998 73.580002 153.806656 73.580002 156.720001 C 73.580002 159.580002 74.489998 161.963333 76.32 163.853333 Z M 130.563324 168.456665 C 127.363335 171.589996 123.463341 173.123337 118.856674 173.123337 C 114.250008 173.123337 110.343338 171.556671 107.150002 168.456665 C 103.956665 165.356659 102.356667 161.41333 102.356667 156.723328 C 102.356667 152.03334 103.956665 148.123337 107.150002 144.990005 C 110.343338 141.856659 114.250008 140.323334 118.856674 140.323334 C 123.463341 140.323334 127.369995 141.889999 130.563324 144.990005 C 133.756668 148.089996 135.356659 152.043335 135.356659 156.723328 C 135.356659 161.403336 133.756668 165.323334 130.563324 168.456665 Z M 112.316666 163.856674 C 113.998428 165.684296 116.37648 166.712814 118.860001 166.686676 C 121.393333 166.686676 123.573326 165.746658 125.403328 163.853333 C 127.23333 161.960007 128.143341 159.58667 128.143341 156.720001 C 128.143341 153.820007 127.243332 151.426666 125.433334 149.553345 C 123.623337 147.680008 121.439995 146.753342 118.860001 146.753342 C 116.371521 146.715164 113.983253 147.732483 112.286667 149.553345 C 110.476669 151.419998 109.576668 153.806656 109.576668 156.720001 C 109.576668 159.580002 110.486664 161.963333 112.316666 163.853333 Z M 154.226669 187.923325 C 150.576675 187.923325 147.503326 186.943329 145.013336 184.990005 C 142.523331 183.036667 140.740005 180.776672 139.660004 178.196671 L 145.953339 175.58667 C 146.613342 177.166672 147.619995 178.536667 149.063339 179.699997 C 150.506668 180.863327 152.196671 181.440002 154.236664 181.440002 C 156.976669 181.440002 159.12999 180.606659 160.679993 178.950012 C 162.229996 177.293335 163.013336 174.896667 163.013336 171.783325 L 163.013336 169.449997 L 162.763336 169.449997 C 160.763336 171.940002 157.840012 173.190002 154.110001 173.190002 C 149.916656 173.190002 146.243332 171.589996 143.08667 168.396667 C 139.987854 165.346207 138.276779 161.157654 138.353333 156.809998 C 138.275497 152.435669 139.984894 148.218765 143.08667 145.133331 C 146.236664 141.92334 149.920013 140.309998 154.110001 140.309998 C 155.976669 140.309998 157.669998 140.660004 159.183334 141.369995 C 160.696671 142.080002 161.893341 142.949997 162.763336 143.979996 L 163.013336 143.979996 L 163.013336 141.333344 L 169.866669 141.333344 L 169.866669 170.856659 C 169.866669 176.589996 168.406662 180.87001 165.473328 183.723328 C 162.540009 186.556671 158.800003 187.98999 154.230011 187.98999 Z M 154.726669 166.683334 C 157.13295 166.725815 159.431534 165.687241 160.990005 163.853333 C 162.669998 161.963333 163.51001 159.610001 163.51001 156.779999 C 163.51001 153.919998 162.669998 151.526672 160.990005 149.613327 C 159.440277 147.764359 157.138885 146.713486 154.726669 146.753342 C 152.193344 146.753342 150.033325 147.713333 148.253342 149.613327 C 146.473343 151.513336 145.573334 153.906677 145.573334 156.779999 C 145.573334 159.600006 146.463333 161.963333 148.253342 163.853333 C 150.043335 165.743332 152.196671 166.686676 154.726669 166.686676 Z M 182.066666 123.799995 L 182.066666 172.133331 L 174.843338 172.133331 L 174.843338 123.799995 Z M 201.866669 173.119995 C 197.213333 173.119995 193.333328 171.540009 190.220001 168.386658 C 187.106674 165.233337 185.546677 161.333344 185.546677 156.680008 C 185.546677 151.866669 187.046661 147.91333 190.059998 144.846664 C 192.917999 141.839127 196.904968 140.166016 201.053345 140.233337 C 203.04332 140.233337 204.896667 140.593338 206.596664 141.323334 C 208.177216 141.971008 209.615463 142.922272 210.830002 144.123337 C 211.842865 145.131592 212.741608 146.248322 213.51001 147.453339 C 214.145004 148.483154 214.687149 149.567429 215.130005 150.693329 L 215.880005 152.559998 L 193.899994 161.666672 C 195.566666 164.986664 198.233337 166.649994 201.873337 166.649994 C 205.193329 166.649994 207.896667 165.139999 209.966675 162.106659 L 215.566666 165.84668 C 214.316666 167.713333 212.556656 169.396667 210.273331 170.889999 C 207.98999 172.383331 205.180008 173.123337 201.860001 173.123337 Z M 192.713333 156.186661 L 207.380005 150.08667 C 206.960007 149.046661 206.199997 148.206665 205.046661 147.566666 C 203.886887 146.916992 202.575851 146.585785 201.246674 146.606659 C 199.126663 146.606659 197.146667 147.473328 195.303329 149.21666 C 193.459991 150.959991 192.569992 153.289993 192.653336 156.190002 Z M 253.813324 173.119995 C 247.246674 173.119995 241.746674 170.899994 237.306671 166.453339 C 232.866669 162.006668 230.639999 156.470001 230.639999 149.826675 C 230.639999 143.183334 232.860001 137.639999 237.306671 133.199997 C 241.753342 128.759995 247.250015 126.533333 253.813324 126.533333 C 260.536682 126.533333 266 128.96666 270.190002 133.816666 L 266.206665 137.683334 C 263.206665 133.903336 259.039978 132.016663 253.806656 132.016663 C 248.940002 132.016663 244.853333 133.656677 241.473343 136.940002 C 238.093338 140.223343 236.460007 144.513336 236.460007 149.826675 C 236.460007 155.139999 238.126678 159.440002 241.473343 162.726669 C 244.819992 166.013336 248.916672 167.649994 253.806656 167.649994 C 259.160004 167.649994 263.730011 165.48999 267.473328 161.176666 L 271.456665 165.160004 C 269.369385 167.650681 266.749329 169.640778 263.790009 170.983322 C 260.651154 172.427155 257.231506 173.15799 253.776672 173.123337 Z M 282.333313 172.133331 L 276.600006 172.133331 L 276.600006 127.543335 L 282.333313 127.543335 Z M 291.676666 145.266678 C 294.626678 142.176666 298.343323 140.623337 302.950012 140.623337 C 307.556671 140.623337 311.273346 142.17334 314.223328 145.266678 C 317.17334 148.360001 318.646667 152.266663 318.646667 156.883331 C 318.646667 161.5 317.179993 165.406677 314.223328 168.5 C 311.266663 171.593338 307.556671 173.143341 302.950012 173.143341 C 298.343323 173.143341 294.626678 171.593338 291.676666 168.5 C 288.726654 165.406677 287.253326 161.5 287.253326 156.883331 C 287.253326 152.266663 288.720001 148.360001 291.676666 145.266678 Z M 295.943329 164.876678 C 297.943329 166.886673 300.256683 167.896667 302.943329 167.896667 C 305.630005 167.896667 307.943329 166.886673 309.943329 164.876678 C 311.943329 162.866669 312.903351 160.193329 312.903351 156.876663 C 312.903351 153.559998 311.91333 150.883331 309.943329 148.876663 C 307.973328 146.869995 305.630005 145.856659 302.943329 145.856659 C 300.256683 145.856659 297.943329 146.866669 295.943329 148.876663 C 293.943329 150.886658 292.983307 153.559998 292.983307 156.876663 C 292.983307 160.193329 293.973328 162.869995 295.943329 164.876678 Z M 350.343323 172.133331 L 344.859985 172.133331 L 344.859985 167.899994 L 344.610016 167.899994 C 343.743347 169.350006 342.410004 170.589996 340.626678 171.566666 C 338.843323 172.543335 336.959991 173.100006 334.959991 173.100006 C 331.136688 173.100006 328.246674 171.940002 326.276672 169.610001 C 324.306671 167.279999 323.316681 164.166672 323.316681 160.266678 L 323.316681 141.580002 L 329.049988 141.580002 L 329.049988 159.32666 C 329.049988 165.020004 331.559998 167.860001 336.583313 167.860001 C 338.865234 167.908157 341.027283 166.84079 342.376648 165 C 343.858551 163.120911 344.649414 160.78952 344.616669 158.396667 L 344.616669 141.580002 L 350.350006 141.580002 L 350.350006 172.103333 Z M 369.769989 173.123337 C 365.82666 173.123337 362.416656 171.563339 359.556641 168.449997 C 356.696686 165.33667 355.263336 161.476669 355.263336 156.863327 C 355.263336 152.25 356.696686 148.389999 359.556641 145.276672 C 362.416656 142.16333 365.829987 140.603333 369.769989 140.603333 C 372.089996 140.603333 374.183319 141.103333 376.036652 142.093323 C 377.889984 143.083328 379.269989 144.333328 380.179993 145.833328 L 380.429993 145.833328 L 380.179993 141.600006 L 380.179993 127.533325 L 385.91333 127.533325 L 385.91333 172.133331 L 380.429993 172.133331 L 380.429993 167.899994 L 380.179993 167.899994 C 379.269989 169.389999 377.889984 170.639999 376.036652 171.639999 C 374.186646 172.619995 372.093323 173.119995 369.769989 173.119995 Z M 370.703339 167.889999 C 373.32019 167.925552 375.826569 166.836823 377.58667 164.900009 C 379.476685 162.910004 380.419983 160.226669 380.419983 156.899994 C 380.419983 153.573334 379.480011 150.856659 377.58667 148.899994 C 375.826569 146.963181 373.32019 145.874451 370.703339 145.910004 C 368.043335 145.910004 365.759979 146.919998 363.850006 148.930008 C 361.940002 150.940002 360.98999 153.613327 360.98999 156.929993 C 360.98999 160.246674 361.940002 162.923325 363.850006 164.929993 C 365.595123 166.873611 368.091339 167.973602 370.703339 167.949997 Z"/>
</svg>
