<svg width="21" height="20" viewBox="0 0 21 20" fill="none" xmlns="http://www.w3.org/2000/svg">
<rect x="20.5" width="20" height="20" rx="10" transform="rotate(90 20.5 0)" fill="#74DFFF" fill-opacity="0.3"/>
<g clip-path="url(#clip0_6090_4520)">
<path d="M8.9986 14.1671C8.7997 14.1671 8.60897 14.0792 8.46835 13.923L6.21835 11.423C6.08173 11.2658 6.00613 11.0553 6.00784 10.8368C6.00955 10.6183 6.08843 10.4093 6.22748 10.2548C6.36654 10.1003 6.55465 10.0126 6.7513 10.0107C6.94794 10.0088 7.13739 10.0928 7.27885 10.2446L8.92885 12.078L13.6561 5.32213C13.7782 5.14753 13.9578 5.03398 14.1553 5.00648C14.3527 4.97897 14.552 5.03976 14.7091 5.17546C14.8662 5.31116 14.9684 5.51067 14.9932 5.73008C15.0179 5.9495 14.9632 6.17086 14.8411 6.34546L9.5911 13.8455C9.52588 13.9391 9.44345 14.0162 9.3493 14.0717C9.25515 14.1271 9.15145 14.1597 9.0451 14.1671H8.9986Z" fill="#36A7C9"/>
</g>
<defs>
<clipPath id="clip0_6090_4520">
<rect width="9" height="10" fill="white" transform="translate(6 5)"/>
</clipPath>
</defs>
</svg>
