<svg width="20" height="20" viewBox="0 0 20 20" fill="none" xmlns="http://www.w3.org/2000/svg">
<rect x="20" width="20" height="20" rx="10" transform="rotate(90 20 0)" fill="#A0F6E1" fill-opacity="0.3"/>
<g clip-path="url(#clip0_5887_21290)">
<path d="M8.4986 14.1671C8.2997 14.1671 8.10897 14.0792 7.96835 13.923L5.71835 11.423C5.58173 11.2658 5.50613 11.0553 5.50784 10.8368C5.50955 10.6183 5.58843 10.4093 5.72748 10.2548C5.86654 10.1003 6.05465 10.0126 6.2513 10.0107C6.44794 10.0088 6.63739 10.0928 6.77885 10.2446L8.42885 12.078L13.1561 5.32213C13.2782 5.14753 13.4578 5.03398 13.6553 5.00648C13.8527 4.97897 14.052 5.03976 14.2091 5.17546C14.3662 5.31116 14.4684 5.51067 14.4932 5.73008C14.5179 5.9495 14.4632 6.17086 14.3411 6.34546L9.0911 13.8455C9.02588 13.9391 8.94345 14.0162 8.8493 14.0717C8.75515 14.1271 8.65145 14.1597 8.5451 14.1671H8.4986Z" fill="#227863"/>
</g>
<defs>
<clipPath id="clip0_5887_21290">
<rect width="9" height="10" fill="white" transform="translate(5.5 5)"/>
</clipPath>
</defs>
</svg>
